<?xml version="1.0" encoding="UTF-8" ?>
<!DOCTYPE svg PUBLIC "-//W3C//DTD SVG 1.1//EN" "http://www.w3.org/Graphics/SVG/1.1/DTD/svg11.dtd">
<svg width="587pt" height="302pt" viewBox="0 0 587 302" version="1.1" xmlns="http://www.w3.org/2000/svg">
<g id="#ffffffff">
<path fill="#ffffff" opacity="1.00" d=" M 0.00 0.00 L 587.00 0.00 L 587.00 1.14 C 523.66 1.35 460.31 1.19 396.96 1.23 C 269.29 1.24 141.62 1.24 13.95 1.23 C 9.63 1.19 5.31 1.21 0.99 1.47 C 1.01 101.64 1.00 201.82 1.00 302.00 L 0.00 302.00 L 0.00 0.00 Z" />
<path fill="#ffffff" opacity="1.00" d=" M 73.97 150.47 C 244.77 105.06 415.54 59.54 586.38 14.28 C 586.39 101.85 586.38 189.42 586.38 276.99 C 586.44 281.24 586.09 285.53 586.76 289.75 C 569.95 285.84 553.35 281.05 536.62 276.78 C 409.15 243.24 281.69 209.67 154.23 176.05 C 124.73 168.42 95.36 160.25 65.78 152.95 C 68.48 152.02 71.21 151.19 73.97 150.47 M 557.41 51.48 C 551.34 53.93 545.37 56.62 539.25 58.95 C 537.16 56.54 534.03 57.20 531.58 58.66 C 526.93 61.34 521.67 62.53 516.56 64.00 C 516.07 62.89 515.60 61.79 515.11 60.69 C 508.24 66.50 499.09 68.31 490.78 71.18 C 490.39 69.64 489.97 68.11 489.55 66.59 C 488.10 68.45 487.00 70.74 484.79 71.85 C 480.04 74.80 474.34 75.05 469.05 76.36 C 462.74 77.85 456.39 79.54 450.60 82.52 C 446.71 84.67 442.52 88.02 442.45 92.87 C 442.70 95.27 443.76 97.51 444.01 99.91 C 440.61 104.82 434.79 106.97 429.99 110.17 C 426.64 112.69 424.56 118.00 427.48 121.60 C 429.17 124.12 432.26 124.67 435.00 125.37 C 441.45 124.26 445.79 117.80 452.76 118.52 C 451.41 121.42 449.16 123.77 446.51 125.52 C 437.62 132.02 426.47 134.24 417.41 140.40 C 415.96 143.65 416.18 147.80 413.20 150.21 C 410.07 152.99 406.55 156.55 407.06 161.11 C 407.64 165.08 411.44 167.18 414.59 168.98 C 414.52 167.19 414.57 165.39 414.93 163.62 C 417.83 164.78 421.19 165.48 424.18 164.18 C 429.68 162.05 432.47 156.21 437.85 153.84 C 447.56 148.94 458.46 144.94 469.50 146.50 C 473.08 148.87 476.58 151.86 481.12 152.02 C 481.09 154.71 482.91 156.49 485.19 157.58 C 484.39 159.87 484.95 162.12 486.66 163.83 C 485.46 166.10 485.59 168.63 486.30 171.03 C 485.75 173.06 485.98 175.10 486.85 177.00 C 485.37 179.19 484.72 181.75 485.79 184.28 C 484.02 188.15 480.50 191.34 476.05 191.33 C 469.71 189.43 464.13 185.45 460.23 180.10 C 458.68 182.10 457.37 184.26 456.20 186.50 C 450.93 184.88 445.46 184.13 440.15 182.72 C 440.05 180.96 440.67 179.28 441.06 177.60 C 439.55 176.74 437.96 176.02 436.36 175.38 C 438.40 170.98 432.35 169.89 429.33 170.49 C 427.48 173.12 427.40 176.53 426.61 179.56 C 422.29 176.94 419.27 172.80 417.17 168.28 C 412.94 171.82 407.32 172.57 402.05 173.29 C 398.32 173.80 394.35 172.99 390.84 174.64 C 398.51 179.71 406.67 184.53 412.30 191.99 C 415.73 188.58 420.33 186.79 425.08 186.20 C 424.63 189.14 423.76 192.06 424.01 195.05 C 425.33 197.17 428.26 197.75 430.55 197.21 C 431.54 196.32 431.67 194.83 432.34 193.74 C 433.77 194.06 435.22 194.38 436.67 194.69 C 437.49 193.06 438.09 191.34 438.62 189.60 C 444.10 190.64 449.50 192.01 454.96 193.18 C 455.06 195.60 455.23 198.03 455.56 200.44 C 460.42 197.56 466.08 196.56 471.67 196.59 C 470.98 198.28 471.13 200.73 469.16 201.54 C 467.12 202.90 463.39 202.15 463.62 205.60 C 459.19 205.36 454.76 205.05 450.37 204.46 C 448.45 202.66 446.99 199.73 444.01 199.63 C 442.40 199.92 441.12 201.06 439.67 201.72 C 438.00 201.14 436.47 200.21 434.74 199.82 C 433.01 200.08 431.36 200.71 429.67 201.11 C 427.41 201.08 425.00 199.96 422.84 201.07 C 420.12 202.18 417.83 205.02 417.97 208.02 C 419.67 210.46 422.94 210.99 424.86 213.20 C 426.15 214.84 426.84 216.98 428.56 218.28 C 431.46 220.52 435.26 220.76 438.76 221.28 C 441.10 221.64 442.77 223.51 444.46 225.01 C 447.84 226.28 451.44 225.83 454.97 225.95 C 460.08 227.33 464.27 230.99 467.28 235.25 C 468.30 234.08 469.07 231.85 470.97 231.99 C 473.44 232.29 475.33 234.14 477.37 235.40 C 477.54 233.21 477.28 231.03 476.54 228.96 C 481.63 231.56 486.14 235.08 490.22 239.06 C 490.69 237.51 491.03 235.92 491.27 234.33 C 494.84 238.72 501.01 240.88 506.30 238.24 C 503.67 235.64 499.03 234.16 498.31 230.18 C 498.55 230.29 499.03 230.52 499.28 230.63 L 499.85 230.85 L 500.07 231.45 C 504.17 233.67 509.28 232.83 513.54 231.42 C 509.78 228.95 505.37 227.70 501.45 225.52 C 504.95 225.41 508.56 224.32 509.91 220.73 C 507.59 220.70 505.26 220.76 502.97 221.14 C 500.98 221.22 499.00 221.25 497.01 221.29 C 497.21 219.53 497.43 217.78 497.59 216.02 C 491.16 218.36 484.39 219.85 477.52 219.42 C 477.82 217.77 477.99 216.10 478.11 214.42 C 479.26 216.32 481.14 216.13 482.99 215.69 C 484.99 218.05 487.86 216.91 488.67 214.14 C 503.82 215.06 518.95 216.21 534.10 217.08 C 536.69 217.34 536.83 214.00 536.95 212.19 C 538.15 212.08 539.80 212.84 540.67 211.64 C 542.51 209.76 541.60 206.09 538.93 205.62 C 527.02 202.67 515.02 200.12 503.06 197.39 C 500.52 197.20 499.47 194.62 498.12 192.86 C 497.71 189.94 500.09 187.53 501.21 184.99 C 503.26 187.16 505.73 188.86 508.53 189.94 C 507.95 187.43 507.69 184.86 508.01 182.29 C 510.48 183.46 513.17 183.97 515.90 184.10 C 514.69 181.45 513.79 178.69 513.36 175.81 C 516.61 177.47 520.20 178.19 523.83 177.64 C 521.58 174.65 519.40 171.57 518.01 168.07 C 521.23 168.84 523.93 170.75 526.33 172.95 C 527.17 169.89 525.95 167.00 523.87 164.76 C 529.02 164.40 532.81 160.27 533.89 155.41 C 531.95 155.99 530.00 156.60 528.08 157.21 C 529.20 155.16 530.22 153.05 531.08 150.87 C 529.52 151.39 528.03 151.95 526.51 152.51 C 526.49 152.41 526.46 152.20 526.44 152.10 C 529.58 151.26 532.15 149.29 534.22 146.85 C 530.22 146.63 527.80 143.49 525.90 140.36 C 530.55 140.52 535.25 143.57 539.82 141.70 C 548.28 142.95 556.53 145.44 565.01 146.52 C 567.14 147.05 568.69 145.54 570.06 144.18 C 570.05 143.48 570.02 142.07 570.01 141.36 C 572.47 139.72 573.84 137.13 573.22 134.15 C 575.02 132.03 575.50 129.32 574.27 126.77 C 573.96 121.62 572.26 116.40 568.53 112.70 C 566.19 110.93 562.89 109.92 560.08 111.18 C 553.33 113.77 546.03 114.27 538.92 115.16 C 533.93 113.38 528.82 112.01 523.59 111.11 C 530.49 106.96 536.66 101.62 544.13 98.46 C 546.36 97.73 547.26 95.69 547.55 93.53 C 549.78 91.23 550.78 88.14 551.70 85.15 C 553.00 83.83 554.05 82.30 554.69 80.54 C 556.22 79.32 557.63 77.91 557.96 75.88 C 559.14 74.05 560.22 72.07 559.86 69.80 C 560.50 68.59 561.51 67.48 561.65 66.07 C 561.84 62.75 564.06 59.78 562.93 56.39 C 563.87 54.60 564.11 52.63 563.09 50.81 C 561.18 50.83 559.19 50.67 557.41 51.48 Z" />
<path fill="#ffffff" opacity="1.00" d=" M 560.01 112.77 C 563.24 111.47 567.60 112.46 569.25 115.74 C 559.55 117.94 549.66 119.09 539.81 120.31 C 539.76 119.36 539.66 117.45 539.61 116.50 C 546.46 115.58 553.47 115.22 560.01 112.77 Z" />
<path fill="#ffffff" opacity="1.00" d=" M 566.06 117.82 C 567.50 117.56 568.95 117.32 570.41 117.11 C 570.86 117.99 571.77 119.76 572.23 120.65 C 561.56 122.68 550.65 123.05 539.88 124.38 C 539.58 123.72 539.00 122.40 538.71 121.75 C 547.88 120.92 557.07 119.84 566.06 117.82 Z" />
<path fill="#ffffff" opacity="1.00" d=" M 446.47 127.33 C 449.20 125.50 451.49 123.11 453.95 120.95 C 453.01 123.11 451.70 125.05 450.51 127.07 C 453.54 126.47 456.54 125.71 459.59 125.24 C 457.39 128.10 453.43 128.93 451.51 131.98 C 455.25 130.73 458.94 129.12 462.98 129.26 C 461.00 132.88 457.11 134.09 453.63 135.70 C 453.53 135.95 453.31 136.45 453.20 136.70 C 457.61 136.36 461.67 133.86 466.24 134.68 C 463.50 137.07 460.36 138.93 457.10 140.50 C 456.22 140.47 454.47 140.40 453.59 140.36 C 455.25 143.84 459.06 141.73 461.25 140.02 C 462.51 140.48 463.76 140.96 465.00 141.47 C 462.71 142.71 460.61 144.45 458.01 145.00 C 448.91 147.22 439.70 150.08 432.15 155.82 C 429.22 154.59 426.03 153.09 422.83 154.31 C 420.08 153.64 417.11 153.16 414.95 151.17 C 416.47 148.03 417.60 144.74 418.37 141.33 C 427.32 135.82 437.80 133.36 446.47 127.33 M 422.98 144.05 C 420.76 145.73 420.46 148.71 420.18 151.26 C 420.93 150.30 421.63 149.30 422.34 148.30 C 423.58 149.49 425.24 149.84 426.88 150.11 C 428.87 148.00 429.29 145.29 427.50 142.87 C 428.70 142.27 429.90 141.65 431.11 141.04 C 431.10 142.23 431.07 144.60 431.06 145.79 C 432.42 143.50 432.87 140.85 433.33 138.27 C 429.78 140.01 426.18 141.71 422.98 144.05 Z" />
<path fill="#ffffff" opacity="1.00" d=" M 539.40 125.87 C 550.38 124.78 561.36 123.73 572.32 122.46 C 572.61 123.61 572.90 124.76 573.17 125.91 C 566.59 129.30 559.05 129.73 551.84 130.60 C 547.21 131.23 542.53 131.53 537.86 131.35 C 538.35 129.52 538.89 127.70 539.40 125.87 Z" />
<path fill="#ffffff" opacity="1.00" d=" M 553.00 131.82 C 559.89 131.50 566.80 130.32 573.23 127.76 C 574.54 129.77 573.60 132.84 571.03 133.10 C 564.40 133.71 557.64 133.46 551.03 132.67 C 551.04 133.14 551.06 134.08 551.07 134.56 C 558.10 134.61 565.13 134.71 572.16 134.74 C 572.36 136.99 571.25 138.69 569.42 139.87 C 566.10 137.38 561.99 136.48 557.96 135.95 C 554.74 135.31 551.09 135.66 548.45 133.38 C 545.87 133.43 543.30 133.63 540.72 133.65 C 544.77 132.74 548.95 132.68 553.00 131.82 Z" />
<path fill="#ffffff" opacity="1.00" d=" M 537.11 135.23 C 540.74 135.58 544.40 135.62 548.06 135.75 C 552.34 136.82 556.76 137.13 561.12 137.80 C 564.03 138.88 568.62 139.20 569.02 143.06 C 568.07 144.19 566.72 145.83 565.05 145.21 C 556.82 143.62 548.65 141.69 540.39 140.26 C 539.41 138.50 538.28 136.84 537.11 135.23 Z" />
<path fill="#ffffff" opacity="1.00" d=" M 426.30 144.28 C 426.85 144.83 426.85 144.83 426.30 144.28 Z" />
<path fill="#ffffff" opacity="1.00" d=" M 423.66 145.56 C 425.59 144.62 426.91 147.32 425.76 148.79 C 424.54 148.33 422.12 146.92 423.66 145.56 Z" />
<path fill="#ffffff" opacity="1.00" d=" M 498.67 202.89 C 507.68 205.13 516.93 206.67 525.71 209.68 C 520.12 209.81 514.60 208.68 509.02 208.57 C 502.00 208.44 495.02 207.11 487.98 207.62 C 488.34 207.29 489.05 206.62 489.40 206.29 L 489.86 205.90 C 491.58 205.80 493.27 206.21 495.00 206.18 C 496.68 205.75 497.53 204.04 498.67 202.89 Z" />
<path fill="#ffffff" opacity="1.00" d=" M 449.99 211.62 C 456.02 211.97 462.05 212.30 468.08 212.78 C 469.00 213.64 469.94 214.49 470.89 215.34 C 471.45 214.94 472.59 214.15 473.15 213.76 C 473.81 214.41 474.47 215.07 475.14 215.72 C 472.05 216.12 468.94 216.30 465.83 216.32 C 465.31 216.07 464.26 215.55 463.73 215.30 C 459.23 215.91 454.66 215.62 450.23 214.66 C 450.17 213.90 450.05 212.38 449.99 211.62 Z" />
</g>
<g id="#818181ff">
<path fill="#818181" opacity="1.00" d=" M 0.99 1.47 C 5.31 1.21 9.63 1.19 13.95 1.23 C 141.62 1.24 269.29 1.24 396.96 1.23 C 460.31 1.19 523.66 1.35 587.00 1.14 L 587.00 1.78 C 528.67 1.43 470.34 1.75 412.00 1.62 C 283.69 1.67 155.38 1.59 27.06 1.65 C 18.72 1.55 10.38 1.79 2.04 1.50 L 0.99 1.47 Z" />
</g>
<g id="#010000ff">
<path fill="#010000" opacity="1.00" d=" M 0.99 1.47 L 2.04 1.50 L 2.03 2.69 C 1.97 52.31 1.99 101.92 2.03 151.54 C 2.02 151.70 2.02 152.01 2.01 152.17 C 1.98 201.78 2.00 251.39 2.00 301.00 C 166.00 300.99 329.99 300.99 493.98 300.99 C 513.16 300.94 532.33 301.10 551.51 300.90 C 563.15 301.12 574.80 300.94 586.46 301.00 C 586.45 297.25 586.47 293.49 586.76 289.75 L 587.00 291.06 L 587.00 302.00 L 1.00 302.00 C 1.00 201.82 1.01 101.64 0.99 1.47 Z" />
</g>
<g id="#393523ff">
<path fill="#393523" opacity="1.00" d=" M 2.04 1.50 C 10.38 1.79 18.72 1.55 27.06 1.65 C 155.38 1.59 283.69 1.67 412.00 1.62 C 470.34 1.75 528.67 1.43 587.00 1.78 L 587.00 291.06 L 586.76 289.75 C 586.09 285.53 586.44 281.24 586.38 276.99 C 586.38 189.42 586.39 101.85 586.38 14.28 C 586.38 10.42 586.36 6.55 586.32 2.69 C 573.38 2.69 560.43 2.34 547.51 2.90 C 519.02 2.41 490.52 2.81 462.02 2.69 C 308.69 2.69 155.36 2.68 2.03 2.69 L 2.04 1.50 Z" />
<path fill="#393523" opacity="1.00" d=" M 557.41 51.48 C 559.19 50.67 561.18 50.83 563.09 50.81 C 564.11 52.63 563.87 54.60 562.93 56.39 C 564.06 59.78 561.84 62.75 561.65 66.07 C 561.51 67.48 560.50 68.59 559.86 69.80 C 560.22 72.07 559.14 74.05 557.96 75.88 C 557.63 77.91 556.22 79.32 554.69 80.54 C 554.05 82.30 553.00 83.83 551.70 85.15 C 550.78 88.14 549.78 91.23 547.55 93.53 C 547.26 95.69 546.36 97.73 544.13 98.46 C 536.66 101.62 530.49 106.96 523.59 111.11 C 528.82 112.01 533.93 113.38 538.92 115.16 C 546.03 114.27 553.33 113.77 560.08 111.18 C 562.89 109.92 566.19 110.93 568.53 112.70 C 572.26 116.40 573.96 121.62 574.27 126.77 C 575.50 129.32 575.02 132.03 573.22 134.15 C 573.84 137.13 572.47 139.72 570.01 141.36 C 570.02 142.07 570.05 143.48 570.06 144.18 C 568.69 145.54 567.14 147.05 565.01 146.52 C 556.53 145.44 548.28 142.95 539.82 141.70 C 535.25 143.57 530.55 140.52 525.90 140.36 C 527.80 143.49 530.22 146.63 534.22 146.85 C 532.15 149.29 529.58 151.26 526.44 152.10 C 526.46 152.20 526.49 152.41 526.51 152.51 C 528.03 151.95 529.52 151.39 531.08 150.87 C 530.22 153.05 529.20 155.16 528.08 157.21 C 530.00 156.60 531.95 155.99 533.89 155.41 C 532.81 160.27 529.02 164.40 523.87 164.76 C 525.95 167.00 527.17 169.89 526.33 172.95 C 523.93 170.75 521.23 168.84 518.01 168.07 C 519.40 171.57 521.58 174.65 523.83 177.64 C 520.20 178.19 516.61 177.47 513.36 175.81 C 513.79 178.69 514.69 181.45 515.90 184.10 C 513.17 183.97 510.48 183.46 508.01 182.29 C 507.69 184.86 507.95 187.43 508.53 189.94 C 505.73 188.86 503.26 187.16 501.21 184.99 C 500.09 187.53 497.71 189.94 498.12 192.86 C 499.47 194.62 500.52 197.20 503.06 197.39 C 515.02 200.12 527.02 202.67 538.93 205.62 C 541.60 206.09 542.51 209.76 540.67 211.64 C 539.80 212.84 538.15 212.08 536.95 212.19 C 536.83 214.00 536.69 217.34 534.10 217.08 C 518.95 216.21 503.82 215.06 488.67 214.14 C 487.86 216.91 484.99 218.05 482.99 215.69 C 481.14 216.13 479.26 216.32 478.11 214.42 C 477.99 216.10 477.82 217.77 477.52 219.42 C 484.39 219.85 491.16 218.36 497.59 216.02 C 497.43 217.78 497.21 219.53 497.01 221.29 C 499.00 221.25 500.98 221.22 502.97 221.14 C 505.26 220.76 507.59 220.70 509.91 220.73 C 508.56 224.32 504.95 225.41 501.45 225.52 C 505.37 227.70 509.78 228.95 513.54 231.42 C 509.28 232.83 504.17 233.67 500.07 231.45 L 499.85 230.85 C 503.32 231.16 506.80 231.45 510.29 231.57 C 505.98 229.24 501.45 227.24 497.66 224.08 C 501.02 223.87 504.49 223.83 507.65 222.49 C 503.06 222.31 498.47 222.57 493.89 222.33 C 494.74 220.89 495.62 219.45 496.47 218.00 C 489.34 220.36 481.72 221.60 474.28 220.06 C 475.17 219.03 476.08 218.01 476.99 217.00 C 466.99 217.78 456.80 217.42 446.96 215.47 C 447.41 214.70 447.94 213.98 448.55 213.32 C 448.51 213.04 448.44 212.49 448.41 212.21 C 450.63 208.52 449.22 203.39 445.33 201.51 C 443.06 200.26 441.27 203.03 439.55 204.10 C 438.11 203.16 436.84 201.70 435.07 201.45 C 433.09 201.57 431.23 202.29 429.36 202.84 C 427.44 202.53 425.40 201.54 423.50 202.42 C 421.22 203.23 420.08 205.55 418.65 207.31 C 420.91 208.74 423.23 210.09 425.59 211.37 C 429.96 211.70 434.15 213.14 438.21 214.73 C 436.88 214.77 434.24 214.85 432.92 214.89 C 435.06 216.16 437.18 217.53 438.95 219.31 C 434.06 217.92 429.96 214.85 425.83 212.02 C 427.11 214.04 428.06 216.59 430.34 217.75 C 433.54 219.45 437.31 219.39 440.69 220.60 C 442.85 221.54 444.60 223.20 446.78 224.13 C 450.32 225.05 454.16 224.00 457.63 225.41 C 461.31 226.78 464.18 229.56 467.01 232.20 C 470.05 229.95 473.59 231.13 476.81 232.23 C 475.33 230.77 473.74 229.44 472.05 228.25 C 472.53 227.65 473.02 227.05 473.52 226.46 C 469.73 224.18 465.82 222.10 461.84 220.18 C 465.83 219.50 469.83 218.81 473.88 218.59 C 471.76 219.65 469.55 220.49 467.31 221.24 C 470.17 222.65 473.01 224.33 474.84 227.04 C 480.64 229.16 485.61 232.86 490.21 236.89 C 489.78 234.86 489.29 232.86 488.71 230.87 C 488.77 230.44 488.87 229.57 488.92 229.14 C 485.17 227.46 481.39 225.81 477.74 223.92 C 482.55 223.57 487.36 223.05 492.19 223.06 C 489.48 224.41 486.47 224.85 483.52 225.30 C 487.44 226.69 491.25 228.47 494.54 231.04 C 493.20 230.78 490.51 230.27 489.16 230.01 C 491.38 232.39 493.43 235.10 496.33 236.71 C 498.47 237.90 501.01 237.86 503.38 238.22 C 500.29 235.39 497.00 232.68 494.78 229.07 C 495.96 229.40 497.14 229.77 498.31 230.18 C 499.03 234.16 503.67 235.64 506.30 238.24 C 501.01 240.88 494.84 238.72 491.27 234.33 C 491.03 235.92 490.69 237.51 490.22 239.06 C 486.14 235.08 481.63 231.56 476.54 228.96 C 477.28 231.03 477.54 233.21 477.37 235.40 C 475.33 234.14 473.44 232.29 470.97 231.99 C 469.07 231.85 468.30 234.08 467.28 235.25 C 464.27 230.99 460.08 227.33 454.97 225.95 C 451.44 225.83 447.84 226.28 444.46 225.01 C 442.77 223.51 441.10 221.64 438.76 221.28 C 435.26 220.76 431.46 220.52 428.56 218.28 C 426.84 216.98 426.15 214.84 424.86 213.20 C 422.94 210.99 419.67 210.46 417.97 208.02 C 417.83 205.02 420.12 202.18 422.84 201.07 C 425.00 199.96 427.41 201.08 429.67 201.11 C 431.36 200.71 433.01 200.08 434.74 199.82 C 436.47 200.21 438.00 201.14 439.67 201.72 C 441.12 201.06 442.40 199.92 444.01 199.63 C 446.99 199.73 448.45 202.66 450.37 204.46 C 454.76 205.05 459.19 205.36 463.62 205.60 C 463.39 202.15 467.12 202.90 469.16 201.54 C 471.13 200.73 470.98 198.28 471.67 196.59 C 466.08 196.56 460.42 197.56 455.56 200.44 C 455.23 198.03 455.06 195.60 454.96 193.18 C 449.50 192.01 444.10 190.64 438.62 189.60 C 438.09 191.34 437.49 193.06 436.67 194.69 C 435.22 194.38 433.77 194.06 432.34 193.74 C 431.67 194.83 431.54 196.32 430.55 197.21 C 428.26 197.75 425.33 197.17 424.01 195.05 C 423.76 192.06 424.63 189.14 425.08 186.20 C 420.33 186.79 415.73 188.58 412.30 191.99 C 406.67 184.53 398.51 179.71 390.84 174.64 C 394.35 172.99 398.32 173.80 402.05 173.29 C 407.32 172.57 412.94 171.82 417.17 168.28 C 419.27 172.80 422.29 176.94 426.61 179.56 C 427.40 176.53 427.48 173.12 429.33 170.49 C 432.35 169.89 438.40 170.98 436.36 175.38 C 437.96 176.02 439.55 176.74 441.06 177.60 C 440.67 179.28 440.05 180.96 440.15 182.72 C 445.46 184.13 450.93 184.88 456.20 186.50 C 457.37 184.26 458.68 182.10 460.23 180.10 C 464.13 185.45 469.71 189.43 476.05 191.33 C 480.50 191.34 484.02 188.15 485.79 184.28 C 484.72 181.75 485.37 179.19 486.85 177.00 C 485.98 175.10 485.75 173.06 486.30 171.03 C 485.59 168.63 485.46 166.10 486.66 163.83 C 484.95 162.12 484.39 159.87 485.19 157.58 C 482.91 156.49 481.09 154.71 481.12 152.02 C 476.58 151.86 473.08 148.87 469.50 146.50 C 458.46 144.94 447.56 148.94 437.85 153.84 C 432.47 156.21 429.68 162.05 424.18 164.18 C 421.19 165.48 417.83 164.78 414.93 163.62 C 414.57 165.39 414.52 167.19 414.59 168.98 C 411.44 167.18 407.64 165.08 407.06 161.11 C 406.55 156.55 410.07 152.99 413.20 150.21 C 416.18 147.80 415.96 143.65 417.41 140.40 C 426.47 134.24 437.62 132.02 446.51 125.52 C 449.16 123.77 451.41 121.42 452.76 118.52 C 445.79 117.80 441.45 124.26 435.00 125.37 C 432.26 124.67 429.17 124.12 427.48 121.60 C 424.56 118.00 426.64 112.69 429.99 110.17 C 434.79 106.97 440.61 104.82 444.01 99.91 C 443.76 97.51 442.70 95.27 442.45 92.87 C 442.52 88.02 446.71 84.67 450.60 82.52 C 456.39 79.54 462.74 77.85 469.05 76.36 C 474.34 75.05 480.04 74.80 484.79 71.85 C 487.00 70.74 488.10 68.45 489.55 66.59 C 489.97 68.11 490.39 69.64 490.78 71.18 C 499.09 68.31 508.24 66.50 515.11 60.69 C 515.60 61.79 516.07 62.89 516.56 64.00 C 521.67 62.53 526.93 61.34 531.58 58.66 C 534.03 57.20 537.16 56.54 539.25 58.95 C 545.37 56.62 551.34 53.93 557.41 51.48 M 557.80 52.92 C 551.69 55.45 545.67 58.23 539.45 60.48 C 538.91 61.75 538.39 63.02 537.87 64.29 C 545.17 62.47 552.40 60.23 559.28 57.17 C 561.26 56.48 562.07 54.44 563.09 52.80 C 561.34 52.51 559.48 52.09 557.80 52.92 M 535.33 66.63 C 535.65 67.65 535.97 68.68 536.30 69.70 C 543.82 67.41 551.48 65.53 558.96 63.09 C 561.39 62.54 561.89 59.97 562.20 57.88 C 553.50 61.52 544.57 64.66 535.33 66.63 M 524.34 63.45 C 521.83 64.10 519.11 64.41 516.90 65.84 C 516.05 67.41 515.52 69.13 514.88 70.79 C 518.97 69.75 523.05 68.67 527.17 67.78 C 530.64 66.69 534.60 65.75 536.76 62.54 C 538.13 61.20 537.12 59.62 536.39 58.28 C 532.39 60.05 528.45 61.96 524.34 63.45 M 497.94 70.54 C 495.68 70.93 493.48 71.66 491.39 72.60 C 490.45 74.64 490.15 76.89 489.61 79.05 C 494.20 77.55 498.91 76.49 503.66 75.66 C 510.06 75.54 515.71 69.62 515.09 63.09 C 509.81 66.51 503.78 68.35 497.94 70.54 M 536.26 71.33 C 536.94 72.39 537.62 73.46 538.32 74.53 C 544.59 72.58 551.01 71.14 557.26 69.15 C 559.40 68.74 560.04 66.58 560.68 64.80 C 552.37 66.33 544.46 69.39 536.26 71.33 M 530.56 68.61 C 524.45 70.21 518.24 71.38 512.19 73.18 C 512.84 74.38 513.49 75.58 514.15 76.78 C 519.56 75.36 525.00 74.01 530.32 72.24 C 532.33 71.68 533.99 70.38 535.53 69.02 C 533.92 68.50 532.22 68.08 530.56 68.61 M 478.87 75.76 C 470.10 77.63 461.14 79.21 452.94 83.00 C 449.53 84.67 446.09 86.87 444.27 90.33 C 442.97 94.30 445.03 98.35 447.34 101.50 C 450.33 105.58 452.96 109.90 455.80 114.08 C 459.00 118.69 464.79 120.23 470.04 121.05 C 472.22 123.13 472.80 126.00 471.20 128.69 C 473.04 129.94 474.80 131.46 477.01 132.04 C 480.94 133.19 484.66 130.81 488.46 130.13 C 486.83 132.71 483.72 133.30 481.09 134.35 C 482.94 135.29 484.81 136.60 487.00 136.38 C 490.70 136.37 493.45 133.60 496.47 131.86 C 495.64 134.03 494.15 135.83 492.67 137.58 C 496.21 137.65 499.45 136.16 501.76 133.50 C 503.22 131.75 504.74 130.05 506.45 128.54 C 506.25 133.01 500.70 134.92 500.19 138.76 C 503.89 138.98 507.11 136.98 510.31 135.42 C 509.81 138.59 506.25 138.98 504.03 140.53 C 501.80 140.45 499.63 139.97 497.65 138.95 C 493.38 139.11 489.26 137.84 485.02 137.69 C 482.22 137.60 480.49 134.95 477.94 134.14 C 474.69 132.98 471.10 131.56 469.46 128.28 C 470.60 126.37 471.45 124.41 469.55 122.65 C 464.15 122.01 458.96 119.89 455.04 116.04 C 454.70 118.90 454.50 121.78 454.20 124.64 C 456.89 124.11 459.60 123.64 462.32 123.27 C 461.42 124.87 460.45 126.43 459.52 128.00 C 461.29 127.84 463.06 127.68 464.85 127.53 C 464.00 129.45 463.04 131.31 461.98 133.11 C 464.36 133.19 466.73 133.58 468.85 134.73 C 467.12 136.04 465.36 137.30 463.58 138.52 C 464.95 139.66 466.33 140.81 467.70 141.97 C 466.02 142.80 464.35 143.63 462.70 144.50 C 468.24 144.51 474.07 145.40 479.36 143.27 C 483.19 141.40 487.63 142.94 491.14 144.84 C 493.57 146.16 494.14 149.13 495.92 151.07 C 497.53 152.77 499.43 154.22 500.64 156.28 C 499.15 155.62 497.70 154.91 496.26 154.17 C 494.11 157.43 495.33 161.22 496.75 164.49 C 495.46 163.94 494.18 163.39 492.90 162.85 C 493.12 164.94 493.62 167.00 493.78 169.10 C 492.46 170.43 491.93 172.13 491.73 173.95 C 493.07 175.18 494.21 176.72 495.91 177.48 C 497.75 177.78 499.29 176.35 500.94 175.75 C 500.97 178.43 501.22 181.14 502.34 183.62 L 502.31 183.85 C 503.57 185.03 504.84 186.21 506.14 187.37 C 506.47 184.91 507.35 182.26 505.96 179.96 C 504.37 176.27 502.51 171.39 505.21 167.80 C 505.49 171.53 504.98 175.66 507.20 178.92 C 508.56 181.02 511.18 181.61 513.30 182.62 C 512.68 179.45 512.61 175.99 510.75 173.22 C 508.60 169.89 506.20 166.51 505.78 162.44 C 508.54 165.46 509.78 169.51 512.48 172.57 C 514.59 174.94 517.81 175.67 520.79 176.27 C 518.79 172.95 517.11 169.41 514.59 166.45 C 513.43 165.18 512.71 163.62 512.44 161.93 C 515.79 165.75 520.54 167.35 525.19 168.99 C 523.60 167.23 522.05 165.34 519.87 164.30 C 517.82 163.07 514.98 162.44 514.34 159.77 C 515.69 160.20 517.09 160.66 518.44 161.16 C 522.56 164.23 528.42 162.77 531.20 158.63 C 527.53 158.75 523.87 158.96 520.21 159.24 C 517.51 158.55 513.78 158.89 512.43 155.87 C 517.72 156.45 523.92 158.48 528.30 154.30 C 524.55 154.15 520.79 154.14 517.10 153.45 C 514.61 152.96 511.82 152.50 510.31 150.21 C 511.17 150.27 512.89 150.37 513.75 150.42 C 516.79 151.79 520.25 151.29 523.47 151.04 C 525.94 150.50 528.19 149.31 530.48 148.27 C 528.55 146.28 526.92 144.00 524.87 142.14 C 522.88 141.61 520.82 141.52 518.80 141.25 C 519.82 140.50 520.68 139.40 521.99 139.14 C 527.51 138.12 532.97 139.97 538.36 140.92 C 537.71 136.71 533.13 135.38 529.54 134.74 C 526.26 133.93 522.18 134.14 519.93 131.18 C 525.80 131.37 531.41 133.52 537.26 134.00 C 536.71 132.77 536.77 130.65 535.00 130.53 C 531.87 129.41 527.65 131.08 525.32 128.21 C 529.32 127.69 533.35 128.09 537.33 128.66 C 536.13 125.21 531.92 125.60 528.97 125.48 C 526.37 125.17 523.06 126.48 521.16 124.09 C 526.82 122.98 532.73 123.05 538.18 125.09 C 537.96 124.50 537.52 123.33 537.31 122.74 C 531.35 122.54 525.45 121.05 519.50 121.25 C 517.89 120.91 516.28 120.59 514.67 120.29 C 514.91 119.96 515.38 119.30 515.62 118.96 C 523.00 119.20 530.31 120.25 537.67 120.86 C 537.91 120.11 538.41 118.61 538.66 117.86 C 533.57 113.82 526.71 114.31 520.93 111.92 L 520.59 111.10 C 525.44 107.79 530.81 105.14 535.04 100.98 C 528.97 103.20 523.49 106.69 518.38 110.60 C 518.54 111.33 518.72 112.06 518.90 112.80 C 518.51 113.15 517.72 113.85 517.33 114.20 L 517.39 114.75 C 515.18 115.95 511.87 115.72 510.33 117.84 C 508.86 117.87 507.38 117.91 505.92 117.96 C 505.48 117.76 504.61 117.35 504.18 117.15 C 503.71 117.34 502.77 117.72 502.30 117.91 L 502.16 118.42 C 501.77 118.43 500.98 118.45 500.59 118.46 C 500.40 118.12 500.03 117.45 499.84 117.11 C 499.02 117.09 497.39 117.04 496.57 117.02 C 499.57 114.53 503.08 112.61 505.50 109.48 C 500.40 110.40 496.51 114.08 491.82 115.98 C 494.18 111.29 500.30 110.79 503.45 106.77 C 502.84 106.53 501.62 106.05 501.02 105.81 C 496.51 108.45 492.04 111.16 487.34 113.46 C 489.32 109.19 494.43 108.33 497.97 105.81 C 499.75 105.07 499.69 101.31 497.11 102.45 C 491.58 105.78 486.03 109.14 480.16 111.85 C 480.12 111.48 480.06 110.73 480.03 110.35 C 485.36 107.03 491.29 104.70 496.34 100.90 C 495.77 100.49 494.63 99.66 494.06 99.25 C 488.25 102.27 482.45 105.34 476.40 107.89 C 476.28 107.49 476.05 106.70 475.93 106.31 C 481.38 103.68 487.27 101.69 492.16 98.08 C 493.80 96.41 491.39 94.91 490.21 93.96 C 488.38 95.98 486.22 97.65 483.74 98.79 C 479.18 100.97 474.89 103.69 470.20 105.57 C 470.91 104.21 471.96 103.04 473.37 102.38 C 477.85 99.74 482.80 97.91 487.14 95.05 C 488.78 93.94 488.10 91.27 486.04 91.29 C 482.96 92.83 479.95 94.53 476.73 95.79 C 471.86 97.74 467.64 100.92 463.06 103.41 C 464.24 99.93 468.07 98.69 470.91 96.87 C 475.54 94.01 481.36 93.17 485.21 89.09 C 484.11 87.79 483.25 86.22 481.81 85.26 C 474.93 87.07 468.71 90.87 463.04 95.10 C 459.34 97.56 453.73 99.82 450.02 96.20 C 454.37 96.66 459.02 96.39 462.58 93.52 C 468.67 88.83 475.57 85.24 482.99 83.15 C 488.63 81.89 489.59 74.95 489.36 70.12 C 486.34 72.77 482.87 74.98 478.87 75.76 M 537.37 76.34 C 537.70 77.26 538.03 78.17 538.37 79.10 C 542.17 78.59 545.86 77.50 549.54 76.45 C 553.04 75.41 557.21 75.01 559.22 71.49 C 551.67 71.28 544.74 75.12 537.37 76.34 M 512.86 79.01 C 513.89 80.33 514.88 81.70 516.06 82.91 C 523.00 80.29 530.02 77.81 536.85 74.91 C 536.14 74.10 535.43 73.29 534.74 72.49 C 527.69 75.47 520.07 76.54 512.86 79.01 M 498.00 78.38 C 492.66 78.95 487.91 81.44 483.91 84.93 C 484.59 85.92 485.28 86.92 485.96 87.91 C 492.21 85.27 498.80 83.59 505.29 81.67 C 508.19 80.65 514.64 79.43 511.72 75.22 C 507.18 76.41 502.65 77.67 498.00 78.38 M 539.11 81.11 C 539.39 81.63 539.96 82.67 540.24 83.20 C 543.24 82.25 546.23 81.29 549.24 80.35 C 551.84 79.46 554.94 78.96 556.45 76.35 C 550.65 77.87 544.92 79.65 539.11 81.11 M 514.88 85.09 C 515.65 86.15 516.42 87.20 517.20 88.26 C 523.67 85.52 530.29 83.15 536.92 80.83 C 536.87 80.05 536.79 78.48 536.75 77.70 C 529.17 79.21 522.17 82.63 514.88 85.09 M 501.97 84.35 C 496.67 85.78 491.45 87.43 486.28 89.24 C 487.47 90.27 488.61 91.37 489.61 92.60 C 494.32 90.56 499.26 89.09 504.21 87.77 C 507.34 86.83 510.71 86.26 513.43 84.34 C 514.86 83.53 513.51 81.83 512.64 81.20 C 508.96 81.77 505.52 83.31 501.97 84.35 M 539.41 85.69 C 540.67 86.00 541.98 87.11 543.35 86.47 C 546.94 85.27 550.77 84.02 553.31 81.03 C 548.57 82.21 543.83 83.56 539.41 85.69 M 536.73 82.83 C 530.76 84.72 524.93 87.03 519.05 89.16 C 519.51 90.10 519.97 91.05 520.44 91.99 C 526.76 89.24 533.41 87.17 539.41 83.73 C 538.52 83.46 537.74 82.35 536.73 82.83 M 511.10 86.87 L 511.20 87.61 C 504.94 89.29 498.68 90.94 492.48 92.86 C 493.11 94.33 493.74 95.81 494.36 97.29 C 500.25 95.78 505.98 93.70 511.82 92.01 C 513.13 91.28 514.49 90.57 515.66 89.59 C 516.05 87.18 513.07 85.93 511.10 86.87 M 539.48 90.75 C 543.56 91.24 548.06 89.27 550.51 85.95 C 546.55 86.77 542.75 88.36 539.48 90.75 M 521.47 93.34 C 522.45 93.97 523.06 95.94 524.48 95.40 C 529.87 93.83 535.18 91.65 539.95 88.67 C 539.91 88.28 539.82 87.49 539.78 87.10 C 533.26 87.57 527.63 91.46 521.47 93.34 M 513.74 93.19 C 507.94 95.17 502.07 96.98 496.06 98.22 C 496.45 98.98 496.84 99.74 497.24 100.51 C 497.94 100.67 499.34 101.00 500.04 101.17 C 505.64 98.56 511.37 96.28 517.31 94.56 C 518.18 94.42 519.02 94.06 519.84 93.47 C 519.11 92.33 518.38 91.19 517.66 90.05 C 516.35 91.09 515.04 92.14 513.74 93.19 M 523.02 97.74 C 523.73 98.45 524.44 99.17 525.16 99.89 C 529.37 97.20 533.89 95.02 538.64 93.43 C 538.73 92.92 538.92 91.91 539.01 91.40 C 533.92 94.08 528.55 96.19 523.02 97.74 M 539.39 95.11 C 542.44 94.31 545.37 92.98 547.70 90.81 C 544.62 91.53 541.55 92.69 539.39 95.11 M 535.04 100.98 C 539.06 99.19 543.73 97.93 546.50 94.26 C 542.26 95.64 538.05 97.58 535.04 100.98 M 499.86 103.51 C 504.68 106.71 509.76 103.14 514.36 101.37 C 517.28 99.86 521.33 98.88 522.16 95.19 C 514.57 97.46 506.58 99.13 499.86 103.51 M 522.70 104.74 C 527.66 102.06 533.69 100.52 537.38 96.04 C 532.09 98.02 526.26 100.11 522.70 104.74 M 503.70 107.13 C 504.77 107.98 505.84 108.83 506.91 109.69 C 510.29 107.74 513.68 105.78 517.28 104.25 C 519.56 103.14 522.53 102.59 523.41 99.84 C 516.64 101.69 510.55 105.42 503.70 107.13 M 431.79 110.81 C 428.54 112.60 425.86 117.17 428.42 120.57 C 431.43 124.37 437.40 124.13 440.94 121.18 C 444.61 118.10 449.29 117.00 453.97 116.80 C 452.99 110.61 448.44 106.01 445.19 100.94 C 441.71 105.45 436.61 108.05 431.79 110.81 M 508.34 111.04 C 513.43 110.28 519.89 109.85 522.47 104.58 C 517.41 105.86 512.61 108.05 508.34 111.04 M 502.19 115.79 C 504.86 116.13 506.95 113.72 508.44 111.80 C 506.21 112.30 502.31 113.09 502.19 115.79 M 508.47 114.79 C 509.99 115.16 512.57 113.79 512.58 112.14 C 511.00 111.51 508.45 113.10 508.47 114.79 M 514.21 112.39 C 512.94 113.90 515.70 114.83 516.46 113.50 C 517.72 112.00 514.95 111.08 514.21 112.39 M 560.01 112.77 C 553.47 115.22 546.46 115.58 539.61 116.50 C 539.66 117.45 539.76 119.36 539.81 120.31 C 549.66 119.09 559.55 117.94 569.25 115.74 C 567.60 112.46 563.24 111.47 560.01 112.77 M 566.06 117.82 C 557.07 119.84 547.88 120.92 538.71 121.75 C 539.00 122.40 539.58 123.72 539.88 124.38 C 550.65 123.05 561.56 122.68 572.23 120.65 C 571.77 119.76 570.86 117.99 570.41 117.11 C 568.95 117.32 567.50 117.56 566.06 117.82 M 446.47 127.33 C 437.80 133.36 427.32 135.82 418.37 141.33 C 417.60 144.74 416.47 148.03 414.95 151.17 C 417.11 153.16 420.08 153.64 422.83 154.31 C 426.03 153.09 429.22 154.59 432.15 155.82 C 439.70 150.08 448.91 147.22 458.01 145.00 C 460.61 144.45 462.71 142.71 465.00 141.47 C 463.76 140.96 462.51 140.48 461.25 140.02 C 459.06 141.73 455.25 143.84 453.59 140.36 C 454.47 140.40 456.22 140.47 457.10 140.50 C 460.36 138.93 463.50 137.07 466.24 134.68 C 461.67 133.86 457.61 136.36 453.20 136.70 C 453.31 136.45 453.53 135.95 453.63 135.70 C 457.11 134.09 461.00 132.88 462.98 129.26 C 458.94 129.12 455.25 130.73 451.51 131.98 C 453.43 128.93 457.39 128.10 459.59 125.24 C 456.54 125.71 453.54 126.47 450.51 127.07 C 451.70 125.05 453.01 123.11 453.95 120.95 C 451.49 123.11 449.20 125.50 446.47 127.33 M 539.40 125.87 C 538.89 127.70 538.35 129.52 537.86 131.35 C 542.53 131.53 547.21 131.23 551.84 130.60 C 559.05 129.73 566.59 129.30 573.17 125.91 C 572.90 124.76 572.61 123.61 572.32 122.46 C 561.36 123.73 550.38 124.78 539.40 125.87 M 553.00 131.82 C 548.95 132.68 544.77 132.74 540.72 133.65 C 543.30 133.63 545.87 133.43 548.45 133.38 C 551.09 135.66 554.74 135.31 557.96 135.95 C 561.99 136.48 566.10 137.38 569.42 139.87 C 571.25 138.69 572.36 136.99 572.16 134.74 C 565.13 134.71 558.10 134.61 551.07 134.56 C 551.06 134.08 551.04 133.14 551.03 132.67 C 557.64 133.46 564.40 133.71 571.03 133.10 C 573.60 132.84 574.54 129.77 573.23 127.76 C 566.80 130.32 559.89 131.50 553.00 131.82 M 537.11 135.23 C 538.28 136.84 539.41 138.50 540.39 140.26 C 548.65 141.69 556.82 143.62 565.05 145.21 C 566.72 145.83 568.07 144.19 569.02 143.06 C 568.62 139.20 564.03 138.88 561.12 137.80 C 556.76 137.13 552.34 136.82 548.06 135.75 C 544.40 135.62 540.74 135.58 537.11 135.23 M 479.09 144.88 L 479.73 145.54 C 477.24 145.70 474.77 146.11 472.33 146.57 C 475.58 149.00 479.49 151.12 483.70 150.05 C 483.84 150.23 484.13 150.59 484.27 150.76 C 483.51 152.11 482.96 153.54 482.62 155.05 C 484.42 155.24 486.23 155.38 488.05 155.46 C 488.62 154.99 489.76 154.04 490.33 153.57 C 490.62 154.14 491.19 155.27 491.48 155.83 C 490.12 156.31 488.78 156.82 487.42 157.28 L 487.47 157.35 C 487.09 158.50 484.98 160.29 486.58 161.36 C 487.75 162.43 489.08 163.31 490.37 164.23 C 489.34 165.09 486.60 165.05 486.98 166.97 C 486.42 169.42 488.76 170.83 490.14 172.42 C 490.73 170.93 491.34 169.44 491.96 167.97 L 491.76 167.10 C 491.72 164.84 492.15 162.60 493.43 160.69 C 493.77 158.13 494.13 155.56 494.59 153.01 C 493.64 151.14 492.85 149.15 491.54 147.51 C 490.10 146.20 488.15 145.68 486.44 144.85 C 484.01 144.21 481.48 143.96 479.09 144.88 M 413.25 152.11 C 411.08 153.98 409.10 156.28 408.31 159.10 C 407.64 162.27 410.50 164.46 412.54 166.36 C 414.34 161.66 418.42 158.58 422.42 155.83 C 419.09 155.32 416.14 153.73 413.25 152.11 M 416.37 163.13 C 418.83 163.24 421.48 163.83 423.83 162.75 C 426.74 161.55 428.95 159.20 431.11 156.99 C 429.37 156.39 427.66 155.73 425.86 155.38 C 422.39 157.52 418.93 159.91 416.37 163.13 M 394.67 174.97 C 400.69 179.78 407.63 183.59 412.41 189.80 C 416.09 186.53 420.88 185.53 425.48 184.36 C 425.81 182.94 426.67 181.00 424.91 180.19 C 421.50 177.66 418.76 174.39 416.77 170.64 C 410.11 174.48 402.19 175.05 394.67 174.97 M 429.86 171.70 C 427.99 179.32 425.56 186.98 425.23 194.85 C 426.71 195.47 428.43 196.17 430.04 195.58 C 432.28 188.14 433.90 180.50 435.44 172.87 C 433.59 172.43 431.72 172.05 429.86 171.70 M 486.55 173.02 C 487.47 174.61 488.59 176.07 489.82 177.45 C 488.08 178.61 486.54 180.01 486.17 182.20 C 488.17 180.44 489.97 178.47 491.82 176.55 C 491.33 175.18 490.84 173.80 490.39 172.42 C 489.43 172.57 487.51 172.87 486.55 173.02 M 432.43 192.53 C 433.75 192.58 435.07 192.67 436.39 192.59 C 437.73 187.94 438.86 183.16 439.24 178.32 C 438.54 177.92 437.15 177.13 436.45 176.73 C 434.63 181.86 433.60 187.23 432.43 192.53 M 489.02 181.67 C 488.57 182.31 487.67 183.58 487.22 184.22 C 486.21 186.00 485.17 187.77 484.12 189.53 C 488.13 191.07 492.18 192.69 496.52 192.93 C 496.84 191.54 497.16 190.16 497.49 188.77 C 498.19 187.73 498.88 186.68 499.62 185.66 C 500.54 183.67 500.17 181.53 499.77 179.47 C 497.35 179.33 494.97 178.95 492.67 178.25 C 491.44 179.38 490.22 180.52 489.02 181.67 M 456.26 197.96 C 462.89 195.03 470.11 195.18 477.19 195.60 C 477.76 195.16 478.90 194.27 479.47 193.83 C 472.11 192.02 464.76 188.65 460.23 182.30 C 456.72 186.72 456.07 192.50 456.26 197.96 M 439.70 184.24 C 439.44 185.51 439.18 186.80 438.94 188.08 C 444.30 189.17 449.62 190.47 454.98 191.60 C 455.33 190.35 455.69 189.10 456.06 187.85 C 450.61 186.61 445.16 185.39 439.70 184.24 M 482.18 191.04 C 480.31 192.05 480.25 194.46 479.10 196.05 C 477.95 197.10 476.02 197.41 475.43 198.97 C 475.70 200.72 477.24 201.79 478.98 201.60 C 482.47 200.19 484.66 196.54 485.19 192.93 C 485.36 191.45 483.41 189.78 482.18 191.04 M 487.28 191.49 C 486.09 195.96 483.88 200.02 480.63 203.32 C 485.66 204.79 489.27 199.30 489.71 194.92 C 490.36 193.23 488.07 192.58 487.28 191.49 M 491.23 193.75 C 490.85 197.79 489.12 201.59 485.99 204.22 C 487.02 204.98 488.06 205.76 489.09 206.56 L 489.40 206.29 C 489.05 206.62 488.34 207.29 487.98 207.62 C 495.02 207.11 502.00 208.44 509.02 208.57 C 514.60 208.68 520.12 209.81 525.71 209.68 C 516.93 206.67 507.68 205.13 498.67 202.89 C 497.53 204.04 496.68 205.75 495.00 206.18 C 493.27 206.21 491.58 205.80 489.86 205.90 C 492.60 202.53 495.69 198.56 494.13 193.93 C 493.40 193.89 491.96 193.80 491.23 193.75 M 495.97 193.97 C 496.28 198.09 494.63 201.85 492.85 205.45 C 496.69 204.60 498.86 200.64 499.02 196.98 C 499.39 195.16 496.98 194.85 495.97 193.97 M 473.24 197.21 C 471.71 197.33 471.67 199.99 473.22 200.11 C 474.73 200.00 474.80 197.29 473.24 197.21 M 499.19 201.37 C 512.14 204.42 525.02 207.83 538.03 210.62 C 540.61 211.77 541.14 207.47 538.87 207.14 C 526.15 203.86 513.23 201.37 500.48 198.22 C 500.15 199.00 499.51 200.58 499.19 201.37 M 464.90 204.91 C 466.75 205.43 468.66 205.72 470.59 205.83 C 472.52 202.04 476.39 204.14 479.48 204.73 C 479.47 205.36 479.46 206.62 479.45 207.25 C 479.75 206.19 481.30 204.94 480.03 203.98 C 478.09 203.21 476.04 202.73 473.98 202.43 C 470.73 201.90 467.86 203.97 464.90 204.91 M 483.34 205.28 C 483.67 208.61 486.23 203.59 483.34 205.28 M 470.85 214.27 C 473.42 211.72 475.28 208.22 474.62 204.49 C 471.75 206.73 467.53 210.57 470.85 214.27 M 450.71 206.04 C 450.82 207.12 451.05 209.30 451.16 210.39 C 456.13 210.45 461.10 210.66 466.04 211.28 C 468.50 212.12 468.60 208.85 469.62 207.51 C 463.33 206.84 457.01 206.61 450.71 206.04 M 474.12 213.50 C 475.26 213.65 476.41 213.70 477.57 213.66 C 478.49 211.16 478.33 208.44 477.93 205.85 C 476.04 208.05 474.91 210.74 474.12 213.50 M 481.35 207.15 C 479.28 209.56 478.69 213.01 480.87 215.59 C 482.00 213.90 483.50 212.14 483.01 209.94 C 482.80 208.74 483.35 206.34 481.35 207.15 M 485.84 206.83 C 485.02 209.16 483.94 211.52 484.02 214.03 C 484.03 215.48 486.12 216.44 486.81 214.85 C 488.00 212.18 487.18 209.26 485.84 206.83 M 488.47 208.80 C 488.53 209.73 488.67 211.61 488.74 212.54 C 497.83 213.50 506.97 213.73 516.07 214.53 C 522.40 214.43 528.67 215.97 535.01 215.49 C 535.21 214.88 535.62 213.65 535.82 213.04 L 535.00 211.98 C 531.05 211.08 526.96 211.19 522.94 210.97 C 511.45 210.25 499.98 209.17 488.47 208.80 M 449.99 211.62 C 450.05 212.38 450.17 213.90 450.23 214.66 C 454.66 215.62 459.23 215.91 463.73 215.30 C 464.26 215.55 465.31 216.07 465.83 216.32 C 468.94 216.30 472.05 216.12 475.14 215.72 C 474.47 215.07 473.81 214.41 473.15 213.76 C 472.59 214.15 471.45 214.94 470.89 215.34 C 469.94 214.49 469.00 213.64 468.08 212.78 C 462.05 212.30 456.02 211.97 449.99 211.62 Z" />
<path fill="#393523" opacity="1.00" d=" M 422.98 144.05 C 426.18 141.71 429.78 140.01 433.33 138.27 C 432.87 140.85 432.42 143.50 431.06 145.79 C 431.07 144.60 431.10 142.23 431.11 141.04 C 429.90 141.65 428.70 142.27 427.50 142.87 C 429.29 145.29 428.87 148.00 426.88 150.11 C 425.24 149.84 423.58 149.49 422.34 148.30 C 421.63 149.30 420.93 150.30 420.18 151.26 C 420.46 148.71 420.76 145.73 422.98 144.05 M 426.30 144.28 C 426.85 144.83 426.85 144.83 426.30 144.28 M 423.66 145.56 C 422.12 146.92 424.54 148.33 425.76 148.79 C 426.91 147.32 425.59 144.62 423.66 145.56 Z" />
<path fill="#393523" opacity="1.00" d=" M 426.58 204.04 C 430.27 204.96 434.00 205.75 437.84 205.61 L 437.74 206.88 C 435.60 206.98 433.46 207.09 431.34 207.39 C 434.39 208.72 437.83 209.06 440.69 210.82 C 435.08 211.68 429.73 208.51 426.58 204.04 Z" />
<path fill="#393523" opacity="1.00" d=" M 442.68 217.32 C 447.29 217.83 451.88 218.47 456.52 218.67 C 454.19 220.54 451.13 219.54 448.42 219.61 C 451.00 221.56 454.36 222.13 456.80 224.27 C 451.42 223.97 446.51 220.95 442.68 217.32 Z" />
</g>
<g id="#3b59a2ff">
<path fill="#3b59a2" opacity="1.00" d=" M 2.03 2.69 C 155.36 2.68 308.69 2.69 462.02 2.69 C 490.52 2.81 519.02 2.41 547.51 2.90 C 497.08 16.97 446.46 30.40 395.96 44.24 C 295.59 71.50 195.24 98.80 94.88 126.09 C 63.95 134.64 32.88 142.74 2.03 151.54 C 1.99 101.92 1.97 52.31 2.03 2.69 Z" />
<path fill="#3b59a2" opacity="1.00" d=" M 2.01 152.17 C 4.21 152.65 6.41 153.14 8.59 153.70 C 149.65 191.97 290.72 230.18 431.80 268.37 C 471.69 279.25 511.67 289.82 551.51 300.90 C 532.33 301.10 513.16 300.94 493.98 300.99 C 329.99 300.99 166.00 300.99 2.00 301.00 C 2.00 251.39 1.98 201.78 2.01 152.17 Z" />
</g>
<g id="#be0027ff">
<path fill="#be0027" opacity="1.00" d=" M 547.51 2.90 C 560.43 2.34 573.38 2.69 586.32 2.69 C 586.36 6.55 586.38 10.42 586.38 14.28 C 415.54 59.54 244.77 105.06 73.97 150.47 C 71.21 151.19 68.48 152.02 65.78 152.95 C 95.36 160.25 124.73 168.42 154.23 176.05 C 281.69 209.67 409.15 243.24 536.62 276.78 C 553.35 281.05 569.95 285.84 586.76 289.75 C 586.47 293.49 586.45 297.25 586.46 301.00 C 574.80 300.94 563.15 301.12 551.51 300.90 C 511.67 289.82 471.69 279.25 431.80 268.37 C 290.72 230.18 149.65 191.97 8.59 153.70 C 6.41 153.14 4.21 152.65 2.01 152.17 C 2.02 152.01 2.02 151.70 2.03 151.54 C 32.88 142.74 63.95 134.64 94.88 126.09 C 195.24 98.80 295.59 71.50 395.96 44.24 C 446.46 30.40 497.08 16.97 547.51 2.90 Z" />
</g>
<g id="#8c7144ff">
<path fill="#8c7144" opacity="1.00" d=" M 557.80 52.92 C 559.48 52.09 561.34 52.51 563.09 52.80 C 562.07 54.44 561.26 56.48 559.28 57.17 C 552.40 60.23 545.17 62.47 537.87 64.29 C 538.39 63.02 538.91 61.75 539.45 60.48 C 545.67 58.23 551.69 55.45 557.80 52.92 Z" />
<path fill="#8c7144" opacity="1.00" d=" M 535.33 66.63 C 544.57 64.66 553.50 61.52 562.20 57.88 C 561.89 59.97 561.39 62.54 558.96 63.09 C 551.48 65.53 543.82 67.41 536.30 69.70 C 535.97 68.68 535.65 67.65 535.33 66.63 Z" />
<path fill="#8c7144" opacity="1.00" d=" M 524.34 63.45 C 528.45 61.96 532.39 60.05 536.39 58.28 C 537.12 59.62 538.13 61.20 536.76 62.54 C 534.60 65.75 530.64 66.69 527.17 67.78 C 526.22 66.34 525.28 64.89 524.34 63.45 Z" />
<path fill="#8c7144" opacity="1.00" d=" M 536.26 71.33 C 544.46 69.39 552.37 66.33 560.68 64.80 C 560.04 66.58 559.40 68.74 557.26 69.15 C 551.01 71.14 544.59 72.58 538.32 74.53 C 537.62 73.46 536.94 72.39 536.26 71.33 Z" />
<path fill="#8c7144" opacity="1.00" d=" M 537.37 76.34 C 544.74 75.12 551.67 71.28 559.22 71.49 C 557.21 75.01 553.04 75.41 549.54 76.45 C 545.86 77.50 542.17 78.59 538.37 79.10 C 538.03 78.17 537.70 77.26 537.37 76.34 Z" />
<path fill="#8c7144" opacity="1.00" d=" M 521.47 93.34 C 527.63 91.46 533.26 87.57 539.78 87.10 C 539.82 87.49 539.91 88.28 539.95 88.67 C 535.18 91.65 529.87 93.83 524.48 95.40 C 523.06 95.94 522.45 93.97 521.47 93.34 Z" />
</g>
<g id="#b2935cff">
<path fill="#b2935c" opacity="1.00" d=" M 497.94 70.54 C 503.78 68.35 509.81 66.51 515.09 63.09 C 515.71 69.62 510.06 75.54 503.66 75.66 C 502.28 75.32 500.92 74.92 499.56 74.53 C 499.47 73.41 499.39 72.28 499.27 71.16 C 498.94 71.01 498.27 70.69 497.94 70.54 Z" />
<path fill="#b2935c" opacity="1.00" d=" M 498.00 78.38 C 502.65 77.67 507.18 76.41 511.72 75.22 C 514.64 79.43 508.19 80.65 505.29 81.67 C 502.90 80.47 500.50 79.30 498.00 78.38 Z" />
<path fill="#b2935c" opacity="1.00" d=" M 501.97 84.35 C 505.52 83.31 508.96 81.77 512.64 81.20 C 513.51 81.83 514.86 83.53 513.43 84.34 C 510.71 86.26 507.34 86.83 504.21 87.77 C 503.80 87.50 502.99 86.97 502.58 86.70 C 502.36 85.92 502.15 85.14 501.97 84.35 Z" />
</g>
<g id="#9a7d4bff">
<path fill="#9a7d4b" opacity="1.00" d=" M 516.90 65.84 C 519.11 64.41 521.83 64.10 524.34 63.45 C 525.28 64.89 526.22 66.34 527.17 67.78 C 523.05 68.67 518.97 69.75 514.88 70.79 C 515.52 69.13 516.05 67.41 516.90 65.84 Z" />
<path fill="#9a7d4b" opacity="1.00" d=" M 519.50 121.25 C 525.45 121.05 531.35 122.54 537.31 122.74 C 537.52 123.33 537.96 124.50 538.18 125.09 C 532.73 123.05 526.82 122.98 521.16 124.09 C 523.06 126.48 526.37 125.17 528.97 125.48 C 531.92 125.60 536.13 125.21 537.33 128.66 C 533.35 128.09 529.32 127.69 525.32 128.21 C 527.65 131.08 531.87 129.41 535.00 130.53 C 536.77 130.65 536.71 132.77 537.26 134.00 C 531.41 133.52 525.80 131.37 519.93 131.18 C 522.18 134.14 526.26 133.93 529.54 134.74 C 533.13 135.38 537.71 136.71 538.36 140.92 C 532.97 139.97 527.51 138.12 521.99 139.14 C 520.68 139.40 519.82 140.50 518.80 141.25 C 520.82 141.52 522.88 141.61 524.87 142.14 C 526.92 144.00 528.55 146.28 530.48 148.27 C 528.19 149.31 525.94 150.50 523.47 151.04 C 521.28 150.07 517.13 150.28 517.29 147.03 C 516.67 138.74 517.79 130.38 516.64 122.09 C 517.58 121.80 518.54 121.52 519.50 121.25 Z" />
<path fill="#9a7d4b" opacity="1.00" d=" M 520.21 159.24 C 523.87 158.96 527.53 158.75 531.20 158.63 C 528.42 162.77 522.56 164.23 518.44 161.16 C 518.88 160.68 519.77 159.72 520.21 159.24 Z" />
</g>
<g id="#967a4aff">
<path fill="#967a4a" opacity="1.00" d=" M 530.56 68.61 C 532.22 68.08 533.92 68.50 535.53 69.02 C 533.99 70.38 532.33 71.68 530.32 72.24 C 525.00 74.01 519.56 75.36 514.15 76.78 C 513.49 75.58 512.84 74.38 512.19 73.18 C 518.24 71.38 524.45 70.21 530.56 68.61 Z" />
<path fill="#967a4a" opacity="1.00" d=" M 523.02 97.74 C 528.55 96.19 533.92 94.08 539.01 91.40 C 538.92 91.91 538.73 92.92 538.64 93.43 C 533.89 95.02 529.37 97.20 525.16 99.89 C 524.44 99.17 523.73 98.45 523.02 97.74 Z" />
<path fill="#967a4a" opacity="1.00" d=" M 522.70 104.74 C 526.26 100.11 532.09 98.02 537.38 96.04 C 533.69 100.52 527.66 102.06 522.70 104.74 Z" />
</g>
<g id="#ccaa6dff">
<path fill="#ccaa6d" opacity="1.00" d=" M 478.87 75.76 C 482.87 74.98 486.34 72.77 489.36 70.12 C 489.59 74.95 488.63 81.89 482.99 83.15 C 475.57 85.24 468.67 88.83 462.58 93.52 C 459.02 96.39 454.37 96.66 450.02 96.20 C 453.73 99.82 459.34 97.56 463.04 95.10 C 468.71 90.87 474.93 87.07 481.81 85.26 C 483.25 86.22 484.11 87.79 485.21 89.09 C 481.36 93.17 475.54 94.01 470.91 96.87 C 468.07 98.69 464.24 99.93 463.06 103.41 C 467.64 100.92 471.86 97.74 476.73 95.79 C 479.95 94.53 482.96 92.83 486.04 91.29 C 488.10 91.27 488.78 93.94 487.14 95.05 C 482.80 97.91 477.85 99.74 473.37 102.38 C 471.96 103.04 470.91 104.21 470.20 105.57 C 474.89 103.69 479.18 100.97 483.74 98.79 C 486.22 97.65 488.38 95.98 490.21 93.96 C 491.39 94.91 493.80 96.41 492.16 98.08 C 487.27 101.69 481.38 103.68 475.93 106.31 C 476.05 106.70 476.28 107.49 476.40 107.89 C 482.45 105.34 488.25 102.27 494.06 99.25 C 494.63 99.66 495.77 100.49 496.34 100.90 C 491.29 104.70 485.36 107.03 480.03 110.35 C 480.06 110.73 480.12 111.48 480.16 111.85 C 486.03 109.14 491.58 105.78 497.11 102.45 C 499.69 101.31 499.75 105.07 497.97 105.81 C 494.43 108.33 489.32 109.19 487.34 113.46 C 492.04 111.16 496.51 108.45 501.02 105.81 C 501.62 106.05 502.84 106.53 503.45 106.77 C 500.30 110.79 494.18 111.29 491.82 115.98 C 496.51 114.08 500.40 110.40 505.50 109.48 C 503.08 112.61 499.57 114.53 496.57 117.02 C 497.39 117.04 499.02 117.09 499.84 117.11 C 500.03 117.45 500.40 118.12 500.59 118.46 C 500.98 118.45 501.77 118.43 502.16 118.42 C 500.47 123.31 500.53 128.52 501.76 133.50 C 499.45 136.16 496.21 137.65 492.67 137.58 C 494.15 135.83 495.64 134.03 496.47 131.86 C 493.45 133.60 490.70 136.37 487.00 136.38 C 484.81 136.60 482.94 135.29 481.09 134.35 C 483.72 133.30 486.83 132.71 488.46 130.13 C 484.66 130.81 480.94 133.19 477.01 132.04 C 474.80 131.46 473.04 129.94 471.20 128.69 C 472.80 126.00 472.22 123.13 470.04 121.05 C 464.79 120.23 459.00 118.69 455.80 114.08 C 452.96 109.90 450.33 105.58 447.34 101.50 C 445.03 98.35 442.97 94.30 444.27 90.33 C 446.09 86.87 449.53 84.67 452.94 83.00 C 461.14 79.21 470.10 77.63 478.87 75.76 Z" />
<path fill="#ccaa6d" opacity="1.00" d=" M 483.91 84.93 C 487.91 81.44 492.66 78.95 498.00 78.38 C 500.50 79.30 502.90 80.47 505.29 81.67 C 498.80 83.59 492.21 85.27 485.96 87.91 C 485.28 86.92 484.59 85.92 483.91 84.93 Z" />
<path fill="#ccaa6d" opacity="1.00" d=" M 486.28 89.24 C 491.45 87.43 496.67 85.78 501.97 84.35 C 502.15 85.14 502.36 85.92 502.58 86.70 C 502.99 86.97 503.80 87.50 504.21 87.77 C 499.26 89.09 494.32 90.56 489.61 92.60 C 488.61 91.37 487.47 90.27 486.28 89.24 Z" />
<path fill="#ccaa6d" opacity="1.00" d=" M 431.79 110.81 C 436.61 108.05 441.71 105.45 445.19 100.94 C 448.44 106.01 452.99 110.61 453.97 116.80 C 449.29 117.00 444.61 118.10 440.94 121.18 C 437.40 124.13 431.43 124.37 428.42 120.57 C 425.86 117.17 428.54 112.60 431.79 110.81 Z" />
<path fill="#ccaa6d" opacity="1.00" d=" M 454.20 124.64 C 454.50 121.78 454.70 118.90 455.04 116.04 C 458.96 119.89 464.15 122.01 469.55 122.65 C 471.45 124.41 470.60 126.37 469.46 128.28 C 471.10 131.56 474.69 132.98 477.94 134.14 C 480.49 134.95 482.22 137.60 485.02 137.69 C 489.26 137.84 493.38 139.11 497.65 138.95 C 499.63 139.97 501.80 140.45 504.03 140.53 C 502.83 142.09 501.84 143.90 501.86 145.93 C 500.97 158.51 504.84 171.08 502.34 183.62 C 501.22 181.14 500.97 178.43 500.94 175.75 C 499.29 176.35 497.75 177.78 495.91 177.48 C 494.21 176.72 493.07 175.18 491.73 173.95 C 491.93 172.13 492.46 170.43 493.78 169.10 C 493.62 167.00 493.12 164.94 492.90 162.85 C 494.18 163.39 495.46 163.94 496.75 164.49 C 495.33 161.22 494.11 157.43 496.26 154.17 C 497.70 154.91 499.15 155.62 500.64 156.28 C 499.43 154.22 497.53 152.77 495.92 151.07 C 494.14 149.13 493.57 146.16 491.14 144.84 C 487.63 142.94 483.19 141.40 479.36 143.27 C 474.07 145.40 468.24 144.51 462.70 144.50 C 464.35 143.63 466.02 142.80 467.70 141.97 C 466.33 140.81 464.95 139.66 463.58 138.52 C 465.36 137.30 467.12 136.04 468.85 134.73 C 466.73 133.58 464.36 133.19 461.98 133.11 C 463.04 131.31 464.00 129.45 464.85 127.53 C 463.06 127.68 461.29 127.84 459.52 128.00 C 460.45 126.43 461.42 124.87 462.32 123.27 C 459.60 123.64 456.89 124.11 454.20 124.64 Z" />
<path fill="#ccaa6d" opacity="1.00" d=" M 472.33 146.57 C 474.77 146.11 477.24 145.70 479.73 145.54 C 481.14 146.96 482.43 148.50 483.70 150.05 C 479.49 151.12 475.58 149.00 472.33 146.57 Z" />
<path fill="#ccaa6d" opacity="1.00" d=" M 487.47 157.35 C 489.82 160.13 491.09 163.56 491.76 167.10 L 491.96 167.97 C 491.34 169.44 490.73 170.93 490.14 172.42 C 488.76 170.83 486.42 169.42 486.98 166.97 C 486.60 165.05 489.34 165.09 490.37 164.23 C 489.08 163.31 487.75 162.43 486.58 161.36 C 484.98 160.29 487.09 158.50 487.47 157.35 Z" />
<path fill="#ccaa6d" opacity="1.00" d=" M 486.55 173.02 C 487.51 172.87 489.43 172.57 490.39 172.42 C 490.84 173.80 491.33 175.18 491.82 176.55 C 489.97 178.47 488.17 180.44 486.17 182.20 C 486.54 180.01 488.08 178.61 489.82 177.45 C 488.59 176.07 487.47 174.61 486.55 173.02 Z" />
</g>
<g id="#c9a76bff">
<path fill="#c9a76b" opacity="1.00" d=" M 491.39 72.60 C 493.48 71.66 495.68 70.93 497.94 70.54 C 498.27 70.69 498.94 71.01 499.27 71.16 C 499.39 72.28 499.47 73.41 499.56 74.53 C 500.92 74.92 502.28 75.32 503.66 75.66 C 498.91 76.49 494.20 77.55 489.61 79.05 C 490.15 76.89 490.45 74.64 491.39 72.60 Z" />
</g>
<g id="#947848ff">
<path fill="#947848" opacity="1.00" d=" M 512.86 79.01 C 520.07 76.54 527.69 75.47 534.74 72.49 C 535.43 73.29 536.14 74.10 536.85 74.91 C 530.02 77.81 523.00 80.29 516.06 82.91 C 514.88 81.70 513.89 80.33 512.86 79.01 Z" />
<path fill="#947848" opacity="1.00" d=" M 539.11 81.11 C 544.92 79.65 550.65 77.87 556.45 76.35 C 554.94 78.96 551.84 79.46 549.24 80.35 C 546.23 81.29 543.24 82.25 540.24 83.20 C 539.96 82.67 539.39 81.63 539.11 81.11 Z" />
</g>
<g id="#8f7446ff">
<path fill="#8f7446" opacity="1.00" d=" M 514.88 85.09 C 522.17 82.63 529.17 79.21 536.75 77.70 C 536.79 78.48 536.87 80.05 536.92 80.83 C 530.29 83.15 523.67 85.52 517.20 88.26 C 516.42 87.20 515.65 86.15 514.88 85.09 Z" />
<path fill="#8f7446" opacity="1.00" d=" M 536.73 82.83 C 537.74 82.35 538.52 83.46 539.41 83.73 C 533.41 87.17 526.76 89.24 520.44 91.99 C 519.97 91.05 519.51 90.10 519.05 89.16 C 524.93 87.03 530.76 84.72 536.73 82.83 Z" />
</g>
<g id="#826940ff">
<path fill="#826940" opacity="1.00" d=" M 539.41 85.69 C 543.83 83.56 548.57 82.21 553.31 81.03 C 550.77 84.02 546.94 85.27 543.35 86.47 C 541.98 87.11 540.67 86.00 539.41 85.69 Z" />
</g>
<g id="#9c7f4eff">
<path fill="#9c7f4e" opacity="1.00" d=" M 511.10 86.87 C 513.07 85.93 516.05 87.18 515.66 89.59 C 514.49 90.57 513.13 91.28 511.82 92.01 C 511.60 90.54 511.40 89.08 511.20 87.61 L 511.10 86.87 Z" />
</g>
<g id="#866d42ff">
<path fill="#866d42" opacity="1.00" d=" M 539.48 90.75 C 542.75 88.36 546.55 86.77 550.51 85.95 C 548.06 89.27 543.56 91.24 539.48 90.75 Z" />
</g>
<g id="#bf9e64ff">
<path fill="#bf9e64" opacity="1.00" d=" M 492.48 92.86 C 498.68 90.94 504.94 89.29 511.20 87.61 C 511.40 89.08 511.60 90.54 511.82 92.01 C 505.98 93.70 500.25 95.78 494.36 97.29 C 493.74 95.81 493.11 94.33 492.48 92.86 Z" />
</g>
<g id="#987c4cff">
<path fill="#987c4c" opacity="1.00" d=" M 513.74 93.19 C 515.04 92.14 516.35 91.09 517.66 90.05 C 518.38 91.19 519.11 92.33 519.84 93.47 C 519.02 94.06 518.18 94.42 517.31 94.56 C 516.10 94.14 514.91 93.66 513.74 93.19 Z" />
</g>
<g id="#7e663eff">
<path fill="#7e663e" opacity="1.00" d=" M 539.39 95.11 C 541.55 92.69 544.62 91.53 547.70 90.81 C 545.37 92.98 542.44 94.31 539.39 95.11 Z" />
</g>
<g id="#c2a166ff">
<path fill="#c2a166" opacity="1.00" d=" M 496.06 98.22 C 502.07 96.98 507.94 95.17 513.74 93.19 C 514.91 93.66 516.10 94.14 517.31 94.56 C 511.37 96.28 505.64 98.56 500.04 101.17 C 499.34 101.00 497.94 100.67 497.24 100.51 C 496.84 99.74 496.45 98.98 496.06 98.22 Z" />
</g>
<g id="#7e673eff">
<path fill="#7e673e" opacity="1.00" d=" M 535.04 100.98 C 538.05 97.58 542.26 95.64 546.50 94.26 C 543.73 97.93 539.06 99.19 535.04 100.98 Z" />
</g>
<g id="#af915bff">
<path fill="#af915b" opacity="1.00" d=" M 499.86 103.51 C 506.58 99.13 514.57 97.46 522.16 95.19 C 521.33 98.88 517.28 99.86 514.36 101.37 C 509.76 103.14 504.68 106.71 499.86 103.51 Z" />
<path fill="#af915b" opacity="1.00" d=" M 508.34 111.04 C 512.61 108.05 517.41 105.86 522.47 104.58 C 519.89 109.85 513.43 110.28 508.34 111.04 Z" />
</g>
<g id="#b5955eff">
<path fill="#b5955e" opacity="1.00" d=" M 503.70 107.13 C 510.55 105.42 516.64 101.69 523.41 99.84 C 522.53 102.59 519.56 103.14 517.28 104.25 C 513.68 105.78 510.29 107.74 506.91 109.69 C 505.84 108.83 504.77 107.98 503.70 107.13 Z" />
</g>
<g id="#917648ff">
<path fill="#917648" opacity="1.00" d=" M 518.38 110.60 C 523.49 106.69 528.97 103.20 535.04 100.98 C 530.81 105.14 525.44 107.79 520.59 111.10 L 520.93 111.92 C 526.71 114.31 533.57 113.82 538.66 117.86 C 538.41 118.61 537.91 120.11 537.67 120.86 C 530.31 120.25 523.00 119.20 515.62 118.96 C 516.26 118.06 516.91 117.17 517.57 116.27 C 517.53 115.89 517.44 115.13 517.39 114.75 L 517.33 114.20 C 517.72 113.85 518.51 113.15 518.90 112.80 C 518.72 112.06 518.54 111.33 518.38 110.60 Z" />
</g>
<g id="#b2945eff">
<path fill="#b2945e" opacity="1.00" d=" M 502.19 115.79 C 502.31 113.09 506.21 112.30 508.44 111.80 C 506.95 113.72 504.86 116.13 502.19 115.79 Z" />
</g>
<g id="#8d7447ff">
<path fill="#8d7447" opacity="1.00" d=" M 508.47 114.79 C 508.45 113.10 511.00 111.51 512.58 112.14 C 512.57 113.79 509.99 115.16 508.47 114.79 Z" />
</g>
<g id="#856c42ff">
<path fill="#856c42" opacity="1.00" d=" M 514.21 112.39 C 514.95 111.08 517.72 112.00 516.46 113.50 C 515.70 114.83 512.94 113.90 514.21 112.39 Z" />
</g>
<g id="#aa8b56ff">
<path fill="#aa8b56" opacity="1.00" d=" M 510.33 117.84 C 511.87 115.72 515.18 115.95 517.39 114.75 C 517.44 115.13 517.53 115.89 517.57 116.27 C 516.91 117.17 516.26 118.06 515.62 118.96 C 515.38 119.30 514.91 119.96 514.67 120.29 C 516.28 120.59 517.89 120.91 519.50 121.25 C 518.54 121.52 517.58 121.80 516.64 122.09 C 517.79 130.38 516.67 138.74 517.29 147.03 C 517.13 150.28 521.28 150.07 523.47 151.04 C 520.25 151.29 516.79 151.79 513.75 150.42 C 510.31 147.59 510.92 143.00 510.89 139.04 C 511.11 131.95 507.32 124.77 510.33 117.84 Z" />
</g>
<g id="#b7975fff">
<path fill="#b7975f" opacity="1.00" d=" M 504.18 117.15 C 504.61 117.35 505.48 117.76 505.92 117.96 C 507.38 117.91 508.86 117.87 510.33 117.84 C 507.32 124.77 511.11 131.95 510.89 139.04 C 510.92 143.00 510.31 147.59 513.75 150.42 C 512.89 150.37 511.17 150.27 510.31 150.21 C 511.82 152.50 514.61 152.96 517.10 153.45 C 520.79 154.14 524.55 154.15 528.30 154.30 C 523.92 158.48 517.72 156.45 512.43 155.87 C 513.78 158.89 517.51 158.55 520.21 159.24 C 519.77 159.72 518.88 160.68 518.44 161.16 C 517.09 160.66 515.69 160.20 514.34 159.77 C 514.98 162.44 517.82 163.07 519.87 164.30 C 522.05 165.34 523.60 167.23 525.19 168.99 C 520.54 167.35 515.79 165.75 512.44 161.93 C 512.71 163.62 513.43 165.18 514.59 166.45 C 517.11 169.41 518.79 172.95 520.79 176.27 C 517.81 175.67 514.59 174.94 512.48 172.57 C 509.78 169.51 508.54 165.46 505.78 162.44 C 506.20 166.51 508.60 169.89 510.75 173.22 C 512.61 175.99 512.68 179.45 513.30 182.62 C 511.18 181.61 508.56 181.02 507.20 178.92 C 504.98 175.66 505.49 171.53 505.21 167.80 C 502.51 171.39 504.37 176.27 505.96 179.96 C 507.35 182.26 506.47 184.91 506.14 187.37 C 504.84 186.21 503.57 185.03 502.31 183.85 L 502.34 183.62 C 504.84 171.08 500.97 158.51 501.86 145.93 C 501.84 143.90 502.83 142.09 504.03 140.53 C 506.25 138.98 509.81 138.59 510.31 135.42 C 507.11 136.98 503.89 138.98 500.19 138.76 C 500.70 134.92 506.25 133.01 506.45 128.54 C 504.74 130.05 503.22 131.75 501.76 133.50 C 500.53 128.52 500.47 123.31 502.16 118.42 L 502.30 117.91 C 502.77 117.72 503.71 117.34 504.18 117.15 Z" />
</g>
<g id="#9d814fff">
<path fill="#9d814f" opacity="1.00" d=" M 479.09 144.88 C 481.48 143.96 484.01 144.21 486.44 144.85 C 487.49 147.86 488.78 150.78 490.33 153.57 C 489.76 154.04 488.62 154.99 488.05 155.46 C 486.80 153.88 485.54 152.31 484.27 150.76 C 484.13 150.59 483.84 150.23 483.70 150.05 C 482.43 148.50 481.14 146.96 479.73 145.54 L 479.09 144.88 Z" />
<path fill="#9d814f" opacity="1.00" d=" M 487.42 157.28 C 488.78 156.82 490.12 156.31 491.48 155.83 C 492.20 157.42 492.81 159.06 493.43 160.69 C 492.15 162.60 491.72 164.84 491.76 167.10 C 491.09 163.56 489.82 160.13 487.47 157.35 L 487.42 157.28 Z" />
</g>
<g id="#725c38ff">
<path fill="#725c38" opacity="1.00" d=" M 486.44 144.85 C 488.15 145.68 490.10 146.20 491.54 147.51 C 492.85 149.15 493.64 151.14 494.59 153.01 C 494.13 155.56 493.77 158.13 493.43 160.69 C 492.81 159.06 492.20 157.42 491.48 155.83 C 491.19 155.27 490.62 154.14 490.33 153.57 C 488.78 150.78 487.49 147.86 486.44 144.85 Z" />
</g>
<g id="#f6f30aff">
<path fill="#f6f30a" opacity="1.00" d=" M 413.25 152.11 C 416.14 153.73 419.09 155.32 422.42 155.83 C 418.42 158.58 414.34 161.66 412.54 166.36 C 410.50 164.46 407.64 162.27 408.31 159.10 C 409.10 156.28 411.08 153.98 413.25 152.11 Z" />
<path fill="#f6f30a" opacity="1.00" d=" M 416.37 163.13 C 418.93 159.91 422.39 157.52 425.86 155.38 C 427.66 155.73 429.37 156.39 431.11 156.99 C 428.95 159.20 426.74 161.55 423.83 162.75 C 421.48 163.83 418.83 163.24 416.37 163.13 Z" />
<path fill="#f6f30a" opacity="1.00" d=" M 482.18 191.04 C 483.41 189.78 485.36 191.45 485.19 192.93 C 484.66 196.54 482.47 200.19 478.98 201.60 C 477.24 201.79 475.70 200.72 475.43 198.97 C 476.02 197.41 477.95 197.10 479.10 196.05 C 480.25 194.46 480.31 192.05 482.18 191.04 Z" />
<path fill="#f6f30a" opacity="1.00" d=" M 487.28 191.49 C 488.07 192.58 490.36 193.23 489.71 194.92 C 489.27 199.30 485.66 204.79 480.63 203.32 C 483.88 200.02 486.09 195.96 487.28 191.49 Z" />
<path fill="#f6f30a" opacity="1.00" d=" M 491.23 193.75 C 491.96 193.80 493.40 193.89 494.13 193.93 C 495.69 198.56 492.60 202.53 489.86 205.90 L 489.40 206.29 L 489.09 206.56 C 488.06 205.76 487.02 204.98 485.99 204.22 C 489.12 201.59 490.85 197.79 491.23 193.75 Z" />
<path fill="#f6f30a" opacity="1.00" d=" M 473.24 197.21 C 474.80 197.29 474.73 200.00 473.22 200.11 C 471.67 199.99 471.71 197.33 473.24 197.21 Z" />
<path fill="#f6f30a" opacity="1.00" d=" M 470.85 214.27 C 467.53 210.57 471.75 206.73 474.62 204.49 C 475.28 208.22 473.42 211.72 470.85 214.27 Z" />
</g>
<g id="#bf9d63ff">
<path fill="#bf9d63" opacity="1.00" d=" M 482.62 155.05 C 482.96 153.54 483.51 152.11 484.27 150.76 C 485.54 152.31 486.80 153.88 488.05 155.46 C 486.23 155.38 484.42 155.24 482.62 155.05 Z" />
</g>
<g id="#efd466ff">
<path fill="#efd466" opacity="1.00" d=" M 394.67 174.97 C 402.19 175.05 410.11 174.48 416.77 170.64 C 418.76 174.39 421.50 177.66 424.91 180.19 C 426.67 181.00 425.81 182.94 425.48 184.36 C 420.88 185.53 416.09 186.53 412.41 189.80 C 407.63 183.59 400.69 179.78 394.67 174.97 Z" />
<path fill="#efd466" opacity="1.00" d=" M 429.86 171.70 C 431.72 172.05 433.59 172.43 435.44 172.87 C 433.90 180.50 432.28 188.14 430.04 195.58 C 428.43 196.17 426.71 195.47 425.23 194.85 C 425.56 186.98 427.99 179.32 429.86 171.70 Z" />
<path fill="#efd466" opacity="1.00" d=" M 432.43 192.53 C 433.60 187.23 434.63 181.86 436.45 176.73 C 437.15 177.13 438.54 177.92 439.24 178.32 C 438.86 183.16 437.73 187.94 436.39 192.59 C 435.07 192.67 433.75 192.58 432.43 192.53 Z" />
<path fill="#efd466" opacity="1.00" d=" M 456.26 197.96 C 456.07 192.50 456.72 186.72 460.23 182.30 C 464.76 188.65 472.11 192.02 479.47 193.83 C 478.90 194.27 477.76 195.16 477.19 195.60 C 470.11 195.18 462.89 195.03 456.26 197.96 Z" />
<path fill="#efd466" opacity="1.00" d=" M 439.70 184.24 C 445.16 185.39 450.61 186.61 456.06 187.85 C 455.69 189.10 455.33 190.35 454.98 191.60 C 449.62 190.47 444.30 189.17 438.94 188.08 C 439.18 186.80 439.44 185.51 439.70 184.24 Z" />
<path fill="#efd466" opacity="1.00" d=" M 439.55 204.10 C 441.27 203.03 443.06 200.26 445.33 201.51 C 449.22 203.39 450.63 208.52 448.41 212.21 C 448.44 212.49 448.51 213.04 448.55 213.32 C 447.94 213.98 447.41 214.70 446.96 215.47 C 456.80 217.42 466.99 217.78 476.99 217.00 C 476.08 218.01 475.17 219.03 474.28 220.06 C 481.72 221.60 489.34 220.36 496.47 218.00 C 495.62 219.45 494.74 220.89 493.89 222.33 C 498.47 222.57 503.06 222.31 507.65 222.49 C 504.49 223.83 501.02 223.87 497.66 224.08 C 501.45 227.24 505.98 229.24 510.29 231.57 C 506.80 231.45 503.32 231.16 499.85 230.85 L 499.28 230.63 C 499.03 230.52 498.55 230.29 498.31 230.18 C 497.14 229.77 495.96 229.40 494.78 229.07 C 497.00 232.68 500.29 235.39 503.38 238.22 C 501.01 237.86 498.47 237.90 496.33 236.71 C 493.43 235.10 491.38 232.39 489.16 230.01 C 490.51 230.27 493.20 230.78 494.54 231.04 C 491.25 228.47 487.44 226.69 483.52 225.30 C 486.47 224.85 489.48 224.41 492.19 223.06 C 487.36 223.05 482.55 223.57 477.74 223.92 C 481.39 225.81 485.17 227.46 488.92 229.14 C 488.87 229.57 488.77 230.44 488.71 230.87 C 489.29 232.86 489.78 234.86 490.21 236.89 C 485.61 232.86 480.64 229.16 474.84 227.04 C 473.01 224.33 470.17 222.65 467.31 221.24 C 469.55 220.49 471.76 219.65 473.88 218.59 C 469.83 218.81 465.83 219.50 461.84 220.18 C 465.82 222.10 469.73 224.18 473.52 226.46 C 473.02 227.05 472.53 227.65 472.05 228.25 C 473.74 229.44 475.33 230.77 476.81 232.23 C 473.59 231.13 470.05 229.95 467.01 232.20 C 464.18 229.56 461.31 226.78 457.63 225.41 C 454.16 224.00 450.32 225.05 446.78 224.13 C 444.60 223.20 442.85 221.54 440.69 220.60 C 437.31 219.39 433.54 219.45 430.34 217.75 C 428.06 216.59 427.11 214.04 425.83 212.02 C 429.96 214.85 434.06 217.92 438.95 219.31 C 437.18 217.53 435.06 216.16 432.92 214.89 C 434.24 214.85 436.88 214.77 438.21 214.73 C 434.15 213.14 429.96 211.70 425.59 211.37 C 423.23 210.09 420.91 208.74 418.65 207.31 C 420.08 205.55 421.22 203.23 423.50 202.42 C 425.40 201.54 427.44 202.53 429.36 202.84 C 431.23 202.29 433.09 201.57 435.07 201.45 C 436.84 201.70 438.11 203.16 439.55 204.10 M 426.58 204.04 C 429.73 208.51 435.08 211.68 440.69 210.82 C 437.83 209.06 434.39 208.72 431.34 207.39 C 433.46 207.09 435.60 206.98 437.74 206.88 L 437.84 205.61 C 434.00 205.75 430.27 204.96 426.58 204.04 M 442.68 217.32 C 446.51 220.95 451.42 223.97 456.80 224.27 C 454.36 222.13 451.00 221.56 448.42 219.61 C 451.13 219.54 454.19 220.54 456.52 218.67 C 451.88 218.47 447.29 217.83 442.68 217.32 Z" />
<path fill="#efd466" opacity="1.00" d=" M 450.71 206.04 C 457.01 206.61 463.33 206.84 469.62 207.51 C 468.60 208.85 468.50 212.12 466.04 211.28 C 461.10 210.66 456.13 210.45 451.16 210.39 C 451.05 209.30 450.82 207.12 450.71 206.04 Z" />
<path fill="#efd466" opacity="1.00" d=" M 488.47 208.80 C 499.98 209.17 511.45 210.25 522.94 210.97 C 526.96 211.19 531.05 211.08 535.00 211.98 L 535.82 213.04 C 535.62 213.65 535.21 214.88 535.01 215.49 C 528.67 215.97 522.40 214.43 516.07 214.53 C 506.97 213.73 497.83 213.50 488.74 212.54 C 488.67 211.61 488.53 209.73 488.47 208.80 Z" />
</g>
<g id="#a4932aff">
<path fill="#a4932a" opacity="1.00" d=" M 489.02 181.67 C 490.22 180.52 491.44 179.38 492.67 178.25 C 494.97 178.95 497.35 179.33 499.77 179.47 C 500.17 181.53 500.54 183.67 499.62 185.66 C 496.14 184.18 492.61 182.85 489.02 181.67 Z" />
</g>
<g id="#d5cb21ff">
<path fill="#d5cb21" opacity="1.00" d=" M 489.02 181.67 C 492.61 182.85 496.14 184.18 499.62 185.66 C 498.88 186.68 498.19 187.73 497.49 188.77 C 493.80 187.94 490.31 186.40 487.22 184.22 C 487.67 183.58 488.57 182.31 489.02 181.67 Z" />
</g>
<g id="#e8e215ff">
<path fill="#e8e215" opacity="1.00" d=" M 484.12 189.53 C 485.17 187.77 486.21 186.00 487.22 184.22 C 490.31 186.40 493.80 187.94 497.49 188.77 C 497.16 190.16 496.84 191.54 496.52 192.93 C 492.18 192.69 488.13 191.07 484.12 189.53 Z" />
</g>
<g id="#f4f20aff">
<path fill="#f4f20a" opacity="1.00" d=" M 495.97 193.97 C 496.98 194.85 499.39 195.16 499.02 196.98 C 498.86 200.64 496.69 204.60 492.85 205.45 C 494.63 201.85 496.28 198.09 495.97 193.97 Z" />
</g>
<g id="#f1d667ff">
<path fill="#f1d667" opacity="1.00" d=" M 499.19 201.37 C 499.51 200.58 500.15 199.00 500.48 198.22 C 513.23 201.37 526.15 203.86 538.87 207.14 C 541.14 207.47 540.61 211.77 538.03 210.62 C 525.02 207.83 512.14 204.42 499.19 201.37 Z" />
</g>
<g id="#f0ea13ff">
<path fill="#f0ea13" opacity="1.00" d=" M 464.90 204.91 C 467.86 203.97 470.73 201.90 473.98 202.43 C 476.04 202.73 478.09 203.21 480.03 203.98 C 481.30 204.94 479.75 206.19 479.45 207.25 C 479.46 206.62 479.47 205.36 479.48 204.73 C 476.39 204.14 472.52 202.04 470.59 205.83 C 468.66 205.72 466.75 205.43 464.90 204.91 Z" />
<path fill="#f0ea13" opacity="1.00" d=" M 481.35 207.15 C 483.35 206.34 482.80 208.74 483.01 209.94 C 483.50 212.14 482.00 213.90 480.87 215.59 C 478.69 213.01 479.28 209.56 481.35 207.15 Z" />
</g>
<g id="#877727ff">
<path fill="#877727" opacity="1.00" d=" M 483.34 205.28 C 486.23 203.59 483.67 208.61 483.34 205.28 Z" />
</g>
<g id="#efeb0cff">
<path fill="#efeb0c" opacity="1.00" d=" M 474.12 213.50 C 474.91 210.74 476.04 208.05 477.93 205.85 C 478.33 208.44 478.49 211.16 477.57 213.66 C 476.41 213.70 475.26 213.65 474.12 213.50 Z" />
</g>
<g id="#f1ee13ff">
<path fill="#f1ee13" opacity="1.00" d=" M 485.84 206.83 C 487.18 209.26 488.00 212.18 486.81 214.85 C 486.12 216.44 484.03 215.48 484.02 214.03 C 483.94 211.52 485.02 209.16 485.84 206.83 Z" />
</g>
</svg>
