<?xml version="1.0" encoding="UTF-8" ?>
<!DOCTYPE svg PUBLIC "-//W3C//DTD SVG 1.1//EN" "http://www.w3.org/Graphics/SVG/1.1/DTD/svg11.dtd">
<svg width="455pt" height="302pt" viewBox="0 0 455 302" version="1.1" xmlns="http://www.w3.org/2000/svg">
<g id="#ffffffff">
<path fill="#ffffff" opacity="1.00" d=" M 0.00 0.00 L 1.00 0.00 C 1.00 66.02 1.01 132.04 0.99 198.06 C 1.04 199.68 1.20 201.30 1.34 202.91 C 1.67 208.12 1.44 213.34 1.50 218.55 C 1.51 223.34 1.51 228.14 1.51 232.93 C 1.49 238.16 1.50 243.39 1.51 248.62 C 1.52 261.40 1.50 274.19 1.52 286.97 C 1.54 291.98 1.25 297.01 1.89 302.00 L 0.00 302.00 L 0.00 0.00 Z" />
<path fill="#ffffff" opacity="1.00" d=" M 453.99 0.00 L 455.00 0.00 L 455.00 302.00 L 453.62 302.00 C 453.90 284.21 453.68 266.42 453.74 248.62 C 453.75 243.37 453.75 238.11 453.73 232.86 C 453.73 228.09 453.75 223.32 453.74 218.55 C 453.72 213.32 453.79 208.08 453.74 202.84 L 453.73 202.57 C 454.06 198.41 454.04 194.23 454.00 190.06 C 453.99 126.71 454.01 63.35 453.99 0.00 Z" />
<path fill="#ffffff" opacity="1.00" d=" M 89.43 13.43 C 90.00 12.57 90.35 11.29 91.55 11.19 C 98.72 24.45 105.82 37.75 112.94 51.04 C 113.69 52.65 114.97 53.89 116.58 54.63 C 128.74 61.07 140.78 67.74 152.96 74.17 C 154.25 74.86 155.41 75.77 156.56 76.68 C 144.37 83.36 132.22 90.13 120.05 96.84 C 117.60 98.29 114.51 99.25 113.16 101.97 C 105.80 115.58 98.71 129.33 91.10 142.80 C 84.27 130.61 77.85 118.20 71.19 105.93 C 69.82 103.67 69.07 100.76 66.66 99.35 C 53.07 91.53 38.98 84.49 25.64 76.26 C 37.82 69.58 50.08 63.03 62.30 56.41 C 64.80 54.95 68.02 54.05 69.25 51.16 C 75.93 38.56 82.76 26.04 89.43 13.43 M 71.48 56.81 C 61.91 62.29 51.78 66.82 42.05 72.04 C 39.34 73.64 36.04 74.41 33.85 76.78 C 46.42 82.92 58.57 89.87 71.13 96.01 C 77.89 108.92 84.46 121.93 91.11 134.90 C 97.66 122.10 103.79 109.07 110.50 96.36 C 123.19 89.68 136.01 83.07 148.94 76.83 C 148.19 75.94 147.29 75.26 146.23 74.79 C 134.17 68.98 122.21 62.99 110.24 57.02 C 103.99 44.07 97.58 31.20 91.28 18.27 C 84.19 30.85 78.22 44.05 71.48 56.81 Z" />
</g>
<g id="#adb5bdff">
<path fill="#adb5bd" opacity="1.00" d=" M 1.00 0.00 L 1.97 0.00 C 2.04 63.68 1.98 127.36 2.01 191.03 C 2.06 195.00 2.25 199.01 1.34 202.91 C 1.20 201.30 1.04 199.68 0.99 198.06 C 1.01 132.04 1.00 66.02 1.00 0.00 Z" />
</g>
<g id="#b4d7f4ff">
<path fill="#b4d7f4" opacity="1.00" d=" M 1.97 0.00 L 453.00 0.00 C 453.00 65.99 452.99 131.99 453.00 197.99 C 453.10 199.53 453.45 201.05 453.73 202.57 L 453.74 202.84 C 355.15 202.69 256.56 202.82 157.97 202.78 C 105.76 202.87 53.55 202.60 1.34 202.91 C 2.25 199.01 2.06 195.00 2.01 191.03 C 1.98 127.36 2.04 63.68 1.97 0.00 M 89.43 13.43 C 82.76 26.04 75.93 38.56 69.25 51.16 C 68.02 54.05 64.80 54.95 62.30 56.41 C 50.08 63.03 37.82 69.58 25.64 76.26 C 38.98 84.49 53.07 91.53 66.66 99.35 C 69.07 100.76 69.82 103.67 71.19 105.93 C 77.85 118.20 84.27 130.61 91.10 142.80 C 98.71 129.33 105.80 115.58 113.16 101.97 C 114.51 99.25 117.60 98.29 120.05 96.84 C 132.22 90.13 144.37 83.36 156.56 76.68 C 155.41 75.77 154.25 74.86 152.96 74.17 C 140.78 67.74 128.74 61.07 116.58 54.63 C 114.97 53.89 113.69 52.65 112.94 51.04 C 105.82 37.75 98.72 24.45 91.55 11.19 C 90.35 11.29 90.00 12.57 89.43 13.43 Z" />
<path fill="#b4d7f4" opacity="1.00" d=" M 1.50 218.55 C 152.25 218.52 303.00 218.53 453.74 218.55 C 453.75 223.32 453.73 228.09 453.73 232.86 C 302.99 232.91 152.25 232.75 1.51 232.93 C 1.51 228.14 1.51 223.34 1.50 218.55 Z" />
<path fill="#b4d7f4" opacity="1.00" d=" M 1.51 248.62 C 152.25 248.61 303.00 248.60 453.74 248.62 C 453.68 266.42 453.90 284.21 453.62 302.00 L 1.89 302.00 C 1.25 297.01 1.54 291.98 1.52 286.97 C 1.50 274.19 1.52 261.40 1.51 248.62 Z" />
</g>
<g id="#9aabb9ff">
<path fill="#9aabb9" opacity="1.00" d=" M 453.00 0.00 L 453.99 0.00 C 454.01 63.35 453.99 126.71 454.00 190.06 C 454.04 194.23 454.06 198.41 453.73 202.57 C 453.45 201.05 453.10 199.53 453.00 197.99 C 452.99 131.99 453.00 65.99 453.00 0.00 Z" />
</g>
<g id="#be0027ff">
<path fill="#be0027" opacity="1.00" d=" M 71.48 56.81 C 78.22 44.05 84.19 30.85 91.28 18.27 C 97.58 31.20 103.99 44.07 110.24 57.02 C 122.21 62.99 134.17 68.98 146.23 74.79 C 147.29 75.26 148.19 75.94 148.94 76.83 C 136.01 83.07 123.19 89.68 110.50 96.36 C 103.79 109.07 97.66 122.10 91.11 134.90 C 84.46 121.93 77.89 108.92 71.13 96.01 C 58.57 89.87 46.42 82.92 33.85 76.78 C 36.04 74.41 39.34 73.64 42.05 72.04 C 51.78 66.82 61.91 62.29 71.48 56.81 Z" />
</g>
<g id="#f7f409ff">
<path fill="#f7f409" opacity="1.00" d=" M 1.34 202.91 C 53.55 202.60 105.76 202.87 157.97 202.78 C 256.56 202.82 355.15 202.69 453.74 202.84 C 453.79 208.08 453.72 213.32 453.74 218.55 C 303.00 218.53 152.25 218.52 1.50 218.55 C 1.44 213.34 1.67 208.12 1.34 202.91 Z" />
<path fill="#f7f409" opacity="1.00" d=" M 1.51 232.93 C 152.25 232.75 302.99 232.91 453.73 232.86 C 453.75 238.11 453.75 243.37 453.74 248.62 C 303.00 248.60 152.25 248.61 1.51 248.62 C 1.50 243.39 1.49 238.16 1.51 232.93 Z" />
</g>
</svg>
