<?xml version="1.0" encoding="UTF-8" ?>
<!DOCTYPE svg PUBLIC "-//W3C//DTD SVG 1.1//EN" "http://www.w3.org/Graphics/SVG/1.1/DTD/svg11.dtd">
<svg width="604pt" height="302pt" viewBox="0 0 604 302" version="1.1" xmlns="http://www.w3.org/2000/svg">
<g id="#be0027ff">
<path fill="#be0027" opacity="1.00" d=" M 0.00 0.00 L 0.46 0.00 C 33.91 16.65 67.54 32.92 101.02 49.49 C 94.01 49.68 86.98 49.68 79.96 49.58 C 76.27 49.18 73.23 46.73 69.94 45.21 C 46.68 33.40 23.24 21.94 0.00 10.09 L 0.00 0.00 Z" />
<path fill="#be0027" opacity="1.00" d=" M 136.21 0.00 L 167.17 0.00 C 167.16 20.05 167.23 40.11 167.13 60.16 C 212.59 60.21 258.05 60.17 303.51 60.18 C 303.50 56.66 303.49 53.15 303.52 49.64 C 303.60 38.15 303.58 26.67 303.54 15.18 C 303.47 10.12 303.55 5.06 303.43 0.00 L 604.00 0.00 L 604.00 302.00 L 0.00 302.00 L 0.00 151.00 C 30.34 134.93 60.97 119.41 91.38 103.46 C 94.12 102.15 96.74 100.07 99.94 100.21 C 106.70 100.23 113.47 100.13 120.24 100.31 C 87.51 117.39 54.80 134.49 21.98 151.39 C 27.35 151.70 32.74 151.52 38.11 151.51 C 70.81 151.72 103.51 151.60 136.21 151.57 C 136.18 131.26 136.25 110.96 136.18 90.65 C 90.78 90.73 45.39 90.67 0.00 90.69 L 0.00 60.17 C 45.40 60.19 90.80 60.18 136.20 60.18 C 136.22 40.12 136.20 20.06 136.21 0.00 M 386.15 65.37 C 385.40 69.54 385.76 73.79 385.71 78.00 C 385.67 111.00 385.76 144.01 385.67 177.01 C 385.62 178.61 385.88 180.16 386.45 181.66 C 386.40 182.25 386.29 183.43 386.23 184.02 C 384.87 190.25 385.06 197.50 389.06 202.81 C 393.53 208.75 399.51 213.35 405.86 217.12 C 419.30 224.82 434.08 229.78 448.95 233.91 C 451.29 234.45 454.24 235.60 456.24 233.64 L 456.26 233.64 C 459.62 233.78 462.76 232.48 465.94 231.59 C 476.04 228.57 486.05 225.06 495.50 220.34 C 504.69 215.51 514.16 209.64 519.20 200.19 C 521.28 196.42 521.05 192.00 520.81 187.84 C 520.90 146.93 520.92 106.00 520.81 65.08 C 482.55 65.28 444.29 65.29 406.03 65.25 C 399.40 65.16 392.77 65.78 386.15 65.37 M 167.31 90.99 C 167.02 111.18 167.23 131.39 167.21 151.59 C 170.56 151.54 173.91 151.53 177.26 151.59 C 219.05 151.63 260.84 151.61 302.64 151.63 C 302.63 151.33 302.61 150.73 302.60 150.43 C 302.42 150.51 302.05 150.67 301.87 150.75 C 268.59 133.88 235.21 117.20 201.92 100.35 C 209.38 100.29 216.96 99.82 224.35 100.57 C 250.81 113.83 277.12 127.39 303.48 140.87 C 303.49 138.92 303.50 136.97 303.49 135.03 C 303.63 123.46 303.58 111.88 303.53 100.30 C 303.52 97.09 303.52 93.88 303.40 90.68 C 258.58 90.70 213.77 90.68 168.96 90.69 C 168.55 90.77 167.72 90.91 167.31 90.99 Z" />
<path fill="#be0027" opacity="1.00" d=" M 279.76 0.00 L 301.83 0.00 L 302.98 0.43 C 272.64 15.58 242.32 30.78 212.00 45.96 C 208.80 47.40 205.77 49.83 202.09 49.64 C 195.37 49.61 188.65 49.67 181.93 49.54 C 214.50 32.94 247.26 16.72 279.76 0.00 Z" />
<path fill="#be0027" opacity="1.00" d=" M 398.75 148.03 C 402.09 145.02 407.36 143.71 411.28 146.37 C 412.33 146.46 413.39 146.46 414.45 146.43 C 414.68 151.24 413.41 156.48 416.06 160.86 C 414.66 162.78 412.66 164.08 410.56 165.12 C 410.59 168.77 411.13 172.40 411.99 175.95 C 411.16 177.82 409.32 178.71 407.69 179.74 C 406.87 178.86 406.07 178.00 405.26 177.13 C 405.18 177.53 405.02 178.34 404.94 178.74 L 404.78 179.51 C 403.78 178.60 402.78 177.70 401.80 176.80 C 401.80 177.61 401.82 179.21 401.82 180.01 L 400.99 180.12 C 400.66 179.68 399.99 178.82 399.65 178.39 L 399.31 177.98 C 400.21 176.14 400.52 173.73 398.94 172.15 C 395.65 168.75 395.83 163.50 397.74 159.44 C 400.84 160.15 403.73 161.58 404.70 164.84 C 405.29 163.99 405.88 163.14 406.49 162.30 C 406.67 162.73 407.05 163.59 407.23 164.02 C 407.81 163.19 408.40 162.36 408.99 161.53 C 407.03 159.79 405.95 157.44 405.43 154.92 C 405.09 155.89 404.76 156.87 404.43 157.85 C 403.91 156.11 404.77 153.40 402.83 152.48 C 402.61 153.97 402.54 155.48 402.45 156.99 C 402.33 156.49 402.08 155.51 401.95 155.02 C 401.54 155.16 400.72 155.43 400.31 155.57 C 400.14 152.99 399.74 150.43 398.75 148.03 Z" />
<path fill="#be0027" opacity="1.00" d=" M 500.89 145.33 C 504.99 143.32 509.91 145.30 512.29 148.97 C 512.81 151.72 512.71 154.54 512.48 157.32 C 512.46 157.70 512.40 158.46 512.37 158.84 C 513.25 160.83 514.89 162.66 514.72 164.97 C 514.78 167.32 513.17 169.18 512.06 171.11 C 511.46 173.50 511.28 176.05 509.96 178.21 L 508.89 177.40 C 508.79 176.91 508.59 175.93 508.49 175.44 C 507.51 176.43 506.50 177.40 505.52 178.38 C 505.57 177.62 505.65 176.11 505.70 175.35 C 504.60 176.31 503.48 177.26 502.39 178.20 C 502.44 177.47 502.54 175.99 502.58 175.25 C 501.82 176.12 501.24 177.22 500.21 177.80 C 499.14 176.75 498.56 175.43 498.84 173.92 C 499.35 171.05 499.95 168.15 499.80 165.23 C 497.68 163.71 494.98 162.70 493.83 160.17 C 491.09 155.67 491.54 150.20 492.58 145.27 C 495.34 145.43 498.15 145.94 500.89 145.33 M 507.74 158.33 C 506.95 159.09 506.16 159.86 505.38 160.63 C 505.74 161.77 506.10 162.92 506.46 164.06 C 506.45 163.27 506.42 161.68 506.41 160.89 C 509.14 158.86 508.05 155.80 507.33 153.04 C 507.46 154.80 507.60 156.56 507.74 158.33 Z" />
<path fill="#be0027" opacity="1.00" d=" M 424.91 187.70 C 426.74 187.92 428.57 188.11 430.40 188.32 C 431.73 191.67 433.96 194.68 437.42 196.04 C 436.33 196.43 435.24 196.81 434.15 197.17 C 432.69 197.28 431.23 197.49 429.87 198.06 L 428.95 198.36 L 428.29 198.60 C 428.57 199.89 428.91 201.16 429.25 202.44 C 427.64 202.80 426.02 203.15 424.43 203.52 C 424.46 201.68 424.50 199.84 424.51 198.01 C 424.27 198.17 423.78 198.50 423.53 198.66 C 423.14 198.96 422.36 199.57 421.97 199.87 C 421.73 200.08 421.24 200.51 421.00 200.73 C 420.65 201.83 420.28 202.93 419.91 204.04 C 418.28 205.66 415.93 204.06 414.34 203.22 C 413.84 199.92 417.60 198.78 419.79 197.28 C 419.05 197.42 418.31 197.55 417.58 197.70 C 415.79 199.20 414.48 201.66 412.03 202.08 C 410.03 201.50 409.37 199.22 408.09 197.81 C 411.02 194.69 415.39 195.34 419.25 194.98 C 416.74 194.85 414.23 194.80 411.72 194.75 C 410.83 195.42 409.95 196.08 409.07 196.75 C 408.50 196.20 407.35 195.08 406.78 194.53 C 406.95 194.29 407.29 193.81 407.46 193.57 C 407.97 193.37 409.00 192.96 409.51 192.76 C 413.22 192.66 417.43 193.71 420.71 191.44 C 422.38 190.53 423.72 189.16 424.91 187.70 Z" />
<path fill="#be0027" opacity="1.00" d=" M 479.06 191.09 C 480.25 189.49 481.89 188.46 483.88 188.15 C 486.26 189.70 488.73 191.11 491.18 192.58 C 494.18 192.32 497.17 192.01 500.19 191.84 C 500.77 192.15 501.93 192.77 502.51 193.09 C 502.50 193.73 502.47 195.02 502.45 195.67 C 498.62 195.41 494.88 194.44 491.03 194.31 C 494.17 194.91 497.38 195.17 500.43 196.19 C 502.96 196.42 501.58 199.43 500.33 200.33 C 497.70 202.35 494.52 203.48 491.51 204.77 L 490.92 204.98 C 491.15 203.59 489.86 202.71 488.85 202.07 C 488.62 201.52 488.16 200.42 487.93 199.87 C 487.78 199.57 487.48 198.96 487.33 198.66 C 486.85 198.51 485.90 198.21 485.43 198.06 C 485.45 199.54 485.49 201.02 485.54 202.51 C 484.01 202.67 482.49 202.83 480.98 203.01 C 481.20 201.12 481.42 199.24 481.64 197.36 C 480.23 197.63 478.83 197.89 477.43 198.16 C 475.89 197.50 474.40 196.72 472.92 195.96 C 474.75 194.90 476.58 193.75 478.03 192.18 C 478.29 191.91 478.80 191.36 479.06 191.09 M 490.23 197.39 C 492.22 198.71 494.29 199.91 496.28 201.24 C 495.62 198.99 493.95 196.96 491.59 196.44 C 490.46 195.94 490.01 196.25 490.23 197.39 Z" />
</g>
<g id="#ffffffff">
<path fill="#ffffff" opacity="1.00" d=" M 0.46 0.00 L 37.58 0.00 C 67.32 14.96 96.91 30.20 126.66 45.14 C 126.69 30.09 126.43 15.04 126.78 0.00 L 136.21 0.00 C 136.20 20.06 136.22 40.12 136.20 60.18 C 90.80 60.18 45.40 60.19 0.00 60.17 L 0.00 49.63 C 22.11 49.53 44.22 49.81 66.33 49.48 C 62.48 46.85 58.15 45.09 54.03 42.96 C 36.04 33.74 17.99 24.66 0.00 15.46 L 0.00 10.09 C 23.24 21.94 46.68 33.40 69.94 45.21 C 73.23 46.73 76.27 49.18 79.96 49.58 C 86.98 49.68 94.01 49.68 101.02 49.49 C 67.54 32.92 33.91 16.65 0.46 0.00 Z" />
<path fill="#ffffff" opacity="1.00" d=" M 167.17 0.00 L 177.27 0.00 C 177.27 15.07 177.28 30.13 177.26 45.20 C 200.94 33.31 224.46 21.12 248.11 9.16 C 253.91 6.03 259.95 3.37 265.63 0.00 L 279.76 0.00 C 247.26 16.72 214.50 32.94 181.93 49.54 C 188.65 49.67 195.37 49.61 202.09 49.64 C 205.77 49.83 208.80 47.40 212.00 45.96 C 242.32 30.78 272.64 15.58 302.98 0.43 L 301.83 0.00 L 303.43 0.00 C 303.55 5.06 303.47 10.12 303.54 15.18 C 281.34 26.73 258.91 37.86 236.69 49.37 C 258.95 49.97 281.24 49.43 303.52 49.64 C 303.49 53.15 303.50 56.66 303.51 60.18 C 258.05 60.17 212.59 60.21 167.13 60.16 C 167.23 40.11 167.16 20.05 167.17 0.00 Z" />
<path fill="#ffffff" opacity="1.00" d=" M 386.48 66.42 C 431.01 66.53 475.54 66.30 520.07 66.23 C 520.19 105.89 520.16 145.56 520.08 185.23 C 519.11 184.17 518.10 183.17 517.09 182.17 C 517.16 183.27 517.31 185.47 517.38 186.58 L 515.93 186.42 C 515.12 185.16 514.31 183.90 513.53 182.62 C 512.16 184.00 510.45 183.24 508.88 182.75 C 508.50 183.03 507.73 183.58 507.34 183.85 C 507.48 183.11 507.75 181.61 507.89 180.87 C 505.90 181.68 503.98 182.63 502.15 183.75 C 502.91 181.39 503.52 178.96 504.56 176.70 C 504.73 177.50 505.06 179.10 505.23 179.89 C 506.03 179.05 506.83 178.21 507.65 177.38 C 508.16 177.76 509.18 178.53 509.69 178.91 C 511.93 176.95 511.66 173.78 512.06 171.11 C 513.17 169.18 514.78 167.32 514.72 164.97 C 514.89 162.66 513.25 160.83 512.37 158.84 C 512.40 158.46 512.46 157.70 512.48 157.32 C 512.60 156.74 512.84 155.58 512.96 155.00 C 514.41 154.09 514.71 152.14 513.48 150.91 C 513.18 150.43 512.59 149.45 512.29 148.97 C 509.91 145.30 504.99 143.32 500.89 145.33 C 498.29 145.87 495.69 145.18 493.19 144.54 C 493.42 143.97 493.88 142.82 494.12 142.25 C 495.46 140.54 496.22 137.21 498.97 137.76 C 500.58 138.13 500.52 139.91 501.01 141.18 C 502.12 141.23 503.24 141.27 504.37 141.33 C 506.07 138.45 508.44 134.79 506.37 131.48 C 504.20 129.70 501.58 128.30 501.02 125.27 C 503.83 122.82 503.12 119.23 503.74 115.98 C 505.27 112.93 502.84 109.47 500.70 107.38 C 497.80 107.11 494.87 107.38 492.00 107.73 C 489.49 108.41 490.38 111.37 490.21 113.25 C 489.21 114.01 488.20 114.75 487.20 115.50 C 484.69 114.80 482.16 114.18 479.63 113.58 C 479.35 109.59 476.83 106.48 474.65 103.35 C 475.54 101.42 477.41 99.33 476.34 97.09 C 474.46 93.53 472.83 89.63 469.62 87.05 C 469.49 84.98 468.83 82.75 469.86 80.81 C 471.34 78.33 470.45 75.45 470.29 72.77 C 468.40 73.15 466.53 73.56 464.67 74.03 C 464.39 73.54 463.84 72.58 463.56 72.09 C 458.14 70.85 452.44 71.41 447.02 72.37 C 445.31 72.29 443.62 72.21 441.93 72.14 C 441.82 74.12 441.73 76.11 441.65 78.09 C 441.96 78.58 442.58 79.57 442.89 80.06 C 442.58 81.95 442.53 83.90 441.96 85.74 C 439.94 87.91 437.49 89.62 435.41 91.73 C 436.31 93.37 437.79 94.99 437.29 97.02 C 436.62 99.02 435.25 100.68 434.29 102.52 C 434.60 103.37 434.99 104.17 435.42 104.97 C 432.99 107.16 431.38 110.10 431.03 113.37 C 428.26 112.96 425.49 112.49 422.71 112.16 C 422.57 110.45 423.21 108.47 422.14 106.96 C 419.61 105.73 416.82 104.84 414.00 104.69 C 411.58 106.19 409.47 108.13 407.30 109.96 C 405.96 112.30 407.20 114.30 409.19 115.68 C 408.23 117.08 407.21 118.52 406.79 120.19 C 406.38 122.17 407.85 123.81 408.64 125.48 C 408.58 126.63 408.52 127.78 408.46 128.93 C 406.32 129.99 403.74 131.30 403.54 134.01 C 403.59 136.65 404.97 139.06 405.68 141.57 C 408.17 141.71 410.08 140.35 411.22 138.19 C 414.77 137.18 416.59 142.34 417.03 145.19 C 415.11 145.60 413.21 146.08 411.28 146.37 C 407.36 143.71 402.09 145.02 398.75 148.03 C 396.35 151.37 397.44 155.65 397.74 159.44 C 395.83 163.50 395.65 168.75 398.94 172.15 C 398.59 173.85 398.56 175.59 398.63 177.32 C 398.14 177.48 397.15 177.79 396.66 177.94 C 396.56 177.28 396.37 175.95 396.27 175.29 C 395.84 175.83 394.98 176.90 394.55 177.43 C 393.84 177.34 393.14 177.25 392.44 177.16 C 391.79 178.12 391.15 179.08 390.52 180.05 C 390.41 179.37 390.18 178.03 390.07 177.36 C 388.92 178.70 387.89 180.14 387.03 181.69 C 386.88 182.11 386.58 182.96 386.43 183.38 L 386.23 184.02 C 386.29 183.43 386.40 182.25 386.45 181.66 C 386.56 143.25 386.50 104.83 386.48 66.42 Z" />
<path fill="#ffffff" opacity="1.00" d=" M 0.00 90.69 C 45.39 90.67 90.78 90.73 136.18 90.65 C 136.25 110.96 136.18 131.26 136.21 151.57 C 133.01 151.50 129.82 151.49 126.62 151.45 C 126.64 136.23 126.59 121.00 126.66 105.78 C 122.65 107.28 118.97 109.45 115.17 111.38 C 89.05 124.50 63.19 138.13 37.02 151.13 C 37.29 151.22 37.84 151.41 38.11 151.51 C 32.74 151.52 27.35 151.70 21.98 151.39 C 54.80 134.49 87.51 117.39 120.24 100.31 C 113.47 100.13 106.70 100.23 99.94 100.21 C 96.74 100.07 94.12 102.15 91.38 103.46 C 60.97 119.41 30.34 134.93 0.00 151.00 L 0.00 135.57 C 18.71 125.73 37.77 116.54 56.50 106.73 C 60.54 104.65 64.76 102.91 68.57 100.41 C 45.72 100.12 22.85 100.54 0.00 100.20 L 0.00 90.69 Z" />
<path fill="#ffffff" opacity="1.00" d=" M 167.31 90.99 C 167.72 90.91 168.55 90.77 168.96 90.69 C 213.77 90.68 258.58 90.70 303.40 90.68 C 303.52 93.88 303.52 97.09 303.53 100.30 C 280.94 100.39 258.34 100.22 235.75 100.38 C 249.13 107.84 263.08 114.24 276.60 121.46 C 285.61 125.88 294.45 130.66 303.49 135.03 C 303.50 136.97 303.49 138.92 303.48 140.87 C 277.12 127.39 250.81 113.83 224.35 100.57 C 216.96 99.82 209.38 100.29 201.92 100.35 C 235.21 117.20 268.59 133.88 301.87 150.75 L 300.84 151.18 C 292.23 151.61 283.61 151.20 274.99 151.37 C 271.66 151.30 268.08 151.87 265.04 150.16 C 241.30 138.07 217.51 126.08 193.80 113.94 C 188.26 111.29 182.96 108.15 177.28 105.81 C 177.25 121.07 177.30 136.33 177.26 151.59 C 173.91 151.53 170.56 151.54 167.21 151.59 C 167.23 131.39 167.02 111.18 167.31 90.99 Z" />
</g>
<g id="#3b5aa3ff">
<path fill="#3b5aa3" opacity="1.00" d=" M 37.58 0.00 L 126.78 0.00 C 126.43 15.04 126.69 30.09 126.66 45.14 C 96.91 30.20 67.32 14.96 37.58 0.00 Z" />
<path fill="#3b5aa3" opacity="1.00" d=" M 177.27 0.00 L 265.63 0.00 C 259.95 3.37 253.91 6.03 248.11 9.16 C 224.46 21.12 200.94 33.31 177.26 45.20 C 177.28 30.13 177.27 15.07 177.27 0.00 Z" />
<path fill="#3b5aa3" opacity="1.00" d=" M 236.69 49.37 C 258.91 37.86 281.34 26.73 303.54 15.18 C 303.58 26.67 303.60 38.15 303.52 49.64 C 281.24 49.43 258.95 49.97 236.69 49.37 Z" />
<path fill="#3b5aa3" opacity="1.00" d=" M 0.00 15.46 C 17.99 24.66 36.04 33.74 54.03 42.96 C 58.15 45.09 62.48 46.85 66.33 49.48 C 44.22 49.81 22.11 49.53 0.00 49.63 L 0.00 15.46 Z" />
<path fill="#3b5aa3" opacity="1.00" d=" M 0.00 100.20 C 22.85 100.54 45.72 100.12 68.57 100.41 C 64.76 102.91 60.54 104.65 56.50 106.73 C 37.77 116.54 18.71 125.73 0.00 135.57 L 0.00 100.20 Z" />
<path fill="#3b5aa3" opacity="1.00" d=" M 235.75 100.38 C 258.34 100.22 280.94 100.39 303.53 100.30 C 303.58 111.88 303.63 123.46 303.49 135.03 C 294.45 130.66 285.61 125.88 276.60 121.46 C 263.08 114.24 249.13 107.84 235.75 100.38 Z" />
<path fill="#3b5aa3" opacity="1.00" d=" M 115.17 111.38 C 118.97 109.45 122.65 107.28 126.66 105.78 C 126.59 121.00 126.64 136.23 126.62 151.45 C 129.82 151.49 133.01 151.50 136.21 151.57 C 103.51 151.60 70.81 151.72 38.11 151.51 C 37.84 151.41 37.29 151.22 37.02 151.13 C 63.19 138.13 89.05 124.50 115.17 111.38 Z" />
<path fill="#3b5aa3" opacity="1.00" d=" M 177.28 105.81 C 182.96 108.15 188.26 111.29 193.80 113.94 C 217.51 126.08 241.30 138.07 265.04 150.16 C 268.08 151.87 271.66 151.30 274.99 151.37 C 283.61 151.20 292.23 151.61 300.84 151.18 L 301.87 150.75 C 302.05 150.67 302.42 150.51 302.60 150.43 C 302.61 150.73 302.63 151.33 302.64 151.63 C 260.84 151.61 219.05 151.63 177.26 151.59 C 177.30 136.33 177.25 121.07 177.28 105.81 Z" />
</g>
<g id="#080403ff">
<path fill="#080403" opacity="1.00" d=" M 386.15 65.37 C 392.77 65.78 399.40 65.16 406.03 65.25 C 444.29 65.29 482.55 65.28 520.81 65.08 C 520.92 106.00 520.90 146.93 520.81 187.84 C 521.05 192.00 521.28 196.42 519.20 200.19 C 514.16 209.64 504.69 215.51 495.50 220.34 C 486.05 225.06 476.04 228.57 465.94 231.59 C 462.76 232.48 459.62 233.78 456.26 233.64 C 464.84 230.28 473.96 228.47 482.45 224.83 C 483.63 224.36 484.82 223.89 485.99 223.37 C 493.92 220.17 501.54 216.12 508.39 210.98 C 509.50 210.11 510.57 209.19 511.63 208.25 C 513.93 206.11 515.90 203.63 517.56 200.96 C 520.73 196.32 520.17 190.55 520.08 185.23 C 520.16 145.56 520.19 105.89 520.07 66.23 C 475.54 66.30 431.01 66.53 386.48 66.42 C 386.50 104.83 386.56 143.25 386.45 181.66 C 385.88 180.16 385.62 178.61 385.67 177.01 C 385.76 144.01 385.67 111.00 385.71 78.00 C 385.76 73.79 385.40 69.54 386.15 65.37 Z" />
<path fill="#080403" opacity="1.00" d=" M 451.11 91.34 C 452.50 91.24 453.89 91.16 455.29 91.10 C 455.99 91.11 457.37 91.14 458.06 91.15 C 459.51 91.36 461.75 90.75 462.13 92.73 C 458.45 92.48 454.75 92.38 451.09 92.85 C 451.09 92.48 451.10 91.72 451.11 91.34 Z" />
<path fill="#080403" opacity="1.00" d=" M 412.93 108.76 C 413.91 108.60 414.90 108.45 415.89 108.29 C 416.05 109.41 416.21 110.53 416.38 111.66 C 417.24 110.81 418.09 109.95 419.01 109.16 C 419.76 109.95 420.44 110.81 421.14 111.65 C 420.09 112.46 419.04 113.26 417.99 114.07 C 418.68 114.47 420.04 115.27 420.73 115.67 C 420.49 116.58 420.26 117.50 420.03 118.41 C 418.74 118.07 417.47 117.72 416.19 117.38 C 416.15 117.72 416.06 118.41 416.01 118.76 C 415.89 118.24 415.77 117.72 415.66 117.21 C 417.09 116.28 418.99 114.26 416.90 112.88 C 415.37 110.81 413.64 113.71 413.28 115.15 C 411.91 115.33 410.55 115.51 409.19 115.68 C 407.20 114.30 405.96 112.30 407.30 109.96 C 407.51 110.68 407.93 112.11 408.15 112.83 C 409.81 114.24 411.01 111.81 412.37 111.09 C 412.51 110.51 412.79 109.34 412.93 108.76 Z" />
<path fill="#080403" opacity="1.00" d=" M 492.77 110.63 C 494.08 110.33 495.23 111.12 496.40 111.57 C 497.41 111.42 498.43 111.26 499.46 111.10 C 500.27 112.96 501.10 114.82 501.97 116.66 C 500.69 116.11 499.44 115.46 498.20 114.85 C 497.87 116.23 497.59 117.61 497.24 118.98 C 497.89 116.49 497.13 114.04 496.32 111.70 C 495.00 112.43 493.74 113.24 492.53 114.12 C 492.58 112.96 492.62 111.79 492.77 110.63 Z" />
<path fill="#080403" opacity="1.00" d=" M 490.77 115.93 C 491.19 115.73 492.04 115.35 492.46 115.15 C 493.53 115.87 494.61 116.59 495.69 117.32 C 495.56 117.50 495.32 117.86 495.20 118.04 C 493.83 118.54 492.46 118.98 491.11 119.49 C 491.03 118.60 490.86 116.82 490.77 115.93 Z" />
<path fill="#080403" opacity="1.00" d=" M 435.93 117.90 C 439.86 116.25 444.19 116.41 448.35 116.71 C 449.76 117.92 451.21 119.10 452.69 120.24 C 452.43 120.33 451.90 120.52 451.64 120.61 C 448.04 114.79 440.57 116.79 435.15 118.28 L 435.93 117.90 Z" />
<path fill="#080403" opacity="1.00" d=" M 416.01 118.76 C 417.57 118.71 418.25 119.48 418.07 121.06 C 416.86 120.75 416.17 119.98 416.01 118.76 Z" />
<path fill="#080403" opacity="1.00" d=" M 492.07 138.82 C 493.32 137.02 494.50 134.60 496.91 134.25 C 499.75 133.73 503.91 133.41 505.09 136.76 C 503.54 135.63 502.11 133.89 499.98 134.22 C 496.53 133.76 494.09 136.46 492.07 138.82 Z" />
<path fill="#080403" opacity="1.00" d=" M 507.74 158.33 C 507.60 156.56 507.46 154.80 507.33 153.04 C 508.05 155.80 509.14 158.86 506.41 160.89 C 506.42 161.68 506.45 163.27 506.46 164.06 C 506.10 162.92 505.74 161.77 505.38 160.63 C 506.16 159.86 506.95 159.09 507.74 158.33 Z" />
<path fill="#080403" opacity="1.00" d=" M 456.04 171.05 L 456.74 170.74 C 457.05 171.02 457.66 171.57 457.97 171.85 L 457.30 172.28 C 456.99 171.97 456.36 171.36 456.04 171.05 Z" />
<path fill="#080403" opacity="1.00" d=" M 487.38 173.13 C 490.51 174.29 489.94 177.94 489.06 180.48 C 488.51 180.03 487.94 179.64 487.35 179.29 C 486.79 180.24 486.13 181.12 485.44 181.98 C 485.79 180.67 486.16 179.37 486.53 178.07 C 485.92 176.85 485.60 175.52 485.33 174.21 C 486.17 175.86 486.94 177.52 487.85 179.15 C 488.65 177.98 489.10 176.64 489.51 175.29 C 488.98 174.75 487.91 173.67 487.38 173.13 Z" />
<path fill="#080403" opacity="1.00" d=" M 386.23 184.02 L 386.43 183.38 C 386.66 189.28 385.47 195.93 389.28 200.99 C 391.77 202.17 394.73 201.25 397.40 201.74 C 398.50 202.49 399.31 203.58 400.23 204.54 C 397.24 202.51 393.65 201.96 390.11 201.82 C 394.38 208.83 401.64 213.29 408.57 217.34 C 421.66 224.38 435.80 229.18 450.10 233.07 C 452.10 233.60 454.18 233.69 456.24 233.64 C 454.24 235.60 451.29 234.45 448.95 233.91 C 434.08 229.78 419.30 224.82 405.86 217.12 C 399.51 213.35 393.53 208.75 389.06 202.81 C 385.06 197.50 384.87 190.25 386.23 184.02 Z" />
<path fill="#080403" opacity="1.00" d=" M 436.85 185.06 L 437.47 185.24 C 437.47 185.86 437.47 187.11 437.47 187.73 L 436.85 187.93 C 436.85 187.21 436.85 185.77 436.85 185.06 Z" />
<path fill="#080403" opacity="1.00" d=" M 472.58 193.82 C 472.78 192.39 473.60 191.69 475.05 191.72 C 474.87 192.12 474.50 192.92 474.31 193.33 C 473.88 193.45 473.01 193.70 472.58 193.82 Z" />
<path fill="#080403" opacity="1.00" d=" M 502.51 193.09 C 502.91 193.59 503.29 194.10 503.67 194.63 C 504.66 196.26 505.12 198.11 505.51 199.96 C 504.86 199.73 503.57 199.27 502.92 199.04 C 504.05 200.87 505.15 202.98 504.04 205.11 C 503.66 204.77 502.88 204.11 502.50 203.77 C 500.89 201.90 498.22 201.78 496.24 203.12 C 495.51 205.74 495.16 208.57 493.25 210.67 C 492.63 208.71 492.06 206.74 491.51 204.77 C 494.52 203.48 497.70 202.35 500.33 200.33 C 501.58 199.43 502.96 196.42 500.43 196.19 C 497.38 195.17 494.17 194.91 491.03 194.31 C 494.88 194.44 498.62 195.41 502.45 195.67 C 502.47 195.02 502.50 193.73 502.51 193.09 Z" />
<path fill="#080403" opacity="1.00" d=" M 411.72 194.75 C 414.23 194.80 416.74 194.85 419.25 194.98 C 415.39 195.34 411.02 194.69 408.09 197.81 C 409.37 199.22 410.03 201.50 412.03 202.08 C 414.48 201.66 415.79 199.20 417.58 197.70 C 418.31 197.55 419.05 197.42 419.79 197.28 C 417.60 198.78 413.84 199.92 414.34 203.22 C 415.93 204.06 418.28 205.66 419.91 204.04 C 420.28 202.93 420.65 201.83 421.00 200.73 C 421.24 200.51 421.73 200.08 421.97 199.87 C 420.22 203.61 418.14 207.24 417.38 211.36 C 414.60 209.33 414.14 205.96 414.03 202.75 C 410.88 202.35 408.20 204.04 405.56 205.46 C 405.87 203.37 406.28 201.29 406.79 199.23 C 406.16 199.58 404.91 200.28 404.28 200.63 C 404.51 198.37 405.39 196.30 406.78 194.53 C 407.35 195.08 408.50 196.20 409.07 196.75 C 409.95 196.08 410.83 195.42 411.72 194.75 Z" />
<path fill="#080403" opacity="1.00" d=" M 453.34 195.15 C 456.79 192.82 460.30 197.44 464.02 196.60 C 463.14 196.73 462.27 196.83 461.40 196.94 C 460.06 197.10 458.80 197.60 457.60 198.17 C 456.76 197.92 455.94 197.68 455.12 197.43 L 458.12 197.47 C 457.40 195.37 454.64 196.31 453.34 195.15 Z" />
<path fill="#080403" opacity="1.00" d=" M 440.25 197.18 C 442.25 197.79 444.34 198.06 446.34 198.69 C 446.23 200.59 445.87 202.45 445.70 204.34 L 445.42 203.93 C 445.12 202.36 445.26 200.69 444.62 199.21 C 444.06 199.19 442.94 199.15 442.38 199.13 C 441.99 200.20 443.08 200.79 443.66 201.54 C 440.63 200.16 437.27 200.30 434.02 200.18 C 436.57 199.85 439.15 199.88 441.71 199.92 C 441.25 198.98 440.76 198.07 440.25 197.18 Z" />
<path fill="#080403" opacity="1.00" d=" M 447.06 196.83 L 447.52 196.99 C 450.98 197.68 450.43 201.18 450.51 203.87 C 453.54 203.52 457.41 204.77 459.89 202.78 L 460.17 202.25 C 460.31 202.47 460.59 202.89 460.73 203.10 C 461.66 203.79 462.66 204.35 463.74 204.78 C 463.98 204.38 464.44 203.57 464.68 203.16 C 464.55 203.64 464.29 204.61 464.17 205.09 C 458.07 203.44 451.79 205.14 445.70 204.34 C 447.19 204.21 448.68 204.07 450.18 203.93 C 450.54 201.08 450.04 197.99 447.06 196.83 Z" />
<path fill="#080403" opacity="1.00" d=" M 477.43 198.16 C 478.83 197.89 480.23 197.63 481.64 197.36 C 481.42 199.24 481.20 201.12 480.98 203.01 C 482.49 202.83 484.01 202.67 485.54 202.51 C 485.49 201.02 485.45 199.54 485.43 198.06 C 485.90 198.21 486.85 198.51 487.33 198.66 C 487.48 198.96 487.78 199.57 487.93 199.87 C 487.44 199.55 486.46 198.92 485.96 198.61 C 485.63 201.90 486.31 206.25 483.00 208.28 C 480.15 205.84 480.55 201.78 480.89 198.43 C 479.73 198.35 478.58 198.29 477.43 198.16 Z" />
<path fill="#080403" opacity="1.00" d=" M 423.53 198.66 C 423.78 198.50 424.27 198.17 424.51 198.01 C 424.50 199.84 424.46 201.68 424.43 203.52 C 426.02 203.15 427.64 202.80 429.25 202.44 C 428.91 201.16 428.57 199.89 428.29 198.60 L 428.95 198.36 C 429.25 200.56 429.90 202.88 428.97 205.02 C 428.39 206.27 428.10 208.52 426.21 207.77 C 424.02 205.26 424.07 201.76 423.53 198.66 Z" />
</g>
<g id="#bb0127ff">
<path fill="#bb0127" opacity="1.00" d=" M 447.02 72.37 C 452.44 71.41 458.14 70.85 463.56 72.09 C 463.84 72.58 464.39 73.54 464.67 74.03 C 466.53 73.56 468.40 73.15 470.29 72.77 C 470.45 75.45 471.34 78.33 469.86 80.81 C 468.83 82.75 469.49 84.98 469.62 87.05 C 472.83 89.63 474.46 93.53 476.34 97.09 C 477.41 99.33 475.54 101.42 474.65 103.35 C 476.83 106.48 479.35 109.59 479.63 113.58 C 482.16 114.18 484.69 114.80 487.20 115.50 C 488.20 114.75 489.21 114.01 490.21 113.25 C 490.38 111.37 489.49 108.41 492.00 107.73 C 494.87 107.38 497.80 107.11 500.70 107.38 C 502.84 109.47 505.27 112.93 503.74 115.98 C 503.30 116.15 502.42 116.49 501.97 116.66 C 501.10 114.82 500.27 112.96 499.46 111.10 C 498.43 111.26 497.41 111.42 496.40 111.57 C 495.23 111.12 494.08 110.33 492.77 110.63 C 492.62 111.79 492.58 112.96 492.53 114.12 L 492.46 115.15 C 492.04 115.35 491.19 115.73 490.77 115.93 C 490.86 116.82 491.03 118.60 491.11 119.49 C 490.26 120.42 489.41 121.35 488.59 122.29 C 483.21 121.92 478.10 120.07 473.27 117.77 C 469.67 115.83 465.45 116.61 461.55 116.63 C 460.55 117.61 459.56 118.59 458.57 119.58 C 457.09 119.61 455.61 119.62 454.14 119.73 L 452.69 120.24 C 451.21 119.10 449.76 117.92 448.35 116.71 C 444.19 116.41 439.86 116.25 435.93 117.90 L 435.15 118.28 C 430.03 120.93 423.73 123.73 418.07 121.06 C 418.25 119.48 417.57 118.71 416.01 118.76 C 416.06 118.41 416.15 117.72 416.19 117.38 C 417.47 117.72 418.74 118.07 420.03 118.41 C 420.26 117.50 420.49 116.58 420.73 115.67 C 420.04 115.27 418.68 114.47 417.99 114.07 C 419.04 113.26 420.09 112.46 421.14 111.65 C 420.44 110.81 419.76 109.95 419.01 109.16 C 418.09 109.95 417.24 110.81 416.38 111.66 C 416.21 110.53 416.05 109.41 415.89 108.29 C 414.90 108.45 413.91 108.60 412.93 108.76 C 412.79 109.34 412.51 110.51 412.37 111.09 C 411.01 111.81 409.81 114.24 408.15 112.83 C 407.93 112.11 407.51 110.68 407.30 109.96 C 409.47 108.13 411.58 106.19 414.00 104.69 C 416.82 104.84 419.61 105.73 422.14 106.96 C 423.21 108.47 422.57 110.45 422.71 112.16 C 425.49 112.49 428.26 112.96 431.03 113.37 C 431.38 110.10 432.99 107.16 435.42 104.97 C 435.82 104.75 436.61 104.31 437.01 104.08 C 437.26 103.74 437.75 103.04 438.00 102.70 C 436.76 102.77 435.47 103.05 434.29 102.52 C 435.25 100.68 436.62 99.02 437.29 97.02 C 437.79 94.99 436.31 93.37 435.41 91.73 C 437.49 89.62 439.94 87.91 441.96 85.74 C 442.53 83.90 442.58 81.95 442.89 80.06 C 442.58 79.57 441.96 78.58 441.65 78.09 C 441.73 76.11 441.82 74.12 441.93 72.14 C 443.62 72.21 445.31 72.29 447.02 72.37 M 444.20 74.48 C 443.23 75.67 443.43 76.35 444.80 76.50 C 445.77 75.30 445.57 74.63 444.20 74.48 M 450.24 78.38 C 450.54 79.46 449.38 81.83 451.16 81.86 C 453.29 82.65 452.63 79.54 452.87 78.37 C 452.21 78.37 450.90 78.38 450.24 78.38 M 459.39 78.35 C 459.38 79.50 459.37 80.65 459.37 81.81 C 460.48 81.79 461.60 81.77 462.72 81.75 C 462.58 80.72 462.45 79.69 462.32 78.66 C 461.33 78.56 460.36 78.45 459.39 78.35 M 448.28 81.72 C 448.39 82.24 448.62 83.27 448.74 83.79 C 448.34 84.02 447.53 84.48 447.13 84.71 C 448.03 85.31 448.93 85.90 449.84 86.49 C 448.75 86.76 447.66 87.04 446.58 87.32 C 448.67 88.95 451.43 88.98 453.88 89.65 C 454.24 90.01 454.94 90.74 455.29 91.10 C 453.89 91.16 452.50 91.24 451.11 91.34 C 451.10 91.72 451.09 92.48 451.09 92.85 C 454.75 92.38 458.45 92.48 462.13 92.73 C 461.75 90.75 459.51 91.36 458.06 91.15 C 458.48 89.91 458.80 88.64 458.99 87.35 C 457.20 87.36 455.40 87.38 453.62 87.38 C 453.55 86.69 453.49 86.00 453.46 85.31 C 451.87 83.92 450.35 82.33 448.28 81.72 M 459.56 85.80 C 460.16 86.74 460.76 87.68 461.37 88.63 C 463.32 88.41 465.26 88.07 467.18 87.62 C 465.81 87.32 464.44 87.03 463.08 86.75 C 463.82 85.98 464.56 85.20 465.31 84.43 C 464.70 83.97 463.49 83.05 462.88 82.58 C 461.77 83.66 460.66 84.73 459.56 85.80 Z" />
</g>
<g id="#801c27ff">
<path fill="#801c27" opacity="1.00" d=" M 444.20 74.48 C 445.57 74.63 445.77 75.30 444.80 76.50 C 443.43 76.35 443.23 75.67 444.20 74.48 Z" />
</g>
<g id="#2c2116ff">
<path fill="#2c2116" opacity="1.00" d=" M 450.24 78.38 C 450.90 78.38 452.21 78.37 452.87 78.37 C 452.63 79.54 453.29 82.65 451.16 81.86 C 449.38 81.83 450.54 79.46 450.24 78.38 M 451.23 79.22 C 451.69 79.77 451.69 79.77 451.23 79.22 Z" />
<path fill="#2c2116" opacity="1.00" d=" M 459.39 78.35 C 460.36 78.45 461.33 78.56 462.32 78.66 C 462.45 79.69 462.58 80.72 462.72 81.75 C 461.60 81.77 460.48 81.79 459.37 81.81 C 459.37 80.65 459.38 79.50 459.39 78.35 Z" />
<path fill="#2c2116" opacity="1.00" d=" M 461.55 116.63 C 465.45 116.61 469.67 115.83 473.27 117.77 C 468.30 116.78 462.33 115.54 458.60 119.97 C 458.63 121.68 458.66 123.39 458.69 125.10 C 459.52 125.20 461.18 125.40 462.01 125.49 C 459.26 125.74 456.73 124.42 454.05 124.15 C 451.53 124.76 449.14 125.80 446.59 126.26 C 446.09 127.24 445.65 128.25 445.25 129.27 C 445.04 127.56 445.27 125.82 446.23 124.36 C 446.93 124.52 448.34 124.85 449.04 125.02 C 450.64 124.98 451.48 123.56 452.45 122.51 C 452.45 122.82 452.44 123.42 452.44 123.73 C 454.47 123.65 456.51 123.59 458.56 123.53 C 459.00 120.49 456.43 120.10 454.14 119.73 C 455.61 119.62 457.09 119.61 458.57 119.58 C 459.56 118.59 460.55 117.61 461.55 116.63 Z" />
<path fill="#2c2116" opacity="1.00" d=" M 512.29 148.97 C 512.59 149.45 513.18 150.43 513.48 150.91 C 512.72 152.17 512.54 153.54 512.96 155.00 C 512.84 155.58 512.60 156.74 512.48 157.32 C 512.71 154.54 512.81 151.72 512.29 148.97 Z" />
<path fill="#2c2116" opacity="1.00" d=" M 452.64 174.01 C 454.26 174.28 455.88 174.63 457.40 175.27 C 456.89 175.29 455.87 175.33 455.35 175.35 C 453.84 176.63 452.33 177.93 450.83 179.23 C 450.49 178.83 449.82 178.03 449.49 177.62 C 449.90 177.16 450.31 176.70 450.73 176.25 C 451.21 175.69 452.16 174.57 452.64 174.01 Z" />
</g>
<g id="#544d4fff">
<path fill="#544d4f" opacity="1.00" d=" M 451.23 79.22 C 451.69 79.77 451.69 79.77 451.23 79.22 Z" />
</g>
<g id="#99031fff">
<path fill="#99031f" opacity="1.00" d=" M 448.28 81.72 C 450.35 82.33 451.87 83.92 453.46 85.31 C 453.49 86.00 453.55 86.69 453.62 87.38 C 453.68 87.95 453.82 89.08 453.88 89.65 C 451.43 88.98 448.67 88.95 446.58 87.32 C 447.66 87.04 448.75 86.76 449.84 86.49 C 448.93 85.90 448.03 85.31 447.13 84.71 C 447.53 84.48 448.34 84.02 448.74 83.79 C 448.62 83.27 448.39 82.24 448.28 81.72 Z" />
</g>
<g id="#94021dff">
<path fill="#94021d" opacity="1.00" d=" M 459.56 85.80 C 460.66 84.73 461.77 83.66 462.88 82.58 C 463.49 83.05 464.70 83.97 465.31 84.43 C 464.56 85.20 463.82 85.98 463.08 86.75 C 464.44 87.03 465.81 87.32 467.18 87.62 C 465.26 88.07 463.32 88.41 461.37 88.63 C 460.76 87.68 460.16 86.74 459.56 85.80 Z" />
</g>
<g id="#721f26ff">
<path fill="#721f26" opacity="1.00" d=" M 453.62 87.38 C 455.40 87.38 457.20 87.36 458.99 87.35 C 458.80 88.64 458.48 89.91 458.06 91.15 C 457.37 91.14 455.99 91.11 455.29 91.10 C 454.94 90.74 454.24 90.01 453.88 89.65 C 453.82 89.08 453.68 87.95 453.62 87.38 Z" />
</g>
<g id="#4a3c27ff">
<path fill="#4a3c27" opacity="1.00" d=" M 435.42 104.97 C 434.99 104.17 434.60 103.37 434.29 102.52 C 435.47 103.05 436.76 102.77 438.00 102.70 C 437.75 103.04 437.26 103.74 437.01 104.08 C 436.61 104.31 435.82 104.75 435.42 104.97 Z" />
<path fill="#4a3c27" opacity="1.00" d=" M 446.81 152.90 C 448.83 152.48 450.86 152.08 452.87 151.60 C 453.54 153.09 454.24 154.57 454.94 156.05 C 454.31 156.65 453.69 157.25 453.07 157.85 C 453.79 157.98 455.23 158.23 455.95 158.36 C 452.40 159.83 448.68 161.09 445.64 163.50 C 447.77 162.98 449.88 162.35 451.97 161.64 C 451.46 162.72 450.98 163.82 450.48 164.91 C 450.81 164.93 451.45 164.98 451.77 165.00 C 451.62 165.97 451.49 166.94 451.38 167.92 C 451.77 168.02 452.54 168.24 452.93 168.35 C 454.94 168.91 456.96 169.54 458.83 170.50 C 458.62 170.84 458.18 171.51 457.97 171.85 C 457.66 171.57 457.05 171.02 456.74 170.74 L 456.04 171.05 C 454.69 171.64 453.36 172.27 452.05 172.96 C 451.06 172.04 450.12 171.00 448.85 170.49 C 446.99 170.47 445.86 172.28 444.47 173.23 C 441.81 172.39 440.92 169.83 440.57 167.32 C 442.35 166.79 444.36 166.37 445.29 164.55 C 444.01 163.80 440.98 163.25 443.67 161.85 C 443.56 160.66 443.45 159.48 443.33 158.30 C 444.10 157.27 444.92 156.26 445.58 155.15 C 445.89 154.58 446.50 153.46 446.81 152.90 Z" />
<path fill="#4a3c27" opacity="1.00" d=" M 481.89 157.02 L 482.38 157.41 C 482.42 159.10 482.38 160.79 482.36 162.49 C 485.61 164.25 489.27 165.12 492.98 164.67 C 493.24 167.28 495.89 166.37 497.65 166.56 C 497.20 171.58 496.38 176.96 492.88 180.86 C 490.50 184.07 486.53 185.09 482.79 185.65 C 482.36 184.30 482.71 182.34 480.98 181.91 C 479.18 181.48 478.32 183.26 477.22 184.29 C 475.97 184.85 473.34 183.92 473.45 186.02 C 473.04 188.03 475.33 188.40 476.64 189.06 C 476.28 189.64 475.92 190.22 475.58 190.82 C 474.84 189.48 473.98 188.22 473.13 186.96 C 473.05 186.44 472.88 185.40 472.80 184.88 C 476.12 183.88 478.79 181.17 482.38 181.07 C 482.62 182.41 482.86 183.75 483.11 185.10 C 489.38 184.76 494.41 179.65 495.99 173.80 C 496.58 171.70 496.90 169.54 497.25 167.39 C 496.06 167.36 494.87 167.33 493.69 167.31 C 493.33 166.85 492.61 165.94 492.25 165.48 C 488.29 165.65 484.76 163.66 480.92 163.18 L 481.40 162.80 L 482.13 162.88 C 482.05 160.92 481.97 158.97 481.89 157.02 Z" />
<path fill="#4a3c27" opacity="1.00" d=" M 480.35 187.71 C 482.51 187.68 484.66 187.67 486.82 187.56 C 486.86 187.84 486.93 188.38 486.97 188.65 C 488.51 189.57 490.07 190.47 491.60 191.41 C 494.46 191.34 497.37 191.17 500.19 191.84 C 497.17 192.01 494.18 192.32 491.18 192.58 C 488.73 191.11 486.26 189.70 483.88 188.15 C 481.89 188.46 480.25 189.49 479.06 191.09 C 478.80 191.36 478.29 191.91 478.03 192.18 C 478.87 190.72 479.60 189.21 480.35 187.71 Z" />
</g>
<g id="#eed563ff">
<path fill="#eed563" opacity="1.00" d=" M 413.28 115.15 C 413.64 113.71 415.37 110.81 416.90 112.88 C 418.99 114.26 417.09 116.28 415.66 117.21 C 415.77 117.72 415.89 118.24 416.01 118.76 C 416.17 119.98 416.86 120.75 418.07 121.06 C 423.73 123.73 430.03 120.93 435.15 118.28 C 440.57 116.79 448.04 114.79 451.64 120.61 C 451.90 120.52 452.43 120.33 452.69 120.24 L 454.14 119.73 C 456.43 120.10 459.00 120.49 458.56 123.53 C 456.51 123.59 454.47 123.65 452.44 123.73 C 452.44 123.42 452.45 122.82 452.45 122.51 C 451.48 123.56 450.64 124.98 449.04 125.02 C 448.34 124.85 446.93 124.52 446.23 124.36 C 447.17 122.87 448.18 121.44 449.18 120.00 C 443.19 116.93 436.61 119.84 430.83 121.95 C 425.85 123.88 419.35 124.92 415.08 120.93 C 413.30 119.57 413.58 117.11 413.28 115.15 Z" />
<path fill="#eed563" opacity="1.00" d=" M 492.53 114.12 C 493.74 113.24 495.00 112.43 496.32 111.70 C 497.13 114.04 497.89 116.49 497.24 118.98 C 495.23 121.92 491.62 123.77 488.05 123.61 C 480.37 123.69 473.73 118.56 466.02 118.73 C 464.21 118.85 461.84 119.02 460.98 120.91 C 461.77 121.75 462.59 122.56 463.44 123.34 C 463.08 123.88 462.37 124.96 462.01 125.49 C 461.18 125.40 459.52 125.20 458.69 125.10 C 458.66 123.39 458.63 121.68 458.60 119.97 C 462.33 115.54 468.30 116.78 473.27 117.77 C 478.10 120.07 483.21 121.92 488.59 122.29 C 491.31 121.86 494.09 120.80 495.20 118.04 C 495.32 117.86 495.56 117.50 495.69 117.32 C 494.61 116.59 493.53 115.87 492.46 115.15 L 492.53 114.12 Z" />
<path fill="#eed563" opacity="1.00" d=" M 407.12 135.02 C 409.20 133.65 411.83 134.42 414.07 134.96 C 417.01 137.64 420.13 140.81 420.45 145.01 C 420.73 148.32 421.10 151.64 421.11 154.96 C 420.67 160.20 416.69 163.90 413.03 167.20 C 412.19 171.09 413.68 175.25 415.84 178.52 L 416.04 179.09 C 416.30 180.60 417.51 181.58 418.83 182.20 C 419.34 182.50 420.35 183.10 420.85 183.39 C 421.91 183.97 423.00 184.45 424.11 184.95 C 424.90 186.11 426.64 186.93 427.80 185.71 L 427.81 185.02 C 427.84 184.21 427.89 182.59 427.92 181.78 C 430.12 181.34 432.04 182.01 433.38 183.83 C 434.52 184.25 435.68 184.67 436.85 185.06 C 436.85 185.77 436.85 187.21 436.85 187.93 C 436.11 188.19 434.63 188.73 433.89 188.99 C 435.13 192.30 437.92 194.71 441.44 195.26 C 443.30 195.79 445.20 196.24 447.06 196.83 C 450.04 197.99 450.54 201.08 450.18 203.93 C 448.68 204.07 447.19 204.21 445.70 204.34 C 445.87 202.45 446.23 200.59 446.34 198.69 C 444.34 198.06 442.25 197.79 440.25 197.18 C 439.29 196.81 438.35 196.43 437.42 196.04 C 433.96 194.68 431.73 191.67 430.40 188.32 C 428.57 188.11 426.74 187.92 424.91 187.70 C 420.44 187.27 416.77 184.38 414.10 180.95 C 413.95 180.78 413.66 180.43 413.51 180.26 C 413.26 179.69 412.76 178.54 412.50 177.97 C 412.32 177.30 412.15 176.62 411.99 175.95 C 411.13 172.40 410.59 168.77 410.56 165.12 C 412.66 164.08 414.66 162.78 416.06 160.86 C 419.21 156.34 419.17 150.61 417.82 145.47 C 417.16 142.46 415.63 139.75 413.59 137.46 C 412.58 137.44 411.59 137.44 410.60 137.45 C 410.00 138.33 409.38 139.18 408.73 140.01 C 408.11 139.98 406.89 139.92 406.28 139.90 C 404.47 138.55 405.69 136.12 407.12 135.02 Z" />
<path fill="#eed563" opacity="1.00" d=" M 492.07 138.82 C 494.09 136.46 496.53 133.76 499.98 134.22 C 502.11 133.89 503.54 135.63 505.09 136.76 C 504.90 138.15 504.71 139.53 504.50 140.92 C 503.59 140.83 501.76 140.65 500.85 140.55 C 500.58 139.05 500.32 137.55 500.09 136.04 C 497.17 137.02 494.91 139.24 494.12 142.25 C 493.88 142.82 493.42 143.97 493.19 144.54 C 495.69 145.18 498.29 145.87 500.89 145.33 C 498.15 145.94 495.34 145.43 492.58 145.27 C 491.54 150.20 491.09 155.67 493.83 160.17 C 494.98 162.70 497.68 163.71 499.80 165.23 C 499.95 168.15 499.35 171.05 498.84 173.92 C 497.89 180.36 493.03 185.72 486.82 187.56 C 484.66 187.67 482.51 187.68 480.35 187.71 C 479.60 189.21 478.87 190.72 478.03 192.18 C 476.58 193.75 474.75 194.90 472.92 195.96 C 469.98 197.05 466.87 197.66 464.01 198.95 C 464.19 200.36 464.53 201.74 464.68 203.16 C 464.44 203.57 463.98 204.38 463.74 204.78 C 462.66 204.35 461.66 203.79 460.73 203.10 C 460.59 202.89 460.31 202.47 460.17 202.25 C 460.43 200.45 460.86 198.68 461.40 196.94 C 462.27 196.83 463.14 196.73 464.02 196.60 L 464.66 196.46 C 467.08 195.87 469.46 195.09 471.77 194.14 C 471.97 194.06 472.38 193.90 472.58 193.82 C 473.01 193.70 473.88 193.45 474.31 193.33 C 474.50 192.92 474.87 192.12 475.05 191.72 L 475.58 190.82 C 475.92 190.22 476.28 189.64 476.64 189.06 C 475.33 188.40 473.04 188.03 473.45 186.02 C 473.34 183.92 475.97 184.85 477.22 184.29 C 478.32 183.26 479.18 181.48 480.98 181.91 C 482.71 182.34 482.36 184.30 482.79 185.65 C 486.53 185.09 490.50 184.07 492.88 180.86 C 496.38 176.96 497.20 171.58 497.65 166.56 C 495.89 166.37 493.24 167.28 492.98 164.67 C 493.39 164.73 494.22 164.85 494.64 164.91 C 490.89 161.74 488.91 156.93 488.50 152.12 C 488.85 147.54 489.77 142.84 492.07 138.82 Z" />
</g>
<g id="#3a1878ff">
<path fill="#3a1878" opacity="1.00" d=" M 409.19 115.68 C 410.55 115.51 411.91 115.33 413.28 115.15 C 413.58 117.11 413.30 119.57 415.08 120.93 C 419.35 124.92 425.85 123.88 430.83 121.95 C 436.61 119.84 443.19 116.93 449.18 120.00 C 448.18 121.44 447.17 122.87 446.23 124.36 C 445.27 125.82 445.04 127.56 445.25 129.27 C 445.29 129.98 445.34 130.68 445.41 131.39 C 445.85 131.67 446.73 132.24 447.17 132.52 C 447.05 135.68 447.39 139.05 445.73 141.91 C 444.05 138.71 442.80 135.30 441.00 132.17 C 440.73 131.70 440.18 130.75 439.91 130.28 C 438.17 129.11 436.48 127.89 434.81 126.64 C 433.91 126.97 433.01 127.30 432.12 127.64 C 431.62 127.48 430.62 127.17 430.13 127.01 C 429.61 127.30 428.58 127.88 428.07 128.18 C 427.06 127.75 426.06 127.32 425.07 126.90 C 424.67 128.37 424.28 129.84 423.90 131.32 C 421.71 131.00 419.53 130.68 417.34 130.35 C 416.93 132.05 416.51 133.75 416.06 135.44 C 415.56 135.32 414.57 135.08 414.07 134.96 C 411.83 134.42 409.20 133.65 407.12 135.02 C 405.69 136.12 404.47 138.55 406.28 139.90 C 406.89 139.92 408.11 139.98 408.73 140.01 C 409.38 139.18 410.00 138.33 410.60 137.45 C 411.59 137.44 412.58 137.44 413.59 137.46 C 415.63 139.75 417.16 142.46 417.82 145.47 C 416.70 145.80 415.58 146.12 414.45 146.43 C 413.39 146.46 412.33 146.46 411.28 146.37 C 413.21 146.08 415.11 145.60 417.03 145.19 C 416.59 142.34 414.77 137.18 411.22 138.19 C 410.08 140.35 408.17 141.71 405.68 141.57 C 404.97 139.06 403.59 136.65 403.54 134.01 C 403.74 131.30 406.32 129.99 408.46 128.93 C 408.52 127.78 408.58 126.63 408.64 125.48 C 407.85 123.81 406.38 122.17 406.79 120.19 C 407.21 118.52 408.23 117.08 409.19 115.68 Z" />
<path fill="#3a1878" opacity="1.00" d=" M 498.20 114.85 C 499.44 115.46 500.69 116.11 501.97 116.66 C 502.42 116.49 503.30 116.15 503.74 115.98 C 503.12 119.23 503.83 122.82 501.02 125.27 C 501.58 128.30 504.20 129.70 506.37 131.48 C 508.44 134.79 506.07 138.45 504.37 141.33 C 503.24 141.27 502.12 141.23 501.01 141.18 C 500.52 139.91 500.58 138.13 498.97 137.76 C 496.22 137.21 495.46 140.54 494.12 142.25 C 494.91 139.24 497.17 137.02 500.09 136.04 C 500.32 137.55 500.58 139.05 500.85 140.55 C 501.76 140.65 503.59 140.83 504.50 140.92 C 504.71 139.53 504.90 138.15 505.09 136.76 C 503.91 133.41 499.75 133.73 496.91 134.25 C 494.50 134.60 493.32 137.02 492.07 138.82 C 489.77 142.84 488.85 147.54 488.50 152.12 C 488.91 156.93 490.89 161.74 494.64 164.91 C 494.22 164.85 493.39 164.73 492.98 164.67 C 490.22 161.00 489.30 156.42 487.01 152.52 C 488.15 150.52 489.18 148.26 488.71 145.90 C 488.00 144.42 486.39 144.56 485.03 144.48 C 480.91 144.78 477.83 140.94 473.65 141.59 C 472.53 142.40 471.45 143.25 470.31 144.02 C 469.22 143.12 468.17 142.18 467.00 141.39 C 465.84 142.13 464.85 143.09 463.86 144.01 C 458.43 140.70 454.57 135.59 449.64 131.70 C 449.95 130.78 450.28 129.87 450.61 128.95 C 449.27 128.04 447.94 127.14 446.59 126.26 C 449.14 125.80 451.53 124.76 454.05 124.15 C 456.73 124.42 459.26 125.74 462.01 125.49 C 462.37 124.96 463.08 123.88 463.44 123.34 C 462.59 122.56 461.77 121.75 460.98 120.91 C 461.84 119.02 464.21 118.85 466.02 118.73 C 473.73 118.56 480.37 123.69 488.05 123.61 C 491.62 123.77 495.23 121.92 497.24 118.98 C 497.59 117.61 497.87 116.23 498.20 114.85 Z" />
</g>
<g id="#a5011bff">
<path fill="#a5011b" opacity="1.00" d=" M 491.11 119.49 C 492.46 118.98 493.83 118.54 495.20 118.04 C 494.09 120.80 491.31 121.86 488.59 122.29 C 489.41 121.35 490.26 120.42 491.11 119.49 Z" />
<path fill="#a5011b" opacity="1.00" d=" M 397.74 159.44 C 397.44 155.65 396.35 151.37 398.75 148.03 C 399.74 150.43 400.14 152.99 400.31 155.57 C 400.72 155.43 401.54 155.16 401.95 155.02 C 402.08 155.51 402.33 156.49 402.45 156.99 C 402.54 155.48 402.61 153.97 402.83 152.48 C 404.77 153.40 403.91 156.11 404.43 157.85 C 404.76 156.87 405.09 155.89 405.43 154.92 C 405.95 157.44 407.03 159.79 408.99 161.53 C 408.40 162.36 407.81 163.19 407.23 164.02 C 407.05 163.59 406.67 162.73 406.49 162.30 C 405.88 163.14 405.29 163.99 404.70 164.84 C 403.73 161.58 400.84 160.15 397.74 159.44 Z" />
</g>
<g id="#7a694dff">
<path fill="#7a694d" opacity="1.00" d=" M 445.25 129.27 C 445.65 128.25 446.09 127.24 446.59 126.26 C 447.94 127.14 449.27 128.04 450.61 128.95 C 450.28 129.87 449.95 130.78 449.64 131.70 C 449.22 131.60 448.40 131.39 447.99 131.28 C 448.00 131.74 448.01 132.65 448.01 133.11 L 447.17 132.52 C 446.73 132.24 445.85 131.67 445.41 131.39 C 445.34 130.68 445.29 129.98 445.25 129.27 Z" />
<path fill="#7a694d" opacity="1.00" d=" M 463.85 145.61 C 465.25 145.50 466.65 145.38 468.05 145.23 C 467.99 145.86 467.85 147.12 467.79 147.74 C 467.15 148.46 466.51 149.18 465.88 149.89 C 466.49 149.92 467.69 149.99 468.30 150.02 C 467.44 151.07 466.65 152.17 465.86 153.26 C 467.33 153.01 468.80 152.76 470.28 152.50 C 469.20 153.25 468.11 154.01 467.04 154.76 C 468.58 155.23 470.16 155.65 471.66 156.28 C 471.56 157.26 471.42 158.22 471.23 159.19 C 470.47 160.40 469.86 161.87 468.49 162.51 C 464.68 164.67 460.57 166.33 456.23 167.04 C 456.29 166.12 456.36 165.19 456.42 164.27 C 457.00 164.03 457.59 163.80 458.18 163.57 C 459.28 164.54 460.53 165.29 461.95 164.43 C 462.16 163.80 462.58 162.53 462.78 161.90 C 464.34 160.81 465.93 159.76 467.52 158.72 C 466.74 157.74 465.95 156.77 465.18 155.80 C 465.35 155.41 465.70 154.64 465.88 154.26 C 465.13 154.18 463.64 154.03 462.89 153.96 C 463.48 153.41 464.07 152.87 464.67 152.32 C 463.97 152.19 462.58 151.92 461.88 151.78 C 462.82 150.94 463.76 150.11 464.71 149.27 C 464.19 148.83 463.16 147.94 462.64 147.50 C 462.95 147.03 463.55 146.08 463.85 145.61 Z" />
<path fill="#7a694d" opacity="1.00" d=" M 470.92 161.01 C 471.79 161.45 472.66 161.88 473.53 162.31 C 473.42 162.91 473.18 164.11 473.07 164.71 C 474.52 163.67 475.99 162.63 477.46 161.60 C 478.76 162.02 480.07 162.44 481.40 162.80 L 480.92 163.18 C 478.76 164.82 477.57 167.29 476.76 169.81 C 474.51 169.45 472.25 169.09 470.02 168.62 C 470.03 168.24 470.04 167.46 470.05 167.08 C 468.45 167.97 466.86 168.88 465.27 169.79 C 464.88 168.76 464.50 167.73 464.13 166.70 C 466.27 166.03 468.41 165.34 470.54 164.63 C 470.65 163.42 470.77 162.22 470.92 161.01 Z" />
</g>
<g id="#838385ff">
<path fill="#838385" opacity="1.00" d=" M 425.07 126.90 C 426.06 127.32 427.06 127.75 428.07 128.18 C 428.58 127.88 429.61 127.30 430.13 127.01 C 429.83 128.47 429.54 129.94 429.25 131.40 C 429.01 130.90 428.51 129.89 428.27 129.38 C 427.70 129.17 426.56 128.74 425.99 128.52 C 426.04 130.88 426.11 133.23 426.23 135.58 C 430.59 137.33 431.49 142.54 435.27 144.98 C 436.56 145.78 437.87 146.53 439.16 147.34 C 439.08 147.67 438.93 148.34 438.85 148.67 C 437.54 149.20 436.21 149.68 434.89 150.17 C 434.93 147.01 432.46 144.80 430.95 142.28 C 428.99 138.82 425.26 136.82 423.63 133.12 C 422.88 131.22 420.36 132.01 418.78 131.49 C 419.39 133.90 419.88 136.34 420.23 138.80 C 421.90 139.08 423.67 139.04 425.25 139.73 C 426.98 141.54 427.85 143.96 428.86 146.21 C 426.01 144.78 423.43 142.90 420.98 140.88 C 421.45 144.19 421.53 147.55 422.19 150.83 C 423.88 152.50 426.01 153.68 427.58 155.48 C 428.91 157.00 428.53 159.16 428.76 161.02 C 427.89 157.36 425.52 154.49 422.36 152.55 C 422.25 158.24 419.27 163.10 415.61 167.22 C 415.43 167.34 415.08 167.58 414.90 167.70 L 413.96 168.35 C 414.06 171.82 414.93 175.19 415.84 178.52 C 413.68 175.25 412.19 171.09 413.03 167.20 C 416.69 163.90 420.67 160.20 421.11 154.96 C 421.10 151.64 420.73 148.32 420.45 145.01 C 420.13 140.81 417.01 137.64 414.07 134.96 C 414.57 135.08 415.56 135.32 416.06 135.44 C 416.51 133.75 416.93 132.05 417.34 130.35 C 419.53 130.68 421.71 131.00 423.90 131.32 C 424.28 129.84 424.67 128.37 425.07 126.90 Z" />
</g>
<g id="#98969dff">
<path fill="#98969d" opacity="1.00" d=" M 430.13 127.01 C 430.62 127.17 431.62 127.48 432.12 127.64 C 433.01 127.30 433.91 126.97 434.81 126.64 C 436.48 127.89 438.17 129.11 439.91 130.28 C 440.18 130.75 440.73 131.70 441.00 132.17 C 438.76 130.57 436.39 129.17 434.05 127.72 L 433.52 128.74 C 433.07 129.52 432.63 130.31 432.18 131.09 C 432.37 131.94 432.56 132.80 432.77 133.66 C 432.49 134.26 431.93 135.45 431.65 136.05 C 432.47 135.99 434.13 135.88 434.95 135.82 L 435.01 136.66 C 434.94 138.30 434.87 139.95 434.81 141.60 C 432.28 138.59 430.73 134.99 429.25 131.40 C 429.54 129.94 429.83 128.47 430.13 127.01 Z" />
</g>
<g id="#c8c7cbff">
<path fill="#c8c7cb" opacity="1.00" d=" M 434.05 127.72 C 436.39 129.17 438.76 130.57 441.00 132.17 C 442.80 135.30 444.05 138.71 445.73 141.91 C 446.22 142.94 446.68 143.99 447.11 145.06 C 446.12 145.98 445.18 146.96 444.25 147.93 C 445.36 149.07 446.48 150.22 447.60 151.36 C 447.41 151.75 447.01 152.51 446.81 152.90 C 446.50 153.46 445.89 154.58 445.58 155.15 C 445.59 153.84 445.53 152.53 445.49 151.23 L 444.59 150.76 C 444.18 149.77 443.82 148.77 443.46 147.76 C 444.19 146.59 446.22 145.80 445.72 144.18 C 444.24 142.73 443.14 145.01 441.97 145.76 C 442.82 144.61 443.67 143.46 444.38 142.21 C 442.29 139.71 439.73 137.66 437.12 135.72 C 437.33 134.96 437.54 134.20 437.76 133.44 C 436.14 132.07 434.68 130.51 433.52 128.74 L 434.05 127.72 Z" />
<path fill="#c8c7cb" opacity="1.00" d=" M 425.99 128.52 C 426.56 128.74 427.70 129.17 428.27 129.38 C 428.51 129.89 429.01 130.90 429.25 131.40 C 430.73 134.99 432.28 138.59 434.81 141.60 C 434.96 142.72 435.12 143.85 435.27 144.98 C 431.49 142.54 430.59 137.33 426.23 135.58 C 426.11 133.23 426.04 130.88 425.99 128.52 Z" />
</g>
<g id="#695b41ff">
<path fill="#695b41" opacity="1.00" d=" M 432.18 131.09 C 432.63 130.31 433.07 129.52 433.52 128.74 C 434.68 130.51 436.14 132.07 437.76 133.44 C 437.54 134.20 437.33 134.96 437.12 135.72 C 436.58 135.75 435.50 135.79 434.95 135.82 C 434.13 135.88 432.47 135.99 431.65 136.05 C 431.93 135.45 432.49 134.26 432.77 133.66 C 432.56 132.80 432.37 131.94 432.18 131.09 Z" />
<path fill="#695b41" opacity="1.00" d=" M 454.81 143.91 C 456.88 143.82 457.79 144.86 457.43 146.90 C 457.88 146.67 458.79 146.20 459.24 145.96 C 459.32 146.34 459.47 147.08 459.54 147.45 C 460.57 147.45 461.61 147.44 462.64 147.50 C 463.16 147.94 464.19 148.83 464.71 149.27 C 463.76 150.11 462.82 150.94 461.88 151.78 C 462.58 151.92 463.97 152.19 464.67 152.32 C 464.07 152.87 463.48 153.41 462.89 153.96 C 463.64 154.03 465.13 154.18 465.88 154.26 C 465.70 154.64 465.35 155.41 465.18 155.80 C 465.95 156.77 466.74 157.74 467.52 158.72 C 465.93 159.76 464.34 160.81 462.78 161.90 C 462.12 161.89 460.81 161.88 460.15 161.88 C 459.40 161.91 457.90 161.97 457.15 162.00 C 457.34 161.43 457.71 160.30 457.90 159.74 C 455.91 160.34 453.93 160.97 451.97 161.64 C 449.88 162.35 447.77 162.98 445.64 163.50 C 448.68 161.09 452.40 159.83 455.95 158.36 C 455.23 158.23 453.79 157.98 453.07 157.85 C 453.69 157.25 454.31 156.65 454.94 156.05 C 454.24 154.57 453.54 153.09 452.87 151.60 C 453.08 151.24 453.49 150.53 453.69 150.17 C 453.83 149.22 454.02 148.18 453.19 147.49 C 453.17 146.79 453.13 145.40 453.12 144.70 C 454.09 146.72 455.42 148.54 457.01 150.12 C 456.35 148.02 455.61 145.95 454.81 143.91 Z" />
</g>
<g id="#8e7e61ff">
<path fill="#8e7e61" opacity="1.00" d=" M 447.99 131.28 C 448.40 131.39 449.22 131.60 449.64 131.70 C 450.86 135.70 452.72 139.45 454.51 143.22 L 454.81 143.91 C 455.61 145.95 456.35 148.02 457.01 150.12 C 455.42 148.54 454.09 146.72 453.12 144.70 C 451.49 140.80 449.63 137.01 448.01 133.11 C 448.01 132.65 448.00 131.74 447.99 131.28 Z" />
</g>
<g id="#c5c5c9ff">
<path fill="#c5c5c9" opacity="1.00" d=" M 418.78 131.49 C 420.36 132.01 422.88 131.22 423.63 133.12 C 425.26 136.82 428.99 138.82 430.95 142.28 C 432.46 144.80 434.93 147.01 434.89 150.17 C 434.65 154.80 434.48 159.45 435.01 164.08 C 433.82 165.38 432.56 166.63 431.29 167.86 C 429.57 165.98 427.98 163.11 424.99 163.51 C 421.26 162.95 419.22 167.03 415.61 167.22 C 419.27 163.10 422.25 158.24 422.36 152.55 C 425.52 154.49 427.89 157.36 428.76 161.02 C 428.53 159.16 428.91 157.00 427.58 155.48 C 426.01 153.68 423.88 152.50 422.19 150.83 C 421.53 147.55 421.45 144.19 420.98 140.88 C 423.43 142.90 426.01 144.78 428.86 146.21 C 427.85 143.96 426.98 141.54 425.25 139.73 C 423.67 139.04 421.90 139.08 420.23 138.80 C 419.88 136.34 419.39 133.90 418.78 131.49 Z" />
</g>
<g id="#1d0842ff">
<path fill="#1d0842" opacity="1.00" d=" M 449.64 131.70 C 454.57 135.59 458.43 140.70 463.86 144.01 C 463.41 144.39 462.53 145.16 462.08 145.54 C 459.77 144.11 457.28 143.04 454.51 143.22 C 452.72 139.45 450.86 135.70 449.64 131.70 Z" />
<path fill="#1d0842" opacity="1.00" d=" M 423.98 183.92 C 423.07 182.32 422.15 180.76 421.30 179.14 C 422.73 180.80 423.94 182.64 424.83 184.65 C 426.07 183.93 427.07 182.93 427.92 181.78 C 427.89 182.59 427.84 184.21 427.81 185.02 C 426.58 184.77 425.35 184.74 424.11 184.95 C 423.00 184.45 421.91 183.97 420.85 183.39 C 421.64 183.53 423.20 183.79 423.98 183.92 Z" />
</g>
<g id="#260f4fff">
<path fill="#260f4f" opacity="1.00" d=" M 447.17 132.52 L 448.01 133.11 C 449.63 137.01 451.49 140.80 453.12 144.70 C 453.13 145.40 453.17 146.79 453.19 147.49 C 452.28 146.88 451.36 146.29 450.44 145.71 C 450.19 145.66 449.69 145.55 449.44 145.50 C 448.86 145.39 447.69 145.17 447.11 145.06 C 446.68 143.99 446.22 142.94 445.73 141.91 C 447.39 139.05 447.05 135.68 447.17 132.52 Z" />
<path fill="#260f4f" opacity="1.00" d=" M 416.04 179.09 C 418.02 178.49 419.21 180.45 418.83 182.20 C 417.51 181.58 416.30 180.60 416.04 179.09 Z" />
</g>
<g id="#8a796aff">
<path fill="#8a796a" opacity="1.00" d=" M 434.95 135.82 C 435.50 135.79 436.58 135.75 437.12 135.72 C 438.82 140.54 440.75 145.28 442.90 149.92 C 443.32 150.13 444.17 150.55 444.59 150.76 L 445.49 151.23 C 445.53 152.53 445.59 153.84 445.58 155.15 C 444.92 156.26 444.10 157.27 443.33 158.30 C 442.75 156.41 441.62 154.79 440.44 153.26 C 440.53 152.47 440.64 151.69 440.75 150.90 C 439.79 151.26 438.84 151.62 437.90 151.97 C 438.22 150.87 438.54 149.77 438.85 148.67 C 438.93 148.34 439.08 147.67 439.16 147.34 C 438.98 143.39 436.79 140.04 435.01 136.66 L 434.95 135.82 Z" />
</g>
<g id="#767981ff">
<path fill="#767981" opacity="1.00" d=" M 437.12 135.72 C 439.73 137.66 442.29 139.71 444.38 142.21 C 443.67 143.46 442.82 144.61 441.97 145.76 C 443.14 145.01 444.24 142.73 445.72 144.18 C 446.22 145.80 444.19 146.59 443.46 147.76 C 443.82 148.77 444.18 149.77 444.59 150.76 C 444.17 150.55 443.32 150.13 442.90 149.92 C 440.75 145.28 438.82 140.54 437.12 135.72 Z" />
</g>
<g id="#696561ff">
<path fill="#696561" opacity="1.00" d=" M 435.01 136.66 C 436.79 140.04 438.98 143.39 439.16 147.34 C 437.87 146.53 436.56 145.78 435.27 144.98 C 435.12 143.85 434.96 142.72 434.81 141.60 C 434.87 139.95 434.94 138.30 435.01 136.66 Z" />
</g>
<g id="#bde2feff">
<path fill="#bde2fe" opacity="1.00" d=" M 463.86 144.01 C 464.85 143.09 465.84 142.13 467.00 141.39 C 468.17 142.18 469.22 143.12 470.31 144.02 C 469.56 144.43 468.80 144.83 468.05 145.23 C 466.65 145.38 465.25 145.50 463.85 145.61 C 463.55 146.08 462.95 147.03 462.64 147.50 C 461.61 147.44 460.57 147.45 459.54 147.45 C 459.47 147.08 459.32 146.34 459.24 145.96 C 458.79 146.20 457.88 146.67 457.43 146.90 C 457.79 144.86 456.88 143.82 454.81 143.91 L 454.51 143.22 C 457.28 143.04 459.77 144.11 462.08 145.54 C 462.53 145.16 463.41 144.39 463.86 144.01 Z" />
</g>
<g id="#877556ff">
<path fill="#877556" opacity="1.00" d=" M 470.31 144.02 C 471.45 143.25 472.53 142.40 473.65 141.59 C 474.70 145.91 476.25 150.09 477.69 154.29 C 479.10 155.18 480.52 156.06 481.89 157.02 C 481.97 158.97 482.05 160.92 482.13 162.88 L 481.40 162.80 C 480.07 162.44 478.76 162.02 477.46 161.60 C 475.99 162.63 474.52 163.67 473.07 164.71 C 473.18 164.11 473.42 162.91 473.53 162.31 C 472.66 161.88 471.79 161.45 470.92 161.01 C 471.00 160.56 471.16 159.64 471.23 159.19 C 471.42 158.22 471.56 157.26 471.66 156.28 C 470.16 155.65 468.58 155.23 467.04 154.76 C 468.11 154.01 469.20 153.25 470.28 152.50 C 468.80 152.76 467.33 153.01 465.86 153.26 C 466.65 152.17 467.44 151.07 468.30 150.02 C 469.68 149.07 471.07 148.11 472.43 147.11 C 470.87 147.28 469.32 147.47 467.79 147.74 C 467.85 147.12 467.99 145.86 468.05 145.23 C 468.80 144.83 469.56 144.43 470.31 144.02 M 477.39 158.34 C 476.64 159.95 480.43 161.08 480.70 159.41 C 480.01 158.45 478.50 157.76 477.39 158.34 Z" />
</g>
<g id="#b6d8f6ff">
<path fill="#b6d8f6" opacity="1.00" d=" M 473.65 141.59 C 477.83 140.94 480.91 144.78 485.03 144.48 C 486.39 144.56 488.00 144.42 488.71 145.90 C 489.18 148.26 488.15 150.52 487.01 152.52 C 489.30 156.42 490.22 161.00 492.98 164.67 C 489.27 165.12 485.61 164.25 482.36 162.49 C 482.38 160.79 482.42 159.10 482.38 157.41 L 481.89 157.02 C 480.52 156.06 479.10 155.18 477.69 154.29 C 476.25 150.09 474.70 145.91 473.65 141.59 M 479.19 146.52 C 478.62 147.80 480.46 149.83 481.77 149.48 C 482.55 148.06 480.71 145.85 479.19 146.52 M 484.16 146.45 C 482.21 146.87 482.97 150.14 484.90 149.76 C 486.50 149.22 485.74 146.35 484.16 146.45 Z" />
<path fill="#b6d8f6" opacity="1.00" d=" M 449.44 145.50 C 449.69 145.55 450.19 145.66 450.44 145.71 C 451.36 146.29 452.28 146.88 453.19 147.49 C 454.02 148.18 453.83 149.22 453.69 150.17 C 453.20 149.65 452.20 148.62 451.70 148.11 C 451.20 149.04 450.72 149.98 450.26 150.93 C 450.35 149.55 450.45 148.18 450.55 146.81 C 449.92 146.62 448.66 146.24 448.03 146.05 C 448.38 145.91 449.09 145.64 449.44 145.50 Z" />
</g>
<g id="#54616fff">
<path fill="#54616f" opacity="1.00" d=" M 447.11 145.06 C 447.69 145.17 448.86 145.39 449.44 145.50 C 449.09 145.64 448.38 145.91 448.03 146.05 C 448.66 146.24 449.92 146.62 450.55 146.81 C 450.45 148.18 450.35 149.55 450.26 150.93 C 450.72 149.98 451.20 149.04 451.70 148.11 C 452.20 148.62 453.20 149.65 453.69 150.17 C 453.49 150.53 453.08 151.24 452.87 151.60 C 450.86 152.08 448.83 152.48 446.81 152.90 C 447.01 152.51 447.41 151.75 447.60 151.36 C 446.48 150.22 445.36 149.07 444.25 147.93 C 445.18 146.96 446.12 145.98 447.11 145.06 Z" />
</g>
<g id="#a50121ff">
<path fill="#a50121" opacity="1.00" d=" M 414.45 146.43 C 415.58 146.12 416.70 145.80 417.82 145.47 C 419.17 150.61 419.21 156.34 416.06 160.86 C 413.41 156.48 414.68 151.24 414.45 146.43 Z" />
</g>
<g id="#8ea4c0ff">
<path fill="#8ea4c0" opacity="1.00" d=" M 479.19 146.52 C 480.71 145.85 482.55 148.06 481.77 149.48 C 480.46 149.83 478.62 147.80 479.19 146.52 Z" />
</g>
<g id="#809cb3ff">
<path fill="#809cb3" opacity="1.00" d=" M 484.16 146.45 C 485.74 146.35 486.50 149.22 484.90 149.76 C 482.97 150.14 482.21 146.87 484.16 146.45 Z" />
</g>
<g id="#a6946bff">
<path fill="#a6946b" opacity="1.00" d=" M 467.79 147.74 C 469.32 147.47 470.87 147.28 472.43 147.11 C 471.07 148.11 469.68 149.07 468.30 150.02 C 467.69 149.99 466.49 149.92 465.88 149.89 C 466.51 149.18 467.15 148.46 467.79 147.74 Z" />
</g>
<g id="#999496ff">
<path fill="#999496" opacity="1.00" d=" M 434.89 150.17 C 436.21 149.68 437.54 149.20 438.85 148.67 C 438.54 149.77 438.22 150.87 437.90 151.97 C 438.84 151.62 439.79 151.26 440.75 150.90 C 440.64 151.69 440.53 152.47 440.44 153.26 C 441.62 154.79 442.75 156.41 443.33 158.30 C 443.45 159.48 443.56 160.66 443.67 161.85 C 440.98 163.25 444.01 163.80 445.29 164.55 C 444.36 166.37 442.35 166.79 440.57 167.32 C 440.49 166.91 440.32 166.08 440.23 165.67 L 440.19 164.83 L 440.14 163.90 C 441.22 163.61 442.20 160.97 440.34 161.48 C 440.17 161.93 439.82 162.82 439.64 163.27 L 438.94 163.05 C 440.38 160.99 436.62 161.02 438.11 163.05 C 437.06 163.37 436.03 163.71 435.01 164.08 C 434.48 159.45 434.65 154.80 434.89 150.17 M 438.12 153.08 C 436.75 153.71 436.69 154.39 437.94 155.11 C 439.30 154.48 439.36 153.80 438.12 153.08 M 437.23 156.27 C 435.64 159.24 440.54 156.48 437.23 156.27 Z" />
</g>
<g id="#b9afb1ff">
<path fill="#b9afb1" opacity="1.00" d=" M 513.48 150.91 C 514.71 152.14 514.41 154.09 512.96 155.00 C 512.54 153.54 512.72 152.17 513.48 150.91 Z" />
</g>
<g id="#77797cff">
<path fill="#77797c" opacity="1.00" d=" M 438.12 153.08 C 439.36 153.80 439.30 154.48 437.94 155.11 C 436.69 154.39 436.75 153.71 438.12 153.08 Z" />
</g>
<g id="#6c6e6eff">
<path fill="#6c6e6e" opacity="1.00" d=" M 437.23 156.27 C 440.54 156.48 435.64 159.24 437.23 156.27 Z" />
</g>
<g id="#ab9b6cff">
<path fill="#ab9b6c" opacity="1.00" d=" M 477.39 158.34 C 478.50 157.76 480.01 158.45 480.70 159.41 C 480.43 161.08 476.64 159.95 477.39 158.34 Z" />
</g>
<g id="#58472eff">
<path fill="#58472e" opacity="1.00" d=" M 468.49 162.51 C 469.86 161.87 470.47 160.40 471.23 159.19 C 471.16 159.64 471.00 160.56 470.92 161.01 C 470.77 162.22 470.65 163.42 470.54 164.63 C 468.41 165.34 466.27 166.03 464.13 166.70 C 464.50 167.73 464.88 168.76 465.27 169.79 C 466.86 168.88 468.45 167.97 470.05 167.08 C 470.04 167.46 470.03 168.24 470.02 168.62 C 469.82 169.14 469.43 170.18 469.23 170.70 C 466.65 170.42 464.42 171.92 462.29 173.13 C 461.33 173.82 459.62 174.25 460.14 175.77 C 461.48 176.54 462.90 177.15 464.29 177.84 C 462.50 178.85 460.71 179.88 458.86 180.77 C 456.62 180.85 454.38 180.80 452.15 180.73 C 451.82 180.36 451.16 179.61 450.83 179.23 C 452.33 177.93 453.84 176.63 455.35 175.35 C 455.87 175.33 456.89 175.29 457.40 175.27 C 455.88 174.63 454.26 174.28 452.64 174.01 L 452.05 172.96 C 453.36 172.27 454.69 171.64 456.04 171.05 C 456.36 171.36 456.99 171.97 457.30 172.28 L 457.97 171.85 C 458.18 171.51 458.62 170.84 458.83 170.50 C 456.96 169.54 454.94 168.91 452.93 168.35 C 453.99 167.53 454.79 166.45 455.45 165.28 C 454.53 165.21 452.69 165.07 451.77 165.00 C 451.45 164.98 450.81 164.93 450.48 164.91 C 450.98 163.82 451.46 162.72 451.97 161.64 C 453.93 160.97 455.91 160.34 457.90 159.74 C 457.71 160.30 457.34 161.43 457.15 162.00 C 457.90 161.97 459.40 161.91 460.15 161.88 C 459.86 163.34 460.46 164.19 461.95 164.43 C 460.53 165.29 459.28 164.54 458.18 163.57 C 457.59 163.80 457.00 164.03 456.42 164.27 C 456.36 165.19 456.29 166.12 456.23 167.04 C 460.57 166.33 464.68 164.67 468.49 162.51 Z" />
</g>
<g id="#bebdc2ff">
<path fill="#bebdc2" opacity="1.00" d=" M 438.11 163.05 C 436.62 161.02 440.38 160.99 438.94 163.05 L 438.11 163.05 Z" />
</g>
<g id="#c4c2c6ff">
<path fill="#c4c2c6" opacity="1.00" d=" M 440.34 161.48 C 442.20 160.97 441.22 163.61 440.14 163.90 L 439.64 163.27 C 439.82 162.82 440.17 161.93 440.34 161.48 Z" />
</g>
<g id="#18110bff">
<path fill="#18110b" opacity="1.00" d=" M 460.15 161.88 C 460.81 161.88 462.12 161.89 462.78 161.90 C 462.58 162.53 462.16 163.80 461.95 164.43 C 460.46 164.19 459.86 163.34 460.15 161.88 Z" />
</g>
<g id="#3c85b3ff">
<path fill="#3c85b3" opacity="1.00" d=" M 435.01 164.08 C 436.03 163.71 437.06 163.37 438.11 163.05 L 438.94 163.05 L 439.64 163.27 L 440.14 163.90 L 440.19 164.83 C 439.01 164.81 437.85 164.70 436.68 164.82 C 434.14 167.06 432.21 169.90 429.92 172.39 C 429.92 171.05 429.92 169.71 429.93 168.38 C 429.01 168.36 428.09 168.35 427.18 168.34 C 427.08 168.79 426.89 169.69 426.80 170.14 C 425.26 168.48 423.69 166.84 422.11 165.22 C 421.74 165.48 420.99 166.00 420.61 166.26 C 420.40 166.98 419.98 168.40 419.77 169.11 C 418.14 168.63 416.52 168.16 414.90 167.70 C 415.08 167.58 415.43 167.34 415.61 167.22 C 419.22 167.03 421.26 162.95 424.99 163.51 C 427.98 163.11 429.57 165.98 431.29 167.86 C 432.56 166.63 433.82 165.38 435.01 164.08 Z" />
<path fill="#3c85b3" opacity="1.00" d=" M 440.23 165.67 C 440.32 166.08 440.49 166.91 440.57 167.32 C 440.92 169.83 441.81 172.39 444.47 173.23 C 446.54 174.26 448.64 175.23 450.73 176.25 C 450.31 176.70 449.90 177.16 449.49 177.62 C 449.82 178.03 450.49 178.83 450.83 179.23 C 451.16 179.61 451.82 180.36 452.15 180.73 C 453.02 181.66 453.91 182.58 454.81 183.49 C 454.69 183.86 454.46 184.59 454.34 184.95 C 456.85 184.86 459.47 184.81 461.65 183.39 C 460.90 183.35 459.41 183.27 458.67 183.23 C 459.04 182.60 459.78 181.36 460.15 180.74 L 458.86 180.77 C 460.71 179.88 462.50 178.85 464.29 177.84 L 464.75 178.09 C 465.63 179.05 466.46 180.05 467.30 181.05 C 464.56 183.19 461.83 185.70 458.29 186.34 C 455.51 186.87 452.67 187.02 449.87 187.37 C 452.65 188.53 455.59 189.21 458.48 190.01 C 458.17 190.66 457.86 191.30 457.53 191.94 C 462.14 194.19 467.54 190.88 471.77 194.14 C 469.46 195.09 467.08 195.87 464.66 196.46 C 465.55 195.64 466.44 194.81 467.31 193.98 C 465.55 194.35 463.81 194.74 462.06 195.11 C 457.40 192.13 451.06 192.41 447.52 196.99 L 447.06 196.83 C 445.20 196.24 443.30 195.79 441.44 195.26 C 442.43 195.14 444.41 194.91 445.40 194.79 C 442.82 193.09 440.03 191.77 437.17 190.65 C 437.37 190.27 437.79 189.53 437.99 189.15 C 442.28 190.53 446.23 195.05 450.98 192.92 C 448.15 191.61 444.93 190.16 444.49 186.65 C 447.07 188.87 449.81 191.16 453.39 191.40 C 451.42 189.92 449.41 188.50 447.43 187.04 C 447.17 185.67 446.93 184.30 446.70 182.93 C 446.37 183.44 445.72 184.46 445.39 184.98 C 444.58 183.74 443.78 182.50 442.99 181.27 C 443.91 179.66 444.82 178.04 445.73 176.42 C 444.16 175.56 442.42 174.91 441.12 173.67 C 439.80 171.24 440.45 168.31 440.23 165.67 M 452.21 185.56 C 450.81 183.74 449.55 181.81 448.50 179.77 C 446.51 182.59 449.74 184.87 452.21 185.56 Z" />
<path fill="#3c85b3" opacity="1.00" d=" M 433.76 180.05 C 433.12 176.38 434.14 172.28 436.82 169.61 C 437.01 170.89 437.20 172.18 437.38 173.46 C 437.88 173.81 438.87 174.50 439.37 174.85 C 438.70 174.86 437.34 174.90 436.67 174.91 C 437.48 175.89 438.30 176.88 439.12 177.87 C 438.53 177.90 437.36 177.95 436.78 177.98 C 437.03 178.50 437.52 179.55 437.77 180.07 C 437.57 180.68 437.18 181.88 436.98 182.48 C 435.79 181.85 434.19 181.52 433.76 180.05 Z" />
</g>
<g id="#4aa3dcff">
<path fill="#4aa3dc" opacity="1.00" d=" M 436.68 164.82 C 437.85 164.70 439.01 164.81 440.19 164.83 L 440.23 165.67 C 440.45 168.31 439.80 171.24 441.12 173.67 C 442.42 174.91 444.16 175.56 445.73 176.42 C 444.82 178.04 443.91 179.66 442.99 181.27 C 443.78 182.50 444.58 183.74 445.39 184.98 C 445.72 184.46 446.37 183.44 446.70 182.93 C 446.93 184.30 447.17 185.67 447.43 187.04 C 449.41 188.50 451.42 189.92 453.39 191.40 C 449.81 191.16 447.07 188.87 444.49 186.65 C 444.93 190.16 448.15 191.61 450.98 192.92 C 446.23 195.05 442.28 190.53 437.99 189.15 C 437.79 189.53 437.37 190.27 437.17 190.65 C 440.03 191.77 442.82 193.09 445.40 194.79 C 444.41 194.91 442.43 195.14 441.44 195.26 C 437.92 194.71 435.13 192.30 433.89 188.99 C 434.63 188.73 436.11 188.19 436.85 187.93 L 437.47 187.73 C 437.47 187.11 437.47 185.86 437.47 185.24 L 436.85 185.06 C 435.68 184.67 434.52 184.25 433.38 183.83 C 432.04 182.01 430.12 181.34 427.92 181.78 C 427.07 182.93 426.07 183.93 424.83 184.65 C 423.94 182.64 422.73 180.80 421.30 179.14 C 422.15 180.76 423.07 182.32 423.98 183.92 C 423.20 183.79 421.64 183.53 420.85 183.39 C 420.35 183.10 419.34 182.50 418.83 182.20 C 419.21 180.45 418.02 178.49 416.04 179.09 L 415.84 178.52 C 414.93 175.19 414.06 171.82 413.96 168.35 L 414.90 167.70 C 416.52 168.16 418.14 168.63 419.77 169.11 C 419.98 168.40 420.40 166.98 420.61 166.26 C 420.99 166.00 421.74 165.48 422.11 165.22 C 423.69 166.84 425.26 168.48 426.80 170.14 C 426.89 169.69 427.08 168.79 427.18 168.34 C 428.09 168.35 429.01 168.36 429.93 168.38 C 429.92 169.71 429.92 171.05 429.92 172.39 C 432.21 169.90 434.14 167.06 436.68 164.82 M 435.88 165.78 C 437.06 168.24 437.95 170.82 438.22 173.56 C 440.05 171.13 439.49 166.27 435.88 165.78 M 433.76 180.05 C 434.19 181.52 435.79 181.85 436.98 182.48 C 437.18 181.88 437.57 180.68 437.77 180.07 C 437.52 179.55 437.03 178.50 436.78 177.98 C 437.36 177.95 438.53 177.90 439.12 177.87 C 438.30 176.88 437.48 175.89 436.67 174.91 C 437.34 174.90 438.70 174.86 439.37 174.85 C 438.87 174.50 437.88 173.81 437.38 173.46 C 437.20 172.18 437.01 170.89 436.82 169.61 C 434.14 172.28 433.12 176.38 433.76 180.05 M 424.18 172.25 C 424.12 172.84 423.99 174.02 423.93 174.62 C 425.88 173.94 429.21 172.84 430.04 175.59 C 429.07 175.53 428.10 175.45 427.13 175.37 C 427.39 176.49 427.66 177.60 427.92 178.72 C 429.58 179.32 431.38 180.47 433.06 179.23 C 432.61 177.47 432.22 175.69 431.87 173.90 C 429.56 172.43 426.89 171.92 424.18 172.25 Z" />
<path fill="#4aa3dc" opacity="1.00" d=" M 476.76 169.81 C 477.57 167.29 478.76 164.82 480.92 163.18 C 484.76 163.66 488.29 165.65 492.25 165.48 C 492.61 165.94 493.33 166.85 493.69 167.31 C 494.87 167.33 496.06 167.36 497.25 167.39 C 496.90 169.54 496.58 171.70 495.99 173.80 C 494.41 179.65 489.38 184.76 483.11 185.10 C 482.86 183.75 482.62 182.41 482.38 181.07 C 478.79 181.17 476.12 183.88 472.80 184.88 C 471.05 184.97 469.29 185.00 467.55 185.06 C 468.94 184.48 470.33 183.90 471.72 183.31 C 468.83 180.75 465.53 184.34 464.61 187.08 C 462.73 187.24 460.86 187.38 458.98 187.51 C 459.38 188.51 459.78 189.51 460.19 190.52 C 461.67 190.65 463.16 190.79 464.65 190.92 C 464.59 190.55 464.48 189.82 464.43 189.45 C 466.86 188.25 469.26 186.99 471.76 185.91 C 472.10 186.17 472.79 186.70 473.13 186.96 C 473.98 188.22 474.84 189.48 475.58 190.82 L 475.05 191.72 C 473.60 191.69 472.78 192.39 472.58 193.82 C 472.38 193.90 471.97 194.06 471.77 194.14 C 467.54 190.88 462.14 194.19 457.53 191.94 C 457.86 191.30 458.17 190.66 458.48 190.01 C 455.59 189.21 452.65 188.53 449.87 187.37 C 452.67 187.02 455.51 186.87 458.29 186.34 C 461.83 185.70 464.56 183.19 467.30 181.05 C 466.46 180.05 465.63 179.05 464.75 178.09 C 466.50 175.79 467.99 173.31 469.23 170.70 C 470.64 171.36 472.07 171.97 473.50 172.58 C 474.51 171.87 475.52 171.17 476.50 170.42 L 476.76 169.81 M 483.44 168.53 C 483.72 169.88 483.93 171.27 484.72 172.44 C 484.87 171.61 485.18 169.94 485.33 169.10 C 485.89 169.86 486.47 170.62 487.05 171.38 C 487.55 168.45 485.52 164.31 482.00 166.03 C 479.77 166.50 482.42 168.32 483.44 168.53 M 475.55 173.34 C 476.79 175.57 478.24 177.69 480.07 179.48 C 479.81 177.98 479.54 176.50 479.25 175.02 C 479.83 175.37 480.99 176.07 481.57 176.42 C 481.01 175.44 480.45 174.47 479.89 173.50 C 478.44 173.44 476.99 173.39 475.55 173.34 M 482.12 173.36 C 481.49 174.50 482.38 176.07 483.45 176.62 C 485.05 176.17 483.63 172.77 482.12 173.36 M 487.38 173.13 C 487.91 173.67 488.98 174.75 489.51 175.29 C 489.10 176.64 488.65 177.98 487.85 179.15 C 486.94 177.52 486.17 175.86 485.33 174.21 C 485.60 175.52 485.92 176.85 486.53 178.07 C 486.16 179.37 485.79 180.67 485.44 181.98 C 486.13 181.12 486.79 180.24 487.35 179.29 C 487.94 179.64 488.51 180.03 489.06 180.48 C 489.94 177.94 490.51 174.29 487.38 173.13 M 472.05 176.22 C 472.02 177.29 472.37 178.29 473.11 179.22 C 473.09 180.04 473.05 181.66 473.03 182.48 C 476.22 181.17 474.53 177.10 472.05 176.22 Z" />
<path fill="#4aa3dc" opacity="1.00" d=" M 447.52 196.99 C 451.06 192.41 457.40 192.13 462.06 195.11 C 463.81 194.74 465.55 194.35 467.31 193.98 C 466.44 194.81 465.55 195.64 464.66 196.46 L 464.02 196.60 C 460.30 197.44 456.79 192.82 453.34 195.15 C 454.64 196.31 457.40 195.37 458.12 197.47 L 455.12 197.43 C 455.94 197.68 456.76 197.92 457.60 198.17 C 458.80 197.60 460.06 197.10 461.40 196.94 C 460.86 198.68 460.43 200.45 460.17 202.25 L 459.89 202.78 C 457.41 204.77 453.54 203.52 450.51 203.87 C 450.43 201.18 450.98 197.68 447.52 196.99 Z" />
</g>
<g id="#1c140eff">
<path fill="#1c140e" opacity="1.00" d=" M 451.77 165.00 C 452.69 165.07 454.53 165.21 455.45 165.28 C 454.79 166.45 453.99 167.53 452.93 168.35 C 452.54 168.24 451.77 168.02 451.38 167.92 C 451.49 166.94 451.62 165.97 451.77 165.00 Z" />
</g>
<g id="#397fabff">
<path fill="#397fab" opacity="1.00" d=" M 435.88 165.78 C 439.49 166.27 440.05 171.13 438.22 173.56 C 437.95 170.82 437.06 168.24 435.88 165.78 Z" />
</g>
<g id="#387da8ff">
<path fill="#387da8" opacity="1.00" d=" M 483.44 168.53 C 482.42 168.32 479.77 166.50 482.00 166.03 C 485.52 164.31 487.55 168.45 487.05 171.38 C 486.47 170.62 485.89 169.86 485.33 169.10 C 485.18 169.94 484.87 171.61 484.72 172.44 C 483.93 171.27 483.72 169.88 483.44 168.53 Z" />
</g>
<g id="#367aa6ff">
<path fill="#367aa6" opacity="1.00" d=" M 470.02 168.62 C 472.25 169.09 474.51 169.45 476.76 169.81 L 476.50 170.42 C 475.52 171.17 474.51 171.87 473.50 172.58 C 472.07 171.97 470.64 171.36 469.23 170.70 C 469.43 170.18 469.82 169.14 470.02 168.62 Z" />
</g>
<g id="#4ba9e4ff">
<path fill="#4ba9e4" opacity="1.00" d=" M 444.47 173.23 C 445.86 172.28 446.99 170.47 448.85 170.49 C 450.12 171.00 451.06 172.04 452.05 172.96 L 452.64 174.01 C 452.16 174.57 451.21 175.69 450.73 176.25 C 448.64 175.23 446.54 174.26 444.47 173.23 Z" />
</g>
<g id="#725f41ff">
<path fill="#725f41" opacity="1.00" d=" M 462.29 173.13 C 464.42 171.92 466.65 170.42 469.23 170.70 C 467.99 173.31 466.50 175.79 464.75 178.09 L 464.29 177.84 C 462.90 177.15 461.48 176.54 460.14 175.77 C 459.62 174.25 461.33 173.82 462.29 173.13 Z" />
</g>
<g id="#1f8c3fff">
<path fill="#1f8c3f" opacity="1.00" d=" M 509.96 178.21 C 511.28 176.05 511.46 173.50 512.06 171.11 C 511.66 173.78 511.93 176.95 509.69 178.91 C 509.18 178.53 508.16 177.76 507.65 177.38 C 506.83 178.21 506.03 179.05 505.23 179.89 C 505.06 179.10 504.73 177.50 504.56 176.70 C 503.52 178.96 502.91 181.39 502.15 183.75 C 503.98 182.63 505.90 181.68 507.89 180.87 C 507.75 181.61 507.48 183.11 507.34 183.85 C 507.73 183.58 508.50 183.03 508.88 182.75 C 510.45 183.24 512.16 184.00 513.53 182.62 C 514.31 183.90 515.12 185.16 515.93 186.42 L 517.38 186.58 C 517.31 185.47 517.16 183.27 517.09 182.17 C 518.10 183.17 519.11 184.17 520.08 185.23 C 520.17 190.55 520.73 196.32 517.56 200.96 C 514.52 200.35 511.49 199.72 508.48 199.03 C 509.20 197.79 509.93 196.55 510.67 195.32 C 508.33 195.09 506.00 194.86 503.67 194.63 C 503.29 194.10 502.91 193.59 502.51 193.09 C 501.93 192.77 500.77 192.15 500.19 191.84 C 497.37 191.17 494.46 191.34 491.60 191.41 C 490.07 190.47 488.51 189.57 486.97 188.65 C 486.93 188.38 486.86 187.84 486.82 187.56 C 493.03 185.72 497.89 180.36 498.84 173.92 C 498.56 175.43 499.14 176.75 500.21 177.80 C 501.24 177.22 501.82 176.12 502.58 175.25 C 502.54 175.99 502.44 177.47 502.39 178.20 C 503.48 177.26 504.60 176.31 505.70 175.35 C 505.65 176.11 505.57 177.62 505.52 178.38 C 506.50 177.40 507.51 176.43 508.49 175.44 C 508.59 175.93 508.79 176.91 508.89 177.40 L 509.96 178.21 M 496.23 181.46 C 497.68 181.45 499.17 181.45 500.64 181.51 C 501.58 180.67 502.28 179.68 502.75 178.53 C 501.14 178.84 499.69 178.58 498.38 177.75 C 497.66 178.98 496.94 180.22 496.23 181.46 Z" />
</g>
<g id="#8f1025ff">
<path fill="#8f1025" opacity="1.00" d=" M 398.94 172.15 C 400.52 173.73 400.21 176.14 399.31 177.98 C 399.14 177.81 398.80 177.49 398.63 177.32 C 398.56 175.59 398.59 173.85 398.94 172.15 Z" />
</g>
<g id="#3a81aeff">
<path fill="#3a81ae" opacity="1.00" d=" M 424.18 172.25 C 426.89 171.92 429.56 172.43 431.87 173.90 C 432.22 175.69 432.61 177.47 433.06 179.23 C 431.38 180.47 429.58 179.32 427.92 178.72 C 427.66 177.60 427.39 176.49 427.13 175.37 C 428.10 175.45 429.07 175.53 430.04 175.59 C 429.21 172.84 425.88 173.94 423.93 174.62 C 423.99 174.02 424.12 172.84 424.18 172.25 Z" />
</g>
<g id="#377aa5ff">
<path fill="#377aa5" opacity="1.00" d=" M 475.55 173.34 C 476.99 173.39 478.44 173.44 479.89 173.50 C 480.45 174.47 481.01 175.44 481.57 176.42 C 480.99 176.07 479.83 175.37 479.25 175.02 C 479.54 176.50 479.81 177.98 480.07 179.48 C 478.24 177.69 476.79 175.57 475.55 173.34 Z" />
</g>
<g id="#377aa4ff">
<path fill="#377aa4" opacity="1.00" d=" M 482.12 173.36 C 483.63 172.77 485.05 176.17 483.45 176.62 C 482.38 176.07 481.49 174.50 482.12 173.36 Z" />
</g>
<g id="#197538ff">
<path fill="#197538" opacity="1.00" d=" M 394.55 177.43 C 394.98 176.90 395.84 175.83 396.27 175.29 C 396.37 175.95 396.56 177.28 396.66 177.94 C 397.15 177.79 398.14 177.48 398.63 177.32 C 398.80 177.49 399.14 177.81 399.31 177.98 L 399.65 178.39 C 396.46 178.64 398.11 182.80 397.67 184.96 L 397.26 184.49 C 396.88 183.32 396.57 182.14 396.26 180.96 C 397.08 186.11 395.86 191.65 399.08 196.21 C 395.45 193.95 391.32 192.68 387.66 190.47 C 389.84 190.58 392.02 190.86 394.18 191.21 C 393.11 187.85 392.36 184.42 391.83 180.94 C 391.48 181.21 390.76 181.74 390.41 182.01 C 390.44 183.04 390.47 184.07 390.51 185.10 C 389.35 183.96 388.19 182.82 387.03 181.69 C 387.89 180.14 388.92 178.70 390.07 177.36 C 390.18 178.03 390.41 179.37 390.52 180.05 C 391.15 179.08 391.79 178.12 392.44 177.16 C 393.14 177.25 393.84 177.34 394.55 177.43 Z" />
</g>
<g id="#fbfcfdff">
<path fill="#fbfcfd" opacity="1.00" d=" M 411.99 175.95 C 412.15 176.62 412.32 177.30 412.50 177.97 C 412.76 178.54 413.26 179.69 413.51 180.26 C 413.66 180.43 413.95 180.78 414.10 180.95 C 412.56 182.48 410.98 184.00 409.89 185.90 C 410.34 184.16 410.81 182.42 411.29 180.68 C 409.87 181.42 408.46 182.16 407.06 182.91 C 406.33 181.53 405.59 180.15 404.94 178.74 C 405.02 178.34 405.18 177.53 405.26 177.13 C 406.07 178.00 406.87 178.86 407.69 179.74 C 409.32 178.71 411.16 177.82 411.99 175.95 Z" />
<path fill="#fbfcfd" opacity="1.00" d=" M 496.23 181.46 C 496.94 180.22 497.66 178.98 498.38 177.75 C 499.69 178.58 501.14 178.84 502.75 178.53 C 502.28 179.68 501.58 180.67 500.64 181.51 C 499.17 181.45 497.68 181.45 496.23 181.46 Z" />
<path fill="#fbfcfd" opacity="1.00" d=" M 397.67 184.96 C 398.11 182.80 396.46 178.64 399.65 178.39 C 399.99 178.82 400.66 179.68 400.99 180.12 C 399.83 182.19 399.05 184.47 399.43 186.87 C 398.99 186.39 398.11 185.44 397.67 184.96 Z" />
</g>
<g id="#387ca7ff">
<path fill="#387ca7" opacity="1.00" d=" M 472.05 176.22 C 474.53 177.10 476.22 181.17 473.03 182.48 C 473.05 181.66 473.09 180.04 473.11 179.22 C 472.37 178.29 472.02 177.29 472.05 176.22 Z" />
</g>
<g id="#cad3cfff">
<path fill="#cad3cf" opacity="1.00" d=" M 401.80 176.80 C 402.78 177.70 403.78 178.60 404.78 179.51 C 404.33 181.59 403.93 183.69 403.49 185.78 C 401.85 184.28 401.82 182.07 401.82 180.01 C 401.82 179.21 401.80 177.61 401.80 176.80 Z" />
</g>
<g id="#bda44fff">
<path fill="#bda44f" opacity="1.00" d=" M 412.50 177.97 C 412.76 178.54 413.26 179.69 413.51 180.26 C 413.26 179.69 412.76 178.54 412.50 177.97 Z" />
</g>
<g id="#229f46ff">
<path fill="#229f46" opacity="1.00" d=" M 404.78 179.51 L 404.94 178.74 C 405.59 180.15 406.33 181.53 407.06 182.91 C 408.46 182.16 409.87 181.42 411.29 180.68 C 410.81 182.42 410.34 184.16 409.89 185.90 C 408.64 188.22 411.23 189.28 412.63 190.59 C 411.09 191.03 409.55 191.50 408.02 191.99 C 407.50 191.87 406.46 191.64 405.94 191.52 C 406.85 190.77 407.75 190.01 408.66 189.25 C 408.23 187.24 407.76 185.23 407.22 183.24 C 406.48 185.11 406.37 187.12 406.41 189.10 C 405.02 187.91 403.62 186.73 402.22 185.56 C 402.41 186.71 402.61 187.86 402.82 189.02 C 401.46 188.56 400.10 188.10 398.75 187.67 C 400.44 191.05 403.90 192.80 407.46 193.57 C 407.29 193.81 406.95 194.29 406.78 194.53 C 405.39 196.30 404.51 198.37 404.28 200.63 C 404.91 200.28 406.16 199.58 406.79 199.23 C 406.28 201.29 405.87 203.37 405.56 205.46 C 408.20 204.04 410.88 202.35 414.03 202.75 C 414.14 205.96 414.60 209.33 417.38 211.36 C 418.14 207.24 420.22 203.61 421.97 199.87 C 422.36 199.57 423.14 198.96 423.53 198.66 C 424.07 201.76 424.02 205.26 426.21 207.77 C 428.10 208.52 428.39 206.27 428.97 205.02 C 429.90 202.88 429.25 200.56 428.95 198.36 L 429.87 198.06 C 431.01 200.10 434.10 199.66 434.15 197.17 C 435.24 196.81 436.33 196.43 437.42 196.04 C 438.35 196.43 439.29 196.81 440.25 197.18 C 440.76 198.07 441.25 198.98 441.71 199.92 C 439.15 199.88 436.57 199.85 434.02 200.18 C 437.27 200.30 440.63 200.16 443.66 201.54 C 443.08 200.79 441.99 200.20 442.38 199.13 C 442.94 199.15 444.06 199.19 444.62 199.21 C 445.26 200.69 445.12 202.36 445.42 203.93 L 445.70 204.34 C 451.79 205.14 458.07 203.44 464.17 205.09 C 464.29 204.61 464.55 203.64 464.68 203.16 C 464.53 201.74 464.19 200.36 464.01 198.95 C 466.87 197.66 469.98 197.05 472.92 195.96 C 474.40 196.72 475.89 197.50 477.43 198.16 C 478.58 198.29 479.73 198.35 480.89 198.43 C 480.55 201.78 480.15 205.84 483.00 208.28 C 486.31 206.25 485.63 201.90 485.96 198.61 C 486.46 198.92 487.44 199.55 487.93 199.87 C 488.16 200.42 488.62 201.52 488.85 202.07 C 488.60 203.31 489.14 205.87 490.92 204.98 L 491.51 204.77 C 492.06 206.74 492.63 208.71 493.25 210.67 C 495.16 208.57 495.51 205.74 496.24 203.12 C 498.22 201.78 500.89 201.90 502.50 203.77 C 500.67 204.92 498.94 206.19 497.29 207.56 C 500.96 208.78 504.65 209.96 508.39 210.98 C 501.54 216.12 493.92 220.17 485.99 223.37 L 485.52 223.20 C 485.55 222.56 485.62 221.29 485.65 220.66 C 484.10 221.24 482.58 221.89 481.06 222.55 C 475.74 221.23 469.96 219.41 464.61 221.57 C 470.67 221.96 476.89 222.06 482.45 224.83 C 473.96 228.47 464.84 230.28 456.26 233.64 L 456.24 233.64 C 454.18 233.69 452.10 233.60 450.10 233.07 C 435.80 229.18 421.66 224.38 408.57 217.34 C 401.64 213.29 394.38 208.83 390.11 201.82 C 393.65 201.96 397.24 202.51 400.23 204.54 C 399.31 203.58 398.50 202.49 397.40 201.74 C 394.73 201.25 391.77 202.17 389.28 200.99 C 385.47 195.93 386.66 189.28 386.43 183.38 C 386.58 182.96 386.88 182.11 387.03 181.69 C 388.19 182.82 389.35 183.96 390.51 185.10 C 390.47 184.07 390.44 183.04 390.41 182.01 C 390.76 181.74 391.48 181.21 391.83 180.94 C 392.36 184.42 393.11 187.85 394.18 191.21 C 392.02 190.86 389.84 190.58 387.66 190.47 C 391.32 192.68 395.45 193.95 399.08 196.21 C 395.86 191.65 397.08 186.11 396.26 180.96 C 396.57 182.14 396.88 183.32 397.26 184.49 L 397.67 184.96 C 398.11 185.44 398.99 186.39 399.43 186.87 C 399.05 184.47 399.83 182.19 400.99 180.12 L 401.82 180.01 C 401.82 182.07 401.85 184.28 403.49 185.78 C 403.93 183.69 404.33 181.59 404.78 179.51 M 436.45 202.85 C 438.63 204.22 440.92 205.39 443.33 206.31 C 442.61 203.19 439.36 201.67 436.45 202.85 M 398.31 206.16 C 398.20 207.88 401.58 209.66 402.51 207.73 C 401.94 206.37 399.65 205.83 398.31 206.16 M 447.82 207.76 C 449.98 207.94 452.15 208.05 454.33 208.22 C 453.00 210.26 450.65 209.29 448.70 209.11 C 449.96 211.71 454.03 211.96 455.41 209.34 C 459.82 210.28 465.18 210.94 468.82 207.69 C 464.91 207.07 460.94 209.79 457.16 207.86 C 454.28 207.11 450.22 205.15 447.82 207.76 M 401.85 210.59 C 405.53 210.73 408.97 211.92 412.32 213.37 C 410.76 209.43 405.25 208.52 401.85 210.59 Z" />
<path fill="#229f46" opacity="1.00" d=" M 503.67 194.63 C 506.00 194.86 508.33 195.09 510.67 195.32 C 509.93 196.55 509.20 197.79 508.48 199.03 C 511.49 199.72 514.52 200.35 517.56 200.96 C 515.90 203.63 513.93 206.11 511.63 208.25 C 511.19 207.79 510.31 206.89 509.88 206.44 C 507.73 206.49 505.58 206.57 503.44 206.68 C 503.59 206.29 503.89 205.50 504.04 205.11 C 505.15 202.98 504.05 200.87 502.92 199.04 C 503.57 199.27 504.86 199.73 505.51 199.96 C 505.12 198.11 504.66 196.26 503.67 194.63 Z" />
</g>
<g id="#49a3dbff">
<path fill="#49a3db" opacity="1.00" d=" M 452.21 185.56 C 449.74 184.87 446.51 182.59 448.50 179.77 C 449.55 181.81 450.81 183.74 452.21 185.56 Z" />
</g>
<g id="#4396c8ff">
<path fill="#4396c8" opacity="1.00" d=" M 452.15 180.73 C 454.38 180.80 456.62 180.85 458.86 180.77 L 460.15 180.74 C 459.78 181.36 459.04 182.60 458.67 183.23 C 459.41 183.27 460.90 183.35 461.65 183.39 C 459.47 184.81 456.85 184.86 454.34 184.95 C 454.46 184.59 454.69 183.86 454.81 183.49 C 453.91 182.58 453.02 181.66 452.15 180.73 Z" />
</g>
<g id="#1d8c3dff">
<path fill="#1d8c3d" opacity="1.00" d=" M 409.89 185.90 C 410.98 184.00 412.56 182.48 414.10 180.95 C 416.77 184.38 420.44 187.27 424.91 187.70 C 423.72 189.16 422.38 190.53 420.71 191.44 C 416.53 192.31 412.25 191.77 408.02 191.99 C 409.55 191.50 411.09 191.03 412.63 190.59 C 411.23 189.28 408.64 188.22 409.89 185.90 Z" />
</g>
<g id="#3a82aeff">
<path fill="#3a82ae" opacity="1.00" d=" M 464.61 187.08 C 465.53 184.34 468.83 180.75 471.72 183.31 C 470.33 183.90 468.94 184.48 467.55 185.06 C 469.29 185.00 471.05 184.97 472.80 184.88 C 472.88 185.40 473.05 186.44 473.13 186.96 C 472.79 186.70 472.10 186.17 471.76 185.91 C 469.26 186.99 466.86 188.25 464.43 189.45 C 464.48 189.82 464.59 190.55 464.65 190.92 C 463.16 190.79 461.67 190.65 460.19 190.52 C 459.78 189.51 459.38 188.51 458.98 187.51 C 460.86 187.38 462.73 187.24 464.61 187.08 Z" />
</g>
<g id="#1b6e31ff">
<path fill="#1b6e31" opacity="1.00" d=" M 406.41 189.10 C 406.37 187.12 406.48 185.11 407.22 183.24 C 407.76 185.23 408.23 187.24 408.66 189.25 C 407.75 190.01 406.85 190.77 405.94 191.52 C 406.46 191.64 407.50 191.87 408.02 191.99 L 409.51 192.76 C 409.00 192.96 407.97 193.37 407.46 193.57 C 403.90 192.80 400.44 191.05 398.75 187.67 C 400.10 188.10 401.46 188.56 402.82 189.02 C 402.61 187.86 402.41 186.71 402.22 185.56 C 403.62 186.73 405.02 187.91 406.41 189.10 Z" />
</g>
<g id="#c0aa51ff">
<path fill="#c0aa51" opacity="1.00" d=" M 424.11 184.95 C 425.35 184.74 426.58 184.77 427.81 185.02 L 427.80 185.71 C 426.64 186.93 424.90 186.11 424.11 184.95 Z" />
</g>
<g id="#6d1d21ff">
<path fill="#6d1d21" opacity="1.00" d=" M 408.02 191.99 C 412.25 191.77 416.53 192.31 420.71 191.44 C 417.43 193.71 413.22 192.66 409.51 192.76 L 408.02 191.99 Z" />
</g>
<g id="#94011dff">
<path fill="#94011d" opacity="1.00" d=" M 490.23 197.39 C 490.01 196.25 490.46 195.94 491.59 196.44 C 493.95 196.96 495.62 198.99 496.28 201.24 C 494.29 199.91 492.22 198.71 490.23 197.39 Z" />
</g>
<g id="#553527ff">
<path fill="#553527" opacity="1.00" d=" M 429.87 198.06 C 431.23 197.49 432.69 197.28 434.15 197.17 C 434.10 199.66 431.01 200.10 429.87 198.06 Z" />
</g>
<g id="#197c36ff">
<path fill="#197c36" opacity="1.00" d=" M 436.45 202.85 C 439.36 201.67 442.61 203.19 443.33 206.31 C 440.92 205.39 438.63 204.22 436.45 202.85 Z" />
<path fill="#197c36" opacity="1.00" d=" M 401.85 210.59 C 405.25 208.52 410.76 209.43 412.32 213.37 C 408.97 211.92 405.53 210.73 401.85 210.59 Z" />
</g>
<g id="#434b2cff">
<path fill="#434b2c" opacity="1.00" d=" M 488.85 202.07 C 489.86 202.71 491.15 203.59 490.92 204.98 C 489.14 205.87 488.60 203.31 488.85 202.07 Z" />
</g>
<g id="#1f913fff">
<path fill="#1f913f" opacity="1.00" d=" M 502.50 203.77 C 502.88 204.11 503.66 204.77 504.04 205.11 C 503.89 205.50 503.59 206.29 503.44 206.68 C 505.58 206.57 507.73 206.49 509.88 206.44 C 510.31 206.89 511.19 207.79 511.63 208.25 C 510.57 209.19 509.50 210.11 508.39 210.98 C 504.65 209.96 500.96 208.78 497.29 207.56 C 498.94 206.19 500.67 204.92 502.50 203.77 Z" />
</g>
<g id="#187934ff">
<path fill="#187934" opacity="1.00" d=" M 398.31 206.16 C 399.65 205.83 401.94 206.37 402.51 207.73 C 401.58 209.66 398.20 207.88 398.31 206.16 Z" />
</g>
<g id="#1a7f37ff">
<path fill="#1a7f37" opacity="1.00" d=" M 447.82 207.76 C 450.22 205.15 454.28 207.11 457.16 207.86 C 460.94 209.79 464.91 207.07 468.82 207.69 C 465.18 210.94 459.82 210.28 455.41 209.34 C 454.03 211.96 449.96 211.71 448.70 209.11 C 450.65 209.29 453.00 210.26 454.33 208.22 C 452.15 208.05 449.98 207.94 447.82 207.76 Z" />
</g>
<g id="#197f37ff">
<path fill="#197f37" opacity="1.00" d=" M 464.61 221.57 C 469.96 219.41 475.74 221.23 481.06 222.55 C 482.58 221.89 484.10 221.24 485.65 220.66 C 485.62 221.29 485.55 222.56 485.52 223.20 L 485.99 223.37 C 484.82 223.89 483.63 224.36 482.45 224.83 C 476.89 222.06 470.67 221.96 464.61 221.57 Z" />
</g>
</svg>
