<?xml version="1.0" encoding="UTF-8" ?>
<!DOCTYPE svg PUBLIC "-//W3C//DTD SVG 1.1//EN" "http://www.w3.org/Graphics/SVG/1.1/DTD/svg11.dtd">
<svg width="604pt" height="302pt" viewBox="0 0 604 302" version="1.1" xmlns="http://www.w3.org/2000/svg">
<g id="#be0027ff">
<path fill="#be0027" opacity="1.00" d=" M 0.00 0.00 L 1.14 0.00 C 34.66 16.07 68.03 32.44 101.54 48.52 C 94.91 48.19 87.63 50.12 81.59 46.55 C 54.47 33.32 27.08 20.63 0.00 7.32 L 0.00 0.00 Z" />
<path fill="#be0027" opacity="1.00" d=" M 135.42 0.00 L 166.18 0.00 C 166.16 19.80 166.22 39.59 166.15 59.39 C 211.35 59.38 256.56 59.46 301.76 59.35 C 302.54 69.71 302.34 80.12 301.68 90.48 C 256.52 90.48 211.36 90.52 166.20 90.46 C 166.17 110.55 166.16 130.63 166.20 150.72 C 155.95 151.28 145.65 151.22 135.39 150.71 C 135.47 130.63 135.42 110.55 135.41 90.47 C 90.27 90.51 45.14 90.47 0.00 90.49 L 0.00 59.40 C 45.14 59.40 90.29 59.39 135.43 59.41 C 135.41 39.60 135.43 19.80 135.42 0.00 Z" />
<path fill="#be0027" opacity="1.00" d=" M 284.90 0.00 L 300.36 0.00 C 264.12 15.90 227.84 31.69 191.62 47.61 C 186.84 49.53 181.53 48.35 176.53 48.52 C 212.68 32.40 248.75 16.10 284.90 0.00 Z" />
<path fill="#be0027" opacity="1.00" d=" M 110.16 102.42 C 114.60 100.37 119.64 101.38 124.36 101.32 C 88.24 117.99 51.74 133.84 15.69 150.63 C 10.36 150.84 5.02 150.86 -0.31 150.85 L 1.72 149.51 C 37.84 133.75 74.04 118.19 110.16 102.42 Z" />
<path fill="#be0027" opacity="1.00" d=" M 199.71 101.29 C 204.62 101.53 209.99 100.19 214.57 102.56 C 236.07 112.72 257.65 122.72 279.17 132.83 C 286.58 136.13 293.73 140.00 301.31 142.90 C 301.34 142.25 301.38 140.93 301.41 140.27 C 302.55 143.59 302.20 147.16 302.27 150.61 C 301.92 150.58 301.21 150.52 300.86 150.49 C 267.17 134.05 233.34 117.87 199.71 101.29 Z" />
</g>
<g id="#ffffffff">
<path fill="#ffffff" opacity="1.00" d=" M 1.14 0.00 L 26.82 0.00 C 55.65 13.27 84.45 26.59 113.26 39.88 C 116.95 41.55 120.63 43.22 124.21 45.12 C 124.20 30.08 124.22 15.04 124.20 0.00 L 135.42 0.00 C 135.43 19.80 135.41 39.60 135.43 59.41 C 90.29 59.39 45.14 59.40 0.00 59.40 L 0.00 48.76 C 26.38 48.68 52.75 48.86 79.13 48.66 C 52.81 35.80 26.41 23.09 0.00 10.43 L 0.00 7.32 C 27.08 20.63 54.47 33.32 81.59 46.55 C 87.63 50.12 94.91 48.19 101.54 48.52 C 68.03 32.44 34.66 16.07 1.14 0.00 Z" />
<path fill="#ffffff" opacity="1.00" d=" M 166.18 0.00 L 176.56 0.00 C 176.56 15.01 176.61 30.03 176.53 45.04 C 210.37 30.07 244.16 14.99 277.99 0.00 L 284.90 0.00 C 248.75 16.10 212.68 32.40 176.53 48.52 C 181.53 48.35 186.84 49.53 191.62 47.61 C 227.84 31.69 264.12 15.90 300.36 0.00 L 301.57 0.00 C 301.56 4.80 301.56 9.60 301.56 14.41 C 272.61 25.89 243.60 37.19 214.63 48.60 C 243.59 48.92 272.55 48.66 301.51 48.74 C 301.54 52.28 301.53 55.82 301.76 59.35 C 256.56 59.46 211.35 59.38 166.15 59.39 C 166.22 39.59 166.16 19.80 166.18 0.00 Z" />
<path fill="#ffffff" opacity="1.00" d=" M 448.69 43.71 C 450.45 38.92 451.48 33.89 453.24 29.09 C 454.91 34.06 456.61 39.03 458.10 44.07 C 463.14 44.16 468.17 44.14 473.21 44.12 C 469.36 47.12 465.48 50.08 461.57 53.01 C 462.99 57.89 464.55 62.73 466.03 67.59 C 461.66 64.74 457.43 61.67 453.14 58.69 C 449.24 61.82 445.43 65.04 441.47 68.10 C 442.86 63.04 444.54 58.07 445.78 52.98 C 441.47 50.11 437.26 47.11 433.00 44.17 C 438.21 43.82 443.61 44.73 448.69 43.71 Z" />
<path fill="#ffffff" opacity="1.00" d=" M 494.37 51.11 C 497.77 47.15 501.24 43.26 504.85 39.50 C 504.17 44.70 503.42 49.89 502.60 55.07 C 507.16 57.10 511.77 59.01 516.28 61.17 C 511.61 62.46 506.88 63.51 502.16 64.58 C 501.63 69.59 501.39 74.61 501.00 79.63 C 497.92 75.34 495.31 70.74 492.45 66.31 C 487.67 67.43 482.89 68.56 478.08 69.56 C 481.33 65.82 484.70 62.19 488.04 58.53 C 485.25 53.99 482.40 49.50 479.62 44.97 C 484.53 47.03 489.39 49.21 494.37 51.11 Z" />
<path fill="#ffffff" opacity="1.00" d=" M 402.22 39.86 C 405.66 43.50 408.80 47.41 412.06 51.20 C 416.91 49.01 421.83 47.00 426.73 44.93 C 424.09 49.48 421.37 53.99 418.88 58.62 C 422.31 62.29 425.90 65.81 429.26 69.54 C 424.10 68.64 418.99 67.47 413.89 66.29 C 411.41 71.00 409.17 75.83 406.65 80.51 C 405.55 75.29 404.95 69.98 404.30 64.69 C 399.26 63.67 394.20 62.75 389.14 61.86 C 393.94 59.44 398.86 57.27 403.75 55.02 C 403.12 49.98 402.45 44.94 402.22 39.86 Z" />
<path fill="#ffffff" opacity="1.00" d=" M 373.34 74.74 C 377.17 71.28 380.43 67.24 384.36 63.87 C 383.69 68.81 383.46 73.78 383.26 78.76 C 387.85 80.80 392.48 82.74 397.03 84.89 C 391.86 86.02 386.67 87.03 381.53 88.29 C 381.09 93.48 380.60 98.66 380.41 103.86 C 377.51 99.49 375.03 94.87 372.31 90.39 C 367.21 91.64 362.08 92.78 356.90 93.67 C 360.39 89.74 364.04 85.96 367.45 81.96 C 364.89 77.62 362.52 73.17 360.26 68.66 C 364.66 70.60 369.03 72.61 373.34 74.74 Z" />
<path fill="#ffffff" opacity="1.00" d=" M 522.13 65.22 C 525.60 69.36 529.18 73.40 532.67 77.52 C 537.29 75.36 542.00 73.41 546.64 71.27 C 544.18 75.68 541.54 79.98 538.84 84.24 C 542.13 88.15 545.49 91.99 548.76 95.91 C 543.91 95.00 539.16 93.63 534.28 92.91 C 531.91 97.32 529.53 101.72 527.16 106.13 C 526.26 101.03 525.70 95.88 524.61 90.83 C 519.93 89.91 515.30 88.82 510.67 87.73 C 514.90 85.26 519.50 83.54 523.98 81.57 C 523.75 76.08 522.67 70.68 522.13 65.22 Z" />
<path fill="#ffffff" opacity="1.00" d=" M 0.00 90.49 C 45.14 90.47 90.27 90.51 135.41 90.47 C 135.42 110.55 135.47 130.63 135.39 150.71 C 131.65 150.55 127.91 150.55 124.17 150.52 C 124.24 135.30 124.21 120.07 124.19 104.85 C 91.24 119.82 58.10 134.37 25.14 149.29 C 22.21 150.79 18.87 150.56 15.69 150.63 C 51.74 133.84 88.24 117.99 124.36 101.32 C 119.64 101.38 114.60 100.37 110.16 102.42 C 74.04 118.19 37.84 133.75 1.72 149.51 C 1.29 149.71 0.43 150.12 0.00 150.33 L 0.00 135.47 C 5.60 132.81 11.50 130.86 17.24 128.52 C 40.07 119.72 62.75 110.50 85.69 101.97 C 85.66 101.67 85.59 101.06 85.55 100.75 C 57.04 100.96 28.51 100.59 0.00 100.93 L 0.00 90.49 Z" />
<path fill="#ffffff" opacity="1.00" d=" M 166.20 90.46 C 211.36 90.52 256.52 90.48 301.68 90.48 C 301.51 93.92 301.55 97.36 301.57 100.80 C 273.87 100.88 246.18 100.68 218.48 100.88 C 223.83 104.05 229.63 106.30 235.20 109.01 C 256.05 118.66 276.84 128.42 297.71 138.01 C 298.89 138.77 300.66 139.06 301.41 140.27 C 301.38 140.93 301.34 142.25 301.31 142.90 C 293.73 140.00 286.58 136.13 279.17 132.83 C 257.65 122.72 236.07 112.72 214.57 102.56 C 209.99 100.19 204.62 101.53 199.71 101.29 C 233.34 117.87 267.17 134.05 300.86 150.49 C 293.55 150.56 286.23 150.59 278.92 150.60 C 274.15 150.87 270.16 147.88 265.96 146.12 C 236.16 132.42 206.46 118.48 176.59 104.91 C 176.55 120.11 176.56 135.32 176.59 150.52 C 173.13 150.55 169.66 150.54 166.20 150.72 C 166.16 130.63 166.17 110.55 166.20 90.46 Z" />
<path fill="#ffffff" opacity="1.00" d=" M 350.47 113.78 C 352.10 108.82 353.37 103.76 355.07 98.83 C 356.73 103.77 358.37 108.72 359.93 113.70 C 364.96 113.78 369.99 113.76 375.03 113.71 C 371.42 116.76 367.34 119.17 363.69 122.16 C 364.40 127.54 366.69 132.59 367.77 137.90 C 363.48 134.79 359.23 131.61 355.01 128.40 C 350.93 131.62 346.85 134.84 342.64 137.90 C 344.16 132.99 345.92 128.15 346.95 123.10 C 342.82 120.15 338.83 117.01 334.94 113.74 C 340.12 113.75 345.30 113.74 350.47 113.78 Z" />
<path fill="#ffffff" opacity="1.00" d=" M 551.82 101.41 C 553.92 106.34 555.60 111.43 557.33 116.51 C 562.14 116.59 566.95 116.54 571.77 116.55 C 567.86 119.53 563.76 122.22 559.68 124.94 C 561.28 129.98 563.05 134.96 564.59 140.02 C 560.29 137.16 556.06 134.20 551.88 131.18 C 547.72 134.26 543.70 137.54 539.54 140.61 C 541.13 135.39 542.92 130.23 544.47 124.99 C 540.21 122.21 535.90 119.48 531.71 116.57 C 536.93 116.53 542.15 116.57 547.37 116.55 C 548.81 111.49 550.12 106.39 551.82 101.41 Z" />
<path fill="#ffffff" opacity="1.00" d=" M 342.69 145.98 C 346.15 149.52 349.37 153.30 352.69 156.99 C 357.53 155.05 362.12 152.57 366.85 150.40 C 364.52 154.99 361.99 159.47 359.51 163.99 C 362.91 167.87 366.12 171.91 369.41 175.89 C 364.31 175.67 359.46 173.22 354.38 173.43 C 351.52 177.54 349.31 182.06 346.82 186.40 C 346.10 181.21 345.47 176.01 345.19 170.78 C 340.12 169.50 334.98 168.55 329.94 167.15 C 334.55 165.19 339.13 163.17 343.73 161.18 C 343.59 156.10 343.37 151.02 342.69 145.98 Z" />
<path fill="#ffffff" opacity="1.00" d=" M 555.11 159.89 C 558.55 155.71 562.19 151.69 565.67 147.54 C 565.37 153.01 564.88 158.47 564.67 163.95 C 568.98 165.91 573.42 167.65 577.48 170.13 C 572.63 171.08 567.78 171.95 562.92 172.83 C 562.52 178.07 562.17 183.32 561.80 188.58 C 559.18 184.16 556.58 179.73 554.08 175.24 C 548.82 176.02 543.64 177.26 538.50 178.58 C 541.64 174.49 545.32 170.86 548.87 167.14 C 546.30 162.80 543.71 158.47 541.25 154.06 C 545.99 155.73 550.48 157.96 555.11 159.89 Z" />
<path fill="#ffffff" opacity="1.00" d=" M 360.28 197.83 C 363.79 194.07 366.82 189.88 370.57 186.34 C 370.26 191.32 369.59 196.27 369.43 201.26 C 374.04 203.45 378.73 205.49 383.13 208.10 C 377.96 208.88 372.81 209.86 367.66 210.78 C 367.54 216.04 367.12 221.28 366.47 226.50 C 363.55 222.27 360.96 217.83 358.21 213.50 C 353.51 214.52 348.81 215.50 344.03 216.03 C 347.06 212.10 350.35 208.39 353.74 204.78 C 351.47 200.18 348.88 195.76 346.55 191.20 C 351.18 193.30 355.76 195.50 360.28 197.83 Z" />
<path fill="#ffffff" opacity="1.00" d=" M 534.75 188.80 C 538.25 192.51 541.77 196.21 545.22 199.97 C 549.90 197.84 554.49 195.52 559.16 193.35 C 556.89 197.91 554.31 202.31 552.02 206.86 C 555.40 210.48 558.77 214.14 561.97 217.93 C 557.14 216.98 552.36 215.85 547.61 214.58 C 544.73 219.17 542.06 223.90 539.15 228.48 C 538.56 223.52 538.05 218.56 537.50 213.60 C 532.47 212.58 527.40 211.81 522.37 210.80 C 526.74 207.84 531.88 206.37 536.39 203.65 C 535.73 198.71 535.18 193.76 534.75 188.80 Z" />
<path fill="#ffffff" opacity="1.00" d=" M 393.18 215.66 C 395.08 220.61 396.45 225.73 397.91 230.82 C 403.33 230.79 408.76 230.74 414.18 230.87 C 409.81 233.79 405.51 236.80 401.21 239.82 C 402.90 244.74 404.69 249.64 406.05 254.67 C 401.56 252.21 397.85 248.28 393.13 246.33 C 388.92 248.61 385.26 251.75 381.20 254.27 C 382.66 249.57 384.44 244.98 386.01 240.31 C 381.74 237.13 377.45 233.98 373.14 230.86 C 378.36 230.62 383.60 231.08 388.80 230.60 C 390.66 225.75 391.83 220.67 393.18 215.66 Z" />
<path fill="#ffffff" opacity="1.00" d=" M 514.47 217.65 C 516.33 222.52 517.61 227.58 519.09 232.58 C 524.42 232.57 529.74 232.51 535.07 232.66 C 530.83 235.58 526.58 238.48 522.40 241.47 C 523.76 246.33 525.02 251.21 526.36 256.08 C 522.29 253.27 518.71 249.77 514.42 247.31 C 510.03 250.09 506.06 253.48 501.84 256.50 C 503.09 251.28 504.66 246.14 506.17 240.99 C 502.14 238.15 498.02 235.44 493.96 232.66 C 499.12 232.52 504.29 232.58 509.45 232.57 C 511.17 227.61 512.73 222.60 514.47 217.65 Z" />
<path fill="#ffffff" opacity="1.00" d=" M 421.73 234.44 C 425.45 238.40 428.77 242.70 432.50 246.65 C 437.03 244.44 441.53 242.15 446.15 240.13 C 443.76 244.61 441.16 248.97 438.52 253.31 C 441.98 257.51 445.66 261.53 449.09 265.77 C 443.95 264.79 438.89 263.42 433.73 262.55 C 431.02 266.15 429.37 270.41 427.15 274.31 C 426.82 274.45 426.14 274.74 425.81 274.88 C 425.80 270.01 425.50 265.16 425.20 260.31 C 420.04 259.05 414.82 258.08 409.67 256.83 C 414.15 254.36 418.80 252.23 423.42 250.04 C 422.83 244.85 422.38 239.63 421.73 234.44 Z" />
<path fill="#ffffff" opacity="1.00" d=" M 472.25 247.84 C 475.64 244.11 478.79 240.16 482.44 236.68 C 481.91 241.88 481.59 247.09 481.32 252.31 C 486.01 254.14 490.77 255.83 495.38 257.87 C 490.37 259.19 485.27 260.17 480.19 261.22 C 479.57 266.46 479.06 271.71 478.46 276.95 C 475.99 272.50 473.59 268.02 471.21 263.53 C 465.98 264.58 460.79 265.77 455.57 266.81 C 459.01 262.71 462.41 258.59 466.10 254.71 C 463.50 250.49 460.55 246.51 457.90 242.33 C 462.71 244.08 467.48 245.96 472.25 247.84 Z" />
</g>
<g id="#3b5aa3ff">
<path fill="#3b5aa3" opacity="1.00" d=" M 26.82 0.00 L 124.20 0.00 C 124.22 15.04 124.20 30.08 124.21 45.12 C 120.63 43.22 116.95 41.55 113.26 39.88 C 84.45 26.59 55.65 13.27 26.82 0.00 Z" />
<path fill="#3b5aa3" opacity="1.00" d=" M 176.56 0.00 L 277.99 0.00 C 244.16 14.99 210.37 30.07 176.53 45.04 C 176.61 30.03 176.56 15.01 176.56 0.00 Z" />
<path fill="#3b5aa3" opacity="1.00" d=" M 301.57 0.00 L 604.00 0.00 L 604.00 302.00 L 0.00 302.00 L 0.00 150.33 C 0.43 150.12 1.29 149.71 1.72 149.51 L -0.31 150.85 C 5.02 150.86 10.36 150.84 15.69 150.63 C 18.87 150.56 22.21 150.79 25.14 149.29 C 58.10 134.37 91.24 119.82 124.19 104.85 C 124.21 120.07 124.24 135.30 124.17 150.52 C 127.91 150.55 131.65 150.55 135.39 150.71 C 145.65 151.22 155.95 151.28 166.20 150.72 C 169.66 150.54 173.13 150.55 176.59 150.52 C 176.56 135.32 176.55 120.11 176.59 104.91 C 206.46 118.48 236.16 132.42 265.96 146.12 C 270.16 147.88 274.15 150.87 278.92 150.60 C 286.23 150.59 293.55 150.56 300.86 150.49 C 301.21 150.52 301.92 150.58 302.27 150.61 C 302.20 147.16 302.55 143.59 301.41 140.27 C 300.66 139.06 298.89 138.77 297.71 138.01 C 276.84 128.42 256.05 118.66 235.20 109.01 C 229.63 106.30 223.83 104.05 218.48 100.88 C 246.18 100.68 273.87 100.88 301.57 100.80 C 301.55 97.36 301.51 93.92 301.68 90.48 C 302.34 80.12 302.54 69.71 301.76 59.35 C 301.53 55.82 301.54 52.28 301.51 48.74 C 272.55 48.66 243.59 48.92 214.63 48.60 C 243.60 37.19 272.61 25.89 301.56 14.41 C 301.56 9.60 301.56 4.80 301.57 0.00 M 448.69 43.71 C 443.61 44.73 438.21 43.82 433.00 44.17 C 437.26 47.11 441.47 50.11 445.78 52.98 C 444.54 58.07 442.86 63.04 441.47 68.10 C 445.43 65.04 449.24 61.82 453.14 58.69 C 457.43 61.67 461.66 64.74 466.03 67.59 C 464.55 62.73 462.99 57.89 461.57 53.01 C 465.48 50.08 469.36 47.12 473.21 44.12 C 468.17 44.14 463.14 44.16 458.10 44.07 C 456.61 39.03 454.91 34.06 453.24 29.09 C 451.48 33.89 450.45 38.92 448.69 43.71 M 494.37 51.11 C 489.39 49.21 484.53 47.03 479.62 44.97 C 482.40 49.50 485.25 53.99 488.04 58.53 C 484.70 62.19 481.33 65.82 478.08 69.56 C 482.89 68.56 487.67 67.43 492.45 66.31 C 495.31 70.74 497.92 75.34 501.00 79.63 C 501.39 74.61 501.63 69.59 502.16 64.58 C 506.88 63.51 511.61 62.46 516.28 61.17 C 511.77 59.01 507.16 57.10 502.60 55.07 C 503.42 49.89 504.17 44.70 504.85 39.50 C 501.24 43.26 497.77 47.15 494.37 51.11 M 402.22 39.86 C 402.45 44.94 403.12 49.98 403.75 55.02 C 398.86 57.27 393.94 59.44 389.14 61.86 C 394.20 62.75 399.26 63.67 404.30 64.69 C 404.95 69.98 405.55 75.29 406.65 80.51 C 409.17 75.83 411.41 71.00 413.89 66.29 C 418.99 67.47 424.10 68.64 429.26 69.54 C 425.90 65.81 422.31 62.29 418.88 58.62 C 421.37 53.99 424.09 49.48 426.73 44.93 C 421.83 47.00 416.91 49.01 412.06 51.20 C 408.80 47.41 405.66 43.50 402.22 39.86 M 373.34 74.74 C 369.03 72.61 364.66 70.60 360.26 68.66 C 362.52 73.17 364.89 77.62 367.45 81.96 C 364.04 85.96 360.39 89.74 356.90 93.67 C 362.08 92.78 367.21 91.64 372.31 90.39 C 375.03 94.87 377.51 99.49 380.41 103.86 C 380.60 98.66 381.09 93.48 381.53 88.29 C 386.67 87.03 391.86 86.02 397.03 84.89 C 392.48 82.74 387.85 80.80 383.26 78.76 C 383.46 73.78 383.69 68.81 384.36 63.87 C 380.43 67.24 377.17 71.28 373.34 74.74 M 522.13 65.22 C 522.67 70.68 523.75 76.08 523.98 81.57 C 519.50 83.54 514.90 85.26 510.67 87.73 C 515.30 88.82 519.93 89.91 524.61 90.83 C 525.70 95.88 526.26 101.03 527.16 106.13 C 529.53 101.72 531.91 97.32 534.28 92.91 C 539.16 93.63 543.91 95.00 548.76 95.91 C 545.49 91.99 542.13 88.15 538.84 84.24 C 541.54 79.98 544.18 75.68 546.64 71.27 C 542.00 73.41 537.29 75.36 532.67 77.52 C 529.18 73.40 525.60 69.36 522.13 65.22 M 350.47 113.78 C 345.30 113.74 340.12 113.75 334.94 113.74 C 338.83 117.01 342.82 120.15 346.95 123.10 C 345.92 128.15 344.16 132.99 342.64 137.90 C 346.85 134.84 350.93 131.62 355.01 128.40 C 359.23 131.61 363.48 134.79 367.77 137.90 C 366.69 132.59 364.40 127.54 363.69 122.16 C 367.34 119.17 371.42 116.76 375.03 113.71 C 369.99 113.76 364.96 113.78 359.93 113.70 C 358.37 108.72 356.73 103.77 355.07 98.83 C 353.37 103.76 352.10 108.82 350.47 113.78 M 551.82 101.41 C 550.12 106.39 548.81 111.49 547.37 116.55 C 542.15 116.57 536.93 116.53 531.71 116.57 C 535.90 119.48 540.21 122.21 544.47 124.99 C 542.92 130.23 541.13 135.39 539.54 140.61 C 543.70 137.54 547.72 134.26 551.88 131.18 C 556.06 134.20 560.29 137.16 564.59 140.02 C 563.05 134.96 561.28 129.98 559.68 124.94 C 563.76 122.22 567.86 119.53 571.77 116.55 C 566.95 116.54 562.14 116.59 557.33 116.51 C 555.60 111.43 553.92 106.34 551.82 101.41 M 342.69 145.98 C 343.37 151.02 343.59 156.10 343.73 161.18 C 339.13 163.17 334.55 165.19 329.94 167.15 C 334.98 168.55 340.12 169.50 345.19 170.78 C 345.47 176.01 346.10 181.21 346.82 186.40 C 349.31 182.06 351.52 177.54 354.38 173.43 C 359.46 173.22 364.31 175.67 369.41 175.89 C 366.12 171.91 362.91 167.87 359.51 163.99 C 361.99 159.47 364.52 154.99 366.85 150.40 C 362.12 152.57 357.53 155.05 352.69 156.99 C 349.37 153.30 346.15 149.52 342.69 145.98 M 555.11 159.89 C 550.48 157.96 545.99 155.73 541.25 154.06 C 543.71 158.47 546.30 162.80 548.87 167.14 C 545.32 170.86 541.64 174.49 538.50 178.58 C 543.64 177.26 548.82 176.02 554.08 175.24 C 556.58 179.73 559.18 184.16 561.80 188.58 C 562.17 183.32 562.52 178.07 562.92 172.83 C 567.78 171.95 572.63 171.08 577.48 170.13 C 573.42 167.65 568.98 165.91 564.67 163.95 C 564.88 158.47 565.37 153.01 565.67 147.54 C 562.19 151.69 558.55 155.71 555.11 159.89 M 360.28 197.83 C 355.76 195.50 351.18 193.30 346.55 191.20 C 348.88 195.76 351.47 200.18 353.74 204.78 C 350.35 208.39 347.06 212.10 344.03 216.03 C 348.81 215.50 353.51 214.52 358.21 213.50 C 360.96 217.83 363.55 222.27 366.47 226.50 C 367.12 221.28 367.54 216.04 367.66 210.78 C 372.81 209.86 377.96 208.88 383.13 208.10 C 378.73 205.49 374.04 203.45 369.43 201.26 C 369.59 196.27 370.26 191.32 370.57 186.34 C 366.82 189.88 363.79 194.07 360.28 197.83 M 534.75 188.80 C 535.18 193.76 535.73 198.71 536.39 203.65 C 531.88 206.37 526.74 207.84 522.37 210.80 C 527.40 211.81 532.47 212.58 537.50 213.60 C 538.05 218.56 538.56 223.52 539.15 228.48 C 542.06 223.90 544.73 219.17 547.61 214.58 C 552.36 215.85 557.14 216.98 561.97 217.93 C 558.77 214.14 555.40 210.48 552.02 206.86 C 554.31 202.31 556.89 197.91 559.16 193.35 C 554.49 195.52 549.90 197.84 545.22 199.97 C 541.77 196.21 538.25 192.51 534.75 188.80 M 393.18 215.66 C 391.83 220.67 390.66 225.75 388.80 230.60 C 383.60 231.08 378.36 230.62 373.14 230.86 C 377.45 233.98 381.74 237.13 386.01 240.31 C 384.44 244.98 382.66 249.57 381.20 254.27 C 385.26 251.75 388.92 248.61 393.13 246.33 C 397.85 248.28 401.56 252.21 406.05 254.67 C 404.69 249.64 402.90 244.74 401.21 239.82 C 405.51 236.80 409.81 233.79 414.18 230.87 C 408.76 230.74 403.33 230.79 397.91 230.82 C 396.45 225.73 395.08 220.61 393.18 215.66 M 514.47 217.65 C 512.73 222.60 511.17 227.61 509.45 232.57 C 504.29 232.58 499.12 232.52 493.96 232.66 C 498.02 235.44 502.14 238.15 506.17 240.99 C 504.66 246.14 503.09 251.28 501.84 256.50 C 506.06 253.48 510.03 250.09 514.42 247.31 C 518.71 249.77 522.29 253.27 526.36 256.08 C 525.02 251.21 523.76 246.33 522.40 241.47 C 526.58 238.48 530.83 235.58 535.07 232.66 C 529.74 232.51 524.42 232.57 519.09 232.58 C 517.61 227.58 516.33 222.52 514.47 217.65 M 421.73 234.44 C 422.38 239.63 422.83 244.85 423.42 250.04 C 418.80 252.23 414.15 254.36 409.67 256.83 C 414.82 258.08 420.04 259.05 425.20 260.31 C 425.50 265.16 425.80 270.01 425.81 274.88 C 426.14 274.74 426.82 274.45 427.15 274.31 C 429.37 270.41 431.02 266.15 433.73 262.55 C 438.89 263.42 443.95 264.79 449.09 265.77 C 445.66 261.53 441.98 257.51 438.52 253.31 C 441.16 248.97 443.76 244.61 446.15 240.13 C 441.53 242.15 437.03 244.44 432.50 246.65 C 428.77 242.70 425.45 238.40 421.73 234.44 M 472.25 247.84 C 467.48 245.96 462.71 244.08 457.90 242.33 C 460.55 246.51 463.50 250.49 466.10 254.71 C 462.41 258.59 459.01 262.71 455.57 266.81 C 460.79 265.77 465.98 264.58 471.21 263.53 C 473.59 268.02 475.99 272.50 478.46 276.95 C 479.06 271.71 479.57 266.46 480.19 261.22 C 485.27 260.17 490.37 259.19 495.38 257.87 C 490.77 255.83 486.01 254.14 481.32 252.31 C 481.59 247.09 481.91 241.88 482.44 236.68 C 478.79 240.16 475.64 244.11 472.25 247.84 Z" />
<path fill="#3b5aa3" opacity="1.00" d=" M 0.00 10.43 C 26.41 23.09 52.81 35.80 79.13 48.66 C 52.75 48.86 26.38 48.68 0.00 48.76 L 0.00 10.43 Z" />
<path fill="#3b5aa3" opacity="1.00" d=" M 0.00 100.93 C 28.51 100.59 57.04 100.96 85.55 100.75 C 85.59 101.06 85.66 101.67 85.69 101.97 C 62.75 110.50 40.07 119.72 17.24 128.52 C 11.50 130.86 5.60 132.81 0.00 135.47 L 0.00 100.93 Z" />
</g>
</svg>
