<?xml version="1.0" encoding="UTF-8" ?>
<!DOCTYPE svg PUBLIC "-//W3C//DTD SVG 1.1//EN" "http://www.w3.org/Graphics/SVG/1.1/DTD/svg11.dtd">
<svg width="536pt" height="302pt" viewBox="0 0 536 302" version="1.1" xmlns="http://www.w3.org/2000/svg">
<g id="#ffffffff">
<path fill="#ffffff" opacity="1.00" d=" M 0.00 0.00 L 1.00 0.00 C 1.13 23.32 0.71 46.65 1.28 69.97 C 1.21 122.98 1.28 175.99 1.24 229.00 C 1.58 253.33 1.66 277.67 1.32 302.00 L 0.00 302.00 L 0.00 0.00 Z" />
<path fill="#ffffff" opacity="1.00" d=" M 534.75 0.00 L 536.00 0.00 L 536.00 302.00 L 535.00 302.00 C 534.82 281.88 535.37 261.74 534.72 241.63 L 534.72 241.32 C 534.78 181.47 534.75 121.62 534.74 61.77 C 534.76 41.18 534.74 20.59 534.75 0.00 Z" />
<path fill="#ffffff" opacity="1.00" d=" M 1.64 61.77 C 179.16 61.74 356.68 61.74 534.20 61.77 C 534.25 121.63 534.34 181.51 534.15 241.37 C 477.12 241.67 420.08 241.41 363.04 241.50 C 242.68 241.49 122.31 241.51 1.95 241.49 C 1.58 230.99 1.81 220.48 1.76 209.98 C 1.68 160.57 1.91 111.17 1.64 61.77 M 250.08 70.66 C 250.42 72.86 250.84 75.04 251.28 77.23 C 252.95 74.19 255.05 71.39 257.90 69.37 C 255.30 69.86 252.69 70.25 250.08 70.66 M 252.68 83.97 C 252.67 99.51 253.11 115.04 253.08 130.59 C 262.62 133.22 272.03 136.31 281.56 138.99 C 281.52 125.92 281.58 112.84 281.53 99.77 C 277.25 97.51 272.87 94.89 270.21 90.72 C 267.47 86.82 268.83 81.10 272.42 78.22 C 275.95 75.12 280.83 74.72 285.32 74.68 C 278.78 71.37 271.31 69.12 263.94 69.98 C 257.24 70.70 252.23 77.39 252.68 83.97 M 225.45 80.21 C 233.73 94.53 242.03 108.84 250.52 123.04 C 250.41 112.67 250.63 102.29 250.42 91.91 C 249.06 85.17 246.76 78.64 245.00 71.99 C 238.18 73.96 231.66 76.80 225.45 80.21 M 289.28 72.29 C 288.90 75.51 293.52 75.55 295.26 77.55 C 292.93 77.40 290.60 77.19 288.27 76.96 C 286.41 83.69 284.42 90.39 282.63 97.14 C 284.03 106.09 282.84 115.26 283.27 124.31 C 292.26 109.84 300.67 95.00 309.20 80.25 C 302.90 76.94 296.39 73.33 289.28 72.29 M 274.72 78.72 C 271.95 80.35 270.07 83.71 270.60 86.93 C 271.83 91.21 275.69 94.04 279.39 96.13 C 280.69 89.55 282.16 83.00 283.52 76.43 C 280.53 76.86 277.33 77.02 274.72 78.72 M 207.26 94.93 C 224.23 110.73 240.78 126.98 257.99 142.51 C 258.43 142.04 259.32 141.08 259.77 140.60 C 257.86 136.70 255.47 132.22 250.62 131.86 C 250.40 129.42 251.05 126.63 249.31 124.60 C 239.87 110.78 230.57 96.87 221.10 83.07 C 216.09 86.53 211.39 90.45 207.26 94.93 M 284.69 125.64 C 282.17 128.67 283.59 132.85 283.27 136.42 C 298.21 122.82 312.68 108.69 327.47 94.92 C 323.33 90.44 318.57 86.59 313.64 83.03 C 303.93 97.19 294.36 111.45 284.69 125.64 M 195.15 111.35 C 205.91 117.41 216.70 123.43 227.53 129.34 C 231.79 130.30 236.28 129.53 240.62 129.71 C 240.73 132.05 240.77 134.40 240.80 136.75 C 243.66 138.23 246.31 140.40 249.60 140.81 C 249.79 141.26 250.17 142.15 250.36 142.60 C 251.14 142.55 252.70 142.45 253.49 142.40 C 254.80 143.56 256.10 144.75 257.37 145.97 C 256.16 147.19 254.95 148.41 253.74 149.62 C 253.24 149.25 252.24 148.51 251.73 148.14 C 252.48 147.57 253.97 146.43 254.71 145.86 C 253.78 145.01 252.85 144.17 251.92 143.33 C 251.01 144.05 250.11 144.79 249.21 145.52 C 249.90 146.62 251.84 147.97 250.17 149.27 C 248.41 147.71 245.20 145.22 249.41 143.98 C 248.94 143.52 248.49 143.07 248.03 142.62 C 247.57 143.26 246.64 144.53 246.18 145.16 C 244.89 144.07 243.68 142.89 242.47 141.73 C 243.16 141.50 244.54 141.03 245.23 140.80 C 243.75 140.04 242.27 139.28 240.80 138.52 C 240.78 139.62 240.73 141.83 240.70 142.94 C 240.99 142.76 241.56 142.41 241.84 142.23 C 242.92 143.60 244.14 144.86 245.35 146.11 C 244.05 147.38 242.71 148.62 241.11 149.51 C 241.17 147.76 241.66 146.07 241.75 144.33 C 241.55 144.27 241.14 144.15 240.94 144.09 C 240.24 146.51 240.03 149.03 240.71 151.50 C 260.31 151.51 279.91 151.50 299.51 151.50 C 299.49 149.49 299.48 147.49 299.47 145.49 L 297.41 145.73 C 297.89 146.32 298.86 147.49 299.35 148.08 C 299.06 148.39 298.48 149.00 298.19 149.30 C 297.08 148.20 295.97 147.10 294.86 146.00 C 296.00 144.86 297.15 143.73 298.30 142.60 L 299.43 143.63 C 299.49 141.07 299.52 138.52 299.54 135.97 C 295.47 137.87 291.35 139.68 287.32 141.66 C 286.17 141.93 285.96 143.06 286.67 143.95 C 284.56 145.35 286.36 147.12 287.56 148.32 L 286.33 149.39 C 285.19 148.30 284.06 147.20 282.93 146.10 C 284.09 145.03 285.06 143.79 285.51 142.27 C 284.65 142.97 282.93 144.38 282.06 145.09 C 280.75 143.85 279.44 142.62 277.90 141.68 C 278.74 143.33 279.98 144.72 281.24 146.08 C 280.11 147.25 278.98 148.43 277.87 149.62 L 277.33 149.22 C 277.02 148.28 276.70 147.33 276.39 146.39 C 276.90 146.39 277.92 146.38 278.43 146.37 C 277.70 145.38 276.97 144.39 276.26 143.39 C 277.22 142.37 278.18 141.36 279.15 140.35 C 278.27 140.09 276.52 139.58 275.65 139.32 C 275.28 139.81 274.55 140.78 274.19 141.27 C 274.30 140.71 274.54 139.59 274.65 139.03 C 273.32 138.65 271.98 138.28 270.65 137.91 C 270.36 141.12 274.29 141.20 275.14 144.03 C 274.66 144.47 273.70 145.36 273.21 145.80 C 273.75 146.34 274.83 147.43 275.37 147.97 C 274.28 149.05 273.19 150.12 272.08 151.17 C 271.34 150.45 270.61 149.73 269.88 149.02 C 269.16 149.74 268.45 150.46 267.73 151.19 C 267.45 150.93 266.90 150.41 266.62 150.14 C 268.15 148.47 271.12 145.08 272.01 149.40 C 272.48 148.94 272.94 148.48 273.41 148.02 C 270.63 146.68 270.63 145.33 273.41 143.97 C 272.94 143.52 272.47 143.07 272.01 142.62 C 271.06 147.33 267.99 142.91 266.23 141.70 L 267.36 140.68 C 268.24 141.06 270.01 141.80 270.89 142.18 C 270.71 141.07 270.34 138.86 270.16 137.75 C 268.05 137.09 265.95 136.46 263.84 135.84 C 264.17 137.65 264.51 139.47 264.73 141.31 C 264.05 139.37 263.45 137.41 262.84 135.46 C 260.82 134.89 258.80 134.33 256.78 133.78 C 258.31 136.51 259.72 139.32 261.65 141.81 C 260.43 142.91 259.23 144.03 258.03 145.15 C 256.74 144.30 255.92 142.16 254.21 142.20 L 255.22 141.19 C 238.16 126.98 221.00 112.89 203.89 98.73 C 200.57 102.64 197.76 106.94 195.15 111.35 M 284.75 136.78 C 283.39 137.59 283.16 139.12 283.05 140.56 C 283.74 140.77 285.11 141.17 285.79 141.37 C 290.21 138.75 294.70 136.24 299.28 133.90 C 299.40 132.50 299.54 131.11 299.67 129.72 C 302.40 129.58 305.42 130.36 307.94 128.98 C 318.45 123.19 328.85 117.18 339.46 111.58 C 337.24 106.91 334.07 102.79 330.93 98.72 C 315.45 111.30 300.15 124.09 284.75 136.78 M 192.91 115.95 C 190.42 120.82 188.73 126.06 187.30 131.32 C 200.94 134.84 214.58 138.35 228.26 141.70 C 228.24 138.73 228.24 135.76 228.31 132.80 C 216.61 126.99 204.66 121.66 192.91 115.95 M 312.23 129.99 C 312.26 133.37 312.25 136.74 312.22 140.12 C 324.03 137.46 335.74 134.34 347.45 131.27 C 345.99 126.03 344.19 120.88 341.91 115.94 C 332.02 120.63 322.08 125.20 312.23 129.99 M 230.51 131.70 C 229.90 143.47 230.31 155.27 230.22 167.05 C 230.19 172.55 231.80 179.12 237.30 181.60 C 241.87 183.55 248.12 183.70 251.70 179.74 C 255.75 175.30 257.43 169.26 258.30 163.45 C 255.22 166.20 252.26 169.57 248.02 170.40 C 243.20 171.27 238.63 166.71 238.82 161.96 C 238.76 151.89 238.80 141.81 238.82 131.74 C 236.05 131.70 233.28 131.70 230.51 131.70 M 301.71 131.71 C 301.61 141.85 301.87 152.00 301.60 162.13 C 301.66 166.90 296.94 171.36 292.13 170.37 C 288.00 169.44 285.11 166.07 281.91 163.58 C 283.43 170.36 285.30 178.60 292.04 182.08 C 296.94 183.77 303.36 183.00 306.75 178.71 C 309.19 175.75 310.10 171.81 310.03 168.03 C 309.98 155.92 310.01 143.81 310.00 131.71 C 307.23 131.70 304.47 131.70 301.71 131.71 M 186.11 136.55 C 185.43 141.50 184.83 146.48 184.97 151.49 C 199.40 151.50 213.82 151.51 228.25 151.49 C 228.25 149.03 228.25 146.58 228.26 144.12 C 214.19 141.68 200.21 138.77 186.11 136.55 M 312.22 143.09 C 312.21 145.92 312.24 148.75 312.38 151.58 C 324.87 151.33 337.37 151.69 349.86 151.40 C 349.79 146.39 349.35 141.39 348.54 136.45 C 336.42 138.58 324.33 140.87 312.22 143.09 M 245.23 140.80 C 244.65 144.16 248.43 140.07 245.23 140.80 M 281.23 141.27 C 281.76 141.81 281.76 141.81 281.23 141.27 M 240.24 153.85 C 249.16 154.19 258.09 153.91 267.01 154.00 C 278.12 153.81 289.25 154.39 300.33 153.70 C 298.93 153.19 297.46 152.88 295.97 152.97 C 278.99 153.02 262.02 153.02 245.04 152.97 C 243.42 153.05 241.59 152.70 240.24 153.85 M 185.32 156.17 C 184.63 160.24 186.10 164.42 186.54 168.50 C 200.46 168.43 214.39 168.64 228.31 168.39 C 228.21 163.79 228.28 159.18 228.22 154.57 C 223.27 156.19 218.89 159.04 214.34 161.48 C 212.30 162.47 209.72 163.86 207.56 162.41 C 203.36 159.59 200.41 154.33 194.92 153.84 C 191.62 153.72 188.10 154.28 185.32 156.17 M 261.24 156.93 C 260.78 160.81 260.28 164.68 259.53 168.51 C 266.66 168.47 273.79 168.55 280.93 168.46 C 280.53 166.48 280.15 164.48 279.79 162.49 C 273.39 161.23 268.10 155.42 261.24 156.93 M 328.15 161.91 C 322.49 162.62 317.31 159.83 312.26 157.72 C 312.21 161.35 312.19 164.98 312.40 168.61 C 324.30 168.36 336.20 168.57 348.09 168.50 C 348.78 164.96 349.35 161.40 349.56 157.80 C 346.11 157.14 342.45 155.90 339.02 157.25 C 335.38 158.76 332.21 161.56 328.15 161.91 M 249.10 161.87 C 246.09 162.37 243.29 161.01 240.63 159.82 C 240.35 163.74 242.49 168.47 246.96 168.54 C 252.73 167.32 256.36 162.19 259.98 157.97 C 256.40 159.38 253.03 161.62 249.10 161.87 M 284.21 162.63 C 287.41 165.57 292.06 170.53 296.64 167.42 C 300.04 165.38 299.55 161.04 299.52 157.65 C 294.44 159.39 289.48 161.54 284.21 162.63 M 187.35 171.71 C 188.22 175.67 189.63 179.47 191.08 183.25 C 202.39 183.25 213.71 183.26 225.03 183.25 C 228.36 183.22 231.72 183.50 235.02 182.91 C 231.48 180.42 229.56 176.49 228.40 172.44 C 222.48 173.78 217.01 176.82 210.99 177.61 C 204.91 176.67 199.80 172.89 194.04 171.00 C 191.81 170.25 189.54 171.31 187.35 171.71 M 257.32 175.54 C 255.26 178.13 253.64 181.10 251.07 183.27 C 263.77 183.20 276.47 183.31 289.16 183.22 C 285.82 180.59 284.76 175.13 279.95 174.75 C 275.65 173.75 271.37 172.14 266.90 172.32 C 263.55 172.76 260.30 173.96 257.32 175.54 M 311.99 171.89 C 311.15 176.40 308.78 180.54 305.05 183.27 C 317.96 183.19 330.86 183.35 343.77 183.19 C 345.01 179.52 346.39 175.90 347.26 172.12 C 339.71 171.68 333.57 177.64 326.09 177.41 C 321.08 176.27 317.59 171.11 311.99 171.89 M 249.93 192.27 C 242.22 192.16 235.80 186.40 228.02 186.49 C 221.44 186.62 216.49 192.08 209.98 192.46 C 203.87 192.21 198.30 189.37 192.79 186.99 C 194.35 190.17 196.20 193.20 198.00 196.24 C 244.29 196.26 290.58 196.25 336.87 196.24 C 338.47 193.46 340.07 190.67 341.56 187.82 C 335.59 188.64 330.10 191.77 323.99 191.78 C 317.48 191.90 311.47 188.93 305.07 188.28 C 298.66 187.58 293.30 192.30 286.94 192.25 C 279.07 192.75 273.68 185.01 265.89 185.24 C 259.70 185.36 255.91 191.59 249.93 192.27 M 224.90 205.01 C 220.12 204.87 216.83 200.45 212.09 200.30 C 208.78 199.95 206.24 202.47 203.54 203.94 C 205.32 206.00 207.14 208.03 209.03 210.01 C 247.99 210.00 286.95 210.00 325.92 210.01 C 328.76 207.08 331.49 204.05 334.00 200.83 C 328.74 199.06 322.68 199.17 317.75 201.89 C 313.49 204.15 308.45 206.63 303.61 204.54 C 299.52 202.55 295.84 199.00 290.94 199.45 C 283.76 198.97 278.93 205.82 271.99 206.21 C 264.07 205.98 257.94 199.42 249.99 199.29 C 241.26 199.50 233.84 206.35 224.90 205.01 M 281.62 215.68 C 277.02 220.30 269.67 219.15 264.35 216.50 C 260.22 214.40 255.52 213.48 250.90 214.11 C 246.23 214.51 243.81 219.82 239.05 220.07 C 230.35 221.10 222.34 216.83 214.19 214.60 C 222.88 222.42 233.70 227.79 244.82 231.25 C 266.40 237.86 290.31 233.87 309.62 222.60 C 313.94 219.97 318.40 217.32 321.75 213.45 C 316.72 213.79 313.08 218.24 307.98 218.28 C 302.85 217.99 298.48 214.87 293.60 213.59 C 289.56 212.55 284.67 212.36 281.62 215.68 Z" />
<path fill="#ffffff" opacity="1.00" d=" M 291.35 140.66 C 292.25 141.16 293.14 141.67 294.03 142.20 C 294.53 141.78 295.52 140.93 296.02 140.51 C 296.38 140.84 297.11 141.51 297.48 141.84 C 296.36 142.97 295.24 144.09 294.13 145.21 C 292.87 144.01 291.62 142.81 290.37 141.62 L 291.35 140.66 Z" />
<path fill="#ffffff" opacity="1.00" d=" M 264.63 143.22 C 264.89 142.97 265.40 142.47 265.66 142.22 C 266.88 143.49 268.10 144.76 269.33 146.03 C 268.17 147.17 267.01 148.30 265.86 149.44 C 265.49 149.10 264.77 148.42 264.40 148.09 C 264.89 147.55 265.88 146.47 266.37 145.93 C 265.77 145.03 265.19 144.13 264.63 143.22 Z" />
<path fill="#ffffff" opacity="1.00" d=" M 262.26 142.65 L 262.93 143.59 C 262.43 144.34 261.93 145.08 261.42 145.82 C 261.86 146.38 262.73 147.50 263.17 148.06 C 262.93 148.37 262.44 148.99 262.19 149.30 C 261.08 148.20 259.97 147.10 258.86 146.00 C 259.99 144.88 261.12 143.76 262.26 142.65 Z" />
<path fill="#ffffff" opacity="1.00" d=" M 288.90 143.31 L 289.79 142.25 C 290.95 143.51 292.13 144.77 293.30 146.03 C 292.17 147.18 291.04 148.33 289.92 149.48 L 289.48 148.78 C 289.20 148.13 288.63 146.82 288.34 146.17 L 290.20 145.97 C 289.75 145.09 289.32 144.20 288.90 143.31 Z" />
<path fill="#ffffff" opacity="1.00" d=" M 246.10 146.74 C 247.17 147.84 248.24 148.94 249.31 150.05 L 248.06 150.93 C 247.51 150.49 246.39 149.61 245.83 149.18 C 245.02 149.83 244.20 150.49 243.39 151.15 L 242.67 150.31 C 243.78 149.09 244.94 147.92 246.10 146.74 Z" />
<path fill="#ffffff" opacity="1.00" d=" M 258.12 146.77 C 259.23 147.88 260.33 149.01 261.44 150.13 L 260.62 150.96 C 259.64 150.51 258.68 150.01 257.72 149.53 C 256.98 149.97 256.26 150.42 255.52 150.84 L 254.62 150.25 C 255.79 149.09 256.95 147.92 258.12 146.77 Z" />
<path fill="#ffffff" opacity="1.00" d=" M 282.15 146.76 C 283.23 147.89 284.31 149.03 285.39 150.18 C 284.07 151.33 282.92 149.95 281.78 149.36 C 281.04 149.85 280.31 150.36 279.56 150.83 L 278.67 150.20 C 279.82 149.05 280.99 147.90 282.15 146.76 Z" />
<path fill="#ffffff" opacity="1.00" d=" M 294.09 146.77 C 295.19 147.87 296.29 148.99 297.40 150.11 L 296.48 150.99 C 295.58 150.46 294.71 149.88 293.84 149.31 C 293.04 149.85 292.25 150.39 291.45 150.91 L 290.64 150.24 C 291.79 149.08 292.93 147.92 294.09 146.77 Z" />
</g>
<g id="#c3667fff">
<path fill="#c3667f" opacity="1.00" d=" M 1.00 0.00 L 1.50 0.00 C 1.71 20.59 1.42 41.18 1.64 61.77 C 1.91 111.17 1.68 160.57 1.76 209.98 C 1.81 220.48 1.58 230.99 1.95 241.49 C 2.08 261.66 1.95 281.83 2.01 302.00 L 1.32 302.00 C 1.66 277.67 1.58 253.33 1.24 229.00 C 1.28 175.99 1.21 122.98 1.28 69.97 C 0.71 46.65 1.13 23.32 1.00 0.00 Z" />
<path fill="#c3667f" opacity="1.00" d=" M 534.20 61.77 L 534.74 61.77 C 534.75 121.62 534.78 181.47 534.72 241.32 L 534.15 241.37 C 534.34 181.51 534.25 121.63 534.20 61.77 Z" />
<path fill="#c3667f" opacity="1.00" d=" M 534.50 302.00 C 534.51 281.88 534.13 261.74 534.72 241.63 C 535.37 261.74 534.82 281.88 535.00 302.00 L 534.50 302.00 Z" />
</g>
<g id="#be0027ff">
<path fill="#be0027" opacity="1.00" d=" M 1.50 0.00 L 534.75 0.00 C 534.74 20.59 534.76 41.18 534.74 61.77 L 534.20 61.77 C 356.68 61.74 179.16 61.74 1.64 61.77 C 1.42 41.18 1.71 20.59 1.50 0.00 Z" />
<path fill="#be0027" opacity="1.00" d=" M 252.68 83.97 C 252.23 77.39 257.24 70.70 263.94 69.98 C 271.31 69.12 278.78 71.37 285.32 74.68 C 280.83 74.72 275.95 75.12 272.42 78.22 C 268.83 81.10 267.47 86.82 270.21 90.72 C 272.87 94.89 277.25 97.51 281.53 99.77 C 281.58 112.84 281.52 125.92 281.56 138.99 C 272.03 136.31 262.62 133.22 253.08 130.59 C 253.11 115.04 252.67 99.51 252.68 83.97 Z" />
<path fill="#be0027" opacity="1.00" d=" M 230.51 131.70 C 233.28 131.70 236.05 131.70 238.82 131.74 C 238.80 141.81 238.76 151.89 238.82 161.96 C 238.63 166.71 243.20 171.27 248.02 170.40 C 252.26 169.57 255.22 166.20 258.30 163.45 C 257.43 169.26 255.75 175.30 251.70 179.74 C 248.12 183.70 241.87 183.55 237.30 181.60 C 231.80 179.12 230.19 172.55 230.22 167.05 C 230.31 155.27 229.90 143.47 230.51 131.70 Z" />
<path fill="#be0027" opacity="1.00" d=" M 301.71 131.71 C 304.47 131.70 307.23 131.70 310.00 131.71 C 310.01 143.81 309.98 155.92 310.03 168.03 C 310.10 171.81 309.19 175.75 306.75 178.71 C 303.36 183.00 296.94 183.77 292.04 182.08 C 285.30 178.60 283.43 170.36 281.91 163.58 C 285.11 166.07 288.00 169.44 292.13 170.37 C 296.94 171.36 301.66 166.90 301.60 162.13 C 301.87 152.00 301.61 141.85 301.71 131.71 Z" />
<path fill="#be0027" opacity="1.00" d=" M 1.95 241.49 C 122.31 241.51 242.68 241.49 363.04 241.50 C 420.08 241.41 477.12 241.67 534.15 241.37 L 534.72 241.32 L 534.72 241.63 C 534.13 261.74 534.51 281.88 534.50 302.00 L 2.01 302.00 C 1.95 281.83 2.08 261.66 1.95 241.49 Z" />
</g>
<g id="#f7f409ff">
<path fill="#f7f409" opacity="1.00" d=" M 250.08 70.66 C 252.69 70.25 255.30 69.86 257.90 69.37 C 255.05 71.39 252.95 74.19 251.28 77.23 C 250.84 75.04 250.42 72.86 250.08 70.66 Z" />
<path fill="#f7f409" opacity="1.00" d=" M 225.45 80.21 C 231.66 76.80 238.18 73.96 245.00 71.99 C 246.76 78.64 249.06 85.17 250.42 91.91 C 250.63 102.29 250.41 112.67 250.52 123.04 C 242.03 108.84 233.73 94.53 225.45 80.21 Z" />
<path fill="#f7f409" opacity="1.00" d=" M 289.28 72.29 C 296.39 73.33 302.90 76.94 309.20 80.25 C 300.67 95.00 292.26 109.84 283.27 124.31 C 282.84 115.26 284.03 106.09 282.63 97.14 C 284.42 90.39 286.41 83.69 288.27 76.96 C 290.60 77.19 292.93 77.40 295.26 77.55 C 293.52 75.55 288.90 75.51 289.28 72.29 Z" />
<path fill="#f7f409" opacity="1.00" d=" M 274.72 78.72 C 277.33 77.02 280.53 76.86 283.52 76.43 C 282.16 83.00 280.69 89.55 279.39 96.13 C 275.69 94.04 271.83 91.21 270.60 86.93 C 270.07 83.71 271.95 80.35 274.72 78.72 Z" />
<path fill="#f7f409" opacity="1.00" d=" M 207.26 94.93 C 211.39 90.45 216.09 86.53 221.10 83.07 C 230.57 96.87 239.87 110.78 249.31 124.60 C 251.05 126.63 250.40 129.42 250.62 131.86 C 255.47 132.22 257.86 136.70 259.77 140.60 C 259.32 141.08 258.43 142.04 257.99 142.51 C 240.78 126.98 224.23 110.73 207.26 94.93 Z" />
<path fill="#f7f409" opacity="1.00" d=" M 284.69 125.64 C 294.36 111.45 303.93 97.19 313.64 83.03 C 318.57 86.59 323.33 90.44 327.47 94.92 C 312.68 108.69 298.21 122.82 283.27 136.42 C 283.59 132.85 282.17 128.67 284.69 125.64 Z" />
<path fill="#f7f409" opacity="1.00" d=" M 195.15 111.35 C 197.76 106.94 200.57 102.64 203.89 98.73 C 221.00 112.89 238.16 126.98 255.22 141.19 L 254.21 142.20 C 254.03 142.25 253.67 142.35 253.49 142.40 C 252.70 142.45 251.14 142.55 250.36 142.60 C 250.17 142.15 249.79 141.26 249.60 140.81 C 246.31 140.40 243.66 138.23 240.80 136.75 C 240.77 134.40 240.73 132.05 240.62 129.71 C 236.28 129.53 231.79 130.30 227.53 129.34 C 216.70 123.43 205.91 117.41 195.15 111.35 Z" />
<path fill="#f7f409" opacity="1.00" d=" M 284.75 136.78 C 300.15 124.09 315.45 111.30 330.93 98.72 C 334.07 102.79 337.24 106.91 339.46 111.58 C 328.85 117.18 318.45 123.19 307.94 128.98 C 305.42 130.36 302.40 129.58 299.67 129.72 C 299.54 131.11 299.40 132.50 299.28 133.90 C 294.70 136.24 290.21 138.75 285.79 141.37 C 285.11 141.17 283.74 140.77 283.05 140.56 C 283.16 139.12 283.39 137.59 284.75 136.78 Z" />
<path fill="#f7f409" opacity="1.00" d=" M 192.91 115.95 C 204.66 121.66 216.61 126.99 228.31 132.80 C 228.24 135.76 228.24 138.73 228.26 141.70 C 214.58 138.35 200.94 134.84 187.30 131.32 C 188.73 126.06 190.42 120.82 192.91 115.95 Z" />
<path fill="#f7f409" opacity="1.00" d=" M 312.23 129.99 C 322.08 125.20 332.02 120.63 341.91 115.94 C 344.19 120.88 345.99 126.03 347.45 131.27 C 335.74 134.34 324.03 137.46 312.22 140.12 C 312.25 136.74 312.26 133.37 312.23 129.99 Z" />
<path fill="#f7f409" opacity="1.00" d=" M 256.78 133.78 C 258.80 134.33 260.82 134.89 262.84 135.46 C 263.45 137.41 264.05 139.37 264.73 141.31 C 264.51 139.47 264.17 137.65 263.84 135.84 C 265.95 136.46 268.05 137.09 270.16 137.75 C 270.34 138.86 270.71 141.07 270.89 142.18 C 270.01 141.80 268.24 141.06 267.36 140.68 L 266.23 141.70 L 265.66 142.22 C 265.40 142.47 264.89 142.97 264.63 143.22 C 265.19 144.13 265.77 145.03 266.37 145.93 C 265.88 146.47 264.89 147.55 264.40 148.09 C 264.77 148.42 265.49 149.10 265.86 149.44 C 266.05 149.61 266.43 149.97 266.62 150.14 C 266.90 150.41 267.45 150.93 267.73 151.19 C 268.45 150.46 269.16 149.74 269.88 149.02 C 270.61 149.73 271.34 150.45 272.08 151.17 C 273.19 150.12 274.28 149.05 275.37 147.97 C 274.83 147.43 273.75 146.34 273.21 145.80 C 273.70 145.36 274.66 144.47 275.14 144.03 C 274.29 141.20 270.36 141.12 270.65 137.91 C 271.98 138.28 273.32 138.65 274.65 139.03 C 274.54 139.59 274.30 140.71 274.19 141.27 C 274.55 140.78 275.28 139.81 275.65 139.32 C 276.52 139.58 278.27 140.09 279.15 140.35 C 278.18 141.36 277.22 142.37 276.26 143.39 C 276.97 144.39 277.70 145.38 278.43 146.37 C 277.92 146.38 276.90 146.39 276.39 146.39 C 276.70 147.33 277.02 148.28 277.33 149.22 L 277.87 149.62 C 278.07 149.77 278.47 150.06 278.67 150.20 L 279.56 150.83 C 280.31 150.36 281.04 149.85 281.78 149.36 C 282.92 149.95 284.07 151.33 285.39 150.18 C 285.62 149.99 286.09 149.59 286.33 149.39 L 287.56 148.32 C 286.36 147.12 284.56 145.35 286.67 143.95 C 285.96 143.06 286.17 141.93 287.32 141.66 C 291.35 139.68 295.47 137.87 299.54 135.97 C 299.52 138.52 299.49 141.07 299.43 143.63 L 298.30 142.60 C 298.10 142.41 297.68 142.03 297.48 141.84 C 297.11 141.51 296.38 140.84 296.02 140.51 C 295.52 140.93 294.53 141.78 294.03 142.20 C 293.14 141.67 292.25 141.16 291.35 140.66 L 290.37 141.62 C 290.23 141.78 289.93 142.10 289.79 142.25 L 288.90 143.31 C 289.32 144.20 289.75 145.09 290.20 145.97 L 288.34 146.17 C 288.63 146.82 289.20 148.13 289.48 148.78 L 289.92 149.48 C 290.10 149.67 290.46 150.05 290.64 150.24 L 291.45 150.91 C 292.25 150.39 293.04 149.85 293.84 149.31 C 294.71 149.88 295.58 150.46 296.48 150.99 L 297.40 150.11 C 297.60 149.91 297.99 149.50 298.19 149.30 C 298.48 149.00 299.06 148.39 299.35 148.08 C 298.86 147.49 297.89 146.32 297.41 145.73 L 299.47 145.49 C 299.48 147.49 299.49 149.49 299.51 151.50 C 279.91 151.50 260.31 151.51 240.71 151.50 C 240.03 149.03 240.24 146.51 240.94 144.09 C 241.14 144.15 241.55 144.27 241.75 144.33 C 241.66 146.07 241.17 147.76 241.11 149.51 C 241.50 149.71 242.28 150.11 242.67 150.31 L 243.39 151.15 C 244.20 150.49 245.02 149.83 245.83 149.18 C 246.39 149.61 247.51 150.49 248.06 150.93 L 249.31 150.05 C 249.52 149.86 249.95 149.47 250.17 149.27 C 251.84 147.97 249.90 146.62 249.21 145.52 C 250.11 144.79 251.01 144.05 251.92 143.33 C 252.85 144.17 253.78 145.01 254.71 145.86 C 253.97 146.43 252.48 147.57 251.73 148.14 C 252.24 148.51 253.24 149.25 253.74 149.62 C 253.96 149.78 254.40 150.09 254.62 150.25 L 255.52 150.84 C 256.26 150.42 256.98 149.97 257.72 149.53 C 258.68 150.01 259.64 150.51 260.62 150.96 L 261.44 150.13 C 261.63 149.92 262.01 149.51 262.19 149.30 C 262.44 148.99 262.93 148.37 263.17 148.06 C 262.73 147.50 261.86 146.38 261.42 145.82 C 261.93 145.08 262.43 144.34 262.93 143.59 L 262.26 142.65 C 262.11 142.44 261.80 142.02 261.65 141.81 C 259.72 139.32 258.31 136.51 256.78 133.78 Z" />
<path fill="#f7f409" opacity="1.00" d=" M 186.11 136.55 C 200.21 138.77 214.19 141.68 228.26 144.12 C 228.25 146.58 228.25 149.03 228.25 151.49 C 213.82 151.51 199.40 151.50 184.97 151.49 C 184.83 146.48 185.43 141.50 186.11 136.55 Z" />
<path fill="#f7f409" opacity="1.00" d=" M 312.22 143.09 C 324.33 140.87 336.42 138.58 348.54 136.45 C 349.35 141.39 349.79 146.39 349.86 151.40 C 337.37 151.69 324.87 151.33 312.38 151.58 C 312.24 148.75 312.21 145.92 312.22 143.09 Z" />
<path fill="#f7f409" opacity="1.00" d=" M 240.80 138.52 C 242.27 139.28 243.75 140.04 245.23 140.80 C 244.54 141.03 243.16 141.50 242.47 141.73 C 242.31 141.85 242.00 142.11 241.84 142.23 C 241.56 142.41 240.99 142.76 240.70 142.94 C 240.73 141.83 240.78 139.62 240.80 138.52 Z" />
<path fill="#f7f409" opacity="1.00" d=" M 245.23 140.80 C 248.43 140.07 244.65 144.16 245.23 140.80 Z" />
<path fill="#f7f409" opacity="1.00" d=" M 281.23 141.27 C 281.76 141.81 281.76 141.81 281.23 141.27 Z" />
</g>
<g id="#3b5aa3ff">
<path fill="#3b5aa3" opacity="1.00" d=" M 241.84 142.23 C 242.00 142.11 242.31 141.85 242.47 141.73 C 243.68 142.89 244.89 144.07 246.18 145.16 C 246.64 144.53 247.57 143.26 248.03 142.62 C 248.49 143.07 248.94 143.52 249.41 143.98 C 245.20 145.22 248.41 147.71 250.17 149.27 C 249.95 149.47 249.52 149.86 249.31 150.05 C 248.24 148.94 247.17 147.84 246.10 146.74 C 244.94 147.92 243.78 149.09 242.67 150.31 C 242.28 150.11 241.50 149.71 241.11 149.51 C 242.71 148.62 244.05 147.38 245.35 146.11 C 244.14 144.86 242.92 143.60 241.84 142.23 Z" />
<path fill="#3b5aa3" opacity="1.00" d=" M 253.49 142.40 C 253.67 142.35 254.03 142.25 254.21 142.20 C 255.92 142.16 256.74 144.30 258.03 145.15 C 259.23 144.03 260.43 142.91 261.65 141.81 C 261.80 142.02 262.11 142.44 262.26 142.65 C 261.12 143.76 259.99 144.88 258.86 146.00 C 259.97 147.10 261.08 148.20 262.19 149.30 C 262.01 149.51 261.63 149.92 261.44 150.13 C 260.33 149.01 259.23 147.88 258.12 146.77 C 256.95 147.92 255.79 149.09 254.62 150.25 C 254.40 150.09 253.96 149.78 253.74 149.62 C 254.95 148.41 256.16 147.19 257.37 145.97 C 256.10 144.75 254.80 143.56 253.49 142.40 Z" />
<path fill="#3b5aa3" opacity="1.00" d=" M 265.66 142.22 L 266.23 141.70 C 267.99 142.91 271.06 147.33 272.01 142.62 C 272.47 143.07 272.94 143.52 273.41 143.97 C 270.63 145.33 270.63 146.68 273.41 148.02 C 272.94 148.48 272.48 148.94 272.01 149.40 C 271.12 145.08 268.15 148.47 266.62 150.14 C 266.43 149.97 266.05 149.61 265.86 149.44 C 267.01 148.30 268.17 147.17 269.33 146.03 C 268.10 144.76 266.88 143.49 265.66 142.22 Z" />
<path fill="#3b5aa3" opacity="1.00" d=" M 277.90 141.68 C 279.44 142.62 280.75 143.85 282.06 145.09 C 282.93 144.38 284.65 142.97 285.51 142.27 C 285.06 143.79 284.09 145.03 282.93 146.10 C 284.06 147.20 285.19 148.30 286.33 149.39 C 286.09 149.59 285.62 149.99 285.39 150.18 C 284.31 149.03 283.23 147.89 282.15 146.76 C 280.99 147.90 279.82 149.05 278.67 150.20 C 278.47 150.06 278.07 149.77 277.87 149.62 C 278.98 148.43 280.11 147.25 281.24 146.08 C 279.98 144.72 278.74 143.33 277.90 141.68 Z" />
<path fill="#3b5aa3" opacity="1.00" d=" M 289.79 142.25 C 289.93 142.10 290.23 141.78 290.37 141.62 C 291.62 142.81 292.87 144.01 294.13 145.21 C 295.24 144.09 296.36 142.97 297.48 141.84 C 297.68 142.03 298.10 142.41 298.30 142.60 C 297.15 143.73 296.00 144.86 294.86 146.00 C 295.97 147.10 297.08 148.20 298.19 149.30 C 297.99 149.50 297.60 149.91 297.40 150.11 C 296.29 148.99 295.19 147.87 294.09 146.77 C 292.93 147.92 291.79 149.08 290.64 150.24 C 290.46 150.05 290.10 149.67 289.92 149.48 C 291.04 148.33 292.17 147.18 293.30 146.03 C 292.13 144.77 290.95 143.51 289.79 142.25 Z" />
<path fill="#3b5aa3" opacity="1.00" d=" M 240.24 153.85 C 241.59 152.70 243.42 153.05 245.04 152.97 C 262.02 153.02 278.99 153.02 295.97 152.97 C 297.46 152.88 298.93 153.19 300.33 153.70 C 289.25 154.39 278.12 153.81 267.01 154.00 C 258.09 153.91 249.16 154.19 240.24 153.85 Z" />
<path fill="#3b5aa3" opacity="1.00" d=" M 185.32 156.17 C 188.10 154.28 191.62 153.72 194.92 153.84 C 200.41 154.33 203.36 159.59 207.56 162.41 C 209.72 163.86 212.30 162.47 214.34 161.48 C 218.89 159.04 223.27 156.19 228.22 154.57 C 228.28 159.18 228.21 163.79 228.31 168.39 C 214.39 168.64 200.46 168.43 186.54 168.50 C 186.10 164.42 184.63 160.24 185.32 156.17 Z" />
<path fill="#3b5aa3" opacity="1.00" d=" M 261.24 156.93 C 268.10 155.42 273.39 161.23 279.79 162.49 C 280.15 164.48 280.53 166.48 280.93 168.46 C 273.79 168.55 266.66 168.47 259.53 168.51 C 260.28 164.68 260.78 160.81 261.24 156.93 Z" />
<path fill="#3b5aa3" opacity="1.00" d=" M 328.15 161.91 C 332.21 161.56 335.38 158.76 339.02 157.25 C 342.45 155.90 346.11 157.14 349.56 157.80 C 349.35 161.40 348.78 164.96 348.09 168.50 C 336.20 168.57 324.30 168.36 312.40 168.61 C 312.19 164.98 312.21 161.35 312.26 157.72 C 317.31 159.83 322.49 162.62 328.15 161.91 Z" />
<path fill="#3b5aa3" opacity="1.00" d=" M 249.10 161.87 C 253.03 161.62 256.40 159.38 259.98 157.97 C 256.36 162.19 252.73 167.32 246.96 168.54 C 242.49 168.47 240.35 163.74 240.63 159.82 C 243.29 161.01 246.09 162.37 249.10 161.87 Z" />
<path fill="#3b5aa3" opacity="1.00" d=" M 284.21 162.63 C 289.48 161.54 294.44 159.39 299.52 157.65 C 299.55 161.04 300.04 165.38 296.64 167.42 C 292.06 170.53 287.41 165.57 284.21 162.63 Z" />
<path fill="#3b5aa3" opacity="1.00" d=" M 187.35 171.71 C 189.54 171.31 191.81 170.25 194.04 171.00 C 199.80 172.89 204.91 176.67 210.99 177.61 C 217.01 176.82 222.48 173.78 228.40 172.44 C 229.56 176.49 231.48 180.42 235.02 182.91 C 231.72 183.50 228.36 183.22 225.03 183.25 C 213.71 183.26 202.39 183.25 191.08 183.25 C 189.63 179.47 188.22 175.67 187.35 171.71 Z" />
<path fill="#3b5aa3" opacity="1.00" d=" M 257.32 175.54 C 260.30 173.96 263.55 172.76 266.90 172.32 C 271.37 172.14 275.65 173.75 279.95 174.75 C 284.76 175.13 285.82 180.59 289.16 183.22 C 276.47 183.31 263.77 183.20 251.07 183.27 C 253.64 181.10 255.26 178.13 257.32 175.54 Z" />
<path fill="#3b5aa3" opacity="1.00" d=" M 311.99 171.89 C 317.59 171.11 321.08 176.27 326.09 177.41 C 333.57 177.64 339.71 171.68 347.26 172.12 C 346.39 175.90 345.01 179.52 343.77 183.19 C 330.86 183.35 317.96 183.19 305.05 183.27 C 308.78 180.54 311.15 176.40 311.99 171.89 Z" />
<path fill="#3b5aa3" opacity="1.00" d=" M 249.93 192.27 C 255.91 191.59 259.70 185.36 265.89 185.24 C 273.68 185.01 279.07 192.75 286.94 192.25 C 293.30 192.30 298.66 187.58 305.07 188.28 C 311.47 188.93 317.48 191.90 323.99 191.78 C 330.10 191.77 335.59 188.64 341.56 187.82 C 340.07 190.67 338.47 193.46 336.87 196.24 C 290.58 196.25 244.29 196.26 198.00 196.24 C 196.20 193.20 194.35 190.17 192.79 186.99 C 198.30 189.37 203.87 192.21 209.98 192.46 C 216.49 192.08 221.44 186.62 228.02 186.49 C 235.80 186.40 242.22 192.16 249.93 192.27 Z" />
<path fill="#3b5aa3" opacity="1.00" d=" M 224.90 205.01 C 233.84 206.35 241.26 199.50 249.99 199.29 C 257.94 199.42 264.07 205.98 271.99 206.21 C 278.93 205.82 283.76 198.97 290.94 199.45 C 295.84 199.00 299.52 202.55 303.61 204.54 C 308.45 206.63 313.49 204.15 317.75 201.89 C 322.68 199.17 328.74 199.06 334.00 200.83 C 331.49 204.05 328.76 207.08 325.92 210.01 C 286.95 210.00 247.99 210.00 209.03 210.01 C 207.14 208.03 205.32 206.00 203.54 203.94 C 206.24 202.47 208.78 199.95 212.09 200.30 C 216.83 200.45 220.12 204.87 224.90 205.01 Z" />
<path fill="#3b5aa3" opacity="1.00" d=" M 281.62 215.68 C 284.67 212.36 289.56 212.55 293.60 213.59 C 298.48 214.87 302.85 217.99 307.98 218.28 C 313.08 218.24 316.72 213.79 321.75 213.45 C 318.40 217.32 313.94 219.97 309.62 222.60 C 290.31 233.87 266.40 237.86 244.82 231.25 C 233.70 227.79 222.88 222.42 214.19 214.60 C 222.34 216.83 230.35 221.10 239.05 220.07 C 243.81 219.82 246.23 214.51 250.90 214.11 C 255.52 213.48 260.22 214.40 264.35 216.50 C 269.67 219.15 277.02 220.30 281.62 215.68 Z" />
</g>
</svg>
