<?xml version="1.0" encoding="UTF-8" ?>
<!DOCTYPE svg PUBLIC "-//W3C//DTD SVG 1.1//EN" "http://www.w3.org/Graphics/SVG/1.1/DTD/svg11.dtd">
<svg width="455pt" height="302pt" viewBox="0 0 455 302" version="1.1" xmlns="http://www.w3.org/2000/svg">
<g id="#ffffffff">
<path fill="#ffffff" opacity="1.00" d=" M 0.00 0.00 L 455.00 0.00 L 455.00 302.00 L 453.25 302.00 C 453.29 251.45 453.15 200.91 453.32 150.36 C 391.32 150.35 329.32 150.34 267.33 150.37 C 267.27 127.32 258.26 104.37 242.28 87.72 C 228.18 72.54 208.70 62.50 188.17 59.81 C 172.22 57.87 155.67 59.60 140.84 65.97 C 120.56 74.29 103.63 90.28 93.96 109.93 C 87.68 122.42 84.55 136.41 84.41 150.36 C 56.27 150.34 28.14 150.35 0.00 150.36 L 0.00 0.00 Z" />
<path fill="#ffffff" opacity="1.00" d=" M 84.54 150.62 C 145.43 150.68 206.31 150.63 267.20 150.65 C 267.52 169.46 261.43 188.23 250.67 203.62 C 239.75 219.10 224.01 231.25 206.06 237.42 C 187.12 244.14 165.95 244.24 146.91 237.85 C 128.75 231.92 112.81 219.84 101.64 204.40 C 90.51 188.87 84.23 169.76 84.54 150.62 Z" />
</g>
<g id="#be0027ff">
<path fill="#be0027" opacity="1.00" d=" M 140.84 65.97 C 155.67 59.60 172.22 57.87 188.17 59.81 C 208.70 62.50 228.18 72.54 242.28 87.72 C 258.26 104.37 267.27 127.32 267.33 150.37 C 329.32 150.34 391.32 150.35 453.32 150.36 C 453.15 200.91 453.29 251.45 453.25 302.00 L 0.00 302.00 L 0.00 150.36 C 28.14 150.35 56.27 150.34 84.41 150.36 C 84.55 136.41 87.68 122.42 93.96 109.93 C 103.63 90.28 120.56 74.29 140.84 65.97 M 84.54 150.62 C 84.23 169.76 90.51 188.87 101.64 204.40 C 112.81 219.84 128.75 231.92 146.91 237.85 C 165.95 244.24 187.12 244.14 206.06 237.42 C 224.01 231.25 239.75 219.10 250.67 203.62 C 261.43 188.23 267.52 169.46 267.20 150.65 C 206.31 150.63 145.43 150.68 84.54 150.62 Z" />
</g>
</svg>
