<?xml version="1.0" encoding="UTF-8" ?>
<!DOCTYPE svg PUBLIC "-//W3C//DTD SVG 1.1//EN" "http://www.w3.org/Graphics/SVG/1.1/DTD/svg11.dtd">
<svg width="604pt" height="302pt" viewBox="0 0 604 302" version="1.1" xmlns="http://www.w3.org/2000/svg">
<g id="#be0027ff">
<path fill="#be0027" opacity="1.00" d=" M 0.00 0.00 L 604.00 0.00 L 604.00 302.00 L 0.00 302.00 L 0.00 0.00 M 15.03 15.53 C 14.99 106.68 15.03 197.82 15.02 288.96 C 207.17 288.95 399.33 288.98 591.48 288.95 C 591.49 197.81 591.48 106.67 591.48 15.54 C 399.33 15.54 207.18 15.54 15.03 15.53 Z" />
<path fill="#be0027" opacity="1.00" d=" M 300.34 71.41 C 302.96 70.38 305.28 72.45 307.44 73.63 C 324.24 83.64 338.52 98.42 346.28 116.52 C 354.63 135.47 355.77 157.18 351.00 177.21 C 345.12 201.99 327.74 223.40 305.45 235.42 C 303.78 236.36 301.68 237.24 299.86 236.17 C 282.85 226.99 268.18 212.99 259.44 195.63 C 246.54 169.81 246.77 138.02 259.42 112.16 C 268.28 94.74 282.75 80.02 300.34 71.41 M 300.45 80.46 C 275.72 94.37 258.37 121.46 258.22 150.10 C 257.75 159.35 258.73 168.56 260.84 177.57 C 260.93 177.57 261.11 177.56 261.20 177.56 C 261.84 183.23 264.90 188.19 267.21 193.29 C 269.62 198.66 273.46 203.22 277.00 207.86 C 279.07 210.10 281.11 212.36 283.21 214.57 C 288.25 219.70 294.23 223.83 300.43 227.42 C 302.68 228.83 304.90 226.87 306.77 225.74 C 321.29 216.27 333.93 202.73 339.75 186.17 C 341.01 183.40 342.19 180.57 342.78 177.56 L 343.75 177.49 C 343.41 177.23 342.74 176.72 342.40 176.47 C 344.19 175.43 343.36 173.03 343.83 171.37 L 344.22 171.29 C 347.07 154.86 346.09 137.55 339.84 121.99 C 332.90 104.51 319.42 90.19 303.35 80.67 C 302.40 80.01 301.43 79.94 300.45 80.46 Z" />
<path fill="#be0027" opacity="1.00" d=" M 277.42 158.54 C 273.48 155.97 274.81 147.82 280.09 148.21 C 282.32 147.75 285.55 149.53 284.33 152.14 C 283.76 151.46 282.63 150.10 282.06 149.42 C 280.57 149.56 278.57 148.94 277.67 150.57 C 275.96 152.67 276.78 155.41 277.86 157.59 C 280.43 158.06 283.53 157.98 283.86 154.65 C 283.00 154.62 281.28 154.57 280.42 154.55 C 280.42 154.21 280.42 153.54 280.42 153.20 C 282.03 153.30 283.64 153.41 285.25 153.54 C 285.23 155.14 285.21 156.73 285.21 158.33 C 282.63 158.43 279.76 160.35 277.42 158.54 Z" />
<path fill="#be0027" opacity="1.00" d=" M 289.20 148.36 C 289.55 148.39 290.24 148.44 290.58 148.47 C 290.51 151.33 290.52 154.20 290.72 157.06 C 291.83 157.54 292.93 158.03 294.04 158.52 C 294.77 157.70 295.51 156.87 296.26 156.05 C 296.76 153.47 294.96 149.54 297.49 147.96 C 297.55 150.96 297.79 154.00 297.30 156.98 C 295.89 159.91 291.19 160.44 289.60 157.42 C 288.84 154.48 289.35 151.37 289.20 148.36 Z" />
<path fill="#be0027" opacity="1.00" d=" M 308.77 148.24 C 309.16 148.26 309.95 148.30 310.34 148.32 C 311.78 151.87 313.36 155.42 313.97 159.22 C 312.46 158.63 311.94 157.02 311.24 155.72 C 310.37 155.72 308.64 155.72 307.78 155.72 C 307.03 157.10 306.28 158.47 305.41 159.78 C 305.10 155.65 307.62 152.07 308.77 148.24 M 308.63 154.11 C 310.02 155.44 311.29 152.94 310.20 151.87 C 309.08 150.37 307.85 153.21 308.63 154.11 Z" />
<path fill="#be0027" opacity="1.00" d=" M 319.55 148.28 C 320.01 148.29 320.92 148.30 321.37 148.30 C 322.90 150.73 322.56 154.44 325.06 156.09 C 325.77 153.43 326.69 150.84 327.71 148.29 C 328.17 148.29 329.10 148.30 329.57 148.30 C 329.61 151.81 329.64 155.32 329.61 158.83 C 329.27 158.80 328.58 158.76 328.24 158.73 C 328.29 156.90 328.34 155.06 328.42 153.23 C 328.04 153.26 327.27 153.31 326.88 153.34 C 326.47 155.18 325.94 157.00 325.39 158.81 C 324.97 158.79 324.14 158.76 323.72 158.75 C 322.82 156.82 323.18 153.68 320.77 152.90 C 320.74 154.99 320.76 157.08 320.71 159.18 C 320.43 159.00 319.87 158.65 319.59 158.48 C 319.22 155.09 319.55 151.68 319.55 148.28 Z" />
</g>
<g id="#3b5aa3ff">
<path fill="#3b5aa3" opacity="1.00" d=" M 15.03 15.53 C 207.18 15.54 399.33 15.54 591.48 15.54 C 591.48 106.67 591.49 197.81 591.48 288.95 C 399.33 288.98 207.17 288.95 15.02 288.96 C 15.03 197.82 14.99 106.68 15.03 15.53 M 300.34 71.41 C 282.75 80.02 268.28 94.74 259.42 112.16 C 246.77 138.02 246.54 169.81 259.44 195.63 C 268.18 212.99 282.85 226.99 299.86 236.17 C 301.68 237.24 303.78 236.36 305.45 235.42 C 327.74 223.40 345.12 201.99 351.00 177.21 C 355.77 157.18 354.63 135.47 346.28 116.52 C 338.52 98.42 324.24 83.64 307.44 73.63 C 305.28 72.45 302.96 70.38 300.34 71.41 Z" />
<path fill="#3b5aa3" opacity="1.00" d=" M 291.89 185.34 C 292.49 185.43 293.71 185.60 294.32 185.69 C 294.21 186.22 293.99 187.27 293.89 187.80 C 293.45 187.81 292.58 187.85 292.14 187.87 C 292.08 187.24 291.95 185.98 291.89 185.34 Z" />
</g>
<g id="#cbe0e5ff">
<path fill="#cbe0e5" opacity="1.00" d=" M 300.45 80.46 C 301.43 79.94 302.40 80.01 303.35 80.67 C 319.42 90.19 332.90 104.51 339.84 121.99 C 346.09 137.55 347.07 154.86 344.22 171.29 L 343.83 171.37 C 339.60 172.38 335.25 173.08 331.02 171.69 C 327.40 172.65 323.68 172.88 320.05 171.91 C 315.58 173.22 310.97 172.40 306.56 171.29 C 304.88 167.40 303.42 163.30 303.37 159.01 C 303.43 149.12 302.97 139.22 301.95 129.39 C 301.84 127.70 301.76 126.02 301.69 124.33 C 303.98 129.39 305.31 136.62 311.46 138.22 C 311.44 136.09 311.65 133.92 311.17 131.83 C 310.52 129.47 308.40 128.04 306.87 126.30 C 304.88 124.38 304.10 121.66 303.15 119.15 C 306.56 120.24 310.40 121.16 312.66 124.21 C 315.32 127.67 318.98 130.10 322.77 132.16 C 322.75 128.29 321.02 124.51 317.96 122.12 C 314.20 118.97 308.90 119.49 304.80 117.00 C 307.95 114.42 311.77 111.94 316.02 112.29 C 319.62 113.34 322.91 115.53 326.81 115.48 C 325.96 111.71 322.90 108.33 319.07 107.55 C 313.08 107.35 308.06 111.07 303.17 114.00 C 305.17 109.43 308.21 105.07 312.91 103.00 C 315.37 102.08 316.95 100.01 316.95 97.35 C 313.52 98.57 309.94 99.66 306.94 101.78 C 305.29 103.62 304.61 106.09 303.52 108.26 C 303.61 103.59 304.20 98.87 303.41 94.23 C 302.98 91.53 300.87 89.66 298.99 87.89 C 295.64 95.53 298.47 103.58 300.73 111.06 C 298.87 107.54 297.13 103.52 293.42 101.58 C 290.50 99.90 287.01 100.45 283.82 100.69 C 285.97 104.68 290.82 104.84 294.46 106.69 C 297.09 108.10 297.93 111.14 298.77 113.79 C 293.58 112.40 287.91 110.48 282.69 112.80 C 278.79 114.29 276.69 118.14 275.27 121.82 C 278.58 119.67 281.60 115.98 285.90 116.27 C 288.86 116.96 291.78 118.05 294.88 117.70 C 288.45 120.47 283.32 126.99 284.42 134.28 C 286.31 131.60 287.82 128.51 290.49 126.50 C 292.71 125.24 295.15 124.44 297.39 123.21 C 295.16 128.12 291.77 133.99 294.59 139.33 C 296.23 137.74 297.90 136.18 299.51 134.56 C 299.97 146.48 298.11 158.92 302.73 170.27 C 299.67 171.37 297.17 173.48 295.08 175.92 C 290.95 171.83 286.07 168.48 282.63 163.72 C 284.57 168.38 284.87 173.63 282.73 178.27 C 275.76 176.25 268.36 177.73 261.20 177.56 C 261.11 177.56 260.93 177.57 260.84 177.57 C 258.73 168.56 257.75 159.35 258.22 150.10 C 258.37 121.46 275.72 94.37 300.45 80.46 M 277.42 158.54 C 279.76 160.35 282.63 158.43 285.21 158.33 C 285.21 156.73 285.23 155.14 285.25 153.54 C 283.64 153.41 282.03 153.30 280.42 153.20 C 280.42 153.54 280.42 154.21 280.42 154.55 C 281.28 154.57 283.00 154.62 283.86 154.65 C 283.53 157.98 280.43 158.06 277.86 157.59 C 276.78 155.41 275.96 152.67 277.67 150.57 C 278.57 148.94 280.57 149.56 282.06 149.42 C 282.63 150.10 283.76 151.46 284.33 152.14 C 285.55 149.53 282.32 147.75 280.09 148.21 C 274.81 147.82 273.48 155.97 277.42 158.54 M 289.20 148.36 C 289.35 151.37 288.84 154.48 289.60 157.42 C 291.19 160.44 295.89 159.91 297.30 156.98 C 297.79 154.00 297.55 150.96 297.49 147.96 C 294.96 149.54 296.76 153.47 296.26 156.05 C 295.51 156.87 294.77 157.70 294.04 158.52 C 292.93 158.03 291.83 157.54 290.72 157.06 C 290.52 154.20 290.51 151.33 290.58 148.47 C 290.24 148.44 289.55 148.39 289.20 148.36 M 308.77 148.24 C 307.62 152.07 305.10 155.65 305.41 159.78 C 306.28 158.47 307.03 157.10 307.78 155.72 C 308.64 155.72 310.37 155.72 311.24 155.72 C 311.94 157.02 312.46 158.63 313.97 159.22 C 313.36 155.42 311.78 151.87 310.34 148.32 C 309.95 148.30 309.16 148.26 308.77 148.24 M 319.55 148.28 C 319.55 151.68 319.22 155.09 319.59 158.48 C 319.87 158.65 320.43 159.00 320.71 159.18 C 320.76 157.08 320.74 154.99 320.77 152.90 C 323.18 153.68 322.82 156.82 323.72 158.75 C 324.14 158.76 324.97 158.79 325.39 158.81 C 325.94 157.00 326.47 155.18 326.88 153.34 C 327.27 153.31 328.04 153.26 328.42 153.23 C 328.34 155.06 328.29 156.90 328.24 158.73 C 328.58 158.76 329.27 158.80 329.61 158.83 C 329.64 155.32 329.61 151.81 329.57 148.30 C 329.10 148.30 328.17 148.29 327.71 148.29 C 326.69 150.84 325.77 153.43 325.06 156.09 C 322.56 154.44 322.90 150.73 321.37 148.30 C 320.92 148.30 320.01 148.29 319.55 148.28 Z" />
<path fill="#cbe0e5" opacity="1.00" d=" M 308.63 154.11 C 307.85 153.21 309.08 150.37 310.20 151.87 C 311.29 152.94 310.02 155.44 308.63 154.11 Z" />
</g>
<g id="#239e46ff">
<path fill="#239e46" opacity="1.00" d=" M 300.73 111.06 C 298.47 103.58 295.64 95.53 298.99 87.89 C 300.87 89.66 302.98 91.53 303.41 94.23 C 304.20 98.87 303.61 103.59 303.52 108.26 C 304.61 106.09 305.29 103.62 306.94 101.78 C 309.94 99.66 313.52 98.57 316.95 97.35 C 316.95 100.01 315.37 102.08 312.91 103.00 C 308.21 105.07 305.17 109.43 303.17 114.00 C 308.06 111.07 313.08 107.35 319.07 107.55 C 322.90 108.33 325.96 111.71 326.81 115.48 C 322.91 115.53 319.62 113.34 316.02 112.29 C 311.77 111.94 307.95 114.42 304.80 117.00 C 308.90 119.49 314.20 118.97 317.96 122.12 C 321.02 124.51 322.75 128.29 322.77 132.16 C 318.98 130.10 315.32 127.67 312.66 124.21 C 310.40 121.16 306.56 120.24 303.15 119.15 C 304.10 121.66 304.88 124.38 306.87 126.30 C 308.40 128.04 310.52 129.47 311.17 131.83 C 311.65 133.92 311.44 136.09 311.46 138.22 C 305.31 136.62 303.98 129.39 301.69 124.33 C 301.76 126.02 301.84 127.70 301.95 129.39 C 301.16 131.13 300.35 132.85 299.51 134.56 C 297.90 136.18 296.23 137.74 294.59 139.33 C 291.77 133.99 295.16 128.12 297.39 123.21 C 295.15 124.44 292.71 125.24 290.49 126.50 C 287.82 128.51 286.31 131.60 284.42 134.28 C 283.32 126.99 288.45 120.47 294.88 117.70 C 291.78 118.05 288.86 116.96 285.90 116.27 C 281.60 115.98 278.58 119.67 275.27 121.82 C 276.69 118.14 278.79 114.29 282.69 112.80 C 287.91 110.48 293.58 112.40 298.77 113.79 C 297.93 111.14 297.09 108.10 294.46 106.69 C 290.82 104.84 285.97 104.68 283.82 100.69 C 287.01 100.45 290.50 99.90 293.42 101.58 C 297.13 103.52 298.87 107.54 300.73 111.06 Z" />
<path fill="#239e46" opacity="1.00" d=" M 295.08 175.92 C 297.17 173.48 299.67 171.37 302.73 170.27 C 303.44 172.26 304.20 174.24 304.95 176.22 C 302.00 176.31 299.05 176.46 296.11 176.34 C 295.85 176.24 295.34 176.02 295.08 175.92 Z" />
<path fill="#239e46" opacity="1.00" d=" M 306.56 171.29 C 310.97 172.40 315.58 173.22 320.05 171.91 C 323.68 172.88 327.40 172.65 331.02 171.69 C 335.25 173.08 339.60 172.38 343.83 171.37 C 343.36 173.03 344.19 175.43 342.40 176.47 C 331.34 176.33 320.27 176.42 309.20 176.43 C 308.24 174.76 307.38 173.03 306.56 171.29 Z" />
</g>
<g id="#a79270ff">
<path fill="#a79270" opacity="1.00" d=" M 301.95 129.39 C 302.97 139.22 303.43 149.12 303.37 159.01 C 303.42 163.30 304.88 167.40 306.56 171.29 C 307.38 173.03 308.24 174.76 309.20 176.43 C 309.42 176.77 309.85 177.47 310.07 177.82 C 313.47 183.55 317.67 189.17 323.98 191.91 C 326.71 193.11 327.13 195.73 326.44 198.37 C 323.84 198.50 321.14 199.03 318.60 198.21 C 316.96 197.69 316.44 195.88 315.73 194.51 C 313.59 188.24 308.83 183.46 305.76 177.69 C 302.86 175.96 299.29 176.99 296.11 176.34 C 299.05 176.46 302.00 176.31 304.95 176.22 C 304.20 174.24 303.44 172.26 302.73 170.27 C 298.11 158.92 299.97 146.48 299.51 134.56 C 300.35 132.85 301.16 131.13 301.95 129.39 Z" />
<path fill="#a79270" opacity="1.00" d=" M 273.47 186.68 C 279.68 187.23 285.89 187.79 292.14 187.87 C 292.58 187.85 293.45 187.81 293.89 187.80 C 298.50 187.87 303.15 187.61 307.59 186.23 C 306.87 187.68 306.16 189.14 305.45 190.60 C 297.09 191.49 288.69 191.62 280.30 191.71 C 283.44 191.17 286.60 190.70 289.74 190.12 C 285.36 189.13 280.89 190.00 276.49 189.56 C 275.38 188.71 274.44 187.66 273.47 186.68 Z" />
</g>
<g id="#ffffffff">
<path fill="#ffffff" opacity="1.00" d=" M 282.63 163.72 C 286.07 168.48 290.95 171.83 295.08 175.92 C 295.34 176.02 295.85 176.24 296.11 176.34 C 299.29 176.99 302.86 175.96 305.76 177.69 C 302.95 177.69 300.13 177.64 297.32 177.58 C 299.65 180.09 301.89 182.69 304.01 185.40 C 300.78 185.59 297.55 185.76 294.32 185.69 C 293.71 185.60 292.49 185.43 291.89 185.34 C 287.45 186.43 282.84 186.78 278.39 185.61 C 279.85 183.17 281.37 180.77 282.73 178.27 C 284.87 173.63 284.57 168.38 282.63 163.72 Z" />
</g>
<g id="#fdf9a1ff">
<path fill="#fdf9a1" opacity="1.00" d=" M 309.20 176.43 C 320.27 176.42 331.34 176.33 342.40 176.47 C 342.74 176.72 343.41 177.23 343.75 177.49 L 342.78 177.56 C 331.89 178.13 320.97 177.73 310.07 177.82 C 309.85 177.47 309.42 176.77 309.20 176.43 Z" />
<path fill="#fdf9a1" opacity="1.00" d=" M 323.98 191.91 C 329.97 191.74 333.78 185.94 339.75 186.17 C 333.93 202.73 321.29 216.27 306.77 225.74 C 304.90 226.87 302.68 228.83 300.43 227.42 C 294.23 223.83 288.25 219.70 283.21 214.57 C 289.46 209.96 297.22 207.69 304.93 207.41 C 309.76 206.83 315.53 207.13 318.99 203.05 C 314.70 195.74 305.05 199.27 298.49 196.08 C 303.65 192.64 310.00 195.08 315.73 194.51 C 316.44 195.88 316.96 197.69 318.60 198.21 C 321.14 199.03 323.84 198.50 326.44 198.37 C 327.13 195.73 326.71 193.11 323.98 191.91 Z" />
<path fill="#fdf9a1" opacity="1.00" d=" M 267.21 193.29 C 273.38 193.31 278.94 196.31 285.00 196.96 C 287.24 197.26 289.46 197.69 291.64 198.32 C 296.70 199.92 302.37 199.96 306.73 203.37 C 302.41 203.80 298.09 203.37 293.83 202.58 C 287.74 201.32 281.64 204.05 277.00 207.86 C 273.46 203.22 269.62 198.66 267.21 193.29 Z" />
</g>
<g id="#add2d9ff">
<path fill="#add2d9" opacity="1.00" d=" M 261.20 177.56 C 268.36 177.73 275.76 176.25 282.73 178.27 C 281.37 180.77 279.85 183.17 278.39 185.61 C 282.84 186.78 287.45 186.43 291.89 185.34 C 291.95 185.98 292.08 187.24 292.14 187.87 C 285.89 187.79 279.68 187.23 273.47 186.68 C 274.44 187.66 275.38 188.71 276.49 189.56 C 280.89 190.00 285.36 189.13 289.74 190.12 C 286.60 190.70 283.44 191.17 280.30 191.71 C 288.69 191.62 297.09 191.49 305.45 190.60 C 306.16 189.14 306.87 187.68 307.59 186.23 C 303.15 187.61 298.50 187.87 293.89 187.80 C 293.99 187.27 294.21 186.22 294.32 185.69 C 297.55 185.76 300.78 185.59 304.01 185.40 C 301.89 182.69 299.65 180.09 297.32 177.58 C 300.13 177.64 302.95 177.69 305.76 177.69 C 308.83 183.46 313.59 188.24 315.73 194.51 C 310.00 195.08 303.65 192.64 298.49 196.08 C 305.05 199.27 314.70 195.74 318.99 203.05 C 315.53 207.13 309.76 206.83 304.93 207.41 C 297.22 207.69 289.46 209.96 283.21 214.57 C 281.11 212.36 279.07 210.10 277.00 207.86 C 281.64 204.05 287.74 201.32 293.83 202.58 C 298.09 203.37 302.41 203.80 306.73 203.37 C 302.37 199.96 296.70 199.92 291.64 198.32 C 289.46 197.69 287.24 197.26 285.00 196.96 C 278.94 196.31 273.38 193.31 267.21 193.29 C 264.90 188.19 261.84 183.23 261.20 177.56 Z" />
<path fill="#add2d9" opacity="1.00" d=" M 310.07 177.82 C 320.97 177.73 331.89 178.13 342.78 177.56 C 342.19 180.57 341.01 183.40 339.75 186.17 C 333.78 185.94 329.97 191.74 323.98 191.91 C 317.67 189.17 313.47 183.55 310.07 177.82 Z" />
</g>
</svg>
