<?xml version="1.0" encoding="UTF-8" ?>
<!DOCTYPE svg PUBLIC "-//W3C//DTD SVG 1.1//EN" "http://www.w3.org/Graphics/SVG/1.1/DTD/svg11.dtd">
<svg width="457pt" height="302pt" viewBox="0 0 457 302" version="1.1" xmlns="http://www.w3.org/2000/svg">
<g id="#197301ff">
<path fill="#197301" opacity="1.00" d=" M 0.00 0.00 L 457.00 0.00 L 457.00 302.00 L 0.00 302.00 L 0.00 0.00 M 228.25 45.22 C 227.23 46.92 227.47 48.91 227.54 50.80 C 227.11 50.67 226.25 50.42 225.83 50.29 L 224.96 54.10 L 224.33 50.38 C 221.41 50.40 218.31 51.03 215.62 49.58 C 217.07 50.89 219.31 51.36 220.01 53.37 C 220.62 53.39 221.82 53.44 222.42 53.47 C 222.29 55.04 223.02 55.74 224.60 55.56 C 224.60 56.33 224.60 57.87 224.60 58.63 L 223.38 58.56 C 223.47 59.97 223.57 61.38 223.66 62.79 L 222.21 62.16 C 222.32 62.96 222.54 64.56 222.65 65.36 C 222.87 64.95 223.31 64.13 223.53 63.73 C 226.18 62.62 228.17 60.19 229.04 57.49 C 229.18 60.07 230.41 61.05 232.72 60.45 C 232.63 60.99 232.46 62.06 232.37 62.59 C 233.24 62.54 234.98 62.43 235.86 62.38 C 235.69 62.86 235.36 63.82 235.19 64.30 C 235.93 64.57 237.42 65.10 238.16 65.36 C 237.43 64.34 236.70 63.34 235.96 62.34 C 235.99 60.82 234.97 59.57 234.63 58.13 C 234.55 57.53 234.41 56.32 234.33 55.72 C 236.07 55.44 237.56 54.19 237.66 52.34 C 238.31 52.39 239.61 52.50 240.25 52.55 C 240.42 52.01 240.74 50.93 240.90 50.39 C 237.72 50.48 234.54 50.54 231.35 50.62 C 231.44 49.26 231.53 47.91 231.63 46.55 L 230.55 46.65 C 230.16 44.45 229.63 42.28 229.19 40.09 C 228.92 41.81 228.59 43.52 228.25 45.22 M 289.74 56.05 C 289.49 57.90 287.70 58.88 287.29 60.65 C 285.60 60.59 283.91 60.49 282.23 60.38 C 281.45 59.51 280.65 58.65 279.85 57.80 C 280.87 60.07 282.42 62.03 283.88 64.04 C 282.87 65.05 281.70 65.99 281.29 67.43 C 280.71 67.68 279.55 68.19 278.98 68.44 C 280.55 68.53 282.14 68.61 283.72 68.69 L 283.33 67.41 C 284.13 67.42 285.72 67.43 286.52 67.43 C 286.45 69.09 286.19 71.10 288.56 70.54 C 288.59 72.04 288.65 73.55 288.73 75.05 C 289.68 72.18 289.59 69.12 289.45 66.14 C 290.00 66.33 291.09 66.71 291.64 66.90 L 291.24 65.33 C 292.15 65.40 293.98 65.55 294.89 65.63 C 294.92 65.42 294.98 64.99 295.01 64.78 C 293.21 63.76 291.15 63.35 289.35 62.33 C 289.42 61.48 289.56 59.78 289.63 58.93 C 290.00 58.05 290.46 57.21 291.00 56.42 C 290.68 56.33 290.05 56.14 289.74 56.05 M 167.46 61.16 C 167.42 62.35 167.39 63.53 167.35 64.72 L 168.85 64.24 C 168.44 65.68 167.98 67.10 167.49 68.51 C 165.97 68.10 164.87 68.48 164.19 69.66 C 163.56 69.58 162.31 69.42 161.69 69.34 C 163.32 71.40 166.19 70.25 168.41 70.43 C 169.11 73.03 169.56 75.70 169.59 78.40 C 169.96 77.01 170.30 75.62 170.63 74.22 L 171.91 74.66 C 171.72 74.10 171.34 72.99 171.14 72.43 C 172.90 72.46 174.66 72.48 176.42 72.48 C 176.92 72.93 177.91 73.83 178.41 74.28 L 178.49 72.89 C 178.12 72.67 177.37 72.22 176.99 72.00 C 176.52 70.74 176.12 69.29 174.45 69.34 C 174.43 68.57 174.40 67.03 174.39 66.26 L 175.99 66.71 C 175.79 66.22 175.38 65.24 175.18 64.75 C 176.37 64.37 177.53 63.90 178.64 63.34 C 176.99 63.64 174.16 62.90 174.35 65.55 C 173.40 65.56 171.52 65.57 170.57 65.58 C 170.69 63.92 169.91 63.20 168.22 63.42 C 168.35 62.84 168.60 61.69 168.72 61.11 C 168.41 61.12 167.78 61.15 167.46 61.16 M 225.77 78.67 C 218.92 85.15 213.18 93.04 209.80 101.90 C 205.85 111.07 205.79 121.38 206.87 131.15 C 207.87 138.20 210.79 144.70 213.15 151.35 C 200.26 134.80 201.19 110.97 210.86 93.11 C 208.70 89.73 205.00 87.57 202.87 84.12 C 196.09 94.53 193.42 107.69 195.69 119.91 C 197.53 132.81 204.19 144.36 211.95 154.60 C 200.43 144.17 186.62 136.03 171.50 132.17 C 162.79 129.84 153.65 130.17 144.75 130.95 C 146.91 133.82 149.83 135.97 152.07 138.76 C 160.63 138.44 169.34 138.95 177.54 141.60 C 188.22 144.87 198.75 149.90 206.80 157.78 C 204.46 157.15 202.53 155.63 200.53 154.35 C 193.37 149.61 185.17 146.69 176.90 144.57 C 170.08 142.73 162.92 143.00 155.93 143.37 C 147.80 144.37 140.10 147.51 133.09 151.66 C 136.87 163.69 147.54 171.87 157.79 178.34 C 158.81 179.32 160.24 178.75 161.44 178.60 L 163.29 178.79 C 162.47 179.15 161.67 179.53 160.87 179.93 C 171.69 186.58 184.56 189.48 197.20 188.45 C 195.66 189.48 193.98 190.51 192.05 190.39 C 184.65 190.57 177.21 189.66 170.01 187.99 C 159.62 185.75 149.87 181.03 141.53 174.47 C 137.99 174.51 134.98 177.33 131.98 179.03 C 143.15 189.52 158.79 194.83 174.02 194.20 C 182.34 194.06 190.69 194.44 199.00 194.05 C 209.34 188.03 219.26 181.22 229.27 174.63 C 235.96 179.05 242.68 183.44 249.44 187.76 C 253.80 190.14 257.58 194.58 262.98 194.07 C 271.66 194.12 280.34 194.12 289.02 194.09 C 302.85 193.82 316.55 188.29 326.75 178.97 C 324.08 177.46 321.52 175.75 318.76 174.43 C 317.30 173.65 316.10 175.29 314.96 175.93 C 301.89 185.94 285.22 190.03 268.99 190.41 C 266.42 190.50 263.84 190.05 261.56 188.80 C 264.96 187.86 268.53 188.78 272.00 188.32 C 285.55 187.37 298.01 180.87 308.72 172.86 C 315.91 167.36 322.49 160.53 325.73 151.92 C 317.49 146.65 307.86 143.20 298.02 143.12 C 282.52 142.29 267.16 147.85 254.58 156.67 C 253.84 157.31 252.88 157.40 251.95 157.40 C 266.53 144.31 286.53 137.75 306.02 138.63 C 308.99 136.42 311.38 133.54 313.98 130.92 C 305.67 130.17 297.17 129.76 289.00 131.73 C 274.66 134.70 261.77 142.28 250.34 151.18 C 249.27 151.97 248.75 153.58 247.31 153.77 C 249.15 150.24 252.00 147.34 253.96 143.87 C 258.00 136.79 261.35 129.18 262.71 121.10 C 265.21 108.54 262.68 95.15 256.04 84.23 C 253.10 87.03 250.13 89.82 247.58 92.99 C 253.91 104.89 256.56 118.78 254.08 132.10 C 252.57 139.29 249.24 145.89 245.34 152.05 C 246.42 147.55 248.76 143.49 249.82 138.99 C 252.04 130.54 253.36 121.59 251.62 112.92 C 249.84 98.76 241.46 86.26 230.97 76.96 C 229.13 74.88 227.25 77.59 225.77 78.67 M 318.47 93.42 C 318.42 95.51 318.51 97.60 318.62 99.69 L 317.22 99.37 C 317.36 99.92 317.63 101.04 317.77 101.59 C 315.51 101.51 313.25 101.47 310.99 101.42 C 311.04 101.66 311.12 102.14 311.16 102.38 C 312.59 102.89 314.00 103.54 315.56 103.54 C 316.73 106.09 316.47 108.91 316.47 111.63 C 317.23 110.22 317.99 108.81 318.73 107.39 C 320.38 107.38 322.02 107.41 323.66 107.42 L 323.34 108.34 C 324.43 108.92 325.53 109.49 326.63 110.08 C 325.53 108.46 324.43 106.84 323.39 105.19 C 322.35 102.47 325.55 102.88 325.62 100.69 C 326.64 100.27 327.67 99.85 328.69 99.43 C 325.82 99.47 323.12 100.56 320.28 100.76 C 320.40 99.91 320.65 98.19 320.77 97.33 L 319.65 97.76 C 319.30 96.30 318.92 94.85 318.47 93.42 M 139.67 101.41 C 139.33 102.49 138.90 103.53 138.40 104.55 C 137.36 104.55 135.28 104.57 134.24 104.58 L 134.76 103.43 C 133.86 103.40 132.07 103.33 131.17 103.29 C 132.68 104.07 134.30 104.87 135.00 106.54 C 135.39 106.47 136.17 106.33 136.57 106.26 C 136.56 107.28 136.55 109.32 136.55 110.34 C 135.10 110.32 134.47 111.45 133.86 112.54 C 134.58 112.57 136.01 112.63 136.73 112.66 L 136.21 111.38 C 137.97 111.46 139.72 111.52 141.48 111.56 C 141.49 112.24 141.51 113.59 141.51 114.27 C 142.09 114.43 143.25 114.74 143.83 114.89 C 143.52 113.04 143.43 110.57 140.55 110.82 C 141.28 110.62 142.75 110.21 143.48 110.00 L 143.36 108.21 L 144.52 108.80 C 143.88 105.92 148.67 108.27 149.71 106.35 C 148.74 106.33 147.78 106.36 146.83 106.44 C 145.34 104.98 143.24 105.63 141.41 105.53 C 141.51 102.83 141.56 100.12 141.53 97.41 C 140.90 98.74 140.29 100.08 139.67 101.41 M 208.40 197.32 C 206.46 198.58 204.57 200.48 202.07 200.21 C 180.75 200.26 159.44 200.12 138.13 200.27 C 139.80 202.65 141.41 205.07 142.84 207.61 C 163.22 208.04 183.61 207.64 203.99 207.81 C 205.99 207.69 208.31 208.19 209.97 206.76 C 216.41 201.95 222.71 196.97 229.13 192.14 C 236.34 196.99 242.90 202.81 250.05 207.71 C 271.66 207.96 293.28 207.77 314.89 207.80 C 316.47 205.34 318.16 202.96 319.85 200.58 C 319.14 200.49 317.72 200.33 317.02 200.24 C 296.28 200.13 275.54 200.32 254.81 200.15 C 249.17 197.67 244.74 192.96 239.48 189.74 C 236.02 187.28 232.59 184.76 229.03 182.46 C 222.32 187.64 215.22 192.29 208.40 197.32 M 148.25 214.29 C 150.94 217.02 153.18 220.24 156.30 222.50 C 204.91 222.86 253.53 222.35 302.14 222.47 C 304.63 219.72 306.99 216.84 309.73 214.33 C 303.87 213.41 297.93 213.93 292.03 213.80 C 281.34 213.91 270.65 213.92 259.96 213.89 C 222.73 214.58 185.48 213.87 148.25 214.29 M 159.37 225.66 C 161.64 227.71 164.00 229.68 166.60 231.29 C 208.12 231.20 249.65 231.36 291.17 231.31 C 293.73 229.69 296.41 228.11 298.27 225.64 C 251.97 225.48 205.67 225.56 159.37 225.66 M 174.37 237.02 C 177.86 238.46 181.01 241.32 184.96 241.21 C 213.96 241.17 242.95 241.19 271.95 241.22 C 276.89 241.81 280.52 237.80 284.97 236.44 C 280.40 235.36 275.68 235.92 271.04 235.81 C 238.87 235.74 206.70 235.94 174.53 235.71 C 174.49 236.03 174.41 236.69 174.37 237.02 M 191.43 244.91 C 203.33 249.62 216.21 251.96 229.02 251.44 C 241.69 251.90 254.54 249.78 266.27 244.91 C 259.86 244.46 253.42 244.80 247.00 244.70 C 228.48 244.83 209.94 244.44 191.43 244.91 Z" />
</g>
<g id="#fefcf5ff">
<path fill="#fefcf5" opacity="1.00" d=" M 228.25 45.22 C 228.59 43.52 228.92 41.81 229.19 40.09 C 229.63 42.28 230.16 44.45 230.55 46.65 L 231.63 46.55 C 231.53 47.91 231.44 49.26 231.35 50.62 C 234.54 50.54 237.72 50.48 240.90 50.39 C 240.74 50.93 240.42 52.01 240.25 52.55 C 239.61 52.50 238.31 52.39 237.66 52.34 C 237.56 54.19 236.07 55.44 234.33 55.72 C 234.41 56.32 234.55 57.53 234.63 58.13 C 234.97 59.57 235.99 60.82 235.96 62.34 C 236.70 63.34 237.43 64.34 238.16 65.36 C 237.42 65.10 235.93 64.57 235.19 64.30 C 235.36 63.82 235.69 62.86 235.86 62.38 C 234.98 62.43 233.24 62.54 232.37 62.59 C 232.46 62.06 232.63 60.99 232.72 60.45 C 230.41 61.05 229.18 60.07 229.04 57.49 C 228.17 60.19 226.18 62.62 223.53 63.73 C 223.31 64.13 222.87 64.95 222.65 65.36 C 222.54 64.56 222.32 62.96 222.21 62.16 L 223.66 62.79 C 223.57 61.38 223.47 59.97 223.38 58.56 L 224.60 58.63 C 224.60 57.87 224.60 56.33 224.60 55.56 C 223.02 55.74 222.29 55.04 222.42 53.47 C 221.82 53.44 220.62 53.39 220.01 53.37 C 219.31 51.36 217.07 50.89 215.62 49.58 C 218.31 51.03 221.41 50.40 224.33 50.38 L 224.96 54.10 L 225.83 50.29 C 226.25 50.42 227.11 50.67 227.54 50.80 C 227.47 48.91 227.23 46.92 228.25 45.22 Z" />
<path fill="#fefcf5" opacity="1.00" d=" M 289.74 56.05 C 290.05 56.14 290.68 56.33 291.00 56.42 C 290.46 57.21 290.00 58.05 289.63 58.93 C 289.56 59.78 289.42 61.48 289.35 62.33 C 291.15 63.35 293.21 63.76 295.01 64.78 C 294.98 64.99 294.92 65.42 294.89 65.63 C 293.98 65.55 292.15 65.40 291.24 65.33 L 291.64 66.90 C 291.09 66.71 290.00 66.33 289.45 66.14 C 289.59 69.12 289.68 72.18 288.73 75.05 C 288.65 73.55 288.59 72.04 288.56 70.54 C 286.19 71.10 286.45 69.09 286.52 67.43 C 285.72 67.43 284.13 67.42 283.33 67.41 L 283.72 68.69 C 282.14 68.61 280.55 68.53 278.98 68.44 C 279.55 68.19 280.71 67.68 281.29 67.43 C 281.70 65.99 282.87 65.05 283.88 64.04 C 282.42 62.03 280.87 60.07 279.85 57.80 C 280.65 58.65 281.45 59.51 282.23 60.38 C 283.91 60.49 285.60 60.59 287.29 60.65 C 287.70 58.88 289.49 57.90 289.74 56.05 Z" />
<path fill="#fefcf5" opacity="1.00" d=" M 167.46 61.16 C 167.78 61.15 168.41 61.12 168.72 61.11 C 168.60 61.69 168.35 62.84 168.22 63.42 C 169.91 63.20 170.69 63.92 170.57 65.58 C 171.52 65.57 173.40 65.56 174.35 65.55 C 174.16 62.90 176.99 63.64 178.64 63.34 C 177.53 63.90 176.37 64.37 175.18 64.75 C 175.38 65.24 175.79 66.22 175.99 66.71 L 174.39 66.26 C 174.40 67.03 174.43 68.57 174.45 69.34 C 176.12 69.29 176.52 70.74 176.99 72.00 C 177.37 72.22 178.12 72.67 178.49 72.89 L 178.41 74.28 C 177.91 73.83 176.92 72.93 176.42 72.48 C 174.66 72.48 172.90 72.46 171.14 72.43 C 171.34 72.99 171.72 74.10 171.91 74.66 L 170.63 74.22 C 170.30 75.62 169.96 77.01 169.59 78.40 C 169.56 75.70 169.11 73.03 168.41 70.43 C 166.19 70.25 163.32 71.40 161.69 69.34 C 162.31 69.42 163.56 69.58 164.19 69.66 C 164.87 68.48 165.97 68.10 167.49 68.51 C 167.98 67.10 168.44 65.68 168.85 64.24 L 167.35 64.72 C 167.39 63.53 167.42 62.35 167.46 61.16 Z" />
<path fill="#fefcf5" opacity="1.00" d=" M 225.77 78.67 C 227.25 77.59 229.13 74.88 230.97 76.96 C 241.46 86.26 249.84 98.76 251.62 112.92 C 253.36 121.59 252.04 130.54 249.82 138.99 C 248.76 143.49 246.42 147.55 245.34 152.05 C 249.24 145.89 252.57 139.29 254.08 132.10 C 256.56 118.78 253.91 104.89 247.58 92.99 C 250.13 89.82 253.10 87.03 256.04 84.23 C 262.68 95.15 265.21 108.54 262.71 121.10 C 261.35 129.18 258.00 136.79 253.96 143.87 C 252.00 147.34 249.15 150.24 247.31 153.77 C 248.75 153.58 249.27 151.97 250.34 151.18 C 261.77 142.28 274.66 134.70 289.00 131.73 C 297.17 129.76 305.67 130.17 313.98 130.92 C 311.38 133.54 308.99 136.42 306.02 138.63 C 286.53 137.75 266.53 144.31 251.95 157.40 C 252.88 157.40 253.84 157.31 254.58 156.67 C 267.16 147.85 282.52 142.29 298.02 143.12 C 307.86 143.20 317.49 146.65 325.73 151.92 C 322.49 160.53 315.91 167.36 308.72 172.86 C 298.01 180.87 285.55 187.37 272.00 188.32 C 268.53 188.78 264.96 187.86 261.56 188.80 C 263.84 190.05 266.42 190.50 268.99 190.41 C 285.22 190.03 301.89 185.94 314.96 175.93 C 316.10 175.29 317.30 173.65 318.76 174.43 C 321.52 175.75 324.08 177.46 326.75 178.97 C 316.55 188.29 302.85 193.82 289.02 194.09 C 280.34 194.12 271.66 194.12 262.98 194.07 C 257.58 194.58 253.80 190.14 249.44 187.76 C 242.68 183.44 235.96 179.05 229.27 174.63 C 219.26 181.22 209.34 188.03 199.00 194.05 C 190.69 194.44 182.34 194.06 174.02 194.20 C 158.79 194.83 143.15 189.52 131.98 179.03 C 134.98 177.33 137.99 174.51 141.53 174.47 C 149.87 181.03 159.62 185.75 170.01 187.99 C 177.21 189.66 184.65 190.57 192.05 190.39 C 193.98 190.51 195.66 189.48 197.20 188.45 C 184.56 189.48 171.69 186.58 160.87 179.93 C 161.67 179.53 162.47 179.15 163.29 178.79 L 161.44 178.60 C 160.24 178.75 158.81 179.32 157.79 178.34 C 147.54 171.87 136.87 163.69 133.09 151.66 C 140.10 147.51 147.80 144.37 155.93 143.37 C 162.92 143.00 170.08 142.73 176.90 144.57 C 185.17 146.69 193.37 149.61 200.53 154.35 C 202.53 155.63 204.46 157.15 206.80 157.78 C 198.75 149.90 188.22 144.87 177.54 141.60 C 169.34 138.95 160.63 138.44 152.07 138.76 C 149.83 135.97 146.91 133.82 144.75 130.95 C 153.65 130.17 162.79 129.84 171.50 132.17 C 186.62 136.03 200.43 144.17 211.95 154.60 C 204.19 144.36 197.53 132.81 195.69 119.91 C 193.42 107.69 196.09 94.53 202.87 84.12 C 205.00 87.57 208.70 89.73 210.86 93.11 C 201.19 110.97 200.26 134.80 213.15 151.35 C 210.79 144.70 207.87 138.20 206.87 131.15 C 205.79 121.38 205.85 111.07 209.80 101.90 C 213.18 93.04 218.92 85.15 225.77 78.67 Z" />
<path fill="#fefcf5" opacity="1.00" d=" M 318.47 93.42 C 318.92 94.85 319.30 96.30 319.65 97.76 L 320.77 97.33 C 320.65 98.19 320.40 99.91 320.28 100.76 C 323.12 100.56 325.82 99.47 328.69 99.43 C 327.67 99.85 326.64 100.27 325.62 100.69 C 325.55 102.88 322.35 102.47 323.39 105.19 C 324.43 106.84 325.53 108.46 326.63 110.08 C 325.53 109.49 324.43 108.92 323.34 108.34 L 323.66 107.42 C 322.02 107.41 320.38 107.38 318.73 107.39 C 317.99 108.81 317.23 110.22 316.47 111.63 C 316.47 108.91 316.73 106.09 315.56 103.54 C 314.00 103.54 312.59 102.89 311.16 102.38 C 311.12 102.14 311.04 101.66 310.99 101.42 C 313.25 101.47 315.51 101.51 317.77 101.59 C 317.63 101.04 317.36 99.92 317.22 99.37 L 318.62 99.69 C 318.51 97.60 318.42 95.51 318.47 93.42 Z" />
<path fill="#fefcf5" opacity="1.00" d=" M 139.67 101.41 C 140.29 100.08 140.90 98.74 141.53 97.41 C 141.56 100.12 141.51 102.83 141.41 105.53 C 143.24 105.63 145.34 104.98 146.83 106.44 C 147.78 106.36 148.74 106.33 149.71 106.35 C 148.67 108.27 143.88 105.92 144.52 108.80 L 143.36 108.21 L 143.48 110.00 C 142.75 110.21 141.28 110.62 140.55 110.82 C 143.43 110.57 143.52 113.04 143.83 114.89 C 143.25 114.74 142.09 114.43 141.51 114.27 C 141.51 113.59 141.49 112.24 141.48 111.56 C 139.72 111.52 137.97 111.46 136.21 111.38 L 136.73 112.66 C 136.01 112.63 134.58 112.57 133.86 112.54 C 134.47 111.45 135.10 110.32 136.55 110.34 C 136.55 109.32 136.56 107.28 136.57 106.26 C 136.17 106.33 135.39 106.47 135.00 106.54 C 134.30 104.87 132.68 104.07 131.17 103.29 C 132.07 103.33 133.86 103.40 134.76 103.43 L 134.24 104.58 C 135.28 104.57 137.36 104.55 138.40 104.55 C 138.90 103.53 139.33 102.49 139.67 101.41 Z" />
<path fill="#fefcf5" opacity="1.00" d=" M 208.40 197.32 C 215.22 192.29 222.32 187.64 229.03 182.46 C 232.59 184.76 236.02 187.28 239.48 189.74 C 244.74 192.96 249.17 197.67 254.81 200.15 C 275.54 200.32 296.28 200.13 317.02 200.24 C 317.72 200.33 319.14 200.49 319.85 200.58 C 318.16 202.96 316.47 205.34 314.89 207.80 C 293.28 207.77 271.66 207.96 250.05 207.71 C 242.90 202.81 236.34 196.99 229.13 192.14 C 222.71 196.97 216.41 201.95 209.97 206.76 C 208.31 208.19 205.99 207.69 203.99 207.81 C 183.61 207.64 163.22 208.04 142.84 207.61 C 141.41 205.07 139.80 202.65 138.13 200.27 C 159.44 200.12 180.75 200.26 202.07 200.21 C 204.57 200.48 206.46 198.58 208.40 197.32 Z" />
<path fill="#fefcf5" opacity="1.00" d=" M 148.25 214.29 C 185.48 213.87 222.73 214.58 259.96 213.89 C 270.65 213.92 281.34 213.91 292.03 213.80 C 297.93 213.93 303.87 213.41 309.73 214.33 C 306.99 216.84 304.63 219.72 302.14 222.47 C 253.53 222.35 204.91 222.86 156.30 222.50 C 153.18 220.24 150.94 217.02 148.25 214.29 Z" />
<path fill="#fefcf5" opacity="1.00" d=" M 159.37 225.66 C 205.67 225.56 251.97 225.48 298.27 225.64 C 296.41 228.11 293.73 229.69 291.17 231.31 C 249.65 231.36 208.12 231.20 166.60 231.29 C 164.00 229.68 161.64 227.71 159.37 225.66 Z" />
<path fill="#fefcf5" opacity="1.00" d=" M 174.37 237.02 C 174.41 236.69 174.49 236.03 174.53 235.71 C 206.70 235.94 238.87 235.74 271.04 235.81 C 275.68 235.92 280.40 235.36 284.97 236.44 C 280.52 237.80 276.89 241.81 271.95 241.22 C 242.95 241.19 213.96 241.17 184.96 241.21 C 181.01 241.32 177.86 238.46 174.37 237.02 Z" />
<path fill="#fefcf5" opacity="1.00" d=" M 191.43 244.91 C 209.94 244.44 228.48 244.83 247.00 244.70 C 253.42 244.80 259.86 244.46 266.27 244.91 C 254.54 249.78 241.69 251.90 229.02 251.44 C 216.21 251.96 203.33 249.62 191.43 244.91 Z" />
</g>
</svg>
