<?xml version="1.0" encoding="UTF-8" ?>
<!DOCTYPE svg PUBLIC "-//W3C//DTD SVG 1.1//EN" "http://www.w3.org/Graphics/SVG/1.1/DTD/svg11.dtd">
<svg width="608pt" height="302pt" viewBox="0 0 608 302" version="1.1" xmlns="http://www.w3.org/2000/svg">
<g id="#ffffffff">
<path fill="#ffffff" opacity="1.00" d=" M 0.00 0.00 L 2.13 0.00 C 2.21 19.09 1.86 38.19 2.36 57.27 C 1.72 67.80 1.86 78.40 2.29 88.94 C 1.68 108.87 2.22 128.82 2.06 148.76 C 2.05 148.93 2.04 149.29 2.04 149.47 C 1.94 200.31 2.03 251.16 1.99 302.00 L 0.00 302.00 L 0.00 0.00 Z" />
<path fill="#ffffff" opacity="1.00" d=" M 7.11 0.00 L 43.91 0.00 C 72.21 14.58 100.63 28.93 129.00 43.36 C 129.00 28.91 129.00 14.45 129.00 0.00 L 138.50 0.00 C 138.54 19.35 138.41 38.70 138.57 58.05 C 93.21 58.32 47.85 58.12 2.49 58.15 C 2.68 54.73 2.61 51.30 2.57 47.88 C 24.89 47.74 47.22 48.00 69.55 47.75 C 47.43 36.06 24.96 25.01 2.71 13.56 C 2.77 11.80 2.75 10.04 2.72 8.28 C 28.73 21.25 54.71 34.32 80.66 47.38 C 88.14 48.41 95.84 47.64 103.40 47.74 C 71.49 31.47 39.02 16.27 7.11 0.00 Z" />
<path fill="#ffffff" opacity="1.00" d=" M 169.00 0.00 L 179.25 0.00 C 179.23 14.44 179.28 28.87 179.22 43.31 C 198.31 33.75 217.22 23.85 236.29 14.25 C 245.41 9.44 254.75 5.04 263.75 0.00 L 278.13 0.00 C 246.60 15.79 215.17 31.81 183.66 47.64 C 190.43 48.00 197.22 47.80 204.00 47.84 C 206.15 47.95 208.07 46.90 209.93 45.97 C 240.41 30.49 271.10 15.40 301.62 0.00 L 304.49 0.00 C 304.50 4.60 304.54 9.19 304.40 13.79 C 282.06 24.88 259.89 36.35 237.69 47.73 C 259.94 48.01 282.20 47.76 304.45 47.86 C 304.51 51.31 304.54 54.76 304.40 58.21 C 259.27 58.11 214.13 58.20 169.00 58.16 C 169.00 38.78 169.00 19.39 169.00 0.00 Z" />
<path fill="#ffffff" opacity="1.00" d=" M 376.23 71.53 C 392.46 71.83 408.70 71.30 424.92 71.81 C 452.01 72.13 479.13 71.56 506.22 72.09 C 506.30 100.08 506.21 128.07 506.26 156.06 C 506.33 161.26 505.51 166.43 504.64 171.55 L 503.38 171.14 C 503.83 169.34 504.44 167.43 503.99 165.57 L 503.44 165.53 C 503.51 165.24 503.65 164.66 503.72 164.37 L 504.04 163.90 C 505.35 162.76 504.67 160.59 504.96 159.04 C 504.99 130.44 505.03 101.84 504.94 73.23 C 478.96 73.41 452.96 73.27 426.98 73.31 C 415.68 72.36 404.33 72.93 393.00 72.78 C 387.80 72.92 382.57 72.46 377.39 73.01 C 376.91 77.67 377.20 82.36 377.16 87.03 C 377.13 109.03 377.20 131.03 377.12 153.02 C 377.19 162.77 378.43 172.61 381.76 181.81 L 381.82 182.04 C 382.04 182.62 382.47 183.77 382.69 184.34 L 382.74 184.44 C 385.96 194.91 391.89 204.43 399.00 212.71 C 399.04 212.76 399.14 212.88 399.19 212.93 C 410.27 225.95 425.13 235.58 441.04 241.60 C 454.26 237.24 466.39 229.55 476.64 220.14 C 477.14 219.70 477.63 219.24 478.10 218.78 C 489.15 207.71 497.46 193.84 501.50 178.71 L 501.71 178.08 C 502.50 176.10 503.49 174.02 503.07 171.83 C 503.38 171.99 503.99 172.31 504.29 172.47 C 500.79 190.54 491.55 207.46 478.33 220.28 C 467.70 230.35 454.92 238.38 441.01 242.98 C 427.33 237.87 414.57 230.06 403.99 219.95 C 386.96 203.62 376.69 180.49 376.01 156.91 C 375.98 130.26 376.03 103.62 375.98 76.98 C 375.98 75.16 376.09 73.34 376.23 71.53 Z" />
<path fill="#ffffff" opacity="1.00" d=" M 169.08 88.44 C 214.18 88.51 259.29 88.52 304.40 88.44 C 304.51 91.72 304.51 95.01 304.52 98.30 C 282.19 98.38 259.85 98.19 237.52 98.40 C 238.83 99.21 240.16 100.00 241.53 100.72 C 262.59 111.28 283.51 122.13 304.54 132.77 C 304.51 134.67 304.49 136.57 304.46 138.47 C 278.44 125.15 252.46 111.71 226.31 98.64 C 218.93 97.65 211.34 98.45 203.87 98.28 C 236.97 115.41 270.55 131.61 303.66 148.72 C 301.13 149.05 298.57 149.33 296.02 149.06 C 289.67 148.43 283.31 149.16 276.95 148.84 C 273.63 148.58 270.10 149.38 266.94 148.07 C 242.64 135.79 218.46 123.26 194.13 111.02 C 189.21 108.55 184.42 105.78 179.28 103.76 C 179.16 118.75 179.36 133.74 179.18 148.73 C 175.82 148.90 172.46 149.17 169.10 149.31 C 168.92 129.02 168.96 108.73 169.08 88.44 Z" />
<path fill="#ffffff" opacity="1.00" d=" M 2.60 88.55 C 47.90 88.40 93.20 88.53 138.50 88.49 C 138.47 108.71 138.56 128.92 138.45 149.14 C 135.35 148.80 132.23 149.00 129.14 149.26 C 128.82 133.92 129.10 118.56 128.99 103.21 C 102.37 116.85 75.75 130.48 49.11 144.07 C 46.07 145.59 43.21 147.55 39.93 148.52 C 35.01 149.39 29.99 149.13 25.02 149.23 C 57.18 131.87 89.87 115.47 122.14 98.31 C 116.44 98.10 110.73 98.29 105.03 98.19 C 102.71 98.26 100.21 97.89 98.10 99.07 C 70.28 113.61 42.38 128.03 14.53 142.51 C 10.62 144.50 6.83 146.76 2.78 148.45 C 2.91 143.66 2.53 138.84 2.97 134.06 C 3.15 132.65 4.90 132.44 5.86 131.70 C 27.65 120.58 49.53 109.64 71.28 98.43 C 48.39 98.10 25.49 98.48 2.60 98.25 C 2.68 95.02 2.70 91.78 2.60 88.55 Z" />
</g>
<g id="#060606ff">
<path fill="#060606" opacity="1.00" d=" M 2.13 0.00 L 2.64 0.00 C 2.62 2.76 2.65 5.52 2.72 8.28 C 2.75 10.04 2.77 11.80 2.71 13.56 C 2.22 24.99 2.49 36.44 2.57 47.88 C 2.61 51.30 2.68 54.73 2.49 58.15 L 2.36 57.27 C 1.86 38.19 2.21 19.09 2.13 0.00 Z" />
<path fill="#060606" opacity="1.00" d=" M 377.39 73.01 C 382.57 72.46 387.80 72.92 393.00 72.78 C 404.33 72.93 415.68 72.36 426.98 73.31 C 452.96 73.27 478.96 73.41 504.94 73.23 C 505.03 101.84 504.99 130.44 504.96 159.04 C 504.67 160.59 505.35 162.76 504.04 163.90 C 504.34 134.00 504.27 104.10 504.09 74.20 C 479.06 74.23 454.03 74.17 429.01 74.23 C 425.33 74.24 421.72 73.42 418.05 73.46 C 404.70 73.52 391.36 73.44 378.01 73.51 C 377.76 93.33 377.98 113.16 377.91 132.99 C 378.12 147.15 376.78 161.61 380.72 175.41 C 381.26 177.51 381.54 179.66 381.76 181.81 C 378.43 172.61 377.19 162.77 377.12 153.02 C 377.20 131.03 377.13 109.03 377.16 87.03 C 377.20 82.36 376.91 77.67 377.39 73.01 Z" />
<path fill="#060606" opacity="1.00" d=" M 437.07 80.42 C 440.14 80.46 443.21 80.48 446.28 80.57 C 446.24 84.28 446.24 87.98 446.23 91.69 C 454.46 91.70 462.69 91.71 470.92 91.68 C 470.99 94.52 471.07 97.36 470.94 100.20 C 468.09 100.17 465.24 100.21 462.39 100.30 C 460.67 98.48 458.75 96.30 455.95 96.68 C 453.46 96.38 451.88 98.57 451.32 100.70 C 449.65 100.70 448.00 100.70 446.35 100.70 C 446.18 105.80 446.26 110.90 446.23 115.99 C 446.27 123.75 446.25 131.51 446.25 139.27 C 447.33 138.70 448.42 138.12 449.51 137.53 C 450.91 137.13 452.32 136.77 453.72 136.32 C 452.35 137.47 450.81 138.63 448.93 138.58 C 444.73 140.23 440.79 142.48 437.07 145.00 C 437.08 138.30 436.67 131.57 437.33 124.88 C 435.00 124.80 432.67 124.65 430.35 124.49 C 427.77 116.32 432.59 108.50 434.53 100.76 C 427.10 100.70 419.66 100.76 412.23 100.71 C 412.21 97.68 412.24 94.66 412.46 91.64 C 420.62 91.78 428.79 91.63 436.96 91.73 C 437.00 87.96 436.99 84.19 437.07 80.42 M 434.74 101.02 C 432.77 108.65 428.09 116.34 430.57 124.42 C 432.91 124.23 436.39 124.99 436.98 121.79 C 436.54 119.35 432.35 121.66 434.27 118.13 C 435.06 114.06 435.21 109.91 435.85 105.82 C 435.62 110.39 435.28 114.97 434.19 119.43 C 435.24 119.34 436.29 119.25 437.34 119.18 C 436.68 115.50 437.16 111.75 436.94 108.04 C 436.96 106.36 436.38 104.48 437.49 103.01 C 439.95 102.14 442.10 100.30 442.50 97.60 C 439.32 96.91 436.67 98.64 434.74 101.02 Z" />
<path fill="#060606" opacity="1.00" d=" M 429.07 153.68 C 429.78 149.46 433.39 147.12 436.82 145.17 C 433.36 147.49 428.73 150.25 429.77 155.19 C 429.59 154.81 429.24 154.06 429.07 153.68 Z" />
<path fill="#060606" opacity="1.00" d=" M 436.87 148.84 C 439.87 147.24 443.02 145.93 446.20 144.70 C 446.08 154.07 446.76 163.48 445.80 172.82 C 443.57 167.03 440.12 161.87 436.90 156.61 C 437.00 154.02 437.02 151.43 436.87 148.84 Z" />
<path fill="#060606" opacity="1.00" d=" M 432.28 159.67 C 433.14 159.88 434.02 160.10 434.90 160.31 C 434.91 160.82 434.92 161.85 434.93 162.36 C 434.75 166.64 434.85 170.93 434.52 175.21 L 434.41 176.05 L 434.33 175.18 C 434.03 170.94 434.19 166.68 434.57 162.45 C 433.93 161.58 433.28 160.72 432.62 159.88 C 432.34 160.77 431.78 162.56 431.50 163.45 L 431.40 162.22 C 431.68 161.37 431.98 160.52 432.28 159.67 Z" />
<path fill="#060606" opacity="1.00" d=" M 436.99 164.58 C 446.02 175.81 446.16 192.00 440.72 204.88 C 439.46 203.58 438.20 202.28 436.90 201.03 C 437.10 192.61 436.96 184.18 436.99 175.76 C 437.00 172.03 437.01 168.31 436.99 164.58 Z" />
<path fill="#060606" opacity="1.00" d=" M 503.44 165.53 L 503.99 165.57 C 504.44 167.43 503.83 169.34 503.38 171.14 C 501.97 169.86 503.30 167.23 503.44 165.53 Z" />
<path fill="#060606" opacity="1.00" d=" M 502.61 171.60 L 503.07 171.83 C 503.49 174.02 502.50 176.10 501.71 178.08 C 501.58 177.62 501.34 176.70 501.21 176.24 C 501.34 174.62 501.68 172.96 502.61 171.60 Z" />
<path fill="#060606" opacity="1.00" d=" M 496.63 190.47 C 498.38 186.60 499.42 182.43 501.50 178.71 C 497.46 193.84 489.15 207.71 478.10 218.78 C 480.05 214.67 483.70 211.85 486.29 208.21 C 490.31 202.65 493.88 196.76 496.63 190.47 Z" />
<path fill="#060606" opacity="1.00" d=" M 382.74 184.44 C 385.69 188.96 387.09 194.28 390.09 198.78 C 392.63 203.70 396.77 207.61 399.00 212.71 C 391.89 204.43 385.96 194.91 382.74 184.44 Z" />
<path fill="#060606" opacity="1.00" d=" M 399.19 212.93 C 402.01 214.71 404.22 217.21 406.60 219.51 C 416.64 228.66 428.47 235.85 441.09 240.81 C 452.58 236.82 463.39 230.61 472.57 222.60 C 473.80 221.58 475.23 220.86 476.64 220.14 C 466.39 229.55 454.26 237.24 441.04 241.60 C 425.13 235.58 410.27 225.95 399.19 212.93 Z" />
</g>
<g id="#be0027ff">
<path fill="#be0027" opacity="1.00" d=" M 2.64 0.00 L 7.11 0.00 C 39.02 16.27 71.49 31.47 103.40 47.74 C 95.84 47.64 88.14 48.41 80.66 47.38 C 54.71 34.32 28.73 21.25 2.72 8.28 C 2.65 5.52 2.62 2.76 2.64 0.00 Z" />
<path fill="#be0027" opacity="1.00" d=" M 138.50 0.00 L 169.00 0.00 C 169.00 19.39 169.00 38.78 169.00 58.16 C 214.13 58.20 259.27 58.11 304.40 58.21 C 304.15 68.28 304.15 78.37 304.40 88.44 C 259.29 88.52 214.18 88.51 169.08 88.44 C 168.96 108.73 168.92 129.02 169.10 149.31 C 158.89 149.38 148.65 149.68 138.45 149.14 C 138.56 128.92 138.47 108.71 138.50 88.49 C 93.20 88.53 47.90 88.40 2.60 88.55 L 2.59 87.65 C 3.22 82.80 2.99 77.90 3.00 73.02 C 2.97 68.06 3.34 63.06 2.49 58.15 C 47.85 58.12 93.21 58.32 138.57 58.05 C 138.41 38.70 138.54 19.35 138.50 0.00 Z" />
<path fill="#be0027" opacity="1.00" d=" M 278.13 0.00 L 301.62 0.00 C 271.10 15.40 240.41 30.49 209.93 45.97 C 208.07 46.90 206.15 47.95 204.00 47.84 C 197.22 47.80 190.43 48.00 183.66 47.64 C 215.17 31.81 246.60 15.79 278.13 0.00 Z" />
<path fill="#be0027" opacity="1.00" d=" M 98.10 99.07 C 100.21 97.89 102.71 98.26 105.03 98.19 C 110.73 98.29 116.44 98.10 122.14 98.31 C 89.87 115.47 57.18 131.87 25.02 149.23 C 17.36 149.58 9.70 149.21 2.04 149.47 C 2.04 149.29 2.05 148.93 2.06 148.76 L 2.78 148.45 C 6.83 146.76 10.62 144.50 14.53 142.51 C 42.38 128.03 70.28 113.61 98.10 99.07 Z" />
<path fill="#be0027" opacity="1.00" d=" M 203.87 98.28 C 211.34 98.45 218.93 97.65 226.31 98.64 C 252.46 111.71 278.44 125.15 304.46 138.47 C 304.39 141.86 304.43 145.25 304.62 148.64 C 304.38 148.66 303.90 148.70 303.66 148.72 C 270.55 131.61 236.97 115.41 203.87 98.28 Z" />
</g>
<g id="#3b5aa3ff">
<path fill="#3b5aa3" opacity="1.00" d=" M 43.91 0.00 L 129.00 0.00 C 129.00 14.45 129.00 28.91 129.00 43.36 C 100.63 28.93 72.21 14.58 43.91 0.00 Z" />
<path fill="#3b5aa3" opacity="1.00" d=" M 179.25 0.00 L 263.75 0.00 C 254.75 5.04 245.41 9.44 236.29 14.25 C 217.22 23.85 198.31 33.75 179.22 43.31 C 179.28 28.87 179.23 14.44 179.25 0.00 Z" />
<path fill="#3b5aa3" opacity="1.00" d=" M 304.49 0.00 L 606.99 0.00 C 607.02 100.67 607.00 201.33 607.00 302.00 L 1.99 302.00 C 2.03 251.16 1.94 200.31 2.04 149.47 C 9.70 149.21 17.36 149.58 25.02 149.23 C 29.99 149.13 35.01 149.39 39.93 148.52 C 43.21 147.55 46.07 145.59 49.11 144.07 C 75.75 130.48 102.37 116.85 128.99 103.21 C 129.10 118.56 128.82 133.92 129.14 149.26 C 132.23 149.00 135.35 148.80 138.45 149.14 C 148.65 149.68 158.89 149.38 169.10 149.31 C 172.46 149.17 175.82 148.90 179.18 148.73 C 179.36 133.74 179.16 118.75 179.28 103.76 C 184.42 105.78 189.21 108.55 194.13 111.02 C 218.46 123.26 242.64 135.79 266.94 148.07 C 270.10 149.38 273.63 148.58 276.95 148.84 C 283.31 149.16 289.67 148.43 296.02 149.06 C 298.57 149.33 301.13 149.05 303.66 148.72 C 303.90 148.70 304.38 148.66 304.62 148.64 C 304.43 145.25 304.39 141.86 304.46 138.47 C 304.49 136.57 304.51 134.67 304.54 132.77 C 283.51 122.13 262.59 111.28 241.53 100.72 C 240.16 100.00 238.83 99.21 237.52 98.40 C 259.85 98.19 282.19 98.38 304.52 98.30 C 304.51 95.01 304.51 91.72 304.40 88.44 C 304.15 78.37 304.15 68.28 304.40 58.21 C 304.54 54.76 304.51 51.31 304.45 47.86 C 282.20 47.76 259.94 48.01 237.69 47.73 C 259.89 36.35 282.06 24.88 304.40 13.79 C 304.54 9.19 304.50 4.60 304.49 0.00 M 376.23 71.53 C 376.09 73.34 375.98 75.16 375.98 76.98 C 376.03 103.62 375.98 130.26 376.01 156.91 C 376.69 180.49 386.96 203.62 403.99 219.95 C 414.57 230.06 427.33 237.87 441.01 242.98 C 454.92 238.38 467.70 230.35 478.33 220.28 C 491.55 207.46 500.79 190.54 504.29 172.47 L 504.76 172.71 C 504.73 172.42 504.67 171.84 504.64 171.55 C 505.51 166.43 506.33 161.26 506.26 156.06 C 506.21 128.07 506.30 100.08 506.22 72.09 C 479.13 71.56 452.01 72.13 424.92 71.81 C 408.70 71.30 392.46 71.83 376.23 71.53 Z" />
<path fill="#3b5aa3" opacity="1.00" d=" M 2.71 13.56 C 24.96 25.01 47.43 36.06 69.55 47.75 C 47.22 48.00 24.89 47.74 2.57 47.88 C 2.49 36.44 2.22 24.99 2.71 13.56 Z" />
<path fill="#3b5aa3" opacity="1.00" d=" M 2.29 88.94 L 2.59 87.65 L 2.60 88.55 C 2.70 91.78 2.68 95.02 2.60 98.25 C 25.49 98.48 48.39 98.10 71.28 98.43 C 49.53 109.64 27.65 120.58 5.86 131.70 C 4.90 132.44 3.15 132.65 2.97 134.06 C 2.53 138.84 2.91 143.66 2.78 148.45 L 2.06 148.76 C 2.22 128.82 1.68 108.87 2.29 88.94 Z" />
</g>
<g id="#2c437aff">
<path fill="#2c437a" opacity="1.00" d=" M 606.99 0.00 L 608.00 0.00 L 608.00 302.00 L 607.00 302.00 C 607.00 201.33 607.02 100.67 606.99 0.00 Z" />
</g>
<g id="#8e011dff">
<path fill="#8e011d" opacity="1.00" d=" M 2.36 57.27 L 2.49 58.15 C 3.34 63.06 2.97 68.06 3.00 73.02 C 2.99 77.90 3.22 82.80 2.59 87.65 L 2.29 88.94 C 1.86 78.40 1.72 67.80 2.36 57.27 Z" />
</g>
<g id="#b4d7f4ff">
<path fill="#b4d7f4" opacity="1.00" d=" M 378.01 73.51 C 391.36 73.44 404.70 73.52 418.05 73.46 C 421.72 73.42 425.33 74.24 429.01 74.23 C 454.03 74.17 479.06 74.23 504.09 74.20 C 504.27 104.10 504.34 134.00 504.04 163.90 L 503.72 164.37 C 503.65 164.66 503.51 165.24 503.44 165.53 C 503.30 167.23 501.97 169.86 503.38 171.14 L 504.64 171.55 C 504.67 171.84 504.73 172.42 504.76 172.71 L 504.29 172.47 C 503.99 172.31 503.38 171.99 503.07 171.83 L 502.61 171.60 C 501.68 172.96 501.34 174.62 501.21 176.24 C 499.19 175.70 497.11 175.50 495.03 175.54 C 485.94 175.64 476.86 175.55 467.78 175.60 C 467.66 170.39 467.54 165.19 467.51 159.98 C 467.35 154.12 464.10 149.02 462.61 143.50 C 465.37 135.33 465.79 126.55 465.04 118.01 C 464.93 115.70 462.60 114.76 460.91 113.76 L 460.02 113.19 C 459.98 112.90 459.88 112.32 459.84 112.03 C 461.59 109.86 464.76 109.76 467.05 108.25 C 465.26 106.18 463.92 103.78 463.02 101.20 C 465.53 101.19 468.05 101.24 470.56 101.18 C 470.66 100.93 470.85 100.45 470.94 100.20 C 471.07 97.36 470.99 94.52 470.92 91.68 C 462.69 91.71 454.46 91.70 446.23 91.69 C 446.24 87.98 446.24 84.28 446.28 80.57 C 443.21 80.48 440.14 80.46 437.07 80.42 C 436.99 84.19 437.00 87.96 436.96 91.73 C 428.79 91.63 420.62 91.78 412.46 91.64 C 412.24 94.66 412.21 97.68 412.23 100.71 C 419.66 100.76 427.10 100.70 434.53 100.76 C 432.59 108.50 427.77 116.32 430.35 124.49 C 432.67 124.65 435.00 124.80 437.33 124.88 C 436.67 131.57 437.08 138.30 437.07 145.00 L 436.82 145.17 C 433.39 147.12 429.78 149.46 429.07 153.68 C 428.64 154.11 427.79 154.96 427.37 155.39 L 427.33 155.43 L 427.32 155.46 L 426.99 156.72 C 426.13 159.88 426.06 163.29 424.41 166.20 C 424.06 166.47 423.35 167.00 422.99 167.26 C 419.23 169.54 414.86 170.58 411.17 172.98 C 410.63 173.77 410.16 174.60 409.74 175.47 C 400.07 175.67 390.39 175.66 380.72 175.41 C 376.78 161.61 378.12 147.15 377.91 132.99 C 377.98 113.16 377.76 93.33 378.01 73.51 Z" />
<path fill="#b4d7f4" opacity="1.00" d=" M 446.35 100.70 C 448.00 100.70 449.65 100.70 451.32 100.70 C 450.81 101.97 450.35 103.25 449.92 104.54 C 449.72 105.98 449.54 107.42 449.34 108.86 C 450.05 108.83 451.49 108.78 452.21 108.76 C 452.41 111.47 452.45 114.65 449.07 114.99 C 448.12 115.32 447.17 115.65 446.23 115.99 C 446.26 110.90 446.18 105.80 446.35 100.70 Z" />
<path fill="#b4d7f4" opacity="1.00" d=" M 436.35 103.59 C 436.63 103.45 437.20 103.15 437.49 103.01 C 436.38 104.48 436.96 106.36 436.94 108.04 C 437.16 111.75 436.68 115.50 437.34 119.18 C 436.29 119.25 435.24 119.34 434.19 119.43 C 435.28 114.97 435.62 110.39 435.85 105.82 C 435.98 105.27 436.23 104.15 436.35 103.59 Z" />
<path fill="#b4d7f4" opacity="1.00" d=" M 432.62 159.88 C 433.28 160.72 433.93 161.58 434.57 162.45 C 434.19 166.68 434.03 170.94 434.33 175.18 C 433.72 175.16 432.50 175.11 431.89 175.09 C 431.99 171.21 431.92 167.32 431.50 163.45 C 431.78 162.56 432.34 160.77 432.62 159.88 Z" />
<path fill="#b4d7f4" opacity="1.00" d=" M 434.93 162.36 C 435.61 163.10 436.30 163.84 436.99 164.58 C 437.01 168.31 437.00 172.03 436.99 175.76 C 436.37 175.62 435.14 175.35 434.52 175.21 C 434.85 170.93 434.75 166.64 434.93 162.36 Z" />
<path fill="#b4d7f4" opacity="1.00" d=" M 430.39 164.67 C 431.49 168.11 430.84 171.77 431.00 175.31 L 429.99 175.36 C 429.92 171.80 429.72 168.20 430.39 164.67 Z" />
</g>
<g id="#efe6cdff">
<path fill="#efe6cd" opacity="1.00" d=" M 434.74 101.02 C 436.67 98.64 439.32 96.91 442.50 97.60 C 442.10 100.30 439.95 102.14 437.49 103.01 C 437.20 103.15 436.63 103.45 436.35 103.59 C 436.23 104.15 435.98 105.27 435.85 105.82 C 435.21 109.91 435.06 114.06 434.27 118.13 C 432.35 121.66 436.54 119.35 436.98 121.79 C 436.39 124.99 432.91 124.23 430.57 124.42 C 428.09 116.34 432.77 108.65 434.74 101.02 Z" />
<path fill="#efe6cd" opacity="1.00" d=" M 451.41 100.21 C 456.06 99.15 457.41 104.67 456.68 108.13 C 457.60 109.99 458.43 111.90 459.23 113.83 C 458.13 114.85 457.04 115.88 455.94 116.90 C 455.51 117.24 454.65 117.93 454.22 118.27 C 453.52 118.57 452.12 119.18 451.41 119.48 C 451.14 116.26 452.08 113.16 453.15 110.17 C 453.41 109.29 454.50 109.37 455.17 108.96 C 453.23 108.34 451.11 107.84 449.87 106.06 C 450.84 104.92 451.90 103.84 452.99 102.80 C 452.59 102.15 451.81 100.86 451.41 100.21 Z" />
<path fill="#efe6cd" opacity="1.00" d=" M 453.72 136.32 C 455.80 132.31 457.46 128.07 459.89 124.23 C 461.00 125.62 464.51 126.62 463.02 128.90 C 461.25 132.80 460.05 137.08 457.56 140.60 C 454.02 142.52 449.88 143.06 446.20 144.70 C 443.02 145.93 439.87 147.24 436.87 148.84 C 435.62 150.54 434.95 152.55 434.16 154.47 C 433.52 156.83 430.99 157.48 429.77 155.19 C 428.73 150.25 433.36 147.49 436.82 145.17 L 437.07 145.00 C 440.79 142.48 444.73 140.23 448.93 138.58 C 450.81 138.63 452.35 137.47 453.72 136.32 Z" />
<path fill="#efe6cd" opacity="1.00" d=" M 462.05 211.92 C 462.57 209.46 463.13 206.98 464.73 204.96 C 465.02 205.50 465.61 206.58 465.90 207.11 C 466.53 208.43 467.14 209.77 467.75 211.10 C 466.30 213.21 465.02 215.45 463.36 217.40 C 461.91 217.83 460.39 217.84 458.91 218.02 C 460.00 216.01 461.36 214.11 462.05 211.92 Z" />
</g>
<g id="#524330ff">
<path fill="#524330" opacity="1.00" d=" M 451.32 100.70 C 451.88 98.57 453.46 96.38 455.95 96.68 C 458.75 96.30 460.67 98.48 462.39 100.30 C 465.24 100.21 468.09 100.17 470.94 100.20 C 470.85 100.45 470.66 100.93 470.56 101.18 C 468.05 101.24 465.53 101.19 463.02 101.20 C 463.92 103.78 465.26 106.18 467.05 108.25 C 464.76 109.76 461.59 109.86 459.84 112.03 C 459.88 112.32 459.98 112.90 460.02 113.19 L 460.91 113.76 C 459.24 114.79 457.55 115.79 455.94 116.90 C 457.04 115.88 458.13 114.85 459.23 113.83 C 458.43 111.90 457.60 109.99 456.68 108.13 C 457.41 104.67 456.06 99.15 451.41 100.21 C 451.81 100.86 452.59 102.15 452.99 102.80 C 451.90 103.84 450.84 104.92 449.87 106.06 C 451.11 107.84 453.23 108.34 455.17 108.96 C 454.50 109.37 453.41 109.29 453.15 110.17 C 452.08 113.16 451.14 116.26 451.41 119.48 C 452.12 119.18 453.52 118.57 454.22 118.27 C 453.92 118.50 453.33 118.95 453.03 119.17 C 452.65 119.38 451.89 119.79 451.51 119.99 C 451.24 118.24 450.99 116.49 450.70 114.75 C 450.30 114.81 449.48 114.93 449.07 114.99 C 452.45 114.65 452.41 111.47 452.21 108.76 C 451.49 108.78 450.05 108.83 449.34 108.86 C 449.54 107.42 449.72 105.98 449.92 104.54 C 450.35 103.25 450.81 101.97 451.32 100.70 Z" />
<path fill="#524330" opacity="1.00" d=" M 424.41 166.20 C 426.06 163.29 426.13 159.88 426.99 156.72 C 426.45 159.93 426.88 163.68 424.41 166.20 Z" />
<path fill="#524330" opacity="1.00" d=" M 411.17 172.98 C 414.86 170.58 419.23 169.54 422.99 167.26 C 419.37 169.78 415.11 171.08 411.17 172.98 Z" />
</g>
<g id="#239e46ff">
<path fill="#239e46" opacity="1.00" d=" M 455.94 116.90 C 457.55 115.79 459.24 114.79 460.91 113.76 C 462.60 114.76 464.93 115.70 465.04 118.01 C 465.79 126.55 465.37 135.33 462.61 143.50 C 464.10 149.02 467.35 154.12 467.51 159.98 C 467.54 165.19 467.66 170.39 467.78 175.60 C 467.51 186.87 467.17 198.38 471.03 209.16 C 469.30 208.53 467.57 207.89 465.90 207.11 C 465.61 206.58 465.02 205.50 464.73 204.96 C 463.13 206.98 462.57 209.46 462.05 211.92 C 462.15 211.11 462.37 209.50 462.48 208.70 C 459.53 210.61 456.55 212.82 452.95 213.21 C 449.69 213.81 446.58 212.37 443.60 211.28 C 447.01 206.12 448.44 199.97 449.20 193.90 C 450.55 192.21 451.17 189.54 449.11 188.11 C 448.85 182.87 447.49 177.76 445.80 172.82 C 446.76 163.48 446.08 154.07 446.20 144.70 C 449.88 143.06 454.02 142.52 457.56 140.60 C 460.05 137.08 461.25 132.80 463.02 128.90 C 464.51 126.62 461.00 125.62 459.89 124.23 C 457.46 128.07 455.80 132.31 453.72 136.32 C 452.32 136.77 450.91 137.13 449.51 137.53 C 448.42 138.12 447.33 138.70 446.25 139.27 C 446.25 131.51 446.27 123.75 446.23 115.99 C 447.17 115.65 448.12 115.32 449.07 114.99 C 449.48 114.93 450.30 114.81 450.70 114.75 C 450.99 116.49 451.24 118.24 451.51 119.99 C 451.89 119.79 452.65 119.38 453.03 119.17 C 453.33 118.95 453.92 118.50 454.22 118.27 C 454.65 117.93 455.51 117.24 455.94 116.90 Z" />
</g>
<g id="#a9bdc9ff">
<path fill="#a9bdc9" opacity="1.00" d=" M 434.16 154.47 C 434.95 152.55 435.62 150.54 436.87 148.84 C 437.02 151.43 437.00 154.02 436.90 156.61 C 436.00 155.88 435.09 155.17 434.16 154.47 Z" />
</g>
<g id="#e0af59ff">
<path fill="#e0af59" opacity="1.00" d=" M 427.37 155.39 C 427.79 154.96 428.64 154.11 429.07 153.68 C 429.24 154.06 429.59 154.81 429.77 155.19 C 430.99 157.48 433.52 156.83 434.16 154.47 C 435.09 155.17 436.00 155.88 436.90 156.61 C 440.12 161.87 443.57 167.03 445.80 172.82 C 447.49 177.76 448.85 182.87 449.11 188.11 C 448.78 190.03 448.80 191.99 449.20 193.90 C 448.44 199.97 447.01 206.12 443.60 211.28 C 443.07 212.02 442.53 212.76 442.00 213.48 C 441.83 213.30 441.49 212.94 441.32 212.75 C 443.08 210.70 440.64 209.03 439.51 207.46 C 435.29 202.70 431.03 197.98 426.87 193.16 C 425.95 192.07 425.56 190.66 424.99 189.39 C 429.16 193.06 432.75 197.33 436.90 201.03 C 438.20 202.28 439.46 203.58 440.72 204.88 C 446.16 192.00 446.02 175.81 436.99 164.58 C 436.30 163.84 435.61 163.10 434.93 162.36 C 434.92 161.85 434.91 160.82 434.90 160.31 C 434.02 160.10 433.14 159.88 432.28 159.67 C 431.98 160.52 431.68 161.37 431.40 162.22 C 429.72 164.86 427.97 167.46 425.95 169.86 C 425.71 170.09 425.21 170.57 424.97 170.81 C 421.56 172.23 417.91 173.21 414.93 175.47 C 414.17 176.11 413.44 176.79 412.72 177.46 C 414.56 177.54 416.40 177.60 418.24 177.68 C 418.56 180.31 417.12 182.14 414.86 183.25 C 410.81 182.94 409.61 178.93 409.74 175.47 C 410.16 174.60 410.63 173.77 411.17 172.98 C 415.11 171.08 419.37 169.78 422.99 167.26 C 423.35 167.00 424.06 166.47 424.41 166.20 C 426.88 163.68 426.45 159.93 426.99 156.72 L 427.32 155.46 C 427.33 155.44 427.36 155.41 427.37 155.39 M 445.26 175.73 C 446.12 186.07 446.84 196.80 443.13 206.71 C 443.52 206.48 444.30 206.02 444.69 205.79 C 446.02 201.96 447.30 198.04 447.28 193.94 C 447.32 187.84 447.89 181.43 445.26 175.73 Z" />
</g>
<g id="#8e9190ff">
<path fill="#8e9190" opacity="1.00" d=" M 427.33 155.43 L 427.37 155.39 C 427.36 155.41 427.33 155.44 427.32 155.46 L 427.33 155.43 Z" />
</g>
<g id="#97a1a5ff">
<path fill="#97a1a5" opacity="1.00" d=" M 425.95 169.86 C 427.97 167.46 429.72 164.86 431.40 162.22 L 431.50 163.45 C 431.92 167.32 431.99 171.21 431.89 175.09 C 432.50 175.11 433.72 175.16 434.33 175.18 L 434.41 176.05 C 431.33 175.82 428.24 175.67 425.16 175.76 C 421.74 175.91 418.32 175.90 414.93 175.47 C 417.91 173.21 421.56 172.23 424.97 170.81 C 424.93 172.85 424.05 175.79 427.15 175.61 C 427.12 173.77 427.11 171.93 427.01 170.10 L 425.95 169.86 M 430.39 164.67 C 429.72 168.20 429.92 171.80 429.99 175.36 L 431.00 175.31 C 430.84 171.77 431.49 168.11 430.39 164.67 M 428.35 168.34 C 427.78 170.17 427.30 173.45 428.70 174.73 C 429.35 172.94 429.80 169.52 428.35 168.34 M 421.21 173.24 C 419.86 173.92 419.80 174.62 421.02 175.34 C 422.35 174.65 422.42 173.95 421.21 173.24 M 423.08 173.36 C 421.54 176.40 426.33 173.58 423.08 173.36 Z" />
</g>
<g id="#b4d8f7ff">
<path fill="#b4d8f7" opacity="1.00" d=" M 428.35 168.34 C 429.80 169.52 429.35 172.94 428.70 174.73 C 427.30 173.45 427.78 170.17 428.35 168.34 Z" />
</g>
<g id="#b3d4f0ff">
<path fill="#b3d4f0" opacity="1.00" d=" M 424.97 170.81 C 425.21 170.57 425.71 170.09 425.95 169.86 L 427.01 170.10 C 427.11 171.93 427.12 173.77 427.15 175.61 C 424.05 175.79 424.93 172.85 424.97 170.81 Z" />
</g>
<g id="#b6ddfaff">
<path fill="#b6ddfa" opacity="1.00" d=" M 421.21 173.24 C 422.42 173.95 422.35 174.65 421.02 175.34 C 419.80 174.62 419.86 173.92 421.21 173.24 Z" />
</g>
<g id="#b9dffdff">
<path fill="#b9dffd" opacity="1.00" d=" M 423.08 173.36 C 426.33 173.58 421.54 176.40 423.08 173.36 Z" />
</g>
<g id="#a45a1fff">
<path fill="#a45a1f" opacity="1.00" d=" M 380.72 175.41 C 390.39 175.66 400.07 175.67 409.74 175.47 C 409.61 178.93 410.81 182.94 414.86 183.25 C 415.18 183.36 415.81 183.58 416.13 183.69 C 424.90 193.04 432.65 203.31 441.32 212.75 C 441.49 212.94 441.83 213.30 442.00 213.48 C 442.53 212.76 443.07 212.02 443.60 211.28 C 446.58 212.37 449.69 213.81 452.95 213.21 C 456.55 212.82 459.53 210.61 462.48 208.70 C 462.37 209.50 462.15 211.11 462.05 211.92 C 461.36 214.11 460.00 216.01 458.91 218.02 C 460.39 217.84 461.91 217.83 463.36 217.40 C 465.02 215.45 466.30 213.21 467.75 211.10 C 467.14 209.77 466.53 208.43 465.90 207.11 C 467.57 207.89 469.30 208.53 471.03 209.16 C 467.17 198.38 467.51 186.87 467.78 175.60 C 476.86 175.55 485.94 175.64 495.03 175.54 C 497.11 175.50 499.19 175.70 501.21 176.24 C 501.34 176.70 501.58 177.62 501.71 178.08 L 501.50 178.71 C 499.42 182.43 498.38 186.60 496.63 190.47 C 493.88 196.76 490.31 202.65 486.29 208.21 C 483.70 211.85 480.05 214.67 478.10 218.78 C 477.63 219.24 477.14 219.70 476.64 220.14 C 475.23 220.86 473.80 221.58 472.57 222.60 C 463.39 230.61 452.58 236.82 441.09 240.81 C 428.47 235.85 416.64 228.66 406.60 219.51 C 404.22 217.21 402.01 214.71 399.19 212.93 C 399.14 212.88 399.04 212.76 399.00 212.71 C 396.77 207.61 392.63 203.70 390.09 198.78 C 387.09 194.28 385.69 188.96 382.74 184.44 L 382.69 184.34 C 382.47 183.77 382.04 182.62 381.82 182.04 L 381.76 181.81 C 381.54 179.66 381.26 177.51 380.72 175.41 Z" />
</g>
<g id="#8d5521ff">
<path fill="#8d5521" opacity="1.00" d=" M 412.72 177.46 C 413.44 176.79 414.17 176.11 414.93 175.47 C 418.32 175.90 421.74 175.91 425.16 175.76 C 425.41 179.78 425.54 183.84 424.82 187.83 C 423.01 184.48 423.83 180.53 423.54 176.88 C 423.26 179.86 423.71 183.08 422.14 185.74 C 421.84 182.52 421.68 179.29 421.12 176.10 C 420.62 178.49 420.30 180.94 419.33 183.19 C 418.53 183.31 416.93 183.56 416.13 183.69 C 415.81 183.58 415.18 183.36 414.86 183.25 C 417.12 182.14 418.56 180.31 418.24 177.68 C 416.40 177.60 414.56 177.54 412.72 177.46 Z" />
</g>
<g id="#a45a1eff">
<path fill="#a45a1e" opacity="1.00" d=" M 425.16 175.76 C 428.24 175.67 431.33 175.82 434.41 176.05 C 433.67 183.34 433.92 190.72 434.28 198.03 C 435.06 195.76 435.12 193.35 435.05 190.98 C 434.90 185.72 435.34 180.43 434.52 175.21 C 435.14 175.35 436.37 175.62 436.99 175.76 C 436.96 184.18 437.10 192.61 436.90 201.03 C 432.75 197.33 429.16 193.06 424.99 189.39 C 423.11 187.31 421.23 185.24 419.33 183.19 C 420.30 180.94 420.62 178.49 421.12 176.10 C 421.68 179.29 421.84 182.52 422.14 185.74 C 423.71 183.08 423.26 179.86 423.54 176.88 C 423.83 180.53 423.01 184.48 424.82 187.83 C 425.54 183.84 425.41 179.78 425.16 175.76 Z" />
</g>
<g id="#522e12ff">
<path fill="#522e12" opacity="1.00" d=" M 434.41 176.05 L 434.52 175.21 C 435.34 180.43 434.90 185.72 435.05 190.98 C 435.12 193.35 435.06 195.76 434.28 198.03 C 433.92 190.72 433.67 183.34 434.41 176.05 Z" />
</g>
<g id="#ecd82eff">
<path fill="#ecd82e" opacity="1.00" d=" M 445.26 175.73 C 447.89 181.43 447.32 187.84 447.28 193.94 C 447.30 198.04 446.02 201.96 444.69 205.79 C 444.30 206.02 443.52 206.48 443.13 206.71 C 446.84 196.80 446.12 186.07 445.26 175.73 Z" />
</g>
<g id="#2b2116ff">
<path fill="#2b2116" opacity="1.00" d=" M 381.82 182.04 C 382.04 182.62 382.47 183.77 382.69 184.34 C 382.47 183.77 382.04 182.62 381.82 182.04 Z" />
</g>
<g id="#e0bc46ff">
<path fill="#e0bc46" opacity="1.00" d=" M 416.13 183.69 C 416.93 183.56 418.53 183.31 419.33 183.19 C 421.23 185.24 423.11 187.31 424.99 189.39 C 425.56 190.66 425.95 192.07 426.87 193.16 C 431.03 197.98 435.29 202.70 439.51 207.46 C 440.64 209.03 443.08 210.70 441.32 212.75 C 432.65 203.31 424.90 193.04 416.13 183.69 Z" />
</g>
<g id="#4e7c39ff">
<path fill="#4e7c39" opacity="1.00" d=" M 449.11 188.11 C 451.17 189.54 450.55 192.21 449.20 193.90 C 448.80 191.99 448.78 190.03 449.11 188.11 Z" />
</g>
</svg>
