<?xml version="1.0" encoding="UTF-8" ?>
<!DOCTYPE svg PUBLIC "-//W3C//DTD SVG 1.1//EN" "http://www.w3.org/Graphics/SVG/1.1/DTD/svg11.dtd">
<svg width="600pt" height="302pt" viewBox="0 0 600 302" version="1.1" xmlns="http://www.w3.org/2000/svg">
<g id="#ffffffff">
<path fill="#ffffff" opacity="1.00" d=" M 0.00 0.00 L 600.00 0.00 L 600.00 2.00 C 400.58 2.00 201.16 1.99 1.74 2.01 C 1.46 98.69 1.70 195.40 1.62 292.09 C 1.72 295.29 1.38 298.51 1.83 301.69 L 1.86 302.00 L 0.00 302.00 L 0.00 0.00 Z" />
<path fill="#ffffff" opacity="1.00" d=" M 92.31 62.29 C 261.25 62.21 430.19 62.26 599.12 62.26 C 599.09 82.00 599.14 101.74 599.10 121.47 C 459.75 121.51 320.39 121.53 181.04 121.46 C 151.48 101.72 121.88 82.02 92.31 62.29 Z" />
<path fill="#ffffff" opacity="1.00" d=" M 81.04 104.11 L 81.66 104.18 C 84.73 113.90 87.94 123.56 91.13 133.24 C 101.81 133.25 112.49 133.28 123.17 133.22 C 115.14 139.96 106.33 145.89 97.98 152.29 L 97.84 152.99 C 101.39 162.77 105.17 172.50 108.41 182.38 C 99.59 176.23 91.10 169.58 82.23 163.53 C 73.74 169.81 65.40 176.37 56.73 182.34 C 59.94 172.43 63.22 162.55 66.43 152.64 C 57.97 145.89 48.74 140.03 40.38 133.21 C 50.98 133.31 61.58 133.21 72.19 133.26 L 72.67 132.80 C 75.47 123.24 78.19 113.66 81.04 104.11 Z" />
<path fill="#ffffff" opacity="1.00" d=" M 93.08 240.92 C 122.51 221.25 152.13 201.81 181.38 181.90 C 212.25 181.56 243.14 181.85 274.02 181.75 C 382.38 181.77 490.73 181.72 599.09 181.78 C 599.13 201.51 599.12 221.24 599.09 240.98 C 430.42 240.97 261.75 241.10 93.08 240.92 Z" />
</g>
<g id="#be0027ff">
<path fill="#be0027" opacity="1.00" d=" M 1.62 292.09 C 1.70 195.40 1.46 98.69 1.74 2.01 L 1.73 3.20 C 1.81 102.70 1.61 202.20 1.83 301.69 C 1.38 298.51 1.72 295.29 1.62 292.09 Z" />
<path fill="#be0027" opacity="1.00" d=" M 2.86 3.16 C 4.25 3.06 5.64 2.99 7.03 2.96 C 204.69 2.93 402.34 2.98 600.00 2.93 L 600.00 302.00 L 1.86 302.00 L 1.83 301.69 C 2.38 301.24 3.48 300.34 4.02 299.89 C 32.76 280.65 61.53 261.45 90.27 242.21 C 91.11 241.58 92.06 241.14 93.08 240.92 C 261.75 241.10 430.42 240.97 599.09 240.98 C 599.12 221.24 599.13 201.51 599.09 181.78 C 490.73 181.72 382.38 181.77 274.02 181.75 C 243.14 181.85 212.25 181.56 181.38 181.90 C 182.13 181.09 182.96 180.40 183.89 179.82 C 197.92 170.50 211.99 161.23 226.01 151.88 C 211.03 141.73 195.96 131.70 181.04 121.46 C 320.39 121.53 459.75 121.51 599.10 121.47 C 599.14 101.74 599.09 82.00 599.12 62.26 C 430.19 62.26 261.25 62.21 92.31 62.29 C 62.40 42.72 32.73 22.79 2.86 3.16 Z" />
</g>
<g id="#5a0a1aff">
<path fill="#5a0a1a" opacity="1.00" d=" M 1.74 2.01 C 201.16 1.99 400.58 2.00 600.00 2.00 L 600.00 2.93 C 402.34 2.98 204.69 2.93 7.03 2.96 C 5.64 2.99 4.25 3.06 2.86 3.16 L 1.73 3.20 L 1.74 2.01 Z" />
</g>
<g id="#3b5aa3ff">
<path fill="#3b5aa3" opacity="1.00" d=" M 1.73 3.20 L 2.86 3.16 C 32.73 22.79 62.40 42.72 92.31 62.29 C 121.88 82.02 151.48 101.72 181.04 121.46 C 195.96 131.70 211.03 141.73 226.01 151.88 C 211.99 161.23 197.92 170.50 183.89 179.82 C 182.96 180.40 182.13 181.09 181.38 181.90 C 152.13 201.81 122.51 221.25 93.08 240.92 C 92.06 241.14 91.11 241.58 90.27 242.21 C 61.53 261.45 32.76 280.65 4.02 299.89 C 3.48 300.34 2.38 301.24 1.83 301.69 C 1.61 202.20 1.81 102.70 1.73 3.20 M 81.04 104.11 C 78.19 113.66 75.47 123.24 72.67 132.80 L 72.19 133.26 C 61.58 133.21 50.98 133.31 40.38 133.21 C 48.74 140.03 57.97 145.89 66.43 152.64 C 63.22 162.55 59.94 172.43 56.73 182.34 C 65.40 176.37 73.74 169.81 82.23 163.53 C 91.10 169.58 99.59 176.23 108.41 182.38 C 105.17 172.50 101.39 162.77 97.84 152.99 L 97.98 152.29 C 106.33 145.89 115.14 139.96 123.17 133.22 C 112.49 133.28 101.81 133.25 91.13 133.24 C 87.94 123.56 84.73 113.90 81.66 104.18 L 81.04 104.11 Z" />
</g>
</svg>
