<?xml version="1.0" encoding="UTF-8" ?>
<!DOCTYPE svg PUBLIC "-//W3C//DTD SVG 1.1//EN" "http://www.w3.org/Graphics/SVG/1.1/DTD/svg11.dtd">
<svg width="1000pt" height="750pt" viewBox="0 0 1000 750" version="1.1" xmlns="http://www.w3.org/2000/svg">
<g id="#ffffffff">
<path fill="#ffffff" opacity="1.00" d=" M 743.26 257.11 C 744.90 256.58 745.46 257.13 744.92 258.74 C 743.26 259.26 742.71 258.71 743.26 257.11 Z" />
<path fill="#ffffff" opacity="1.00" d=" M 747.35 262.44 C 749.87 259.80 753.46 257.49 757.24 258.97 C 757.84 260.99 755.53 262.09 754.53 263.49 C 752.78 265.05 752.00 267.86 749.45 268.33 L 748.49 268.69 C 748.41 269.98 748.31 271.27 748.18 272.56 C 745.39 274.92 741.45 275.88 739.59 279.32 L 739.57 279.16 C 739.61 278.37 739.68 276.80 739.72 276.01 C 737.23 276.26 735.31 277.78 733.51 279.34 C 722.83 287.71 710.78 294.06 698.52 299.73 C 698.59 299.12 698.72 297.90 698.79 297.28 C 697.79 297.30 695.78 297.34 694.78 297.36 C 693.97 298.03 693.15 298.70 692.33 299.36 L 691.45 299.58 L 691.53 300.91 C 689.83 300.97 688.39 301.90 686.96 302.70 C 686.54 303.01 685.71 303.64 685.29 303.96 L 684.95 303.98 C 682.68 303.54 680.91 305.10 679.45 306.58 C 678.29 307.78 676.65 308.30 675.68 306.55 C 672.61 309.80 668.45 311.57 664.57 313.62 C 662.66 313.18 661.27 311.89 660.18 310.34 C 656.43 307.90 651.66 310.05 647.62 310.63 C 644.35 310.90 642.27 313.55 640.29 315.83 C 641.23 319.86 638.49 323.87 634.54 324.78 C 631.64 327.26 628.69 329.87 625.03 331.16 C 620.55 331.79 615.95 330.68 611.53 331.65 C 607.90 332.67 607.51 336.80 605.06 339.09 C 601.66 342.41 598.25 345.94 593.86 347.95 C 592.26 348.80 590.54 347.90 588.94 347.61 C 586.86 348.75 584.68 348.03 582.57 347.54 C 579.96 348.62 577.67 350.37 574.95 351.16 C 571.90 352.16 568.98 350.26 565.97 350.01 C 563.96 347.15 561.74 344.30 560.96 340.82 C 559.73 337.22 561.96 333.66 561.49 329.99 C 560.87 326.22 564.17 323.59 564.78 320.14 C 565.64 316.97 561.87 315.99 560.54 313.70 C 556.64 312.84 552.53 312.20 549.24 309.80 C 546.19 307.37 542.06 308.77 538.51 308.59 C 536.06 311.46 531.95 309.99 528.69 310.39 C 528.17 312.63 525.76 312.31 523.99 312.34 C 519.84 312.04 516.02 314.36 511.83 313.39 C 515.45 312.02 519.26 311.20 523.05 310.43 C 542.39 305.93 561.54 300.62 580.89 296.19 C 590.16 293.61 599.52 291.30 608.90 289.19 C 614.22 287.77 619.50 286.09 624.96 285.26 C 625.93 284.80 626.93 284.36 627.95 283.96 C 633.83 284.02 639.54 282.49 645.42 282.49 C 646.50 281.48 647.66 280.55 648.96 279.83 C 649.47 279.52 650.48 278.90 650.99 278.60 C 651.98 278.53 652.98 278.46 653.99 278.41 C 655.65 277.53 657.38 276.76 659.15 276.11 C 659.87 276.90 660.63 277.68 661.40 278.45 C 665.20 278.51 670.64 279.93 670.42 284.71 C 673.27 283.47 674.00 280.30 675.11 277.70 C 677.38 277.20 679.41 278.10 681.11 279.57 C 683.04 281.47 685.75 280.28 688.02 279.89 C 691.37 280.69 695.39 280.15 697.53 283.42 C 699.09 283.62 700.65 283.81 702.24 284.00 C 702.55 286.20 702.05 288.33 701.57 290.46 C 702.85 292.42 704.84 293.88 707.30 293.60 C 710.87 289.89 709.48 284.54 709.18 279.95 C 710.91 278.23 712.88 276.53 713.15 273.92 C 714.92 273.79 716.71 273.67 718.50 273.57 C 719.40 269.92 722.53 267.84 725.74 266.35 C 725.17 264.54 723.20 262.51 724.06 260.64 C 726.96 260.73 729.86 260.65 732.76 260.41 C 734.66 260.15 736.44 260.97 737.72 262.37 C 740.92 262.47 744.13 262.48 747.35 262.44 Z" />
<path fill="#ffffff" opacity="1.00" d=" M 497.08 317.33 C 497.79 316.95 499.21 316.18 499.92 315.80 C 502.13 316.67 503.56 318.91 505.98 319.47 C 509.22 320.07 510.09 323.58 512.39 325.49 C 513.45 324.68 514.52 323.59 516.00 323.77 C 519.98 323.61 523.99 323.44 527.97 323.92 C 529.42 327.49 531.43 330.81 532.65 334.48 C 533.80 334.55 534.96 334.62 536.12 334.69 C 539.65 337.95 539.27 342.80 540.01 347.14 C 538.04 349.74 534.67 351.53 531.31 351.58 C 530.23 353.02 529.41 354.63 529.16 356.43 C 532.53 357.69 535.46 359.87 538.82 361.17 C 540.29 361.54 541.07 363.91 539.84 364.94 C 537.12 368.09 534.18 371.41 530.02 372.58 C 527.02 373.93 523.71 373.37 520.55 373.66 C 519.42 374.84 518.61 376.27 517.51 377.47 C 514.17 379.15 510.06 379.53 507.47 382.50 C 503.19 385.84 502.93 391.63 500.35 396.05 C 497.89 400.35 495.35 404.59 493.06 408.98 C 491.20 412.91 487.27 415.17 484.91 418.73 C 482.95 421.96 478.29 420.31 476.22 418.01 C 477.99 415.89 480.55 414.21 481.35 411.44 C 481.92 408.35 485.39 406.65 484.68 403.20 C 482.21 403.83 479.62 404.32 477.46 405.74 C 475.00 407.64 473.17 410.50 470.06 411.43 C 467.24 411.77 464.38 411.26 461.58 411.70 C 459.49 412.64 460.59 415.36 461.11 417.00 C 462.35 419.87 464.21 423.47 467.77 423.62 C 473.39 423.43 478.86 425.05 484.49 424.75 C 484.38 425.37 484.16 426.59 484.05 427.20 C 480.57 427.66 476.99 427.78 473.55 426.99 C 470.61 426.41 467.70 425.70 464.84 424.82 C 462.15 424.37 459.50 423.69 456.92 422.82 C 446.18 420.49 435.56 417.60 424.92 414.86 C 412.88 411.97 400.85 409.03 388.89 405.81 C 360.83 399.09 332.86 391.90 304.87 384.86 C 296.34 382.88 287.86 380.62 279.35 378.54 C 278.17 378.29 277.00 378.05 275.82 377.82 C 276.74 376.07 275.99 371.59 279.02 372.81 C 280.63 374.10 281.60 375.95 282.67 377.68 C 284.31 374.86 282.65 370.58 286.20 368.97 C 289.18 368.48 292.25 368.50 295.12 367.46 C 302.43 365.94 309.54 363.58 316.87 362.18 C 323.53 360.37 330.20 358.61 336.95 357.17 C 339.36 356.35 341.83 355.73 344.32 355.17 C 346.19 356.99 347.01 359.75 348.75 361.76 C 351.24 360.94 353.40 359.28 354.26 356.73 C 355.97 356.39 357.40 357.30 358.57 358.45 C 360.38 355.50 364.17 356.57 366.10 358.80 C 370.63 354.92 373.92 348.51 380.63 348.36 C 380.99 347.94 381.69 347.09 382.04 346.67 C 384.84 346.68 389.52 345.25 390.42 349.05 C 389.65 351.08 386.48 352.08 387.36 354.60 C 389.40 357.12 393.18 352.84 395.51 355.48 C 397.06 357.87 397.91 360.68 399.82 362.85 C 401.83 361.05 404.38 360.10 406.56 358.56 C 407.95 357.15 408.83 355.34 410.07 353.80 C 413.13 353.19 416.27 353.54 419.37 353.53 C 420.97 350.23 423.20 347.32 425.16 344.25 C 427.57 343.19 430.11 342.42 432.48 341.29 C 435.61 338.80 437.94 335.45 441.05 332.93 C 443.59 332.51 443.21 335.84 443.51 337.46 C 444.96 338.29 446.43 339.12 447.87 340.00 C 449.17 343.70 452.06 347.60 456.51 346.61 C 460.38 343.94 459.95 338.95 458.80 334.95 C 457.86 332.26 459.63 328.85 457.62 326.57 C 460.08 326.32 462.50 325.79 464.87 325.12 C 466.20 324.74 467.54 324.44 468.89 324.14 C 478.27 321.85 487.57 318.98 497.08 317.33 Z" />
<path fill="#ffffff" opacity="1.00" d=" M 766.35 329.19 L 766.67 328.58 C 768.90 330.23 771.67 330.62 774.34 331.06 C 771.47 331.93 768.56 330.92 765.69 330.68 C 765.87 330.17 766.09 329.67 766.35 329.19 Z" />
<path fill="#ffffff" opacity="1.00" d=" M 753.48 340.55 C 761.21 337.67 769.48 338.82 777.53 338.52 C 777.46 340.34 777.39 342.17 777.31 344.00 C 776.89 344.37 776.06 345.11 775.64 345.48 C 775.45 346.99 775.27 348.50 775.10 350.02 C 770.77 351.55 765.96 351.26 761.91 349.05 C 759.25 347.54 754.96 349.63 753.56 346.09 C 753.50 344.24 753.50 342.39 753.48 340.55 Z" />
</g>
<g id="#f3f3f3ff">
</g>
<g id="#fafafaff">
</g>
<g id="#f5f5f5ff">
</g>
<g id="#efefefff">
</g>
<g id="#fefefeff">
</g>
<g id="#000066ff">
<path fill="#000066" opacity="1.00" d=" M 553.42 231.86 C 554.26 230.45 555.09 229.03 555.95 227.63 C 556.73 227.61 558.30 227.59 559.09 227.57 C 561.03 229.52 561.43 232.26 561.62 234.88 C 562.22 237.78 560.12 240.20 559.15 242.76 C 558.03 241.93 556.95 241.11 555.86 240.28 C 556.51 237.15 555.00 234.40 553.42 231.86 Z" />
<path fill="#000066" opacity="1.00" d=" M 541.62 256.53 C 546.21 253.29 549.59 248.10 555.28 246.66 C 558.13 247.36 558.50 251.58 556.61 253.54 C 553.50 257.11 551.12 261.47 546.92 263.92 C 545.35 264.68 545.88 266.60 545.63 267.98 C 546.24 268.85 546.84 269.73 547.45 270.62 C 548.53 270.66 549.62 270.70 550.72 270.74 C 554.58 267.26 558.42 263.74 562.32 260.28 C 564.97 260.04 567.56 260.50 569.80 261.99 C 571.32 260.81 572.79 259.47 574.70 258.95 C 576.25 261.79 577.88 264.60 579.84 267.18 C 581.90 265.47 583.98 263.79 586.05 262.09 C 587.26 262.29 588.48 262.48 589.71 262.68 C 589.03 265.66 588.45 268.68 587.35 271.54 C 585.87 273.95 583.99 276.16 583.34 278.98 C 564.48 283.22 545.81 288.29 527.02 292.86 C 507.32 297.80 487.60 302.66 467.92 307.67 C 468.92 304.85 470.18 302.08 472.37 299.97 C 473.41 300.57 474.45 301.19 475.49 301.82 C 477.10 299.54 476.45 296.53 476.96 293.93 C 478.33 292.53 479.69 291.11 481.01 289.67 C 481.77 289.65 483.29 289.59 484.05 289.57 C 484.83 290.68 485.62 291.79 486.41 292.92 C 488.88 292.56 490.35 290.67 491.51 288.64 C 495.76 286.48 496.38 281.30 498.77 277.60 C 500.30 277.50 501.92 277.82 503.43 277.37 C 505.74 275.87 507.61 273.76 510.01 272.38 C 512.18 271.97 514.50 272.16 515.99 273.98 C 518.44 274.07 519.55 271.22 521.32 269.93 C 521.06 268.17 520.75 266.41 520.36 264.68 C 522.30 260.83 527.35 261.34 530.25 263.76 C 531.93 261.59 533.42 259.27 535.26 257.22 C 537.23 256.32 539.62 257.35 541.62 256.53 Z" />
<path fill="#000066" opacity="1.00" d=" M 605.21 268.90 C 606.62 266.03 608.69 263.55 611.66 262.22 C 613.37 264.40 616.31 264.41 618.71 265.35 C 620.14 266.23 620.91 267.84 621.87 269.18 C 614.29 270.91 606.82 273.08 599.21 274.69 C 598.97 272.46 598.81 270.23 598.62 268.01 C 599.83 266.71 601.04 265.40 602.24 264.08 C 602.83 264.13 604.03 264.21 604.63 264.25 C 604.82 265.80 605.01 267.35 605.21 268.90 Z" />
<path fill="#000066" opacity="1.00" d=" M 739.57 279.16 L 739.59 279.32 C 739.58 279.32 739.56 279.33 739.55 279.33 L 739.57 279.16 Z" />
<path fill="#000066" opacity="1.00" d=" M 664.57 313.62 C 668.45 311.57 672.61 309.80 675.68 306.55 C 676.65 308.30 678.29 307.78 679.45 306.58 C 678.56 307.92 677.44 309.30 677.61 311.01 C 679.30 311.18 681.03 311.17 682.73 310.96 L 682.20 311.20 C 680.76 311.41 679.30 311.51 677.86 311.64 C 675.82 314.67 673.31 317.36 670.13 319.20 C 669.58 318.04 668.96 316.94 668.27 315.87 C 669.12 316.53 669.98 317.17 670.86 317.80 C 673.30 315.78 675.62 313.60 677.62 311.13 C 677.19 310.41 676.35 308.97 675.92 308.25 C 672.59 310.19 669.26 312.21 665.58 313.41 C 664.19 313.89 662.70 313.64 661.29 313.71 C 660.65 312.67 660.38 311.51 660.18 310.34 C 661.27 311.89 662.66 313.18 664.57 313.62 Z" />
<path fill="#000066" opacity="1.00" d=" M 259.40 390.50 C 263.64 391.18 267.77 392.32 271.92 393.38 C 336.30 409.43 400.64 425.60 465.03 441.61 C 464.07 444.76 461.99 447.26 459.67 449.51 C 459.07 449.70 457.86 450.07 457.26 450.26 C 453.33 455.73 446.95 460.56 447.66 468.06 C 445.21 471.59 440.72 472.14 437.32 474.32 C 432.47 478.39 429.01 484.10 423.41 487.23 C 421.62 489.28 420.84 492.00 419.21 494.17 C 415.01 496.14 413.00 500.63 409.89 503.85 C 409.12 505.29 407.39 505.43 405.98 504.99 C 403.48 502.95 401.37 500.49 399.04 498.27 C 396.04 498.23 393.03 498.20 390.03 498.29 C 387.87 500.52 384.03 499.48 382.61 502.72 C 382.57 506.76 383.32 510.88 382.81 514.88 C 381.16 516.84 379.35 518.67 377.46 520.40 C 375.48 521.49 373.19 521.81 371.02 522.33 C 369.13 520.31 367.12 518.42 365.05 516.61 C 365.76 515.23 366.50 513.88 367.30 512.56 C 369.99 512.03 371.51 509.63 373.37 507.87 C 372.71 506.37 372.05 504.87 371.40 503.38 C 367.96 503.45 364.51 503.26 361.07 503.48 C 359.13 504.18 357.62 505.73 355.91 506.85 C 353.62 504.94 351.89 502.16 349.00 501.13 C 344.28 499.60 341.28 495.36 337.51 492.40 C 336.43 491.07 334.63 491.29 333.12 491.12 C 331.65 488.25 329.43 485.39 330.32 481.97 C 330.98 479.05 328.11 476.90 328.16 474.08 C 328.44 468.67 329.16 463.29 329.51 457.88 C 329.44 456.37 330.49 455.23 331.22 454.03 C 331.12 452.67 331.03 451.32 330.93 449.98 C 329.29 450.63 327.60 452.13 325.78 451.05 C 325.91 448.54 327.07 446.21 327.61 443.78 C 327.00 443.61 325.77 443.28 325.16 443.12 C 324.17 443.61 323.17 444.11 322.17 444.60 C 321.01 442.37 319.81 440.18 318.65 437.96 C 316.29 438.73 314.16 440.00 312.03 441.23 C 307.48 440.69 302.94 440.21 298.41 439.59 C 296.95 438.18 295.44 436.83 293.90 435.53 C 296.21 433.37 297.68 430.67 296.66 427.43 C 294.02 427.44 291.12 427.22 289.03 429.15 C 285.86 432.26 283.51 436.12 280.45 439.34 C 278.41 440.14 276.23 441.06 274.01 441.02 C 272.58 440.07 271.31 438.92 270.01 437.82 C 269.23 437.82 267.69 437.81 266.91 437.81 C 266.65 437.42 266.13 436.64 265.87 436.25 C 262.44 436.59 259.93 434.14 256.98 432.94 C 254.92 433.99 253.64 436.13 252.02 437.74 C 251.24 437.77 249.69 437.83 248.91 437.86 C 247.77 435.01 251.11 432.99 250.48 430.01 C 248.62 427.68 246.77 425.10 243.65 424.47 C 239.71 423.46 235.75 421.18 234.73 416.94 C 235.86 415.13 237.48 413.72 238.96 412.22 C 240.97 412.07 243.51 412.84 244.89 410.90 C 250.49 406.46 248.96 397.92 254.18 393.25 C 256.44 393.51 258.40 392.60 259.40 390.50 Z" />
<path fill="#000066" opacity="1.00" d=" M 222.58 419.85 C 223.38 418.99 224.19 418.14 224.99 417.29 C 225.73 417.27 227.19 417.22 227.92 417.20 C 231.86 420.06 229.19 427.03 224.21 425.83 C 222.58 424.19 222.05 422.08 222.58 419.85 Z" />
<path fill="#000066" opacity="1.00" d=" M 234.22 431.20 C 235.43 431.23 236.63 431.26 237.84 431.30 C 238.74 435.09 235.65 439.29 231.56 437.63 C 231.59 435.18 232.18 432.76 234.22 431.20 Z" />
</g>
<g id="#aa5323ff">
<path fill="#aa5323" opacity="1.00" d=" M 722.95 258.84 C 724.31 258.41 725.65 258.62 726.86 259.39 C 728.84 259.56 730.94 259.43 732.76 260.41 C 729.86 260.65 726.96 260.73 724.06 260.64 C 723.78 260.19 723.23 259.29 722.95 258.84 Z" />
<path fill="#aa5323" opacity="1.00" d=" M 748.49 268.69 L 749.45 268.33 C 748.46 274.11 751.64 279.15 755.50 283.09 C 750.90 286.29 745.94 288.95 741.44 292.29 C 733.53 298.51 725.17 304.12 716.87 309.78 C 714.43 312.04 712.75 315.28 709.10 315.75 C 708.20 316.23 707.32 316.75 706.48 317.31 C 706.16 319.16 706.04 321.18 704.57 322.53 C 703.49 320.57 702.03 318.73 699.57 318.68 C 699.29 319.46 698.73 321.01 698.45 321.79 C 698.62 320.57 698.79 319.35 698.97 318.13 C 697.29 317.82 695.58 317.20 693.89 317.72 C 692.96 318.04 692.05 318.40 691.16 318.79 C 691.03 318.60 690.78 318.23 690.66 318.05 L 689.89 317.02 C 690.20 316.88 690.81 316.61 691.12 316.48 C 696.69 312.82 702.71 309.86 708.14 306.00 C 702.84 307.51 698.54 311.15 693.40 313.03 C 693.31 311.57 693.22 310.11 693.15 308.66 L 693.82 308.32 C 695.45 306.93 696.32 304.96 697.14 303.03 C 695.34 303.31 693.52 303.54 691.95 304.50 C 692.16 304.32 692.58 303.96 692.79 303.78 C 693.44 303.44 694.75 302.75 695.40 302.41 C 695.80 300.45 693.51 300.19 692.33 299.36 C 693.15 298.70 693.97 298.03 694.78 297.36 C 695.78 297.34 697.79 297.30 698.79 297.28 C 698.72 297.90 698.59 299.12 698.52 299.73 C 710.78 294.06 722.83 287.71 733.51 279.34 C 735.31 277.78 737.23 276.26 739.72 276.01 C 739.68 276.80 739.61 278.37 739.57 279.16 L 739.55 279.33 C 739.56 279.33 739.58 279.32 739.59 279.32 C 741.45 275.88 745.39 274.92 748.18 272.56 C 748.31 271.27 748.41 269.98 748.49 268.69 M 717.43 299.29 C 714.83 301.84 709.73 301.15 708.60 305.18 C 710.80 303.73 713.16 302.54 715.64 301.65 C 718.40 300.62 720.01 297.94 722.55 296.56 C 724.94 295.14 727.75 294.10 729.33 291.66 C 725.05 293.63 720.84 295.99 717.43 299.29 M 704.99 302.13 C 702.72 303.43 699.77 303.99 698.36 306.38 C 706.95 303.87 714.05 298.02 721.24 292.94 C 715.01 294.50 710.81 299.75 704.99 302.13 Z" />
<path fill="#aa5323" opacity="1.00" d=" M 754.52 285.11 C 754.77 285.33 755.26 285.78 755.50 286.00 C 756.30 286.92 757.33 288.95 755.79 289.69 C 751.42 290.95 747.60 293.50 743.72 295.78 C 742.83 296.42 742.13 297.22 741.61 298.20 C 733.90 304.87 724.88 309.90 717.52 317.01 C 716.06 317.36 715.02 316.80 714.40 315.33 C 715.93 312.30 718.72 310.26 721.46 308.40 C 728.21 303.93 734.83 299.25 741.14 294.18 C 745.35 290.79 750.18 288.31 754.52 285.11 Z" />
</g>
<g id="#bd1021ff">
<path fill="#bd1021" opacity="1.00" d=" M 643.34 265.45 C 644.49 265.48 645.66 265.51 646.83 265.54 C 646.15 268.29 643.49 269.27 640.90 268.71 C 641.44 267.44 642.34 266.40 643.34 265.45 Z" />
<path fill="#bd1021" opacity="1.00" d=" M 623.34 270.47 C 625.47 267.43 628.92 266.23 632.39 265.44 C 634.62 267.43 636.69 269.85 635.85 273.07 C 634.41 274.86 632.57 276.16 630.15 275.87 C 629.29 277.26 628.44 278.66 627.59 280.05 C 628.10 280.67 629.13 281.91 629.64 282.53 C 629.22 282.88 628.37 283.60 627.95 283.96 C 626.93 284.36 625.93 284.80 624.96 285.26 C 619.50 286.09 614.22 287.77 608.90 289.19 C 599.52 291.30 590.16 293.61 580.89 296.19 C 561.54 300.62 542.39 305.93 523.05 310.43 C 519.26 311.20 515.45 312.02 511.83 313.39 C 510.77 313.00 509.78 312.51 508.85 311.91 C 505.51 311.74 502.16 311.82 498.82 311.78 C 497.88 312.73 496.94 313.69 495.99 314.63 C 497.34 314.88 498.65 315.27 499.92 315.80 C 499.21 316.18 497.79 316.95 497.08 317.33 C 487.57 318.98 478.27 321.85 468.89 324.14 C 467.54 324.44 466.20 324.74 464.87 325.12 C 462.50 325.79 460.08 326.32 457.62 326.57 C 457.59 323.76 457.70 320.92 458.27 318.16 C 461.35 314.53 466.61 312.67 467.92 307.67 C 487.60 302.66 507.32 297.80 527.02 292.86 C 545.81 288.29 564.48 283.22 583.34 278.98 C 584.37 280.54 585.83 281.74 587.34 282.84 C 589.53 281.17 591.52 279.26 593.79 277.70 C 595.53 277.11 597.39 277.00 599.21 276.71 C 599.21 276.20 599.21 275.19 599.21 274.69 C 606.82 273.08 614.29 270.91 621.87 269.18 C 622.24 269.50 622.97 270.15 623.34 270.47 Z" />
<path fill="#bd1021" opacity="1.00" d=" M 648.96 279.83 C 651.30 277.95 653.51 275.89 656.05 274.28 C 657.55 273.36 658.37 275.21 659.15 276.11 C 657.38 276.76 655.65 277.53 653.99 278.41 C 652.98 278.46 651.98 278.53 650.99 278.60 C 650.48 278.90 649.47 279.52 648.96 279.83 Z" />
<path fill="#bd1021" opacity="1.00" d=" M 374.12 344.53 C 375.19 342.86 376.43 341.03 378.69 341.25 C 378.69 341.90 378.67 343.19 378.66 343.84 C 377.81 345.53 375.57 344.38 374.12 344.53 Z" />
<path fill="#bd1021" opacity="1.00" d=" M 341.33 346.82 C 343.14 349.20 344.60 351.81 345.96 354.47 C 345.55 354.65 344.73 355.00 344.32 355.17 C 341.83 355.73 339.36 356.35 336.95 357.17 C 330.20 358.61 323.53 360.37 316.87 362.18 C 309.54 363.58 302.43 365.94 295.12 367.46 C 292.96 366.21 293.29 363.24 292.76 361.12 C 294.80 359.75 296.55 357.85 298.88 356.99 C 302.61 356.82 306.34 356.92 310.07 356.93 C 311.57 356.69 312.67 357.88 313.82 358.60 C 315.94 356.53 316.14 353.39 317.92 351.16 C 318.98 352.45 320.04 353.74 321.09 355.05 C 323.66 354.07 326.43 353.08 328.81 355.02 C 330.14 353.60 331.59 352.27 333.22 351.20 C 333.62 352.37 334.02 353.54 334.42 354.73 C 334.96 354.74 336.06 354.77 336.60 354.79 C 338.11 352.09 339.74 349.47 341.33 346.82 Z" />
<path fill="#bd1021" opacity="1.00" d=" M 346.51 350.01 C 346.56 347.44 349.63 348.45 351.27 348.61 C 351.09 349.34 350.73 350.79 350.55 351.51 C 349.18 351.27 346.35 352.24 346.51 350.01 Z" />
<path fill="#bd1021" opacity="1.00" d=" M 277.01 368.02 C 277.98 367.15 278.76 365.99 279.96 365.42 C 281.70 365.62 283.79 368.32 281.53 369.53 C 279.85 371.89 278.06 369.64 277.01 368.02 Z" />
<path fill="#bd1021" opacity="1.00" d=" M 266.14 377.92 C 268.52 377.21 271.26 377.33 273.46 378.60 C 275.42 378.46 277.39 378.02 279.35 378.54 C 287.86 380.62 296.34 382.88 304.87 384.86 C 332.86 391.90 360.83 399.09 388.89 405.81 C 400.85 409.03 412.88 411.97 424.92 414.86 C 435.56 417.60 446.18 420.49 456.92 422.82 C 459.50 423.69 462.15 424.37 464.84 424.82 C 467.70 425.70 470.61 426.41 473.55 426.99 C 472.07 428.01 470.59 429.04 469.06 429.97 C 470.54 431.85 471.98 433.76 473.36 435.73 C 472.92 437.07 472.51 438.42 472.11 439.78 C 470.00 439.62 469.21 437.24 467.85 435.98 C 466.69 437.74 465.77 439.64 465.03 441.61 C 400.64 425.60 336.30 409.43 271.92 393.38 C 267.77 392.32 263.64 391.18 259.40 390.50 C 260.68 388.82 262.12 387.27 263.26 385.49 C 263.83 382.83 263.40 379.51 266.14 377.92 Z" />
</g>
<g id="#59331eff">
<path fill="#59331e" opacity="1.00" d=" M 755.50 283.09 C 755.50 284.06 755.50 285.02 755.50 286.00 C 755.26 285.78 754.77 285.33 754.52 285.11 C 750.18 288.31 745.35 290.79 741.14 294.18 C 734.83 299.25 728.21 303.93 721.46 308.40 C 718.72 310.26 715.93 312.30 714.40 315.33 C 712.62 315.37 710.84 315.42 709.10 315.75 C 712.75 315.28 714.43 312.04 716.87 309.78 C 725.17 304.12 733.53 298.51 741.44 292.29 C 745.94 288.95 750.90 286.29 755.50 283.09 Z" />
</g>
<g id="#5a3719ff">
<path fill="#5a3719" opacity="1.00" d=" M 743.72 295.78 C 747.60 293.50 751.42 290.95 755.79 289.69 C 752.41 293.85 748.73 297.96 747.81 303.45 C 745.47 303.87 743.61 305.20 742.40 307.23 C 743.62 306.95 744.84 306.67 746.08 306.39 C 746.12 306.69 746.19 307.30 746.23 307.61 C 746.63 309.43 744.62 309.86 743.46 310.49 C 741.62 311.22 739.95 312.28 738.52 313.64 C 736.10 313.72 733.68 313.73 731.27 313.73 C 730.92 313.29 730.21 312.39 729.86 311.94 C 727.76 313.46 725.86 315.23 723.75 316.72 C 721.80 317.51 719.56 316.92 717.52 317.01 C 724.88 309.90 733.90 304.87 741.61 298.20 C 743.07 300.05 744.61 297.17 743.72 295.78 Z" />
<path fill="#5a3719" opacity="1.00" d=" M 717.43 299.29 C 720.84 295.99 725.05 293.63 729.33 291.66 C 727.75 294.10 724.94 295.14 722.55 296.56 C 720.01 297.94 718.40 300.62 715.64 301.65 C 713.16 302.54 710.80 303.73 708.60 305.18 C 709.73 301.15 714.83 301.84 717.43 299.29 Z" />
<path fill="#5a3719" opacity="1.00" d=" M 691.95 304.50 C 693.52 303.54 695.34 303.31 697.14 303.03 C 696.32 304.96 695.45 306.93 693.82 308.32 L 693.15 308.66 C 691.95 309.22 690.78 309.80 689.61 310.39 C 692.61 311.23 691.18 314.32 691.12 316.48 C 690.81 316.61 690.20 316.88 689.89 317.02 C 686.27 318.34 682.42 320.85 681.91 325.01 C 681.09 328.42 685.68 330.42 688.30 328.95 C 686.31 328.16 684.30 327.39 682.53 326.17 C 683.77 325.45 685.04 324.78 686.32 324.12 C 685.72 323.96 684.52 323.64 683.93 323.47 C 684.96 320.46 688.05 319.35 690.66 318.05 C 690.78 318.23 691.03 318.60 691.16 318.79 C 692.98 321.90 689.39 323.89 687.85 326.12 C 690.99 325.94 693.11 323.56 695.23 321.53 C 694.68 321.24 693.58 320.66 693.04 320.37 C 693.54 319.58 694.12 318.84 694.76 318.15 C 694.54 318.04 694.10 317.82 693.89 317.72 C 695.58 317.20 697.29 317.82 698.97 318.13 C 698.79 319.35 698.62 320.57 698.45 321.79 C 698.73 321.01 699.29 319.46 699.57 318.68 C 702.03 318.73 703.49 320.57 704.57 322.53 C 699.52 326.06 695.86 331.44 690.25 334.14 C 691.39 332.27 692.21 330.19 693.58 328.46 C 695.75 326.45 698.46 325.07 700.42 322.81 C 697.43 322.02 695.63 324.82 693.49 326.32 C 691.61 327.53 690.57 329.49 689.76 331.50 C 689.27 331.33 688.30 330.98 687.81 330.80 C 687.53 331.88 687.22 332.95 686.90 334.02 C 686.21 333.49 685.53 332.96 684.85 332.45 C 682.04 332.54 679.65 330.93 677.25 329.71 C 678.13 328.18 679.01 326.66 679.93 325.15 C 677.23 325.50 674.51 325.38 671.86 324.80 C 671.38 322.90 670.68 321.06 670.13 319.20 C 673.31 317.36 675.82 314.67 677.86 311.64 C 679.30 311.51 680.76 311.41 682.20 311.20 L 682.73 310.96 C 684.08 310.33 685.41 309.54 686.93 309.42 C 689.30 310.66 691.17 308.11 690.77 305.87 C 691.06 305.53 691.65 304.84 691.95 304.50 M 675.53 320.11 C 677.78 320.19 680.03 319.98 682.25 319.53 C 681.39 319.33 679.69 318.92 678.84 318.72 C 680.05 317.39 681.22 316.04 682.33 314.62 C 679.56 315.73 677.31 317.77 675.53 320.11 Z" />
<path fill="#5a3719" opacity="1.00" d=" M 756.60 332.09 C 757.03 329.45 760.82 329.18 763.02 329.14 L 763.15 329.97 C 763.19 330.43 763.27 331.34 763.30 331.80 C 761.00 332.43 758.79 333.35 756.72 334.52 C 756.69 333.91 756.63 332.70 756.60 332.09 Z" />
<path fill="#5a3719" opacity="1.00" d=" M 672.47 334.74 C 675.80 334.83 678.94 336.34 680.86 339.10 L 681.19 339.49 C 679.43 339.43 677.59 339.84 675.90 339.28 C 674.51 337.97 673.51 336.32 672.47 334.74 Z" />
</g>
<g id="#623014ff">
<path fill="#623014" opacity="1.00" d=" M 704.99 302.13 C 710.81 299.75 715.01 294.50 721.24 292.94 C 714.05 298.02 706.95 303.87 698.36 306.38 C 699.77 303.99 702.72 303.43 704.99 302.13 Z" />
</g>
<g id="#211208ff">
<path fill="#211208" opacity="1.00" d=" M 741.61 298.20 C 742.13 297.22 742.83 296.42 743.72 295.78 C 744.61 297.17 743.07 300.05 741.61 298.20 Z" />
</g>
<g id="#7b3c20ff">
<path fill="#7b3c20" opacity="1.00" d=" M 691.45 299.58 L 692.33 299.36 C 693.51 300.19 695.80 300.45 695.40 302.41 C 694.75 302.75 693.44 303.44 692.79 303.78 C 692.58 303.96 692.16 304.32 691.95 304.50 C 691.65 304.84 691.06 305.53 690.77 305.87 C 689.33 306.87 687.87 307.90 686.93 309.42 C 685.41 309.54 684.08 310.33 682.73 310.96 C 681.03 311.17 679.30 311.18 677.61 311.01 C 677.44 309.30 678.56 307.92 679.45 306.58 C 680.91 305.10 682.68 303.54 684.95 303.98 C 685.04 303.98 685.21 303.97 685.29 303.96 C 685.71 303.64 686.54 303.01 686.96 302.70 C 688.26 304.71 691.74 303.07 691.53 300.91 L 691.45 299.58 Z" />
<path fill="#7b3c20" opacity="1.00" d=" M 665.58 313.41 C 669.26 312.21 672.59 310.19 675.92 308.25 C 676.35 308.97 677.19 310.41 677.62 311.13 C 675.62 313.60 673.30 315.78 670.86 317.80 C 669.98 317.17 669.12 316.53 668.27 315.87 C 667.33 315.09 666.43 314.27 665.58 313.41 Z" />
<path fill="#7b3c20" opacity="1.00" d=" M 672.13 325.96 C 673.77 326.48 675.45 326.86 677.15 327.25 C 676.00 327.99 674.86 328.76 673.73 329.51 C 677.52 330.94 680.74 333.62 684.72 334.61 C 685.06 335.08 685.74 336.02 686.08 336.49 C 684.40 337.48 682.65 338.36 680.86 339.10 C 678.94 336.34 675.80 334.83 672.47 334.74 L 672.13 334.69 C 671.49 333.81 670.81 332.96 670.28 332.03 C 671.54 330.23 671.80 328.06 672.13 325.96 Z" />
<path fill="#7b3c20" opacity="1.00" d=" M 756.60 332.09 C 756.63 332.70 756.69 333.91 756.72 334.52 C 758.79 333.35 761.00 332.43 763.30 331.80 C 763.21 332.32 763.02 333.37 762.93 333.89 C 762.80 334.28 762.55 335.06 762.42 335.45 C 760.24 337.82 757.25 339.31 753.96 338.94 C 753.54 338.57 752.69 337.84 752.27 337.47 C 753.82 335.77 755.36 334.04 756.60 332.09 Z" />
</g>
<g id="#48361fff">
<path fill="#48361f" opacity="1.00" d=" M 686.96 302.70 C 688.39 301.90 689.83 300.97 691.53 300.91 C 691.74 303.07 688.26 304.71 686.96 302.70 Z" />
</g>
<g id="#26130bff">
<path fill="#26130b" opacity="1.00" d=" M 684.95 303.98 L 685.29 303.96 C 685.21 303.97 685.04 303.98 684.95 303.98 Z" />
</g>
<g id="#3f352dff">
<path fill="#3f352d" opacity="1.00" d=" M 742.40 307.23 C 743.61 305.20 745.47 303.87 747.81 303.45 C 747.33 304.95 746.80 306.45 746.27 307.93 L 746.23 307.61 C 746.19 307.30 746.12 306.69 746.08 306.39 C 744.84 306.67 743.62 306.95 742.40 307.23 Z" />
</g>
<g id="#28160bff">
<path fill="#28160b" opacity="1.00" d=" M 686.93 309.42 C 687.87 307.90 689.33 306.87 690.77 305.87 C 691.17 308.11 689.30 310.66 686.93 309.42 Z" />
</g>
<g id="#40200eff">
<path fill="#40200e" opacity="1.00" d=" M 693.40 313.03 C 698.54 311.15 702.84 307.51 708.14 306.00 C 702.71 309.86 696.69 312.82 691.12 316.48 C 691.18 314.32 692.61 311.23 689.61 310.39 C 690.78 309.80 691.95 309.22 693.15 308.66 C 693.22 310.11 693.31 311.57 693.40 313.03 Z" />
</g>
<g id="#1d1208ff">
<path fill="#1d1208" opacity="1.00" d=" M 675.53 320.11 C 677.31 317.77 679.56 315.73 682.33 314.62 C 681.22 316.04 680.05 317.39 678.84 318.72 C 679.69 318.92 681.39 319.33 682.25 319.53 C 680.03 319.98 677.78 320.19 675.53 320.11 Z" />
</g>
<g id="#1a1007ff">
<path fill="#1a1007" opacity="1.00" d=" M 681.91 325.01 C 682.42 320.85 686.27 318.34 689.89 317.02 L 690.66 318.05 C 688.05 319.35 684.96 320.46 683.93 323.47 C 684.52 323.64 685.72 323.96 686.32 324.12 C 685.04 324.78 683.77 325.45 682.53 326.17 C 684.30 327.39 686.31 328.16 688.30 328.95 C 685.68 330.42 681.09 328.42 681.91 325.01 Z" />
</g>
<g id="#150d06ff">
<path fill="#150d06" opacity="1.00" d=" M 691.16 318.79 C 692.05 318.40 692.96 318.04 693.89 317.72 C 694.10 317.82 694.54 318.04 694.76 318.15 C 694.12 318.84 693.54 319.58 693.04 320.37 C 693.58 320.66 694.68 321.24 695.23 321.53 C 693.11 323.56 690.99 325.94 687.85 326.12 C 689.39 323.89 692.98 321.90 691.16 318.79 Z" />
</g>
<g id="#1d120aff">
<path fill="#1d120a" opacity="1.00" d=" M 693.49 326.32 C 695.63 324.82 697.43 322.02 700.42 322.81 C 698.46 325.07 695.75 326.45 693.58 328.46 C 692.21 330.19 691.39 332.27 690.25 334.14 C 688.89 334.99 687.45 335.68 686.08 336.49 C 685.74 336.02 685.06 335.08 684.72 334.61 C 680.74 333.62 677.52 330.94 673.73 329.51 C 674.86 328.76 676.00 327.99 677.15 327.25 C 675.45 326.86 673.77 326.48 672.13 325.96 L 671.86 324.80 C 674.51 325.38 677.23 325.50 679.93 325.15 C 679.01 326.66 678.13 328.18 677.25 329.71 C 679.65 330.93 682.04 332.54 684.85 332.45 C 685.53 332.96 686.21 333.49 686.90 334.02 C 687.22 332.95 687.53 331.88 687.81 330.80 C 688.30 330.98 689.27 331.33 689.76 331.50 C 690.57 329.49 691.61 327.53 693.49 326.32 Z" />
</g>
<g id="#a7a7a4ff">
<path fill="#a7a7a4" opacity="1.00" d=" M 763.02 329.14 C 763.85 329.16 765.52 329.18 766.35 329.19 C 766.09 329.67 765.87 330.17 765.69 330.68 C 765.62 331.32 765.48 332.59 765.40 333.23 C 764.63 332.15 763.85 331.07 763.15 329.97 L 763.02 329.14 Z" />
</g>
<g id="#767676ff">
<path fill="#767676" opacity="1.00" d=" M 763.15 329.97 C 763.85 331.07 764.63 332.15 765.40 333.23 C 765.48 332.59 765.62 331.32 765.69 330.68 C 768.56 330.92 771.47 331.93 774.34 331.06 C 775.90 331.30 779.30 332.81 776.07 333.70 C 776.55 333.64 777.51 333.52 778.00 333.46 L 778.02 335.35 C 777.01 335.40 776.02 335.44 775.03 335.48 C 777.53 335.26 778.37 336.27 777.53 338.52 C 769.48 338.82 761.21 337.67 753.48 340.55 C 753.50 342.39 753.50 344.24 753.56 346.09 C 751.72 343.60 752.34 340.15 752.01 337.24 L 752.27 337.47 C 752.69 337.84 753.54 338.57 753.96 338.94 C 757.25 339.31 760.24 337.82 762.42 335.45 C 762.29 335.90 762.01 336.81 761.87 337.26 C 763.33 336.73 764.81 336.20 766.27 335.65 C 765.15 335.06 764.03 334.48 762.93 333.89 C 763.02 333.37 763.21 332.32 763.30 331.80 C 763.27 331.34 763.19 330.43 763.15 329.97 M 767.17 334.38 C 768.84 335.90 770.99 336.30 773.16 335.64 C 772.56 335.22 771.36 334.37 770.76 333.94 C 769.55 334.07 768.35 334.21 767.17 334.38 Z" />
</g>
<g id="#8d8d8dff">
<path fill="#8d8d8d" opacity="1.00" d=" M 762.93 333.89 C 764.03 334.48 765.15 335.06 766.27 335.65 C 764.81 336.20 763.33 336.73 761.87 337.26 C 762.01 336.81 762.29 335.90 762.42 335.45 C 762.55 335.06 762.80 334.28 762.93 333.89 Z" />
</g>
<g id="#949494ff">
<path fill="#949494" opacity="1.00" d=" M 767.17 334.38 C 768.35 334.21 769.55 334.07 770.76 333.94 C 771.36 334.37 772.56 335.22 773.16 335.64 C 770.99 336.30 768.84 335.90 767.17 334.38 Z" />
</g>
<g id="#eeeeeeff">
</g>
</svg>
