<?xml version="1.0" encoding="UTF-8" standalone="no"?>
<svg
   xmlns:dc="http://purl.org/dc/elements/1.1/"
   xmlns:cc="http://creativecommons.org/ns#"
   xmlns:rdf="http://www.w3.org/1999/02/22-rdf-syntax-ns#"
   xmlns:svg="http://www.w3.org/2000/svg"
   xmlns="http://www.w3.org/2000/svg"
   xmlns:xlink="http://www.w3.org/1999/xlink"
   xmlns:sodipodi="http://sodipodi.sourceforge.net/DTD/sodipodi-0.dtd"
   xmlns:inkscape="http://www.inkscape.org/namespaces/inkscape"
   width="546.32202"
   height="614.00037"
   id="svg2"
   version="1.1"
   inkscape:version="0.91 r13725"
   sodipodi:docname="Flag_of_Angola.svg">
  <metadata
     id="metadata41">
    <rdf:RDF>
      <cc:Work
         rdf:about="">
        <dc:format>image/svg+xml</dc:format>
        <dc:type
           rdf:resource="http://purl.org/dc/dcmitype/StillImage" />
        <dc:title></dc:title>
      </cc:Work>
    </rdf:RDF>
  </metadata>
  <defs
     id="defs39" />
  <sodipodi:namedview
     pagecolor="#ffffff"
     bordercolor="#666666"
     borderopacity="1"
     objecttolerance="10"
     gridtolerance="10"
     guidetolerance="10"
     inkscape:pageopacity="0"
     inkscape:pageshadow="2"
     inkscape:window-width="1600"
     inkscape:window-height="837"
     id="namedview37"
     showgrid="false"
     fit-margin-top="0"
     fit-margin-left="0"
     fit-margin-right="0"
     fit-margin-bottom="0"
     inkscape:zoom="0.73709606"
     inkscape:cx="76.684613"
     inkscape:cy="267.38818"
     inkscape:window-x="-8"
     inkscape:window-y="-8"
     inkscape:window-maximized="1"
     inkscape:current-layer="svg2" />
  <path
     style="fill:#000000"
     d="m 93.842674,312.00003 c -1.03727,1.0108 0.0912,2.98326 -0.67773,4.69336 0.33896,1.45232 -0.38622,1.48981 -0.25977,2.55469 -0.94856,1.96039 0.96382,2.08886 -0.75586,4.05859 -0.28647,0.32803 0.67391,1.55669 0.67188,2.01172 -0.003,0.58184 -0.22103,1.12541 -0.13282,1.7168 0.0679,0.45619 0.43755,1.72004 0.125,2.07812 0.64012,2.20235 0.57927,3.78977 -0.16601,5.90039 -0.31503,0.89279 -0.0172,1.94544 -0.18945,2.84961 -0.0782,0.40974 -0.55223,2.19702 -0.69336,2.67188 -0.16982,0.57204 -1.26525,1.00883 -1.55469,2.00586 -0.15365,0.52925 -0.0661,1.09243 -0.20508,1.62304 -0.11313,0.43137 -0.48052,0.71286 -0.49805,1.1836 -0.0387,1.0428 0.15722,2.12028 -0.70312,2.96093 l -0.19531,0.0527 c -0.19416,0.27248 -0.53427,0.39029 -0.75782,0.63476 0.0168,0.93171 -0.53936,1.83449 -0.83984,2.69336 -0.18211,0.5206 0.34991,1.17624 -0.2168,1.88282 -0.19087,0.2381 -0.99819,1.24055 -1.17187,1.38281 -0.9498,0.77762 -1.10822,2.41165 -2.13086,3.05469 -0.17994,0.11316 -0.42188,0.33007 -0.42188,0.33007 l 0.0312,0.12305 -0.12304,0.13672 c -0.21625,0.004 -0.73243,0.12695 -0.73243,0.12695 l -0.11328,0.0312 -0.041,-0.11328 0.0703,-0.24805 0.34766,-0.50976 c 0.0346,-0.35032 1.09763,-1.06008 1.41211,-1.23242 l 0.043,-0.12696 -0.0801,-0.043 c -1.92839,1.11108 -2.53044,2.17759 -3.65039,3.99023 -0.191,0.30913 -0.5066,0.68264 -0.64454,1.00586 -0.0537,0.12567 -0.27343,0.99414 -0.27343,0.99414 l -0.082,0.38281 c 0.78728,0.90209 -0.12448,2.65278 -0.97266,3.21094 -0.59844,0.39382 -1.3657,0.58216 -1.8418,1.14648 -0.33246,0.39402 -0.43361,0.95896 -0.86133,1.27539 -0.83007,0.61415 -1.99537,1.55537 -3.08984,1.35938 -0.24493,-0.23287 -0.54043,-0.46724 -0.86914,-0.56445 l -0.0644,-0.3418 -0.13672,-0.43359 c -0.2339,0.0243 -0.56766,0.28954 -0.75,0.4375 l -0.13477,-0.0293 c -0.12612,-0.18985 -0.62996,-0.39645 -0.83789,-0.23438 l -0.01,0.10352 0.13671,0.65039 c -0.36888,0.38426 -0.82378,0.67474 -1.26562,0.9668 l -0.32031,-0.28711 -0.14649,-0.0723 c -0.49192,0.3023 -0.94959,0.16006 -1.14648,-0.38672 l 0.0391,-0.47656 c -0.21079,0.0239 -2.22877,1.78509 -2.42773,2.04688 -0.1384,0.18232 -0.24939,0.94975 -0.21094,1.17968 -0.8873,0.97448 -0.82005,-0.0119 -1.85352,1.73242 -0.39552,0.0823 -0.80653,0.20957 -1.03906,0.56446 -1.04461,1.59412 -3.55851,2.35512 -4.42773,4.42773 -1.85908,0.66537 -2.08075,1.49285 -1.17578,3.20899 l 0.57226,-0.44336 -0.33594,0.61914 0.10547,0.22656 c -0.21567,0.42909 -0.0472,0.82855 0.23047,1.17774 0.18985,0.0477 0.42856,0.0206 0.58984,-0.0957 l 0.0781,0.1543 -0.39648,0.45703 -0.0312,0.18555 c 0.18677,0.36967 1.11494,1.95459 0.27734,2.16015 l -0.28125,-0.0703 c -0.23015,0.56296 -0.8941,0.74516 -1.08008,1.38867 -0.94184,0.16324 -0.78347,1.13157 -1.43359,1.31641 l -0.11133,0.32226 c -0.71694,0.17437 -1.03555,1.77643 -1.41992,2.34961 l -0.42383,0.0234 c -0.28604,0.32619 -0.85281,0.32562 -1.22852,0.69531 -0.0511,0.29203 -0.13165,0.61277 -0.34961,0.82813 l -0.59961,0.002 c -1.21282,1.01343 -0.91653,2.0009 -1.55664,2.47461 -0.22707,-0.0319 -0.49753,0.0831 -0.65039,0.25 l -0.23828,-0.0312 -0.32031,0.15625 -0.19336,0.71289 c -0.88845,0.71091 -1.03084,0.90931 -1.43945,-0.2539 l -0.125,-0.082 -0.0918,0.125 c 0.10142,0.34669 0.0363,0.68922 -0.1543,0.99219 -0.41863,0.0182 -1.12212,0.58427 -1.42578,0.8711 l -0.48633,0.0215 c -0.56568,0.27179 -0.3084,0.97884 -0.0273,1.35352 -0.35831,0.35466 -0.54383,0.28178 -0.95312,0.0351 l -0.0918,0.0606 c 0.30367,0.35373 0.44889,0.79923 0.63476,1.21875 l -0.15625,0.41406 c 0.0594,0.12565 0.1156,0.30541 0.0645,0.44336 -0.17471,0.47052 -0.96134,0.54888 -1.34571,0.74805 -0.3418,0.17709 -0.71989,1.29513 -1.4746,1.91406 l -0.2793,-0.01 -0.39453,0.24805 -0.2168,0.35352 -0.11328,0.0195 c -0.11633,-0.0671 -0.22313,-0.32499 -0.25977,-0.44336 l -0.19726,0.15625 c -0.031,0.15275 -0.15234,0.75348 -0.35938,0.74414 l -0.35351,-0.16406 -0.11328,0.0312 -0.0723,0.27929 0.14648,0.49414 -0.28906,0.54883 0.3418,0.33008 0.125,0 c 0.0711,0.18097 -0.13862,0.63156 -0.20703,0.81641 l 0.043,0.15625 0.17578,0.0605 c 0.0244,0.19964 -0.11007,0.42459 -0.20703,0.58985 l 0.0332,0.10351 0.42383,0.1543 c 0.32873,0.41952 0.27727,0.62416 -0.0391,1.02344 l 0.11523,0.26758 c -0.14785,0.29069 -0.53997,0.96889 0.043,1.10546 l 0.29101,0.1875 0.0195,0.18555 -0.0918,0.13477 -0.42383,0.041 -0.0742,0.084 0.043,0.082 c 0.5495,0.22901 0.45889,0.49748 0.30273,1.01172 l -0.70507,0.53906 -0.11329,0.48633 -0.0391,0.78515 0.0625,0.0918 0.23828,0.0937 c 0.16595,0.32256 0.23288,0.8177 -0.0801,1.06445 l 0.041,0.3086 c -0.31105,0.2249 -0.27411,1.07063 -0.0176,1.32422 -0.0436,0.4011 -0.46636,1.97955 -0.35937,2.22265 l 0.17773,0.16407 c -0.17005,0.13794 -0.26408,0.38498 -0.32031,0.58984 l 0.082,0.20508 c -0.1845,0.23604 -0.13462,0.72303 -0.0586,0.99414 l -0.11524,0.24804 -0.008,0.64063 0.26953,0.37109 0.0625,0.2168 -0.0625,0.0937 -0.32031,0.0312 -0.0312,0.125 -0.01,0.66992 0.19922,1.10547 c -0.11791,0.21782 -0.38919,0.81372 -0.57812,0.93164 l -0.58203,-0.0625 -0.41407,-0.0293 0.23633,-0.55859 c -0.26791,0.10267 -0.5788,0.10728 -0.85937,0.0644 l -0.22852,0.28907 c -0.28922,-0.22853 -1.49123,0.16994 -1.93945,0.13672 -0.66947,1.05756 0.4863,2.1178 -0.0371,3.04882 l -0.20703,0.29883 c -1.17185,0.85932 -0.64486,3.15089 -1.43555,3.95899 l -0.53906,0.68359 c -0.55121,-0.0303 -0.47702,0.36284 -0.5625,0.76758 -0.0466,0.2199 -0.18375,0.40046 -0.23633,0.61719 -0.22912,0.94353 0.47251,2.11703 0.69922,3.02734 -0.16173,0.48053 -0.4107,1.96613 -1.21289,1.58984 l -0.082,-0.12304 0.12695,-0.23438 -0.082,-0.0488 c -0.8763,0.60893 -0.006,0.89988 -0.3125,1.57617 0.0955,0.88938 1.30921,0.78822 0.8125,2.27149 l 0.0625,0.19531 0.21875,0.10352 0.75195,-0.29297 0.0684,0.34375 c -0.19804,0.0259 -0.55548,0.096 -0.67578,0.26953 0.23458,0.33303 0.43938,0.6637 0.0117,0.91797 l 0.21875,0.52734 -0.11328,0.4336 -0.3418,0.18554 c -0.0484,0.24311 -0.12795,0.50417 -0.28125,0.70313 0.53222,0.75757 0.0402,3.99198 -0.36719,4.82422 l -0.22851,-0.041 c 0.0448,0.738 -0.4644,1.23155 -0.45508,1.86914 l -0.21875,0.2168 c -0.0462,1.13957 -0.58196,2.20996 -0.67188,3.34765 l -0.29101,0.28907 c 0.12952,0.2752 -0.12971,1.57861 -0.1543,1.97265 l -0.26953,0.25977 c -0.0481,0.24722 0.094,0.71198 0.16797,0.95898 -0.18541,0.30773 0.0847,0.806 -0.0918,0.99219 -0.0848,0.0895 -0.73774,0.76307 -0.79101,0.78516 -0.24208,0.7662 -0.11793,1.14644 0.29297,1.8164 l -0.10352,0.23828 0.32227,0.47461 -0.01,0.51563 c -0.24402,0.19098 -0.45342,0.50232 -0.51953,0.80664 -1.14922,0.74985 -0.33068,3.07116 -2.3711,2.83008 -0.59457,0.59529 -1.01907,1.84337 -0.44531,2.62304 l -0.0527,0.17579 -0.38477,0.25781 c -0.17972,0.58092 -0.20103,2.08736 -0.74804,2.39648 -1.06636,-0.13859 -0.8153,0.98627 -1.19727,1.66211 0.0496,0.48349 0.81625,0.87309 0.39844,1.47656 -0.32679,0.47212 -0.97034,1.13543 -1.38477,1.5586 l -0.0527,0.23828 0.0937,0.16601 0.37304,0.1875 -0.0176,0.11133 -0.52149,0.3086 c -0.52995,0.21352 -0.75693,1.91317 -0.89648,2.47656 0.19907,0.61823 0.87734,-0.17906 1.05273,-0.34961 l 0.17774,0.0605 c 0.47906,1.02818 0.99748,1.86039 0.17968,2.89843 l -0.20898,0.0469 c -0.22161,-0.20103 -0.4923,-0.26362 -0.77148,-0.34375 l -0.40626,0.41406 -0.5,0.29883 -0.28124,-0.0918 -0.16797,0.0195 c -0.1928,0.22898 -0.70907,0.79243 -1.01172,0.80469 -0.0807,0.21967 -0.30057,0.40394 -0.50977,0.4961 -0.26974,0.60074 -0.30829,3.43457 -0.27539,4.17578 0.0115,0.25948 0.12088,0.62459 0.10938,0.86132 -0.0146,0.29819 -0.35446,0.43821 -0.41797,0.66016 l -0.55274,1.92969 c -0.0413,0.14409 -0.22943,1.95399 -0.21679,2.09375 0.0231,0.25885 0.1603,0.48452 0.1875,0.74219 0.0579,0.54521 -0.15505,1.37448 -0.27149,1.91992 -0.13601,0.63716 -0.40532,3.04988 -0.56445,3.39453 -0.33245,0.72012 -1.18596,1.99099 -1.32617,2.69141 -0.64,0.37152 -1.5877,1.33457 -2.28711,1.42382 -0.38321,0.39267 -0.69834,0.91003 -0.83594,1.44336 0.10426,0.24225 0.0471,0.57245 -0.0312,0.81446 l 0.0527,0.13476 -0.0937,0.041 -0.0527,0.14453 c -0.1762999,1.10837 -0.2318599,0.56982 -0.7831999,1.38086 -0.25176,0.37034 -0.26607,0.88348 -0.67969,1.13476 -0.55543,0.33739 -2.23342,0.63713 -2.79102,0.2461 0.32165,-0.5725 1.19746,-0.55906 1.76563,-0.54492 l -0.0606,-0.13477 c -0.64851,-0.54749 -1.94654,0.685 -2.9043,0.14258 -0.60757,0.33711 -0.67687,0.52431 -1.04687,1.08203 -1.04735,1.57885 -0.39393,1.04348 -0.86914,2.52539 -0.0914,0.28544 -0.40387,0.66704 -0.4082,0.94727 -0.011,0.70955 1.35961,2.18416 1.76367,2.82812 0.50127,0.79878 0.92871,1.66209 1.36133,2.5 0.68335,1.32346 -0.24906,3.3764 -0.4043,4.7832 -0.21354,1.93579 0.28944,3.89482 0.5625,5.80078 0.33996,2.37378 0.67444,4.75775 0.84961,7.1504 0.0356,0.48414 -0.04,0.96916 0.004,1.45312 0.0617,0.68676 0.24351,1.35751 0.26368,2.04883 0.0261,0.89393 -0.35817,4.52095 -0.15625,5.01172 l -0.12305,0.29883 -0.0977,0.6621 c 0.17666,0.26729 0.0616,2.52072 0.30664,3.10938 l 0.10157,0.79492 c -0.68893,0.91305 -0.12537,6.15647 -2.38282,5.80664 -0.0146,0.036 -0.0479,0.0865 -0.0527,0.125 -0.0501,0.3849 0.52885,1.51716 0.51758,2.19141 -0.0219,1.30595 -0.71,2.48445 -0.84375,3.77148 -0.0411,0.39473 0.0129,0.79388 -0.041,1.1875 -0.0777,0.56815 -0.3086,1.10223 -0.37109,1.67383 -0.13785,1.25971 -0.15083,2.57038 -0.17188,3.83789 -0.007,0.41952 0.17336,0.81658 0.16016,1.23633 -0.012,0.38243 -0.12736,0.7545 -0.14648,1.13672 -0.0674,1.34699 0.1369,2.81502 0.0586,4.1875 1.75481,0.31589 1.07345,1.20709 2.72851,0.51367 0.1763,-0.15389 0.3533,-0.50694 0.35157,-0.74414 0.11896,-0.11063 0.31788,-0.30341 0.37695,-0.46094 0.31014,0.0562 0.6221,0.11385 0.93555,0.14844 0.29843,-0.18005 0.67959,-0.34264 1.02343,-0.4082 0.30377,-0.28432 0.50716,-0.63223 0.7793,-0.9375 0.3610299,-0.40475 0.9727899,-0.41277 1.4140599,-0.6543 0.40735,-0.22309 0.56838,-0.88139 1.25391,-0.63281 l 0.36523,-0.27149 c 0.86696,-0.16182 1.51547,-0.0191 2.25586,-0.61328 0.51797,0.14639 0.70019,-0.3397 1.19336,-0.43555 0.27782,0.0648 0.56101,0.11781 0.84375,0.15626 0.27166,-0.14364 0.52561,-0.33469 0.76953,-0.51954 l 0.22266,0.0195 c 0.80059,0.64805 0.7123,0.64984 1.67383,0.64257 0.13179,0.1152 0.40208,0.22515 0.58008,0.21289 0.34419,-0.16644 0.87583,-0.34722 1.24414,-0.22656 0.0565,0.22718 0.30142,0.59537 0.53906,0.67188 l 0.36328,1.0664 0.26758,0.041 c 0.22751,0.21991 0.48306,0.41315 0.69727,0.64648 1.0561,0.21649 1.20578,1.11277 2.01367,1.10938 0.13805,-0.0873 0.51661,-0.28113 0.6914,-0.25586 0.17917,0.0961 0.6556,0.32675 0.86719,0.31836 0.49102,-0.35491 1.80749,-0.33924 1.99414,-0.46875 0.18885,-0.13091 0.50507,-0.41759 0.75196,-0.40235 0.22375,0.24968 0.64359,0.58881 1.00781,0.50391 l 0.45508,-0.48242 c 0.10233,-0.063 0.40897,0.002 0.51562,0.0273 0.0111,-1.02274 1.14091,-0.60581 1.60938,-0.16601 0.0102,0.0195 0.21556,1.79348 0.20703,1.93554 l 0.0859,0.12305 c 0.1007,0.0618 0.29419,0.11597 0.41211,0.0762 l 0.19532,-0.24023 0.54687,-0.0488 c 0.071,-0.0777 0.24869,-0.20997 0.36524,-0.18945 0.0962,-0.18556 0.32841,-0.45526 0.52929,-0.53516 0.12475,-0.007 0.35441,0.22114 0.42578,0.30469 0.48169,0.0869 0.88697,-0.15986 1.38868,0.01 l 0.21875,-0.25 0.31835,0.16016 0.11524,-0.0117 0.19531,-0.29102 c 0.25892,-0.0172 0.51494,0.17481 0.75977,0.10157 0.15273,-0.10225 0.46658,-0.56843 0.62695,-0.54297 1.13896,0.17957 1.08229,0.22381 1.5,-0.94531 l 1.39649,-0.70313 c 0.43217,-0.21716 0.18382,-0.43538 0.89062,-0.52344 l 0.0352,-0.0879 c 0.11803,-0.0658 0.24528,-0.1543 0.33007,-0.26172 0.11199,0.0406 0.2696,0.0697 0.38672,0.0312 0.19235,-0.16186 0.4174,-0.3043 0.66211,-0.36914 l 0.52735,0.0977 c 0.3501,-0.63441 1.07068,-0.76254 1.58398,-1.23828 l 0.38477,-0.0566 c 0.12872,-0.13952 0.62081,-0.59403 0.83593,-0.56055 l 0.17188,-0.27539 c 0.42136,-0.23516 1.14567,-0.0241 1.39844,-0.42969 0.0776,-1.2226 0.84373,-1.14291 1.46484,-1.30273 l 0.13281,-0.28125 c 0.30867,-0.16525 0.9485,-0.19543 1.11719,-0.52344 0.0203,-0.20919 0.0824,-0.6684 0.20508,-0.84961 l 0.19726,-0.13672 0.73633,-0.0215 c 1.1599,-0.57999 -0.11009,-1.0008 2.15625,-1.10938 l 0.14453,-0.15625 0.0391,-0.25781 c 0.37708,-0.0392 0.81911,-0.17448 1.02148,-0.52344 l -0.006,-0.26757 0.0625,-0.0937 c 0.23697,-2.3e-4 0.4442,-0.29722 0.80273,-0.32227 0.81938,-0.0571 1.73929,0.0238 2.55274,-0.12695 0.23401,-0.0434 0.47404,-0.20008 0.70898,-0.22852 0.16467,-0.02 0.4123,-0.021 0.57813,-0.01 0.26042,0.0182 0.45017,0.13243 0.6875,0.20507 0.18652,-0.21333 0.73516,-0.36587 0.97851,-0.45898 1.39712,-0.53448 1.56019,-0.30123 2.92383,0.0684 0.0839,-0.12362 0.30552,-0.25468 0.45703,-0.25586 l 0.19141,0.10156 c 0.14431,0.11655 -0.0142,0.67474 0.29492,0.79492 0.87377,-0.33693 2.59523,0.76027 2.93555,0.54493 0.0794,-0.0504 0.64534,-0.42915 0.69531,-0.44141 0.54734,-0.13319 1.99188,0.0269 2.32422,-0.51367 0.44866,0.0209 1.26481,0.15722 1.67773,0.043 0.32427,0.59001 1.74819,1.08076 2.39649,1.27539 0.81641,0.24537 2.004,0.65133 2.35547,1.5332 0.10039,0.25198 0.0903,0.53926 0.26758,0.75781 0.38754,0.4778 0.83468,0.93062 1.23828,1.39844 0.0875,0.10151 0.0636,0.32923 0.14648,0.43164 -0.0156,0.26542 -0.11826,0.60766 -0.26758,0.83008 l -0.44726,0.27539 -0.12891,0.2832 c 0.012,0.13636 0.14197,0.32907 0.25977,0.39649 l 0.42187,0.0215 c 0.28079,0.36694 0.71044,0.33975 1.08399,0.54688 1.27293,0.70592 2.08493,1.56897 3.08789,2.16601 0.23186,0.13795 0.64997,0.14703 0.84961,0.35352 0.63419,0.6556 1.16026,1.32345 1.90429,1.91211 l 0.60547,-0.01 c 0.31744,0.17352 1.04763,0.68928 1.17578,1.06055 1.74289,0.51556 1.49129,0.71031 2.91992,1.51953 0.2034,0.1152 0.37932,0.0335 0.60547,0.23437 0.088,0.078 0.14066,0.23209 0.22852,0.30469 l 0.46289,0.38281 c 0.28672,0.0102 2.68363,1.03142 2.94531,1.20508 0.50466,0.33464 0.98887,0.99216 1.52539,1.26758 0.0526,0.0855 0.0972,0.44684 0.11914,0.5625 0.18473,0.15137 0.36139,0.36145 0.46485,0.57813 l 0.0215,0.5957 0.0781,0 c 0.37059,0.14228 0.837536,0.64337 1.154286,0.69531 0.98816,0.16115 1.78073,-0.0745 2.58985,-0.5957 0.0362,-0.0233 0.86111,0.14287 1.06836,0.17383 0.60256,0.48899 0.62272,0.2144 1.29687,0.43359 0.43659,0.14184 1.12992,0.62855 1.55469,0.23242 0.0337,-0.11926 0.18036,-0.51596 0.3125,-0.56445 0.32882,-0.0678 0.66042,0.3352 1.00586,0.31445 l 0.1914,-0.17773 c 0.37025,0.0168 0.92661,-0.17492 1.125,-0.51367 0.50102,-0.16707 1.95948,-0.37935 2.15626,-0.84375 -0.0214,-0.22102 0.006,-0.45552 0.0391,-0.67383 4.71898,0.21991 9.45339,0.1922 14.17578,0.23047 9.004,0.0728 18.00763,5.3e-4 27.01172,0.0312 l 81.52148,0.26953 c 0.8707,0.005 1.73558,0.0996 2.60742,0.0996 0.2677,0 0.6576,-0.0963 0.89844,-0.0723 0.35511,0.0355 0.75931,0.11249 1.11328,0.11133 0.15501,0 0.34568,-0.11853 0.5,-0.11719 2.50148,0.0204 5.00689,-0.005 7.50586,0.0293 8.11564,0.10246 16.2191,-0.0927 24.3418,-0.12891 5.51377,-0.0242 11.04897,0.0149 16.5664,0.041 l 4.9004,0.0234 c 1.38948,0.006 2.83103,-0.15524 4.23828,-0.0527 0.12907,0.21029 0.28739,0.55944 0.44922,0.73633 0.14955,0.16321 0.64816,0.35796 0.74218,0.57031 0.29295,0.66106 0.1941,0.95224 0.91797,1.29688 0.32076,0.30278 -0.33974,1.67894 1.07227,1.75586 0.11769,0.28663 0.42346,0.44807 0.72461,0.44531 0.1664,0.53767 0.4768,1.05351 1.02539,1.25976 0.003,0.005 0.59281,1.59065 0.60351,1.67969 0.21443,0.13771 0.71032,0.56401 0.74219,0.84766 0.42636,0.24834 0.98434,0.21422 1.46875,0.27929 0.19576,0.17566 0.39434,0.44398 0.49609,0.6875 l 0.29297,0.13282 c -0.18393,0.7412 -0.0797,1.12939 0.49219,1.52344 0.5206,0.3585 4.54179,3.28998 4.8457,3.68945 0.0842,0.11073 0.21035,0.50025 0.26954,0.64844 0.36286,0.31916 0.70973,0.34363 1.10742,0.0508 0.0975,-0.005 0.35278,0.0166 0.41992,0.10547 0.61439,2.20194 2.32421,1.22033 2.76172,1.58593 l 0.11328,0.15821 c -0.11111,0.20168 0.006,0.47049 0.18164,0.59179 l 0.41992,0.11524 0.41992,0.44531 0.22071,0.0469 0.23828,-0.15821 0.23047,0.0176 c 1.07831,1.13479 1.63695,0.55707 2.90625,0.75195 0.5816,0.0893 0.86087,0.48177 1.66601,0.44922 l 0.30078,-0.1582 c 0.43774,-0.0535 1.09115,0.28719 1.57032,0.31445 0.57091,0.0326 3.02536,0.19421 3.47265,0.15235 1.05008,-0.0984 0.1248,-1.96141 2.50586,-0.97461 0.0785,-0.0851 0.19029,-0.1736 0.30274,-0.20899 0.28135,0.18504 1.90056,0.74608 2.25976,0.76953 0.67404,0.0444 0.69933,-0.66804 1.17578,-0.45312 l 0.33789,0.33789 0.27539,0.0176 0.25977,-0.18946 c 0.30912,-0.0593 0.95705,0.77631 1.25,0.65039 l 0.24805,-0.21875 c 0.13431,0.02 0.30884,0.2116 0.37304,0.31836 l 0.23047,0.0469 c 0.12747,-0.11633 0.41908,-0.18958 0.58594,-0.14063 l 0.13281,0.14844 0.0273,0.14453 -0.11914,0.15235 -0.33985,0.0547 -0.15234,0.14063 0.21484,0.25195 c 0.16799,0.0246 0.45029,-0.10094 0.57617,-0.20117 l 0.43164,0.0508 0.24805,0.25391 0.16797,0.0156 0.11523,-0.34765 0.11914,-0.0918 0.35743,0.0215 c 1.54383,1.47804 1.79352,0.41483 2.86523,0.8125 0.25746,-0.26041 0.62604,-0.10188 0.89649,-0.32812 l 0.16796,0.0254 0.32032,0.25586 c 0.20622,-0.10654 0.62187,0.0103 0.80078,0.12305 0.0844,-0.0842 0.29585,-0.14868 0.40625,-0.18555 l 0.23828,0.23242 0.22265,-0.0469 -0.0156,-0.20704 0.0977,-0.13086 c 0.0267,-0.0204 2.33097,0.40662 2.76757,0.3711 0.6112,-0.63627 1.35911,-0.14768 1.95118,-0.32227 0.46779,-0.13772 0.94696,-0.36487 1.42773,-0.51172 1.4243,-0.43477 1.66141,0.76766 2.53711,1.54688 l 0.21094,0.0117 0.1582,-0.10352 -0.0488,-0.082 -0.28906,-0.1289 -0.006,-0.13868 0.10938,-0.0605 c 0.13772,0.13067 0.45093,0.20139 0.63281,0.1875 0.12453,0.0558 0.26917,0.4442 0.30469,0.5625 l 0.25,0.14062 0.0977,0.34375 c 0.58047,0.7633 1.3999,0.41715 1.55469,-0.4707 0.12315,-0.0102 0.36053,-0.0768 0.44726,-0.17578 1.75347,-1.99682 3.17992,1.19113 5.7754,-1.10938 0.26929,-0.061 1.58761,0.46862 1.90039,0.57813 l 0.51367,0.62109 c 0.11633,0.0963 1.12783,-0.0849 1.31836,-0.10937 1.22421,0.7503 1.41592,0.79325 2.74804,0.0547 1.16094,-0.0255 1.80521,1.05696 2.38477,0.92383 0.26177,-0.20784 0.57191,-0.20257 0.84961,-0.37695 0.38744,-0.24304 0.89997,-0.67745 1.39258,-0.63867 l 0.23828,-0.34766 c 0.56089,-0.0303 2.12055,0.63171 2.5,0.32031 l 0.27344,0.0274 0.32031,0.29492 0.3418,-0.10742 0.16211,-0.19141 0.0488,-0.28906 c 0.13954,-0.0396 0.27803,-0.29173 0.31446,-0.41602 0.16526,-0.14019 0.52573,-0.20514 0.73242,-0.16211 0.11246,0.0883 0.49877,0.44319 0.63672,0.4375 l 0.12695,-0.0293 c 0.85183,-1.93127 2.69532,1.0842 3.49023,0.90429 l 0.17188,-0.0996 0.54883,0.01 0.17578,0.1582 0.37109,0.0273 c 1.06852,0.9169 2.01102,-0.3262 2.66797,1.51171 0.0574,0.16065 0.3108,0.45134 0.42188,0.60157 1.06762,-0.0102 1.84179,0.96173 2.76757,1.36718 0.65196,0.28571 1.33589,0.096 2.0254,0.19727 l 0.5039,-0.30273 0.15234,0.0644 0.39454,-0.11524 0.25781,0.36524 0.17773,0.0742 0.11133,-0.29688 0.10742,-0.0801 0.62891,0.22852 0.5332,-0.14648 c 0.43819,0.36564 0.97823,0.34956 1.43555,0.63476 0.20486,0.31979 0.8952,1.31377 1.35547,1.11719 l 0.23633,-0.20313 0.3457,0.13086 c 0.26246,-0.0163 0.67706,-0.24621 0.88672,-0.38672 l 0.33594,0.0469 0.11523,0.0957 -0.0391,0.44141 0.0918,0.16797 0.30469,0.0664 0.3418,-0.1582 c 0.56704,0.40494 0.93609,0.20408 1.18945,0.34961 0.24676,0.14163 0.45215,0.36072 0.70117,0.49805 0.0896,0.0493 0.2617,0.0674 0.47657,0.0644 0.6446,-0.009 1.67121,-0.21199 1.99218,-0.35547 l 0.0586,-0.33984 -0.20899,-0.20899 0.25,-0.33593 0.0156,-0.23829 c 0.24698,-0.22585 0.59923,-0.1568 0.90039,-0.14062 l 0.125,-0.54492 c 0.0444,0 0.12759,0.024 0.16992,0.0117 1.07809,-0.31181 1.4811,-0.23139 2.04883,-1.20704 l 1.61523,-0.55468 c 0.42659,0.27404 2.18539,0.29078 2.48633,-0.0176 0.26338,0.041 0.67122,0.0663 0.93164,-0.0176 l 0.35352,-0.3125 c 0.41225,-0.1274 1.53587,0.33524 1.79492,0.10938 l 0.46484,-0.54102 c 0.24971,-0.0869 0.56211,0.22291 0.87305,0.18945 l 0.21484,-0.15234 c 0.4671,0.0963 0.55761,-0.30606 1.57422,-0.01 0.3442,-0.1844 1.41426,-0.28116 1.82422,-0.2832 0.44162,0.21367 0.69269,0.64665 0.97656,1.02539 0.39107,0.10836 1.17294,0.60306 1.49414,0.58985 l 0.14844,-0.082 0.25391,0.0137 c 0.21489,0.22718 0.72914,0.4656 1.05078,0.40625 0.57387,0.94412 2.07437,-0.0616 2.95508,0.99414 l 0.0801,0.33203 0.16601,0.16601 c 0.79035,-0.0369 1.5322,-2.9e-4 2.02344,0.6836 0.10995,0 0.55122,0.0231 0.63476,0.01 29.17916,-5.69862 58.36902,-11.33143 87.4961,-17.29297 -0.0895,-0.39519 -0.13884,-0.80265 -0.18164,-1.20507 -0.682,-0.34332 -1.04813,-1.3318 -1.84961,-1.55469 l -0.78125,0.0625 c -0.43208,-0.17711 -0.7601,-0.81106 -1.17188,-1.11133 l -0.50781,0 c -0.1029,0.0696 -0.44658,0.3457 -0.56836,0.33203 -1.28795,-1.63989 -2.80417,0.25888 -3.78711,-1.02539 l -0.0762,-0.53711 c -0.50147,-0.0676 -1.47878,-1.573 -1.6875,-1.99023 -0.21215,-0.42388 -1.81361,-0.34835 -2.00391,-0.66797 l 0.24219,-0.3418 c -0.71048,-0.36307 -0.90196,-0.65793 -0.8125,-1.42187 l -0.12695,-0.10352 c -2.03986,0.20283 -2.51145,-2.13337 -2.89844,-3.66992 -1.08581,0.0639 -1.32253,-1.25992 -2.18164,-1.75391 0.0576,-0.18163 0.0624,-0.62164 -0.0625,-0.77343 l -0.49414,-0.18555 c -0.081,-0.39472 -0.68821,-0.9178 -1.08594,-0.94922 l -0.11523,-0.2168 c -0.97336,-0.45296 -2.4807,-1.22289 -2.98828,-2.24023 -0.78605,-0.49621 -2.27353,-0.77349 -3.1875,-1.10742 -0.33847,-0.1236 -0.67098,-0.34944 -1.0293,-0.47461 -0.10193,-0.0922 -0.19671,-0.30471 -0.18945,-0.44336 0.0971,-0.14363 0.27265,-0.43839 0.28515,-0.61914 -0.036,-0.0721 -0.78442,-1.22653 -0.85156,-1.2793 -0.21649,-0.17029 -2.4167,-1.77398 -2.42578,-2.00391 l 0.0645,-0.27929 -0.52539,-0.25782 c -0.0224,-0.14521 -0.0677,-0.72137 -0.1875,-0.80468 -0.402,-0.0468 -0.8376,-0.18024 -1.21094,-0.33203 l -0.17773,-0.26953 0.24414,-0.33985 -0.0527,-0.19531 c -1.05919,-0.89141 -1.97491,-2.08036 -3.16797,-2.79102 0.008,-0.61189 -1.28382,-1.88543 -1.67578,-2.3457 -0.67245,-0.78964 -1.67551,-1.11686 -2.45313,-1.74805 -0.48554,-0.3943 -0.93373,-0.95652 -1.33984,-1.42773 0.0378,-0.18984 0.0851,-0.64868 -0.008,-0.83399 -1.38998,-0.5042 -3.42181,-3.15823 -4.48828,-4.27343 -0.63235,-0.66082 -1.115,-0.59903 -1.74804,-1.0586 0.0803,-0.18715 0.0403,-0.53296 -0.0703,-0.70117 -1.49803,-0.95334 -0.89934,-2.41706 -3.10351,-2.67383 l -0.58399,-0.70312 c 0.0251,-1.18098 -0.87028,-1.48822 -1.94336,-1.41992 -0.43297,-1.03509 -0.74974,-0.79417 -1.55468,-1.35938 -0.66832,-0.46941 -0.99984,-1.48821 -1.59375,-2.08984 -0.32254,-0.0982 -0.67302,0.0874 -1.01563,0.0469 l -0.23047,-0.16601 c 0.16365,-0.11859 0.58222,-0.49362 0.60157,-0.71875 -0.098,-0.44797 -0.47756,-0.94986 -0.47461,-1.38282 l 0.17773,-0.20703 c 0.0819,-0.64033 -0.0964,-1.17677 -0.23047,-1.7832 -0.0825,-0.37421 -0.83764,-2.75905 -0.84375,-2.83984 -0.3531,-0.13385 -1.51063,-1.73369 -1.72461,-2.16211 0.25583,-0.29297 0.30385,-0.89003 0.24805,-1.25586 -0.86204,-0.0786 -0.77726,-0.52194 -1.27149,-0.9961 -0.16386,-0.1573 -0.45361,-0.2493 -0.63476,-0.39453 -1.26886,-1.01704 -1.41016,-1.26903 -1.41016,-2.89844 0,-1.78809 0.0123,-3.57519 -0.0156,-5.36328 -0.012,-0.78305 0.11799,-1.56859 0.11523,-2.34961 -0.15252,-44.85977 -0.0217,-89.72157 -0.0918,-134.58203 29.95355,0.11246 59.92845,-0.33497 89.8789,-0.63476 -0.51538,-0.68973 -0.26277,-1.45332 -0.6582,-1.97461 -0.18094,-0.23856 -2.37624,-2.34777 -2.38281,-2.34961 -0.86345,-0.2258 -1.01576,-0.14654 -1.77539,-0.8711 -0.23333,-1.10016 -0.6894,-0.64986 -1.14258,-1.32617 -0.0515,-0.13885 0.39621,-4.53353 0.52344,-4.82422 0.21808,-0.49783 0.67954,-0.9562 0.71484,-1.52734 0.0429,-0.69678 -0.48543,-1.50032 -0.0273,-2.18164 0.43659,-0.64897 1.0119,-1.30821 1.22265,-2.07422 0.35557,-1.29386 -0.75631,-2.81891 0.31445,-3.45312 0.1007,-0.24925 0.16464,-0.53584 0.17579,-0.80469 l 0.8789,-0.34961 c 0.13386,-0.1129 0.14982,-0.58371 0.19531,-0.77539 0.21035,-0.26631 0.56959,-0.15661 0.73438,-0.40039 0.26612,-1.26382 1.29393,-2.3665 2.5293,-2.76758 0.41155,-0.31891 0.44713,-2.6954 0.18945,-3.40039 -0.17207,-0.17413 -0.85979,-0.59282 -0.91602,-0.71484 0.0662,-0.28545 0.76087,-0.55461 0.87696,-1.07227 0.0429,-0.43204 -0.34654,-0.80762 -0.39844,-1.24219 l 0.19531,-0.47265 c -0.77464,-0.56864 -1.10685,-1.63958 -2.10937,-1.83399 -0.38788,-0.33484 -0.38817,-0.97561 -0.57617,-1.42383 -0.23856,-0.56863 -0.81778,-1.20984 -0.96485,-1.74023 -0.42201,-1.5206 0.19588,-4.64541 0.12305,-6.54297 -0.0906,-2.35694 -0.20718,-4.97302 0.61914,-7.24414 0.0737,-0.20305 0.54453,-0.49936 0.77148,-0.57813 0.0364,-0.0993 0.18348,-0.45312 0.19532,-0.5371 0.0508,-0.36172 -0.24953,-0.77656 -0.36719,-1.09571 -0.13321,-0.36102 -0.17149,-1.20074 -0.32813,-1.4375 -0.20872,-0.31572 -0.42498,-0.38731 -0.4707,-0.8164 -0.054,-0.50627 -0.068,-1.02317 -0.10156,-1.53125 0,-0.0311 -0.005,-0.10621 -0.0195,-0.13282 -0.42292,-0.73482 -0.66814,-1.08384 -0.6875,-1.93359 -0.0952,-0.0903 -0.37961,-0.4043 -0.37891,-0.54883 l 0.23633,-0.31054 0.41211,-0.13282 0.0723,-0.13476 c 0.41249,-0.76692 0.29633,-1.82959 0.70313,-2.64453 0.46573,-0.9333 1.0429,-1.70716 1.45312,-2.69532 0.0774,-0.18644 -0.14852,-0.93487 -0.19336,-1.16797 -0.40498,-2.10243 -0.47599,-2.73938 1.61914,-3.53906 0.0215,-0.008 0.0737,-0.0188 0.0898,-0.0351 0.36147,-0.36286 0.29693,-0.21329 0.43945,-0.73047 0.11714,-0.42526 -0.41567,-2.52665 -0.80078,-3.6543 l -451.662106,0 z M 1.7762641,545.47855 c -0.0658,-0.005 -0.13768,0.007 -0.21289,0.0254 -0.0208,0.005 -0.0413,0.0129 -0.0625,0.0195 -0.0444,0.0135 -0.0891,0.0305 -0.13476,0.0488 -0.11198,0.0453 -0.22459,0.0983 -0.33203,0.16015 -0.10906001,0.0628 -0.19568001,0.12053 -0.28321001,0.18164 -0.11578,0.0803 -0.21303,0.15289 -0.25976,0.19336 -0.15023,0.12998 -0.2579,0.28277 -0.33399,0.45117 -0.0761,0.16843 -0.11939,0.35141 -0.14062,0.54102 -0.0212,0.18966 -0.0207,0.38652 -0.006,0.58008 0.0143,0.19356 0.0417,0.38417 0.0723,0.56445 0.0423,0.24857 0.11418,0.55276 0.20703,0.89844 0.0928,0.34551 0.20676,0.73242 0.33789,1.14648 0.26244,0.82858 0.58887001,1.76627 0.93164001,2.69922 0.0954,0.25941 0.18846,0.48598 0.28515,0.74219 0.59914,1.58782 1.21041,3.10087 1.57422,3.89453 0.0771,0.16825 0.13762,0.44354 0.33008,0.52344 l 0.18945,0.008 c 0.058,-0.0274 0.10285,-0.0665 0.13672,-0.11328 0.1015,-0.14038 0.10103,-0.35344 0.0449,-0.56641 -0.0187,-0.071 -0.0429,-0.14296 -0.0723,-0.21094 -0.059,-0.13589 -0.13651,-0.2611 -0.21875,-0.35156 -0.0412,-0.0453 -0.083,-0.0817 -0.125,-0.10742 -0.0729,-0.27015 -0.13454,-0.55938 -0.20117,-0.8457 -0.0332,-0.14305 -0.0688,-0.28481 -0.10742,-0.42383 -0.0387,-0.13925 -0.0803,-0.27457 -0.12891,-0.4043 -0.0417,-0.11158 -0.25495,-0.36535 -0.27735,-0.46093 -0.0576,-0.24639 -0.0437,-0.52342 -0.0195,-0.80079 9.4e-4,-0.012 0.002,-0.0249 0.004,-0.0371 0.0237,-0.2623 0.0529,-0.5239 0.041,-0.76171 -1.3e-4,-0.005 1.3e-4,-0.005 0,-0.008 -0.003,-0.0644 -0.0123,-0.13031 -0.0274,-0.19922 -0.0147,-0.0689 -0.0356,-0.14081 -0.0586,-0.21484 -0.13845,-0.4462 -0.39492,-0.99068 -0.41797,-1.70312 -0.003,-0.10079 -0.004,-0.34682 -0.0117,-0.62305 -0.0102,-0.56018 -0.0373,-1.25138 -0.18945,-1.42969 l -0.0508,-0.0566 c -0.0367,-0.17002 -0.0524,-0.36874 -0.0332,-0.56055 0.009,-0.0956 0.0275,-0.19071 0.0566,-0.27929 0.0295,-0.0887 0.0696,-0.17086 0.12305,-0.24414 -0.0726,-0.20145 -0.15218,-0.40833 -0.25781,-0.59571 0.0235,-0.0983 0.0187,-0.22319 0.0195,-0.34375 9.3e-4,-0.12085 0.008,-0.23752 0.0586,-0.3164 -0.0513,-0.11128 -0.0871,-0.24588 -0.10937,-0.38282 -0.0221,-0.13724 -0.0299,-0.277 -0.0234,-0.39843 -0.0421,-0.11948 -0.11749,-0.18556 -0.21289,-0.21485 -0.0318,-0.0102 -0.0657,-0.0158 -0.10156,-0.0176 l -0.002,-0.006 z"
     id="rect4"
     inkscape:connector-curvature="0" />
  <path
     style="fill:#ce1126"
     d="M 48.684474,2.8722329e-5 C 48.278024,0.51129572 46.821394,1.2299707 46.196194,2.0273727 c 0.13647,0.472462 -0.41878,1.316052 -0.0918,2.0468748 l -0.3125,0.1582031 c -0.47986,-0.059456 -1.01308,-0.3691249 -1.47656,-0.097656 -0.12827,0.124294 -0.25242,0.4025578 -0.24024,0.5839844 -0.4506,0.178244 -0.738,0.6864073 -0.73242,1.15625 l -0.39453,0.1679688 -0.19922,0.3125 0.11328,0.6953124 -0.90429,1.21875 c -2.62953,0.3956204 -5.23446,0.9754385 -7.83985,1.5019532 -0.30311,0.061195 -0.79132,0.018753 -1.03125,-0.203125 l -0.27344,0.2382812 c -0.22434,-0.1368093 -0.57021,-0.211632 -0.83007,-0.2128906 -0.0538,0.2861339 -0.41898,0.458905 -0.67383,0.511719 0.0899,0.205556 0.19438,0.404296 0.30468,0.599609 l -0.0801,0.40625 0.32617,0.394531 c -0.1203,0.405752 -0.17637,0.820464 -0.28906,1.226563 l -0.38282,0.240234 c -0.004,0.336677 -0.0377,0.67262 -0.0664,1.007813 -0.15207,0.12895 -0.31718,0.246893 -0.48438,0.355469 -0.17027,0.518665 -0.13474,0.889341 -0.0957,1.423828 -0.1877,0.04257 -0.59027,0.206795 -0.69531,0.388672 l 0.0332,0.644531 c -0.21499,0.01085 -0.53569,0.161805 -0.67773,0.324219 -0.10677,0.184619 -0.19104,0.54589 -0.12696,0.757812 -0.15854,0.306284 -0.44688,0.52745 -0.55273,0.855469 -0.25928,0.127589 -0.57833,0.326356 -0.87891,0.285156 l -0.14258,-0.384766 -0.2539,-0.0918 c -0.17801,0.155127 -0.59459,0.22335 -0.81836,0.199219 -0.14648,-0.07419 -0.32762,-0.223703 -0.40625,-0.371094 l -0.30274,-0.0098 c -0.1524,0.210224 -0.49286,0.45208 -0.74804,0.511719 -0.0728,-0.158432 -0.0677,-0.436529 -0.0312,-0.601562 l -0.4668,-0.175782 0.0996,-0.560546 c -0.26292,-0.02006 -0.53381,-0.104492 -0.7793,-0.195313 l -0.35742,-0.435547 c -0.3377,0.15001 -1.75524,5.274541 -1.95898,5.941406 -2.34082,2.095582 -4.72809,4.045861 -6.84571,6.339845 0.0668,0.05997 0.12385,0.104622 0.16016,0.117187 l 0.59961,-0.140625 -0.008,0.197266 -0.16211,0.08789 -0.10938,0.19336 -0.20312,0.03516 -0.0117,0.152344 c 0.35214,0.399734 0.55136,0.908512 0.89453,1.30664 0.75425,0.874795 3.9894,5.124 4.23047,5.980469 0.13612,0.483954 -0.2171,0.844216 -0.0723,1.210938 0.22012,0.557707 2.1409,3.295731 1.81836,3.710937 -0.11144,0.14341 -0.2536,0.226704 -0.29297,0.423828 -0.0574,0.287167 1.03736,1.777297 1.22071,2.16211 0.46187,0.969035 1.56311,4.419329 1.60351,5.417968 0.009,0.21579 -0.082,0.414702 -0.082,0.628907 0,0.444115 0.20291,1.058098 -0.01,1.46875 -0.35421,0.683351 -1.42507,-0.01628 -1.91211,0.121093 -0.63532,0.179369 -0.72319,1.012181 -0.8418,1.548829 -0.2109,0.954923 -0.66977,1.613098 -1.10547,2.458984 -0.27328,0.530731 0.42811,1.188936 0.49414,1.695312 0.0284,0.216936 -0.05,0.485486 -0.041,0.712891 0.0316,0.799458 0.97763,1.488727 1.39454,2.121094 0.31563,0.478635 0.66171,1.073782 0.94922,1.595703 0.15033,-0.175123 0.25342,-0.391752 0.46679,-0.5 0.5452,0.04369 1.0761,0.02209 1.61719,0.109375 0.24859,-0.184733 0.3548,-0.458055 0.57617,-0.664063 0.57263,0.01669 1.1493,0.119141 1.7168,0.119141 1.27306,0 2.53322,-0.137833 3.8164,-0.09766 1.63044,0.05106 4.13149,0.329893 5.73438,0.08398 l 0.14062,-0.132812 -0.0488,-0.0918 c 0.29969,-0.991466 -0.24895,-19.763378 -0.19727,-22.146485 0.0307,-1.408494 0.18711,-2.850002 0.2793,-4.257812 0.008,-0.132604 -0.21526,-0.102552 -0.32032,-0.146485 -0.0661,-0.193493 -0.0152,-0.431607 -0.13671,-0.599609 -0.0504,-0.03613 -0.13004,-0.04501 -0.18946,-0.04297 -0.43137,0.255863 -0.26227,0.330102 -0.79492,0.271485 -0.0801,-0.108125 -0.47083,-0.707655 -0.54492,-0.736328 l -0.37305,-0.03516 -0.16015,0.0918 -0.0996,-0.04102 -0.0391,-0.125 c 0.0221,-0.106529 0.074,-0.179714 0.15039,-0.25586 0.007,-0.09824 0.0105,-0.243116 -0.0469,-0.330078 -0.20371,0.0061 -0.40838,-0.03553 -0.56055,-0.179687 0.10162,-0.10745 0.2203,-0.257662 0.38282,-0.253907 l -0.0391,-0.205078 -0.16992,-0.15625 0.002,-0.113281 c 0.0566,-0.06938 0.1091,-0.145055 0.1504,-0.224609 0.0841,-0.0571 0.23506,-0.09384 0.33203,-0.04883 0.38641,-0.288867 0.86499,-0.363039 1.22851,-0.679688 0.23072,-0.201228 0.25578,-0.54922 0.4668,-0.724609 0.15228,-0.03192 0.44846,0.159873 0.55078,0.251953 l 0.10938,-0.07031 c 0.14419,0.03745 0.29882,0.0992 0.41992,0.1875 0.10132,-0.170498 0.20305,-0.366175 0.24414,-0.5625 0.16185,-0.100596 0.35643,-0.357839 0.49414,-0.5 l 0.16992,0.330078 0.10938,0.06445 0.1621,-0.296874 0.13086,-0.0625 c 0.0749,0.04063 0.15909,0.07074 0.24024,0.0957 0.1262,-0.151607 0.27733,-0.286624 0.42383,-0.417969 l 0.18164,-0.0078 0.1914,-0.164062 c 0.16265,0.154678 0.38219,0.36543 0.61914,0.251953 l 0.12305,-0.171875 c 0.0508,-0.960161 0.36767,-0.882857 0.51758,-1.375 0.18381,-0.603919 0.0218,-1.150191 0.125,-1.726563 0.0113,-0.06324 0.1,-0.197854 0.13086,-0.259765 0.379,0.02046 0.78508,-0.03409 1.14258,-0.160156 0.16903,0.129748 0.52768,0.27672 0.74804,0.234375 l 0.44336,-0.355469 0.26367,0.08203 0.28321,-0.324219 0.21289,0.197266 0.26172,-0.09375 0.30078,-0.417969 0.5664,-0.136718 c 0.19246,-0.322678 0.50954,-0.658881 0.81446,-0.876954 l 0.51562,-0.09766 c 0.14535,-0.219321 0.2909,-0.441776 0.41211,-0.675781 l 0.4668,0.0918 c 0.31972,-0.908954 1.34493,-0.850606 2.00586,-1.371094 0.27796,-0.21887 0.18188,-1.244485 0.25586,-1.623047 0.33519,-0.208278 0.95343,-0.668286 1.10742,-1.042969 l -0.15625,-0.666015 c 0.11348,-0.485439 0.37821,-1.133739 0.73242,-1.5 l 0.33203,-0.134766 0.0391,-0.259766 -0.13281,-0.25 0.26367,-0.208984 0.65821,0.173828 c 0.0822,-0.261328 0.37868,-0.828464 0.66211,-0.9375 0.86829,-0.04073 1.71809,-0.243119 2.57617,-0.367187 0.12815,-0.336441 0.37087,-0.679676 0.5918,-0.958985 l 0.40625,0.142578 c 0.59582,-0.324038 1.85915,-0.99166 2.54296,-1.082031 0.38892,-1.034149 1.80748,-1.29576 2.76172,-1.324219 0.10721,-0.154564 0.25754,-0.522751 0.20118,-0.71875 l -0.27344,0.158204 c -0.25919,-0.07767 -0.52976,-0.140347 -0.79883,-0.171875 -0.14261,0.112116 -0.41017,0.230008 -0.5957,0.230468 -0.24481,-0.184036 -0.56147,-0.265809 -0.79102,-0.43164 -0.42513,-0.307082 -0.66972,-0.7689 -1.14844,-1.0429691 l -0.0215,-0.5507812 c -1.14667,-0.8597955 -1.45942,-0.833684 -1.98242,-2.3378907 l -0.38477,-0.048828 c -0.57666,-0.453451 -1.07311,-1.2310517 -1.45508,-1.8417969 l -0.40429,-0.082031 c -0.22843,-0.1933792 -0.27122,-0.5120345 -0.37696,-0.7773438 l -0.32422,0.023437 -0.25195,-0.1347656 -0.0644,-0.570313 -0.4043,0.02149 c 0.0971,-0.850553 0.53483,-1.737834 -0.0723,-2.470703 -0.19168,-0.103347 -0.47046,-0.16724598 -0.6875,-0.16406298 -0.0621,-0.15923 -0.31201,-0.324194 -0.4668,-0.371093 -0.47393,0.04186 -0.88597,0.62787098 -1.39258,0.71288998 -0.78056,-0.120989 -1.53169,-1.33691498 -2.12695,-1.330077977671 z M 101.63564,65.812529 l 0.002,0.0039 c -0.21808,0.09465 -1.45922,0.578619 -1.53515,0.728516 -0.805476,0.115872 -1.658236,-0.189906 -2.490236,-0.115234 -0.68381,0.0615 -1.15597,0.379166 -1.74805,0.552734 -0.68232,0.199866 -1.16635,0.336088 -1.87304,0.339844 l -9.73242,0.05078 c -0.42999,0.002 -1.06478,-0.215286 -1.48828,-0.04492 -1.12429,0.452088 -1.27925,-0.156957 -2.24805,-0.292969 -0.60221,-0.08454 -1.38702,-0.0039 -2.00391,-0.0059 -0.32336,-4.7e-4 -0.7283,0.03333 -1.08398,0.04102 -0.46347,0.01024 -2.0932,-0.120886 -2.42578,0.291016 -0.20736,0.257 -0.7143,0.970163 -0.99805,1.107422 -0.68699,0.231397 -3.82873,-1.700056 -5.49023,-1.605469 -0.82446,0.04698 -1.50323,0.246294 -2.08985,0.488281 0.10414,0.145559 -0.009,0.424494 -0.14844,0.507813 -0.17688,0.10608 -1.00235,0.34586 -1.20117,0.619141 -0.19883,0.27327 -0.751,0.570518 -0.95508,0.568359 -0.20406,-0.002 -0.72946,0.113759 -0.90429,0.201172 -0.17482,0.08738 -0.53246,0.134878 -0.89258,-0.267578 -0.36013,-0.402466 -1.29311,-1.101768 -1.67188,-0.78125 -0.37878,0.320507 -1.10737,0.873557 -1.45703,0.611328 -0.34963,-0.26224 -0.95763,-0.349553 -1.26562,-0.160156 l -1.07032,0.199218 c -1.5939,0.384353 0.50711,3.003355 -1.56835,2.726563 l -0.22266,0.166016 c -0.10791,0.91975 -1.10984,1.105618 -1.81641,1.414062 -0.31084,0.135674 -0.66304,0.188447 -0.95703,0.361328 -0.41385,0.243349 -0.97433,0.914608 -1.4082,1.021484 -0.19144,0.04708 -1.48762,0.330272 -1.59961,0.289063 -0.29501,-0.108351 -0.516,-0.395396 -0.84961,-0.402344 -0.49932,-0.01054 -0.93003,0.3343 -1.41797,0.392578 -1.388,0.165719 -2.83593,-0.904305 -3.17773,-0.892578 l -0.20313,0.197266 c -0.0339,0.467898 -0.75049,1.380755 -1.12304,1.662109 l -0.1836,0 -0.41406,-0.330078 c -0.26474,0.02405 -0.59651,-0.08358 -0.7793,-0.28125 l -0.2832,0 c -0.38812,0.377528 -0.98884,0.495666 -1.30664,0.951172 0,0 -0.20113,-0.124703 -0.10156,-0.361328 -0.36434,-0.258259 -0.60901,-0.266011 -0.84961,0.132812 -0.38721,-0.11052 -0.71573,0.235827 -1.10352,0.195313 l -0.0195,0.103515 0.24219,0.238282 -0.17188,0.248047 -0.39453,-0.15625 c -1.00591,-0.01167 -0.2224,1.493946 0.10938,1.839843 -0.63043,-0.03449 -0.82919,-0.974765 -1.23438,-1.345703 l -0.25399,-0.01949 -0.27148,-0.197266 -0.12109,0.05273 -0.40625,0.308593 c -0.22331,0.114849 -0.40727,0.36751 -0.4668,0.609376 -0.35101,-0.573518 -1.87769,-0.405618 -2.23633,0.08984 -0.47109,0.179156 -1.62019,-0.587878 -1.97461,-0.0332 l 0.96289,0.611328 0.0586,0.144532 -0.0605,0.15625 -0.35352,-0.363282 -0.63867,-0.03125 -0.20117,-0.195312 -0.19141,-0.04297 c -0.36024,0.267931 -1.22355,0.05714 -1.31836,0.515625 l 0.10157,0.175781 0.69922,0.257813 0.0293,0.115234 -0.14258,0.07031 c -0.69168,-0.590719 -1.20349,0.403202 -1.54882,0.847656 l -0.19141,0.0293 -0.55664,-0.259766 -0.0508,-0.214844 c 0.0421,-0.112341 0.19108,-0.338336 0.31445,-0.373046 0.25564,-0.07226 0.48332,0.0047 0.74805,-0.138672 0.53085,-0.28682 0.27156,-1.029808 -0.18164,-1.253907 -0.22797,-0.11268 -0.51557,0.0334 -0.66797,0.205079 l -0.30274,0.03125 -0.0508,-0.113282 0.39453,-0.373047 0.18165,-0.01953 0.15234,-0.144531 0.21289,-0.04102 c 0.1656,0.09312 0.36736,0.135112 0.55664,0.123047 l 0.17187,-0.123047 c 0.0959,-0.361942 0.31139,-0.696129 0.53711,-0.990234 l -0.0391,-0.144531 c -0.18244,-0.0309 -0.57686,0.131359 -0.70898,0.257812 -0.69998,0.669587 -2.27484,1.101848 -2.17774,2.228516 0.0579,0.671296 1.82051,3.189878 2.31836,3.820312 1.29468,1.63942 2.44528,3.418408 3.34375,5.306641 0.22764,0.478253 0.36054,0.999367 0.60742,1.46875 0.20055,0.381058 0.49616,0.70056 0.70899,1.074219 0.68564,1.203737 1.29598,2.454086 1.92187,3.689453 0.58867,1.161738 0.98215,2.411025 1.58789,3.564453 0.55736,1.061228 1.24494,2.098239 1.86329,3.111328 0.18849,0.30879 0.11959,0.69346 0.25195,1.02148 0.53461,1.32461 1.27129,1.77373 2.22656,2.71875 0.56999,0.56397 0.83919,1.3627 1.42774,1.91016 0.91702,0.85261 1.88061,1.65894 2.69531,2.61523 0.39369,0.46199 0.69762,0.99157 1.125,1.42579 0.74937,0.76143 0.99023,1.47409 1.53906,2.3457 0.18757,0.29774 0.47892,0.5083 0.66797,0.80469 0.17779,0.27862 0.40926,1.1141 0.67969,1.25 0.0471,0.0236 0.12053,0.0308 0.17187,0.043 -0.0125,0.17732 0.0327,0.36253 0.12305,0.51562 0.96233,0.49521 1.31382,2.0428 1.53906,3.01367 -0.44764,0.65263 0.45519,3.11134 0.63867,3.9043 0.16003,0.69145 -0.19361,1.32132 -0.23437,2.00195 -0.0168,0.28193 0.0379,0.55624 0.0976,0.83008 0.10905,0.49966 0.10322,0.97764 0.14454,1.48242 0.0351,0.42796 0.25604,0.80806 0.32421,1.22852 0.11564,0.71238 -0.29933,1.07463 0,2.10547 0.11518,0.39643 1.53791,1.59507 1.86719,2.06445 0.7554,1.07718 0.94046,2.46075 1.31641,3.68555 0.13897,0.45242 0.41205,0.85491 0.53906,1.31054 0.0917,0.32904 0.0639,0.68335 0.18164,1.01172 0.18483,0.51537 0.68343,0.9489 0.62891,1.53711 l 0.2832,0.35156 c 0.10846,1.61165 2.37326,3.92355 1.83594,5.01563 l 0.0312,0.13476 c 1.18007,1.04202 0.94069,1.74594 1.51172,3.02149 0.2036,0.45492 0.51574,0.85813 0.69922,1.32227 0.16606,0.42022 0.0964,0.88758 0.24414,1.31054 0.22399,0.64123 0.98457,2.24207 1.44336,2.69336 1.05509,1.03802 0.60227,2.28014 1.22656,3.44336 0.3517,0.65502 0.88581,1.18474 1.28906,1.80469 0.31357,0.48191 0.29449,0.97678 0.51758,1.47656 0.16467,0.369 0.52025,0.57255 0.73047,0.90625 0.31336,0.49762 0.2415,1.11989 0.35156,1.67383 0.10721,0.54018 0.5347,0.91585 0.74219,1.41015 0.14795,0.35273 0.16442,0.74363 0.28906,1.10352 0.46608,1.34623 2.21115,2.55853 2.46484,3.78516 -0.20885,0.29625 -0.0669,1.05296 0.0371,1.38281 0.48372,0.18836 1.51021,1.86399 1.4336,2.37891 1.56578,1.94013 3.89996,5.57659 4.29492,8.04882 0.0128,0.0804 0.001,0.17609 0.002,0.25782 l -0.16211,0.13476 -0.20312,0.0332 c -0.21114,0.37369 0.63257,1.28489 -0.28321,2.22071 l -0.12109,0.47461 c -0.31448,-0.19178 -0.92929,-0.56138 -1.30273,-0.47852 l -0.19141,0.21875 0.48242,0.93555 c -0.20431,0.69043 0.49228,2.03739 0.58789,2.78711 0.0616,0.48338 -0.14038,0.98517 0.0781,1.44922 0.19474,0.41337 0.63859,1.59191 1.08203,1.70117 0.13031,0.25303 0.39539,0.36525 0.57226,0.57617 0.63487,0.75676 -0.33623,3.82546 -0.70898,4.70117 l 0.21484,0.36914 -0.0801,0.0937 c -0.43832,-0.0162 -1.15942,0.76914 -1.41016,1.10352 l -0.47852,-0.0195 -0.16406,-0.23633 -0.22461,-0.0606 -0.38672,0.11524 c -0.33552,-0.21808 -0.80599,-0.43389 -1.21289,-0.42774 -0.85386,-0.93617 -1.339,0.54402 -1.4082,1.20313 -0.26679,0.11096 -0.52438,0.27875 -0.72266,0.49023 l -0.66211,-0.008 -0.0918,-0.13477 c -0.13034,0.19804 -0.29575,0.40242 -0.50586,0.51954 -0.74937,-0.0638 -0.66908,1.10235 -1.11524,1.41796 l -0.10156,-0.21484 -0.14258,0.13477 -0.008,0.70117 c -0.32678,0.45561 -0.55516,0.93943 -1.09375,1.18359 -0.15685,0.59718 -1.04955,1.31331 -1.05273,1.45899 -0.008,0.38881 0.23527,0.92268 0.0664,1.3125 -0.11894,0.2742 -0.35467,0.42826 -0.4043,0.76562 -0.45857,0.33233 -1.03169,-0.4364 -1.82421,-0.14844 -0.5066,0.18393 -1.59511,3.58775 -2.15235,4.22852 -0.37082,0.42637 -0.82518,0.79385 -1.20898,1.2168 -0.0443,0.25519 -0.13508,0.85242 -0.42578,0.93164 l -0.22461,-0.13477 c -0.0993,-0.22329 -0.14242,-0.46216 -0.18555,-0.70117 l 0.13086,-0.24805 -0.24609,-0.31836 c 0.30412,-0.39904 0.0735,-0.71815 0.25195,-1.10742 0.2513,-0.54837 0.77647,-0.84649 1.01367,-1.49023 l -0.0625,-0.19532 -0.19336,-0.0625 0.42383,-0.90039 0.4375,-0.11523 -0.0508,-0.2168 c 0.22674,-0.39654 1.10129,-1.41899 1.57226,-1.42969 l 0.41602,-0.73437 0.41602,-0.47852 0.10546,-0.11523 0.25,-0.0293 0.25391,-0.35351 0.17188,-0.29883 0.80273,-0.33399 0.10938,-0.56836 0.29492,-0.29101 -0.043,-0.1543 c -0.57864,0.007 -2.24275,1.75443 -2.42383,2.27149 -0.64774,0.22878 -1.29896,1.29643 -1.83789,1.75195 -0.18427,0.15592 -0.41399,0.24736 -0.58789,0.41602 -0.31665,0.30709 -0.48918,1.16315 -0.6582,1.59179 l 0.18554,0.29883 c -0.067,0.26906 -0.17016,0.55256 -0.35351,0.76563 -0.19065,0.0551 -0.39468,0.0977 -0.58008,0.16796 -0.56898,0.21534 -0.59862,2.41506 -0.0234,3.26368 0.7438,1.0979 2.92903,4.08795 3.4082,5.04882 0.9225,1.84997 1.77446,3.84555 3.05274,5.48633 0.31209,0.40065 0.25772,0.4882 0.35742,0.95508 0.091,0.42544 0.3353,0.79456 0.46484,1.20703 0.38105,1.21262 0.32227,2.55445 0.32227,3.81055 0,1.13431 1.8819,2.12224 1.11523,3.26953 l -0.29296,0.51953 -0.0508,0.1543 c 1.43011,1.68791 3.64046,4.4852 0.33985,5.53711 l -0.10938,0.22656 c 0.13078,1.44343 4.35362,5.59904 5.26758,8.09961 0.15342,0.41954 -0.26132,0.88786 -0.0664,1.43555 0.56989,1.60186 2.77145,2.80892 -0.14648,3.72265 l -0.0703,0.20703 0.0527,0.1543 c 0.73356,0.62782 2.19161,1.49074 2.08985,2.60547 0.80629,1.31549 2.43175,2.20127 3.44336,3.37109 0.41463,0.4794 0.40273,1.15428 0.65039,1.71289 0.21899,0.49443 0.46127,0.65871 0.0586,1.12696 -0.0263,1.36239 2.61816,2.8511 3.11133,3.97265 -0.25518,-0.0195 -1.00131,-0.88947 -1.21289,-1.10937 l -0.15235,-0.01 -0.0918,0.16406 c 1.27771,1.09401 1.51948,1.28837 1.92968,2.93555 0.41885,1.68245 0.88497,1.73089 -0.34961,3.28906 l 0,0.17579 c 1.16209,1.78102 3.60504,2.92893 4.98633,4.94531 0.21147,0.30867 0.2738,0.69327 0.50782,0.98828 1.10903,1.3986 4.79545,5.30732 5.33789,6.5625 0.80663,1.86683 -0.87134,2.25976 -1.32422,2.89258 -0.13442,0.1878 -0.14329,0.44091 -0.32813,0.5957 -0.17948,0.15023 -0.43676,0.075 -0.57812,0.24805 -0.16606,0.20373 0.45117,1.36679 0.62304,1.55664 1.00863,1.11427 1.74437,2.34404 2.59766,3.57031 1.20486,1.73163 2.21988,2.74153 2.74219,4.89063 0.145,0.59685 0.28166,1.45796 0.11914,2.05664 -0.0449,0.1655 -0.2965,0.59252 -0.30664,0.65625 -0.11974,0.75073 -0.11964,1.54887 -0.22266,2.31054 -0.16344,1.20783 -0.43169,2.38869 -0.63281,3.58789 -0.13396,0.79922 0.23025,1.83272 -0.0547,2.63672 -0.65888,1.85978 -0.50253,1.41596 -0.28125,3.85938 0.002,0.0213 0.0773,0.1304 0.0918,0.15429 -0.22057,0.15661 -0.55923,0.17564 -0.82031,0.16016 -0.61234,0.4885 -0.60785,1.24453 -0.55078,2.09961 l 452.666006,0 c -0.25983,-1.11387 -0.64021,-2.38708 -0.82422,-2.67969 -0.25631,-0.40746 -0.73593,-0.89132 -0.86133,-1.35547 -0.51514,-1.90415 0.53997,-4.30582 -0.23828,-6.16992 -0.20942,-0.36854 -0.83382,-0.24939 -1.10742,-0.55078 -0.1607,-0.44252 0.20575,-1.09035 0.53516,-1.36328 0.13045,-0.58958 -0.15736,-0.87901 -0.22266,-1.375 -0.20468,-1.54907 0.52567,-2.81238 0.5293,-4.29883 -0.10924,-0.16118 -0.28785,-0.30652 -0.46094,-0.39258 l 0.22461,-0.57812 c -0.23128,-0.44434 -0.28591,-0.56136 -0.76758,-0.81836 -0.24242,-0.40837 -0.31743,-1.24936 -0.31445,-1.70508 -0.73411,0.92898 -1.45439,1.97673 -2.25,2.84766 -0.6021,0.65901 -1.8287,0.86267 -2.42188,1.49414 -0.0462,0.14568 -0.13497,0.52548 -0.21875,0.63086 -2.69634,3.38174 -4.76302,-1.02733 -6.49023,-0.41797 -0.28051,0.23879 -0.93501,0.62539 -1.29492,0.66797 -0.0884,0.0104 -0.52978,-0.13331 -0.6543,-0.13672 -0.73388,-0.0204 -1.01264,0.3501 -1.86719,-0.0762 -0.18023,-0.09 -0.75281,-0.56397 -0.95312,-0.56055 -0.58458,0.009 -1.79066,0.37415 -2.32813,-0.0488 -0.66219,-0.52083 -1.04803,-1.08952 -1.85156,-1.42187 -0.92537,-0.38264 -1.62741,-0.58215 -2.62695,-0.75196 -2.03531,-0.34555 -2.27145,-0.0252 -3.97852,1.13086 -0.70339,0.47646 -1.46399,1.00066 -2.01758,1.65625 l -0.19336,0.0293 c -0.0406,0.15867 -1.79352,1.08517 -1.98632,1.22266 l -1.625,1.26562 c -0.37812,0.33644 -1.76474,2.02864 -2.43946,2.0332 -0.76806,0.005 -1.68306,-0.74424 -2.41015,-0.40234 -0.86638,0.40748 -1.54781,1.14682 -2.55078,1.2793 -0.96266,0.12701 -2.52189,-1.01948 -3.55469,-1.11328 l -0.10352,0.004 c -1.19919,0.0658 -3.23485,-0.27848 -4.28515,-0.80273 -0.50015,-0.2497 -1.33982,-1.0008 -1.9629,-0.89063 -1.06939,0.57274 -0.34739,0.92641 -2.13085,0.96875 -0.17142,0.32256 -0.31372,0.66777 -0.43555,1.01172 -0.89569,0.94947 -3.55187,0.1076 -4.70899,-0.22656 l -0.10156,-0.14453 c -1.30438,-0.52015 -2.42504,-1.03336 -3.59961,-1.85352 -0.53931,-0.37697 -0.97302,-0.98819 -1.64453,-1.14844 -0.62032,-0.14819 -1.15908,0.3774 -1.7168,0.47461 -0.51219,0.0892 -0.91477,-0.0812 -1.36523,0.25 -1.25041,0.91965 -0.0953,1.87833 -0.23633,2.97461 -0.11286,0.87846 -1.16909,1.17595 -1.77734,1.92578 -0.2324,0.28659 -0.96668,1.0616 -1.38281,1.03907 -0.32849,-0.0178 -3.25296,-0.26885 -3.45899,-0.0156 -0.38716,1.3476 -0.49065,1.13357 -1.40234,2.11719 -0.35147,0.379 -0.63507,0.88897 -1.10742,1.13867 -0.58387,0.0122 -1.28739,-0.45937 -1.36524,-1.07422 1.47688,-3.16253 -1.11413,-3.9348 -1.68164,-5.51367 -0.47117,-1.31163 0.14408,-2.01948 -0.0391,-3.09961 -0.0665,-0.39221 -0.32443,-0.67292 -0.45117,-1.02734 -0.24953,-0.69701 -0.0994,-1.88747 -0.082,-2.625 0.0144,-0.60846 -0.75652,-1.64285 -1.14257,-2.09766 l -0.006,-0.53711 c -0.1564,-0.14842 -0.20801,-0.49412 -0.26172,-0.68555 -0.29911,-1.06556 0.52268,-1.4966 1.22656,-2.02539 1.12931,-0.84793 1.41,-1.28848 2.77149,-1.77539 0.42544,-0.15229 1.19991,0.0794 1.53906,-0.15234 0.40476,-0.27658 0.67763,-0.64706 1.1543,-0.89062 0.33394,-0.81154 0.32217,-0.62257 0.2871,-1.42383 l -0.2539,-0.34375 c -0.0233,-0.92307 0.0759,-1.84665 -0.63672,-2.55664 0.0689,-0.2991 0.16474,-0.61589 0.21094,-0.91797 0.0885,-0.57615 -0.12567,-4.0298 -0.10352,-5.03321 0,-0.0878 -0.15686,-0.3082 -0.22266,-0.35351 -0.42701,-0.29524 -0.96744,-0.77229 -1.48828,-0.88086 l 0.0117,-0.35156 c 0.14844,-0.10902 0.35017,-0.19126 0.53321,-0.21289 0.1846,-0.28567 0.24435,-1.28594 0.25781,-1.65039 l 0.58984,-0.73829 c -0.14634,-1.04758 1.24894,-1.63739 0.82031,-2.93945 -0.13589,-0.41339 -0.41365,-0.80017 -0.55273,-1.21289 -0.16116,-0.47825 -0.11667,-0.891 -0.37891,-1.36719 -0.22401,-0.40701 -1.01973,-0.92609 -1.08593,-1.16601 0.18484,-0.40087 0.17013,-1.68878 -0.21094,-2.00586 -0.18691,-0.15571 -0.46341,-0.28713 -0.62891,-0.45899 -0.27268,-0.28319 -0.18382,-0.81957 -0.5039,-1.05859 -0.29137,-0.009 -0.60435,-0.35842 -0.67969,-0.625 0.33599,-0.68106 -0.2351,-1.72249 -0.5957,-2.2793 -0.008,-0.29797 -0.0231,-0.68161 0.0684,-0.9707 l -0.18165,-0.35156 c 0.63327,-0.75187 -0.31261,-1.58094 0.21485,-2.62305 -0.2973,-0.82951 -0.84107,-1.36851 -0.2793,-2.19141 l -0.0391,-0.21875 -0.20313,-0.14453 -0.14257,-0.002 c -0.26522,-0.1853 -0.392,-0.39351 -0.51563,-0.67578 0.12498,-0.19736 0.28398,-0.39377 0.46289,-0.54492 -0.35485,-0.49192 -0.58806,-1.21709 -0.85351,-1.77344 -0.058,-0.12176 0.18654,-0.58746 0.0879,-0.91797 -0.14979,-0.50195 -1.13036,-1.022 -1.55078,-1.49023 -0.0336,-0.0376 -0.10932,-0.0671 -0.15235,-0.0937 -0.33417,-0.0331 -0.71882,0.16848 -0.99219,0.11523 l -0.35156,-0.73633 c -0.42883,-0.32802 -0.87236,0.0472 -1.16601,0.36133 -0.20396,-0.0508 -0.43982,-0.20251 -0.58985,-0.3457 l -0.39844,-0.0234 c -0.21352,-0.0956 -0.37301,-0.5534 -0.40234,-0.75781 -0.50354,-0.27407 -0.69635,-1.05542 -0.98047,-1.20703 l -0.30664,0.14257 -0.41992,-0.0859 c -0.61575,-0.67584 -0.56847,-1.14913 -0.7793,-1.92969 l -0.17187,-0.14453 c -0.24967,-0.32916 0.38648,-1.17144 -0.0156,-1.67383 -0.19302,0.0771 -0.60672,0.49303 -0.75195,0.64258 l -0.28516,-0.002 -0.14258,-0.084 c -0.29795,-0.43568 -0.17517,-1.02983 -0.47656,-1.50195 -0.42205,-0.16071 -0.4442,-0.67892 -1.14648,-0.81641 -0.10312,-0.1919 -0.0423,-0.67278 0.008,-0.86719 l -0.25195,-0.29297 c -0.46502,-0.002 -1.62751,-0.73115 -1.79688,-1.12109 -0.1903,-0.054 -0.64267,-0.22182 -0.77148,-0.38867 0.0634,-0.16549 0.0794,-0.36205 0.0859,-0.53711 l -0.3125,-0.4668 c -0.042,-0.20898 0.0696,-0.54975 0.20117,-0.71093 -0.0452,-0.23969 -0.20442,-0.60049 -0.39063,-0.76758 -0.13496,-0.67219 0.32522,-1.40093 -0.14648,-2.06836 -0.63577,-0.89986 -1.18531,-0.9399 -1.46485,-2.45117 -0.0973,-0.5256 0.30464,-0.92411 0.2168,-1.45313 -0.28158,-0.63124 -1.83628,-1.40259 -1.84765,-2.00195 l 0.0332,-0.25781 c 0.41725,-0.2734 0.70968,-1.76035 0.80664,-2.27344 l -0.12891,-0.42383 c 0.0988,-0.32961 0.21991,-0.76829 0.42774,-1.05078 0.15249,-0.0367 0.39255,-0.19273 0.45312,-0.3457 0.0632,-0.37763 -0.0479,-1.0204 0.12305,-1.33204 0.0601,-0.10947 0.31901,-0.3209 0.36133,-0.41992 0.16187,-0.37833 0.17581,-0.86507 0.34765,-1.23633 0.11613,-0.25063 0.43416,-0.46684 0.55664,-0.71679 0.44639,-0.911 -0.22961,-2.18234 0.0176,-3.09766 -0.79491,-1.18121 -0.89577,-3.32214 -0.77148,-4.67383 l 0.36133,-0.49218 0.30664,-0.0801 0.15429,-0.17383 c -0.13342,-0.24106 -0.33239,-0.52422 -0.43164,-0.77734 -0.0999,-0.25494 0.18155,-2.98329 0.23438,-3.28125 0.0869,-0.49328 0.34398,-1.05415 0.38086,-1.54493 0.0748,-1.00068 -0.52533,-0.405 0.19922,-1.89843 -0.16209,-0.49112 -0.12612,-1.18597 0.33984,-1.54493 l 0.20703,-0.40039 -0.0977,-0.43554 c 0.32187,-0.48976 0.94137,-2.30157 1.03516,-2.92188 0.0973,-0.6433 -0.31776,-1.42731 -0.25586,-2.13867 0.0159,-0.18325 0.66664,-1.88473 0.76953,-2.08789 -0.61963,-1.37457 0.47257,-1.63008 0.88867,-2.63281 l -0.01,-0.22657 -0.11914,-0.1875 -0.47656,-0.21093 0.0625,-0.17578 0.28711,-0.19141 0.0977,-0.67188 0.54297,-0.52148 c 0.20807,-0.4193 0.0206,-1.15134 -0.11914,-1.55859 0.0653,-0.63008 1.01689,-1.12126 0.72852,-1.8711 -0.17459,-0.16503 -0.31844,-0.44269 -0.4004,-0.66406 0.40271,-2.13738 -1.39444,-3.5052 -1.39648,-4.06836 -0.008,-2.13966 0.74561,-1.58345 0.84375,-2.34375 -0.0617,-1.22421 -1.52887,-1.11845 -1.8125,-1.8125 0.1115,-1.55999 -0.4052,-2.75081 -0.80469,-4.2168 l 0.13477,-0.29687 0.3164,-0.16211 0.0527,-0.23633 c -0.0429,-0.47472 -0.87466,-0.95031 -1.18359,-1.30859 -0.53946,-0.62577 -0.49196,-1.00828 -0.8086,-1.70313 -0.10401,-0.22809 -0.34277,-0.42711 -0.45117,-0.65429 -0.13339,-0.2793 -0.16999,-0.62528 -0.29492,-0.91016 -0.11063,-0.25188 -0.31119,-0.47176 -0.42774,-0.73047 l -0.15234,-0.33789 c -0.3408,-0.40246 -0.85852,-0.65608 -1.14649,-1.125 -0.13771,-0.22423 -0.14333,-0.62352 -0.28515,-0.86914 -0.0807,-0.14009 -0.40041,-0.3463 -0.45117,-0.50781 -0.0842,-0.26849 -0.56889,-1.62354 -0.50586,-1.82227 -0.96653,-1.3839 -0.93442,-1.24188 0.36718,-2.35547 0.356,-1.29639 -0.49445,-2.72324 -0.16992,-3.43359 0.63215,-0.39846 0.69294,-0.38789 0.54883,-1.20899 l -0.32031,-0.38281 c 0.0149,-0.18873 0.0296,-0.64173 -0.0605,-0.81836 0.29731,-0.28876 0.65994,-0.61026 0.78516,-1.02148 -0.0504,-0.15 -0.094,-0.49422 0.008,-0.63672 0.24723,-0.18645 0.41295,-0.24675 0.43164,-0.58594 0.0558,-1.02071 0.99241,-1.92236 0.63867,-2.94922 l 0.11328,-0.23828 0.48047,-0.1582 c 0.17413,-0.50582 0.32263,-0.81865 0.19336,-1.38477 0.36442,-0.11553 0.63505,-0.48301 0.85742,-0.77734 0.0995,-0.1755 -0.14752,-0.81566 -0.22265,-0.98047 l 0.11914,-0.26758 0.21094,-0.0918 c 0.0965,-0.0883 0.15995,-0.8108 0.14062,-0.95704 -1.79786,-2.17767 0.50914,-2.78997 0.15039,-3.75195 l -0.22656,-0.1914 -0.22656,-0.0332 -0.1211,-0.0996 c -0.0224,-0.0878 -0.0418,-0.19938 -0.0176,-0.28906 0.21921,-0.13942 0.52535,-0.35363 0.54493,-0.63477 -0.0251,-0.12315 -0.16275,-0.62099 -0.0957,-0.7207 l -0.0976,-0.13086 c -0.32713,0.0425 -1.00544,-0.74368 -1.00586,-1.06055 0.0279,-0.2051 0.34926,-0.3501 0.43164,-0.63476 -0.0242,-0.41613 -0.24083,-0.57918 -0.39649,-0.91016 -0.20418,-0.43387 -0.0885,-1.07478 -0.41796,-1.70703 -0.46144,-0.19542 -0.70365,-0.60953 -1.14258,-0.85742 -0.32209,-0.18211 -0.48321,-0.56929 -0.41602,-0.93555 l -0.16601,-0.16797 c -18.19058,-0.44525 -36.38302,-0.18006 -54.57422,-0.11132 -0.11383,-0.62486 -0.26072,-2.20167 -0.24024,-2.79102 0.004,-0.11165 0.19513,-0.47231 0.21289,-0.60547 0.0365,-0.27156 -0.0418,-0.58199 -0.0176,-0.85742 0.0948,-1.08002 0.16018,-2.29206 0.48046,-3.33008 0.21329,-0.69087 0.83664,-1.16851 1.04493,-1.93359 0.29866,-1.09789 0.1656,-2.21129 0.89062,-3.22461 0.318,-0.44478 0.73351,0.0173 0.79883,-0.875 l 0.21289,-0.12695 c 0.14022,-0.82665 -0.0352,-2.12313 0.38281,-2.79102 -4.56204,-0.0662 -9.08347,0.0134 -13.66211,-0.0195 -0.14753,0.20237 -0.13534,0.65398 -0.0664,0.87695 -0.029,0.1145 -0.14143,0.23548 -0.25,0.2793 0.15479,0.50034 0.11539,1.56533 -0.36719,1.89062 0.0717,0.18337 0.129,0.45018 0.0977,0.64844 l -0.0879,0.125 c -0.24766,0.0162 -0.50017,0.0505 -0.74805,0.0488 -10.88983,-0.0764 -21.75568,0.10938 -32.63867,0.0156 -0.008,1.01014 0.22419,1.75127 0.83789,2.60547 l -0.16211,0.0762 c -0.20987,0.44026 -0.60496,0.64166 -0.92774,0.97266 -0.0324,0.033 -1.29181,2.49124 -1.30273,2.52539 -0.13431,0.41725 -0.15642,1.04175 -0.22266,1.48438 -0.11109,0.0506 -0.32809,0.21451 -0.34765,0.34961 0.0905,0.44445 0.50246,0.47992 0.24023,0.98242 l 0.17773,0.42383 c -0.13224,0.18438 -0.11422,0.64033 -0.23828,0.91601 l 0.14258,0.1875 c -0.13111,0.33838 -0.003,0.75104 -0.13867,1.03125 -0.36604,0.21637 -0.30746,1.04162 -0.20117,1.36133 l -0.13281,0.13281 0.0195,0.22852 -0.14258,0.14258 -0.041,0.18554 0.16016,0.25782 -0.21484,0.24804 c 0.0198,0.24994 0.2087,0.6223 0.41015,0.77539 l -0.0508,0.11328 0.12891,0.32813 0.12304,0.0449 c -0.0578,0.10973 0.068,0.5123 0.10743,0.62109 -0.16847,0.0732 -0.23773,0.41594 -0.39844,0.56446 0.38561,0.83771 0.93921,1.64372 1.16797,2.54492 0.10472,0.0931 0.37559,0.30293 0.52539,0.3125 l -0.0508,0.15625 -0.22071,0.0508 -0.0195,0.37891 c 0.0866,0.11142 0.3638,0.18863 0.49219,0.21094 0.18483,0.12613 0.71146,1.00051 0.52344,1.09179 l -0.33985,-0.22656 c -0.18325,-0.0521 -0.70602,0.16224 -0.86718,0.23828 -0.20216,0.55507 -0.99682,1.29921 -1.58594,1.29102 l -0.0527,0.11914 c 0.12428,0.26746 0.41077,0.94392 0.40235,1.24804 l -0.49414,0.55079 -0.0195,0.25976 0.10351,0.10352 c -0.004,0.35774 -0.65788,0.78141 -0.99023,0.77343 l -3.56836,-0.084 c 0.009,0.13362 0.0329,0.26213 -0.0527,0.37891 l -0.49414,0.25781 c 0.12679,0.71613 0.44023,1.78794 0.80469,2.42578 0.11677,0.20397 0.43509,0.38138 0.48242,0.63281 0.0406,0.215 0.0152,0.44334 0.0469,0.66016 0.0801,0.54598 0.33709,0.6287 0.45703,1.58203 0.005,0.0364 -0.0389,0.11889 -0.0508,0.1543 l -0.25586,0.20507 c -0.0612,0.12998 -0.0801,0.31393 -0.043,0.45313 -0.16663,0.10426 -0.5075,2.06014 -0.43945,2.23633 l -0.0625,0.15429 -0.16211,0.082 0.0176,0.39062 c -0.14021,0.40736 -1.00016,0.85041 -1.10351,1.3125 -0.16094,0.72001 0.22878,1.49783 0.12109,2.21875 l -0.41601,0.24609 0.0449,0.56055 -0.35547,0.22266 c 0.006,0.1748 -0.0551,0.56394 -0.21094,0.68164 l 0.0117,0.11328 c 0.071,0.12088 0.34261,0.24045 0.46485,0.28711 0.25769,0.19496 0.0801,1.04988 0.17578,1.35742 l 0.72461,2.32813 c 0.0154,0.0494 9.5e-4,0.36624 0.002,0.43554 l -25.29297,0 -0.01,-0.29687 c -0.25474,-0.30058 -0.50495,-0.71105 -0.62695,-1.08789 l -0.27539,-0.11133 -0.0625,-0.13281 0.041,-0.15625 0.17187,-0.0625 c 0.0337,-0.0433 -0.0567,-1.48469 -0.15039,-1.67579 l -10.88867,-0.0527 -0.0703,0.24609 0.19336,0.3086 -0.13868,0.41211 c 0.30662,0.75655 -0.034,1.54532 -0.0351,2.33203 l -0.11914,0.0762 -0.0508,0.20117 -6.00196,0 0.32617,0.59375 c -0.10171,0.0666 -0.4101,0.23143 -0.54101,0.19727 l -0.46289,0.4375 -0.47266,-0.26563 -0.24804,0.20313 c -0.18554,0.11393 -1.04276,-0.23963 -1.25196,-0.3086 l -0.0371,-0.20703 -0.16211,-0.0742 -0.12109,0.0293 -0.18555,0.19141 c -0.1928,0.0443 -0.65968,-0.10061 -0.76758,-0.26953 l -0.006,-0.39258 -0.0898,-0.13477 0.3457,-0.27539 c -0.16844,-0.12749 -0.39694,-0.2218 -0.60546,-0.2539 -0.57977,-0.089 -0.93055,0.21545 -1.4375,0.25585 -0.60071,0.0479 -1.45904,-0.32577 -1.95118,-0.19921 -0.8994,0.23128 -1.91694,0.5476 -2.80859,0.85742 l -0.79492,1.17969 c -0.54428,0.0621 -1.0908,0.13827 -1.62891,0.24218 -0.0219,0.40373 -0.22294,0.93221 -0.47265,1.25 l 0.70507,0.86719 -0.13867,0.52734 -4.41992,-0.0644 -0.79492,0.67774 -0.41797,-0.1543 c -0.63806,-1.52027 -2.82656,-1.42314 -4.14844,-1.25195 -0.80013,0.1037 -1.56939,0.19065 -2.33789,0.45312 -0.68562,0.23435 -0.36399,0.8587 -1.82812,0.95703 -0.84316,-0.36946 -1.8111,-0.84177 -2.75782,-0.7168 -1.63989,0.21638 -1.96334,0.46942 -3.40429,0.83204 -1.16935,0.69429 -2.34015,0.71014 -3.67774,0.54296 -0.52674,-0.32506 -0.93373,-0.71492 -1.36328,-1.14843 l -0.0503,-0.42159 c -0.14957,-0.17721 -0.78796,-0.37667 -1.00195,-0.43359 -0.34189,-0.67311 0.49377,-0.97527 0.51562,-1.63086 l 0.3125,-0.0684 0.29883,0.16992 0.0664,-0.21875 c -0.229,-0.69726 -1.35427,-1.71122 -2.06836,-1.89844 -0.023,-0.006 -0.0642,-0.0597 -0.082,-0.0762 l 0.36523,-0.0664 c -0.41952,-0.41043 0.18003,-1.80104 -0.18555,-2.13477 l -0.15234,-0.0195 c -0.19806,0.10254 -0.40097,0.31514 -0.52344,0.49805 l -0.18359,-0.0937 -0.0312,-0.16407 0.16015,-0.32031 0.0195,-0.17578 -0.43555,0.043 c -0.2026,-0.0198 -0.3188,-0.35483 -0.43945,-0.48047 -0.12315,-0.12839 -0.33193,-0.1633 -0.41797,-0.34961 -0.27839,-0.60484 1.27001,-2.21846 0.13867,-2.45508 -0.38426,0.10733 -0.88394,0.11856 -1.02735,-0.3457 0.0223,-0.29752 0.46653,-0.87505 0.41211,-1.01367 l -0.17382,-0.21485 c -0.55907,-0.12407 -0.77003,0.26096 -0.98243,0.24219 l -0.10351,-0.0606 -0.0606,-0.13476 0.0488,-0.16406 c 0.13021,-0.0566 0.35516,-0.22728 0.39453,-0.375 l -0.0312,-0.18555 -0.14258,-0.13281 -0.18359,-0.0195 c -0.12953,0.0887 -0.35195,0.19789 -0.51563,0.18945 l -0.22461,-0.11328 c -0.18756,-0.28888 0.14879,-0.63692 0.1875,-0.93946 -0.16185,-1.07512 -1.40823,-0.27663 -2.5332,-1.48242 -0.17436,-0.18687 -0.36879,-0.21568 -0.5293,-0.3789 -0.0673,-0.10357 -0.0892,-0.2951 -0.0527,-0.41211 0.28909,-0.23287 0.65448,-1.14904 0.47852,-1.45703 l -0.18164,-0.041 -0.0508,0.082 -0.11132,0.0117 -0.15235,-0.082 -0.0723,-0.16406 0.0586,-0.28907 -0.0918,-0.23828 -0.13086,-0.041 -0.35546,0.14648 c -0.25222,-0.35717 -0.39506,-0.23711 -0.6211,-0.42969 l -0.0605,-0.18554 c 0.009,-0.14388 0.28537,-0.36897 0.39257,-0.43555 -0.004,-0.66959 -0.18071,-1.36379 0.28321,-1.92969 -0.10973,-0.22035 -0.26324,-0.45283 -0.44922,-0.61718 l -0.26367,-0.0293 c -0.0626,-0.0372 -0.12127,-0.096 -0.16407,-0.1543 l -0.2832,-0.0606 c -0.0991,-0.0806 -0.19528,-0.18 -0.26562,-0.28711 -0.39176,-0.0178 -0.5918,-0.45437 -0.82422,-0.45117 l -0.23243,0.0937 -0.21484,-0.29687 -0.33398,-0.0391 c -0.10518,-0.0905 -0.1626,-0.31404 -0.17579,-0.44336 -0.8987,-0.59776 -0.46293,-0.19504 -0.79687,-1.14063 -0.0954,-0.27043 -0.3217,-0.49386 -0.4082,-0.79297 l -0.27539,-0.18359 -0.082,-0.26758 c 1.25746,-2.56339 -2.05897,-1.49284 -1.95312,-3.09766 0.26224,-0.66026 0.7425,-0.72506 1.38672,-0.6875 l 0.1289,-0.1875 0.0195,-0.30859 c -0.0641,-0.17698 -0.26546,-0.39148 -0.41797,-0.49414 -0.2545,-0.0678 -0.54119,-0.0814 -0.80274,-0.0684 l -0.3457,-0.26562 -0.20508,-0.51563 -0.14258,-0.10156 -0.18164,0.0312 c -0.11588,0.083 -0.15741,0.53314 -0.16015,0.66015 -0.22307,0.3212 -0.71289,0.25125 -1.04297,0.20118 l -0.15235,-0.1211 -0.0781,-0.22851 c 0.25518,-0.65012 0.2669,-1.18784 0.14648,-1.84571 0.37606,-0.63612 0.22435,-0.818 -0.0918,-1.36328 -0.14865,-0.11179 -0.45148,-0.1603 -0.63086,-0.13867 l -0.15039,0.084 -0.67969,-0.0996 -0.51172,-0.6875 c -0.57022,-0.36455 -1.01871,0.1759 -1.23633,-1.17579 l -0.27539,-0.15429 c -0.37879,0.0206 -0.72938,0.0402 -1.10156,0.0996 -0.35442,-0.248 0.10146,-1.24272 -0.0703,-1.65235 -0.51878,-1.23594 -0.74092,-1.75385 -1.93555,-2.36914 -0.72956,-0.37572 -0.0783,-1.26923 0.37695,-1.5664 0.0887,-0.13237 0.0835,-0.4079 0.0176,-0.54688 -0.14842,-0.2059 -0.43717,-0.40352 -0.67187,-0.49219 -0.18438,-0.32836 -0.23326,-0.82693 -0.12696,-1.1875 -0.027,-0.20169 -0.30123,-0.48248 -0.45898,-0.58593 -0.10449,-0.4218 -0.21531,-0.98743 -0.54492,-1.29883 -0.008,-0.48009 -0.0608,-0.88316 0.48242,-1.05469 l 0.19141,0.0293 c 0.086,0.20305 0.18156,0.40836 0.24804,0.61914 0.092,0.11566 0.34884,0.19233 0.48633,0.20508 0.72091,-0.0226 0.29232,-1.23828 0.47852,-1.60352 0.12998,-0.25507 0.39831,-0.44257 0.4707,-0.72461 l 0.0527,-0.20703 c 0,-0.55452 -0.43563,-1.02833 -0.43359,-1.66992 l -0.14258,-0.17578 c -0.22331,-0.0418 -0.85033,0.0344 -0.97461,-0.15039 -0.39746,-0.59049 -0.72761,-1.16871 -0.0898,-1.78516 -0.0174,-0.0838 0.0524,-0.30153 0.0703,-0.39258 -0.0259,-0.23447 -0.24366,-0.57221 -0.44922,-0.68945 -0.11882,-0.73219 0.90484,-2.21569 -0.7207,-2.33008 -0.11906,-0.0822 -0.20684,-0.33077 -0.22461,-0.46484 l -0.22461,-0.0703 c -0.14273,0.0599 -0.529,0.31787 -0.65625,0.30273 -0.22104,-0.0957 -0.45693,-0.33699 -0.70117,-0.33789 -0.58844,-0.36138 0.32549,-1.55404 -0.83203,-2.42383 -1.81447,-1.36353 -0.89128,-1.98156 -1.31446,-3.64648 l -0.16211,-0.20508 c -1.15685,-0.34441 -1.70136,-0.84948 -1.45507,-2.18945 -0.10358,-0.40928 -0.32878,-0.54546 -0.48243,-0.89454 -0.29479,-0.67049 0.0241,-1.50531 -0.28906,-2.16601 -0.10494,-0.111657 -0.47598,-0.466187 -0.68359,-0.47461 l -0.17578,0.07422 c -0.69883,-0.475296 -0.20632,-1.310134 0.11328,-1.826172 0.81266,-1.312096 -1.3916,-1.331681 -1.51953,-2.183594 l 0.0898,-0.228515 0.26367,-0.1875 0.11914,-0.298828 c -0.0435,-0.488395 -0.61554,-0.951514 -0.97656,-1.195313 l -0.11328,-0.318359 0.0898,-0.289063 c 0.20009,-0.282154 0.73044,-0.0354 0.84766,-0.646484 -0.0685,-0.325523 -0.54123,-0.691293 -0.84375,-0.800781 -0.19396,0.08381 -0.65893,0.205736 -0.87109,0.117187 -0.58161,-0.648762 0.6437,-1.169517 0.39648,-1.748047 l -0.21289,-0.183594 c -0.0934,-9.32e-4 -0.36184,-0.03752 -0.41602,-0.132812 l -0.0312,-0.144531 0.11133,-0.248047 c 0.47394,-0.07388 0.98089,0.410822 1.30664,0.201172 0.41133,-0.391538 0.19993,-1.132529 -0.0684,-1.517578 0.13679,-1.062485 -0.61963,-1.468538 -0.29297,-2.189454 0.70772,-1.560666 -0.16169,-1.206832 -0.0488,-1.880859 0.10403,-0.621562 0.54677,-0.625292 0.68359,-1.046875 0.068,-0.209763 0.29956,-0.884006 0.1582,-1.083984 -0.10171,-0.08134 -0.42686,-0.386518 -0.41797,-0.535157 0.0645,-0.111768 0.1149,-0.339892 0.0684,-0.466797 -0.31846,-0.118482 -0.50901,-0.454742 -0.83203,-0.564453 -0.30753,-0.713641 -0.75296,-0.638055 -1.41015,-0.695312 -0.25654,-0.09404 -0.21025,-0.526835 -0.49024,-0.607422 -0.15572,0.01238 -0.38745,0.05755 -0.51562,0.15625 l -0.0996,-0.01953 -0.13477,-0.216797 0.0195,-0.238281 0.23243,-0.216797 c 0.0632,-0.209528 0.004,-0.363141 -0.0117,-0.56836 -0.29387,-0.360111 -1.18569,-0.179704 -1.60157,-0.365234 -0.10311,-0.09794 -0.26444,-0.31427 -0.27539,-0.464844 l 0.11914,-0.269531 c 0.18827,0.01514 0.82012,0.03255 0.98243,-0.08594 l 0.10937,-0.248046 c -0.007,-0.103122 -0.14028,-0.238738 -0.21289,-0.298828 L 217.74117,75.66 c -0.23218,0.152967 -0.58257,0.28639 -0.85938,0.208985 -0.0835,-0.0657 -0.1421,-0.192843 -0.15234,-0.296875 10e-4,-0.305823 0.36584,-0.504913 0.38086,-0.81836 -0.19417,-0.32279 0.0254,-0.599319 -0.0645,-0.910156 -0.093,-0.322329 -0.49077,-0.699406 -0.28907,-1.072266 0.12428,-0.05465 0.24564,-0.2331 0.29297,-0.353515 l -0.0117,-0.175781 -0.12109,-0.132813 c -0.1484,0.0051 -0.40195,-0.04961 -0.51758,-0.152344 -0.28614,-0.246417 0.0198,-0.927728 0.16602,-1.183593 0.43592,-0.763026 -0.0566,-0.841493 0.19531,-1.503907 -0.14659,-0.05833 -0.3216,-0.209954 -0.39649,-0.349609 -1.39859,-0.164009 -0.88813,-0.298659 -1.95117,-0.792969 -0.64967,-0.302068 -0.94691,-0.0641 -1.53125,-0.662109 -0.26906,-0.0922 -1.03631,0.235958 -1.47656,0.197265 -0.80901,0.618706 -0.97216,0.678836 -1.95508,0.541016 -2.03643,-0.285348 -1.05708,-0.384092 -2.17773,-1.226563 -0.23628,-0.03765 -0.57722,-0.133685 -0.81055,-0.128906 -7.39972,0.152856 -14.76371,0.588113 -22.16797,0.648438 l -2.99609,0.02734 c -1.96268,0.01187 -3.93305,-0.49374 -5.92188,-0.414063 -1.9515,0.07808 -3.97227,0.301445 -5.91992,0.287109 -6.09809,-0.04482 -12.24664,-0.1812 -18.3164,-0.169922 l -6.47657,0.01172 c -0.90383,10e-4 -1.86564,0.0901 -2.77343,0.136719 -1.40259,0.07226 -2.80572,0.161486 -4.20899,0.216797 -1.50512,0.05915 -3.1814,-0.209852 -4.64453,-0.0098 -0.56305,0.07706 -1.3561,0.446345 -1.91016,0.628907 -0.68289,0.224797 -2.04992,0.829162 -2.66796,0.683593 -1.2571,-0.296153 -2.52112,-0.647643 -3.78907,-0.892578 -0.2851,-0.05506 -1.52633,0.499274 -2.22461,0.484375 -2.48736,-0.05291 -4.76046,-0.365063 -7.19922,-0.847656 -0.54986,-0.108811 -2.30693,0.515867 -2.80078,0.310547 -0.81995,-0.34077 -1.54944,-0.914386 -2.39453,-1.240235 -0.7536,0.681651 -1.26782,0.14286 -2.01367,0.111328 -0.7472,-0.03151 -1.56556,0.06192 -2.31641,0.0918 -0.50944,0.502394 -1.13982,0.633467 -1.79882,0.8125 l -2.28321,-1.912109 -0.002,0 z m -46.285156,3.849609 c -0.13328,0.01862 -1.21407,1.036492 -1.40039,1.263672 -0.14443,0.08934 -0.42365,0.108159 -0.58594,0.0918 -0.12155,0.172779 -0.44413,0.358624 -0.66015,0.351563 l 0.42578,0.65039 -0.34375,0.248047 0.15234,0.103516 c 0.22523,-0.06079 0.58963,-0.01262 0.79883,0.08398 0.42101,-0.154002 0.58922,-0.598728 1.08399,-0.71289 l 0.0605,-0.123047 c -0.19759,-0.235367 -0.37218,-0.47722 -0.18359,-0.765625 0.22822,-0.110295 1.04345,-0.679046 1.0332,-0.939454 l -0.0508,-0.146484 -0.33008,-0.105469 z m 0.67383,1.316407 -0.45508,0.267578 0.0996,0.07227 c 0.13681,9.31e-4 0.38958,-0.06574 0.42578,-0.226562 l -0.0703,-0.113281 z m -7.29297,1.033203 c -0.42274,0.03542 -0.88868,0.407142 -1.25,0.501953 -0.29651,0.07788 -0.78237,-0.09011 -1.02343,0.175781 l -0.0898,0.175781 0.10156,0.154297 0.39453,-0.03125 0.33399,0.228516 c 0.19145,0.0784 0.69867,-0.246852 1.04297,-0.216797 0.13977,-0.229799 0.51617,-0.461329 0.76953,-0.527344 l 0.14062,-0.216797 -0.24218,-0.236328 c -0.0583,-0.01044 -0.11736,-0.01309 -0.17774,-0.0078 z m 5.94727,0.06055 -0.24414,0.02148 c -0.0645,0.104032 -0.23977,0.302672 -0.37305,0.320312 l -0.041,0.103516 0.0801,0.0918 c 0.17413,-0.04502 0.56108,-0.22089 0.62891,-0.412109 l -0.0508,-0.125 z m -5.12305,0.0078 -0.20117,0.08398 c -0.018,0.133165 -0.12404,0.377579 -0.25391,0.44336 l -0.0195,0.123047 0.11133,0.125 0.12109,0 c 0.10709,-0.07941 0.45285,-0.39095 0.43555,-0.546875 l -0.19336,-0.228516 z m 2.10547,0.425781 -0.0898,0.07227 -0.0117,0.175781 0.0918,0.05078 0.32422,-0.05078 0.0918,-0.123047 -0.0625,-0.08398 -0.34375,-0.04102 z m -2.70117,0.28711 c -0.22354,0.0031 -0.37827,0.196703 -0.44531,0.392578 l 0.0684,0.09375 0.36523,-0.175781 0.0605,-0.144532 -0.0488,-0.166015 z m 3.41992,0.02344 c -0.41965,0.03325 -1.17894,0.282352 -1.4668,0.619141 l -0.041,0.144531 0.0918,0.134766 0.23243,0.01953 c 0.19406,-0.155925 1.17119,-0.673945 1.18359,-0.917969 z m -4.60547,0.658203 c -0.15581,0.0352 -0.62919,0.106798 -0.7793,0.01953 l -0.42578,0.228515 -0.2832,-0.15625 -0.26172,0.03125 -0.16211,0.226563 0.0996,0.144531 c 0.23002,0.101516 0.57651,0.108403 0.82031,0.08398 0.16047,-0.184272 0.75743,-0.220917 0.97266,-0.207031 l 0.0898,-0.205078 -0.0703,-0.166016 z m 1.97461,0.197266 -0.23437,0.0098 -0.32422,0.257812 0.0527,0.1875 0.50586,-0.123047 c 0.0451,-0.0922 0.0514,-0.240525 0,-0.332031 z m -6.75195,0.429687 -0.50586,0.248047 c -0.57251,-0.293769 -0.93551,0.194509 -1.46875,0.132813 l -0.20313,0.154297 c 0.0988,0.171634 1.56043,0.827256 1.80274,0.673828 0.22389,-0.278623 0.63112,-0.672817 0.76953,-0.992188 l -0.13086,-0.175781 -0.26367,-0.04102 z m 26.71094,122.646485 c -0.0174,0.006 -0.0495,0.0113 -0.0801,0.0195 -0.0302,0.008 -0.0615,0.0186 -0.0742,0.0312 -0.45254,0.44889 -1.03786,0.79393 -1.45899,1.22461 -0.31447,0.32174 -0.45909,0.67888 -0.84961,1.09179 -0.13017,0.13764 -0.28799,0.28264 -0.48828,0.4336 l -0.0586,0.24609 0.0605,0.15625 0.0918,0.0195 c 0.17696,-0.25521 0.46758,-0.55814 0.74024,-0.85937 0.13632,-0.15057 0.26893,-0.29941 0.3789,-0.44336 0.10994,-0.14391 0.19795,-0.28295 0.24805,-0.4082 0.18164,-0.0687 0.40422,-0.22278 0.51758,-0.38282 l 0.26562,-0.043 c 0.0771,-0.0695 0.14986,-0.14494 0.22266,-0.22265 0.0729,-0.0779 0.14385,-0.15751 0.21289,-0.24024 0.13785,-0.16506 0.26956,-0.33536 0.39453,-0.5 l -0.12304,-0.12304 z m -5.92969,6.63281 -0.18164,0.0742 c -0.0445,0.093 -0.14764,0.2698 -0.26758,0.42969 -0.06,0.0799 -0.12382,0.15422 -0.1875,0.21289 -0.0319,0.0292 -0.0647,0.0551 -0.0957,0.0742 -0.0306,0.019 -0.0616,0.0332 -0.0899,0.0391 -0.006,0.0496 -0.0204,0.10356 -0.041,0.16015 -0.0407,0.11327 -0.10467,0.23261 -0.17774,0.32813 -0.0367,0.0478 -0.0745,0.0893 -0.11328,0.12109 l -0.0215,0.14649 0.10351,0.16406 0.20508,0.0703 0.66016,-0.22851 -0.0215,-0.11328 c -0.048,0.0122 -0.16101,0.033 -0.27344,0.041 0,0 -0.002,0 -0.002,0 -0.11246,0.008 -0.2231,0.002 -0.26367,-0.0391 l 0.0293,-0.10352 0.4082,-0.0527 c 0.14807,-0.10222 0.35285,-0.6924 0.4043,-0.85938 l -0.0742,-0.46484 z m 0.33203,1.16602 -0.10352,0.0215 -0.0586,0.13281 0.082,0.13477 0.18164,0.0508 0.25977,-0.15234 0.0137,-0.0879 -0.2832,0.0645 -0.0918,-0.16406 z m -3.35938,1.95898 -0.0547,0.002 -0.27539,0.29297 0.0371,0.14258 0.13476,0.006 0.084,-0.0664 0.0742,-0.37695 z"
     id="rect6"
     inkscape:connector-curvature="0" />
  <g
     id="g8"
     transform="matrix(2,0,0,2,-176.83897,14.000029)"
     style="fill:#f9d616">
    <path
       d="m 231.115,91.82 a 58.5,58.5 0 1 1 -43.199,103.424 l -8.558,10.441 A 72,72 0 1 0 232.526,78.394 Z"
       id="path10"
       inkscape:connector-curvature="0" />
    <g
       id="s3">
      <path
         id="s"
         d="m 302.62435,142.35494 c 0.50081,5.08459 0.50081,10.20607 0,15.29066 l -14.92776,-1.47026 c 0.40447,-4.10679 0.40447,-8.24338 0,-12.35016 z"
         inkscape:connector-curvature="0" />
      <use
         xlink:href="#s"
         transform="matrix(0.92387953,0.38268343,-0.38268343,0.92387953,74.52962,-74.685702)"
         id="use14"
         x="0"
         y="0"
         width="100%"
         height="100%" />
      <use
         xlink:href="#s"
         transform="matrix(0.70710678,0.70710678,-0.70710678,0.70710678,171.96699,-115.16504)"
         id="use16"
         x="0"
         y="0"
         width="100%"
         height="100%" />
    </g>
    <use
       xlink:href="#s3"
       transform="matrix(0.38268343,-0.92387953,0.92387953,0.38268343,0.31429784,300.47038)"
       id="use18"
       x="0"
       y="0"
       width="100%"
       height="100%" />
    <use
       xlink:href="#s3"
       transform="matrix(0.38268343,0.92387953,-0.92387953,0.38268343,277.47816,-115.27541)"
       id="use20"
       x="0"
       y="0"
       width="100%"
       height="100%" />
    <path
       d="m 199.32444,114.65618 51.35107,0 -41.54301,30.18415 15.86748,-48.840002 15.86748,48.840002 z"
       id="path22"
       inkscape:connector-curvature="0" />
    <path
       d="m 287.87869,216.3146 c 3.83825,3.71431 9.0066,7.37578 12.75511,10.70256 3.74851,3.32676 6.62054,6.09242 8.94528,9.87168 3.40716,5.53889 -0.41885,11.81196 -5.72422,8.12988 -2.86905,-1.99121 -4.67179,-7.36658 -9.06698,-11.81477 -3.25536,-2.77128 -5.82024,-5.6765 -14.00237,-7.07825 -0.39283,-0.0673 -0.50774,-0.89728 -0.19886,-1.25952 z"
       id="path24"
       inkscape:connector-curvature="0" />
    <path
       d="m 231.36058,197.84505 20.24733,11.97235 4.40158,17.07818 23.24042,-1.76064 10.21171,-11.97232 -37.85371,-26.23352 -20.24733,10.91595 z"
       id="path26"
       inkscape:connector-curvature="0"
       style="fill:#000000" />
    <path
       d="m 279.66324,223.6894 c -26.03525,-17.31401 -42.59086,-26.66318 -67.54193,-40.85002 -9.80157,-5.57304 -25.02281,-19.58191 -13.01611,-43.02024 0.75586,15.38724 61.56874,57.62316 87.2651,75.98765 z"
       id="path28"
       inkscape:connector-curvature="0" />
    <path
       d="m 216.08561,167.51949 c 20.04576,18.89085 45.29004,34.30178 67.812,51.33547"
       id="path30"
       inkscape:connector-curvature="0"
       style="fill:none;stroke:#000000;stroke-width:1.5;stroke-linecap:round" />
    <circle
       id="c"
       cx="290.39999"
       cy="222.297"
       r="1.008"
       style="fill:#000000" />
    <use
       xlink:href="#c"
       x="7.41957"
       y="6.4655991"
       id="use33"
       width="100%"
       height="100%" />
    <use
       xlink:href="#c"
       x="13.93812"
       y="13.090317"
       id="use35"
       width="100%"
       height="100%" />
  </g>
</svg>
