<?xml version="1.0" encoding="UTF-8" ?>
<!DOCTYPE svg PUBLIC "-//W3C//DTD SVG 1.1//EN" "http://www.w3.org/Graphics/SVG/1.1/DTD/svg11.dtd">
<svg width="725pt" height="339pt" viewBox="0 0 725 339" version="1.1" xmlns="http://www.w3.org/2000/svg">
<g id="#00247dff">
<path fill="#00247d" opacity="1.00" d=" M 668.87 16.02 C 671.08 13.70 673.36 10.45 677.05 11.20 C 679.69 10.53 681.29 12.61 683.07 14.12 C 686.91 14.17 690.76 15.00 694.59 14.38 C 696.35 14.26 696.97 12.45 697.83 11.20 C 699.24 11.38 700.66 11.56 702.08 11.75 C 702.15 12.35 702.28 13.55 702.35 14.15 C 705.25 14.16 708.15 13.93 711.06 14.10 C 713.20 15.37 712.56 18.21 712.77 20.28 C 715.45 21.77 718.49 21.51 721.44 21.45 C 722.13 22.45 723.10 23.58 722.87 24.90 C 721.22 27.69 718.96 30.46 715.46 30.66 C 713.23 32.72 710.39 33.70 707.38 33.64 C 706.85 34.66 706.34 35.68 705.84 36.70 C 702.73 36.54 700.03 38.05 697.20 39.02 C 695.11 38.61 693.04 38.07 690.92 37.83 C 690.29 38.67 689.67 39.51 689.04 40.36 C 687.82 40.17 686.61 39.99 685.41 39.81 C 684.69 40.97 684.30 42.49 683.00 43.15 C 680.28 43.37 677.56 43.16 674.85 43.25 C 675.13 44.80 675.44 46.35 675.77 47.89 C 672.37 51.72 668.61 55.90 663.37 56.95 C 659.72 58.03 658.90 62.88 655.05 63.63 C 653.48 63.78 652.71 62.20 651.62 61.41 C 649.45 59.01 645.96 59.06 643.11 58.03 C 643.05 56.48 643.01 54.93 642.98 53.38 C 645.40 50.50 647.75 46.50 652.16 47.25 C 652.13 44.02 653.64 40.39 651.57 37.50 C 649.71 34.86 648.47 31.60 649.57 28.37 C 652.23 26.07 655.13 24.03 657.80 21.72 C 661.11 20.92 664.63 21.73 668.03 21.54 C 668.28 19.69 668.46 17.84 668.87 16.02 Z" />
<path fill="#00247d" opacity="1.00" d=" M 35.22 30.26 C 38.09 29.65 41.06 30.23 43.44 31.94 C 42.97 34.33 43.06 36.74 44.52 38.78 C 47.77 36.36 52.10 37.47 55.87 37.11 C 58.75 38.52 61.59 40.03 64.57 41.23 L 64.48 42.37 L 65.76 41.47 L 66.16 43.04 L 66.49 42.22 C 70.82 44.75 75.43 46.75 79.84 49.15 C 64.64 49.13 49.43 49.33 34.23 49.04 C 35.80 47.38 38.26 47.29 39.99 45.93 C 40.92 44.35 41.30 42.49 42.60 41.13 C 39.30 40.86 36.71 38.89 34.48 36.61 C 34.69 34.51 33.61 31.97 35.22 30.26 Z" />
<path fill="#00247d" opacity="1.00" d=" M 625.05 60.84 C 625.72 56.91 628.54 52.99 632.90 52.99 C 637.69 52.09 638.91 58.40 638.52 61.97 C 638.77 64.78 635.15 66.16 635.71 69.02 C 636.23 72.05 637.84 74.97 637.19 78.12 C 635.46 82.30 629.16 81.45 627.63 85.68 C 624.55 91.12 621.33 97.00 615.87 100.38 C 616.05 93.78 616.07 87.18 616.04 80.57 C 608.21 83.66 600.39 87.04 592.04 88.46 C 585.73 89.34 579.34 89.57 572.98 89.65 C 573.81 89.35 574.65 89.05 575.50 88.75 C 577.26 87.08 579.56 86.37 581.87 85.78 C 586.37 82.81 591.85 81.66 596.86 79.64 C 598.83 80.37 600.78 81.72 602.98 81.43 C 605.40 77.53 608.11 73.61 612.11 71.17 C 614.24 70.13 616.72 70.65 619.01 70.26 C 620.57 66.82 622.69 63.76 625.05 60.84 Z" />
<path fill="#00247d" opacity="1.00" d=" M 559.07 86.50 C 561.44 86.29 565.07 85.33 566.18 88.29 C 563.82 87.65 561.46 86.99 559.07 86.50 Z" />
<path fill="#00247d" opacity="1.00" d=" M 466.50 115.45 C 468.50 113.57 470.03 111.25 471.98 109.32 C 472.22 117.16 472.18 125.03 472.79 132.86 C 472.82 133.19 472.86 133.84 472.89 134.16 C 472.90 136.38 473.00 138.60 473.12 140.82 L 473.72 141.51 L 472.56 142.30 L 473.64 142.60 C 473.77 146.76 473.96 150.92 474.32 155.07 C 474.45 155.51 474.71 156.37 474.85 156.80 C 474.99 159.23 475.31 161.64 475.56 164.07 C 475.60 164.46 475.68 165.23 475.72 165.62 C 476.54 170.44 477.36 175.25 478.37 180.03 C 478.47 180.46 478.67 181.33 478.78 181.77 C 480.81 190.24 483.44 198.62 487.47 206.38 C 487.65 206.91 488.02 207.97 488.20 208.50 L 489.59 208.66 L 488.51 210.44 L 490.52 209.87 L 489.15 211.36 L 491.25 211.27 L 489.91 212.64 L 490.97 212.48 C 491.41 213.15 492.28 214.49 492.71 215.15 L 492.06 215.82 L 493.49 215.24 L 492.74 216.67 L 494.31 216.63 L 493.96 217.81 L 495.09 218.05 L 495.06 218.68 C 495.69 219.51 496.32 220.35 496.94 221.21 C 496.92 222.73 495.09 222.78 494.09 223.36 C 492.39 223.84 491.31 225.30 489.92 226.28 C 487.36 226.71 484.79 226.12 482.25 225.94 C 481.43 226.89 480.62 227.85 479.81 228.81 C 478.87 227.78 477.96 226.75 477.04 225.73 C 475.26 228.51 472.71 230.60 469.81 232.14 C 469.77 234.07 469.76 236.01 469.79 237.95 C 468.18 238.94 466.41 239.54 464.53 239.63 C 463.40 240.75 462.28 241.88 461.18 243.02 C 457.77 241.60 454.21 243.05 450.72 243.13 C 450.36 243.96 450.00 244.79 449.66 245.63 C 445.51 246.18 441.32 246.03 437.16 245.93 C 436.05 247.48 435.31 249.56 433.42 250.33 C 430.35 251.62 427.51 253.40 424.36 254.51 C 421.52 256.25 420.57 259.71 420.04 262.81 C 417.89 266.69 413.61 269.08 412.37 273.51 C 411.06 277.11 406.29 275.09 403.65 274.38 C 401.81 276.15 399.87 277.91 397.26 278.36 C 395.17 280.61 392.89 282.83 390.09 284.15 C 386.46 284.87 382.62 283.94 379.08 285.18 C 377.05 285.86 375.55 287.46 374.13 288.97 C 370.41 289.13 366.70 288.82 362.99 288.74 C 360.89 288.10 361.15 290.76 360.57 291.93 C 360.02 291.95 358.92 291.98 358.37 292.00 C 358.15 288.85 354.58 289.46 353.07 287.56 C 352.24 283.66 355.25 280.30 354.74 276.39 C 352.30 275.27 349.78 274.25 347.06 274.21 C 343.77 274.11 340.86 271.29 337.49 272.47 C 333.59 274.47 329.55 276.26 325.96 278.82 C 321.98 281.50 316.59 281.64 313.27 285.37 C 311.69 286.82 311.97 289.19 311.48 291.11 C 310.34 291.15 309.20 291.18 308.07 291.22 C 307.78 290.64 307.20 289.50 306.91 288.92 C 303.56 288.06 300.24 286.61 296.74 286.70 C 294.57 287.76 292.73 289.39 291.15 291.20 C 289.83 292.54 290.31 294.73 289.19 296.17 C 287.71 297.04 285.83 297.24 284.55 298.43 C 283.33 300.38 283.89 302.83 283.95 305.00 C 282.62 305.00 281.28 305.02 279.95 305.04 C 278.82 302.99 278.54 300.62 277.58 298.52 C 276.51 297.63 275.23 297.06 274.04 296.38 C 271.40 299.81 267.62 302.06 263.88 304.09 C 261.35 304.41 258.80 303.98 256.28 303.91 C 256.14 303.29 255.85 302.06 255.71 301.45 C 253.63 301.16 251.55 300.87 249.48 300.54 C 248.90 299.29 248.48 297.81 246.96 297.42 C 245.76 298.29 245.33 299.72 244.81 301.04 C 242.07 301.27 239.32 301.29 236.57 301.32 C 234.59 302.80 232.43 304.10 229.92 304.31 C 227.47 304.56 225.97 306.79 223.84 307.75 C 221.31 308.41 218.70 307.74 216.18 307.39 C 216.10 311.12 219.03 314.28 217.26 318.03 C 215.51 318.01 213.77 318.00 212.03 317.98 C 211.08 315.44 209.08 313.70 207.04 312.06 C 206.89 310.13 207.38 308.25 207.72 306.38 C 210.59 305.78 213.38 304.87 216.16 303.94 C 215.93 302.52 215.68 301.10 215.42 299.68 C 219.72 297.74 222.64 294.05 226.04 290.96 C 232.02 286.89 235.43 280.24 241.05 275.75 C 244.22 275.67 247.44 276.00 250.58 275.44 C 253.37 275.02 254.42 271.98 256.73 270.74 C 259.23 269.24 262.53 268.81 264.25 266.23 C 267.04 262.51 270.27 258.56 275.06 257.51 C 275.98 258.08 276.92 258.64 277.87 259.20 C 281.12 256.18 285.32 254.53 288.83 251.84 C 288.90 251.23 289.05 250.01 289.12 249.41 C 290.01 248.88 290.87 248.32 291.71 247.72 C 291.49 245.43 291.04 243.17 290.80 240.89 C 292.59 239.55 294.65 238.67 296.71 237.83 C 299.07 237.01 300.45 234.79 302.38 233.35 C 307.75 232.46 313.53 235.55 318.55 232.66 C 321.46 231.09 324.54 229.30 328.00 230.12 C 331.88 230.04 335.73 234.43 339.34 231.35 C 342.19 228.70 346.18 228.84 349.71 227.82 C 353.36 226.62 357.24 228.00 360.93 227.03 C 365.24 226.00 369.69 226.00 374.09 225.98 C 376.14 226.14 379.51 224.57 377.86 222.13 C 373.35 221.96 368.84 222.37 364.34 222.16 C 364.45 216.78 369.66 213.50 374.39 212.42 C 373.65 210.96 372.32 208.57 374.12 207.32 C 377.27 205.17 380.23 202.73 382.36 199.53 C 385.28 198.59 387.55 196.48 390.21 195.06 C 393.61 193.91 397.24 194.00 400.79 193.95 C 402.18 192.30 403.67 190.51 406.07 190.66 C 409.59 190.87 411.78 185.13 415.31 187.71 C 417.72 189.67 421.23 189.30 423.83 187.91 C 425.56 185.78 426.82 183.10 429.75 182.38 C 430.38 176.85 427.14 171.98 426.38 166.64 C 424.50 163.64 426.08 159.27 423.03 157.01 C 422.22 156.34 421.40 155.69 420.57 155.06 C 418.65 154.87 416.20 155.65 415.06 153.59 C 414.87 152.21 414.88 150.80 415.05 149.42 C 417.37 146.79 421.46 147.30 424.03 145.04 C 425.09 143.58 425.07 141.61 426.08 140.11 C 427.38 139.06 429.21 139.13 430.72 138.49 C 431.56 137.60 431.55 136.22 432.00 135.13 C 433.37 134.35 434.75 133.58 436.13 132.81 C 440.09 134.37 443.31 131.36 445.12 128.13 C 447.26 124.24 451.30 120.78 456.03 121.64 C 459.01 122.36 459.38 118.76 460.35 116.85 C 462.40 116.42 464.62 116.45 466.50 115.45 Z" />
<path fill="#00247d" opacity="1.00" d=" M 236.00 321.01 C 238.86 321.02 241.73 320.84 244.59 321.09 C 246.79 322.29 245.79 324.98 246.05 327.00 C 242.70 327.00 239.35 327.00 236.00 327.00 C 236.00 325.00 236.00 323.00 236.00 321.01 Z" />
</g>
<g id="#cf142bff">
<path fill="#cf142b" opacity="1.00" d=" M 86.95 34.06 C 88.40 34.02 89.85 33.98 91.31 33.95 C 91.88 35.88 92.02 37.89 91.97 39.90 C 90.71 39.91 89.44 39.93 88.18 39.95 C 86.73 38.30 87.00 36.09 86.95 34.06 Z" />
<path fill="#cf142b" opacity="1.00" d=" M 79.14 42.12 C 80.91 41.13 82.88 39.71 85.05 40.37 C 88.72 41.14 92.58 40.78 96.12 42.17 C 96.09 44.63 95.69 47.06 95.11 49.45 C 93.31 48.87 91.52 48.25 89.73 47.64 L 89.84 47.19 C 88.11 46.43 86.39 45.66 84.67 44.88 L 84.50 44.54 C 82.91 43.81 81.33 43.08 79.72 42.38 L 79.14 42.12 Z" />
<path fill="#cf142b" opacity="1.00" d=" M 38.30 61.37 C 49.60 61.15 60.90 61.45 72.20 61.20 C 70.56 61.91 68.85 62.50 67.31 63.42 C 66.77 65.23 66.68 67.19 65.79 68.88 C 62.27 69.48 58.59 69.04 55.02 68.90 C 53.67 68.92 53.17 67.35 52.28 66.59 C 49.59 66.65 47.27 65.44 45.57 63.40 C 42.96 63.49 40.20 63.41 38.30 61.37 Z" />
<path fill="#cf142b" opacity="1.00" d=" M 179.67 69.81 C 183.49 71.85 187.73 70.44 190.86 67.84 C 192.38 69.91 194.76 70.43 197.19 70.52 C 199.05 74.08 203.62 72.35 206.31 74.78 C 208.65 76.66 211.74 76.10 214.50 75.93 C 213.13 74.73 211.57 73.79 209.99 72.91 C 210.90 69.96 214.40 70.29 216.86 70.22 C 218.00 70.34 220.04 71.46 219.02 72.85 C 217.65 74.11 216.13 75.19 214.74 76.42 C 215.65 77.32 216.56 78.23 217.48 79.13 C 218.94 75.78 222.74 76.12 225.71 76.78 C 226.14 79.07 228.53 79.99 229.37 82.00 C 229.53 85.24 228.62 88.47 227.48 91.47 C 223.48 92.57 219.17 92.16 215.05 92.36 C 213.21 90.26 212.22 87.59 210.43 85.47 C 208.39 84.25 206.34 83.01 204.16 82.06 C 202.03 83.02 200.64 85.71 197.97 85.29 C 196.41 84.57 195.23 83.21 193.64 82.57 C 190.75 81.95 186.97 82.40 185.71 79.04 C 183.46 78.98 181.24 79.34 179.11 80.07 C 178.59 76.65 175.41 72.00 179.67 69.81 Z" />
<path fill="#cf142b" opacity="1.00" d=" M 265.43 70.59 C 268.94 69.02 274.78 70.54 275.00 75.01 C 274.43 81.28 263.90 81.72 262.10 75.94 C 261.53 73.57 263.27 71.35 265.43 70.59 Z" />
<path fill="#cf142b" opacity="1.00" d=" M 248.96 97.75 C 248.80 95.30 249.40 92.74 252.04 91.96 C 255.12 91.87 256.41 95.10 256.04 97.74 C 253.68 97.71 251.32 97.71 248.96 97.75 Z" />
</g>
<g id="#ffffffff">
<path fill="#ffffff" opacity="1.00" d=" M 55.87 37.11 C 58.48 37.22 61.58 36.31 63.68 38.33 C 65.51 40.03 67.92 40.61 70.37 40.60 C 71.54 41.90 72.83 43.10 74.23 44.17 C 76.08 43.66 77.86 42.84 79.72 42.38 C 81.33 43.08 82.91 43.81 84.50 44.54 L 84.67 44.88 C 86.39 45.66 88.11 46.43 89.84 47.19 L 89.73 47.64 C 91.52 48.25 93.31 48.87 95.11 49.45 C 93.55 50.20 91.93 50.83 90.24 51.23 C 86.82 52.10 84.22 54.72 80.82 55.65 C 79.00 56.24 79.25 59.42 76.94 59.27 C 75.18 59.42 73.44 59.85 72.20 61.20 C 60.90 61.45 49.60 61.15 38.30 61.37 C 38.23 59.65 37.87 57.98 37.27 56.38 C 33.14 56.04 34.58 51.84 34.23 49.04 C 49.43 49.33 64.64 49.13 79.84 49.15 C 75.43 46.75 70.82 44.75 66.49 42.22 L 66.16 43.04 L 65.76 41.47 L 64.48 42.37 L 64.57 41.23 C 61.59 40.03 58.75 38.52 55.87 37.11 Z" />
<path fill="#ffffff" opacity="1.00" d=" M 9.39 52.06 C 10.30 51.39 11.22 50.72 12.16 50.07 C 13.21 51.33 14.29 52.55 15.37 53.78 C 16.21 54.12 17.06 54.45 17.90 54.79 C 17.87 56.28 17.85 57.78 17.82 59.27 C 15.04 59.63 12.42 60.90 9.56 60.66 C 9.49 57.80 9.53 54.93 9.39 52.06 Z" />
<path fill="#ffffff" opacity="1.00" d=" M 202.12 54.13 C 204.38 53.32 206.68 55.76 205.88 57.99 C 205.23 60.03 202.76 59.34 201.15 59.44 C 199.15 58.08 200.43 55.11 202.12 54.13 Z" />
<path fill="#ffffff" opacity="1.00" d=" M 605.89 88.90 C 608.19 87.83 610.50 86.79 612.83 85.77 C 612.78 91.16 612.76 96.55 612.67 101.94 C 611.16 101.98 609.65 102.02 608.15 102.06 C 606.72 104.65 606.34 107.93 603.94 109.89 C 602.59 111.21 600.77 111.81 599.23 112.83 C 599.18 114.95 597.97 118.16 600.48 119.29 C 603.16 120.50 606.90 119.46 608.82 122.19 C 612.12 126.95 610.43 134.40 605.75 137.67 C 603.47 138.57 599.34 138.61 599.30 141.91 C 599.42 146.89 599.50 151.91 597.65 156.65 C 596.37 156.10 595.10 155.57 593.82 155.05 C 590.86 152.98 588.94 149.88 587.08 146.87 C 586.84 146.62 586.36 146.11 586.12 145.86 C 585.81 145.29 585.20 144.15 584.90 143.58 L 583.89 143.85 L 584.27 143.18 C 583.96 142.76 583.34 141.94 583.03 141.52 L 582.74 141.58 C 579.46 137.95 574.90 136.01 570.33 134.57 C 569.65 135.04 568.98 135.51 568.32 135.98 L 570.56 136.78 C 569.69 137.61 568.81 138.44 567.94 139.27 C 567.45 138.60 566.97 137.94 566.49 137.28 C 566.83 136.29 567.18 135.30 567.53 134.32 C 560.14 135.56 555.21 128.92 548.44 127.55 C 547.59 127.30 546.77 127.35 545.97 127.73 C 546.42 128.95 546.99 130.13 547.55 131.32 C 547.79 131.61 548.26 132.19 548.50 132.49 C 550.25 134.81 552.13 137.03 554.25 139.03 C 554.88 139.78 555.52 140.53 556.16 141.28 L 556.87 140.97 L 556.72 141.74 C 558.96 143.71 561.08 145.83 563.02 148.10 C 562.48 148.54 561.40 149.43 560.86 149.87 C 558.93 152.48 558.91 155.76 558.82 158.87 C 559.45 158.42 560.69 157.52 561.32 157.07 L 561.26 156.55 C 563.57 154.63 566.25 151.39 569.61 153.03 C 575.79 158.96 573.96 168.79 570.78 175.82 C 570.44 176.37 569.77 177.46 569.44 178.01 C 564.47 178.09 558.56 178.21 555.27 173.79 C 553.59 179.02 548.01 180.93 545.11 185.23 C 542.85 189.21 546.15 193.63 544.64 197.73 C 542.49 201.02 538.14 199.86 534.96 200.82 C 533.16 202.87 530.88 204.14 528.17 204.46 C 526.42 206.59 523.89 207.00 521.28 207.07 C 511.45 207.66 501.60 207.08 491.76 207.39 C 489.92 204.64 488.56 201.63 487.13 198.66 L 487.69 197.77 L 486.69 197.49 C 484.99 191.75 483.18 186.05 481.69 180.26 C 478.97 171.12 477.25 161.66 476.91 152.12 C 475.36 137.40 476.06 122.57 475.86 107.79 C 478.14 107.76 480.60 108.01 482.53 106.53 C 485.29 104.61 488.85 105.36 491.85 104.10 C 496.01 102.04 499.90 99.55 503.64 96.81 C 506.03 95.82 507.57 92.90 510.36 93.08 C 512.11 93.17 513.88 93.23 515.63 92.92 C 518.06 95.06 519.08 99.77 523.01 99.40 C 521.93 103.28 522.51 107.46 521.26 111.27 C 517.93 117.45 513.32 123.57 513.61 130.97 C 513.41 136.05 516.32 140.38 517.83 145.04 C 518.07 150.19 516.30 155.72 518.88 160.56 C 520.79 159.18 522.02 157.13 523.22 155.14 C 523.50 154.57 524.05 153.42 524.33 152.84 L 523.64 152.25 L 525.31 152.22 L 524.82 151.14 C 526.84 146.50 528.22 141.62 530.15 136.95 C 534.41 138.22 538.78 137.47 542.49 135.01 C 539.01 133.78 534.50 133.84 532.12 130.63 C 531.01 127.51 533.77 124.83 535.85 122.90 C 542.53 117.64 551.81 116.25 559.99 118.07 C 567.50 119.81 569.65 128.47 576.33 131.59 C 576.69 125.57 570.99 122.28 568.69 117.33 C 572.70 114.27 578.45 114.22 581.65 110.04 C 578.06 109.31 574.42 109.92 571.09 111.35 C 557.22 116.30 544.67 102.82 530.75 106.20 C 528.46 103.84 527.24 100.77 527.00 97.52 C 529.17 96.66 531.46 95.96 533.40 94.60 C 537.39 91.80 542.33 91.00 546.64 88.83 C 547.55 87.79 548.77 87.10 550.14 86.86 C 551.49 87.46 552.84 88.11 554.20 88.74 C 558.76 90.27 563.41 91.60 568.20 92.22 L 569.02 92.35 C 580.71 94.30 592.88 93.61 604.08 89.54 C 604.53 89.38 605.43 89.06 605.89 88.90 M 499.74 146.35 C 494.81 145.22 491.86 140.26 486.74 139.62 C 487.06 144.63 492.32 146.49 495.33 149.70 C 503.91 159.03 499.75 174.41 509.30 183.13 C 508.21 187.17 504.87 189.85 501.41 191.85 C 506.90 195.02 512.47 190.55 517.42 188.47 C 524.19 187.52 531.38 188.63 537.78 185.67 C 543.00 183.63 546.51 179.10 549.78 174.78 C 552.88 171.59 557.64 170.87 561.04 168.03 C 562.16 166.99 564.32 166.16 563.87 164.31 C 554.77 163.09 545.91 166.37 537.05 167.90 C 536.35 166.00 535.92 163.93 534.63 162.33 C 532.93 160.80 530.82 159.86 528.87 158.71 C 529.94 161.91 531.64 165.35 530.74 168.78 C 529.38 171.85 525.53 170.95 522.90 170.73 C 515.33 168.89 509.28 162.93 505.88 156.10 C 503.78 152.06 503.75 147.00 506.05 143.04 C 507.80 139.99 508.09 136.43 508.64 133.03 C 502.93 135.26 502.98 142.02 499.74 146.35 Z" />
<path fill="#ffffff" opacity="1.00" d=" M 248.96 97.75 C 251.32 97.71 253.68 97.71 256.04 97.74 C 254.92 98.81 253.76 100.37 251.99 99.98 C 250.66 99.75 249.91 98.56 248.96 97.75 Z" />
<path fill="#ffffff" opacity="1.00" d=" M 516.30 136.26 C 518.14 134.81 520.28 137.02 518.87 138.84 C 516.91 139.64 515.14 138.26 516.30 136.26 Z" />
<path fill="#ffffff" opacity="1.00" d=" M 590.60 164.46 C 591.25 162.20 593.97 162.36 595.77 161.72 C 594.98 164.57 593.52 167.31 591.24 169.22 C 589.26 170.87 587.68 173.36 584.79 173.25 L 585.34 172.55 C 587.46 170.11 589.28 167.42 590.60 164.46 Z" />
<path fill="#ffffff" opacity="1.00" d=" M 541.99 178.07 C 542.76 177.12 543.41 175.79 544.88 176.01 C 545.67 176.71 545.98 177.57 545.82 178.61 C 544.48 179.80 543.20 178.83 541.99 178.07 Z" />
</g>
<g id="#dfc953fe">
<path fill="#dfc953" opacity="1.00" d=" M 592.04 88.46 C 600.39 87.04 608.21 83.66 616.04 80.57 C 616.07 87.18 616.05 93.78 615.87 100.38 L 615.86 100.61 C 614.79 101.06 613.73 101.50 612.67 101.94 C 612.76 96.55 612.78 91.16 612.83 85.77 C 610.50 86.79 608.19 87.83 605.89 88.90 C 605.43 89.06 604.53 89.38 604.08 89.54 C 592.88 93.61 580.71 94.30 569.02 92.35 C 570.40 91.55 571.74 90.68 572.98 89.65 C 579.34 89.57 585.73 89.34 592.04 88.46 Z" />
<path fill="#dfc953" opacity="1.00" d=" M 550.14 86.86 C 553.08 86.36 556.09 86.37 559.07 86.50 C 561.46 86.99 563.82 87.65 566.18 88.29 C 566.67 89.69 567.42 90.96 568.20 92.22 C 563.41 91.60 558.76 90.27 554.20 88.74 C 552.84 88.11 551.49 87.46 550.14 86.86 Z" />
<path fill="#dfc953" opacity="1.00" d=" M 471.98 109.26 C 473.28 108.80 474.56 108.27 475.86 107.79 C 476.06 122.57 475.36 137.40 476.91 152.12 C 477.25 161.66 478.97 171.12 481.69 180.26 C 483.18 186.05 484.99 191.75 486.69 197.49 L 487.69 197.77 L 487.13 198.66 C 488.56 201.63 489.92 204.64 491.76 207.39 C 492.67 208.69 493.63 209.96 494.57 211.25 C 494.77 211.58 495.17 212.24 495.37 212.57 C 496.72 214.26 498.07 215.96 499.41 217.66 C 498.58 218.84 497.75 220.02 496.94 221.21 C 496.32 220.35 495.69 219.51 495.06 218.68 L 495.09 218.05 L 493.96 217.81 L 494.31 216.63 L 492.74 216.67 L 493.49 215.24 L 492.06 215.82 L 492.71 215.15 C 492.28 214.49 491.41 213.15 490.97 212.48 L 489.91 212.64 L 491.25 211.27 L 489.15 211.36 L 490.52 209.87 L 488.51 210.44 L 489.59 208.66 L 488.20 208.50 C 488.02 207.97 487.65 206.91 487.47 206.38 C 483.44 198.62 480.81 190.24 478.78 181.77 C 478.67 181.33 478.47 180.46 478.37 180.03 C 477.36 175.25 476.54 170.44 475.72 165.62 C 475.68 165.23 475.60 164.46 475.56 164.07 C 475.31 161.64 474.99 159.23 474.85 156.80 C 474.71 156.37 474.45 155.51 474.32 155.07 C 473.96 150.92 473.77 146.76 473.64 142.60 L 472.56 142.30 L 473.72 141.51 L 473.12 140.82 C 473.00 138.60 472.90 136.38 472.89 134.16 C 472.86 133.84 472.82 133.19 472.79 132.86 C 472.18 125.03 472.22 117.16 471.98 109.32 L 471.98 109.26 Z" />
</g>
<g id="#717f5df9">
<path fill="#717f5d" opacity="0.98" d=" M 510.36 93.08 C 510.64 91.18 515.08 91.17 515.63 92.92 C 513.88 93.23 512.11 93.17 510.36 93.08 Z" />
</g>
<g id="#ff9900ff">
<path fill="#ff9900" opacity="1.00" d=" M 523.01 99.40 C 524.30 98.62 525.62 97.90 526.94 97.17 L 527.00 97.52 C 527.24 100.77 528.46 103.84 530.75 106.20 C 544.67 102.82 557.22 116.30 571.09 111.35 C 574.42 109.92 578.06 109.31 581.65 110.04 C 578.45 114.22 572.70 114.27 568.69 117.33 C 570.99 122.28 576.69 125.57 576.33 131.59 C 569.65 128.47 567.50 119.81 559.99 118.07 C 551.81 116.25 542.53 117.64 535.85 122.90 C 533.77 124.83 531.01 127.51 532.12 130.63 C 534.50 133.84 539.01 133.78 542.49 135.01 C 538.78 137.47 534.41 138.22 530.15 136.95 C 528.22 141.62 526.84 146.50 524.82 151.14 L 525.31 152.22 L 523.64 152.25 L 524.33 152.84 C 524.05 153.42 523.50 154.57 523.22 155.14 C 522.02 157.13 520.79 159.18 518.88 160.56 C 516.30 155.72 518.07 150.19 517.83 145.04 C 516.32 140.38 513.41 136.05 513.61 130.97 C 513.32 123.57 517.93 117.45 521.26 111.27 C 522.51 107.46 521.93 103.28 523.01 99.40 M 516.30 136.26 C 515.14 138.26 516.91 139.64 518.87 138.84 C 520.28 137.02 518.14 134.81 516.30 136.26 Z" />
<path fill="#ff9900" opacity="1.00" d=" M 545.97 127.73 C 546.77 127.35 547.59 127.30 548.44 127.55 C 555.21 128.92 560.14 135.56 567.53 134.32 C 567.18 135.30 566.83 136.29 566.49 137.28 C 566.97 137.94 567.45 138.60 567.94 139.27 C 568.81 138.44 569.69 137.61 570.56 136.78 L 568.32 135.98 C 568.98 135.51 569.65 135.04 570.33 134.57 C 574.90 136.01 579.46 137.95 582.74 141.58 L 583.03 141.52 C 583.34 141.94 583.96 142.76 584.27 143.18 L 583.89 143.85 L 584.90 143.58 C 585.20 144.15 585.81 145.29 586.12 145.86 C 586.36 146.11 586.84 146.62 587.08 146.87 C 588.94 149.88 590.86 152.98 593.82 155.05 C 595.10 155.57 596.37 156.10 597.65 156.65 C 596.99 158.32 596.37 160.01 595.80 161.72 L 595.77 161.72 C 593.97 162.36 591.25 162.20 590.60 164.46 C 589.28 167.42 587.46 170.11 585.34 172.55 C 584.85 172.00 583.88 170.91 583.39 170.36 C 581.92 170.88 580.39 171.23 579.02 171.97 C 577.76 173.85 576.93 175.97 575.92 177.99 C 573.75 178.00 571.59 178.00 569.44 178.01 C 569.77 177.46 570.44 176.37 570.78 175.82 C 573.96 168.79 575.79 158.96 569.61 153.03 C 566.25 151.39 563.57 154.63 561.26 156.55 L 561.32 157.07 C 560.69 157.52 559.45 158.42 558.82 158.87 C 558.91 155.76 558.93 152.48 560.86 149.87 C 561.40 149.43 562.48 148.54 563.02 148.10 C 561.08 145.83 558.96 143.71 556.72 141.74 L 556.87 140.97 L 556.16 141.28 C 555.52 140.53 554.88 139.78 554.25 139.03 C 552.13 137.03 550.25 134.81 548.50 132.49 C 548.26 132.19 547.79 131.61 547.55 131.32 C 546.99 130.13 546.42 128.95 545.97 127.73 Z" />
<path fill="#ff9900" opacity="1.00" d=" M 499.74 146.35 C 502.98 142.02 502.93 135.26 508.64 133.03 C 508.09 136.43 507.80 139.99 506.05 143.04 C 503.75 147.00 503.78 152.06 505.88 156.10 C 509.28 162.93 515.33 168.89 522.90 170.73 C 525.53 170.95 529.38 171.85 530.74 168.78 C 531.64 165.35 529.94 161.91 528.87 158.71 C 530.82 159.86 532.93 160.80 534.63 162.33 C 535.92 163.93 536.35 166.00 537.05 167.90 C 545.91 166.37 554.77 163.09 563.87 164.31 C 564.32 166.16 562.16 166.99 561.04 168.03 C 557.64 170.87 552.88 171.59 549.78 174.78 C 546.51 179.10 543.00 183.63 537.78 185.67 C 531.38 188.63 524.19 187.52 517.42 188.47 C 512.47 190.55 506.90 195.02 501.41 191.85 C 504.87 189.85 508.21 187.17 509.30 183.13 C 499.75 174.41 503.91 159.03 495.33 149.70 C 492.32 146.49 487.06 144.63 486.74 139.62 C 491.86 140.26 494.81 145.22 499.74 146.35 M 541.99 178.07 C 543.20 178.83 544.48 179.80 545.82 178.61 C 545.98 177.57 545.67 176.71 544.88 176.01 C 543.41 175.79 542.76 177.12 541.99 178.07 Z" />
</g>
<g id="#99ccffff">
<path fill="#99ccff" opacity="1.00" d=" M 491.76 207.39 C 501.60 207.08 511.45 207.66 521.28 207.07 C 519.60 208.90 517.49 210.24 514.94 210.30 C 512.40 210.33 511.09 213.13 508.60 213.32 C 505.05 213.57 502.25 215.76 499.41 217.66 C 498.07 215.96 496.72 214.26 495.37 212.57 C 495.17 212.24 494.77 211.58 494.57 211.25 C 493.63 209.96 492.67 208.69 491.76 207.39 Z" />
</g>
</svg>
