<?xml version="1.0" encoding="UTF-8" standalone="no"?>
<!-- Generator: Adobe Illustrator 17.1.0, SVG Export Plug-In . SVG Version: 6.00 Build 0)  -->

<svg
   xmlns:dc="http://purl.org/dc/elements/1.1/"
   xmlns:cc="http://creativecommons.org/ns#"
   xmlns:rdf="http://www.w3.org/1999/02/22-rdf-syntax-ns#"
   xmlns:svg="http://www.w3.org/2000/svg"
   xmlns="http://www.w3.org/2000/svg"
   xmlns:xlink="http://www.w3.org/1999/xlink"
   xmlns:sodipodi="http://sodipodi.sourceforge.net/DTD/sodipodi-0.dtd"
   xmlns:inkscape="http://www.inkscape.org/namespaces/inkscape"
   version="1.1"
   id="Слой_1"
   x="0px"
   y="0px"
   viewBox="-650.7 -600 1761.4 1500"
   enable-background="new -650.7 -600 1761.4 1500"
   xml:space="preserve"
   inkscape:version="0.91 r13725"
   sodipodi:docname="Flag_map_of_the_Bahamas.svg"><metadata
     id="metadata25"><rdf:RDF><cc:Work
         rdf:about=""><dc:format>image/svg+xml</dc:format><dc:type
           rdf:resource="http://purl.org/dc/dcmitype/StillImage" /></cc:Work></rdf:RDF></metadata><defs
     id="defs23" /><sodipodi:namedview
     pagecolor="#ffffff"
     bordercolor="#666666"
     borderopacity="1"
     objecttolerance="10"
     gridtolerance="10"
     guidetolerance="10"
     inkscape:pageopacity="0"
     inkscape:pageshadow="2"
     inkscape:window-width="1600"
     inkscape:window-height="837"
     id="namedview21"
     showgrid="false"
     inkscape:zoom="0.27857618"
     inkscape:cx="1411.973"
     inkscape:cy="750"
     inkscape:window-x="-8"
     inkscape:window-y="-8"
     inkscape:window-maximized="1"
     inkscape:current-layer="Слой_1" /><g
     id="g3"><defs
       id="defs5"><path
         id="SVGID_1_"
         d="M-223.3-524.2l-1.3-0.6l-0.3-0.7l0.6-1.5l1.4,2L-223.3-524.2z M-203.6-505l-0.3-1.6l-0.9,0.4l-0.9-1    l0.1-0.5l2.5,0.4l0.2,0.7L-203.6-505z M-202-503.3l-0.3-0.6l0.3-1c0.3-0.5,1.5-0.8,2.1-0.8l0.8,0.8l-0.1,0.7    C-199.8-504.4-201.4-503.6-202-503.3z M-163.7-597.5l0.3-0.7l1.2-0.3l0.9-1.5c0.7,0.1,2.4,0.5,2.9,1.1c-0.5,0.5-1.6,1.2-2.4,1.2    l-0.5,1C-162.1-596.4-163.3-596.8-163.7-597.5z M-157.5-597l-0.5,1.5c-0.6,0-1.8-0.2-2.1-0.8l0.3-0.6L-157.5-597z M-144.1-589.3    c-2.4-0.2-3.2-1.8-4.7-1.8l-0.1-0.4l1.6,0c0.7,0.7,2.3,1.4,3.4,1.2l0.3,0.7L-144.1-589.3z M-109.2-575.8c2.7,2.3,3.5-0.5,6,3.6    l-0.2,0.8l-1.1,0.7l-1.2-0.2c0.2-3.5-2.5-2.4-3.9-4.4L-109.2-575.8z M-90.3-562.5l-1-1.1l0.7-1.5c0.5-0.4,2.3,0,2.8,0.1l0.1,0.3    l-1.4,2.1L-90.3-562.5z M-83.3-562.7l-1.7-1.2l-1.2,0.2l-0.3-0.4l0.1-0.5l0.5-0.3l1.9,0.3L-83.3-562.7z M-25.6-556.7    c1.4-0.9,4.3,0.6,5.6,1.2l0.1,0.3l-0.4,0.5l-1.8-0.3c-0.6,0.3-2.6,1.1-3.2,0.9L-25.6-556.7z M-133.7-542.9l-0.2-0.7l-1-0.2    c-1.3,0.5-3.4,3.1-4.4,4.1l-0.2-0.6c0.3-1,2.8-3.7,3.5-4.1c2.6-1.7,5.8-3.1,8.5-4.5l1-0.6l0.8-2.2l0.9-0.4c0.5,0.8-1,2.9,0.1,4.9    l-1,0.2l-1-1c-7.5,7-5.5,4.2-8.2,15.3l-0.5,0.2C-135-536.1-135-539.6-133.7-542.9z M-5.3-538.8l0.4,0.6c-0.1,0-0.4,0.3-0.4,0.3    c-0.2,0-2,0.4-2,0.4c-1.6-0.3-6.2-1.9-7.7-3l0.6-0.8l-2.2-1.4l0.5-0.5c1.8,0.2,4.4,2.3,5.2,3.9C-9-538.9-7.1-538.9-5.3-538.8z     M15.3-532.5l-0.1-0.9l0.8-0.3c1.5,1.3,3.6,2.9,5.7,2.5l0.7,1.8l-0.4,0.2C20-530.3,17.5-531.9,15.3-532.5z M6.3-526.9l0.7,0.8    c-1.3,0.3-2.8-0.6-3.9-1.3L2.9-528l0.4-0.3C4.3-527.8,5.2-527,6.3-526.9z M5.2-521.1l1.1-1.1l0.6,0.1l0,1.1l1.6-0.1l0.2,0.3    l-1.1,2.5l0.3,0.9l1,0.8c4.3,0.6,5.4,1,9.4,0.6l0.2,0.7c-0.8,0.6-0.7,0.5-1.9,0.6c-1.8-1.3-5,0-6.2,1.5c-2.2-0.3-5.6-0.5-7.7,0.4    c-0.8,0.3-1.4,1.2-2.4,1.1c-1.8-1.3-5.4-1.8-7.6-1.5c-0.9-0.7-1.2-0.9-2.4-1.1l-0.5-0.8l-1.2-0.6l0.1-0.7l-1.8-1.4l-1.3-0.2    l-0.5-0.8l-1-0.5l-2-1c-2.1-0.6-5.3,1.7-6.7,3c-0.9,0.4-3.6-0.5-4.4-0.8l-0.3-0.5l0.7-0.9l2,0.2l0.5-0.8l-0.5-0.7l-0.9,0.6    l-1.4-0.2l-1-0.9c-1,0.1-2.2-0.3-3.1-0.7l-0.5,0.8l-1-0.8c-1-0.4-2.8-0.1-3.7,0.3c-1-0.5-2.8-0.7-3.9-0.3l-0.9-1.3    c-1.7,0.1-3.1-1-4.7-0.6l-1-0.8c-1.7,0.4-3.4-0.1-4.8,0.1c-2.3,0.3-6,2.5-8.4,3c-3.3,0.7-6.9,0.9-10.2,1.3    c-0.7,0.1-1.7,0.5-2.4,0.7l-0.6-0.8c0.3-0.7,9.1-1.6,10.4-1.7c0.6-0.1,1.4-0.8,2-1c0.9-0.2,1.9-0.2,2.7-0.4    c1.9-0.5,3.9-1.5,5.8-1.9c1.4-0.3,4-0.4,5.5-0.3c1,0,2.1,0.5,3.1,0.6c2.2,0.2,3.5-1.4,4.9-1.5c1.4-0.1,3.7,0.3,5.2,0.5    c0.1,0,0.8-0.2,0.9-0.2c0.6,0.3,1.2,0.7,1.9,0.8c2.2,0.5,4.5,1.3,6.7,1.5c0.6,0.1,1.3-0.1,1.9,0c0.3,0.1,1.3,0.6,1.6,0.7    c2.3,0.3,4.8,0.5,7.1,0.9c4.1,0.8,1.9,1.5,7,1l1.5-0.1c0.5,0.5,1.1,1.1,1.6,1.5c1.3,0.9,6.8-1.1,8.2-1.3    C3.5-521.1,4.4-521.1,5.2-521.1z M31.6-518.7l-1-0.5l-1.1-2.6l0.3-1.5l0.8-0.7l2.6,1.2l-0.9,1.6l0.6,1.4l-0.1,0.7L31.6-518.7z     M-48.9-522.3l4.6,2.4l-0.2,0.4c-1,0.3-3.8-1.4-4.6-2L-48.9-522.3z M-57.9-513.3l-0.5-0.7l0.2-1.9l1,0.2l0.9,0.9L-57.9-513.3z     M-58.9-511.5l0.5,1.3l-0.4,0.7l-0.6,0.2l-0.4-1.7c-1.3-1.2-3.6-1.9-5.2-1.1l-1.8-1.1l0.5-0.8l-0.2-0.7c0.6-0.5,1.9-1,2.6-0.8    l1.6,1.2l-0.6,0.6C-61.6-513.2-60.1-512.4-58.9-511.5z M-24.1-513.2l-0.1-1.3c0.6-0.4,1.8-0.7,2.5-0.8l0.7,0.7    C-21.2-513.7-23.3-513.2-24.1-513.2z M19.3-508.9l-1.6-0.7c-0.2-0.9-0.7-3.3-0.4-4.2l1.8,1.1l-0.2,2l0.7,1.4l1.3,0.7l0.8,1.6    l-0.6,0.5C20.3-506.8,19.5-508.1,19.3-508.9z M20.2-510.3l-0.2-1.5l2.7,0.5l-0.3,0.8C22-510.5,20.5-510.1,20.2-510.3z M-63.6-503    l-1.4-2.5l0.2-0.7l0.9,0.4l0.8,2.4L-63.6-503z M-195.9-498.6l-0.6-0.2l-0.5-1.6l-2.4-0.7l0.5-0.8l3.1,0.1l0.6,0.7l0.2,1.4    L-195.9-498.6z M-198-492.3l1.4,4.3l-0.2,0.7l-1.1-1c-0.3-0.9-1.2-3.5-0.9-4.4L-198-492.3z M-196.9-490.6l0.3-0.8    c1.1,0.4,2.4,1.4,3,2.4l0.4-0.5l-0.2-1.1l0.9-1.7l0.8-0.1c0.3,1.4,0.7,3.7,0.3,5.2c-0.8-0.5-2.5-0.4-3.3-0.1l-0.9-0.9l-0.3-1.4    L-196.9-490.6z M-199.3-490.8l-0.6,0.1l-0.4,1c0,0.4,0.2,1.8,0.5,2.1l1.7,0l-1.6,1.9l-1.6-2.1l-0.3-2.9l1.2-2l0.7,0.5    L-199.3-490.8z M-203.7-488.4c0,0.7,0.2,2.1,0.7,2.6l0.7-1.5l0.5,1l1,0.6c-0.8,1.5-1.6,3.4-3.8,3l-0.9-0.4l-0.6-1l1.6-2.1l0.2-1.6    L-203.7-488.4z M-188.3-480.8l-1.1,0.1l-0.9-1.2l0-0.8l1.1-0.1l1.7-2.8l1.9-0.3l0.1,1l-1.2,2.1c0.3,0.5,0.6,1.7,0.3,2.3l-0.7,0.5    l-0.6-0.1L-188.3-480.8z M-290-464.3l-0.7-1.1l-1.3-0.5c-0.6-1-1.2-2.8-1-4l-2.8,0.3l-0.8-0.4l0.3-0.6l2.5-0.4l2.5,2l-0.2,1.8    l0.5,0.8l1.1,0.2l1.3,2.1l-0.1,0.6L-290-464.3z M-274-460l-1-2.2l0.8-0.7l0.8,1.5L-274-460z M-265.9-457.2l-2-2.7l-0.1-1.5    l0.8-0.5l0.2-1.3c0.7,0.5,1.7,1.8,1.8,2.7l-0.5,1.3l0.8,1.4L-265.9-457.2z M-268.4-456.9l-1.8-1.3l-1.7-0.1l-0.4-0.5l0.6-1.4    l1.2-0.4l-0.1-1.3l0.7-0.1l0.4,0.4c-0.1,1.3,0.6,3.6,1.7,4.4L-268.4-456.9z M-265.8-453.1l-3-1.4l0.3-0.5l0.9-0.3    c0.2,0.5,1.2,1,1.7,1.1l0.3,0.5L-265.8-453.1z M-233.6-451.9l-0.9-0.6l-0.9,0.5l-1.9-0.1l-0.4-1.1l0.4-1.5l0.7-0.7l1-0.2l0.8,0.3    l0.6,1.2c0.5,0.2,1.4,0.8,1.5,1.4l-0.2,0.5L-233.6-451.9z M-243.9-445.3l-0.3-1l1.1-2.3l2-0.1l0.3,0.8l-0.4,0.5l-1.2-0.4    L-243.9-445.3z M-263.1-440.9l0.2-4.1l0.5-0.3l1.6,0.1l1.8-1.1c0.5,0.8-0.2,5.3-0.7,6.3l-0.8,0c-0.5-0.4-0.4-2.5-0.3-3l-0.4-0.1    l-0.5,1.1l0.2,2.4l-0.5,0C-262.4-440.1-262.8-440.5-263.1-440.9z M-255.6-440.3c0.2,0.2,0.4,0.5,0.6,0.8l-0.5,1.9    c-0.4-0.7-2-1.1-2.8-1l-0.8-1.4c2.3-2.9-1.7-4.2,3.9-7.3l1.2,0.1l0.8,0.5c-0.7,0.1-1.7,1.1-2.1,1.6l0.3,1.1    c0.6,0.2,1.6,0.7,1.9,1.3L-255.6-440.3z M-368.9-256.4l0.5,0.4c0.4,0.6,0.2,2.7,0.1,3.3c0.2,0.3,1.8,3.2,1.8,3.3    c0.4,1.3,0.3,3.4,0.4,4.7l-0.6,0l-0.4-0.4c0.2-0.6,0.2-1.7-0.2-2.2l-1.4,0l0.6,0.8l-0.3,0.4l-1.3,0.2l-0.5,0.7l1.2,0.7l-0.2,0.7    l-2.3-0.9l-0.2-1l-0.8-0.8l1.5-1.7l-0.5-0.9c1.1-1.3,1.6-4.2,1.5-5.8l-2.8,3.7l-0.1,1.4c-3.3,0.2-5,4.9-5.8,7.5l-0.7,0.4l-0.3-0.6    c0.8-2.9,2.9-5.5,4.5-8c0.1-0.2,0.9-0.8,1.1-1C-373-253-371.2-256.6-368.9-256.4z M-380.5-235.3l-0.2-0.4c0.2-0.7,1.2-4.9,1.8-5.1    l1,0.1l1,1.1l0.5-0.4c1.5,1.8,3.3,1,4.9,1.6c1.4,0.6,3.1,1.9,4.5,2.7c-0.3,0.6-1.4,1.2-2,1.4c-1.1,0.3-4.5-1.8-5.4-2.4    C-376.9-236.2-378.2-236.3-380.5-235.3z M-381.2-209.8l0.9-0.3l1.7,1.1l-0.1,2l-1.3-2.1l-0.8-0.2L-381.2-209.8z M-378-206    c1.6,2.1,3.1,4.2,4.6,6.2l-0.2,0.3l-1.8-0.5l-0.3-0.4l0.3-0.7c-1.1-1.6-2.2-3.2-3.1-5L-378-206z M-372.5-199    c1.5,0.9,2.9,3.4,3.2,5.1l-0.5,0.4l-0.5-0.2l0.2-1l-2.3-3L-372.5-199z M-200.1,7.9l-0.8,3l0.8,0.6l-0.2-1.8l1-0.2l0.3,0.8    c-0.4,0.9-0.5,2.6-0.1,3.5l-0.7,0.2l-0.6-0.3l-1.8-3.9l0.4-0.9C-201.2,8.8-200.3,8.4-200.1,7.9z M-615.1,167.6    c-0.9,0.7-3.1,1.8-4.2,1.3l0.8-0.8C-617.6,167.6-616.2,167.5-615.1,167.6z M-640,177l-0.2,0.5l-0.9-0.2c-0.7,0.5-2.4,1.5-3.3,1.4    l0.3-0.6l2.4-1.5C-641.3,176.5-640.4,176.6-640,177z M-650,186.4l-0.7-0.2c0.9-1.9,2.4-4,4-5.4l0.3,0.3    C-646.7,181.9-649.4,185.4-650,186.4z M-630.5,238l-1.1-0.6l-0.7-1.7l0.5-1.2c0.9-0.1,2.6,1.1,3.2,1.7l0.3,0.8l-0.3,0.7    L-630.5,238z M-440.6,275l0.2,0.9l-0.4,0.4c-1.2-1.3-2.4-2.7-3.6-3.9c-0.9-0.8-2.1-1.5-3-2.3c-1.9-1.6-3.7-3.6-5-5.7l0-0.5    l0.7-0.2l0.5,0.5c-0.2,2.7,6.1,6.4,7.8,7.8C-442.5,272.9-441.5,274.1-440.6,275z M-431.4,285.2l0,0.8l-0.7,0.1    c-0.3-0.1-2.9-1.6-3-1.6c-0.7-0.8-3.2-4.9-3.4-6.2l1,0.2c0,1.2,2.1,4.1,2.9,4.8C-434.7,283.4-431.8,285-431.4,285.2z M16.8-518.4    l-0.5,1.4l-0.6,0.4c-0.9,0-2,0.1-2.8,0c-0.3-0.1-1-0.6-1.3-0.7c-0.9-0.3-1.9-0.4-2.8-0.5c0.2-0.9,0.8-4.1,1.8-4.5l1.5,0.1l0.1-0.5    l-0.6-0.6L10-523l-1.1,1.2l-0.5-0.6l0.2-1.4l-0.7-1.6l0.3-0.3c2.8,1,6.2,2.6,8.6,4.5c0.7,0.6,1.2,1.6,1.9,2.1    c0.2,0.1,1.3,0.5,1.6,0.6c1,0.6,1.8,1.6,2.8,2.3c0.4,0.3,1,0.4,1.4,0.7c1.8,1.5,3.3,3.4,5.2,4.8c4.8,3.7,9.5,7.3,13.9,11.5    l0.2,0.9l8.2,7.2l-0.4,0.8c0.3,1.2,1.4,2.3,2.2,3.1c4,4.1,3.3,2.8,7.8,5.9c0.7,0.5,1.3,1.3,2,1.7c2.3,1.4,4.7,2.7,7.1,4    c0.6,0.3,1.1,0.7,1.4,1.4l-0.3,1.6l0.7,1.2c1.2,0.7,2.4,1.7,3.4,2.2c1.7,0.7,3.9,0.3,5.1-1.1l0.2,0.8c-1,0.4-2.3,2.8-2.7,3.7    l-1.5-0.5l-0.2-0.7l0.6-0.6l-0.5-0.3l-1,0.2l-0.5,1.2l-1.2,0.4l-0.4,1.2c-2.3-2.4-2.2-3-3.7-6.4l-0.3-0.2l-0.7,0.7    c1.7,1.7,1.9,4.9,3.1,6.5c0.8,1.1,2.2,2.3,3.2,3.3c0.3,0.3,0.8,0.5,0.9,1c-0.3,0-2.1-1-2.5-1.3l-0.7,0.1l0.3,0.8    c1.7,0.7,2.9,1.6,4.3,2.8l2.1,0.1l0.3,1c1.7,0.8,5.3,2.3,6.4,4l1.3,0.1l1.5,1.3l0.7,0l1.2,0.7l1.2-0.1c0.9,0.9,3.6,1,4.7,0.9    c0.9-1.1,3.4-0.9,4.9-2.2l0.9,1.1l-0.5,1.1c1-0.1,2.4,1.7,3.2,2.2c0.8,0.6,2,1,2.9,1.5c0,0,0.8,1.1,0.8,1.2l1.1,0.3l0.4-0.3    l2.5-0.2l0.6,0.4l-0.1,1.1c1.9,2,5,4.1,7.5,5.2l3,0.8c0.6,0.2,0.9,0.4,1.5,0.4l2-0.5l1-0.2l0.4-0.6c-0.5-0.3-2.1,0-2.5,0.3    l-0.7-0.6l0.7-1.5c2.4,0.7,4.3,1,6.9,1c-0.5,0.6-2.6,2.4-3.4,2.2c-0.7,1-1.4,2.5-1.6,3.7l0.6,2l-0.4,1c0.2,1.9,1.8,4.5,3.7,5    l-0.9,1.6l-1.2-0.2l-0.6,2.4l-1.8,1.5l-0.3,2.4l-0.6,4.8c0,0.9,0.3,1.3,0.4,2.2c1.1,5.4,1.6,7.1,5.1,11.5l0.3-0.4l-0.4-0.9    l0.2-0.8l1,0.5c0.8,1.8,1,2.4,2.3,3.7l1.2,0.2l1.7-0.7l0.9-1.2l0.9-0.2l0.8,0.5l0,4.7l-1.7,1.6c-0.5-0.4-1.5-0.5-2-0.3l-0.6-1.2    l-0.9,0.1l-0.7-0.9c-2.1-0.1-3.8,3.7-3.7,5.4l0.7,1.8l1.5,0.4l0.8,2.1c0.4,0.3,1.9,1.5,2.5,1.3l0.5-0.4l-0.2-0.4l-1-0.3l0-0.7    c1.1,0.3,3.3-0.5,4-1.4l0.5,0.6l0.8,0.1c-0.5,2.4-1.8,7.2-3.6,9.2l-1.1,0.3l0-1.5c-0.5-0.1-1.7-0.2-2.1,0c-1,2.3-1.4,3.3-3.7,4.9    l-0.9,0.1l-0.4,0.9l-0.7,0.3l-1-1.8l-3-1.8l1.2-0.5c0.7,0.2,1.9,0,2.5-0.2l0.4,0.6l2.2-1.1L130-378l0.8-0.5l0.5-0.9l-0.8-1.6    c-0.1,0-0.8-0.1-0.8-0.1c-1.3,0.6-3.1,1.6-4.5,1.9l-1.9-0.1c-1.4,0-2.2,0.6-3.4,1.3l0.5,0.6l1.1,0.2l0.2,0.4l-0.3,0.2l-0.3,0    c-0.2,0-2.2-0.2-2.3-0.2c-4.2,0.6-5.5,4.1-8.1,7c-1.5,1.6-3.3,3.1-5,4.7l-0.3,2.9l-1.1,0.6l-3,5.7l0.5,1.8l-1,0.4    c-0.6,2.1,0.1,5.9,0.6,7.9l1,0.9l-0.2,2.3l-1.5,0.3c-2,2,0,8.8,0.6,11c-0.7,1.9-1.2,3.8-2,5.6c-2.2,5.5-3.8,7-2.2,12.7l0.9,0.9    c-0.7,1.1-0.1,2.5,0.2,3.6c0,0.7-0.2,1.6-0.2,2.2c0,0.6,0.4,1.3,0.4,1.9c0,1-0.4,1.7-0.2,2.8c0.7,3.1,2.4,9.2,2,12.4    c-0.2,2-1.9,11.2-0.8,12.6c-0.1,2.2-4.6,5.4-6.7,5.4c-0.1-0.1-1.2-0.7-1.2-0.8c-1.4-2.2-3-4.4-4.3-6.7c-0.7-1.2-0.9-2.7-1.6-3.8    c-1.4-2.2-3.9-3.1-5-5c-0.7,0-1.8-0.5-2.4-1l-0.7,0.1l-0.2-0.5l1-1.5l-0.7-1.5l0.7-0.8l1,1.5l0.4-0.2l0.8-1.6l-1.5-2.4l-0.5,1.4    l-0.7-0.2c0.3-2.2,0.5-5.7-1-7.6c-1-0.2-2.2-1.8-2.7-2.7l-1.5-0.3l-0.6,0.3l0.1,0.4l2,0.4l0,1l-3.3,0.2l-2.1-1.2    c-1.1,0-2.5,0.2-3.6,0c-1.4-0.2-2.9-1.3-4.4-1l-1,0.7l-0.3,0.8c-1.3-1.5-6.8-3.1-8.8-2.9l-1-1.3c-0.3-1,0.3-2.7,0.5-3.6    c0-0.1-0.2-2-0.2-2.2l1.2-1c0.8,0.6,1.2,2.4,1.5,3.4l-0.8,0.9l0.4,0.4c2.4-0.9,7.5-2,8.4-4.7l-0.4-0.5l-1.4-0.5l0.1-0.7l3.8-1.5    l-0.6-0.4l-1.7,0.7l-0.5-0.6l5.1-2.1c1.4-1.1,1.5-3.7,1.8-5.4l0.6-0.3l0.6,0.7l0.1,2.4l1.4-1.8l0.9,0.3c1.1-1.1,2.8-2.4,4.5-1.7    l0.7-1.7l-1.4-0.1l0.2-0.7c1.2-1,5.6-3.7,6.9-3.2l1.2-1.9l0-0.8l-0.3-0.2l-1,0.7l-1-0.8l0.2-0.4l0.5-0.3c1.1,0.3,2.9-0.1,3.8-0.9    l1.5-2.5c2,0.5,4-0.7,5.7-1.4c0.1,0,0.5-0.5,0.6-0.5l-1.1-1.3l1.4-0.6l0.6,0.7l1.1,0.1l0.8-0.9l-0.2-0.7l0.5-0.6l-1.6-1.3l-1.4,1    c-1.2-0.6-3.6-1-4.9-0.4c-0.4-0.5-0.3-1.9-0.1-2.5c0.6-0.9,1.9-1.9,2.9-2.3c-0.8-1.3-1.3-3.9-0.8-5.4l-0.5-0.9    c-0.9,0.2-2.4-0.6-3.1-1.2l-2.3,2.2l0.2,0.5l3.8,0.9l-0.2,0.7l-5.1-1.2l-1.6-2.7l0.6-0.7l2-0.2l1.3-1.2l0.6,0.3l1-0.4l3.1-4.9    l1.7-0.5l0.3-1.4L92-366l-0.2-1.2l1.4,0c0.7-0.4,1.4-1.5,1.7-2.2l-0.7-2.7l-0.8,1.8l-0.7,0.5l-0.7-0.4l-0.5-1.2l0.4-1.1l2-1.3    l-1.4-1.9l-0.9,1.8l-0.7-0.7l0.3-1.7l0.9-0.8l-0.1-0.7c-0.8-0.6-1.8-2.2-1.6-3.2c0.2-0.3,1.3-0.9,1.6-1.1l0.4,0.8l0.6-0.1l0.6-1.4    l-0.3-1.2l-1.2,0c-1.5,1.3-3.3,3.1-2.3,5.3l-0.5,0.4l-0.9-2.3l0.2-0.9l0.9-0.5l-0.6-0.5c-0.8-0.2-2.8,0.7-3.5,1.1    c-0.7,0-1.7-0.6-2.1-1.2l0.7-0.7c3.4,0.2,5.7-1.3,7.8-3.8l0.7-3.5l2.5,0.4l-0.7-0.9c-1.1-0.1-2.3-0.2-3.4-0.1l-0.5,0.4l1,1.2    l-0.7,0.6l-1.3-1.7c0.4-0.8,1.5-2.9,2.3-3.3l0.2-3l-0.4-0.8l0.1-1.8l1.1-1.4l-2.9-0.9l0-1l-0.8-0.4l-1.5,0.9l-1.1-0.6l-0.2-0.5    l1.2-2.1l3,1l0.3,0.9l0.9,0.2l0.9-0.5l-1.5-1.1l-0.2-0.7c0.5-0.1,1.2,0,1.7,0.1l0.1-0.7l0.5-0.5l-0.6-1c0.8,0.2,1.6,0.5,2.4,0.9    l1.7-0.5l0.9-1.2l-0.8-0.7l-2.2,1l0-0.7l1.3-1.3l-0.3-0.4l-2.2,0l-0.7,0.6l-0.6,0l-0.4-1.3l-1.8-0.4l-0.5-0.6l0.5-0.5    c1-0.3,3.4,0.5,4.3,0.9c1.5,0,3.1-2.7,3.3-4l-0.4-1.5c1.8-0.7,1.3-7.3,4.2-9.1l1.4,0l-0.6-1.2c0.7-0.9,3.3-3.6,4.2-3.6l1.1,0.8    l1.5-0.1l0.2,0.7l-0.4,0.7l-1.3,0.1c-0.5,0.3-1.1,1.1-1.3,1.7l0.6,1.1c1.9-1.8,1.1-1.4,3.3-2.4c0.6-0.5,0.8-1.9,0.7-2.6l1.1-1.1    l0.4-4.7c-0.9-1.8-2-3.9-3.4-5.4l-0.6,0.3l0.2,1.1l-0.4,0.8c-2,0.1-5.2,0.1-7.1-0.7l-0.9-0.9l0-0.8c0.5-1,1.1-1.7,1.9-2.5    l-0.1-0.5l-1.6,0.5l-0.4,1c-1.7,0.7-2.9-1.3-4.5-1.3l-1.3,1l-2.9,0.1l-1.6-2.3l-2.4-0.9l-0.8-1.3l-1.5,0.7l0.8,1.6l1-0.4    c0.6,0.1,1.5,0.7,1.9,1.2l0.2,1.3l-0.4,0.4l-0.9-0.1l-1.1-1.1c-0.1,0.2-0.6,1.1-0.7,0.9l-0.8-1.5c-1.1,0.6-3.6,1.7-4.4,2.9    l-1.2,0.3l-1-1.1l0.5-1.8l-0.7-0.7l-1.1,1.2l-0.9,0.3c-0.6,0.1-2-1.3-2.4-1.7l-1-0.1L73-449c-1.2-0.5-3.5-0.2-4.7,0.4    c-0.4-0.5-1.7-1.6-2.5-1.5l-1.1-2l-0.7-0.2l-1.2,0.5c-0.5-0.7-1-1.5-1.4-2.3c0.2-0.9,0.6-3.1,0.1-3.9c1.2-1,3.4-3.8,3.2-5.6    l0.3-0.1l-1.6-2.4l-2.9,1.4l-0.5-1c0.2-0.6,0.9-1.4,1.5-1.6l4.4,0.7l0.1-2.1l-0.6-0.8l-2.6-0.6l-0.2,0.5l1.2,1l-0.6,0.9l-1.1-0.7    c-0.6-1.5-0.7-2.9-0.9-4.5c-1.3-0.5-2-2.5-2.6-3.6l-0.8,1.1c-0.8,0-2.2,0.5-2.7,1.2l0.1,2l-0.4,0.8c-2.2,0.6-4,0.6-5.5,2.4    l-0.6-0.8l0.4-0.6l-0.6-0.3c-1.4,0.9-2.9,1.1-4.2,0.1c-0.3-1.1-1.3-2.6-2.3-3.1l-0.1-1.8l-2.1-2.1l-1.2,0.1    c-0.7-0.5-1-3.2-1.2-4.1c0-0.1,0.4-1.4,0.4-1.6c0-0.4-0.3-1.7-0.3-2c0.1-0.6,0.7-1.7,0.8-2.2c0.2-1.7-0.2-7.7-1.4-9.1l-3.7-4.2    l0.4-1c-2-3.4-1.9-1.9-3.7-3.8c-0.8-0.9-1.7-3.1-3.4-2.8l-0.2-1.1c-2.1-1.4-3.3-3.7-5.1-5.4c-1.1-1-2.4-2-3.6-2.9    C17.7-518,16.9-518.4,16.8-518.4z M57.9-502.6c-0.5-0.6-1.8-1-2.6-0.9l-0.6-2.2l-2.2-1.4l0.3-0.7c0.7-0.2,5.6,3.8,7.6,4.4    l-0.4,0.5l-1.1-0.2L57.9-502.6z M-65.1-500c-0.2-2.1-2.3-4.6-2.1-5.5l0.7-0.3l3.1,5.2l-0.3,0.5L-65.1-500z M-68.4-501.1l-0.7,0.8    l-2.8-0.2l-1-1.6l0.1-1l1.7-1.7l0.5,0.1c0.1,0.8,0.7,2.8,1.4,3.4L-68.4-501.1z M24.6-503.7l1.9,1.8l0.3,1l-0.6,0.3l-1.4-0.5    l-0.4-1.5L24.6-503.7z M-74.8-499.4l-1.1-0.9l-0.7-2.1l2.4,0.5l0.5,0.9l-0.4,1.2L-74.8-499.4z M58.1-499.9l-0.6-0.6l0.7-1l1.3-0.6    c0.6,0,1.7,0.4,2.1,0.9C60.7-500.7,59-499.8,58.1-499.9z M-76.9-463.2c-2.4,1.4-6.7-0.1-9.3-0.1c-1.9,0-4.1,0.4-6,0.7    c-0.1,0-0.3,0.1-0.4,0.2c-3.8,1.7-2.2,1.4-6.7,1c-0.7-0.1-1.1-0.2-1.8-0.2c-3,0.3-6.1,1.4-9.1,1.7c-0.9,0.1-2.9-0.7-4.5-0.5    l-0.2,0.5c-0.7,0.1-1.4,0.2-2,0.4c-3.1,0.7-6.1,1.5-9.2,2.1c-2.2,0.4-4.5,0.6-6.7,1c-8.7,1.8-6.5,2.7-15.2,1.1    c-2.4,0.2-2.6,0.6-4.6,1.1c-1.4,0.3-2.8,0.5-4.2,0.8c-3.3,0.7-6.7,1.6-10.1,2.1c-2.1,0.3-4.4,0.3-6.5,0.5    c-1.6,0.2-2.8,0.9-4.3,1.2c-1.7,0.4-3.7,0.3-5.4,0.9c-1.2,0.4-2.2,1.4-3.4,1.7c-1.3,0.4-2.8,0.4-4.1,0.8c-2.2,0.7-4.7,2-6.3,3.8    c-3,0.2-8.1,1.8-10.9,2.8c-2.1,0.8-4,2.2-6.1,2.9c-0.7,0.2-1.9,0.2-2.5,0.5c-2.7,1.3-5.4,3-8.1,4.4c-0.1,0-1.5,1.4-1.6,1.6l-2.4,0    l-3.8,3.2c-1.8,1.5-3.8,0.9-5.5,1.2c-0.8,0.2-1.6,0.8-2.4,1.1c-1.9,0.6-5.1,0.5-7,0.3l-2.2-0.9l-1.9,0.2c-2.8-2.6-5-2.2-6.6-3.1    c-0.1-0.1-3.1-2.9-3.4-3.2c-0.9-0.8-2.2-1.2-3.3-1.7l-0.9-1.7c-2.3-1.2-4.8-2.3-6.9-3.7c-1.5-1-3.5-3.5-5.4-3.7    c-2-3.1-4.7-5.6-7.2-8.1c-1.6-1.6-2.1-3.7-4.1-5.6c-1.1-1-2.6-2.1-3.8-2.9c-0.4-0.3-1.1-0.4-1.5-0.7c-2.1-1.5-2.2-2.8-5.3-2.9    c-1.6-3.8-6.1-6.9-9.1-9.5l-1.6-0.2l-0.3-0.5l0.6-0.5l0.5-1.9l0.3-0.3l0.9,0.1c1,1.5,2.6,1.2,4.1,1.9c1.4,0.6,2.3,3.2,3.2,4.3    c0.1,0.1,1.7,1.5,1.9,1.6c2.2,1.6,5.9,2.3,8.8,4l0.6,0l0.6,1.7l-1.3,1.8l1.2,1.4l1,0.2l0.6-0.4c-0.2-0.7-0.8-3.4-0.4-4.1l0.5,0.1    l1.5,2.5l-0.2-2.7l0.8-0.4c0.5,0.7,0.7,1.9,0.7,2.8l1.1,0.6l0.6-1.3l-0.2-2.5l0.5,0.1l0.5,2l0.9,0.6l-0.7,1.9    c0.6,1.9,1.7,4.1,3.1,5.6l1.1,0.3l1.2-0.9c1.1,0.4,1.7,2.3,1.8,3.2l1,0l0.2-0.3c-0.4-0.4-0.5-1.4-0.3-2l2.5,0.1l0.3,0.4    c0.9,0.5,2.7,0.7,3.6,0.2c0.3,0.4,1.5,0.6,2,0.5l0,0.8l-1.6,1.6l-0.7-0.1l0.1-1.3l-0.9-0.3c-0.5,0.1-1.1,0.3-1.6,0.6l-0.2,0.5    l2,1.8c0.2,0.5,0,1.3-0.4,1.7l-1-0.3c-0.2,0.8-0.5,3.3,0.2,4.1c0.6,0.3,1.6,0.4,2.3,0.2l0.4-0.4l-0.3-1.1l1.2,0.1l0.9-1.1    c-0.3-0.5-1.3-0.7-1.8-0.8l-0.1-0.8l4.4-0.8l0.8-0.7l0.8,0.9l-0.3,0.6l-1.9,0.4l-0.5,0.6c0.2,1.3,0.1,2.8,0.1,4.1    c-0.8-0.2-2.7-0.5-3.5,0l-0.1,1l0.5,0.7c0.7-0.4,2.3-0.7,3.1-0.3l0.8,1.6c0.8,0.4,2.7,0.3,3.5,0.2l0.5,0.7l2.3,0.3l1,0.9    c0.4,1.1,0.6,2.6-0.6,3.3c-0.8-0.1-2.5-0.1-3.1,0.5l0.2,0.4l2.5,1.2l2-1.9l0.8-2.8c-0.4-2-1.2-1.7-0.5-5.1l2.8-1.8l0.8,0.1l0.9,1    l0.7-0.1l-0.5-1.7l0.3-0.7l1.2-0.2l1.3,1.5l0.9,0.2l-0.9-2.1l0.6-0.4l1.7,1.5c0.5-0.2,1.5-0.7,1.6-1.3c0.1,0,0.7-0.2,0.8-0.3    c0.7-0.6,1.9-1.5,2.5-2.2c0.5-0.7,0.7-1.9,1.2-2.7c1.2-1.8,4.5-1.7,5.7,0.1l2.4-2.6l1,0l-0.8-1.6c3.6-2.7,6.2-9.9,8.9-11.4    l0.1-1.4l-1.5-1.8l0.8-0.7l2.4,0.3l0.8-1l2.3-0.4l0.5-0.6l-1.2-0.5l-0.5,0.7l-1.2,0.2l-0.5,0.5l-0.6-1c0.1-0.8,1.7-2,2.3-2.3    l-0.3-0.6l-1.5,0.8l-0.3-0.8l0.8-0.8l2.3-0.3l2.1-1.6l-2.9,0.4l0.1-1.2c-2-0.5-3.4,1.4-4.2,2.9l-0.4,0.1c-0.5-0.6,0.7-6,1.6-6.6    l-0.3-0.5c-1,1.8-4.8,4.2-6.6,5.1l-0.6-0.2l0-1l-1.3-0.3l-0.3-0.7l0.2-0.5l0.8,0.1l0.5,0.4c1.1-0.3,2.8-1.3,3.4-2.3l1.4-0.3    l-0.2-0.6l-3.3-0.1l-0.5-0.6l0.4-0.5l5.2,0.7l0.7-0.5l1.2,0.1l-0.2-0.8l-3.2-1.4l0.6-0.9l1.4-0.1c0.3-0.5,0.4-1.5,0.2-2.1l0.6-0.8    l-0.6-0.8l1-1.1l-1.4-0.7l-0.2-0.5c0.8-1,3.2-3.6,4.7-3.6c0.6-2,0.4-2.7-0.7-4.7l0.4-0.8c0.8,0.3,1.6,2.3,1.8,3.1l1,0.4l1.3,2    l-1.2,1.5l0.5,0.3l2.8-2.4c-0.6,0.7-1.1,2.3-0.9,3.3l-0.3,0.5l0.9,1.3l0.1,1.9l0.5,0.6l1.4,0.3l-1.2,3l0.7,0.3l1.1-0.7l0,3.4    l1.9,0l0.5,0.3l-0.1,0.4l-1.7,0.9l1.3,1.1c0.9,0.1,1.9,0.1,2.8,0.1l1.4-0.8l-1.8-0.6l-0.2-0.4l0.3-0.5l2.8-0.5l0.5,0.9l1.5-1.1    l1.8,0.6l3.7-1.7l0.6,0.2l-0.1,0.8l0.8,0.5c-0.4,1.2-3.6,3-4.9,3.2l0.2,0.6l0.9,0.7l0.8-0.1c0.6-1.4,2.8-2.7,4.2-2.9l0,0.9    c0.2,0.8,1.6,1.6,2.3,1.9l1.4-0.2l1,0.6l0.9-0.9l0.8,0.3l0.2,1.5l1.2,0.4l1.2,1.6c0.7-0.8,2-2.7,1.9-3.9l0.9-0.8l0.3,2.5l1,0.9    l0.2,1.1l3.3,1.7l0.6-0.2l0.1-1.9l0.6-0.3c2.4,4.1,3.4,2.3,5.1,4.5l1.6-0.4l2.3,0.9l1.3-1.1c1.6,0.3,3.7-0.6,5.1-1.3l0.8,1.9    l0.7-1.8l0.5,0l0.2,0.5l-0.6,1.1l0.3,1.5l0.9-0.1l-0.2-1c0.5-0.5,1-1.6,0.9-2.3l1.6,0l0.7,1.4c1.4-0.4,1.7-1.9,2.6-2.8    c0.4-0.4,1.3-0.7,1.7-1.1c0.7-0.7,0.7-1.7,1.7-2.2l2-0.3l0.3-0.5l-0.4-1l0.5-1.3l0.6-0.1c0.2,1,0.8,3.1,1.6,3.9l1.6-0.1l1.2,1.4    l0.5-0.1c0.8,0.7,2.2,1.5,3.3,1.7l1-0.8c0.5,0.4,1.5,0.7,2.1,0.6c0.3-0.6,1.4-1.9,2.2-1.9l0.5,0.2l-0.7,0.6l0.2,0.7l0.8,0    c1.1-0.5,1.6-2.1,2.6-2.3l0.3,0.6l0.8-0.3l0.1-1.1l0.3-0.2l0.5,0.3l0.3,1.4l2.7-0.6l0.2-0.5l-0.7-1.4l0.6-1.2l0.5-0.2l0.7,0.3    c0,1,0.6,2.5,1.2,3.3c0.2,0.1,2.9,0.9,2.9,0.9c2,1.3,3.3,3.7,3.7,6c0-0.8,0.3-1.7,0.6-2.4c1.8-3.7,2.6-1.8,4-3.4l-0.3-0.8l0.6-1.3    l-0.2-0.9l0.4-0.5l3.5,1.1l0.9-0.7l0.5,0.2c2.3-1.5,6.3-3.2,8.9-2.1l1.1,1c1.1,0.1,2.8-0.6,3.7-1.2c0.9,0.4,2.2,1.2,3.1,1.5    c1.1,0.3,2.8-0.2,3.8,0.7c0.7-0.3,2.1,0.2,2.6,0.6l0-2l1.7-0.5l0.3-1.8c1.3,0.2,1.5,1.9,2.8,2.2l0.5-1.6l-0.2-0.7l-0.9-0.4    l-0.1-0.5l2.2-1.2l0.5,2.5l3.8-3.1l1,0.3l0.7-0.2l1.1-1.4l0.6,1.5l0.9-0.8l0.9,0.2l0.3,0.7l-0.8,0.3l-0.7,1.3l0.7,0.9l0.1,0.7    l-0.9,2.2c0.6,2.4-0.5,4.2,1.2,6.4c-0.1,0.3-0.3,0.7-0.4,1c0.7,1.2,1.3,2.3,2,3.5l3.5,1.4l0.6,0.9l1,0.3l0.2,0.6    c-1.4,2.7-3.2,4.6-5.2,6.8c-3.7,1.3-3.9,0.9-7.3-0.2l-0.4-1.3c-2.2,0-3.1,0.1-5.3-0.8l-1.6,0.4l-2.1-0.9l1.4-0.4L-76.9-463.2z     M29.8-496.1l-1.3-0.6l-0.5-1.2l-1.3,0.7l-1.9-1.7l0.7-0.8l1.1-0.1l0.7,0.9l0.6-0.8c1,0.5,3,1.9,3.5,3L29.8-496.1z M64.4-495.3    l-1.4-1.8l0.4-0.6c2.6,3,3.7,6.8,5.1,10.5l-0.5,0.5l-1.9-0.1l-1-0.9l0.9-1c-1.1-2.3-1.8-2.6-3.5-4.2l0.2-0.8    c0.8,0.7,1.7,1.5,2.6,2.1l0.6-0.2l-2.5-2.4l0.8-0.5L64.4-495.3z M-65.7-488.9c-0.4-0.1-1.9-0.5-2.1-1l0.1-0.7l0.8-0.8l2,0.2    l0.3,0.5l-0.1,0.4l-1.7,0L-65.7-488.9z M-146.7-478.2l-0.8-0.2l-0.8-1.3l-0.6-0.2l-1.4-1.6l-0.4,1.4l-0.5-0.3    c-0.9-1.5-2.2-3.5-2.6-5.2l0.5-0.7l1.1-0.2l1.5,1l2.3,0.1l0.3,0.7l-0.6,1.6l1.5-0.4l1.8,1.4l-0.5,1.2l1.1,0.5l-0.2,0.7    L-146.7-478.2z M75-482.9l-0.9-0.3c-0.3-0.6-1.1-1.3-1.7-1.4l-0.4-0.8l0.3-0.7l0.6,0l2.2,2.8L75-482.9z M84.6-478.1l0.3-0.4    c0.6-0.3,4.5,2.3,5.2,2.9l-0.1,0.5C87.5-476,86.6-476.2,84.6-478.1z M109.9-469.5l-1,0.3l-0.7-0.3l-1.3,0.3l-0.5-2.7    c-0.4-0.6-2.8-1-3.5-1.1l-0.5-0.6l0.1-0.7l3.3-1.6l1.3,3.7l1.8,1.4l1.4,0.1c0.3,0.8,1.3,0.6,1.8,1c0.9,0.6,1.7,1.8,2.7,2.3    c1.5,0.8,3.3,1.4,4.9,2.1l1-0.1c0.1,0.8,0.8,2,1.5,2.5l-1,0.2c-1.4-0.6-2.3-0.9-3.4-1.8l-0.9,0.1l-0.7-0.8l-1.1,0.4l-0.6-0.3    l0.7-0.7l-0.2-0.5C112.9-467.2,111.5-468.2,109.9-469.5z M-161-472.2l-1-0.5l0.9-0.9l0.2-0.8l1.3,0.9l-0.8,0.4l-0.2,0.7    L-161-472.2z M44.1-468.6l-0.4,1.6l0.4,1.2l-0.4,1.8c-0.2-0.9-1.2-4.2-0.9-5c0.4-0.3,0.8-0.6,1.1-1l0.9-0.1l0.3,0.8L44.1-468.6z     M-55.2-462.8l0.1-3.2l0.6-0.3c0.2,1.2,1.1,2.9,2,3.6l0,0.5l-1.4-0.1l0.1,0.7c-1.4,1.4-2.6,2.7-3.6,4.4c-1.4,0-3.8,1.3-4.9,2.1    l-1.6-0.2l-0.5,0.6l-1.4-0.2c-1.2-1.1-2.5-2.2-3.7-3.4l0.2-0.5l4,2.1c5,0.2,6.3-2.4,9-6L-55.2-462.8z M60.7-464.1l2.2,0.1l0.2,0.5    l-0.6,1.2l-2.2,1l-0.7,1.4l-0.6,0l-0.6-1.4l0.2-0.8L60.7-464.1z M40.7-458.6l-1.2-1.8l0-0.8l1-1.2l2.3-0.7c0,0.7-1.1,1.3-1.4,1.9    C41.1-460.4,40.9-459.3,40.7-458.6z M122.7-462.5c1.6,0,3.5,2.6,4.6,3.8l-0.9,0.1l-3-2L122.7-462.5z M52.8-458.2l-1.2-0.3l0.3-3.2    l0.5,0.1l1,2L52.8-458.2z M-50.5-460.6l0.7,0.8l-0.5,1.9l-2.1,0.1l-0.9-0.4C-52-458.7-51.3-459.7-50.5-460.6z M-62.7-452.3    l-0.7-0.8l-0.1-0.8c1.2-0.7,4.4,0.3,6.5-0.9l0.4-0.5c0.9-0.2,4.1-1,4.6-1.7l1.6-0.1l1.1,1.4c-0.9,0.8-3.9,3-5.1,3.2    c-0.6,0.1-1.4-0.1-2.1,0c-1,0.2-1.6,0.7-2.6,0.6L-62.7-452.3z M44.8-455.6l0.2-0.8c1.2,0.2,2.7,1.7,3.2,2.7l-0.4,0.6l-1-0.3    C46.7-454.2,45.6-455.2,44.8-455.6z M44-455.6l0.9,3.1l-0.5,0.9l0.3,0.6l2.4,1.6c-0.4,0.4-1.4,0.5-1.9,0.5c-0.7-1.4-2.5-2-3.5-3.4    l0.6-1.6l-1-1.4l0.1-0.6l0.7-0.2l0.9,1L44-455.6z M57.6-450.6l-1.7-1.7l-0.4-1.7l0.8-0.2l1.2,1.1l0.4,1.8L57.6-450.6z     M135.9-453.4l0.7-0.5c1.1,1.4,2.1,3,3.3,4.3c0.6,0.6,1.7,0.7,2.1,1.6l-0.7,0.6C138.7-447.6,137-451.3,135.9-453.4z M-48-453    l0.7-0.6l0.6,0.3l0.3,0.9l-1.3,2.2l-2.4,0.3l-0.1,0.7l0.9,0.3l0.2,0.5l-0.5,1.2l-0.5,0.1l-1,1c1.1,1.7-3,5.2-2.6,6.3l-1,0.1    c-2.3-4.1-4.9-5.3-5.9-10.2l-0.3-0.2l0.2-0.5c4.3,0.3,8.3-0.8,12.1-2.9L-48-453z M57.1-448.6l1.8-0.9l1-1.8l1-0.5l0.4,1.3    l-2.7,3.4l-0.1,0.6l-1-0.6l0-0.9L57.1-448.6z M65.9-444.2c-0.1-1.1-0.6-2.4-1.2-3.2l-1.4-0.2l-0.2-1.5l-0.6-0.3l-1,0.3l-0.4-0.7    l2.2-0.8l0.6,0.7l0.9,0.2c0.2,1.3,1.8,3.2,2.8,4l-0.8,1.6L65.9-444.2z M49.2-449.6l0.3,1.8l-0.4,0.5L48-447l0-2.3L49.2-449.6z     M60.8-447.9l0.3-0.3c0.4,0,1.1,1.1,1.3,1.4l-0.4,1.6l-0.5,0.4l-1-0.8L60.8-447.9z M-48.3-437.4l-0.8,0.6l-0.9-0.1l-1.6,0.9    l1.2,0.4l0.6,1l-0.4,0.7l-0.6,0.1c-1.3-1-2.7-2.6-3.4-4.1l0.8-0.5l-0.1-0.8l0.6-0.2l2.2-4l0.3,2.9l0.7,0.8    c0.4-0.1,0.8-1.2,0.9-1.5l-0.9-1.5c-0.2-1,0.6-3.3,1-4.2l0.6-0.5l0.8,0.7l0.9-1.1c0,0.2,0.4,1.4,0.4,1.5    C-45.9-444.4-47.7-439.1-48.3-437.4z M-45.1-444.7l0.5-0.6l1-0.1l0.7,1.2c-0.3,1.7-1.7,3.4-3,4.3    C-45.6-441.5-45.3-443.1-45.1-444.7z M51.7-441.3l-2-0.6l-0.3-0.6l0.1-0.9l2.3,0.9L52-442L51.7-441.3z M103.2-430.3l-0.6,0.8    l-2.3,0.9l-0.7,1.2c-0.8,0.3-2.6-0.2-3.3-0.4c-0.1,0.9-0.2,2.9,0.3,3.8l-0.3,0.5l-1.4-0.4l-0.4,1.5l-0.8,0.2l-0.4-1.9l0.2-0.7    l1-0.5l-0.1-0.7l-1,0.1l-3.3-1.9l0.4-0.8l-0.1-1.6l0.8-1.4l1.4,0.3c-0.3,1-0.1,2.7,0.3,3.7l1.4,0.3l0.3-1.5l-0.9-0.9l0.1-1.5    c-0.2-0.6-1-1.9-1.6-2.1c-0.2,0.6-1,1.4-1.7,1.6l-0.9-0.1l-0.4-0.8l0.2-0.8l0.9-0.5l1.3,0.2l1.4-0.9c0.4,0.5,1.4,0.8,2,0.7    l0.5-0.4c0.2-0.8,0.2-1.9-0.1-2.7l-0.8,0.3l0-2.7l-1.4,0.9l-0.8-0.8l0.6-1.3l-0.1-0.6l2.9,0.7l0.4-0.9l1-0.6l0.8,0.1l0.8,2.1    l-1,0.7l0.3,1.2l-1.3,2.5c0.7,0.6,3.2,0.3,3.9,0.1l-1.5,1.2l0.2,0.5l1.3,0.6l1.6-0.2l0.6-1.1l0.9,0l0.4,0.9L103-431L103.2-430.3z     M144.5-410.9c-1.8-2.6-1.7-6.5-2-9.5l-0.9-0.6l0-0.5l1.7-0.1c0-2.5,1.6-6.6,2.6-8.8l0.8-0.3c-0.8-1.5,0.8-4,2-4.8l1.1-4.5    l0.9,0.3l0.6,1.3c0,0.2-0.3,1.5-0.4,1.6c-1.6,3.5-5.1,10.3-6.2,13.6C143.8-421,144.2-413.2,144.5-410.9z M88.4-437.5l-0.3-0.9    l1.4-1.5l1.2-0.2l0.5,0.9C90.6-438.4,89.3-437.4,88.4-437.5z M-46.7-437.8l0.9,0l1.4,1.7l0,0.9l-0.5,1l-1.6,0.6l-1.1-2.3    C-47.5-436.6-47-437.4-46.7-437.8z M90-437.7l1.7-0.1l0.6,0.8l-0.9,1.1l-1-0.6L90-437.7z M83-432.6l-2,0.4l-0.6,0.9l-0.6-0.7    l-0.2-0.9c0.3-1,1.5-2.2,2.4-2.6l-0.1-1.1l0.6-0.3l0.4,0.2C82.6-435.6,83.6-434.5,83-432.6z M87.4-431.3c-0.7-0.4-2.2-0.2-2.9,0.2    l-0.4,0.5l0.1,0.6l0.7-0.4l1.5,0.3l-1.6,1.3c0.4,0.4,1.1,1.3,1,1.9l-0.3,0.5l-0.6-0.3l-1.1-2.2l-0.9-0.3l-0.5,0.6    c-0.3,0.8,0.3,2.4,0.8,3l-1.2,0.4l-0.2,0.5l0.8,1.4l-0.2,0.7l-0.5,0.4l-0.7,0l-0.6,1.3l-0.8,0.4l-1.2-0.2l-0.5-0.6l0.2-0.5l1.6-1    l0.3-0.9l0.6-0.2l-0.2-0.7c-0.7-0.2-2.3,0.3-2.6,1.1l-0.7-0.1l-1.1-1.6l-0.9,1.7l-0.6,0.2l0.3-1.2L74-426l-1.2,0.5    c0.2-1.2,0.4-2.3,0.7-3.5l1.3-0.3l0.1,1.9l0.9,0.2l0.5-0.8l0.1-1.4l-0.8-1l0.3-0.8l2-0.3l0.6,0.2c0.5,0.9-0.2,3-0.7,3.8    c0.3,0.5,1.2,1.6,1.8,1.7l1.3-0.3l0.6-3.9c1.5-1.2,3.5-4,3.6-6.1l0.8,0.6l0,0.8l0.5,0.5c0.5-0.4,1.6-0.9,2.3-0.7    C87.6-434,88.3-432.4,87.4-431.3z M57.3-434l-2,0l0-0.9l0.9-1l0.7,0.1l0.7,1.2L57.3-434z M76.1-431.8l-0.7-0.1l-0.3-0.4l0.8-0.6    l0.4-1.1l1.6-1.2l0.6,0.7l-0.5,0.6l0.2,0.9l-1.9,0.8L76.1-431.8z M64.1-432l-1.1-0.3l-0.9-1.5l0.5-0.8l1,0l0.4,0.3L64.1-432z     M141.3-423.5l-0.9-3.6c0.5-0.5,2.2-2.3,3-2.4l0.2,0.3c-0.9,1-1.4,4-1.5,5.3L141.3-423.5z M68.5-423.9l-0.2,0.6l-0.4,0    c-0.7-0.5-1.8-1.6-2.1-2.5l0.1-0.5l0.6-0.2L68.5-423.9z M91.2-426.3l0.6,1.6l-0.7,1.5c0.6,1.2-0.3,2.5-1.2,3.2l-0.3-0.9l0.6-1.7    l-0.2-0.7l-1.1-0.5l0.3-0.7l0.9-0.2l-0.2-1.1l0.2-0.4L91.2-426.3z M87-425.5l0.4-0.1l0.2,0.6l-0.5,1.4l1.4,1.9l-0.6,0.9l-1-0.1    l-1.3-1.3L87-425.5z M80.3-417.1l-1.6,1.1l-0.6-0.2c-0.5-0.6-2.2-2.9-2-3.7l1-0.3l0.8,0.8l0.1,1.2c1,0.1,1.9,0.2,2.9,0.1l0.5-0.8    l2,0.5l0.2-0.9l-0.6-0.4l-0.1-0.9l-0.6-0.2l-0.5,0.7l-0.7,0.3c0.1-1.4,1.3-2.9,2.5-3.5c0.3,1.9,3.3,2.6,3.8,4.4    c-0.2,3.3-3.1,5.3-6,6.4l1,1.5l-1.4-0.1l-0.7,0.6c-0.1,1,1.3,2.7,2,3.3l-0.4,0.6l-2.1-0.2c-0.2,0.2-2.7,1.8-2.7,1.9    c-0.9,1-1.8,2.9-2.5,4.1l-0.6-0.1l-0.4-0.9l2.7-3.2l-0.4-0.7l-0.9,1.1l-0.5,0l-0.3-0.8l0.3-0.7c1.6-0.2,3.7-2.5,4.4-3.8l0.3-3.7    l1.2-0.3l-0.9-0.6l0-0.5l0.9-0.2L80.3-417.1z M91.8-415.4l-0.5,0.4l-0.8,0c0.1-0.7,0-2.1-0.3-2.8l-0.6-0.4l0.7-0.6l0.8,0.2    C91.7-418,91.8-416.1,91.8-415.4z M86.6-412.6c-0.8-0.2-2,0-2.7,0.4l-0.5-0.1l-0.3-0.9l3.6-1.5l0.5,0.1L86.6-412.6z M128.8-410.4    l-0.7-3.6l0.7,0l1.2,3l-0.5,0.6L128.8-410.4z M82-410.5l4.7-1.5l0.9,0.3l0.3,0.8l-0.2,1.1l0.4,0c0.3-0.2,0.6-0.8,0.7-1.2l0.7-0.1    l-0.3,1.6l1.3,0.2l0.7,1.9L90-407l-0.7-1.2c-1.3,0.3-2.9,2.3-3.4,3.5l-0.4-0.8l0.7-0.9l-0.2-0.5l-0.8,0.2l-0.8,1.7l-1.2-0.7    l-0.1-0.8l2.7-2.3l0.1-1l-0.7,0l-0.3,0.6c-0.7-0.2-2-0.3-2.7,0.1l-0.5-0.9L82-410.5z M131.3-409.3l1.3,2.4l-2.2,0.9l1.2,0.3l2,2.8    l-0.3,0.6l-1.2,0.5l0-1.6l-0.9,0c-1.2-0.8-2.5-4.2-1.7-5.5l0.5-0.2l0.7,0.8L131.3-409.3z M81.4-401.6l-1.4-2.2l0.2-0.5l1.8-0.3    l0.2,0.7L81.4-401.6z M73.3-400.5l0.5,0.3c-0.1,0.5-1.6,1.1-2,1.2l0.5,1.3c-0.6,0.1-1.6-0.1-2.1-0.5l-0.5-0.9    c1.3-0.7,3-3.6,3.6-4.8l0.7,0.1l0.2,0.4l-0.7,0.6C73.2-402,73.2-401.2,73.3-400.5z M83.3-402.5c0,0.9,1.1,2.2,1.9,2.6l0.5-0.3    l0.1-1.3l0.7,0.1c0.9,0.9,2.4,2.9,2.5,4.2l1.3,0.2l0.4,2l-3,6.2l-0.5-0.1l0-1.3l-0.5-0.7c2.2-2.7,1.1-4.4,0.7-7.8l-0.4-0.2    c-0.5,1.4-1.4,3.2-1.7,4.6c0,0.2,0.3,1.9,0.3,2.2c-0.1,1.3-1,2-0.5,3.6l0.5,0.4l1,0.1l0.7,1.1l-2,0.5l-1-0.8l-0.6-1.9l1.1-3.3    l-0.3-0.8l-0.8,0.1l-0.3-0.9l-1.3-0.3l-0.2-1.9c-1-0.8-1-1.8-1.3-2.9l-1.5-0.3l-0.3-1.6l0.8-0.4l1.5,1l0.7,0l0.3,1.4l0.8-0.3    l0.4-0.9l-0.5-1.3L83.3-402.5z M144.2-392.1c0.4-1.4,0.7-3.8,0.2-5.2l1.3-2.4c0.6,2.2,0.1,5.7-1,7.6L144.2-392.1z M76.4-393.8    l-1.2-0.7l-1.6,0.1c-0.4-0.8,0-3.2,0.2-4l0.5-0.4l0.6,0.1l0.3,0.6l-0.2,2.4c0.6,0.3,1.7,0.1,2.3-0.2l0.2,0.5    C77.4-394.8,76.9-394,76.4-393.8z M81.1-389.5l-1.4-0.9c-0.2-0.6-0.9-3.3-0.4-3.9l1,0c0.1,1.1,0.8,3.5,2,4.1l-0.4,0.5L81.1-389.5z     M76.1-389.8c2.2,1.6,1,4.9,0.6,7l-0.4,1.9l-1.7-1.3c0.1-0.8,1-2,1.7-2.5c0.2-0.6,0.5-2.4,0-2.9l-0.8-0.6l-0.5,0l-0.2,0.7l0.8,1.2    c-3,0.2-5.3-1.3-7.3-3.3l-0.2-0.7c1.5-0.5,4.2-0.9,5.3-2.1l2-0.1C75.8-391.8,76.1-390.7,76.1-389.8z M8.9-384.3l0.3-1.1l1.2-0.3    l-0.1-0.9l0.6-0.3c0.1,0.2,0.9,1.3,0.9,1.3l5.8,3.8c0.5,0.3,0.6,1.3,2,1.8l0.2,1l-1.7,4.5c-1,0.3-2.3,1.6-2.6,2.6l-0.8,0.1    l-0.7-0.9c-0.1,0.8,0,4.4-0.7,4.9l-0.6-0.2c-1.7-3.2,2.1-7.8,0-10.4l-1.2,0L8.9-384.3z M122.6-372.5l-0.6-1.2l0.5-0.7l1.9,0.6    l0.3,0.8l-0.4,0.6C123.8-372.1,123-372.3,122.6-372.5z M10.3-367.3l-0.3-0.6l0.4-1.5l-0.7-1.1l0.5-0.3c0.6,0.2,1.2,1,1.4,1.6    C11.4-368.5,10.8-367.7,10.3-367.3z M9.2-361.2l-0.3-0.5l2.5-2.4c0.6,0,1.5,0.5,1.8,1C12.2-362.1,10.6-361.8,9.2-361.2z     M15.6-359.8l-1.2-1.2l2.2-0.8l0.5,1.1l-0.4,0.7L15.6-359.8z M20.7-324.9l-1-1.4l-1.2-0.6c-0.4-1.2,0.2-3.2,0.9-4.2l1.1,0.9    l0.6-0.3l-0.8-1.4l1.2-0.4l0.7,2.9l1.3,1.1l-0.5,1.4L20.7-324.9z M-67.1-265l-0.3-0.5l2.2-0.9l3.3,0.6l0.4,0.5l-0.4,0.3    C-63.7-265.3-65.3-265.4-67.1-265z M-59.1-262.3l-0.7-0.7l0-0.7c0.2-0.1,1.3,0.5,1.5,0.7c0.1,0.9,0.1,2.1,0.4,3    c0.1,0.2,2.5,5.1,2.8,5.3c0.5,0.5,1.3,1,1.9,1.5c0.4,0.4,1,0.6,1.6,0.8c0,2.7,1.2,4.4,3.2,6c0.4,0.3,1,0.8,1.6,0.8    c0.4,0.6,0.6,1.4,0.9,2l1.6-1.4l0.6,0.1l1.7,9.2l-0.5,0.8l-1.1-0.7l-1.3,0l-1.4-0.9l-0.9-2.5l0.2-0.8l-0.5-0.5l-1.3-0.3l-0.6-1.1    l-0.7,1l-0.7-0.1c-1-0.9-2-2.4-2.5-3.7l1.7-0.8c-0.7-1.7-4.3-1.2-4.7-4.5l0.5-1.2c0.2,0.6,0.8,1.8,1.4,2l0.5-0.4    c0-0.1-0.2-1.1-0.2-1.2c-0.7-1.5-1.7-3-2.3-4.5c-0.5-1.2-0.1-1.9-1.3-3.2l-0.6,0.1c0.2,1.7,0.8,3.5,1.4,5.1l-0.3,0.7l-1-1.3    l-0.6,1.6l-0.8,0.2c-0.2-1.3-0.3-3-0.7-4.3c-0.4-1.2-2.2-3.5-1.7-4.8l0.6-0.1l1.2,2.9l0.7,0.3C-59.2-259.5-59-260.7-59.1-262.3z     M-46.9-233.9l-0.5,2.4l-1.3-1.4l-0.1-0.7l1-0.4L-46.9-233.9z M-46.8-226.4l-0.9-0.3l-0.4-1l-1.6-1.2l0.4-0.9l1.6-0.6    c0.8,1.6,1.9,4.1,2.1,6l-1-0.5L-46.8-226.4z M-25-216.5l-0.7-0.2c-0.5-0.5-1.2-1.7-1.1-2.5l-1.5-1.6l-0.3-4l0.7-0.2l0.9,4.2    l1.1,0.8l1.2,3.4L-25-216.5z M-21-204.2l-1.7-1.4l0.8-0.6c-0.7-0.6-0.5-2.5-1.6-3.7l0.5-0.5c1,0.4,2.3,4.9,2.6,5.9L-21-204.2z     M335.6-91.5l-1.1-1.3l0.1-1.2l-0.4-0.2l-2,0.3l-0.3-0.5l1.7-2.4c0.1-1.7-2.2-2.6-3-3.7c-0.4-0.6-0.8-1.5-1.1-2.1    c-2.2-1.5-5.9-1.5-8.5-3c-1.1-0.6-1.6-1.8-3.1-2.2l-0.3-1.6l-4.1-4.3c-0.6,0-2.3-0.1-2.8-0.7l-0.3-2.6l-0.8-0.7l0.1-0.9    c-1.1-0.7-2.4-1.4-3.4-2.1c-0.2-0.1-0.6-1.1-0.8-1.3c-1.4-1.4-3.7-2.7-4.3-4.7c-0.8-0.2-1.8-1-2.4-1.6c-0.5-0.3-2,0.1-2.5,0.3    l-0.2-1.1l-1.2-0.6l1-0.9c0.1-2.1-2.2-3.7-3.4-5.1c-0.1-0.1-0.7-1.2-0.8-1.4l-3.9-7.3c-0.4-0.2-4.6-2-4.8-2.1    c-3.2-0.6-8.5-0.7-11.9-1c-0.9-1.2-2.4-1-3.6-1.4c-0.6-0.2-1.1-0.9-1.7-1.1c-1.3-0.6-4.5-2.4-6-1.8l-1.2,1.3l-1,0.1    c-5.6-2.5-10.3-7.1-14.9-10.9c-0.5-0.4-1.2-0.7-1.7-1l-1.5,0.1c-0.6-1.5-4.5-4-6.2-3.8l0.6-1.8c-0.2-0.8-1.2-1.9-2-2.3l-0.3-1.4    c-0.8-0.6-1.8-1.6-2.6-2.1c-1.2-0.7-6.9,0.9-8.3,1c-3.2,0.3-7.5-2.7-12-2.7c-0.2,0-1.9,0-2,0c-1.8,0.4-9.4,2.1-10.8,3.4    c-1.3,1.2-4.7,3.8-5,5.5c-0.9,0.6-1.6,0.6-2.5,0.5l0-1.2c1.5-1.9,4.4-5.3,5.5-7.3c0-0.1,0.6-3.3,0.6-3.6l0.1-0.8l0.9-0.4    c-0.1,0.7-0.2,1.9,0.1,2.6l0.4-0.3c0.5-1.1,0.9-3.2,0.4-4.5l-0.7,1.1l-0.6-0.1c-0.3-2.7,10.1-14.9,7.6-18.7l-2.5-1.7l0.3-1.9    c2.4,0.3,3.8-1.3,6.5-0.6c0.7,0.2,1.5,0.6,2.2,0.9c0.8,0.2,2-0.1,2.7,0.2c2,0.6,1.9,1.3,4.4,1.6l-0.1,0.7c-1.2,0-2.4,0-3.7,0    l-1.2,1c-0.9-0.4-2.2-0.4-3.1-0.2l-2.6,3.7l0.2,0.6l0.7-0.1c0.3-0.7,1.1-2.1,1.9-2.3c0.4,0.7-0.6,2.8-0.9,3.4l1.2,2.6l-1.7,0    l-0.3,0.6l0.8,1.1l-0.1,0.9l1.4,0.8l0,0.4l-1.3,0.5l1.6,1.3l3,0.1l0.5,1.1l0.3-0.2l0-2.3l-2.2-0.5l-0.1-0.4l1.3-0.3l0.5-0.6    l-0.7-1.2l0.5-0.9l1-0.4l0.5-0.6l0.7,1.1l1.1,0.1c0.7,1,0.6,2.4,0.7,3.6l0.6,0c0,0.2,0.5,2.8,0.5,2.9c0.4,0.7,0.7,1,1.2,1.6    c1.1,1.5,2.2,4,4.4,4l2.7,0l0.5-0.5l-0.8-1.9l0.3-1.1c1.3,1.8,2.5,4.2,3,6.4c1.4,1.2,3.6,3.5,5.1,4.3c0.9,0.5,2.3,0.6,3.2,1.1    c0.2,0.1,4.1,2.5,4.2,2.6c1.9,1.6,3.5,3.8,5.4,5.6c3.2,2.9,5.1,3.9,8.9,5.6c0.7,0.3,2.7,0,4.8,1.1c3.1,1.7,6.2,3.7,9.4,5.1    c1.6,0.8,8.7,1.2,10.6,0.8c0.1,0,1.7-0.8,2-0.9c0.3-0.7,1.3-2,2.1-2.1c0.2,0.1,1.2,0.6,1.2,0.7c0.3,0.3,3.5,3.6,3.5,3.7    c1,1.7,2.1,5.2,2.9,7.2l0.7,0.1c1.6,2.7,4.6,7.3,7,9.3c0.9,0.8,1.9,1.4,2.9,2.1c0.6,0.5,1.1,1.5,1.6,2.1c0.8,0.8,1.9,1.5,2.6,2.3    c0.5,0.5,0.7,1.4,1.2,1.9c1.6,1.7,3.8,2,4.9,2.9c2.1,1.7,3.9,4.1,6,5.8c0.1,0.1,2,0.5,2.3,0.6c0.6,0.3,1.1,1,1.7,1.3    c1.3,0.7,2.7,1.1,4.1,1.3c1.1,0.8,2.2,2,3.3,2.6c0.8,0.5,2.1,0.5,2.9,0.9c4.2,1.9,4.6,4.2,6.5,8.3c0,0.1,0.8,0.7,0.9,0.8l1.9,0.3    l-1,2.6l-2.4,0.2l-0.9,0.9c0.4,1.2,2.3,8,2.5,8.1l0.5-0.7c0.3-1-1-3.5-1.4-4.3l0.4-1.2l0.6,0.2c0,1.2,0.5,3.1,1.2,4.1    c-0.6,2.9-1.2,8-0.3,11l-0.4,0.5c-0.2-0.9-1.1-2-1.7-2.6l0.5-0.7l-0.3-2.2l0.7-1.1l0-1.1c-1.6,1.3-1.9,5.5-1.2,7.4l1,1.1    c-1.3,1.3-2.6,4.8-3.3,6.5c-0.7,1.6-1.4,5.8-1.9,8l-0.5,0.2l-0.9,2.2c-0.5-0.3-1.6-0.1-2.1,0.2c-0.3,0.5-0.7,1.8-0.5,2.4    c0.6,0.3,2.4,1.4,2.6,2.1l-0.5,0.9l-1.1-0.2l-0.4-0.9l-1-0.1l-0.2,0.3c0.7,1.2-1.2,3.9,0.4,5.5l1.4,0.3c0.4-0.5,0.3-1.9,0.1-2.5    l0.6-1.1l0.7,0l0.3,1.2c1.1,3.7,2.2,7.6,2.4,11.5l-0.2,3.2c-0.1,1.2-0.2,2.8-0.6,3.9c-0.3,0.7-0.9,1.3-1.1,1.9    c-0.3,0.8,0.1,1.8-0.6,2.8c-1.3,1.7-2.5,2.8-3.7,4.8c-0.8,1.4-1.1,3.5-1.6,5.1l-1.9,0.6l-0.9,2.7c-0.5,0.2-1.5,1-1.6,1.6l0.1,1.3    l-1.3,2.2c1.2,1.3,0.6,3,1.8,4.8l-0.9,0.4c0.3,1.3,0.9,3.6,1.8,4.7l2.1,0.6l-0.2,0.7c0.3,2,2.5,3.2,2.7,3.8l3.9,12.1    c0,0-0.3,1.7-0.3,1.8c-1.5-0.1-3.5-0.9-4.8-1.6l-1.2-1.8l0.2-0.5l0.6,0c0.1-0.8-1.1-2.1-1.6-2.8l-0.8,0.3l-0.3-0.9l-0.6-1.8    C324,8,322.1,7,321,5.6c-0.1-0.2-0.9-2.4-1.1-2.8c-0.5-1-1.4-1.8-2-2.8c-0.1-0.1-0.1-0.9-0.1-1.1l-2.3-5.5c-1.8-0.6-2.4-1.9-3.8-3    c-0.5-0.4-1.4-0.7-2.1-1l0-0.6l0.7-0.3l1.2,1l0.7-0.3l-1.3-1.9c-1.6-1.1-6.2-3.6-8-4.4c-0.2-0.1-2.8-0.3-3.2-0.4    c-1.1-0.2-2.3-0.7-3.4-1.1l-0.5,0.4l0.3,0.5c2,1.2,4.2,1.3,6.5,1.5l0.4,0.3l-0.3,0.3c-4.4-0.3-4.1-0.4-8.7-2.2l-0.8-0.7    c-0.6-1.3-1.4-2.7-2-4c-0.5-1.2-2.3-7.5-1.4-8.6l0.5-0.2c4.2,2.2,5.4,4.3,7.8,8c0.9,0.5,3.8,1.7,4.9,1.1c0.7,0.7,1.5,0.5,2.2,0.9    c1,0.5,2,1.4,2.9,2.1c2-0.1,3.9,0,5.8,0.1l1.5,0.1l3-1.1c0.9-0.5,1.9-1.7,2.7-2.5c0.3-0.2,0.9-1.8,1.1-2.2l-0.2-0.7    c-0.6-0.4-2.1-1.5-2.3-2.1l0.2-0.4l2.6-0.1l1.7,2c1.3-2.1,3.5-3.3,5.4-4.7c2.8-2.1-0.6-9.7-1.3-11.7c-0.5-0.6-2-0.7-2.8-0.9    c-0.8,0.1-2,0.9-2.4,1.6c-0.2,1.6-0.5,6.1,0.5,7.6l-0.5,0.7c-1.2-0.9-2.4-2.4-3.1-3.6c-0.9-1.5-2.7-4.5-2.1-6.4    c0.4-1.2,1.2-2.4,1.6-3.7c0.5-1.6,0.8-4.2,1.1-5.7c0.8-4,0.4-4.8,2.4-8.3l0.6-1.1l2-0.9l3.9-1.8c0.2-0.1,3.8-4,4.2-4.4l0.3-0.8    c1.5-4,0.8-7.4,1.1-11.6c0.1-1,0.5-2.1,0.6-3.1C336.1-86.8,335.9-89.3,335.6-91.5z M223.1-197.4c-1.5-2.5-3-3.9-5.9-4.5l0.4-0.5    c2-0.1,6.8,2.4,5.8,4.8L223.1-197.4z M184.1-198.2l-0.1-1.2c0.4-0.1,1.2-0.4,1.5-0.4c0.4,0,4,0.1,4.1,0.1c1.2-0.2,2.9-2,4.2-1.6    c1.2,0.9,3.2,1.5,4.7,1.8l-0.1,1.5l-0.7,0.3c-0.8-1.4-2.4-1.7-3.8-2.1l-0.1,1.1c-1.4,0-2.9,0.2-4.3,0.1c-1-0.1-2-0.5-3-0.5    C186.5-199,184.3-198.3,184.1-198.2z M175.3-193.5c1.6,0.3,3.8,0.1,5.4-0.5c1-0.4,1.1-1.1,3.1-1.3c-1.3,3-3.4,1.8-5.6,3.3    l-1.4-0.1l0-0.5l-0.9-0.2l-0.8,0.5l0.2,0.7c-0.7,0.2-1.6,0.7-2,1.3l-3.3,0.5c-0.3,1.1-1.5,2.7-2.6,3.2l-0.6,0    c-0.3-0.7,0.1-1.9,0.5-2.4l0.9-0.1l0.6-1.4C171.9-191,172.6-191.2,175.3-193.5z M224.4-183.1l-2-6.9c0.7-0.9,0.8-2.9,0.4-3.9    l0.7-0.2c1.5,3,0.4,7.5,1.9,10.1l-0.4,0.7L224.4-183.1z M-22-189l-1.1-3.1l0.2-1l2-0.6l-0.2,1.3l-0.6,0.6L-22-189z M-41-189.1    l1.7-0.2l1.4,0.8l-0.8,0.4L-41-189.1z M-22-189l0.7,2.1c-0.4,1.7-2.5,4.1-3.7,5.3l-0.8,0.2l-0.4-1l0.8-1.5    C-22.8-185.1-22.3-186-22-189z M-38.7-178.7l-0.7-0.5l2.4-1.5l0.2,0.6l-0.9,1.3L-38.7-178.7z M-30.8-174.7    c-0.3,1.8-0.1,3.9,0.3,5.7l-0.9,0.5l1.1,1.3l-3.4,0.6l-2.3,2.6l-1.5,0.1l-1.1,0.8l-0.8,0l-0.8,1.2l-0.9-0.1    c0.5-0.7,1.1-2.4,0.7-3.3l0.3-0.3l0.5,0.7l0.6-0.3l0.3,0.6c1.2,0.2,2.2-0.7,3.1-1.3l0.4-1.3l2.5-1.1c0.4-0.8,0.9-3.3,0.4-4.2    c0.1-0.7,0.6-1.7,1.1-2.1L-30.8-174.7z M-55.6-164.9l-0.7-0.6l0.8-1.4l3.2-0.1l3.8-4.9l0.1-1.1l0.9-0.2l0.2,0.4    c-0.4,3.4-4.1,4.9-4.7,8l-2.6-0.7L-55.6-164.9z M-56.8-165.3l-2.3-0.1l-1.1-1.1l-1.8-0.3c-0.7,0.5-2.5,1.5-3.4,1.4l-0.7-0.8    l0.1-0.7l1-0.6l1,0.1l0.6-0.7c1.2-0.4,4,0.4,5.1,0.9C-57.8-166.6-57.4-165.9-56.8-165.3z M186.9-165l0.8-0.5l0.8,0.8l0.3,1.2    l-1.6,2.3l-1,0.4c0,1.2-0.1,1.5,0.6,2.6l-0.4,0.6c-0.7,0-2.9,1.2-3.2,1.6c-1.3,1.7-6.5,7.8-6.8,9.8l-1.6,1.2l-0.7-0.2    c1.4-5.5,5.6-10.1,8.8-14.6c0.7-1,2-1.9,2.9-2.8C186-162.7,186.8-164.8,186.9-165z M-44.2-164.9l1.4,0.4l0.5,1.4l-2.9,0.5    l-0.6,0.7c-0.7,0.4-1.8,0.5-2.6,0.4c0.3-1.3,2.8-2.3,3.9-2.6L-44.2-164.9z M169.2-145.6l-0.6-0.1c0.9-3.2,4-5.2,4.6-8.5l0.4-0.2    c0.6,2.2-1.8,4.4-2.9,6C170.2-147.5,169.7-146.5,169.2-145.6z M-115.1-147.6c1.4,1,1.4,2.9,2.5,4.2l0.1,2.1    C-113.5-143.3-114.4-145.5-115.1-147.6z M-110.9-139c0.6,0.4,1.8,1.7,1.8,2.5l-1,1.6l-1.8,0.8l-0.3-0.4c0.4-0.3,1.6-1.6,1.5-2.2    l-0.6-1.5L-110.9-139z M-111.8-130.4l-0.7-0.4l-0.6-1.1l0.1-1l1.6,1.4l1.5,0.1l0.3,0.5l-0.5,0.4L-111.8-130.4z M-114.9-126.3    l-1.1-0.7l0.7-1.1l1.3-0.2l0.4,1l-0.3,0.7L-114.9-126.3z M-59.8-30.9c-0.3-0.4-0.8-1.3-0.6-1.9l1.8-1.1l0.5,0.2    c-0.2,2.8,1.9,3.9,3.8,5.4c1.1,2.1,2.1,4.6,3.3,6.4c1.8,2.7,4.4,4,5.8,7.7l0.8,0c0.6,0.9,3.1,4.3,4.2,4.5c1,0.2,3.2-0.2,3.8,0.7    l0.4,0.9l-0.7,2.4l2.2-0.7c2.1,1.9,3.9,5.1,4.9,7.7l-0.6,0.8c0.3,0.9,0.7,1.9,0.9,2.8c0.2,0.8-0.2,2.2,0.5,2.8L-30,8.5l0.5,2.1    l1,0.9l0.3-1.4l0.4-0.2c1.1,1.6-0.4,3.5,0.5,5.1l-0.8,0.5l-1,3.1l0.2,0.6l1.3-0.2l-1.3,1.8l-1.2-0.3l-0.6,0.6l-0.4-0.1    c-0.6,1-0.3,3.3,0.1,4.3l1.5,1.2c-0.6,2,0.1,5.5,1,7.3c-0.3,0.8-0.8,2.7-0.4,3.5l1.4,1.6l0.1,2.1l0.9,0.6l1,2.9l0.6-0.4l-0.1-0.6    l0.7-1.6l0.4-0.2c0.2,1.1,1.2,2.6,2.1,3.2l1.2,6.8l-1.2,0.5l-0.5,0.6l0.5,1l-1.6,4l-1.6-0.1l-0.6-1c-1.6,0-2.2,2.3-2.8,3.3    c-0.1,0.3-0.6,0.6-0.8,0.9l-3.1,0.4l-0.2,0.8c-1.7,0.8-5,0.7-6.8,0.3l-0.5,0.8l-1.6-0.1l-0.2,0.4l0.8,0.7c-1,0.3-2.2,2-2.6,2.9    l-0.9,0.4L-45,67l0,1.4l-1.1,0.8l-0.9-1l-0.7,0.2l0.5,1.2l-2.7-0.4l0.6-1.2l-2,0.1l0.2,1.6l-2.1-1.5l-0.4-1.5l-1.9,0.7l0.6,1.1    l-0.1,0.9c-0.4-0.2-0.8-0.3-1.2-0.4l-0.3,0.7l-2.3,0.5l-0.1,0.6l0.6,1.2l0.5,0.2l0.7-0.4l0.5,0.2l1-0.3l0.6,1.1l0.8-0.1l0.4,0.4    l-0.1,0.7l-0.5,0.3c-0.7-0.4-2.4,0.1-3.1,0.4l0,0.3c0.3,0.5,1.7,0.7,2.3,0.7l1.2-0.8c1-0.2,2.7,0.2,3.6,0.5l-0.1,0.5l-0.9,0.3    c-1.2,0.5-2.9,1.4-4.2,1.7c-2.6,0.5-5.3-0.5-7.6,1.5l-0.1,0.4l0.6,0.2l2.8-1.2l-0.6,2.1l-1.4,0.1l-0.6,1.2l-0.9,0.4l-0.2,0.9    c-1.4,0.2-3.5,2.2-4.3,3.2l-1.1-0.5c-0.9,0.4-3,1.7-3.3,2.8c-0.4-0.3-1.5,0-1.9,0.1l-1-0.5c0.3-0.6,0.4-1.7,0-2.3    c-0.5-0.5-1.5-1.2-2.2-1.3l-0.5,2.8c-0.6,0.9-2,1.7-3,2l-1-0.5c-2.4-0.1-4.6,0.6-5.3,3.1c-0.9-0.3-4,1.2-5.7,1.2l0.3,1.1l2,0.3    l-0.4,1.5l2.5,1.5l0.5,1l1.2,0l0.6,0.6l-1.3,0.6l-0.5,1.8l-0.6,0l-0.4-1.9c-0.7,0.7-2.5,1.5-3.5,1.3l-0.7,0.9l-2.3-0.3l-2.3-2.2    c0-1.7-0.9-1.9-1.3-2.9c-0.3-0.8,0-2-0.8-2.7c1.1-1.3-0.2-3.2,0.8-4.6l-2.8-2.9c1.6-2.9-1.6-4.3-1.1-5.8c-1.7-0.5-3.3-2.2-3.7-3.9    c0.2-0.9,1.3-2.2,2-2.8l-0.5-0.3l-0.9,0.3l-1.1,1.4l-0.9,0.2c-0.7-1.2-0.4-5.1-0.2-6.4l-1.1,1.3c-0.1,1.3,0,3.8-1.1,4.6l-0.7,0.3    c-3.6,0.1-9.1-6-11.4-8.1l-0.7-1.7c0.2-3.2,5.8-9.1,7.6-12.1c1-1.7,0.3-3,1-5c0.3-0.8,1.2-2.6,0.7-3.4c-0.1,0.1-0.5,0.4-0.5,0.4    c-0.2,0.4-2,4.1-2.1,4.2c-1.8,2.2-4.5,4-6.5,6.1c-2,2.1-3.4,4.6-5.8,6.3l-0.6,0.1c-1.7-1-3.3-2.1-4.9-2.9    c-0.5-0.3-1.3-0.3-1.8-0.6c-0.2-0.1-0.5-0.6-0.7-0.7c-2.2-1.1-4.5-2.4-6.8-3.3c-3.9-1.6-8.2-2.3-11.8-4.6c-0.3-0.5-1-1.7-1.3-2    c-2.6-2.2-5.4-4.3-8.4-5.9c-1.8-0.9-4-0.6-4.9-2.8l-0.6-1.4c-0.3-3.3-0.3-9.6-2.3-12.4c-0.7,2.6,1.3,8.3-0.3,9.9l-1-0.2    c-1.4-1.3-2.7-2.9-4.2-4.2c-2.1-1.8-7.3-4.5-8.4-7.2c0.9-3.4,3.5-2.3,5-3.1c0.1,0,3.3-2.5,3.4-2.7c0.6-0.6,1.1-1.4,1.7-2    c1-0.9,1.7-0.6,2.8-2.4l2.2,0.3l0.3-0.3l0.1-0.4c-0.4-0.6-2.5-3.2-2.2-4l1.9-0.8l1.3,0.9l0.6-0.7c0.8-0.1,2.7,0.1,3.3,0.7    l-0.2-0.9c-1.7-0.7-5.2-3.4-5.7-5.2l0.6-0.9l1-0.3l0.3-0.9l1.1,0l0.5-0.5l-0.3-1.1l0.6-1l0.7,0.2c0,2.1,0.6,4.5,1.3,6.4l0.6,0.4    l0.8,2.3l1.3,0.1l0.5-1.8l-0.9-0.3c-0.5-0.5-0.8-3-0.9-3.7l0.4-0.8l1.1,0.1l1.4,1.2l0.5-0.5c-0.4-0.5-1-1.8-0.9-2.5l1.4,0.8    l2.1-3.7l-0.6-0.8l0.4-0.6l2.6,0.3l0.5-0.8l-0.5-1l0.3-0.7l1.2,0.4l1-1.3l0.1-1.4c-1.4-1.5-1-3.2-1.7-3.9c0.2-0.8,1.8-2.6,2.3-3.3    c2-0.7,5.4,1.9,7,2.5c1.3,0.5,3,0.7,4.4,1l0-1.7c-1.2-0.6-2-0.2-3.2-0.3c-0.5-0.1-1.2-0.4-1.7-0.5c-1.1-0.3-3.1-3.5-3.7-4.5    l0.3-0.8l2.3,0.4l0.8-0.4l0.6-1.6l1.6-0.8l0.4-0.9c1-0.2,2.1-2.3,2.5-3.1l-0.2-2.5l0.9-0.6l1.3-3l0.8,1.4l3.9-1l3.5-3.9    c-0.3-1.7,2.6-3.4,2.7-5.5l2.7-2.5c0-0.9,0.7-2.4,1.3-3c1.1-2.7-3.3-6.1-3.9-8.6c0.1-1,0.5-2.1,0.9-3c1.3-1,4.9-4,5.4-5.6    c-1.1-1.1-0.7-3.1-0.7-4.4c0-0.1-0.5-1.3-0.6-1.4c0.2-0.6,1.7-1.1,2.2-1.3l0.4-2.3l-1.1-1.3l0.5-2.3l1-1l0.3-2.2    c-1.4-2.3-2-4.8-3.8-7.2l0.5-1l-0.2-0.6l0.4-1.1l-5-6.4l-0.3-2.5l-1.9-1.5c-0.2-0.9-0.6-3.1-0.3-4l-0.3-0.5l-1.4-0.3    c0.9-3-2.1-6.2-1.7-8.6l0.5-0.9l1.1-0.5l-0.7-1.1l0.3-0.3l2.4,0l0,1.3l0.8,0.7c1.8-0.3,4.8-0.3,6.6,0.4l0.6-0.5    c-1.7-0.9-4.7-1.1-6.6-0.7l-0.7-0.7l0.7-1.2c1.3-0.9,7.4,1.5,8.6,2.3c0.5,0.4,1.1,1.1,1.5,1.6l2.5,0.7l0.2,0.5l-1.8,0.5l-0.8-0.4    c-1,1-4.7,0.4-5.8,0.2c-1.5-0.3-2.1-1.1-4-0.7c-0.7,0.6-2.1,1.4-3,1.5l2.1,0.4l1.7-0.9l0.5,0.6l-0.7,0.7c3.6,0.4,7.5,0.3,11.1-0.1    l3.9,2.4c0.4,1.6,1.6,3.5,2.8,4.7l0.6,0.1l0-2.3l0.6-0.1l1.2,1.4l1.5-0.8c0.4,0.1,0.9,0.1,1.3,0l0.5-1.1l0.5-0.2l5.9,1.4l0.7-0.4    l-0.1-0.4c-0.4-0.3-2-1.5-2-2l-1-0.5l-0.2-0.6c0.9-0.2,2.9-0.2,3.7,0.5l0.2-2l0.7-1l1.1,0.1l2.3,2.1l0.4-0.6l1.9-0.4l1,0.9l1,0.2    l0.3-1.3l0.9,0.3c1.3,4.5,4.9,8,6.7,12.3l-0.4,2.1c-0.5,0.6-1.7,1.4-2.5,1.3l-0.5,0.9c-0.2,0.7,0.9,2.2,1.3,2.7l-0.3,0.8l-1.4,0.7    c0.8,0,3.5,2,4.3,2.5l0.7-0.1l-1.2-2.6l0.2-1l1.5,2.2l1.7,0.6c0.9,1.7,1.8,3.3,2.6,5l-0.2,1.6l-0.4,0.5l-1.2-0.4l-1.3,0.6    c-1.4,0.7-0.5,6-1.6,7.3l-1.2,0.5c-0.1,2.1-0.7,5,0.1,7.1l-0.9,0.1l-0.5,0.6l0.3,0.5l1.9-0.4l1.6,1.2l-0.2,0.7l-0.8,0l-0.5,0.5    l0.1,0.8l2.3-0.9c0.1,0.4,0.5,1.3,0.8,1.5l0.6-0.1l0.9-1.5l-1.4-0.4l0.3-1.4l0.7-0.2l0.2-0.4l-0.2-0.3l0.2-0.4    c0.6,0.1,2.3,0.7,2.6,1.4l0.9,0.1l0.7,0.7l0.8,0l0.3,0.5l-0.7,0.9c-0.3,1-0.2,2.6,0,3.5l-0.7,1c0.5,1.4,0.7,3.2,2,4.1    c0.1,1.1,0.6,2.9,1.4,3.7l0.7,0.2l0.3,3.6l-0.7,0.8c0.4,0.6,1.7,2.1,2.4,2.1c0.3,1.1,1.3,2.3,2.1,3l-0.2,1.7l-1.8-0.2l-0.1,0.7    c1,1.7,1.4,3.4,2.6,5l-0.1,0.8l1.8,2.6L-59.8-30.9z M-139.1-101.3l-0.4-0.4l1.5-1.7l0.9,0l0.3,0.8l-0.4,0.7l-0.5-0.2L-139.1-101.3    z M120.8-98.4l-3.6,1.8c-0.7,0.3-1,0.6-1.8,0.9c-3.2,1-6.9,0.8-10,2.3c-2.5,1.3-5,3.6-7.8,4.3c-1.8,0.4-4,0.5-5.8,0.8    c-0.8,0.1-3-0.6-3.7-1l0.8-1.1l4.9,1c1.1-0.6,2.8-0.3,3.1-0.4l9.7-4.8c0.3-0.1,3.3-0.7,3.6-0.8c3.3-1,6.6-2.3,10-3L120.8-98.4z     M75.1-91.9l0.8-0.8c0.6-0.4,2.5,0,3.1,0.2l1.3-0.7l0.6,0.5C80.3-91.8,76.1-91.9,75.1-91.9z M62.4-90.2L62.3-91    c0.9,0.5,2.9,1,4,0.7l0.6-0.8l0.9,0.1l2.1,1.6c1.2,0.4,2.1-0.7,3.5-0.1l0.7-0.4l0.7,2.2l-0.2,0.3c-0.8-0.4-2.7-0.8-3.5-0.3    c-1.3-1.4-3.9-0.5-5.2-1.6C65.1-89.1,63.1-89.9,62.4-90.2z M14.2-72.8l0.6-0.6l2-0.1l0.5-1.9L17-76l-2.5,0l-0.1-0.7l2.5-0.4    l2.4,1.1l0.3-0.3c2.1-1.6,2-1.9,4.7-2.4l1-0.2l0.1-1.3l1.5-1.1l0.1-1.6l1.3-1.4l9.5-1.1c0.4,0,1.7-1.4,3.2-1.4l1.9-1.8l0.7,1.4    l4.6-0.4c0.5,0,3.9,1.7,5.7,1.7l1.2-2.3c1.7-0.5,4.5-0.8,6,0.2c1.4-1.1,5.4,0.3,6.9,0.6c1.1,0.2,2.4,0.3,3.6,0.4l4,4.3l1,0.1    c1,1.2,3.1,1.1,4.4,1.9c0.1,0.1,2,2.1,2.2,2.3c0,0.1,0.2,0.5,0.3,0.5l-0.2,0.4c-2,1.5-1.9,1.4-3,3.6c-1.2,0.1-3.5,0.5-4.6,1.3    L74.4-73c-1.2,0-3.4,1.5-4.3,2.2l-0.9-0.2l-2.5,1.2l-0.4-0.9c-0.8,0.1-1.9,0-2.6,0.2c-0.1,0-2.8,1.4-2.9,1.5    c-0.7,0.5-1.3,1.3-2,1.7c-0.8,0.5-1.9,0.6-2.8,1.1c-1.1,0.6-2.1,2.1-3.6,1.8l-1.3,1.1l-0.6-0.3l-0.1-1l-1.1,0L49.1-65l0.8-0.6    l0.2-0.9c0.3,0.6,1.1,1.5,1.7,1.7l0.7-0.3l0.2-0.4l-0.6-0.3l-0.3-1.1l-0.5-0.4c-2.5-1.2-7,3.9-10.1,1.9l-1.4,0.3l-0.5,0.5l0,0.7    L33-64.3L32.4-65l0.3-0.5c-1.5-2.1-1.1-1.7-3.1-3c-3.1-0.1-6.3-0.7-9.4,0.1c-0.9-0.5-2.3-0.8-3.4-0.7    C15.6-70.4,15.1-71.2,14.2-72.8z M76.7-87.8c2-0.9,3.8,0.1,5.4,1.3l-0.4,0.5c-0.5,0.2-2.1-1.1-2.5-1.4l-2.3-0.1L76.7-87.8z     M-73.2-69.9l-1.3-0.8c-0.2-0.4-0.9-2-0.5-2.5c1.3,0.6,2,2.7,2.5,4.1l-0.2,0.4l-1-0.2L-73.2-69.9L-73.2-69.9z M-70.9-58.3l0.4-0.1    l3.3,3l1.3,0.1l0.4,0.4l-0.2,0.5C-67.7-54-70.2-56.8-70.9-58.3z M-62.1-40.3l0.6,0c0.5,1.9,1.3,4.2,2.4,5.9l-0.6,0.3    C-60.5-35.1-62.6-39.2-62.1-40.3z M-63.9-38.5L-63-38l1.5,3.1l-0.7-0.1L-63.9-38.5z M183.7-30.9l0,0.5l-1.7,3.4l0.1,0.6l0.8,0.1    c-0.3,1-1.3,2.8-2.2,3.3C180.8-25.7,181.7-29,183.7-30.9z M308-12.8l-1.1-0.2l-2.1-1.8l0.6-0.1c1,0.5,2,1.2,2.9,1.9L308-12.8z     M183.4-0.8c-1.4-0.6-2.2-1.5-1.9-3.1l0.5-0.3l0.5,0.6l0.6,0.1l1.1-3l1.1-0.7l0.5,0.4C184.6-5.4,183.8-2.7,183.4-0.8z     M500.9,133.8c-3.5-1-6,0.1-8.1,2.9c-1,1.3-1.2,2.9-2.7,3.9l-0.6,0.1c-0.9-1.1-1.4-1.3-2.7-2L482,139c-0.4,0-3.8-1.8-4.1-2    c-0.2-0.1-0.2-0.3-0.4-0.4c-0.8-0.9-1.6-1.2-2.4-2c-0.6-0.6-0.7-1.3-1.8-1.6l-0.5-1.1l0.7-1c1.6,0.5,6.3-1.6,7.7-2.3    c0.2-0.1,1-0.9,1.2-1.1c0.7-0.4,1.7-0.6,2.3-1.1c1.7-1.3,4.8-4.4,7.3-3.4l0.7-1c2.1,0,4-2,5.3-1.8l0.3,0.8l0.5,0.1    c0.3-0.4,1.9-0.6,2.3-0.6l2.2-2.5l-0.1-0.9c-0.5,0.6-2.2,2.8-3,3l-0.4-0.4c0.7-0.8,1.8-1.6,2.4-2.5c3.2-4.8,1.2-8.1-0.8-13    c-1.4-3.5-2-5.2-5.6-6.9c-1.2-0.6-2.1,0.4-3.2,0.6c-0.6,0.1-1.6,0.1-2.2,0.1l-0.3,0l-0.7-0.5l-0.9-1.8l-0.9,0.1l-1.2-2.2l0.6-1.3    l-1-0.7l-0.9-4.5c-3.6-3.3-9.6-9.4-11.5-14.4c-2.7-7.2-3.1-13.6-9.1-19.3c0-1.7-0.9-3.3-1.6-4.7c-0.9-2.1-1.3-2.9-2.8-4.7    c-2.2-2.5-3.9-2.2-7.1-1.9l-4.7,0.5c-0.7-1.4,1.1-3.5,1.4-4.8c0.5-2.1,0.6-7.3-0.7-9.3c-1-1.5-2-2.6-3.3-3.9    c-2.5-2.6-2.6-3.1-5.9-4.9l-5-2.8c-1.6-1.1-2.5-3.9-4.7-4.3l-0.2-0.7l-0.5-0.3l-1,0.1l0.6,1.3l-0.3,1.2l0.2,0.6l1.7-0.8l1,0.6    c-0.5,0.7-3,1.4-3.8,1.6c0.2-1.5-0.6-4-1.6-5.2c-1.6-0.5-4-1.9-5-3.3l0.2-0.5c1-0.9,3.7,0.1,5.2-0.4l2.4-1.1    c1.1-0.8,1.8-2.5,3.2-2.9c0.1,0,1.7-0.1,2-0.1c11.1,4.3,4.6,2,11.9,7.8c1.1,0.9,2.5,1.5,3.5,2.4c1.1,1,0.9,2.3,3.1,3.4    c0,0.1,0.4,1,0.4,1c-0.2,3.7-0.2,6.6,0.1,10.3l1,1.2c0,0.2,0.2,2.1,0.2,2.1c0.8,1.5,2.5,3.9,3.5,5.2c0.7,0.8,2,1.3,2.7,2.1    c0.6,0.7,0.9,2,1.5,2.8c0.5,0.7,1.6,1.1,2.2,1.7c1.7,2,4.4,11,5.7,13.6l4,7.2c0.9,1.7,2.4,4.8,3.7,6.6l2.7,3.2l1.4,1.6    c0.7,0.8,1.9,3.5,2.3,3.8c2.6,2.1,5.6,5.1,8.4,6.9c0.2,0.1,3,0.9,3.4,1.1l0.9,0.7c1,0.9,2,1.8,3.1,2.6c0.3,0.2,1.8,1,2,1.1    c0.2,0.1,1,1.7,1.2,1.9c0.9,1.2,2.3,2.3,3.7,2.9l1.5,4.4l3,2.4c0.5,2.3,1.6,6.3,3,8.3c2.2,0.1,5.5,6,6.6,7.6    c0.5,0.8,4.4,10.4,5.1,11.9l0,0.9l0.5,0.4l0.8,3.2l-1,0.3l-1.5-2c-1-0.3-1.9,0-2.8,0.2l-1.7-0.6c-0.3-0.6-1-1.4-1.6-1.6    c-1.2,0.1-2.6,0-3.8,0.2c-1,0.2-2.1,0.6-3.1,0.7c-0.6,0.1-1.3-0.2-1.9-0.1c-0.4,0.1-1.1,0.6-1.5,0.7c-0.3,0.1-1.4,0-1.6,0.1    c-1.4,0.4-2.9,1.2-4.4,1.7c0,0-0.3,0-0.3,0l0.4-1.5C501.8,133.4,501.2,133.6,500.9,133.8z M185.6,10.2L185,8.4l1.1-3.7l0.5-0.3    L185.6,10.2z M-192.2,14.3l-0.4-1.4l0.6-2.6l0.3-0.3l0.7,0.9l0.7-0.4l1.9,0.1l1.1-1l1.1-0.2c0.5-0.6,0.8-2.4,0.9-3.1l0.5-0.4    l0.4,1.7l0.8,0.8l3-0.6c-0.4,1.2,0,3.2,0.4,4.4l-0.3,0.7c-0.5,0.6-4.6,1.3-5.5,1.5l-0.1,0.8C-187,16.3-191.1,15.2-192.2,14.3z     M-24,11.4l0.9,0.4l-0.5,3l-0.7,0.5l-0.7-0.6l0.9-0.9L-24,11.4z M183.8,13.5l0.7-0.3l-0.7,13.3l-0.6-0.1l-0.7-0.7    c0.7-2.5,0.3-4.5,0.5-7C183.2,17,183.5,15.2,183.8,13.5z M185.6,15.5l1.2,2.8l-0.7,0.4c-0.4-0.6-1-2-0.9-2.8L185.6,15.5z     M393.2,32.2l0.3,0.6l-0.4,0.8c-0.2,0.1-0.4,0.2-0.6,0.3l-1.8-0.4l-2,1l-1-0.3c-0.2-0.9-2.6-2.5-3.3-2.9c-0.9,0.1-2.4-0.2-3-0.8    l-0.7,0.1l-0.4,0.3c0.5,0.9,1.9,1.9,2.8,2.2l0.6-0.2l2.1,0.7l-2,0.8c-1.4-0.5-3.1-1.2-4.3-2.1l-1.1-2.4c-0.8-0.1-2.2-0.5-2.8-1    l0.4-0.8c0.2,0.1,2.1,0.7,2.1,0.7c0.2,0,1.9-0.2,1.9-0.2c2.6,0.6,5.1,2.2,7.6,2.9C389.6,31.9,391.5,31.9,393.2,32.2z M397.4,32.5    c0.8,0,4.6,0,5.1,0.3l0.2,0.6C401,33.3,399,33.1,397.4,32.5z M193,37.8l-0.4,1.1l0.2,1.1c-1.3,1.1-1.8,1.7-3.6,2.1    c-0.2-1.6,0.2-4.4,1.2-5.8l-0.5-2.4l0.7-0.2C191.4,35.2,191.9,36.6,193,37.8z M195,56.5l-1-2.9l0.4-1.8l-1-1.8l0.3-3.2l1.6,0    c-0.6,1.1,0.2,5.7,0.5,6.8c0,0.1,0.9,1.5,1,1.7l-0.1,0.5L195,56.5z M204.9,63.2l-1.8-0.7l-0.1-1.9l0.3-0.1    C203.3,61.4,204.3,62.7,204.9,63.2z M-39.1,67.3l-0.2-0.7l-1,0.1l0-0.7c1,0,2.4-1,3-1.7c1.9,0.3,4.6-1.3,5.6-0.9l-0.9,1    C-34.6,64.4-37.7,65.7-39.1,67.3z M-21.8,79.7l-1.4-0.2L-24,79c-1.4,0.1-2.9,0-4.3,0.2c-1,0.1-1.8,0.9-2.9,0.4l1.5-1.6l0.2-1.1    c-0.5-0.4-0.9-1.7-1-2.3l1.6-1.5l1,0l0.3,0.8l-0.8,3.6l0.3,1l2.2-3l0.7-0.2l1,0.8c0.6-0.1,1.5-0.7,1.8-1.3    c-1.3-1.6-0.7-4.8,0.3-6.4l0.6-0.2l0.9,0.4c1.4,3.2,3.1,6.6,4,10l-0.7,1.6l1.3,0.1c1.1,2.4,2,5,2.9,7.5l-0.9,0.9    c-0.9,0.1-3.4-0.5-4.2-1c-3.1-2.1-7.5-3.4-10.9-1.4l-0.5,0.9c-0.9,0.1-2.3,2.5-2.6,3.1l-1.9,0.6l-1.2,2.1l-2.9,0.2l-0.8-0.8l0-1    c0.3-0.7,1.9-1.5,2.6-1.7l0-0.7l-0.4-0.2c-0.8,0.5-2.4,0.7-3.3,0.5l-0.4-0.8c-0.1-1.5,2.8-2.1,3.7-2.5c0.8-0.4,1.6-1.2,2.3-1.8    l1-0.1l1.7,1.3l0.3-0.3c0.1-0.5-0.8-2.1-1.1-2.5l0.2-0.7c0.8,0.2,3-0.8,3.6-1.2c2,0.6,5.2,0.5,7.1-0.3L-21.8,79.7z M222.6,76.5    l-2.1-0.6l-0.3-1.6l-1.8,0l-0.5-0.5l0.3-0.6l0.8-0.1l0.2-0.3l-0.5-0.8l-0.6-0.2l-1.2,0.8c-0.3-0.4-1.2-0.8-1.7-0.8l-0.2-0.4    l0.6-1.9l0.7-0.2c1.8,1.9,2.7,1.4,4.5,2c1.4,0.4,1.3,2.3,2.7,2.7l0,1.6L222.6,76.5z M-44.2,74.9l-2.3-0.2l-0.7-0.7l0.3-0.4l0.9,0    l1.6-2.7l0.8,0.3l0.7-1.4l0.5-0.1l0.3,1l1.8,0.2l0.6,0.6l-1.7,1.1l-0.2,0.9C-42.3,73.5-43.7,74.5-44.2,74.9z M231,85.4    c-0.5-0.7-1.8-1.3-2.6-1.4l-1.2-2.5c-0.7-0.1-1.7-0.7-2.1-1.2c-0.3-0.8-0.7-3.5-0.4-4.4c0.9,0.9,2.5,1.7,3.7,2l1.7,2.5l1.6,0.8    l-0.7,2.1l0.9,1.4l-0.3,0.5L231,85.4z M-50.5,76.1l0.7,0.7l0,0.7c-1.4-0.6-6.9,2.1-7.3,3.3l-1.4,0l0.3,0.8l-0.3,1l0.9,1.2    l-0.9,0.5l-0.4,1.1c-1.6,0.5-5.2,2-6.3,3.4c-2.5-0.9-4.6,2.9-7.4,1.4l0-1.3l1.9,0.4l2.7-0.9c0.3-1.3,2.5-2.8,3.5-3.5    c0.6-0.4,1.4-0.6,2-1c0.4-0.3,0.7-1,1.1-1.4c0.7-0.6,1.6-1.1,2.3-1.7l-0.3-0.9l0.3-0.6C-56.3,79.1-52.8,77.4-50.5,76.1z     M-45.7,78.7l-1.4,0.7c-0.4,1.2-1.7,2.6-2.8,3.2l-1.5,0l-0.4-0.6l0.3-0.5l2.2-0.4c0.4-0.9,1.5-2.5,2.5-2.8l0.7,0L-45.7,78.7z     M-41.5,86.5l-0.2-0.9l1.2-3l1.6-0.2l1.3-1.2l0.6,0.1l0.9,1.4l-0.5,0.7l-1.3-0.3l-0.5,1.2C-39.4,84.6-40.8,85.5-41.5,86.5z     M232.6,86.7l-0.2-0.3l0.4-1.2l-0.3-1l0.5-0.4c0.6,1.3,1.4,1.7,2.6,2.3l0.3,0.7l-0.4,0.8C234.2,86.6,234.5,86.8,232.6,86.7z     M-53.5,92.7l-1.3-0.3c-0.9-0.5-0.7-1.5-1.1-2.2c-0.3-0.6-0.9-1-1.1-1.6c0-0.1-0.4-2.6-0.4-2.8l0.6-1l0.9-0.2l-0.2,1l0.6,0.2    l1.3-0.8c0.3,0,3.2,0.3,3.3,0.2c0.1,0,3.1-1.3,3.4-1.4l1.1,0.8l2-0.1l0.2,0.5l-1.3,0.8l-0.8,3.3c-0.5,1.1-3,1.4-4,1.8    C-51.4,91.4-52.5,92.1-53.5,92.7z M-24.8,89.5l-1.2-1.3l-2,0.2l-0.4-0.3l1.1-1c3-0.6,5.4-0.5,8,1.3    C-19.8,89.2-23.9,89.4-24.8,89.5z M231,87.4c1.3,0.3,2.1,1,3,1.9l0.8-0.3l0.7,0.2c0.3,0.7,0.4,1.9,0.1,2.6l-3.4-0.4    c-0.3-0.8-0.5-1.7-1.2-2.3L231,87.4z M-60.2,91.3l-3.2-0.2c0.3-1.1,2.4-2.5,3.4-2.9l1.3,0.2l0.4,0.9l-0.2,0.7L-60.2,91.3z     M239.2,94.1l-1.5-0.3l-0.7-2.1l0.4-1l-0.7-1.9l0.2-0.4l0.7-0.1l3,4.7L239.2,94.1z M-35,94.1c0.2-1.1,1.8-1.2,2.5-1.8    c0.7-0.6,1.4-1.8,2.1-2.5l1,0.3l1.2-0.6c0.6-0.1,1.6,0.4,2.1,0.7c-0.8,0.7-1.2,2.1-2,2.8c-1.2,1-3,1.9-4.3,2.8l-1.2-1.6l-0.5,0.3    l-0.4,1.3l-0.4,0L-35,94.1z M-26.2,91c1.5-0.5,6.9-2.2,8.3-0.6l-1,0.9c-1.8-0.6-5.6,0.2-7.3,0.8L-26.2,91z M-21.2,91.5l0.8,1.1    l-0.8,1.3c-0.6,0.6-6.1,1-6.6,0.4l0.6-0.5c1.4,0.1,3.1,0,4.4-0.5l-0.1-0.9L-21.2,91.5z M-57.5,94.6c-2.5,0.3-6.5,1.2-8.6,2.8    l-2.8-0.7l1.8-1.5l2.7-0.1l0.9-1.5c0.9,0,2.2-0.5,3-1.1l0.9,0.1l-1.4,1.3l2.9-0.1L-57.5,94.6z M-46.7,97.8l-0.3-0.5    c0.4-0.4,0.5-1.6,0.4-2.1l1.1-1.5l1-0.2l0.2,0.5l-1.1,1.4l0,2.1L-46.7,97.8z M241.3,99.3l-0.4-0.7c0.1-0.6,0.7-1.6,1.3-1.9    l-0.5-1.3l0.4-0.5l0.7-0.2c0.2,0.5,0.9,1.4,1.4,1.5c0,1.1,0.8,2.6,1.6,3.3C244.5,100.4,242.4,100,241.3,99.3z M-38.1,96.3l1.1-0.5    l0.3,0.6l-0.7,0.8c-1.4,0.4-5.5-0.3-6.9-0.5l0-0.5C-42.9,96-39,95.3-38.1,96.3z M-3,116.7l-0.6,0.4l-1.2,0l-0.7,0.7    c-1.1,2.8,0.3,4.3-1.6,7.9l0.2,0.5l1.5-1c0.4,0.7-0.5,3.5-0.8,4.1c0,0.1-1.4,1.4-1.6,1.6l-0.4-0.4l-2.6,2.5l1.8,3.2l-0.5,0.6    c-1.3,0-3.3,1-4.2,2.1l-1.5-0.4l-0.9,0.9l0.4,0.7c-1.6,1.4-2.7,3.9-3.2,5.9c-0.2,0.8,0,1.8-0.2,2.7c0,0.2-0.9,1.4-0.9,1.6    c-0.1,1.7-0.1,6.4-1.4,7.7l-1.6-0.2l-0.3,0.5l0.4,0.9l-0.7,0.1c-2.1-1.2-5.1-3.4-7.2-4.3c-0.1,0-1.9-0.1-2.1-0.1l-0.4-0.5l1.1-0.7    l-0.2-0.6l-2.4,0.4l-1.3-1.3l-0.1,1.3l-0.4,0.1l-1.5-1.4l1.1-0.6l-2-1l-0.3,0.7c-0.1,1,1,2,1.6,2.6c2.4,2.3,3,2.9,6.3,2.4l0.4,0.6    c-1,0.2-4,0.6-4.9,0.3c-1.2-0.4-2.6-1.9-4-1.6l-2.5,1.4c0.6,0.7,1.9,1.8,2.9,1.9l0.6,1.5l-1,1.2l0.3,0.7l1.6-0.7    c0.2-0.8,0.9-2.6,1.7-3.1l0.9-0.1l1.7,0.9c-0.9,1-1.9,2.3-3,3.1c-0.1,0.1-1.4,0.5-1.6,0.6c-1.5,0.8-3,2.8-3.9,4.2l-0.7,0.2    c-0.7-0.6-2.2-1-3.2-1l-3.8-4.9l-0.9,0c-0.8-1-2.9-3.2-4.2-3.4l-0.7-1.3l0.6-1.1c1-0.2,2.2-2.2,2.5-3l-2.2-0.7l-0.3-1.3    c-1.4-0.2-3.7,0.8-4.8,1.5l-2.5-0.3c-2.4-3.3-6-1.9-7.9-6l0.2-1c2.9-0.2,5.1,1.6,7,1.4c0.6-0.5,1.8-0.8,2.5-0.8l-1.6-2.5l0.1-0.6    l-0.8-1l-1-0.2c-0.8-0.6-2.9-3.3-3.3-4.1c-0.2-0.5-0.5-2.8-0.1-3.4l0.9-0.7l1.5-0.1l0.2,1.5c1,0.5,2.4,0.9,3.5,1l1.8,0.1    c1.4,0,2.4-2,3.7-1.8l3.2-4.5l1.4,0.3l0-1.7c0.7-0.6,1.9-2.1,1.7-3.1c-0.5-0.7-1.2-2.4-0.9-3.3l0.8-0.7l2.8-0.1    c1.3-0.4,2-4.9,2.1-5.9l1-0.1l2.2-1.9l1.2,1.8l-0.8,1.2c0.4-0.1,1.3,0,1.6,0.4l-0.1,0.4l-3.2,0.6l-2.8,5.6l0.5,0.8    c1-0.4,2.5-5,5.2-5.8l0.7,0.9l1-1.3l1,0.3c1.9-1.2,3.2-6.9,2.2-8.6l3.2-3.2l1.1,0.3c0.2-0.1,1.9-1.1,2-1.2c0.3-0.1,1.8,0,2.2,0    c1.2-0.2,1.9-1,3.9-1.2c0.7-1,1.5-2.3,2.3-3.2c0.6-0.7,8.9-3.7,9.7-3.9c0.1,0.2,1.2,1.6,1.2,1.7c0.3,1.3,0.5,2.5,1.3,3.6l-0.1,0.9    c0.9,1.2,1.4,3.5,1.6,4.9l2.7,2.3l2.9-0.1l0.7,0.9c-0.7,1-1.7,2-2.6,2.9C-3.1,113.8-3.7,115.9-3,116.7z M-33.8,99.2l-1.1-0.5    l-0.1-0.5c1.1,0.1,2.8-0.2,3.7-0.9l0.6,0.4C-31.3,98.3-32.9,99.3-33.8,99.2z M-44.3,98.9l-0.6,1.4l-1.4-0.8l0-0.4    c1-0.4,2.1-0.9,3.2-1.1l0.7,0.2C-43,98.4-43.6,98.7-44.3,98.9z M-49.6,101.9c0.4-0.5,1.4-1,2.1-1.1c2.1,0.6,4.8,1.3,6.6,2.6    l0.7-0.1l0.2-0.3l-1.1-0.8c5.6-4.3,4.3-0.9,8.2-1.7c2.1-0.4,4.4-1.6,6.3-2.6l0.2,0.5c-1.8,1.9-6.5,2.9-8.9,4.1    c-1,0.5-2.9,2.6-4,2.3c-1.8-0.5-5.1-0.9-6.5-2.3l-2.1,0.1l-0.3-0.7L-49.6,101.9z M-53.3,101.1l-2.3-0.3l1.7-2.2l0.9,0.2l0.3,0.6    l-0.8,0.8L-53.3,101.1z M-92.2,109.3c-1.3-1.2-3.2-3.5-3.6-5.3l0.3-1.4c2.5,0.3,3.4,2.4,3.7,4.7l0.6,0.5l1-0.3l0.6-1.2l1.5,0    l0.3-0.4l-0.7-0.9l-0.1-1c0.5-1,2.7-1.8,3.6-2.8l1.6,0.6c1.1-0.2,3.5-1.9,4.4-2.5l1.2,0.4l1.4-0.5l0.2,0.5l-0.3,0.8l-2.4,1.3    l-0.5,1.8l-0.9,0.5c-0.8,0-4.2-0.4-4.8,0.1l-0.5,0.6l0.3,0.9l-0.3,0.8c-1.1,0.2-3.1,1.8-3.9,2.5L-92.2,109.3z M244.3,105.4    l-1.4-0.5c-0.1-1-0.6-2.7-1.4-3.4l0.3-0.5l1.5,0.2c0.7-0.6,2.3-0.6,3.1-0.3c0.4,0.9,0.5,2.6-0.3,3.4l-1.4,0.1L244.3,105.4z     M-76.6,114.1l-1,1.3l-2,0.9l-0.7,1.8l-1.4,0c-0.6-0.8-1.2-2-1.8-2.7c-0.1-0.1-1.1-0.4-1.2-0.6c-0.3-0.2-1.2-1.6-1.3-1.7    c-1.2-0.8-4.1-2-5.6-1.5l-0.3-0.6c0.8-0.2,1.8-0.5,2.6-0.8c0.2-0.1,1-0.8,1.2-0.9c1-0.4,2.3-0.5,3.4-0.8l0,1.2    c0.9,0.3,2.7-0.1,3.5-0.6c0.7-0.5,1.2-1.4,1.9-1.9c0.9-0.6,3-1.1,3.4-2.3l-0.3-1.1c0-0.7,3.3-2.6,4-3l0.6,0.8l1.5-0.3l0.3,1    l2.8,0.6l-0.9,1.1l0.7,0.3l1.9-0.5l0.1,0.6l-3.5,1.3l-0.5,0.8l1.2,2.2l-5.1,1.8l-0.2,0.5l0.8,0.7l-1.3,1.2l0.8,0.8l0.8-1.1    l0.8,0.8l2.2-0.9l0.4,0.5c-0.6,0.3-1.3,1.3-1.4,1.9l-0.9-0.1l-1.4,1.5l-4.1-0.3l0.8-1.6L-76.6,114.1z M-69.6,116.9l-0.8-0.1    l0.4-0.9c2.2-0.8,9.4-9.1,8.5-11.3l0.7-0.5l1.7-0.1l1.4-1.4l0.6-0.1l1,0.8l-0.5,0.8l0.1,0.8l1.4-0.3l0.8,0.3l-0.9,1.8l-1.5,0.6    l-0.3,0.5l-1,0.2l-1,1l-0.4-0.7l1.8-2.5l-2.4,0.7c-0.5,0.7-1,1.7-1.5,2.3c-1.1,1.2-2.4,2.3-3.5,3.4    C-66.4,113.8-67.8,115.6-69.6,116.9z M247.6,107.7L247,108l-0.4-0.4l0.8-3.4l1-0.2l0.4,0.5l-0.3,1.5c2.8,1,3.4,2.7,5.1,5.1l1.1,0    c1.3,0.5,1.8,2.1,3.5,2.7l1.3,2.6l1.6,1l-0.2,0.7l0.4,1l-0.2,0.4c-0.7,0.3-2.9-0.4-3.6-0.7l-1.2-1.5l-0.9,0l-0.9,0.6    c-0.1,0-0.3-0.2-0.3-0.3c-0.8-1.8-1.7-3.5-1.3-5.5l-1,0.3c-0.5-0.1-2.4-0.6-2.7-1.1C248.7,110.1,247.8,109,247.6,107.7z     M-57.8,112.5c1.3-0.4,3.1-0.3,4.3,0.1l1.2,1.2l1.8,0.2l0.2,0.3l-1.1,1.5l0.2,1l-1.8,0.6l-0.8,1.6l1,3.7c-2.1,3.2-3.2,2.5-6.5,3    c-0.8,0.1-1.6,0.4-2.4,0.6c-0.8,0.2-1.7,1.2-3.5,1.5c-1.8,0.3-4,0.1-5.7,1c-0.2,0.1-1.5,1.6-1.8,1.8c-1,0.6-3.3,0.8-4.4,0.6    c-0.5-1.1-1.9-2.5-3-3c-0.4-2.3-2.6-3.8-2.9-6.2l0.5-1.4l0.9-0.3l0.3,0.1c0.2,0.1,1.6,0.5,1.7,0.6c1.3,0.8,2.1,2.3,3.9,2.1l1-0.8    l0.5-2.7l0.8,0.4l0.9-0.5l0.2-1.3l0.5-0.3c0.6-0.1,1.5,0.2,1.9,0.5l2.2-1.1l0.4,0.4l-1.3,1.7l0.1,0.8l1.5,1.3l0.1-2.1l0.7-0.9    c1.3-0.6,3.5,1.3,5.7-0.5c0.5-0.8,0.1-3.4-0.1-4.2l0.9-1.6l-0.2-0.7l0.2-0.5c3.5,0.1,5.6-2.7,7.4-5.3l2.8,0.5l1.7-1l1.2,0.6    l2.2-0.4c0.9,0.6,3.8,2.2,4,3.2l-1,1.5c-1-0.1-1.9,2.4-3.3,2.6l-2.2-1.7l-0.3-1.1l-1.2,0l-1-0.8l-1.7,2.1c0.1-0.7,0.2-3.1-0.4-3.7    l-0.8,0.1l-0.5,0.6l0.4,0.9C-54.3,109.2-56.7,111.2-57.8,112.5z M-14.1,218.5l0.4,1.2l-0.3,0.8l-0.8,0.1l-1.3-1.1    c-1.5,0.3-3.2,0.2-4.5-0.7l-1.1-2l-2-0.3l-0.3-0.4l1.5-1.4l-0.3-0.7c-2.1,0.4-4.3-1.7-6.1-1l-1-1l-2.5-0.5l1.3-1.4l1,0.2l0.6-0.9    l1.6,0.6l0.3,1.2l1.4,0.2l0.6-1.1l1.1-0.3l-0.1-0.8l-1.4-1.3l0.4-0.6l4.5,0.7l1.1,1.2c0.5,0.3,2-0.1,2.4-0.3l0.4,1.5l1.1-0.6    l0.6,0.1l0.6,1.2l3.4-1.7l2.6,0.7l1.3-1.1l1.3-0.2l0.3,1l1.3-0.4l0.3-0.5l-1.1-0.4l0.3-0.5c1.7,0,4.5-1.7,5.7-2.8l0.1-0.7    l-1.3-0.2l-2.6,2.2c-1.4-0.2-4.3-0.1-5.4,0.9l-1-0.2c1.1-1.1,1.5-3.2,2-4.7c-0.5,0.4-3.5,2.3-3.5,2.8l0.4,1    c-0.5,0.7-2,2.5-2.9,2.6l-0.8-0.2l-1.7-1.7l1.5-2.3c1.2-0.1,4.5-1.2,5.3-1.9l2-2.7c0.4-0.6,1.4-1.8,1.3-2.7l-3.1,4.4    c-1.5,2.1-4,1.1-6.1,2l-0.7,1.8l-1.8-1.2l1.2-0.8l0.5-1c0.9,0.1,2.5-0.2,3.3-0.8l-0.3-0.5c-0.9,0.2-3.5,0.3-4.3-0.4l-0.9-2.1    l-1.1,1.5l-0.8,0l-0.2-0.5l1-1.6l-0.2-0.6l-0.7,0.2l-1.1,1.2l-1.3,0.1l-0.6,0.5l0.5,0.8c-0.1,0.1-0.5,0.4-0.5,0.4    c-0.4,0.1-0.9,0.1-1.3,0.2c-1.5,0.5-3.1,1.5-4.6,1.9c-1.1,0.3-2.5-0.1-3.6,0.1c-2.3,0.4-5.7,2.1-7.9,1.2c-0.9-0.4-2.6-0.8-3-1.9    l0.1-0.5l2.1,0l0.1-0.3l-0.8-0.2l0.2-1l-0.9-0.6l0.7-2.8c1.1-1.1,2.9-0.3,4.2-1.4l4.3,0.4l2.6,2.6c1.5,1.5,2.5,2.4,4.7,2l1.1-0.9    l-3.2-0.7c-0.2-0.2-0.3-0.4-0.5-0.5c-4-3.8-2.6-3.6-7.7-3.7l-1-0.8c-1.3,0.4-3.9,0.3-5.1-0.6l-0.4-0.7l0.3-0.5l2.6-0.1    c1-0.9,3-1.9,4.4-2l-0.4-0.3c-2.1,0.7-4.1-0.7-6,0l-0.4-0.3l0.9-0.8l1.5-0.2c1.1,1,4.2,0.5,5.3-0.2c-1,0.1-3.7,0.2-4.5-0.5    l-0.4-1.2l-2.3,0.6c-1.4-0.6-3.2-1.8-3.2-3.5l0.5-1.2l0.9-0.8l1.5,0.1l0.6,0.4l0.9-1.5l-0.7,0.2l-0.6-0.4l-1.5-0.2l-1.5-1.5    c0.2-1.6,1.4-3.8,2.2-5.1l-0.3-2.3c-0.2,0.6-1.1,1.4-1.7,1.5c-0.5-0.3-0.8-1.7-0.8-2.2l-0.9-0.9l-2.3-0.4l-1-1.6h8.5l0.5,0.6    l1.5-0.6l0-0.6c0.7-1.8,4.3-4.4,5.8-5.4l0.6,0.3l0,0.7l0.6,0l1.7-1.5c0.6,0,2.1,0.3,2.5,0.8l0.3,1.4l0.8,0.1l0.5-0.5l-0.4-0.4    l-0.1-0.7l0.9-0.8c1.8,0.5,3.3,1,5.2,0.9c0.8-0.3,1.4-2.3,1.6-3.1l0.5-0.2l0.3,0.8l1.3,0.9l0.7-0.4l-1.3-1.5l0.3-1.3    c0.8-3.4,0.2-2,2.4-4.8c0.4-0.4,0.6-0.6,0.9-1.1c0.1-0.2,0.5-2.6,0.7-3c0.6-1.5,1.5-3,2.3-4.4c0-0.7-0.2-1.5-0.4-2.2l0.4-0.8    c3.6-1.4,6.9-3.3,8.6-6.9l0.7-1.6c0.4-1.9,0.6-4.6,0.6-6.6c0-1.7-1-3.7,0.2-5.3c1.1-0.6,2.2-2,2.9-3.1l0.6-0.2l0.2,0.7l1.6,0.2    l-0.3-0.9l0.2-0.4l0.8-0.1c0.6,0.3,2.5,1.4,2.6,2.2l-0.6,1.4c0.3,2.4,1.3,3,1.9,4.8c0.7,2,0.9,4.2,1.6,6.2    c0.8,2.1,2.6,2.9,3.5,4.1c1.4,2,2.7,4.3,3.9,6.4l-0.2,0.8l0.3,0.8c-0.2,0.8-0.5,1.8-0.6,2.7c0,0.3,0.3,1.1,0.3,1.4    c0,0.6-0.4,1.2-0.4,1.7c0,0.2,0.3,4,0.3,4c0.5,1.8,1.8,3.4,2.3,5.2c0.3,1,0,2.4,0.2,3.4c0.4,2,1.1,3.9,1.6,5.9    c0.4,1.8,0.5,3.8,1,5.5c0.1,0.2,0.9,1.2,0.9,1.5c0.9,2.6-0.3,5.5,0.9,8c0.7,1.4,2.7,3.5,2.7,5.1c-0.8,2.8-3.3,8.9-1,11.7    c-1.2,2.1-1.4,4.2-2.2,6.4c-0.3,0.9-1,1.7-1.3,2.6c-0.3,0.9-0.5,3.4-1.3,4l-0.5,0.1l-0.2-0.7l1-3l-0.3-0.5l-1.7,3.6l-0.6-0.3    c-0.4-0.7-0.7-1.5-1.1-2.1c-1.4-2-5.2-1.3-6.1-2.4l0.2-0.4l1.3-0.2c0.2-0.8,0.4-3-0.2-3.8l-0.5-0.1l-0.2,1.6l-0.8-0.1l-1.8-2.1    L9,202c-1,1.7-2.9,2.3-3.6,4.2L4,206.5l-0.7,1.2l-1.6,0.9c0,0.8-0.7,1.9-1.3,2.3l-1.5,0.2l-1.2-0.6l-0.7,0.2    c-0.5,1.1-2.3,2.6-3.2,3.2l-1.5,0.2c-1,1.2-3,2.4-4.6,2l-0.9,0.6c-1.7,0.2-3.2-1.3-5.1-1.2l-0.6,0.5c0.9,0.3,2.9,1.2,3.4,2.2    L-14.1,218.5z M269.8,129.7c-0.8-0.6-2.4-1.4-3.4-1.4l0.1-2.7c-1.3-1.4-2.8-2.9-3.8-4.5l0.1-0.5l0.8-0.3l0.9,1.5    c2,0.2,5.1,5.5,6,6.9l-0.2,0.8L269.8,129.7z M255.2,130.9l0.2-0.6c0.7-0.9,4.4-0.9,5.4-0.5l0.4,0.5l-1.8,1.4    C258.6,132.1,256,131.3,255.2,130.9z M276,138.2l-1.4-1.4l-1.5-0.2c-0.7-0.4-1.5-1.4-1.7-2.2l-0.9-0.5l-0.3-0.5l0.6-2l0.9-0.1    c0.5,1,2,2.5,3.2,2.7c0.5,0.7,2.3,3.1,2.2,4L276,138.2z M289.5,167.6l-1.4-2.8c-1.6-0.3-2.1-1.3-2.1-2.9l-1-1.1    c-0.6-0.1-2.3-0.4-2.7-1l0.1-4.1c-1.4-1.4-3-3.5-3.6-5.4l-3.7-2.3l-0.4-0.8l-1.4-0.6c1.1-0.9,3.1-5.1,3.7-6.4l0.6-0.2    c1.7,2.5,3.7,5,4.9,7.8c-0.2,0.7-0.2,1.8,0.1,2.5l0.8,0.7c0.9,0.7,0.3,0.2,1.1,2l1.5,3.4c0.1,0.2,1.1,1.1,1.3,1.4    c0.3,0.4,0.4,1.1,0.7,1.5c0.5,0.7,1.5,1.2,2,1.9c1.3,1.8,1.3,4.2,2.2,6.1c0.1,0.3,1.4,1.5,1.6,1.9c0.7,1.1,1.2,2.6,1.7,3.8    l-0.3,0.5l-1.2-0.7l-1.5-3.8L289.5,167.6z M-18.3,153.7l-0.5-0.6c-0.2-1.2,0.9-2.2,1.3-3.2c0.7-1.7,1.3-3.6,1.9-5.3l0.6,0.1    l0.1,3.9C-16.4,149.7-17.7,152.1-18.3,153.7z M104.2,161.3l-3.3-1.6l-0.1-0.8c0.5-0.6,2.2-1,2.9-1l0.7,0.4l0.5,1.9l-0.4,1    L104.2,161.3z M-27.1,159.5l-3.9,0.2l-0.3-0.5l2.1-0.5L-27.1,159.5z M301,183c-0.6-0.4-1.7-0.7-2.4-0.6c0-0.6-1-1.6-1.4-1.9    l0.4-1.6l-1.4-2.3l0.1-0.8l0.3-0.1c1.5,1,4,4.8,4.6,6.5L301,183z M306.9,189.2l-0.8,0c-1.1-0.9-2.3-2.2-3-3.5l0.1-0.7l0.7,0.2    C304.3,186.9,306.6,187.9,306.9,189.2z M28.7,187.9l1.5-1.7l2,1.5L28.7,187.9z M314.9,197.8l-3-1c-0.6-1.4-2.4-1.7-2.9-3.1    l0.1-0.6l0.8-0.2c1.4,0.1,2.8,3.7,4.8,3.9L314.9,197.8z M-42.1,196.7c-0.7,0.3-1.5,1.1-1.8,1.8l-0.8,0.1c-0.4-0.6-1.7-1.1-2.4-1.2    c1.1-0.1,2.6-1.2,3.1-2l0.7,0L-42.1,196.7z M319.4,202.8l-1.3-0.5l-1.7-2.5l0.2-0.5l1.2,0.3l0.5,1.6l1.5,1L319.4,202.8z     M568.4,211.7l-0.8-0.3c-0.9-0.8-1.6-2.2-2-3.3c-0.8-2.3-1.3-2.2-0.2-4.3l1.1-2.1l-0.4-1l0.3-0.5l2.3,1.3l0.5,1.5l2.1,0.3l0.5,0.7    C571.7,205.2,568.4,205.6,568.4,211.7z M315.1,205.7c-0.3-1.3-1.6-2.9-2.5-3.9l0.2-0.7c0.6-0.6,2.2-0.5,2.9-0.4    c1.4,0.7,1.1,2.8,0.8,4l-0.6,0.8L315.1,205.7z M25.6,204.8l-0.3-0.5c0.2-1.1,0.7-2.2,1.1-3.3l0.6-0.2l0.2,0.5l-0.7,3L25.6,204.8z     M-22.3,203.1l-0.2-0.8l0.3-0.9l4.4,0.5l0.2,0.7c-0.9,0.4-2.8,0.2-3.7,0L-22.3,203.1z M10.6,203.7l-0.1,2.3l-0.5,0.4l-3,0    c1-0.4,2.1-1.7,2.3-2.7L10.6,203.7z M-41.8,207.5l-0.1-0.4c0.8-1.7,3.4-1.3,4.4-1.5c1.4-0.3,2.9-1.1,4.3-1.5l1.7,0.6    c-2,1.7-3.8,0.7-5.1,1.6l-1.4,1.8C-38.9,208.2-41,207.7-41.8,207.5z M-34.9,211.6l-0.6-1.4c-1.4,0.9-4.3,1.8-5.9,1.3l0.1-1.4    c2.4,0.3,4.2-1.1,5.6-3l2.9-0.1l1.6-1.4l1.1-0.1l0.4,0.8c-0.2,1.1-1.8,1.8-2.8,1.9l0,1.1C-32.8,210.4-33.6,211.6-34.9,211.6z     M324.2,210.1c-0.4-0.4-0.7-1.2-0.7-1.7l0.4-1.1l-0.4-0.1l-0.5-1l0.4-0.8c1.1,0.8,2.6,2.5,2.9,3.9l-0.2,0.5    C325.6,210.2,324.7,210.4,324.2,210.1z M-8.4,221.8l0.4-1.6c0.4-0.6,1.8-0.8,2.4-0.8l0.5-0.7c-0.8-0.1-2.9-0.5-3.5-1.1l-0.1-0.5    c2.6-0.8,5.7-2.8,7.8-4.5l2.3-0.1l1.5-1.5l0.3,1.3c0.4-0.7,1.6-1.6,2.4-1.6l0.1-0.8l-0.4-0.5l-1.5,0c0.3-0.5,1.1-1.2,1.8-1.2    l1.8,2.6l1.1,0.1l0.4-2.1l-1.2-0.9l1.8-0.6c1.7,0.2,3.5,2,4.9,2.9c0.8,0.5,1.9,0.8,2.7,1.3c0.8,0.5,1.7,1.4,2.4,2l1.1,0.2l0.3,0.4    c-0.7,2.4-1.4,4.9-2.3,7.2c-0.3,0.9-1,1.7-1.3,2.7c-0.1,0.4-0.5,2.5-0.6,2.7c-0.7,1.4-2.1,2.9-3.1,4.2l-1.2,0.3    c-0.5,0.8-1.9,1.5-2.8,1.7l-0.3-0.3l1.6-1.5l0.2-0.8l-0.3-0.2l-2,0.8l-1.1,2.1l-1.2,0l-0.8-1.8l-1-0.3l-0.4,2.5l-0.6,0.1L3,231.3    c-0.2-0.2-2.8-1.8-2.9-1.9c-0.9-1-1.8-2.9-2.6-4.1l-0.6-0.2l-0.4,1c-1.3-0.1-2.9-0.8-3.9-1.6c-0.3,0.7,0.3,2.1,0.6,2.7    c0.4,0.6,4.1,1.2,4.9,1.4c0.2,0.6,0.6,2,0.3,2.6l-0.7,0.1l-0.1-1.6l-0.3-0.4l-0.8,2.7l-1.1,0.7c-0.8,0.8,0.1,2.6-0.8,3.4l-1.3,0.2    l-0.6-0.3l0.9-1.4l-0.3-0.4l-1.2,0.1l-0.9-1.5l0.6-0.8l-0.1-0.5l-2-0.2l-0.5-1l-1.6,0.4c-0.8-0.9-2.2-0.4-3.2-0.6    c-0.9-0.2-1.3-0.9-2.4-0.7c-0.7,0.1-1.4,0.5-2.1,0.6c-1.3,0.1-1.7-0.4-2.7-0.9c-1-0.4-5.9-1-6.8-0.8c-0.1,0-1.5,0.8-1.7,0.9    l-0.4-1.1l-1.3,0.2l-0.3-0.9l-1-0.2l0.1-1.7l6.3-1.9l0.5-0.6l-0.2-0.4l-1-0.1l-0.2-0.6l0.8-1.6l1.6,0.2c0-0.8-1.2-2.2-1.8-2.7    l3.8-0.1c0.3,0.6,1.1,1.3,1.7,1.5l0.1,0.7l-0.5,1c0.8,0.1,1.8,0.3,2.6,0.3c1,0,2.1-0.5,3.1,0.1l1.1,2l0.7,0.2    C-13.3,222.4-10.7,221.1-8.4,221.8z M17.4,210.5l-2.6-1l0-0.5l0.4-0.2c0.5,0.2,2,0.8,2.4,1.1L17.4,210.5z M330,213.9    c-1.2-0.5-2.9-1.5-2.7-3l0.5-0.6l1-0.3l1.1,0.4l0.2,0.8l-0.3,0.9l0.5,1.3L330,213.9z M-46.3,213.2l0.6-1l1.5,0l0.7-0.7l0.9-0.1    l0.6,1.8l-0.7,0.8l-3.3-0.4L-46.3,213.2z M-28.1,216.2l-0.3-0.9l0.4-1c0.5-0.2,2,0.5,2.4,0.7l-0.1,0.5L-28.1,216.2z M-46.3,218.4    l-0.3-0.4l0.3-2.1l1.8-0.7l1,0.4l0.4,0.7l-1.3,1.7L-46.3,218.4z M-31.1,222.3l-1.1-0.7c-1.5,0.3-1.8,0.4-3.2,0.2l-0.3-1l-1.8-0.6    l-0.5-0.6l1.6,0l2.3-1.4l-0.2-0.6c-0.9,0-3-0.3-3.8-0.8c0-0.3,0.5-0.7,0.7-0.9l0.9-0.2l0.8,0.8c0.8-0.4,3.7,0.6,4.4,1l0.4,0.7    l-0.2,0.7l-1.2,0.1l0.1,1.1l2.5,0.1l0.2,0.5l-1,1.6L-31.1,222.3z M337.2,218.4l-1.5-1.4l0-0.8l0.6-0.2c0.8,0.2,2.9,3.6,3.4,4.4    c0.4,0.6,0.6,1.7,0.3,2.4l-0.9,0.4l-0.5-0.4C338.3,221.2,337.4,220,337.2,218.4z M-14.1,218.5l0-0.5c0.6-0.1,2.2-0.5,2.6-1.1    l0.8,0.1l0,2.6C-11.5,219-13.1,218.6-14.1,218.5z M341,218.5l0.6-0.7c1-0.2,1.9-0.1,2.9,0.2c0,1.2,2.9,3.9,3.8,4.6    c0.9,0.7,2,0.4,2.7,2l1.9,0.6c0.3,1,1.6,2.1,2.5,2.5l-0.4,0.5l-1.5-0.1c-1.4-1.8-3.2-2.6-5.2-3.5l-1.3-1.9l-1.7-0.4l-1.1-1.8    l-2.8-0.5l-0.6-0.6L341,218.5z M-47.9,222.3l-0.8-0.3l0.9-1.2l1.2-0.2l0.6,0.5l-0.7,1L-47.9,222.3z M-36.7,225.6l-0.9-1.9l-1-0.4    l-0.8-2l0.2-0.5c1.1,0.2,2.8,1,3.5,1.8l0.2,1L-36.7,225.6z M329.5,226.9l-2.8-0.2l-0.3-0.6l0.3-0.6l0.5-0.1    c0.6,0.4,1.7,0.6,2.4,0.5l0.3,0.5L329.5,226.9z M357.5,230.8l-0.3-0.4l0.5-0.7l-0.3-1.1l0.7,0.1l1.7,1.4l-0.4,0.5L357.5,230.8z     M329.3,235.1l-0.8-0.4c0.1-0.8-0.9-2.3-1.4-2.9l0.6-1.6l1.1,1.7l1-0.2l1.1,0.8l0.2,0.8c-0.2,0.6-0.5,1.2-0.9,1.7L329.3,235.1z     M-0.5,233.2l-0.4-0.5l0.9-1.7l0.6-0.2c0.9,0.3,2,2.8,2.3,3.6l-0.2,0.4L1,234.6l-1.5,0.9l-0.5-1.8L-0.5,233.2z M-17.9,242.8    l-3.6-1.9c0.5-0.8,1.4-1.8,2.3-2.2c1-1.1-1.4-5.3-0.3-7.4l1.3,0.7c0.9,2.3,2.9,3.8,5.4,4.1l0.4,1.1l-0.4,1    c-1.4,0.7-4.1,2.7-4.4,4.4L-17.9,242.8z M353.4,245l-1.2-0.6l-0.4-1.6l1-1.9l-0.5-1.2l0.8-1l0-0.7l-1.1-0.1l-0.3-0.7l1.1-2.7    l-0.9-1.4l0.2-0.9l0.6-0.1c2.3,0.7,2.1,5.8,6.9,6.3l0.2,0.7l-0.3,0.9l-1,0.6l-0.1,0.5l0.9,1L359,243L353.4,245z M335.1,238    l-2.7-0.7l-1.1-2.5l0.7-0.1l3.6,2.3l0,0.7L335.1,238z M2,238.3L0.5,238l-0.8-1.2l1-0.2c0.6,0.1,1.5,0.8,1.8,1.4L2,238.3z     M342.3,240c-0.5-0.7-2.4-1.1-3.2-1.1l0.2-0.5l1.8-0.4c0.6,0.1,1.4,0.7,1.7,1.2l0,0.8L342.3,240z M343.7,239.1l0.2-0.3    c0.6-0.3,1.8,0,2.3,0.3l0.7,1l-0.3,0.5C346.2,241.1,344.1,239.7,343.7,239.1z M413.6,276.6l6,6.8c0.8,0.9,2.2,1.8,3.2,2.6    l-0.7,1.6l0.4,0.4l1.5,0.2l0.8,0.7l-0.1,0.4l-0.7,0.1l-0.4,0.5c0.5,0.6,2.3,0.9,3,0.9l-0.2,0.8l0.7,0.8c0.5,0.1,1.2,0.2,1.7,0.1    c0.2-0.1,1.9-0.7,2-0.7c1,0,2.5,0.4,3.6,0.6l4.3,4.8l5.9-0.4l0.1,0.9l-1.4,1l-0.6,1.4l0.9,0.1l1-1.3l1.2-0.2l0.6,0.9l-0.1,0.7    c-0.4,0.6-1.9,1.1-2.6,1.3c-1.5-0.7-4.1-0.6-5.7-0.3l-0.6-0.4c-0.1-0.6-0.5-1.7-1-2l-1.4-0.4l-0.9-1.1l-1.8-0.3    c-0.2-0.6-0.9-1.4-1.5-1.7l-1,0l-8.8-0.4l-4.7-0.2c-0.1,0-2.2-1-2.4-1.1l-0.5-0.2l-0.3-1.6c-0.6-0.6-2.9-2.8-3.9-2.8l-0.2,1.6    l-1.8,0.5c0,0.5-0.3,1.7-0.8,1.9l-1,0l-1.8-2.3l2.9-2l0.5-1.6l0.6-0.4c1.3-0.1,3.4,0.7,4.4,1.7l0.4-1l0.6-0.2l0.5-0.7l-0.1-0.4    c-0.6,0-2.4,0-2.9-0.5l-1.6,0.1l-0.4-0.6l0.1-0.9l-0.9-0.3l-0.6-0.8l0.3-0.5l2.5,0l0.3-0.5l-0.2-0.4c-1.7-0.3-2.8-0.8-4.4-0.4    l-1.2,1.2l-0.8-2.1l-0.4-0.1l-0.1,1.1l-0.5,0c-0.2-0.2-1.8-2.3-1.9-2.3c0-0.1-0.6-3.4-0.7-3.8l-0.7-0.3c-0.1,0.6-0.4,3.7-1,4    c-2-2.7-4.9-4.8-7.5-6.9c-0.8-0.6-1.4-1.6-2.1-2.3c-3-0.3-4.7-2.1-7.1-3.5c-4.5-2.5-9-3.2-14-4.1c-1.1-0.2-1.7-0.4-2.7-0.4    c-0.8-0.1-4.4,0.9-5.1,1.7l-0.5,2.1l-0.7,0.5l-0.7-0.6c0.6-0.9,0.9-2.7,0.5-3.7c2.4-0.7,5-1.9,6.3-4.1l0.8,0.1l1.7,1.4l1.2,0.2    c0.6-0.1,1.4-1.1,1.6-1.6l-0.8-0.3l-1.2,0.5l-0.4-0.5l0.2-0.9l-0.3-0.8l-2.1-1.4l-0.1-1.5c-1-1.1-3.6-1.6-5-1.7l-1.2,0.8l-0.6-0.1    c1.7-1.7,3-5.3,3.3-7.6l3.9,0.9l1.4-0.6l1.7-2.6l-0.6-1.6l0.3-0.6c0.2,0.1,1.5,0.6,1.6,0.6c1.5,1.9,3.1,4,5,5.5    c0.5,0.4,1.4,0.6,1.8,1c1.6,1.5,5.1,6.4,7.7,6.3l1.8-0.6c0.9,0.4,2.2,1.2,2.8,2l-0.3,0.4l-2,0l-0.4,0.6l0.2,0.6l0.5,0.4    c1.1,0.9,2.3,1.8,3.3,2.7c1.7,1.6,3.1,3.5,4.7,5.1c4,3.8,8.3,7.3,12.5,11c0.1,0.1,3.2,1.5,3.7,1.7L413.6,276.6z M364.3,243.6    l-0.9-0.1c-0.3-0.9-1.4-2-2.3-2.4l0.1-0.5l0.5-0.1c0.6,0.8,2.1,1.7,3.1,1.9l0.5,0.7L364.3,243.6z M-22.8,243.3c-1,0.5-3,0.4-4,0.4    l-0.3-0.6l0.7-0.6l3.6,0.6L-22.8,243.3z M357.8,250.4l-0.5-1.2l-2-0.6l-0.3-0.6l0.5-0.9l-0.6-0.3l-0.2-0.9l0.3-0.5l1.4-0.4    l0.7,1.5l0.6,0l0.4-2.2c0.4-0.5,1.4-0.7,2-0.6C360.7,245,359.2,249.6,357.8,250.4z M361.2,256.6c-0.4-0.6-1.3-1.5-2-1.7l0.1-0.5    c0.6-0.6,2-1.2,2.9-1.1c0.3,0.8,0.2,2.2-0.3,2.9L361.2,256.6z M516.1,262.6l-0.3-0.6c0.5-0.7,1-2.2,0.8-3.1l0.5-0.1l0.9,0.9l1-0.1    l0,0.9l-1,0.4l-0.9,1.5L516.1,262.6z M416.8,275l0.3-0.4l1.6,0.4c2.9,3.4,3.9,4.5,8.1,6.6l0.4,0.7l-0.1,0.7    c-1.1,0.2-2.2-1.2-3.8-1l-0.8-1.7l-1.1-0.3C420.4,278,418.3,276.5,416.8,275z M398.4,294.7l-0.4-1.5l0.7-1.9l0.8-0.6l1.5,0.1    l0.3,0.4c-0.7,0.7-1.3,2.1-1.6,3.1L398.4,294.7z M437.6,294.9l-1.3-2.1l0-1.4l0.6-0.2C437.6,291.8,437.7,294.1,437.6,294.9z     M407.8,294.2l-0.7-0.5l1.5-2.2l2.5,1.2l0.3,0.6l-0.6,0.8L407.8,294.2z M404.2,294.9c-0.5-0.5-1.7-0.9-2.5-0.8l-0.4-0.6l0.8-0.9    l0.1-1l0.6,0c0.9,0.4,1.8,1.6,2,2.5L404.2,294.9z M440.9,295.8l1.1-1.2c0-0.5,0.2-2,0.7-2.3l1.1-0.1l2.5,1.6l-0.2,0.5l-1.5,0    l-1.6,1.5L440.9,295.8z M384.5,295.5l-0.4-0.4l0.1-0.8c0.6-0.5,2.4-1.8,3.3-1.6l0.3,0.5l-0.3,0.6L384.5,295.5z M380.4,296.6    l-0.3-0.6c0.1-0.6,0.7-2.1,1.3-2.3l0.9,0.5l0.5,1l-0.9,1L380.4,296.6z M476.8,309.2l-0.4,0c-2.9-2.8-5.9-2.5-9.7-1.8    c-1.5-1.7-3.4-2.5-5.3-3.4c-2.3,1-4.8,1.6-7,0l0.9-1l-0.4-0.8l0.3-0.7l-0.3-0.5l-5.3,0.1c0.2-1.6-1.8-3.2-3-3.8l0.7-0.5l-0.9-1.2    l0.6-1.1l0.7-0.3c1.8,2.1,2.6,1.6,5.2,1.6c1.4,0.7,3.5,2,4.4,3.3c2.3,0.2,7.2,0.6,9.3,1.7c1.8,1,6,2.9,7.5,4l2.1,2.7l1,1.3    L476.8,309.2z M375.2,298.3l-0.6-0.6l0.1-0.7c0.6-0.5,2.1-1.7,3-1.7l0.6,0.2l0.3,0.5l-0.9,1.3L375.2,298.3z M413.7,297.7l-0.5-0.7    l0.4-1c0.7-0.4,2.6-0.4,3.4-0.3l0.5,0.4C416.8,296.9,414.8,297.9,413.7,297.7z M363.6,299l-0.1-0.7c0.8,0,2.1-0.9,2.7-1.4l0.8,0.2    l0.4,1l0.8,0.4l0.3,0.6l-0.3,0.3C367,299.6,364.6,299.8,363.6,299z M435.1,302.4l-1.2-1.3l-1.1,0.1l-0.3-0.3l0.3-0.8l1.5-1l1,0.2    c0.1,0.7,0.6,1.6,1.1,2.1l-0.3,0.7L435.1,302.4z M451.5,305.7l-0.4-0.3l0-1.4c-0.6-1.3-3.5-1.2-3.8-2.1l0.1-0.6l0.7-0.1l1.4,0.7    l2.6-0.2l0.8,0.8c-0.5,0.7-0.9,2.1-0.9,2.9L451.5,305.7z M415.4,304l0-0.8c0.7-0.7,1.8-1.4,2.7-1.7l0.6,0.1l0,0.7    C418.1,302.9,416.4,304.2,415.4,304z M483.7,310.9c-1.2,0-4.9-0.6-5.4-1.9l0.2-0.5l5,1c0.5-0.6,2.1-0.6,2.8-0.5l3.6,2.6l-0.4,0.5    C487.1,312.9,485.6,312.7,483.7,310.9z M540.1,348.4l-0.5-0.5l0.7-0.6l2.4,0.1l0.4,0.5l-0.3,0.4L540.1,348.4z M538.1,362.2    l-0.7-0.6l0.4-0.6l3.6-0.4l0.2,0.4l-0.3,0.4L538.1,362.2z M427.9,405.2l-0.6-0.8c0.2-0.7,0.9-3.8,1.6-4l1.2-0.1    C430.5,401.2,428.4,404.4,427.9,405.2z M398.4,433.5l-1,0l-0.4-0.8l0.6-1.8l-0.4-0.7l0.2-0.5l0.8,0.2l1.2-0.7l0.3,0.6L398.4,433.5    z M403.3,532.1l-1-2.4l0.8-2.2l0.7-0.3c0.1,0.9,0.9,2.9,1.8,3.3l-0.8,1.3L403.3,532.1z M405.8,542.3c-0.4-1,0.3-2.3,0.3-3.4    c0-0.7-0.7-1.7-0.2-2.3l0.6-0.2l0.7,0.8C407.6,539,407.6,541.2,405.8,542.3z M413.9,559.8l-0.7-0.2l-0.4-1.2l-0.5-0.3    c0-0.9-0.4-2.2-0.9-2.9l-1.3-0.7c-1.4-1.8-0.4-4.2-1.6-6.1l0.5-0.5l1.2,0.1l0.4,0.7c-0.8,5,4,7.6,4.1,8.8    C414.8,558.1,414.4,559.3,413.9,559.8z M422.6,571l-0.5-0.2l-1.1-1.6c0.6-0.8,0.1-3.3-0.2-4.2l0.7,0C422,566,422.9,570,422.6,571z     M417,571.8l-0.8-1.3l3.5-1.1l0.4,0.8l-0.3,1.5l-0.9-0.4L417,571.8z M423,571.8l0.5,0.5c0.3,0.7,0.7,2.8,0.2,3.5L423,576l-0.7-0.3    l-0.7-1.8l0.2-0.7l1.1,0.4L423,571.8z M427.7,600.2c-0.6-1.1-1.5-2.3-2-3.4c-0.6-1.4-0.1-2.2-1.6-4l0.2-0.9l1.1,0.1    c1.6,1,1.6,2.8,1.8,4.5l1,0.4l0.4-0.6l-0.2-1.8l0.6-0.8c0.1-0.6-0.2-1.6-0.6-2l-0.7,0.5l-0.4-0.2l-0.6-4.7    c-0.6-0.8-1.6-1.6-2.5-2.1l-1.2,0.6l-0.5-0.2l0-0.7l1.6-0.5l0.5-2.2l-1.3-4.1l0.9-1.1l0.5,0.2l0.1,0.4c0.6,2.1,1.1,4.4,1.8,6.5    c0.2,0.6,0.9,1.2,1.1,1.8c0.6,1.6,1,3.4,1.5,5.1c1.4,0.2,3.8,6,4.4,7.2l-0.4,0.8l-1,0.1l-0.7-0.7c-0.5-0.3-1.5-0.1-2,0.1l-1.1,1.5    L427.7,600.2z M436.6,605.1l-2-2.2c-0.5,0.1-2.1,0.1-2.4-0.4c0-0.7,0.5-1.8,1-2.3l1.4,0l1,0.6l0.6,1.9c0.6,0.2,1.2,1,1.4,1.6    l-0.3,0.6L436.6,605.1z M712.4,167.6l-0.7,1.1c-1.7,2.8-1.3,2.2-1.5,5.3c0,0-0.3,0.5-0.3,0.5c-1.1-0.2-3.9,1.7-4.7,2.3l-0.1,0.9    l1.2-0.2l0.5,0.6l0.9-0.3c0.2-1.1,0.2-1.6,0.9-2.4l1.6-0.2c-0.3,0.8,0.2,2.3,0.6,3c-0.5,0.8-6.5,0.4-7.6,0.3c-0.5,0-1.3-1-1.5-1.4    c-0.8-0.4-4.7,0.5-5.4,0.8c-0.1,0-2.6,1.7-2.9,1.9l-1.1-0.1l-0.2-1.2c0.6-1.8,1.7-1.6,2.3-2.3c2.1-2.4,2.9-5.8,3.8-8.8    c0.9-2.7,2.2-3,2.3-6.4c0.1-3-2.9-6.3-2.5-8.5c0.3-1.8,2.1-4.4,1.2-6.3c0.8-2,2.3-3.8,3.5-5.6c0.3-0.5,1.6-0.8,2.3-1.9    c1.4-0.8,4.6,0.1,6.2-0.1c1.3-0.1,2.3-1.4,3.8-1l0.6-0.4l0.7-1.8c0.3,0.6,1.3,2.4,2,2.6c0.4,1.8,1.6,3.5,1.8,4.4    c0.4,1.3,0.3,2.8,0.6,4.1c0.5,2,1.7,4.1,2.5,6l-0.2,0.3l-0.7-0.1l-0.9,0.9c-0.5,1.2-0.3,3.5,0,4.7c-1.9,1.6-4.5,6.6-4.9,9.1    c-0.8,0-1.6-0.1-2.3,0.4c-1.7,2.2-0.5,4.4-1.6,6.1l-0.9,0.5l-0.4-2.7c1.5-0.8,0.9-3.3,1.9-4.4L712.4,167.6L712.4,167.6z     M639.9,249.3l-0.3,0.2l-3-2.2c-0.6,0-1.3,0-1.9,0.1c-0.7,0.1-3.1,1.4-3.4,2l0.1,0.9l0.7,0.1l0.8-1.5l0.4,0.3l0.5,1.9l0.9,0.1    l0.5-0.4l1,0.2l0.3-1.1l1.4-0.6l0.2,1.4l-0.5,0.8c-0.9,0.3-4.6,1.9-5.5,1.7l-2.5-3l-4.5-0.5l-1.9-2.1c-0.9-0.3-2.4-0.1-3.2,0.5    c-0.2,0.1-1.4,1-1.5,1c-2.4,0.9-5.8-2.5-8-0.2l-1.5-0.1c-0.4,0.3-2,1.2-2.6,1c-0.7-0.3-1.6-3.9-1.9-4.7c0-0.5,0.4-1.4,0.8-1.7    c2.2-0.5,5.2-0.4,5.2-3.4c3.1,0.2,6.1-1.8,6.6-1.8c1.9-0.1,3.7-0.3,5.5-0.8c0.5-0.2,1-0.8,1.5-1.1c1.6-0.7,2.6-0.6,4.1-1    c1.3-0.4,2.8-1.5,4.3-0.3l2.3-0.8l1.1,0.9c1.8,0,2.5-0.2,4.3,0.9c2,5,1.8,3.4,0.3,9C640.3,246.2,640.1,247.8,639.9,249.3z     M901.2,384l-2.2-0.6l0-0.5l0.6-0.3l2,0.3l0.3,0.6L901.2,384z M876.8,387.9l-0.3-1.7l-1.1-0.1c-0.7,0.4-4,1.9-4.8,1.4    c-1.5-0.9-3-2-4.5-2.9c-1.9-1-4-1.8-6-2.7l0.1-0.4c2,0.3,3.5-1.2,5.3-1.5c0.2,0,2.6,0.4,3,0.4c1.7,0,3.6-0.5,5.3-0.4    c2.1,0.1,4.4,0.8,6.5,1.1l4.7-1.8c1.8,0.7,3.7,0.6,5.7,0.7l1.3,1.4c0.8-0.2,2.1-0.1,2.8,0.2l0.5,0.8l1.1,0.4l-0.4,0.5    c-0.3,0-0.6,0.1-0.8,0.1c-6,0.3-9.8-0.5-14.4,3.6C879.5,386.9,877.8,387.4,876.8,387.9z M824.2,479.5l-0.8-0.8    c-1,0.2-2.6-0.6-3.3-1.2l0-0.7l1.4,0.7l2.1-0.2l2.9-2.5l0.8-0.1l0.3,0.4C827.3,476.1,825,477.2,824.2,479.5z M847.3,481.6l0.4,2.5    l0.9-1.2l0.4,0.1c0.4,3.3,0.7,6.7,1.1,10.1c0.2,1.4,0.6,2.8,0.9,4.1l3,13.6c0.3,1.3,1.4,3,2.7,3.5l-0.2,0.6l-2.3-1.1l-0.8,0.1    c-2.6,2-3.5,8.5-4.3,11.6c-0.1,0.5-0.1,0.9-0.4,1.4c-0.2,0.4-0.5,0.5-0.8,0.9l-1.5,1.7c-1.8,1.5-4.5,2.6-5.9,4.6    c-0.8,1.2-0.8,2.1-2.1,3l-2.2-0.3c-1.4,0.5-1.5,2.4-2.1,3.5c-0.5,0.9-1.7,1.7-2.3,2.6c-0.4,0.6-0.5,1.4-0.8,1.9    c-0.4,0.6-3.3,4-3.4,4.3c-1,2.1-2.2,7.1-2.9,9.5c-0.4,0.3-2.6,1.6-2.6,1.7c-1.4,1.6-0.8,2.7-3.9,4.5c-4,2.4-4.1,1.2-7.3,1.7    c-1.5,0.3-3,1.1-4.6,1.3c-1.1,0.2-2.5-0.2-3.6,0.1c-0.6,0.2-0.9,0.4-1.5,0.7l-3,1.3c-1.3,0.7-2.2,2.2-4.1,3.1l-1.3-0.1    c-0.5-0.6-1.1-1.9-0.9-2.8l-0.3-0.3l-1.2-0.1l-1,1.1l0.2,0.4l1.1,0.1l0.5,0.6c-0.6,0.8-2,0.8-2.8,1.3c-0.9,0.5-2.5,2-2.9,3    c-0.3,0.8-0.2,1.8-0.6,2.5c-0.8,1.8-2.5,3.2-2.3,5.4c-1.1,1.2-2.6,3.5-4.2,3.8l-0.6,1.2c-2.5,0.4-2.7,3.9-5.3,4.3l-3.2-0.6    l-1.4,0.9c-2.8-0.7-3.9,0-6.2,1.4c-0.4,0.2-0.7,0.3-1,0.6c-1.3,1.3-3,4.4-4.1,6.1l-1.7,0.7l-0.9-0.3l-0.5-1c0-1.1,2.4-2.6,2.6-5.5    c-0.6-1.3-1.8-4.5-1.6-6c0.6-2.1,3.2-1.5,4.6-1.9c0.8-0.3,2-1.1,2.8-1.6l2.4,0.7l1.4,1.4c1.1,0.4,2.8-0.3,4.7,0.4    c3.2-1.1,5.1-4,6.7-6.8l0-1.1l-2.1,0.9l-0.9-0.8c0.3-1.4,4.4-4.1,5.5-6.6l-0.4-1l-2.8-0.6l-0.5-0.7l0.2-0.5c2.5-1,3.8-3.7,6.6-4.1    c0.6-0.5,1-1.7,1-2.4c0.9-1.3,3.2-0.6,4.4-0.9c0.8-0.1,1.9-0.7,2.7-1l0.5,0.2l-0.5,1l0.7,0.1c3.6-1.5,5.8-3.2,8.2-6.2    c0.3-0.4,0.5-0.5,0.7-0.9l0.4-2l0.2-1c-0.4-0.7-2.6-1.2-3.3-1.3l1-1.4l-1.7-2.3l0.2-0.4c1.3-0.3,2.7-0.7,4-0.9    c2.4-0.3,14.8-0.5,16.2-2.1c0.8-1,1.6-2.3,2.3-3.3c-0.2-0.6-1.1-3-0.7-3.5l1.6,1.2l0.5-1.1l-0.6-3.1l-1.5,0.6l-0.4-0.6l0.6-1    l3.5-1.6c0.1,0,0.8-0.1,0.9-0.1c4.3-0.4,7.8-0.8,12-1.6c3-0.6,7.7-3.9,8.5-6.9l-0.1-0.8l1.5-0.9l0.3-0.9c3.9-0.9,1.4-9.1,0-11.1    l0.2-0.8c-0.7-1.8-1.9-2.8-3.2-4.3l-1.4,0.2l-0.7-1.4l-1-0.4l-0.2-1.4l-0.7-0.2c-0.4-0.5-1.5-2.2-1.4-2.9l-0.7,0.1l-0.7-1    l-0.4-0.1l-1.2,2.3l-1.2-1.7l-0.3,1.5l-1.2-0.7l-0.8,0.1l-0.3,0.5l0,2.1l-0.6,1.1l-0.6,0.2c-0.3-0.8-0.1-2.3,0.3-3.1l-1-0.4    l-0.6,1.3l-1.2-1.2l-0.2,3.3l-0.6,0.3l-0.5-0.8l0.3-1.5l-0.5-0.1c-0.4,0.7-1.4,2-2.3,2.1l-0.6-0.1l1-1.2l-0.4-0.2l-1.3,0.6    l-5.4-0.8l0.3-0.9l2.3-1.6l0.1-0.5l-0.4-0.4c-0.8,0.4-2.5,0.9-3.4,0.7l-0.6-0.9l-0.8,0.1L814,497l-1.2,1.8l-1.2,0l-0.2-0.3    c0.6-0.5,1-1.8,1-2.5l-0.3-0.9c-0.2,0.7-1,1.6-1.7,1.8l-0.7-0.2l-0.6-0.9l0.1-1.1l-0.3-0.6l0.8-0.6l-0.2-0.9l0.8-1.4l1,1.1l0.5,0    l0-1.2l0.9-1.2l1-0.1l0.6,0.3l0.5-0.3l0.1-1.4l1.2-0.8l0.6,0l0.2,0.4l0.7-0.1l1.1,0.8l0-1.9l1.2,0l0.1-0.7l-0.5-0.9l0.5-1.2    l-1.9,0.9l-0.2-1l0.8-0.9l-0.5-0.6c-1.5-0.4-3.2-0.8-4-2.2l0-0.7l0.6-0.9l0.4,0.2l0.5,1.5l0.6-0.6l1-0.1l1,1.3l2.7,0.4l0.9-0.8    l1.5-0.2l0.7,0.3l-0.5,1.4l0.5,0.5l-0.2,0.6l0.9,0.2l0.6-0.9l-0.1-1.3l1.3-1.3l-0.9-0.3l0-0.5l3.3-3.9c1.1,0.3,2.6,0.8,3.8,0.8    l0.4-0.4c-0.5-0.3-2-1.4-2.1-2l-0.7-0.2l-1.5,0.6l-0.4-0.2l1.2-2.1l-0.5-2.1l0.8-0.4l2,0.6l0.3,0.5l-0.1,0.9l0.8,1.5    c1.3,1.1,5.2,0.7,6.8,0.4l1.2-1.1l-0.2-0.9c0.3-1,3-1.2,3.7-0.7l0.7,0.9l1.1,0.2l1.1-1.1l-0.5-0.8c1.5-0.3,4-1.7,4.7-3.2l0.8,0.2    l1.3,1.6c0,0.1,0.1,0.9,0.1,0.9c-0.8,2.1-1.8,4.2-1.9,6.5l-0.7,0.5c-0.4-0.7-1.7-1.3-2.5-1.3l-0.5,0.7l-0.5,0.1    c-0.5,1.4-0.8,4.2-0.1,5.6L847.3,481.6z M744.1,442.7l0,0.5l-2.8,1.7l-0.3,0.6l1.4,2.5l0.8-0.4l-0.8-1.7l0.1-0.8    c1.3-1,2.6-2,4-2.9c1.1-0.2,4.5-0.3,5.4,0.6c0.9,2.5,2.4,2.9,4.6,3.8c0.5,0.2,1.2,0.6,1.7,0.8c0.3,0.1,2,0.1,2.2,0.2    c1.1,0.5,2.4,1.7,3.5,2.3l3.1,0.1c0.6,0.4,1.7,1.4,1.7,2.2c1.4,0.5,5,5,5.4,6.1c-1.2,2.7,2.9,5.5,5.3,5.2l0.4-1.2l0.8-0.4l1,1    l1-0.1l0.3,0.5l1.2,0.4l0.4,2.8c0.2,0.7,3.1,2,3.9,2c0.7-0.3,1.1-1.7,1.4-2.3c1-0.3,3.2,0.3,4.1,0.7l0.4,1l0.5,0.5    c0.6,0.2,1.8,0,2.3-0.4l0.5-0.6l-0.2-0.5l-0.6,0l-0.7,0.6l-0.4-0.2l0.3-1.7c1.4,0.1,5.6,0.4,7-0.1c3.4,4.6,13.7,4.1,14.8,5.4    l0,0.4l-1.3,0.1l-0.8,0.7l-2,0.1l-1.2,1.2l-1.2,0.2c-1.8,1.2-2.3,4.6-3.5,5.2c-2.2-0.2-5.2,2.9-5.9,4.8c-1.4,0.6-3.8,1.9-5.3,1.6    l-0.4-0.3c0.2-0.7,0.2-2.6-0.5-3.2l-1.9-0.7l0.1-0.6l0.7-0.5l1.6,0l0.6-0.8l0-0.3l-1.7,0.1l-0.3-1.5c-2.5-0.2-3.3,2.9-4.9,3.4    c-1.2-0.2-2.9,0.1-4,0.6l-0.4,0.7l-2.5,1.3l-0.8-0.3l1.1-1.1l-1.9-0.8l-0.4-0.6l-1,0l-0.7-0.7l-2.4,1.4l-0.9-0.3    c0.5-0.2,1.8-0.9,2-1.5l-0.7-1.2l-0.5,1.3c-1,0.2-2.8-0.2-3.8-0.5l-0.6-1.6l-0.7-0.5l-0.7,0.7l-1-0.7l-0.7,1    c-1.3-2.5-0.6-1.8-2.5-3.3l-1,0.3l-0.8,1.5l-0.8,0.1l-0.2-0.5l0.8-1.5l-0.5-1.1l0.7-1.5l-0.4-1.3l-0.7-0.2l-0.5,2.4l-1.5,1.6    l-1.6,0.4l-2.2,3.9c-0.9,0.2-3.3,0.5-4.1,0l-0.7-1.2c0.3-1.2,1.6-6.3,1.6-6.7c0-2.3-3-7.1-3.9-8.9c-0.9-0.2-1.8-1-2.4-1.5    l-2.1-1.8c-1-1.2-2.4-3.4-3.1-4.7c-0.9-1.8-2.4-7.2-3.2-9.5l0.2-0.5C742.1,442.8,741.9,442.9,744.1,442.7z M780.2,485.2l-0.7-1.1    l1-1.3l0.8-0.1l0.3,1.3l-0.4,1L780.2,485.2z M812.9,484.2l-0.3,1.5c-0.4,0.1-0.8,0.2-1.2,0.3l-0.2,0.5l-0.6-0.2l-0.5-1.2l-0.9-0.4    l0.8-0.6l0.5,0.4L812.9,484.2z M776.2,488l-2-0.2l-0.5-1.3l0.5-0.7l1.3-0.1c0.4,0.4,1.4,0.7,2.1,0.7l0.4,0.5L776.2,488z     M940.5,500.9L929,497c-2.2-0.8-6,0.1-8.2,0.1c0,0-0.9-0.4-1-0.5c1.3-1.5,4.3-1,6-1.2c0.6-0.1,1.4-0.5,2-0.5    c0.1,0,4.1,0.4,4.2,0.4c1.9,0.5,3.9,1.4,5.8,2.1c0.7,1.5,2.5,1.7,3,3.1L940.5,500.9z M905.2,506.4l-0.9-1.4l1.4-7.1l2.2-0.1l1-1.1    l1.2-0.2l0.9,0.5l0.8,2.4l-0.9,0.1l-1.5,3.6l-2.1,1.7l-1.2,1.5L905.2,506.4z M734.6,515l-0.7-0.1l-1.2-1.7    c-0.3-1.4-0.1-3.1,0.2-4.4l0.8-3.4c0.8-2,4.2-4.8,5.7-6.3c0.1-0.1,0.2-0.1,0.2-0.1c2.4-1.4,5.5-2.9,7.5-5c0.9-1,1.6-2.3,2.4-3.3    c0.6-0.7,1.6-1.4,2.1-2.2c0.7-1.1,1.3-2.7,1.9-3.9c0,0,0.7-0.6,0.7-0.6l0.7,0.2l0.3,0.7c-0.1,0.1-0.5,0.6-0.6,0.6    c-0.2,0.5-0.2,1.1-0.4,1.6c-0.5,1.2-1.2,2.4-1.7,3.5c-0.1,0.1-0.5,0.6-0.6,0.7c-2.6,3.2-4.5,5.8-6,9.7c-2.3,1-5.8,3.2-6.9,5.6    c-0.6,1.2-0.7,2.8-1.3,4C737.5,511.7,735.8,514.9,734.6,515z M753.6,520.4l-1.1-1.2l-0.1-1.1l0.7-0.4l0.4,1.4l0.4,0.2l0.7-1.2    l0.6-0.3l0.3,0.7c-0.2,0.6-0.7,1.3-1.1,1.8L753.6,520.4z M764.1,527.7l-0.6,0l-1.8-2.2l0.1-0.9l0.6,0l1.3,0.8L764.1,527.7z     M797,552.2l-0.8-0.2l-0.6-0.7l-0.1-1.1l0.7-0.9l0.6,0.1L797,552.2z M1107.6,567.3l-0.4-0.5c0.6-0.7,2.1-1.6,3-1.7l0.5,1l-0.2,0.9    L1107.6,567.3z M778,568.7l-0.4-0.2c0.3-1,2-2.4,3.1-2.3l-0.2,0.9L778,568.7z M1008.1,555.4l-0.3-1.4c0.9-2,4.6-5.4,6.2-6.8    c0.3-1.8,0.4-2.9,1.7-4.4l-0.1-0.9c1.1-1.3,1.8-6.3,1.4-8l0.4-0.1l1.5,0.5l2,2.5l1.1,0.3c1.3,4.2,7.1,2.2,7.6,0l-0.2-1.3    c0.6-0.1,2.3,0.6,2.8,0.9c0.3,0.2,1,1.1,1.2,1.2c0.1,0,1.6,0.5,1.8,0.5c1.2,0.2,3.3-0.5,4.3,0.4l5.1,4.1l0.7,2.5    c1.5,0.6,3.2,1.5,4.7,2c0.7,0.2,1.8,0.1,2.6,0.2c0.6,0.1,1.3,0.4,2,0.6l0.8,1.1c1,0.5,2.5,0.5,3.5,0.6l1-1l0.1-1.1l-0.7-0.7    l-1.5-0.2l-1,0.7l-1.3-0.2l-0.7-1c0-0.5,0.4-1.3,0.8-1.5c1-0.2,4.3,0.9,5.2,1.4c0.3,0.2,1.6,1.2,1.8,1.3c3,1,6.6,0.2,9.6,0.5    c1.5,0.1,4,2.1,4.9,3.2l4.1,0c4.1,0,4.4,1.2,6.9,4l1.1,0.3l1-1l0.8,0.1c0.9,1.1,5.8,6.6,7.6,6l1.1-1.1l1.4-0.1    c1.1,1.5,3.1,2.9,4.7,3.7l0.5,1c-0.7,1.4-1.2,3.2-1.3,4.8c-0.6,0.6-1.2,1.4-1.8,1.9c-0.9,0.7-2.1,1.1-3,1.8    c-1.2,0.8-2.4,1.9-3.5,2.8l-1.6,0.1c-0.4-0.3-5.8-3.8-5.8-3.8c-0.6-0.8-1.2-1.8-1.8-2.5c-0.6-0.6-1.7-0.9-2.4-1.6l-9.6-8.9    c-0.1-0.1-1.2-0.6-1.4-0.6c-3.9-1.8-8.3-1.1-12.3-0.3c-2.1,0.4-4.3,1.4-6.3,2.1c-0.1,0-1.9,0.2-2.2,0.2l-0.6-0.4    c0-0.7-0.4-2.4-1-2.9c-2.2-0.4-4.2-1.1-6.4-0.8l-1.8-1.3c-3.6,1.9-7.4,5.4-10.2,8.3c-1.8-0.1-4.2-3-5.5-4.1    c-1.3-1-3.4-2.4-4.8-3.1C1017.7,553,1013.8,557.5,1008.1,555.4z M746,612l-0.9-0.5l-0.2-0.8l0.5-1.2c1.6-1.3,2.8-1.1,4.8-0.5    l1.6-0.7l0.3,0.3c0,0.7-0.2,2-0.6,2.7l-3.4-0.6L746,612z M852.6,716.7l-0.6-1.6c0.3-0.7,1.2-1.6,2-1.9l0.4,1.2    c-0.2,0.7-0.5,1.5-0.8,2.1L852.6,716.7z M1045.5,751.1l2-2.1l1.1-0.1c1,0.6,2.3,3.2,2.7,4.2c1.8,0.8,2.4,1.9,3.7,3.2    c1.8,1.8,4.6,2.6,7.1,2.8l2.4,3l0.2,1.7c-0.5,0.5-1.5,1.7-1.5,2.5l-1.8,1.7l-1.8,0.2l-3.7,0.3c-1,0.3-5.2,3.4-6.1,4.1    c-1.5-0.5-2.8-0.2-4.3,0c-2.4,0.3-3.1,1.1-5.3,2.3c-0.9,0.5-2.6,3.7-4.5,4.7l-0.9,0c-0.2-1-0.6-2.2-0.7-3.2    c-0.1-0.7,0.2-1.6,0.1-2.3c-0.9-4.9-2.8-8.3-5-12.7c-0.3-0.5,0-2,0.3-2.5c0.2-0.1,1.8-1.5,1.9-1.5c1.6-0.5,3.8-0.8,5.3-1.5    c2-0.9,5.5-4,6.9-5.8C1044.2,750.3,1045,750.7,1045.5,751.1z M919.9,848.4c0.6-0.9,0.7-2.6,0.4-3.6l2.5-2.7l0.1-1.6    c1.2-1,2.2-3.7,2.5-5.2c1.2,0.7,2.7,0.5,4,0.8c0.3,0.1,0.7,0.5,1,0.5c2.1,0.5,4.6,0.2,6.7,0.2c2.4,0,4.6-0.3,6.9-0.6    c4.4-0.6,5-0.1,8.3-3.4c0.9-0.9,2-2.2,2.7-3.3c0.8-1.3,1.1-3.3,2.4-4.2c0.4-0.1,1.2-0.3,1.5,0c1.4,3.9,3.2,8,5.5,11.5    c1.2,1.8,4,6.6,6.3,7.3c1.4,0.5,3.1,0.2,4.5,1c0.5,0.3,0.9,1,1.4,1.4c0.8,0.5,4.3,0.7,5.2,0.7c0.5,0.6,1.8,1.6,2.7,1.5l0.5-0.4    l2.1-0.1c2.2-1.5,4.3-3,6.8-4c1-0.4,2.7-1,3.7-1.2c1-0.2,2.3,0.2,3.3,0.1c1-0.1,3.9-1.5,4.4-1.7c3.3-1.5,7.4-2.8,9.5-6    c0.1-0.1,0.5-1.5,0.5-1.7c0.3-0.9,0.1-2.4,0.1-3.4l2.4-3.4l0.3-3.2c1.4-2.3,5.3-3.1,6.4-5.2c0.7-1.2,0.9-2.9,1.6-4.1    c0.1-0.2,1.4-1.4,1.7-1.7c0.1-0.2,0.3-1,0.4-1.2c0.5-0.9,1.8-2.3,1.8-3.4c0-1.1-0.8-3.1,0.7-3.7c2.1-0.9,10.2-5.4,12.5-2.8    c2.1,4.2,1.5,7,1.3,11.6c-0.1,1.6-0.1,3.4-0.3,4.9c-0.2,1.5-0.8,3-1.1,4.6c-0.6,4.2-0.5,8.5-1.9,12.5c-0.7,1.9-1.6,3.8-2.3,5.8    c-0.6,1.8-0.8,3.8-1.5,5.5c-0.9,1.9-3.1,2.2-4.6,3.3c-2.3,1.8-6.7,6.1-8.2,8.7l-1.2,3c-1.2,2.9-2.6,7.1-3.9,9.6    c-1.5,2.8-5.1,4.4-6.1,6.6c-0.3,0.8-0.4,1.8-0.7,2.7c-0.5,1.4-1.9,5.6-3,6.6c-0.2,0.2-0.3,0.2-0.5,0.3c-1.4,0.8-2.2,0.6-3.8,0.6    c-3.6,0.1-7.6-0.2-11.1,0.7c-0.7,0.2-4.6,1.7-4.9,1.7c-1.9,0.2-5.9-0.4-8-0.5c-1.4-0.1-5.1,2.8-6.1,3.7l-1.3,0.1l-0.6-0.6l0.1-0.6    l2.4-2.3l-0.1-0.6l-1-0.1c-2.4,1.5-6.4,1.1-9.1,2.1c-2.3,0.9-4.7,2.6-6.8,3.8c-1.2,0.7-4.2-0.9-5.5-1.1c-0.1,0-1.5,0.3-1.7,0.3    c-1.3,0.2-2.8,0.4-4.1,0.7c-1.5,0.4-3,1.3-4.5,1.7l-3.2,0.4c-0.6,0.1-1,0.3-1.6,0.2c-2.1-0.2-6.6-1.3-8.7-1.8    c-0.8-0.2-1.6-0.8-2.4-1.1c-2.1-0.7-9.4-2.5-11.1-2.7c-1.7-0.2-5.3-0.1-7,0c-1.5,0.1-3.5,0.9-4.9,1.5l-2.3,1    c-2.4,1.4-2.2,4.4-5.1,5.5c-2.2,0-4.2-0.7-5.5-2.6c-0.1-0.1-0.7-1.8-0.8-2.1c-0.1-0.2-0.7-1.7-0.7-1.8c-0.2-2.5,0.1-5.1-0.2-7.5    c0-0.1-3.3-6.6-3.3-6.6c-0.9-1.4-2.5-2.5-3.1-4.1l0.9-1.2c5.7,0.2,7.6-0.5,11.3-4.5l1.7-1.8c0.1-0.2,0.3-0.2,0.4-0.4    c0.9-1.7,0.5-5.4-0.4-7c-0.7-1.3-3-3-4.4-3.4l-0.9-1.7l0.1-0.4c0.9-0.5,4.6,1.4,5.5,1.8c0.8,0.4,1.6,0.4,2.4,0.4    c0,0,0.4-0.2,0.4-0.2c1.1-0.5,2.6-1,3.6-1.6c1.7-1.1,3.2-3,4.9-3.9c0.1,0,4.6-1.5,4.9-1.5c1-0.2,2.1-0.1,3-0.3    C917.8,849.3,918.9,848.7,919.9,848.4L919.9,848.4z M419.7,409.6l0-0.8c0.7-0.7,1.8-1.4,2.7-1.7l0.6,0.1l0,0.7    C422.5,408.5,420.7,409.8,419.7,409.6z M416.9,413.9l-1.8-0.7l-0.1-1.9l0.3-0.1C415.4,412,416.4,413.3,416.9,413.9z M402,425.9    l0.5-2.2l2.4,0.4L402,425.9z M411.1,419.7l-1.7,1l-1.5-1l0.1-0.3C408.7,419.7,410.4,419.8,411.1,419.7z M394.6,442l0.5-0.5    l0.7,0.7l0.1,2.4l-0.5,0.4l-0.4-0.3L394.6,442z M394.2,452.6l-0.9-1.7l1.1-1.5l0.3,0.1C394.3,450.2,394.2,451.8,394.2,452.6z     M391.1,462l-0.6-1.6c0.3-0.7,1.2-1.6,2-1.9l0.4,1.2c-0.2,0.7-0.5,1.5-0.8,2.1L391.1,462z M194.3,451.2l-0.8-0.3l0.9-1.2l1.2-0.2    l0.6,0.6l-0.7,1L194.3,451.2z M393.1,476.7l-0.6,0.7l-0.9-1.3l0.2-1.2l0.7-0.4l0.7,1L393.1,476.7z M-296.2-310.1l-1.1-0.7l0.8-1.1    l1.3-0.2l0.5,1l-0.3,0.7L-296.2-310.1z M-287-303.3l-1,0.9l-0.8-1l0.2-1.2l1.1-0.1l0.6,0.6L-287-303.3z M561.9,358l-0.6-1.1    l0.4-1.1c1.6-0.7,2.8-2.4,1.8-4.1l-1.1-0.6l-0.2-0.5l0.7-1l-0.8-1.4l1.9-1.3l0.2-0.9l-0.3-0.3l-1.4,0.3l-0.2-0.5    c0.8-0.7,1.6-1.5,2.4-2.2c0.4-0.3,1.1-0.5,1.5-0.9c1.2-1.1,4.4-4.2,4-6.1l-0.6-1c-0.8-0.3-2.2,0-3,0.4l-0.7-0.8l0.9-1.5    c-0.4-0.6-1.9-3.3-1.4-4.1l0.9,0l0.4-1.1c-0.4-1.1-3.2-9.8-4.6-10l-2.2,0.6l-1.7,2.1l-0.8,0.2l0.1-2.1l2.6-1.7l0.7-2.4l-0.6-0.6    c-2.2,0-3-0.9-4.5-2.2c-1.4-0.2-3.6-0.1-4.6-1.3l0.5-0.7l-0.4-0.9l-2,0.7l-0.7-0.6l-1.3-0.2l-0.7-0.9c0.8-0.5,1.8-1.9,1.9-2.8    c-0.6-3.1-2.7-4.5-5.9-4.3l-1-2.3l1.1-4c-0.3-1.8-2.3-3.9-4-4.5l-0.3-1.5c-0.3-0.6-1.7-1-2.3-1.1l-0.4-0.7c0.9-1.5,2-4.2,0.4-5.7    c0.8-2.3-1-5.1-2.4-6.7c-0.6-0.7-1.6-1.2-2.2-1.8c-0.1-0.1-1.6-3-1.7-3.2l1.2-0.4c0.6-1.5,0.8-3.5-0.6-4.5l-1.8-0.6    c-0.6,0.1-2.4,0.5-2.8,0.9c-0.6,2.1-1.7,3.4-3.5,4.6l-0.6,0l-0.1-1.3c1.5-2.6,2.7-5.3,3.4-8.2c0.1-0.4-0.1-1.2-0.2-1.6l0.9-1.6    l-0.4-4l-0.5-0.2l-0.6,1.5l-0.9-0.1l-0.7,1.5c-0.8,0.3-2.4,1.2-2.7,2.1l-1-0.2l-0.6,0.8l-0.4-0.9l1.3-2.6l1.6-0.8    c0.1-1.8,2-1.8,1.2-4.8l-0.6-0.1c-0.9,2.1-1.9,4.2-3.4,6.1c-0.2,0.2-1,0.7-1.2,0.9c-0.7,0.8-1.2,1.9-1.8,2.8l-0.3-0.1    c0.5-0.9,0.6-2.2,0.6-3.2c1.4-1.6,2.6-3.7,3.5-5.6l-0.1-1.8l0.5-0.3l0.8,1.2l0.6,0.1l0.2-0.5l-1.6-2.2l-1.1-0.1l-0.3,0.6l-1.3,0.6    l-0.3-0.7c0.3-0.4,0.8-1.4,0.6-2l-1-0.5l-0.4-0.6l0.1-0.4c0.7,0.5,3.1,0.6,3.9,0.5l0.4-0.6c-0.1-0.3-0.5-0.7-0.8-0.8l-0.9,0.4    l-0.6-0.2l1.6-1.4c0.8,0,4.1,3.3,4.9,4l-0.5,1l0.5,0.7l0.7-0.5l0.6,0.1c0.9,1.4,1.8,3.2,2.9,4.4c0.7,0.8,1.7,1.5,2.4,2.3l0.4,1.1    c0.4,2.8,0.7,7.7,2.8,9.8c0.6,0.6,1.5,1,2,1.6c2.1,2.2,4.1,4.6,6.1,7c0.2,0.3,0.4,0.7,0.6,1c0.9,1.2,3,3.1,4.2,3.7    c1.5,2.6,0.9,5.7,1.4,8.5c0.3,1.5,1.1,3,1.4,4.6c0.3,1.5,0,2.9,0.9,4.7c1.2,2.1,4.5,7.3,6.1,9.4c1.1,1.4,3.2,3,4.1,4.5    c1.7,3,3.3,6.2,5.1,9.1c1.3,2.1,3.1,4,4.4,6.1c0.3,0.5,2.7,8.6,3,9.4l-0.8,1.4l1.8,1l1.6,5.2c0.3,1.1-1.8,3.9-2,5    c0,0.1-0.1,5.8-0.1,6.1c0,0.1,0.5,1.7,0.5,1.9c1.2,4.4,2.1,9.1,4.2,13.1l0.7,0.3c0,0.1,0.1,0.7,0.2,0.8c2.7,3.5,6,8,9.9,10.4    c1.1,0.1,2,0.2,3-0.4l1.1,0.4c2-0.2,8,0.1,9.7,0.9c1.7,3.9,3.3,1.9,4.8,4l1.3,0.1l1.1-0.6c2.9,4.1,3,5.2,6.8,7.5    c1.9,5,6.2,8.7,9.9,12.4c1.8,1.8,0.1,4.5-0.6,6.4l0.2,0.5l1.7,0.2l0.7,0.5c0.6,3.5-2.7,5.8,0.8,9.1l-0.6,0.9l1.2,1.2l0.1,2.6    c0.1,0.1,1,1.6,1,1.6l1.5,8.4c0.1,0.5-1.3,2.5-1.6,2.8c-0.7,0.4-1.9,0.8-2.6,1.1c-0.8,0.3-1.6,1.1-2.3,1.6c-0.7-0.8-1-2.8-1-3.8    c-2.8-1.8-1.9-2.1-2.3-5c-0.2-1.8-1-3.8-1.8-5.4l-0.5-0.1l-0.2,0.7c0.3,0.8,1.8,4.7,1.5,5.4l-0.5,0.5c-2-6.2-3.9-12.4-6.2-18.5    l-2.2-5.9l-3-5.1c-2-3.3-3.8-6.7-6-9.9c-0.7-1-2.9-4-4.1-4.6c-2.2,0.1-5.2-1.2-6.8-2.7l-1.2-0.8c-5.1,0.4-13-0.7-17.6-2.2    c-1.1-0.4-2.3-1.2-3.4-1.7c-1.1-0.5-2.4-0.6-3.4-1.4c-1.9-1.4-2.5-3.8-4.5-5l-2-0.1c-0.3-0.2-2.6-2.2-2.7-2.2    c-1-0.5-2.1-0.9-3-1.4c-1.7-1-3.4-2.5-5.1-3.4c-1.3-0.7-3.1-1.2-4.5-1.8c-1-0.4-2.1-1.2-3.1-1.7l-0.5-1l0.3-0.8    c0.9-0.6,2-1.2,2.3-2.3l-0.4-1.2l0.5-0.5l1.1,0.5l0.4-0.6l-0.1-0.8l0.7-0.6l0.7,0.3l0.5,2.9c0.3,0.5,1.1,1.3,1.7,1.5    c1.2-0.1,2.6-0.4,3.9-0.4c1.4,0,2.1,0.7,3.6,0l-0.2-0.6l0.4-1.1l2.4-0.7l0.6,0.4L561.9,358z" /></defs><clipPath
       id="SVGID_2_"><use
         xlink:href="#SVGID_1_"
         overflow="visible"
         id="use9" /></clipPath><g
       clip-path="url(#SVGID_2_)"
       id="g11"><rect
         x="-920"
         y="-100"
         fill="#FAE042"
         width="3000"
         height="500"
         id="rect13"
         style="fill:#ffc72c;fill-opacity:1" /><rect
         x="-920"
         y="-600"
         fill="#00ABC9"
         width="3000"
         height="500"
         id="rect15"
         style="fill:#00778b;fill-opacity:1" /><rect
         x="-920"
         y="400"
         fill="#00ABC9"
         width="3000"
         height="500"
         id="rect17"
         style="fill:#00778b;fill-opacity:1" /><path
         d="M-920-600V900L379,150L-920-600z"
         id="path19" /></g></g></svg>