<?xml version="1.0" encoding="UTF-8" standalone="no"?>
<!-- Created with Inkscape (http://www.inkscape.org/) -->

<svg
   xmlns:dc="http://purl.org/dc/elements/1.1/"
   xmlns:cc="http://creativecommons.org/ns#"
   xmlns:rdf="http://www.w3.org/1999/02/22-rdf-syntax-ns#"
   xmlns:svg="http://www.w3.org/2000/svg"
   xmlns="http://www.w3.org/2000/svg"
   xmlns:sodipodi="http://sodipodi.sourceforge.net/DTD/sodipodi-0.dtd"
   xmlns:inkscape="http://www.inkscape.org/namespaces/inkscape"
   version="1.0"
   width="678.79999"
   height="1004.279"
   id="svg4760"
   sodipodi:version="0.32"
   inkscape:version="0.47 r22583"
   sodipodi:docname="Seal_of_Michigan_Secretary_of_State.svg"
   inkscape:output_extension="org.inkscape.output.svg.inkscape">
  <metadata
     id="metadata10">
    <rdf:RDF>
      <cc:Work
         rdf:about="">
        <dc:format>image/svg+xml</dc:format>
        <dc:type
           rdf:resource="http://purl.org/dc/dcmitype/StillImage" />
      </cc:Work>
    </rdf:RDF>
  </metadata>
  <sodipodi:namedview
     inkscape:window-height="1004"
     inkscape:window-width="1280"
     inkscape:pageshadow="2"
     inkscape:pageopacity="0.0"
     guidetolerance="10.0"
     gridtolerance="10.0"
     objecttolerance="10.0"
     borderopacity="1.0"
     bordercolor="#666666"
     pagecolor="#ffffff"
     id="base"
     inkscape:zoom="0.51428019"
     inkscape:cx="348.86475"
     inkscape:cy="943.61976"
     inkscape:window-x="-8"
     inkscape:window-y="-8"
     inkscape:current-layer="g2122"
     showgrid="false"
     showborder="false"
     inkscape:window-maximized="1" />
  <defs
     id="defs4763">
    <inkscape:perspective
       sodipodi:type="inkscape:persp3d"
       inkscape:vp_x="0 : 501.67206 : 1"
       inkscape:vp_y="0 : 1000 : 0"
       inkscape:vp_z="677.48706 : 501.67206 : 1"
       inkscape:persp3d-origin="338.74353 : 334.44804 : 1"
       id="perspective11" />
  </defs>
  <g
     id="g2122"
     transform="translate(74.539683,-1243.8054)">
    <path
       id="red background"
       d="m 397.89157,1245.9578 c -0.47334,0.01 -0.96667,0.061 -1.4375,0.125 -4.17264,0.5719 -14.94342,3.7537 -18.71875,5.5313 -1.59333,0.7502 -4.31968,1.5483 -6.0625,1.7812 -5.15623,0.6891 -5.90625,1.3548 -5.90625,5.4688 0,3.5066 -0.13219,3.7693 -5.28125,8.9687 -3.62925,3.6648 -6.16658,7.046 -8.0625,10.7813 l -2.75,5.4375 0.46875,12.2187 c 0.26768,6.7071 0.85688,13.7305 1.3125,15.625 0.74083,3.0804 0.67754,3.6605 -0.625,5.4375 -2.5938,3.5386 -9.31108,6.5282 -15.84375,7.0625 -6.40772,0.5241 -8.86967,1.4361 -15.0625,5.5313 -2.31859,1.5332 -4.40199,2.7812 -4.625,2.7812 -0.22299,0 -1.90993,1.066 -3.75,2.375 -3.09983,2.2052 -11.6628,6.3125 -13.15625,6.3125 -0.35785,0 -4.31714,1.8313 -8.8125,4.0625 l -8.1875,4.0625 -10.65625,0.1563 c -12.1485,0.1758 -11.33829,0.5224 -15.75,-6.8125 -6.41461,-10.6649 -11.93233,-14.5 -20.84375,-14.5 -8.20804,0 -13.7125,3.5084 -17.5,11.125 l -2.3125,4.625 -11.71875,-0.3125 c -6.45292,-0.1654 -16.73645,-0.5781 -22.84375,-0.9375 -6.79034,-0.3997 -13.26021,-0.3834 -16.65625,0.031 -3.05435,0.373 -8.97374,0.9977 -13.15625,1.4063 -11.96708,1.169 -18.38641,2.5855 -24.0625,5.3125 -4.08067,1.9605 -6.09756,2.498 -8.90625,2.4062 -4.69323,-0.1533 -7.29771,1.6718 -7.8125,5.4688 -0.37683,2.7796 -4.57788,8.2788 -11.281253,14.7187 -3.00372,2.8857 -3.30619,2.9929 -5.625,2.2813 -2.18728,-0.6713 -2.79444,-0.5265 -5.5,1.375 -1.66821,1.1724 -3.25596,2.9492 -3.53125,3.9375 -0.92152,3.3093 -0.63858,13.5206 0.5,18.5625 l 1.125,5 4.5625,2.3437 c 6.85756,3.5555 7.95656,5.0556 7.875,10.5 -0.0371,2.4767 -0.27389,6.6772 -0.5625,9.3438 -0.39681,3.6664 -0.25835,5.6886 0.625,8.2812 1.48318,4.3527 1.48893,7.1572 -0.0312,12.625 -1.1367,4.0885 -4.04354,7.8583 -6.71875,8.75 -0.4428,0.1476 -1.00224,2.4404 -1.25,5.0938 l -0.4375,4.8437 -5.875,0.7188 c -6.85466,0.8725 -17.36558,2.0292 -27.59375,3.0312 -3.98333,0.3902 -9.00188,1.099 -11.125,1.5625 l -3.84375,0.8438 -2.875,-3.375 c -3.00104,-3.511 -6.86428,-5.0252 -9.25,-3.6563 -0.63364,0.3636 -3.322812,0.5466 -5.96875,0.4063 l -4.8125,-0.25 -0.84375,-3.0313 c -0.858,-3.0644 -6.506217,-9.6504 -11.1874996,-13.0625 -3.43269,-2.502 -16.0810814,-7.4806 -23.6250004,-9.2812 -2.70062,-0.6446 -12.114559,-2.0077 -20.28125,-2.9375 -1.408,-0.1604 -1.849749,0.1585 -2.03125,1.4375 -0.32583,2.2957 3.093581,3.6044 10.78125,4.0937 7.5453,0.4803 12.355123,1.713 23.3437504,5.9688 7.22264001,2.7972 9.244703,3.9225 12.90625,7.3125 2.38449,2.2076 4.6671036,4.6714 5.0937496,5.4687 0.74828,1.3982 0.720618,1.3889 -1.28125,-0.094 -1.1414796,-0.8454 -2.9104116,-2.1698 -3.9062496,-2.9687 -2.10341,-1.6877 -4.527414,-1.9291 -5.68749999,-0.5313 -0.44657,0.5381 -1.027554,2.4933 -1.28125,4.3438 l -0.4688,3.3749 -3.34375001,-2.375 c -1.83813,-1.3142 -4.97709,-3.1481 -6.9687504,-4.0625 -1.99167,-0.9144 -5.57875,-2.571 -7.96875,-3.6875 -12.46832,-5.8245 -18.92688,-7.0495 -39.28125,-7.4687 l -13.9375,-0.3125 0,1.625 c 0,1.4919 0.43741,1.6467 5.625,2.0625 3.08708,0.2474 10.317921,0.4987 16.09375,0.5625 5.77582,0.064 12.805421,0.5931 15.59375,1.1562 7.72382,1.56 29.1306914,11.6026 32.3750004,15.1875 1.17522,1.2986 1.097213,1.4938 -1.8125,4.4063 -7.5945404,7.6016 -7.2964614,7.4062 -10.7500004,7.4062 -3.98355,0 -5.130809,0.8604 -6.75,5.0625 -0.69071,1.7925 -1.710688,3.7463 -2.28125,4.3438 -3.0232,3.166 -5.386941,6.9679 -5.75,9.3125 -0.22481,1.4517 -0.71458,4.5462 -1.125,6.875 -0.4105,2.3288 -0.525349,6.3349 -0.25,8.9062 0.41333,3.8598 0.923129,5.2079 2.96875,7.6563 3.54994,4.249 3.979709,5.2404 3.15625,7.4062 -1.19913,3.154 -0.07078,8.3825 2.6875,12.4688 2.66535,3.9486 2.685342,4.3367 1.21875,12.7187 l -0.46875,2.7188 4.96875,2.2812 c 3.67958,1.6768 6.261069,2.3102 9.9062504,2.4688 2.94267,0.1279 5.607993,0.6881 6.65625001,1.375 2.80643999,1.8388 4.68690899,1.354 8.40624999,-2.125 3.9886196,-3.7309 3.7459226,-3.7152 16.7812496,-2.25 6.58821,0.7405 8.92576,1.296 10.15625,2.4062 3.38604,3.0553 7.45937,5.2813 9.6875,5.2813 2.59655,0 4.59375,-1.5933 4.59375,-3.6563 0,-2.1107 -2.20723,-8.1357 -3.5,-9.5937 -1.05906,-1.1945 -1.05866,-1.5019 0.0312,-3.625 0.65435,-1.2746 1.58027,-4.203 2.03125,-6.5 0.71541,-3.6443 0.65292,-4.5158 -0.5,-6.875 -1.09991,-2.2509 -1.88067,-2.848 -4.59375,-3.5 l -3.25,-0.7813 -0.53125,-7.9062 c -0.28941,-4.3493 -0.34257,-12.4546 -0.125,-18.0313 0.35306,-9.0505 0.58989,-10.5275 2.25,-13.6875 1.68755,-3.2122 1.81711,-4.0603 1.40625,-9.0625 -0.24906,-3.0321 -0.66674,-6.2085 -0.90625,-7.0625 -0.39594,-1.4119 -0.0786,-1.5754 3.4375,-2 2.12666,-0.2568 9.24001,-1.1456 15.8125,-1.9375 6.57249,-0.7919 15.69264,-1.8917 20.25,-2.4687 4.55744,-0.5771 8.41012,-0.9337 8.5625,-0.7813 0.36263,0.3627 -1.83171,4.5835 -3.6875,7.0938 l -1.46875,1.9687 1.6875,10.3438 c 0.92688,5.6847 2.10646,11.5679 2.625,13.0625 0.51856,1.4945 1.31697,4.6742 1.75,7.0625 0.43309,2.3882 1.76476,6.6394 2.96875,9.4687 1.20398,2.8293 1.97492,5.3689 1.71875,5.625 -0.2561,0.2561 -2.65438,1.9496 -5.3125,3.75 -5.73737,3.8861 -6.19076,5.2991 -2.96875,8.9688 2.78659,3.1737 4.22057,3.262 7.4375,0.4375 1.361,-1.195 2.84008,-2.1875 3.25,-2.1875 0.40992,0 1.54733,0.981 2.562503,2.1875 1.49933,1.7818 1.84202,2.8597 1.71875,5.75 -0.13137,3.0782 0.42789,4.718 4.1875,12.0625 5.29551,10.345 8.12274,14.7812 9.46875,14.7812 1.30501,0 1.30469,0.7962 -0.0312,2.5625 -1.96429,2.597 -1.32111,4.5804 3.0625,9.25 4.1428,4.4132 4.89475,5.5389 6.96875,10.75 0.64168,1.6123 1.9411,3.1195 3.28125,3.8125 1.21962,0.6307 2.64287,2.0364 3.1875,3.125 3.14617,6.2889 7.83022,25.3219 8.3125,33.8438 0.15774,2.7883 0.5329,5.4141 0.84375,5.8125 1.27184,1.6299 1.44289,6.3566 0.5,13.4687 -0.5489,4.1399 -0.93284,10.3017 -0.84375,13.6875 0.14608,5.554 0.44743,6.6611 2.875,11.2188 2.88987,5.4253 2.77977,4.4751 1.40625,16.1875 -0.38298,3.2655 -0.21625,4.0744 1.03125,5.4062 2.01535,2.1516 3.03125,5.0879 3.03125,8.7813 0,2.3835 -1.08288,5.257 -4.6875,12.375 -2.58206,5.0987 -5.19851,9.7936 -5.78125,10.4375 -1.7334,1.9154 -3.98291,7.4838 -4,9.875 -0.0103,1.4432 -0.6653,2.8635 -1.875,4 -1.02691,0.9647 -3.05135,3.6354 -4.46875,5.9687 -2.56497,4.2225 -2.56204,4.2707 -1.96875,9.7813 0.32779,3.0451 0.60371,8.4775 0.625,12.0625 l 0.0312,6.5312 -5.0625,10.0625 c -3.45623,6.8769 -6.31186,11.4808 -9.03125,14.5313 -9.70852,10.8904 -10.93719,12.447 -11.3125,14.1562 -0.21858,0.9959 -1.09767,3.4146 -1.937503,5.4063 -1.95227,4.6301 -1.99756,11.1535 -0.21875,21.75 0.904363,5.3876 1.183063,9.7301 0.906253,13.4062 -0.22517,2.9897 -0.0732,6.7213 0.34375,8.3125 0.41695,1.5912 1.10465,4.86 1.5,7.25 0.39536,2.39 1.05542,5.7176 1.46875,7.4063 0.76161,3.112 7.8756,14.5084 12.78125,20.4687 1.47528,1.7925 3.96957,5.0592 5.53125,7.25 1.56175,2.1908 4.90932,6.0587 7.4375,8.5938 5.08982,5.1037 9.35717,6.9917 14,6.2187 2.58967,-0.4311 2.73895,-0.3146 16.28125,13.1875 7.51647,7.4942 14.88067,15.5211 16.375,17.8125 7.16927,10.9931 31.32398,37.1283 33.53125,36.2813 1.58196,-0.6071 1.32118,-2.762 -0.625,-5.0938 -3.82363,-4.581 -6.24878,-12.5625 -3.8125,-12.5625 0.65696,0 1.5041,0.76 1.875,1.6563 0.37088,0.8962 2.53299,6.1733 4.78125,11.75 7.39465,18.3418 9.57991,22.4965 21.6875,40.9375 2.48451,3.7841 5.23028,8.3249 6.125,10.0937 0.89473,1.7689 3.99281,6.4931 6.875,10.5 6.25245,8.6926 6.54591,9.2009 10.75,20.3125 3.40118,8.9895 5.59037,20.819 6.65625,35.8438 0.69223,9.7574 1.82483,16.4481 3.75,22.375 2.28187,7.0248 6.66675,17.4789 8,19.0312 0.56571,0.6586 1.47183,3.3886 2.03125,6.0625 0.98381,4.702 4.07285,11.1638 8.375,17.5625 1.14184,1.6984 2.78411,5.43 3.65625,8.3125 0.87206,2.8825 2.04577,6.336 2.59375,7.6563 0.76436,1.8417 1.36571,2.3308 2.59375,2.1562 1.28306,-0.1825 1.57596,-0.6698 1.5,-2.4687 -0.0521,-1.2339 -0.60887,-3.3635 -1.21875,-4.7188 -1.94133,-4.3132 -2.85083,-10.0333 -2.5,-15.5 0.29883,-4.6564 0.71161,-5.9171 3.375,-10.25 4.28317,-6.9681 8.50152,-12.1614 14.8125,-18.1562 3.00401,-2.8535 7.83237,-8.201 10.71875,-11.9063 6.02468,-7.734 13.691,-16.7826 16.53125,-19.4687 1.93097,-1.8261 6.07083,-8.6056 9.46875,-15.5 0.97142,-1.9709 3.38678,-5.0619 5.34375,-6.875 1.95705,-1.8132 5.0479,-4.6687 6.875,-6.3438 l 3.3125,-3.0312 -2,-3.625 c -4.02591,-7.2338 -5.03971,-14.5042 -3.40625,-24.3438 0.39674,-2.39 0.64937,-7.4346 0.59375,-11.2187 -0.28586,-19.4566 0.0266,-25.4523 2.03125,-39.0938 1.02437,-6.9708 1.92288,-15.4579 2,-18.8437 0.0955,-4.1901 0.5599,-6.8931 1.40625,-8.5 0.68397,-1.2985 1.1852,-3.4281 1.125,-4.7188 -0.0602,-1.2907 0.14353,-3.7073 0.4375,-5.375 0.52689,-2.9887 0.47969,-3.0654 -2.28125,-4.375 -2.39565,-1.1363 -2.76821,-1.6237 -2.65625,-3.4687 0.23531,-3.8753 1.47461,-8.5859 3.65625,-13.75 4.06039,-9.6113 7.43749,-20.0999 7.4375,-23.1563 0,-1.6852 -0.4331,-3.9996 -0.96875,-5.1562 -0.74966,-1.6186 -0.85061,-3.7044 -0.375,-9 0.33981,-3.7842 0.77269,-17.2847 0.96875,-30.0313 0.32417,-21.0796 0.49581,-23.4588 1.78125,-26.0937 3.20224,-6.5639 4.5132,-12.7363 4.90625,-23.1563 0.24291,-6.4402 0.76526,-11.0774 1.4375,-12.6875 0.58208,-1.3941 1.6769,-6.7153 2.4375,-11.8125 0.76067,-5.0971 1.84706,-10.1375 2.40625,-11.2187 0.55912,-1.0813 2.20833,-5.5161 3.65625,-9.8438 2.55882,-7.648 2.64387,-8.3196 3.375,-24.0312 l 0.75,-16.1563 4.90625,-5 c 5.67509,-5.7773 9.31782,-12.2399 8.125,-14.4687 -0.45837,-0.8565 -3.52082,-2.4651 -7.84375,-4.0938 -3.89968,-1.4692 -8.17826,-3.568 -9.5,-4.6562 -2.36508,-1.9472 -2.41207,-2.0627 -2.6875,-8.8125 -0.15397,-3.7723 -0.7929,-9.0046 -1.40625,-11.5938 -2.23262,-9.4239 -2.71276,-13.5018 -1.90625,-16.4062 0.42281,-1.5226 0.779,-3.5942 0.78125,-4.5938 0.005,-2.2438 2.30436,-3.7935 4.71875,-3.1875 1.47593,0.3705 1.92115,0.1047 2.53125,-1.5 0.40716,-1.0709 0.56566,-2.2346 0.34375,-2.5937 -0.22198,-0.3592 -0.72729,-2.4984 -1.09375,-4.75 -0.75727,-4.653 -1.68454,-5.9168 -7.03125,-9.4688 -2.54347,-1.6896 -3.94955,-3.156 -4.21875,-4.4375 -0.22162,-1.055 -0.53704,-2.6662 -0.71875,-3.5625 -0.58128,-2.8662 0.40623,-5.25 2.1875,-5.25 0.89089,0 2.20594,-0.6604 2.9375,-1.4687 1.17625,-1.2997 1.24352,-1.8829 0.5,-4.9063 -0.46235,-1.8804 -1.0384,-5.1842 -1.28125,-7.375 -0.24284,-2.1908 -0.9175,-6.6709 -1.5,-9.9375 -1.21716,-6.8258 -0.85279,-8.078 3.9375,-13.4062 3.99614,-4.4449 8.53413,-7.0938 12.1875,-7.0938 1.79453,0 3.53473,-0.4409 4.1875,-1.0937 1.00416,-1.0041 0.86726,-1.5264 -1.25,-5.25 -1.29328,-2.2746 -3.31631,-5.8815 -4.5,-8 -1.18363,-2.1186 -4.30256,-7.1632 -6.9375,-11.2188 -2.63501,-4.0556 -5.53778,-9.5046 -6.4375,-12.0937 -0.89972,-2.5892 -2.85952,-7.3286 -4.375,-10.5313 -1.51548,-3.2026 -3.00409,-6.7897 -3.28125,-7.9687 -0.44772,-1.9042 -0.36914,-2.0275 0.59375,-1.0625 1.37758,1.3805 5.54181,9.62 8.40625,16.6562 4.97062,12.2097 10.31899,21.425 19.34375,33.1563 3.38301,4.3974 6.76901,2.4859 5.4375,-3.0625 -0.43396,-1.8084 -1.12326,-4.792 -1.5625,-6.625 -0.67861,-2.832 -0.6263,-3.6854 0.46875,-5.7188 1.20564,-2.2387 1.21728,-2.504 0.0937,-4.2187 -0.6605,-1.0081 -2.08468,-2.2544 -3.1875,-2.7813 -3.27248,-1.5636 -3.16693,-8.6421 0.15625,-10.1562 3.12496,-1.4238 2.8706,-2.803 -1.21875,-6.5625 l -3.84375,-3.5313 4.8125,-4.6562 c 5.51242,-5.3525 8.28239,-6.1075 10.0625,-2.7813 1.9611,3.6643 2.94558,3.5809 11.71875,-0.9375 5.09432,-2.6236 8.2543,-4.6943 8.40625,-5.5 0.13355,-0.708 -1.42691,-4.5249 -3.46875,-8.5 l -3.71875,-7.2187 1.65625,-0.6563 c 0.91515,-0.3609 4.91585,-2.1068 8.875,-3.875 l 7.1875,-3.2187 1.75,2.0625 c 2.05591,2.4433 3.5469,2.5779 7.375,0.625 1.56161,-0.7967 4.25998,-1.46 5.96875,-1.4688 5.43413,-0.028 11.85472,-4.0864 10.34375,-6.5312 -0.65891,-1.0662 -2.18173,-0.8587 -4.84375,0.6562 -1.31733,0.7497 -3.95716,1.5748 -5.84375,1.8125 -3.23019,0.4071 -3.43746,0.3057 -3.875,-1.4375 -0.25754,-1.0262 -0.0686,-2.6168 0.4375,-3.5625 1.12561,-2.1032 0.51552,-3.9687 -1.3125,-3.9687 -0.75328,0 -9.81201,4.1042 -20.125,9.125 -29.75858,14.4878 -34.71882,16.8419 -36.59375,17.3125 -1.49491,0.3752 -1.98025,0.048 -3.03125,-2.1563 -0.68181,-1.4297 -1.21875,-4.0648 -1.21875,-5.8437 0,-3.0805 0.10895,-3.2188 2.09375,-3.2188 3.6903,0 4.16504,-1.5206 2.5,-7.8437 -1.35122,-5.1318 -1.40533,-6.0764 -0.53125,-12.0625 0.93761,-6.421 0.94607,-6.5085 -0.84375,-9.5625 -0.99467,-1.6974 -3.76271,-5.5247 -6.15625,-8.5 l -4.375,-5.4063 2.53125,-3.3125 c 1.39221,-1.8239 2.76421,-4.4827 3.03125,-5.9062 0.50654,-2.7002 -0.54862,-7.4877 -2.25,-10.1563 -1.43914,-2.2573 -7.37726,-2.8226 -14.84375,-1.4062 -10.05754,1.9079 -12.28351,3.3631 -18.46875,12 -1.195,1.6686 -4.69416,5.0286 -7.78125,7.4687 -3.08708,2.4401 -5.59375,4.9437 -5.59375,5.5625 0,0.6188 0.89737,2.2709 2.03125,3.6563 2.92601,3.5749 3.50709,4.885 4.0625,9.4687 0.27043,2.2318 0.95512,5.6168 1.53125,7.5313 0.57621,1.9144 1.05706,4.8078 1.0625,6.4375 0.0164,4.9259 0.59225,5.9013 4.40625,7.625 2.80825,1.2691 3.56251,1.9958 3.5625,3.3437 0,1.7767 2.37138,3.9688 4.3125,3.9688 0.61228,0 1.5233,0.6116 2,1.375 0.47677,0.7633 2.62842,1.8963 4.8125,2.5312 4.20364,1.2221 6.96876,3.9489 6.96875,6.875 0,2.1736 -2.92101,2.0003 -5.09375,-0.3125 -6.71719,-7.1501 -13.16057,-9.5425 -15.625,-5.7812 -1.42763,2.1788 -2.54246,2.293 -4.25,0.4062 -1.92279,-2.1246 -8.20507,-3.3268 -11.5625,-2.2187 -4.69012,1.5478 -5.34506,6.8771 -1.15625,9.2812 1.19188,0.6841 2.22453,1.9861 2.40625,3.0313 0.17505,1.007 0.55325,2.4846 0.84375,3.2812 0.78052,2.1403 -2.41229,-1.6274 -4.6875,-5.5312 -0.99583,-1.7087 -2.84156,-4.2991 -4.125,-5.75 -2.16932,-2.4526 -2.31771,-2.9007 -1.90625,-6.375 0.43106,-3.6395 0.52846,-3.7188 2.8125,-3.7188 3.18753,0 4.19887,-1.4497 3.59375,-5.0312 -0.70577,-4.1775 -3.99469,-8.2486 -9.0625,-11.2188 -2.43099,-1.4248 -4.58567,-2.5937 -4.8125,-2.5937 -0.22683,0 -2.43447,-1.4206 -4.875,-3.1563 -2.44062,-1.7357 -5.535,-3.7182 -6.875,-4.4062 l -2.4375,-1.25 2.40625,-2.4688 c 1.99536,-2.0587 2.39911,-3.0218 2.4375,-5.875 0.0418,-3.1069 -0.15492,-3.4966 -2,-4.1562 -1.45899,-0.5216 -2.36649,-0.4783 -3.25,0.1562 -3.85122,2.7657 -4.36812,2.7672 -7.59375,-0.3437 -1.67973,-1.62 -4.11542,-3.4759 -5.40625,-4.125 -3.25858,-1.6386 -4.36686,-3.6589 -6.34375,-11.4375 -0.94355,-3.7127 -2.54182,-8.3529 -3.5625,-10.3125 -1.02075,-1.9596 -1.84375,-4.351 -1.84375,-5.3125 0,-0.9616 -0.68669,-4.3458 -1.5,-7.5313 -1.67618,-6.565 -1.47432,-7.9133 1.5,-10.0312 3.93154,-2.7996 20.53579,-3.6439 28.34375,-1.4375 2.52905,0.7146 8.21772,4.5631 15.21875,10.3125 3.96153,3.2533 9.02278,4.9663 12.375,4.1875 2.88676,-0.6707 9.75001,-3.9881 15.53125,-7.5 3.33868,-2.0282 5.04343,-2.5818 7.5625,-2.5313 5.23308,0.1051 8.53879,-1.9867 16.5,-10.375 5.83847,-6.1517 7.31251,-8.1245 7.3125,-9.8125 0,-3.7368 -1.29768,-4.5555 -10.65625,-6.7187 -4.82439,-1.1152 -9.09709,-2.2198 -9.5,-2.4688 -0.40296,-0.249 -0.95831,-1.4391 -1.21875,-2.625 -0.26051,-1.1858 -0.80652,-2.3702 -1.21875,-2.625 -0.63574,-0.3929 -8.18142,-1.5458 -12.375,-1.9062 -0.78051,-0.067 -1.24999,-0.7283 -1.25,-1.6875 0,-0.8568 -0.62914,-2.3558 -1.40625,-3.3438 -1.39583,-1.7745 -1.40491,-1.8315 -0.0312,-4.625 1.20253,-2.4454 1.28183,-3.4602 0.6875,-7.5312 -0.37798,-2.5892 -0.67952,-6.071 -0.6875,-7.75 -0.008,-1.679 -0.53659,-4.5499 -1.15625,-6.375 l -1.125,-3.3125 2.21875,-2.0938 c 2.35632,-2.2011 2.87868,-4.6416 1.1875,-5.5937 -0.56578,-0.3186 -1.21852,-1.4059 -1.46875,-2.4063 -0.40587,-1.6225 -0.003,-2.081 3.71875,-4.2187 l 4.15625,-2.4063 2.9375,3.3125 c 3.07882,3.4794 7.3898,5.7564 12.40625,6.5 3.67864,0.5453 7.52077,-1.7171 8.5,-5 0.35278,-1.1827 1.06032,-2.9729 1.5625,-3.9687 0.50211,-0.9959 1.46477,-4.2184 2.125,-7.1563 0.66021,-2.9379 1.81968,-6.525 2.59375,-7.9687 l 1.40625,-2.625 -0.40625,2.9687 c -0.40311,2.813 -0.22262,3.1879 3.625,7.5 4.35312,4.8786 4.37525,4.919 3.375,6.5 -1.05117,1.6615 0.44511,3.6875 2.75,3.6875 2.56599,0 6.70211,4.8699 7.3125,8.625 0.31853,1.9595 0.75774,2.5938 1.84375,2.5938 1.10223,0 1.50817,-0.562 1.6875,-2.4375 0.15238,-1.5938 1.09994,-3.3332 2.71875,-5 1.36527,-1.4058 2.46876,-3.0136 2.46875,-3.5625 0,-1.785 -2.22968,-1.9055 -4.46875,-0.25 l -2.15625,1.5937 -1.71875,-1.5937 c -1.45174,-1.3639 -1.57661,-1.8377 -0.84375,-3.1563 0.47271,-0.8505 0.8894,-1.6355 0.9375,-1.75 0.0482,-0.1145 0.93315,0.1844 1.96875,0.6563 1.52467,0.6947 2.50192,0.6222 5.03125,-0.3438 1.7179,-0.6561 4.2555,-1.1875 5.65625,-1.1875 3.19282,0 4.28124,-1.0641 4.28125,-4.1875 l 0,-2.4375 3.09375,0.5 c 6.40693,1.0669 10.21847,3.525 7.78125,5.0313 -1.09281,0.6753 -0.92638,17.1892 0.1875,18.6875 0.49792,0.6697 2.68416,2.1443 4.875,3.25 l 4,2 -0.28125,11.2187 c -0.14717,6.1678 -0.59206,11.5921 -0.96875,12.0625 -1.33666,1.6693 -1.54167,8.5418 -0.34375,11.1563 0.62256,1.3587 1.41421,4.4225 1.78125,6.8125 0.36697,2.39 2.37937,9.8348 4.46875,16.5312 3.46397,11.1023 3.73312,12.4535 3.03125,15.2188 -0.73381,2.8909 -0.55686,3.519 3.84375,13.5312 5.34729,12.1659 5.45149,12.228 12.34375,8.5 3.76511,-2.0365 4.3684,-2.6487 4.4375,-4.5312 0.0438,-1.195 0.59676,-3.3941 1.25,-4.875 1.54553,-3.504 1.50457,-5.5109 -0.21875,-9.5313 -1.07376,-2.505 -1.89694,-3.4097 -3.4375,-3.75 -1.1149,-0.2463 -4.62584,-1.3545 -7.8125,-2.4687 l -5.78125,-2.0313 -2.65625,-8.2187 -2.65625,-8.2188 1.75,-1.3437 c 0.95976,-0.7303 1.75001,-1.7544 1.75,-2.2813 0,-0.5983 1.33555,-1.1312 3.5625,-1.4375 l 3.5625,-0.5 6.9375,6.0313 6.9375,6 -0.4375,3.3437 c -0.40898,3.0827 -0.10007,4.0564 4.0625,12.1875 2.48509,4.8544 5.16471,9.1489 5.9375,9.5625 1.12221,0.6006 2.06509,0.309 4.75,-1.4375 2.46785,-1.6053 3.60316,-1.969 4.28125,-1.4062 1.55038,1.2867 2.94757,0.1354 3.34375,-2.7813 0.31345,-2.3074 -0.25686,-3.9703 -3.28125,-10 -5.87664,-11.7164 -6.18856,-12.1458 -8.8125,-11.7187 -4.0262,0.6552 -7.39721,-1.084 -14.84375,-7.6563 -4.66354,-4.116 -7.77468,-6.3441 -8.875,-6.3437 -0.93173,3e-4 -4.12404,0.5119 -7.0625,1.125 -2.93846,0.613 -5.53304,0.9038 -5.78125,0.6562 -0.2482,-0.2475 -0.56461,-9.5949 -0.6875,-20.75 -0.19178,-17.4047 -0.0623,-20.5217 0.90625,-22 0.89429,-1.3649 1.12936,-3.9535 1.125,-12.4375 -0.007,-13.7612 -0.85626,-19.2289 -3.625,-23.125 -2.0572,-2.8947 -2.11494,-3.1223 -1.375,-7.125 0.81375,-4.4021 0.49063,-21.4171 -0.53125,-27.4375 -0.8885,-5.2347 -2.18074,-5.9834 -16.90625,-9.5937 -9.17418,-2.2493 -9.56798,-2.4728 -12.125,-7.5625 -1.28517,-2.5582 -2.33435,-5.3729 -2.34375,-6.25 -0.0114,-1.0571 -1.09385,-2.3409 -3.1875,-3.7813 -4.34384,-2.9886 -7.74909,-4.3093 -11.0625,-4.25 z m 111.6875,593.7188 c -4.62442,0 -15.59986,7.9077 -15.59375,11.2187 0.004,1.9891 2.03309,5.1615 5.71875,8.9375 3.30733,3.3885 5.58808,3.7909 6.90625,1.2188 0.54789,-1.069 1.33758,-1.3807 3,-1.2188 1.59992,0.1558 2.93588,-0.35 4.5625,-1.7187 3.61092,-3.0384 3.85328,-3.9722 2.4375,-9.4375 -1.45485,-5.6163 -4.11282,-9.0001 -7.03125,-9 z m 25.09375,0.8125 c -1.05766,0.015 -1.66346,0.449 -1.9375,1.3125 -0.30454,0.9594 -1.52823,1.6395 -3.9375,2.1562 -4.05654,0.87 -8.44301,3.2417 -9.09375,4.9375 -1.14163,2.975 -1.23095,9.292 -0.15625,10.7188 0.95883,1.2727 1.36625,1.3401 3.34375,0.5937 2.23979,-0.8454 2.24971,-0.8459 2.09375,1.4688 -0.0861,1.279 0.10785,2.7359 0.40625,3.2187 0.77574,1.2552 2.85673,1.0877 10.25,-0.7812 7.78183,-1.9672 13.84983,-5.5263 14.34375,-8.4063 0.98164,-5.724 -0.41209,-10.9375 -2.90625,-10.9375 -0.55752,0 -3.14575,-0.9925 -5.78125,-2.1875 -3.1502,-1.4283 -5.26515,-2.113 -6.625,-2.0937 z m 29.21875,43.1562 c -2.43758,-0.017 -5.20584,2.6284 -5.75,6.0313 -0.39015,2.44 -0.78884,2.9226 -2.8125,3.4375 -1.29154,0.3286 -2.65522,1.2879 -3.03125,2.125 -0.66891,1.4889 -4.5456,3.125 -7.4375,3.125 -1.98051,0 -8.87499,5.73 -8.875,7.375 0,0.7316 0.36982,1.9285 0.84375,2.6875 0.67579,1.0821 0.65155,1.6331 -0.0937,2.5312 -1.3728,1.6541 -2.02208,1.4568 -4.78125,-1.4687 -1.75252,-1.8582 -2.84525,-2.4722 -3.75,-2.125 -0.70129,0.2691 -3.37469,0.667 -5.96875,0.875 -6.67541,0.5352 -8.07482,1.2456 -12.0625,6.1875 -1.94488,2.4103 -4.38362,5.3771 -5.40625,6.625 -2.69744,3.2916 -7.90628,10.9395 -7.90625,11.5937 0,1.1698 -10.18137,14.2187 -11.09375,14.2188 -0.5266,0 -2.30372,1.1685 -3.96875,2.5937 -2.13579,1.8282 -3.05212,3.1659 -3.0625,4.5313 -0.01,1.3173 -1.84789,4.2574 -5.78125,9.1875 l -5.78125,7.2187 0,4.7188 c -0.002,4.3714 -0.23599,5.0695 -3.3125,9.75 -1.8222,2.7721 -3.95257,5.4945 -4.71875,6.0312 -1.7809,1.2474 -1.76978,3.7236 0.0312,7.1875 3.24576,6.2428 2.21216,18.798 -2.1875,26.5938 -1.1795,2.09 -2.12499,4.8856 -2.125,6.2187 0,3.2636 3.44519,8.5162 10,15.2813 6.9835,7.2074 7.84642,8.6493 8.84375,14.5625 0.93652,5.552 0.7613,8.5861 -1.0625,16.5 -1.73333,7.5211 -1.80369,10.5918 -0.375,21.125 1.42574,10.5118 1.02612,14.827 -1.9375,20.4062 -1.02248,1.9248 -1.9736,4.5516 -2.09375,5.8438 -0.13652,1.469 -1.58672,4.1642 -3.875,7.1875 -4.60132,6.0792 -5.44186,9.0806 -4.96875,17.875 0.3732,6.9375 1.64059,11.368 4,14 2.06561,2.3042 9.72984,6.9595 12.78125,7.7812 1.57754,0.4248 5.99168,2.3888 9.8125,4.3438 3.8208,1.955 7.77042,3.5581 8.75,3.5625 2.47698,0.011 7.76501,1.6976 13.15625,4.1875 2.50674,1.1578 5.79644,2.502 7.3125,3 2.28693,0.7513 3.39944,1.9131 6.5625,6.8125 3.93256,6.0913 7.96735,9.875 10.5,9.875 2.4806,0 4.73023,1.1847 8.6875,4.5625 5.10988,4.3617 10.84182,7.3278 17.78125,9.1875 3.15581,0.8457 6.00673,1.7172 6.3125,1.9062 2.98786,1.8466 16.56253,21.8724 16.5625,24.4375 0,0.4996 0.36573,1.3033 0.84375,1.7813 1.12887,1.1288 1.66988,1.1074 2.71875,-0.1563 1.97015,-2.3739 -2.36712,-10.5511 -13.59375,-25.625 -5.40588,-7.2584 -12.23713,-13.9008 -14.3125,-13.9062 -0.72366,0 -8.08625,-4.7373 -11.46875,-7.375 -8.43343,-6.5765 -20.51937,-13.9268 -33.71875,-20.5 -13.21856,-6.5826 -20.15444,-10.3171 -21.90625,-11.8125 -1.70132,-1.4524 -1.59704,-4.4108 0.21875,-6.3438 0.8147,-0.8672 3.07327,-4.118 5.03125,-7.2187 3.79184,-6.0049 4.80317,-9.7479 4.0625,-15 -0.42397,-3.0066 -0.35018,-3.1491 3,-5.625 1.88644,-1.3942 5.0604,-3.8612 7.0625,-5.4688 2.00202,-1.6077 4.77241,-3.3552 6.15625,-3.9062 3.8513,-1.5336 5.71933,-4.1483 5.75,-8.0625 0.0189,-2.41 -0.34579,-3.6936 -1.375,-4.625 -0.78167,-0.7074 -1.80353,-2.3971 -2.25,-3.75 -0.82477,-2.499 -3.71278,-4.5938 -6.3125,-4.5938 -0.74192,0 -2.29261,0.9613 -3.4375,2.1563 -1.14488,1.195 -2.7408,2.1849 -3.5625,2.1875 -0.82172,0 -2.46122,0.646 -3.65625,1.4375 -1.195,0.7915 -3.2737,1.4349 -4.59375,1.4375 l -2.40625,0 1.65625,-2.9063 c 0.89966,-1.6007 3.6758,-4.9823 6.1875,-7.5312 2.51159,-2.5489 4.56251,-4.9076 4.5625,-5.25 0,-0.3425 -0.95135,-1.4701 -2.125,-2.5 -4.72546,-4.1464 -3.63838,-9.3411 2.875,-13.875 1.49679,-1.0419 1.8125,-1.8667 1.8125,-4.6875 0,-4.3934 0.87176,-4.5539 7.6875,-1.5625 l 5.25,2.2812 1.6875,-1.9375 c 3.15747,-3.6708 1.92746,-9.1743 -2.78125,-12.4375 -3.045,-2.1102 -3.29408,-2.8135 -1.6875,-4.9375 1.60571,-2.123 1.30559,-3.1264 -1.75,-6.0625 -1.85319,-1.7807 -2.95298,-3.5763 -3.28125,-5.375 -0.5518,-3.0241 -3.14824,-4.9062 -6.78125,-4.9062 -2.86633,0 -3.78123,-1.2136 -3.78125,-4.9375 0,-3.4348 -2.04681,-7.4225 -6.3125,-12.375 -3.06803,-3.562 -3.87812,-8.9601 -2,-13.125 0.90443,-2.0057 1.75006,-2.8952 2.8125,-2.9063 2.26876,-0.024 7.61098,-2.6294 8.125,-3.9687 0.3073,-0.8009 0.99053,-1.0348 2.125,-0.75 0.91203,0.2289 3.88027,-0.056 6.59375,-0.625 4.1922,-0.8788 5.34084,-1.4865 7.65625,-3.9688 2.3921,-2.5644 2.71872,-3.3441 2.71875,-6.5 l 0,-3.5937 5.96875,-1.9688 c 6.63,-2.189 8.29277,-2.2823 11.4375,-0.6562 1.62404,0.8398 2.15624,1.6177 2.15625,3.1875 0,2.0919 -1.07517,2.9375 -3.625,2.9375 -1.78098,0 -2.49434,2.1931 -1.15625,3.5312 0.95962,0.9596 1.58476,0.9232 5.5625,-0.2812 2.4664,-0.7468 5.77198,-2.4369 7.34375,-3.75 1.57174,-1.3132 3.22744,-2.4063 3.65625,-2.4063 1.88889,0 3.40626,-2.4404 3.40625,-5.4687 0,-5.0496 -0.85275,-6.3036 -6.0625,-8.8438 -2.6224,-1.2786 -5.03004,-2.3437 -5.375,-2.3437 -0.34495,0 -1.1627,-0.5632 -1.8125,-1.2813 -0.90885,-1.0042 -1.08349,-2.1524 -0.75,-4.9687 0.38798,-3.276 0.23843,-3.8106 -1.28125,-4.875 -2.95947,-2.0729 -7.875,-1.0745 -7.875,1.5937 0,1.6833 -1.37302,3.0117 -2.625,2.5313 -2.04468,-0.7847 -0.64083,-8.3942 1.875,-10.1563 0.80912,-0.5668 1.46875,-1.7922 1.46875,-2.75 0,-1.464 0.57533,-1.9381 3.625,-2.8437 6.2581,-1.8585 9.40622,-4.5136 9.40625,-7.9375 0,-1.2502 4.33285,-7.8221 5.9375,-9 2.56664,-1.8841 3.01702,-3.9574 3.125,-14.4375 l 0.125,-10.3125 3.0625,-2.8438 c 3.07231,-2.8363 3.0873,-2.8623 2.59375,-6.8125 -0.32475,-2.599 -0.24272,-4.1137 0.28125,-4.4375 1.08882,-0.6729 1.02364,-4.5179 -0.0937,-5.2187 -0.49743,-0.312 -1.03123,-0.4649 -1.59375,-0.4688 z m 20,88.5 c -1.41952,0.1178 -2.48866,1.5863 -1.875,4.0313 0.23125,0.9212 -0.0729,2.6552 -0.6875,3.8437 -1.24026,2.3984 -4.26284,3.8487 -10.75,5.1875 -2.28346,0.4713 -4.38911,1.224 -4.65625,1.6563 -0.2671,0.4323 -0.59322,2.4178 -0.75,4.4062 -0.1568,1.9885 -0.76496,4.7397 -1.34375,6.125 -1.74354,4.1729 -1.34033,6.9378 1.5,10.4375 1.39902,1.7239 3.08904,4.0556 3.78125,5.1875 0.69216,1.1319 2.1712,3.5195 3.28125,5.3125 1.40285,2.2657 2.34738,3.1422 3.125,2.8438 0.61539,-0.2361 1.27086,-0.4375 1.4375,-0.4375 0.16657,0 0.31248,-0.6772 0.3125,-1.5 0,-1.6992 1.25049,-4.3781 2.4375,-5.1875 0.43824,-0.2989 2.12544,-0.8909 3.71875,-1.3125 4.95323,-1.3105 12.95337,-4.444 14.28125,-5.5938 0.85859,-0.7433 1.28123,-2.1554 1.28125,-4.375 0,-1.8021 0.70585,-5.4651 1.5625,-8.125 l 1.5625,-4.8437 -5.125,-4.9688 c -2.80796,-2.7459 -5.87585,-5.6822 -6.8125,-6.5 -0.93666,-0.8179 -2.25893,-2.5079 -2.9375,-3.7812 -0.93624,-1.757 -2.23968,-2.4979 -3.34375,-2.4063 z m -64.375,36.8125 c -0.36986,0.01 -0.68712,0.053 -0.9375,0.1875 -0.78493,0.4201 -1.64183,1.666 -1.90625,2.75 -0.26449,1.0839 -1.25228,2.9053 -2.1875,4.0313 -0.93529,1.1259 -1.6875,2.9686 -1.6875,4.125 0,2.8517 2.04711,8.031 3.78125,9.5625 1.30037,1.1485 1.62644,1.1422 4.0625,0.125 3.85303,-1.609 8.293,-4.2976 9.625,-5.8438 2.02172,-2.3469 2.11337,-3.734 0.40625,-5.8437 -0.89516,-1.1062 -2.03266,-2.8877 -2.5,-3.9688 -1.0185,-2.3561 -6.06723,-5.1762 -8.65625,-5.125 z m 26.03125,12.8125 c -0.77878,0.044 -1.29733,0.3476 -2.125,0.9375 -4.29808,3.0634 -5.61096,3.7236 -8.09375,4.1875 -1.4437,0.2698 -3.03335,0.8386 -3.53125,1.25 -1.07064,0.8847 -1.1748,6.2157 -0.1875,8.8125 0.38189,1.0044 1.18233,4.6846 1.78125,8.1875 1.05753,6.1845 1.17336,6.4711 4.53125,9.4688 2.99503,2.6738 3.34292,3.2539 2.5625,4.3437 -2.5129,3.5091 -2.62948,4.4345 -1.125,8.3438 0.80072,2.0806 1.79005,4.7424 2.21875,5.9375 1.13083,3.1522 4.08427,9.9771 4.8125,11.125 0.94339,1.487 5.50127,0.4939 7.28125,-1.5938 2.11724,-2.4831 14.32681,-8.6341 18.96875,-9.5625 2.40346,-0.4807 3.27428,0.229 4.40625,3.6563 0.59446,1.8 1.09792,2.1703 2.875,2.0937 1.17979,-0.051 4.07473,-1.0433 6.4375,-2.1875 4.28882,-2.0768 4.27797,-2.0757 4.09375,-5.0625 -0.16861,-2.7341 0.1692,-3.3663 3.8125,-7.25 2.24355,-2.3915 3.99999,-4.9169 4,-5.7812 0,-1.3686 -4.09569,-7.2156 -7.375,-10.5313 -0.67043,-0.6779 -1.76632,-2.0233 -2.40625,-3 -1.0332,-1.5768 -1.86697,-1.8479 -7.46875,-2.3125 -3.46962,-0.2879 -7.15426,-0.9511 -8.21875,-1.5 -1.27394,-0.657 -3.99894,-0.9723 -7.96875,-0.875 -4.53571,0.1112 -6.75409,-0.167 -8.90625,-1.1562 -2.60886,-1.1991 -2.72585,-1.3695 -1.4375,-2.0625 2.0139,-1.0836 1.92992,-0.9633 2.15625,-3.9688 0.14246,-1.8911 -0.38803,-3.8452 -1.71875,-6.3125 -1.76751,-3.2771 -2.25922,-3.6644 -5.8125,-4.5625 -1.76077,-0.445 -2.78372,-0.6686 -3.5625,-0.625 z"
       style="fill:#ce1126;stroke:#ce1126;stroke-width:4.30000019;stroke-miterlimit:4;stroke-opacity:1;stroke-dasharray:none" />
    <path
       id="white part"
       d="m 234.14157,1328.3641 c -8.20804,0 -13.7125,3.5084 -17.5,11.125 l -2.3125,4.625 -11.71875,-0.3125 c -6.45292,-0.1654 -16.73645,-0.5781 -22.84375,-0.9375 -6.79034,-0.3997 -13.26021,-0.3834 -16.65625,0.031 -3.05435,0.373 -8.97374,0.9977 -13.15625,1.4063 -11.96708,1.169 -18.38641,2.5855 -24.0625,5.3125 -4.08067,1.9605 -6.09756,2.498 -8.90625,2.4062 -4.69323,-0.1533 -7.29771,1.6718 -7.8125,5.4688 -0.37683,2.7796 -4.57788,8.2788 -11.281253,14.7187 -3.00372,2.8857 -3.30619,2.9929 -5.625,2.2813 -2.18728,-0.6713 -2.79444,-0.5265 -5.5,1.375 -1.66821,1.1724 -3.25596,2.9492 -3.53125,3.9375 -0.92152,3.3093 -0.63858,13.5206 0.5,18.5625 l 0.125,0.5 163.750003,-65.5313 c -3.87687,-3.5167 -8.04606,-4.9687 -13.46875,-4.9687 z m -272.968753,107.7187 c -1.032731,-0.029 -1.403687,0.3497 -1.5625,1.4688 -0.32583,2.2957 3.093581,3.6044 10.78125,4.0937 7.5453,0.4803 12.355123,1.713 23.3437504,5.9688 7.22264001,2.7972 9.244703,3.9225 12.90625,7.3125 2.38449,2.2076 4.6671036,4.6714 5.0937496,5.4687 0.74828,1.3982 0.720618,1.3889 -1.28125,-0.094 -1.1414796,-0.8454 -2.9104116,-2.1698 -3.9062496,-2.9687 -2.10341,-1.6877 -4.527414,-1.9291 -5.68749999,-0.5313 -0.44657,0.5381 -1.027554,2.4933 -1.28125,4.3438 l -0.46875,3.3749 -3.34375001,-2.375 c -1.83813,-1.3142 -4.97709,-3.1481 -6.9687504,-4.0625 -1.99167,-0.9144 -5.57875,-2.571 -7.96875,-3.6875 -12.46832,-5.8245 -18.92688,-7.0495 -39.28125,-7.4687 l -13.9375,-0.3125 0,1.625 c 0,1.4919 0.43741,1.6467 5.625,2.0625 3.08708,0.2474 10.317921,0.4987 16.09375,0.5625 5.77582,0.064 12.805421,0.5931 15.59375,1.1562 7.72382,1.56 29.1306914,11.6026 32.3750004,15.1875 1.17522,1.2986 1.097213,1.4938 -1.8125,4.4063 -7.5945404,7.6016 -7.2964614,7.4062 -10.7500004,7.4062 -3.98355,0 -5.130809,0.8604 -6.75,5.0625 -0.69071,1.7925 -1.710688,3.7463 -2.28125,4.3438 -3.0232,3.166 -5.386941,6.9679 -5.75,9.3125 -0.22481,1.4517 -0.71458,4.5462 -1.125,6.875 -0.4105,2.3288 -0.525349,6.3349 -0.25,8.9062 0.41333,3.8598 0.923129,5.2079 2.96875,7.6563 3.54994,4.249 3.979709,5.2404 3.15625,7.4062 -1.19913,3.154 -0.07078,8.3825 2.6875,12.4688 2.66535,3.9486 2.685342,4.3367 1.21875,12.7187 l -0.46875,2.7188 4.96875,2.2812 c 3.67958,1.6768 6.261069,2.3102 9.9062504,2.4688 2.94267,0.1279 5.607993,0.6881 6.65625001,1.375 2.80643999,1.8388 4.68690899,1.354 8.40624999,-2.125 3.9886196,-3.7309 3.7459226,-3.7152 16.7812496,-2.25 6.58821,0.7405 8.92576,1.296 10.15625,2.4062 3.38604,3.0553 7.45937,5.2813 9.6875,5.2813 2.59655,0 4.59375,-1.5933 4.59375,-3.6563 0,-2.1107 -2.20723,-8.1357 -3.5,-9.5937 -1.05906,-1.1945 -1.05866,-1.5019 0.0312,-3.625 0.65435,-1.2746 1.58027,-4.203 2.03125,-6.5 0.71541,-3.6443 0.65292,-4.5158 -0.5,-6.875 -1.09991,-2.2509 -1.88067,-2.848 -4.59375,-3.5 l -3.25,-0.7813 -0.53125,-7.9062 c -0.28941,-4.3493 -0.34257,-12.4546 -0.125,-18.0313 0.35306,-9.0505 0.58989,-10.5275 2.25,-13.6875 1.68755,-3.2122 1.81711,-4.0603 1.40625,-9.0625 -0.24906,-3.0321 -0.66674,-6.2085 -0.90625,-7.0625 -0.39594,-1.4119 -0.0786,-1.5754 3.4375,-2 2.12666,-0.2568 9.24001,-1.1456 15.8125,-1.9375 6.57249,-0.7919 15.69264,-1.8917 20.25,-2.4687 4.55744,-0.5771 8.41012,-0.9337 8.5625,-0.7813 0.36263,0.3627 -1.83171,4.5835 -3.6875,7.0938 l -1.46875,1.9687 1.6875,10.3438 c 0.92688,5.6847 2.10646,11.5679 2.625,13.0625 0.51856,1.4945 1.31697,4.6742 1.75,7.0625 0.43309,2.3882 1.76476,6.6394 2.96875,9.4687 1.20398,2.8293 1.97492,5.3689 1.71875,5.625 -0.2561,0.2561 -2.65438,1.9496 -5.3125,3.75 -5.73737,3.8861 -6.19076,5.2991 -2.96875,8.9688 2.78659,3.1737 4.22057,3.262 7.4375,0.4375 1.361,-1.195 2.84008,-2.1875 3.25,-2.1875 0.40992,0 1.54733,0.981 2.562503,2.1875 1.49933,1.7818 1.84202,2.8597 1.71875,5.75 -0.13137,3.0782 0.42789,4.718 4.1875,12.0625 5.29551,10.345 8.12274,14.7812 9.46875,14.7812 1.30501,0 1.30469,0.7962 -0.0312,2.5625 -1.96429,2.597 -1.32111,4.5804 3.0625,9.25 3.28278,3.497 4.44904,4.9623 5.8125,8 L 271.54782,1529.8013 89.860317,1457.145 c -0.20045,0.886 -0.38827,1.9597 -0.5,3.1563 l -0.4375,4.8437 -5.875,0.7188 c -6.85466,0.8725 -17.36558,2.0292 -27.59375,3.0312 -3.98333,0.3902 -9.00188,1.099 -11.125,1.5625 l -3.84375,0.8438 -2.875,-3.375 c -3.00104,-3.511 -6.86428,-5.0252 -9.25,-3.6563 -0.63364,0.3636 -3.322812,0.5466 -5.96875,0.4063 l -4.8125,-0.25 -0.84375,-3.0313 c -0.858,-3.0644 -6.506217,-9.6504 -11.1874996,-13.0625 -3.43269,-2.502 -16.0810814,-7.4806 -23.6250004,-9.2812 -2.70062,-0.6446 -12.114559,-2.0077 -20.28125,-2.9375 -0.176,-0.02 -0.321217,-0.027 -0.46875,-0.031 z m 184.812503,249.5 c -0.15161,1.6792 -0.44884,3.8678 -0.8125,6.9688 -0.38298,3.2655 -0.21625,4.0744 1.03125,5.4062 2.01535,2.1516 3.03125,5.0879 3.03125,8.7813 0,2.3835 -1.08288,5.257 -4.6875,12.375 -2.58206,5.0987 -5.19851,9.7936 -5.78125,10.4375 -1.7334,1.9154 -3.98291,7.4838 -4,9.875 -0.0103,1.4432 -0.6653,2.8635 -1.875,4 -1.02691,0.9647 -3.05135,3.6354 -4.46875,5.9687 -2.56497,4.2225 -2.56204,4.2707 -1.96875,9.7813 0.32779,3.0451 0.60371,8.4775 0.625,12.0625 l 0.0312,6.5312 -5.0625,10.0625 c -2.07261,4.1239 -3.91124,7.4153 -5.65625,10.0625 l 155.15625,-62.0625 -125.5625,-50.25 z m -43.40625,188.6875 c 0.38403,2.1232 0.85867,4.4378 1.1875,5.7813 0.76161,3.112 7.8756,14.5084 12.78125,20.4687 1.47528,1.7925 3.96957,5.0592 5.53125,7.25 1.56175,2.1908 4.90932,6.0587 7.4375,8.5938 5.08982,5.1037 9.35717,6.9917 14,6.2187 2.58967,-0.4311 2.73895,-0.3146 16.28125,13.1875 7.51647,7.4942 14.88067,15.5211 16.375,17.8125 3.18827,4.8888 9.73537,12.7629 16.21875,19.9375 l 79.15625,-31.6562 -168.96875,-67.5938 z"
       style="fill:#ffffff" />
    <path
       d="M 463.24412,1758.956 360.49883,2246.3019"
       style="fill:none;stroke:#000000;stroke-width:3;stroke-linecap:butt;stroke-linejoin:miter;stroke-miterlimit:4;stroke-opacity:1;stroke-dasharray:none"
       id="path4833" />
    <path
       d="m 582.46949,2245.1157 c -0.478,-0.478 -0.86909,-1.2779 -0.86909,-1.7775 0,-2.5651 -13.57345,-22.6064 -16.56131,-24.453 -0.30577,-0.189 -3.13792,-1.0355 -6.29373,-1.8812 -6.93946,-1.8596 -12.68502,-4.8262 -17.7949,-9.1879 -3.95726,-3.3778 -6.21334,-4.5616 -8.69394,-4.5616 -2.53267,0 -6.56308,-3.7974 -10.49564,-9.8887 -3.16305,-4.8994 -4.28215,-6.0597 -6.56908,-6.811 -1.51606,-0.498 -4.80745,-1.8528 -7.31419,-3.0106 -5.39126,-2.4899 -10.67981,-4.1709 -13.15679,-4.1818 -0.97961,0 -4.90732,-1.6074 -8.72812,-3.5624 -3.82081,-1.955 -8.23767,-3.9021 -9.81521,-4.3269 -3.05138,-0.8217 -10.71632,-5.504 -12.78193,-7.8082 -2.35943,-2.632 -3.62026,-7.0473 -3.99346,-13.9848 -0.47308,-8.7944 0.36328,-11.8076 4.9646,-17.8868 2.28831,-3.0232 3.74187,-5.7162 3.87839,-7.1852 0.12015,-1.2922 1.05493,-3.9244 2.07741,-5.8492 2.9636,-5.5792 3.37612,-9.8961 1.95038,-20.4079 -1.42871,-10.5332 -1.37707,-13.5934 0.35626,-21.1145 1.82378,-7.9139 2.02331,-10.9421 1.08679,-16.4941 -0.99735,-5.9131 -1.87723,-7.3597 -8.86073,-14.5671 -6.55482,-6.7651 -9.99707,-12.0315 -9.99707,-15.2951 0,-1.3331 0.95535,-4.1057 2.13485,-6.1957 4.39969,-7.7958 5.43159,-20.351 2.18583,-26.5937 -1.80104,-3.4639 -1.81161,-5.9609 -0.0307,-7.2084 0.76618,-0.5366 2.88393,-3.2439 4.70613,-6.016 3.0765,-4.6805 3.31326,-5.3765 3.3155,-9.748 l 0.002,-4.7075 5.77822,-7.2424 c 3.93336,-4.9301 5.783,-7.8603 5.79299,-9.1777 0.0104,-1.3653 0.90624,-2.6984 3.04203,-4.5265 1.66503,-1.4252 3.45818,-2.5913 3.98478,-2.5913 0.9124,0 11.09393,-13.0544 11.09393,-14.2242 0,-0.6542 5.22055,-8.2907 7.91799,-11.5824 1.02263,-1.2478 3.45057,-4.2408 5.39545,-6.6512 3.98768,-4.9418 5.36851,-5.6511 12.04392,-6.1864 2.59409,-0.208 5.29022,-0.5983 5.99151,-0.8674 0.90472,-0.3472 1.99217,0.2712 3.74469,2.1294 2.75914,2.9255 3.41574,3.1276 4.78854,1.4735 0.74531,-0.8981 0.76443,-1.4429 0.0886,-2.5251 -0.47394,-0.7589 -0.8617,-1.9784 -0.8617,-2.7101 0,-1.645 6.90492,-7.3803 8.88543,-7.3803 2.8919,0 6.78165,-1.6265 7.45056,-3.1155 0.37603,-0.8371 1.74043,-1.7908 3.03197,-2.1195 2.02367,-0.5149 2.41092,-0.9889 2.80107,-3.4289 0.66971,-4.1882 4.69084,-7.243 7.34381,-5.579 1.11736,0.7009 1.19739,4.5618 0.10857,5.2347 -0.52399,0.3238 -0.6277,1.8459 -0.30295,4.4448 0.49357,3.9503 0.49212,3.954 -2.58019,6.7903 l -3.07397,2.8379 -0.10632,10.3229 c -0.10798,10.4802 -0.55918,12.5661 -3.12582,14.4502 -1.60463,1.1779 -5.94733,7.749 -5.94733,8.9991 0,3.424 -3.15059,6.0833 -9.40869,7.9418 -3.04964,0.9056 -3.62766,1.3548 -3.62766,2.8188 0,0.9578 -0.6621,2.2052 -1.47122,2.7719 -2.5158,1.7621 -3.92083,9.3587 -1.87615,10.1433 1.252,0.4805 2.62313,-0.8368 2.62313,-2.5201 0,-2.6682 4.93469,-3.6609 7.89416,-1.5881 1.51968,1.0645 1.65265,1.5746 1.26467,4.8506 -0.33351,2.8164 -0.161,3.9623 0.74785,4.9666 0.64979,0.718 1.4637,1.3054 1.80865,1.3054 0.34496,0 2.77291,1.0462 5.39531,2.3248 5.20976,2.5402 6.06509,3.7863 6.06509,8.8359 0,3.0283 -1.53981,5.4969 -3.4287,5.4969 -0.42883,0 -2.06569,1.0744 -3.63743,2.3875 -1.57175,1.3131 -4.87567,2.9985 -7.34207,3.7453 -3.97776,1.2044 -4.60654,1.2355 -5.56616,0.2759 -1.33811,-1.3381 -0.61865,-3.5118 1.16233,-3.5118 2.54984,0 3.60296,-0.8639 3.60296,-2.9558 0,-1.5697 -0.52457,-2.3479 -2.14861,-3.1878 -3.14473,-1.6261 -4.80092,-1.5308 -11.43092,0.6582 l -5.97499,1.9728 0,3.595 c 0,3.1559 -0.33286,3.9517 -2.72496,6.5162 -2.3154,2.4823 -3.46651,3.0768 -7.65871,3.9555 -2.71351,0.5688 -5.67994,0.847 -6.59197,0.618 -1.13445,-0.2847 -1.80025,-0.046 -2.10755,0.7545 -0.51399,1.3394 -5.87823,3.9671 -8.14699,3.9908 -1.06246,0.011 -1.90852,0.8787 -2.81295,2.8843 -1.87811,4.1649 -1.04552,9.5714 2.02251,13.1333 4.26571,4.9525 6.29337,8.9392 6.29337,12.3739 0,3.7239 0.93565,4.9396 3.80198,4.9396 3.63301,0 6.21588,1.8663 6.76768,4.8904 0.32829,1.7987 1.43841,3.6203 3.2916,5.401 3.05558,2.9361 3.33868,3.9237 1.73297,6.0467 -1.60659,2.124 -1.36179,2.8445 1.68321,4.9547 4.70872,3.2632 5.93892,8.7618 2.78145,12.4326 l -1.66844,1.9396 -5.25452,-2.3062 c -6.81576,-2.9914 -7.70412,-2.8087 -7.70412,1.5847 0,2.8208 -0.31381,3.6307 -1.8106,4.6726 -6.51339,4.5339 -7.58368,9.7298 -2.85822,13.8762 1.17364,1.03 2.13398,2.1527 2.13398,2.4952 0,0.3424 -2.05504,2.7081 -4.56663,5.257 -2.51167,2.549 -5.30275,5.9442 -6.20241,7.5449 l -1.63577,2.9105 2.40014,-0.01 c 1.32007,0 3.37786,-0.6522 4.57286,-1.4437 1.195,-0.7914 2.84504,-1.4411 3.66676,-1.4437 0.82172,0 2.43077,-0.9825 3.57565,-2.1775 1.14488,-1.195 2.6886,-2.1727 3.43052,-2.1727 2.59974,0 5.48888,2.1084 6.31365,4.6074 0.44649,1.3529 1.45138,3.0386 2.23305,3.746 1.02922,0.9315 1.41408,2.2041 1.39518,4.6141 -0.0306,3.9142 -1.89766,6.5343 -5.74896,8.0679 -1.38381,0.551 -4.15403,2.3172 -6.15605,3.9249 -2.00209,1.6076 -5.18361,4.0636 -7.07005,5.4578 -3.35019,2.476 -3.41972,2.6063 -2.99575,5.6129 0.74068,5.2521 -0.27956,9.0161 -4.0714,15.021 -1.95798,3.1007 -4.2266,6.3472 -5.0413,7.2144 -1.81581,1.933 -1.91518,4.8719 -0.21386,6.3243 1.75179,1.4955 8.68974,5.2392 21.9083,11.8218 13.19938,6.5732 25.27885,13.9157 33.71228,20.4922 3.3825,2.6377 10.76332,7.3824 11.48698,7.3843 2.07539,0.01 8.90781,6.6393 14.31369,13.8977 11.22662,15.0739 15.5646,23.2507 13.59445,25.6246 -1.04885,1.2637 -1.58225,1.2968 -2.71112,0.1679 z m -290.0551,-60.8259 c -0.54797,-1.3203 -1.70979,-4.7588 -2.58185,-7.6413 -0.87213,-2.8825 -2.51993,-6.6304 -3.66177,-8.3288 -4.30214,-6.3987 -7.37719,-12.8565 -8.361,-17.5585 -0.55941,-2.6739 -1.47999,-5.4005 -2.0457,-6.0591 -1.33325,-1.5523 -5.73121,-11.9868 -8.01308,-19.0116 -1.92518,-5.9269 -3.04275,-12.6239 -3.73498,-22.3813 -1.06587,-15.0248 -3.26749,-26.8605 -6.66867,-35.85 -4.20408,-11.1116 -4.47734,-11.6291 -10.72979,-20.3217 -2.88219,-4.0069 -5.97238,-8.7326 -6.86711,-10.5015 -0.89473,-1.7689 -3.65959,-6.3123 -6.1441,-10.0964 -12.10758,-18.4409 -14.30095,-22.5778 -21.6956,-40.9197 -2.24826,-5.5766 -4.39122,-10.8726 -4.7621,-11.7689 -0.37089,-0.8962 -1.2118,-1.6295 -1.86876,-1.6295 -2.43628,0 -0.0235,7.9676 3.80016,12.5487 1.94619,2.3318 2.21307,4.4846 0.63111,5.0916 -2.20727,0.847 -26.36601,-25.2945 -33.53528,-36.2876 -1.49433,-2.2915 -8.86689,-10.298 -16.38336,-17.7922 -13.5423,-13.5022 -13.69004,-13.6219 -16.27971,-13.1908 -4.64283,0.773 -8.92165,-1.1309 -14.01147,-6.2346 -2.52818,-2.5351 -5.87447,-6.4018 -7.43622,-8.5926 -1.56168,-2.1909 -4.04656,-5.4499 -5.52184,-7.2424 -4.90565,-5.9604 -12.02393,-17.3555 -12.78554,-20.4675 -0.41332,-1.6887 -1.07492,-5.0258 -1.47028,-7.4158 -0.39536,-2.39 -1.06,-5.6473 -1.47695,-7.2385 -0.41694,-1.5911 -0.57389,-5.3391 -0.34872,-8.3288 0.27681,-3.676 -0.0236,-8.0148 -0.927973,-13.4024 -1.77881,-10.5965 -1.70472,-17.0971 0.24755,-21.7272 0.839833,-1.9917 1.705803,-4.436 1.924383,-5.4319 0.3753,-1.7091 1.60188,-3.2417 11.3104,-14.1322 2.71939,-3.0505 5.5897,-7.6646 9.04593,-14.5415 l 5.06252,-10.0732 -0.0388,-6.5181 c -0.0213,-3.585 -0.30701,-9.0097 -0.6348,-12.0548 -0.5933,-5.5106 -0.58395,-5.5566 1.98102,-9.779 1.41741,-2.3334 3.41733,-5.0317 4.44424,-5.9965 1.2097,-1.1364 1.87267,-2.5383 1.88295,-3.9816 0.0171,-2.3911 2.28679,-7.9749 4.02019,-9.8903 0.58273,-0.6439 3.17204,-5.3424 5.7541,-10.4411 3.60462,-7.118 4.69468,-9.9912 4.69468,-12.3747 0,-3.6934 -1.00358,-6.6039 -3.01893,-8.7555 -1.2475,-1.3319 -1.40438,-2.1663 -1.0214,-5.4318 1.37353,-11.7124 1.45754,-10.763 -1.43233,-16.1884 -2.42758,-4.5576 -2.70663,-5.6537 -2.85271,-11.2077 -0.0891,-3.3859 0.28709,-9.5433 0.83599,-13.6832 0.94289,-7.1121 0.7648,-11.8459 -0.50704,-13.4759 -0.31085,-0.3983 -0.69426,-3.0056 -0.852,-5.7939 -0.48227,-8.5219 -5.14574,-27.5571 -8.29191,-33.846 -0.54463,-1.0887 -1.98812,-2.4955 -3.20774,-3.1262 -1.34014,-0.693 -2.63762,-2.2023 -3.2793,-3.8145 -2.07401,-5.2112 -2.80303,-6.3397 -6.94583,-10.7528 -4.38362,-4.6697 -5.04529,-6.6571 -3.081,-9.2542 1.33594,-1.7663 1.3502,-2.5774 0.0452,-2.5774 -1.346,0 -4.18785,-4.4267 -9.48336,-14.7717 -3.75961,-7.3445 -4.32502,-8.9688 -4.19365,-12.047 0.12327,-2.8902 -0.1946,-3.9695 -1.69393,-5.7514 -1.015173,-1.2065 -2.181123,-2.1935 -2.591043,-2.1935 -0.40992,0 -1.85891,0.9777 -3.21991,2.1727 -3.21693,2.8245 -4.67324,2.7397 -7.45983,-0.434 -3.22201,-3.6697 -2.74908,-5.0901 2.98829,-8.9761 2.65811,-1.8004 5.04253,-3.483 5.29863,-3.7392 0.25616,-0.2561 -0.51936,-2.7805 -1.72334,-5.6098 -1.20398,-2.8293 -2.54339,-7.0982 -2.97648,-9.4865 -0.43303,-2.3882 -1.21166,-5.5651 -1.73022,-7.0597 -0.51855,-1.4946 -1.70117,-7.3685 -2.62805,-13.0533 l -1.68517,-10.3359 1.46109,-1.9762 c 1.85579,-2.5102 4.05054,-6.7328 3.68791,-7.0954 -0.15238,-0.1524 -4.00585,0.195 -8.56329,0.7721 -4.55736,0.5771 -13.66361,1.6972 -20.2361,2.4891 -6.57249,0.7919 -13.68998,1.65 -15.81664,1.9068 -3.51612,0.4246 -3.82718,0.6077 -3.43124,2.0197 0.23951,0.854 0.63922,4.0335 0.88828,7.0656 0.41086,5.0021 0.2805,5.8408 -1.40705,9.053 -1.66011,3.16 -1.9023,4.629 -2.25536,13.6795 -0.21757,5.5767 -0.15876,13.6979 0.13065,18.0471 l 0.52623,7.9077 3.25909,0.7832 c 2.71308,0.652 3.48041,1.2361 4.58032,3.487 1.15292,2.3592 1.21687,3.236 0.50146,6.8803 -0.45098,2.2971 -1.35527,5.2193 -2.00962,6.4939 -1.08991,2.1232 -1.09281,2.4268 -0.0338,3.6212 1.29277,1.4581 3.47976,7.4955 3.47976,9.6062 0,2.0629 -1.99463,3.6476 -4.59118,3.6476 -2.22813,0 -6.29272,-2.212 -9.67876,-5.2673 -1.23049,-1.1102 -3.55118,-1.6596 -10.13939,-2.4001 -13.03533,-1.4651 -12.80893,-1.4953 -16.7975496,2.2356 -3.71934,3.479 -5.59056,3.9493 -8.39699999,2.1105 -1.04826001,-0.6869 -3.73107001,-1.2346 -6.67374001,-1.3626 -3.6451804,-0.1586 -6.2084904,-0.8008 -9.8880704,-2.4776 l -4.96728,-2.2636 0.47431,-2.711 c 1.46659,-8.382 1.42762,-8.7823 -1.23773,-12.731 -2.75828,-4.0862 -3.88462,-9.3169 -2.68549,-12.4709 0.82346,-2.1658 0.39536,-3.1729 -3.15458,-7.422 -2.04562,-2.4483 -2.56497,-3.7807 -2.9783,-7.6405 -0.27535,-2.5713 -0.16483,-6.5804 0.24567,-8.9092 0.41042,-2.3288 0.93021,-5.422 1.15502,-6.8738 0.36306,-2.3445 2.69801,-6.1443 5.72121,-9.3104 0.57056,-0.5974 1.60246,-2.5529 2.29317,-4.3454 1.61919,-4.2021 2.77587,-5.0697 6.75942,-5.0697 3.45354,0 3.14502,0.2123 10.7395604,-7.3893 2.90971,-2.9125 2.99466,-3.1187 1.81944,-4.4173 -3.24431,-3.5849 -24.6690404,-13.6347 -32.3928604,-15.1946 -2.78833,-0.5632 -9.79537,-1.0761 -15.57119,-1.1398 -5.77583,-0.064 -13.0273,-0.3183 -16.11438,-0.5658 -5.1875,-0.4158 -5.61278,-0.5722 -5.61278,-2.0641 l 0,-1.6142 13.94165,0.2871 c 20.35437,0.4193 26.82178,1.6496 39.2901,7.4741 2.39,1.1165 5.97499,2.7781 7.96666,3.6925 1.9916604,0.9144 5.1250904,2.7378 6.9632204,4.052 l 3.34208001,2.3895 0.46113,-3.3645 c 0.2537,-1.8505 0.82657,-3.8048 1.27314,-4.3429 1.16008999,-1.3979 3.60092999,-1.1811 5.70433999,0.5065 0.99584,0.799 2.74459,2.1444 3.8860696,2.9899 2.00187,1.4826 2.04793,1.4857 1.29965,0.087 -0.42665,-0.7973 -2.7267696,-3.2559 -5.1112596,-5.4635 -3.66155,-3.39 -5.66487999,-4.5288 -12.88752,-7.326 -10.9886304,-4.2558 -15.8180104,-5.4898 -23.3633104,-5.9701 -7.68767,-0.4894 -11.09646,-1.779 -10.77063,-4.0748 0.1815,-1.2789 0.63603,-1.5988 2.04403,-1.4384 8.16669,0.9298 17.57814,2.2934 20.27876,2.938 7.54392,1.8006 20.1896104,6.7576 23.6223004,9.2597 4.6812796,3.4121 10.3173296,10.0017 11.1753296,13.0662 l 0.84577,3.0207 4.81085,0.2551 c 2.64594,0.1403 5.32933,-0.042 5.96297,-0.4059 2.38572,-1.3689 6.25665,0.1704 9.25769,3.6813 l 2.87278,3.3609 3.8602,-0.8427 c 2.12312,-0.4635 7.1193,-1.162 11.10263,-1.5523 10.22817,-1.002 20.7485,-2.1564 27.60316,-3.0289 l 5.87591,-0.748 0.45055,-4.8243 c 0.24777,-2.6534 0.81275,-4.9451 1.25555,-5.0927 2.6752,-0.8917 5.55464,-4.6537 6.69134,-8.7422 1.52018,-5.4678 1.53083,-8.2824 0.0477,-12.6351 -0.88335,-2.5926 -1.04022,-4.6103 -0.64341,-8.2767 0.28861,-2.6666 0.55513,-6.8747 0.59221,-9.3514 0.0815,-5.4445 -1.03682,-6.9299 -7.89438,-10.4854 l -4.56547,-2.3671 -1.12707,-4.9906 c -1.13858,-5.0418 -1.40379,-15.2504 -0.48227,-18.5597 0.27529,-0.9883 1.86529,-2.7561 3.5335,-3.9286 2.70555,-1.9015 3.29791,-2.0504 5.48519,-1.3791 2.31881,0.7116 2.62472,0.5867 5.62844,-2.2989 6.703373,-6.44 10.913163,-11.9218 11.289993,-14.7014 0.51479,-3.797 3.1264,-5.6241 7.81963,-5.4708 2.80868,0.092 4.80172,-0.4488 8.88239,-2.4093 5.6761,-2.727 12.10352,-4.1464 24.0706,-5.3154 4.1825,-0.4086 10.10353,-1.0481 13.15788,-1.421 3.39604,-0.4146 9.86721,-0.4242 16.65755,-0.024 6.10731,0.3594 16.38394,0.7888 22.83686,0.9542 l 11.73271,0.3006 2.2978,-4.6208 c 3.78749,-7.6165 9.30513,-11.12 17.51317,-11.12 8.91143,0 14.43153,3.8413 20.84614,14.5061 4.41171,7.335 3.57688,6.9741 15.72538,6.7983 l 10.68234,-0.1546 8.1735,-4.0567 c 4.49537,-2.2312 8.46631,-4.0567 8.82416,-4.0567 1.49346,0 10.04501,-4.1056 13.14484,-6.3108 1.84008,-1.3091 3.52807,-2.3801 3.75106,-2.3801 0.223,0 2.30251,-1.2544 4.6211,-2.7876 6.19284,-4.0952 8.65172,-4.9966 15.05944,-5.5207 6.53266,-0.5343 13.26514,-3.5388 15.85894,-7.0774 1.30254,-1.777 1.36903,-2.3514 0.6282,-5.4318 -0.45562,-1.8945 -1.04739,-8.9322 -1.31507,-15.6392 l -0.48677,-12.1946 2.76479,-5.4471 c 1.89592,-3.7352 4.42809,-7.1266 8.05734,-10.7914 5.14906,-5.1994 5.29261,-5.4421 5.29261,-8.9487 0,-4.1139 0.72801,-4.7921 5.88424,-5.4812 1.74282,-0.2329 4.47241,-1.0373 6.06574,-1.7875 3.77533,-1.7776 14.56617,-4.9675 18.73881,-5.5394 3.76664,-0.5163 7.53964,0.7366 12.50403,4.1522 2.09364,1.4404 3.16436,2.7109 3.17573,3.7679 0.009,0.8771 1.06861,3.6878 2.35378,6.2459 2.55701,5.0898 2.93977,5.3292 12.11395,7.5785 14.7255,3.6103 16.00893,4.3374 16.89743,9.572 1.0219,6.0204 1.36164,23.0326 0.54789,27.4347 -0.73996,4.0027 -0.69165,4.2558 1.36555,7.1505 2.76871,3.8961 3.62809,9.3629 3.63512,23.1242 0.004,8.484 -0.22894,11.0658 -1.12323,12.4307 -0.9686,1.4782 -1.09708,4.5999 -0.9053,22.0047 0.1229,11.1551 0.4265,20.4846 0.6747,20.7321 0.2482,0.2476 2.85547,-0.052 5.79393,-0.6644 2.93847,-0.6131 6.105,-1.1149 7.03673,-1.1152 1.10034,-4e-4 4.2106,2.2205 8.87414,6.3365 7.44657,6.5723 10.83755,8.3213 14.86375,7.6661 2.62393,-0.4271 2.93868,-0.01 8.81532,11.7074 3.02436,6.0297 3.56957,7.7065 3.25612,10.0139 -0.39616,2.9167 -1.76947,4.0667 -3.31985,2.78 -0.67811,-0.5628 -1.81763,-0.1852 -4.28548,1.4201 -2.68491,1.7465 -3.64453,2.0353 -4.76674,1.4348 -0.77277,-0.4136 -3.43834,-4.7237 -5.92343,-9.5781 -4.16258,-8.1311 -4.48342,-9.0895 -4.07444,-12.1721 l 0.44389,-3.3461 -6.93918,-6.0191 -6.9391,-6.0191 -3.56544,0.4903 c -2.22697,0.3063 -3.56544,0.85 -3.56544,1.4484 0,0.5269 -0.78537,1.5555 -1.74513,2.2858 l -1.74521,1.3279 2.65051,8.2314 2.65043,8.2315 5.79394,2.026 c 3.18666,1.1143 6.70611,2.2275 7.82101,2.4738 1.54053,0.3403 2.36638,1.2391 3.44014,3.7442 1.72334,4.0203 1.77092,6.0328 0.22539,9.5367 -0.65327,1.481 -1.22361,3.6704 -1.26742,4.8654 -0.0691,1.8826 -0.66008,2.4866 -4.42519,4.5232 -6.89225,3.7279 -6.9935,3.6582 -12.34079,-8.5077 -4.40063,-10.0122 -4.58025,-10.6443 -3.84644,-13.5353 0.70186,-2.7652 0.4349,-4.1056 -3.02907,-15.2078 -2.08937,-6.6965 -4.09914,-14.1308 -4.46611,-16.5208 -0.36705,-2.39 -1.1766,-5.4571 -1.79916,-6.8158 -1.1979,-2.6145 -0.97512,-9.49 0.36154,-11.1592 0.37668,-0.4704 0.80528,-5.9017 0.95245,-12.0695 l 0.26761,-11.2142 -3.98333,-2.0103 c -2.19083,-1.1056 -4.39071,-2.5582 -4.88863,-3.228 -1.11388,-1.4982 -1.27387,-18.0094 -0.18106,-18.6848 2.43722,-1.5063 -1.37867,-3.9797 -7.7856,-5.0466 l -3.07802,-0.5125 0,2.4537 c 0,3.1234 -1.09223,4.1918 -4.28505,4.1918 -1.40076,0 -3.95248,0.5368 -5.67038,1.1929 -2.52934,0.966 -3.48179,1.0297 -5.00646,0.335 -1.03559,-0.4718 -1.92221,-0.7642 -1.97037,-0.6497 -0.0481,0.1145 -0.47424,0.904 -0.94695,1.7545 -0.73286,1.3186 -0.60872,1.7819 0.84302,3.1458 l 1.70255,1.5994 2.18271,-1.6138 c 2.23907,-1.6554 4.46003,-1.5269 4.46003,0.2581 0,0.5489 -1.117,2.1482 -2.48227,3.5539 -1.61882,1.6668 -2.56352,3.4059 -2.7159,4.9997 -0.17932,1.8755 -0.56766,2.4439 -1.66989,2.4439 -1.086,0 -1.53886,-0.6318 -1.85739,-2.5913 -0.61039,-3.7552 -4.73762,-8.6345 -7.30361,-8.6345 -2.3049,0 -3.81299,-1.9987 -2.76182,-3.6602 1.00025,-1.581 0.97982,-1.6204 -3.3733,-6.499 -3.84761,-4.3121 -4.03605,-4.7018 -3.63294,-7.5148 l 0.42513,-2.9669 -1.40735,2.625 c -0.77407,1.4438 -1.94756,5.0288 -2.60777,7.9667 -0.66022,2.9379 -1.6113,6.1564 -2.11341,7.1523 -0.50219,0.9958 -1.20166,2.7782 -1.55444,3.9609 -0.97925,3.2829 -4.82606,5.5437 -8.5047,4.9984 -5.01646,-0.7436 -9.34474,-3.0015 -12.42356,-6.4809 l -2.92413,-3.3046 -4.17235,2.3965 c -3.72188,2.1377 -4.12326,2.5928 -3.71739,4.2153 0.25022,1.0004 0.91783,2.0795 1.48361,2.3981 1.69117,0.9521 1.17204,3.4133 -1.18428,5.6144 l -2.21299,2.0673 1.12663,3.3183 c 0.61966,1.8251 1.13314,4.6921 1.14118,6.3711 0.008,1.679 0.32381,5.1711 0.70179,7.7603 0.59432,4.071 0.49922,5.0899 -0.70331,7.5354 -1.37367,2.7934 -1.37338,2.8497 0.0224,4.6242 0.77711,0.9879 1.413,2.4973 1.413,3.354 0,0.9593 0.48691,1.5996 1.26742,1.6667 4.19358,0.3605 11.72076,1.5347 12.3565,1.9276 0.41224,0.2548 0.96252,1.4335 1.22303,2.6193 0.26044,1.1859 0.80326,2.3599 1.20622,2.6089 0.4029,0.2491 4.67983,1.3652 9.50422,2.4803 9.35858,2.1632 10.65468,2.9803 10.65468,6.7172 0,1.688 -1.4747,3.6682 -7.31317,9.8199 -7.96122,8.3883 -11.25855,10.4583 -16.49163,10.3533 -2.51906,-0.051 -4.20372,0.5182 -7.5424,2.5463 -5.78125,3.5119 -12.67096,6.8365 -15.55772,7.5072 -3.35222,0.7789 -8.41525,-0.9341 -12.37678,-4.1874 -7.00102,-5.7493 -12.68958,-9.6078 -15.21863,-10.3224 -7.80797,-2.2064 -24.38876,-1.3686 -28.3203,1.431 -2.97432,2.1179 -3.17667,3.4711 -1.50049,10.0361 0.81332,3.1855 1.47883,6.5785 1.47883,7.5401 0,0.9615 0.83512,3.3515 1.85587,5.3111 1.02067,1.9596 2.62776,6.6005 3.57131,10.3132 1.97689,7.7787 3.08997,9.7808 6.34855,11.4194 1.29082,0.6491 3.72123,2.5056 5.40096,4.1256 3.22563,3.111 3.73912,3.136 7.59034,0.3703 0.8835,-0.6345 1.8001,-0.6787 3.25909,-0.1571 1.84508,0.6596 2.0257,1.0369 1.98391,4.1438 -0.0384,2.8532 -0.44106,3.8257 -2.43642,5.8844 l -2.39043,2.4663 2.43642,1.251 c 1.33999,0.688 4.43323,2.6711 6.87385,4.4068 2.44055,1.7357 4.62298,3.1558 4.84981,3.1558 0.22683,0 2.40144,1.1657 4.83243,2.5905 5.06781,2.9702 8.35905,7.0447 9.06482,11.2222 0.60511,3.5816 -0.43027,5.0176 -3.6178,5.0176 -2.28404,0 -2.35683,0.098 -2.78789,3.7371 -0.41145,3.4743 -0.27855,3.9225 1.89077,6.375 1.28343,1.4509 3.14821,4.036 4.14404,5.7447 2.2752,3.9038 5.44927,7.6486 4.66875,5.5083 -0.29049,-0.7967 -0.67144,-2.2724 -0.84649,-3.2795 -0.18172,-1.0451 -1.21456,-2.3454 -2.40644,-3.0294 -4.1888,-2.4041 -3.51279,-7.7336 1.17733,-9.2815 3.35744,-1.1081 9.63719,0.1009 11.55998,2.2256 1.70754,1.8868 2.82077,1.7831 4.2484,-0.3958 2.46445,-3.7612 8.88876,-1.3901 15.60595,5.7601 2.17273,2.3127 5.10156,2.5003 5.10156,0.3267 0,-2.9261 -2.75241,-5.6422 -6.95605,-6.8642 -2.18409,-0.6349 -4.36102,-1.7789 -4.83779,-2.5423 -0.47669,-0.7633 -1.36758,-1.3879 -1.97986,-1.3879 -1.94111,0 -4.33234,-2.1886 -4.33234,-3.9653 0,-1.348 -0.75545,-2.052 -3.5637,-3.3212 -3.814,-1.7237 -4.37666,-2.7004 -4.3931,-7.6264 -0.005,-1.6296 -0.48126,-4.5292 -1.05747,-6.4437 -0.57613,-1.9144 -1.2688,-5.3068 -1.53923,-7.5386 -0.55542,-4.5837 -1.11649,-5.8985 -4.0425,-9.4735 -1.13387,-1.3853 -2.06155,-3.0251 -2.06155,-3.6439 0,-0.6188 2.52579,-3.1215 5.61287,-5.5616 3.08708,-2.4401 6.5906,-5.8018 7.7856,-7.4705 6.18524,-8.6368 8.41344,-10.0833 18.47098,-11.9912 7.46649,-1.4164 13.38377,-0.8576 14.82291,1.3997 1.70138,2.6685 2.76443,7.4452 2.25789,10.1454 -0.26703,1.4235 -1.62462,4.0804 -3.01683,5.9043 l -2.53129,3.3162 4.35189,5.4097 c 2.39355,2.9754 5.1658,6.7985 6.16047,8.4958 1.78982,3.0541 1.79873,3.1536 0.86112,9.5745 -0.87408,5.9861 -0.83403,6.919 0.51719,12.0507 1.66503,6.3232 1.17841,7.8427 -2.51189,7.8427 -1.98479,0 -2.08401,0.154 -2.08401,3.2345 0,1.779 0.55781,4.4043 1.23962,5.834 1.05101,2.204 1.50779,2.5321 3.0027,2.1569 1.87492,-0.4705 6.83923,-2.818 36.59781,-17.3058 10.31298,-5.0208 19.36716,-9.1287 20.12044,-9.1287 1.82799,0 2.45351,1.8732 1.3279,3.9764 -0.5061,0.9457 -0.70592,2.5309 -0.44838,3.5571 0.43751,1.7432 0.66463,1.826 3.89482,1.4189 1.88658,-0.2377 4.50797,-1.0457 5.8253,-1.7954 2.66202,-1.5149 4.17909,-1.7199 4.838,-0.6538 1.51099,2.4449 -4.90594,6.4894 -10.34007,6.5173 -1.70877,0.01 -4.38448,0.6677 -5.94609,1.4643 -3.82812,1.953 -5.34722,1.8264 -7.40313,-0.6169 l -1.73796,-2.0655 -7.19838,3.2149 c -3.95914,1.7683 -7.9471,3.5103 -8.86225,3.8712 l -1.66388,0.6563 3.71247,7.2274 c 2.04185,3.975 3.60324,7.8066 3.46969,8.5147 -0.15194,0.8057 -3.28769,2.8555 -8.38201,5.4792 -8.77317,4.5183 -9.77675,4.5982 -11.73785,0.9339 -1.78011,-3.3263 -4.54701,-2.5575 -10.05943,2.7949 l -4.80099,4.6617 3.82798,3.5193 c 4.08935,3.7595 4.34936,5.1567 1.2244,6.5805 -3.32318,1.5141 -3.43935,8.5653 -0.16687,10.1289 1.10281,0.5269 2.5455,1.7828 3.206,2.7909 1.12352,1.7147 1.11787,1.9871 -0.0878,4.2258 -1.09506,2.0334 -1.16871,2.8938 -0.4901,5.7257 0.43925,1.8331 1.15365,4.8123 1.58761,6.6207 1.33152,5.5484 -2.05199,7.4467 -5.435,3.0492 -9.02477,-11.7312 -14.39893,-20.9243 -19.36955,-33.134 -2.86444,-7.0362 -7.01782,-15.277 -8.3954,-16.6576 -0.96288,-0.965 -1.0277,-0.8468 -0.57998,1.0573 0.27717,1.179 1.7439,4.764 3.25938,7.9667 1.51548,3.2026 3.4915,7.9414 4.39122,10.5305 0.89973,2.5892 3.79177,8.0258 6.42678,12.0814 2.63493,4.0555 5.75931,9.1071 6.94294,11.2257 1.1837,2.1186 3.21034,5.713 4.50362,7.9875 2.11725,3.7236 2.24044,4.2467 1.23628,5.2508 -0.65276,0.6528 -2.38623,1.1152 -4.18076,1.1152 -3.65336,0 -8.184,2.6326 -12.18014,7.0775 -4.79028,5.3283 -5.16189,6.5923 -3.94473,13.4181 0.58251,3.2666 1.25779,7.7317 1.50063,9.9225 0.24284,2.1909 0.81984,5.5219 1.28219,7.4023 0.74351,3.0234 0.68688,3.5889 -0.48937,4.8886 -0.73155,0.8084 -2.05901,1.4697 -2.9499,1.4697 -1.78128,0 -2.7795,2.3845 -2.19822,5.2508 0.18171,0.8962 0.51175,2.4927 0.73337,3.5477 0.2692,1.2815 1.6664,2.7575 4.20987,4.4472 5.34671,3.5519 6.29409,4.8254 7.05136,9.4783 0.36646,2.2517 0.84794,4.3878 1.06992,4.7469 0.22191,0.3592 0.0704,1.5292 -0.33677,2.6002 -0.6101,1.6046 -1.05537,1.8681 -2.5313,1.4976 -2.4144,-0.606 -4.70446,0.9443 -4.70945,3.1881 -0.002,0.9996 -0.34996,3.0631 -0.77277,4.5857 -0.80651,2.9045 -0.33272,7.0002 1.8999,16.4241 0.61336,2.5892 1.24121,7.794 1.39518,11.5662 0.27543,6.7498 0.31802,6.89 2.6831,8.8372 1.32174,1.0883 5.59382,3.1807 9.4935,4.65 4.32293,1.6287 7.38379,3.2196 7.84216,4.0761 1.19283,2.2289 -2.43323,8.7056 -8.10832,14.483 l -4.90434,4.9926 -0.7522,16.1644 c -0.73112,15.7117 -0.82592,16.3848 -3.38474,24.0329 -1.44791,4.3276 -3.09005,8.7531 -3.64917,9.8344 -0.55918,1.0812 -1.63895,6.1363 -2.39962,11.2334 -0.7606,5.0972 -1.8592,10.4082 -2.44128,11.8024 -0.67224,1.6101 -1.19789,6.234 -1.4408,12.6742 -0.39305,10.42 -1.70378,16.6119 -4.90602,23.1758 -1.28545,2.6349 -1.44551,4.993 -1.76968,26.0726 -0.19605,12.7467 -0.63451,26.2719 -0.97432,30.0561 -0.47561,5.2957 -0.3937,7.3646 0.35596,8.9832 0.53565,1.1566 0.97389,3.4817 0.97389,5.167 0,3.0563 -3.35874,13.5349 -7.41913,23.1462 -2.18163,5.1641 -3.44036,9.8719 -3.67567,13.7472 -0.11197,1.8451 0.27456,2.3497 2.67021,3.486 2.76095,1.3096 2.79347,1.3721 2.26658,4.3608 -0.29397,1.6677 -0.48531,4.0883 -0.42513,5.379 0.0602,1.2907 -0.45019,3.4091 -1.13416,4.7075 -0.84635,1.6069 -1.28828,4.3269 -1.38381,8.5169 -0.0771,3.3858 -0.97845,11.8595 -2.00282,18.8303 -2.00462,13.6414 -2.31677,19.6525 -2.03091,39.109 0.0556,3.7842 -0.2235,8.8358 -0.62024,11.2258 -1.63346,9.8396 -0.61771,17.0878 3.4082,24.3216 l 2.0181,3.6261 -3.32217,3.0459 c -1.82711,1.6751 -4.92324,4.5293 -6.88029,6.3425 -1.95697,1.8132 -4.35291,4.9094 -5.32433,6.8803 -3.39793,6.8944 -7.54233,13.6764 -9.4733,15.5025 -2.84026,2.6861 -10.51584,11.7082 -16.54052,19.4422 -2.88639,3.7053 -7.70585,9.0717 -10.70986,11.9252 -6.31097,5.9948 -10.54423,11.1746 -14.8274,18.1427 -2.6634,4.3329 -3.07708,5.5883 -3.37591,10.2447 -0.35082,5.4667 0.58367,11.2132 2.525,15.5264 0.60988,1.3553 1.15162,3.4737 1.20376,4.7076 0.076,1.7989 -0.22249,2.2888 -1.50555,2.4713 -1.22803,0.1746 -1.83226,-0.331 -2.59662,-2.1727 z m 253.98157,-99.9121 c -0.72823,-1.1479 -3.67857,-7.9723 -4.8094,-11.1245 -0.42868,-1.195 -1.43451,-3.8749 -2.23523,-5.9555 -1.50446,-3.9092 -1.37924,-4.8301 1.13366,-8.3392 0.78044,-1.0898 0.43809,-1.6716 -2.55694,-4.3454 -3.35787,-2.9977 -3.48954,-3.2716 -4.54707,-9.4561 -0.59895,-3.5029 -1.40141,-7.1905 -1.7833,-8.1949 -0.98729,-2.5968 -0.85953,-7.9358 0.21111,-8.8206 0.49792,-0.4114 2.08654,-0.9688 3.53024,-1.2386 2.48278,-0.4638 3.77229,-1.1346 8.07037,-4.198 1.65533,-1.1799 2.182,-1.2094 5.70355,-0.3193 3.55327,0.898 4.04235,1.2818 5.80986,4.5589 1.33073,2.4673 1.8658,4.43 1.72334,6.3212 -0.22633,3.0055 -0.15571,2.8765 -2.16961,3.9601 -1.28836,0.6931 -1.16038,0.8766 1.44848,2.0757 2.15216,0.9892 4.35725,1.2787 8.89296,1.1675 3.96979,-0.097 6.69272,0.1932 7.96666,0.8502 1.06449,0.5489 4.7742,1.2334 8.24382,1.5213 5.60179,0.4646 6.43873,0.7221 7.47193,2.2989 0.63994,0.9767 1.71203,2.3305 2.38246,3.0084 3.2793,3.3157 7.3751,9.1664 7.3751,10.535 0,0.8643 -1.74325,3.394 -3.9868,5.7855 -3.6433,3.8837 -3.97088,4.5075 -3.80227,7.2416 0.18424,2.9868 0.17744,2.9952 -4.11138,5.072 -2.36276,1.1442 -5.26125,2.1219 -6.44104,2.1727 -1.77707,0.077 -2.26818,-0.2802 -2.86264,-2.0802 -1.13199,-3.4273 -2.00767,-4.1572 -4.41113,-3.6765 -4.64196,0.9284 -16.85441,7.0923 -18.97165,9.5754 -1.77997,2.0877 -6.33169,3.0914 -7.27508,1.6044 z m -29.82441,-54.7758 c -1.73413,-1.5315 -3.7741,-6.6879 -3.7741,-9.5396 0,-1.1564 0.76516,-3.0238 1.70045,-4.1497 0.93521,-1.126 1.91678,-2.9341 2.18127,-4.018 0.26442,-1.0839 1.12308,-2.3145 1.90801,-2.7346 2.00304,-1.0719 8.43561,2.2198 9.59961,4.9125 0.46735,1.0811 1.58203,2.8707 2.47719,3.9769 1.70711,2.1097 1.60883,3.5024 -0.41289,5.8493 -1.33202,1.5463 -5.75417,4.2373 -9.6072,5.8462 -2.43606,1.0173 -2.77197,1.0055 -4.07234,-0.143 z m 55.82142,-11.2574 c -1.11005,-1.793 -2.58467,-4.1861 -3.27683,-5.318 -0.69223,-1.1319 -2.40325,-3.4686 -3.80227,-5.1924 -2.84033,-3.4998 -3.2349,-6.2604 -1.49136,-10.4334 0.57882,-1.3853 1.18073,-4.1457 1.33753,-6.1341 0.1568,-1.9884 0.50371,-3.969 0.77081,-4.4013 0.26717,-0.4322 2.354,-1.1714 4.63746,-1.6427 6.48718,-1.3388 9.51647,-2.8039 10.75673,-5.2023 0.61459,-1.1885 0.92826,-2.9147 0.69701,-3.8359 -1.09093,-4.3467 3.08491,-5.6636 5.22489,-1.6477 0.67855,1.2734 2.00007,2.9844 2.93673,3.8023 0.93666,0.8178 4.00035,3.7336 6.80831,6.4795 l 5.10539,4.9925 -1.55762,4.8362 c -0.85664,2.6598 -1.55756,6.3105 -1.55756,8.1126 0,2.2196 -0.40883,3.6305 -1.26742,4.3739 -1.3279,1.1497 -9.35054,4.2921 -14.30377,5.6026 -1.59333,0.4216 -3.25561,1.0111 -3.69385,1.3099 -1.18703,0.8094 -2.4622,3.5042 -2.4622,5.2034 0,0.8228 -0.13631,1.4961 -0.30288,1.4961 -0.16665,0 -0.80644,0.1932 -1.42183,0.4293 -0.77762,0.2984 -1.73442,-0.5649 -3.13727,-2.8305 z m -47.01624,-153.4644 c -0.29839,-0.4828 -0.47206,-1.9243 -0.38595,-3.2033 0.15593,-2.3147 0.14623,-2.3215 -2.09356,-1.4761 -1.97747,0.7464 -2.38239,0.6738 -3.34122,-0.599 -1.0747,-1.4267 -0.97896,-7.7339 0.16267,-10.7089 0.65073,-1.6957 5.009,-4.0712 9.06554,-4.9412 2.40927,-0.5167 3.64222,-1.1873 3.94676,-2.1468 0.6264,-1.9736 2.95758,-1.7619 8.55793,0.7774 2.63551,1.195 5.24792,2.1728 5.80544,2.1728 2.49415,0 3.87397,5.2219 2.89233,10.9459 -0.49393,2.88 -6.57517,6.4418 -14.357,8.4089 -7.39327,1.8689 -9.4772,2.0255 -10.25294,0.7703 z m -25.68139,-5.0523 c -3.68566,-3.776 -5.72187,-6.958 -5.72549,-8.947 -0.006,-3.3111 10.99153,-11.1955 15.61595,-11.1955 2.91841,0 5.55407,3.3847 7.00892,9.001 1.41575,5.4654 1.17733,6.389 -2.43359,9.4274 -1.62665,1.3687 -2.94296,1.8635 -4.54288,1.7076 -1.66242,-0.1619 -2.44714,0.1601 -2.99503,1.2291 -1.31819,2.5721 -3.62055,2.1658 -6.92788,-1.2226 z"
       style="fill:none;stroke:none"
       id="path4815" />
  </g>
</svg>
