<?xml version="1.0" encoding="UTF-8" standalone="no"?>
<svg
   xmlns:dc="http://purl.org/dc/elements/1.1/"
   xmlns:cc="http://creativecommons.org/ns#"
   xmlns:rdf="http://www.w3.org/1999/02/22-rdf-syntax-ns#"
   xmlns:svg="http://www.w3.org/2000/svg"
   xmlns="http://www.w3.org/2000/svg"
   xmlns:xlink="http://www.w3.org/1999/xlink"
   xmlns:sodipodi="http://sodipodi.sourceforge.net/DTD/sodipodi-0.dtd"
   xmlns:inkscape="http://www.inkscape.org/namespaces/inkscape"
   version="1.1"
   width="1500"
   height="1938.5018"
   viewBox="0 0 24000 31016.029"
   id="svg2"
   inkscape:version="0.48.5 r10040"
   sodipodi:docname="Flag_of_Barbados.svg">
  <metadata
     id="metadata17">
    <rdf:RDF>
      <cc:Work
         rdf:about="">
        <dc:format>image/svg+xml</dc:format>
        <dc:type
           rdf:resource="http://purl.org/dc/dcmitype/StillImage" />
      </cc:Work>
    </rdf:RDF>
  </metadata>
  <defs
     id="defs15">
    <clipPath
       clipPathUnits="userSpaceOnUse"
       id="clipPath3794">
      <path
         id="path3796"
         d="m 1147.924,6039.4 76.83,70.572 54.617,63.33 32.034,62.471 9.942,71.432 -14.238,84.808 -28.352,79.408 -17.796,72.413 -14.973,161.517 -38.293,86.649 -2.209,147.28 -23.442,91.068 14.238,193.673 -44.798,54.495 5.768,40.992 60.384,136.603 30.561,91.19 45.412,48.602 12.764,12.886 50.443,46.517 23.442,62.47 7.119,74.868 -3.559,74.99 -16.324,75.85 -24.914,67.87 -41.853,49.216 17.796,173.056 -14.973,66.152 3.559,77.691 41.238,64.312 9.206,15.955 37.679,45.533 14.237,35.717 2.822,75.848 -22.093,166.059 -14.85,46.147 -3.559,45.288 -27.002,53.144 1.351,41.116 4.295,29.947 3.56,26.264 -23.442,157.59 19.147,62.104 22.091,15.586 6.383,36.453 27.738,42.465 6.381,52.285 24.793,214.659 -60.385,177.595 -28.352,108.005 -30.56,58.176 -2.209,207.911 23.565,139.302 -50.443,112.547 -5.769,44.552 -33.383,395.447 -18.411,68.852 11.293,58.912 36.329,90.087 56.825,70.571 24.055,51.794 14.238,117.824 29.824,217.851 -4.91,47.251 23.443,53.514 32.646,37.555 67.504,64.19 17.796,34.856 -7.855,29.456 3.56,59.034 -41.975,120.401 -47.497,213.434 48.234,76.709 114.386,87.507 42.591,113.285 7.117,119.664 -14.237,119.664 125.802,221.411 68.854,146.421 11.412,95.486 132.8,132.186 57.56,54.369 10.678,33.876 36.206,45.532 113.652,103.588 66.768,110.952 95.976,262.156 39.765,78.672 19.883,96.469 16.324,125.679 -39.767,149.121 -321.069,99.168 73.886,219.693 311.127,-102.851 91.683,183.977 28.352,88.368 68.976,151.7 -55.476,34.118 -107.27,-140.283 -74.621,-103.587 -11.291,4.419 70.326,104.445 -335.307,121.507 193.917,532.905 -137.828,49.952 -259.336,-124.081 -62.47,-475.839 2.82,-10.676 -12.027,-3.559 -1.473,12.519 60.384,486.392 253.566,122.732 -14.85,6.874 229.389,122.242 257.986,122.243 204.595,92.909 73.149,59.033 41.852,96.224 228.038,113.898 5.769,-10.311 3.437,-7.976 -74.499,-32.156 -108.742,-49.952 -41.239,-17.797 -6.995,-28.72 16.937,-15.096 71.798,11.659 5.032,-28.597 34.735,4.786 45.533,6.382 43.325,5.77 -3.558,59.032 -12.152,16.941 10.678,4.416 8.592,-15.218 3.56,-9.821 131.323,33.139 0,33.016 -62.47,20.495 -14.975,0 1.473,6.259 5.646,12.645 119.418,-37.682 24.179,15.219 27.615,16.816 24.179,15.218 53.266,2.822 58.299,8.836 32.647,15.22 51.916,4.295 73.149,19.76 27.002,-6.259 56.089,38.416 83.089,82.107 41.975,37.433 35.47,16.079 29.823,28.597 36.944,17.918 29.211,32.157 38.292,24.057 64.681,29.455 60.384,41.853 19.884,35.84 -2.21,33.011 20.619,53.635 19.269,60.63 10.556,96.469 0,77.57 -0.614,102.726 -7.118,91.928 -13.502,91.927 9.206,57.07 11.414,67.87 0,62.472 -17.796,68.855 -38.416,93.645 -48.971,105.305 -43.324,50.933 -50.445,47.376 -48.969,15.096 -43.326,0 -28.472,50.936 -26.266,114.264 36.942,10.678 62.472,11.658 96.59,4.419 55.476,17.795 11.291,37.559 24.179,-17.795 73.885,7.116 140.654,67.013 120.032,62.346 89.595,8.961 -3.558,17.061 47.62,20.371 80.268,18.78 108.618,30.44 100.887,11.536 45.533,-0.848 70.327,10.676 25.528,19.639 61.858,51.793 24.055,9.818 31.297,-17.795 33.383,24.054 25.529,24.058 43.449,47.253 73.148,0.976 7.118,-30.316 62.472,11.536 4.909,11.661 41.975,17.797 258.599,22.338 45.411,12.518 54.002,-1.835 47.622,1.835 75.971,13.378 92.418,8.1 22.707,7.119 38.415,1.709 42.588,-9.82 31.175,-12.518 57.561,-14.114 56.825,0 54.74,15.096 71.798,30.314 105.797,43.818 32.034,50.811 3.436,21.478 28.474,21.355 44.061,16.077 17.059,10.8 21.971,23.197 32.032,17.798 28.352,-1.835 161.271,15.219 25.528,7.12 51.917,8.1 49.707,6.259 44.062,12.395 48.356,27.616 42.588,34.122 62.472,60.628 41.238,71.431 14.238,48.232 7.731,7.979 16.446,-3.56 60.386,-10.8 120.77,-3.56 88.735,0.976 51.18,-10.306 17.059,12.149 65.295,0 36.206,6.259 20.62,12.519 15.709,15.097 -3.559,19.76 -17.797,18.656 0,17.797 7.855,9.818 32.647,16.937 13.501,26.757 23.442,1.835 21.234,-1.835 35.592,8.099 48.234,10.677 5.032,23.32 41.975,-15.219 5.646,15.955 106.532,4.541 63.944,27.739 6.383,24.055 252.217,-6.015 110.091,29.335 67.502,40.87 16.324,23.195 12.029,16.08 11.414,44.672 9.941,19.64 110.828,17.92 52.531,24.914 -0.614,27.613 22.706,9.081 54.617,-2.462 13.501,24.792 61.121,-8.714 32.034,-4.907 27.614,-4.419 92.418,-43.695 130.711,-33.137 127.152,-24.546 36.205,-6.875 91.683,-17.55 27.001,-10.431 36.943,7.239 31.91,4.908 30.562,-4.908 24.177,6.873 33.384,4.421 38.292,-9.085 140.04,-32.893 16.322,23.322 76.709,-18.902 75.234,-14.973 34.857,-6.874 120.77,-9.203 37.678,0 34.733,54.368 28.474,16.816 27.003,16.2 137.828,4.419 68.854,2.944 64.68,23.81 146.298,33.016 103.71,19.76 76.094,8.838 34.735,36.573 85.299,35.837 54.003,24.425 36.207,16.57 134.269,46.392 -5.645,32.157 44.06,43.817 35.471,21.231 37.679,33.997 21.968,26.881 5.646,35.592 -31.909,18.04 17.796,40.011 206.682,53.632 34.12,50.936 17.059,45.41 28.352,29.458 9.328,43.817 8.468,32.893 9.941,9.941 7.855,23.193 -17.059,17.92 12.764,32.893 24.179,73.274 27.001,52.651 46.884,45.534 75.971,76.831 70.327,102.606 33.384,80.269 11.414,72.286 6.382,52.776 -17.06,109.845 -24.915,52.656 7.854,54.371 17.061,25.036 9.205,19.638 42.588,37.558 61.857,59.77 32.648,41.974 54.003,82.968 35.592,29.456 44.674,33.016 88.86,37.556 194.655,59.894 223.006,83.088 8.591,16.083 29.824,12.147 202.389,-62.225 79.653,-13.378 68.853,-21.603 78.917,-36.694 50.32,-19.392 63.946,-14.114 78.917,-16.203 123.592,-2.703 88.858,12.519 53.268,3.315 18.409,-6.138 61.857,-20.619 24.793,-22.339 117.947,-35.958 9.204,-10.557 40.502,-11.538 142.125,-97.325 111.566,-82.723 67.502,-68.731 31.911,-8.837 162.008,-86.157 107.883,-12.398 28.474,-33.016 24.177,0 112.915,-66.888 40.503,-0.976 75.357,-59.773 62.472,-39.275 68.853,-16.078 106.656,-2.464 23.442,30.436 -13.501,25.039 21.233,23.075 20.62,13.992 13.499,-23.934 105.919,-72.412 35.47,-53.512 -16.323,-64.312 382.191,-579.425 199.564,-360.467 176.246,-257.373 90.944,-109.723 66.032,-63.207 -21.355,-15.097 55.473,9.081 36.207,41.117 27.003,-10.678 -4.298,-15.218 11.415,-17.307 69.59,3.806 10.678,25.162 23.442,-3.56 0,-25.039 33.384,-8.961 95.117,26.757 31.297,-23.197 41.975,0 70.939,49.952 39.89,2.699 7.732,-25.773 -22.705,-15.217 19.881,-15.221 34.12,0 50.444,0 -17.796,-23.197 2.208,-25.035 33.999,-9.083 50.441,3.192 34.858,2.337 -9.206,-29.579 19.884,-17.059 43.325,-3.435 61.735,40.744 22.828,-39.887 -6.384,-27.614 27.615,-22.339 88.861,-7.242 17.673,-33.872 41.975,-35.715 30.56,-20.496 20.619,4.539 19.883,-14.36 9.205,-36.696 16.323,-5.278 7.118,-29.456 26.266,10.678 57.562,-20.496 0,-53.512 62.47,-6.872 20.621,-53.022 40.502,14.36 14.235,-32.156 46.887,-11.046 -17.799,-38.907 65.416,-5.4 -12.763,-45.658 34.735,-7.854 24.177,-24.178 -24.177,-30.315 22.705,-23.443 51.915,17.182 -17.795,-35.715 0,-42.835 39.765,-16.2 46.27,-32.89 41.853,0 12.763,-33.016 48.359,-20.621 19.881,9.82 38.416,-12.517 124.207,-110.954 95.24,-76.339 36.208,6.261 41.237,-68.978 214.537,-186.432 181.155,-132.92 51.18,2.576 31.912,-56.088 84.563,-44.305 -13.503,-29.581 -6.382,-28.474 31.912,-15.341 17.797,25.895 26.264,-14.237 12.15,12.522 37.555,-48.237 132.184,-48.602 21.97,-49.584 39.89,-12.518 37.555,1.232 59.649,-13.255 41.239,-48.478 67.504,-40.381 31.296,5.402 19.881,8.222 17.797,14.114 10.555,38.294 33.384,-15.097 14.973,-15.096 -17.797,-40.258 5.032,-40.254 12.028,1.488 12.152,-13.012 -2.944,-30.313 18.531,-11.659 23.443,6.752 125.678,-142.007 71.064,-16.936 22.092,28.843 -2.21,-52.038 13.501,-24.178 32.648,7.117 29.945,-19.515 44.676,-10.677 9.204,-46.517 27.002,-40.132 5.77,-30.316 28.352,-14.36 59.033,-62.472 61.735,-54.371 11.412,-57.193 23.444,-40.133 100.15,-21.725 55.352,-45.41 -12.763,-35.592 12.15,-25.897 27.002,-8.962 31.91,19.763 21.355,-14.608 31.175,-12.272 6.382,-17.06 91.682,-116.104 19.147,-39.89 -2.822,-37.557 12.15,-23.688 17.059,-14.728 110.093,-188.272 1.36,-83.827 -2.822,-21.109 21.356,-17.92 36.943,-50.198 34.12,-73.883 29.088,-72.292 27,-90.086 23.441,-57.194 31.912,-62.472 42.711,-60.752 44.061,-44.675 39.768,-36.576 20.619,-16.936 15.585,4.911 31.911,8.958 58.297,59.035 51.183,21.355 16.321,-20.619 6.383,-40.011 11.414,-23.442 30.437,-15.096 27.003,-14.236 46.271,-36.576 -22.829,-29.456 19.883,-38.415 33.384,-17.92 2.942,-25.896 15.588,-24.545 56.827,-13.38 17.795,-41.236 17.674,-30.684 -11.293,-30.193 28.352,-34.858 41.238,-45.533 -24.913,-20.496 53.387,-61.612 27.001,-15.096 45.412,-52.776 73.884,-96.344 47.623,-71.432 36.941,-58.176 28.352,-109.599 19.884,-82.232 24.176,-88.368 27.004,-20.619 28.475,-51.672 24.053,-63.453 36.944,-67.747 28.475,-33.016 24.792,5.277 93.768,-92.907 31.296,-92.788 30.561,-0.864 25.528,-15.217 61.858,-59.771 49.706,9.817 44.062,-47.373 27.738,-26.756 29.088,-50.935 20.619,-25.774 37.678,-26.879 0,-21.355 30.56,-55.353 22.707,-17.919 -3.56,-24.056 34.12,-71.432 31.911,-2.697 30.56,-32.156 18.533,-34.857 26.265,-4.295 21.97,-19.636 28.473,4.416 -17.059,-40.256 7.731,-29.333 21.357,-5.277 24.914,-31.298 58.912,-97.328 28.473,-9.081 19.884,-40.011 -9.327,-9.082 20.619,-15.957 5.768,-25.896 32.647,3.56 28.352,-9.819 34.12,-63.331 -17.799,-4.539 42.712,-132.063 27.616,-17.059 -0.608,-21.357 24.792,-139.302 24.178,-141.021 2.086,-109.845 28.474,-31.174 30.562,0 26.264,-14.362 22.707,-68.729 139.915,-131.079 12.15,-19.76 5.645,-22.461 9.943,-52.529 44.796,-45.411 -12.763,-13.501 -28.473,11.661 5.032,-166.06 33.382,-34.856 51.058,-5.4 73.884,-54.371 -16.324,-13.377 28.473,-169.618 44.677,-19.638 6.506,-37.8 11.289,-28.352 -5.645,-10.677 8.469,-47.376 28.474,-32.893 74.622,-5.522 29.824,-14.116 -5.032,-11.658 14.239,-110.706 32.644,-21.478 19.884,-91.928 -16.324,-65.293 19.884,-52.531 34.12,-21.478 1.472,-32.032 -7.855,-63.453 16.323,-41.117 18.533,-26.755 -20.617,-33.016 3.56,-26.879 -13.503,-16.936 17.059,-40.134 23.444,-57.93 -4.296,-35.838 19.145,-14.483 -18.409,-39.029 17.06,-45.902 44.674,-41.117 27.738,-60.629 44.798,-113.528 -21.354,-153.418 -29.827,-3.067 -87.385,-60.384 -7.855,-5.401 -48.969,-87.016 -16.324,-53.512 3.557,-84.319 13.503,-50.565 8.467,-34.243 34.857,-62.595 -14.972,-113.282 -51.181,-23.196 -36.207,-53.512 -109.355,22.214 -74.621,-4.539 -49.707,-12.888 -43.325,-31.296 -40.5,-45.904 -4.298,-46.392 -66.766,-134.394 -34.12,-19.76 5.768,-20.865 10.555,-28.474 -31.175,-100.027 3.56,-74.991 -163.481,-176.736 5.033,-26.878 -25.531,-38.291 -41.237,22.336 -58.299,30.315 -97.326,33.016 -66.767,-12.274 -36.944,-40.134 0.736,-17.672 0.736,-22.339 25.53,-22.338 -34.734,-20.496 -17.796,-36.697 7.855,-46.392 -9.943,-44.554 5.647,-35.715 30.56,-9.203 -21.354,-52.408 -44.062,-12.52 -27.739,15.587 -12.028,-6.751 -38.414,26.021 -88.002,62.471 -38.414,55.968 -46.883,-2.455 -47.621,21.479 -39.765,-7.119 -37.68,16.938 -48.235,-0.16 -101.621,4.539 -35.473,18.781 -62.592,5.4 -42.589,24.179 -51.792,11.29 -30.563,-35.592 29.825,-36.698 -24.179,-16.813 -29.086,25.773 -27.74,5.4 -17.059,-10.677 8.592,-23.197 -52.653,-33.139 -57.563,7.243 -42.587,-22.46 6.382,-33.754 -53.267,-35.714 -57.561,-15.219 -23.442,37.435 9.941,50.933 -12.763,12.642 -19.149,5.891 -51.914,-30.192 -21.971,-13.992 -15.709,-20.619 -40.379,-26.879 -46.27,-20.619 5.768,-19.637 14.115,-84.808 -31.911,-41.116 -31.297,-7.12 -16.323,-33.015 -13.501,-49.952 -84.563,-25.283 -25.53,-22.338 -22.704,-28.596 13.501,-19.639 -27.739,-26.755 -62.472,49.094 -84.562,-35.715 -63.208,-73.517 17.061,-43.448 -6.384,-60.63 16.939,-32.28 -13.502,-9.696 -13.378,14.238 -18.533,-32.156 -34.118,-29.212 -28.352,-50.32 62.47,-22.214 -12.027,-42.098 -37.678,-1.6 -52.532,21.357 -13.5,-1.72 -14.237,15.096 -27.738,-24.054 -17.059,-25.898 25.651,-101.745 49.706,-19.637 27.003,-33.999 -5.768,-25.896 14.235,-37.435 48.359,-51.913 -15.711,-15.957 -70.326,21.478 -31.175,25.528 -30.561,23.32 -36.943,1.104 -14.972,7.119 -29.824,11.537 -18.41,-8.96 8.469,-26.878 -26.266,-1.84 -13.501,-29.211 4.909,-18.655 -46.883,-19.024 0,-23.565 -62.472,-51.67 -16.323,-57.194 -25.528,-27.616 -19.883,11.538 -13.501,-5.4 14.115,-24.178 -18.411,-0.608 -11.413,-10.678 4.296,-14.728 -13.502,-13.378 -20.618,-2.209 -7.856,-17.797 -9.941,-18.778 -12.763,-13.745 -12.029,1.232 -8.592,-10.802 -0.608,-14.36 -20.617,-22.461 -99.536,-111.564 -36.208,-53.266 -57.562,-25.896 0,-13.994 -14.114,-9.449 -17.059,-25.898 -61.859,-81.248 -17.061,-41.853 -5.643,-37.555 -18.533,-31.297 -27.003,-32.157 -21.232,-3.559 -17.061,-29.456 6.384,-29.332 -30.56,-34.858 -28.352,-6.381 -69.713,24.178 -28.351,-7.119 -24.179,7.119 -23.442,15.342 1.472,22.093 -29.822,52.774 -38.418,4.541 -32.646,9.696 -25.651,-3.56 -31.911,22.338 -41.238,4.417 -26.266,-27.491 -22.704,-5.277 -18.534,20.496 7.118,20.62 -28.35,86.649 -21.357,5.279 -6.381,15.096 6.381,33.628 -26.264,26.877 -30.56,13.379 -46.149,20.62 -39.766,5.768 -22.09,3.07 -27.003,26.021 -45.411,-2.823 -21.355,24.914 -54.739,-8.837 -115.002,-10.677 -85.299,-41.116 -71.677,-51.671 -93.766,-76.83 -49.831,-52.653 -55.352,-33.997 -41.976,-51.793 -81.616,-121.383 -85.301,-87.51 -78.793,-60.629 -52.655,-65.171 -31.174,-50.936 -28.474,-20.495 -82.353,-23.197 -74.623,-41.976 -97.328,-52.651 -45.409,-55.353 -22.093,-71.431 -12.029,-50.075 -37.677,-19.515 -51.916,-1.963 -19.148,-0.734 -119.296,-57.071 -127.152,-41.238 -21.355,-33.752 -79.531,-26.878 -51.917,5.399 -69.589,32.157 -27.001,5.891 -20.619,15.955 -16.324,-1.719 -23.443,6.137 -35.469,-11.414 -24.916,4.418 -35.469,-22.829 -56.213,-37.556 2.211,-27.615 -17.061,-17.919 -56.088,-0.862 -29.824,-21.355 -31.297,-81.373 -5.032,-124.942 7.118,-159.799 -30.56,-114.142 -41.117,-68.853 -69.712,-44.553 0,-17.918 -39.03,-36.575 -58.912,-4.541 -48.355,-53.512 -49.709,-8.959 -91.68,26.878 -60.386,46.271 -82.355,39.274 -78.179,1.843 -93.77,-3.56 -109.355,-59.771 -70.325,-4.419 -115.124,-71.43 -17.06,-26.878 -71.061,-40.134 -33.385,-52.653 -35.47,-33.874 -86.035,-0.981 -35.47,-28.474 -28.351,-50.934 -24.179,-48.112 -41.975,-51.793 -129.237,-50.935 -37.681,-45.656 -31.909,-61.49 -57.563,-57.071 -83.091,-41.974 -46.883,-25.529 -21.356,-39.766 -38.415,-26.387 -17.061,-41.484 -39.765,-7.978 -32.646,-27.246 -9.206,-32.525 -61.121,-100.887 -58.912,-44.674 -34.856,-16.937 -61.857,-100.887 -59.649,-51.794 -8.469,-32.033 -61.121,-31.297 -52.53,8.959 -36.942,-38.538 -81.005,-27.615 -63.207,-26.756 -37.678,16.938 -47.622,-17.797 -49.707,0 -47.62,-39.275 -41.853,-35.715 -62.592,-16.937 -80.268,-26.879 -35.47,-56.211 -72.536,-41.116 -11.292,-30.193 -32.647,8.838 -51.916,-3.56 -49.706,-14.237 -12.764,26.633 -26.388,14.237 -65.295,-1.719 -90.944,-13.255 -100.887,-22.338 -89.473,-54.493 -41.975,-17.919 -32.646,-53.512 -75.237,-13.378 -122.241,-26.878 -90.946,-66.767 -62.472,-52.776 -51.916,-18.655 -46.148,-32.156 -33.383,-30.315 -67.502,-41.975 -2.087,-34.856 -4.296,-27.615 -75.972,-41.116 -95.241,-59.403 -13.501,-8.468 -65.293,-37.434 -68.976,-59.894 -43.326,-43.693 -36.942,-70.572 -58.912,-74.989 -68.975,-99.046 -7.12,-9.942 -63.944,-82.967 -63.207,-73.149 -73.15,-90.209 -18.408,-63.33 -19.884,-28.597 -171.949,-126.784 -104.446,-50.811 -13.501,-45.534 -78.182,-38.416 -27.614,-36.574 -18.533,-29.334 -16.323,-37.679 -4.296,-35.715 -12.765,-44.552 -23.44,-39.275 -50.445,-17.919 -34.12,-50.935 -33.383,-60.629 -25.529,-46.025 -16.323,-27.124 -2.21,-33.998 -12.027,-47.252 -60.384,-39.275 -41.239,-17.06 -19.884,-38.292 -3.558,-102.728 -54.003,-100.764 -48.234,-124.697 -156.361,-183.364 -73.887,-60.753 -119.296,-245.834 -12.764,-38.907 -22.705,-41.1152 -57.563,-23.1965 -19.27,-31.1744 -16.936,-73.1491 -198.215,-242.0297 -103.71,-100.8869 -143.598,-166.0583 -87.386,-89.104 -6.381,-6.3824 -35.47,-68.7305 -10.678,-56.2117 -33.383,-63.453 -46.885,-55.3528 -83.826,-103.4643 -30.562,-64.4349 -3.558,-16.4462 -9.206,-38.7834 -34.856,-73.272 -53.88,-97.2046 -87.386,-124.2062 -19.882,-71.3079 -44.061,-72.4129 -43.325,-59.6484 -24.179,-74.2536 -61.121,-124.8195 -62.47,-132.3064 -12.152,-40.1337 -0.733,-36.5748 -3.436,-43.6929 -18.535,-36.5744 -44.059,-40.993 -38.293,-69.7125 -44.798,-119.6651 -38.416,-98.1865 -27.615,-48.234 -51.179,-52.6526 -58.299,-24.0558 -53.266,-55.3528 -42.588,-106.164 -37.68,-67.1352 -48.234,-54.3708 -47.62,-109.8462 -110.091,-186.5546 -40.504,-94.6273 2.087,-78.4267 -34.119,-52.7751 -48.971,-91.0681 -15.71,-59.7711 -36.206,-79.5313 -29.825,-106.164 -66.767,-217.4836 19.882,-37.9244 -4.908,-42.834 -47.621,-106.1644 -2.209,-34.8559 4.295,-40.9933 51.917,-76.8304 12.764,-21.356 -19.882,-51.7939 -8.592,-53.511 12.15,-33.1379 3.56,-46.3932 -25.651,-46.3929 -36.944,-30.4379 -42.587,-78.4271 -37.68,-42.8341 -52.529,-56.3339 -28.475,-94.628 -61.735,-126.783 -31.297,-57.1939 -29.823,-29.456 -47.622,-11.5372 -28.351,-30.3148 11.292,-19.76 -14.115,-3.9271 -29.824,-8.592 -16.447,-39.0289 60.386,-30.4381 9.941,-86.649 -51.794,-55.3529 -5.646,-79.408 -24.914,-38.416 -21.356,-37.556 -35.47,-14.36 -80.268,-65.0492 -2.086,-71.4299 -10.678,-45.5341 -41.973,-38.416 -49.708,-6.1369 -62.472,-47.3751 -134.269,-50.8108 -17.061,-23.1972 -66.03,-125.924 24.792,-49.0929 46.884,-33.997 35.593,2.6979 93.769,-31.1739 118.56,-13.3781 44.06,-42.0969 27.739,-84.809 -9.206,-50.811 -36.329,-38.416 -67.502,-17.796 -53.88,-97.328 22.705,-45.533 -40.501,-80.391 -58.3,-29.456 -41.115,-13.3779 -24.915,8.96 -21.356,-22.2151 -46.884,-5.4 -43.325,40.993 -36.206,-13.624 -19.883,-36.5739 39.03,-45.2889 -5.646,-42.956 54.739,-64.067 62.472,-38.416 41.974,-36.697 14.115,-29.456 2.825,-23.197 -6.383,-38.415 -42.588,-59.648 -52.531,-74.254 -34.855,-39.275 -44.799,-21.478 -33.997,-35.715 -44.797,-14.237 -20.619,-42.712 -25.529,-14.359 -3.559,-37.557 -35.593,-36.574 -16.936,8.837 -33.506,-32.034 -11.293,0.857 17.06,34.856 -44.06,12.275 -39.767,-18.534 -52.653,-15.464 -35.469,-40.993 -35.47,8.1 -7.855,-32.032 -46.148,-10.924 -44.796,-26.511 -44.799,26.756 -35.469,-3.558 -30.561,24.054 -41.238,-35.714 5.769,-27.739 -29.211,7.12 -70.94,44.552 -41.975,13.5 66.03,-52.775 42.712,-47.006 -3.56,-29.456 -2.824,-35.839 -46.271,1.841 -37.556,7.119 -34.857,-35.716 -21.356,-62.471 -8.467,-19.637 -27.738,3.436 -65.294,-43.692 -71.799,-94.505 -127.153,-112.547 -13.499,-54.493 -37.68,-16.938 -38.293,-2.576 -44.797,-42.957 0.735,-25.773 -7.118,-29.579 -32.034,-20.496 -31.911,4.54 -56.825,-36.82 -30.562,-24.056 -14.236,-27.615 -44.061,-59.893 -56.089,-33.016 -24.179,-53.512 -38.293,-16.078 -23.448,-31.181 -27.001,-8.1 -31.297,-33.752 -94.504,-13.377 -16.325,-42.098 -2.821,-40.257 4.297,-40.01 10.676,-25.038 40.503,-16.937 -6.505,-47.375 -39.03,-1.719 -34.118,-10.677 -30.562,-26.756 -32.649,-37.557 -22.705,-50.075 -28.474,-11.537 -19.883,2.823 -27.002,-7.241 -43.324,-29.579 -56.826,-21.355 -24.792,-36.575 -49.706,-30.438 -19.269,-26.633 -23.443,-9.819 -19.145,-28.596 -5.646,-39.275 21.231,-34.856 37.681,-12.519 24.177,-31.297 -34.855,-14.114 -14.238,15.219 -12.765,-6.26 -6.381,-26.019 -31.175,-23.197 -34.855,-21.601 -23.442,30.561 2.821,21.478 -12.764,14.114 -38.415,7.855 -46.148,-12.519 -50.444,-24.055 -48.97,-30.07 -38.416,-43.693 -93.768,-38.416 -45.411,-23.196 -5.032,-29.456 -95.855,-79.777 1.35,-46.27 -27.615,13.501 -54.003,11.536 -6.383,-0.859 -18.531,-2.945 -19.884,-14.237 -17.796,-21.111 -24.055,-7.241 6.381,-23.074 29.825,-13.5 -35.593,-41.975 -40.502,-1.841 -20.497,-29.333 -7.855,-31.297 9.942,-28.72 -5.645,-33.751 -26.265,2.7 -13.501,-14.36 -13.501,-47.375 -16.445,36.575 -25.529,8.959 -12.027,-36.575 -33.385,33.998 -34.119,12.518 -8.592,-13.377 -11.292,-26.879 -32.032,12.641 -83.088,-49.941 -25.529,2.577 -12.887,-23.196 -147.034,-67.994 -28.352,-38.539 -19.147,19.024 -20.638,16.955 -22.828,-30.438 24.179,-43.693 -18.411,-36.697 -53.266,-12.396 -17.796,19.76 -19.147,4.418 -16.322,29.334 -19.27,4.541 -2.822,16.692 -16.324,7.486 -9.204,-29.456 -11.415,9.819 -29.823,-51.057 -21.356,24.178 14.237,40.257 -41.852,-12.396 2.086,26.878 -19.146,-3.068 -21.356,34.856 -49.707,0 -14.973,17.06 -23.442,3.559 -12.765,-8.836 -9.941,-19.761 -33.383,29.579 -47.622,3.437 -22.705,-29.088 -75.235,64.926 -46.884,7.855 -17.796,-16.078 -52.531,-15.219 -37.678,-14.974 15.587,-38.538 -46.884,-41.975 -75.237,33.138 1.352,41.852 -51.18,-9.696 -22.707,68.731 -19.882,25.774 -58.912,33.997 -34.121,10.678 -29.823,-24.056 -10.678,50.934 -36.207,48.112 -76.094,26.265 -31.911,13.255 -25.529,-8.346 -68.975,-7.978 -30.561,18.779 -22.705,-18.41 -31.911,6.259 -42.711,110.337 -53.266,31.297 -8.469,33.261 -41.238,16.078 -29.824,-10.678 13.5,-16.446 -11.414,-25.529 -21.97,-12.027 -21.354,19.76 -49.708,-28.597 -18.533,-39.275 -53.88,13.501 -3.558,43.693 -52.653,53.511 -91.559,55.353 -30.56,43.693 10.676,37.557 -12.887,12.518 -29.086,-7.118 -27.002,0 -27.001,25.406 -14.238,-21.479 -4.909,-54.002 -16.323,31.297 -17.061,12.15 -17.059,-5.032 -3.56,-25.896 -31.91,-8.837 -42.712,32.033 -79.531,-24.915 -13.501,102.605 -102.236,73.272 -44.062,11.537 -66.767,12.396 -24.177,30.438 -33.384,16.201 -36.206,-12.519 -32.034,75.849 -44.797,26.633 -6.995,145.562 -26.388,59.403 19.882,30.806 -36.943,11.538 -9.205,74.13 -27.614,11.66 -37.68,-12.519 -36.942,28.597 6.381,42.834 0.735,35.347 -38.415,7.487 -51.179,61.612 -20.62,50.812 9.327,74.131 -38.414,60.753 -235.157,205.208 -27.002,18.902 -59.647,55.23 -38.293,55.352 5.644,67.012 -10.678,10.679 -70.325,58.544 -51.794,71.799 -27.737,73.149 -92.418,100.887 -68.118,133.042 -124.328,163.358 -99.537,88.369 -46.883,25.896 -66.032,192.937 -59.647,141.02 40.502,49.952 20.619,199.0735 -25.651,84.809 2.209,59.8939 48.97,148.016 11.413,100.028 -5.031,91.0671 17.796,89.228 34.12,420.484 26.265,255.2849 -36.943,216.992 -51.18,233.9301 -11.29,141.02 14.113,179.559 44.799,273.941 97.327,171.3354 88.121,223.2515 47.499,182.9955 46.885,163.3578 -6.383,111.5648 27.737,129.4832 60.385,223.1292 71.799,165.1991 103.71,302.6601 58.176,30.3149 29.21,71.3082 21.969,119.0513 -15.587,-3.6822 -21.356,-0.8576 -10.678,0 -12.764,-8.9598 -21.969,-5.2776 -19.27,0.8576 -19.145,7.9779 -17.797,10.6777 -14.115,17.0597 -9.941,23.1965 -6.381,27.7378 -2.944,23.074 2.944,29.4559 4.172,15.3416 9.329,9.6961 14.85,0.9808 9.205,-8.1004 -1.351,-17.9192 -4.295,-8.1005 0.735,-51.6707 27.737,-5.2773 9.204,-15.2191 11.293,-6.3822 12.886,0 10.556,-8.8368 6.381,-16.0781 10.064,-5.4001 21.97,0 14.237,3.5592 12.029,3.4366 -18.411,49.3386 -3.56,25.774 66.03,31.2972 21.356,-51.7936 20.497,7.2412 0,18.6554 9.327,15.2194 17.674,6.1363 12.151,0 9.205,0.9808 34.857,39.3974 -15.71,12.396 -7.733,19.6375 1.351,22.3372 17.797,4.4184 -0.736,29.4562 12.15,3.5594 -1.472,12.5187 8.468,31.1742 12.15,18.901 -15.71,34.7334 -10.554,0 -18.532,-13.3777 0.735,-13.3784 0,-21.478 -9.941,-16.8144 -2.821,-14.36 -19.147,-6.2596 -7.119,20.6196 11.291,6.9957 -13.499,58.0528 -12.029,-2.6989 -2.208,16.0781 9.327,1.8424 18.411,1.7194 14.236,-7.9779 7.855,-8.9594 17.061,12.5186 -0.735,28.5969 -65.418,-10.6776 -3.56,20.4963 36.329,7.9778 2.087,-10.6781 27.739,4.4187 -9.942,53.6344 -144.211,-21.478 12.764,-52.7756 24.792,2.8215 35.592,-157.0986 -3.558,-25.0373 0,-12.5188 19.882,-12.5189 -2.822,-14.237 -45.535,16.0783 -12.762,-12.5191 -20.621,-23.0741 -28.35,-9.082 -13.501,10.6779 46.884,48.3568 -56.825,251.4801 -7.855,128.6247 -44.798,181.1542 -18.411,40.2568 -6.381,123.1013 -32.034,163.3579 5.032,279.4639 71.063,128.6241 21.969,51.7936 2.209,57.0707 -30.561,117.824 -26.387,125.8016 -56.826,62.5941 -6.382,40.9927 17.797,41.9748 34.12,62.5941 40.501,87.5087 -5.031,119.5422 -55.354,164.217 -42.711,68.7307 2.945,50.934 39.029,65.172 27.737,76.708 -11.414,94.627 11.414,53.635 44.062,43.693 26.265,47.375 39.765,127.519 75.971,101.869 1.473,128.625 -19.146,116.228 -2.944,17.551 -7.732,15.833 -23.442,48.479 -3.56,59.403 -5.767,103.096 9.327,19.637 28.351,59.281 5.032,10.309 12.764,90.209 -0.735,6.75 -6.383,63.699 -4.295,14.237 -12.764,44.797 -4.295,15.097 -37.558,59.771 -12.887,19.637 -24.791,46.516 9.204,33.015 33.383,37.557 37.681,26.755 40.501,39.275 14.851,50.812 34.12,70.449 0,73.271 34.12,61.735 2.086,11.169 15.71,85.054 -9.942,89.35 -23.441,52.775 -19.884,46.516 -11.413,25.774 -7.12,74.867 2.821,67.995 55.477,85.667 0.735,249.885 44.674,124.943 14.238,48.234 -15.587,99.046 8.469,37.556 41.973,40.256 20.497,34.734 45.535,186.555 17.796,139.302 -13.501,22.337 -7.118,106.164 12.027,107.269 -29.088,147.157 -11.413,123.839 -1.351,19.023 -7.855,23.933 -26.266,79.654 -18.532,33.26 -16.325,30.07 -14.236,20.006 -30.438,41.606 -12.15,15.219 -15.587,68.731 -49.093,79.408 -13.501,26.756 3.56,115.124 -13.502,50.934 -6.995,82.109 76.708,117.946 20.497,38.293 22.828,42.834 2.086,6.382 18.533,56.089 2.086,11.046 6.383,32.893 14.236,67.749 -13.501,56.211 12.029,86.527 63.207,102.728 63.207,85.668"
         style="opacity:0.53696493;fill:#feaee9;fill-opacity:1;fill-rule:nonzero;stroke:none;display:inline"
         inkscape:connector-curvature="0" />
    </clipPath>
  </defs>
  <sodipodi:namedview
     pagecolor="#ffffff"
     bordercolor="#666666"
     borderopacity="1"
     objecttolerance="10"
     gridtolerance="10"
     guidetolerance="10"
     inkscape:pageopacity="0"
     inkscape:pageshadow="2"
     inkscape:window-width="1366"
     inkscape:window-height="716"
     id="namedview13"
     showgrid="false"
     fit-margin-top="0"
     fit-margin-left="0"
     fit-margin-right="0"
     fit-margin-bottom="0"
     inkscape:zoom="0.236"
     inkscape:cx="750"
     inkscape:cy="1095.4068"
     inkscape:window-x="-8"
     inkscape:window-y="-8"
     inkscape:window-maximized="1"
     inkscape:current-layer="svg2" />
  <title
     id="title4">Flag of Barbados</title>
  <g
     id="g3780"
     clip-path="url(#clipPath3794)"
     transform="translate(0,9416.0299)">
    <rect
       style="fill:#ffc726"
       y="-10264.405"
       id="rect8"
       x="8000"
       height="31864.406"
       width="8000" />
    <path
       d="m 12000,4124 c -260,709 -525,1447 -1092,2012 176,-58 484,-110 682,-105 l 0,2982 -842,125 c -30,-3 -40,-50 -40,-114 -81,-926 -300,-1704 -552,-2509 -18,-110 -337,-530 -91,-456 30,4 359,138 307,74 -448,-464 -1103,-798 -1739,-897 -56,-14 -89,14 -39,79 844,1299 1550,2832 1544,4651 328,0 1123,-194 1452,-194 0,0 0,2104 0,2104 l 415,0 95,-5876 z"
       id="h"
       inkscape:connector-curvature="0"
       style="fill:#000000" />
    <use
       id="use11"
       transform="matrix(-1,0,0,1,24000,0)"
       xlink:href="#h"
       x="0"
       y="0"
       width="24000"
       height="16000" />
    <rect
       style="fill:#00267f;fill-opacity:1"
       y="-10264.405"
       id="rect8-1"
       x="0"
       height="31864.406"
       width="8000" />
    <rect
       style="fill:#00267f;fill-opacity:1"
       y="-10264.405"
       id="rect8-1-7"
       x="16000"
       height="31864.406"
       width="8000" />
  </g>
</svg>
