<?xml version="1.0" encoding="UTF-8" standalone="no"?>
<svg
   xmlns:dc="http://purl.org/dc/elements/1.1/"
   xmlns:cc="http://creativecommons.org/ns#"
   xmlns:rdf="http://www.w3.org/1999/02/22-rdf-syntax-ns#"
   xmlns:svg="http://www.w3.org/2000/svg"
   xmlns="http://www.w3.org/2000/svg"
   xmlns:sodipodi="http://sodipodi.sourceforge.net/DTD/sodipodi-0.dtd"
   xmlns:inkscape="http://www.inkscape.org/namespaces/inkscape"
   width="298.12451"
   height="599.99908"
   viewBox="0 0 9.9374838 19.999969"
   id="svg2"
   version="1.1"
   inkscape:version="0.91 r13725"
   sodipodi:docname="Flag_of_Benin.svg">
  <metadata
     id="metadata14">
    <rdf:RDF>
      <cc:Work
         rdf:about="">
        <dc:format>image/svg+xml</dc:format>
        <dc:type
           rdf:resource="http://purl.org/dc/dcmitype/StillImage" />
        <dc:title></dc:title>
      </cc:Work>
    </rdf:RDF>
  </metadata>
  <defs
     id="defs12" />
  <sodipodi:namedview
     pagecolor="#ffffff"
     bordercolor="#666666"
     borderopacity="1"
     objecttolerance="10"
     gridtolerance="10"
     guidetolerance="10"
     inkscape:pageopacity="0"
     inkscape:pageshadow="2"
     inkscape:window-width="1600"
     inkscape:window-height="837"
     id="namedview10"
     showgrid="false"
     fit-margin-top="0"
     fit-margin-left="0"
     fit-margin-right="0"
     fit-margin-bottom="0"
     inkscape:zoom="1.0424112"
     inkscape:cx="114.31906"
     inkscape:cy="304.28511"
     inkscape:window-x="-8"
     inkscape:window-y="-8"
     inkscape:window-maximized="1"
     inkscape:current-layer="svg2" />
  <path
     style="fill:#e8112d"
     d="m 3.4333368,9.9333035 0,9.9195955 0.00208,-3.33e-4 0.041146,-0.0091 0.063541,-0.014 0.098047,-0.0045 0.1752604,-0.01634 0.068294,-0.01081 0.043034,-0.0068 0.2274086,-0.03594 0.1319663,-0.0263 0.076693,-0.0153 0.1752603,-0.01113 0.1396483,-0.0319 0.011263,-9.1e-4 0.2048826,-0.01686 0.1240887,-0.0192 0.077213,-3.9e-4 0.1864583,-3.9e-4 0.1158853,-0.0059 0.1002607,-0.01628 0.0043,-3.33e-4 0.020443,-0.0011 0.1104167,-0.006 0.092123,-0.01107 0.110677,-0.0036 0.073242,-0.009 0.199349,-0.02487 0.080274,-0.0044 0.063346,-0.0125 c -0.00139,-0.04335 -0.00168,-0.08713 -0.00417,-0.130404 -9.433e-4,-0.01639 -0.00741,-0.03636 -0.00651,-0.05241 0.0029,-0.05243 0.020513,-0.09705 0.036003,-0.145833 0.01391,-0.04383 0.00331,-0.09456 0.013997,-0.139583 l 0.00951,-0.0401 c 0.01712,-0.05042 0.091767,-0.05901 0.091797,-0.142382 -0.03942,-0.05431 -0.060927,-0.129382 -0.070117,-0.194792 0.07598,-0.142383 0.076568,-0.115499 0.178125,-0.206706 -6.3e-4,-0.02963 -0.00395,-0.06275 -0.00195,-0.09212 0.0022,-0.03114 0.026306,-0.07137 9.767e-4,-0.100977 l -0.024479,-0.01497 c -0.0214,0.004 -0.065644,0.0077 -0.086914,5.2e-4 -0.01449,-0.0049 -0.02354,-0.01818 -0.04082,-0.02018 -0.05875,-0.12242 -0.043513,-0.118407 0.032617,-0.238997 -0.03644,-0.03901 -0.0039,-0.104543 0.0041,-0.147787 0.0071,-0.03802 0.00487,-0.104001 -0.00853,-0.139648 -0.0191,5.33e-4 -0.076429,-0.0039 -0.089909,-0.02103 -0.01209,-0.0146 6.3e-4,-0.142501 0.00189,-0.167057 0.0088,-0.01177 0.017429,-0.02655 0.027669,-0.03704 0.02423,-0.02487 0.046613,-0.05085 0.076693,-0.06888 0.01399,-0.0084 0.030255,-0.01407 0.043945,-0.02285 0.0094,-0.006 0.017944,-0.01784 0.027604,-0.02298 0.01918,-0.01021 0.038196,-0.0074 0.056576,-0.02507 -0.02222,-0.03162 -0.052397,-0.05395 -0.082357,-0.07747 -0.0026,-0.002 -0.010476,-0.0025 -0.013346,-0.0045 -0.02227,-0.01537 -0.066362,-0.08075 -0.057682,-0.104818 0.02899,-0.05336 0.077016,-0.02692 0.1078776,-0.127409 0.02058,-0.06698 0.020787,-0.06234 0.017057,-0.127994 -0.0034,-0.05949 -0.020274,-0.122716 -0.030794,-0.181576 -0.01261,-0.01433 -0.025503,-0.03169 -0.039323,-0.04466 -0.01239,-0.01165 -0.040335,-0.01872 -0.040755,-0.04173 -6.433e-4,-0.03402 -0.00432,-0.07166 -0.00202,-0.105404 0.0054,-0.07845 -0.00282,-0.154605 -0.00462,-0.233072 -0.0013,-0.05522 3.333e-4,-0.111026 4.567e-4,-0.166276 0.0096,3.33e-4 0.021269,0.0021 0.030469,8.46e-4 0.0043,-6e-4 0.01494,-0.0064 0.01862,-0.0066 0.03413,-0.0018 0.093396,0.01166 0.117578,-0.02344 0.0039,-0.04602 0.00624,-0.18903 -0.020182,-0.219726 -0.04241,-0.02554 -0.070633,-0.07945 -0.123242,-0.08639 -0.01516,-0.01026 -0.026575,-0.04411 -0.028125,-0.06094 -0.0014,-0.01493 0.01,-0.0245 1.333e-4,-0.05052 -0.05365,-0.03151 -0.058268,-0.119573 -0.058268,-0.17526 0,-0.01339 0.00396,-0.02832 0.00306,-0.04154 -0.0028,-0.03945 -0.012534,-0.07225 -0.00859,-0.112174 0.0043,-0.04415 0.011131,-0.08994 0.013021,-0.13418 0.0021,-0.04837 -0.010938,-0.09952 -0.00775,-0.147656 0.0019,-0.029 0.013393,-0.05934 0.014323,-0.08822 9.033e-4,-0.02837 -0.01382,-0.087 -0.025,-0.114323 -0.008,-0.0097 -0.031409,-0.01659 -0.043099,-0.0179 -0.0064,-0.0073 -0.0083,-0.02138 -0.0099,-0.02949 -0.0077,-0.04061 -0.022345,-0.06721 -0.040365,-0.104948 -0.0027,-0.0058 -0.079061,-0.101234 -0.088281,-0.113021 l 0.023828,-0.01107 c 0.01831,-0.02421 0.047578,-0.07481 0.048698,-0.10664 l 0.014909,-0.01484 c 0.0034,-0.02312 0.00693,-0.04805 0.013086,-0.07057 0.0044,-0.01603 0.013356,-0.03371 0.016146,-0.04987 0.0054,-0.03117 0.00618,-0.06557 0.00918,-0.0972 0.005,-0.05361 0.029589,-0.123622 0.043099,-0.177149 0.0042,-0.01667 0.010772,-0.03465 0.026172,-0.0444 10e-5,-0.0016 0.00109,-0.0109 7.8e-4,-0.01185 -0.0049,-0.01419 -0.013491,-0.03222 -0.016211,-0.04674 -5.734e-4,-0.0031 6.066e-4,-0.0048 9.766e-4,-0.0079 0.0042,-0.03284 0.027362,-0.06069 0.026432,-0.09512 -8.467e-4,-0.03162 -0.015231,-0.03017 -9.1e-4,-0.07109 0.01092,-0.03126 0.045082,-0.05219 0.051562,-0.08359 0.005,-0.02435 0.00778,-0.05659 0.00918,-0.08151 0.001,-0.0191 -0.0098,-0.05448 0.0099,-0.06888 -0.0319,-0.02763 -0.049709,-0.0515 -0.071159,-0.08613 -0.0051,-0.0083 -0.010817,-0.02032 -0.017057,-0.02754 -0.01386,-0.01602 -0.032028,-0.02269 -0.039388,-0.04531 -0.0052,-0.01598 -0.00537,-0.03468 -0.011003,-0.05045 -0.01194,-0.03381 -0.031178,-0.06619 -0.042188,-0.100195 -0.01494,-0.04612 -0.00581,-0.105486 -0.00371,-0.153516 l 3.9e-4,-0.0088 c 0.027,-0.0171 0.052362,-0.06492 0.054622,-0.09622 0.0014,-0.01974 -0.014496,-0.08618 -0.022786,-0.106836 l 0.024675,-0.03626 c 0.0187,0.0029 0.05053,-0.0031 0.06556,-0.01536 0.03579,-0.03722 0.014959,-0.09441 0.071159,-0.149544 l -0.022266,-0.02305 0.00228,-0.01185 0.035872,-0.03848 c -0.0054,-0.01513 -9.7e-4,-0.03994 2e-4,-0.0556 l -0.040169,-0.03425 c -0.0027,-0.01096 0.026188,-0.0744 0.030078,-0.09186 -0.01414,-0.02166 -0.031814,-0.04946 -0.030924,-0.0763 10e-4,-0.03029 0.011106,-0.172153 -0.00859,-0.19668 l -0.024544,-0.01491 -0.00443,-0.01335 0.00599,-0.01927 0.02168,-0.01849 -0.01556,-0.03639 c 0.0048,-0.02453 0.017177,-0.05097 0.029297,-0.07259 -0.03357,-0.05498 -0.00161,-0.09284 -0.020508,-0.141732 -0.0053,-0.01379 -0.026068,-0.02998 -0.033398,-0.04382 -0.0062,-0.01162 -0.010199,-0.02892 -0.014649,-0.04154 l -0.00241,-0.0067 c 0.0024,-0.02707 0.036591,-0.04069 0.035221,-0.0696 l 0.017969,-0.01849 c 0.01957,-0.0028 0.035344,-0.0082 0.052214,-0.01764 l 0.00755,-0.01406 c -0.02624,-0.03715 -0.015676,-0.09405 -0.0071,-0.135026 l -0.014128,-0.02598 7.8e-4,-0.01263 0.00299,-0.0044 0.032813,-0.0073 c 0.0079,-0.02323 0.024891,-0.09933 0.00716,-0.12168 -0.0072,0.0031 -0.030602,0.0073 -0.038802,0.0036 -9.3e-4,-0.01695 0.00186,-0.03029 0.017969,-0.04004 l 0.014974,-0.0029 c 0.0091,-0.0026 0.037613,-0.07895 0.042773,-0.09115 l -0.011914,-0.01784 -0.022331,-0.0067 c 0.007,-0.01299 0.03466,-0.02991 0.04707,-0.0362 l 0.00983,-0.01999 c -5.2e-4,-0.0091 -0.01144,-0.02148 -0.01862,-0.02604 l -0.00286,-0.01406 0.017188,-0.0089 0.00378,-0.0074 -0.00586,-0.0097 -0.022396,-0.003 -0.00671,-0.01035 0.014974,-0.02669 -0.00521,-0.0082 -0.027604,-0.006 -6.5e-4,-0.01042 0.034375,-0.01764 0.00449,-0.01042 -0.003,-0.0082 -0.024609,-0.006 -0.00449,-0.0074 0.026888,-0.01849 c -0.0021,-0.01192 0.00531,-0.0324 0.011328,-0.04225 -0.0048,-0.0046 -0.02566,-0.02194 -0.025,-0.02878 l 0.00859,-0.03685 c 0.06065,10e-4 0.1215387,0.0031 0.1821617,0.0031 0.01802,0 0.037363,-0.0019 0.055273,-7.16e-4 0.0136,9.33e-4 0.029113,0.0076 0.042513,0.0075 0.0026,-3e-5 0.032905,-0.0072 0.037305,-0.0081 l 0.00905,-0.02676 c 0.0029,-0.0022 0.044133,-0.03427 0.045573,-0.03477 0.05715,-0.01966 0.1256403,-0.02134 0.1851563,-0.02871 0.0026,-3.33e-4 0.007,4.84e-4 0.0097,7.17e-4 l 0.024609,0.0416 c 0.01944,0.0069 0.045019,0.0194 0.064909,0.02305 0.0023,4.34e-4 0.028223,-0.0047 0.032813,-0.0051 0.01462,-9.33e-4 0.030352,0.0017 0.044792,0 0.03026,-0.0033 0.059311,-0.0205 0.088151,-0.02878 0.007,-0.002 0.016047,-4.8e-4 0.023177,-0.0022 0.01624,-0.0039 0.029736,-0.01567 0.044076,-0.01999 0.01802,-0.0054 0.09431,-0.02323 0.1030597,-0.03841 0.0028,-0.105827 0.056275,-0.189601 0.1057943,-0.279427 0.0026,-0.0046 0.00598,-0.009 0.00898,-0.01335 -0.0054,-0.05252 -0.020119,-0.176288 0.025781,-0.215885 l 0.039388,-0.0291 c 0.01512,-0.01118 0.034869,-0.02819 0.042969,-0.04642 0.01188,-0.02672 -0.014422,-0.09234 -0.016992,-0.126172 -0.00145,-0.01904 2.667e-4,-0.043581 0.00208,-0.068555 l -4.2474646,1.2e-5 z m 2.8166014,9.6042305 c 5.3e-6,1.67e-4 -5.7e-6,3.47e-4 0,5.2e-4 l 6.66e-5,-5.2e-4 -6.66e-5,0 z"
     id="rect4"
     inkscape:connector-curvature="0" />
  <path
     style="fill:#fcd116"
     d="m 6.5244171,3.627691e-5 c -0.0012,9.1669991e-4 -0.00652,0.0055844831 -0.00762,0.0059244831 -0.0044,0.00142 -0.054243,0.01710343 -0.055143,0.01777343 -0.0308,0.022423 -0.1105493,0.12477288 -0.1364583,0.15768228 l -0.013346,-0.001497 c -0.0082,0.016202 -0.025842,0.0342047 -0.041732,0.0429687 -0.0069,0.024023 -0.074993,0.20917659 -0.095703,0.22180989 l -0.013607,0.003646 c -0.0018,-0.03146 -0.024403,-0.0759854 -0.061003,-0.0796224 -0.04066,-0.00405 -0.08437,0.0221042 -0.123242,0.0301432 -0.01447,0.00299 -0.04275,-0.009363 -0.0528,-0.019401 -0.01282,-2e-4 -0.03016,0.004548 -0.04082,0.0117838 l -0.026432,-0.008203 c -0.02011,0.020631 -0.032144,0.0330912 -0.046224,0.0570312 l -0.011328,0.005208 c -0.03063,-0.010664 -0.08413,0.002353 -0.1095704,0.0190755 -0.01445,-0.028165 -0.049987,-0.0331934 -0.070117,-0.0639974 l -0.010612,0.002214 c -0.01013,0.010541 -0.016188,0.0389973 -0.017448,0.0526693 l -0.019662,0.005143 -0.016667,0.0229818 -0.012565,-0.002279 c -0.02339,-0.0042 -0.031148,6e-5 -0.048568,-0.001562 -0.008,-7.4e-4 -0.014288,-0.006576 -0.023437,-0.006966 l -0.01211,-5.21e-4 -0.00755,0.006641 c -0.0016,0.00957 -0.00991,0.0458337 -0.019727,0.0504557 -0.02291,0.00295 -0.040727,-0.0113049 -0.057357,-0.0268229 l -0.012044,-0.001302 c -0.0035,0.012579 -0.016582,0.0328118 -0.029362,0.0380208 -0.03621,-0.00168 -0.092323,0.009406 -0.123112,0.0298177 -0.01202,0.018512 0.00463,0.0949645 0.00723,0.11510416 0.01482,0.11883999 0.024321,0.19676331 0.072461,0.308138 0.02229,0.051559 0.053556,0.0952907 0.081706,0.14329428 0.0092,0.015696 0.015605,0.033344 0.024935,0.048958 0.03283,0.054977 0.058757,0.05998 0.070247,0.1314453 0.0024,0.015095 0.00584,0.037626 0.00534,0.052734 -3e-4,0.010172 -0.00945,0.020438 -0.00885,0.032292 -0.0078,0.00749 -0.0172,0.017137 -0.0222,0.026953 l -0.012044,0.00143 -0.02793,-0.020117 -0.012044,-7.16e-4 c -0.0055,0.00824 -0.021417,0.023095 -0.032487,0.022917 l -0.00527,0.016341 0.0082,0.036393 -0.00762,0.011133 -0.036198,7.16e-4 -0.024154,0.01849 c -0.01027,0.00109 -0.027232,-0.00577 -0.035482,-0.011198 -0.01183,0.018362 -0.015383,0.036448 -0.020443,0.057161 l -0.015104,0.00371 -0.0015,0.010352 0.027148,0.032747 0.00215,0.022266 0.018099,0.013411 0.00449,0.011914 -0.00247,0.014128 -0.00215,0.011849 -0.00755,0.00592 -0.017057,0.00208 -0.00866,0.020117 c 0.0063,0.011704 0.029082,0.04633 0.026302,0.060221 l -0.00762,0.011133 c -0.02101,0.00391 -0.055313,0.025204 -0.067903,0.042253 -0.01054,0.014247 -0.025346,0.062503 -0.00391,0.075 l 0.014323,0.00299 0.00221,0.00742 -0.00684,0.012565 -0.035417,0.017773 -0.00762,0.015625 0.00749,0.020768 -0.00612,0.01556 0.012826,0.013411 7.167e-4,0.015625 c -0.03307,0.00574 -0.073744,0.0077 -0.1033204,0.025065 9.567e-4,0.050054 -0.019045,0.076596 -0.068685,0.094206 -0.0074,0.023448 -0.03122,0.052309 -0.04987,0.067513 7.4e-4,0.0121 -0.00341,0.038798 -0.014388,0.04681 0.004,0.030353 0.00618,0.050002 0.024024,0.077279 l -0.00905,0.035612 0.003,0.00964 0.01556,0.00664 2.667e-4,0.00352 c -0.0063,0.020057 -0.050744,0.036025 -0.067774,0.045378 -0.02998,0.016461 -0.074725,0.036333 -0.1009113,0.057292 -0.0443,0.035453 -0.08276,0.08484 -0.12487,0.1234374 -0.05818,0.053309 -0.079149,0.01502 -0.107682,0.0403 -0.02197,0.019456 -0.040659,0.044771 -0.061719,0.06543 -0.0088,0.0086 -0.020887,0.014968 -0.029297,0.023828 -0.01459,0.015354 -0.025985,0.034506 -0.040625,0.049805 -0.04359,0.045515 -0.09052,0.088047 -0.1345704,0.133138 -0.01395,0.014274 -0.025634,0.031419 -0.039844,0.045378 -0.01768,0.017364 -0.03848,0.031981 -0.05638,0.049154 -0.05995,0.057533 -0.1160509,0.1212542 -0.1743489,0.1807942 -0.02553,0.02606 -0.158085,0.02599 -0.194987,0.019727 l -0.00833,0.00443 c -0.0019,-9.334e-4 -0.00555,-0.00325 -0.00755,-0.00365 -0.06761,-0.013493 -0.1379654,-0.02505 -0.1989584,-0.058984 l -0.026563,0.00534 -0.037044,-0.025195 c -0.02663,-0.00402 -0.055609,0.026773 -0.080599,0.023763 l -0.00677,-0.020052 -0.012825,7.16e-4 c -0.00427,0.00599 -0.00855,0.010762 -0.012836,0.014974 l 0,6.8395176 4.2453772,0 c -0.0033,-0.050162 0.013676,-0.134734 -3.9e-4,-0.173177 L 7.6386757,9.7182645 c -0.0241,-0.065847 -0.038677,-0.1046933 -0.010677,-0.1729166 l 0.02806,-0.047917 c 0.0013,-0.00217 0.026015,-0.044384 0.031185,-0.049154 0.03404,-0.031367 0.1052673,-0.028445 0.1302733,-0.071745 0.01695,-0.029357 0.025787,-0.064997 0.042057,-0.094857 0.0057,-0.010473 0.019127,-0.02041 0.026237,-0.030404 0.0127,-0.01791 0.022276,-0.038678 0.035286,-0.056315 0.0041,-0.00555 0.013133,-0.00923 0.017253,-0.014779 0.01282,-0.017283 0.022036,-0.038019 0.034766,-0.055859 0.0058,-0.00805 0.031709,-0.043218 0.033529,-0.053841 0.0089,-0.052447 -0.00358,-0.092494 0.032487,-0.1371743 l 0.026237,-0.021484 c 0.05037,-0.028697 0.105911,0.013073 0.140625,0.00404 0.03436,-0.030763 0.070066,-0.062267 0.1079427,-0.088737 0.01944,-0.067417 0.00873,-0.051032 -0.027344,-0.1158853 -0.0024,-0.00429 -0.00219,-0.011117 -0.00449,-0.01556 -0.03073,-0.06065 -0.062889,-0.1183407 -0.042969,-0.1878903 L 8.2527407,8.460325 8.2897847,8.41983 c 0.01278,-0.01396 0.033431,-0.037248 0.050781,-0.046875 0.03019,-0.016747 0.074387,-0.027543 0.1071614,-0.039779 0.06958,-0.02598 0.1421879,-0.056629 0.2143229,-0.074349 0.0733,-0.018007 0.1154997,0.018927 0.1774087,0.0125 0.0031,-3.333e-4 0.01472,-0.0071 0.01875,-0.00814 0.0065,-0.0017 0.03669,-0.00569 0.04043,-0.00729 0.0216,-0.00926 0.042733,-0.03742 0.057813,-0.054687 4.5e-4,-5.334e-4 0.0013,-0.00504 0.0015,-0.00592 l 0.00983,-0.00371 c 0.0413,-0.047994 0.048398,-0.044237 0.042318,-0.1097006 0.02781,-0.055757 0.1003683,-0.07263 0.1232423,-0.1339194 0.01436,-0.038447 0.024337,-0.08373 0.029687,-0.1246093 0.0022,-0.016873 -0.0019,-0.036303 -0.0013,-0.05345 3e-4,-0.00902 0.00312,-0.018439 0.00312,-0.027409 -3e-4,-0.079503 -0.017654,-0.1330833 0.028906,-0.20306 0.0069,-0.01039 0.016048,-0.022488 0.026628,-0.029818 0.01162,-0.00804 0.02558,-0.00964 0.0375,-0.015495 0.01971,-0.00968 0.03185,-0.017558 0.05625,-0.016862 l 0.015039,-0.0125 C 9.342912,7.4283737 9.39062,7.2746087 9.378,7.2348087 L 9.360031,7.2169047 c -0.06877,0.01228 -0.091292,-0.025296 -0.134375,-0.071289 -0.0097,-0.010363 -0.01461,-0.016759 -0.02487,-0.026562 -0.0095,-0.00913 -0.02563,-0.01504 -0.03444,-0.02461 -0.04792,-0.05212 -0.067504,-0.107441 -0.090104,-0.172591 l -0.0015,-0.010352 c 0.02859,-0.073953 0.062886,-0.1806196 0.097656,-0.2498696 0.01004,-0.020003 0.027266,-0.03818 0.038476,-0.057747 0.0051,-0.00887 0.0079,-0.020928 0.012109,-0.030404 0.01974,-0.04416 0.013854,-0.05071 0.00859,-0.1016927 -2.667e-4,-0.00243 -0.00219,-0.00649 -0.00299,-0.00892 0.0219,-0.05856 0.060963,-0.058581 0.1098306,-0.083464 0.0239,-0.01217 0.047663,-0.02883 0.070703,-0.042773 0.04906,0.01095 0.094944,0.048708 0.1385416,0.072591 0.03082,0.0169 0.065111,0.035208 0.097331,0.049414 0.0085,0.00373 0.019664,0.0047 0.027734,0.00898 0.01861,0.00989 0.032661,0.025033 0.053841,0.033659 0.01828,-0.046443 0.048633,-0.1155473 0.051693,-0.1660806 0.0018,-0.028767 -0.00849,-0.063934 -0.00339,-0.092057 0.0079,-0.043273 0.077829,-0.2316639 0.099479,-0.2691406 0.0055,-0.00949 0.010944,-0.013216 0.017904,-0.02168 0.0429,-0.05212 0.047796,-0.06048 0.044336,-0.1227863 l -0.00983,-0.1752603 -0.0082,-0.010482 c -2.333e-4,-0.0344 -0.00237,-0.077214 -0.014518,-0.109961 -0.03052,-0.041263 -0.1032953,-0.05614 -0.1415363,-0.098633 -0.0013,-0.0015 -0.039941,-0.059528 -0.041081,-0.061784 -0.01556,-0.030873 -0.019837,-0.065877 -0.038607,-0.09668 -0.01812,-0.029737 -0.06868,-0.096791 -0.07461,-0.132487 -0.01035,-0.062237 0.050596,-0.1693216 0.063346,-0.2365883 0.0038,-0.020263 0.00557,-0.044715 0.00697,-0.065365 0.0033,-0.04706 -0.013743,-0.1324874 -0.024023,-0.1805337 -0.0077,-0.03597 -0.012177,-0.086058 -0.038607,-0.1152346 -0.04062,-0.02308 -0.060807,-0.033904 -0.1058593,-0.04056 -0.0013,-3.333e-4 -0.00537,-0.00296 -0.00677,-0.00371 -0.0056,-0.032323 0.020092,-0.071122 0.022982,-0.106836 0.0026,-0.031773 -0.018464,-0.060681 -0.014714,-0.092904 0.0037,-0.032227 0.014777,-0.070745 0.025977,-0.1016276 l -0.00521,-0.020835 c -0.019,-0.013287 -0.049824,-0.014414 -0.077344,-0.013867 L 9.4318382,4.1458041 C 9.2486012,3.8960675 9.0630362,3.6503255 8.8799502,3.4029655 c -0.02838,-0.03838 -0.059425,-0.075156 -0.087175,-0.1139322 -0.02317,-0.03236 -0.045993,-0.065026 -0.070833,-0.096159 0.0449,-0.106945 0.087529,-0.2152503 0.1309896,-0.3228515 -0.0032,-0.011963 -0.0026,-0.025757 -0.0026,-0.038021 0,-0.053691 0.019831,-0.066473 0.066341,-0.083919 0.0078,-0.012154 0.017162,-0.065387 0.026042,-0.088151 0.0043,-0.011143 0.012207,-0.018652 0.017057,-0.028646 0.02086,-0.043054 0.038827,-0.098096 0.063737,-0.1399739 0.02148,-0.036109 0.060853,-0.061949 0.076953,-0.1013672 l 0.025586,-0.043555 c 8.333e-4,-0.0017 0.013836,-0.014321 0.016016,-0.016536 -0.006,-0.00433 -0.012761,-0.010391 -0.019141,-0.013932 -0.03031,-0.016776 -0.064609,-0.032596 -0.093359,-0.051628 l -0.032487,-0.02832 c -0.08577,-0.074569 0.0033,-0.09935 0.0015,-0.1425129 l -0.00671,-0.020833 c -0.01776,-0.016379 -0.035504,-0.00841 -0.055404,-0.010937 -0.01581,-0.00201 -0.033123,-0.00758 -0.048763,-0.011133 -0.02088,-0.040142 -0.020562,-0.097801 -0.038542,-0.1330078 -0.0032,-0.0063 -0.00751,-0.00813 -0.012305,-0.013346 L 8.8123069,1.877445 c -0.0063,-0.00581 -0.016481,-0.00901 -0.022591,-0.014909 -0.01274,-0.012292 -0.022357,-0.028933 -0.035287,-0.040951 -0.0063,-0.00587 -0.018837,-0.011717 -0.026367,-0.016406 -0.0076,-0.00473 -0.018769,-0.00779 -0.027149,-0.011263 -0.120016,0.048345 -0.162142,-0.062104 -0.205729,-0.067969 -0.03779,-0.00507 -0.077044,0.00539 -0.10931,-0.022852 -0.04512,0.00831 -0.1023443,0.027644 -0.1471353,0.010417 l -0.011328,0.00664 -0.045964,-0.00618 c -0.02318,-0.010786 -0.046256,-0.1164025 -0.053646,-0.1413411 -0.008,-0.00377 -0.048354,-0.020815 -0.049674,-0.029948 -0.01189,-0.082089 -0.013815,-0.1231727 -0.087435,-0.1727214 0.0083,-0.011977 0.043888,-0.057586 0.042578,-0.071094 -0.03586,-0.014548 -0.08321,-0.061629 -0.106901,-0.093034 -0.02694,-0.035644 -0.037,-0.030439 -0.06224,-0.051823 -0.02067,-0.017515 -0.045011,-0.040332 -0.063151,-0.060417 -0.01304,-0.014424 -0.022977,-0.033233 -0.035287,-0.048437 -0.02107,-0.026046 -0.087399,-0.0925595 -0.114974,-0.10742192 -0.0173,-0.00932 -0.063561,-0.0227247 -0.072331,-0.0404297 -0.0037,-0.011539 -0.00301,-0.0302126 9.133e-4,-0.0416016 -0.01538,-0.00321 -0.042197,-0.0161249 -0.051237,-0.0299479 l 0.0015,-0.008138 c -0.02555,-0.010351 -0.052117,-0.019403 -0.076367,-0.032487 -0.07181,-0.038707 -0.087791,-0.0351502 -0.1072917,-0.11451822 -0.01012,-0.00908 -0.091025,-0.0799209 -0.094075,-0.0843099 -0.0027,-0.00391 -0.011669,-0.0393639 -0.015169,-0.0461589 -0.01192,-0.023106 -0.02988,-0.0465287 -0.04401,-0.0685547 -0.02483,-0.00916 -0.042519,-0.0311753 -0.064909,-0.0439453 -0.02036,-0.011622 -0.055498,-0.0122671 -0.073958,-0.0275391 -0.01989,-0.016475 -0.037809,-0.0447633 -0.055859,-0.0639323 -0.02587,-0.027468 -0.053893,-0.0530896 -0.080013,-0.0803386 C 6.8650371,0.20062153 6.8154808,0.14206987 6.7570998,0.09228887 6.7308798,0.06992088 6.6890815,0.05653919 6.6581415,0.04248419 c -0.04464,-0.02029 -0.082031,-0.0435279 -0.133724,-0.04244791309 z"
     id="rect6"
     inkscape:connector-curvature="0" />
  <path
     style="fill:#008751"
     d="m 2.1493526,3.0503615 -0.018099,0.00521 -0.011198,0.019336 -0.017318,6.66e-5 c -0.0048,0.014383 -0.00844,0.034752 -0.021029,0.044596 l -0.01582,0.00299 -0.021094,-0.00885 c -0.01343,0.00129 -0.061725,0.03116 -0.075195,0.038737 l -0.014974,0.060938 c 0.0067,0.012207 0.012695,0.030395 0.012175,0.044531 l 0.020377,0.00964 0.00228,0.01263 -0.00749,0.010417 -0.042122,0.00677 -0.0082,0.023047 -0.034635,0.017904 -0.00827,-0.0015 -0.00833,-0.016341 -0.00977,-7.16e-4 -0.00898,0.010417 0.00306,0.018555 -0.027018,0.03125 0.00228,0.015625 c -0.02354,0.028767 -0.061225,0.00227 -0.078255,0.013477 l -0.00671,0.011914 0.012109,0.019271 -0.00371,0.013412 0.018945,0.046029 0.018099,0.010351 -7.167e-4,0.025977 0.029492,0.039323 0,0.010352 c -0.0051,0.00823 -0.022524,0.018446 -0.030794,0.022396 l -0.014974,0.032682 -0.00527,0.00371 -0.033919,-0.00885 -0.00977,-0.021484 -0.011328,-0.00592 -0.014323,0.00228 -0.00671,0.027474 -0.036133,-0.00436 c -0.0072,-0.01631 -0.014649,-0.040297 -0.024219,-0.054883 -0.01123,-0.017103 -0.055648,-0.041699 -0.076888,-0.034766 -0.0062,0.0026 -0.011788,0.01005 -0.014518,0.01569 -0.01589,0.032773 -0.00226,0.028839 0.00124,0.058659 0.0027,0.02297 -0.001,0.05156 0.022005,0.067513 l 0.01582,0.00215 0.00898,-0.011914 -0.018099,-0.018489 -7.8e-4,-0.00814 0.00749,-0.00521 0.01582,0.00143 0.010547,0.019987 c -0.0045,0.01735 -0.0011,0.045646 0.0069,0.061589 l -0.00749,0.014128 c -0.02335,0.00458 -0.058578,0.025705 -0.070638,0.047005 l -0.012044,-7.166e-4 c -0.04117,-0.027888 -0.065257,-0.059666 -0.117513,-0.041276 -0.02787,-0.021097 -0.058194,0.00486 -0.086524,-0.0013 -0.0171,-0.020547 -0.058502,-0.00459 -0.082812,-0.00794 -0.0081,-0.010143 -0.024925,-0.026665 -0.037695,-0.031055 l -0.018815,0.0015 c -0.0155,0.00861 -0.032216,0.030109 -0.041276,0.044726 -0.0045,0.00964 0.0037,0.02446 0.0071,0.03138 0.01716,0.034687 0.030875,0.054284 0.071485,0.061914 l 0.00905,0.011849 c 0.0026,0.01236 -0.014476,0.034858 -0.022396,0.042448 l 0.00677,0.010351 -0.0097,0.014128 0.012825,0.01556 -0.00885,0.030469 0.00905,0.024479 -0.00671,0.01862 c 0.0098,0.012527 0.02017,0.024656 0.03099,0.036263 l -0.013542,0.010417 -0.017318,-6.5e-4 c -0.01079,-0.00362 -0.025988,-0.030686 -0.030208,-0.040039 -0.08391,-0.00247 -0.093485,0.014598 -0.142643,0.085091 -0.04236,0.015833 -0.12622635,-0.013136 -0.14283868,0.025651 l 0.00612,0.024544 -0.011979,0.013346 c 0.006,0.011553 0.031136,0.030128 0.044466,0.028841 l 0.011198,-0.014909 -0.005273,-0.012565 0.002213,-0.00521 0.0210283,0.00957 0.0143883,0.022982 0.01582,0.00365 0.0113283,0.014128 -0.00671,0.026758 0.018099,0.016992 c -0.0038,0.00547 -0.014604,0.02486 -0.011914,0.031966 l 0.021094,0.013281 0.011328,0.023763 -0.0097,0.030469 0.020378,0.020703 -6.5e-4,0.019336 c 0.01645,0.016887 0.032981,0.033859 0.050521,0.049609 l 0.00228,0.00892 -0.018685,0.026042 c -0.02994,-0.039223 -0.064873,-0.070397 -0.11529963,-0.075391 l -0.0158853,-0.017057 c -0.0018,0 -0.014139,3.8e-4 -0.015039,7.8e-4 -0.02222,0.0099 -0.047583,0.024268 -0.070573,0.031445 -0.04927,0.015383 -0.0753177,-0.067108 -0.0860677,-0.097721 -0.0026,-0.00749 -0.0167423,-0.017882 -0.0233723,-0.020768 -0.01874,-0.00488 -0.0503433,0.00489 -0.0645833,0.017318 -0.0033,-0.00734 -0.0156987,-0.030763 -0.0242187,-0.033333 l -0.009831,7.8e-4 c -0.05302,0.057 -0.00118,0.090181 -0.04388,0.1241537 l -0.007487,7.8e-4 7.8e-4,0.00742 -0.045508,0.044076 c -0.002,0.00193 -0.0113977,0.00417 -0.0141277,0.00612 l -0.0740883,0.05319 -0.0304037,0.067708 c -0.0088,0.048113 -0.0277637,0.091665 -0.0397137,0.1384114 -0.0021,0.00818 9.7e-4,0.019434 -0.001303,0.027474 -0.01675,0.05868 -0.0409113,0.065727 -0.0195313,0.1241536 0.0079,0.021533 0.0150593,0.043506 0.0244793,0.064453 -0.01652,0.025923 -0.0373573,0.053315 -0.0513673,0.080469 -0.02847,0.05514 -0.014444,0.174124 -0.055664,0.2149739 -0.01497,0.014823 -0.0378437,0.024526 -0.0523437,0.039649 l -0.0700523,0.083138 c -0.03671,0.043547 -0.08491466,0.085537 -0.09355466,0.144401 -0.004,0.02714 -0.01311566,0.062189 -0.01308566,0.089193 6.666e-5,0.044517 0.02241066,0.09066 0.02871066,0.1341797 0.008,0.054867 0.008599,0.1138973 0.005599,0.1692706 -0.0032,0.060377 -0.02581266,0.1100057 -0.04544266,0.1658857 -0.0077,0.0219 -0.012443,0.045217 -0.020573,0.066927 -0.0017,0.00453 -0.011785,0.018142 -0.012565,0.021615 -0.0035,0.015533 -0.0029,0.036618 -0.0041017,0.052734 l 0.0029933,0 c -1.6667e-4,0.01012 4.6333e-4,0.021178 -5.2e-4,0.031185 -0.0079,0.080203 -0.02047067,0.1618877 -0.0253906701,0.2421877 -0.0016,0.026193 0.00420467,0.049854 -9.0999991e-4,0.085417 0.01516702,0.014522 0.03277935,0.021071 0.04824935,0.033048 0.0095,0.00736 0.016912,0.01853 0.026432,0.025846 0.08105999,0.062223 0.16683032,0.120095 0.24947931,0.1803383 0.13111798,0.095557 0.2627473,0.1906733 0.39388029,0.2863933 0.04284,0.03127 0.088408,0.059245 0.13098932,0.090625 0.0091,0.00673 0.0170873,0.015647 0.0263673,0.02207 0.0069,0.0048 0.015681,0.007 0.022591,0.011784 0.0048,0.00336 0.008627,0.010191 0.013607,0.013281 0.0046,0.00287 0.0178747,0.00597 0.0217447,0.00879 0.07893,0.057397 0.16005265,0.1093907 0.24225265,0.162044 0.0089,0.00569 0.021404,0.00808 0.030794,0.013151 l 0.052474,0.030664 0.3090496,0.1805989 c 0.102555,0.059927 0.2085187,0.1180707 0.3073567,0.1839844 0.0069,0.09219 0.00699,0.1839029 0.011263,0.2759763 0.0053,0.1140966 0.00718,0.2283529 0.012565,0.3423829 0.001,0.021533 0.00621,0.043849 0.00631,0.065299 4.5e-4,0.095747 -0.012572,0.1946343 -0.00462,0.2902343 0.0033,0.039637 0.017247,0.079794 0.019987,0.1194013 3e-4,0.00421 -0.00829,0.0347 -0.00879,0.041536 -0.0025,0.03928 0.00281,0.081351 -0.00169,0.1202473 -0.003,0.02643 -0.066356,0.1784817 -0.079036,0.2103517 0.0092,0.044737 0.043364,0.079905 0.055924,0.1214843 0.0053,0.01754 -0.010493,0.057503 0.0071,0.07194 l 0.011979,0.00365 c 0.02632,-0.015873 0.052621,-0.029292 0.082031,-0.038932 0.02216,0.063303 0.025831,0.1364386 0.035351,0.2024086 4.5e-4,0.00313 1.333e-4,0.00665 2e-4,0.00983 5.6e-4,0.026373 0.00239,0.053615 0.00169,0.079948 -3.567e-4,0.012563 -0.00518,0.026189 -0.00508,0.038672 1.667e-4,0.01203 0.00492,0.02562 0.00612,0.03776 0.0063,0.060553 -3e-4,0.1159293 0.027018,0.1735026 0.01056,0.022217 0.020719,0.050652 0.033789,0.071159 0.0078,0.01224 0.087722,0.08594 0.104362,0.10638 0.01374,0.01688 0.020826,0.05282 0.028646,0.06367 0.0046,0.0065 0.00849,0.009 0.013997,0.01478 0.01079,0.01139 0.026903,0.03395 0.036263,0.0429 0.0046,0.0044 0.012693,0.0066 0.017253,0.01107 0.03484,0.03389 0.107646,0.114321 0.138737,0.138151 0.0245,0.01879 0.062444,0.03486 0.089844,0.05013 l 0.017253,0.01628 0.064713,0.124349 c 8.467e-4,0.0016 0.00827,0.01115 0.00977,0.01263 0.01596,0.01668 0.036291,0.03436 0.050261,0.05247 0.02703,0.03508 0.047263,0.09061 0.064193,0.131055 l -0.00514,0.02422 c 0.0027,0.0065 0.028236,0.06593 0.028516,0.06823 0.0088,0.07737 0.025867,0.142317 -0.00195,0.218033 l 0.00371,0.0082 -6.5e-4,0.0037 c -9.034e-4,0.0054 -0.00908,0.05092 -0.00898,0.05339 2e-4,0.0048 0.01164,0.03435 0.01276,0.04154 0.0046,0.02949 0.00102,0.06114 0.00612,0.0905 6.566e-4,0.0038 0.00446,0.01186 0.00456,0.01517 0.0025,0.06535 0.00774,0.133995 0.00534,0.199349 -6.966e-4,0.01892 -0.00671,0.03906 -0.00651,0.05788 6.67e-5,0.0042 0.00702,0.02194 0.00762,0.02741 0.003,0.0277 0.00475,0.05965 0.00475,0.0875 0,0.03399 -0.00405,0.06833 -0.00475,0.102344 -0.0019,0.09095 6.3e-4,0.181903 -0.00221,0.272916 l -0.00182,0.05638 c -8.9e-4,0.01303 -0.00569,0.0271 -0.00579,0.04004 -6.66e-5,0.01326 0.005,0.02743 0.0054,0.04075 0.0013,0.04647 -2e-4,0.09363 -2.667e-4,0.140169 -1.333e-4,0.07856 0.00353,0.157187 0.00312,0.235807 0.0235,0.03403 0.068459,0.08895 0.061589,0.132422 -0.01262,0.03214 -0.042623,0.06513 -0.064583,0.09095 l 0.00911,0.03223 c -0.0011,0.01148 -0.011823,0.02739 -0.020833,0.03412 0.0011,0.01369 0.00524,0.03417 0.00384,0.04746 -8.9e-4,0.0084 -0.00321,0.01284 -0.00521,0.02103 l -0.010352,0.04199 c -0.0051,0.02795 0.00149,0.03775 -0.010352,0.06673 l 0.00228,0.01074 c 0.0037,0.01721 0.00614,0.04074 0.01237,0.0569 0.0025,0.0066 0.022939,0.03372 0.024219,0.03848 4.367e-4,0.0016 0.00547,0.068 0.00547,0.07188 0.0013,0.343433 0.00558,0.686748 0.00658,1.030208 2.666e-4,0.09721 -0.00458,0.193621 -0.00898,0.291081 -3.966e-4,0.0088 0.00473,0.01929 0.00443,0.02819 -2.333e-4,0.0088 -0.00569,0.01866 -0.00599,0.02747 l -0.00514,0.139453 c -8.2e-4,0.02244 -0.00427,0.05092 -3.9e-4,0.07266 0.0046,0.02595 0.019819,0.0496 0.018489,0.07721 l -0.014062,0.291992 c -0.0026,0.05299 -0.00847,0.113737 -0.00137,0.166471 0.0076,0.05703 0.044704,0.100271 0.061524,0.152214 5.6e-4,0.0017 -0.0069,0.140233 -0.0069,0.14987 -1.667e-4,0.03713 0.00667,0.07247 0.014713,0.108398 0.003,0.01311 0.015986,0.03089 0.022266,0.04303 l 0.027539,0.0097 c 0.0052,0.02412 0.029122,0.0374 0.029622,0.06387 l -0.00599,0.01042 c -0.02062,3.34e-4 -0.074372,-0.0037 -0.088542,0.0073 -0.0012,0.0019 -0.014048,0.02152 -0.014128,0.0222 l -0.024089,0.218945 c -0.0043,0.03916 -0.00441,0.08424 -0.00391,0.123958 l 0.00469,0.345117 c 3.3e-5,0.0024 -0.00322,0.0063 -0.00332,0.0088 -0.0019,0.0423 0.00692,0.0868 0.00762,0.129296 0.0016,0.09986 2e-4,0.200058 3.334e-4,0.299935 1.666e-4,0.152913 0.0084,0.306747 0.01263,0.459701 -0.0372,-0.002 -0.077242,-0.007 -0.114323,-0.0062 -0.01686,3.66e-4 -0.041598,0.01637 -0.058008,0.0058 l -0.00736,-0.01042 -0.092187,0.0014 c 5.733e-4,0.01068 0.00256,0.07872 0.00566,0.08398 0.01431,0.02405 0.036305,0.05325 0.046875,0.07871 0.0028,0.0069 0.00186,0.01142 0.00306,0.01875 0.0078,0.04748 1e-4,0.06075 0.038151,0.0903 0.0023,0.0018 0.052509,0.02187 0.058789,0.02448 0.0072,0.01267 -4.4e-4,0.0357 -0.00293,0.04896 l 0.0082,0.02305 c -0.01157,0.0083 -0.036388,0.03163 -0.039388,0.04681 -0.0045,0.03054 0.038451,0.03118 0.016471,0.12552 l 0.014128,0.0097 0.029688,-0.0052 0.00521,0.01185 c -0.01265,0.01604 -0.035405,0.03149 -0.052735,0.0416 l -0.00592,0.01862 0.00742,0.02148 0.026758,-0.0015 0.011133,0.0067 0.00671,0.01856 c -0.01169,0.01582 -0.019903,0.04905 -0.014063,0.06836 0.0076,0.01872 0.048967,0.01414 0.057227,0.03561 -0.0085,0.0062 -0.028058,0.02415 -0.029688,0.03561 l 0.011198,0.01784 c -0.01084,0.02119 -0.050415,0.0149 -0.065365,0.05645 l -0.024544,0.0022 c -0.0042,0.02364 -0.00347,0.03682 -0.00137,0.06165 -0.0026,0.0075 -0.014439,0.01552 -0.021549,0.01784 l -0.013346,0.02233 -0.014128,0.0015 -0.0097,0.01706 0.00449,-7.8e-4 0.011133,0.01113 0.034961,0.0037 c 0.0095,0.02838 0.033259,0.0382 0.042839,0.05684 0.01146,0.0223 0.018793,0.05457 0.027083,0.07865 -0.0041,0.008 -0.018518,0.01496 -0.026758,0.01634 l -0.0015,0.03047 c 0.0097,0.0083 0.026743,0.02996 0.026693,0.04382 l -0.00521,0.01634 c -0.0013,0.0089 0.020197,0.03282 0.025977,0.03867 0.01169,0.0029 0.030801,0.0011 0.041601,-0.0044 l 0.014128,0.0045 0.020768,0.04609 c 0.0041,0.0015 0.032794,0.01103 0.033724,0.01354 l 0.013411,0.0022 0.024479,-0.02005 0.026042,-0.0037 0.010351,0.0059 0.00521,0.01042 c -0.0017,0.01724 -0.020331,0.04336 -0.031901,0.05501 0.0019,0.0053 0.00823,0.01917 0.013412,0.02227 0.0084,0.0041 0.037261,-0.01003 0.044531,-0.01413 l 0.014909,0.02747 0.02526,-0.0022 0.00521,0.01484 -0.00742,0.01563 0.016341,0.02083 c 6.967e-4,0.01282 0.00539,0.06723 0.00299,0.0765 l -0.016341,0 c -0.0066,0.0055 -0.010019,0.02014 -0.00892,0.02819 l 0.00605,0.01263 c 0.009,7.34e-4 0.02883,0.0064 0.03418,0.01484 l 0.020768,-0.01185 0.015625,0.02005 0.010352,-0.0022 0.010417,-0.01335 0.01263,-7.8e-4 0.00371,0.0074 -0.00221,0.01777 0.00599,0.01341 0.014844,0.003 0.00742,0.01413 -0.010352,0.01706 0.00885,0.0089 0.011914,-0.003 c 0.0093,0.01304 0.019803,0.02302 0.033073,0.03249 l -0.00111,0.01256 -0.011589,0.0082 0.0015,0.0112 0.018555,0.01042 c -0.003,0.07923 0.05499,0.07452 0.07487,0.112305 l -0.00371,0.0097 -0.017839,0.0044 -6.67e-5,0.0431 0.015625,0.01263 -0.011198,0.0089 0.00514,0.04609 0.025195,0.01634 c 0.01285,0.02107 0.021707,0.04722 0.029167,0.07057 -1.333e-4,0.01072 -0.0063,0.02854 -0.014844,0.03568 l -0.00586,0.0015 0.017057,0.03268 0.011133,0.0059 c 0.0069,0.01105 0.026121,0.05025 0.019401,0.06387 l -0.026758,0.01413 0.020052,0.03119 0.020833,0.0082 0.01556,0.02077 c -0.01757,0.01925 -0.091549,0.0097 -0.118815,0.0067 l -0.00299,0.02376 c -0.01425,0.01743 -0.046259,0.0071 -0.064649,0.01191 -0.01303,0.0034 -0.027144,0.01599 -0.040104,0.02083 -0.03642,0.01367 -0.098448,0.02931 -0.136784,0.02474 l -0.014128,0.01191 -0.030469,-0.0037 -0.039388,0.0222 c -0.04439,-0.0076 -0.083803,-0.0027 -0.1247397,0.01693 l -0.00561,0.05338 0.025195,-0.01855 0.039388,-0.0046 0.058659,-0.01855 0.04082,-0.006 0.031966,-0.01641 0.017839,-0.0037 0.031901,0.0022 0.07474,-0.01159 0.069336,-0.01074 0.157487,-0.03945 0.1321613,-0.02005 0.041146,-0.0091 0.023437,-0.0051 0,-16.6833321 c -0.011805,0.00581 -0.023416,0.011135 -0.034245,0.00983 l -0.00677,-0.020052 -0.012825,7.16e-4 c -0.04784,0.067293 -0.098372,0.013975 -0.1264977,0.027539 -0.0094,0.0056 -0.020587,0.019752 -0.023307,0.030469 -0.01073,4.333e-4 -0.031777,0.00607 -0.039127,0.014909 l -0.01888,-7.813e-4 -0.011979,0.00892 c -0.01665,-0.00545 -0.031098,-0.012588 -0.048958,-0.00957 l -0.00898,0.016341 -0.010547,0.0015 -0.014323,-0.011133 -0.026367,0.011914 -0.010482,-0.00299 -0.00905,-0.014128 -0.014323,-0.00664 -0.023307,0.00221 -0.015104,-0.021484 -0.010547,0.00221 c -0.0068,0.016517 -0.026615,0.062043 -0.046615,0.068359 l -0.02181,-0.00443 -0.017383,-0.016341 -0.013542,7.814e-4 c -0.03447,0.04278 -0.056978,0.06611 -0.1113933,0.05651 l -0.019596,-0.01849 -0.017318,0.00293 c -0.01311,0.01493 -0.032473,0.037889 -0.054883,0.035742 -0.0039,-0.00213 -0.020365,-0.01164 -0.021875,-0.011914 -0.02167,-0.00384 -0.048782,0.00353 -0.066992,-0.013281 L 2.6323749,3.278367 C 2.6367749,3.22134 2.6456109,3.232834 2.6111509,3.19894 L 2.5832869,3.1923 2.6021019,3.161766 2.5976119,3.14842 c -0.0097,3.64e-4 -0.026939,-0.00363 -0.033919,-0.011068 L 2.5620629,3.103888 2.5364119,3.087612 2.5258649,3.063133 2.5183749,3.057923 2.5063309,3.060913 C 2.4712109,3.1960986 2.4179909,3.107036 2.373063,3.106421 L 2.346696,3.07452 2.325602,3.07608 2.278987,3.112538 2.264664,3.114038 2.238948,3.073999 c -0.01641,0.00912 -0.053987,0.01904 -0.069987,0.00527 L 2.159131,3.055571 2.149361,3.050361 Z"
     id="rect8"
     inkscape:connector-curvature="0" />
</svg>
