<?xml version="1.0" encoding="UTF-8" ?>
<!DOCTYPE svg PUBLIC "-//W3C//DTD SVG 1.1//EN" "http://www.w3.org/Graphics/SVG/1.1/DTD/svg11.dtd">
<svg width="984pt" height="713pt" viewBox="0 0 984 713" version="1.1" xmlns="http://www.w3.org/2000/svg">
<g id="#ba0000ff">
<path fill="#ba0000" opacity="1.00" d=" M 866.56 0.00 L 870.37 0.00 C 873.75 1.07 876.98 2.93 878.94 5.99 C 884.78 14.15 884.41 24.73 888.30 33.69 C 890.49 38.90 896.40 41.08 898.88 46.07 C 901.11 50.66 901.47 55.87 901.54 60.90 C 905.79 61.58 910.21 61.99 914.09 64.00 C 918.68 66.21 922.37 70.80 922.55 76.02 C 922.37 82.24 917.08 87.65 910.99 88.44 C 907.32 88.78 903.47 88.65 900.09 87.04 C 888.61 81.84 879.25 72.47 866.94 69.01 C 861.92 67.47 856.42 69.15 852.66 72.68 C 846.51 78.29 842.77 85.93 839.10 93.27 C 836.96 97.33 835.65 102.03 832.12 105.17 C 828.20 108.37 822.96 109.52 817.99 108.98 C 810.55 108.62 803.99 104.75 796.89 102.98 C 798.83 107.17 803.75 108.20 806.68 111.43 C 808.60 113.98 806.77 117.18 805.44 119.55 C 799.81 128.07 790.75 133.77 781.29 137.20 C 774.78 139.62 767.78 137.84 761.07 138.73 C 757.90 139.64 755.89 142.50 753.59 144.66 C 749.21 149.44 744.05 154.73 737.01 154.47 C 725.01 153.41 716.46 164.18 705.02 165.55 C 697.65 166.47 692.45 158.70 693.04 152.00 C 693.87 143.88 692.50 134.72 697.73 127.76 C 701.10 122.83 707.20 120.75 712.99 120.99 C 720.26 121.32 728.16 121.63 734.59 117.62 C 742.30 112.45 748.20 105.18 754.56 98.53 C 759.48 92.77 765.29 87.86 770.30 82.19 C 774.51 77.45 779.27 73.24 783.60 68.60 C 789.59 61.63 796.58 55.60 802.61 48.67 C 812.14 39.51 820.85 29.43 831.25 21.24 C 835.85 17.34 842.09 17.47 847.47 15.52 C 854.46 11.14 857.99 2.04 866.56 0.00 M 776.70 84.61 C 774.12 85.99 771.35 87.18 769.33 89.37 C 764.05 94.74 758.50 99.87 753.75 105.74 C 747.35 111.28 742.13 118.44 734.45 122.40 C 728.99 125.26 722.70 125.18 716.73 125.67 C 712.55 125.30 708.02 125.03 704.30 127.33 C 701.31 128.99 699.89 132.25 698.74 135.29 C 697.60 140.07 697.22 144.97 697.55 149.87 L 698.34 149.50 C 697.83 149.76 696.83 150.28 696.32 150.54 C 697.96 152.06 701.10 150.81 701.93 148.99 C 701.84 146.70 701.11 144.48 700.79 142.22 C 702.77 141.50 704.87 140.83 706.45 139.35 C 707.53 137.70 708.02 135.75 708.81 133.95 C 711.50 134.29 714.21 134.32 716.93 134.23 C 718.28 132.88 719.67 131.58 721.10 130.31 C 722.81 131.51 724.55 132.69 726.31 133.85 C 728.42 132.88 730.53 131.91 732.62 130.90 C 733.51 134.92 736.90 137.66 741.04 137.64 C 737.05 140.55 735.97 145.49 736.09 150.16 C 739.20 150.01 742.18 149.09 744.96 147.69 L 745.14 147.22 C 750.29 143.36 753.54 136.97 759.83 134.72 C 766.81 133.88 774.15 135.65 780.88 132.90 C 790.21 129.37 799.84 123.45 803.65 113.76 C 800.03 111.42 795.65 109.57 793.53 105.58 C 791.49 102.28 795.29 97.19 799.02 99.06 C 808.32 102.16 818.77 108.05 828.47 102.92 L 828.37 102.73 C 830.75 100.84 832.56 98.08 832.98 95.04 C 827.54 84.42 821.83 73.92 816.09 63.45 C 802.92 70.43 789.84 77.58 776.70 84.61 M 727.47 144.37 C 725.24 146.52 724.08 149.64 721.41 151.34 C 717.34 154.14 712.32 156.12 707.33 154.99 C 708.32 157.11 707.41 159.13 706.24 160.94 C 707.32 160.59 708.42 160.24 709.52 159.88 C 710.50 160.57 711.96 159.68 712.66 158.90 L 712.63 158.41 C 717.24 156.44 721.42 153.58 726.08 151.68 C 727.10 151.32 728.16 150.99 729.14 150.48 C 731.88 151.11 731.92 147.62 733.07 146.02 C 732.30 145.99 730.77 145.93 730.01 145.90 C 729.15 145.49 728.52 143.85 727.47 144.37 Z" />
<path fill="#ba0000" opacity="1.00" d=" M 938.10 116.21 C 940.38 111.99 945.59 110.82 950.00 110.53 C 958.99 110.48 968.65 109.64 976.82 114.18 C 980.51 116.14 982.72 119.86 984.00 123.72 L 984.00 125.02 C 982.75 127.96 981.43 130.95 979.26 133.35 C 976.25 136.76 972.30 139.61 970.81 144.09 C 968.87 149.89 970.78 156.02 970.52 161.97 C 970.37 166.71 967.37 171.39 962.97 173.23 C 959.60 174.43 956.39 172.55 953.64 170.81 C 951.78 172.10 949.94 173.42 948.12 174.74 C 948.61 185.32 950.80 195.69 952.49 206.11 C 953.10 209.97 954.31 214.00 952.93 217.84 C 946.16 220.37 938.45 223.67 931.35 220.44 C 924.55 217.58 920.93 210.55 918.80 203.88 C 915.79 195.07 912.42 184.90 903.46 180.46 C 888.41 172.94 871.89 168.94 855.47 165.64 C 855.61 172.01 855.86 178.59 853.37 184.60 C 850.59 192.10 843.36 198.72 835.04 198.51 C 828.05 198.38 822.93 190.55 824.96 184.03 C 825.46 180.59 827.52 176.92 825.58 173.58 C 822.30 167.49 814.79 164.44 808.11 165.71 C 798.19 167.17 790.21 173.69 782.26 179.28 C 776.50 183.13 770.28 187.71 762.97 187.07 C 754.83 187.32 748.40 181.31 743.47 175.53 C 740.26 171.08 738.24 164.86 740.70 159.61 C 742.39 155.29 746.28 152.32 750.28 150.24 C 758.13 146.47 766.81 145.11 775.23 143.19 C 780.96 141.91 786.17 138.99 791.97 137.94 C 798.72 136.37 806.02 136.54 812.28 133.26 C 816.68 130.97 817.74 125.80 819.87 121.76 C 822.34 116.54 827.43 112.72 833.11 111.74 C 840.23 110.67 847.32 112.31 854.26 113.76 C 866.56 116.02 878.85 118.29 891.18 120.42 C 893.17 120.91 895.70 121.14 896.80 123.18 C 898.39 126.45 898.24 130.49 900.69 133.36 C 903.27 135.33 906.70 135.50 909.76 136.29 C 915.27 137.29 920.56 139.15 925.84 140.99 C 927.12 135.97 930.84 132.27 935.46 130.15 C 935.35 125.40 935.40 120.33 938.10 116.21 M 834.03 115.56 L 834.73 115.71 C 830.25 116.29 825.88 118.83 823.89 122.99 C 821.73 127.29 820.32 132.25 816.37 135.33 C 810.17 140.47 801.66 140.17 794.18 141.78 C 787.50 142.76 781.59 146.32 774.98 147.54 C 770.22 148.77 765.16 149.21 760.66 151.19 L 759.69 151.01 L 758.74 151.24 C 758.50 151.22 758.01 151.18 757.77 151.16 C 755.89 152.76 753.48 153.45 751.32 154.53 C 750.80 154.85 749.76 155.49 749.25 155.81 C 752.57 157.38 756.11 158.49 759.79 158.87 C 759.62 157.35 758.87 155.77 759.41 154.26 C 761.62 153.94 762.80 156.64 763.96 158.13 C 765.73 160.93 763.45 163.87 761.06 165.31 C 756.47 165.84 752.92 162.69 748.65 161.78 C 750.32 165.24 754.07 166.75 756.81 169.21 C 759.04 170.83 760.48 174.59 763.78 172.93 C 763.06 170.63 762.66 168.22 763.99 166.03 C 764.94 168.25 766.57 169.96 768.69 171.10 C 770.16 171.70 769.45 173.64 769.58 174.85 C 769.40 179.08 763.62 179.41 760.53 178.57 C 756.49 176.27 753.09 172.94 748.75 171.13 C 749.88 173.64 752.87 174.43 754.31 176.73 C 756.43 179.90 759.31 183.21 763.54 182.95 C 763.92 182.76 764.68 182.40 765.06 182.21 C 766.29 183.23 769.76 182.74 769.66 180.88 C 771.94 181.29 773.81 179.79 775.67 178.75 C 783.47 173.86 790.45 167.58 799.02 164.00 C 804.26 161.69 810.15 160.82 815.82 161.76 C 821.86 163.19 827.52 167.23 829.91 173.09 C 831.39 176.33 830.23 179.95 829.42 183.21 C 829.80 183.76 830.55 184.87 830.92 185.42 C 830.79 187.16 830.38 188.85 829.39 190.32 C 830.24 191.78 831.25 193.36 833.01 193.82 C 839.12 195.57 845.48 191.39 848.22 186.05 C 852.26 178.36 851.49 169.40 851.45 161.01 C 854.33 161.26 857.19 161.69 860.06 162.12 C 863.29 162.83 866.51 163.65 869.84 163.90 C 861.21 148.20 853.10 132.21 844.44 116.53 C 841.14 115.36 837.49 115.63 834.03 115.56 Z" />
<path fill="#ba0000" opacity="1.00" d=" M 685.93 169.08 C 692.65 168.82 699.35 167.94 706.08 168.00 C 710.74 167.90 714.89 171.34 716.35 175.65 C 717.81 180.18 717.72 185.03 718.19 189.73 C 722.30 190.66 728.48 189.69 730.40 194.45 C 732.44 198.92 733.78 203.68 735.82 208.14 C 738.11 213.08 743.30 216.07 745.47 221.01 C 745.57 225.88 742.30 230.01 740.87 234.53 C 753.36 243.55 765.68 252.78 778.12 261.87 C 782.46 265.07 787.94 265.92 792.89 267.80 C 797.84 269.67 803.13 270.74 807.86 273.16 C 810.98 276.37 808.93 281.33 808.92 285.27 C 824.77 274.41 840.50 263.38 856.15 252.23 C 858.74 250.56 862.18 246.98 865.30 249.62 C 870.24 255.07 874.32 262.66 872.24 270.20 C 869.41 281.66 860.49 290.27 851.96 297.85 C 843.89 305.49 833.47 309.75 823.55 314.38 C 817.45 316.99 811.46 319.93 805.11 321.89 C 798.96 323.90 792.39 322.27 786.14 323.65 C 778.05 325.00 772.74 331.90 766.31 336.33 C 760.82 340.78 753.93 342.71 747.58 345.50 C 737.85 351.24 728.46 357.62 719.87 364.95 C 715.14 369.42 716.01 376.40 715.23 382.27 C 714.24 391.33 707.61 399.06 699.45 402.69 C 691.52 406.29 682.51 405.61 674.37 408.45 C 669.58 410.22 665.65 413.59 661.75 416.76 C 652.53 424.53 643.97 433.02 635.01 441.08 C 631.02 444.53 626.96 448.16 621.87 449.88 C 617.50 451.53 612.69 450.94 608.25 452.26 C 604.00 454.01 601.08 457.84 598.61 461.56 C 593.65 468.93 591.51 478.58 583.87 483.86 C 566.43 495.12 549.01 506.41 531.56 517.64 C 528.30 519.60 526.03 522.71 523.38 525.36 C 503.37 545.34 483.39 565.36 463.38 585.34 C 460.79 587.77 458.96 591.16 455.56 592.61 C 441.26 599.29 426.92 605.91 412.62 612.61 C 406.83 615.40 400.78 617.73 395.45 621.38 C 372.02 635.95 348.61 650.56 325.15 665.08 C 319.42 668.80 312.27 668.42 306.21 671.20 C 295.70 677.41 290.75 690.08 279.58 695.41 C 267.65 700.64 254.20 699.68 241.91 703.61 C 236.79 705.34 231.33 705.40 225.98 705.55 C 220.21 705.77 214.88 709.53 209.00 708.24 C 198.37 706.79 190.15 697.21 179.04 698.15 C 160.38 701.96 141.75 705.96 123.09 709.82 C 119.04 710.80 114.77 711.07 111.01 713.00 L 110.16 713.00 C 105.77 711.37 101.07 710.86 96.68 709.24 C 83.37 704.50 71.31 696.63 60.85 687.19 C 51.57 678.72 43.30 668.53 39.79 656.26 C 36.01 644.94 35.62 632.79 31.59 621.55 C 23.66 602.33 15.15 583.35 6.69 564.36 C 4.19 558.14 1.17 552.04 0.00 545.38 L 0.00 539.68 C 1.05 536.52 2.56 533.44 5.03 531.14 C 12.19 523.84 22.53 521.42 32.07 518.85 C 35.12 517.46 38.71 520.84 37.87 523.98 C 37.01 528.00 35.61 531.88 34.65 535.88 C 32.55 543.98 29.81 553.26 34.09 561.12 C 35.12 557.05 35.44 552.54 38.20 549.16 C 40.70 546.18 44.15 543.83 47.97 542.99 C 51.89 542.50 53.56 546.79 56.01 549.00 C 69.53 561.92 87.61 569.50 106.00 572.08 C 112.45 573.34 118.83 571.27 125.05 569.81 C 133.87 567.39 143.37 566.30 152.29 568.77 C 160.05 571.14 167.87 575.79 171.43 583.37 C 174.02 588.52 171.17 594.75 166.59 597.68 C 161.65 600.93 155.81 602.61 150.03 603.62 C 140.61 605.32 131.49 600.83 122.07 601.57 C 115.04 602.17 107.98 602.50 100.94 602.99 C 104.69 614.92 107.69 627.11 112.08 638.83 C 113.50 643.01 117.13 645.75 120.08 648.82 C 123.71 652.56 127.56 656.09 131.41 659.62 C 134.24 662.28 138.15 663.58 142.02 663.52 C 152.05 663.49 162.19 663.85 172.10 662.00 C 179.12 660.70 185.22 656.80 191.44 653.53 C 196.91 650.58 202.73 648.22 208.78 646.79 C 214.28 645.67 219.89 645.24 225.43 644.30 C 229.51 643.60 232.98 641.13 236.96 640.08 C 244.16 638.03 251.84 639.06 259.05 637.02 C 261.13 636.52 262.68 634.98 264.24 633.63 C 257.12 635.08 249.42 637.69 242.31 634.83 C 234.05 631.29 232.48 619.56 237.71 612.84 C 244.76 603.57 256.15 599.53 266.69 595.69 C 277.43 592.05 287.55 586.86 297.57 581.61 C 303.13 578.70 307.85 574.53 312.77 570.69 C 315.96 568.21 319.05 565.26 323.11 564.32 C 327.70 563.37 332.37 564.48 336.99 564.22 C 340.30 563.87 341.38 560.33 343.10 558.03 C 345.47 554.13 349.13 551.13 353.33 549.41 C 363.31 544.91 373.96 542.20 384.12 538.18 C 387.18 537.23 388.42 534.12 389.41 531.38 C 391.17 526.30 394.04 521.63 397.85 517.83 C 401.86 513.65 406.70 508.82 413.01 509.43 C 416.66 509.18 419.41 511.95 421.54 514.55 C 424.82 514.37 428.52 514.41 431.19 512.18 C 433.89 509.56 435.82 506.24 438.63 503.72 C 442.93 499.86 447.79 496.58 453.14 494.36 C 455.79 493.25 458.31 491.85 460.48 489.96 C 446.43 489.74 435.60 500.42 422.02 502.12 C 414.04 503.17 405.94 504.10 397.92 502.95 C 390.90 502.41 386.09 495.80 378.97 495.55 C 366.39 495.07 354.15 500.80 341.52 498.60 C 336.70 497.39 332.06 493.86 330.80 488.89 C 329.67 483.44 331.13 477.98 332.39 472.70 C 330.25 470.49 327.52 468.36 327.11 465.10 C 326.83 462.39 326.65 459.45 327.99 456.98 C 330.07 452.93 334.24 450.78 338.17 448.92 C 330.03 450.95 322.62 456.42 313.97 455.92 C 306.56 455.15 302.59 447.72 301.70 441.04 C 295.75 440.16 289.71 440.05 283.75 439.22 C 280.93 439.01 277.97 436.13 279.21 433.19 C 281.96 428.15 285.91 423.90 289.56 419.52 C 290.53 418.15 291.77 416.77 291.95 415.04 C 291.16 410.20 288.82 405.80 287.57 401.09 C 286.89 398.56 288.83 396.09 291.13 395.27 C 299.51 392.98 308.92 392.87 316.65 397.31 C 328.70 403.76 342.29 398.29 355.03 398.49 C 368.13 399.01 379.25 406.71 390.64 412.31 C 399.74 416.33 410.15 418.15 419.95 415.91 C 438.64 412.96 457.38 410.32 476.02 407.09 C 490.30 404.44 504.76 402.75 518.99 399.92 C 532.40 395.09 545.00 388.29 557.55 381.60 C 564.87 377.40 572.64 373.74 578.89 367.96 C 583.76 363.79 588.43 359.37 593.43 355.36 C 598.15 351.70 604.22 350.91 609.92 349.89 C 617.69 348.50 623.87 343.13 631.10 340.35 C 638.54 338.12 646.24 340.69 653.50 342.46 C 662.40 345.15 671.83 343.99 680.90 345.62 C 684.47 346.13 688.28 347.25 691.80 345.87 C 694.98 344.10 697.09 340.97 699.12 338.04 C 703.27 331.68 707.28 325.10 712.85 319.84 C 716.60 316.20 721.46 313.95 725.13 310.21 C 727.95 307.56 729.92 304.20 732.30 301.18 C 734.33 298.56 737.26 296.90 740.05 295.22 C 737.91 293.60 735.72 292.04 733.82 290.14 C 730.03 286.46 728.54 281.22 726.23 276.62 C 724.38 273.02 723.33 268.67 719.81 266.27 C 712.73 261.15 704.67 257.29 696.10 255.44 C 687.47 259.48 678.54 262.86 669.85 266.78 C 663.25 269.36 660.01 276.38 653.95 279.78 C 647.84 283.16 640.71 283.78 633.91 284.66 C 634.83 292.49 637.10 300.14 637.33 308.06 C 637.40 316.69 634.38 325.02 630.43 332.58 C 627.08 338.49 621.40 344.42 614.06 344.08 C 608.75 344.53 604.23 340.71 601.46 336.55 C 597.48 330.24 595.27 322.37 597.05 314.99 C 598.69 310.09 601.79 305.86 603.95 301.19 C 598.05 299.06 592.10 297.07 586.29 294.74 C 584.05 294.04 582.28 291.46 583.31 289.16 C 585.29 283.26 588.58 277.42 594.05 274.11 C 597.46 271.88 602.04 270.93 604.17 267.13 C 608.77 259.46 605.87 250.05 608.52 241.84 C 610.30 236.89 615.05 233.39 620.15 232.46 C 628.42 230.99 636.95 231.34 645.16 229.46 C 651.39 227.97 654.55 221.92 658.67 217.61 C 663.42 212.20 669.75 208.63 675.60 204.57 C 680.05 201.40 684.42 196.89 684.48 191.07 C 684.12 185.26 681.88 179.76 681.47 173.96 C 681.14 171.46 683.39 168.95 685.93 169.08 M 700.00 172.35 L 699.97 172.49 C 695.09 172.45 690.24 173.06 685.38 173.29 C 686.45 181.10 690.34 189.20 687.44 197.03 C 683.72 205.85 674.40 209.80 667.22 215.27 C 662.09 218.78 658.78 224.14 654.57 228.58 C 651.54 231.76 647.34 233.60 643.02 234.18 C 636.32 235.14 629.55 235.43 622.82 236.19 C 620.66 236.84 618.41 237.35 616.46 238.52 C 615.22 239.44 616.72 240.98 617.03 242.06 C 623.75 254.53 630.59 266.95 637.14 279.52 C 639.93 279.49 642.69 279.03 645.43 278.47 C 653.98 277.53 658.65 269.69 664.77 264.75 C 670.66 261.66 676.91 259.27 683.01 256.61 C 686.59 254.73 690.49 253.50 693.97 251.44 C 695.67 251.50 697.39 251.53 699.11 251.55 C 700.35 251.98 701.62 252.41 702.87 252.88 C 703.91 253.06 704.98 253.83 706.06 253.62 C 706.64 253.96 707.78 254.64 708.36 254.98 C 710.71 256.03 713.04 257.16 715.19 258.62 C 715.51 258.62 716.15 258.61 716.47 258.61 C 719.71 261.64 724.22 263.38 726.47 267.40 C 729.31 272.72 731.30 278.48 734.36 283.69 C 733.62 285.42 734.16 286.18 735.98 285.98 C 739.28 290.14 744.33 292.61 747.11 297.27 C 745.81 297.77 744.52 298.27 743.24 298.78 L 742.95 299.77 C 742.79 299.87 742.47 300.08 742.31 300.19 C 741.60 300.12 740.17 299.98 739.46 299.91 L 739.90 301.27 L 739.34 300.25 C 737.46 301.70 735.77 303.39 734.35 305.30 L 733.96 304.82 L 734.32 305.48 C 733.57 306.53 732.84 307.59 732.13 308.66 C 730.67 310.46 729.11 312.17 727.52 313.85 L 726.82 314.51 C 724.12 316.72 721.57 319.17 718.38 320.67 C 719.23 321.70 719.88 322.84 720.34 324.11 C 718.45 323.82 716.58 323.53 714.71 323.24 C 715.67 324.52 716.71 325.79 717.77 327.00 C 716.25 326.49 714.69 326.00 713.16 325.56 C 714.48 327.57 716.19 329.28 717.67 331.17 C 715.73 330.53 713.86 329.76 711.97 329.03 C 714.25 331.17 717.00 332.65 719.59 334.36 C 722.11 336.71 723.72 339.84 725.03 342.99 C 720.90 340.78 717.82 337.01 713.42 335.28 C 711.46 334.13 709.79 332.58 707.80 331.50 C 709.92 337.13 717.01 339.14 718.30 345.33 C 716.67 343.56 715.01 341.76 712.86 340.61 C 713.32 341.65 714.23 343.74 714.69 344.78 C 714.42 344.72 713.89 344.60 713.63 344.54 C 711.46 342.34 709.29 340.16 706.96 338.15 C 709.12 342.15 712.38 345.45 714.15 349.69 C 713.56 349.49 712.39 349.10 711.81 348.90 C 711.57 350.64 711.93 352.74 710.30 353.93 C 709.96 351.50 710.23 348.96 709.49 346.62 C 707.68 343.67 705.62 340.87 704.44 337.59 C 704.23 338.02 703.81 338.88 703.60 339.32 C 700.48 342.64 698.24 346.92 694.17 349.25 C 691.22 351.05 687.61 350.78 684.32 350.60 C 681.26 350.07 678.18 349.63 675.10 349.30 C 681.37 362.05 688.51 374.36 695.12 386.95 C 697.07 390.26 698.37 394.07 701.15 396.83 C 703.47 395.74 705.07 393.63 706.88 391.89 C 711.23 386.75 711.44 379.74 711.75 373.36 C 711.85 372.65 712.06 371.23 712.16 370.52 L 712.11 370.88 C 712.60 369.48 713.11 368.08 713.58 366.67 C 718.85 358.58 727.75 353.94 735.29 348.25 C 735.78 347.93 736.78 347.28 737.27 346.96 C 737.74 346.66 738.68 346.08 739.15 345.78 C 740.02 345.20 740.89 344.63 741.78 344.06 C 745.89 341.43 750.46 339.70 755.03 338.04 C 759.44 336.45 763.20 333.58 766.90 330.77 C 767.84 329.98 768.89 329.28 769.68 328.33 C 773.80 325.22 777.90 321.70 782.90 319.91 C 784.48 319.78 786.08 319.61 787.66 319.34 L 787.51 319.34 C 789.42 319.10 791.34 318.97 793.28 318.94 C 794.38 319.09 795.50 319.07 796.62 318.89 C 801.42 318.88 806.03 317.42 810.40 315.55 C 818.99 312.23 827.00 307.66 835.54 304.23 C 835.76 303.99 836.21 303.51 836.43 303.28 C 839.67 302.20 842.42 300.14 845.08 298.06 C 851.65 293.38 857.51 287.67 862.30 281.17 C 862.83 280.32 863.38 279.48 863.94 278.65 L 863.88 278.34 C 864.38 277.56 865.35 276.97 865.51 275.98 C 866.43 274.58 866.90 273.08 866.95 271.47 C 868.72 272.06 869.56 268.18 867.91 267.79 C 868.07 266.79 868.37 264.78 868.52 263.77 C 867.94 264.32 866.79 265.41 866.21 265.95 C 866.78 261.31 865.69 256.60 862.88 252.84 C 861.29 253.84 859.72 254.86 858.20 255.95 C 857.82 256.29 857.06 256.95 856.68 257.29 L 856.27 257.25 C 853.21 259.69 849.92 261.82 846.70 264.02 C 841.35 267.81 835.85 271.39 830.68 275.40 C 828.18 277.57 825.32 279.22 822.59 281.05 C 820.04 282.44 817.67 284.18 815.48 286.08 C 813.90 287.21 811.73 287.87 810.87 289.74 C 809.73 290.39 808.84 291.34 808.08 292.39 C 806.62 292.87 805.15 293.52 803.59 293.16 C 803.65 292.42 803.75 290.94 803.80 290.20 C 804.37 285.57 805.62 280.93 804.93 276.24 C 797.38 273.82 789.91 271.15 782.30 268.96 C 778.84 268.05 776.34 265.33 773.11 264.00 C 771.81 262.63 770.35 261.42 768.84 260.31 C 767.05 258.60 764.90 257.36 762.84 256.04 C 761.69 254.66 760.19 253.66 758.64 252.81 C 757.24 251.44 755.58 250.38 753.99 249.27 C 748.00 244.80 741.88 240.49 736.05 235.83 L 736.17 234.86 C 736.61 233.72 737.04 232.58 737.49 231.45 C 738.14 229.82 738.74 228.17 739.35 226.53 C 739.79 225.83 740.69 224.45 741.14 223.75 C 741.94 221.11 739.20 219.50 738.02 217.50 C 735.23 214.35 731.76 218.26 728.82 219.18 C 730.30 217.11 731.87 215.11 733.32 213.02 C 732.07 210.66 731.13 208.15 729.81 205.83 C 730.04 209.44 726.44 211.72 723.14 210.98 C 723.55 209.33 723.98 207.68 724.42 206.04 C 721.83 202.68 719.64 199.04 717.15 195.62 C 715.79 200.22 714.92 206.07 709.89 208.11 C 708.69 207.63 707.49 207.16 706.31 206.69 C 705.58 205.36 704.86 204.02 704.13 202.70 C 704.38 200.75 704.17 198.26 706.63 197.81 C 707.05 199.54 706.56 201.80 708.24 202.98 C 709.55 203.29 711.11 202.63 711.21 201.12 C 711.89 196.34 711.04 191.52 711.12 186.72 C 708.67 189.28 705.81 192.27 702.10 192.55 C 698.35 192.88 696.34 187.71 699.47 185.58 C 700.17 186.75 700.91 187.93 701.64 189.11 C 701.95 188.28 702.58 186.63 702.89 185.81 L 701.78 184.87 L 701.60 184.01 L 702.45 184.95 C 703.04 180.60 704.81 176.57 706.26 172.47 C 705.74 172.58 704.69 172.79 704.17 172.89 C 702.94 175.54 701.96 178.33 700.05 180.60 C 697.89 180.12 695.76 179.39 695.76 176.79 C 696.42 177.30 697.75 178.33 698.41 178.85 C 699.85 176.94 700.87 174.76 701.72 172.53 C 701.29 172.48 700.43 172.40 700.00 172.35 M 291.31 399.63 C 292.99 404.29 295.00 408.90 295.96 413.79 C 296.76 417.24 294.38 420.08 292.32 422.52 C 289.33 426.25 285.35 429.73 283.76 434.23 C 283.76 434.37 283.75 434.65 283.74 434.79 C 290.72 436.43 298.04 436.03 305.11 437.20 C 306.37 440.57 306.08 444.64 308.23 447.78 C 309.93 450.92 313.70 452.27 317.12 451.68 C 326.42 450.30 334.43 443.64 344.08 443.99 C 348.61 444.02 352.26 447.21 354.59 450.84 C 347.80 451.62 340.33 451.36 334.49 455.48 C 331.03 457.66 329.99 462.53 331.73 466.13 C 332.96 468.27 335.24 469.47 337.17 470.91 C 335.82 476.46 333.99 482.02 334.49 487.82 C 369.09 469.45 403.48 450.67 438.01 432.16 C 447.80 426.68 457.99 421.85 467.52 415.93 C 470.35 414.89 472.88 413.19 475.42 411.59 C 464.22 413.26 453.02 414.96 441.89 416.91 C 432.88 417.73 424.02 419.67 415.06 420.85 C 408.47 421.57 401.93 420.17 395.53 418.79 L 396.02 418.80 C 382.31 414.35 370.74 403.80 355.92 402.73 C 344.90 402.39 333.93 406.05 322.94 403.93 C 316.99 402.96 312.15 398.71 306.12 398.08 C 301.14 397.59 296.09 398.14 291.31 399.63 M 4.21 541.30 C 3.84 547.64 6.70 553.42 9.02 559.12 C 15.75 574.94 22.99 590.55 29.71 606.37 C 31.85 611.23 33.85 616.14 35.88 621.05 C 37.93 626.73 38.75 632.75 40.11 638.62 C 56.00 616.54 71.65 594.27 87.63 572.24 C 79.19 569.30 71.09 565.38 63.60 560.51 C 58.28 556.36 52.79 552.30 48.77 546.80 C 45.93 548.07 42.83 549.36 41.01 552.03 C 39.03 555.04 39.30 558.79 38.20 562.11 C 37.13 564.95 32.70 565.61 30.89 563.16 C 27.59 559.30 27.64 553.93 27.56 549.15 C 28.48 541.30 31.07 533.82 32.82 526.16 C 23.12 530.88 13.80 536.36 4.21 541.30 M 118.88 575.60 C 115.12 576.52 111.24 576.62 107.38 576.48 C 94.59 594.61 81.29 612.42 68.90 630.81 C 74.77 627.56 80.95 624.76 86.55 621.06 C 91.06 619.25 95.36 616.86 99.46 614.25 C 99.88 611.45 98.05 608.57 97.44 605.82 C 96.80 603.59 96.22 601.35 95.68 599.11 C 97.96 598.88 100.23 598.63 102.51 598.44 C 110.37 598.80 118.18 597.24 126.04 597.53 C 128.27 597.52 130.68 597.98 132.68 596.69 C 140.46 592.42 148.31 588.27 156.10 584.02 C 158.79 582.62 161.59 581.37 163.87 579.33 C 158.90 575.56 153.15 572.68 146.93 571.80 C 137.38 570.29 128.05 573.44 118.88 575.60 Z" />
<path fill="#ba0000" opacity="1.00" d=" M 230.28 295.37 C 232.81 293.67 235.98 295.27 237.12 297.82 C 241.29 305.67 244.62 315.23 240.77 323.89 C 236.79 332.38 229.13 338.23 222.55 344.62 C 218.67 347.85 214.40 351.58 209.03 351.56 C 204.64 351.90 200.37 348.93 198.76 344.91 C 197.26 339.19 199.67 333.37 202.62 328.55 C 207.43 321.09 212.91 314.08 217.67 306.59 C 220.70 301.71 225.26 298.04 230.28 295.37 M 226.16 303.42 C 224.71 302.08 222.09 304.62 223.45 306.09 C 221.31 307.86 220.07 310.43 218.56 312.71 C 214.75 318.47 210.44 323.89 206.85 329.80 C 209.62 334.93 212.33 340.10 215.18 345.18 C 218.76 342.83 221.86 339.88 224.90 336.89 C 230.67 331.28 237.84 325.25 238.14 316.56 L 238.50 316.57 C 238.24 310.21 235.87 304.21 232.93 298.65 C 230.60 300.10 227.77 301.09 226.16 303.42 Z" />
<path fill="#ba0000" opacity="1.00" d=" M 171.34 340.38 C 173.54 337.17 176.73 333.86 180.93 333.96 C 187.05 333.46 192.18 337.82 195.73 342.33 C 200.17 348.41 202.53 356.69 199.83 363.98 C 198.74 367.56 196.66 370.72 195.29 374.18 C 194.06 380.46 196.79 386.94 194.75 393.17 C 193.68 398.45 189.80 402.54 185.65 405.69 C 181.83 408.51 175.91 409.23 172.19 405.87 C 167.46 402.27 166.27 396.11 165.34 390.60 C 161.23 389.89 157.03 389.75 152.95 388.84 C 150.07 388.25 148.64 384.77 149.84 382.16 C 152.76 371.43 162.58 364.71 166.54 354.51 C 168.63 349.97 168.96 344.80 171.34 340.38 M 153.32 384.87 C 158.68 385.66 164.17 385.85 169.43 387.09 C 169.56 387.72 169.80 388.98 169.93 389.61 C 171.35 388.79 172.79 388.00 174.21 387.20 C 170.67 380.68 167.12 374.16 163.67 367.59 C 158.89 372.43 155.20 378.31 153.32 384.87 Z" />
<path fill="#ba0000" opacity="1.00" d=" M 71.52 396.55 C 75.77 392.96 81.71 393.13 86.91 393.73 C 93.86 395.32 97.80 401.89 101.87 407.13 C 105.52 411.64 111.76 411.57 117.03 411.51 C 123.17 411.31 127.84 416.28 130.79 421.13 C 133.88 426.13 133.67 432.20 135.45 437.64 C 136.75 441.15 140.28 442.82 142.88 445.19 C 144.81 447.59 143.09 450.79 142.14 453.24 C 137.70 462.36 129.50 470.14 119.51 472.63 C 114.32 473.94 108.48 472.70 103.77 475.72 C 98.89 479.20 96.73 485.04 94.23 490.24 C 90.67 499.04 86.62 508.48 88.44 518.17 C 90.27 525.90 86.88 534.03 81.56 539.63 C 75.33 545.63 66.37 547.32 58.02 547.47 C 54.83 546.90 53.50 543.56 51.80 541.21 C 48.80 536.47 43.62 532.22 44.44 526.03 C 43.79 519.81 48.75 514.87 49.02 508.86 C 47.63 503.73 43.79 499.67 42.36 494.53 C 40.65 489.86 40.88 484.82 41.06 479.94 C 41.40 474.18 45.23 469.01 44.43 463.13 C 43.29 456.48 38.91 451.13 35.63 445.44 C 32.43 440.52 28.89 435.15 29.46 428.99 C 29.25 424.59 32.52 421.17 35.81 418.75 C 40.08 416.26 45.30 417.68 49.55 419.51 C 53.34 421.22 57.27 422.55 61.25 423.75 C 63.27 420.95 62.86 417.33 63.48 414.10 C 64.22 407.67 65.90 400.50 71.52 396.55 M 70.79 403.38 C 78.22 402.99 85.67 402.96 93.10 402.48 C 87.89 395.45 75.22 395.58 70.79 403.38 M 73.27 421.23 C 71.37 422.37 69.05 421.87 66.95 422.23 C 65.82 424.38 64.80 427.23 61.95 427.47 C 56.59 427.86 51.98 424.53 47.01 423.15 C 43.48 422.93 39.91 422.97 36.40 423.37 C 33.67 425.47 33.23 429.15 33.57 432.35 C 34.58 435.16 35.73 437.93 37.31 440.48 C 40.48 445.59 43.86 450.59 46.56 455.98 C 71.19 442.85 95.77 429.62 120.28 416.27 C 115.97 414.78 111.33 416.11 106.97 414.93 C 103.03 413.98 99.94 411.15 97.31 408.22 C 89.32 412.61 81.27 416.87 73.27 421.23 M 51.66 515.76 C 50.00 519.31 48.11 523.01 48.45 527.06 C 48.40 530.45 50.87 533.07 52.80 535.60 C 54.66 538.04 56.19 540.72 58.06 543.16 C 64.62 543.20 71.64 542.21 77.02 538.14 C 82.84 533.69 85.91 525.77 84.26 518.58 C 83.05 511.16 84.66 503.73 87.10 496.74 C 75.25 503.02 63.51 509.48 51.66 515.76 Z" />
</g>
<g id="#000000ff">
<path fill="#000000" opacity="1.00" d=" M 776.70 84.61 C 789.84 77.58 802.92 70.43 816.09 63.45 C 821.83 73.92 827.54 84.42 832.98 95.04 C 832.56 98.08 830.75 100.84 828.37 102.73 C 823.29 93.05 818.05 83.46 812.92 73.82 C 793.19 84.45 773.43 95.01 753.75 105.74 C 758.50 99.87 764.05 94.74 769.33 89.37 C 771.35 87.18 774.12 85.99 776.70 84.61 Z" />
<path fill="#000000" opacity="1.00" d=" M 834.03 115.56 C 837.49 115.63 841.14 115.36 844.44 116.53 C 853.10 132.21 861.21 148.20 869.84 163.90 C 866.51 163.65 863.29 162.83 860.06 162.12 C 851.89 146.66 843.69 131.23 835.38 115.85 L 834.73 115.71 L 834.03 115.56 Z" />
<path fill="#000000" opacity="1.00" d=" M 704.30 127.33 C 708.02 125.03 712.55 125.30 716.73 125.67 C 710.68 128.78 704.77 132.15 698.74 135.29 C 699.89 132.25 701.31 128.99 704.30 127.33 Z" />
<path fill="#000000" opacity="1.00" d=" M 721.15 127.19 C 722.91 128.65 724.73 130.05 726.58 131.42 C 728.70 129.82 731.00 128.44 733.52 127.53 C 734.69 129.72 735.70 132.03 737.17 134.05 C 739.66 135.10 742.46 135.22 745.12 135.66 C 745.82 139.47 747.24 143.59 745.14 147.22 L 744.96 147.69 C 742.18 149.09 739.20 150.01 736.09 150.16 C 735.97 145.49 737.05 140.55 741.04 137.64 C 736.90 137.66 733.51 134.92 732.62 130.90 C 730.53 131.91 728.42 132.88 726.31 133.85 C 724.55 132.69 722.81 131.51 721.10 130.31 C 719.67 131.58 718.28 132.88 716.93 134.23 C 714.21 134.32 711.50 134.29 708.81 133.95 C 708.02 135.75 707.53 137.70 706.45 139.35 C 704.87 140.83 702.77 141.50 700.79 142.22 C 701.11 144.48 701.84 146.70 701.93 148.99 C 701.10 150.81 697.96 152.06 696.32 150.54 C 696.83 150.28 697.83 149.76 698.34 149.50 C 698.90 149.24 700.04 148.71 700.60 148.44 C 700.00 146.08 699.35 143.74 698.89 141.35 C 700.75 140.40 702.61 139.43 704.49 138.48 C 705.52 136.13 706.56 133.79 707.64 131.47 C 710.67 131.76 713.71 131.89 716.76 131.94 C 718.20 130.34 719.66 128.76 721.15 127.19 M 738.10 149.26 C 740.42 148.35 741.65 145.93 743.94 144.93 C 743.86 142.86 743.76 140.79 743.58 138.73 C 740.51 141.23 737.37 145.04 738.10 149.26 Z" />
<path fill="#000000" opacity="1.00" d=" M 727.47 144.37 C 728.52 143.85 729.15 145.49 730.01 145.90 C 730.77 145.93 732.30 145.99 733.07 146.02 C 731.92 147.62 731.88 151.11 729.14 150.48 C 729.46 149.66 730.10 148.02 730.43 147.21 C 729.64 147.15 728.06 147.05 727.27 147.00 C 727.72 147.53 728.62 148.61 729.07 149.14 C 728.06 149.99 727.10 150.86 726.08 151.68 C 721.42 153.58 717.24 156.44 712.63 158.41 C 711.76 157.84 710.87 157.32 709.97 156.85 C 709.51 157.80 709.36 158.81 709.52 159.88 C 708.42 160.24 707.32 160.59 706.24 160.94 C 707.41 159.13 708.32 157.11 707.33 154.99 C 712.32 156.12 717.34 154.14 721.41 151.34 C 724.08 149.64 725.24 146.52 727.47 144.37 Z" />
<path fill="#000000" opacity="1.00" d=" M 758.74 151.24 L 759.69 151.01 L 760.66 151.19 C 762.09 152.75 763.58 154.25 764.95 155.86 C 766.38 158.74 766.86 162.66 763.92 164.74 C 764.62 164.75 766.04 164.75 766.75 164.76 C 766.86 165.47 767.10 166.90 767.21 167.62 C 768.35 168.21 769.51 168.77 770.60 169.49 C 772.37 171.53 771.54 174.49 770.76 176.77 C 768.93 180.33 764.48 180.15 761.10 180.82 C 761.91 181.54 762.69 182.24 763.54 182.95 C 759.31 183.21 756.43 179.90 754.31 176.73 C 752.87 174.43 749.88 173.64 748.75 171.13 C 753.09 172.94 756.49 176.27 760.53 178.57 C 763.62 179.41 769.40 179.08 769.58 174.85 C 769.45 173.64 770.16 171.70 768.69 171.10 C 766.57 169.96 764.94 168.25 763.99 166.03 C 762.66 168.22 763.06 170.63 763.78 172.93 C 760.48 174.59 759.04 170.83 756.81 169.21 C 754.07 166.75 750.32 165.24 748.65 161.78 C 752.92 162.69 756.47 165.84 761.06 165.31 C 763.45 163.87 765.73 160.93 763.96 158.13 C 762.80 156.64 761.62 153.94 759.41 154.26 C 758.87 155.77 759.62 157.35 759.79 158.87 C 756.11 158.49 752.57 157.38 749.25 155.81 C 749.76 155.49 750.80 154.85 751.32 154.53 C 753.45 154.87 755.46 155.73 757.48 156.50 C 757.83 154.73 757.87 152.86 758.74 151.24 M 755.00 166.30 C 757.84 167.48 759.57 170.11 761.75 172.14 C 761.66 170.16 761.64 168.18 761.86 166.21 C 759.58 166.51 757.27 166.66 755.00 166.30 Z" />
<path fill="#000000" opacity="1.00" d=" M 700.00 172.35 C 700.43 172.40 701.29 172.48 701.72 172.53 C 700.87 174.76 699.85 176.94 698.41 178.85 C 697.75 178.33 696.42 177.30 695.76 176.79 C 695.76 179.39 697.89 180.12 700.05 180.60 C 701.96 178.33 702.94 175.54 704.17 172.89 C 704.69 172.79 705.74 172.58 706.26 172.47 C 704.81 176.57 703.04 180.60 702.45 184.95 L 701.60 184.01 C 701.45 183.31 701.17 181.91 701.03 181.21 C 700.51 181.41 699.47 181.80 698.95 182.00 C 697.35 181.02 695.00 180.76 694.17 178.90 C 694.12 177.19 695.43 175.79 696.04 174.26 C 697.03 175.01 698.03 175.76 699.03 176.52 C 699.27 175.51 699.73 173.50 699.97 172.49 L 700.00 172.35 Z" />
<path fill="#000000" opacity="1.00" d=" M 765.06 182.21 C 766.11 180.76 768.05 180.84 769.66 180.88 C 769.76 182.74 766.29 183.23 765.06 182.21 Z" />
<path fill="#000000" opacity="1.00" d=" M 697.38 192.61 C 695.77 189.43 695.80 184.87 698.72 182.37 C 699.72 183.19 700.77 184.03 701.78 184.87 L 702.89 185.81 C 702.58 186.63 701.95 188.28 701.64 189.11 C 700.91 187.93 700.17 186.75 699.47 185.58 C 696.34 187.71 698.35 192.88 702.10 192.55 C 705.81 192.27 708.67 189.28 711.12 186.72 C 711.04 191.52 711.89 196.34 711.21 201.12 C 711.11 202.63 709.55 203.29 708.24 202.98 C 706.56 201.80 707.05 199.54 706.63 197.81 C 704.17 198.26 704.38 200.75 704.13 202.70 C 704.86 204.02 705.58 205.36 706.31 206.69 C 707.49 207.16 708.69 207.63 709.89 208.11 C 714.92 206.07 715.79 200.22 717.15 195.62 C 719.64 199.04 721.83 202.68 724.42 206.04 C 723.98 207.68 723.55 209.33 723.14 210.98 C 726.44 211.72 730.04 209.44 729.81 205.83 C 731.13 208.15 732.07 210.66 733.32 213.02 C 731.87 215.11 730.30 217.11 728.82 219.18 C 731.76 218.26 735.23 214.35 738.02 217.50 C 732.63 218.08 727.60 221.15 724.73 225.77 C 719.89 233.12 714.13 239.80 709.15 247.05 C 707.62 249.54 705.29 251.32 702.87 252.88 C 701.62 252.41 700.35 251.98 699.11 251.55 C 699.38 250.32 699.64 249.08 699.92 247.85 C 697.76 248.75 695.85 250.07 693.97 251.44 C 690.49 253.50 686.59 254.73 683.01 256.61 C 679.41 255.20 675.92 253.42 672.66 251.38 C 669.43 248.97 672.08 245.22 673.77 242.80 C 675.06 242.80 676.36 242.79 677.67 242.78 C 678.68 240.55 678.62 237.25 681.20 236.14 C 683.20 235.82 685.13 236.75 687.06 237.21 C 687.99 235.27 688.77 232.73 691.22 232.30 C 695.61 230.59 699.92 233.71 702.21 237.28 C 705.68 235.38 708.94 233.08 711.56 230.10 C 711.63 228.59 710.97 226.92 711.63 225.51 C 713.08 223.73 714.83 222.20 716.19 220.34 C 713.32 218.03 713.40 214.50 714.48 211.24 C 713.78 211.23 712.36 211.21 711.66 211.19 C 711.38 210.82 710.82 210.06 710.54 209.68 C 707.01 209.42 703.45 207.35 702.31 203.86 C 701.72 201.22 702.84 198.62 703.83 196.22 C 705.06 195.58 706.30 194.92 707.53 194.25 C 708.06 196.89 708.45 199.57 709.40 202.11 C 710.25 198.71 709.57 195.22 709.26 191.80 C 705.64 193.36 700.75 196.07 697.38 192.61 M 717.71 200.84 C 717.20 202.23 716.79 203.68 716.16 205.03 C 715.18 206.76 712.98 207.78 712.97 209.98 C 715.61 208.27 718.55 207.96 721.39 209.47 C 721.81 206.10 719.48 203.42 717.71 200.84 M 715.38 215.92 C 716.47 220.37 722.23 221.05 725.96 220.09 C 728.45 217.47 731.44 214.52 731.54 210.69 C 728.85 211.67 726.37 214.01 723.35 213.54 C 721.38 212.81 719.80 211.33 717.89 210.48 C 715.61 210.99 714.69 213.88 715.38 215.92 M 712.54 226.05 C 712.20 227.88 713.16 229.64 713.53 231.41 C 714.78 232.30 716.00 233.23 717.22 234.17 C 720.31 230.06 721.90 224.90 726.33 221.88 C 723.89 221.61 721.45 221.19 719.01 221.32 C 716.51 222.30 714.49 224.26 712.54 226.05 M 702.15 239.08 C 699.73 236.48 697.08 233.02 693.06 233.63 C 690.31 233.56 689.70 236.61 688.22 238.28 C 685.84 240.23 682.77 236.23 680.62 238.61 C 679.60 240.50 679.14 242.63 678.54 244.67 C 677.06 244.60 675.15 243.43 674.12 245.02 C 673.34 245.90 672.77 246.90 672.41 248.02 C 672.66 249.59 674.44 250.09 675.52 251.03 C 676.44 248.62 678.48 247.17 681.07 247.03 C 681.42 245.74 681.74 244.43 682.20 243.17 C 683.24 242.71 684.34 242.45 685.45 242.17 C 686.68 242.80 687.93 243.42 689.19 244.02 C 690.97 242.32 692.59 238.44 695.51 239.40 C 696.69 241.03 696.55 243.67 698.83 244.33 C 697.42 247.28 702.19 247.62 702.27 250.60 C 704.84 249.44 706.54 247.15 707.73 244.67 C 711.28 242.59 713.10 238.81 715.51 235.66 C 714.57 234.49 713.51 233.32 711.98 233.00 C 708.26 234.21 705.94 238.00 702.15 239.08 M 692.00 242.20 C 691.19 244.83 690.27 248.16 692.72 250.21 C 693.90 247.59 694.82 244.83 695.05 241.94 C 694.29 242.01 692.76 242.14 692.00 242.20 M 684.04 243.79 C 681.77 246.93 684.43 250.63 686.96 252.65 C 686.92 249.50 688.02 244.91 684.04 243.79 M 677.91 251.88 C 679.43 253.85 681.93 254.50 684.22 255.12 C 683.60 253.18 683.09 250.76 680.94 249.95 C 679.62 248.82 677.77 250.41 677.91 251.88 Z" />
<path fill="#000000" opacity="1.00" d=" M 735.60 222.58 C 737.46 221.37 739.37 223.19 741.14 223.75 C 740.69 224.45 739.79 225.83 739.35 226.53 C 738.71 226.33 737.44 225.93 736.80 225.73 C 734.86 227.63 735.55 229.89 737.49 231.45 C 737.04 232.58 736.61 233.72 736.17 234.86 L 736.34 233.67 C 733.65 232.65 732.76 230.19 732.62 227.50 C 727.96 232.36 724.60 238.20 720.47 243.47 C 717.13 247.99 712.93 251.74 708.36 254.98 C 707.78 254.64 706.64 253.96 706.06 253.62 C 709.54 250.98 713.56 248.76 715.99 245.01 C 717.84 242.31 720.27 240.05 722.03 237.28 C 725.43 231.51 729.91 226.19 735.60 222.58 Z" />
<path fill="#000000" opacity="1.00" d=" M 616.46 238.52 C 618.41 237.35 620.66 236.84 622.82 236.19 C 630.19 250.37 638.02 264.31 645.43 278.47 C 642.69 279.03 639.93 279.49 637.14 279.52 C 630.59 266.95 623.75 254.53 617.03 242.06 C 616.72 240.98 615.22 239.44 616.46 238.52 Z" />
<path fill="#000000" opacity="1.00" d=" M 723.90 252.02 C 727.34 251.27 729.28 247.01 732.92 247.16 C 735.43 248.69 737.92 250.47 741.07 249.90 C 744.20 252.10 746.92 254.82 749.29 257.82 C 751.59 258.32 753.89 258.88 756.17 259.53 C 757.76 258.80 759.45 258.56 761.21 258.55 C 758.72 255.51 756.57 252.22 753.99 249.27 C 755.58 250.38 757.24 251.44 758.64 252.81 C 761.66 257.23 765.15 261.31 768.46 265.53 C 769.43 266.84 770.80 267.76 772.26 268.48 C 770.34 263.52 766.00 260.16 762.84 256.04 C 764.90 257.36 767.05 258.60 768.84 260.31 C 770.20 261.94 771.50 263.64 772.84 265.30 L 773.11 264.00 C 776.34 265.33 778.84 268.05 782.30 268.96 C 778.98 272.08 775.04 274.93 773.26 279.28 C 772.12 281.95 772.64 284.88 773.42 287.57 C 773.67 286.85 774.17 285.40 774.42 284.68 C 774.79 284.68 775.53 284.66 775.90 284.66 C 779.05 280.35 783.46 277.20 786.92 273.16 C 787.17 274.05 787.42 274.94 787.67 275.85 C 786.35 273.32 784.74 276.82 787.15 277.27 C 785.64 279.45 783.96 281.50 782.12 283.40 C 781.18 283.01 780.25 282.62 779.32 282.28 C 779.58 284.52 779.78 286.96 776.95 287.40 C 776.22 288.74 775.52 290.08 774.86 291.45 C 778.98 290.14 781.89 286.82 785.40 284.50 C 783.05 288.11 779.23 290.23 776.19 293.14 C 776.34 296.30 777.42 299.31 778.20 302.35 C 781.93 301.70 784.16 298.34 787.32 296.57 C 785.02 299.76 781.85 302.15 778.49 304.13 C 781.62 305.21 785.27 305.74 787.56 308.38 C 788.70 309.59 789.75 310.90 790.84 312.18 C 792.37 311.30 793.91 310.41 795.46 309.53 C 794.22 310.93 792.99 312.32 791.78 313.72 C 795.05 316.24 799.30 314.11 802.40 312.34 C 807.37 309.30 810.07 303.69 809.95 297.94 C 804.91 301.56 800.88 306.47 795.44 309.54 C 798.86 304.91 803.78 301.81 807.97 297.97 C 810.45 296.01 810.08 292.51 810.87 289.74 C 811.73 287.87 813.90 287.21 815.48 286.08 C 811.72 290.93 812.09 297.34 811.66 303.12 C 811.64 306.87 808.64 309.52 807.27 312.79 C 803.91 315.14 800.43 317.36 796.62 318.89 C 795.50 319.07 794.38 319.09 793.28 318.94 C 791.64 318.05 790.09 316.99 788.58 315.92 C 787.89 317.05 787.22 318.19 786.58 319.35 L 787.51 319.34 L 787.66 319.34 C 786.08 319.61 784.48 319.78 782.90 319.91 C 782.10 319.89 780.48 319.86 779.68 319.84 C 781.74 319.19 783.95 318.89 785.90 317.88 C 788.03 316.81 787.94 314.14 788.49 312.15 C 786.98 310.71 785.55 309.22 784.19 307.66 C 780.25 306.94 775.89 307.18 772.47 309.45 C 770.69 311.46 769.47 313.91 767.51 315.78 C 767.39 319.72 765.58 325.39 769.20 328.15 L 769.68 328.33 C 768.89 329.28 767.84 329.98 766.90 330.77 C 763.34 324.86 760.95 315.89 752.83 315.13 C 752.00 316.50 751.18 317.87 750.35 319.24 C 748.50 319.63 746.64 320.02 744.81 320.42 C 743.91 319.91 743.01 319.41 742.13 318.91 C 738.30 319.91 732.11 320.69 732.34 325.93 C 731.40 330.59 736.50 332.83 737.94 336.70 C 735.77 335.63 733.74 334.34 731.71 333.05 C 734.27 337.39 738.19 340.61 741.78 344.06 C 740.89 344.63 740.02 345.20 739.15 345.78 C 733.96 340.16 729.39 333.77 722.79 329.67 C 725.01 324.10 728.05 318.79 728.89 312.76 L 727.52 313.85 C 729.11 312.17 730.67 310.46 732.13 308.66 C 733.69 311.82 735.61 314.79 737.52 317.75 C 738.99 317.91 740.47 318.07 741.96 318.22 C 740.64 313.33 736.49 309.96 734.32 305.48 L 733.96 304.82 L 734.35 305.30 C 738.75 309.95 740.74 317.78 747.93 318.86 C 749.62 317.03 751.21 315.09 753.12 313.47 C 754.97 313.68 756.77 314.25 758.58 314.74 C 755.69 310.10 753.50 304.95 749.70 300.94 C 750.52 300.09 751.36 299.26 752.23 298.44 C 751.07 298.94 749.87 299.14 748.64 298.95 C 747.84 297.27 747.00 295.61 746.20 293.94 C 746.74 292.47 746.59 290.92 745.85 289.55 C 745.19 289.81 744.46 290.97 743.78 290.23 C 738.51 282.68 734.82 274.08 729.07 266.87 C 729.70 266.13 730.34 265.39 730.99 264.66 C 729.41 262.50 727.66 260.43 726.55 257.98 C 726.15 256.38 728.43 255.69 729.39 256.71 C 731.46 258.40 733.11 260.55 734.92 262.51 C 736.01 261.84 737.10 261.17 738.20 260.51 C 743.63 263.15 748.72 266.43 754.19 268.99 C 751.71 265.46 748.93 262.11 747.18 258.13 C 745.45 254.17 741.66 250.50 737.01 251.23 C 735.40 250.18 734.05 248.46 732.09 248.13 C 728.41 249.85 725.84 253.70 721.37 253.64 C 720.43 255.22 719.54 256.83 718.57 258.39 C 718.05 258.45 717.00 258.56 716.47 258.61 C 716.15 258.61 715.51 258.62 715.19 258.62 C 718.97 257.37 719.71 252.38 723.90 252.02 M 749.16 260.99 C 750.75 263.96 753.47 266.18 754.86 269.30 C 758.18 271.76 761.68 273.99 765.48 275.64 C 764.66 273.81 763.75 272.02 762.58 270.39 C 759.91 266.68 757.92 262.29 753.87 259.83 C 752.35 260.11 749.12 258.42 749.16 260.99 M 757.54 259.42 C 757.66 265.84 764.78 269.61 765.75 275.89 C 767.61 276.78 769.50 277.60 771.45 278.33 C 770.50 276.16 769.48 274.02 768.43 271.90 C 768.66 271.19 769.11 269.77 769.33 269.06 C 766.98 265.93 764.72 262.73 762.28 259.67 C 760.69 259.59 759.11 259.51 757.54 259.42 M 737.86 265.81 C 746.74 275.69 755.81 285.41 765.36 294.66 C 769.29 298.09 772.41 302.49 776.86 305.30 C 775.05 299.73 775.18 293.31 771.70 288.42 C 766.56 284.19 760.74 280.84 755.52 276.71 C 749.72 272.95 744.33 268.38 737.86 265.81 M 776.07 268.02 C 775.63 269.66 776.21 270.25 777.81 269.79 C 778.23 268.14 777.65 267.55 776.07 268.02 M 774.30 270.23 C 774.81 270.76 774.81 270.76 774.30 270.23 M 771.99 271.37 C 770.88 272.34 772.18 274.78 773.60 273.92 C 774.59 272.95 773.33 270.63 771.99 271.37 M 758.33 273.25 C 758.82 273.78 758.82 273.78 758.33 273.25 M 740.09 275.53 C 744.05 280.14 747.44 285.18 751.26 289.91 C 755.99 295.86 760.65 301.91 764.57 308.44 C 765.44 309.96 766.91 310.96 768.30 311.99 C 769.21 310.67 770.64 309.59 771.05 307.99 C 767.74 302.75 762.50 299.12 758.71 294.25 C 756.13 290.86 752.60 288.37 750.05 284.97 C 747.27 281.30 743.29 278.79 740.52 275.10 L 740.09 275.53 M 762.24 276.23 C 762.78 276.77 762.78 276.77 762.24 276.23 M 760.16 277.36 C 758.70 280.39 763.48 277.43 760.16 277.36 M 764.09 277.03 C 763.93 278.18 763.34 279.06 762.33 279.66 C 763.75 280.44 765.19 281.19 766.62 281.97 C 767.18 280.98 767.75 279.99 768.34 279.01 C 767.86 278.71 766.89 278.11 766.40 277.81 L 766.57 281.07 C 765.64 279.87 763.02 278.76 764.86 276.90 L 764.09 277.03 M 783.91 277.97 C 782.40 281.00 787.22 278.11 783.91 277.97 M 771.23 284.06 L 769.51 283.30 C 770.87 282.02 771.43 280.60 769.84 279.12 C 769.32 280.99 767.17 285.32 771.23 284.06 M 781.16 280.18 C 780.75 281.54 781.26 282.08 782.69 281.79 C 783.07 280.41 782.56 279.88 781.16 280.18 M 743.29 282.23 C 743.80 282.75 743.80 282.75 743.29 282.23 M 777.08 284.31 C 776.63 285.68 777.11 286.20 778.53 285.87 C 778.96 284.48 778.47 283.96 777.08 284.31 M 744.29 287.24 C 744.82 287.73 744.82 287.73 744.29 287.24 M 775.24 287.48 C 775.74 288.01 775.74 288.01 775.24 287.48 M 747.19 288.18 C 746.70 289.46 748.27 291.54 749.69 290.88 C 750.23 289.60 748.42 287.92 747.19 288.18 M 750.25 292.26 C 750.83 292.78 750.83 292.78 750.25 292.26 M 748.24 294.27 C 748.78 294.83 748.78 294.83 748.24 294.27 M 749.23 296.35 C 749.75 296.83 749.75 296.83 749.23 296.35 M 753.22 296.22 C 753.78 296.81 753.78 296.81 753.22 296.22 M 755.21 298.22 C 753.83 298.86 753.79 299.53 755.09 300.21 C 756.45 299.56 756.49 298.90 755.21 298.22 M 752.06 300.98 C 752.27 304.30 755.01 299.34 752.06 300.98 M 756.34 301.20 C 756.86 301.74 756.86 301.74 756.34 301.20 M 758.34 302.26 C 757.04 302.31 756.77 304.67 758.20 304.73 C 759.60 304.74 759.87 302.23 758.34 302.26 M 753.25 303.11 C 753.29 306.42 756.29 301.66 753.25 303.11 M 755.15 305.37 C 754.69 306.84 755.16 307.26 756.54 306.63 C 756.98 305.16 756.52 304.74 755.15 305.37 M 760.23 305.03 C 758.95 305.77 758.96 306.47 760.25 307.11 C 761.53 306.37 761.52 305.68 760.23 305.03 M 757.06 307.37 C 755.43 310.36 760.34 307.61 757.06 307.37 M 761.42 308.07 C 761.47 311.37 764.47 306.63 761.42 308.07 M 759.19 310.11 C 757.79 310.79 757.73 311.46 758.99 312.13 C 760.36 311.45 760.43 310.77 759.19 310.11 M 763.29 310.49 C 763.81 311.12 763.81 311.12 763.29 310.49 M 764.36 312.15 C 763.72 313.52 764.14 313.97 765.62 313.50 C 766.26 312.12 765.84 311.67 764.36 312.15 M 759.30 313.08 C 759.55 316.38 762.25 311.44 759.30 313.08 M 762.11 314.18 C 760.74 314.85 760.71 315.52 762.00 316.19 C 763.34 315.52 763.38 314.84 762.11 314.18 M 763.19 317.10 C 762.61 318.72 763.14 319.25 764.79 318.70 C 765.37 317.07 764.83 316.53 763.19 317.10 Z" />
<path fill="#000000" opacity="1.00" d=" M 858.20 255.95 C 859.72 254.86 861.29 253.84 862.88 252.84 C 865.69 256.60 866.78 261.31 866.21 265.95 C 866.79 265.41 867.94 264.32 868.52 263.77 C 868.37 264.78 868.07 266.79 867.91 267.79 C 867.09 268.84 866.76 270.15 866.95 271.47 C 866.90 273.08 866.43 274.58 865.51 275.98 C 864.37 269.10 861.55 262.22 863.08 255.16 C 861.44 255.42 859.81 255.65 858.20 255.95 Z" />
<path fill="#000000" opacity="1.00" d=" M 856.27 257.25 L 856.68 257.29 C 857.99 257.41 859.31 257.54 860.64 257.67 C 860.97 264.66 862.50 271.50 863.88 278.34 L 863.94 278.65 C 863.38 279.48 862.83 280.32 862.30 281.17 C 860.95 274.60 859.80 267.94 857.16 261.74 C 855.11 263.02 853.49 264.81 852.47 267.01 C 853.93 268.95 855.67 270.81 856.47 273.17 C 856.77 275.13 856.42 277.13 856.21 279.09 C 854.68 281.55 852.63 283.59 850.50 285.51 C 849.47 285.50 848.46 285.49 847.46 285.48 C 846.78 284.82 846.10 284.16 845.44 283.50 C 845.40 282.47 845.37 281.45 845.36 280.42 C 845.87 281.73 846.38 283.04 846.90 284.35 C 847.73 284.40 849.40 284.50 850.23 284.54 C 851.63 283.20 853.03 281.86 854.41 280.48 C 854.60 278.96 854.92 277.46 855.47 276.03 C 855.59 273.36 855.08 269.71 852.02 268.93 C 849.32 268.48 847.91 266.22 846.70 264.02 C 849.92 261.82 853.21 259.69 856.27 257.25 Z" />
<path fill="#000000" opacity="1.00" d=" M 786.69 283.40 C 789.35 279.63 792.93 276.59 796.55 273.78 C 794.30 277.78 790.50 280.90 786.69 283.40 Z" />
<path fill="#000000" opacity="1.00" d=" M 822.59 281.05 C 825.32 279.22 828.18 277.57 830.68 275.40 C 829.64 280.06 832.11 284.70 830.87 289.25 C 834.16 289.74 836.82 291.69 838.56 294.49 C 838.50 297.54 837.86 300.56 836.43 303.28 C 836.21 303.51 835.76 303.99 835.54 304.23 C 837.14 300.26 838.69 295.74 836.22 291.76 C 834.21 291.10 832.21 289.94 830.04 290.16 C 827.89 290.60 825.86 291.43 823.80 292.10 C 824.14 291.59 824.83 290.56 825.18 290.04 C 827.58 289.69 829.57 288.41 830.69 286.22 C 828.69 283.54 826.53 280.07 822.59 281.05 Z" />
<path fill="#000000" opacity="1.00" d=" M 796.16 288.18 C 798.85 285.90 801.20 283.16 804.34 281.46 C 802.73 284.42 799.86 286.29 797.45 288.52 C 794.62 290.88 792.06 293.64 788.78 295.38 C 790.64 292.42 793.59 290.46 796.16 288.18 Z" />
<path fill="#000000" opacity="1.00" d=" M 718.38 320.67 C 721.57 319.17 724.12 316.72 726.82 314.51 C 724.13 319.55 722.60 325.10 720.40 330.36 C 727.10 334.68 731.67 341.41 737.27 346.96 C 736.78 347.28 735.78 347.93 735.29 348.25 C 732.00 344.77 728.77 341.24 725.29 337.96 C 726.01 340.54 728.08 343.63 725.22 345.69 C 723.09 343.79 720.72 342.20 718.28 340.73 C 719.15 342.80 719.96 344.94 719.74 347.25 C 718.28 347.39 716.86 347.61 715.45 347.92 C 715.62 349.85 715.46 352.07 713.29 352.76 C 712.88 355.09 711.47 356.63 709.05 357.01 C 708.21 354.06 708.40 350.99 708.15 347.98 C 706.91 344.95 704.76 342.38 703.60 339.32 C 703.81 338.88 704.23 338.02 704.44 337.59 C 705.62 340.87 707.68 343.67 709.49 346.62 C 710.23 348.96 709.96 351.50 710.30 353.93 C 711.93 352.74 711.57 350.64 711.81 348.90 C 712.39 349.10 713.56 349.49 714.15 349.69 C 712.38 345.45 709.12 342.15 706.96 338.15 C 709.29 340.16 711.46 342.34 713.63 344.54 C 713.89 344.60 714.42 344.72 714.69 344.78 C 714.23 343.74 713.32 341.65 712.86 340.61 C 715.01 341.76 716.67 343.56 718.30 345.33 C 717.01 339.14 709.92 337.13 707.80 331.50 C 709.79 332.58 711.46 334.13 713.42 335.28 C 717.82 337.01 720.90 340.78 725.03 342.99 C 723.72 339.84 722.11 336.71 719.59 334.36 C 717.00 332.65 714.25 331.17 711.97 329.03 C 713.86 329.76 715.73 330.53 717.67 331.17 C 716.19 329.28 714.48 327.57 713.16 325.56 C 714.69 326.00 716.25 326.49 717.77 327.00 C 716.71 325.79 715.67 324.52 714.71 323.24 C 716.58 323.53 718.45 323.82 720.34 324.11 C 719.88 322.84 719.23 321.70 718.38 320.67 Z" />
<path fill="#000000" opacity="1.00" d=" M 675.10 349.30 C 678.18 349.63 681.26 350.07 684.32 350.60 C 690.98 362.55 697.11 374.81 703.99 386.64 C 704.92 388.40 705.89 390.15 706.88 391.89 C 705.07 393.63 703.47 395.74 701.15 396.83 C 698.37 394.07 697.07 390.26 695.12 386.95 C 688.51 374.36 681.37 362.05 675.10 349.30 Z" />
</g>
<g id="#f7f7f7ff">
<path fill="#f7f7f7" opacity="1.00" d=" M 753.75 105.74 C 773.43 95.01 793.19 84.45 812.92 73.82 C 818.05 83.46 823.29 93.05 828.37 102.73 L 828.47 102.92 C 818.77 108.05 808.32 102.16 799.02 99.06 C 795.29 97.19 791.49 102.28 793.53 105.58 C 795.65 109.57 800.03 111.42 803.65 113.76 C 799.84 123.45 790.21 129.37 780.88 132.90 C 774.15 135.65 766.81 133.88 759.83 134.72 C 753.54 136.97 750.29 143.36 745.14 147.22 C 747.24 143.59 745.82 139.47 745.12 135.66 C 742.46 135.22 739.66 135.10 737.17 134.05 C 735.70 132.03 734.69 129.72 733.52 127.53 C 731.00 128.44 728.70 129.82 726.58 131.42 C 724.73 130.05 722.91 128.65 721.15 127.19 C 719.66 128.76 718.20 130.34 716.76 131.94 C 713.71 131.89 710.67 131.76 707.64 131.47 C 706.56 133.79 705.52 136.13 704.49 138.48 C 702.61 139.43 700.75 140.40 698.89 141.35 C 699.35 143.74 700.00 146.08 700.60 148.44 C 700.04 148.71 698.90 149.24 698.34 149.50 L 697.55 149.87 C 697.22 144.97 697.60 140.07 698.74 135.29 C 704.77 132.15 710.68 128.78 716.73 125.67 C 722.70 125.18 728.99 125.26 734.45 122.40 C 742.13 118.44 747.35 111.28 753.75 105.74 Z" />
<path fill="#f7f7f7" opacity="1.00" d=" M 823.89 122.99 C 825.88 118.83 830.25 116.29 834.73 115.71 L 835.38 115.85 C 843.69 131.23 851.89 146.66 860.06 162.12 C 857.19 161.69 854.33 161.26 851.45 161.01 C 851.49 169.40 852.26 178.36 848.22 186.05 C 845.48 191.39 839.12 195.57 833.01 193.82 C 831.25 193.36 830.24 191.78 829.39 190.32 C 830.38 188.85 830.79 187.16 830.92 185.42 C 830.55 184.87 829.80 183.76 829.42 183.21 C 830.23 179.95 831.39 176.33 829.91 173.09 C 827.52 167.23 821.86 163.19 815.82 161.76 C 810.15 160.82 804.26 161.69 799.02 164.00 C 790.45 167.58 783.47 173.86 775.67 178.75 C 773.81 179.79 771.94 181.29 769.66 180.88 C 768.05 180.84 766.11 180.76 765.06 182.21 C 764.68 182.40 763.92 182.76 763.54 182.95 C 762.69 182.24 761.91 181.54 761.10 180.82 C 764.48 180.15 768.93 180.33 770.76 176.77 C 771.54 174.49 772.37 171.53 770.60 169.49 C 769.51 168.77 768.35 168.21 767.21 167.62 C 767.10 166.90 766.86 165.47 766.75 164.76 C 766.04 164.75 764.62 164.75 763.92 164.74 C 766.86 162.66 766.38 158.74 764.95 155.86 C 763.58 154.25 762.09 152.75 760.66 151.19 C 765.16 149.21 770.22 148.77 774.98 147.54 C 781.59 146.32 787.50 142.76 794.18 141.78 C 801.66 140.17 810.17 140.47 816.37 135.33 C 820.32 132.25 821.73 127.29 823.89 122.99 Z" />
<path fill="#f7f7f7" opacity="1.00" d=" M 727.27 147.00 C 728.06 147.05 729.64 147.15 730.43 147.21 C 730.10 148.02 729.46 149.66 729.14 150.48 C 728.16 150.99 727.10 151.32 726.08 151.68 C 727.10 150.86 728.06 149.99 729.07 149.14 C 728.62 148.61 727.72 147.53 727.27 147.00 Z" />
<path fill="#f7f7f7" opacity="1.00" d=" M 757.77 151.16 C 758.01 151.18 758.50 151.22 758.74 151.24 C 757.87 152.86 757.83 154.73 757.48 156.50 C 755.46 155.73 753.45 154.87 751.32 154.53 C 753.48 153.45 755.89 152.76 757.77 151.16 Z" />
<path fill="#f7f7f7" opacity="1.00" d=" M 709.97 156.85 C 710.87 157.32 711.76 157.84 712.63 158.41 L 712.66 158.90 C 711.96 159.68 710.50 160.57 709.52 159.88 C 709.36 158.81 709.51 157.80 709.97 156.85 Z" />
<path fill="#f7f7f7" opacity="1.00" d=" M 755.00 166.30 C 757.27 166.66 759.58 166.51 761.86 166.21 C 761.64 168.18 761.66 170.16 761.75 172.14 C 759.57 170.11 757.84 167.48 755.00 166.30 Z" />
<path fill="#f7f7f7" opacity="1.00" d=" M 685.38 173.29 C 690.24 173.06 695.09 172.45 699.97 172.49 C 699.73 173.50 699.27 175.51 699.03 176.52 C 698.03 175.76 697.03 175.01 696.04 174.26 C 695.43 175.79 694.12 177.19 694.17 178.90 C 695.00 180.76 697.35 181.02 698.95 182.00 C 699.47 181.80 700.51 181.41 701.03 181.21 C 701.17 181.91 701.45 183.31 701.60 184.01 L 701.78 184.87 C 700.77 184.03 699.72 183.19 698.72 182.37 C 695.80 184.87 695.77 189.43 697.38 192.61 C 700.75 196.07 705.64 193.36 709.26 191.80 C 709.57 195.22 710.25 198.71 709.40 202.11 C 708.45 199.57 708.06 196.89 707.53 194.25 C 706.30 194.92 705.06 195.58 703.83 196.22 C 702.84 198.62 701.72 201.22 702.31 203.86 C 703.45 207.35 707.01 209.42 710.54 209.68 C 710.82 210.06 711.38 210.82 711.66 211.19 C 712.36 211.21 713.78 211.23 714.48 211.24 C 713.40 214.50 713.32 218.03 716.19 220.34 C 714.83 222.20 713.08 223.73 711.63 225.51 C 710.97 226.92 711.63 228.59 711.56 230.10 C 708.94 233.08 705.68 235.38 702.21 237.28 C 699.92 233.71 695.61 230.59 691.22 232.30 C 688.77 232.73 687.99 235.27 687.06 237.21 C 685.13 236.75 683.20 235.82 681.20 236.14 C 678.62 237.25 678.68 240.55 677.67 242.78 C 676.36 242.79 675.06 242.80 673.77 242.80 C 672.08 245.22 669.43 248.97 672.66 251.38 C 675.92 253.42 679.41 255.20 683.01 256.61 C 676.91 259.27 670.66 261.66 664.77 264.75 C 658.65 269.69 653.98 277.53 645.43 278.47 C 638.02 264.31 630.19 250.37 622.82 236.19 C 629.55 235.43 636.32 235.14 643.02 234.18 C 647.34 233.60 651.54 231.76 654.57 228.58 C 658.78 224.14 662.09 218.78 667.22 215.27 C 674.40 209.80 683.72 205.85 687.44 197.03 C 690.34 189.20 686.45 181.10 685.38 173.29 Z" />
<path fill="#f7f7f7" opacity="1.00" d=" M 206.85 329.80 C 210.44 323.89 214.75 318.47 218.56 312.71 C 221.58 318.15 224.34 323.73 227.52 329.09 C 231.14 324.17 234.54 319.09 238.26 314.26 C 238.23 314.83 238.17 315.99 238.14 316.56 C 237.84 325.25 230.67 331.28 224.90 336.89 C 221.86 339.88 218.76 342.83 215.18 345.18 C 212.33 340.10 209.62 334.93 206.85 329.80 Z" />
<path fill="#f7f7f7" opacity="1.00" d=" M 725.22 345.69 C 728.08 343.63 726.01 340.54 725.29 337.96 C 728.77 341.24 732.00 344.77 735.29 348.25 C 727.75 353.94 718.85 358.58 713.58 366.67 C 712.10 365.05 710.62 363.44 709.07 361.91 C 710.10 364.34 711.21 366.74 712.36 369.13 C 712.31 369.48 712.21 370.18 712.16 370.52 C 712.06 371.23 711.85 372.65 711.75 373.36 C 708.11 369.55 704.69 365.52 700.59 362.20 C 702.80 367.13 705.23 372.06 709.02 375.99 C 710.39 377.21 709.80 378.34 707.98 378.41 C 703.85 374.60 701.75 369.21 698.25 364.89 C 698.08 372.67 703.11 379.08 703.99 386.64 C 697.11 374.81 690.98 362.55 684.32 350.60 C 687.61 350.78 691.22 351.05 694.17 349.25 C 698.24 346.92 700.48 342.64 703.60 339.32 C 704.76 342.38 706.91 344.95 708.15 347.98 C 708.40 350.99 708.21 354.06 709.05 357.01 C 711.47 356.63 712.88 355.09 713.29 352.76 C 715.46 352.07 715.62 349.85 715.45 347.92 C 716.86 347.61 718.28 347.39 719.74 347.25 C 719.96 344.94 719.15 342.80 718.28 340.73 C 720.72 342.20 723.09 343.79 725.22 345.69 Z" />
<path fill="#f7f7f7" opacity="1.00" d=" M 153.32 384.87 C 155.20 378.31 158.89 372.43 163.67 367.59 C 167.12 374.16 170.67 380.68 174.21 387.20 C 172.79 388.00 171.35 388.79 169.93 389.61 C 169.80 388.98 169.56 387.72 169.43 387.09 C 164.17 385.85 158.68 385.66 153.32 384.87 Z" />
<path fill="#f7f7f7" opacity="1.00" d=" M 70.79 403.38 C 75.22 395.58 87.89 395.45 93.10 402.48 C 85.67 402.96 78.22 402.99 70.79 403.38 Z" />
<path fill="#f7f7f7" opacity="1.00" d=" M 291.31 399.63 C 296.09 398.14 301.14 397.59 306.12 398.08 C 312.15 398.71 316.99 402.96 322.94 403.93 C 333.93 406.05 344.90 402.39 355.92 402.73 C 370.74 403.80 382.31 414.35 396.02 418.80 L 395.53 418.79 C 361.12 419.72 326.72 421.31 292.32 422.52 C 294.38 420.08 296.76 417.24 295.96 413.79 C 295.00 408.90 292.99 404.29 291.31 399.63 Z" />
<path fill="#f7f7f7" opacity="1.00" d=" M 73.27 421.23 C 81.27 416.87 89.32 412.61 97.31 408.22 C 99.94 411.15 103.03 413.98 106.97 414.93 C 111.33 416.11 115.97 414.78 120.28 416.27 C 95.77 429.62 71.19 442.85 46.56 455.98 C 43.86 450.59 40.48 445.59 37.31 440.48 C 42.62 437.60 48.02 434.89 53.19 431.76 C 46.64 431.67 40.11 432.25 33.57 432.35 C 33.23 429.15 33.67 425.47 36.40 423.37 C 39.91 422.97 43.48 422.93 47.01 423.15 C 51.98 424.53 56.59 427.86 61.95 427.47 C 64.80 427.23 65.82 424.38 66.95 422.23 C 69.05 421.87 71.37 422.37 73.27 421.23 Z" />
<path fill="#f7f7f7" opacity="1.00" d=" M 441.89 416.91 C 453.02 414.96 464.22 413.26 475.42 411.59 C 472.88 413.19 470.35 414.89 467.52 415.93 C 458.98 416.41 450.42 416.43 441.89 416.91 Z" />
<path fill="#f7f7f7" opacity="1.00" d=" M 51.66 515.76 C 63.51 509.48 75.25 503.02 87.10 496.74 C 84.66 503.73 83.05 511.16 84.26 518.58 C 73.78 524.27 63.23 529.81 52.80 535.60 C 50.87 533.07 48.40 530.45 48.45 527.06 C 48.11 523.01 50.00 519.31 51.66 515.76 Z" />
<path fill="#f7f7f7" opacity="1.00" d=" M 4.21 541.30 C 13.80 536.36 23.12 530.88 32.82 526.16 C 31.07 533.82 28.48 541.30 27.56 549.15 C 21.37 552.45 15.20 555.80 9.02 559.12 C 6.70 553.42 3.84 547.64 4.21 541.30 Z" />
<path fill="#f7f7f7" opacity="1.00" d=" M 29.71 606.37 C 40.90 591.05 51.73 575.47 62.87 560.12 L 63.60 560.51 C 71.09 565.38 79.19 569.30 87.63 572.24 C 71.65 594.27 56.00 616.54 40.11 638.62 C 38.75 632.75 37.93 626.73 35.88 621.05 C 33.85 616.14 31.85 611.23 29.71 606.37 Z" />
<path fill="#f7f7f7" opacity="1.00" d=" M 107.38 576.48 C 111.24 576.62 115.12 576.52 118.88 575.60 C 113.32 583.14 107.99 590.84 102.51 598.44 C 100.23 598.63 97.96 598.88 95.68 599.11 C 96.22 601.35 96.80 603.59 97.44 605.82 C 93.79 610.88 90.21 616.00 86.55 621.06 C 80.95 624.76 74.77 627.56 68.90 630.81 C 81.29 612.42 94.59 594.61 107.38 576.48 Z" />
</g>
<g id="#900000ff">
<path fill="#900000" opacity="1.00" d=" M 738.10 149.26 C 737.37 145.04 740.51 141.23 743.58 138.73 C 743.76 140.79 743.86 142.86 743.94 144.93 C 741.65 145.93 740.42 148.35 738.10 149.26 Z" />
</g>
<g id="#c60000ff">
<path fill="#c60000" opacity="1.00" d=" M 717.71 200.84 C 719.48 203.42 721.81 206.10 721.39 209.47 C 718.55 207.96 715.61 208.27 712.97 209.98 C 712.98 207.78 715.18 206.76 716.16 205.03 C 716.79 203.68 717.20 202.23 717.71 200.84 Z" />
<path fill="#c60000" opacity="1.00" d=" M 715.38 215.92 C 714.69 213.88 715.61 210.99 717.89 210.48 C 719.80 211.33 721.38 212.81 723.35 213.54 C 726.37 214.01 728.85 211.67 731.54 210.69 C 731.44 214.52 728.45 217.47 725.96 220.09 C 722.23 221.05 716.47 220.37 715.38 215.92 Z" />
<path fill="#c60000" opacity="1.00" d=" M 712.54 226.05 C 714.49 224.26 716.51 222.30 719.01 221.32 C 721.45 221.19 723.89 221.61 726.33 221.88 C 721.90 224.90 720.31 230.06 717.22 234.17 C 716.00 233.23 714.78 232.30 713.53 231.41 C 713.16 229.64 712.20 227.88 712.54 226.05 Z" />
<path fill="#c60000" opacity="1.00" d=" M 702.15 239.08 C 705.94 238.00 708.26 234.21 711.98 233.00 C 713.51 233.32 714.57 234.49 715.51 235.66 C 713.10 238.81 711.28 242.59 707.73 244.67 C 706.54 247.15 704.84 249.44 702.27 250.60 C 702.19 247.62 697.42 247.28 698.83 244.33 C 696.55 243.67 696.69 241.03 695.51 239.40 C 692.59 238.44 690.97 242.32 689.19 244.02 C 687.93 243.42 686.68 242.80 685.45 242.17 C 684.34 242.45 683.24 242.71 682.20 243.17 C 681.74 244.43 681.42 245.74 681.07 247.03 C 678.48 247.17 676.44 248.62 675.52 251.03 C 674.44 250.09 672.66 249.59 672.41 248.02 C 672.77 246.90 673.34 245.90 674.12 245.02 C 675.15 243.43 677.06 244.60 678.54 244.67 C 679.14 242.63 679.60 240.50 680.62 238.61 C 682.77 236.23 685.84 240.23 688.22 238.28 C 689.70 236.61 690.31 233.56 693.06 233.63 C 697.08 233.02 699.73 236.48 702.15 239.08 Z" />
</g>
<g id="#d1c922ff">
<path fill="#d1c922" opacity="1.00" d=" M 724.73 225.77 C 727.60 221.15 732.63 218.08 738.02 217.50 C 739.20 219.50 741.94 221.11 741.14 223.75 C 739.37 223.19 737.46 221.37 735.60 222.58 C 729.91 226.19 725.43 231.51 722.03 237.28 C 720.27 240.05 717.84 242.31 715.99 245.01 C 713.56 248.76 709.54 250.98 706.06 253.62 C 704.98 253.83 703.91 253.06 702.87 252.88 C 705.29 251.32 707.62 249.54 709.15 247.05 C 714.13 239.80 719.89 233.12 724.73 225.77 Z" />
<path fill="#d1c922" opacity="1.00" d=" M 737.49 231.45 C 735.55 229.89 734.86 227.63 736.80 225.73 C 737.44 225.93 738.71 226.33 739.35 226.53 C 738.74 228.17 738.14 229.82 737.49 231.45 Z" />
<path fill="#d1c922" opacity="1.00" d=" M 858.20 255.95 C 859.81 255.65 861.44 255.42 863.08 255.16 C 861.55 262.22 864.37 269.10 865.51 275.98 C 865.35 276.97 864.38 277.56 863.88 278.34 C 862.50 271.50 860.97 264.66 860.64 257.67 C 859.31 257.54 857.99 257.41 856.68 257.29 C 857.06 256.95 857.82 256.29 858.20 255.95 Z" />
<path fill="#d1c922" opacity="1.00" d=" M 727.52 313.85 L 728.89 312.76 C 728.05 318.79 725.01 324.10 722.79 329.67 C 729.39 333.77 733.96 340.16 739.15 345.78 C 738.68 346.08 737.74 346.66 737.27 346.96 C 731.67 341.41 727.10 334.68 720.40 330.36 C 722.60 325.10 724.13 319.55 726.82 314.51 L 727.52 313.85 Z" />
</g>
<g id="#3d9cc2ff">
<path fill="#3d9cc2" opacity="1.00" d=" M 720.47 243.47 C 724.60 238.20 727.96 232.36 732.62 227.50 C 732.76 230.19 733.65 232.65 736.34 233.67 L 736.17 234.86 L 736.05 235.83 C 741.88 240.49 748.00 244.80 753.99 249.27 C 756.57 252.22 758.72 255.51 761.21 258.55 C 759.45 258.56 757.76 258.80 756.17 259.53 C 753.89 258.88 751.59 258.32 749.29 257.82 C 746.92 254.82 744.20 252.10 741.07 249.90 C 737.92 250.47 735.43 248.69 732.92 247.16 C 729.28 247.01 727.34 251.27 723.90 252.02 C 719.71 252.38 718.97 257.37 715.19 258.62 C 713.04 257.16 710.71 256.03 708.36 254.98 C 712.93 251.74 717.13 247.99 720.47 243.47 Z" />
<path fill="#3d9cc2" opacity="1.00" d=" M 768.84 260.31 C 770.35 261.42 771.81 262.63 773.11 264.00 L 772.84 265.30 C 771.50 263.64 770.20 261.94 768.84 260.31 Z" />
</g>
<g id="#2e2e8dff">
<path fill="#2e2e8d" opacity="1.00" d=" M 692.00 242.20 C 692.76 242.14 694.29 242.01 695.05 241.94 C 694.82 244.83 693.90 247.59 692.72 250.21 C 690.27 248.16 691.19 244.83 692.00 242.20 Z" />
<path fill="#2e2e8d" opacity="1.00" d=" M 684.04 243.79 C 688.02 244.91 686.92 249.50 686.96 252.65 C 684.43 250.63 681.77 246.93 684.04 243.79 Z" />
<path fill="#2e2e8d" opacity="1.00" d=" M 693.97 251.44 C 695.85 250.07 697.76 248.75 699.92 247.85 C 699.64 249.08 699.38 250.32 699.11 251.55 C 697.39 251.53 695.67 251.50 693.97 251.44 Z" />
</g>
<g id="#d9ba35ff">
<path fill="#d9ba35" opacity="1.00" d=" M 721.37 253.64 C 725.84 253.70 728.41 249.85 732.09 248.13 C 734.05 248.46 735.40 250.18 737.01 251.23 C 741.66 250.50 745.45 254.17 747.18 258.13 C 748.93 262.11 751.71 265.46 754.19 268.99 C 748.72 266.43 743.63 263.15 738.20 260.51 C 737.10 261.17 736.01 261.84 734.92 262.51 C 733.11 260.55 731.46 258.40 729.39 256.71 C 728.43 255.69 726.15 256.38 726.55 257.98 C 727.66 260.43 729.41 262.50 730.99 264.66 C 730.34 265.39 729.70 266.13 729.07 266.87 C 734.82 274.08 738.51 282.68 743.78 290.23 C 744.46 290.97 745.19 289.81 745.85 289.55 C 746.59 290.92 746.74 292.47 746.20 293.94 C 747.00 295.61 747.84 297.27 748.64 298.95 C 749.87 299.14 751.07 298.94 752.23 298.44 C 751.36 299.26 750.52 300.09 749.70 300.94 C 753.50 304.95 755.69 310.10 758.58 314.74 C 756.77 314.25 754.97 313.68 753.12 313.47 C 751.21 315.09 749.62 317.03 747.93 318.86 C 740.74 317.78 738.75 309.95 734.35 305.30 C 735.77 303.39 737.46 301.70 739.34 300.25 L 739.90 301.27 C 742.96 306.54 745.61 312.07 749.08 317.10 C 747.20 312.12 744.02 307.73 742.55 302.59 C 744.62 304.04 746.56 305.65 748.52 307.25 C 746.98 304.29 745.20 301.47 743.24 298.78 C 744.52 298.27 745.81 297.77 747.11 297.27 C 744.33 292.61 739.28 290.14 735.98 285.98 C 735.70 285.02 735.16 284.26 734.36 283.69 C 731.30 278.48 729.31 272.72 726.47 267.40 C 724.22 263.38 719.71 261.64 716.47 258.61 C 717.00 258.56 718.05 258.45 718.57 258.39 C 719.54 256.83 720.43 255.22 721.37 253.64 Z" />
<path fill="#d9ba35" opacity="1.00" d=" M 749.16 260.99 C 749.12 258.42 752.35 260.11 753.87 259.83 C 757.92 262.29 759.91 266.68 762.58 270.39 C 763.75 272.02 764.66 273.81 765.48 275.64 C 761.68 273.99 758.18 271.76 754.86 269.30 C 753.47 266.18 750.75 263.96 749.16 260.99 Z" />
<path fill="#d9ba35" opacity="1.00" d=" M 757.54 259.42 C 759.11 259.51 760.69 259.59 762.28 259.67 C 764.72 262.73 766.98 265.93 769.33 269.06 C 769.11 269.77 768.66 271.19 768.43 271.90 C 769.48 274.02 770.50 276.16 771.45 278.33 C 769.50 277.60 767.61 276.78 765.75 275.89 C 764.78 269.61 757.66 265.84 757.54 259.42 Z" />
<path fill="#d9ba35" opacity="1.00" d=" M 771.23 284.06 C 767.17 285.32 769.32 280.99 769.84 279.12 C 771.43 280.60 770.87 282.02 769.51 283.30 L 771.23 284.06 Z" />
<path fill="#d9ba35" opacity="1.00" d=" M 732.13 308.66 C 732.84 307.59 733.57 306.53 734.32 305.48 C 736.49 309.96 740.64 313.33 741.96 318.22 C 740.47 318.07 738.99 317.91 737.52 317.75 C 735.61 314.79 733.69 311.82 732.13 308.66 Z" />
</g>
<g id="#25257cff">
<path fill="#25257c" opacity="1.00" d=" M 677.91 251.88 C 677.77 250.41 679.62 248.82 680.94 249.95 C 683.09 250.76 683.60 253.18 684.22 255.12 C 681.93 254.50 679.43 253.85 677.91 251.88 Z" />
</g>
<g id="#186e84fd">
<path fill="#186e84" opacity="1.00" d=" M 758.64 252.81 C 760.19 253.66 761.69 254.66 762.84 256.04 C 766.00 260.16 770.34 263.52 772.26 268.48 C 770.80 267.76 769.43 266.84 768.46 265.53 C 765.15 261.31 761.66 257.23 758.64 252.81 Z" />
</g>
<g id="#bababaff">
<path fill="#bababa" opacity="1.00" d=" M 852.47 267.01 C 853.49 264.81 855.11 263.02 857.16 261.74 C 859.80 267.94 860.95 274.60 862.30 281.17 C 857.51 287.67 851.65 293.38 845.08 298.06 C 842.42 300.14 839.67 302.20 836.43 303.28 C 837.86 300.56 838.50 297.54 838.56 294.49 C 836.82 291.69 834.16 289.74 830.87 289.25 C 832.11 284.70 829.64 280.06 830.68 275.40 C 835.85 271.39 841.35 267.81 846.70 264.02 C 847.91 266.22 849.32 268.48 852.02 268.93 C 855.08 269.71 855.59 273.36 855.47 276.03 C 854.92 277.46 854.60 278.96 854.41 280.48 C 853.03 281.86 851.63 283.20 850.23 284.54 C 849.40 284.50 847.73 284.40 846.90 284.35 C 846.38 283.04 845.87 281.73 845.36 280.42 C 845.37 281.45 845.40 282.47 845.44 283.50 C 846.10 284.16 846.78 284.82 847.46 285.48 C 848.46 285.49 849.47 285.50 850.50 285.51 C 852.63 283.59 854.68 281.55 856.21 279.09 C 856.42 277.13 856.77 275.13 856.47 273.17 C 855.67 270.81 853.93 268.95 852.47 267.01 Z" />
<path fill="#bababa" opacity="1.00" d=" M 867.91 267.79 C 869.56 268.18 868.72 272.06 866.95 271.47 C 866.76 270.15 867.09 268.84 867.91 267.79 Z" />
<path fill="#bababa" opacity="1.00" d=" M 815.48 286.08 C 817.67 284.18 820.04 282.44 822.59 281.05 C 826.53 280.07 828.69 283.54 830.69 286.22 C 829.57 288.41 827.58 289.69 825.18 290.04 C 824.83 290.56 824.14 291.59 823.80 292.10 C 825.86 291.43 827.89 290.60 830.04 290.16 C 832.21 289.94 834.21 291.10 836.22 291.76 C 838.69 295.74 837.14 300.26 835.54 304.23 C 827.00 307.66 818.99 312.23 810.40 315.55 C 806.03 317.42 801.42 318.88 796.62 318.89 C 800.43 317.36 803.91 315.14 807.27 312.79 C 808.64 309.52 811.64 306.87 811.66 303.12 C 812.09 297.34 811.72 290.93 815.48 286.08 Z" />
<path fill="#bababa" opacity="1.00" d=" M 772.47 309.45 C 775.89 307.18 780.25 306.94 784.19 307.66 C 785.55 309.22 786.98 310.71 788.49 312.15 C 787.94 314.14 788.03 316.81 785.90 317.88 C 783.95 318.89 781.74 319.19 779.68 319.84 C 780.48 319.86 782.10 319.89 782.90 319.91 C 777.90 321.70 773.80 325.22 769.68 328.33 L 769.20 328.15 C 765.58 325.39 767.39 319.72 767.51 315.78 C 769.47 313.91 770.69 311.46 772.47 309.45 Z" />
<path fill="#bababa" opacity="1.00" d=" M 752.83 315.13 C 760.95 315.89 763.34 324.86 766.90 330.77 C 763.20 333.58 759.44 336.45 755.03 338.04 C 750.46 339.70 745.89 341.43 741.78 344.06 C 738.19 340.61 734.27 337.39 731.71 333.05 C 733.74 334.34 735.77 335.63 737.94 336.70 C 736.50 332.83 731.40 330.59 732.34 325.93 C 732.11 320.69 738.30 319.91 742.13 318.91 C 743.01 319.41 743.91 319.91 744.81 320.42 C 746.64 320.02 748.50 319.63 750.35 319.24 C 751.18 317.87 752.00 316.50 752.83 315.13 M 749.81 325.00 C 750.56 327.74 752.99 329.38 755.46 330.46 C 755.46 330.97 755.47 332.00 755.47 332.52 C 756.96 332.57 758.46 332.64 759.98 332.72 C 759.95 332.17 759.88 331.07 759.85 330.52 C 755.68 330.48 752.55 327.79 749.81 325.00 Z" />
<path fill="#bababa" opacity="1.00" d=" M 786.58 319.35 C 787.22 318.19 787.89 317.05 788.58 315.92 C 790.09 316.99 791.64 318.05 793.28 318.94 C 791.34 318.97 789.42 319.10 787.51 319.34 L 786.58 319.35 Z" />
</g>
<g id="#d5ba54ff">
<path fill="#d5ba54" opacity="1.00" d=" M 737.86 265.81 C 744.33 268.38 749.72 272.95 755.52 276.71 C 760.74 280.84 766.56 284.19 771.70 288.42 C 775.18 293.31 775.05 299.73 776.86 305.30 C 772.41 302.49 769.29 298.09 765.36 294.66 C 755.81 285.41 746.74 275.69 737.86 265.81 Z" />
<path fill="#d5ba54" opacity="1.00" d=" M 758.34 302.26 C 759.87 302.23 759.60 304.74 758.20 304.73 C 756.77 304.67 757.04 302.31 758.34 302.26 Z" />
</g>
<g id="#0b3645ff">
<path fill="#0b3645" opacity="1.00" d=" M 776.07 268.02 C 777.65 267.55 778.23 268.14 777.81 269.79 C 776.21 270.25 775.63 269.66 776.07 268.02 Z" />
</g>
<g id="#541700ff">
<path fill="#541700" opacity="1.00" d=" M 782.30 268.96 C 789.91 271.15 797.38 273.82 804.93 276.24 C 805.62 280.93 804.37 285.57 803.80 290.20 C 801.62 289.64 801.34 293.47 803.59 293.16 C 805.15 293.52 806.62 292.87 808.08 292.39 C 808.84 291.34 809.73 290.39 810.87 289.74 C 810.08 292.51 810.45 296.01 807.97 297.97 C 803.78 301.81 798.86 304.91 795.44 309.54 C 800.88 306.47 804.91 301.56 809.95 297.94 C 810.07 303.69 807.37 309.30 802.40 312.34 C 799.30 314.11 795.05 316.24 791.78 313.72 C 792.99 312.32 794.22 310.93 795.46 309.53 C 793.91 310.41 792.37 311.30 790.84 312.18 C 789.75 310.90 788.70 309.59 787.56 308.38 C 785.27 305.74 781.62 305.21 778.49 304.13 C 781.85 302.15 785.02 299.76 787.32 296.57 C 784.16 298.34 781.93 301.70 778.20 302.35 C 777.42 299.31 776.34 296.30 776.19 293.14 C 779.23 290.23 783.05 288.11 785.40 284.50 C 781.89 286.82 778.98 290.14 774.86 291.45 C 775.52 290.08 776.22 288.74 776.95 287.40 C 779.78 286.96 779.58 284.52 779.32 282.28 C 780.25 282.62 781.18 283.01 782.12 283.40 C 783.96 281.50 785.64 279.45 787.15 277.27 C 787.28 276.91 787.54 276.20 787.67 275.85 C 787.42 274.94 787.17 274.05 786.92 273.16 C 783.46 277.20 779.05 280.35 775.90 284.66 C 775.53 284.66 774.79 284.68 774.42 284.68 C 774.17 285.40 773.67 286.85 773.42 287.57 C 772.64 284.88 772.12 281.95 773.26 279.28 C 775.04 274.93 778.98 272.08 782.30 268.96 M 786.69 283.40 C 790.50 280.90 794.30 277.78 796.55 273.78 C 792.93 276.59 789.35 279.63 786.69 283.40 M 796.75 281.26 C 798.64 281.17 800.53 280.90 802.37 280.37 C 801.77 279.18 801.17 277.99 800.57 276.81 C 798.96 277.97 796.93 279.03 796.75 281.26 M 796.16 288.18 C 793.59 290.46 790.64 292.42 788.78 295.38 C 792.06 293.64 794.62 290.88 797.45 288.52 C 799.86 286.29 802.73 284.42 804.34 281.46 C 801.20 283.16 798.85 285.90 796.16 288.18 M 782.00 293.61 C 784.06 293.51 786.14 293.35 788.20 293.11 C 787.45 291.84 786.69 290.56 785.94 289.31 C 784.41 290.53 782.89 291.84 782.00 293.61 M 790.93 301.71 C 792.95 301.75 794.99 301.77 797.03 301.76 C 796.27 300.59 796.14 298.71 794.83 298.08 C 792.89 298.27 791.63 300.05 790.93 301.71 Z" />
</g>
<g id="#114f60ff">
<path fill="#114f60" opacity="1.00" d=" M 774.30 270.23 C 774.81 270.76 774.81 270.76 774.30 270.23 Z" />
</g>
<g id="#21758fff">
<path fill="#21758f" opacity="1.00" d=" M 771.99 271.37 C 773.33 270.63 774.59 272.95 773.60 273.92 C 772.18 274.78 770.88 272.34 771.99 271.37 Z" />
</g>
<g id="#484212ff">
<path fill="#484212" opacity="1.00" d=" M 758.33 273.25 C 758.82 273.78 758.82 273.78 758.33 273.25 Z" />
</g>
<g id="#cdb344ff">
<path fill="#cdb344" opacity="1.00" d=" M 740.09 275.53 L 740.52 275.10 C 743.29 278.79 747.27 281.30 750.05 284.97 C 752.60 288.37 756.13 290.86 758.71 294.25 C 762.50 299.12 767.74 302.75 771.05 307.99 C 770.64 309.59 769.21 310.67 768.30 311.99 C 766.91 310.96 765.44 309.96 764.57 308.44 C 760.65 301.91 755.99 295.86 751.26 289.91 C 747.44 285.18 744.05 280.14 740.09 275.53 Z" />
<path fill="#cdb344" opacity="1.00" d=" M 764.09 277.03 L 764.86 276.90 C 763.02 278.76 765.64 279.87 766.57 281.07 L 766.40 277.81 C 766.89 278.11 767.86 278.71 768.34 279.01 C 767.75 279.99 767.18 280.98 766.62 281.97 C 765.19 281.19 763.75 280.44 762.33 279.66 C 763.34 279.06 763.93 278.18 764.09 277.03 Z" />
</g>
<g id="#884920ff">
<path fill="#884920" opacity="1.00" d=" M 787.15 277.27 C 784.74 276.82 786.35 273.32 787.67 275.85 C 787.54 276.20 787.28 276.91 787.15 277.27 Z" />
</g>
<g id="#898033ff">
<path fill="#898033" opacity="1.00" d=" M 762.24 276.23 C 762.78 276.77 762.78 276.77 762.24 276.23 Z" />
</g>
<g id="#494319ff">
<path fill="#494319" opacity="1.00" d=" M 760.16 277.36 C 763.48 277.43 758.70 280.39 760.16 277.36 Z" />
</g>
<g id="#af612eff">
<path fill="#af612e" opacity="1.00" d=" M 796.75 281.26 C 796.93 279.03 798.96 277.97 800.57 276.81 C 801.17 277.99 801.77 279.18 802.37 280.37 C 800.53 280.90 798.64 281.17 796.75 281.26 Z" />
</g>
<g id="#85441fff">
<path fill="#85441f" opacity="1.00" d=" M 783.91 277.97 C 787.22 278.11 782.40 281.00 783.91 277.97 Z" />
</g>
<g id="#6f3613ff">
<path fill="#6f3613" opacity="1.00" d=" M 781.16 280.18 C 782.56 279.88 783.07 280.41 782.69 281.79 C 781.26 282.08 780.75 281.54 781.16 280.18 Z" />
</g>
<g id="#61591cff">
<path fill="#61591c" opacity="1.00" d=" M 743.29 282.23 C 743.80 282.75 743.80 282.75 743.29 282.23 Z" />
</g>
<g id="#992f0ae5">
<path fill="#992f0a" opacity="0.90" d=" M 734.36 283.69 C 735.16 284.26 735.70 285.02 735.98 285.98 C 734.16 286.18 733.62 285.42 734.36 283.69 Z" />
</g>
<g id="#5d290cff">
<path fill="#5d290c" opacity="1.00" d=" M 777.08 284.31 C 778.47 283.96 778.96 284.48 778.53 285.87 C 777.11 286.20 776.63 285.68 777.08 284.31 Z" />
</g>
<g id="#504818ff">
<path fill="#504818" opacity="1.00" d=" M 744.29 287.24 C 744.82 287.73 744.82 287.73 744.29 287.24 Z" />
</g>
<g id="#6a310fff">
<path fill="#6a310f" opacity="1.00" d=" M 775.24 287.48 C 775.74 288.01 775.74 288.01 775.24 287.48 Z" />
</g>
<g id="#4c461aff">
<path fill="#4c461a" opacity="1.00" d=" M 747.19 288.18 C 748.42 287.92 750.23 289.60 749.69 290.88 C 748.27 291.54 746.70 289.46 747.19 288.18 Z" />
</g>
<g id="#c26e39ff">
<path fill="#c26e39" opacity="1.00" d=" M 782.00 293.61 C 782.89 291.84 784.41 290.53 785.94 289.31 C 786.69 290.56 787.45 291.84 788.20 293.11 C 786.14 293.35 784.06 293.51 782.00 293.61 Z" />
<path fill="#c26e39" opacity="1.00" d=" M 790.93 301.71 C 791.63 300.05 792.89 298.27 794.83 298.08 C 796.14 298.71 796.27 300.59 797.03 301.76 C 794.99 301.77 792.95 301.75 790.93 301.71 Z" />
</g>
<g id="#b26230f7">
<path fill="#b26230" opacity="0.97" d=" M 803.59 293.16 C 801.34 293.47 801.62 289.64 803.80 290.20 C 803.75 290.94 803.65 292.42 803.59 293.16 Z" />
</g>
<g id="#8d8335ff">
<path fill="#8d8335" opacity="1.00" d=" M 750.25 292.26 C 750.83 292.78 750.83 292.78 750.25 292.26 Z" />
</g>
<g id="#8f8636ff">
<path fill="#8f8636" opacity="1.00" d=" M 748.24 294.27 C 748.78 294.83 748.78 294.83 748.24 294.27 Z" />
</g>
<g id="#403c19ff">
<path fill="#403c19" opacity="1.00" d=" M 749.23 296.35 C 749.75 296.83 749.75 296.83 749.23 296.35 Z" />
</g>
<g id="#ada55dff">
<path fill="#ada55d" opacity="1.00" d=" M 753.22 296.22 C 753.78 296.81 753.78 296.81 753.22 296.22 Z" />
</g>
<g id="#656133ff">
<path fill="#656133" opacity="1.00" d=" M 755.21 298.22 C 756.49 298.90 756.45 299.56 755.09 300.21 C 753.79 299.53 753.83 298.86 755.21 298.22 Z" />
</g>
<g id="#000041ff">
<path fill="#000041" opacity="1.00" d=" M 226.16 303.42 C 227.77 301.09 230.60 300.10 232.93 298.65 C 235.87 304.21 238.24 310.21 238.50 316.57 L 238.14 316.56 C 238.17 315.99 238.23 314.83 238.26 314.26 C 234.54 319.09 231.14 324.17 227.52 329.09 C 224.34 323.73 221.58 318.15 218.56 312.71 C 220.07 310.43 221.31 307.86 223.45 306.09 C 224.57 305.44 225.55 304.58 226.16 303.42 Z" />
<path fill="#000041" opacity="1.00" d=" M 441.89 416.91 C 450.42 416.43 458.98 416.41 467.52 415.93 C 457.99 421.85 447.80 426.68 438.01 432.16 C 403.48 450.67 369.09 469.45 334.49 487.82 C 333.99 482.02 335.82 476.46 337.17 470.91 C 335.24 469.47 332.96 468.27 331.73 466.13 C 329.99 462.53 331.03 457.66 334.49 455.48 C 340.33 451.36 347.80 451.62 354.59 450.84 C 352.26 447.21 348.61 444.02 344.08 443.99 C 334.43 443.64 326.42 450.30 317.12 451.68 C 313.70 452.27 309.93 450.92 308.23 447.78 C 306.08 444.64 306.37 440.57 305.11 437.20 C 298.04 436.03 290.72 436.43 283.74 434.79 L 283.76 434.23 C 285.35 429.73 289.33 426.25 292.32 422.52 C 326.72 421.31 361.12 419.72 395.53 418.79 C 401.93 420.17 408.47 421.57 415.06 420.85 C 424.02 419.67 432.88 417.73 441.89 416.91 Z" />
<path fill="#000041" opacity="1.00" d=" M 33.57 432.35 C 40.11 432.25 46.64 431.67 53.19 431.76 C 48.02 434.89 42.62 437.60 37.31 440.48 C 35.73 437.93 34.58 435.16 33.57 432.35 Z" />
<path fill="#000041" opacity="1.00" d=" M 52.80 535.60 C 63.23 529.81 73.78 524.27 84.26 518.58 C 85.91 525.77 82.84 533.69 77.02 538.14 C 71.64 542.21 64.62 543.20 58.06 543.16 C 56.19 540.72 54.66 538.04 52.80 535.60 Z" />
<path fill="#000041" opacity="1.00" d=" M 41.01 552.03 C 42.83 549.36 45.93 548.07 48.77 546.80 C 52.79 552.30 58.28 556.36 63.60 560.51 L 62.87 560.12 C 51.73 575.47 40.90 591.05 29.71 606.37 C 22.99 590.55 15.75 574.94 9.02 559.12 C 15.20 555.80 21.37 552.45 27.56 549.15 C 27.64 553.93 27.59 559.30 30.89 563.16 C 32.70 565.61 37.13 564.95 38.20 562.11 C 39.30 558.79 39.03 555.04 41.01 552.03 Z" />
<path fill="#000041" opacity="1.00" d=" M 118.88 575.60 C 128.05 573.44 137.38 570.29 146.93 571.80 C 153.15 572.68 158.90 575.56 163.87 579.33 C 161.59 581.37 158.79 582.62 156.10 584.02 C 148.31 588.27 140.46 592.42 132.68 596.69 C 130.68 597.98 128.27 597.52 126.04 597.53 C 118.18 597.24 110.37 598.80 102.51 598.44 C 107.99 590.84 113.32 583.14 118.88 575.60 Z" />
<path fill="#000041" opacity="1.00" d=" M 97.44 605.82 C 98.05 608.57 99.88 611.45 99.46 614.25 C 95.36 616.86 91.06 619.25 86.55 621.06 C 90.21 616.00 93.79 610.88 97.44 605.82 Z" />
</g>
<g id="#cbab30f9">
<path fill="#cbab30" opacity="0.98" d=" M 742.31 300.19 C 742.47 300.08 742.79 299.87 742.95 299.77 L 742.81 300.25 L 742.31 300.19 Z" />
</g>
<g id="#0a0700ff">
<path fill="#0a0700" opacity="1.00" d=" M 742.95 299.77 L 743.24 298.78 C 745.20 301.47 746.98 304.29 748.52 307.25 C 746.56 305.65 744.62 304.04 742.55 302.59 C 744.02 307.73 747.20 312.12 749.08 317.10 C 745.61 312.07 742.96 306.54 739.90 301.27 L 739.46 299.91 C 740.17 299.98 741.60 300.12 742.31 300.19 L 742.81 300.25 L 742.95 299.77 Z" />
<path fill="#0a0700" opacity="1.00" d=" M 709.07 361.91 C 710.62 363.44 712.10 365.05 713.58 366.67 C 713.11 368.08 712.60 369.48 712.11 370.88 L 712.16 370.52 C 712.21 370.18 712.31 369.48 712.36 369.13 C 711.21 366.74 710.10 364.34 709.07 361.91 Z" />
</g>
<g id="#615c30ff">
<path fill="#615c30" opacity="1.00" d=" M 752.06 300.98 C 755.01 299.34 752.27 304.30 752.06 300.98 Z" />
</g>
<g id="#777038ff">
<path fill="#777038" opacity="1.00" d=" M 756.34 301.20 C 756.86 301.74 756.86 301.74 756.34 301.20 Z" />
</g>
<g id="#5c001de0">
<path fill="#5c001d" opacity="0.88" d=" M 223.45 306.09 C 222.09 304.62 224.71 302.08 226.16 303.42 C 225.55 304.58 224.57 305.44 223.45 306.09 Z" />
</g>
<g id="#46421eff">
<path fill="#46421e" opacity="1.00" d=" M 753.25 303.11 C 756.29 301.66 753.29 306.42 753.25 303.11 Z" />
</g>
<g id="#5d582cff">
<path fill="#5d582c" opacity="1.00" d=" M 755.15 305.37 C 756.52 304.74 756.98 305.16 756.54 306.63 C 755.16 307.26 754.69 306.84 755.15 305.37 Z" />
</g>
<g id="#746e3aff">
<path fill="#746e3a" opacity="1.00" d=" M 760.23 305.03 C 761.52 305.68 761.53 306.37 760.25 307.11 C 758.96 306.47 758.95 305.77 760.23 305.03 Z" />
</g>
<g id="#807b41ff">
<path fill="#807b41" opacity="1.00" d=" M 757.06 307.37 C 760.34 307.61 755.43 310.36 757.06 307.37 Z" />
</g>
<g id="#696432ff">
<path fill="#696432" opacity="1.00" d=" M 761.42 308.07 C 764.47 306.63 761.47 311.37 761.42 308.07 Z" />
</g>
<g id="#3f3c1cff">
<path fill="#3f3c1c" opacity="1.00" d=" M 759.19 310.11 C 760.43 310.77 760.36 311.45 758.99 312.13 C 757.73 311.46 757.79 310.79 759.19 310.11 Z" />
</g>
<g id="#b2ab60ff">
<path fill="#b2ab60" opacity="1.00" d=" M 763.29 310.49 C 763.81 311.12 763.81 311.12 763.29 310.49 Z" />
</g>
<g id="#524e26ff">
<path fill="#524e26" opacity="1.00" d=" M 764.36 312.15 C 765.84 311.67 766.26 312.12 765.62 313.50 C 764.14 313.97 763.72 313.52 764.36 312.15 Z" />
</g>
<g id="#544e25ff">
<path fill="#544e25" opacity="1.00" d=" M 759.30 313.08 C 762.25 311.44 759.55 316.38 759.30 313.08 Z" />
</g>
<g id="#7f783eff">
<path fill="#7f783e" opacity="1.00" d=" M 762.11 314.18 C 763.38 314.84 763.34 315.52 762.00 316.19 C 760.71 315.52 760.74 314.85 762.11 314.18 Z" />
</g>
<g id="#5c572bff">
<path fill="#5c572b" opacity="1.00" d=" M 763.19 317.10 C 764.83 316.53 765.37 317.07 764.79 318.70 C 763.14 319.25 762.61 318.72 763.19 317.10 Z" />
</g>
<g id="#080808ff">
<path fill="#080808" opacity="1.00" d=" M 749.81 325.00 C 752.55 327.79 755.68 330.48 759.85 330.52 C 759.88 331.07 759.95 332.17 759.98 332.72 C 758.46 332.64 756.96 332.57 755.47 332.52 C 755.47 332.00 755.46 330.97 755.46 330.46 C 752.99 329.38 750.56 327.74 749.81 325.00 Z" />
</g>
<g id="#007200ff">
<path fill="#007200" opacity="1.00" d=" M 700.59 362.20 C 704.69 365.52 708.11 369.55 711.75 373.36 C 711.44 379.74 711.23 386.75 706.88 391.89 C 705.89 390.15 704.92 388.40 703.99 386.64 C 703.11 379.08 698.08 372.67 698.25 364.89 C 701.75 369.21 703.85 374.60 707.98 378.41 C 709.80 378.34 710.39 377.21 709.02 375.99 C 705.23 372.06 702.80 367.13 700.59 362.20 Z" />
</g>
<g id="#d6cbcfea">
<path fill="#d6cbcf" opacity="0.92" d=" M 283.74 434.79 C 283.75 434.65 283.76 434.37 283.76 434.23 L 283.74 434.79 Z" />
</g>
</svg>
