<?xml version="1.0" encoding="UTF-8" standalone="no"?>
<!-- Created with Inkscape (http://www.inkscape.org/) -->
<svg id="svg2" xmlns:rdf="http://www.w3.org/1999/02/22-rdf-syntax-ns#" xmlns="http://www.w3.org/2000/svg" height="1045.1" width="1861.3" version="1.0" xmlns:cc="http://creativecommons.org/ns#" xmlns:dc="http://purl.org/dc/elements/1.1/">
 <metadata id="metadata467">
  <rdf:RDF>
   <cc:Work rdf:about="">
    <dc:format>image/svg+xml</dc:format>
    <dc:type rdf:resource="http://purl.org/dc/dcmitype/StillImage"/>
   </cc:Work>
  </rdf:RDF>
 </metadata>
 <path id="path14" fill="#efb22d" d="m841.14 0.0000072862c-2.49 0.002-4.76 0.53032-6.47 1.625-6.2656 4.0084-16.344 12.72-16.344 14.125 0 1.0374-7.0601 11.709-7.75 11.719-0.3351 0.004-2.5945-1.645-5.0313-3.6562l-4.4063-3.6875-13.969-0.46875-13.938-0.53125-9.5-4.8438c-5.2208-2.6572-10.489-4.84-11.719-4.8437-1.2295-0.004-5.9004 1.1585-10.406 2.5312-7.2104 2.1968-9.3179 2.4122-17.375 1.9688-10.739-0.59109-11.294-0.32524-19.375 8.5938-6.3412 6.9991-9.0032 8.9233-15.469 11.469l-4.9062 1.9375-7-3.6875c-6.9616-3.6622-7.0425-3.6821-14.625-3.0312-5.4555 0.4683-8.2212 1.1998-9.625 2.4688-1.0813 0.97753-2 2.1145-2 2.5625 0 0.44799-0.9274 2.2855-2.0938 4.0625-1.6441 2.5056-2.9809 3.3529-5.9374 3.8125-2.0971 0.32594-4.4358 1.1224-5.2188 1.75-1.9645 1.5743-15.18 19.106-15.219 20.188-0.019 0.482-0.8646 1.9067-1.9062 3.1562-1.816 2.1782-2.2383 2.2221-10.5 1.6875-9.8394-0.63676-10.087-0.58231-18.688 6.75-5.2983 4.5171-5.875 5.4574-5.875 8.5938 0 1.9316 0.7589 4.9932 1.6875 6.8125l1.6875 3.2812-3.375 1.5625c-1.8424 0.85758-5.1347 2.1174-7.3125 2.75-2.1779 0.63263-6.2533 2.9736-9.0312 5.25-2.7785 2.2764-5.2648 4.1562-5.5938 4.1562s-2.5274-0.81562-4.8125-1.8125c-3.9556-1.7256-4.9015-1.7545-19.812-0.53125-8.6145 0.70667-22.578 1.7969-31.062 2.4375-17.574 1.327-17.299 1.2189-19.938 9.875-1.5437 5.065-2.0349 5.6437-5.0312 6.4062-4.3714 1.1124-5.0019 1.8633-6.125 7.125l-0.9688 4.5-5.6875 0.28125c-3.4892 0.17886-6.3247 0.82896-7.3437 1.75-0.9284 0.83902-2.3402 4.8018-3.25 9.0312l-1.6563 7.5938-3.8437-0.59375c-2.1181-0.31991-5.8385-0.83129-8.2813-1.1562l-4.4375-0.59375-3.1562 5.1562c-1.7343 2.8188-3.6651 5.9697-4.3126 7-0.6468 1.0303-2.0097 3.3703-3.0312 5.25-0.8448 1.5544-1.6542 2.8696-2.7812 4.375-1.9955 2.6645-4.9633 5.8999-10.75 11.906l-7.2813 7.5312-1.4063 8.2188c-0.7863 4.5107-1.9282 11.786-2.5624 16.219-1.0924 7.6299-1.4538 8.3556-5.625 12.844-5.0033 5.3828-17.31 19.785-21.063 24.656-1.3759 1.7866-4.1116 7.6812-6.0624 13.031-1.9511 5.35-4.3452 11.465-5.3126 13.625l-1.75 3.9375-8.8124 1.5625c-11.043 1.9786-12.125 2.3151-12.125 3.625 0 0.58444-0.9191 2.464-2.0938 4.1875l-2.1562 3.1562h-11.156-11.062l-3.4062 3.375c-1.8569 1.8546-4.4146 4.9176-5.6563 6.8438s-4.4006 5.8279-7.0625 8.625c-2.6618 2.7971-4.8438 5.8288-4.8438 6.8125 0 3.6651-3.343 5.625-9.75 5.625-8.4202 0-9.5112 1.0304-12.187 11.594-0.6359 2.5101-1.097 4.6487-1.4376 6.8438-0.6229 4.0189-0.8306 8.2101-0.8437 15.094v13.188l-7.0937 2c-8.9759 2.5075-9.1841 2.6829-10.563 7.5-0.6277 2.1944-1.5045 4.3848-1.875 4.9062-0.3702 0.5215-0.9294 2.248-1.2812 3.8125-0.4781 2.1264-1.6505 3.3636-4.625 4.7812-3.8535 1.8364-4.0184 2.06-4.9375 7.9375-0.7324 4.6823-1.4104 6.1989-2.875 6.75-14.184 5.337-15.625 6.5966-15.625 12.906 0 3.1285-0.7384 5.1477-2.875 8.0938-1.5662 2.1597-2.8437 4.4835-2.8437 5.1875 0 1.5775-0.5143 1.5992-3.1563 0.125-6.5262-3.6418-12.101-4.2944-20.719-2.5-10.207 2.1252-12.694 3.6265-19.063 11.562-8.6992 10.841-12.53 14.602-15.625 15.281-4.0632 0.89147-5.6613 3.0115-7.4374 10.031-0.8524 3.3672-2.3228 7.0195-3.25 8.0625-0.9276 1.043-3.4421 5.4736-5.5938 9.9062-3.8723 7.9778-5.8783 11.558-10.219 18.094-1.7354 2.6132-2.2187 4.624-2.2187 9.0938 0 0.97461-0.028 1.6386-0.062 2.3438-0.1549 3.2452-0.8266 4.2672-3.7812 7.2188-3.6742 3.6699-3.8126 4.0097-3.8126 10.156 0 5.856-0.2499 6.6414-3.3124 10.375-4.0562 4.9441-4.3448 8.7714-0.9376 11.969 2.9502 2.7682 2.9502 3.4136 0 7.75-1.3051 1.9186-2.3437 4.3399-2.3437 5.375 0 2.1566 3.9082 5.2126 7.9375 6.1875l2.75 0.6875-0.5312 11.844c-0.4964 11.481-0.3949 11.911 1.8124 14.531 1.2528 1.4867 4.3941 4.0485 7 5.7188 4.2027 2.6935 4.6884 3.3655 4.1563 5.5938-0.9574 4.0086-1.2899 4.1326-6.9063 3.6875-4.3512-0.34485-6.7688-1.3201-13.281-5.3125-4.3934-2.6934-8.8801-4.9081-9.9688-4.9062-2.7773 0.006-6.8101 2.7142-13.156 8.7188l-5.4688 5.125v11.5c0 8.0372-0.3243 11.684-1.1562 12.344-0.6525 0.51732-8.6498 1.2922-17.75 1.6562-10.891 0.43568-17.363 1.0624-18.969 1.9062-2.5875 1.3602-20.726 17.734-22.5 20.312-0.5767 0.83837-1.7689 7.7197-2.6874 15.281-0.3017 2.4829-0.5933 4.3995-0.875 6.4688-0.5768 4.2325-1.0631 7.6748-1.2188 7.9375-0.2319 0.39111-4.2193 0.78125-8.875 0.78125-7.7676 0-8.6349 0.17006-9.9375 2.1562-0.7814 1.1906-1.6831 5.1639-2.0313 8.9062-0.5468 5.8792-0.9668 7.1309-3.3124 9.2188-5.5327 4.9234-3.3483 7.5415 10.094 11.969 5.221 1.7196 17.134 7.0584 26.531 11.844 9.3975 4.7853 18.228 8.9601 19.562 9.2812 2.395 0.57619 2.3898 0.76709 3.5938 14.594 0.6712 7.7073 1.8394 19.71 2.5625 26.656 1.1637 11.188 1.1258 12.859-0.1563 14.812-0.7953 1.2128-2.2639 2.4219-3.2812 2.6875-1.0172 0.2657-2.0733 1.2568-2.375 2.2187-0.3017 0.9625-0.985 2.532-1.4688 3.4376-1.1712 2.1909-1.1311 8.0129 0.063 8.75 0.5706 0.3523 1 6.7866 1 16.156 0 14.325 0.1 15.758 1.8437 17.5 2.6119 2.6089 10.254 2.5992 13.562 0 2.2179-1.7427 14-21.73 14-23.75 0-2.0179 1.9635-0.579 6.5312 4.6875l4.7813 5.5313-1.75 10.344c-0.6926 4.0432-1.1489 6.6429-1.1875 8.5-0.067 3.2798 1.09 4.1045 4.0938 5.6563 4.6001 2.376 10.76 1.1304 14.062-2.8438 2.0494-2.4669 3.4633-1.6784 4.7188 2.5625 2.2729 7.6759 4.3267 8.5015 14.594 5.8437 4.6188-1.1954 5.9283-1.2767 6.25-0.3124 0.9738 2.9182 4.7624 5.5669 7.4062 5.1562 1.4664-0.2278 4.0846-0.6012 5.7812-0.875 2.5092-0.4048 3.0938-0.2122 3.0938 1.1562 0 0.926-0.4687 2.0945-1 2.625-0.5314 0.5308-1.035 3.9786-1.1562 7.5938-0.2194 6.5348-0.232 6.5131 2.375 6.8125 1.442 0.1656 5.0093-0.7549 7.9374-2.0937 2.9284-1.3392 5.7951-2.4376 6.4063-2.4376 0.6113 0 3.0033 1.8999 5.3125 4.25l4.2188 4.3126 0.4062 9.4062c0.3351 8.3342 0.1486 9.7884-1.625 12.656-1.104 1.7844-2 4.1183-2 5.1876 0 2.1851 21.351 22.874 25.094 24.312 1.6775 0.6446 3.3632 0.2818 6.8124-1.3437 4.5606-2.1493 4.9138-2.1524 33.563-1.6875l28.937 0.4688 17.094-5.5313c9.4113-3.0499 18.371-6.1224 19.938-6.875 4.9701-2.3878 27.053-9.2847 27.969-8.7187 0.484 0.2983 3.5038 3.8425 6.75 7.875 1.6634 2.066 3.5085 4.061 5.125 5.625l1099.5-733.03c-1.2414-1.2498-2.3767-2.1696-3-2.4062-1.1467-0.43547-6.6526-0.56182-12.156-0.28125-9.4877 0.48366-17.687-0.58168-21.625-2.75-2.1316-1.1737-17.792-4.5938-21-4.5938-4.0753 0-4.7424 2.6766-3.2188 12.875 1.1913 7.9754 1.1222 8.6206-0.5937 10.469-0.9996 1.0766-1.8125 2.2036-1.8125 2.5625 0 0.35887-1.6133 2.119-3.5938 3.9062-4.1258 3.7231-4.7479 4.871-8.4062 15.094l-2.6875 7.4688-9.5-0.5c-7.2381-0.42054-11.517-1.262-18.031-3.5625-7.8215-2.7621-9.4733-3.01-19.219-2.875l-10.594 0.125-1.4687-2.8125c-2.24-4.3267-8.4347-5.6807-16.688-3.7188-0.9578 0.22766-1.4842-0.51352-1.6875-2.2812-0.1662-1.4455-1.2674-3.2499-2.4063-3.9688-2.2822-1.4405-14.371-4.3125-18.094-4.3125-1.5371 0-3.0533-1.0212-4.375-2.875-2.6502-3.7176-6.1119-3.7176-11.25 0-2.1621 1.5645-4.2318 2.875-4.6562 2.875s-2.7607 1.2324-5.1562 2.75l-4.375 2.7188-0.5626-2.7812c-0.359-1.7939-2.6826-4.8256-6.4687-8.4062-9.9637-9.4237-16.766-11.505-24.688-7.4688-3.6966 1.8837-3.9975 1.8839-5.125 0.34375-0.6594-0.90081-2.2906-2.1838-3.625-2.9062-1.3343-0.72243-3.5958-1.971-5.0312-2.75-1.4361-0.77902-3.7248-1.4025-5.0626-1.4062-1.6188-0.004-3.165-0.99645-4.625-2.9688-2.0752-2.8042-2.4603-2.9359-6.9374-2.4062-2.6023 0.30781-5.184 0.89035-5.7813 1.3438-0.5974 0.45338-3.97 1.6118-7.4687 2.5312-6.0828 1.5984-7.126 1.6181-24.188 0-15.157-1.4376-18.431-2.0104-21.656-3.9062-6.7626-3.9751-11.648-5.9946-17.094-7-4.7136-0.8704-5.7733-0.76002-9.0937 0.96875-4.3984 2.2899-7.2547 2.4011-9.8125 0.46875-2.3244-1.7561-7.8671-1.7082-10.969 0.0625-3.1838 1.8183-9.2635 1.7265-16.156-0.1875-4.9962-1.3874-6.6283-1.426-13.594-0.34375-6.386 0.99228-8.6385 1.0268-11.562 0.0625-2.9254-0.9643-4.6402-0.9878-8.9376 0-2.9266 0.67282-6.0289 1.5803-6.9374 2.0312-1.0716 0.53198-2.3891 0.38335-3.7813-0.5-1.1801-0.74873-6.6432-3.3459-12.125-5.7812-5.482-2.4354-10.798-4.8743-11.844-5.375-1.5022-0.71948-4.19 0.22648-12.625 4.375-5.8705 2.8871-11.588 5.25-12.719 5.25-1.1311 0-3.9229-1.1118-6.1875-2.4375l-4.125-2.4062v-6c0-3.6494 0.4977-6.4031 1.2187-7 0.6527-0.54038 6.6109-1.1059 13.25-1.2812 13.656-0.36059 15.158-0.0282 15.563-10.562 0.069-1.7988 0.1279-3.8144 0.1874-6.3125l0.3438-13.188 2.9688-0.625c4.3231-0.88755 23.732-7.2334 24.875-8.125 0.5288-0.41278 2.9489-1.257 5.4062-1.875 2.4571-0.61803 5.05-1.7689 5.7188-2.5625 0.6682-0.79364 1.6342-5.7096 2.1562-10.969l0.9375-9.5625 12.375-3.0938c10.942-2.7343 12.623-3.4617 14.938-6.1875 2.1451-2.526 2.625-3.9517 2.625-8.1562 0-4.9104-0.2174-5.332-5-10.094-2.7409-2.729-5.8502-5.3785-6.9062-5.9375-1.0562-0.55902-7.0284-1.4043-13.281-1.7812-12.16-0.73303-14.966-1.383-18.031-4.25-2.2172-2.0742-7.7418-3.2431-19.625-4.1875l-8.2812-0.65625-2.5-4.9062c-3.4003-6.5737-5.7707-8.9647-9.9688-10.094-2.1333-0.57387-4.1865-1.9552-5.1874-3.5312-3.0696-4.8336-6.4759-7.8103-9.6563-8.4062-1.7415-0.32635-3.4329-0.94387-3.7187-1.4062-0.2864-0.46236-1.9222-0.875-3.6876-0.875-2.6862 0-3.8608 0.80375-7.2187 4.7812l-4.0313 4.7188-2.625-3.0938c-2.0463-2.3882-2.7201-4.1048-2.75-7.4688-0.026-2.9126-0.5733-4.8054-1.6874-5.8125-1.7914-1.6191-18.4-6.375-22.281-6.375-3.3526 0-3.87 0.83731-11.156 18.969-1.1522 2.8682-2.4598 5.5886-2.9062 6.0625-0.4788 0.50813-5.2422-0.89337-11.562-3.4375-5.895-2.373-12.381-4.9293-14.469-5.6562-5.7551-2.0033-5.5577-4.4011 1.3437-13.781 4.4713-6.077 5.7813-8.5578 5.7813-11.188 0-4.7382-3.8012-10.173-8.75-12.656-6.6291-3.3261-11.592-6.1843-14.594-8.3125-3.8092-2.7003-8.5624-4.1287-12.719-4.125z"/>
 <path id="path20" fill="#e23d28" d="m1448.4 216.69-1099.5 733.03c1.5385 1.4883 2.8706 2.5884 3.625 2.9062 1.6702 0.7035 6.9922 1.1562 13.125 1.1562h10.344v3.9063c0 3.8378 1.3204 7.3999 3.1562 8.5937 0.5307 0.3451 2.7731 0.9477 5 1.2813 3.3424 0.5006 4.4105 1.1725 6.0626 3.9687 1.8089 3.0628 2.3239 3.3128 5.2187 2.8438 1.7611-0.2856 6.5928-2.4619 10.781-4.875l7.625-4.375 9.6562 0.625 9.5625 0.6875 4.6563 5.3125c2.5431 2.9213 5.3691 6.2481 6.3124 7.4062 1.2376 1.5193 6.0779 3.4071 17.375 6.7813l15.688 4.6563 0.8124 3.8124c0.7736 3.5431 0.5399 4.3369-4 11.844-3.1319 5.1794-4.9062 9.0976-4.9062 11.031 0 2.7401 0.4878 3.2398 5.4688 5.4688 3.0018 1.3433 8.2424 3.6532 11.625 5.1875 7.6925 3.4894 10.007 3.5657 16.344 0.4687l5.0625-2.4374 6.875 3.25c7.9724 3.8039 9.8501 3.986 15.875 1.4062 5.4447-2.331 6.1875-2.3279 6.1875-0.1562 0 2.8659 2.2188 4.9712 6.1875 5.875 2.0742 0.4722 11.893 1.9285 21.812 3.2812 9.9196 1.3528 18.862 2.8726 19.906 3.375 1.0438 0.5024 4.4611 1.274 7.5937 1.6875 1.7079 0.2256 3.0631 0.3701 4.1875 0.4063 3.3731 0.1075 4.6083-0.7884 6.8125-3.5626 6.0826-7.6546 6.9869-9.5063 7-14.125l0.062-4.5312 5.6562 0.5938c13.602 1.3994 23.281 2.7752 23.281 3.375 0 0.3556 2.9134 0.9021 6.4375 1.2187 3.5241 0.3165 17.935 2.1132 32.031 3.9687 30.871 4.0644 33.929 4.1278 43.156 1.0938 3.9156-1.2873 9.919-3.0294 13.312-3.9062 3.3936-0.8771 6.6028-1.9609 7.125-2.375 0.938-0.7446 15.84-3.7367 37.969-7.6563 12.313-2.181 14.719-3.5723 14.719-8.4063 0-1.402 0.3715-2.9659 0.9063-3.5 1.2427-1.2415 1.4608-14.292 0.25-15.812-0.5038-0.6325-1.6301-3.8642-2.4688-7.2188l-1.5-6.125 2.5625-3.2188c1.4251-1.7737 4.7245-6.3164 7.3437-10.094 3.1408-4.5288 5.2594-6.7034 6.1876-6.4063 0.7739 0.2482 4.4579 1.8772 8.2187 3.625 8.6106 4.0023 12.018 4.085 15.25 0.4063l2.4375-2.75 2 3.9063c1.6775 3.317 2.5274 3.9905 5.25 4.25 3.209 0.3056 26.513-4.823 29.688-6.5313 0.9066-0.4879 2.2595-0.875 2.9687-0.875 2.76 0 4.2937-2.9966 8.5313-17.031 1.4544-4.8166 1.7249-4.9926 17.562-9.1562l8.8125-2.3438 13 6.4688 13 6.4375 29.75 29.625c16.381 16.303 30.703 29.829 31.812 30.062 1.1095 0.2332 7.6171 0.8689 14.469 1.3438l12.5 0.8124 6.4687 4.9063c7.5833 5.734 9.832 6.4918 15.031 4.9375 7.7826-2.3266 7.4187-2.3897 11.156 2.4688 5.626 7.3124 8.3221 9.7627 10.562 9.75 1.1536-0.01 5.7301-1.8672 10.156-4.1563l8.0312-4.1875 4.2812 2.2188 4.3126 2.1562 46.969-1.3438c44.75-1.2537 47.497-1.4593 57.688-3.8124 6.8997-1.5942 11.092-2.1331 11.844-1.5626 0.6409 0.4872 3.3583 1.763 5.9687 2.8438 4.5747 1.8939 5.4765 1.9659 26.062 1.0625 23.918-1.0495 24.604-1.2604 36.062-9.2187 3.3936-2.3572 8.7406-5.9947 11.844-8.0626l5.5937-3.7187 3.8438 2.2187c3.7222 2.1795 4.8037 2.2723 30.656 2.9063 28.145 0.6902 28.187 0.7202 36.219 4.375 4.4962 2.0461 16.812 6.7269 36.219 13.719 3.3936 1.2228 6.421 2.5054 6.7188 2.9063 1.2516 1.684 7.7317 2.625 18.562 2.625h11.562l3.25-5c1.8035-2.7377 6.097-9.726 9.5625-15.531 6.6731-11.178 7.3267-11.695 14.531-11.719 3.8441-0.013 4.2707 0.372 19.188 15.812l15.25 15.75 6.3438-0.5938c3.4768-0.324 6.8065-1.0027 7.4062-1.5 0.5999-0.4968 7.2494-2.1682 14.812-3.75 44.875-9.3829 54.767-11.544 56.25-12.406 2.0964-1.2191 5.9332-1.2692 8.0625-0.062 2.2426 1.2703 36.11 7.625 40.656 7.625 3.0248 0 5.7655-1.4825 16.219-8.5625 6.9297-4.6934 12.796-8.5312 13.062-8.5312 0.9895 0 36.268-23.972 38.812-26.375 1.4531-1.3727 3.7106-4.3876 5.0625-6.75 1.3519-2.3633 3.9967-6.5476 5.8438-9.2813l3.3125-4.9687 6.7812 0.5937c6.7885 0.6024 10.726 2.111 24.281 9.2813 3.3936 1.795 9.7988 4.9357 14.281 7 6.8817 3.1683 8.3965 4.2525 9.4688 6.9374 2.2015 5.5127 11.383 20.659 13.062 21.531 1.5725 0.81699 35.626-3.4448 37.688-4.7187 0.5222-0.323 3.5238-0.9026 6.6562-1.2813 6.97-0.8423 7.6619-1.2102 14.219-7.375 3.8614-3.6307 5.25-5.6309 5.25-7.5313 0-3.2021 0.023-3.1481-10.031-5.8124l-8.2187-2.1563 5.0625-1.125c2.804-0.5952 7.5932-1.3395 10.625-1.6875 6.7937-0.7795 7.4306-1.6477 10.219-13.719 1.1443-4.9539 2.3706-9.3847 2.75-9.9062 1.272-1.7484 4.0212-18.705 3.5313-21.719-0.2667-1.6384-1.7062-5.704-3.25-9.0937-1.544-3.3897-3.7785-8.9601-4.9063-12.375-1.6273-4.9265-3.0873-7.2995-7.2187-11.375-4.7047-4.6409-5.2188-5.5372-5.2188-9.2187 0-2.2415 0.5423-4.9054 1.1875-5.9376 0.741-1.1847 0.8537-1.9751 0.2813-3.2187-0.1699-0.3691-0.3944-0.7364-0.6875-1.2187-1.2112-1.9941-2.8317-2.8301-7.125-3.7813-5.0241-1.1131-7.4427-1.9584-11.656-4.0313-1.1185-0.5499-1.8471-5.2373-3.2187-21.875-1.6099-19.524-1.6411-21.542-0.25-25.844 2.0049-6.2015 1.9481-8.9598-0.5-14.844l-2.0625-4.9375 8.5937-8.6875c4.7259-4.7879 9.0121-9.6026 9.5625-10.688 1.749-3.4471 5-25.03 4.0313-26.781-0.4851-0.87678-4.3184-4.9966-8.5313-9.1562-4.2128-4.1597-7.625-8.1636-7.625-8.875 0-1.0648 2.177-1.1437 12.531-0.53125 15.263 0.90279 16.523 0.84819 18.188-0.53125 0.7208-0.59764 1.8768-4.7712 2.5312-9.3125 0.6542-4.5413 1.5913-8.8198 2.0938-9.4688 0.9642-1.246-1.1239-3.4578-6.1875-6.5938-1.4365-0.88956-2.8934-2.502-3.2188-3.5625-0.1363-0.44233-0.7814-1.9249-1.5-3.5-1.0042-2.2014-2.2984-4.8664-3.8125-7.9062-2.5973-5.2149-6.1313-12.851-7.9062-16.938l-3.2813-7.4062 1.9375-7.4062c1.0438-4.0832 1.8438-8.75 1.8438-10.375 0-2.9475-5.8674-15.805-11.781-25.688-1.7165-2.8682-4.3356-9.0254-5.7812-13.719-1.4456-4.6934-3.18-9.1865-3.9063-9.9688-1.794-1.9322-16.012-3.7686-19.781-2.5625-1.5663 0.50114-5.3522 2.1229-8.4375 3.625-4.8469 2.3596-6.767 2.7188-13.781 2.7188h-8.0937l-4.0938-4-4.1562-4.0312-12-0.34375c-9.9361-0.26319-12.452-0.64618-14.531-2.125-5.5787-3.9679-7.0741-3.9995-15.594-0.34375l-7.875 3.375-15.156-0.96875c-8.3159-0.54604-17.528-1.6249-20.531-2.4062-3.9734-1.0338-7.9036-1.2392-14.406-0.8125l-8.9375 0.59375v-3.8125c0-2.4096-0.762-4.7093-2-6.2812-2.5759-3.2711-13.172-9.1562-16.5-9.1562-1.5595 0-4.9819 1.6684-8.5 4.125-6.5048 4.542-7.1383 4.4284-8.5312-1.9062-0.8833-4.0168-2.799-5.521-10.031-7.7188l-6.1875-1.875-1.9375-7.625c-2.3283-9.1008-3.2004-10.268-8.0937-11.094-3.3873-0.57161-3.9864-1.1182-6.0313-5.5312-1.247-2.6908-3.3605-8.215-4.7187-12.219l-1.5-4.4062-1-2.8125 3.0312-7.8125 3.0938-7.75-1.9375-3.4688c-1.0485-1.8903-2.8809-5.1431-4.125-7.2812l-2.2808-3.9068 4.1875-5.125c9.6295-11.709 12.573-14.487 17.812-17.094 2.9812-1.4829 5.8449-2.6856 6.4063-2.6875 1.8333-0.006 4.9725-4.1177 9-11.844 2.1746-4.1719 4.5193-8.2803 5.1875-9.0625 2.2127-2.5904 5.1875-9.3426 5.1875-11.719 0-1.2866-1.4807-5.2396-3.3125-8.75-3.1801-6.0943-3.3976-7.2642-5.3125-25.906-2.3039-22.43-2.4014-22.64-11.156-25.094-7.4498-2.0879-10.308-1.9016-15.281 0.9375l-4.25 2.4688-2.0938-2.5938c-1.6006-2.0047-1.8523-3.1519-1.25-5.25 0.5902-2.0551 0.2164-3.8093-1.625-7.5-1.3235-2.653-2.2303-5.0513-1.9687-5.3125 0.2615-0.26123 4.4861-0.90072 9.375-1.4062 21.636-2.2372 21.119-2.0175 22.594-5.1875 0.069-0.14936 0.1385-0.24093 0.2188-0.40625 3.2524-6.6472 2.5345-8.725-6.7188-19.312-12.822-14.671-12.989-14.844-16.031-14.844-1.5416 0-4.4828 1.2398-6.6563 2.8125l-3.8437 2.8125-3.75-5.9062c-5.1912-8.1798-6.8508-9.4056-14.406-10.688-5.769-0.9788-7.3673-1.7606-13.656-6.6875l-7.0938-5.5625-0.062-12.656c-0.077-14.888-0.6649-16.232-9.3437-21.125-2.9882-1.6846-6.8162-4.4915-8.5-6.1875-1.6837-1.696-3.9912-3.3067-5.0938-3.6562-2.4905-0.78957-8.4687 0.24363-8.4687 1.4688 0 0.93164-3.403 4.7188-4.25 4.7188-0.2611 0-0.5313-2.3569-0.5313-5.25 0-7.2793-2.0915-9.1095-13.875-11.906-5.07-1.2033-9.2856-2.717-9.5625-3.4375-0.2724-0.70875-1.8041-1.9733-3.4375-2.75-1.6336-0.77675-4.0698-1.9894-5.375-2.75-1.3052-0.76061-3.4066-1.3988-4.7187-1.4062-1.7599-0.009-3.4868-1.4186-6.5313-5.3125-1.0364-1.3254-2.1446-2.6063-3.1875-3.6562z"/>
 <path id="path26" d="m923.31 425.86c-7.701-2.7343-12.674 1.243-12.423 11.185 0.2445 9.9425 5.4686 15.659 13.17 11.931l-0.7464-23.117z" stroke="#000" stroke-width=".80420" fill="#fff"/>
 <path id="path28" d="m930.08 407.24c-6.4144-5.0645-12.398-2.8932-15.357 6.6022-2.9594 9.4947 0.1482 16.586 8.6404 15.529l6.7167-22.132z" stroke="#000" stroke-width=".80420" fill="#fff"/>
 <path id="path30" d="m940.75 389.22c-5.5265-6.0289-11.78-4.8458-16.226 4.0525-4.4392 8.899-2.5091 16.395 6.0476 16.715l10.178-20.768z" stroke="#000" stroke-width=".80420" fill="#fff"/>
 <path id="path32" d="m933.75 476.81c-9.4446 3.4799-10.442 16.406-4.4714 24.36 5.9639 7.9538 16.901 9.4452 22.865 0l-18.394-24.36z" stroke="#000" stroke-width=".80420" fill="#fff"/>
 <path id="path34" d="m922.82 449.47c-8.9491-2.9826-17.01 9.0366-18.394 19.885-1.7371 13.671-21.128 18.145-10.435 38.775 2.2324-13.173 10.937-20.382 17.892-20.879 6.961-0.49731 17.403-1.9886 21.874-10.44l-10.937-27.341z" stroke="#000" stroke-width=".80420" fill="#fff"/>
 <path id="path36" d="m951.16 502.67c-10.442 2.4853-11.934 16.405-4.4778 26.348 6.3821 8.5123 26.346 6.4625 25.85-1.9886l-21.372-24.359z" stroke="#000" stroke-width=".80420" fill="#fff"/>
 <path id="path38" d="m980.73 586.43c0.4953-8.9478-13.916-12.428-20.877-10.688-6.9611 1.7403-20.259-0.24833-23.367-7.7055-2.4833 5.9659 1.1195 12.428 11.188 15.659 7.6175 2.4467 7.4566 7.9538 5.2177 10.44 5.7195 0.99399 22.62 0.99399 27.838-7.7055z" stroke="#000" stroke-width=".80420" fill="#fff"/>
 <path id="path40" d="m972.53 529.26c-10.191-4.4739-16.232 2.3405-20.131 8.9478-5.7195 9.6941-23.367-2.7336-29.331 10.191 8.0807-3.4799 16.303 3.9412 20.131 6.4626 10.937 7.2082 32.065 4.9712 35.05-11.931l-5.7195-13.671z" stroke="#000" stroke-width=".80420" fill="#fff"/>
 <path id="path42" d="m978.49 541.19c-10.191 7.7049-14.167 16.902-13.916 23.116 0.251 6.2142 8.9491 19.885 18.394 20.631 5.4686-11.185 8.2028-34.799-4.4778-43.747z" stroke="#000" stroke-width=".80420" fill="#fff"/>
 <path id="path44" d="m936.24 589.16c0-3.7283 5.4685-5.2196 9.1935-3.9772 3.7315 1.243 9.4446 4.9712 7.4566 8.9485l-16.65-4.9712z" stroke="#000" stroke-width=".80420" fill="#fff"/>
 <path id="path46" d="m880.07 568.78c-0.9908-4.4739 6.2149-12.179 15.91-7.9539 9.689 4.2256 10.937 12.428 6.9546 15.659l-22.865-7.7055z" stroke="#000" stroke-width=".80420" fill="#fff"/>
 <path id="path48" d="m903.68 576.99c-0.7464-2.4859 6.2342-7.4508 18.149-4.4746 11.928 2.9833 14.855 10.664 14.418 16.654l-32.567-12.179z" stroke="#000" stroke-width=".80420" fill="#fff"/>
 <path id="path50" d="m878.82 568.78c6.2148-4.7223 3.8601-13.673-1.7436-16.405-10.191-4.9712-6.4593-17.896-12.925-20.382-6.4593-2.4859-12.674-6.9598-12.925-11.434-3.2298 6.2136-1.2418 11.931 3.236 15.908 4.4713 3.9773-3.4806 20.133 2.2324 24.359l22.125 7.9539z" stroke="#000" stroke-width=".80420" fill="#fff"/>
 <path id="path52" d="m745.59 565.3c-5.2196-8.2022-17.648-6.7109-22.868-0.99399-5.2195 5.7169-4.4739 14.168 0.4974 17.896l22.37-16.902z" stroke="#000" stroke-width=".80420" fill="#fff"/>
 <path id="path54" d="m775.42 553.12c-1.9886-10.936-15.163-12.179-22.371-9.4452-7.2082 2.7343-12.179 13.671-7.4566 21.625l29.827-12.179z" stroke="#000" stroke-width=".80420" fill="#fff"/>
 <path id="path56" d="m795.31 551.63c4.7222-9.1968-4.4739-22.868-14.914-24.856-8.7157-1.6579-19.015-1.6155-22.371-10.191-2.1127 7.4572 3.4807 12.179 9.9432 16.405 6.4619 4.2256-1.2436 15.163 9.1961 21.376l18.145-2.7343z" stroke="#000" stroke-width=".80420" fill="#fff"/>
 <path id="path58" d="m794.31 551.95c-2.1751-6.588 2.2371-15.353 11.168-14.739 8.9311 0.61441 14.02 7.1046 10.083 15.218l-21.25-0.47929z" stroke="#000" stroke-width=".80420" fill="#fff"/>
 <path id="path60" d="m814.2 552.44c-1.2289-6.828 4.3697-14.885 13.126-13.024 8.7563 1.8612 12.88 9.0019 7.8491 16.482l-20.975-3.4581z" stroke="#000" stroke-width=".80420" fill="#fff"/>
 <path id="path62" d="m833.94 555.58c-0.8879-6.8827 5.1082-14.649 13.761-12.354 8.6531 2.2962 12.417 9.6356 7.0125 16.854l-20.774-4.4997z" stroke="#000" stroke-width=".80420" fill="#fff"/>
 <path id="path64" d="m683.95 669.45c-16.654 0-20.722 3.965-23.117 21.128-2.9825 21.376 26.099 23.862 23.117-21.128z" stroke="#000" stroke-width=".80420" fill="#fff"/>
 <path id="path66" d="m691.41 647.08c-25.602-9.6941-39.521 30.822-64.874 23.613 9.072 14.416 31.064 0.0263 39.272 1.4914 13.92 2.4859 43.996-2.7344 25.602-25.105z" stroke="#000" stroke-width=".80420" fill="#fff"/>
 <path id="path68" d="m674.75 702.51c-12.677-5.7161-26.347 13.672-23.862 22.122 3.1557 10.734 32.064 1.9887 23.862-22.122z" stroke="#000" stroke-width=".80420" fill="#fff"/>
 <path id="path70" d="m615.6 786.03c6.9599 1.9817 15.41 5.9641 13.919 19.384-1.4914 13.421-26.844 40.763-49.712 42.256-22.868 1.4927-31.07 29.08-50.706 21.372 18.393-3.4742 18.393-24.358 32.81-30.817-10.44-3.7315-15.908 19.886-29.33 19.886-13.423 0-19.885 21.372-36.29 19.88-16.405-1.4861-18.132 26.024-50.955 26.352-25.105 0.2446-56.175 29.575-67.36 16.901 24.36-3.4806 34.188-16.978 48.718-31.821 23.365-23.856 49.712-13.17 58.661-34.298-10.689 7.2057-23.117 10.686-35.296 10.442-15.289-0.3153-32.064 24.358-49.215 13.421 9.9425-1.2418 16.406-5.4686 26.845-16.406 10.691-11.201 26.377-3.9631 38.775-15.408 19.388-17.898 36.042-2.9851 54.684-25.355-5.2201-2.4833-16.405-0.7462-26.845 4.7224-10.44 5.4684-23.862-3.7315-35.793 2.7342 1.4914-14.662 29.33-6.2727 46.729-16.406 19.637-11.433 35.918-8.0806 51.452-6.7102-21.625-0.122-30.076-20.633-59.903-14.669-13.009 2.6056-23.365-17.892-36.29-7.4566 0.3724-7.701 13.92-13.917 27.839-6.4594 13.919 7.4566 19.528-6.5249 47.226 10.937 11.434 7.2057 31.07-4.4778 43.498 3.2297-1.6156-4.7223-8.7002-7.7075-17.026-7.0835 5.2201-10.686 38.9-9.3223 53.565 1.3703z" stroke="#000" stroke-width=".80420" fill="#fff"/>
 <path id="path72" d="m637.72 769.87c-10.937-8.4511-26.098 1.7422-36.538-2.2369 0 6.9579 3.4799 17.4 14.914 21.376 3.4798-2.4833 19.139-16.155 21.625-19.139z" stroke="#000" stroke-width=".80420" fill="#fff"/>
 <path id="path74" d="m654.87 745.76c-17.151-8.6996-20.133 12.925-33.556 8.4511 0.4974 6.2142 5.4685 13.92 16.405 15.659l17.151-24.11z" stroke="#000" stroke-width=".80420" fill="#fff"/>
 <path id="path76" d="m665.06 726.12c-25.353-9.9425-28.584 14.416-43.498 9.6935 3.48 8.4512 24.856 12.925 35.793 9.9425l7.7055-19.636z" stroke="#000" stroke-width=".80420" fill="#fff"/>
 <path id="path78" d="m699.86 619.49c-6.7116-9.4452-20.879-1.7396-23.116 9.4452-2.2369 11.185 3.2311 26.845 12.677 23.365l10.439-32.81z" stroke="#000" stroke-width=".80420" fill="#fff"/>
 <path id="path80" d="m717.01 589.66c-11.682-2.7336-25.105-1.4913-23.613 9.9425-4.4746 1.9886-5.7169 16.654 6.4625 19.885l17.151-29.827z" stroke="#000" stroke-width=".80420" fill="#fff"/>
 <path id="path82" d="m724.72 581.96c-11.434-13.422-24.185-13.11-31.319-7.4572-13.174 10.44-25.975 4.4746-26.348 14.914 7.9546-6.0894 14.914 1.243 21.376-0.99399 6.4625-2.237 11.186 10.191 29.082 4.9712l7.2081-11.434z" stroke="#000" stroke-width=".80420" fill="#fff"/>
 <path id="path84" d="m697.13 782.55c1.7401 3.2295 12.428 4.7222 17.648-0.7464 6.918-7.2506-0.7458-27.344-11.683-28.835-10.936-1.4912-11.93 22.62-5.9651 29.582z" stroke="#000" stroke-width=".80420" fill="#fff"/>
 <path id="path86" d="m684.7 783.04c15.659 5.713 22.37-7.212 13.919-15.412-2.237 2.7342-10.44 12.677-13.919 15.412z" stroke="#000" stroke-width=".80420" fill="#fff"/>
 <path id="path88" d="m626.04 804.42c-2.9833 8.9491-18.394 10.442-35.793 38.28-17.4 27.838-34.053 16.155-38.279 35.295 20.879-16.901 37.276-5.6744 49.712-22.37 18.891-25.355 34.447-21.713 41.759-38.775 10.439-24.358 56.175-23.862 58.66-62.139-15.411-2.9833-64.129 38.277-76.059 49.709z" stroke="#000" stroke-width=".80420" fill="#fff"/>
 <path id="path90" d="m1018.3 428.59c19.886 6.4625 20.382 32.313 43.247 40.764 22.871 8.4512 25.11 28.833 43.748 23.862-17.396-4.7229-16.155-24.856-34.298-29.827-21.282-5.8301-29.331-38.279-46.238-43.25" stroke="#000" stroke-width=".80420" fill="#fff"/>
 <path id="path94" d="m1109.5 563.56c3.4805 7.9538 2.9852 22.122-9.4445 25.85 6.7102 4.2256 16.65 0.24834 22.119-8.9478-8.2029 18.145-2.7343 34.55 10.191 37.781-6.2149-12.677 7.7075-18.643 3.2362-26.845 8.2028 3.4799 15.408 14.665 15.157 21.625 10.693-11.931-7.9519-27.839-4.4713-39.024l-36.787-10.44z" stroke="#000" stroke-width=".80420" fill="#fff"/>
 <path id="path96" d="m980.73 691.32c-12.179-10.688-17.377 2.7942-23.367-1.8644-5.5908-4.3498-13.047-4.9713-15.904-0.62149 10.442 0.3732 5.34 8.4511 25.599 10.44-20.259 1.3673-16.528 23.986-30.077 22.868 14.418 13.671 21.874-12.18 33.558-7.9539-3.4806 0.994 5.4684 9.1969-0.7464 20.133 10.069-0.2484 14.167-14.168 15.415-21.376l-4.4778-21.625z" stroke="#000" stroke-width=".80420" fill="#fff"/>
 <path id="path98" d="m712.54 807.4c-4.4745-3.7251-17.4-5.4685-22.371-2.4834-4.9706 2.9789-3.2309 3.7251 2.7342 4.2269 5.9658 0.4954 13.669 10.146 0.7457 10.686-5.9652 0.2445-3.9766 14.662-16.405 15.659 5.0954 6.2148 19.637 2.1102 24.856-4.7222-0.9939 5.5907 6.4626 10.686 3.48 17.396 9.1969 0.9972 3.8524-18.638 18.394-17.647-5.9658 0.7463-3.4798 14.167 6.9592 10.686-6.2136 2.9853-2.9826 10.191 3.9772 8.4537-4.4739 1.4927-5.9657 7.2057 0.2485 10.442 5.9658-8.2028-0.7456-37.534-22.619-52.698z" stroke="#000" stroke-width=".80420" fill="#fff"/>
 <path id="path102" d="m1253.9 533.14c19.024 0 34.446-15.425 34.446-34.451 0-19.024-15.421-34.449-34.446-34.449-19.031 0-34.452 15.425-34.452 34.449 0 19.026 15.421 34.451 34.452 34.451z" stroke="#000" stroke-width=".80420" fill="#fff"/>
 <path id="path106" d="m1073.9 574.75c10.442-9.9425 26.352-14.914 37.283-7.4572 10.937 7.4572 47.229 16.405 65.127 3.9772 17.892-12.428 26.346-18.891 34.297-17.4 5.9705 8.9485 13.176 13.174 22.125 13.92 2.7342 2.9826 12.43 5.4686 17.898 4.7222 7.9519 1.9886 17.647-0.49666 25.348-8.9478 11.934 1.7396 23.116-7.2082 27.343-20.631 12.674-1.4913 13.42-15.659 5.4686-25.105-7.4566-1.4913-1.7371-26.596-28.835-21.625 11.439 6.9592 2.7342 20.879 12.185 27.342-6.4658 0-14.791 2.7343-16.779 12.428 2.4833-6.7109-0.3732-11.185-2.1168-12.676 0.2509-5.7169-12.423-19.761-24.358-14.665 8.576 1.8645 3.7315 15.659 9.9463 20.879-4.4777 0.24898-9.2001 2.4859-11.934 6.4626-3.2297-5.7169-14.662-11.682-21.623-12.179 0-1.9886-0.373-5.9652-1.2415-7.9538-3.1076-5.9652-5.7196-13.049-4.478-22.122-5.9639 6.4625-10.937 15.411-13.916 21.874-9.4444-6.4626-32.811 2.9826-43.748 5.4679-10.937 2.4859-47.724-3.4793-56.178-12.428-8.4472-8.9478-24.853-14.416-40.261-18.89-21.192-6.1505-21.379-29.33-44.746-45.238-0.4955 28.833 43.253 120.3 53.193 130.25z" stroke="#000" stroke-width=".80420" fill="#fff"/>
 <path id="path110" d="m830.35 794.48c18.394 0 33.307-14.913 33.307-33.307s-14.913-33.305-33.307-33.305c-18.395 0-33.307 14.912-33.307 33.305 0 18.394 14.912 33.307 33.307 33.307z" stroke="#000" stroke-width=".80420" fill="#fff"/>
 <path id="path114" d="m750.81 768.87c6.7108 8.7 18.145 8.2047 22.867 7.4584 3.9772 10.435 16.653 10.191 22.122 15.904 5.4684 5.7196 24.108 5.2241 29.576 1.988-4.9667-0.4953-11.431-3.4741-17.645-8.6983-7.5011-6.2984-3.9774-18.89-9.9425-23.364 4.4739-4.9713 5.2195-13.174 4.2254-16.405 4.723-2.7342 8.2022-7.2082 8.6996-9.4452 8.2034-0.4973 15.409-4.723 18.394-7.9539 4.2268 3.9767 14.913-1.243 20.632 5.468 1.2416-16.405-14.418-25.105-24.86-19.636-4.2269-2.2371-15.41-0.7457-17.398 2.237-3.4798-1.4914-13.174 3.4799-17.648 6.7108 4.9713-2.7336 5.7169-10.936 3.7283-13.919 4.2257-1.7397 8.9485-7.4566 9.4452-11.682 5.9659 0.9939 14.912-2.9833 18.888-1.9886-6.4592-8.4513-17.147-11.434-28.085-10.688-11.31 0.6221-16.156 8.5759-17.647 17.151-6.7116 3.9766-8.9486 17.399-6.4627 22.122-3.8537-0.1235-7.457 3.6048-8.9484 5.7169-5.2196-2.2371-12.677-3.8518-18.021-3.8518" stroke="#000" stroke-width=".80420" fill="#fff"/>
 <path id="path118" d="m745.1 712.45c-2.2368-6.4625 0.7258-12.28 2.2371-17.399 3.8524-13.049 1.4912-16.405-10.191-14.665-0.9941 6.2134 4.9712 26.596 7.9537 32.064z" stroke="#000" stroke-width=".80420" fill="#fff"/>
 <path id="path120" d="m736.52 681.13c2.9825 2.9825 13.547 4.3504 14.665-5.0948 1.2842-10.843-3.1068-15.039-12.552-10.814-0.7456 2.4859-1.6168 12.677-2.1133 15.908z" stroke="#000" stroke-width=".80420" fill="#fff"/>
 <path id="path122" d="m738.76 664.85c3.9773 1.6149 12.553 4.8465 17.276-4.3504 3.9618-7.7132-1.2423-13.671-9.4445-13.174-1.9892 2.237-5.966 10.191-7.831 17.524z" stroke="#000" stroke-width=".80420" fill="#fff"/>
 <path id="path124" d="m746.09 646.58c0.9941 2.9826 11.186 12.925 18.642 5.7169 7.457-7.2082 7.457-17.896-3.7283-21.873-2.9833 0.49666-11.931 10.936-14.914 16.156z" stroke="#000" stroke-width=".80420" fill="#fff"/>
 <path id="path126" d="m761.01 630.43c2.2369 6.2136 9.1961 16.902 22.121 11.93 12.926-4.9712 7.4571-21.127 1.4919-24.359-3.4799 0.24898-17.648 6.7115-23.613 12.428z" stroke="#000" stroke-width=".80420" fill="#fff"/>
 <path id="path128" d="m784.62 618c-0.9947 5.4686 0 20.382 17.647 20.133 17.645-0.24833 12.679-20.879 8.2028-23.862-7.2081 0-19.388 0.24833-25.85 3.7283z" stroke="#000" stroke-width=".80420" fill="#fff"/>
 <path id="path130" d="m811.21 615.01c-1.9886 4.2256-6.469 32.039 28.088 24.359 4.4713-0.99399 16.155-26.596-28.088-24.359z" stroke="#000" stroke-width=".80420" fill="#fff"/>
 <path id="path132" d="m830.1 617.5c-3.4742 3.4793 5.4686 31.567 28.835 26.844 23.367-4.7229 3.7315-31.319-28.835-26.844z" stroke="#000" stroke-width=".80420" fill="#fff"/>
 <path id="path134" d="m849.99 621.73c-3.725 7.7055 1.8722 30.573 30.701 30.573 26.127 0-1.3703-30.076-30.701-30.573z" stroke="#000" stroke-width=".80420" fill="#fff"/>
 <path id="path136" d="m872.61 628.44c-1.8722 4.2713-4.1625 28.515 29.826 30.573 24.608 1.4913 18.644-33.307-29.826-30.573z" stroke="#000" stroke-width=".80420" fill="#fff"/>
 <path id="path138" d="m909.15 638.63c-4.2204 7.4572-8.6982 26.099 28.585 27.59 23.888 0.95608 9.1999-27.093-28.585-27.59z" stroke="#000" stroke-width=".80420" fill="#fff"/>
 <path id="path140" d="m940.22 644.34c-5.4686 7.4572-1.4413 22.084 12.423 24.856 17.403 3.4798 19.886-12.925 7.9584-20.879-11.934-7.9539-20.382-3.9772-20.382-3.9772z" stroke="#000" stroke-width=".80420" fill="#fff"/>
 <path id="path142" d="m957.12 647.82c-3.976 6.9599-1.512 23.862 24.853 23.862 5.4685 0 26.352-21.376-24.853-23.862z" stroke="#000" stroke-width=".80420" fill="#fff"/>
 <path id="path146" d="m753.06 971.97c21.354 0 38.667-17.313 38.667-38.666 0-21.36-17.312-38.672-38.667-38.672-21.356 0-38.668 17.313-38.668 38.672 0 21.353 17.312 38.666 38.668 38.666z" stroke="#000" stroke-width=".80420" fill="#fff"/>
 <path id="path150" d="m1036.7 409.7c-2.9853 2.9826-9.1937 11.93-10.442 15.41-12.925 38.775 21.578 67.74 41.76 109.37 15.91 32.81 13.922 84.511-10.937 117.32-8.5053 11.223-5.964 14.416-16.901 25.85-4.1946 4.3865-8.949 9.9425-7.4564 25.85 6.9611-2.4859 16.901 3.9772 18.889 9.4452 4.9731-2.4853 11.934-1.4912 14.418 1.4913 8.4472-3.9766 15.408-1.9886 22.865 5.9659 6.4658-0.9947 13.427 0 19.886 6.9592 3.4806-6.9592 10.442-9.4451 15.408-7.9539-0.4953-8.9478 8.4538-15.41 16.406-11.93-2.4833-11.931 8.4537-20.88 18.895-17.4 8.9428-6.9599 26.841-7.4566 35.79 2.9827-15.91-4.4739-15.408 12.428-28.835 10.937 3.4806 9.9425-5.4686 15.659-14.411 18.89 5.713-2.7344 11.928-5.9653 13.916-2.4853 4.9731-4.3492 14.913-2.7342 17.403-0.4973 6.5815-2.1122 12.925-0.4974 15.904 7.4565 8.9492 5.4685 14.913 19.388 8.4537 29.827-1.9879-10.936-9.4444-10.44-12.43-14.914-6.9611 2.4859-13.922 2.4859-15.91-1.9886-3.976 3.9773-17.396 7.4572-23.36 1.4914-2.2389 8.9484-9.9464 16.406-18.896 16.406 2.4898 6.9593-4.4714 18.893-9.9399 24.857 8.4538 4.4714 5.964 14.418 3.976 20.382 12.925 1.988 1.988 13.421 24.358 20.877-10.931 3.4805-32.31 0-35.295-13.42-10.937-0.4954-18.394-11.433-17.892-22.871-8.4538-7.9519-9.6955-19.384 1.988-27.338-9.9464 2.9827-15.415-12.925-29.833-6.4625-7.1669 3.2155-26.095-2.2369-25.844-8.9485-2.9852 4.9713-21.128 2.9833-23.618-5.4678-5.9639 3.231-19.886-2.237-19.635-10.44-7.7075 3.4799-18.143-2.7342-17.647-10.688-7.2055-0.9939-7.9519-7.4566-7.4565-12.925-6.4659-2.9827-4.7223-9.1969-2.2388-16.654-4.4715-4.9713-2.4835-11.931 0.9971-18.394-4.9733-4.9713-3.9759-10.936-2.4898-17.896-23.862-1.9886-53.753-7.7435-122.29-28.833-103.4-31.816-131.24 42.752-108.37 89.482 26.384 53.917-2.9826 65.622 5.9658 105.89 9.4452 1.988 14.416 9.9399 13.92 18.394 5.5909 0.2446 9.5681 5.4622 7.5795 15.408 4.7228-0.8685 10.814 0.4954 14.79 4.4713 3.48-6.4592 14.914-7.9519 20.88-0.4953 12.922-0.9972 19.388 9.4446 18.892 22.37 6.9548 12.43 4.4713 27.594-2.9852 37.283 0.7464-5.2177 0-12.674-0.2445-17.146-0.4632-8.2286-11.934-9.9464-10.691-16.657-5.9651 0.4953-11.683-2.7344-13.671-7.2057-3.48 2.9788-8.4513 3.976-12.677 2.4834 6.7108 2.9852 11.931 14.913 9.9424 22.865 3.48 5.9705 2.7344 16.908-1.4912 21.63-1.9886 9.689-9.4452 13.17-19.139 8.9427 5.4686-3.4741 7.4566-9.6889 7.2081-14.913-3.4798-2.9788-5.2195-8.6983-5.4684-12.179-9.6936 1.4924-23.116-6.7104-25.592-9.9529-21.356 0-38.668 17.313-38.668 38.672-0.9939-7.9584-11.054-15.794-9.8113-22.505-5.9652-18.394 2.4859-35.546 26.845-39.02-2.9827-6.9611 7.4566-14.173 3.4798-22.125-5.0805-10.158-14.416-23.367-28.335-38.775 8.4511-14.418 5.9651-33.802 0.9939-45.736-7.1387-17.133-13.92-12.925-39.273 14.912-41.318 45.37-96.442 32.811-145.16 62.637-12.945 7.9262-25.849 10.937-11.93-2.9788 13.92-13.922 50.706-27.838 74.568-39.772 44.686-22.344 82.522-59.655 97.436-132.23 35.045-170.56 164.05-114.34 245.57-82.523 76.541 29.871 62.638-37.781 23.862-78.545-46.605-48.996-37.283-87.493-15.408-118.32 39.271-5.4679 114.59 8.2028 99.425 21.377z" stroke="#000" stroke-width=".80420" fill="#fff"/>
 <path id="path154" d="m1175.1 828.7c23.496 0 42.545-19.043 42.545-42.539 0-23.497-19.05-42.545-42.545-42.545-23.496 0-42.545 19.048-42.545 42.545 0 23.496 19.05 42.539 42.545 42.539z" stroke="#000" stroke-width=".80420" fill="#fff"/>
 <path id="path158" d="m1012.8 411.69c-9.4445 41.759-1.4926 60.649 12.43 79.043 28.765 38.016 51.7 124.78 18.889 181.45" stroke="#000" stroke-width=".80420" fill="none"/>
 <path id="path162" d="m1062.5 623.22c3.976-1.4913 11.433-6.2136 13.176-14.416" stroke="#000" stroke-linecap="round" stroke-width=".80420" fill="none"/>
 <path id="path164" d="m1065.5 605.07c1.2416-7.2082 12.423-10.314 12.674-18.02" stroke="#000" stroke-linecap="round" stroke-width=".80420" fill="none"/>
 <path id="path166" d="m1065.7 576.99c-0.7462-7.4572 11.188-14.168 9.4446-21.625" stroke="#000" stroke-linecap="round" stroke-width=".80420" fill="none"/>
 <path id="path168" d="m1059.3 550.14c-0.9973-4.2256 9.9399-12.179 6.9611-18.89" stroke="#000" stroke-linecap="round" stroke-width=".80420" fill="none"/>
 <path id="path170" d="m1051.1 524.04c-2.2388-4.7229 5.2176-10.191 1.988-15.163" stroke="#000" stroke-linecap="round" stroke-width=".80420" fill="none"/>
 <path id="path172" d="m1039.1 503.16c-0.7463-3.231 3.8537-10.314 1.3703-14.539" stroke="#000" stroke-linecap="round" stroke-width=".80420" fill="none"/>
 <path id="path174" d="m1027.2 478.56c0.9908-1.243 4.9731-4.2256 3.3519-7.9539" stroke="#000" stroke-linecap="round" stroke-width=".80420" fill="none"/>
 <path id="path176" d="m1019 460.54c1.6148-0.87047 6.4593-2.3624 5.8416-5.9652" stroke="#000" stroke-linecap="round" stroke-width=".80420" fill="none"/>
 <path id="path180" stroke-linejoin="round" d="m770.2 929.2c-9.9425-3.4806-22.37 1.4925-24.856 9.9464" stroke="#000" stroke-linecap="round" stroke-width=".80420" fill="none"/>
 <path id="path182" stroke-linejoin="round" d="m752.8 946.84c1.243-8.4474 14.168-12.179 18.145-8.2028-8.2023-4.4715-12.179 11.432-4.9713 11.934" stroke="#000" stroke-linecap="round" stroke-width=".80420" fill="none"/>
 <path id="path184" stroke-linejoin="round" d="m832.84 750.23c-5.9641 2.9833-7.7011 13.92 0 22.125" stroke="#000" stroke-linecap="round" stroke-width=".80420" fill="none"/>
 <path id="path186" stroke-linejoin="round" d="m841.79 752.72c-4.2204 3.4799-3.976 13.919 2.2389 16.405-5.2177-3.7283 0-10.191 3.7315-10.44 3.7251-0.2483 6.2084 4.2256 1.7371 8.6996" stroke="#000" stroke-linecap="round" stroke-width=".80420" fill="none"/>
 <path id="path188" stroke-linejoin="round" d="m1191 777.32c-13.916-3.7251-25.104 12.43-12.43 26.848-0.2444-13.922 9.6955-23.116 21.874-20.633" stroke="#000" stroke-linecap="round" stroke-width=".80420" fill="none"/>
 <path id="path190" stroke-linejoin="round" d="m1194.9 793.17c-3.4227 0-5.3463 2.6763-5.3463 5.2819 0 2.7342 2.361 5.3463 6.2148 5.3463 2.4898 0 4.4778-2.8565 4.4778-5.0954" stroke="#000" stroke-linecap="round" stroke-width=".80420" fill="none"/>
 <path id="path192" stroke-linejoin="round" d="m1244 488c2.2389 8.4512 13.922 11.931 23.116 9.9425" stroke="#000" stroke-linecap="round" stroke-width=".80420" fill="none"/>
 <path id="path194" stroke-linejoin="round" d="m1267.1 492.47c-7.2057 0.24898-13.17-6.4626-12.674-12.179 0 4.2256 9.6953 6.2142 12.674 3.4799" stroke="#000" stroke-linecap="round" stroke-width=".80420" fill="none"/>
 <path id="path198" d="m773.68 776.33c-1.9879-4.9733 5.9658-9.9444 6.2143-14.667 0.2489-4.7222 8.9478-8.4505 17.896 0.4973" stroke="#000" stroke-linecap="round" stroke-width=".80420" fill="none"/>
 <path id="path200" d="m793.57 709.22c-1.7397 0.7456-3.2315 1.7397-4.7228 2.2371" stroke="#000" stroke-linecap="round" stroke-width=".80420" fill="none"/>
 <path id="path202" d="m810.72 736.31c-2.1134 0.1251-6.4625-0.1235-8.8243-1.7403" stroke="#000" stroke-linecap="round" stroke-width=".80420" fill="none"/>
 <path id="path204" d="m802.02 745.76c-1.7395 0.8711-5.5939 2.3624-7.8308 2.8597" stroke="#000" stroke-linecap="round" stroke-width=".80420" fill="none"/>
 <path id="path206" d="m716.76 895.89c-0.2491 4.4778 4.2254 10.937 6.7108 12.925" stroke="#000" stroke-linecap="round" stroke-width=".80420" fill="none"/>
 <path id="path208" d="m736.15 885.2c-2.4859 3.7251-3.9766 10.191-2.4859 14.662" stroke="#000" stroke-linecap="round" stroke-width=".80420" fill="none"/>
 <path id="path210" d="m773.18 900.12c-4.4745-2.9851-1.4912-10.693-1.9886-15.659-0.4973-4.9731 5.2202-12.925 16.405-6.2148" stroke="#000" stroke-linecap="round" stroke-width=".80420" fill="none"/>
 <path id="path212" d="m731.43 871.78c4.4745-0.7463 9.1967-0.5018 12.179 0.7399" stroke="#000" stroke-linecap="round" stroke-width=".80420" fill="none"/>
 <path id="path214" d="m788.1 857.61c-1.988 2.7344-2.4851 5.7196-2.7336 7.7075" stroke="#000" stroke-linecap="round" stroke-width=".80420" fill="none"/>
 <path id="path216" d="m808.98 857.11c-3.48 0-6.4626 2.4833-7.9539 4.9731" stroke="#000" stroke-linecap="round" stroke-width=".80420" fill="none"/>
 <path id="path218" d="m760.76 729.85c3.9773 1.3677 14.292 7.7055 14.665 14.293" stroke="#000" stroke-linecap="round" stroke-width=".80420" fill="none"/>
 <path id="path220" d="m803.01 697.54c-12.179-0.2491-16.902-12.677-7.7049-12.677" stroke="#000" stroke-linecap="round" stroke-width=".80420" fill="none"/>
 <path id="path222" d="m824.88 714.19c-4.7222 1.9886-2.4834 10.191 4.227 14.168" stroke="#000" stroke-linecap="round" stroke-width=".80420" fill="none"/>
 <path id="path224" d="m795.8 792.24c-2.3618-2.9788 0.7456-11.677 8.4511-9.0713" stroke="#000" stroke-linecap="round" stroke-width=".80420" fill="none"/>
 <path id="path226" d="m813.95 882.96c0.4941-7.5789 10.067-12.057 13.921-3.4806" stroke="#000" stroke-linecap="round" stroke-width=".80420" fill="none"/>
 <path id="path228" d="m778.65 904.59c-0.6223-8.3252 3.6034-11.059 7.3317-11.555 3.7283-0.4953 9.0739 2.6056 11.559 8.0742" stroke="#000" stroke-linecap="round" stroke-width=".80420" fill="none"/>
 <path id="path230" d="m704.58 910.8c0.4973-4.9733 4.723-10.191 9.1969-9.4446" stroke="#000" stroke-linecap="round" stroke-width=".80420" fill="none"/>
 <path id="path232" d="m1159.5 690.08c-3.236 2.3624-5.3463 12.925 6.9548 13.92" stroke="#000" stroke-linecap="round" stroke-width=".80420" fill="none"/>
 <path id="path234" d="m1140.6 707.48c0 1.2424 1.6149 2.9827 2.6121 3.7283" stroke="#000" stroke-linecap="round" stroke-width=".80420" fill="none"/>
 <path id="path236" d="m1199.2 727.36c-3.2295-2.4853-11.561 7.582-3.9759 14.914" stroke="#000" stroke-linecap="round" stroke-width=".80420" fill="none"/>
 <path id="path238" d="m1120.2 810.88c-1.8657-7.0834 4.7223-8.9491 10.937-7.4566" stroke="#000" stroke-linecap="round" stroke-width=".80420" fill="none"/>
 <path id="path240" d="m1104.3 760.67c3.725-2.4852 7.4565-5.2195 12.179-6.4625" stroke="#000" stroke-linecap="round" stroke-width=".80420" fill="none"/>
 <path id="path242" d="m1102.3 788.01c0-5.964 2.9788-10.931 5.713-12.423" stroke="#000" stroke-linecap="round" stroke-width=".80420" fill="none"/>
 <path id="path244" d="m1124.1 719.41c-0.4953 7.2083 2.4898 14.168 4.7287 17.896" stroke="#000" stroke-linecap="round" stroke-width=".80420" fill="none"/>
 <path id="path246" d="m1183.3 719.91c-3.6093 1.1194-6.8388 2.4853-8.2028 5.4686" stroke="#000" stroke-linecap="round" stroke-width=".80420" fill="none"/>
 <path id="path248" d="m1179.3 740.29c1.7434-1.4913 3.7314-3.231 4.5999-4.4739" stroke="#000" stroke-linecap="round" stroke-width=".80420" fill="none"/>
 <path id="path250" d="m1273.3 523.3c0 6.9592-8.6981 10.687-14.411 6.2136" stroke="#000" stroke-linecap="round" stroke-width=".80420" fill="none"/>
 <path id="path252" d="m1292.2 523.54c3.8473 2.9826 17.146 0.12553 14.038-7.5801" stroke="#000" stroke-linecap="round" stroke-width=".80420" fill="none"/>
 <path id="path254" d="m1276 563.56c-2.7344-0.49733-7.4566-3.4799-9.4446-5.9652" stroke="#000" stroke-linecap="round" stroke-width=".80420" fill="none"/>
 <path id="path256" d="m1303.4 542.93c-4.4713 0.99399-7.4566 0-9.6955-0.99399" stroke="#000" stroke-linecap="round" stroke-width=".80420" fill="none"/>
 <path id="path258" d="m1232.8 567.79c2.4833 0 8.4473-0.99464 12.552-3.1061" stroke="#000" stroke-linecap="round" stroke-width=".80420" fill="none"/>
 <path id="path260" d="m1225.3 523.79c-3.2297-0.37185-5.5972 0.24898-7.4565 1.4913" stroke="#000" stroke-linecap="round" stroke-width=".80420" fill="none"/>
 <path id="path262" d="m1275.4 535.97c-0.8686 3.1081-3.1076 7.9538-5.8418 10.068" stroke="#000" stroke-linecap="round" stroke-width=".80420" fill="none"/>
 <path id="path264" stroke-linejoin="round" d="m1216.9 546.91c6.2148-2.7343 13.922 18.393 28.835 10.936" stroke="#000" stroke-linecap="round" stroke-width=".80420" fill="none"/>
 <path id="path266" stroke-linejoin="round" d="m1246.9 535.97c-1.988 2.7343-3.2297 6.9599-3.4806 10.688" stroke="#000" stroke-linecap="round" stroke-width=".80420" fill="none"/>
 <path id="path270" d="m949.66 503.66c1.9879-0.24833 5.4686-0.99399 6.2148-3.4799" stroke="#000" stroke-width=".80420" fill="none"/>
 <path id="path272" d="m693.89 735.07c7.4572 4.2257 12.678 11.434 9.4458 22.122" stroke="#000" stroke-width=".80420" fill="none"/>
 <path id="path274" d="m1035.7 480.79c2.2389 1.4913 10.693 1.4913 15.415-0.24834" stroke="#000" stroke-width=".80420" fill="none"/>
 <path id="path276" d="m1057 485.76c-0.2509 3.4799 0.7462 16.653-5.964 19.388" stroke="#000" stroke-width=".80420" fill="none"/>
 <path id="path278" d="m1053.6 503.41c6.2148 1.9886 18.644 1.2423 22.62-10.191" stroke="#000" stroke-width=".80420" fill="none"/>
 <path id="path280" d="m1067.5 502.91c3.2296 4.9712 4.2204 14.665-5.4686 19.885" stroke="#000" stroke-width=".80420" fill="none"/>
 <path id="path282" d="m1070 511.12c7.2057 2.4853 23.862 2.7336 22.119-11.434" stroke="#000" stroke-width=".80420" fill="none"/>
 <path id="path284" d="m1086.4 511.12c4.9732 6.9592 26.847 15.162 23.367 0.74566" stroke="#000" stroke-width=".80420" fill="none"/>
 <path id="path286" d="m1066.2 531.25c8.4472 1.9886 20.382-3.7289 15.408-18.642" stroke="#000" stroke-width=".80420" fill="none"/>
 <path id="path288" d="m1105.5 520.06c1.2416 5.7169 29.08 11.682 25.355-1.243" stroke="#000" stroke-width=".80420" fill="none"/>
 <path id="path290" d="m1125.6 526.28c5.224 11.93 32.811 10.936 24.113-4.9712" stroke="#000" stroke-width=".80420" fill="none"/>
 <path id="path292" d="m1145.3 533.74c5.4684 6.7115 29.832 2.7343 20.137-13.422" stroke="#000" stroke-width=".80420" fill="none"/>
 <path id="path294" d="m1165.2 533.49c15.164 11.434 32.811-4.9712 13.671-16.902" stroke="#000" stroke-width=".80420" fill="none"/>
 <path id="path296" d="m1187.5 529.76c13.427 10.688 29.832-8.7002 18.149-14.168" stroke="#000" stroke-width=".80420" fill="none"/>
 <path id="path298" d="m1081.4 525.28c4.2269 1.243 13.176 0.74566 15.164-6.9592" stroke="#000" stroke-width=".80420" fill="none"/>
 <path id="path300" d="m1093.2 523.54c-0.4953 11.31 18.522 15.659 23.367 2.6108" stroke="#000" stroke-width=".80420" fill="none"/>
 <path id="path302" d="m1110.2 533.24c3.4806 7.4565 20.131 10.439 22.865-0.24898" stroke="#000" stroke-width=".80420" fill="none"/>
 <path id="path304" d="m1130.4 537.96c2.7344 7.4572 17.152 6.7115 21.128-0.99399" stroke="#000" stroke-width=".80420" fill="none"/>
 <path id="path306" d="m1146.3 541.94c4.4713 9.6935 22.865 9.6935 27.092-4.4746" stroke="#000" stroke-width=".80420" fill="none"/>
 <path id="path308" d="m1170.1 543.68c7.2057 4.4746 22.62 2.7343 21.372-11.185" stroke="#000" stroke-width=".80420" fill="none"/>
 <path id="path310" d="m1188.5 542.43c10.686 8.7002 25.85 0.24898 18.394-14.416" stroke="#000" stroke-width=".80420" fill="none"/>
 <path id="path312" d="m1206.2 553.87c5.7193-0.99399 8.6981-12.428 2.7342-15.41" stroke="#000" stroke-width=".80420" fill="none"/>
 <path id="path314" d="m1073.7 555.86c11.928-6.4625 14.167-17.399 5.964-28.087" stroke="#000" stroke-width=".80420" fill="none"/>
 <path id="path316" d="m1083.9 544.92c7.4566 4.4739 21.623-0.24833 24.107-11.185" stroke="#000" stroke-width=".80420" fill="none"/>
 <path id="path318" d="m1094.1 546.16c4.2203 5.4679 4.9667 12.179-0.5019 18.393" stroke="#000" stroke-width=".80420" fill="none"/>
 <path id="path320" d="m1097.6 553.12c13.169-8.2022 29.575 6.9599 17.396 16.157" stroke="#000" stroke-width=".80420" fill="none"/>
 <path id="path322" d="m1112.7 552.38c2.9853-0.74564 8.2028-6.2136 8.6983-12.428" stroke="#000" stroke-width=".80420" fill="none"/>
 <path id="path324" d="m1118.7 558.09c5.4686-5.7169 42.758 5.9659 19.14 17.896" stroke="#000" stroke-width=".80420" fill="none"/>
 <path id="path326" d="m1136.1 542.43c7.2057 2.7343 10.937 12.926 0 16.405" stroke="#000" stroke-width=".80420" fill="none"/>
 <path id="path328" d="m1145.5 567.29c7.9519-8.2022 32.811-2.9826 23.862 7.4572" stroke="#000" stroke-width=".80420" fill="none"/>
 <path id="path330" d="m1163.4 564.06c4.4715-15.163 31.068-5.7169 22.37 0.49668" stroke="#000" stroke-width=".80420" fill="none"/>
 <path id="path332" d="m1158 548.9c0.7462 2.9833 0.9906 10.44-3.976 14.417" stroke="#000" stroke-width=".80420" fill="none"/>
 <path id="path334" d="m1180.3 545.91c0.9909 2.4859 0.7463 7.2082-1.4926 10.191" stroke="#000" stroke-width=".80420" fill="none"/>
 <path id="path336" d="m1197.2 546.16c1.4927 2.7336 3.976 7.9539-1.4925 12.179" stroke="#000" stroke-width=".80420" fill="none"/>
 <path id="path338" d="m984.46 431.83c0.2444 14.167 5.2176 23.613 24.358 14.665" stroke="#000" stroke-width=".80420" fill="none"/>
 <path id="path340" d="m990.43 448.73c-9.4446 12.677 1.2415 26.348 19.886 12.677" stroke="#000" stroke-width=".80420" fill="none"/>
 <path id="path342" d="m961.35 454.94c12.925 13.919 36.041 3.7283 21.128-17.4" stroke="#000" stroke-width=".80420" fill="none"/>
 <path id="path344" d="m998.13 466.87c-2.4898 13.671 8.6983 16.405 17.892 10.191" stroke="#000" stroke-width=".80420" fill="none"/>
 <path id="path346" d="m949.91 457.18c2.3547 13.744 16.406 24.607 30.077 16.157" stroke="#000" stroke-width=".80420" fill="none"/>
 <path id="path348" d="m966.82 476.07c0 19.637 27.092 21.874 33.307 1.492" stroke="#000" stroke-width=".80420" fill="none"/>
 <path id="path350" d="m990.43 489.99c8.6981 17.896 27.587 10.688 33.802-0.24835" stroke="#000" stroke-width=".80420" fill="none"/>
 <path id="path352" d="m971.29 461.4c3.4806 8.6995 10.442 18.394 26.596 11.185" stroke="#000" stroke-width=".80420" fill="none"/>
 <path id="path354" d="m921.58 457.18c2.2389 7.2082 15.164 15.908 30.077 5.9652" stroke="#000" stroke-width=".80420" fill="none"/>
 <path id="path356" d="m930.78 466.38c-7.9584 11.682 7.9519 22.619 27.092 5.2196" stroke="#000" stroke-width=".80420" fill="none"/>
 <path id="path358" d="m940.22 480.79c3.2295 16.405 9.6889 29.579 33.056 8.4512" stroke="#000" stroke-width=".80420" fill="none"/>
 <path id="path360" d="m961.59 497.69c8.4537 10.439 21.379 16.902 33.558-0.74566" stroke="#000" stroke-width=".80420" fill="none"/>
 <path id="path362" d="m1004.1 500.68c-0.7462 12.428 1.7371 18.642 11.433 18.145 7.6431-0.39117 14.913-6.4625 19.14-12.925" stroke="#000" stroke-width=".80420" fill="none"/>
 <path id="path364" d="m1013.8 518.82c-0.2509 14.168 10.931 25.354 31.814 10.937" stroke="#000" stroke-width=".80420" fill="none"/>
 <path id="path366" d="m1022.5 535.48c-3.976 10.688 7.952 28.087 31.319 19.139" stroke="#000" stroke-width=".80420" fill="none"/>
 <path id="path368" d="m973.02 507.14c-1.4862 13.671 11.188 22.868 31.57 5.2196" stroke="#000" stroke-width=".80420" fill="none"/>
 <path id="path370" d="m982.97 522.3c0.7462 11.185 13.42 24.608 32.065 5.2196" stroke="#000" stroke-width=".80420" fill="none"/>
 <path id="path372" d="m991.92 536.47c-1.4924 19.139 16.155 24.607 31.068 9.9425" stroke="#000" stroke-width=".80420" fill="none"/>
 <path id="path374" d="m965.32 522.3c3.9759 0.24898 7.2057-3.231 9.1936-5.7169" stroke="#000" stroke-width=".80420" fill="none"/>
 <path id="path376" d="m973.77 536.22c3.4807 0.74566 9.4511-2.4859 11.439-6.4626" stroke="#000" stroke-width=".80420" fill="none"/>
 <path id="path378" d="m982.48 558.84c3.976 4.2256 17.396 1.243 19.133-4.4739" stroke="#000" stroke-width=".80420" fill="none"/>
 <path id="path380" d="m997.39 558.59c7.4566 17.399 27.336 16.653 35.539-2.9826" stroke="#000" stroke-width=".80420" fill="none"/>
 <path id="path382" d="m1029.2 562.57c3.725 10.191 13.176 16.653 28.584 13.173" stroke="#000" stroke-width=".80420" fill="none"/>
 <path id="path384" d="m1036.7 573.01c-8.6983 14.168 2.7342 30.821 22.119 14.416" stroke="#000" stroke-width=".80420" fill="none"/>
 <path id="path386" d="m1041.4 594.14c-0.9908 8.9478 7.212 19.139 18.394 20.382" stroke="#000" stroke-width=".80420" fill="none"/>
 <path id="path388" d="m1004.6 568.04c-2.9853 20.133 11.432 29.827 29.582 19.139" stroke="#000" stroke-width=".80420" fill="none"/>
 <path id="path390" d="m983.47 577.73c4.7224 3.7283 13.176 4.2256 21.128 1.243" stroke="#000" stroke-width=".80420" fill="none"/>
 <path id="path392" d="m1014.3 590.66c-4.4777 16.902 12.925 29.082 27.838 10.191" stroke="#000" stroke-width=".80420" fill="none"/>
 <path id="path394" d="m990.18 580.47c0.251 8.6995 8.7047 18.145 23.367 15.41" stroke="#000" stroke-width=".80420" fill="none"/>
 <path id="path396" d="m1054.6 613.28c-9.9462 6.7109-11.934 18.642 1.988 26.347" stroke="#000" stroke-width=".80420" fill="none"/>
 <path id="path398" d="m1030.2 609.8c0.5018 10.191 5.224 15.908 16.406 16.902" stroke="#000" stroke-width=".80420" fill="none"/>
 <path id="path400" d="m1015.5 604.58c-14.913 13.671-0.2509 29.579 17.396 16.157" stroke="#000" stroke-width=".80420" fill="none"/>
 <path id="path402" d="m1026 624.96c-4.9731 15.659 13.671 25.105 23.611 9.1968" stroke="#000" stroke-width=".80420" fill="none"/>
 <path id="path404" d="m995.15 591.65c-5.4686 15.411 1.4926 25.602 14.167 24.608" stroke="#000" stroke-width=".80420" fill="none"/>
 <path id="path406" d="m975.51 588.67c0.7464 9.1968 8.6983 12.428 17.647 10.44" stroke="#000" stroke-width=".80420" fill="none"/>
 <path id="path408" d="m981.23 598.36c-6.7102 12.925 3.4806 19.885 16.908 14.914" stroke="#000" stroke-width=".80420" fill="none"/>
 <path id="path410" d="m1038.9 642.11c-2.2389 8.2022-0.9973 14.168 11.181 16.902" stroke="#000" stroke-width=".80420" fill="none"/>
 <path id="path412" d="m1039.6 653.79c-14.669 6.7115-15.91 20.88-4.4778 30.076" stroke="#000" stroke-width=".80420" fill="none"/>
 <path id="path414" d="m1027.8 638.01c-7.701 6.9598-6.2148 19.014 2.2389 23.736" stroke="#000" stroke-width=".80420" fill="none"/>
 <path id="path416" d="m962.59 592.64c-8.4538 8.3276-0.3732 31.319 18.265 18.767" stroke="#000" stroke-width=".80420" fill="none"/>
 <path id="path418" d="m1011.1 621.73c-11.439 9.4458-6.2149 26.596 12.674 21.874" stroke="#000" stroke-width=".80420" fill="none"/>
 <path id="path420" d="m992.16 614.52c-5.9639 16.902-0.2446 22.868 13.176 23.117" stroke="#000" stroke-width=".80420" fill="none"/>
 <path id="path422" d="m950.16 591.9c-10.191 7.7049-7.4566 18.642-2.9788 23.613 4.4712 4.9712 12.919 2.7343 15.653-3.7283" stroke="#000" stroke-width=".80420" fill="none"/>
 <path id="path424" d="m928.78 585.19c-11.432 14.665 0 32.064 16.161 26.845" stroke="#000" stroke-width=".80420" fill="none"/>
 <path id="path426" d="m989.93 628.69c-11.683 4.2256-20.594 14.834-13.427 24.111 4.2269 5.4686 22.62 6.2142 27.838-14.914" stroke="#000" stroke-width=".80420" fill="none"/>
 <path id="path428" d="m968.8 615.01c-6.7103 9.6942-4.4778 18.891 7.9519 23.613" stroke="#000" stroke-width=".80420" fill="none"/>
 <path id="path430" d="m968.06 633.16c-7.212 3.9772-11.934 8.7001-10.191 17.4" stroke="#000" stroke-width=".80420" fill="none"/>
 <path id="path432" d="m951.9 618c-2.7343 11.683 0.4954 18.891 7.701 22.371" stroke="#000" stroke-width=".80420" fill="none"/>
 <path id="path434" d="m951.65 631.92c-11.188-0.74566-16.901 3.9766-13.176 14.914" stroke="#000" stroke-width=".80420" fill="none"/>
 <path id="path436" d="m939.47 634.65c-10.937-3.9772-12.681-13.422-7.9583-23.365" stroke="#000" stroke-width=".80420" fill="none"/>
 <path id="path438" d="m930.03 625.95c-11.934 0.49731-17.152 6.4626-17.152 14.665" stroke="#000" stroke-width=".80420" fill="none"/>
 <path id="path440" d="m913.87 579.47c-8.6983 3.7283-11.432 15.411-8.2028 21.874 3.236 6.4625 13.427 6.9599 19.642 2.7343" stroke="#000" stroke-width=".80420" fill="none"/>
 <path id="path442" d="m889.51 570.27c-7.952 8.9485 1.2415 26.348 15.415 22.122" stroke="#000" stroke-width=".80420" fill="none"/>
 <path id="path444" d="m869.13 563.31c-7.4564 10.439 0.7464 27.839 19.886 22.868" stroke="#000" stroke-width=".80420" fill="none"/>
 <path id="path446" d="m890.01 634.65c-1.988-12.428 10.937-20.631 26.847-4.4746" stroke="#000" stroke-width=".80420" fill="none"/>
 <path id="path448" d="m909.15 605.07c-4.7222 4.2256-6.9546 10.936-6.2149 16.405" stroke="#000" stroke-width=".80420" fill="none"/>
 <path id="path450" d="m848.75 557.35c-8.2028 13.92 1.7435 26.596 19.391 21.625" stroke="#000" stroke-width=".80420" fill="none"/>
 <path id="path452" d="m894.73 591.9c-11.684 11.682-7.7075 23.364 0.9908 30.076" stroke="#000" stroke-width=".80420" fill="none"/>
 <path id="path454" d="m887.27 605.57c-17.647 0.24835-18.638 20.631-4.2206 27.093" stroke="#000" stroke-width=".80420" fill="none"/>
 <path id="path456" d="m873.85 585.19c-7.2057 4.9712-9.4446 18.642 2.9851 24.111" stroke="#000" stroke-width=".80420" fill="none"/>
 <path id="path458" d="m873.36 615.76c-7.4565-3.4799-16.406 0.74566-15.659 9.4452" stroke="#000" stroke-width=".80420" fill="none"/>
 <path id="path460" d="m862.17 616.01c-6.7102-15.908-26.346-13.173-24.602 3.2316" stroke="#000" stroke-width=".80420" fill="none"/>
 <path id="path462" d="m867.64 596.37c-4.2205 0.74564-12.674 3.231-15.904 9.6941" stroke="#000" stroke-width=".80420" fill="none"/>
 <path id="path464" d="m852.97 578.48c-7.952 8.9478-1.7434 19.636 4.7223 21.873" stroke="#000" stroke-width=".80420" fill="none"/>
 <path id="path466" d="m829.36 553.37c-1.4927 10.688 2.7342 15.908 16.155 14.914" stroke="#000" stroke-width=".80420" fill="none"/>
 <path id="path468" d="m834.08 567.04c-5.224 12.925 1.7371 18.642 15.158 17.896" stroke="#000" stroke-width=".80420" fill="none"/>
 <path id="path470" d="m837.06 582.95c-7.9519 9.4452-2.4835 19.637 5.2175 23.862" stroke="#000" stroke-width=".80420" fill="none"/>
 <path id="path472" d="m833.34 594.88c-14.167-1.7403-16.406 14.665-11.683 22.37" stroke="#000" stroke-width=".80420" fill="none"/>
 <path id="path474" d="m821.9 552.13c-8.6963 3.7283-13.668 14.665-8.9452 21.376 4.7248 6.7109 14.169 4.4739 19.387 0.99399" stroke="#000" stroke-width=".80420" fill="none"/>
 <path id="path476" d="m815.94 576.49c-7.2069 10.936-0.7463 19.139 6.9611 22.37" stroke="#000" stroke-width=".80420" fill="none"/>
 <path id="path478" d="m788.1 550.89c-5.7161 5.9652-2.2369 18.145 11.683 18.394 11.207 0.20073 16.901-10.44 13.422-17.896" stroke="#000" stroke-width=".80420" fill="none"/>
 <path id="path480" d="m797.79 569.28c-4.474 9.9425-1.7397 20.631 15.162 18.89" stroke="#000" stroke-width=".80420" fill="none"/>
 <path id="path482" d="m820.16 603.83c-10.439-4.7223-24.359 0-18.393 12.428" stroke="#000" stroke-width=".80420" fill="none"/>
 <path id="path484" d="m800.28 586.18c-4.2256 5.9652-2.7344 14.416 1.988 19.636" stroke="#000" stroke-width=".80420" fill="none"/>
 <path id="path486" d="m799.53 602.09c-6.9599 1.243-13.672 4.9712-9.4458 15.908" stroke="#000" stroke-width=".80420" fill="none"/>
 <path id="path488" d="m789.09 609.05c-8.9478-2.7343-20.382 3.7283-13.422 12.925" stroke="#000" stroke-width=".80420" fill="none"/>
 <path id="path490" d="m774.18 613.28c-7.7055-1.243-16.902 6.9592-9.445 15.162" stroke="#000" stroke-width=".80420" fill="none"/>
 <path id="path492" d="m761.75 621.73c-6.9598 1.7403-15.162 9.6941-7.9545 15.908" stroke="#000" stroke-width=".80420" fill="none"/>
 <path id="path494" d="m796.8 582.7c-9.9424 4.4739-10.937 15.659-6.2142 23.862" stroke="#000" stroke-width=".80420" fill="none"/>
 <path id="path496" d="m786.36 562.07c-14.914 5.7169-14.665 25.602 1.7395 31.815" stroke="#000" stroke-width=".80420" fill="none"/>
 <path id="path498" d="m781.14 589.41c-8.948 5.2196-10.688 15.162-4.7223 21.625" stroke="#000" stroke-width=".80420" fill="none"/>
 <path id="path500" d="m765.48 554.61c-5.9659 1.9886-5.4686 20.382 10.44 19.885" stroke="#000" stroke-width=".80420" fill="none"/>
 <path id="path502" d="m749.07 560.83c-11.931 7.9539 2.4853 28.087 21.873 13.671" stroke="#000" stroke-width=".80420" fill="none"/>
 <path id="path504" d="m760.26 579.47c-1.7395 8.2028 0.4974 17.151 13.671 18.145" stroke="#000" stroke-width=".80420" fill="none"/>
 <path id="path506" d="m761.01 590.41c-9.4458 3.4793-11.186 22.868 5.9652 24.359" stroke="#000" stroke-width=".80420" fill="none"/>
 <path id="path508" d="m730.93 572.76c-12.179 11.185 9.9426 20.879 18.145 4.7229" stroke="#000" stroke-width=".80420" fill="none"/>
 <path id="path510" d="m714.03 591.4c-5.9658 7.2082 14.913 26.099 24.11-5.4686" stroke="#000" stroke-width=".80420" fill="none"/>
 <path id="path512" d="m740.37 585.44c0.4968 7.4565 4.9713 11.93 14.167 12.428" stroke="#000" stroke-width=".80420" fill="none"/>
 <path id="path514" d="m754.29 605.07c-14.665 2.237-19.388 20.631-2.9826 24.608" stroke="#000" stroke-width=".80420" fill="none"/>
 <path id="path516" d="m727.2 602.59c-0.4974 6.9592 6.7109 12.676 14.914 11.434" stroke="#000" stroke-width=".80420" fill="none"/>
 <path id="path518" d="m749.57 629.18c-13.422 2.9826-15.162 20.382-3.231 19.388" stroke="#000" stroke-width=".80420" fill="none"/>
 <path id="path520" d="m740.13 664.73c-11.186-3.3551-11.435-16.654-1.4921-21.625" stroke="#000" stroke-width=".80420" fill="none"/>
 <path id="path522" d="m730.93 653.04c-9.4445 5.7169-5.7162 19.388-0.7456 21.376 4.9713 1.9886 8.9485-0.49672 9.4458-4.7222" stroke="#000" stroke-width=".80420" fill="none"/>
 <path id="path524" d="m738.88 688.84c0.9945 6.4625-22.992 3.9772-10.688-16.156" stroke="#000" stroke-width=".80420" fill="none"/>
 <path id="path526" d="m728.07 689.96c-8.0773 12.677 5.0968 22.991 13.422 12.18" stroke="#000" stroke-width=".80420" fill="none"/>
 <path id="path528" d="m729.19 705.24c-3.2316 10.191 9.0713 17.524 17.025 9.5706" stroke="#000" stroke-width=".80420" fill="none"/>
 <path id="path530" d="m702.35 609.8c-4.4745 9.1968 17.896 12.676 19.387-6.2142" stroke="#000" stroke-width=".80420" fill="none"/>
 <path id="path532" d="m696.13 623.47c-4.4739 17.896 29.33 14.168 20.631-8.9485" stroke="#000" stroke-width=".80420" fill="none"/>
 <path id="path534" d="m717.51 626.45c4.7222 2.7343 18.891 2.9826 22.37-12.179" stroke="#000" stroke-width=".80420" fill="none"/>
 <path id="path536" d="m729.69 626.95c0.9941 4.7223 5.2195 10.439 9.1963 12.179" stroke="#000" stroke-width=".80420" fill="none"/>
 <path id="path538" d="m713.53 631.67c-1.4914 9.6941 8.2021 17.648 19.388 16.902" stroke="#000" stroke-width=".80420" fill="none"/>
 <path id="path540" d="m715.27 641.11c-5.4678 7.4572-7.2081 21.874 9.9432 22.868" stroke="#000" stroke-width=".80420" fill="none"/>
 <path id="path542" d="m689.17 643.6c-2.7342 7.7055 13.422 15.659 22.868 2.9826" stroke="#000" stroke-width=".80420" fill="none"/>
 <path id="path544" d="m684.2 663.24c-1.3684 5.8424 13.174 13.671 21.376-11.185" stroke="#000" stroke-width=".80420" fill="none"/>
 <path id="path546" d="m699.11 664.73c3.4798 6.2136 15.162 11.185 22.371-0.99468" stroke="#000" stroke-width=".80420" fill="none"/>
 <path id="path548" d="m709.8 671.19c-2.9827 8.6996 5.2202 16.902 15.162 14.416" stroke="#000" stroke-width=".80420" fill="none"/>
 <path id="path550" d="m691.16 669.2c-1.9886 12.428 12.428 19.636 21.376 13.173" stroke="#000" stroke-width=".80420" fill="none"/>
 <path id="path552" d="m681.71 674.67c-4.2248 15.908 16.157 21.873 23.862 9.9418" stroke="#000" stroke-width=".80420" fill="none"/>
 <path id="path554" d="m700.36 689.33c0.7463 8.9485 14.666 16.653 25.602 9.1968" stroke="#000" stroke-width=".80420" fill="none"/>
 <path id="path556" d="m675.5 696.79c-0.9939 3.9766 15.659 7.9538 18.145-5.9659" stroke="#000" stroke-width=".80420" fill="none"/>
 <path id="path558" d="m685.19 700.27c3.9765 10.191 17.399 12.677 25.105 0.2489" stroke="#000" stroke-width=".80420" fill="none"/>
 <path id="path560" d="m705.82 705.49c1.7403 9.4452 13.92 14.665 24.608 8.2022" stroke="#000" stroke-width=".80420" fill="none"/>
 <path id="path562" d="m734.91 717.42c-2.7336 12.677 10.44 22.868 18.642 15.908" stroke="#000" stroke-width=".80420" fill="none"/>
 <path id="path564" d="m713.78 715.18c-3.9766 13.92 13.422 21.874 23.117 14.168" stroke="#000" stroke-width=".80420" fill="none"/>
 <path id="path566" d="m692.9 708.23c-0.994 12.925 9.1968 20.63 20.879 14.913" stroke="#000" stroke-width=".80420" fill="none"/>
 <path id="path568" d="m670.78 709.47c-3.4806 8.4513 14.914 15.411 23.613 8.203" stroke="#000" stroke-width=".80420" fill="none"/>
 <path id="path570" d="m659.34 732.58c4.7229 5.468 21.128 0 22.619-12.179" stroke="#000" stroke-width=".80420" fill="none"/>
 <path id="path572" d="m677.49 729.35c5.9652 6.9599 20.133 10.688 25.85-4.2256" stroke="#000" stroke-width=".80420" fill="none"/>
 <path id="path574" d="m698.37 732.83c-0.249 10.688 18.891 18.394 25.104-1.243" stroke="#000" stroke-width=".80420" fill="none"/>
 <path id="path576" d="m745.97 735.44c-1.7404 5.2202 2.3624 13.546 10.936 14.54" stroke="#000" stroke-width=".80420" fill="none"/>
 <path id="path578" d="m730.18 732.21c-1.2429 5.9652 7.4572 14.291 16.654 10.936" stroke="#000" stroke-width=".80420" fill="none"/>
 <path id="path580" d="m748.58 745.63c-2.4854 6.4625-0.3739 15.782 8.3257 15.659" stroke="#000" stroke-width=".80420" fill="none"/>
 <path id="path582" d="m749.45 757.69c-6.4625 5.4678-3.7289 15.163 5.594 15.536" stroke="#000" stroke-width=".80420" fill="none"/>
 <path id="path584" d="m746.09 766.89c-9.1967 6.211-5.9651 19.882 6.2136 19.142" stroke="#000" stroke-width=".80420" fill="none"/>
 <path id="path586" d="m718.25 740.54c0 13.422 16.653 15.41 19.884 2.9825" stroke="#000" stroke-width=".80420" fill="none"/>
 <path id="path588" d="m731.68 751.47c-2.4859 7.9537 3.9767 15.659 14.168 13.422" stroke="#000" stroke-width=".80420" fill="none"/>
 <path id="path590" d="m733.66 847.42c2.2376 3.2362 11.434-2.2324 8.9486-7.701-2.4853-5.4686-12.228-2.4961-11.186 3.2297" stroke="#000" stroke-width=".80420" fill="none"/>
 <path id="path592" d="m740.37 837.48c1.2424-10.937-11.683-12.674-14.914-3.2297" stroke="#000" stroke-width=".80420" fill="none"/>
 <path id="path594" d="m730.18 828.78c3.2316-5.4686-7.7048-12.925-12.179-4.9733" stroke="#000" stroke-width=".80420" fill="none"/>
 <path id="path596" d="m721.98 820.58c2.9827-7.9584-9.4452-11.433-10.44-4.2269" stroke="#000" stroke-width=".80420" fill="none"/>
 <path id="path598" d="m708.81 805.91c1.4921-3.976 15.411-1.4927 9.4458 6.7102" stroke="#000" stroke-width=".80420" fill="none"/>
 <path id="path600" d="m728.94 822.56c5.4686-4.9732-3.7277-15.164-9.4452-11.432" stroke="#000" stroke-width=".80420" fill="none"/>
 <path id="path602" d="m765.73 837.73c-4.351 0.4955-8.8255 3.3521-5.594 12.552 2.2409 6.3821 11.808 6.7102 13.174 2.8565" stroke="#000" stroke-width=".80420" fill="none"/>
 <path id="path604" d="m759.39 842.32c-4.2256-2.7342-13.422 1.8659-9.1969 10.815 3.1814 6.736 11.186 3.976 12.428 0.4954" stroke="#000" stroke-width=".80420" fill="none"/>
 <path id="path606" d="m735.65 855.13c2.1115 3.7251 12.675 2.1166 14.54-1.988" stroke="#000" stroke-width=".80420" fill="none"/>
 <path id="path608" d="m742.86 842.82c2.2368-1.4925 6.3371 0.3667 7.2081 2.2325" stroke="#000" stroke-width=".80420" fill="none"/>
 <path id="path610" d="m742.11 781.55c-7.2083 4.7223-2.7343 19.14 8.4511 15.408" stroke="#000" stroke-width=".80420" fill="none"/>
 <path id="path612" d="m739.88 793.23c-5.7169 4.4714-0.4973 18.394 10.191 13.176" stroke="#000" stroke-width=".80420" fill="none"/>
 <path id="path614" d="m741.62 806.41c-3.9766 3.9759-0.1251 15.035 10.191 12.925" stroke="#000" stroke-width=".80420" fill="none"/>
 <path id="path616" d="m740.13 811.88c-2.2377-0.9971-8.0793-0.2509-10.565 3.4742" stroke="#000" stroke-width=".80420" fill="none"/>
 <path id="path618" d="m733.66 761.54c-5.4679 5.2195-2.859 15.91 7.3318 16.778" stroke="#000" stroke-width=".80420" fill="none"/>
 <path id="path620" d="m731.68 772.48c-7.8309 3.8538-7.8309 19.384 7.8284 20.009" stroke="#000" stroke-width=".80420" fill="none"/>
 <path id="path622" d="m731.05 790c-4.3492 3.4805-2.2369 16.901 8.9484 15.158" stroke="#000" stroke-width=".80420" fill="none"/>
 <path id="path624" d="m734.66 804.67c-1.6168 1.6148-1.8657 5.7195-0.4974 7.4566" stroke="#000" stroke-width=".80420" fill="none"/>
 <path id="path626" d="m729.69 799.57c-3.9766 0.122-9.1967 2.9852-10.565 7.0834" stroke="#000" stroke-width=".80420" fill="none"/>
 <path id="path628" d="m711.91 792.24c1.4913-3.9759 13.797-3.725 14.665 7.9584" stroke="#000" stroke-width=".80420" fill="none"/>
 <path id="path630" d="m727.82 786.27c-1.7403 0.3732-5.0948 1.988-5.9651 5.3463" stroke="#000" stroke-width=".80420" fill="none"/>
 <path id="path632" d="m722.48 749.86c-5.3451 4.8463-7.954 20.134 8.3257 23.115" stroke="#000" stroke-width=".80420" fill="none"/>
 <path id="path634" d="m711.66 781.43c0-4.1047 11.062-7.5852 14.914-1.4926" stroke="#000" stroke-width=".80420" fill="none"/>
 <path id="path636" d="m704.58 759.18c1.6149 3.1081 9.3204 7.3337 14.043 3.8539" stroke="#000" stroke-width=".80420" fill="none"/>
 <path id="path638" d="m664.56 734.82c-0.2477 7.2082 5.7175 13.671 13.92 12.677 8.2022-0.9947 9.9425-8.2028 7.4566-12.926" stroke="#000" stroke-width=".80420" fill="none"/>
 <path id="path640" d="m679.73 747.75c-5.4686 6.7109 1.2429 16.157 7.4565 13.422" stroke="#000" stroke-width=".80420" fill="none"/>
 <path id="path642" d="m685.94 743.02c3.2315-1.243 13.92-2.7344 17.151 2.2368" stroke="#000" stroke-width=".80420" fill="none"/>
 <path id="path644" d="m651.39 745.01c-2.4859 3.7283 12.926 7.4572 18.145 0.2483" stroke="#000" stroke-width=".80420" fill="none"/>
 <path id="path646" d="m664.32 748.99c-0.4979 4.9713 1.988 13.422 14.665 9.9426" stroke="#000" stroke-width=".80420" fill="none"/>
 <path id="path648" d="m680.97 766.64c1.988-4.2256-7.4572-11.185-14.665-3.48-7.2081 7.7057 0.9939 16.406 5.4686 13.42" stroke="#000" stroke-width=".80420" fill="none"/>
 <path id="path650" d="m647.91 749.98c-3.7283 6.4625 10.688 18.27 18.891 7.3335" stroke="#000" stroke-width=".80420" fill="none"/>
 <path id="path652" d="m638.34 761.17c-5.2196 5.3451 1.2429 15.164 9.0733 12.179 7.829-2.9819 7.0834-11.185 5.2202-13.296" stroke="#000" stroke-width=".80420" fill="none"/>
 <path id="path654" d="m628.27 771.11c-4.2256 3.8512-0.1251 12.922 5.7169 12.922 5.8398 0 9.4452-4.5936 8.3257-10.435" stroke="#000" stroke-width=".80420" fill="none"/>
 <path id="path656" d="m652.01 770.37c-0.7463 5.7163 7.7049 9.6923 13.174 4.3523" stroke="#000" stroke-width=".80420" fill="none"/>
 <path id="path658" d="m665.43 764.28c0.7457-1.2429 0.1251-3.3571-1.1168-4.3511" stroke="#000" stroke-width=".80420" fill="none"/>
 <path id="path660" d="m619.2 778.82c-4.8457 3.8537 5.594 14.54 12.179 4.7222" stroke="#000" stroke-width=".80420" fill="none"/>
 <path id="path662" d="m656.61 776.71c-3.1082 2.9788 1.8631 10.808 6.8343 8.4474" stroke="#000" stroke-width=".80420" fill="none"/>
 <path id="path664" d="m639.58 782.17c0.7458 5.3399 11.186 9.3159 17.773 1.1194" stroke="#000" stroke-width=".80420" fill="none"/>
 <path id="path666" d="m645.3 787.51c-1.6148 3.3584 1.6168 8.7047 5.5934 7.9583" stroke="#000" stroke-width=".80420" fill="none"/>
 <path id="path668" d="m744.23 818.22c-3.8512 7.5787 8.4512 16.406 17.4 7.2056" stroke="#000" stroke-width=".80420" fill="none"/>
 <path id="path670" d="m753.17 829.53c-1.8632 4.0983 0.3738 9.8178 3.7283 11.928" stroke="#000" stroke-width=".80420" fill="none"/>
 <path id="path672" d="m741.49 838.1c0.871-3.7315 6.2135-7.2121 11.062-5.4686" stroke="#000" stroke-width=".80420" fill="none"/>
 <path id="path674" d="m735.03 828.28c0.7457-3.352 5.2197-6.7104 8.576-5.8354" stroke="#000" stroke-width=".80420" fill="none"/>
 <path id="path676" d="m1027.7 673.18c-17.647 0.24906-10.191 28.585 4.9733 22.868" stroke="#000" stroke-width=".80420" fill="none"/>
 <path id="path678" d="m1022 694.06c-3.4806 5.7168 3.2297 14.79 10.686 9.4451" stroke="#000" stroke-width=".80420" fill="none"/>
 <path id="path680" d="m1030.7 704.62c-5.2241 8.6995 13.42 21.996 20.877 8.3257" stroke="#000" stroke-width=".80420" fill="none"/>
 <path id="path682" d="m1045.6 718.17c0.2445 8.2028 24.107 13.422 20.633-2.9826" stroke="#000" stroke-width=".80420" fill="none"/>
 <path id="path684" d="m1064 724.13c5.713 9.6935 27.092 10.688 24.853-3.7283" stroke="#000" stroke-width=".80420" fill="none"/>
 <path id="path686" d="m1084.1 730.35c4.4778 6.4625 25.355 10.439 24.608-2.9833" stroke="#000" stroke-width=".80420" fill="none"/>
 <path id="path688" d="m999.38 648.57c2.9788 7.7055 13.17 10.44 24.358 5.9652" stroke="#000" stroke-width=".80420" fill="none"/>
 <path id="path690" d="m992.91 654.04c6.9611 4.4739-3.2297 24.856-13.916 16.653" stroke="#000" stroke-width=".80420" fill="none"/>
 <path id="path692" d="m992.91 666.72c7.7075 3.7289 17.152 0.99468 19.886-9.9425" stroke="#000" stroke-width=".80420" fill="none"/>
 <path id="path694" d="m1008.1 665.22c0.7464 5.7169 8.9492 10.191 19.635 7.9538" stroke="#000" stroke-width=".80420" fill="none"/>
 <path id="path696" d="m988.93 671.19c9.9464 8.4511-4.4713 25.85-10.937 17.896" stroke="#000" stroke-width=".80420" fill="none"/>
 <path id="path698" d="m992.67 677.65c4.7222 3.48 16.901 1.4914 18.143-7.7055" stroke="#000" stroke-width=".80420" fill="none"/>
 <path id="path700" d="m1005.3 677.65c0.9971 5.9653 5.7195 8.2022 12.43 8.4513" stroke="#000" stroke-width=".80420" fill="none"/>
 <path id="path702" d="m989.93 685.85c4.9667 6.9598 17.396 8.9485 22.865-0.24829" stroke="#000" stroke-width=".80420" fill="none"/>
 <path id="path704" d="m1007.3 690.83c-0.4953 6.7116 6.9611 12.179 14.669 10.688" stroke="#000" stroke-width=".80420" fill="none"/>
 <path id="path706" d="m980.24 705.74c6.4593 3.2309 13.42-8.9479 7.952-17.399" stroke="#000" stroke-width=".80420" fill="none"/>
 <path id="path708" d="m987.69 718.66c7.7075 0.4973 8.6983-11.185 1.4926-17.648" stroke="#000" stroke-width=".80420" fill="none"/>
 <path id="path710" d="m1005.3 729.35c6.4657-1.4912 4.4713-15.659-11.188-16.902" stroke="#000" stroke-width=".80420" fill="none"/>
 <path id="path712" d="m1025 739.79c6.2149-1.7403 1.2418-17.4-15.904-16.405" stroke="#000" stroke-width=".80420" fill="none"/>
 <path id="path714" d="m1048.6 745.26c4.2205-6.4625-9.6953-17.399-21.128-11.682" stroke="#000" stroke-width=".80420" fill="none"/>
 <path id="path716" d="m1060.3 754.21c7.7075 2.237 12.925-18.145-11.432-14.914" stroke="#000" stroke-width=".80420" fill="none"/>
 <path id="path718" d="m1074.4 754.21c6.7168-1.7396 11.439-13.92-8.1963-9.9424" stroke="#000" stroke-width=".80420" fill="none"/>
 <path id="path720" d="m1089.4 755.2c5.9639 2.9832 8.6981-14.416-9.4511-9.6935" stroke="#000" stroke-width=".80420" fill="none"/>
 <path id="path722" d="m989.19 701.02c7.4566 4.2256 19.14-0.7456 18.143-10.191" stroke="#000" stroke-width=".80420" fill="none"/>
 <path id="path724" d="m1004.3 699.03c2.4898 4.4739 1.4925 13.174-3.2297 15.41" stroke="#000" stroke-width=".80420" fill="none"/>
 <path id="path726" d="m1005.1 709.47c4.9731 1.9888 11.683 0.2491 15.659-7.7049" stroke="#000" stroke-width=".80420" fill="none"/>
 <path id="path728" d="m1013.8 709.47c1.4862 3.48 1.988 10.44-1.2481 13.92" stroke="#000" stroke-width=".80420" fill="none"/>
 <path id="path730" d="m1015 715.43c5.4685 2.9827 11.928-0.9946 14.662-6.7115" stroke="#000" stroke-width=".80420" fill="none"/>
 <path id="path732" d="m1026.2 713.69c3.9759 2.486 7.4564 14.168 0.7462 18.891" stroke="#000" stroke-width=".80420" fill="none"/>
 <path id="path734" d="m1030.7 727.12c4.7222 0.2484 11.683 0.2484 16.155-5.7169" stroke="#000" stroke-width=".80420" fill="none"/>
 <path id="path736" d="m1043.6 724.63c4.2268 1.2429 9.1936 8.2028 7.4565 14.417" stroke="#000" stroke-width=".80420" fill="none"/>
 <path id="path738" d="m1051.3 736.81c4.7287-0.4973 12.925-3.7289 15.164-9.4458" stroke="#000" stroke-width=".80420" fill="none"/>
 <path id="path740" d="m1064.2 731.09c3.9824 2.2368 6.7167 6.9592 6.2148 12.428" stroke="#000" stroke-width=".80420" fill="none"/>
 <path id="path742" d="m1070.5 739.54c4.7224-0.2482 8.9493-2.7336 10.191-7.9539" stroke="#000" stroke-width=".80420" fill="none"/>
 <path id="path744" d="m1079.4 735.07c3.4806 1.243 7.7075 5.2196 7.9584 9.9425" stroke="#000" stroke-width=".80420" fill="none"/>
 <path id="path746" d="m1086.9 742.03c3.4804-0.4974 5.9639-2.7342 8.2028-6.2142" stroke="#000" stroke-width=".80420" fill="none"/>
 <path id="path748" d="m1104.5 735.32c4.4778 4.4747-1.4862 19.388-10.686 16.654" stroke="#000" stroke-width=".80420" fill="none"/>
 <path id="path750" d="m1009.1 434.06c-9.2001 5.4679-35.301 3.7282-22.376-17.896" stroke="#000" stroke-width=".80420" fill="none"/>
 <path id="path752" d="m1011.6 419.4c-18.143 7.2082-40.519-6.7109-17.152-21.873" stroke="#000" stroke-width=".80420" fill="none"/>
 <path id="path754" d="m988.19 392.55c-15.164 0-25.355 24.36-4.9668 32.81" stroke="#000" stroke-width=".80420" fill="none"/>
 <path id="path756" d="m929.28 402.74c-3.976 7.7049 10.191 16.156 19.886 8.4512 7.508-5.9697 6.9548-22.122 2.4833-28.336" stroke="#000" stroke-width=".80420" fill="none"/>
 <path id="path758" d="m921.58 421.14c-4.9731 16.404 31.57 17.399 25.85-8.7002" stroke="#000" stroke-width=".80420" fill="none"/>
 <path id="path760" d="m919.59 445.5c1.2417 12.428 35.05 8.4512 24.107-16.654" stroke="#000" stroke-width=".80420" fill="none"/>
 <path id="path762" d="m947.68 421.88c2.7344 3.7283 10.191 10.191 22.865 8.9478" stroke="#000" stroke-width=".80420" fill="none"/>
 <path id="path764" d="m953.64 404.24c1.1195 4.4739 8.6984 7.9538 18.394 4.5994" stroke="#000" stroke-width=".80420" fill="none"/>
 <path id="path766" d="m614.48 782.42c-8.5748 6.0927 4.5993 15.659 9.4452 5.0955" stroke="#000" stroke-width=".80420" fill="none"/>
 <path id="path768" d="m607.77 787.15c-8.574 6.0861 4.5995 15.653 9.4458 5.0889" stroke="#000" stroke-width=".80420" fill="none"/>
 <path id="path770" d="m600.68 791.74c-8.5767 6.0926 4.5974 15.659 9.4451 5.0954" stroke="#000" stroke-width=".80420" fill="none"/>
 <path id="path772" d="m593.23 795.97c-8.2028 4.349 1.3659 15.035 9.6936 5.5907" stroke="#000" stroke-width=".80420" fill="none"/>
 <path id="path774" d="m585.15 800.07c-8.2028 4.3426 1.3679 15.035 9.6942 5.5907" stroke="#000" stroke-width=".80420" fill="none"/>
 <path id="path776" d="m626.78 787.27c-0.1251 6.3371 11.931 8.9492 16.28-0.5019" stroke="#000" stroke-width=".80420" fill="none"/>
 <path id="path778" d="m634.36 793.11c-3.7283 4.7222 3.108 10.564 6.8363 8.4472" stroke="#000" stroke-width=".80420" fill="none"/>
 <path id="path780" d="m618.33 792.24c-0.3738 5.3464 10.065 8.4538 15.162 2.6121" stroke="#000" stroke-width=".80420" fill="none"/>
 <path id="path782" d="m624.05 797.83c-3.3564 4.3491 3.2309 10.191 7.4565 8.4472" stroke="#000" stroke-width=".80420" fill="none"/>
 <path id="path784" d="m611.37 797.09c0.3718 4.2269 6.3371 9.0714 12.8 6.337" stroke="#000" stroke-width=".80420" fill="none"/>
 <path id="path786" d="m615.22 802.8c-2.4859 2.2389-1.2423 7.463 2.2369 9.0777" stroke="#000" stroke-width=".80420" fill="none"/>
 <path id="path788" d="m602.3 802.43c-0.9939 3.8537 5.5936 10.693 12.304 6.2149" stroke="#000" stroke-width=".80420" fill="none"/>
 <path id="path790" d="m603.67 806.91c-3.9765 3.1074-3.48 7.8297 1.6148 8.4473" stroke="#000" stroke-width=".80420" fill="none"/>
 <path id="path792" d="m594.1 806.41c-0.4966 2.6056 2.8598 6.8325 7.0854 6.337" stroke="#000" stroke-width=".80420" fill="none"/>
 <path id="path794" d="m572.84 806.16c-3.9766 2.1101 6.2142 12.925 12.551 2.8565" stroke="#000" stroke-width=".80420" fill="none"/>
 <path id="path796" d="m563.03 810.63c-4.9711 2.3675 7.333 14.295 12.802 2.1166" stroke="#000" stroke-width=".80420" fill="none"/>
 <path id="path798" d="m595.21 810.13c-3.8537 0.8686-6.339 6.4658-3.1081 8.6982" stroke="#000" stroke-width=".80420" fill="none"/>
 <path id="path800" d="m582.66 812.12c-0.4971 2.2389 4.2257 5.964 8.0801 4.5999" stroke="#000" stroke-width=".80420" fill="none"/>
 <path id="path802" d="m579.43 813.12c-3.7283 2.3612-1.7403 8.9427 2.6108 7.9519" stroke="#000" stroke-width=".80420" fill="none"/>
 <path id="path804" d="m566.13 817.47c-3.48 2.6056-1.1195 7.8297 3.7281 6.5879" stroke="#000" stroke-width=".80420" fill="none"/>
 <path id="path806" d="m572.47 817.1c0.1251 1.3639 3.2316 3.4807 5.8425 2.6121" stroke="#000" stroke-width=".80420" fill="none"/>
 <path id="path808" d="m554.08 814.86c-4.3484 1.8657-4.1001 12.803 10.565 6.839" stroke="#000" stroke-width=".80420" fill="none"/>
 <path id="path810" d="m544.26 819.21c-6.0907 2.9851-4.1021 11.188 9.1968 3.3583" stroke="#000" stroke-width=".80420" fill="none"/>
 <path id="path812" d="m554.57 823.19c-1.6148 1.2417-3.3545 6.7103 2.7342 4.5936" stroke="#000" stroke-width=".80420" fill="none"/>
 <path id="path814" d="m543.39 825.79c-2.4854 2.2389-0.8686 6.8389 4.6 5.0954" stroke="#000" stroke-width=".80420" fill="none"/>
 <path id="path816" d="m530.59 826.54c-4.4739 2.6119 5.3432 6.0925 11.931-0.8685" stroke="#000" stroke-width=".80420" fill="none"/>
 <path id="path818" d="m533.57 829.77c-1.9892 1.988-1.9892 7.8298 3.2309 5.7196" stroke="#000" stroke-width=".80420" fill="none"/>
 <path id="path820" d="m520.9 832.13c-2.9826 2.2389 2.1122 5.2242 11.434 1.1195" stroke="#000" stroke-width=".80420" fill="none"/>
 <path id="path822" d="m524.62 835.37c-3.48 2.8566-3.108 6.4594 1.988 5.34" stroke="#000" stroke-width=".80420" fill="none"/>
 <path id="path824" d="m514.31 836.98c-3.8517 3.4806 1.7397 5.8417 8.4513 2.9788" stroke="#000" stroke-width=".80420" fill="none"/>
 <path id="path826" d="m514.43 840.84c-6.588 2.9788-3.7289 8.4474 0.3718 6.3371" stroke="#000" stroke-width=".80420" fill="none"/>
 <path id="path828" d="m734.41 859.85c-1.5274 3.2876 3.4798 5.964 8.2028 5.2177 4.5363-0.7141 8.8757-4.452 5.4678-9.689" stroke="#000" stroke-width=".80420" fill="none"/>
 <path id="path830" d="m748.33 861.84c4.4739 3.4806 12.428-0.4953 12.428-5.7194" stroke="#000" stroke-width=".80420" fill="none"/>
 <path id="path834" d="m1022.5 335.14c-19.886-9.9425-61.145-28.336-72.828-13.422 10.686-4.4739 42.005 0.24898 67.855 24.111l4.9732-10.688z" stroke="#000" stroke-width=".80420" fill="#fff"/>
 <path id="path836" d="m1034.5 334.08c-22.994-26.784-36.536-20.789-53.071-30.015-15.531-8.6686-40.268-10.44-45.061 3.3461 22.691-11.052 43.523 5.9427 56.32 7.9989 17.576 2.8224 27.497 16.41 32.638 22.659l9.1743-3.9888z" stroke="#000" stroke-width=".80420" fill="#fff"/>
 <path id="path838" d="m1121.2 330.66c-11.934-27.341-37.45-20.201-48.722-31.816-16.399-16.902-57.909-32.561-75.061-20.879 37.778-1.9886 53.868 26.041 74.07 35.793 14.418 6.9598 29.826 21.874 49.712 16.902z" stroke="#000" stroke-width=".80420" fill="#fff"/>
 <path id="path840" d="m1076.4 327.68c-20.382-25.354-51.707-47.724-66.118-39.273 18.889 0.99399 24.853 14.168 38.28 22.619 13.42 8.4512 7.4566 20.631 27.838 16.654z" stroke="#000" stroke-width=".80420" fill="#fff"/>
 <path id="path842" d="m979.49 372.42c-21.379-7.9539-63.133-11.93-82.524 12.428 32.316 5.4679 81.031 2.4853 82.524-12.428z" stroke="#000" stroke-width=".80420" fill="#fff"/>
 <path id="path844" d="m975.51 381.87c-21.379-9.9425-38.074 3.9451-58.166 1.988-38.273-3.7283-65.616-1.4913-69.097 16.902 21.874-19.636 58.662-3.4799 73.574-7.4566 14.913-3.9772 70.094-0.49731 87.49 6.9592-8.9491-10.936-22.865-13.919-33.802-18.393z" stroke="#000" stroke-width=".80420" fill="#fff"/>
 <path id="path846" d="m1042.6 324.94c-4.9668-16.405-4.7223-33.805 19.886-32.562-6.2148-7.7055-29.08-11.682-32.811 17.151-27.092-19.885-56.673-23.364-62.136-6.2136 13.916-11.931 35.539-3.2316 61.389 26.099 2.2389-1.243 8.2028-3.7283 13.671-4.4739z" stroke="#000" stroke-width=".80420" fill="#fff"/>
 <path id="path848" d="m1005.3 347.56c-15.408-9.9418-36.292-26.099 0.2509-32.561-15.659-8.4512-38.531-4.7229-36.041 24.111-41.76-16.902-71.748-11.198-78.052 5.4679-6.9612 18.394 18.896 28.584 23.367 16.902-4.7222 1.9886-20.877-3.48-12.43-13.92 8.4537-10.439 51.765-2.6024 92.966 18.891 11.432 5.9652 50.703 4.9712 9.9399-18.891z" stroke="#000" stroke-width=".80420" fill="#fff"/>
 <path id="path850" d="m994.4 374.91c-11.889-24.276-50.459-2.237-58.231-25.751-10.622 34.451 54.846 15.388 58.231 25.751z" stroke="#000" stroke-width=".80420" fill="#fff"/>
 <path id="path852" d="m1239.7 401.25c8.087 4.0184 15.08-2.2987 2.7086-7.2539 8.0935 4.0165 15.151-2.1501 2.7793-7.1072 8.0935 4.0165 15.151-2.1495 2.7793-7.1066-3.3004 3.3223-8.0226 15.502-8.2672 21.468z" stroke="#000" stroke-width=".80420" fill="#fff"/>
 <path id="path856" d="m1244 354.52c17.898-18.89-1.4861-25.353 20.382-44.74 17.898-15.863 3.4163-26.435 20.388-38.776 5.4685-3.9766 17.396-11.93 18.394-19.885 7.2055 17.896-22.376 20.382-20.388 49.215 1.2673 18.358-11.143 16.755-15.904 47.724-0.9973 6.4625-5.4686 20.879-22.871 6.4625z" stroke="#000" stroke-width=".80420" fill="#fff"/>
 <path id="path858" d="m1251.9 362.97c9.9399-21.376 21.353-20.965 26.841-29.33 10.442-15.908 32.56 2.7343 51.205-11.434-3.2296 20.133-28.334 12.925-39.271 25.85s-19.886 18.891-38.775 14.914z" stroke="#000" stroke-width=".80420" fill="#fff"/>
 <path id="path860" d="m1254.4 369.93c17.403-13.92 30.225-4.6335 42.256-11.931 30.322-18.394 42.507 3.7283 69.599-4.9712-7.212 17.399-47.229 2.4859-64.626 15.411-17.403 12.925-78.548 25.353-47.229 1.4913z" stroke="#000" stroke-width=".80420" fill="#fff"/>
 <path id="path864" d="m1203.7 469.11c-0.2509-7.9539-7.7073-18.145-18.149-19.388-10.435-1.243-14.913-12.18-22.865-12.677-7.952-0.49732-13.176-16.405-24.113-16.157-10.937 0.24898-15.408 14.416 10.191 27.341 25.606 12.926 53.939 27.839 54.936 20.88z" stroke="#000" stroke-width=".80420" fill="#fff"/>
 <path id="path868" d="m1171.4 475.82c-10.937 0.49733-12.43 16.405-22.865 16.902 14.411 7.7055 24.853-3.4799 32.31-13.422l-9.4446-3.4799z" stroke="#000" stroke-width=".80420" fill="#fff"/>
 <path id="path870" d="m1180.3 477.81c-9.4445 7.9539-12.179 24.607 1.4927 29.33-8.203-11.31 14.418-16.405 7.4564-26.845l-8.9491-2.4853z" stroke="#000" stroke-width=".80420" fill="#fff"/>
 <path id="path872" d="m1189.8 478.31c-7.4566 14.416 11.683 16.156 6.7102 27.093 10.937-2.4859 12.681-23.117 2.7342-28.585l-9.4444 1.492z" stroke="#000" stroke-width=".80420" fill="#fff"/>
 <path id="path874" d="m1116.7 447.48c17.898-0.99399 34.265 8.6879 45.241 24.36 6.9611 9.9418 30.322 13.919 38.28 5.9652 7.9519-7.9538 3.4805-24.856-16.406-19.388-4.9733-8.4512-19.391-5.4686-26.346-12.428-6.9611-6.9592-33.808-26.844-40.77 1.4913z" stroke="#000" stroke-width=".80420" fill="#fff"/>
 <path id="path876" d="m1183.8 458.42c-4.7224 0.99399-6.2149 9.1968-3.2362 13.422" stroke="#000" stroke-linecap="round" stroke-width=".80420" fill="#fff"/>
 <path id="path878" d="m1194 463.39c1.4925 2.4853 0.4953 5.9652-0.2509 7.7055" stroke="#000" stroke-linecap="round" stroke-width=".80420" fill="#fff"/>
 <path id="path880" d="m1145 448.23c9.1936 0.49732 10.937 7.2088 20.877 9.6941" stroke="#000" stroke-linecap="round" stroke-width=".80420" fill="#fff"/>
 <path id="path882" d="m1139 425.61c31.763 7.9538 56.963 14.914 72.59 23.862 15.627 8.9485 39.824 11.434 60.997 5.4686 21.173-5.9652 62.001-11.434 59.987 14.914 11.098-13.174-3.0238-27.342-31.254-29.827 0.5083-12.925-13.324-24.608-23.27-16.902 9.2-1.2423 17.139 15.908-1.0037 22.868 3.5256-12.925-9.3287-24.607-22.685-18.89 8.5695 2.4853 17.236 16.856-1.9366 22.37-12.102 3.4799-29.742-0.99399-42.848-8.9478-13.105-7.9545-86.706-36.787-70.577-14.914z" stroke="#000" stroke-width=".80420" fill="#fff"/>
 <path id="path886" d="m1219.1 412.69c-9.9399 4.4739-3.4806 14.914-18.889 20.879-15.415 5.9652-26.101 19.636-22.62 31.319 10.442-22.868 28.835-21.874 35.295-30.821 6.4658-8.9485 15.91-22.122 6.2149-21.376z" stroke="#000" stroke-width=".80420" fill="#fff"/>
 <path id="path888" d="m1221.8 414.18c-0.4953 18.145-14.778 11.535-9.2 37.036 1.7436 7.9538 4.9731 20.879-0.4953 33.804 16.032-11.682 5.7194-36.224 12.925-45.487 3.4806-4.4739 7.9519-11.434 9.6955-17.399-3.7315 10.439-3.4806 29.827 6.7102 34.799-8.2029-19.388 22.125-35.296 1.2417-57.666-2.9788 5.4686-12.43 15.162-20.877 14.914z" stroke="#000" stroke-width=".80420" fill="#fff"/>
 <path id="path890" d="m1171.1 396.03c2.4898 3.7283 4.9733 13.174 2.7344 18.394 4.9731-2.9826 12.185-10.688 14.418-15.908 10.191 1.4913 14.167 14.168 4.4777 19.636 5.964 0 16.155 0 21.868-6.7109-6.9548-7.7055-28.578-19.637-43.498-15.411z" stroke="#000" stroke-width=".80420" fill="#fff"/>
 <path id="path892" d="m1016.5 360.37c-1.6085-1.4656-4.3234-2.8591-9.1937-3.8595-15.048-3.0862-7.2763-16.651 5.5329-16.53 27.336-29.827 42.687-6.8344 75.994-16.28 11.658-3.3049 19.661-2.3283 26.011 0.41947 14.913-9.9425 32.406-7.1644 45.087 4.5183 1.4089-2.2415 3.3004-3.9515 5.9576-4.6894 11.677-3.2432 21.122 6.7135 24.351 19.639 9.1036-1.6862 19.5 2.8198 26.339 9.0334 9.4702-4.8638 15.994-5.08 18.394-0.0791 8.4537-3.9772 19.404-6.4709 24.872 6.9515 5.4686 13.422-12.925 9.4452-15.91 37.781-1.84 17.481-21.372 24.359-36.787 13.92-24.653-16.702-48.715-19.388-60.65 5.9652-11.928 25.353-21.276 40.084-50.208 31.816-10.435-2.9833-23.862 0.99399-32.31 12.428-8.4538 11.434-21.379 0.74564-36.787 1.9886 19.384-2.9826 11.96-7.8586 28.835-8.9485 15.408-0.99399 11.432-15.41 21.372-17.399-38.775 9.9425-37.283-4.4746-69.097 5.4679 13.916-17.896 35.79-7.9539 46.727-18.393-28.835-0.49731-41.728-19.334-54.686-11.434-20.382 12.428-11.439 47.811-64.625 44.74-25.85-1.4913-42.256 1.9886-57.664 17.4 26.847-55.678 63.364-25.089 81.031-42.753 10.442-10.44 18.394-18.394 23.862-28.336 1.9236-3.4999 4.5292-5.5001 7.7847-6.2734-44.244-13.92-17.487-35.602 25.766-37.094z" stroke="#000" stroke-width=".80420" fill="#fff"/>
 <path id="path894" d="m1235 352.55c0.6755 1.398 1.0229 3.2116 1.0229 5.4544 0 10.936-16.406 11.434-17.396 27.59-0.5211 8.4512-1.4926 13.173-7.2121 12.179-5.713-0.99464-10.686-9.9425-5.2175-20.382" stroke="#000" stroke-linecap="round" stroke-width=".80420" fill="#fff"/>
 <path id="path896" d="m1024.7 344.08c-4.1175-2.8932-8.2351-4.0686-11.928-4.1027" stroke="#000" stroke-width=".80420" fill="#fff"/>
 <path id="path898" d="m1114.8 324.04c13.163 5.6989 19.584 19.372 38.704 20.042 18.406 0.64593 29.832 27.342 60.65 9.9418 0.8362-0.47094 1.6534-0.91036 2.4447-1.3182" stroke="#000" stroke-width=".80420" fill="#fff"/>
 <path id="path900" d="m1160 328.64c-2.7471 4.3684-3.3712 10.466-2.6185 15.817" stroke="#000" stroke-width=".80420" fill="#fff"/>
 <path id="path902" d="m1099.8 384.85c-23.36 0-29.331 11.93-29.331 23.364s10.937 26.347 30.328 26.347c19.384 0 29.826-11.93 29.826-24.856s-11.934-24.856-30.823-24.856z" stroke="#000" stroke-width=".80420" fill="#fff"/>
 <path id="path904" d="m1104 434.06c-0.4953-6.4626-12.179-5.4686-11.683-10.44 0.4955-4.9712 6.4658-6.9599 6.4658-13.919 0-6.9599 10.435-7.4572 13.916-1.9886 3.4806 5.4679 13.922 16.156 16.161 10.688" stroke="#000" stroke-width=".80420" fill="#fff"/>
 <path id="path906" d="m1112.7 407.72c-5.4684 5.4679-7.9519 16.653-0.7462 25.353" stroke="#000" stroke-width=".80420" fill="#fff"/>
 <path id="path908" d="m1120.2 416.17c-1.7371 3.7283-2.2324 9.4452-0.2444 12.925" stroke="#000" stroke-width=".80420" fill="#fff"/>
 <path id="path910" d="m1213 397.9c18.271 1.4913 21.379-18.643 7.7074-19.885" stroke="#000" stroke-width=".80420" fill="none"/>
 <path id="path912" d="m1190.5 343.59c-6.3372-8.0774-20.877-10.812-21.128 6.339" stroke="#000" stroke-width=".80420" fill="none"/>
 <path id="path914" d="m1167.7 369.44c-6.2149-15.411-22.125-17.648-30.579-9.9425-7.0319 6.413-7.2056 23.117 7.9583 26.596 5.2177-6.2136 15.408-14.416 22.62-16.653z" stroke="#000" stroke-width=".80420" fill="#fff"/>
 <path id="path916" d="m1160.8 359.74c-8.9493-7.9545-22.125 7.0847-10.191 20.879" stroke="#000" stroke-width=".80420" fill="#fff"/>
 <path id="path918" d="m1190.5 343.59c-5.4687-5.8411-17.396-1.243-14.044 10.565 2.6119-5.4679 8.2028-10.067 14.044-10.565z"/>
 <path id="path920" d="m1156.7 375.43c3.7637-2.7323 7.6496-4.977 10.924-5.9935-1.7885-4.4224-4.3683-7.7608-7.3471-10.09-2.8437-1.9642-11.014 9.0238-3.5772 16.083z"/>
 <path id="path922" d="m1142 355.27c-8.949-5.9652-17.152-5.4679-19.886-0.49668-6.4593-0.24898-11.806 4.4739-12.056 13.919" stroke="#000" stroke-linecap="round" stroke-width=".80420" fill="none"/>
 <path id="path924" d="m1123.9 372.67c-10.686-7.3317-25.355-4.5974-24.358 11.808" stroke="#000" stroke-linecap="round" stroke-width=".80420" fill="none"/>
 <path id="path928" d="m1093.1 393.8c5.2175-4.2256 12.674-7.2082 18.394 0.24898" stroke="#000" stroke-linecap="round" stroke-width=".80420" fill="none"/>
 <path id="path930" d="m1172.9 377.64c-1.988 2.7336-3.4807 6.9592-0.2509 13.422-3.976-5.2202-13.916-5.2202-24.608 8.6989" stroke="#000" stroke-linecap="round" stroke-width=".80420" fill="none"/>
 <path id="path932" d="m1196.5 376.89c-12.925 1.4913-12.674 9.9418-2.2389 13.671" stroke="#000" stroke-linecap="round" stroke-width=".80420" fill="none"/>
 <path id="path934" d="m1104.5 345.33c-10.937-2.237-18.889 4.2256-3.7251 9.6942" stroke="#000" stroke-linecap="round" stroke-width=".80420" fill="none"/>
 <path id="path936" d="m1125.4 337.87c-15.415-3.7283-21.63 0.24835-14.669 3.7283" stroke="#000" stroke-linecap="round" stroke-width=".80420" fill="none"/>
 <path id="path938" d="m1080.9 399.76c-0.4955 5.4686 2.4833 12.677 11.432 4.4746" stroke="#000" stroke-linecap="round" stroke-width=".80420" fill="none"/>
 <path id="path940" d="m1083.9 416.17c0 1.4913-0.2509 3.231-1.248 4.4739" stroke="#000" stroke-linecap="round" stroke-width=".80420" fill="none"/>
 <path id="path942" d="m1048.1 343.34c-9.4444-2.7343-11.182-11.434-0.2445-10.688" stroke="#000" stroke-linecap="round" stroke-width=".80420" fill="none"/>
 <path id="path944" d="m1044.9 363.47c-10.442-3.4799-10.442-13.671-1.7436-12.677" stroke="#000" stroke-linecap="round" stroke-width=".80420" fill="none"/>
 <path id="path946" d="m1064.2 358.25c-12.179-2.9832-12.674-11.434-3.4741-10.191" stroke="#000" stroke-linecap="round" stroke-width=".80420" fill="none"/>
 <path id="path948" d="m1065.7 332.4c-6.4592-0.49666-16.406 6.7115 0.251 10.937" stroke="#000" stroke-linecap="round" stroke-width=".80420" fill="none"/>
 <path id="path950" d="m1083.9 346.82c-15.164-2.237-14.913 3.9772-5.9704 7.9545" stroke="#000" stroke-linecap="round" stroke-width=".80420" fill="none"/>
 <path id="path952" d="m1095.3 332.4c-11.684-2.237-15.659 4.7229-7.7075 7.7055" stroke="#000" stroke-linecap="round" stroke-width=".80420" fill="none"/>
 <path id="path954" d="m1058.5 375.4c-2.8629-2.3605-5.2176-13.671 8.4474-10.314" stroke="#000" stroke-linecap="round" stroke-width=".80420" fill="none"/>
 <path id="path956" d="m1086.9 371.92c-9.1937-2.4859-17.892 6.4626-9.4446 11.682" stroke="#000" stroke-linecap="round" stroke-width=".80420" fill="none"/>
 <path id="path958" d="m1099 361.23c-9.6889-1.7403-17.892 0.99399-12.674 4.4739" stroke="#000" stroke-linecap="round" stroke-width=".80420" fill="none"/>
 <path id="path960" d="m990.59 397.4c5.9897-1.4218 14.746 1.5093 28.173 7.8246 8.4537 3.9772 33.808 12.428 49.712 3.9772-16.406 5.9652-28.829-18.891-41.259-15.908-12.43 2.9826-35.172 7.5807-44.739-1.492 23.36 1.492 35.925-17.018 62.631-0.99399 7.4629 4.4739 16.908 7.4572 25.355 6.9599-21.868-26.348-50.703-9.4458-53.688-30.821 13.176 14.168 45.363-3.2316 61.769 23.364" stroke="#000" stroke-width=".80420" fill="#fff"/>
 <path id="path962" d="m1190 343.59c-5.4621 1.012-10.358 4.2217-13.53 10.561" stroke="#000" stroke-width=".80420" fill="#fff"/>
 <path id="path964" d="m1021.5 370.92c-3.0753-3.828-1.6857-7.6438-4.9861-10.662" stroke="#000" stroke-width=".80420" fill="#fff"/>
</svg>
