<?xml version="1.0" encoding="UTF-8" standalone="no"?>
<svg
   xmlns:dc="http://purl.org/dc/elements/1.1/"
   xmlns:cc="http://creativecommons.org/ns#"
   xmlns:rdf="http://www.w3.org/1999/02/22-rdf-syntax-ns#"
   xmlns:svg="http://www.w3.org/2000/svg"
   xmlns="http://www.w3.org/2000/svg"
   xmlns:xlink="http://www.w3.org/1999/xlink"
   xmlns:sodipodi="http://sodipodi.sourceforge.net/DTD/sodipodi-0.dtd"
   xmlns:inkscape="http://www.inkscape.org/namespaces/inkscape"
   width="473.65906"
   height="450"
   id="svg2"
   version="1.1"
   inkscape:version="0.91 r13725"
   sodipodi:docname="Flag-map_of_Cambodia_(precise_boundaries).svg">
  <metadata
     id="metadata213">
    <rdf:RDF>
      <cc:Work
         rdf:about="">
        <dc:format>image/svg+xml</dc:format>
        <dc:type
           rdf:resource="http://purl.org/dc/dcmitype/StillImage" />
        <dc:title></dc:title>
      </cc:Work>
    </rdf:RDF>
  </metadata>
  <defs
     id="defs211" />
  <sodipodi:namedview
     pagecolor="#ffffff"
     bordercolor="#666666"
     borderopacity="1"
     objecttolerance="10"
     gridtolerance="10"
     guidetolerance="10"
     inkscape:pageopacity="0"
     inkscape:pageshadow="2"
     inkscape:window-width="1600"
     inkscape:window-height="837"
     id="namedview209"
     showgrid="false"
     fit-margin-top="0"
     fit-margin-left="0"
     fit-margin-right="0"
     fit-margin-bottom="0"
     inkscape:zoom="1.2274763"
     inkscape:cx="175.17071"
     inkscape:cy="273.2426"
     inkscape:window-x="-8"
     inkscape:window-y="-8"
     inkscape:window-maximized="1"
     inkscape:current-layer="svg2" />
  <path
     style="fill:#032ea1"
     clip-path="none"
     d="m 465.90234,0 c -0.26567,0.18976132 -0.91042,0.94806768 -0.98632,1.1757812 -0.15176,0.3415704 -0.0776,0.836164 -0.19141,1.1777344 -0.0759,0.151809 -0.15066,0.2642066 -0.22656,0.4160156 -0.53134,1.1006158 -0.64548,1.2529818 -1.7461,1.8222657 -0.11386,0.4174749 -0.4553,1.3663037 -0.79687,1.6699219 l -0.91016,0 c -0.83495,0.037952 -0.95025,0.1525294 -1.51953,0.7597656 l -0.26562,0.265625 -0.0762,0 c -0.11386,0.3795226 0.0385,1.0627266 0.15235,1.4042968 l 0.0762,0 -0.3418,0.5683594 -0.0762,0 -0.37891,0.4550782 c 0.038,0.3415702 0.18946,0.7971012 0.18946,1.1386722 0,0.417475 -0.22684,1.140276 -0.30274,1.595703 -0.34157,0.189761 -0.98739,1.138056 -1.02539,1.517578 l 0.53125,0.910156 c -0.15181,0.265666 -0.56943,0.606846 -0.87304,0.720703 l -1.02344,0 c -0.038,0 -1.48153,-0.569472 -1.51953,-0.607422 -0.26566,-0.151809 -0.53122,-0.453659 -0.79688,-0.605468 l -0.7207,-0.228516 c -0.41747,0.03795 -0.94971,0.226824 -1.36719,0.302734 -0.41747,-0.227714 -1.13836,-0.796526 -1.32812,-1.251953 -0.15181,-0.34157 -0.15093,-0.835054 -0.30274,-1.138672 -0.26566,-0.493379 -0.91149,-1.214227 -1.29101,-1.59375 L 447.98828,9.7148438 C 447.4949,9.3353205 445.21773,9.56472 444.64844,9.640625 c -1.48014,0.645189 -1.32751,2.504545 -1.70703,3.794922 l -0.30469,0.492187 -0.15039,0.265625 c -0.15181,-0.113857 -0.79768,-0.491915 -1.02539,-0.416015 -0.37952,0.569284 -0.83505,2.162295 -0.87305,2.769531 -0.038,0.645189 0.0753,1.594203 0.11328,2.277344 -0.038,0.03795 -0.3409,0.49414 -0.3789,0.49414 l -0.72071,0.341797 c -0.038,0 -1.63202,-0.115234 -1.66992,-0.115234 -0.41747,-0.113857 -0.79679,-0.4933 -1.32812,-0.53125 -0.98676,0.303619 -1.25325,3.453803 -1.89844,4.478516 l -1.0625,0.683593 c -0.11385,0.341571 -0.45615,0.98602 -0.75977,1.175781 l -0.49219,0.189454 c -0.0759,0.03796 -0.11466,0.115234 -0.22851,0.115234 l -0.68359,-0.03906 -0.33985,0 -0.38086,0.341796 -0.98633,-0.113281 c -0.75904,0.34157 -0.94856,1.365995 -1.59375,1.859375 l -0.3789,0.189453 c -0.0759,0.03795 -0.11551,0.07617 -0.19141,0.07617 l -1.32812,-0.07617 -0.68164,-0.03711 -0.45704,-0.417969 c -0.15181,-0.531332 -0.34063,-1.44301 -0.56835,-1.898437 l -0.79688,-1.251954 -0.37891,-0.644531 c -0.64519,-0.265666 -1.51914,-0.532362 -2.24023,-0.570312 0.26567,0.34157 0.49335,0.986823 0.53125,1.404297 l 0.0391,0.722656 -0.38086,0.833984 c -0.56928,0.683141 -1.36653,1.214187 -2.01172,1.859375 -0.22771,0.265666 -0.45393,0.646444 -0.68164,0.91211 0,0.03795 -0.11523,0.11244 -0.11523,0.15039 -0.34157,0.759045 -0.68325,1.557094 -1.13867,2.240235 -0.22772,0.11386 -0.56917,0.152073 -0.79688,0.07617 -0.45543,0.113855 -1.06135,0.568853 -1.28906,0.986328 l -0.0762,0.644531 c 0.0759,0.0759 0.34179,0.569737 0.34179,0.683594 -0.038,0.227713 -0.0764,0.645333 -0.15234,0.873047 -0.11386,0.303618 -0.56944,0.834519 -0.87305,0.986328 -0.0759,0 -0.75897,-0.07617 -0.79687,-0.07617 l -1.93555,-0.873047 c -0.56928,-0.265666 -1.02531,-0.454195 -1.55664,-0.757813 -0.11386,-0.03795 -0.18887,-0.114393 -0.30273,-0.152343 -0.37952,-0.113861 -1.29124,-0.227446 -1.63282,0.07617 l -0.30273,1.669922 c -0.41748,0 -1.02561,-0.265584 -1.36719,-0.53125 -0.26566,0.03795 -0.53094,0.188879 -0.7207,0.302735 l -0.49414,0.304687 c -0.49338,0.455428 -0.64534,1.328311 -0.87305,1.935547 -0.038,0 -0.22656,0.188613 -0.22656,0.226563 l -0.75977,-0.150391 c -0.45543,-0.265665 -0.94781,-1.329729 -1.0996,-1.785156 l -1.21485,-0.302735 c -0.37952,-0.379523 -0.83506,-0.760259 -1.13867,-1.177734 -0.18977,-0.303618 -0.30438,-0.720662 -0.49414,-0.986328 -0.75905,-1.062663 -1.59279,-2.162789 -2.42774,-3.1875 -0.37952,-0.455427 -0.87243,-0.910918 -1.25195,-1.404297 -0.41748,-0.531332 -0.57084,-1.518874 -0.72265,-2.164063 0,-0.03795 -0.15156,-0.303846 -0.18946,-0.341796 -0.26566,-0.607237 -0.79595,-1.555182 -1.36523,-1.972657 l -0.49414,-0.113281 c -0.41747,0.265666 -1.17685,1.137831 -1.48047,1.175781 l -0.41797,-0.113281 -0.64453,-0.759766 c -0.37952,0 -1.85849,-0.189145 -2.16211,-0.378906 -0.49338,-0.303619 -0.87465,-0.874116 -1.33008,-1.177734 -0.11386,-0.0759 -0.22598,-0.03627 -0.33984,-0.07422 l -0.64649,-0.152344 c -0.34157,-0.03795 -1.3652,0.493833 -1.63086,0.683594 l -0.15234,-1.214844 -0.60742,-0.417968 -0.6836,-1.707032 c -0.18976,-0.455427 0.0762,-1.215913 -0.18945,-1.519531 -0.41748,0.03795 -1.10068,-0.339803 -1.4043,-0.605469 l 0,-0.07617 -0.53125,-0.152344 c -0.45542,0.189761 -1.44131,0.454543 -1.97265,0.302734 l -0.41797,-0.265625 -0.0762,-0.341797 0.60742,-1.175781 c 0,-0.03795 -0.0391,-0.340956 -0.0391,-0.378906 l -1.13672,-2.998047 c -0.18976,-0.493379 -0.34175,-1.138323 -0.60742,-1.59375 -0.22771,-0.34157 -0.64644,-0.759992 -0.91211,-1.1015626 -0.26567,-0.3415704 -0.6456,-0.5691614 -0.94922,-0.796875 -0.41747,0.037952 -1.44052,0.3026934 -1.74414,0.5683594 -0.18976,0.1518089 -0.37944,0.4938312 -0.53125,0.6835942 -0.15181,0.151809 -0.30522,0.418503 -0.45703,0.570312 -0.60724,0.531332 -2.31407,1.365728 -3.03516,1.783203 -0.15181,0.0759 -0.26616,0.152616 -0.41797,0.228516 l -0.26562,0.68164 c 0,0.07591 0.26562,0.835938 0.26562,0.835938 0.11386,0.189761 0.91206,0.94949 1.17773,1.025391 0.15182,0.227712 0.37891,0.681599 0.37891,0.947265 l -0.18945,0.189453 c -0.18976,0 -0.49384,8.42e-4 -0.6836,-0.03711 -0.56929,-0.189762 -1.13885,-0.493566 -1.74609,-0.607422 -0.26566,-0.07591 -0.60654,-0.07533 -0.91016,-0.113281 l -0.53125,0.189453 c -0.11386,0.189761 -0.22794,0.34233 -0.34179,0.494141 0,0.189761 2.4e-4,0.530941 0.0762,0.720703 0.22771,0.493379 0.56831,0.987088 0.83398,1.480468 -0.0759,0.151809 -0.18887,0.379178 -0.30273,0.455079 -0.37952,0.34157 -0.83532,0.569695 -1.21484,0.949218 -0.038,1.138568 -0.26666,1.213878 -0.83594,2.048828 -0.56928,0.189757 -1.89751,0.265936 -2.4668,0.07617 -0.53133,-0.189761 -0.6076,-0.265353 -1.21484,-0.189453 -0.15181,0 -0.34038,-0.03879 -0.49219,0.03711 -0.41747,0.15181 -0.83448,0.492723 -1.25195,0.644532 l -1.55664,0.53125 c -0.22771,0.07591 -0.45588,-0.03711 -0.6836,-0.03711 l -0.68359,-0.03711 c -0.038,0 -1.09988,-0.532363 -1.17578,-0.570313 -0.30362,-0.151807 -0.45447,-0.379178 -0.83399,-0.455078 l -0.41797,-1.480468 -0.98632,-0.494141 c -0.18976,-0.0759 -0.41851,-0.188035 -0.57032,-0.339844 l -0.94922,0.339844 c -0.0759,-0.34157 -0.41735,-1.100143 -0.79687,-1.251953 l -0.26563,0.115234 c 0,0.03795 -0.26562,0.339844 -0.26562,0.339844 -0.038,0.113856 -0.37891,1.784316 -0.37891,1.822266 l 0.41797,1.214843 0.18946,0.607422 -0.15235,0.720703 c -0.0759,0.03795 -0.68359,0.53125 -0.68359,0.53125 l -0.41602,0.949219 c 0,0.151809 0.0371,0.227097 0.0371,0.378906 0.0759,0.645188 0.0372,1.025577 -0.22851,1.632813 -0.22771,0.455427 -0.53011,0.94887 -0.75782,1.404297 -0.30362,0.569284 -0.5312,1.213075 -0.79687,1.820312 -0.15181,0.03795 -1.51874,0.380019 -1.55664,0.417969 l -0.64453,0.570312 c -0.72109,0.569286 -1.44351,0.568134 -2.31641,0.226563 -0.68314,-0.265666 -1.3272,-0.606229 -1.89648,-1.099609 -0.56928,-0.0759 -1.1386,0.113816 -1.66993,0.265625 -1.06266,0.265666 -2.05065,-0.380202 -2.84765,-1.025391 l -0.37891,0.152344 c -0.22772,0.721093 -0.41793,1.55625 -0.68359,2.277344 -0.038,0.03795 -0.41708,0.530409 -0.45508,0.568359 l -0.60742,-0.910156 -0.41797,-0.03906 -0.49219,0.835938 c -0.60724,-0.417471 -1.17596,-0.569554 -1.7832,-0.07617 l -0.72266,-0.07617 c -0.94881,-0.607236 -1.66842,-1.403332 -2.35156,-2.238281 l -0.41797,-0.115235 -0.3418,0.152344 c -0.30362,0.265666 -0.303,0.948603 -0.3789,1.328125 -0.038,0.189761 0.18866,2.429339 0.22656,2.884766 0,0 0.11523,0.190565 0.11524,0.228515 l 1.7832,0.492188 c 0.45543,0.341571 0.98686,1.823027 1.13867,2.316406 0.0759,0.341571 0.11434,0.83421 0.15234,1.175781 0.0759,0.607236 -0.57004,1.74628 -0.49414,2.353516 0.0759,0.417475 0.11408,1.062726 0.3418,1.404297 0.49338,0.759045 1.63251,1.896629 1.82227,2.769531 0.038,0.03795 0.41601,0.304688 0.41601,0.304687 0.75904,0.189763 2.08696,0.417045 2.65625,0.986329 0.18976,0.189761 0.30438,0.531784 0.49414,0.683593 0.18976,0.151809 0.57001,0.227098 0.75977,0.378907 0.26567,0.189762 0.6448,1.176849 0.7207,1.480468 0.11385,0.531331 0.0368,1.251872 0.22656,1.783203 0.18976,0.569286 0.72261,1.329154 0.98828,1.898438 0.22771,0.531332 0.37887,1.13859 0.64454,1.669922 0,0.03795 0.60742,0.985487 0.60742,1.023437 0.87291,1.024711 2.61814,2.200782 3.71875,2.921875 0.038,0.151809 0.22851,1.253066 0.22851,1.291016 -0.0759,0.872902 -0.53254,2.011061 -1.17773,2.65625 0,0 -0.87216,0.380019 -0.91016,0.417969 -0.41747,0.189761 -1.25271,0.340956 -1.74609,0.378906 l -0.37891,0.304687 -0.18945,0.796876 c -0.68314,0.379523 -1.40475,0.683552 -2.08789,0.949218 l -0.45508,0.607422 c 0.0759,0.910854 0.15177,1.821567 0.26563,2.732422 0.0759,0.379522 0.22656,0.797101 0.22656,1.138672 0.038,0.759045 -0.11357,2.011597 -0.18945,2.808594 l -0.49219,0.339843 -0.64649,0 c -0.64518,-0.227714 -1.29035,-0.64449 -1.93554,-0.910156 -1.29038,-0.493379 -2.77044,-0.758882 -4.13672,-1.0625 l -0.11328,0 -0.72071,0 -0.94922,0.03711 c 0,10e-7 -0.60684,0.303847 -0.7207,0.341797 l -1.17773,0.494141 c -0.0379,0 -0.0362,0.07533 -0.0742,0.113281 0,0 -0.68466,-0.304112 -0.98828,-0.417969 -0.0379,0 -1.82169,-0.113281 -1.93555,-0.113281 -0.64518,0.03795 -1.02443,0.304153 -1.85937,0.152344 -0.5693,-0.113857 -1.17682,-0.342332 -1.7461,-0.494141 -0.11386,-0.03795 -0.22795,-0.11244 -0.3418,-0.15039 -0.038,-0.03795 -0.41601,-0.191407 -0.41601,-0.191406 -2.04942,-2.16328 -4.25078,-4.173235 -6.41406,-6.222657 -0.26567,-0.265666 -0.57054,-0.569161 -0.91211,-0.796875 -0.64519,-0.455427 -1.44186,-0.760259 -2.125,-1.177734 -0.11386,-0.0759 -0.26474,-0.417394 -0.30274,-0.53125 -0.0759,-0.341571 -0.22772,-0.681867 -0.26562,-1.023438 -0.11386,-0.721093 -0.15262,-1.481189 -0.22852,-2.240234 -0.0379,-0.455427 0.41886,-1.78454 0.11524,-2.164062 l -0.60743,-0.265626 -0.68359,0.191407 -3.03711,-0.91211 c -0.34157,-0.0759 -1.17659,-0.871895 -1.4043,-1.099609 -0.45543,-0.03795 -1.55633,1.516695 -1.74609,1.820312 l -0.30273,-0.03711 c -0.72109,-0.910855 -2.84613,-2.276419 -3.79493,-2.845703 l 0.0371,0.644531 -0.83398,0.228516 -0.30469,0.986328 -0.45508,-0.115234 c -0.53134,-0.607236 -0.49241,-1.289249 -0.83398,-1.896485 -0.15181,-0.265666 -0.34233,-0.531209 -0.49414,-0.796875 l -0.75977,-0.228515 -0.49218,0.265625 c -0.22771,-0.49338 -0.37967,-1.21396 -0.87305,-1.517579 l -0.53125,0.03711 c -0.18976,-0.265666 -0.72093,-0.416856 -1.0625,-0.378906 l 0.3418,1.02539 c -0.75904,0.189761 -2.01138,-1.442167 -2.4668,-1.935547 -0.15181,-0.03796 -0.34149,-0.07728 -0.53125,-0.115234 -1.25243,0.645189 -2.23923,1.519676 -3.33984,2.392578 -0.53135,0.41748 -1.29094,0.150617 -1.82227,0.492188 -0.30362,0.189761 -0.53232,0.456723 -0.83594,0.646484 l -1.97265,1.099609 c -0.60724,0.379522 -0.72208,0.4933 -0.83594,0.53125 -0.0759,0.03796 -1.13867,0.113282 -1.13867,0.113282 l -0.30274,-0.455078 -2.23828,0.228515 -0.38086,-0.607422 -0.49219,-0.03711 -0.98828,0.871094 c -0.49338,0.189766 -2.23819,0.0017 -2.76953,-0.07422 l -2.27734,-2.542969 c 0,0 -0.18946,-0.532362 -0.18946,-0.570312 -0.11386,-0.189761 -0.68328,-0.302735 -0.87304,-0.302735 l 0.0371,-0.570312 c -0.0379,-0.493379 -0.56944,-1.328351 -0.87305,-1.669922 -0.45543,-0.07591 -1.0231,-0.03768 -1.47852,0.07617 l -0.49414,-0.949219 -1.40429,0.115234 c -0.22771,-0.151809 -0.75809,-0.873848 -0.83399,-1.101562 -0.1518,-0.417475 -0.15202,-0.948602 -0.34179,-1.328125 0,0 -0.64676,-0.683866 -0.72266,-0.759766 l -0.33984,-1.707031 c -0.11386,-0.0759 -0.26701,-0.152616 -0.38086,-0.228516 -0.22772,-0.379522 -0.45504,-1.023664 -0.72071,-1.365234 -0.0759,-0.0759 -1.59317,-1.633084 -1.70703,-1.708984 -0.53133,-0.455427 -0.57049,-0.03726 -1.17773,-0.910157 -0.0379,-0.0759 -0.11239,-0.114658 -0.15039,-0.228515 -0.34157,-0.872902 0.18839,-1.897472 0.15039,-2.732422 0,-0.34157 -0.37802,-1.023666 -0.41602,-1.365234 0,-0.0759 0.18866,-1.593442 0.22656,-1.783204 0,-0.03795 0.15146,-0.342909 0.18946,-0.380859 l 0,-0.113281 c -0.22771,-0.303618 -0.87328,-0.455919 -1.21485,-0.417969 l -0.75781,0.494141 c -0.30362,-0.0759 -0.95001,-4.1e-5 -1.17773,0.265625 l -0.22657,0.417968 0.49219,1.517579 -0.15039,0.492187 c -0.18976,0.569284 -0.91148,1.026151 -1.29101,1.519531 -0.30361,0.379522 -0.41767,1.214495 -0.60743,1.669922 -0.18976,0.49338 -0.45588,1.024198 -0.68359,1.517578 l 0.72266,0.796875 c -0.37952,0.721093 -1.25382,1.479544 -1.78516,2.048828 -0.56928,0.645188 -1.48034,1.100679 -2.27734,1.404297 l -1.32813,0.53125 c -0.26567,0.07591 -2.12496,0.03879 -2.39062,-0.03711 -0.0759,-0.03795 -1.74531,-0.570313 -1.78321,-0.570313 -0.22771,-0.113857 -1.74662,-1.403989 -1.89843,-1.59375 l -0.37891,-0.757812 c -0.0759,-0.303618 -0.15234,-1.859375 -0.15234,-1.859375 0,-0.151809 8.8e-4,-0.229051 -0.0371,-0.380859 0,-0.03795 -0.49442,-0.683018 -0.57032,-0.796876 -0.45543,-0.683138 -0.68324,-1.51803 -1.13867,-2.201171 -0.0379,-0.03795 -0.341,-0.227675 -0.3789,-0.265625 l -0.0762,-0.417969 c -0.1518,-0.151809 -0.37969,-0.910958 -0.34179,-1.138672 0.038,-0.151809 0.15234,-0.341489 0.15234,-0.53125 0.038,-0.796998 -0.19007,-1.479504 0.18945,-2.314453 l 0.11328,-0.265625 c 0,-0.189762 5.8e-4,-1.934971 -0.11328,-2.048828 l -0.18945,-0.341797 c -0.49338,-0.113857 -1.36546,-0.873274 -1.70703,-1.214844 -0.60724,0.151809 -1.51861,0.531522 -2.08789,0.607422 -0.53134,0.0759 -2.50436,-0.948335 -3.1875,-1.251953 -0.56929,-0.227713 -1.32889,-0.493257 -1.82227,-0.796875 -0.53133,-0.303619 -1.13943,-0.91065 -1.63281,-1.328125 l -0.41601,-0.03906 c -0.4934,0.227714 -1.02616,0.455037 -1.51954,0.720704 -0.45542,0.265665 -0.41593,0.417393 -0.94726,0.53125 -0.94881,-0.265666 -1.74682,-1.707218 -2.50586,-2.314454 l -0.94922,-0.455078 -0.49219,-0.228515 -0.64648,0.03906 c -0.0759,0.0759 -0.94833,0.873047 -0.98633,0.873047 0,0.03795 -1.13809,0.340956 -1.25195,0.378906 -0.18976,0.303618 -0.87244,1.252225 -1.25196,1.328125 -0.22772,0.03795 -0.34148,0.03711 -0.53125,0.03711 l -1.02539,0.03906 -0.53125,0.759766 -0.18945,-0.304688 c -0.45543,-0.759045 -0.34122,-0.418113 -0.45508,-1.291015 0,-0.113857 -9.6e-4,-0.225987 -0.0391,-0.339844 l -0.56836,-0.91211 -0.68359,0.113282 c -0.83495,0.83495 -1.86038,2.771978 -2.69532,3.189453 l -0.83398,0 c -1.36629,-0.645188 -1.10144,-1.70882 -1.89844,-2.771485 l -0.60742,0.115235 c -0.68314,0.721093 -1.40417,1.592825 -2.20117,2.162109 -0.64518,0.455427 -1.44159,0.758574 -2.04883,1.251953 -0.45542,0.341571 -1.10014,1.785076 -1.25195,2.316407 -0.11386,0.113857 -0.56951,0.568359 -0.60743,0.568359 -0.3036,0.189762 -2.31553,0.60716 -2.61914,0.53125 l -1.32812,-0.568359 c -0.49338,-0.34157 -1.063,-0.949713 -1.48047,-1.367188 -0.37952,-0.113861 -0.9486,-0.03768 -1.32812,0.07617 l -0.91016,0.265625 -0.45703,0.341797 c -0.18976,0.265666 -0.26421,0.64449 -0.41602,0.910156 -0.11385,0.189761 -0.56915,0.797988 -0.79687,0.835938 l -0.38086,-0.113282 c -0.15181,-0.265666 -0.53037,-0.645909 -0.83399,-0.759765 -0.26566,-0.265661 -0.91149,-0.22794 -1.29101,-0.341797 -0.49338,-0.151809 -1.02531,-0.530675 -1.55664,-0.644531 -0.64519,-0.113852 -1.32747,-0.113544 -1.97266,-0.189453 l -0.64453,-0.607422 -0.49414,0.15039 -1.02539,0.304688 c -0.75905,0.07591 -1.59252,-0.227403 -2.35156,-0.189453 -0.038,0 -0.56974,0.264784 -0.6836,0.302734 -0.34157,0.07591 -0.72093,0.03822 -1.0625,0.07617 l -0.41797,-0.228516 -0.87304,-0.416015 c -0.45542,-0.265666 -1.13748,-1.025885 -1.63086,-1.44336 -0.11386,-0.0759 -0.15177,-0.150662 -0.26563,-0.226562 0,0 -1.40536,-0.38086 -1.44336,-0.38086 -0.56928,-0.0759 -1.21392,-0.03822 -1.7832,-0.07617 l -0.41797,0.152344 c -0.45542,0.721093 -1.29062,1.898089 -2.01172,2.353516 -0.9488,-0.189762 -0.83497,-0.189063 -1.66992,-0.910156 l -0.37891,-0.341797 -0.11328,-0.417969 0.3418,-0.607422 c -0.26566,-0.34157 -0.72204,-0.682175 -1.10156,-0.833984 l -0.60742,0.339844 c -0.11385,0.227713 -0.75888,1.481581 -0.79688,1.519531 l -0.91016,0.607422 -0.45507,0.302734 0,1.822266 -2.39258,-0.152344 -0.22656,-0.378906 0.0371,-0.796875 c -0.87289,-0.455425 -2.08634,-0.645683 -3.03515,-0.417969 l -0.15235,0.265625 c -0.37951,0 -1.36603,1.555757 -1.59374,1.859375 -0.68316,0.303618 -1.44298,0.342331 -2.16407,0.494141 -0.53134,0.113857 -1.06326,0.265049 -1.55664,0.378906 l -0.26562,0 c -0.34157,0.03795 -0.75804,2.74e-4 -1.09961,0.07617 -0.41747,0.0759 -0.68324,0.378906 -1.13867,0.378906 -0.72109,-0.455427 -1.21366,-1.290358 -1.70704,-1.935547 -0.26566,0.113857 -0.64644,0.266738 -0.91211,0.304687 -0.26565,0.03795 -0.5312,0.03627 -0.79687,0.07422 -1.06266,0.227714 -1.59386,0.569511 -2.73242,0.341797 l -1.0625,-0.189453 c -0.038,0.721093 -0.18965,1.480119 -0.79688,1.935547 l -0.79687,0.115234 c -0.0759,-0.0759 -0.83515,-0.607422 -0.87305,-0.607422 -0.038,0 -0.75919,-0.03822 -0.87305,-0.07617 -0.45542,-0.0759 -1.74632,-0.304913 -2.08789,-0.646484 l -2.54297,-2.390625 -0.75781,-0.189453 c -0.22771,0.265666 -0.45671,0.49299 -0.64648,0.720703 -0.22771,0.265666 -0.49327,0.835362 -0.79688,0.949219 l -1.21289,-0.03711 c -0.45542,-0.493379 -1.02558,-1.024506 -1.63281,-1.328124 l -1.13867,0.15039 c -0.68314,0.113857 -0.79764,0.152693 -1.29102,-0.302734 l -0.60742,-0.570313 -0.37891,0 -0.75781,0 c -0.11386,-0.03795 -0.7592,-0.455078 -0.87304,-0.455078 -0.5693,-0.07591 -1.86068,0.03906 -2.50586,0.03906 l -0.64454,-0.457032 c -0.0379,-0.0759 -0.18945,-0.53125 -0.18945,-0.53125 0,-0.569284 0.15039,-1.175967 0.15039,-1.783203 0.038,-0.683141 0,-1.40475 0,-2.08789 l -0.53125,-0.455079 -3.37695,-0.492187 -0.30469,0.189453 -0.18945,0.720703 c 0,0.379523 0.22879,0.911494 0.30469,1.291016 0.038,0.03795 0,0.301894 0,0.339844 -0.26567,0.227713 -0.6456,0.570847 -0.94922,0.722656 -0.49338,0.227713 -2.01164,0.948684 -2.54297,0.796875 l -2.96094,-2.164063 c -0.75905,-0.151809 -1.85815,-0.03795 -2.61719,0 -0.0759,0.0759 -0.91122,0.720704 -0.94922,0.720703 -0.0379,0.03795 -1.29155,0.266738 -1.44335,0.304688 l -0.98633,0.986328 c -0.72109,-0.03795 -1.63104,0.986555 -2.23828,1.328125 l -0.41797,0.07617 -0.22852,0.03711 c -0.45543,0.683141 -1.17623,1.556292 -1.85937,2.011719 -0.7211,0.265666 -1.897823,-0.644449 -2.277348,-1.175781 l -0.302734,-1.0625 c -0.303618,-0.0759 -1.328084,0.492722 -1.59375,0.644531 l -0.570312,0.910156 -0.607422,0.191407 c -0.151809,0.493379 -0.493524,1.062727 -0.873047,1.404296 -0.455427,0.227714 -1.819964,0.530138 -2.275391,0.492188 -0.227714,0 -0.341488,-0.07533 -0.53125,-0.113281 -0.68314,-0.151809 -1.822718,-0.417707 -2.505859,-0.341797 l -0.494141,0.228516 c 0,0 -1.441941,-0.153185 -1.59375,-0.115235 -0.796997,0.189761 -1.555675,0.342069 -2.390625,0.417969 l -1.630859,0.189453 c -0.0759,0 -1.973726,1.138364 -2.277344,1.328125 -0.265666,0.151809 -1.100679,0.684434 -1.404297,0.646484 l -3.986328,-0.49414 c -0.03795,0 -0.454237,0.152344 -0.492187,0.152344 -0.531332,0.18976 -1.062419,0.41655 -1.59375,0.568359 -0.455428,0.113857 -0.987933,0.189987 -1.44336,0.341797 -0.759046,0.265665 -1.556251,0.759992 -2.277344,1.101562 -2.087373,1.024711 -4.858019,2.390072 -6.414062,4.173828 -0.493379,0.607236 -0.910917,1.329421 -1.404297,1.97461 -0.303618,0.455427 -0.682977,1.061883 -1.0625,1.441406 -0.34157,0.34157 -1.516388,1.063569 -2.009765,1.367188 l -0.115235,0.339843 c -0.83495,0.607238 -2.353085,0.608535 -3.339844,0.646485 l 0,0.796875 c -0.03795,0.03795 -0.644531,0.265625 -0.644531,0.265625 -0.34157,0.303618 -0.721772,0.834211 -1.02539,1.175781 l -0.07617,0.646484 c -0.341571,0.759046 0.570929,1.93378 0.191406,2.541016 -0.151809,0.265666 -0.456725,0.494102 -0.646484,0.759765 -0.15181,0.189763 -0.644532,1.025351 -0.644532,1.291016 -0.03795,0.796998 0.303926,0.606992 -0.189453,1.59375 -0.49338,0.986759 -1.405366,0.985938 -1.708984,1.707031 -0.151811,0.379523 0.07701,0.722616 0.03906,0.988282 -0.113857,0.683141 -0.379441,1.402796 -0.53125,2.085937 l 0.341797,0.91211 c 0.227709,0.68314 0.112168,0.872655 0.07422,1.59375 L 51.386719,62.886719 51.349609,63 c -0.03795,0.03795 -0.304687,0.457031 -0.304687,0.457031 -0.68314,0.455427 -1.82019,0.985177 -2.617188,1.212891 -0.379523,0.113857 -0.949445,0.153145 -1.291015,0.380859 l -0.265625,0.265625 c -0.455427,0.417474 -1.025042,0.797369 -1.480469,1.214844 -0.948807,0.910854 -1.858677,1.857834 -2.769531,2.806641 -0.721093,0.721093 -2.050433,1.747616 -2.50586,2.734375 -0.151809,0.303618 -0.303006,0.83421 -0.378906,1.175781 -0.07591,0.265666 -0.07644,0.607381 -0.152344,0.873047 0,0.03795 -0.188612,0.264784 -0.226562,0.302734 -0.113857,0.645188 -0.152879,1.442703 -0.304688,2.087891 0,0.07591 -0.872471,2.504441 -0.986328,2.65625 -0.569284,0.986759 -1.177652,1.935116 -1.708984,2.921875 -0.265666,0.531332 -0.53121,1.13859 -0.796875,1.669922 0,0 -0.188613,0.227675 -0.226563,0.265625 -0.227712,0.759045 -0.03906,1.405016 -0.03906,2.164062 0,0 -0.150391,0.340956 -0.150391,0.378906 -0.03795,0.07591 -0.457031,0.53125 -0.457031,0.53125 -0.645188,0.34157 -1.669532,0.683553 -2.390625,0.949219 l -0.113281,0.03906 c -0.455427,0.34157 -0.948027,0.79599 -1.441406,1.099609 -1.176521,0.721093 -2.428949,1.365687 -3.605469,2.048828 l -1.253907,0.722656 c -0.607234,0.379522 -1.06211,0.873006 -1.783203,1.138672 -0.417475,0.189761 -1.251604,0.302159 -1.707031,0.416016 -0.189761,0.227713 -0.79741,0.987706 -0.949219,1.101562 -1.062663,0.759046 -1.213919,0.758719 -1.783203,2.125 -0.189761,0.379523 -0.265666,0.569429 0,0.873047 0.185447,0.211939 0.75342,0.911806 1.199219,1.386719 l 448.464843,0 c -0.0113,-0.380127 -0.023,-0.789674 -0.0449,-0.855469 l -0.53125,-1.0625 c -0.53133,-1.024711 -1.29067,-2.162789 -1.7461,-3.1875 l -0.60742,-1.822265 c -0.22772,-0.721093 -0.49214,-1.44297 -0.75781,-2.164063 -0.18976,-0.531332 -0.49353,-1.251604 -0.87305,-1.707031 -0.11386,-0.151809 -1.78485,-1.289597 -1.97461,-1.441406 -0.0759,-0.07591 -1.10067,-0.835938 -1.13867,-0.835938 -0.53134,-0.189761 -1.29008,-0.112973 -1.85937,-0.302734 l -0.75782,-0.417969 c -0.45543,-0.227714 -0.30354,-0.11324 -0.53125,-0.378906 -0.11386,-0.151809 -0.37979,-0.379708 -0.34179,-0.607422 l 0.7207,-1.519531 -0.41797,-1.0625 c 0.26566,-1.745804 1.21534,-1.668608 1.63281,-2.958985 -0.11385,-0.265665 -1.10179,-0.911225 -1.44336,-1.214843 l -0.11328,-0.417969 c 0.15181,-0.455427 0.45615,-0.797101 0.75977,-1.138672 0.1518,-0.151809 0.303,-0.378597 0.3789,-0.568359 0.11381,-0.379522 0.34211,-2.504976 0.15235,-2.808594 l -0.3418,-0.189453 c -0.11386,-0.03795 -0.53068,-0.380284 -0.64453,-0.494141 -0.30362,-0.303618 -0.64542,-0.94887 -0.60742,-1.404297 0.0759,-0.872902 0.45485,-3.074364 0.11328,-3.947265 -0.53133,-0.189763 -0.79804,-1.063262 -0.83594,-1.556641 -0.34157,0 -1.21396,-0.07591 -1.51758,0 -0.45543,0.113857 -0.94912,0.455919 -1.48047,0.417969 l -0.45507,-0.226563 -1.7461,0.189453 c -0.64519,-0.379523 -1.13748,-0.912027 -1.63086,-1.443359 -1.17653,-1.214472 -0.75879,-2.049467 0.0762,-3.339844 -0.038,-0.113857 -0.57032,-0.796034 -0.57032,-0.833984 0,-0.03795 -0.0762,-0.645644 -0.0762,-0.683594 0.22771,-0.455427 0.83567,-1.632731 0.75977,-2.164063 -0.30362,-0.379522 -0.64476,-0.910383 -0.98633,-1.251953 -0.038,-0.03795 -0.49441,-0.188612 -0.57031,-0.226562 -0.30362,-0.189761 -1.44084,-0.911493 -1.55469,-1.291016 0.0379,-0.607236 0.64448,-2.278104 0.91016,-2.771484 0.26566,-0.493379 0.83478,-0.948026 1.0625,-1.441406 0.15181,-0.379523 0.0379,-1.176502 0.53124,-1.935547 0.15182,-0.189762 0.91097,-0.189453 1.13868,-0.189453 0.038,-0.645188 0.49241,-1.783122 0.83398,-2.314453 0.11386,-0.189763 0.56973,-0.45588 0.6836,-0.683594 0.0759,-0.151809 0.94921,-2.162912 0.94921,-2.390625 0,-0.379523 -0.15118,-0.835321 -0.11328,-1.214844 0.0759,-0.493379 0.37834,-1.024199 0.49219,-1.517578 0.15181,-0.645189 -0.2271,-2.201358 -0.37891,-2.808594 l -0.68359,-0.722656 c 0,-0.303618 -0.19026,-0.795724 -0.41797,-1.023438 l 0.0391,-0.417968 c 0.45543,-0.683141 1.06189,-1.442127 1.44141,-2.201172 0.038,-0.113857 0.15145,-0.834519 0.18945,-0.986328 0.1518,-0.417475 0.9874,-1.555757 1.29102,-1.859375 0.0379,-0.03795 0.37918,-0.190566 0.45508,-0.228516 0.30362,-0.227714 0.6085,-0.531209 0.91211,-0.796875 0.26567,-1.024711 0.45561,-2.086617 0.60742,-3.111328 l 1.59375,1.404297 c 0.53133,0.189761 1.63135,0.26402 2.04883,-0.191406 0.45537,-0.796998 0.15231,-1.821876 0.41796,-2.542969 0.11386,-0.265666 0.71982,-1.212582 0.75782,-1.402344 0.1518,-0.569284 -0.0377,-1.292044 0.0762,-1.861328 0.18976,-0.834949 0.75946,-1.668956 0.94922,-2.503906 0,-0.03795 -0.11328,-1.176053 -0.11328,-1.251953 0.26567,-0.303619 0.68328,-0.683821 0.87304,-1.025391 l 0.30274,-0.759766 c 0.64519,-1.6699 0.79807,-1.668526 0.30469,-3.490234 l -0.57032,-2.1640626 0.26563,-0.796875 c 0.56929,-0.3415704 1.1768,-0.6447577 1.74609,-0.9863282 0.0759,-0.4933794 0.5697,-1.1006787 0.94922,-1.4042968 0.18976,-0.721093 -0.11492,-2.1634053 -0.30469,-2.8085938 0.11386,-0.2656659 0.3038,-0.6073809 0.3418,-0.8730468 0,-0.1518091 -0.15234,-2.42853647 -0.15234,-2.65625005 L 466.20508,0.03710937 465.90234,0 Z m -410.187496,297 0,0.0137 0.265625,0.30469 1.441406,0.0762 0.310547,-0.39453 -2.017578,0 z m 6.365234,0 -0.484375,0.39453 -0.07422,0.68164 0.113282,0.22852 0.152343,-0.0371 0.605469,-1.0625 L 62.265625,297 l -0.185547,0 z m 0.650391,0 0.04297,0.43164 0.265624,0.30469 -0.378906,0.22656 0,0.18945 0.53125,0.49414 0.341797,0.3418 0.910156,-0.57031 0.228516,-0.0371 -1.025391,1.09961 -0.03711,0.30469 0.113281,0.26562 0.417969,0.3418 1.251953,0.11328 0.341797,0.41797 1.175781,0.53125 -0.03711,0.49219 -0.417969,0.41796 0.265625,0.22852 0.568359,0 0.417969,0.94922 0.341797,0.26562 0.378906,-0.0391 0.341797,-0.37891 c 0.379522,-0.0379 0.607381,-0.22847 0.873047,-0.49414 0.227713,-0.22771 0.570005,-0.41793 0.759766,-0.68359 0.455427,-0.72109 -0.191135,-1.13801 -0.115235,-1.7832 0.03795,-0.18976 0.153457,-0.41655 0.191407,-0.56836 0.113857,-0.11386 0.303269,-0.18973 0.455078,-0.26563 l 0.152344,0.26563 c -0.07591,0.26566 -0.228254,0.56942 -0.152344,0.87305 0.151809,0.0759 0.41766,0.15039 0.607422,0.15039 l 0.226562,0.15234 c 0.189766,0.56928 -0.190031,1.32942 -0.07617,1.97461 0.113857,0.49338 0.608492,1.32667 0.91211,1.74414 0.113857,0.15181 0.265888,0.26616 0.341796,0.41797 0.189763,0.30361 0.340646,0.60849 0.56836,0.91211 0.227713,0.26567 0.492989,0.49215 0.720703,0.75781 l -0.03711,0.3418 -0.304688,0.0371 c -0.34157,-0.18976 -0.68271,-0.34149 -0.986328,-0.53125 -0.151809,-0.37953 -1.328352,-2.08701 -1.669922,-2.39063 -0.189762,-0.18976 -0.720662,-0.45508 -0.986328,-0.45508 -0.341571,0 -0.568586,0.26669 -0.910156,0.30469 l -0.228516,0.87109 -0.910156,0.49414 -0.152344,0.22852 -0.455078,0.0762 -0.683594,0.94727 -0.455078,-0.15039 -0.378906,0.0742 -0.417969,0.38086 -0.228515,0.49218 0.07617,0.3418 0.378907,0.22852 0.228515,-0.22852 0.759766,1.10156 0.226562,0.60742 -0.302734,0.3418 0.189453,3.03516 0.494141,1.21484 0.455078,0.45508 0.150391,0.15234 0.683593,0.41797 1.859375,-0.64648 0.646485,0.15234 0.113281,0.56836 -0.228516,0.15234 0.646485,1.48047 0.568359,0.91016 0.115234,1.48047 0.339844,0.57031 -0.605469,-0.19141 -0.228515,-0.53125 -0.03906,-1.09961 -0.302734,-0.0391 -0.568359,0.30469 -0.53125,0 -0.683594,-0.49414 -0.189453,0.79687 -1.253907,0.83594 -0.644531,0.0762 -0.152344,0 -0.113281,0.15039 0.07617,0.45704 -0.304688,0.91015 -0.416015,-0.0371 -0.115235,-0.1914 -1.289062,-0.11328 -0.380859,0.34179 -0.03711,0.3418 0.189453,0.87305 -0.113281,0.68359 -0.341797,0.22656 -0.228515,0.53125 0.265625,1.29102 -0.07617,0.34179 -0.416016,0.15039 -0.912109,0.6836 -0.150391,0.41797 0.07617,0.41797 0.339844,0.34179 0.152344,-0.0391 0.265624,-0.0762 0.720704,-0.60742 1.0625,-0.0371 0.228515,0.22851 1.175781,2.4668 1.367188,3.83203 0.265625,0.30469 0.683594,0.0371 0.492187,0.3789 0.191406,0.30469 -0.07617,0.26563 -0.457032,-0.53125 -0.68164,0 -0.152344,0.11328 -0.07617,0.3418 0.455078,1.70703 0.03906,1.74609 -0.91211,2.16406 -0.341796,0.26563 -0.605469,-0.53125 -0.265625,0.0371 -0.38086,0.45507 0.53125,0.22852 0.115235,0.22852 -0.03906,1.0625 0,0.30273 0.228516,0.60742 0.720703,1.21485 -0.304687,0.22656 -0.07422,0.22851 0.568359,1.17579 -0.152344,1.13867 0.417969,1.29101 -0.226562,2.4668 0.226562,0.41797 -0.226562,0.37891 -0.798829,0.68359 -0.265624,0.53125 -0.07422,0.15234 0.226562,0.45508 0.03906,0.68359 -0.38086,0.0371 0.494141,0.87305 0.07617,0.79688 1.480469,0.79687 0.644531,0.64648 0.417969,0.75782 0.226562,0.98633 -0.113281,0.49414 -0.341797,0.26562 -0.378906,0.0371 0.15039,0.41797 0.494141,0.37891 1.291016,0.26562 0.226562,-0.26562 0.07617,-0.68164 0.455078,-0.18946 0.494141,0.0371 1.328125,1.36719 0.53125,0.15039 0.07617,-0.53125 1.441406,-1.25195 1.708984,-0.11329 -0.07617,-0.34179 -0.568359,0 -0.07617,-0.18945 0.681641,-0.45704 0.341797,-0.45507 0.796875,-0.11329 0.304687,-0.75976 0.757813,-0.41602 0.457031,-0.83593 0.796875,-0.45508 2.314453,0.0762 -0.113281,-0.87305 0.607422,0.49219 0.341797,0.0762 -0.07617,0.53125 0.226562,0.19141 1.44336,0.26562 0.455078,-0.11523 0.720703,0.79687 0.228515,0 0.265625,0.30469 0.53125,0.0371 0.910157,0.57031 0.53125,0.68164 0.378906,0.79688 0.152344,1.29101 0.228515,0.15235 0.416016,-0.75977 0.380859,-0.15039 0.53125,-0.5332 0.417969,0 0.416016,0 0.988281,0.26758 1.023437,-0.41797 0.189453,-0.22852 0.570313,-0.7207 0.796875,-0.0762 0.757812,0.15234 0.03906,-0.41797 -0.570313,-1.55664 -0.03711,-1.55469 -0.833984,-2.08789 0.07422,-0.87304 0.988281,-2.08789 -0.03906,-0.18946 0.189453,-0.22656 0.265625,-1.74609 1.785157,-4.17578 0.07422,-1.70704 0.457032,-0.75976 1.251949,-1.48047 0.18946,-0.64453 -0.11328,-0.37891 -0.26563,-0.11523 -1.898437,0.57031 -0.607422,0 0.683594,-0.57031 0.986328,-1.21289 0.873047,-0.41797 0.38086,-0.53125 0.49219,-2.35352 -0.11328,-0.22851 -0.91211,0.0391 -0.26563,-0.30469 1.36719,-0.41601 0.3418,0.0762 0.26562,0.26562 -0.30469,1.0625 0.19141,0.15039 0.18945,-0.11328 0.41602,-0.56836 0.49414,-0.38086 0.53125,-0.3789 0.18945,-0.56836 -0.0762,-0.49414 -0.53125,-0.79688 0.64648,0.26563 0.98633,0.83398 1.32813,0.0762 0.45508,-0.15039 0.49414,0 1.09961,0.30274 0.26562,0.87304 0.0391,0.11329 0.91016,0.87304 0.60742,0.98633 0.75977,1.7461 0.91015,1.40429 0.22852,0.91211 0.64453,0.26563 0.7207,-0.0762 0.60743,0.26563 1.4414,-0.26563 0.15234,0.0371 0.94922,0.30469 0.56836,0.49219 0.6836,0.0762 0.15234,0.26563 0.11328,0.87304 0.38086,0.30274 0.11328,0.0391 0,0.49219 -0.45508,0.0762 -0.38086,0.30469 -0.15039,0.11328 -0.11523,0.41797 0.79688,1.7832 0.11523,0.60742 -0.45508,2.27734 0.0742,0.37891 1.63281,2.42969 0.53125,1.09961 0.18946,0.87305 0.18945,0.30468 0.49414,0 0,0.79688 0.75976,1.66992 0.45508,1.36523 0.0371,0.91211 0.57031,1.36524 0.0371,1.21484 0.0371,0.0762 0.38086,0.79688 -0.53125,1.4414 -0.83593,1.44336 -0.26563,0.22657 -1.4043,0.45703 -0.26562,0.53125 -0.7207,0.45508 -0.30274,0.79687 -0.15234,2.31445 -0.3418,0.60743 -0.3418,-0.0762 -0.34179,0.26563 0.0391,0.3789 0.26562,0.30469 0.18946,0.53125 0.22656,0.22852 0.91211,0.30273 0.60742,0.3418 -0.11523,0 -0.0762,0 -0.11328,0 -0.0762,0 -0.0762,0 -0.0742,0 -0.0762,0 -0.15234,0.0371 -0.3418,0.0391 -0.94922,0.15234 -0.37891,-0.1914 -0.3789,0.0391 -1.17774,0.49219 -0.91015,-0.64453 -0.60743,-0.0762 -0.45507,0.7207 -0.0762,0.15234 -1.82227,0.18946 -0.68359,-0.60743 -0.37891,0 -0.83399,0.79883 -0.45507,0.64453 -0.64649,0.0371 -0.15234,0.3418 -0.60547,0.22851 -0.38086,-0.0391 -0.18945,0.22852 0.18945,0.87304 -0.11328,0.72071 -0.18945,1.25195 -0.3418,0.49414 -0.49414,0.11328 -0.56836,0.94922 -0.41797,0.30274 -0.18945,0.98828 -0.45508,0.79687 -0.26563,0.26563 -0.91211,0.15039 -0.22656,0.79883 -0.79687,0.94726 0.11328,0.45508 0.7207,0.64648 0.18945,0.3418 0.0391,0.56836 0.0762,-0.0371 0.18945,-0.0762 0.41797,-0.49414 0.37891,-0.11328 0.53125,0.45508 0.26562,0.0762 0.37891,0.11328 0.41797,0.38086 1.48047,1.93555 0.34179,0.41601 1.0625,2.08789 0.15235,0.87305 0.18945,0.26562 0.30273,-0.0762 0.72071,-0.91016 0.41797,-0.3789 0.22851,-0.22852 0.56836,-0.30468 0.3418,0.11523 1.02539,0.91016 0.68164,1.55664 -0.41602,1.55468 0.11329,1.29102 0.22851,0.30469 0.79688,0.0742 0.49218,0.64648 0.45508,0.18945 0.68359,0 0.22852,-0.53125 0.60742,-0.15234 0.53125,-0.15234 0.15039,-0.26563 1.29102,0.0391 0.30469,-0.7207 1.02343,-0.0391 0.49414,0.15234 1.32813,0.0371 1.48047,0.72266 0.3418,0.0371 0.26562,-0.18946 0.45508,-0.87304 0.22656,-0.91016 0,-0.49414 -0.18945,-0.45508 -0.37891,-0.41797 -0.45508,-0.41797 -0.53125,-0.64453 -0.94922,-0.75976 -0.49414,-0.68164 -0.3789,-0.53125 -0.37891,-0.26758 -0.45508,-0.11328 -0.1914,-0.37891 -0.22657,-0.11328 -0.3789,-0.0762 -0.38086,0 -0.45508,-0.49414 -0.11328,-0.37891 0,-0.0762 0,-0.18945 0.0371,-0.45508 0.3418,0.41601 0.0762,0.30469 0.0371,0.11328 0.15234,0.26563 0.49414,0.22851 0.56836,0.0762 0.53125,0.49218 0.45508,0.18946 0.98828,0.9121 0.56836,0.1504 0.68359,0 0.30274,0.11523 0.11523,0.22656 -0.0391,0.64649 0.0391,0.34179 0.26563,0.18946 0.49218,0.11328 0.87305,0.60742 1.48047,0.22656 0.75977,-0.49219 1.09961,0 0.98632,-0.30468 1.0625,0.22851 0.45703,-0.3789 0.11329,-0.22852 2.42773,-4.36523 0.72266,-1.13672 0.94726,-1.10156 0.19141,-0.49414 -0.94922,-2.76954 0.0371,-0.53125 0,-0.11328 c 0,-0.11385 0.0391,-0.22793 0.0391,-0.34179 0.0759,-0.53133 -0.0759,-1.10149 0,-1.63282 0.0379,-0.30362 0.22773,-0.56942 0.26563,-0.87304 0,-0.26566 -0.0388,-0.49215 0.0371,-0.75782 0.15181,-0.1138 0.4185,-0.11492 0.57031,-0.0391 1.29038,1.06266 0.18914,2.31567 0.3789,3.49219 l 0.11329,0.30273 0.7207,-0.22656 0.15234,-0.45508 0.18946,-0.0762 0.53125,0.53125 0.64648,0.0371 0.30273,0.37891 0.22852,0.0391 0.15039,0.53125 -0.11328,0.53125 0.60742,0.91016 0.49414,1.36718 0.64453,1.32813 1.36719,1.21484 0.53125,0.15235 0.64453,0 0.87305,0 3.9082,1.7832 0.79688,0.0371 0.60742,0.49414 0.87305,0.18945 0.57031,0.53125 1.25195,0.57031 1.70703,0.0742 0.49414,0.0391 0.83399,-0.22851 0.64648,0.22851 0.94922,0 0.64453,-0.18945 1.02539,-0.72265 1.25196,-0.49219 0.79687,-0.0762 0.83399,0.18945 0.45703,-0.0371 0.7207,-0.53125 0.3418,-0.83594 0.30273,-1.40429 0.22852,0.11328 -0.11524,0.98828 -0.30273,0.91015 -0.22852,0.6836 0.45703,1.85937 0.26563,0.0371 0.0742,-0.11328 0.53125,0.3418 0.22851,-0.53125 1.17578,-0.98633 0.38086,-0.18945 1.02344,0.15039 0.0762,-0.3418 -0.11328,-0.64453 1.13867,0.26562 0.75977,-0.0762 0.60547,-0.56836 0.53125,0.0762 0.0762,0.37891 0.94922,1.09961 0.68359,0.41797 0.26563,0.49414 0.26562,0.15234 1.09961,2.125 0.26563,1.63086 0.0391,0.83594 0.0371,1.21484 0.15234,0.30274 1.10156,0.37891 1.28907,-0.60743 0.11328,-0.0371 0.49414,-0.22851 0.83594,-0.68164 0.68164,-0.3418 0.64648,-0.11523 0.45508,0.0762 1.21484,1.10156 1.13867,1.93555 0.26563,0.41797 0.41602,0.34179 0.75976,0.37891 0.18945,0.0371 0.83594,0.18945 1.0625,0.0762 0.49219,-0.41601 0.19141,0.68164 0.22656,0.18945 0.15234,0.94922 0.91016,0.57031 0.38086,0.45508 c 1.21447,-0.53133 2.46548,-0.56974 3.75586,-0.68359 l 0.38086,0.22851 c 0.15181,0.53133 0.45446,1.13722 0.83398,1.55469 l 0.3418,-0.0742 c 0.26567,-0.37952 0.64532,-0.83642 0.87304,-1.2539 0.18976,-0.26566 0.2271,-0.68272 0.37891,-0.98633 0.22771,-0.49338 0.60818,-1.02536 1.10156,-1.29102 0.797,0.0759 1.74548,-0.87127 2.125,-1.47851 l -0.0762,0 1.32813,-2.99805 0.18945,-0.15234 c 0.22771,-0.18976 1.25391,-0.94922 1.25391,-0.94922 0,-0.26567 0.15008,-1.40399 0.33984,-1.59375 l 0.60742,-0.60742 0.3418,-0.0762 0.18945,0.22852 0.6836,-0.0391 0.45507,0.26562 2.77149,-0.0762 1.09961,-1.09961 c 0.797,0.0759 3.64361,0.19026 4.21289,0.41797 l 3.98633,1.02344 c 0.75904,0.18977 1.47924,0.26562 2.23828,0.26562 l 8.27343,-0.15039 0.37891,-0.11523 0.75977,-0.22657 c 0.45543,-0.22771 1.78316,-1.55601 2.04882,-1.93554 0.26567,-0.37952 0.49494,-0.94971 0.72266,-1.36719 l 2.23828,-4.13672 c 0.15181,-0.30362 0.30354,-0.72067 0.53125,-0.98633 0.34157,-0.37953 0.75915,-0.98739 1.13867,-1.29101 l 2.54297,-2.01172 c 0.45543,-0.30362 1.40311,-0.75778 1.89649,-1.02344 0.56928,-0.30362 1.13858,-0.60849 1.66992,-0.91211 0.34157,-0.18976 0.60849,-0.41766 0.91211,-0.60742 1.70785,-0.98676 3.49053,-1.85978 5.23633,-2.80859 1.55604,-0.83495 1.1016,-2.08627 0.83593,-3.56641 -0.11386,-0.64519 -0.22705,-1.17765 -0.64453,-1.70898 -0.37952,-0.49339 -1.21476,-1.06162 -1.74609,-1.36524 -0.0379,-0.0759 -0.53125,-1.06356 -0.53125,-1.10156 -0.15181,-0.75905 -0.0396,-1.40307 0.0742,-2.16211 0.0379,-0.22771 0.0762,-0.34149 0.0762,-0.53125 0,0 -0.26563,-0.87411 -0.26563,-0.91211 -0.18976,-0.45542 -0.49299,-0.91065 -0.7207,-1.32813 -0.64519,-1.17652 -1.32888,-2.39015 -1.82226,-3.64257 l 0.34179,-1.21485 0.64649,-0.41797 c 0.0759,-0.34157 0.26562,-0.83421 0.26562,-1.17578 l 0,-0.15234 0.7207,-0.30274 c 0.11386,-0.45543 0.26505,-0.91175 0.37891,-1.36718 0.56928,-0.37952 1.86018,-0.49326 2.08789,-0.79688 l 0.26563,-1.17578 0.26562,-0.18945 c 0.68314,-0.18976 1.85899,-0.60746 2.58008,-0.3418 0.26567,0.37952 0.49387,0.60734 0.41797,1.13867 l -0.15234,0.3418 c -0.37953,0.797 -0.30319,0.64445 -0.98633,1.17578 l -0.11328,0.11328 0,0.57031 0.26562,0.26563 c 0.53133,0.0759 1.13859,0.0368 1.66992,-0.0391 0.64519,-0.0759 2.27669,-0.26424 2.92188,-0.15039 l 1.40429,0.45507 0.72071,0.22657 4.93359,1.89843 0.26563,0 c 0.68314,-0.0379 1.3668,-0.0382 2.08789,-0.0762 0.26567,0.15181 0.60738,0.38029 0.87304,0.49414 0.11386,0.038 0.64481,0.11249 0.72071,0.15039 0.37952,0.18976 0.68382,0.57001 1.02539,0.75977 0.49338,0.26566 1.17544,0.30465 1.63086,0.57031 0.49338,0.26567 1.02616,0.64365 1.51953,0.94727 0.34158,0.22771 0.72009,0.68412 1.09961,0.83594 0.30362,0.11383 0.79794,0.18972 1.10156,0.26562 0.26567,-0.30361 0.3798,-1.02478 0.3418,-1.4043 l -0.38086,-0.7207 0.38086,-0.45703 0.0742,-0.53125 0.60742,-0.33984 0.30468,-0.87305 0.18946,-0.19141 0.3789,-0.0371 c 0.0759,-0.11385 0.53242,-1.06161 0.57032,-1.09961 0.11386,-0.18976 1.21343,-0.87443 1.36523,-0.98828 0.15181,-0.11386 0.26616,-0.11381 0.41797,-0.26562 l 0.94922,-1.36524 c 0.22771,-0.49338 0.3786,-1.25381 0.56836,-1.78515 0.0759,-0.26566 0.38081,-0.79546 0.64648,-0.94727 0.60724,-0.11386 1.59287,0.90954 1.89649,1.28906 l 0.49414,0.0391 c 0.60724,-0.30362 0.83528,-0.56943 1.48047,-0.60743 0.53133,0.18976 1.32835,0.98683 1.66992,1.4043 l 0.45508,-0.0762 0.3789,-0.53125 0.6836,0.53125 c 0.37952,-0.11386 0.91148,-0.30274 1.29101,-0.30274 l 1.97266,-0.22851 0.91015,-0.56836 2.96094,-0.57031 c 0.56928,-0.0759 1.10148,-0.18888 1.63281,-0.30274 0.22772,-0.038 0.45393,-0.15261 0.68165,-0.22851 1.32832,-0.37952 2.73416,-0.72035 4.0625,-1.17578 0.98674,-0.34157 2.01018,-0.79738 2.95898,-1.21485 l 0.0762,-0.0391 0.49414,-0.53125 c 0.34157,-0.37952 0.75915,-0.90927 1.13867,-1.21289 0.038,0 1.13778,-0.64649 1.17578,-0.64649 0.038,0 0.68387,-0.11328 0.75977,-0.11328 0.30362,-0.0759 0.64365,-0.11414 0.94727,-0.0762 0.45542,0.038 2.01221,0.15239 2.42968,-0.11328 l 0.18946,-0.26563 0.45508,-0.0391 c 0.49337,0.91086 1.02615,1.7454 1.51953,2.65625 0.72109,1.32833 1.40386,2.77075 2.39062,3.94727 0.60724,0.72109 1.36653,1.4438 2.01172,2.12695 0.53133,0.56928 1.47874,1.972 1.82031,2.61719 0,0.0379 0.49414,1.32929 0.49414,1.36719 l -0.0762,0.49218 c -0.22772,0.45543 -0.53121,0.91177 -0.79687,1.36719 -0.15186,0.26567 -0.0768,0.87301 0.0371,1.13867 0.53133,0.26567 1.06352,0.60628 1.63281,0.83399 0.18976,0.0759 0.45477,0.0764 0.64453,0.15234 0.56928,0.22771 1.1397,0.60712 1.70898,0.79688 0.64519,0.22771 1.44186,0.37944 2.125,0.53125 l 0.45508,-0.18946 0.45508,-0.64453 c -0.56924,-0.797 -0.45561,-0.57072 -0.60742,-1.51953 l 0.72265,-0.83398 0.68164,-0.18946 0.19141,-0.53125 0.41602,-0.11523 0.34179,-0.56836 -0.45507,-1.4043 0.15234,-0.41797 c 0.41747,0.15181 1.1389,0.37972 1.48047,0.60743 0.038,0.038 0.60663,0.68386 0.64453,0.75976 0.56929,0.64519 1.55488,1.89641 2.16211,2.42774 1.44219,1.25243 2.88479,2.77105 4.55469,3.75781 l 1.21484,0.64648 c 0.60723,0.34157 1.29147,0.68134 1.97461,0.8711 0.038,0.0379 0.52957,0.0762 0.60547,0.0762 1.594,-0.038 3.15099,-0.11239 4.70703,-0.15039 0.53133,0 1.1757,-0.0771 1.70703,-0.0391 0.37953,0.0379 2.01279,1.44332 2.31641,1.70898 0.15176,-0.56928 -0.0391,-1.17681 -0.0391,-1.74609 0,-0.56928 0.0391,-1.13971 0.0391,-1.70899 0,-0.26567 -0.0772,-0.45503 -0.11524,-0.7207 -0.0759,-0.37952 -0.1127,-0.79625 -0.22656,-1.17578 -0.038,-0.0759 -0.0753,-0.11356 -0.11328,-0.18946 l -0.5332,-0.98828 -0.64454,-1.17578 c -0.75904,-1.10061 -1.63073,-2.1639 -2.42773,-3.22656 0,0 -0.15234,-0.56952 -0.15234,-0.60742 0.0759,-0.18977 0.60742,-1.93497 0.60742,-2.04883 0.0379,-0.038 -0.22763,-1.17717 -0.26563,-1.29102 -0.11386,-0.64519 -0.19082,-1.29035 -0.30468,-1.93554 l 0.30468,-0.72071 0.91016,-0.26562 c 1.21448,0.56929 2.04973,1.17754 3.41602,0.57031 0.26566,0 0.68217,-0.26643 0.83398,-0.49414 0.0379,-0.038 0.0762,-0.53125 0.0762,-0.53125 -0.15181,-0.75904 -0.5301,-1.47923 -0.75781,-2.23828 -0.18976,-0.64519 -0.34149,-1.32942 -0.53125,-1.97461 -0.038,-0.0759 -0.0391,-0.15066 -0.0391,-0.22656 -0.11385,-0.8729 -0.26586,-1.70802 -0.60743,-2.54297 -0.038,-0.0759 -0.26473,-0.30496 -0.30273,-0.38086 -0.22771,-0.41748 -0.38054,-0.90981 -0.57031,-1.36524 -0.49337,-0.60723 -1.518,-2.16464 -2.4668,-2.05078 -0.41748,0.26567 -1.67015,0.91234 -2.01172,1.25391 -0.37952,0.37952 -0.56802,0.98655 -1.02344,1.32812 l -0.53125,0 -0.22851,-0.22851 c -0.18976,-0.41747 -0.37886,-1.02478 -0.64453,-1.4043 l -0.53125,-0.56836 -0.26563,-0.26562 c -0.53134,-0.0759 -1.13943,-0.077 -1.63281,-0.30469 l -0.3418,-0.56836 -0.68359,-1.13867 c -0.11386,-0.15181 -0.22599,-0.19083 -0.33984,-0.30469 l -0.6836,-0.60547 c -1.02472,-0.72109 -1.85983,-0.874 -2.54297,-1.97461 -0.11385,-0.87291 -0.19026,-1.82241 -0.41797,-2.69531 -0.0759,-0.26567 -0.34121,-0.64449 -0.45507,-0.91016 l -0.53125,-0.30273 c -0.56928,0.038 -1.25187,0.0756 -1.78321,-0.0762 -0.26566,-0.0759 -0.57026,-0.30496 -0.83593,-0.38086 -0.53133,-0.11381 -1.32858,0.15323 -2.01172,-0.15039 -0.0379,0 -1.21485,-0.75977 -1.21485,-0.75977 -0.41747,-0.37952 -1.44078,-1.44105 -1.82031,-1.89648 0,0 -0.57031,-1.02655 -0.57031,-1.06446 -0.11381,-0.22771 -0.11239,-0.60627 -0.15039,-0.83398 -0.11386,-0.49338 0.11224,-1.29008 0.0742,-1.85937 0,-0.0759 -0.0742,-0.75898 -0.0742,-0.79688 l -0.45703,-0.87305 c 0,0 -0.60574,-0.41707 -0.68164,-0.45507 l -0.60743,0 c -0.53134,0 -1.70895,0.11282 -1.97461,-0.57032 0,-0.60723 -0.0748,-1.47952 0.0391,-2.04883 0,-0.11385 0.41628,-1.02508 0.49218,-1.21484 0.11386,-0.37952 0.15177,-0.75915 0.26563,-1.13867 0.1518,-0.56928 0.37944,-1.10063 0.53125,-1.66992 0.038,-0.15181 0.0391,-0.45477 0.0391,-0.64453 -0.98676,-0.49338 -0.68417,-1.29116 -0.57031,-2.16407 l 0.11523,-1.0625 c 0.038,-0.11386 1.17521,-2.04962 1.28907,-2.27734 0.15181,-0.30361 0.26701,-0.75804 0.38086,-1.09961 l -0.41797,-0.83594 -0.75977,-0.34179 c -0.26566,-0.15181 -0.68191,-0.45531 -0.75781,-0.79688 -0.15181,-0.68314 0.11266,-2.01191 0.49219,-2.61914 l -0.37891,-1.44141 c 0,0 0.26473,-1.78373 0.30273,-1.93554 l 0,-0.15235 c -0.0226,-0.30514 -0.0404,-0.43902 -0.0566,-0.62109 l -254.796871,0 z m -2.462891,1.00195 -0.455078,0.0742 -0.53125,0.0762 -0.417969,0 -0.302734,-0.0762 -0.570313,0.45703 -0.07422,0.41602 0.378906,1.13867 0.568359,1.17773 0.115235,0.18946 0.873046,1.51758 0.416016,1.44336 -0.189453,2.39062 0.113281,0.3418 0.494141,0.45508 0.53125,-0.22852 0.265625,-0.49219 0.455078,-0.22851 0.873047,-1.10157 -0.265625,-0.30273 -0.53125,-0.18945 -0.189453,-0.30469 0.796875,0.0762 0.378908,-0.4922 -0.302734,-1.44336 -0.341797,-0.49218 -0.341797,-0.11524 -0.56836,0.26563 -0.49414,0 -0.341797,-0.22657 0.228516,-0.30468 0.417968,-0.15039 0.226563,0.11328 0.910156,-0.0762 0.417969,0.26562 0.228515,0.30469 -0.03906,-0.2656 -0.53125,-0.98828 -0.265625,-0.0371 -0.455078,0.26563 -0.189453,0.0371 -0.03711,-0.18946 0.871094,-0.64453 -0.15039,-0.15234 -0.835938,0.0762 0.683594,-0.60742 -0.56836,-0.64453 -0.949218,-0.38086 0.302734,-0.60742 -0.265625,-0.30274 -0.341797,-0.0371 z m 2.392578,1.63086 -0.07617,0.22852 0.455078,1.74609 0.341797,0.33985 0.947266,0.15234 0.798828,-0.0762 0.681641,-0.75782 -1.859375,-0.64648 L 63,299.70898 l -0.339844,-0.0762 z m 3.908203,3.26367 -0.152343,0.11524 0.228515,0.56836 -0.53125,0.3418 1.480469,0.3789 0.720703,-0.22656 -0.07617,-0.11524 -0.417969,0.0391 -0.378906,-0.26563 -0.644531,-0.79687 -0.228516,-0.0391 z m -2.08789,0.72071 -0.53125,0.22851 -0.378907,0.3418 -0.189453,0.60742 0.07617,0.26563 1.707031,-0.22852 0.302735,-0.45508 0.115234,-0.34179 -0.07617,-0.18946 -0.53125,-0.22851 -0.49414,0 z m 2.884765,1.55664 -0.265625,0.15234 -0.189453,0.0762 -0.683594,0.60743 0.378907,0.0762 0.341797,-0.3418 0.341796,-0.22852 0.152344,-0.26562 -0.07617,-0.0762 z m -3.416015,0.34179 -0.03711,0.64454 0.455079,0.0391 0.189453,0.45508 0.265625,0.0371 0.152343,0.34179 0.53125,-0.94726 -0.304687,-0.22852 -1.251953,-0.3418 z m -0.417969,0.83594 -0.339844,0.11328 -0.07617,0.3418 0.189454,0.30274 0.341796,0.11328 0.265625,-0.0742 0.113282,-0.3418 -0.113282,-0.30469 -0.380859,-0.15039 z m -5.919922,0.98633 -0.417969,0.79688 -0.189453,0.3789 -0.378906,1.59375 0.417969,1.63281 0.416015,0.72071 -0.341796,1.48047 0.912109,1.82226 0.302734,1.47852 -0.15039,0.53125 -0.570313,0.87304 0.228516,0.57032 0.113281,0.22656 -0.228516,0.57031 0.152344,0.49414 -0.113281,0.37891 0.226562,0.41797 -0.455078,0.0371 -0.03711,0.18945 0.417969,0.37891 0.455078,-0.0742 0.15039,0.91015 -0.189453,0.41797 0.07617,0.15039 0.265625,0.0391 0.189453,0.26562 0.341797,0.30274 0.455078,0 0.38086,0.38085 0.416015,0.0762 0.341797,-0.0762 0.341797,-0.30468 0.304687,-0.53125 0.302735,-1.25196 0.265625,-0.30468 -0.113281,-0.75782 0.07617,-0.26562 0.607422,-0.41797 0.07617,-0.41797 -0.115234,-0.56836 0.265625,-0.7207 0,-0.6836 -0.226563,-1.02539 0.189454,-0.87304 -0.07617,-0.30274 -0.986328,-0.75976 -0.265626,-0.60742 0.03711,-0.30274 0.113281,-0.53125 0.53125,-1.59375 -0.07422,-0.60742 -0.570312,-0.94922 -0.873047,-2.20117 -0.455078,-0.45508 -0.759766,0 -0.53125,0.49219 -0.416015,0.45703 -0.341797,-0.0391 0,-0.60742 -0.494141,-0.83399 z m 8.046875,41.5957 -0.53125,0.26563 -0.380859,0.53125 0.115234,0.22656 0.339844,-0.0371 0.265625,-0.22851 0.494141,-0.0371 0.189453,-0.30274 -0.113282,-0.30468 -0.378906,-0.11329 z m -1.746094,1.97266 -0.455078,0.0762 -0.417969,0.49414 0.341797,0.22656 0.302735,0 0.304687,-0.53124 -0.07617,-0.26563 z m 2.314453,1.66992 -0.265624,0.0762 -0.53125,0.57032 -0.228516,0.91015 0.115234,0.22657 0.56836,-0.72071 0.341796,-1.0625 z m -0.607421,3.56836 -0.302735,0.0762 -0.341797,1.51758 0.113282,0.22656 1.214843,-0.11328 0.417969,0.0762 0.341797,-0.45507 -0.457031,-0.53125 -0.416016,-0.15235 -0.570312,-0.64453 z m 9.982421,6.64063 -0.722656,0.38086 -0.720703,-0.22852 -0.265625,0.0762 0.986328,1.4043 0.722656,-0.22852 0.681641,0.0391 0.380859,-0.3418 -0.646484,-0.45508 -0.113281,-0.45703 -0.302735,-0.18945 z m 1.404297,2.61914 -0.457031,0.0762 -0.265625,0.30273 0.457031,0.22852 0.720704,-0.37891 -0.455079,-0.22851 z m 3.529297,2.65625 -0.796875,0.0762 -0.49414,0.83594 -0.341797,0.26562 -1.214844,-0.0391 -0.720703,-0.45508 -0.492188,0.0762 -0.304687,0.49414 -0.113281,1.28907 -0.644532,1.36718 0.150391,0.41602 0.189453,0.0391 0.494141,-0.41797 0.189453,-0.15234 0.494141,0 0.189453,0.26562 0.03711,0.98829 0.191406,0.26562 -0.152344,0.56836 1.175782,1.21484 0.304687,0.11328 0.455078,-0.0762 0.683594,-0.53125 0.986328,0.3418 0.53125,0.75976 0.56836,1.17579 0.152343,0.60742 -0.07617,1.51758 0.228516,0.75976 0.341797,0.22852 0.226563,-0.0762 0.570312,-0.72071 0,-0.49414 1.214844,-1.4414 0.416015,-0.0762 0.455079,0.30274 0.341796,-0.0762 0.265625,-0.56836 0.722657,-0.18946 0.416015,-0.91211 -0.07617,-1.13867 -0.226562,-0.26562 -0.455078,0.0762 -0.38086,0.75977 -0.455078,0.22656 -0.07617,0.0391 -0.378906,-0.45508 0.228516,-0.60742 -0.417969,-0.41797 -0.494141,-0.79687 -0.644531,0.18945 -0.49414,-0.22656 -0.378907,0.45507 -0.265625,0.0371 -0.835937,-1.02539 -0.03711,-0.26562 0.228516,-0.64453 -0.228516,-1.44141 -0.49414,-0.7207 0.152343,-0.30469 0.378907,-0.26562 0.03906,-0.26563 -0.152343,-0.18945 -1.175782,-0.49414 z m 5.501953,13.32226 -0.302734,0.0762 -0.304687,0.37891 -0.113282,0.45508 0.152344,0.18945 0.417969,-0.0762 0.302734,-0.41602 -0.152344,-0.60742 z m 15.523441,0.37891 -0.22852,0.53125 0.68359,0.64453 0.30274,-0.15039 0.38086,-0.64649 -0.11328,-0.18945 -0.60742,0.0762 -0.41797,-0.26562 z m -14.574222,0.87305 -0.302734,0.0371 -0.646485,0.57031 -0.378906,0.0371 -0.568359,-0.49219 -0.38086,0.11328 -0.683593,0.75977 -0.150391,0.45507 0.492188,1.93555 0.380859,0.6836 0.644531,0.64453 -0.113281,0.49414 0.03711,0.15039 0.607422,-0.0762 0.341797,0.64648 0.378906,0.30273 0.152344,1.0625 0.152344,0.22852 0.720703,0.22656 0.378906,-0.3789 0.228516,-1.82227 0.873047,-0.83398 0.15039,-0.3418 -0.378906,-0.56836 -0.07617,-0.60742 -0.226562,-0.0762 -0.189453,0.15234 -0.191407,1.13672 -0.302734,0.30469 -0.341797,0 -0.683594,-0.26563 -0.455078,-0.49414 -0.189453,-0.45508 0.378906,-0.49218 -0.720703,-0.6836 0.03711,-0.3418 0.228515,-0.15234 0.07617,-0.0371 0.644531,0.0371 0.341797,-0.22656 0.417969,0.0742 0.113281,-0.30274 -0.07617,-0.30468 -0.416015,-0.30274 0.07422,-0.56836 -0.378906,-0.22851 z m 9.41211,0.91015 -0.455079,0.22852 -0.341797,0.45508 0.113282,0.11328 1.214844,-0.0742 0.417968,0.11328 0.228516,-0.3418 -0.191406,-0.22851 -0.644532,-0.26563 -0.341796,0 z m 11.802732,7.5918 -0.49219,0.49219 -0.11523,0.38086 0.0391,0.3789 0.64453,-0.79687 0.0762,-0.18946 -0.15235,-0.26562 z m 18.10352,1.25195 -0.37891,0.18945 -0.0391,0.3418 0.30469,0.83399 0.15234,0.98828 -0.38086,1.47851 -0.26562,0.11524 -0.15039,0.0371 -0.49415,-0.30274 -0.18945,0.0762 0,0.64454 0.75781,0.22851 0.53321,0.41602 0.98632,1.63281 0.41602,0.0762 0.3418,0.64453 0.57031,-0.53125 0.26563,-0.0371 0.18945,-0.45703 0.98633,-0.30273 0.41796,-0.37891 0.11329,-0.38086 -0.18946,-0.87305 -0.0762,-1.17578 -0.0371,-1.25195 -0.22851,-0.68359 -0.45508,-0.45508 -0.75977,-0.37891 -2.39062,-0.49414 z m -15.06641,1.17578 -0.3418,0.30469 0,0.26563 0.6836,0.56835 0.26562,0.38086 -0.18945,0.26563 -0.30469,0.11328 -0.0762,0.18945 0.45703,0.60743 0.53125,-0.0762 0.56836,0.37891 0.11328,-0.11328 -0.0371,-0.26563 0.22657,-0.26562 0.30468,-0.0371 -0.0391,-0.45703 -0.68164,-1.09961 0.0762,-0.30469 -0.1914,-0.26562 -1.36524,-0.18946 z m -2.01172,0.6836 -0.60742,0.0762 -0.26562,0.15234 -0.0371,0.15039 0.68164,0.15235 0.41797,0.49414 0.22851,0.0762 0.22656,-0.41797 -0.11328,-0.30469 -0.53125,-0.3789 z m 68.50391,5.23828 -0.18945,0.0371 -0.18946,0.68359 -0.45703,0.3418 0.83594,0.34179 0.7207,-0.53124 -0.15234,-0.30469 -0.56836,-0.56836 z m -47.89649,0.64453 -0.26562,0.0762 -0.15039,0.30274 0.15039,0.53125 -0.49219,0.64648 0.0762,0.30273 0.11328,0.11329 0.91016,-0.0742 0.26563,0.18945 0.26562,0.79687 0.30469,0.22657 0.3418,-0.18946 -0.26563,-0.64453 0.18945,-0.45508 0.30274,-0.15234 0.38086,0 0.15039,-0.41797 0.30469,-0.0762 0.0762,-0.18945 -0.49414,-0.18946 -0.91016,-0.11328 -1.25391,-0.68359 z m -73.587886,5.23633 -1.177735,0.11523 -0.189453,0.3418 0.07617,0.15039 0.986328,0.0391 0.378906,-0.41797 -0.07422,-0.22851 z m 120.498046,0.64648 c -0.11386,0.11386 -0.22905,0.2659 -0.38086,0.3418 l -0.0371,0.3418 0.18945,0.15039 c 0.22773,-0.038 0.56974,-0.11409 0.6836,-0.3418 l 0,-0.33984 -0.15234,-0.11524 -0.30274,-0.0371 z m -105.925781,4.62891 -0.189453,0.0762 -0.226562,1.10156 -0.570313,0.37891 -0.03711,0.3418 0.302734,0.57031 0.53125,0.3789 0.455078,0.15235 0.152344,0.18945 0.53125,0.7207 0.152344,0.83399 0.226562,0.11523 0.191407,-0.22851 0.302734,0 0.07617,-0.53125 -0.835938,-0.83399 -0.492187,-0.83593 -0.152344,-0.79688 0.07617,-0.37891 0.873047,-0.34179 -0.07617,-0.22852 -0.607422,0.0762 -0.265625,-0.15234 -0.417969,-0.60742 z m -17.951171,37.23242 -0.07617,0.83398 0.912109,0.79688 0.341797,0.15234 0.605469,-0.0371 0.265625,-0.30468 -0.265625,-0.30274 -0.681641,-0.15234 -0.417969,-0.26563 -0.683593,-0.7207 z m -2.998047,0.26562 -0.228516,0.72071 0.228516,0.34179 1.0625,0.37891 0.644531,0.41797 0.380859,-0.37891 -0.228515,-0.18945 -0.833985,-0.26562 -0.49414,-0.87305 -0.265625,0.0371 -0.265625,-0.18946 z"
     id="rect4"
     inkscape:connector-curvature="0" />
  <path
     style="fill:#e00025"
     clip-path="none"
     d="m 19.988281,98 c 0.419798,0.502682 1.069595,1.284324 1.341797,1.435547 l 1.09961,0.455078 0.53125,0.226565 c 0.455425,1.21448 2.239041,0.91225 2.732421,1.78515 -1.062663,0.64519 -2.960856,0.18938 -3.492187,0.72071 -0.49338,0.49338 -1.137172,1.6322 -1.820313,2.01172 -0.417475,0.18976 -0.91065,0.26531 -1.328125,0.45507 -0.645189,0.30362 -0.760445,0.7204 -1.785156,0.91016 -0.303618,-0.11385 -1.631086,-0.49192 -1.972656,-0.41602 -0.07591,0.038 -0.797988,0.22657 -0.835938,0.22657 -0.265666,0 -0.607381,-0.15235 -0.873046,-0.15235 -0.303619,-0.0379 -0.682711,0.0391 -0.986329,0.0391 l -0.341797,0.34179 c -0.986758,0.22776 -2.9214438,0.6072 -3.9082026,0.26563 -0.3415704,-0.45543 -0.9873568,-0.76034 -1.5566406,-0.64649 -0.4554271,0.0759 -0.5305928,0.38059 -1.1757813,0.30469 -0.3795226,-0.0759 -0.9103827,-0.34122 -1.2519531,-0.45508 -0.037952,-0.0379 -0.1143918,-0.0762 -0.1523438,-0.0762 -0.721093,-0.11386 -0.6076074,3.5e-4 -1.2148437,-0.45508 l -0.2265625,-0.18945 c -0.3415703,0.22771 -0.7600325,0.87158 -0.8359375,1.28906 l -0.3789063,0.15235 c -0.64518843,0.22771 -1.06245913,0.30318 -1.32812498,0.98632 L 0,107.78516 c 0.07590452,0.26567 0.34175602,0.68191 0.60742188,0.75781 0.15180905,0.49337 0.41681762,1.44189 0.64453122,1.85937 0.3036181,0.49338 1.0633426,0.4951 1.0253907,1.59571 0,0.41748 -0.00111,0.87158 -0.039063,1.28906 -0.075905,0.797 -0.4548112,2.12488 -0.3789062,2.92187 0.037952,0.60724 0.3420637,1.2541 0.4179688,1.86133 0.075905,0.45543 -0.039063,2.16313 -0.039063,2.73242 0,0.26566 0.037952,0.41683 0,0.64454 -0.075905,0.41748 -0.3791731,0.83447 -0.4550781,1.25195 -0.1138568,0.72109 -0.1138159,1.4039 -0.265625,2.125 l -0.265625,1.13867 c -0.037952,0.18977 -0.1886105,0.41766 -0.2265625,0.60742 -0.0759048,0.41748 -0.076747,0.83448 0.037109,1.25196 0.151809,0.37952 0.7212787,2.01194 0.6074219,2.35351 -0.2656659,0.0759 -0.5315169,0.45586 -0.6074219,0.6836 l 1.0625,3.30273 c 0,0.0759 0.3038449,0.37918 0.3417969,0.45508 0.1518091,0.41748 0.2279399,0.94887 0.3417969,1.40429 l 0.6445312,0.60743 c 0.15181,0.30362 0.2659331,0.98544 0.076172,1.28906 0.4933795,0.83495 1.0621918,2.16363 1.2519531,3.15039 0.075905,0.49337 -0.036575,1.17654 0.1152344,1.66992 0.1518091,0.53133 0.719552,1.59478 0.9472656,2.16406 0.2656659,0.53134 0.9885077,0.83417 1.3300781,1.44141 0.075905,0.30362 -0.00138,0.75973 -0.1152343,1.02539 0.037952,0.797 1.0247742,1.55514 1.4042968,2.23828 l 0.2285156,0.83594 0.1132813,0.41602 0.3046875,0.26562 c 0.3795227,0.038 0.8724307,2.4e-4 1.2519531,0.0762 0.227714,0.038 0.645334,0.34238 0.873047,0.22852 l 1.517578,2.76953 c 0.151809,0.30362 0.150925,0.68466 0.302735,0.98828 0.34157,0.72109 0.760259,1.36653 1.177734,2.01172 0,0 0.03822,0.0754 0.07617,0.11328 l 1.517578,1.36523 c 0.455427,0.11385 0.909807,0.18973 1.365234,0.26563 l -1.136718,0.45703 c -0.15181,-0.1138 -0.532896,-0.11492 -0.722657,-0.0391 -0.341571,0.26566 -0.721238,0.7212 -0.873047,1.13867 l -0.757812,0.15234 -0.646484,0.6836 0.457031,0.11328 c 0.341571,0.45543 1.137253,0.72119 1.289062,1.13867 -0.227713,0.45543 -0.948869,1.06134 -1.404297,1.28906 0.607237,0.83495 0.910959,1.8609 1.138672,2.84766 0.0759,0.37952 0.113816,0.94946 0.265625,1.29101 0.0759,0.22774 0.304112,0.41683 0.417969,0.64454 0.03795,0.038 0.455078,1.13788 0.455078,1.17578 0.0759,0.34157 0.114976,1.36767 0.03906,1.78515 -0.417474,0.30362 -0.872739,0.83475 -1.0625,1.32813 0.607236,0.41747 1.023088,0.83502 1.478515,1.4043 -0.303621,0.53133 -0.340457,0.94718 0.03906,1.47851 0.455427,0.11386 1.556289,0.53125 2.011719,0.53125 l 0.15039,0.19141 c -0.0759,0.11386 -0.492187,0.7207 -0.492187,0.7207 -0.151809,0.56928 -0.340957,1.89668 -0.378907,2.50391 l -0.03906,1.10156 c -0.151809,0.41748 -0.455881,0.87158 -0.683594,1.28906 l 0,0.0762 -0.03711,0.26563 -1.138672,1.13867 c 0,0.11385 0.03711,1.06366 0.03711,1.10156 0.0759,0.30362 0.569778,0.75804 0.417969,1.09961 -0.569284,0.56928 -0.911534,0.98706 -1.025391,1.7461 l -0.03711,0.18945 c 0.910855,2.50485 0.379196,1.89762 2.125,3.60547 0.645188,0.15181 1.32942,0.34318 1.974609,0.45703 0.265666,0.038 1.85991,0.0363 2.011719,0.0742 0.151809,0.0379 0.227097,0.1155 0.378906,0.1914 l 0.720703,0.41602 c 0.796999,0.64518 1.442394,1.59504 2.277344,2.24023 0.379523,0.34157 2.163138,1.13753 2.732422,1.36524 0.113857,0.34157 0.22794,0.72093 0.341797,1.0625 0.113856,0.30362 0.151769,0.68466 0.265625,0.98828 0.151809,0.37953 0.910115,0.94749 1.175781,1.28906 0.227713,0.34157 0.645066,1.06299 0.796875,1.48047 l 0.115235,0 0.226562,0.22852 c 0.796997,0.83496 0.646362,0.41677 1.443359,0.91015 0.227714,0.11385 0.379708,0.37944 0.607422,0.53125 0.759045,0.49338 1.934355,0.83582 2.427735,1.63282 0.07591,0.11385 0.07644,0.18998 0.152343,0.34179 l 0.302735,0.72071 c 0.0759,0.45543 -0.03684,1.02503 0.03906,1.48046 0.0759,0.41747 0.455304,1.55492 0.796875,1.89649 0.569284,0.56928 1.366222,1.06277 2.201172,1.13867 l 0.757813,-0.26562 0.570312,0.11328 c 0.03795,0.0759 0.644531,0.75887 0.644531,0.79687 l 0.417969,1.29102 c 0.0759,0.56929 0,1.3283 0,1.93554 l 0,0.37891 c 0.151809,0.72109 -0.645559,1.78454 -1.214843,2.16406 -0.645188,0 -1.63162,0.30434 -2.125,0.75977 l -0.644532,0.75781 c -0.113857,0.15181 -0.228787,0.1911 -0.304687,0.38086 -0.07591,0.11386 -0.265091,0.87182 -0.113281,1.63086 0.03795,0.11386 0.07617,0.19083 0.07617,0.30469 l -0.152343,1.51758 c -0.151809,1.48014 -0.226789,3.71992 -0.56836,5.1621 -0.113856,0.45543 -0.266159,0.98683 -0.417968,1.4043 -0.15181,0.45543 -0.607422,0.98514 -0.607422,1.47852 0,0.0759 0.228515,0.68412 0.228515,0.83594 0.03795,0.37951 0.07506,0.98571 0.03711,1.36523 -0.03795,0.18976 -0.190566,0.45672 -0.228516,0.64648 -0.03795,0.41747 0.0388,0.87159 -0.03711,1.28907 -0.0759,0.41747 -0.796875,2.61993 -0.796875,2.84765 0.03795,0.79699 0.835321,3.37825 1.214843,4.02344 0,0 0.9866,1.06192 1.0625,1.17578 0.0759,0.45542 0.303804,1.59314 0.607422,1.97266 0.189761,0.22772 0.530942,0.41877 0.720703,0.64648 0.265666,0.41748 0.4941,0.91066 0.759766,1.32813 0.265666,0.37952 1.516737,2.16345 1.554687,2.54297 0.07591,0.60724 -0.189181,1.3283 -0.113281,1.93554 l 0.265625,0.75781 0.152344,0.38086 c -0.03795,0.0759 -0.265625,0.53046 -0.265625,0.56836 -0.03795,0.26567 0.151503,2.65763 0.189453,2.77149 0.189761,0.37952 1.28929,1.55575 1.63086,1.85937 -10e-7,1.32833 0.646937,1.51742 1.330078,2.58008 0.189761,0.30362 0.112129,1.13832 0.339843,1.59375 0.0759,0.11385 0.532363,0.76004 0.570313,0.83594 0.265665,0.79699 -4e-5,2.12518 0.265625,2.73242 0.303618,0.68314 0.758882,1.32858 1.0625,2.01172 0.379522,0.8729 0.68382,1.78335 1.025391,2.65625 0.303618,0.30362 0.833635,0.56973 1.289062,0.68359 l 0.189453,0.87305 c 0.455427,0.49338 1.102015,1.0993 1.785156,1.28906 l 0,0.72071 c 0.189761,0.37952 0.568587,0.76057 0.910157,0.98828 0.0759,0.038 0.378906,0.26473 0.378906,0.30273 0.68314,1.36628 1.290744,2.50562 1.214844,4.09961 -0.03795,0.18976 -0.152344,0.41766 -0.152344,0.60742 -0.03795,0.60723 0.03906,1.21308 0.03906,1.82031 0,0.37953 -0.151231,0.76 -0.113281,1.10157 l 0.189453,1.02539 c 0.151809,0.87291 0.341221,1.78251 0.455078,2.69336 0.0759,0.64519 -0.150925,1.3283 -0.302734,1.93554 l 0.226562,0.79688 0.341797,-0.18945 0.455079,0.68359 0.49414,1.09961 0.03711,0.38086 -0.113282,0.15039 -0.265625,-0.0371 -0.226562,-0.18945 -0.191407,0.45508 0.417969,0.75976 0.189453,0.7207 0.570313,0.11328 0.455078,0.49415 0.378906,1.36523 0.265625,0.15234 0.417969,-0.3789 0.03711,-0.38086 0.265625,-0.30274 0.115235,-0.98632 -0.115235,-0.3418 0.267579,-0.30469 0.15039,-0.22656 c 0.189761,-0.49338 0.0014,-2.08781 -0.15039,-2.61914 -0.07591,-0.30362 -0.228788,-0.60738 -0.304688,-0.87305 -0.0759,-0.22771 8.42e-4,-0.49383 -0.03711,-0.68359 -0.03795,-0.26567 -0.532052,-0.64481 -0.759766,-0.72071 -0.0759,-0.11386 -0.189453,-0.34121 -0.189453,-0.45507 0.531334,-0.49338 0.644259,-0.7976 0.568359,-1.55664 -0.03796,-0.18977 -0.113281,-0.41683 -0.113281,-0.64454 0.0759,-0.15181 0.226834,-0.30326 0.302734,-0.45507 0.0759,-0.11386 0.228516,-0.79826 0.228516,-0.91211 0.03795,-0.41748 -0.113587,-0.91066 0.07617,-1.32813 0.0759,-0.15181 0.226834,-0.30327 0.302734,-0.45508 -0.03795,-0.26567 0.190875,-0.64503 0.03906,-1.0625 -0.151809,-0.30362 -0.532628,-0.53147 -0.646485,-0.87304 -0.03796,-0.18976 -0.03738,-0.45477 -0.113281,-0.64453 -0.0759,-0.30362 -0.644222,-1.5954 -0.833984,-1.78516 -0.151809,-0.18976 -0.873007,-0.52983 -1.138672,-0.68164 -0.0759,-0.22771 -0.265316,-0.49468 -0.455078,-0.64649 -0.03795,-0.038 -1.063613,-0.71981 -1.101563,-0.75781 -0.03795,0 -0.264784,-0.0762 -0.302734,-0.0762 -0.113857,-0.18976 -0.379708,-0.34122 -0.607422,-0.45508 -0.151809,-0.56928 -0.114351,-1.29204 -0.417969,-1.86133 -0.0759,-0.15181 -0.228787,-0.30327 -0.304687,-0.45507 -0.0759,-0.15181 -0.113553,-0.26421 -0.189453,-0.41602 0,-0.038 8.4e-4,-0.0383 -0.03711,-0.0762 -0.0759,-0.038 -0.152615,-0.0765 -0.228515,-0.15235 -0.189763,-0.18976 -0.226563,-0.60737 -0.226563,-0.87304 0.0759,-0.18976 0.22794,-0.34123 0.341797,-0.45508 l 0.226562,0.15234 c 0.113858,0.26566 0.341222,0.49216 0.455079,0.75782 0.113857,0.22772 0.189725,0.41766 0.265625,0.60742 l 0.07617,0.18945 c 0.151808,0.22771 0.418503,0.3426 0.570312,0.57031 0.341568,0.45543 0.112973,1.06131 0.302734,1.55469 0.265666,0.34157 0.682711,0.34149 0.986328,0.53125 0.379525,0.26566 0.494368,0.75972 0.835938,1.02539 0.227713,0.18976 0.53121,0.15178 0.796875,0.26563 0.151809,0.11386 0.227364,0.22772 0.455078,0.26562 0.189761,0.30362 0.45535,0.56969 0.53125,0.94922 0.0759,0.34157 0.03876,0.64561 0.228516,0.94922 0.34157,0.60724 0.871895,1.25129 1.099609,1.89648 0.151809,0.49338 0.114926,1.06326 0.304688,1.55664 l 0.189453,0.0762 c 0.303618,-0.0759 0.416818,-0.26532 0.644531,-0.45508 0.531332,-0.41748 1.215297,-0.98772 1.898438,-1.10156 0.227713,-0.0379 0.492989,0.038 0.720703,0 0.455427,-0.0759 0.796526,-0.34153 1.251953,-0.26563 0.113857,0.0759 0.303268,0.15177 0.455078,0.26563 0.151809,0.11385 0.22905,0.26505 0.380859,0.3789 0.379523,0.30362 1.480119,1.02645 1.935547,1.06445 0.189761,0 0.682175,-0.18972 0.833984,-0.26562 0.455428,-0.22771 0.645027,-1.06389 1.0625,-1.17773 l 0.304688,0 0.150391,0.22851 c 0,0.22771 -0.113553,0.3786 -0.189453,0.56836 -0.07591,0.22771 -0.227098,0.49383 -0.378907,0.68359 -0.417475,0.45543 -1.442702,0.94895 -2.08789,0.87305 -0.379523,-0.0759 -0.985445,-0.30465 -1.289063,-0.57031 -0.0759,-0.0759 -0.152616,-0.18856 -0.228516,-0.22656 -0.0759,-0.038 -0.189725,-0.0754 -0.265624,-0.11329 -0.265667,-0.11386 -0.569737,-0.49409 -0.683594,-0.75976 -0.151809,-0.11385 -0.341489,-0.19062 -0.53125,-0.22852 -0.189762,0 -0.303269,0.11551 -0.455078,0.19141 -0.379523,0.22771 -0.75915,0.53009 -1.138672,0.75781 -0.417475,0.22771 -0.796526,0.26585 -1.251953,0.60742 -0.0759,0.0759 -1.479893,1.93524 -1.59375,2.125 -0.03796,0.0759 -0.07728,0.18973 -0.115235,0.26563 -0.113857,0.11386 -0.263943,0.19 -0.339844,0.3418 -0.0759,0.11386 -0.115506,0.30326 -0.191406,0.45507 0,0.0379 -0.03711,0.0382 -0.03711,0.0762 -0.07591,0.34157 0.150965,0.98713 0.03711,1.21484 0.303618,0.45543 0.26616,1.32804 0.417969,1.85937 l 0.228516,0.11329 c 0.113857,-0.0759 0.303006,-0.2271 0.378906,-0.37891 0.07591,-0.49338 -0.114124,-0.8727 -0.07617,-1.32813 l 0.113281,-0.0762 c 0.151809,0.18976 0.228207,0.45589 0.417969,0.6836 l 0.152344,-0.15235 c 0.151809,-0.60723 -0.266466,-1.02447 -0.228516,-1.59375 l 0.152344,-0.18945 c 0.265666,0.038 0.417661,0.30327 0.607422,0.45508 0.151809,0 0.41655,0.0385 0.568359,0.15234 -0.03795,0.15181 -0.151768,0.37833 -0.265625,0.49219 -0.0759,0.18976 -0.07506,0.45672 -0.03711,0.64648 0.455427,0.11386 0.910383,-0.30465 1.251953,-0.57031 l 0.265625,0 0.189453,0.26563 c 0.07591,0.30362 -0.112168,0.60764 -0.07422,0.94921 0.03795,0.60723 0.796218,1.55548 1.441406,1.51758 0.493379,0 0.910918,-0.34122 1.404297,-0.45508 l 0.07617,0.15235 c -0.34157,0.45543 -0.911184,1.02397 -1.480469,1.17578 -0.151809,0.038 -0.492722,0.0391 -0.644531,0.0391 -0.796997,-0.37952 -1.290811,-1.74551 -2.61914,-1.85937 l -0.228516,0.15039 c -0.0759,0.15181 -0.45535,0.34233 -0.53125,0.49414 -0.265666,0.56928 -0.416856,0.91145 -0.378906,1.55664 0.03795,0.41748 0.07506,1.17543 0.03711,1.63086 l -0.07617,0.64453 -0.53125,1.74609 0.07617,0.22852 0.417969,0.15234 0.341797,0.53125 0.607422,0.11328 0.113281,0.30274 0.002,0.0117 -0.875,0.29297 -0.494141,0 0.265625,-0.37891 -0.03711,-0.30469 -0.378906,-0.18945 -0.304688,-0.41797 -1.291015,1.17773 -0.189454,0.26563 0.115235,0.53125 0.416015,0.87305 0.152344,0 0,-0.15235 -0.189453,-0.64453 0.189453,0.0371 0.304688,0.60742 0,0.56836 0.265625,0.30469 1.441406,0.0762 0.417969,-0.53125 0.03711,-0.0762 0.228516,-0.0762 -0.03906,-0.26563 -0.226562,-0.15234 -0.152344,-0.56836 0.568359,-0.0762 -0.0098,-0.0449 0.01172,0.0449 0.341797,0 -0.115234,-0.64649 -0.113281,-0.11328 0.417968,-0.87305 0.07617,0.0762 0,0.45508 0,0.38085 0,0.45508 0.150391,0.49219 0.457031,0.45703 0.757813,-0.11523 0.53125,-0.64453 1.0625,0.60742 0.417969,-0.3418 -0.03711,-1.48047 -0.304687,-2.31445 -0.417969,-0.75977 0.115234,-0.30273 0.56836,0.7207 0.417968,1.32813 0.189454,-0.87305 0.152343,-0.18945 0.03711,-0.0762 0.228515,-0.0371 0.873047,0.87304 -0.912109,-0.30468 -0.150391,0.15234 0,0.64453 -0.304687,1.10156 0.378906,0.60742 0.49414,-0.45703 0.228516,0 0.03711,0.22852 -0.56836,0.64453 -0.03906,0.22852 0.380859,0.60742 -0.115234,0.45508 -0.302735,-0.15235 -0.380859,-0.75781 -0.189453,0.18945 0.152344,1.51758 0.265624,0.30469 -0.378906,0.22656 0,0.0371 254.888669,0 c 0.01,-0.057 0.0307,-0.2088 0.0351,-0.22656 l 0,-0.15235 c -0.0759,-1.02471 -0.0365,-1.06122 -0.41601,-2.08593 -0.038,-0.18976 -0.0385,-0.30521 -0.15235,-0.45704 l -0.91015,-0.75781 -0.45703,-0.38086 -1.7461,0 c -0.45543,-0.0759 -1.48012,-0.56805 -1.93554,-0.75781 l -0.18946,-0.26562 0.0762,-0.64649 c -0.34157,-0.22772 -0.56836,-0.87132 -0.56836,-1.21289 l -0.15235,-0.64648 c 0.22771,-0.45542 0.49277,-1.32694 0.37891,-1.82032 l 0.0762,0 c 0.41748,-0.0759 1.4051,-0.11546 1.63281,-0.45703 0.18976,-0.49338 0.45561,-1.89755 0.60742,-2.20117 0.15182,-0.22772 0.3786,-0.53009 0.56836,-0.75781 0.038,-0.038 0.26563,-0.38086 0.26563,-0.38086 0.41747,-0.30362 0.98794,-0.53037 1.44336,-0.83399 0.45543,-0.26567 0.60711,-0.41824 0.79687,-0.49414 0.18976,-0.0759 0.37772,-0.11355 0.8711,-0.18945 0.15181,-0.0379 0.22905,-0.0762 0.38086,-0.0762 0.26566,-0.038 1.40315,0.72124 1.63086,0.87305 0.94881,0.56928 1.85978,1.21587 2.80859,1.78515 0.34157,0.18976 0.75999,0.34038 1.10156,0.49219 0.0379,0 0.68271,-0.0371 0.72071,-0.0371 l 0.41796,-0.30469 c 1.06267,-0.75904 0.87266,-0.68343 1.59375,-1.74609 0,0 0.45625,-2.31415 0.49415,-2.50391 l 0.49218,-0.41797 0.98633,-0.83398 c 0.15181,-0.22771 0.15178,-0.41877 0.26563,-0.64648 l 0.49414,-1.25196 c 0.18976,-0.68314 0.15092,-1.48008 0.30273,-2.20117 0.22771,-1.21447 0.91083,-2.05012 1.93555,-2.69531 1.40423,-0.11386 2.9981,-0.038 4.40234,0.26562 0.68314,0.797 1.36791,1.63243 2.12695,2.35352 l 4.70508,0.75976 c 0.68314,-0.37952 2.08723,-1.25311 2.73242,-1.29101 l 0.91211,1.55664 1.36524,0.56836 c 0.49338,-0.15176 1.66957,-0.0748 2.125,0.0391 0.68314,0.18976 1.44186,0.49214 2.125,0.75781 l 3.68164,4.66797 2.4668,-0.68164 c 0.30362,-0.0759 0.68467,-0.15176 0.98828,-0.26562 1.02471,-0.45543 1.97222,-0.98709 2.95898,-1.48047 l 0.11524,0 c 0.22771,0 0.49299,-0.0374 0.7207,-0.11328 l 2.42773,1.63086 c 0.75905,0.49338 1.5939,1.10178 2.4668,1.44336 0.30362,0.0379 0.83673,-0.077 1.06445,-0.30469 l 0,-0.18946 c 0.1518,-0.45543 0.0745,-1.51806 -0.11523,-1.93554 l -0.60742,-0.94922 c -0.45542,-0.797 -1.02394,-1.55653 -1.44141,-2.35352 -0.18976,-0.34158 -0.41739,-0.9857 -0.53125,-1.36523 -0.0759,-0.30361 -2.4e-4,-0.68271 -0.0762,-0.98633 -0.11386,-0.53133 -0.41691,-0.91119 -0.37891,-1.48047 0.11385,-0.22772 0.2271,-0.53205 0.37891,-0.75976 0.26567,-0.45543 0.75862,-0.94888 0.98633,-1.4043 0.18976,-0.37953 0.30412,-1.063 0.41797,-1.48047 0.41748,-0.22771 0.87358,-1.25134 1.02539,-1.63086 l -0.6836,-1.89844 c 0.0759,-0.30362 0.15177,-0.71981 0.26563,-1.02343 0.11386,-0.26567 0.41797,-0.30518 0.41797,-0.72266 0.26566,-0.0759 0.87301,-0.11279 1.13867,0.0391 l 0.3789,-0.45508 c -0.15181,-0.75905 -0.41819,-1.59531 -0.75976,-2.3164 -1.13857,-2.27713 -2.31513,-4.55405 -3.33984,-6.86914 l -0.30274,-0.64453 1.36524,0.26562 0.41796,-0.15234 0.30469,-0.79688 c 0.26566,-0.18981 0.71982,-0.22656 1.02344,-0.22656 l 0.94922,0 0.41797,0.22656 c 0.72109,0.37953 0.72093,1.25325 1.0625,1.89844 0.26567,0.56928 1.09979,0.83489 1.70703,0.79687 l 0.15234,-0.11523 0.3418,-0.26562 c 0.49338,-0.75904 0.45491,-1.70784 1.51758,-1.93555 l 0.79687,0.15234 0.64649,0.60742 c 0.53133,-0.0379 1.06241,-0.15234 1.59375,-0.15234 1.02471,-0.0379 2.08661,0 3.11132,0 0.91086,-0.0379 2.7711,-0.45401 3.49219,-0.15039 l 0.64453,1.09961 0.49414,-0.0762 0.18946,-0.75781 c 0,0 1.06161,0.60653 1.36523,0.64453 l 0.15234,-0.30469 c -0.0759,-0.34157 -0.22651,-1.13753 -0.49218,-1.36524 l 0.30273,-0.30273 2.8457,1.66797 c 0.22771,0.11386 0.45589,0.0772 0.6836,0.11523 l 0.26562,-0.15234 c 0.45542,0.22771 1.51808,-0.11297 1.93555,-0.30273 0.22771,-0.37953 0.49325,-0.98656 0.79687,-1.32813 0.11386,-0.15181 0.68413,-0.45561 0.83594,-0.60742 0.34157,-0.37952 0.79684,-1.13944 1.0625,-1.63281 l -0.15234,-0.60743 0.11328,-0.26562 0.60742,-0.45508 0.15235,-0.3418 0.26562,-0.68359 c 0.15181,-0.22772 0.37944,-0.41682 0.53125,-0.64453 0.22772,-0.37953 0.26559,-0.98767 0.53125,-1.36719 0,-0.038 0.53241,-0.45429 0.57031,-0.49219 0.0379,-0.34157 0.22763,-1.0633 0.53125,-1.29101 l 0.11328,0 0.30274,0 0.22851,-0.37891 2.73243,0 c 0.30362,0.18976 0.72093,0.45561 1.0625,0.60742 0.45543,0.18976 0.19071,-0.22832 1.10156,0.37891 l 0.26562,0.15234 0.56836,0 c 0.53133,-0.18976 1.29121,-0.64569 1.89844,-0.41796 0.15181,0.0759 1.36551,0.56835 1.44141,0.56835 0.11386,0 0.87358,-0.11328 1.02539,-0.11328 0.37952,0.0379 0.53006,0.30442 1.02343,0.22852 0.45543,-0.0759 1.25357,-0.0767 1.70899,-0.22852 0.0759,-0.038 0.75835,-0.53152 0.91016,-0.60742 l 1.21484,-0.53125 3.22656,-1.36523 c 0.038,0 0.11239,-0.0391 0.15039,-0.0391 0.1138,-0.1518 0.0771,-0.53178 0.0391,-0.68359 l 0.56836,-0.11328 0.6836,-0.56836 -0.26563,-0.60742 0.98633,-0.15235 0.11524,-0.64453 0.7207,0.26563 c 0.18976,-0.68315 1.59367,-1.2153 2.125,-1.89844 l 0.18945,-0.7207 0.22852,-0.15235 c 0.038,-0.22771 0.30354,-0.87162 0.53125,-1.02343 l 1.28906,-0.11524 0.11523,-0.64453 -0.34179,-0.0762 c -0.26567,-0.34157 -0.0759,-1.17574 0.26562,-1.44141 l 0.30274,-0.0391 0.53125,0.41797 0.34179,0.0371 0.94922,-2.31445 c 0.11386,-0.22773 2.01057,-1.70757 2.23828,-1.85938 0.37953,-0.22771 1.06247,-0.15283 1.32813,-0.57031 l -0.0371,-0.26563 -0.26563,-0.15039 c -0.11386,-0.45543 0.49357,-0.79821 0.60743,-1.17773 0.22772,-0.64519 0.26643,-1.44076 0.49414,-2.08594 0,-0.0759 0.0753,-0.0764 0.11328,-0.15234 0.68314,-0.75905 1.09974,-0.45477 1.97265,-0.64454 0.56928,-0.11385 0.79737,-0.68354 1.21485,-0.94921 0,-0.0379 0.79794,-0.3418 0.83594,-0.3418 0.34157,-0.11386 0.79626,-0.22879 1.17578,-0.30469 0.22771,0 2.20144,-0.15155 2.27734,-0.18945 0.37953,-0.15181 0.72093,-0.45477 1.0625,-0.64453 0.34157,-0.18976 0.83421,-0.26642 1.17578,-0.49414 l 0.72266,-0.64453 0.33984,-0.30274 c 0.91086,0.26566 2.92398,-0.002 3.79688,-0.19141 l 0.0742,-0.0742 c 0.37952,0.0759 1.40563,-0.0764 1.78515,-0.15235 0.30362,-0.0379 0.53143,-0.30496 1.13867,-0.38086 0.60723,0.56928 1.89725,1.59478 2.39063,2.16407 0.0379,0 0.60653,1.1381 0.64453,1.25195 0.18976,0.41748 0.79767,0.76026 1.02539,1.17773 0.18976,0.41748 0.26531,0.91066 0.45508,1.32813 l 0.45508,0.79687 c 0.41748,0.72109 0.68347,0.7215 1.48047,0.94922 0.41748,0.038 1.25191,-0.11462 1.51757,-0.49414 l 0.30469,-0.64453 c 0.0759,-0.11386 0.11239,-0.15288 0.15039,-0.30469 0.15181,-0.56928 0.0765,-1.25213 0.15235,-1.85937 0.0759,-0.34157 0.22878,-0.68382 0.30468,-1.02539 0.45542,-0.34157 1.06215,-0.30354 1.51758,-0.53125 0.038,0 0.53152,-0.45535 0.60742,-0.53125 0.34157,-0.22771 0.87243,-0.60601 1.25196,-0.75782 0.18976,-0.0759 0.38055,-0.0764 0.57031,-0.15234 0.41748,-0.18976 2.50418,-1.17654 2.58008,-1.66992 l 0.53125,-0.15235 c 0.22771,-0.41747 1.21423,-1.13863 1.59375,-1.40429 l 0.41797,-1.59375 0.56836,-0.56836 c -0.15182,-0.22771 -0.34207,-0.60739 -0.41797,-0.87305 -0.15181,-0.56929 -0.22684,-2.20246 -0.30274,-2.84765 l 0.79688,-0.8711 c 0.0759,-0.41748 0.11465,-0.91261 0.22851,-1.33008 0.0379,-0.22772 0.2659,-0.45393 0.3418,-0.68164 0.26567,-0.68315 0.30184,-1.55625 0.33984,-2.27734 0.30362,-0.37952 0.75973,-0.79737 1.02539,-1.21484 0.11386,-0.18976 0.30442,-0.98629 0.22852,-1.25196 -0.18976,-0.22771 -0.45561,-0.4941 -0.60742,-0.75976 -0.15181,-0.22772 -0.11382,-0.45589 -0.26563,-0.6836 l -0.53125,-0.75781 0.0371,-0.3418 0.94922,-1.10156 c -0.11386,-0.8729 0.6065,-1.74517 1.17578,-2.31445 0.038,-0.22772 -0.45561,-0.9118 -0.60742,-1.10156 0.11386,-0.53133 0.3418,-1.63078 0.3418,-2.16211 0,0 -0.37891,-2.16318 -0.37891,-2.20118 -0.0759,-0.26567 -0.45535,-0.56942 -0.53125,-0.87304 -0.0759,-0.22771 -0.0374,-0.45477 -0.11328,-0.64453 -0.0759,-0.22771 -0.26669,-0.49495 -0.30469,-0.72266 -0.11386,-0.56929 0.19008,-0.30314 -0.18945,-1.25195 l -0.11328,-0.26563 c 0.11385,-0.30362 0.18998,-0.68355 0.34179,-0.94922 0.15181,-0.30362 0.53125,-0.45473 0.53125,-0.91015 0,-0.038 -0.15234,-1.02539 -0.15234,-1.02539 -0.11386,-0.34157 -0.45477,-0.68272 -0.64453,-0.98633 -0.0379,-0.0759 -0.79804,-1.63113 -0.83594,-1.70703 l 0.0391,-0.41797 c 0.11386,-0.37952 0.34038,-0.75999 0.49219,-1.10156 l -0.22656,-0.53125 0.15039,-0.68164 c -0.038,-0.0759 -0.41602,-0.6457 -0.41602,-0.6836 -0.15177,-0.53133 -0.1906,-1.78508 0.0371,-2.3164 l -0.22851,-0.68165 0.34179,-0.98828 c -0.2277,-0.68314 -0.68213,-2.27557 -1.0996,-2.88281 l -0.64649,-0.72266 c -0.26567,-0.30362 -0.64503,-0.6448 -1.0625,-0.7207 -0.30362,-0.53133 -0.5677,-1.36604 -1.21289,-1.59375 l -0.38086,-1.25195 c -0.797,-0.038 -1.55633,-1.93657 -1.74609,-2.50586 0.0759,-0.37952 0.0775,-0.94861 0.1914,-1.32813 0,-0.038 0.37802,-0.53046 0.41602,-0.56836 l -0.60742,-1.02539 0.11523,-0.53125 c -0.41747,-0.60724 -0.91073,-1.63158 -0.79687,-2.39062 l 0.15039,-0.0762 0.11523,-0.98633 0.94727,-0.22852 0.15234,-0.18945 c 0.22771,-0.37952 -5.3e-4,-1.25134 -0.15234,-1.63086 -0.30362,-0.72109 -0.83426,-1.2909 -0.91016,-2.08789 -0.0379,-0.11386 0.26563,-1.78437 0.26563,-1.82227 0.26566,-0.91086 0.75999,-1.82156 1.10156,-2.73242 0.7211,-1.89761 1.44075,-3.7949 2.08594,-5.73047 0.30362,-0.8729 0.49325,-1.82241 0.79687,-2.69531 0.22771,-0.797 0.57027,-1.5554 0.83594,-2.31445 0,-0.0759 0.0382,-0.15262 0.0762,-0.22852 0.64519,-1.48014 1.32831,-2.99753 1.93555,-4.51562 0.60723,-1.48014 1.13774,-2.99754 1.70703,-4.51563 0.41747,-1.10061 1.21396,-2.84665 1.51758,-3.94726 0.038,-0.15181 0.0764,-0.34233 0.15234,-0.49414 l 1.4043,-3.75782 c 0.41748,-1.06266 -0.0753,-3.64211 -0.11328,-4.89453 -0.11386,-2.5428 -0.11408,-5.12406 -0.3418,-7.6289 -0.0379,-0.45543 -0.11466,-2.01221 -0.22852,-2.42969 -0.18976,-0.83495 -0.56831,-1.66896 -0.83398,-2.50391 -0.22771,-0.60724 -0.37971,-1.25213 -0.60742,-1.85937 -0.22772,-0.64519 -0.53206,-1.25325 -0.75977,-1.89844 -0.18976,-0.49338 -0.22709,-0.98709 -0.3789,-1.48047 -0.15181,-0.53133 -0.41655,-1.0242 -0.56836,-1.51758 -0.11385,-0.37952 -0.26679,-0.87242 -0.30469,-1.25195 -0.0379,-0.189761 -0.0382,-1.366612 -0.0762,-1.480469 L 469.20703,98 19.988281,98 Z m 452.212889,31.41797 -0.0371,0.0742 0.0371,-0.0742 z M 62.203125,296.90039 61.595703,297.39453 61.529297,298 l 0.410156,0 0.453125,-0.79492 -0.189453,-0.30469 z"
     id="rect6"
     inkscape:connector-curvature="0" />
  <g
     transform="translate(1.1428676,-436.93361)"
     id="g8"
     clip-path="none"
     style="fill:#ffffff;stroke:#000000;stroke-width:0.95999998">
    <g
       id="g10"
       style="stroke-linejoin:bevel">
      <path
         d="m 139.02,623.46 113.8,0 0,43.788 -113.8,0 z"
         id="path12"
         inkscape:connector-curvature="0" />
      <rect
         width="3.5864"
         height="16.495001"
         x="246.95"
         y="647.64001"
         id="rect14" />
      <rect
         width="113.8"
         height="5.0903001"
         x="139.02"
         y="639.48999"
         id="rect16" />
      <rect
         width="113.8"
         height="4.4889998"
         x="139.02"
         y="632.59003"
         id="rect18" />
      <rect
         width="113.8"
         height="4.3540001"
         x="139.02"
         y="625.70001"
         id="rect20"
         style="stroke-width:0.94545001" />
      <rect
         width="3.5864"
         height="16.495001"
         x="168.98"
         y="647.64001"
         id="rect22" />
      <rect
         width="3.5864"
         height="16.495001"
         x="217.97"
         y="647.64001"
         id="rect24" />
      <rect
         width="3.5864"
         height="16.495001"
         x="139.92"
         y="647.64001"
         id="rect26" />
      <rect
         width="3.5864"
         height="16.495001"
         x="146.95"
         y="647.64001"
         id="rect28" />
      <rect
         width="3.5864"
         height="16.495001"
         x="154.45"
         y="647.64001"
         id="rect30" />
      <rect
         width="3.5864"
         height="16.495001"
         x="161.95"
         y="647.64001"
         id="rect32" />
      <rect
         width="3.5864"
         height="16.495001"
         x="224.77"
         y="647.64001"
         id="rect34" />
      <rect
         width="3.5864"
         height="16.495001"
         x="232.27"
         y="647.64001"
         id="rect36" />
      <rect
         width="3.5864"
         height="16.495001"
         x="239.77"
         y="647.64001"
         id="rect38" />
      <path
         d="m 94.509,669.55 c 1.7604,-0.89672 3.7684,-2.9836 4.425,-5.319 l 193.07,0 c 0.65665,2.3354 2.6647,4.4222 4.425,5.319 z"
         id="path40"
         inkscape:connector-curvature="0"
         style="stroke-linejoin:miter" />
    </g>
    <g
       id="g42">
      <g
         id="g44">
        <path
           d="m 193,556.8 c 0,0 -0.14437,-4.1125 2.2507,-4.1572 2.3951,0.0447 2.2507,4.1572 2.2507,4.1572 z"
           id="path46"
           inkscape:connector-curvature="0" />
        <path
           d="m 180.51,611.34 0,-5.5357 c -0.0789,-2.768 -2.7591,-2.9681 -2.838,-4.9862 0,0 -0.34606,-3.0266 0.45159,-4.4082 1.0845,4.0474 3.0561,3.3039 3.0561,1.6397 0,-1.4526 -1.117,-2.8031 -3.408,-6.3302 -0.73206,-1.127 -0.27901,-4.6597 0.74692,-5.9224 0.39808,3.0709 0.85311,4.5398 2.1717,4.5398 0.80428,0 1.4612,-0.52417 1.4612,-2.0621 0,-1.9565 -1.325,-2.9445 -1.9762,-4.725 -0.76004,-2.0777 -0.23675,-4.1957 1.0259,-5.3795 0.54129,3.0293 0.38028,4.2372 1.7255,4.2372 2.7133,-0.8584 6.3e-4,-4.7866 -0.57911,-5.7773 -0.667,-1.1553 0.89682,-3.4598 0.89682,-3.4598 0.86209,2.6898 1.1394,2.909 2.0699,2.6597 1.1738,-0.31452 1.0224,-2.056 -0.40996,-3.4633 -0.90449,-0.88866 -0.80857,-2.2116 0.16248,-3.274 0.97489,1.9056 2.2229,1.7898 2.343,0.65821 l -0.78373,-4.3931 17.255,0 -0.85683,4.2488 c -0.24526,1.2162 1.396,1.4801 2.4162,-0.51392 0.97105,1.0624 1.067,2.3854 0.16248,3.274 -1.4323,1.4073 -1.5837,3.1488 -0.40996,3.4633 0.93041,0.2493 1.2078,0.0302 2.0699,-2.6597 0,0 1.403,1.5708 0.89682,3.4598 -0.57974,0.99071 -3.2924,4.9189 -0.57911,5.7773 1.3453,0 1.1842,-1.2079 1.7255,-4.2372 1.2627,1.1838 1.786,3.3017 1.0259,5.3795 -0.65127,1.7804 -1.9762,2.7685 -1.9762,4.725 0,1.538 0.65688,2.0621 1.4612,2.0621 1.3186,0 1.7736,-1.4689 2.1717,-4.5398 1.0259,1.2627 1.479,4.7953 0.74692,5.9224 -2.291,3.527 -3.408,4.8776 -3.408,6.3302 0,1.6641 1.9716,2.4076 3.0561,-1.6397 0.79765,1.3816 0.4516,4.4082 0.4516,4.4082 -0.0789,2.018 -2.7591,2.2182 -2.838,4.9862 l 0,5.5357 z"
           id="path48"
           inkscape:connector-curvature="0" />
        <path
           d="m 187.73,565.32 -0.39721,-3.125 15.838,0 -0.39721,3.125 z"
           id="path50"
           inkscape:connector-curvature="0" />
        <path
           d="m 188.79,562.13 -0.34117,-2.5686 13.604,0 -0.34117,2.5686 z"
           id="path52"
           inkscape:connector-curvature="0" />
        <path
           d="m 190.95,559.47 -0.22717,-2.5686 9.0585,0 -0.22718,2.5686 z"
           id="path54"
           inkscape:connector-curvature="0" />
        <path
           d="m 223.97,669.55 c -2.0266,-0.78125 -4.9773,-2.9188 -4.9773,-5.0695 l 0,-24.297 2.6385,-3.3588 -52.776,8e-5 2.5293,3.3588 0,24.297 c 0,2.1508 -2.0264,4.2883 -4.0529,5.0695 z"
           id="path56"
           inkscape:connector-curvature="0" />
        <rect
           width="3.5864"
           height="16.495001"
           x="178.24001"
           y="647.64001"
           id="rect58"
           style="stroke-linejoin:bevel" />
        <rect
           width="3.5864"
           height="16.495001"
           x="208.56"
           y="647.64001"
           id="rect60"
           style="stroke-linejoin:bevel" />
        <path
           d="m 167.91,609.17 0,14.648 0,7.0117 0,5.9961 54.023,0 0,-5.957 0.0783,-21.699 c -2.2097,0.8681 -2.5976,2.8711 -2.5976,2.8711 l 0,11.777 -48.75,0 0,-11.777 c 0,0 -0.5442,-2.003 -2.7539,-2.8711 z"
           id="path62"
           inkscape:connector-curvature="0" />
        <path
           d="m 214.6,669.55 c -1.7655,-0.78125 -5.6118,-2.9188 -5.6118,-5.0695 l 0,-27.192 c 0.37751,-1.518 2.436,-2.414 3.761,-3.3588 l -35.823,0 c 1.7049,0.90271 3.6054,1.6522 4.2846,3.3588 l 0,27.192 c 0,2.1508 -3.041,4.2883 -4.8065,5.0695 z"
           id="path64"
           inkscape:connector-curvature="0" />
        <path
           d="m 219.41,634.22 -2.7e-4,-19.587 -4.9104,-8e-5 0,-1.9085 -38.839,0 0,1.9085 -4.9109,-1.8e-4 1.7e-4,19.587 z"
           id="path66"
           inkscape:connector-curvature="0" />
        <path
           d="m 206.86,669.55 c -1.7299,-0.78125 -4.2489,-2.9186 -4.2489,-5.0694 l 0,-23.215 1.4205,-2.1088 -17.691,0 1.4205,2.109 0,23.215 c 0,2.1508 -2.5189,4.2883 -4.2488,5.0695 z"
           id="path68"
           inkscape:connector-curvature="0" />
        <path
           d="m 190.71,639.16 8.9655,-5e-5 0,30.377 -8.9655,0 z"
           id="path70"
           inkscape:connector-curvature="0"
           style="stroke-width:0.98100001" />
        <path
           d="m 204.38,632.48 c 0.0215,-2.0012 5.8375,-2.091 8.8318,-3.7949 l -35.952,0 c 2.9943,1.7039 8.6755,1.8441 8.6755,3.7949 l 1.2166,3.8818 14.883,0.59776 z"
           id="path72"
           inkscape:connector-curvature="0"
           style="stroke-linejoin:bevel" />
        <path
           d="m 211.41,611.34 c 0,-4.8986 0.20532,-6.7857 1.7103,-6.7857 l 1e-5,15.58 c -3.6912,1.3393 -6.3254,6.0491 -6.3254,6.0491 l -23.211,-2.7e-4 c 0,0 -2.6342,-4.7096 -6.3254,-6.0488 l 0,-15.58 c 1.856,0 1.8682,1.9717 1.8682,6.7857 z"
           id="path74"
           inkscape:connector-curvature="0" />
        <path
           d="m 213.12,609.33 c 0,-5.6184 4.8512,-6.2503 4.8512,-6.2503 l 0,5 c -1.8465,-0.0789 -2.7368,1.578 -2.7368,4.0444 0,2.4663 1.4868,2.5056 1.4868,2.5056 l 0,14.19 -3.6012,0 z"
           id="path76"
           inkscape:connector-curvature="0" />
        <path
           d="m 177.28,609.33 c 0,-5.6184 -4.8512,-6.2503 -4.8512,-6.2503 l 0,5 c 1.8465,-0.0789 2.7368,1.578 2.7368,4.0444 0,2.4663 -1.4868,2.5056 -1.4868,2.5056 l 0,14.19 3.6012,0 z"
           id="path78"
           inkscape:connector-curvature="0" />
      </g>
      <g
         id="g80"
         style="fill:none;stroke-width:0.80000001">
        <path
           d="m 186.84,570.62 17.128,0"
           id="path82"
           inkscape:connector-curvature="0" />
        <path
           d="m 184.81,575.97 20.921,0"
           id="path84"
           inkscape:connector-curvature="0" />
        <path
           d="m 182.78,582.46 24.904,0"
           id="path86"
           inkscape:connector-curvature="0" />
        <path
           d="m 180.66,590.39 29.536,0"
           id="path88"
           inkscape:connector-curvature="0" />
        <path
           d="m 179.98,599.43 30.426,0"
           id="path90"
           inkscape:connector-curvature="0" />
        <path
           d="m 170.75,628.92 48.661,0"
           id="path92"
           inkscape:connector-curvature="0"
           style="stroke-width:0.95999998" />
        <rect
           width="18.035999"
           height="6.6290998"
           x="186.19"
           y="628.92999"
           id="rect94"
           style="stroke-width:0.95999998" />
      </g>
      <g
         id="g96">
        <path
           d="m 183.93,614.24 c 2.9903,3.59 2.7128,9.6801 2.6786,13.27 l 17.343,0 c -0.0342,-3.59 -0.31172,-9.68 2.6786,-13.27 z"
           id="path98"
           inkscape:connector-curvature="0" />
        <path
           d="m 193.68,573.11 -2.3764,-1.2239 0,-3.4974 c 0.97149,0.29214 2.062,0.41142 2.1686,1.9595 0.33824,-2.2099 0.94822,-2.1018 1.9064,-2.963 0.95814,0.86127 1.5681,0.75315 1.9064,2.963 0.10661,-1.5481 1.1971,-1.6674 2.1686,-1.9595 l 0,3.4974 -2.3764,1.2239 z"
           id="path100"
           inkscape:connector-curvature="0" />
        <path
           d="m 193.52,578.85 -3.9464,-2.7128 0,-3.2231 c 1.3836,0.32035 2.9366,0.45115 3.0885,2.1488 0.48172,-2.4232 1.3504,-3.6754 2.715,-4.6198 1.3646,0.94444 2.2332,2.1966 2.715,4.6198 0.15183,-1.6976 1.7049,-1.8284 3.0885,-2.1488 l 0,3.2231 -3.9464,2.7128 z"
           id="path102"
           inkscape:connector-curvature="0" />
        <path
           d="m 193.24,587.8 -4.5378,-3.9854 0,-4.7351 c 1.5909,0.47062 3.3767,0.66279 3.5513,3.1567 0.55391,-3.56 1.5528,-5.3995 3.1218,-6.787 1.569,1.3875 2.5679,3.227 3.1218,6.787 0.17458,-2.4939 1.9604,-2.6861 3.5513,-3.1567 l 0,4.7351 -4.5378,3.9854 z"
           id="path104"
           inkscape:connector-curvature="0" />
        <path
           d="m 201.61,593.09 -4.1037,5.6759 -4.6463,0 -4.1037,-5.6759 z"
           id="path106"
           inkscape:connector-curvature="0" />
        <path
           d="m 186.39,602.62 c 2.0526,1.1219 2.8106,3.3568 3.0299,7.5527 l 11.55,0 c 0.21927,-4.1959 0.97728,-6.4308 3.0298,-7.5527 z"
           id="path108"
           inkscape:connector-curvature="0" />
        <path
           d="m 204.17,593.09 0,-5.7018 c -1.9498,0.53675 -3.2129,1.6912 -3.7755,3.2577 0,-1.8927 -2.4906,-6.2573 -5.2071,-8.4294 -2.7242,2.4314 -5.2575,6.3801 -5.2066,8.4294 -0.46332,-1.4918 -1.8258,-2.7209 -3.7755,-3.2577 l 0,5.702 z"
           id="path110"
           inkscape:connector-curvature="0"
           style="stroke-linejoin:bevel" />
        <path
           d="m 205.04,602.62 -2.1e-4,-5.7022 c -2.1373,0.53675 -3.522,1.6912 -4.1387,3.2577 0,-1.8927 -2.7299,-6.2573 -5.7077,-8.4294 -2.9863,2.4314 -5.7635,6.3801 -5.7077,8.4294 -0.50788,-1.4918 -2.0014,-2.7209 -4.1387,-3.2577 l 0,5.702 z"
           id="path112"
           inkscape:connector-curvature="0"
           style="stroke-linejoin:bevel" />
        <path
           d="m 207.44,614.32 0,-6.5765 c -2.6591,0.68624 -4.3124,2.653 -5.1491,3.7996 0,-3.5614 -4.0212,-8.9902 -7.1011,-10.768 -3.1599,1.8244 -7.1011,7.435 -7.1011,10.768 -0.85883,-1.1395 -2.49,-3.1134 -5.1491,-3.7996 l 0,6.5765 z"
           id="path114"
           inkscape:connector-curvature="0"
           style="stroke-linejoin:bevel" />
        <path
           d="m 206,628.92 0,-6.7617 c -2.3465,0.9193 -3.0479,3.1802 -3.7862,4.7163 0.28981,-6.8584 -3.8614,-14.23 -7.0239,-16.1 -3.1624,1.8699 -7.3926,9.3996 -7.0239,16.1 -0.75787,-1.5265 -1.4397,-3.797 -3.7862,-4.7163 l 0,6.7618 z"
           id="path116"
           inkscape:connector-curvature="0"
           style="stroke-linejoin:bevel" />
        <path
           d="m 204.36,639.16 0,-6.7618 c -2.4581,0.58449 -2.61,1.491 -3.3916,3.0055 0.28981,-4.0963 -2.6114,-8.7695 -5.7739,-10.639 -3.1624,1.8699 -6.0637,6.5431 -5.7739,10.639 -0.78168,-1.5145 -0.87771,-2.421 -3.3916,-3.0055 l 0,6.7618 z"
           id="path118"
           inkscape:connector-curvature="0" />
      </g>
    </g>
    <g
       id="tower">
      <g
         id="g121">
        <path
           d="m 98.935,664.23 0,-20.44 c -0.66964,-2.6026 -2.8793,-4.9052 -4.5407,-5.3664 l 0,-17.993 3.7418,2.0232 4.2712,18.811 0,22.965 z"
           id="path123"
           inkscape:connector-curvature="0" />
        <path
           d="m 98.935,664.31 0,-20.519 c -0.66964,-2.6026 -2.8793,-4.9052 -4.5407,-5.3664 l 0,-19.243 c 2.5118,0 3.7418,3.2732 3.7418,3.2732 l 4.2712,18.811 0,22.886 z"
           id="path125"
           inkscape:connector-curvature="0" />
        <path
           d="m 96.275,669.55 c 1.7299,-0.78125 4.2487,-2.9188 4.2487,-5.0695 l 0,-25.547 -1.1852,-2.1088 43.522,0 -1.6983,2.1088 0,25.547 c 0,2.1508 1.7297,4.2883 3.4596,5.0695 z"
           id="path127"
           inkscape:connector-curvature="0" />
        <path
           d="m 135.84,669.55 c -1.7299,-0.78125 -4.2487,-2.9188 -4.2487,-5.0695 l 0,-24.297 3.619,-3.359 -29.588,8e-5 3.6191,3.3589 0,24.297 c 0,2.1508 -2.5189,4.2883 -4.2488,5.0695 z"
           id="path129"
           inkscape:connector-curvature="0" />
        <path
           d="m 131.69,669.55 c -1.7299,-0.78125 -4.2487,-2.9188 -4.2487,-5.0695 l 0,-21.965 2.369,-3.359 -18.798,0 2.3688,3.359 0,21.965 c 0,2.1508 -2.5189,4.2883 -4.2488,5.0695 z"
           id="path131"
           inkscape:connector-curvature="0" />
        <path
           d="m 115.92,639.16 8.9819,-4e-5 -2e-5,30.393 -8.9818,0 z"
           id="path133"
           inkscape:connector-curvature="0" />
        <rect
           width="3.5864"
           height="16.495001"
           x="103.7"
           y="647.64001"
           id="rect135"
           style="stroke-linejoin:bevel" />
        <rect
           width="3.5864"
           height="16.495001"
           x="134.45"
           y="647.64001"
           id="rect137"
           style="stroke-linejoin:bevel" />
        <path
           d="m 100.64,619.82 4.3202,0 0,16.909 -4.3202,0 z"
           id="path139"
           inkscape:connector-curvature="0"
           style="stroke-linejoin:bevel" />
        <path
           d="m 100.64,616.64 4.2946,0 0,3.1387 -4.2946,0 z"
           id="path141"
           inkscape:connector-curvature="0"
           style="stroke-linejoin:bevel" />
        <path
           d="m 136.17,623.46 6.1594,0 0,13.054 -6.1594,0 z"
           id="path143"
           inkscape:connector-curvature="0"
           style="stroke-width:1.03369999;stroke-linejoin:bevel" />
        <path
           d="m 104.89,636.6 0,-28.941 c 1.2321,0 1.4222,4.2418 4.249,4.2418 1.4716,0 1.3152,-1.757 0.4889,-3.1882 -0.73168,-1.2673 -1.6372,-3.0176 -0.40702,-6.2783 0.84298,2.4949 3.1119,3.2866 2.6927,1.722 -0.72042,-2.6886 -2.7945,-3.1298 -1.2383,-7.3021 0.54049,3.4806 2.7732,3.3273 2.2309,1.3034 -0.61083,-2.2796 -1.8732,-3.2139 -0.3157,-6.4275 0.87209,3.6492 2.0519,3.4352 2.0519,1.1711 0,-3.347 -0.1285,-6.9568 4.2027,-8.296 0,0 0.25002,-3.0682 1.8123,-3.0682 1.56228,0 1.8123,3.0682 1.8123,3.0682 4.3312,1.3393 4.2027,4.949 4.2027,8.296 0,2.264 1.1798,2.4781 2.0519,-1.1711 1.5574,3.2136 0.29513,4.1479 -0.3157,6.4275 -0.54227,2.0238 1.6904,2.1772 2.2309,-1.3034 1.5562,4.1722 -0.5179,4.6134 -1.2383,7.3021 -0.41923,1.5646 1.8497,0.77297 2.6927,-1.722 1.2302,3.2606 0.32466,5.011 -0.40702,6.2783 -0.82627,1.4311 -0.98274,3.1882 0.4889,3.1882 2.8268,0 3.0168,-4.2418 4.249,-4.2418 l 0,28.941 z"
           id="path145"
           inkscape:connector-curvature="0" />
        <path
           d="m 98.124,614.74 8.1e-5,22.079 2.511099,0 -1.9e-4,-22.135 c -0.904979,-0.45686 -1.754599,-0.5274 -2.510999,0.0558 z"
           id="path147"
           inkscape:connector-curvature="0" />
        <path
           d="m 98.203,629.03 c 3.1124,1.5914 6.1949,3.4325 6.9754,7.7931 l -6.9754,0 z"
           id="path149"
           inkscape:connector-curvature="0" />
        <path
           d="m 141.37,622.42 6e-5,14.407 2.0354,0 0,-14.443 c -0.63587,-0.2981 -1.5039,-0.34413 -2.0354,0.0364 z"
           id="path151"
           inkscape:connector-curvature="0" />
        <path
           d="m 143.41,628.92 c -3.1124,1.5914 -6.1949,3.4325 -6.9754,7.7931 l 6.9754,0 z"
           id="path153"
           inkscape:connector-curvature="0" />
      </g>
      <g
         id="g155">
        <path
           d="m 122.83,595.27 1.8142,-1.5247 0,-1.9528 c -0.6637,0.0645 -1.0258,0.29275 -1.516,0.93531 -0.41694,-1.2944 -1.3337,-2.3051 -2.5624,-2.9327 -1.2287,0.6276 -2.1454,1.5924 -2.5624,2.8867 -0.49022,-0.64256 -0.8523,-0.8249 -1.516,-0.88935 l 0,1.9528 1.8142,1.5247 z"
           id="path157"
           inkscape:connector-curvature="0" />
        <path
           d="m 123.8,600.16 0.8432,-1.8253 0,-2.5384 c -0.6637,0.0654 -1.0258,0.29688 -1.516,0.94855 -0.41694,-1.3127 -1.3337,-2.3377 -2.5624,-2.9742 -1.2287,0.63649 -2.1454,1.6149 -2.5624,2.9276 -0.49022,-0.65166 -0.8523,-0.83658 -1.516,-0.90194 l 0,2.5384 0.8432,1.8253 z"
           id="path159"
           inkscape:connector-curvature="0" />
        <path
           d="m 123.93,606.79 2.6948,-3.2865 0,-3.2432 c -0.98588,0.11068 -1.5237,0.50272 -2.2519,1.6061 -0.61934,-2.2227 -1.9811,-2.7084 -3.8062,-3.7861 -1.8251,1.0777 -3.1869,1.4845 -3.8062,3.7072 -0.72818,-1.1034 -1.266,-1.4165 -2.2519,-1.5272 l 0,3.2432 2.6949,3.2865 z"
           id="path161"
           inkscape:connector-curvature="0" />
        <path
           d="m 124.72,613.3 c 0,0 3.1405,-2.7397 3.3269,-4.2436 l 0,-3.4672 c -1.2171,0.14291 -2.3682,0.45834 -3.2672,1.8831 -0.76458,-2.8701 -1.9586,-3.6704 -4.2117,-5.0621 -2.2532,1.3916 -3.4471,2.192 -4.2117,5.0621 -0.89895,-1.4248 -2.0501,-1.7402 -3.2672,-1.8831 l 0,3.4672 c 0.3965,1.5039 3.3269,4.2436 3.3269,4.2436 z"
           id="path163"
           inkscape:connector-curvature="0" />
        <path
           d="m 126.06,625.32 c 0,0 4.3013,-4.7614 4.3999,-6.6164 l 0,-5.4059 c -1.6097,0.22281 -3.1321,1.3298 -4.321,3.5513 -1.0112,-4.4748 -2.5903,-7.5949 -5.5702,-9.7647 -2.9799,2.1698 -4.559,5.2898 -5.5702,9.7647 -1.1889,-2.2215 -2.7113,-3.3285 -4.321,-3.5513 l 0,5.4059 c 0.30884,1.8551 4.3999,6.6164 4.3999,6.6164 z"
           id="path165"
           inkscape:connector-curvature="0" />
        <path
           d="m 126.06,632.43 c 0,0 3.6763,-3.7418 4.3999,-5.3664 l 0,-5.4059 c -1.6097,0.22281 -3.1321,1.3299 -4.321,3.5513 -1.0112,-4.4748 -2.5903,-7.0369 -5.5702,-9.2067 -2.9799,2.1698 -4.559,4.7318 -5.5702,9.2067 -1.1889,-2.2215 -2.7113,-3.3285 -4.321,-3.5513 l 0,5.4059 c 0.93384,1.6247 4.3999,5.3664 4.3999,5.3664 z"
           id="path167"
           inkscape:connector-curvature="0" />
        <path
           d="m 127.54,636.56 c -1.0733,-4.6678 -1.9959,-8.1303 -7.163,-11.641 -5.167,3.5104 -6.0894,6.9728 -7.1627,11.641 z"
           id="path169"
           inkscape:connector-curvature="0" />
        <path
           d="m 130.2,639.16 0,-6.7618 c -2.3465,0.91931 -4.467,2.2802 -5.2487,3.7947 -0.87376,-3.754 -2.5569,-5.4078 -4.6536,-7.6786 -2.0967,2.2708 -3.5008,3.9245 -4.3746,7.6786 -0.78168,-1.5145 -2.9024,-2.8754 -5.2489,-3.7946 l 2.2e-4,6.7618 z"
           id="path171"
           inkscape:connector-curvature="0" />
      </g>
    </g>
    <use
       xlink:href="#tower"
       transform="matrix(-1,0,0,1,390.73979,0)"
       id="use173"
       x="0"
       y="0"
       width="625"
       height="400" />
    <g
       id="g175">
      <path
         d="m 72.694,694.25 245.33,0 1.8e-4,12.531 -245.33,1e-5 z"
         id="path177"
         inkscape:connector-curvature="0" />
      <path
         d="m 66.228,706.76 258.26,0 1.8e-4,12.512 -258.26,2e-5 z"
         id="path179"
         inkscape:connector-curvature="0" />
      <path
         d="m 85.576,675.51 219.56,0 1.5e-4,8.1093 -219.56,1e-5 z"
         id="path181"
         inkscape:connector-curvature="0" />
      <path
         d="m 79.157,683.56 232.4,0 1.7e-4,10.622 -232.4,10e-6 z"
         id="path183"
         inkscape:connector-curvature="0" />
      <path
         d="m 89.412,669.28 211.89,0 1.5e-4,6.174 -211.89,0 z"
         id="path185"
         inkscape:connector-curvature="0" />
      <path
         d="m 112.41,669.31 16.005,0 0,49.935 -16.005,0 z"
         id="path187"
         inkscape:connector-curvature="0"
         style="stroke-width:1.04460001" />
      <path
         d="m 115.95,669.31 8.9171,0 0,49.936 -8.917,0 z"
         id="path189"
         inkscape:connector-curvature="0"
         style="stroke-width:1.04289997" />
      <path
         d="m 187.08,669.31 16.006,0 0,49.935 -16.005,0 z"
         id="path191"
         inkscape:connector-curvature="0"
         style="stroke-width:1.04460001" />
      <path
         d="m 190.73,669.31 8.9171,0 0,49.936 -8.917,0 z"
         id="path193"
         inkscape:connector-curvature="0"
         style="stroke-width:1.04289997" />
      <path
         d="m 262.19,669.31 16.005,0 0,49.935 -16.005,0 z"
         id="path195"
         inkscape:connector-curvature="0"
         style="stroke-width:1.04460001" />
      <path
         d="m 265.73,669.31 8.9171,0 0,49.936 -8.917,0 z"
         id="path197"
         inkscape:connector-curvature="0"
         style="stroke-width:1.04289997" />
    </g>
    <g
       id="g199"
       style="fill:none">
      <path
         d="m 98.935,664.23 193.07,0"
         id="path201"
         inkscape:connector-curvature="0" />
      <path
         d="m 115.79,712.97 9.2438,0 m -9.2438,-6.25 9.2438,0 m -9.2438,-6.25 9.2438,0 m -9.2438,-6.25 9.2438,0 m -9.2438,-6.25 9.2438,0 m -9.2438,-6.25 9.2438,0 m -9.2438,-6.25 9.2438,0"
         id="path203"
         inkscape:connector-curvature="0" />
      <path
         d="m 190.77,712.98 8.6071,0 m -8.6071,-6.2533 8.6071,0 m -8.6071,-6.2533 8.6071,0 m -8.6071,-6.2533 8.6071,0 m -8.6071,-6.2533 8.6071,0 m -8.6071,-6.2533 8.6071,0 m -8.6071,-6.2533 8.6071,0"
         id="path205"
         inkscape:connector-curvature="0" />
      <path
         d="m 265.57,712.97 9.2438,0 m -9.2438,-6.25 9.2438,0 m -9.2438,-6.25 9.2438,0 m -9.2438,-6.25 9.2438,0 m -9.2438,-6.25 9.2438,0 m -9.2438,-6.25 9.2438,0 m -9.2438,-6.25 9.2438,0"
         id="path207"
         inkscape:connector-curvature="0" />
    </g>
  </g>
</svg>
