<?xml version="1.0" encoding="UTF-8" ?>
<!DOCTYPE svg PUBLIC "-//W3C//DTD SVG 1.1//EN" "http://www.w3.org/Graphics/SVG/1.1/DTD/svg11.dtd">
<svg width="1000pt" height="887pt" viewBox="0 0 1000 887" version="1.1" xmlns="http://www.w3.org/2000/svg">
<g id="#003893ff">
<path fill="#003893" opacity="1.00" d=" M 95.82 0.00 L 100.48 0.00 C 103.62 2.31 106.77 5.36 110.98 5.15 C 115.40 5.78 121.10 3.73 124.34 7.79 C 127.18 10.97 125.04 15.75 126.79 19.30 C 128.88 21.49 132.23 21.22 134.93 22.15 C 138.06 22.85 139.73 25.88 142.06 27.81 C 143.44 29.29 145.95 30.56 145.19 32.98 C 144.43 37.32 142.57 41.43 140.00 45.01 C 138.13 47.71 136.78 51.08 133.68 52.64 C 128.52 55.25 122.86 56.89 118.06 60.21 C 114.35 62.84 110.52 65.29 106.70 67.74 C 103.22 69.93 98.86 70.08 95.48 72.45 C 91.54 75.17 88.85 79.21 85.62 82.65 C 83.18 85.37 78.63 85.43 77.04 89.04 C 74.30 92.86 73.35 98.78 68.26 100.24 C 65.15 101.20 61.97 101.94 58.85 102.90 C 55.99 103.91 53.11 102.49 50.35 101.80 C 46.17 103.19 42.24 100.91 38.15 100.49 C 34.35 101.57 31.20 104.78 27.03 104.50 C 23.16 104.48 18.37 102.93 17.28 98.75 C 16.60 94.60 18.79 90.72 19.84 86.81 C 18.82 84.97 17.43 83.19 17.24 81.02 C 16.83 75.84 15.90 70.68 14.12 65.79 C 13.18 62.47 9.25 62.39 6.52 61.52 C 3.99 61.03 1.74 59.70 0.00 57.82 L 0.00 50.58 C 1.74 45.10 5.77 40.79 9.95 37.03 C 13.51 35.10 17.19 33.38 20.85 31.63 C 23.91 29.95 27.16 31.88 30.24 32.42 C 32.10 30.94 33.26 28.76 35.11 27.26 C 38.34 25.37 42.32 24.71 45.07 22.02 C 46.91 20.20 47.77 17.40 50.24 16.26 C 52.48 15.14 54.81 14.19 57.10 13.16 C 61.12 11.19 66.03 12.36 69.83 9.81 C 73.14 7.73 76.68 6.03 80.00 3.96 C 84.68 0.78 90.60 1.55 95.82 0.00 Z" />
<path fill="#003893" opacity="1.00" d=" M 156.67 100.80 C 161.85 99.95 166.43 104.29 166.22 109.46 C 164.30 111.71 162.32 114.91 164.27 117.80 C 167.38 120.12 171.17 121.57 175.07 121.60 C 177.00 121.53 178.70 122.67 179.76 124.22 C 179.71 126.14 179.09 128.02 179.20 129.95 C 179.70 132.85 181.29 135.92 179.76 138.78 C 176.96 141.00 173.47 142.27 169.90 142.37 C 166.32 142.37 163.95 145.58 160.62 146.40 C 155.07 147.69 149.06 146.50 143.71 148.80 C 141.17 150.31 139.35 152.80 136.63 154.09 C 134.02 152.46 131.67 150.46 129.10 148.79 C 122.78 146.42 116.27 144.55 109.80 142.63 C 106.54 142.04 105.46 138.48 103.78 136.09 C 102.27 136.31 100.75 136.51 99.24 136.70 C 98.15 132.63 101.42 129.63 102.25 125.91 C 102.68 122.39 106.97 122.19 109.09 120.01 C 109.38 118.73 109.61 117.44 109.79 116.14 C 110.09 115.88 110.71 115.36 111.02 115.10 C 114.55 115.40 118.51 113.99 121.62 116.27 C 124.76 118.73 129.80 118.68 132.52 115.63 C 133.57 112.98 131.02 110.75 130.08 108.48 C 133.25 107.30 136.62 106.43 139.28 104.23 C 140.49 103.55 141.48 102.07 143.00 102.21 C 145.77 102.08 146.49 105.34 148.17 106.91 C 149.73 107.58 151.41 106.65 152.91 106.20 C 155.41 105.64 155.59 102.67 156.67 100.80 Z" />
<path fill="#003893" opacity="1.00" d=" M 898.89 129.61 C 900.75 128.25 902.12 126.34 903.79 124.76 C 904.37 125.01 905.54 125.51 906.12 125.76 C 906.85 127.06 907.51 128.43 908.46 129.61 C 910.54 131.04 913.77 130.54 915.17 132.97 C 915.24 137.88 913.10 142.60 909.73 146.10 C 912.05 147.73 915.00 149.15 915.78 152.15 C 916.82 156.32 915.21 160.80 912.45 163.98 C 913.27 168.30 912.78 172.69 913.08 177.03 C 913.20 180.36 916.46 181.95 918.38 184.19 C 919.17 187.23 920.51 190.07 921.67 192.98 C 920.05 196.37 917.03 199.08 916.73 203.03 C 916.25 206.07 911.93 206.92 911.95 210.04 C 913.47 213.23 916.17 215.83 916.61 219.51 C 914.12 219.97 911.59 220.07 909.09 220.34 C 906.94 221.70 905.04 225.20 902.28 222.86 C 900.42 219.90 900.86 216.26 900.63 212.93 C 900.72 208.07 895.89 204.76 895.98 199.91 C 897.21 197.62 899.59 195.80 899.61 192.99 C 899.97 189.15 896.82 186.08 893.74 184.35 C 890.70 182.58 888.30 185.90 885.82 187.12 C 883.70 188.83 881.96 185.92 880.28 184.98 C 881.58 182.94 883.84 181.39 884.50 179.00 C 884.21 176.13 882.34 173.74 881.53 171.02 C 881.69 167.85 884.35 165.77 886.31 163.60 C 884.60 162.63 882.18 162.53 880.95 160.93 C 879.54 155.99 878.93 150.87 877.72 145.89 C 876.77 142.80 878.95 139.92 880.65 137.54 C 883.20 135.63 886.68 135.77 889.43 134.21 C 890.91 133.11 892.05 131.62 893.48 130.44 C 895.22 129.92 897.10 130.00 898.89 129.61 Z" />
<path fill="#003893" opacity="1.00" d=" M 212.03 143.81 C 216.82 142.85 222.59 144.40 224.85 149.05 C 225.92 151.54 227.94 153.33 229.82 155.18 C 231.41 157.76 232.17 160.84 234.28 163.12 C 237.02 161.84 240.04 158.67 243.17 160.84 C 246.24 162.05 245.08 166.21 243.00 167.85 C 240.78 169.65 238.23 172.25 235.10 171.13 C 232.19 170.44 229.14 170.67 226.26 169.88 C 224.52 168.04 224.22 165.24 223.12 163.00 C 219.86 161.02 216.75 158.70 213.06 157.56 C 210.08 156.62 209.56 153.11 208.93 150.50 C 210.32 148.45 211.23 146.13 212.03 143.81 Z" />
<path fill="#003893" opacity="1.00" d=" M 365.99 191.46 C 368.73 190.39 371.01 188.41 373.57 186.99 C 375.08 188.95 376.58 191.08 379.06 191.87 C 382.97 193.33 385.51 196.76 388.13 199.81 C 391.84 199.74 394.57 201.87 397.07 204.32 C 404.64 203.93 412.15 201.70 419.68 200.49 C 422.65 204.09 427.80 202.21 431.36 204.71 C 434.85 207.02 437.64 210.69 441.85 211.75 C 443.97 210.86 445.82 209.41 448.01 208.66 C 450.78 208.89 453.29 210.26 456.02 210.69 C 458.05 210.30 459.95 208.92 462.09 209.41 C 470.03 210.80 477.68 213.77 484.40 218.24 C 484.86 219.46 485.35 220.67 485.85 221.88 C 488.12 221.52 490.40 221.13 492.69 220.83 C 494.49 224.30 498.72 228.06 496.19 232.20 C 493.45 237.27 486.85 237.15 481.97 236.08 C 479.03 235.17 475.89 235.10 472.96 236.04 C 468.38 237.58 463.70 235.64 459.08 235.40 C 455.56 235.15 453.12 232.38 450.42 230.46 C 446.25 227.26 440.78 226.94 436.19 224.60 C 432.29 222.77 428.62 219.29 423.97 220.20 C 420.27 220.75 416.61 219.84 412.92 219.87 C 411.49 220.58 410.54 221.93 409.44 223.04 C 408.32 223.20 407.20 223.36 406.08 223.51 C 404.46 225.29 403.08 227.29 402.35 229.61 C 400.08 232.02 397.69 234.56 397.07 237.94 C 396.51 241.37 392.28 242.47 391.65 245.89 C 390.48 251.03 387.28 255.63 387.59 261.07 C 388.01 264.31 384.02 263.94 381.91 263.83 C 379.93 264.20 378.82 262.27 378.48 260.62 C 377.71 256.95 378.03 253.15 377.25 249.48 C 376.67 246.54 373.64 245.26 371.91 243.11 C 369.55 238.83 367.61 234.19 368.43 229.18 C 367.52 227.42 366.66 225.63 365.82 223.84 C 361.16 223.02 355.60 223.76 351.94 220.16 C 349.35 217.73 346.65 215.37 344.55 212.48 C 345.25 207.63 341.66 201.85 346.00 197.97 C 348.57 194.06 353.99 196.14 357.35 193.38 C 359.86 191.44 363.04 191.85 365.99 191.46 Z" />
<path fill="#003893" opacity="1.00" d=" M 244.36 196.06 C 245.12 194.84 245.84 193.58 246.76 192.47 C 251.01 192.36 252.93 196.51 254.25 199.84 C 254.84 202.87 251.90 203.18 249.76 202.31 C 247.59 200.58 246.02 198.24 244.36 196.06 Z" />
<path fill="#003893" opacity="1.00" d=" M 279.35 207.48 C 281.89 206.79 284.57 207.30 287.16 207.36 C 289.28 210.89 286.29 214.10 283.94 216.51 C 281.80 216.10 279.17 216.14 277.81 214.11 C 276.54 211.97 276.97 208.67 279.35 207.48 Z" />
<path fill="#003893" opacity="1.00" d=" M 903.99 355.96 C 905.74 353.82 908.63 354.94 910.24 356.69 C 915.44 361.87 921.78 366.41 929.16 367.67 C 933.37 368.59 937.60 367.01 941.40 365.33 C 945.86 363.50 947.48 358.59 950.53 355.23 C 953.88 356.79 957.37 358.11 961.13 358.11 C 965.00 357.60 966.03 363.11 969.86 362.67 C 973.30 363.10 977.77 361.60 980.27 364.77 C 984.55 368.86 984.86 375.19 988.08 379.92 C 990.46 383.75 996.06 384.01 998.06 388.14 C 999.00 391.98 995.10 394.55 994.25 397.98 C 993.96 401.62 997.38 403.64 1000.00 405.38 L 1000.00 409.28 C 997.88 413.71 996.61 418.62 993.70 422.64 C 987.89 429.21 979.89 433.26 972.15 437.09 C 968.67 439.52 964.85 441.34 960.98 443.01 C 956.55 444.78 955.45 451.70 950.04 451.31 C 940.55 448.93 930.73 450.82 921.12 449.97 C 918.22 448.30 916.38 445.06 913.02 444.16 C 907.02 442.10 901.50 438.84 895.33 437.29 C 891.69 436.33 890.41 432.21 889.71 428.96 C 888.90 425.41 890.95 422.17 891.76 418.83 C 892.67 415.37 890.99 411.88 891.44 408.41 C 894.13 404.56 899.53 404.87 903.55 403.33 C 906.88 402.66 909.60 399.54 909.13 396.05 C 908.59 391.72 908.22 387.38 907.66 383.06 C 905.34 379.54 901.91 376.38 902.43 371.71 C 903.48 370.50 904.63 369.36 905.55 368.03 C 905.04 364.05 901.40 359.88 903.99 355.96 Z" />
<path fill="#003893" opacity="1.00" d=" M 897.62 374.32 C 900.33 374.90 904.44 377.76 901.77 380.71 C 899.17 380.47 897.86 377.78 896.72 375.79 C 896.95 375.43 897.39 374.69 897.62 374.32 Z" />
<path fill="#003893" opacity="1.00" d=" M 596.04 693.57 C 597.00 692.73 598.00 691.93 599.00 691.13 C 600.34 693.78 602.55 695.77 604.82 697.62 C 606.29 696.06 607.75 694.49 609.21 692.92 C 611.99 695.94 615.58 697.89 619.01 700.05 C 620.39 703.25 617.83 705.68 615.74 707.69 C 613.85 708.98 614.95 711.39 615.78 713.01 C 617.58 716.18 620.02 719.35 623.73 720.32 C 627.81 721.56 631.25 724.08 635.00 726.02 C 635.14 727.44 635.30 728.87 635.39 730.32 C 637.95 730.22 641.07 729.77 642.95 732.00 C 647.38 735.92 648.28 742.34 652.84 746.14 C 656.13 749.78 661.61 751.25 663.37 756.23 C 664.34 757.24 665.33 758.24 666.40 759.18 C 668.54 758.79 671.00 757.52 673.06 758.87 C 675.39 760.81 676.01 763.97 677.17 766.65 C 680.09 766.85 683.47 766.20 685.95 768.14 C 686.86 771.04 686.35 774.15 686.86 777.13 C 690.41 782.87 695.23 787.79 698.24 793.88 C 699.91 795.59 702.50 796.49 703.30 799.02 C 706.79 800.51 706.15 804.25 706.21 807.38 C 708.43 808.18 710.31 809.60 711.92 811.32 C 711.15 812.46 710.38 813.60 709.61 814.75 C 710.02 817.26 711.44 819.97 710.18 822.48 C 708.09 822.36 706.04 821.98 703.98 821.69 C 702.62 823.30 701.20 824.85 699.73 826.35 C 700.33 827.21 700.95 828.09 701.57 828.97 C 700.04 831.19 697.86 833.00 696.75 835.49 C 695.67 839.69 694.50 843.87 693.45 848.08 C 690.99 847.83 688.51 847.19 686.05 847.52 C 683.37 848.06 683.68 852.21 681.07 852.73 C 677.40 852.12 674.59 849.29 670.96 848.59 C 667.65 848.01 664.23 846.95 660.93 848.11 C 658.77 848.91 656.58 848.50 654.56 847.55 C 649.73 845.16 644.11 848.26 639.33 845.78 C 636.31 844.21 633.20 842.84 629.86 842.18 C 628.91 840.88 627.96 839.61 626.98 838.37 C 625.65 838.37 624.32 838.31 623.01 838.21 C 619.96 835.77 618.40 831.56 614.31 830.48 C 611.43 826.23 607.98 822.19 603.15 820.13 C 602.78 817.20 603.79 814.44 605.28 811.98 C 605.41 812.24 605.68 812.76 605.81 813.02 C 605.83 813.23 605.86 813.66 605.87 813.87 C 614.79 807.66 623.48 801.13 632.30 794.79 C 641.21 801.24 650.11 807.71 659.00 814.19 C 655.57 803.75 652.20 793.29 648.79 782.83 C 657.63 776.37 666.53 770.00 675.34 763.49 C 664.39 763.43 653.45 763.47 642.51 763.47 C 639.09 753.03 635.72 742.58 632.31 732.14 C 628.90 742.58 625.52 753.02 622.13 763.46 C 611.15 763.47 600.17 763.45 589.20 763.48 C 598.07 769.93 606.96 776.37 615.82 782.84 C 612.73 792.00 610.06 801.30 606.71 810.37 C 606.63 810.54 606.46 810.89 606.38 811.06 C 604.65 809.03 603.08 806.83 600.99 805.16 C 598.55 803.49 595.47 803.67 592.67 803.74 C 589.20 801.24 589.57 796.73 588.66 793.04 C 588.29 790.31 584.89 791.05 582.96 790.38 C 582.59 789.29 582.24 788.20 581.91 787.14 C 581.93 785.03 581.80 782.91 581.93 780.82 C 583.54 779.48 585.45 778.58 587.24 777.50 C 585.66 774.08 587.21 770.81 589.28 768.07 C 588.32 765.50 588.10 762.78 588.43 760.09 C 587.56 759.45 586.69 758.83 585.84 758.21 C 586.14 756.76 586.45 755.31 586.78 753.88 C 586.17 752.80 585.59 751.75 585.01 750.70 C 586.17 750.09 587.35 749.49 588.53 748.90 C 589.40 745.75 590.88 742.84 592.52 740.04 C 591.86 737.72 590.12 735.04 591.69 732.73 C 593.42 730.60 596.32 729.95 598.23 728.02 C 598.45 725.47 598.45 722.55 596.73 720.48 C 595.07 720.03 593.35 719.94 591.67 719.76 C 591.18 717.65 590.42 715.64 589.31 713.79 C 589.82 712.00 590.36 710.23 590.92 708.47 C 588.74 707.70 586.12 707.68 584.46 705.89 C 586.46 702.37 591.16 702.73 594.46 701.36 C 592.10 700.17 589.65 699.18 587.19 698.25 C 588.78 695.97 590.84 694.09 592.94 692.29 C 593.96 692.71 595.00 693.13 596.04 693.57 M 597.05 694.68 C 595.72 694.34 594.37 693.98 593.06 693.64 C 591.56 694.89 590.08 696.16 588.62 697.46 C 591.13 698.58 593.65 699.76 595.84 701.46 C 592.52 703.53 588.32 703.46 585.20 705.92 C 593.59 708.44 602.41 707.04 611.02 707.43 C 614.74 708.11 618.84 704.74 618.33 700.86 C 615.26 698.81 611.93 697.10 609.29 694.46 C 607.75 696.11 606.06 697.65 604.06 698.72 C 602.11 696.65 600.08 694.67 598.24 692.51 C 597.94 693.05 597.35 694.14 597.05 694.68 Z" />
<path fill="#003893" opacity="1.00" d=" M 802.65 691.03 C 803.27 691.07 804.51 691.14 805.13 691.18 C 805.46 692.69 805.75 694.18 806.11 695.72 C 808.07 694.81 809.77 693.48 811.22 691.89 C 811.62 692.24 812.42 692.95 812.83 693.30 C 812.44 694.84 811.98 696.37 811.72 697.95 C 814.65 700.69 818.98 700.10 821.51 697.17 C 822.05 696.99 822.60 696.83 823.17 696.68 C 825.26 697.74 827.51 698.45 829.83 698.90 C 830.75 701.49 830.97 704.24 831.07 706.97 C 832.35 710.33 832.33 714.01 830.45 717.15 C 834.69 721.19 835.04 727.51 834.22 732.97 C 833.33 737.98 838.16 742.01 836.92 747.11 C 836.67 751.89 831.78 754.17 830.29 758.42 C 828.49 762.09 823.60 760.98 820.47 762.42 C 818.54 765.28 816.76 768.24 814.69 771.01 C 810.13 770.53 804.12 772.21 800.94 767.97 C 799.09 764.92 795.10 764.68 792.90 762.01 C 791.09 759.61 787.95 759.50 785.36 758.52 C 782.68 756.23 780.27 752.65 781.26 748.98 C 782.24 745.77 784.63 743.20 785.49 739.95 C 785.53 736.84 784.16 733.94 783.94 730.86 C 784.71 727.98 788.38 728.55 790.53 727.44 C 792.27 724.83 789.53 721.85 789.04 719.13 C 787.22 719.12 785.41 719.11 783.62 719.09 C 783.73 715.93 785.07 712.96 786.99 710.50 C 787.87 710.57 789.64 710.71 790.53 710.78 C 793.35 708.21 795.78 705.02 796.44 701.17 C 795.60 699.87 794.83 698.56 794.08 697.23 C 796.41 697.10 798.76 697.09 801.11 697.14 C 800.88 696.19 800.67 695.26 800.46 694.33 C 801.20 693.24 801.92 692.13 802.65 691.03 M 801.65 694.39 C 801.75 695.37 801.96 697.34 802.07 698.33 C 799.80 698.16 797.54 697.94 795.29 697.81 C 796.02 698.73 796.77 699.65 797.53 700.58 C 797.09 703.01 796.38 705.39 794.92 707.43 C 806.58 707.34 818.24 707.49 829.91 707.35 C 829.92 704.86 829.84 702.38 829.35 699.95 C 827.07 699.39 824.85 698.67 822.72 697.73 C 821.15 698.74 819.71 700.03 817.92 700.65 C 815.22 701.23 811.86 700.17 810.61 697.57 C 810.85 696.06 811.43 694.61 811.88 693.17 C 809.88 694.79 807.71 696.90 804.89 696.08 C 804.68 694.50 804.45 692.94 804.21 691.39 C 803.33 692.37 802.49 693.38 801.65 694.39 Z" />
<path fill="#003893" opacity="1.00" d=" M 354.70 799.69 C 357.58 798.42 360.15 796.56 363.05 795.36 C 365.41 795.94 367.60 797.07 369.96 797.73 C 374.36 798.82 378.10 801.82 382.71 802.21 C 383.32 803.84 383.98 805.46 384.67 807.08 C 386.15 807.62 387.62 808.20 389.09 808.80 C 389.06 810.86 389.03 812.92 389.02 815.00 C 390.33 816.61 392.04 818.03 392.78 820.02 C 393.62 824.40 393.35 828.93 391.87 833.14 C 393.12 835.37 394.78 837.47 395.31 840.03 C 395.36 843.68 394.55 847.32 394.99 850.98 C 395.20 855.45 396.42 860.27 394.39 864.51 C 392.47 866.53 389.84 867.82 388.31 870.23 C 386.09 873.61 382.91 876.26 379.46 878.32 C 376.59 879.39 373.57 880.19 371.19 882.23 C 368.91 884.32 365.81 882.25 363.19 883.16 C 359.13 884.26 354.96 883.16 350.88 882.79 C 346.68 882.60 343.88 879.02 339.98 877.95 C 336.41 877.10 335.53 873.14 333.25 870.79 C 330.91 869.37 327.52 869.65 326.04 867.03 C 324.50 864.55 322.20 862.79 319.49 861.76 C 318.11 860.06 316.53 858.54 315.23 856.79 C 313.82 854.55 313.80 851.79 313.34 849.28 C 311.71 847.09 309.46 844.94 309.51 842.01 C 309.56 839.27 311.52 837.17 312.94 835.02 C 316.64 830.17 316.57 823.35 321.04 818.97 C 323.90 815.26 328.60 814.01 332.15 811.17 C 335.89 808.05 340.87 807.26 345.19 805.23 C 348.84 804.24 351.28 801.12 354.70 799.69 Z" />
<path fill="#003893" opacity="1.00" d=" M 263.32 820.52 C 264.93 820.93 266.54 821.36 268.16 821.80 C 266.97 824.67 264.92 827.22 262.02 828.50 C 260.73 827.40 259.61 826.12 258.47 824.89 C 260.32 824.89 262.17 824.91 264.03 824.90 C 263.80 823.43 263.56 821.97 263.32 820.52 Z" />
<path fill="#003893" opacity="1.00" d=" M 242.91 823.89 C 244.24 822.16 248.55 822.20 248.37 824.95 C 247.64 826.90 246.56 828.70 245.61 830.57 C 241.94 830.94 240.21 826.15 242.91 823.89 Z" />
<path fill="#003893" opacity="1.00" d=" M 252.90 826.42 C 254.60 825.43 256.40 824.63 258.27 823.99 C 257.98 826.80 255.17 827.94 252.90 826.42 Z" />
<path fill="#003893" opacity="1.00" d=" M 242.35 850.88 C 243.10 850.73 244.59 850.44 245.34 850.29 C 246.40 851.35 247.53 852.37 248.45 853.58 C 249.23 856.63 249.24 859.86 250.26 862.88 C 252.42 868.79 252.18 875.37 250.43 881.35 C 248.62 881.56 246.81 881.68 245.05 882.12 C 243.43 883.44 242.45 885.34 241.23 887.00 L 239.15 887.00 C 238.25 885.96 237.41 884.88 236.57 883.82 C 234.69 883.23 232.69 882.91 231.01 881.87 C 229.29 880.40 228.27 878.32 227.02 876.48 C 225.52 876.27 224.04 876.02 222.56 875.74 C 223.24 874.06 224.11 872.47 224.96 870.89 C 224.56 869.56 224.12 868.24 223.85 866.90 C 223.08 864.45 226.22 863.94 227.64 862.74 C 227.31 860.63 226.17 858.34 227.23 856.28 C 228.14 854.23 230.63 853.98 232.46 853.20 C 233.96 853.95 235.42 854.82 237.02 855.37 C 239.37 854.84 240.67 852.42 242.35 850.88 Z" />
</g>
<g id="#fdfdfeff">
<path fill="#fdfdfe" opacity="1.00" d=" M 801.65 694.39 C 802.49 693.38 803.33 692.37 804.21 691.39 C 804.45 692.94 804.68 694.50 804.89 696.08 C 807.71 696.90 809.88 694.79 811.88 693.17 C 811.43 694.61 810.85 696.06 810.61 697.57 C 811.86 700.17 815.22 701.23 817.92 700.65 C 819.71 700.03 821.15 698.74 822.72 697.73 C 824.85 698.67 827.07 699.39 829.35 699.95 C 829.84 702.38 829.92 704.86 829.91 707.35 C 818.24 707.49 806.58 707.34 794.92 707.43 C 796.38 705.39 797.09 703.01 797.53 700.58 C 796.77 699.65 796.02 698.73 795.29 697.81 C 797.54 697.94 799.80 698.16 802.07 698.33 C 801.96 697.34 801.75 695.37 801.65 694.39 Z" />
<path fill="#fdfdfe" opacity="1.00" d=" M 597.05 694.68 C 597.35 694.14 597.94 693.05 598.24 692.51 C 600.08 694.67 602.11 696.65 604.06 698.72 C 606.06 697.65 607.75 696.11 609.29 694.46 C 611.93 697.10 615.26 698.81 618.33 700.86 C 618.84 704.74 614.74 708.11 611.02 707.43 C 602.41 707.04 593.59 708.44 585.20 705.92 C 588.32 703.46 592.52 703.53 595.84 701.46 C 593.65 699.76 591.13 698.58 588.62 697.46 C 590.08 696.16 591.56 694.89 593.06 693.64 C 594.37 693.98 595.72 694.34 597.05 694.68 Z" />
</g>
<g id="#f7d116ff">
<path fill="#f7d116" opacity="1.00" d=" M 622.13 763.46 C 625.52 753.02 628.90 742.58 632.31 732.14 C 635.72 742.58 639.09 753.03 642.51 763.47 C 653.45 763.47 664.39 763.43 675.34 763.49 C 666.53 770.00 657.63 776.37 648.79 782.83 C 652.20 793.29 655.57 803.75 659.00 814.19 C 650.11 807.71 641.21 801.24 632.30 794.79 C 623.48 801.13 614.79 807.66 605.87 813.87 C 605.86 813.66 605.83 813.23 605.81 813.02 C 605.95 812.53 606.24 811.55 606.38 811.06 C 606.46 810.89 606.63 810.54 606.71 810.37 C 610.06 801.30 612.73 792.00 615.82 782.84 C 606.96 776.37 598.07 769.93 589.20 763.48 C 600.17 763.45 611.15 763.47 622.13 763.46 Z" />
</g>
</svg>
