<?xml version="1.0" encoding="UTF-8" ?>
<!DOCTYPE svg PUBLIC "-//W3C//DTD SVG 1.1//EN" "http://www.w3.org/Graphics/SVG/1.1/DTD/svg11.dtd">
<svg width="791pt" height="261pt" viewBox="0 0 791 261" version="1.1" xmlns="http://www.w3.org/2000/svg">
<g id="#ffffffff">
<path fill="#ffffff" opacity="1.00" d=" M 0.00 0.00 L 791.00 0.00 L 791.00 261.00 L 0.00 261.00 L 0.00 0.00 M 775.61 11.00 C 773.88 11.00 772.15 11.00 770.42 11.00 C 770.11 14.35 766.28 12.60 764.06 12.99 C 764.04 13.69 764.01 15.07 763.99 15.77 C 761.72 15.83 759.68 16.90 758.36 18.74 C 756.97 19.18 755.47 18.95 754.06 19.04 C 754.03 19.78 753.96 21.26 753.93 22.00 C 751.97 22.00 750.02 21.99 748.07 21.97 C 748.04 22.73 747.97 24.26 747.93 25.02 C 746.30 25.00 744.68 24.99 743.07 24.97 C 743.03 25.73 742.97 27.25 742.93 28.02 C 741.30 28.00 739.68 27.99 738.07 27.97 C 738.04 28.73 737.97 30.24 737.93 30.99 C 735.92 31.23 732.74 29.97 732.57 33.00 C 730.73 33.00 728.89 32.99 727.07 32.98 C 727.03 33.74 726.97 35.25 726.93 36.01 C 725.30 36.00 723.68 35.99 722.07 35.97 C 722.03 36.73 721.97 38.25 721.93 39.00 C 719.70 39.40 715.88 37.65 715.58 41.00 C 713.73 41.00 711.89 40.99 710.07 40.98 C 710.03 41.73 709.97 43.24 709.94 44.00 C 708.29 44.00 706.64 44.00 705.00 44.00 C 704.99 45.67 704.99 47.33 705.00 49.00 C 709.64 49.01 714.28 48.99 718.93 49.02 C 718.97 48.26 719.03 46.75 719.07 45.99 C 722.58 45.96 726.10 46.12 729.62 45.95 C 729.82 45.47 730.21 44.49 730.41 44.00 C 732.91 44.00 735.42 44.00 737.94 44.02 C 737.97 43.26 738.03 41.75 738.06 40.99 C 740.58 40.99 743.10 41.10 745.62 40.96 C 745.82 40.47 746.21 39.49 746.41 39.00 C 748.91 39.00 751.42 39.00 753.93 39.02 C 753.97 38.26 754.03 36.75 754.07 35.99 C 755.68 36.00 757.30 36.01 758.93 36.03 C 758.97 35.27 759.03 33.75 759.07 32.99 C 762.48 32.80 766.04 33.48 769.36 32.67 C 770.21 31.45 771.60 31.02 772.99 30.67 C 772.99 30.07 773.00 28.89 773.01 28.29 C 777.45 27.62 779.74 23.06 781.33 19.31 C 783.21 18.95 784.52 17.57 786.00 16.45 C 786.00 14.64 785.99 12.83 786.00 11.01 C 783.79 10.99 781.58 11.00 779.38 11.00 C 779.54 8.20 775.45 8.21 775.61 11.00 M 660.04 32.98 C 660.01 33.74 659.96 35.25 659.94 36.00 C 655.30 35.99 650.67 36.00 646.04 35.98 C 646.01 36.74 645.96 38.25 645.94 39.00 C 640.75 39.05 635.56 38.90 630.38 39.03 C 630.18 39.52 629.77 40.51 629.57 41.00 C 628.06 41.00 626.55 40.99 625.05 40.98 C 625.03 41.65 624.99 42.99 624.97 43.66 C 622.71 44.01 621.26 45.95 619.01 46.32 C 618.99 46.99 618.95 48.33 618.93 49.00 C 617.67 49.00 616.43 48.98 615.18 48.97 C 614.36 50.84 613.28 52.43 611.01 52.23 C 611.00 52.84 610.98 54.05 610.97 54.65 C 608.72 55.06 607.21 56.90 605.00 57.39 C 604.98 59.26 604.98 61.13 604.99 63.00 C 610.65 63.01 616.30 62.99 621.96 63.02 C 621.99 62.26 622.04 60.75 622.07 59.99 C 623.69 60.00 625.32 60.01 626.95 60.03 C 626.97 59.35 627.00 58.01 627.02 57.33 C 628.39 57.00 629.78 56.56 630.65 55.35 C 633.62 54.54 636.87 55.21 639.96 55.02 C 639.99 54.27 640.04 52.75 640.07 52.00 C 642.03 52.00 643.99 52.01 645.96 52.03 C 645.99 51.27 646.04 49.76 646.07 49.00 C 647.69 49.00 649.32 49.01 650.95 49.03 C 650.98 48.27 651.04 46.76 651.07 46.00 C 652.90 46.00 654.74 46.01 656.59 46.01 C 656.79 45.52 657.19 44.54 657.38 44.05 C 663.24 43.93 669.11 44.02 674.98 44.03 C 674.99 43.28 675.02 41.78 675.03 41.03 C 675.78 41.02 677.27 40.98 678.02 40.96 C 678.00 39.32 678.00 37.68 678.02 36.04 C 677.27 36.02 675.78 35.98 675.03 35.97 C 675.02 35.22 674.99 33.72 674.98 32.97 C 669.99 33.01 665.02 33.00 660.04 32.98 M 20.04 183.95 C 19.54 184.96 19.06 185.97 18.60 187.00 C 16.65 187.15 13.73 186.12 13.56 189.00 C 11.71 189.00 9.85 189.00 8.00 189.00 C 8.00 191.88 8.00 194.77 8.00 197.65 C 9.43 197.99 10.88 198.38 11.64 199.77 C 14.04 200.27 16.53 199.92 18.96 200.00 C 19.07 201.77 18.73 203.64 19.28 205.36 C 20.59 206.17 20.98 207.59 21.32 208.99 C 21.99 209.01 23.33 209.05 24.00 209.06 C 23.91 212.63 24.25 216.21 23.82 219.76 C 22.34 224.34 23.21 229.21 23.01 233.93 C 22.25 233.97 20.74 234.03 19.98 234.07 C 19.99 235.90 20.00 237.74 20.00 239.57 C 17.08 239.75 18.16 242.73 17.93 244.70 C 19.78 245.60 21.48 246.66 21.22 249.00 C 21.91 249.00 23.28 249.02 23.97 249.03 C 23.99 249.78 24.04 251.28 24.06 252.03 C 24.78 252.02 26.22 252.01 26.93 252.01 C 26.97 251.26 27.03 249.74 27.07 248.99 C 28.69 249.00 30.31 249.01 31.93 249.02 C 31.97 248.27 32.03 246.75 32.07 246.00 C 34.91 246.00 37.75 245.99 40.59 246.03 C 40.94 245.32 41.64 243.90 41.99 243.19 C 42.35 243.90 43.06 245.32 43.41 246.03 C 47.92 245.97 52.42 246.02 56.93 245.99 C 56.97 246.75 57.03 248.27 57.07 249.03 C 58.69 249.01 60.31 248.99 61.93 248.99 C 61.97 249.74 62.03 251.26 62.07 252.02 C 67.36 251.99 72.64 251.99 77.93 252.02 C 77.97 251.26 78.03 249.75 78.07 249.00 C 80.93 249.00 83.79 249.01 86.66 249.00 C 86.90 246.94 88.32 245.52 89.56 244.00 C 91.35 244.00 93.14 244.01 94.93 244.02 C 94.97 243.26 95.03 241.74 95.07 240.98 C 96.69 241.00 98.31 241.01 99.93 241.03 C 99.97 240.27 100.03 238.75 100.07 237.99 C 101.69 238.00 103.31 238.00 104.93 238.02 C 104.97 237.26 105.03 235.75 105.07 234.99 C 105.78 235.00 107.22 235.00 107.93 235.00 C 107.97 235.75 108.03 237.25 108.07 238.00 C 108.78 238.01 110.22 238.01 110.93 238.01 C 110.97 237.26 111.03 235.75 111.07 235.00 C 117.24 235.01 123.40 235.00 129.57 235.00 C 130.05 236.03 130.56 237.05 131.09 238.07 C 132.24 238.04 133.40 238.02 134.55 238.00 C 135.06 236.98 135.58 235.97 136.13 234.98 C 139.28 235.01 142.44 235.01 145.59 235.00 C 145.79 234.51 146.18 233.54 146.37 233.05 C 150.88 232.88 155.40 233.06 159.91 233.00 C 160.15 231.30 159.54 229.26 160.75 227.85 C 162.84 225.79 161.76 222.65 162.00 220.07 C 162.75 220.03 164.26 219.96 165.01 219.93 C 165.00 217.97 165.00 216.02 165.01 214.07 C 164.27 214.04 162.78 213.97 162.04 213.94 C 161.94 212.50 162.18 211.02 161.74 209.64 C 160.39 208.84 160.00 207.41 159.65 206.00 C 138.75 206.02 117.85 205.97 96.95 206.02 C 95.51 205.95 94.02 206.19 92.64 205.75 C 90.89 202.92 86.74 203.47 85.70 200.00 C 84.27 200.00 82.85 200.00 81.42 200.00 C 81.22 199.51 80.81 198.53 80.61 198.04 C 78.07 197.90 75.54 198.01 73.00 198.00 C 73.00 199.65 73.00 201.29 73.00 202.94 C 72.25 202.97 70.74 203.03 69.99 203.06 C 69.99 203.78 69.98 205.22 69.97 205.94 C 70.72 205.96 72.22 206.01 72.97 206.03 C 72.98 206.71 73.00 208.07 73.00 208.75 C 75.79 208.84 78.14 211.21 78.27 213.99 C 78.95 214.01 80.32 214.05 81.00 214.07 C 81.00 214.80 81.00 216.27 81.00 217.00 C 78.35 217.00 75.71 217.00 73.07 216.99 C 73.03 217.74 72.97 219.25 72.93 220.01 C 72.20 220.00 70.73 220.00 70.00 220.00 C 70.00 217.99 70.00 215.99 69.99 214.00 C 68.33 213.99 66.67 214.00 65.00 214.00 C 65.00 217.64 64.99 221.29 65.01 224.94 C 64.25 224.97 62.74 225.03 61.98 225.06 C 61.99 226.70 62.00 228.35 62.00 230.00 C 59.36 230.00 56.71 230.00 54.07 229.98 C 54.03 230.74 53.97 232.25 53.93 233.01 C 49.62 232.99 45.31 233.00 41.00 233.00 C 41.00 231.13 41.00 229.26 41.00 227.39 C 38.75 226.94 37.25 225.05 35.00 224.61 C 35.01 218.43 34.98 212.25 35.02 206.07 C 34.26 206.03 32.75 205.97 31.99 205.93 C 32.00 203.98 32.01 202.02 32.02 200.07 C 31.26 200.04 29.75 199.96 28.99 199.93 C 29.00 198.29 29.00 196.65 29.00 195.01 C 32.00 195.00 35.00 195.00 37.99 195.01 C 38.00 194.27 38.02 192.80 38.03 192.06 C 37.28 192.04 35.78 191.99 35.03 191.97 C 35.02 191.31 35.00 189.99 34.99 189.32 C 32.70 189.02 31.30 186.99 29.02 186.66 C 29.00 185.99 28.95 184.66 28.93 183.99 C 25.97 184.00 23.00 184.01 20.04 183.95 Z" />
<path fill="#ffffff" opacity="1.00" d=" M 639.71 41.99 C 639.40 39.88 641.13 39.95 642.70 39.98 C 642.58 42.98 642.59 45.98 642.47 48.97 C 642.95 48.98 643.93 48.99 644.41 49.00 C 644.66 49.47 645.16 50.41 645.41 50.89 C 643.15 50.98 640.90 50.99 638.66 51.06 C 638.84 50.58 639.22 49.63 639.41 49.15 C 640.30 47.33 639.96 45.27 639.83 43.33 C 639.80 42.99 639.74 42.32 639.71 41.99 Z" />
<path fill="#ffffff" opacity="1.00" d=" M 626.56 43.00 L 626.61 43.55 C 626.66 45.75 626.99 47.93 627.33 50.10 C 625.22 50.15 623.08 50.09 621.01 50.52 C 623.78 51.29 626.71 50.94 629.48 51.72 C 624.62 51.97 619.76 51.36 614.90 51.72 C 615.28 51.28 616.05 50.40 616.43 49.96 C 617.89 50.01 619.36 50.08 620.84 50.17 C 620.48 49.27 620.14 48.38 619.81 47.48 C 622.26 46.50 625.41 45.55 626.56 43.00 Z" />
</g>
<g id="#000000ff">
<path fill="#000000" opacity="1.00" d=" M 775.61 11.00 C 775.45 8.21 779.54 8.20 779.38 11.00 C 781.58 11.00 783.79 10.99 786.00 11.01 C 785.99 12.83 786.00 14.64 786.00 16.45 C 784.52 17.57 783.21 18.95 781.33 19.31 C 779.74 23.06 777.45 27.62 773.01 28.29 C 773.00 28.89 772.99 30.07 772.99 30.67 C 771.60 31.02 770.21 31.45 769.36 32.67 C 766.04 33.48 762.48 32.80 759.07 32.99 C 759.03 33.75 758.97 35.27 758.93 36.03 C 757.30 36.01 755.68 36.00 754.07 35.99 C 754.03 36.75 753.97 38.26 753.93 39.02 C 751.42 39.00 748.91 39.00 746.41 39.00 C 746.21 39.49 745.82 40.47 745.62 40.96 C 743.10 41.10 740.58 40.99 738.06 40.99 C 738.03 41.75 737.97 43.26 737.94 44.02 C 735.42 44.00 732.91 44.00 730.41 44.00 C 730.21 44.49 729.82 45.47 729.62 45.95 C 726.10 46.12 722.58 45.96 719.07 45.99 C 719.03 46.75 718.97 48.26 718.93 49.02 C 714.28 48.99 709.64 49.01 705.00 49.00 C 704.99 47.33 704.99 45.67 705.00 44.00 C 706.64 44.00 708.29 44.00 709.94 44.00 C 709.97 43.24 710.03 41.73 710.07 40.98 C 711.89 40.99 713.73 41.00 715.58 41.00 C 715.88 37.65 719.70 39.40 721.93 39.00 C 721.97 38.25 722.03 36.73 722.07 35.97 C 723.68 35.99 725.30 36.00 726.93 36.01 C 726.97 35.25 727.03 33.74 727.07 32.98 C 728.89 32.99 730.73 33.00 732.57 33.00 C 732.74 29.97 735.92 31.23 737.93 30.99 C 737.97 30.24 738.04 28.73 738.07 27.97 C 739.68 27.99 741.30 28.00 742.93 28.02 C 742.97 27.25 743.03 25.73 743.07 24.97 C 744.68 24.99 746.30 25.00 747.93 25.02 C 747.97 24.26 748.04 22.73 748.07 21.97 C 750.02 21.99 751.97 22.00 753.93 22.00 C 753.96 21.26 754.03 19.78 754.06 19.04 C 755.47 18.95 756.97 19.18 758.36 18.74 C 759.68 16.90 761.72 15.83 763.99 15.77 C 764.01 15.07 764.04 13.69 764.06 12.99 C 766.28 12.60 770.11 14.35 770.42 11.00 C 772.15 11.00 773.88 11.00 775.61 11.00 M 777.32 10.95 C 775.37 11.51 773.42 12.03 771.47 12.54 C 771.30 13.03 770.94 13.99 770.76 14.47 C 769.28 14.30 767.79 14.14 766.32 13.99 C 763.38 18.35 757.66 18.84 754.21 22.48 C 752.64 22.83 751.08 23.13 749.52 23.43 C 749.25 23.96 748.71 25.01 748.44 25.54 C 747.14 25.85 745.86 26.16 744.58 26.47 C 744.29 26.97 743.70 27.97 743.41 28.47 C 742.20 28.85 741.00 29.23 739.82 29.63 C 736.94 32.83 732.51 33.53 728.55 34.51 C 728.27 35.02 727.71 36.03 727.43 36.54 C 726.13 36.85 724.84 37.15 723.56 37.46 C 723.28 37.96 722.72 38.97 722.44 39.47 C 718.78 40.38 715.21 41.64 711.53 42.51 C 711.27 43.04 710.75 44.10 710.49 44.63 C 709.01 44.85 707.53 45.07 706.06 45.29 C 706.05 45.94 706.01 47.26 705.99 47.92 C 709.84 48.11 713.70 48.09 717.56 47.87 C 717.78 47.18 718.22 45.81 718.44 45.13 C 721.97 45.07 725.63 45.34 729.00 44.03 C 731.41 43.10 733.98 42.83 736.55 42.70 C 736.77 42.10 737.23 40.90 737.45 40.30 C 742.65 40.41 747.32 37.62 752.52 37.66 C 752.78 37.10 753.29 35.98 753.55 35.41 C 754.84 35.14 756.15 34.87 757.47 34.59 C 757.72 33.99 758.22 32.78 758.47 32.17 C 761.77 32.02 765.13 32.24 768.39 31.55 C 771.08 29.95 773.03 27.42 775.40 25.40 C 778.66 22.77 779.64 17.90 784.07 16.68 C 784.47 15.26 784.84 13.82 785.21 12.39 C 782.54 12.10 779.89 11.70 777.32 10.95 Z" />
<path fill="#000000" opacity="1.00" d=" M 20.04 183.95 C 23.00 184.01 25.97 184.00 28.93 183.99 C 28.95 184.66 29.00 185.99 29.02 186.66 C 31.30 186.99 32.70 189.02 34.99 189.32 C 35.00 189.99 35.02 191.31 35.03 191.97 C 35.78 191.99 37.28 192.04 38.03 192.06 C 38.02 192.80 38.00 194.27 37.99 195.01 C 35.00 195.00 32.00 195.00 29.00 195.01 C 29.00 196.65 29.00 198.29 28.99 199.93 C 29.75 199.96 31.26 200.04 32.02 200.07 C 32.01 202.02 32.00 203.98 31.99 205.93 C 32.75 205.97 34.26 206.03 35.02 206.07 C 34.98 212.25 35.01 218.43 35.00 224.61 C 37.25 225.05 38.75 226.94 41.00 227.39 C 41.00 229.26 41.00 231.13 41.00 233.00 C 45.31 233.00 49.62 232.99 53.93 233.01 C 53.97 232.25 54.03 230.74 54.07 229.98 C 56.71 230.00 59.36 230.00 62.00 230.00 C 62.00 228.35 61.99 226.70 61.98 225.06 C 62.74 225.03 64.25 224.97 65.01 224.94 C 64.99 221.29 65.00 217.64 65.00 214.00 C 66.67 214.00 68.33 213.99 69.99 214.00 C 70.00 215.99 70.00 217.99 70.00 220.00 C 70.73 220.00 72.20 220.00 72.93 220.01 C 72.97 219.25 73.03 217.74 73.07 216.99 C 75.71 217.00 78.35 217.00 81.00 217.00 C 81.00 216.27 81.00 214.80 81.00 214.07 C 80.32 214.05 78.95 214.01 78.27 213.99 C 78.14 211.21 75.79 208.84 73.00 208.75 C 73.00 208.07 72.98 206.71 72.97 206.03 C 72.22 206.01 70.72 205.96 69.97 205.94 C 69.98 205.22 69.99 203.78 69.99 203.06 C 70.74 203.03 72.25 202.97 73.00 202.94 C 73.00 201.29 73.00 199.65 73.00 198.00 C 75.54 198.01 78.07 197.90 80.61 198.04 C 80.81 198.53 81.22 199.51 81.42 200.00 C 82.85 200.00 84.27 200.00 85.70 200.00 C 86.74 203.47 90.89 202.92 92.64 205.75 C 94.02 206.19 95.51 205.95 96.95 206.02 C 117.85 205.97 138.75 206.02 159.65 206.00 C 160.00 207.41 160.39 208.84 161.74 209.64 C 162.18 211.02 161.94 212.50 162.04 213.94 C 162.78 213.97 164.27 214.04 165.01 214.07 C 165.00 216.02 165.00 217.97 165.01 219.93 C 164.26 219.96 162.75 220.03 162.00 220.07 C 161.76 222.65 162.84 225.79 160.75 227.85 C 159.54 229.26 160.15 231.30 159.91 233.00 C 155.40 233.06 150.88 232.88 146.37 233.05 C 146.18 233.54 145.79 234.51 145.59 235.00 C 142.44 235.01 139.28 235.01 136.13 234.98 C 135.58 235.97 135.06 236.98 134.55 238.00 C 133.40 238.02 132.24 238.04 131.09 238.07 C 130.56 237.05 130.05 236.03 129.57 235.00 C 123.40 235.00 117.24 235.01 111.07 235.00 C 111.03 235.75 110.97 237.26 110.93 238.01 C 110.22 238.01 108.78 238.01 108.07 238.00 C 108.03 237.25 107.97 235.75 107.93 235.00 C 107.22 235.00 105.78 235.00 105.07 234.99 C 105.03 235.75 104.97 237.26 104.93 238.02 C 103.31 238.00 101.69 238.00 100.07 237.99 C 100.03 238.75 99.97 240.27 99.93 241.03 C 98.31 241.01 96.69 241.00 95.07 240.98 C 95.03 241.74 94.97 243.26 94.93 244.02 C 93.14 244.01 91.35 244.00 89.56 244.00 C 88.32 245.52 86.90 246.94 86.66 249.00 C 83.79 249.01 80.93 249.00 78.07 249.00 C 78.03 249.75 77.97 251.26 77.93 252.02 C 72.64 251.99 67.36 251.99 62.07 252.02 C 62.03 251.26 61.97 249.74 61.93 248.99 C 60.31 248.99 58.69 249.01 57.07 249.03 C 57.03 248.27 56.97 246.75 56.93 245.99 C 52.42 246.02 47.92 245.97 43.41 246.03 C 43.06 245.32 42.35 243.90 41.99 243.19 C 41.64 243.90 40.94 245.32 40.59 246.03 C 37.75 245.99 34.91 246.00 32.07 246.00 C 32.03 246.75 31.97 248.27 31.93 249.02 C 30.31 249.01 28.69 249.00 27.07 248.99 C 27.03 249.74 26.97 251.26 26.93 252.01 C 26.22 252.01 24.78 252.02 24.06 252.03 C 24.04 251.28 23.99 249.78 23.97 249.03 C 23.28 249.02 21.91 249.00 21.22 249.00 C 21.48 246.66 19.78 245.60 17.93 244.70 C 18.16 242.73 17.08 239.75 20.00 239.57 C 20.00 237.74 19.99 235.90 19.98 234.07 C 20.74 234.03 22.25 233.97 23.01 233.93 C 23.21 229.21 22.34 224.34 23.82 219.76 C 24.25 216.21 23.91 212.63 24.00 209.06 C 23.33 209.05 21.99 209.01 21.32 208.99 C 20.98 207.59 20.59 206.17 19.28 205.36 C 18.73 203.64 19.07 201.77 18.96 200.00 C 16.53 199.92 14.04 200.27 11.64 199.77 C 10.88 198.38 9.43 197.99 8.00 197.65 C 8.00 194.77 8.00 191.88 8.00 189.00 C 9.85 189.00 11.71 189.00 13.56 189.00 C 13.73 186.12 16.65 187.15 18.60 187.00 C 19.06 185.97 19.54 184.96 20.04 183.95 M 20.37 186.34 C 17.02 188.74 13.04 189.97 8.97 190.37 C 9.00 192.40 8.77 194.48 9.34 196.46 C 12.06 199.22 16.10 199.02 19.67 199.22 C 19.92 200.94 20.09 202.69 20.56 204.37 C 21.44 206.97 25.12 207.99 25.03 210.99 C 25.44 218.87 23.53 226.65 23.85 234.55 C 23.25 234.78 22.05 235.24 21.46 235.47 C 21.11 238.10 20.09 240.54 19.15 243.00 C 21.07 245.86 23.69 248.16 25.84 250.84 C 25.99 250.23 26.28 249.00 26.43 248.39 C 27.77 248.12 29.12 247.86 30.47 247.60 C 30.72 247.01 31.22 245.84 31.47 245.25 C 35.10 245.19 38.86 245.02 42.01 242.98 C 46.60 246.14 52.34 244.68 57.53 245.13 C 57.78 245.75 58.28 246.98 58.53 247.60 C 59.84 247.86 61.15 248.13 62.46 248.40 C 62.71 249.01 63.21 250.22 63.46 250.82 C 67.82 251.15 72.19 251.14 76.55 250.85 C 76.77 250.18 77.23 248.86 77.45 248.20 C 80.10 248.08 82.80 248.17 85.40 247.57 C 86.45 246.64 86.66 245.12 87.29 243.92 C 89.33 243.38 91.39 242.95 93.46 242.55 C 93.74 242.03 94.29 240.98 94.57 240.46 C 95.85 240.15 97.14 239.84 98.42 239.53 C 98.71 239.01 99.28 237.97 99.57 237.45 C 100.86 237.16 102.16 236.87 103.46 236.59 C 103.72 235.97 104.23 234.72 104.49 234.10 C 105.83 234.09 107.18 234.09 108.52 234.10 C 108.89 235.12 109.27 236.16 109.64 237.19 C 109.84 236.42 110.22 234.87 110.41 234.09 C 116.27 234.02 122.14 233.79 128.00 234.03 C 130.27 234.05 131.82 235.94 133.53 237.17 C 133.76 236.41 134.21 234.88 134.43 234.12 C 136.63 234.11 138.84 234.14 141.04 233.97 C 143.79 233.81 146.20 232.16 148.96 232.01 C 152.16 231.86 155.38 232.01 158.59 231.94 C 159.24 227.71 161.00 223.74 161.39 219.47 C 162.02 219.23 163.28 218.75 163.91 218.51 C 163.89 217.51 163.87 216.51 163.86 215.52 C 163.28 215.24 162.11 214.69 161.53 214.41 C 160.82 211.94 160.16 209.35 158.46 207.35 C 155.35 206.71 152.15 206.98 149.00 206.97 C 131.65 207.09 114.30 206.89 96.96 207.07 C 94.71 207.05 92.26 207.11 90.39 205.64 C 85.57 202.34 80.40 198.79 74.30 198.85 C 74.09 200.43 73.88 202.02 73.68 203.61 C 73.03 203.75 71.74 204.04 71.10 204.18 C 73.25 205.93 75.37 207.71 77.48 209.50 C 79.63 211.95 82.67 214.15 82.21 217.82 C 79.62 217.95 77.03 218.07 74.45 218.18 C 74.22 218.86 73.78 220.22 73.56 220.90 C 72.10 220.94 70.64 220.99 69.19 221.04 C 69.06 219.03 68.95 217.02 68.83 215.02 C 68.15 215.02 66.77 215.01 66.09 215.01 C 66.05 218.52 65.98 222.03 65.84 225.55 C 65.22 225.78 63.97 226.25 63.34 226.49 C 63.14 227.93 62.93 229.37 62.73 230.82 C 60.30 230.95 57.88 231.07 55.45 231.19 C 55.23 231.86 54.78 233.19 54.55 233.85 C 49.81 234.12 45.06 234.12 40.32 233.91 C 40.10 232.14 39.97 230.35 39.51 228.63 C 37.90 227.40 36.05 226.54 34.40 225.39 C 33.33 219.48 34.44 213.42 33.85 207.46 C 33.22 207.22 31.95 206.75 31.32 206.51 C 31.11 204.83 30.89 203.16 30.69 201.48 C 30.04 201.25 28.74 200.79 28.09 200.56 C 28.04 198.39 28.00 196.22 27.96 194.05 C 30.99 194.02 34.01 194.02 37.04 194.02 C 34.02 191.30 30.70 188.94 27.75 186.13 C 25.83 183.97 22.42 184.77 20.37 186.34 Z" />
</g>
<g id="#000066ff">
<path fill="#000066" opacity="1.00" d=" M 777.32 10.95 C 779.89 11.70 782.54 12.10 785.21 12.39 C 784.84 13.82 784.47 15.26 784.07 16.68 C 779.64 17.90 778.66 22.77 775.40 25.40 C 773.03 27.42 771.08 29.95 768.39 31.55 C 765.13 32.24 761.77 32.02 758.47 32.17 C 758.22 32.78 757.72 33.99 757.47 34.59 C 756.15 34.87 754.84 35.14 753.55 35.41 C 753.29 35.98 752.78 37.10 752.52 37.66 C 747.32 37.62 742.65 40.41 737.45 40.30 C 737.23 40.90 736.77 42.10 736.55 42.70 C 733.98 42.83 731.41 43.10 729.00 44.03 C 725.63 45.34 721.97 45.07 718.44 45.13 C 718.22 45.81 717.78 47.18 717.56 47.87 C 713.70 48.09 709.84 48.11 705.99 47.92 C 706.01 47.26 706.05 45.94 706.06 45.29 C 707.53 45.07 709.01 44.85 710.49 44.63 C 710.75 44.10 711.27 43.04 711.53 42.51 C 715.21 41.64 718.78 40.38 722.44 39.47 C 722.72 38.97 723.28 37.96 723.56 37.46 C 724.84 37.15 726.13 36.85 727.43 36.54 C 727.71 36.03 728.27 35.02 728.55 34.51 C 732.51 33.53 736.94 32.83 739.82 29.63 C 741.00 29.23 742.20 28.85 743.41 28.47 C 743.70 27.97 744.29 26.97 744.58 26.47 C 745.86 26.16 747.14 25.85 748.44 25.54 C 748.71 25.01 749.25 23.96 749.52 23.43 C 751.08 23.13 752.64 22.83 754.21 22.48 C 757.66 18.84 763.38 18.35 766.32 13.99 C 767.79 14.14 769.28 14.30 770.76 14.47 C 770.94 13.99 771.30 13.03 771.47 12.54 C 773.42 12.03 775.37 11.51 777.32 10.95 Z" />
<path fill="#000066" opacity="1.00" d=" M 661.46 34.17 C 666.37 34.25 672.77 32.29 676.05 37.18 C 678.11 39.18 674.61 41.18 673.24 42.37 C 668.18 44.10 662.58 41.93 657.43 43.42 C 655.18 44.08 652.98 44.90 650.76 45.65 C 649.15 47.55 646.95 48.88 644.41 49.00 C 643.93 48.99 642.95 48.98 642.47 48.97 C 642.59 45.98 642.58 42.98 642.70 39.98 C 643.98 39.90 645.26 39.82 646.56 39.73 C 646.79 39.09 647.24 37.80 647.47 37.15 C 651.84 37.05 656.21 37.00 660.59 36.92 C 660.81 36.23 661.24 34.85 661.46 34.17 Z" />
<path fill="#000066" opacity="1.00" d=" M 20.37 186.34 C 22.42 184.77 25.83 183.97 27.75 186.13 C 30.70 188.94 34.02 191.30 37.04 194.02 C 34.01 194.02 30.99 194.02 27.96 194.05 C 28.00 196.22 28.04 198.39 28.09 200.56 C 28.74 200.79 30.04 201.25 30.69 201.48 C 30.89 203.16 31.11 204.83 31.32 206.51 C 31.95 206.75 33.22 207.22 33.85 207.46 C 34.44 213.42 33.33 219.48 34.40 225.39 C 36.05 226.54 37.90 227.40 39.51 228.63 C 39.97 230.35 40.10 232.14 40.32 233.91 C 45.06 234.12 49.81 234.12 54.55 233.85 C 54.78 233.19 55.23 231.86 55.45 231.19 C 57.88 231.07 60.30 230.95 62.73 230.82 C 62.93 229.37 63.14 227.93 63.34 226.49 C 63.97 226.25 65.22 225.78 65.84 225.55 C 65.98 222.03 66.05 218.52 66.09 215.01 C 66.77 215.01 68.15 215.02 68.83 215.02 C 68.95 217.02 69.06 219.03 69.19 221.04 C 70.64 220.99 72.10 220.94 73.56 220.90 C 73.78 220.22 74.22 218.86 74.45 218.18 C 77.03 218.07 79.62 217.95 82.21 217.82 C 82.67 214.15 79.63 211.95 77.48 209.50 C 75.37 207.71 73.25 205.93 71.10 204.18 C 71.74 204.04 73.03 203.75 73.68 203.61 C 73.88 202.02 74.09 200.43 74.30 198.85 C 80.40 198.79 85.57 202.34 90.39 205.64 C 92.26 207.11 94.71 207.05 96.96 207.07 C 114.30 206.89 131.65 207.09 149.00 206.97 C 152.15 206.98 155.35 206.71 158.46 207.35 C 160.16 209.35 160.82 211.94 161.53 214.41 C 162.11 214.69 163.28 215.24 163.86 215.52 C 163.87 216.51 163.89 217.51 163.91 218.51 C 163.28 218.75 162.02 219.23 161.39 219.47 C 161.00 223.74 159.24 227.71 158.59 231.94 C 155.38 232.01 152.16 231.86 148.96 232.01 C 146.20 232.16 143.79 233.81 141.04 233.97 C 138.84 234.14 136.63 234.11 134.43 234.12 C 134.21 234.88 133.76 236.41 133.53 237.17 C 131.82 235.94 130.27 234.05 128.00 234.03 C 122.14 233.79 116.27 234.02 110.41 234.09 C 110.22 234.87 109.84 236.42 109.64 237.19 C 109.27 236.16 108.89 235.12 108.52 234.10 C 107.18 234.09 105.83 234.09 104.49 234.10 C 104.23 234.72 103.72 235.97 103.46 236.59 C 102.16 236.87 100.86 237.16 99.57 237.45 C 99.28 237.97 98.71 239.01 98.42 239.53 C 97.14 239.84 95.85 240.15 94.57 240.46 C 94.29 240.98 93.74 242.03 93.46 242.55 C 91.39 242.95 89.33 243.38 87.29 243.92 C 86.66 245.12 86.45 246.64 85.40 247.57 C 82.80 248.17 80.10 248.08 77.45 248.20 C 77.23 248.86 76.77 250.18 76.55 250.85 C 72.19 251.14 67.82 251.15 63.46 250.82 C 63.21 250.22 62.71 249.01 62.46 248.40 C 61.15 248.13 59.84 247.86 58.53 247.60 C 58.28 246.98 57.78 245.75 57.53 245.13 C 52.34 244.68 46.60 246.14 42.01 242.98 C 38.86 245.02 35.10 245.19 31.47 245.25 C 31.22 245.84 30.72 247.01 30.47 247.60 C 29.12 247.86 27.77 248.12 26.43 248.39 C 26.28 249.00 25.99 250.23 25.84 250.84 C 23.69 248.16 21.07 245.86 19.15 243.00 C 20.09 240.54 21.11 238.10 21.46 235.47 C 22.05 235.24 23.25 234.78 23.85 234.55 C 23.53 226.65 25.44 218.87 25.03 210.99 C 25.12 207.99 21.44 206.97 20.56 204.37 C 20.09 202.69 19.92 200.94 19.67 199.22 C 16.10 199.02 12.06 199.22 9.34 196.46 C 8.77 194.48 9.00 192.40 8.97 190.37 C 13.04 189.97 17.02 188.74 20.37 186.34 Z" />
</g>
<g id="#0d0706ff">
<path fill="#0d0706" opacity="1.00" d=" M 660.04 32.98 C 665.02 33.00 669.99 33.01 674.98 32.97 C 674.99 33.72 675.02 35.22 675.03 35.97 C 675.78 35.98 677.27 36.02 678.02 36.04 C 678.00 37.68 678.00 39.32 678.02 40.96 C 677.27 40.98 675.78 41.02 675.03 41.03 C 675.02 41.78 674.99 43.28 674.98 44.03 C 669.11 44.02 663.24 43.93 657.38 44.05 C 657.19 44.54 656.79 45.52 656.59 46.01 C 654.74 46.01 652.90 46.00 651.07 46.00 C 651.04 46.76 650.98 48.27 650.95 49.03 C 649.32 49.01 647.69 49.00 646.07 49.00 C 646.04 49.76 645.99 51.27 645.96 52.03 C 643.99 52.01 642.03 52.00 640.07 52.00 C 640.04 52.75 639.99 54.27 639.96 55.02 C 636.87 55.21 633.62 54.54 630.65 55.35 C 629.78 56.56 628.39 57.00 627.02 57.33 C 627.00 58.01 626.97 59.35 626.95 60.03 C 625.32 60.01 623.69 60.00 622.07 59.99 C 622.04 60.75 621.99 62.26 621.96 63.02 C 616.30 62.99 610.65 63.01 604.99 63.00 C 604.98 61.13 604.98 59.26 605.00 57.39 C 607.21 56.90 608.72 55.06 610.97 54.65 C 610.98 54.05 611.00 52.84 611.01 52.23 C 613.28 52.43 614.36 50.84 615.18 48.97 C 616.43 48.98 617.67 49.00 618.93 49.00 C 618.95 48.33 618.99 46.99 619.01 46.32 C 621.26 45.95 622.71 44.01 624.97 43.66 C 624.99 42.99 625.03 41.65 625.05 40.98 C 626.55 40.99 628.06 41.00 629.57 41.00 C 629.77 40.51 630.18 39.52 630.38 39.03 C 635.56 38.90 640.75 39.05 645.94 39.00 C 645.96 38.25 646.01 36.74 646.04 35.98 C 650.67 36.00 655.30 35.99 659.94 36.00 C 659.96 35.25 660.01 33.74 660.04 32.98 M 661.46 34.17 C 661.24 34.85 660.81 36.23 660.59 36.92 C 656.21 37.00 651.84 37.05 647.47 37.15 C 647.24 37.80 646.79 39.09 646.56 39.73 C 645.26 39.82 643.98 39.90 642.70 39.98 C 641.13 39.95 639.40 39.88 639.71 41.99 C 639.54 41.46 639.19 40.42 639.02 39.90 C 636.23 39.93 633.43 40.09 630.73 40.80 L 631.66 41.04 C 629.92 41.40 628.22 41.89 626.51 42.35 L 626.56 43.00 C 625.41 45.55 622.26 46.50 619.81 47.48 C 620.14 48.38 620.48 49.27 620.84 50.17 C 619.36 50.08 617.89 50.01 616.43 49.96 C 616.05 50.40 615.28 51.28 614.90 51.72 C 619.76 51.36 624.62 51.97 629.48 51.72 C 626.71 50.94 623.78 51.29 621.01 50.52 C 623.08 50.09 625.22 50.15 627.33 50.10 C 626.99 47.93 626.66 45.75 626.61 43.55 C 627.42 45.93 628.29 48.36 629.68 50.48 C 632.61 52.65 637.01 51.71 639.41 49.15 C 639.22 49.63 638.84 50.58 638.66 51.06 C 640.90 50.99 643.15 50.98 645.41 50.89 C 645.16 50.41 644.66 49.47 644.41 49.00 C 646.95 48.88 649.15 47.55 650.76 45.65 C 652.98 44.90 655.18 44.08 657.43 43.42 C 662.58 41.93 668.18 44.10 673.24 42.37 C 674.61 41.18 678.11 39.18 676.05 37.18 C 672.77 32.29 666.37 34.25 661.46 34.17 M 638.66 51.06 C 638.22 51.73 638.22 51.73 638.66 51.06 M 612.22 53.22 C 612.09 53.78 611.84 54.91 611.71 55.47 C 615.09 55.22 618.47 54.92 621.81 54.26 C 621.35 56.45 622.78 58.14 624.98 58.31 C 626.54 57.03 627.94 55.55 629.56 54.32 C 632.65 53.65 635.86 54.06 639.01 53.98 L 638.98 52.95 C 630.07 53.17 621.11 52.41 612.22 53.22 M 608.84 57.95 C 610.22 58.26 610.76 57.72 610.46 56.32 C 609.11 55.97 608.57 56.51 608.84 57.95 M 612.24 57.27 C 610.14 58.89 607.87 60.26 605.60 61.63 C 608.70 61.94 611.84 62.08 614.97 61.82 C 616.02 63.59 619.13 61.03 617.07 59.96 C 617.78 59.93 619.20 59.86 619.90 59.83 C 619.79 60.49 619.56 61.80 619.45 62.46 C 621.06 61.32 621.63 59.30 622.89 57.82 C 621.14 58.30 619.40 58.77 617.64 59.15 C 618.47 58.00 619.36 56.89 620.25 55.77 C 617.57 56.06 614.50 55.45 612.24 57.27 M 606.71 58.92 C 607.94 59.68 608.65 59.35 608.84 57.95 C 607.55 57.25 606.84 57.58 606.71 58.92 Z" />
</g>
<g id="#09792eff">
<path fill="#09792e" opacity="1.00" d=" M 630.73 40.80 C 633.43 40.09 636.23 39.93 639.02 39.90 C 639.19 40.42 639.54 41.46 639.71 41.99 C 639.74 42.32 639.80 42.99 639.83 43.33 C 637.11 42.52 634.41 41.69 631.66 41.04 L 630.73 40.80 Z" />
</g>
<g id="#073163ff">
<path fill="#073163" opacity="1.00" d=" M 631.66 41.04 C 634.41 41.69 637.11 42.52 639.83 43.33 C 639.96 45.27 640.30 47.33 639.41 49.15 C 637.01 51.71 632.61 52.65 629.68 50.48 C 628.29 48.36 627.42 45.93 626.61 43.55 L 626.56 43.00 L 626.51 42.35 C 628.22 41.89 629.92 41.40 631.66 41.04 Z" />
</g>
<g id="#9e9e9eff">
<path fill="#9e9e9e" opacity="1.00" d=" M 638.66 51.06 C 638.22 51.73 638.22 51.73 638.66 51.06 Z" />
</g>
<g id="#db161cff">
<path fill="#db161c" opacity="1.00" d=" M 612.22 53.22 C 621.11 52.41 630.07 53.17 638.98 52.95 L 639.01 53.98 C 635.86 54.06 632.65 53.65 629.56 54.32 C 627.94 55.55 626.54 57.03 624.98 58.31 C 622.78 58.14 621.35 56.45 621.81 54.26 C 618.47 54.92 615.09 55.22 611.71 55.47 C 611.84 54.91 612.09 53.78 612.22 53.22 Z" />
</g>
<g id="#d8151bff">
<path fill="#d8151b" opacity="1.00" d=" M 608.84 57.95 C 608.57 56.51 609.11 55.97 610.46 56.32 C 610.76 57.72 610.22 58.26 608.84 57.95 Z" />
</g>
<g id="#f9d050ff">
<path fill="#f9d050" opacity="1.00" d=" M 612.24 57.27 C 614.50 55.45 617.57 56.06 620.25 55.77 C 619.36 56.89 618.47 58.00 617.64 59.15 C 619.40 58.77 621.14 58.30 622.89 57.82 C 621.63 59.30 621.06 61.32 619.45 62.46 C 619.56 61.80 619.79 60.49 619.90 59.83 C 619.20 59.86 617.78 59.93 617.07 59.96 C 615.78 59.91 615.08 60.53 614.97 61.82 C 611.84 62.08 608.70 61.94 605.60 61.63 C 607.87 60.26 610.14 58.89 612.24 57.27 Z" />
</g>
<g id="#da161cff">
<path fill="#da161c" opacity="1.00" d=" M 606.71 58.92 C 606.84 57.58 607.55 57.25 608.84 57.95 C 608.65 59.35 607.94 59.68 606.71 58.92 Z" />
</g>
<g id="#816c29ff">
<path fill="#816c29" opacity="1.00" d=" M 614.97 61.82 C 615.08 60.53 615.78 59.91 617.07 59.96 C 619.13 61.03 616.02 63.59 614.97 61.82 Z" />
</g>
</svg>
