<?xml version="1.0" encoding="UTF-8" ?>
<!DOCTYPE svg PUBLIC "-//W3C//DTD SVG 1.1//EN" "http://www.w3.org/Graphics/SVG/1.1/DTD/svg11.dtd">
<svg width="503pt" height="637pt" viewBox="0 0 503 637" version="1.1" xmlns="http://www.w3.org/2000/svg">
<g id="#ffffffff">
<path fill="#ffffff" opacity="1.00" d=" M 362.35 3.20 C 364.15 3.12 365.96 3.11 367.77 3.13 C 368.30 5.05 368.71 7.00 369.22 8.92 C 372.76 9.67 376.39 10.04 380.00 9.52 C 379.99 11.00 379.99 12.48 380.00 13.97 C 379.53 14.34 378.58 15.09 378.10 15.46 C 373.12 13.79 368.33 16.62 363.45 17.27 C 363.27 19.42 362.93 21.60 363.29 23.75 C 364.02 25.29 367.48 24.49 366.84 26.57 C 357.23 34.34 347.36 42.26 335.58 46.48 C 327.37 48.91 318.67 49.03 310.18 48.67 C 309.85 48.53 309.18 48.24 308.84 48.09 C 310.33 36.67 316.91 25.88 326.39 19.31 C 330.54 17.62 336.17 16.50 337.64 11.58 C 338.21 9.46 339.88 5.98 342.59 7.46 C 341.67 11.38 340.69 15.30 340.13 19.30 C 344.50 20.12 349.07 19.39 353.08 17.53 C 353.23 14.45 353.78 11.40 354.02 8.33 C 356.77 7.57 359.50 6.75 362.23 5.93 C 362.26 5.25 362.32 3.88 362.35 3.20 Z" />
<path fill="#ffffff" opacity="1.00" d=" M 120.05 236.39 C 122.34 234.99 124.96 234.89 127.57 235.15 C 126.97 243.09 128.71 251.11 126.82 258.94 C 126.09 262.04 124.36 264.86 122.04 267.04 C 117.67 271.20 110.92 271.35 106.61 275.62 C 103.87 278.08 103.25 282.06 103.43 285.55 C 105.97 285.69 109.05 285.10 110.89 287.35 C 112.69 288.29 111.25 290.34 110.10 291.05 C 108.57 292.14 106.62 292.01 104.84 292.25 C 104.13 301.72 107.42 310.75 108.85 319.98 C 109.49 323.96 109.20 328.09 107.65 331.84 C 102.19 332.32 98.36 327.26 97.95 322.26 C 93.03 323.56 90.65 330.42 84.97 329.75 C 82.41 329.75 81.70 327.01 80.70 325.19 C 76.82 323.37 72.44 323.61 68.30 324.10 C 64.52 325.90 61.15 328.71 56.96 329.51 C 52.23 330.50 47.16 329.69 43.03 327.17 C 38.34 324.34 33.51 321.36 27.97 320.65 C 20.73 320.00 13.63 323.16 6.40 321.56 C 5.09 321.10 3.35 320.54 3.02 319.00 C 2.22 314.28 4.00 309.54 6.70 305.73 C 8.85 307.92 12.22 310.09 15.20 308.04 C 19.66 304.77 20.24 298.32 18.82 293.35 C 16.98 289.41 13.90 286.39 10.77 283.48 C 18.43 282.30 26.32 284.05 33.91 282.26 C 36.49 281.88 37.85 279.38 39.92 278.07 C 42.42 277.36 44.70 278.91 46.88 279.86 C 47.55 277.30 48.59 274.86 49.48 272.38 C 51.75 272.35 54.16 272.39 56.21 271.24 C 60.03 269.44 61.00 264.49 64.87 262.79 C 66.52 261.89 68.44 262.29 70.22 262.36 C 69.46 258.33 70.52 253.67 74.32 251.51 C 82.45 247.43 91.84 249.09 100.57 248.75 C 98.13 244.84 95.55 240.84 94.92 236.17 C 103.31 235.50 111.68 236.93 120.05 236.39 Z" />
<path fill="#ffffff" opacity="1.00" d=" M 163.24 273.67 C 160.78 271.10 160.25 266.96 162.83 264.27 C 168.77 267.45 172.94 274.07 172.00 280.93 C 170.73 281.26 169.45 281.55 168.17 281.87 C 166.37 279.23 165.50 276.02 163.24 273.67 Z" />
<path fill="#ffffff" opacity="1.00" d=" M 160.06 285.24 C 160.72 285.23 162.04 285.20 162.71 285.19 C 163.13 285.69 163.98 286.70 164.41 287.21 C 163.64 289.12 162.26 290.36 160.09 289.98 C 159.25 288.45 159.02 286.74 160.06 285.24 Z" />
<path fill="#ffffff" opacity="1.00" d=" M 214.97 307.16 C 218.58 307.16 222.15 307.80 225.67 308.57 C 227.11 310.66 229.36 311.82 231.60 312.87 C 229.42 313.02 227.26 313.23 225.10 313.44 C 225.08 315.53 225.08 317.63 225.12 319.72 C 228.21 319.91 231.46 319.71 234.37 320.93 C 234.43 323.61 233.63 326.21 232.69 328.69 C 228.43 330.91 222.24 330.98 220.08 335.98 C 217.25 340.73 219.36 347.72 214.90 351.43 C 212.66 350.39 210.79 348.39 210.31 345.92 C 211.03 341.79 215.15 339.60 216.88 336.02 C 217.45 333.45 217.59 330.42 215.83 328.26 C 214.04 326.24 211.76 324.77 209.72 323.03 C 213.03 321.41 217.10 321.21 220.05 319.06 C 218.09 315.23 213.88 311.94 214.97 307.16 Z" />
<path fill="#ffffff" opacity="1.00" d=" M 492.40 469.44 C 494.47 467.84 497.10 467.41 499.60 468.18 C 499.96 468.90 500.69 470.34 501.05 471.07 C 500.08 473.41 498.43 475.31 496.48 476.90 C 496.88 477.52 497.68 478.74 498.08 479.35 C 495.20 478.19 494.14 474.77 491.10 473.74 C 491.53 472.30 491.98 470.87 492.40 469.44 Z" />
<path fill="#ffffff" opacity="1.00" d=" M 478.60 471.12 C 479.37 472.19 481.11 473.03 480.60 474.59 C 478.74 475.72 477.38 473.78 476.20 472.64 C 476.80 472.26 478.00 471.50 478.60 471.12 Z" />
<path fill="#ffffff" opacity="1.00" d=" M 472.09 482.92 C 473.85 481.62 475.83 480.51 477.95 479.88 C 480.93 480.42 481.85 483.89 483.31 486.15 C 482.96 486.79 482.26 488.07 481.91 488.70 C 479.54 487.53 477.30 486.10 474.84 485.13 C 473.85 484.58 472.00 484.44 472.09 482.92 Z" />
<path fill="#ffffff" opacity="1.00" d=" M 300.83 517.67 C 300.97 515.67 300.93 513.20 303.43 512.85 C 304.58 515.45 304.26 519.79 307.85 520.27 C 312.31 521.84 313.12 527.90 317.86 529.09 C 320.19 530.26 322.70 529.00 325.09 528.75 C 330.74 527.62 335.53 534.33 341.13 531.27 C 344.61 530.18 344.39 525.15 348.05 524.37 C 351.92 523.83 355.65 525.61 359.19 526.93 C 364.57 528.97 370.14 530.46 375.60 532.25 C 378.49 534.05 381.22 536.90 384.98 536.10 C 387.36 536.47 388.87 534.48 390.52 533.18 C 391.92 533.43 393.28 533.85 394.68 534.15 C 400.53 536.92 400.17 545.21 406.12 547.76 C 412.80 550.41 419.42 545.87 426.16 546.17 C 432.35 546.68 433.42 554.72 439.46 555.75 C 446.90 556.85 449.62 565.49 449.17 572.00 C 449.30 574.80 446.02 576.10 443.83 574.69 C 443.56 577.61 444.07 580.62 445.98 582.94 C 447.72 585.40 450.95 588.11 449.36 591.45 C 447.00 596.74 440.34 596.72 435.78 599.06 C 435.03 608.54 438.05 617.64 439.08 626.96 C 439.07 629.57 439.79 632.74 438.06 634.95 C 433.49 635.09 429.47 632.37 425.06 631.56 C 416.24 629.24 407.65 634.06 398.79 633.05 C 395.18 630.18 393.71 625.68 391.77 621.69 C 390.27 621.81 388.77 621.94 387.27 622.05 C 386.95 619.42 385.91 616.94 384.25 614.89 C 377.63 606.67 369.15 599.55 358.96 596.31 C 354.30 594.98 348.99 596.11 345.30 599.25 C 341.75 602.85 339.21 607.85 339.71 613.02 C 339.89 616.90 342.19 620.27 342.73 624.09 C 343.42 626.38 340.43 626.16 339.00 626.10 C 336.38 626.25 334.50 624.01 334.73 621.46 C 330.92 621.75 327.16 622.35 323.45 623.21 C 324.18 619.16 324.15 615.03 324.06 610.93 C 322.17 610.92 320.27 610.95 318.38 611.04 C 314.48 612.88 311.44 616.58 307.00 617.17 C 303.03 616.73 299.63 614.44 295.99 613.01 C 291.44 610.94 286.00 611.01 282.01 607.73 C 287.06 600.84 296.88 598.90 300.98 591.02 C 304.63 583.12 303.06 573.99 300.53 565.99 C 297.64 557.54 293.75 549.41 288.78 541.98 C 286.42 537.94 283.40 533.78 283.77 528.85 C 285.07 525.44 289.39 525.32 292.23 523.81 C 292.11 522.27 292.03 520.74 291.97 519.21 C 294.97 519.03 297.93 518.48 300.83 517.67 Z" />
</g>
<g id="#0b0b0bff">
<path fill="#0b0b0b" opacity="1.00" d=" M 361.26 1.63 C 364.07 0.95 366.95 1.32 369.76 1.84 C 369.94 3.69 370.12 5.53 370.37 7.37 C 373.76 7.99 377.37 8.50 380.65 7.08 C 382.22 10.22 382.77 14.44 379.68 16.86 C 374.87 16.83 369.44 16.59 365.27 19.21 C 363.41 23.11 368.18 24.08 370.79 25.28 C 365.12 30.18 359.61 35.36 353.17 39.24 C 347.73 42.64 342.42 46.54 336.14 48.22 C 326.77 51.13 316.86 50.01 307.22 50.03 C 306.51 44.65 308.54 39.51 311.01 34.85 C 314.85 27.33 320.22 19.56 328.53 16.65 C 330.66 15.84 332.68 14.78 334.68 13.69 C 335.95 11.46 336.69 9.00 337.73 6.67 C 339.79 5.28 342.44 5.17 344.70 6.17 C 343.99 10.16 343.11 14.12 342.34 18.10 C 345.28 18.04 348.16 17.49 351.00 16.76 C 351.30 13.60 351.79 10.46 351.82 7.29 C 354.53 6.42 357.24 5.58 359.97 4.76 C 360.40 3.72 360.83 2.68 361.26 1.63 M 362.35 3.20 C 362.32 3.88 362.26 5.25 362.23 5.93 C 359.50 6.75 356.77 7.57 354.02 8.33 C 353.78 11.40 353.23 14.45 353.08 17.53 C 349.07 19.39 344.50 20.12 340.13 19.30 C 340.69 15.30 341.67 11.38 342.59 7.46 C 339.88 5.98 338.21 9.46 337.64 11.58 C 336.17 16.50 330.54 17.62 326.39 19.31 C 316.91 25.88 310.33 36.67 308.84 48.09 C 309.18 48.24 309.85 48.53 310.18 48.67 C 318.67 49.03 327.37 48.91 335.58 46.48 C 347.36 42.26 357.23 34.34 366.84 26.57 C 367.48 24.49 364.02 25.29 363.29 23.75 C 362.93 21.60 363.27 19.42 363.45 17.27 C 368.33 16.62 373.12 13.79 378.10 15.46 C 378.58 15.09 379.53 14.34 380.00 13.97 C 379.99 12.48 379.99 11.00 380.00 9.52 C 376.39 10.04 372.76 9.67 369.22 8.92 C 368.71 7.00 368.30 5.05 367.77 3.13 C 365.96 3.11 364.15 3.12 362.35 3.20 Z" />
</g>
<g id="#000000ff">
<path fill="#000000" opacity="1.00" d=" M 122.13 233.62 C 124.43 233.57 126.76 233.62 128.79 232.40 C 129.40 237.93 128.80 243.50 129.25 249.04 C 129.53 255.15 128.94 261.89 124.77 266.72 C 120.31 272.24 112.48 272.74 107.35 277.38 C 105.62 279.03 105.14 281.47 104.81 283.73 C 108.50 283.44 112.86 284.54 113.65 288.74 C 113.37 289.47 112.80 290.93 112.51 291.67 C 110.52 292.87 108.32 293.65 106.11 294.35 C 106.39 305.82 112.17 316.57 110.72 328.15 C 110.46 330.37 109.90 333.73 106.90 333.33 C 101.68 334.19 97.89 329.40 96.40 324.99 C 92.97 328.11 89.18 333.00 83.93 331.60 C 81.24 331.15 80.45 328.26 79.09 326.29 C 76.49 325.56 73.80 324.82 71.07 325.21 C 66.14 326.31 62.52 330.37 57.55 331.41 C 52.17 332.48 46.27 331.85 41.71 328.59 C 36.62 324.85 30.53 321.81 24.04 322.47 C 20.89 322.95 17.52 322.66 14.65 324.29 C 10.24 323.99 5.65 323.63 1.71 321.41 C -0.70 314.76 2.90 308.23 6.32 302.70 C 7.97 304.51 9.74 306.45 12.24 307.02 C 17.06 306.11 18.46 300.23 17.82 296.06 C 16.40 289.88 10.49 286.62 6.65 282.08 C 15.44 281.33 24.27 281.80 33.04 280.86 C 35.65 280.35 37.09 277.85 39.17 276.45 C 41.17 275.09 43.42 276.52 45.43 277.03 C 46.84 275.00 47.69 272.66 48.25 270.28 C 50.64 271.51 53.41 270.83 55.63 269.60 C 58.39 267.67 59.81 264.48 62.25 262.23 C 63.80 260.57 66.30 260.93 68.31 260.29 C 68.44 256.23 69.77 251.60 73.78 249.77 C 81.12 246.34 89.47 247.01 97.35 247.08 C 95.27 243.26 93.30 239.24 93.36 234.78 C 101.59 234.06 109.81 235.12 118.05 234.93 C 119.58 235.12 120.64 233.60 122.13 233.62 M 120.05 236.39 C 111.68 236.93 103.31 235.50 94.92 236.17 C 95.55 240.84 98.13 244.84 100.57 248.75 C 91.84 249.09 82.45 247.43 74.32 251.51 C 70.52 253.67 69.46 258.33 70.22 262.36 C 68.44 262.29 66.52 261.89 64.87 262.79 C 61.00 264.49 60.03 269.44 56.21 271.24 C 54.16 272.39 51.75 272.35 49.48 272.38 C 48.59 274.86 47.55 277.30 46.88 279.86 C 44.70 278.91 42.42 277.36 39.92 278.07 C 37.85 279.38 36.49 281.88 33.91 282.26 C 26.32 284.05 18.43 282.30 10.77 283.48 C 13.90 286.39 16.98 289.41 18.82 293.35 C 20.24 298.32 19.66 304.77 15.20 308.04 C 12.22 310.09 8.85 307.92 6.70 305.73 C 4.00 309.54 2.22 314.28 3.02 319.00 C 3.35 320.54 5.09 321.10 6.40 321.56 C 13.63 323.16 20.73 320.00 27.97 320.65 C 33.51 321.36 38.34 324.34 43.03 327.17 C 47.16 329.69 52.23 330.50 56.96 329.51 C 61.15 328.71 64.52 325.90 68.30 324.10 C 72.44 323.61 76.82 323.37 80.70 325.19 C 81.70 327.01 82.41 329.75 84.97 329.75 C 90.65 330.42 93.03 323.56 97.95 322.26 C 98.36 327.26 102.19 332.32 107.65 331.84 C 109.20 328.09 109.49 323.96 108.85 319.98 C 107.42 310.75 104.13 301.72 104.84 292.25 C 106.62 292.01 108.57 292.14 110.10 291.05 C 111.25 290.34 112.69 288.29 110.89 287.35 C 109.05 285.10 105.97 285.69 103.43 285.55 C 103.25 282.06 103.87 278.08 106.61 275.62 C 110.92 271.35 117.67 271.20 122.04 267.04 C 124.36 264.86 126.09 262.04 126.82 258.94 C 128.71 251.11 126.97 243.09 127.57 235.15 C 124.96 234.89 122.34 234.99 120.05 236.39 Z" />
<path fill="#000000" opacity="1.00" d=" M 162.51 262.51 C 169.55 264.37 173.61 272.28 173.91 279.14 C 173.89 283.54 168.30 284.03 165.28 282.21 C 165.15 278.16 161.81 275.42 159.98 272.08 C 159.89 268.86 158.98 264.25 162.51 262.51 M 163.24 273.67 C 165.50 276.02 166.37 279.23 168.17 281.87 C 169.45 281.55 170.73 281.26 172.00 280.93 C 172.94 274.07 168.77 267.45 162.83 264.27 C 160.25 266.96 160.78 271.10 163.24 273.67 Z" />
<path fill="#000000" opacity="1.00" d=" M 157.92 285.94 C 158.79 281.55 166.08 282.69 165.85 287.12 C 166.51 289.81 163.73 291.07 161.87 292.21 C 159.33 291.24 156.51 289.01 157.92 285.94 M 160.06 285.24 C 159.02 286.74 159.25 288.45 160.09 289.98 C 162.26 290.36 163.64 289.12 164.41 287.21 C 163.98 286.70 163.13 285.69 162.71 285.19 C 162.04 285.20 160.72 285.23 160.06 285.24 Z" />
<path fill="#000000" opacity="1.00" d=" M 213.01 310.00 C 212.03 307.04 215.32 304.62 218.02 305.31 C 220.70 305.82 223.50 305.91 226.08 306.83 C 228.32 308.64 230.34 310.95 233.43 311.22 C 233.43 312.52 233.12 313.73 232.18 314.68 C 230.39 314.68 228.62 314.87 226.85 315.07 C 226.92 315.79 227.04 317.24 227.11 317.96 C 229.99 318.14 232.88 318.38 235.76 318.62 C 236.32 322.48 236.00 326.76 233.76 330.07 C 230.65 332.69 225.94 332.16 222.95 334.92 C 219.57 339.60 220.71 345.92 218.01 350.92 C 217.29 351.92 216.49 353.54 215.01 353.34 C 211.90 352.65 209.64 349.93 208.51 347.08 C 207.67 343.33 210.90 340.58 213.24 338.19 C 215.91 335.92 216.76 331.45 214.10 328.84 C 211.58 326.73 208.71 324.97 206.94 322.10 C 210.29 320.46 214.25 320.00 217.28 317.82 C 215.43 315.48 213.97 312.82 213.01 310.00 M 214.97 307.16 C 213.88 311.94 218.09 315.23 220.05 319.06 C 217.10 321.21 213.03 321.41 209.72 323.03 C 211.76 324.77 214.04 326.24 215.83 328.26 C 217.59 330.42 217.45 333.45 216.88 336.02 C 215.15 339.60 211.03 341.79 210.31 345.92 C 210.79 348.39 212.66 350.39 214.90 351.43 C 219.36 347.72 217.25 340.73 220.08 335.98 C 222.24 330.98 228.43 330.91 232.69 328.69 C 233.63 326.21 234.43 323.61 234.37 320.93 C 231.46 319.71 228.21 319.91 225.12 319.72 C 225.08 317.63 225.08 315.53 225.10 313.44 C 227.26 313.23 229.42 313.02 231.60 312.87 C 229.36 311.82 227.11 310.66 225.67 308.57 C 222.15 307.80 218.58 307.16 214.97 307.16 Z" />
<path fill="#000000" opacity="1.00" d=" M 491.06 468.14 C 493.76 466.59 497.13 464.85 500.13 466.75 C 504.12 469.15 502.11 475.09 498.87 477.30 C 499.62 478.19 500.38 479.08 501.13 479.99 C 499.80 480.34 498.46 480.56 497.10 480.67 C 494.56 480.26 493.55 477.66 491.90 476.03 C 491.17 475.94 489.71 475.77 488.98 475.69 C 489.69 473.17 490.24 470.62 491.06 468.14 M 492.40 469.44 C 491.98 470.87 491.53 472.30 491.10 473.74 C 494.14 474.77 495.20 478.19 498.08 479.35 C 497.68 478.74 496.88 477.52 496.48 476.90 C 498.43 475.31 500.08 473.41 501.05 471.07 C 500.69 470.34 499.96 468.90 499.60 468.18 C 497.10 467.41 494.47 467.84 492.40 469.44 Z" />
<path fill="#000000" opacity="1.00" d=" M 474.27 472.95 C 475.04 470.19 477.74 469.73 480.23 469.74 C 482.42 471.67 482.50 474.46 481.78 477.12 C 479.88 476.92 478.05 476.38 476.28 475.71 C 475.61 474.78 474.95 473.86 474.27 472.95 M 478.60 471.12 C 478.00 471.50 476.80 472.26 476.20 472.64 C 477.38 473.78 478.74 475.72 480.60 474.59 C 481.11 473.03 479.37 472.19 478.60 471.12 Z" />
<path fill="#000000" opacity="1.00" d=" M 476.38 478.39 C 478.02 477.20 480.02 478.51 481.26 479.67 C 483.36 481.85 485.52 484.74 484.69 487.97 C 483.78 489.42 481.93 490.85 480.20 489.77 C 477.48 488.38 474.74 487.02 471.82 486.08 C 469.84 485.29 470.67 482.71 470.79 481.10 C 472.64 480.18 474.58 479.44 476.38 478.39 M 472.09 482.92 C 472.00 484.44 473.85 484.58 474.84 485.13 C 477.30 486.10 479.54 487.53 481.91 488.70 C 482.26 488.07 482.96 486.79 483.31 486.15 C 481.85 483.89 480.93 480.42 477.95 479.88 C 475.83 480.51 473.85 481.62 472.09 482.92 Z" />
</g>
<g id="#0f0f0fff">
<path fill="#0f0f0f" opacity="1.00" d=" M 299.77 512.22 C 301.28 511.86 302.77 511.37 304.27 510.93 C 305.57 513.26 306.01 516.00 307.59 518.19 C 312.43 518.95 313.54 524.42 317.32 526.75 C 321.03 528.49 325.09 525.85 328.93 526.97 C 332.80 527.79 336.34 531.27 340.49 529.53 C 342.98 527.88 343.47 524.36 346.28 522.96 C 349.35 522.88 352.55 522.52 355.50 523.61 C 361.32 525.66 367.24 527.39 373.07 529.38 C 377.98 530.65 381.94 536.47 387.45 533.78 C 388.07 532.62 389.07 531.81 390.10 531.05 C 392.92 532.01 396.10 532.48 398.30 534.68 C 402.18 537.75 402.08 544.09 406.98 546.12 C 410.15 547.86 413.77 546.41 417.04 545.79 C 420.97 544.73 425.10 544.39 429.13 545.07 C 432.27 545.94 433.67 549.16 435.70 551.41 C 438.80 555.09 445.00 554.12 447.49 558.52 C 449.61 562.65 451.85 567.16 451.39 571.95 C 451.26 574.20 449.46 575.66 447.79 576.88 C 447.08 576.96 445.67 577.13 444.97 577.21 C 446.35 582.45 453.04 585.55 451.56 591.56 C 449.51 597.77 442.38 598.17 437.23 600.30 C 437.02 611.03 441.61 621.22 441.17 631.96 C 440.95 633.43 440.88 636.05 438.80 636.02 C 433.63 637.28 429.06 634.02 424.15 633.13 C 418.49 632.57 412.77 632.96 407.27 634.40 C 403.16 635.53 397.98 635.64 395.02 632.05 C 393.14 629.41 391.99 626.34 390.69 623.39 C 388.94 623.59 387.18 623.78 385.45 624.02 C 385.34 616.91 379.52 611.74 374.50 607.49 C 368.59 602.87 362.09 597.21 354.06 597.85 C 348.11 597.48 343.70 602.81 342.23 608.09 C 339.59 614.77 346.28 620.88 343.99 627.64 C 341.27 627.91 338.31 628.70 335.77 627.29 C 334.40 626.26 333.78 624.59 332.70 623.31 C 329.05 623.55 325.52 624.82 321.85 624.97 C 321.63 620.71 322.52 616.52 322.62 612.29 C 317.02 612.07 313.88 617.59 308.81 618.81 C 303.80 619.86 299.49 616.63 295.15 614.72 C 290.76 612.43 285.35 612.62 281.35 609.50 C 280.25 607.58 280.86 604.96 282.75 603.75 C 289.04 598.92 297.60 595.60 300.50 587.57 C 303.57 575.98 298.07 564.79 293.77 554.33 C 290.15 545.12 280.72 537.91 281.98 527.15 C 284.13 524.80 287.16 523.77 290.09 522.77 C 290.04 520.99 290.00 519.21 289.99 517.44 C 292.95 517.17 296.01 517.04 298.79 515.88 C 299.91 514.97 299.66 513.48 299.77 512.22 M 300.83 517.67 C 297.93 518.48 294.97 519.03 291.97 519.21 C 292.03 520.74 292.11 522.27 292.23 523.81 C 289.39 525.32 285.07 525.44 283.77 528.85 C 283.40 533.78 286.42 537.94 288.78 541.98 C 293.75 549.41 297.64 557.54 300.53 565.99 C 303.06 573.99 304.63 583.12 300.98 591.02 C 296.88 598.90 287.06 600.84 282.01 607.73 C 286.00 611.01 291.44 610.94 295.99 613.01 C 299.63 614.44 303.03 616.73 307.00 617.17 C 311.44 616.58 314.48 612.88 318.38 611.04 C 320.27 610.95 322.17 610.92 324.06 610.93 C 324.15 615.03 324.18 619.16 323.45 623.21 C 327.16 622.35 330.92 621.75 334.73 621.46 C 334.50 624.01 336.38 626.25 339.00 626.10 C 340.43 626.16 343.42 626.38 342.73 624.09 C 342.19 620.27 339.89 616.90 339.71 613.02 C 339.21 607.85 341.75 602.85 345.30 599.25 C 348.99 596.11 354.30 594.98 358.96 596.31 C 369.15 599.55 377.63 606.67 384.25 614.89 C 385.91 616.94 386.95 619.42 387.27 622.05 C 388.77 621.94 390.27 621.81 391.77 621.69 C 393.71 625.68 395.18 630.18 398.79 633.05 C 407.65 634.06 416.24 629.24 425.06 631.56 C 429.47 632.37 433.49 635.09 438.06 634.95 C 439.79 632.74 439.07 629.57 439.08 626.96 C 438.05 617.64 435.03 608.54 435.78 599.06 C 440.34 596.72 447.00 596.74 449.36 591.45 C 450.95 588.11 447.72 585.40 445.98 582.94 C 444.07 580.62 443.56 577.61 443.83 574.69 C 446.02 576.10 449.30 574.80 449.17 572.00 C 449.62 565.49 446.90 556.85 439.46 555.75 C 433.42 554.72 432.35 546.68 426.16 546.17 C 419.42 545.87 412.80 550.41 406.12 547.76 C 400.17 545.21 400.53 536.92 394.68 534.15 C 393.28 533.85 391.92 533.43 390.52 533.18 C 388.87 534.48 387.36 536.47 384.98 536.10 C 381.22 536.90 378.49 534.05 375.60 532.25 C 370.14 530.46 364.57 528.97 359.19 526.93 C 355.65 525.61 351.92 523.83 348.05 524.37 C 344.39 525.15 344.61 530.18 341.13 531.27 C 335.53 534.33 330.74 527.62 325.09 528.75 C 322.70 529.00 320.19 530.26 317.86 529.09 C 313.12 527.90 312.31 521.84 307.85 520.27 C 304.26 519.79 304.58 515.45 303.43 512.85 C 300.93 513.20 300.97 515.67 300.83 517.67 Z" />
</g>
</svg>
