<?xml version="1.0" encoding="UTF-8" ?>
<!DOCTYPE svg PUBLIC "-//W3C//DTD SVG 1.1//EN" "http://www.w3.org/Graphics/SVG/1.1/DTD/svg11.dtd">
<svg width="2000pt" height="1588pt" viewBox="0 0 2000 1588" version="1.1" xmlns="http://www.w3.org/2000/svg">
<g id="#ffc61eff">
<path fill="#ffc61e" opacity="1.00" d=" M 164.99 7.50 C 169.50 6.95 171.92 2.41 175.89 0.74 C 180.91 0.27 185.96 0.48 191.00 0.22 C 194.29 0.22 197.73 -0.42 200.87 0.89 C 208.68 3.79 216.40 6.94 224.16 9.96 C 228.30 12.04 232.68 8.56 236.94 9.77 C 241.87 10.99 246.89 11.93 251.72 13.53 C 253.67 15.48 255.17 17.90 256.30 20.41 C 257.32 24.53 257.15 28.84 258.15 32.97 C 259.38 35.34 261.66 37.11 262.34 39.78 C 263.56 43.46 263.87 47.56 266.26 50.76 C 269.82 55.86 273.34 60.98 276.92 66.06 C 280.31 70.31 280.48 75.97 282.01 80.99 C 283.87 87.19 282.46 93.72 283.12 100.06 C 284.10 103.85 286.04 107.30 287.45 110.94 C 284.17 118.52 280.72 126.02 277.55 133.64 C 274.53 143.20 273.11 153.19 270.49 162.86 C 268.27 167.56 263.99 171.03 262.01 175.87 C 260.91 179.78 259.55 183.88 260.47 187.98 C 261.67 194.82 262.49 201.72 263.78 208.53 C 266.25 216.54 270.06 224.08 272.56 232.08 C 271.29 241.46 268.71 250.65 267.44 260.04 C 267.56 269.36 268.71 278.66 268.80 287.99 C 268.35 293.98 267.76 299.98 266.94 305.93 C 264.53 311.76 259.49 316.23 257.64 322.36 C 254.70 329.51 255.94 337.38 255.95 344.89 C 193.70 307.77 131.61 270.39 69.50 233.05 C 71.63 230.08 72.53 226.47 73.95 223.14 C 76.00 218.66 76.05 213.51 75.22 208.73 C 72.36 195.80 69.58 182.85 66.71 169.92 C 64.85 162.01 65.40 153.78 64.07 145.81 C 61.86 139.82 58.69 134.23 56.25 128.34 C 58.06 124.13 60.21 120.05 61.73 115.73 C 62.09 112.90 60.69 110.02 61.55 107.22 C 62.61 103.53 64.29 99.97 64.60 96.10 C 65.41 90.67 65.22 85.04 66.94 79.79 C 71.38 68.58 75.82 57.37 80.22 46.15 C 81.50 42.45 84.99 40.31 87.55 37.57 C 94.12 30.12 103.98 27.27 112.26 22.25 C 117.93 18.37 125.06 19.73 131.50 18.80 C 134.47 16.32 136.91 12.55 141.01 11.94 C 149.00 10.45 156.99 8.93 164.99 7.50 Z" />
</g>
<g id="#3d8e33ff">
<path fill="#3d8e33" opacity="1.00" d=" M 64.02 245.22 C 65.84 241.16 66.80 236.66 69.50 233.05 C 131.61 270.39 193.70 307.77 255.95 344.89 C 256.18 345.18 256.64 345.78 256.87 346.07 C 257.11 351.71 257.16 357.38 256.91 363.02 C 255.90 367.65 252.40 371.31 251.19 375.88 C 251.84 388.40 258.56 399.37 262.15 411.13 C 263.25 418.09 259.79 425.53 263.11 432.16 C 264.67 435.71 265.64 439.69 268.41 442.56 C 272.75 447.23 277.02 451.96 281.28 456.70 C 284.39 460.24 288.98 461.81 292.91 464.21 C 294.65 469.18 295.78 474.39 297.92 479.22 C 300.32 482.42 303.92 484.46 306.41 487.59 C 308.16 493.09 307.56 499.11 309.48 504.60 C 310.70 507.99 311.88 511.40 313.30 514.72 C 314.47 517.36 317.61 518.46 318.73 521.15 C 320.46 525.12 321.59 529.36 323.85 533.10 C 329.57 542.79 335.17 552.55 340.91 562.23 C 343.48 566.46 344.23 571.44 345.61 576.13 C 347.48 581.88 345.42 587.91 346.15 593.78 C 347.43 601.85 349.78 609.74 350.80 617.85 C 350.24 624.98 348.29 631.95 347.76 639.09 C 347.92 641.82 349.33 644.29 350.21 646.84 C 356.05 662.07 361.89 677.30 367.64 692.56 C 368.56 695.98 372.50 696.90 374.33 699.70 C 379.56 706.49 384.79 713.29 389.99 720.10 C 388.71 725.62 390.89 731.00 393.08 735.96 C 394.42 737.65 396.59 738.45 398.30 739.73 C 401.19 741.31 402.09 744.70 403.60 747.40 C 406.49 752.91 409.11 758.56 412.15 763.99 C 416.73 769.67 424.71 772.17 427.91 779.06 C 430.54 783.43 430.23 788.69 430.74 793.59 C 432.25 793.93 433.77 794.28 435.29 794.66 C 436.36 796.31 437.39 798.01 438.48 799.67 C 438.42 805.20 435.45 810.00 432.11 814.18 C 426.25 818.60 418.43 820.29 413.55 826.04 C 415.03 827.72 416.50 829.41 417.98 831.11 C 416.25 837.54 414.12 843.85 412.15 850.22 C 407.83 852.50 403.06 851.71 398.43 851.38 C 396.70 853.67 400.09 855.76 400.95 857.82 C 399.41 859.63 397.96 861.67 395.68 862.59 C 389.28 865.57 382.78 868.36 376.38 871.34 C 367.85 875.86 357.43 874.63 348.76 871.22 C 339.97 865.42 331.33 859.37 322.56 853.53 C 318.27 850.87 315.33 846.67 311.64 843.32 C 306.46 838.89 305.03 831.88 301.32 826.42 C 297.21 823.94 292.44 822.79 288.10 820.79 C 283.87 818.82 278.82 818.02 275.61 814.36 C 271.38 809.93 267.05 805.61 262.72 801.29 C 258.27 796.96 255.19 791.51 251.38 786.65 C 246.45 780.43 245.22 772.31 241.57 765.42 C 236.93 758.91 229.65 755.03 222.93 751.05 C 216.50 749.00 209.93 745.74 203.01 747.08 C 185.03 748.80 167.05 750.52 149.04 751.81 C 143.98 751.93 139.03 750.63 134.04 749.99 C 130.21 749.28 126.12 749.23 122.63 747.34 C 110.73 740.91 98.82 734.49 86.88 728.12 C 84.11 726.70 82.26 724.12 80.20 721.88 C 77.08 718.29 73.48 715.02 71.20 710.77 C 68.80 706.41 65.60 702.33 64.69 697.32 C 61.92 686.87 60.44 675.97 55.84 666.10 C 53.48 659.43 48.03 654.64 43.58 649.37 C 36.36 643.13 28.45 637.71 20.89 631.90 C 20.45 627.30 20.51 622.66 19.77 618.10 C 18.95 615.84 17.05 614.16 16.13 611.95 C 15.11 608.60 15.15 605.03 14.09 601.71 C 11.82 597.96 6.18 596.74 5.36 592.08 C 3.62 583.55 1.80 575.04 0.00 566.53 L 0.00 565.74 C 0.48 561.98 0.50 557.95 2.56 554.64 C 7.73 545.75 12.73 536.76 17.90 527.87 C 22.33 520.45 24.06 511.77 28.46 504.34 C 31.74 498.63 35.03 492.92 38.26 487.19 C 41.89 480.42 47.64 475.18 52.28 469.17 C 53.88 465.87 54.92 462.12 54.39 458.44 C 53.08 447.96 51.48 437.51 50.42 427.00 C 50.48 415.99 51.43 405.00 51.53 393.99 C 50.99 382.60 49.29 371.27 48.82 359.88 C 51.16 350.81 56.01 342.50 57.60 333.20 C 59.27 324.48 60.95 315.76 62.65 307.04 C 60.87 303.14 58.38 299.42 57.90 295.07 C 57.16 290.11 56.16 285.12 56.62 280.08 C 57.15 273.89 56.95 267.63 57.78 261.47 C 59.45 255.91 62.02 250.66 64.02 245.22 M 54.93 444.16 C 55.58 449.84 56.55 455.50 57.03 461.21 C 56.62 464.37 55.72 467.50 54.50 470.46 C 50.36 475.33 45.92 479.99 42.23 485.23 C 38.35 491.76 34.69 498.42 30.87 504.98 C 26.11 512.73 24.49 521.96 19.64 529.66 C 14.41 538.79 9.16 547.91 4.01 557.08 C 1.50 563.02 2.86 569.55 4.34 575.58 C 54.47 510.23 127.99 463.07 208.48 445.44 C 195.37 442.93 182.26 440.33 168.95 438.98 C 130.99 434.67 92.35 436.48 54.93 444.16 M 192.87 517.74 C 176.85 517.73 160.84 517.73 144.82 517.74 C 157.78 527.17 170.79 536.55 183.71 546.04 C 178.70 561.26 173.79 576.51 168.84 591.75 C 181.77 582.28 194.74 572.86 207.74 563.47 C 220.72 572.88 233.69 582.28 246.62 591.74 C 241.68 576.48 236.72 561.23 231.76 545.98 C 244.73 536.58 257.68 527.14 270.65 517.73 C 254.62 517.73 238.60 517.74 222.57 517.73 C 217.64 502.52 212.71 487.31 207.73 472.12 C 202.75 487.32 197.83 502.53 192.87 517.74 M 207.72 642.60 C 202.75 657.81 197.83 673.04 192.87 688.26 C 176.84 688.25 160.80 688.30 144.76 688.24 C 157.76 697.62 170.74 707.03 183.69 716.48 C 180.31 726.79 177.01 737.12 173.61 747.42 C 179.58 746.63 185.71 746.73 191.59 745.45 C 197.17 741.88 202.32 737.66 207.78 733.90 C 220.67 743.42 233.73 752.70 246.62 762.23 C 241.68 747.00 236.80 731.76 231.75 716.58 C 244.63 706.99 257.70 697.68 270.70 688.26 C 254.66 688.28 238.63 688.25 222.60 688.27 C 217.61 673.05 212.74 657.80 207.72 642.60 Z" />
</g>
<g id="#ffffffff">
<path fill="#ffffff" opacity="1.00" d=" M 54.93 444.16 C 92.35 436.48 130.99 434.67 168.95 438.98 C 182.26 440.33 195.37 442.93 208.48 445.44 C 127.99 463.07 54.47 510.23 4.34 575.58 C 2.86 569.55 1.50 563.02 4.01 557.08 C 9.16 547.91 14.41 538.79 19.64 529.66 C 24.49 521.96 26.11 512.73 30.87 504.98 C 34.69 498.42 38.35 491.76 42.23 485.23 C 45.92 479.99 50.36 475.33 54.50 470.46 C 55.72 467.50 56.62 464.37 57.03 461.21 C 56.55 455.50 55.58 449.84 54.93 444.16 Z" />
<path fill="#ffffff" opacity="1.00" d=" M 192.87 517.74 C 197.83 502.53 202.75 487.32 207.73 472.12 C 212.71 487.31 217.64 502.52 222.57 517.73 C 238.60 517.74 254.62 517.73 270.65 517.73 C 257.68 527.14 244.73 536.58 231.76 545.98 C 236.72 561.23 241.68 576.48 246.62 591.74 C 233.69 582.28 220.72 572.88 207.74 563.47 C 194.74 572.86 181.77 582.28 168.84 591.75 C 173.79 576.51 178.70 561.26 183.71 546.04 C 170.79 536.55 157.78 527.17 144.82 517.74 C 160.84 517.73 176.85 517.73 192.87 517.74 Z" />
<path fill="#ffffff" opacity="1.00" d=" M 207.72 642.60 C 212.74 657.80 217.61 673.05 222.60 688.27 C 238.63 688.25 254.66 688.28 270.70 688.26 C 257.70 697.68 244.63 706.99 231.75 716.58 C 236.80 731.76 241.68 747.00 246.62 762.23 C 233.73 752.70 220.67 743.42 207.78 733.90 C 202.32 737.66 197.17 741.88 191.59 745.45 C 185.71 746.73 179.58 746.63 173.61 747.42 C 177.01 737.12 180.31 726.79 183.69 716.48 C 170.74 707.03 157.76 697.62 144.76 688.24 C 160.80 688.30 176.84 688.25 192.87 688.26 C 197.83 673.04 202.75 657.81 207.72 642.60 Z" />
</g>
<g id="#ce1126ff">
<path fill="#ce1126" opacity="1.00" d=" M 1875.97 1065.86 C 1880.07 1063.25 1885.20 1063.68 1889.86 1063.49 C 1897.41 1063.95 1901.42 1070.88 1906.63 1075.35 C 1912.58 1080.57 1917.18 1087.04 1921.70 1093.48 C 1923.57 1097.19 1924.37 1101.34 1925.83 1105.23 C 1927.05 1108.89 1928.91 1113.08 1926.81 1116.78 C 1924.22 1120.48 1921.27 1123.92 1918.62 1127.57 C 1919.70 1130.65 1919.88 1134.26 1922.24 1136.74 C 1925.69 1140.56 1929.17 1144.38 1932.64 1148.20 C 1932.06 1150.27 1931.53 1152.36 1931.07 1154.47 C 1933.20 1156.33 1936.48 1157.69 1936.78 1160.90 C 1939.00 1170.92 1941.61 1180.87 1943.66 1190.94 C 1900.33 1190.89 1857.00 1190.88 1813.67 1190.94 C 1816.20 1187.80 1816.43 1183.65 1817.55 1179.93 C 1819.80 1171.69 1821.58 1163.30 1824.09 1155.15 C 1827.73 1151.07 1832.37 1148.00 1836.06 1143.96 C 1837.76 1140.60 1837.59 1136.65 1837.25 1133.02 C 1835.93 1130.03 1834.47 1127.03 1832.49 1124.45 C 1829.05 1121.53 1825.29 1119.03 1821.70 1116.33 C 1817.64 1114.15 1818.10 1108.90 1816.62 1105.12 C 1818.46 1102.54 1819.61 1099.30 1822.06 1097.24 C 1833.61 1091.70 1845.35 1086.53 1856.95 1081.09 C 1863.55 1076.36 1868.66 1069.62 1875.97 1065.86 Z" />
</g>
<g id="#3a75c4ff">
<path fill="#3a75c4" opacity="1.00" d=" M 1809.14 1196.35 C 1810.94 1194.84 1812.13 1192.71 1813.67 1190.94 C 1857.00 1190.88 1900.33 1190.89 1943.66 1190.94 L 1943.93 1190.94 C 1945.68 1199.71 1947.98 1208.37 1949.90 1217.11 C 1950.28 1221.00 1954.07 1222.95 1956.45 1225.62 C 1959.65 1229.10 1964.09 1231.79 1965.55 1236.55 C 1967.15 1241.34 1970.57 1245.71 1970.19 1250.99 C 1970.40 1258.30 1969.77 1265.76 1971.79 1272.90 C 1973.01 1277.08 1972.64 1281.98 1975.64 1285.46 C 1978.93 1289.68 1982.17 1293.94 1985.45 1298.18 C 1984.64 1301.07 1983.54 1303.89 1983.06 1306.87 C 1984.84 1315.29 1989.16 1323.17 1989.47 1331.90 C 1989.79 1336.14 1990.19 1340.38 1990.56 1344.63 C 1993.10 1345.04 1995.67 1345.47 1998.24 1345.91 C 1998.54 1347.27 1998.85 1348.64 1999.20 1350.03 C 1995.20 1351.71 1991.20 1353.39 1987.29 1355.25 C 1986.19 1357.79 1984.79 1360.22 1984.00 1362.89 C 1984.00 1365.63 1984.49 1368.34 1984.80 1371.08 C 1982.17 1372.43 1980.13 1374.54 1978.40 1376.88 C 1979.09 1386.53 1978.51 1396.36 1981.16 1405.77 C 1982.27 1414.26 1986.97 1421.67 1989.17 1429.82 C 1988.39 1441.64 1986.92 1453.42 1986.21 1465.25 C 1988.49 1472.06 1992.54 1478.51 1992.57 1485.91 C 1991.10 1491.99 1989.33 1498.01 1987.73 1504.06 C 1986.27 1508.84 1988.02 1513.84 1987.48 1518.71 C 1985.28 1522.63 1983.01 1526.60 1979.84 1529.83 C 1977.01 1533.19 1972.35 1533.67 1968.60 1535.53 C 1964.27 1537.62 1958.97 1538.60 1954.47 1536.53 C 1949.20 1534.29 1943.71 1532.62 1938.45 1530.39 C 1934.63 1528.23 1931.25 1525.39 1927.58 1523.03 C 1928.10 1515.67 1928.76 1508.32 1929.30 1500.97 C 1928.82 1497.17 1928.70 1492.95 1926.18 1489.85 C 1922.57 1485.12 1919.47 1479.98 1915.32 1475.70 C 1905.91 1465.74 1896.61 1455.69 1887.27 1445.68 C 1885.66 1443.60 1882.90 1443.37 1880.60 1442.59 C 1875.39 1441.38 1871.49 1437.46 1866.77 1435.24 C 1861.55 1434.35 1856.20 1434.57 1850.98 1433.73 C 1846.78 1430.75 1842.70 1427.53 1838.83 1424.15 C 1836.18 1418.93 1835.95 1412.51 1831.85 1408.08 C 1828.26 1404.05 1825.55 1399.11 1820.96 1396.09 C 1815.20 1391.61 1807.67 1390.88 1801.15 1388.03 C 1798.18 1385.99 1795.26 1383.78 1792.78 1381.19 C 1788.56 1374.05 1784.46 1366.83 1780.30 1359.66 C 1775.69 1350.69 1767.68 1344.30 1760.45 1337.55 C 1757.16 1334.74 1752.72 1334.02 1748.89 1332.24 C 1738.08 1327.93 1727.27 1323.63 1716.46 1319.33 C 1712.46 1317.75 1708.29 1316.50 1704.02 1316.01 C 1697.33 1316.88 1690.83 1319.31 1684.01 1318.99 C 1678.53 1318.61 1672.90 1319.31 1667.53 1318.30 C 1640.62 1304.69 1613.86 1290.77 1587.02 1277.02 C 1576.28 1271.14 1564.47 1267.63 1553.31 1262.69 C 1546.14 1257.59 1540.67 1249.99 1532.30 1246.70 C 1528.52 1244.81 1524.65 1243.11 1520.91 1241.17 C 1517.85 1239.31 1515.25 1236.79 1512.45 1234.60 C 1508.73 1231.74 1507.85 1226.73 1504.80 1223.35 C 1501.24 1221.06 1497.33 1219.39 1493.64 1217.36 C 1497.62 1212.25 1504.27 1211.32 1510.16 1209.85 C 1519.77 1211.61 1529.66 1213.20 1538.63 1217.29 C 1544.25 1221.53 1548.82 1227.07 1554.37 1231.40 C 1569.69 1235.05 1585.18 1237.99 1600.50 1241.64 C 1602.68 1239.27 1604.91 1236.94 1607.16 1234.64 C 1609.61 1235.28 1612.08 1235.92 1614.55 1236.58 C 1617.71 1241.69 1620.90 1246.79 1624.11 1251.88 C 1632.92 1254.57 1642.08 1255.31 1651.26 1255.43 C 1652.12 1254.02 1653.01 1252.62 1653.92 1251.24 C 1655.57 1251.24 1657.25 1251.25 1658.95 1251.28 C 1660.32 1249.23 1661.72 1247.19 1663.13 1245.17 C 1664.06 1245.49 1665.01 1245.82 1665.99 1246.15 C 1666.82 1248.05 1667.67 1249.95 1668.52 1251.87 C 1671.83 1251.79 1675.15 1251.68 1678.47 1251.56 C 1682.92 1248.12 1687.42 1244.76 1691.90 1241.37 C 1698.94 1241.79 1705.97 1242.61 1713.03 1242.84 C 1721.08 1241.70 1728.96 1239.52 1736.97 1238.06 C 1741.57 1236.90 1746.42 1236.59 1750.92 1235.03 C 1757.59 1229.72 1764.01 1224.08 1770.63 1218.69 C 1778.47 1212.83 1783.30 1204.08 1789.79 1196.91 C 1796.19 1197.07 1803.06 1199.16 1809.14 1196.35 Z" />
<path fill="#3a75c4" opacity="1.00" d=" M 657.63 1329.33 C 659.50 1329.29 661.37 1329.29 663.25 1329.31 C 664.02 1332.83 664.88 1336.33 665.75 1339.84 C 667.23 1340.67 668.72 1341.51 670.21 1342.36 C 675.34 1340.90 680.45 1339.36 685.57 1337.86 C 686.41 1338.92 687.27 1340.01 688.13 1341.11 C 692.74 1341.60 697.40 1341.75 702.00 1342.46 C 703.84 1343.30 705.13 1345.03 707.00 1345.85 C 711.20 1346.66 715.53 1346.23 719.75 1346.99 C 728.48 1351.59 736.32 1358.12 745.95 1360.88 C 752.07 1363.33 758.69 1363.92 765.10 1365.27 C 769.06 1364.81 772.92 1363.43 776.97 1363.75 C 785.48 1370.97 794.06 1378.12 802.57 1385.36 C 806.34 1388.78 810.98 1391.04 815.44 1393.42 C 821.68 1394.49 829.05 1393.24 833.97 1398.10 C 835.39 1400.76 835.86 1403.85 837.44 1406.45 C 841.85 1411.67 848.40 1414.18 854.02 1417.82 C 858.42 1420.79 863.73 1422.67 867.11 1426.97 C 870.25 1430.41 872.92 1434.42 876.97 1436.91 C 879.84 1438.60 882.36 1441.43 885.91 1441.57 C 889.72 1442.32 893.08 1439.81 896.63 1438.84 C 898.00 1440.46 899.38 1442.08 900.78 1443.71 C 903.32 1443.27 905.88 1442.84 908.44 1442.43 C 910.28 1444.25 911.83 1446.46 914.00 1447.92 C 918.84 1449.79 923.87 1451.14 928.71 1453.04 C 930.56 1455.54 931.77 1458.88 934.83 1460.20 C 942.12 1463.91 949.46 1467.50 956.75 1471.21 C 957.59 1473.26 958.46 1475.30 959.36 1477.34 C 961.06 1478.06 962.76 1478.80 964.47 1479.57 C 965.49 1483.53 965.75 1487.80 967.49 1491.53 C 972.14 1496.93 977.22 1501.97 981.75 1507.48 C 982.38 1512.70 984.48 1518.56 981.54 1523.44 C 980.82 1524.98 980.11 1526.52 979.43 1528.10 C 980.61 1530.97 981.79 1533.86 982.96 1536.76 C 981.24 1537.04 979.55 1537.38 977.86 1537.70 C 977.53 1538.39 976.86 1539.77 976.53 1540.46 C 977.36 1541.41 978.20 1542.36 979.06 1543.35 C 978.76 1545.02 978.48 1546.68 978.21 1548.38 C 977.12 1548.42 975.84 1549.05 974.94 1548.16 C 971.75 1545.94 968.69 1543.54 965.53 1541.30 C 961.05 1537.62 955.04 1537.18 949.78 1535.19 C 941.87 1533.11 934.21 1529.63 925.93 1529.45 C 922.68 1529.13 919.38 1529.18 916.17 1528.63 C 912.74 1526.73 909.69 1524.22 906.40 1522.12 C 904.52 1523.90 902.64 1525.68 900.79 1527.49 C 899.60 1527.05 898.42 1526.63 897.25 1526.23 C 897.67 1524.80 898.11 1523.38 898.56 1521.98 C 897.88 1520.89 897.22 1519.85 896.57 1518.81 C 885.08 1518.11 873.60 1517.30 862.12 1516.62 C 857.51 1514.61 853.62 1511.13 849.25 1508.63 C 847.01 1508.92 844.78 1509.25 842.55 1509.57 C 838.45 1514.57 839.61 1521.17 839.06 1527.14 C 835.78 1522.31 832.86 1517.24 829.41 1512.56 C 823.75 1507.84 817.65 1503.64 811.86 1499.08 C 809.48 1496.92 806.20 1496.60 803.24 1495.84 C 799.95 1498.61 796.61 1501.34 793.34 1504.16 C 793.55 1507.01 794.76 1510.32 792.16 1512.48 C 788.44 1509.97 784.79 1507.38 781.10 1504.86 C 778.80 1503.12 775.73 1503.67 773.07 1503.28 C 768.01 1503.09 762.32 1501.23 758.14 1505.08 C 757.94 1507.63 757.72 1510.19 757.51 1512.76 C 752.79 1510.52 746.76 1510.33 743.42 1505.87 C 743.57 1503.14 743.66 1500.41 743.71 1497.70 C 741.21 1496.86 738.83 1495.49 736.23 1495.12 C 734.61 1495.84 733.13 1496.82 731.62 1497.75 C 729.27 1496.27 726.93 1494.77 724.57 1493.33 C 719.78 1496.42 713.95 1495.26 708.59 1495.47 C 707.62 1496.89 706.64 1498.32 705.69 1499.79 C 701.77 1501.41 697.96 1499.12 694.21 1498.10 C 691.96 1499.04 689.72 1500.00 687.47 1500.96 C 684.91 1497.40 682.31 1493.87 679.74 1490.33 C 674.03 1489.34 669.73 1494.15 664.78 1496.15 C 664.46 1492.64 664.14 1489.13 663.82 1485.63 C 666.02 1484.81 668.24 1484.06 670.49 1483.39 C 671.68 1481.14 672.86 1478.90 674.06 1476.67 C 671.63 1468.48 669.58 1460.17 666.89 1452.09 C 664.50 1448.85 661.61 1445.99 658.88 1443.05 C 655.56 1440.39 651.50 1438.88 647.88 1436.71 C 644.30 1437.08 640.75 1438.10 637.16 1438.07 C 635.37 1436.92 633.80 1435.48 632.17 1434.17 C 630.79 1435.52 629.40 1436.89 628.03 1438.27 C 627.07 1438.13 625.17 1437.85 624.21 1437.71 C 624.97 1433.81 626.43 1430.07 626.89 1426.14 C 625.70 1418.84 623.92 1411.65 622.56 1404.38 C 619.99 1402.61 617.21 1401.15 614.75 1399.23 C 612.05 1396.38 611.71 1392.45 612.32 1388.75 C 610.42 1387.53 608.50 1386.35 606.57 1385.20 C 607.82 1382.23 609.43 1379.39 610.30 1376.28 C 609.92 1372.88 608.35 1369.61 608.42 1366.20 C 610.22 1360.25 612.41 1354.44 614.31 1348.53 C 615.22 1344.77 618.78 1342.77 621.31 1340.18 C 625.98 1340.58 630.66 1341.00 635.34 1341.44 C 638.32 1337.94 641.29 1334.43 644.26 1330.92 C 646.08 1330.66 647.92 1330.45 649.77 1330.23 C 651.69 1331.26 653.61 1332.32 655.53 1333.42 C 656.23 1332.04 656.93 1330.68 657.63 1329.33 Z" />
<path fill="#3a75c4" opacity="1.00" d=" M 729.43 1545.63 C 731.31 1544.79 733.20 1543.97 735.10 1543.16 C 737.04 1544.61 738.97 1546.09 740.88 1547.61 C 739.48 1549.10 738.09 1550.60 736.70 1552.12 C 736.55 1555.06 736.24 1558.06 736.94 1560.98 C 738.29 1567.68 739.54 1574.41 740.90 1581.11 C 739.09 1582.82 737.27 1584.54 735.45 1586.25 C 733.12 1574.47 732.81 1562.10 727.44 1551.14 C 728.10 1549.29 728.75 1547.45 729.43 1545.63 Z" />
<path fill="#3a75c4" opacity="1.00" d=" M 669.93 1558.77 C 674.91 1556.28 679.92 1553.87 684.93 1551.45 C 685.34 1552.59 685.77 1553.75 686.20 1554.93 C 685.27 1557.60 683.77 1560.15 683.45 1563.00 C 683.90 1569.78 684.66 1576.54 685.26 1583.33 C 684.30 1584.83 683.36 1586.33 682.42 1587.86 C 680.38 1584.48 678.12 1581.22 676.30 1577.73 C 675.10 1573.69 675.52 1569.37 674.57 1565.30 C 673.23 1562.97 671.44 1560.96 669.93 1558.77 Z" />
<path fill="#3a75c4" opacity="1.00" d=" M 646.03 1571.47 C 651.53 1567.18 657.06 1562.95 662.66 1558.81 C 664.42 1559.00 666.19 1559.22 667.97 1559.44 C 667.06 1563.17 666.02 1566.90 664.18 1570.31 C 660.95 1570.76 657.68 1570.97 654.50 1571.70 C 652.31 1572.62 650.39 1574.03 648.33 1575.19 C 647.53 1573.94 646.77 1572.71 646.03 1571.47 Z" />
<path fill="#3a75c4" opacity="1.00" d=" M 747.61 1562.64 C 748.35 1562.00 749.09 1561.38 749.83 1560.77 C 751.98 1566.08 754.13 1571.40 756.24 1576.73 C 755.58 1577.65 754.94 1578.58 754.31 1579.53 C 751.30 1574.22 748.19 1568.85 747.61 1562.64 Z" />
</g>
</svg>
