<?xml version="1.0" encoding="utf-8"?>
<!-- Generator: Adobe Illustrator 17.1.0, SVG Export Plug-In . SVG Version: 6.00 Build 0)  -->
<!DOCTYPE svg PUBLIC "-//W3C//DTD SVG 1.1//EN" "http://www.w3.org/Graphics/SVG/1.1/DTD/svg11.dtd">
<svg version="1.1"
	 id="svg2" xmlns:dc="http://purl.org/dc/elements/1.1/" xmlns:cc="http://creativecommons.org/ns#" xmlns:rdf="http://www.w3.org/1999/02/22-rdf-syntax-ns#" xmlns:svg="http://www.w3.org/2000/svg" xmlns:sodipodi="http://sodipodi.sourceforge.net/DTD/sodipodi-0.dtd" xmlns:inkscape="http://www.inkscape.org/namespaces/inkscape" sodipodi:docname="Flag_of_the_Republic_of_the_Congo.svg" inkscape:version="0.48.5 r10040"
	 xmlns="http://www.w3.org/2000/svg" xmlns:xlink="http://www.w3.org/1999/xlink" x="0px" y="0px" viewBox="-130.5 -300 861 1000"
	 enable-background="new -130.5 -300 861 1000" xml:space="preserve">
<sodipodi:namedview  objecttolerance="10" guidetolerance="10" gridtolerance="10" showgrid="false" inkscape:cy="200" inkscape:cx="300" inkscape:zoom="1" borderopacity="1" bordercolor="#666666" pagecolor="#ffffff" id="namedview7" inkscape:window-maximized="1" inkscape:window-y="-8" inkscape:window-x="-8" inkscape:window-height="716" inkscape:window-width="1366" inkscape:pageshadow="2" inkscape:pageopacity="0" inkscape:current-layer="svg2">
	</sodipodi:namedview>
<g>
	<defs>
		<path id="polyline19" d="M595.3-300l-0.9,0.6l-1.2,0.3l-0.6,0.2l-0.6,0.6l-0.6,0.2l-0.6,0.6l-1.7,0.6l-0.6,0.6l-0.8,0.3l-0.6,0.2
			l-0.8,0.6l-0.9,0.3l-0.6,0.8l-0.6,0.6l-0.6,0.8l-2.9,2.9H580l-0.8,0.3h-2.6l-0.6-0.3l-0.8-0.2h-0.6l-1.7-0.6h-0.6l-1.7,0.6
			l-0.8,0.8l-0.9,0.6l-0.2,0.6l-1.2,1.2l-0.2,0.6l-1.2,0.3l-0.9,0.6h-0.8l-0.9,0.2h-1.6l-1.2-0.2H559l-1.7,0.6l-0.6,0.2l-3.8,1.3
			l-0.6,0.3h-0.9l-0.8,0.2h-0.6l-0.9-0.2h-1.6l-0.9,0.2l-1.2,0.6l-0.8,0.2l-0.9,0.6l-1.2,1.2l-1.2,0.3l-0.6,0.2l-0.8-0.2h-1.4
			l-1.7,0.6l-0.9-0.6l-0.6-0.3l-0.2-0.6l-0.6-0.2l-0.6-0.6h-2l-0.9,0.2h-2.6l-0.9-0.2l-1.2-0.6l-1.2-0.2h-0.8l-0.8,0.2l-0.3,0.8
			l0.3,1.2v1.2l-1.7,0.6l-0.6,0.3l-0.9,0.2H519l-0.6-0.2h-0.9l-1.7-0.6h-0.6l-2.6-0.9h-0.6l-1.7-0.6H509l-0.9-0.2h-1.6l-0.9,0.2
			h-0.8L504-280h-0.6l-1.6,0.6l-0.6,0.2h-0.9l-0.8,0.3l-0.6,0.6l-0.9,0.2l-0.6,0.6l-0.6,0.2l-0.8,0.6l-0.6,0.3l-2.3,2.3l-0.2,0.8
			l-1.7,1.7l-1.7,5.1v0.9l-0.2,0.8v1.7l-0.3,0.8v1.7l-0.2,0.9v1.6l-1.4,4.3l-0.3,0.6l-0.8,2.6l-0.6,0.8v2.6l-0.3,0.8v0.9l-0.2,0.8
			l-0.6,0.6l-0.6,0.8l-0.2,0.6l-0.6,0.9l-0.6,0.6l-0.3,0.6l-0.6,0.8l-0.6,0.6l-0.2,0.9l-1.2,1.6v2.9l0.8,2.6l0.6,0.8l0.3,0.6
			l0.6,0.8l0.8,2.6l-0.2,0.8v0.9l-0.3,0.8l-0.2,0.6v0.8l-0.3,0.9l-0.6,0.8l-0.2,0.6l-0.6,0.9l-0.2,0.8l-0.6,0.8l-0.3,0.6l-0.2,0.9
			l-0.6,0.8l-0.3,0.6l-0.6,0.9l0.3,0.8v4.1l0.2,0.8l0.3,0.6l0.6,0.9l0.2,0.6l0.6,0.8l1.2,1.2l0.2,0.6l0.6,0.8l0.3,0.6l-0.3,0.9v1.2
			l-0.6,1.7l-0.6,0.6l-0.6,1.6l-0.2,0.6l-0.6,0.9l-0.2,0.8l-0.3,0.6l-0.6,0.9l-0.2,0.8l-0.4,0.6l-0.6,1.7l-0.6,0.6l-0.2,0.8
			l-0.3,0.6l-0.2,0.9l-0.6,0.8l-0.2,0.6l-0.6,1.7l-0.6,0.6l-0.3,0.8l-0.2,0.6l-0.6,1.7l-0.6,0.6l-0.3,0.8l-0.2,0.6l-0.2,0.9
			l-0.6,0.6l-0.6,1.7l-0.3,0.6l-0.2,0.8l-0.6,0.8l-0.3,0.6l-0.2,0.9l-0.6,0.8l-0.2,0.9l-0.3,0.6l-0.6,0.8l-0.6,1.7l-0.2,0.6
			l-0.6,0.8l-0.6,1.7l-0.6,0.6l-0.6,1.7l-0.6,0.8l-0.3,0.6l-0.6,1.7l-0.6,0.8l-0.2,0.6l-0.2,0.9l-0.6,0.8l-0.3,0.9l-0.2,0.6
			l-0.3,0.8l-0.6,0.8l-0.2,0.9l-0.2,0.6l-0.6,0.8l-0.6,1.7l-0.6,0.8l-0.3,0.6l-0.6,1.7l-0.6,0.9l-0.2,0.6l-0.3,0.8l-0.6,0.8
			l-0.2,0.9l-0.2,0.6l-0.6,0.8l-0.3,0.9l-0.2,0.6l-0.3,0.8l-0.6,0.8l-0.2,0.9l-0.2,0.6l-0.6,0.8l-0.6,1.7l-0.3,0.6l0.6,0.6l0.6,1.2
			l-0.6,0.6l-0.2,0.6l-0.9,0.6l-0.6,0.6l-0.6,0.2l-0.6,0.6l-0.8,0.6l-0.6,0.3l-0.6,0.6l-0.8-0.6l-0.6-0.9l-0.9-0.6h-0.8l-0.6-0.2
			h-0.9l-1.2,0.6l-0.6,0.6l-0.2,0.8l-0.2,0.6l-0.3,0.9l-0.6,0.8l-0.2,0.9l-0.6,0.8v1l-0.3,0.6l0.3,0.8v0.5l0.6,1.2l0.2,0.8l-0.2,0.9
			v0.8h-0.9l-0.2,0.2l-0.6,1.2v0.9h0.2v1.2l0.6,1.7l-0.6,0.8l-0.6,0.6l-0.2,0.6l-0.6,0.6l-0.2,1.2v0.8l0.2,0.9v2.6l0.2,0.6l0.9,0.3
			l0.6,0.2l0.2,0.6l0.6,0.6l0.3,0.8l0.6,0.6l0.2,0.9l0.2,0.6l0.6,1.7l0.6,0.6l0.6,1.6l0.3,0.6l0.6,1.7l0.2,0.6l0.9,2.6l0.2,0.6
			l0.2,0.8v1.2l0.3,0.8v0.9l0.6,1.7v0.8l0.6,1.7v0.8l0.6,1.7v0.2l0.6,1.7l-0.6,1.7l-1.2,0.6l-2.6-0.8l-0.8,0.2L440-72l-0.2,0.8
			l-1.2,1.2l-0.3,0.9l-1.2,1.2l-0.2,0.8l-1.2,1.2l-0.3,0.9l-0.6-0.9l-0.6-0.6l-0.2-0.6l-0.6-0.6l-0.6-0.8l-1.2-1.2l-0.2-0.6
			l-0.6-0.9l-0.6-1.2l-0.3-0.8v-1.2l0.3-1.2v-0.8l-0.3-0.9v-0.6l-0.6-0.6l-1.7-0.8h-1.4l-1.2,0.6l-0.6-0.3l-0.8-0.2l-0.6-0.2h-0.9
			l-0.6-0.3h-0.8l-0.9-0.6l-0.8-0.2v-0.9l-0.2-1.2l-0.6,0.6l-0.6,0.3l-1.7,0.6h-1.2l-0.6-0.9l-0.3-0.8v-0.8l-0.8-0.9L412-85
			l-0.6-0.6l-0.8-0.2l-0.6-0.6l-0.9-0.3l-0.6-0.2l-1.7-0.6l-0.6-0.2l-0.8-0.3l-1.2-1.2l-0.6-0.8l-1.2-1.2l-0.6-0.9l-0.6-0.6
			l-0.6-0.8l-0.6-0.6l-0.8-0.6h-0.9l-0.8-0.2h-0.9l-0.6-0.3l-0.8-0.2l-0.6-0.6l-0.6-0.3l-0.6-0.6h-1.7l-0.8-0.2h-1.5l-0.8-0.2h-2.6
			l-0.9-0.3h-1.7l-1.6-0.6h-0.9l-0.6-0.2l-4.3-1.5h-0.8l-0.6-0.2l-1.7-0.6h-0.9l-1.6-0.6h-0.9l-0.8-0.2h-1.7l-0.6,0.2h-1.7l-0.8,0.2
			h-0.9l-0.8,0.6l-0.6,0.3l-0.8,0.6l-0.6,0.2l-0.9,0.6l-0.6,0.3l-0.8,0.6l-0.9,0.2l-0.6,0.2l-1.6,0.6l-0.6,0.3l-0.9,0.6l-0.6,0.2
			h-0.8l-0.6,0.3v-0.3l-0.9-0.6l-1.6-0.6l-1.2-0.6l-0.6-1.2l0.2-0.6v-1.4l-0.2-0.9l-0.6-0.8l-0.9-0.8l-0.8-0.3l-0.6-0.2l-2.6-0.9
			l-0.6-0.2l-0.6-1.7l-0.6-0.8l-0.6-0.6l-0.6-0.3l-0.8-0.6l-0.8-0.2l-3.5,1.2l-0.6-0.2h-0.9l-0.6-0.3l-0.8-0.2l-0.6-0.3l-0.6,0.9
			l-0.6,1.7l-0.6,0.8l-0.8-0.6l-0.9-0.2h-0.6l-0.2,0.8l-0.6,0.6l-0.3,0.6l-1.2,1.2l-0.8,0.6l-1.7,0.6l-0.6-0.6l-0.2-0.6l-0.6-0.8
			l-0.9,0.2l-0.6,0.2l-0.8,0.3l-1.7-0.6l-0.6-0.6l-0.8-0.6l-1.2-1.2l-0.9-0.3l-0.6-0.6l-0.8-0.6l-0.6-0.6l-1.2-0.2l-0.2,1.2
			l-0.6,1.7l-1.2,0.6h-0.9l-0.8,0.2h-1.7l-0.8-0.2h-2.6v-1.2l0.3-0.9v-0.8l0.6-1.7l0.6-0.8l0.2-0.6l-1.7-1.2l-0.6-0.6l-0.8-1.7
			l-1.2-1.7l-0.6-0.2l-1.2-1.2l-0.6,0.6v1.4l-0.3,0.9v0.6l-0.6,0.6l-0.2,0.6h-0.8l-1.7,0.6h-1.7l-0.8,0.2H288l-0.9,0.2H286l-0.2-0.6
			v-1.6l0.2-0.9l-0.2-0.8h-0.6l-0.8,0.2l-1.5,0.3l-1.2-0.6l0.9-0.3l1.6-1.2l-0.8-0.6l-0.8-0.2l-0.6-0.6l-0.9-0.3l-0.8,0.3l0.2,1.2
			l0.6,1.7l-1.7-0.6l-2.2-2.3l-1.7-1.2h-0.6l-0.9,0.2h-1.4l-1.2-0.6l0.6-0.8l0.2-1.2l-1.2-0.6l-0.8-0.3l-0.6-0.2l-2.9-2.9l-0.6-0.8
			l-0.6-0.6H265l-0.8-0.3l-0.6-0.2l-0.9-0.2l-0.6,0.8l-1.2,1.2v2.2l0.3,1.2L261-122l-0.8,0.6h-0.8l-1.7,0.6h-0.9l-0.8,0.2h-0.8
			l-0.9,0.3l-0.6,0.2h-0.8l-0.9,0.3h-0.8l-1.7,1.2l-0.6,0.2l-0.8,0.2h-0.9l-0.6-0.2l-1.2-1.2l-0.6-0.2l-0.6-0.6l-1.6-1.2h-0.9
			l-0.8-0.3h-1.7l-0.8-0.2H237l-0.8-0.3h-0.9l-4.3,1.5l-0.6,0.6h-18.4l-0.8-0.3h-31.2l-0.9-0.2h-32.6l-0.8-0.2h-28v7.7l-0.2,0.8v2
			l-0.6,1.2l-0.6,0.9l-0.3,0.6l-0.6,0.2l-0.6,0.6l-0.8,0.3l-0.6,0.2l-0.6,0.6l-0.9,0.2l-2.8,2.9l-0.6,0.3l-0.9,0.6v1.6l0.3,0.6
			l0.2,0.9l-0.2,1.2l-1.5,1.4l-1.2,1.7l-0.2,0.6l-0.3,0.8l-0.6,0.9l-0.6,0.2l-0.8,0.3l-0.2,0.2l0.2,0.8l1.2,1.2l0.2,0.9l0.3,0.6
			l0.2,0.8l0.6,0.9l0.6,1.2v1.2l-0.6,1.6v0.9l-1.2,3.5l-0.6,0.8l-0.6,0.6l-0.6,0.8l-0.8,0.3l-0.6,0.6l0.6,1.2l0.2,0.8l-0.2,0.9v1.2
			l-0.3,0.6l-0.2,0.8l-0.2,0.6l-0.3,0.8v0.9l-0.2,0.8l0.2,0.9v0.8l0.3,0.8v1.7l0.2,0.9l-0.2,0.8v2L99.2-57L99-56.4l0.6,1.2l0.6,0.9
			l0.6,1.2l0.6,0.8l0.6,0.6l1.2,1.7l0.6-0.9l0.9,0.3l0.6,0.6l0.2,0.6l0.6,0.8v1.5l-0.6,1.6l0.9,0.3l0.6,0.6l0.8,0.2l0.6,1.7l0.2,0.6
			l1.2,3.5l0.6,0.2l0.9,0.3l0.6,0.6l-0.3,0.8v0.8l0.3,0.9v5.5l0.2,0.8l0.6,0.6l0.3,0.9v0.6l-0.9,0.2l-0.6,1.7l-1.2,1.2l-0.8,0.6
			l-1.2,0.2l-0.9,0.6h-1.6l-0.9,0.9l-0.2,0.8v0.9l-0.6,0.6l-0.3,0.6l-0.8,0.2h-1.4l1.2,1.2l0.6,0.2l0.8,0.3l1.2,0.6v0.8l0.2,0.9
			l1.2,0.2l0.9-0.2h0.8l0.6-0.3h0.9l0.8,0.3h3.1l0.9-0.3h0.6l0.8-0.6l0.6-0.2l0.8-0.3l0.6-0.6l0.3-0.6l0.6-0.6l0.6-0.8h1.2l0.8-0.2
			l1.2-0.3l0.9-0.2l0.6-1.2l0.2-0.9l0.8-0.8h0.9l0.6-0.2l0.8-0.3h0.9l0.8-0.2h1.8l1.7,0.6l0.6,0.2l2.6,0.9h0.9l0.8,0.2h0.8l0.9,0.2
			h3.5l0.8-0.2h0.8l0.6-0.2h1.7l0.6-0.6l0.9-0.6l0.6-0.9l0.6-0.6l0.2-0.8L150-25l0.6-0.9l3.5-1.2l0.6-0.2l1.7-1.2l0.6-0.6l0.8-0.6
			h0.8l0.9-0.2h3.5l0.8-0.3h0.8l0.9-0.6l0.6-0.2l0.6-0.6l0.8-0.3h0.6l0.9,0.3l0.6,0.2l0.2,0.3l1.7-0.9l0.2-0.6l0.3-0.8L172-34
			l0.6-0.6l0.6-1.7v-0.6l0.2-0.8l0.3-0.6h0.8l0.6-0.3h0.9l0.8,0.3h2.8l0.8,0.2h2.6l0.9,0.2h1.4l0.9,0.3h2.6l0.8,0.2h2.6l0.8,0.3h2.3
			l0.8,0.2h0.9l1.2,0.2l1.7,0.6l0.6,0.3l2.2,2.3l0.6,0.2l0.6,0.6l0.9,0.2h0.6l0.8,0.3h0.9l1.6-0.6l0.9-0.6l0.8-0.3l0.6-0.2h0.9
			l0.6-0.2l0.8-0.3l0.6,0.3h2l0.6,0.2l0.9,0.2h0.8l0.6,0.3l0.9,0.2h0.6l1.2,0.9l0.8,0.6l0.8,0.8h0.6l0.6,0.2l0.6,1.2l0.9,0.6
			l0.6,0.3l0.8,0.2l1.2,1.2l0.6,1.2l0.6,1.7v0.6l0.6,1.7v0.8l0.3,0.6l0.2,0.9v0.8l0.2,0.8v10.9l0.3,0.6l0.2,0.8v1l0.3,0.8l0.6,0.6
			l0.2,0.6l0.6,0.6l0.2,0.6l0.9,0.6l1.7,0.6l0.6,0.2l0.8,0.6l1.7,0.6l0.2,0.9l0.6,0.8l0.6,0.6l1.7,5.1v0.8l0.6,0.6l0.2,0.9l0.9,1.6
			l0.6,0.9l0.6,1.2l1.7,1.7l0.2,0.6l0.8,0.6l0.6,0.8l0.9,0.6l0.6,0.2l0.8,0.3l0.6,0.6l1.2,0.6l0.3,0.6v1.4l-1.7,1.7l-0.9,0.2
			l-0.2,0.6l-0.6,0.3l0.2,0.8l0.3,0.6v1.7l0.2,1.2v0.8l0.3,0.9v0.8l-0.6,0.6l-0.6,0.9l-1.2,1.2l-0.6,0.8l-0.6,0.6l-0.3,0.6l-0.8,0.6
			l-1.2,1.2l-0.9,0.6l-1.2,1.2l-0.8,0.6l-0.6,0.6l-0.6,0.8l-0.2,0.6l-0.6,0.6l-0.6,0.9l-0.3,0.6l-0.6,0.8l-0.6,0.6v4.3l-0.2,0.9V52
			l-0.3,0.6l-0.2,0.9v0.8l-0.8,0.6l-1.2,1.2l-0.9,0.6l-1.7,1.7l-0.8,0.6l-1.2,1.2l-0.8,0.6l-2.3,2.3l-0.9,0.2l-0.6,0.2h-4.3
			l-0.8,0.3h-0.6l-0.9-0.3H217l-0.9-0.2h-1.4l-0.9-0.2h-0.8l-0.8,0.2h-1.5l-0.8,0.2h-1.7l-0.8,0.3l-0.6,0.6l-0.3,0.8l-0.6,0.6
			l-0.6,0.9l-0.6,0.6l-0.2,0.6l-0.6,0.8l0.6,0.8l0.2,0.6l0.6,0.9v0.8l0.3,0.9l0.2,0.6l-0.2,0.8v0.8l-0.3,0.9l-0.2,0.6l-1.7,1.7
			l-0.8,0.6l-0.6,0.2l-0.9,0.6l-0.8,0.2l-0.9,0.6l-0.6,0.3l-0.8,0.6l-0.8,0.2l-0.6,0.6l-0.9,0.3l-0.8,0.6l-1.7,1.6l-0.6,0.9
			l-0.2,0.6l-0.6,0.8l-0.3,0.9l-0.2,0.6l-0.6,1.6l-0.6,0.6l-0.6,1.7l-0.3,0.6l-0.6,1.7l-0.6,0.6l-0.6,0.8l-0.6,0.6l-0.2,0.9
			l-0.6,0.6l-0.6,0.8l-0.2,0.6l-0.6,0.9l-0.3,0.8v0.8l-0.2,0.9l0.2,1.2v0.8l0.3,0.9l0.2,1.2l1.2,3.4v0.9l0.2,1.2v2.3l0.3,0.8v4.3
			l0.2,0.9l0.6,0.6h0.9l0.6,0.2h1.4l0.2,0.8l0.6,0.6l-0.2,1.5l-1.2,1.2l-0.2,0.8l-0.6,1.2v0.9l0.2,0.8l0.6,1.2v1.2l-1.2,1.7
			l-2.3,2.3l-0.6,0.8l-0.2,0.6l-0.6,0.6l-0.6,0.8l-0.6,0.6l-0.3,0.6l-0.6,0.9l-0.6,0.6l-0.6,0.8l-0.6,0.6l-0.2,0.6l-0.2,0.9
			l-0.3,0.6l-0.6,0.8l-0.2,0.6v3.7l1.7,1.7l0.2,0.6l0.6,0.8l2.3,2.3l0.6,0.9l0.6,0.2h0.8l0.6-0.2l0.9-0.3l0.6-0.6l0.2-0.8l0.2-0.6
			l0.9-0.3h1.7l0.8,0.3h1.7l1.2,0.6l0.8,0.6l0.3,0.6l0.6,0.6h0.8l0.6-0.3l1.7-0.6h2.6l0.6,0.3h0.9l0.8,0.2h0.6l0.8,0.3l0.6,0.2
			l0.9,0.6l0.6,0.2l0.8,0.3l0.6,0.2l2.9,2.9l0.6,0.8l0.6,1.7l0.6,0.6l0.6,1.7l0.4,1l0.2,0.8v0.8l0.2,0.6l0.6,1.7v0.9l0.3,0.6v0.8
			l0.2,0.8v3.5l0.3,0.9v0.8l0.6-0.6l0.6-0.2l2.6-0.9h1.8l0.6,0.3l0.8,0.2l0.6,0.2l1.2,0.3h0.9l2.6-0.9l0.9-0.6h1.2l0.8-0.2l2.6,0.8
			h0.6l0.9,0.6l0.6,0.3l0.8,0.2l0.6,0.3l1.7,0.6l0.6,0.6l0.8,0.6l0.9,0.2l0.6,0.6l0.8,0.6l1.2,1.2l0.3,0.8l0.6,0.6l0.6,0.9l0.6,0.2
			l0.6,0.6l0.8,0.3l0.6,0.6l0.6,0.2l0.8,1.1l2,2l0.2,0.9l0.6,0.6l0.6,1.6l0.6,0.9l0.3,0.6l1.4,4.3l-0.2,0.8v0.6l-0.3,0.9v0.8
			l-0.2,0.6l-0.6,1.7l-0.6,0.6l-0.6,1.7l-0.3,0.6l-0.6,0.8l-0.6,1.7l-0.2,0.6l-0.6,0.8l-0.2,0.9l-0.3,0.6l-0.2,1.2l-0.3,0.8v4.5
			l0.3,0.6l0.2,0.8v0.6l0.3,0.9v0.8l0.2,0.8v1.2l-0.2,0.6l-0.6,0.9l-0.3,0.8l-2.3,2.3l-0.2,0.6l-0.6,0.8l-0.2,0.6l-0.6,0.9v0.8
			l-0.6,1.7v0.8l-0.3,0.9v2.3l-0.6,1.6l-0.6,0.9l-0.2,0.8v1.7l0.2,0.6l1.7,5.1l0.2,0.6l0.9,2.6l0.6,0.8l0.2,0.9l0.6,0.8v0.6l0.3,0.6
			v1.2l-0.6,0.9l-0.3,1.2v0.8l0.6,0.8l0.3,0.6l0.6,0.6l0.8,0.6l1.2,1.2l0.2,0.9l0.6,0.8l0.3,0.9l-0.3,0.8v3.7l-0.2,0.9v0.8l-1.2,2.3
			l-2.6,2.6l-0.3,0.6v0.6l0.3,0.9v0.6l0.2,0.8l1.9,2.2l0.6,0.2l0.9,0.6l0.6,0.2l0.6,0.6l0.8,0.3l0.6,0.6l0.6,1.7v0.6l-0.2,0.8
			l-1.2,1.2l-0.9,0.2l-0.6,0.6l-1.2,1.7v2.9l-0.6,0.8l-0.8,2.6l1.4,1.4l0.3,0.6l0.6,0.9l0.2,0.6v1.6l-0.6,0.3h-0.8l-0.6,0.2h-0.9
			l-0.8,0.3l-0.6,0.8l-0.3,0.8l-0.6,1.2l-1.4,1.5l-1.2,0.6l-0.8,0.2h-0.9l-0.6,0.3l-1.2,1.2l0.9,0.8l0.6,0.2l0.8,0.6l0.6,0.3
			l0.2,0.8l0.3,0.6l0.8,2.6v0.6l1.2,0.2l1.7,0.6h0.8l0.9,0.2l0.8,0.6l-0.8,0.6l-0.6,0.3l-0.6,0.6l-0.9,0.2l-0.6,0.9l-0.8,0.8v0.7
			l-0.6,1.7v1.7l-0.2,0.8v6.6l-0.3,0.9l-0.2,0.6v0.8l-0.3,0.6v2.3l0.3,0.8v0.9l0.2,0.6v0.8l0.3,0.8l-0.3,0.9l-0.6,0.8l-0.8,0.3
			l-0.6,0.6l-0.9,0.2l-0.8,0.6l-0.6,0.2L237,347l-0.6,0.3l-2.6,0.8l-0.9,0.6l-0.6,0.3l-3.4,1.2l-0.6,0.2l-0.9,0.2l-0.8,0.9l-0.6,0.8
			l-0.3,1.2v1.2l-0.6,1.2v0.9l0.6,0.6l1.2,0.6l0.6,0.8l-0.2,1.2l-0.6,1.7v0.6l-0.2,0.8v1.8l-0.3,0.9v1.6l-0.8,2.6l-0.6,0.8l-1.2,0.3
			l-0.9,0.2l-0.6,0.6L222,373l-1.6,1l0.6,1.2v0.8l-1.6,1.7l-0.6,0.2l-2.6,0.9l-0.6,0.2l-1.7,1.2v0.6l0.3,0.8v2.3l0.8,0.6l1.2,1.2
			l0.9,0.6l1.2,1.2l0.8,0.6l1.2,1.2l0.8,0.6l1.2,1.2l0.9,0.6l0.2,0.9v0.8l0.3,0.8l0.2,1.2l-0.6-0.6l-0.8,0.3l-0.6,0.2h-0.9l-1.7,0.6
			h-0.6l-0.8,0.3l-2.3,1.2l-2,2l-0.6,0.2l-0.6,0.6l-0.6,1.2l0.2,0.9v2.3l-0.6,0.2l-0.2,0.6l-0.6,0.6l-0.6,0.2l-0.6,0.6l-0.3,0.6
			l-0.6,0.9l-0.8,2.6l-0.6,0.9l-1.2,0.2l-1.2-0.6l-1.7-1.2h-1.2l-0.8,0.2h-0.6l-0.9,0.3l-0.6,0.2l-1.6,0.6l-0.6,0.3h-1.7l-0.9-0.6
			v-1.5l-0.2-0.6l-0.8-0.8H192l-1.2,0.6l-0.9,0.2l-0.6,0.3l-0.6,0.6H188l-1.7,0.6l-0.8-0.3h-1.7l-1.7-0.6l-1.2-0.2l-1.7-1.7v-2.3
			l0.3-0.8v-1.7l0.2-0.6l0.6-0.6l0.6-0.2l0.8-0.3l0.9-0.6l0.2-0.6l0.3-0.8l0.2-0.6l0.6-0.9l0.2-0.6l0.6-0.2l0.6-0.6l0.6-0.8
			l-1.2-1.2l-0.2-0.9l-0.6-0.2l-0.8-0.6l-1.2-0.6l-0.9-0.9v-0.8l-0.2-0.6V388l-0.6-0.6l-0.3-0.6l-1.2-1.2l-0.2-0.6l-0.6-0.2
			l-0.6-0.9l-0.2-0.6l-0.6-0.8l-0.3-0.6l-0.6-0.8l-0.2-0.9l-0.3-0.6l-0.6-0.8l-0.2-0.9l-0.2-0.6l-0.3-0.8v-0.8l-0.2-0.9l-0.3-0.6
			v-0.8l-0.8-2.6l-0.2-0.6l-1.2-1.6l-0.3-0.6l-1.2-1.2l-0.6-0.3l-0.6-0.6l-0.6-0.2l-0.2-0.3l-0.3,0.6l-0.6,0.9l-0.6,0.6l-0.2,0.8
			l-0.6,0.6l-0.6,0.9l-0.2,0.6l-0.3,0.8l-0.6,0.8v0.6l-0.2,0.6v2.3l-0.6,1.2l-0.6,0.9l-0.3,0.6l-0.6,0.6l-0.8,0.6l-2.3,2.2l-0.6,0.9
			L157,383l-2.9,2.9l-0.8,0.6l-0.6,1.2l-0.3,0.8v0.8l-0.2,0.9l-0.3,1.2l-1.2,0.6l-1.2,0.2l-1.6,0.6l-0.6,0.6l-0.9,0.3l-0.6,0.6
			l-0.6,0.2l-0.6,0.8l-0.6,0.6l-0.2,0.9l-0.6,0.2l-1.2,1.2l-0.9,0.6l-0.8,0.3l-0.6,0.6l-0.8,0.6l-1.2,1.2l-0.6,1.2l-0.3,0.8
			l-0.6,1.2l-1.2,0.6l-0.6-0.2l-0.6-0.6l-0.6-0.9h-0.6l-1.7,0.6h-0.6l-0.8-0.2h-0.8l-0.9-0.3l-0.6,0.3h-0.8L126,404h-1.2l-4.3-1.4
			l-0.6-0.3l-3.5-1.2l-0.6-0.2l-3.5-1.2l-0.6-0.2l-1.7-0.6l-0.8-0.6l-0.9-0.3l-0.6-0.2l-3.4-1.2l-0.6-0.3l-1.2-0.2l-0.9,0.2h-0.6
			l-0.8,0.3l-0.6,0.6l-0.9,0.2l-0.6,0.3h-1.4l-0.8-0.3l-0.6-0.2l-1.7-0.6l-0.6-0.3l-0.9-0.2l-0.6-0.6l-1.6-0.6l-0.6-0.2l-0.9-0.3
			l-0.6-0.2l-1.2-0.3l-0.8-0.2h-0.9l-0.8,0.2h-0.6l-3.5,3.5h-0.8l-0.9,0.3l-0.2-0.9l0.6-1.2l0.6-0.2l0.8-0.6l0.6-0.9l0.3-1.2
			l0.6-1.6v-1.5l0.8-0.8l0.3-0.6l0.6-0.3v-0.8l-0.3-0.6h-1.2l-0.8-0.8l-0.3-1.2l-0.2-0.6v-0.9l-0.2-0.8v-0.6l-0.6-0.9l-1.2-1.2
			l-0.3-0.8l-0.6-0.6l-0.2-0.8l-0.6-0.6l-0.3-0.6l-0.6-0.6l-0.6,0.6l-0.8,0.2l-0.6,0.2l-0.8,0.3h-0.9l-0.8,0.2V376l-0.6-2.3L71,373
			l-0.8-0.6l-0.6-0.8l-0.2-0.6v-0.9l0.6-0.8l0.6-1.2l0.2-0.9h-0.8l-0.6-0.2l-0.9-0.2l-0.2-0.6l0.2-0.6v-1.5l-0.2-0.8v-0.9l-0.6-0.8
			L65,359l-0.6-1.7l-0.2-0.6l-1.4-4.3v-0.9l-0.9-2.6l-0.2-0.6l-0.3-0.9l-0.2-0.6l-0.2-0.8l-1.2-1.2l-0.6-0.2l-0.6-0.6l-3.5-1.2h-0.9
			l-0.6-0.3l-0.8-0.6l-0.6-0.6l-0.6-0.2l-0.8-0.6l-1.2-1.2l-0.9-0.3l-0.6-0.6l-0.8-0.6l-0.6-0.2l-0.6-0.6l-0.9-0.6l-0.6-0.2
			l-1.6-0.6l-0.9-0.6l-1.7-0.6h-4l-0.9,0.2h-1.4l-0.6,0.2l-0.6,0.6l-0.9,0.6l-0.6,0.3l-0.8,0.6l-0.6,0.2l-0.6,0.6l-0.8,0.6l-0.6,0.3
			l-1.5,1.4l-0.2,0.8l-0.3,0.6l-0.2,1.2v1.2l-0.6,1.2l-0.8,0.6l-0.6,0.3l-1.2-0.3l-0.9-0.2l-1.2-1.2l-0.6-0.8l-0.6-0.6l-0.8-0.6
			l-0.6-0.6l-0.6-0.3H17l-0.3,0.6l-0.2,0.9l0.2,0.8v2.6l0.3,0.9v3.1l0.2,0.8v2.6l0.3,0.6v1.7l0.2,0.8v0.6l0.6,1.7v0.8l0.6,0.6
			l0.6,0.9l0.2,0.6l0.6,0.8l1.2,1.2l0.9,0.2l0.6,0.3l1.7,0.6l0.6,0.6l-0.9,2.6l-0.6,0.6l-0.2,0.6l-0.3,0.9l-0.6,0.6l-0.2,0.8
			l-0.6,0.8v3.1l0.2,0.8v0.8l0.3,0.9v1.4l-0.6,1.7v1.3l-0.3,0.9l-0.6,0.6l-0.8,2.6v0.6l-0.2,0.8l-0.3,0.6v0.9l-0.2,0.8l0.6,0.9
			l0.2,0.8l0.6,0.8H20l-0.9,0.3h-0.8l-1.7,0.6H16l-0.8,0.2h-0.9l-1.6,0.6h-0.9l-1.7,0.6H9.4l-0.8,0.3H8L6.3,396H5.4l-1.6,0.6H2.9
			l-0.8,0.2H1.3L0.7,397l-0.8,0.3H-1l-1.7,0.6h-0.9l-0.8,0.2h-0.8l-1.7,0.6h-0.6l-0.9,0.3h-0.8l-1.7,0.6h-0.8l-1.7,0.6h-0.8
			l-0.6,0.2h-0.9l-1.7,0.6H-18l-1.7,0.6h-0.8l-0.9,0.2h-0.8l-0.6,0.3l-0.8,0.2l-0.9-0.2h-2l-0.9-0.3l-0.6-0.2l-0.8-0.6l-0.6-0.6
			l-0.8-0.2l-0.6-0.6l-0.6-0.9l-1.2-1.2l-0.6-0.8l-0.6-0.6l-0.6-0.9l-1.7-1.6l-0.9-0.3l-0.6-0.6l-0.6-0.2l-0.8,0.2l-0.6,0.6
			l-0.8,0.3l-0.6,0.2l-0.9,0.2l-0.6,0.3l-3.5,1.2l-0.6,0.2h-0.8l-1.7,0.6h-0.8l-3.5,1.2l-3.7,3.7l-0.9,0.3l-0.6,0.2l-0.6,0.6
			l-0.8-0.2h-1.2l-0.6-0.3l-0.8-0.2l-0.6-0.6l-0.6-0.2l-0.9-0.6l-1.7-1.7l-0.8-0.3l-0.2-0.6l-0.6-0.6l-0.3-0.8l-0.8-0.8l-0.9-0.6
			l-0.6-0.3l-4.3-1.4h-0.8l-0.9-0.3h-0.6l-0.8-0.2h-2.9l-0.6,1.7l-0.2,0.6l2.6,7.7v0.8l0.3,0.9l-0.3,0.6v1.6l-0.2,0.9v0.6l-0.3,0.8
			v3.7l0.3,0.9l0.2,0.6l0.3,0.8l0.6,0.9l0.2,0.8l0.6,0.6l0.6,0.8l0.2,0.9l0.6,0.6l0.3,0.8l0.6,0.9l0.2,0.8v0.8l0.3,0.9l0.2,0.6v3.1
			l-0.2,0.8v0.9l-0.3,0.6l-0.2,0.8l-0.3,0.6l-0.2,0.9l-0.2,0.6l-0.3,0.8l-0.6,0.6l-0.2,0.8l-0.6,0.6l-0.3,0.9l-0.6,0.6l-0.2,0.8
			l-0.6,0.9l-0.2,0.6l-0.6,0.8l-0.3,0.6l-0.6,0.8l-0.6,0.6l-0.2,0.9l-0.6,0.6l-0.3,0.8l-0.6,0.6l-0.2,0.9l-0.6,0.6l-0.2,0.8v0.8
			l-1.2,3.5l0.2,1.2l0.6,1.7l1-0.4h0.8l0.8-0.6l0.6-0.6l0.6-0.2l0.9-0.6l0.6-0.6l0.6-0.2l0.8-0.6l0.9-0.3l0.6-0.2h0.8l0.8-0.3
			l0.9,0.3h0.6l0.8,0.2l0.6,0.9l1.5,1.4l0.2,0.6l-0.1,1.1l0.6,0.6l0.6,0.8l0.2,0.6l0.6,0.9l0.6,0.6l0.3,0.8l0.6,0.6l0.8,0.6l1.2,1.2
			l0.6,0.8l2.9,2.9l0.6,0.9l2.3,2.2l0.2,0.9l0.6,0.6l0.2,0.6l0.6,0.6v2.6l-0.8,0.6l-0.6,0.3l-0.8,0.6l-0.6,0.2l-0.9,0.2h-3.5
			l-1.2,0.6l-0.2,0.9l-0.6,0.6l-0.2,0.8l-0.3,0.6l-0.2,1.2l-0.3,0.9v4.5l-0.2,0.9v3.7l0.6,0.6l0.6,0.2l0.8,0.9l1.7,0.6l0.6,0.2
			l1.7,0.6l0.8,0.6l1.7,0.6l0.9,0.6l0.6,0.2l0.8,0.6l0.6,0.6l0.8,0.6l1.2,1.2l0.9,0.6l0.6,0.6l0.6,0.3l0.8,0.6l0.9,0.2l0.8,0.6
			l2.6,0.9l0.6,0.2l0.9,0.2h0.8l0.6,0.3l1.7,0.6l0.6,0.2l1.7,0.6l0.6,0.3l0.8,0.6l0.6,0.2l0.3,0.6l0.6,1.7l0.2,0.6l0.2,0.8l-0.6,0.9
			l-0.6,0.6L-38,510l-0.6,0.6l-0.8,0.6l-0.6,0.6l-0.8,0.6l-0.6,0.6l-0.9,0.2l-0.6,0.6l-0.2,0.9l-0.6,0.6L-44,516l-0.2,0.6l-0.6,0.9
			l-0.2,0.6l-0.6,1.6l-0.3,0.6l-0.6,1.7l-0.6,0.9l-0.2,0.6l-0.6,1.6l-0.3,0.6l-0.6,1.7l-0.6,0.6l-0.8,2.6l-0.2,0.6l-0.6,1.6v1.7
			l0.6,1.7l0.6,0.8l0.6,0.3l1.6,1.2l3.5,1.2l0.6,0.2l0.9,0.6l0.2,0.9l0.2,0.6l0.3,0.8l-0.9,2.6l-0.6,0.6l-0.6,0.9l-0.6,0.6l-0.2,0.6
			l-0.8,0.2l-1.2,1.2l-0.6,0.3l-0.9,0.2l-0.6,0.2l-0.8,0.3H-52l-0.6-0.3l-0.8-0.2h-0.9l-3.5-1.2h-0.8l-0.6-0.2h-3.5l-0.8,0.2h-0.9
			l-0.8,0.2h-2l-0.6-0.2l-1.7-0.6l-0.6-0.6l-0.9-0.6l-0.6-0.8l-0.6-0.6l-0.2-0.9l-0.6-0.6l-0.2-0.8l-0.6-0.9l-0.6-0.6l-0.3-0.8
			l-0.6-0.6l-0.2-0.8l-0.6-0.9l-0.3-0.6l-0.6-0.8l-0.6-0.6l-0.2-0.9l-0.6-0.6l-0.2-0.8l-0.6-0.8l-0.6-0.6l-0.3-0.9l-1.2-1.2
			l-0.8-0.6l-0.6-0.6l-0.9-0.6l-0.6-0.6l-0.8-0.6h-1.4l-0.9-0.2h-0.8l-0.9-0.3h-0.8l-0.8-0.2l-0.6,0.6l-0.6,0.2l-0.6,0.6l-0.9,0.6
			l-0.6,0.3l-0.2,0.8l-0.6,0.6l-0.3,0.6l-0.6,0.9l-0.2,0.6l-0.6,0.8l-1.2,1.2l-0.2,0.8l-0.6,0.6l-2.6,0.9l-1.2,0.2l-0.8,0.3
			l-0.6,0.2h-0.9l-0.8,0.2h-0.8l-0.6,0.3h-0.9l-0.8,0.6l-0.6,0.2l-0.9,0.6l-0.6,0.6l-0.8,0.3l-0.6,0.6l-0.8,0.6l-0.6,0.6l-0.9,0.6
			l-1.2,1.2l-0.6,0.2l-0.8,0.2l-0.6,0.6l-0.6,0.3l-0.9,0.6l-0.6,0.6l-0.6,0.2l-1.6,1.7l-0.3,0.6l-0.6,0.8l-0.2,0.6l-0.3,0.9
			l-0.6,0.6l-0.8,2.6l-0.2,0.6l-0.9,2.6l-0.2,0.6l-0.9,2.6l-0.2,0.6l-0.8,2.6l-0.3,0.6l-0.8,2.6l-0.3,0.6l-0.8,2.6l-0.2,0.6
			l-0.6,1.7l-0.3,0.6l1.7,2.2l0.4,0.4l0.6,0.9v0l0.4,0.6h0.6l0.6,0.6l0.8,0.6l0.6,0.2l0.6,0.6l0.8,0.6l1.7,1.7l0.9,0.6l0.6,0.2
			l0.6,0.6l0.8,0.6l1.2,1.2l0.8,0.6l0.6,0.3l0.6,0.6l0.9,0.6l2.9,2.9l0.8,0.6l2.9,2.8l0.8,0.6l2.9,2.9l0.6,0.9v4l0.2,0.9l0.6,0.8
			l0.3,0.9l1.2,1.6l0.6,0.6l0.8,0.6l1.7,1.7l0.8,0.6l1.2,1.2l0.9,0.6l0.8,0.3l0.6,0.6l0.9,0.2l1.6,1.7l0.6,0.8l1.7,1.7l0.3,0.6
			l0.6,0.6l0.8,0.6l2.9,2.9l0.6,0.2l0.8,0.6l2.9,2.9l0.8,0.6l1.2,1.2l0.6,0.2l0.6,0.6l0.9,0.6l1.2,1.2l0.8,0.3l1.2,1.2l0.9,0.6
			l0.6,0.6l0.6,0.2l0.8,0.6l1.2,1.2l0.8,0.6l0.6,0.3l0.6,0.6l0.9,0.6l1.7,1.6l0.6,0.9l1.2,1.2l0.6,0.8l1.6,1.7l0.6,0.8l1.2,1.2
			l0.6,0.9l1.7,1.7l0.6,0.8l1.2,1.2l0.6,0.8v0.6l0.6,1.7l0.3,0.6l-0.6,0.9l-0.6,1.2l-0.6,0.8l-0.3,0.6l-1.7,1.7l-0.2,0.6l-0.6,0.8
			l0.6,1.2l2.3,2.3l0.8,0.6l3.5,3.5l0.6,0.8l0.8,0.9L-50,669l-0.2,0.8l-0.6,0.6l-0.2,0.9l-0.9,0.6l-0.2-0.9l-0.3-0.6l-0.2-0.8h-0.6
			l0.2,0.8v0.9l0.3,0.8l0.1,0.1l4.1,5.2l2.3,2.3l0.8,0.6l2.9,2.9l0.2,0.8l0.6,0.6l0.3,0.6l0.6,0.9l0.6,1.2l0.6,0.8l1.2,1.2l0.2,0.8
			l1.7,1.7l0.6,0.9l0.6,0.6l0.2,0.6l0.6,0.8l0.3,0.6l0.6,0.8l0.1,0.2l1.8,2.3l0.1,0.1v0l0.7,0.9l0.3,0.1l0.6,0.2l0.1,0l3.1-2.2
			l0.9-0.6l1.6-1.6l0.9-0.6l1.7-1.7l0.8-0.3l1.7-1.6l0.8-0.6l1.7-1.7l0.8-0.6l1.7-1.7l0.3-0.8l0.6-0.6l0.2-0.6l0.6-0.9l0.2-0.6
			l0.6-0.8l0.3-0.6v-0.9l0.6-1.6l0.2-0.6l0.3-0.9v-0.8l0.2-0.9l0.2-0.6l0.6-1.6v-0.9l0.3-0.6l0.6-1.7l0.6-0.6h1.4l2,2l0.2,0.8
			l0.6,0.6l0.2,0.6l0.3,0.9l0.6-0.6l0.6-0.3l0.8-0.6l0.6-0.2h0.9l1.2-0.3H2l0.8-0.2h1.4l2.6-0.8l0.6-0.6l0.6-0.9l0.2-0.6l0.6-0.8
			l0.3-0.6l0.2-0.9l0.2-0.6l0.6-0.8l0.3-0.8l0.2-0.6l0.6-0.9l0.3-0.6l0.2-0.8l0.2-0.6l0.6-0.9v-0.8l0.3-0.6l0.2-0.8v-0.9l-0.2-0.8
			v-3.1l1.2-1.7h0.8l0.6,0.2h3.5l0.8-0.2l0.6-0.3l1.7-0.6l0.6-0.2h0.9l1.6-0.6l0.6-0.2l1.7-0.6h0.9L29,650h1l0.8-0.2h0.8l0.9-0.3
			h0.8l0.9-0.2H35l1.7-0.6h0.8l0.9-0.2h0.8l0.8-0.3l0.9-0.6l1.2-1.2l0.6-0.8l0.2-0.9l0.6-0.6l0.3-0.8l0.6-0.8l0.2-0.6l0.6-0.6
			l0.6-0.9l0.6-0.6l0.6-0.2l1.2-1.2l0.8-0.3l0.6-0.6l0.6-0.2l1.2-1.2l0.6-0.8l0.9-2.6l0.6-0.8l0.2-0.9l0.6-0.8l0.6-0.6l0.6-0.2
			l0.9-0.6l0.6-0.3l1.6,0.6l0.6,0.3l0.9,0.6l0.6,0.2l0.8,0.6h0.9l0.6,0.2l1.2-0.2h0.8l0.6-0.6L66,630h1.3l0.9,0.6l1.2,0.2l0.6,0.8
			l0.2,0.9l0.6,0.8L71,634l0.6,1.7l0.6,0.8l0.3,0.6l0.6,1.7l1.2,1.2l0.2,0.6l0.6,0.9l0.9,0.2l1.2,1.2l0.8,0.6l0.6,0.7l0.6,0.3
			l0.6,0.6l0.6,0.8l2,1.8l0.6,0.8l0.6,0.6l0.3,0.6l1.2,1.2l0.6,0.9l1.7,1.7l0.6,0.8l0.6,0.2l0.8,0.3l0.8,0.6l0.6,0.2l0.9,0.3
			l0.8,0.6l0.6,0.2l0.1-0.1v-3.1l-0.2-0.9l1.2-1.2l0.2-0.6l0.6-0.6l0.9-0.2h2l0.6,0.6l0.3,0.6l1.2,1.2l0.2,0.6l1.2,1.7l0.6,0.6
			l0.2,0.8l0.6,0.8l0.6,0.6l0.3,0.9l0.2,0.6l0.6,1.7l0.3,0.6l1.6,1.6l0.9,0.6l0.8,0.3l0.6,0.6l0.9,0.6l0.6,0.6l0.8,0.6l1.2,1.2
			l0.8,0.6l0.6,0.8l0.6,0.6l0.9,0.3l0.6,0.6l0.8,0.2l0.6,0.2l1.7,0.6l0.6,0.3l1.7,0.6l0.6,0.2l1.7,0.6l0.8,0.6l0.8,0.3l1.2,1.2
			l0.3,0.6l0.2,0.8v0.8l0.3,0.6v0.9l0.6,1.7l0.2,0.6l0.2,0.8l0.3,0.6l0.6,0.8l0.2,0.6l0.3,0.9l0.2,0.6l0.6-0.3l1.2-1.2l0.6-0.8
			l1.7-1.7l0.2-0.8l0.9-0.3l1.2-1.2l0.8-0.2l1.2-1.2l0.8-0.2l1.2-1.2l0.6-0.3l0.9-0.2l0.2-0.9l-0.6-1.2l-0.6-0.2l-0.6-0.6l0.9-0.6
			l0.6-0.2l0.8-0.6l0.8-0.3l0.6-0.6h1.5l0.6,0.3l0.8,0.2l2.3,2.3l0.6,0.2l0.8,0.3h0.6l1.7-0.6l0.3-0.9l0.6-0.8l0.2-0.6l0.6-0.9
			l0.2-0.8l1.2-1.2l1.7-1.2h1.2l2.6,0.8h1.2l0.6-0.8l-0.3-0.8v-2l0.3-0.6l0.8-0.6l1.2,0.3l0.8,0.2l0.6-1.2V661l-0.2-0.9l-0.2-0.6
			l-0.9-2.6l0.3-0.9v-1.6l0.6-0.9l0.2-0.6l0.6-1.7l0.2-0.6l0.3-0.8v-0.8l0.2-0.6v-2.6l-0.2-0.8v-1.7l-0.3-0.8v-1.7L166,640v-1.6
			l-0.2-0.9v-0.8l0.2-0.6v-0.6l0.8-0.3l0.6-0.6l2.6-0.8l0.6-0.2l4.3-1.5l0.6,0.3h1.7l0.6,0.6l0.6,0.2l0.6,0.6l0.8,0.2l0.6,0.9
			l0.3,0.6l0.6,0.8l0.2,0.6l0.6,0.9l0.2,0.8l0.6,0.6l0.6,0.2l1.2,0.3h3.1l0.8,0.2h1l0.8,0.3l1.2,0.2h0.8l0.9-0.2l0.6-0.6l0.2-0.6
			l1.2-1.2l0.3-0.6l0.8-0.3l0.6-0.6l0.6-0.2l0.2-0.3v-0.2l0.6-0.8l0.6-0.6l0.3-0.6l0.6-0.6l0.6-0.9l0.6-0.6l0.2-0.6l0.9-0.2l0.8-0.6
			l3.5-1.2h1.7l0.8-0.3h1.7l0.8-0.2h1.7l0.8-0.2h1.5l1.2-0.3l3.5-1.2l0.6-0.6l0.8-0.2l0.6-0.3l0.8-0.2l0.6-0.2l0.9-0.3l2.3-2.3
			l0.8-0.6l1.2-1.2l0.8-0.6l0.6-0.2l0.9-0.6l2.6-0.8h0.9l2.6-0.9l0.6-0.2l0.8-0.6l0.6-0.3l0.9-0.2l0.6-0.6l0.8-0.2h1.2l0.9-0.3
			l0.6,0.6l0.2,0.9v2.8l-0.6,1.7l-0.6,0.6l0.2,0.6l0.6,1.7l0.6,0.6l0.6,0.8l0.3,0.6l0.6,0.9l1.2,1.2l0.6,0.8l0.6,0.6l0.6,0.3
			l0.6,0.6l0.8,0.2l0.6,0.6l0.6,0.2l0.6,0.6l0.9,0.6v0.9l-0.3,0.6v0.8l-0.6,0.9l-0.6,0.6l-0.6,0.8l-0.6,0.6l-0.6,0.8l-0.8,0.6
			l-0.3,0.6l-0.6,0.9l-0.2,0.6l-1.4,1.4l-0.6,0.3l-0.9,0.2l-0.6,0.2l-0.8,0.3l-0.6,0.2l-0.9,0.3l-1.6,1.6l-0.6,0.9l-0.6,0.6v1.2
			l0.2,0.8l0.2,0.6l0.3,0.9l0.2,1.2v0.8l0.6,1.7v0.8l0.6,0.6l0.6,0.9l0.9,0.6l0.2,0.6l1.7,1.6l0.2,0.6l0.6,0.6v1.2l0.6,1.7l-0.2,1.2
			l-0.3,0.9l-0.6,1.2l-0.2,1.2v1.4l0.6,1.2l0.6,0.8l0.2,1.2v0.9l-0.6,1.7v0.8l-0.2,0.6v1l-0.6,1.6v0.9l-0.2,0.8v1.5l0.2,1.2v1.6
			l1.2-0.2l0.8-1.2h1.7l0.6-0.2l0.9-0.3l0.6-0.2l0.6-0.6l0.6-0.9l1.2-1.2l0.8-0.2l0.6-0.6h1.1l0.6-0.2l0.8-0.3h1.2l0.9,0.3l0.6,0.6
			l0.2,0.6l0.6,0.6l0.8-0.3h2.6l0.6,0.6l0.6,0.9l0.2,0.8l0.6,0.2h0.9l0.6,0.3l0.8,0.6l0.6,0.2l0.8,0.6l0.6,0.3l0.9,0.6l1.2,0.6
			l0.8-0.3h1.7l0.8-0.2h1.2l0.6-0.3l2.6-0.8l0.8-0.6l0.6-0.2l0.9-0.6l0.6-0.3l0.6-0.6l0.8-0.2l0.6-0.6l0.8-0.3l0.6-0.6l0.6-0.2
			l0.9-0.6l0.8-0.2l0.6-0.3l1.7-0.6l0.6-0.2l0.8-0.6l0.9-0.3l0.6-0.2l1.2-1.2l1.7-2.6l0.2-0.9l0.6-0.8l0.2-0.6l0.6-0.9l0.3-0.6
			l0.6-0.8l0.2-0.6l0.6-0.8l0.3-0.6l0.6-0.9l0.2-0.6l0.6-0.8l0.2-0.6l0.6-0.9l0.3-0.6l0.6-0.8l0.2-0.6l0.6-0.8l0.3-0.6l0.6-0.9
			l0.2-0.6l0.6-0.8l0.2-0.6l2.3-2.3l0.6-0.8l0.6-0.6l0.9-0.6l4.5-4.5l0.3-0.6l0.6-0.8l0.2-0.6l0.6-0.6l0.8-0.6l0.6-0.3l0.9-0.2
			l0.8-0.6l0.6-0.3l0.9-0.6l0.8-0.2l0.6-0.2l0.6-0.6l0.8-0.6l1.2-1.2l0.6-0.9l0.3-0.6l0.6-0.8l1.2-1.2l0.2-0.9l0.6-0.6l0.6-0.8
			l0.6-0.6l0.3-0.8l0.6-0.6l0.6-0.9l0.2-0.6l0.6-0.6l0.6-0.8l0.6-0.6l0.2-0.9l0.6-0.6l0.6-0.8l0.3-0.6l0.6-0.8l0.2-0.6l0.3-0.9
			l0.6-0.8l0.2-0.6l0.6-0.9l0.6-0.2l0.6-0.6l0.8-0.2l0.6-0.6l2.6-0.9l0.6-0.2l1.7-1.2l0.6-0.3l0.8-0.6l0.6-0.2l0.8-0.2l0.9-0.6
			l0.6-0.3l0.8-0.2l0.9-0.6l0.6-0.3l0.8-0.2l0.7-0.6l1.7-0.6l1.1-1.8l1.7-0.6l0.6-0.2l0.8-0.6l0.6-0.3l1.7-0.6l0.6-0.2l0.8-0.3h0.6
			l0.9-0.6l0.6-0.2l0.8-0.2l0.6-0.6l1.2-0.3l0.2-0.8l0.9-0.6l0.6-0.6l0.6-0.9l0.6-0.6l0.8-1.6l1.2-3.5l0.3-0.6l0.2-0.9v-0.8l0.8-2.6
			l0.3-0.6l0.6-1.7l0.2-0.6l1.2-1.7l0.6-0.2l0.6-0.6l1.2-0.6l0.9-0.3l0.6-0.6h0.8l0.8-0.2l0.6-0.3l2.6-0.8l0.6-0.2l0.8-0.3h0.9
			l0.8-0.2l0.6-0.3l2.6-0.8l0.6-0.2l0.9-0.3h0.8l0.9-0.2l0.6-0.3l1.6-0.6h0.9l0.8-0.2h0.9l0.8-0.2h0.8l0.9-0.3h1.7l0.8-0.2h0.8
			l0.9-0.3h0.8l0.9-0.2l0.6-0.2l4.3-1.5l0.6-0.2l0.8-0.6l0.9-0.3l0.6-0.2l0.8-0.6l0.6-0.6l0.8-0.6l0.6-0.6l0.6-0.8l0.9-0.6v-0.9
			l1.7-5.1l0.6-1.2l0.2-0.9l1.4-1.4l0.3-0.9l0.6-0.8l0.2-0.8l0.6-0.6l0.3-0.9l0.6-0.8l0.2-0.6l0.8-2.6l0.3-0.6l0.6-1.6l0.2-0.6
			l1.7-1.7l1.2-3.5l0.6-0.8l0.2-0.6l0.3-0.9l0.6-0.8l0.2-0.9l0.3-0.6l0.6-0.8l0.6-1.7l0.6-0.6l0.2-0.8l0.6-0.9l1.2-1.2l0.6-0.8
			l1.2-1.2l0.8-1.2l0.3-0.6l0.6-0.6l0.6-0.8l1.2-1.2l0.6-0.9l0.2-0.6l0.6-0.8l0.3-0.6l0.2-0.9l0.2-0.6l0.6-0.6l0.6-1.6l0.3-0.6
			l0.6-1.7l0.2-0.6l0.6-1.7l0.3-0.6l0.6-0.8l0.2-0.9l0.6-0.6l0.2-0.8l0.6-0.9l0.3-0.6l0.6-0.8l0.2-0.6l0.6-0.8l0.3-0.9l0.6-0.6
			l0.6-0.8l0.6-1.7l0.6-0.8l0.6-1.7l0.2-0.6l0.2-0.9V504l0.3-0.8V502l-0.6-1.2l-0.9-0.3l-2-2v-0.9l-0.2-0.6l-0.3-0.8l0.3-0.8v-0.9
			l0.2-0.8v-1.7l-0.6-1.9v-2.6l-0.6-0.6l-0.2-0.8l-0.3-0.6l-0.2-1.2l-0.3-0.8v-0.9l0.3-0.8V479l0.2-0.8v-1.7l-0.2-0.6v-2.6l-0.3-0.8
			v-4.1l0.3-0.8v-4.1l-0.3-0.8V461l-0.2-0.9v-0.8l-0.2-0.6v-1.7l-0.3-0.8v-3.5l0.3-0.6v-0.8l1.4-4.3l0.2-0.6l1.2-3.4v-0.9l0.3-0.8
			v-1.7l0.2-0.8V438l0.3-0.8v-0.9l0.2-0.8v-1.4l0.2-0.9v-0.8l0.3-0.9v-0.8l0.2-0.8v-1.7l0.3-0.9v-1.6l-0.3-0.9v-1.7l-0.2-0.8v-0.8
			l-0.3-0.6v-1.7l-0.2-0.9v-0.8l-0.2-0.8v-1.7l-0.3-0.9v-0.8l-0.2-0.8v-1.5l-0.3-0.8v-0.9l-0.2-0.8V407l-0.2-0.8v-0.9l-0.3-0.8v-0.8
			l-0.2-0.9v-1.4l-0.3-0.9V394l-0.6-1.6l-0.6-0.6l-0.6-0.9v-0.8l-0.2-0.9v-1.2l0.6-1.6v-0.9l1.2-3.5v-0.6l-0.2-0.8v-2.9l1.2-3.5
			l0.6-0.6l1.2-1.6l0.6-0.6l0.6-0.9l0.6-0.6l0.6-0.8l0.2-0.6l0.6-0.6l0.6-0.3l1.2-1.2l0.8-0.6l0.6-0.2l0.6-0.6l0.9-0.2l1.7-1.7
			l0.8-0.6l1.2-1.2l0.6-0.9l0.6-0.6l0.8-0.6l1.2-1.2l0.9-0.6l1.2-1.2l0.8-0.2l0.6-0.6l0.9-0.6l1.6-1.7l0.9-0.6l3.5-3.5l0.6-0.8
			l1.2-1.2l0.8-0.6l1.2-1.7l0.8-0.8l0.6-0.3l1.7-0.6l0.9-0.6l1.2-1.2l0.8-0.2v-0.8l0.2-0.6l0.3-0.9l0.2-0.6l0.6-0.8l1.2-1.2l0.6-0.9
			l0.3-0.6l0.6-0.8l1.2-1.2l0.6-0.8l0.2-0.6l0.6-0.9l1.2-1.2l0.6-0.8l0.6-0.6l0.2-0.9l1.2-1.2l0.3-0.8l0.6-0.6l0.8-2.6v-0.6l0.6-1.7
			v-1.7l-0.2-0.8v-1.5l0.2-0.6v-0.8l0.6-1.7l0.3-1.2l0.6-0.8l0.6-0.6l0.2-0.9l0.6-0.8l0.6-0.6l0.2-0.9l0.6-0.6l0.6-0.8l0.3-0.6
			l0.6-0.8l0.2-0.9l0.3-0.6l0.6-0.8l0.2-0.9l0.2-0.6l0.3-0.8l0.6-0.8l1.2-1.2l0.6-0.9l0.6-0.6l0.6-0.8l0.6-0.6l0.6-1.7l0.6-0.6
			l0.6-1.7l0.6-0.8l0.2-0.6l0.6-0.9l0.3-0.8l0.2-0.6l1-1.2l0.2-0.6l0.6-0.8l0.6-0.6l0.2-0.6l0.3-0.9l0.6-0.8l0.8-2.6l1.2-1.6
			l0.3-0.9l0.6-0.6l0.2-0.8l0.6-0.9l0.2-0.8l0.3-0.6l0.6-1.7l1.2-1.7l0.8-0.2l0.6-0.2l0.6-0.6l0.9-0.3l1.2-1.2l0.8-0.6l0.6-0.6
			l0.6-0.2l0.8-0.6l3.5-3.5l0.3-0.8l2.2-2.3l0.9-0.6l1.7-1.7l0.8-0.6l0.2-0.6l1.7-1.7l0.6-0.8l0.3-0.6l0.8-0.3l0.6-0.2l0.6-1.8
			l0.6-0.2h0.8l1.2-0.3l0.9-0.2h0.8l1.7-0.6h0.6l2.6-0.9h0.6l0.9-0.6l0.8-0.2l0.6-0.2l1.7-0.6l0.6-0.3l1.7-0.6l0.6-0.2l1.7-0.6
			l0.6-0.3l0.8-0.2h1.6l0.8-0.2h0.6l0.8-0.3h1.7l5.1-1.7h0.8l0.6-0.6l0.6-0.2l1.2-1.2l0.6-0.8l0.6-0.6l0.3-0.6l0.8-0.3l0.8-0.6
			l0.6-0.2l0.9-0.3l1.4-1.4l0.6-0.8l0.6-0.6l0.6-0.9l0.6-0.6l0.9-0.6l2.2-2.3l0.3-0.6l0.6-0.6l0.6-0.8l1.7-1.7l0.6-0.8l0.6-0.6
			l0.2-0.6l1.2-1.2l0.6-0.9l1.7-1.6l0.2-0.9l1.7-1.7l0.6-0.8l1.7-1.7l0.2-0.8l1.7-1.7l0.6-0.8l1.2-1.2l0.2-0.6l0.6-0.9l1.7-1.7
			l0.6-0.8l1.2-1.2l0.3-0.6l0.6-0.8l0.6-0.3l0.6-0.6l0.8-0.2l0.6-0.6l0.2-0.6l1.2-1.2l0.6-0.3l1.2-1.2v-0.2l0.3-0.8v-0.9l1.2-1.7
			l1.2-1.2l0.8-0.6l4.1-4l0.8-0.6l0.6-0.6l0.6-0.9l0.3-0.6l0.6-0.8l0.6-0.6l0.2-0.6v-4.3l-0.2-0.9v-4.9l-0.3-0.8v-5.1l-0.2-0.8v-3.5
			l-0.6-1.7v-0.8l-0.2-0.6l-0.3-0.9v-0.8l-0.8-2.6v-0.8l-0.3-0.6l-0.2-0.8v-0.9l-0.2-0.8v-0.9l-0.3-1.2v-2l0.3-0.8v-0.9l0.2-0.8
			v-0.9l0.6-1.6v-0.9l0.2-0.8v-0.6l0.6-1.7v-0.8l0.6-1.7v-0.9l0.3-0.8v-0.6l0.6-1.7v-0.8l0.6-1.7v-0.8l0.2-0.9v-0.6l0.6-1.7v-0.8
			l0.6-0.8l0.3-0.9l0.6-0.8l0.2-0.9l0.6-0.6l1.2-3.4l0.2-0.6l0.9-2.6l0.2-0.6l0.9-2.6l0.2-0.6l1.2-3.5l0.1-1l0.9-2.6l0.2-0.6
			l1.2-3.5l0.2-0.6l0.9-2.6l0.2-0.6l0.6-0.9l0.6-0.6l0.3-0.8l0.6-0.6l0.6-0.8l0.6-0.6l0.2-0.6l0.6-0.9l0.6-0.6l0.2-0.8l1.2-1.2
			l0.6-0.9l0.3-0.6l0.6-0.8l1.2-1.2l0.2-0.8l0.6-0.6l0.6-0.9l0.6-1.7v-1.6l0.3-0.9v-3.5l0.2-0.8v-3.5l0.2-0.8l-0.2-0.9v-1.2
			l-0.2-0.6l-0.6-1.6l-0.3-0.6l-0.6-0.6l-0.2-0.6l-0.9-0.6l-0.8-0.3l-0.8-2.6l-0.3-0.6l-0.2-0.9l-0.6-0.8l-0.3-0.8v-0.9l-0.6-1.7
			v-4.3l0.3-0.6v-0.8l0.2-0.9v-0.8l0.6-1.7v-0.6l0.3-0.8v-0.9l0.2-0.8v-3.1l-0.2-0.9l-0.3-0.6v-0.8l-0.6-1.7v-0.8l-0.2-0.9l-0.3-0.6
			v-0.8l-0.6-1.7v-0.8l-0.2-0.9l-0.2-0.6v-0.8l-0.6-1.7v-10l-0.3-0.6v-1.6l-0.2-0.9v-0.8l-0.3-0.6V11l-0.2-0.8V9.4l-0.2-0.6l0.2-1.2
			l0.6-1.7l0.2-0.6l0.6-0.9l0.3-0.6l0.2-0.8l0.3-0.6l0.6-0.8l0.2-0.6l2.3-2.3l0.2-0.6l0.6-0.9l0.3-0.6l0.6-0.8l0.2-0.6l1-1.1
			l0.2-0.6l0.6-0.8l0.2-0.9l0.6-0.6l0.3-0.8l0.2-0.6l0.6-1.7v-1.7l0.3-0.8v-3.5l0.2-1.2v-0.6l1.2-3.5l0.2-0.6l0.6-1.6V-26l0.3-0.8
			l0.2-0.6l1.2-3.5l0.3-0.6v-1.7L658-34v-1.7l1-1.3l0.2-0.6l0.6-1.7l0.2-0.6l0.3-0.8l0.6-0.9l0.2-0.8l0.3-0.6l0.2-0.9l0.6-0.8
			l0.2-0.8l0.3-0.6l0.2-0.9l0.6-0.8l0.3-0.9l0.2-0.6l0.2-0.8l0.6-0.8l0.3-0.6l0.8-2.6v-10l-0.2-0.8v-10l-0.3-0.8v-10l-0.2-0.8v-1.7
			l0.2-1.2v-0.9l0.3-0.8l0.2-0.6l0.3-0.8v-0.9l0.2-0.6l0.2-1.2v-2l0.3-0.9l-0.3-0.8v-0.8l-0.2-0.9v-1.7l-0.2-0.8v-0.8l0.2-0.9v-5.1
			l0.2-0.9v-5.1l-0.2-0.9v-1.7l-0.6-1.6v-2.6l0.6-1.7l0.2-0.6l1.5-4.3l0.2-0.6l1.2-3.5l0.3-0.6l0.2-0.8l0.8-1l0.3-0.6l1.2-1.2
			l0.6-0.8l1.2-1.2l0.6-1.4l1.7-0.6l0.8-0.9l0.6-0.8l0.2-0.6l1.2-3.5l0.6-0.6l0.3-0.6l0.6-0.8l0.2-0.6l0.3-0.9l0.2-0.6l0.6-1.7
			l0.2-0.6v-0.8l0.3-0.8v-0.9l0.2-0.8v-0.9l0.6-1.6v-0.9l0.6-0.8l0.3-0.9l0.6-0.8l0.6-0.6l0.2-0.6l0.8-0.6l4.5-4.5l0.6-0.2l1.2-0.6
			l1.4-0.6l0.6-1.7l0.6-0.6l0.3-0.8l0.6-0.9l0.2-0.6l0.6-0.8l0.6-0.6l0.3-0.8l0.6-0.6l0.2-0.9l0.6-0.8l0.2-0.6l0.6-0.9l0.3-0.6
			l0.6-0.8l0.2-0.8l0.6-0.6l0.3-0.9l0.6-0.6l0.6-1.7l0.2-0.6l0.8-2.6l0.6-0.6l0.9-2.6l0.2-0.6v-1.7l0.3-0.6v-0.9l0.2-0.8v-0.8
			l0.2-0.6l0.6-0.9l0.3-0.6l0.2-0.8l0.3-0.6l0.6-0.9l0.2-0.6l0.2-0.8l0.6-0.6l0.6-0.8l0.3-0.9l0.6-0.6l0.6-1.2v-0.8l0.6-1.7l0.2-1.2
			l0.6-0.8l0.3-0.6l0.6-0.9l0.2-0.6l1.2-3.5l0.2-0.6l1.2-3.4l0.3-0.6l1.2-3.5l0.2-0.6l0.6-0.9l0.6-0.6l0.9-0.6l0.6-0.6l0.8-0.6
			l0.8-0.2l0.9-0.6l0.8-0.2l0.6-0.3l0.9-0.6l0.6-0.6l0.8-0.2l0.6-0.6l0.2-1.2l0.3-0.9l0.2-0.6v-0.8l0.3-0.8l0.6-0.9l0.2-0.8v-1.5
			l0.2-0.8v-3.5l0.3-0.8v-2.6l0.2-0.6v-3.4l0.3-0.9v-6l-0.3-0.6v-4.3l-0.2-0.8v-3.5l-0.3-0.9v-0.8l-0.2-0.8v-0.9l-0.2-0.6l-0.3-0.8
			h-5.1l-0.6-0.9l-0.9-0.6l-0.8-2.6l-0.6-0.8l-0.3-0.9l-0.2-0.6l-0.6-0.8l-0.2-0.6l-0.6-0.9l-0.3-0.6l-0.6-0.6l-0.2-0.8l-0.6-0.6
			l-0.3-0.8l-0.6-0.6l-0.2-0.6l-1.4-1.5l-0.6-0.8l-0.6-0.6l-0.9-0.6l-0.6-0.6l-0.8-0.6h-1.5l-0.6,0.8l-0.8,0.6l-0.6,0.9l-0.6,0.6
			l-0.8,0.6l-1.2,0.6h-3.1l-0.6,0.6l-0.2,0.8v0.6l-0.6,0.6h-0.8l-1.2-0.6l-0.9-0.2h-0.8l-0.6,0.2H694l-0.8,0.2h-2.6l-0.9,0.3h-2
			l-1.2-0.3l-0.9,0.3l-0.2,0.6l-0.6,1.7v0.8l-0.6,1.7l-0.2,1.2l-0.6,0.6l-0.3,0.8l-2.6,2.6l-1.7,0.6l-0.6,0.6l-0.8-0.3h-1.7
			l-1.2-1.2l-0.3-0.6l-0.6-1.7l-0.2-0.6l-0.6-1.6v-0.6l-1.4-1.5l-0.9-0.6l-0.6-0.2l-2.6-0.9l-0.6-0.2h-4.1l-2.6,1.4h-0.6l-0.9,0.3
			l-0.6,0.2l-0.8,0.3l-0.6,0.6l-0.9,0.2l-0.6,0.2h-0.8l-0.6,0.3l-1.2-0.6l-0.8-0.3l-0.6-0.6l-0.6-0.2l-0.9-0.6l-0.6-0.2l-0.6-0.6
			l-0.8-0.3l-0.6,0.6l-0.6,0.3l-0.9,0.6l-0.8,0.2l-0.6,0.2l-0.8,0.3l-0.6,0.6h-0.9l-0.6,0.2l-0.8,0.3l-0.9-0.3H639l-0.2-1.2
			l-0.3-0.8l-0.2-0.6l-0.3-0.9v-0.8l-0.2-0.6l-0.6-0.8l-0.2-0.6l-0.6-0.6l-0.3-0.6l-0.6-0.6l-0.8-0.6l-0.9-0.3l-1.2-0.2l-0.6,0.2
			h-0.8l-0.6,0.3h-1.2l-0.8-0.6l-1.2-1.2l-0.6-0.3H626l-0.6,0.3l-0.8,0.2H614l-1.1-0.7h-0.8l-0.9-0.3h-1.4l-0.8-0.6l-2.6-0.8
			l-0.6-0.6l-0.8-0.6l-0.6-0.2l-1.7-1.7l-0.6-0.3l-0.6-0.6l-0.6-0.2l-0.8-0.2h-0.9l-0.6-0.3v-0.8l-0.2-0.9l-0.6-0.2l-0.9-0.2h-0.8
			L595.3-300z"/>
	</defs>
	<clipPath id="polyline19_1_">
		<use xlink:href="#polyline19"  overflow="visible"/>
	</clipPath>
	<g id="g3766" clip-path="url(#polyline19_1_)">
		<path id="green_area" fill="#009543" d="M-130.5-300V700l574-1000H-130.5z"/>
		<path id="red_area" fill="#DC241F" d="M730.5-300V700h-574L730.5-300z"/>
		<path id="yellow_area" inkscape:connector-curvature="0" fill="#FBDE4A" d="M443.5-300l-574,1000h287l574-1000H443.5z"/>
	</g>
</g>
</svg>
