<?xml version="1.0" encoding="UTF-8" standalone="no"?>
<svg
   xmlns:dc="http://purl.org/dc/elements/1.1/"
   xmlns:cc="http://creativecommons.org/ns#"
   xmlns:rdf="http://www.w3.org/1999/02/22-rdf-syntax-ns#"
   xmlns:svg="http://www.w3.org/2000/svg"
   xmlns="http://www.w3.org/2000/svg"
   xmlns:sodipodi="http://sodipodi.sourceforge.net/DTD/sodipodi-0.dtd"
   xmlns:inkscape="http://www.inkscape.org/namespaces/inkscape"
   version="1.1"
   width="631.35547"
   height="599.99805"
   viewBox="0 0 6.3135547 5.9999805"
   id="svg2"
   inkscape:version="0.91 r13725"
   sodipodi:docname="Flag_of_Costa_Rica.svg">
  <metadata
     id="metadata14">
    <rdf:RDF>
      <cc:Work
         rdf:about="">
        <dc:format>image/svg+xml</dc:format>
        <dc:type
           rdf:resource="http://purl.org/dc/dcmitype/StillImage" />
        <dc:title></dc:title>
      </cc:Work>
    </rdf:RDF>
  </metadata>
  <defs
     id="defs12" />
  <sodipodi:namedview
     pagecolor="#ffffff"
     bordercolor="#666666"
     borderopacity="1"
     objecttolerance="10"
     gridtolerance="10"
     guidetolerance="10"
     inkscape:pageopacity="0"
     inkscape:pageshadow="2"
     inkscape:window-width="1600"
     inkscape:window-height="837"
     id="namedview10"
     showgrid="false"
     fit-margin-top="0"
     fit-margin-left="0"
     fit-margin-right="0"
     fit-margin-bottom="0"
     inkscape:zoom="1.0963138"
     inkscape:cx="37.736595"
     inkscape:cy="489.09317"
     inkscape:window-x="-8"
     inkscape:window-y="-8"
     inkscape:window-maximized="1"
     inkscape:current-layer="svg2" />
  <path
     style="fill:#ffffff;stroke:#ce1126;stroke-width:0.01;stroke-opacity:1"
     d="m 0.54746094,0.99998047 0.001055,0.00502 0.00498,0.023516 -0.003086,0.00732 -0.0213086,0.014121 -0.0138086,-0.00359 -0.001328,0.00389 0.004707,0.00654 -0.001113,0.00225 -0.004609,0.00941 -0.009512,7.62e-4 -0.007871,0.0099 0.007793,-3.52e-4 0.008184,0.00354 0.00127,0.00348 -0.007012,0.011211 -0.009512,-5.27e-4 -0.003945,0.00646 -0.004316,-4.69e-4 -0.006152,0.01166 0.007305,0.00525 -0.004883,0.015547 -0.0165039,0.00982 5.273e-4,0.00252 2.93e-4,0.00139 0.002559,9.57e-4 0.008223,0.00305 0.003945,-0.00646 0.0160352,-0.00463 0.004434,-0.012949 0.006934,-0.00297 1.758e-4,-0.02168 0.009746,-0.00189 0.009297,-0.00182 0.0130664,-0.011601 0.008691,-0.00338 0.0366406,0.012891 0.006426,0.00654 0.00209,0.00652 -0.002695,0.015137 -0.0108398,0.00424 -0.006992,0.00645 -0.003594,0.017734 -0.0129492,-0.00229 -0.002285,0.014727 -0.003965,0.00861 -0.005215,0.0043 -0.0211523,-0.00408 -0.004355,0.00604 -0.0146875,-0.00143 -8.789e-4,0.00127 -0.001445,0.00217 -0.001191,0.00174 0.00332,0.015625 -0.005215,0.00516 -0.0143164,0.00637 -0.0199024,0.00156 -0.001309,0.00301 0.007227,0.013926 -0.001758,0.00434 0.001699,0.00391 -0.010918,0.014199 -0.007793,3.71e-4 -0.007734,-0.00525 -0.00125,-0.00391 -0.003164,0.00303 -0.0142578,0.013711 -0.0216601,0.00805 -0.0352539,0.02959 -0.0125391,3.32e-4 -0.002949,-0.00258 -0.008633,-0.0075 -0.004668,-0.011309 -0.009082,0.00166 -0.0125,-0.00398 -0.0113086,0.00855 3.906e-4,0.00348 -0.005664,0.00775 8.008e-4,0.00693 -0.007813,0.00557 -0.005703,0.010781 -0.0289844,0.00496 -8.984e-4,0.00391 0.0133203,0.0092 0.005527,0.010879 -0.007402,0.0073 0.009844,0.010469 3.125e-4,0.015254 0,3.52e-4 3.516e-4,3.51e-4 0.004375,0.00445 0.008633,0.00137 0.004277,0.0035 -0.002188,0.0052 0.00584,0.00379 0.00834,0.00541 0.003691,0.025156 0.006426,0.00613 -0.001836,0.014707 -0.009609,0.014648 -0.0112891,0.00598 -0.004688,-0.00914 -0.0120703,-0.00141 0.00498,0.025176 -0.004805,0.017168 -0.005859,0.020879 -0.006953,0.00773 -0.007363,0.00383 -0.021582,-0.00363 -0.003828,-0.00871 -0.005156,-0.00178 -0.00207,0.00504 -0.004102,0.010078 -0.004785,0.00559 -0.005625,0.00125 -0.01625,0.033223 -0.006504,0.00385 -0.003574,0.015137 -0.004355,0.00646 -0.007773,-9.38e-4 -0.005254,0.00906 -0.005996,-0.00656 -0.006465,3.91e-4 -0.0125977,0.009 -0.007051,0.016836 8.398e-4,0.00607 0.004727,4.69e-4 0.006445,0.00654 0.004766,-0.00213 0.004277,0.00568 0.009043,0.00311 0.005957,0.010449 0.0154297,0.016152 0.001191,0.00197 0.009043,0.015 0.007598,0.022148 -0.00873,0.013359 -0.004863,0.00443 -0.0182031,0.016621 0.0105078,0.037344 -0.005762,0.019004 0.001582,0.019082 0.0216406,0.047832 -5.664e-4,0.017324 0.004629,0.019102 -0.001387,0.01082 0.0208594,0.028379 0.008613,0.011719 0.0175,0.03875 1.04964836,0 -0.00381,-0.014883 -0.00135,-0.00535 0.00137,-0.00865 0.00607,-0.00297 0.00221,-0.00475 -0.00322,-0.022988 0.00527,-0.010352 -0.00498,-0.018672 0.00111,-0.025976 0.00443,-0.01252 -0.00494,-0.023457 -0.039395,-0.03377 -0.015449,-0.00881 -0.020684,-0.00455 -0.00219,-0.00258 -0.00336,-0.00396 -0.00201,-0.014766 0.00666,-0.017695 6e-5,-0.00691 -0.00465,-0.00914 -0.023613,-0.014981 -0.011055,-0.017871 -0.014531,-0.015742 -0.016777,-0.00711 -0.00863,3.51e-4 -0.023418,0.011035 -0.014219,-0.00361 -0.00783,0.00557 -0.00645,-0.00182 -0.00768,-0.010898 -0.012012,-0.00748 0.014258,-7.23e-4 0.012871,0.00965 0.01002,-0.00941 0.00777,-0.00211 0.052676,0.00141 0.01457,0.013144 0.00547,0.013926 0.00812,0.00744 0.010332,0.00314 0.029102,0.029316 7.81e-4,0.00867 -0.011016,0.021563 0.00156,0.00162 0.00611,0.00625 0.018086,0.00625 0.02791,0.015449 0.010703,0.0092 0.011621,0.00445 0.00121,0.00781 0.014101,0.014004 0.011582,0.019082 3.12e-4,5.47e-4 0.00203,0.013008 -0.00402,0.013828 -0.00695,0.00383 0.010996,0.023496 0.00369,0.019551 0.015391,0.014883 0.01457,0.00969 0.014219,0.00318 0.011152,0.00574 0.016367,0.00451 0.00564,-0.00297 0.016152,0.00254 0.00754,0.00117 4.1e-4,2.15e-4 0.019356,0.010391 0.013398,-0.00158 0.00684,0.00439 0.00861,0.00139 0.00514,0.00525 0.013848,-0.00332 0.011367,-0.014609 0.028164,-0.011816 0.0125,0.0023 0.00986,0.00791 0.033965,0.012051 0.011699,-0.00463 0.00406,0.00992 5.66e-4,0.00139 -0.00135,0.00291 3.4335351,0 -0.064844,-0.077051 -0.023164,-0.035078 -0.00764,-0.00705 -0.00396,0.00469 0.017969,0.036953 0.00605,0.018203 -0.00152,0.00348 -0.00375,-0.00125 -0.00998,0.00508 -6.45e-4,-0.00467 0.00627,-0.016836 -0.0016,-0.00703 -0.010078,-0.016543 -0.011445,-0.012344 5.27e-4,-0.00561 -0.00549,-0.00703 -0.00328,-0.010039 -0.044649,-0.066191 -0.060078,-0.074707 -0.00809,-0.00705 -0.00227,0.00732 -0.028594,-0.02 -3.12e-4,-0.00582 0.00557,0.00158 0.00936,0.00838 0.0073,0.00145 5.86e-4,-0.00867 -0.046309,-0.046289 -0.018477,-0.032812 -0.048535,-0.068418 -0.01125,-0.011973 -0.00531,-0.00564 -0.020898,-0.042813 -0.035801,-0.056074 -0.033535,-0.064258 -0.020644,-0.031543 -0.00221,-0.00553 -0.00859,-0.021523 -0.00609,-0.023926 -0.00633,-0.00965 -0.03541,-0.083359 -0.00357,0.00689 0.027344,0.074981 -0.00188,0.00777 -0.0067,-0.013125 -0.026621,-0.06457 0.00338,-0.021602 -0.00145,-0.017363 -0.017617,-0.034082 -0.00408,-0.016113 -0.021133,-0.047461 -0.018516,-0.041582 -0.010977,-0.0341006 -3.89189458,0 z M 1.589043,1.9940625 l -0.00172,0.00592 0.015469,0 -0.00428,-0.00408 -0.00947,-0.00184 z m 2.6082031,2.005918 0.00592,0.010645 0.011973,0.00408 0.00248,0.00697 -0.00184,0.00734 0.024688,0.015976 0.01166,0.024434 0.00773,-3.12e-4 0.00787,-0.00854 0.014922,0.00848 0.015996,0.021914 0.00725,0.00357 0.012871,0.00107 0.00346,0.00787 0.00152,0.00346 0.00943,0.00189 -6e-5,0.00346 -0.00652,0.00467 -0.0015,0.014687 0.00615,0.018281 0.024785,0.00863 -6e-5,0.00346 -0.022754,-8.01e-4 -0.0065,0.00293 -0.00408,0.01291 2.93e-4,0.00953 0.00801,0.014102 0.012676,0.00961 0.0076,0.00965 0.00281,0.012168 0.013223,0.00629 0.00941,0.00232 0.016406,-0.00449 0.012441,0.00107 0.017793,0.016309 0.053672,0.029883 0.024023,0.00213 0.017949,0.00506 0.01209,0.00654 0.00684,-0.00623 0.00469,0.00139 -0.0066,0.00984 -0.00604,0.00164 -0.022578,-0.011641 -0.01502,-0.00154 -0.01123,0.00326 -0.00266,0.00602 -0.031855,-0.024336 -0.03418,-0.013105 -0.011348,-0.015352 -0.00514,-9.37e-4 -0.015527,0.00408 -0.013301,-0.00152 -0.01957,-0.012012 -0.00328,-0.00555 -0.00678,-0.011504 -4.69e-4,0.00518 -5.86e-4,0.0065 0.01002,0.019199 0.00191,0.016055 -0.00521,0.030645 0.00199,0.00869 -0.00531,0.011172 -0.023086,0.019961 -0.00486,0.00816 3.32e-4,0.00563 0.00426,0.00354 0.00687,-7.62e-4 0.018281,-0.014414 0.00725,0.00229 0.00383,0.00266 0.00324,0.012168 0.00426,0.00311 0.027949,0.00797 0.00584,0.00166 3.52e-4,0.00521 -0.0048,0.00467 -0.009,-5.66e-4 -0.011465,-0.00973 -0.017949,-0.00461 -0.00674,-0.00877 -0.00137,0.00387 0.00328,0.010879 0.0068,0.00531 0.01709,0.0059 0.00561,-0.00164 0.031484,0.02 0.00697,-0.00594 0.00754,-0.015898 0.016484,-0.00924 0.01334,-0.00195 0.015879,0.00199 0.00312,0.00354 0.00193,0.00219 -0.00186,0.00861 -0.011602,6.84e-4 -0.014531,-0.00588 -0.00689,0.00119 -0.00793,0.012422 0.00375,0.00785 0.011484,0.00754 0.0048,0.023027 -0.01709,-0.00635 -0.00633,-0.00789 -0.012363,-0.00625 -0.049707,-0.00773 -0.01877,-0.00811 -0.013203,-0.00965 -0.00158,0.020664 -0.012461,0.02793 0.036504,-2.73e-4 0.023398,0.015098 0.00857,0.00187 0.00527,0.019121 0.0085,0.00707 0.00342,6e-5 0.00178,-0.00387 -0.00486,-0.017812 0.00232,-0.012519 0.00781,-0.00463 0.00771,9.77e-4 0.00928,0.010976 0.01084,0.00432 0.00281,0.00111 0.021562,-0.00482 0.021367,0.00684 0.012637,-0.010605 0.00898,0.00188 0.01168,-0.00586 0.00594,0.00486 -0.010508,0.012383 7.42e-4,0.00779 0.0051,0.00268 0.019121,-0.013086 0.024922,-2e-5 0.0065,-0.00465 0.00311,-0.00602 0.00766,0.00402 0.0033,0.00871 -0.00525,0.00555 -0.034434,0.00504 -0.020859,0.014805 -0.00473,7.81e-4 -0.00893,-0.00664 -0.00734,0.00248 -0.00576,0.012461 5.86e-4,0.016445 -0.01207,0.030098 -0.016055,0.010566 -0.014668,0.00363 -0.00398,0.0073 0.0015,0.013438 -0.00613,0.00682 -0.00643,-9.57e-4 -0.00906,0.00287 -0.00766,-0.00445 -0.00336,-0.00438 9.18e-4,-0.00389 0.00984,0.00191 0.00443,-0.00816 -7.03e-4,-0.00996 0.00406,-0.012051 0.01084,-0.00674 0.015039,-1.95e-4 0.00863,-0.00332 0.00965,-0.012383 0.00687,-0.027598 0.012441,-0.025332 -0.00121,-0.0052 -0.012129,0.00672 -0.01666,-0.00547 -0.010781,0.00328 -0.033945,7.23e-4 -0.00977,-0.00795 -0.00396,0.00643 0.00328,0.00959 0.017832,0.013711 0.00668,0.012227 -0.00564,0.00338 -0.012324,-0.00799 -0.013301,-0.00109 -0.023008,-0.011641 -0.014219,0.00412 -0.00563,0.00162 -0.00707,0.012012 -0.01043,0.00891 -0.01123,0.00371 -0.00701,0.00941 -0.00953,0.00461 -0.046738,0.050312 0.024512,0.026367 0.00857,0.00102 0.015606,-0.010566 0.00488,-0.00943 0.00643,-0.025879 0.019258,0.00379 0.029629,4.88e-4 0.00863,-0.00332 0.0041,-0.015078 0.00355,-0.00645 0.00301,6e-5 0.00145,0.016894 0.00779,-0.0042 0.0034,0.00223 0.0041,0.012187 -0.014785,0.011445 -0.014941,-0.00545 -0.018555,0.00576 -0.02668,0.00346 -0.00262,0.00211 0.010039,0.01748 -5.08e-4,0.0052 -0.00979,-0.00623 -0.011016,0.018438 -0.016875,0.00707 -0.021465,9.57e-4 -0.00437,0.00426 -0.00312,0.00773 -1.76e-4,0.012129 0.00396,0.020391 0.00387,-3.52e-4 0.00207,-0.00236 0.00316,-0.00361 0.00686,9.77e-4 0.00463,0.00613 -0.00701,0.00941 -0.012969,0.005 -0.010059,0.011953 -0.00629,0.018496 0.00223,0.02168 -0.00627,0.017637 -0.00658,0.00855 -0.00863,0.00332 -0.056289,0.00342 -0.019004,0.00662 -0.014883,0.012695 -0.00555,0.00473 -0.00443,0.010742 -0.00447,0.039746 -0.00355,0.006 -0.013379,0.00498 -0.010059,0.013262 -0.00412,0.016387 -0.012793,0.023594 -5.47e-4,0.00691 0.016367,0.024922 0.00564,0.023457 0.00629,0.010059 0.00697,-0.00725 0.0082,-0.00377 0.0018,0.00475 6.84e-4,0.0018 0.020078,0.00594 0.022773,0.023711 0.6745703,0 -4.1e-4,-3.91e-4 -0.050762,-0.019063 -0.025391,0.00389 -0.014336,-0.014512 -0.012012,2.15e-4 -0.012773,-0.00715 -0.016074,-0.014121 -0.021055,-0.02459 -0.021172,-0.017246 -0.00844,-0.00879 -0.00393,-0.00846 -0.00785,-0.00604 -0.00111,-0.01084 0.0065,-0.030195 -0.01416,-0.026641 -0.014434,-0.010195 -0.013906,-0.01582 -0.011465,-0.00842 -0.0073,3.12e-4 -0.00652,0.00553 -0.00508,-0.00529 0.00797,-0.015 -0.00119,-0.00521 -0.00721,-0.00576 -0.00814,-9.96e-4 -0.00828,0.00807 -0.00682,-0.00313 -0.00412,-0.010469 0.00244,-0.019004 0.011016,-0.01668 0.011562,0.00191 0.00564,-0.00338 0.00268,-0.00559 0.011152,-2.34e-4 0.014941,0.005 0.02791,4.88e-4 0.00191,0.00691 0.00133,0.00482 0.010254,0.00234 0.014219,-0.00322 0.016934,-0.010977 0.017559,-0.023926 0.00643,9.76e-4 0.0065,-0.00336 0.00424,0.00398 0.00117,0.00779 0.00812,5.86e-4 0.00391,-0.00254 0.00189,-0.010781 0.00912,-0.00592 5.47e-4,-0.00777 0.00738,-0.00465 0.00381,0.00268 0.00146,0.014727 0.00299,0.0018 0.018438,0.00162 0.01623,0.00504 0.00438,-0.00555 0.00812,0.00188 0.00271,0.00342 0.00906,0.011484 0.010703,0.00193 0.0042,0.0057 0.006,1e-4 0.00961,-0.00936 0.011934,0.00627 -0.00289,0.018125 -0.010859,0.00848 -6.64e-4,0.012969 -0.00537,0.012891 0.00572,0.017422 -0.00615,0.00768 0.00424,0.00396 0.011094,0.0041 0.00375,0.00742 0.00639,0.00312 0.012852,0.00152 0.00766,0.00402 0.018438,0.023242 0.00594,0.00748 0.013906,-0.010137 0.010332,-0.00113 0.026875,0.00914 0.015117,-0.00535 0.00553,0.00268 0.00938,0.02916 0.012949,0.021445 0.00598,0.00184 0.00982,-0.022773 0.026172,8.99e-4 0.00725,0.00316 0.00162,0.00479 -0.00398,0.00773 0.00295,0.00307 0.00812,0.00187 0.00178,-7.42e-4 0.0073,-0.00299 0.010996,0.00928 0.018418,0.00121 0.00635,0.00574 0.00643,5.47e-4 0.00648,-0.00293 0.004,-0.00814 -6.64e-4,-0.01082 -0.00291,-0.00568 -0.012812,-0.00457 -3.71e-4,-0.0026 0.00348,-0.0034 0.00559,5.27e-4 0.00549,0.00572 0.00867,-0.0059 0.00967,0.012285 0.017441,0.00811 0.036133,0.045644 0.00238,0.00916 0.00203,0.00781 0.00381,0.00223 0.0091,-0.00416 0.011914,0.00584 7.62e-4,0.00521 -0.0066,0.00939 -0.00721,-0.00488 -0.010293,-6.25e-4 -0.010059,0.010644 -0.026426,0.015527 -0.00834,-0.015293 0.010117,-0.013672 -0.00799,-0.00924 0.00836,-0.012383 -0.00117,-0.00609 -0.011543,-0.00324 -0.00635,-0.00529 -0.00439,-0.017832 -0.00854,-0.00361 -0.00207,0.00396 -0.013027,0.025195 0.00275,0.014316 0.042969,0.058691 0.6224219,0 0.00182,-0.00463 -3.12e-4,-0.011973 -0.011074,-0.025254 9.37e-4,-0.03334 -0.00916,-0.010195 -9.96e-4,-0.00559 0.012402,-0.014219 0.00141,-0.013867 -0.00982,-0.019395 -0.01957,-0.028203 -0.015684,-0.015332 -0.00488,-0.019004 -0.01377,-0.014746 -0.00424,-0.022051 -0.00566,-0.00707 -0.025117,-0.013027 -0.029082,-0.021719 -0.012617,-0.03168 -0.025625,-0.030547 1.37e-4,-0.00611 0.00623,-0.00879 7.03e-4,-0.00721 -0.00113,-0.00283 -0.00514,-0.012832 0.00871,-0.00662 0.00182,-0.00137 0.031953,-0.00758 0.00266,-0.022305 0.033594,-0.01498 0.0074,-0.00537 0.00158,-0.00117 0.00541,-0.010313 1.76e-4,-0.00895 -0.025391,-0.025117 -0.00352,-0.00902 0.00398,-0.014824 0.016875,-0.019141 0.00508,-0.00576 0.015742,-0.010117 0.013418,-0.00496 0.049707,-0.00719 0.013438,-0.00494 0.015137,-0.016836 0.00971,-0.00428 0.066133,-0.013555 0.011992,-0.00721 0.00973,-0.012871 2.54e-4,-3.32e-4 0.009,-0.011016 0.013105,-0.02582 0.029512,-0.015859 0.026621,-0.014297 0.00318,-0.011133 -0.00105,-0.020137 -0.025703,-0.022773 -0.011367,-0.010059 -0.00203,-0.00646 -0.011191,-0.035566 -0.00723,-0.00834 -0.033574,-0.023809 -0.069219,-0.017832 -0.028984,-0.031895 -0.01582,-0.010039 -0.011953,-0.00758 -0.069453,-0.044004 -0.011563,-0.015156 -0.022129,-0.040703 -0.011055,-0.0032 -0.011875,0.00125 -0.054648,0.029473 -0.00211,-0.00143 -0.00105,-7.03e-4 -0.00486,-0.00324 -0.00424,-0.010527 -0.00123,-0.024733 -1.4100781,0 z m 0.093027,0.1008789 -0.00906,0.00158 0.016191,0.04666 0.00314,0.00906 0.0024,0.06584 -0.0017,0.027246 0.0042,0.00613 0.00729,9.77e-4 0.00836,-0.011973 0.00779,-0.00377 0.00225,-0.00602 -0.015137,-0.048301 -0.00111,-0.011719 0.00332,-0.019863 -0.012441,-0.029199 1e-4,-0.00736 -0.00617,-0.016973 -0.00941,-0.00232 z m 0.029121,0.1718945 -0.0091,0.00463 0.00674,0.035605 0.0034,0.00307 0,2e-5 0.0065,-0.00293 0.00482,-0.00643 0.00191,-0.012519 -0.00787,-0.018301 -0.00641,-0.00314 z m -0.5076953,0.4248243 -10e-5,0.00865 -0.00486,0.00857 0.00332,0.00654 0.00895,0.00402 2e-5,2e-5 0.010762,-0.00113 0.00695,-0.00596 0.012676,-0.01582 -0.00125,-0.00305 -0.036465,-0.00186 z"
     id="path6"
     inkscape:connector-curvature="0" />
  <path
     style="fill:#002b7f;fill-opacity:1"
     d="m 0.63392578,0 -0.009219,4.2968745e-4 -0.007168,0.005722653 -0.006035,0.02363282 -0.008047,0.01519531 -0.005664,0.0090039 -0.0591016,0.09410157 -0.00752,0.0170312 -0.0312695,0.048418 -0.030918,0.0558203 0.0154883,-6.836e-4 0.0111719,0.0113672 0.009492,0.003555 0.0111523,0.0117969 0.004063,0.0316797 -0.002207,0.008203 -0.005703,0.008184 -0.0108594,0.003809 -0.0100391,0.009004 -0.0160352,0.004629 -0.0406445,-0.007715 -0.003438,-0.003066 -0.00252,-0.009551 -0.006406,-0.005879 -0.0107812,-0.009863 -0.004355,0.003867 -0.0116797,-0.001836 -0.006953,0.004277 -9.18e-4,0.004316 0.004707,0.006973 -0.002207,0.004316 -0.0147266,-1.172e-4 -0.0144336,0.0198047 0.0158594,0.0196289 0.0155273,0.006641 0.009902,0.007441 0.0138476,0.001426 0.006895,0.003965 0.0290234,0.0341211 0.0174414,0.008984 0.004668,0.002402 0.007734,0.006563 0.003848,0.008711 -0.001836,0.013418 -0.006992,0.007734 -0.0155859,7.422e-4 -0.007383,0.003398 -0.003125,0.009512 -0.0159765,-0.003184 -0.004277,0.009062 0.0278711,0.0145312 0.002539,0.006973 -0.004375,0.007754 -0.0121484,0.003809 -1.563e-4,0.0186328 -0.004355,0.004727 -0.009512,-0.001387 -0.008613,-0.007012 0.002227,-0.008203 -0.005137,-0.007402 -0.005371,-6.445e-4 -0.002402,-2.93e-4 -0.004355,0.002988 -0.006445,-0.005684 -0.009922,-0.003125 -0.0121289,3.32e-4 -0.006094,0.005586 -0.016875,-0.002305 -0.00957,0.007715 -0.004258,-0.01 -0.006465,-0.002227 -0.0173242,0.001152 -0.003496,0.005605 -0.008203,-0.003535 -0.007461,0.0133789 -0.009531,-9.8e-5 -0.001328,0.004766 0.0145898,0.015293 0.002109,0.006523 -0.001758,0.006035 -0.006973,0.004297 -0.0164453,-0.001016 -0.0120312,-0.010918 -0.006016,-7.031e-4 -0.006074,-7.031e-4 -0.005586,-0.005254 -0.00418,-0.0195313 0.008711,-0.007285 -8.203e-4,-0.006074 -0.0120117,-0.0126758 -0.006953,0.00168 -0.0107422,-0.007012 -0.013418,-9.766e-4 -0.006973,0.005137 -0.0372852,-0.006836 -0.0145703,-0.002676 -0.005215,0.002988 -0.0203516,2.734e-4 0.0293164,0.0158203 0.007715,0.009609 -0.001152,0.002285 -0.008965,0.0179883 -0.0221094,0.00459 -0.003945,0.007344 -0.005664,0.003848 -0.0164453,0.002031 -0.01130859,0.005977 -0.02771484,0.004121 -0.006543,0.006875 -0.0085156,0.004414 -0.0079883,0.004121 -0.02470704,0.00502 L 0,0.61832031 l 0.00992188,0.003555 0.03121093,-0.007988 0.0048047,-0.003555 0.002168,-0.001602 0.0070117,-2.539e-4 0.0029492,-9.8e-5 0.01638672,0.006191 0.0098828,0.008301 0.05003906,0.0216406 0.0228906,0.00668 0.006445,0.005254 0.0135351,0.0335742 0.0497852,0.001172 0.0203516,0.008867 0.002949,0.001289 0.0142578,9.766e-4 0.0213867,-0.005918 0.002891,-8.008e-4 0.0115039,0.0226172 -4.687e-4,0.002715 -8.789e-4,0.005078 -0.0276562,-0.005859 -0.001816,0.013418 0.003379,0.008242 0.006465,0.004824 0.005137,0.008711 0.003359,0.0112891 0.008652,-3.516e-4 0.0267578,0.008457 0.0232422,0.0140625 0.001621,-0.002383 0.008184,-0.0120703 0.001582,-0.002344 0.0125977,-0.006387 0.01125,-0.001191 0.0151562,1.172e-4 0.0163477,0.0105469 0.0164648,-0.002891 0.007344,9.375e-4 0.006426,0.006543 0.013418,-7.422e-4 0.008145,0.0100195 0.0264063,-0.002363 0.008906,0.0217383 0.008535,0.0126367 0.0210547,0.0196875 0.0117773,0.0178711 6.055e-4,8.789e-4 -9.766e-4,0.0121289 -0.009336,0.0306836 0.002422,0.0195117 -0.004707,0.0143359 0.00957,0.0255859 0.008125,0.0383203 3.89189452,0 -0.00221,-0.006855 -0.022051,-0.0541016 -0.00256,9.766e-4 -0.00396,0.001523 -0.00645,0.0245898 -0.00266,0.002559 -0.01209,-0.001055 -0.00725,-0.005313 -0.00367,-0.014375 -0.014922,-0.0128125 -0.00691,-0.0287109 -0.00625,-0.0143945 -0.00654,6.445e-4 0.00549,-0.0169727 4.49e-4,-0.001465 0.0074,-0.00248 0.00139,-0.005176 -0.016426,-0.0557422 0.00365,-0.0116406 -0.00166,-0.004355 -0.00771,-0.005762 -0.00707,-0.0170117 -0.013086,-0.0483203 0.00238,-0.0138281 0.016074,0.0404883 0.00498,0.0274219 0.00531,0.008281 0.00146,-0.00543 -0.00422,-0.0315039 -0.00697,-0.0251172 -0.00387,-0.0286719 -0.01041,-0.0266016 2.15e-4,-0.0132813 2e-5,-0.002305 0.013203,0.014082 0.010664,0.0378711 0.00531,0.0441602 0.013242,0.0624023 9.18e-4,0.0259766 0.004,0.004863 0.00549,-0.001289 0.00715,-0.0183203 0.010137,-0.005234 -0.024453,-0.0684375 -0.013379,-0.056543 -0.044102,-0.0847852 -0.00779,-0.008926 -0.023652,-0.0271289 -0.038867,-0.0348633 -0.018926,-0.006367 -0.020234,-0.004434 -0.00203,0.003887 5.47e-4,0.007227 0.026328,0.0292773 0.00508,0.009258 -0.00705,0.0287109 0.00967,0.009336 0.00699,0.0119141 0.00238,0.0131445 -0.00586,0.0359375 2.93e-4,0.0216211 0.014316,0.0416602 0.00311,0.009102 -0.00426,0.0195703 -0.018887,0.0270508 -0.00158,0.003398 -0.015684,0.007988 -0.019551,0.004023 -0.013281,0.002363 -0.011777,-0.004688 -0.00557,-0.0025 -0.01041,0.001133 -0.012695,0.0106445 -0.023828,0.001777 -0.019609,0.008789 -0.017461,0.0137695 -0.00355,0.002812 -0.0085,0.002559 -0.037129,0.001055 -0.014434,-0.001914 -0.00537,0.004746 -0.0075,0.0110352 -0.00482,0.004707 -0.00396,0.005723 -0.01125,0.009961 -0.00928,0.007559 -0.03082,-0.002441 -0.00725,8.594e-4 -0.01457,0.006504 -0.00627,0.0135352 -0.010664,0.0110547 -0.014961,0.00918 -0.01127,0.0118945 -0.017871,0.001641 -0.012949,-0.004082 -0.017324,-7.617e-4 -0.015898,-0.00123 -0.012227,0.0113867 -0.022324,0.008828 -0.015977,0.00457 -0.013945,-0.001699 -0.0085,-0.0112305 -0.00133,-0.007266 -0.00375,-0.007305 -0.00859,-0.004492 -0.021641,-0.003711 -0.016309,-0.005098 -0.00932,-0.00998 -0.0023,-0.0158008 -0.00375,-0.006348 -0.010527,-0.006445 -0.011992,-0.003574 -0.00762,-0.004941 -0.00664,-0.006875 -0.021836,-0.0117188 -0.00525,-0.0123828 -0.00518,-0.008281 -0.00988,-0.0156055 -0.00473,-0.005879 -0.00666,-0.00541 -0.013008,-7.031e-4 -0.00631,0.003281 -0.00402,0.0105664 -0.0018,0.0130664 -0.017227,-0.007637 -0.0084,-0.001699 -0.00791,0.002246 -0.00881,0.008809 -0.00529,0.0175586 -0.011348,0.003242 -0.018633,-0.001348 -0.00381,-0.002109 -0.025918,-0.0144141 -0.012305,-0.002813 -0.00789,3.906e-4 -0.019375,0.0120898 -0.016777,-0.003691 -0.011309,-0.0330859 -0.00311,-0.003203 -0.00795,0.004082 -0.020156,0.002539 -0.01584,-2.344e-4 -1.56e-4,-7.8e-5 -0.009,-1.367e-4 -0.022656,0.003965 -0.018301,-0.00709 -0.012441,-1.758e-4 -0.00877,0.004844 -0.011348,0.0110351 -0.00852,-0.0137109 -0.00225,-0.0138477 -0.00859,-0.006348 -0.00742,-0.003848 -0.013613,-0.002695 -0.00867,-0.002637 -0.0048,-0.0100195 -0.00494,-0.002578 -0.00863,-0.003848 -0.00357,-0.0115234 0.027481,-0.008047 0.00631,-0.006133 -3.32e-4,-0.0100391 0.00814,-0.0134766 -0.0023,-0.0125 -0.006,-0.0137695 0.00494,-0.0113086 -0.00453,-0.0134961 -0.00795,-0.009863 -0.015488,-0.005527 -0.016074,-0.005215 -0.013476,-0.0138867 -0.00988,-0.003887 -0.014883,-0.002715 -0.023652,-0.005586 -0.013555,3.9e-5 -0.00615,-0.005059 -0.00121,-0.009902 -0.01207,-0.0164453 -0.00857,-0.007598 -0.012363,-0.005156 -0.019844,-0.002773 -0.018574,9.57e-4 -0.00941,-0.009551 -0.00645,-0.0180664 -0.01209,-0.0238281 -0.00738,-0.005098 -0.011094,-0.007637 -0.00109,-0.009961 0.00617,-0.009531 0.00715,-0.0206445 3.91e-4,-0.009473 -0.017461,-0.0286914 -0.00777,-0.008008 -0.00521,-0.002188 -0.00479,0.002578 -0.027773,0.0277539 -0.038262,0.009199 -0.00396,0.00209 -0.0048,0.00252 -0.014687,0.0158399 -0.013281,0.009297 -0.013223,0.004551 -0.011836,3.516e-4 -0.013906,-0.003359 -0.026875,-0.0148633 -0.062676,-0.0685547 -0.027226,-0.0151172 -0.00881,-0.004883 -0.064922,-0.0225 -0.036621,-0.0157813 -0.00879,-0.0111914 -0.00994,-0.0233008 -0.066094,0.0217383 -0.00891,-0.005215 -0.1216211,-0.0710742 -0.00576,-8.789e-4 -0.07793,0.047832 -0.1332421,0.0818359 -0.070566,0.0413477 -0.1518359,0.089043 -0.057246,-0.0239453 -0.081699,-0.0341406 -0.020801,-0.00752 L 1.6481263,0.41033179 1.4669935,0.34503882 1.4241615,0.32958961 1.383263,0.31486304 1.3473646,0.29574195 1.3094935,0.27556617 1.2142201,0.2318357 1.2086536,0.22896461 1.1027539,0.17423828 0.99667969,0.17466797 0.98458984,0.17021485 0.79978516,0.10228516 0.78982422,0.09585937 0.77873047,0.07626953 0.77449219,0.07080078 0.74287109,0.03007812 0.72880859,0.01623047 0.71462891,0.01240234 0.63392578,0 Z m -0.57367187,0.68294922 -0.0039258,0.003437 -0.01083984,0.00252 0.0030078,0.003496 0.0086719,-0.00123 0.0059961,0.006543 0.0095313,-0.00166 -0.005957,-0.0126172 -0.0064844,-4.883e-4 z m 4.33044919,0.15515625 -0.010449,0.005039 -0.00359,0.008164 -0.00295,0.0224805 -0.00402,0.008613 -0.00738,0.001602 0.00332,0.0364648 0.010586,0.0131641 0.012168,0.0244727 0.006,0.002695 0.00576,-0.008145 -0.00525,-0.0230469 0.00143,-0.007344 0.00809,0.007051 0.00445,-9.375e-4 0.00301,-0.005 -0.017324,-0.0540234 -0.00383,-0.03125 z m -0.1976367,4.16187503 0.037617,0.039141 0.072109,0.081231 0.015742,0.0092 0.023789,0.013945 0.024082,0.022461 0.014297,0.018828 0.00486,0.017832 0.046231,0.034082 0.011973,0.00191 0.019395,-0.00574 0.011934,0.00453 0.00262,-0.00254 0.01377,-0.00227 0.02709,-0.00441 0.023145,-4.69e-4 0.040293,0.0024 0.088496,0.01793 0.020039,0.00727 0.028418,0.017559 0.00258,0.00158 0.053613,0.024707 0.07207,0.024609 0.049355,0.023789 0.040625,0.014316 0.00199,7.23e-4 0.019961,-0.013066 0.00711,-0.015879 -0.00637,-0.029102 0.015293,-0.04084 -0.00201,-0.00826 -0.019668,-0.029336 -0.00158,-0.00781 0.01918,-0.017402 0.00658,-0.00898 0.00229,-0.00818 -0.015332,-0.017422 -0.0175,-0.019922 -0.00584,-0.010058 0.010293,-0.076406 -0.00242,-0.00914 -0.00504,-0.00615 -0.00189,0.010352 -0.00822,0.00463 -0.011016,-0.00885 -0.014922,-0.00502 -0.015527,-0.021035 -0.020273,-0.020274 -0.00465,-0.00445 -0.6745703,0 z m 0.9974219,0 0.0023,0.00314 0.00719,0.00619 0.012793,0.00457 0.00834,0.014434 0.010566,0.00928 0.009,1.56e-4 0.030312,-0.016328 0.011582,0.00107 0.00738,0.00418 0.026367,0.00381 0.00789,0.015273 0.015781,0.00506 0.00926,0.010547 0.024336,0.00695 0.00436,-0.00383 0.00988,-0.026211 0.00352,-0.00383 0.00861,-7.03e-4 -0.00158,-0.00867 0.00182,-0.00561 0.00779,-0.00375 0.00887,7.23e-4 -0.00664,0.018789 0.00447,0.014375 -0.00225,0.00645 -0.00477,0.00252 -0.013984,-0.00979 -0.00744,0.00852 -0.00139,0.013613 -0.00758,0.00699 -0.013613,-0.00674 -0.01623,-0.00289 -0.011016,-0.00887 -0.00982,-0.00232 -0.017285,-0.017637 -0.019414,-0.00859 -0.015137,-0.00285 -0.021855,0.022969 -0.021367,-0.00428 -0.00607,0.00379 -5.86e-4,0.00863 0.00551,0.004 0.00244,0.00783 -0.00646,0.00117 -0.00762,-0.00619 -0.00611,-0.018711 -0.00891,-0.0058 -0.00516,7.81e-4 0.0092,0.014004 0.00928,0.033496 0.022109,0.025547 0.029609,0.034238 0.017988,0.026719 0.017012,0.033203 7.03e-4,0.00824 -0.00531,0.00941 -0.013984,0.014883 -0.00439,0.031074 -0.010078,0.011504 -0.020352,0.012168 -0.00955,0.00811 -0.021367,0.018164 -0.00846,0.017168 -0.00242,0.016817 0.00256,0.025156 0.013789,0.020586 0.018223,0.012441 0.025273,0.025547 0.055996,0.032285 0.036953,0.021328 0.097695,0.075352 0.035312,0.014512 0.02293,0.022559 0.012031,0.011836 0.066367,0.098574 0.024297,0.054961 0.0034,0.025215 0.00369,0.00914 0.00396,0.00475 0.00346,0.00414 0.00434,0.00518 0.004,0.014785 0.017149,0.023242 0.0042,0.028203 -0.00156,0.015977 -0.00455,0.01418 -0.00609,0.00594 -0.00902,0.00113 -0.00262,0.00297 5.47e-4,0.016875 -0.00365,0.012051 0.021191,0.036289 0.00678,0.00402 0.012402,0.00109 0.00207,0.00271 0.0017,-0.036816 0.01041,-0.053711 -0.00162,-0.056738 -0.02334,-0.061211 -7.81e-4,-0.00209 -0.00834,-0.021836 0.00502,-0.030488 -0.00361,-0.040098 -0.01457,-0.015293 -0.029394,-0.017266 0.00332,-0.057207 -0.00686,-0.015137 -0.00166,-0.011387 -0.00273,-0.01873 -0.00367,-0.00785 -0.020195,-0.010976 -0.043828,-0.011992 -0.026621,0.00949 -0.00715,-7.03e-4 -0.013379,-0.02084 -0.042852,-0.034746 -0.00871,-0.00574 -0.013965,-0.00432 -0.020547,-0.00635 -0.012812,-0.02084 -0.00139,-0.013926 0.00242,-0.011074 0.00619,-0.00654 0.012793,-0.00643 0.041582,-0.013066 0.045137,-0.025254 0.034688,-0.031133 0.00289,-0.0026 0.043476,-0.05252 0.039941,-0.041465 0.019824,9.57e-4 0.013711,0.00416 0.01875,-1.76e-4 0.024551,-0.0066 0.015898,-0.00428 0.01082,-0.00531 0.010899,-0.00537 0.01457,-0.011387 0.020976,-0.02959 0.017852,-0.038008 0.00701,-0.031992 0.00148,-0.00678 -7.81e-4,-0.030039 -0.00846,-0.045508 0.00514,-0.00852 0.00195,-0.00178 0.013223,-0.01209 0.00428,-0.01082 -0.6224219,0 z"
     id="path4"
     inkscape:connector-curvature="0" />
  <path
     d="m 0.25681641,1.9999805 0.003711,0.0082 0.001191,0.013437 0.0119727,0.014824 0.0133594,0.056875 0.0111328,0.012227 7.031e-4,0.019492 0.0277539,0.035312 0.008535,0.013945 0.004707,0.00176 0.003398,0.00826 0.004824,0.0042 0.0183008,0.015938 0.005117,0.00871 0.006699,0.025605 0.0102344,0.014824 0.035918,0.037559 0.003535,0.00197 0.009785,0.00551 0.0137109,0.012676 0.005508,0.012168 0.0371289,0.04668 0.0118945,0.023496 -0.001797,0.00691 0.0132031,0.018301 0.007637,0.016094 0.004043,0.026895 -0.002637,0.0082 -0.005645,0.00256 -0.003945,0.0082 0.0270508,0.013652 0.003066,-0.00473 -3.906e-4,-0.00607 0.006934,-0.00385 0.0120703,-7.42e-4 0.0137695,0.004 0.009414,0.00832 0.002051,0.013008 0.006855,0.00439 0.0025,0 0.0268164,-1.56e-4 0.0116211,0.0027 0.0168555,-0.0033 0.0171094,0.014883 0.0202344,0.00234 0.0111523,0.00789 0.0203125,-0.00545 0.0146094,0.00578 0.002441,8.59e-4 0.007441,0.0027 0.0198242,1.76e-4 0.0168945,-0.0085 0.007754,9.37e-4 0.0188281,0.015332 0.001582,0.016055 0.004727,0.00133 0.003496,-0.00516 0.009043,0.00139 0.0186523,-0.011953 0.005977,0.00395 0.003359,0.012168 0.0342969,0.019824 0.007754,5.08e-4 0.005234,-0.00428 0.005742,-0.015977 0.009062,-0.00166 0.0155469,-0.00201 0.019375,0.00322 0.009434,0.00486 0.008965,0.00961 0.008438,0.0035 0.0130273,0.00539 0.0163671,0.00189 0.00527,-0.010781 0.00689,-3.71e-4 0.017637,0.00537 0.030039,0.01459 0.018066,0.0032 0.042441,0.025977 0.014961,0.012715 3.32e-4,0.00953 0.021113,0.00324 0.016465,0.00547 0.00373,0.00123 0.017129,0.00971 0.050488,0.039492 0.010918,0.029141 -0.00225,0.00863 -0.00521,0.00514 3.52e-4,0.00736 0.033887,0.017676 0.027793,0.021523 0.014922,0.015742 0.00252,0.00291 8.79e-4,0.00104 0.015332,0.019648 0.00754,0.021289 0.00937,0.0092 0.00678,0.013066 0.01,0.033438 0.077109,0.085273 0.010078,0.00729 0.00873,0.00635 0.00725,0.00916 0.00416,0.054629 0.00592,0.013047 0.016191,0.01707 0.021055,0.00455 0.00941,0.0066 0.00375,0.011289 0.00807,0.010059 0.00262,-0.00301 -0.00203,-0.01041 0.00311,-0.00949 0.026797,-0.00881 0.00482,-0.010859 0.00223,-0.00508 0.023594,-0.07293 0.00105,-0.019473 0.016367,-0.040957 0.026172,-0.031328 0.025527,-0.00969 0.013086,-0.016738 0.00229,-0.00127 0.00682,-0.00385 0.030254,-0.00789 0.015176,-0.010215 0.00895,-0.014883 0.00115,-0.00189 -0.00115,-0.00639 -0.00775,-0.00715 -0.023164,-0.00936 -0.00205,-0.010859 0.00318,-0.014258 0.013574,-0.020195 0.011309,-0.00896 0.00492,-7.42e-4 0.011035,-0.00168 0.00639,0.00656 0.017168,0.00756 0.00725,0.00668 0.00895,0.00824 0.021484,0.00631 0.011699,-0.00594 0.00354,-0.00818 1.17e-4,-0.00996 -0.00584,-0.017832 0.00709,-0.017676 0.00645,0.00182 0.00434,-0.00428 0.017656,0.00236 0.00607,-0.0034 0.00447,-0.014668 0.01625,-0.027969 -0.00508,-0.01002 0.00221,-0.00432 0.03082,-0.00828 0.0016,-4.3e-4 0.00611,-0.00729 0.00537,-0.016406 0.00305,-0.00385 0.00953,-0.0025 0.019395,-6.25e-4 0.00443,-0.011211 0.020781,-0.00799 0.00354,-0.00777 -8.2e-4,-0.00391 -0.025371,-0.0068 -0.011211,0.0016 -0.015039,-0.00363 -0.00869,0.0051 -0.011543,0.00105 -9.57e-4,8e-5 -0.0035,0.0043 -0.00863,7.62e-4 -0.012031,-0.00447 -0.014941,-0.012285 -0.00336,-0.0074 0.00135,-0.00561 0.019609,-0.018398 0.014629,0.00189 0.00307,-0.00387 -0.00768,-0.00918 -0.0082,0.00121 -0.00383,-0.00352 5.08e-4,-0.00736 -0.00334,-0.00826 -0.00949,3.12e-4 -0.01791,-0.017949 -0.00207,-0.00826 0.00316,-0.013398 0.014414,-0.016719 0.00836,-0.0027 0.00332,-0.00107 0.00439,-0.00816 -0.00508,-0.00787 -0.00246,-0.011719 0.00184,-0.00994 -0.00512,-0.00654 -0.017168,-0.00627 -0.014961,-0.011426 -0.018516,-0.00412 -0.019316,-0.00887 -0.027168,0.00141 -0.00781,0.00467 -0.02582,-0.00418 -0.00848,0.00109 -0.016152,0.00209 -0.00902,-0.0027 -0.0074,-0.00789 -0.015195,-0.016192 -0.011445,-0.01832 -0.045,-0.027793 -0.00818,-8e-5 -0.00955,0.00422 -0.013086,0.015898 -0.00779,7.81e-4 -0.00246,-0.010859 -0.00779,0.00164 -0.00289,-0.011719 -0.013789,-0.00102 -0.013027,0.00939 -0.017656,-0.00236 -0.0077,-0.00701 -0.00438,-0.00109 -0.00293,-7.23e-4 -0.00596,-0.00742 -0.00289,-0.012168 -0.021953,-0.005 -0.029902,-0.026836 -0.00279,-0.00252 -0.00492,-0.00439 -0.016289,-0.00754 -0.00896,-0.010938 0.00307,-0.00385 -0.00297,-0.00611 -0.0043,-4.69e-4 -10e-5,-1.76e-4 -0.00754,-0.01291 -0.012969,0.00332 -0.00594,-0.010449 -0.00816,-0.00182 -0.00977,-0.017871 -0.01166,0.00117 -0.00725,-0.00744 0.00479,-0.00385 0.00604,0.00137 0.00912,-0.00857 0.00764,0.014375 0.011094,0.010508 0.00945,0.00574 0.018965,0.0015 0.010254,0.010059 0.00645,9.37e-4 6.06e-4,-0.00104 0.00291,-0.00498 0.00189,-0.017754 -0.00381,-0.00609 -0.00654,0.00686 -0.010781,-1.17e-4 -0.020176,-0.010606 -0.014863,-0.022676 -0.010742,-0.00488 -0.00543,-0.017383 -0.00941,-0.00877 -0.04125,-0.017324 -0.013262,-0.00967 -0.019043,-0.019941 -0.00188,-0.00193 -8.2e-4,8.01e-4 -8.98e-4,8.79e-4 -0.00395,0.00389 -0.00301,-0.00961 -0.00203,-0.00648 0.00918,-0.010293 -0.00211,-0.00609 -0.011582,-0.00705 0.010801,-0.00205 0.00178,-0.00389 -0.00381,-0.00914 -0.00986,-0.0066 -0.023281,-6.84e-4 -0.0073,-0.00482 -0.00562,0.00168 0.00338,0.00609 -8.98e-4,0.0052 -0.00477,0.00416 -0.011348,0.00996 -0.00518,3.91e-4 -0.00211,-0.00436 0.00611,-0.00816 0.00672,-0.00416 0.00154,-9.57e-4 -0.00682,-0.00873 -0.00168,-10e-5 -0.00867,-4.49e-4 -0.00787,0.010742 -0.00687,-0.00439 0.011348,-0.012012 0.00662,-0.00152 0.029277,-0.00678 0.00641,0.00787 0.01252,-3.12e-4 0.00213,0.00305 0.011621,0.00186 0.023516,0.021465 -0.021641,-0.036172 -0.00772,-0.030153 -1.04964839,0 z m 1.33050779,0 -5.27e-4,0.00186 0.013672,0.010508 0.00689,0.00531 0.014902,0.01748 -8.98e-4,0.00475 0.00383,0.00525 0.020234,0.00367 0.00943,0.00574 0.0052,-0.00168 0.011367,-0.013301 0.00732,9.57e-4 0.018008,0.011894 0.02832,0.012871 0.00441,0.00381 0.00928,0.00805 0.029297,0.033242 0.00311,0.00352 0.015879,0.00754 0.019824,0.00283 0.019297,0.00975 0.00723,0.010039 0.0033,0.015645 0.00594,0.00959 -0.00863,-1e-4 -0.00953,0.00379 -0.0035,0.0043 0.00297,0.00438 0.02623,0.00809 0.00822,-0.00207 0.010723,0.00488 0.024629,0.037539 0.017715,-0.00412 -9.37e-4,0.00863 0.00424,0.00568 0.00949,5.47e-4 0.03082,0.020723 0.01582,0.012734 0.030508,0.018809 0.021758,0.013437 0.019238,0.015391 0.030508,0.011172 0.011211,-0.00115 0.01248,0.00273 -0.036758,0.00736 -0.01168,0.00549 -0.00309,0.00516 0.00379,0.00785 0.00645,0.00182 0.020312,-0.00367 0.03752,2e-5 0.015176,-0.00588 0.027149,0.00248 0.026348,-0.00357 0.024062,0.0068 0.026309,7.42e-4 0.010293,0.00402 0.00639,0.00658 0.00379,0.00783 -0.00141,0.00951 -0.00184,0.010371 0.00711,0.01916 0.020879,0.022344 0.023066,0.017598 8.01e-4,0.00607 -0.00854,0.013809 -0.0042,0.00684 -0.011367,0.012852 -0.00912,0.00551 3.52e-4,0.0065 0.016543,0.01332 0.034297,0.027598 0.00947,0.014316 0.00236,0.00359 -0.00348,0.00299 -0.00559,-9.37e-4 -0.00133,0.00346 0.00336,0.00652 0.011113,0.00881 0.020996,0.010215 0.01502,0.016602 0.00242,0.00268 0.00508,0.00916 0.00338,0.00383 0.023848,0.026836 0.02957,0.048457 0.00312,-0.00732 -0.010176,-0.014863 -0.00303,-0.01209 -6.84e-4,-0.00268 0.00139,-0.00691 0.022344,0.040117 0.00898,0.00791 0.00988,0.00143 1.95e-4,-0.00156 0.00219,-0.017461 0.0058,-0.00645 0.015,-0.0024 0.00707,-0.014199 0.00562,-0.00121 0.01373,0.00494 0.00438,-0.00559 0.010801,-0.0016 0.00393,-0.00385 0.00197,-0.019902 0.00486,-0.010332 0.011738,-0.00766 0.00561,-3.52e-4 0.00471,0.00395 -0.010449,0.00811 -0.00814,0.031504 -0.00525,0.006 -0.010391,0.00377 -0.00656,0.00857 -0.018945,-0.00154 -0.00566,0.00514 -0.012949,7.03e-4 -0.00438,0.00602 -0.00195,0.019453 -0.00309,0.00516 -0.01041,0.00551 -0.00516,-0.00137 -0.00295,-0.00523 -0.014981,-0.00842 0.00977,0.047344 -0.011152,0.030605 -0.00695,0.00512 -0.00527,0.00945 -0.00951,0.00205 -0.021387,0.022695 -0.0084,0.016777 -0.00141,0.00994 -0.00527,0.00816 -0.00648,0.00209 -0.00785,0.009 -0.00422,0.028086 0.00857,0.00664 0.00338,0.00262 0.00123,0.00564 -0.00527,0.00859 0.00246,0.010859 -0.013066,0.013691 7.81e-4,0.00607 0.0034,0.00395 0.019863,-0.00539 0.011582,0.00492 0.00979,0.010938 7.62e-4,0.00695 -0.00266,0.00732 -0.00914,0.00813 0.00293,0.00695 0.015742,0.014922 0.00602,0.00225 0.01084,-0.00549 0.011074,0.00967 0.0043,4.88e-4 0.00637,0.00918 0.00246,0.00912 0.00936,0.00998 0.00256,0.00271 -0.0023,0.013398 0.014785,0.024004 0.00641,0.00529 0.045313,0.026562 0.022578,0.019766 0.00775,1e-4 0.00293,0.00654 0.016191,0.014492 0.0025,-0.00238 -0.00738,-0.00766 -8.59e-4,-0.00662 0.00467,0.00102 0.013164,0.011895 0.019902,-0.00711 0.0042,0.00873 -0.010039,0.011992 0.0042,0.00871 0.018672,0.021895 0.079824,-0.013672 0.00309,-0.00645 0.014141,0.00537 0.01123,-0.00244 0.018047,0.00283 0.027852,0.011191 0.010234,4.88e-4 0.00268,1.17e-4 0.022266,0.00982 0.011191,5.86e-4 0.0074,-0.00727 0.00686,0.0027 0.0033,0.012598 0.00813,0.00357 0.021484,0.00289 0.00523,-0.00514 0.00936,0.00836 0.017793,0.00416 0.082656,0.019297 0.0026,-0.00127 -0.00295,-0.00566 0.00135,-0.00301 0.00186,-1.17e-4 0.010195,-5.86e-4 0.00613,-0.00771 0.00471,0.0018 7.23e-4,0.010391 -0.00393,0.00473 0.00318,0.00283 0.00277,0.00244 0.00729,0.00184 0.016641,0.011484 0.00432,-0.00168 0.020078,0.00154 0.00746,5.86e-4 0.00426,0.00395 0.015059,2.15e-4 0.032734,0.00994 0.00521,-0.00166 8e-5,-0.00521 -0.006,-0.00445 -0.029766,-0.00523 -0.00559,-0.00227 -0.00637,-0.00727 0.011699,-0.00223 0.018769,0.00957 0.022383,7.42e-4 0.014316,0.023594 0.00488,0.0035 0.017285,0.012402 0.029961,0.012969 0.0034,0.0048 0.020996,0.00637 0.010762,-2.74e-4 0.00309,-0.0043 -0.00246,-0.00912 -0.00514,-0.00312 -0.01418,-6.25e-4 -0.017578,-0.00588 -0.015352,-0.010625 -0.028945,-0.034805 -0.00494,-0.00594 -0.00502,-0.010898 0.00395,-0.00643 0.00645,0.00225 0.00977,0.00965 0.014258,0.028359 0.014434,0.014922 0.038574,0.013105 0.012793,0.00883 0.010547,0.015742 0.016543,0.017559 0.023516,0.012461 0.013086,0.01752 -6.64e-4,0.00119 -0.00551,0.00955 0.00953,0.028281 -0.00312,0.00773 -0.010293,-0.00273 -0.010977,0.01543 0.00775,5.47e-4 0.00908,-0.00332 0.011601,0.00104 0.010684,0.00535 0.011465,0.011855 0.00752,0.017422 0.00822,-0.00377 0.010723,0.00145 0.00572,-0.00857 0.0052,-0.00252 0.00471,0.00266 0.00525,0.023027 0.014336,-0.00932 0.00822,-0.00205 0.052324,0.012461 0.027754,0.014687 0.019727,0.00549 0.026875,0.016836 0.012852,0.00496 0.00687,10e-5 0.0041,-0.017266 0.00609,-0.00467 0.00512,0.00439 -0.0084,0.014609 0.00631,0.00961 0.087246,0.037676 0.034551,0.019238 0.052519,0.029277 0.00355,-0.00688 0.00432,-8.01e-4 0.00199,0.011719 0.036172,0.026523 0.00525,-0.00598 0.00604,-7.81e-4 0.00596,0.00443 -0.00146,0.010371 0.016973,0.016699 0.0067,0.0048 0.035879,0.025723 0.00766,0.00619 0.017266,0.024512 0.011504,0.0084 0.00631,0.00877 -0.00496,0.015078 0.00252,0.0035 0.022754,0.00252 0.063281,0.026523 0.037949,0.022246 0.012226,0.011055 0.010254,0.00922 0.00543,0.010039 0.00129,0.029043 0.00533,0.016953 -0.00879,0.011992 0.00936,0.00707 0.0043,6e-5 0.00457,-0.01127 0.00832,-0.00539 0.017754,-0.00215 0.00789,0.0032 0.012031,0.01127 0.00949,0.016152 0.020527,0.013867 0.004,0.015742 0.00719,0.00656 0.028359,0.02582 0.00406,0.00727 4.88e-4,8.59e-4 1.4100781,0 -8.79e-4,-0.017832 -10e-5,-0.1782032 -1.37e-4,-0.2380468 0,-0.022266 -0.00395,-0.026172 -0.00104,-0.1715821 7.81e-4,-0.017754 0.00188,-0.042598 0.00381,-0.00441 0.020898,-0.00703 0.1139453,-0.023828 0.033574,-0.00977 0.00381,-0.00439 -0.00279,-0.00902 -0.00816,4.1e-4 -0.00348,-0.00777 -0.00725,-0.00361 -0.00658,0.00551 -0.00514,-5.27e-4 -0.0017,-0.00264 0.00965,-0.00934 -0.00293,-0.00482 -0.019824,9.18e-4 -0.00803,-0.00838 -0.00248,-0.00611 0.00494,-0.010723 -0.00498,-0.0092 0.00664,-0.010273 -0.00328,-0.00916 0.0023,-0.00861 -0.00633,-0.0066 -0.012539,0.00277 -0.00471,-0.00182 8.01e-4,-0.020332 -0.00594,-0.00488 0.00793,-0.00937 0.00713,-0.03668 0.01709,-0.011973 0.00516,-0.00363 0.00133,-0.00566 0.00334,-0.01416 0.004,-0.00686 0.0067,4.88e-4 0.00904,-0.00629 0.024473,-0.00195 0.00896,1.76e-4 0.00711,0.010801 0.02416,0.014414 0.015996,0.014258 0.018906,-0.00781 0.014766,-0.00543 0.00566,0.00176 0.027344,0.018574 0.014336,0.015859 0.012227,-5.66e-4 0.00652,1.37e-4 0.015352,0.00605 0.00561,0.0042 0.00619,0.016523 0.012988,0.00189 0.00891,0.00264 7.42e-4,0.0041 -0.0023,0.00801 -0.0032,0.00947 0.032656,0.027051 0.00393,-0.00209 0.00508,-0.017656 0.010918,0.014082 0.00982,0.00539 0.00459,0.00832 -0.00312,0.00514 -0.013496,0.00795 0.015625,0.015898 9.18e-4,0.019941 0.00553,0.004 0.025391,8e-5 0.00352,-0.00297 0.00963,-0.00213 0.00305,0.0099 0.00314,0.0058 0.00414,-0.00318 0.00582,-0.00643 0.013223,-0.00875 0.00488,1e-4 0.010137,0.021523 0.00959,0.0092 0.012207,2.54e-4 0.0075,-0.00803 0.00658,-0.00314 0.00812,1.76e-4 0.019453,0.00531 0.00662,-0.00559 0.00934,-0.017813 0.00852,-0.017851 0.00531,-0.020371 -0.00607,-0.020606 -0.00307,-0.00906 -0.00139,-0.011504 0.00174,-0.0057 0.00752,-0.00885 0.013066,-0.00137 0.012207,2.74e-4 0.011367,0.00186 0.00961,0.0084 0.00863,0.014941 0.00629,0.010781 0.0048,0.0042 0.00572,-7.03e-4 0.00895,0.00102 9.77e-4,-0.009 -0.01002,-0.026426 -0.0032,-0.014121 -0.00383,-0.00324 -0.00643,-0.0023 -0.014453,-0.010684 -0.050762,-0.024824 -0.012285,-0.010645 -0.00664,-0.012695 -0.00678,-0.00664 -0.00279,-0.010879 -0.00889,-0.00928 0.00299,-0.020293 -0.012695,-0.012383 -0.011172,-0.00109 -0.01127,0.00367 -0.00758,-0.0042 -0.00863,-0.00479 -0.011191,-2.15e-4 -0.011367,0.00844 -0.011231,0.0015 -0.022754,-0.00434 -0.017441,-0.010313 -0.010918,0.00715 -0.00951,0.00156 -0.017617,-0.00252 -0.024785,-0.010879 -0.01293,-2.54e-4 -0.0375,-0.021094 -0.00686,-0.00143 -0.014785,0.00619 -0.034297,-0.00889 -0.011856,-0.010625 -0.00488,-0.014805 -0.014492,-0.00852 -0.00652,-0.019629 -0.028262,-0.056855 -0.00758,-0.00881 0.00207,-0.019004 0.014141,-0.018789 -0.00379,-0.0057 -0.00729,-0.00188 -0.00125,0.00102 -0.020195,0.016328 -0.018945,8e-5 -0.017168,-0.00379 -0.014824,-0.01459 -0.017539,-0.0077 -0.033164,-0.048281 -0.050664,-0.057266 -0.035234,-0.053945 -0.084316,-0.1046875 -0.018535,-0.025039 -0.016289,-0.00549 -0.00166,-0.00307 0.00785,-0.00461 0.00135,-0.00432 -0.00924,-0.012734 -0.034746,-0.034434 -0.038906,-0.068301 -6.44e-4,-0.01127 0.00637,-0.018086 -0.00332,-0.00742 0.00232,-0.00949 -0.00979,-0.00893 -0.00182,0 -0.025117,-0.012988 -0.013047,0.00584 -0.00342,-0.00316 -0.00762,-0.00701 -0.00646,-1.17e-4 -0.013105,0.00844 -0.011641,2.15e-4 -0.00652,0.00377 -0.00379,0.00502 -0.0033,0.00439 -0.00955,0.00373 -0.013262,-0.00588 -0.00463,-0.00225 -0.011191,-0.00543 -0.00973,-0.010996 -0.089316,-0.1224804 -0.030566,-0.029141 -0.00619,-0.00992 -0.00475,-0.00762 -0.010488,-0.00957 -0.00539,0.00451 -0.00145,0.00777 -0.016387,0 -0.0082,0 -0.00211,-0.00266 0.00613,-0.00422 0.01168,-0.0015 0.00439,-0.00471 -8.01e-4,-0.00391 -0.00553,-0.00443 -0.016269,-0.00723 -0.012578,0.00324 -0.012363,-0.00801 -1.17e-4,0.00605 0.00664,0.015293 -0.00221,0.00299 -0.00559,-0.00139 -0.015156,-0.023516 -0.012012,-0.00254 -0.00635,0.017656 -0.00826,0.00461 -0.00604,0.010195 -0.012187,0.020684 -0.021289,0.00785 -0.011055,0.01541 -0.011387,0.010625 -0.01125,0.0024 -0.00355,0.00471 -0.020313,0.00225 -0.00182,0.00561 0.00162,0.00609 -0.00223,0.00301 -0.00725,-0.00447 -0.00451,0.011621 -0.00768,-0.00533 0.00541,-0.014199 0.00615,-0.00682 0.018789,-0.0057 0.00551,-0.00168 0.022227,-0.013027 0.013144,-0.012344 0.011094,-0.017559 0.00105,-0.01168 0.00354,-0.00514 0.016445,-0.00145 0.023145,-0.028887 0.010586,-0.0017 0.01459,0.00693 0.00176,-0.00404 0.00826,-0.00332 0.017109,0.00896 0.01127,-0.0024 0.011387,0.00957 0.0018,0.0015 5.08e-4,-0.00119 0.0025,-0.00576 -0.044707,-0.052285 -0.00227,0.00732 0.010078,0.015781 -0.00648,7.42e-4 -0.00682,-0.00488 -0.00652,-0.022207 -0.00463,-0.00701 0.00352,-0.00383 0.00154,2.15e-4 0.00191,2.73e-4 -0.00291,-0.00697 -0.00326,-0.00387 -3.4335351,0 -4e-5,8e-5 -8.2e-4,0.00176 -0.00521,0.00297 -0.00527,-0.00105 -0.00359,-7.03e-4 -0.0049,-9.96e-4 -0.00215,-0.00206 -0.015469,0 z m -0.1427148,0.068809 -0.027734,0.013125 -0.00992,-5.27e-4 -0.00525,0.00904 0.00551,0.00785 0.00957,0.036055 0.00291,0.00451 0.00303,0.00463 0.00727,0.00744 0.028769,0.014609 0.029727,0.00248 0.039355,-0.00824 0.00947,0.00141 0.034668,-0.014356 4.69e-4,-0.00389 0.0091,-0.00424 0.00484,-0.00861 -8.01e-4,-0.00652 -0.016816,-1.76e-4 -0.011738,0.00725 -0.01123,0.00205 -0.00516,-0.00309 -0.00977,-0.013105 -0.00893,-0.00234 -0.00141,-3.71e-4 -0.00648,0.00123 -0.00602,-0.00309 -0.0048,0.00557 -0.00357,2.34e-4 -0.00203,1.37e-4 -0.00467,-0.0074 -0.010801,-5.47e-4 -0.00857,-0.00443 -0.00723,-0.011328 0.0018,-0.0052 0.0026,-0.00127 0.00937,0.011797 0.04666,0.00854 2e-5,0 0.00369,6.84e-4 0.00738,-0.00426 0.01502,0.00709 0.00951,-7.62e-4 0.00352,-0.00732 -0.00381,-0.00568 -0.00736,0.00123 -0.00643,-0.00441 -0.00982,-0.00211 -0.013437,-0.00289 -0.021894,-0.00977 -0.00529,0.00139 -0.00422,0.00111 -0.00904,-9.76e-4 -0.020606,-0.010606 -0.019414,-0.00193 z m 0.2345312,0.2243555 -0.00113,0.00303 -6.44e-4,0.00168 0.00729,0.00529 0.037422,0.00951 0.00479,-0.00387 -0.037813,-0.012402 -0.0099,-0.00324 z m 0.088984,0.017422 -0.020606,0.00193 -0.00996,0.00422 0.00125,0.00393 0.01209,-7.23e-4 0.017227,0.00572 0.035625,0.011758 0.025859,0.00246 0.00521,-0.00426 -0.00211,-0.0048 -0.00734,0.00123 -0.00939,-0.00834 -0.019375,-0.00238 -0.028477,-0.010723 0,-2e-5 z m -0.1332031,0.00371 -0.00393,0.0043 -0.015078,-6.05e-4 -0.00652,0.00383 -4e-5,0.00521 0.011543,0.00791 0.00506,0.011758 0.00773,0.00312 0.011328,-0.010293 0.034922,0.00125 -0.00338,-0.00609 -0.021406,-0.016699 -0.020234,-0.00369 z m 0.2976367,0.076563 0.00381,0.00568 -9.18e-4,0.00561 -0.020352,0.00713 -0.00133,0.00434 0.00594,0.00873 0.00941,0.00574 0.032773,-0.0016 0.00303,-1.56e-4 0.00348,-0.00213 -0.00639,-0.00742 0.00197,-0.021641 -0.00848,-0.00115 -0.022949,-0.00312 z m 0.075449,0.1936523 -0.019434,0.00238 -0.00748,0.014199 -0.00607,0.00383 0.00342,0.00309 0,-2e-5 0.017754,-0.00629 0.00439,-0.00818 0.00826,-0.00684 -8.4e-4,-0.00217 z m 0.073164,0.048516 -0.018535,0.00107 0.00338,0.00523 0.018066,0.00324 0.00262,-0.0043 -0.00553,-0.00525 z m -0.1045313,0.09707 -0.026758,0.00314 0.00891,0.013106 0.00691,5.08e-4 0.012207,-0.013711 -0.00127,-0.00305 z m 0.4049805,0.2639062 -0.014707,0.00588 -0.00178,0.00473 0.00252,0.00436 0.00863,-3.12e-4 0.012168,-0.00809 -0.00168,-0.00391 -0.00516,-0.00266 z m -0.8303906,0.1609375 -0.00562,0.00211 -0.00225,0.010371 0.00381,0.00609 0.010742,9.96e-4 0.00398,-0.010781 -0.00336,-0.0074 -0.0073,-0.00139 z"
     id="path8"
     style="fill:#ce1126;fill-opacity:1;stroke:none;stroke-opacity:1"
     inkscape:connector-curvature="0" />
  <path
     style="fill:none;fill-rule:evenodd;stroke:#002b7f;stroke-width:0.01px;stroke-linecap:butt;stroke-linejoin:miter;stroke-opacity:1"
     d="m 4.19307,4.9999805 0.67416,0"
     id="path4169"
     inkscape:connector-curvature="0"
     sodipodi:nodetypes="cc" />
  <path
     style="fill:none;fill-rule:evenodd;stroke:#002b7f;stroke-width:0.01px;stroke-linecap:butt;stroke-linejoin:miter;stroke-opacity:1"
     d="m 5.19049,4.9999805 0.62242,0"
     id="path4171"
     inkscape:connector-curvature="0"
     sodipodi:nodetypes="cc" />
  <path
     style="fill:none;fill-rule:evenodd;stroke:#002b7f;stroke-width:0.01px;stroke-linecap:butt;stroke-linejoin:miter;stroke-opacity:1"
     d="m 0.54746,0.99998047 3.8919,0"
     id="path4173"
     inkscape:connector-curvature="0"
     sodipodi:nodetypes="cc" />
</svg>
