<?xml version="1.0" encoding="UTF-8" standalone="no"?>
<svg
   xmlns:dc="http://purl.org/dc/elements/1.1/"
   xmlns:cc="http://creativecommons.org/ns#"
   xmlns:rdf="http://www.w3.org/1999/02/22-rdf-syntax-ns#"
   xmlns:svg="http://www.w3.org/2000/svg"
   xmlns="http://www.w3.org/2000/svg"
   xmlns:sodipodi="http://sodipodi.sourceforge.net/DTD/sodipodi-0.dtd"
   xmlns:inkscape="http://www.inkscape.org/namespaces/inkscape"
   width="740.19476"
   height="599.99945"
   viewBox="0 0 44.411686 35.999967"
   id="svg2"
   version="1.1"
   inkscape:version="0.91 r13725"
   sodipodi:docname="Flag_of_Curaçao.svg">
  <metadata
     id="metadata26">
    <rdf:RDF>
      <cc:Work
         rdf:about="">
        <dc:format>image/svg+xml</dc:format>
        <dc:type
           rdf:resource="http://purl.org/dc/dcmitype/StillImage" />
        <dc:title></dc:title>
      </cc:Work>
    </rdf:RDF>
  </metadata>
  <defs
     id="defs24">
    <clipPath
       clipPathUnits="userSpaceOnUse"
       id="clipPath4273">
      <path
         style="opacity:0.53200001;fill:#00cc00;fill-opacity:1;fill-rule:nonzero;stroke:none"
         d="m 4.174324,3.73472e-5 0,0.0225000028 -0.022031,0 -0.066562,0.0440625 0,0.045 -0.1332422,0.0670312 0.01125,0.11191406 -0.0225,0.0720703 -0.03293,0.0619922 -0.044531,-0.0225 0,0.0446484 -0.044062,8.2031e-4 -0.022148,0.15574218 -0.044883,0 -0.022148,0.13441404 -0.1107422,0.0670313 -0.044062,0.1115625 -0.067031,0 0,0.0453515 -0.022031,0 -0.02168,0.0666797 -0.045,0 0.06668,0.1119141 0.022031,0 0,0.02168 0.022031,0 0.1340625,0.2010938 0.1549219,0.0675 0.044062,0.057422 0.07875,0.1211719 0.010781,0.1335937 0.039492,0.043242 0.03832,0.046289 0.1710937,0.245625 0.014648,0.1498828 0.00949,0.02625 -0.012422,0.02332 -0.061641,0.00117 -0.064922,0.1241016 -0.1448438,0.1665234 -0.022148,0.1569141 0.1999218,0.2677734 0.1448438,0.4475391 0.1327734,0.044063 -0.047461,0.1045312 -0.085313,0.085313 -0.066211,0.01125 0.022031,0.067852 -0.044062,0 0.01125,0.04418 -0.08918,0.1352344 0.111211,0.3563671 0.066562,0.06668 0.034219,0.076172 -0.034219,0.058242 -0.1107423,0.0675 0,0.4691016 0.1236328,0.2902734 0.1107422,0.044062 0,0.1345312 0.088359,0 0,0.089062 -0.088359,0.022852 0.021328,0.1562109 -0.04418,0 -0.02168,0.6931639 0.105,-0.03457 0.012422,0.02039 -0.1065234,0.080391 0.044883,0.2242968 0.1549219,0.2227734 0.045,0.2451564 0.077812,0.1787106 0.1998047,0.044883 0.00246,0.1037112 -0.010312,0.014179 -0.2139844,-0.00586 0,0.044062 -0.045,0 0.022031,0.147891 -0.1548046,0.00914 -0.04418,0.077813 -0.1327734,0.056601 -0.08918,0.1444926 -0.044883,0.01125 -0.1107422,0.2123436 -0.04418,0.011602 0,0.06668 -0.067031,-0.02168 9.375e-4,0.02168 0.022031,0 0,0.044882 -0.022031,0.04418 0.044063,0 -0.022031,0.067852 0.022031,0 0,0.02168 0.022031,0 0.034219,0.1569144 0.088594,0.089062 0.099961,0.2010936 0.066211,0.0225 0,0.044531 0.067031,0.0225 0.099844,0.42375 0.06668,0.0675 -0.00996,0.04418 0.043242,0 0,0.045352 0.2893359,0.032461 0.1112109,0.056602 -0.022969,0.066563 0.04418,0 0,0.04418 0.044531,0 0.022031,0.067851 0.04418,0 0,0.04418 0.045,0 0.2438672,0.6473443 0.310664,0.168164 0.5982422,-0.03867 0.025781,-0.01664 0.024609,-0.06211 0.031172,-0.05578 0.045,-0.09609 0.035391,-0.04043 0.062461,-0.01535 0.060703,-0.02461 -0.027422,-0.06656 -0.046289,-0.02965 -0.00117,-0.0566 0.056953,-0.150235 -0.099492,-0.0096 -0.081914,-0.01453 -0.012539,-0.04547 -0.00211,-0.038671 0.07582,-0.045 0.04582,-0.1539846 0.016992,-0.1694532 0.1249219,0.068203 -0.054961,0.0525 0.039609,0.1241016 0.052383,0.1844532 0.04582,-0.01758 0.05707,-0.065743 0.00867,-0.067852 0.063281,-0.1732032 0.1624218,0.03668 0.049453,0.094453 0.090351,0.017461 0.1211719,0.00504 -0.052852,0.218555 -0.156914,-0.06785 -0.1058203,0.01418 -0.079922,0.102774 -0.00949,0.03164 -0.04957,-0.02332 -0.073242,0.03246 0.015352,0.06586 0.00961,0.03832 0,0.04406 -0.052031,0.01418 0.036211,0.04125 -0.00293,0.03492 0.013711,0.05461 -0.016172,0.05074 -0.044648,0.0054 -0.058242,0.03668 -0.052852,0.0083 -0.022031,3.52e-4 -0.1028907,0.04242 -0.052031,0.06914 -0.033281,4.69e-4 -0.033281,0.02086 -0.00211,0.03246 0.068672,0.101953 0.066211,0.02285 0.077813,0.111562 0.066211,0.267774 0.077813,0.134414 0.1107422,0.04418 0,0.045 0.2439844,-0.0225 0.067031,0.156094 0.045,0 0.087891,0.134414 0.1119141,0.04418 0.022031,0.06656 0.1549218,0.112032 0,0.045 0.1107422,0.04406 0.067031,0.112852 0.067031,0.02168 0.022031,0.06656 0.2439843,0.112031 0.066562,0.133243 -0.045703,0 -0.020859,0.06785 0.1107422,0.06656 0.067031,0.112383 0.04418,0 0.099844,0.111211 -0.022031,0.156094 -0.01125,0.06656 -0.054961,0.245274 0.099961,0.302226 0.51,-0.01207 0,0.02332 0.022851,0 0,0.02168 0.1107422,0.04535 0.04418,0.133242 0.044883,0 0.054961,0.134414 -0.01125,0.0225 0,0.04418 0,0.08953 0.1332421,0.04488 0.067852,0.06375 0.036211,0.03457 0.073711,0.146953 -0.044179,0 -0.055781,0.134062 0.010898,0.246446 0.2448048,0.04406 0,0.06668 0.2660154,0.08906 0.01793,0.04617 0.019922,0.02918 0.01793,0.125743 -0.055781,0.134413 -0.022031,0 0,0.0225 0.020743,-0.0029 -0.043711,0.201914 0.110742,0.02086 0,0.045 0.067031,-0.0225 -0.077812,0.134414 -0.033281,0.58043 0.1331258,0.08953 -0.0041,0.0491 0.271055,0.03996 0.143555,0.178593 0.133242,0.267657 0.03375,0.201093 0.266015,0.111563 0,0.04418 0.288868,0.09035 0,0.04406 0.221953,0.134062 0,0.04453 0.354726,0.0675 0,0.04406 0.310547,0.06668 -0.02168,0.04535 0.02168,0 0.198984,-0.06785 0.02285,0 0,-0.02168 0.111211,-0.04488 0.02203,0 0.06586,-0.06668 0,-0.0225 0.02285,0 0.04418,-0.111913 0.04406,0 0.177773,-0.290157 0,-0.0225 0.02203,0 0,-0.0225 0.08918,-0.08953 0,-0.06656 0,-0.0225 0.02203,0 0.02168,-0.08906 0.02121,0 0,-0.0225 -0.02121,0 0,-0.06785 0.02121,0 0,0.02332 0.02789,0.0046 -0.0042,-0.09363 0.02215,0 0,0.02238 0.111093,-8.21e-4 0,-0.02168 0.399727,-0.145664 0.266016,0.02367 0.731484,0.290273 0.144844,0.121875 -0.01078,0.04418 0.154804,-0.01125 0.154922,0.0566 0.02285,0.08918 0.110742,0.02156 0.04418,0.134532 0.333046,0.245976 0.132774,0.245274 -0.04418,0 0,0.02332 0.06797,0.02156 0,0.110742 -0.09,0.0225 0,0.0225 0.02203,0 0,0.02297 0.04418,0 -0.02203,-0.04547 0.06703,0 -0.045,0.112031 0.045,-0.0225 -0.02121,0.111562 -0.04582,0 -0.0109,0.06668 -0.05613,0.02238 0,0.04547 0.02285,0 0.02215,0 0,0.0225 -0.02215,0 -0.02285,0 0.02285,0.06738 0.04418,0 0.04582,0 0,0.02168 0.131953,0.04406 0,0.045 0.02203,0 0,0.02285 0.02203,0 0,0.02168 0.04582,0.223594 0.02121,0 0,0.0225 0.02215,0 0.164766,0.445898 0.06797,0.06785 0.01113,0.08906 0.156563,0.08906 0,0.06621 0.154102,0.06738 0,0.045 0.133242,0.08906 0,0.04547 0.156445,0.110742 0,0.04488 0.06539,0 0.177774,0.759023 0.154922,0.06738 0.09984,0.156094 0.07418,0.374297 -0.05215,0.02754 0.0109,0.06703 -0.04371,0 0.02168,0.06738 -0.04371,0 0.02203,0.08906 0.04371,0 0,0.08953 0.05578,0.03129 0.07746,0.124453 0.03867,0.02531 0.02789,0.04125 0.0375,0.01254 0.02953,0.09949 0.04418,0 0.08906,0.134062 0.154805,0.0566 0.06703,-0.04535 0.221485,0.05578 0,0.04488 0.377227,0.06668 0,0.111562 0.04371,0 -0.01078,0.112032 0.07781,0.134062 0.311015,0.06656 0.02203,0.06703 0.198985,0.122812 0.045,-0.01125 0,0.045 0.44332,0.156094 0.06621,0.134063 0.08906,0.04406 0.03293,-0.134062 -0.03293,-0.167344 -0.111094,-0.03281 0,-0.290156 0.04406,0 -0.03281,-0.312656 -0.05543,-0.07793 -0.08871,-0.01125 0.02215,-0.111914 0.154805,0.02285 -0.04406,-0.10078 -0.110743,-0.01125 0,-0.06738 0.0886,-0.03293 0.06621,0.05543 -0.02203,-0.156094 0.133242,-0.01125 0.110742,0.05531 0,0.179415 0.06703,-0.01125 0.06656,0.03293 -0.04453,0.134531 0.06656,0.02238 0,-0.08906 0.111212,-0.0116 0.06574,0.0341 0.045,0.110743 -0.045,0.01125 -0.06574,0.100312 -0.045,0.01125 -0.133595,0.221485 -0.110742,0.07781 -0.06621,0.178594 0.04418,0 0.03281,0.0675 -0.03328,0.166054 -0.05953,0.04418 -0.03082,0.09902 0.0975,0.07043 0.0075,0.0083 0.0049,0.0041 0.005,0.0059 -0.04617,0.02578 0,0.0675 -0.045,0 -0.02203,0.08906 0.111093,0.04406 0.06668,0.112031 0.09445,-0.0062 0.01535,0.08156 0.09996,0.03375 0.06,0.01043 0.04031,0.03703 0.08906,0 0,0.04418 0.04371,0 0,0.04535 -0.08777,-0.04535 0,0.04535 0.132774,0.06656 0,0.045 0.08906,0.04418 0,0.04488 0.176953,0.06785 0,0.04418 0.154922,0.06656 0,0.04418 0.221836,0.06738 0,0.06797 0.06703,0 0.02215,0.04406 0.02203,0 0,-0.0225 0.354726,0.0225 0,0.04418 0.155625,0 0.02215,0.06738 0.111094,0.01125 0.279023,0.109453 -0.01418,0.102071 0.04957,0.01535 0.03785,-0.08027 0.02824,0.01078 0.217383,0.02121 0.02285,-0.0225 0.04418,0.01125 0.04371,-0.08953 0.06117,-0.03363 0.01664,-0.02168 0.075,0.07324 -0.06832,0.06164 0.0266,0.121523 1.0875,0.290156 0,0.04582 0.08859,0 0,0.04336 0.06621,-0.01043 0.155742,0.03293 -0.0029,0.02789 0.045,0.0021 0,0.04488 0.199804,0.06668 0,0.0225 0,0.02285 0.376758,0.211875 0.04418,-0.01125 0.02121,0.06668 0.267305,0.111914 0.02203,0.06668 0.133243,0.04488 0.06574,0.112032 0.333047,0.189375 0.110742,0.01125 0,0.045 0.08906,0.04418 -0.02121,0.04535 0.02871,-0.015 0.103242,0.09281 0.288164,0.05543 0,0.0225 0.04406,0 0,0.02156 0.06668,0 0.02203,0.04582 0.02203,0 0.02297,0 0.02203,0.06703 0.08824,-0.02285 0,0.111915 0.08871,0.045 0,0.02168 0.045,-0.01043 0.06235,0.03 0.13664,0.102422 0.132773,0.01207 0,0.06785 0.255235,0.133242 0.01078,0.04488 0.045,0 0,0.04418 0.04324,0.0021 -0.02121,-0.06867 0.131953,0 0.03422,0.178595 0.08859,0.04488 0.03328,0.08918 0.08871,0.02238 0,0.045 0.176953,0.04418 0,0.04535 0.178242,0.03375 0.132774,-0.212344 0.04406,0 0.045,-0.111562 0.04371,0 0,-0.0225 0.183165,-0.313477 0.119882,0.05953 0.239414,0.237655 0.02625,0.111563 0.0021,0.06996 0.06199,0.06035 0.02496,0.07453 0.01172,0.13289 -0.03832,0.01535 0.045,0.06492 0,0.134531 0.110743,0.06656 0.07781,0.246093 0.04418,0 0,0.04406 0.243867,0.05625 0.189023,-0.07699 0.02379,-0.0825 -0.0062,-0.383438 0.06949,-0.03492 -0.0079,-0.133243 -0.02754,-0.201445 -0.07652,-0.04371 -0.105351,-0.01465 -0.06164,-0.03246 -0.105351,0.02168 -0.04371,0.127383 -0.02707,0.143203 -0.08695,-0.02918 -0.02918,-0.126914 -0.0038,-0.170742 -0.06539,-0.108984 -0.09445,-0.07289 -0.192774,-0.174492 -0.197343,-0.161953 -0.01547,-0.08742 -0.0416,-0.132304 0.112851,-0.01465 0.03996,0.145781 0.112383,-0.09457 -0.007,-0.123633 0.08695,-0.01078 0.01043,-0.01793 0.02789,-0.03082 0.07535,-0.06328 0.04664,0.01 0.04699,0.207422 -0.08695,0.130663 0.123164,0.134532 0.152813,0.01828 0.04746,-0.08742 0,-0.04711 0.02543,-0.181875 -0.04371,-0.134532 0.06164,-0.0033 0.02531,0.127031 -0.007,0.156563 0.02906,0.112383 0.03996,0.07617 0.06914,0.09117 0.05789,0.02168 0.06199,0.0038 0.0033,-0.112852 -0.04699,-0.0907 -0.07992,-0.174492 -0.03621,-0.105234 0.02918,-0.09117 0.01781,0.0075 0.03996,0.167344 0.105352,0.112382 0.102071,-0.03996 -0.02215,-0.07242 -0.0907,-0.131133 0,-0.05086 0.06539,0.0071 0.04746,0.112851 0.07992,0.134415 -0.03293,0.105351 -0.01793,0.163594 0.127031,0 0.03281,-0.05824 0.07629,0.06199 0.08367,-0.04371 -0.05086,-0.109102 -0.04746,-0.09785 0.01465,-0.225586 -0.01793,-0.134531 0.007,-0.254297 0.196172,-0.02168 0.06527,0.119883 0.03293,0.123633 0.07289,-0.06914 -0.0075,-0.134414 0.08742,-0.03996 0.07242,0.03996 0.03996,0.03621 0.02918,0.03293 0.04746,0.119883 0.07617,0.137812 0.05074,0.08367 -0.01781,0.01828 0.221484,0.308906 -0.154453,0.251954 -0.101602,0.261445 -0.08742,0.116133 0.0075,0.138164 -0.180352,0.02086 -0.174375,-0.105351 -0.232265,-0.40336 -0.116602,0.03621 -0.09785,0.203555 0.0018,0.202265 0.01,0.134883 -0.03375,0.08836 -0.04324,0 -0.05578,0.156095 -0.0109,0.178945 0.06668,0.02168 0,-0.06656 0.04324,0 0.03832,0.171445 -0.03832,0.05203 0.06703,0 -0.01453,-0.03738 0.0375,-0.01793 0.131953,0.07781 0,0.0225 -0.08824,-8.2e-4 0,0.0225 0.04406,0 0.04418,0.08906 0.04488,0 0,0.0225 0.154922,0.0225 0,0.06621 0.311015,0.112383 -0.02215,0.04488 0.13289,0.07793 0.154805,0.301406 0.133243,0.06738 0.02203,0.06703 0.280195,0.164531 0.0075,0.03621 0.155274,0.04488 0,0.04418 0.02297,0 0.01078,-0.04418 -0.181055,-0.09609 -0.184922,-0.149531 -0.04488,0 8.2e-4,-0.04406 -0.04453,-0.01125 -0.02203,-0.0566 -0.08918,-0.03293 -0.154804,-0.279726 -0.154922,-0.178242 0.57668,0.0675 0.09902,0.200976 -0.02203,0.178242 0.03281,0.06656 0.156211,0.112031 0.02203,0.08824 0.132774,0.04582 0,0.04406 0.154922,0.09035 -0.0083,0.03621 -0.146601,-0.01453 0,0.0225 0.443789,0.134063 0,0.06656 0.13207,0.06668 0.02203,0.112735 0.08906,0.04418 0.04371,0 0,0.0225 0.06703,0 0.06703,0 0,-0.0225 0.465,0.08988 0.02297,0.06668 0.4425,0.101601 0.311015,0.211875 0,0.04418 0.110274,0.02367 0,0.02168 0.04465,0 0,0.0225 0.06609,0 0.045,0 0,-0.0225 0.331758,0.04488 0,0.04418 0.06703,0 0.05543,0.01875 0.06867,0.04582 0.08285,0.02074 0.106172,0.02496 0.06914,0 0.07535,0.02789 0.04828,0.03879 0.116953,-0.01418 0.07535,-0.02121 0.05156,-0.03129 0.08625,-0.06703 0.06164,-0.0491 0.08238,-0.08777 0.04125,-0.09164 0.0791,-0.115782 0.06867,-0.06328 0.09996,-0.08074 0.130664,-0.05988 0.113203,-0.07043 0.109922,-0.03867 0.134062,-0.04207 0.113672,-0.03867 0.137461,-0.02133 0.130664,0.0071 0.09949,0.01078 0.124101,0.03164 0.08906,0.04922 0.05531,0.01406 0.0825,-0.007 0.113203,-0.02121 0.04957,-0.01922 0.333867,0.02379 0,0.04324 0.04371,0 0.11121,0 -0.0034,0.04957 0.07043,-0.0038 0.04371,0.06668 0.045,0 0,0.02285 0.06609,0 0.08871,0 0,0.0225 0.310195,0 0,0.0225 0.045,0 0,-0.0225 0.243868,0.04418 0.02168,0.0457 0.06621,0 0.02285,0 0,-0.0225 0.376758,-0.04406 0,0.0225 0.02215,0 0,-0.0225 0.04488,0 0.04418,0 0,-0.0225 0.177773,-0.045 0.02203,-0.04453 -0.776835,0.100781 -0.120703,-0.05625 0.07699,-0.156094 0.08871,-0.04582 0,-0.04324 0.243984,-0.07781 0.355078,0.05613 0,0.04418 0.154805,0.0225 0,0.06656 0.115781,0.01336 0.123633,0.007 0.0096,-0.03949 0.0087,-0.119882 -0.102773,-0.105821 -0.03539,-0.04371 -0.09738,-0.134883 -0.199101,-0.111563 -0.02203,-0.06738 -0.08906,-0.02297 -0.04418,-0.08906 -0.08859,0 -0.04418,-0.111562 -0.111094,-0.04418 0,-0.06656 -0.132891,-0.06785 0,-0.045 -0.154805,-0.08906 0,-0.045 -0.155742,-0.06656 -0.04406,-0.08953 -0.08836,-0.0225 0,-0.04488 -0.39879,-0.201094 0,-0.0225 -0.02367,0 -0.01793,-0.06996 -0.04746,-0.0079 -0.04371,-0.07793 -0.111211,-0.100313 -0.04488,-0.01125 0.01207,-0.04535 -0.465937,-0.602461 -0.01078,-0.111914 -0.04418,-0.01125 -0.154805,-0.234844 -0.02203,0 -0.06703,-0.133242 -0.111211,-0.0225 0.01125,-0.06738 -0.05496,-0.08953 -0.02203,0 0,-0.0225 -0.133242,-0.178125 -0.132774,-0.201094 -0.221953,-0.134063 -0.04418,-0.08953 -0.110742,-0.06656 -0.08906,-0.155742 -0.04406,0 0,-0.06738 -0.08871,-0.02297 0.01078,-0.04488 -0.165704,-0.133242 -0.02203,-0.0675 -0.02203,0 0,-0.0225 -0.02297,0 -0.02121,-0.04453 -0.02285,-0.04488 -0.06703,-0.06668 -0.02121,0 -0.398906,-0.591563 -0.04371,-0.01125 -0.02285,-0.134062 -0.04418,-0.01125 -0.111094,-0.234845 -0.04371,0 -0.351798,-0.651445 -0.02543,0.0033 -0.02074,0 -0.134062,-0.178242 -0.04418,0 0.01125,-0.04406 -0.133242,-0.246094 -0.01078,-0.111914 -0.02215,0 0,-0.0225 -1.17e-4,-1.17e-4 -0.02203,0 0,-0.06668 0.02203,0 0,-0.045 -0.02203,0 -0.132773,-0.40207 -0.221953,0.06785 0,0.04406 -0.04488,0 0,0.045 -0.04418,0 -0.06656,0.144844 -0.08918,0.03293 -0.02203,0.05625 -0.04406,0 -0.02215,0.05531 0.04418,0 0.04406,0.357656 0.06703,0 -0.02285,0.08953 0.08871,0.02156 0.05531,0.112383 -0.01043,0.112031 0.131953,0.08906 0.045,0 0.01125,0.06668 -0.144023,0.04488 0,-0.04488 -0.399727,0.06656 -0.06621,-0.144492 -0.06703,-0.01207 0,0.045 -0.132773,-0.134414 0.06703,0 -0.02285,-0.08918 -0.04418,0 -0.02203,0.08918 -0.08906,0.01113 -0.05496,-0.03363 -0.0109,-0.133242 -0.111094,0.02168 0,0.08988 -0.06668,0 0,0.04418 -0.133125,0.111914 0,0.04418 -0.08871,-0.04418 0,-0.04488 -0.11121,0 -0.02203,-0.08953 0.133242,-0.0225 -0.04418,-0.08906 -0.08906,-0.05543 -0.221953,0.02168 -0.03281,0.03375 0.01078,0.04488 -0.155742,-0.02332 -0.01,-0.222656 0.03293,-0.134063 0.06785,-0.02168 0.02121,0.06668 0.309727,0.02156 0,-0.08824 0.177773,0 0.0046,-0.110273 -0.03363,0.01746 -0.04465,0.0025 -0.05121,0.0029 -0.03281,-0.03 -0.05707,-0.122813 -0.06492,-0.03035 -0.03328,-0.02625 -0.01043,-0.0057 -0.01465,-0.0034 -0.03867,-0.02953 -0.03539,-0.113672 0.01078,-0.07992 0.02461,-0.07371 0.132773,0.04418 0.02297,-0.133594 0.111094,-0.045 0,0.045 0.02215,0 0,-0.06668 0.08859,-0.02168 -0.04453,0.08836 0.154922,0.06656 0,0.02285 -0.04418,0 0,0.0225 0.221953,0.134062 -0.02215,0.04418 0.06621,0 -0.08824,-0.178242 0.04418,0 0.03117,-0.02074 0.123633,-0.0018 0,0.045 0.156093,0.08906 0.06586,0.100313 0.243985,-0.07781 0.08906,-0.132421 0.04406,0 0.0225,-0.06867 0.06621,0.0225 0,-0.04418 0.045,0 0.03281,-0.045 0.0334,-0.06656 0.04453,0.0225 0,-0.156915 -0.06668,0 0.0109,-0.08918 -0.08871,-0.111563 -0.01043,-0.111913 -0.05578,-0.06668 -0.09902,-0.301407 -0.045,-0.01125 0.03375,-0.08906 -0.132891,-0.290156 -0.09984,-0.179415 -0.121992,-0.08918 -0.03293,-0.08941 -0.04488,-0.01125 -0.02215,-0.05543 -0.08824,0.01125 -0.0116,-0.100312 -0.09914,-0.04535 -0.01078,-0.06668 -0.189023,-0.112383 0,-0.04418 -0.04418,0 0,-0.04453 -0.04488,0 -0.02215,-0.05613 -0.06574,-0.01125 0,-0.0225 -0.355078,-0.178594 0,-0.0225 -0.04453,0 0,0.0225 -0.177422,-0.145313 -0.06574,0.03703 -0.02379,-0.07277 -0.143204,-0.109101 -0.01078,-0.045 -0.300235,-0.223594 -0.01078,-0.04488 -0.266016,-0.13371 0,-0.06738 -0.288516,-0.110742 8.21e-4,-0.045 -0.156094,-0.04535 0,-0.04418 -0.133594,-0.03363 -0.02133,-0.05625 -0.110625,-0.03293 -0.178242,-0.145663 0,-0.045 -0.154922,-0.05531 -0.02203,-0.0566 -0.266016,-0.133242 0,-0.0675 -0.510351,-0.01125 -0.06621,0.0225 -0.045,-0.07828 -0.265664,0.02168 0,0.02379 0.0641,0 0.0018,0 -0.110742,0.08824 0,-0.045 -0.133242,0.01125 -0.04371,-0.07828 -0.421758,0 -0.0191,0.02754 -0.136172,-0.02754 0,0.04453 -0.08859,-0.05578 -0.178242,-0.01125 0,-0.0225 -0.06574,0 -0.08918,0 0,-0.02238 -0.02203,0 -0.08859,0 -0.02215,-0.03293 -1.220625,-0.07781 0,-0.04629 -0.420937,0.05578 -0.311367,-0.01125 0,-0.04453 -1.0425,-0.258047 -0.02203,-0.05461 -0.11121,-0.0225 -0.01078,-0.04488 -0.266836,-0.178593 -0.01,-0.045 -0.577031,-0.212344 -0.399727,-0.04406 -0.887578,0.144375 0,-0.02238 -0.02203,0 -0.04453,0 0,-0.0225 -0.111211,0 -0.04418,0 0,-0.02168 -0.109805,0 -0.02297,0 0,-0.0225 -0.06703,0 -0.02121,0 0,-0.0225 -0.04453,0 -0.02297,0 0,-0.02238 -0.111094,0 -0.04336,-0.04418 -0.133593,0 0,-0.04535 -0.02203,0 -0.02297,0 0,-0.0225 -0.04324,0 0,0.0225 -0.110742,-0.04418 0,-0.0225 -0.045,0 -0.04488,0 0,-0.02238 0,-0.0225 -0.04371,0 -0.06703,0 0.0041,-0.02496 -0.07031,-0.04172 -0.06621,0 0,-0.02332 -0.04453,0 -0.045,-0.04453 -0.06621,0 -0.110742,0 0,-0.04406 -0.02203,0 -0.08906,0 0,-0.0225 -0.045,0 -0.04371,0 0,-0.0225 -0.02203,0 -0.02203,0 0,-0.02168 -0.02297,0 0,0.02168 -0.02285,0 0,-0.02168 -0.02121,0 0,0.02168 -0.04418,0 0,-0.02168 -0.04582,0 0,-0.0225 -0.08777,0 -0.06621,0 0.0033,-0.02707 -0.04828,0.0047 0,-0.0225 -0.04371,0 -0.04418,0 0,-0.0225 -0.02285,0 0,-0.02168 -0.02297,0 -0.08824,0 0,-0.02367 -0.133593,-0.03293 -0.08824,-0.07781 -0.0225,0 -0.02121,0 0,-0.0225 -0.02215,0 -0.02203,0 0,-0.0225 -0.02285,0 -0.04418,0 0.005,-0.02625 -0.171915,-0.08566 -0.187851,-0.144493 -0.266836,-0.346875 -0.04406,0 -0.04371,-0.07781 -0.045,-0.01125 -0.02203,-0.05531 -0.04418,-0.01125 -0.04488,-0.112031 -0.04418,-0.01125 -0.02168,-0.05531 -0.04488,0 0,-0.045 -0.665742,-0.44625 0.02203,-0.04535 -0.288047,-0.133242 0,-0.0675 -0.155742,-0.04453 0,-0.045 -0.04406,-0.01125 -0.221953,-0.278907 -0.07863,-0.04406 -0.01043,-0.06785 -0.06574,0 -0.156211,-0.189492 -0.100664,-0.05578 -0.01008,-0.045 -0.243985,-0.121993 -0.199804,-0.212226 0,-0.0225 -0.02203,0 -0.02203,0 0,-0.02297 -0.02297,0 0,-0.0232 -0.04371,0 -0.02203,-0.06586 -0.045,0 -0.01125,-0.04488 -0.05496,-0.02168 0,-0.0225 -0.04488,-0.04535 -0.02203,0 -0.02168,0 0,-0.02168 -0.08906,-0.08906 -0.02215,0 -0.02203,0 0.0033,-0.0259 -0.09199,-0.0191 0.0033,-0.04875 -0.04746,0.0038 0,-0.02168 -0.02285,0 0,-0.02285 -0.02215,0 -0.04406,0 0.0033,-0.04828 -0.07031,-0.04078 -0.02168,0 -0.02203,0 0.0033,-0.0259 -0.04828,0.0034 0.0042,-0.04875 -0.04828,0.0046 0,-0.0225 -0.02215,0 0,-0.02285 -0.02285,0 -0.04371,0 0,-0.045 -0.121992,-0.06656 -0.01125,-0.04418 -0.09996,-0.04488 -0.08859,-0.201094 -0.221953,-0.446368 0.01078,-0.08953 -0.04406,-0.01113 -0.09996,-0.168282 -0.144844,-0.08906 -0.08871,-0.156094 -0.04406,0 -0.03293,-0.111562 -0.121172,-0.178594 -0.05707,-0.02168 -0.08859,-0.156914 0.02121,-0.08918 -0.187383,-0.424571 -0.045,0 -0.154805,-0.324375 -0.045,-0.01125 -0.332578,-0.48 -0.04746,-0.04289 -0.02215,-0.01 -0.02578,0.0038 -0.02074,0.01008 -0.01301,0.0012 -0.01406,-0.0018 -0.02004,0.0071 -0.03867,0.02414 -0.01383,0.01 -0.0087,0.01793 -0.01418,0.01582 -0.01828,0.0096 -0.0184,0.0096 -0.02367,-8.2e-4 -0.01711,-0.0033 -0.02121,8.2e-4 -0.02168,0.0087 -0.02074,0.02297 -0.02707,0.0061 -0.01043,0.01629 -0.02836,0.01664 -0.02121,-0.0116 0.0013,0.015 -0.05168,0.0095 -0.04289,-3.52e-4 -0.01828,-0.0096 -0.0191,-0.0033 -0.0375,0.01207 -0.0091,-0.005 -0.0059,-0.0096 -0.0049,-0.01664 -0.0026,-0.015 0.008,-0.01289 0.03117,0.0033 0.05379,4.68e-4 0.07652,-0.01582 0.04289,-0.01043 0.02121,-0.03375 0.03832,-0.0375 0.03914,-0.02156 0.04453,-0.0042 0.06996,-0.01664 0.03785,-0.01629 0.02086,-0.01418 0.02496,-0.007 0.0029,-0.01125 0.01711,-0.0033 0.0057,-0.01043 0.04793,-0.01535 0.02203,-0.03129 0.0083,-0.03246 4.69e-4,-0.02789 -4.69e-4,-0.02578 0,-0.0225 -0.02285,0 0,-0.0225 0,-0.021679 -0.02215,0 0,-0.022383 -0.02203,0 0,-0.045 0.02203,0 0,-0.02168 -0.02203,0 -0.110742,-0.4021872 -0.02203,0 0,-0.045352 0.02203,0 0,-0.0225 -0.02203,0 -0.02285,-0.066563 0,-0.0225 -0.02215,0 0,-0.02168 0.02215,0 0,-0.0225 -0.02215,0 0.02215,-0.089414 -0.08918,0 0,-0.0225 0.08918,-0.0225 0,-0.04418 -0.06621,0 0,0.02168 -0.02297,0 0,-0.02168 0,-0.045352 -0.02203,0 0,-0.0225 0,-0.021562 0.02203,0 0.02297,-9.378e-4 0,-0.021562 0.04406,0 0.02215,0 -0.02215,-0.2010942 -0.02203,0 -0.02203,-0.2010936 -0.045,0 0,-0.2010936 0.04418,0 -0.02215,-0.358008 0,-0.06668 -0.02203,0 0,-0.044062 0,-0.1120314 -0.04371,-0.045 0.04371,0 -0.04453,-0.2451564 -0.04418,0 0,-0.0225 0.06703,-0.022852 0.02168,-0.3796872 0.02203,-0.1115628 -0.02203,0 0,-0.044179 -0.06656,0 0,-0.022852 -0.155391,-0.045 -0.0116,0.045 -0.05496,0.022852 0,-0.045352 -0.06703,0.01125 -0.02203,0.078281 -0.04418,0 0.01465,0.082383 -0.140742,-0.089531 0.05953,-0.215625 0.39961,0.03293 0.06621,-0.03375 0.0566,-0.044531 -0.02274,-0.3126564 -0.166992,-0.4134377 -0.04406,-0.011602 0.01207,-0.02168 -0.156563,-0.3351562 -0.121992,-0.089531 -0.045,-0.156914 -0.04406,0 0,-0.1107423 -0.199922,0 0.06703,-0.0225 0.02215,-0.067031 0.06656,-0.0225 0,-0.0225 -0.02285,0 0,-0.044883 -0.410508,-0.6919922 0.01078,-0.044883 -0.04406,0 -0.421757,-0.6478125 -0.04582,0 -0.04289,-0.1345312 -0.08906,-0.044062 -0.02203,-0.0675 -0.08871,-0.044531 0,-0.045 -0.02203,0.00293 -0.02215,0 0,-0.020742 0,-0.02332 -0.04453,0 -0.133242,-0.1232812 -0.110742,-0.03293 0,-0.044883 -0.133125,-0.055781 -0.6437112,-0.07793 -0.1107426,0 0,-0.022383 -0.067031,0 -0.5773825,-0.089531 0.022852,0.067031 -0.067031,0 -0.044062,0 0,-0.02168 0.022031,0 0,-0.0225 -0.022031,0 0,-0.022851 -9.375e-4,-0.089063 -0.044062,0.022383 -0.02168,-0.066563 -0.3780468,-0.1898438 -0.1327735,-0.011719 0,-0.044883 -0.7776562,-0.3571875 0,-0.04418 -0.2131641,-0.049922 -0.00457,-8.204e-4 -0.04875,-0.083789 -0.1332422,-0.077813 -0.266836,-0.078281 -0.031992,-0.00328 -0.05625,-0.025781 -0.00996,0.01207 -0.022031,-0.015 0.012422,-0.024141 -0.1807032,-0.1457812 0,-0.043242 -0.044062,0.021563 -0.045,-0.089063 -0.04418,0 0,-0.044531 -0.1564454,-0.066563 0,-0.045 -0.1320703,-0.044531 0,-0.0675 -0.1560938,-0.066563 0,-0.044531 -0.2663671,-0.17941405 0,-0.0441797 L 5.3958865,0.65816237 5.084871,0.4467561 l 0,-0.0454688 -0.1327735,-0.0657422 0,-0.0461719 L 4.818035,0.2451936 4.7960037,0.1786311 4.5303397,0.06659985 4.5295194,0.02159985 4.174324,3.73472e-5 Z M 47.379129,34.072889 l -0.223946,0.0046 -0.06996,0.147774 0.06047,0.08121 0.0049,0.267305 0.06035,0.181054 0.01418,0.214805 0.121171,0.257695 0.04664,0.152344 0.02824,0.186094 0.01383,0.281484 0.04195,0.152812 0.209883,-0.181171 0.07488,-0.248087 0.01383,-0.252655 0.01875,-0.262735 0.03738,-0.286055 -0.05121,-0.286406 -0.07488,-0.05695 -0.04664,-0.205313 -0.181992,-0.0907 -0.09773,-0.05707 -1.17e-4,0 z"
         id="path4275"
         inkscape:connector-curvature="0" />
    </clipPath>
  </defs>
  <sodipodi:namedview
     pagecolor="#ffffff"
     bordercolor="#666666"
     borderopacity="1"
     objecttolerance="10"
     gridtolerance="10"
     guidetolerance="10"
     inkscape:pageopacity="0"
     inkscape:pageshadow="2"
     inkscape:window-width="1366"
     inkscape:window-height="716"
     id="namedview22"
     showgrid="false"
     inkscape:zoom="1"
     inkscape:cx="359.16617"
     inkscape:cy="380.01143"
     inkscape:window-x="-8"
     inkscape:window-y="-8"
     inkscape:window-maximized="1"
     inkscape:current-layer="svg2"
     fit-margin-top="0"
     fit-margin-left="0"
     fit-margin-right="0"
     fit-margin-bottom="0" />
  <path
     inkscape:connector-curvature="0"
     style="opacity:1;fill:none;fill-opacity:1;stroke:#002b7f;stroke-width:0.20999999;stroke-miterlimit:4;stroke-dasharray:none;stroke-opacity:1"
     d="m 2.5794295,3.000004 -0.6694922,2.0777342 -1.14363287,-0.00223 0.1033593,0.2425781 0.11074217,0.044062 0,0.1345312 0.088359,0 0,0.089062 -0.088359,0.022852 0.021328,0.1562109 -0.04418,0 -0.00609,0.1937109 0.5448047,0.3937498 -0.2921485,0.8930861 0.065273,0.1497654 0.1998047,0.044883 0.00246,0.1037112 -0.010312,0.014179 -0.2139844,-0.00586 0,0.044062 -0.045,0 0.022031,0.147891 -0.1548047,0.00914 -0.04418,0.077813 -0.014883,0.00633 L 0.81763453,8.4270673 2.5806033,7.1396456 4.3443925,8.4260125 3.6645875,6.3516801 5.4332985,5.0718754 3.2500953,5.0772654 2.5794312,3 Z m 5.9998832,4.9999214 -0.8927346,2.7703126 -2.9107032,-0.0055 2.3591015,1.704961 -0.8125778,2.484375 0.1655856,0.05543 0.011602,0.02977 2.0812503,-1.519805 2.3516005,1.715274 -0.906327,-2.76586 0.652031,-0.471796 -0.0083,-0.02824 -0.121172,-0.178594 -0.05707,-0.02168 -0.08859,-0.156914 0.02121,-0.08918 -0.187383,-0.424571 -0.045,0 -0.154805,-0.324375 -0.02039,-0.0052 -0.5431637,0.0014 -0.1409766,-0.436523 -0.010312,3.6e-4 -0.02168,0.0087 -0.020742,0.02297 -0.02707,0.0061 -0.01043,0.01629 -0.02836,0.01664 -0.021211,-0.0116 0.00129,0.015 -0.05168,0.0095 -0.04289,-3.6e-4 -0.018281,-0.0096 -0.019102,-0.0033 -0.0375,0.01207 -0.00914,-0.005 -0.00586,-0.0096 -0.00492,-0.01664 -0.00258,-0.015 0.00797,-0.01289 0.031172,0.0033 0.053789,4.8e-4 0.076523,-0.01582 0.04289,-0.01043 0.021211,-0.03375 0.03832,-0.0375 0.030586,-0.01688 -0.7251564,-2.2462504 z"
     id="path3400-0" />
  <g
     id="g3913"
     clip-path="url(#clipPath4273)"
     transform="translate(-3.4199906,-3.73472e-5)">
    <rect
       style="fill:#002b7f"
       y="0"
       x="0"
       id="rect4"
       height="22.5"
       width="54"
       clip-path="none" />
    <path
       id="path6"
       d="m 0,22.5 54,0 0,4.5 -54,0 z"
       inkscape:connector-curvature="0"
       style="fill:#f9e814"
       clip-path="none" />
    <path
       id="path6-1"
       d="m 0,27 54.000001,0 0,9 L 0,36 Z"
       inkscape:connector-curvature="0"
       style="fill:#002b7f;fill-opacity:1"
       clip-path="none" />
    <path
       style="opacity:1;fill:#ffffff;fill-opacity:1;stroke:none;stroke-width:4;stroke-miterlimit:4;stroke-dasharray:none;stroke-opacity:1"
       d="M 43.689453,50.431641 32.53125,85.060547 -3.8535156,84.990234 25.636719,106.30273 14.326172,140.88281 43.708984,119.42578 73.105469,140.86523 61.775391,106.29297 91.253906,84.962891 54.867188,85.052734 43.689453,50.431641 Z m 99.998047,83.332029 -14.87891,46.17188 -48.511715,-0.0918 39.318355,28.41602 -15.08007,46.10546 39.17773,-28.60937 39.19336,28.58789 -15.10547,-46.09766 39.30274,-28.43945 -48.51368,0.12109 -14.90234,-46.16406 z"
       transform="matrix(0.06,0,0,0.06,3.378035,-0.02586109)"
       id="path3400"
       inkscape:connector-curvature="0" />
  </g>
</svg>
