<?xml version="1.0" encoding="UTF-8" standalone="no"?>
<!-- Created with Inkscape (http://www.inkscape.org/) -->

<svg
   xmlns:dc="http://purl.org/dc/elements/1.1/"
   xmlns:cc="http://creativecommons.org/ns#"
   xmlns:rdf="http://www.w3.org/1999/02/22-rdf-syntax-ns#"
   xmlns:svg="http://www.w3.org/2000/svg"
   xmlns="http://www.w3.org/2000/svg"
   xmlns:xlink="http://www.w3.org/1999/xlink"
   xmlns:sodipodi="http://sodipodi.sourceforge.net/DTD/sodipodi-0.dtd"
   xmlns:inkscape="http://www.inkscape.org/namespaces/inkscape"
   version="1.1"
   width="1552.8285"
   height="821.82874"
   id="svg3036"
   inkscape:version="0.91 r13725"
   sodipodi:docname="Flag-map_of_Cyprus.svg">
  <sodipodi:namedview
     pagecolor="#ffffff"
     bordercolor="#666666"
     borderopacity="1"
     objecttolerance="10"
     gridtolerance="10"
     guidetolerance="10"
     inkscape:pageopacity="0"
     inkscape:pageshadow="2"
     inkscape:window-width="1600"
     inkscape:window-height="837"
     id="namedview46"
     showgrid="false"
     fit-margin-top="0"
     fit-margin-left="0"
     fit-margin-right="0"
     fit-margin-bottom="0"
     inkscape:zoom="0.49497475"
     inkscape:cx="659.52772"
     inkscape:cy="406.59086"
     inkscape:window-x="-8"
     inkscape:window-y="-8"
     inkscape:window-maximized="1"
     inkscape:current-layer="svg3036" />
  <metadata
     id="metadata3042">
    <rdf:RDF>
      <cc:Work
         rdf:about="">
        <dc:format>image/svg+xml</dc:format>
        <dc:type
           rdf:resource="http://purl.org/dc/dcmitype/StillImage" />
        <dc:title />
      </cc:Work>
    </rdf:RDF>
  </metadata>
  <defs
     id="defs3040">
    <clipPath
       clipPathUnits="userSpaceOnUse"
       id="clipPath3829">
      <path
         inkscape:connector-curvature="0"
         d="m 381.13516,-50.337246 -2.23486,0.902006 -0.90202,0.350028 -2.75982,-0.134626 -2.58485,1.25203 -4.52351,3.09644 -0.21539,0.134624 -1.68284,0.471202 -1.58864,-0.686601 -0.90199,0.390421 -0.30961,1.844397 -0.86162,1.346278 -1.03667,0.726992 -3.66186,0.390409 -3.05603,1.548222 -3.99846,-1.036629 -1.85786,0.686598 -3.91768,3.581095 -2.03286,0.942394 -0.68658,-0.04039 -2.70603,-0.121167 -1.13087,0.376958 -1.66939,1.602069 -3.19069,0.255788 -0.9962,0.6866 -1.54824,3.150292 -1.68283,1.723229 -0.98281,0.215405 -1.03664,-0.390421 -0.7808,0.134627 -0.39045,2.019416 -0.72698,0.821227 -2.15405,0.767372 -1.68281,1.427056 -1.50784,0.726993 -2.01945,-0.04039 -0.43082,0 -2.03284,1.117404 -3.74266,0.309646 -1.54821,1.507828 -0.35004,0.296182 -0.72699,0.471193 -1.21164,0.700067 -0.2558,0.161549 -1.46744,-0.255793 -1.68284,0.6866 -0.68661,-1.023169 -1.1578,0.6866 -1.54821,0.04039 -1.89825,-0.861616 -1.46744,-0.646205 -1.07702,0.175009 -0.39042,1.844397 -0.0404,0.215408 -1.1174,1.507828 -2.11368,1.252037 -0.2558,0.390414 -2.40983,3.0964381 -4.52349,4.7927414 -3.83688,1.9386379 -4.0119,1.1981859 -2.75987,2.28866928 -7.32374,3.62148332 -11.53759,5.7216741 -2.36945,0.78084 -3.36569,0.511585 -6.0717,2.248281 -5.30433,1.588606 -0.29618,0.134628 -1.07702,0.29618 -7.49876,2.28867 -3.48686,-0.39042 -2.07327,0.726989 -5.42549,-0.551973 -3.74265,0.04037 -2.36944,0.511586 -4.44271,2.154041 -7.53915,3.621483 -2.49061,2.234819 -3.87728,2.032877 -6.16594,1.938638 -1.11741,0.390421 -3.66187,0.551972 -2.07326,0 -1.25204,-0.39042 -0.21541,0.09424 -7.53914,2.450222 -8.34691,0.82123 -4.22732,1.373203 -3.15028,-0.08078 -1.93864,0.605824 -3.82342,0.471198 -1.38667,-0.390421 -0.29618,-0.08078 -11.33564,0.511587 -5.16971,-0.605828 -2.45022,0.565439 -4.13307,-1.373202 -6.03131,-0.700065 -1.42705,-0.43081 -3.19068,-0.942393 -1.41359,0.821231 -1.07702,0.121162 -2.54446,-0.942393 -0.95586,0 -2.10018,0.780843 -1.21165,-0.350013 -1.11742,-0.902005 -2.67909,-0.390421 -1.62898,-1.332813 -9.046982,1.157798 -2.463685,-0.686601 -8.225748,-2.409835 -1.292424,0.08078 -1.628995,1.211649 -2.463685,0.902005 -2.113655,0.511585 -2.921419,0.134627 -3.365689,-0.902005 -3.446469,-1.682845 -1.292426,-0.296181 -2.840641,0.296181 -0.902004,0.08078 -5.263941,-2.840643 -6.758307,-4.213845 -4.604265,-2.207893 -1.723242,-0.296181 -0.215399,0.821228 0.861613,2.706016 0.255794,2.679089 -0.09424,2.450224 -0.04036,1.507829 0.430806,1.386664 1.68285,1.844399 0.686601,1.857861 0.471198,5.075468 0,5.169699 -0.767378,6.206341 -0.255791,1.292423 -0.996246,4.227304 -0.86162,3.917667 -3.406081,10.420177 -0.942392,1.292426 -2.288672,1.602069 -5.250473,3.527243 -3.836886,2.194434 -1.211648,0.525045 -3.09644,0.255794 L 20.252357,80.493874 17.842524,79.201451 15.473077,78.609082 12.322794,76.360805 8.8763257,75.633813 5.0932886,73.439384 4.0970454,72.268125 2.023781,72.05272 l -3.917664,-1.157799 -0.7269925,-0.215402 -3.6214781,-0.13463 -3.4060825,-1.548216 -1.8040079,-0.430807 -2.463688,-0.134627 -3.877278,1.817474 -1.628992,-0.646218 -1.211648,0.04037 -1.332809,2.073267 -0.175018,0.29618 -0.942392,0.471196 -1.171262,0 -0.902002,-0.04037 -3.446465,1.507834 -0.551977,0.255791 -0.350056,0.09424 -0.646215,0.08078 -0.780835,0.175018 -1.332818,-0.82123 -0.726983,-0.430804 -1.211648,-0.215411 -0.646218,0.430813 -0.121164,2.234817 -0.605826,1.346278 -1.898248,1.628995 -1.898252,1.723233 -1.332809,1.938637 -3.527243,8.104582 -2.248286,3.231064 -0.686601,0.767375 -2.329055,2.54446 -2.019415,1.602072 -4.738892,3.661878 -4.483097,1.66938 -3.877275,0.82123 -1.857863,0 -3.567629,-0.4712 -3.190671,-0.99624 -3.527247,-2.19443 -3.836889,-3.096441 -5.600511,-5.519735 -0.740452,-0.471196 -0.161553,-0.08078 -1.777088,-1.171259 -1.292426,0.04037 -0.511578,0.861613 -0.255797,1.211648 -0.255785,1.077024 -0.646217,6.112096 0.04036,0.35003 0.336572,2.54446 4.227304,5.89669 1.332818,3.15029 0.215399,0.39042 0.861622,1.45398 0.646208,1.13088 0.09424,0.0808 1.453976,4.34847 -1.023169,2.40984 0.511588,1.64247 -1.292423,0.99624 -0.255794,1.4136 3.836889,4.77928 0.807758,2.07326 -0.942385,2.93489 -1.467445,1.5886 -0.390417,0.4712 0.175015,1.21165 1.763625,1.5886 2.975267,2.62524 1.602062,3.97151 1.198192,1.03664 1.386667,-0.30965 0.767375,0.60583 1.211648,-0.0404 1.157799,1.1578 0.74045,0.39042 1.198182,0.60583 0.955863,1.19818 0.16155,3.75611 1.777084,4.69851 0.04036,2.53099 0,0.35004 1.077021,1.89825 0.336569,1.46744 -0.551971,3.91767 1.373201,1.25203 1.507828,-0.30965 0.996243,0.13463 1.548245,1.33279 1.898248,2.88103 1.8444,-0.29617 1.171256,0.60582 5.681285,5.1293 1.292426,0.64622 0.09424,0.0404 0.902003,0.4712 1.157799,1.15779 1.763618,-1.19819 0.215405,0 1.938641,-0.17501 0.86161,0.56544 1.642464,1.11741 2.154036,-0.0404 4.65812,1.41359 2.019412,0.52504 4.133069,2.531 1.723232,1.13088 1.036636,0.80776 1.373198,1.13088 2.719479,1.1578 2.369444,0.56543 1.25204,0.29619 6.0313202,2.32905 2.7598587,0.64622 2.5848551,0.94238 1.8443996,0.64622 1.332812,0.0404 1.9386375,-1.62899 1.8578595,-0.0942 1.5482168,0.39042 1.5078279,-0.25579 2.4098361,-1.46744 0.053855,-0.0808 -1.5616798,-1.11741 1.2924229,-2.58485 0.1346269,-4.52348 0.9962463,0 2.5848493,1.07701 3.136819,0.0808 1.507834,-2.71948 1.602069,-0.72697 c 0,0 1.852471,0.21541 2.369444,-0.6462 0.560048,-0.90471 1.292426,-1.85787 1.292426,-1.85787 l 3.567629,0.2154 2.934881,0.74046 0.296183,2.36944 2.369447,3.01567 2.073264,0.6462 1.723233,2.15404 3.567632,0.5116 1.427053,-1.4136 2.665627,0 0.861622,1.72323 2.584849,-2.28867 2.71948,-1.5886 6.24672,1.1578 0,1.72323 0.511587,0.29618 -0.29618,2.67909 -3.365693,0.43081 -1.157796,-0.99624 -1.507832,1.93864 -1.373202,0.30963 0.296184,2.92143 0.29618,1.17126 1.85786,0.29618 0.72699,-1.80402 4.308086,-1.29242 3.446466,0 1.682845,0 0.175015,0 0.134626,-0.52505 1.373202,-1.804 3.581096,-2.32906 3.877276,-3.44647 3.015659,-1.97902 3.136821,-1.38667 0.09424,-0.33657 0.336568,0.12117 7.969954,-2.70602 0.134628,-0.0404 3.567634,-0.60582 23.96371,1.68285 0.902,-0.26926 0.82123,-2.23482 0.68661,-0.68659 2.66562,-1.17127 1.21165,-0.16155 3.44647,0.86162 1.3732,0.33656 2.24827,-1.25203 1.58862,0 3.27145,-1.80402 2.07326,0.0808 0.76738,-0.33657 3.93112,-2.80026 3.82343,-1.1174 0.99624,-0.52505 0.35003,-0.17502 3.87728,-2.0598 2.49061,-1.93863 2.15404,-1.11742 2.32906,-0.60582 6.16594,-0.43081 1.23857,-2.07326 2.63871,-0.33657 1.58861,-1.81747 1.80401,-0.72699 1.34628,-1.89825 1.07701,-1.54822 1.54822,-0.90201 4.91391,-0.30964 5.81591,0.74046 0.72699,-0.48467 1.33282,-4.68504 1.38666,-0.91546 3.70226,-5.38511 0,-1.97903 0,-1.62899 0.60582,-2.32906 -0.39042,-4.22731 0.4712,-4.30808 2.28867,-5.42552 2.01942,-2.19442 3.27145,-2.19443 1.68284,-0.74046 2.36945,-0.40388 0,-4.24077 0.72699,-0.86162 1.50782,0.55197 0.82123,-1.5886 -0.60582,-1.21165 -2.01941,-0.76737 -1.46745,-1.72324 1.85786,-2.28866 -2.24828,-1.21166 -4.56387,-1.66938 0.0942,-4.95429 1.66938,-1.42706 1.34628,0.726986 3.52724,-3.271449 2.07326,1.211648 -1.29242,4.913915 -0.48466,2.92142 1.64246,0.25578 0.39042,-1.15779 4.56388,-3.01566 5.1293,3.62148 c 0,0 1.33551,-2.71948 2.36945,-2.71948 0.64621,0 1.33012,-0.21001 1.80401,-0.51158 0.25849,-0.17232 0.47389,-0.35003 0.64621,-0.56543 0.43081,-0.60314 2.2052,-2.843339 3.1099,-3.446478 0.9047,-0.60313 2.75448,-2.490608 4.77928,-1.198182 2.0248,1.292426 3.70765,2.4933 4.4831,1.588605 0.73238,-0.947773 2.58216,-2.886414 3.05605,-3.23106 0.51697,-0.344647 1.76362,-1.332818 1.76362,-1.332818 l -0.99625,-1.817471 0.91548,-2.369447 -0.91548,-4.038825 2.28868,-0.700066 1.5886,1.346278 -0.51158,1.023169 1.85786,0.09424 3.95805,6.112092 -0.43081,1.427053 -1.42705,1.332812 -1.58861,2.450219 -3.40608,-3.311832 -2.58485,1.97902 c 0,0 -1.20626,2.027496 -1.93863,2.329058 -0.73238,0.34465 -1.85517,1.593993 -4.0523,0.861623 -2.19712,-0.732375 -3.82342,-1.938641 -3.82342,-1.938641 l -2.89449,2.113661 -1.25204,2.2752 2.75986,1.38667 c 0,0 2.0275,0.43081 2.54447,1.07702 0.25848,0.34465 1.03663,1.29242 1.03663,1.29242 0,0 0.0404,1.11741 0.0404,1.33282 0,0.43081 0.35004,3.83688 0.35004,3.83688 0,0 0.98278,0.4739 1.62899,1.07703 0.64622,0.60313 0.26388,0.47658 1.64247,0.60582 1.24933,0.0862 2.0598,0.16155 2.0598,0.16155 l 0.48465,4.22731 -1.85785,0 -1.54822,2.07326 2.19442,1.07703 2.54447,-0.48466 8.18536,1.99248 0.55197,-0.82122 4.30808,-1.68285 5.00815,-0.29618 0.59236,-0.30964 0.30965,-0.17501 1.33281,-1.54822 1.25203,0 3.01566,1.07702 2.11365,-0.43082 1.66939,0.68661 1.29243,-0.16156 2.50407,-0.26925 2.62524,1.85786 1.54822,0.17501 5.43895,3.19068 0.29618,0.0404 0.13463,0.0404 0.33657,0.0404 0.64621,-0.17502 0.95586,-0.29617 0.12116,0 0.13463,0.13462 0.60582,0.902 0.86162,0.12117 0.98278,-1.3732 -0.39041,-0.60582 -0.16156,-0.2154 -1.93864,-0.39043 -1.72323,-2.96181 1.62899,-1.81747 -2.58485,-3.19067 -0.4308,-0.55198 -0.17503,-0.2154 -0.902,-1.38667 -4.56386,-6.93325 -8.79118,-7.014105 -3.13682,-3.231064 -2.28867,-3.015659 -0.29618,-0.646214 -0.48466,-1.036629 -1.33282,-2.934884 -2.36944,-1.8444 -1.93864,-2.11365 -0.0808,-0.134633 -4.01191,-5.3851 -0.64621,-0.902005 -0.94239,-0.565437 -1.97903,0 -0.17501,-0.215405 -0.13463,-0.08077 0.0404,-0.08078 0.99627,-0.955858 1.03663,-0.255796 0.4712,-1.03663 -2.01941,-5.89669 -0.0538,-0.175016 -0.12117,-1.898255 1.62899,-8.521925 0.21541,-1.036626 2.85411,-5.735141 1.72323,-1.413595 1.88479,-3.756111 1.64245,-2.409835 1.58861,-1.507827 0.26926,-0.17502 2.80025,-1.682847 2.40984,-0.336571 2.23481,-0.309644 3.91766,1.211657 3.7965,-0.08078 0.72699,-0.09424 1.68285,-0.175018 2.80025,-0.902007 1.33282,-0.821226 0.70006,-1.023171 1.41359,-4.792746 0.4712,-1.548218 0.86161,-1.628994 5.12931,-5.910153 3.83689,-3.567632 8.69694,-6.340961 4.22731,-2.544462 2.19443,-1.2924249 19.34599,-8.61616727 5.03508,-5.11585033 2.63869,-2.6387018 4.60427,-3.0964347 5.42552,-2.234818 4.69848,-3.715722 1.0366,-1.292423 1.25206,-4.133066 1.07703,-0.255796 0.9828,-2.073256 0.25577,-0.592362 3.83692,-2.719482 0.39039,-0.215402 14.82247,-7.404518 2.15405,0.296179 1.15784,-1.723232 4.30809,-0.72699 0.78082,-0.134627 1.07701,-0.511584 0.90202,-1.561674 0,-0.296189 0.13463,-4.092674 0.90196,-1.117416 0.51166,-2.719473 0.47117,-0.646208 0.48467,-0.646218 1.23853,-0.861619 -0.21537,-0.47119 z m -172.53878,159.264476 -0.0808,2.54446 1.07702,0.74045 1.03664,-0.48466 -0.0942,-2.70602 -1.93864,-0.0942 z m 4.30808,5.34471 -0.76738,0.74045 3.44647,2.01942 1.89825,0.2154 1.41359,0.13463 0.52505,-0.64621 -1.29243,-0.99625 -3.23106,-0.94239 -1.99249,-0.52505 z m -2.531,3.87727 -1.07702,1.64247 c 0,0 -0.0506,0.0227 -0.1077,0.0673 l 2.8541,-0.0269 -0.0404,-0.0404 -1.629,-1.64246 z"
         id="path3831"
         style="opacity:0.57587544" />
    </clipPath>
    <clipPath
       clipPathUnits="userSpaceOnUse"
       id="clipPath3833">
      <path
         inkscape:connector-curvature="0"
         d="m 1020.2946,-230.59679 -7.3206,2.95465 -2.9547,1.14657 -9.0402,-0.44099 -8.46703,4.10121 -14.81742,10.14284 -0.70554,0.44098 -5.51239,1.54349 -5.20383,-2.24906 -2.95459,1.27888 -1.01419,6.04159 -2.82235,4.40993 -3.39576,2.38137 -11.99497,1.27884 -10.01048,5.07143 -13.09751,-3.39563 -6.08571,2.24905 -12.83294,11.7304 -6.65893,3.08695 -2.24897,-0.1323 -8.864,-0.3969 -3.70435,1.23478 -5.46832,5.24781 -10.45157,0.83787 -3.26321,2.24906 -5.07147,10.31924 -5.51236,5.64469 -3.21932,0.70559 -3.39569,-1.27888 -2.55761,0.44099 -1.27898,6.61489 -2.38134,2.69005 -7.05588,2.51364 -5.51232,4.67453 -4.93914,2.38137 -6.61501,-0.13229 -1.41119,0 -6.65889,3.66022 -12.2596,1.01429 -5.07141,4.93911 -1.1466,0.97019 -2.38135,1.54346 -3.96893,2.29317 -0.83789,0.52918 -4.80682,-0.83789 -5.51239,2.24906 -2.24908,-3.35154 -3.79254,2.24906 -5.07139,0.1323 -6.21799,-2.82235 -4.80682,-2.11674 -3.52794,0.57327 -1.27889,6.04159 -0.13222,0.7056 -3.66023,4.93911 -6.92366,4.10123 -0.83789,1.27886 -7.89376,10.142834 -14.81734,15.699324 -12.56829,6.350291 -13.14156,3.924833 -9.04036,7.49687 -23.98998,11.862697 -37.79306,18.742179 -7.76146,2.557754 -11.02481,1.675772 -19.88875,7.364574 -17.3751,5.20371 -0.97019,0.440992 -3.52794,0.970182 -24.56328,7.4968715 -11.4217,-1.278877 -6.79129,2.381359 -17.77199,-1.8080692 -12.25959,0.1322266 -7.76146,1.6757729 -14.55275,7.05587714 -24.69558,11.86269506 -8.15836,7.320476 -12.70059,6.658985 -20.19745,6.350291 -3.66022,1.27888 -11.99499,1.808066 -6.79129,0 -4.10124,-1.278877 -0.70559,0.308696 -24.69556,8.026061 -27.34153,2.690059 -13.84718,4.498125 -10.3192,-0.264598 -6.35031,1.984465 -12.52417,1.54348 -4.54224,-1.278882 -0.97017,-0.264598 -37.13155,1.675778 -16.93413,-1.984478 -8.02605,1.85218 -13.53848,-4.498125 -19.75645,-2.293165 -4.67451,-1.41118 -10.45153,-3.086947 -4.63042,2.690063 -3.52794,0.396884 -8.33474,-3.086947 -3.13107,0 -6.87946,2.557765 -3.96893,-1.146519 -3.66025,-2.954648 -8.77576,-1.278879 -5.33596,-4.365824 -29.634713,3.792535 -8.070162,-2.249062 -26.944636,-7.893765 -4.233525,0.264597 -5.336009,3.968932 -8.07016,2.954648 -6.923585,1.675773 -9.569534,0.440991 -11.024805,-2.954649 -11.289413,-5.512406 -4.233529,-0.970182 -9.304936,0.970182 -2.954645,0.264596 -17.242808,-9.30494 -22.137819,-13.8030634 -15.081943,-7.23227586 -5.64473,-0.97018274 -0.70557,2.6900528 2.82234,8.8639472 0.83789,8.775748 -0.3087,8.026065 -0.13222,4.939115 1.41117,4.542221 5.51242,6.041597 2.24906,6.085697 1.54348,16.625434 0,16.934104 -2.51366,20.329776 -0.83788,4.23352 -3.26335,13.84715 -2.82236,12.83289 -11.157118,34.13281 -3.08694,4.23353 -7.49688,5.24781 -17.19869,11.554 -12.56828,7.18819 -3.96893,1.71986 -10.14284,0.83789 -6.35029,-0.44099 -7.89376,-4.23352 -7.76147,-1.94039 -10.31921,-7.36456 -11.28941,-2.38137 -12.39189,-7.18817 -3.26334,-3.83663 -6.79128,-0.70559 -12.83288,-3.79254 -2.38137,-0.70558 -11.86268,-0.441 -11.15712,-5.07141 -5.90929,-1.41117 -8.07017,-0.44099 -12.70059,5.9534 -5.336,-2.11678 -3.96893,0.13223 -4.36581,6.79129 -0.5733,0.97018 -3.08694,1.54347 -3.83664,0 -2.95464,-0.13223 -11.2894,4.93913 -1.80808,0.83788 -1.14666,0.30869 -2.11677,0.26459 -2.55774,0.5733 -4.36584,-2.69006 -2.38134,-1.41116 -3.96893,-0.70561 -2.11678,1.41119 -0.39689,7.32047 -1.98447,4.40993 -6.21799,5.33601 -6.218,5.6447 -4.36581,6.35029 -11.554,26.54774 -7.36459,10.58382 -2.24906,2.51365 -7.62916,8.33475 -6.61489,5.24782 -15.52293,11.995 -14.68504,5.4683 -12.70058,2.69005 -6.0857,0 -11.68629,-1.54348 -10.45151,-3.26333 -11.55401,-7.18818 -12.56829,-10.14282 -18.34529,-18.0807 -2.42546,-1.54347 -0.52919,-0.26459 -5.82111,-3.83663 -4.23353,0.13222 -1.67575,2.82234 -0.8379,3.96893 -0.83786,3.52795 -2.11678,20.02105 0.13222,1.14659 1.10249,8.33475 13.84715,19.31547 4.36584,10.31923 0.70557,1.27888 2.82237,4.76272 2.11675,3.70434 0.3087,0.26459 4.76271,14.24404 -3.35154,7.89378 1.67578,5.38016 -4.23352,3.26334 -0.83789,4.63044 12.56829,15.65522 2.64593,6.79129 -3.08692,9.61364 -4.80683,5.20371 -1.27887,1.54348 0.57329,3.96893 5.77701,5.2037 9.74592,8.59936 5.24779,13.00926 3.92485,3.39565 4.54223,-1.01429 2.51365,1.98446 3.96893,-0.13222 3.79254,3.79254 2.42545,1.27888 3.92482,1.98447 3.13107,3.92481 0.52918,12.3037 5.8211,15.39064 0.13222,8.29065 0,1.14659 3.52794,6.21799 1.10248,4.80683 -1.80806,12.83288 4.49812,4.10122 4.93911,-1.01429 3.26334,0.44098 5.0715,4.36577 6.21799,9.43723 6.0416,-0.97017 3.83662,1.98446 18.60988,16.80179 4.23353,2.11678 0.30871,0.13222 2.95464,1.54348 3.79254,3.79254 5.77699,-3.92485 0.70559,0 6.3503,-0.57327 2.82233,1.85216 5.38013,3.66025 7.05586,-0.13223 15.25835,4.6304 6.61488,1.71987 13.53847,8.29066 5.6447,3.70434 3.39565,2.64596 4.49811,3.70434 8.90805,3.79254 7.76146,1.85215 4.10124,0.97021 19.75647,7.62915 9.04032,2.11678 8.46707,3.08692 6.0416,2.11678 4.36582,0.13222 6.35029,-5.33601 6.08569,-0.30868 5.07141,1.27886 4.93911,-0.83786 7.89377,-4.80683 0.17641,-0.2646 -5.11551,-3.66025 4.23352,-8.46705 0.44099,-14.81732 3.26335,0 8.46705,3.52791 10.27511,0.26459 4.93913,-8.90803 5.24781,-2.38129 c 0,0 6.06804,0.70558 7.76146,-2.11674 1.83452,-2.9635 4.23353,-6.08571 4.23353,-6.08571 l 11.68629,0.70558 9.61363,2.42546 0.97019,7.76146 7.76147,9.87825 6.79128,2.11674 5.6447,7.05588 11.6863,1.6758 4.674518,-4.63043 8.73165,0 2.82237,5.64469 8.46705,-7.49688 8.908054,-5.2037 20.462043,3.79253 0,5.6447 1.675776,0.9702 -0.97018,8.77573 -11.02482,1.41119 -3.792529,-3.26334 -4.939122,6.3503 -4.498124,1.01425 0.970194,9.56955 0.97018,3.83665 6.085693,0.97017 2.381362,-5.90932 14.111762,-4.23352 11.289403,0 5.512406,0 0.573287,0 0.440985,-1.71987 4.498124,-5.90928 11.730402,-7.62916 12.700584,-11.2894 9.878231,-6.48259 10.275114,-4.54224 0.3087,-1.10248 1.10248,0.39691 26.106745,-8.86396 0.440995,-0.13223 11.686304,-1.98446 78.496643,5.51241 2.95464,-0.88198 2.69004,-7.32048 2.24909,-2.24905 8.73164,-3.83666 3.96893,-0.52918 11.28942,2.82236 4.49812,1.10245 7.36455,-4.10121 5.20374,0 10.71611,-5.90932 6.79126,0.2646 2.51368,-1.10246 12.87696,-9.17266 12.52419,-3.66023 3.26335,-1.71987 1.14656,-0.57329 12.70059,-6.74718 8.15836,-6.35028 7.05589,-3.66025 7.62915,-1.98447 20.19745,-1.41117 4.05713,-6.79128 8.64348,-1.10249 5.2037,-5.95339 5.90929,-2.38136 4.40994,-6.21799 3.52792,-5.07141 5.07141,-2.95467 16.09624,-1.01426 19.05087,2.42546 2.38135,-1.58759 4.36583,-15.34652 4.54223,-2.99875 12.12728,-17.6397 0,-6.48259 0,-5.33602 1.98446,-7.62915 -1.27887,-13.84718 1.54347,-14.11175 7.49687,-17.77207 6.6149,-7.18816 10.71611,-7.18818 5.5124,-2.42547 7.76147,-1.32297 0,-13.89126 2.38137,-2.82236 4.9391,1.80807 2.69006,-5.2037 -1.98447,-3.96893 -6.61488,-2.51366 -4.80682,-5.64472 6.08568,-7.49684 -7.36456,-3.96896 -14.94964,-5.4683 0.30869,-16.22851 5.4683,-4.67452 4.40994,2.38135 11.55399,-10.71611 6.79127,3.96893 -4.23352,16.09623 -1.58756,9.56953 5.3801,0.83787 1.27888,-3.79253 14.94965,-9.87823 16.8018,11.8627 c 0,0 4.37464,-8.90805 7.76146,-8.90805 2.11676,0 4.35702,-0.68794 5.9093,-1.67576 0.84671,-0.56447 1.5523,-1.14659 2.11677,-1.85217 1.41118,-1.97565 7.22345,-9.31375 10.18692,-11.28942 2.96347,-1.97564 9.0227,-8.15835 15.65524,-3.92482 6.63253,4.23353 12.14493,8.16717 14.68505,5.20371 2.39899,-3.10457 8.45823,-9.45487 10.01052,-10.58381 1.69341,-1.12894 5.77701,-4.36584 5.77701,-4.36584 l -3.26336,-5.95339 2.99876,-7.76147 -2.99876,-13.22976 7.49688,-2.29317 5.20371,4.40993 -1.67577,3.35154 6.08569,0.3087 12.96518,20.02105 -1.41118,4.67452 -4.67452,4.36582 -5.2037,8.02605 -11.15712,-10.84839 -8.46705,6.48257 c 0,0 -3.95129,6.64136 -6.35028,7.62917 -2.39901,1.12895 -6.07689,5.22135 -13.27388,2.82237 -7.19699,-2.399 -12.52417,-6.3503 -12.52417,-6.3503 l -9.48134,6.92359 -4.10124,7.45276 9.04034,4.54223 c 0,0 6.64134,1.41117 8.33477,3.52794 0.84669,1.12894 3.39563,4.23352 3.39563,4.23352 0,0 0.13222,3.66024 0.13222,4.36582 0,1.41119 1.14659,12.56829 1.14659,12.56829 0,0 3.21925,1.5523 5.33601,3.52794 2.11677,1.97564 0.86436,1.56112 5.38012,1.98447 4.09239,0.28223 6.74718,0.52919 6.74718,0.52919 l 1.58756,13.84717 -6.08568,0 -5.07142,6.79126 7.18817,3.52795 8.33476,-1.58756 26.81235,6.52666 1.80806,-2.69004 14.11175,-5.51241 16.40491,-0.97018 1.94037,-1.01429 1.01429,-0.57327 4.36582,-5.07142 4.10123,0 9.87823,3.52795 6.92357,-1.4112 5.46831,2.24908 4.23354,-0.52921 8.20246,-0.88197 8.59935,6.0857 5.07142,0.57327 17.81609,10.45154 0.97017,0.13222 0.44099,0.13223 1.10249,0.13222 2.11677,-0.57329 3.13104,-0.97017 0.39689,0 0.441,0.44099 1.98446,2.95463 2.82234,0.39691 3.21925,-4.49813 -1.27886,-1.98446 -0.52919,-0.70558 -6.3503,-1.27889 -5.64471,-9.70184 5.33601,-5.95339 -8.46706,-10.45152 -1.41116,-1.80807 -0.57331,-0.70558 -2.95464,-4.54224 -14.94958,-22.71089 -28.79679,-22.9757 -10.27513,-10.58382 -7.49686,-9.87823 -0.97019,-2.11677 -1.58758,-3.39563 -4.36583,-9.61364 -7.76146,-6.0416 -6.35028,-6.92357 -0.26459,-0.44101 -13.14159,-17.63968 -2.11676,-2.95465 -3.08695,-1.85217 -6.48258,0 -0.57329,-0.70559 -0.441,-0.26459 0.13223,-0.26459 3.26341,-3.13105 3.39565,-0.8379 1.54347,-3.39563 -6.61488,-19.31547 -0.1764,-0.57329 -0.3969,-6.21801 5.33601,-27.91481 0.70559,-3.39562 9.34905,-18.786292 5.64469,-4.630436 6.1739,-12.303689 5.3801,-7.893765 5.20371,-4.939108 0.882,-0.573303 9.17264,-5.512411 7.89377,-1.102487 7.32045,-1.014287 12.83289,3.968962 12.43598,-0.264616 2.38137,-0.308687 5.5124,-0.573294 9.17264,-2.954657 4.36583,-2.690047 2.29315,-3.351543 4.63043,-15.699341 1.54348,-5.071413 2.82234,-5.336007 16.8018,-19.3595698 12.56829,-11.6862981 28.48811,-20.7707431 13.84717,-8.334756 7.18817,-4.233527 63.37062,-28.223513 16.49311,-16.757714 8.64344,-8.643453 15.08195,-10.142825 17.77208,-7.32047 15.39057,-12.17139 3.39553,-4.23352 4.1013,-13.53846 3.52795,-0.8379 3.21932,-6.79125 0.83781,-1.94037 12.56838,-8.90806 1.27879,-0.70558 48.55318,-24.25458 7.05589,0.97018 3.79266,-5.6447 14.11178,-2.38136 2.55771,-0.44099 3.5279,-1.67577 2.9547,-5.11549 0,-0.97021 0.441,-13.40615 2.9545,-3.66026 1.676,-8.90803 1.5434,-2.11675 1.5876,-2.11678 4.057,-2.82236 -0.7055,-1.54345 z m -565.17594,521.69401 -0.2646,8.33476 3.52795,2.42545 3.39564,-1.58756 -0.3087,-8.86396 -6.35029,-0.30869 z m 14.11175,17.50739 -2.51365,2.42546 11.28941,6.6149 6.21799,0.70558 4.63043,0.44098 1.71985,-2.11675 -4.23352,-3.26334 -10.58381,-3.08696 -6.5267,-1.71987 z m -8.29065,12.70058 -3.52795,5.38013 c 0,0 -0.16579,0.0745 -0.35279,0.22047 l 9.34904,-0.0883 -0.13222,-0.13222 -5.33601,-5.38011 z"
         id="path3835"
         style="opacity:0.57587544" />
    </clipPath>
  </defs>
  <rect
     style="fill:#ffffff;fill-opacity:1;fill-rule:evenodd;stroke:none"
     id="rect3805"
     width="1570.4121"
     height="850.41315"
     x="-534.21527"
     y="-240.61108"
     clip-path="url(#clipPath3833)"
     transform="translate(530.2576,231.84679)" />
  <path
     inkscape:connector-curvature="0"
     d="m 1550.5522,1.25 -7.3206,2.95465 -2.9547,1.14657 -9.0402,-0.44099 -8.467,4.10121 -14.8175,10.14284 -0.7055,0.44098 -5.5124,1.54349 -5.2038,-2.24906 -2.9546,1.27888 -1.0142,6.04159 -2.8223,4.40993 -3.3958,2.38137 -11.995,1.27884 -10.0105,5.07143 -13.0975,-3.39563 -6.0857,2.24905 -12.8329,11.7304 -6.6589,3.08695 -2.249,-0.1323 -8.864,-0.3969 -3.7044,1.23478 -5.4683,5.24781 -10.4516,0.83787 -3.2632,2.24906 -5.0714,10.31924 -5.5124,5.64469 -3.2193,0.70559 -3.3957,-1.27888 -2.5576,0.44099 -1.279,6.61489 -2.3813,2.69005 -7.0559,2.51364 -5.5123,4.67453 -4.9392,2.38137 -6.615,-0.13229 -1.4112,0 -6.6589,3.66022 -12.2596,1.01429 -5.0714,4.93911 -1.1466,0.97019 -2.3813,1.54346 -3.969,2.29317 -0.8378,0.52918 -4.8069,-0.83789 -5.5124,2.24906 -2.249,-3.35154 -3.7926,2.24906 -5.0714,0.1323 -6.218,-2.82235 -4.8068,-2.11674 -3.5279,0.57327 -1.2789,6.04159 -0.1322,0.7056 -3.6603,4.93911 -6.9236,4.10123 -0.8379,1.27886 -7.8938,10.14283 -14.8173,15.69933 -12.5683,6.35029 -13.1416,3.92483 -9.0403,7.49687 -23.99,11.8627 -37.7931,18.74218 -7.7614,2.55775 -11.0248,1.67577 -19.8888,7.36458 -17.3751,5.20371 -0.9702,0.44099 -3.5279,0.97018 -24.5633,7.49687 -11.4217,-1.27887 -6.7913,2.38136 -17.772,-1.80807 -12.2596,0.13222 -7.7614,1.67578 -14.55276,7.05587 -24.69558,11.8627 -8.15836,7.32047 -12.70059,6.65899 -20.19745,6.35029 -3.66022,1.27888 -11.99499,1.80807 -6.79129,0 -4.10124,-1.27888 -0.70559,0.3087 -24.69556,8.02606 -27.34153,2.69006 -13.84718,4.49812 -10.3192,-0.2646 -6.35031,1.98447 -12.52417,1.54348 -4.54224,-1.27888 -0.97017,-0.2646 -37.13155,1.67578 -16.93413,-1.98448 -8.02605,1.85218 -13.53848,-4.49813 -19.75645,-2.29316 -4.67451,-1.41118 -10.45153,-3.08695 -4.63042,2.69006 -3.52794,0.39689 -8.33474,-3.08695 -3.13107,0 -6.87946,2.55777 -3.96893,-1.14652 -3.66025,-2.95465 -8.77576,-1.27888 -5.33596,-4.36582 -29.63471,3.79253 -8.07017,-2.24906 -26.94463,-7.89377 -4.23353,0.2646 -5.33601,3.96893 -8.07016,2.95465 -6.92358,1.67577 -9.56953,0.44099 -11.02481,-2.95465 -11.28941,-5.5124 -4.23353,-0.97018 -9.30494,0.97018 -2.95464,0.2646 -17.24281,-9.30494 -22.13782,-13.80307 -15.08194,-7.23227 -5.64473,-0.97019 -0.70557,2.69006 2.82234,8.86394 0.83789,8.77575 -0.3087,8.02607 -0.13222,4.93911 1.41117,4.54222 5.51242,6.0416 2.24906,6.0857 1.54348,16.62543 0,16.9341 -2.51366,20.32978 -0.83788,4.23352 -3.26335,13.84715 -2.82236,12.83289 -11.15711,34.13281 -3.087,4.23353 -7.4968,5.24781 -17.1987,11.554 -12.5683,7.18819 -3.9689,1.71986 -10.1429,0.83789 -6.3503,-0.44099 -7.8937,-4.23352 -7.7615,-1.94039 -10.3192,-7.36456 -11.2894,-2.38137 -12.3919,-7.18817 -3.2633,-3.83663 -6.7913,-0.70559 -12.8329,-3.79254 -2.3814,-0.70558 -11.8627,-0.441 -11.1571,-5.07141 -5.9093,-1.41117 -8.0701,-0.44099 -12.7006,5.9534 -5.336,-2.11678 -3.969,0.13223 -4.3658,6.79129 -0.5733,0.97018 -3.0869,1.54347 -3.8366,0 -2.9547,-0.13223 -11.2894,4.93913 -1.8081,0.83788 -1.1466,0.30869 -2.1168,0.26459 -2.5577,0.5733 -4.3659,-2.69006 -2.3813,-1.41116 -3.9689,-0.70561 -2.1168,1.41119 -0.3969,7.32047 -1.9845,4.40993 -6.218,5.33601 -6.218,5.6447 -4.3658,6.35029 -11.554,26.54774 -7.3646,10.58382 -2.249,2.51365 -7.6292,8.33475 -6.6149,5.24782 -15.5229,11.995 -14.6851,5.4683 -12.700504,2.69005 -6.0857,0 -11.6863,-1.54348 -10.4515,-3.26333 -11.554,-7.18818 -12.5683,-10.14282 -18.3453,-18.0807 -2.4255,-1.54347 -0.5292,-0.26459 -5.8211,-3.83663 -4.2335003,0.13222 -1.6758,2.82234 -0.8379,3.96893 -0.8378,3.52795 -2.1168,20.02105 0.1322,1.14659 1.1025,8.33475 13.8472003,19.31547 4.3658,10.31923 0.7056,1.27888 2.8223,4.76272 2.1168,3.70434 0.3087,0.26459 4.7627,14.24404 -3.3515,7.89378 1.6757,5.38016 -4.2335,3.26334 -0.8379,4.63044 12.5683,15.65522 2.6459,6.79129 -3.0869,9.61364 -4.8068,5.20371 -1.2789,1.54348 0.5733,3.96893 5.777,5.2037 9.7459,8.59936 5.2478,13.00926 3.9249,3.39565 4.5422,-1.01429 2.5137,1.98446 3.9689,-0.13222 3.7925,3.79254 2.4255,1.27888 3.9248,1.98447 3.1311,3.92481 0.5292,12.3037 5.8211,15.39064 0.1322,8.29065 0,1.14659 3.5279,6.21799 1.1025,4.80683 -1.8081,12.83288 4.4982,4.10122 4.9391,-1.01429 3.263304,0.44098 5.0715,4.36577 6.218,9.43723 6.0416,-0.97017 3.8366,1.98446 18.6099,16.80179 4.2335,2.11678 0.3087,0.13222 2.9547,1.54348 3.7925,3.79254 5.777,-3.92485 0.7056,0 6.3503,-0.57327 2.8223,1.85216 5.3802,3.66025 7.0558,-0.13223 15.2584,4.6304 6.6148,1.71987 13.5385,8.29066 5.6447,3.70434 3.3957,2.64596 4.4981,3.70434 8.908,3.79254 7.7615,1.85215 4.1012,0.97021 19.7565,7.62915 9.0403,2.11678 8.4671,3.08692 6.0416,2.11678 4.3658,0.13222 6.3503,-5.33601 6.0857,-0.30868 5.0714,1.27886 4.9391,-0.83786 7.8938,-4.80683 0.1764,-0.2646 -5.1155,-3.66025 4.2335,-8.46705 0.441,-14.81732 3.2633,0 8.4671,3.52791 10.2751,0.26459 4.9391,-8.90803 5.2478,-2.38129 c 0,0 6.0681,0.70558 7.7615,-2.11674 1.8345,-2.9635 4.2335,-6.08571 4.2335,-6.08571 l 11.6863,0.70558 9.6136,2.42546 0.9702,7.76146 7.7615,9.87825 6.7913,2.11674 5.6447,7.05588 11.6863,1.6758 4.67451,-4.63043 8.73165,0 2.82237,5.64469 8.46705,-7.49688 8.90805,-5.2037 20.46205,3.79253 0,5.6447 1.67577,0.9702 -0.97018,8.77573 -11.02482,1.41119 -3.79253,-3.26334 -4.93912,6.3503 -4.49812,1.01425 0.97019,9.56955 0.97018,3.83665 6.08569,0.97017 2.38137,-5.90932 14.11176,-4.23352 11.2894,0 5.51241,0 0.57328,0 0.44099,-1.71987 4.49812,-5.90928 11.7304,-7.62916 12.70059,-11.2894 9.87823,-6.48259 10.27511,-4.54224 0.3087,-1.10248 1.10248,0.39691 26.10675,-8.86396 0.44099,-0.13223 11.68631,-1.98446 78.49664,5.51241 2.95464,-0.88198 2.69004,-7.32048 2.24909,-2.24905 8.73164,-3.83666 3.96893,-0.52918 11.28942,2.82236 4.49812,1.10245 7.36455,-4.10121 5.20374,0 10.71611,-5.90932 6.79126,0.2646 2.51368,-1.10246 12.87696,-9.17266 12.52419,-3.66023 3.26335,-1.71987 1.14656,-0.57329 12.70059,-6.74718 8.15836,-6.35028 7.05589,-3.66025 7.62915,-1.98447 20.19745,-1.41117 4.05713,-6.79128 8.64348,-1.10249 5.2037,-5.95339 5.90929,-2.38136 4.40994,-6.21799 3.52792,-5.07141 5.07141,-2.95467 16.09624,-1.01426 19.05087,2.42546 2.38135,-1.58759 4.36583,-15.34652 4.54223,-2.99875 12.12728,-17.6397 0,-6.48259 0,-5.33602 1.98446,-7.62915 -1.27887,-13.84718 1.54347,-14.11175 7.49687,-17.77207 6.6149,-7.18816 10.71611,-7.18818 5.5124,-2.42547 7.76147,-1.32297 0,-13.89126 2.38137,-2.82236 4.9391,1.80807 2.69006,-5.2037 -1.98447,-3.96893 -6.61488,-2.51366 -4.80682,-5.64472 6.08568,-7.49684 -7.36456,-3.96896 -14.94964,-5.4683 0.30869,-16.22851 5.4683,-4.67452 4.40994,2.38135 11.55399,-10.71611 6.79127,3.96893 -4.23352,16.09623 -1.58756,9.56953 5.3801,0.83787 1.27888,-3.79253 14.94965,-9.87823 16.8018,11.8627 c 0,0 4.37465,-8.90805 7.76145,-8.90805 2.1168,0 4.357,-0.68794 5.9093,-1.67576 0.8467,-0.56447 1.5523,-1.14659 2.1168,-1.85217 1.4112,-1.97565 7.2234,-9.31375 10.1869,-11.28942 2.9635,-1.97564 9.0227,-8.15835 15.6552,-3.92482 6.6326,4.23353 12.145,8.16717 14.6851,5.20371 2.399,-3.10457 8.4582,-9.45487 10.0105,-10.58381 1.6934,-1.12894 5.777,-4.36584 5.777,-4.36584 l -3.2633,-5.95339 2.9987,-7.76147 -2.9987,-13.22976 7.4968,-2.29317 5.2038,4.40993 -1.6758,3.35154 6.0857,0.3087 12.9652,20.02105 -1.4112,4.67452 -4.6745,4.36582 -5.2037,8.02605 -11.1572,-10.84839 -8.467,6.48257 c 0,0 -3.9513,6.64136 -6.3503,7.62917 -2.399,1.12895 -6.0769,5.22135 -13.2739,2.82237 -7.197,-2.399 -12.5241,-6.3503 -12.5241,-6.3503 l -9.4814,6.92359 -4.1012,7.45276 9.0403,4.54223 c 0,0 6.6414,1.41117 8.3348,3.52794 0.8467,1.12894 3.3956,4.23352 3.3956,4.23352 0,0 0.1322,3.66024 0.1322,4.36582 0,1.41119 1.1466,12.56829 1.1466,12.56829 0,0 3.2193,1.5523 5.336,3.52794 2.1168,1.97564 0.8644,1.56112 5.3802,1.98447 4.0923,0.28223 6.7471,0.52919 6.7471,0.52919 l 1.5876,13.84717 -6.0857,0 -5.0714,6.79126 7.1882,3.52795 8.3347,-1.58756 26.8124,6.52666 1.808,-2.69004 14.1118,-5.51241 16.4049,-0.97018 1.9404,-1.01429 1.0143,-0.57327 4.3658,-5.07142 4.1012,0 9.8782,3.52795 6.9236,-1.4112 5.4683,2.24908 4.2336,-0.52921 8.2024,-0.88197 8.5994,6.0857 5.0714,0.57327 17.8161,10.45154 0.9701,0.13222 0.441,0.13223 1.1025,0.13222 2.1168,-0.57329 3.131,-0.97017 0.3969,0 0.441,0.44099 1.9845,2.95463 2.8223,0.39691 3.2193,-4.49813 -1.2789,-1.98446 -0.5292,-0.70558 -6.3503,-1.27889 -5.6447,-9.70184 5.336,-5.95339 -8.467,-10.45152 -1.4112,-1.80807 -0.5733,-0.70558 -2.9546,-4.54224 -14.9496,-22.71089 -28.7968,-22.9757 -10.2751,-10.58382 -7.4969,-9.87823 -0.9702,-2.11677 -1.5876,-3.39563 -4.3658,-9.61364 -7.7615,-6.0416 -6.3502,-6.92357 -0.2646,-0.44101 -13.1416,-17.63968 -2.1168,-2.95465 -3.0869,-1.85217 -6.4826,0 -0.5733,-0.70559 -0.441,-0.26459 0.1322,-0.26459 3.2634,-3.13105 3.3957,-0.8379 1.5435,-3.39563 -6.6149,-19.31547 -0.1764,-0.57329 -0.3969,-6.21801 5.336,-27.91481 0.7056,-3.39562 9.349,-18.78629 5.6447,-4.63044 6.1739,-12.30369 5.3801,-7.89376 5.2037,-4.93911 0.882,-0.5733 9.1727,-5.51241 7.8937,-1.10249 7.3205,-1.01429 12.8329,3.96896 12.436,-0.26461 2.3813,-0.30869 5.5124,-0.57329 9.1727,-2.95466 4.3658,-2.69005 2.2931,-3.35154 4.6305,-15.69934 1.5435,-5.07141 2.8223,-5.33601 16.8018,-19.35957 12.5683,-11.6863 28.4881,-20.77074 13.8472,-8.33476 7.1881,-4.23353 63.3707,-28.22351 16.4931,-16.75771 8.6434,-8.64346 15.082,-10.14282 17.772,-7.32047 15.3906,-12.17139 3.3955,-4.23352 4.1013,-13.53846 3.528,-0.8379 3.2193,-6.79125 0.8378,-1.94037 12.5684,-8.90806 1.2788,-0.70558 48.5532,-24.25458 7.0559,0.97018 3.7926,-5.6447 14.1118,-2.38136 2.5577,-0.44099 3.5279,-1.67577 2.9547,-5.11549 0,-0.97021 0.441,-13.40615 2.9545,-3.66026 1.676,-8.90803 1.5434,-2.11675 1.5876,-2.11678 4.057,-2.82236 -0.7055,-1.54345 z m -565.17594,521.69401 -0.2646,8.33476 3.52795,2.42545 3.39564,-1.58756 -0.3087,-8.86396 -6.35029,-0.30869 z m 14.11175,17.50739 -2.51365,2.42546 11.28944,6.6149 6.218,0.70558 4.6304,0.44098 1.7198,-2.11675 -4.2335,-3.26334 -10.5838,-3.08696 -6.52669,-1.71987 z m -8.29065,12.70058 -3.52795,5.38013 c 0,0 -0.16579,0.0745 -0.35279,0.22047 l 9.34904,-0.0883 -0.13222,-0.13222 -5.33601,-5.38011 z"
     id="polygon5"
     style="opacity:1;fill:none;stroke:#d57800;stroke-width:2.5;stroke-miterlimit:4;stroke-dasharray:none;stroke-opacity:1" />
  <g
     id="g3392"
     transform="translate(-781.96695,-6.8354046)">
    <path
       style="fill:#4e5b31;fill-opacity:1"
       id="branch"
       d="m 1540.0467,658.66414 c -0.18,-0.086 -0.218,-0.122 -0.347,-0.245 l -0.125,-0.117 c -0.324,-0.297 -0.861,-0.822 -1.582,-1.643 -1.332,-1.513 -3.119,-3.728 -4.69,-5.685 -3.115,-3.883 -5.689,-7.228 -6.174,-7.858 l -0.793,-1.032 -7.767,-2.395 -5.671,-2.644 3.03,-3.406 10.408,4.456 7.767,1.594 14.363,10.564 -0.011,0.009 c -0.029,0.024 -2.089,1.738 -4.136,3.599 -0.913,0.83 -2.064,1.896 -2.877,2.783 -0.375,0.408 -0.705,0.813 -0.93,1.14 -0.138,0.201 -0.215,0.383 -0.252,0.471 l 0.892,-0.555 0.967,0.752 -1.968,0.184 -0.09,0.02 z m -53.34,-16.02 c -6.777,-10e-4 -13.471,-1.874 -19.895,-5.567 l -0.01,-0.004 0,-0.008 c 0,0 0.84,-1.601 2.878,-3.096 1.941,-1.425 5.442,-3.128 11.1,-3.15 l 0.117,0 c 6.701,0 14.901,2.278 24.373,6.771 -0.32,0.212 -7.756,5.054 -18.566,5.054 l 0.01,0.01 z m -29.37,-6.51 c -1.253,0 -2.379,-0.474 -3.17,-1.333 -0.649,-0.706 -1.114,-1.646 -1.422,-2.878 -0.504,-2.018 -0.365,-4.025 -0.351,-4.217 0.526,-0.221 1.062,-0.342 1.562,-0.354 l 0.112,-0.002 c 2.511,0 4.49,2.178 5.338,4.337 0.481,1.227 0.574,2.259 0.274,3.067 -0.3,0.81 -1.24,1.37 -2.34,1.37 z m 51.68,-5.99 c -17.359,-2.479 -24.717,-8.755 -27.833,-13.583 -3.323,-5.149 -2.641,-9.912 -2.634,-9.96 l 0,-0.014 0.013,-0.004 c 0.01,0 1.061,-0.285 2.658,-0.293 4.618,0 16.43,2.323 27.798,23.842 l 0.01,0.014 -0.02,-0.01 z m -35.58,-3.44 c -7.416,-0.001 -13.062,-1.28 -16.782,-3.804 -2.138,-1.45 -3.184,-3.043 -3.686,-4.125 -0.47,-1.014 -0.577,-1.856 -0.594,-2.023 0.196,-0.09 3.232,-1.438 7.765,-1.65 0.383,-0.018 0.769,-0.029 1.174,-0.03 5.732,0 14.448,1.87 23.646,10.78 l 0.01,0.009 -0.011,10e-4 c -4.2,0.55 -8.08,0.84 -11.53,0.84 z m -35.91,-1.38 c -7.82,0 -18.563,-2.388 -25.263,-9.087 l -0.01,-0.008 0.02,-0.005 c 0.07,-0.018 7.342,-1.863 15.523,-2.062 0.488,-0.012 0.979,-0.019 1.475,-0.019 7.332,0 12.944,1.422 16.682,4.225 1.305,0.979 2.018,1.89 2.178,2.783 0.134,0.746 -0.26,1.55 -1.056,2.15 -1.683,1.271 -4.692,1.949 -8.945,2.017 l -0.6,0.02 z m -25.34,-13 c -0.963,0 -1.867,-0.426 -2.479,-1.167 -0.506,-0.614 -0.858,-1.416 -1.108,-2.522 -0.418,-1.848 -0.292,-3.656 -0.291,-3.674 l 10e-4,-0.018 c 0.364,-0.172 0.771,-0.264 1.217,-0.275 l 0,0 c 1.157,0 2.039,0.63 2.589,1.158 0.733,0.705 1.333,1.645 1.688,2.645 0.365,1.03 0.424,1.892 0.18,2.635 -0.2,0.59 -0.88,1.21 -1.8,1.21 z m 58.53,-1.32 c -1.253,0 -2.379,-0.474 -3.17,-1.333 -0.649,-0.706 -1.114,-1.646 -1.422,-2.878 -0.504,-2.018 -0.365,-4.025 -0.351,-4.217 0.526,-0.221 1.062,-0.342 1.562,-0.354 l 0.112,-0.002 c 2.511,0 4.49,2.178 5.338,4.337 0.481,1.227 0.574,2.259 0.274,3.067 -0.3,0.82 -1.25,1.37 -2.34,1.37 z m -28.51,-1.18 c -15.737,-0.554 -23.904,-5.027 -27.984,-8.683 -2.297,-2.058 -3.574,-4.098 -4.24,-5.447 -0.628,-1.274 -0.866,-2.249 -0.908,-2.438 l 0.021,-0.009 c 0,0 1.489,-0.532 3.885,-0.579 l 0.368,-0.004 c 5.307,0 16.111,2.229 28.852,17.153 l 0,0.01 z m 17.09,-1.59 c -12.661,-1.928 -19.834,-7.363 -23.622,-11.585 -3.971,-4.425 -5.16,-8.546 -5.213,-8.738 0.023,-0.007 1.57,-0.41 3.9,-0.469 0.169,-0.005 0.345,-0.007 0.524,-0.007 0.181,0 0.365,0.002 0.553,0.007 6.368,0.139 17.934,3.023 23.855,20.785 l 0.01,0 z m -65,-6.08 c -4.149,0 -8.174,-0.48 -11.962,-1.427 -6.629,-1.658 -9.473,-4.189 -10.691,-6.021 -0.692,-1.04 -0.943,-1.952 -1.031,-2.534 -0.085,-0.556 -0.04,-0.999 -0.031,-1.073 l 0.031,-0.011 c 0.017,-0.004 4.4,-1.235 10.464,-1.328 0.239,-0.004 0.48,-0.006 0.725,-0.006 2.927,0 5.808,0.279 8.564,0.83 10.536,2.107 16,10.06 16.053,10.14 l 0.01,0.009 -0.013,0.003 c -0.06,0.01 -5.08,1.42 -12.12,1.42 z m 29.39,-10.68 c -1.269,0 -2.395,-0.463 -3.172,-1.304 -0.639,-0.691 -1.104,-1.643 -1.42,-2.908 -0.506,-2.015 -0.365,-4.002 -0.351,-4.185 0.526,-0.221 1.062,-0.342 1.562,-0.354 l 0.112,-0.002 c 2.506,0 4.488,2.179 5.339,4.338 0.468,1.188 0.55,2.208 0.243,3.034 -0.31,0.84 -1.22,1.38 -2.31,1.38 z m -22.1,-3.03 c -0.095,-0.023 -5.977,-1.536 -11.967,-5.225 -5.544,-3.413 -12.326,-9.45 -13.153,-18.83 l 0,-0.005 0.014,-0.004 c 10e-4,0 0.516,-0.125 1.278,-0.154 0.105,-0.004 0.217,-0.006 0.334,-0.006 1.656,0 5.046,0.466 9.147,3.584 5.22,3.98 10.04,10.92 14.35,20.65 z m 14.43,-0.53 c -0.037,-0.015 -4.229,-1.693 -9.469,-6.084 -4.882,-4.092 -11.746,-11.46 -16.716,-23.33 0,-10e-4 1.142,-0.608 2.886,-0.718 0.101,-0.007 0.203,-0.009 0.306,-0.009 0.15,0 0.305,0.005 0.463,0.009 2.411,0.068 6.083,1.07 10.154,5.463 4.676,5.047 8.85,13.34 12.404,24.651 l 0.01,0.032 -0.03,-0.01 z m -37.39,-1.09 c -4.821,0 -6.471,-2.615 -6.957,-3.74 -0.798,-1.849 -0.556,-3.689 -0.554,-3.707 l 0,-0.02 c 0.78,-0.195 1.605,-0.303 2.398,-0.314 l 0.165,-10e-4 c 3.799,0 6.798,1.929 8.084,3.841 0.255,0.379 1.037,1.694 0.39,2.721 -0.52,0.81 -1.7,1.22 -3.53,1.22 z m -10.68,-13.47 c -2.692,0 -6.811,-0.165 -11.141,-0.952 -4.294,-0.781 -6.728,-4.432 -8.013,-7.356 -1.399,-3.185 -1.794,-6.223 -1.798,-6.254 l 0.012,0 c 13.282,0.39 19.555,4.271 22.478,7.457 3.018,3.29 3.197,6.706 3.206,6.922 l -0.01,10e-4 c -0.02,0 -1.89,0.18 -4.74,0.18 z m 13.83,-13.82 c -0.018,-0.022 -1.535,-1.898 -3.033,-4.228 -1.573,-2.445 -3.028,-4.996 -3.028,-7.084 0,-2.016 -0.474,-6.266 -0.757,-8.619 -0.358,-2.985 -0.72,-5.54 -0.75,-5.757 l 0.013,0.004 c 0.337,0.123 8.308,3.114 8.308,10.591 0,7.489 -0.738,15.014 -0.745,15.089 l -10e-4,0.011 -0.01,0 z m -10.33,-0.71 c -0.084,0 -0.167,-0.008 -0.25,-0.021 -2.356,-0.393 -6.496,-2.194 -11.073,-4.818 -5.082,-2.914 -9.209,-6.036 -11.62,-8.791 -2.198,-2.512 -3.503,-6.457 -3.88,-11.726 -0.267,-3.739 0.053,-6.854 0.087,-7.163 0.412,-0.137 0.85,-0.204 1.315,-0.204 1.764,0.029 3.647,0.823 6.189,2.574 1.981,1.365 4.165,3.221 6.49,5.514 4.012,3.957 7.168,7.932 7.199,7.971 l 0.032,0.04 c 0.265,0.475 2.537,4.571 4.307,8.558 1.124,2.532 1.767,4.357 2.024,5.746 0.147,0.791 0.19,1.31 0,1.781 -0.081,0.195 -0.235,0.376 -0.385,0.448 -0.14,0.06 -0.28,0.09 -0.44,0.09 z"
       inkscape:connector-curvature="0" />
    <use
       xlink:href="#branch"
       height="600"
       width="900"
       y="0"
       x="0"
       id="use7"
       transform="matrix(-1,0,0,1,3052.6715,-4.5174305e-8)" />
    <path
       style="fill:#d57800;fill-opacity:1"
       id="path9"
       d="m 1804.0767,255.89014 -2.355,0.938 -0.923,0.368 -2.854,-0.157 -2.673,1.283 -4.74,3.239 -0.209,0.15 -1.767,0.461 -1.641,-0.708 -0.932,0.424 -0.321,1.92 -0.887,1.379 -1.092,0.767 -3.783,0.387 -3.19,1.645 -4.15,-1.111 -1.928,0.755 -4.099,3.692 -2.095,0.992 -0.732,-0.042 -2.778,-0.143 -1.173,0.384 -1.752,1.693 -3.315,0.258 -1.033,0.715 -1.618,3.26 -1.753,1.808 -1.003,0.212 -1.087,-0.398 -0.817,0.144 -0.37,2.086 -0.793,0.874 -2.219,0.764 -1.773,1.477 -1.556,0.799 -2.084,-0.052 -0.479,0 -2.076,1.146 -3.905,0.342 -1.624,1.549 -0.358,0.331 -0.758,0.458 -1.24,0.74 -0.304,0.184 -1.495,-0.267 -1.75,0.693 -0.708,-1.089 -1.211,0.727 -1.604,0.069 -1.998,-0.889 -1.522,-0.678 -1.113,0.161 -0.387,1.94 -0.039,0.206 -1.17,1.557 -2.184,1.323 -0.297,0.387 -2.485,3.208 -4.722,4.966 -3.993,2.028 -4.139,1.259 -2.897,2.38 -7.599,3.767 -11.994,5.967 -2.453,0.786 -3.52,0.562 -6.278,2.312 -5.539,1.671 -0.308,0.094 -1.096,0.332 -7.81,2.363 -3.635,-0.384 -2.153,0.782 -5.605,-0.622 -3.897,0.077 -2.467,0.513 -4.637,2.224 -7.827,3.762 -2.586,2.366 -4.027,2.101 -4.715,1.493 0.011,-1.981 -0.028,-0.084 -1.636,0.517 -1.181,0.373 -3.825,0.59 -2.128,0 -1.321,-0.384 -0.204,0.069 -7.818,2.576 -8.719,0.842 -4.363,1.399 -3.26,-0.052 -2.038,0.607 -3.995,0.488 -1.428,-0.381 -0.322,-0.088 -11.75,0.51 -5.372,-0.607 -2.564,0.583 -4.296,-1.445 -6.269,-0.727 -1.465,-0.439 -3.295,-0.978 -1.491,0.859 -1.116,0.119 -2.667,-0.967 -0.96,-0.025 -2.202,0.796 -1.267,-0.325 -1.177,-0.938 -2.761,-0.411 -1.682,-1.414 -9.402,1.246 -2.551,-0.75 -8.554,-2.492 -1.361,0.069 -1.696,1.271 -2.548,0.929 -2.212,0.575 -3.012,0.105 -3.497,-0.918 -3.606,-1.748 -1.333,-0.317 -2.974,0.3 -0.91,0.083 -5.466,-2.932 -7.042,-4.404 -4.778,-2.296 -1.794,-0.291 -0.241,0.853 0.89,2.805 0.303,2.774 -0.091,2.563 -0.049,1.587 0.446,1.425 1.725,1.912 0.719,1.92 0.526,5.284 -0.01,5.362 -0.839,8.551 -0.283,1.302 -1.001,4.43 -0.914,4.069 -3.546,10.833 -0.974,1.343 -2.391,1.631 -5.419,3.688 -3.99,2.301 -1.263,0.523 -3.239,0.245 -2.018,-0.105 -2.513,-1.361 -2.467,-0.635 -3.232,-2.324 -3.595,-0.744 -3.941,-2.278 -1.026,-1.233 -2.146,-0.202 -2.976,-0.893 0,-0.005 -1.093,-0.327 -0.755,-0.22 0,-0.001 -3.796,-0.104 -3.54,-1.634 -1.864,-0.45 -2.547,-0.129 -2.666,1.239 -10e-4,-0.004 -1.351,0.629 -1.707,-0.678 -1.235,0.077 -1.399,2.115 -0.209,0.328 -0.964,0.51 -1.2,-0.017 -0.939,-0.025 -1.016,0.444 -1.368,0.593 0,0.003 -1.208,0.527 -0.59,0.255 -0.01,-0.01 -0.363,0.073 -0.645,0.112 -0.8,0.153 -1.41,-0.824 -0.75,-0.442 -1.257,-0.256 -0.677,0.489 -0.133,2.301 -0.618,1.378 -1.961,1.734 -1.993,1.755 -1.389,2.047 -3.676,8.39 -2.303,3.385 -0.715,0.789 -2.408,2.656 -2.136,1.657 -4.922,3.815 -4.659,1.741 -4.013,0.82 -1.951,0.008 -3.696,-0.492 -3.323,-1.02 -3.65,-2.282 -4.003,-3.217 -5.794,-5.724 -0.82,-0.493 -0.171,-0.114 -1.825,-1.167 -1.354,0.035 -0.53,0.874 -0.29,1.263 -0.245,1.12 -0.664,6.367 0.049,0.369 0.349,2.622 4.401,6.15 1.358,3.267 0.223,0.373 0.908,1.525 0.691,1.163 0.069,0.118 1.504,4.488 -1.057,2.534 0.534,1.697 -1.336,1.037 -0.245,1.465 3.951,4.953 0.862,2.185 -0.963,3.029 -1.536,1.671 -0.429,0.457 0.216,1.28 1.818,1.635 3.089,2.75 1.647,4.086 1.253,1.096 1.456,-0.31 0.81,0.618 1.228,-0.021 1.208,1.208 0.782,0.379 1.236,0.616 0.977,1.272 0.216,3.911 1.822,4.86 0.028,2.635 0.01,0.374 1.134,1.948 0.356,1.538 -0.604,4.069 1.445,1.306 1.567,-0.32 1.012,0.16 1.626,1.354 1.969,3.001 1.926,-0.282 1.222,0.589 5.902,5.334 1.339,0.676 0.074,0.042 0.963,0.483 1.197,1.208 1.856,-1.232 0.206,-0.021 2.018,-0.178 0.886,0.597 1.704,1.149 2.234,-0.029 4.844,1.485 2.119,0.543 4.261,2.648 1.811,1.12 1.072,0.871 1.424,1.161 2.845,1.224 2.44,0.584 1.322,0.314 0.995,0.384 0.025,-0.062 0.014,0.004 -0.024,0.063 5.284,2.023 2.862,0.668 2.648,0.975 1.927,0.703 1.414,0.023 2,-1.682 1.937,-0.112 1.609,0.401 1.57,-0.263 2.485,-1.531 0.485,-0.719 1.762,-0.839 5.944,-0.738 1.737,0.564 4.46,-1.94 2.988,0.831 2.645,-0.938 5.779,1.284 1.536,1.081 1.717,1.965 0.21,0.009 1.912,0.037 -0.799,1.331 2.523,2.647 2.279,3.445 0.154,0.455 1.657,4.864 1.232,1.723 0.862,2.405 0.042,1.568 -1.34,1.022 -0.22,0.583 -0.076,0.216 0.272,0.655 0.506,-0.276 0.963,-0.533 1.166,-0.181 2.066,0.22 1.364,0.143 2.154,-1.069 1.427,-0.71 2.293,0.987 2.52,-0.028 1.058,0.471 2.995,1.358 1.529,0.144 0.565,-0.371 0.36,-0.856 -0.185,-0.996 -1.145,-1.323 -2.531,-2.938 -1.036,-1.51 -0.789,-2.186 -0.245,-2.794 -0.174,-1.885 0.314,-2.477 0.68,-0.884 0.5,-1.968 0.01,0 0.129,-0.515 1.406,-1.866 3.724,-2.393 4,-3.582 3.162,-2.085 3.26,-1.412 0.087,-0.396 0.363,0.146 8.292,-2.819 0.137,-0.016 3.692,-0.643 24.92,1.755 0.924,-0.279 0,-0.006 0.83,-2.33 0.447,-0.432 0.297,-0.282 2.74,-1.206 1.281,-0.183 3.556,0.878 1.456,0.359 2.332,-1.307 1.654,0.028 3.417,-1.866 2.111,0.053 0.803,-0.321 4.112,-2.955 3.961,-1.135 1.03,-0.548 0.363,-0.199 4.06,-2.144 2.579,-1.981 2.226,-1.183 2.438,-0.629 6.38,-0.449 1.283,-2.138 2.744,-0.366 1.657,-1.87 1.896,-0.771 1.359,-1.958 1.139,-1.641 1.591,-0.921 5.1,-0.32 6.045,0.749 0.799,-0.485 1.366,-4.875 1.43,-0.915 3.851,-5.612 0.013,-2.045 0,-1.708 0.633,-2.432 -0.43,-4.391 0.51,-4.446 2.394,-5.65 2.109,-2.279 3.401,-2.301 1.729,-0.753 2.449,-0.412 0,-0.006 0.36,-0.061 0.624,-0.107 8.433,-0.116 c 0.117,-0.087 3.067,-0.042 3.067,-0.042 l 2.812,-0.038 7.114,1.266 0.506,0.088 2.405,0.779 2.774,2.157 2.936,2.868 0.551,0.535 1.902,0.801 0.575,0.251 1.571,-0.251 2.237,-1.165 1.688,-1.427 2.301,-1.257 0.056,-0.08 1.295,-1.948 0.039,-0.04 0.028,0.007 0,-0.011 -0.022,-0.005 0.511,-0.775 4.447,-1.733 5.23,-0.304 0.588,-0.318 0.327,-0.175 1.382,-1.623 1.295,-0.011 3.135,1.134 2.204,-0.437 1.75,0.699 1.36,-0.161 2.565,-0.304 2.754,1.938 1.605,0.205 5.658,3.31 0.294,0.048 0.152,0.028 0.324,0.053 0.671,-0.199 0.998,-0.289 0.132,-0.039 0.126,0.174 0.643,0.907 0.882,0.126 1.044,-1.393 -0.415,-0.632 -0.157,-0.23 -2.021,-0.411 -1.815,-3.103 1.728,-1.861 -2.711,-3.326 -0.45,-0.551 -0.153,-0.234 -0.937,-1.423 -4.746,-7.235 -6.182,-4.935 0,0.004 -2.165,-1.732 -0.014,-0.01 -0.758,-0.596 -3.302,-3.358 -2.358,-3.13 -0.309,-0.674 -0.487,-1.062 -1.413,-3.078 -2.462,-1.896 -2.006,-2.191 -0.098,-0.129 -4.14,-5.626 -0.68,-0.943 -0.978,-0.565 -2.066,-0.014 -0.195,-0.196 -0.116,-0.121 0.07,-0.074 0.991,-0.985 1.105,-0.278 0.476,-1.089 -2.108,-6.104 -0.014,-0.213 -0.157,-1.95 1.718,-8.855 0.22,-1.079 2.928,-5.958 1.814,-1.486 1.98,-3.892 1.696,-2.488 1.625,-1.582 0.284,-0.168 2.934,-1.776 2.465,-0.347 2.348,-0.331 4.099,1.264 3.901,-0.076 0.761,-0.081 1.77,-0.203 2.911,-0.917 1.374,-0.848 0.713,-1.093 1.487,-4.987 0.478,-1.587 0.917,-1.724 5.306,-6.108 4.011,-3.71 9.019,-6.613 4.415,-2.639 2.254,-1.347 20.126,-8.946 5.23,-5.302 2.725,-2.757 4.821,-3.235 5.641,-2.311 4.854,-3.842 1.06,-1.334 1.336,-4.303 1.113,-0.269 1.005,-2.174 0.286,-0.618 3.961,-2.792 0.448,-0.223 15.388,-7.71 2.236,0.307 1.197,-1.793 4.477,-0.751 0.824,-0.14 1.104,-0.551 0.939,-1.599 0,-0.316 0.129,-4.273 0.956,-1.155 0.521,-2.816 0.491,-0.65 0.513,-0.676 1.268,-0.891 -0.22,-0.531 z"
       inkscape:connector-curvature="0" />
  </g>
</svg>
