<?xml version="1.0" encoding="UTF-8" standalone="no"?>
<svg
   xmlns:dc="http://purl.org/dc/elements/1.1/"
   xmlns:cc="http://creativecommons.org/ns#"
   xmlns:rdf="http://www.w3.org/1999/02/22-rdf-syntax-ns#"
   xmlns:svg="http://www.w3.org/2000/svg"
   xmlns="http://www.w3.org/2000/svg"
   xmlns:sodipodi="http://sodipodi.sourceforge.net/DTD/sodipodi-0.dtd"
   xmlns:inkscape="http://www.inkscape.org/namespaces/inkscape"
   version="1.0"
   width="1074.8086"
   height="600.69989"
   id="svg2"
   inkscape:version="0.91 r13725"
   sodipodi:docname="Flag_of_the_Czech_Republic.svg">
  <metadata
     id="metadata14">
    <rdf:RDF>
      <cc:Work
         rdf:about="">
        <dc:format>image/svg+xml</dc:format>
        <dc:type
           rdf:resource="http://purl.org/dc/dcmitype/StillImage" />
        <dc:title></dc:title>
      </cc:Work>
    </rdf:RDF>
  </metadata>
  <defs
     id="defs12" />
  <sodipodi:namedview
     pagecolor="#ffffff"
     bordercolor="#666666"
     borderopacity="1"
     objecttolerance="10"
     gridtolerance="10"
     guidetolerance="10"
     inkscape:pageopacity="0"
     inkscape:pageshadow="2"
     inkscape:window-width="1600"
     inkscape:window-height="837"
     id="namedview10"
     showgrid="false"
     fit-margin-top="0"
     fit-margin-left="0"
     fit-margin-right="0"
     fit-margin-bottom="0"
     inkscape:zoom="0.68614411"
     inkscape:cx="552.72966"
     inkscape:cy="496.53103"
     inkscape:window-x="-8"
     inkscape:window-y="-8"
     inkscape:window-maximized="1"
     inkscape:current-layer="svg2" />
  <path
     style="fill:#ffffff;stroke:#d7141a;stroke-width:1.39999998;stroke-miterlimit:0;stroke-dasharray:none;stroke-opacity:1"
     d="m 352.23633,0.69988334 -1.39062,0.0253906 -1.29883,0.80664063 c -0.34183,1.3006042 -1.61354,2.9512757 -2.61328,3.8046875 l 0.61328,2.3574218 -0.77344,1.2441406 0.0625,1.5976565 c -0.98335,0.23179 -2.46397,0.93246 -3.13476,1.722656 l 1.19531,1.761718 -1.83203,1.955079 0.82226,1.501953 c 1.33338,0.110043 2.24681,0.79212 3.3086,1.480468 l 0.0898,0.773438 c 1.29944,0.03512 3.42017,-1.083573 4.41406,-1.816406 l 1.95508,0.08008 0.48438,1.916016 -0.76368,0.634765 c -0.83,-0.03746 -2.19712,0.340845 -2.8164,0.929688 l 0.25976,1.34375 1.41406,0.796875 0.0918,1.814453 c 1.29358,0.661423 2.66684,0.01054 3.82813,0.376953 3.81518,1.206951 0.72264,1.634572 7.11328,2.201172 l 1.86914,0.164062 c 2.40805,1.109786 0.77211,4.773682 -0.50391,6.138672 l -0.0625,2.683594 -0.69726,1.080078 c -0.95292,0.755077 -3.59172,0.529407 -4.64063,0.257812 l -0.56445,0.929688 c -2.15636,0.985694 -3.88193,0.611674 -6.04297,0.945312 -1.35094,0.207208 -2.79521,1.324164 -4.20703,0.517579 l -2.04297,-1.894532 c -1.56751,0.108872 -2.22905,1.041453 -3.49805,1.462891 -0.20486,0.0679 -2.0015,0.250046 -2.32226,0.291016 -0.27978,0.03629 -1.06551,0.742399 -1.33008,0.947265 l 0.67187,0.722657 c 0.29969,1.786428 -2.80601,6.026471 -4.46484,6.691406 -1.98544,0.798391 -5.20345,1.349186 -7.39844,1.316406 -2.01119,1.661168 -4.69548,3.247853 -7.12109,4.191406 -0.22827,0.08897 -0.99632,-0.03545 -1.21289,0.05469 l -2.63672,1.554687 c -1.02316,0.863948 -1.76985,2.706989 -3.19922,3.042969 -0.61577,0.145162 -1.99002,-0.133935 -2.53906,-0.462891 -0.94355,-0.07024 -2.8804,1.153679 -3.57227,1.6875 -0.62513,0.0094 -1.64683,-0.952409 -1.98632,-1.392578 l -2.08399,0.132813 -0.96094,-1.841797 c -1.859,0.147503 -6.18789,2.617923 -7.32226,4.080078 -0.20955,0.271593 -0.5553,1.569038 -0.76953,1.847656 -1.7876,2.336639 -4.33141,1.261634 -6.73243,0.802735 l -0.63867,-0.121094 c -0.50924,2.069729 -1.02089,3.429221 -2.33789,5.240234 l 0.37891,2.138672 1.66015,1.742188 0.17774,1.052734 c -0.37461,0.804244 -1.32585,2.128167 -2.15235,2.544922 -1.23387,0.0597 -2.95623,-0.154928 -4.0625,-0.763672 l -0.44726,2.697266 -1.31055,1.03125 -3.72265,0.476562 -2.84375,-1.960937 c -6.66575,0.05034 -5.69043,-2.414618 -10.39649,1.193359 -0.61343,0.112383 -1.61763,-0.393379 -2.05078,-0.789062 l -0.86719,0.08594 c -1.06413,0.648546 -1.44073,1.501881 -1.92187,2.5625 l -1.29688,0.919922 c -0.93769,-0.0199 -1.75756,-0.215486 -2.64843,-0.458985 -1.14257,-1.308797 -2.20939,-1.998708 -3.72071,-3.013671 -1.53591,-0.0597 -6.11931,2.147322 -6.27734,3.708984 -1.56986,0.464752 -3.15007,0.893033 -4.72461,1.332031 l -1.50586,-0.46289 -1.17969,0.328125 -0.63867,-0.488282 c -0.84873,0.290324 -2.25633,0.177043 -3.08984,-0.113281 l -2.10743,1.072266 c -0.71644,1.405964 -0.29538,1.019993 -1.5,1.841797 l -0.13867,0.861328 c 0.49987,0.570112 2.13077,2.620755 2.13477,3.423828 l -0.78516,2.775391 0.35938,1.021484 -1.875,-0.167969 -0.47461,0.226563 -1.13672,1.664062 308.65043,207.138662 498.6348,0 c -1.2745,-2.78916 -2.7469,-5.48448 -4.4727,-8.11523 -0.035,-0.0515 -0.1738,-1.68493 -0.1914,-1.8418 1.3919,-2.13645 3.0823,-3.97991 4.5176,-6.08008 l -0.1914,-1.32031 -1.2735,-0.68946 -2.9902,0.63672 -0.5977,-0.52343 c -0.885,-1.32753 1.4016,-8.66701 1.7247,-9.99805 l -1.0743,-2.80078 c -0.7995,-0.22239 -1.9734,-0.11034 -2.7519,0.0957 l -1.3301,-1.20898 -0.8066,0.3125 c -0.1557,1.44226 -0.7971,3.59612 -1.7207,4.75976 -6.9936,1.39426 -6.6837,-0.18053 -12.3438,-3.25586 -2.2172,-1.20695 -4.2553,-2.02067 -6.3144,-3.49804 -1.3264,-0.0574 -2.7326,-0.0115 -4.0391,-0.22461 -4.09614,-0.6743 -3.40421,0.13188 -5.95508,-2.26563 l -3.0332,-0.27734 -0.21094,0.83398 c 0.97867,0.8815 1.65552,1.84048 2.4668,2.83789 -2.52629,1.25963 -2.52494,2.20582 -4.72461,2.91407 -2.04514,-1.13437 -4.04439,-2.34734 -5.79102,-3.92188 0.0433,-1.95149 -0.27468,-5.0253 -1.09766,-6.82226 -1.8473,-0.782 -5.1258,-1.62423 -7.03515,-0.49805 l -1.90625,-1.01953 c -1.44691,-2.19265 0.008,-5.04163 -1.4961,-7.12891 -1.33572,-0.86981 -2.78451,-1.52066 -4.41992,-1.10742 -1.11681,0.85458 -2.12466,1.41439 -2.55664,2.86133 l 0.64453,0.97656 -1.32031,1 -1.12109,-0.40625 -0.62696,-0.80078 -1.11914,-0.40235 -0.86133,-1.29882 -1.37695,0.48828 c -2.21489,-0.90961 -2.25111,-1.20368 -4.08203,-2.87305 -0.71644,-1.516 0.10653,-3.25049 0,-4.85547 -0.66727,-0.40505 -2.12795,-0.8961 -2.33984,-1.66406 0.0409,-0.69654 0.1086,-1.39486 0.125,-2.09375 -2.03929,0.0129 -5.63637,-3.56028 -7.17579,-4.80469 -1.83091,0.0281 -3.79402,0.51028 -5.18945,1.75586 -0.36056,1.21046 -0.91112,3.47477 -0.72265,4.76367 l 0.98632,0.76172 c 1.64361,-1.14491 3.16152,-1.62284 5.22071,-1.41797 0.64737,2.12124 1.12555,5.7927 0.15625,7.79102 -2.87163,0.5584 -4.9687,-1.89163 -7.17774,-3.23438 l -0.88867,0.0937 c -1.1133,1.37085 -9.65261,7.84105 -11.04101,8.62305 -1.09692,0.61811 -2.49667,1.27344 -3.79493,1.27344 -1.27836,0 -2.52858,0.39648 -3.72265,0.39648 -2.2067,0 -2.4799,-0.73772 -3.81446,-1.32422 -2.21957,-0.9775 -3.91158,-0.99075 -5.6582,-3.00195 -1.50547,-1.73258 -0.42649,-2.32819 -2.99609,-3.51758 l -0.65235,-1.41601 -2.3164,-1.16211 c -0.95409,-1.29241 -0.3768,-1.8891 -0.60157,-2.6875 -0.16623,-0.59586 -0.74587,-1.18461 -0.90625,-1.7793 -0.075,-0.27745 0.0839,-1.16323 0.0254,-1.48633 -0.25287,-1.38372 -1.27006,-3.01946 -2.1504,-4.08008 l 0.008,-1.03906 -0.74414,-0.70312 -0.39844,-1.76758 -0.90234,-0.63672 c -0.80893,-1.85433 -1.69752,-3.5185 -1.93165,-5.53906 -2.36825,-0.50221 -4.60193,-1.60937 -6.47265,-3.11133 l -2.31055,0.25 -0.0801,0.88086 -0.64843,0.58789 -2.41016,-0.60352 c -1.10511,-0.9295 -2.65998,-3.05506 -2.86719,-4.54296 -1.97139,-1.07233 -7.65391,-4.46876 -8.03906,-7.10157 l 0.32812,-1.76953 c 2.19499,-0.72113 4.78051,-0.98335 7.07032,-1.125 1.18471,-1.59092 3.86313,-0.93872 5.60156,-2.86914 0.89439,0.44486 2.15142,0.71367 3.14648,0.69727 l 1.875,-0.90235 c 0.52679,-0.60289 0.47169,-3.28129 1.41407,-4.83594 l 1.22851,-0.30468 c 0.81009,0.36758 1.74467,0.77086 2.63086,0.92773 l 2.94336,-1.01367 c 0.14751,-2.02642 1.0311,-6.79064 -0.24609,-8.30664 -2.67028,-1.11564 -3.66503,-2.45682 -4.22461,-5.26758 0.53733,-1.88476 1.26704,-3.74591 2.2539,-5.44922 0.52797,-0.91195 1.50019,-1.46329 1.68164,-2.60937 l -0.71484,-1.48438 -2.73242,-0.22656 c -1.12969,-2.84705 -4.67485,-4.06335 -7.16602,-5.64258 l -0.80859,0.78125 1,5.44531 c -1.75716,2.06973 -3.97691,3.64383 -5.43555,5.97461 -1.14022,0.29384 -2.38474,0.52812 -3.49804,0.90039 -1.38957,0.46358 -2.77972,1.82564 -4.31446,1.6875 -0.78083,-0.734 -1.50881,-1.64741 -2.10351,-2.54296 -5.86969,1.23153 -6.28739,2.13022 -12.95313,0.39062 -2.80139,0.60874 -5.43285,1.23045 -8.10547,1.5957 -0.61694,1.19993 -1.18259,2.42902 -1.72461,3.66407 -0.80073,0.18262 -2.44847,0.3637 -3.24218,0.0195 0.0901,-1.3767 -0.1506,-3.16187 -0.72071,-4.42969 l -2.0625,-0.63672 -1.36132,0.66602 -0.46094,-0.81446 c 0.93185,-0.53382 1.73774,-0.95821 2.72461,-1.3457 l -0.10743,-0.85937 -0.61718,-0.6211 c -0.93653,-0.59236 -2.63219,0.27688 -3.53711,0.57422 -1.21397,0.40154 -3.4533,0.12103 -4.3711,1.1875 -0.0972,1.18705 0.0982,2.84487 0.66016,3.91602 l -0.29297,0.55468 -0.93164,-0.23828 -0.67969,-1.14062 -1.70898,-0.67578 -0.61719,-3.57813 c 0.85926,-1.87774 1.42052,-3.80751 2,-5.78125 l -0.67969,-1.14062 -1.82226,-0.13868 -1.39649,-1.05859 0.0937,-0.70312 c 1.38957,-0.048 2.92441,-0.38562 4.23438,-0.82813 -0.43783,-0.57831 -1.28821,-1.12092 -1.9707,-1.33984 -2.21255,1.09457 -4.73995,1.84135 -7.09766,2.54492 -4.28345,0.30437 -14.32239,-9.01227 -17.83203,-12.54883 l 0.0723,-0.88086 1.1211,-1.17383 1.11133,0.22657 -0.97266,-1.97657 c -1.06297,0.19901 -2.68676,0.24815 -3.48047,1.09571 l -1.35547,-0.70899 -1.63672,1.4043 -0.97656,-0.58399 -1.20508,0.49219 -2.49023,-2.49219 -2.35938,-0.0723 c -0.35006,-0.48348 -0.28143,-1.56264 -0.0801,-2.08008 l -1.28711,-1.58398 c -2.38464,0.64035 -5.43091,1.01913 -7.36133,-0.88086 l -1.875,0.91406 c -0.46943,-0.0433 -2.6784,-2.7474 -3.31055,-3.25781 -1.35095,-0.0808 -3.66615,0.13744 -4.93164,-0.29102 -4.25769,-1.44343 -8.57095,-3.31375 -12.19531,-6.02734 -1.35563,-0.12292 -3.77399,0.50426 -4.68945,1.60351 -0.94589,2.44668 -2.36342,4.73559 -3.61719,7.03711 1.08052,1.66819 5.55702,4.45717 7.43945,5.7168 2.25352,3.87723 -0.66476,5.72157 3.55664,10.69922 -0.1463,1.1449 -0.18511,2.33947 -0.0996,3.49023 l 2.17969,2.86719 c 2.66559,0.67898 9.59836,2.90895 10.64844,5.51367 l 0.76758,4.60352 c -0.21541,0.99038 -1.0948,2.91531 -2.10157,3.3789 0.6544,2.14231 1.91651,4.37224 3.14453,6.22657 -0.42143,0.95058 -0.91032,1.89038 -1.45117,2.78125 l -2.09179,0.58984 c -2.39283,-1.35913 -2.87175,-4.26516 -4.25196,-6.44727 -0.89555,0.18613 -2.06235,1.06396 -2.66992,1.70899 l 0.44141,2.02539 c -0.53616,0.62982 -2.31211,1.22285 -3.06836,1.41016 -3.16664,-0.66377 -4.76608,-1.1851 -7.83789,0.76171 -0.48934,2.00651 -1.32216,4.19775 -3.09571,5.41407 l -2.43945,-0.75 c -0.19784,-0.74103 -0.97617,-1.92414 -1.73242,-2.22266 -1.10042,0.60523 -2.34725,1.60107 -3.08594,2.62891 l -0.44726,2.13672 -2.48438,0.29882 c -0.47997,0.82765 -1.30891,1.90952 -1.61914,2.80274 -0.46943,1.35211 -0.65725,3.03766 -1.24024,4.32422 -0.8452,1.86486 -2.85405,4.32084 -4.5,5.58398 l -2.85937,0.17188 c -1.42001,2.77447 -2.92429,5.51762 -4.50586,8.20312 -2.12943,0.61928 -2.93036,0.47779 -5.08203,0.14649 -1.69629,-0.25988 -3.0325,-1.18962 -4.23242,-2.47852 l -2.87696,0.008 c -1.67638,-1.67405 -3.60427,-3.20243 -4.34179,-5.55078 l -3.79492,-1.44336 -0.58204,-0.81054 0.84375,-1.72852 -0.25,-0.69141 c -0.74102,-0.46944 -3.62391,-2.49864 -3.69531,-3.44922 1.03837,-2.91729 -0.30771,-3.5713 -0.58984,-5.65039 -0.11473,-0.85341 0.2541,-3.51371 0.8125,-4.31445 l -1.11914,-1.85351 0.2832,-1.02149 c 0.089,-1.23036 -2.66305,-3.4283 -3.57617,-4.34375 l -1.0293,0 -1.22851,-0.80273 -1.60743,-4.05469 c -3.14908,-0.68952 -2.82012,-2.50533 -4.52929,-4.62305 -0.58299,-0.72464 -1.58388,-1.10635 -2.23828,-1.95508 -0.83585,-2.76393 -0.9503,-1.85013 -2.36914,-3.86718 -0.88385,-1.25144 -1.63442,-2.7502 -2.41993,-4.07422 -0.0457,-0.0784 -0.76809,-0.63602 -0.88281,-0.72852 -2.3624,-0.14048 -4.72471,-0.0241 -7.08008,-0.29101 -1.18237,-1.72672 -3.16104,-3.76361 -4.02148,-5.58399 -0.95875,-2.03578 0.56519,-4.48093 -0.98242,-7.18164 -1.77707,-1.29714 -5.92244,-1.5294 -7.96875,-1.25195 l -4.27735,3.1543 c -0.37227,-0.78201 -1.44425,-2.04326 -2.3164,-2.3125 l -0.54102,-1.32422 0.46094,-0.58399 -1.33008,-1.74023 -1.65234,-0.13086 0.42578,-2.14649 -1.15039,-1.76953 -1.65235,-0.13281 -1.15039,0.8418 -1.49609,-0.33008 c -0.54787,-4.788 -2.30024,-3.46739 -2.9043,-7.80469 0.35237,-0.50807 0.73002,-1.00718 1.05664,-1.5293 l 1.63086,-0.0332 1.4375,1.20313 1.63086,-0.0312 0.41406,-0.92188 -1.00976,-0.74023 -0.61719,-1.83399 1.07813,-1.35937 1.83398,0.12109 0.37109,-1.26562 1.13868,0.37109 0.28711,-0.55859 -0.65235,-0.78711 c 0.56542,-0.45421 1.78743,-0.61316 2.47461,-0.49024 l 0.45313,-1.96875 2.0625,0.42969 c 1.36031,-0.43314 3.95214,-1.54066 4.89453,-2.70898 l -0.30078,-0.82618 -1.18946,-0.72265 0.19141,-1.23828 1.53516,-0.71289 c 1.2409,1.26782 3.98546,2.50887 5.7871,2.39648 2.83065,-0.73986 3.26612,-4.77202 6.75586,-6.41797 0.24587,-0.80776 0.55494,-2.87385 0.041,-3.6582 0.95877,-0.83702 1.7434,-1.76704 2.53125,-2.75391 -0.53499,-1.21866 -0.85007,-2.73184 -0.91797,-4.05469 l 0.64453,-0.60546 1.50196,0.33203 c 1.1332,-0.56895 3.35717,-1.08599 4.63085,-0.75586 0.38633,-0.87331 -0.0429,-2.10351 -0.39062,-2.84571 -2.1306,-4.55153 -4.42466,-4.88973 -7.48828,-8.16992 -2.08846,-2.2383 -3.09029,-5.07594 -6.16211,-6.361323 l -1.14464,-2.990354 c -4.884,-3.293069 -6.05442,-0.09992 -10.32031,-0.78125 -1.99949,-1.612 -5.09408,-2.676941 -7.67188,-2.681641 -1.8672,1.38138 -2.4731,5.787435 -2.5293,7.982418 l -1.24414,1.55078 c -1.18237,-0.14282 -3.12471,0.8078 -3.97461,1.54883 -1.77121,-2.2664 -5.11946,-7.591489 -8.45117,-6.921871 l -1.82812,-1.330078 c -1.37552,-0.0398 -2.7104,-0.07528 -4.06836,-0.345704 -0.18263,0.293836 -1.49936,2.521618 -1.62696,2.650391 -0.81947,0.812439 -2.25383,1.574359 -2.9375,2.462892 -1.23154,1.6038 -1.32151,6.26475 -2.47461,6.93554 l -1.55273,-0.66797 -2.28516,1.85938 c -1.5558,-0.4507 -3.16491,-0.35834 -4.73828,-0.11133 -0.68718,-0.59938 -1.28102,-1.21638 -1.81836,-1.94336 1.58508,-2.06855 1.59643,-5.27481 1.92188,-7.734371 0.38515,-2.902069 -1.21242,-6.855264 -2.26367,-9.671875 -2.38229,-2.007683 -5.67145,-1.146192 -8.27149,-0.111328 -0.68718,0.275105 -1.30813,0.917077 -1.99414,1.1875 -0.25286,0.100677 -1.19566,0.113768 -1.52344,0.205078 -1.34744,0.372271 -2.69942,0.889909 -4.02929,1.330078 l -0.92383,1.31836 -3.12891,-0.701172 c 0.45071,-2.863437 -1.07854,-6.06488 -1.85351,-8.736328 -1.64244,-0.462411 -2.77146,-2.735783 -3.4961,-4.09375 0.9576,-3.718019 -2.89663,-8.353211 -5.30468,-6.175781 -0.20019,0.889702 -1.22268,2.021157 -1.98829,2.458984 -0.70122,0.170916 -1.90721,-0.09072 -2.46093,-0.5625 -1.77239,-0.08195 -3.59132,1.054149 -4.63672,2.417969 l -1.88477,-0.986329 -4.05664,0.185547 c -0.44251,-0.250521 -2.51925,-1.254009 -2.59765,-1.730468 l 0.2539,-1.5625 c -1.29475,-1.530054 -6.15552,-2.528073 -8.09765,-2.476563 -3.95918,-4.373589 -5.94062,-3.990773 -11.21094,-3.380859 -1.22334,-1.372014 -4.80466,-0.942007 -6.28906,-0.390625 l -1.9336,-2.46875 c -1.21515,-0.828828 -1.84907,1.469706 -5.85156,-0.998047 -0.60406,-0.373441 -1.44792,-0.984369 -1.70312,-1.732422 l -1.6504,-0.621094 -0.99023,-2.695312 c -1.72672,-0.60289 -2.86646,0.876068 -4.04297,1.90625 -0.0726,3.260291 -2.44015,4.852831 -4.23828,7.207031 -1.32753,-0.358223 -2.03552,-0.518319 -3.13477,-1.232422 -0.7703,-1.751309 -0.16283,-3.413045 -1.61914,-5.068359 1.57805,-3.892448 0.90231,-8.190433 -1.76562,-11.394531 -0.0656,-0.08195 -0.26102,-0.151229 -0.35352,-0.205079 -2.0908,-1.210464 -4.24587,-2.783203 -6.67383,-3.160156 -1.16831,-2.446681 -3.13512,-4.908666 -4.98828,-6.861328 0.7504,-1.547614 -1.20329,-5.187756 -1.73828,-6.564453 l 0.65235,-3.439453 c 1.36031,-1.485568 2.78447,-2.843727 3.64257,-4.705078 -2.36006,-2.254693 -2.77948,-1.440542 -2.77148,-4.75 l -0.82617,-1.304688 -3.49805,-0.220703 -1.05078,-0.878906 -0.8125,-3.279297 -6.35938,2.322265 -0.20898,1.240235 -0.79883,0.849609 c -0.82298,-0.111213 -2.08149,-0.576791 -2.6914,-1.173828 0.004,-2.782661 0.17368,-5.388364 -0.34961,-8.1054683 -1.01145,0.1615513 -4.22146,0.8469293 -4.94727,1.6523433 l -1.23633,3.054688 1.35157,1.296875 -1.21094,0.908203 c -1.08871,-0.330126 -5.4389,-1.368093 -6.03711,-2.240235 l -0.22656,-1.013672 1.39453,-1.99414 -0.62891,-0.503906 -3.50586,-0.210938 -2.7832,-1.8945308 -0.71484,2.1210938 c -1.10511,0.374612 -2.20506,0.787462 -3.31836,1.126953 l -0.52735,-0.933594 c 0.40739,-0.565429 -0.0732,-1.8924814 -0.21484,-2.5527341 l -0.62305,-0.6152344 -0.0605,-0.9335937 -2.0957,1.5839844 -0.23633,1.9531248 c -0.22009,0.422609 -3.49058,0.998129 -3.83008,1.074219 l -2.58203,4.714843 1.36524,1.625 c 0.72815,0.184964 1.94663,-0.273959 2.46289,-0.777343 l 2.17969,0.171875 c 0.11472,1.278362 1.35156,3.260385 2.09961,4.234375 l -1.25977,0.853515 c -0.57011,0.494019 0.36772,4.146097 0.50586,4.902344 -1.89647,2.492337 -2.46355,3.799569 -5.36328,4.890625 l 0.35351,1.410156 c 0.82649,0.63801 1.64307,1.295954 2.48828,1.914063 l 0.26758,0.689453 -1.0332,2.847656 c 0.18731,1.02784 1.00359,4.293279 0.69922,5.345703 -0.31842,0.257545 -0.6093,0.556539 -0.91016,0.833985 l -2.41406,0.398437 c -0.69771,0.114724 -1.44369,0.90443 -2.14258,1.033203 -1.71502,0.316079 -8.00846,-2.346401 -10.51367,-3.019531 l -0.9082,1.589844 c -0.74454,-0.07024 -1.85309,-0.759299 -2.19727,-1.439453 l -1.7832,-0.515625 c -1.12501,3.616171 -4.52368,2.612691 -7.01953,1.291015 -0.19316,3.067131 -2.7624,4.506268 -3.41797,7.160156 -0.33363,1.34626 -0.45179,2.886193 -0.66602,4.261719 -0.014,0.08195 -0.38441,0.720431 -0.44531,0.833985 l -1.64453,-0.720704 c -3.24859,1.759504 -4.13684,-0.744256 -7.63477,-1.232421 l -1.68945,1.197265 -1.32422,-0.02539 -0.1875,-1.392578 0.28516,-0.462891 c -0.12877,-0.537333 -0.71074,-1.373235 -1.26563,-1.554688 l -2.93164,-0.0332 c -2.43029,-1.994807 -4.20209,-3.343615 -7.34179,-2.83789 -0.97283,-1.442254 -3.30015,-1.204856 -4.56446,-2.496094 0.20721,-1.542932 0.7966,-2.053937 1.28711,-3.212891 1.23856,-2.910263 0.89276,-5.805787 3.32422,-7.996093 0,-10e-7 0.41606,-0.986788 0.41406,-1.054688 l -0.16015,-4.185547 c -0.16273,-0.704738 -1.58383,-1.448254 -2.17969,-1.648437 l -0.95899,1.822265 c -2.49937,0.860436 -7.47143,3.634395 -9.69336,2.523438 l -0.9707,-1.140625 0.0176,-1.146485 c 1.63425,-2.626963 4.71203,-6.984825 4.70703,-10.05664 l 0.55274,-0.271485 -0.36329,-0.365234 0.0274,-2.796875 c -2.20201,-1.710336 -3.58536,-3.827126 -4.90235,-6.253906 -0.92366,0.434315 -3.51788,1.571428 -4.56445,1.517578 l -0.36328,-0.912109 0.50586,-0.94336 -0.13672,-0.78125 -0.64648,-0.445312 c -1.16949,0.31842 -3.90707,0.217912 -4.69141,-0.9667969 l -0.27539,-1.7285157 1.40039,-2.65625 -0.76953,-1.9414062 -1.08008,-0.1601563 c -0.96697,1.6506319 -0.57662,4.084586 -1.76367,5.4179688 l -1.38684,-0.033206 -1.87891,-1.828125 c -1.09925,-0.1873062 -1.65381,-0.2599959 -2.70507,-0.1054687 l -2.99414,2.4980469 c -3.11044,1.0067684 -5.77328,0.5133118 -7.8711,-2.09375 0.10302,-0.6462048 -0.18985,-1.6724153 -0.57031,-2.1933594 l -2.77539,-1.0390625 c -0.83702,0.3394916 -2.41418,1.2441525 -3.2793,0.8789063 -0.94121,-1.3205056 -2.43427,-2.6895084 -3.84375,-3.49609376 z"
     id="rect6"
     inkscape:connector-curvature="0" />
  <path
     style="fill:#d7141a"
     d="M 535.4043,300.69988 236.91602,499.69207 c 0.50122,0.44444 0.77732,0.76071 1.16016,1.51758 l -0.2168,1.125 c 0.61225,1.04306 1.04548,1.83676 1.9668,2.62695 0.89672,-0.67898 2.74019,-1.03216 3.83007,-0.7793 l -1.20312,1.64063 c 2.28162,2.17392 4.82,10.40394 5.6582,10.8125 l 1.22266,-0.0527 c 0.77029,0.51041 1.1239,2.40827 1.1289,3.22657 l 0.61329,0.49804 c 0.76327,-0.0129 3.37827,-0.22453 3.89453,-0.90234 0.8499,0.27159 2.16651,0.87946 3.02929,0.66992 l 2.01172,-2.00195 0.50977,1.63672 c 0.95643,0.52797 2.27908,2.49389 2.82226,3.38476 l -0.3789,1.66406 2.88086,6.12891 c 1.43172,0.9213 0.93797,0.68418 2.89648,0.86914 0.44837,0.73986 1.33433,1.51755 1.66211,2.24219 0.8897,1.9831 0.36182,2.76829 2.71484,4.96094 -0.0714,1.173 -0.69237,3.39969 -1.62304,4.22851 1.38957,2.78032 3.00035,2.67051 5.98437,2.48438 5.95164,-0.49871 10.94338,6.61637 14.35352,10.36132 0.0913,0.0983 0.5114,1.03065 0.5957,1.20508 l 2.41211,0.67578 0.56836,1.47657 c 1.14608,0.33364 2.52895,0.78299 3.70312,0.96093 0.79371,-0.62045 3.56139,0.17505 4.36329,0.98047 0.0457,0.19081 0.32701,1.52355 0.38671,1.62305 0.32427,0.51978 3.38742,4.57036 4.06641,4.99414 l 2.43945,0.34961 c 1.01077,0.62279 1.36487,3.23075 1.00782,4.25977 l -1.16211,1.14648 c -0.88853,-0.35588 -2.81414,-0.50872 -3.64063,0.13281 l -2.21094,2.90235 c -0.0773,0.7141 1.87088,2.27711 2.41407,2.80859 l 1.02539,0.21289 1.14648,-0.49219 0.70117,0.67578 0.15039,0.66993 -1.04296,2.19921 1.8164,2.19922 0.91797,0.14649 1.04492,-0.60742 0.28711,2.10742 4.56446,-0.0937 0.0371,1.86133 2.35938,0.50976 2.75391,-1.69336 c 1.24676,0.42494 3.55171,0.12755 4.07031,0.32422 1.01496,0.37813 3.3307,1.34669 4.31054,0.41016 2.1025,-0.0644 3.83911,1.01312 5.76368,1.62304 0.30086,0.0948 1.48145,0.1833 1.67578,0.2793 0.73166,0.37344 1.79044,1.9154 2.73633,1.69531 0.82532,-0.69303 2.61554,-1.10205 3.65625,-0.82812 0.77147,1.1812 1.77667,1.68222 2.64062,2.62109 0.68951,0.75274 1.31236,1.73366 1.93164,2.55078 0.47646,0.62982 2.14137,0.93522 2.86133,1.00782 l 0.97852,3.77148 1.50195,-0.17383 c 2.03344,-1.74896 4.15964,-7.05776 5.92383,-7.38672 l 0.69531,0.18555 0.70508,1.6582 c 0.8499,-0.38046 2.19685,-1.46148 2.55273,-2.36523 -0.39217,-0.58065 -1.70207,-2.80858 -1.4375,-3.54492 l 0.81641,-1.00586 c 1.91871,0.0948 3.43289,-0.22785 5.02148,0.79297 0.63567,-0.4109 2.84447,-2.25174 3.15235,-2.79493 0.53734,-0.94706 2.49358,-5.33011 2.33203,-6.49023 l -1.81055,-2.65234 c 0.47411,-1.66004 2.88226,-1.42132 4.24023,-1.64258 l 2.10547,2.96094 1.28125,0.41015 0.6836,0.78321 0.0273,1.3164 1.31445,1.56445 c 0.43899,-0.27042 1.12551,-0.45841 1.61133,-0.65625 l 0.91406,0.20704 1.04102,1.04296 2.48047,-0.0644 c 1.03837,1.03135 1.79624,1.89797 3.07812,2.57227 0.58416,-1.72438 5.47864,-3.24865 7.09766,-5.71289 l 1.60156,0.93359 1.45117,4.92383 c 1.15896,-0.17912 1.80139,-0.33447 2.76368,-1.17969 l 0.82226,0.0312 c 1.37319,1.46918 1.95338,4.38195 2.57032,6.19531 1.72907,-0.17795 4.38969,-0.73975 6.12695,-0.27734 l 0.86328,-0.88672 -0.0644,-0.89062 c 0.63918,-1.19759 1.34865,-2.39854 1.93164,-3.62305 -0.17091,-0.7141 -0.61542,-1.79998 -0.60742,-2.5293 0.014,-0.93185 0.46614,-2.01308 0.5996,-2.94726 0.15692,-1.09223 -0.40022,-2.16053 0.13477,-3.27149 l -0.32031,-1.07617 -0.76367,-0.57422 c 0.46944,-2.18094 0.75579,-5.25298 2.19335,-6.99609 l -0.17187,-1.44141 c 0.98804,-2.3624 2.27222,-4.43665 4.85352,-5.125 l 0.39453,-0.55469 c 4.13009,0.66728 4.33769,-4.84314 7.9082,-5.77148 -1.58976,-3.27902 -0.95462,-3.943 0.62109,-6.61914 l -0.01,-0.9336 -0.79688,-1.23828 0.47071,-0.76757 -0.0879,-0.72461 2.31445,-1.44141 1.6875,0.67578 1.32031,-0.45508 1.50977,1.31641 c 1.42118,0.47646 3.48572,-1.58496 5.15625,-0.25977 l 0.23242,1.39844 c 1.29358,-0.18496 6.02385,0.82526 7.17578,1.44922 0.16155,0.089 1.23628,1.05222 1.56055,1.32031 1.60147,0.17911 3.19386,0.35052 4.79882,0.48047 l 2.9961,-1.58203 -0.16992,-0.45898 0.42578,-0.88672 -0.30664,-1.6211 c -0.14985,-0.1276 -1.27353,-1.10552 -1.36133,-1.14062 -1.0056,-0.38046 -3.57594,-0.63751 -4.10742,-1.76953 0.0117,-2.28396 -0.16638,-1.65543 0.61914,-3.49805 l -0.375,-1.57812 c 0.86394,-2.09549 2.16755,-4.44374 2.51758,-6.68555 l 1.60547,-1.46289 -1.39258,-1.85156 c -0.0222,-0.79604 -0.34359,-4.1029 0.19726,-4.64258 l 1.16602,-0.0293 0.1875,-3.16016 0.89453,-1.05468 c -0.25872,-0.51509 0.27761,-1.81177 0.53516,-2.24024 0.14399,-2.25937 -1.59692,-6.01593 -2.76758,-7.82226 l 1.0957,-1.35547 c -1.14374,-2.51575 -0.50813,-3.31051 -0.42383,-5.53125 0.0456,-1.18471 -0.12745,-2.50045 -0.18945,-3.69336 -0.0316,-0.63567 0.80671,-1.8496 1.24805,-2.2207 2.44782,-0.72231 2.62717,-3.20515 2.46093,-5.53711 1.62605,-0.0843 2.68467,-0.40221 4.09766,-1.4043 1.72906,1.56166 3.47921,1.56656 5.6543,0.95898 l 0.85351,0.80664 c -0.21891,0.87331 -0.16246,2.33445 0.2461,3.15625 0.96345,-0.36759 3.00836,-0.10864 3.91211,0.2168 l 1.74414,-1.17187 1.11132,-0.041 0.91993,0.70117 c 2.04866,0.0293 4.08823,-0.18515 5.92968,0.94922 0.34066,0.59001 0.4341,1.74284 0.17188,2.375 l -1.32813,0.89453 2.07618,0.78321 c 0.0246,0.88149 0.45417,2.32605 1.0957,2.9746 l -0.0371,2.68164 c 0.92248,0.83702 2.04671,2.25191 3.39648,2.25391 0.9459,-0.34534 1.09401,-1.27408 1.7168,-1.88867 2.75691,-2.70774 5.9565,-1.32039 9.2168,-0.64258 l 1.54492,-0.91992 -0.20117,-1.11914 0.24804,-0.67969 0.75586,-0.30273 1.32813,-2.80664 -0.88281,-2.4043 0.50781,-1.47656 c 1.30294,0.53499 2.59905,2.60489 2.80859,3.93945 l 0.80078,0.25977 1.60157,-0.41993 1.69336,0.69141 1.00586,-1.47656 c 2.05802,-0.0702 4.29507,0.066 6.32031,0.46289 l 3.43359,3.74219 1.7832,0.37109 c 1.71736,2.28044 4.23308,3.56547 7.1211,3.03516 l 1.03906,0.99218 0.6582,0.0801 1.5918,-1.24023 0.58203,1.60351 3.98633,1.4043 c 1.06179,1.70449 0.79136,4.42392 2.25586,5.64258 4.5644,1.58976 6.6563,1.97967 10.46094,4.59375 1.96671,-0.38866 4.3544,-0.54615 6.3457,-0.22656 l 1.8125,2.35937 3.04297,0.47461 c 1.18236,1.00677 5.6996,5.61302 6.0625,6.49219 l 3.34961,-0.6875 c 1.68224,0.92834 5.65077,1.52137 7.52734,1.78711 1.58976,-1.17768 3.18512,-3.33589 3.90625,-5.17383 0.8019,0.0726 6.87415,0.22443 7.92774,0.80859 l 1.99023,-0.41797 1.31445,0.98438 0.22461,0.85742 -1.36718,1.19727 c 0.10068,1.25377 3.60532,2.39695 4.5957,2.08789 l 1.54883,1.85156 2.50195,0.80859 0.51758,1.60547 2.83008,-0.9082 0.66406,0.84179 0.80078,0.2129 -0.42383,2.46875 2.0586,1.24609 0.73632,-2.32617 c 1.26197,0.5865 1.74475,0.79325 2.70118,1.82226 l -1.28321,1.81641 -0.006,1.37109 c 1.7396,1.33689 3.63961,2.6343 5.28907,4.06836 0.74805,0.64972 1.82998,2.56456 2.8789,2.66407 l 0,-1.14063 c 0.83,1.44226 4.9056,5.10704 6.15235,5.86328 2.07324,1.25144 8.81511,3.9941 11.32617,4.33008 3.48623,0.46943 7.48446,-0.19441 10.96484,-0.45313 1.44693,-0.1077 2.55014,1.08899 3.82617,1.38282 0.36992,0.0867 0.59844,0.0176 0.97657,0.0293 2.05099,0.062 5.06169,0.8174 6.92187,0.64063 1.45631,-0.13697 3.14094,-0.94454 4.57617,-0.96094 1.0852,-0.0117 6.41648,2.09695 7.60938,2.54883 0.0574,0.0246 0.55553,-0.0723 0.64453,-0.084 l 2.37695,-2.73437 1.04102,0.21484 c 0.91428,1.12969 1.66741,2.33857 3.01367,2.98243 0.19316,-0.0819 1.0638,-0.41727 1.18555,-0.50977 0.94472,-0.73518 2.55623,-1.66929 3.29492,-2.5625 0.63567,-0.76561 1.01235,-1.83598 1.62109,-2.63086 0.49753,-0.6544 1.30792,-1.16318 1.7832,-1.82812 1.77355,-2.46658 3.27381,-5.62168 4.37891,-8.43946 3.08938,-1.71619 5.5132,0.48483 6.94141,0.16992 l 3.88281,-0.85351 2.7207,-2.94727 c 2.01236,0.31139 3.65322,3.08941 5.25,4.16993 0.27511,0.18964 2.3039,0.62951 2.67383,0.84374 0.74454,0.43197 1.6835,1.47991 2.34961,2.06641 0.56777,0.49756 3.09641,0.70574 3.77539,0.58399 l 2.21875,-1.75586 c 3.65129,1.52654 5.32271,2.18495 6.49805,6.50586 -0.0948,1.32167 -0.37527,3.94539 -1.00977,5.15234 0.30203,0.61343 1.46803,2.3801 2.27344,2.4375 0.80776,-0.97165 2.38764,-2.36013 3.64844,-2.70898 l 3.02929,0.44335 0.75196,1.20508 c 0.64035,0.41676 2.00863,1.10346 2.81054,1.06836 0.18496,0.87332 0.89156,1.96088 1.41602,2.65625 l 1.26562,0.5332 2.51563,-0.36523 1.89258,1.87891 c 0.51041,0.0293 4.38101,-1.83925 6.04101,-2.01953 0.93419,-0.10185 2.06935,0.29641 3.02344,0.25781 1.02666,-0.0398 2.06674,-0.62461 3.14258,-0.66211 l 3.17187,0.0273 1.53321,-0.10547 c 0.50455,0.26574 2.27493,3.76645 2.96679,4.56836 0.0667,1.29709 -0.24487,3.35547 -0.95312,4.48633 3.20644,2.18211 0.79676,9.01187 1.06836,12.16797 l 1.10937,1.69336 1.08204,0.2207 c 1.03955,-2.2465 3.7531,-7.55189 4.11132,-9.75976 0.25053,-1.43757 0.29279,-2.97456 0.49414,-4.43555 0.16624,-1.19407 0.2555,-2.18228 1.03516,-3.16797 1.40947,-1.78643 3.82074,-2.63606 4.23633,-5.01367 1.09691,-6.25133 3.25193,-12.57208 8.1289,-16.91992 1.70214,-1.516 3.25425,-2.55074 4.70704,-4.39453 2.43965,-3.0964 4.14905,-5.79394 7.3789,-8.23243 1.90935,-1.44225 5.62244,-3.80602 7.66992,-4.3457 1.79228,-0.47412 3.97014,-1.56589 5.69336,-1.82812 0.15218,-0.0234 2.71752,0.18633 3.03711,0.21093 0.1077,0.005 2.33559,1.01582 2.75586,1.19727 6.19865,2.64102 13.35757,9.97062 20.27149,9.51172 9.17798,-0.6064 9.74407,-7.5225 17.97265,-5.49024 1.46566,1.08052 2.87059,2.23129 4.26367,3.39844 5.9376,4.97414 11.62062,-2.20087 16.80665,-4.55273 1.84496,-0.83819 9.06417,-2.06329 10.68554,-3.57813 1.74194,-1.62604 4.16294,-7.1979 4.9707,-9.69726 0.89673,-2.75457 3.64745,-6.73674 6.45118,-7.88282 0.53851,0.12643 4.99741,0.75572 5.50781,0.76172 1.4926,0.0199 7.41632,-1.50348 8.46289,-2.21875 1.83209,-1.25378 3.74246,-4.05498 5.13672,-5.84375 1.93276,-2.47361 9.88327,-12.1642 12.95508,-13.43554 1.89647,-0.78317 4.21305,-0.27027 6.25586,-0.97852 1.80516,-0.6263 3.77965,-2.21022 5.63281,-2.26172 1.96437,-1.93393 3.72072,-4.02433 5.61719,-6.02148 7.27448,-7.65729 4.60992,-12.91959 7.77539,-21.63282 0.0515,-0.14165 0.0915,-0.35325 0.17578,-0.47851 1.22217,-1.87189 2.81063,-3.43391 4.02344,-5.25195 0.73283,-1.10042 2.50871,-7.90919 3.0039,-9.23438 -1.64829,-2.53448 0.0213,-5.02799 0.61133,-7.53906 0.14632,-0.62045 -0.006,-1.46936 0.18945,-2.06055 0.52328,-1.59561 2.1893,-5.89141 3.53907,-7.02344 2.1587,-1.80867 6.5965,-2.97492 9.2539,-3.65039 3.18068,-0.80659 6.22942,-2.12835 9.36914,-3.10351 2.17626,-0.68015 4.5526,-0.95544 6.67969,-1.67188 2.71359,-0.91897 8.44522,-3.81946 10.27152,-6.01562 0.6157,-0.73868 1.1911,-2.18254 1.664,-3.04883 1.3088,-2.39634 0.655,-5.70891 1.6992,-8.27734 0.4273,-1.05242 1.2126,-1.75974 2.0391,-2.48438 1.132,-0.99155 2.4445,-1.84369 3.498,-2.92187 3.1409,-3.21932 5.8988,-6.9952 8.4942,-10.64649 0.5806,-0.81478 0.899,-1.78682 1.4258,-2.63672 3.8058,-6.10734 5.6435,-6.13698 11.8574,-7.89648 2.1353,0.76561 4.4508,1.86794 6.6973,2.21094 2.2898,0.35003 4.9918,1.03793 7.2793,1.11523 1.379,0.0445 23.4536,-7.97782 24.375,-8.42969 -0.432,-0.11121 -0.7192,-2.0871 -0.6993,-2.45703 0.3512,-1.53708 2.0393,-2.07432 2.209,-3.67578 -0.7562,-2.27109 -2.7546,-3.82568 -3.4336,-5.99609 -0.066,-0.20721 -1.3813,-5.80695 -1.4082,-6.09961 -0.089,-0.87683 0.073,-1.81224 0,-2.69141 -0.3172,-3.71685 -1.4883,-7.55732 -2.248,-11.2168 -0.3196,-1.5324 -0.1538,-3.72398 -1.1524,-5 -1.3029,-1.0571 -3.0063,-1.70837 -4.582,-2.2539 -1.9433,0.27979 -4.2171,1.91814 -6.0527,1.71093 -5.378,-2.39986 -3.1324,-4.86353 -5.6914,-6.98828 l -1.7383,-0.44531 c -0.4531,0.45656 -1.3831,0.93947 -2.0352,0.98047 -0.5865,-0.35354 -1.1642,-0.7301 -1.7168,-1.13281 l -2.7676,-0.0781 c 0.2213,1.58039 0.4791,3.16064 0.6583,4.74805 l -1.6231,-0.52344 -0.7734,-1.11719 c -0.8804,-1.27836 -1.9314,-5.84421 -2.0801,-7.41406 -0.158,-1.6799 0.6126,-1.65772 -0.066,-3.83398 l -0.7676,-2.5 c -1.1571,-3.74113 -2.5402,-7.2928 -4.25,-10.71094 l -497.6754,-1.2e-4 z"
     id="rect4"
     inkscape:connector-curvature="0" />
  <path
     style="fill:#11457e;fill-opacity:1"
     d="m 227.67383,94.213555 -2.32422,3.40625 0.17578,0.560547 0.64453,0.4375 0.94141,-0.244141 0.17774,1.111328 -0.79297,1.734371 -2.6211,1.0332 c -0.74337,1.95969 -2.47156,2.4491 -3.68554,3.83399 -0.94355,1.07232 -1.78834,2.63092 -2.59961,3.82617 -1.01964,-0.40739 -2.53901,-1.24546 -3.23438,-2.13867 l -2.35937,-0.42578 c -0.0457,-0.0878 -0.29034,-0.6465 -0.33594,-0.6875 -0.6942,-0.59704 -1.76075,-1.3226 -2.33203,-2.00977 -0.60289,-0.72347 -0.74414,-1.98354 -2.25195,-3.44336 -0.92833,-0.90257 -2.26008,-1.599581 -2.93555,-2.707026 l -0.56055,-0.917969 c 0.0375,1.318164 -0.11876,4.754425 0.61524,5.634765 -0.78083,0.39802 -1.67449,1.52117 -1.93555,2.35351 -0.79137,0.52211 -2.9659,1.69792 -3.98438,1.57618 l -0.85937,1.23828 -1.33594,0.16015 c -0.93887,1.26197 -0.82797,3.67333 -0.29883,5.06641 l -0.66015,0.98828 c -0.69303,0.42615 -2.42033,0.45387 -3.1836,0.38477 l -1.0332,0.62109 -1.24414,-0.10742 -1.34961,-3.34571 -0.48047,-0.36914 -3.1836,-0.21093 -2.74218,3.65625 0.41406,1.07031 c 0.014,0.51158 -2.39852,2.28749 -2.85156,2.66211 l 0.87304,2.69922 c -0.24584,0.4507 -0.53822,0.89299 -0.86132,1.29687 l 0.14648,0.88867 c -1.03486,1.7279 -2.83441,5.31265 -4.375,6.58399 l 0.39648,1.29297 -0.52929,0.77539 c -2.86344,0.94468 -5.61577,-1.06925 -8.38672,-0.0449 -0.78551,-2.57311 0.0237,-1.95045 -2.32227,-2.76172 -2.92782,3.11162 -6.51363,5.22978 -10.99609,4.17969 l -1.63672,-2.09961 -2.16406,-0.72852 c -0.25872,2.27693 -0.25122,3.62563 -1.42188,5.74219 l 0.24024,1.82422 c -0.43432,0.94472 -0.89488,1.86781 -1.22852,2.85351 l 0.92383,3.74219 -0.74023,1.9082 -4.24805,3.04102 -0.59375,2.09375 c -0.12292,0.10302 -1.64968,1.42466 -1.71875,1.44336 -1.51718,0.36876 -5.58095,0.90466 -6.41797,2.38672 l -4.31641,-3.47266 -1.52343,-0.17187 c -2.11071,-1.85199 -10.0476,-7.51813 -13.00586,-8.42188 0.16974,1.32167 -1.87078,3.96651 -2.69141,4.81641 l -1.21289,-2.49805 -0.68164,-0.0606 c -3.23571,2.4221 -6.14536,1.84336 -9.20313,5.22657 l -4.093745,4.50976 0.324218,1.50586 -0.876953,0.97266 c -1.648291,-0.69654 -3.688896,-3.151 -5.035156,-4.49024 -1.75248,1.77004 -3.422399,1.84252 -5.810547,1.4082 l -1.001953,-0.95117 -1.996094,0.0117 -2.591797,2.42969 -2.621094,-0.63477 c -0.989208,0.99389 -2.873999,1.82896 -4.169921,2.25391 l -1.556641,-0.45117 -0.779297,0.49023 -1.736328,-0.40625 -4.082031,1.9336 c 0.14048,1.57922 -1.085089,3.24316 -2.527344,3.80273 -0.81478,1.6401 0.533942,5.28089 -0.259766,6.05469 l -0.943359,0.36523 -2.353516,-0.45117 c -1.424695,0.74689 -3.486674,1.9837 -4.574218,3.21875 l 0.130859,1.91992 -0.816406,0.91992 c -2.21489,-0.42613 -3.267307,0.52499 -5.265625,0.49219 l -0.294922,3.04102 c -0.0679,0.68367 0.905837,1.54049 0.130859,4.05273 l -1.138672,0.73828 c -0.801903,-0.13228 -2.085822,0.24503 -2.728515,0.72852 l -0.480469,1.06055 c -0.684836,0.32545 -1.65144,1.19256 -1.910156,1.93359 l 0.05469,1.43164 c -0.689519,0.34418 -1.236022,1.65697 -1.320312,2.35938 l 1.099609,3.3125 -0.464844,1.65429 c -0.748052,-0.32896 -2.205539,-0.65562 -3.027343,-0.43555 l -1.300782,1.37696 1.0625,3.7168 c -0.571283,0.83819 -1.161964,1.65748 -1.77539,2.46289 l 0.103515,0.88867 1.728516,1.76562 c -0.695373,1.95266 -1.531002,3.80741 -2.421875,5.67578 l -4.503906,-1.09179 -0.628907,-2.12696 c -0.769124,-0.30203 -1.533755,-1.53673 -1.689453,-2.30468 l 1.689453,-2.06641 -1.152343,-1.94141 c 0.606403,-0.62981 1.187863,-1.48677 1.539062,-2.29101 -1.077008,-1.81804 -3.037062,-1.63545 -4.498047,-2.67383 -1.226852,-0.87565 -2.542545,-2.47494 -3.640625,-3.54492 l 1.236329,-1.33203 c 0.429632,0.49519 1.487796,0.95962 2.15039,0.86132 l 0.609375,-0.55664 -1.560547,-3.99609 c -2.528627,0.0738 -5.379866,0.51435 -7.8125,-0.33789 l -0.796875,-1.36523 0.117188,-2.29297 -0.742188,-1.41797 0.302735,-3.25781 -1.832032,-0.67383 -0.148437,-3.07617 -1.236328,-0.20118 c -1.849644,1.55695 -5.025545,-0.865 -8.1875,1.61914 l -2.494141,-0.0664 2.410156,2.68164 -0.945312,1.95508 c 0.236474,1.15544 1.454132,2.66821 2.425781,3.28515 l 0.404297,1.34571 c -0.95643,0.63567 -2.395096,1.79289 -2.939453,2.84765 l -0.974609,0.15235 -0.546876,-0.25977 -1.515624,0.55078 -0.50586,0.62305 0.607422,1.02734 -1.591797,1.58203 1.189453,0.79688 0.865235,-0.21289 1.560547,2.625 c 2.669106,0.36173 4.111275,1.0449 6.697265,2.1582 l 1.789063,4.77539 0.638672,-0.99414 0.628906,-0.0117 c 2.761589,3.09874 4.634573,5.28084 5.201172,9.77735 l 0.863281,0.55078 0.269531,0.94531 c -0.360564,1.55464 -1.779855,3.66074 -3.072266,4.59375 -0.450704,2.2547 0.815352,6.3724 1.681641,8.37891 l 1.121094,0.90039 2.248047,0.16015 0.199218,1.81641 2.154297,-0.0606 c 1.464497,1.09691 1.440485,1.26694 2.435547,2.90821 l 1.464844,0.75976 0.595703,1.13281 -1.890625,3.25196 c 2.765101,0.94355 7.491764,0.78239 9.34375,1.88281 -0.05385,1.73258 0.887356,2.85952 1.878906,4.125 l 0.919922,-0.91406 1.115235,0.19336 c 0.889703,0.59236 1.762901,1.79789 2.15039,2.78125 l 1.921875,0.74218 0.619141,1.41211 1.238281,0.0918 0.484375,0.96875 1.257813,-0.1875 c 1.121493,1.11799 2.961393,2.33045 4.53125,2.6875 l 1.082031,-0.19531 0.962891,0.61914 0.02148,1.20312 -1,1.24024 1.033203,1.16601 4.75,-2.21484 c 0.108872,1.0372 1.02863,2.5209 1.892578,3.0957 l 1.398438,0.16602 0.90625,1.3789 c 0.108872,1.05828 -0.06396,3.13377 -0.720703,4.04688 l -1.669922,0.41601 c -0.65557,0.45071 -1.068728,1.80859 -1.048828,2.55079 l 0.951171,2.19921 1.138672,0.52344 0.927735,-0.31054 0.453125,0.74218 c 2.358881,1.125 5.324136,1.71724 7.880859,2.13282 0.08429,0.10887 0.698454,0.85043 0.714844,0.92773 0.176769,0.82063 0.513349,1.84461 0.574218,2.66992 0.284472,3.86553 -3.735789,4.48553 -4.345703,6.33985 -0.621621,1.89881 -0.658319,3.79511 -1.90039,5.48437 l -1.978516,0.78125 -0.453125,4.28711 c -0.588843,-0.61928 -2.415652,-0.8535 -3.195312,-0.8418 -1.003256,1.64712 -0.659319,3.63863 -0.605469,5.47071 l -1.025391,1.5664 0.732422,5.63086 -0.261719,0.47461 -9.769531,5.60547 c -0.937699,0.53967 -0.801551,3.74264 -0.414062,4.56445 0.426121,0.90141 1.249794,1.90713 1.804687,2.75586 l 1.642578,0.51172 c 0.436656,1.37904 2.140106,5.80623 3.521485,6.54492 1.955004,0.062 3.305926,1.40763 5.253906,1.60547 l 0.828125,1.58985 c 1.690434,1.04657 3.434396,1.12832 5.337891,0.5664 l 0.144531,2.36524 c 0.526797,0.50222 1.503483,1.82464 1.470703,2.62304 l -0.714844,1.25977 0.205078,2.17969 -1.613281,1.43164 0.427734,0.95898 1.048829,0.19336 c 0.312566,0.65908 -0.302711,2.09821 -0.65625,2.63086 l 0.316406,0.89844 0.941406,0.12695 1.320312,1.73438 2.128907,-0.76368 1.240234,0.64454 -0.251953,1.01757 c 0.598208,1.4165 1.100119,2.61533 0.837891,4.2168 l 2.013671,2.07422 c 0.412073,1.66234 -1.091037,3.36111 -0.359374,6.91406 0.167405,0.81361 1.950851,3.48106 2.771484,4.04297 l -0.47461,1.05273 c 1.370844,2.04631 5.088603,2.62021 7.28125,2.53711 l 1.404297,1.96875 c -1.448107,4.04698 1.11433,6.01369 0.242188,8.65821 l -1.955078,1.37695 3.115234,3.57813 1.234375,7.42187 c 1.800477,1.50079 5.589069,2.29399 7.855469,2.15234 l 1.9375,2.83789 c 1.622537,0.10888 4.401107,2.26517 5.468747,3.33399 0.71996,2.2863 0.76848,3.57721 0.88672,6.08008 0.8499,0.65323 2.82971,2.32803 3.22656,3.37695 l -0.2539,2.43555 0.54101,0.81054 c 2.78032,1.03603 7.36546,0.80192 10.21485,0.38868 l 1.22656,1.30078 c 1.2807,-0.11706 3.40592,0.56901 3.83789,1.94922 l 1.06445,-2.17774 -0.73242,-1.73047 0.38477,-1.22656 4.32031,0.90234 0.87305,0.83399 3.33203,0.0957 c 5.83574,0.16272 7.56241,6.06424 11.62109,9.24024 l 2.63281,0.43945 c 1.88827,3.71217 -0.98015,5.39226 0.0781,8.10351 l 0.85352,1.05079 2.8125,0.29101 0.97461,0.90039 c 0.0726,0.75742 0.58126,2.65862 1.3457,3.06836 l 2.63086,0.44531 c 0.48817,0.40973 0.94757,1.133 1.24024,1.68555 l -0.3711,1.72656 0.4082,1.07227 c 0.76562,0.26106 3.27214,1.36694 3.52149,2.26367 0.008,1.38255 -0.20845,3.04886 0.68359,4.21484 1.08052,0.64269 2.576,1.32581 3.53711,2.10547 1.3966,1.13437 3.25967,4.66976 5.42774,4.51172 l 0.69531,0.93555 c 0.15687,1.58039 -0.30725,3.61128 -0.89258,5.0664 l 0.44727,1.24024 c 2.08026,1.33338 3.96941,2.81779 5.73828,4.5293 1.00325,0.66727 1.88316,1.2604 2.59961,1.49804 2.5813,0.85459 7.29492,-1.59864 8.79687,-1.03906 l 9.38867,7.7168 0.60352,1.96875 c 1.25027,0.16273 4.75953,4.00007 4.91406,5.57812 l 2.26563,0.69531 1.41992,0.78126 0.12305,0.50195 -1.04297,1.06055 -0.125,0.81054 1.09961,1.29297 c 0.22709,0.88502 0.82197,4.09106 0.16406,4.88477 l 0.96484,1.51172 -0.52539,5.14648 1.94336,1.76367 0.92578,0.13867 0.75196,1.4375 1.51953,0.35352 c 0.49168,0.96814 3.24981,2.13978 4.19336,2.45703 0.28681,0.5865 1.06083,1.60026 1.70703,1.84961 l 0.83203,0.0195 2.20312,2.44531 1.64258,0.15039 1.0957,-1.10547 -0.67382,-3.39843 0.5957,-1.69531 c 1.06998,0.20603 3.0408,-0.49189 3.96094,-0.95313 l 2.07031,1.50586 c 2.5696,0.58884 0.65262,-1.5177 3.9375,-0.13281 l 0.7832,-0.69532 0.99024,0.0937 c 0.65613,0.56445 1.0041,0.84745 1.33789,1.33204 L 537.4043,300.69988 227.67383,94.213555 Z"
     id="path8"
     inkscape:connector-curvature="0" />
</svg>
