<?xml version="1.0" encoding="UTF-8" ?>
<!DOCTYPE svg PUBLIC "-//W3C//DTD SVG 1.1//EN" "http://www.w3.org/Graphics/SVG/1.1/DTD/svg11.dtd">
<svg width="1000pt" height="915pt" viewBox="0 0 1000 915" version="1.1" xmlns="http://www.w3.org/2000/svg">
<g id="#3e9a00ff">
<path fill="#3e9a00" opacity="1.00" d=" M 535.07 8.04 C 536.85 5.65 537.00 1.86 540.16 0.76 C 541.59 -0.04 543.22 0.49 544.74 0.69 C 544.82 1.56 544.99 3.31 545.07 4.19 C 548.70 4.77 552.36 5.06 556.02 4.63 C 561.64 6.23 567.40 4.74 572.88 3.34 C 576.66 4.29 577.95 8.30 579.60 11.36 C 581.42 14.25 581.23 17.80 581.28 21.07 C 581.06 26.62 576.42 30.30 573.84 34.80 C 571.53 38.72 568.00 41.87 566.36 46.19 C 564.75 50.09 562.71 53.80 560.28 57.24 C 558.87 59.05 559.29 61.51 558.67 63.61 C 556.68 65.87 554.09 67.44 551.57 69.01 C 552.26 73.27 553.15 77.90 551.03 81.92 C 548.28 86.41 543.42 89.24 541.08 94.03 C 539.67 96.28 538.74 99.50 536.03 100.44 C 531.36 97.57 525.92 97.08 520.95 95.01 C 518.27 94.57 515.48 96.52 512.97 95.13 C 507.75 91.89 500.90 93.09 496.09 88.94 C 494.12 83.20 490.52 77.35 492.01 71.05 C 493.38 64.83 495.17 57.84 500.97 54.25 C 505.80 55.63 510.89 55.60 515.88 55.88 C 518.34 55.82 519.13 53.05 519.27 51.04 C 519.51 49.27 518.10 47.79 518.11 46.05 C 519.08 43.23 522.30 42.23 523.85 39.82 C 524.30 33.93 524.09 27.99 524.81 22.13 C 527.59 16.98 532.27 13.19 535.07 8.04 Z" />
<path fill="#3e9a00" opacity="1.00" d=" M 726.18 254.33 C 728.68 252.07 732.26 251.37 735.10 249.54 C 736.30 250.90 738.24 252.01 738.29 254.04 C 738.44 257.79 737.91 261.73 739.81 265.17 C 740.59 267.67 743.31 268.43 745.31 269.70 C 747.86 270.99 749.76 273.19 751.32 275.54 C 755.59 276.04 759.63 277.59 763.64 279.05 C 766.97 280.03 770.38 280.73 773.68 281.86 C 774.44 280.69 775.23 279.54 776.03 278.39 C 776.72 279.59 777.43 280.79 778.15 281.99 C 781.10 282.05 784.06 282.18 787.01 281.91 C 789.39 281.78 791.41 280.19 793.79 280.07 C 794.93 280.58 795.99 281.29 797.08 281.94 C 799.87 280.68 802.90 280.20 805.95 280.38 C 844.30 280.68 882.65 279.93 921.00 280.23 C 936.34 279.95 951.70 280.51 967.04 280.03 C 969.98 280.10 972.60 277.29 975.53 278.55 C 983.23 281.56 991.63 279.66 999.67 280.21 C 999.57 283.51 999.73 286.81 1000.00 290.10 L 1000.00 290.79 C 998.27 298.41 998.96 306.25 998.71 313.99 C 998.54 318.22 999.03 322.44 1000.00 326.56 L 1000.00 330.53 C 999.78 333.68 999.57 336.84 999.66 340.00 C 1000.05 365.79 999.40 391.58 1000.00 417.37 L 1000.00 419.58 C 999.06 429.70 1000.02 439.86 999.63 450.00 C 999.35 462.18 1000.20 474.37 999.69 486.55 C 982.81 487.32 965.91 486.47 949.02 486.84 C 905.69 486.96 862.35 486.91 819.02 486.72 C 801.65 487.39 784.28 486.50 766.92 486.97 C 766.07 490.74 766.53 494.60 766.59 498.42 C 763.73 498.96 760.90 499.72 757.99 499.95 C 755.50 498.90 753.32 497.25 750.84 496.19 C 747.09 495.03 747.02 489.94 743.31 488.72 C 739.86 486.77 735.82 486.93 732.00 486.95 C 731.61 483.09 730.59 479.32 728.89 475.83 C 731.36 474.44 734.13 473.75 736.96 473.57 C 732.68 472.65 729.24 469.58 724.92 468.88 C 721.32 468.72 717.81 469.86 714.23 470.05 C 714.24 467.94 714.33 465.83 714.38 463.73 C 712.73 467.12 711.28 470.81 708.10 473.10 C 704.10 476.98 698.55 478.28 693.34 479.67 C 690.90 475.92 690.94 471.12 688.67 467.24 C 687.87 464.62 685.04 463.80 682.67 463.25 C 678.04 461.82 673.79 464.86 669.39 465.78 C 666.78 466.26 664.30 469.59 661.73 467.37 C 657.59 463.89 654.46 459.37 652.54 454.33 C 656.69 452.78 657.85 448.35 659.61 444.76 C 660.93 441.74 661.22 438.11 663.77 435.76 C 666.35 433.35 669.56 431.38 671.04 428.01 C 673.23 423.92 669.45 418.55 673.05 415.03 C 675.22 412.10 678.22 410.00 681.48 408.42 C 683.59 407.50 684.38 405.22 685.56 403.43 C 686.87 401.17 689.11 399.64 690.41 397.38 C 692.51 393.62 693.76 389.46 695.30 385.46 C 696.35 382.85 699.63 382.85 701.95 382.16 C 700.18 378.74 697.09 375.36 698.29 371.22 C 699.86 365.55 704.82 361.83 708.85 357.90 C 711.85 354.52 716.48 352.81 718.62 348.65 C 720.98 345.56 721.29 341.67 722.13 338.03 C 724.04 335.04 727.82 333.69 729.59 330.51 C 730.85 328.03 732.65 325.69 733.23 322.95 C 732.17 313.16 727.72 304.18 724.50 294.99 C 725.01 291.42 729.31 289.09 728.49 285.17 C 727.83 279.78 728.63 274.37 728.43 268.97 C 728.32 264.00 725.23 259.36 726.18 254.33 M 730.20 275.22 C 729.63 278.83 729.94 282.46 730.31 286.07 C 730.94 289.74 727.07 291.79 726.18 294.97 C 729.64 303.35 733.09 311.86 734.73 320.83 L 735.44 321.88 C 735.33 325.27 732.72 327.63 731.57 330.65 C 730.06 334.28 726.17 335.85 723.65 338.61 C 723.53 344.17 720.90 349.18 717.29 353.29 C 715.48 355.19 712.82 356.03 711.13 358.06 C 708.21 361.50 704.15 363.85 701.82 367.81 C 699.55 370.53 699.38 374.73 701.40 377.63 C 703.07 380.23 703.97 384.02 707.60 384.42 C 711.75 386.23 715.74 383.03 718.26 380.00 C 719.91 380.12 721.56 380.28 723.23 380.46 C 719.57 384.92 714.21 389.81 707.96 388.08 C 704.73 387.91 702.64 385.20 700.08 383.61 C 699.77 383.99 699.16 384.74 698.85 385.11 C 698.33 385.26 697.29 385.54 696.77 385.69 C 695.81 390.28 693.67 394.50 691.74 398.74 C 690.56 401.43 687.26 402.46 686.40 405.38 C 685.01 410.20 679.38 410.63 676.18 413.77 C 676.05 414.10 675.79 414.77 675.66 415.10 C 671.96 417.20 673.64 421.61 673.54 425.04 C 673.63 428.18 671.38 430.67 669.68 433.09 C 669.01 433.72 668.34 434.34 667.67 434.96 C 662.22 437.18 662.94 443.77 659.99 447.92 C 658.54 450.52 658.06 453.89 655.11 455.31 C 656.89 459.89 660.21 463.68 663.92 466.84 C 666.41 463.58 670.56 463.64 674.23 463.03 L 673.96 462.43 L 674.70 461.65 C 676.00 461.42 677.32 461.18 678.64 460.97 C 679.15 460.98 680.17 460.99 680.69 461.00 C 681.88 461.31 683.09 461.60 684.31 461.90 L 685.82 462.47 C 686.24 462.47 687.07 462.47 687.48 462.47 C 689.05 464.67 690.38 467.03 691.84 469.31 C 692.02 469.82 692.40 470.85 692.59 471.37 L 693.22 472.63 C 693.08 473.65 693.06 474.67 693.15 475.71 C 698.55 477.44 704.63 475.35 706.81 469.92 C 707.38 471.88 710.64 469.44 709.62 468.02 L 710.56 467.97 C 711.02 466.32 711.44 464.67 712.01 463.07 C 714.21 461.39 717.09 461.90 719.52 462.74 C 719.08 463.05 718.19 463.67 717.75 463.98 L 716.72 463.95 C 716.35 465.39 716.02 466.84 715.77 468.32 C 718.17 467.90 720.54 467.25 722.98 467.07 C 725.72 467.14 728.47 468.10 731.20 467.31 L 730.24 467.99 C 731.63 469.51 733.29 470.76 735.17 471.66 L 735.77 470.63 C 737.88 471.01 740.88 470.41 741.75 472.99 C 739.73 473.90 737.71 474.79 735.79 475.88 C 733.91 475.50 732.10 476.09 730.54 477.08 L 731.48 477.13 C 732.72 479.61 733.31 482.33 733.39 485.11 C 736.93 485.10 740.50 485.37 743.75 486.92 L 743.81 487.89 C 744.30 487.79 745.28 487.57 745.78 487.47 C 747.90 489.22 748.41 492.98 750.80 493.99 C 751.78 494.51 752.82 494.85 753.92 495.00 C 755.28 496.16 756.63 497.34 758.00 498.51 C 759.79 497.97 761.61 497.54 763.47 497.25 C 763.68 496.70 764.09 495.59 764.30 495.04 C 764.26 494.64 764.18 493.84 764.15 493.44 C 764.16 492.79 764.19 491.48 764.21 490.82 C 764.05 490.45 763.74 489.71 763.59 489.34 C 765.32 488.68 765.77 487.56 764.95 485.96 C 765.18 485.73 765.65 485.26 765.88 485.03 C 772.11 485.29 778.34 485.03 784.58 485.07 L 785.27 484.53 C 796.09 486.04 807.09 484.97 817.99 485.02 C 862.99 485.11 908.01 485.29 953.01 485.06 C 968.04 484.85 983.08 485.47 998.12 485.05 C 997.66 435.37 998.39 385.68 997.96 335.99 C 998.56 327.67 997.63 319.34 997.86 311.01 C 997.96 301.30 998.30 291.59 997.83 281.89 C 990.14 281.39 982.08 283.15 974.74 280.14 C 972.34 279.30 970.51 282.18 968.05 281.79 C 931.70 282.26 895.34 281.50 858.99 282.15 C 840.31 282.21 821.63 282.10 802.95 282.16 C 800.45 281.99 798.42 283.64 796.28 284.62 C 795.19 283.55 794.10 282.48 793.00 281.44 C 791.64 282.35 790.31 283.30 788.98 284.24 C 782.09 282.84 774.78 284.73 768.18 282.01 C 763.06 281.28 758.49 278.74 753.48 277.56 C 752.68 278.09 751.86 278.58 751.03 279.03 C 749.10 278.83 749.12 276.62 748.51 275.25 C 742.40 275.22 736.30 275.25 730.20 275.22 M 694.25 477.22 C 694.80 477.79 694.80 477.79 694.25 477.22 Z" />
<path fill="#3e9a00" opacity="1.00" d=" M 645.09 499.24 C 646.46 497.47 648.87 498.74 650.64 499.05 C 650.90 501.86 651.78 504.54 653.06 507.05 C 649.93 508.54 646.59 508.46 643.46 507.06 C 644.23 504.50 644.44 501.82 645.09 499.24 M 646.33 500.06 C 646.23 501.99 646.19 503.93 646.23 505.88 C 647.67 506.05 649.13 506.21 650.59 506.34 C 649.97 504.48 649.45 502.59 649.08 500.66 C 648.16 500.44 647.24 500.24 646.33 500.06 Z" />
</g>
<g id="#ffffffff">
<path fill="#ffffff" opacity="1.00" d=" M 730.20 275.22 C 736.30 275.25 742.40 275.22 748.51 275.25 C 749.12 276.62 749.10 278.83 751.03 279.03 C 751.86 278.58 752.68 278.09 753.48 277.56 C 758.49 278.74 763.06 281.28 768.18 282.01 C 774.78 284.73 782.09 282.84 788.98 284.24 C 790.31 283.30 791.64 282.35 793.00 281.44 C 794.10 282.48 795.19 283.55 796.28 284.62 C 798.42 283.64 800.45 281.99 802.95 282.16 C 821.63 282.10 840.31 282.21 858.99 282.15 C 895.34 281.50 931.70 282.26 968.05 281.79 C 970.51 282.18 972.34 279.30 974.74 280.14 C 982.08 283.15 990.14 281.39 997.83 281.89 C 998.30 291.59 997.96 301.30 997.86 311.01 C 997.63 319.34 998.56 327.67 997.96 335.99 C 998.39 385.68 997.66 435.37 998.12 485.05 C 983.08 485.47 968.04 484.85 953.01 485.06 C 908.01 485.29 862.99 485.11 817.99 485.02 C 807.09 484.97 796.09 486.04 785.27 484.53 C 786.53 483.33 788.09 482.61 789.85 482.55 C 802.22 481.47 814.89 479.15 825.70 472.72 C 832.11 468.88 837.71 462.75 838.99 455.19 C 837.90 451.84 836.35 448.66 835.28 445.31 C 838.33 442.99 841.95 440.24 841.96 436.00 C 841.71 430.97 839.73 426.25 838.57 421.40 C 837.32 416.84 837.05 412.09 835.97 407.50 C 834.05 411.88 832.41 416.51 829.11 420.08 C 825.68 424.38 820.64 428.18 820.03 434.02 C 820.89 438.94 826.07 442.01 827.12 446.84 C 820.64 455.83 809.97 461.26 799.04 462.35 C 790.67 463.84 782.23 462.39 773.87 461.81 C 773.85 466.69 774.33 471.55 774.67 476.42 C 761.77 477.58 748.63 477.75 735.79 475.88 C 737.71 474.79 739.73 473.90 741.75 472.99 C 740.88 470.41 737.88 471.01 735.77 470.63 C 736.64 467.80 736.78 464.83 736.91 461.90 C 731.09 461.89 725.34 463.40 719.52 462.74 C 717.09 461.90 714.21 461.39 712.01 463.07 C 711.44 464.67 711.02 466.32 710.56 467.97 L 709.62 468.02 C 708.31 467.84 707.37 468.88 706.81 469.92 C 704.63 475.35 698.55 477.44 693.15 475.71 C 693.06 474.67 693.08 473.65 693.22 472.63 C 695.32 469.92 697.05 466.86 697.56 463.43 C 694.73 465.14 693.73 468.47 692.59 471.37 C 692.40 470.85 692.02 469.82 691.84 469.31 C 693.11 467.04 694.60 464.84 695.23 462.28 C 693.61 463.35 692.28 464.75 691.00 466.19 C 691.02 463.89 690.99 461.60 690.84 459.31 C 689.60 460.24 688.49 461.31 687.48 462.47 C 687.07 462.47 686.24 462.47 685.82 462.47 C 687.69 461.47 688.72 459.64 688.93 457.57 C 687.18 458.77 685.65 460.26 684.31 461.90 C 683.09 461.60 681.88 461.31 680.69 461.00 C 682.54 459.11 684.21 457.01 685.40 454.62 C 682.02 455.20 680.36 458.38 678.64 460.97 C 677.32 461.18 676.00 461.42 674.70 461.65 C 674.17 458.96 672.30 456.25 673.48 453.49 C 675.10 449.07 676.64 444.61 677.35 439.94 C 681.82 450.22 690.99 457.98 701.52 461.56 C 704.47 462.49 707.67 463.76 710.75 462.68 C 707.84 461.62 704.78 461.11 701.84 460.20 C 694.16 457.54 687.22 452.67 682.41 446.10 C 684.85 442.28 688.10 438.95 689.98 434.79 C 690.17 430.64 687.16 427.34 684.61 424.42 C 681.52 421.10 678.59 417.62 676.18 413.77 C 679.38 410.63 685.01 410.20 686.40 405.38 C 687.26 402.46 690.56 401.43 691.74 398.74 C 693.67 394.50 695.81 390.28 696.77 385.69 C 697.29 385.54 698.33 385.26 698.85 385.11 C 698.51 402.40 698.82 419.72 698.83 437.02 C 698.78 444.71 701.36 453.58 708.82 457.17 C 720.98 463.07 735.00 457.57 747.58 461.47 C 751.59 462.60 753.72 466.38 755.26 469.94 C 755.84 466.02 758.11 462.16 762.28 461.34 C 773.80 458.59 785.89 462.30 797.39 459.16 C 802.04 457.94 806.41 455.05 808.61 450.67 C 811.35 445.58 811.26 439.62 811.24 434.00 C 811.20 396.22 811.26 358.45 811.21 320.68 C 785.72 320.72 760.22 320.41 734.73 320.83 C 733.09 311.86 729.64 303.35 726.18 294.97 C 727.07 291.79 730.94 289.74 730.31 286.07 C 729.94 282.46 729.63 278.83 730.20 275.22 M 737.52 293.76 C 735.12 293.93 732.72 293.97 730.33 294.05 C 731.39 296.14 732.63 298.14 733.92 300.10 C 732.91 302.18 731.88 304.26 730.89 306.36 C 733.18 306.37 735.47 306.28 737.76 306.22 C 739.04 308.20 740.35 310.15 741.70 312.08 C 742.89 310.09 744.04 308.08 745.19 306.07 C 747.50 305.94 749.82 305.81 752.14 305.63 C 751.07 303.69 749.83 301.84 748.83 299.87 C 749.18 297.49 750.62 295.44 751.43 293.20 C 749.30 293.21 747.19 293.37 745.08 293.25 C 743.10 291.91 742.21 289.45 740.73 287.62 C 739.54 289.60 738.48 291.66 737.52 293.76 M 765.89 293.18 C 763.59 293.35 761.28 293.19 758.99 293.20 C 759.87 295.41 761.50 297.45 761.78 299.84 C 760.88 301.84 759.73 303.71 758.79 305.68 C 761.10 305.86 763.42 305.98 765.74 306.12 C 766.71 308.12 767.74 310.09 768.88 312.01 C 770.27 310.14 771.49 308.14 773.04 306.39 C 775.30 306.22 777.57 306.43 779.84 306.53 C 778.84 304.39 777.64 302.33 776.96 300.07 C 777.92 297.97 779.25 296.07 780.36 294.05 C 778.03 293.96 775.71 293.92 773.39 293.77 C 772.31 291.66 771.13 289.61 769.88 287.62 C 768.53 289.46 767.40 291.47 765.89 293.18 M 795.62 296.99 C 793.36 296.51 791.12 295.99 788.85 295.65 C 789.37 297.77 790.03 299.85 790.40 302.01 C 789.36 304.16 787.42 305.70 786.00 307.59 C 788.21 308.15 790.43 308.72 792.65 309.29 C 793.20 311.53 793.80 313.75 794.40 315.98 C 796.14 314.48 797.72 312.81 799.46 311.30 C 801.74 311.14 803.96 312.12 806.24 312.37 C 805.79 310.27 805.13 308.23 804.85 306.10 C 806.04 303.99 807.97 302.42 809.35 300.43 C 807.05 299.86 804.77 299.30 802.50 298.68 C 801.94 296.45 801.33 294.25 800.69 292.05 C 798.93 293.63 797.22 295.27 795.62 296.99 M 823.93 304.40 C 821.69 303.65 819.58 302.59 817.35 301.87 C 817.56 304.13 817.84 306.39 818.02 308.66 C 815.99 309.95 813.99 311.28 812.06 312.71 C 814.12 313.82 816.36 314.66 818.22 316.12 C 818.51 318.38 818.53 320.66 818.62 322.93 C 820.73 321.69 822.83 320.43 824.90 319.12 C 826.92 320.16 828.97 321.16 831.02 322.14 C 831.02 319.79 831.00 317.45 831.02 315.11 C 832.86 313.82 834.69 312.49 836.49 311.12 C 834.42 309.94 832.32 308.85 830.22 307.77 C 830.10 305.47 830.02 303.16 829.95 300.85 C 827.95 302.05 826.03 303.39 823.93 304.40 M 698.43 464.74 C 697.45 467.56 696.37 470.35 695.37 473.17 C 697.15 473.77 698.93 474.70 700.86 474.74 C 703.41 474.36 704.41 471.40 704.54 469.16 C 704.26 466.14 700.77 465.50 698.43 464.74 Z" />
<path fill="#ffffff" opacity="1.00" d=" M 735.44 321.88 C 760.22 322.33 785.03 321.93 809.82 322.08 C 809.76 360.74 809.81 399.40 809.79 438.07 C 809.71 442.89 809.00 448.02 806.04 452.00 C 803.32 455.69 798.83 457.55 794.44 458.33 C 784.21 460.12 773.73 457.79 763.50 459.50 C 759.93 460.01 757.03 462.29 754.84 465.03 C 752.38 462.40 749.43 460.04 745.79 459.40 C 735.49 457.30 724.82 459.95 714.54 457.66 C 710.39 456.75 706.32 454.63 703.94 451.01 C 700.81 446.34 700.26 440.52 700.22 435.04 C 700.17 417.90 700.17 400.75 700.08 383.61 C 702.64 385.20 704.73 387.91 707.96 388.08 C 714.21 389.81 719.57 384.92 723.23 380.46 C 721.56 380.28 719.91 380.12 718.26 380.00 C 715.74 383.03 711.75 386.23 707.60 384.42 C 703.97 384.02 703.07 380.23 701.40 377.63 C 699.38 374.73 699.55 370.53 701.82 367.81 C 704.15 363.85 708.21 361.50 711.13 358.06 C 712.82 356.03 715.48 355.19 717.29 353.29 C 720.90 349.18 723.53 344.17 723.65 338.61 C 726.17 335.85 730.06 334.28 731.57 330.65 C 732.72 327.63 735.33 325.27 735.44 321.88 M 748.40 333.41 C 746.54 333.55 744.69 333.72 742.85 333.97 C 742.64 335.46 742.50 336.96 742.41 338.46 C 740.42 340.20 738.64 342.27 736.03 343.05 C 733.45 343.60 733.46 346.49 732.74 348.52 C 731.51 348.78 730.28 349.06 729.07 349.34 C 728.87 350.71 728.73 352.08 728.59 353.46 C 727.38 354.33 726.07 355.11 725.18 356.32 C 724.66 358.06 725.67 359.69 726.21 361.29 C 724.20 363.95 721.74 367.26 717.99 366.82 C 715.60 366.42 714.45 368.50 713.42 370.22 C 711.60 370.84 709.22 370.98 708.41 373.05 C 709.01 375.31 711.61 375.57 713.36 376.61 C 715.45 377.52 717.35 379.63 719.85 378.95 C 721.80 378.62 722.90 376.76 724.18 375.44 C 726.99 376.77 730.13 377.34 732.68 379.21 C 734.61 380.64 737.34 380.79 739.33 379.38 C 741.39 378.11 740.88 375.42 741.15 373.38 C 742.76 373.07 745.35 373.64 745.80 371.45 C 750.04 375.01 750.41 380.88 750.93 385.99 C 751.72 404.23 748.93 422.67 742.91 439.90 C 742.09 442.96 739.28 445.96 740.71 449.23 C 742.99 450.02 745.47 450.17 747.61 451.39 C 749.08 452.46 751.58 452.01 752.20 450.18 C 753.88 451.09 755.70 453.18 757.71 451.79 C 760.59 450.05 763.89 449.66 767.21 449.80 C 767.90 442.98 764.50 436.71 762.80 430.29 C 759.19 419.56 759.82 408.12 758.97 396.99 C 758.68 390.86 757.99 384.37 760.54 378.59 C 762.09 374.90 765.36 372.44 768.48 370.13 C 770.60 370.10 772.74 369.99 774.88 370.12 C 776.91 371.55 778.38 374.03 781.02 374.43 C 783.97 375.03 786.54 373.20 789.19 372.25 C 791.89 371.68 794.92 372.97 797.44 371.45 C 799.06 370.06 799.97 368.03 801.58 366.61 C 803.09 365.16 804.94 363.38 804.39 361.05 C 803.89 358.27 800.93 357.28 798.75 356.14 C 798.28 354.14 798.56 351.55 796.66 350.25 C 794.77 348.98 792.37 349.30 790.23 349.15 C 790.24 347.82 790.17 346.50 790.01 345.19 C 788.74 343.51 786.45 343.82 784.63 343.40 C 783.64 340.90 780.99 338.59 778.20 339.92 C 776.18 341.80 773.84 343.17 771.18 343.93 C 769.64 341.57 767.21 340.20 764.50 339.64 C 764.06 337.10 763.52 334.31 761.34 332.65 C 757.81 329.37 750.90 328.42 748.40 333.41 Z" />
<path fill="#ffffff" opacity="1.00" d=" M 748.92 367.01 C 749.89 366.38 750.87 365.76 751.85 365.14 C 752.34 365.37 753.33 365.83 753.82 366.07 C 753.60 368.07 753.43 370.08 753.34 372.10 C 751.91 370.36 750.42 368.68 748.92 367.01 Z" />
<path fill="#ffffff" opacity="1.00" d=" M 759.19 366.23 C 761.19 366.00 763.62 364.64 765.10 366.72 C 763.04 368.22 760.97 369.72 758.90 371.20 C 758.97 369.54 759.07 367.88 759.19 366.23 Z" />
<path fill="#ffffff" opacity="1.00" d=" M 828.72 422.66 C 831.42 419.68 833.57 416.27 835.63 412.83 C 836.06 420.47 839.54 427.48 840.42 435.03 C 840.90 438.72 838.26 441.76 835.21 443.39 C 833.70 439.41 833.74 434.50 830.58 431.37 C 827.35 430.36 824.79 434.28 821.54 434.60 C 821.58 429.53 825.72 426.20 828.72 422.66 Z" />
<path fill="#ffffff" opacity="1.00" d=" M 673.54 425.04 C 673.64 421.61 671.96 417.20 675.66 415.10 C 678.83 422.40 687.53 426.32 688.56 434.65 C 685.37 433.85 682.63 431.11 679.32 431.15 C 675.94 434.28 676.22 439.36 674.97 443.48 C 673.20 442.11 671.09 440.86 670.23 438.69 C 669.79 436.85 669.76 434.96 669.68 433.09 C 671.38 430.67 673.63 428.18 673.54 425.04 Z" />
<path fill="#ffffff" opacity="1.00" d=" M 680.07 432.12 C 682.65 433.54 685.20 435.03 687.79 436.45 C 685.59 439.19 683.55 442.06 681.46 444.88 C 680.19 442.30 678.59 439.82 678.00 436.97 C 677.72 435.07 679.21 433.64 680.07 432.12 Z" />
<path fill="#ffffff" opacity="1.00" d=" M 822.22 436.43 C 824.74 434.96 827.25 433.45 829.86 432.11 C 830.57 433.44 831.32 434.76 831.87 436.19 C 831.65 439.35 829.80 442.12 828.48 444.93 C 826.29 442.17 824.36 439.22 822.22 436.43 Z" />
<path fill="#ffffff" opacity="1.00" d=" M 659.99 447.92 C 662.94 443.77 662.22 437.18 667.67 434.96 C 668.42 439.35 671.14 442.90 674.88 445.22 C 673.90 448.55 672.39 451.71 671.48 455.05 C 671.59 457.69 672.96 460.04 673.96 462.43 L 674.23 463.03 C 670.56 463.64 666.41 463.58 663.92 466.84 C 660.21 463.68 656.89 459.89 655.11 455.31 C 658.06 453.89 658.54 450.52 659.99 447.92 Z" />
<path fill="#ffffff" opacity="1.00" d=" M 825.79 450.74 C 828.71 447.57 830.71 443.73 832.61 439.89 C 833.52 445.16 835.48 450.13 837.47 455.06 C 836.24 463.70 828.85 469.90 821.40 473.51 C 810.39 478.72 798.12 480.92 786.01 481.26 C 786.01 480.48 786.00 478.92 786.00 478.14 C 787.33 478.75 788.74 480.52 790.28 479.38 C 793.03 478.24 791.69 474.85 792.12 472.59 C 792.79 474.40 793.23 476.33 794.25 478.00 C 796.59 478.94 800.81 478.28 800.23 474.94 C 799.89 472.76 800.17 468.64 797.08 468.80 C 797.54 471.51 798.06 474.24 797.79 477.00 C 794.24 476.27 794.80 472.20 793.77 469.53 C 793.04 470.22 792.31 470.90 791.58 471.56 C 791.07 471.25 790.07 470.61 789.56 470.29 C 789.46 472.84 789.82 475.38 790.02 477.93 C 788.71 477.49 787.42 477.05 786.12 476.67 C 785.68 474.01 787.19 470.19 784.20 468.70 C 781.34 467.23 778.05 467.02 775.00 466.15 C 775.01 465.36 775.04 463.79 775.05 463.00 C 781.27 464.41 787.67 464.03 794.00 464.06 C 805.78 464.07 817.76 459.51 825.79 450.74 M 826.89 453.68 C 826.72 454.08 826.36 454.87 826.19 455.26 C 826.76 458.26 827.67 461.51 829.86 463.78 C 830.23 462.20 829.84 460.22 831.35 459.14 C 832.69 458.87 834.06 458.69 835.46 458.61 C 833.17 456.13 829.80 455.20 826.89 453.68 M 822.57 456.85 C 822.48 457.60 822.31 459.12 822.23 459.88 C 820.43 460.06 818.14 459.50 817.04 461.35 C 815.31 464.63 817.93 469.71 821.99 468.61 C 824.37 468.26 824.67 465.68 825.11 463.79 C 822.57 463.61 822.72 467.71 820.19 466.92 C 818.73 465.85 818.35 464.07 817.96 462.44 C 819.76 461.94 821.67 461.62 823.24 460.51 C 824.74 462.30 825.96 464.55 828.30 465.39 C 827.89 461.82 825.11 459.13 822.57 456.85 M 806.10 467.92 C 806.85 467.80 808.35 467.56 809.10 467.43 C 810.05 469.66 811.04 471.86 812.27 473.96 C 814.23 471.50 811.47 468.80 810.99 466.25 C 811.88 465.92 812.77 465.59 813.68 465.26 C 814.95 467.46 815.43 470.80 818.35 471.37 C 817.59 468.39 815.92 465.79 814.57 463.07 C 811.79 464.73 807.74 464.87 806.10 467.92 M 800.83 471.86 C 802.42 472.73 804.30 472.53 806.05 472.77 C 805.94 473.26 805.72 474.23 805.61 474.71 C 804.03 474.44 802.45 474.14 800.88 473.95 C 802.17 477.15 805.83 476.25 808.18 474.86 C 807.95 473.52 808.31 471.71 806.80 471.02 C 805.26 470.80 803.71 470.79 802.18 470.73 C 802.19 470.35 802.20 469.60 802.20 469.23 C 803.72 469.22 805.25 469.20 806.79 469.16 C 805.41 465.20 798.22 468.26 800.83 471.86 Z" />
<path fill="#ffffff" opacity="1.00" d=" M 717.75 463.98 C 723.64 464.20 729.57 464.13 735.40 463.15 C 735.25 464.25 735.11 465.36 734.96 466.48 C 733.70 466.74 732.44 467.01 731.20 467.31 C 728.47 468.10 725.72 467.14 722.98 467.07 C 720.54 467.25 718.17 467.90 715.77 468.32 C 716.02 466.84 716.35 465.39 716.72 463.95 L 717.75 463.98 Z" />
<path fill="#ffffff" opacity="1.00" d=" M 699.93 466.75 C 700.88 467.36 701.83 467.99 702.77 468.64 C 702.25 470.12 701.66 471.58 701.03 473.03 C 700.26 472.92 698.71 472.69 697.93 472.58 C 698.48 470.59 699.17 468.66 699.93 466.75 Z" />
<path fill="#ffffff" opacity="1.00" d=" M 775.75 467.89 C 778.54 468.44 781.63 468.59 784.03 470.31 C 785.78 474.78 779.06 475.36 776.12 476.10 C 775.96 473.36 775.80 470.63 775.75 467.89 Z" />
<path fill="#ffffff" opacity="1.00" d=" M 762.06 478.72 C 769.64 478.30 777.41 478.21 784.61 475.48 C 784.45 478.67 784.49 481.87 784.58 485.07 C 778.34 485.03 772.11 485.29 765.88 485.03 C 766.67 483.80 767.40 482.53 768.11 481.26 C 765.28 481.07 762.44 481.08 759.65 481.49 C 761.06 482.33 762.58 482.93 764.14 483.48 C 762.58 485.38 761.02 487.29 759.43 489.17 C 758.34 486.39 757.44 483.51 755.85 480.97 C 755.46 481.04 754.69 481.17 754.30 481.23 C 752.51 484.15 751.51 487.45 750.50 490.70 C 752.03 489.88 753.47 488.85 755.09 488.20 C 757.84 489.97 760.85 491.17 764.21 490.82 C 764.19 491.48 764.16 492.79 764.15 493.44 C 759.70 493.83 755.25 494.01 750.80 493.99 C 748.41 492.98 747.90 489.22 745.78 487.47 C 747.28 487.11 748.82 486.83 750.28 486.26 C 750.77 484.92 750.87 483.49 751.08 482.11 C 750.12 481.82 748.18 481.25 747.21 480.96 C 747.81 482.30 748.42 483.65 749.05 485.00 C 748.27 485.08 746.70 485.23 745.92 485.31 C 746.14 484.19 746.58 481.95 746.79 480.83 C 746.03 481.00 744.49 481.35 743.73 481.52 C 743.58 483.31 743.65 485.12 743.75 486.92 C 740.50 485.37 736.93 485.10 733.39 485.11 C 733.31 482.33 732.72 479.61 731.48 477.13 C 741.65 477.96 751.83 479.12 762.06 478.72 Z" />
<path fill="#ffffff" opacity="1.00" d=" M 753.92 495.00 C 757.37 495.08 760.83 495.00 764.30 495.04 C 764.09 495.59 763.68 496.70 763.47 497.25 C 761.61 497.54 759.79 497.97 758.00 498.51 C 756.63 497.34 755.28 496.16 753.92 495.00 Z" />
</g>
<g id="#4e4825ff">
<path fill="#4e4825" opacity="1.00" d=" M 737.52 293.76 C 738.48 291.66 739.54 289.60 740.73 287.62 C 742.21 289.45 743.10 291.91 745.08 293.25 C 747.19 293.37 749.30 293.21 751.43 293.20 C 750.62 295.44 749.18 297.49 748.83 299.87 C 749.83 301.84 751.07 303.69 752.14 305.63 C 749.82 305.81 747.50 305.94 745.19 306.07 C 744.04 308.08 742.89 310.09 741.70 312.08 C 740.35 310.15 739.04 308.20 737.76 306.22 C 735.47 306.28 733.18 306.37 730.89 306.36 C 731.88 304.26 732.91 302.18 733.92 300.10 C 732.63 298.14 731.39 296.14 730.33 294.05 C 732.72 293.97 735.12 293.93 737.52 293.76 M 737.80 294.90 C 736.09 295.11 734.36 295.10 732.66 295.19 C 733.48 296.79 734.44 298.33 735.09 300.02 C 734.65 301.76 733.77 303.33 733.03 304.96 C 734.89 304.97 736.75 304.99 738.62 305.07 C 739.60 306.52 740.62 307.96 741.69 309.36 C 742.56 307.92 743.37 306.44 744.37 305.08 C 746.15 304.53 748.06 304.66 749.92 304.56 C 749.01 302.94 748.07 301.33 747.14 299.74 C 747.78 298.14 748.43 296.54 749.07 294.94 C 747.31 294.67 745.39 295.01 743.78 294.22 C 742.69 293.05 741.82 291.71 740.87 290.45 C 739.84 291.91 739.30 293.86 737.80 294.90 Z" />
</g>
<g id="#585232ff">
<path fill="#585232" opacity="1.00" d=" M 765.89 293.18 C 767.40 291.47 768.53 289.46 769.88 287.62 C 771.13 289.61 772.31 291.66 773.39 293.77 C 775.71 293.92 778.03 293.96 780.36 294.05 C 779.25 296.07 777.92 297.97 776.96 300.07 C 777.64 302.33 778.84 304.39 779.84 306.53 C 777.57 306.43 775.30 306.22 773.04 306.39 C 771.49 308.14 770.27 310.14 768.88 312.01 C 767.74 310.09 766.71 308.12 765.74 306.12 C 763.42 305.98 761.10 305.86 758.79 305.68 C 759.73 303.71 760.88 301.84 761.78 299.84 C 761.50 297.45 759.87 295.41 758.99 293.20 C 761.28 293.19 763.59 293.35 765.89 293.18 M 766.66 294.65 C 765.00 294.70 763.35 294.75 761.72 294.81 C 762.19 296.52 763.06 298.16 763.13 299.96 C 762.58 301.53 761.82 303.00 761.12 304.49 C 762.96 304.62 764.81 304.78 766.66 304.98 C 767.35 306.40 768.01 307.88 769.07 309.09 C 770.21 307.82 771.17 306.40 772.16 305.02 C 773.88 304.97 775.61 304.94 777.35 304.89 C 776.68 303.29 776.00 301.70 775.32 300.11 C 776.23 298.45 777.15 296.80 778.08 295.14 C 776.25 294.89 774.19 295.47 772.55 294.55 C 771.52 293.23 770.70 291.77 769.81 290.37 C 768.73 291.78 767.69 293.21 766.66 294.65 Z" />
</g>
<g id="#ffd700ff">
<path fill="#ffd700" opacity="1.00" d=" M 737.80 294.90 C 739.30 293.86 739.84 291.91 740.87 290.45 C 741.82 291.71 742.69 293.05 743.78 294.22 C 745.39 295.01 747.31 294.67 749.07 294.94 C 748.43 296.54 747.78 298.14 747.14 299.74 C 748.07 301.33 749.01 302.94 749.92 304.56 C 748.06 304.66 746.15 304.53 744.37 305.08 C 743.37 306.44 742.56 307.92 741.69 309.36 C 740.62 307.96 739.60 306.52 738.62 305.07 C 736.75 304.99 734.89 304.97 733.03 304.96 C 733.77 303.33 734.65 301.76 735.09 300.02 C 734.44 298.33 733.48 296.79 732.66 295.19 C 734.36 295.10 736.09 295.11 737.80 294.90 Z" />
<path fill="#ffd700" opacity="1.00" d=" M 766.66 294.65 C 767.69 293.21 768.73 291.78 769.81 290.37 C 770.70 291.77 771.52 293.23 772.55 294.55 C 774.19 295.47 776.25 294.89 778.08 295.14 C 777.15 296.80 776.23 298.45 775.32 300.11 C 776.00 301.70 776.68 303.29 777.35 304.89 C 775.61 304.94 773.88 304.97 772.16 305.02 C 771.17 306.40 770.21 307.82 769.07 309.09 C 768.01 307.88 767.35 306.40 766.66 304.98 C 764.81 304.78 762.96 304.62 761.12 304.49 C 761.82 303.00 762.58 301.53 763.13 299.96 C 763.06 298.16 762.19 296.52 761.72 294.81 C 763.35 294.75 765.00 294.70 766.66 294.65 Z" />
<path fill="#ffd700" opacity="1.00" d=" M 795.89 298.36 C 797.23 297.19 798.56 296.00 799.92 294.83 C 800.26 295.88 800.63 296.92 801.01 297.97 C 801.50 300.75 804.96 300.43 807.03 301.28 C 805.74 302.65 804.43 303.99 803.15 305.35 C 803.62 307.19 804.12 309.01 804.66 310.84 C 802.87 310.45 801.07 309.75 799.23 310.00 C 797.77 310.92 796.51 312.09 795.17 313.16 C 794.63 311.55 794.12 309.95 793.62 308.34 C 791.99 307.81 790.37 307.27 788.77 306.73 C 789.77 305.38 790.81 304.06 791.89 302.76 C 791.53 300.95 791.16 299.15 790.83 297.34 C 792.51 297.69 794.19 298.02 795.89 298.36 Z" />
<path fill="#ffd700" opacity="1.00" d=" M 823.98 306.08 C 825.62 305.06 827.27 304.05 828.92 303.04 C 828.95 304.95 828.98 306.87 829.05 308.79 C 830.69 309.59 832.32 310.40 833.95 311.23 C 832.65 312.25 831.28 313.18 830.10 314.31 C 829.53 316.14 829.92 318.10 829.90 319.99 C 828.28 319.26 826.70 318.47 825.02 317.95 C 823.28 318.42 821.74 319.38 820.13 320.15 C 819.92 318.57 819.79 316.98 819.46 315.43 C 818.10 314.11 816.36 313.31 814.80 312.28 C 816.18 311.42 817.58 310.57 819.00 309.73 C 819.01 307.80 819.02 305.86 819.05 303.93 C 820.69 304.63 822.33 305.36 823.98 306.08 Z" />
</g>
<g id="#2b6b00b1">
<path fill="#2b6b00" opacity="0.69" d=" M 998.71 313.99 C 998.96 306.25 998.27 298.41 1000.00 290.79 L 1000.00 326.56 C 999.03 322.44 998.54 318.22 998.71 313.99 Z" />
</g>
<g id="#504a28ff">
<path fill="#504a28" opacity="1.00" d=" M 795.62 296.99 C 797.22 295.27 798.93 293.63 800.69 292.05 C 801.33 294.25 801.94 296.45 802.50 298.68 C 804.77 299.30 807.05 299.86 809.35 300.43 C 807.97 302.42 806.04 303.99 804.85 306.10 C 805.13 308.23 805.79 310.27 806.24 312.37 C 803.96 312.12 801.74 311.14 799.46 311.30 C 797.72 312.81 796.14 314.48 794.40 315.98 C 793.80 313.75 793.20 311.53 792.65 309.29 C 790.43 308.72 788.21 308.15 786.00 307.59 C 787.42 305.70 789.36 304.16 790.40 302.01 C 790.03 299.85 789.37 297.77 788.85 295.65 C 791.12 295.99 793.36 296.51 795.62 296.99 M 795.89 298.36 C 794.19 298.02 792.51 297.69 790.83 297.34 C 791.16 299.15 791.53 300.95 791.89 302.76 C 790.81 304.06 789.77 305.38 788.77 306.73 C 790.37 307.27 791.99 307.81 793.62 308.34 C 794.12 309.95 794.63 311.55 795.17 313.16 C 796.51 312.09 797.77 310.92 799.23 310.00 C 801.07 309.75 802.87 310.45 804.66 310.84 C 804.12 309.01 803.62 307.19 803.15 305.35 C 804.43 303.99 805.74 302.65 807.03 301.28 C 804.96 300.43 801.50 300.75 801.01 297.97 C 800.63 296.92 800.26 295.88 799.92 294.83 C 798.56 296.00 797.23 297.19 795.89 298.36 Z" />
</g>
<g id="#514a28ff">
<path fill="#514a28" opacity="1.00" d=" M 823.93 304.40 C 826.03 303.39 827.95 302.05 829.95 300.85 C 830.02 303.16 830.10 305.47 830.22 307.77 C 832.32 308.85 834.42 309.94 836.49 311.12 C 834.69 312.49 832.86 313.82 831.02 315.11 C 831.00 317.45 831.02 319.79 831.02 322.14 C 828.97 321.16 826.92 320.16 824.90 319.12 C 822.83 320.43 820.73 321.69 818.62 322.93 C 818.53 320.66 818.51 318.38 818.22 316.12 C 816.36 314.66 814.12 313.82 812.06 312.71 C 813.99 311.28 815.99 309.95 818.02 308.66 C 817.84 306.39 817.56 304.13 817.35 301.87 C 819.58 302.59 821.69 303.65 823.93 304.40 M 823.98 306.08 C 822.33 305.36 820.69 304.63 819.05 303.93 C 819.02 305.86 819.01 307.80 819.00 309.73 C 817.58 310.57 816.18 311.42 814.80 312.28 C 816.36 313.31 818.10 314.11 819.46 315.43 C 819.79 316.98 819.92 318.57 820.13 320.15 C 821.74 319.38 823.28 318.42 825.02 317.95 C 826.70 318.47 828.28 319.26 829.90 319.99 C 829.92 318.10 829.53 316.14 830.10 314.31 C 831.28 313.18 832.65 312.25 833.95 311.23 C 832.32 310.40 830.69 309.59 829.05 308.79 C 828.98 306.87 828.95 304.95 828.92 303.04 C 827.27 304.05 825.62 305.06 823.98 306.08 Z" />
</g>
<g id="#131313ff">
<path fill="#131313" opacity="1.00" d=" M 734.73 320.83 C 760.22 320.41 785.72 320.72 811.21 320.68 C 811.26 358.45 811.20 396.22 811.24 434.00 C 811.26 439.62 811.35 445.58 808.61 450.67 C 806.41 455.05 802.04 457.94 797.39 459.16 C 785.89 462.30 773.80 458.59 762.28 461.34 C 758.11 462.16 755.84 466.02 755.26 469.94 C 753.72 466.38 751.59 462.60 747.58 461.47 C 735.00 457.57 720.98 463.07 708.82 457.17 C 701.36 453.58 698.78 444.71 698.83 437.02 C 698.82 419.72 698.51 402.40 698.85 385.11 C 699.16 384.74 699.77 383.99 700.08 383.61 C 700.17 400.75 700.17 417.90 700.22 435.04 C 700.26 440.52 700.81 446.34 703.94 451.01 C 706.32 454.63 710.39 456.75 714.54 457.66 C 724.82 459.95 735.49 457.30 745.79 459.40 C 749.43 460.04 752.38 462.40 754.84 465.03 C 757.03 462.29 759.93 460.01 763.50 459.50 C 773.73 457.79 784.21 460.12 794.44 458.33 C 798.83 457.55 803.32 455.69 806.04 452.00 C 809.00 448.02 809.71 442.89 809.79 438.07 C 809.81 399.40 809.76 360.74 809.82 322.08 C 785.03 321.93 760.22 322.33 735.44 321.88 L 734.73 320.83 Z" />
</g>
<g id="#009a3bff">
<path fill="#009a3b" opacity="1.00" d=" M 748.40 333.41 C 750.90 328.42 757.81 329.37 761.34 332.65 C 763.52 334.31 764.06 337.10 764.50 339.64 C 767.21 340.20 769.64 341.57 771.18 343.93 C 773.84 343.17 776.18 341.80 778.20 339.92 C 780.99 338.59 783.64 340.90 784.63 343.40 C 786.45 343.82 788.74 343.51 790.01 345.19 C 790.17 346.50 790.24 347.82 790.23 349.15 C 792.37 349.30 794.77 348.98 796.66 350.25 C 798.56 351.55 798.28 354.14 798.75 356.14 C 800.93 357.28 803.89 358.27 804.39 361.05 C 804.94 363.38 803.09 365.16 801.58 366.61 C 799.97 368.03 799.06 370.06 797.44 371.45 C 794.92 372.97 791.89 371.68 789.19 372.25 C 786.54 373.20 783.97 375.03 781.02 374.43 C 778.38 374.03 776.91 371.55 774.88 370.12 C 772.74 369.99 770.60 370.10 768.48 370.13 C 767.35 368.97 766.25 367.82 765.10 366.72 C 763.62 364.64 761.19 366.00 759.19 366.23 C 757.40 366.39 755.59 366.31 753.82 366.07 C 753.33 365.83 752.34 365.37 751.85 365.14 C 750.87 365.76 749.89 366.38 748.92 367.01 C 747.07 367.80 746.48 369.74 745.80 371.45 C 745.35 373.64 742.76 373.07 741.15 373.38 C 740.88 375.42 741.39 378.11 739.33 379.38 C 737.34 380.79 734.61 380.64 732.68 379.21 C 730.13 377.34 726.99 376.77 724.18 375.44 C 722.90 376.76 721.80 378.62 719.85 378.95 C 717.35 379.63 715.45 377.52 713.36 376.61 C 711.61 375.57 709.01 375.31 708.41 373.05 C 709.22 370.98 711.60 370.84 713.42 370.22 C 714.45 368.50 715.60 366.42 717.99 366.82 C 721.74 367.26 724.20 363.95 726.21 361.29 C 725.67 359.69 724.66 358.06 725.18 356.32 C 726.07 355.11 727.38 354.33 728.59 353.46 C 728.73 352.08 728.87 350.71 729.07 349.34 C 730.28 349.06 731.51 348.78 732.74 348.52 C 733.46 346.49 733.45 343.60 736.03 343.05 C 738.64 342.27 740.42 340.20 742.41 338.46 C 742.50 336.96 742.64 335.46 742.85 333.97 C 744.69 333.72 746.54 333.55 748.40 333.41 Z" />
</g>
<g id="#70442aff">
<path fill="#70442a" opacity="1.00" d=" M 753.82 366.07 C 755.59 366.31 757.40 366.39 759.19 366.23 C 759.07 367.88 758.97 369.54 758.90 371.20 C 760.97 369.72 763.04 368.22 765.10 366.72 C 766.25 367.82 767.35 368.97 768.48 370.13 C 765.36 372.44 762.09 374.90 760.54 378.59 C 757.99 384.37 758.68 390.86 758.97 396.99 C 759.82 408.12 759.19 419.56 762.80 430.29 C 764.50 436.71 767.90 442.98 767.21 449.80 C 763.89 449.66 760.59 450.05 757.71 451.79 C 755.70 453.18 753.88 451.09 752.20 450.18 C 754.86 435.27 753.51 420.06 753.84 405.00 C 754.10 394.02 753.55 383.06 753.34 372.10 C 753.43 370.08 753.60 368.07 753.82 366.07 Z" />
</g>
<g id="#a26629ff">
<path fill="#a26629" opacity="1.00" d=" M 745.80 371.45 C 746.48 369.74 747.07 367.80 748.92 367.01 C 750.42 368.68 751.91 370.36 753.34 372.10 C 753.55 383.06 754.10 394.02 753.84 405.00 C 753.51 420.06 754.86 435.27 752.20 450.18 C 751.58 452.01 749.08 452.46 747.61 451.39 C 745.47 450.17 742.99 450.02 740.71 449.23 C 739.28 445.96 742.09 442.96 742.91 439.90 C 748.93 422.67 751.72 404.23 750.93 385.99 C 750.41 380.88 750.04 375.01 745.80 371.45 Z" />
</g>
<g id="#555555ff">
<path fill="#555555" opacity="1.00" d=" M 829.11 420.08 C 832.41 416.51 834.05 411.88 835.97 407.50 C 837.05 412.09 837.32 416.84 838.57 421.40 C 839.73 426.25 841.71 430.97 841.96 436.00 C 841.95 440.24 838.33 442.99 835.28 445.31 C 836.35 448.66 837.90 451.84 838.99 455.19 C 837.71 462.75 832.11 468.88 825.70 472.72 C 814.89 479.15 802.22 481.47 789.85 482.55 C 788.09 482.61 786.53 483.33 785.27 484.53 L 784.58 485.07 C 784.49 481.87 784.45 478.67 784.61 475.48 C 777.41 478.21 769.64 478.30 762.06 478.72 C 751.83 479.12 741.65 477.96 731.48 477.13 L 730.54 477.08 C 732.10 476.09 733.91 475.50 735.79 475.88 C 748.63 477.75 761.77 477.58 774.67 476.42 C 774.33 471.55 773.85 466.69 773.87 461.81 C 782.23 462.39 790.67 463.84 799.04 462.35 C 809.97 461.26 820.64 455.83 827.12 446.84 C 826.07 442.01 820.89 438.94 820.03 434.02 C 820.64 428.18 825.68 424.38 829.11 420.08 M 828.72 422.66 C 825.72 426.20 821.58 429.53 821.54 434.60 C 824.79 434.28 827.35 430.36 830.58 431.37 C 833.74 434.50 833.70 439.41 835.21 443.39 C 838.26 441.76 840.90 438.72 840.42 435.03 C 839.54 427.48 836.06 420.47 835.63 412.83 C 833.57 416.27 831.42 419.68 828.72 422.66 M 822.22 436.43 C 824.36 439.22 826.29 442.17 828.48 444.93 C 829.80 442.12 831.65 439.35 831.87 436.19 C 831.32 434.76 830.57 433.44 829.86 432.11 C 827.25 433.45 824.74 434.96 822.22 436.43 M 825.79 450.74 C 817.76 459.51 805.78 464.07 794.00 464.06 C 787.67 464.03 781.27 464.41 775.05 463.00 C 775.04 463.79 775.01 465.36 775.00 466.15 C 778.05 467.02 781.34 467.23 784.20 468.70 C 787.19 470.19 785.68 474.01 786.12 476.67 C 787.42 477.05 788.71 477.49 790.02 477.93 C 789.82 475.38 789.46 472.84 789.56 470.29 C 790.07 470.61 791.07 471.25 791.58 471.56 C 792.31 470.90 793.04 470.22 793.77 469.53 C 794.80 472.20 794.24 476.27 797.79 477.00 C 798.06 474.24 797.54 471.51 797.08 468.80 C 800.17 468.64 799.89 472.76 800.23 474.94 C 800.81 478.28 796.59 478.94 794.25 478.00 C 793.23 476.33 792.79 474.40 792.12 472.59 C 791.69 474.85 793.03 478.24 790.28 479.38 C 788.74 480.52 787.33 478.75 786.00 478.14 C 786.00 478.92 786.01 480.48 786.01 481.26 C 798.12 480.92 810.39 478.72 821.40 473.51 C 828.85 469.90 836.24 463.70 837.47 455.06 C 835.48 450.13 833.52 445.16 832.61 439.89 C 830.71 443.73 828.71 447.57 825.79 450.74 M 775.75 467.89 C 775.80 470.63 775.96 473.36 776.12 476.10 C 779.06 475.36 785.78 474.78 784.03 470.31 C 781.63 468.59 778.54 468.44 775.75 467.89 Z" />
</g>
<g id="#565756ff">
<path fill="#565756" opacity="1.00" d=" M 675.66 415.10 C 675.79 414.77 676.05 414.10 676.18 413.77 C 678.59 417.62 681.52 421.10 684.61 424.42 C 687.16 427.34 690.17 430.64 689.98 434.79 C 688.10 438.95 684.85 442.28 682.41 446.10 C 687.22 452.67 694.16 457.54 701.84 460.20 C 704.78 461.11 707.84 461.62 710.75 462.68 C 707.67 463.76 704.47 462.49 701.52 461.56 C 690.99 457.98 681.82 450.22 677.35 439.94 C 676.64 444.61 675.10 449.07 673.48 453.49 C 672.30 456.25 674.17 458.96 674.70 461.65 L 673.96 462.43 C 672.96 460.04 671.59 457.69 671.48 455.05 C 672.39 451.71 673.90 448.55 674.88 445.22 C 671.14 442.90 668.42 439.35 667.67 434.96 C 668.34 434.34 669.01 433.72 669.68 433.09 C 669.76 434.96 669.79 436.85 670.23 438.69 C 671.09 440.86 673.20 442.11 674.97 443.48 C 676.22 439.36 675.94 434.28 679.32 431.15 C 682.63 431.11 685.37 433.85 688.56 434.65 C 687.53 426.32 678.83 422.40 675.66 415.10 M 680.07 432.12 C 679.21 433.64 677.72 435.07 678.00 436.97 C 678.59 439.82 680.19 442.30 681.46 444.88 C 683.55 442.06 685.59 439.19 687.79 436.45 C 685.20 435.03 682.65 433.54 680.07 432.12 Z" />
</g>
<g id="#292929ff">
<path fill="#292929" opacity="1.00" d=" M 826.89 453.68 C 829.80 455.20 833.17 456.13 835.46 458.61 C 834.06 458.69 832.69 458.87 831.35 459.14 C 829.84 460.22 830.23 462.20 829.86 463.78 C 827.67 461.51 826.76 458.26 826.19 455.26 C 826.36 454.87 826.72 454.08 826.89 453.68 M 828.22 456.46 C 827.45 457.63 829.25 459.67 830.38 458.43 C 831.42 457.22 829.28 455.63 828.22 456.46 Z" />
</g>
<g id="#2d2d2dff">
<path fill="#2d2d2d" opacity="1.00" d=" M 678.64 460.97 C 680.36 458.38 682.02 455.20 685.40 454.62 C 684.21 457.01 682.54 459.11 680.69 461.00 C 680.17 460.99 679.15 460.98 678.64 460.97 Z" />
</g>
<g id="#fffffeff">
<path fill="#fffffe" opacity="1.00" d=" M 828.22 456.46 C 829.28 455.63 831.42 457.22 830.38 458.43 C 829.25 459.67 827.45 457.63 828.22 456.46 Z" />
<path fill="#fffffe" opacity="1.00" d=" M 754.30 484.37 C 755.78 483.19 757.12 485.89 755.83 486.85 C 754.28 488.05 752.89 485.33 754.30 484.37 Z" />
<path fill="#fffffe" opacity="1.00" d=" M 763.59 489.34 C 762.49 488.00 763.56 486.45 764.95 485.96 C 765.77 487.56 765.32 488.68 763.59 489.34 Z" />
<path fill="#fffffe" opacity="1.00" d=" M 646.33 500.06 C 647.24 500.24 648.16 500.44 649.08 500.66 C 649.45 502.59 649.97 504.48 650.59 506.34 C 649.13 506.21 647.67 506.05 646.23 505.88 C 646.19 503.93 646.23 501.99 646.33 500.06 Z" />
</g>
<g id="#343434ff">
<path fill="#343434" opacity="1.00" d=" M 822.57 456.85 C 825.11 459.13 827.89 461.82 828.30 465.39 C 825.96 464.55 824.74 462.30 823.24 460.51 C 821.67 461.62 819.76 461.94 817.96 462.44 C 818.35 464.07 818.73 465.85 820.19 466.92 C 822.72 467.71 822.57 463.61 825.11 463.79 C 824.67 465.68 824.37 468.26 821.99 468.61 C 817.93 469.71 815.31 464.63 817.04 461.35 C 818.14 459.50 820.43 460.06 822.23 459.88 C 822.31 459.12 822.48 457.60 822.57 456.85 Z" />
</g>
<g id="#3a3a3aff">
<path fill="#3a3a3a" opacity="1.00" d=" M 684.31 461.90 C 685.65 460.26 687.18 458.77 688.93 457.57 C 688.72 459.64 687.69 461.47 685.82 462.47 L 684.31 461.90 Z" />
</g>
<g id="#181c14ff">
<path fill="#181c14" opacity="1.00" d=" M 687.48 462.47 C 688.49 461.31 689.60 460.24 690.84 459.31 C 690.99 461.60 691.02 463.89 691.00 466.19 C 692.28 464.75 693.61 463.35 695.23 462.28 C 694.60 464.84 693.11 467.04 691.84 469.31 C 690.38 467.03 689.05 464.67 687.48 462.47 Z" />
</g>
<g id="#515150ff">
<path fill="#515150" opacity="1.00" d=" M 719.52 462.74 C 725.34 463.40 731.09 461.89 736.91 461.90 C 736.78 464.83 736.64 467.80 735.77 470.63 L 735.17 471.66 C 735.10 470.74 734.96 468.91 734.89 468.00 C 733.33 468.00 731.78 468.00 730.24 467.99 L 731.20 467.31 C 732.44 467.01 733.70 466.74 734.96 466.48 C 735.11 465.36 735.25 464.25 735.40 463.15 C 729.57 464.13 723.64 464.20 717.75 463.98 C 718.19 463.67 719.08 463.05 719.52 462.74 Z" />
</g>
<g id="#2f2f2fff">
<path fill="#2f2f2f" opacity="1.00" d=" M 806.10 467.92 C 807.74 464.87 811.79 464.73 814.57 463.07 C 815.92 465.79 817.59 468.39 818.35 471.37 C 815.43 470.80 814.95 467.46 813.68 465.26 C 812.77 465.59 811.88 465.92 810.99 466.25 C 811.47 468.80 814.23 471.50 812.27 473.96 C 811.04 471.86 810.05 469.66 809.10 467.43 C 808.35 467.56 806.85 467.80 806.10 467.92 Z" />
</g>
<g id="#1e1e1eff">
<path fill="#1e1e1e" opacity="1.00" d=" M 692.59 471.37 C 693.73 468.47 694.73 465.14 697.56 463.43 C 697.05 466.86 695.32 469.92 693.22 472.63 L 692.59 471.37 Z" />
</g>
<g id="#2c2c2cff">
<path fill="#2c2c2c" opacity="1.00" d=" M 698.43 464.74 C 700.77 465.50 704.26 466.14 704.54 469.16 C 704.41 471.40 703.41 474.36 700.86 474.74 C 698.93 474.70 697.15 473.77 695.37 473.17 C 696.37 470.35 697.45 467.56 698.43 464.74 M 699.93 466.75 C 699.17 468.66 698.48 470.59 697.93 472.58 C 698.71 472.69 700.26 472.92 701.03 473.03 C 701.66 471.58 702.25 470.12 702.77 468.64 C 701.83 467.99 700.88 467.36 699.93 466.75 Z" />
</g>
<g id="#101210ff">
<path fill="#101210" opacity="1.00" d=" M 706.81 469.92 C 707.37 468.88 708.31 467.84 709.62 468.02 C 710.64 469.44 707.38 471.88 706.81 469.92 Z" />
</g>
<g id="#f1f3efff">
<path fill="#f1f3ef" opacity="1.00" d=" M 730.24 467.99 C 731.78 468.00 733.33 468.00 734.89 468.00 C 734.96 468.91 735.10 470.74 735.17 471.66 C 733.29 470.76 731.63 469.51 730.24 467.99 Z" />
</g>
<g id="#272727ff">
<path fill="#272727" opacity="1.00" d=" M 800.83 471.86 C 798.22 468.26 805.41 465.20 806.79 469.16 C 805.25 469.20 803.72 469.22 802.20 469.23 C 802.20 469.60 802.19 470.35 802.18 470.73 C 803.71 470.79 805.26 470.80 806.80 471.02 C 808.31 471.71 807.95 473.52 808.18 474.86 C 805.83 476.25 802.17 477.15 800.88 473.95 C 802.45 474.14 804.03 474.44 805.61 474.71 C 805.72 474.23 805.94 473.26 806.05 472.77 C 804.30 472.53 802.42 472.73 800.83 471.86 Z" />
</g>
<g id="#c6d5bcff">
<path fill="#c6d5bc" opacity="1.00" d=" M 694.25 477.22 C 694.80 477.79 694.80 477.79 694.25 477.22 Z" />
</g>
<g id="#30302fff">
<path fill="#30302f" opacity="1.00" d=" M 754.30 481.23 C 754.69 481.17 755.46 481.04 755.85 480.97 C 757.44 483.51 758.34 486.39 759.43 489.17 C 761.02 487.29 762.58 485.38 764.14 483.48 C 762.58 482.93 761.06 482.33 759.65 481.49 C 762.44 481.08 765.28 481.07 768.11 481.26 C 767.40 482.53 766.67 483.80 765.88 485.03 C 765.65 485.26 765.18 485.73 764.95 485.96 C 763.56 486.45 762.49 488.00 763.59 489.34 C 763.74 489.71 764.05 490.45 764.21 490.82 C 760.85 491.17 757.84 489.97 755.09 488.20 C 753.47 488.85 752.03 489.88 750.50 490.70 C 751.51 487.45 752.51 484.15 754.30 481.23 M 754.30 484.37 C 752.89 485.33 754.28 488.05 755.83 486.85 C 757.12 485.89 755.78 483.19 754.30 484.37 Z" />
</g>
<g id="#232622ff">
<path fill="#232622" opacity="1.00" d=" M 743.73 481.52 C 744.49 481.35 746.03 481.00 746.79 480.83 C 746.58 481.95 746.14 484.19 745.92 485.31 C 746.70 485.23 748.27 485.08 749.05 485.00 C 748.42 483.65 747.81 482.30 747.21 480.96 C 748.18 481.25 750.12 481.82 751.08 482.11 C 750.87 483.49 750.77 484.92 750.28 486.26 C 748.82 486.83 747.28 487.11 745.78 487.47 C 745.28 487.57 744.30 487.79 743.81 487.89 L 743.75 486.92 C 743.65 485.12 743.58 483.31 743.73 481.52 Z" />
</g>
<g id="#3e9a00fe">
<path fill="#3e9a00" opacity="1.00" d=" M 679.08 484.75 C 681.14 485.66 681.90 487.70 682.23 489.78 C 681.11 490.28 679.98 490.77 678.86 491.24 C 678.52 489.07 678.57 486.88 679.08 484.75 Z" />
</g>
<g id="#4d4f4bff">
<path fill="#4d4f4b" opacity="1.00" d=" M 750.80 493.99 C 755.25 494.01 759.70 493.83 764.15 493.44 C 764.18 493.84 764.26 494.64 764.30 495.04 C 760.83 495.00 757.37 495.08 753.92 495.00 C 752.82 494.85 751.78 494.51 750.80 493.99 Z" />
</g>
<g id="#7c120d8b">
<path fill="#7c120d" opacity="0.55" d=" M 659.33 520.09 C 662.32 518.55 659.48 523.40 659.33 520.09 Z" />
</g>
<g id="#0073cefe">
<path fill="#0073ce" opacity="1.00" d=" M 0.81 906.83 C 0.20 905.44 1.09 903.66 2.76 904.22 C 5.92 906.28 5.98 910.63 5.23 913.95 C 4.39 913.92 2.70 913.87 1.86 913.84 C 1.83 911.46 1.59 909.09 0.81 906.83 Z" />
</g>
</svg>
