<?xml version="1.0" encoding="UTF-8" ?>
<!DOCTYPE svg PUBLIC "-//W3C//DTD SVG 1.1//EN" "http://www.w3.org/Graphics/SVG/1.1/DTD/svg11.dtd">
<svg width="1000pt" height="1307pt" viewBox="0 0 1000 1307" version="1.1" xmlns="http://www.w3.org/2000/svg">
<g id="#3e5eb9ff">
<path fill="#3e5eb9" opacity="1.00" d=" M 454.08 5.00 C 457.58 4.96 460.28 2.75 463.05 0.94 C 465.83 0.59 469.19 -0.91 471.53 1.38 C 484.01 10.26 496.73 18.81 509.12 27.80 C 516.71 34.12 525.21 39.16 533.50 44.49 C 536.28 46.05 537.67 49.07 539.69 51.41 C 541.19 51.04 542.93 50.64 544.20 51.86 C 547.39 53.97 550.55 56.14 553.75 58.26 C 556.72 60.36 560.77 59.92 563.61 62.30 C 567.89 64.66 569.56 69.73 573.69 72.25 C 585.16 80.12 596.60 88.06 608.05 95.97 C 613.00 99.68 616.80 106.33 623.58 106.44 C 653.05 124.95 680.32 146.75 709.83 165.21 C 719.95 171.62 729.39 179.01 739.28 185.76 C 742.27 187.72 744.19 190.99 747.46 192.57 C 755.10 196.82 762.86 200.93 769.92 206.12 C 779.69 214.25 790.62 220.83 801.04 228.09 C 806.49 225.43 811.87 222.61 816.55 218.70 C 818.08 216.81 820.33 217.85 822.24 218.42 C 843.56 209.94 863.50 198.39 884.81 189.91 C 890.03 200.43 895.60 210.78 901.15 221.13 C 906.79 223.07 912.38 225.17 918.06 226.98 C 923.22 227.07 928.12 228.88 933.15 229.86 C 937.00 230.42 940.15 233.11 944.11 233.29 C 947.19 233.03 948.90 236.56 951.95 236.07 C 955.73 235.76 959.43 236.73 962.98 237.94 C 964.20 240.00 963.75 242.74 964.32 245.06 C 718.72 245.06 473.12 245.07 227.51 245.05 C 228.70 241.91 229.30 238.42 231.75 235.94 C 235.21 229.63 238.73 223.31 241.92 216.86 C 243.72 209.64 245.64 202.39 246.91 195.05 C 246.76 185.25 251.30 176.33 253.26 166.91 C 253.02 161.67 257.45 158.06 259.84 153.82 C 264.81 149.06 271.17 145.92 276.05 141.01 C 279.82 137.14 283.85 133.53 287.97 130.04 C 307.43 113.43 326.23 96.02 346.47 80.35 C 354.59 72.79 359.29 62.51 365.45 53.45 C 369.39 46.29 375.40 40.66 380.31 34.21 C 383.91 29.26 386.42 23.07 391.99 19.97 C 395.04 19.50 398.27 19.69 401.08 18.22 C 409.63 14.18 419.18 12.50 428.57 12.49 C 431.56 11.19 434.18 9.16 437.18 7.88 C 442.67 6.20 448.33 5.15 454.08 5.00 Z" />
<path fill="#3e5eb9" opacity="1.00" d=" M 139.09 1062.02 C 150.73 1061.71 162.39 1061.97 174.03 1061.88 C 408.87 1061.90 643.71 1061.86 878.55 1061.90 C 877.01 1076.36 873.42 1090.48 871.57 1104.89 C 870.47 1113.94 868.55 1122.89 867.99 1132.02 C 867.93 1135.70 866.38 1139.24 866.88 1142.95 C 867.91 1159.30 869.03 1175.65 869.92 1192.01 C 870.40 1198.64 869.66 1205.30 870.44 1211.92 C 872.30 1229.16 872.76 1246.53 874.27 1263.78 C 876.79 1268.48 879.83 1272.89 882.64 1277.44 C 884.15 1280.12 886.75 1282.64 886.32 1285.98 C 886.06 1292.80 887.89 1299.46 888.35 1306.24 C 886.79 1306.47 885.27 1306.78 883.73 1307.00 L 880.32 1307.00 C 867.23 1306.45 854.11 1306.56 841.02 1306.27 C 817.04 1305.64 793.06 1306.63 769.08 1306.80 C 758.58 1306.57 748.08 1306.01 737.59 1305.85 C 731.49 1307.29 725.23 1306.69 719.04 1306.73 C 711.03 1306.67 703.02 1306.60 695.01 1306.55 C 686.61 1306.31 678.07 1307.25 669.95 1304.62 C 662.82 1306.66 655.33 1306.13 648.00 1306.34 C 637.99 1305.19 627.89 1306.32 617.87 1305.82 C 614.29 1304.39 610.67 1305.88 607.02 1305.96 C 592.33 1305.92 577.64 1305.25 562.96 1305.92 C 551.95 1306.49 540.95 1305.78 529.94 1305.65 C 526.32 1305.94 523.43 1303.27 519.95 1302.83 C 517.64 1302.30 514.97 1302.53 513.13 1300.80 C 510.34 1298.58 506.70 1298.11 503.52 1296.70 C 501.14 1295.79 499.92 1292.97 497.24 1292.70 C 477.41 1288.63 459.35 1278.92 439.93 1273.44 C 430.91 1271.23 423.14 1265.55 414.09 1263.52 C 409.27 1263.47 405.25 1260.71 400.99 1258.86 C 397.53 1257.24 393.96 1255.89 390.43 1254.46 C 387.12 1252.96 383.39 1253.88 379.95 1253.10 C 377.62 1250.91 374.76 1249.70 371.59 1249.31 C 370.68 1248.30 369.94 1247.02 368.56 1246.64 C 355.08 1241.55 341.56 1236.58 328.08 1231.51 C 325.63 1230.41 322.78 1231.88 320.41 1230.59 C 316.31 1228.56 312.35 1226.17 307.93 1224.90 C 296.66 1221.29 285.80 1216.58 274.87 1212.08 C 268.90 1209.95 264.63 1204.93 260.87 1200.06 C 259.77 1198.65 260.02 1196.60 258.73 1195.31 C 253.52 1188.84 248.39 1182.31 243.21 1175.81 C 238.49 1170.19 234.49 1163.93 228.99 1159.02 C 220.95 1148.10 213.18 1136.92 204.53 1126.47 C 192.89 1117.21 181.60 1107.46 171.42 1096.59 C 163.21 1088.12 154.91 1079.74 146.74 1071.24 C 144.68 1067.77 142.03 1064.77 139.09 1062.02 Z" />
</g>
<g id="#ffd900ff">
<path fill="#ffd900" opacity="1.00" d=" M 227.51 245.05 C 473.12 245.07 718.72 245.06 964.32 245.06 C 965.80 255.69 967.25 266.32 968.72 276.96 C 971.39 293.45 971.15 310.24 973.73 326.75 C 711.36 326.79 449.00 326.78 186.63 326.76 C 191.69 318.09 195.32 308.52 201.75 300.73 C 204.86 295.05 205.42 288.24 208.60 282.60 C 213.10 277.36 214.07 270.27 216.99 264.19 C 220.35 257.73 224.32 251.59 227.51 245.05 Z" />
<path fill="#ffd900" opacity="1.00" d=" M 41.74 539.81 C 47.02 534.14 52.24 528.39 56.74 522.07 C 56.51 522.66 56.06 523.83 55.83 524.41 C 90.95 524.48 126.08 524.38 161.21 524.46 C 156.23 529.11 151.04 533.51 146.14 538.23 C 145.27 539.01 144.36 540.06 143.04 539.83 C 109.27 539.82 75.50 539.87 41.74 539.81 Z" />
<path fill="#ffd900" opacity="1.00" d=" M 846.91 524.40 C 882.82 524.47 918.72 524.43 954.63 524.42 C 955.00 529.56 955.50 534.69 956.00 539.83 C 924.77 539.82 893.53 539.88 862.29 539.79 C 857.29 534.53 851.82 529.74 846.91 524.40 Z" />
<path fill="#ffd900" opacity="1.00" d=" M 19.67 593.41 C 21.50 589.03 23.55 584.75 25.45 580.41 C 50.99 580.53 76.53 580.46 102.07 580.44 C 97.16 585.70 92.15 590.98 86.83 595.77 C 66.87 595.92 46.91 595.79 26.95 595.84 C 24.66 595.95 22.21 595.32 20.08 596.46 C 19.95 595.44 19.82 594.42 19.67 593.41 Z" />
<path fill="#ffd900" opacity="1.00" d=" M 901.16 580.47 C 921.88 580.43 942.60 580.53 963.32 580.42 C 965.11 585.60 967.39 590.59 969.57 595.62 C 951.47 596.10 933.32 595.73 915.20 595.80 C 910.54 590.68 905.84 585.58 901.16 580.47 Z" />
<path fill="#ffd900" opacity="1.00" d=" M 10.62 641.25 C 21.38 641.31 32.14 641.20 42.90 641.31 C 38.97 645.29 34.94 649.18 31.11 653.25 L 31.12 653.76 C 34.96 657.85 39.04 661.73 42.94 665.76 C 30.63 665.78 18.32 665.75 6.01 665.78 C 7.56 657.60 9.12 649.43 10.62 641.25 Z" />
<path fill="#ffd900" opacity="1.00" d=" M 957.27 641.43 C 967.71 640.84 978.23 641.81 988.65 640.93 C 992.28 649.14 995.58 657.51 999.05 665.80 C 985.12 665.71 971.19 665.82 957.26 665.75 C 961.06 661.58 965.10 657.64 969.09 653.65 C 965.38 649.36 961.19 645.51 957.27 641.43 Z" />
<path fill="#ffd900" opacity="1.00" d=" M 140.99 980.25 C 391.15 980.33 641.32 980.19 891.48 980.32 C 892.14 984.25 895.80 987.08 897.41 990.75 C 891.06 1009.63 886.22 1029.00 880.55 1048.08 C 879.83 1052.67 879.20 1057.29 878.55 1061.90 C 643.71 1061.86 408.87 1061.90 174.03 1061.88 C 162.39 1061.97 150.73 1061.71 139.09 1062.02 C 138.24 1061.10 137.26 1060.27 136.63 1059.19 C 134.01 1053.37 131.38 1047.46 130.68 1041.04 C 135.11 1031.86 141.01 1023.20 142.89 1013.01 C 144.58 1007.47 144.33 1001.70 144.18 996.00 C 144.52 990.54 142.24 985.45 140.99 980.25 Z" />
</g>
<g id="#b10c0cff">
<path fill="#b10c0c" opacity="1.00" d=" M 157.45 387.35 C 166.61 366.88 176.54 346.77 186.63 326.76 C 449.00 326.78 711.36 326.79 973.73 326.75 C 975.03 337.21 976.06 347.69 977.36 358.15 C 977.76 361.44 979.12 364.75 977.96 368.04 C 975.69 376.64 975.09 385.78 971.11 393.85 C 963.78 411.19 956.17 428.43 949.02 445.85 C 950.72 470.97 952.61 496.10 954.40 521.22 C 917.92 521.10 881.44 521.21 844.95 521.17 C 842.95 521.45 841.77 519.65 840.45 518.53 C 791.30 471.96 735.50 431.36 672.63 405.44 C 630.11 387.78 584.78 377.00 538.90 373.35 C 493.76 369.52 447.93 372.57 404.01 383.93 C 360.61 394.95 319.24 413.13 280.69 435.78 C 239.24 460.01 201.14 489.54 164.97 520.99 C 129.14 521.36 93.27 521.16 57.43 521.09 C 60.91 516.66 64.30 512.17 67.73 507.71 C 71.06 502.93 73.46 497.58 76.69 492.74 C 82.07 486.42 88.69 481.13 93.16 474.08 C 96.10 469.80 100.27 466.60 103.74 462.79 C 116.79 447.84 129.21 432.24 142.48 417.55 C 145.34 411.35 148.52 405.29 151.08 398.96 C 152.13 394.54 155.84 391.52 157.45 387.35 Z" />
<path fill="#b10c0c" opacity="1.00" d=" M 33.74 555.75 C 35.60 551.33 37.35 546.85 39.36 542.50 C 40.50 542.99 41.69 543.21 42.94 543.16 C 75.47 543.12 108.01 543.11 140.54 543.16 C 129.38 554.11 117.90 564.75 106.92 575.88 C 105.99 577.11 104.44 577.26 103.02 577.19 C 77.60 577.12 52.18 577.22 26.76 577.14 C 29.55 570.16 31.21 562.81 33.74 555.75 Z" />
<path fill="#b10c0c" opacity="1.00" d=" M 865.88 543.16 C 896.01 543.07 926.15 543.20 956.29 543.10 C 956.76 549.73 958.34 556.28 957.54 562.96 C 958.39 567.84 960.68 572.40 962.17 577.13 C 940.77 577.15 919.36 577.28 897.96 577.07 C 887.50 565.55 876.54 554.49 865.88 543.16 Z" />
<path fill="#b10c0c" opacity="1.00" d=" M 970.11 597.02 C 975.79 610.62 981.46 624.23 987.32 637.76 C 976.30 637.70 965.27 637.88 954.26 637.68 C 951.66 636.11 949.95 633.36 947.76 631.28 C 937.96 620.63 927.97 610.14 918.53 599.18 C 935.88 599.04 953.23 599.22 970.58 599.10 C 970.46 598.58 970.23 597.54 970.11 597.02 Z" />
<path fill="#b10c0c" opacity="1.00" d=" M 18.98 599.10 C 40.61 599.20 62.25 599.06 83.88 599.18 C 71.85 611.42 59.91 623.75 47.98 636.09 C 47.16 636.83 46.35 637.98 45.07 637.75 C 33.81 637.79 22.54 637.75 11.27 637.76 C 12.25 632.82 13.14 627.86 14.07 622.90 C 14.44 619.99 17.21 617.98 17.17 614.96 C 17.75 609.67 18.40 604.39 18.98 599.10 Z" />
<path fill="#b10c0c" opacity="1.00" d=" M 1.26 690.94 C 3.15 683.01 4.34 674.93 5.83 666.91 C 5.79 667.50 5.71 668.69 5.68 669.28 C 19.28 669.50 32.96 668.94 46.52 669.55 C 78.70 702.33 110.31 735.76 144.12 766.90 C 196.78 815.78 254.34 860.43 319.28 891.82 C 356.19 909.68 395.43 922.97 435.91 929.78 C 465.62 934.88 495.90 936.17 525.98 934.50 C 581.56 931.64 636.64 918.41 687.25 895.17 C 723.53 878.65 757.48 857.28 788.93 832.83 C 819.52 809.08 847.79 782.47 874.66 754.61 C 901.29 727.17 926.44 698.34 952.65 670.50 C 953.87 668.75 956.17 669.40 957.98 669.27 C 971.86 669.43 985.75 669.09 999.63 669.45 C 998.57 672.50 999.23 675.81 999.08 678.98 C 999.27 683.22 998.32 687.59 999.74 691.70 C 999.33 706.78 999.59 721.86 999.24 736.93 C 999.16 740.83 998.95 744.80 1000.00 748.60 L 1000.00 763.72 C 998.45 777.45 999.07 791.28 999.04 805.07 C 998.96 811.45 1000.72 817.99 998.59 824.19 C 997.88 853.76 997.80 883.35 996.94 912.93 C 993.40 910.69 989.32 909.81 985.36 908.72 C 983.93 906.11 981.89 903.85 980.71 901.12 C 980.55 899.20 980.61 897.28 980.64 895.37 C 978.43 892.49 974.89 891.32 971.95 889.43 C 965.97 890.80 960.24 893.32 954.07 893.76 C 949.86 893.91 946.29 896.75 941.96 896.10 C 936.29 897.32 931.44 893.32 925.99 892.82 C 919.92 892.96 913.85 892.96 907.78 893.10 C 906.48 898.65 904.17 904.19 905.73 909.96 C 901.09 933.39 895.80 956.79 891.48 980.32 C 641.32 980.19 391.15 980.33 140.99 980.25 C 139.44 976.32 136.82 972.92 134.50 969.44 C 121.11 957.89 108.48 945.48 95.39 933.58 C 94.22 932.47 92.91 931.44 92.10 930.04 C 90.04 926.16 87.35 922.40 87.25 917.84 C 86.87 911.30 84.27 905.24 82.72 898.96 C 82.75 889.98 83.30 880.99 82.91 872.02 C 79.68 876.08 76.14 879.89 73.14 884.14 C 70.09 888.69 65.98 892.41 61.91 896.02 C 58.17 897.06 54.30 897.50 50.53 898.41 C 48.69 898.66 48.15 900.74 47.09 902.00 C 43.98 906.20 41.71 911.28 37.18 914.21 C 32.89 916.63 28.04 918.29 23.14 916.72 C 20.30 912.54 17.12 908.53 14.65 904.14 C 12.10 890.82 9.73 877.44 7.47 864.07 C 6.50 849.28 4.32 834.61 2.62 819.90 C 2.14 812.92 3.13 805.96 3.01 798.99 C 2.62 791.31 1.33 783.68 1.40 775.98 C 1.30 759.67 1.17 743.36 1.13 727.06 C 1.10 722.90 0.62 718.77 0.00 714.67 L 0.00 709.13 C 0.62 703.08 0.34 696.96 1.26 690.94 Z" />
</g>
<g id="#000000ff">
<path fill="#000000" opacity="1.00" d=" M 404.01 383.93 C 447.93 372.57 493.76 369.52 538.90 373.35 C 584.78 377.00 630.11 387.78 672.63 405.44 C 735.50 431.36 791.30 471.96 840.45 518.53 C 841.77 519.65 842.95 521.45 844.95 521.17 C 881.44 521.21 917.92 521.10 954.40 521.22 C 954.46 522.02 954.58 523.62 954.63 524.42 C 918.72 524.43 882.82 524.47 846.91 524.40 C 851.82 529.74 857.29 534.53 862.29 539.79 C 893.53 539.88 924.77 539.82 956.00 539.83 C 956.08 540.64 956.22 542.28 956.29 543.10 C 926.15 543.20 896.01 543.07 865.88 543.16 C 876.54 554.49 887.50 565.55 897.96 577.07 C 919.36 577.28 940.77 577.15 962.17 577.13 C 962.54 578.22 962.92 579.32 963.32 580.42 C 942.60 580.53 921.88 580.43 901.16 580.47 C 905.84 585.58 910.54 590.68 915.20 595.80 C 933.32 595.73 951.47 596.10 969.57 595.62 C 969.70 595.97 969.98 596.67 970.11 597.02 C 970.23 597.54 970.46 598.58 970.58 599.10 C 953.23 599.22 935.88 599.04 918.53 599.18 C 927.97 610.14 937.96 620.63 947.76 631.28 C 949.95 633.36 951.66 636.11 954.26 637.68 C 965.27 637.88 976.30 637.70 987.32 637.76 C 987.75 638.81 988.19 639.86 988.65 640.93 C 978.23 641.81 967.71 640.84 957.27 641.43 C 961.19 645.51 965.38 649.36 969.09 653.65 C 965.10 657.64 961.06 661.58 957.26 665.75 C 971.19 665.82 985.12 665.71 999.05 665.80 C 999.20 666.71 999.48 668.54 999.63 669.45 C 985.75 669.09 971.86 669.43 957.98 669.27 C 956.17 669.40 953.87 668.75 952.65 670.50 C 926.44 698.34 901.29 727.17 874.66 754.61 C 847.79 782.47 819.52 809.08 788.93 832.83 C 757.48 857.28 723.53 878.65 687.25 895.17 C 636.64 918.41 581.56 931.64 525.98 934.50 C 495.90 936.17 465.62 934.88 435.91 929.78 C 395.43 922.97 356.19 909.68 319.28 891.82 C 254.34 860.43 196.78 815.78 144.12 766.90 C 110.31 735.76 78.70 702.33 46.52 669.55 C 32.96 668.94 19.28 669.50 5.68 669.28 C 5.71 668.69 5.79 667.50 5.83 666.91 L 6.01 665.78 C 18.32 665.75 30.63 665.78 42.94 665.76 C 39.04 661.73 34.96 657.85 31.12 653.76 L 31.11 653.25 C 34.94 649.18 38.97 645.29 42.90 641.31 C 32.14 641.20 21.38 641.31 10.62 641.25 C 10.83 640.08 11.05 638.92 11.27 637.76 C 22.54 637.75 33.81 637.79 45.07 637.75 C 46.35 637.98 47.16 636.83 47.98 636.09 C 59.91 623.75 71.85 611.42 83.88 599.18 C 62.25 599.06 40.61 599.20 18.98 599.10 C 19.09 597.07 19.12 595.03 19.23 593.01 L 19.67 593.41 C 19.82 594.42 19.95 595.44 20.08 596.46 C 22.21 595.32 24.66 595.95 26.95 595.84 C 46.91 595.79 66.87 595.92 86.83 595.77 C 92.15 590.98 97.16 585.70 102.07 580.44 C 76.53 580.46 50.99 580.53 25.45 580.41 C 25.90 579.31 26.34 578.23 26.76 577.14 C 52.18 577.22 77.60 577.12 103.02 577.19 C 104.44 577.26 105.99 577.11 106.92 575.88 C 117.90 564.75 129.38 554.11 140.54 543.16 C 108.01 543.11 75.47 543.12 42.94 543.16 C 41.69 543.21 40.50 542.99 39.36 542.50 C 40.13 541.58 40.92 540.68 41.74 539.81 C 75.50 539.87 109.27 539.82 143.04 539.83 C 144.36 540.06 145.27 539.01 146.14 538.23 C 151.04 533.51 156.23 529.11 161.21 524.46 C 126.08 524.38 90.95 524.48 55.83 524.41 C 56.06 523.83 56.51 522.66 56.74 522.07 C 56.92 521.83 57.26 521.33 57.43 521.09 C 93.27 521.16 129.14 521.36 164.97 520.99 C 201.14 489.54 239.24 460.01 280.69 435.78 C 319.24 413.13 360.61 394.95 404.01 383.93 M 498.14 375.14 C 483.78 389.64 470.57 405.92 462.89 425.02 C 458.33 436.51 456.43 449.90 461.60 461.52 C 464.53 468.76 470.72 473.84 474.67 480.44 C 478.45 486.29 480.74 492.99 481.80 499.85 C 482.39 503.34 483.07 507.54 486.54 509.38 C 493.88 513.18 503.26 510.42 510.00 515.84 C 517.45 521.31 516.49 532.00 522.55 538.44 C 525.64 541.70 530.30 542.11 534.50 542.59 C 538.92 544.38 539.42 549.97 540.06 554.07 C 541.42 570.00 539.52 586.01 540.32 601.97 C 540.84 610.80 541.61 620.06 546.04 627.93 C 550.14 634.37 555.92 640.33 563.48 642.43 C 566.90 643.53 570.67 643.36 573.95 644.92 C 576.64 646.64 576.85 650.24 576.81 653.12 C 576.51 658.01 572.25 661.23 568.54 663.78 C 561.05 668.77 553.04 673.24 546.84 679.89 C 539.71 687.25 535.31 696.97 533.64 707.03 C 532.06 715.11 533.52 723.83 529.56 731.38 C 524.26 742.48 512.87 748.30 503.51 755.44 C 498.82 759.00 494.27 763.81 493.87 770.00 C 493.56 772.94 495.47 775.51 497.51 777.43 C 501.32 780.91 506.00 783.23 510.63 785.43 C 521.99 790.63 533.90 794.50 545.37 799.47 C 550.30 801.64 555.31 803.91 559.49 807.38 C 561.45 809.06 563.40 811.31 563.21 814.08 C 562.82 817.47 559.54 819.39 556.78 820.78 C 549.58 824.07 541.72 825.45 534.02 827.06 C 520.63 829.78 506.95 831.54 493.98 836.01 C 489.33 837.85 483.81 840.00 481.85 845.04 C 480.91 848.16 483.84 850.57 486.09 852.16 C 493.43 856.97 501.79 859.87 509.89 863.09 C 531.41 871.48 553.60 879.11 572.81 892.25 C 583.28 899.45 593.11 909.19 596.13 921.95 C 633.19 914.02 669.16 901.15 702.93 883.96 C 740.74 864.82 775.74 840.44 808.04 813.07 C 837.05 788.58 863.87 761.62 889.79 733.92 C 914.76 707.12 939.03 679.64 964.48 653.30 C 937.17 625.98 912.11 596.54 885.52 568.54 C 844.87 525.25 801.31 484.15 751.58 451.38 C 717.83 429.05 681.36 410.68 642.94 397.85 C 596.40 382.21 547.20 374.79 498.14 375.14 M 299.06 470.99 C 290.81 483.76 284.32 497.88 281.40 512.87 C 286.68 509.29 291.52 505.03 297.10 501.87 C 295.03 509.66 290.72 516.84 289.87 524.97 C 289.34 531.27 290.80 537.51 291.64 543.72 C 295.84 540.52 298.08 535.14 302.17 531.81 C 305.32 544.29 313.03 554.97 321.93 564.05 C 323.59 565.53 324.79 567.70 326.87 568.61 C 327.27 563.77 329.45 559.36 332.05 555.36 C 334.36 555.05 334.97 557.19 334.96 559.02 C 336.65 563.57 340.13 567.16 343.35 570.70 C 348.60 576.03 354.11 581.20 360.18 585.60 C 360.73 581.14 362.51 576.12 367.02 574.31 C 376.57 590.37 394.29 600.16 412.11 604.17 C 411.42 601.47 410.85 598.68 411.31 595.89 C 412.83 584.30 419.56 573.83 419.63 561.98 C 419.79 558.25 417.53 555.17 415.88 552.03 C 422.61 555.07 428.81 559.25 434.75 563.64 C 434.28 555.72 429.78 548.98 427.60 541.55 C 427.35 539.69 425.87 536.56 429.07 536.26 C 429.15 536.27 429.32 536.30 429.40 536.31 C 431.64 542.03 438.19 543.19 442.98 545.94 C 441.70 527.53 431.86 510.80 419.78 497.32 C 418.31 496.37 419.57 495.01 420.19 494.04 C 430.26 499.00 440.21 504.86 451.19 507.47 C 449.79 496.82 445.51 486.80 440.70 477.29 C 437.06 470.55 433.16 463.71 427.47 458.47 C 412.78 447.11 395.52 438.54 377.00 435.94 C 369.40 434.77 361.69 434.90 354.02 435.05 C 351.25 434.95 347.95 435.28 345.82 433.12 C 344.26 431.22 345.62 428.78 345.46 426.64 C 326.67 437.34 310.86 452.94 299.06 470.99 M 207.37 554.04 C 207.48 578.89 207.39 603.74 207.42 628.59 C 214.91 628.65 222.40 628.51 229.89 628.67 C 230.27 603.76 229.95 578.82 230.05 553.90 C 222.49 553.98 214.92 553.71 207.37 554.04 M 252.68 553.90 C 252.65 578.77 252.73 603.64 252.64 628.51 C 260.21 628.66 267.79 628.66 275.35 628.51 C 275.26 603.64 275.35 578.77 275.31 553.90 C 267.77 553.89 260.22 553.89 252.68 553.90 M 297.98 553.90 C 298.04 578.82 297.83 603.74 298.08 628.65 C 305.59 628.53 313.10 628.63 320.60 628.60 C 320.57 607.89 320.69 587.18 320.54 566.48 C 316.72 562.53 313.06 558.40 309.84 553.94 C 305.88 553.85 301.93 553.91 297.98 553.90 M 435.38 554.05 C 437.14 558.84 437.56 563.96 437.54 569.02 C 436.19 568.24 434.92 567.34 433.74 566.35 C 433.73 587.04 433.84 607.73 433.68 628.43 C 441.25 628.80 448.84 628.56 456.42 628.55 C 456.36 603.66 456.42 578.78 456.39 553.90 C 449.38 553.99 442.37 553.71 435.38 554.05 M 343.23 574.42 C 343.26 592.48 343.20 610.55 343.26 628.61 C 350.79 628.59 358.32 628.59 365.85 628.61 C 365.89 612.00 365.89 595.39 365.85 578.78 C 363.54 580.28 363.30 583.49 363.00 585.99 C 362.71 587.44 363.37 589.81 361.25 590.05 C 354.95 585.20 348.86 580.04 343.23 574.42 M 388.47 598.11 C 388.52 608.25 388.52 618.40 388.47 628.55 C 395.95 628.71 403.44 628.48 410.93 628.67 C 411.38 621.39 411.05 614.07 411.10 606.78 C 403.18 604.99 395.58 601.99 388.47 598.11 M 207.42 678.41 C 207.39 703.26 207.48 728.12 207.38 752.97 C 214.93 753.27 222.49 753.02 230.05 753.10 C 229.99 728.18 230.19 703.26 229.95 678.35 C 222.44 678.46 214.93 678.36 207.42 678.41 M 252.64 678.48 C 252.73 703.35 252.65 728.22 252.68 753.10 C 260.22 753.10 267.77 753.10 275.31 753.10 C 275.36 728.23 275.23 703.37 275.37 678.51 C 267.80 678.30 260.22 678.37 252.64 678.48 M 298.10 678.33 C 297.80 703.24 298.05 728.18 297.98 753.10 C 305.54 752.97 313.14 753.38 320.68 752.89 C 320.50 728.06 320.67 703.23 320.60 678.40 C 313.10 678.36 305.60 678.49 298.10 678.33 M 343.24 678.40 C 343.21 703.27 343.28 728.14 343.21 753.01 C 350.76 753.21 358.31 753.05 365.87 753.10 C 365.83 728.19 365.95 703.27 365.81 678.36 C 358.29 678.44 350.76 678.38 343.24 678.40 M 388.50 678.41 C 388.57 703.32 388.35 728.23 388.61 753.14 C 396.11 753.05 403.62 753.13 411.13 753.10 C 410.97 728.18 411.47 703.21 410.88 678.32 C 403.42 678.50 395.96 678.34 388.50 678.41 M 433.71 678.52 C 433.83 703.38 433.72 728.24 433.76 753.10 C 441.30 753.10 448.85 753.10 456.39 753.10 C 456.42 728.22 456.35 703.34 456.43 678.46 C 448.85 678.39 441.27 678.28 433.71 678.52 Z" />
<path fill="#000000" opacity="1.00" d=" M 549.78 553.91 C 557.32 553.90 564.86 553.90 572.40 553.91 C 572.43 578.78 572.37 603.66 572.44 628.54 C 564.86 628.57 557.27 628.77 549.71 628.44 C 549.86 603.60 549.72 578.75 549.78 553.91 Z" />
<path fill="#000000" opacity="1.00" d=" M 595.04 553.90 C 602.60 554.00 610.17 553.70 617.72 554.05 C 617.59 578.90 617.72 603.76 617.65 628.61 C 610.14 628.63 602.64 628.52 595.13 628.67 C 594.91 603.75 595.09 578.82 595.04 553.90 Z" />
<path fill="#000000" opacity="1.00" d=" M 640.28 554.04 C 647.83 553.72 655.40 553.98 662.96 553.91 C 662.90 578.82 663.08 603.74 662.87 628.65 C 655.36 628.54 647.85 628.62 640.34 628.60 C 640.28 603.75 640.39 578.89 640.28 554.04 Z" />
<path fill="#000000" opacity="1.00" d=" M 685.59 553.91 C 693.13 553.90 700.68 553.90 708.22 553.91 C 708.27 578.76 708.16 603.62 708.28 628.47 C 700.71 628.74 693.13 628.58 685.56 628.55 C 685.63 603.67 685.56 578.79 685.59 553.91 Z" />
<path fill="#000000" opacity="1.00" d=" M 730.86 553.91 C 738.40 553.90 745.94 553.90 753.48 553.91 C 753.51 578.78 753.44 603.66 753.52 628.54 C 746.05 628.72 738.57 628.46 731.11 628.68 C 730.51 603.80 731.01 578.82 730.86 553.91 Z" />
<path fill="#000000" opacity="1.00" d=" M 776.12 553.90 C 783.66 553.93 791.20 553.84 798.75 553.95 C 798.73 578.83 798.76 603.72 798.73 628.61 C 791.21 628.61 783.68 628.57 776.16 628.63 C 776.06 603.72 776.14 578.81 776.12 553.90 Z" />
<path fill="#000000" opacity="1.00" d=" M 549.69 678.59 C 557.25 678.18 564.86 678.44 572.44 678.47 C 572.36 703.34 572.44 728.22 572.40 753.09 C 564.86 753.10 557.32 753.10 549.78 753.09 C 549.71 728.26 549.88 703.42 549.69 678.59 Z" />
<path fill="#000000" opacity="1.00" d=" M 595.13 678.34 C 602.64 678.47 610.15 678.36 617.66 678.40 C 617.72 703.23 617.56 728.05 617.74 752.88 C 610.20 753.38 602.60 752.96 595.04 753.10 C 595.10 728.18 594.91 703.26 595.13 678.34 Z" />
<path fill="#000000" opacity="1.00" d=" M 640.34 678.40 C 647.86 678.38 655.38 678.44 662.90 678.36 C 663.04 703.27 662.92 728.18 662.96 753.09 C 655.39 752.95 647.79 753.39 640.25 752.87 C 640.44 728.05 640.26 703.22 640.34 678.40 Z" />
<path fill="#000000" opacity="1.00" d=" M 685.56 678.46 C 693.13 678.42 700.72 678.24 708.28 678.54 C 708.15 703.39 708.27 728.24 708.22 753.09 C 700.68 753.10 693.13 753.10 685.59 753.09 C 685.56 728.21 685.63 703.33 685.56 678.46 Z" />
<path fill="#000000" opacity="1.00" d=" M 731.04 678.34 C 738.53 678.51 746.03 678.28 753.52 678.46 C 753.44 703.34 753.52 728.22 753.48 753.09 C 745.94 753.10 738.40 753.10 730.86 753.09 C 730.97 728.18 730.60 703.24 731.04 678.34 Z" />
<path fill="#000000" opacity="1.00" d=" M 776.19 678.36 C 783.70 678.45 791.22 678.38 798.73 678.40 C 798.79 703.25 798.68 728.11 798.79 752.96 C 791.24 753.27 783.67 753.01 776.12 753.10 C 776.16 728.19 776.02 703.27 776.19 678.36 Z" />
</g>
<g id="#ffffffff">
<path fill="#ffffff" opacity="1.00" d=" M 498.14 375.14 C 547.20 374.79 596.40 382.21 642.94 397.85 C 681.36 410.68 717.83 429.05 751.58 451.38 C 801.31 484.15 844.87 525.25 885.52 568.54 C 912.11 596.54 937.17 625.98 964.48 653.30 C 939.03 679.64 914.76 707.12 889.79 733.92 C 863.87 761.62 837.05 788.58 808.04 813.07 C 775.74 840.44 740.74 864.82 702.93 883.96 C 669.16 901.15 633.19 914.02 596.13 921.95 C 593.11 909.19 583.28 899.45 572.81 892.25 C 553.60 879.11 531.41 871.48 509.89 863.09 C 501.79 859.87 493.43 856.97 486.09 852.16 C 483.84 850.57 480.91 848.16 481.85 845.04 C 483.81 840.00 489.33 837.85 493.98 836.01 C 506.95 831.54 520.63 829.78 534.02 827.06 C 541.72 825.45 549.58 824.07 556.78 820.78 C 559.54 819.39 562.82 817.47 563.21 814.08 C 563.40 811.31 561.45 809.06 559.49 807.38 C 555.31 803.91 550.30 801.64 545.37 799.47 C 533.90 794.50 521.99 790.63 510.63 785.43 C 506.00 783.23 501.32 780.91 497.51 777.43 C 495.47 775.51 493.56 772.94 493.87 770.00 C 494.27 763.81 498.82 759.00 503.51 755.44 C 512.87 748.30 524.26 742.48 529.56 731.38 C 533.52 723.83 532.06 715.11 533.64 707.03 C 535.31 696.97 539.71 687.25 546.84 679.89 C 553.04 673.24 561.05 668.77 568.54 663.78 C 572.25 661.23 576.51 658.01 576.81 653.12 C 576.85 650.24 576.64 646.64 573.95 644.92 C 570.67 643.36 566.90 643.53 563.48 642.43 C 555.92 640.33 550.14 634.37 546.04 627.93 C 541.61 620.06 540.84 610.80 540.32 601.97 C 539.52 586.01 541.42 570.00 540.06 554.07 C 539.42 549.97 538.92 544.38 534.50 542.59 C 530.30 542.11 525.64 541.70 522.55 538.44 C 516.49 532.00 517.45 521.31 510.00 515.84 C 503.26 510.42 493.88 513.18 486.54 509.38 C 483.07 507.54 482.39 503.34 481.80 499.85 C 480.74 492.99 478.45 486.29 474.67 480.44 C 470.72 473.84 464.53 468.76 461.60 461.52 C 456.43 449.90 458.33 436.51 462.89 425.02 C 470.57 405.92 483.78 389.64 498.14 375.14 M 549.78 553.91 C 549.72 578.75 549.86 603.60 549.71 628.44 C 557.27 628.77 564.86 628.57 572.44 628.54 C 572.37 603.66 572.43 578.78 572.40 553.91 C 564.86 553.90 557.32 553.90 549.78 553.91 M 595.04 553.90 C 595.09 578.82 594.91 603.75 595.13 628.67 C 602.64 628.52 610.14 628.63 617.65 628.61 C 617.72 603.76 617.59 578.90 617.72 554.05 C 610.17 553.70 602.60 554.00 595.04 553.90 M 640.28 554.04 C 640.39 578.89 640.28 603.75 640.34 628.60 C 647.85 628.62 655.36 628.54 662.87 628.65 C 663.08 603.74 662.90 578.82 662.96 553.91 C 655.40 553.98 647.83 553.72 640.28 554.04 M 685.59 553.91 C 685.56 578.79 685.63 603.67 685.56 628.55 C 693.13 628.58 700.71 628.74 708.28 628.47 C 708.16 603.62 708.27 578.76 708.22 553.91 C 700.68 553.90 693.13 553.90 685.59 553.91 M 730.86 553.91 C 731.01 578.82 730.51 603.80 731.11 628.68 C 738.57 628.46 746.05 628.72 753.52 628.54 C 753.44 603.66 753.51 578.78 753.48 553.91 C 745.94 553.90 738.40 553.90 730.86 553.91 M 776.12 553.90 C 776.14 578.81 776.06 603.72 776.16 628.63 C 783.68 628.57 791.21 628.61 798.73 628.61 C 798.76 603.72 798.73 578.83 798.75 553.95 C 791.20 553.84 783.66 553.93 776.12 553.90 M 549.69 678.59 C 549.88 703.42 549.71 728.26 549.78 753.09 C 557.32 753.10 564.86 753.10 572.40 753.09 C 572.44 728.22 572.36 703.34 572.44 678.47 C 564.86 678.44 557.25 678.18 549.69 678.59 M 595.13 678.34 C 594.91 703.26 595.10 728.18 595.04 753.10 C 602.60 752.96 610.20 753.38 617.74 752.88 C 617.56 728.05 617.72 703.23 617.66 678.40 C 610.15 678.36 602.64 678.47 595.13 678.34 M 640.34 678.40 C 640.26 703.22 640.44 728.05 640.25 752.87 C 647.79 753.39 655.39 752.95 662.96 753.09 C 662.92 728.18 663.04 703.27 662.90 678.36 C 655.38 678.44 647.86 678.38 640.34 678.40 M 685.56 678.46 C 685.63 703.33 685.56 728.21 685.59 753.09 C 693.13 753.10 700.68 753.10 708.22 753.09 C 708.27 728.24 708.15 703.39 708.28 678.54 C 700.72 678.24 693.13 678.42 685.56 678.46 M 731.04 678.34 C 730.60 703.24 730.97 728.18 730.86 753.09 C 738.40 753.10 745.94 753.10 753.48 753.09 C 753.52 728.22 753.44 703.34 753.52 678.46 C 746.03 678.28 738.53 678.51 731.04 678.34 M 776.19 678.36 C 776.02 703.27 776.16 728.19 776.12 753.10 C 783.67 753.01 791.24 753.27 798.79 752.96 C 798.68 728.11 798.79 703.25 798.73 678.40 C 791.22 678.38 783.70 678.45 776.19 678.36 Z" />
<path fill="#ffffff" opacity="1.00" d=" M 207.37 554.04 C 214.92 553.71 222.49 553.98 230.05 553.90 C 229.95 578.82 230.27 603.76 229.89 628.67 C 222.40 628.51 214.91 628.65 207.42 628.59 C 207.39 603.74 207.48 578.89 207.37 554.04 Z" />
<path fill="#ffffff" opacity="1.00" d=" M 252.68 553.90 C 260.22 553.89 267.77 553.89 275.31 553.90 C 275.35 578.77 275.26 603.64 275.35 628.51 C 267.79 628.66 260.21 628.66 252.64 628.51 C 252.73 603.64 252.65 578.77 252.68 553.90 Z" />
<path fill="#ffffff" opacity="1.00" d=" M 297.98 553.90 C 301.93 553.91 305.88 553.85 309.84 553.94 C 313.06 558.40 316.72 562.53 320.54 566.48 C 320.69 587.18 320.57 607.89 320.60 628.60 C 313.10 628.63 305.59 628.53 298.08 628.65 C 297.83 603.74 298.04 578.82 297.98 553.90 Z" />
<path fill="#ffffff" opacity="1.00" d=" M 435.38 554.05 C 442.37 553.71 449.38 553.99 456.39 553.90 C 456.42 578.78 456.36 603.66 456.42 628.55 C 448.84 628.56 441.25 628.80 433.68 628.43 C 433.84 607.73 433.73 587.04 433.74 566.35 C 434.92 567.34 436.19 568.24 437.54 569.02 C 437.56 563.96 437.14 558.84 435.38 554.05 Z" />
<path fill="#ffffff" opacity="1.00" d=" M 343.23 574.42 C 348.86 580.04 354.95 585.20 361.25 590.05 C 363.37 589.81 362.71 587.44 363.00 585.99 C 363.30 583.49 363.54 580.28 365.85 578.78 C 365.89 595.39 365.89 612.00 365.85 628.61 C 358.32 628.59 350.79 628.59 343.26 628.61 C 343.20 610.55 343.26 592.48 343.23 574.42 Z" />
<path fill="#ffffff" opacity="1.00" d=" M 388.47 598.11 C 395.58 601.99 403.18 604.99 411.10 606.78 C 411.05 614.07 411.38 621.39 410.93 628.67 C 403.44 628.48 395.95 628.71 388.47 628.55 C 388.52 618.40 388.52 608.25 388.47 598.11 Z" />
<path fill="#ffffff" opacity="1.00" d=" M 207.42 678.41 C 214.93 678.36 222.44 678.46 229.95 678.35 C 230.19 703.26 229.99 728.18 230.05 753.10 C 222.49 753.02 214.93 753.27 207.38 752.97 C 207.48 728.12 207.39 703.26 207.42 678.41 Z" />
<path fill="#ffffff" opacity="1.00" d=" M 252.64 678.48 C 260.22 678.37 267.80 678.30 275.37 678.51 C 275.23 703.37 275.36 728.23 275.31 753.10 C 267.77 753.10 260.22 753.10 252.68 753.10 C 252.65 728.22 252.73 703.35 252.64 678.48 Z" />
<path fill="#ffffff" opacity="1.00" d=" M 298.10 678.33 C 305.60 678.49 313.10 678.36 320.60 678.40 C 320.67 703.23 320.50 728.06 320.68 752.89 C 313.14 753.38 305.54 752.97 297.98 753.10 C 298.05 728.18 297.80 703.24 298.10 678.33 Z" />
<path fill="#ffffff" opacity="1.00" d=" M 343.24 678.40 C 350.76 678.38 358.29 678.44 365.81 678.36 C 365.95 703.27 365.83 728.19 365.87 753.10 C 358.31 753.05 350.76 753.21 343.21 753.01 C 343.28 728.14 343.21 703.27 343.24 678.40 Z" />
<path fill="#ffffff" opacity="1.00" d=" M 388.50 678.41 C 395.96 678.34 403.42 678.50 410.88 678.32 C 411.47 703.21 410.97 728.18 411.13 753.10 C 403.62 753.13 396.11 753.05 388.61 753.14 C 388.35 728.23 388.57 703.32 388.50 678.41 Z" />
<path fill="#ffffff" opacity="1.00" d=" M 433.71 678.52 C 441.27 678.28 448.85 678.39 456.43 678.46 C 456.35 703.34 456.42 728.22 456.39 753.10 C 448.85 753.10 441.30 753.10 433.76 753.10 C 433.72 728.24 433.83 703.38 433.71 678.52 Z" />
</g>
<g id="#3d5da7ff">
<path fill="#3d5da7" opacity="1.00" d=" M 299.06 470.99 C 310.86 452.94 326.67 437.34 345.46 426.64 C 345.62 428.78 344.26 431.22 345.82 433.12 C 347.95 435.28 351.25 434.95 354.02 435.05 C 361.69 434.90 369.40 434.77 377.00 435.94 C 395.52 438.54 412.78 447.11 427.47 458.47 C 433.16 463.71 437.06 470.55 440.70 477.29 C 445.51 486.80 449.79 496.82 451.19 507.47 C 440.21 504.86 430.26 499.00 420.19 494.04 C 419.57 495.01 418.31 496.37 419.78 497.32 C 431.86 510.80 441.70 527.53 442.98 545.94 C 438.19 543.19 431.64 542.03 429.40 536.31 C 431.06 536.52 432.72 536.70 434.40 536.84 C 428.97 531.93 422.49 528.40 416.19 524.76 C 407.28 519.67 400.65 511.66 393.06 504.93 C 391.36 503.61 389.38 501.81 387.04 502.38 C 384.38 503.52 383.09 507.01 384.44 509.62 C 386.70 514.37 391.04 517.67 395.03 520.92 C 401.42 525.78 407.96 530.81 415.69 533.31 C 420.03 534.79 424.58 535.38 429.07 536.26 C 425.87 536.56 427.35 539.69 427.60 541.55 C 429.78 548.98 434.28 555.72 434.75 563.64 C 428.81 559.25 422.61 555.07 415.88 552.03 C 417.53 555.17 419.79 558.25 419.63 561.98 C 419.56 573.83 412.83 584.30 411.31 595.89 C 410.85 598.68 411.42 601.47 412.11 604.17 C 394.29 600.16 376.57 590.37 367.02 574.31 C 362.51 576.12 360.73 581.14 360.18 585.60 C 354.11 581.20 348.60 576.03 343.35 570.70 C 340.13 567.16 336.65 563.57 334.96 559.02 C 334.97 557.19 334.36 555.05 332.05 555.36 C 329.45 559.36 327.27 563.77 326.87 568.61 C 324.79 567.70 323.59 565.53 321.93 564.05 C 313.03 554.97 305.32 544.29 302.17 531.81 C 298.08 535.14 295.84 540.52 291.64 543.72 C 290.80 537.51 289.34 531.27 289.87 524.97 C 290.72 516.84 295.03 509.66 297.10 501.87 C 291.52 505.03 286.68 509.29 281.40 512.87 C 284.32 497.88 290.81 483.76 299.06 470.99 M 365.01 461.13 C 362.45 462.88 361.86 466.79 363.66 469.31 C 366.40 473.35 370.82 475.79 374.96 478.17 C 381.75 481.76 388.76 484.99 396.02 487.54 C 406.30 491.21 417.40 490.57 428.11 489.96 C 427.60 488.72 426.07 488.53 425.05 487.91 C 418.54 484.77 411.67 482.51 404.82 480.28 C 392.97 476.45 383.06 468.65 372.30 462.64 C 370.09 461.60 367.49 460.06 365.01 461.13 M 330.01 477.26 C 327.50 478.42 327.22 481.58 326.82 483.98 C 325.67 496.28 326.55 508.94 322.78 520.88 C 320.33 528.80 318.07 536.82 317.17 545.09 C 321.34 540.23 325.21 535.10 328.64 529.69 C 334.42 520.51 336.13 509.58 337.80 499.06 C 338.48 493.21 339.47 487.04 337.49 481.34 C 336.47 478.33 333.08 476.47 330.01 477.26 M 351.09 519.12 C 349.71 521.17 350.19 523.80 350.42 526.10 C 351.81 535.72 354.46 545.31 353.63 555.11 C 353.01 562.13 352.44 569.20 353.21 576.23 C 356.87 570.67 359.56 564.35 361.49 557.96 C 363.55 549.81 362.88 541.29 362.34 532.99 C 361.82 528.63 361.38 523.95 358.79 520.25 C 357.14 517.88 353.29 517.15 351.09 519.12 M 376.80 558.99 C 376.54 562.88 378.22 566.57 379.76 570.05 C 382.37 575.37 385.23 580.59 388.61 585.47 C 393.69 592.87 401.46 597.77 409.10 602.18 C 406.36 595.10 401.23 589.30 397.05 583.05 C 392.19 575.61 389.73 566.99 386.15 558.94 C 385.19 557.10 384.18 554.69 381.91 554.24 C 379.35 554.22 376.94 556.40 376.80 558.99 Z" />
</g>
<g id="#a70000ff">
<path fill="#a70000" opacity="1.00" d=" M 365.01 461.13 C 367.49 460.06 370.09 461.60 372.30 462.64 C 383.06 468.65 392.97 476.45 404.82 480.28 C 411.67 482.51 418.54 484.77 425.05 487.91 C 426.07 488.53 427.60 488.72 428.11 489.96 C 417.40 490.57 406.30 491.21 396.02 487.54 C 388.76 484.99 381.75 481.76 374.96 478.17 C 370.82 475.79 366.40 473.35 363.66 469.31 C 361.86 466.79 362.45 462.88 365.01 461.13 Z" />
<path fill="#a70000" opacity="1.00" d=" M 330.01 477.26 C 333.08 476.47 336.47 478.33 337.49 481.34 C 339.47 487.04 338.48 493.21 337.80 499.06 C 336.13 509.58 334.42 520.51 328.64 529.69 C 325.21 535.10 321.34 540.23 317.17 545.09 C 318.07 536.82 320.33 528.80 322.78 520.88 C 326.55 508.94 325.67 496.28 326.82 483.98 C 327.22 481.58 327.50 478.42 330.01 477.26 Z" />
<path fill="#a70000" opacity="1.00" d=" M 384.44 509.62 C 383.09 507.01 384.38 503.52 387.04 502.38 C 389.38 501.81 391.36 503.61 393.06 504.93 C 400.65 511.66 407.28 519.67 416.19 524.76 C 422.49 528.40 428.97 531.93 434.40 536.84 C 432.72 536.70 431.06 536.52 429.40 536.31 C 429.32 536.30 429.15 536.27 429.07 536.26 C 424.58 535.38 420.03 534.79 415.69 533.31 C 407.96 530.81 401.42 525.78 395.03 520.92 C 391.04 517.67 386.70 514.37 384.44 509.62 Z" />
<path fill="#a70000" opacity="1.00" d=" M 351.09 519.12 C 353.29 517.15 357.14 517.88 358.79 520.25 C 361.38 523.95 361.82 528.63 362.34 532.99 C 362.88 541.29 363.55 549.81 361.49 557.96 C 359.56 564.35 356.87 570.67 353.21 576.23 C 352.44 569.20 353.01 562.13 353.63 555.11 C 354.46 545.31 351.81 535.72 350.42 526.10 C 350.19 523.80 349.71 521.17 351.09 519.12 Z" />
<path fill="#a70000" opacity="1.00" d=" M 376.80 558.99 C 376.94 556.40 379.35 554.22 381.91 554.24 C 384.18 554.69 385.19 557.10 386.15 558.94 C 389.73 566.99 392.19 575.61 397.05 583.05 C 401.23 589.30 406.36 595.10 409.10 602.18 C 401.46 597.77 393.69 592.87 388.61 585.47 C 385.23 580.59 382.37 575.37 379.76 570.05 C 378.22 566.57 376.54 562.88 376.80 558.99 Z" />
</g>
<g id="#952109cd">
<path fill="#952109" opacity="0.80" d=" M 999.63 669.45 L 1000.00 668.62 L 1000.00 690.84 L 999.74 691.70 C 998.32 687.59 999.27 683.22 999.08 678.98 C 999.23 675.81 998.57 672.50 999.63 669.45 Z" />
</g>
</svg>
