<?xml version="1.0" encoding="UTF-8" standalone="no"?>
<!-- Generator: Adobe Illustrator 15.0.2, SVG Export Plug-In . SVG Version: 6.00 Build 0)  -->

<svg
   xmlns:dc="http://purl.org/dc/elements/1.1/"
   xmlns:cc="http://creativecommons.org/ns#"
   xmlns:rdf="http://www.w3.org/1999/02/22-rdf-syntax-ns#"
   xmlns:svg="http://www.w3.org/2000/svg"
   xmlns="http://www.w3.org/2000/svg"
   xmlns:sodipodi="http://sodipodi.sourceforge.net/DTD/sodipodi-0.dtd"
   xmlns:inkscape="http://www.inkscape.org/namespaces/inkscape"
   version="1.1"
   x="0px"
   y="0px"
   width="378.3718"
   height="298.22849"
   viewBox="0 0 378.3718 298.22849"
   enable-background="new 0 0 1000 500"
   xml:space="preserve"
   id="svg2"
   inkscape:version="0.48.2 r9819"
   sodipodi:docname="Flag_of_Fiji.svg"><metadata
   id="metadata284"><rdf:RDF><cc:Work
       rdf:about=""><dc:format>image/svg+xml</dc:format><dc:type
         rdf:resource="http://purl.org/dc/dcmitype/StillImage" /></cc:Work></rdf:RDF></metadata><defs
   id="defs282"><inkscape:perspective
   sodipodi:type="inkscape:persp3d"
   inkscape:vp_x="0 : 250 : 1"
   inkscape:vp_y="0 : 1000 : 0"
   inkscape:vp_z="1000 : 250 : 1"
   inkscape:persp3d-origin="500 : 166.66667 : 1"
   id="perspective3096" />
	
	
	
	
	
	
	
	
	
	
	
	
</defs><sodipodi:namedview
   pagecolor="#ffffff"
   bordercolor="#666666"
   borderopacity="1"
   objecttolerance="10"
   gridtolerance="10"
   guidetolerance="10"
   inkscape:pageopacity="0"
   inkscape:pageshadow="2"
   inkscape:window-width="1400"
   inkscape:window-height="988"
   id="namedview280"
   showgrid="false"
   inkscape:zoom="0.962"
   inkscape:cx="135.34877"
   inkscape:cy="128.43885"
   inkscape:window-x="-8"
   inkscape:window-y="-8"
   inkscape:window-maximized="1"
   inkscape:current-layer="svg2"
   fit-margin-top="0"
   fit-margin-left="0"
   fit-margin-right="0"
   fit-margin-bottom="0" />


<g
   id="g5833"
   transform="translate(-216.40625,-70.554114)"><path
     inkscape:connector-curvature="0"
     id="path5765"
     d="m 277.20533,276.66768 c -4.6e-4,-0.25257 -0.32427,-0.74624 -0.53283,-0.81244 -0.12639,-0.0401 -0.19346,-0.16935 -0.23025,-0.44369 -0.0634,-0.4729 -0.27684,-0.66226 -0.896,-0.79505 -0.99377,-0.21312 -1.7345,-0.0791 -2.0496,0.37073 -0.13335,0.19038 -0.13941,0.18594 -0.23612,-0.17323 -0.0577,-0.21415 -0.19381,-0.43057 -0.32488,-0.51645 -0.25283,-0.16566 -0.65096,-0.19586 -0.73743,-0.0559 -0.0969,0.15686 -0.2297,0.10112 -0.2297,-0.0964 0,-0.3007 -0.25747,-0.7165 -0.52986,-0.85568 -0.5154,-0.26335 -0.7886,-0.26545 -1.16652,-0.009 l -0.35381,0.2401 -0.88141,-0.15214 c -0.49126,-0.0848 -1.07401,-0.2526 -1.31653,-0.37909 -0.23931,-0.12483 -0.65277,-0.29124 -0.91879,-0.36979 -0.26603,-0.0786 -0.71109,-0.28158 -0.98902,-0.45116 -0.55313,-0.33749 -1.13597,-0.50271 -1.51668,-0.42993 -0.13456,0.0257 -0.60928,-0.005 -1.05492,-0.0694 -0.73466,-0.1053 -0.83802,-0.14556 -1.10774,-0.43152 -0.28318,-0.30022 -0.32509,-0.31439 -0.87174,-0.29457 -0.44111,0.016 -0.64849,-0.023 -0.89446,-0.1681 -0.17611,-0.10391 -0.41833,-0.21818 -0.53827,-0.25392 -0.11995,-0.0358 -0.34591,-0.21309 -0.50215,-0.39409 l -0.28408,-0.32908 -1.226,0.0219 c -0.6743,0.012 -1.26284,0.0446 -1.30786,0.0725 -0.045,0.0278 -0.23374,-0.0711 -0.41939,-0.21989 -0.5696,-0.45642 -0.73454,-0.51217 -1.34623,-0.45505 -0.49551,0.0463 -0.62534,0.0213 -1.07965,-0.20789 -0.35798,-0.18057 -0.72289,-0.27881 -1.18946,-0.32023 -1.14728,-0.10185 -1.36386,-0.15438 -1.61968,-0.39283 -0.34504,-0.32164 -0.64021,-0.41969 -0.94429,-0.31369 -0.22803,0.0795 -0.25795,0.0645 -0.31294,-0.15719 -0.10236,-0.41254 -0.40279,-0.65853 -0.80428,-0.65853 -0.40113,0 -0.67963,0.12222 -0.90075,0.39528 -0.13162,0.16255 -0.18572,0.17189 -0.45394,0.0784 -0.41807,-0.14574 -1.06092,-0.13316 -1.37029,0.0268 -0.23054,0.11922 -0.32932,0.1131 -0.95449,-0.0591 -0.59176,-0.16304 -0.7134,-0.23088 -0.80338,-0.44812 -0.18733,-0.45226 -1.11983,-0.734 -1.71301,-0.51756 -0.17812,0.065 -0.22686,0.0126 -0.44946,-0.48346 -0.34399,-0.76651 -0.83204,-1.19734 -1.35635,-1.19734 -0.30088,0 -0.44761,0.0537 -0.60516,0.22139 -0.18085,0.1925 -0.20392,0.2999 -0.17681,0.82314 l 0.0312,0.60175 -0.59722,-0.0146 c -0.32847,-0.008 -0.80395,-0.0103 -1.05662,-0.005 -2.37417,0.0489 -2.4612,0.0344 -2.77728,-0.46114 -0.31558,-0.4948 -0.56538,-0.70134 -0.85197,-0.70442 -0.27717,-0.003 -0.82692,-0.49294 -0.82692,-0.73699 0,-0.32109 -0.19175,-0.601 -0.57996,-0.84663 -0.21163,-0.1339 -0.50621,-0.37022 -0.65463,-0.52516 -0.17701,-0.18478 -0.35958,-0.28171 -0.53059,-0.28171 -0.1857,0 -0.28347,-0.0595 -0.33978,-0.20673 -0.28476,-0.74459 -1.24251,-0.75478 -1.6773,-0.0179 -0.17798,0.30165 -0.22862,0.33075 -0.49907,0.28687 -0.19667,-0.0319 -0.41656,-0.17678 -0.63446,-0.41797 -0.38413,-0.42518 -0.8597,-0.62568 -1.13483,-0.47844 -0.2987,0.15986 -2.75821,0.0654 -3.1161,-0.11963 -0.16329,-0.0844 -0.29689,-0.1937 -0.29689,-0.24279 0,-0.0491 -0.14535,-0.25014 -0.323,-0.44677 -0.17765,-0.19664 -0.40052,-0.58285 -0.49527,-0.85825 -0.25179,-0.73184 -0.37028,-0.87742 -0.85638,-1.05222 -0.31132,-0.11195 -0.50392,-0.25704 -0.66568,-0.50147 l -0.22761,-0.34395 0.19252,-0.71758 c 0.26295,-0.98012 0.33638,-2.78544 0.13272,-3.26305 -0.18242,-0.42779 -0.54016,-0.76289 -1.03127,-0.96602 l -0.3816,-0.15783 0.004,-0.50828 c 0.003,-0.36717 -0.0639,-0.65209 -0.24132,-1.0263 -0.22025,-0.46449 -0.34514,-0.58674 -1.20857,-1.183 -0.52961,-0.36574 -0.96293,-0.68047 -0.96293,-0.69939 0,-0.0189 27.4881,-0.0344 61.08466,-0.0344 l 61.08466,0 0.22213,0.33734 c 0.37609,0.5712 0.63258,0.70343 1.34287,0.69233 0.34374,-0.005 0.77375,-0.0113 0.9556,-0.0132 0.41507,-0.004 0.77191,-0.27728 0.91022,-0.69634 l 0.10565,-0.32014 0.77469,0 c 0.73238,0 0.79017,0.0148 1.05811,0.27085 0.15589,0.14897 0.31705,0.28335 0.35814,0.29861 0.0411,0.0153 0.28312,0.54458 0.53786,1.17625 l 0.46316,1.1485 -0.28875,0.0984 c -0.66177,0.22545 -0.86023,1.02369 -0.40341,1.6226 0.28655,0.37568 0.98532,0.6908 1.72651,0.77858 0.35143,0.0416 0.48301,0.0128 0.72345,-0.1584 l 0.2939,-0.20927 -0.0553,0.35819 c -0.0356,0.23065 -0.01,0.43919 0.0728,0.58562 0.11775,0.20892 0.10651,0.25477 -0.1381,0.56362 -0.29393,0.37112 -0.72477,1.24087 -0.72617,1.46597 -9.2e-4,0.0791 -0.14043,0.21031 -0.31097,0.29163 -0.18312,0.0873 -0.45585,0.36332 -0.66613,0.67412 -0.19583,0.28944 -0.5296,0.64982 -0.7417,0.80086 -0.38137,0.27157 -0.39191,0.27337 -0.95121,0.16334 -0.59612,-0.11728 -1.10711,-0.072 -1.65925,0.14719 -0.32471,0.12887 -0.44466,0.27918 -0.62898,0.78815 -0.0503,0.13897 -0.15244,0.25267 -0.22692,0.25267 -0.17257,0 -0.60297,0.55905 -0.60794,0.78965 -0.002,0.0963 -0.16158,0.34952 -0.35449,0.56271 l -0.35071,0.38762 -0.15086,-0.46708 c -0.083,-0.2569 -0.15085,-0.56301 -0.15085,-0.68025 0,-0.11724 -0.0419,-0.32344 -0.0932,-0.45822 -0.0809,-0.21285 -0.0552,-0.28831 0.19584,-0.57422 0.40614,-0.46256 0.72229,-1.18702 0.72334,-1.65754 9.2e-4,-0.31759 -0.0531,-0.45159 -0.26767,-0.66613 -0.34918,-0.34918 -0.86338,-0.36002 -1.56592,-0.033 -0.32465,0.15111 -0.58142,0.2139 -0.72619,0.17757 -0.3336,-0.0837 -0.71549,0.11588 -0.87836,0.45911 -0.0793,0.16721 -0.14427,0.34454 -0.14427,0.39407 0,0.0495 -0.13625,0.19398 -0.30277,0.321 -0.27091,0.20663 -0.3265,0.2181 -0.52831,0.10897 -0.1437,-0.0777 -0.52382,-0.11889 -1.04758,-0.11351 -0.63293,0.006 -0.83099,-0.0214 -0.86096,-0.12105 -0.0685,-0.22794 -0.42127,-0.44691 -0.72342,-0.44901 -0.16125,-10e-4 -0.31874,-0.0434 -0.34997,-0.0939 -0.0312,-0.0505 -0.20246,-0.0919 -0.3805,-0.0919 -0.26468,0 -0.40613,0.082 -0.77556,0.44947 -0.25133,0.25001 -0.45184,0.53399 -0.45184,0.63993 0,0.21413 -0.24887,0.38068 -0.56884,0.38068 -0.11737,0 -0.52321,0.21929 -0.90187,0.48731 -0.6095,0.43141 -0.73134,0.48317 -1.06232,0.45133 -0.30265,-0.0291 -0.42951,0.0109 -0.66613,0.20996 -0.25467,0.2143 -0.29227,0.30342 -0.29227,0.69284 0,0.2458 0.0449,0.54538 0.0997,0.66573 0.0879,0.19282 0.0466,0.289 -0.34734,0.80946 -0.24588,0.32485 -0.4985,0.71484 -0.56138,0.86664 -0.0648,0.15636 -0.23702,0.33031 -0.39739,0.40129 -0.17277,0.0765 -0.334,0.2472 -0.41378,0.43815 -0.1559,0.37311 -0.50393,0.54222 -0.77172,0.37498 -0.15333,-0.0958 -0.18072,-0.21619 -0.18072,-0.79476 0,-0.56272 0.0404,-0.75083 0.23115,-1.07633 0.19145,-0.32667 0.23485,-0.53037 0.25267,-1.18574 l 0.0215,-0.79131 -0.33559,-0.3084 c -0.39856,-0.36627 -0.86832,-0.46066 -1.70465,-0.34254 -0.64401,0.091 -0.8085,0.039 -1.53014,-0.48348 -0.4917,-0.356 -0.98823,-0.42768 -1.30466,-0.18835 -0.0981,0.0742 -0.26218,0.13621 -0.36464,0.13782 -0.10245,0.002 -0.26784,0.0588 -0.36752,0.12703 -0.0997,0.0683 -0.29782,0.15247 -0.44031,0.18712 -1.0226,0.24869 -1.61253,1.38934 -1.00822,1.9494 0.17436,0.1616 0.3117,0.21469 0.4594,0.17762 0.29329,-0.0736 0.26289,0.0108 -0.065,0.18032 -0.1516,0.0784 -0.27564,0.10163 -0.27564,0.0516 0,-0.05 -0.14766,-0.19127 -0.32814,-0.31391 -0.18048,-0.12264 -0.40895,-0.38631 -0.50772,-0.58594 -0.23535,-0.47569 -0.89896,-0.8114 -1.42849,-0.72266 -0.19483,0.0327 -0.61036,0.0837 -0.92342,0.11344 -0.559,0.0531 -0.57998,0.0652 -1.17146,0.67792 -0.33126,0.34312 -0.60227,0.6642 -0.60227,0.71351 0,0.0493 -0.12488,0.1414 -0.2775,0.20461 -0.15263,0.0632 -0.3697,0.22415 -0.48237,0.35761 -0.11268,0.13347 -0.37781,0.29431 -0.58917,0.35743 -0.25846,0.0772 -0.50665,0.25379 -0.75801,0.53934 -0.20554,0.23351 -0.37371,0.45906 -0.37371,0.50123 0,0.0422 -0.10606,0.0363 -0.23568,-0.0129 -0.27873,-0.10597 -0.8989,-0.11885 -0.99703,-0.0207 -0.0379,0.0379 -0.24118,0.0702 -0.45174,0.0717 -0.6105,0.004 -1.4126,0.62382 -1.4978,1.15664 -0.0422,0.26369 -0.11469,0.36793 -0.3132,0.45015 -0.35673,0.14776 -0.56597,0.40219 -0.58129,0.70684 -0.007,0.14149 -0.10574,0.35006 -0.21915,0.46348 -0.1455,0.14549 -0.20622,0.31527 -0.20622,0.57661 0,0.21586 -0.0479,0.38544 -0.11485,0.40644 -0.0632,0.0198 -0.49313,0.0544 -0.95548,0.0769 -0.81771,0.0398 -0.8434,0.0349 -0.94177,-0.18106 -0.0556,-0.12207 -0.10113,-0.31833 -0.10113,-0.43611 0,-0.23923 -0.2045,-0.74712 -0.40216,-0.9988 -0.0713,-0.0907 -0.27145,-0.188 -0.44485,-0.21614 -0.42976,-0.0697 -0.75175,0.23098 -0.89482,0.8357 -0.0591,0.25001 -0.20542,0.66347 -0.32503,0.91879 -0.18155,0.38755 -0.20481,0.53187 -0.14079,0.87373 0.0422,0.22522 0.0547,0.5453 0.0277,0.71129 -0.027,0.1665 -0.002,0.35871 0.0564,0.42877 0.0829,0.0999 0.0567,0.15888 -0.12269,0.27641 -0.12544,0.0822 -0.32731,0.14944 -0.44861,0.14944 -0.30334,0 -0.70472,0.33584 -0.70472,0.58965 0,0.20379 -0.62268,1.25954 -0.81182,1.37643 -0.0523,0.0323 -0.19927,-0.0454 -0.32657,-0.17266 -0.28837,-0.28837 -0.67871,-0.30036 -1.02069,-0.0314 -0.13991,0.11005 -0.3805,0.2139 -0.53466,0.23078 -0.35612,0.039 -0.5869,0.24755 -0.66441,0.60045 l -0.0609,0.27724 -0.16948,-0.37855 c -0.22584,-0.50442 -0.51209,-0.63314 -1.08034,-0.48583 -0.23676,0.0614 -0.52131,0.2137 -0.63233,0.3385 l -0.20185,0.2269 -0.16021,-0.2712 c -0.19884,-0.33661 -0.62473,-0.51704 -1.11728,-0.47333 -0.16738,0.0148 -0.56927,0.46687 -0.57274,0.64419 -0.006,0.28797 -0.44801,0.48942 -1.27038,0.5785 -0.66906,0.0725 -0.90248,0.14601 -1.48313,0.46725 -0.56689,0.31364 -0.81946,0.39521 -1.42414,0.45997 -0.40427,0.0433 -0.91153,0.0754 -1.12724,0.0713 -0.22516,-0.004 -0.54644,0.0712 -0.75435,0.17729 -0.50062,0.2554 -1.09553,0.23509 -2.37322,-0.081 -0.59082,-0.14617 -1.35446,-0.29215 -1.69699,-0.3244 -0.34309,-0.0323 -0.78589,-0.14366 -0.98597,-0.24795 -0.47033,-0.24515 -0.97784,-0.17099 -1.60705,0.23483 -0.99432,0.6413 -1.85408,0.80525 -4.10152,0.78212 -0.72735,-0.007 -0.9526,0.025 -1.25969,0.18167 -0.20567,0.10492 -0.42403,0.19077 -0.48523,0.19077 -0.0612,0 -0.18688,0.0684 -0.2793,0.15206 -0.15719,0.14226 -0.16804,0.14078 -0.16836,-0.023 l 0,0 z"
     style="fill:#68bfe5;fill-opacity:1;fill-rule:evenodd;stroke:#68bfe5;stroke-width:1;stroke-linecap:round;stroke-linejoin:round;stroke-miterlimit:4;stroke-opacity:1;stroke-dasharray:none;stroke-dashoffset:0" /><path
     inkscape:connector-curvature="0"
     id="path5767"
     d="m 252.18977,305.25072 c -0.16386,-0.17469 -0.41641,-0.62943 -0.56122,-1.01053 -0.14481,-0.3811 -0.36833,-0.84243 -0.49671,-1.02519 -0.12838,-0.18275 -0.32958,-0.52054 -0.4471,-0.75064 l -0.21367,-0.41836 0.72885,-0.70595 0.72884,-0.70594 0.52133,0.50593 0.52133,0.50593 -0.24185,1.96119 -0.24186,1.96118 -0.29794,-0.31762 z"
     style="fill:#68bfe5;fill-opacity:1;fill-rule:evenodd;stroke:#68bfe5;stroke-width:1;stroke-linecap:round;stroke-linejoin:round;stroke-miterlimit:4;stroke-opacity:1;stroke-dasharray:none;stroke-dashoffset:0" /><path
     inkscape:connector-curvature="0"
     id="path5769"
     d="m 297.56842,292.10203 c -0.15381,-0.11633 -0.18626,-0.19239 -0.0832,-0.19491 0.1916,-0.005 0.5456,-0.76723 0.5456,-1.1753 0,-0.14847 -0.14395,-0.41391 -0.3199,-0.58985 -0.31943,-0.31944 -0.31955,-0.3205 -0.0783,-0.74124 0.13288,-0.23173 0.28517,-0.56675 0.33842,-0.74447 0.0533,-0.17773 0.24391,-0.54538 0.42366,-0.817 0.31791,-0.48039 0.34309,-0.49166 0.92352,-0.41308 0.32819,0.0444 0.68698,0.10521 0.79732,0.13508 0.30801,0.0834 0.50754,1.01003 0.35061,1.6283 -0.0903,0.35567 -0.0889,0.61262 0.004,0.8174 0.10989,0.24117 0.089,0.33902 -0.10876,0.50831 -0.13467,0.1153 -0.27917,0.37239 -0.32111,0.57129 -0.13687,0.64897 -0.25256,0.75049 -0.87754,0.76996 -0.32652,0.0102 -0.72788,0.1125 -0.89191,0.22739 -0.36467,0.25543 -0.38829,0.25604 -0.70284,0.0181 l 0,0 z"
     style="fill:#68bfe5;fill-opacity:1;fill-rule:evenodd;stroke:#68bfe5;stroke-width:1;stroke-linecap:round;stroke-linejoin:round;stroke-miterlimit:4;stroke-opacity:1;stroke-dasharray:none;stroke-dashoffset:0" /><path
     inkscape:connector-curvature="0"
     id="path5771"
     d="m 295.19528,364.007 c -0.35566,-0.56949 -1.46284,-0.62784 -1.98602,-0.10467 -0.32757,0.32758 -0.65167,0.23041 -0.86898,-0.26053 -0.0924,-0.20879 -0.26779,-0.41955 -0.38972,-0.46835 -0.42289,-0.16927 -2.61499,-0.23514 -2.79704,-0.084 -0.11348,0.0942 -0.30978,0.10498 -0.56702,0.0312 -0.21641,-0.0621 -0.5442,-0.084 -0.72843,-0.0488 -0.20512,0.0392 -0.61223,-0.0671 -1.05018,-0.27432 -0.73171,-0.34615 -1.30514,-0.42353 -1.62723,-0.21959 -0.27086,0.17152 -0.92034,-0.24497 -1.204,-0.77209 l -0.24277,-0.45113 0.55414,-0.0709 c 0.30479,-0.039 0.70033,-0.15596 0.879,-0.25988 0.17866,-0.10392 0.67567,-0.19472 1.10447,-0.20177 0.42879,-0.007 1.18281,-0.10602 1.67559,-0.21993 0.7937,-0.18348 0.96014,-0.27842 1.45805,-0.83178 0.30914,-0.34356 0.62531,-0.84701 0.70261,-1.11877 0.20856,-0.73324 0.53276,-1.0023 1.09729,-0.91069 0.33269,0.054 0.53259,0.014 0.70351,-0.14066 0.18025,-0.16313 0.31676,-0.18642 0.55705,-0.0951 0.21144,0.0804 0.53377,0.0659 0.96022,-0.0431 1.22357,-0.31277 1.61615,-0.35489 1.6206,-0.17389 0.002,0.0926 0.0879,0.27892 0.19022,0.41412 0.15136,0.19995 0.38699,0.25286 1.26276,0.28359 0.59217,0.0208 1.34606,0.0762 1.67531,0.12312 0.54731,0.078 0.62278,0.0547 0.88013,-0.27251 0.25829,-0.32836 0.27434,-0.45261 0.19471,-1.50741 -0.0756,-1.001 -0.0566,-1.18295 0.14703,-1.40791 0.29807,-0.32937 0.48191,-0.32592 0.79028,0.0148 0.13597,0.15024 0.40816,0.3564 0.60486,0.45811 0.1967,0.10172 0.35763,0.2925 0.35763,0.42396 0,0.13146 0.11172,0.38104 0.24826,0.55462 0.20005,0.25433 0.25806,0.58552 0.29875,1.70574 0.0436,1.20028 0.0901,1.43906 0.34052,1.74843 0.15951,0.19707 0.41078,0.5481 0.55836,0.78006 0.15465,0.24307 0.51075,0.52899 0.84054,0.67486 0.31471,0.13922 0.5722,0.30427 0.5722,0.36678 0,0.48054 -0.46762,1.52935 -0.85425,1.91598 -0.70637,0.70637 -0.79962,0.62688 -0.74251,-0.63288 0.0482,-1.06421 0.0403,-1.09844 -0.38458,-1.6567 -0.39525,-0.51934 -0.49036,-0.57365 -1.06925,-0.61062 -0.94519,-0.0604 -1.16557,0.0383 -1.50202,0.67252 -0.28606,0.53924 -0.31484,0.55839 -0.50658,0.3372 -0.12214,-0.1409 -0.47831,-0.26967 -0.89231,-0.3226 l -0.68902,-0.0881 -0.64284,0.67046 c -0.35356,0.36876 -0.64283,0.74758 -0.64283,0.84182 0,0.0943 -0.0877,0.24415 -0.19491,0.33311 -0.1072,0.089 -0.19491,0.32286 -0.19491,0.51975 0,0.49814 -0.2859,0.71597 -0.49669,0.37844 z"
     style="fill:#68bfe5;fill-opacity:1;fill-rule:evenodd;stroke:#68bfe5;stroke-width:1;stroke-linecap:round;stroke-linejoin:round;stroke-miterlimit:4;stroke-opacity:1;stroke-dasharray:none;stroke-dashoffset:0" /><path
     inkscape:connector-curvature="0"
     id="path5773"
     d="m 302.90558,353.39598 c 0.0528,-0.268 0.11545,-0.89657 0.13926,-1.39683 0.0238,-0.50026 0.0829,-1.21551 0.13124,-1.58943 0.0603,-0.46609 0.0372,-0.74095 -0.0733,-0.87414 -0.13373,-0.16113 -0.0886,-0.25572 0.26466,-0.55454 0.4203,-0.35554 0.70882,-0.43411 2.40954,-0.65618 0.79639,-0.10399 0.91123,-0.15912 1.79906,-0.86362 0.85806,-0.68088 2.23531,-0.59267 3.30368,0.21159 0.17043,0.1283 0.49495,0.23328 0.72115,0.23328 0.39127,0 0.72312,0.19082 0.72312,0.4158 0,0.0572 -0.11694,0.10395 -0.25988,0.10395 -0.48279,0 -0.80893,0.48023 -0.75832,1.11659 0.0343,0.43086 -4e-4,0.5726 -0.14007,0.5726 -0.10209,0 -0.28768,0.0924 -0.41243,0.20526 -0.17531,0.15866 -0.28632,0.17341 -0.48895,0.065 -0.45368,-0.2428 -0.77177,-0.15576 -1.31326,0.35934 -0.50232,0.47784 -0.52522,0.5344 -0.52522,1.2969 0,0.76272 -0.0155,0.80092 -0.35733,0.88145 -0.19653,0.0463 -0.51171,0.22763 -0.7004,0.40294 -0.21941,0.20387 -0.3744,0.26809 -0.42997,0.17817 -0.12342,-0.1997 -0.75559,-0.17416 -1.05189,0.0425 -0.15607,0.11412 -0.32688,0.14214 -0.45349,0.0744 -0.11172,-0.0598 -0.55128,-0.1481 -0.97682,-0.19624 -0.68443,-0.0774 -0.80221,-0.056 -1.02079,0.1855 -0.40904,0.45198 -0.64221,0.35766 -0.52959,-0.21423 z"
     style="fill:#68bfe5;fill-opacity:1;fill-rule:evenodd;stroke:#68bfe5;stroke-width:1;stroke-linecap:round;stroke-linejoin:round;stroke-miterlimit:4;stroke-opacity:1;stroke-dasharray:none;stroke-dashoffset:0" /><path
     inkscape:connector-curvature="0"
     id="path5775"
     d="m 321.4765,354.00009 c -0.0486,-0.0787 -0.2421,-0.11274 -0.42996,-0.0757 -0.60257,0.11874 -1.20645,-0.58932 -1.37338,-1.6103 -0.12056,-0.73743 -0.35212,-0.95928 -0.97533,-0.93442 -0.29707,0.0118 -0.66866,0.0603 -0.82575,0.10772 -0.23288,0.0703 -0.25562,0.0547 -0.12319,-0.0843 0.29098,-0.3055 0.19295,-0.95024 -0.20202,-1.32865 -0.20044,-0.19203 -0.41651,-0.34915 -0.48016,-0.34915 -0.0636,0 -0.27601,-0.15358 -0.47194,-0.34129 -0.25507,-0.24437 -0.50412,-0.34516 -0.87704,-0.35494 -0.40723,-0.0107 -0.55,-0.0777 -0.65462,-0.30729 -0.0736,-0.16151 -0.36694,-0.45494 -0.6519,-0.65208 -0.46218,-0.31975 -0.51864,-0.41707 -0.52304,-0.90166 -0.003,-0.34775 0.10028,-0.70814 0.28743,-1.00152 0.27381,-0.42921 0.33644,-0.45864 0.98697,-0.46379 0.91378,-0.007 1.38739,-0.29988 1.74717,-1.07955 l 0.28691,-0.62178 0.58472,0.0561 c 0.3216,0.0308 0.88167,0.12581 1.24462,0.21104 0.52801,0.12399 0.80068,0.11988 1.36434,-0.0206 0.67427,-0.16802 0.71787,-0.16298 1.0178,0.1175 0.17234,0.16117 0.41706,0.52469 0.54383,0.80783 0.27647,0.61751 0.73119,0.79241 1.22277,0.47032 0.17814,-0.11672 0.3239,-0.26935 0.3239,-0.33917 0,-0.17817 0.81362,-0.15806 1.43571,0.0355 0.44093,0.13718 0.54534,0.24003 0.67184,0.66178 0.0946,0.31524 0.10492,0.56005 0.0281,0.66395 -0.51134,0.69186 -0.6284,0.93884 -0.6284,1.32591 0,0.70797 0.46414,1.07154 1.42235,1.11415 0.74656,0.0332 0.80811,0.012 1.27122,-0.43776 0.50285,-0.48836 0.73679,-1.04521 0.73679,-1.75383 0,-0.33386 0.0631,-0.42492 0.34337,-0.49525 0.28693,-0.072 0.40596,-0.0102 0.72412,0.37572 0.29785,0.36135 0.47539,0.46191 0.81546,0.46191 0.35342,0 0.48531,0.0819 0.7052,0.43764 0.34611,0.56001 0.34775,0.86174 0.005,0.86174 -0.3758,0 -0.90365,0.5728 -0.90365,0.98061 0,0.18851 0.11694,0.49141 0.25987,0.67312 0.14293,0.18171 0.25988,0.38097 0.25988,0.44279 0,0.1844 -0.82461,0.11927 -1.09682,-0.0866 -0.13873,-0.10493 -0.42037,-0.19077 -0.62588,-0.19077 -0.4232,0 -1.21578,0.54705 -1.3345,0.9211 -0.11416,0.3597 -0.4781,0.30505 -0.89981,-0.13512 -0.57597,-0.60119 -0.98969,-0.68973 -1.65456,-0.35411 -0.70677,0.35678 -0.9024,0.82216 -0.59891,1.42475 0.11559,0.22951 0.24053,0.55416 0.27765,0.72145 0.0608,0.27408 0.033,0.29576 -0.28077,0.21918 -0.19154,-0.0467 -0.55605,-0.22747 -0.81002,-0.40162 -0.56179,-0.38522 -0.64573,-0.3889 -1.07996,-0.0473 -0.22278,0.17524 -0.34237,0.39514 -0.34237,0.62955 0,0.19814 -0.10693,0.45702 -0.23762,0.57529 -0.27921,0.25268 -0.36555,0.2655 -0.48513,0.072 l 0,0 z"
     style="fill:#68bfe5;fill-opacity:1;fill-rule:evenodd;stroke:#68bfe5;stroke-width:1;stroke-linecap:round;stroke-linejoin:round;stroke-miterlimit:4;stroke-opacity:1;stroke-dasharray:none;stroke-dashoffset:0" /><path
     inkscape:connector-curvature="0"
     id="path5777"
     d="m 332.33439,341.20807 c -0.17867,-0.0976 -0.48565,-0.21028 -0.68218,-0.25047 -0.19653,-0.0402 -0.35733,-0.14864 -0.35733,-0.241 0,-0.0924 -0.11694,-0.29346 -0.25987,-0.44688 -0.37554,-0.40308 -0.32355,-0.6381 0.16242,-0.73422 0.64587,-0.12775 0.92106,-0.39873 0.93223,-0.91796 0.008,-0.36525 0.0615,-0.45646 0.26969,-0.45836 0.14294,-10e-4 0.33974,-0.053 0.43735,-0.1148 0.10828,-0.0686 0.31092,-0.0428 0.51975,0.0661 0.42536,0.22194 0.69768,0.22761 0.90642,0.0189 0.218,-0.218 0.40572,0.0801 0.4084,0.6486 0.002,0.35797 -0.0448,0.4223 -0.30533,0.4223 -0.67311,0 -1.33811,0.91314 -1.22521,1.68239 0.079,0.53816 -0.20609,0.65319 -0.80634,0.32539 z"
     style="fill:#68bfe5;fill-opacity:1;fill-rule:evenodd;stroke:#68bfe5;stroke-width:1;stroke-linecap:round;stroke-linejoin:round;stroke-miterlimit:4;stroke-opacity:1;stroke-dasharray:none;stroke-dashoffset:0" /><path
     inkscape:connector-curvature="0"
     id="path5779"
     d="m 452.36652,368.03043 -0.55258,-0.25399 0.25874,-0.27772 c 0.1423,-0.15274 0.28884,-0.37259 0.32564,-0.48854 0.049,-0.15439 0.18424,-0.19713 0.50522,-0.15965 0.54652,0.0638 0.86015,-0.31846 0.86015,-1.04839 0,-0.66579 -0.25851,-1.12635 -0.99716,-1.77654 -0.49972,-0.43987 -0.59055,-0.58275 -0.48093,-0.75653 0.16152,-0.25605 0.96191,-0.49208 1.07521,-0.31707 0.0429,0.0663 0.25771,0.21256 0.47732,0.32502 0.71594,0.36664 0.7795,0.5394 0.43641,1.18615 -0.25868,0.48761 -0.28053,0.62138 -0.14876,0.9106 0.085,0.18646 0.29524,0.39253 0.46728,0.45795 0.44626,0.16966 0.46245,0.35686 0.0911,1.05327 -0.2341,0.43901 -0.5211,0.73071 -1.00191,1.01829 -0.3706,0.22167 -0.69392,0.39811 -0.71849,0.39209 -0.0246,-0.006 -0.29332,-0.12525 -0.59724,-0.26494 l 0,0 z"
     style="fill:#68bfe5;fill-opacity:1;fill-rule:evenodd;stroke:#68bfe5;stroke-width:1;stroke-linecap:round;stroke-linejoin:round;stroke-miterlimit:4;stroke-opacity:1;stroke-dasharray:none;stroke-dashoffset:0" /><path
     inkscape:connector-curvature="0"
     id="path5781"
     d="m 494.18791,346.33005 c -0.0772,-0.22157 -0.11077,-0.45087 -0.0745,-0.50954 0.0671,-0.10851 -0.0923,-0.91232 -0.26264,-1.32476 -0.0816,-0.19764 -0.0375,-0.21621 0.3423,-0.14412 0.69802,0.1325 0.84411,0.25993 1.02058,0.89023 0.15765,0.56307 0.14999,0.61236 -0.14407,0.92675 -0.54505,0.58275 -0.72342,0.61541 -0.88167,0.16144 l 0,0 z"
     style="fill:#68bfe5;fill-opacity:1;fill-rule:evenodd;stroke:#68bfe5;stroke-width:1;stroke-linecap:round;stroke-linejoin:round;stroke-miterlimit:4;stroke-opacity:1;stroke-dasharray:none;stroke-dashoffset:0" /><path
     inkscape:connector-curvature="0"
     id="path5783"
     d="m 463.63895,310.61907 c 0,-0.0773 -0.1608,-0.20438 -0.35733,-0.28237 -0.19653,-0.078 -0.5035,-0.21616 -0.68217,-0.30705 -0.17866,-0.0909 -0.5148,-0.20588 -0.74698,-0.25552 -0.23217,-0.0496 -0.50797,-0.21281 -0.61289,-0.3626 -0.18016,-0.25721 -0.16213,-0.28516 0.32455,-0.50305 0.28341,-0.12689 0.5827,-0.37865 0.66509,-0.55947 0.0824,-0.18081 0.25344,-0.36165 0.38013,-0.40186 0.12668,-0.0402 0.4287,-0.20772 0.67115,-0.37226 0.44487,-0.30189 1.09675,-0.53783 1.329,-0.48101 0.36111,0.0883 0.86313,0.0316 1.04336,-0.11802 0.19167,-0.15907 0.36652,-0.19499 1.49441,-0.30702 0.25013,-0.0248 0.79857,-0.1426 1.21875,-0.26167 0.42594,-0.12071 0.94397,-0.18273 1.17079,-0.14018 0.22375,0.042 0.57653,0.0118 0.78396,-0.0671 0.21383,-0.0813 0.42608,-0.0944 0.49017,-0.0303 0.36718,0.36719 -0.95703,1.1094 -1.74979,0.98076 -0.7297,-0.11842 -1.21518,0.14317 -1.46117,0.7873 -0.18363,0.48083 -0.28016,0.56605 -0.81773,0.72198 -0.33523,0.0972 -0.76666,0.29902 -0.95873,0.4484 -0.19207,0.14937 -0.49784,0.37574 -0.67951,0.50304 -0.18166,0.1273 -0.37873,0.41966 -0.43792,0.64969 -0.0938,0.36462 -0.16915,0.42341 -0.58739,0.45857 -0.28224,0.0237 -0.47975,-0.0175 -0.47975,-0.10024 z"
     style="fill:#68bfe5;fill-opacity:1;fill-rule:evenodd;stroke:#68bfe5;stroke-width:1;stroke-linecap:round;stroke-linejoin:round;stroke-miterlimit:4;stroke-opacity:1;stroke-dasharray:none;stroke-dashoffset:0" /><path
     inkscape:connector-curvature="0"
     id="path5785"
     d="m 412.74926,261.40013 c -0.75149,-0.94509 -1.2153,-1.97387 -1.2153,-2.69569 0,-0.3674 -0.0936,-0.98559 -0.20806,-1.37376 -0.17204,-0.58354 -0.35767,-0.84539 -1.07199,-1.5121 -0.47515,-0.44349 -1.06857,-0.90002 -1.3187,-1.01452 -0.25013,-0.1145 -0.54249,-0.37745 -0.64969,-0.58434 -0.1072,-0.20689 -0.65651,-0.85349 -1.22069,-1.4369 l -1.02579,-1.06073 -0.57445,0.0787 c -0.55999,0.0768 -0.57342,0.0702 -0.53347,-0.26108 0.0312,-0.25856 0.14974,-0.37476 0.49577,-0.48595 0.3464,-0.11129 0.48442,-0.24677 0.57911,-0.56842 l 0.12432,-0.42229 2.95701,0 2.957,0 0.52119,0.55223 c 0.39156,0.41488 0.522,0.66046 0.52445,0.98737 0.002,0.30854 0.11135,0.53612 0.37482,0.78224 0.20437,0.1909 0.40996,0.46803 0.45687,0.61584 0.17359,0.54694 0.17203,1.43994 -0.003,1.67922 -0.23963,0.32771 -0.22072,0.66965 0.0597,1.08029 0.12955,0.1897 0.24686,0.51799 0.26068,0.72954 0.0138,0.21155 0.17094,0.60498 0.34916,0.87429 0.19353,0.29244 0.32404,0.67656 0.32404,0.95368 0,0.25521 0.0807,0.62192 0.17926,0.8149 0.44088,0.86298 0.40216,1.09694 -0.32368,1.95524 -0.60186,0.71169 -0.72855,0.79948 -1.15366,0.79948 -0.39633,0 -0.54345,-0.0829 -0.865,-0.48727 z"
     style="fill:#68bfe5;fill-opacity:1;fill-rule:evenodd;stroke:#68bfe5;stroke-width:1;stroke-linecap:round;stroke-linejoin:round;stroke-miterlimit:4;stroke-opacity:1;stroke-dasharray:none;stroke-dashoffset:0" /><path
     inkscape:connector-curvature="0"
     id="path5787"
     d="m 590.00803,274.55275 c -0.003,-0.6378 -0.32247,-0.97096 -0.92969,-0.97096 -0.40262,0 -0.64766,-0.10201 -1.06462,-0.44319 -0.29789,-0.24376 -0.75889,-0.48378 -1.02445,-0.53338 -0.6489,-0.12121 -0.71734,-0.41525 -0.30586,-1.31404 0.18365,-0.40115 0.33391,-0.87128 0.33391,-1.04474 0,-0.1826 0.14984,-0.44425 0.35589,-0.62149 0.31211,-0.26847 0.54099,-0.31724 1.86106,-0.39656 l 1.50517,-0.0904 0.64024,0.39118 c 0.35213,0.21515 0.90337,0.46059 1.22496,0.54543 0.71952,0.18981 0.90957,0.33774 0.90957,0.70799 0,0.1581 0.179,0.44695 0.39778,0.64188 0.49386,0.44003 0.4674,0.84656 -0.0729,1.12073 -0.2144,0.10879 -0.58013,0.3116 -0.81273,0.45068 -0.2326,0.13909 -0.87547,0.40091 -1.42858,0.58183 -0.90319,0.29543 -1.03531,0.38191 -1.29662,0.8487 l -0.29096,0.51975 -0.002,-0.39338 0,0 z"
     style="fill:#68bfe5;fill-opacity:1;fill-rule:evenodd;stroke:#68bfe5;stroke-width:1;stroke-linecap:round;stroke-linejoin:round;stroke-miterlimit:4;stroke-opacity:1;stroke-dasharray:none;stroke-dashoffset:0" /><path
     inkscape:connector-curvature="0"
     id="path5789"
     d="m 565.96743,250.57015 c -0.60768,-0.3637 -1.49253,-1.22224 -1.97647,-1.9177 l -0.39388,-0.56603 0.33893,-0.33893 0.33892,-0.33893 0.71919,0.35273 c 0.39556,0.194 0.79911,0.35272 0.89679,0.35272 0.23959,0 0.62744,1.4717 0.57354,2.17628 l -0.0422,0.55205 -0.45478,-0.27219 z"
     style="fill:#68bfe5;fill-opacity:1;fill-rule:evenodd;stroke:#68bfe5;stroke-width:1;stroke-linecap:round;stroke-linejoin:round;stroke-miterlimit:4;stroke-opacity:1;stroke-dasharray:none;stroke-dashoffset:0" /><path
     inkscape:connector-curvature="0"
     id="path5791"
     d="m 541.0194,228.14784 c -0.48595,-0.27118 -0.70119,-0.3149 -1.27428,-0.25885 -0.84713,0.0828 -0.91422,-0.0291 -0.63366,-1.05711 0.11141,-0.40827 0.26577,-0.98646 0.34301,-1.28489 0.12833,-0.49578 0.19551,-0.56088 0.77868,-0.75458 0.7166,-0.23802 1.35842,-0.13749 2.23196,0.34957 0.43354,0.24173 0.48043,0.3264 0.5869,1.05994 0.1501,1.03407 -0.18265,1.9185 -0.80742,2.14613 -0.51577,0.18791 -0.5354,0.1847 -1.22519,-0.20021 z"
     style="fill:#68bfe5;fill-opacity:1;fill-rule:evenodd;stroke:#68bfe5;stroke-width:1;stroke-linecap:round;stroke-linejoin:round;stroke-miterlimit:4;stroke-opacity:1;stroke-dasharray:none;stroke-dashoffset:0" /><path
     inkscape:connector-curvature="0"
     id="path5793"
     d="m 574.45942,176.8152 c -0.40706,-0.0512 -0.40794,-0.053 -0.21599,-0.43775 0.14823,-0.29714 0.16127,-0.47664 0.0565,-0.77727 -0.0895,-0.25676 -0.0934,-0.50361 -0.0114,-0.71934 0.0687,-0.18065 0.12487,-0.61906 0.12487,-0.97425 0,-0.59822 0.0185,-0.63589 0.25134,-0.51129 0.33517,0.17938 0.86434,0.17029 1.16919,-0.0201 0.19415,-0.12125 0.29189,-0.11782 0.45302,0.0159 0.113,0.0938 0.20546,0.23267 0.20546,0.30865 0,0.076 0.11587,0.26147 0.25748,0.41222 0.25721,0.27378 0.25712,0.27463 -0.0772,0.76657 -0.18406,0.27087 -0.44727,0.74706 -0.5849,1.05821 -0.13764,0.31115 -0.36604,0.60247 -0.50755,0.64739 -0.14152,0.0449 -0.25731,0.1362 -0.25731,0.20285 0,0.12121 -0.0983,0.12442 -0.86352,0.0282 z"
     style="fill:#68bfe5;fill-opacity:1;fill-rule:evenodd;stroke:#68bfe5;stroke-width:1;stroke-linecap:round;stroke-linejoin:round;stroke-miterlimit:4;stroke-opacity:1;stroke-dasharray:none;stroke-dashoffset:0" /><path
     inkscape:connector-curvature="0"
     id="path5795"
     d="m 555.05267,198.32015 c -0.85222,-0.4911 -0.85718,-0.49743 -0.95617,-1.21967 -0.15207,-1.10949 0.51817,-2.13912 1.2697,-1.9505 0.29743,0.0746 0.33616,0.14978 0.33616,0.65222 0,0.77332 0.33155,1.17322 0.95798,1.15547 0.42961,-0.0122 0.47133,0.0179 0.47133,0.3402 0,0.41567 -0.81872,1.44131 -1.14708,1.43697 -0.1195,-0.002 -0.53886,-0.18819 -0.93192,-0.41469 z"
     style="fill:#68bfe5;fill-opacity:1;fill-rule:evenodd;stroke:#68bfe5;stroke-width:1;stroke-linecap:round;stroke-linejoin:round;stroke-miterlimit:4;stroke-opacity:1;stroke-dasharray:none;stroke-dashoffset:0" /><path
     inkscape:connector-curvature="0"
     id="path5797"
     d="m 590.01163,274.57202 c -0.007,-0.55097 -0.35395,-0.8814 -1.03899,-0.99094 -0.30417,-0.0486 -0.74229,-0.23279 -0.9736,-0.40922 -0.23132,-0.17643 -0.64575,-0.39875 -0.92097,-0.49403 -0.76499,-0.26484 -0.81912,-0.45477 -0.4121,-1.44587 0.19324,-0.47056 0.35135,-0.96838 0.35135,-1.10626 0,-0.27289 0.82716,-0.97987 1.01246,-0.86535 0.0628,0.0388 0.671,0.007 1.35164,-0.0701 1.23492,-0.14028 1.23882,-0.13981 1.85847,0.22333 0.34152,0.20014 0.97609,0.49249 1.41014,0.64966 0.6289,0.22772 0.80776,0.35515 0.88056,0.62739 0.0503,0.1879 0.24254,0.52129 0.42731,0.74087 0.54661,0.64961 0.45967,0.8438 -0.64058,1.43092 -0.42498,0.22679 -1.06616,0.51464 -1.42486,0.63967 -1.11977,0.39035 -1.37914,0.5542 -1.63087,1.03029 l -0.24421,0.46189 -0.006,-0.4223 0,0 z"
     style="fill:#68bfe5;fill-opacity:1;fill-rule:evenodd;stroke:#68bfe5;stroke-width:1;stroke-linecap:round;stroke-linejoin:round;stroke-miterlimit:4;stroke-opacity:1;stroke-dasharray:none;stroke-dashoffset:0" /><path
     inkscape:connector-curvature="0"
     id="path5799"
     d="m 573.85585,347.66342 c -0.0966,-0.16161 -0.36151,-0.6047 -0.58868,-0.98465 -0.22718,-0.37994 -0.41305,-0.82929 -0.41305,-0.99856 0,-0.16926 -0.0548,-0.452 -0.12188,-0.62832 -0.0985,-0.25917 -0.0501,-0.4338 0.25309,-0.91183 0.32673,-0.5152 1.44771,-1.50079 1.71741,-1.50998 0.36725,-0.0125 0.80017,1.41385 0.93186,3.07026 l 0.0811,1.01955 -0.48872,0.53074 c -0.6204,0.67375 -1.1244,0.82549 -1.37109,0.41279 l 0,0 z"
     style="fill:#68bfe5;fill-opacity:1;fill-rule:evenodd;stroke:#68bfe5;stroke-width:1;stroke-linecap:round;stroke-linejoin:round;stroke-miterlimit:4;stroke-opacity:1;stroke-dasharray:none;stroke-dashoffset:0" /><path
     inkscape:connector-curvature="0"
     id="path5801"
     d="m 225.01978,243.83875 c 0,-3.70579 0.0524,-6.28007 0.13575,-6.66873 0.12277,-0.57242 0.19139,-0.66005 0.71693,-0.91537 1.70139,-0.8266 2.88192,-2.72612 2.35307,-3.78621 -0.10697,-0.21443 -0.23488,-0.82088 -0.28425,-1.34767 -0.0723,-0.77175 -0.0471,-1.04019 0.12965,-1.38205 0.16134,-0.312 0.25774,-0.38594 0.36427,-0.27941 0.32449,0.3245 1.15184,0.13053 1.74451,-0.40899 0.24313,-0.22133 0.34296,-0.23927 0.64969,-0.1168 0.19933,0.0796 0.62181,0.2008 0.93886,0.26937 0.75895,0.16414 1.18138,-0.0203 2.05183,-0.89581 0.79191,-0.79652 0.97473,-1.36586 0.6437,-2.0046 -0.7047,-1.35977 -0.89216,-1.96783 -0.8649,-2.80537 0.0515,-1.5834 0.0165,-2.05382 -0.18169,-2.43701 -0.23899,-0.46216 -1.05417,-1.20124 -1.32492,-1.20124 -0.10722,0 -0.33373,-0.0909 -0.50335,-0.20207 -0.16962,-0.11114 -0.5908,-0.27194 -0.93596,-0.35733 -0.72073,-0.17831 -0.856,-0.4496 -0.43441,-0.8712 0.21211,-0.21211 0.26791,-0.40451 0.23784,-0.82009 l -0.0393,-0.54297 0.53853,-0.0722 c 0.29619,-0.0397 0.61668,-0.13398 0.71219,-0.20948 0.0955,-0.0755 0.3294,-0.1744 0.51972,-0.21979 0.50157,-0.11962 1.41457,-1.01704 1.45904,-1.43414 0.0204,-0.19162 0.10504,-0.41629 0.18801,-0.49927 0.083,-0.083 0.15087,-0.2224 0.15087,-0.30982 0,-0.34769 0.70773,-0.96617 1.59676,-1.39539 0.58713,-0.28347 1.30093,-0.78737 1.91156,-1.34946 0.88411,-0.81383 1.0529,-0.91326 1.81913,-1.07153 0.66628,-0.13764 0.9337,-0.26777 1.26668,-0.6164 0.55292,-0.57891 0.63737,-0.97557 0.40092,-1.88314 -0.18427,-0.70726 -0.18142,-0.76085 0.0517,-0.97182 0.21514,-0.19471 0.23602,-0.34029 0.16311,-1.13752 -0.046,-0.50283 -0.0279,-1.06041 0.0402,-1.23908 l 0.12378,-0.32484 0.29183,0.49202 c 0.34993,0.58999 0.84482,0.87363 1.35434,0.77623 0.21908,-0.0419 0.75729,-0.43164 1.29704,-0.93929 0.6248,-0.58765 1.16471,-0.96428 1.67276,-1.1669 0.94808,-0.37811 1.66321,-0.89442 1.91354,-1.38154 0.3289,-0.64001 0.61697,-0.76909 1.71647,-0.76909 1.21488,0 1.45594,-0.1663 1.42396,-0.98241 -0.0159,-0.40675 0.059,-0.6355 0.3033,-0.92583 0.22533,-0.26779 0.32446,-0.54135 0.32446,-0.89538 0,-0.5095 3e-4,-0.50978 0.52829,-0.50978 0.29056,0 0.63354,-0.0563 0.76217,-0.12517 0.21109,-0.11297 0.24254,-0.0402 0.32271,0.74714 0.0984,0.96613 0.41797,2.19174 0.60103,2.30487 0.065,0.0402 0.0834,0.3263 0.041,0.63586 -0.0948,0.69133 0.14045,1.45657 0.50819,1.65337 0.15057,0.0806 0.3908,0.25555 0.53384,0.38882 0.46387,0.43216 1.52746,0.2425 1.7828,-0.3179 0.11224,-0.24635 0.0742,-0.46004 -0.19651,-1.10316 -0.19335,-0.4594 -0.33571,-1.04596 -0.33571,-1.38326 0,-0.48443 -0.0573,-0.62318 -0.33149,-0.80284 -0.56297,-0.36887 -0.9664,-1.47798 -0.53761,-1.47798 0.0937,0 0.28913,-0.11061 0.43423,-0.24579 0.17052,-0.15886 0.38082,-0.22342 0.59466,-0.18254 0.52634,0.10062 0.86746,-0.16395 0.96035,-0.74484 0.13614,-0.85141 1.15973,-1.30964 1.84822,-0.8274 0.17768,0.12445 0.45563,0.18517 0.69011,0.15075 0.33981,-0.0499 0.4341,0.008 0.70107,0.43101 0.363,0.57503 0.66509,0.7018 1.17813,0.49441 0.20597,-0.0833 0.79452,-0.15784 1.3079,-0.16573 0.8498,-0.0131 0.97013,-0.0493 1.34346,-0.40416 0.22553,-0.21439 0.48808,-0.53908 0.58345,-0.72152 0.17672,-0.33808 0.17527,-1.54436 -0.003,-2.23456 -0.0785,-0.30454 -0.0523,-0.35733 0.17726,-0.35733 0.29446,0 0.5384,-0.34936 0.5384,-0.77108 0,-0.19796 0.0833,-0.26842 0.31718,-0.26842 0.17445,0 0.35331,0.0585 0.39748,0.12994 0.10772,0.1743 1.57356,0.16619 1.90377,-0.0105 0.31555,-0.16888 0.46447,-0.0648 0.25992,0.18167 -0.1663,0.20039 -0.16658,1.68606 -3.9e-4,2.14154 0.15526,0.42556 0.86746,0.67589 1.92293,0.67589 1.09361,0 1.89425,-0.285 2.14417,-0.76325 0.0981,-0.18767 0.35895,-0.51296 0.57973,-0.72286 0.22077,-0.2099 0.40141,-0.46475 0.40141,-0.56632 0,-0.19146 0.2745,-0.16279 0.9688,0.10118 l 0.33058,0.12569 0,27.9398 0,27.93981 -24.94803,0 -24.94802,0 0,-6.0357 z"
     style="fill:#ce1126;fill-opacity:1;fill-rule:evenodd;stroke:#ce1126;stroke-width:1;stroke-linecap:round;stroke-linejoin:round;stroke-miterlimit:4;stroke-opacity:1;stroke-dasharray:none;stroke-dashoffset:0" /><path
     inkscape:connector-curvature="0"
     id="path5803"
     d="m 351.7826,149.57491 c -0.10736,-0.20763 -0.2989,-0.48144 -0.42563,-0.60846 -0.18082,-0.18125 -0.23042,-0.44723 -0.23042,-1.23563 0,-0.86286 -0.0413,-1.04868 -0.29236,-1.31649 -0.30419,-0.32445 -0.38697,-0.80598 -0.16242,-0.94477 0.26969,-0.16667 0.13008,-0.70677 -0.2566,-0.99265 -0.23658,-0.17491 -0.37821,-0.39066 -0.36506,-0.55613 0.0118,-0.14869 -0.0906,-0.64308 -0.22763,-1.09866 -0.18965,-0.63061 -0.32729,-0.8632 -0.57668,-0.97453 -0.3862,-0.17238 -0.90296,-0.72299 -0.9088,-0.96832 -0.002,-0.0948 -0.1814,-0.34972 -0.3981,-0.56641 -0.21669,-0.2167 -0.47659,-0.59167 -0.57754,-0.83328 -0.11703,-0.28009 -0.35095,-0.51911 -0.64551,-0.65958 -0.52002,-0.24798 -0.58635,-0.53906 -0.20209,-0.88682 0.27177,-0.24595 0.35368,-0.90122 0.12994,-1.0395 -0.23732,-0.14667 -0.13444,-0.55188 0.19491,-0.76768 0.17866,-0.11706 0.32484,-0.32128 0.32484,-0.45381 0,-0.13254 0.0877,-0.31376 0.19491,-0.40273 0.1072,-0.089 0.19491,-0.32495 0.19491,-0.52442 0,-0.28481 -0.16978,-0.50451 -0.79099,-1.02359 -0.76452,-0.63881 -0.81801,-0.66093 -1.59824,-0.66093 -0.83687,0 -1.11909,-0.13828 -1.11909,-0.54832 0,-0.13006 -0.14691,-0.4692 -0.32647,-0.75364 -0.25553,-0.40477 -0.40663,-0.51717 -0.69527,-0.51717 -0.45397,0 -1.18217,0.23645 -1.45731,0.47318 -0.12852,0.11059 -0.52893,0.17651 -1.0721,0.17651 l -0.86697,0 -0.74702,0.7682 c -1.0407,1.07019 -1.67241,1.47619 -2.01316,1.29382 -0.14508,-0.0776 -0.4637,-0.10873 -0.70804,-0.0691 -0.24434,0.0396 -0.73333,0.0379 -1.08665,-0.004 l -0.6424,-0.0761 0,-0.49398 c 0,-0.2717 -0.052,-0.52613 -0.11558,-0.56542 -0.19713,-0.12184 -0.23794,-0.9817 -0.0538,-1.13449 0.21203,-0.17597 0.21381,-0.88803 0.003,-1.14988 -0.0871,-0.10807 -0.31218,-0.26446 -0.50026,-0.34754 -0.25703,-0.11354 -0.35544,-0.26644 -0.39621,-0.61562 -0.0444,-0.38076 -0.012,-0.46457 0.17955,-0.46457 0.33244,0 0.75354,-0.46421 0.75354,-0.83069 0,-0.17102 0.0882,-0.34479 0.19603,-0.38617 0.10781,-0.0414 0.26338,-0.22304 0.3457,-0.40371 0.0922,-0.20237 0.25641,-0.32849 0.42767,-0.32849 0.1529,0 0.33972,-0.0617 0.41517,-0.13717 0.0963,-0.0963 0.18684,-0.0172 0.30377,0.26505 0.52316,1.26304 2.12325,0.94022 2.88812,-0.58266 0.42535,-0.8469 0.58467,-1.09754 0.65373,-1.02847 0.0396,0.0396 0.30664,-0.0476 0.59334,-0.19387 0.54015,-0.27556 0.89398,-0.92392 0.73306,-1.34325 -0.0761,-0.1983 0.0263,-0.33192 0.51009,-0.6659 0.16367,-0.11298 0.24161,-0.31632 0.23487,-0.61277 -0.0269,-1.18078 -0.0166,-1.22097 0.42647,-1.67719 0.24342,-0.25063 0.50267,-0.61539 0.57611,-0.81059 0.11786,-0.31323 0.18362,-0.34609 0.55997,-0.27978 0.23454,0.0413 0.61157,0.15759 0.83784,0.25838 0.53543,0.2385 0.98964,0.0705 1.20317,-0.44499 0.22881,-0.5524 0.63662,-0.62691 0.83599,-0.15275 0.0859,0.20424 0.44171,0.62271 0.79075,0.92995 0.59025,0.51956 0.6899,0.55989 1.42534,0.57688 0.979,0.0226 1.8952,0.17917 1.8952,0.32385 0,0.17558 0.51627,0.40263 1.49196,0.65614 1.80408,0.46875 2.14629,0.25674 2.14629,-1.32966 l 0,-1.00229 0.40613,-0.14157 c 0.22336,-0.0779 0.61963,-0.10744 0.88058,-0.0657 0.44099,0.0705 0.51774,0.0296 1.08816,-0.58022 0.33753,-0.36086 0.6137,-0.7701 0.6137,-0.90944 0,-0.39284 1.22028,-1.34696 1.77944,-1.39133 0.51895,-0.0412 1.3951,-0.78302 1.52202,-1.2887 0.0589,-0.23453 0.24348,-0.33155 0.9642,-0.50672 0.49027,-0.11916 0.98959,-0.17898 1.10959,-0.13293 0.31859,0.12225 0.13994,0.91905 -0.32621,1.45492 -0.35929,0.41303 -0.47713,0.96645 -0.27185,1.27673 0.14314,0.21635 0.88921,0.57036 1.20203,0.57036 0.15118,0 0.38183,-0.0572 0.51256,-0.1272 0.17267,-0.0924 0.28131,-0.0746 0.39718,0.065 0.19437,0.2342 0.55953,0.24153 1.18456,0.0238 0.694,-0.24181 0.89217,-0.45611 0.89217,-0.9648 0,-0.33963 -0.10208,-0.54707 -0.41147,-0.83607 -0.49198,-0.45959 -0.66519,-1.17564 -0.41012,-1.69548 0.10513,-0.21424 0.41131,-0.45704 0.78461,-0.62216 0.77969,-0.3449 1.07648,-0.61591 1.07648,-0.98297 0,-0.2059 0.11198,-0.33103 0.37975,-0.42438 0.48577,-0.16934 0.6969,-0.56944 0.63622,-1.2057 -0.0523,-0.54857 0.10196,-0.70353 0.42311,-0.42497 0.11257,0.0976 0.37569,0.18872 0.58472,0.2024 0.20903,0.0137 0.48465,0.13081 0.6125,0.2603 0.13216,0.13385 0.41962,0.23543 0.66627,0.23543 0.23859,0 0.5066,0.0877 0.59556,0.19491 0.27531,0.33172 1.77555,0.16424 2.18356,-0.24377 0.27709,-0.2771 0.21783,-1.05764 -0.11589,-1.5263 -0.23589,-0.33129 -0.35092,-0.38499 -0.75082,-0.35054 -0.38142,0.0329 -0.47017,-0.003 -0.46142,-0.18624 0.006,-0.12482 0.0206,-0.56962 0.0325,-0.98846 l 0.0217,-0.76152 0.76374,-0.40707 c 1.43272,-0.76363 2.09396,-1.87691 1.64698,-2.77289 -0.11098,-0.22247 -0.20178,-0.50076 -0.20178,-0.61841 0,-0.11766 -0.0702,-0.2841 -0.15593,-0.36985 -0.12127,-0.12128 -0.0751,-0.15593 0.20774,-0.15593 0.23496,0 0.49009,-0.13533 0.72086,-0.38237 0.19645,-0.2103 0.51695,-0.42247 0.71221,-0.47148 0.19527,-0.049 0.41672,-0.2245 0.49212,-0.38998 0.13598,-0.29845 0.13878,-0.29879 0.34693,-0.0419 0.22824,0.28171 0.90846,0.50177 1.84683,0.59748 0.56962,0.0581 0.61904,0.0358 1.05968,-0.47903 0.49124,-0.5739 1.02323,-0.80123 2.2773,-0.97311 0.45765,-0.0627 0.74624,-0.0441 0.86694,0.0561 0.35647,0.29584 1.57387,0.65491 2.22044,0.65491 0.50017,0 0.79752,-0.0884 1.23625,-0.36762 0.72244,-0.45975 0.86834,-0.63775 0.9235,-1.12667 l 0.044,-0.38981 31.23121,-0.0328 31.23121,-0.0327 -0.4228,0.48155 c -0.38819,0.44211 -0.79744,0.65043 -2.1157,1.07689 -0.20192,0.0653 -0.58674,0.31717 -0.85514,0.55965 -0.3547,0.32045 -0.7715,0.51738 -1.52581,0.72092 -0.57079,0.15401 -1.17999,0.28266 -1.35379,0.28589 -0.42624,0.008 -0.85028,0.2213 -1.64804,0.82936 -0.60558,0.46158 -0.75535,0.67419 -0.99058,1.4062 -0.0486,0.15118 -0.20648,0.22739 -0.47113,0.22739 -0.57138,0 -1.16629,0.28184 -1.74301,0.82575 -0.2762,0.26049 -0.5602,0.47363 -0.6311,0.47363 -0.0709,0 -0.34046,0.13116 -0.59902,0.29146 -0.25857,0.16031 -0.64554,0.37958 -0.85993,0.48727 -0.29575,0.14855 -0.42285,0.33279 -0.52671,0.76351 -0.0978,0.40552 -0.23653,0.61992 -0.48563,0.75044 -0.38058,0.1994 -0.74182,0.78823 -0.74182,1.20918 0,0.14648 -0.11994,0.38626 -0.26652,0.53285 -0.29585,0.29584 -0.25625,0.60068 0.15363,1.18285 0.32055,0.4553 0.30666,0.51753 -0.0825,0.36956 -0.42279,-0.16074 -0.85479,0.0354 -1.24919,0.56709 -0.52576,0.7088 -0.33653,1.77198 0.31539,1.77198 0.25501,0 0.25173,0.0177 -0.0663,0.35733 -0.18401,0.19653 -0.3718,0.48101 -0.41732,0.63217 -0.067,0.22252 -0.22305,0.29134 -0.81959,0.36145 -0.45944,0.054 -0.94732,0.21957 -1.29595,0.43981 -0.61275,0.38709 -0.71473,0.63854 -0.5141,1.26762 0.072,0.22588 0.0224,0.2694 -0.33786,0.29659 -0.57729,0.0436 -0.93187,0.42674 -0.91591,0.98979 0.007,0.24899 -0.069,0.52064 -0.16907,0.60367 -0.10004,0.083 -0.1819,0.22362 -0.1819,0.31243 0,0.0888 -0.12589,0.32152 -0.27975,0.51712 -0.15386,0.19561 -0.35245,0.56895 -0.4413,0.82964 -0.13934,0.40882 -0.24117,0.49428 -0.74073,0.62165 -0.31855,0.0812 -0.70449,0.21474 -0.85765,0.29671 -0.29417,0.15743 -0.79907,1.02689 -0.79907,1.37603 0,0.39358 0.37938,0.9374 0.76554,1.09736 0.33759,0.13983 0.37278,0.2007 0.2709,0.46868 -0.0768,0.2019 -0.059,0.50114 0.0517,0.86883 0.18529,0.61569 0.18543,0.61512 -0.51891,2.18403 -0.40101,0.89327 -0.4301,1.03929 -0.32214,1.61717 0.0653,0.34939 0.22297,0.71151 0.35044,0.80472 0.43041,0.31472 1.36221,0.20428 2.31315,-0.27416 1.21736,-0.61249 2.47509,-0.947 2.73854,-0.72836 0.10889,0.0904 0.19797,0.26503 0.19797,0.38813 0,0.30784 0.44161,0.68071 0.80453,0.6793 0.16497,-6.5e-4 0.5612,-0.0453 0.88051,-0.0992 l 0.58058,-0.098 -0.46779,0.41073 c -0.56135,0.49287 -0.97724,0.51791 -1.38917,0.0836 -0.61204,-0.64525 -1.35416,-0.3168 -1.34159,0.59376 0.009,0.62895 -0.13874,0.80268 -0.5505,0.64872 -0.1489,-0.0557 -1.1049,-0.10238 -2.12445,-0.10381 -1.76888,-0.002 -1.86425,0.0108 -2.08358,0.28962 -0.27726,0.35247 -1.38822,0.7018 -1.96342,0.61738 -0.2415,-0.0354 -0.49733,-0.18517 -0.60987,-0.35693 -0.2798,-0.42703 -0.76127,-0.58278 -1.90703,-0.61689 -0.74404,-0.0222 -1.04023,0.0172 -1.12226,0.14898 -0.0859,0.13812 -0.30057,0.15832 -0.93806,0.0883 -0.45465,-0.05 -1.03128,-0.10376 -1.28141,-0.11959 -0.25013,-0.0158 -0.61272,-0.13349 -0.80575,-0.26147 -0.44905,-0.29773 -0.774,-0.19602 -1.45047,0.45399 -0.28865,0.27737 -0.55915,0.5043 -0.60111,0.5043 -0.042,0 -0.30566,-0.11694 -0.58602,-0.25988 -0.28035,-0.14293 -0.62892,-0.25859 -0.77461,-0.25702 -0.42914,0.005 -1.33791,0.47308 -1.42062,0.73232 -0.0701,0.21969 -1.29543,0.82408 -1.67072,0.82408 -0.17988,0 2.04372,-2.28258 2.43664,-2.50127 0.14293,-0.0795 0.58147,-0.15026 0.97453,-0.15713 0.61374,-0.0107 0.81244,-0.0836 1.40713,-0.51576 0.89576,-0.65101 1.43005,-1.71293 1.19565,-2.37639 -0.10467,-0.29627 -0.10784,-0.49247 -0.0109,-0.67363 0.21849,-0.40827 0.16697,-1.2454 -0.0906,-1.47183 -0.53386,-0.46933 -2.34592,-1.12118 -2.62951,-0.94591 -0.0632,0.0391 -0.26218,-0.0763 -0.44221,-0.25632 -0.18003,-0.18003 -0.40831,-0.32733 -0.50729,-0.32733 -0.099,0 -0.24376,-0.14004 -0.32174,-0.3112 -0.14962,-0.32837 -1.47655,-1.02256 -1.84099,-0.96312 -0.1116,0.0182 -0.35656,-0.12169 -0.54435,-0.31085 -0.1878,-0.18917 -0.5971,-0.41369 -0.90957,-0.49892 -0.31246,-0.0852 -0.74913,-0.24435 -0.97037,-0.35358 -0.32372,-0.15982 -0.65349,-0.18003 -1.68918,-0.10354 -1.60259,0.11836 -1.79463,0.1186 -3.23601,0.004 -1.99733,-0.15865 -3.38089,0.1758 -4.35291,1.05222 -0.17866,0.1611 -0.56653,0.35686 -0.86194,0.43504 -0.62839,0.16629 -0.84624,0.3874 -0.88654,0.8998 -0.0161,0.20452 -0.12628,0.51038 -0.24486,0.67967 -0.11858,0.1693 -0.2156,0.42177 -0.2156,0.56105 0,0.13928 -0.26305,0.50529 -0.58456,0.81335 -0.53889,0.51634 -0.6358,0.55895 -1.2403,0.54533 -0.50639,-0.0114 -0.72376,0.0491 -0.95436,0.26576 -0.16424,0.15429 -0.55627,0.4105 -0.87118,0.56934 -0.42104,0.21238 -0.58121,0.37478 -0.60521,0.61366 -0.0788,0.78419 -0.33693,1.75015 -0.57597,2.15528 -0.1425,0.24152 -0.23497,0.51148 -0.20549,0.59991 0.0966,0.28991 -0.77758,0.63698 -1.56873,0.6228 -0.99064,-0.0178 -2.0726,0.16482 -2.59177,0.43735 -0.40979,0.21512 -0.44114,0.21381 -0.78755,-0.0328 -0.51282,-0.36516 -1.02456,-0.46676 -1.38349,-0.27467 -0.39909,0.21359 -0.48802,0.6006 -0.24568,1.06924 0.16074,0.31083 0.16599,0.41553 0.0291,0.58045 -0.17334,0.20886 -0.34961,1.39745 -0.4389,2.95949 -0.0373,0.65243 -0.12449,0.99739 -0.31199,1.23441 -0.45602,0.57643 -1.03218,1.86724 -1.12241,2.5146 -0.0489,0.35098 -0.21501,0.77948 -0.37774,0.97454 -0.4058,0.48641 -0.71644,1.12543 -0.71879,1.47862 -10e-4,0.17262 -0.0423,0.23762 -0.0974,0.15391 -0.0525,-0.0797 -0.24165,-0.19042 -0.42031,-0.24604 -0.17867,-0.0556 -0.39812,-0.2052 -0.48767,-0.33241 -0.0895,-0.12721 -0.36824,-0.29908 -0.6193,-0.38194 -0.41972,-0.13852 -0.52325,-0.11395 -1.28556,0.30507 l -0.82908,0.45572 -0.25927,-0.28253 c -0.14259,-0.15539 -0.30054,-0.48718 -0.35101,-0.73731 -0.0505,-0.25013 -0.1752,-0.58655 -0.27719,-0.74759 -0.23918,-0.37767 -1.02967,-0.87464 -1.72038,-1.08158 -0.37214,-0.11149 -0.561,-0.24812 -0.5995,-0.4337 -0.0309,-0.149 -0.12051,-0.56328 -0.19909,-0.92061 -0.0786,-0.35732 -0.19777,-0.91281 -0.26484,-1.2344 -0.14312,-0.68621 -0.57354,-1.12017 -1.23392,-1.24405 -0.35124,-0.0659 -0.52277,-0.029 -0.72821,0.15663 -0.27262,0.24633 -0.27933,0.64526 -0.0298,1.76959 0.0673,0.30326 0.0372,0.35733 -0.19892,0.35733 -0.17723,0 -0.32308,-0.11793 -0.40175,-0.32485 -0.14621,-0.38457 -0.0357,-0.3555 -1.49428,-0.39304 -0.81317,-0.0209 -1.25711,0.0245 -1.45723,0.14899 -0.15828,0.0985 -0.39772,0.17909 -0.53209,0.17909 -0.35862,0 -0.7156,0.46174 -0.70288,0.90917 0.006,0.21461 -0.0322,0.3902 -0.0851,0.3902 -0.0529,0 -0.19944,0.23389 -0.32556,0.51975 -0.12612,0.28586 -0.30373,0.51975 -0.39468,0.51975 -0.22733,0 -0.59546,0.42807 -0.59546,0.69241 0,0.1785 -0.13713,0.21716 -0.77034,0.21716 -0.96704,0 -1.21489,0.20545 -1.15559,0.95789 l 0.0418,0.53081 -0.70343,0.10223 c -0.89434,0.12998 -1.67105,0.55785 -2.05947,1.1345 -0.3598,0.53417 -0.30694,0.96821 0.16984,1.39454 l 0.32076,0.28682 -0.26958,0.5172 c -0.20995,0.4028 -0.23887,0.57459 -0.13074,0.77663 0.0764,0.14268 0.13883,0.28503 0.13883,0.31633 0,0.0866 -1.03431,0.25927 -1.65736,0.27675 -1.0726,0.0301 -1.62353,1.10129 -0.94039,1.82846 l 0.30418,0.32378 -3.78751,0 -3.7875,0 -0.19522,-0.3775 0,0 z"
     style="fill:#ce1126;fill-opacity:1;fill-rule:evenodd;stroke:#ce1126;stroke-width:1;stroke-linecap:round;stroke-linejoin:round;stroke-miterlimit:4;stroke-opacity:1;stroke-dasharray:none;stroke-dashoffset:0" /><path
     inkscape:connector-curvature="0"
     id="path5805"
     d="m 434.5551,131.69525 c -0.13256,-0.24614 -0.34832,-0.54464 -0.47948,-0.66334 -0.22882,-0.20708 -0.2216,-0.22428 0.17859,-0.42546 0.51142,-0.25709 0.94687,-0.88489 1.06705,-1.5384 0.0496,-0.26971 0.24051,-0.64886 0.42424,-0.84256 0.29512,-0.31114 0.4005,-0.34308 0.90403,-0.27407 0.45735,0.0627 0.62682,0.0273 0.85769,-0.17929 0.15825,-0.14158 0.62031,-0.32861 1.0268,-0.41562 0.90349,-0.19341 1.55068,-0.61048 1.67566,-1.07986 0.0515,-0.19357 0.20981,-0.51517 0.35172,-0.71465 0.14191,-0.19949 0.43961,-0.73777 0.66156,-1.19618 0.5377,-1.11057 0.63215,-1.19987 2.01087,-1.90111 0.65337,-0.33231 1.33412,-0.7405 1.51278,-0.90709 0.17867,-0.16659 0.50026,-0.34325 0.71466,-0.39258 0.61675,-0.14192 0.97453,-0.42318 0.97453,-0.76611 0,-0.23986 0.0889,-0.33104 0.3863,-0.39637 0.38467,-0.0845 1.04302,-0.72715 1.04302,-1.01817 0,-0.0841 0.19614,-0.42876 0.43588,-0.76595 0.33358,-0.46919 0.45518,-0.7977 0.5181,-1.39967 0.0452,-0.43263 0.16618,-0.94896 0.2688,-1.14741 0.21165,-0.40929 0.94558,-1.10021 2.13209,-2.00717 0.44636,-0.34119 0.87701,-0.76398 0.957,-0.93955 0.08,-0.17556 0.26813,-0.35635 0.41808,-0.40176 0.14996,-0.0454 0.47467,-0.23655 0.72158,-0.42479 0.24692,-0.18824 0.71095,-0.48843 1.0312,-0.66709 0.32024,-0.17867 0.86359,-0.67568 1.20744,-1.10447 0.34385,-0.4288 0.81156,-1.01352 1.03934,-1.29938 0.59488,-0.74655 1.58343,-1.47964 2.35905,-1.74944 0.36893,-0.12834 0.84621,-0.32442 1.0606,-0.43575 0.2144,-0.11133 0.79912,-0.33063 1.29938,-0.48732 1.06761,-0.33441 2.47846,-1.02316 2.88568,-1.40872 0.17259,-0.16342 0.4588,-0.27168 0.71823,-0.27168 0.5742,0 0.95505,-0.28778 1.14581,-0.8658 0.15821,-0.47937 0.70421,-1.07157 0.99496,-1.07916 0.0865,-0.002 0.26196,-0.11281 0.38981,-0.24566 0.12785,-0.13286 0.38927,-0.27916 0.58094,-0.32511 0.28565,-0.0685 0.36533,-0.0308 0.44187,0.20908 0.19224,0.60243 0.0709,1.30889 -0.27271,1.58723 -0.38296,0.31026 -0.62817,1.0412 -0.45675,1.36151 0.0928,0.17333 -0.12367,0.47512 -1.03651,1.4452 -1.26266,1.34186 -1.46655,1.77996 -1.33789,2.8748 0.0671,0.5713 0.0427,0.63593 -0.39283,1.0395 -0.48547,0.44983 -0.73701,0.95065 -0.73701,1.46737 0,0.20114 -0.17751,0.44605 -0.51975,0.71711 -0.32818,0.25992 -0.51975,0.51855 -0.51975,0.70167 0,0.16813 -0.19114,0.45923 -0.45479,0.69265 -0.58174,0.51504 -0.60017,0.98574 -0.065,1.65922 0.47582,0.59874 0.48526,0.71465 0.0582,0.71465 -0.18237,0 -0.54782,0.11163 -0.81211,0.24807 -0.26429,0.13643 -0.63639,0.31909 -0.82691,0.40591 -0.3571,0.16273 -0.49335,0.45354 -0.49643,1.05956 -0.002,0.29991 -0.12099,0.40787 -0.8466,0.76509 -1.00092,0.49275 -1.49405,0.94781 -1.49405,1.3787 0,0.48909 0.35423,1.05523 0.80662,1.28917 0.35866,0.18547 0.5235,0.19275 1.2647,0.0558 0.56989,-0.10528 1.02448,-0.11783 1.37202,-0.0379 0.28587,0.0658 0.73983,0.0936 1.00881,0.0619 0.7077,-0.0835 0.89818,0.12594 0.79845,0.87778 -0.0952,0.71752 0.0888,1.15038 0.76524,1.80038 l 0.45069,0.43308 -0.33511,1.02221 c -0.29616,0.90338 -0.31459,1.06056 -0.15852,1.35216 0.15358,0.28697 0.1465,0.38584 -0.0543,0.75876 -0.12701,0.23583 -0.20964,0.53835 -0.18363,0.67227 0.0431,0.22204 -0.52067,0.98072 -0.72879,0.98072 -0.0479,0 -0.1793,-0.0922 -0.292,-0.20491 -0.1866,-0.1866 -0.18577,-0.24508 0.009,-0.6541 0.11782,-0.24705 0.21421,-0.55311 0.21421,-0.68015 0,-0.31313 -0.47277,-0.79971 -0.77702,-0.79971 -0.13593,0 -0.28271,-0.0576 -0.32618,-0.12788 -0.16831,-0.27234 -0.89798,-0.35977 -1.30065,-0.15586 -0.53517,0.27102 -1.61004,0.2072 -1.95744,-0.11622 -0.14754,-0.13735 -0.32295,-0.251 -0.38981,-0.25254 -0.0669,-0.002 -0.20927,-0.18906 -0.31647,-0.4167 -0.12128,-0.25754 -0.32785,-0.44802 -0.54686,-0.50426 -0.19358,-0.0497 -0.51874,-0.20914 -0.72259,-0.35429 -0.20384,-0.14515 -0.54247,-0.29993 -0.75251,-0.34394 -0.21004,-0.044 -0.59383,-0.14256 -0.85288,-0.21898 -0.40385,-0.11913 -0.58981,-0.0914 -1.30448,0.19451 -0.45842,0.18339 -1.10445,0.40592 -1.43563,0.49449 l -0.60215,0.16105 -0.69213,-0.59016 c -0.40487,-0.34523 -0.88087,-0.62475 -1.1469,-0.6735 -1.16998,-0.21439 -1.37469,-0.21829 -1.68919,-0.0322 -0.17867,0.10571 -0.50724,0.27724 -0.73016,0.38118 -0.44273,0.20641 -0.8291,0.67382 -0.8291,1.003 0,0.11495 -0.14618,0.28724 -0.32484,0.38286 -0.17866,0.0956 -0.32484,0.25312 -0.32484,0.35002 0,0.41088 -1.46084,0.58522 -1.99132,0.23764 -0.35848,-0.23489 -1.09455,-0.0731 -1.44891,0.31845 -0.17393,0.1922 -0.28858,0.22401 -0.46571,0.12921 -0.92971,-0.49756 -2.23282,0.42505 -1.76956,1.25285 0.10902,0.19482 0.002,0.34898 -0.63759,0.92172 -0.42268,0.37827 -0.83107,0.68787 -0.90752,0.688 -0.0764,1.3e-4 -0.48614,0.37239 -0.91042,0.82724 l -0.77141,0.827 -1.15278,0.13437 c -0.63403,0.0739 -1.19144,0.19692 -1.23869,0.27337 -0.0488,0.079 -0.18996,-0.0542 -0.32692,-0.30851 l 0,0 z"
     style="fill:#ce1126;fill-opacity:1;fill-rule:evenodd;stroke:#ce1126;stroke-width:1;stroke-linecap:round;stroke-linejoin:round;stroke-miterlimit:4;stroke-opacity:1;stroke-dasharray:none;stroke-dashoffset:0" /><path
     inkscape:connector-curvature="0"
     id="path5807"
     d="m 467.16201,149.54443 c -0.53296,-0.4001 -0.61731,-0.53468 -0.76797,-1.22537 -0.0734,-0.3365 -0.001,-0.51447 0.45975,-1.13695 0.30073,-0.40591 0.61721,-0.73801 0.70331,-0.73801 0.19207,0 1.08015,-0.9499 1.5455,-1.65309 0.18869,-0.28512 0.61861,-0.70029 0.95539,-0.9226 0.33678,-0.2223 1.0309,-0.80083 1.54247,-1.28561 0.73471,-0.69623 0.96283,-1.00429 1.0857,-1.46615 0.0856,-0.32159 0.35573,-1.08173 0.60038,-1.68919 0.24465,-0.60745 0.58617,-1.61889 0.75893,-2.24762 0.23115,-0.84122 0.47141,-1.36359 0.90964,-1.97771 1.11149,-1.55761 1.90213,-2.46578 2.34618,-2.69493 0.55437,-0.28607 2.65384,-2.35544 3.08889,-3.04459 0.17871,-0.2831 0.50605,-0.69585 0.72743,-0.91723 0.22138,-0.22137 0.4025,-0.48451 0.4025,-0.58475 0,-0.10024 0.1527,-0.32401 0.33932,-0.49726 0.18663,-0.17326 0.56925,-0.65178 0.85027,-1.06338 0.41787,-0.61204 0.67265,-0.82979 1.39865,-1.1954 0.53532,-0.26958 1.06216,-0.65708 1.32722,-0.97617 0.37561,-0.45218 0.54143,-0.54524 1.14029,-0.6399 0.49258,-0.0779 0.7672,-0.19885 0.92439,-0.40724 0.36634,-0.48567 0.60366,-0.24135 0.97575,1.00453 0.18781,0.62888 0.4288,1.39052 0.53551,1.69253 0.17398,0.49238 0.17291,0.57928 -0.0104,0.84103 -0.13956,0.19925 -0.20446,0.58587 -0.20446,1.21803 0,0.81047 0.0459,0.98941 0.36752,1.43289 0.47507,0.65507 1.18796,1.27624 1.87752,1.63595 0.43974,0.22939 0.49781,0.297 0.29261,0.34068 -0.1408,0.03 -0.55731,0.22454 -0.92558,0.43237 -0.53119,0.29979 -0.71326,0.49228 -0.88095,0.93136 -0.11625,0.3044 -0.21137,0.67598 -0.21137,0.82572 0,0.18093 -0.13281,0.32726 -0.39594,0.43625 -0.43366,0.17963 -0.61898,0.47657 -0.97157,1.55672 -0.1283,0.39306 -0.33924,0.86083 -0.46875,1.0395 -0.28302,0.39043 -0.75847,1.87237 -0.76081,2.37136 -0.002,0.32637 -0.0442,0.35733 -0.4919,0.35733 -0.8044,0 -1.99991,0.79918 -3.01282,2.01403 -0.47669,0.57173 -0.9026,1.13574 -0.94647,1.25337 -0.0439,0.11762 -0.51763,0.42446 -1.05279,0.68186 -0.71101,0.34199 -1.04942,0.59164 -1.25677,0.92713 -0.15606,0.25252 -0.50439,0.57169 -0.77406,0.70927 -0.26967,0.13757 -0.64441,0.44273 -0.83274,0.67813 -0.44079,0.55093 -0.39884,0.51094 -1.33991,1.27734 -0.44278,0.3606 -0.84201,0.78479 -0.88718,0.94264 -0.0452,0.15786 -0.29562,0.71094 -0.55656,1.22906 l -0.47443,0.94205 -3.70596,-0.009 -3.70595,-0.009 -0.51975,-0.39019 0,0 z"
     style="fill:#ce1126;fill-opacity:1;fill-rule:evenodd;stroke:#ce1126;stroke-width:1;stroke-linecap:round;stroke-linejoin:round;stroke-miterlimit:4;stroke-opacity:1;stroke-dasharray:none;stroke-dashoffset:0" /><path
     inkscape:connector-curvature="0"
     id="path5809"
     d="m 474.57138,106.35834 c 0.22745,-0.66334 0.30962,-1.01924 0.25554,-1.10675 -0.0324,-0.0524 0.27952,-0.46797 0.69307,-0.92355 0.41356,-0.45558 0.89071,-1.06222 1.06034,-1.34808 0.16962,-0.28586 0.50385,-0.68581 0.74271,-0.88877 0.23887,-0.20297 0.52014,-0.53502 0.62506,-0.73791 0.18201,-0.35197 0.22265,-0.36558 0.88683,-0.29703 0.80235,0.0828 1.30915,-0.15703 1.44088,-0.68188 0.0708,-0.28222 0.15012,-0.31801 0.70452,-0.31801 0.62067,0 0.62434,0.003 0.56731,0.39109 -0.0409,0.27894 -0.14637,0.41341 -0.36769,0.46896 -0.41308,0.10368 -0.95921,0.76975 -0.95921,1.16986 0,0.31104 0.51315,0.95866 0.75961,0.95866 0.30024,0 0.74068,1.7199 0.60206,2.35103 -0.0687,0.31287 -0.14488,0.37616 -0.43022,0.35752 -0.46905,-0.0306 -1.19996,0.14409 -1.5126,0.36158 -0.14097,0.0981 -0.4149,0.17831 -0.60874,0.17831 -0.19385,0 -0.50054,0.0563 -0.68154,0.12512 -0.3123,0.11874 -0.3253,0.10617 -0.2548,-0.24634 0.0935,-0.46769 -0.31504,-0.91828 -0.83267,-0.91828 -0.59877,0 -2.1648,0.4875 -2.30358,0.7171 -0.0715,0.11823 -0.2078,0.31223 -0.30296,0.43111 -0.15627,0.1952 -0.1644,0.19096 -0.0839,-0.0437 z"
     style="fill:#ce1126;fill-opacity:1;fill-rule:evenodd;stroke:#ce1126;stroke-width:1;stroke-linecap:round;stroke-linejoin:round;stroke-miterlimit:4;stroke-opacity:1;stroke-dasharray:none;stroke-dashoffset:0" /><path
     inkscape:connector-curvature="0"
     id="path5811"
     d="m 468.29955,152.64862 c -0.24329,-0.26141 -0.25895,-0.36385 -0.14795,-0.96763 0.0964,-0.52435 0.081,-0.77844 -0.0688,-1.13695 l -0.19291,-0.46169 3.43672,0 c 1.89019,0 3.43672,0.0237 3.43672,0.0528 0,0.029 -0.2751,0.14649 -0.61133,0.26106 -0.33622,0.11456 -0.76015,0.34456 -0.94204,0.51109 -0.22262,0.20382 -0.62806,0.35443 -1.24029,0.46074 -0.5194,0.0902 -1.11739,0.29421 -1.39405,0.47565 -0.26646,0.17474 -0.56302,0.31771 -0.65902,0.31771 -0.096,0 -0.40423,0.17379 -0.68496,0.3862 -0.28073,0.21241 -0.54407,0.38782 -0.58522,0.38981 -0.0411,0.002 -0.19724,-0.12794 -0.3469,-0.28874 z"
     style="fill:#ffffff;fill-opacity:1;fill-rule:evenodd;stroke:#ce1126;stroke-width:1;stroke-linecap:round;stroke-linejoin:round;stroke-miterlimit:4;stroke-opacity:1;stroke-dasharray:none;stroke-dashoffset:0" /><path
     inkscape:connector-curvature="0"
     id="path5813"
     d="m 388.80852,99.829708 c 0.32146,-0.02822 0.68333,-0.140774 0.80415,-0.250114 0.19735,-0.178597 0.24983,-0.177678 0.51641,0.009 0.50151,0.351267 0.88312,0.257708 1.46151,-0.358312 0.47467,-0.50556 0.62893,-0.58381 1.44113,-0.731069 0.50026,-0.0907 1.05575,-0.156654 1.23441,-0.146561 0.17867,0.0101 0.79262,0.05197 1.36435,0.09307 1.26065,0.09061 1.76577,-0.115943 2.05937,-0.842132 0.28014,-0.692885 0.79305,-1.09982 2.07335,-1.64495 l 1.14415,-0.487164 0.4151,0.392733 c 0.2283,0.216003 0.54281,0.458222 0.69891,0.538263 0.4104,0.210433 1.27893,0.181266 1.47034,-0.04938 0.27508,-0.331449 0.77582,-0.22005 1.46017,0.324844 0.35903,0.285863 0.78715,0.51975 0.95137,0.51975 0.28899,0 0.70697,-0.30192 0.70697,-0.510668 0,-0.146734 1.47692,0.279533 1.74694,0.504201 0.29464,0.245156 2.18495,0.282803 2.58363,0.05145 0.15522,-0.09007 0.42839,-0.228817 0.60706,-0.308325 0.17866,-0.07951 0.63812,-0.352453 1.02102,-0.606543 0.68231,-0.45278 0.69458,-0.472017 0.61567,-0.96549 -0.0711,-0.444543 -0.0499,-0.503502 0.1809,-0.503502 0.19016,0 0.26141,0.08601 0.26141,0.315563 0,0.173559 0.10195,0.417517 0.22656,0.542128 0.12461,0.124611 0.28541,0.323589 0.35733,0.442173 0.83804,1.381786 1.61266,1.896985 2.23706,1.487861 0.16365,-0.10723 0.29755,-0.281323 0.29755,-0.386874 0,-0.227577 0.15158,-0.248233 0.35186,-0.04795 0.21315,0.213142 1.00576,-0.08397 1.17315,-0.439761 0.0748,-0.158907 0.13977,-0.663747 0.14447,-1.121867 0.007,-0.724224 -0.0393,-0.893826 -0.35834,-1.299376 -0.20178,-0.256537 -0.40416,-0.583375 -0.44972,-0.726307 -0.0456,-0.142931 -0.4333,-0.636887 -0.86164,-1.09768 l -0.77879,-0.837805 0.35116,-0.366531 c 0.33591,-0.350612 0.35705,-0.355584 0.48696,-0.114484 0.0747,0.138626 0.33624,0.490543 0.58122,0.782039 0.35885,0.426987 0.53049,0.529992 0.88312,0.529992 0.34673,0 0.48269,-0.07839 0.65417,-0.377165 0.18333,-0.319449 0.27796,-0.367185 0.61834,-0.311948 0.30409,0.04935 0.49896,-0.01647 0.80079,-0.270434 0.34681,-0.291824 0.42018,-0.472466 0.56189,-1.38342 0.15924,-1.023598 0.1561,-1.055107 -0.13589,-1.365922 -0.38275,-0.407411 -0.24902,-0.541826 0.28279,-0.284259 0.57101,0.276548 0.91614,0.119037 1.14317,-0.521732 0.16852,-0.475612 0.22718,-0.524456 0.61655,-0.513419 0.44445,0.0126 0.8091,-0.297105 0.8173,-0.694142 0.015,-0.72647 0.41361,-1.659665 0.94583,-2.214334 l 0.57121,-0.595298 0.79086,0.130796 c 0.64494,0.106662 0.84702,0.09484 1.09516,-0.06407 0.33377,-0.213743 1.2664,-0.216884 1.80579,-0.0061 0.38847,0.151819 1.19065,0.03005 1.79801,-0.272944 0.40365,-0.201368 0.44448,-0.198968 0.77522,0.04556 0.51346,0.379613 1.63811,0.485887 1.96937,0.186095 0.14184,-0.128359 0.25788,-0.312026 0.25788,-0.408148 0,-0.145216 2.16494,-0.174768 12.80343,-0.174768 12.61811,0 12.80148,0.0036 12.66892,0.251333 -0.074,0.138234 -0.13451,0.507852 -0.13451,0.821374 0,0.474817 -0.12987,0.772586 -0.77746,1.782545 -0.4276,0.666877 -0.81082,1.422844 -0.85158,1.679926 -0.0408,0.257082 -0.13158,0.555129 -0.20179,0.662328 -0.0702,0.107198 -0.19689,0.35585 -0.2815,0.552559 -0.0846,0.196709 -0.2543,0.38954 -0.37709,0.428513 -0.27056,0.08587 -1.01739,0.914659 -1.0227,1.134935 -0.002,0.08685 -0.17961,0.351208 -0.39448,0.587473 -0.281,0.308976 -0.46171,0.407025 -0.64372,0.349259 -0.3611,-0.114608 -0.90706,0.464275 -0.90706,0.961752 0,0.213428 -0.0654,0.428448 -0.14525,0.477821 -0.0909,0.05619 -0.11681,0.297245 -0.0692,0.644342 0.0701,0.511352 0.0507,0.560929 -0.24898,0.63614 -0.18307,0.04595 -0.39123,0.236047 -0.47666,0.435312 -0.0834,0.194559 -0.25692,0.509048 -0.38555,0.698865 -0.62438,0.921345 -1.14318,1.99358 -1.14362,2.363568 -6.5e-4,0.549849 -0.39419,1.162176 -1.05421,1.640292 l -0.54355,0.393742 -30.6133,-0.0227 c -16.83731,-0.01249 -30.35028,-0.04579 -30.02881,-0.07402 z"
     style="fill:#ffffff;fill-opacity:1;fill-rule:evenodd;stroke:#ce1126;stroke-width:1;stroke-linecap:round;stroke-linejoin:round;stroke-miterlimit:4;stroke-opacity:1;stroke-dasharray:none;stroke-dashoffset:0" /><path
     inkscape:connector-curvature="0"
     id="path5815"
     d="m 353.69083,152.32958 c -0.44604,-0.40773 -0.8791,-0.92844 -0.96234,-1.15712 -0.0833,-0.22868 -0.2519,-0.56923 -0.37479,-0.75678 l -0.22343,-0.341 3.81814,0.0428 c 4.39974,0.0493 5.15981,0.16189 5.32752,0.78899 0.20182,0.75461 -0.30074,1.00636 -0.81903,0.41028 -0.24003,-0.27607 -0.39459,-0.32485 -1.02936,-0.32485 -0.94508,0 -1.15528,0.18875 -1.15528,1.03736 0,0.6268 -0.002,0.62925 -0.48727,0.7044 -0.268,0.0415 -0.72696,0.0691 -1.01993,0.0614 -0.29296,-0.008 -0.65457,0.0512 -0.80357,0.13091 -0.14899,0.0797 -0.53838,0.14499 -0.86529,0.14499 -0.54168,0 -0.66631,-0.0658 -1.40537,-0.74134 z"
     style="fill:#ffffff;fill-opacity:1;fill-rule:evenodd;stroke:#ce1126;stroke-width:1;stroke-linecap:round;stroke-linejoin:round;stroke-miterlimit:4;stroke-opacity:1;stroke-dasharray:none;stroke-dashoffset:0" /><path
     inkscape:connector-curvature="0"
     id="path5817"
     d="m 217.93789,249.69779 c 0,-0.0972 0.18384,-0.5331 0.40853,-0.96877 0.38869,-0.75366 0.39832,-0.80769 0.19842,-1.11278 -0.15225,-0.23237 -0.40785,-0.36171 -0.92828,-0.46975 -0.39499,-0.082 -0.71817,-0.20002 -0.71817,-0.26226 0,-0.0622 0.28493,-0.43877 0.63318,-0.83673 0.38494,-0.4399 0.69721,-0.95228 0.79651,-1.30694 0.18368,-0.65605 0.2501,-0.69282 0.58434,-0.32349 0.31518,0.34827 0.86356,0.32978 1.21176,-0.0409 0.6134,-0.65293 0.19637,-1.66106 -1.25696,-3.0386 l -0.98696,-0.93549 0.27487,-0.29892 c 0.15118,-0.1644 0.51026,-0.77064 0.79797,-1.3472 0.47567,-0.95323 0.5696,-1.06221 1.03591,-1.20192 0.70964,-0.21262 0.82683,-0.198 1.31803,0.1644 0.23709,0.17492 0.6003,0.3552 0.80713,0.40063 0.23429,0.0515 0.44957,0.22476 0.57106,0.4597 0.36516,0.70614 1.38122,0.67215 1.68563,-0.0564 0.0984,-0.23541 0.26992,-0.50361 0.38125,-0.596 0.18276,-0.15169 0.20241,0.42 0.20241,5.89002 l 0,6.05801 -3.50832,0 c -2.87078,0 -3.50831,-0.0321 -3.50831,-0.17666 z"
     style="fill:#ffffff;fill-opacity:1;fill-rule:evenodd;stroke:#ce1126;stroke-width:1;stroke-linecap:round;stroke-linejoin:round;stroke-miterlimit:4;stroke-opacity:1;stroke-dasharray:none;stroke-dashoffset:0" /><path
     inkscape:connector-curvature="0"
     id="path5819"
     d="m 275.11044,221.99951 0,-27.87494 0.85338,0.72394 c 0.85594,0.72612 1.00927,0.77083 1.58547,0.46233 0.0907,-0.0486 0.50001,-0.0464 0.90956,0.005 0.40955,0.0512 1.25814,0.098 1.88576,0.10403 1.2712,0.0122 1.86627,-0.16767 2.49712,-0.75484 0.69547,-0.64732 1.24817,-0.88643 2.22597,-0.96303 0.99219,-0.0777 2.84958,-0.53717 3.1717,-0.78455 0.52088,-0.40002 0.77445,-0.90854 0.78023,-1.56469 0.003,-0.36556 0.0798,-0.8379 0.17007,-1.04965 0.15308,-0.3589 0.20599,-0.38243 0.7806,-0.34709 0.33902,0.0208 0.69781,-0.0297 0.79732,-0.11225 0.0995,-0.0826 0.31569,-0.13104 0.48042,-0.10768 l 0.29951,0.0425 0.0328,30.04807 0.0328,30.04808 -8.25132,0 -8.25132,0 0,-27.87494 z"
     style="fill:#ffffff;fill-opacity:1;fill-rule:evenodd;stroke:#ce1126;stroke-width:1;stroke-linecap:round;stroke-linejoin:round;stroke-miterlimit:4;stroke-opacity:1;stroke-dasharray:none;stroke-dashoffset:0" /><path
     inkscape:connector-curvature="0"
     id="path5821"
     d="m 433.81294,82.671392 c 0,-0.489307 -0.0683,-0.714363 -0.28141,-0.927487 -0.22904,-0.229045 -0.25644,-0.336187 -0.14727,-0.575804 0.18345,-0.402627 0.8484,-0.504682 0.96173,-0.147605 0.0448,0.140975 0.27153,0.460138 0.50397,0.709252 0.23244,0.249114 0.51812,0.562082 0.63485,0.695484 0.31761,0.362984 0.71429,0.294497 1.16923,-0.201872 0.38155,-0.416285 0.42791,-0.43303 0.73219,-0.26448 0.79745,0.441736 1.37951,0.03406 1.2532,-0.877729 -0.0425,-0.306537 -0.0318,-0.761991 0.0237,-1.012121 l 0.10092,-0.454782 0.67092,0.04402 c 0.62403,0.04094 0.71494,0.0069 1.30098,-0.487266 0.68938,-0.581288 0.89323,-0.628409 1.4571,-0.336819 0.69326,0.3585 1.43016,-0.259828 1.43016,-1.200041 0,-0.202835 0.10873,-0.58205 0.24161,-0.842699 l 0.24162,-0.473907 0.28066,0.379623 c 0.35826,0.484573 0.82641,0.60793 1.25109,0.329665 0.17815,-0.116724 0.3239,-0.294646 0.3239,-0.395381 0,-0.100735 0.11919,-0.220985 0.26488,-0.267223 0.14568,-0.04624 0.41534,-0.311436 0.59924,-0.589329 0.40564,-0.612966 0.68926,-0.720396 1.20194,-0.45528 0.58712,0.303615 0.98463,0.250113 1.39834,-0.188211 0.44493,-0.47141 0.54645,-0.488262 0.46796,-0.07769 -0.0387,0.202179 0.0347,0.40648 0.20819,0.57998 0.14851,0.148508 0.21207,0.302329 0.14265,0.345229 -0.0689,0.04256 -0.1252,0.184187 -0.1252,0.314731 0,0.130545 -0.0873,0.404836 -0.1941,0.609535 -0.26498,0.508079 -0.24707,0.657477 0.12323,1.027776 0.34533,0.345334 0.83107,0.408408 1.28134,0.166387 0.48134,-0.258722 1.53477,-0.133686 1.91515,0.227317 0.54911,0.521143 1.16916,0.380956 1.56205,-0.353163 0.10938,-0.204368 0.17635,-0.22643 0.32155,-0.105924 0.10087,0.08371 0.41839,0.129798 0.7056,0.102409 0.46673,-0.04451 0.52219,-0.01939 0.52219,0.236563 0,0.679771 1.18399,1.052967 1.9964,0.629268 0.2047,-0.106758 0.52922,-0.194106 0.72116,-0.194106 0.19193,0 0.41172,-0.06275 0.48842,-0.139451 0.0993,-0.09931 0.16346,-0.04377 0.22287,0.192927 0.24677,0.983191 2.03139,0.303595 2.22589,-0.847632 0.0729,-0.431708 0.16517,-0.562059 0.49831,-0.70428 0.44664,-0.190677 1.12346,-0.966791 1.12346,-1.288281 0,-0.115223 0.11153,-0.201849 0.25987,-0.201849 0.38008,0 0.77963,-0.462366 0.77963,-0.902195 0,-0.230482 0.0996,-0.452219 0.2507,-0.558046 0.13789,-0.09658 0.29041,-0.333783 0.33893,-0.527118 0.12122,-0.482955 0.24531,-0.44114 0.48245,0.162576 0.31421,0.799897 0.68312,0.817684 1.76516,0.0851 0.48677,-0.329559 0.95178,-0.599199 1.03336,-0.599199 0.0816,0 0.21091,-0.116944 0.2874,-0.259875 0.0795,-0.148502 0.27207,-0.259875 0.44939,-0.259875 0.17066,0 0.48932,-0.150637 0.70813,-0.334749 0.2188,-0.184112 0.50103,-0.311381 0.62717,-0.28282 0.3635,0.0823 0.93252,-0.265955 1.0229,-0.626055 0.0717,-0.285866 0.13271,-0.318338 0.46194,-0.246028 0.24546,0.05391 0.4866,0.01299 0.68343,-0.115973 0.2045,-0.133994 0.42122,-0.167964 0.66154,-0.103692 0.34453,0.09214 0.32753,0.111366 -0.47184,0.533422 -0.45608,0.24081 -1.01713,0.589282 -1.24677,0.774381 -0.83817,0.675615 -1.18536,0.921264 -1.30205,0.921264 -0.0656,0 -0.26098,0.15187 -0.43423,0.337489 -0.47896,0.513141 -1.27593,0.869081 -2.06917,0.924135 -0.54441,0.03778 -0.76849,0.117833 -0.94064,0.336035 -0.12429,0.15754 -0.30252,0.374145 -0.39606,0.481343 -0.30231,0.346431 -0.56906,0.835664 -0.66261,1.21529 -0.0842,0.341844 -0.12632,0.364136 -0.54062,0.286413 -0.65696,-0.123246 -1.31694,0.222752 -1.43209,0.75078 -0.0864,0.39614 -0.41928,0.897114 -0.9681,1.456931 -0.18861,0.192388 -0.38186,0.251937 -0.69788,0.215044 -0.3439,-0.04015 -0.48199,0.01315 -0.64796,0.250112 -0.11601,0.165623 -0.21092,0.426472 -0.21092,0.579664 0,0.216706 -0.15142,0.335645 -0.68217,0.535841 -0.82744,0.312103 -1.00367,0.614725 -1.03829,1.782977 l -0.0253,0.853144 -12.93301,0 -12.933,0 0,-0.646079 z"
     style="fill:#002868;fill-opacity:1;fill-rule:evenodd;stroke:#002868;stroke-width:1;stroke-linecap:round;stroke-linejoin:round;stroke-miterlimit:4;stroke-opacity:1;stroke-dasharray:none;stroke-dashoffset:0" /><path
     inkscape:connector-curvature="0"
     id="path5823"
     d="m 360.2726,224.69698 c -0.12568,-0.13888 -0.39835,-0.28982 -0.60593,-0.33541 -0.43527,-0.0956 -0.58272,-0.32569 -0.8388,-1.30883 -0.10154,-0.38985 -0.26638,-0.83884 -0.36632,-0.99777 -0.26718,-0.42492 -0.71494,-1.79789 -0.70868,-2.17305 0.003,-0.17866 -0.0443,-0.6123 -0.10515,-0.96363 -0.0942,-0.54435 -0.065,-0.73744 0.19778,-1.30615 0.18086,-0.39144 0.46037,-0.75461 0.67602,-0.87838 0.22661,-0.13006 0.41009,-0.37671 0.47826,-0.64291 0.0849,-0.33171 0.27137,-0.52863 0.80364,-0.84887 1.40017,-0.84239 2.78015,-0.83089 3.25828,0.0271 0.11948,0.2144 0.42458,0.59682 0.67802,0.84983 0.56754,0.56657 1.15365,2.25319 1.21733,3.50308 0.0237,0.46453 0.0809,1.11346 0.12725,1.44207 0.0996,0.70652 -0.19204,1.84881 -0.60652,2.37574 -0.15161,0.19274 -0.45888,0.4252 -0.68283,0.51658 -0.35652,0.14548 -0.4387,0.13676 -0.66073,-0.0701 -0.17688,-0.16478 -0.45544,-0.23623 -0.92107,-0.23623 -0.72032,0 -1.02606,0.21577 -1.33491,0.94205 -0.18005,0.4234 -0.29873,0.44394 -0.60564,0.10482 l 0,0 z"
     style="fill:#002868;fill-opacity:1;fill-rule:evenodd;stroke:#002868;stroke-width:1;stroke-linecap:round;stroke-linejoin:round;stroke-miterlimit:4;stroke-opacity:1;stroke-dasharray:none;stroke-dashoffset:0" /><path
     inkscape:connector-curvature="0"
     id="path5825"
     d="m 406.24948,248.937 -0.008,-0.96052 0.43665,-0.20823 c 0.24016,-0.11452 0.49018,-0.34899 0.55559,-0.52104 0.0654,-0.17204 0.26671,-0.4501 0.44733,-0.6179 0.29114,-0.27046 0.43095,-0.30023 1.23198,-0.26235 0.88917,0.0421 0.90893,0.0508 1.23891,0.54945 0.18443,0.27869 0.33532,0.65944 0.33532,0.84611 0,0.20888 0.21423,0.59718 0.55712,1.0098 0.30641,0.36873 0.63517,0.77274 0.73056,0.8978 0.16394,0.21492 0.0174,0.22739 -2.67157,0.22739 l -2.84502,0 -0.008,-0.96051 0,0 z"
     style="fill:#002868;fill-opacity:1;fill-rule:evenodd;stroke:#002868;stroke-width:1;stroke-linecap:round;stroke-linejoin:round;stroke-miterlimit:4;stroke-opacity:1;stroke-dasharray:none;stroke-dashoffset:0" /><path
     inkscape:connector-curvature="0"
     id="path5827"
     d="m 417.9161,190.27025 c -0.11909,-0.0736 -0.12093,-0.19658 -0.008,-0.52112 0.1981,-0.56827 0.0661,-1.58235 -0.3594,-2.75998 -0.2373,-0.65688 -0.37016,-1.3422 -0.42463,-2.19039 -0.0588,-0.91621 -0.15416,-1.37543 -0.36979,-1.78147 -0.22668,-0.42684 -0.29053,-0.76234 -0.29053,-1.52676 0,-0.5724 0.0545,-0.97971 0.13112,-0.97971 0.0721,0 1.34388,0.60721 2.82615,1.34936 2.36934,1.1863 2.71306,1.39768 2.84428,1.74918 0.11814,0.31648 0.11312,0.4298 -0.0241,0.54369 -0.0953,0.0791 -0.29794,0.52949 -0.4502,1.00078 -0.29816,0.9229 -0.79231,1.96511 -1.18403,2.49721 -0.1341,0.18215 -0.33374,0.68202 -0.44366,1.11082 -0.22399,0.87377 -0.44187,1.10447 -1.04313,1.10447 -0.22683,0 -0.55551,0.11255 -0.73041,0.25013 -0.17565,0.13817 -0.38775,0.207 -0.47386,0.15379 l 0,0 z"
     style="fill:#ffffff;fill-opacity:1;fill-rule:evenodd;stroke:#002868;stroke-width:1;stroke-linecap:round;stroke-linejoin:round;stroke-miterlimit:4;stroke-opacity:1;stroke-dasharray:none;stroke-dashoffset:0" /><path
     inkscape:connector-curvature="0"
     id="path5829"
     d="m 419.29011,181.60773 c -2.11479,-1.06516 -2.69621,-1.41235 -2.69621,-1.61003 0,-0.13861 -0.13783,-0.41226 -0.30629,-0.6081 l -0.3063,-0.35609 0.34757,-0.29246 c 0.26229,-0.2207 0.91588,-0.40835 2.66384,-0.76481 2.12561,-0.43347 2.33344,-0.4552 2.52499,-0.26397 0.16269,0.16242 0.22568,0.60147 0.28559,1.99073 0.0511,1.18407 0.14583,1.94318 0.28233,2.26147 0.18883,0.44033 0.17896,1.02476 -0.017,1.00822 -0.0453,-0.004 -1.29559,-0.61805 -2.7785,-1.36496 z"
     style="fill:#002868;fill-opacity:1;fill-rule:evenodd;stroke:#002868;stroke-width:1;stroke-linecap:round;stroke-linejoin:round;stroke-miterlimit:4;stroke-opacity:1;stroke-dasharray:none;stroke-dashoffset:0" /><path
     inkscape:connector-curvature="0"
     id="path5831"
     d="m 291.72384,219.88192 0,-30.01559 0.32188,0 c 0.17703,0 0.70965,-0.14596 1.1836,-0.32436 l 0.86173,-0.32435 0.24774,0.31495 c 0.13626,0.17322 0.45231,0.38246 0.70235,0.46498 0.39025,0.12879 0.53374,0.11173 1.01353,-0.12053 0.3074,-0.14881 0.75088,-0.27057 0.98551,-0.27057 0.60475,0 1.28917,-0.36095 1.60869,-0.84839 0.25438,-0.38806 0.34214,-0.42444 1.25454,-0.52011 0.53957,-0.0566 1.41957,-0.10802 1.95556,-0.11432 l 0.97454,-0.0115 0.25987,-0.54591 c 0.17424,-0.366 0.3865,-0.59167 0.6441,-0.68479 0.64786,-0.23417 0.98012,-0.63955 0.98012,-1.1958 0,-0.54343 0.0332,-0.5626 0.61988,-0.35808 l 0.39878,0.13901 -0.19185,0.45917 c -0.48445,1.15944 0.60519,2.03268 1.70386,1.36548 l 0.38669,-0.23483 0.26299,0.38792 c 0.16042,0.23661 0.47839,0.4594 0.81523,0.57119 0.30373,0.10079 0.55224,0.26391 0.55224,0.36247 0,0.41365 0.55405,1.61156 0.97029,2.09784 0.30231,0.35319 0.45873,0.6765 0.47999,0.99212 0.0173,0.2575 0.005,0.48487 -0.0272,0.50526 -0.66259,0.41827 -1.13314,0.57611 -1.40943,0.47276 -0.42692,-0.15969 -0.71021,-0.0448 -1.16381,0.47178 -0.36235,0.41269 -0.3845,0.4997 -0.35392,1.39061 0.0179,0.5227 0.0537,1.00884 0.0794,1.08031 0.0257,0.0715 0.003,0.25998 -0.0516,0.41894 -0.0633,0.18579 -0.0182,0.45795 0.1261,0.7621 0.17799,0.37508 0.19304,0.5235 0.0727,0.71626 -0.0835,0.13373 -0.15184,0.39432 -0.15184,0.57909 0,0.42945 0.5905,1.44193 0.99587,1.70755 0.28298,0.18541 0.2934,0.22463 0.11275,0.42425 -0.42067,0.46483 -0.12041,1.32764 0.51776,1.48781 0.21058,0.0529 0.54808,-0.0115 0.91766,-0.175 0.7352,-0.32521 1.1682,-1.15605 1.0504,-2.0155 -0.0603,-0.43998 -0.028,-0.56588 0.17825,-0.69469 0.13854,-0.0865 0.33268,-0.34734 0.43141,-0.57959 0.0987,-0.23226 0.42608,-0.70003 0.72744,-1.03949 0.44205,-0.49794 0.62739,-0.61571 0.95918,-0.60947 0.52987,0.01 2.49224,0.63177 3.05332,0.9675 0.47646,0.2851 0.82011,0.93871 0.71164,1.35351 -0.0787,0.30106 0.34236,1.82926 0.50404,1.82926 0.0579,0 0.10535,0.34177 0.10535,0.75949 0,0.5705 0.0591,0.81295 0.2374,0.97433 0.16424,0.14864 0.21943,0.33727 0.17909,0.61213 -0.0426,0.28993 0.0223,0.48311 0.24003,0.71486 0.30434,0.32396 0.94563,0.43358 1.09764,0.18763 0.0442,-0.0715 0.25899,-0.12993 0.47739,-0.12993 0.39218,0 0.3945,0.004 0.18724,0.32027 -0.11542,0.17615 -0.20985,0.46519 -0.20985,0.64232 0,0.33306 0.41881,0.72575 0.77605,0.72765 0.15081,7.8e-4 0.20324,0.16891 0.2183,0.69991 0.026,0.91499 0.32122,1.37804 0.8787,1.37804 0.22762,0 0.48116,-0.0673 0.56342,-0.14958 0.17516,-0.17515 1.33172,-0.37524 1.33172,-0.23038 0,0.0542 0.26312,0.19908 0.58472,0.32189 0.32159,0.12282 0.58472,0.27784 0.58472,0.34449 0,0.0666 0.27044,0.3803 0.60099,0.697 0.54948,0.52648 0.65805,0.57609 1.26689,0.57893 0.36624,0.002 0.89547,0.0563 1.17605,0.12141 0.36603,0.0849 0.65851,0.0672 1.0353,-0.0626 0.43012,-0.14819 0.56117,-0.15055 0.72426,-0.013 0.10951,0.0923 0.64534,0.37607 1.19073,0.63052 0.87686,0.40909 0.98525,0.49805 0.93661,0.7687 -0.0303,0.16834 0.064,0.51073 0.20949,0.76086 0.14548,0.25013 0.38548,0.7179 0.53334,1.0395 0.14786,0.3216 0.34024,0.73043 0.4275,0.90852 0.0873,0.17809 0.47829,0.54197 0.86893,0.80861 0.67607,0.46146 0.75839,0.4841 1.71009,0.47018 0.98481,-0.0144 1.00919,-0.007 1.62422,0.50612 0.64987,0.54197 1.4889,1.00377 2.53976,1.39788 0.61282,0.22982 0.61558,0.23356 0.53684,0.72599 -0.062,0.38771 -0.0195,0.57082 0.19612,0.84493 0.31803,0.4043 0.34077,0.67233 0.0856,1.00906 -0.0998,0.13165 -0.22008,0.48249 -0.26737,0.77962 -0.0473,0.29714 -0.22215,0.75104 -0.38858,1.00867 -0.16642,0.25762 -0.39304,0.77301 -0.5036,1.1453 -0.11056,0.37229 -0.34923,0.85304 -0.53038,1.06833 -0.25982,0.30877 -0.32937,0.53364 -0.32937,1.06486 0,0.52701 -0.0551,0.70784 -0.25344,0.83171 -0.13985,0.0873 -0.29385,0.37796 -0.3436,0.64846 -0.0496,0.2696 -0.2279,0.65546 -0.39625,0.85748 -0.16835,0.20201 -0.30795,0.46513 -0.31022,0.58472 -0.002,0.11958 -0.09,0.33092 -0.19491,0.46964 -0.10492,0.13873 -0.19093,0.34338 -0.19112,0.45479 -1.3e-4,0.1114 -0.21946,0.3195 -0.48727,0.46243 -0.76097,0.40614 -0.73838,0.84255 0.0847,1.63589 0.41112,0.39628 0.6291,0.70455 0.58304,0.82458 -0.10541,0.27468 0.5223,0.85294 0.92586,0.85294 0.5857,0 1.50748,-0.28698 1.64884,-0.51333 0.11243,-0.18002 0.20912,-0.19456 0.56119,-0.0844 0.36813,0.11522 0.43492,0.20371 0.49642,0.65777 0.0615,0.45422 0.02,0.57745 -0.309,0.91812 -0.31987,0.33116 -0.45988,0.38586 -0.88415,0.3454 -0.41643,-0.0397 -0.58378,0.0219 -0.96238,0.35431 -0.38179,0.33522 -0.48488,0.54331 -0.61758,1.24661 -0.13946,0.73911 -0.13282,0.88463 0.0534,1.16879 0.31953,0.48765 1.02378,0.45103 1.51889,-0.079 0.20734,-0.22195 0.37698,-0.45584 0.37698,-0.51975 0,-0.0639 0.14617,-0.1162 0.32484,-0.1162 0.17866,0 0.32484,0.054 0.32484,0.11997 0,0.2912 0.69029,0.91995 1.01857,0.92777 0.32908,0.008 0.33207,0.0138 0.0619,0.12261 -0.30642,0.12346 -0.56073,0.5049 -0.56073,0.84105 0,0.39454 0.60123,0.84723 1.12522,0.84723 l 0.48735,0 -0.69374,0.64113 c -0.52872,0.48863 -0.67693,0.70538 -0.6231,0.91126 0.0892,0.34104 -0.19611,0.50288 -1.16429,0.66045 -0.39963,0.065 -0.83546,0.21678 -0.96852,0.3372 -0.29741,0.26915 -0.31243,0.8598 -0.0327,1.28669 0.11506,0.1756 0.17411,0.4107 0.13123,0.52244 -0.0429,0.11175 0.009,0.4117 0.11565,0.66656 0.2359,0.56457 0.23581,0.56159 0.0162,0.56159 -0.0976,0 -0.33145,0.12119 -0.51975,0.26931 -0.50716,0.39893 -0.45773,0.90351 0.14489,1.47913 0.61227,0.58482 0.95586,0.67547 1.60048,0.42226 0.53555,-0.21037 0.56298,-0.18997 0.51748,0.38502 -0.014,0.17719 0.19772,0.51145 0.57033,0.90033 0.58163,0.60702 0.83837,1.09456 0.33789,0.64162 -0.16881,-0.15277 -0.38881,-0.21087 -0.65215,-0.17221 -0.23702,0.0348 -0.45528,-0.0114 -0.54079,-0.11444 -0.27141,-0.32703 -0.96792,-0.20854 -1.33442,0.22702 -0.45068,0.5356 -0.42374,0.89389 0.10578,1.40712 0.24319,0.23571 0.46897,0.56878 0.50173,0.74014 l 0.0596,0.31158 -24.41025,0 -24.41026,0 0,-30.01559 z"
     style="fill:#002868;fill-opacity:1;fill-rule:evenodd;stroke:#002868;stroke-width:1;stroke-linecap:round;stroke-linejoin:round;stroke-miterlimit:4;stroke-opacity:1;stroke-dasharray:none;stroke-dashoffset:0" /><path
     style="fill:#68bfe5;fill-opacity:1;fill-rule:evenodd;stroke:#68bfe5;stroke-width:1;stroke-linecap:round;stroke-linejoin:round;stroke-miterlimit:4;stroke-opacity:1;stroke-dasharray:none;stroke-dashoffset:0"
     d="m 277.20533,276.66768 c -4.6e-4,-0.25257 -0.32427,-0.74624 -0.53283,-0.81244 -0.12639,-0.0401 -0.19346,-0.16935 -0.23025,-0.44369 -0.0634,-0.4729 -0.27684,-0.66226 -0.896,-0.79505 -0.99377,-0.21312 -1.7345,-0.0791 -2.0496,0.37073 -0.13335,0.19038 -0.13941,0.18594 -0.23612,-0.17323 -0.0577,-0.21415 -0.19381,-0.43057 -0.32488,-0.51645 -0.25283,-0.16566 -0.65096,-0.19586 -0.73743,-0.0559 -0.0969,0.15686 -0.2297,0.10112 -0.2297,-0.0964 0,-0.3007 -0.25747,-0.7165 -0.52986,-0.85568 -0.5154,-0.26335 -0.7886,-0.26545 -1.16652,-0.009 l -0.35381,0.2401 -0.88141,-0.15214 c -0.49126,-0.0848 -1.07401,-0.2526 -1.31653,-0.37909 -0.23931,-0.12483 -0.65277,-0.29124 -0.91879,-0.36979 -0.26603,-0.0786 -0.71109,-0.28158 -0.98902,-0.45116 -0.55313,-0.33749 -1.13597,-0.50271 -1.51668,-0.42993 -0.13456,0.0257 -0.60928,-0.005 -1.05492,-0.0694 -0.73466,-0.1053 -0.83802,-0.14556 -1.10774,-0.43152 -0.28318,-0.30022 -0.32509,-0.31439 -0.87174,-0.29457 -0.44111,0.016 -0.64849,-0.023 -0.89446,-0.1681 -0.17611,-0.10391 -0.41833,-0.21818 -0.53827,-0.25392 -0.11995,-0.0358 -0.34591,-0.21309 -0.50215,-0.39409 l -0.28408,-0.32908 -1.226,0.0219 c -0.6743,0.012 -1.26284,0.0446 -1.30786,0.0725 -0.045,0.0278 -0.23374,-0.0711 -0.41939,-0.21989 -0.5696,-0.45642 -0.73454,-0.51217 -1.34623,-0.45505 -0.49551,0.0463 -0.62534,0.0213 -1.07965,-0.20789 -0.35798,-0.18057 -0.72289,-0.27881 -1.18946,-0.32023 -1.14728,-0.10185 -1.36386,-0.15438 -1.61968,-0.39283 -0.34504,-0.32164 -0.64021,-0.41969 -0.94429,-0.31369 -0.22803,0.0795 -0.25795,0.0645 -0.31294,-0.15719 -0.10236,-0.41254 -0.40279,-0.65853 -0.80428,-0.65853 -0.40113,0 -0.67963,0.12222 -0.90075,0.39528 -0.13162,0.16255 -0.18572,0.17189 -0.45394,0.0784 -0.41807,-0.14574 -1.06092,-0.13316 -1.37029,0.0268 -0.23054,0.11922 -0.32932,0.1131 -0.95449,-0.0591 -0.59176,-0.16304 -0.7134,-0.23088 -0.80338,-0.44812 -0.18733,-0.45226 -1.11983,-0.734 -1.71301,-0.51756 -0.17812,0.065 -0.22686,0.0126 -0.44946,-0.48346 -0.34399,-0.76651 -0.83204,-1.19734 -1.35635,-1.19734 -0.30088,0 -0.44761,0.0537 -0.60516,0.22139 -0.18085,0.1925 -0.20392,0.2999 -0.17681,0.82314 l 0.0312,0.60175 -0.59722,-0.0146 c -0.32847,-0.008 -0.80395,-0.0103 -1.05662,-0.005 -2.37417,0.0489 -2.4612,0.0344 -2.77728,-0.46114 -0.31558,-0.4948 -0.56538,-0.70134 -0.85197,-0.70442 -0.27717,-0.003 -0.82692,-0.49294 -0.82692,-0.73699 0,-0.32109 -0.19175,-0.601 -0.57996,-0.84663 -0.21163,-0.1339 -0.50621,-0.37022 -0.65463,-0.52516 -0.17701,-0.18478 -0.35958,-0.28171 -0.53059,-0.28171 -0.1857,0 -0.28347,-0.0595 -0.33978,-0.20673 -0.28476,-0.74459 -1.24251,-0.75478 -1.6773,-0.0179 -0.17798,0.30165 -0.22862,0.33075 -0.49907,0.28687 -0.19667,-0.0319 -0.41656,-0.17678 -0.63446,-0.41797 -0.38413,-0.42518 -0.8597,-0.62568 -1.13483,-0.47844 -0.2987,0.15986 -2.75821,0.0654 -3.1161,-0.11963 -0.16329,-0.0844 -0.29689,-0.1937 -0.29689,-0.24279 0,-0.0491 -0.14535,-0.25014 -0.323,-0.44677 -0.17765,-0.19664 -0.40052,-0.58285 -0.49527,-0.85825 -0.25179,-0.73184 -0.37028,-0.87742 -0.85638,-1.05222 -0.31132,-0.11195 -0.50392,-0.25704 -0.66568,-0.50147 l -0.22761,-0.34395 0.19252,-0.71758 c 0.26295,-0.98012 0.33638,-2.78544 0.13272,-3.26305 -0.18242,-0.42779 -0.54016,-0.76289 -1.03127,-0.96602 l -0.3816,-0.15783 0.004,-0.50828 c 0.003,-0.36717 -0.0639,-0.65209 -0.24132,-1.0263 -0.22025,-0.46449 -0.34514,-0.58674 -1.20857,-1.183 -0.52961,-0.36574 -0.96293,-0.68047 -0.96293,-0.69939 0,-0.0189 27.4881,-0.0344 61.08466,-0.0344 l 61.08466,0 0.22213,0.33734 c 0.37609,0.5712 0.63258,0.70343 1.34287,0.69233 0.34374,-0.005 0.77375,-0.0113 0.9556,-0.0132 0.41507,-0.004 0.77191,-0.27728 0.91022,-0.69634 l 0.10565,-0.32014 0.77469,0 c 0.73238,0 0.79017,0.0148 1.05811,0.27085 0.15589,0.14897 0.31705,0.28335 0.35814,0.29861 0.0411,0.0153 0.28312,0.54458 0.53786,1.17625 l 0.46316,1.1485 -0.28875,0.0984 c -0.66177,0.22545 -0.86023,1.02369 -0.40341,1.6226 0.28655,0.37568 0.98532,0.6908 1.72651,0.77858 0.35143,0.0416 0.48301,0.0128 0.72345,-0.1584 l 0.2939,-0.20927 -0.0553,0.35819 c -0.0356,0.23065 -0.01,0.43919 0.0728,0.58562 0.11775,0.20892 0.10651,0.25477 -0.1381,0.56362 -0.29393,0.37112 -0.72477,1.24087 -0.72617,1.46597 -9.2e-4,0.0791 -0.14043,0.21031 -0.31097,0.29163 -0.18312,0.0873 -0.45585,0.36332 -0.66613,0.67412 -0.19583,0.28944 -0.5296,0.64982 -0.7417,0.80086 -0.38137,0.27157 -0.39191,0.27337 -0.95121,0.16334 -0.59612,-0.11728 -1.10711,-0.072 -1.65925,0.14719 -0.32471,0.12887 -0.44466,0.27918 -0.62898,0.78815 -0.0503,0.13897 -0.15244,0.25267 -0.22692,0.25267 -0.17257,0 -0.60297,0.55905 -0.60794,0.78965 -0.002,0.0963 -0.16158,0.34952 -0.35449,0.56271 l -0.35071,0.38762 -0.15086,-0.46708 c -0.083,-0.2569 -0.15085,-0.56301 -0.15085,-0.68025 0,-0.11724 -0.0419,-0.32344 -0.0932,-0.45822 -0.0809,-0.21285 -0.0552,-0.28831 0.19584,-0.57422 0.40614,-0.46256 0.72229,-1.18702 0.72334,-1.65754 9.2e-4,-0.31759 -0.0531,-0.45159 -0.26767,-0.66613 -0.34918,-0.34918 -0.86338,-0.36002 -1.56592,-0.033 -0.32465,0.15111 -0.58142,0.2139 -0.72619,0.17757 -0.3336,-0.0837 -0.71549,0.11588 -0.87836,0.45911 -0.0793,0.16721 -0.14427,0.34454 -0.14427,0.39407 0,0.0495 -0.13625,0.19398 -0.30277,0.321 -0.27091,0.20663 -0.3265,0.2181 -0.52831,0.10897 -0.1437,-0.0777 -0.52382,-0.11889 -1.04758,-0.11351 -0.63293,0.006 -0.83099,-0.0214 -0.86096,-0.12105 -0.0685,-0.22794 -0.42127,-0.44691 -0.72342,-0.44901 -0.16125,-10e-4 -0.31874,-0.0434 -0.34997,-0.0939 -0.0312,-0.0505 -0.20246,-0.0919 -0.3805,-0.0919 -0.26468,0 -0.40613,0.082 -0.77556,0.44947 -0.25133,0.25001 -0.45184,0.53399 -0.45184,0.63993 0,0.21413 -0.24887,0.38068 -0.56884,0.38068 -0.11737,0 -0.52321,0.21929 -0.90187,0.48731 -0.6095,0.43141 -0.73134,0.48317 -1.06232,0.45133 -0.30265,-0.0291 -0.42951,0.0109 -0.66613,0.20996 -0.25467,0.2143 -0.29227,0.30342 -0.29227,0.69284 0,0.2458 0.0449,0.54538 0.0997,0.66573 0.0879,0.19282 0.0466,0.289 -0.34734,0.80946 -0.24588,0.32485 -0.4985,0.71484 -0.56138,0.86664 -0.0648,0.15636 -0.23702,0.33031 -0.39739,0.40129 -0.17277,0.0765 -0.334,0.2472 -0.41378,0.43815 -0.1559,0.37311 -0.50393,0.54222 -0.77172,0.37498 -0.15333,-0.0958 -0.18072,-0.21619 -0.18072,-0.79476 0,-0.56272 0.0404,-0.75083 0.23115,-1.07633 0.19145,-0.32667 0.23485,-0.53037 0.25267,-1.18574 l 0.0215,-0.79131 -0.33559,-0.3084 c -0.39856,-0.36627 -0.86832,-0.46066 -1.70465,-0.34254 -0.64401,0.091 -0.8085,0.039 -1.53014,-0.48348 -0.4917,-0.356 -0.98823,-0.42768 -1.30466,-0.18835 -0.0981,0.0742 -0.26218,0.13621 -0.36464,0.13782 -0.10245,0.002 -0.26784,0.0588 -0.36752,0.12703 -0.0997,0.0683 -0.29782,0.15247 -0.44031,0.18712 -1.0226,0.24869 -1.61253,1.38934 -1.00822,1.9494 0.17436,0.1616 0.3117,0.21469 0.4594,0.17762 0.29329,-0.0736 0.26289,0.0108 -0.065,0.18032 -0.1516,0.0784 -0.27564,0.10163 -0.27564,0.0516 0,-0.05 -0.14766,-0.19127 -0.32814,-0.31391 -0.18048,-0.12264 -0.40895,-0.38631 -0.50772,-0.58594 -0.23535,-0.47569 -0.89896,-0.8114 -1.42849,-0.72266 -0.19483,0.0327 -0.61036,0.0837 -0.92342,0.11344 -0.559,0.0531 -0.57998,0.0652 -1.17146,0.67792 -0.33126,0.34312 -0.60227,0.6642 -0.60227,0.71351 0,0.0493 -0.12488,0.1414 -0.2775,0.20461 -0.15263,0.0632 -0.3697,0.22415 -0.48237,0.35761 -0.11268,0.13347 -0.37781,0.29431 -0.58917,0.35743 -0.25846,0.0772 -0.50665,0.25379 -0.75801,0.53934 -0.20554,0.23351 -0.37371,0.45906 -0.37371,0.50123 0,0.0422 -0.10606,0.0363 -0.23568,-0.0129 -0.27873,-0.10597 -0.8989,-0.11885 -0.99703,-0.0207 -0.0379,0.0379 -0.24118,0.0702 -0.45174,0.0717 -0.6105,0.004 -1.4126,0.62382 -1.4978,1.15664 -0.0422,0.26369 -0.11469,0.36793 -0.3132,0.45015 -0.35673,0.14776 -0.56597,0.40219 -0.58129,0.70684 -0.007,0.14149 -0.10574,0.35006 -0.21915,0.46348 -0.1455,0.14549 -0.20622,0.31527 -0.20622,0.57661 0,0.21586 -0.0479,0.38544 -0.11485,0.40644 -0.0632,0.0198 -0.49313,0.0544 -0.95548,0.0769 -0.81771,0.0398 -0.8434,0.0349 -0.94177,-0.18106 -0.0556,-0.12207 -0.10113,-0.31833 -0.10113,-0.43611 0,-0.23923 -0.2045,-0.74712 -0.40216,-0.9988 -0.0713,-0.0907 -0.27145,-0.188 -0.44485,-0.21614 -0.42976,-0.0697 -0.75175,0.23098 -0.89482,0.8357 -0.0591,0.25001 -0.20542,0.66347 -0.32503,0.91879 -0.18155,0.38755 -0.20481,0.53187 -0.14079,0.87373 0.0422,0.22522 0.0547,0.5453 0.0277,0.71129 -0.027,0.1665 -0.002,0.35871 0.0564,0.42877 0.0829,0.0999 0.0567,0.15888 -0.12269,0.27641 -0.12544,0.0822 -0.32731,0.14944 -0.44861,0.14944 -0.30334,0 -0.70472,0.33584 -0.70472,0.58965 0,0.20379 -0.62268,1.25954 -0.81182,1.37643 -0.0523,0.0323 -0.19927,-0.0454 -0.32657,-0.17266 -0.28837,-0.28837 -0.67871,-0.30036 -1.02069,-0.0314 -0.13991,0.11005 -0.3805,0.2139 -0.53466,0.23078 -0.35612,0.039 -0.5869,0.24755 -0.66441,0.60045 l -0.0609,0.27724 -0.16948,-0.37855 c -0.22584,-0.50442 -0.51209,-0.63314 -1.08034,-0.48583 -0.23676,0.0614 -0.52131,0.2137 -0.63233,0.3385 l -0.20185,0.2269 -0.16021,-0.2712 c -0.19884,-0.33661 -0.62473,-0.51704 -1.11728,-0.47333 -0.16738,0.0148 -0.56927,0.46687 -0.57274,0.64419 -0.006,0.28797 -0.44801,0.48942 -1.27038,0.5785 -0.66906,0.0725 -0.90248,0.14601 -1.48313,0.46725 -0.56689,0.31364 -0.81946,0.39521 -1.42414,0.45997 -0.40427,0.0433 -0.91153,0.0754 -1.12724,0.0713 -0.22516,-0.004 -0.54644,0.0712 -0.75435,0.17729 -0.50062,0.2554 -1.09553,0.23509 -2.37322,-0.081 -0.59082,-0.14617 -1.35446,-0.29215 -1.69699,-0.3244 -0.34309,-0.0323 -0.78589,-0.14366 -0.98597,-0.24795 -0.47033,-0.24515 -0.97784,-0.17099 -1.60705,0.23483 -0.99432,0.6413 -1.85408,0.80525 -4.10152,0.78212 -0.72735,-0.007 -0.9526,0.025 -1.25969,0.18167 -0.20567,0.10492 -0.42403,0.19077 -0.48523,0.19077 -0.0612,0 -0.18688,0.0684 -0.2793,0.15206 -0.15719,0.14226 -0.16804,0.14078 -0.16836,-0.023 l 0,0 z"
     id="path5869"
     inkscape:connector-curvature="0" /></g></svg>