<?xml version="1.0" encoding="UTF-8" standalone="no"?>
<svg
   xmlns:dc="http://purl.org/dc/elements/1.1/"
   xmlns:cc="http://creativecommons.org/ns#"
   xmlns:rdf="http://www.w3.org/1999/02/22-rdf-syntax-ns#"
   xmlns:svg="http://www.w3.org/2000/svg"
   xmlns="http://www.w3.org/2000/svg"
   xmlns:sodipodi="http://sodipodi.sourceforge.net/DTD/sodipodi-0.dtd"
   xmlns:inkscape="http://www.inkscape.org/namespaces/inkscape"
   width="837.51367"
   height="900"
   id="svg2"
   version="1.1"
   inkscape:version="0.91 r13725"
   sodipodi:docname="Flag-map_of_Gabon.svg">
  <metadata
     id="metadata14">
    <rdf:RDF>
      <cc:Work
         rdf:about="">
        <dc:format>image/svg+xml</dc:format>
        <dc:type
           rdf:resource="http://purl.org/dc/dcmitype/StillImage" />
        <dc:title></dc:title>
      </cc:Work>
    </rdf:RDF>
  </metadata>
  <defs
     id="defs12" />
  <sodipodi:namedview
     pagecolor="#ffffff"
     bordercolor="#666666"
     borderopacity="1"
     objecttolerance="10"
     gridtolerance="10"
     guidetolerance="10"
     inkscape:pageopacity="0"
     inkscape:pageshadow="2"
     inkscape:window-width="1600"
     inkscape:window-height="837"
     id="namedview10"
     showgrid="false"
     fit-margin-top="0"
     fit-margin-left="0"
     fit-margin-right="0"
     fit-margin-bottom="0"
     inkscape:zoom="0.49481547"
     inkscape:cx="1016.906"
     inkscape:cy="457.99748"
     inkscape:window-x="-8"
     inkscape:window-y="-8"
     inkscape:window-maximized="1"
     inkscape:current-layer="svg2" />
  <path
     style="fill:#fcd116"
     d="m 88.644531,299 5.042969,27.24023 0.263672,3.10352 0.341797,1.10547 0.658203,1.1582 0.263672,1.26172 -0.763672,1.36914 -1.105469,1.3418 -0.736328,1.60547 -0.525391,1.68359 -0.158203,1.8418 1.683594,3.63086 0.341797,1.34179 -0.07813,1.76172 -0.683594,3.02539 -0.158203,1.60547 -0.685547,2.94727 -3.287109,6.4707 -1,3.05274 0,9.91796 0.07813,8.6836 -2.103516,5.9707 -3.525391,5.63086 -12.892578,14.1543 -2.605468,5.20898 -8.603516,7.6836 -1.15625,3.68359 1.15625,2.44531 1.685547,2.28906 0.341797,3.36914 -2.027344,-3.89453 -1.683594,0.76367 -0.15625,1.26172 0.341797,1.52539 -0.421875,1.5 -0.761719,0.52735 -2.447265,0.8418 -0.841797,0.5 -1,1.18359 -0.263672,0.5 0.263672,0.8418 0.158203,1.91992 -0.841797,2.44726 -3.447265,3.70899 -0.763672,2.78906 -0.419922,8.73438 -0.580078,2.71093 -0.919922,0 -1.025391,-2.02539 1.025391,-5.13086 0,-2.86718 -1.683594,-2.60547 -5.236328,-4.89453 -1.078125,-2.86719 -0.421875,-2.1836 -1.103516,-2.44726 -1.421875,-1.99805 -3.472656,-1.68359 -1.419922,-0.10547 -1.105469,0.94726 0,1.6836 1.025391,1.49804 1.421875,1.18555 1.447266,0.6836 0,0.91992 -2.527344,-0.0781 -2.525391,-0.60547 -1.947265,0.1836 -0.761719,2 -0.421875,2.86719 -0.761719,2.60546 -0.08008,2.44727 1.263672,2.44727 -2.341797,-0.76368 -0.763672,-2.02539 -0.261719,-2.10547 -1.185547,-0.91992 -1.919921,-0.76367 -1.447266,-1.68359 -0.841797,-2.10547 -0.578125,-5.97266 -1.263672,-4.97265 -2.183593,-3.5254 -3.1308599,0.0801 -0.5,-0.92187 -0.2363281,-0.76172 0.1582031,-0.8418 0.578125,-1.34179 -4.6308593,-0.8418 -1.578125,-1.26367 1.3417968,-2.78907 L 1.9199219,416.82422 0,419.84961 l 3.3671875,10.60351 4.3671875,5.81446 1.9472656,7.57617 3.1054684,5.20898 3.78711,8.6836 2.183593,3.70898 0.763672,1.76172 1.263672,5.13086 1,0 1.445313,-0.91992 1.080078,2.44531 0.947265,3.52539 0.919922,2.36914 2.525391,0.57813 4.210937,-2.86719 1.683594,0.76367 -0.683594,0.26172 -1.185546,1.08008 -1.15625,1.60351 -0.841797,2.02539 1.998047,0.84376 -2.183594,0.76171 -2.025391,-1.10547 -3.789062,-3.52539 14.3125,18.44336 2.447265,6.31446 1.105469,8.83984 0.419922,1.57813 1,0.10546 0.421875,-1.26171 0.841797,-3.97266 -1.763672,-4.28906 2.683594,2.10547 2.447265,3.36718 0.683594,3.36719 -2.789062,2.10547 0.341796,0.91992 0.263672,0.42188 0.5,0.5 -1.02539,2.63086 0.341797,2.94531 1.261718,2.42187 1.763672,0.94727 2.210938,0.8418 5.050781,3.78711 2.105469,1.26367 1.839843,0.23633 0.685547,-0.3418 0.236329,-0.57813 1.447265,-0.58007 0.736328,-0.5254 0.763672,-0.23632 0.5,0.84179 1.025391,0.91993 0.236328,0.26367 -0.316406,1.1582 -0.261719,2.78906 0.419922,3.02539 1.605469,1.94727 2.447265,0.3418 6.892578,-1.36915 1.525391,-0.91992 1.158203,-2.10547 1.447266,-2.10546 2.341797,-0.76172 0.947265,0.52539 1.15625,2 1.369141,0.42187 1.5,-0.42187 1.447265,-1 1.078125,-1.41992 0.341797,-1.60547 -1,-7.49805 0.07813,-2.94727 1.341797,0.8418 0.5,0.58008 -0.07813,0.68359 -0.841797,0.91992 2.683594,4.97266 0.419922,2.52539 -2.261719,4.21094 -0.683594,2.68359 -1.080078,1.44727 -1.183594,0.41992 -3.445312,0.3418 -1.263672,0.3164 0,0.8418 1.341797,1.18359 0.578125,2.0254 -0.236328,1.94726 -1.261719,0.92188 -2.447265,0.23632 -2.105469,0.8418 -1.183594,1.52539 0.263672,2.26367 0.658203,0.26172 1.445312,0.1582 1.341797,0.3418 0.580079,0.76367 -0.158204,2.60352 0.158204,1.3418 1.02539,2.10547 0.158203,2.28906 0.763672,1.07812 1.183594,0.60547 0.919922,-0.0781 0.921875,-0.3418 0.919922,-0.18555 4.736328,-0.31445 3.867187,-1.18359 3.367189,-2.36914 3.52539,-4.86719 0.68555,-0.41992 0.49804,-0.76368 0.15821,-1.52539 -0.57813,-2.10547 0.0781,-0.91992 1.02734,-0.42187 1.8418,-0.0781 0.57812,0.0781 2.86719,1.68359 1.18359,0.3418 -0.57812,2.34179 0.1582,3.21094 1.3418,5.39258 1.68359,2.86719 2.28906,1.68359 5.97266,2.3418 -4.39453,0.92187 -11.86523,-1.57812 -4.55079,0.65625 0.94532,1.68359 0.0801,2.36914 -1.02734,4.86719 -2.18359,-1.1582 -0.76172,-2.10547 0.18359,-2.44531 0.8418,-2.28907 -3.550782,0.3418 -3.869141,1.18359 -3.367188,1.94727 -2.183593,2.41992 -0.263672,-1.26172 -0.736328,-1.1582 -1.103516,-0.52734 -1.341797,0.52734 -0.34375,1.07813 1.263672,1.94726 -0.421875,1.5 -1.683594,0.76172 -0.841797,-2.18359 -1.419921,-17.94336 -4.208985,-1.3418 -1.263672,-0.57813 -6.919922,-5.65625 -0.919921,-0.92187 -1.947266,-1.26172 -4.525391,-5.63086 -0.841797,-1.44726 -0.841796,-2.76172 -3.367188,-3.55274 -1.447266,-4.52539 -1.841796,-1.68359 -2.289063,-1.02539 -2.183594,0.26367 -2.761719,-3.21094 -1.789062,-2.52539 -1.5,-4.28906 -1.947266,-3.78711 0.763672,2.94531 1.183594,3.21094 1.5,3.60351 1.367188,2.44727 18.101562,25.25781 7.998047,8.33985 3.261719,4.55078 2.447265,5.97265 0.07813,1.42188 -0.07813,4.47266 0.419922,1.68359 1.263672,3.18359 0.263672,1.60352 0,5.97266 -0.185547,1.18359 -0.578125,2.52539 -0.158203,1.68555 0.421875,4.28711 1.15625,2.86914 2.210937,0.76172 3.105469,-2.10352 3.017578,2.24414 7.015625,0 0.148438,-0.56055 0.683594,-1.68359 1.078124,-1 2.525388,1 1.20899,2.24414 455.24804,0 2.48829,-1.66602 1.5,-0.57812 7.15625,-0.1582 5.85546,2.40234 248.89258,0 0.008,-0.14062 0.84179,-3.70899 0.42188,-11.44531 0.94726,-3.20899 1.76172,-1.92187 3.36914,-2.02539 -1.10547,-0.91992 -3.02539,-0.5 -2.44726,-0.76368 -1.76172,-5.89257 -2.78906,-1.60547 -0.92188,-1 1.26367,-1.1836 2.94727,-1.02539 1.33984,-0.6582 1.44727,-1.02539 0.92187,-1.5 0.57813,-1.60547 0.94726,-1.26367 4.70899,-0.91992 -0.0781,-2.1836 -1.60547,-2.63086 -1.86718,-1.84179 1.78906,-4.13086 0.23633,-3.52539 0.60547,-1.3418 1.57812,-1.60547 1.86719,-1.18359 1,-1.6836 -0.76172,-2.94726 -5.05274,-3.36719 -2.18359,-2.18359 -0.8418,-2.78907 0.42188,-1.60546 1.02539,-0.99805 1.1582,-0.92188 1.02539,-1.18359 0.8418,-1.52539 0.5,-1.42188 0.57813,-3.20898 0.18554,-4.52539 -0.26367,-1.26367 -1.07812,-1.86719 -3.13086,-3.02539 -1,-1.76367 0,-1.26172 0.76367,-2.44727 0.15625,-1.26367 -0.5,-1.68359 -1.52539,-3.10352 -4.13086,-11.28711 0,-2.10547 1.52539,-3.13086 0.76367,-6.20898 0.76367,-3.28906 2.1836,-3.55078 2.60351,-2.76368 1.60547,-3.13085 -0.60547,-4.36719 -1,-3.70899 0,-3.52539 0.76367,-3.55273 5.89258,-12.70703 1,-4.63086 -1.34179,-4.36719 -3.36719,-6.91992 -1.76172,-1.91992 -5.81445,-3.97266 -3.10547,-4.28906 -4.89258,-3.02539 -5.47266,-2.44532 -4.05273,-1.18554 -2.52539,0.42187 -2.1836,1.10547 -2.18359,0.76172 -2.36719,-0.60547 -2.68359,-1.07812 -2.44727,0 -2.34179,0.84179 -2.44727,1.26367 -0.26367,-5.39453 -1.07813,-5.89257 -1.78906,-5.81446 -2.41992,-4.97265 -3.70899,-3.60352 -5.31445,-2.60547 -5.81445,-0.94726 -5.21094,1.44726 -1.10351,-1.44726 -1.08008,-0.91993 -1.44727,-0.58007 -5.1289,-0.60547 -1.18555,0.42187 -0.49805,0.94727 -0.42187,1 -0.57813,0.68359 -1.94726,0.6582 -0.92188,0.1836 -0.8418,-0.60547 -6.65625,-7.99805 0.0801,-4.02539 1.60547,-3.63086 6.49805,-8.68164 1.76172,-2.34179 1.5,-1.44727 1.52539,-1.8418 -0.15625,-1.52539 -0.76367,-1.57812 -0.26368,-2.10547 0.60547,-1.44727 2.10547,-2.68359 0.15625,-1.44727 -1.10351,-1.84179 -1.76368,-0.26172 -1.68359,-0.0801 -0.91992,-0.91992 -0.58008,-10.44531 -0.68359,-3.5254 -1.41993,-4.47265 -0.68554,-3.70899 0.58008,-3.36914 2.94531,-4.40234 -614.58789,0 4.625,3.4043 1.52734,0.76172 4.55078,-0.1836 1.1836,0.6836 2.18359,1.94726 1.8418,1.26367 6.5,2.1836 1.83984,-0.68555 11.20898,-0.65625 2.76172,-0.94727 2.71094,-1.26367 2.26172,-1.5 2.78906,2.3418 2.8418,0.76367 7.26172,-0.1582 0,1.07812 -5.81446,1.94727 -2.18359,0.1582 -2.36914,-0.5 -4.12891,-1.5 -2.34179,-0.10547 -1.86914,0.6836 -5.05078,3.21093 -1.60547,1.5 -2.60352,3.44532 -1.76367,1.10547 -2.26172,-2.0254 -3.71094,-0.1582 -2.86718,1.26367 0.42187,2.3418 2.02539,2.78711 5.28711,9.60352 -4.70898,-3.70899 -4.44532,-6.99805 -5.23632,-5.36718 -7.23438,1.26172 -1.42187,-2.94532 -1.26172,-0.94726 -2.21094,-0.0801 -1.3418,0.92187 -4.02539,4.05079 -0.60547,1 -1,-1.3418 -1.18359,-5.05078 -0.76172,-1.60547 -1.8418,-0.92188 -7.15625,-2.02539 -1.52734,2.63086 -0.15625,2.60547 0.76172,6.13086 -0.41992,1.60352 -1.02735,0 -1.18359,-0.76172 -0.91992,-0.8418 -0.42188,-5.36719 -1.34179,-2.86914 -3.78907,-3.70898 -0.84179,-1.8418 -0.6836,-0.42187 -4.70898,-0.10352 -1.605471,0.41992 -0.919921,1.10547 -0.763672,1.26172 -1.263672,1.18555 -0.419922,-1.26367 -0.07813,-1.6836 0.261719,-1.44726 0.763672,-0.65821 1.5,-0.41992 -0.08008,-1.18359 -0.683593,-1.60547 -0.236328,-1.6836 0.0293,-0.11523 -8.283203,0 z m -44.023437,121.76953 -1.263672,1.52735 -3.13086,1.91992 -1.683593,1.52539 -1.605469,2.26367 -0.314453,1.10547 0,1.60351 0.5,1.60547 1.919922,2.10547 0.683593,1.15625 0,2.28906 -0.419921,1.92188 0.07813,1.86719 1.263672,1.84179 2.289062,1.52539 1.919922,0.15821 2.105469,-0.91993 2.52539,-1.76367 -0.158203,-4.55078 0.578125,-6.05273 -1.183594,-4.97266 -5.208984,-1.18359 0,-1 1.263672,-0.52539 0.578125,-0.8418 0,-1.1582 -0.736328,-1.44727 z"
     id="rect6"
     inkscape:connector-curvature="0" />
  <path
     style="fill:#3a75c4"
     d="m 80.677734,600 0.03906,0.0977 2.210937,0.76172 1.269532,-0.85938 -3.519532,0 z m 7.027344,0 1.615234,1.20117 0.341797,1.60547 -1.603515,2.8418 1.5,0 1.367187,0.34179 1.078125,0.6836 1.027344,1 0,-1.6836 0.236328,-1.60546 0.841797,-1.15625 1.341797,-0.42188 0.341797,-0.76367 0.421875,-1.60352 0.177734,-0.43945 -8.6875,0 z m 13.466802,0 2.96093,5.49023 2.6836,2.1836 -0.5,-3.10352 0,-1.44726 0.5,-1.3418 0.76367,0.68359 2.18359,1.3418 1.52539,-1.42187 2.60547,2.76367 4.70899,8.07617 0.26367,0.94727 -1.3418,0.92187 -1.76367,2.60352 0.8418,1.60546 3.52539,2.44727 1.60547,1.8418 1.34179,-0.0801 1.26367,2.02734 0.91993,2.83985 0.42187,2.63086 -0.5,0.5 -2.02734,0.76367 -0.5,0.73633 -0.3418,1.10546 -0.76172,-1.18359 -0.73633,-1.76367 -0.10547,-0.68359 -2.94726,-2 -0.1582,-1.0254 0,-2.52539 -0.3418,-0.84179 -0.8418,-0.23828 -3.10547,-0.26172 -0.84179,-0.3418 -0.91993,-0.76367 -1.78906,-1.8418 3.20899,-2.60547 0.42187,-2.94531 -2.02539,-2.44727 -4.02539,-1 -7.419922,0 0.263672,0.57813 -0.763672,1.18555 -0.921875,0.57812 -0.525391,-0.8418 0.105469,-1 0.421875,-0.68359 0.578125,-0.42187 0.841797,-0.23633 -1.105469,-3.13086 -0.841797,0 -1.158203,3.13086 -1.02539,0.73633 -1.841797,-0.73633 0.341797,-0.3418 0.236328,-0.0781 0.185547,-0.10547 0.314453,-0.58008 -2.945313,0.26367 -3.263672,-1.02539 -2.630859,-2.02734 -1.078125,-2.60352 -0.683594,-0.57812 -1,0.91992 -0.421875,1.41992 1.605469,0.68555 0.158203,0.57812 1.261719,1.44727 1.341797,1.26172 0.685547,0.1582 0.919922,1.52734 6.050781,5.97071 1.947265,5.47265 1.841797,2.52539 3.130861,0.8418 -0.60547,1.42187 -0.41992,0.5254 2.10351,1.68359 4.39454,5.21094 3.78906,2.18359 14.39062,14.07422 1,2.10547 0.8418,13.1289 1.18359,3.28907 0,0.84179 1.44727,3.6836 3.26172,4.31445 3.89453,3.68359 3.18359,2.20899 -1.26367,-2.10547 L 135.9668,679 l -1.36719,-2.10547 2.52539,1.68359 5.99805,7.15626 2.34179,1 1.26368,-1.8418 -0.5,-2.10547 -1.76368,-3.47266 0.23828,-1 0.60352,-0.49804 1,-0.0801 1.18555,0.23633 0.91992,0.60546 -0.0781,0.92188 -0.1582,1.18359 0.23633,1.15625 0.60547,0 1.57812,0.76368 1.10547,0.92187 -0.76367,0.41992 -0.5,0.3418 -1.68359,1.52734 -0.3418,0.49805 0.3418,1.68555 1,1.68359 1.26367,1.26172 1.44531,0.8418 3.36914,-0.91993 3.28906,-3.21093 3.44532,-2.60352 3.70898,0.76367 0.1582,-0.18554 2.10547,-1.15625 0.57813,-0.10547 0.26367,-1.42188 0.76367,0 1.41992,1 0.26367,1.10547 3.28907,6.73438 2.52539,-0.3418 3.94531,0.68359 3.71094,1.26367 1.68359,1.41993 -0.42187,1.18554 -1.44727,0.15625 -1.68359,-0.0781 -1.3418,0.68359 -0.3418,1.42188 0.94727,3.02539 -0.60547,1.44726 1.86914,1.1836 1.99805,0.91992 0.34375,-1.26172 0.76172,-1.44726 0.92187,-1.3418 1.02539,-1.07813 0.15821,-0.68554 -0.15821,-1 -0.10547,-0.76172 0.52539,-0.42188 1.08008,0.15821 1.76172,0.68359 1.10547,0.1582 1.10547,0.60547 1.68359,2.6836 1.15821,0.68359 0.60351,0.5 0.6582,1.07812 1.1836,1.10547 2.02734,0.3418 -1.94726,-7.41797 -1,-2.52734 1,0 1.86718,2.36914 3.52539,1.34179 2.78907,1.41993 -0.26368,2.71093 1.10547,0.41993 2.76368,1.68359 -0.8418,1.76367 -1.26367,0.68359 -3.78907,0.41993 -1.57812,-0.3418 -3.05273,0.0801 -3.1836,0.41992 -2.02539,0.8418 -0.8418,1.10547 -1.10547,2.60546 -1.07812,1.1836 -1.68359,1.07812 -1.26368,0.5 -0.5,-0.41992 0.42188,-2.10547 -1.44727,-0.0781 -1.34179,0.34179 -1.10547,0.6836 -1,1.07812 -0.49805,-1.68359 -0.5,-5.28711 -0.68555,0.0781 -0.0781,0.0781 0,0.26367 -0.18359,0.57813 -1.3418,-0.91993 -0.8418,-0.0801 -0.5,0.6582 -0.34179,1.3418 -0.92188,0 -0.57812,-3.10352 -2.10547,-3.28906 -0.26368,-0.0781 -0.84179,-0.68554 -5.20899,-1.76172 -2.20898,0.91992 -1.26367,-1.5 -0.41992,-2.70898 0.10351,-2.60547 -0.3418,0.68554 -0.41992,0.57813 -0.60547,0.41992 -0.73632,0.26367 -0.42188,-1.76172 0.42188,-1.60547 0.57812,-1.60546 0.42188,-2.02539 -2.78907,2.78906 -1.76367,2.34179 -2.02539,1.26172 -3.26172,-0.41992 -3.13086,-1.57812 -4.13086,-4.39453 -2.60547,-1.91993 3.13086,5.47266 32.41407,32.22852 7.05078,4.47265 0.60547,0.3418 2.60351,3.52539 22.1543,17.60156 7.15625,3.70899 17.83789,15.04882 15.99609,16.68165 1.26172,0.84179 2.1836,1.10352 1.68359,2.52734 2.52734,5.28711 5.89258,5.89453 1.02539,1.52539 1,1.1836 5.13086,2.84179 1.86719,1.36719 2.94726,3.94727 1.3418,2.68359 0.57813,2.78906 -0.49805,3.28906 -0.84375,2.5254 -0.15625,2.18359 1.49805,2.44727 24.67968,16.07421 16.83789,15.4961 4.20899,4.70898 1.92187,2.94727 0.8418,2.68359 0.18359,3.36719 0.57813,2.86914 0.92187,2.60352 1.36719,2.52539 5.05274,6.6582 12.44335,10.70703 9.86719,-26.70508 2.41992,-4.55078 3.70899,-3.18359 4.97266,-3.13086 4.28906,-3.60352 4.63086,-2.86914 5.97265,-1.18359 5.47071,-1.76172 3.21093,-4.21094 2.6836,-4.36719 3.97265,-2.78906 7.23438,1.10547 5.39453,4.02539 11.44336,18.52149 2.44727,2.60546 3.10546,1.10547 7.83985,-1 2.94726,0.31446 8.23438,2.36914 2.70898,0.0781 2.94727,-1.07812 3.10547,-2.36719 2.52539,-3.02539 1.18359,-3.28906 -1.10547,-3.02539 -2.68359,-1.52735 -3.44727,-1.07812 -2.94531,-1.78907 -1.44727,-3.02539 0.3418,-3.28906 8.26172,-19.44141 1.91992,-3.52734 6.23633,-4.62891 1.94531,-3.13085 -1.52539,-4.63086 -5.55078,-2.60547 -6.89258,-1.91993 -5.23633,-2.44726 -5.81445,-4.81445 -3.02539,-1.76368 -8.15625,-3.44531 -1.18359,-0.8418 -1.1836,-1.26367 -0.23828,-0.5 0.15821,-0.84179 0.1582,-10.02344 0.76367,-2.52539 1.86719,-3.52539 1.5,-0.94727 2.02539,0.1836 3.28906,-0.3418 3.60352,-2.18359 0,-3.13086 -2.1836,-3.36719 -10.94336,-11.60352 -4.97265,-7.23437 -2.3418,-2.71094 -2.86719,-0.91992 -4.13086,1.26172 -5.89453,4.13086 -2.44726,0.42187 -0.73633,-3.44726 1.42187,-5.47266 0.3418,-1.10352 10.44531,-17.10156 1.3418,-3.68359 0.76172,-3.05274 0,-2.94531 -0.8418,-3.68359 -1.36719,-3.21094 -3.60546,-5.81445 -1.10352,-3.10352 -0.0801,-2.52539 1,-7.99805 -0.5,-3.13086 -3.10351,-8.41992 1.18359,-2.84179 0.31445,-0.10547 5.31446,0.18554 7.31445,2.1836 1.94727,1 0.92187,1.18359 0.60352,1.18359 1.08007,1.26172 4.89258,3.86914 2.60547,1.3418 2.36719,0.18359 2.41992,-1.34179 4.89453,-4.55078 3.20899,-1.26368 5.20898,-1.02539 6.05273,-1.92187 4.55079,-2.28906 1.52539,0.84179 2.60547,1.94727 4.89257,6.05078 4.36914,3.13086 4.47266,0.42187 57.32813,-12.2871 -1.6836,-3.13086 1.07813,-4.70899 1.94726,-4.97265 1,-4.13086 -1.08008,-5.97266 0.34375,-2.10352 0.99805,-2.18359 2.60547,-4.13086 0.60547,-2.44727 -5.57813,-2.60546 -3.02539,-4.62891 -1.26367,-5.81445 -1.18359,-15.57618 0.52734,-1.91992 1.57813,0.41992 1.86718,1.8418 2.60547,2.86719 2.60352,0.76367 1.86914,-1.02539 0.57812,-1.42187 0.0801,-1.60352 0.3418,-1.26367 0.84179,-1.8418 0.6836,-0.91992 0.92187,-0.8418 6.08203,-4.07031 -457.28124,0 z m 470.3496,0 2.73829,1.12305 9.49804,6.97265 0.60547,0.41992 6.12891,1.94727 2.44726,1.68359 1.6836,3.5254 3.13086,10.44531 1.34179,3.10351 0.8418,1.02735 2.26367,2.26172 0.60547,0.84179 0.57813,3.28906 -0.26368,0.0801 0,0.6836 -0.1582,0.84179 0.34375,0.76368 2.68359,0.65625 -0.0801,0.84179 -0.57813,0.92188 -0.26367,0.68359 -0.57813,1.10547 -0.26367,0.91992 0.3418,0.92188 1.8418,1.94726 0.60546,0.91992 0.0781,1.5 0.6582,2.63086 2.02539,-0.10547 3.55274,-1.76367 1.1582,1.18555 2.78711,4.47266 1.3418,1.57812 0.68554,3.97266 0.41993,1.07812 1,1.10547 0.92187,0 0.68359,0.1582 0.3418,1.60352 -1.18359,1.26367 -0.8418,1.1836 -0.26367,1.52734 -0.1582,1.15625 -0.3418,1.36914 -0.57813,1.15625 -0.68554,1.02734 -1.6836,1.3418 -0.65625,1.3418 0.41993,0.84179 1.91992,-0.0801 4.21093,-4.28711 1.94727,-0.5 3.52539,0.57812 9.33984,4.20899 3.05079,0.76367 1.5,-0.3418 2.78906,-1.60547 1.68359,-0.23633 1.41992,0.31641 25.17969,9.36524 2.52539,0.3164 2.78906,-0.73633 3.10352,0.5 0.76367,0.0781 2.02539,-0.6836 0.92188,0.26172 1.26172,1.76368 0.76367,0.26367 1.5,-0.8418 0.60351,-1.18555 0.42188,-1.34179 0.73633,-1.44532 1.44726,-1.34179 4.70899,-3.1836 1.26367,-1.26367 2.10547,-2.63086 L 701.625,673 l 1.68359,-0.91992 3.47266,-1.07813 1.42187,-1.02734 0.6836,-1.26172 0.41992,-3.02539 0.92188,-1.52734 11.02343,-10.60157 1.10547,-1.60547 0.57813,-1.5 0.26367,-2.86718 0.31445,-1.60547 1.52735,-2.86719 3.02539,-4.44726 0.34179,-0.8418 0.41992,0.1582 1.52735,1.10547 2,1.91992 1.78906,2.78907 1.26172,2.94726 1.26367,5.97266 3.26172,6.73437 1.78906,2.71094 2.6836,2.60351 0.92187,1.42188 0.49805,4.05078 1.10547,1.07813 1.52539,0.68554 1.5,1.10352 1.94726,2.68359 -0.60546,0.92188 -1.6836,1.02539 -2.10351,4.36719 -2.94727,1.52734 -1.07812,1.26172 -0.0801,5.55078 -0.1836,0.76367 2.36719,2 3.28906,1.10547 3.52539,0.15625 3.02539,-0.57813 2.52539,-1.52539 1.3418,-0.58007 1.44727,0 1.26367,0.92187 0.41992,2.70899 1,0.84179 1.10547,0 6.55078,-2.10351 0.94727,-0.18555 1.41992,0.18555 2.26367,1.26172 1.44727,0.58007 1.26172,-0.1582 0.92187,-1.10547 1.52539,-4.47265 1.26367,-1.26172 1.3418,-1.08008 1,-1.26172 0,-3.78906 0.60351,-1.44727 1.15821,-1.26367 2.78906,-2.33984 1.3418,-0.92188 1.44726,-0.60547 6.89258,-1.60351 0.57813,0.34179 -1.07813,-4.55273 -10.94531,-9.25977 -0.41992,-4.94726 1.91992,-1.52539 4.97266,-1.76367 1.94726,-2.10352 0,-1.10547 -0.8418,-2.52539 0.0801,-1.42187 0.8418,-0.76172 2.44531,-0.8418 1,-1 0.68359,-2.02539 0.8418,-7.57813 0.92188,-2.86718 0.1582,-1.42188 -0.73633,-1.26172 -1.18555,-0.84179 -0.68359,-0.76368 -0.1582,-0.91992 0.76367,-1.36914 0,-1.57812 0.31641,-1.36914 0.68359,-0.99805 1,-1.10547 17.17969,-6.63086 3.78906,-2.10351 1.10547,-1.94727 -1.10547,-6.31445 0.0781,-1.26367 0.19531,-0.85938 -251.53321,0 z"
     id="rect4"
     inkscape:connector-curvature="0" />
  <path
     style="fill:#009e60"
     d="m 427.34766,0 -1.86914,0.42188 -3.6836,1.34179 -38.57031,1.41992 -0.26172,1.26368 0.68359,1.86718 0.26368,1.91993 -0.94727,2.02734 -1.08008,1.52539 -0.91992,1.68359 -0.26367,2.3418 0,1.76367 -0.26172,1.78906 -0.58008,1.6836 -0.91992,1.57812 1.07812,5.47266 1.0254,162.83008 -132.94141,-0.42188 -55.72461,-0.15625 -6.99805,0.91992 -0.76367,2.10547 0,4.28711 -0.5,1.86914 -1.76172,1.6836 -2.28906,0.5 -2.60547,-0.42188 -2.52539,-1.10547 -2.3418,-1.83984 -3.78711,-4.28906 -2.36914,-1.60547 -2.18359,-0.8418 -4.28711,-0.5 -0.52734,1.8418 -1.15821,2.44726 -1.36718,-3.13086 -1.15821,-6.13086 -1.94726,-3.20898 -2.36719,-0.6582 -8.41992,-0.26367 -2.60352,0.5 -1.41992,1.44726 -1.02734,1.92188 -1.3418,1.76171 -2.52539,0.76368 -2.60547,0 -2.18359,0.41992 -1.86719,1.44726 -1.76367,3.0254 -0.76172,2.94726 0.8418,1.68359 1.18359,1.5 0.68359,2.28907 0.42188,3.44531 5.05078,13.55078 1.5,17.17969 -0.5,7.07812 0.5,2.94532 1.94727,2.86914 -1.10547,2.26172 -1.5,6.31445 -0.91993,1.26367 -1.26367,1.10352 -0.68359,2.52539 -0.0801,2.94726 0.6582,2.26367 -2.52539,-0.5 -1.07812,-1.26367 -1.44727,-4.13086 1.26172,-2.18359 0.76367,-4.13086 -0.23633,-4.20898 -1.78906,-2.26172 -0.1582,1.83984 -0.76172,1.52734 -1.26367,1 -1.76367,0.5 -0.8418,-3.78906 -3.36719,-1.8418 -4.20898,-0.26367 -3.36719,1.02735 2.02539,-2.94727 3.02539,-0.3418 6.31446,1.3418 2.36718,-1.3418 0.5,-2.94726 -1.02539,-3.36719 -2.34179,-2.36914 -2.78907,-0.23633 -2.52539,1.08008 -2.26367,1.44531 -2.70898,1 -1.91993,1.3418 -1.18554,0.3418 -1.94532,-0.26172 -1.26367,-0.58008 -1.26367,-0.3418 -1.91992,0.26367 -1.52539,0.57813 -2.947268,1.68359 -1.605468,0.68555 -3.261719,0.65625 -3.130859,0.34375 -1,1.76172 -0.605469,7.91992 0.185547,2.18359 1.841797,2.20899 2.289062,0.1582 2.525391,-0.26367 2.683594,1.36914 4.050782,4.52539 1.8418,2.70899 6.89257,15.91796 2.02735,2 1.52539,1.10352 0.91992,5.13086 1.10547,1.68359 1,-0.23632 3.28906,-1.44727 1.1836,-0.3418 1.76367,0.3418 0.84179,-0.5 0.8418,-1.76172 1,0 0.76172,2.86719 2.10547,2.10547 4.97265,3.02539 3.70508,2.72656 612.56055,0 2.61523,-3.91016 5.13086,-11.44531 3.13086,-3.28906 10.60352,-5.89258 2.76172,-3.10547 0.52539,-2.94531 -0.8418,-2.94727 -1.68359,-3.05273 4.44726,-6.05078 7.07617,-1 8.07813,0.92187 7.33984,-0.42187 1.91992,-0.76367 0.76368,-0.57813 0.57812,-0.76367 10.70899,-9.25977 0.91992,-3.02539 0.42187,-7.41992 4.20899,-6.05078 6.65625,-5.65625 4.97265,-5.97266 -1.02539,-6.73632 -0.5,-1.76172 1.10547,-1.1836 1.76172,-1 1.26367,-1.36914 0.3418,-1.91992 -1.18359,-1.18359 -3.44727,-1.76368 -2.70898,-2.44531 -2.44727,-2.86914 -2,-3.18359 -1.60547,-3.36719 -2.28906,-7.33984 -1.91992,-2.94727 -6.91992,-3.18359 -2.26172,-3.05078 -1.1836,-3.6836 0.1836,-10.86719 -0.41993,-3.7871 -2.10546,-9.0254 -0.94727,-1.57812 -1.5,-1.26367 -1.60547,-0.6836 -1.26172,-0.76171 -0.5,-1.60547 -1.68359,-0.31641 -1.10547,-0.76172 -0.91992,-1.02734 -1.26367,-0.8418 -5.63086,-1.5 -2.86719,-0.3418 -2.60547,0.6836 -5.23437,2 -3.02539,-0.1582 -2.26368,-1.6836 -2.10351,-2.02539 -2.63281,-1.60547 -2.5254,-0.57812 -27.25586,-2.52539 -2.02539,0.5 -0.0801,0.68359 -1.44727,3.78906 -1.68359,3.44532 -0.5,0.26367 -1.52539,0.57812 -0.5,-0.15625 -1.6836,-0.76367 -0.6582,-0.18359 -1.02539,0.34179 -1.6836,1.44727 -1,0.41992 -2.60546,0.5 -1.36719,0.0801 -1.3418,-0.0801 -2.86914,0.23633 -1.99805,1.36914 -1.94726,1.57812 -5.13086,2.02539 -3.28906,4.39454 -1.94727,1.34179 -4.78711,0.91993 -4.36719,0 -4.47265,-0.8418 -5.05274,-1.8418 -2.18359,-0.18359 -3.13086,0.34179 -2.76172,0.8418 -1.18359,1 -0.92188,2.63086 -2.44531,0.58008 -2.68359,0.41992 -2.63282,3.28906 -2.68359,1.1836 -2.94531,0.57812 -4.97266,-0.41992 -2.94726,0.5 -1.3418,-0.1582 -0.1582,0 -0.41993,-2.02539 -1.44726,-0.92188 -1.68359,-0.76172 -1.5,-1.26367 2.76171,-0.26367 1.02735,-1.76172 0.57812,-2.02539 1.1836,-1 2.02734,-0.26367 2.41992,-0.8418 2.02539,-1.3418 1.3418,-2.94726 0.94727,-0.5 0.3164,-0.76172 -1.26367,-1.76367 -0.41992,-0.91992 -0.0801,-1.10547 0.0801,-1.1836 -0.15821,-6.81445 0.0781,-1.26367 -2.26172,-1.41992 -2.60547,-6.99805 -2.94726,-1.5 0.84375,-2.02539 -0.18555,-2.02735 -1,-1.68359 -1.68359,-1.26172 -0.91993,1.10547 -2.71093,-3.71094 -2.3418,-4.20898 2.42187,-2.86719 0.5254,-3.44726 -0.8418,-6.57813 0.5,-3.02539 1,-2.68359 0.41992,-2.52539 -1.07812,-2.52539 1.84179,-1.0254 1.41992,-1.92187 1.10547,-2.20898 1.52735,-5.28907 0.23632,-2.28906 -0.58007,-1.68359 -0.76172,-1.07813 -1.1836,-2.60547 -1.84179,-2.63086 0.57812,-0.57812 1.6836,-0.5 1.02539,-2.28906 0.92187,-1.6836 1,-1.1582 0.91992,-0.8418 0.76367,-1.02539 0.3418,-1.5 -0.8418,-2.71094 0.0781,-1.18359 1.26367,-0.5 0.76367,-0.57812 2.60352,-2.86719 0.92187,-0.68555 5.15625,-2.76172 1.41993,-3.44726 0.5,-4.73438 0,-8.57812 -0.0781,-3.63086 0.57813,-4.28711 -0.57813,-2.10547 -1.3418,-1.76367 -2.18359,-1.94532 -2.28906,-1.58007 -1.60547,-0.6836 -1,0.26367 -2.02539,0.8418 -1.3418,0 -1,-0.42187 -2.02539,-1.52539 -3.97265,-0.8418 -4.44727,-0.1582 -1.26172,0.5 -1.60547,1.18359 -2.94726,2.76367 -1.3418,0.60547 -6.15625,0.73633 -4.02539,-1.76367 -2.36719,-0.5 -1.94726,0.92187 -1.57813,0.41992 -2.52539,-0.41992 -4.31641,-1.5 -1.49804,1.3418 -1.60547,0.57812 -1.8418,-0.0781 -2.02539,-0.8418 -1.26367,1.76172 -2.86719,-0.65625 -3.28906,-1.44727 -2.44727,-0.6582 -1.84179,0.73633 -1.60352,1.36914 -2.02734,1.26172 -2.94532,0.58008 -19.52148,-2.94727 -3.44727,-1.26367 -2.28906,-1.68359 -3.36719,0.76367 -2.52539,-0.76367 -7.99804,-2.6836 -5.55274,-0.34179 -7.99804,1.84179 -2.60352,-0.57812 -4.71094,-2.86914 -1.76172,-0.6836 -1.44726,0.1836 -2.94727,1.60547 -1.49804,0.42187 -2.86914,0.41992 -5.55079,1.8418 -2.86718,0.5 -6.23633,-0.23633 -5.89258,-0.94726 -2.60547,-0.0781 -8.49805,0.68359 -10.94531,-0.68359 -10.94336,0.91992 -12.73437,-0.42187 -4.86719,0.68554 -2.18359,-0.26367 -7.41993,-2.34179 -2.94531,-2.44727 -1.42187,-0.8418 -2.02539,-0.15625 0,-0.002 z m -332.054691,283.46094 -1.525391,0.41992 -4.630859,4.05273 -0.658203,0.41993 -0.261719,0.84179 -0.763672,3.78907 -0.421875,1.26367 1.605469,4.70898 0.193359,1.04297 8.19336,0 -0.125,-0.88477 1.341796,-5.39453 0.341797,-2.94531 -0.605469,-3.52734 -1.261718,-2.78711 -1.421875,-1 z"
     id="rect8"
     inkscape:connector-curvature="0" />
</svg>
