<?xml version="1.0" encoding="UTF-8" standalone="no"?>
<!-- Created with Inkscape (http://www.inkscape.org/) -->

<svg
   xmlns:dc="http://purl.org/dc/elements/1.1/"
   xmlns:cc="http://creativecommons.org/ns#"
   xmlns:rdf="http://www.w3.org/1999/02/22-rdf-syntax-ns#"
   xmlns:svg="http://www.w3.org/2000/svg"
   xmlns="http://www.w3.org/2000/svg"
   xmlns:sodipodi="http://sodipodi.sourceforge.net/DTD/sodipodi-0.dtd"
   xmlns:inkscape="http://www.inkscape.org/namespaces/inkscape"
   id="svg2"
   sodipodi:version="0.32"
   inkscape:version="0.48.2 r9819"
   width="405"
   height="800"
   version="1.0"
   sodipodi:docname="Flag_map_of_Gibraltar.svg">
  <metadata
     id="metadata7">
    <rdf:RDF>
      <cc:Work
         rdf:about="">
        <dc:format>image/svg+xml</dc:format>
        <dc:type
           rdf:resource="http://purl.org/dc/dcmitype/StillImage" />
      </cc:Work>
    </rdf:RDF>
  </metadata>
  <defs
     id="defs5" />
  <sodipodi:namedview
     inkscape:window-height="988"
     inkscape:window-width="1400"
     inkscape:pageshadow="2"
     inkscape:pageopacity="0.0"
     guidetolerance="10.0"
     gridtolerance="10.0"
     objecttolerance="10.0"
     borderopacity="1.0"
     bordercolor="#666666"
     pagecolor="#ffffff"
     id="base"
     showguides="true"
     inkscape:guide-bbox="true"
     inkscape:zoom="0.55492958"
     inkscape:cx="641.97969"
     inkscape:cy="303.55584"
     inkscape:window-x="-8"
     inkscape:window-y="-8"
     inkscape:current-layer="svg2"
     showgrid="false"
     inkscape:window-maximized="1" />
  <path
     style="opacity:1;fill:white;fill-opacity:1;stroke:none;stroke-width:7;stroke-linejoin:round;stroke-miterlimit:4;stroke-dasharray:none;stroke-opacity:1"
     d="M 273.61101,789.10008 C 246.49033,775.51569 231.91561,745.29051 240.60708,720.65629 C 242.80214,714.43493 247.05461,705.36994 250.05705,700.51183 L 255.51611,691.67898 L 248.24062,683.03257 C 243.21082,677.05498 239.84063,668.39802 237.32195,654.98587 C 235.31819,644.31573 233.17412,633.7565 232.55734,631.52092 C 231.94057,629.28533 231.34263,626.11853 231.22861,624.48361 C 230.93389,620.25816 221.47138,609.84259 217.92725,609.84259 C 214.73142,609.84259 207.80293,599.01349 208.78708,595.55663 C 209.11463,594.40609 206.57992,592.39917 203.1544,591.09679 C 195.11058,588.03854 189.39628,581.09992 191.76502,577.26723 C 193.03429,575.21353 195.27945,575.76199 198.85714,578.99976 C 203.45558,583.16129 204.57487,583.25445 208.0632,579.76611 C 211.55158,576.27778 211.53107,575.07638 207.89464,569.88461 C 204.40246,564.89887 202.63925,564.39844 196.62335,566.68567 C 188.50506,569.77223 185.82184,568.00206 183.9981,558.3565 C 181.14488,543.26599 180.26639,541.96285 146.81216,503.19533 C 141.48277,497.01952 120.92508,470.01724 101.12842,443.19029 C 81.331788,416.36334 63.742878,393.1665 62.041968,391.64178 C 60.341068,390.11706 57.605448,386.45884 55.962868,383.5124 C 54.320278,380.56597 49.644218,377.10957 47.010388,377.27023 C 41.748318,377.59121 41.148068,374.96127 41.867508,365.07617 C 42.537888,355.86567 43.696318,353.75917 48.110218,353.72432 C 56.125368,353.66105 59.691998,357.66139 60.304308,365.32592 C 60.951728,373.42951 75.558998,392.35522 108.10457,435.44876 C 134.39469,470.25952 156.44366,498.74105 157.10225,498.74105 C 158.7261,498.74105 183.1437,479.04985 185.40361,475.91782 C 186.39567,474.54292 181.8229,458.23959 175.2419,439.68818 C 168.66089,421.13675 163.27645,405.0477 163.27645,403.93471 C 163.27645,402.82169 169.36284,399.38166 176.80176,396.29019 C 190.78338,390.47969 193.49369,382.96229 181.45948,383.37128 C 177.32036,383.51197 175.2149,381.78209 174.643,377.77073 C 174.02667,373.44793 172.43148,372.32855 168.3927,373.38472 C 165.37348,374.17427 163.56699,376.35874 164.31702,378.31326 C 165.05791,380.24399 164.06927,383.14729 162.12003,384.76503 C 158.08471,388.11404 154.27039,384.68797 151.32765,375.07121 C 149.7877,370.03869 151.34643,368.63309 163.1901,364.37419 C 178.24428,358.96076 179.09081,356.80461 172.97125,339.45993 C 170.85142,333.45176 169.46433,325.37234 169.88881,321.50557 C 170.45645,316.33452 169.4127,314.47511 165.94236,314.47511 C 161.52954,314.47511 157.98604,308.35081 153.79124,293.47421 C 151.93996,286.90861 150.32532,286.22127 144.87549,289.67885 C 142.0343,291.48139 142.01996,294.29631 144.79913,304.68723 C 147.71465,315.58809 147.63084,317.84949 144.23153,319.99926 C 142.03795,321.38649 139.34503,322.54019 138.24722,322.56302 C 135.86483,322.61252 129.35534,307.62251 126.8952,296.42155 C 125.19713,288.69029 125.62899,288.27561 140.14349,283.70031 C 152.83713,279.69901 155.14707,277.97382 155.14707,272.49478 C 155.14707,268.93293 153.9138,265.25647 152.40642,264.32486 C 147.57813,261.34081 133.46871,228.27369 133.46871,219.94204 C 133.46871,214.47768 135.75948,210.09442 140.60865,206.28007 C 147.36102,200.96866 147.43457,200.6638 141.96354,200.6638 C 134.88028,200.6638 134.68811,195.89203 141.44516,187.79229 C 145.37035,183.08714 149.38256,181.69523 159.02029,181.69523 C 170.73665,181.69523 171.4113,181.30572 169.92836,175.39715 C 168.91273,171.35057 169.90888,167.80331 172.71479,165.47461 C 176.18422,162.59525 176.35927,161.39178 173.56643,159.62015 C 166.53866,155.16211 160.71826,157.56773 146.01157,171.0088 L 131.01975,184.71049 L 123.95065,173.51235 C 112.77068,155.8021 112.8097,155.37947 126.79451,142.72009 L 139.73225,131.00852 L 132.21715,129.12235 C 127.07122,127.83082 123.24022,128.55909 120.06519,131.43247 C 117.51489,133.74044 111.63324,135.62877 106.9948,135.62877 C 102.35634,135.62877 97.807628,136.84817 96.886508,138.33857 C 93.656878,143.56421 90.447508,140.96845 89.606278,132.45021 C 89.343978,129.79409 89.650228,127.35481 88.911678,125.59185 C 88.173118,123.8289 86.389718,122.74224 85.400998,122.79132 C 83.518348,122.8848 81.982658,123.62727 81.982658,128.6801 C 81.982658,134.84903 81.134408,135.51913 75.208158,134.03174 L 68.433678,132.33145 L 68.433678,152.94866 C 68.433678,176.13639 63.203508,181.95889 62.693048,159.33945 C 62.516448,151.51493 62.569908,143.5888 62.811818,141.7258 C 63.053738,139.86282 60.802308,138.33857 57.808628,138.33857 C 52.768238,138.33857 47.654978,132.55786 47.022548,126.14449 C 46.413548,119.96877 41.335758,122.18674 41.335758,128.62847 C 41.335758,132.47864 40.116348,135.62877 38.625948,135.62877 C 37.135568,135.62877 36.060568,134.71421 36.237058,133.59642 C 37.137788,127.89186 35.608298,122.0798 33.206368,122.0798 C 31.538048,122.0798 30.496568,135.695 30.496568,157.50579 C 30.496568,189.54237 30.050908,192.84601 25.838608,192.03476 C 21.723518,191.24228 21.100978,186.48172 20.497218,151.18917 L 19.813788,111.24064 L 61.396718,111.24064 C 92.537058,111.24064 105.95731,112.31829 114.83691,115.53194 C 140.31309,124.75203 152.75145,127.1239 154.31122,123.05924 C 156.57684,117.15509 150.61026,112.1063 137.45147,108.79287 C 124.31636,105.48542 121.13528,100.40145 132.20086,100.40145 C 145.01307,100.40145 156.46374,107.66262 172.52042,125.96909 C 185.11979,140.33382 189.02742,143.359 190.82767,140.14213 C 192.0865,137.89273 196.75343,135.25348 201.19862,134.27716 C 210.86773,132.15346 213.61755,128.5853 209.45257,123.56681 C 207.76586,121.53444 205.41322,113.71883 204.22446,106.19878 C 201.97262,91.953691 204.48752,87.596541 212.20759,92.367781 C 214.43951,93.747201 217.48978,93.374721 219.80829,91.439611 C 221.93824,89.661901 226.79636,86.565271 230.73836,84.853461 C 239.87965,80.883861 238.9284,79.985211 174.87974,82.291401 C 138.85237,83.583131 122.69719,81.858111 114.95964,81.880481 C 107.2115,81.902011 109.08058,75.123781 109.08058,66.307421 L 109.08058,57.044771 L 125.17203,57.044771 C 141.04352,57.044771 145.52928,58.621461 140.75335,49.592831 C 140.35523,43.777381 141.43338,42.140921 145.6628,42.140921 C 149.94296,42.140921 151.2787,44.731501 150.53488,49.865571 C 147.04434,54.084061 149.98739,57.590221 149.98739,57.590221 L 173.56813,56.096521 C 186.53753,55.274971 205.36531,54.606521 215.40762,54.611071 L 233.66636,54.619351 L 231.92831,41.605641 C 230.97238,34.448101 227.9384,24.342071 225.18618,19.147791 C 222.43393,13.953511 220.18211,8.2642906 220.18211,6.5050706 C 220.18211,4.1605806 232.84481,3.3631806 267.60349,3.5187606 C 293.68524,3.6355306 315.02487,4.8239306 315.02487,6.1596906 C 315.02487,7.4954506 316.24179,7.8362406 317.7291,6.9170306 C 320.457,5.2310806 337.28138,13.291741 338.96701,17.092201 C 339.4669,18.219271 340.98864,18.453701 342.34868,17.613151 C 343.7087,16.772631 348.17734,17.935301 352.27896,20.196921 C 356.3806,22.458531 366.13833,26.947051 373.96287,30.171371 C 381.7874,33.395721 388.18928,37.145961 388.18928,38.505251 C 388.18928,39.864541 390.73254,39.615581 393.84096,37.952001 C 396.94936,36.288441 400.07452,35.509201 400.78569,36.220391 C 401.49688,36.931601 400.87181,44.651681 399.39666,53.376171 C 397.92148,62.100631 395.93198,77.774671 394.97552,88.207391 C 394.01905,98.640091 392.19725,111.44388 390.92706,116.66023 C 389.65688,121.87656 387.80964,134.68034 386.82208,145.11303 C 385.83456,155.54576 384.59583,167.52781 384.06934,171.73981 C 383.54287,175.95184 385.67825,186.10373 388.81462,194.29958 C 394.01718,207.8947 394.24295,210.96461 391.38987,229.31634 C 389.44099,241.85204 385.66828,253.5413 381.37755,260.33826 C 373.48093,272.84729 370.65684,294.55502 376.09718,300.92615 C 380.17821,305.70541 382.06959,319.87025 379.23841,324.45122 C 378.15122,326.21034 378.47603,328.40009 379.9602,329.31736 C 381.70282,330.39436 381.52457,332.80117 379.457,336.11187 C 376.955,340.11824 377.05636,342.73539 379.92097,348.08794 C 382.98667,353.81624 382.99206,355.65366 379.95395,359.31435 C 377.12476,362.72333 377.02214,364.81372 379.49,368.76538 C 381.23278,371.55604 381.599,374.49424 380.30381,375.29471 C 379.00861,376.09519 377.34069,380.72449 376.59736,385.58206 C 375.854,390.43964 374.50473,397.46253 373.59891,401.18849 C 363.59112,442.35473 366.37417,471.23394 381.56361,483.83719 C 387.59126,488.83857 388.20491,499.72392 382.85713,506.78325 C 378.97826,511.90357 378.44581,514.69368 380.58486,518.69049 C 384.53196,526.06571 381.69209,542.74809 373.93634,557.74631 C 366.35806,572.40125 364.72339,578.25439 362.41392,599.00341 C 361.50153,607.20052 359.77991,618.3064 358.58815,623.68314 C 356.88849,631.35098 357.49608,634.85691 361.40584,639.9419 C 368.20408,648.78356 367.86984,650.59323 357.44118,661.40766 C 344.06296,675.28076 341.41848,681.98179 340.41042,704.56372 C 339.90914,715.79274 338.26022,725.39303 336.7462,725.8977 C 335.23217,726.40241 333.99343,728.39349 333.99343,730.32239 C 333.99343,732.25126 332.16429,735.34749 329.92873,737.20286 C 327.69314,739.0582 325.82526,743.1706 325.77787,746.34146 C 325.73043,749.51236 323.90134,754.47375 321.71318,757.36677 C 316.59704,764.1309 316.70183,765.77524 322.62314,771.64714 C 325.31177,774.31337 327.44574,779.54336 327.36527,783.26933 C 327.24375,788.89452 325.72482,790.18787 318.41211,790.89296 C 313.56836,791.35998 309.60528,792.89409 309.60528,794.30207 C 309.60528,798.98636 286.75566,795.68406 273.61101,789.10008 z M 44.643668,334.41205 C 43.206108,331.64386 39.432718,322.06254 36.258358,313.12022 C 33.083998,304.1779 23.931978,279.18005 15.920538,257.56947 C 7.3654883,234.49255 2.3352283,217.21507 3.7313383,215.70315 C 5.2326683,214.07729 7.0050583,214.07729 8.5420983,215.70315 C 9.8806083,217.11903 20.346978,244.33234 31.800688,276.17719 C 45.551108,314.4076 51.713808,334.98871 49.941528,336.761 C 48.169208,338.53329 46.369488,337.7353 44.643668,334.41205 z "
     id="path1873"
     sodipodi:nodetypes="cscccsssssssssssssssssssssssssssssssssssssssssssssssssssssccccccssssssscccsssssssssscccssssssssssssssccccsccccccssssssssssssssssssssssssssssssssssssssssssssssssccssssssc" />
  <path
     style="fill:#da000c;fill-opacity:1;fill-rule:nonzero;stroke:none;stroke-width:1;stroke-linecap:square;stroke-linejoin:miter;stroke-miterlimit:4;stroke-dashoffset:0.99999998;stroke-opacity:1"
     d="M 207.92036,593.59639 L 190.92927,578.94277 L 194.69816,576.07576 L 205.5022,581.80978 L 210.58567,575.43865 L 203.17586,565.08554 L 188.4011,567.79328 L 174.16474,535.93758 L 381.97724,535.93758 L 371.22835,562.03801 L 358.75188,633.41469 L 366.66306,647.4511 L 343.0371,682.83083 L 339.79878,717.57346 L 318.40271,762.82846 L 326.95102,778.45766 L 327.21682,787.71572 L 308.68777,795.38101 L 293.3443,794.12669 L 261.43585,781.08576 L 242.58825,756.57678 L 239.66849,726.33378 L 255.54359,691.31242 L 241.47434,672.85602 L 229.95354,621.2697 L 216.5214,609.18444 L 207.92036,593.59639 z "
     id="rect2943"
     sodipodi:nodetypes="ccccccccccccccccccccccccccc" />
  <path
     style="fill:black;fill-opacity:1;fill-rule:nonzero;stroke:none;stroke-width:1;stroke-linecap:butt;stroke-linejoin:miter;stroke-miterlimit:4;stroke-dashoffset:0.99999998;stroke-opacity:1"
     d="M 67.543428,397.85225 L 77.806838,395.50289 L 158.47134,498.59591 L 186.25537,476.49602 L 164.02596,403.10845 L 189.58011,388.33537 L 192.73305,363.4481 L 368.89178,363.4481 L 368.89178,500.9258 L 143.1884,500.9258 L 67.543428,397.85225 z "
     id="rect2578"
     sodipodi:nodetypes="ccccccccccc" />
  <path
     id="path2429"
     d="M 284.10571,480.82706 L 345.15085,480.82706 L 375.67342,480.82706 L 379.48874,480.82706 L 386.17108,490.46341 L 387.11202,497.71058 L 379.43899,513.13272 L 379.65693,517.51287 L 284.10571,517.51287"
     style="fill:#da000c;fill-opacity:1;fill-rule:nonzero;stroke:black;stroke-width:3.125;stroke-linecap:square;stroke-linejoin:miter;stroke-miterlimit:4;stroke-dashoffset:0.99999998;stroke-opacity:1"
     sodipodi:nodetypes="ccccccccc" />
  <path
     id="path2239"
     style="fill:#da000c;fill-opacity:1;fill-rule:nonzero;stroke:black;stroke-width:3.125;stroke-linecap:square;stroke-linejoin:miter;stroke-miterlimit:4;stroke-dashoffset:0.99999998;stroke-opacity:1"
     d="M 143.16594,498.63891 L 386.34323,498.63891"
     sodipodi:nodetypes="cc" />
  <path
     style="fill:#da000c;fill-opacity:1;fill-rule:evenodd;stroke:black;stroke-width:3.125px;stroke-linecap:butt;stroke-linejoin:miter;stroke-opacity:1"
     d="M 165.94331,526.75784 L 318.59833,526.75784 L 318.59833,504.78519 L 288.03193,490.03909 L 170.13642,490.03909 L 157.84187,498.14823 L 148.70087,490.03909 L 137.9831,490.03909 L 165.94331,526.75784 z "
     id="path2861"
     sodipodi:nodetypes="ccccccccc" />
  <g
     id="g2731"
     transform="matrix(3.125,0,0,3.125,-597.7103,3.056641e-5)">
    <path
       id="path2659"
       d="M 273.29688,150.03125 C 271.95511,150.42638 270.25691,151.28434 268.17188,152.4375 C 266.08684,153.59066 263.70193,155.04151 261.45313,156.53125 C 259.78593,157.6357 258.39333,158.73855 257.01563,159.8125 C 256.53501,160.18715 255.87249,160.57866 255.45313,160.9375 C 254.96294,161.35694 254.62706,161.75729 254.23438,162.15625 C 253.97759,162.41715 253.6355,162.68057 253.42188,162.9375 C 252.88158,163.58732 252.35938,164.15278 252.35938,165.34375 C 252.35938,165.55994 252.36551,165.77673 252.39063,166 C 253.16547,165.07112 254.27801,164.42514 255.51563,164.28125 C 255.52158,164.2814 255.54308,164.28142 255.54688,164.28125 C 255.57835,164.28134 255.64027,164.28063 255.67188,164.28125 C 255.67569,164.28118 255.69717,164.28116 255.70313,164.28125 C 255.82519,164.27167 255.92246,164.28125 256.04688,164.28125 C 256.17129,164.28125 256.26856,164.27167 256.39063,164.28125 C 256.57822,164.29597 256.74419,164.34033 256.92188,164.375 C 256.99021,164.31205 257.04337,164.24884 257.10938,164.1875 C 257.33657,163.97636 257.45924,163.82918 257.73438,163.59375 C 258.28409,163.12338 259.19041,162.52809 259.89063,162 C 261.02344,161.14566 262.04989,160.32569 263.39063,159.4375 C 265.56011,158.0003 267.87099,156.59971 269.85938,155.5 C 271.84776,154.40029 273.61275,153.60771 274.29688,153.40625 L 273.29688,150.03125 z "
       style="fill:#f8d80e;fill-opacity:1;fill-rule:evenodd;stroke:black;stroke-width:0.76800001;stroke-linecap:butt;stroke-linejoin:miter;stroke-miterlimit:4;stroke-dasharray:none;stroke-opacity:1" />
    <path
       style="fill:none;fill-opacity:0.75;fill-rule:evenodd;stroke:black;stroke-width:1;stroke-linecap:round;stroke-linejoin:miter;stroke-miterlimit:4;stroke-dasharray:none;stroke-opacity:1"
       d="M 260.40041,157.3913 L 260.40041,161.3032"
       id="path2766"
       sodipodi:nodetypes="cc" />
    <path
       sodipodi:nodetypes="cc"
       id="path2770"
       d="M 262.81691,155.68544 L 262.81691,159.56821"
       style="fill:none;fill-opacity:0.75;fill-rule:evenodd;stroke:black;stroke-width:0.99999994;stroke-linecap:round;stroke-linejoin:miter;stroke-miterlimit:4;stroke-dasharray:none;stroke-opacity:1" />
    <path
       style="fill:none;fill-opacity:0.75;fill-rule:evenodd;stroke:black;stroke-width:1.00000012;stroke-linecap:round;stroke-linejoin:miter;stroke-miterlimit:4;stroke-dasharray:none;stroke-opacity:1"
       d="M 265.23339,154.17984 L 265.23339,158.03797"
       id="path2772"
       sodipodi:nodetypes="cc" />
    <path
       sodipodi:nodetypes="cc"
       id="path2774"
       d="M 267.64986,152.69367 L 267.64986,156.67498"
       style="fill:none;fill-opacity:0.75;fill-rule:evenodd;stroke:black;stroke-width:0.99999988;stroke-linecap:round;stroke-linejoin:miter;stroke-miterlimit:4;stroke-dasharray:none;stroke-opacity:1" />
  </g>
  <path
     id="path2245"
     style="fill:#da000c;fill-opacity:1;fill-rule:evenodd;stroke:black;stroke-width:3.125px;stroke-linecap:butt;stroke-linejoin:miter;stroke-opacity:1"
     d="M 147.75507,504.74762 L 318.63036,504.74762"
     sodipodi:nodetypes="cc" />
  <path
     style="fill:#da000c;fill-opacity:1;fill-rule:nonzero;stroke:black;stroke-width:3.125;stroke-linecap:square;stroke-linejoin:miter;stroke-miterlimit:4;stroke-dashoffset:0.99999998;stroke-opacity:1"
     d="M 46.583438,353.76815 L 41.801228,359.35378 L 42.291168,375.91628 L 50.560308,378.95152 L 60.916038,391.36067 L 68.260888,401.89508 C 68.635858,401.88136 69.007478,401.86383 69.385888,401.86383 C 86.963438,401.86383 101.32339,416.52174 101.32339,434.58258 L 101.32339,443.23883 L 124.26089,473.92633 L 124.26089,453.48883 L 70.151028,382.29637 L 62.979638,372.27008 L 57.402958,357.28316 L 46.583438,353.76815 z "
     id="rect2994"
     sodipodi:nodetypes="ccccccscccccccc" />
  <path
     id="path2970"
     style="fill:#da000c;fill-opacity:1;fill-rule:evenodd;stroke:black;stroke-width:3.125px;stroke-linecap:butt;stroke-linejoin:miter;stroke-opacity:1"
     d="M 25.879618,259.08206 L 16.594598,259.08206 L 29.149788,291.69925 L 37.151498,291.69925 M 27.157378,291.5814 L 37.402608,291.5814 L 40.817688,305.76175 L 33.987538,305.76175 L 27.157378,291.5814 z "
     sodipodi:nodetypes="ccccccccc" />
  <path
     style="fill:black;fill-opacity:1;fill-rule:nonzero;stroke:none;stroke-width:1;stroke-linecap:butt;stroke-linejoin:miter;stroke-miterlimit:4;stroke-dashoffset:0.99999998;stroke-opacity:1"
     d="M 154.79916,119.84729 L 166.25563,119.84729 L 189.20005,139.44437 L 211.35608,129.42058 L 206.35329,119.84729 L 212.08153,119.84729 L 223.538,119.84729 L 246.45095,119.84729 L 246.45095,286.26764 L 154.79916,286.26764 L 154.79916,182.25492 L 169.77134,180.23986 L 174.86825,161.50055 L 168.17855,158.21125 L 154.79916,161.45238 L 154.79916,119.84729 z "
     id="rect2572"
     sodipodi:nodetypes="cccccccccccccccc" />
  <path
     style="fill:#da000c;fill-opacity:1;fill-rule:evenodd;stroke:black;stroke-width:3.125px;stroke-linecap:butt;stroke-linejoin:miter;stroke-opacity:1"
     d="M 155.32339,119.92633 L 153.66714,124.20758 L 148.38589,124.27008 L 148.38589,170.61383 L 163.16714,158.52008 L 172.01089,158.52008 L 172.01089,144.92633 L 181.10464,144.92633 L 181.10464,179.77008 L 172.01089,179.77008 L 167.93325,181.28522 L 148.38589,183.36383 L 148.38589,259.17633 L 177.47964,259.17633 L 177.47964,217.86383 C 177.47962,208.33593 183.58905,195.11383 202.29214,195.11383 C 220.99521,195.11383 227.10464,208.33593 227.10464,217.86383 L 227.10464,259.17633 L 256.19839,259.17633 L 256.19839,119.92633 L 209.04214,119.92633 L 211.69839,128.20758 L 202.10464,133.30133 L 198.63589,135.55133 L 202.29214,135.55133 L 206.79214,135.55133 L 206.79214,183.20758 L 202.29214,183.20758 L 197.79214,183.20758 L 197.79214,136.08258 L 189.29214,141.58258 L 166.91714,119.92633 L 155.32339,119.92633 z M 197.79214,136.08258 L 198.63589,135.55133 L 197.79214,135.55133 L 197.79214,136.08258 z M 223.47964,144.92633 L 232.57339,144.92633 L 232.57339,179.77008 L 223.47964,179.77008 L 223.47964,144.92633 z "
     id="path2937"
     sodipodi:nodetypes="cccccccccccccccscccccccccccccccccccccccccc" />
  <path
     style="fill:#da000c;fill-opacity:1;fill-rule:nonzero;stroke:black;stroke-width:3.125;stroke-linecap:square;stroke-linejoin:miter;stroke-miterlimit:4;stroke-dashoffset:0.99999998;stroke-opacity:1"
     d="M 138.51089,99.895081 L 138.51089,108.98883 L 145.32339,111.36383 L 151.70941,115.6561 L 153.82339,119.73883 L 166.13589,119.73883 L 149.29214,104.67633 L 138.91714,99.895081 L 138.51089,99.895081 z M 203.44839,99.895081 L 203.79214,108.80133 L 207.35464,119.73883 L 266.07339,119.73883 L 266.07339,99.895081 L 203.44839,99.895081 z "
     id="rect2945"
     sodipodi:nodetypes="ccccccccccccccc" />
  <path
     style="fill:#da000c;fill-opacity:1;fill-rule:nonzero;stroke:black;stroke-width:3.125;stroke-linecap:square;stroke-linejoin:miter;stroke-miterlimit:4;stroke-dashoffset:0.99999998;stroke-opacity:1"
     d="M 126.51089,76.863831 L 126.51089,82.676331 L 145.54214,82.676331 L 145.54214,76.863831 L 126.51089,76.863831 z M 167.04214,76.863831 L 167.04214,82.676331 L 191.54214,82.676331 L 191.54214,76.863831 L 167.04214,76.863831 z M 213.04214,76.863831 L 213.04214,82.676331 L 230.54021,82.676331 L 216.52906,93.838641 L 207.91012,90.007971 L 203.7781,93.826521 L 202.41714,99.895081 L 278.07339,99.895081 L 278.07339,76.863831 L 259.04214,76.863831 L 259.04214,89.551331 L 237.54214,89.551331 L 237.54214,76.863831 L 213.04214,76.863831 z "
     id="rect2954"
     sodipodi:nodetypes="cccccccccccccccccccccccc" />
  <path
     style="fill:#da000c;fill-opacity:1;fill-rule:nonzero;stroke:black;stroke-width:3.125;stroke-linecap:square;stroke-linejoin:miter;stroke-miterlimit:4;stroke-dasharray:none;stroke-dashoffset:0.99999998;stroke-opacity:1"
     d="M 22.698388,133.89508 L 22.698388,148.83258 L 31.198388,148.83258 L 32.260888,133.89508 L 22.698388,133.89508 z M 51.948388,133.89508 L 53.354638,137.33258 L 60.760888,139.33258 L 62.479638,148.83258 L 68.315578,148.83258 L 68.026518,133.89508 L 51.948388,133.89508 z M 90.010888,133.89508 L 91.010888,140.67633 L 95.010888,141.14508 L 98.729568,137.1713 L 110.51888,136.12594 L 114.10464,135.11383 L 114.10464,133.89508 L 90.010888,133.89508 z "
     id="rect3026"
     sodipodi:nodetypes="cccccccccccccccccccc" />
  <path
     style="fill:#da000c;fill-opacity:1;fill-rule:nonzero;stroke:black;stroke-width:3.125;stroke-linecap:square;stroke-linejoin:miter;stroke-miterlimit:4;stroke-dasharray:none;stroke-dashoffset:0.99999998;stroke-opacity:1"
     d="M 20.219298,112.60028 L 19.548958,133.88675 L 38.398138,133.88675 L 45.411668,124.6486 L 52.106638,133.88675 L 79.523628,133.88675 L 83.428588,124.17076 L 87.970668,123.05581 L 89.805008,133.88675 L 113.79487,133.88675 L 120.64912,130.31009 L 120.64912,117.79178 L 103.75458,112.54886 L 103.75458,119.82425 L 83.344428,119.82425 L 83.344428,112.54886 L 52.192078,112.54886 L 52.192078,119.82425 L 31.781928,119.82425 L 31.781928,112.54886 L 20.219298,112.60028 z "
     id="rect2982"
     sodipodi:nodetypes="ccccccccccccccccccccc" />
  <path
     style="fill:#f8d80e;fill-opacity:1;fill-rule:nonzero;stroke:black;stroke-width:3.20000005;stroke-linecap:butt;stroke-linejoin:miter;stroke-miterlimit:4;stroke-dasharray:none;stroke-dashoffset:0.99999998;stroke-opacity:1"
     d="M 200.88589,547.27008 L 183.38589,557.42633 L 185.24974,564.15706 L 190.8312,566.50446 L 200.88589,560.64508 L 234.07339,579.98883 L 208.58511,594.75446 L 213.35464,605.45758 L 245.29214,586.92633 L 254.01089,586.92633 L 254.01089,573.05133 L 245.29214,573.05133 L 200.88589,547.27008 z "
     id="path2617"
     sodipodi:nodetypes="ccccccccccccc" />
  <g
     id="g2710"
     transform="matrix(3.125,0,0,3.125,-597.7103,3.056641e-5)">
    <path
       id="path2670"
       d="M 245.23211,156.80979 C 245.53203,156.96146 245.83232,157.11522 246.13232,157.27074 C 246.73233,157.58178 247.33119,157.89986 247.92364,158.22228 C 249.10854,158.86713 250.2678,159.52937 251.35938,160.1875 C 253.54253,161.50376 255.45308,162.79779 256.76563,163.875 C 257.4219,164.41361 257.9259,164.91345 258.20313,165.25 C 258.23726,165.29145 258.27729,165.34175 258.29688,165.375 C 258.30036,165.38135 258.29379,165.4002 258.29688,165.40625 C 258.31885,165.45239 258.34562,165.50089 258.35938,165.53125 C 258.33405,165.75494 258.29402,165.99609 258.23438,166.15625 C 258.22922,166.16908 258.20867,166.20704 258.20313,166.21875 C 258.20026,166.22431 258.2061,166.24475 258.20313,166.25 C 258.20004,166.25493 258.17507,166.27665 258.17188,166.28125 C 258.15119,166.30793 258.13133,166.34888 258.10938,166.375 C 258.1048,166.38017 258.08292,166.40115 258.07813,166.40625 C 258.07304,166.41128 258.05226,166.43256 258.04688,166.4375 C 258.03537,166.44719 257.99759,166.45951 257.98438,166.46875 C 257.96306,166.48222 257.91719,166.51914 257.89063,166.53125 C 257.74777,166.58922 257.51425,166.625 257.14063,166.625 C 256.91906,166.625 256.73986,166.59228 256.60938,166.5625 C 256.55915,166.54995 256.49284,166.54722 256.45313,166.53125 C 256.44041,166.52576 256.40237,166.50581 256.39063,166.5 C 256.35677,166.48214 256.32372,166.45761 256.29688,166.4375 C 256.2886,166.42921 256.27008,166.41012 256.26563,166.40625 C 256.26288,166.40282 256.23704,166.37899 256.23438,166.375 C 256.22671,166.36156 256.21069,166.3233 256.20313,166.3125 C 256.20096,166.3126 256.17438,166.31246 256.17188,166.3125 C 256.16911,166.31269 256.14391,166.31176 256.14063,166.3125 C 256.13365,166.31227 256.11728,166.31254 256.10938,166.3125 C 256.09295,166.31262 256.06097,166.3125 256.04688,166.3125 C 255.94994,166.3125 255.86006,166.30296 255.76563,166.3125 C 254.61819,166.42838 253.64597,167.24661 253.32813,168.375 C 253.32844,168.37774 253.32804,168.40361 253.32813,168.40625 C 253.33193,168.41048 253.3555,168.43368 253.35938,168.4375 C 253.37505,168.45177 253.40607,168.4833 253.42188,168.5 C 254.22461,169.46876 255.60188,170.125 257.14063,170.125 C 258.75901,170.125 260.17028,169.44734 260.95313,168.4375 C 261.73597,167.42766 261.92188,166.27941 261.92188,165.34375 C 261.92188,164.25263 261.43196,163.61922 260.92188,163 C 260.41179,162.38078 259.74959,161.78426 258.98438,161.15625 C 257.45396,159.90022 255.44942,158.56067 253.17188,157.1875 C 252.0331,156.50091 250.83367,155.81305 249.60944,155.14373 C 249.30339,154.9764 248.99578,154.81023 248.68719,154.64553 C 248.53289,154.56317 248.37834,154.48119 248.22362,154.39961 C 246.89661,155.89808 246.30835,155.84262 245.23211,156.80979 z "
       style="fill:#f8d80e;fill-opacity:1;fill-rule:evenodd;stroke:black;stroke-width:0.76800001;stroke-linecap:butt;stroke-linejoin:miter;stroke-miterlimit:4;stroke-dasharray:none;stroke-opacity:1"
       sodipodi:nodetypes="cssssssscsssssssssssssssssssssscsscsssssssscc" />
    <path
       sodipodi:nodetypes="cc"
       id="path2693"
       d="M 254.04985,158.03521 L 253.73747,161.37469"
       style="fill:none;fill-opacity:0.75;fill-rule:evenodd;stroke:black;stroke-width:1;stroke-linecap:round;stroke-linejoin:miter;stroke-miterlimit:4;stroke-dasharray:none;stroke-opacity:1" />
    <path
       sodipodi:nodetypes="cc"
       id="path2705"
       d="M 256.8319,159.73914 L 255.96991,163.00882"
       style="fill:none;fill-opacity:0.75;fill-rule:evenodd;stroke:black;stroke-width:1;stroke-linecap:round;stroke-linejoin:miter;stroke-miterlimit:4;stroke-dasharray:none;stroke-opacity:1" />
    <path
       sodipodi:nodetypes="cc"
       id="path2709"
       d="M 259.80442,162.01152 L 257.99552,164.54884"
       style="fill:none;fill-opacity:0.75;fill-rule:evenodd;stroke:black;stroke-width:1;stroke-linecap:round;stroke-linejoin:miter;stroke-miterlimit:4;stroke-dasharray:none;stroke-opacity:1" />
    <path
       sodipodi:nodetypes="cc"
       id="path2713"
       d="M 260.71528,168.18078 L 258.10512,166.78032"
       style="fill:none;fill-opacity:0.75;fill-rule:evenodd;stroke:black;stroke-width:1.00000012;stroke-linecap:round;stroke-linejoin:miter;stroke-miterlimit:4;stroke-dasharray:none;stroke-opacity:1" />
    <path
       id="path2715"
       d="M 261.52792,165.42898 L 258.53251,165.70943"
       style="fill:none;fill-opacity:0.75;fill-rule:evenodd;stroke:black;stroke-width:1px;stroke-linecap:round;stroke-linejoin:miter;stroke-opacity:1"
       sodipodi:nodetypes="cc" />
    <path
       sodipodi:nodetypes="cc"
       id="path2719"
       d="M 257.66497,169.7646 L 257.45987,167.13228"
       style="fill:none;fill-opacity:0.75;fill-rule:evenodd;stroke:black;stroke-width:1.00000012;stroke-linecap:round;stroke-linejoin:miter;stroke-miterlimit:4;stroke-dasharray:none;stroke-opacity:1" />
    <path
       sodipodi:nodetypes="cc"
       id="path1881"
       d="M 256.56809,166.75559 L 254.09509,168.57779"
       style="fill:none;fill-opacity:0.75;fill-rule:evenodd;stroke:black;stroke-width:1px;stroke-linecap:round;stroke-linejoin:miter;stroke-opacity:1" />
    <path
       sodipodi:nodetypes="cc"
       id="path2762"
       d="M 250.96338,156.24386 L 250.96338,159.77805"
       style="fill:none;fill-opacity:0.75;fill-rule:evenodd;stroke:black;stroke-width:1.00000024;stroke-linecap:round;stroke-linejoin:miter;stroke-miterlimit:4;stroke-dasharray:none;stroke-opacity:1" />
    <path
       style="fill:none;fill-opacity:0.75;fill-rule:evenodd;stroke:black;stroke-width:1.00000012;stroke-linecap:round;stroke-linejoin:miter;stroke-miterlimit:4;stroke-dasharray:none;stroke-opacity:1"
       d="M 247.82004,154.59318 L 247.82004,157.9121"
       id="path2764"
       sodipodi:nodetypes="cc" />
  </g>
  <path
     style="fill:#f8d80e;fill-opacity:1;fill-rule:nonzero;stroke:black;stroke-width:3.20000005;stroke-linecap:butt;stroke-linejoin:miter;stroke-miterlimit:4;stroke-dasharray:none;stroke-dashoffset:0.99999998;stroke-opacity:1"
     d="M 200.22964,513.36383 C 192.98059,514.47714 187.44839,521.08146 187.44839,528.80133 L 187.44839,563.27008 C 187.44839,564.3074 187.54728,565.3291 187.73736,566.31891 C 187.73736,566.31891 194.187,566.42153 193.99454,565.66218 C 193.80207,564.90282 193.69839,564.10131 193.69839,563.27008 L 193.69839,528.80133 C 193.69837,523.61583 197.63277,519.73883 202.47964,519.73883 C 202.61718,519.73883 202.76989,519.73971 202.88589,519.73883 C 202.93371,519.73967 203.01951,519.73433 203.07339,519.73883 C 203.12465,519.73839 203.22502,519.73946 203.26089,519.73883 C 203.37687,519.73971 203.52958,519.73883 203.66714,519.73883 C 205.03031,519.73883 206.32717,520.05539 207.47964,520.61383 C 207.48759,520.61411 207.56667,520.61292 207.57339,520.61383 C 207.82862,520.56764 208.09349,520.46302 208.26089,520.39508 C 208.33934,520.34471 208.49217,520.23914 208.54214,520.20758 C 208.55846,520.19033 208.61989,520.13114 208.63589,520.11383 C 208.64499,520.11392 208.71814,520.11333 208.72964,520.11383 C 208.74644,520.09839 208.80748,520.0358 208.82339,520.02008 C 208.84412,519.99967 208.90998,519.93442 208.91714,519.92633 C 208.97584,519.84602 209.07932,519.6868 209.13589,519.61383 C 209.13568,519.60486 209.13714,519.53108 209.13589,519.52008 C 209.13587,519.52008 209.22964,519.42633 209.22964,519.42633 C 209.24259,519.39889 209.29773,519.29083 209.32339,519.23883 C 209.50975,518.73833 209.61923,517.96911 209.69839,517.27008 C 209.65538,517.17521 209.57958,517.03927 209.51089,516.89508 C 209.5115,516.89021 209.51108,516.82346 209.51089,516.80133 C 209.44447,516.69986 209.32296,516.50842 209.22964,516.39508 C 208.59503,515.62471 207.50195,514.65386 206.19839,513.48883 C 206.1884,513.49083 206.11324,513.48833 206.10464,513.48883 C 206.01134,513.46752 205.79214,513.38361 205.69839,513.36383 C 205.68537,513.36305 205.61652,513.36367 205.60464,513.36383 C 205.55422,513.36458 205.44655,513.36499 205.41714,513.36383 C 205.3979,513.36414 205.33577,513.36411 205.32339,513.36383 C 205.268,513.36452 205.17358,513.36264 205.13589,513.36383 C 205.03462,513.36824 204.82051,513.37099 204.72964,513.36383 C 204.34818,513.33389 204.05592,513.36383 203.66714,513.36383 C 203.42412,513.36383 203.28973,513.3653 203.07339,513.36383 C 202.85703,513.3653 202.72264,513.36383 202.47964,513.36383 C 202.09084,513.36383 201.79858,513.33389 201.41714,513.36383 C 201.32625,513.37099 201.11214,513.36824 201.01089,513.36383 C 200.97321,513.36264 200.87876,513.36452 200.82339,513.36383 C 200.79862,513.36439 200.74652,513.36186 200.72964,513.36383 C 200.69043,513.36536 200.57517,513.36664 200.54214,513.36383 C 200.53024,513.36367 200.46139,513.36305 200.44839,513.36383 C 200.39109,513.37192 200.28673,513.35505 200.22964,513.36383 z M 218.29214,525.58258 C 218.13372,525.81817 217.99558,526.12864 217.82339,526.36383 C 216.52372,528.04033 214.65911,529.43514 212.44839,530.36383 L 212.44839,553.98883 L 218.69839,557.61383 L 218.69839,528.80133 C 218.69837,527.70717 218.62977,526.61833 218.41714,525.58258 C 218.40703,525.57942 218.30079,525.58336 218.29214,525.58258 z M 211.76089,566.89508 C 210.94627,568.91404 209.46243,570.52689 207.60464,571.48883 L 209.94839,574.64508 C 209.94839,574.64508 210.78795,576.94331 211.57818,576.43105 C 212.36842,575.91879 213.11073,575.33349 213.79548,574.68496 C 215.16497,573.38791 216.30418,571.83798 217.13589,570.11383 L 211.76089,566.89508 z "
     id="path2671"
     sodipodi:nodetypes="cccssccssssssssssssssscscssscsssssssssssssssscccccccsccccsscc" />
  <path
     id="path2437"
     d="M 335.1999,401.8555 C 317.62233,401.8555 303.2663,416.5095 303.2663,434.57034 L 303.2663,480.76175 L 280.31708,480.76175 L 280.31708,305.76175 L 378.65998,305.76175 L 380.04524,315.63702 L 378.48021,325.59192 L 380.73787,330.76847 L 378.24493,340.48446 L 382.76024,353.06746 L 377.71885,363.73912 L 380.71143,370.74738 L 367.96915,429.15552 L 370.41833,464.99318 L 376.89912,480.76175 L 367.13349,480.76175 L 367.13349,434.57034 C 367.13352,417.21497 353.0244,401.8555 335.1999,401.8555 z "
     style="fill:#da000c;fill-opacity:1;fill-rule:nonzero;stroke:black;stroke-width:3.125;stroke-linecap:square;stroke-linejoin:miter;stroke-miterlimit:4;stroke-dashoffset:0.99999998;stroke-opacity:1"
     sodipodi:nodetypes="ccccccccccccccccccc" />
  <path
     style="fill:#da000c;fill-opacity:1;fill-rule:nonzero;stroke:black;stroke-width:3.125;stroke-linecap:round;stroke-linejoin:miter;stroke-miterlimit:4;stroke-dasharray:none;stroke-dashoffset:0.99999998;stroke-opacity:1"
     d="M 135.93862,320.11383 L 138.8273,320.11383 L 144.60464,320.11383 L 147.07339,316.52008 L 145.22964,305.77008 L 129.1271,305.77008 L 135.93862,320.11383 z M 163.0018,313.81744 L 168.57945,315.2398 L 168.66714,320.11383 L 202.29214,320.11383 L 306.19839,320.11383 L 306.19839,305.77008 L 157.51773,305.77008 L 163.0018,313.81744 z "
     id="path2846"
     sodipodi:nodetypes="ccccccccccccccc" />
  <rect
     y="187.38019"
     x="-363.13913"
     height="106.12312"
     width="57.885338"
     id="rect2576"
     style="fill:black;fill-opacity:1;fill-rule:nonzero;stroke:none;stroke-width:1;stroke-linecap:butt;stroke-linejoin:miter;stroke-miterlimit:4;stroke-dasharray:none;stroke-dashoffset:0.99999998;stroke-opacity:1"
     transform="scale(-1,1)" />
  <path
     d="M 305.41474,277.05081 L 356.06761,277.05081 L 356.06761,259.08206 L 374.63766,259.08206 L 383.92268,259.08206 L 380.01636,265.57758 L 374.56311,278.31986 L 373.42926,291.69925 L 305.41474,291.69925 M 373.15325,291.5814 L 309.12055,291.5814 L 309.12055,305.76175 L 363.76178,305.76175 L 377.42209,305.76175 L 373.15325,291.5814 z "
     style="fill:#da000c;fill-opacity:1;fill-rule:evenodd;stroke:black;stroke-width:3.125px;stroke-linecap:butt;stroke-linejoin:miter;stroke-opacity:1"
     id="path2443"
     sodipodi:nodetypes="ccccccccccccccc" />
  <path
     id="path2445"
     d="M 375.04365,148.82816 L 375.04365,259.08206 L 356.06761,259.08206 L 356.06761,228.80862 C 356.06761,217.46706 348.06118,208.18561 336.86005,207.61722 C 336.49874,207.59888 336.15168,207.61722 335.78583,207.61722 C 324.0784,207.61721 314.59443,217.1012 314.59443,228.80862 L 314.59443,259.08206 L 296.52802,259.08206 L 296.52802,148.82816 L 375.04365,148.82816 z "
     style="fill:#da000c;fill-opacity:1;fill-rule:evenodd;stroke:black;stroke-width:3.125px;stroke-linecap:butt;stroke-linejoin:miter;stroke-opacity:1" />
  <path
     style="fill:#da000c;fill-opacity:1;fill-rule:evenodd;stroke:black;stroke-width:3.125px;stroke-linecap:butt;stroke-linejoin:miter;stroke-opacity:1"
     d="M 154.46276,276.93234 L 125.80952,289.67462 L 128.5257,305.76175 L 132.03828,305.76175 L 146.08857,305.76175 L 142.76062,290.70993 L 150.57371,287.44472 L 158.38258,305.76175 L 160.13886,305.76175 L 174.18916,305.76175 L 202.28974,305.76175 L 314.69208,305.76175 L 314.69208,259.08206 L 293.40302,259.08206 L 293.40302,277.05081 L 265.08271,277.05081 L 265.08271,259.08206 L 227.09443,259.08206 L 227.09443,277.05081 L 202.28974,277.05081 L 177.48505,277.05081 L 177.48505,259.08206 L 148.99384,259.08206 L 154.43603,267.21081 L 154.46276,276.93234 z "
     id="path2851"
     sodipodi:nodetypes="ccccccccccccccccccccccccc" />
  <path
     id="path2455"
     d="M 381.87958,133.88675 L 381.87958,148.82816 L 290.47333,148.82816 L 290.47333,133.88675 L 381.87958,133.88675 z "
     style="fill:#da000c;fill-opacity:1;fill-rule:nonzero;stroke:black;stroke-width:3.125;stroke-linecap:square;stroke-linejoin:miter;stroke-miterlimit:4;stroke-dasharray:none;stroke-dashoffset:0.99999998;stroke-opacity:1" />
  <path
     sodipodi:nodetypes="ccccccccccccc"
     id="path2457"
     d="M 393.59833,105.27347 L 388.45764,133.88675 L 283.93037,133.88675 L 283.93037,105.27347 L 300.8249,105.27347 L 300.8249,119.82425 L 321.23505,119.82425 L 321.23505,105.27347 L 352.3874,105.27347 L 352.3874,119.82425 L 372.79755,119.82425 L 372.79755,105.27347 L 393.59833,105.27347 z "
     style="fill:#da000c;fill-opacity:1;fill-rule:nonzero;stroke:black;stroke-width:3.125;stroke-linecap:square;stroke-linejoin:miter;stroke-miterlimit:4;stroke-dasharray:none;stroke-dashoffset:0.99999998;stroke-opacity:1" />
  <path
     style="fill:#da000c;fill-opacity:1;fill-rule:evenodd;stroke:black;stroke-width:3.125;stroke-linecap:butt;stroke-linejoin:round;stroke-miterlimit:4;stroke-dasharray:none;stroke-opacity:1"
     d="M 170.29214,320.11383 L 176.01089,358.17633 L 151.35464,369.48883 L 153.68007,381.63034 L 161.8621,385.43747 L 164.14779,376.6082 L 172.17745,373.18501 L 177.16619,381.47503 C 177.16619,381.47503 179.61308,383.74877 184.58432,385.0013 C 190.00606,383.21291 195.98554,382.33258 202.29214,382.33258 C 226.53881,382.33258 247.51089,396.4178 247.51089,426.36383 C 247.51087,454.78577 247.51089,489.92633 247.51089,489.92633 L 287.63589,489.92633 L 287.63589,320.11383 L 170.29214,320.11383 z M 116.94839,447.48883 L 116.94839,463.39508 L 137.01089,489.92633 L 149.54995,489.92633 L 116.94839,447.48883 z "
     id="path2849"
     sodipodi:nodetypes="cccccccccssccccccccc" />
  <path
     style="opacity:1;fill:none;stroke:#da000c;stroke-width:7;stroke-linejoin:round;stroke-miterlimit:4;stroke-dasharray:none;stroke-opacity:1"
     d="M 273.61101,789.10008 C 246.49033,775.51569 231.91561,745.29051 240.60708,720.65629 C 242.80214,714.43493 247.05461,705.36994 250.05705,700.51183 L 255.51611,691.67898 L 248.24062,683.03257 C 243.21082,677.05498 239.84063,668.39802 237.32195,654.98587 C 235.31819,644.31573 233.17412,633.7565 232.55734,631.52092 C 231.94057,629.28533 231.34263,626.11853 231.22861,624.48361 C 230.93389,620.25816 221.47138,609.84259 217.92725,609.84259 C 214.73142,609.84259 207.80293,599.01349 208.78708,595.55663 C 209.11463,594.40609 206.57992,592.39917 203.1544,591.09679 C 195.11058,588.03854 189.39628,581.09992 191.76502,577.26723 C 193.03429,575.21353 195.27945,575.76199 198.85714,578.99976 C 203.45558,583.16129 204.57487,583.25445 208.0632,579.76611 C 211.55158,576.27778 211.53107,575.07638 207.89464,569.88461 C 204.40246,564.89887 202.63925,564.39844 196.62335,566.68567 C 188.50506,569.77223 185.82184,568.00206 183.9981,558.3565 C 181.14488,543.26599 180.26639,541.96285 146.81216,503.19533 C 141.48277,497.01952 120.92508,470.01724 101.12842,443.19029 C 81.331788,416.36334 63.742878,393.1665 62.041968,391.64178 C 60.341068,390.11706 57.605448,386.45884 55.962868,383.5124 C 54.320278,380.56597 49.644218,377.10957 47.010388,377.27023 C 41.748318,377.59121 41.148068,374.96127 41.867508,365.07617 C 42.537888,355.86567 43.696318,353.75917 48.110218,353.72432 C 56.125368,353.66105 59.691998,357.66139 60.304308,365.32592 C 60.951728,373.42951 75.558998,392.35522 108.10457,435.44876 C 134.39469,470.25952 156.44366,498.74105 157.10225,498.74105 C 158.7261,498.74105 183.1437,479.04985 185.40361,475.91782 C 186.39567,474.54292 181.8229,458.23959 175.2419,439.68818 C 168.66089,421.13675 163.27645,405.0477 163.27645,403.93471 C 163.27645,402.82169 169.36284,399.38166 176.80176,396.29019 C 190.78338,390.47969 193.49369,382.96229 181.45948,383.37128 C 177.32036,383.51197 175.2149,381.78209 174.643,377.77073 C 174.02667,373.44793 172.43148,372.32855 168.3927,373.38472 C 165.37348,374.17427 163.56699,376.35874 164.31702,378.31326 C 165.05791,380.24399 164.06927,383.14729 162.12003,384.76503 C 158.08471,388.11404 154.27039,384.68797 151.32765,375.07121 C 149.7877,370.03869 151.34643,368.63309 163.1901,364.37419 C 178.24428,358.96076 179.09081,356.80461 172.97125,339.45993 C 170.85142,333.45176 169.46433,325.37234 169.88881,321.50557 C 170.45645,316.33452 169.4127,314.47511 165.94236,314.47511 C 161.52954,314.47511 157.98604,308.35081 153.79124,293.47421 C 151.93996,286.90861 150.32532,286.22127 144.87549,289.67885 C 142.0343,291.48139 142.01996,294.29631 144.79913,304.68723 C 147.71465,315.58809 147.63084,317.84949 144.23153,319.99926 C 142.03795,321.38649 139.34503,322.54019 138.24722,322.56302 C 135.86483,322.61252 129.35534,307.62251 126.8952,296.42155 C 125.19713,288.69029 125.62899,288.27561 140.14349,283.70031 C 152.83713,279.69901 155.14707,277.97382 155.14707,272.49478 C 155.14707,268.93293 153.9138,265.25647 152.40642,264.32486 C 147.57813,261.34081 133.46871,228.27369 133.46871,219.94204 C 133.46871,214.47768 135.75948,210.09442 140.60865,206.28007 C 147.36102,200.96866 147.43457,200.6638 141.96354,200.6638 C 134.88028,200.6638 134.68811,195.89203 141.44516,187.79229 C 145.37035,183.08714 149.38256,181.69523 159.02029,181.69523 C 170.73665,181.69523 171.4113,181.30572 169.92836,175.39715 C 168.91273,171.35057 169.90888,167.80331 172.71479,165.47461 C 176.18422,162.59525 176.35927,161.39178 173.56643,159.62015 C 166.53866,155.16211 160.71826,157.56773 146.01157,171.0088 L 131.01975,184.71049 L 123.95065,173.51235 C 112.77068,155.8021 112.8097,155.37947 126.79451,142.72009 L 139.73225,131.00852 L 132.21715,129.12235 C 127.07122,127.83082 123.24022,128.55909 120.06519,131.43247 C 117.51489,133.74044 111.63324,135.62877 106.9948,135.62877 C 102.35634,135.62877 97.807628,136.84817 96.886508,138.33857 C 93.656878,143.56421 90.447508,140.96845 89.606278,132.45021 C 89.343978,129.79409 89.650228,127.35481 88.911678,125.59185 C 88.173118,123.8289 86.389718,122.74224 85.400998,122.79132 C 83.518348,122.8848 81.982658,123.62727 81.982658,128.6801 C 81.982658,134.84903 81.134408,135.51913 75.208158,134.03174 L 68.433678,132.33145 L 68.433678,152.94866 C 68.433678,176.13639 63.203508,181.95889 62.693048,159.33945 C 62.516448,151.51493 62.569908,143.5888 62.811818,141.7258 C 63.053738,139.86282 60.802308,138.33857 57.808628,138.33857 C 52.768238,138.33857 47.654978,132.55786 47.022548,126.14449 C 46.413548,119.96877 41.335758,122.18674 41.335758,128.62847 C 41.335758,132.47864 40.116348,135.62877 38.625948,135.62877 C 37.135568,135.62877 36.060568,134.71421 36.237058,133.59642 C 37.137788,127.89186 35.608298,122.0798 33.206368,122.0798 C 31.538048,122.0798 30.496568,135.695 30.496568,157.50579 C 30.496568,189.54237 30.050908,192.84601 25.838608,192.03476 C 21.723518,191.24228 21.100978,186.48172 20.497218,151.18917 L 19.813788,111.24064 L 61.396718,111.24064 C 92.537058,111.24064 105.95731,112.31829 114.83691,115.53194 C 140.31309,124.75203 152.75145,127.1239 154.31122,123.05924 C 156.57684,117.15509 150.61026,112.1063 137.45147,108.79287 C 124.31636,105.48542 121.13528,100.40145 132.20086,100.40145 C 145.01307,100.40145 156.46374,107.66262 172.52042,125.96909 C 185.11979,140.33382 189.02742,143.359 190.82767,140.14213 C 192.0865,137.89273 196.75343,135.25348 201.19862,134.27716 C 210.86773,132.15346 213.61755,128.5853 209.45257,123.56681 C 207.76586,121.53444 205.41322,113.71883 204.22446,106.19878 C 201.97262,91.953691 204.48752,87.596541 212.20759,92.367781 C 214.43951,93.747201 217.48978,93.374721 219.80829,91.439611 C 221.93824,89.661901 226.79636,86.565271 230.73836,84.853461 C 239.87965,80.883861 238.9284,79.985211 174.87974,82.291401 C 138.85237,83.583131 122.69719,81.858111 114.95964,81.880481 C 107.2115,81.902011 109.08058,75.123781 109.08058,66.307421 L 109.08058,57.044771 L 125.17203,57.044771 C 141.04352,57.044771 145.52928,58.621461 140.75335,49.592831 C 140.35523,43.777381 141.43338,42.140921 145.6628,42.140921 C 149.94296,42.140921 151.2787,44.731501 150.53488,49.865571 C 147.04434,54.084061 149.98739,57.590221 149.98739,57.590221 L 173.56813,56.096521 C 186.53753,55.274971 205.36531,54.606521 215.40762,54.611071 L 233.66636,54.619351 L 231.92831,41.605641 C 230.97238,34.448101 227.9384,24.342071 225.18618,19.147791 C 222.43393,13.953511 220.18211,8.2642906 220.18211,6.5050706 C 220.18211,4.1605806 232.84481,3.3631806 267.60349,3.5187606 C 293.68524,3.6355306 315.02487,4.8239306 315.02487,6.1596906 C 315.02487,7.4954506 316.24179,7.8362406 317.7291,6.9170306 C 320.457,5.2310806 337.28138,13.291741 338.96701,17.092201 C 339.4669,18.219271 340.98864,18.453701 342.34868,17.613151 C 343.7087,16.772631 348.17734,17.935301 352.27896,20.196921 C 356.3806,22.458531 366.13833,26.947051 373.96287,30.171371 C 381.7874,33.395721 388.18928,37.145961 388.18928,38.505251 C 388.18928,39.864541 390.73254,39.615581 393.84096,37.952001 C 396.94936,36.288441 400.07452,35.509201 400.78569,36.220391 C 401.49688,36.931601 400.87181,44.651681 399.39666,53.376171 C 397.92148,62.100631 395.93198,77.774671 394.97552,88.207391 C 394.01905,98.640091 392.19725,111.44388 390.92706,116.66023 C 389.65688,121.87656 387.80964,134.68034 386.82208,145.11303 C 385.83456,155.54576 384.59583,167.52781 384.06934,171.73981 C 383.54287,175.95184 385.67825,186.10373 388.81462,194.29958 C 394.01718,207.8947 394.24295,210.96461 391.38987,229.31634 C 389.44099,241.85204 385.66828,253.5413 381.37755,260.33826 C 373.48093,272.84729 370.65684,294.55502 376.09718,300.92615 C 380.17821,305.70541 382.06959,319.87025 379.23841,324.45122 C 378.15122,326.21034 378.47603,328.40009 379.9602,329.31736 C 381.70282,330.39436 381.52457,332.80117 379.457,336.11187 C 376.955,340.11824 377.05636,342.73539 379.92097,348.08794 C 382.98667,353.81624 382.99206,355.65366 379.95395,359.31435 C 377.12476,362.72333 377.02214,364.81372 379.49,368.76538 C 381.23278,371.55604 381.599,374.49424 380.30381,375.29471 C 379.00861,376.09519 377.34069,380.72449 376.59736,385.58206 C 375.854,390.43964 374.50473,397.46253 373.59891,401.18849 C 363.59112,442.35473 366.37417,471.23394 381.56361,483.83719 C 387.59126,488.83857 388.20491,499.72392 382.85713,506.78325 C 378.97826,511.90357 378.44581,514.69368 380.58486,518.69049 C 384.53196,526.06571 381.69209,542.74809 373.93634,557.74631 C 366.35806,572.40125 364.72339,578.25439 362.41392,599.00341 C 361.50153,607.20052 359.77991,618.3064 358.58815,623.68314 C 356.88849,631.35098 357.49608,634.85691 361.40584,639.9419 C 368.20408,648.78356 367.86984,650.59323 357.44118,661.40766 C 344.06296,675.28076 341.41848,681.98179 340.41042,704.56372 C 339.90914,715.79274 338.26022,725.39303 336.7462,725.8977 C 335.23217,726.40241 333.99343,728.39349 333.99343,730.32239 C 333.99343,732.25126 332.16429,735.34749 329.92873,737.20286 C 327.69314,739.0582 325.82526,743.1706 325.77787,746.34146 C 325.73043,749.51236 323.90134,754.47375 321.71318,757.36677 C 316.59704,764.1309 316.70183,765.77524 322.62314,771.64714 C 325.31177,774.31337 327.44574,779.54336 327.36527,783.26933 C 327.24375,788.89452 325.72482,790.18787 318.41211,790.89296 C 313.56836,791.35998 309.60528,792.89409 309.60528,794.30207 C 309.60528,798.98636 286.75566,795.68406 273.61101,789.10008 z M 44.643668,334.41205 C 43.206108,331.64386 39.432718,322.06254 36.258358,313.12022 C 33.083998,304.1779 23.931978,279.18005 15.920538,257.56947 C 7.3654883,234.49255 2.3352283,217.21507 3.7313383,215.70315 C 5.2326683,214.07729 7.0050583,214.07729 8.5420983,215.70315 C 9.8806083,217.11903 20.346978,244.33234 31.800688,276.17719 C 45.551108,314.4076 51.713808,334.98871 49.941528,336.761 C 48.169208,338.53329 46.369488,337.7353 44.643668,334.41205 z "
     id="path3934"
     sodipodi:nodetypes="cscccsssssssssssssssssssssssssssssssssssssssssssssssssssssccccccssssssscccsssssssssscccssssssssssssssccccsccccccssssssssssssssssssssssssssssssssssssssssssssssssccssssssc" />
</svg>
