<?xml version="1.0" encoding="UTF-8" standalone="no"?>
<!-- Creator: CorelDRAW X8 -->

<svg
   xmlns:dc="http://purl.org/dc/elements/1.1/"
   xmlns:cc="http://creativecommons.org/ns#"
   xmlns:rdf="http://www.w3.org/1999/02/22-rdf-syntax-ns#"
   xmlns:svg="http://www.w3.org/2000/svg"
   xmlns="http://www.w3.org/2000/svg"
   xmlns:sodipodi="http://sodipodi.sourceforge.net/DTD/sodipodi-0.dtd"
   xmlns:inkscape="http://www.inkscape.org/namespaces/inkscape"
   xml:space="preserve"
   width="483.05096"
   height="600.00006"
   version="1.1"
   viewBox="0 0 136327.71 169333.34"
   id="svg2"
   inkscape:version="0.91 r13725"
   sodipodi:docname="Flag_of_Guam.svg"
   style="clip-rule:evenodd;fill-rule:evenodd;image-rendering:optimizeQuality;shape-rendering:geometricPrecision;text-rendering:geometricPrecision"><metadata
     id="metadata44"><rdf:RDF><cc:Work
         rdf:about=""><dc:format>image/svg+xml</dc:format><dc:type
           rdf:resource="http://purl.org/dc/dcmitype/StillImage" /><dc:title></dc:title></cc:Work></rdf:RDF></metadata><defs
     id="defs42"><clipPath
       clipPathUnits="userSpaceOnUse"
       id="clipPath4305"><path
         style="font-style:normal;font-weight:normal;font-size:12px;font-family:Dialog;display:inline;overflow:visible;visibility:visible;opacity:0.6;fill:#008080;fill-opacity:1;fill-rule:evenodd;stroke:none;stroke-width:1.29999995;stroke-linecap:butt;stroke-linejoin:miter;stroke-miterlimit:4;stroke-dasharray:none;stroke-dashoffset:0;stroke-opacity:1;marker:none;marker-start:none;marker-mid:none;marker-end:none;enable-background:accumulate"
         d="m 139946.32,-2822.7722 c -500.1,122.047 -811.69,613.6408 -1273.82,832.9973 -237.4,340.5291 -663.59,503.2889 -909.31,851.4288 -431.83,376.48254 -465.09,1055.503701 -759.93,1540.61135 -337.52,817.93005 -641.17,1678.38775 -1238.37,2373.12465 -302.88,533.9975 -779.7,939.6567 -1129.79,1443.7607 -351.15,437.4231 -753.27,831.7738 -1102.29,1262.7807 -445.72,552.4579 -227.56,1289.6821 -406.08,1918.1853 -89.66,799.6536 -57.84,1611.4126 -291.71,2388.7985 100.26,177.7802 326.67,516.6069 161.81,853.8799 85.27,304.027 10.23,561.623 159.07,857.5 162.35,238.985 -29.36,682.564 82.87,848.245 438.79,2.386 333.59,688.548 478.72,1070.513 205.08,336.174 377.6,959.382 -210.73,972.737 -404.1,158.515 -188.61,621.19 -310.43,916.349 -50.14,301.37 -316.26,541.643 -361.31,869.275 -146.19,411.146 -353.61,766.202 -694.29,1042.428 -284.15,313.877 -431.46,772.881 -540.62,1148.653 -94.51,364.072 -37.04,555.285 171.32,820.506 -72.85,350.782 -339.72,807.173 -751.51,621.848 -129.35,-254.626 -192.28,208.25 -464.41,352.172 -290.86,170.176 -508.61,346.093 -725.13,539.172 -230.54,230.878 -442.53,615.982 -286.43,743.965 -268.04,2.737 -604.58,215.784 -660.01,565.5 -245.03,321.283 190.03,629.25 -199.11,917.757 -102.15,539.444 -738.41,771.858 -795.95,1357.599 -75.69,556.871 -494.86,1109.146 -1118.25,1050.163 157.9,350.128 -484.32,818.911 -681.58,575.814 -575.63,230.437 29.25,389.83 -8.81,743.373 -203.79,427.064 -273.97,912.303 -330.6,1374.287 -128.06,430.317 -431.85,751.255 -742.24,1037.199 292.12,519.153 -550.58,679.397 -563.98,1173.331 -277.72,569.44 -903.68,931.75 -1264.08,1396.978 -212.31,560.931 551.28,897.37 349.62,1464.595 -65.22,416.134 128.06,820.791 58.77,1241.845 411.89,291.686 -5.76,708.344 68.07,1089.061 -241.77,300.974 131.95,478.735 418.83,524.692 461.64,-89.221 422.86,450.985 268.32,723.185 -153.12,499.191 -303.71,998.595 -693.63,1377.533 -507.79,725.573 -852.62,1603.651 -1666.83,2055.829 -545.63,283.767 -1165.77,266.196 -1697.58,569.58 -509.09,169.155 -1124.59,106.376 -1517.09,-266.199 -104.45,-395.193 -532.85,-571.693 -884.68,-715.901 -225.44,-149.736 -593.19,16.049 -876.43,29.948 -458.85,194.822 -965.77,437.441 -1444.33,297.419 -386.13,12.933 -533.21,329.144 -773.55,553.7 -331.89,146.91 -530.65,457.086 -779,736.317 -843.82,1641.027 -387.47,-216.949 -328.29,1140.917 247.2,277.762 -24.44,791.991 315.86,964.464 305.8,109.872 576.84,-35.828 874.52,87.832 528.56,162.326 561.64,867.922 492.75,1333.262 -83.03,823.387 -800.07,1356.613 -1176.57,2048.468 -322.38,454.953 -695.21,952.064 -1306.22,1008.029 -338.74,116.611 -681.62,221.102 -1016.57,367.081 -719.5,136.141 -1458.09,162.576 -2179.27,196.894 -363.46,239.162 -207.11,-91.859 -288.48,-495.909 55.88,-312.638 -454.6,-992.398 -424.59,-502.395 -206.97,371.477 -443.79,859.969 -755.83,1089.466 -289.18,-7.468 -328.88,-144.046 -22.72,-210.041 -405.84,-45.975 -571.65,463.002 -538.13,-292.315 -119.25,-543.071 488.17,-460.752 853.18,-418.566 -32.07,-283.296 117.77,-490.888 -328.1,-143.146 -362.36,253.966 -874.51,-504.699 -1006.07,96.086 219.46,185.469 619.49,253.345 433.1,818.478 -68.33,218.309 -526.54,32.135 -758.45,87.515 -571.98,104.388 -1110.24,-89.129 -1606.27,-345.347 -732.48,-151.866 -1479.67,-26.85 -2218.4,-20.914 -418.69,127.882 -374.65,92.164 -563.12,-315.109 -235.07,-289.738 -672.45,-450.271 -632.9,-44.671 368.24,290.801 -132.63,477.787 -460.62,470.768 -550.62,28.552 -1058.5,282.642 -1432.268,660.429 -463.45,287.541 -959.324,499.279 -1409.942,813.553 -341.177,115.288 -749.611,-180.684 -1059.886,-6.483 -324.565,-181.664 -830.97,-101.327 -1166.853,-372.745 -440.908,-352.951 29.792,-150.603 -343.571,-544.531 -253.549,-240.18 -807.621,578.489 -486.187,291.712 61.248,287.865 61.176,632.873 42.133,946.445 7.949,426.35 -521.013,634.524 -812.72,890.304 -367.304,383.418 -908.06,364.936 -1394.564,383.506 -371.61,322.741 -825.091,562.185 -1319.191,628.804 -306.055,29.655 -691.14,158.824 -842.432,453.077 -271.641,253.975 -607.35,200.791 -804.123,-28.478 -306.69,-4.321 -702.911,-416.789 -606.108,-680.659 189.047,-302.887 42.789,-527.283 -262.545,-317.643 -384.536,62.734 -782.518,211.789 -1169.456,411.433 -553.509,437.408 -1205.531,767.542 -1874.763,958.616 -737.608,-61.494 -1513.671,-108.64 -2203.382,-449.532 -419.846,-28.119 -836.308,-237.115 -1260.842,-340.335 -543.786,-127.853 -162.553,254.436 -586.669,307.92 -2255.065,-13.682 -4514.285,11.114 -6767.742,9.721 -850.526,188.525 -1383.693,938.323 -2087.319,1393.738 -582.514,411.327 -1376.696,510.95 -1763.223,1176.569 -530.938,242.722 144.75,696.874 45.79,199.824 378.427,-684.005 1168.469,-873.933 1804.945,-1191.645 480.597,-382.567 939.64,-883.346 1484.449,-1170.091 445.533,-312.042 982.379,-314.524 1511.124,-288.469 660.757,22.253 1370.111,-140.952 1953.793,256.059 10.654,118.422 214.893,-451.656 279.164,5.345 188.521,-589.941 562.46,152.397 932.837,-121.912 297.861,-314.497 804.108,-95.361 1180.038,-81.15 280.167,-269.609 580.487,362.441 771.417,-81.035 291.319,168.771 393.214,444.01 644.397,27.843 512.588,16.079 257.618,549.513 441.739,833.755 192.553,322.819 -890.957,502.208 -253.138,522.419 255.504,-278.283 670.119,-458.631 975.619,-719.56 247.028,503.081 668.771,538.397 1177.687,479.421 556.834,52.398 1060.232,-116.885 1609.601,-69.818 417.119,-101.138 365.738,191.146 674.361,53.898 173.373,-128.888 979.71,-410.793 658.29,-414.464 -58.399,-98.383 533.744,-414.595 800.292,-463.912 263.042,-133.397 771.157,-326.044 584.534,171.699 286.247,-179.208 310.491,46.677 728.172,-197.631 542.422,-166.434 1.407,328.431 -273.385,387.118 -197.343,331.23 -762.74,214.273 -498.031,423.193 25.484,524.064 -97.922,173.099 -155.578,-166.008 64.3,-244.431 -681.142,-141.735 -683.905,-5.778 351.702,44.817 629.567,-7.689 638.526,408.398 133.209,534.394 -114.173,483.193 -207.03,591.509 -546.851,102.855 -1134.862,-139.066 -1695.606,21.092 -385.632,181.531 -606.375,-205.948 -914.032,-84.274 -459.014,149.901 -915.344,-29.272 -1394.39,-9.233 -369.778,-91.27 -975.49,212.44 -694.732,635.748 362.521,374.135 -400.405,653.118 -153.817,932.527 387.645,176.028 626.407,-16.951 541.246,-431.516 125.895,-274.144 -396.006,-729.84 22.729,-787.193 155.96,375.844 377.15,640.213 758.455,803.834 273.638,93.6 662.654,302.845 866.893,22.823 449.557,-78.388 493.429,-599.17 860.689,-768.315 440.238,3.433 821.521,122.778 1277.072,61.58 425.71,64.812 317.561,630.988 116.683,865.421 -127.308,349.321 113.82,603.743 191.673,914.681 79.246,321.723 168.778,505.065 35.216,825.864 -343.002,215.599 4.379,780.001 -330.609,1046.923 -659.985,-61.443 352.559,558.573 -172.32,255.959 -199.976,-223.975 -804.577,-326.715 -686.631,107.06 15.191,613.12 -49.541,307.822 -221.111,-44.514 -276.891,-236.15 -367.152,-447.919 -793.396,-441.673 -184.272,-171.194 -235.155,-755.273 -517.19,-368.522 112.016,110.595 -524.835,53.689 -733.821,-16.259 -629.357,-131.882 96.465,173.466 61.473,452.846 -31.458,496.69 -764.175,228.541 -978.859,547.775 79.152,485.292 67.048,985.242 35.656,1471.522 582.521,-16.258 1123.623,-255.02 1717.858,-239.851 37.503,451.39 322.725,366.438 650.947,571.218 31.645,463.631 270.645,978.967 75.3,1418.274 -132.956,273.278 355.25,704.838 -42.342,742.881 -415.056,133.468 -377.482,634.507 -641.772,914.032 -18.913,-19.101 -568.642,455.075 -637.328,813.817 -184.892,223.231 -455.263,982.054 -179.237,793.641 247.548,62.958 792.35,139.268 747.952,352.718 -195.568,199.348 -771.402,165.756 -811.206,-197.682 53.264,175.321 -396.135,418.54 -714.431,314.769 -429.072,-55.615 -523.703,-681.942 -811.235,-968.788 -331.778,-508.707 -663.224,-1017.623 -994.576,-1526.597 251.76,-330.328 1062.108,-762.804 262.891,-900.94 -623.544,-154.488 -797.277,-434.063 -291.333,-902.649 275.766,-398.588 775.593,-888.54 -43.194,-840.809 -778.702,-194.342 351.507,-251.082 373.067,-703.814 648.783,156.566 637.595,-462 560.218,-918.518 -97.308,-482.984 -99.335,80.703 -518.077,-352.048 -208.401,-172.557 -738.171,-224.89 -917.523,31.458 -484.369,490.514 -21.301,-98.39 -93.745,-362.06 -231.981,438.204 -596.652,-171.454 -733.424,338.126 -580.653,292.234 408.427,646.972 -280.664,741.503 -433.804,180.124 74.939,657.215 142.189,939.661 -384.882,329.333 -441.803,-255.699 -648.249,-547.767 -7.293,-552.254 635.546,-878.744 755.209,-1390.495 -507.366,67.625 -670.531,639.218 -868.653,1053.401 -103.505,421.144 -133.252,-579.052 178.847,-703.792 287.719,-352.783 -408.318,-260.936 -635.863,-275.059 -308.45,217.1 -816.104,-109.925 -970.094,193.736 -293.345,34.819 -608.655,116.243 -932.52,46.115 -313.665,-188.204 -167.912,-366.763 -494.122,112.788 -259.795,41.722 -556.56,165.156 -909.357,185.404 -553.307,-133.137 -1073.483,-339.936 -1643.309,-363.019 -323.071,-154.582 -753.694,-113.141 -1004.761,-385.705 -218.009,-296.728 -312.648,-585.492 -747.635,-384.507 -223.974,-293.417 -492.556,-631.024 -918.338,-545.733 -468.262,-130.316 -986.317,-358.388 -1429.39,-16.208 -358.582,338.226 420.07,152.85 333.935,325.502 -340.73,5.085 -692.33,-38.231 -1010.727,30.57 -184.885,218.117 302.016,381.687 359.153,668.165 153.391,343.601 222.647,573.598 392.629,905.686 280.333,357.53 658.449,682.606 1020.552,964.511 342.259,114.894 61.054,1247.974 167.061,294.124 -6.204,-436.89 558.046,37.315 819.71,52.853 546.108,198.453 1097.908,431.444 1592.274,701.361 302.384,162.451 414.703,446.116 714.006,598.217 196.838,254.941 587.599,101.304 782.374,428.054 -32.741,312.987 -30.303,596.032 84.483,918.995 262.782,256.355 251.089,553.624 299.996,876.443 212.187,321.203 -210.673,580.639 -71.311,920.517 367.123,225.922 579.174,682.087 978.858,774.656 453.438,457.254 241.676,110.357 703.366,-12.963 333.473,-196.773 845.549,375.888 658.211,660.433 -451.981,-81.237 -129.3,360.054 220.75,450.199 322.732,-307.599 676.669,-100.958 1050.811,-200.004 346.933,38.353 651.171,252.914 1016.527,249.74 600.46,310.564 947.783,888.692 1299.736,1432.628 362.161,371.271 267.717,914.444 259.299,1384.012 -249.185,290.77 633.981,267.997 410.98,604.86 -308.392,179.598 746.48,558.494 175.861,535.577 98.03,676.143 -402.05,1290.994 -577.118,1935.507 -294.492,273.284 137.862,728.569 -178.263,1072.855 -234.896,268.178 -383.289,754.653 -768.178,732.523 -321.074,276.704 -657.338,428.739 -622.317,839.482 -412.185,434.258 -489.541,1068.664 -875.138,1526.625 -39.702,334.288 -491.546,565.461 -298.005,881.507 l 77.601,81.143 c 212.743,626.09 131.052,1386.521 -262.544,1915.576 -90.499,305.904 -344.113,597.172 -111.136,804.498 -53.357,394.483 -785.173,434.64 -418.511,903.168 64.617,345.31 -13.742,614.282 -254.732,859.398 -268.986,394.722 -146.359,300.689 -368.956,763.836 -255.042,326.043 -273.191,748.176 -519.628,1078.814 -295.732,461.438 -425.984,954.015 -557.036,1473.852 -62.237,360.927 -481.981,475.519 -534.805,864.715 -409.617,397.664 -484.809,1218.86 -1189.538,1247.873 -567.82,587.245 -516.216,482.969 -15.833,800.154 281.479,264.016 665.402,169.651 994.691,301.865 162.531,275.218 582.644,115.99 855.344,126.074 449.154,152.887 14.11,680.407 551.374,480.049 410.014,145.334 211.33,558.334 551.966,685.96 67.3,293.237 545.285,437.251 384.759,766.115 64.61,252.828 324.248,597.756 222.943,683.905 -210.997,91.847 483.59,-90.751 635.013,125.007 395.039,301.857 -63.795,726.968 -115.709,1025.63 -94.582,257.22 -345.21,751.111 -364.072,941.933 411.146,254.905 254.587,467.446 475.309,845.96 -316.984,-572.834 436.912,158.094 728.014,163 359.224,266.295 965.319,349.616 959.642,901.408 -234.708,434.251 -800.271,426.929 -1208.986,288.476 -140.682,134.904 -130.129,-71.498 -116.69,463.487 232.753,202.334 -26.322,328.835 160.482,713.63 308.342,94.842 297.378,539.011 325.704,689.842 -105.307,733.337 -64.84,-119.713 184.756,207.434 124.344,193.859 773.602,-126.111 741.287,302.679 251.76,353.584 -384.299,395.017 -300.479,766.923 -153.645,447.386 66.932,474.811 201.259,670.026 -3.888,390.259 183.674,279.389 103.418,759.369 13.229,-181.53 379.638,-118.33 720.043,-206.75 286.644,-26.88 949.111,72.5 596.018,478.32 -170.791,417.42 -595.282,374.79 -835.739,637.38 -420.336,153.19 -383.851,352.35 -554.872,633.89 -399.461,-215.35 129.645,499.07 -62.15,741.12 3.859,286.22 253.253,576.8 379.797,841.31 313.384,1119.12 1062.959,410.63 1069.609,1052.71 -225.107,345.61 -150.355,801.71 -74.55,1173.32 220.945,536.37 -20.009,794.95 158.29,327.78 357.436,222.48 148.061,585.84 305.211,897.42 -4.638,346.07 -459.165,574.23 -429.107,969.65 -155.83,349.18 -19.347,543.13 344.834,813.02 l 955.645,969.97 c 514.478,282.61 1063.825,581.31 1406.589,1058.86 438.961,-46.25 461.589,163 619.713,402.12 368.789,-23.06 -153.58,559.91 89.142,825.17 178.444,522.26 650.947,890.43 1064.741,1207.08 318.714,110.08 728.086,-166.14 939.985,145.87 -89.893,-363.17 562.295,84.48 797.342,-12.97 185.022,-328.95 202.955,-494.77 241.481,-539.4 581.987,436.17 339.799,-261.83 533.182,-37.55 57.555,356.61 318.931,495.72 325.769,820.32 l -85.918,498.87 c 192.098,-473.16 502.64,296.69 886.809,196.72 304.807,87.09 636.397,-126.71 896.51,1.14 617.737,175.08 1150.897,548.26 1688.053,900.95 24.713,1.03 519.823,155.04 781.725,172.89 455.068,7.26 892.089,88.62 1325.085,209.57 328.308,-137.18 556.863,-119.63 939.343,-267.5 289.097,-165.33 778.962,-127.52 895.53,-1.45 312.518,-191.83 676.987,-205.88 858.605,-557.58 346.579,-163.36 555.896,-572.66 1014.506,-563.97 334.865,229.85 629.278,524.27 424.607,904.31 274.027,424.07 494.674,86.59 661.214,444.04 210.78,235.29 931.65,-87.21 479.71,-256.06 81.93,-340.54 596.55,-256.7 505.55,126.75 100.64,362.37 497.43,-112.63 191.31,-353.63 -252.9,-499.85 525.52,-618.91 831.18,-800.96 686.5,96.74 43.82,-342.41 526.9,-502.03 467.15,291.99 393.58,-229.77 513.56,-510.8 161.83,-342.44 378.62,-646.05 549.78,-974.1 136.67,-403.16 505.48,-353.54 706.38,-482.53 -208.83,-201.96 -235.98,-650.48 45.8,-875.34 86.52,-377.68 551.13,-139.49 813.13,-246.13 258.52,323.39 391.41,-137.46 578.35,-412.12 488.29,-63.18 18.28,-327.55 -17.61,-618.6 -283.83,-23.18 -582,52.38 -920.51,38.9 -363.08,161.05 -583.13,-508.01 -197.3,-389.48 302.9,-9.03 630.02,-107.76 942.79,-129.12 525.63,-161.92 756.44,-743.14 1312.7,-777.9 458.53,26.15 224.21,-155.67 605.41,-236.9 301.47,232.17 641.26,-316.47 645.61,-574.89 -19.42,-491.65 -617.93,-148.78 -725.01,-599.53 -456.8,-189.68 -148.6,-1121.95 313.68,-811.76 321.64,212.02 553.35,508.56 797.14,764.52 395.3,2.18 256.7,341.19 486.18,311.16 413.02,-40.14 354.75,-629.34 811.01,-606.12 276.78,-217.29 514.94,-490.87 783.69,-719.54 253.61,-242.4 -34.45,-449.55 -260.85,-657.16 -381.81,-361.61 315.66,-603.03 348.36,-179.1 369.71,250.92 581.04,-167 843.16,-359.92 280.69,-234.72 198.62,-696.17 482.48,-968.98 -330.14,543.34 -93.21,-298.57 -444.04,-350.05 252.45,-212.71 74.41,-728.92 396.66,-889.07 313.75,-39.69 534.62,-417.44 851.77,-552.62 415.58,-317.53 752.12,-740.29 965.33,-1203.17 -231.6,-290.09 120.94,-722.18 284.69,-973.507 93.58,-407.265 435.16,-796.187 266.32,-1250.001 183.49,-566.94 -338.39,-1103.36 -118.32,-1647.232 -86.53,-785.505 -303.86,-1609.788 180.75,-2307.42 237.73,-489.433 5.06,-1041.081 31.57,-1542.502 -99.98,-311.977 109.52,-586.842 28.83,-921.152 198.99,-538.079 -519.15,-851.247 -476.12,-1393.092 -30.19,-323.403 220.61,-647.809 -132.06,-876.219 -56.36,-469.596 -533.26,250.274 -519.44,130.727 -337.4,356.181 -384.62,-159.198 -55.1,-298.192 113.9,-264.831 -439.13,68.39 -647.07,-192.185 -309,-161.471 -668.06,123.766 -829.06,13.474 -343.63,-211.394 372.2,-101.795 -169.82,-244.251 -384.4,-175.169 -901.22,-381.463 -1261.41,14.571 -437.85,103.533 -395.69,719.459 -845.97,693.621 -450.83,76.548 -501.54,-608.006 -969.13,-563.968 -380.44,-205.53 688.73,-16.403 638.53,382.459 410.71,302.289 766.23,-36.565 631.88,-496.019 204.87,-517.962 1014.9,-588.234 1461.96,-353.18 109.96,-352.256 538.15,-213.955 807.4,-278.031 464.44,-154.423 914.24,62.554 1377.17,119.2 289.82,301.468 424.07,254.588 715.13,-101.426 29.18,-220.246 511.64,-750.289 53.04,-776.943 -380.33,-332.672 377.82,-247.504 126.24,-655.181 88.36,88.811 -526.6,-278.103 -129.83,-639.78 179.32,-533.471 -143.42,-1170.532 74.9,-1693.471 116.06,-547.168 18.96,-142.463 -123.17,-635.279 -82.6,-463.414 107.45,-922.738 -38.89,-1390.502 -57.53,-456.605 102.8,-861.656 12.97,-1286.775 -26.87,361.108 -356.63,-392.803 -363.03,-583.422 -144.12,-286.24 -297.95,-515.416 -89.42,-845.022 92.61,-193.902 522.05,-967.923 580.4,-592.699 -34.92,216.811 165.61,-575.784 118.38,-814.95 83.15,-369.359 -59.57,-803.394 92.58,-1132.986 118.59,-280.808 236.8,-578.236 374.16,-899.273 171.36,-303.899 99.54,-589.064 202.57,-887.437 -71.3,-345.627 135.48,-538.981 225.27,-827.183 -138.43,-440.512 401.54,-373.197 664.46,-447.292 -240.06,-202.638 -694.78,31.818 -593.79,-476.348 -211.71,-577.14 3.51,-92.381 -351.66,-120.708 -160.71,-278.104 -142.12,-628.752 -458.01,-799.924 -238.25,-14.838 -792.89,-405.174 -661.22,-440.808 418.27,227.689 441.01,-484.607 822.94,-379.566 296.43,-60.549 895.42,-22.08 817.93,221.262 112.29,-361.518 463.47,-624.582 618,-983.46 306.56,-295.553 755.16,-427.168 907.85,-874.287 159.66,-285.403 163.47,-721.306 -110.2,-930.24 42.59,-488.452 626.15,-785.982 654.73,-1296.499 -193.32,-457.261 288.02,-633.101 619.08,-755.216 370.83,-84.057 538.77,-334.151 739.66,-592.165 347.86,-144.519 28.16,-439.062 -3.9,-652.469 -325.71,-188.845 -885.44,-131.701 -939.95,-596.385 -379.84,-265.509 -155.01,-809.611 -324.14,-1189.546 284.4,-415.005 587,-952.183 1163.44,-1015.531 433.59,-201.678 952.09,-47.543 1322.61,-413.851 350.33,81.432 633.39,-78.02 878.37,-327.363 234.92,-254.718 1058.37,-460.262 595.92,87.462 28.44,-337.354 631.05,-68.296 888.58,103.114 281.6,57.368 585.31,57.541 875.13,146.511 304.44,-7.899 601.68,-3.859 872.55,-139.91 622.52,-219.265 767.01,-910.224 893.93,-1480.713 177.4,-264.86 272.28,-587.325 524.22,-788.722 239.9,-179.605 319.04,-540.972 564.84,-676.323 163.31,-297.918 468.63,-402.238 692.87,-640.011 351.81,-177.304 398.9,-406.018 674.96,-692.143 261.46,-274.958 625.01,-109.909 931.8,-130.208 398.58,-174.325 897.93,55.377 1307.9,-190.677 432.1,-153.976 271.51,-716.012 349.01,-836.482 224.1,250.671 702.41,-100.352 697.91,-359.534 -1.48,-282.064 626.8,-58.573 752.37,-457.42 184.42,-286.875 497.72,-600.259 466.34,-916.874 -272.79,-430.882 52.18,-392.435 333.64,-427.211 93.96,-371.206 496.54,-407.871 658.18,-700.74 68.98,221.009 442.92,-462.96 445.87,-678.538 -90.27,-416.917 623.95,-25.572 678.84,-446.175 -429.85,-312.063 368.31,-364.209 540.66,-236.814 357.56,-0.108 405.48,-280.823 603.5,-521.633 388.24,-229.067 543.19,56.747 790.02,-305.774 282.13,-2.034 582.65,-26.877 866.25,-70.214 280.58,-314.163 641.66,-568.148 907.56,-923.756 360.64,-300.194 511.45,-779.69 891.35,-1095.541 122.02,-391.829 606.83,-202.686 759.39,-530.385 86.5,-304.329 481.02,-433.997 423.66,-782.321 196.06,-225.156 575.91,-408.643 724.57,-680.514 280.52,-221.763 389.27,-558.606 652.95,-778.047 443.5,-234.278 788.69,-667.202 1124.72,-1033.957 415.94,-344.461 -78.74,-655.784 400.61,-927.724 305.1,-292.899 672.65,-182.804 1007.14,-480.535 390.46,-225.693 815.44,-546.788 1278.59,-547.986 306.27,-105.648 483.31,-157.074 785.04,-189.459 341.79,-66.828 776.07,92.525 998.29,-223.646 282.66,-64.696 614.32,-245.994 713.07,-560.738 332.55,-569.028 1157.31,-781.042 1319.77,-1442.832 -109.11,-285.688 -253.24,-643.468 -170.02,-889.249 -17.4,-291.347 19.72,-619.035 -8.83,-922.129 53.49,-379.595 320.85,-645.097 709.84,-680.661 278.33,-159.427 798.48,249.143 821.12,-282.503 72.75,-261.701 286.64,-553.402 566.14,-563.46 306.4,-93.109 460.39,-412.863 729.27,-583.425 306.91,-187.435 602.14,-375.399 920.93,-372.171 336.01,-74.399 605.45,37.14 832.58,-285.803 218.14,-207.457 514.95,-248.103 822.13,-300.103 295.32,-329.312 558.61,106.123 843.89,-49.952 337.1,-59.996 570.02,-189.988 816.05,-415.842 298.04,-106.392 580.89,-128.372 879.11,-336.127 302.71,-286.566 714.76,-313.344 1102.03,-298.195 638.44,-305.358 1338.68,-731.741 1503.93,-1474.768 140.68,-292.943 162.43,-480.966 285.63,-788.095 -40.17,-340.995 192.6,-473.029 343.18,-774.185 -7.47,-264.517 341.53,-545.094 387.19,-775.496 -3.63,-321.354 523.55,-524.115 228.64,-864.575 137.95,-354.313 144.56,-786.477 181.51,-1186.297 270.41,-170.201 208.48,-666.213 560.74,-823.275 98.21,-274.448 297.79,-546.401 399.75,-812.989 285.34,-16.244 351.23,-486.015 436.48,-668.261 266.39,-209.892 210.92,-572.535 411.96,-858.986 135.98,-299.772 373.66,-537.465 408.09,-832.944 -90.78,-216.531 -82.38,-458.095 -86.18,-832.057 -112.86,-237.75 -519.96,-405.927 -406.5,-739.947 291.21,-239.677 -120.21,-659.691 63.5,-933.66 35.92,-257.327 292.51,-533.788 234.7,-845.787 127.56,-317.441 241.96,-620.679 268.55,-897.195 62.95,-319.458 463.29,-309.253 697.34,-522.468 408.41,-17.383 587.77,-430.823 790.87,-674.182 393.62,-118.03 547.46,-424.681 687.14,-771.417 35.76,-64.711 326.68,-362.109 457.35,-641.686 59.39,-232.436 331.45,-537.934 249.24,-781.219 -35.8,-269.151 166.27,-602.679 96.35,-895.085 55.9,-422.693 198.28,-822.652 318.53,-1231.174 9.13,-381.452 244.91,-714.068 396.83,-1021.477 80.48,-264.042 367.58,-544.141 338.93,-712.59 81.43,-59.194 347.12,-147.835 422.69,-537.434 249.01,-281.903 322.79,-711.156 313.08,-1083.188 -162.31,-304.387 -345.16,-567.563 -722.98,-639.856 -396.48,-102.638 -895.59,-329.143 -1289.83,-63.495 -401.61,74.939 -835.93,102.62 -1241.4,126.409 -286.67,-4.792 -673.4,-23.499 -997,-95.439 -304.32,-5.053 -639.23,-154.31 -889.41,59.783 -342.42,4.12 -674.48,-101.124 -1014.52,-16.203 -263.3,-335.215 -781.95,-219.529 -1147.38,-379.228 -304.48,104.969 -559.49,391.198 -907.56,379.228 -436.76,163.903 -849.54,-137.181 -1286.77,-129.651 -638.36,-207.251 -1356.13,-342.436 -2023.24,-512.116 -408.18,-94.693 -891.5,-128.941 -1224.83,-424.527 -463.62,-94.388 -970.02,-298.262 -1451.74,-401.992 -496.53,-327.019 -309.66,-252.674 -683.91,-505.633 -209.02,-381.149 -160.18,-822.788 -226.88,-1221.953 -193.5,-622.4173 -469.63,-1213.5013 -787.62,-1785.9257 -260.1,-228.1329 -294.92,-659.0143 -604.76,-861.4691 -170.87,-340.8883 -242.51,-640.8553 -574.58,-877.746 -640.12,-501.3773 -970.97,-1308.0314 -1692.41,-1706.2305 -693.95,-446.5516 -995.92,-1299.9395 -1540.07,-1889.6039 -647.16,-872.8546 -1254.98,-1799.50131 -2002.62,-2580.0734054 -382.25,-307.1955046 -846.22,-695.0268546 -1374.28,-855.6882746 -444.12,-361.51342 -868.96,-724.31302 -1348.37,-1004.78672 -664.11,-571.5617 -1564.72,-818.8598 -2418.66,-904.3098 -247.88,14.9028 -505.71,17.7506 -741.55,-61.584 z M 99777.541,115411.42 c -563.492,364.76 -647.996,426.26 -45.963,31.68 z M 114220.49,43938.69 c -769.61,117.129 -121.84,662.057 0,0 z m -25158.505,7519.692 c -27967.627,51788.648 -13983.865,25894.318 0,0 z m -243.097,1526.63 c 179.295,346.233 334.584,-6.124 0,0 z m -1076.094,243.09 c -404.503,106.158 -742.852,418.98 -1173.352,421.36 446.254,109.737 831.988,-320.006 1270.588,-385.705 l -73.691,-27.021 z m 356.541,90.758 c 97.936,510.041 262.227,164.976 0,0 z m 525.082,324.117 c -373.673,33.622 -701.909,261.729 -1102.027,178.271 -256.838,40.928 -941.269,24.28 -923.885,59.878 458.776,42.97 925.205,-1.76 1384.14,-24.222 91.552,212.974 826.837,216.458 735.769,-84.274 -8.281,-80.854 21.517,-133.389 -93.997,-129.653 z m -5899.09,2774.513 c -574.694,29.099 -247.201,387.407 165.215,185.859 335.024,-37.675 76.072,-255.691 -165.215,-185.859 z m -12086.575,482.941 c -232.976,223.758 -699.716,174.202 -837.094,343.333 154.221,453.972 665.236,54.93 883.592,-122.381 34.58,-62.994 -57.267,-150.348 -46.498,-220.952 z m 7360.831,9814.493 c -394.635,315.714 124.084,714.684 461.69,460.01 288.52,-46.252 -345.656,-506.925 -461.69,-460.01 z m 2291.565,7986.438 c -121.509,207.29 808.385,495.398 100.482,22.686 l -76.57,-17.29 z m -2029.021,1724.336 c -357.4,328.142 -92.136,712.412 197.718,145.861 80.097,-138.301 -131.889,-114.844 -197.718,-145.861 z m 36182.013,4323.824 c -85.68,379.408 -51.53,324.132 0,0 z m -38946.817,2229.985 c -135.531,191.586 -855.048,455.847 -390.804,648.696 154.07,84.634 876.414,-556.481 390.804,-648.696 z m 38480.077,6456.565 c -13.23,172.442 -5.01,150.557 0,0 z m -33371.851,8634.679 c -77.847,166.116 40.726,46.165 0,0 z m 28211.831,9649.199 c -120.79,88.69 -271.11,250.84 0,0 z m -246.34,45.37 c -110.1,244.18 -57.91,292.04 0,0 z m -2016.05,1234.91 c -233.33,470.77 655.77,307.26 0,0 z m -7941.055,5928.25 c -207.398,112.32 -572.213,845.19 -48.654,614.83 214.849,-103.54 312.273,-469.12 48.654,-614.83 z m 2521.695,311.16 c -176.1,191.36 -382.65,812.23 -129.66,375.98 -1.56,-149.02 255.91,-207.88 129.66,-375.98 z m -5166.548,758.44 c -298.265,280.61 192.214,996.24 152.339,363.02 -11.268,-119.26 6.311,-340.51 -152.339,-363.02 z m -726.045,87.52 c 16.605,505.88 618.783,161.63 0,0 z m 392.197,269.03 c -623.695,-56.98 -321.773,249.21 0,0 z m -14488.396,408.38 c -977.481,549.15 -1893.063,1277.26 -2998.155,1581.73 -382.957,182.97 -870.514,320.3 -949.702,810.33 -173.827,364.23 702.789,32.01 939.48,-26.04 1005.923,-251.42 1815.996,-896.69 2687.491,-1416.32 248.291,-212.06 1199.652,-238.71 799.03,-626.9 -118.349,-163.62 -245.052,-358.89 -478.144,-322.8 z m 6326.934,463.5 c -612.586,142.68 -1291.621,220.78 -1944.768,217.18 -69.696,240.93 746.805,103.85 1026.466,73.05 320.525,-26.15 668.273,-64.79 918.302,-290.23 z"
         id="path4307"
         sodipodi:nodetypes="cccccccccccccccccccccccccccccccccccccccccccccccccccccccccccccccccccccccccccccccccccccccccccccccccccccccccccccccccccccccccccccccccccccccccccccccccccccccccccccccccccccccccccccccccccccccccccccccccccccccccccccccccccccccccccccccccccccccccccccccccccccccccccccccccccccccccccccccccccccccccccccccccccccccccccccccccccccccccccccccccccccccccccccccccccccccccccccccccccccccccccccccccccccccccccccccccccccccccccccccccccccccccccccccccccccccccccccccccccccccccccccccccccccccccccccccccccccccccccccccccccccccccccccccccccccccccccccccccccccccccccccccccccccccccccccc"
         inkscape:connector-curvature="0" /></clipPath></defs><sodipodi:namedview
     pagecolor="#ffffff"
     bordercolor="#666666"
     borderopacity="1"
     objecttolerance="10"
     gridtolerance="10"
     guidetolerance="10"
     inkscape:pageopacity="0"
     inkscape:pageshadow="2"
     inkscape:window-width="1600"
     inkscape:window-height="837"
     id="namedview40"
     showgrid="false"
     fit-margin-top="0"
     fit-margin-left="0"
     fit-margin-right="0"
     fit-margin-bottom="0"
     units="px"
     inkscape:zoom="1"
     inkscape:cx="155.29927"
     inkscape:cy="328.08896"
     inkscape:window-x="-8"
     inkscape:window-y="-8"
     inkscape:window-maximized="1"
     inkscape:current-layer="svg2" /><path
     style="fill:#c62139"
     d="m 97242.636,0 c -693.29,169.196 -1124.884,850.69792 -1765.542,1154.7959 -329.122,472.082 -919.98,697.5189 -1260.63,1180.1518 -598.65,521.925 -644.632,1463.445 -1053.372,2135.9591 -467.91,1133.9121 -889.127,2327.0767 -1717.037,3290.2037 -419.887,740.2911 -1080.66,1302.6135 -1566,2001.4626 -486.803,606.4079 -1044.671,1153.1469 -1528.521,1750.6599 -144.834,179.516 -237.773,373.047 -300.412,575.468 l 24185.118,0 c -637.62,-672.213 -1097.37,-1516.27 -1926.5,-1973.901 -962.03,-619.0635 -1380.48,-1802.4635 -2134.85,-2619.9264 -897.16,-1210.055 -1740,-2494.7138 -2776.48,-3576.8359 -529.92,-425.8707 -1172.92,-963.4871 -1904.99,-1186.215 -615.69,-501.173 -1205.12,-1004.0949 -1869.73,-1392.9209 C 100703.02,546.53483 99454.482,203.89936 98270.651,85.438363 97927.011,106.09837 97569.585,109.983 97242.636,0 Z M 21176.588,157241.86 c 138.69,130.95 267.199,271.32 378.683,426.64 608.541,-64.12 639.583,226.34 858.794,557.83 511.259,-31.96 -213.019,776.05 123.472,1143.78 247.382,724.03 902.504,1234.5 1476.155,1673.48 441.841,152.6 1009.314,-230.24 1303.073,202.3 -124.621,-503.46 779.887,116.9 1105.738,-18.18 256.501,-456.03 281.178,-685.57 334.586,-747.44 806.819,604.67 471.091,-363.3 739.179,-52.37 79.79,494.37 441.966,687.16 451.446,1137.16 l -119.061,691.77 c 266.31,-655.95 697.182,411.45 1229.76,272.86 422.56,120.72 881.84,-176.14 1242.438,1.12 856.381,242.71 1595.792,760.12 2340.461,1249.06 34.261,1.41 720.609,215.03 1083.691,239.78 630.868,10.05 1236.929,122.81 1837.198,290.49 455.14,-190.18 771.731,-165.43 1301.97,-370.42 400.781,-229.2 1079.737,-176.98 1241.338,-2.26 433.25,-265.94 938.846,-285.23 1190.625,-772.8 480.469,-226.48 770.37,-794.22 1406.149,-782.18 464.23,318.65 872.439,727.17 588.699,1254.02 379.891,587.9 685.8,119.62 916.672,615.16 292.21,326.18 1291.855,-120.92 665.316,-354.99 113.58,-472.1 826.753,-355.74 700.594,175.84 139.519,502.36 689.505,-155.93 265.134,-490.03 -350.608,-692.95 728.861,-858.32 1152.592,-1110.7 951.71,134.11 60.661,-474.35 730.36,-695.63 647.621,404.79 545.279,-318.71 711.618,-708.31 224.35,-474.73 525.04,-895.69 762.333,-1350.48 189.47,-558.91 700.989,-490.35 979.508,-669.18 -289.509,-279.98 -327.25,-901.49 63.39,-1213.22 119.939,-523.59 764.015,-193.36 1127.235,-341.2 266.847,333.81 436.931,64.44 613.503,-251.91 l -28802.649,0 z m 18766.673,5998.88 c -287.52,155.71 -793.62,1171.54 -67.798,852.18 297.848,-143.54 433.259,-650.18 67.798,-852.18 z m 3495.807,431.6 c -244.119,265.29 -530.425,1125.68 -179.696,520.9 -2.258,-206.59 354.716,-287.86 179.696,-520.9 z m -1882.953,238.13 c -781.179,505.66 -898.55,590.55 -63.94,43.54 l 63.94,-43.54 z m -5279.539,813.04 c -413.489,389.02 266.395,1381.1 211.117,503.26 -15.607,-165.33 8.833,-472.06 -211.117,-503.26 z m -1006.517,121.26 c 9.708,295.86 163.325,381.05 273.953,364.91 -487.578,24.83 -119.814,309.82 269.545,8.27 -107.411,-9.82 -194.922,-12.11 -265.137,-8.81 148.61,-25.48 212.903,-236.03 -278.361,-364.35 z m -19427.581,934.86 c -36.051,-3.04 -74.261,-1.97 -114.652,4.41 -1355.102,761.29 -2624.153,1770.63 -4156.165,2192.73 -530.9,253.65 -1207.073,444.05 -1316.852,1123.38 -240.981,504.95 974.392,44.64 1302.52,-35.83 1394.531,-348.56 2517.496,-1243.05 3725.664,-1963.43 344.212,-293.98 1663.333,-331.11 1107.942,-869.27 -143.561,-198.47 -296.116,-430.59 -548.457,-451.99 z m 8656.833,647.13 c -849.237,197.8 -1790.522,305.96 -2695.992,300.97 -96.619,334.01 1034.985,144.13 1422.688,101.42 444.347,-36.25 926.685,-89.86 1273.304,-402.39 z"
     id="rect7"
     inkscape:connector-curvature="0" /><path
     style="fill:#00297b"
     d="m 88527.372,11306.527 c -58.555,68.875 -119.078,136.611 -175.838,206.706 -617.92,765.883 -315.31,1787.756 -562.791,2659.062 -124.299,1108.575 -80.371,2233.996 -404.591,3311.701 139,246.46 452.893,715.891 224.344,1183.459 118.209,421.479 14.14,778.792 220.486,1188.971 225.058,331.31 -40.386,946.056 115.203,1175.743 608.302,3.307 462.464,954.896 663.663,1484.422 284.302,466.044 523.466,1329.759 -292.142,1348.273 -560.212,219.752 -261.62,861.366 -430.499,1270.551 -69.512,417.795 -438.596,750.753 -501.055,1204.956 -202.661,569.98 -490.132,1062.35 -962.423,1445.287 -393.931,435.133 -597.76,1071.52 -749.102,1592.459 -131.019,504.721 -51.827,769.476 237.024,1137.158 -100.99,486.297 -470.927,1119.02 -1041.798,862.102 -179.321,-352.995 -266.558,288.854 -643.819,488.377 -403.231,235.918 -704.706,479.777 -1004.866,747.445 -319.608,320.072 -613.825,853.9 -397.426,1031.325 -371.59,3.782 -838.177,299.012 -915.018,783.827 -339.699,445.4 263.873,872.244 -275.606,1272.207 -141.611,747.841 -1023.753,1070.376 -1103.534,1882.399 -104.919,772.002 -686.348,1537.527 -1550.569,1455.759 218.912,485.388 -671.31,1135.171 -944.781,798.161 -798,319.459 40.623,540.648 -12.135,1030.772 -282.53,592.048 -380.103,1264.541 -458.611,1904.999 -177.521,596.556 -598.269,1041.711 -1028.568,1438.12 404.969,719.712 -763.594,941.886 -782.176,1626.638 -385.01,789.424 -1252.683,1291.463 -1752.312,1936.417 -294.329,777.63 764.077,1244.324 484.519,2030.679 -90.421,576.894 177.639,1137.728 81.579,1721.446 571.009,404.368 -8.099,981.983 94.257,1509.778 -335.17,417.246 183.272,663.341 580.983,727.053 639.978,-123.69 586.319,625.303 372.07,1002.659 -212.27,692.037 -421.312,1384.633 -961.872,1909.961 -703.95,1005.877 -1181.933,2222.918 -2310.695,2849.784 -756.409,393.39 -1615.866,369.302 -2353.137,789.889 -632.94,210.309 -1382.892,158.781 -1923.74,-225.998 4897.134,6481.998 9165.606,14842.997 9165.606,24326.233 0,2290.883 -252.391,4520.844 -698.94,6680.177 327.909,-432.446 457.096,-1032.817 574.365,-1559.941 245.931,-367.179 377.221,-814.411 726.502,-1093.611 332.57,-248.987 442.516,-749.977 783.276,-937.615 226.402,-413.01 649.91,-557.276 960.77,-886.906 487.719,-245.802 552.701,-563.005 935.411,-959.666 362.469,-381.18 866.73,-152.106 1292.05,-180.247 552.56,-241.669 1244.597,76.525 1812.944,-264.583 599.031,-213.461 376.53,-992.747 483.969,-1159.758 310.67,347.511 973.613,-138.989 967.382,-498.297 -1.976,-391.03 868.821,-80.97 1042.901,-633.9 255.659,-397.699 690.073,-832.171 646.574,-1271.1 -378.169,-597.34 72.269,-544.347 462.469,-592.557 130.26,-514.609 688.724,-565.231 912.814,-971.242 95.619,306.392 613.822,-642.064 617.911,-940.923 -125.14,-577.98 864.825,-35.374 940.926,-618.465 -595.92,-432.618 510.721,-505.135 749.65,-328.523 495.692,-0.15 562.226,-388.804 836.747,-722.644 538.22,-317.56 753.084,78.686 1095.264,-423.884 391.121,-2.822 807.376,-37.485 1200.545,-97.564 388.962,-435.531 889.805,-787.488 1258.426,-1280.473 499.971,-416.165 709.165,-1081.281 1235.823,-1519.152 169.161,-543.198 841.321,-281.025 1052.822,-735.321 119.91,-421.897 666.566,-601.351 587.044,-1084.239 271.8,-312.137 798.226,-566.781 1004.316,-943.68 388.888,-307.436 540.095,-773.963 905.646,-1078.179 614.831,-324.781 1092.991,-925.271 1558.841,-1433.709 576.62,-477.534 -108.91,-908.989 555.62,-1285.985 422.97,-406.052 932.52,-253.669 1396.23,-666.419 541.31,-312.883 1130.64,-757.914 1772.71,-759.576 424.59,-146.462 669.81,-217.483 1088.1,-262.379 473.83,-92.645 1076.02,127.979 1384.1,-310.332 391.85,-89.69 851.42,-340.879 988.33,-777.214 461.02,-788.856 1604.26,-1082.909 1829.48,-2000.36 -151.26,-396.057 -350.74,-891.786 -235.37,-1232.518 -24.13,-403.9 26.9,-858.633 -12.67,-1278.819 74.15,-526.24 445.21,-893.826 984.47,-943.131 385.86,-221.013 1106.88,345.119 1138.26,-391.913 100.86,-362.8 397.45,-767.128 784.93,-781.073 424.76,-129.077 638.17,-572.177 1010.93,-808.631 425.47,-259.845 834.66,-520.412 1276.61,-515.939 465.81,-103.141 839.37,51.381 1154.25,-396.322 302.41,-287.601 714.07,-344.079 1139.91,-416.168 409.41,-456.533 774.19,146.917 1169.68,-69.454 467.33,-83.174 790.01,-262.913 1131.09,-576.019 413.18,-147.492 805.31,-178.313 1218.74,-466.327 419.65,-397.275 991.1,-434.413 1527.97,-413.413 885.08,-423.322 1855.6,-1014.383 2084.69,-2044.457 195.03,-406.112 225.54,-666.73 396.33,-1092.508 -55.69,-472.727 266.95,-655.717 475.69,-1073.217 -10.35,-366.706 473.59,-755.458 536.89,-1074.869 -5.02,-445.499 725.79,-726.908 316.95,-1198.894 191.24,-491.191 200.12,-1089.996 251.35,-1644.274 374.87,-235.955 289.42,-923.829 777.77,-1141.567 136.15,-380.472 412.62,-757.659 553.97,-1127.235 395.57,-22.521 487.04,-673.39 605.23,-926.041 369.3,-290.977 292.35,-794.063 571.06,-1191.178 188.5,-415.578 517.83,-745.166 565.55,-1154.794 -125.84,-300.183 -114.35,-634.712 -119.61,-1153.143 -156.47,-329.599 -720.64,-562.754 -563.35,-1025.813 403.7,-332.266 -166.48,-914.445 88.2,-1294.251 49.79,-356.74 405.36,-740.458 325.22,-1172.986 176.84,-440.075 335.2,-860.205 372.07,-1243.542 87.26,-442.871 642.36,-428.712 966.83,-724.298 566.18,-24.102 814.81,-597.487 1096.36,-934.861 545.69,-163.627 758.86,-588.67 952.5,-1069.357 49.58,-89.71 453.3,-502.079 634.45,-889.663 82.34,-322.23 459.58,-745.315 345.61,-1082.584 -49.62,-373.129 230.33,-835.968 133.4,-1241.338 77.49,-585.986 274.81,-1140.22 441.52,-1706.562 12.65,-528.813 339.5,-989.906 550.11,-1416.072 111.57,-366.047 509.36,-754.254 469.64,-987.778 112.89,-82.063 481.72,-205.135 586.49,-745.243 345.2,-390.808 447.28,-985.755 433.81,-1501.51 -225.01,-421.978 -478.33,-786.685 -1002.11,-886.905 -549.64,-142.291 -1241.6,-456.468 -1788.14,-88.195 -556.76,103.89 -1159.34,142.308 -1721.45,175.286 -397.41,-6.643 -933.28,-32.559 -1381.9,-132.291 -421.87,-7.005 -886.23,-214.12 -1233.06,82.682 -474.71,5.712 -934.75,-140.327 -1406.15,-22.6 -365.02,-464.714 -1084.2,-303.916 -1590.81,-525.308 -422.1,145.52 -775.89,541.902 -1258.42,525.308 -605.49,227.222 -1177.6,-190.135 -1783.74,-179.697 -884.97,-287.316 -1879.75,-474.735 -2804.58,-709.965 -565.86,-131.275 -1236.19,-178.369 -1698.29,-588.146 -642.73,-130.851 -1344.67,-413.476 -2012.49,-557.279 -688.34,-453.353 -429.26,-350.465 -948.09,-701.146 -289.77,-528.395 -222.29,-1140.514 -314.74,-1693.884 -268.25,-862.869 -651.12,-1682.496 -1091.96,-2476.059 -360.57,-316.265 -408.87,-913.265 -838.4,-1193.932 -236.89,-472.58 -336.15,-888.677 -796.51,-1217.083 -422.27,-330.751 -746.62,-757.741 -1079.28,-1173.538 l -23049.061,0 z M 67639.071,59526.284 c 48.884,63.184 96.741,128.817 145.52,192.374 -40.722,-70.099 -89.927,-133.534 -145.52,-192.374 z M 27539.265,74998.896 c -74.439,5.136 -166.477,40.343 -272.302,112.999 -533.09,86.969 -1084.704,293.186 -1621.124,569.956 -767.34,606.388 -1671.21,1064.091 -2598.979,1328.981 -1022.558,-85.25 -2098.674,-150.288 -3054.835,-622.872 -582.041,-38.984 -1159.363,-328.747 -1747.904,-471.842 -753.86,-177.244 -225.083,352.496 -813.042,426.641 -3126.24,-18.965 -6258.224,15.72 -9382.2345,13.772 -1179.099,261.355 -1918.4308,1300.658 -2893.881,1932.009 -807.5478,570.23 -1908.237,708.287 -2444.0866,1631.047 -736.0496,336.488 200.5781,966.331 63.3899,277.26 524.62,-948.249 1619.6055,-1211.543 2501.9647,-1651.993 666.2617,-530.358 1302.9578,-1224.706 2058.2381,-1622.224 617.6517,-432.591 1361.6092,-436.305 2094.6193,-400.183 916.0201,30.85 1899.4991,-195.402 2708.6701,354.982 14.76,164.171 297.854,-625.833 386.955,7.705 261.349,-817.847 779.689,211.057 1293.15,-169.224 412.931,-435.991 1114.846,-132.147 1636.006,-112.445 388.399,-373.764 804.669,502.352 1069.359,-112.449 403.86,233.971 545.299,615.524 893.519,38.585 710.61,22.296 357.149,761.848 612.399,1155.898 266.94,447.531 -1235.343,696.276 -351.124,724.298 354.212,-385.79 929.163,-635.971 1352.683,-997.701 342.459,697.43 927.179,746.526 1632.7,664.766 771.949,72.641 1469.718,-161.713 2231.32,-96.464 578.259,-140.208 507.009,264.685 934.861,74.417 240.349,-178.681 1358.4,-569.279 912.811,-574.368 -80.959,-136.389 739.526,-574.897 1109.045,-643.269 364.66,-184.929 1069.558,-451.905 810.839,238.125 396.83,-248.44 430.234,64.736 1009.275,-273.953 751.969,-230.731 1.693,454.973 -379.237,536.332 -273.58,459.19 -1057.091,297.415 -690.12,587.045 35.328,726.519 -135.597,239.703 -215.528,-230.409 89.14,-338.858 -944.259,-196.195 -948.089,-7.704 487.57,62.128 872.282,-10.725 884.699,566.098 184.672,740.839 -157.9,669.496 -286.63,819.655 -758.111,142.59 -1573.564,-192.814 -2350.934,29.216 -534.61,251.66 -840.734,-284.986 -1267.242,-116.307 -636.341,207.811 -1268.451,-41.01 -1932.562,-13.236 -512.628,-126.532 -1352.745,294.552 -963.524,881.391 502.57,518.671 -555.17,905.801 -213.32,1293.151 537.399,244.031 868.815,-23.905 750.753,-598.619 174.532,-380.049 -549.08,-1011.897 31.42,-1091.407 216.211,521.041 522.557,887.727 1051.168,1114.558 379.352,129.76 919.062,420.169 1202.201,31.97 623.229,-108.67 683.689,-831.009 1192.83,-1065.499 610.311,4.769 1138.964,170.279 1770.504,85.44 590.169,89.848 440.537,874.993 162.057,1199.994 -176.49,484.271 157.754,836.736 265.684,1267.796 109.861,446.01 233.669,700.143 48.509,1144.874 -475.511,298.89 6.35,1081.309 -458.061,1451.35 -914.95,-85.18 488.422,774.503 -239.229,354.982 -277.229,-310.501 -1115.458,-453.074 -951.946,148.277 21.053,849.98 -68.626,426.714 -306.477,-61.736 -383.859,-327.381 -508.765,-621.061 -1099.673,-612.4 -255.462,-237.332 -326.142,-1046.587 -717.132,-510.427 155.29,153.32 -727.273,74.371 -1016.994,-22.606 -872.489,-182.829 133.398,240.527 84.89,627.834 -43.612,688.572 -1059.473,316.465 -1357.094,759.026 109.731,672.77 93.131,1365.907 49.609,2040.046 807.562,-22.55 1557.452,-353.413 2381.25,-332.382 51.991,625.769 447.873,508.206 902.891,792.096 43.872,642.739 374.992,1357.165 104.18,1966.186 -184.32,378.849 492.762,976.929 -58.429,1029.668 -575.4,185.03 -523.821,879.734 -890.213,1267.245 -26.219,-26.472 -787.826,630.456 -883.045,1127.786 -256.32,309.47 -631.258,1361.976 -248.599,1100.776 343.18,87.28 1098.387,193.018 1036.837,488.928 -271.12,276.36 -1069.301,229.336 -1124.481,-274.504 73.841,243.05 -549.272,580.421 -990.532,436.561 -594.831,-77.1 -725.87,-945.1 -1124.48,-1342.759 -459.949,-705.231 -919.779,-1411.066 -1379.141,-2116.667 349.021,-457.939 1472.325,-1057.554 364.354,-1249.053 -864.429,-214.17 -1104.888,-601.65 -403.49,-1251.258 382.301,-552.571 1075.018,-1231.99 -60.082,-1165.82 -1079.531,-269.421 487.149,-348.022 517.039,-975.654 899.42,217.052 883.934,-640.427 776.664,-1273.304 -134.902,-669.572 -137.724,112.104 -718.235,-487.827 -288.908,-239.22 -1023.013,-311.833 -1271.654,43.547 -671.488,680.009 -29.656,-136.627 -130.085,-502.158 -321.6,607.489 -827.382,-237.355 -1016.993,469.084 -804.971,405.13 566.143,896.967 -389.159,1028.017 -601.39,249.71 104.106,910.963 197.335,1302.521 -533.569,456.559 -612.281,-354.675 -898.479,-759.573 -10.104,-765.601 880.866,-1218.15 1046.756,-1927.6 -703.368,93.748 -929.744,885.977 -1204.403,1460.169 -143.49,583.839 -184.624,-802.722 248.045,-975.653 398.87,-489.069 -565.943,-361.31 -881.394,-380.887 -427.609,300.967 -1131.482,-152.53 -1344.964,268.441 -406.671,48.268 -843.618,161.16 -1292.6,63.94 -434.839,-260.909 -232.929,-508.265 -685.159,156.546 -360.1609,57.839 -771.5392,228.795 -1260.6303,256.865 -767.0602,-184.568 -1488.2113,-471.258 -2278.1738,-503.259 -447.8782,-214.3 -1044.86,-156.82 -1392.919,-534.678 -302.2317,-411.362 -433.2562,-811.655 -1036.286,-533.025 -310.4981,-406.77 -683.037,-875.058 -1273.3076,-756.818 -649.159,-180.662 -1367.3778,-496.971 -1981.6175,-22.606 -497.10901,468.889 582.4304,212.095 463.0194,451.445 -472.3581,7.056 -959.78692,-52.936 -1401.18808,42.443 -256.308559,302.379 418.53834,528.891 497.74683,926.042 212.6516,476.34 308.95146,795.288 544.60135,1255.669 388.6313,495.65 912.9804,946.438 1414.969,1337.248 148.6323,49.894 207.2329,239.211 229.3055,433.806 1.1289,-11.176 0.8467,-14.309 2.2578,-25.908 -8.6078,-605.668 773.3058,51.771 1136.0572,73.313 757.078,275.119 1522.2671,598.153 2207.6155,972.343 419.2015,225.21 575.0531,618.168 989.9818,829.028 272.8807,353.429 814.2224,140.679 1084.2413,593.657 -45.3898,433.902 -41.7209,826.129 117.41,1273.861 364.2981,355.388 347.8163,767.348 415.6146,1214.876 294.1602,445.29 -291.8658,804.883 -98.6677,1276.065 508.951,313.199 803.004,945.989 1357.0937,1074.318 628.61,633.899 335.048,152.77 975.097,-18.175 462.303,-272.79 1171.973,521.098 912.264,915.568 -626.59,-112.621 -179.355,499.006 305.923,623.974 447.41,-426.43 938.183,-139.951 1456.862,-277.261 480.96,53.171 902.959,350.565 1409.457,346.165 832.432,430.539 1314.004,1231.957 1801.924,1986.026 502.071,514.7 371.06,1267.81 359.39,1918.781 -345.448,403.1 878.558,371.95 569.406,838.95 -427.53,248.98 1035.251,774.26 244.19,742.49 135.899,937.35 -557.665,1789.26 -800.365,2682.76 -408.26,378.86 191.304,1010.44 -246.944,1487.73 -325.64,371.78 -531.368,1046.02 -1064.949,1015.34 -445.11,383.6 -911.202,594.19 -862.652,1163.62 -571.421,602.02 -678.665,1481.78 -1213.225,2116.66 -55.039,463.43 -681.722,783.91 -413.41,1222.05 l 108.037,112.44 c 294.931,867.96 181.297,1922.32 -364.351,2655.76 -125.462,424.08 -476.77,827.69 -153.792,1115.11 -73.967,546.88 -1088.737,602.28 -580.429,1251.81 89.58,478.71 -19.248,851.91 -353.328,1191.72 -372.901,547.22 -202.388,416.82 -510.978,1058.89 -353.568,452 -378.798,1037.08 -720.437,1495.45 -409.981,639.7 -590.572,1322.69 -772.253,2043.35 -86.281,500.36 -668.1553,659.34 -741.3835,1198.89 -567.8593,551.29 -672.2561,1689.5 -1649.236,1729.72 -787.1798,814.11 -715.7381,669.32 -22.0416,1109.04 390.2202,366.01 922.6408,235.64 1379.1409,418.93 225.3206,381.54 807.6155,160.75 1185.6632,174.73 622.67,211.95 19.728,943.08 764.537,665.32 568.41,201.48 292.857,773.91 765.088,950.85 93.3,406.51 756.115,606.28 533.575,1062.19 89.569,350.5 449.12,828.66 308.68,948.09 -292.509,127.33 670.371,-125.48 880.291,173.63 547.649,418.47 -88.435,1007.54 -160.404,1421.58 -131.12,356.59 -478.211,1041.29 -504.362,1305.83 569.981,353.38 352.713,648.25 658.704,1172.99 -439.44,-794.13 605.713,219.2 1009.274,226 498.001,369.17 1338.504,484.64 1330.633,1249.6 -325.38,602.01 -1109.636,591.57 -1676.245,399.63 -195.03,187.02 -180.137,-98.94 -161.507,642.72 322.67,280.5 -36.83,455.98 222.14,989.43 427.462,131.48 412.177,747.26 451.445,956.36 -145.988,1016.64 -89.704,-166.35 256.317,287.18 172.379,268.75 1072.264,-174.41 1027.464,420.03 349.021,490.18 -532.367,547.16 -416.168,1062.74 -212.998,620.22 92.696,658.17 278.915,928.8 -5.391,541.02 254.576,387.41 143.315,1052.82 18.345,-251.66 526.342,-164.05 998.251,-286.63 397.38,-37.26 1315.774,100.52 826.273,663.11 -236.77,578.68 -825.305,519.57 -1158.654,883.6 -582.722,212.37 -532.407,488.89 -769.496,879.19 -553.782,-298.54 179.9,691.89 -85.99,1027.46 5.362,396.79 350.98,799.13 526.409,1165.82 434.45,1551.45 1473.55,569.5 1482.77,1459.62 -312.07,479.13 -208.167,1111.47 -103.076,1626.63 144.165,349.99 145.567,609.14 133.392,723.75 12.164,-53.32 34.75,-135.29 85.99,-269.54 495.521,308.42 205.475,812.15 423.334,1244.09 -6.435,479.77 -636.981,796.23 -595.314,1344.41 -216.03,484.08 -26.416,753.08 478.457,1127.24 l 1324.57,1344.41 c 713.229,391.79 1475.018,805.85 1950.198,1467.89 478.431,-50.41 601.393,120.63 738.079,356.08 l 25783.642,0 c 42.974,-69.6 93.517,-135.36 161.507,-189.61 119.939,-523.59 764.015,-193.37 1127.235,-341.21 358.38,448.32 542.296,-190.85 801.466,-571.61 676.922,-87.59 25.485,-453.65 -24.243,-857.14 -393.482,-32.13 -806.785,72.71 -1276.064,54.02 -503.341,223.27 -808.282,-704.51 -273.403,-540.19 419.91,-12.5 873.342,-149.52 1306.931,-179.14 728.701,-224.47 1048.411,-1029.99 1819.563,-1078.18 635.658,36.25 311.029,-215.92 839.501,-328.52 417.929,321.86 889.141,-438.81 895.172,-797.06 -26.924,-681.59 -856.968,-206.35 -1005.416,-831.23 -633.27,-262.96 -205.961,-1555.07 434.91,-1125.03 445.888,293.92 767.204,704.59 1105.185,1059.43 548.01,3.02 356.006,473.24 674.135,431.6 572.57,-55.64 491.962,-872.24 1124.481,-840.05 383.701,-301.23 713.864,-680.69 1086.445,-997.7 351.578,-336.04 -47.738,-623.34 -361.597,-911.16 -529.311,-501.31 437.535,-835.74 482.862,-248.05 512.533,347.85 805.197,-231.4 1168.578,-498.84 321.937,-269.21 303.228,-752.17 508.771,-1125.58 -214.289,196.94 -43.917,-642.99 -455.304,-703.36 349.97,-294.88 103.372,-1010.49 550.113,-1232.51 434.961,-55.02 741.034,-578.79 1180.705,-766.19 576.128,-440.2 1042.769,-1026.28 1338.349,-1667.98 -321.071,-402.15 167.659,-1000.95 394.67,-1349.37 129.741,-564.6 602.824,-1103.89 368.763,-1733.03 254.381,-785.95 -468.799,-1529.7 -163.711,-2283.68 -119.959,-1088.96 -421.578,-2231.56 250.252,-3198.7 329.559,-678.51 7.338,-1443.04 44.097,-2138.17 -138.599,-432.5 151.548,-813.7 39.689,-1277.16 275.869,-745.95 -719.447,-1180.29 -659.805,-1931.46 -41.85,-448.34 305.907,-897.68 -183.004,-1214.33 -78.141,-651.01 -739.6,346.53 -720.44,180.8 -467.749,493.78 -532.897,-220.72 -76.067,-413.41 157.892,-367.14 -609.109,95 -897.376,-266.24 -428.371,-223.85 -926.095,171.65 -1149.285,18.74 -476.391,-293.06 516.051,-140.95 -235.368,-338.44 -532.9,-242.84 -1249.115,-529.19 -1748.457,19.84 -606.998,143.53 -548.755,997.69 -1172.986,961.87 -624.989,106.12 -695.079,-843.22 -1343.31,-782.17 -527.419,-284.94 954.851,-22.69 885.252,530.26 569.378,419.08 1062.129,-50.41 875.88,-687.36 284.011,-718.06 1407.05,-815.89 2026.818,-490.03 152.439,-488.34 745.699,-296.47 1118.969,-385.3 643.859,-214.08 1267.637,86.83 1909.408,165.36 401.791,417.93 587.575,352.99 991.085,-140.56 40.44,-305.33 709.622,-1040.12 73.863,-1077.07 -521.665,-456.29 499.511,-346.93 183.555,-891.87 -31.979,12.28 -688.552,-447.64 -188.516,-903.44 248.59,-739.56 -199.032,-1622.66 103.629,-2347.62 160.901,-758.55 26.162,-197.64 -170.877,-880.85 -114.509,-642.43 149.411,-1279.13 -53.467,-1927.6 -79.75,-632.99 142.178,-1194.38 17.639,-1783.73 -28.651,385.16 -303.976,-142.84 -434.36,-528.06 -4229.472,4224.48 -7650.316,6647.1 -7650.316,6647.1 0,0 -23655.952,-18109.87 -23655.952,-38878.31 0,-2966.542 484.265,-5868.393 1311.893,-8664.001 -201.896,72.215 -410.354,127.042 -625.08,155.993 -424.29,41.111 -958.285,219.904 -1168.024,627.834 -376.581,352.089 -841.768,278.152 -1114.558,-39.686 -425.17,-5.983 -974.251,-577.322 -840.051,-943.13 196.559,-314.926 131.264,-568.856 -92.053,-553.421 z m 34560.092,50018.924 c 3.189,-1.13 2.258,-5.33 -8.805,-16.54 3.697,6.01 5.419,10.67 8.805,16.54 z m -3426.355,23091.51 c 39.054,-35.9 89.854,-101.62 160.404,-217.73 -67.951,65.31 -117.503,139.79 -160.404,217.73 z m -40784.966,3300.68 c -18.909,82.82 -8.325,78.41 0,0 z M 2877.3428,87749.607 c -93.3168,862.294 47.7746,421.158 0,0 z M 26364.075,77367.468 c 248.558,479.99 463.838,-8.495 0,0 z m -1492.14,336.793 c -560.77,147.17 -1029.826,580.988 -1626.639,584.287 618.651,152.129 1153.646,-443.599 1761.685,-534.678 l -101.975,-37.482 -33.071,-12.136 z m 494.439,126.227 c 135.769,707.082 363.53,228.71 0,0 z m 728.156,449.241 c -518.03,46.609 -973.28,362.644 -1527.968,246.944 -356.06,56.741 -1305.125,33.884 -1281.026,83.233 636.01,59.572 1283.103,-2.54 1919.331,-33.624 126.921,295.25 1146,300.053 1019.75,-116.857 -11.486,-112.09 30.051,-184.875 -130.087,-179.696 z m -8053.256,3827.088 c -40.922,0.847 -83.312,7.197 -125.126,19.304 -796.71,40.338 -342.434,536.826 229.306,257.418 406.394,-45.703 182.273,-283.001 -104.18,-276.711 z M 1160.3086,82795.284 C 837.32787,83105.483 190.44919,83037.064 0,83271.534 c 213.80025,629.35 922.09048,76.036 1224.7992,-169.774 47.9411,-87.33 -79.4202,-208.596 -64.4906,-306.476 z M 11402.99,96397.071 c -15.183,-1.129 -27.968,0.282 -38.035,4.402 -547.09,437.679 171.933,990.815 639.962,637.755 374.98,-60.111 -374.258,-625.36 -601.927,-642.166 z m 3138.619,11076.119 c -168.45,287.37 1120.837,686.75 139.457,31.42 l -106.383,-23.71 -33.074,-7.7 z m -2812.852,2390.62 c -495.47,454.91 -127.325,987.72 274.506,202.3 111.04,-191.73 -183.244,-159.3 -274.506,-202.3 z m -3832.5975,9085.68 c -187.8923,265.6 -1185.4349,631.68 -541.8469,899.03 213.5914,117.33 1215.0569,-771.19 541.8469,-899.03 z m 53345.5075,8950.63 c -18.344,239.07 -6.943,208.72 0,0 z M 14977.62,139870.87 c -107.919,230.29 56.461,64 0,0 z m 39110.375,13376.89 c -167.451,122.95 -375.841,347.75 0,0 z m -341.201,62.83 c -152.64,338.52 -80.281,404.88 0,0 z m -2795.214,1711.53 c -323.469,652.64 909.1,425.95 0,0 z"
     id="rect9"
     inkscape:connector-curvature="0" /><g
     id="g4270"
     transform="matrix(1.3863191,0,0,1.3863191,-96767.373,3913.265)"
     clip-path="url(#clipPath4305)"><path
       style="fill:#92dbfc"
       inkscape:connector-curvature="0"
       d="m 108554,30387 c 0,0 -17064,12703 -17064,27682 0,14981 17064,28044 17064,28044 0,0 16955,-11985 16955,-28044 0,-16057 -16955,-27682 -16955,-27682 z"
       id="path794" /><path
       style="fill:#008ce7"
       inkscape:connector-curvature="0"
       d="m 123714,67233 -30263,-40 c 4484,10789 15103,18920 15103,18920 0,0 10799,-7634 15160,-18880 z"
       id="path798" /><path
       style="fill:#9c8431"
       inkscape:connector-curvature="0"
       id="path13"
       d="m 124802,63932 c -2794,1999 -18515,1039 -18515,1039 l -879,2238 18719,58 c 78,-307 265,-672 330,-982 l 345,-2353 z" /><path
       style="fill:#ffde52"
       inkscape:connector-curvature="0"
       d="m 96672,73195 c 796,26 1589,194 2301,576 1273,668 2011,663 3383,684 1436,22 2563,1079 4115,1123 2859,80 4061,1500 1838,1499 -1050,-1 -3301,-706 -4389,-558 -1654,168 -2610,294 -3834,1267 -1166,-1400 -2332,-2940 -3414,-4591 z m 5656,7128 c 709,-485 1197,-864 1885,-885 1337,-41 1793,-868 3338,-867 1756,322 4136,-211 5529,-520 2473,-570 1300,-2300 -197,-2928 -1210,-518 -3478,-26 -4885,-540 -1065,-416 -187,-1079 386,-1220 578,-106 1198,85 1917,202 1284,113 2897,-7 4025,-182 2331,-357 2235,-1041 3360,-1057 821,-38 1446,-282 2006,-682 658,-439 1343,-1340 2139,-1304 l 468,20 c -4916,9510 -13745,15753 -13745,15753 0,0 -2853,-2184 -6226,-5790 z"
       id="path799" /><path
       style="fill:#8c4200"
       inkscape:connector-curvature="0"
       d="m 113629,73357 c 305,1180 628,1581 1868,1884 1224,303 3094,-887 1935,-2042 -1103,-1074 -2265,-1349 -3253,-2316 -1533,-1520 -3636,-4662 -4635,-7633 -1093,-3248 -903,-12392 -854,-17024 1,-54 133,-86 148,-108 71,-102 139,33 28,-646 -29,-174 -167,-354 -166,-530 1,-314 -1084,343 -1370,903 -65,128 208,493 208,565 37,4444 -441,13218 739,17190 730,2459 2062,4358 3268,6115 723,1126 1769,2341 2084,3642 z"
       id="path804" /><path
       style="fill:#ffffff;fill-rule:nonzero"
       inkscape:connector-curvature="0"
       d="m 100107,60346 c -14,-2 -69,-9 -122,-16 -377,-46 -780,-205 -1075,-425 -420,-313 -698,-814 -791,-1429 -26,-172 -25,-615 1,-784 74,-475 248,-894 498,-1200 74,-90 216,-228 303,-293 205,-156 470,-278 749,-346 200,-50 323,-65 563,-72 334,-8 569,22 833,110 338,111 600,291 785,537 125,166 287,535 310,705 12,93 -25,162 -107,197 -26,11 -156,50 -290,86 -269,72 -307,74 -367,24 -40,-34 -54,-60 -89,-169 -16,-46 -55,-140 -88,-207 -51,-103 -72,-134 -141,-203 -69,-70 -99,-91 -202,-141 -228,-111 -484,-149 -779,-113 -216,26 -450,114 -597,225 -327,246 -509,732 -490,1306 25,783 357,1214 1040,1351 131,26 417,26 557,0 204,-38 503,-155 672,-263 l 61,-38 0,-249 1,-250 -539,-4 -539,-4 -34,-24 c -19,-14 -45,-40 -58,-59 -24,-33 -24,-38 -24,-331 1,-293 1,-298 25,-331 13,-19 40,-45 59,-58 l 34,-25 923,2 924,2 33,24 c 19,13 45,42 59,64 l 24,39 2,765 c 2,815 0,848 -49,907 -14,17 -78,69 -141,115 -436,321 -900,512 -1377,567 -123,14 -481,19 -557,8 l 0,0 0,0 z"
       id="path2840" /><path
       style="fill:#ffffff;fill-rule:nonzero"
       inkscape:connector-curvature="0"
       d="m 104936,60387 c -483,-37 -848,-181 -1114,-438 -262,-253 -392,-570 -450,-1098 -17,-147 -18,-302 -17,-1496 2,-1286 3,-1334 23,-1373 11,-22 37,-53 57,-69 l 38,-28 317,-3 c 306,-2 319,-2 364,20 28,14 56,39 71,62 l 24,39 4,1380 c 3,1216 5,1393 20,1489 40,250 80,343 197,460 147,146 300,200 590,210 267,8 450,-22 607,-99 181,-88 263,-227 325,-545 23,-120 23,-139 32,-1501 9,-1543 2,-1415 85,-1478 l 39,-29 330,0 c 368,1 357,-1 416,77 l 30,39 1,1238 c 1,1242 -5,1502 -38,1736 -71,498 -236,813 -554,1059 -107,83 -151,111 -256,163 -161,81 -347,136 -558,166 -110,16 -471,27 -583,19 l 0,0 0,0 z"
       id="path2842" /><path
       style="fill:#ffffff;fill-rule:nonzero"
       inkscape:connector-curvature="0"
       d="m 109258,60320 c -14,-3 -45,-26 -70,-50 -51,-51 -65,-98 -50,-162 19,-79 1583,-4115 1608,-4147 49,-66 63,-68 429,-67 366,0 380,3 430,68 13,19 401,958 862,2089 732,1797 837,2062 837,2110 0,61 -24,103 -81,144 -34,24 -35,24 -401,23 l -367,0 -40,-31 c -51,-39 -50,-35 -287,-655 -108,-283 -201,-523 -207,-533 -9,-18 -55,-19 -735,-20 -681,-1 -726,0 -733,17 -4,10 -96,262 -205,560 -108,297 -206,556 -218,575 -12,19 -37,45 -55,58 -33,24 -39,24 -363,25 -181,1 -340,-1 -354,-4 l 0,0 0,0 z m 2343,-2066 c -16,-45 -404,-1083 -414,-1108 -4,-11 -9,-6 -17,16 -18,54 -415,1113 -420,1122 -3,4 191,8 430,9 l 436,0 -15,-39 0,0 z"
       id="path2844" /><path
       style="fill:#ffffff;fill-rule:nonzero"
       inkscape:connector-curvature="0"
       d="m 114915,60316 c -46,-14 -96,-67 -109,-116 -7,-28 -9,-713 -4,-2121 l 7,-2079 28,-38 c 56,-73 51,-72 552,-71 417,1 452,2 487,20 20,11 47,35 59,53 12,17 245,702 517,1520 273,818 498,1488 501,1488 3,0 235,-665 516,-1477 319,-924 521,-1493 538,-1519 56,-81 51,-80 510,-79 391,0 409,1 446,22 21,12 50,40 65,61 l 26,40 -3,2091 c -4,1971 -5,2093 -23,2125 -10,18 -36,47 -58,63 l -39,30 -319,-1 c -316,0 -319,0 -353,-25 -19,-13 -45,-39 -58,-58 l -25,-34 -3,-1200 -3,-1199 -56,159 c -31,88 -221,632 -422,1209 -353,1011 -368,1052 -409,1094 -25,26 -56,46 -77,50 -20,4 -153,7 -297,7 -251,-1 -264,-2 -309,-25 -26,-13 -57,-39 -69,-57 -12,-18 -207,-581 -433,-1251 -226,-669 -415,-1217 -419,-1217 -5,0 -9,542 -11,1206 -2,1351 4,1252 -80,1308 l -43,28 -298,1 c -164,1 -313,-3 -331,-9 l 0,0 -1,1 z"
       id="path2846" /><path
       style="fill:#bd0728;fill-rule:nonzero"
       inkscape:connector-curvature="0"
       d="m 100079,60161 c -542,-62 -1030,-302 -1324,-652 -248,-294 -408,-682 -461,-1118 -17,-144 -16,-484 2,-622 62,-475 250,-918 519,-1223 459,-521 1412,-731 2186,-481 488,157 778,455 943,966 23,71 40,131 38,134 -6,4 -422,117 -453,123 -18,3 -27,-14 -54,-94 -77,-226 -194,-414 -324,-518 -284,-226 -684,-309 -1153,-238 -300,46 -598,200 -769,398 -257,297 -384,661 -400,1142 -15,476 71,839 270,1139 323,488 1075,706 1744,506 214,-64 447,-175 611,-292 l 76,-54 1,-385 0,-386 -604,-1 -605,-1 1,-236 0,-236 864,2 864,1 -2,752 -1,752 -95,70 c -389,286 -779,459 -1196,533 -154,27 -522,37 -678,19 l 0,0 z"
       id="path2832" /><path
       style="fill:#bd0728;fill-rule:nonzero"
       inkscape:connector-curvature="0"
       d="m 104866,60198 c -392,-43 -697,-169 -913,-379 -197,-191 -310,-428 -369,-773 -42,-248 -45,-376 -43,-1696 l 2,-1293 265,1 264,0 2,1379 c 2,1467 1,1443 57,1664 71,282 281,491 581,578 240,70 564,71 837,3 324,-81 498,-255 586,-585 68,-253 67,-229 74,-1690 l 7,-1345 265,1 264,0 -3,1247 c -1,718 -7,1317 -14,1413 -45,632 -209,974 -592,1233 -151,103 -356,181 -582,223 -98,18 -576,31 -688,19 l 0,0 0,0 z"
       id="path2834" /><path
       style="fill:#bd0728;fill-rule:nonzero"
       inkscape:connector-curvature="0"
       d="m 109340,60084 c 13,-33 366,-948 785,-2034 l 763,-1974 286,-2 287,-3 822,2020 c 452,1111 825,2029 829,2040 7,19 -11,20 -292,20 l -300,-1 -52,-135 c -29,-74 -134,-351 -235,-614 l -183,-478 -862,-4 -862,-5 -224,616 -224,616 -281,-1 -280,0 23,-61 0,0 z m 2534,-1625 c -3,-11 -121,-326 -261,-700 -140,-374 -298,-808 -350,-966 -52,-157 -97,-288 -99,-291 -3,-3 -23,66 -44,153 -69,289 -135,487 -381,1137 -133,355 -246,654 -250,665 -8,19 30,20 691,21 660,1 699,0 694,-19 l 0,0 z"
       id="path2836" /><path
       style="fill:#bd0728;fill-rule:nonzero"
       inkscape:connector-curvature="0"
       d="m 114986,58105 4,-2039 400,4 399,4 540,1625 c 297,893 557,1680 577,1749 21,68 40,122 43,120 2,-3 69,-196 148,-430 80,-233 350,-1017 601,-1742 l 457,-1318 358,-2 358,-2 -4,2038 -4,2039 -253,-1 -253,0 3,-1713 c 2,-942 -1,-1707 -7,-1701 -5,6 -256,718 -557,1582 -301,864 -568,1629 -593,1700 l -46,129 -239,0 -239,0 -582,-1726 c -320,-949 -586,-1733 -591,-1743 -5,-9 -11,767 -13,1725 l -4,1741 -253,0 -253,-1 3,-2038 0,0 z"
       id="path2838" /><path
       style="fill:#109421"
       inkscape:connector-curvature="0"
       d="m 97294,44913 c 77,106 66,563 66,563 63,38 1085,-870 1085,-829 1,191 24,585 24,585 0,0 1058,-1006 1102,-900 49,119 -4,702 -4,702 0,0 704,-776 833,-916 93,-100 78,126 87,491 2,65 1154,-850 1224,-866 149,-32 195,475 187,602 -6,94 1063,-610 1016,-517 0,0 79,541 79,541 298,-41 1008,-306 1435,-237 137,22 130,91 8,141 -2058,833 -3641,2089 -4563,3839 -314,596 -410,1116 -327,1247 0,0 370,-796 787,-921 56,-16 93,510 150,480 0,0 316,-798 544,-1092 61,-79 163,419 228,345 0,0 164,-534 485,-906 46,-53 129,505 180,458 333,-307 646,-1077 771,-1134 87,-68 102,640 185,579 0,0 475,-954 759,-1127 182,-112 175,521 175,521 362,-357 761,-949 950,-1206 87,-118 39,780 132,815 119,46 899,-688 987,-703 58,-10 126,209 -26,385 -12,14 -964,1112 -964,1112 185,35 257,-17 390,18 395,104 -740,755 -721,877 0,0 547,-10 364,96 -132,77 -855,1008 -855,975 0,-17 363,8 361,112 -3,193 -601,1188 -607,1182 -33,-33 321,-43 369,55 88,181 -614,986 -477,1123 19,19 401,6 571,44 82,18 312,1462 254,1404 -13,-14 246,-1354 403,-1762 96,-247 403,373 428,318 -13,0 -62,-881 -19,-1282 12,-112 233,117 230,10 -8,-243 -28,-503 22,-740 38,-179 226,323 299,188 0,0 -228,-872 -133,-1118 63,-162 215,392 315,414 0,0 -56,-678 49,-853 0,0 317,340 317,340 69,-109 56,-1165 120,-1264 53,-83 382,396 431,321 44,-68 -139,-852 -98,-914 58,-89 419,218 426,212 147,-148 142,-517 204,-654 166,-371 1118,-419 1230,-155 55,128 17,293 -5,492 9,8 477,42 481,6 0,0 -56,437 -23,918 5,64 475,-16 481,48 43,453 -61,495 -61,495 4,33 317,-48 322,-13 34,221 -37,490 -177,749 -21,37 448,-36 455,7 57,340 68,610 9,1090 -5,39 459,-339 466,-300 70,404 -11,840 31,1258 10,97 307,-289 334,-177 27,110 -66,910 -21,955 0,0 497,-25 541,17 394,370 319,1016 319,1016 108,-80 67,-858 -42,-1570 -12,-75 382,-46 370,-116 0,0 -432,-260 -574,-984 -30,-155 417,-123 417,-123 -124,-285 -342,-339 -527,-613 -60,-90 464,-131 464,-157 1,-273 -442,-403 -671,-687 -98,-121 478,-127 478,-127 -169,-235 -726,-338 -1010,-649 -155,-169 565,-335 556,-364 -79,-249 -756,-327 -1084,-608 -68,-58 428,-254 428,-254 -50,-106 -1131,-817 -581,-752 232,28 703,358 740,308 0,0 -20,-415 28,-465 181,-188 805,798 1017,758 0,0 78,-706 174,-725 228,-43 506,1028 731,1028 30,0 47,-619 163,-653 131,-38 278,694 444,856 154,149 156,-572 246,-435 153,221 190,682 399,885 136,132 161,-636 312,-533 175,119 134,517 331,713 94,93 157,-507 264,-419 95,77 159,811 261,927 130,148 280,-387 415,-302 97,62 74,697 164,833 184,282 280,-341 402,-245 85,65 269,795 346,853 171,130 265,-332 395,-267 94,46 284,986 362,962 51,-16 177,-2142 -641,-3039 -1333,-1462 -3720,-2306 -5668,-2327 0,0 979,-195 1005,-357 52,-323 538,-285 877,-211 60,13 28,-571 36,-574 303,-7 574,172 864,348 90,55 -183,-585 -87,-530 372,215 786,278 1037,539 66,69 -76,-493 -76,-493 186,-45 553,223 697,474 70,124 -4,-655 51,-517 0,0 648,220 718,493 0,0 53,-494 140,-468 260,68 488,507 691,570 0,0 -84,-440 -18,-423 488,123 1018,425 1017,423 -275,-688 -1318,-1409 -3153,-1602 -337,-35 -1704,-91 -2863,178 -950,220 -1700,345 -1546,195 628,-615 1643,-690 1922,-833 200,-102 -673,-439 -500,-487 172,-41 952,-106 952,-106 169,-132 -567,-390 -457,-582 220,-385 1521,-35 1632,-181 36,-49 -559,-401 -534,-453 95,-195 1253,144 1280,-26 0,0 -351,-262 -601,-477 -30,-26 1034,-312 1034,-312 -20,-20 -182,-134 -426,-229 -223,-87 934,-388 934,-388 -1466,-670 -5271,1236 -6026,3214 -196,472 -202,-41 -161,-441 39,-430 93,-807 47,-1202 -14,-117 -311,311 -331,197 -76,-420 149,-881 46,-1347 -34,-157 -428,463 -480,306 -144,-431 108,-1037 6,-1631 -40,-232 -413,497 -538,289 -146,-241 -82,-1134 -151,-1269 -56,-108 -388,428 -416,327 -450,-1637 148,-1841 -716,-918 -30,32 -222,-968 -255,-934 -354,758 -934,-540 -1132,-419 -148,92 404,594 410,820 3,109 -508,116 -508,116 11,187 972,711 1003,916 25,169 -680,127 -680,127 22,229 823,447 867,690 25,134 -375,164 -362,300 21,209 774,622 799,835 17,148 -481,209 -493,347 -15,167 1000,727 1001,884 1,222 -404,108 -588,220 -259,157 831,793 877,974 36,159 -436,19 -452,164 -20,190 534,477 661,803 127,322 -3,404 -185,276 -365,-257 -1837,-1821 -2228,-2238 -568,-606 -1731,-1285 -2891,-1325 -121,37 624,564 629,755 1,49 -335,122 -320,137 206,206 847,451 847,451 0,0 -184,331 -184,331 43,97 347,123 834,283 0,0 -365,226 -338,247 258,206 758,358 758,358 0,0 -492,165 -492,165 -29,95 1107,550 1107,550 0,0 -355,306 -339,322 87,87 922,280 922,280 14,14 -590,202 -586,206 219,219 823,290 964,652 0,0 83,206 -156,167 -940,-341 -2396,-1047 -5219,-770 -2886,376 -5085,2885 -5047,3135 0,0 1032,-740 1141,-590 z"
       id="path805" /><ellipse
       style="fill:#8c4200"
       cy="96237.531"
       cx="66157.938"
       id="ellipse26"
       ry="646.73077"
       rx="609.9892"
       transform="matrix(0.8408211,-0.5413131,0.54149361,0.84070486,0,0)" /><ellipse
       style="fill:#8c4200"
       cy="-20463.494"
       cx="-116165.16"
       id="ellipse28"
       ry="738.63727"
       rx="696.67377"
       transform="matrix(-0.84082104,-0.5413132,-0.54149568,0.84070353,0,0)" /><ellipse
       style="fill:#8c4200"
       cy="-19531.455"
       cx="-115784.34"
       id="ellipse30"
       ry="788.48462"
       rx="743.68927"
       transform="matrix(-0.84082048,-0.54131407,-0.54149373,0.84070479,0,0)" /><rect
       style="fill:#000000"
       id="rect32"
       height="687"
       width="919"
       y="69748"
       x="102220" /><path
       style="fill:#8c4200"
       inkscape:connector-curvature="0"
       id="path34"
       d="m 97624,70190 c 0,0 6037,460 9739,-335 0,0 311,211 -136,733 -447,521 -1578,633 -2199,745 0,0 -149,335 -137,509 13,174 392,156 578,118 186,-37 186,-37 186,-37 0,0 -87,652 -2372,739 -750,29 -3223,81 -3746,-652 0,0 453,37 571,0 118,-37 32,-509 -12,-578 -43,-68 -1603,0 -2422,-758 -203,-216 -300,-446 -300,-528 0,-7 250,44 250,44 z m 3146,1267 c 0,0 1652,211 3553,0 0,0 50,360 -37,497 -87,137 -2280,242 -3386,50 -178,-57 -184,-275 -130,-547 z" /><path
       style="fill:#fdf9ff"
       inkscape:connector-curvature="0"
       id="path36"
       d="m 98464,69896 c 0,0 2240,-2382 1554,-7352 0,0 2334,601 4713,4034 0,0 694,697 1510,3183 l -7777,135 z" /><path
       style="fill:#c62139"
       inkscape:connector-curvature="0"
       id="path38"
       d="m 108561,26931 c 0,0 -19181,14279 -19181,31116 0,16839 19181,31522 19181,31522 0,0 19058,-13472 19058,-31522 0,-18049 -19058,-31116 -19058,-31116 z m -7,3456 c 0,0 -17064,12703 -17064,27682 0,14981 17064,28044 17064,28044 0,0 16955,-11985 16955,-28044 0,-16057 -16955,-27682 -16955,-27682 z" /></g></svg>