<?xml version="1.0" encoding="UTF-8" standalone="no"?>
<svg
   xmlns:dc="http://purl.org/dc/elements/1.1/"
   xmlns:cc="http://creativecommons.org/ns#"
   xmlns:rdf="http://www.w3.org/1999/02/22-rdf-syntax-ns#"
   xmlns:svg="http://www.w3.org/2000/svg"
   xmlns="http://www.w3.org/2000/svg"
   xmlns:xlink="http://www.w3.org/1999/xlink"
   xmlns:sodipodi="http://sodipodi.sourceforge.net/DTD/sodipodi-0.dtd"
   xmlns:inkscape="http://www.inkscape.org/namespaces/inkscape"
   version="1.0"
   width="1052.3868"
   height="600"
   viewBox="-2 -3 10.523868 6"
   id="svg2"
   inkscape:version="0.91 r13725"
   sodipodi:docname="Flag-map_of_Guinea-Bissau.svg">
  <metadata
     id="metadata26">
    <rdf:RDF>
      <cc:Work
         rdf:about="">
        <dc:format>image/svg+xml</dc:format>
        <dc:type
           rdf:resource="http://purl.org/dc/dcmitype/StillImage" />
        <dc:title></dc:title>
      </cc:Work>
    </rdf:RDF>
  </metadata>
  <defs
     id="defs24">
    <clipPath
       clipPathUnits="userSpaceOnUse"
       id="clipPath3893">
      <path
         style="fill:#e9afaf"
         d="m -1.2592578,-1.3703711 0,0.00869 c 0.00736,0.017055 0.015334,0.033969 0.019238,0.050547 0.017458,0.017422 0.037197,0.00701 0.057051,0.00701 0.034049,0 0.05079,0.026334 0.077109,0.04207 l 0.019023,-0.00102 c 0.012293,-0.012329 0.018161,-0.029271 0.032031,-0.040059 0.032617,-0.00992 0.0721097,0.015144 0.103125,-0.00701 0.02036,-0.014544 0.0249102,-0.046148 0.0360352,-0.053047 0.016314,0.01629 0.0436267,0.032071 0.0660937,0.018008 0.018253,0.00447 0.0317352,0.018139 0.0510352,0.019043 0.02632,0.00123 0.046151,-0.00604 0.06875,-0.017344 0.0176579,-0.00883 0.0287493,-0.017753 0.0354492,-0.026895 l -0.5649414,0 z m 0.8012305,0 c -0.001236,0.020535 0.003021,0.04108 0.0169531,0.05123 0.001469,0.017699 0.003711,0.045855 -0.006992,0.061074 -0.00903,0.00816 -0.02946,0.011837 -0.0410547,0.010019 -0.008247,-0.00709 -0.0140595,-0.024552 -0.0140234,-0.035039 0.005743,-0.00938 0.008882,-0.027331 0.006016,-0.038047 l -0.0120117,-0.011035 -0.0200391,0.00502 c -0.0137859,0.021154 -0.0368629,0.027329 -0.0560547,0.041055 -0.003696,0.00264 -0.007741,0.00773 -0.0110156,0.010996 -0.0217926,0.021793 -0.0446998,0.035392 -0.0670703,0.055078 -0.0332789,0.029281 -0.0332177,0.1090123 -0.0550586,0.1541992 -0.0137016,0.028306 -0.0413405,0.037721 -0.0550781,0.063066 l 0,0.0100195 c 0.0574072,0.06439 0.0674892,0.1254754 0.0580859,0.2092383 0.0159531,0.00881 0.0268835,0.0270106 0.0280273,0.0450586 -0.008681,0.011486 -0.0112261,0.0310415 -0.007012,0.0443945 0.0331463,0.1049054 0.1496407,0.007607 0.2052539,0.0947657 0.0304615,0.0343986 0.0203295,0.0884644 0.0460352,0.123164 0.0466554,0.0629818 0.0843467,0.0510143 0.1361914,0.0760938 0.0247424,0.0119678 0.0453534,0.0358251 0.0720703,0.0460351 0.0452708,0.0173136 0.1455437,-0.0112689 0.1682031,0.002012 0.044428,0.0260427 0.0480308,0.0992469 0.1301563,0.0760938 0.0734928,-0.020733 0.0262449,-0.0901916 0.2042578,-0.1191602 0.0706393,-0.0114983 0.2303557,0.0202435 0.2583008,0.014043 0.0348441,-0.007754 0.1392005,-0.1082651 0.1401758,-0.1461914 C 0.6665181,-0.5360862 0.638957,-0.607922 0.633262,-0.6162898 0.628181,-0.6237548 0.6178978,-0.6294641 0.6122269,-0.6383015 c 0.0297029,0.011113 0.047656,0.0433357 0.0650781,0.049043 l 0.0170312,-0.003984 0.006992,-0.0160351 -0.009004,-0.0160157 0.002012,-0.0170312 c 0.007645,0.0023 0.0315589,0.005938 0.0390235,0.004023 0.0217927,-0.005599 0.0383184,-0.0293604 0.0610742,-0.0360547 0.0282581,-0.00831 0.103275,-0.0178273 0.1181445,-0.0430273 0.002083,-0.018819 -1.104e-4,-0.042082 0.009004,-0.059082 l 0.0140235,-0.001016 c 0.004732,0.012076 0.0147525,0.0355461 0.0240234,0.0440821 0.0201431,0.018542 0.0856046,0.0296202 0.1121289,0.0270312 0.020793,-0.00202 0.032886,-0.0146135 0.051055,-0.0200195 0.042237,-0.012558 0.099535,-0.0105628 0.1321875,0.0220312 -0.00216,0.012931 -0.00273,0.0270111 -0.00102,0.0400391 0.017807,0.0287036 0.047429,0.0114217 0.073086,0.0120117 0.013882,3.131e-4 0.027844,0.003934 0.042051,0.004004 0.022875,-0.009969 0.034673,-0.0424878 0.053105,-0.0580859 l 0,-0.6639844 -1.8802539,0 z m 1.6288085,0.6868945 c -0.025162,4.73e-5 -0.051573,0.0104739 -0.074336,0.0218555 -0.036301,0.018144 -0.081405,0.0256342 -0.1148047,0.0463672 -0.0159411,0.009909 -0.0624347,0.0545298 -0.0741015,0.0700977 -0.0100896,0.0134487 -0.0129904,0.0325216 -0.0230079,0.0460546 -0.0168682,0.0227798 -0.0357998,0.0424965 -0.0510546,0.0670704 -0.015303,0.0246581 -0.0163178,0.0575345 -0.0370508,0.0800976 -0.0324722,0.0352896 -0.0511,0.008789 -0.0960938,0.0931055 -0.0239237,0.0462099 -0.0104377,0.0845854 -0.0240429,0.1191406 -0.007946,0.0201431 -0.0226368,0.0400993 -0.0330274,0.0590625 -0.0187705,0.0341939 -0.0593152,0.1293682 -0.0660937,0.1662109 -0.004936,0.0268614 0.005019,0.0519684 0.005019,0.0787696 0,0.0192401 -0.007417,0.049353 0,0.0664257 C 0.6387278,0.2561015 0.6688067,0.1518624 0.7253711,0.1426758 0.753569,0.1380888 0.7840933,0.1491201 0.8044531,0.1226562 0.839827,0.076663 0.7275152,-0.0551001 0.8825195,-0.0545703 0.897076,-0.0164514 0.8370034,0.0326741 0.8504883,0.0925977 0.8615531,0.1418177 0.9511689,0.1419927 0.9736719,0.1036328 0.9891675,0.0771687 0.9754701,0.041858 0.9926758,0.0135156 1.0198864,-0.0312856 1.0579502,-0.0593101 1.0817773,-0.110625 c 0.023334,-0.0502434 -0.011086,-0.1205264 0.043047,-0.1591992 0.029522,-0.0210942 0.050736,-0.006836 0.074082,-9.961e-4 0.024478,0.006128 0.049656,0.003641 0.06709,0.0280469 0.00927,0.0129792 0.013074,0.0323694 0.030039,0.040039 0.016688,0.007525 0.042484,0.001924 0.059063,-0.004023 l 0.018008,0.006016 -0.006,0.0160156 c -0.030774,0.0242728 -0.082724,0.0148441 -0.1071289,-0.0140039 -0.032484,-0.0126662 -0.052355,-0.0669683 -0.1141211,-0.0270312 -0.032484,0.0391544 -0.00484,0.0761652 -0.00904,0.118125 -0.00147,0.0146648 -0.032992,0.0820394 -0.041035,0.098125 -0.014352,0.0287156 -0.05114,0.1783049 -0.046035,0.20625 l 0.013008,0.006992 C 1.0884719,0.2005395 1.2731744,0.0732786 1.3200586,0.0505469 1.3504408,0.0358161 1.3856696,0.0287872 1.4222266,0.024707 l 0,-0.64125 c -0.00526,0.023266 -0.00716,0.0500618 -0.03209,0.0593555 -0.00828,-0.005093 -0.017294,-0.0178086 -0.020039,-0.0270313 -0.019312,-0.01322 -0.1382212,0.0347354 -0.1451563,-0.0760937 -0.015771,-0.0169614 -0.034589,-0.0232009 -0.05416,-0.0231641 z m -0.2390039,0.004551 c -0.0252435,0.00117 -0.0441696,0.0173197 -0.0699414,0.0279297 -0.043814,0.0180481 -0.1078189,0.0333747 -0.108457,0.092793 0.0472213,0.0152427 0.0703037,-0.0410306 0.103125,-0.0600781 0.0238514,-0.0138461 0.0978635,-0.0279772 0.103125,-0.0560547 -0.0103003,-0.00371 -0.019437,-0.00497 -0.0278516,-0.00459 z m -1.5054101,0.0908985 -0.0101758,0.0111523 -0.002227,0.0989844 -0.0330664,0.1583984 -0.0186718,0.04375 -0.0157813,0.0369336 -0.0321289,0.0327344 -0.0277148,0.009121 -0.00377,0.0126367 0.0160547,0.005996 0.037461,1.367e-4 0.0441601,0.0180859 0.0378711,-0.0233984 0.0438281,3.91e-5 0.0376758,0.0119336 0.0556836,0.0391015 0.009746,-0.001035 0.007754,-8.203e-4 0.0189258,-0.0113282 0.0223437,4.102e-4 0.0208985,0.009863 0.0191406,0.00125 0.0609375,-0.0261524 0.0124609,-0.0159179 0.005449,-0.0226368 0.002734,-0.01125 0.0125391,-0.0127734 0.0229492,-0.009805 0.0246875,-0.001973 0.0197852,-0.007402 0.007832,-0.008769 0.002168,-0.0110352 -0.005742,-0.0116992 -0.047832,8.008e-4 -0.039961,-0.006387 -0.015293,-0.006816 -0.0568164,-0.0587305 -0.0129101,-0.007637 -0.0103711,-0.001387 -0.0285352,0.00832 -0.0220898,0.0137304 -0.0135938,-5.664e-4 -0.001719,-0.007813 0.0100586,-0.0182422 0.0243555,-0.0208007 0.005352,-0.011875 -0.005,-0.0124805 -0.0366601,-0.0237109 -0.0189844,-0.0122461 -0.0244141,-0.0286524 -0.0274805,-0.0427929 -0.0299218,-0.046543 -0.0187305,-0.022461 -0.0232617,-0.008242 z m 1.1047461,0.2330468 c -0.0317654,-0.00176 -0.0591853,0.0187375 -0.0900977,0.0230469 -0.0289324,0.004033 -0.0619643,0.002083 -0.0911133,0 -0.0129431,-9.271e-4 -0.0252842,-0.003265 -0.0380468,9.961e-4 l 0.001016,0.0180273 0.0100195,0.0150196 0.0200196,0.003008 c -0.0561189,0.0256213 -0.0614697,0.009972 -0.0950977,0.0230469 -0.0524106,0.0203839 -0.0724007,0.0560546 -0.1391992,0.0560547 -0.0697604,0 -0.065543,-0.0409705 -0.1605274,-0.0280274 -0.0144722,0.001975 -0.0341191,0.00465 -0.0447265,0.0160156 0.001433,0.0124254 0.0073127,0.0291877 0.0070117,0.0410352 -4.816e-4,0.0190715 -0.0170205,0.0332002 -0.0180078,0.0530664 0.004611,0.017121 0.0182737,0.0360824 0.0200195,0.0530469 0.007344,0.0715904 -0.0132417,0.0518143 0.0540625,0.0851172 0.0134488,-0.00236 0.0273891,-0.0039155 0.0410547,-0.0040235 0.0151946,0.009138 0.0325424,0.0137172 0.0470508,0.0240235 -0.005262,0.009921 -0.0055676,0.0288645 -0.0010156,0.0390625 0.00909,0.0146287 0.0308314,0.018661 0.0460742,0.0240429 0.0212146,0.0198059 0.0139604,0.0479604 0.0330078,0.0640821 0.007946,0.00673 0.02372,0.0127354 0.0340625,0.0129882 C 0.193361,0.165299 0.2142147,0.146096 0.2427738,0.1476371 0.2792914,0.1496241 0.310869,0.1598272 0.3488676,0.1566601 l 0.014023,-0.0100195 c 0.005298,-0.009488 0.0064,-0.020168 0.007363,-0.0307031 5.418e-4,-0.00608 0.0178532,-0.1247835 0.0186719,-0.1274805 0.004888,-0.0160013 0.0196593,-0.0331816 0.0220312,-0.0490625 0.002083,-0.0138943 -0.001982,-0.0274054 0.001992,-0.0420703 0.019228,-0.0267892 0.0534427,-0.0370413 0.0721289,-0.0710547 0.006466,-0.0117872 0.0266997,-0.0909863 0.0290235,-0.0931054 L 0.509082,-0.2858594 C 0.50193,-0.2934564 0.4893086,-0.3007836 0.4790625,-0.3028906 l 0.001992,-0.0120117 c 0.0134126,-0.0118956 0.0316274,-0.0171616 0.0470508,-0.0260352 l 0.003008,-0.014043 z m -0.0188477,0.2262696 c -0.0362984,0.002639 -0.05238,0.0533321 -0.0652539,0.0811132 l 0.007012,0.0190235 0.0159961,0.0060156 c 0.0385886,-0.0142434 0.0822592,-0.0614149 0.0590821,-0.1041211 -0.006061,-0.00179 -0.0116511,-0.002408 -0.016836,-0.002031 z M 0.6352344,0.6502539 0.6192188,0.6572656 C 0.6101887,0.6777217 0.6044235,0.7044567 0.5911914,0.7223242 0.549954,0.7779856 0.4887471,0.761769 0.4670508,0.7874023 0.4617888,0.8011762 0.4643626,0.8144411 0.4610156,0.8274805 0.4550316,0.8507299 0.4229423,0.8552441 0.4069531,0.8695117 L 0.405957,0.8855273 C 0.4351904,0.9219968 0.3843425,0.9530235 0.3939258,0.9916602 L 0.3829297,1.004668 C 0.3672535,1.014508 0.3442761,1.0054041 0.3258789,1.011678 0.3038816,1.034073 0.3128491,1.071765 0.2908398,1.093787 0.263268,1.121347 0.1716841,1.140589 0.1656641,1.183885 l 0.007012,0.016016 c 0.0212989,0.00492 0.0432438,-0.00673 0.0630859,0.00201 0.0147732,0.00793 0.020035,0.031185 0.0250195,0.046055 0.0144964,0.012076 0.0372709,0.01209 0.0550782,0.016016 L 0.3288675,1.275994 0.338887,1.312029 C 0.3541298,1.308919 0.3571029,1.300448 0.3678909,1.293006 0.3837718,1.282038 0.4043255,1.283686 0.4209769,1.273983 0.4282009,1.265623 0.4346447,1.25272 0.4369925,1.241932 l 0.0140039,-0.01002 0.0170312,0.00701 0.007012,0.016035 0.0180078,0.00602 0.0160156,-0.00803 C 0.512988,1.242147 0.518572,1.231364 0.5250982,1.221912 l 0.0119921,0.011016 0.004024,0.021035 0.0120117,0.010996 0.0220117,0.00203 c 0.00472,0.00936 0.0143946,0.01924 0.0230274,0.025019 C 0.6813742,1.303952 0.675475,1.239704 0.725333,1.207906 0.7470774,1.201276 0.7669079,1.212986 0.7883994,1.204896 L 0.7974224,1.190873 C 0.801781,1.1613326 0.7801638,1.1516345 0.7653906,1.1318164 0.7641746,1.1268314 0.7481908,0.9596565 0.7483594,0.9575977 c 0.0121364,-0.001854 0.0242433,-0.004733 0.0360547,-0.008008 0.006116,-0.009885 0.00734,-0.0290149 0.00498,-0.0400195 L 0.8004297,0.8975391 0.7883984,0.8855273 0.7713867,0.8885156 0.759375,0.8775 0.7623828,0.8584766 0.7774023,0.848457 0.7833984,0.8314453 0.7703906,0.8204297 C 0.7664776,0.8008646 0.7802975,0.7851697 0.7793945,0.7653516 0.7642481,0.7607766 0.7447933,0.7529884 0.7383398,0.7373242 L 0.7243164,0.7713867 C 0.6888101,0.7892421 0.6749802,0.7493883 0.6552344,0.7313281 0.6526944,0.7072239 0.6602527,0.6837529 0.6482617,0.66125 L 0.6352344,0.6502539 Z M -0.4931055,0.7473633 C -0.506771,0.7646288 -0.516273,0.7865233 -0.5341406,0.8004297 -0.5429296,0.8072687 -0.5548801,0.8117673 -0.5641992,0.8184375 -0.6048225,0.8474541 -0.6477725,0.893973 -0.7003516,0.9005469 -0.7422753,0.9057959 -0.7573804,0.8692501 -0.7804492,0.8685156 -0.7993042,0.8679257 -0.8125805,0.8834765 -0.8325195,0.8805273 -0.8392095,0.8747003 -0.857802,0.8670424 -0.866543,0.8675 -0.894295,0.868933 -0.907532,0.8952733 -0.930625,0.9005469 -0.949179,0.9047849 -0.9690938,0.9004053 -0.9826758,0.9185742 l -0.002012,0.0159961 0.0260352,0.0220313 -0.001992,0.0160156 c -0.00418,0.003227 -0.007263,0.008669 -0.0100196,0.0130273 l -0.001016,0.0160157 c 0.00686,0.00975 0.0112657,0.025288 0.0120117,0.037051 -0.00728,0.015423 -0.0133169,0.032909 -0.0140039,0.050078 0.028282,0.010126 0.0529401,-0.00159 0.0800781,-0.00803 0.0165191,-0.012233 0.0161068,-0.028991 0.0270508,-0.043066 0.012221,-0.015724 0.0467897,-0.016409 0.0660547,-0.034023 l 0.0150195,0.00801 c -0.00172,0.020264 0.0110442,0.035312 0.0260352,0.047051 l 0.0210352,0.00102 c 0.0149899,-0.00949 0.0253871,-0.024264 0.0420507,-0.031055 0.002131,7.345e-4 0.0509793,0.041277 0.0520508,0.043047 0.006357,0.010619 0.003827,0.021275 0.0160352,0.032051 l 0.0200195,0.004 c 0.0234902,-0.00745 0.033926,-0.029111 0.0450391,-0.049063 l 0.0170117,-0.00803 c 0.0251156,0.011884 0.0659824,0.027977 0.0921094,0.014023 0.002938,-0.025766 -0.0115589,-0.0664606 0.0130273,-0.0871094 0.008284,-0.006971 0.020198,-0.009327 0.0290235,-0.0180078 0.006622,-0.0172775 0.00149,-0.041181 0.0140234,-0.0550391 l 0.0190234,-0.004023 c 0,-0.041093 0.005713,-0.0539576 0.0210156,-0.0911133 -0.001601,-0.0114983 -0.009465,-0.0369513 -0.02,-0.044043 -0.0127023,0.004876 -0.0265855,0.008231 -0.0400585,0.01 -0.0176146,-0.008284 -0.0335178,-0.0140077 -0.0530469,-0.007988 L -0.493106,0.7473616 Z m 0.3427735,0.2137305 0,1.95e-5 c -0.0168903,6.237e-4 -0.0275415,0.0127998 -0.043418,0.0175195 -0.021335,0.006345 -0.0419722,-0.001596 -0.0630664,0.007988 -0.0102581,0.004672 -0.0177679,0.0154037 -0.0270508,0.0200391 -0.0235986,0.011799 -0.0561994,0.00307 -0.0810742,0.018008 -0.0255731,0.015351 -0.0256345,0.062058 -0.059082,0.082129 -0.0357953,0.021467 -0.1299965,0.060763 -0.1441797,0.096113 8.428e-4,0.00957 0.009164,0.024513 0.0180273,0.029004 0.0236588,-0.0026 0.0613249,-0.01495 0.0831055,-0.006 l 0.0130273,0.012012 c 0.021612,3.973e-4 0.0334818,-0.016637 0.0530469,-0.022031 0.005538,0.00945 0.0119922,0.018671 0.0190234,0.027051 0.0272347,0.013076 0.0487257,-0.013715 0.0740821,-0.015039 0.024646,-0.0013 0.0478553,0.020508 0.069082,-0.006 8.548e-4,-0.00803 -0.003445,-0.021842 -0.0100195,-0.027031 l 0.008027,-0.014023 c 0.0119438,0.00171 0.0273567,0.0016 0.0390235,-0.00199 0.0261511,-0.028619 0.0266754,-0.041759 0.0420507,-0.075098 l 0.0140235,-0.009 0.0100195,0.013008 0.0140039,-9.961e-4 c 0.00767,-0.00594 0.0155997,-0.018728 0.0180078,-0.028047 -0.00419,-0.011125 -0.007595,-0.023204 -0.009004,-0.035039 0.005418,-0.010294 0.0114295,-0.020442 0.0180274,-0.030039 l 9.961e-4,-0.0210156 -0.01,-0.0140234 C -0.1163305,0.9771803 -0.1290704,0.963817 -0.1426758,0.9616016 c -0.002702,-4.383e-4 -0.005243,-5.97e-4 -0.007656,-5.078e-4 z m 1.5554882,0.1637304 c -0.022732,0.00887 -0.036918,0.028339 -0.06207,0.033047 l -0.00902,0.013984 c 0.00643,0.028126 0.048321,0.03531 0.069102,0.050059 8.428e-4,0.00956 0.00914,0.024552 0.018008,0.029043 l 0.00105,2.149e-4 0,-0.1122657 -0.00506,-0.00107 -0.012012,-0.013008 z m -2.0233203,0.1394922 0,1.95e-5 -0.0134765,0.00256 -0.005469,0.00639 0.0161328,0.052637 0.0255274,0 0.006348,-0.037773 -0.009043,-0.016328 -0.0200196,-0.0075 z m 0.8248829,0.013672 c -0.0355786,0.00513 -0.0543409,0.0565 -0.093086,0.021055 l -0.019043,0 c -0.0109214,0.00758 -0.0206691,0.016953 -0.0298046,0.026875 l 0.163125,0 c 7.584e-4,-0.00609 0.00193,-0.011624 0.003828,-0.015879 -0.009163,-0.00908 -0.0190356,-0.020529 -0.0250195,-0.032051 z"
         id="path3895"
         inkscape:connector-curvature="0" />
    </clipPath>
  </defs>
  <sodipodi:namedview
     pagecolor="#ffffff"
     bordercolor="#666666"
     borderopacity="1"
     objecttolerance="10"
     gridtolerance="10"
     guidetolerance="10"
     inkscape:pageopacity="0"
     inkscape:pageshadow="2"
     inkscape:window-width="1600"
     inkscape:window-height="837"
     id="namedview22"
     showgrid="false"
     fit-margin-top="0"
     fit-margin-left="0"
     fit-margin-right="0"
     fit-margin-bottom="0"
     inkscape:zoom="0.90160016"
     inkscape:cx="412.00207"
     inkscape:cy="291.64902"
     inkscape:window-x="-8"
     inkscape:window-y="-8"
     inkscape:window-maximized="1"
     inkscape:current-layer="svg2" />
  <path
     style="fill:#fcd116"
     d="m 3.2586719,-3 -2e-5,1.95e-5 -0.025391,0.012109 -0.028008,3.711e-4 -0.1374805,0.06 -0.1267187,0.081055 -0.060352,0.029863 -0.135957,0.052148 -0.05543,0.035352 -0.1081445,0.095898 -0.083027,0.055195 -0.018066,0.020684 -0.029707,0.021309 -0.046211,0.033184 -0.076875,0.043496 -0.056523,0.014961 -0.00861,0.011895 -0.071543,0.024609 -0.024531,0.015273 -0.023906,0.00428 -0.1214844,0.050469 -0.00865,0.00957 -0.022031,0.010625 0,2.012539 c 6.27e-4,-5.75e-4 0.00118,-0.001204 0.00184,-0.001758 0.029089,-0.0246098 0.071976,-0.0172686 0.1011133,-0.044082 0.039552,-0.0363851 0.041785,-0.0973024 0.098145,-0.1150977 0.043079,-0.0136053 0.079061,0.0169314 0.1221289,0.0109961 0.038757,-0.0198782 0.038672,-0.0657907 0.087109,-0.0810937 0.056817,-0.0179397 0.2209338,-0.0307393 0.2733203,-0.002012 0.018181,0.009957 0.057802,0.0493371 0.078067,0.0650976 0.013569,0.0105471 0.051766,0.055142 0.060098,0.059043 0.022491,0.0105471 0.081257,6.85e-4 0.1101172,0.005019 0.077237,0.0115946 0.1602733,0.0668601 0.2382812,0.0650782 0.056408,-0.001276 0.1508588,-0.0814432 0.1832227,-0.1251368 0.020697,-0.0279209 0.030052,-0.0589815 0.063066,-0.0770898 0.034471,-0.0189029 0.067644,-0.0133874 0.1051367,-0.0180469 0.047691,-0.0274153 0.073719,-0.101044 0.1591797,-0.0430469 0.010258,0.006959 0.020189,0.0105517 0.028027,0.0210157 0.011017,0.004539 0.029821,0.004448 0.041055,0.001016 0.018253,-0.0190113 0.066439,-0.0326309 0.091133,-0.0230469 0.011294,0.0122929 0.026745,0.0187422 0.038027,0.0310352 l -0.012012,-0.009004 c 0.018831,0.0151825 0.028644,0.0352229 0.044043,0.0530664 l 0.00199,0.0160351 c -0.037625,0.007441 -0.095301,-0.004046 -0.1251367,0.0170117 -0.016603,0.057335 -0.00902,0.1185828 -0.033027,0.1751954 -0.019228,0.045331 -0.099984,0.0909338 -0.1051367,0.1311718 -0.00406,0.0316775 0.036291,0.1343846 0.06709,0.1461719 0.032002,0.0122448 0.082232,-0.0336721 0.1791797,0.0390625 0.0072,0.0054022 0.014076,0.0116876 0.020742,0.0184961 l 4.3566215,0 0.0043,-0.0495117 -0.00879,-0.0933399 -0.019121,-0.1251172 -0.00207,-0.0136718 0.00193,-0.0502539 0.016738,-0.0888672 0.00672,-0.1413672 0.026094,-0.1140625 -7.4e-4,-0.0186914 -2.7e-4,-0.006406 -0.028047,-0.0154882 -0.212695,-0.0539454 -0.051329,-0.0262304 -0.02252,-0.0202149 -0.033887,-0.0421093 -0.010957,-0.0350782 -0.01127,-0.0361718 -0.012207,-0.0265821 -0.014473,-0.0116601 -0.045684,-0.0207813 -0.028809,-0.007617 -0.011934,0.00168 -0.081719,-0.0330469 -0.02416,-0.020976 -0.030117,-0.061738 -0.019297,-0.013945 -0.039199,-0.00908 -0.00527,-3.12e-4 -0.088945,-0.0051 -0.033633,-0.010723 -0.02209,-0.028477 -0.02666,-0.039024 -0.02293,-0.061836 -0.00646,-0.014492 -0.00125,-0.045918 0.027656,-0.03084 0.027109,-0.00336 0.027813,-0.012031 0.026035,-0.035859 0.011504,-0.049258 0.025371,-0.020625 0.078398,-0.00279 0.093965,-0.00336 0.049277,-0.020625 0.00775,-0.027715 -9.37e-4,-0.015723 -0.013828,-0.03127 -0.018476,-0.016348 -0.00432,-0.00846 0.00404,-0.022148 0.022383,0.00219 0.039844,-0.0082 0.023184,0.00295 0.013633,0.00932 0.00613,0.061191 0.017285,0.011621 0.017812,-0.014277 0.048711,-0.093027 0.017402,-0.019004 0.010313,-0.004 0.0068,0.00982 0.00615,0.00889 0.00254,0.018848 -0.00449,0.036133 -0.035371,0.06623 0.014473,0.010078 0.042344,0.00596 0.046289,-0.00115 0.018301,-0.00957 0.019394,-0.066094 0.01504,-0.013476 0.024785,0.00451 0.038613,0.035039 0.042148,0.048848 0.023828,0.012656 0.019141,-0.00408 0.018945,-0.022891 0.014375,-0.0575 0.01752,-0.045625 0.016582,-0.022109 0.018184,-0.00336 0.00158,-0.00307 0.0065,-0.012715 0.00697,-0.022832 0.018242,-0.015078 0.06295,-0.016992 0.010293,-0.011074 0.00826,-0.030879 0.00332,-0.012402 -0.00492,-0.015645 -0.00125,-0.049434 0.021972,-0.046504 -0.00348,-0.031367 -0.014727,-0.039121 -0.00842,-0.048613 -3.1e-4,-0.03377 0.079726,-0.1121289 0.00228,-0.00824 0.00856,-0.031094 -0.0077,-0.056484 -0.05957,-0.1392383 -0.024219,-0.029629 -0.04834,-0.041211 -0.00728,-0.014063 -0.012617,-0.069766 -0.00115,-0.00367 -0.028515,-0.091855 -0.00176,-0.021953 -0.012344,-0.040742 -0.012148,-0.016367 -0.011153,-0.084668 -0.00244,-0.092637 -0.018223,-0.070469 -0.101054,3.516e-4 -0.2252347,8.398e-4 -0.064004,-0.00494 4e-5,0.00395 -0.1271679,0.00111 -0.019004,0 -0.4280274,1.758e-4 -0.011543,-0.00123 -0.036504,-0.00383 -0.2534765,0.00242 -0.025527,0.00496 -0.092031,-0.00305 -0.030684,-0.00594 -0.1060742,0.00416 -0.015918,0.00568 -0.035254,-0.00592 -0.2807812,-0.00102 -0.063926,-2.149e-4 -0.1343164,0.00299 6e-5,0.00391 -0.026465,-0.00523 -0.080937,-3.125e-4 -0.1294336,-4.688e-4 -0.4396289,-0.00148 -0.4396289,-0.00125 -0.4395898,-0.00111 -0.00387,0 -0.050371,0.00375 -0.305625,-0.00549 -0.079551,-0.00143 -0.00279,-5.86e-5 -0.024687,0.00502 -0.024082,-0.00361 -0.1134961,0.00301 -0.1953711,-0.00525 -0.078223,-0.00213 -0.041641,-0.00113 -0.075938,0.00338 -0.048867,-0.00566 -0.1038281,0.01002 -0.035273,-0.00658 -0.1325195,0 -0.045039,1.95e-5 L 3.2586719,-3 Z m 0.3538672,2.5263672 c -0.045175,6.53e-4 -0.075772,0.0515364 -0.1008985,0.0826562 -0.014677,0.0181805 -0.030772,0.0298179 -0.045039,0.0490821 -0.031497,0.0425257 -0.087038,0.0285857 -0.1311524,0.0410351 -0.060899,0.0171692 -0.078741,0.0724139 -0.157207,0.0831055 -0.043031,0.005864 -0.045601,-0.006841 -0.078086,-0.0100195 -0.02768,-0.002709 -0.056201,0.0137524 -0.083086,0.0100195 -0.031172,-0.004334 -0.055899,-0.0262923 -0.090117,-0.0270508 -0.053434,-0.001168 -0.098799,0.0263253 -0.1531836,0.0210156 -0.058888,-0.005743 -0.168687,-0.0675717 -0.2162695,-0.0600586 -0.018433,0.002914 -0.031664,0.015696 -0.047051,0.0250391 l -0.014805,0.029668 c -0.011294,0.0157966 -0.041759,0.0609521 -0.090293,0.0993359 -0.048534,0.0383839 -0.078574,-8.59e-4 -0.078574,-8.59e-4 -0.022154,0.0121244 -0.048246,0.0166297 -0.069629,0.029043 -0.013244,0.007694 -0.030565,0.0199374 -0.042051,0.0300391 -0.024417,0.0214916 -0.043396,0.0513897 -0.068067,0.0730859 -0.00329,0.0028972 -0.00697,0.0056905 -0.010586,0.0084961 l 1.5119141,0 c -0.032473,-0.0393456 -0.022409,-0.0670239 -0.035586,-0.1066016 -0.017988,-0.054048 -0.05991,-0.0539992 -0.043066,-0.1251562 0.00299,-0.0125458 0.010347,-0.0416797 0.017031,-0.0520703 0.025826,-0.0401778 0.070474,-0.0706793 0.06207,-0.1251367 l 0.00902,-0.0140235 c 0.00417,-0.0299678 -0.011793,-0.0466534 -0.036055,-0.0600781 -0.00314,-4.24e-4 -0.00623,-6.1e-4 -0.00924,-5.66e-4 z m -1.1350977,0.1997656 -0.016016,0.004004 c -0.012786,0.009476 -0.021736,0.0280569 -0.026035,0.0430469 l -0.017031,0.007012 c -0.0087,-0.015327 -0.015299,-0.0317117 -0.024004,-0.0470508 l -0.019023,0 c -0.033568,0.0239838 -0.093062,0.0473718 -0.077109,0.0971094 l 0.025039,0.0230273 0.039219,0.00332 c 0.010162,0 0.027099,-0.006773 0.040644,-0.0180664 0.013545,-0.0112936 0.051912,-0.0564377 0.059824,-0.064336 0.00791,-0.007898 0.028496,-0.0360547 0.028496,-0.0360547 l -0.014004,-0.0120117 z"
     id="rect6"
     inkscape:connector-curvature="0" />
  <path
     style="fill:#009e49"
     d="m 2.1486328,0 c -5.42e-4,4.89e-4 -0.00105,0.0010226 -0.0016,0.0015039 -0.019144,0.0168441 -0.04522,0.0315789 -0.061426,0.0507227 -0.00592,0.007007 -0.012717,0.0132858 -0.017676,0.0210156 C 2.0489307,0.1027886 2.059466,0.1446702 2.036875,0.1737109 2.0251712,0.1887531 2.0050501,0.2080634 1.99,0.2281836 l 0,0.0780078 0.00484,0.009688 c -3.72e-4,0.0101644 -0.0032,0.020433 -0.00484,0.0303906 l 0,0.0178907 c 0.00329,0.0114879 0.01293,0.0255275 0.012852,0.0408203 0.025031,0.015026 0.072367,0.052165 0.095098,0.0130468 0.00155,-0.0211424 -0.00113,-0.0434332 0.004,-0.064082 0.01086,-0.0187103 0.070133,-0.0234444 0.093106,-0.029043 l 0.011016,0.005996 0.00602,0.0180274 c -0.0086,0.007152 -0.01764,0.0139513 -0.027031,0.0200195 -0.00116,0.0242367 0.025375,0.0386445 0.029023,0.0630859 -7.71e-4,0.0202515 -0.018685,0.0291635 -0.023008,0.0480665 0.00108,0.008729 0.00795,0.0233966 0.016016,0.0280078 0.035819,0 0.083296,0.005307 0.1111329,-0.0220117 l 0,-0.0320508 c 0.00747,-0.0124736 0.082893,-0.0603254 0.1000976,-0.0640821 l 0.00803,0.0160352 c -0.00653,0.009452 -0.012102,0.0202548 -0.016016,0.0310547 0.00745,0.00844 0.013872,0.0220106 0.016016,0.0330273 -0.00448,0.009187 -0.020335,0.0173094 -0.030039,0.0180078 -0.00234,0.0111973 -0.00258,0.0237335 -9.96e-4,0.0350391 -0.00854,0.0144842 -0.030106,0.0213122 -0.045059,0.0270312 -0.011173,0.0224549 0.0048,0.0536686 -0.016016,0.0720899 -0.01369,0.0121123 -0.035505,0.008663 -0.049062,0.0230273 -0.039082,0.0697965 0.02325,0.0881954 0.031016,0.1091211 0.0108,0.0290648 -0.00654,0.110105 0.055078,0.1041211 L 2.3832813,0.8465039 C 2.3800113,0.8261802 2.3627049,0.8139811 2.3642579,0.7924414 l 0.00902,-0.0100195 c 0.00863,0.006092 0.017239,0.0166799 0.022031,0.0260351 l 0.02,-9.96e-4 c 0.00929,-0.0184093 -0.00449,-0.0375773 -0.00299,-0.0570703 L 2.4233399,0.738379 c 7.34e-4,-0.0131839 -0.00117,-0.0296615 -0.006,-0.0420508 0.014472,-0.007838 0.026153,-0.0228239 0.034004,-0.0370312 l 0.017012,-0.003027 c 0.015893,0.0177712 0.00335,0.0767813 0.00803,0.103125 l 0.018008,0.005996 c 0.01145,-0.005081 0.028845,-0.006316 0.041055,-0.004004 l 0.00602,-0.0170117 c -0.00412,-0.0126301 -0.00704,-0.0259313 -0.00902,-0.039043 0.024201,-0.002348 0.037444,0.023625 0.068086,0.0160157 0.00479,-0.00956 0.00395,-0.0277003 -9.96e-4,-0.0370313 L 2.5815041,0.6773048 C 2.5599761,0.6552233 2.5718424,0.6270546 2.5594924,0.6032032 2.5511724,0.5961352 2.5380726,0.5903991 2.5274416,0.5881837 l -0.00799,-0.0160156 c 0.00326,-0.0147009 0.012979,-0.0647464 0.019024,-0.0741016 l 0.006,0.0190234 c 0.012293,0.0312199 0.029184,0.0287824 0.047051,0.0490821 0.045451,0.05164 0.010065,0.0911715 0.108125,0.1061133 l -0.00801,-0.008008 -0.00299,-0.0170312 C 2.6985125,0.6408892 2.708237,0.6341903 2.717676,0.6272071 2.709106,0.6096286 2.6872718,0.6110656 2.6766408,0.596172 2.6706008,0.587732 2.6669078,0.5728416 2.6616018,0.5631251 l 0.004,-0.0140039 0.017031,-0.007012 -9.96e-4,-0.0190235 C 2.6733409,0.515453 2.6655246,0.5069446 2.6586136,0.498047 l 0.004,-0.0190235 C 2.6758975,0.465647 2.6956053,0.4662488 2.7096683,0.454004 2.7028083,0.446142 2.692281,0.4380659 2.682637,0.4339845 l 0.00602,-0.0170313 0.016016,-0.008008 c 0.045957,-0.001469 0.039662,0.0443234 0.041035,0.0740625 7.59e-4,0.0166153 0.015512,0.0838848 0.024024,0.0971289 0.035494,-0.0341578 0.021138,-0.0802861 0.042051,-0.0981055 l 0.012012,0.006992 c 0.00619,0.0151946 0.023453,0.0443625 0.043066,0.0420508 l 0.009,-0.009004 0.014023,-0.001016 C 2.9049206,0.5054509 2.907288,0.4670794 2.898887,0.4480079 2.885258,0.436919 2.8611718,0.4104197 2.8468558,0.4049415 2.8223058,0.3955625 2.7996672,0.4032687 2.7777542,0.3808985 l 0.00902,-0.0109961 0.02502,-0.001016 0.00201,-0.0160156 C 2.8027799,0.3504392 2.789744,0.3447624 2.780762,0.3378517 L 2.7727542,0.321836 c 0.00604,-0.008464 0.018166,-0.0169085 0.028027,-0.020039 l 0.020039,0.004023 c 0.00842,0.006478 0.016293,0.0150851 0.022012,0.024043 0.00878,0.004912 0.023881,0.009071 0.034043,0.007988 L 2.888887,0.326836 c -0.0096,-0.0237431 0.00204,-0.0361686 0.00801,-0.0570703 0.00791,-0.0277043 0.00106,-0.0650872 0.040039,-0.0720703 l 0.016016,0.005996 c 0.012293,0.0248026 -0.0013,0.0461784 -0.018047,0.064082 -0.00479,0.0284026 -0.00471,0.067864 -0.00398,0.0971094 0.013798,0.001637 0.028234,0.001108 0.042031,0 l 0.00502,0.0140234 c -0.014376,0.0170007 -0.041922,0.0260133 -0.047051,0.0490821 0.0027,0.009752 0.00739,0.0221091 0.014004,0.0300195 l 0.021035,0.001016 c 0.02396,-0.011715 0.019446,-0.0232288 0.027031,-0.0430468 0.00353,-0.009223 0.013163,-0.0197481 0.018027,-0.029043 0.010728,-0.002697 0.021523,-0.007433 0.031035,-0.0130078 l -0.006,-0.0190235 0.00498,-0.0140429 0.016035,-0.007988 0.005,-0.0190234 C 3.0516316,0.2909858 3.0452495,0.262489 3.0410355,0.2377345 c 0.013545,0.00242 0.027341,0.004081 0.041055,0.00502 0.023334,-0.0206608 -4.92e-4,-0.0509257 0.00701,-0.0750781 l 0.014004,-0.0100196 c 0.016543,0.008067 0.017469,0.0287181 0.030039,0.0410352 0.020227,0.006803 0.045996,0.002867 0.06709,0.002012 l 0.013008,0.0110157 -0.00201,0.0160351 c 0.00837,0.015905 0.019365,0.0302474 0.026035,0.0470313 l -0.009,0.0140429 C 3.196886,0.3045044 3.1685724,0.2820601 3.1481644,0.2607618 l -0.01002,0.0150391 c 0.00163,0.0183973 -0.005,0.0383534 -0.016016,0.0530664 l 9.96e-4,0.0180078 c 0.016591,0.002709 0.032403,0.0181458 0.037051,0.0340625 -0.011125,0.0138342 -0.062464,0.0184848 -0.080078,0.0180273 l -0.012031,0.009004 c 0.00182,0.0170729 -0.01192,0.0321438 -0.02,0.0460742 0.00633,0.0190595 0.013989,0.0377548 0.015,0.0580664 l 0.013027,0.0109961 c 0.017205,-0.002035 0.020897,-0.0214305 0.043027,-0.0230078 l 0.010019,-0.0140235 c -0.00226,-0.0173016 -0.00247,-0.0438067 0.011016,-0.0570508 0.020312,0.0147973 0.010949,0.0493758 0.034043,0.0610547 0.014797,9.63e-4 0.031514,2.37e-4 0.046035,-0.002988 l 0.00604,-0.0170312 c -0.00503,-0.0106194 -0.0062,-0.0286853 -0.004,-0.0400391 L 3.234258,0.4179884 c 0.010162,0.002974 0.024753,0.003954 0.035059,0.001016 0.00403,-0.0182287 0.01047,-0.0360056 0.018008,-0.0530664 l 0.014023,-0.005019 c 7.1e-4,0.009716 0.00882,0.0255721 0.018008,0.030039 0.037288,0.004491 0.068306,-0.0406882 0.103125,-0.0510547 0.00171,0.0194929 0.014336,0.0365016 0.012012,0.0560547 C 3.3857904,0.3982201 3.389999,0.4222288 3.357383,0.434004 3.33836,0.440867 3.316886,0.442128 3.297344,0.4480274 c -0.00464,0.0102341 -0.01091,0.0203305 -0.018027,0.0290235 l 9.96e-4,0.0190234 0.015,0.009024 c 0.014087,-0.001674 0.0282,-0.004038 0.04207,-0.007012 l 0.015019,0.009004 0.006,0.0190235 c 0.01086,0.0157484 0.03746,0.0170754 0.054063,0.0120312 0.0078,-0.0155678 0.019909,-0.0300904 0.021016,-0.0480664 l -0.006,-0.0190039 0.005,-0.015039 0.022012,-0.001992 c 0.00845,-0.005827 0.01528,-0.0220695 0.015039,-0.0320508 0.00683,-0.008139 0.015749,-0.0157902 0.02502,-0.0210156 0.00108,0.0164227 0.00571,0.040872 0.021016,0.0500586 l -9.77e-4,0.0170312 -0.014023,0.008984 c -0.021275,0.0380347 -6.01e-4,0.0343178 -0.043066,0.0750976 l 9.96e-4,0.0190235 c 0.021275,-0.00307 0.041606,-0.0103249 0.063086,-0.0120117 l 0.00701,0.0160156 c -0.00352,0.0128829 -0.00547,0.0266984 -0.00602,0.040039 l 0.00803,0.0170313 0.017012,0.006016 0.016016,-0.008008 c 0.010824,-0.0373846 0.032719,-0.1067228 0.083106,-0.1061328 l 0.01,0.0130078 c -0.00373,0.0181685 -0.018304,0.0298978 -0.022012,0.0480664 0.00313,0.009873 0.011534,0.0219832 0.02,0.0280274 l 0.004,0.020039 -0.014004,0.009981 -0.02502,0.001016 -0.022051,0.024043 -0.00398,0.0190234 0.00701,0.0170117 c 0.010559,0.005779 0.021746,0.0108416 0.033027,0.0150196 0.046114,-0.006165 0.098222,-0.0173083 0.1441797,-0.0110352 0.00226,-0.0153029 0.029024,-0.042735 0.042051,-0.0510547 l 0.014004,0 0.00602,0.0180469 c -0.00419,0.01983 -0.00963,0.0396266 -0.009,0.0600586 l -0.012012,0.0120117 -0.021016,0.003008 c -0.00501,0.009464 -0.012141,0.0187871 -0.020039,0.0260352 l -0.021035,0.003008 -0.014004,-0.0100195 -0.019023,0 c -0.00922,0.004997 -0.019301,0.014226 -0.025019,0.0230273 l -0.019023,0.005 C 3.6664928,0.7796944 3.6324318,0.7727176 3.6116988,0.7764259 3.6036488,0.7876713 3.5866542,0.802519 3.5716402,0.7994728 l -0.009,-0.0140235 -0.02,9.96e-4 c -0.00861,0.007465 -0.020399,0.0140903 -0.031055,0.0180274 -0.019072,0.0296547 -0.024806,0.0689354 -0.049043,0.0911132 l -0.019023,9.96e-4 -0.01002,-0.0140429 c 0,-0.0167959 0.00713,-0.0735645 0.00602,-0.0800782 -0.021167,-0.0208173 -0.065975,-0.005537 -0.069082,-0.0490625 0.019035,-0.0107638 0.081023,2.6e-4 0.108125,-0.001992 0.00839,-0.004912 0.016603,-0.0194108 0.017012,-0.0290429 0.018843,-0.001409 0.040812,0.007187 0.058066,-0.002012 l -0.00672,-0.009336 c -0.00482,-0.006754 -0.01109,-0.009748 -0.016309,-0.0156836 -0.012726,-0.0144481 -0.016871,-0.03568 -0.02873,-0.0507422 l -0.00732,-0.009336 c -0.017133,-0.009295 -0.041036,-0.006861 -0.060059,-0.009004 l -0.00703,0.0120117 c 0.00839,0.0144481 0.021224,0.0249372 0.027051,0.0410352 l -0.00502,0.0140234 c -0.019457,7.47e-4 -0.044336,-8.06e-4 -0.06207,0.008008 -0.02473,-0.0242367 -0.00396,-0.0661181 -0.030039,-0.0911133 -0.031954,-0.03063 -0.0643,-0.0115592 -0.090078,-0.0270312 -0.015159,-0.00909 -0.021275,-0.0263011 -0.038047,-0.034043 -0.017976,0.001854 -0.029954,0.0173804 -0.041055,0.0300586 -0.011583,-0.001553 -0.031511,0.001551 -0.041035,0.009004 l -0.00604,0.0170313 0.00502,0.0180078 0.00701,0.005 c 0.013714,0.0156521 0.030776,0.0309837 0.048066,0.0450586 -0.00786,0.006851 -0.015945,0.0174067 -0.020039,0.0270508 0.00854,0.006863 0.016489,0.0152267 0.023027,0.0240039 l -0.00502,0.0150195 c -0.031112,0.0130394 -0.010811,0.0465058 -0.025996,0.0670703 l -0.020039,-0.003984 -0.004,-0.0190234 c -0.00904,-0.00419 -0.024404,-0.004886 -0.034023,-0.003008 -0.00394,-0.0130394 -0.00692,-0.0265976 -0.00902,-0.0400586 l -0.017012,-0.006016 -0.01002,-0.0130078 -9.96e-4,-0.0190235 c 0.011631,-0.0120629 0.022206,-0.027548 0.026035,-0.044043 l -0.005,-0.0190234 -0.013027,-0.0100195 c -0.00945,0.001794 -0.022637,0.0114188 -0.027031,0.020039 l -0.01502,-0.005019 -0.00803,-0.0160351 -0.016016,0.003008 -0.012012,0.0120312 C 2.988375,0.6354716 2.9349746,0.6173631 2.9158786,0.6182421 l -0.016016,0.009004 0.004,0.0180273 0.018027,0.005996 c 0.00974,0.0133404 0.01668,0.028453 0.026035,0.0420703 0.014833,-0.001192 0.030214,-0.001481 0.045059,0 l 0.00799,0.0110157 -0.009,0.015 c -0.00154,0.0109805 0.00158,0.0302491 0.009,0.0390625 0.012534,0.0101016 0.032805,0.0121682 0.042051,0.025039 -0.018963,0.007007 -0.061914,0.018497 -0.081094,0.0169922 l -0.01502,-0.007988 C 2.9457538,0.7790602 2.9431155,0.7652085 2.9389255,0.7524218 2.9235625,0.7451018 2.900145,0.7448793 2.889863,0.730371 2.887923,0.7197396 2.8814748,0.7061251 2.8738278,0.6983593 L 2.85582,0.6923241 2.8337888,0.7163476 c -0.075515,0.0118354 -0.060373,0.021889 -0.1131446,0.0570703 0.00527,0.007019 0.020856,0.0122688 0.029043,0.0130273 0.018072,-0.004912 0.036285,-0.0118215 0.05207,-0.0220312 l 0.017031,0.005 c 0.011547,0.030341 0.041622,0.0383665 0.069062,0.0480468 0.00385,0.0155076 -0.00253,0.022546 -0.00502,0.0360547 -0.00802,0.0435611 -0.012487,0.0712283 -0.069063,0.068086 L 2.8077536,0.902578 c 0.00595,-0.0183732 0.00855,-0.038882 0.00602,-0.0580859 l -0.014023,-0.003984 -0.013008,0.009004 -0.01502,-0.008027 -0.016035,0.007012 c -0.0025,0.0102341 -0.00994,0.0231597 -0.018008,0.0300586 L 2.7206442,0.8765233 C 2.7054132,0.8603655 2.7005613,0.8307335 2.6766013,0.8244726 l -0.00801,0.0140039 c 0.00287,0.0125096 0.00655,0.0250302 0.011016,0.0370703 l -0.014004,0.0100195 -0.004,0.0190234 c 0.0099,0.0162421 0.015812,0.0371443 0.016992,0.0560352 l -0.013984,0.0100195 c -0.013003,0.002011 -0.030532,0.001507 -0.043066,-0.003008 L 2.6085544,0.9556054 c -5e-5,-0.0129792 -0.0015,-0.0262971 -0.00402,-0.0390235 l -0.015,-0.009004 -0.014023,0.005996 c -0.00647,0.0173143 -0.026581,0.0266505 -0.044062,0.0270117 -0.010186,-0.006273 -0.021693,-0.0112917 -0.033047,-0.015 l -0.018008,0.006016 -0.004,0.0190039 0.015,0.008027 -0.004,0.0190234 c 0.00402,0.008669 0.015134,0.019456 0.024043,0.0230079 0.00739,0.00809 0.00995,0.026896 0.00701,0.03707 -0.0073,0.00833 -0.015032,0.016354 -0.023027,0.024023 l -0.017031,-9.96e-4 c 0.00478,-0.024802 -0.018437,-0.042268 -0.036016,-0.055078 l -0.019023,0.005 c -0.00232,0.04503 0.023214,0.065001 -0.036035,0.089141 l -0.011035,-0.00904 c 9.39e-4,-0.011751 0.00319,-0.023613 0.00604,-0.035039 l -0.01002,-0.01002 c -0.018698,0.00762 -0.04362,0.023108 -0.060078,0.035039 l -0.022012,-9.76e-4 -0.00803,-0.016035 -0.019023,9.96e-4 c -0.010234,0.022852 -0.031098,0.088075 -0.015,0.1091211 0.015568,0.010692 0.042637,0.00254 0.060059,0 l 0.01502,0.00902 0.006,0.013008 c -0.011245,0.012702 -0.025362,0.023599 -0.040039,0.032051 l -0.006,0.017012 c -0.029691,0.025766 -0.053885,0.017512 -0.045059,0.07209 -0.00948,0.020251 -0.027913,0.035159 -0.038027,0.056074 -0.01192,0.024646 -0.0071,0.050957 -0.019024,0.074063 -0.00779,0.015098 -0.02094,0.027244 -0.029043,0.041055 -0.00582,0.00993 -0.00764,0.025007 -0.010996,0.036035 -0.014328,0.046908 -0.015059,0.095875 0.049043,0.094141 0.039516,-0.00107 0.063989,-0.042618 0.086094,-0.046074 0.108084,0.038709 0.1136543,-0.1100857 0.1561914,-0.1431836 0.013328,-0.00411 0.027261,-0.00703 0.041035,-0.00902 0.027259,-0.036048 0.074209,-0.033187 0.097109,-0.070078 0.015893,-0.025621 0.011144,-0.056828 0.020019,-0.085098 0.017916,-0.05701 0.090423,-0.1108944 0.1491797,-0.1141211 l 0.014023,0.009 0.00402,0.021035 c -0.018698,0.026175 -0.070245,0.026722 -0.098105,0.070078 -0.015712,0.024441 -0.00749,0.053646 -0.01002,0.080098 -0.00172,0.018036 -0.012411,0.036809 -0.015,0.054063 -0.011125,0.074059 0.080143,0.062466 0.1251367,0.054062 0.028511,-0.031087 0.1715199,-0.1786626 0.2082422,-0.1632031 -0.010367,0.045187 -0.1483634,0.1623582 -0.1902148,0.1912304 -0.01694,0.011679 -0.046499,0.023333 -0.059082,0.038047 -0.086628,0.011558 -0.066677,-0.00708 -0.1291406,-0.050059 -0.010343,-0.00289 -0.029787,-6.44e-4 -0.038047,0.00699 -0.01157,0.017675 -0.015061,0.033504 -0.024043,0.05207 -0.00792,0.016375 -0.019533,0.027911 -0.03002,0.04207 -0.00697,0.0094 -0.00976,0.020806 -0.015039,0.031016 -0.00775,0.015038 -0.021289,0.026009 -0.029043,0.041035 -0.016844,0.032653 -0.047243,0.1085326 -0.038008,0.1431836 0.0099,0.014689 0.03603,0.015567 0.052031,0.019023 0.031774,0.05058 -0.011113,0.070542 -0.011992,0.1061329 -5.42e-4,0.021106 0.015316,0.036136 0.011992,0.056074 -0.00197,0.011835 -0.00961,0.022888 -0.010996,0.036035 -0.00191,0.018277 0.013645,0.099397 0.024023,0.1161328 0.034122,0.054987 0.087021,0.021734 0.1181445,0.046055 l 0.028027,0.044043 c 0.00719,0.01157 0.00765,0.023613 0.013008,0.035039 0.011462,0.024465 0.056303,0.038475 0.081094,0.036055 0.012726,-0.00125 0.025763,-0.00675 0.039043,-0.00803 0.050376,0.017326 0.032449,0.047903 0.1291797,0.030059 0.00995,0.00442 0.020435,0.012265 0.028008,0.020019 0.017037,0.00237 0.044774,0.0025 0.056055,-0.013008 0.047715,0.015399 0.075559,0.03369 0.1251758,0.005 0.022828,-0.027536 0.031127,-0.1030316 0.016016,-0.1341797 -0.0072,-0.014821 -0.021943,-0.029438 -0.029023,-0.044043 -0.016158,-0.033315 -0.033685,-0.099385 -0.02002,-0.1351563 0.00447,-0.011667 0.023151,-0.029375 0.032012,-0.039043 0.023442,-0.00728 0.053502,-0.019045 0.076113,-0.00301 l 9.77e-4,0.018008 c -0.017097,0.021275 -0.036614,0.024081 -0.056035,0.040059 -0.017145,0.060995 0.02165,0.1285912 0.058047,0.1741992 0.00412,0.017121 -0.00151,0.027334 -0.00301,0.043047 -0.00276,0.02886 0.012887,0.057069 0.00602,0.086133 -0.00684,0.028836 -0.028132,0.049998 -0.03502,0.081074 0.010487,0.019926 0.014852,0.055516 -0.00902,0.068086 0.00152,0.036385 -0.042216,0.065983 -0.075098,0.068066 -0.050484,0.00338 -0.045301,0.042384 -0.06707,0.073086 -0.016676,0.00844 -0.035122,0.012158 -0.052051,0.02002 l -0.00604,0.017031 0.00402,0.021016 c 0.014304,0.00954 0.029126,0.019869 0.046055,0.024024 0.030088,0.043778 0.020808,0.039305 0.06709,0.06707 0.057937,0.034772 0.065812,-0.016778 0.1201367,-0.027012 0.00527,-0.018217 0.00712,-0.038186 0.016016,-0.055078 0.021118,-0.014544 0.059894,-0.042896 0.061074,-0.071094 0.059261,-0.1801681 0.1578915,-0.1460322 0.1972265,-0.2222461 0.010752,-0.020829 0.00275,-0.038848 0.00701,-0.061074 l 0.014004,-0.005 0.017031,0.00701 c 0.010439,-0.015351 0.00802,-0.036469 0.022031,-0.049063 l 0.00902,-0.00402 c 0.00769,0.00836 0.014803,0.017552 0.021016,0.027051 0.00621,-2.53e-4 0.070449,-0.017968 0.073086,-0.020039 l 0.009,-0.014004 c -0.00526,-0.035265 -0.041243,-0.041 -0.040039,-0.081094 0.029727,0.00101 0.068795,0.011918 0.083086,-0.024023 l 0.00602,0.018008 0.017031,0.00602 0.019023,-0.005 c 0.026633,-0.029065 0.068996,-0.062723 0.089102,-0.095098 0.020926,-0.033724 0.010259,-0.078281 0.029043,-0.1091407 l 0.014004,-0.00102 c 0.00691,0.0089 0.014731,0.017405 0.023027,0.025039 0.0036,0.030136 0.016181,0.1035546 0.00799,0.1301758 -0.015291,0.015893 -0.0361,0.028212 -0.054062,0.041035 l -0.00598,0.016035 c 0.013798,0.031413 0.075606,0.037222 0.060039,0.095098 l -0.015,0.012012 -0.020039,-0.004 c -0.012185,-0.011173 -0.024578,-0.022111 -0.036016,-0.034043 -0.014605,-0.00412 -0.049331,0.016511 -0.061094,0.026035 l -0.00701,0.017012 c 0.00178,0.020504 0.011103,0.040401 0.00701,0.061074 l -0.013008,0.01 c -0.01853,-6e-5 -0.035654,-0.0096 -0.054063,-0.012031 l -0.023027,0.024043 c -0.01257,0.00755 -0.019319,0.00131 -0.030059,0.018027 -0.020287,0.031557 0.00675,0.064016 -0.031992,0.1061328 -0.022395,0.024333 -0.049436,0.013725 -0.068086,0.030039 -0.00875,0.018482 -0.00608,0.1736511 -0.012012,0.2142383 -0.00461,0.031388 -0.031747,0.056541 -0.028027,0.088086 0.011534,0.021949 0.037922,0.026731 0.059063,0.035039 C 3.6529683,2.905801 3.6398834,2.79008 3.6948829,2.759727 l 0.00303,0.017012 c -0.012257,0.027716 -0.040315,0.1067463 -0.064082,0.1231445 -0.020697,0.014292 -0.052623,0.013835 -0.076113,0.021035 -0.017916,0.01322 -0.026309,0.04895 -0.011992,0.06707 0.00944,0.00641 0.023734,0.011049 0.035039,0.012012 0.021492,-0.00424 0.038549,-0.025984 0.058066,-0.033027 0.019144,-0.00691 0.042429,-0.00279 0.06209,-0.012031 0.018108,-0.00852 0.03019,-0.029289 0.046035,-0.037031 0.00607,-4.57e-4 0.047347,-0.032055 0.051055,-0.037051 l 0.00402,-0.019004 c 0.00783,0.012269 0.023325,-0.014098 0.039121,-0.018613 0.015797,-0.00452 0.054177,-0.02709 0.079004,-0.02709 0.010704,0 0.021827,-0.00126 0.032109,-0.00289 l 0.030059,-0.029434 0.049141,-0.066601 0.058047,-0.1161328 0.014336,-0.023262 0.016992,-0.027578 0.00525,-0.00852 0.00975,-0.018066 0.1966602,-0.3645313 0.00857,-0.016563 0.1333789,-0.2584179 0.05125,-0.1322852 0.055762,-0.1438086 0.080488,-0.176875 0.049238,-0.068262 0.1713672,-0.2374609 0.038418,-0.044414 0.064082,-0.051934 0.027383,-0.022168 0.022207,-0.00576 0.058945,10e-5 0.019824,-0.004941 0.084434,0.00291 0.1268164,0.0166211 0.00965,0.00617 0.075703,0.00693 0.076543,0.00703 0.035,-0.00197 0.084648,-0.0480664 0.037285,-0.010625 0.00791,-0.005586 0.00383,-0.0118164 0.1476758,-0.0769336 0.022734,-0.0118164 0.3644727,-0.189707 0.00268,-0.001387 0.080039,-0.1107813 0.095566,-0.1462304 0.015938,0.002187 0.016152,0.020254 0.035273,0.0176757 0.036445,-0.0126757 0.033398,-0.0115821 0.038242,-3.91e-4 0.034336,0.005137 0.1016016,0.0413867 0.077109,-0.0156836 0.056602,0.001777 0.06,0.0583984 0.038203,0.0372071 0.047207,0.0183789 0.020703,0.001367 0.045957,-0.0255664 0.00998,-0.007441 0.035859,-0.0267578 0.08418,-0.0275 0.031035,-0.002656 0.041543,0.0121875 0.034785,0.0179297 0.020488,0.0105859 0.028691,-2.73e-4 0.049258,-0.0114649 0.090488,-0.0338086 0.028496,-0.017539 0.021719,-0.0630078 0.013418,-0.0103126 0.039141,0.008281 0.049785,0.0379883 0.016387,0.006406 0.013184,0.005117 0.05959,-0.002324 0.025586,-0.0803125 0.018398,0.006133 0.01082,-0.0401953 0.012305,-0.0455859 0.00949,-0.008691 0.010937,-0.0228907 -0.00254,-0.0180273 -0.00889,-0.0125 -0.026836,0.0284961 -0.01043,-0.008555 -0.00824,-0.0321094 0.010137,-0.024414 0.015723,-0.0252539 0.013691,0.0195117 0.022207,-0.0127344 0.024727,5.86e-4 0.018535,0.0257422 0.020801,0.007695 0.00166,0.007832 -0.010996,0.0173437 -0.017402,0.0150781 -0.00225,0.0172852 0.00563,0.00625 0.014375,0.002246 0.023437,0.040625 0.010313,-10e-5 0.023789,-0.0182422 0.02709,0.001348 0.021328,-0.0205859 0.014336,0.001465 0.0025,0.0101758 -0.021328,0.0245117 0.01043,0.0101367 -0.00623,0.016543 0.0041,0.0164453 0.00805,0.007012 0.019141,0.00375 0.00668,0.004941 0.010156,0.0075 0.022988,-0.0135156 0.0082,0.0242578 0.077089,-0.016289 0.039161,-0.0129493 0.064101,-0.048457 0.033535,0.006797 0.021446,-0.008809 -0.00609,-0.1451953 -0.001,-0.002871 L 8.238863,0.1209185 8.247965,0.0674419 8.261226,0.0351567 8.264273,5e-7 l -4.3679097,0 c 0.043741,0.038788 0.076733,0.1057203 0.1188867,0.149707 0.038613,0.008464 0.059624,5.65e-4 0.096094,-0.009043 l 0.009,-0.009981 0.013027,0.001992 C 4.131475,0.1615243 4.1068064,0.1717282 4.0833164,0.1787114 4.0218514,0.1970003 3.9502901,0.1860115 3.9021055,0.1416802 3.8674905,0.1098342 3.8702975,0.0826067 3.8190195,0.0585747 3.7707265,0.0359273 3.6775455,0.0411798 3.6568125,0.0195317 3.6502366,0.0126706 3.6450983,0.006223 3.6408555,5e-7 l -1.4922266,0 z m 0.097519,0.5761523 c -0.017892,0.004744 -0.026202,0.020559 -0.041035,0.0300586 -0.039431,-0.015315 -0.054877,0.0107744 -0.079102,0.0340235 L 2.105,0.6432422 C 2.09533,0.6378962 2.0859148,0.6309043 2.0779688,0.6232227 l -0.016016,0.003008 c -0.00798,0.007007 -0.013968,0.0237005 -0.014004,0.0340429 -0.013244,0.005924 -0.037592,0.0340988 -0.048066,0.0460547 -0.00322,-1.12e-4 -0.00655,1.93e-4 -0.00988,6.84e-4 l 0,0.1605078 c 0.016773,0.004863 0.033358,0.0107279 0.050898,0.007031 0.025284,-0.0234661 0.014038,-0.0311577 0.056094,-0.0410547 l 0.00299,-0.0130273 -0.011992,-0.0110157 -0.00301,-0.0170117 c 0.00814,-0.007417 0.020487,-0.0139971 0.031035,-0.0170312 l 0.015,0.008008 0.00301,0.0210351 c 0.00795,0.007682 0.017363,0.0146813 0.027031,0.0200391 l 0.020019,-0.001016 0.013027,-0.0100196 0.017012,0.002031 c 0.00313,0.009873 0.011573,0.0219832 0.020039,0.0280273 l 0.016992,-0.009043 0.00402,-0.0190235 c 0.00962,-0.001854 0.019213,-0.00589 0.028027,-0.0100195 l -0.00801,-0.0159961 -0.015039,-0.009043 0,-0.0330273 c -0.015363,-0.009488 -0.033338,-0.0133514 -0.048027,-0.024043 0.00271,-0.0121965 0.00635,-0.024421 0.010996,-0.0360156 l -0.006,-0.0180469 c 0.00849,-0.017434 0.031986,-0.0136209 0.043027,-0.0300195 0.00288,-0.0182167 0.00932,-0.0392796 0.00203,-0.0570508 L 2.2461523,0.5761527 Z M 1.99,0.9038672 l 0,0.0505664 0.019902,-0.003809 0.00701,-0.0160156 C 2.0059402,0.9159856 1.9976276,0.9076177 1.99,0.9038672 Z"
     id="rect8"
     inkscape:connector-curvature="0" />
  <path
     style="fill:#ce1126"
     d="m 2,-2.3224609 -0.1853906,0.089453 -0.032598,0.015762 -0.00863,0.00875 -0.046016,0.021113 -0.010215,0.011152 -0.1192382,0.03793 -0.083633,0.01543 -0.045547,-9.8e-5 -0.1970313,-0.02834 -0.027852,9.8e-5 -0.033672,9.8e-5 -0.017656,-0.00523 -0.055195,-0.00227 -0.048906,-0.010996 -0.157793,-0.021816 -0.1223047,-0.00312 -0.1277148,0.00871 -0.0494141,0.00867 -0.0303906,-0.00266 -0.0616992,-0.019805 -0.2291993,-0.073535 -0.0455859,-2e-5 -0.0208594,-0.00516 -0.1291797,0.021719 -0.1088476,0.030215 -0.059082,0.00258 -0.011836,0.00805 -0.042207,0.00135 -0.0121094,3.711e-4 -0.0650391,-0.018516 -0.0448632,-0.00395 -0.0462891,0.00236 -0.0373047,0.014004 -0.08375,0.051699 -0.1163867,0.058555 -0.0212695,0.017676 -0.045918,0.022012 -0.007793,0.00953 -0.0759375,0.042168 -0.1101367,0.049863 -0.0394531,0.024258 -0.029082,0.024863 -0.0301368,0.012324 -0.02,0.00102 -0.2457617,0.012422 -0.090664,0.02127 -0.043906,0.00318 -0.0073,-0.00695 -0.045313,-0.00543 -0.079609,-0.00951 -0.034258,0.00453 -0.014219,0.00814 -0.079512,0.01875 -0.029531,0.00133 -0.035957,-9.18e-4 -0.1580078,-0.028125 -0.00955,-0.0017 -0.071953,-0.00256 -0.024649,0.00598 -0.060176,0.027031 -0.05584,0.044258 L -2,-1.7805273 c 0.062958,0.024261 0.085193,-0.065712 0.1492578,-0.041211 0.017001,0.0065 0.1546056,0.1091886 0.1802149,0.1281641 0.010824,0.00803 0.026076,0.027443 0.033047,0.039063 0.015014,0.025031 0.011782,0.040041 0.045039,0.049023 0.060995,0.016495 0.059359,-0.020801 0.096094,-0.018008 0.041984,0.021022 0.1106279,0.065505 0.1261719,0.1121484 0.004,0.011992 0.00395,0.026393 0.00803,0.039023 0.026886,0.023177 0.060806,0.02949 0.08709,0.054063 6.983e-4,0.03606 0.02684,0.072321 0.035039,0.1071289 0.017458,0.017422 0.037197,0.00701 0.057051,0.00701 0.034049,0 0.05079,0.026334 0.077109,0.04207 l 0.019023,-0.00102 c 0.012293,-0.012329 0.018161,-0.029271 0.032031,-0.040059 0.032617,-0.00992 0.0721097,0.015144 0.103125,-0.00701 0.02036,-0.014544 0.0249102,-0.046148 0.0360352,-0.053047 0.016314,0.01629 0.0436267,0.032071 0.0660937,0.018008 0.018253,0.00447 0.0317352,0.018139 0.0510352,0.019043 0.02632,0.00123 0.046151,-0.00604 0.06875,-0.017344 0.1073014,-0.053675 -0.0243664,-0.1105449 0.0503906,-0.2009179 0.0408279,-0.00832 0.0409584,-0.051151 0.0600781,-0.077109 0.0265725,0.065317 0.0273056,0.077609 -0.0330273,0.1191601 -0.0205283,0.029281 0.003543,0.099688 0.040039,0.1091407 0.0124374,-0.00179 0.0245117,-0.00799 0.0340235,-0.016035 0.0177712,-0.015026 0.0240804,-0.038083 0.0380469,-0.056035 0.0102461,-0.01316 0.2391514,-0.1906733 0.2563086,-0.1992578 0.0104508,-0.00523 0.0256247,-0.00839 0.0370507,-0.011016 0.0448494,0.017314 0.0532935,-0.00507 0.0904493,-0.0067 0.0356507,-0.00155 0.0744539,0.021495 0.1077929,-0.00232 0.0514835,-0.036782 0.078167,-0.1413076 0.1241602,-0.1591992 0.0188066,-0.00731 0.0403972,-0.00746 0.0600586,-0.014023 0.0298354,-0.00993 0.0711048,-0.017484 0.1011328,-0.005 l -0.008027,0.010996 c -0.0242006,0.00626 -0.0518167,0.012402 -0.0750781,0.021035 -0.0110648,0.00411 -0.0223673,0.013833 -0.0330469,0.017012 -0.0189752,0.00565 -0.0391657,0.00149 -0.0550586,0.018047 -0.0243451,0.025356 -0.0426738,0.1328196 -0.1001171,0.158164 -0.0341096,0.01505 -0.0762692,-0.00362 -0.1111133,0.00402 -0.0413939,0.019469 -0.042286,0.049807 -0.0721094,0.071094 -0.0235744,0.016844 -0.056625,0.025141 -0.0820898,0.039023 -0.0405511,0.022118 -0.0623895,0.050111 -0.1114649,0.076094 -0.005924,0.00314 -0.0137068,0.00747 -0.0186914,0.012031 -0.005201,0.00477 -0.0104348,0.012164 -0.0143359,0.018027 -0.015616,0.023418 -0.0228064,0.079071 0.00332,0.098105 0.001469,0.017699 0.003711,0.045855 -0.006992,0.061074 -0.00903,0.00816 -0.02946,0.011837 -0.0410547,0.010019 -0.008247,-0.00709 -0.0140595,-0.024552 -0.0140234,-0.035039 0.005743,-0.00938 0.008882,-0.027331 0.006016,-0.038047 l -0.0120117,-0.011035 -0.0200391,0.00502 c -0.0137859,0.021154 -0.0368629,0.027329 -0.0560547,0.041055 -0.003696,0.00264 -0.007741,0.00773 -0.0110156,0.010996 -0.0217926,0.021793 -0.0446998,0.035392 -0.0670703,0.055078 -0.0332789,0.029281 -0.0332177,0.1090123 -0.0550586,0.1541992 -0.0137016,0.028306 -0.0413405,0.037721 -0.0550781,0.063066 l 0,0.0100195 c 0.0574072,0.06439 0.0674892,0.1254754 0.0580859,0.2092383 0.0159531,0.00881 0.0268835,0.0270106 0.0280273,0.0450586 -0.008681,0.011486 -0.0112261,0.0310415 -0.007012,0.0443945 0.0331463,0.1049054 0.1496407,0.007607 0.2052539,0.0947657 0.0304615,0.0343986 0.0203295,0.0884644 0.0460352,0.123164 0.0466554,0.0629818 0.0843467,0.0510143 0.1361914,0.0760938 0.0247424,0.0119678 0.0453534,0.0358251 0.0720703,0.0460351 0.0452708,0.0173136 0.1455437,-0.0112689 0.1682031,0.002012 0.044428,0.0260427 0.0480308,0.0992469 0.1301563,0.0760938 0.0734928,-0.020733 0.0262449,-0.0901916 0.2042578,-0.1191602 0.0706393,-0.0114983 0.2303557,0.0202435 0.2583008,0.014043 0.0348441,-0.007754 0.1392005,-0.1082651 0.1401758,-0.1461914 2.29e-4,-0.008898 -0.0273324,-0.0807338 -0.0330274,-0.0891016 -0.005081,-0.007465 -0.0153642,-0.0131743 -0.0210351,-0.0220117 0.0297029,0.011113 0.047656,0.0433357 0.0650781,0.049043 l 0.0170312,-0.003984 0.006992,-0.0160351 -0.009004,-0.0160157 0.002012,-0.0170312 c 0.007645,0.0023 0.0315589,0.005938 0.0390235,0.004023 0.0217927,-0.005599 0.0383184,-0.0293604 0.0610742,-0.0360547 0.0282581,-0.00831 0.103275,-0.0178273 0.1181445,-0.0430273 0.002083,-0.018819 -1.1e-4,-0.042082 0.009004,-0.059082 l 0.0140235,-0.001016 c 0.004732,0.012076 0.0147525,0.0355461 0.0240234,0.0440821 0.0201431,0.018542 0.0856046,0.0296202 0.1121289,0.0270312 0.020793,-0.00202 0.032886,-0.0146135 0.051055,-0.0200195 0.042237,-0.012558 0.099535,-0.0105628 0.1321875,0.0220312 -0.00216,0.012931 -0.00273,0.0270111 -0.00102,0.0400391 0.017807,0.0287036 0.047429,0.0114217 0.073086,0.0120117 0.013882,3.13e-4 0.027844,0.003934 0.042051,0.004004 0.035362,-0.015411 0.044166,-0.0849748 0.092109,-0.0620508 l 0.005,0.0190039 c -0.00976,0.037481 -0.028402,0.0361164 -0.038047,0.0560547 -0.012124,0.0250554 -0.00595,0.0661376 -0.038047,0.0781055 -0.00828,-0.005093 -0.017294,-0.0178086 -0.020039,-0.0270313 -0.019312,-0.01322 -0.1382212,0.0347354 -0.1451563,-0.0760937 -0.036048,-0.038769 -0.08803,-0.0215426 -0.1284961,-0.001309 -0.036301,0.018144 -0.081405,0.0256342 -0.1148047,0.0463672 -0.0159411,0.009909 -0.0624347,0.0545298 -0.0741015,0.0700977 -0.0100896,0.0134487 -0.0129904,0.0325216 -0.0230079,0.0460546 -0.0168682,0.0227798 -0.0357998,0.0424965 -0.0510546,0.0670704 -0.015303,0.0246581 -0.0163178,0.0575345 -0.0370508,0.0800976 -0.0324722,0.0352896 -0.0511,0.008789 -0.0960938,0.0931055 -0.0239237,0.0462099 -0.0104377,0.0845854 -0.0240429,0.1191406 -0.007946,0.0201431 -0.0226368,0.0400993 -0.0330274,0.0590625 -0.0187705,0.0341939 -0.0593152,0.1293682 -0.0660937,0.1662109 -0.004936,0.0268614 0.005019,0.0519684 0.005019,0.0787696 0,0.0192401 -0.007417,0.049353 0,0.0664257 C 0.6387278,0.2561015 0.6688067,0.1518624 0.7253711,0.1426758 0.753569,0.1380888 0.7840933,0.1491201 0.8044531,0.1226562 0.839827,0.076663 0.7275152,-0.0551001 0.8825195,-0.0545703 0.897076,-0.0164514 0.8370034,0.0326741 0.8504883,0.0925977 0.8615531,0.1418177 0.9511689,0.1419927 0.9736719,0.1036328 0.9891675,0.0771687 0.9754701,0.041858 0.9926758,0.0135156 1.0198864,-0.0312856 1.0579502,-0.0593101 1.0817773,-0.110625 c 0.023334,-0.0502434 -0.011086,-0.1205264 0.043047,-0.1591992 0.029522,-0.0210942 0.050736,-0.006836 0.074082,-9.96e-4 0.024478,0.006128 0.049656,0.003641 0.06709,0.0280469 0.00927,0.0129792 0.013074,0.0323694 0.030039,0.040039 0.016688,0.007525 0.042484,0.001924 0.059063,-0.004023 l 0.018008,0.006016 -0.006,0.0160156 c -0.030774,0.0242728 -0.082724,0.0148441 -0.1071289,-0.0140039 -0.032484,-0.0126662 -0.052355,-0.0669683 -0.1141211,-0.0270312 -0.032484,0.0391544 -0.00484,0.0761652 -0.00904,0.118125 -0.00147,0.0146648 -0.032992,0.0820394 -0.041035,0.098125 -0.014352,0.0287156 -0.05114,0.1783049 -0.046035,0.20625 l 0.013008,0.006992 c 0.025718,-0.003191 0.2104205,-0.1304519 0.2573047,-0.1531836 0.096947,-0.0470046 0.243297,-0.015614 0.324375,-0.0600781 0.03417,-0.0187344 0.059132,-0.0586031 0.092109,-0.0740626 0.05341,-0.0250312 0.061363,-0.0182943 0.1111132,-0.0600976 0.024827,-0.0208534 0.041685,-0.0547161 0.063105,-0.0780859 0.01015,-0.0110648 0.028553,-0.0210269 0.040039,-0.0320313 0.016375,-0.0156882 0.023685,-0.0383701 0.041035,-0.0530469 0.00261,-0.002205 0.00536,-0.004081 0.00816,-0.00582 l 0,-2.0097852 z m -1.0682227,1.6435351 c -0.0252435,0.00117 -0.0441696,0.0173197 -0.0699414,0.0279297 -0.043814,0.0180481 -0.1078189,0.0333747 -0.108457,0.092793 0.0472213,0.0152427 0.0703037,-0.0410306 0.103125,-0.0600781 0.0238514,-0.0138461 0.0978635,-0.0279772 0.103125,-0.0560547 -0.0103003,-0.00371 -0.019437,-0.00497 -0.0278516,-0.00459 z m -1.5054101,0.0908985 -0.0101758,0.0111523 -0.002227,0.0989844 -0.0330664,0.1583984 -0.0186718,0.04375 -0.0157813,0.0369336 -0.0321289,0.0327344 -0.0277148,0.009121 -0.00377,0.0126367 0.0160547,0.005996 0.037461,1.37e-4 0.0441601,0.0180859 0.0378711,-0.0233984 0.0438281,4e-5 0.0376758,0.0119336 0.0556836,0.0391015 0.009746,-0.001035 0.007754,-8.2e-4 0.0189258,-0.0113282 0.0223437,4.1e-4 0.0208985,0.009863 0.0191406,0.00125 0.0609375,-0.0261524 0.0124609,-0.0159179 0.005449,-0.0226368 0.002734,-0.01125 0.0125391,-0.0127734 0.0229492,-0.009805 0.0246875,-0.001973 0.0197852,-0.007402 0.007832,-0.008769 0.002168,-0.0110352 -0.005742,-0.0116992 -0.047832,8.01e-4 -0.039961,-0.006387 -0.015293,-0.006816 -0.0568164,-0.0587305 -0.0129101,-0.007637 -0.0103711,-0.001387 -0.0285352,0.00832 -0.0220898,0.0137304 -0.0135938,-5.66e-4 -0.001719,-0.007813 0.0100586,-0.0182422 0.0243555,-0.0208007 0.005352,-0.011875 -0.005,-0.0124805 -0.0366601,-0.0237109 -0.0189844,-0.0122461 -0.0244141,-0.0286524 -0.0274805,-0.0427929 -0.0299218,-0.046543 -0.0187305,-0.022461 -0.0232617,-0.008242 z m 1.1047461,0.2330468 c -0.0317654,-0.00176 -0.0591853,0.0187375 -0.0900977,0.0230469 -0.0289324,0.004033 -0.0619643,0.002083 -0.0911133,0 -0.0129431,-9.27e-4 -0.0252842,-0.003265 -0.0380468,9.96e-4 l 0.001016,0.0180273 0.0100195,0.0150196 0.0200196,0.003008 c -0.0561189,0.0256213 -0.0614697,0.009972 -0.0950977,0.0230469 -0.0524106,0.0203839 -0.0724007,0.0560546 -0.1391992,0.0560547 -0.0697604,0 -0.065543,-0.0409705 -0.1605274,-0.0280274 -0.0144722,0.001975 -0.0341191,0.00465 -0.0447265,0.0160156 0.001433,0.0124254 0.0073127,0.0291877 0.0070117,0.0410352 -4.82e-4,0.0190715 -0.0170205,0.0332002 -0.0180078,0.0530664 0.004611,0.017121 0.0182737,0.0360824 0.0200195,0.0530469 0.007344,0.0715904 -0.0132417,0.0518143 0.0540625,0.0851172 0.0134488,-0.00236 0.0273891,-0.0039155 0.0410547,-0.0040235 0.0151946,0.009138 0.0325424,0.0137172 0.0470508,0.0240235 -0.005262,0.009921 -0.0055676,0.0288645 -0.0010156,0.0390625 0.00909,0.0146287 0.0308314,0.018661 0.0460742,0.0240429 0.0212146,0.0198059 0.0139604,0.0479604 0.0330078,0.0640821 0.007946,0.00673 0.02372,0.0127354 0.0340625,0.0129882 0.0266809,6.5e-4 0.0475346,-0.0185528 0.0760937,-0.0170117 0.0365176,0.001987 0.0680952,0.0121901 0.1060938,0.009023 L 0.3628906,0.1466405 c 0.005298,-0.009488 0.0064,-0.020168 0.007363,-0.0307031 5.42e-4,-0.00608 0.0178532,-0.1247835 0.0186719,-0.1274805 0.004888,-0.0160013 0.0196593,-0.0331816 0.0220312,-0.0490625 0.002083,-0.0138943 -0.001982,-0.0274054 0.001992,-0.0420703 0.019228,-0.0267892 0.0534427,-0.0370413 0.0721289,-0.0710547 0.006466,-0.0117872 0.0266997,-0.0909863 0.0290235,-0.0931054 L 0.509082,-0.2858595 C 0.50193,-0.2934565 0.4893086,-0.3007837 0.4790625,-0.3028907 l 0.001992,-0.0120117 C 0.4944673,-0.326798 0.5126821,-0.332064 0.5281055,-0.3409376 l 0.003008,-0.014043 z m -0.0188477,0.2262696 c -0.0362984,0.002639 -0.05238,0.0533321 -0.0652539,0.0811132 l 0.007012,0.0190235 0.0159961,0.0060156 c 0.0385886,-0.0142434 0.0822592,-0.0614149 0.0590821,-0.1041211 -0.006061,-0.00179 -0.0116511,-0.002408 -0.016836,-0.002031 z M 2,0.2156836 c -0.014385,0.0169854 -0.027089,0.0350456 -0.02918,0.0521289 l 0.024023,0.0480664 C 1.9943378,0.329713 1.9892681,0.3437422 1.9888281,0.3569141 1.9885331,0.365878 1.9958275,0.3770853 2,0.3895508 L 2,0.2156836 Z M 1.7648828,0.3261133 c -0.013543,4e-5 -0.026638,0.006274 -0.034043,0.0184375 -5.9e-4,0.0107277 0.00196,0.0307759 0.00857,0.0399023 0.024321,-2.17e-4 0.037826,-0.0252203 0.046328,-0.0446289 l -0.00736,-0.0116601 c -0.00442,-0.001379 -0.00898,-0.002063 -0.013496,-0.002051 z M 0.6352344,0.6502539 0.6192188,0.6572656 C 0.6101887,0.6777217 0.6044235,0.7044567 0.5911914,0.7223242 0.549954,0.7779856 0.4887471,0.761769 0.4670508,0.7874023 0.4617888,0.8011762 0.4643626,0.8144411 0.4610156,0.8274805 0.4550316,0.8507299 0.4229423,0.8552441 0.4069531,0.8695117 l -9.96e-4,0.0160156 C 0.4351905,0.9219968 0.3843426,0.9530235 0.3939259,0.9916602 L 0.3829298,1.004668 c -0.0156762,0.00984 -0.0386536,7.36e-4 -0.0570508,0.00701 -0.0219973,0.022395 -0.0130298,0.060087 -0.0350391,0.082109 -0.0275718,0.02756 -0.1191557,0.046802 -0.1251757,0.090098 l 0.007012,0.016016 c 0.0212989,0.00492 0.0432438,-0.00673 0.0630859,0.00201 0.0147732,0.00793 0.020035,0.031185 0.0250195,0.046055 0.0144964,0.012076 0.0372709,0.01209 0.0550782,0.016016 l 0.0130078,0.012012 0.0100195,0.036035 c 0.0152428,-0.00311 0.0182159,-0.011581 0.0290039,-0.019023 0.0158809,-0.010968 0.0364346,-0.00932 0.053086,-0.019023 0.007224,-0.00836 0.0136678,-0.021263 0.0160156,-0.032051 l 0.0140039,-0.01002 0.0170312,0.00701 0.007012,0.016035 0.0180078,0.00602 0.0160156,-0.00803 c 0.003925,-0.0108 0.009509,-0.021583 0.0160352,-0.031035 l 0.0119921,0.011016 0.004023,0.021035 0.0120117,0.010996 0.0220117,0.00203 c 0.00472,0.00936 0.0143946,0.01924 0.0230274,0.025019 0.0832091,0.011944 0.0773099,-0.052304 0.1271679,-0.084102 0.0217444,-0.00663 0.0415749,0.00508 0.0630664,-0.00301 L 0.797422,1.1908789 C 0.8017811,1.1613326 0.7801639,1.1516345 0.7653907,1.1318164 0.7641747,1.1268314 0.7481909,0.9596565 0.7483595,0.9575977 c 0.0121364,-0.001854 0.0242433,-0.004733 0.0360547,-0.008008 0.006116,-0.009885 0.00734,-0.0290149 0.00498,-0.0400195 L 0.8004298,0.8975391 0.7883985,0.8855273 0.7713868,0.8885156 0.7593751,0.8775 0.7623829,0.8584766 0.7774024,0.848457 0.7833985,0.8314453 0.7703907,0.8204297 C 0.7664777,0.8008646 0.7802976,0.7851697 0.7793946,0.7653516 0.7642482,0.7607766 0.7447934,0.7529884 0.7383399,0.7373242 L 0.7243165,0.7713867 C 0.6888102,0.7892421 0.6749803,0.7493883 0.6552345,0.7313281 0.6526945,0.7072239 0.6602528,0.6837529 0.6482618,0.66125 L 0.6352345,0.6502539 Z M 2,0.7061914 c -3e-5,4e-5 -9e-5,1.01e-4 -1.17e-4,1.37e-4 -0.018072,-6.26e-4 -0.039033,0.008504 -0.049063,0.0240235 l 0.00102,0.0230273 -0.01002,0.0140039 c -0.011053,0.001252 -0.028572,-0.001859 -0.038047,-0.007988 -0.00943,0.003552 -0.020479,0.009172 -0.025019,0.0140235 -0.011113,0.006165 -0.026493,0.009936 -0.039063,0.0109961 -0.0193,0.0298233 -0.02746,0.0599326 -0.056055,0.0841211 -0.019276,0.0163264 -0.067044,0.029785 -0.076074,0.0410546 0.00193,0.0184695 0.017996,0.0315904 0.012988,0.0510352 0.015676,0.005635 0.038724,-0.002574 0.050078,-0.0140234 l 0.022012,0.002031 c 0.013521,0.0103906 0.021562,0.0254881 0.035059,0.0360352 l 0.019024,0.004004 C 1.8616,0.9801602 1.8711053,0.9657873 1.8847463,0.9556253 l 0.014004,0.0120312 c 0.00453,0.0126421 0.00704,0.0266866 0.00803,0.0400391 l 0.020039,0.00301 C 1.9454546,0.9977121 1.9645703,0.9849482 1.9828713,0.97168 l 0.006,-0.0170313 0.011133,-0.002129 0,-0.0411523 C 1.979726,0.8909304 1.9679326,0.9096504 1.9388088,0.8955667 l -0.00299,-0.0170117 0.00799,-0.0140235 c 0.0197,-0.005997 0.037927,5.38e-4 0.056191,0.00584 l 0,-0.1641797 z m -2.4931055,0.0411719 c -0.0136655,0.0172655 -0.0231675,0.03916 -0.0410351,0.0530664 -0.008789,0.006839 -0.0207395,0.0113376 -0.0300586,0.0180078 -0.0406233,0.0290166 -0.0835733,0.0755355 -0.1361524,0.0821094 -0.0419237,0.005249 -0.0570288,-0.0312968 -0.0800976,-0.0320313 -0.018855,-5.9e-4 -0.0321313,0.0149609 -0.0520703,0.0120117 C -0.8392095,0.8747003 -0.857802,0.8670424 -0.866543,0.8675 c -0.027752,0.001433 -0.040989,0.0277733 -0.064082,0.0330469 -0.018554,0.004238 -0.0384688,-1.42e-4 -0.0520508,0.0180273 l -0.002012,0.0159961 0.0260352,0.0220313 -0.001992,0.0160156 c -0.00418,0.003227 -0.007263,0.008669 -0.0100196,0.0130273 l -0.001016,0.0160157 c 0.00686,0.00975 0.0112657,0.025288 0.0120117,0.037051 -0.00728,0.015423 -0.0133169,0.032909 -0.0140039,0.050078 0.028282,0.010126 0.0529401,-0.00159 0.0800781,-0.00803 0.0165191,-0.012233 0.0161068,-0.028991 0.0270508,-0.043066 0.012221,-0.015724 0.0467897,-0.016409 0.0660547,-0.034023 l 0.0150195,0.00801 c -0.00172,0.020264 0.0110442,0.035312 0.0260352,0.047051 l 0.0210352,0.00102 c 0.0149899,-0.00949 0.0253871,-0.024264 0.0420507,-0.031055 0.002131,7.34e-4 0.0509793,0.041277 0.0520508,0.043047 0.006357,0.010619 0.003827,0.021275 0.0160352,0.032051 l 0.0200195,0.004 c 0.0234902,-0.00745 0.033926,-0.029111 0.0450391,-0.049063 l 0.0170117,-0.00803 c 0.0251156,0.011884 0.0659824,0.027977 0.0921094,0.014023 0.002938,-0.025766 -0.0115589,-0.0664606 0.0130273,-0.0871094 0.008284,-0.006971 0.020198,-0.009327 0.0290235,-0.0180078 0.006622,-0.0172775 0.00149,-0.041181 0.0140234,-0.0550391 l 0.0190234,-0.004023 c 0,-0.041093 0.005713,-0.0539576 0.0210156,-0.0911133 -0.001601,-0.0114983 -0.009465,-0.0369513 -0.02,-0.044043 -0.0127023,0.004876 -0.0265855,0.008231 -0.0400585,0.01 -0.0176146,-0.008284 -0.0335178,-0.0140077 -0.0530469,-0.007988 l -0.0220313,-0.020039 z m 0.3427735,0.2137305 0,2e-5 c -0.0168903,6.24e-4 -0.0275415,0.0127998 -0.043418,0.0175195 -0.021335,0.006345 -0.0419722,-0.001596 -0.0630664,0.007988 -0.0102581,0.004672 -0.0177679,0.0154037 -0.0270508,0.0200391 -0.0235986,0.011799 -0.0561994,0.00307 -0.0810742,0.018008 -0.0255731,0.015351 -0.0256345,0.062058 -0.059082,0.082129 -0.0357953,0.021467 -0.1299965,0.060763 -0.1441797,0.096113 8.43e-4,0.00957 0.009164,0.024513 0.0180273,0.029004 0.0236588,-0.0026 0.0613249,-0.01495 0.0831055,-0.006 l 0.0130273,0.012012 c 0.021612,3.97e-4 0.0334818,-0.016637 0.0530469,-0.022031 0.005538,0.00945 0.0119922,0.018671 0.0190234,0.027051 0.0272347,0.013076 0.0487257,-0.013715 0.0740821,-0.015039 0.024646,-0.0013 0.0478553,0.020508 0.069082,-0.006 8.55e-4,-0.00803 -0.003445,-0.021842 -0.0100195,-0.027031 l 0.008027,-0.014023 c 0.0119438,0.00171 0.0273567,0.0016 0.0390235,-0.00199 0.0261511,-0.028619 0.0266754,-0.041759 0.0420507,-0.075098 l 0.0140235,-0.009 0.0100195,0.013008 0.0140039,-9.96e-4 c 0.00767,-0.00594 0.0155997,-0.018728 0.0180078,-0.028047 -0.00419,-0.011125 -0.007595,-0.023204 -0.009004,-0.035039 0.005418,-0.010294 0.0114295,-0.020442 0.0180274,-0.030039 l 9.96e-4,-0.0210156 -0.01,-0.0140234 c -0.0126782,-0.001433 -0.0254181,-0.0147963 -0.0390235,-0.0170117 -0.002702,-4.38e-4 -0.005243,-5.97e-4 -0.007656,-5.08e-4 z m 1.7487109,0.0616015 c -0.038048,0.00441 -0.029884,0.032511 -0.095117,0.022051 l -0.016016,0.00799 c -0.00732,0.034808 -0.014361,0.072687 -0.051035,0.089121 L 1.417168,1.137832 1.4051562,1.1248242 c -0.022732,0.00887 -0.036918,0.028339 -0.06207,0.033047 l -0.00902,0.013984 c 0.00643,0.028126 0.048321,0.03531 0.069102,0.050059 8.43e-4,0.00956 0.00914,0.024552 0.018008,0.029043 l 0.019023,0.004 c 0.016712,-0.011559 0.037976,-0.00652 0.054062,-0.018008 0.016266,-0.011619 0.016035,-0.029578 0.028027,-0.044063 0.015869,0.00804 0.016456,0.030988 0.028027,0.044063 0.028643,-0.00338 0.034566,-0.028404 0.049063,-0.048066 C 1.61522,1.1808467 1.634888,1.178675 1.648457,1.166875 1.645817,1.149417 1.6357631,1.1343944 1.6344141,1.1168164 l 0.011035,-0.012031 -0.00803,-0.016035 c -0.010944,0.00432 -0.030134,0.00455 -0.041055,0 l -0.006,-0.014004 c 0.013063,-0.011944 0.023981,-0.028155 0.026016,-0.046035 l -0.017988,-0.00602 -2e-5,0 z m -2.216543,0.2416211 0,2e-5 -0.0134765,0.00256 -0.005469,0.00639 0.0177149,0.057813 0.0113476,0.01002 0.0110157,-0.00572 0.00793,-0.047246 -0.009043,-0.016328 -0.0200196,-0.0075 z m 0.8248829,0.013672 c -0.0355786,0.00513 -0.0543409,0.0565 -0.093086,0.021055 l -0.019043,0 c -0.0185176,0.012859 -0.0339193,0.030642 -0.0480664,0.048027 -0.0214193,0.01139 -0.0540234,-0.00544 -0.0800781,0 -0.0254046,0.021154 -0.0466369,0.027204 -0.0470703,0.066094 l 0.0080273,0.016016 c 0.0103184,0.00588 0.0252198,0.00959 0.0370313,0.00998 l 0.0100195,0.015039 -0.0070117,0.015996 0.0040039,0.020039 0.0190235,-0.005 0.0110351,-0.012012 c 0.003817,-0.018181 0.0067765,-0.053473 0.0280273,-0.060059 0.0029381,0.011209 0.004113,0.023448 0.004004,0.035019 0.0378542,0.036506 0.0787747,-0.020534 0.1060937,-0.040039 l -0.005,-0.019023 0.006016,-0.016016 0.0130078,-0.01002 0.0180274,0.00602 c 0.005707,0.015399 0.008188,0.039263 0.0210351,0.050039 l 0.0220118,0.00201 c 0.007934,-0.00594 0.015836,-0.019499 0.0180273,-0.029023 -0.005262,-0.020396 -0.009529,-0.063007 -0.001016,-0.08209 -0.009163,-0.00908 -0.0190356,-0.020529 -0.0250195,-0.032051 z M 0.455293,1.4056641 c -0.0265855,3.48e-4 -0.0543314,0.014544 -0.0643555,0.038516 l 0.008008,0.016035 C 0.4218455,1.4815738 0.4865516,1.4716094 0.504082,1.4461914 0.502336,1.4361864 0.4962991,1.4215576 0.4890625,1.4141406 0.4792265,1.4081906 0.4673774,1.4055141 0.455293,1.4056641 Z M 0.9766602,1.442168 C 0.9603098,1.445598 0.9263894,1.461359 0.9135547,1.472207 0.8965059,1.486631 0.8843275,1.5079496 0.8675195,1.5222656 0.8413444,1.5445876 0.774043,1.6109492 0.7844336,1.648418 l 0.0120117,0.011016 c 0.0609711,0.014147 0.0534938,-0.048797 0.0860742,-0.07207 0.00962,-0.00685 0.0236028,-0.00925 0.0330664,-0.016016 0.0217805,-0.015556 0.0720352,-0.091322 0.068086,-0.1171485 L 0.9766602,1.442168 Z m 0.256289,4e-5 c -0.00803,0.00119 -0.058795,0.02506 -0.068066,0.03002 -0.013461,0.00721 -0.022074,0.022139 -0.039063,0.027051 -0.012955,0.00373 -0.026162,7.15e-4 -0.036035,0.013008 -0.00566,0.018891 -0.00187,0.039359 -0.011016,0.05707 -0.015712,0.030437 -0.047259,0.028279 -0.033027,0.07709 0.019794,0.016098 0.046787,0.044183 0.074082,0.043027 0.011739,-0.00303 0.019972,-0.011651 0.028027,-0.02002 0.045078,-0.04698 5.72e-4,-0.071782 0.021016,-0.1251562 0.013172,-0.013268 0.033529,-0.011931 0.046074,-0.02502 0.011607,-0.012112 0.016525,-0.029729 0.029023,-0.04207 l -9.96e-4,-0.020996 -0.01002,-0.014004 z m -0.9029101,0.090254 c -0.0349907,-2.09e-4 -0.101429,0.011667 -0.1213086,0.025879 -0.0138822,0.00992 -0.0187235,0.032118 -0.0210352,0.048047 l -0.0150195,0.00502 C 0.1644408,1.6056473 0.1559509,1.5954537 0.1516406,1.5863877 l -0.0170117,0.00299 -0.01,0.01502 C 0.1049192,1.6056755 0.0801711,1.586452 0.0655664,1.574376 l -0.0210352,0.00301 -0.005996,0.016992 c 0.001926,0.010631 0.0083823,0.024285 0.0160156,0.032051 l -0.0070117,0.010976 -0.0190235,-0.00299 -0.0120117,0.012031 c 0.007934,0.026621 0.0302776,0.023377 0.0270508,0.065059 l 0.0099805,0.013027 c 0.0288842,-9.27e-4 0.0548265,-0.011763 0.0821093,-0.013027 0.0133525,-6.26e-4 0.0261689,0.00283 0.0400391,0.00102 0.0128107,-0.011763 0.0430294,-0.05376 0.0470508,-0.070098 l 0.0170312,-0.00799 c 0.014701,0.016639 0.0442279,0.031173 0.0640821,0.014004 0.0231651,0.00662 0.0722686,0.027074 0.0930859,0.014023 l 0.0100195,-0.012012 -0.006992,-0.017012 -0.0130468,-0.01002 -0.001992,-0.017031 0.0160156,-0.00799 0.001016,-0.030039 c -0.0174942,-0.00267 -0.0378074,-0.0081 -0.0520508,-0.019024 l -0.006992,-0.016035 c -0.003487,-5.53e-4 -0.007873,-8.1e-4 -0.0128711,-8.4e-4 z m -0.4537305,0.023887 -0.0140039,0.00998 -0.006992,0.017031 0.005996,0.014023 c 0.0213712,9.15e-4 0.0427756,0.00165 0.0640625,0.004 l 0.0070117,-0.012031 c -0.00708,-0.015652 -0.0396997,-0.032202 -0.0560742,-0.033008 z m 1.554082,0.015957 0,2e-5 -0.00709,0.00324 -0.019238,0.041894 0.0065,0.00932 0.014316,0.00137 0.016582,-0.00809 0.011191,0.00217 0.00389,-0.00477 -0.00504,-0.017988 0.00301,-0.010254 -0.00971,-0.011641 -0.014414,-0.00527 z m -0.6996875,0.075078 0,2e-5 -0.022832,0.015293 9.57e-4,0.010176 0.009629,0.00455 0.0237696,-0.00664 0.00459,-0.010293 -0.005742,-0.010879 -0.0103711,-0.00223 z m 0.648086,0.034844 -0.020488,0.011289 -0.015625,0.019102 -0.00135,0.013359 0.020996,0.02168 0.00937,-0.011152 0.014414,-0.04416 -0.0073,-0.010117 -2e-5,0 z m -1.6838282,0.00221 c -0.0104242,5.1e-4 -0.0254291,0.00534 -0.0309179,0.013086 -0.005563,0.010559 -0.009599,0.024181 -0.0109961,0.036016 -0.0394193,0.031497 -0.0860052,0.025816 -0.0981055,0.04207 -0.003769,0.022286 -0.001291,0.045752 9.96e-4,0.068086 l -0.01,0.015 c -0.0425377,0.00403 -0.0469215,0.07171 -0.059082,0.1061328 l 0.0100195,0.00799 c 0.0213712,6e-5 0.0410678,-0.0091 0.0620898,-0.012012 0.0367825,0.00845 0.0364841,0.042229 0.0600586,0.059063 l 0.0220313,0.00102 c 0.009849,-0.00464 0.020568,-0.01462 0.0300195,-0.018027 0.0482086,-0.01741 0.1357017,0.01804 0.1972266,-0.00602 l 0.008008,-0.017012 c -0.006189,-0.017097 -0.0208307,-0.027951 -0.0270313,-0.045059 l 0.0100196,-0.017012 c 0.0272588,-0.012799 0.0563874,-0.022087 0.0810937,-0.039063 l 0.0039844,-0.010977 c 0.00891,-0.00355 0.0200216,-0.014378 0.024043,-0.023047 l -0.0060352,-0.019023 c -0.0130996,-0.00966 -0.031126,-0.010031 -0.0410351,-0.024023 -0.002011,-0.014195 -0.0028149,-0.028731 -0.0030079,-0.043047 l -0.01,-0.013027 c -0.0166755,-0.00849 -0.088793,-0.00925 -0.1081054,-0.006 C -0.212155,1.7280658 -0.2263045,1.717395 -0.2348048,1.702501 l -0.0180469,-0.00602 -0.0180078,0.00602 -0.030039,-0.018027 0,2e-5 c -0.001261,-1.07e-4 -0.002651,-1.32e-4 -0.004141,-6e-5 z m 1.8974024,0.00607 -0.022031,0.00299 c -0.00874,0.00559 -0.01828,0.01433 -0.024023,0.023047 l -0.013008,-0.00701 -0.00803,-0.016035 c -0.014111,-0.00201 -0.02518,0.00714 -0.038027,0.010703 -0.015929,0.00443 -0.037398,0.00648 -0.052051,0.012344 -0.022973,0.00917 -0.056246,0.053511 -0.066094,0.076074 -0.0097,0.00687 -0.020319,0.012894 -0.031035,0.018047 -0.010077,-0.00326 -0.029475,-0.00213 -0.038047,0.005 -0.00915,0.016904 -0.00816,0.041835 -0.004,0.060039 l -0.009,0.014043 -0.019023,0.006 c -0.00464,0.012317 -0.013684,0.016596 -0.021016,0.026035 -0.010704,0.013738 -0.011105,0.03287 -0.026035,0.044043 0.017097,0.00424 0.034921,1.86e-4 0.051055,0.00902 l 0.00902,0.014023 c -0.00425,0.019589 -0.00226,0.039774 -0.00803,0.059063 l -0.017012,0.00299 -0.015039,-0.00799 -0.018008,0.004 -0.010019,0.015019 c 0.014701,0.049641 0.021623,0.038696 0.024043,0.098125 l 0.009,0.012988 0.020039,0.004 c 0.031834,-0.010102 0.026717,-0.030455 0.044043,-0.051055 l 0.016016,-0.00301 c 0.00172,0.014159 0.00266,0.028798 0.00199,0.043066 l 0.017031,0.00102 0.006,-0.016055 0.014043,-0.010996 c 0.00743,0.00862 0.014336,0.018155 0.02002,0.028027 l 0.015996,0.00803 c 0.00749,-0.00666 0.014298,-0.018479 0.017031,-0.028027 l -0.00301,-0.022051 -0.010996,-0.012988 c -0.00898,-0.032617 0.017634,-0.063242 0.015996,-0.095137 l -0.01,-0.012988 -0.021035,-0.00402 c 0.0051,-0.016483 0.018167,-0.032018 0.035059,-0.037051 0.017398,0.00282 0.030561,0.019837 0.035039,0.036055 l 0.013008,0.00701 0.016016,-0.00803 0.00902,-0.015 c -0.00236,-0.011017 -0.00112,-0.030154 0.005,-0.040039 0.00945,-0.0033 0.02064,-0.015849 0.024023,-0.025059 l -0.00602,-0.018008 -0.013008,-0.010996 0,-0.014043 0.013008,-0.010977 c 0.017049,-3.73e-4 0.048336,-0.00339 0.061074,0.00998 0.00306,0.036566 -0.00985,0.06937 0.00102,0.1051172 0.014942,0.00112 0.03073,-0.00556 0.039375,-0.017676 0.036662,-0.051327 -0.012282,-0.08958 -0.021348,-0.1375 -0.00662,-0.035013 0.017115,-0.046061 0.023027,-0.069082 0.00543,-0.021118 -0.00671,-0.031302 -0.009,-0.050059 -0.00592,-0.00633 -0.014466,-0.01105 -0.022051,-0.015 l 0,-2e-5 z m -2.6822071,9.96e-4 c -0.020179,0.0049 -0.040774,0.00399 -0.061074,0.00801 l -0.012012,0.012012 c 0.00832,0.00213 0.0189,0.012146 0.022031,0.02002 -0.00524,0.020444 -0.0254,0.040305 -0.036055,0.059063 l 0.00102,0.014023 0.017031,0.00102 c 0.015556,-0.013401 0.043813,-0.025535 0.053047,-0.043066 0.034001,-0.021443 0.076771,-0.00227 0.1111328,0.00502 0.00572,-0.00566 0.0104778,-0.016639 0.0130078,-0.024043 l -0.005996,-0.014004 c -0.0579491,0.00485 -0.0669601,0.0047 -0.102129,-0.038047 z m 2.0545899,0.01168 c -0.003167,1.65e-4 -0.006217,5.85e-4 -0.009141,0.00131 -0.0542046,0.013545 -0.0655831,0.074231 -0.088086,0.1191406 l -0.020039,0.00602 c -0.0198902,0.020613 -0.0176786,0.091596 -0.0420117,0.1181446 -0.006839,0.00746 -0.0198596,0.014274 -0.0280469,0.021016 l 0.007012,0.016016 c 0.008091,0.0074 0.026633,0.010573 0.0370117,0.00902 -0.00431,0.0086 -0.004806,0.023853 -0.002988,0.033027 0.0286072,0.00791 0.0341088,0.034243 0.0550586,0.040059 0.0251036,0.00698 0.0337507,-0.00567 0.0540625,-0.013008 0.0372521,-0.013449 0.1163975,0.014418 0.1101367,-0.055078 -0.018975,-0.023755 -0.025557,-0.034131 -0.025039,-0.066074 l 0.014023,-0.011016 c 0.00247,-0.021263 -0.00798,-0.037927 -0.015,-0.05707 0.00212,-0.017735 0.00967,-0.036487 0.02,-0.051055 -0.00419,-0.010607 -0.00466,-0.029467 0,-0.040039 0.0094,0.00166 0.026042,-1.28e-4 0.034023,-0.00602 l 0.00303,-0.019023 c -0.00669,-0.00921 -0.012468,-0.0196 -0.017031,-0.030039 l -0.015,-0.009 c -0.022429,0.00334 -0.0498109,-0.00749 -0.0719727,-0.00633 z m -1.8463672,0.034043 c -0.00677,-4e-5 -0.0132034,6.44e-4 -0.0189844,0.00232 l -0.007988,0.015 0.002988,0.021055 0.01,0.004 0.0150391,-0.00803 c 0.015279,0.00246 0.0316878,0.00259 0.0470508,0.00102 l 0.0139844,-0.011035 -9.77e-4,-0.014004 c -0.017509,-0.00386 -0.0407868,-0.010248 -0.0610938,-0.010332 l -2e-5,0 z m 1.0573047,0.2926562 c -0.0185538,0.00131 -0.030952,0.01674 -0.039043,0.032031 l -0.0170117,0.00803 C 0.1126459,2.0612023 0.1059545,2.0521265 0.0996094,2.0428915 l -0.0190235,-0.004 c -0.0623557,0.03724 -0.016264,0.060092 -0.0220312,0.093106 l -0.01,0.014023 -0.0160352,0.004 -0.015,-0.01 -0.0070117,-0.016035 -0.0160351,-0.009 c -0.0179638,0.00819 -0.017685,0.029379 -0.0340235,0.039023 -0.0247905,0.00151 -0.0574098,0.00232 -0.0730859,0.025059 -0.011125,0.041755 0.0293388,0.0979 -0.002988,0.1221484 -0.0194327,0.014581 -0.0498403,0.022424 -0.0717773,0.034043 -0.0195531,0.010342 -0.0399759,0.028269 -0.063418,0.017012 l 0.002012,-0.016035 c 0.0141591,-0.022756 0.0427021,-0.0209 0.0630859,-0.034023 l 9.96e-4,-0.016016 -0.0160351,-0.00701 c -0.0304856,0.0024 -0.0595005,0.022205 -0.0850977,0.037051 -0.021624,0.012558 -0.0431401,0.015497 -0.0630664,0.033027 -0.0598514,0.052687 -0.009631,0.1324287 0.0460547,0.1632031 0.0201671,0.049521 0.0423301,0.039306 0.0770899,0.065059 0.031822,0.023575 0.0682866,0.063311 0.1111132,0.032031 l 0.0180078,0.00203 c -0.002649,0.01015 -6.59e-4,0.028482 0.0060352,0.037031 0.0131719,0.00337 0.0296221,0.00378 0.0430469,0.00199 l 0.0140234,-0.009 0.0019922,-0.017031 c -0.004226,-0.00703 -0.0149965,-0.015146 -0.0230273,-0.017012 0.009801,-0.00701 0.0425028,-0.060701 0.0460546,-0.073066 l 0.0160157,-0.00301 0.005,0.018027 c -0.004924,0.010475 -0.0111329,0.020693 -0.0180078,0.03 l 9.76e-4,0.018047 c 0.012931,0.012763 0.0193757,0.032218 0.0250586,0.049062 0.0544213,-0.011258 0.0531897,-0.046639 0.1191211,0.00199 0.0400815,0.00687 0.0522453,-0.013685 0.0821289,-0.031035 0.0106796,-0.00621 0.0212993,-0.00819 0.0310156,-0.017031 l 0.004023,-0.014004 C 0.2436723,2.5763461 0.2289387,2.5638393 0.2237494,2.5475009 l 0.005996,-0.016992 C 0.2468424,2.5227587 0.2652848,2.518473 0.2818158,2.509454 l 0.009004,-0.013984 c 0.002396,-0.017952 0.002559,-0.046597 -0.0130078,-0.059082 -0.001469,-0.027295 -0.009094,-0.069618 -0.0390625,-0.080117 l 0.004023,-0.014023 c 0.0108963,0.00315 0.030106,0.00203 0.0400391,-0.00398 l 0.002012,-0.022012 C 0.2787076,2.2920649 0.2504063,2.2837653 0.2297455,2.2761923 l -0.007012,-0.016016 0.008027,-0.014004 C 0.2231521,2.2041528 0.2061382,2.17476 0.2477728,2.1450204 0.2581153,2.1376404 0.2682946,2.1360978 0.2758197,2.1240048 L 0.2778119,2.1030087 0.268808,2.0869931 C 0.257406,2.0770731 0.2244935,2.0756447 0.2077338,2.0689267 0.2010398,2.0597067 0.1952537,2.0493461 0.1907025,2.0389071 L 0.175683,2.0298837 Z m 0.3431445,0.01459 c -0.0116018,-2.18e-4 -0.0188092,0.00507 -0.0297656,0.00947 -0.0285832,0.011426 -0.056439,0.00543 -0.0860937,0.00803 -0.008946,0.00393 -0.0198082,0.015808 -0.0230469,0.025019 l -0.0190039,0.006 -0.0170313,-0.00701 c -0.009512,0.00219 -0.0224592,0.012856 -0.0260351,0.022031 l -0.0189844,0.00602 c -0.006285,0.0083 -0.0166689,0.015813 -0.0220508,0.024023 -0.0105712,0.016146 -0.0132463,0.028157 -0.029043,0.042051 l -0.001992,0.021016 c 0.006285,0.016519 0.0212235,0.026709 0.0330469,0.039063 l 0.006992,0.036035 0.0140235,0.00902 c 0.0291491,-0.00543 0.0572818,-8.1e-4 0.0860937,-0.00402 -0.0405029,0.021227 -0.0566423,0.1125218 -0.034043,0.1501953 0.008536,0.014207 0.0288736,0.020599 0.0330274,0.034023 l -0.003984,0.014023 0.005,0.019023 0.0130078,0.01002 c 0.0123652,0.00395 0.0280337,0.0016 0.0390625,-0.00502 0.0152427,-0.00915 0.0122809,-0.013985 0.0190234,-0.027012 0.0230328,-0.044657 0.0646843,-0.081069 0.0891016,-0.1241601 0.008597,-0.01517 0.0192599,-0.056973 0.0180078,-0.074082 -0.003684,-0.050568 -0.0413668,-0.083228 -0.045039,-0.1251758 0.0134608,-0.037096 0.0531358,-0.071547 0.005,-0.108125 -0.00186,-2.76e-4 -0.003615,-4.18e-4 -0.005273,-4.49e-4 z m 0.1214063,0.026484 -0.0210156,0.012012 C 0.6119347,2.0963586 0.596695,2.1134316 0.592168,2.1270126 0.5775273,2.1708986 0.6093864,2.2495564 0.6452539,2.2771884 l 0.002969,0.016035 C 0.6198562,2.3179896 0.5464986,2.4308482 0.6102148,2.4533993 l 0.009004,-0.01502 c -0.001999,-0.010788 6.95e-4,-0.028824 0.006992,-0.038047 l 0.0140235,-0.010019 c 0.0180722,-0.00323 0.0590231,0.0038 0.0730859,0.016016 l 0.008008,0.016035 c -0.003191,0.011137 -0.008626,0.022387 -0.0150195,0.032031 -0.1148626,0.00279 -0.0565266,0.016796 -0.1041211,0.051074 -0.0255731,0.00684 -0.0506421,-0.00574 -0.0781055,0.00498 l -0.009004,0.01502 c 0.006899,0.00629 0.0133886,0.020636 0.0130274,0.030039 l -0.006016,0.012012 c 0.0324721,0.014304 0.0465922,-0.012254 0.0710938,-0.012012 0.007489,0.00762 0.0260704,0.010564 0.0360156,0.00902 0.007188,-0.00663 0.0213504,-0.012389 0.0310547,-0.013027 l 0.0160352,0.00701 c 0.005225,0.01375 0.0190979,0.030513 0.035039,0.031055 l 0.0170313,-0.00803 0.003984,-0.019023 c 0.0176508,0.011005 0.0593,0.00644 0.0730859,-0.01 0.0135812,0.00352 0.0280285,0.00546 0.0420312,0.00602 C 0.8796079,2.5385981 0.8814787,2.4827763 0.8675,2.4513876 0.8511375,2.4480776 0.8418118,2.4657458 0.8254492,2.4624228 0.7981182,2.4299628 0.7840674,2.348554 0.8124219,2.3142392 l 0,-0.019023 -0.0119922,-0.013027 c -0.00171,-0.013027 -0.001179,-0.027108 9.76e-4,-0.040039 -0.0115224,-0.00373 -0.0229344,-0.0081 -0.0340234,-0.013008 -0.015917,-0.030726 0.004638,-0.087685 -0.0470508,-0.096113 -0.0144722,-0.018229 -0.0245421,-0.039853 -0.0390625,-0.05707 -0.0130394,-0.00366 -0.027502,-0.00535 -0.0410351,-0.005 z m 1.1563867,0.4735742 -0.036035,0.00199 c -0.00409,0.0091 -0.012395,0.014126 -0.017031,0.022012 -0.00566,0.00967 -0.00685,0.023139 -0.013008,0.033047 -0.010198,0.016447 -0.028253,0.018453 -0.042051,0.031035 -0.00278,0.016314 0.00814,0.03741 0.022012,0.046055 0.01086,0.00477 0.030171,0.00409 0.041055,0 0.011426,-0.012209 0.020149,-0.026975 0.029023,-0.041074 0.011161,-0.005 0.022182,-0.010385 0.033066,-0.015996 l 0.009,-0.014023 c -0.0012,-0.019047 -0.015015,-0.03469 -0.014004,-0.053027 l -0.012031,-0.01002 z M 1.425,2.6637695 l 0,2e-5 -0.00773,0.012676 0.00107,0.018809 0.02127,0.038965 0.015938,0.00367 0.012246,-0.03002 -0.00588,-0.021113 L 1.4480664,2.6650199 1.425,2.6637699 Z m 0.1623828,0.099004 c -0.011992,0.013786 -0.013066,0.035969 -0.018027,0.053066 0.00479,0.026392 0.025145,0.046069 0.053066,0.043047 l 0.014023,-0.011016 0.006,-0.017012 C 1.6219974,2.8085854 1.6014663,2.806129 1.6014062,2.767793 l -0.014023,-0.00502 z"
     id="rect4"
     inkscape:connector-curvature="0" />
  <g
     id="g3862"
     clip-path="url(#clipPath3893)">
    <g
       id="c">
      <path
         transform="matrix(0.95105652,0.30901699,-0.30901699,0.95105652,-0.30901699,-0.04894348)"
         d="M 0,-1 0,0 0.5,0"
         id="t"
         inkscape:connector-curvature="0"
         style="fill:#000000" />
      <use
         id="use12"
         transform="scale(-1,1)"
         xlink:href="#t"
         x="0"
         y="0"
         width="12"
         height="6" />
    </g>
    <use
       id="use14"
       transform="matrix(0.30901699,0.95105652,-0.95105652,0.30901699,0,0)"
       xlink:href="#c"
       x="0"
       y="0"
       width="12"
       height="6" />
    <use
       id="use16"
       transform="matrix(-0.80901699,0.58778525,-0.58778525,-0.80901699,0,0)"
       xlink:href="#c"
       x="0"
       y="0"
       width="12"
       height="6" />
    <use
       id="use18"
       transform="matrix(-0.80901699,-0.58778525,0.58778525,-0.80901699,0,0)"
       xlink:href="#c"
       x="0"
       y="0"
       width="12"
       height="6" />
    <use
       id="use20"
       transform="matrix(0.30901699,-0.95105652,0.95105652,0.30901699,0,0)"
       xlink:href="#c"
       x="0"
       y="0"
       width="12"
       height="6" />
  </g>
</svg>
