<?xml version="1.0" encoding="UTF-8" standalone="no"?>
<svg
   xmlns:dc="http://purl.org/dc/elements/1.1/"
   xmlns:cc="http://creativecommons.org/ns#"
   xmlns:rdf="http://www.w3.org/1999/02/22-rdf-syntax-ns#"
   xmlns:svg="http://www.w3.org/2000/svg"
   xmlns="http://www.w3.org/2000/svg"
   xmlns:sodipodi="http://sodipodi.sourceforge.net/DTD/sodipodi-0.dtd"
   xmlns:inkscape="http://www.inkscape.org/namespaces/inkscape"
   version="1.1"
   width="899.9964"
   height="676.53156"
   viewBox="0 0 5.999976 4.5102104"
   id="svg2"
   inkscape:version="0.91 r13725"
   sodipodi:docname="Flag_of_Guinea.svg">
  <metadata
     id="metadata14">
    <rdf:RDF>
      <cc:Work
         rdf:about="">
        <dc:format>image/svg+xml</dc:format>
        <dc:type
           rdf:resource="http://purl.org/dc/dcmitype/StillImage" />
        <dc:title></dc:title>
      </cc:Work>
    </rdf:RDF>
  </metadata>
  <defs
     id="defs12" />
  <sodipodi:namedview
     pagecolor="#ffffff"
     bordercolor="#666666"
     borderopacity="1"
     objecttolerance="10"
     gridtolerance="10"
     guidetolerance="10"
     inkscape:pageopacity="0"
     inkscape:pageshadow="2"
     inkscape:window-width="1600"
     inkscape:window-height="837"
     id="namedview10"
     showgrid="false"
     fit-margin-top="0"
     fit-margin-left="0"
     fit-margin-right="0"
     fit-margin-bottom="0"
     inkscape:zoom="0.645"
     inkscape:cx="352.63761"
     inkscape:cy="226.96943"
     inkscape:window-x="-8"
     inkscape:window-y="-8"
     inkscape:window-maximized="1"
     inkscape:current-layer="svg2" />
  <path
     style="fill:#fcd116"
     d="m 2.8786724,0.19261728 c -0.027434,3.52e-5 -0.041235,0.002616 -0.071732,0.0117318 l 0,9.375e-4 -0.00268,2.3437e-4 c -0.00935,8.0018e-4 -0.019114,0.002205 -0.028464,0.002448 -0.00229,5.974e-5 -0.00507,-0.001529 -0.00737,-0.00151 -0.00596,5.973e-5 -0.013983,0.001484 -0.019245,0.004557 -0.010609,0.006216 -0.020996,0.0189715 -0.03263,0.0218099 -0.00856,0.002093 -0.032081,0.004736 -0.039635,0.004583 -0.00609,-1.2803e-4 -0.013274,-0.004099 -0.019453,-0.004701 -0.00731,-7.1056e-4 -0.015286,0.001049 -0.022656,5.9896e-4 -0.00941,-5.7184e-4 -0.019314,-0.002508 -0.028698,-0.003724 -0.00723,-9.41e-4 -0.02181,-0.0132093 -0.026654,-0.0179297 l -0.00378,-5.5989e-4 c -0.0076,-0.013571 -0.024507,-0.00846 -0.036068,-0.004466 -6.593e-4,0.002925 -0.020016,0.0144409 -0.023229,0.0155208 -0.020689,0.006965 -0.04227,0.0146315 -0.060925,-3.9063e-4 l -7.682e-4,-0.003216 -0.010039,-0.0101953 c -0.00319,5.847e-4 -0.019398,0.00283 -0.021042,0.004687 -0.00838,-0.007912 -0.022886,-0.001683 -0.030247,0.004271 -0.00491,0.003969 -0.00884,0.009934 -0.013555,0.0142187 -0.00225,0.002042 -0.00572,0.003245 -0.00792,0.005326 -0.00545,0.00514 -0.010522,0.011357 -0.015625,0.016875 l -0.00547,-3.6459e-4 c -0.00386,0.004769 -0.00973,0.007574 -0.015885,0.006211 l -0.00279,0.001888 c -0.036104,-0.001095 -0.049302,0.008261 -0.082969,0.0225781 -0.00161,6.8495e-4 -0.00311,0.002585 -0.0047,0.003424 -0.00291,0.001543 -0.00652,0.002084 -0.00943,0.003633 -0.00932,0.004974 -0.023938,0.0146866 -0.035247,0.0126042 -0.00389,-0.001338 -0.013294,-0.0108418 -0.012513,-0.0148958 -0.00364,-0.003028 -0.00482,-0.005977 -0.00702,-0.00944 -0.019063,-0.0300226 -0.017231,-0.0231899 -0.046016,-0.037474 -0.013328,-0.006615 -0.014823,-0.009716 -0.031966,-0.0136849 -0.013579,-0.003143 -0.01627,0.002776 -0.025859,0.001432 -0.011224,0.007899 -0.032876,0.0278026 -0.04707,0.0236589 -0.00301,-0.003278 -0.00772,-0.007199 -0.010065,-0.0109375 -0.00879,-0.0139724 -0.00555,-0.0140927 -0.023307,-0.0191927 l -0.00264,-0.003594 0,2.30794388 c 0.00457,0.00181 0.010061,0.00348 0.014141,0.00326 -3.327e-4,-0.00827 0.0027,-0.016103 0.00514,-0.023841 0.00104,-0.0033 -0.00406,-0.017593 -0.00494,-0.020794 1.96e-4,-0.00197 0.00152,-0.00637 0.00353,-0.00737 l 0.00316,-3.907e-4 0.00376,0.00452 0.00243,-0.00151 c -5.593e-4,-0.00895 0.00578,-0.012617 0.00608,-0.019701 2.434e-4,-0.00565 -0.0011,-0.00966 0.00108,-0.015508 0.01049,0.00184 0.018191,-0.00799 0.024596,-0.014649 l 0.00206,3.647e-4 c 7.874e-4,0.00266 0.00374,0.010239 0.00639,0.011706 l 0.00262,3.646e-4 0.00242,-0.00152 c 2.647e-4,-0.00891 -0.00372,-0.015632 -0.00699,-0.023997 l 0.00203,-0.00435 0.00206,-0.00133 0.011211,3.387e-4 0.0015,-0.00246 -9.375e-4,-0.00284 -0.00806,-0.00375 -1.953e-4,-0.0021 0.00503,-0.00569 c -0.00138,-0.00647 0.00448,-0.017012 0.00891,-0.021211 l 8.724e-4,-0.015508 c 0.00122,-0.00182 0.00529,-0.00274 0.00728,-0.00267 l 8.985e-4,-0.012122 -0.00169,-0.00245 c -0.00264,3.33e-5 -0.00626,-0.00187 -0.00676,-0.00471 0.0011,-0.00181 0.00184,-0.00526 0.00133,-0.00737 l 0.015247,-0.00971 0.018711,6.901e-4 c 0.00951,-0.00344 0.015079,-0.02136 0.020286,-0.022214 l 0.030651,-0.00504 c 0.00588,-9.666e-4 0.012513,-0.00229 0.018138,-0.00402 0.00111,-3.414e-4 0.00329,-0.00228 0.0043,-0.00249 0.00322,-6.36e-4 0.00707,2.313e-4 0.010286,-4.167e-4 l 0.051589,-0.010391 0.00148,-0.00171 c 0.00839,-0.00196 0.048678,-0.012332 0.052148,-0.011146 0.00621,0.00346 0.00827,0.011468 0.014271,0.014336 0.00688,0.00329 0.015583,0.00434 0.022279,0.00788 0.00533,0.00282 0.011621,0.00888 0.016511,0.012617 0.020544,0.015722 0.038564,0.00565 0.060026,-0.00111 7.362e-4,-2.307e-4 0.00172,-0.00156 0.00243,-0.00171 0.01343,-0.00282 0.02522,-0.00791 0.038646,-0.010521 0.019695,-0.00383 0.055045,-0.016866 0.075547,-0.023229 0.00314,-9.794e-4 0.00679,-9.129e-4 0.00991,-0.0019 0.00502,-0.0016 0.00968,-0.00415 0.015326,-0.0057 l 0.00672,-0.00814 c 8.769e-4,-0.00885 0.00433,-0.035366 0.010013,-0.042578 0.031422,1.33e-5 0.063099,8.967e-4 0.094492,2.67e-5 0.00907,-2.52e-4 0.018258,-0.002 0.027318,-0.00211 0.00231,-2.67e-5 0.00513,0.00156 0.00749,0.00168 0.019174,9.668e-4 0.038961,-0.00109 0.05819,-0.00102 0.018679,6.67e-5 0.036703,6.48e-4 0.055391,-2.733e-4 0.0058,-2.9e-4 0.011359,9.157e-4 0.017018,7.813e-4 0.065819,-0.00154 0.1313867,-3.054e-4 0.1972657,1.04e-4 0.03033,1.92e-4 0.060807,-8.249e-4 0.091146,-0.00129 0.00824,0.00674 0.016614,0.013328 0.024987,0.019896 0.011694,0.022674 0.00345,0.053335 0.016615,0.079453 0.00367,0.00728 0.038957,0.022905 0.04599,0.025755 1.24e-4,2.473e-4 7.903e-4,0.00179 9.375e-4,0.00189 0.01448,0.00978 0.03586,0.02513 0.046354,0.039388 0.00748,0.010165 0.013677,0.02138 0.021094,0.031601 0.00184,0.00253 0.00489,0.00456 0.0069,0.00701 0.00765,0.00932 0.016056,0.019439 0.021471,0.030299 0.00696,0.013938 0.00552,0.033415 0.011732,0.041042 0.00963,0.011822 0.026949,0.00103 0.033437,0.011589 l 3.647e-4,0.00681 c 0.00695,0.00561 0.00691,0.023993 0.00798,0.032721 l 0.00561,0.00625 0.0069,3.907e-4 c 0.00773,0.010682 0.018373,0.021659 0.029115,0.029362 l 3.514e-4,0.00453 c -0.00339,0.0024 -0.010396,0.00836 -0.011966,0.012461 0.017527,0.013848 0.00955,0.010017 0.034531,0.013867 l 0.0028,0.00227 9.374e-4,0.00303 -0.00337,0.00568 c -0.00373,0.00108 -0.01327,0.00541 -0.014401,0.00979 l -1.826e-4,0.00359 c 0.00194,0.00277 0.00773,0.012826 0.00632,0.016458 l -0.00655,0.00773 c -0.00143,0.00511 0.00246,0.011082 0.00447,0.015521 0.00411,0.00308 0.00925,0.00359 0.01306,0.00607 0.00253,0.00166 0.019285,0.014757 0.020326,0.01724 l -0.00206,0.00587 c -0.00425,0.00179 -0.00898,0.00814 -0.00973,0.012643 3.16e-4,0.00296 0.00337,0.00725 0.00557,0.00909 l 0.00411,0 0.00431,-0.00811 0.00764,5.86e-4 c 0.006,0.00421 0.00792,0.00652 0.015872,0.00684 0.00398,-0.00328 0.012802,-0.00434 0.017552,-0.0026 0.00127,0.00166 0.00595,0.00871 0.00801,0.00891 l 0.00595,-0.00507 c 0.00459,0.00595 0.021852,0.03102 0.015625,0.037435 l 0.00335,0.00379 c 0.014143,0.00152 0.037437,0.016638 0.037083,0.032995 -0.00419,0.010823 -0.013444,0.03022 -0.010534,0.041563 l 0.00892,0.010599 -7.421e-4,0 5.34e-4,0.013607 -0.00336,0.00547 c -0.00604,0.00367 -0.026101,0.009 -0.032669,0.00937 l -0.00372,-0.0053 -0.00428,7.421e-4 -0.00414,0.011524 c 0.00556,0.00762 0.00955,0.023202 0.00721,0.032526 l -0.00934,0.01056 c 0.00108,0.011292 -0.0012,0.028163 -0.00586,0.038555 l 0.00279,0.00417 c 0.020954,0.00756 0.042332,-0.0059 0.056133,-0.00193 0.01002,0.00287 0.019479,0.011394 0.030378,0.011419 l 5.6e-4,-0.00151 c 0.013319,0.00419 0.028399,0.012589 0.03095,0.02724 -0.00364,0.00535 5.34e-5,0.014697 -0.00323,0.019831 l -0.00337,0.00245 c -0.00477,0.00609 -0.00793,0.055418 -2.08e-4,0.063138 l -8.724e-4,0.00339 c -3.673e-4,0.00142 -6.46e-4,0.020778 -0.00158,0.026706 -3.247e-4,0.00204 -8.012e-4,0.00318 -8.204e-4,0.00525 -7.66e-5,0.00949 0.00568,0.030919 0.0075,0.040833 6.85e-4,0.00371 -0.00147,0.00638 0.00275,0.015143 -0.00191,0.00217 -0.00273,0.01141 -0.00284,0.014154 l 0.00279,0.00229 0.00279,-1.953e-4 0.00297,0.00303 0.00467,-0.00281 0.00279,3.906e-4 c 0.00194,0.00824 0.019422,0.017337 0.025247,0.023529 0.00712,0.00756 0.0074,0.026758 0.010143,0.02875 l 0.00949,-0.00109 9.245e-4,0.00284 -0.00596,0.00451 0.00871,0.011953 -0.00283,0.00488 c 0.00943,0.00186 0.023162,0.013408 0.022253,0.024088 l 0.00616,-5.467e-4 0.00464,0.00513 c -0.00363,0.0053 -0.00818,0.011995 -0.00993,0.018281 l 0.00257,0.00493 -5.727e-4,0.00491 c -9.794e-4,0.00249 -0.01281,0.00643 -0.015469,0.0075 l -0.00301,0.00547 c -0.00522,0.00164 -0.013963,0.00684 -0.016784,0.011823 l -0.0026,3.774e-4 -0.00391,-0.00267 -0.010599,0.00111 c -0.00549,0.00485 -0.013487,0.00786 -0.017904,0.013151 -0.00212,-6.467e-4 -0.00867,-0.00176 -0.010612,-4e-5 l -0.00224,0.00358 8.724e-4,0.013425 -0.0015,0.00284 c -0.0086,6.593e-4 -0.012853,0.011249 -0.015495,0.018073 -0.00421,0.0043 -0.011017,0.00403 -0.016211,0.00655 -5.254e-4,0.010737 -0.00712,0.020189 -0.00846,0.030768 l 0.00276,0.00794 -9.374e-4,0.0032 -0.00613,-0.00247 -0.00112,9.375e-4 c -2.82e-4,0.0025 -3.64e-4,0.00528 1.694e-4,0.00776 l -0.00244,0.00281 -0.00428,0.00111 -0.00148,0.00169 c 3.34e-5,0.011177 -0.0028,0.033412 -0.00609,0.042865 0.00447,0.00604 0.00465,0.022427 0.00327,0.029857 -0.00174,0.00212 -0.00662,0.00403 -0.00914,0.0047 -0.00555,0.012337 -0.022175,0.01148 -0.025521,0.01862 -0.00326,0.00697 -0.00277,0.014744 -0.00471,0.021888 -0.00201,0.00738 -0.00816,0.016315 -0.011602,0.023203 l 0.00328,0.018333 -0.00391,0.00358 -0.0015,0.00583 c 0.00311,0.00104 0.011705,-9.69e-4 0.014687,-0.00184 -3.326e-4,-0.00676 -2.32e-4,-0.018308 0.00247,-0.02474 l 0.00504,-0.00376 c -1.493e-4,-0.00844 0.00831,-0.021635 0.014011,-0.027162 0.00401,0 0.010105,-8.341e-4 0.013971,1.34e-5 0.00619,0.00135 0.012657,0.0043 0.018867,0.00522 0.00934,0.00138 0.031292,-0.00109 0.03776,0.00704 5.42e-4,0.00289 0.00296,0.013021 0.00555,0.014805 0.00432,-1.24e-4 0.011078,3.3e-4 0.015052,0.00232 7.681e-4,-2.647e-4 0.00554,-0.00174 0.00595,-0.00204 0.015653,-0.011497 0.03807,-0.024531 0.050898,-0.039284 0.00186,-0.00214 0.00321,-0.00787 0.00507,-0.00999 0.00547,-0.00625 0.012562,-0.00659 0.015677,-0.017135 l 0.00103,-6.12e-4 c 0.016626,-0.00966 0.015864,-0.017024 0.025872,-0.033476 0.00433,-0.00711 0.01371,-0.00902 0.01849,-0.016732 0.00234,-0.00378 0.00347,-0.00872 0.00563,-0.012643 0.00167,-0.00301 0.00457,-0.00562 0.00617,-0.00866 0.00234,-0.00449 0.00252,-0.010026 0.00632,-0.013841 l 0.010703,0.00479 c 0.00978,-1.453e-4 0.024652,-0.0082 0.033307,-0.013021 0.012329,0.00424 0.022652,0.01327 0.035937,0.01487 0.00296,-0.00304 0.00971,-0.0061 0.014063,-0.00557 l 0.00576,0.00326 c 0.00333,-0.00165 0.00995,-0.00379 0.013789,-0.00315 l 0.00296,0.00341 0.00767,-0.00845 0.00204,7.682e-4 c 8.706e-4,0.00241 -4.3e-4,0.00742 -0.00134,0.00962 l 0.00129,0.00266 0.013672,0.00105 0.00757,-0.00984 0.00279,-5.467e-4 c 0.00356,-0.00516 0.023148,-0.017424 0.029115,-0.0178 l 0.0019,-0.00737 0.00262,-0.00224 0.00964,0.0059 0.00299,-0.00262 c 0.00264,0.00115 0.01108,-0.00145 0.013581,-0.00238 0.00335,0.00247 0.00676,0.00257 0.010221,0.00313 l 0,-3.00588694 c -4e-5,-3.03e-6 -8.73e-5,3.59e-6 -1.3e-4,0 -0.00492,-4.0967e-4 -0.00998,-0.001326 -0.014896,-0.001979 -0.00298,0.001696 -0.010522,0.005048 -0.014154,0.004479 -0.00611,-0.00546 -0.019508,-0.0122591 -0.028034,-0.011875 -0.00246,-0.001005 -0.00511,-0.007431 -0.00579,-0.009688 -0.00524,-0.002375 -0.010077,-0.001642 -0.015898,-0.001745 -0.00343,-6e-5 -0.00766,-0.00191 -0.010677,-0.001602 -0.00465,4.694e-4 -0.010863,0.005312 -0.015664,0.002956 -0.0039,-0.001927 -0.00361,-0.008165 -0.0024,-0.0115495 l -0.00169,-0.001523 -0.00434,-2.6e-5 -0.010781,0.006771 -0.00753,-0.004779 -0.00529,1.6927e-4 -0.00359,0.002435 -0.00115,0.004362 0.00262,0.007956 -0.00267,0.002826 c -0.00227,8.3859e-4 -0.00632,-1.25e-4 -0.00828,-0.001367 -0.00226,-0.0113094 -0.00702,-0.0302326 -0.022721,-0.0214844 -0.00154,-0.001184 -0.0076,-0.00551 -0.00962,-0.005273 l -0.00152,0.004154 c 4.2e-6,0.008919 0.013472,0.0152905 0.005,0.0272656 -0.00344,-0.00176 -0.014732,-0.006142 -0.018659,-0.004036 l -0.00228,0.001888 3.387e-4,0.0117188 -0.00227,0.003034 -0.00624,0.00263 0,9.375e-4 c -0.011492,-3.926e-4 -0.020895,-0.0125404 -0.03194,-0.004076 l -0.00302,0.004714 c 3.073e-4,0.003412 0.00278,0.0189958 3.513e-4,0.0211979 -0.00372,0.001299 -0.017814,0.006473 -0.02069,0.009076 -0.00428,0.003892 -0.00734,0.009703 -0.01349,0.0111198 -0.013704,-3.9687e-4 -0.033569,-0.0112366 -0.045313,0 -0.00234,0.00224 -0.0047,0.004785 -0.00487,0.00832 0.00305,0.005761 0.010407,0.0123111 0.010859,0.0185807 l -0.00151,0.002839 -0.00944,0.001289 c -0.00568,0.002765 -0.00323,0.0148013 -0.00138,0.0189193 l -7.552e-4,0.002266 8.854e-4,0.002513 c -4e-5,0.007302 -0.00627,0.0100334 -0.01,0.0150521 -0.00763,0.002234 -0.022793,0.005656 -0.030846,0.003646 l -0.00592,0.004349 -5.993e-4,0.006615 c 0.00244,0.004116 0.00793,0.009231 0.012409,0.0110286 l 5.6e-4,0.002266 -0.00115,0.001523 -0.00678,0.001862 -0.00342,0.006237 c -0.0023,0.001517 -0.00713,0.001376 -0.00961,5.3387e-4 l -0.0085,0.009245 c -0.00303,8.2578e-4 -0.00816,-5.268e-4 -0.010742,-0.002122 -0.014805,0.009167 -0.00743,0.0300173 -0.022161,0.0389063 -0.00141,0.00338 -7.026e-4,0.0100744 1.434e-4,0.0134505 -0.00124,0.003649 -0.012033,0.007204 -0.015651,0.007695 l -0.00246,0.002656 -2.214e-4,0.001224 c -0.00295,0.003053 -0.00855,0.004313 -0.012422,0.004505 -0.01206,5.9746e-4 -0.012018,0.001323 -0.020638,-0.00737 l -0.010652,-0.0107557 -0.011497,-7.8125e-4 -0.0034,-0.002266 c -0.00227,-0.006901 -0.00721,-0.0154553 -0.012761,-0.0202865 l 0.00474,-0.0155078 c -0.00375,-0.008548 -0.0064,-0.0246683 -0.012812,-0.0299219 -0.0039,-0.003201 -0.00982,-0.006082 -0.013216,-0.009661 -0.00439,-0.004635 -0.00528,-0.0123022 -0.011758,-0.0154818 l -0.00225,-0.006432 c -1.407e-4,-0.003527 0.00494,-0.00899 0.006,-0.0136719 0.00337,-0.0149364 0.00185,-0.0238984 3.906e-4,-0.0394922 -0.00121,-0.0129648 -0.020627,-0.008752 -0.03375,-0.0157943 -0.009,-0.004833 -0.033694,-0.0247608 -0.038568,-0.0326563 -0.00213,-0.003463 -0.00229,-0.0140274 -0.00279,-0.0147526 -0.00465,-0.006675 -0.00607,-0.0112451 -0.00826,-0.0191406 l -0.00133,-0.001328 -0.00565,0.003971 -0.00302,-0.001523 -0.00395,-0.009661 -0.00227,-0.001328 -0.00622,-1.333e-5 c -0.00189,-0.001888 -0.00869,-0.007763 -0.01168,-0.007396 l -0.00586,0.004701 c -0.00218,9.8581e-4 -0.019109,-0.00777 -0.027708,-4.2966e-4 -0.00275,0.002337 -0.00607,0.005875 -0.00908,0.007734 -0.00506,0.003124 -0.016823,-0.001211 -0.023958,0.002604 -0.00397,-0.005499 -0.00792,-0.005006 -0.01431,-0.004193 -0.00176,-0.002804 -0.00608,-0.007514 -0.00941,-0.008542 l -0.00284,0.003229 c 1.754e-4,0.009632 -0.00323,0.0129846 -0.00551,0.0207943 -3.586e-4,0.00121 3.627e-4,0.004324 -1.33e-5,0.005495 -8.834e-4,0.002804 -0.00353,0.005513 -0.00435,0.00832 -9.282e-4,0.00313 -1.433e-4,0.007313 -0.00115,0.0103906 -4.353e-4,0.001331 -0.00378,0.004977 -0.00435,0.006445 -0.00189,0.004846 -0.00297,0.0108238 -0.00436,0.0158854 -0.00851,0.006474 -0.017727,0.008245 -0.025482,0.013763 l -0.00169,0.003789 0.00206,0.009648 -0.00152,0.004167 -0.00281,0.001888 c -0.00585,-6.4e-5 -0.023308,-0.002843 -0.026588,0.004115 -0.00303,0.00603 6.46e-4,0.019542 0.00336,0.024987 -0.00723,0.0180347 -0.023295,0.0185406 -0.027917,0.0251302 -0.00877,0.0125039 -0.016507,0.0141264 -0.032135,0.00918 -0.013417,0.003169 -0.016272,0.0208117 -0.030547,0.0208073 l -0.00565,0 c -0.01422,-0.007592 -0.031062,-0.0145307 -0.044297,-0.0236719 -0.00755,-0.005211 -0.014794,-0.0115193 -0.022044,-0.0171615 -0.00599,-0.004667 -0.012528,-0.009139 -0.01776,-0.0146745 l 0.00112,-0.0157031 c -0.013396,-0.0319603 -0.016543,-0.0189119 -0.040885,-0.026888 -0.013605,-0.004462 -0.03059,-0.0102491 -0.042787,-0.0179948 -0.00244,-0.001549 -0.01071,-0.0174171 -0.014141,-0.0222656 -0.00327,-0.004622 -0.00766,-0.009733 -0.010365,-0.0146484 -0.0022,-0.003988 9.377e-4,-0.016743 -0.00264,-0.0255469 0.00814,-0.006126 0.0088,-0.0181437 0.017161,-0.0238281 l 0.010755,-0.002643 c 0.00117,-0.003214 0.00483,-0.007961 0.00811,-0.009284 1.33e-5,-0.003604 6.053e-4,-0.0117472 0.00264,-0.0149479 0.00972,-7.6818e-4 0.013226,-0.0135307 0.013021,-0.0215625 l -0.00342,-0.006055 c 0.00124,-0.0136433 2.807e-4,-0.0269915 -0.00978,-0.0376563 l 0.00112,-0.003594 0.00549,-0.002266 c 0.0023,-0.004622 0.00175,-0.0121359 0.00174,-0.0172526 l 0.00201,-0.00276 c 0.00775,-0.002298 0.011723,-0.003639 0.016823,-0.0110156 l 0.00188,1.9531e-4 c 0.00156,0.002157 3.02e-4,0.007871 -5.6e-4,0.0100261 l 0.00151,0.004167 0.00339,1.823e-4 0.00736,-0.003581 c 0.00504,-0.002132 0.010164,-0.001331 0.015482,-0.001133 l 0.00529,-0.004909 c -0.00131,-0.002785 -0.00132,-0.007679 -7.421e-4,-0.010612 l -0.00473,-0.007383 8.594e-4,-0.001927 c -0.033684,-8.5139e-4 -0.03546,-0.0161796 -0.064727,-0.0229818 -0.00186,-4.3108e-4 -0.00297,-5.273e-5 -0.00488,-9.115e-5 L 2.8913542,0.19274722 C 2.8867906,0.19266 2.882591,0.19261198 2.8786719,0.19261701 Z"
     id="rect6"
     inkscape:connector-curvature="0" />
  <path
     style="fill:#ce1126"
     d="m 1.1592965,0 c -0.018758,5.4666694e-5 -0.037681,3.5773351e-4 -0.053047,2.0833344e-4 0.0051,0.0130288066 0.00386,0.0257818066 0.00488,0.0393099166 5.08e-4,0.006747 0.00177,0.01368215 0.00263,0.02040365 6e-5,4.4387e-4 0.00258,0.0032673 0.00286,0.0039583 0.00212,0.005031 0.00189,0.01030697 0.00335,0.01510417 0.00424,0.01395951 0.00746,0.02560257 0.00999,0.03984378 9.026e-4,0.005096 0.015471,0.0134616 0.01888,0.0204557 0.00486,0.009999 0.021846,0.0444311 0.01332,0.0566667 l -0.018828,0.0270313 c -0.00126,0.0145869 0.0067,0.0255951 0.00635,0.036836 -0.00446,0.005761 -0.00747,0.020154 -0.00372,0.026901 -9.154e-4,0.003482 -0.00207,0.0113873 -0.00518,0.013099 -0.00419,6.5294e-4 -0.016688,0.003699 -0.01918,0.007734 -7.746e-4,0.003354 -0.00203,0.006267 -0.00355,0.00931 l -0.00431,8.0729e-4 c -0.0092,0.00877 -0.00808,0.0304072 -0.015924,0.0357031 l -0.00453,9.7657e-4 c -0.00627,-0.001485 -0.018094,-0.0179384 -0.024701,-0.0232682 l -0.00587,-0.001081 -0.00355,0.003242 -0.00458,0.0159375 c -0.00382,0.004039 -0.025449,0.003308 -0.028685,-0.001276 0.00711,-0.0103914 0.013285,-0.0226156 0.00577,-0.033724 -0.00827,4.2678e-4 -0.014675,0.0292721 -0.022292,0.0314063 l -0.00408,-0.002812 -0.00145,-0.0147396 c -0.00521,-0.00641 -0.0165354,5.8306e-4 -0.0233854,-0.00151 l -9.6353e-4,0.005339 c 8.962e-4,0.00459 0.0133243,0.008357 0.007031,0.0239844 -0.010204,0.007562 -0.0390798,0.005971 -0.0523568,0.006458 l -0.00599,0.004974 c -2.6466e-4,0.006325 -0.00412,0.016151 -0.00888,0.0205078 -0.00348,0.002138 -0.008864,0.00382 -0.0129817,0.003711 l -0.006523,0.007435 c -0.0012,0.0166949 0.008551,0.033187 0.0187631,0.0457292 0.0092,0.004974 0.0206063,0.001627 0.0302083,0.003893 0.030206,0.007127 0.002788,0.0199947 0.0459505,0.0334505 0.00214,-9.8581e-4 0.007636,6.442e-4 0.009636,0.001419 0.02529,0.009833 0.0131,0.0197072 0.027682,0.0381771 0.00205,0.002593 0.00511,0.006394 0.00799,0.008242 0.01722,0.0110572 0.042697,0.0142404 0.062396,0.0193359 5.166e-4,1.3233e-4 0.00581,0.003269 0.00663,0.003724 7.27e-5,0.001773 5.887e-4,0.004474 2.347e-4,0.006055 -0.00198,0.008817 -0.00504,0.01858 -0.00617,0.027487 -0.0014,0.0111468 -4.566e-4,0.0228686 -0.00158,0.0340755 -0.00124,0.0124443 -0.00582,0.0241097 -0.00392,0.0368229 0.00254,0.016981 0.00659,0.0354487 0.00659,0.0526563 0,0.005275 -5.954e-4,0.0128097 -0.00154,0.0179948 -0.00122,0.006696 -0.00575,0.0132298 -0.00529,0.0206771 4e-5,5.8893e-4 0.00326,0.009672 0.00365,0.0108203 6.1e-4,0.001812 0.0015,0.0317383 0.00165,0.0356771 l -0.00507,0.002122 -0.00792,-0.001628 c -0.013494,0.0130333 -0.024736,0.0155828 -0.04263,0.018724 l -0.00193,-0.005859 -0.00543,0.003268 c -0.00312,-0.002349 -0.00421,-0.003625 -0.0085,-0.003906 l -0.00189,-0.001693 -9.765e-4,-0.003958 0.00147,-0.003997 -0.00246,-0.002422 0.00503,-0.005911 -5.727e-4,-0.002448 -0.0034,-3.5153e-4 -0.00505,0.004961 -0.00639,-3.2553e-4 -0.0056,0.004388 -0.00245,2.6e-5 -0.00555,-0.009792 -0.003386,-5.338e-4 -8.0727e-4,-0.005677 c 0.0026,-0.001722 0.005502,-0.004926 0.006732,-0.007813 l -4.033e-4,-0.001901 -0.00491,-0.001849 -0.004388,-0.006211 -0.005833,-1.432e-4 -0.00849,-0.001628 c -0.0025,0.003476 -0.004827,0.007865 -0.006107,0.0119662 l 0.00194,0.007747 0.002461,0.002057 c 0,0 0.006269,0.006976 0.004219,0.008099 l -0.005469,0.0206771 -0.004336,-0.001471 -0.006042,0.019349 -0.0140755,5.5987e-4 c -0.00709,2.8166e-4 -0.0168778,-0.014632 -0.0280078,-0.0139323 l -0.003177,0.002487 -0.005117,0.0151953 c -0.0057,0.004865 -0.0141996,0.007058 -0.0209896,0.009648 -0.035122,0.0133873 -0.0223885,-7.882e-4 -0.0484245,-0.004271 -0.00518,-6.9136e-4 -0.0229196,0.005292 -0.0272266,0.007279 -0.00383,0.001773 -0.007057,0.006098 -0.0108333,0.008242 l -0.0108593,0.006172 c -0.013661,0.002119 -0.0308679,-0.0194823 -0.0392579,-0.0278125 -0.00968,-0.001664 -0.0223705,4.5987e-4 -0.0315886,0.003346 -0.02707,-0.0131184 -0.0316413,-0.0144909 -0.0576693,-0.00526 -0.00376,-0.001165 -0.0104974,-0.005259 -0.0121484,-0.009141 l -0.003776,-5.3389e-4 c -0.013012,0.0212443 -0.0271074,0.0416265 -0.0414974,0.0619401 -1.1954e-4,1.7073e-4 -0.10545399,0.0559897 -0.1270183,0.0674479 l -9.1145e-4,0.002852 c -0.00193,0.00242 -0.007974,0.002575 -0.0106901,0.003906 -0.00674,0.00331 -0.013134,0.008648 -0.02,0.0115755 -0.00377,0.001607 -0.0380268,-0.002309 -0.0442448,-0.002891 -5.846e-4,-5.333e-5 -0.001676,-0.001401 -0.002266,-0.001484 -0.016857,-0.002247 -0.0329459,-0.004106 -0.0499219,-0.004714 -9.986e-4,-3.333e-5 -0.003547,0.001114 -0.004687,0.001185 -0.021325,0.001338 -0.0138931,-0.003002 -0.0306901,0.0108854 -0.00705,0.005825 -0.0138457,0.0115085 -0.0191797,0.0190495 l -0.0404948,0.0572397 c -0.00358,0.00506 -0.008815,0.01103 -0.0116406,0.016458 -0.012747,0.024573 -0.0223585,0.05143 -0.0321875,0.077292 -0.00395,0.010404 -0.007448,0.021816 -0.0121094,0.031875 -0.00972,0.020988 -0.0210635,0.041632 -0.0315235,0.062292 -0.015611,0.03085 -0.0323116,0.061272 -0.0484896,0.091849 -0.00115,0.00216 -0.002242,0.00434 -0.003542,0.00641 l -0.0211198,0.040247 -0.01917969,0.023971 c -6.2314e-4,9.922e-4 -0.0010044,0.00229 -0.0014844,0.00336 l -0.02854168,0.016432 c 0,0 1.3e-5,1.33e-5 1.3e-5,1.33e-5 l 2.3437e-4,0.0034 -0.0040104,7.161e-4 c -0.00471,0.0036 -0.0055792,0.01354 -0.0094792,0.018346 -0.00273,0.00156 -0.0058326,0.002 -0.0085026,0.00336 -0.00215,0.00109 -0.0041932,0.00332 -0.0063932,0.00458 -0.010204,0.0059 -0.01216717,0.00394 -0.02010418,0.014479 -0.005129995,0.0068 -0.006017082,0.013734 -0.005677082,0.021966 0.001110032,0.026574 0.011717072,0.03384 0.028164072,0.052135 0.00938,0.010439 0.01492503,0.021662 0.02813804,0.027982 0.01548301,0.0074 0.02064953,0.00219 0.03407554,0.00219 0.00267,0 0.0065318,0.00134 0.0092318,0.00193 l -7.1615e-4,-0.00219 c 0.00322,-0.00423 0.01244654,-0.017233 0.01158854,-0.021953 -0.00362,-0.00799 -0.01513504,-0.00656 -0.02127605,-0.012305 -0.00222,-0.00207 -0.003652,-0.00544 -0.005612,-0.00781 -0.00221,-0.00266 -0.0049447,-0.00563 -0.0048047,-0.00934 0.00332,1.62e-4 0.0067049,6.647e-4 0.0099349,0.00145 -0.00467,-0.00705 -0.0015139,-0.019048 -0.0080339,-0.02582 -2.4746e-4,-0.00394 0.0025196,-0.00803 0.0047396,-0.011094 0.00463,0.00179 0.0066468,0.00716 0.01300782,0.00699 0.00717,-1.92e-4 0.01148413,-0.0086 0.01632813,-0.012786 0.00917,-0.00791 0.0300124,-0.02722 0.0245964,-0.041029 -0.00135,-0.00344 -0.0335738,-0.029445 -0.0392708,-0.034753 l 4.6873e-4,-0.00264 c 0.018466,-0.0029 0.0219765,0.013134 0.0340755,0.016172 l 0.004492,-0.00146 c 0.00472,-0.00362 0.005279,-0.010876 0.006159,-0.016172 0.00312,-0.019085 -1.0233e-4,-0.02674 -0.0163281,-0.036667 l 0.002122,-0.00194 c 0.00424,-3.753e-4 0.0209449,-0.00333 0.0236589,-0.00555 -0.00323,0.01646 0.001658,0.023547 0.005768,0.038607 0.00325,0.011907 0.003277,0.021511 0.0190755,0.020833 0.0036,-1.533e-4 0.007575,-6.949e-4 0.0101823,-0.00346 0.00399,-0.00425 0.003454,-0.010365 0.008034,-0.014479 0.00362,-0.00325 0.007852,-0.00346 0.0123047,-0.00505 0.00332,-0.00207 0.003956,-0.00903 0.003776,-0.012552 0.00147,-0.00228 0.003154,-0.0045 0.004974,-0.00652 0.00311,-0.0012 0.007735,-6.741e-4 0.0101823,0.00161 0.010673,0.00998 -0.001067,0.016612 -0.001667,0.025899 l 0.002839,0.00266 c 0.00702,3.967e-4 0.0129134,-0.00329 0.0196484,-0.00362 0.00522,-2.56e-4 0.00798,0.00303 0.0127604,0.0041 0.00261,-5.887e-4 0.005693,-0.00197 0.007813,-0.00362 0.00252,-0.011087 0.0246009,-0.019562 0.0149089,-0.030885 l 4.6874e-4,-0.00387 c 0.00351,-0.00599 0.0204371,-0.0063 0.0269662,-0.010143 0.00234,-0.00553 0.001298,-0.012872 0.004258,-0.017604 l 0.004258,2.347e-4 c 0.00528,0.00743 0.004308,0.015748 0.0125521,0.021484 l -0.001667,0.00434 c -0.0049,6.187e-4 -0.0106232,-4e-5 -0.0151302,0.00219 -0.00453,0.00294 -0.003599,0.011499 -0.006159,0.016172 -0.00408,0.00511 -0.0127889,0.00115 -0.0167969,0.00626 -8.834e-4,0.00287 -0.002546,0.0049 -0.003776,0.00749 -0.00375,0.00791 -0.002848,0.016809 -0.0108854,0.022669 -0.00703,0.00513 -0.0155131,-7.879e-4 -0.0231901,2.473e-4 -0.00683,9.154e-4 -0.0163259,0.01928 -0.0411589,0.015208 -0.00578,0.01119 -0.006604,0.029837 0.003776,0.03836 0.00345,5.673e-4 0.007178,6.313e-4 0.010651,2.473e-4 -8.386e-4,0.00129 -0.009833,0.00909 -0.0113542,0.01013 l -9.5052e-4,0.00458 c 0.00173,0.00639 0.009964,0.012145 0.002604,0.019557 0.00106,0.00824 -0.002286,0.016659 -2.474e-4,0.024844 l 0.00332,-9.635e-4 c 0.00469,-0.00986 0.0185913,-0.00307 0.0257813,-0.00699 0.00312,-0.00384 0.002615,-0.00785 0.004505,-0.011823 0.00406,-0.00855 0.0137213,-0.014033 0.0189193,-0.021237 l 0.003086,-7.291e-4 c -1.7933e-4,2.52e-4 -0.003592,0.016721 -0.003542,0.017617 7.68e-5,0.00153 0.002427,0.00698 0.003307,0.00845 -0.00169,0.0042 -0.00644,0.00459 -0.00875,0.00819 -0.00538,0.00837 -0.003656,0.023164 -0.006146,0.032826 -1.1947e-4,4.693e-4 -6.5967e-4,9.171e-4 -4.818e-4,0.00145 -0.00152,0.00367 -0.006251,0.00438 -0.008281,0.00772 -0.00218,0.00359 -0.002071,0.00803 -0.004961,0.011589 -0.00372,0.00207 -0.009334,0.00329 -0.0134896,0.00216 -0.00348,0.00674 -0.002532,0.011381 -4.6874e-4,0.018346 0.00323,0.0026 0.0161736,0.016163 0.0172656,0.016654 7.234e-4,0.00271 0.0112018,0.020252 0.0130208,0.02099 0.012564,-0.00865 0.006524,-0.023134 0.010638,-0.033789 0.00426,-0.011019 0.0193352,-0.031389 0.0307552,-0.035716 0.00664,-0.00251 0.0147182,-0.00409 0.0201172,-0.00893 0.00525,-0.00471 0.00439,-0.014242 0.0101693,-0.017604 0.0038,-7.298e-4 0.004761,0.00163 0.007331,0.00241 0.00392,0.00118 0.007621,-2.687e-4 0.0113281,-0.00147 -0.00372,0.00135 -0.0100137,0.00424 -0.0110938,0.00533 -0.00519,0.00868 8.9541e-4,0.013938 -0.0111198,0.022695 -0.0084,0.00612 -0.0256741,0.00655 -0.0300391,0.015677 -6.466e-4,0.00994 8.7248e-4,0.026485 -0.001888,0.035469 -0.00145,0.00472 -0.005895,0.011485 -0.004505,0.016419 0.00265,0.00292 0.006536,0.00565 0.0104167,0.00651 0.00607,-0.00152 0.010043,-0.00533 0.015612,-0.00749 0.00151,5.593e-4 0.004427,0.00257 0.004727,0.00435 -0.00595,0.00204 -0.00674,0.00541 -0.015612,0.00749 -0.00377,0.00253 -0.007458,0.021023 -0.007578,0.02582 -6e-5,0.00227 0.001566,0.00669 0.003086,0.00844 l 0.004023,0.00121 c 0.012056,-0.00673 0.015078,-0.017181 0.022474,-0.022682 0.00462,-0.00344 0.0233873,-0.012493 0.0257943,-0.015924 0.00127,-0.00181 0.004488,-0.021093 0.009688,-0.029193 0.00787,-0.012252 0.0179644,-0.024046 0.0246094,-0.037174 0.00516,-0.010199 0.008112,-0.026196 0.015612,-0.034505 0.00552,-0.00613 0.013516,-0.00968 0.0194011,-0.015195 0.00359,-0.00337 0.006784,-0.00867 0.010638,-0.011589 0.00394,-0.00298 0.0111933,-0.00506 0.0139583,-0.00917 -0.00172,-0.00483 -0.003413,-0.018371 -0.003073,-0.023412 l 0.00237,-0.00314 c 0.00487,-0.00166 0.0102696,-0.00221 0.0153906,-0.00219 l 0.002122,0.00193 c -0.018121,0.014373 3.6053e-4,0.024543 -0.006615,0.03668 -0.00357,0.00621 -0.0134032,0.010309 -0.0182292,0.015443 -0.0045,0.00478 -0.003341,0.011059 -0.005911,0.016654 -0.00471,0.010255 -0.0173264,0.019551 -0.0196224,0.030651 -0.0014,0.00676 6.4487e-4,0.01419 0.001172,0.020989 -0.00342,0.012154 -0.0253844,0.00636 -0.0227083,0.032096 l -0.00237,0.00242 c -0.00186,-0.00332 -0.005094,-0.00678 -0.008984,-0.00747 -0.00211,0.00154 -0.007077,0.00683 -0.008047,0.00917 -6.23e-4,0.00152 -0.007804,0.023471 -0.008034,0.02461 -9.731e-4,0.00471 -5.1594e-4,0.00966 -0.001888,0.014492 -0.00219,0.00771 -0.005633,0.0146 -0.005443,0.022917 6.827e-5,0.00276 0.001017,0.00664 0.002617,0.00893 0.00598,0.00854 0.0173699,0.00341 0.0255469,0.0041 -0.00241,0.00294 -0.0182469,0.015504 -0.0217839,0.017617 -0.00216,0.00673 -0.00944,0.01655 -0.0170183,0.017135 -0.00204,-0.00169 -0.004011,-0.00347 -0.005911,-0.00531 l -0.00237,0.00289 c 0.00681,0.022729 -0.0159331,0.014809 -0.005677,0.046094 0.00175,0.00856 -0.00178,0.016621 -9.5052e-4,0.024375 l 0.006159,0.00531 0.003073,-0.00217 0.001667,-0.0041 c 0.0029,-0.00314 0.008186,-0.00361 0.0120573,-0.00508 l 9.5053e-4,0.0041 c 0.00207,0.00127 0.004168,0.00386 0.005208,0.00604 0.00739,0.00448 0.0438921,-0.0027 0.0494401,-0.0099 0.00283,-0.012167 0.0124579,-0.020795 0.0255599,-0.018815 -0.00182,0.00522 -0.007291,0.00784 -0.009701,0.012787 0.00138,0.011715 0.002595,0.024167 0.001185,0.035964 -9.666e-4,0.00808 -0.00471,0.016087 -0.00332,0.024362 0.00289,0.017241 0.0220737,0.019744 0.0317057,0.030417 0.00664,0.00736 0.006431,0.015683 0.0111198,0.023399 0.00538,0.00884 0.0226425,0.00331 0.0272005,0.01207 5.5053e-4,0.027445 0.0105138,0.029048 -0.002604,0.056706 -0.00124,0.00262 -0.001622,0.00511 -0.003542,0.00749 -9.794e-4,0.00602 0.001937,0.00882 0.003307,0.013997 0.00139,0.00524 -8.258e-4,0.0099 0,0.015195 0.0034,0.00259 0.005898,0.00639 0.006628,0.010625 l 0.003555,0.00193 c 0.00895,-0.00197 0.008383,-0.015062 0.0179818,-0.015912 0.016818,0.00903 0.0324821,-0.00776 0.0513282,-0.00242 0.013272,0.00376 0.0184827,0.014444 0.0298177,0.02099 0.00353,0.00204 0.009023,0.00222 0.0115886,0.00531 0.00432,0.0052 0.006279,0.01227 0.0108854,0.017617 0.00246,0.00285 0.005234,0.00372 0.008034,0.00578 0.00536,0.00393 0.009399,0.00974 0.0141927,0.014245 l 0.004492,9.636e-4 c 0.012188,-0.00331 0.005099,-0.014873 0.0108854,-0.022448 0.00261,-0.00124 0.006362,-0.00192 0.009232,-0.00169 0.00218,8.77e-4 0.004698,0.00402 0.005208,0.00628 -9.922e-4,0.00257 -0.002172,0.0051 -0.003542,0.00749 -0.00276,0.00113 -0.004309,0.00316 -0.006159,0.00531 -0.00175,0.00203 -0.003838,0.00417 -0.004258,0.00699 -0.00166,0.011318 0.0195594,0.036818 0.0283854,0.03957 0.014344,0.00447 0.030737,-0.020719 0.035026,-0.031849 -0.00223,-7.49e-4 -0.004823,-0.00382 -0.005443,-0.00604 0.00394,-0.00213 0.009952,-0.00162 0.0137109,7.292e-4 l 0.004505,-0.00146 c 0.00471,-0.00526 0.006594,-0.00833 0.0144401,-0.00844 l 0.003073,-0.00241 c 0.00126,-0.00241 0.001324,-0.00688 4.6867e-4,-0.00941 l 0.001406,-0.00315 c 0.00517,0.00714 0.0155918,0.00734 0.009232,0.020755 -0.00528,0.011143 -0.0163029,0.010054 -0.02556,0.014479 -0.00406,0.00194 -0.007771,0.00986 -0.0109505,0.013112 -0.00692,0.00706 -0.0117564,0.011726 -0.0108854,0.022357 0.00111,0.013571 0.014319,0.017994 0.023737,0.025104 0.0051,0.00385 0.0117589,0.011558 0.0186979,0.011263 l 0.0220052,-0.00499 c 0.00487,-0.00144 0.0103372,-0.00574 0.0151302,-0.00797 2.7333e-4,-7.872e-4 0.001372,-0.00341 0.001432,-0.0041 2.3866e-4,-0.00301 -0.001352,-0.00679 -0.001432,-0.0099 -2.0067e-4,-0.00871 0.003168,-0.016491 0.001888,-0.025573 -6.02e-4,-0.0043 -0.003747,-0.00973 -0.003307,-0.013998 0.00165,-0.015909 0.0239384,-0.011774 0.0283984,-0.019792 0.00223,-0.00159 0.0176562,-0.014441 0.0182162,-0.014714 0.00106,-0.00243 0.001763,-0.00605 0.003073,-0.0082 0.00213,-0.0035 0.0135992,-0.010263 0.0201302,-0.014544 -0.00388,0.00733 -0.0314064,0.052907 -0.0333724,0.055091 -0.00456,0.00506 -0.0109889,0.00424 -0.0168099,0.00651 -0.00301,0.00325 -0.00348,0.01469 0,0.017617 0.015479,0.00803 0.0206536,-0.010325 0.0309896,-0.010859 0.00694,0.00124 0.013855,0.011187 0.017513,0.016406 0.00144,0.00205 0.0041,0.00346 0.00543,0.00579 0.00133,0.00232 0.002156,0.00589 0.003086,0.00844 l -0.002591,7.161e-4 c -0.00281,-0.0064 -0.0192224,-0.019153 -0.0265234,-0.017135 -0.00685,0.0029 -0.004402,0.012045 -0.0113542,0.016901 -2.4334e-4,0.00284 -2.92e-4,0.00701 -0.001172,0.00965 -0.00271,0.00805 -0.0177474,0.00945 -0.0177474,0.021484 0,0.010925 0.0190435,0.021308 0.0253125,0.031602 l 0.00474,7.292e-4 c 0.0023,-4.907e-4 0.005428,-0.0028 0.006628,-0.00483 l 0.004974,-4.82e-4 c 0.00588,0.00929 0.0196036,0.030334 0.0309896,0.030885 0.00697,3.374e-4 0.0140477,-8.956e-4 0.0210677,-2.473e-4 l 0.002591,0.0029 c -0.00101,0.00713 3.4266e-4,0.011494 0.005208,0.016641 l 4.6867e-4,-0.0012 c 0.00205,0.00479 0.0440058,0.034659 0.0511068,0.03957 0.00708,0.0049 0.0118597,0.012316 0.0172657,0.018581 0.00303,0.00351 0.005491,0.00526 0.007331,0.00988 0.00492,0.00238 0.008343,0.00671 0.0134896,0.00918 0.00742,0.00355 0.013478,0.005 0.021523,0.00603 0.00397,5.033e-4 0.0088,0.00277 0.012773,0.00242 0.0082,-7.17e-4 0.00949,-0.00627 0.01444,-0.00845 0.00111,-4.907e-4 0.00284,-3.167e-4 0.00402,-7.162e-4 0.00646,-0.0022 0.012548,-0.00684 0.018919,-0.00965 l -0.00189,-4.82e-4 c 0.010592,-0.00523 0.035568,-0.034887 0.037383,-0.046589 0.00117,-0.00757 -0.00161,-0.018361 0.00237,-0.025091 l 0.00354,9.635e-4 c 0.00669,0.00949 0.00487,0.034803 -2.347e-4,0.044883 -0.00124,0.00244 -0.00343,0.00394 -0.00496,0.00604 -0.00213,0.00293 -0.00411,0.00776 -0.00569,0.011107 -0.00179,0.00375 -0.0025,0.00852 -0.00474,0.012057 -0.00604,0.00959 -0.02897,0.017594 -0.022943,0.032096 -0.00331,0.010742 -0.01403,0.017474 -0.014896,0.029935 -0.00135,0.019319 0.01612,0.036344 0.034531,0.039088 0.010004,0.00149 0.019257,-0.00111 0.028633,-0.0041 0.00323,-0.00103 0.00731,-0.00845 0.010404,-0.011107 0.00981,-0.00841 0.013672,-0.010224 0.015378,-0.024128 0.00165,-0.013383 -0.010362,-0.020978 -0.012539,-0.038138 0.00168,-0.00367 0.00447,-0.00626 0.0078,-0.00844 0.00313,0.00558 -0.0055,0.019794 0.01681,0.017135 -4.994e-4,0.00437 0.00106,0.00889 0.00379,0.012305 0.0023,2.946e-4 0.00564,0.00235 0.00685,0.00435 7.426e-4,0.00691 -0.00168,0.014456 0.00141,0.02099 0.00452,0.00257 0.00995,0.00652 0.015391,0.00652 0.00632,0 0.023419,-0.00738 0.027214,-0.012786 l 0.00237,0.00241 c -0.00458,0.02191 -0.016644,0.01674 -0.026979,0.023893 -0.00357,0.00248 -0.00639,0.010442 -0.0078,0.014479 l -0.00332,0.00241 c -0.00308,-6.527e-4 -0.00713,-5.847e-4 -0.010169,2.473e-4 l -0.0026,0.0029 c -6.02e-4,0.00691 -0.00308,0.031085 -0.00212,0.036432 6.233e-4,0.00351 0.00249,0.00718 0.00284,0.011094 0.00104,0.011745 -0.00306,0.025667 -0.010182,0.035 -0.00241,0.00316 -0.00591,0.00557 -0.00828,0.00868 -0.00334,0.00438 -0.00577,0.0085 -0.00947,0.012787 -4.78e-4,0.00312 -6.54e-4,0.00651 -2.346e-4,0.00965 -0.00165,0.00386 -0.0056,0.0057 -0.00781,0.00941 -0.0023,0.00387 -0.00248,0.00839 -0.00471,0.01207 -0.00394,0.00647 -0.012717,0.010238 -0.016328,0.017604 -0.00195,0.00398 -0.00173,0.00766 -0.00543,0.010859 -0.00635,0.00549 -0.018779,0.00474 -0.021536,0.012799 l 9.505e-4,0.00483 0.00331,0.0024 c 0.00463,0.00125 0.036452,-0.013725 0.04069,-0.017357 0.00345,-0.00295 0.00756,-0.00952 0.01112,-0.011589 0.00632,-0.00366 0.015024,-0.00133 0.021771,-0.012305 0.00453,-7.874e-4 0.00815,-0.00398 0.012305,-0.00483 0.00344,-7.042e-4 0.00739,5.34e-5 0.010885,-9.766e-4 0.00433,-0.00128 0.00658,-0.0051 0.011589,-0.00555 -0.00278,0.00495 -0.00358,0.013395 -0.00214,0.018828 6.466e-4,0.00246 0.025283,0.03177 0.028151,0.034023 0.00239,0.00188 0.00834,0.00439 0.011367,0.0041 0.003,-2.946e-4 0.004,-0.0023 0.00591,-0.0041 0.00204,-0.0019 0.00453,-0.0031 0.00663,-0.00483 0.00806,-0.00664 0.011544,-0.019659 0.015846,-0.028724 0.00303,-0.0064 0.00961,-0.01404 0.014427,-0.019297 l 0.00214,0.00385 c -1.493e-4,0.00157 -1.186e-4,0.00357 -4.686e-4,0.00508 l -0.00664,0.021237 c -0.00885,0.017484 -0.032692,0.03494 -0.02388,0.057422 0.00167,0.00427 0.015818,0.022784 0.020013,0.029206 0.00609,0.00931 0.021832,0.012991 0.031784,0.0087 l 0.00237,-0.00267 c 0.00491,-0.00234 0.016401,0.00232 0.022487,0.00169 0.010421,-0.00106 0.016293,-0.014943 0.023646,-0.016172 0.00323,0.00622 -0.00389,0.019248 -0.00471,0.026315 -0.0028,0.004 -0.01007,0.00627 -0.01444,0.00844 -0.00405,0.00453 -0.00313,0.011011 -0.00362,0.016576 -3.373e-4,0.00377 -0.00227,0.00684 -0.00276,0.010221 -9.602e-4,0.0065 0.00205,0.00741 0.00378,0.012305 0.00116,0.00328 2.153e-4,0.00734 9.505e-4,0.010612 7.17e-4,0.00317 0.00333,0.00437 0.00473,0.00676 0.00136,0.00232 0.00143,0.00593 0.00309,0.0082 0.0013,0.00179 0.00423,0.00368 0.00591,0.00531 l 7.162e-4,0.00507 c -0.00318,0.00542 -0.00671,0.00995 -0.00451,0.016654 0.00241,0.00164 0.00812,0.00557 0.010885,0.00579 0.00472,3.8e-4 0.00795,-0.00246 0.012305,0.00219 l 0.00521,2.346e-4 c 0.00273,-0.00316 0.00791,-0.00381 0.011589,-0.00555 0.00185,-0.00526 -1.34e-5,-0.010411 4.82e-4,-0.01569 4.353e-4,-0.00463 0.00193,-0.00959 0.00259,-0.014232 0.00116,-0.00806 -0.00117,-0.015418 0.00828,-0.019805 0.00595,-0.00276 0.013652,1.56e-4 0.01987,-0.00168 0.00531,-0.00157 0.00922,-0.00532 0.013971,-0.00772 l 0.00401,2.346e-4 c 3.073e-4,0.00228 -0.00109,0.00598 -0.00284,0.00749 4.013e-4,0.00761 0.00756,0.015362 0.00284,0.023164 -0.00672,-0.0023 -0.00841,-0.012183 -0.01845,-0.00844 -0.00417,0.00742 -0.00357,0.038066 -2.347e-4,0.045859 0.00204,0.00476 0.00917,0.011849 0.013008,0.01543 0.00531,0.0096 -0.01384,0.026311 -2.34e-4,0.043451 l -0.00214,0.00339 c -0.00263,-3.753e-4 -0.00735,3.407e-4 -0.00945,0.00217 l 2.34e-4,0.00457 c 0.00369,0.00412 0.01067,0.01053 0.016081,0.011836 0.00305,7.361e-4 0.00641,3.446e-4 0.00947,0.00145 0.00283,0.00102 0.00485,0.00264 0.00805,0.00314 l 0.00307,-0.00264 c 0.00327,-0.00725 3.474e-4,-0.025003 0.00521,-0.032096 0.017945,-0.013063 0.00367,-0.013878 0.00875,-0.027031 0.00422,-0.010942 0.014159,-0.010776 0.020586,-0.018581 l 0.00284,-7.162e-4 c -0.0023,0.00387 -0.00197,0.00848 -0.00402,0.012539 -0.00437,0.00862 -0.012889,0.011208 -0.00306,0.022201 5.587e-4,0.00285 -6.714e-4,0.00899 -0.0038,0.01013 -0.00655,0.00709 -0.011416,0.010654 -0.00993,0.021719 l 0.00284,0.0029 c 0.00633,-4.394e-4 0.011652,-0.00494 0.016576,-0.00508 0.00478,-1.28e-4 0.010104,0.00149 0.014896,7.162e-4 0.00145,-2.346e-4 0.00305,-0.00129 0.00449,-0.00143 0.00657,-6.722e-4 0.010979,0.00437 0.017031,0.0053 0.00286,4.393e-4 0.021186,-0.00152 0.024609,-0.00217 l 0.00118,0.00217 c -0.00451,0.00669 -0.025869,0.012747 -0.033346,0.01013 -0.00533,-0.00186 -0.00844,-0.00707 -0.014909,-0.00723 -0.00673,-1.706e-4 -0.00693,0.00339 -0.011589,0.00555 -0.0025,0.00116 -0.00625,0.00137 -0.009,0.00241 -0.00418,0.00486 -0.00823,0.011081 -0.013008,0.015208 -0.003,0.00259 -0.00705,0.00391 -0.010169,0.00651 -0.00325,0.00614 -0.00215,0.012051 -0.00402,0.018346 -0.00355,0.00345 -0.00889,0.00188 -0.012773,0.00434 -0.00623,0.00394 -0.00483,0.018395 -0.00828,0.025091 -0.00984,0.00241 -0.025271,-0.00214 -0.02082,0.016419 0.00256,0.00303 0.00447,0.00756 0.00733,0.01013 0.00364,0.00327 0.00679,0.00509 0.00969,0.00868 l 0.00113,-3.774e-4 c 0.00621,-0.00254 0.00729,-0.00684 0.012383,-0.010885 0.00171,-0.00135 0.00405,-0.00189 0.00576,-0.00326 0.00157,-0.00125 0.00252,-0.0033 0.00406,-0.00457 0.00561,-0.0046 0.016461,-0.00899 0.023229,-0.010742 0.00935,-0.00243 0.025681,0.00548 0.032838,0.00203 0.00444,-0.00214 0.022117,-0.015905 0.026367,-0.016237 0.018846,-0.00147 0.02866,0.017902 0.041211,0.028464 0.012713,0.010703 0.039005,0.00971 0.052213,-5.207e-4 l 0.00604,-0.019883 c 0.00909,-0.00702 0.016048,-0.003 0.026081,-0.00414 0.011228,-0.00126 0.026651,-0.026585 0.030351,-0.036849 0.00248,-0.00688 0.00406,-0.0147 0.00602,-0.021784 4.1e-4,-0.00148 -2.02e-4,-0.00359 1.56e-4,-0.0051 0.00145,-0.00602 0.00858,-0.011266 0.013724,-0.014062 1.666e-4,-6.187e-4 0.00166,-0.00597 0.00164,-0.00625 -0.00117,-0.011629 -0.00409,-0.025873 -0.00376,-0.037409 4e-5,-0.00165 0.00105,-0.00235 0.00172,-0.00385 0.00426,-0.00956 0.00719,-0.019336 0.010391,-0.029297 1.24e-4,-3.84e-4 0.00653,-0.00847 0.00704,-0.00913 0.00962,-0.0017 0.02117,0.00696 0.027682,0.012891 l 0.00616,5.34e-4 0.00967,-0.00629 0.00383,-0.015326 0.00279,-0.00134 0.00375,0.00243 0.00896,-4.427e-4 c 0.00245,0.00195 0.01016,0.00793 0.013177,0.00866 l 0.00763,-0.00478 c 0.00431,-0.00118 0.00855,0.00226 0.011979,0.0043 l 0.00353,-7.682e-4 0.00445,-0.00549 c 0.00339,-7.617e-4 0.011305,-0.0032 0.013776,-0.00594 0.00145,-0.00181 4.867e-4,-0.00787 -4e-5,-0.00983 l 0.00129,-0.00264 0.00223,-7.813e-4 c 0.00285,-0.00455 0.00645,-0.013759 0.00513,-0.019115 l 0.0015,-0.00208 0.016237,2.993e-4 c 0.002,-0.00102 0.00415,-0.00399 0.00483,-0.00607 5.933e-4,-0.00684 -0.0076,-0.015625 -0.00555,-0.03194 l 0.00444,-0.00664 0.022773,0.00103 c 0.00191,0.00175 0.00673,0.00488 0.00954,0.0047 -6.67e-5,-0.0056 7.725e-4,-0.012316 0.00273,-0.017604 l 0.00427,-0.00379 0.00411,-5.86e-4 0.00581,0.00677 0.00187,5.6e-4 0.00168,-0.00151 5.34e-4,-0.00701 0.0022,-0.00284 -0.00169,-0.00794 0.00445,-0.00361 0,-0.00303 -0.00319,-0.00339 c 0.00408,-0.00561 0.00233,-0.011232 0.0044,-0.017044 0.00142,-5.507e-4 0.00549,-0.00279 0.00578,-0.00456 l -5.86e-4,-0.0051 c 0.00624,-0.00995 0.022687,-0.02762 0.016823,-0.040338 l -0.00599,-0.00603 -0.00151,-1.82e-4 c 0.00116,-0.00934 0.012199,-0.01644 0.021055,-0.01332 l 0.00129,-0.00359 c -0.0013,-0.00211 -0.00382,-0.00797 -0.00284,-0.010586 0.00561,-0.00404 0.0098,-0.02194 0.012214,-0.029362 l 0.00503,-0.00417 c 0.00295,0.00141 0.00714,0.00305 0.011224,0.00413 l 0,-2.30520948 c -0.00141,-4.3546e-4 -0.00222,-7.835e-4 -0.00402,-0.001302 l -0.012734,-0.0173438 c -0.019887,-0.0117319 -0.069369,-0.00389 -0.093464,-0.002578 -4.567e-4,2.56e-5 -0.013108,-0.004251 -0.014375,-0.004661 -0.00303,-0.004257 -0.00436,-0.0141165 -0.00464,-0.0190886 -0.00237,-0.001818 -0.00802,-0.007169 -0.00857,-0.0103906 -0.00259,2.4327e-4 -0.00644,-0.002429 -0.00784,-0.004401 -0.00494,2.7313e-4 -0.010344,0.002916 -0.014987,0.002852 -0.00441,-6.4e-5 -0.023163,-0.009591 -0.027448,-0.0116016 -2.434e-4,-1.152e-4 -0.00554,-0.007013 -0.00609,-0.007708 l -7.8e-5,-0.0117448 -0.00303,-0.004141 c -0.033228,-0.008369 -0.018918,-0.0141551 -0.033932,-0.020625 -0.00485,0.002337 -0.00924,-0.002169 -0.014167,-0.001055 -0.00801,0.001799 -0.023928,0.006844 -0.025195,0.0175391 l -0.00323,0.0272787 7.422e-4,-1.334e-5 c -0.00376,0.006344 -0.017352,0.0180185 -0.023464,0.0212109 -0.00934,-0.003284 -0.019016,-0.008095 -0.028503,-0.0104167 -0.00619,-0.001511 -0.013339,-0.003661 -0.019792,-0.002982 -0.011215,0.001171 -0.012118,0.005761 -0.024388,7.4219e-4 -0.016174,-0.006619 -0.00823,-0.0304448 -0.014362,-0.0432943 3.33e-5,-0.003073 0.00659,-0.008572 0.0088,-0.0100781 0.00196,-0.009901 0.011696,-0.027916 0.011901,-0.0329948 4.054e-4,-0.01017821 -0.00525,-0.02022011 -0.0047,-0.03062502 -0.00568,-0.00178 -0.011714,-0.01100383 -0.013503,-0.01619793 -0.0012,-5.0353e-4 -0.0041,-0.0010159 -0.00529,-1.5626e-4 -0.00237,0.004372 -0.00887,0.01008977 -0.013906,0.01104167 -0.00391,-7.2336e-4 -0.00799,-0.0048414 -0.011003,-0.0071224 -0.00492,8.706e-4 -0.014891,-0.0039934 -0.018737,-0.0065234 l -0.00397,5.9893e-4 -0.00487,0.0055078 -0.00608,-0.0039453 c -0.0063,3.2007e-4 -0.015902,-1.666e-5 -0.021706,0.0026042 l -0.00413,0.0072005 -0.00245,2.6e-5 c -0.0034,-0.004923 -0.011389,-0.01038213 -0.017253,-0.01164063 -2.433e-4,-0.001748 -0.00173,-0.004838 -0.00345,-0.005651 l -0.0066,4.1667e-4 -0.00922,0.0070443 c -0.00376,9.474e-4 -0.00806,-0.0028855 -0.011354,-0.0040885 -0.010976,-0.00402 -0.021702,-0.0034213 -0.032904,-0.0064062 -2.006e-4,-5.533e-5 -0.00196,5.0913e-4 -0.00225,5.8593e-4 l -0.00375,0.0041797 c -0.0025,-4.908e-4 -0.00538,0.0030796 -0.00754,0.0034635 -0.00514,9.218e-4 -0.018199,0.0011802 -0.023047,-0.0017708 -4.78e-4,-0.002106 -0.00226,-0.0071434 -0.00428,-0.0083854 l -0.00303,7.5521e-4 -0.00323,0.0034375 -0.00311,-0.0030729 -5.986e-4,-0.0050391 c -0.016635,-0.001024 -0.072645,-0.00647155 -0.082409,-0.00533855 -0.00642,7.4256e-4 -0.00647,-2.896e-4 -0.011523,-6.6406e-4 L 1.2114175,0.00122503 C 1.1967375,1.3702674e-4 1.1781432,-4.3913355e-5 1.1593862,1.4086674e-5 L 1.1592949,7.5333371e-7 Z m -0.99126349,1.4259382 -0.004492,0.00121 -0.002604,0.00314 c -9.026e-4,0.00764 0.003801,0.00919 0.007331,0.014232 0.00124,0.00176 0.003742,0.010538 0.004492,0.013034 0.00362,0.00207 0.009679,0.0022 0.013737,0.00169 0.00409,-0.00581 -0.00168,-0.011725 -0.00332,-0.016888 -0.0015,-0.00475 1.7247e-4,-0.00896 -0.004271,-0.012799 -0.003985,-0.00344 -0.008778,-0.00133 -0.0108594,-0.00362 l -1.333e-5,0 z m -0.0184375,0.022669 -1.333e-5,1.33e-5 c -0.0051,0.0099 -0.0110814,0.022892 -0.0177344,0.031615 -0.00304,0.00399 -0.008546,0.00721 -0.0104167,0.012057 -1.792e-4,4.653e-4 -9.3772e-4,0.00408 -9.5052e-4,0.00458 -1.9627e-4,0.00812 0.004973,0.013829 0.008763,0.020273 0.00208,0.00355 0.005707,0.011693 0.008997,0.013763 0.00943,0.00183 0.0132863,-0.00299 0.0189193,-0.00893 -2.518e-4,-0.00481 0.001693,-0.013103 0.005443,-0.016406 4.31e-4,-0.00231 -5.746e-4,-0.00635 -0.00237,-0.00797 0.00408,-0.011646 0.014556,-0.025489 0.006862,-0.037643 -0.00255,-0.00115 -0.007131,-9.794e-4 -0.009701,0 -0.00373,-0.00369 -0.002099,-0.00959 -0.007799,-0.011354 z m 0.72393266,0.588568 c -7.746e-4,5.827e-4 -0.001801,0.0013 -0.003021,0.0021 l 4.3e-4,-8.854e-4 0.002591,-0.00121 z M 1.0864579,2.3234907 c -0.00843,0.00222 -0.014672,0.00733 -0.022409,0.010221 -0.00462,0.00172 -0.00952,2.467e-4 -0.013789,0.00389 -0.00227,0.00347 -0.00599,0.011729 -0.0051,0.01612 l 0.00493,0.00866 0.00654,3.253e-4 c 0.00692,-0.034768 0.025949,-0.027785 0.031992,-0.038424 l -0.00216,-7.943e-4 z m -0.050781,0.2751825 0,1.33e-5 c -0.00214,2.387e-4 -0.00391,0.00125 -0.006,0.00223 -0.015585,0.00723 -0.00881,0.013392 -0.015846,0.018099 -0.00554,0.00371 -0.010332,0.00116 -0.012773,0.00988 -0.00287,0.010268 0.00124,0.013725 0.00544,0.021471 l 0.00284,-7.161e-4 c 8.322e-4,-0.00411 0.00124,-0.00938 0.00426,-0.012539 l -9.376e-4,-0.00508 0.00212,-0.00362 c 0.00319,-0.00157 0.00972,-0.00271 0.01207,-0.00483 0.00205,-0.00185 0.00263,-0.00514 0.00378,-0.00749 0.00239,-0.00489 0.00744,-0.00871 0.00923,-0.013516 l -0.00189,-0.00385 c -8.194e-4,-1.24e-4 -0.00157,-1.313e-4 -0.00229,-5.33e-5 z m 0.036823,0.00779 c -0.00286,0.0012 -0.00637,0.00197 -0.00945,0.00217 l -0.00285,0.00289 c -1.62e-4,0.00752 0.00926,0.012302 0.01112,0.023646 0.00143,0.00872 -0.00292,0.016791 -0.00212,0.025339 l 0.00354,0.00219 0.00402,-0.00169 c 4.18e-4,-0.00218 0.0023,-0.018674 0.00214,-0.020039 -1.747e-4,-0.00146 -0.00137,-0.00309 -0.00167,-0.00457 -0.00193,-0.00958 -0.00174,-0.020674 -0.00471,-0.029935 l -1.34e-5,0 z m -0.026497,0.027266 c -0.00943,0.00227 -0.01047,0.00489 -0.01207,0.013984 l 0.00426,0.00169 c 0.00373,-0.00367 0.00976,-0.00578 0.011836,-0.010846 l -7.161e-4,-0.00388 -0.00331,-9.505e-4 z m 0.283034,0.1628907 c -3.833e-4,4e-5 -7.144e-4,1.386e-4 -9.896e-4,2.866e-4 l -0.00128,0.00645 7.682e-4,0.00168 0.00392,-2.66e-5 0.0015,0.00131 0.00504,-9.765e-4 0.00129,-0.00379 -9.505e-4,-0.00225 c -0.00165,-9.09e-4 -0.00659,-0.00297 -0.00928,-0.00268 l -1.34e-5,0 z"
     id="rect4"
     inkscape:connector-curvature="0" />
  <path
     style="fill:#009460"
     d="m 4.7016681,0.14322924 c -0.00458,-1.858e-4 -0.016175,0.004611 -0.018945,0.005547 -10e-4,0.00249 -0.00494,0.0104228 -0.00784,0.0112761 -0.00752,8.7058e-4 -0.018227,-0.009886 -0.022917,-0.014375 l -0.00565,-9.8959e-4 c 0,0.005358 -0.00386,0.0156459 -0.00845,0.0186719 l -0.00453,9.1146e-4 -0.00262,-0.003424 -4.82e-4,-0.009857 -0.0034,-7.8125e-4 -0.00417,0.001849 -0.010534,-0.003281 c -0.00216,0.002727 -0.00342,0.0125307 -0.00372,0.0158594 l -0.00247,0.002435 -0.012461,0.001042 -0.00534,0.005247 c -0.00315,6.4653e-4 -0.00827,0.001 -0.010404,0.003516 -0.0017,0.003668 -8.502e-4,0.0105069 8.334e-4,0.0140104 l 0.0032,5.9896e-4 0.00589,-0.004687 0.00397,-1.6927e-4 0.00243,0.001914 c 8.066e-4,0.003207 0.0085,0.0255807 0.013398,0.0252735 l 0.00531,-0.003555 0.00283,5.8594e-4 0.00148,0.002474 c 4.993e-4,0.002759 -8.829e-4,0.007546 -0.00195,0.010013 0.00286,-3.8409e-4 0.00792,5.7143e-4 0.010221,0.002161 0.01413,0.009764 -5.16e-4,0.0262151 0.025,0.0282162 l 0.00172,-0.001133 c 0.00384,0.001997 0.013081,0.006635 0.012539,0.0122135 l -0.0019,0.001875 -0.00435,0.001107 -0.00191,0.002253 c -0.00297,0.005614 0.00904,0.0138299 -0.00471,0.024375 l -0.00297,-0.002122 -0.00284,0.001107 c -0.00778,0.006337 0.00418,0.0327981 2.607e-4,0.0386068 l -0.00818,0.008073 -0.00962,1.172e-4 -0.00215,0.008867 0.00337,0.003815 -5.34e-5,0.003776 c -0.00619,-0.002068 -0.014037,-0.004727 -0.020365,-0.001667 -0.00366,-6.2307e-4 -0.019225,-0.004195 -0.020677,-0.008112 l -0.00814,0.004284 -0.00339,-5.9893e-4 -0.00466,-0.007409 c -0.00273,-0.002164 -0.012895,0.001887 -0.01543,0.002969 l -0.00895,0.003828 c -0.00705,0.001799 -0.035583,0.002036 -0.039492,0.009544 -0.00235,0.004513 -0.00457,0.009686 -0.00728,0.0139583 -0.0058,0.009137 -0.024787,0.0131669 -0.033737,0.0245313 l -0.00434,-5.9893e-4 -0.0051,0.003177 c -0.00159,-1.494e-4 -0.012507,-0.001333 -0.01319,-0.001237 -0.00264,3.926e-4 -0.027339,0.007854 -0.028542,0.009258 -0.0052,-0.00112 -0.00736,0.001819 -0.011524,0.003138 -0.00751,0.002369 -0.00847,5.358e-4 -0.014388,0.008034 -5.593e-4,7.1056e-4 -0.00157,0.003517 -0.0021,0.003971 -0.00671,0.005742 -0.032016,0.0260379 -0.033242,0.0370573 -0.00116,0.0104087 0.00187,0.0208137 0.00414,0.0308594 l -0.00328,0.010013 c -0.00177,0.002593 -0.00705,0.004389 -0.010013,0.004479 -0.00748,0.004116 -0.00376,0.0227279 -0.00612,0.0307552 -0.018069,-4.2247e-4 -0.035466,-0.003648 -0.053151,-0.006992 -5.846e-4,-1.11e-4 -0.00279,5.2647e-4 -0.0032,3.5154e-4 -0.012329,-0.005166 -0.023423,-0.009995 -0.0325,-0.0204297 l -0.0049,-7.8125e-4 -0.00757,0.003932 c -0.012704,-0.002016 -0.028883,-0.00771 -0.041302,-0.001927 l -0.00283,-0.001719 -0.00227,1.6927e-4 c -0.00711,-0.004807 -0.015274,-0.0135626 -0.020417,-0.0201823 -2.654e-4,-3.5e-4 -0.00445,-0.0122619 -0.00503,-0.0138412 l -0.00432,-0.001914 c -0.012662,0.004206 -0.017155,0.005465 -0.026745,-0.004323 -0.00368,-6.6574e-4 -0.011678,0.004312 -0.014362,0.006354 -0.0025,-0.002208 -0.00944,-0.009162 -0.00991,-0.0127214 -0.00522,-0.001882 -0.011496,-0.0117424 -0.015013,-0.0118359 -0.0155,-4.054e-4 -0.021222,0.002469 -0.030299,-0.0111458 -0.00287,-0.001312 -0.00828,-3.0153e-4 -0.010937,0.001081 -5.76e-4,-0.001812 -0.00306,-0.007109 -0.00523,-0.007604 l -0.00207,0.001315 -0.00118,0.00776 -0.00301,-4.0366e-4 -0.00431,-0.006081 -0.0034,-5.7294e-4 c -0.00289,-0.007853 -0.00152,-0.0173413 -0.00629,-0.0240755 -0.00745,-0.006896 -0.015391,0.001272 -0.022995,6.38e-4 -0.00216,-1.798e-4 -0.00435,-4.846e-4 -0.00654,-7.9427e-4 l 0,3.0053401 c 0.00534,0.0018 0.010798,2.133e-4 0.016497,0.00645 0.00275,-0.00175 0.00797,-0.00288 0.011185,-0.00221 l 0.00482,0.00286 0.00202,0.00587 0.010417,0.00118 c 0.00342,0.00335 0.00744,0.00665 0.010365,0.010443 7.26e-5,4.44e-4 6.067e-4,0.00271 5.467e-4,0.00303 -0.00122,0.00623 -0.00196,0.013613 -0.00383,0.019622 -8.77e-4,0.00282 -0.00376,0.00568 -0.00488,0.00849 -0.00141,0.00354 -0.00437,0.023156 -0.00331,0.026237 0.00186,0.00197 0.00685,0.00249 0.0093,0.00212 0.00441,-0.00244 0.00955,-0.00602 0.01418,-0.00785 0.00844,-0.00334 0.010815,0.00205 0.017162,-0.00935 0.00199,-7.618e-4 0.00972,0.00196 0.013229,0.00198 0.00609,3.33e-5 0.017517,-0.016453 0.021289,-0.021224 0.00618,-6e-5 0.018677,-0.010942 0.022578,-0.014987 l 0.00428,-7.422e-4 c 0.00406,-0.011428 0.026116,-0.012124 0.035612,-0.013008 l 0.00592,0.00381 c 0.00828,7.874e-4 0.015722,-0.00356 0.024024,-0.00418 l 0.0098,0.01082 0.0015,-5.6e-4 c 0.00674,-0.015914 0.016114,-0.011167 0.032813,-0.011888 l 0.00728,-0.00486 9.505e-4,-0.0032 -0.00129,-0.00284 -0.00333,-0.00134 -1.56e-4,-0.00547 -0.00298,-2.66e-5 -5.467e-4,-0.00171 c 6.467e-4,-0.0017 0.00352,-0.00773 0.00563,-0.00809 l 0.00259,0.00247 0.00224,-1.693e-4 c 0.00441,-0.00384 0.0097,-0.013369 0.014883,-0.015221 0.0038,2.473e-4 0.012646,0.00182 0.015612,0.00462 0.00256,0.0075 0.0085,0.016678 0.014766,0.021628 l 3.646e-4,0.00284 c -0.00406,0.00427 -0.00761,0.012659 -0.00828,0.018463 1.833e-4,6.02e-4 0.00164,0.00565 0.00182,0.00587 0.013336,0.01576 0.014745,0.012737 0.018411,0.032227 l 0.00204,0.00266 0.00391,2.67e-5 c 0.00803,-0.00393 -0.00496,-0.025384 0.016784,-0.038815 l 0,7.552e-4 0.016758,-0.00236 c 0.00883,0.00184 0.00963,0.00737 0.015,0.011992 0.00932,0.00801 0.018475,0.00978 0.022201,0.022813 -0.00384,0.00293 -0.00541,0.00682 -0.00842,0.00978 -0.0067,0.00658 -0.01823,0.012455 -0.019297,0.023112 l 0.00126,0.00587 0.00241,0.00151 c 0.00593,7.234e-4 0.011361,-0.00219 0.016589,-0.00441 0.00272,-0.00116 0.019648,2.574e-4 0.022695,7.032e-4 0.00793,-0.00208 0.015029,-0.011426 0.017227,-0.018958 l 0.00411,-0.00242 0.00445,9.636e-4 c 0.004,0.00508 0.00269,0.00988 0.00474,0.014779 0.00415,0.00987 0.019329,0.018504 0.028125,0.024935 0.00871,4.567e-4 0.042413,-0.00234 0.045143,0.00918 0.00168,0.025751 -0.024784,0.025581 -0.034544,0.037864 0.00278,0.00465 0.010868,0.00998 0.015443,0.012435 0.00406,0.011249 -0.011569,0.021495 0.00798,0.029531 l 0.00237,0.00643 -8.985e-4,0.00254 -0.022031,0.017708 c 1.747e-4,0.00144 6.42e-4,0.00327 4.56e-4,0.00471 l 0.005,0.00513 c 2.607e-4,0.00832 4.08e-4,0.021808 -0.00798,0.026758 -0.00155,0.00411 -0.00187,0.011381 -1.04e-4,0.015495 l 0.00409,0.00285 0.00857,-0.00276 0.00259,7.683e-4 0.00479,0.00608 c 0.00586,0.00282 0.01191,-0.00396 0.02543,0.00414 0.00222,0.00942 -0.00165,0.023322 9.375e-4,0.030039 l 0.00405,0.00342 c -0.00169,0.00693 -0.00236,0.01924 0.00113,0.025872 6.467e-4,0.00124 0.00469,0.00467 0.00555,0.00608 0.0014,0.00229 2.9e-4,0.00541 0.00328,0.0072 0.00361,0.010196 -0.015276,0.024532 -0.012109,0.034101 l 0.00258,0.00303 0.00259,3.906e-4 c 0.00435,-0.00485 0.012262,-0.011355 0.018672,-0.013268 l 0.00223,2.08e-4 c 5.593e-4,0.00556 -0.00101,0.012558 -0.0029,0.017721 l 0.00109,0.00379 0.00665,0.00382 c 7.617e-4,0.00448 4.093e-4,0.00956 2.34e-4,0.014063 0.00284,0.00338 0.00907,0.012159 0.00935,0.016862 l -0.00169,0.00565 c -0.00717,0.00227 -0.014622,0.013616 -0.016615,0.020312 7.17e-4,0.0076 0.00263,0.020885 0.00641,0.027773 l -0.00471,0.01319 c 0.00169,0.0069 0.00383,0.014004 0.00514,0.020977 2.86e-4,0.00156 3.33e-5,0.00747 3.773e-4,0.00852 0.00189,0.00571 0.00742,0.0085 0.01013,0.012904 0.00157,0.00254 0.00182,0.00657 0.00346,0.00901 0.00217,0.00323 0.0067,0.00582 0.00868,0.0091 0.00205,0.00342 0.00295,0.013482 0.00699,0.015117 0.00213,-9.4e-5 0.00532,0.00124 0.00685,0.00267 l 0.00742,-5.987e-4 0.00816,0.00624 0.00372,0.012995 c -8.066e-4,0.00137 -0.00178,0.00271 -0.00214,0.00428 l 0.00167,0.00189 0.00503,-0.00112 c 0.00243,0.00542 -0.00323,0.011367 1.04e-4,0.016992 l 0.00409,0.00398 c -0.00484,0.00562 -0.00761,0.017684 -0.00643,0.024883 -0.026732,0.026049 -0.00686,0.0337 -0.016393,0.059766 0.00125,0.00495 0.00411,0.00863 0.00701,0.012682 0.00175,3.114e-4 0.00649,0.00186 0.00721,0.00382 0.00117,0.013187 -0.012662,0.024614 -0.017578,0.035599 -7.106e-4,0.00156 -0.00101,0.012255 -0.00173,0.013971 -0.00419,0.00998 -0.011484,0.020587 -0.01681,0.03013 -2.094e-4,3.753e-4 4e-5,0.00776 -2.34e-4,0.0085 -0.00106,0.00284 -0.00353,0.00544 -0.00467,0.00828 -0.0038,0.0095 -0.00611,0.021173 -0.010703,0.030169 -0.0027,0.00527 -0.010227,0.00751 -0.012305,0.014492 -0.021363,0.00738 -0.024476,0.038364 -0.029922,0.056719 l -0.00522,0.0047 c -0.00172,0.00341 -4.467e-4,0.010795 -2.347e-4,0.014362 0.015295,-0.00848 0.010039,-0.013277 0.017162,-0.024479 0.00366,-0.00576 0.026828,-0.017868 0.03293,-0.021406 2.52e-4,-1.406e-4 0.00353,-0.00422 0.00392,-0.0047 l 0.00204,3.773e-4 c 0.00508,0.00359 0.00847,0.023686 0.00915,0.028359 0.00181,4.994e-4 0.00513,-0.00167 0.00632,-0.0028 0.00182,6.313e-4 0.00533,3.706e-4 0.00687,-9.246e-4 0.00214,-0.00614 0.00981,-0.014106 0.016029,-0.016172 l 6.64e-4,-0.0074 0.00783,-0.0062 c 0.00599,-0.00124 0.012942,0.00746 0.020586,0.00292 l 0.00318,-0.00358 0.00889,8.072e-4 0.00759,0.00569 0.00396,-4.294e-4 c 0.00848,0.012931 0.00288,0.024629 0.00539,0.028411 l 0.011289,0.00703 c 0.00595,8.385e-4 0.00787,-0.00207 0.012487,-0.00319 0.022055,-0.00536 0.027106,-0.00673 0.045964,0.00232 -4.48e-4,0.00536 -5.32e-4,0.011127 -0.00137,0.016419 -0.00152,0.00977 -0.004,0.0035 0.00198,0.015495 1.833e-4,3.587e-4 9.6e-5,0.015885 1.04e-4,0.01737 0.00265,0.00431 0.00561,0.010629 0.00885,0.014388 6.722e-4,7.874e-4 0.00567,0.00271 0.00667,0.00362 0.00599,0.00549 0.011571,0.012267 0.017161,0.018203 0.00459,0.00487 0.025898,0.00199 0.032292,1.56e-4 l 0.0037,0.00227 c 9.986e-4,0.00709 5.873e-4,0.011874 0.00437,0.017643 l 0.0046,0.00172 c -6.785e-4,0.0049 0.00609,0.016344 0.0087,0.020065 -0.00152,0.00199 -9.834e-4,0.00453 -0.00191,0.00616 -0.00175,0.00309 -0.00489,0.00574 -0.00654,0.00885 -1.88e-4,3.5e-4 -8.289e-4,0.00464 -9.505e-4,0.00529 -8.94e-5,4.74e-4 9.609e-4,0.00552 0.00108,0.00624 0.00997,-0.00848 0.018486,-0.0084 0.031016,-0.00609 0.010135,-0.00879 0.024164,-0.012028 0.027565,-0.026133 l 0.012109,-0.00901 0.010573,6.246e-4 0.00874,-0.00564 c 0.00811,0.00207 0.020414,0.00106 0.027669,-0.00363 l 0.00148,-0.00302 -3.386e-4,-0.00473 0.00318,-0.00508 0.00388,4.033e-4 0.00315,0.00474 0.00277,7.682e-4 0.00262,-0.00207 4e-5,-0.00471 0.00353,-0.00207 -0.0035,-0.00757 5.726e-4,-0.00245 0.00648,0.00117 0.00801,-0.00355 0.00276,3.773e-4 0.00737,0.012513 c -6.313e-4,0.00204 -8.457e-4,0.00654 7.162e-4,0.00831 3.246e-4,2.007e-4 0.00193,0.00132 0.00223,0.00133 0.011659,8.898e-4 0.033857,0.0055 0.044167,-0.00187 l 0.011771,-0.016562 c 9.154e-4,-0.00335 -0.00234,-0.00788 -0.00385,-0.010781 l 4.687e-4,-0.00434 0.00354,-0.00452 2.08e-4,-0.00379 -0.00367,-0.00568 3.907e-4,-0.00565 c -0.02316,-0.024641 0.020404,-0.039621 0.020899,-0.062227 0.00389,2.26e-4 0.0089,-0.00553 0.011732,-0.00806 l 0.0037,0.00115 0.00297,-0.00188 0.00483,9.766e-4 0.00204,-0.00113 0.00456,-0.020937 -0.00165,-0.00473 7.683e-4,-0.00378 c 0.00134,-0.00235 0.012016,-0.00449 0.014674,-0.00522 0.00768,-0.011873 0.039009,-0.040476 0.040703,-0.049271 -0.00786,-0.014677 -0.00159,-0.015097 -0.00396,-0.026628 l -0.00632,0.00109 -0.00185,-0.00151 c -0.00228,-0.00467 0.00542,-0.025075 0.00645,-0.03 9.538e-4,-0.00449 5.393e-4,-0.00977 0.00174,-0.014154 0.0013,-0.00471 0.00457,-0.00923 0.006,-0.013932 0.00167,-0.00549 -0.00412,-0.012554 -0.00214,-0.01832 0.00157,-0.00172 0.00328,-0.00416 0.00517,-0.00548 0.00707,-0.00491 0.015049,-0.0103 0.019167,-0.018216 0.00256,-0.00491 0.00467,-0.022829 0.013919,-0.022487 l 0.080352,0.0029 c 0.00223,0.010293 0.00574,0.025575 0.00402,0.035352 l -0.00565,0.013034 -0.00283,0.00651 c 0.00217,0.00222 0.016095,0.016759 0.016667,0.017109 0.014839,0.00893 0.050097,0.026173 0.058385,0.041562 0.011134,-0.012099 0.031048,-0.03476 0.044154,-0.044076 0.00227,-0.00162 0.01647,-0.00334 0.019687,-0.00332 l 0.00668,0.0043 c 0.00303,0.00747 0.00326,0.015074 0.00409,0.023008 l 0.00833,0.00514 c 0.015961,-9.73e-4 0.026984,-0.010721 0.037773,-0.021966 l 0.015912,-0.00163 0.00333,0.00384 c -0.00246,0.00474 0.00281,0.014828 0.00745,0.016224 0.025004,0.00752 0.022676,0.00541 0.043424,0.020638 8.322e-4,6.147e-4 0.00393,0.00113 0.00458,0.00173 0.00423,0.00381 0.00821,0.00901 0.01207,0.013255 0.013371,0.0011 0.032455,-0.029598 0.034102,-0.039427 0.00127,-0.00756 3.22e-4,-0.017877 4.686e-4,-0.025677 1.62e-4,-0.00891 0.00653,-0.018744 0.011927,-0.025781 0.00201,-0.00262 0.00786,-0.00389 0.010937,-0.00931 l 0.0031,-0.031055 0.013047,-0.014414 c 0.00735,-0.0017 0.019391,-0.00251 0.023919,-0.00923 1.92e-4,-0.010511 0.00167,-0.028628 0.00647,-0.038281 0.00859,-0.017233 0.014736,-0.013299 0.011471,-0.032721 -0.010852,-0.011092 -0.022459,-0.020115 -0.034609,-0.029935 -0.00895,-0.02762 0.016086,-0.037418 0.025846,-0.058607 0.00264,-0.00574 0.00365,-0.012748 0.00596,-0.018685 0.00214,-0.0055 0.00541,-0.010671 0.00762,-0.016146 0.00432,-0.01069 0.00677,-0.02317 0.01,-0.034258 l -0.00819,-0.00911 c 0.00296,-0.00868 0.00955,-0.015104 0.018385,-0.017865 l 0.00893,0.00257 0.00431,-0.00279 0.011693,9.115e-4 0.00527,-0.00542 0.00241,-5.206e-4 0.00906,0.0035 0.00145,0.00305 -0.00366,0.010716 9.115e-4,0.00115 0.0068,0.0052 0.00768,-0.00538 c 0.0044,5.633e-4 0.013047,0.00382 0.015313,0.00813 l 0.00445,-1.3e-4 0.00211,-0.0047 c -0.00184,-0.00227 -7.83e-4,-0.00737 -6.246e-4,-0.010013 l -0.00328,-0.00439 c 9.795e-4,-0.00179 0.00372,-0.00765 0.0031,-0.00978 l -0.013503,-0.00396 c -0.00273,-0.00913 -0.00858,-0.018951 -0.014349,-0.026432 -0.00483,-0.00102 -0.00621,-0.00428 -0.00977,-0.00617 -0.0043,-0.00227 -0.00952,-0.00398 -0.014036,-0.00585 l -0.00307,-0.00685 0.00348,-0.010325 c -0.00207,-0.00149 -0.00446,-0.00539 -0.00427,-0.00803 0.011937,-0.012795 0.00163,-0.020748 0.00521,-0.032227 0.00802,-0.0059 0.014576,-0.013402 0.012357,-0.023841 l -0.00384,-0.00477 -0.00465,-6.67e-5 c -0.00235,0.00441 -0.00879,0.00458 -0.011081,0.010065 l -0.00464,-9.635e-4 -0.00893,-0.013906 -0.00391,-8.072e-4 c -0.0043,0.00122 -0.010766,0.031332 -0.023646,0.036172 l -0.016276,-0.0046 c -0.00161,-0.00349 -0.00667,-0.00735 -0.010208,-0.00858 l -0.00161,-0.0053 C 5.6036339,3.6765133 5.585527,3.6915725 5.565691,3.6825385 5.552589,3.6765785 5.547968,3.6585265 5.533842,3.6544005 l -0.00483,5.08e-4 -0.00422,0.00602 -0.011042,-0.00214 c -2.52e-4,-4.606e-4 -0.00326,-0.00582 -0.00328,-0.00608 -1.834e-4,-0.00463 -8.815e-4,-0.00997 -5.727e-4,-0.014557 6.273e-4,-0.00937 0.01429,-0.012401 0.014948,-0.021927 1.493e-4,-0.00216 -0.00117,-0.00496 -0.00122,-0.00719 -4e-5,-0.00164 0.00105,-0.00818 8.594e-4,-0.00923 -0.00453,-0.024526 -0.011317,-0.011938 0.00155,-0.037005 0.00132,-0.00258 0.00321,-0.00997 0.00237,-0.01263 -0.00292,-0.00934 -0.00638,-0.018829 -0.00885,-0.028281 -0.00354,-0.013563 0.00103,-0.025705 -0.0071,-0.039076 0.00325,-0.00236 0.00358,-0.00838 0.00255,-0.011771 3.327e-4,-0.00246 0.00377,-0.00599 0.00566,-0.0073 l 0.0013,1.33e-5 3.254e-4,0.00435 c 0.00157,0.00143 0.00677,0.00185 0.00871,0.00181 l 0.00169,-0.00112 -0.00234,-0.00702 c 0.00133,-0.00281 0.00571,-0.00276 0.00793,-0.00499 0.00533,-0.00535 0.00988,-0.010717 0.013555,-0.017422 l -0.00124,-0.00512 0.00113,-9.375e-4 c 0.00243,2.734e-4 0.0085,0.00115 0.010573,0.00259 l 0.00448,-6.902e-4 c 0.00221,1.34e-5 0.012982,0.00298 0.012982,0.00298 l 0.00353,4.294e-4 0.00111,0.00208 c -8.642e-4,0.00238 -0.00126,0.00352 -4.427e-4,0.00624 l 0.00294,0.00173 0.00508,-0.00522 0.00303,-0.00392 0.00333,7.943e-4 0.00402,0.00516 0.00371,6.12e-4 0.00337,-0.00185 0.00353,6.12e-4 0.00103,0.00663 0.012956,-0.00928 0.00421,-0.00996 0.00245,-0.00147 0.010885,0.00656 c 0.0041,-4.953e-4 0.00988,-0.00489 0.01349,-0.0072 0.00759,0.00173 0.01241,0.00953 0.022005,0.010677 0.0071,-0.00439 0.01704,3.167e-4 0.022643,0.00503 0.010626,-0.0053 0.011287,0.00223 0.019857,0.00309 l 0.00375,-0.00203 0.00194,-0.00583 0.00581,-0.00447 0.00262,-1.56e-4 0.00366,0.00458 c 0.00275,-0.00125 0.00762,-0.00113 0.010417,-2.347e-4 l 0.00603,-0.00579 0.00372,-3.254e-4 c 0.00289,0.00565 0.012088,0.011389 0.018268,0.012148 l 0.00181,0.00249 -0.00132,0.0013 -0.00372,0.015638 -0.00292,0.00922 0.00145,0.00342 0.00819,-0.00141 0.00111,0.00116 6.12e-4,0.00983 c 0.00678,0.00126 0.012959,0.00368 0.019531,6.38e-4 l 5.34e-4,0.0019 c -0.00108,0.00242 -0.00359,0.010201 -0.00204,0.012812 0.00637,-0.00593 0.019922,-0.00294 0.027565,-0.00246 0.00286,1.793e-4 0.013417,-0.00873 0.015768,-0.010547 2.173e-4,-1.707e-4 0.00131,-0.00227 0.00151,-0.00262 -0.00293,-0.00905 -0.010308,-0.038313 0.00302,-0.044544 l 0.00363,0.00647 c 0.00381,0.00126 0.00766,0.00202 0.011693,0.00186 0.00282,0.00107 0.00616,0.00546 0.00733,0.00805 0.00232,2.86e-4 0.00763,0.00341 0.00868,0.0054 0.00267,0.00508 0.00408,0.011271 0.00647,0.016536 0.00749,0.016558 0.015096,0.032078 0.021549,0.049128 0.00143,0.00377 0.00318,0.00656 0.00689,0.0087 0.018978,-0.00291 0.024531,8.686e-4 0.040143,0.00189 7.874e-4,5.34e-5 0.00368,-0.00155 0.00466,-0.00163 0.00139,-1.153e-4 0.00365,9.547e-4 0.00501,8.203e-4 0.00166,-1.58e-4 0.00356,-0.00153 0.00523,-0.00181 0.0057,-9.538e-4 0.011578,-9.531e-4 0.017305,-5.08e-4 0.00396,3.074e-4 0.00202,4.854e-4 0.00583,-5.726e-4 l 0.00573,-0.00158 c -0.012769,-0.010788 -0.00102,-0.01378 -0.020117,-0.025964 -0.00188,-0.00518 -0.00352,-0.010789 -0.00572,-0.01582 -0.00291,-0.00666 -0.00954,-0.014036 -0.00553,-0.02194 0.00152,-0.003 0.00279,-0.00206 0.00451,-0.00668 0.00248,-0.00669 0.00565,-0.013872 0.011458,-0.018412 8.578e-4,-0.00258 4.387e-4,-0.00598 1.694e-4,-0.00849 -0.00194,-0.018282 -0.00521,-0.013727 -0.014609,-0.026654 -0.00289,-0.00396 -0.00303,-0.010963 -0.00764,-0.013711 l -0.00764,-0.029193 -0.00184,-0.00116 c -3.967e-4,-0.00692 -0.00185,-0.00895 -0.00391,-0.014232 -0.0061,-0.01556 -0.00999,-0.031475 -0.015143,-0.047448 -0.0026,-0.00803 -0.00695,-0.013825 -0.010625,-0.021289 -8.322e-4,-0.00171 -8.017e-4,-0.00415 -0.0016,-0.00589 -0.00335,-0.00734 -0.00717,-0.014759 -0.010143,-0.02224 -8.706e-4,-0.00218 -7.22e-4,-0.00504 -0.00159,-0.00721 -6.186e-4,-0.00156 -0.00235,-0.00302 -0.00311,-0.00457 -0.00723,-0.014787 -0.00269,-0.0241 -0.018789,-0.032747 -0.00125,-6.66e-4 -0.00733,-0.00224 -0.00853,-0.00201 -0.00778,0.0015 -0.018787,0.00881 -0.027083,0.00607 -0.00592,-0.00196 -0.011491,-0.00702 -0.017409,-0.00892 -0.012513,-0.00401 -0.030053,0.00379 -0.041289,0.00809 -0.01218,0.00465 -0.021541,-6.1e-4 -0.031302,-0.00743 -0.00917,-0.00642 -0.016424,-0.018231 -0.020781,-0.028294 -0.00253,-0.00583 6.647e-4,-0.019857 0.00156,-0.025443 0.00556,-0.034952 0.014979,-0.073243 0.034076,-0.1033854 -0.00169,-0.010225 -0.00429,-0.020201 -9.376e-4,-0.030443 0.012478,-0.016891 0.021643,-0.024015 0.042878,-0.029883 0.012039,-0.020515 0.016775,-0.026984 0.042005,-0.034427 0.00536,8.322e-4 0.00785,0.00352 0.01237,0.00533 0.00567,0.00227 0.010475,0.00278 0.016237,0.00431 0.017245,0.00458 0.013073,0.00468 0.030664,-0.0031 l 0.00184,-8.074e-4 5.987e-4,-0.00233 c -0.00179,-0.00443 -0.010874,-0.0081 -0.015039,-0.00888 l -0.00513,-0.0063 -0.00725,-4.82e-4 c -0.00342,-0.00346 -0.00944,-0.00626 -0.014088,-0.00738 l -0.010807,-0.013568 c -0.00277,-3.754e-4 -0.00719,-0.00281 -0.0085,-0.00542 -6.722e-4,-0.00231 -0.00119,-0.00706 -9.13e-5,-0.00936 -0.00453,-0.00351 -0.014717,-0.00875 -0.020794,-0.00822 l -0.00108,-0.0021 0.00576,-0.012969 -8.724e-4,-0.00492 -0.00556,-0.0031 c -0.010388,-0.00255 -0.026853,0.010069 -0.03375,0.017213 -0.022986,-0.012538 -0.027824,-0.012733 -0.033112,-0.035612 -5.207e-4,-0.00227 -0.00341,-0.011347 -0.00225,-0.013451 0.00614,-0.011207 0.00998,-0.022094 0.015534,-0.032891 0.00294,-0.00572 0.0065,-0.00675 0.009,-0.016706 l 0.0032,-0.00241 c 0.00262,-0.0053 0.00505,-0.013563 0.00529,-0.019414 5.33e-5,-0.00129 -0.00133,-0.00526 -0.00141,-0.00682 -2.733e-4,-0.00556 0.0014,-0.020222 -0.00155,-0.024596 l 7.813e-4,-0.00302 c 0.00745,-0.00485 0.00688,-0.017118 0.016927,-0.024167 3.073e-4,-0.002 0.00663,-0.026565 0.00841,-0.028437 l -0.00129,-0.00229 0.00592,-0.010508 c 0.00169,-0.00181 8.368e-4,-0.00806 2.734e-4,-0.010091 l -0.00641,0.00389 c -0.00725,9.73e-4 -0.012038,-0.00413 -0.020325,-0.00215 -0.00316,0.00322 -0.00234,0.010407 -0.00691,0.015417 -0.00152,0.00133 -0.01673,-0.00173 -0.019388,-0.00214 -0.01407,0.00721 -0.039153,0.021633 -0.054388,0.02069 -9.026e-4,-0.00104 -0.021064,-0.00588 -0.022721,-0.00596 -0.012961,-6.06e-4 -0.026621,0.00298 -0.039492,-1.434e-4 -0.00421,-0.0059 -0.00958,-0.016025 -0.016771,-0.018555 -0.00199,-0.00966 -0.016493,-0.01509 -0.016484,-0.025742 l -0.00551,-0.00725 -0.0026,-0.00117 c -0.00207,-0.00231 -0.00387,-0.00713 -0.00361,-0.010247 l -0.00572,-0.00613 -6.901e-4,-0.00474 c -0.00311,-0.00166 -0.00667,-0.00709 -0.00809,-0.01013 l -0.00286,-0.0091 c 1.833e-4,-0.00246 0.00173,-0.00675 0.00383,-0.00828 -0.0027,-0.0024 -0.00933,-0.00627 -0.013203,-0.00582 -0.00106,-0.00231 1.073e-4,-0.00672 0.00142,-0.0087 l -0.00361,-0.011198 c 0.00122,-0.002 9.107e-4,-0.00608 1.04e-4,-0.00813 l 0.00151,-0.00207 0.00281,-7.162e-4 0.00173,-0.0034 -0.00159,-0.00776 -0.00536,-0.00499 c 6.66e-4,-0.0039 0.00386,-0.017261 0.00754,-0.019583 4.14e-4,-0.00179 -0.00575,-0.00713 -0.00701,-0.0084 l 3.907e-4,-0.0019 0.00449,-1.174e-4 c 0.00127,-0.00371 0.00673,-0.00781 0.010195,-0.00914 -6.4e-4,-0.00436 0.00139,-0.011794 0.00469,-0.014883 5.674e-4,-0.00212 -3.846e-4,-0.00575 -0.00177,-0.0074 l 4.427e-4,-0.00604 c -0.00189,-0.00284 -0.00397,-0.00884 -0.00303,-0.012331 l -0.00258,-0.00362 0.00384,-0.00941 0.00525,-3.126e-4 c 0.00332,-0.00682 -3.133e-4,-0.015303 -0.0016,-0.022344 l 0.0023,-0.00488 -0.00423,-0.00496 0.00478,-0.0096 -0.00499,-0.00422 0.00151,-0.00262 0.010117,-0.0012 0.00152,-0.0015 c -0.00374,-0.00482 -0.00752,-0.015444 -0.00573,-0.021628 l 0.00883,-0.00348 2.08e-4,-0.00207 -0.00703,-0.00501 -5.34e-4,-0.00246 0.00211,-0.00395 0.00799,0.00311 c 0.00179,-0.00318 7.064e-4,-0.01138 0.00324,-0.018763 l 5.6e-4,-0.00161 -0.00434,-2.733e-4 c -0.00148,-7.874e-4 -0.00444,-0.00302 -0.00495,-0.00475 l 0.00344,-0.00562 c -6.593e-4,-0.00138 7.001e-4,-0.00895 -5.727e-4,-0.01457 -0.00659,-0.010007 -0.014606,4.67e-5 -0.022982,-0.00219 l -0.00444,-0.00309 c -0.00133,-0.00262 0.00121,-0.010562 0.0022,-0.013021 l 0.00169,-0.00111 c 0.00109,0.00154 0.00422,0.00466 0.0063,0.0048 l 0.00171,-0.00111 c 9.666e-4,-0.00322 0.0036,-0.011992 0.00336,-0.015274 -9.09e-4,-0.0031 -0.00556,-0.00639 -0.00852,-0.00711 l 0.00229,-0.00357 -8.984e-4,-0.00285 -0.00711,4.82e-4 -0.00868,0.00633 -0.0028,1.433e-4 -0.00353,-0.00268 -0.00379,-0.011966 0.00191,-0.00376 c 0.00225,-6.4e-4 0.00723,-0.00273 0.00865,-0.0048 l -5.34e-4,-0.00152 -0.010404,-0.00467 -7.291e-4,-0.00208 0.00228,-0.00318 0.012708,0.00195 0.019857,-0.004 0.00243,-5.467e-4 0.00227,-0.0028 3.253e-4,-0.010963 -0.00332,-0.00421 -0.00466,-2.606e-4 -0.00905,0.00651 c -0.00297,-1.753e-4 -0.00749,-0.00324 -0.00948,-0.00522 l -0.00126,-0.00398 c 4.354e-4,-0.00504 0.0079,-0.00846 0.011719,-0.010247 l 0.00188,-0.012787 0.0032,-0.00163 -3.253e-4,-0.00341 c 0.00365,-0.00497 0.019831,-0.029423 0.026185,-0.032214 0.00492,-0.00216 0.010915,-0.00277 0.015964,-0.00471 0.015363,-0.0059 0.040782,-0.017159 0.050521,-0.03155 0.00414,-0.00613 0.0054,-0.014135 0.00849,-0.020703 0.0044,-0.00932 0.0096,-0.018476 0.014362,-0.02763 0.00249,-0.00479 0.00299,-0.010381 0.00618,-0.01543 l 0.00158,-4.033e-4 3.254e-4,-0.00374 c 0.0052,-0.00542 0.012387,-0.011272 0.016693,-0.017383 0.00748,-0.010622 0.00166,-0.024203 0.00827,-0.033177 -2.093e-4,-0.012116 -0.00667,-0.024905 -0.00987,-0.036458 -0.00214,-0.00775 -0.00304,-0.015986 -0.00741,-0.023164 l -0.00616,-0.00664 c -0.017263,-0.018581 -0.023413,-0.017358 -0.048464,-0.022044 -0.012145,-0.00227 -0.023591,-0.0031 -0.035859,-0.00402 -4.446e-4,-3.33e-5 -0.00805,-0.00357 -0.00876,-0.00389 -0.020438,-0.025068 -0.015564,-0.023714 -0.021901,-0.051159 -4.67e-5,-2.093e-4 -0.0011,-0.0013 -0.0013,-0.00151 -0.011851,-0.00776 -0.027916,0.010431 -0.035052,0.01737 -0.012145,0.00446 -0.048907,-0.00105 -0.054583,-0.012552 -0.00596,-0.01209 -0.00767,-0.023679 -0.00898,-0.03681 -4.66e-5,-4.78e-4 -0.00129,-0.00284 -0.00164,-0.00362 -0.00392,-0.00181 -0.011152,-0.00575 -0.013763,-0.00943 -0.0025,-0.0046 -0.00152,-0.014955 -3.514e-4,-0.019687 -0.00221,-0.00455 -0.00662,-0.00624 -0.00927,-0.00993 -0.0068,-0.00947 5.4e-6,-0.029194 9.896e-4,-0.038958 3.753e-4,-0.00377 -3.627e-4,-0.0087 -5.207e-4,-0.012539 -1.493e-4,-0.00357 -0.00244,-0.00698 -0.00392,-0.010221 l -0.00563,-4.427e-4 -0.00333,-0.0038 -9.375e-4,-0.018555 c -0.00259,-0.00215 -0.00435,-0.00589 -0.00559,-0.00883 -0.00643,-0.015291 -0.00149,-0.022601 2.867e-4,-0.038724 4.48e-4,-0.00412 2.233e-4,-0.00871 3.253e-4,-0.012865 7.67e-5,-0.00317 -0.00998,-0.017488 -0.0084,-0.022422 l 0.00913,-0.028464 -0.00185,-0.0038 c -0.00657,0.00135 -0.01593,0.00139 -0.022318,-0.00102 l -0.00277,-0.00419 c -0.00239,-0.010345 0.010934,-0.03064 0.017292,-0.037448 l 0.00105,-0.011914 0.00496,-0.00638 c 0.027116,-0.00218 0.018377,-0.029113 0.015781,-0.048112 -9.154e-4,-0.0067 -0.00157,-0.013848 -9.765e-4,-0.020599 1.32e-4,-0.00143 0.0023,-0.00951 0.00219,-0.010195 -0.00198,-0.01227 -0.00674,-0.025659 -0.00993,-0.037761 0.00578,-0.0081 0.00432,-0.0223 -0.00156,-0.029922 l -0.00204,-4.033e-4 c -0.010213,-0.01847 -0.01903,-0.030003 -0.035417,-0.043659 -0.00254,-0.00212 -0.00364,-0.00381 -0.00652,-0.00544 -0.00286,-0.00162 -0.022614,-0.00632 -0.027552,-0.00654 -0.00476,0.00531 -0.011761,0.010585 -0.019089,0.011341 -0.014587,-0.012939 -0.046138,-0.010851 -0.061966,-0.00237 -0.00268,0.010276 -0.014302,0.019522 -0.016615,0.02763 l -0.00857,0.03 c -0.00129,0.00449 -4.38e-4,0.01291 3.907e-4,0.017409 l -0.00152,0.00151 -0.016862,-0.00359 c -0.00425,0.00226 -0.036809,0.019469 -0.043958,0.021497 -0.00595,-0.00492 -0.012611,-0.00338 -0.016862,-0.00628 -0.00258,-0.00177 -0.0055,-0.00585 -0.00892,-0.00612 l -0.00526,6.901e-4 -0.025859,0.012591 -0.0088,-8.464e-4 c -0.011684,-0.00758 -0.00429,-0.015181 -0.00466,-0.022943 -2.9e-4,-0.00627 -0.00257,-0.014022 -0.00372,-0.020287 -0.00144,-0.00784 0.019892,-0.019148 0.025794,-0.025469 0.00234,-0.00814 0.0021,-0.016367 0.00419,-0.02474 0.039292,-0.031384 0.00631,-0.028965 0.01832,-0.046172 0.010678,-0.015304 0.025184,0.00261 0.036315,-0.00775 0.00262,-0.00245 0.00923,-0.017487 0.010586,-0.021068 -0.00675,-0.013891 -0.01253,-0.036434 0.00444,-0.045742 0.00404,-0.00222 0.018928,-3e-4 0.023294,4.427e-4 l 0.00984,-0.00766 c 0.00365,-8.449e-4 0.012694,0.00158 0.016133,0.00264 0.00295,-3.247e-4 0.007,-0.00284 0.00908,-0.00482 0.00107,-0.00153 0.00197,-0.00476 0.00138,-0.00661 l -0.00557,-0.0063 c 8.13e-5,-0.00827 -0.00665,-0.014468 -0.00616,-0.02069 9.026e-4,-0.011292 0.013785,-0.025256 0.02599,-0.021667 8.129e-4,2.433e-4 0.012144,0.00638 0.013633,0.00716 8.129e-4,4.267e-4 0.00182,6.693e-4 0.0027,9.766e-4 0.00642,0.00235 0.013228,0.0054 0.019779,0.00721 0.0061,0.0017 0.0329,-0.00253 0.036523,-0.00715 0.00507,-0.00646 0.00805,-0.023143 0.01013,-0.031107 6e-5,-2.433e-4 -4.567e-4,-0.00283 -5.207e-4,-0.00323 l -0.00353,-0.00307 -0.00362,3.386e-4 c -0.00664,6.02e-4 -0.015849,0.00251 -0.022357,0.00202 -0.00234,-1.793e-4 -0.014818,-0.00462 -0.015885,-0.00757 -0.00129,-0.00599 0.00437,-0.020493 0.00853,-0.023932 0.00992,-0.00593 0.020213,-0.00143 0.028151,-0.00609 -0.00168,-0.00556 -0.0119,-0.010895 -0.016927,-0.012201 l -0.00979,0.00103 -0.00227,0.00206 -0.00941,7.8e-5 c -0.012321,-0.00938 -0.016194,7.387e-4 -0.026471,-0.00254 -0.00536,-0.00171 -0.010896,-0.00446 -0.01612,-0.0066 -0.00745,-0.00305 -0.013749,-0.00214 -0.020794,-0.00798 l -0.00547,-0.016146 c -0.00389,-0.004 -0.00932,-0.00784 -0.014388,-0.010169 l -0.00147,-0.00362 0.00134,-0.00302 0.00737,-0.00314 c -0.00308,-0.00465 -0.00792,-0.0159502 -0.00637,-0.0218229 -0.0022,-0.003463 -0.00433,-0.005188 -0.00784,-0.006719 -0.00425,0.006499 -0.017505,0.0131267 -0.02444,0.0155208 l -0.00501,0.010846 -0.00359,0.00203 -0.00432,-4e-5 -0.01155,-0.010911 c -0.00356,-7.49e-4 -0.00855,4.67e-5 -0.011862,0.00138 l -0.00155,0.00181 c -0.00584,-0.00658 -0.013665,-0.0130161 -0.018581,-0.0201172 -0.00167,-0.002407 -0.00294,-0.005814 -0.00482,-0.007995 -0.00312,-0.003617 -0.00774,-0.004988 -0.010065,-0.0101432 -0.00147,-0.003233 -0.0014,-0.007603 -0.0029,-0.0108073 -7.233e-4,-0.001543 -0.00583,-0.007544 -0.00613,-0.008581 -0.00315,-0.0110956 -0.00173,-0.0238307 -0.00628,-0.0346875 l -0.010104,-0.004453 c -0.011361,-0.016426 0.00906,-0.038259 4.56e-4,-0.0499479 l -0.00523,-0.003646 c -0.010669,-0.003553 -0.02125,0.00803 -0.033984,0.004362 l -0.021315,0.0193099 -0.010729,-0.009167 c -0.00559,4.566e-4 -0.00912,-0.004297 -0.014648,-0.003542 -0.00204,0.001018 -0.0046,0.004082 -0.00495,0.006393 -0.00546,-8.1298e-4 -0.00784,-0.004552 -0.012175,-0.006927 -0.00721,-0.00395 -0.025467,-0.00446 -0.033476,-0.004479 0.00856,-0.0384001 0.019163,-0.0772562 0.025872,-0.11595058 l 0.016667,-0.0961198 c 0.00172,-0.009939 0.00464,-0.021038 0.00538,-0.0310287 4e-5,-3.9686e-4 -0.00214,-0.008384 -0.00237,-0.009297 l -0.00281,-5.8594e-4 -3.127e-4,-0.007956 c -0.00408,-0.004071 -0.012598,-0.0158209 -0.01168,-0.0222396 0.00385,-0.008791 0.00675,-0.017472 0.00874,-0.0267969 -0.0048,-0.007942 -0.013661,-0.0153599 -0.020664,-0.0211979 l -0.00107,-0.006641 -0.00245,-7.6823e-4 -0.00548,0.003151 -0.00302,-5.9893e-4 -0.00354,-0.003815 -0.00452,-4.1667e-4 c -0.00665,0.003348 -0.00761,0.012647 -0.012578,0.0153906 l -0.00301,-5.9894e-4 c -0.00222,-0.005806 -0.010827,-0.0122177 -0.016849,-0.0132292 l -0.00867,0.001628 2.08e-4,-0.002461 -0.00508,-5.2e-5 c -1.494e-4,-0.003822 -0.00187,-0.0127061 -0.00513,-0.0153646 0.00363,-0.004187 0.00367,-0.0236364 0.00348,-0.0289323 l 0.00414,4.1667e-4 c 0.00923,-0.001235 0.00615,-0.0245124 0.00687,-0.0292578 6.233e-4,-0.004026 0.00335,-0.009633 0.00473,-0.0135807 l -9.765e-4,-0.004362 -0.00674,-0.005169 -5.34e-4,-0.002656 0.00233,-0.006042 -0.00581,-0.003646 -0.00329,-0.0100651 -0.00642,8.9844e-4 -0.00206,-0.002292 c -6.977e-4,-0.001837 8.136e-4,-0.005694 0.00176,-0.007188 l -0.00168,-0.002279 -0.00961,-2.8646e-4 -0.00228,0.002643 4.947e-4,0.00681 -0.0019,0.001497 -0.00378,3.5154e-4 -0.00564,-0.003281 -0.00188,1.6927e-4 -0.00285,0.002617 -0.00488,-0.002122 -0.00703,0.004857 -0.00426,-0.008568 0.00118,-0.003945 -0.00185,-0.003997 0.00117,-0.007591 -0.012031,-0.00793 c -0.00174,-0.0109509 -1.006e-4,-0.0483625 0.00934,-0.0559245 0.0035,-0.00281 0.00812,-0.005811 0.011211,-0.008997 0.011236,-0.0115692 0.00823,-0.0276718 -0.00118,-0.0395573 -0.00417,-0.005268 -0.010842,-0.0105282 -0.015729,-0.0152734 -0.00483,-0.004692 -0.01664,-0.0127288 -0.019857,-0.0185156 -0.00343,-0.006165 -0.00595,-0.0132441 -0.00966,-0.0192057 -0.00914,-0.0147149 -0.03204,-0.0169746 -0.047136,-0.0210677 -0.00559,-0.001511 -0.010227,-0.007016 -0.016432,-0.008971 -3.927e-4,-7.2335e-4 -0.00186,-0.003739 -0.00229,-0.004206 -0.0037,-0.004007 -0.00995,-0.003614 -0.014727,-0.006341 -0.0084,-0.004801 -0.020666,-0.0193557 -0.029662,-0.0197526 l -0.015846,-6.9011e-4 -9.505e-4,7.4219e-4 c -0.00367,-0.001952 -0.014557,-1.86e-4 -0.021901,-0.002005 -0.0039,-9.6661e-4 -0.00912,-0.004625 -0.01276,-0.006615 -0.00483,0.001556 -0.0161,5.242e-4 -0.019037,-0.004323 -3.213e-4,-2.5527e-4 -8.304e-4,-3.9014e-4 -0.00148,-4.1667e-4 z"
     id="rect8"
     inkscape:connector-curvature="0" />
</svg>
