<?xml version="1.0" encoding="UTF-8" ?>
<!DOCTYPE svg PUBLIC "-//W3C//DTD SVG 1.1//EN" "http://www.w3.org/Graphics/SVG/1.1/DTD/svg11.dtd">
<svg width="761pt" height="668pt" viewBox="0 0 761 668" version="1.1" xmlns="http://www.w3.org/2000/svg">
<g id="#ffffffff">
<path fill="#ffffff" opacity="1.00" d=" M 351.87 109.62 C 371.54 97.46 395.00 91.21 418.13 93.09 C 404.64 100.11 395.41 115.67 398.45 131.03 C 399.60 140.09 405.99 146.99 409.26 155.22 C 409.64 155.35 410.41 155.61 410.79 155.74 C 402.23 169.88 383.64 172.09 373.47 184.58 C 367.65 190.86 368.18 202.45 375.42 207.42 C 383.78 210.54 392.96 209.15 401.65 208.65 C 396.29 217.59 387.36 223.68 378.15 228.18 C 360.43 237.46 348.72 257.94 351.05 278.01 C 351.95 285.60 354.76 293.12 359.71 299.01 C 349.85 290.75 342.77 279.43 338.41 267.38 C 330.87 245.12 332.41 219.63 343.62 198.85 C 344.82 196.52 346.68 194.51 347.11 191.84 C 345.99 191.42 344.88 190.99 343.78 190.55 C 342.88 191.32 341.82 192.00 341.32 193.12 C 328.50 215.19 326.09 242.64 333.36 266.95 C 336.05 275.67 340.31 283.90 345.77 291.22 C 348.70 295.26 352.60 298.42 356.03 302.01 C 348.08 296.77 339.93 291.59 333.46 284.51 C 305.14 258.37 292.70 216.37 302.02 178.99 C 308.61 150.47 326.94 124.95 351.87 109.62 M 351.11 157.16 C 351.75 161.56 352.90 165.86 353.88 170.20 C 350.36 172.69 345.97 174.07 343.00 177.22 C 347.23 177.52 351.46 177.89 355.67 178.39 C 356.62 182.65 357.52 186.92 358.50 191.17 C 360.56 187.30 362.10 183.19 363.89 179.20 C 368.25 179.44 372.58 180.05 376.95 180.34 C 373.95 177.08 370.29 174.53 367.22 171.35 C 369.10 167.34 370.80 163.26 372.63 159.23 C 368.68 161.37 364.90 163.80 360.98 165.99 C 357.70 163.04 354.31 160.20 351.11 157.16 Z" />
<path fill="#ffffff" opacity="1.00" d=" M 457.60 191.77 C 459.64 188.22 464.56 188.26 468.16 188.51 C 463.84 188.83 459.61 190.52 456.27 193.27 C 453.24 197.79 452.49 203.25 451.85 208.52 C 469.67 203.28 488.65 203.97 506.75 207.34 C 509.14 210.21 511.54 213.44 515.22 214.70 C 518.76 215.92 522.59 215.07 525.94 213.67 C 526.08 213.21 526.36 212.28 526.50 211.81 C 527.12 211.67 528.35 211.39 528.97 211.25 C 528.05 212.29 527.12 213.32 526.25 214.40 C 538.68 219.99 550.04 227.93 559.74 237.48 C 550.70 241.54 543.31 248.46 536.62 255.62 C 531.29 261.18 527.73 268.42 526.87 276.09 C 525.85 283.56 527.46 291.05 529.62 298.17 C 526.94 299.54 524.66 301.52 522.16 303.18 C 509.97 310.51 495.12 313.60 481.08 310.99 C 469.31 309.20 458.58 303.13 450.14 294.87 C 436.20 279.79 412.61 273.81 393.45 281.66 C 386.05 284.72 379.62 290.08 375.18 296.72 C 378.48 287.76 384.57 280.04 391.24 273.31 C 406.05 258.92 426.40 250.80 446.91 249.58 C 455.65 248.39 464.28 251.03 472.91 251.88 C 473.01 250.58 473.10 249.27 473.19 247.97 C 456.14 242.91 437.65 244.58 420.93 250.08 C 399.42 257.30 379.98 272.80 371.16 294.08 C 376.10 271.28 387.92 249.94 405.13 234.15 C 414.09 226.04 424.27 219.35 435.23 214.24 C 436.58 216.55 437.03 219.31 438.59 221.49 C 440.91 222.82 444.18 222.90 446.45 221.41 C 452.81 213.32 449.95 202.17 454.77 193.45 C 455.14 192.19 456.58 192.17 457.60 191.77 M 485.68 243.09 C 486.21 247.43 488.08 251.68 488.11 256.02 C 484.60 258.42 480.66 260.14 477.28 262.75 C 481.50 263.35 485.79 263.41 490.01 264.00 C 491.82 267.91 491.30 272.61 493.48 276.36 C 495.46 272.63 496.41 268.30 498.88 264.89 C 503.07 265.15 507.24 265.76 511.45 265.91 C 508.64 262.58 504.52 260.41 502.09 256.86 C 503.49 252.82 505.58 249.06 507.03 245.04 C 503.21 247.11 499.47 249.34 495.81 251.69 C 492.31 248.97 489.20 245.79 485.68 243.09 Z" />
<path fill="#ffffff" opacity="1.00" d=" M 381.99 306.45 C 414.64 302.57 448.87 313.54 472.53 336.47 C 487.17 350.10 497.79 367.92 503.28 387.13 C 506.48 397.55 507.33 408.47 507.88 419.30 C 505.32 418.45 502.56 417.48 501.08 415.06 C 496.04 407.32 493.61 397.83 486.72 391.36 C 483.56 388.06 478.06 386.91 474.01 389.18 C 472.07 390.84 471.75 393.69 471.96 396.09 C 472.67 403.03 478.62 408.08 479.28 415.03 C 479.90 419.88 479.62 425.48 476.53 429.46 C 468.51 434.12 459.70 437.29 450.91 440.17 C 448.08 440.92 444.43 442.54 442.27 439.67 C 436.56 433.72 437.49 424.72 438.15 417.19 C 442.22 417.72 446.32 417.98 450.38 418.54 C 451.50 422.71 451.83 427.10 453.48 431.11 C 455.26 427.16 456.84 423.11 458.74 419.20 C 462.99 419.65 467.24 420.27 471.53 420.37 C 468.56 417.26 465.22 414.54 461.98 411.72 C 463.54 407.70 465.45 403.83 467.02 399.81 C 463.07 401.32 459.79 404.09 455.98 405.86 C 452.14 403.91 449.58 399.96 445.85 397.71 C 446.59 401.92 447.60 406.08 448.61 410.24 C 445.25 412.33 441.90 414.44 438.33 416.14 C 439.38 407.83 441.28 399.44 440.13 391.04 C 439.51 386.75 436.42 382.87 432.18 381.71 C 424.08 379.21 415.51 380.62 407.21 380.79 C 413.67 369.28 414.57 355.10 411.48 342.42 C 407.92 327.00 395.39 314.27 380.10 310.26 C 384.99 311.43 390.06 311.72 394.87 313.27 C 411.90 318.32 427.03 329.36 437.30 343.81 C 447.01 357.10 453.51 373.13 454.12 389.68 C 455.50 389.67 456.88 389.66 458.27 389.65 C 458.55 371.79 450.98 354.66 440.67 340.41 C 427.03 321.65 405.50 307.82 381.99 306.45 Z" />
<path fill="#ffffff" opacity="1.00" d=" M 370.17 323.98 C 370.21 322.94 370.31 321.92 370.49 320.90 C 373.70 335.22 372.47 350.24 367.58 364.03 C 364.26 360.12 360.76 356.39 357.19 352.72 C 358.34 352.48 359.27 351.89 359.97 350.96 C 366.19 343.43 370.34 333.85 370.17 323.98 Z" />
<path fill="#ffffff" opacity="1.00" d=" M 375.08 322.21 L 375.55 322.16 C 380.63 335.23 384.57 348.91 385.03 363.01 C 385.22 368.70 384.96 374.38 384.77 380.07 C 378.90 377.44 374.71 372.40 370.52 367.72 C 374.50 360.48 375.70 352.06 376.69 343.96 C 377.21 336.70 377.00 329.26 375.08 322.21 Z" />
<path fill="#ffffff" opacity="1.00" d=" M 295.83 333.81 C 300.66 330.34 306.95 331.38 312.52 331.51 C 312.06 335.64 312.48 339.78 312.96 343.89 C 303.53 346.37 293.84 347.84 284.09 348.19 C 284.30 346.50 284.28 344.69 285.27 343.22 C 287.67 342.93 290.10 343.28 292.50 342.91 C 292.10 339.56 292.90 335.84 295.83 333.81 Z" />
<path fill="#ffffff" opacity="1.00" d=" M 298.76 366.52 C 304.28 366.38 309.78 367.03 315.18 368.12 C 314.04 371.45 313.32 375.76 310.05 377.62 C 304.63 376.70 299.25 372.27 298.76 366.52 Z" />
<path fill="#ffffff" opacity="1.00" d=" M 249.92 397.95 C 257.80 383.12 272.22 372.25 288.36 367.91 C 286.73 373.70 282.51 378.22 278.86 382.83 C 276.18 385.82 273.84 389.12 270.95 391.92 C 266.09 395.32 258.86 393.82 254.72 398.48 C 251.81 403.85 255.27 410.34 253.10 415.91 C 250.96 420.06 246.99 422.78 243.24 425.35 C 244.07 415.96 245.04 406.25 249.92 397.95 Z" />
<path fill="#ffffff" opacity="1.00" d=" M 229.52 436.23 C 230.01 439.96 227.00 443.17 227.58 446.93 C 229.20 456.81 236.03 464.87 237.80 474.72 C 236.91 473.75 235.83 472.98 234.56 472.61 C 222.41 468.13 211.27 461.31 201.16 453.26 C 202.00 453.55 202.83 453.83 203.67 454.13 C 211.85 454.31 219.98 452.65 227.35 449.06 C 226.93 444.62 227.23 440.17 229.52 436.23 Z" />
<path fill="#ffffff" opacity="1.00" d=" M 482.07 472.84 C 485.69 471.72 489.55 471.06 493.33 471.79 C 487.58 481.86 480.47 491.16 472.00 499.09 C 466.70 503.82 461.01 508.09 455.17 512.12 C 459.91 502.45 460.28 491.02 456.94 480.86 C 465.63 479.24 473.63 475.34 482.07 472.84 Z" />
</g>
<g id="#de2910ff">
<path fill="#de2910" opacity="1.00" d=" M 507.07 8.91 C 509.58 3.74 515.67 1.72 520.99 1.05 C 528.36 1.12 536.90 -0.31 542.84 5.18 C 543.32 6.02 545.33 6.54 544.73 7.72 C 543.85 7.65 543.10 7.26 542.48 6.55 C 542.20 6.05 541.63 5.05 541.35 4.55 C 538.08 3.06 534.64 1.94 530.99 2.38 C 535.17 3.04 539.55 4.26 542.44 7.58 C 546.83 12.70 545.02 19.92 545.44 26.11 C 544.32 30.92 544.33 35.86 544.27 40.77 L 544.71 40.76 C 544.50 37.21 544.37 33.63 544.99 30.12 C 545.49 29.16 545.73 28.14 545.73 27.07 C 545.49 21.16 545.80 15.17 545.28 9.32 C 546.38 9.29 546.27 11.11 546.64 11.86 C 548.92 21.81 544.44 31.97 546.74 41.90 C 548.15 48.32 554.56 52.56 560.94 52.57 C 570.44 52.44 579.50 47.94 589.09 49.15 C 591.86 49.63 595.86 50.37 596.12 53.89 C 596.95 59.40 595.65 64.96 595.64 70.49 C 589.95 70.53 586.33 75.12 582.50 78.61 C 579.73 81.43 575.55 81.29 571.95 81.98 C 548.43 85.85 527.15 99.68 512.71 118.44 C 512.17 117.34 512.48 116.11 512.50 114.94 C 510.93 117.46 509.13 119.79 507.13 121.98 C 508.52 120.79 509.98 119.60 511.83 119.26 C 507.99 125.10 502.11 130.37 494.91 131.22 C 490.96 131.73 487.15 130.43 483.68 128.70 C 485.45 125.62 488.16 123.25 490.38 120.51 C 496.44 113.28 502.72 105.99 510.77 100.89 C 515.15 98.84 514.11 93.11 513.59 89.18 C 512.91 83.36 505.57 83.59 501.46 85.28 C 497.70 87.36 494.17 90.20 491.99 93.96 C 490.37 96.64 490.75 99.84 491.00 102.82 C 485.75 101.31 479.86 101.01 474.95 103.76 C 467.03 108.07 461.93 115.83 456.90 123.03 C 454.01 127.00 451.54 131.56 447.25 134.22 C 438.53 139.85 427.23 139.68 418.89 146.00 C 414.35 149.22 413.75 155.20 410.25 159.25 C 401.03 171.42 384.20 173.89 374.58 185.58 C 371.37 189.13 370.19 194.22 371.46 198.84 C 372.25 202.61 374.88 206.51 378.97 207.04 C 394.92 210.22 410.89 203.82 426.91 205.94 C 429.52 206.43 432.57 206.44 434.65 208.33 C 437.28 211.74 437.37 216.30 439.30 220.06 C 440.90 221.42 443.45 221.15 445.30 220.42 C 451.66 212.11 448.83 200.20 455.04 191.84 C 460.19 187.29 467.37 186.20 474.02 186.14 C 481.25 186.36 488.72 187.58 495.06 191.23 C 503.09 196.11 506.03 205.78 512.95 211.76 C 517.56 215.76 527.56 214.11 527.86 207.02 C 528.96 199.71 525.34 189.78 532.63 184.82 C 543.84 179.54 557.19 185.13 568.28 179.09 C 568.39 176.43 568.34 173.77 568.18 171.12 C 568.88 171.05 570.28 170.93 570.98 170.86 C 573.40 168.09 575.31 163.56 579.81 164.45 C 579.98 156.93 578.51 149.37 579.74 141.89 C 580.50 137.21 583.90 133.12 588.49 131.78 C 600.64 128.06 613.77 128.16 626.06 131.17 C 629.66 131.79 632.00 134.99 633.68 137.97 C 635.48 141.59 637.13 145.28 638.75 148.98 C 644.46 164.16 643.65 181.25 651.18 195.82 C 654.57 202.59 662.18 207.06 669.80 205.85 C 669.12 203.10 668.55 200.32 668.42 197.48 C 670.70 196.52 669.47 193.89 669.48 192.02 C 669.15 193.69 669.10 195.50 668.07 196.94 C 666.72 182.50 666.29 167.94 667.15 153.48 C 673.19 153.16 679.98 153.88 684.16 158.81 C 692.29 168.28 691.49 182.17 699.11 191.97 C 701.99 195.86 706.46 198.31 711.17 199.25 C 712.13 197.69 712.25 194.96 714.51 194.77 C 722.26 193.06 730.21 194.16 738.05 194.33 C 738.16 205.09 742.62 215.44 741.27 226.28 C 746.30 226.14 751.86 224.29 756.54 226.86 C 759.73 231.15 760.21 236.79 760.00 241.98 C 760.26 246.32 758.77 251.43 754.49 253.35 C 749.72 256.25 743.47 255.21 739.28 251.75 C 733.04 246.60 728.09 240.09 722.00 234.77 C 719.72 232.59 716.19 231.61 713.28 233.09 C 708.49 235.32 705.42 240.07 703.52 244.82 C 700.77 252.23 701.25 261.85 707.61 267.31 C 718.43 277.25 732.94 282.16 743.41 292.56 C 746.87 295.84 749.28 300.23 749.97 304.97 C 750.75 308.91 749.44 312.82 748.83 316.69 C 747.27 311.06 750.47 304.21 747.09 298.87 L 746.54 298.39 C 745.87 297.48 745.54 296.45 745.53 295.30 C 744.95 295.29 743.79 295.28 743.21 295.27 C 742.24 294.07 741.30 292.86 740.11 291.89 C 741.68 294.60 744.45 296.32 746.01 299.03 C 748.53 302.65 748.53 307.19 748.37 311.42 C 747.43 313.18 747.40 315.67 745.36 316.60 C 746.43 316.71 747.52 316.81 748.62 316.96 C 747.80 318.27 746.99 319.59 746.20 320.92 C 744.20 317.42 742.14 313.40 738.00 312.08 C 732.56 309.74 726.16 313.70 724.55 319.09 C 723.17 323.64 724.47 328.46 723.66 333.09 C 723.36 337.56 720.44 341.98 716.02 343.26 C 710.06 344.88 703.48 342.24 699.66 337.54 C 697.58 334.86 700.24 330.94 697.78 328.45 C 691.01 319.73 685.25 309.91 683.08 298.97 C 682.22 295.06 682.23 290.71 679.66 287.43 C 677.76 285.75 675.08 287.02 672.85 286.58 C 666.82 285.92 663.27 280.41 658.66 277.15 C 652.29 271.69 652.51 262.55 651.52 254.93 C 650.96 249.65 649.07 243.25 643.39 241.53 C 629.19 237.54 613.99 244.30 600.02 238.79 C 597.78 238.03 597.05 235.62 596.78 233.52 C 588.54 233.29 580.13 232.10 572.02 234.18 C 557.51 237.99 545.17 247.63 535.71 259.03 C 529.34 266.68 526.90 277.15 528.50 286.91 C 530.79 302.27 539.38 315.89 549.39 327.44 C 552.25 330.69 553.95 334.77 554.96 338.94 C 557.87 350.62 556.29 362.90 559.23 374.58 C 560.28 378.93 562.48 383.08 566.03 385.89 C 573.84 392.30 583.60 395.59 593.16 398.42 C 603.09 401.31 613.26 403.30 623.16 406.32 C 626.10 407.19 627.86 410.17 628.43 413.04 C 629.89 418.98 628.29 426.21 623.02 429.81 C 618.59 432.82 612.79 432.14 608.00 430.44 C 597.37 426.75 589.96 417.42 579.56 413.32 C 573.72 410.83 566.70 413.95 563.41 419.05 C 562.44 422.95 564.29 426.79 565.23 430.52 C 566.49 434.40 566.38 438.81 568.97 442.18 C 573.08 447.49 579.92 449.73 584.05 455.03 C 585.90 457.24 586.70 460.09 587.20 462.89 C 578.80 463.28 569.83 464.52 561.95 460.83 C 556.12 458.23 553.37 451.92 551.99 446.07 C 547.51 427.02 552.59 407.37 549.54 388.17 C 548.54 381.77 546.37 375.12 541.38 370.69 C 536.42 365.97 529.37 364.62 522.78 364.10 C 516.55 379.71 521.55 396.83 519.01 413.00 C 518.35 416.53 516.51 420.79 512.44 421.20 C 507.46 421.53 501.82 419.54 499.27 415.00 C 494.53 407.36 492.05 398.10 485.13 391.97 C 482.41 389.23 478.19 389.10 474.68 390.06 C 471.71 395.29 474.66 401.06 477.41 405.68 C 481.69 412.50 482.20 421.53 478.82 428.82 C 477.78 431.16 475.13 432.00 473.05 433.16 C 464.71 436.95 456.20 440.69 447.18 442.53 C 441.96 443.92 438.70 438.28 437.35 434.12 C 434.56 423.56 437.72 412.70 438.77 402.12 C 439.06 396.86 439.81 390.99 436.63 386.39 C 434.19 383.08 429.79 382.49 426.00 381.97 C 413.98 380.58 402.04 384.31 390.02 382.97 C 385.40 382.48 381.12 380.37 377.68 377.30 C 368.22 369.08 361.99 357.57 351.64 350.31 C 346.01 347.95 339.81 351.07 334.03 349.48 C 331.43 348.97 329.57 346.93 327.97 344.98 C 323.94 339.91 321.70 333.75 319.47 327.75 C 319.92 327.98 320.82 328.45 321.27 328.68 C 322.78 332.06 324.13 335.52 325.60 338.92 C 338.11 334.66 348.88 326.40 358.97 318.04 C 348.24 325.17 335.22 328.63 322.41 328.93 C 321.85 328.45 320.71 327.50 320.15 327.02 C 320.54 326.32 321.32 324.92 321.71 324.22 C 334.08 324.72 345.84 320.00 356.76 314.66 L 356.64 314.17 C 338.63 320.79 317.14 313.40 306.01 298.06 C 302.51 293.96 300.08 289.08 297.88 284.20 C 294.69 276.80 295.05 268.50 292.10 261.04 C 283.95 238.09 260.29 221.94 236.01 222.20 C 229.54 222.59 223.42 224.98 216.97 225.49 C 206.93 226.46 196.47 222.86 189.49 215.51 C 183.79 210.07 180.88 202.50 178.80 195.06 C 172.18 212.47 169.23 231.44 171.79 249.97 C 174.51 271.42 183.51 292.05 197.52 308.54 C 202.28 313.37 206.96 318.30 211.99 322.86 C 214.72 321.06 216.48 318.12 219.02 316.07 C 221.21 313.85 224.07 312.54 226.98 311.56 C 236.78 307.95 247.11 305.97 257.51 305.16 C 254.58 302.17 251.69 299.12 249.05 295.87 C 249.94 295.20 250.84 294.54 251.74 293.89 C 254.81 297.95 258.53 301.44 262.27 304.87 C 276.69 304.37 291.17 306.09 305.12 309.70 C 308.28 310.56 311.79 311.33 314.02 313.95 C 316.66 316.89 318.28 320.59 319.88 324.18 C 320.43 325.43 319.85 326.74 319.20 327.82 C 317.23 321.78 314.94 313.78 307.93 312.06 C 284.49 305.36 259.19 303.98 235.53 310.35 C 231.28 311.67 226.92 312.83 222.97 314.90 C 216.30 319.69 211.93 327.56 204.01 330.60 C 198.69 332.11 193.00 330.91 187.85 329.30 C 176.75 325.47 168.83 316.32 161.22 307.84 C 156.04 301.76 149.85 295.58 141.66 294.15 C 137.46 293.33 133.27 295.48 130.76 298.79 C 120.86 309.63 109.71 320.85 95.02 324.54 C 84.03 327.29 72.61 322.78 64.51 315.35 C 56.45 308.45 49.53 299.23 38.82 296.37 C 34.81 294.87 29.93 296.18 26.46 293.24 C 22.76 290.34 21.22 285.52 21.02 280.98 C 21.13 276.39 23.41 272.28 24.61 267.94 C 25.33 265.54 27.55 263.66 30.12 263.77 C 43.20 263.92 56.55 267.21 69.46 263.74 C 71.58 263.00 74.24 262.65 75.46 260.52 C 79.25 254.20 79.68 246.23 84.52 240.49 C 93.46 230.06 108.89 228.40 117.45 217.55 C 125.05 207.08 125.39 193.62 128.64 181.53 C 130.25 175.15 132.29 167.48 139.03 164.74 C 150.26 160.36 162.28 164.86 173.84 164.49 C 177.90 164.26 182.23 163.16 185.05 160.03 C 190.22 154.27 192.13 146.18 198.00 140.96 C 201.37 137.72 206.08 136.36 210.66 136.16 C 209.43 126.78 205.81 117.62 206.68 108.05 C 207.11 104.21 208.94 99.87 212.94 98.60 C 217.78 96.84 223.08 98.04 227.96 99.01 C 240.20 101.92 252.29 106.15 264.98 106.57 C 272.37 106.69 280.09 104.87 285.77 99.92 C 295.95 91.23 301.20 78.18 311.52 69.60 C 313.76 67.77 316.66 66.82 318.55 64.55 C 321.80 61.02 325.06 57.49 328.29 53.94 C 330.98 50.81 335.20 49.80 338.91 48.43 C 358.40 41.95 379.52 46.05 399.16 40.45 C 399.00 35.28 403.91 32.20 407.76 29.77 C 416.81 25.83 426.78 29.16 436.24 28.94 C 430.32 39.34 426.89 52.18 431.33 63.79 C 433.94 63.78 436.93 64.68 439.30 63.28 C 442.93 55.97 442.45 47.23 446.66 40.15 C 449.27 35.52 455.18 34.58 460.03 34.53 C 471.43 34.03 482.39 39.33 493.81 37.73 C 497.64 36.93 502.40 35.37 503.44 31.06 C 505.54 23.83 503.80 15.87 507.07 8.91 M 351.87 109.62 C 326.94 124.95 308.61 150.47 302.02 178.99 C 292.70 216.37 305.14 258.37 333.46 284.51 C 339.93 291.59 348.08 296.77 356.03 302.01 C 352.60 298.42 348.70 295.26 345.77 291.22 C 340.31 283.90 336.05 275.67 333.36 266.95 C 326.09 242.64 328.50 215.19 341.32 193.12 C 341.82 192.00 342.88 191.32 343.78 190.55 C 344.88 190.99 345.99 191.42 347.11 191.84 C 346.68 194.51 344.82 196.52 343.62 198.85 C 332.41 219.63 330.87 245.12 338.41 267.38 C 342.77 279.43 349.85 290.75 359.71 299.01 C 354.76 293.12 351.95 285.60 351.05 278.01 C 348.72 257.94 360.43 237.46 378.15 228.18 C 387.36 223.68 396.29 217.59 401.65 208.65 C 392.96 209.15 383.78 210.54 375.42 207.42 C 368.18 202.45 367.65 190.86 373.47 184.58 C 383.64 172.09 402.23 169.88 410.79 155.74 C 410.41 155.61 409.64 155.35 409.26 155.22 C 405.99 146.99 399.60 140.09 398.45 131.03 C 395.41 115.67 404.64 100.11 418.13 93.09 C 395.00 91.21 371.54 97.46 351.87 109.62 M 457.60 191.77 C 456.58 192.17 455.14 192.19 454.77 193.45 C 449.95 202.17 452.81 213.32 446.45 221.41 C 444.18 222.90 440.91 222.82 438.59 221.49 C 437.03 219.31 436.58 216.55 435.23 214.24 C 424.27 219.35 414.09 226.04 405.13 234.15 C 387.92 249.94 376.10 271.28 371.16 294.08 C 379.98 272.80 399.42 257.30 420.93 250.08 C 437.65 244.58 456.14 242.91 473.19 247.97 C 473.10 249.27 473.01 250.58 472.91 251.88 C 464.28 251.03 455.65 248.39 446.91 249.58 C 426.40 250.80 406.05 258.92 391.24 273.31 C 384.57 280.04 378.48 287.76 375.18 296.72 C 379.62 290.08 386.05 284.72 393.45 281.66 C 412.61 273.81 436.20 279.79 450.14 294.87 C 458.58 303.13 469.31 309.20 481.08 310.99 C 495.12 313.60 509.97 310.51 522.16 303.18 C 524.66 301.52 526.94 299.54 529.62 298.17 C 527.46 291.05 525.85 283.56 526.87 276.09 C 527.73 268.42 531.29 261.18 536.62 255.62 C 543.31 248.46 550.70 241.54 559.74 237.48 C 550.04 227.93 538.68 219.99 526.25 214.40 C 527.12 213.32 528.05 212.29 528.97 211.25 C 528.35 211.39 527.12 211.67 526.50 211.81 C 526.36 212.28 526.08 213.21 525.94 213.67 C 522.59 215.07 518.76 215.92 515.22 214.70 C 511.54 213.44 509.14 210.21 506.75 207.34 C 488.65 203.97 469.67 203.28 451.85 208.52 C 452.49 203.25 453.24 197.79 456.27 193.27 C 459.61 190.52 463.84 188.83 468.16 188.51 C 464.56 188.26 459.64 188.22 457.60 191.77 M 381.99 306.45 C 405.50 307.82 427.03 321.65 440.67 340.41 C 450.98 354.66 458.55 371.79 458.27 389.65 C 456.88 389.66 455.50 389.67 454.12 389.68 C 453.51 373.13 447.01 357.10 437.30 343.81 C 427.03 329.36 411.90 318.32 394.87 313.27 C 390.06 311.72 384.99 311.43 380.10 310.26 C 395.39 314.27 407.92 327.00 411.48 342.42 C 414.57 355.10 413.67 369.28 407.21 380.79 C 415.51 380.62 424.08 379.21 432.18 381.71 C 436.42 382.87 439.51 386.75 440.13 391.04 C 441.28 399.44 439.38 407.83 438.33 416.14 C 441.90 414.44 445.25 412.33 448.61 410.24 C 447.60 406.08 446.59 401.92 445.85 397.71 C 449.58 399.96 452.14 403.91 455.98 405.86 C 459.79 404.09 463.07 401.32 467.02 399.81 C 465.45 403.83 463.54 407.70 461.98 411.72 C 465.22 414.54 468.56 417.26 471.53 420.37 C 467.24 420.27 462.99 419.65 458.74 419.20 C 456.84 423.11 455.26 427.16 453.48 431.11 C 451.83 427.10 451.50 422.71 450.38 418.54 C 446.32 417.98 442.22 417.72 438.15 417.19 C 437.49 424.72 436.56 433.72 442.27 439.67 C 444.43 442.54 448.08 440.92 450.91 440.17 C 459.70 437.29 468.51 434.12 476.53 429.46 C 479.62 425.48 479.90 419.88 479.28 415.03 C 478.62 408.08 472.67 403.03 471.96 396.09 C 471.75 393.69 472.07 390.84 474.01 389.18 C 478.06 386.91 483.56 388.06 486.72 391.36 C 493.61 397.83 496.04 407.32 501.08 415.06 C 502.56 417.48 505.32 418.45 507.88 419.30 C 507.33 408.47 506.48 397.55 503.28 387.13 C 497.79 367.92 487.17 350.10 472.53 336.47 C 448.87 313.54 414.64 302.57 381.99 306.45 M 370.17 323.98 C 370.34 333.85 366.19 343.43 359.97 350.96 C 359.27 351.89 358.34 352.48 357.19 352.72 C 360.76 356.39 364.26 360.12 367.58 364.03 C 372.47 350.24 373.70 335.22 370.49 320.90 C 370.31 321.92 370.21 322.94 370.17 323.98 M 375.08 322.21 C 377.00 329.26 377.21 336.70 376.69 343.96 C 375.70 352.06 374.50 360.48 370.52 367.72 C 374.71 372.40 378.90 377.44 384.77 380.07 C 384.96 374.38 385.22 368.70 385.03 363.01 C 384.57 348.91 380.63 335.23 375.55 322.16 L 375.08 322.21 Z" />
<path fill="#de2910" opacity="1.00" d=" M 351.11 157.16 C 354.31 160.20 357.70 163.04 360.98 165.99 C 364.90 163.80 368.68 161.37 372.63 159.23 C 370.80 163.26 369.10 167.34 367.22 171.35 C 370.29 174.53 373.95 177.08 376.95 180.34 C 372.58 180.05 368.25 179.44 363.89 179.20 C 362.10 183.19 360.56 187.30 358.50 191.17 C 357.52 186.92 356.62 182.65 355.67 178.39 C 351.46 177.89 347.23 177.52 343.00 177.22 C 345.97 174.07 350.36 172.69 353.88 170.20 C 352.90 165.86 351.75 161.56 351.11 157.16 Z" />
<path fill="#de2910" opacity="1.00" d=" M 485.68 243.09 C 489.20 245.79 492.31 248.97 495.81 251.69 C 499.47 249.34 503.21 247.11 507.03 245.04 C 505.58 249.06 503.49 252.82 502.09 256.86 C 504.52 260.41 508.64 262.58 511.45 265.91 C 507.24 265.76 503.07 265.15 498.88 264.89 C 496.41 268.30 495.46 272.63 493.48 276.36 C 491.30 272.61 491.82 267.91 490.01 264.00 C 485.79 263.41 481.50 263.35 477.28 262.75 C 480.66 260.14 484.60 258.42 488.11 256.02 C 488.08 251.68 486.21 247.43 485.68 243.09 Z" />
<path fill="#de2910" opacity="1.00" d=" M 228.01 258.92 C 231.48 261.60 234.62 264.69 237.93 267.57 C 241.64 265.33 245.32 263.05 249.14 260.99 C 247.90 265.15 245.67 268.92 244.24 273.01 C 247.35 276.11 250.88 278.75 254.02 281.82 C 249.62 281.77 245.25 280.76 240.87 280.86 C 238.74 284.53 237.85 288.83 235.37 292.31 C 234.05 288.26 234.03 283.59 232.12 279.87 C 227.99 279.21 223.79 279.23 219.66 278.57 C 223.07 275.95 226.95 274.05 230.65 271.90 C 229.99 267.53 228.70 263.28 228.01 258.92 Z" />
<path fill="#de2910" opacity="1.00" d=" M 598.14 266.54 C 601.60 264.55 606.24 263.93 609.53 266.61 C 612.95 269.24 617.51 268.51 621.43 269.72 C 626.90 271.46 631.81 275.29 634.43 280.44 C 636.23 283.97 635.85 288.99 632.24 291.23 C 627.68 294.27 622.00 296.31 619.18 301.33 C 617.31 304.58 617.84 308.41 618.46 311.92 C 614.44 310.64 610.18 310.08 606.28 308.48 C 603.96 307.66 604.61 304.85 604.92 303.00 C 605.81 296.40 607.92 289.05 604.35 282.88 C 602.31 278.95 598.48 276.51 595.60 273.29 C 593.73 270.90 595.69 267.59 598.14 266.54 Z" />
<path fill="#de2910" opacity="1.00" d=" M 574.30 283.27 C 576.37 282.07 578.95 283.18 581.01 283.91 C 583.95 285.35 583.45 289.10 583.09 291.75 C 581.82 290.59 581.45 288.94 581.61 287.28 L 581.20 287.27 C 581.30 288.14 581.52 289.88 581.63 290.75 L 580.56 290.17 C 580.91 290.98 581.26 291.79 581.61 292.61 C 578.98 292.46 574.92 293.67 573.63 290.51 C 573.01 288.16 573.04 285.42 574.30 283.27 Z" />
<path fill="#de2910" opacity="1.00" d=" M 295.82 332.01 C 301.36 328.75 307.97 330.03 314.06 330.07 C 312.06 343.31 319.11 356.22 316.25 369.40 C 315.26 372.77 314.23 376.84 311.07 378.81 C 306.55 379.71 302.67 376.19 299.82 373.13 C 296.50 369.74 298.24 364.28 295.22 360.72 C 292.78 356.58 288.06 354.38 283.31 354.88 C 283.11 351.07 282.09 347.05 283.46 343.35 C 284.82 340.55 288.43 341.85 290.87 341.75 C 290.83 337.96 292.29 333.86 295.82 332.01 M 295.83 333.81 C 292.90 335.84 292.10 339.56 292.50 342.91 C 290.10 343.28 287.67 342.93 285.27 343.22 C 284.28 344.69 284.30 346.50 284.09 348.19 C 293.84 347.84 303.53 346.37 312.96 343.89 C 312.48 339.78 312.06 335.64 312.52 331.51 C 306.95 331.38 300.66 330.34 295.83 333.81 M 298.76 366.52 C 299.25 372.27 304.63 376.70 310.05 377.62 C 313.32 375.76 314.04 371.45 315.18 368.12 C 309.78 367.03 304.28 366.38 298.76 366.52 Z" />
<path fill="#de2910" opacity="1.00" d=" M 267.96 366.39 C 273.69 366.29 279.30 364.99 285.01 364.76 C 286.46 364.82 288.41 364.40 289.16 366.06 C 289.97 368.39 289.13 370.89 287.98 372.95 C 284.07 379.83 278.41 385.44 273.46 391.55 C 269.18 397.00 260.77 394.68 256.01 399.23 C 253.22 404.97 257.25 412.10 253.78 417.76 C 249.20 425.04 240.48 427.78 234.36 433.41 C 230.36 436.94 228.19 442.61 229.35 447.88 C 231.08 456.41 236.55 463.58 238.72 471.98 C 240.42 478.46 242.55 485.57 240.03 492.12 C 238.31 496.85 232.64 499.21 227.94 497.87 C 220.57 495.97 215.34 489.96 210.63 484.37 C 208.72 481.58 204.52 481.29 201.75 482.85 C 200.56 486.48 200.59 490.36 200.09 494.13 C 198.34 511.11 197.62 529.47 206.02 544.95 C 210.61 553.13 212.70 562.75 211.59 572.08 C 211.54 573.80 210.25 575.14 208.70 575.72 C 202.13 578.28 194.39 576.99 188.58 573.14 C 180.07 567.37 175.61 557.31 173.71 547.51 C 172.63 542.10 169.63 536.74 164.64 534.09 C 160.84 532.02 156.29 533.49 153.04 535.90 C 146.00 540.96 142.78 549.62 135.91 554.84 C 131.63 558.18 125.88 557.24 120.87 558.32 C 109.29 560.43 97.42 565.68 90.53 575.63 C 86.67 581.05 85.68 587.89 86.31 594.39 C 83.68 594.43 80.91 595.16 78.34 594.33 C 74.59 587.72 74.84 579.20 69.74 573.26 C 67.36 570.26 63.43 572.44 61.04 574.26 C 55.31 578.11 55.40 586.67 49.27 590.07 C 44.67 591.65 39.73 589.71 35.07 590.78 C 29.40 595.68 26.79 603.22 21.19 608.16 C 16.53 610.51 11.78 606.61 8.49 603.58 C 3.42 599.19 1.11 592.69 0.00 586.27 L 0.00 582.72 C 1.47 572.20 6.52 561.50 16.00 556.01 C 24.65 550.87 32.80 544.70 39.29 536.97 C 48.23 526.60 53.58 512.84 52.78 499.07 C 52.75 495.73 52.73 492.18 54.35 489.16 C 56.36 485.95 60.43 483.81 64.21 484.78 C 69.12 486.08 72.95 490.07 78.11 490.69 C 84.17 491.27 89.98 488.19 96.05 488.93 C 101.01 489.29 106.22 491.90 111.01 489.51 C 105.59 487.47 99.76 486.72 94.39 484.53 C 90.93 483.23 88.96 479.73 85.57 478.30 C 79.39 475.42 72.69 473.87 66.40 471.26 C 65.04 470.73 64.09 469.59 63.07 468.60 C 74.74 462.28 89.15 462.96 100.36 455.57 C 108.52 451.05 118.04 449.78 126.20 445.22 C 131.89 442.04 138.08 439.20 144.78 439.68 C 143.66 451.44 137.75 462.19 136.70 473.95 C 136.25 477.22 139.20 479.46 141.99 480.32 C 146.24 481.61 151.73 481.49 154.65 477.63 C 163.71 467.37 160.62 451.70 169.43 441.33 C 174.08 435.53 180.55 431.43 187.30 428.48 C 200.31 422.90 216.31 427.73 228.07 418.74 C 237.41 410.29 237.01 396.36 243.76 386.28 C 247.97 380.22 252.38 374.03 258.44 369.66 C 261.18 367.62 264.50 366.30 267.96 366.39 M 249.92 397.95 C 245.04 406.25 244.07 415.96 243.24 425.35 C 246.99 422.78 250.96 420.06 253.10 415.91 C 255.27 410.34 251.81 403.85 254.72 398.48 C 258.86 393.82 266.09 395.32 270.95 391.92 C 273.84 389.12 276.18 385.82 278.86 382.83 C 282.51 378.22 286.73 373.70 288.36 367.91 C 272.22 372.25 257.80 383.12 249.92 397.95 M 229.52 436.23 C 227.23 440.17 226.93 444.62 227.35 449.06 C 219.98 452.65 211.85 454.31 203.67 454.13 C 202.83 453.83 202.00 453.55 201.16 453.26 C 211.27 461.31 222.41 468.13 234.56 472.61 C 235.83 472.98 236.91 473.75 237.80 474.72 C 236.03 464.87 229.20 456.81 227.58 446.93 C 227.00 443.17 230.01 439.96 229.52 436.23 Z" />
<path fill="#de2910" opacity="1.00" d=" M 353.51 442.60 C 367.59 440.03 382.18 443.22 395.04 449.13 C 410.68 456.32 424.47 466.78 438.93 475.99 C 443.07 478.69 448.04 480.08 452.98 479.79 C 466.28 479.03 477.70 470.09 491.10 470.06 C 504.75 470.71 513.56 482.59 521.30 492.38 C 535.04 510.31 527.67 535.83 541.14 553.86 C 544.61 558.37 549.01 562.07 552.50 566.57 C 555.37 569.88 555.84 574.73 554.74 578.84 C 553.44 582.30 549.43 583.58 546.08 584.01 C 540.91 583.90 536.37 580.71 533.22 576.81 C 528.42 570.83 525.04 563.64 523.90 556.03 C 522.07 546.53 520.51 536.35 514.37 528.53 C 511.31 524.53 506.19 522.79 501.27 523.15 C 500.89 531.20 500.38 539.31 498.49 547.16 C 496.77 553.91 493.69 560.68 488.06 565.04 C 485.83 566.87 482.95 567.92 481.15 570.26 C 477.57 575.89 479.34 583.78 474.63 588.79 C 475.44 587.06 475.77 585.19 475.80 583.30 L 475.60 583.29 C 475.03 585.78 474.00 588.69 471.00 588.90 C 472.64 588.81 474.29 588.77 475.95 588.80 C 472.71 591.92 468.33 589.84 465.55 587.33 C 463.04 585.37 461.84 581.97 462.40 578.86 C 462.96 574.94 465.23 571.60 467.31 568.34 C 472.13 560.99 473.46 551.25 470.09 543.05 C 466.39 534.16 458.34 527.26 448.99 524.95 C 436.84 521.64 424.23 524.13 411.98 525.22 C 407.03 524.73 400.75 523.66 398.34 518.68 C 385.34 496.86 362.42 483.66 347.97 463.03 C 343.93 456.47 345.46 445.27 353.51 442.60 M 482.07 472.84 C 473.63 475.34 465.63 479.24 456.94 480.86 C 460.28 491.02 459.91 502.45 455.17 512.12 C 461.01 508.09 466.70 503.82 472.00 499.09 C 480.47 491.16 487.58 481.86 493.33 471.79 C 489.55 471.06 485.69 471.72 482.07 472.84 Z" />
<path fill="#de2910" opacity="1.00" d=" M 254.84 510.10 C 249.35 509.73 250.31 499.31 255.99 500.51 C 263.01 501.06 270.77 502.97 275.61 508.45 C 279.46 513.07 277.35 519.52 274.53 524.08 C 272.42 522.66 270.99 520.50 269.18 518.76 C 265.18 514.77 260.18 511.89 254.84 510.10 Z" />
<path fill="#de2910" opacity="1.00" d=" M 353.90 541.01 C 354.42 536.31 358.98 531.08 363.94 532.41 C 366.98 536.33 368.05 541.66 371.60 545.30 C 374.49 547.47 378.01 548.87 380.27 551.82 C 384.09 556.11 386.97 562.15 393.04 563.57 C 396.42 563.61 400.58 562.94 402.79 566.23 C 406.64 571.72 403.42 578.74 404.28 584.89 C 401.72 583.43 400.38 580.57 397.84 579.07 C 394.08 576.44 388.58 574.89 384.55 577.75 C 383.55 580.28 384.54 582.85 386.51 584.56 C 392.55 590.84 396.09 600.82 391.87 609.01 C 390.85 612.06 387.41 614.20 384.33 612.52 C 379.76 609.83 377.12 604.87 375.14 600.13 C 368.35 600.73 369.91 610.56 364.59 613.25 C 359.87 612.03 355.91 606.37 357.67 601.50 C 361.16 595.20 368.87 593.46 373.85 588.82 C 375.71 584.04 370.78 580.44 367.40 578.00 C 370.05 574.72 373.19 571.72 375.04 567.89 C 376.88 564.37 373.86 560.73 370.76 559.30 C 365.55 557.07 359.73 557.05 354.16 557.31 C 354.04 551.88 353.53 546.43 353.90 541.01 Z" />
<path fill="#de2910" opacity="1.00" d=" M 266.07 570.76 C 272.01 569.56 278.66 568.74 284.18 571.82 C 285.09 573.63 285.92 575.84 284.22 577.53 C 280.56 582.25 273.97 579.49 269.02 580.89 C 266.26 584.06 264.32 588.14 260.51 590.24 C 254.48 592.00 249.83 583.42 252.61 578.51 C 255.42 573.81 261.06 572.02 266.07 570.76 Z" />
<path fill="#de2910" opacity="1.00" d=" M 516.46 626.64 C 519.29 625.49 522.55 625.84 525.39 626.83 C 529.73 628.62 529.16 635.67 525.09 637.44 C 521.11 639.26 515.57 638.01 513.38 634.05 C 511.88 631.27 513.62 627.68 516.46 626.64 Z" />
<path fill="#de2910" opacity="1.00" d=" M 537.93 643.92 C 543.13 639.59 550.78 638.32 557.04 640.96 C 560.19 642.26 562.50 645.45 562.48 648.90 C 562.87 655.45 559.32 661.24 556.71 666.98 C 554.84 666.99 552.98 666.99 551.13 667.00 C 547.98 660.82 540.91 658.27 537.38 652.47 C 535.70 649.79 536.40 646.47 537.93 643.92 Z" />
</g>
</svg>
