<?xml version="1.0" encoding="UTF-8" standalone="no"?>
<svg
   xmlns:dc="http://purl.org/dc/elements/1.1/"
   xmlns:cc="http://creativecommons.org/ns#"
   xmlns:rdf="http://www.w3.org/1999/02/22-rdf-syntax-ns#"
   xmlns:svg="http://www.w3.org/2000/svg"
   xmlns="http://www.w3.org/2000/svg"
   xmlns:sodipodi="http://sodipodi.sourceforge.net/DTD/sodipodi-0.dtd"
   xmlns:inkscape="http://www.inkscape.org/namespaces/inkscape"
   width="1027.7854"
   height="602.07532"
   viewBox="0 0 10.277854 6.0207532"
   id="svg2"
   version="1.1"
   inkscape:version="0.91 r13725"
   sodipodi:docname="20160115004249!Flag-map_of_Hungary.svg">
  <metadata
     id="metadata14">
    <rdf:RDF>
      <cc:Work
         rdf:about="">
        <dc:format>image/svg+xml</dc:format>
        <dc:type
           rdf:resource="http://purl.org/dc/dcmitype/StillImage" />
        <dc:title></dc:title>
      </cc:Work>
    </rdf:RDF>
  </metadata>
  <defs
     id="defs12" />
  <sodipodi:namedview
     pagecolor="#ffffff"
     bordercolor="#666666"
     borderopacity="1"
     objecttolerance="10"
     gridtolerance="10"
     guidetolerance="10"
     inkscape:pageopacity="0"
     inkscape:pageshadow="2"
     inkscape:window-width="1600"
     inkscape:window-height="837"
     id="namedview10"
     showgrid="false"
     fit-margin-top="0"
     fit-margin-left="0"
     fit-margin-right="0"
     fit-margin-bottom="0"
     inkscape:zoom="0.88026826"
     inkscape:cx="670.71883"
     inkscape:cy="239.92868"
     inkscape:window-x="-8"
     inkscape:window-y="-8"
     inkscape:window-maximized="1"
     inkscape:current-layer="svg2" />
  <path
     style="fill:#ffffff;stroke:#cd2a3e;stroke-width:0.02;stroke-miterlimit:4;stroke-dasharray:none;stroke-opacity:1"
     clip-path="none"
     d="m 0.6056986,2.0101888 3.125e-4,8e-5 1.758e-4,-8e-5 -4.883e-4,0 z m 0.0390039,0 6.055e-4,5.66e-4 0.0226758,0.011602 0.0308203,0.019297 0.002852,0.00258 0.0122656,0.00709 0.0199414,-2.34e-4 0.0144531,0.00482 0.0240234,-0.010195 0.0205859,-0.00875 0.0220313,4.1e-4 0.015957,0.012656 0.007754,0.020312 0.0124805,0.010957 0.001504,0.010137 0.002637,0.017656 0.0109766,0.024863 0.001641,0.013125 -0.0113477,0.016191 0.01,0.00986 0.0165234,0.00445 0.0227344,0.030918 0.0112305,0.00703 0.002129,0.00809 0.001465,0.0057 -0.009687,0.014297 -0.002637,0.01584 -0.0199805,0.022871 -0.0166211,0.011953 -0.0222852,-0.00193 -0.0148438,0.00781 -0.001973,0.013887 0.0104492,0.018066 0.0140625,0.016836 5.078e-4,0.014531 -0.008926,0.013965 -0.008047,0.012598 -3.9e-5,0 -0.003047,0.00277 -0.00166,0.00145 -0.0410742,0.036719 -0.0114844,0.018633 -0.0161523,0.00529 -3.906e-4,1.17e-4 -0.003223,0.00105 -0.0175977,0.011445 -0.0137695,5.86e-4 -0.0172656,0.021621 -0.0174414,0.00184 -0.008906,0.00426 -0.0441602,-0.00197 -0.008711,-4.3e-4 -0.002402,0.00271 -0.0283203,0.032129 -0.008535,-0.00873 -0.0148633,-0.00574 0.001582,-0.00811 -0.008828,-0.012148 -0.0357617,-0.00463 -0.008477,0.00428 -0.006797,0.017949 0.0075,0.016895 0.002012,1.17e-4 6.25e-4,0.028105 0.005293,0.026895 -0.009688,0.015371 -0.0179687,0.00273 -0.006953,0.00541 0.00252,0.00787 0.0146094,0.016348 0.0192188,0.00893 0.0124414,0.018184 0.006582,0.027285 0.002539,0.010527 0.007793,0.01209 0.0189063,0.05043 -0.0118164,0.00945 -0.006953,0.024219 -0.004355,0.015176 -0.0101953,0.00811 -0.020918,0.00258 -0.0306836,0.010195 0.0112695,0.01373 -0.005234,0.01752 -0.005488,0.036426 -0.004941,0.00551 -0.0172656,8.79e-4 -0.002949,0.00482 -0.003906,0.00633 0.006992,0.022031 0.004746,0.014961 0.009121,0.00732 0.020625,0.00223 0.0195117,0.016777 0.002988,0.00252 0.0132227,0.021113 -0.0124023,0.010664 -0.009082,0.00787 -0.005957,0.012676 4.297e-4,0.00141 0.004121,0.014297 0.0186719,-7.03e-4 0.0396484,-0.00146 0.0321875,-0.00428 0.0136133,0.015449 0.007715,0.020254 -0.006621,0.00828 -0.0271875,0.012773 -0.008887,0.018828 -0.0110547,0.0066 -0.007793,0.010117 -0.0175,0.00832 -0.007598,0.00365 -0.003145,0.00943 0.005879,0.00893 0.00377,0.00574 9.375e-4,0.023281 0.0263281,0.01418 0.0234961,0.00389 0.014082,0.00816 2.539e-4,0.011133 -0.020332,0.016113 -0.0402539,0.00523 -0.0116601,0.00521 -0.022207,0.00996 -0.0139063,0.026797 0.006777,0.00428 0.0210352,-0.00498 0.0170117,0.00254 0.0164062,0.011348 0.0250586,0.017363 0.0179297,0.01127 8.984e-4,0.00877 -0.001621,0.00236 -0.006797,0.00969 -0.0248047,0.00135 -0.023125,0.0058 -0.0272461,-0.00705 -0.0105469,-0.00838 -0.0276758,0.013789 -0.0137305,-0.00615 -0.0103906,-0.010879 -0.0150781,-3.91e-4 -0.0205469,0.00551 -0.0215039,-0.00326 -0.0159961,-0.00969 -0.0199023,0.00316 -0.0293555,0.00885 -0.0275195,-0.00365 -0.0171484,0.00719 -0.0124609,-0.00947 -0.0120703,-0.016641 -0.01125,0.0027 -2e-5,0 -0.0123633,0.035059 -0.008926,0.020703 8.789e-4,0.00627 0.002891,0.020527 -0.007695,0.01707 -0.001035,0.00229 -0.0361133,0.00412 -0.0111524,0.0085 0.00123,0.011973 -0.009238,0.00256 -0.006055,0.00832 -0.008887,0.00477 -0.0304102,0.00686 -0.00793,0.011914 -0.0156055,0.023633 -0.014707,0.022227 -0.002969,0.00703 -0.02091797,0.013262 -0.02330078,0.033438 -0.01365234,0.016582 -0.03388672,0.023477 0.01746093,0.021504 0.01457032,0.00861 0.0086328,0.00184 0.0072461,0.00152 0.02572266,-0.00916 0.02832031,-0.0017 0.0191797,-0.016758 0.0376367,-0.00646 0.0260156,-0.012949 0.0152539,0.00574 0.0201562,2.34e-4 0.0354687,0.0041 0.0156641,0.00674 0.0161328,0.022754 0.0179687,0.00246 0.002012,1.76e-4 0.017168,0.021836 0.0174414,0.00297 0.007793,0.018906 0.001035,0.015 -0.002383,0.00691 -0.005117,0.014844 -0.002812,0.00803 -0.002129,0.00621 0.0025,0.015195 -0.0126367,0.016582 -0.0220313,0.00641 -0.006855,0.012656 0.005762,0.026992 0.0193359,0.00402 0.00127,0.011211 -0.008672,0.017344 -0.001914,0.014433 0.0112305,0.012266 0.007109,0.014492 0.0158398,0.018867 0.009004,0.031035 0.003926,0.0026 0.008105,0.00537 0.0143164,-0.011719 0.0144531,0.016875 -0.007246,0.018418 0.001387,0.00975 0.0177148,0.00498 0.04,0.00246 0.009102,0.00758 7.58410149,0 0.00574,-0.00268 0.010977,0.00268 0.015879,0 0.00881,-0.00332 0.011543,-0.00295 0.00361,-9.37e-4 0.00992,0.00398 0.00387,0.00322 0.019394,0 1.56e-4,-1.56e-4 0.00219,-0.00949 0.0084,-0.016387 0.00881,-0.011719 0.014492,-0.013125 0.00951,-0.014629 0.00791,-0.010723 -5.47e-4,-0.00738 -0.00545,-0.00803 -0.017129,-0.00998 -0.01834,-0.012656 -0.013242,-0.00934 -0.00803,-0.0041 -0.0024,-0.00633 0.00102,-0.012129 2.54e-4,-6.64e-4 0.00295,-0.00799 0.00605,-0.00967 0.00598,-0.00768 0.01168,-0.014961 0.014961,-0.032617 0.00729,-0.032129 0.00307,-0.024336 0.0015,-0.018711 0.00754,-0.01541 0.010899,-0.010039 0.015859,-0.00756 0.016719,-0.00955 0.011152,-0.00635 0.038203,-0.013594 4.69e-4,-1.76e-4 0.01207,-0.00732 0.0048,-0.01332 0.00842,-0.017305 0.00531,-0.019883 0.00104,-0.012129 0.00252,-0.018789 -0.00295,-0.013691 -0.00428,-0.00535 -0.00713,-0.018066 -10e-5,-0.014883 0.00412,-0.00957 0.0073,-0.00609 0.00744,-0.00418 0.021172,-0.0024 0.019004,-0.00498 0.00629,-0.00691 0.010566,-0.014668 0.00389,-0.013262 0.00926,-0.00619 0.018184,-0.00305 0.00242,-0.0067 0.00297,-0.012246 -0.0049,-0.014551 -0.0048,-0.012715 9.18e-4,-0.013965 0.00529,-0.00781 0.01084,-0.010957 0.00322,-0.00855 -9.18e-4,-0.012969 -0.00729,-0.00691 -0.00713,-0.00668 -0.00955,-0.00898 -0.0048,-0.00551 -0.012109,-0.013789 -0.00115,-0.00303 -0.00141,-0.00371 -0.00465,-0.012246 0.00594,-0.011563 0.011309,-0.00453 0.015078,-0.00656 0.014863,-0.00934 0.00717,-0.00791 0.011641,-0.013769 0.00973,-0.013672 0.016035,-0.019649 0.00854,-0.016348 0.00508,-0.010547 0.0023,-0.00852 0.01123,-0.00635 0.013769,-0.011133 0.016875,-0.0085 0.01416,-0.00559 0.033672,-0.005 0.0073,-0.00697 0.00305,-0.00777 0.00105,-0.00271 0.00188,-0.01377 4e-5,-2.93e-4 0.006,-0.011562 0.00541,-0.00592 0.0077,-0.014434 5.08e-4,-0.020469 0.00359,-0.017891 0.00449,-0.018867 0.01123,-0.013086 0.00137,-0.00166 0.00623,-0.0035 0.00873,-0.00492 0.023594,-0.010801 0.013828,-0.011152 0.00598,-0.011484 0.00852,-0.017656 0.00166,-0.00346 0.00105,-0.013086 -0.00494,-0.014531 -0.00859,-0.011504 -0.00871,-0.013359 -0.00457,-0.00904 0.00209,-0.012187 0.0085,-0.017246 0.00775,-0.00764 0.00139,-0.00135 0.00406,-0.011348 0.015234,-0.018672 0.00145,-0.0075 0.00344,-0.020645 -4.3e-4,-0.033418 0.00143,-0.016543 2.34e-4,-0.00217 0.00711,-0.00975 0.042187,-0.038008 0.00812,-0.00979 0.0018,-0.00191 0.00625,-0.022715 0.00205,-0.026152 0.011563,-0.016543 0.015293,-0.018594 0.016699,-0.012188 0.024082,-0.00521 0.017969,-0.00264 0.00428,-6.44e-4 0.021309,-0.00223 0.017988,-0.00855 0.012891,-0.011016 0.010879,-0.026699 0.00445,-0.034609 0.00188,-0.029844 -0.00467,-0.025684 -0.00936,-0.02168 -0.00682,-0.014512 -0.00975,-0.013301 -4.88e-4,-0.021289 0.00244,-0.021523 0.00561,-0.031894 0.010898,-0.02668 0.00227,-0.00512 0.00422,-0.00949 0.00453,-0.010195 0.021777,-0.025508 0.016699,-0.014023 0.019082,-0.00674 0.032383,-0.014063 0.018574,-0.015078 0.014277,-0.020293 0.020606,-0.029141 0.00938,-0.00615 0.00875,-5.27e-4 0.010898,0.00117 0.012012,0.00393 0.00988,0.00127 0.014531,-0.00273 0.012363,-0.00541 0.010723,-0.015488 2.34e-4,-0.00133 0.00328,-0.019316 0.00357,-0.020644 0.00275,-0.016875 0.00541,-0.016037 -8.55142578,0 z"
     id="rect6"
     inkscape:connector-curvature="0" />
  <path
     style="fill:#436f4d;stroke:#436f4d;stroke-width:0.02;stroke-miterlimit:4;stroke-dasharray:none;stroke-opacity:1"
     clip-path="none"
     d="m 0.47470251,4.0101888 0.004687,0.00391 0.002129,0.00592 -0.004473,0.00699 -1.758e-4,0.02457 -7.8e-5,0.016543 -0.007832,0.012539 -0.0141992,0.00207 -0.0111133,-0.00652 -0.00707,0.00105 -0.002637,0.016719 -0.007676,0.017949 0.0108594,0.025332 0.0100977,-0.00129 0.0190039,0.00791 0.0161719,0.022754 0.00541,0.00762 0.0205273,0.00805 0.006914,0.00826 0.0130273,0.015605 0.00582,0.00691 0.001582,0.00193 0.0315039,0.030957 0.00623,0.026504 0.0126953,0.012441 0.0272266,-0.00264 0.0132031,0.026524 0.002012,10e-5 0.001016,0.02957 0.0133398,0.00957 -0.00502,0.020273 -4.883e-4,0.00211 0.0138672,0.016816 5.469e-4,0.00734 2.539e-4,0.00336 -0.0129102,0.013242 0.0130078,0.00709 0.008184,0.00494 0.0156641,0.012617 0.0233398,0.011836 0.0350977,0.017871 0.00582,0.00293 0.062207,0.017656 0.0200195,0.0057 0.020293,0.00281 0.0132227,0.00627 0.002227,0.00105 0.00748,0.0068 0.00209,0.00594 -0.002168,0.00205 -0.007461,0.00697 -0.006797,0.00441 0.0100195,0.00645 0.0155078,-4.1e-4 0.0338672,0.052656 3.906e-4,-2.34e-4 0.0142578,0.022949 0.011543,0.026895 0.007324,0.0092 0.009492,-0.00709 1.172e-4,-1.76e-4 0.005664,-0.010547 0.005254,-0.00445 0.006016,-6e-5 0.006816,0.029961 0.0164649,1.37e-4 0.006894,0.014512 0.00699,0.00676 0.00855,-0.014414 0.014121,0.01166 0.013477,-0.014141 0.014023,-0.00141 0.010274,0.00312 0.0033,0.00262 0.00201,0.013184 0.00877,0.00307 0.00637,0.00867 0.00945,1.17e-4 0.00695,0.00729 0.00918,-0.00277 3.32e-4,0.00199 0.00869,0.010742 0.012676,0.00381 0.00461,0.010371 0.00139,0.00312 0.00707,0.00531 0.00904,-8.2e-4 0.00166,0.00492 -0.00344,0.012852 0.011094,0.0051 9.18e-4,0.00781 0.00516,0.00428 0.010273,0.00334 0.00678,0.00217 -0.00607,0.0017 -0.00766,0.00219 -0.00125,0.00334 -8.4e-4,0.018301 0.006,0.02457 0.00436,0.017832 0.00309,0.011777 0.00428,0.023574 0.00824,0.00926 0.00289,0.00117 0.010469,0.00703 0.019316,0.027988 0.00922,0.00984 0.00908,0.00498 0.011524,-6.45e-4 0.00414,0.029219 10e-5,6.44e-4 6.25e-4,1.17e-4 0.020762,0.0041 0.016973,0.00334 0.0057,0.010625 -0.00158,0.015371 0.04082,0.00668 0.044316,0.027266 0.034648,0.016484 0.05043,0.031191 0.026699,0.00281 0.010957,0.01291 0.026426,0.00621 0.00672,0.010215 0.038066,0.00314 0.00963,0.023926 0.017813,0.00807 0.00795,0.032988 -0.00611,0.028633 0.00176,0.016113 0.00617,0.00904 0.00455,0.00672 0.00326,-0.00145 0.010645,-0.0048 0.015664,-0.00322 0.014023,0.01168 8.2e-4,0.00217 0.0075,0.019746 -0.00229,0.016309 0.00494,0.016719 0.026113,0.00797 0.00766,0.00234 0.013145,0.015723 0.00326,0.00387 -0.00406,0.00746 -0.015586,0.011309 0.00857,0.00271 0.01959,0.00332 0.00496,0.00564 0.00145,0.00164 -4.1e-4,0.00205 -0.00193,0.00938 -0.012227,0.017051 0.00219,0.023418 0.014649,-0.010098 0.00818,-0.00115 0.0074,-0.00105 0.020234,0.00826 0.0085,0.012187 -0.014609,0.0091 -0.013399,0.00115 -0.00811,7.23e-4 -0.02043,0.013965 -1.17e-4,0.00193 4.1e-4,0.00732 0.00779,0.00879 0.034219,0.00518 0.019102,0.00293 0.00209,2.93e-4 0.00592,0.00723 -0.017187,0.023457 0.00445,0.00557 0.00461,0.00574 0.014629,-0.00328 0.015195,-0.010488 0.00311,0.011367 -0.00787,0.01877 0.00502,0.012031 0.00648,-0.00102 0.016387,-0.019121 0.0023,-0.023555 0.020762,0.026738 0.011738,0.00182 0.00551,-0.00734 0.0049,-0.024355 0.010606,0.010449 0.00121,0.00979 -0.00717,0.021777 -0.00631,0.00486 0.00523,0.00963 0.034551,0.00205 -0.00539,0.011738 -0.018184,0.00445 -0.022637,-0.00264 -0.01,-0.00504 -0.013867,-0.00691 -0.0023,0.017305 0.00676,0.015 0.00242,0.00135 0.0066,0.00371 0.029414,-0.00852 0.013281,0.00146 4.88e-4,4e-5 0.004,0.00609 -2.93e-4,0.022773 0.00971,0.00896 0.00902,-0.00129 0.016113,-0.022051 0.009,0.00504 0.011934,0.025098 0.012441,-5.27e-4 0.00809,-0.00855 -0.00209,-0.011328 0.0083,0.00205 0.00197,-7.03e-4 -0.00189,-0.011602 -0.00254,-0.015781 0.00502,-0.00656 3.71e-4,-4.69e-4 3.52e-4,0 0.00104,0 0.00625,0 0.00766,0 0.011055,0.00252 0.027187,0.00621 0.053496,0.00881 0.02668,0.00551 0.00908,0.00422 0.044687,0.00117 0.02082,0.0051 0.012832,0.010801 4.49e-4,4.1e-4 0.015371,0.012969 0.036445,0.029375 0.027481,0.037871 0.020605,0.048848 0.00777,0.031992 0.00361,0.01498 0.021953,0.019062 0.035566,-0.00287 0.029609,0.011621 0.04834,0.013125 0.01832,0.019883 0.041875,0.00574 0.034336,0.024707 0.00943,-0.0051 0.00168,-8.79e-4 0.0077,-0.00746 0.00383,-0.00234 0.00117,-7.03e-4 0.00838,0.0085 0.00289,0.010859 7.42e-4,0.00457 0.00234,0.014121 0.026465,0.020664 0.00555,0.015937 0.00383,0.01125 0.012656,0.0034 0.021953,-0.022402 0.02916,-0.024023 0.011856,-0.00131 0.025293,0.00668 0.015508,-0.00215 0.00963,-0.00266 0.017832,-0.00191 0.022383,-4.88e-4 0.013828,0.00352 0.012637,-0.0041 0.00432,-0.00141 0.00127,-0.00105 0.00477,-7.62e-4 0.00783,-2.54e-4 0.00162,-10e-5 0.027832,0.031191 0.00477,-7.62e-4 0.00381,0.00105 0.026055,0.00723 0.041133,0.013887 0.028945,0.00475 0.023652,-0.00139 0.023887,-0.030195 0.00562,-0.00992 0.029492,-8.79e-4 0.014102,0.0034 8.99e-4,1.76e-4 0.00529,0.00621 0.00867,0.00793 0.00109,9.77e-4 0.00896,0.00541 0.00742,-0.004 0.00154,-9.77e-4 0.016836,-0.010918 0.00689,-6e-5 0.00895,-4e-5 0.00293,9.77e-4 0.01084,0.00383 0.016836,0.00592 0.00588,0.00205 0.032832,0.031387 0.02916,5.27e-4 0.026465,0.013906 0.00537,-1.95e-4 0.00863,-3.52e-4 0.012793,-5.27e-4 0.043711,0.0091 0.027754,0.010625 0.012695,-0.026113 0.017734,-0.010098 0.029394,0.00354 0.023965,0.024863 0.00563,0.014063 0.054844,-0.00445 0.0099,-0.00588 0.011563,-0.029551 0.012871,-4.69e-4 0.00256,-1.17e-4 0.01666,-0.0092 0.012891,-0.032851 0.00918,-0.013731 0.00549,-5.08e-4 0.021543,0.018867 0.016191,-0.00393 0.00207,-0.00176 0.01834,-0.01584 0.017851,-3.32e-4 -1.56e-4,0.00193 0.019004,-0.012852 2.15e-4,-0.0024 0.00158,-6.44e-4 0.020566,-0.00855 0.0024,-0.012969 5.27e-4,-0.00281 0.013828,-0.010391 0.019492,-0.012305 0.00824,-0.019707 0.02043,-0.01707 0.0027,-0.023496 0.00842,-0.015781 0.00322,-0.029277 0.032617,-0.00434 -0.013613,-0.024512 0.00309,-0.011387 0.033945,-0.018281 1.17e-4,-0.022813 0.00529,-0.00875 0.016895,-0.00527 0.032285,-4.69e-4 0.0375,0.028613 0.022148,0.00734 0.028828,0.015254 0.00682,0.00104 0.023965,0.00371 0.026504,0.018418 0.016816,5.86e-4 0.00424,-0.00787 -0.00467,-0.029082 0.00537,-0.014551 0.00813,-0.00896 0.00617,-0.00684 0,-2e-5 0.00361,-0.00398 0.00314,-0.00348 9.96e-4,9.38e-4 0.016758,0.015723 0.00529,-7.81e-4 0.039219,-0.00592 0.00609,-0.013867 0.013711,0.0032 0.018066,-0.012734 c 0.00886,-0.0085 0.014848,-0.018756 0.025156,-0.028789 0.020739,0.0041 0.039865,0.010128 0.060078,0.015391 0.00788,0.00205 0.015477,0.00202 0.023457,0.00451 0.012036,-0.00636 0.025627,-0.00972 0.038477,-0.014062 0.00243,0.0065 0.00693,0.012046 0.010742,0.017754 l 0.021094,0.00111 c -0.00562,-0.014661 -0.013822,-0.0337 -0.016621,-0.048828 0.00139,-0.00294 0.010886,-0.025339 0.011797,-0.026094 0.018041,-0.015 0.048372,-0.011752 0.070039,-0.013965 0.00433,-4.39e-4 0.03897,0.00808 0.041348,0.00295 -0.00169,-0.010207 -0.00556,-0.020736 -0.00816,-0.030801 -0.00376,-0.014538 -0.00811,-0.028922 -0.011738,-0.043496 -6.49e-4,-0.00261 6.76e-4,-0.00327 0.00234,-0.00529 0.015896,-0.019262 0.030463,-0.040837 0.044434,-0.061543 0.00357,-0.00529 0.0067,-0.010417 0.00979,-0.015996 3.2e-4,-5.9e-4 0.00122,-0.0028 0.00164,-0.00314 0.00126,-9.92e-4 0.00298,0.00118 0.00447,0.00176 0.00438,0.0017 0.00766,0.00278 0.012324,0.00307 0.00208,1.28e-4 0.026936,0.0013 0.027266,0.0016 0.00414,0.00372 0.016833,0.050528 0.019746,0.060391 6.95e-4,0.00235 -0.00131,0.013238 -0.00131,0.016777 0,0.00171 7e-5,0.00294 6.84e-4,0.00455 0.00402,0.010578 0.029124,-0.00202 0.028379,0.00811 0.019189,6.54e-4 0.040457,0.00444 0.059453,0.00311 -0.00279,-0.00311 -0.00479,-0.00694 -0.0082,-0.010547 1.37e-4,-5.94e-4 0.00967,-0.00195 0.01127,-0.00195 0.0043,0 0.038457,-8.16e-4 0.038965,-4.69e-4 0.00123,8.46e-4 0.0053,0.0082 0.00602,0.00844 0.00329,0.00113 0.07076,-0.00421 0.072481,-0.0035 3.61e-4,1.46e-4 0.016309,0.016961 0.017598,0.018672 0.00201,-0.00229 0.00679,-0.00633 0.00941,-0.00787 -0.00668,-0.01194 -0.01647,-0.025364 -0.024492,-0.036816 l -0.00723,-0.011309 c 7e-5,-1.1e-4 0.05304,-0.034168 0.058281,-0.037227 0.019843,-0.011593 0.039795,-0.024709 0.058828,-0.037656 l 0.00727,-0.00496 c 0.00389,0.00106 0.024172,0.034845 0.024473,0.034883 l 0.012695,-0.00744 c 0.00783,-0.00461 0.038965,-0.012095 0.040566,-0.013672 0.00462,-0.00455 0.00785,-0.014392 0.012012,-0.020039 0.00621,-0.00841 0.016214,-0.017279 0.023828,-0.024609 0.00973,-0.00936 0.023036,-0.018681 0.034551,-0.025957 7.91e-4,-4.98e-4 0.00654,-0.00421 0.00672,-0.00463 0.00153,-0.0033 -6.24e-4,-0.018144 -0.00162,-0.02209 l -0.00213,-0.00727 c 0.00328,-0.00249 0.015988,-0.00746 0.022148,-0.013945 0.00118,-0.00124 0.00176,-0.0043 0.00225,-0.00617 6.59e-4,-3.08e-4 0.00376,-2e-5 0.00467,-4e-5 2.38e-4,-9.1e-6 0.00138,-2.04e-4 0.00328,0.00238 0.022349,-0.00952 0.044139,-0.020128 0.061914,-0.037305 l -0.029648,-0.027012 c -2.74e-4,-0.00192 0.00295,-0.00625 0.00156,-0.00777 -0.00222,-0.00245 -0.00479,-0.00463 -0.00955,-0.00916 1.1e-4,-3.89e-4 0.015446,-0.014553 0.016973,-0.016035 0.00172,-0.00167 0.00284,-0.00535 0.00521,-0.00498 0.00186,2.93e-4 0.014355,0.00859 0.015508,0.0082 0.00713,-0.00553 0.013131,-0.00965 0.020215,-0.015 0.00889,-0.00671 0.017547,-0.013769 0.029199,-0.023047 5e-5,-7.18e-4 -0.00209,-0.00274 -0.00172,-0.00365 l 0.00732,-0.00441 c 1.01e-4,-3.7e-4 -0.00495,-0.00841 -0.0041,-0.00924 0.00541,-0.00287 0.0041,-0.00744 0.010859,-0.00828 0.010678,-0.00132 0.054381,0.013892 0.060293,0.011816 0.00458,8.92e-4 0.034121,0.0072 0.035488,0.00699 0,0 0.041475,-0.039737 0.04459,-0.042187 0.00278,-0.00219 0.00727,0.00706 0.00926,0.00879 l 0.00396,4.1e-4 c -1.87e-4,-0.00391 0.01546,0.011207 0.021113,0.011719 0.0021,1.92e-4 0.00478,-0.00161 0.00316,-0.00701 0.00542,-0.0025 0.012513,-0.00944 0.01748,-0.011133 0.00446,-0.00152 0.00958,0.011745 0.013809,0.012148 l 2e-5,10e-5 c 0.00445,0.00513 0.012421,0.00945 0.015352,0.015449 0.00223,0.00456 -0.00313,0.00741 0.00678,0.011719 0.00203,8.83e-4 0.00932,0.00367 0.010957,0.00322 0.00332,-9.05e-4 0.00573,-0.00541 0.00926,-0.00293 0.00898,0.00631 0.013078,0.017077 0.019453,0.025684 0.0081,0.010911 0.0229,0.029576 0.038613,0.028789 0.00392,-1.92e-4 0.00798,-0.00209 0.011758,-9.96e-4 0.00595,0.00172 0.010385,0.00846 0.016445,0.010352 3.71e-4,1.18e-4 0.00592,-6.56e-4 0.00824,-4e-5 1.65e-4,5e-5 0.00885,0.00811 0.010664,0.00939 0.0022,0.00156 0.013448,0.00556 0.013965,0.00604 0.00242,0.00225 0.00684,0.0081 0.00758,0.0074 0.013166,-0.012539 0.030444,-0.020206 0.043144,-0.033203 0.00232,-0.00237 0.00671,-0.011553 0.00871,-0.012559 1.65e-4,-8e-5 0.026135,-0.00229 0.031426,-0.00381 0.011273,-0.00329 0.024482,-0.012058 0.035352,-0.017148 0.00966,-0.00452 0.020692,-0.00656 0.03041,-0.011094 0.00706,-0.00329 0.025541,-0.023125 0.026621,-0.02334 0.02116,-0.00416 0.049754,6.85e-4 0.072207,-4.49e-4 0.00501,-2.51e-4 0.049918,-0.00134 0.05082,-9.18e-4 0.021786,0.010418 0.011506,0.04819 0.025898,0.064141 0.010692,0.011849 0.025332,-0.00357 0.036855,-0.00357 0.003,0 0.00556,0.00141 0.00662,0.00428 l 0.00143,0.00502 0.00152,-0.00355 c 9.97e-4,-0.00243 0.00345,-0.00763 0.00508,-0.00963 0.011195,-0.013761 0.020109,-0.029823 0.03123,-0.043926 0.00476,-0.00603 0.010473,-0.018198 0.020645,-0.013359 0.00207,9.79e-4 0.00506,0.00301 0.00568,0.00533 5.85e-4,0.00221 -0.00258,0.00333 -0.00346,0.00508 -8.87e-4,0.00174 0.00194,0.017112 0.00336,0.018887 0.00321,0.00402 0.028558,0.022519 0.032871,0.024609 0.00521,0.00251 0.00972,0.00969 0.014902,0.00898 l -1.95e-4,0.00627 c 0.00825,0.00529 0.054732,-0.023193 0.063105,-0.027519 l 0.00344,-0.00639 0.039238,0.034336 c 0.00144,0.00279 0.00233,0.016422 0.00395,0.018086 0.012224,0.012594 0.024358,0.00151 0.034766,0.024024 0.00772,-0.00372 0.014572,-0.0087 0.022187,-0.01248 7.96e-4,0.00227 0.00491,0.00647 0.00475,0.00809 -2.97e-4,0.00302 -0.00551,0.00977 -0.00297,0.013789 0.00179,0.00284 0.00421,0.00563 0.00836,0.00686 0.00244,-0.00483 0.00909,-0.017923 0.01334,-0.020547 -0.00245,0.00777 -0.00726,0.016288 0.00561,0.019082 l 0.00373,-0.02334 0.00281,-0.016953 0.00705,-0.018652 0.013613,-0.00975 0.0048,-0.00346 0.01918,-0.0048 0.021582,-0.00287 0.025469,-0.00746 0.014629,-0.00756 0.013574,-0.00645 0.011426,-0.00627 0.011894,-0.00102 0.00678,0.00266 0.00818,0.00908 0.0051,0.00568 0.011113,0.00229 0.02416,0.00223 0.015781,0.00611 0.025195,0.013828 0.017676,0.00275 0.022519,-0.00398 0.03084,-0.00885 0.00246,-0.00131 0.017344,-0.00885 0.00963,-0.014551 8.79e-4,-0.014883 -0.0035,-0.015664 -0.00307,-0.010312 0.00332,-0.011953 0.011563,-0.00518 0.022578,0.00873 0.024785,0.00969 0.035351,0.018301 0.037148,0.02668 0.010449,0.00563 0.016953,0.00916 0.00687,0.00563 0.00717,0.00594 0.010644,0.00973 0.020879,0.015293 0.00746,0.00471 0.013828,0.00205 0.00641,-0.00791 0.00391,-0.00494 0.00689,-0.00867 0.00797,-0.011211 7.81e-4,-0.00111 0.00135,-4.69e-4 1.76e-4,-4e-5 0.010684,-0.00365 0.013086,5.47e-4 0.010781,-0.00195 0.01,-0.010313 0.00373,-0.00768 0.013789,-0.00428 0.013438,-0.00852 0.00893,-0.00799 2.15e-4,-1.76e-4 0.00322,-0.00738 0.00682,-0.015664 0.00371,-0.021465 0.00201,-0.015019 0.00678,-0.010078 0.0091,-0.00229 0.012051,0.00117 0.00562,0.0017 0.011895,-9.37e-4 0.00264,-0.00762 -0.0023,-0.014687 -0.00566,-0.015469 -0.00355,-0.016641 0.00117,-0.018652 0.00582,-0.015313 0.010527,-0.017774 0.016035,-0.017109 0.019101,-0.013223 0.00125,-5.66e-4 0.019785,-0.00896 0.025332,-0.010449 0.021406,-0.00541 0.016211,-0.00445 0.018887,-0.00326 0.021113,1.76e-4 0.01457,0.00264 0.017441,0.013535 0.0082,0.00746 0.014531,0.013125 0.018848,0.00785 0.00545,-0.00418 3.32e-4,-0.00139 0.00254,-0.00996 0.00367,-0.010859 1.95e-4,-5.66e-4 0.00637,-0.00424 0.010527,0.00152 4e-5,0 0.00205,2.93e-4 0.016094,0.00904 0.011797,0.01582 0.015137,0.00908 0.016328,6.64e-4 0.024629,-0.00375 0.028399,-0.00406 0.017305,5.86e-4 0.00143,8.2e-4 0.00561,0.0033 0.00881,0.014238 0.01502,0.020234 0.020469,0.00404 0.00762,-5.27e-4 0.0082,-0.00527 0.011582,-0.011094 0.00662,-0.0075 4.1e-4,-4.69e-4 0.009,-0.00721 0.012676,-0.00934 0.00357,-0.00363 0.00607,-0.00627 1.17e-4,-1.17e-4 0.00674,-0.01166 0.00559,-0.014395 0.00285,-0.012305 0.0075,-0.014492 0.00242,-0.00574 0.010039,-0.00633 0.012109,-0.00465 0.0175,0.00336 0.012695,0.00281 0.010566,1.17e-4 0.015156,-0.00205 0.00508,-0.00416 0.00486,-0.00398 0.0083,-0.016426 -0.00143,-0.018535 0.00904,-0.019238 0.00701,-0.00891 0.00879,-0.00998 0.00551,-0.015234 -0.00305,-0.014668 -0.00568,-0.01168 0.00246,-0.017871 0.00164,-0.00764 0.00754,-0.034883 0.012441,-0.025098 0.00574,-0.0125 0.014375,-0.013125 0.01457,-0.010371 0.0083,-0.00549 0.00447,-0.00293 0.00662,-0.00141 0.00221,-3.51e-4 0.00764,-0.00129 0.00912,-0.00158 0.018731,0.00609 0.00939,0.00957 0.010781,0.00293 0.00938,-0.00252 0.0066,-0.00234 0.00193,-0.012246 1.76e-4,-0.010215 -6e-5,-0.013066 0.00324,-0.00857 0.00887,-0.009 0.011602,-0.011992 0.00398,-0.010547 -6.84e-4,-0.0092 -0.00637,-0.020059 -0.0059,-0.014434 -0.012324,-0.010254 -0.017598,-0.0034 -0.016953,-0.00809 -0.00902,-0.00492 -0.00451,-0.021074 5.08e-4,-0.018652 0.00443,-0.017051 0.00654,-0.015371 1.76e-4,-2.73e-4 0.00422,-0.00781 0.00402,-0.00738 0.00934,-0.016484 0.00502,-0.00969 0.010039,-0.00721 0.011582,-0.011973 0.005,-0.010625 0.00209,-0.010371 0.00707,-0.00791 0.00859,-0.013672 0.00389,-0.012363 -7.81e-4,-0.010156 -0.010234,-0.00768 -0.00732,-0.00779 -0.00293,-0.012832 0.00904,-0.020176 0.00887,-0.022949 0.0082,-0.018262 0.00705,-0.00889 0.00461,-0.00176 0.018809,-0.00734 0.018008,-0.00408 0.014102,-0.00471 0.012539,6e-5 0.00707,0.0041 0.013789,0.016719 0.00816,0.00594 0.01248,-8.79e-4 0.014355,-0.00102 0.00705,-0.00885 0.00531,-0.018926 0.00176,-0.015039 0.010684,-0.011895 0.017109,-0.00398 0.016914,-0.00588 0.00807,-0.00795 -0.00254,-0.00822 -0.00557,-0.00984 -0.00992,-0.00395 -0.00943,-0.00953 -0.00656,-0.010762 -7.23e-4,-0.00918 8.79e-4,-0.00893 2.15e-4,-0.00234 0.01002,-0.00816 0.00357,-0.00166 -7.58410148,0 z m 7.60082029,0 8.01e-4,1.95e-4 0.00889,0.00217 0.0018,-7.03e-4 0.00439,-0.00166 -0.015879,0 z m 0.053633,0 0.00643,0.00535 0.00592,0.00145 0.00705,-0.0068 -0.019394,0 z"
     id="rect4"
     inkscape:connector-curvature="0" />
  <path
     style="fill:#cd2a3e;stroke:#cd2a3e;stroke-width:0.02;stroke-miterlimit:4;stroke-dasharray:none;stroke-opacity:1"
     clip-path="none"
     d="m 8.0491166,0.01018884 4e-5,1.953e-5 -0.00947,0.01291016 -0.00451,0.02076171 -0.00215,0.01242188 -0.011484,0.0048242 -0.012187,-0.0061719 -0.065879,0.0065234 -0.042715,-2.9297e-4 -0.020449,0.0073633 -0.00691,0.0024805 -0.00146,0.0074414 -0.0018,0.0091601 -0.00311,0.004375 -0.009,0.01271485 -0.00469,0.0180859 0.00143,0.008027 9.77e-4,0.005566 -0.010273,5.859e-4 -0.00246,1.172e-4 -0.00779,4.687e-4 -0.02832,-0.005156 -0.021699,-0.007637 -0.00846,-0.00293 -0.010566,-0.00709 -0.015703,-0.0105078 -0.03502,0.004824 -0.00893,0.0196875 -0.031699,0.0100781 -0.00189,1.367e-4 -0.015703,9.375e-4 -0.019062,0.001172 -0.022324,0.0177734 -0.021289,0.0327734 -0.028594,0.0113086 -0.01957,-0.005625 -0.00389,-0.0134961 0.00121,-0.024668 -0.036621,-0.0183203 -0.017793,-0.001621 -0.014863,-0.001836 -0.015254,-0.007266 -0.022461,-0.005449 -0.013398,-0.001934 -0.020059,0.008086 -0.011602,0.002109 -0.011074,0.0102734 -0.00418,0.001973 -0.00578,0.002773 -0.019434,-0.004297 -0.013184,8.203e-4 -0.00785,-0.006328 1.76e-4,-0.017832 -0.021231,-0.0288086 -0.01334,-5.2734e-4 0.00197,-0.01382812 -0.014121,-0.01142579 -0.025332,-0.0038867 -0.025723,0.01125 -0.01875,0.005293 -0.016641,-0.0057422 -0.014336,-0.01419922 -0.012812,-0.01423828 -5.86e-4,-0.0016992 -0.00508,-0.014375 -0.00318,-0.0033398 -0.00834,-0.00875 -0.00441,-0.004668 -0.028867,0.0087305 -0.039336,0.0066211 -0.033438,0.0062695 -0.039629,0.0026367 -0.038242,0.0011133 -0.030586,0.0047461 -0.011016,0.01033203 -0.0041,0.0043945 -0.014746,-3.5156e-4 -0.026719,-0.0023438 -0.01793,-0.0029297 -0.00535,0.007207 -0.00324,0.01529297 -0.029316,0.0019726 -0.021992,0.0206836 -0.025,2.9297e-4 -0.015508,0.0092773 -0.047051,-0.01736328 -0.015273,0.01201172 -0.00742,0.01830079 -0.012012,-0.003281 -0.015625,-0.0112695 -0.017734,-1.5625e-4 -0.019961,0.008242 0.00414,0.0147852 0.01459,0.0168359 0.00258,0.0326562 -0.013223,0.0187695 -0.00939,0.0116211 -0.00645,0.0113867 -0.00125,0.006113 -0.00299,0.0147461 -0.00293,0.002715 -0.01625,0.0150586 -0.00971,0.00752 0.00176,0.0217969 -0.024141,0.0112695 -0.024316,0.0263281 -0.015,0.0147852 -0.016133,0.0189453 6.45e-4,0.0259766 0.00434,0.0175195 -0.014336,0.0229492 -0.00641,0.0113672 0.00412,0.0148437 0.00268,0.0148242 -0.00598,0.0168945 -0.025195,0.0154883 -0.010332,0.017168 -0.044297,0.0691016 -0.016563,0.0258398 -0.00168,0.002637 -0.00299,0.007344 -0.00551,0.0138477 -0.00521,0.007617 -0.010547,0.0154297 -0.01793,0.0135937 -0.021856,0.001582 -0.032305,-0.0182422 -0.030488,-0.0142383 -0.014922,-0.003008 -0.00672,0.007324 -0.00109,0.0219922 -0.00617,0.0141406 -0.017246,0.003984 -0.019395,-0.004043 -0.016934,0.008105 -0.00469,0.014082 -0.012559,0.007734 -0.022754,-0.009336 -0.018848,-0.015 -0.013691,-0.005859 -0.013125,9.375e-4 -0.00221,0.008379 0.00311,0.0368359 1.17e-4,0.0191797 -0.00699,0.0210547 -0.023125,0.0208594 -0.027383,0.0226562 -0.029277,0.0172461 -0.018125,0.0108984 -0.011367,0.003613 -6.84e-4,0.009629 0.017637,0.0178906 -0.03209,0.0152734 -0.015703,0.00748 -0.029531,-0.0197266 -0.015293,0.009395 -0.016816,0.002344 -0.00488,6.445e-4 -0.011309,0.005937 -0.00406,0.00209 -0.030586,0.0187695 -0.025586,0.025293 -0.023027,0.020918 -0.019141,0.0151758 -0.018555,0.005527 -0.012949,0.002422 -0.0068,-0.0104492 0.00816,-0.0239258 0.00775,-0.0116211 -0.018008,-0.021875 -0.024922,-0.0173047 -0.018437,-0.009551 -0.018887,0.001465 -0.00941,-0.007461 -0.010313,-5.664e-4 -0.00641,0.0100781 -0.01541,0.008047 -0.011602,9.18e-4 -0.00227,0.00123 -0.024297,0.0132031 -0.00684,0.001113 -0.009,0.001484 -0.010176,-0.0156055 -0.00428,-0.0147852 0.011777,-0.0159961 0.00857,-0.0184766 -0.00434,-0.0161328 -0.017148,-0.010957 -0.021113,-0.0230469 -0.018418,-0.009492 -0.020234,0.00293 -0.032324,0.0148828 -0.019062,1.758e-4 -0.018184,-0.006797 -0.013496,-0.0194727 -6.64e-4,-0.0232812 -0.00549,-0.0118945 -0.030078,-0.008574 -0.028848,-0.005684 -0.00555,-0.001113 -0.018418,5.9e-5 -0.022031,0.0173437 -0.024258,0.0286328 -0.023516,0.0107227 -0.00494,0.003145 -0.039063,-0.005195 -0.021562,0.001875 -0.00814,0.009043 -0.00666,0.007363 -0.010313,0.0214844 -0.00732,0.0333594 -0.0093,0.0136523 5.86e-4,0.009336 0.00188,0.0311328 -0.00297,0.0151953 -0.022617,0.022207 -4.1e-4,0.006055 -0.00186,0.0260352 -0.00633,0.011543 -0.00197,0.0223632 -0.00154,0.013652 -0.00717,0.014492 -0.013105,0.010547 2.15e-4,0.00287 -0.00842,0.00492 -0.013535,-0.00885 0.00121,-0.018418 -0.00264,-0.00756 -0.00832,-0.00141 -0.011484,0.011914 -0.036738,0.01834 -0.028672,0.00867 -0.018945,-0.011777 -0.015,0.0058 -0.024766,-2.93e-4 -0.039746,-0.00117 -0.045332,0.00691 -0.00502,0.00131 -0.00258,0.00314 -3.52e-4,4.3e-4 -0.00461,0.00562 -0.00541,0.00123 -0.00723,0.00156 -0.011523,0.010938 -0.012402,-5.86e-4 -0.012285,-0.00545 -0.031484,0.045137 -0.011406,-6.44e-4 -0.018203,-0.00938 -0.033477,-1.17e-4 -0.039043,-0.00504 -0.017168,-0.00271 -0.023535,-0.010898 -0.012949,-0.00105 -0.022246,0.00545 -0.018008,-2.34e-4 -0.034863,-0.00436 -0.017969,0.00758 -0.016328,0.014258 -0.014063,-4.3e-4 -0.00354,-0.00217 -0.031035,-0.01916 -0.014629,-0.00236 -0.051504,0.02498 -8.2e-4,-1.95e-4 -0.01125,-0.00279 -0.016133,-0.014317 -0.013516,-0.00111 -0.00256,-1.56e-4 -0.00998,-0.00852 -0.00437,-0.00633 -0.00613,-0.00887 -0.00678,-9.37e-4 -0.012109,0.00908 -0.00223,-10e-5 -0.01332,-7.23e-4 -0.00309,-5.86e-4 -0.00629,-0.00111 -0.00109,0.00102 -0.013438,0.012129 -0.00908,0.01168 -9.77e-4,0.00123 -0.010879,0.01002 -0.00922,0.00352 -0.00461,0.00352 -0.0067,0.00293 -0.00963,0.00588 -0.00965,0.00467 -0.00926,-5.86e-4 -0.013418,0 -0.01088,-0.00117 -0.00795,5.86e-4 -0.012988,0.00352 -0.016797,0.00998 -0.00949,0.00979 0.010781,0.0074 0.00736,0.014414 -0.00531,0.010098 -0.010254,0.00656 -9.18e-4,0.00734 0.00363,0.013594 0.00293,0.011211 -0.00217,0.011894 3.12e-4,0.00164 -0.00338,0.00838 -0.00898,0.0026 -0.0049,0.00779 -0.0083,0.00559 -0.02002,0.00498 -0.010059,0.00779 -0.010586,0.1006836 -0.00277,0.053027 0.0026,0.045742 0.00453,0.016406 0.011894,0.014141 0.012148,0.022324 0.00979,0.00963 0.016387,0.00533 0.00805,0.00658 0.00451,0.016348 0.00756,0.011777 0.00947,0.00723 0.015176,0.0023 0.010449,0.0034 0.010996,0.012598 0.00357,0.012734 0.00342,0.012266 9.37e-4,0.00332 -0.0027,0.00957 -0.028887,-0.00623 -0.040566,-0.00873 -0.04,-0.00109 -0.020644,0.00197 -0.00793,7.62e-4 -0.025488,0.00248 -0.02832,0.015117 -0.00561,0.026172 -0.0025,0.011426 -0.00199,0.00943 -0.034063,0.019648 -0.020215,0.019473 -0.016602,0.015938 -0.0074,0.00717 -0.00613,0.00586 -0.011484,4.1e-4 -0.018125,5.86e-4 -0.028145,9.37e-4 -0.00395,1.17e-4 -0.036465,-0.012481 -1.95e-4,-6e-5 -0.022774,-0.00779 -0.047207,-0.0092 -0.046797,0.013535 -0.034004,0.019687 -0.029668,0.00248 -0.029824,-0.022754 -0.040332,-0.00352 -0.00209,-1.76e-4 -0.00852,0.00545 -0.039961,0.025703 -0.038535,0.011777 -0.056836,0.00773 -0.044063,0.013906 -0.040469,0.0041 -0.03377,-0.01043 -0.050078,-0.00676 -0.072539,0.004 -0.054687,-0.014687 -0.020664,-0.0052 -0.024023,-0.00605 -0.00672,-0.00158 -0.016699,-0.00391 -0.0068,-0.00172 -0.014668,-0.00375 -0.026758,-0.0034 -0.028398,4e-5 -0.028652,0.00252 -0.023711,0.00541 -0.015332,0.012148 -0.010547,0.00281 -0.00771,-6.45e-4 -0.00424,-0.00193 -0.0023,-0.00105 -0.025625,-0.011797 -0.011914,-0.00486 -0.00305,-0.00123 -0.015156,-0.00365 -0.030273,0.035254 -0.023887,1.76e-4 -0.017422,1.76e-4 -0.01625,0.00844 -9.96e-4,10e-5 -0.01334,0.00121 -0.019941,-0.0077 -0.016328,-0.00498 -0.012773,-9.96e-4 -0.011777,0.00146 -0.016953,0.00229 -0.021856,1.17e-4 -0.031856,-0.00252 -0.032695,0.00746 -0.00738,-0.00582 -0.017598,-0.01377 -0.042168,-0.00588 -0.023359,-0.00557 -0.00809,-0.00193 -6.84e-4,-0.00135 -0.019863,-0.037988 -0.027441,-0.022363 -0.048262,-0.028906 -0.00779,-0.00598 -0.032285,-0.024863 -0.02832,-0.012266 -0.021856,0.00193 -0.014961,0.00131 -0.009,8.01e-4 -0.029277,-0.03248 -0.02748,-0.028613 -0.00842,-0.00881 -0.00584,-0.00604 -0.00787,-0.010195 -0.00988,-0.012852 -0.011152,-0.014414 -0.021348,-0.016953 -0.0085,-0.00674 -0.022793,-0.018066 -0.00201,-0.00334 -0.00549,-0.00904 -0.032422,-0.053594 -0.057187,-0.052148 -6.25e-4,-6.25e-4 -0.023672,-0.025098 -0.029277,-0.031035 -0.00238,-0.00252 -0.010508,-0.011133 -0.012285,4e-5 -0.018887,1.37e-4 -0.00102,0 -0.010469,-0.00354 -0.018223,-0.00615 -0.014199,-0.015645 -0.00543,-0.00594 -0.017773,0.00188 -0.035176,0.00365 -0.00387,3.91e-4 -0.00143,-0.00246 -0.01002,-0.01748 -0.00418,-0.00734 -0.00867,-0.013574 -0.017109,-0.026856 -3.12e-4,-4.88e-4 -0.028105,0.00453 -0.01127,0.0018 -0.011602,0.00182 -0.037363,-0.00297 -0.006,0.00244 -0.011387,0.00463 -0.028223,0.011621 -0.00922,0.01707 -0.068535,0.046836 -0.015078,0.022656 0.02834,0.01207 4.3e-4,0.014082 -0.013477,0.012891 -0.00777,0.0074 -8.2e-4,8.2e-4 -0.00637,0.016523 -0.00148,0.00375 -0.00551,0.012207 0.00344,0.00311 0.021992,0.019883 -0.00289,0.00521 -0.012617,0.022754 0.00318,0.025332 -0.0175,0.027344 -0.033516,0.015586 -0.012168,0.00445 -0.020039,0.00781 -0.033906,6.45e-4 -0.00594,0.00393 -0.00129,0.010547 0.051387,0.03459 0.00125,8.79e-4 0.0076,0.01502 -0.00273,0.011016 -0.00248,0.00986 0.032051,0.043281 -0.013379,0.010899 -0.017754,0.014551 0.012441,0.031328 0.00215,0.045547 0.00352,0.054355 0.00615,0.020234 0.021992,0.022168 -0.1566602,0.027168 -0.057481,0.00967 -0.054551,0.012305 -0.00572,-2.15e-4 -0.026914,-0.00102 -0.01543,0.00141 -0.00922,-0.013652 -0.00377,-0.046133 -0.00867,-8e-5 -0.01166,0.019512 -0.00727,0.00148 -0.017637,0.017187 -0.010586,0.025859 -0.00793,0.010605 -0.00979,5.27e-4 -0.010234,5.86e-4 -0.069316,-0.00209 -0.0258398,-0.00313 -0.0142187,-0.029082 -9.18e-4,-0.00187 -0.0129688,-0.020762 -0.006387,-0.010137 -0.001758,-0.00281 -0.0161719,-0.031035 -0.00707,-0.00744 -0.00959,-0.010098 -0.0164844,-0.0049 -0.004844,-4.3e-4 -0.0419531,-0.00352 -0.0131641,-0.00785 -0.00498,-0.00299 -0.0155859,-0.018379 -0.0105078,-0.00309 -0.0150391,0.00246 -0.0121484,-0.00896 -0.007676,0 -0.0211524,0.016992 -0.0151953,-0.0092 -0.0158789,0.00729 -0.0157031,-0.00199 -0.0150391,0.00293 -0.0215039,0.024512 -0.004648,0.00527 0.008711,0.00732 0.005879,0.017793 0.002598,0.00785 -0.005918,0.010332 -0.0075,0.013008 -0.00209,8.2e-4 -0.024043,-6e-5 -0.0117773,0.00799 -0.0300586,0.013613 -0.001113,9.37e-4 -0.0254883,0.021562 -0.004238,0.017129 -0.007383,0.0034 -0.008418,-0.00387 -0.0153711,-0.021758 -0.0113086,7.62e-4 -0.004609,0.00744 -0.004355,0.026817 0.00252,1.56e-4 -0.0184766,0.016719 -0.002051,-10e-5 -0.006328,0.010254 0.003965,0.00945 0.0141601,0.0018 0.0246875,0.012637 0.025332,0.00297 0.023457,0.00773 0.0113477,0.013262 0.003184,8.4e-4 0.009023,0.0023 4.883e-4,0 0.0199024,-0.0093 0.008672,8e-5 0.009941,0.00922 8.5514258,0 3.32e-4,-9.57e-4 0.00434,-0.00863 0.012793,-0.013789 0.01416,-0.023086 0.014004,-0.025937 0.00934,-0.021875 0.00951,-0.020059 0.011094,-0.00996 0.012109,-0.00996 0.014082,-0.010098 0.00842,-0.020918 0.00648,-0.02082 0.00703,-0.0125 0.00838,-0.00699 0.014277,-0.00734 0.00877,-0.00141 0.012266,-0.00727 0.011152,-0.0099 0.00986,-0.014492 0.00789,-0.00842 0.00129,-0.00135 0.00395,-2.54e-4 0.011973,0.00301 0.00914,0.0048 0.00512,0.0027 0.020254,0.00904 0.020957,0.00527 0.022793,0.0024 0.00162,0 0.00244,6e-5 0.010684,4e-5 0.021016,0.00623 0.016797,0.0018 0.00674,-0.00223 1.95e-4,-0.01207 0.00299,-0.015078 0.00271,-0.016523 0.00264,-0.016191 2.93e-4,-0.00187 0.00717,-0.026406 0.00559,-0.020762 0.00719,-0.010605 0.00648,-0.00592 0.034941,-0.00756 0.022031,0.00615 0.01168,0.00598 0.017812,0.0091 0.012441,0.01043 0.024551,0.015352 0.02791,0.021602 0.026211,0.010605 0.023574,-3.51e-4 0.027266,-0.0043 0.024258,-0.00502 0.00387,-9.96e-4 0.029063,-0.00734 0.015664,-8.79e-4 0.017129,-0.00926 0.019687,-0.015898 0.015723,-0.01666 0.00857,-0.020879 0.00516,-0.013945 7.42e-4,-0.00211 0.00797,-0.014355 0.00965,-0.011621 0.0032,-0.00387 0.00932,-0.00887 0.010469,-0.00615 0.028476,-5.86e-4 0.01197,0.00305 0.0127,-0.00158 0.01156,-0.00432 0.01033,-0.00799 0.0094,-0.00793 -0.0015,-0.00826 -0.0044,-0.00857 -0.0067,-0.013066 -0.009,-0.018066 5.1e-4,-0.025098 0.0068,-0.01707 0.0067,-0.00402 0.0098,-5.47e-4 0.01383,0.00113 0.01332,-0.00809 0.01102,-0.00758 0.0051,-0.00352 0.02033,-0.00664 0.02793,-0.010703 0.021,-0.01127 0.0061,-0.014258 0.0086,-0.020879 0.01174,-0.019102 0.01279,-0.017363 0.01383,-0.016484 0.01623,-0.0092 -0.0077,-0.00588 -0.0037,-0.00281 -0.0063,-0.00615 -0.01023,-0.00598 -0.01117,-0.00592 -0.01156,-0.012383 -0.007,-0.0034 -0.01342,-0.00662 -0.0106,-0.012441 -7.4e-4,-0.012949 0.0077,-0.011914 0.04488,0 0.0085,0 -0.0299,-0.02498 0.0013,-0.014766 0.01844,-0.013496 0.0049,-0.01168 0.0016,-0.026895 -0.0101,-0.012402 -0.0074,-0.00797 -0.0057,-0.00371 -0.01656,-0.047422 -0.0063,-0.00516 -0.01027,-7.81e-4 -0.008,-0.00895 -0.01022,-0.018613 8.8e-4,-0.00584 -6.1e-4,-0.00447 -0.0019,-0.014766 -0.002,-0.015898 -0.009,-0.00844 -0.01436,-1.758e-4 -0.0045,0.00592 -0.0026,0.019355 -0.01094,-0.00463 -0.0011,-0.0048 0.0048,-0.013613 -0.0018,-0.009102 -0.02887,-0.001797 -0.01686,0.002812 -0.0014,0.008262 -0.0075,0.00881 -0.0083,-0.0017 -0.008,-0.0104492 -0.01352,-0.005059 -0.0092,0.00123 -0.01219,0.006504 -0.012383,-0.003027 -0.0065,0.006914 -0.016817,0.00617 -0.015918,0.018692 -0.014336,0.00229 -0.015039,0.014844 -0.012187,0.00465 -0.043398,-0.00816 -0.015625,-0.00734 -0.013691,-0.010742 -0.010176,0.00365 -0.00209,0.016426 -0.00553,0.00451 -0.0067,-3.52e-4 -0.01707,-0.033242 -0.00439,-6.44e-4 -3.12e-4,-0.00641 0.00117,-0.00387 0.00617,-0.0130078 -0.00732,-0.0111914 0.00215,-0.0116211 -6.06e-4,-0.0127344 -0.00168,-0.0139844 0.00627,-0.0117774 -0.013066,-0.0160742 -0.011387,-0.009727 -0.00604,-0.0125 -1.76e-4,-2.93e-4 L 9.761188,0.86730834 9.756438,0.85348024 9.77884,0.83717164 9.7755,0.82455444 9.760598,0.82644944 9.742375,0.81697644 9.72507,0.79857804 9.7172,0.79588304 l -0.018496,-0.006387 -0.015,-0.0274414 6.45e-4,-0.014082 -0.00178,-0.008848 -0.023418,-0.004102 0.00377,-0.006582 -0.00201,-0.0127148 -0.00996,-0.008457 -0.015,6.445e-4 -0.020039,0.009785 -0.017324,0.008457 -0.019531,-0.008105 -0.024551,0.001074 -0.037285,-0.007285 -0.014883,0.003242 -0.013926,0.0210547 -0.015234,-0.004414 -0.014414,-0.0147266 -0.00844,-0.0302539 -0.00721,-0.007344 -0.01168,-0.0148242 -0.01584,-0.0146094 -0.00109,1.172e-4 5.47e-4,-0.0470898 -0.00701,-0.0108398 -0.01459,-0.0131445 -0.00883,-0.007969 -0.00117,-0.003652 -0.00285,-0.008789 0.0065,-0.0762305 -0.00779,-0.00457 -0.018828,0.007266 -0.020508,9.57e-4 -0.020293,0.004727 -0.016231,-0.009844 0.00457,-0.007559 -0.00516,-0.0139063 -0.010449,-0.018457 -0.021816,-0.0187109 0.00797,-0.009375 0.021348,-0.009824 0.011074,-0.0104687 0.00576,-0.012207 -0.00434,-0.006621 -0.059922,-0.0117969 -0.013262,-0.009727 -0.023789,1.758e-4 -0.027441,0.0122656 -0.00242,0.001094 -0.013281,0.005957 -0.00783,0.003496 -0.024902,0.0272851 -0.00578,0.002734 -0.018125,0.008613 -0.01332,0.0187695 -0.00871,0.001699 -0.00344,0.005937 -0.016269,0.004629 -0.020645,-0.001699 -0.020176,0.006465 -0.00516,-0.0134766 -0.010762,-0.009043 -0.019355,-0.004531 -0.014082,0.0102734 -0.010762,5.273e-4 -0.0024,1.172e-4 -0.01834,-0.012793 -0.011172,0.001875 -0.01207,0.001992 -0.018555,0.009141 -0.014805,-0.001973 -0.012598,0.0101953 -0.010801,-0.009043 -0.017266,0.006328 -0.013242,-6.836e-4 -0.010391,-0.002227 -0.028379,0.0164648 -0.033008,0.0126172 -0.037539,0.0101562 -0.021875,0.002461 -0.013399,-0.003398 -0.013398,-0.003398 -0.010059,0.003223 -0.013477,0.0198828 -6.84e-4,0.0137109 -0.026465,0.0232812 -0.01256,-0.0144362 -0.017734,-0.001797 -0.00619,-0.005098 -0.00729,3.32e-4 -0.00691,0.007227 -0.012969,0.003398 -0.040469,-0.0142578 -0.043145,-0.0100195 -0.0057,-0.0216406 -0.02582,-0.0136719 -2.34e-4,-0.004102 7.42e-4,-0.003691 0.00152,-0.007344 -0.040977,-0.0367578 -0.00682,-0.006094 -7.62e-4,-0.003828 -0.0016,-0.00791 -0.00572,-0.0283789 -0.00109,-0.005391 -0.00764,-0.0210156 -0.00225,-0.00375 L 8.380004,0.31753864 8.364223,0.30023394 8.350063,0.27226514 8.331216,0.17011674 8.319946,0.16753874 8.300337,0.16037074 8.281919,0.17097624 8.270415,0.17574224 8.247817,0.16736324 8.219536,0.16207024 8.195239,0.12783194 8.180434,0.10400384 8.176214,0.08371087 8.163773,0.07345696 8.157113,0.06150384 8.142582,0.06507804 8.132992,0.05330069 8.117582,0.0432421 8.088344,0.02437491 8.066899,0.01187491 8.049087,0.01011711 Z"
     id="rect8"
     inkscape:connector-curvature="0" />
</svg>
