<?xml version="1.0" encoding="UTF-8" standalone="no"?>
<!-- Created with Inkscape (http://www.inkscape.org/) -->

<svg
   xmlns:dc="http://purl.org/dc/elements/1.1/"
   xmlns:cc="http://creativecommons.org/ns#"
   xmlns:rdf="http://www.w3.org/1999/02/22-rdf-syntax-ns#"
   xmlns:svg="http://www.w3.org/2000/svg"
   xmlns="http://www.w3.org/2000/svg"
   xmlns:sodipodi="http://sodipodi.sourceforge.net/DTD/sodipodi-0.dtd"
   xmlns:inkscape="http://www.inkscape.org/namespaces/inkscape"
   version="1.0"
   width="886"
   height="816"
   id="svg2383"
   inkscape:version="0.48.2 r9819"
   sodipodi:docname="Flag_of_Iran_in_map.svg">
  <metadata
     id="metadata18">
    <rdf:RDF>
      <cc:Work
         rdf:about="">
        <dc:format>image/svg+xml</dc:format>
        <dc:type
           rdf:resource="http://purl.org/dc/dcmitype/StillImage" />
      </cc:Work>
    </rdf:RDF>
  </metadata>
  <sodipodi:namedview
     pagecolor="#ffffff"
     bordercolor="#666666"
     borderopacity="1"
     objecttolerance="10"
     gridtolerance="10"
     guidetolerance="10"
     inkscape:pageopacity="0"
     inkscape:pageshadow="2"
     inkscape:window-width="1400"
     inkscape:window-height="988"
     id="namedview16"
     showgrid="false"
     inkscape:zoom="0.57843137"
     inkscape:cx="443"
     inkscape:cy="318.59315"
     inkscape:window-x="-8"
     inkscape:window-y="-8"
     inkscape:window-maximized="1"
     inkscape:current-layer="svg2383" />
  <defs
     id="defs2385" />
  <path
     d="m 47.9375,184.53125 c 4.786359,7.51544 20.469318,13.04521 13.125,26.4375 10.54094,-2.41504 11.02151,3.94375 18.25,8.25 4.77283,2.8496 10.79114,0.23152 16.125,-0.34375 4.3856,-0.47257 7.15659,2.89494 11.75,1.5625 -2.69451,7.60832 -12.80918,5.90906 -15.46875,12.78125 -3.08441,7.95931 4.4779,13.66382 7.15625,19.625 1.60465,3.54704 1.62254,9.15125 -4.46875,9.15625 -6.47181,0.001 -6.49746,-2.22297 -8.28125,5.625 -1.22363,5.37854 -8.99713,4.24972 -9.125,11.5 -0.08479,4.19012 1.43876,8.00793 1.6875,12.125 -3.44653,-0.004 -6.5076,-0.8957 -9.21875,-2.71875 -1.29818,4.42358 -5.59009,9.86545 -1.4375,13.5 4.22572,3.65347 5.06836,6.45709 2.4375,12.21875 -2.88192,6.32483 -8.04083,7.52032 -3.0625,12.53125 3.35274,3.38126 6.30048,7.26676 9.75,10.53125 4.71346,4.45737 33.99322,30.03609 17.3125,35.1875 7.08813,2.86755 0.44446,8.72765 10.625,7.8125 6.08051,-0.55409 11.16129,3.60875 15.53125,6.90625 8.00348,6.04444 13.96458,17.95506 24.625,20 13.96814,2.68295 11.64179,8.90897 19.28125,19.6875 7.50248,10.59866 14.49739,13.35222 9.96875,28.53125 -3.39313,11.42137 -10.86305,34.43648 5.46875,33.8125 10.38123,-0.39348 5.47185,14.63031 5.65625,22.15625 0.3,11.83746 13.27219,12.54325 15.9375,22.09375 1.29368,4.62701 0.86856,10.65064 5.65625,12.90625 27.94977,-19.16746 12.65751,-31.60214 32.40625,-14.15625 2.45549,6.53066 10.14864,1.53558 14.15625,8.4375 5.95589,10.29833 22.33161,-20.03444 26.875,-2.78125 2.6425,10.07355 7.13218,18.27567 13.6875,25.96875 3.88502,4.5658 16.93184,14.06141 11.25,22.84375 -4.34346,6.79227 4.89399,5.98894 8.46875,6.8125 5.35765,1.23209 5.79601,7.94724 -1.5,7.25 -0.21989,2.40858 0.48397,4.15288 1.65625,5.59375 l 493.96875,0 c -4.68875,-7.72487 -7.89899,-16.76365 -12.34375,-25.0625 -3.8811,-7.43206 -8.1835,-14.89473 -13.875,-20.84375 -2.782,-2.91354 -7.9499,-6.73521 -6.875,-11.90625 1.6896,-8.14436 14.11185,-19.23426 19.34375,-25.8125 6.5577,-8.23257 15.05345,-16.88683 19.21875,-26.53125 4.055,-9.3791 8.17935,-26.41685 -1.71875,-31.875 -9.4823,-5.21544 -29.30345,1.44705 -36.40625,-7.0625 -9.3847,-11.21963 -1.3393,-30.50394 -3.375,-44.3125 -1.98,-13.32476 -17.39745,-34.61224 -10.21875,-48.78125 3.953,-7.77749 20.0463,-20.49182 4.75,-21.46875 -11.9195,-0.75898 -14.29475,-24.47476 -9.59375,-34.59375 2.6233,-5.63897 12.46985,-7.00968 13.90625,-11.34375 0.9412,-2.71066 -3.688,-7.25436 -4.75,-9.28125 16.1599,-1.93339 16.61685,-25.12392 16.71875,-35.9375 0.0699,-7.94065 7.6235,-13.08536 8.0625,-20.53125 0.2845,-4.72718 -0.71,-18.08728 -3.75,-21.21875 -4.9246,-5.06287 0.46605,-3.77278 0.59375,-11.28125 0.0724,-4.13196 -2.46225,-6.98614 -2.53125,-10.96875 -0.008,-0.50559 0.11653,-1.65698 0.28125,-3.03125 l -737.6875,0 z"
     id="rect3721"
     style="fill:#ffffff;stroke:#239f40;stroke-opacity:1;stroke-width:3;stroke-miterlimit:4;stroke-dasharray:none" />
  <path
     d="m 25.50867,2.3616072 c -1.91357,0.21902 -3.34512,1.748935 -3.8125,5.4375 C 19.53285,24.76458 14.72982,18.322711 1.50867,23.142857 c 3.001,4.1904 9.60259,13.685288 6.625,19.28125 -2.64336,4.993527 4.53466,7.267766 5.375,11.1875 1.90106,8.87741 -2.04521,24.18919 8.59375,27.90625 -5.64038,4.77324 -9.48614,14.8425 -11,21.468743 -1.01065,4.42825 9.11158,6.75947 11.6875,8.125 8.297,4.3771 1.71556,13.2712 5.15625,20.125 3.36971,6.72511 9.5348,2.7021 8.1875,12.59375 -0.3886,2.82992 4.67175,23.35054 6.125,24 5.65202,2.50848 5.85551,4.76321 4.46875,11.15625 -2.37466,10.96964 23.32807,15.52895 14.3125,31.96875 10.54094,-2.41504 11.02151,3.975 18.25,8.28125 4.77283,2.8496 10.79114,0.23152 16.125,-0.34375 4.3856,-0.47257 7.15659,2.89494 11.75,1.5625 -2.69451,7.60832 -12.77793,5.90906 -15.4375,12.78125 -2.93019,7.56134 3.74593,13.04509 6.71875,18.6875 l 684.5,0 c 10e-4,-0.10399 -0.001,-0.24193 0,-0.34375 0.07,-7.94065 7.6547,-13.11661 8.0937,-20.5625 0.2845,-4.72718 -0.71,-18.05603 -3.75,-21.1875 -4.9246,-5.06287 0.4348,-3.80403 0.5626,-11.3125 0.072,-4.13196 -2.4311,-6.98614 -2.5,-10.96875 -0.039,-2.38185 2.8332,-17.30345 -0.75,-17.28125 -9.7258,0.0601 -27.3752,3.54323 -35.5,-0.71875 -7.3762,-3.89219 -9.2842,-14.98373 -15.8126,-20.0625 -7.3634,-5.72563 -21.4131,-4.89729 -25.625,-14.21875 -4.1451,-9.15402 -5.6436,-13.55792 -15.7187,-17.5625 -10.23179,-4.06177 -19.56119,-2.10908 -30.6875,-2.9375 -9.98828,-0.74512 -14.12784,-9.53985 -23.4375,-11.21875 -8.3518,-1.51698 -23.28266,-1.83193 -26.34375,-10.437493 -3.21964,-9.04357 -4.13169,-11.40938 -14.46875,-8.9375 -4.41067,1.06016 -6.6109,-0.46517 -9.6875,-2.53125 -4.0079,-2.69294 -6.05919,1.86158 -10.03125,0.75 -5.49197,-1.5476 -15.54361,1.9029 -12.375,9.28125 -13.58182,2.93741 -24.83306,-4.55581 -38.75,0.46875 -9.55778,3.4483 -22.9025,11.653083 -29.65625,19.906243 -6.78779,8.30502 0.57118,12.33042 -12.40625,16 -10.90555,3.08219 -19.65522,5.63541 -30.5625,5.21875 0.7531,6.21194 7.285,21.43353 4.59375,27.53125 -14.98506,4.85533 -36.5635,-9.69163 -79.15625,11.875 -19.25061,5.70314 -41.56669,0.46529 -57.59375,-7.15625 -8.49522,-4.05311 -19.63976,-8.44756 -26.46875,-14.71875 -6.25018,-5.72605 -7.66759,-15.66706 -15.9375,-19.4375 -12.73828,-5.78917 -29.30182,-2.32501 -41.71875,-9.375 -14.6288,-8.27574 -9.98991,-32.084113 -14.90625,-46.468743 -0.49272,-1.4429 -7.66573,-0.0235 -9.8125,-1.0625 -5.31452,-2.58802 -9.29429,-7.68699 -14.125,-10.96875 -6.85837,-4.65712 -23.7196,-14.93384 -5.40625,-19.0625 9.87683,-2.223715 -11.16383,-16.46476 6.9375,-23 -6.43669,-9.327051 -15.9446,-22.6807428 -30.125,-13.7812498 -5.42529,3.4097918 -9.98761,8.0209098 -15.0625,11.9062498 -4.37804,3.351667 -11.61772,4.49597 -14.25,9.625 -2.27905,4.449024 -20.28046,18.381088 -25.21875,19.8125 -8.95148,2.598838 -21.29906,1.739866 -29.90625,0.4375 -13.89674,-2.102389 -17.49676,-7.067383 -26.125,-16 -4.21713,-4.363638 -9.26134,-7.89296 -13.5,-12.25 -4.38918,-4.511032 -6.43731,-11.038474 -11.5,-14.9062498 -3.03307,-2.305195 -6.28969,-4.187847 -8.75,-3.90625 z"
     id="rect2391"
     style="fill:#239f40;stroke:#239f40;stroke-opacity:1;stroke-width:3;stroke-miterlimit:4;stroke-dasharray:none" />
  <path
     d="m 204.41492,543.9241 c 0.0325,0.0499 0.0601,0.10716 0.0937,0.15625 0.13703,0.19968 0.28088,0.37688 0.4375,0.5625 0.0336,0.0399 0.0592,0.0859 0.0937,0.125 0.16893,0.19163 0.3689,0.38857 0.5625,0.5625 0.0221,0.0197 0.04,0.043 0.0625,0.0625 0.21294,0.1862 0.44202,0.33712 0.6875,0.5 0.0126,0.008 0.0185,0.023 0.0312,0.0312 0.26099,0.17084 0.54242,0.32679 0.84375,0.46875 0.88573,-0.60742 1.70569,-1.19082 2.5,-1.78125 0.31793,-0.23508 0.60103,-0.45482 0.90625,-0.6875 l -6.21875,0 z m 78.125,0 c 0.14994,0.41136 0.31148,0.81338 0.46875,1.21875 0.0203,0.0524 0.0421,0.10393 0.0625,0.15625 0.17861,0.45675 0.34324,0.92555 0.53125,1.375 0.0267,0.0639 0.0668,0.12374 0.0937,0.1875 0.10739,0.25429 0.23332,0.49796 0.34375,0.75 0.17415,0.39746 0.31827,0.79545 0.5,1.1875 0.21333,0.46022 0.46367,0.92188 0.6875,1.375 0.0725,0.14666 0.14518,0.29156 0.21875,0.4375 0.19928,0.39543 0.38633,0.79716 0.59375,1.1875 0.0175,0.033 0.0449,0.0608 0.0625,0.0937 0.4523,0.84706 0.91518,1.67494 1.40625,2.5 0.41492,0.69712 0.83837,1.41061 1.28125,2.09375 0.0566,0.0874 0.1304,0.16287 0.1875,0.25 0.20096,0.30676 0.41833,0.60205 0.625,0.90625 0.11362,0.16717 0.2284,0.33357 0.34375,0.5 0.3862,0.55743 0.7818,1.10653 1.1875,1.65625 0.43924,0.59517 0.88149,1.19403 1.34375,1.78125 0.60989,0.77475 1.22466,1.54929 1.875,2.3125 0.24281,0.28536 0.53617,0.58398 0.84375,0.90625 3.38339,3.54497 10.26046,9.24874 11.59375,15.28125 0.12121,0.54841 0.19619,1.10363 0.21875,1.65625 0.0226,0.55262 -0.004,1.10215 -0.0937,1.65625 -0.17943,1.10821 -0.60227,2.21471 -1.3125,3.3125 -0.67867,1.06129 -1.03477,1.93066 -1.125,2.65625 -0.0541,0.43536 -0.0218,0.82148 0.0937,1.15625 0.0385,0.11159 0.10122,0.21096 0.15625,0.3125 0.004,0.008 -0.004,0.0236 0,0.0312 0.16446,0.29505 0.40204,0.56245 0.6875,0.78125 0.39018,0.29906 0.88613,0.53096 1.4375,0.71875 0.55137,0.18779 1.17488,0.32496 1.8125,0.4375 1.27525,0.22508 2.64177,0.32852 3.8125,0.46875 0.58536,0.0701 1.11566,0.14706 1.5625,0.25 0.34977,0.0804 0.66145,0.18891 0.96875,0.3125 0.45841,0.18435 0.85928,0.42702 1.21875,0.6875 0.0917,0.0664 0.19624,0.11711 0.28125,0.1875 0.007,0.005 0.0247,-0.005 0.0312,0 0.63247,0.52859 1.07343,1.18782 1.3125,1.84375 0.15922,0.44113 0.22048,0.87635 0.1875,1.3125 -0.0156,0.21821 -0.0593,0.44873 -0.125,0.65625 -0.13148,0.41504 -0.34706,0.79048 -0.6875,1.125 -0.17022,0.16726 -0.36918,0.33106 -0.59375,0.46875 -0.22523,0.13759 -0.5004,0.24201 -0.78125,0.34375 -0.2733,0.0975 -0.57928,0.19221 -0.90625,0.25 -0.32859,0.058 -0.70996,0.11278 -1.09375,0.125 -0.39603,0.0112 -0.82525,-0.0189 -1.28125,-0.0625 -0.0742,0.81304 -0.0571,1.53968 0.0625,2.21875 0.002,0.01 -0.002,0.0214 0,0.0312 0.0593,0.32868 0.15149,0.6673 0.25,0.96875 0.406,1.24233 1.13891,2.25612 2.03125,3.15625 0.22308,0.22503 0.44531,0.44504 0.6875,0.65625 0.96261,0.83948 2.06932,1.60372 3.15625,2.34375 0.55387,0.3771 1.09443,0.73648 1.625,1.125 0.52393,0.38365 1.03516,0.76835 1.5,1.1875 0.68136,0.6147 1.21922,1.2874 1.65625,2 0.65554,1.06891 1.0705,2.2433 1.34375,3.46875 0.18217,0.81697 0.31956,1.64179 0.40625,2.5 0.39009,3.86194 0.10266,8.0337 1.875,11.46875 6.64894,12.92144 8.74471,21.40913 19.75,30.65625 0.62169,0.52308 1.29958,0.95144 2.03125,1.28125 0.73167,0.32981 1.52769,0.56989 2.34375,0.75 0.81606,0.18011 1.65639,0.30102 2.53125,0.375 0.43713,0.0367 0.86548,0.0442 1.3125,0.0625 1.3518,0.0574 2.74082,0.0427 4.125,0.0312 0.90452,-0.008 1.80055,-0.0163 2.6875,0 1.80652,0.0331 3.54584,0.16648 5.125,0.5625 4.47119,1.12139 7.9422,5.09122 12.0625,7.125 3.12136,1.53402 13.42068,5.60878 16.5625,10.71875 0.14292,0.23194 0.26297,0.45141 0.375,0.6875 0.11688,0.24434 0.20023,0.47029 0.28125,0.71875 0.0784,0.23996 0.14534,0.47521 0.1875,0.71875 0.0453,0.25323 0.0593,0.49322 0.0625,0.75 0.006,0.4937 -0.0531,0.99475 -0.21875,1.5 -0.0828,0.25262 -0.18265,0.49491 -0.3125,0.75 -0.38884,0.77764 -0.99982,1.54875 -1.875,2.34375 1.03486,0.50519 2.04714,1.02551 3.0625,1.5625 0.008,0.004 0.0231,-0.004 0.0312,0 3.0376,1.60739 6.00943,3.3711 8.9375,5.15625 3.91445,2.38651 7.76599,4.84805 11.6875,7.21875 0.75089,0.45531 1.54217,0.89455 2.375,1.3125 2.49849,1.25385 5.28797,2.379 7.90625,3.71875 0.43643,0.22274 0.85651,0.45211 1.28125,0.6875 0.008,0.004 0.0233,-0.004 0.0312,0 0.41668,0.23132 0.8175,0.50362 1.21875,0.75 0.82562,0.50702 1.60926,1.00547 2.34375,1.59375 0.36393,0.29104 0.69617,0.62201 1.03125,0.9375 0.34112,0.32062 0.66184,0.61995 0.96875,0.96875 0.30194,0.34289 0.57924,0.68927 0.84375,1.0625 0.27407,0.38405 0.52023,0.76823 0.75,1.1875 0.22574,0.40711 0.42918,0.77954 0.65625,1.15625 0.007,0.0118 0.0242,0.0195 0.0312,0.0312 0.68118,1.13002 1.36376,2.12347 2.0625,3 0.69874,0.87653 1.40011,1.62749 2.125,2.28125 0.24171,0.21812 0.47349,0.42934 0.71875,0.625 1.23143,0.98473 2.49895,1.68439 3.84375,2.1875 0.80293,0.30039 1.64518,0.51771 2.5,0.6875 1.13976,0.22638 2.31268,0.34833 3.5625,0.40625 2.49963,0.11584 5.25059,-0.0352 8.3125,-0.15625 1.53095,-0.0605 3.14171,-0.11446 4.84375,-0.125 1.7305,-0.0107 3.40361,0.39189 5.0625,1.03125 0.99533,0.38362 1.98946,0.84224 2.96875,1.375 1.30572,0.71034 2.6139,1.53157 3.90625,2.375 1.29235,0.84343 2.57871,1.70564 3.875,2.53125 1.29629,0.82561 2.58871,1.62438 3.90625,2.28125 0.65877,0.32844 1.33267,0.61704 2,0.875 0.33366,0.12898 0.66379,0.23593 1,0.34375 0.67242,0.21564 1.34703,0.38313 2.03125,0.5 0.34211,0.0584 0.68578,0.12605 1.03125,0.15625 0.34553,0.0301 0.71336,0.0317 1.0625,0.0312 1.73578,-0.007 3.52946,-0.40578 5.375,-1.34375 1.53315,-0.77829 2.88925,-1.80071 4.1875,-2.9375 0.94827,-0.82952 1.85364,-1.71386 2.75,-2.625 2.11827,-2.15221 4.18372,-4.39166 6.59375,-6.125 0.39026,-0.28086 0.8084,-0.56136 1.21875,-0.8125 0.012,-0.007 0.0192,-0.024 0.0312,-0.0312 0.19163,-0.11665 0.39718,-0.20318 0.59375,-0.3125 0.36293,-0.2007 0.74347,-0.38932 1.125,-0.5625 0.77773,-0.35466 1.56871,-0.65584 2.4375,-0.875 0.55184,-0.13897 4.77206,0.27774 8.625,0.15625 0.4931,-0.0164 0.96454,-0.0254 1.4375,-0.0625 0.91409,-0.0716 1.78451,-0.20019 2.53125,-0.375 0.56655,-0.13263 1.05999,-0.29069 1.46875,-0.5 0.53475,-0.27382 0.93379,-0.628 1.09375,-1.0625 0.003,-0.01 -0.003,-0.0213 0,-0.0312 0.0352,-0.10176 0.0516,-0.20092 0.0625,-0.3125 7.1e-4,-0.009 -5.3e-4,-0.0217 0,-0.0312 0.0186,-0.24683 -0.0146,-0.51502 -0.125,-0.8125 -0.2546,-0.68544 -0.41846,-1.31993 -0.5,-1.90625 -10e-4,-0.0103 10e-4,-0.021 0,-0.0312 -0.052,-0.38529 -0.0785,-0.74761 -0.0625,-1.09375 5.3e-4,-0.0103 -5.9e-4,-0.021 0,-0.0312 0.0276,-0.53239 0.14024,-1.02018 0.3125,-1.46875 0.11484,-0.29905 0.26594,-0.57785 0.4375,-0.84375 0.68199,-1.05702 1.78454,-1.86851 3.125,-2.53125 0.33749,-0.1669 0.69852,-0.31856 1.0625,-0.46875 0.35579,-0.14605 0.74967,-0.30425 1.125,-0.4375 0.38444,-0.13675 0.78864,-0.27966 1.1875,-0.40625 1.59679,-0.50442 3.2903,-0.93165 4.875,-1.40625 0.94146,-0.2816 1.87278,-0.65914 2.78125,-1.0625 0.45849,-0.20402 0.92279,-0.398 1.375,-0.625 1.34844,-0.67728 2.68294,-1.46222 4,-2.25 0.88342,-0.52817 1.77294,-1.06922 2.65625,-1.59375 0.87528,-0.5202 1.77019,-1.05619 2.65625,-1.53125 0.89432,-0.47841 1.80231,-0.92268 2.71875,-1.3125 0.4492,-0.19123 0.91847,-0.36895 1.375,-0.53125 0.93166,-0.3296 1.90455,-0.60394 2.875,-0.78125 0.48519,-0.0887 0.97175,-0.14488 1.46875,-0.1875 1.07999,-0.0922 2.1618,-0.15158 3.21875,-0.15625 0.0105,-4e-5 0.0208,3e-5 0.0312,0 0.53347,-0.002 1.03591,0.0112 1.5625,0.0312 0.52668,0.0201 1.04335,0.0518 1.5625,0.0937 0.52933,0.0423 1.0417,0.0915 1.5625,0.15625 0.51096,0.0635 0.99791,0.13379 1.5,0.21875 1.51637,0.25527 2.98312,0.6153 4.40625,1.0625 0.47145,0.14808 0.9151,0.30002 1.375,0.46875 0.4691,0.17169 0.91862,0.33827 1.375,0.53125 0.44767,0.18919 0.87772,0.41554 1.3125,0.625 3.92132,1.88563 7.30643,4.57616 9.90625,8.03125 0.577,0.76617 1.09654,1.56719 1.59375,2.40625 0.99356,1.67812 1.82623,3.47715 2.46875,5.4375 0.48231,1.47027 0.86146,3.03335 1.125,4.65625 0.17556,1.08193 0.30326,2.19593 0.375,3.34375 0.7674,8.21267 1.55151,19.26864 3.875,29.25 0.51633,2.21808 1.09577,4.36829 1.78125,6.4375 0.46264,1.39652 0.97876,2.76656 1.53125,4.0625 0.0584,0.13691 0.12801,0.27063 0.1875,0.40625 0.0688,0.15716 0.1172,0.31336 0.1875,0.46875 0.35327,0.78085 0.7337,1.54878 1.125,2.28125 0.24207,0.45312 0.49263,0.8798 0.75,1.3125 0.50108,0.84243 1.03151,1.64936 1.59375,2.40625 0.56224,0.75689 1.15364,1.46438 1.78125,2.125 1.91496,1.00826 3.68522,1.84378 5.375,2.5625 0.01,0.003 0.0212,-0.003 0.0312,0 5.47538,1.40412 12.7876,1.79691 15.1875,4.9375 1.24329,0.38365 2.48785,0.79755 3.71875,1.28125 0.007,-0.004 0.0238,0.004 0.0312,0 3.15293,-1.61889 4.66267,1.3615 7.125,3.78125 0.90077,0.60695 1.8309,1.24446 2.78125,2 1.47095,0.65258 2.92354,0.81214 4.375,0.71875 1.45146,-0.0934 2.89752,-0.43144 4.34375,-0.8125 0.71342,-0.18798 1.44151,-0.38779 2.15625,-0.5625 0.36235,-0.0891 0.73073,-0.17523 1.09375,-0.25 0.72603,-0.14954 1.45749,-0.26335 2.1875,-0.3125 0.36493,-0.024 0.72747,-0.0429 1.09375,-0.0312 0.36633,0.0113 0.72588,0.0394 1.09375,0.0937 0.0101,10e-4 0.0211,-0.002 0.0312,0 0.35817,0.0541 0.7339,0.14814 1.09375,0.25 0.92834,0.26216 1.82949,0.4397 2.71875,0.5625 0.88926,0.1228 1.76733,0.18169 2.625,0.21875 1.71535,0.0741 3.36598,0.0409 5,0.0937 1.55835,0.0504 3.0873,0.18165 4.625,0.59375 0.0747,0.02 0.14407,0.0412 0.21875,0.0625 0.01,0.003 0.0214,-0.003 0.0312,0 0.39388,0.11334 0.79264,0.25253 1.1875,0.40625 0.009,0.004 0.0219,-0.004 0.0312,0 0.1235,0.0484 0.25135,0.10351 0.375,0.15625 0.53295,0.2273 1.05663,0.52595 1.59375,0.84375 0.14525,0.0859 0.29185,0.15673 0.4375,0.25 0.41685,0.26577 0.82923,0.54452 1.25,0.875 1.85447,1.45794 3.66136,2.92243 5.5625,4.0625 0.31735,0.1901 0.61415,0.36056 0.9375,0.53125 0.008,0.004 0.0232,-0.004 0.0312,0 0.10231,0.0538 0.2095,0.10459 0.3125,0.15625 0.86576,0.43422 1.7591,0.81189 2.6875,1.0625 0.69854,0.18856 1.40995,0.3186 2.15625,0.375 1.49102,0.11253 3.09672,-0.0639 4.84375,-0.625 1.03565,-0.3316 2.15345,-0.6372 3.34375,-0.90625 2.3817,-0.53818 5.0239,-0.93059 7.7188,-1.09375 1.3465,-0.0815 2.7146,-0.106 4.0625,-0.0625 0.6745,0.0217 1.3348,0.0681 2,0.125 0.6647,0.0569 1.3197,0.12409 1.9687,0.21875 0.6599,0.0955 1.3004,0.20668 1.9376,0.34375 1.254,0.27004 2.4348,0.61541 3.5624,1.0625 0.5738,0.22633 1.1251,0.47396 1.6563,0.75 0.2613,0.13585 0.5002,0.25787 0.75,0.40625 0.012,0.007 0.019,0.0242 0.031,0.0312 0.7355,0.43975 1.4411,0.94538 2.0624,1.5 0.1095,0.0982 0.3011,0.19093 0.5626,0.28125 0.2614,0.0903 0.5754,0.16752 0.9687,0.25 0.012,0.002 0.02,-0.002 0.031,0 0.387,0.0805 0.8188,0.17701 1.3124,0.25 0.011,0.002 0.02,-0.002 0.031,0 0.058,0.008 0.1285,0.0229 0.1875,0.0312 1.4862,0.21113 3.3744,0.38411 5.4375,0.53125 1.438,0.10203 2.9773,0.17897 4.5,0.25 1.5237,0.0717 3.0212,0.14666 4.4687,0.1875 1.4576,0.0407 2.8134,0.0527 4.0313,0.0625 1.8143,0.0145 3.2964,-0.009 4.125,-0.0625 0.2763,-0.0178 0.4673,-0.0371 0.5937,-0.0625 -0.1206,-0.12431 -0.2483,-0.24881 -0.3437,-0.375 -0.01,-0.007 0.01,-0.0239 0,-0.0312 -0.1973,-0.26437 -0.3422,-0.51451 -0.4375,-0.78125 -0.099,-0.2772 -0.1228,-0.5411 -0.125,-0.8125 -0.018,-0.91486 0.4581,-1.76959 1.2188,-2.40625 0.217,-0.18246 0.4646,-0.32634 0.7187,-0.46875 1.1445,-0.63823 2.6069,-0.85304 3.8437,-0.25 0.2746,0.13353 0.5345,0.31513 0.7813,0.53125 0.1234,0.10806 0.2295,0.21359 0.3437,0.34375 0.3494,0.39382 0.6378,0.88376 0.875,1.5 0.078,0.20226 0.156,0.39677 0.2188,0.625 0.1296,0.46406 0.2237,0.98425 0.2812,1.5625 0.02,0.20504 0.055,0.40329 0.094,0.59375 0.038,0.17967 0.072,0.36409 0.125,0.53125 0.024,0.0774 0.066,0.14397 0.094,0.21875 0.035,0.0946 0.053,0.19072 0.094,0.28125 0.01,0.0124 0.026,0.019 0.031,0.0312 0.068,0.14923 0.1371,0.29902 0.2187,0.4375 0.06,0.10322 0.1206,0.21499 0.1875,0.3125 0.03,0.0425 0.063,0.0835 0.094,0.125 0.01,0.0113 0.023,0.02 0.031,0.0312 0.096,0.126 0.2049,0.25864 0.3125,0.375 0.4686,0.50744 1.0373,0.9329 1.6875,1.28125 0.3248,0.17408 0.6727,0.32704 1.0311,0.46875 0.7181,0.28363 1.5056,0.50367 2.3126,0.6875 0.403,0.0918 0.805,0.17574 1.2187,0.25 1.2425,0.22312 2.5188,0.37709 3.7187,0.53125 1.2,0.15416 2.332,0.31267 3.2813,0.53125 0.3163,0.0728 0.6019,0.1601 0.875,0.25 1.4611,0.47997 5.7966,2.28824 10.5313,3.71875 0.01,0.003 0.022,-0.003 0.031,0 2.7615,0.83472 5.6251,1.54104 8.1562,1.78125 0.3617,0.0343 0.7172,0.0482 1.0626,0.0625 1.036,0.0429 2.0059,-0.0147 2.8437,-0.1875 0.5585,-0.11521 1.0585,-0.2692 1.5,-0.5 0.4495,-0.23499 0.8209,-0.53501 1.125,-0.90625 0.1453,-0.17459 0.2975,-0.35466 0.4063,-0.5625 0,-0.008 0,-0.0228 0,-0.0312 0.1113,-0.21688 0.1808,-0.43285 0.25,-0.6875 0.071,-0.26288 0.133,-0.53849 0.1562,-0.84375 0.024,-0.2944 0.024,-0.60138 0,-0.9375 -0.024,-0.33612 -0.081,-0.6827 -0.1562,-1.0625 0.6681,0.25852 1.2711,0.39196 1.8124,0.4375 0.3608,0.0305 0.6909,0.0213 1,-0.0312 0.2959,-0.0503 0.5917,-0.13194 0.8438,-0.25 0.012,-0.006 0.019,-0.0253 0.031,-0.0312 0.2,-0.0966 0.3884,-0.20867 0.5626,-0.34375 0.3946,-0.31055 0.7238,-0.71362 1,-1.1875 0.1547,-0.2627 0.2836,-0.54173 0.4062,-0.84375 0,-0.009 0,-0.0225 0,-0.0312 0.1254,-0.31225 0.2484,-0.6241 0.3438,-0.96875 0.2847,-1.02616 0.4437,-2.19312 0.5312,-3.34375 8e-4,-0.0104 -8e-4,-0.0208 0,-0.0312 0.028,-0.37657 0.048,-0.75257 0.062,-1.125 4e-4,-0.0108 -4e-4,-0.0205 0,-0.0312 0.058,-1.53002 0.017,-2.97325 0,-4.0625 -0.011,-0.64992 -0.01,-1.28516 0,-1.90625 0.019,-1.24231 0.061,-2.41519 0.1563,-3.5625 0.046,-0.56317 0.1244,-1.14247 0.1874,-1.6875 0,-0.0103 0,-0.021 0,-0.0312 0.5173,-4.44696 1.5757,-8.32035 2.9376,-12.53125 0.6808,-2.10124 1.4207,-4.2622 2.2187,-6.625 0.2922,-0.86394 0.4947,-1.76657 0.625,-2.71875 0.01,-0.0404 -0.01,-0.0844 0,-0.125 0.2407,-1.83889 0.2651,-3.82248 0.3125,-5.78125 0.036,-1.5098 0.086,-2.99589 0.2812,-4.4375 0.1955,-1.44161 0.5324,-2.84169 1.125,-4.09375 0.1976,-0.41735 0.4282,-0.8002 0.6876,-1.1875 0.125,-0.18671 0.2653,-0.38355 0.4062,-0.5625 0,-0.006 0,-0.0252 0,-0.0312 0.7339,-0.92647 1.6933,-1.73081 2.9375,-2.40625 2.7268,-1.48145 7.127,-3.69407 11.0313,-4.59375 0.7097,-0.16451 1.3983,-0.27766 2.0624,-0.34375 0.3322,-0.0327 0.653,-0.0589 0.9688,-0.0625 0.6316,-0.008 1.2342,0.0602 1.7812,0.1875 -0.093,-0.33631 -0.1518,-0.6495 -0.2187,-0.96875 -0.1273,-0.60784 -0.2152,-1.20131 -0.25,-1.75 -0.071,-1.11583 0.035,-2.10652 0.3125,-3 0.02,-0.0651 0.041,-0.12352 0.062,-0.1875 0.1287,-0.3766 0.2828,-0.75368 0.4687,-1.09375 0.2169,-0.39674 0.4608,-0.74327 0.75,-1.09375 0.01,-0.0109 0.022,-0.0204 0.031,-0.0312 0.1445,-0.17514 0.276,-0.33573 0.4375,-0.5 0.2369,-0.24086 0.4786,-0.46874 0.75,-0.6875 0.4735,-0.38327 0.9927,-0.70963 1.5625,-1.03125 1.334,-0.75332 2.9075,-1.35591 4.6563,-1.84375 1.1651,-0.32463 2.4277,-0.59988 3.7187,-0.84375 5.157,-0.97621 11.1354,-1.43649 16.4375,-2.3125 0.6634,-0.10961 1.3294,-0.2189 1.9688,-0.34375 3.8189,-0.74715 7.172,-1.80937 9.4062,-3.5625 0.012,-0.009 0.02,-0.022 0.031,-0.0312 0.024,-0.0188 0.039,-0.0435 0.063,-0.0625 0.3321,-0.27048 0.6589,-0.57039 0.9374,-0.875 0.1484,-0.16216 0.3054,-0.32758 0.4376,-0.5 0.01,-0.007 -0.01,-0.0244 0,-0.0312 0.2726,-0.35816 0.5198,-0.71993 0.7187,-1.125 0.1989,-0.40501 0.3495,-0.82557 0.4687,-1.28125 0.06,-0.22785 0.1176,-0.47754 0.1563,-0.71875 0.9019,-4.77457 3.3399,-12.38238 3.4375,-17.90625 0.015,-0.82858 -0.021,-1.62607 -0.125,-2.34375 -0.034,-0.23923 -0.075,-0.46306 -0.125,-0.6875 -0.099,-0.44887 -0.241,-0.8677 -0.4062,-1.25 -0.077,-0.17841 -0.1573,-0.36892 -0.25,-0.53125 -0.01,-0.0124 -0.024,-0.019 -0.031,-0.0312 -0.1006,-0.17266 -0.1929,-0.31582 -0.3125,-0.46875 -0.1196,-0.15293 -0.2668,-0.30553 -0.4062,-0.4375 -0.4185,-0.3959 -0.9163,-0.68999 -1.5313,-0.875 -0.7833,-0.23526 -1.516,-0.42868 -2.25,-0.59375 -0.093,-0.021 -0.1891,-0.0425 -0.2813,-0.0625 -0.01,-0.002 -0.021,0.002 -0.031,0 -0.1201,-0.0259 -0.225,-0.0382 -0.3438,-0.0625 -1.4914,-0.30419 -2.9059,-0.5067 -4.1874,-0.625 -1.3913,-0.12843 -2.666,-0.17992 -3.8126,-0.25 -0.5727,-0.0348 -1.1129,-0.0734 -1.625,-0.125 -0.7689,-0.0778 -1.4602,-0.16939 -2.0937,-0.34375 -2.5304,-0.69564 -3.993,-2.46506 -4.4063,-7.53125 -0.1729,-2.11131 -0.1541,-4.79317 0.031,-8.21875 0.1314,-2.41153 0.3841,-7.02125 0.4375,-12.25 0.032,-3.08731 0,-6.41174 -0.1875,-9.59375 0,-0.0518 0,-0.10446 0,-0.15625 0,-0.075 -0.026,-0.14393 -0.031,-0.21875 -0.1244,-1.95249 -0.3072,-3.84819 -0.5624,-5.625 -0.016,-0.11206 -0.014,-0.23272 -0.031,-0.34375 -0.1456,-0.96893 -0.3375,-1.87323 -0.5313,-2.75 -0.1937,-0.87677 -0.4087,-1.70975 -0.6562,-2.46875 -0.4953,-1.51813 -1.0995,-2.76287 -1.8438,-3.65625 -0.186,-0.22333 -0.3903,-0.44872 -0.5937,-0.625 -0.2034,-0.17628 -0.4036,-0.31146 -0.625,-0.4375 -0.4428,-0.25209 -0.9184,-0.40561 -1.4375,-0.4375 -1.1271,-0.0699 -2.2025,-0.38671 -3.25,-0.90625 -0.339,-0.16714 -0.6679,-0.39131 -1,-0.59375 -0.01,-0.004 -0.024,0.005 -0.031,0 -0.3397,-0.20793 -0.6668,-0.41763 -1,-0.65625 -0.3392,-0.2429 -0.6668,-0.48177 -1,-0.75 -0.6492,-0.52139 -1.2752,-1.10628 -1.9063,-1.6875 -0.01,-0.005 -0.026,0.005 -0.031,0 -0.6368,-0.58694 -1.2505,-1.18323 -1.875,-1.78125 -0.6299,-0.60351 -1.2514,-1.18598 -1.875,-1.75 -0.309,-0.27973 -0.5977,-0.55171 -0.9062,-0.8125 -0.6243,-0.52784 -1.2479,-0.99444 -1.875,-1.40625 -0.3098,-0.20428 -0.5947,-0.39578 -0.9062,-0.5625 -0.665,-0.35497 -1.3528,-0.70181 -2.0313,-1.03125 -2.0355,-0.98831 -4.1216,-1.87839 -6.2187,-2.75 -2.7963,-1.16214 -5.5945,-2.2872 -8.3126,-3.59375 -0.9906,-0.476 -1.9418,-1.0146 -2.8437,-1.5625 -0.01,-0.005 -0.024,0.005 -0.031,0 -2.7264,-1.65926 -5.0371,-3.63376 -7.0937,-5.84375 -0.6855,-0.73666 -1.3419,-1.4953 -1.9687,-2.28125 -3.1344,-3.92976 -5.586,-8.44059 -7.8438,-13.15625 -0.9036,-1.8856 -1.7828,-3.79059 -2.6562,-5.71875 -1.7462,-3.85739 -3.4962,-7.75855 -5.5,-11.5 -2.9109,-5.57404 -6.0732,-11.14554 -9.875,-16.09375 -1.2673,-1.6494 -2.6084,-3.23149 -4.0313,-4.71875 -0.6909,-0.72359 -1.5248,-1.52972 -2.375,-2.375 -0.4335,-0.43104 -0.8578,-0.84755 -1.2813,-1.3125 -0.6268,-0.68838 -1.2398,-1.42059 -1.75,-2.1875 -1.1902,-1.78945 -1.9078,-3.80017 -1.4374,-6.0625 0.052,-0.25264 0.1146,-0.52273 0.1874,-0.78125 0.012,-0.0408 0.019,-0.0841 0.031,-0.125 0.062,-0.20964 0.1448,-0.41196 0.2187,-0.625 0.01,-0.0219 0.024,-0.0406 0.031,-0.0625 0.1485,-0.42111 0.3068,-0.84896 0.5,-1.28125 0.07,-0.15749 0.143,-0.30994 0.2187,-0.46875 0.2026,-0.4241 0.4177,-0.84982 0.6563,-1.28125 l -494.4062,0 z"
     id="rect2395"
     style="fill:#da0000;stroke:#da0000;stroke-opacity:1;stroke-width:3;stroke-miterlimit:4;stroke-dasharray:none" />
  <path
     d="m 470.38367,305.47639 -13.67442,11.11046 2.56395,177.76745 11.11047,12.81977 11.11047,-12.81977 2.56395,-177.76745 -13.67442,-11.11046 z"
     id="path2399"
     style="fill:#da0000" />
  <path
     d="m 497.73251,286.67406 c -2.78004,4.50945 -7.3334,7.63691 -12.54019,8.61318 -5.20679,0.97627 -10.58383,-0.28923 -14.80865,-3.48527 -4.22482,3.19604 -9.60186,4.46154 -14.80865,3.48527 -5.20679,-0.97627 -9.76015,-4.10373 -12.54019,-8.61318 -1.83124,7.1241 1.35502,14.5894 7.76606,18.19561 6.41104,3.60621 14.44548,2.45255 19.58278,-2.81189 5.1373,5.26444 13.17174,6.4181 19.58278,2.81189 6.41104,-3.60621 9.5973,-11.07151 7.76606,-18.19561"
     id="path2401"
     style="fill:#da0000" />
  <path
     d="m 504.56972,311.45894 c 26.15405,35.65637 28.67366,83.42782 6.41554,121.63759 -22.25813,38.20978 -65.056,59.58268 -108.97369,54.42056 47.40169,18.96217 101.54057,0.33376 127.23843,-43.78091 25.69786,-44.11466 15.19661,-100.39751 -24.68028,-132.27724"
     id="path2403"
     style="fill:#da0000" />
  <path
     d="m 436.19762,311.45894 c -26.15405,35.65637 -28.67366,83.42782 -6.41554,121.63759 22.25813,38.20978 65.056,59.58268 108.97369,54.42056 -47.40169,18.96217 -101.54057,0.33376 -127.23843,-43.78091 -25.69786,-44.11466 -15.19661,-100.39751 24.68028,-132.27724"
     id="path2405"
     style="fill:#da0000" />
  <path
     d="m 517.38949,308.04034 c 25.11555,18.26953 41.43779,46.21738 45.01006,77.06873 3.57225,30.85135 -5.9316,61.78959 -26.20774,85.315 31.66344,-17.12308 49.71131,-51.79911 45.57092,-87.55705 -4.14039,-35.75795 -29.63472,-65.39225 -64.37324,-74.82668"
     id="path2407"
     style="fill:#da0000" />
  <path
     d="m 423.37785,308.04034 c -25.11555,18.26953 -41.43779,46.21738 -45.01006,77.06873 -3.57225,30.85135 5.9316,61.78959 26.20774,85.315 -31.66344,-17.12308 -49.71131,-51.79911 -45.57092,-87.55705 4.14039,-35.75795 29.63472,-65.39225 64.37324,-74.82668"
     id="path2409"
     style="fill:#da0000" />
  <path
     d="m 62.88367,202.9241 c 0.28241,2.07932 -0.0733,4.38261 -1.3125,7 l 13.3125,0 0,-7 -12,0 z m 19,0 0,14 -5.71875,0 c 0.91038,0.78495 1.91544,1.59192 3.125,2.3125 2.88334,1.72149 6.22713,1.42271 9.59375,0.8125 l 0,-17.125 -7,0 z m 14,0 0,15.9375 c 2.62639,-0.12753 4.70111,1.06846 7,1.625 l 0,-17.5625 -7,0 z m 14,0 0,28 -7,0 0,-5.5 c -2.21109,1.31874 -4.80806,2.11151 -7,3.34375 l 0,2.15625 -2.75,0 c -0.5746,0.64873 -1.05599,1.40746 -1.40625,2.3125 -0.64277,1.65865 -0.79863,3.2037 -0.65625,4.6875 l 25.8125,0 0,-35 -7,0 z m 14,0 0,7 91,0 0,-7 -91,0 z m 98,0 0,14 -28,0 0,21 21,0 0,-7 -14,0 0,-7 21,0 0,14 35,0 0,-35 -7,0 0,28 -7,0 0,-28 -7,0 0,28 -7,0 0,-28 -7,0 z m 42,0 0,7 91,0 0,-7 -91,0 z m 98,0 0,14 -28,0 0,21 21,0 0,-7 -14,0 0,-7 21,0 0,14 35,0 0,-35 -7,0 0,28 -7,0 0,-28 -7,0 0,28 -7,0 0,-28 -7,0 z m 42,0 0,7 91,0 0,-7 -91,0 z m 98,0 0,14 -28,0 0,21 21,0 0,-7 -14,0 0,-7 21,0 0,14 35,0 0,-35 -7,0 0,28 -7,0 0,-28 -7,0 0,28 -7,0 0,-28 -7,0 z m 42,0 0,7 91,0 0,-7 -91,0 z m 98,0 0,14 -28,0 0,21 21,0 0,-7 -14,0 0,-7 21,0 0,14 35,0 0,-35 -7,0 0,28 -7,0 0,-28 -7,0 0,28 -7,0 0,-28 -7,0 z m 42,0 0,7 91,0 0,-7 -91,0 z m 98,0 0,14 -28,0 0,21 21,0 0,-7 -14,0 0,-7 21,0 0,14 6.8438,0 c 1.197,-2.17176 2.1654,-4.41183 2.3124,-6.90625 0,-0.0261 0,-0.0672 0,-0.0937 l -2.1562,0 0,-18.125 c -0.4514,-1.30469 -0.9818,-2.33844 -1.5938,-2.96875 -3.6124,-3.71391 -1.6761,-4.045 -0.3437,-6.90625 l -5.0625,0 z m -658,14 0,21 7,0 0,-14 21,0 0,14 35,0 0,-21 -21,0 0,7 14,0 0,7 -21,0 0,-14 -35,0 z m 140,0 0,21 7,0 0,-14 21,0 0,14 35,0 0,-21 -21,0 0,7 14,0 0,7 -21,0 0,-14 -35,0 z m 140,0 0,21 7,0 0,-14 21,0 0,14 35,0 0,-21 -21,0 0,7 14,0 0,7 -21,0 0,-14 -35,0 z m 140,0 0,21 7,0 0,-14 21,0 0,14 35,0 0,-21 -21,0 0,7 14,0 0,7 -21,0 0,-14 -35,0 z m 140,0 0,21 7,0 0,-14 21,0 0,14 35,0 0,-21 -21,0 0,7 14,0 0,7 -21,0 0,-14 -35,0 z m -546,14 0,7 7,0 0,-7 -7,0 z m 140,0 0,7 7,0 0,-7 -7,0 z m 140,0 0,7 7,0 0,-7 -7,0 z m 140,0 0,7 7,0 0,-7 -7,0 z m 140,0 0,7 7,0 0,-7 -7,0 z m -604.0625,14 c 1.74841,2.72802 3.88555,5.28671 5.0625,7.90625 0.82895,1.83238 1.24046,4.21403 0.59375,6.09375 l 17.40625,0 0,-14 -23.0625,0 z m 30.0625,0 0,14 63,0 0,-14 -63,0 z m 70,0 0,14 63,0 0,-14 -63,0 z m 70,0 0,14 63,0 0,-14 -63,0 z m 70,0 0,14 63,0 0,-14 -63,0 z m 70,0 0,14 63,0 0,-14 -63,0 z m 70,0 0,14 63,0 0,-14 -63,0 z m 70,0 0,14 63,0 0,-14 -63,0 z m 70,0 0,14 63,0 0,-14 -63,0 z m 70,0 0,14 63,0 0,-14 -63,0 z m 70,0 0,14 28.875,0 c 0.1528,-2.74602 0.168,-5.27034 0.1875,-7.34375 0.021,-2.4309 0.7431,-4.60124 1.75,-6.65625 l -30.8125,0 z"
     id="use2416"
     style="fill:#ffffff" />
  <path
     d="m 263.88367,536.9241 0,2.71875 c 1.17723,-0.86742 2.39909,-1.79883 3.59375,-2.71875 l -3.59375,0 z m 16.46875,0 c 0.10473,0.31892 0.21785,0.64056 0.3125,1 1.23232,4.69776 2.88093,8.97636 4.9375,13 l 41.28125,0 0,-14 -46.53125,0 z m 53.53125,0 0,14 63,0 0,-14 -63,0 z m 70,0 0,14 63,0 0,-14 -63,0 z m 70,0 0,14 63,0 0,-14 -63,0 z m 70,0 0,14 63,0 0,-14 -63,0 z m 70,0 0,14 63,0 0,-14 -63,0 z m 70,0 0,14 63,0 0,-14 -63,0 z m 70,0 0,14 21.1562,0 c -0.1099,-0.75842 -0.1088,-1.55062 0.063,-2.375 0.7318,-3.52775 3.4826,-7.59939 6.7812,-11.625 l -28,0 z m -464.09375,21 c 1.39423,2.02899 2.90809,4.0272 4.5625,5.96875 0.27225,0.31995 0.58494,0.66497 0.9375,1.03125 l 59.59375,0 0,-7 -65.09375,0 z m 72.09375,0 0,14 -28,0 0,21 21,0 0,-7 -14,0 0,-7 21,0 0,14 35,0 0,-35 -7,0 0,28 -7,0 0,-28 -7,0 0,28 -7,0 0,-28 -7,0 z m 42,0 0,7 91,0 0,-7 -91,0 z m 98,0 0,14 -28,0 0,21 21,0 0,-7 -14,0 0,-7 21,0 0,14 35,0 0,-35 -7,0 0,28 -7,0 0,-28 -7,0 0,28 -7,0 0,-28 -7,0 z m 42,0 0,7 91,0 0,-7 -91,0 z m 98,0 0,14 -28,0 0,21 21,0 0,-7 -14,0 0,-7 21,0 0,14 35,0 0,-35 -7,0 0,28 -7,0 0,-28 -7,0 0,28 -7,0 0,-28 -7,0 z m 42,0 0,7 91,0 0,-7 -91,0 z m 98,2.5 0,11.5 -28,0 0,21 21,0 0,-7 -14,0 0,-7 21,0 0,14 19.5312,0 c -1.7567,-3.87713 -3.5188,-7.79835 -5.5312,-11.5625 l 0,4.5625 -7,0 0,-16.625 c -2.0919,-3.14858 -4.3736,-6.13255 -6.9375,-8.8125 -0.018,-0.0192 -0.044,-0.0432 -0.062,-0.0625 z m -476,11.5 0,5.59375 c 0.21546,0.46441 0.40413,0.93536 0.5625,1.40625 l 13.4375,0 0,7 -13.84375,0 c -0.1369,0.26305 -0.26802,0.51929 -0.4375,0.78125 -2.95978,4.62848 0.37604,5.72499 3.9375,6.21875 l 17.34375,0 0,-21 -21,0 z m 98,0 0,21 7,0 0,-14 21,0 0,14 35,0 0,-21 -21,0 0,7 14,0 0,7 -21,0 0,-14 -35,0 z m 140,0 0,21 7,0 0,-14 21,0 0,14 35,0 0,-21 -21,0 0,7 14,0 0,7 -21,0 0,-14 -35,0 z m 140,0 0,21 7,0 0,-14 21,0 0,14 35,0 0,-21 -21,0 0,7 14,0 0,7 -21,0 0,-14 -35,0 z m -266,14 0,7 7,0 0,-7 -7,0 z m 140,0 0,7 7,0 0,-7 -7,0 z m 140,0 0,7 7,0 0,-7 -7,0 z"
     id="use2587"
     style="fill:#ffffff" />
</svg>
