<?xml version="1.0" encoding="UTF-8" standalone="no"?>
<svg
   xmlns:dc="http://purl.org/dc/elements/1.1/"
   xmlns:cc="http://creativecommons.org/ns#"
   xmlns:rdf="http://www.w3.org/1999/02/22-rdf-syntax-ns#"
   xmlns:svg="http://www.w3.org/2000/svg"
   xmlns="http://www.w3.org/2000/svg"
   xmlns:sodipodi="http://sodipodi.sourceforge.net/DTD/sodipodi-0.dtd"
   xmlns:inkscape="http://www.inkscape.org/namespaces/inkscape"
   version="1.0"
   id="Layer_1"
   x="0px"
   y="0px"
   width="614.60876"
   height="601.50421"
   viewBox="79.461 52.641 614.60876 601.50421"
   enable-background="new 79.461 52.641 411 274"
   xml:space="preserve"
   inkscape:version="0.91 r13725"
   sodipodi:docname="Flag_of_Iraq.svg"><metadata
     id="metadata34"><rdf:RDF><cc:Work
         rdf:about=""><dc:format>image/svg+xml</dc:format><dc:type
           rdf:resource="http://purl.org/dc/dcmitype/StillImage" /><dc:title></dc:title></cc:Work></rdf:RDF></metadata><defs
     id="defs32" /><sodipodi:namedview
     pagecolor="#ffffff"
     bordercolor="#666666"
     borderopacity="1"
     objecttolerance="10"
     gridtolerance="10"
     guidetolerance="10"
     inkscape:pageopacity="0"
     inkscape:pageshadow="2"
     inkscape:window-width="1366"
     inkscape:window-height="716"
     id="namedview30"
     showgrid="false"
     inkscape:zoom="0.70910507"
     inkscape:cx="364.33585"
     inkscape:cy="356.2438"
     inkscape:window-x="-8"
     inkscape:window-y="-8"
     inkscape:window-maximized="1"
     inkscape:current-layer="Layer_1"
     fit-margin-top="0"
     fit-margin-left="0"
     fit-margin-right="0"
     fit-margin-bottom="0" /><path
     style="fill:#ffffff;stroke:#000000;stroke-width:1.5;stroke-miterlimit:4;stroke-dasharray:none;stroke-opacity:1"
     d="m 228.51689,242.48706 c -0.64718,3.66957 -1.26444,6.47368 -1.71484,7.06055 -0.11946,0.15557 -5.11418,11.82818 -5.50391,12.61719 -0.50653,1.02369 -1.0994,2.01975 -1.64258,3.02539 l -0.56836,0.30273 c -0.005,0.47149 -0.0134,0.94256 -0.0293,1.41406 -2.16206,0.82352 -1.7312,0.76727 -2.73047,2.70899 -2.66329,0.56919 -10.2423,2.39921 -11.37696,2.58398 -0.91803,0.14974 -1.86698,0.14965 -2.79296,0.25 -0.98281,0.10619 -3.71594,0.57193 -4.05469,0.68555 -0.49804,0.16726 -28.52259,16.63512 -37.62696,21.98242 -0.91803,0.53946 -3.93808,2.11696 -4.22851,2.26563 -1.49147,0.76139 -59.165881,35.21102 -60.060551,35.67773 -1.17501,0.61273 -13.07144,7.73276 -15.8457,9.49024 l 18.58594,62.7246 -6.27149,1.7168 3.61914,12.52539 13.564461,-3.71289 2.58398,9.03711 -6.2832,5.4707 c 24.28557,4.61033 74.98968,14.58369 76.02929,14.87891 0.0329,0.009 0.39229,0.24857 0.46875,0.29688 4.73523,3.00785 17.44894,11.18739 29.26758,18.79296 l 434.71485,0 c 1.24746,-3.02139 2.3231,-5.66737 2.91211,-7.23437 l -0.61133,-1.52149 c 0.0945,-0.23946 -0.0129,-0.5159 0.006,-0.76757 -0.13593,-0.15292 -0.52641,-0.60537 -0.78711,-0.51563 l -1.14844,-0.7207 c -0.0414,-0.0903 -1.35444,-1.60571 -1.58594,-1.68164 -0.21238,-1.64597 0.22254,-0.40953 0.625,-1.81446 0.0292,-0.42583 -1.16828,-0.35548 -1.32226,-0.4707 -0.18105,-0.13486 -0.34766,-1.40234 -0.34766,-1.40234 0,-0.086 -1.01761,-0.41653 -1.24805,-0.51953 -0.22672,0.0504 -1.36535,-1.02249 -1.40039,-1.0586 -0.43911,-0.75821 -0.67914,-0.88767 -0.67383,-0.90625 0.0345,-0.11363 -0.1873,-1.46109 -0.29296,-1.62304 -0.0271,-0.0297 -0.52284,-0.15668 -0.60938,-0.18164 -0.1046,-0.21026 -0.39019,-0.29367 -0.25586,-0.56446 -0.052,-0.31698 0.41952,-0.48763 0.35156,-0.94531 -0.0998,-0.0786 -0.76148,-0.53827 -0.74609,-0.56641 0.16195,-0.31061 0.67592,-0.31754 0.60742,-0.44922 -0.0457,-0.0871 -0.024,-1.18232 -0.0781,-1.2832 -0.11522,-0.21504 -0.48075,-0.16641 -0.67774,-0.23437 -0.0329,-0.0112 -0.62761,0.70855 -0.72265,0.6289 -1.06988,-0.89572 -1.13074,-1.239 -1.20508,-1.35156 -0.006,-0.008 0.0661,-0.73179 -0.0215,-0.86719 -0.35043,-0.54211 -1.14957,-0.46559 -1.44531,-1.13672 -0.0913,-0.20655 0.60528,-0.95267 0.16406,-1.63867 0,0 -0.81829,-0.44933 -0.91015,-0.48437 -0.103,-0.0388 -1.20132,-1.19663 -1.35742,-1.33203 -0.39504,-0.34141 -0.8032,-0.84627 -1.22266,-1.13086 -0.97591,0.17575 -1.32256,0.61968 -2.29688,0.40039 -0.0382,-0.0738 -1.64098,-1.49247 -1.69726,-1.63477 -0.0351,-0.30954 0.55559,-1.00308 0.0645,-1.35351 -0.0239,-0.15823 -0.27706,-0.69165 -0.24414,-0.76758 0.15345,-0.0765 2.3681,-1.50607 2.375,-1.51563 0.0526,-0.103 -0.22162,-0.6011 -0.17383,-0.84375 0.007,-0.0382 0.48873,-0.52713 0.45899,-0.73632 -0.0154,-0.11152 -0.5918,-1.25001 -0.5918,-1.25 -1.95924,0.15131 -1.71527,-1.06952 -2.83984,-2.30665 -0.22035,-0.24318 -0.78407,-1.0499 -0.99805,-1.10937 0.25221,-0.0903 1.11689,-0.84594 1.30273,-0.86133 0.0462,-0.14389 -0.0109,-0.97794 -0.008,-1.18555 -0.35999,0.21345 -0.92476,0.0215 -1.27148,0.16016 -0.1099,-0.069 -1.98294,-0.80586 -2.47461,-0.83984 -0.086,-0.90953 -1.42605,-2.62163 -1.61719,-2.56641 0,0 1.89038,-1.7539 1.86914,-2.02734 -0.12849,-0.27663 -0.0391,-0.98633 -0.0391,-0.98633 -0.20548,-0.13327 -0.41907,-0.2604 -0.64844,-0.34961 -0.38177,-0.66476 -1.23821,-1.06911 -1.6582,-1.63086 -0.53627,-0.71786 -2.12966,-3.59424 -2.9707,-3.85547 -0.23628,-0.0738 -0.7974,0.11828 -1.01563,0.23828 -0.0382,-0.0117 -0.40476,-0.0722 -0.43555,-0.0605 -0.36849,-0.37486 -0.60761,-0.0872 -0.83008,-0.35743 -0.24477,-0.0499 -0.49091,0.23853 -0.64648,0.15039 -0.54318,-0.30689 -2.19057,-1.50434 -2.75976,-1.41992 -0.1269,-0.11256 -0.28574,-0.24695 -0.4668,-0.23633 -0.0935,0.21769 -0.5127,1.33133 -0.48828,1.44336 -1.61305,0.54529 -1.09418,1.17725 -2.54688,0.80664 -0.13168,0.0361 -1.36615,0.0996 -1.37304,0.4336 -0.24902,0.0573 -1.06578,-0.19535 -1.41993,-0.20703 -0.11416,-0.004 -0.68654,0.46852 -0.72265,0.50781 -0.21981,-0.0313 -0.44336,-0.0413 -0.66211,-0.0801 -1.08316,-0.97856 -2.62205,-1.7202 -3.85547,-2.49805 -0.28831,-0.18159 -1.09568,-0.74198 -1.14453,-0.84765 -1.03006,-0.0749 -1.72507,-1.25179 -2.47266,-1.64258 -0.0903,-0.0727 -0.72946,-0.9374 -0.9668,-1.29102 -1.56633,-1.00192 -1.65607,-1.83533 -3.69921,-2.63867 l -0.0898,-0.0371 c -1.15059,-1.41713 -2.21044,-1.78798 -3.71094,-2.66406 -1.50792,-0.88033 -1.44805,-0.86701 -2.6289,-2.02344 -1.56739,-1.535 -2.14298,-1.11017 -2.92774,-3.50586 -0.72901,-0.39025 -1.41304,-0.83664 -2.14257,-1.22265 -0.0446,-0.26335 -0.30086,-1.13802 -0.48829,-1.32227 -0.31114,-0.30742 -0.80291,-0.51472 -1.08007,-0.84179 -0.4837,-0.57131 -2.21975,-2.96243 -2.85743,-3.20508 -1.02051,0.10354 -1.43389,-0.026 -2.01953,-0.82032 -0.0897,-0.0303 -1.99977,-0.67091 -2.03906,-0.70117 -0.44441,-0.34566 -0.81624,-0.80962 -1.48047,-0.74219 -0.18689,-0.13168 -0.39327,-0.24492 -0.60937,-0.32031 -0.41733,-0.68547 -1.22365,-1.4372 -1.91602,-1.84179 0,0 -1.00432,-0.78026 -1.1875,-1.02344 -0.97272,-1.09113 -3.57936,-3.04768 -5.11914,-2.96485 -0.22672,-0.31327 -0.44129,-0.63716 -0.67969,-0.9414 -0.70352,-0.19009 -2.3164,-1.06055 -2.3164,-1.06055 -0.49963,0.0818 -1.73995,-0.77982 -2.08985,-1.16211 -1.86951,-0.37327 -1.96132,-0.13247 -3.95508,-0.96289 0,0 -0.77767,-0.17762 -0.99218,-0.36133 -0.41468,-0.0382 -0.84951,-0.2449 -1.20313,-0.25976 -1.04334,-0.0441 -1.86374,0.10128 -2.89062,-0.25977 -0.25751,0.10035 -0.5319,0.16869 -0.78516,0.28125 l -0.60742,-0.12109 c -1.44474,0.46459 -3.88882,1.47069 -5.31445,1.08203 -0.51344,-0.13964 -1.05232,-0.32629 -1.58594,-0.36133 -0.73378,-0.57769 -1.58451,-0.93366 -2.30078,-1.5039 -0.0345,-0.0552 -0.0382,-0.14207 -0.0234,-0.20313 -0.38282,-0.62175 0.52961,-1.13683 -0.14258,-1.39063 -0.086,-0.0558 0.0688,-1.22459 0.60352,-1.10937 0.1784,-0.54424 1.26358,0.15658 1.62304,-0.18164 0.0356,-0.0335 0.21412,-0.13374 0.21094,-0.25586 -0.0924,-0.30955 -0.11553,-0.75063 -0.0508,-0.83984 0.043,-0.0589 0.3323,-0.59579 0.35938,-0.625 0.24743,-0.26335 0.43207,-0.25212 0.51171,-0.30469 0.0255,-0.0175 1.50098,-1.37088 0.86915,-1.58008 0,0 -0.60246,0.009 -0.82227,-0.0176 -0.45079,-0.0542 -1.27197,-0.39212 -1.58789,-0.0762 -0.20442,-0.0887 -0.66797,-0.59766 -0.66797,-0.59766 -0.2538,0.0234 -1.54868,-0.73059 -1.61133,-0.77148 -0.12425,-0.0807 -1.09572,-0.0418 -1.21094,-0.0625 -0.97431,0.18849 -0.83367,-0.30615 -1.23242,-0.1543 -0.79325,-0.1184 0.0266,-1.05757 0.36914,-2.28515 0.12902,0.0786 0.25809,0.17472 0.40039,0.23047 1.05502,-0.43114 0.53241,-0.34403 1.77539,0.0234 0.6106,0.55326 0.67771,-0.22471 1.38282,-0.14453 0.15026,0.0175 0.74515,0.48366 0.72656,0.20703 -0.0807,-0.14974 0.62633,-1.14498 0.70703,-1.33984 0.15026,-0.0839 2.04445,-1.04415 2.33594,-1.57617 0,0 0.80255,-0.3695 0.85937,-0.58985 0.49167,-0.18955 1.94807,-2.25008 1.86524,-2.27929 -0.24106,-0.10937 -2.49951,0.25236 -1.95899,-0.60938 0.0903,-0.0409 -0.03,-0.65821 -0.0273,-0.71289 0.16141,-0.37752 0.12108,-0.56613 0.55859,-0.64258 0.49273,-0.65893 4.8e-4,-2.12992 0.0312,-2.22656 0.15345,-0.4837 -1.07387,-0.6911 -1.35156,-0.76172 -0.83892,-0.686 -2.04467,-1.23374 -2.74023,-2.14062 -0.0998,-0.54211 -1.26788,-1.89142 -1.41602,-2.46485 -0.52884,-0.27876 -1.58768,-1.65934 -1.63281,-1.68164 0.0425,-0.0887 0.1446,-0.30653 0.0645,-0.32617 0.0271,-1.28864 0.23566,-1.64937 -0.41211,-2.6582 0.0186,-0.0786 0.005,-0.17958 -0.0254,-0.25391 -0.34724,-0.10301 -0.48124,-0.36403 -0.77539,-0.48828 -0.0483,-0.12318 -0.50128,-0.58923 -0.67969,-0.62109 l -0.66211,-1.76172 c 0.18424,-0.0552 -0.0108,-1.37542 -0.13867,-1.50391 0.10726,-0.4099 -0.43352,-0.81766 -0.41015,-1.20898 -0.1354,-0.16778 -0.67468,-0.71947 -0.71875,-0.22461 -0.0536,0.21291 -0.48764,-0.24223 -0.5625,-0.3086 -0.0637,-0.3276 0.32771,-2.33895 -0.73633,-1.45703 -0.19699,0.0754 -1.88878,0.34132 -2.36133,0.63281 -0.0881,0.1853 -0.95619,1.18903 -1.08203,1.16407 -0.052,-0.0106 -0.20764,-0.48134 -0.33985,-0.64063 -0.37592,0.0117 -1.23048,0.0191 -1.29101,0.002 -0.58087,0.12796 -2.90787,-0.18104 -3.30078,-0.10352 1.93429,-1.7304 4.67725,-2.66666 6.18359,-4.90625 -0.0143,-0.11362 -0.14508,-0.41268 -0.15039,-0.47852 -0.0626,-0.0287 -2.79828,-3.12472 -3.40039,-2.70898 l 0.74805,-1.60156 c -0.0775,-0.0977 -0.54242,-0.62062 -0.53711,-0.74805 -0.15345,-0.0653 -1.13175,-0.0137 -1.40625,0.24219 -0.3069,0.0499 -0.6252,-0.0819 -0.90821,-0.0469 -1.37837,0.17257 -1.66934,0.92996 -3.4746,0.51953 l -0.13868,0.0527 c -0.077,0.18584 -0.11536,0.44188 -0.15625,0.64258 -0.39716,0.052 -2.95752,1.59937 -3.55273,1.80273 -0.0239,-0.13858 0.29843,-1.11902 0.33984,-1.24805 0.10088,-0.31167 0.76307,-1.57083 0.74024,-1.89843 -0.0228,-0.3191 -1.15315,-0.43865 -1.34961,-0.63086 -0.29787,-0.29149 -1.61416,-1.19749 -1.94336,-1.21289 -0.23309,-0.33291 -1.65261,-1.85718 -1.67969,-2.05469 -0.0552,-0.069 -0.41628,-0.13344 -0.49805,-0.10742 -0.23893,-0.21026 -1.30919,-1.70557 -1.55078,-1.80274 0.0149,-0.7529 -1.17155,-1.41326 -1.23633,-1.82422 0.11682,-0.11735 0.63104,-1.05836 0.57422,-1.26171 -0.67007,-2.401 -2.81996,-2.47561 -3.09765,-3.61133 0.0329,-0.19911 0.0881,-0.40513 0.0918,-0.60742 -0.23628,-0.26389 -0.75009,-0.87184 -1.05273,-0.99024 0,0 0.0286,-0.41756 0.0371,-0.51367 -0.92228,-0.99342 -1.26223,-2.60094 -2.08203,-3.67774 -0.13008,-0.17043 -1.30448,-1.6431 -1.4043,-1.69726 -0.034,-0.0536 -0.312,-0.33639 -0.48828,-0.42188 -0.0627,-0.0303 -0.33445,-1.01854 -0.53516,-1.42578 -0.005,-0.29522 -0.62893,-1.57938 -0.91406,-1.03515 -0.33291,0.1492 -0.88195,0.69367 -1.11133,0.29492 -0.17893,-0.0643 -1.34006,0.053 -1.41015,0.24414 -0.2161,-0.0961 -1.55878,-0.003 -1.67188,-0.004 -0.23203,-0.19327 -0.64774,-0.88176 -0.70508,-0.99804 0.0329,-0.31539 -0.43727,-1.19198 -0.81054,-1.20313 0.23044,-0.15451 0.83137,-0.86731 0.90039,-0.96289 0.13646,-0.19008 1.65563,-1.02776 1.96093,-1.21094 0.18265,-0.10991 0.74461,-0.13294 0.89063,-0.2832 -0.0186,-0.12265 0.55664,-1.05664 0.55664,-1.05664 0.0319,-0.0489 -0.46062,-0.63351 -0.36133,-0.74024 0.0892,-0.0966 0.61328,-0.86328 0.61328,-0.86328 -0.0191,-0.0919 0.0108,-0.2862 -0.0391,-0.83203 -0.0159,-0.17681 -0.813,-0.0941 -0.80078,-0.40039 0.005,-0.14124 0.4409,-0.84893 0.45312,-0.85742 0.2145,-0.15398 0.60769,-0.168 0.68946,-0.0215 0.0818,0.0234 0.68154,-0.46623 0.70703,-0.50977 0.086,-0.14707 -0.15235,-0.41016 -0.15234,-0.41016 0.0552,-0.60635 0.70279,-0.55442 0.82226,-0.6914 0.0796,-0.0924 0.46509,-0.98608 0.48633,-1.01953 0,0 0.96345,-0.0623 1.19336,-0.28321 0.0542,-0.0515 1.69146,-1.50508 1.65429,-1.59375 l 0.50977,0.0156 c 0.24212,-0.19168 0.54055,-0.3682 0.83789,-0.45899 -0.34194,-0.6207 -0.47319,-1.91299 -0.69726,-2.07812 -1.13944,-1.59394 -1.48004,-1.25918 -0.0645,-2.73047 0.17999,-0.90369 0.9205,-1.76264 0.82227,-2.65625 -0.11309,-1.02581 0.41749,-3.21684 0.0586,-3.83594 -0.82193,-1.42032 -1.70381,-2.57736 -2.96484,-3.66211 -0.0717,-0.0154 -1.48462,0.11994 -1.66992,0.0371 -0.11947,-0.0536 -0.63678,1.00019 -0.76368,1.22266 -0.0849,-0.0303 -0.20644,-0.3218 -0.24414,-0.40039 -0.51928,-1.07625 -1.03691,-2.02365 -1.68945,-3.02344 -0.0653,-0.10089 -0.60837,-3.11866 -0.62695,-3.57422 0,0 -0.54058,-0.33166 -0.73438,-0.43945 0,0 -0.37004,-1.14143 -0.26172,-1.50195 0.11894,-0.0956 0.16662,-0.29919 0.29883,-0.35547 0.16885,-0.0181 1.35967,-0.90264 1.50781,-0.93555 0,0 1.97,0.21825 2.41016,0.39453 0.51503,-0.13858 1.47365,-1.65461 1.12109,-1.97266 -0.0669,-0.42847 0.0914,-2.04073 -0.0254,-2.22656 l -0.83398,-1.46875 c 0.10672,-0.15238 0.71289,-0.71679 0.71289,-0.71679 0.017,-0.29628 -0.10434,-0.93777 -0.0215,-1.1836 0.0796,-0.2384 0.56156,-0.59282 0.54882,-1.01758 -0.003,-0.11522 -0.14949,-0.67775 -0.14843,-0.68359 0.006,-0.0382 0.34069,-0.13389 0.38476,-0.13867 0.43007,-0.0457 1.24169,0.58893 1.36328,0.63672 0.23468,0.0919 -0.18272,0.78145 -0.13281,0.90039 0.0696,0.16725 0.45399,0.37266 0.55859,0.47461 0.13964,0.13645 0.25148,0.6751 0.37891,0.79297 0.21717,0.20017 1.8304,0.88298 1.875,0.88085 0.0382,-0.002 1.18361,0.0944 1.35352,0.0859 -0.0356,-0.0573 0.65429,-0.58203 0.65429,-0.58203 0.0903,-0.19221 0.32477,0.0265 0.43946,-0.0176 0.29255,-0.11362 0.33442,0.47551 0.46875,0.53711 0,0 1.4465,-0.005 1.54101,0.0156 0.0573,-0.0579 0.59724,-0.63172 0.79688,-0.56641 0.14442,0.0473 1.41529,0.87938 1.57617,0.9707 0.14336,0.0812 1.24472,0.70724 1.42578,0.7168 0.10778,0.006 0.59769,-0.6545 0.66406,-0.71875 0.0239,-0.15875 -0.28125,-1.42187 -0.28125,-1.42187 0.0701,-0.15822 0.11776,-1.49661 0.0254,-1.6543 -0.10514,-0.17946 -0.44722,-0.1519 -0.49023,-0.23633 -0.0191,-0.0388 -0.23936,-1.39319 -0.29883,-1.64062 0.0573,-0.11681 0.15301,-0.12986 0.24805,-0.20313 0.0844,-0.18583 -1.19118,-3.78168 -1.23047,-3.80664 -0.10938,-0.0695 -0.73289,-0.0202 -0.87891,0.0606 -0.007,-0.71998 0.38229,-1.75519 0.38867,-1.82422 -0.50388,-0.41733 -0.46169,-0.12394 -0.75,-0.8418 -0.37698,-0.17628 -0.575,-0.36937 -0.98437,-0.27539 -0.21929,-0.0966 -1.32069,-0.76639 -1.38281,-0.95117 -0.0106,-0.0313 0.45196,-0.37093 0.5332,-0.37305 0.2745,-0.15929 0.95544,-1.48334 1.01172,-1.82422 -0.0765,-0.13461 -0.0765,-0.25257 -0.0488,-0.36328 l -283.71289,0 z"
     id="rect7_1_"
     inkscape:connector-curvature="0" /><path
     style="fill:#ce1126;fill-opacity:1;stroke:#ce1126;stroke-width:1.5;stroke-miterlimit:4;stroke-dasharray:none;stroke-opacity:1"
     d="m 331.3997,53.391357 c -0.10373,-0.01693 -0.20625,-3.13e-4 -0.29492,0.0918 -0.37698,0.39238 -0.59645,0.508868 -0.66016,0.617188 -0.33822,0.57556 -1.05103,1.176141 -1.51562,1.675781 -0.69556,-0.11894 -1.12817,0.818526 -1.22852,0.816406 -0.15132,0.31964 0.1785,1.109714 0.13868,1.214844 -0.0239,0.0621 -1.24842,0.186686 -1.47461,0.816406 -0.10884,-0.0552 -0.81,-0.086 -0.91407,-0.0918 -0.29415,-0.0165 -0.77019,-0.267574 -0.64648,0.285156 l 0.16211,0.732422 c 0.15557,0.0865 -0.46596,2.037141 -0.86524,1.769531 -0.0664,-0.0446 -0.99775,-0.227435 -1.07421,-0.04102 -0.0329,0.0812 -0.50737,0.09713 -0.47657,0.365235 0.095,0.10088 -0.0419,0.545984 -0.0977,0.708984 -0.0552,0.16301 0.29017,0.604498 0.25195,0.798828 -0.0207,0.10884 -0.93604,0.804398 -1.08789,0.935548 -0.14495,0.12477 -1.49133,1.202287 -1.55664,1.273437 -0.14124,0.15504 0.39916,0.528513 0.34766,0.726563 -0.0547,0.21026 -0.60566,0.742487 -0.88282,0.835937 -0.23256,0.52459 -1.20117,1.701172 -1.20117,1.701172 -0.0812,0.177339 -0.19478,0.752101 -0.25,0.96289 -0.0717,0.27291 0.15852,0.614018 -0.0762,0.841797 -0.37539,0.36583 -1.19433,-0.376038 -1.60742,-0.423828 -0.51237,-0.0589 -2.80396,0.683569 -2.91016,0.78711 0.0127,0.20229 -0.29473,0.272601 -0.45508,0.289062 0,0 -0.77183,-0.282348 -1.04687,-0.292968 -0.18053,-0.007 -2.41978,0.141974 -2.64649,0.05273 l -1.38281,0.714844 c -0.10884,0.23362 -0.24034,0.456472 -0.38477,0.669922 -0.40884,0.10831 -1.28334,0.533392 -1.6582,0.482422 -0.11362,-0.0149 -0.32122,-0.208648 -0.4375,-0.267578 -0.19699,-0.100351 -0.77139,-0.130819 -1.02148,-0.173829 -0.06,0.0552 -0.74961,1.184107 -0.85156,1.341797 -0.0249,0.0393 0.12521,0.91853 0.25,1.09375 0.27503,0.385999 2.02175,0.194154 1.05859,1.265625 -2.29056,2.54861 -5.12875,4.835167 -7.56055,7.298828 -3.45389,3.49849 -20.69531,21.343751 -20.69531,21.343751 -0.87609,0.91059 -5.08743,4.77525 -6.26563,5.7793 -0.17946,0.15291 -0.2351,0.19154 -0.46289,0.23242 -1.57111,0.28088 -21.2135,3.82068 -26.08984,4.70898 -0.32494,0.53308 -6.08837,10.57052 -7.23047,12.39649 0,1.11927 0.0704,2.2669 0.0391,3.38086 -0.0329,1.16599 -1.32328,13.10239 -1.80273,17.71484 0.6706,1.33802 6.61817,14.33742 7.08594,15.67384 0.008,0.0218 0.0841,4.82166 0.10742,7.11328 0.0287,2.81355 0.1329,5.64063 0.0957,8.45312 -0.74653,1.04652 -6.62646,10.72092 -6.74805,10.83985 0,0 -0.0118,5.0154 -0.0351,7.42383 0,0 -0.76692,2.03093 -0.89063,2.42968 -0.20707,0.66954 -1.91207,5.86343 -1.90039,6.46289 0.0186,0.97802 0.12799,2.05302 0.0547,3.02149 -0.11309,1.50208 -0.4657,3.04033 -0.67383,4.53711 -0.007,0.051 -0.003,0.0975 0,0.14844 0.18689,3.3015 -3.51849,32.52273 -5.1289,34.62109 -0.0368,0.0479 -0.9482,2.16015 -1.63282,3.73828 l 290.22657,0 c -0.028,-0.15486 -0.0579,-0.33669 -0.0723,-0.39648 0.0573,-0.11681 0.15301,-0.12986 0.24805,-0.20313 0.0844,-0.18583 -1.19118,-3.78168 -1.23047,-3.80664 -0.10938,-0.0695 -0.73289,-0.0202 -0.87891,0.0606 -0.007,-0.71998 0.38229,-1.75519 0.38867,-1.82422 -0.50388,-0.41733 -0.46169,-0.12394 -0.75,-0.8418 -0.37698,-0.17628 -0.575,-0.36937 -0.98437,-0.27539 -0.21929,-0.0966 -1.32069,-0.76639 -1.38281,-0.95117 -0.0106,-0.0313 0.45196,-0.37093 0.5332,-0.37305 0.2745,-0.15929 0.95544,-1.48334 1.01172,-1.82422 -0.4322,-0.76033 1.07347,-1.1209 1.39258,-1.28125 0.0897,-0.30848 -0.36381,-0.73951 -0.36328,-0.8457 0.21717,-0.12903 0.58156,-0.31104 0.66015,-0.51758 -0.0398,-0.0855 -0.68937,-1.34312 -0.99414,-1.64258 -0.0329,-0.52406 1.16697,-0.98605 1.46484,-1.12304 0.25326,-0.11628 1.53005,-1.20298 1.6543,-1.38086 -0.0993,0.31593 0.54714,1.25567 0.57422,1.36133 0.1338,0.0154 1.63014,-0.47466 1.73633,-0.65625 0.28035,-0.48264 0.77835,-1.1426 1.3125,-1.36719 0.30796,-1.29236 -0.064,-2.46337 -0.57422,-3.60547 l 0.0254,-0.0898 c 0.0903,-0.0892 0.58146,-0.33996 0.67969,-0.32032 0.33928,-0.0632 1.42107,0.0844 1.5039,0.0918 0.19221,0.19699 0.72379,0.82158 0.91016,0.93945 0.16619,-0.0388 1.53557,0.25137 1.82813,0.17969 0.002,-0.0807 0.2246,-0.77539 0.2246,-0.77539 -0.0271,-0.31008 -0.1051,-1.34616 -0.0605,-1.48633 0.068,-0.10035 0.20872,-0.5018 0.23633,-0.56445 0.025,-0.0563 1.12109,-0.85938 1.12109,-0.85938 0.33716,0.0573 0.50638,-0.87208 0.5,-0.90234 -0.0472,-0.23893 -0.64648,-1.64062 -0.64648,-1.64062 -0.007,-0.0674 -0.21001,-0.93298 -0.0937,-1.23829 -0.0754,-0.086 -0.64616,-0.58774 -0.71094,-0.5957 -0.0409,-0.0728 -1.4e-4,-1.85748 0.006,-1.875 0.0398,-0.11097 1.51714,-0.88288 1.60156,-1.01562 0.2315,-0.0765 1.61323,0.24243 1.875,0.15429 0.1476,-0.0494 -0.52033,-1.03371 -0.49219,-1.1914 0.0669,-0.37221 -0.036,-2.49579 -0.0254,-2.51172 0.283,0.0727 1.16091,0.38512 1.50391,0.38672 0.51291,0.16831 1.35744,1.14788 1.41797,1.25195 0.2023,0.13486 2.05273,0.77734 2.05273,0.77734 0.0653,-0.21982 0.0311,-0.41378 0.20313,-0.60547 0.40194,-0.25699 0.72718,0.009 0.81054,0.37891 0.0945,0.18584 1.08257,1.13126 1.36133,1.14453 0.62441,-0.26388 1.00703,0.82255 1.20508,0.91016 0.0961,0.0223 0.58984,-0.37695 0.58984,-0.37695 0.76989,-0.60901 0.76842,-1.07145 0.75196,-1.14844 -0.1784,-0.12424 -0.45864,-0.6298 -0.45704,-0.74024 0.0122,-0.79007 -0.42037,-0.752 0.375,-1.15234 0.27982,-0.14124 0.59965,-0.2828 0.93946,-0.26953 0,0 1.35429,1.00173 1.42969,0.98633 0.0329,-0.006 1.34541,-0.7422 1.58593,-0.85743 0.30849,-0.14707 0.70479,0.0874 1,-0.0156 0.043,-0.0149 1.08793,-1.16146 1.31836,-1.29102 0.13221,-0.30052 0.81055,-0.50195 0.81055,-0.50195 -0.31964,-0.13964 -2.1795,-0.99008 -2.28516,-1.27148 -0.17841,-0.47097 0.62751,-0.5857 0.25,-0.89844 -0.005,-0.32707 -0.21146,-0.93599 -0.26562,-1.01563 0.0738,-0.82936 1.13484,-1.6574 1.875,-1.95898 0.14973,-0.0611 0.58768,0.0134 0.63281,-0.0254 0.13593,-0.11734 0.37477,-1.22815 0.41406,-1.22656 l -0.79492,-1.38086 c -0.66316,-0.6706 -0.46624,-0.75616 -1.11719,-0.29688 -0.11416,0.0802 -0.53723,0.19181 -0.63281,0.15039 -0.73909,-0.3207 -0.98411,-0.58973 -1.89258,-0.39062 -0.0696,-0.0473 -1.23794,-0.88712 -1.29687,-0.90039 -0.068,-0.21929 0.6812,-0.36226 0.82031,-0.48438 0.36105,-0.95572 2.27728,-2.54447 2.25391,-2.68359 -0.0414,-0.24849 -0.43299,-0.933 -0.46485,-1.08008 -0.19167,-0.8936 -0.81239,-1.43218 -1.43945,-2.03906 -0.44813,-0.0382 0.36268,-0.44106 -0.43164,-0.77344 -0.11946,-0.0499 -0.25341,0.0212 -0.375,-0.0176 -0.17468,-0.0552 -1.37872,-0.89236 -1.42969,-1.10156 0.28778,-0.68759 -0.85457,-0.5922 -1.23633,-0.87891 -0.0207,-0.0871 -1.52917,-2.23943 -1.60351,-2.37695 -0.1492,-0.27451 -1.13504,-2.19402 -1.27149,-2.45312 -0.23203,-0.44176 -0.59965,-0.51585 -0.83593,-0.85938 -0.19167,-0.27769 -0.56129,-1.4304 -0.67969,-1.65234 -0.32867,-0.61538 -0.93185,-1.31784 -1.05078,-2.03516 0.0807,-0.56441 0.15653,-0.80026 0.29883,-1.35352 0.18849,0.0908 1.4748,-0.34126 1.75781,-0.2871 -0.16301,-0.30636 -1.37695,-1.72266 -1.37695,-1.72266 0,-0.10089 -0.80207,-1.3166 -0.8711,-1.32031 -0.14389,-0.13646 -0.70189,-1.75751 -0.54101,-1.77344 0.48265,-0.11734 1.04329,0.5101 1.30664,0.61523 0.18584,0.0738 1.09961,0.27539 1.09961,0.27539 0.18478,-0.12106 1.0332,-0.18359 1.0332,-0.18359 l -0.0684,-0.46094 c -0.0531,-0.10513 -0.90659,-1.17076 -0.95703,-1.31836 0.34672,-0.71892 0.40858,-0.86415 -0.0156,-1.57617 -0.0266,-0.14707 -0.56043,-0.60901 -1.1875,-0.88086 -0.0366,-0.19008 0.003,-0.31835 0.0606,-0.42773 0.17257,-0.0499 0.9238,-1.0645 1.08203,-1.02149 0.42264,-1.40439 -0.2554,-1.12883 -0.2793,-1.54297 0.38973,-0.78582 1.02401,-1.0111 1.19922,-1.15234 0.0738,-0.0271 0.31225,-0.72092 0.56446,-0.95508 0.11309,-0.0212 0.38217,-0.12157 0.51757,-0.0976 0.78369,0.94298 0.40937,0.24146 1.09961,0.40234 0.18796,0.23627 0.19218,0.53881 0.48633,0.68164 0.19168,-0.0212 1.23006,-0.12101 1.26563,-0.0859 0.6329,0.068 0.19875,-0.23141 0.60547,0.30274 0.73591,0.19114 1.21811,-0.0871 1.68164,-0.44922 1.24191,-0.19858 0.63255,-0.32293 1.82031,0.18945 0.0435,0.11362 0.18042,0.15694 0.24414,0.25782 0.46352,0.26442 0.90995,-0.71659 0.95508,-0.81641 0.20124,-0.44123 -0.0181,-1.10914 0.95508,-1.03906 0.58724,-0.67219 0.80633,-0.56673 1.64843,-0.55664 0.29999,0.2761 1.02064,0.28695 1.08594,0.51367 0.0696,-0.006 1.72998,-1.32241 2.4043,-0.98047 0.50016,-0.16938 0.48057,-0.45014 1.0625,-0.40235 0.0313,-0.42318 -0.0802,-0.46415 -0.29688,-0.80078 0.19115,-0.0781 1.11175,-0.51503 1.18555,-0.60742 0.30849,-0.93396 -0.10379,-0.35489 0.63476,-0.67187 0.15982,0.0212 1.06133,0.0897 1.2461,-0.0234 0.0871,-0.0531 0.23212,-1.11239 0.24805,-1.2207 0.017,-0.11363 0.57619,-0.43335 0.6914,-0.52149 0.0568,-0.0435 -0.0793,-1.96296 -0.42969,-2.31445 -0.25221,-0.0542 -1.50447,-0.0871 -1.625,-0.0293 -0.16566,-0.12425 -1.24098,-1.2184 -1.31054,-1.22265 -0.44707,-0.0271 -1.15014,1.2722 -1.51172,1.60351 -0.0382,0.0351 -1.28038,0.40104 -1.39453,0.38086 -0.15823,-0.0281 -0.46113,-0.44491 -0.6836,-0.37695 -0.63184,0.19434 -1.07744,1.18262 -1.52929,1.37695 -0.0887,0.0382 -1.21902,-1.02237 -1.46485,-1.07812 -0.73007,-0.99608 -0.34737,1.43957 -1.96679,0.32031 -0.47256,-0.32707 -1.33751,-1.55699 -1.38477,-2.10547 -0.0271,-0.31221 0.43449,-0.53978 0.27149,-0.76172 -0.0483,-0.0658 -2.19765,-0.29462 -2.31446,-0.31055 -0.35521,-0.0887 -0.33401,-1.70771 -1.00195,-1.53515 -0.13115,0.034 -0.29595,0.67683 -0.33789,0.72461 -0.0212,0.0239 -1.73628,0.34226 -1.94336,0.48828 -0.33556,0.2368 -0.29862,0.525 -0.34375,0.57226 -0.0441,0.0462 -1.04725,0.60243 -1.21875,0.76172 -0.0361,0.0334 -1.39462,0.24166 -1.58789,-0.0312 -0.22884,-0.002 -0.84111,-0.32023 -0.95899,-0.29687 -0.1492,0.0297 -0.38294,0.45002 -0.58789,0.36718 -0.22937,-0.0924 -0.29806,-0.61204 -0.66601,-0.56054 -0.97431,0.45451 -0.0843,1.5361 -0.96094,1.39062 -0.15079,-0.21132 -2.93008,-1.01553 -3.38086,-1.0957 -0.086,0.0276 -0.8719,0.40994 -0.89844,0.56445 -0.0589,0.33822 -0.1107,1.27472 -0.0879,1.34375 -0.10248,0.0356 -0.21518,0.0828 -0.32031,0.0547 -0.52406,-1.04228 -2.63702,0.15769 -2.67578,0.16406 -0.10991,0.0181 -0.30275,-0.39869 -0.41797,-0.47461 -0.46831,-0.30584 -0.94031,-0.61946 -1.48242,-0.77343 -0.0579,0.002 -0.20958,0.78259 -0.17188,0.86914 -0.17947,0.0191 -0.44393,0.51981 -0.40039,0.21875 l -1.20312,-0.11914 c -0.0802,0.26919 -0.31041,0.88823 -0.48828,1.08203 -0.17097,-0.12053 -0.48485,-0.61682 -0.57618,-0.72461 -0.1115,-0.57874 -0.38745,-0.77349 -0.56054,-1.28906 0,0 -0.43262,-0.26554 -0.51758,-0.29102 0,0 -0.0878,-0.64432 -0.0527,-0.68945 -0.0467,-0.19327 -0.60206,-1.83745 -1.30664,-1.53321 -0.0552,-0.0404 -0.2865,-0.60798 -0.0508,-0.89257 -0.0632,-0.16566 -1.129,-0.9242 -1.27343,-0.8711 -0.16406,-0.21132 -0.0257,-0.75176 -0.0703,-0.85742 -0.35255,-0.43167 -0.83688,-0.017 -0.96484,-0.11523 -0.1922,-0.39822 -0.65328,-1.42483 -0.66602,-1.625 -0.052,-0.0329 -1.63788,-0.96068 -1.83593,-1.54102 -0.26601,-0.25433 -1.29476,-0.18519 -1.07813,-1.00977 0,0 -1.08646,-0.0969 -1.14062,-0.0762 -0.1407,-5.3e-4 -0.57767,-0.43934 -0.65625,-0.56836 0.0834,-0.20867 -0.2217,-0.70102 -0.25196,-0.76367 -0.0727,-0.15079 -0.97982,-0.24366 -0.94531,-0.37109 -0.12531,-0.24849 -0.82104,-0.5755 -0.87891,-0.64453 -0.0138,-0.0977 -0.66743,-0.77212 -0.72265,-0.80079 -0.12053,-0.0627 -1.11056,0.40022 -1.53321,0.45703 -0.0648,0.12054 -1.01045,-0.15894 -1.11718,-0.22266 -0.13327,-0.0796 -0.0584,-0.22389 -0.14063,-0.27539 -0.19805,-0.0977 -1.60845,-0.0291 -1.70508,0.0176 -0.42848,0.20655 -1.17334,0.87802 -1.41015,0.87696 -0.10301,-5.3e-4 -0.90799,-0.73918 -1.00781,-0.68555 -0.463,0.24955 -0.35252,0.6339 -0.75977,1.02735 -0.40406,0.39025 -0.49725,-0.0662 -0.96875,0.36914 -0.0488,0.0446 -0.0476,0.56949 -0.2207,0.70117 0,0 -0.88801,0.13937 -0.90235,0.13672 0,0 -0.78471,-0.81777 -1.25195,-1.07422 -0.0706,-0.0388 -1.46783,0.87653 -1.625,0.19531 -0.0589,-0.25858 -0.33331,-1.0889 -0.3418,-1.17969 -0.004,-0.0398 0.2154,-0.33245 -0.0469,-0.46094 -0.19327,-0.37274 0.60376,-0.92946 0.67969,-1.24219 0.0966,-0.39557 -0.26134,-0.40518 0.0312,-0.90429 0.11097,-0.18902 0.94189,-1.03419 1.14843,-1.28321 0.0834,-0.10036 0.61931,-2.16978 0.61719,-2.34765 0.003,-0.32548 -0.63948,-1.49247 -0.67187,-1.52539 -0.15345,-0.15875 -1.09491,-0.34884 -1.23243,-0.27344 -0.12583,-0.14389 -0.58165,-1.01132 -0.6289,-1.2168 -0.0175,-0.077 -0.57722,-0.50852 -0.84961,-1.16797 -0.26972,-0.65202 0.31065,-0.79092 0.23047,-0.98632 -0.22831,-0.55644 -0.66002,-0.81749 -0.61914,-1.375 0.0812,-0.0998 -0.45801,-0.7098 -0.31836,-0.79688 0.53626,-0.2007 1.34765,-1.1875 1.34765,-1.1875 0.005,-0.0212 -0.48939,-0.94797 -0.56054,-1 -0.1938,-0.14124 -0.40303,-0.0125 -0.89258,-0.59765 -0.10991,-0.13168 -0.0647,-0.76974 0.084,-0.99805 -0.0239,-0.10088 -1.9993,-0.47856 -2.11133,-0.43555 -0.31114,-0.24796 -0.79226,-0.34594 -1.01367,-0.69531 0.38388,-0.20708 1.93596,-1.03811 2.17383,-1.18359 0,0 0.15064,-0.42468 0.11719,-0.46875 -0.10938,-0.14442 -0.67523,-0.74219 -0.7793,-0.79688 -0.0865,-0.0451 -1.15604,-0.25403 -1.80859,-1.17578 0,0 0.27087,-1.36266 0.35742,-1.49805 0.0393,-0.0621 0.99564,-0.84118 1.01953,-0.98242 0.0897,-0.52299 -0.41797,-0.85027 -0.47266,-1.05469 -0.0541,-0.20177 -0.52232,-1.31775 -0.45117,-1.51367 0.0844,-0.23044 0.41412,0.0845 0.48633,-0.37109 0.0478,-0.30212 -0.26572,-1.01627 -0.29492,-1.05078 -0.11151,-0.13327 -1.27149,-0.62305 -1.27149,-0.62305 -0.1492,-0.15557 -0.45332,-1.05515 -0.62695,-1.20117 -0.0393,-0.403 0.149,-0.54711 -0.22851,-0.95117 -0.23628,-0.10619 -1.59274,0.44673 -1.7754,0.50195 -0.49909,0.15026 -1.01516,0.031 -1.5371,0.26562 -0.13167,0.0589 -0.22952,0.17659 -0.375,0.20313 -0.50229,0.0903 -1.11598,-0.0595 -1.62305,0.1582 0.0249,0.0993 0.0908,0.66795 -0.10352,0.77149 -0.283,0.14973 -2.03767,0.0131 -2.1582,0.002 -0.403,-0.0372 -0.85111,-1.13124 -1.87109,-1.24805 -1.21059,-1.20475 -0.10783,-1.55581 -0.72852,-2.39844 -0.26761,-0.36318 -0.71675,-0.33083 -0.92383,-0.67383 -0.0929,-0.15345 -0.36128,-2.09836 -0.45898,-2.53906 -0.0255,-0.11628 0.17456,-0.49455 0.1289,-0.51367 -0.018,-0.007 -1.69826,-0.50895 -1.78906,-0.53125 -0.71998,-0.17946 -1.04004,-0.37531 -1.34375,-1.07617 -0.4476,-1.03325 -0.17273,-1.39106 -0.10156,-1.52539 0.0319,-0.0595 0.48664,-0.4238 0.69531,-0.52149 0.0775,-0.0366 1.25129,-0.0512 1.375,-0.22851 0.0457,-0.0653 0.18919,-1.09276 0.0527,-1.39063 -0.15451,-0.33663 -1.20278,-1.20107 -0.59961,-1.83398 0.0733,-0.077 2.19768,-0.64531 2.21679,-0.66602 0.0796,-0.0828 0.1461,-1.75695 0.41211,-2.15039 -0.0101,-0.45238 -0.23463,-2.94551 -0.69922,-3.89062 -0.16725,-0.34141 -1.15299,-1.55208 -1.1875,-1.73633 -0.0154,-0.0807 -0.4053,-0.16468 -0.55078,-0.52149 -0.0685,-0.16831 0.12743,-0.585175 0,-0.734375 -0.2246,-0.0839 -1.26226,-0.633054 -1.26758,-0.708985 -0.27079,-0.402469 -0.77586,-0.64868 -1.03124,-0.05664 -0.28725,0.18318 -1.03327,0.121299 -1.38477,0.130859 -0.41521,-0.2915 -0.69702,-1.593193 -1.00391,-1.751953 -0.35097,0.0191 -0.74781,-0.88666 -1.16992,-0.86914 -0.27875,0.0111 -0.64758,0.653045 -1.20508,0.759765 -0.47256,-0.095 -1.14982,-0.144976 -1.58203,-0.285156 -0.14866,-0.22672 -1.51843,-0.154134 -1.78125,-0.05859 -0.32973,0.11947 -0.31758,0.456008 -0.40625,0.523438 -0.12637,-0.007 -0.23636,-0.113071 -0.30273,-0.212891 -1.17979,-0.3138 -1.23943,-2.672859 -0.49024,-3.474609 0.67113,-0.71892 1.07611,-0.471628 1.27735,-0.648438 -0.10779,-0.28991 0.34333,-0.94098 0.54297,-1.03125 0.0982,-0.24105 1.32307,-0.636547 1.6289,-0.748047 0.11628,-0.61113 -0.0601,-1.228869 0.31641,-1.667968 0.0244,-0.338751 0.4133,-2.367793 0.45312,-2.445313 0,0 -0.59149,-0.859537 -0.77148,-1.185547 -0.14389,-0.26229 -0.008,-0.779943 -0.33203,-1.033203 -0.11469,-0.0897 -0.3352,0.0087 -0.59961,-0.201172 -0.0106,-0.12159 -0.16249,-0.335264 -0.22461,-0.458984 0.10619,-0.68122 0.73561,-1.698611 0.8418,-2.775391 0.0202,-0.20177 0.41652,-0.703338 0.51953,-0.767578 0.003,-0.13593 0.13627,-0.260368 0.10547,-0.392578 -0.001,-0.006 -0.69111,-1.146172 -0.65235,-1.326172 -0.18424,-0.13274 -1.61096,-0.289288 -1.71875,-0.304688 -0.22565,-0.16088 -0.62873,-0.699743 -0.63086,-0.808593 -0.0876,-0.23893 -0.75736,-0.454597 -1,-0.472657 -0.52247,0.1869 -1.00247,0.420087 -1.49414,0.691407 -0.23256,-0.0467 -0.76367,-0.427735 -0.76367,-0.427735 -0.052,-0.11628 -0.16038,-0.97906 -0.28516,-1.09375 0.13964,-0.57556 -1.07234,-1.073802 -1.48437,-1.164062 -0.17256,-0.49326 0.0771,-0.674109 0.39258,-0.980469 0.06,-0.17788 -1.8158,-1.421154 -1.95703,-1.527344 -1.07838,-0.8129 0.72007,-1.280608 0.74609,-1.355468 0.0276,-0.0775 1.07062,-1.136051 1.33398,-1.369141 -0.1715,0.0308 -0.63179,-0.122897 -0.80859,-0.185547 -0.35203,-0.47097 0.21418,-0.81128 -0.65234,-1.09375 -0.0621,-0.0202 -0.19268,-0.09471 -0.25586,-0.07031 -0.0956,0.0372 -0.38346,0.597286 -0.36328,0.316406 -0.39398,-0.0435 -1.12363,-0.06835 -1.35938,-0.439453 -0.26654,-0.0887 -0.61606,-0.333738 -0.87305,-0.367188 -0.26866,-0.035 -0.96561,0.207353 -1.0957,0.251953 l -0.37695,-0.410156 c -0.1115,0.0234 -0.53711,0.146485 -0.53711,0.146485 -0.0483,0.0929 -0.10322,0.184198 -0.17383,0.261718 -0.20018,-0.006 -1.6703,-0.836123 -1.78711,-0.839844 -0.0738,-0.0834 -0.33789,-0.458984 -0.33789,-0.458984 -0.15079,-0.0807 -1.74659,-0.190015 -1.625,0.296875 0.0154,0.0611 -0.12305,0.402344 -0.12305,0.402344 -0.15981,0.12903 -0.67654,0.213943 -1.13476,0.595703 -0.21291,0.17787 -1.36369,0.573686 -1.65625,0.628906 -0.12902,0.2522 -0.78296,0.760385 -1.03516,0.953125 -0.0197,0.0988 -0.22588,0.515426 -0.0645,0.566407 0.0648,0.466179 -0.27907,1.216245 -0.42774,1.265624 -0.0865,0.0287 -0.51714,0.253171 -0.54687,0.244141 -0.14973,-0.0457 -0.31959,-0.145219 -0.48047,-0.136719 -0.15026,-0.13221 -1.40247,0.612037 -1.33398,0.779297 0.0377,0.0934 0.0657,0.386065 0.21484,0.515625 0.0281,0.0239 -0.55816,0.555765 -0.64258,0.615235 -0.0834,0.0589 -2.50659,1.535613 -2.625,1.621093 -0.13168,-0.004 -0.81535,0.08663 -1.04101,0.150391 -0.50547,0.59892 -1.65392,0.731054 -1.75586,0.802734 -0.0409,0.0287 -0.20713,0.326267 -0.29102,0.410157 -0.0133,0.17097 -1.63156,0.401216 -1.46484,0.160156 -0.0526,-0.10141 -0.1231,-0.209004 -0.25,-0.214844 -0.49698,-0.68334 -1.15984,-0.06004 -1.2793,0.0059 -0.43433,0.242109 -1.49614,0.847823 -1.28906,1.064453 0.0876,0.0913 0.78166,0.665836 1.01953,0.941406 0.29362,0.34088 0.13727,0.280734 -0.18555,0.396484 -0.20018,0.0717 -0.39485,0.157818 -0.60351,0.205078 -0.40513,0.49114 -0.89026,0.920498 -1.27149,1.429688 -0.23309,0.31062 -0.0256,0.494912 -0.0957,0.789062 -0.27291,-0.12106 -0.99662,0.60201 -1.21485,0.90625 -0.0605,0.0849 0.21936,0.553698 0.13282,0.742188 0,0 -0.11521,0.158849 -0.16406,0.193359 -0.11363,-0.0892 -0.91107,-0.712885 -1.19141,-0.822265 -0.13805,-0.25061 -1.15206,-0.111612 -1.44727,-0.144532 0,0 -0.88264,-0.441622 -0.99414,-0.451171 -0.10407,-0.287251 0.25394,-0.413562 0.32032,-0.644532 -0.0786,-0.11522 -0.80974,-1.049452 -0.83204,-1.351562 0,0 -0.33881,0.01891 -0.46093,-0.02148 -0.10884,-0.15451 -0.67908,-1.404001 -0.76563,-1.644531 0.29362,-0.29043 0.40474,-0.01083 0.6543,-0.585937 -0.10673,-0.27026 -0.56163,-1.040307 -0.6211,-1.097657 -0.50229,-0.002 -1.76004,-1.400693 -1.79296,-1.439453 -0.17522,-0.20973 -0.17569,-0.864408 -0.043,-1.105469 -0.10141,-0.0446 -0.56216,-0.277537 -0.6211,-0.335937 -0.17628,-0.17522 -0.0311,-0.779604 0.125,-0.927734 0.18424,-0.17363 0.4839,-0.187157 0.66602,-0.410157 0.17575,-0.21557 0.35446,-0.573136 0.42773,-0.841796 0.026,-0.0945 1.03352,-2.148469 1.1875,-2.324219 0.0988,0 0.63177,-0.04802 0.74805,-0.04492 1.0152,0.6637 2.06446,-0.279991 2.5625,-0.332031 0.17628,-0.25008 0.13766,-1.294428 0.15625,-1.361328 0.18955,-0.675381 -0.69686,-0.944514 -0.84766,-1.027344 0.0106,-0.14814 -0.0526,-0.288114 -0.0664,-0.433594 0.12743,-0.22619 0.60363,-0.446692 0.41992,-0.763672 -0.0382,-0.0653 -0.0606,-1.728516 -0.0606,-1.728516 -0.0435,-0.23787 -0.0286,-0.331022 -0.21289,-0.513672 -0.26548,-0.0526 -0.94382,-0.27473 -1.0293,-0.34375 0.13487,-0.29256 -0.53515,-1.25 -0.53515,-1.25 0,0 -0.79253,-0.949047 -0.82227,-1.060547 -0.35839,-0.18955 -0.8766,0.366196 -1.48242,-0.05273 0,0 -1.7735,-0.979426 -2.07031,-1.041015 -0.0743,-0.0849 -1.28257,-0.52609 -1.63672,-0.90625 -0.1508,-0.16195 -1.37305,-0.917969 -1.37305,-0.917969 -0.1853,0.0685 -1.16867,0.418191 -1.2207,0.488281 -0.13752,0.0324 -0.82967,0.09495 -0.92578,0.03125 -0.39078,-0.25752 -1.28254,0.156819 -1.35156,0.167969 l -0.44727,-0.53711 c -0.10248,0.0998 -1.05838,-0.05821 -1.26758,-0.105468 0,0 -1.19856,-0.392046 -1.26758,-0.447266 -0.20973,0.0849 -0.3669,0.534202 -0.60742,0.570313 -0.2092,0.319639 -1.21679,1.591796 -1.21679,1.591796 -0.14548,0.0334 -2.1542,0.356183 -2.28907,0.414063 -0.0595,0.23203 0.17465,1.47179 0.15235,1.53125 -0.0266,0.068 -0.56473,0.864685 -0.76172,1.078125 -0.14654,0.0186 -0.87826,0.29777 -1.00781,0.6875 0.15185,0.13911 -0.51727,1.486381 -0.64258,1.613281 -0.23362,0.23734 -1.63471,0.588956 -1.94531,0.259766 -0.0717,-0.0759 -0.0779,-0.191256 -0.16602,-0.253906 -0.0568,-0.0409 -1.44557,0.141618 -1.69141,0.07422 -0.12424,-0.276091 -0.79918,0.443061 -0.96484,0.513671 0,0 0.0847,0.463527 -0.16211,0.716797 -0.0197,0.26389 -0.51932,0.912884 -0.61914,0.933594 0.0759,-0.49698 -0.31473,-0.458788 -0.45703,-0.673828 -0.10778,-0.16301 -0.74342,-1.445327 -0.9043,-1.560547 -0.69237,-0.49698 -1.64848,-0.14896 -2.37695,-0.3125 -0.49804,-0.11203 -1.00371,-0.290969 -1.49219,-0.443359 -0.06,0.0993 -0.68672,0.166792 -0.83008,0.132812 -0.25751,-0.0616 -1.10787,-0.09133 -1.24804,-0.04883 -0.16566,0.0494 -1.48022,-0.203199 -1.62305,-0.07422 -0.0451,0.33769 -0.4508,0.346439 -0.66797,0.574219 -0.28937,-0.0542 -1.76923,0.470965 -1.67578,0.109375 -0.0865,0.12797 -0.59961,0.585937 -0.59961,0.585937 -0.12478,-0.215029 -1.05165,-0.183951 -1.32031,-0.294921 -0.15345,-0.2745 -0.092,-0.550464 -0.30274,-0.839844 -0.61963,-0.84953 -0.66221,-0.123654 -1.24414,0.03516 -0.2384,-0.13805 -0.46653,-0.291765 -0.71289,-0.416015 0,0 -0.74087,-1.539131 -1.54687,-1.337891 -0.2607,0.0653 -1.59485,0.41823 -1.76953,0.5 -0.10461,0.0489 -1.04186,0.630387 -1.24415,0.648437 -0.20442,0.018 -0.5306,-0.0055 -0.83007,-0.09766 -0.11521,-0.0356 -1.26178,-0.667051 -1.49805,-0.769531 -0.0292,-0.15026 0.12305,-0.632813 0.12305,-0.632813 0,0 -0.92112,-0.543552 -1.125,-0.669922 -0.8283,0.0324 -1.26476,-0.384208 -1.82227,-0.542968 -0.30902,-0.0881 -0.68779,-0.124962 -0.94531,-0.332032 -0.2161,-0.1731 -0.56438,-0.625815 -0.65039,-0.603515 -0.3292,-0.1131 -0.90985,-0.850004 -0.92578,-1.027344 -0.343,-0.14548 -0.70892,-0.129093 -1.07422,-0.132813 -0.0775,-0.10991 -0.22219,-0.29361 -0.18555,-0.4375 0.0122,-0.0488 -0.27404,-0.854333 -0.51562,-0.996093 -0.23628,-0.13858 -1.17966,-0.12069 -1.27735,0.05664 -0.38601,0.0111 -1.31191,0.483462 -1.45898,0.695312 -0.11363,0.16353 -0.0167,0.545885 0.01,0.734375 -0.0611,0.0871 -0.14447,0.09458 -0.23633,0.126953 -1.21005,0.42317 -1.00455,-0.320363 -1.59179,-0.501953 -0.39132,-0.12106 -0.81359,-0.04534 -1.20703,-0.162109 0.0956,-0.19858 -0.12359,-0.685237 0.0527,-0.810547 -0.0196,-0.10088 -1.30159,-0.65822 -1.33398,-0.71875 -0.14229,-0.26866 -0.68446,-0.910275 -1.00782,-0.890625 -0.0717,0.0871 -0.75308,0.158203 -0.83007,0.158203 -0.35627,0 -1.0982,-0.187016 -1.32227,-0.478516 -0.0802,-0.10513 -0.60395,-0.493119 -0.84766,-0.505859 -0.28141,-0.0149 -0.67376,0.241808 -0.92968,0.179688 -0.0956,-0.0234 -0.48502,0.09436 -0.57422,-0.16211 -0.0361,-0.10354 -0.71126,-0.354785 -0.53711,-0.916016 -0.10407,-0.11521 -1.14776,-0.02975 -1.26563,-0.06055 -0.18159,-0.0478 -1.04823,-0.02533 -1.25,-0.01953 -0.85059,0.69237 -0.79077,0.296265 -1.65039,0.328125 -0.20336,0.007 -0.81212,0.07963 -0.91406,0.109375 -0.0404,0.0111 -0.21867,0.367875 -0.46875,0.583985 -0.0621,0.0547 -0.12914,0.100216 -0.19922,0.128906 -0.30955,0.1269 -2.07298,0.171512 -2.34961,0.169922 -0.069,0.0552 -0.6741,1.465485 -0.8164,1.609375 -0.0972,0.0987 -1.07221,0.240498 -1.27344,0.267578 0,0 -0.6967,0.159849 -0.96484,0.230469 -0.28567,-0.1954 -0.67262,0.915258 -0.96094,0.955078 -0.0557,-0.0234 -0.82901,-0.498047 -1.48633,-0.498047 -0.30796,0 -0.58186,-0.400766 -0.80273,-0.572266 -0.27292,-0.21239 -1.50626,-0.09467 -1.57422,-0.11914 -0.35787,-0.12849 -2.71266,-1.351294 -2.97071,-1.433594 -0.21875,-0.0696 -0.52479,0.536166 -0.89062,0.353516 -0.19752,-0.0988 -0.83535,-0.972097 -0.87305,-1.185547 -0.01,-0.0542 0.25,-0.753907 0.25,-0.753907 -0.21876,-0.283 -1.37769,-0.447296 -1.76953,-0.623046 -0.0958,-0.043 -0.20095,-0.0944 -0.30469,-0.111329 z"
     id="rect3"
     inkscape:connector-curvature="0" /><path
     style="fill:#000000;fill-opacity:1;stroke:#000000;stroke-width:1.5;stroke-miterlimit:4;stroke-dasharray:none;stroke-opacity:1"
     d="m 195.09306,453.48706 c 18.18149,11.66427 48.34961,31.10156 48.34961,31.10156 1.11024,0.72265 2.26524,1.64526 3.4668,2.20118 11.825,5.46942 23.63528,10.96671 35.42578,16.50781 l 4.70508,2.21289 c 0.7083,0.4253 55.88849,45.59546 63.10742,51.57617 7.38936,6.1209 59.48605,49.81992 72.4043,60.83203 4.40803,3.75707 27.93007,23.94061 29.81445,25.56641 35.4251,3.01373 70.82633,6.30363 106.20312,9.83398 0.0765,0.008 0.62761,0.0728 0.66797,0.0664 0.0844,-0.0127 7.99184,-2.87261 8.21485,-3.01172 0.49644,-1.28758 2.16691,-3.20297 3.27343,-4.03711 0.35415,-0.26654 0.80333,-0.43978 1.1543,-0.70898 0.87608,-0.67379 2.01133,-1.91507 2.7207,-2.77735 0.50441,-0.61325 2.57042,-3.80473 2.82422,-4.15039 0.51663,-0.70352 0.98385,-1.41253 1.53711,-2.09375 0.52618,-0.64937 1.20205,-1.31442 1.64063,-2.01953 0.45821,-0.73645 0.64279,-1.69391 1.0957,-2.41601 0.4906,-0.78264 1.31086,-1.18407 1.90234,-1.82813 0.37274,-0.40565 0.64392,-0.98135 1.00391,-1.41992 0.52459,-0.63875 1.8861,-2.10226 2.24609,-2.65234 0.75025,-1.14315 1.04222,-2.60978 1.63477,-3.83789 0.16991,-0.3515 0.53568,-0.79076 0.64453,-1.15235 0.0122,-0.0414 0.0984,-1.22128 0.10742,-1.3418 0.85007,-0.75184 1.96266,-2.93606 2.16602,-3.31835 0.38388,-0.72212 0.52916,-1.71152 0.98047,-2.38477 0.24584,-0.36637 0.73495,-0.64803 0.9707,-1.01758 0.21291,-0.33451 0.27315,-0.86409 0.45898,-1.22461 0.35522,-0.68866 1.01883,-1.30617 1.29493,-2.04101 0.52299,-1.38899 0.20759,-3.19351 0.54687,-4.23047 0.29734,-0.90582 1.14174,-1.49351 1.54102,-2.18164 0.20017,-0.34406 1.30192,-3.21916 1.43359,-3.6211 0.28778,-0.87715 0.79381,-1.74732 1.2207,-2.57031 0.75131,-1.44846 1.31797,-3.08645 1.69336,-4.67773 0.0998,-0.42371 0.11139,-0.91025 0.23829,-1.32227 0.26017,-0.84316 0.86171,-1.51619 1.20312,-2.29883 0.17097,-0.39291 0.20967,-0.87131 0.37109,-1.26953 0.38494,-0.94405 2.31,-3.00416 2.69336,-3.35937 0.97962,-0.90741 3.35874,-1.94857 4.70313,-2.24219 0.86441,-0.18849 1.71562,-0.30075 2.50781,-0.73242 0.88829,-0.48424 2.68319,-2.10498 3.2168,-2.33594 1.01998,-0.44176 1.02756,-0.15317 2.0332,-0.9082 0,0 20.4612,-0.1099 21.0957,0 0.18159,0.0319 14.84375,6.64062 14.84375,6.64062 -0.0998,-0.74335 -0.0849,-1.53809 -0.0195,-2.28515 0.0398,-0.46248 0.15747,-0.9067 0.14844,-1.375 -0.0112,-0.59415 -0.26625,-1.04568 -0.34961,-1.60743 -0.0218,-0.14814 -0.006,-0.32236 -0.0371,-0.46679 -0.052,-0.22778 -0.1994,-0.45834 -0.25781,-0.69727 l 0.14648,-0.33789 0.25782,0.14648 c 0.25115,0.30742 0.262,0.73149 0.3496,1.10157 0.13806,0.58246 0.42159,1.15987 0.55274,1.73437 0.3069,1.34068 -0.0205,2.83024 0.58789,4.14649 0.15557,0.16778 0.53622,0.26505 0.75391,0.2539 0.64565,-0.33876 1.11461,-0.85272 1.69336,-1.26953 0.8129,-0.58458 3.17345,-1.61144 4.15625,-1.75586 0.44442,-0.0653 1.40764,-0.0773 1.83984,0.0215 0.26336,0.0605 0.52076,0.19472 0.79101,0.23242 1.05078,0.1476 2.22681,-0.0187 3.23829,0.35937 1.27537,0.47627 3.10848,1.09318 4.26757,1.79883 0.94086,0.5729 1.87932,1.16027 2.83399,1.69336 0.61697,0.34406 1.14488,0.90211 1.74805,1.26953 0.98121,0.59733 2.04709,1.03263 3.10742,1.45899 0.34247,0.13805 0.67084,0.34509 1.01172,0.48632 0.83945,0.34619 1.70953,0.32676 2.5957,0.50782 0.64246,0.13168 1.20168,0.51183 1.85742,0.65625 0.92865,0.20442 1.8986,-6.7e-4 2.83203,0.0625 0.31698,0.0212 0.55191,0.12054 0.84766,0.16992 1.05342,0.17681 2.36651,0.12522 3.31055,-0.4668 0.17363,-0.10884 0.35951,-0.3236 0.51562,-0.46484 l 0.0742,-0.33789 c -0.18265,-0.94564 -1.31508,-0.96228 -2.06055,-0.99414 l 0.0352,-0.14649 -0.002,0 c -1.77713,-0.62654 -4.02257,-1.75787 -4.9629,-3.04492 -0.20761,-0.28406 -0.20854,-0.66578 -0.34765,-0.97852 0.38919,-1.96348 0.12691,-3.538 -1.1543,-5.02734 -0.31274,-0.36371 -2.24687,-1.81568 -2.48633,-2.03125 -0.17097,-0.15451 -0.27682,-0.5847 -0.39257,-0.64258 -0.59521,-1.5727 2.33332,-2.10585 2.1289,-4.8164 -0.0627,-0.83573 -3.22386,-3.5472 -3.98633,-4.36328 -0.37857,-0.40512 -3.27988,-4.16568 -3.68554,-4.72266 -0.61166,-0.83891 -1.42321,-2.37391 -2.77344,-1.98047 -0.97325,0.28247 -1.02261,1.62682 -2.08984,1.80469 -1.64013,0.27398 -1.78099,-2.53208 -1.8086,-3.61524 -0.01,-0.38335 -0.23417,-1.97337 -0.2793,-2.30468 -0.026,-0.18956 -1.10418,-2.07457 -1.14453,-2.13086 -0.50282,-0.103 -1.87661,-1.38205 -3.5332,-1.69532 0.28194,-0.43273 -1.16085,-0.50327 -1.37695,-0.58398 -0.43539,-0.16141 -3.76303,-1.29565 -3.89258,-1.29883 -0.0775,-0.002 0.11133,-0.36791 0.11133,-0.42578 0,-0.99661 0.26506,-25.72716 0.36328,-37.09766 -0.71095,0.0552 -12.05559,0.0195 -17.01953,0.0195 -1.64916,0 -3.30932,-0.19987 -4.96485,-0.17969 0.28565,-5.98817 -0.0571,-27.70385 0.0879,-28.53321 0.18265,-1.03962 9.22703,-22.09267 11.4629,-28.04101 l -0.61133,-1.52149 c 0.0945,-0.23946 -0.0129,-0.5159 0.006,-0.76757 -0.13593,-0.15292 -0.52641,-0.60537 -0.78711,-0.51563 l -1.14844,-0.7207 c -8.5e-4,-0.002 -0.0274,-0.0321 -0.0293,-0.0352 l -451.86914,0 z"
     id="rect7"
     inkscape:connector-curvature="0" /><g
     id="g6"
     style="fill:#007a3d;fill-opacity:1"
     transform="matrix(2.189781,0,0,2.189781,-312.66445,-62.672892)"><g
       id="g8"
       style="fill:#007a3d;fill-opacity:1"><g
         id="g10"
         style="fill:#007a3d;fill-opacity:1"><path
           d="m 325.525,173.177 c -0.558,-0.294 -1.186,-0.767 -1.395,-1.053 -0.314,-0.439 -0.131,-0.456 1.163,-0.105 2.319,0.629 3.815,0.384 5.298,-0.872 l 1.308,-1.103 1.54,0.784 c 0.848,0.428 1.748,0.724 2.008,0.656 0.667,-0.176 2.05,-1.95 2.005,-2.564 -0.054,-0.759 0.587,-0.569 0.896,0.263 0.615,1.631 -0.281,3.503 -1.865,3.918 -0.774,0.202 -1.488,0.127 -2.659,-0.28 -1.439,-0.502 -1.684,-0.495 -2.406,0.057 -1.617,1.24 -3.869,1.356 -5.893,0.299 z"
           id="path12"
           style="fill:#007a3d;fill-opacity:1"
           inkscape:connector-curvature="0" /><path
           d="m 331.258,167.935 c -0.563,-0.716 -1.239,-3.423 -1.02,-4.088 0.192,-0.575 0.39,-0.69 0.914,-0.526 0.918,0.287 1.13,0.92 0.993,3.063 -0.107,1.748 -0.366,2.207 -0.887,1.551 z"
           id="path14"
           style="fill:#007a3d;fill-opacity:1"
           inkscape:connector-curvature="0" /></g><path
         d="m 263.743,165.991 c -0.185,1.31 2.325,4.567 3.458,5.157 -0.77,0.345 -1.728,0.189 -2.434,0.577 -3.948,3.948 -18.367,18.005 -21,21.366 7.799,0.154 16.449,-0.106 23.761,-0.44 -0.007,-5.299 5.018,-5.573 8.381,-7.503 1.73,2.725 6.075,2.516 6.618,6.618 0,4.91 0.009,12.306 0.009,17.646 -22.059,0 -44.566,0 -66.625,0 -1.172,5.176 -5.844,9.125 -12.354,7.5 2.014,-2.103 5.406,-2.827 6.619,-5.734 1.025,-6.365 -2.045,-10.296 -4.031,-13.907 3.284,-1.195 3.782,-1.493 7.121,-3.737 -2.343,7.12 6.091,6.338 12.353,6.175 0.211,-2.417 0.089,-5.271 -1.766,-5.624 2.396,-0.87 2.794,-1.168 6.619,-4.412 0,2.942 0,6.652 0,9.592 14.886,0 30.943,-0.111 46.139,-0.111 0,-3.002 0.795,-7.824 -1.581,-7.824 -2.269,0 -0.107,6.173 -1.87,6.173 -1.763,0 -23.719,0 -35.63,0 0,-1.328 -0.034,-4.104 -0.034,-6.104 1.51,-1.511 1.331,-1.38 11.648,-11.698 1.028,-1.029 8.266,-7.567 14.599,-13.71 z"
         id="path16"
         style="fill:#007a3d;fill-opacity:1"
         inkscape:connector-curvature="0" /><path
         d="m 352.803,165.737 c 2.488,1.338 4.457,3.191 7.502,3.971 -0.353,1.26 -1.475,1.759 -1.769,3.087 0,8.97 0,17.941 0,26.91 3.402,0.75 4.118,-1.178 5.737,-2.205 0.442,4.307 3.185,8.53 3.088,11.91 -4.851,0 -9.706,0 -14.559,0 10e-4,-14.555 10e-4,-29.114 10e-4,-43.673 z"
         id="path18"
         style="fill:#007a3d;fill-opacity:1"
         inkscape:connector-curvature="0" /><path
         d="m 333.391,180.149 c 0,0 5.296,-4.471 5.296,-4.643 0,7.646 0,15.837 0,23.485 l 3.814,-0.006 c 0,-8.948 -0.118,-18.023 -0.118,-26.338 1.548,-1.549 4.58,-3.792 5.338,-5.359 0,15.987 0,29.519 0,42.059 -10.746,0 -30.793,0.013 -33.443,0.013 -0.493,-8.73 -0.577,-17.771 9.599,-15.827 0,-1.488 0,-2.369 0,-3.562 -0.31,-0.609 -0.868,0.147 -0.998,-0.645 1.616,-1.617 2.163,-2.029 6.538,-5.851 0,4.612 0.081,15.499 0.081,15.499 1.07,0 3.153,0.004 3.857,0.004 10e-4,0.001 0.036,-18.228 0.036,-18.829 z m -12.554,18.602 c 0.716,1.075 3.155,1.056 3.04,-0.755 -0.411,-1.493 -3.615,-0.924 -3.04,0.755 z"
         id="path20"
         style="fill:#007a3d;fill-opacity:1"
         inkscape:connector-curvature="0" /><circle
         cx="224.026"
         cy="214.369"
         r="2.0420001"
         id="circle22"
         style="fill:#007a3d;fill-opacity:1" /><path
         d="M 341.175,199.295"
         id="path24"
         style="fill:#007a3d;fill-opacity:1"
         inkscape:connector-curvature="0" /><path
         d="M 329.451,199.295"
         id="path26"
         style="fill:#007a3d;fill-opacity:1"
         inkscape:connector-curvature="0" /><path
         d="m 287.048,165.779 c 2.488,1.339 4.457,3.191 7.502,3.971 -0.353,1.26 -1.476,1.759 -1.768,3.087 0,8.97 0,17.94 0,26.911 3.401,0.749 4.117,-1.179 5.736,-2.206 0.441,4.307 3.185,8.529 3.088,11.91 -4.851,0 -9.706,0 -14.559,0 10e-4,-14.555 10e-4,-29.114 10e-4,-43.673 z"
         id="path28"
         style="fill:#007a3d;fill-opacity:1"
         inkscape:connector-curvature="0" /></g></g></svg>