<?xml version="1.0" encoding="UTF-8" standalone="no"?>
<!-- Generator: Adobe Illustrator 13.0.0, SVG Export Plug-In . SVG Version: 6.00 Build 14948)  -->

<svg
   xmlns:dc="http://purl.org/dc/elements/1.1/"
   xmlns:cc="http://creativecommons.org/ns#"
   xmlns:rdf="http://www.w3.org/1999/02/22-rdf-syntax-ns#"
   xmlns:svg="http://www.w3.org/2000/svg"
   xmlns="http://www.w3.org/2000/svg"
   xmlns:sodipodi="http://sodipodi.sourceforge.net/DTD/sodipodi-0.dtd"
   xmlns:inkscape="http://www.inkscape.org/namespaces/inkscape"
   version="1.1"
   id="nation"
   x="0px"
   y="0px"
   width="546.992"
   height="603.44995"
   viewBox="0 0 546.99203 603.44995"
   enable-background="new 0 0 548.178 606.091"
   xml:space="preserve"
   inkscape:version="0.48.1 "
   sodipodi:docname="AJAX.svg"><metadata
   id="metadata33"><rdf:RDF><cc:Work
       rdf:about=""><dc:format>image/svg+xml</dc:format><dc:type
         rdf:resource="http://purl.org/dc/dcmitype/StillImage" /></cc:Work></rdf:RDF></metadata><defs
   id="defs31" /><sodipodi:namedview
   pagecolor="#ffffff"
   bordercolor="#666666"
   borderopacity="1"
   objecttolerance="10"
   gridtolerance="10"
   guidetolerance="10"
   inkscape:pageopacity="0"
   inkscape:pageshadow="2"
   inkscape:window-width="1280"
   inkscape:window-height="1004"
   id="namedview29"
   showgrid="false"
   fit-margin-top="0"
   fit-margin-left="0"
   fit-margin-right="0"
   fit-margin-bottom="0"
   inkscape:zoom="1"
   inkscape:cx="148.05991"
   inkscape:cy="277.4336"
   inkscape:window-x="-8"
   inkscape:window-y="-8"
   inkscape:window-maximized="1"
   inkscape:current-layer="nation" />
<path
   d="m 370.785,280.93999 h 0.002 c -0.727,-0.353 -1.455,-0.705 -2.182,-1.057 0.727,0.352 1.454,0.705 2.18,1.057 z"
   id="path3"
   style="fill:none;stroke:none"
   inkscape:connector-curvature="0" />
<g
   id="g5"
   style="stroke:none"
   transform="translate(-0.612,-0.93501359)">
	<g
   id="g7"
   style="stroke:none">
		<polygon
   points="136.136,604.386 142.197,605.556 143.654,604.386 "
   id="polygon9"
   style="fill:none;stroke:none" />
		<polygon
   points="481.666,0.78 481.423,0.935 481.712,0.935 "
   id="polygon11"
   style="fill:none;stroke:none" />
		
		<path
   style="fill:#ffffff;stroke:#000000;stroke-opacity:1"
   d="m 361.5669,241.53458 135.88037,-40.28827 -216.1338,0.22641 z"
   id="polygon15"
   inkscape:connector-curvature="0"
   sodipodi:nodetypes="cccc" />
		<path
   style="fill:#ffffff;stroke:#007a3d;stroke-opacity:1"
   d="m 376.20928,404.10833 -31.1543,-36.24344 -72.81645,36.19213 z"
   id="polygon17"
   inkscape:connector-curvature="0"
   sodipodi:nodetypes="cccc" />
		
		<path
   d="M 345.876,368.006 294.914,308.568 259.407,272.371 363.865,241.402 284.083,202.086 86.98,104.954 c -1.008,0.275 -1.837,0.572 -1.837,0.91 0,0.69 1.207,2.585 1.207,3.103 0,0.518 -2.53,0.945 -1.379,1.724 0.832,0.563 2.357,2.754 2.262,4.088 -0.096,1.334 0.476,3.097 -0.477,3.955 -0.953,0.857 -1.572,2.191 -1.524,3.049 0.048,0.858 -0.906,2.266 -0.389,3.171 0.517,0.905 2.327,2.198 1.939,2.715 -0.388,0.517 -1.81,2.585 -1.422,3.49 0.388,0.905 1.292,1.551 0.646,2.457 -0.646,0.905 -2.327,3.103 -1.81,4.137 0.517,1.034 0.905,1.164 0.388,1.939 -0.517,0.776 -1.422,0.646 -0.905,1.939 0.517,1.292 2.068,2.456 1.034,3.62 -1.034,1.163 -1.164,4.524 -1.034,6.076 0.13,1.552 1.422,2.585 1.164,3.878 -0.259,1.292 0.775,2.844 -0.259,3.749 -1.034,0.905 1.551,2.973 0.905,4.007 -0.646,1.034 -1.035,1.939 -0.776,2.456 0.259,0.518 1.939,1.293 1.164,2.974 -0.776,1.681 -1.164,3.49 -1.81,4.137 -0.646,0.647 0.517,4.783 -0.388,4.913 -0.905,0.13 -1.939,0.775 -1.681,1.939 0.259,1.164 -0.258,2.715 -0.775,3.232 -0.517,0.517 0.517,4.396 -0.129,5.171 -0.646,0.776 -2.327,4.137 -2.068,5.171 0.258,1.035 2.327,7.627 2.198,9.308 -0.129,1.681 1.163,5.817 -0.129,6.593 -1.293,0.776 -2.198,1.551 -1.81,3.232 0.388,1.681 2.844,4.913 2.198,5.43 -0.646,0.517 -1.034,1.939 -0.258,3.103 0.775,1.164 1.422,3.103 0.517,3.361 -0.905,0.258 -0.517,1.681 -0.259,2.715 0.19,0.759 1.282,4.437 1.852,7.11 0.545,0 0.993,0 1.25,0 1.164,0 3.232,2.327 2.327,3.232 -0.905,0.905 -2.327,8.403 -2.457,9.954 -0.129,1.551 -0.129,6.464 -0.775,7.757 -0.646,1.292 -1.81,6.593 -1.681,8.273 0.129,1.68 0.517,6.981 0.259,7.756 -0.259,0.776 2.068,3.62 1.422,4.137 -0.646,0.517 -1.164,3.103 -1.034,5.3 0.041,0.683 -0.145,1.904 -0.418,3.309 l 24.252,-7.527 -13.083,23.063 21.662,15.031 -25.953,4.018 1.91,26.532 -19.282,-18.052 -2.546,2.385 c -0.162,0.792 -0.385,1.273 -0.635,1.398 -0.24,0.121 -0.612,0.166 -1.042,0.172 l -0.253,0.236 c -1.429,3.412 -3.863,6.193 -4.522,7.219 -1.164,1.81 -0.517,8.532 -0.905,11.247 -0.388,2.715 -3.232,1.292 -6.981,6.464 -3.749,5.171 -2.068,10.342 -1.81,12.798 0.258,2.457 -2.456,2.198 -4.913,4.783 -2.456,2.585 -1.164,6.981 -1.164,8.92 0,1.939 -4.395,5.3 -5.042,6.593 -0.647,1.293 -4.396,9.696 -5.817,11.505 -1.422,1.81 -2.844,12.023 -3.232,15.513 -0.388,3.49 -3.878,6.723 -4.524,8.403 -0.646,1.68 2.456,3.748 3.49,5.816 1.034,2.069 0.646,4.654 0.646,6.464 0,1.811 -3.361,3.749 -3.232,7.757 0.129,4.008 -1.422,4.912 -2.327,6.723 -0.905,1.81 2.068,9.178 2.844,15.125 0.775,5.946 -4.266,6.205 -6.981,12.151 -2.715,5.947 -2.327,11.765 -2.327,12.669 0,0.905 -2.974,0.776 -3.491,2.457 -0.517,1.68 0.388,6.593 0.129,10.729 -0.259,4.137 -1.681,6.723 -3.361,10.342 -1.681,3.62 -0.129,4.654 -2.327,7.886 -2.198,3.232 -1.81,5.559 -1.939,7.498 -0.113,1.693 -0.817,3.979 -1.338,6.855 l 267.207,-133.462 70.535,-35.229 z"
   id="path21"
   style="fill:#ce1126;stroke:none"
   inkscape:connector-curvature="0" />
		<path
   d="m 67.361,330.551 c -0.031,0.078 -0.07,0.151 -0.103,0.228 l 0.253,-0.236 c -0.053,10e-4 -0.095,0.009 -0.15,0.008 z"
   id="path23"
   style="fill:#ffffff;stroke:none"
   inkscape:connector-curvature="0" />
		<path
   d="m 91.017,344.64 -1.91,-26.532 25.953,-4.018 -21.663,-15.03 13.081,-23.065 -24.252,7.527 c -0.607,3.113 -1.65,7.128 -1.65,8.197 0,1.551 0.775,4.007 0.129,4.395 -0.646,0.388 -2.844,4.913 -4.525,3.491 -1.681,-1.422 0.905,-8.791 -0.517,-9.049 -1.547,-0.282 -1.939,1.681 -2.973,1.81 -1.034,0.129 -0.905,2.457 -1.81,3.103 -0.552,0.394 -2.642,1.267 -4.394,1.508 -1.813,3.298 -3.758,6.525 -4.655,8.575 -0.747,1.707 -0.428,3.748 0.411,6.015 2.657,1.442 6.261,4.151 6.829,8.594 0.525,4.112 0.457,7.154 0.118,8.814 l 2.546,-2.385 19.282,18.05 z"
   id="path25"
   style="fill:#ffffff;stroke:none"
   inkscape:connector-curvature="0" />
	<path
   style="fill:#007a3d;stroke:none"
   id="path3800"
   d="m 198.216,560.568 30.509,-52.055 95.836,-19.65 20.512,-48.263 42.058,-24.477 -11.05,-12.888 H 275.343 L 8.137,536.698 c -0.076,0.417 -0.147,0.847 -0.213,1.289 -0.517,3.49 -3.749,6.076 -3.749,9.308 0,1.015 -0.281,2.593 -0.734,4.467 0.524,0.219 1.187,0.663 2.156,1.479 2.456,2.069 1.81,3.232 0.905,4.008 -0.905,0.776 -3.878,4.913 -3.878,6.723 0,1.81 0,6.852 -0.129,7.498 -0.129,0.646 -1.552,2.327 -1.552,3.49 0,0.818 -0.068,2.206 -0.331,3.275 l 135.525,26.15 h 7.518 l 54.561,-43.817 z"
   inkscape:connector-curvature="0" /><path
   style="stroke:none"
   id="path3825"
   d="m 496.475,202.086 12.347,-3.661 38.782,-36.369 -5.343,-16.375 -25.854,7.412 -8.103,-24.649 9.653,-2.585 L 481.712,0.935 h -0.289 l -234.427,149.056 -4.481,4.826 -13.79,-3.103 -2.585,1.207 -1.035,-2.068 c 0,0 -23.958,-2.414 -24.993,-4.31 -1.034,-1.896 -11.894,-1.724 -11.894,-1.724 0,0 -9.308,-11.203 -11.721,-12.927 -2.413,-1.724 -11.204,-7.757 -12.238,-8.963 -1.035,-1.207 -3.103,2.931 -3.964,2.241 -0.862,-0.69 -1.378,-1.896 -3.62,-1.896 -2.242,0 -7.584,1.896 -7.584,0.689 0,-1.207 0.518,-2.93 -0.172,-4.481 -0.69,-1.551 -5.861,-7.412 -6.033,-8.963 -0.172,-1.551 0.172,-5.343 0.172,-6.377 0,-1.034 -2.586,-1.207 -3.275,-0.862 -0.689,0.345 -2.585,1.379 -3.103,0.69 -0.517,-0.69 -1.896,-1.724 -1.896,-2.241 0,-0.517 1.207,-0.861 0.69,-2.241 -0.517,-1.379 -2.068,0.518 -2.413,-1.207 -0.345,-1.724 0.517,-2.758 -0.518,-2.93 -1.034,-0.172 -6.723,-0.689 -7.067,-1.207 -0.344,-0.518 -1.207,-1.379 -2.068,-1.207 -0.862,0.172 -4.482,0.345 -5.688,-0.345 -1.207,-0.689 -1.552,-2.068 -3.103,-2.413 -1.551,-0.345 -2.93,-0.172 -3.964,0.517 -1.034,0.689 -2.931,3.964 -3.448,4.137 -0.517,0.173 -5.171,1.551 -6.033,1.724 -0.862,0.173 -0.862,2.93 -2.241,2.93 -1.379,0 -6.033,0.173 -7.239,1.379 -1.207,1.206 -0.345,2.757 -1.724,3.274 -0.703,0.264 -1.942,0.527 -2.989,0.813 l 197.103,97.132 h 212.393 z"
   inkscape:connector-curvature="0" /></g>
	<path
   d="m 198.216,560.568 30.509,-52.055 95.836,-19.65 20.512,-48.263 42.058,-24.477 -92.217,-107.556 -35.507,-36.197 249.414,-73.946 38.782,-36.369 -5.343,-16.375 -25.854,7.412 -8.103,-24.649 9.653,-2.585 -36.29,-125.078 -234.67,149.211 -4.481,4.826 -13.79,-3.103 -2.585,1.207 -1.035,-2.068 c 0,0 -23.958,-2.414 -24.993,-4.31 -1.034,-1.896 -11.894,-1.724 -11.894,-1.724 0,0 -9.308,-11.203 -11.721,-12.927 -2.413,-1.724 -11.204,-7.757 -12.238,-8.963 -1.035,-1.207 -3.103,2.931 -3.964,2.241 -0.862,-0.69 -1.378,-1.896 -3.62,-1.896 -2.242,0 -7.584,1.896 -7.584,0.689 0,-1.207 0.518,-2.93 -0.172,-4.481 -0.69,-1.551 -5.861,-7.412 -6.033,-8.963 -0.172,-1.551 0.172,-5.343 0.172,-6.377 0,-1.034 -2.586,-1.207 -3.275,-0.862 -0.689,0.345 -2.585,1.379 -3.103,0.69 -0.517,-0.69 -1.896,-1.724 -1.896,-2.241 0,-0.517 1.207,-0.861 0.69,-2.241 -0.517,-1.379 -2.068,0.518 -2.413,-1.207 -0.345,-1.724 0.517,-2.758 -0.518,-2.93 -1.034,-0.172 -6.723,-0.689 -7.067,-1.207 -0.344,-0.518 -1.207,-1.379 -2.068,-1.207 -0.862,0.172 -4.482,0.345 -5.688,-0.345 -1.207,-0.689 -1.552,-2.068 -3.103,-2.413 -1.551,-0.345 -2.93,-0.172 -3.964,0.517 -1.034,0.689 -2.931,3.964 -3.448,4.137 -0.517,0.173 -5.171,1.551 -6.033,1.724 -0.862,0.173 -0.862,2.93 -2.241,2.93 -1.379,0 -6.033,0.173 -7.239,1.379 -1.207,1.206 -0.345,2.757 -1.724,3.274 -1.379,0.518 -4.827,1.034 -4.827,1.724 0,0.69 1.207,2.585 1.207,3.103 0,0.518 -2.53,0.945 -1.379,1.724 0.832,0.563 2.357,2.754 2.262,4.088 -0.096,1.334 0.476,3.097 -0.477,3.955 -0.953,0.857 -1.572,2.191 -1.524,3.049 0.048,0.858 -0.906,2.266 -0.389,3.171 0.517,0.905 2.327,2.198 1.939,2.715 -0.388,0.517 -1.81,2.585 -1.422,3.49 0.388,0.905 1.292,1.551 0.646,2.457 -0.646,0.905 -2.327,3.103 -1.81,4.137 0.517,1.034 0.905,1.164 0.388,1.939 -0.517,0.776 -1.422,0.646 -0.905,1.939 0.517,1.292 2.068,2.456 1.034,3.62 -1.034,1.163 -1.164,4.524 -1.034,6.076 0.13,1.552 1.422,2.585 1.164,3.878 -0.259,1.292 0.775,2.844 -0.259,3.749 -1.034,0.905 1.551,2.973 0.905,4.007 -0.646,1.034 -1.035,1.939 -0.776,2.456 0.259,0.518 1.939,1.293 1.164,2.974 -0.776,1.681 -1.164,3.49 -1.81,4.137 -0.646,0.647 0.517,4.783 -0.388,4.913 -0.905,0.13 -1.939,0.775 -1.681,1.939 0.259,1.164 -0.258,2.715 -0.775,3.232 -0.517,0.517 0.517,4.396 -0.129,5.171 -0.646,0.776 -2.327,4.137 -2.068,5.171 0.258,1.035 2.327,7.627 2.198,9.308 -0.129,1.681 1.163,5.817 -0.129,6.593 -1.293,0.776 -2.198,1.551 -1.81,3.232 0.388,1.681 2.844,4.913 2.198,5.43 -0.646,0.517 -1.034,1.939 -0.258,3.103 0.775,1.164 1.422,3.103 0.517,3.361 -0.905,0.258 -0.517,1.681 -0.259,2.715 0.19,0.759 1.282,4.437 1.852,7.11 0.545,0 0.993,0 1.25,0 1.164,0 3.232,2.327 2.327,3.232 -0.905,0.905 -2.327,8.403 -2.457,9.954 -0.129,1.551 -0.129,6.464 -0.775,7.757 -0.646,1.292 -1.81,6.593 -1.681,8.273 0.129,1.68 0.517,6.981 0.259,7.756 -0.259,0.776 2.068,3.62 1.422,4.137 -0.646,0.517 -1.164,3.103 -1.034,5.3 0.13,2.197 -2.068,9.955 -2.068,11.506 0,1.551 0.775,4.007 0.129,4.395 -0.646,0.388 -2.844,4.913 -4.525,3.491 -1.681,-1.422 0.905,-8.791 -0.517,-9.049 -1.547,-0.282 -1.939,1.681 -2.973,1.81 -1.034,0.129 -0.905,2.457 -1.81,3.103 -0.552,0.394 -2.642,1.267 -4.394,1.508 -1.813,3.298 -3.758,6.525 -4.655,8.575 -0.747,1.707 -0.428,3.748 0.411,6.015 2.657,1.442 6.261,4.151 6.829,8.594 0.775,6.076 0.258,9.825 -0.517,10.212 -0.27,0.136 -0.691,0.186 -1.193,0.18 -1.414,3.518 -3.95,6.398 -4.625,7.447 -1.164,1.81 -0.517,8.532 -0.905,11.247 -0.388,2.715 -3.232,1.292 -6.981,6.464 -3.749,5.171 -2.068,10.342 -1.81,12.798 0.258,2.457 -2.456,2.198 -4.913,4.783 -2.456,2.585 -1.164,6.981 -1.164,8.92 0,1.939 -4.395,5.3 -5.042,6.593 -0.647,1.293 -4.396,9.696 -5.817,11.505 -1.422,1.81 -2.844,12.023 -3.232,15.513 -0.388,3.49 -3.878,6.723 -4.524,8.403 -0.646,1.68 2.456,3.748 3.49,5.816 1.034,2.069 0.646,4.654 0.646,6.464 0,1.811 -3.361,3.749 -3.232,7.757 0.129,4.008 -1.422,4.912 -2.327,6.723 -0.905,1.81 2.068,9.178 2.844,15.125 0.775,5.946 -4.266,6.205 -6.981,12.151 -2.715,5.947 -2.327,11.765 -2.327,12.669 0,0.905 -2.974,0.776 -3.491,2.457 -0.517,1.68 0.388,6.593 0.129,10.729 -0.259,4.137 -1.681,6.723 -3.361,10.342 -1.681,3.62 -0.129,4.654 -2.327,7.886 -2.198,3.232 -1.81,5.559 -1.939,7.498 -0.129,1.939 -1.034,4.654 -1.551,8.145 -0.517,3.491 -3.749,6.076 -3.749,9.308 0,1.015 -0.281,2.593 -0.734,4.467 0.524,0.219 1.187,0.663 2.156,1.479 2.456,2.069 1.81,3.232 0.905,4.008 -0.905,0.776 -3.878,4.913 -3.878,6.723 0,1.81 0,6.852 -0.129,7.498 -0.129,0.646 -1.552,2.327 -1.552,3.49 0,0.818 -0.068,2.206 -0.331,3.275 l 141.586,27.32 56.021,-44.99 z"
   id="path27"
   style="fill:none;stroke:none"
   inkscape:connector-curvature="0" />
</g>
<path
   style="font-size:medium;font-style:normal;font-variant:normal;font-weight:normal;font-stretch:normal;text-indent:0;text-align:start;text-decoration:none;line-height:normal;letter-spacing:normal;word-spacing:normal;text-transform:none;direction:ltr;block-progression:tb;writing-mode:lr-tb;text-anchor:start;baseline-shift:baseline;color:#000000;fill:#ce1126;fill-opacity:1;stroke:none;stroke-width:1;marker:none;visibility:visible;display:inline;overflow:visible;enable-background:accumulate;font-family:Sans;-inkscape-font-specification:Sans"
   d="m 106.91925,274.22124 -1.1875,0.375 -24.281249,7.5 -0.28125,0.0937 -0.03125,0.3125 c -0.300932,1.54333 -0.724999,3.31328 -1.0625,4.84375 -0.337501,1.53047 -0.625,2.74039 -0.625,3.4375 0,0.85878 0.202581,1.85448 0.3125,2.6875 0.05496,0.41651 0.108188,0.78591 0.09375,1.03125 -0.01444,0.24534 -0.107174,0.2956 -0.03125,0.25 -0.210976,0.12672 -0.299911,0.26378 -0.4375,0.4375 -0.137589,0.17372 -0.274956,0.36412 -0.4375,0.59375 -0.325088,0.45927 -0.724838,1.02288 -1.125,1.5 -0.400162,0.47712 -0.815353,0.88901 -1.15625,1.0625 -0.340897,0.17349 -0.501847,0.17385 -0.78125,-0.0625 -0.20942,-0.17715 -0.391023,-0.75119 -0.40625,-1.59375 -0.01523,-0.84256 0.08994,-1.88415 0.21875,-2.90625 0.128806,-1.0221 0.263932,-2.04284 0.28125,-2.84375 0.0087,-0.40046 0.0026,-0.74125 -0.09375,-1.0625 -0.09634,-0.32125 -0.353471,-0.67806 -0.75,-0.75 -0.491098,-0.0895 -0.926587,-0.004 -1.28125,0.1875 -0.354663,0.19197 -0.619034,0.46679 -0.843751,0.71875 -0.224716,0.25196 -0.425375,0.49486 -0.59375,0.65625 -0.168375,0.16139 -0.29848,0.23655 -0.40625,0.25 -0.443092,0.0553 -0.778195,0.36897 -0.96875,0.6875 -0.190555,0.31853 -0.298794,0.65283 -0.40625,1 -0.214912,0.69434 -0.444058,1.34853 -0.65625,1.5 -0.175259,0.12509 -0.839744,0.46165 -1.625,0.75 -0.785256,0.28835 -1.740654,0.5432 -2.5625,0.65625 l -0.25,0.0625 -0.09375,0.21875 c -1.806605,3.28637 -3.761342,6.47711 -4.6875,8.59375 -0.826644,1.889 -0.452337,4.08633 0.40625,6.40625 l 0.0625,0.15625 0.15625,0.0938 c 2.592859,1.40719 6.024995,4.01428 6.5625,8.21875 0.52039,4.07589 0.442662,7.10074 0.125,8.65625 l -0.3125,1.53125 1.15625,-1.0625 2.21875,-2.0625 18.937501,17.71875 0.90625,0.875 -0.0625,-1.28125 -1.90625,-26.0625 25.499999,-3.9375 1.25,-0.1875 -1.03125,-0.71875 -21.281249,-14.78125 12.843749,-22.65625 0.625,-1.09375 z m -2.125,1.6875 -12.437499,21.96875 -0.21875,0.40625 0.375,0.25 20.624999,14.3125 -24.718749,3.84375 -0.46875,0.0625 0.03125,0.46875 1.84375,25.28125 -18.375001,-17.21875 -0.3125,-0.3125 -0.34375,0.3125 -1.625,1.53125 c 0.196429,-1.82455 0.2142,-4.26522 -0.21875,-7.65625 -0.583917,-4.56751 -4.172878,-7.33916 -6.875,-8.84375 -0.772016,-2.14364 -1.056964,-4.01303 -0.40625,-5.5 0.849135,-1.94061 2.777453,-5.10887 4.5625,-8.34375 0.844091,-0.14279 1.717661,-0.38044 2.46875,-0.65625 0.835744,-0.3069 1.467009,-0.60609 1.84375,-0.875 0.692808,-0.49453 0.857162,-1.33659 1.0625,-2 0.102669,-0.33171 0.208149,-0.63807 0.3125,-0.8125 0.104351,-0.17443 0.144842,-0.17828 0.21875,-0.1875 0.40923,-0.051 0.724469,-0.29711 0.968751,-0.53125 0.244281,-0.23414 0.429091,-0.49909 0.625,-0.71875 0.195909,-0.21966 0.407507,-0.36794 0.59375,-0.46875 0.186243,-0.10081 0.342598,-0.14523 0.625,-0.0937 -0.04103,-0.007 -0.07224,-0.10542 -0.03125,0.0312 0.04099,0.13667 0.07004,0.43236 0.0625,0.78125 -0.01509,0.69778 -0.120181,1.6886 -0.25,2.71875 -0.129819,1.03015 -0.267117,2.08412 -0.25,3.03125 0.01712,0.94713 0.11892,1.84115 0.75,2.375 l 0.03125,0 c 0.558236,0.45355 1.287842,0.43917 1.84375,0.15625 0.564197,-0.28713 1.059787,-0.75637 1.5,-1.28125 0.440213,-0.52488 0.834995,-1.10864 1.15625,-1.5625 0.160628,-0.22693 0.293421,-0.42005 0.40625,-0.5625 0.112829,-0.14245 0.236976,-0.24847 0.1875,-0.21875 0.398924,-0.2396 0.478063,-0.6585 0.5,-1.03125 0.02194,-0.37275 -0.03571,-0.77889 -0.09375,-1.21875 -0.116081,-0.87973 -0.3125,-1.87028 -0.3125,-2.5625 0,-0.37189 0.258001,-1.69622 0.59375,-3.21875 0.316362,-1.43461 0.700518,-3.09281 1,-4.59375 l 22.749999,-7.0625 z"
   id="path25-1"
   inkscape:connector-curvature="0" /></svg>