<?xml version="1.0" encoding="UTF-8" ?>
<!DOCTYPE svg PUBLIC "-//W3C//DTD SVG 1.1//EN" "http://www.w3.org/Graphics/SVG/1.1/DTD/svg11.dtd">
<svg width="1000pt" height="818pt" viewBox="0 0 1000 818" version="1.1" xmlns="http://www.w3.org/2000/svg">
<g id="#ffffffff">
<path fill="#ffffff" opacity="1.00" d=" M 480.40 260.17 C 481.12 259.61 483.87 259.82 482.61 261.19 C 481.50 261.91 480.29 262.22 478.99 262.10 C 477.20 261.55 479.58 260.16 480.40 260.17 Z" />
<path fill="#ffffff" opacity="1.00" d=" M 468.23 267.01 C 469.29 266.98 470.35 266.96 471.41 266.93 C 470.89 269.27 470.60 271.65 470.56 274.05 C 468.49 273.34 466.42 272.59 464.66 271.28 C 465.85 269.86 467.04 268.44 468.23 267.01 Z" />
<path fill="#ffffff" opacity="1.00" d=" M 398.16 417.91 L 398.96 418.11 C 403.45 419.11 407.85 420.43 412.33 421.50 C 407.23 423.68 401.95 426.43 396.22 425.33 C 395.83 424.15 395.45 422.97 395.06 421.80 C 396.10 420.51 397.13 419.21 398.16 417.91 Z" />
<path fill="#ffffff" opacity="1.00" d=" M 186.25 424.32 C 185.58 422.39 183.95 419.48 186.87 418.56 C 186.72 420.48 186.50 422.40 186.25 424.32 Z" />
<path fill="#ffffff" opacity="1.00" d=" M 324.40 423.30 C 327.18 422.51 329.91 421.37 332.82 421.11 C 336.80 422.88 341.42 422.79 344.83 425.79 C 347.94 423.03 351.76 421.05 356.05 421.43 C 358.60 420.77 359.90 423.26 361.33 424.84 C 365.35 423.72 369.50 423.19 373.67 423.09 C 373.78 423.82 374.01 425.28 374.13 426.01 C 369.82 428.24 364.29 431.19 365.00 436.91 C 369.04 442.79 376.90 445.08 383.77 444.82 C 385.42 444.01 386.93 442.94 388.49 441.97 C 388.52 439.04 388.47 436.11 388.28 433.19 C 390.82 432.33 393.28 431.19 395.91 430.64 C 398.93 431.84 402.40 432.78 404.44 435.51 C 409.37 441.10 414.19 447.83 421.99 449.35 C 428.84 450.10 435.18 446.42 440.47 442.46 C 442.04 441.54 442.58 439.79 442.96 438.13 C 443.89 435.48 441.58 433.19 440.83 430.79 C 459.12 436.34 477.63 442.49 496.95 442.73 C 515.06 443.13 532.67 438.11 549.81 432.85 C 550.81 439.94 550.62 447.47 554.13 453.94 C 558.45 461.09 564.60 466.86 569.91 473.26 C 548.67 480.00 527.45 488.07 505.01 489.54 C 488.27 490.65 471.70 487.02 455.75 482.29 C 436.19 476.52 417.15 468.96 397.18 464.66 C 385.70 462.14 373.85 460.93 362.11 462.06 C 344.12 463.71 326.83 469.39 309.76 475.00 C 308.08 470.56 307.09 465.89 305.51 461.43 C 303.90 457.58 299.67 456.26 296.07 454.97 C 288.07 452.32 282.54 444.07 273.53 444.24 C 273.46 443.34 273.39 442.44 273.33 441.55 C 274.99 440.30 276.52 438.88 278.05 437.48 C 280.15 438.01 282.47 438.19 284.29 439.48 C 284.76 440.85 285.07 442.27 285.44 443.68 C 289.76 446.19 295.13 445.69 299.24 448.69 C 303.18 450.37 305.74 453.90 309.11 456.36 C 311.24 456.69 313.41 456.44 315.55 456.32 C 308.40 446.15 296.59 441.03 285.78 435.71 C 298.71 431.76 311.50 427.35 324.40 423.30 Z" />
<path fill="#ffffff" opacity="1.00" d=" M 397.15 428.29 C 404.55 428.64 410.78 423.99 417.97 423.19 C 424.46 422.00 431.00 424.89 435.40 429.60 C 438.02 432.19 442.11 435.52 439.81 439.62 C 435.02 443.79 428.88 447.43 422.31 446.81 C 415.06 445.39 410.81 438.88 406.24 433.73 C 404.03 430.77 400.23 429.99 397.15 428.29 Z" />
<path fill="#ffffff" opacity="1.00" d=" M 163.12 423.27 C 190.32 431.25 217.17 443.22 246.05 442.73 C 240.48 444.29 234.28 443.97 229.27 447.18 C 224.14 450.13 218.88 452.84 213.70 455.68 C 210.47 457.67 206.58 456.85 203.00 457.03 C 199.74 456.80 196.08 457.75 193.23 455.73 C 185.43 451.25 177.83 445.72 172.99 438.00 C 169.67 433.11 165.68 428.65 163.12 423.27 Z" />
<path fill="#ffffff" opacity="1.00" d=" M 286.66 439.28 C 290.70 440.66 294.49 442.67 298.25 444.68 C 294.33 443.09 287.93 444.48 286.66 439.28 Z" />
<path fill="#ffffff" opacity="1.00" d=" M 327.46 516.04 C 344.80 510.97 362.86 506.98 381.02 508.83 C 417.98 512.56 451.22 531.97 488.12 535.93 C 507.65 538.15 527.11 533.55 545.66 527.83 C 567.94 520.98 589.83 512.24 613.07 509.11 C 615.31 510.78 616.63 513.56 619.36 514.59 C 622.34 515.84 624.53 518.29 627.20 520.03 C 633.36 521.86 640.16 520.99 646.03 523.94 C 651.60 525.88 654.89 531.16 659.82 534.13 C 667.86 539.50 678.46 536.30 686.77 541.07 C 692.51 543.30 695.71 548.86 700.55 552.36 C 703.28 554.62 707.01 554.65 710.26 555.73 C 716.95 557.83 723.98 558.49 730.71 560.41 C 732.42 560.73 733.38 562.30 734.47 563.51 C 737.54 567.05 740.43 570.90 744.46 573.44 C 747.76 575.50 751.04 577.63 754.50 579.45 C 757.83 581.19 761.59 581.79 765.12 583.02 C 756.17 583.50 747.15 583.76 738.26 582.37 C 712.84 578.66 689.10 568.35 664.48 561.51 C 648.12 556.86 630.96 553.94 613.94 556.07 C 577.54 560.47 544.61 579.44 508.05 583.04 C 485.48 585.22 463.38 578.65 442.17 571.76 C 418.35 564.03 394.23 554.99 368.82 555.28 C 363.23 552.64 357.53 550.11 352.34 546.74 C 347.34 542.41 341.80 538.43 338.16 532.81 C 334.47 527.30 329.93 522.26 327.46 516.04 Z" />
<path fill="#ffffff" opacity="1.00" d=" M 573.88 612.25 C 590.21 607.50 606.77 602.32 623.95 602.22 C 643.70 601.65 662.86 607.48 681.47 613.44 C 703.21 620.43 724.97 628.69 747.98 630.07 C 764.81 631.06 781.45 627.21 797.47 622.44 C 814.62 617.24 831.46 611.04 848.79 606.45 C 855.27 607.21 860.40 612.03 866.17 614.75 C 871.47 616.85 873.32 622.81 875.61 627.52 C 878.90 634.35 879.84 641.93 882.39 649.02 C 854.45 648.94 828.28 659.89 802.02 668.03 C 781.94 674.36 760.73 679.35 739.58 676.27 C 708.08 671.87 679.14 657.54 648.10 651.14 C 642.76 648.30 638.94 643.47 634.64 639.36 C 631.07 635.93 627.79 632.20 624.05 628.96 C 613.19 621.07 599.84 618.17 587.36 613.85 C 583.01 612.43 578.38 612.60 573.88 612.25 Z" />
</g>
<g id="#e41429ff">
<path fill="#e41429" opacity="1.00" d=" M 334.49 91.58 C 339.32 91.29 342.98 86.71 347.92 87.59 C 352.71 88.24 357.57 88.73 362.25 89.97 C 367.02 92.31 371.57 95.55 377.04 95.99 C 385.96 96.73 394.66 99.07 403.17 101.76 C 407.90 104.05 411.75 108.00 414.51 112.45 C 418.67 118.98 423.37 125.19 426.90 132.11 C 428.13 134.54 428.15 137.71 430.55 139.42 C 442.09 149.21 455.43 156.66 469.15 162.94 C 475.11 166.45 479.76 171.78 485.59 175.48 C 489.83 177.71 494.41 179.20 498.58 181.56 C 503.70 184.46 509.65 185.07 515.22 186.67 C 519.78 187.84 523.82 190.37 528.22 191.99 C 532.94 193.55 537.98 192.71 542.85 193.18 C 562.59 195.10 582.27 197.56 601.97 199.84 C 606.08 200.79 611.09 200.40 614.15 203.81 C 624.04 213.54 631.16 225.73 637.01 238.21 C 638.33 246.20 638.31 254.65 635.22 262.29 C 631.19 269.87 624.91 275.96 617.88 280.76 C 610.49 284.64 602.75 287.99 596.01 292.99 C 589.63 297.89 583.58 303.22 577.83 308.84 C 574.46 312.92 571.87 317.59 569.05 322.06 C 565.51 327.70 566.56 334.75 563.79 340.67 C 562.06 343.92 559.74 346.84 558.30 350.25 C 556.08 354.44 556.77 359.31 555.94 363.83 C 555.45 367.87 553.16 371.77 554.23 375.92 C 556.56 384.53 561.43 392.25 563.40 400.98 C 563.66 403.78 563.86 406.81 562.36 409.32 C 559.71 414.32 557.02 419.30 554.34 424.27 C 552.74 427.21 552.33 430.65 552.58 433.95 C 553.13 440.08 553.38 446.42 556.02 452.09 C 558.88 457.60 563.47 461.89 567.39 466.62 C 569.82 469.52 572.48 472.20 575.16 474.88 C 578.32 477.87 579.15 482.65 582.75 485.26 C 586.38 488.01 590.06 490.99 594.51 492.28 C 598.37 492.53 602.59 492.63 605.65 495.37 C 609.03 497.88 609.66 502.47 612.80 505.18 C 615.65 507.64 617.70 511.08 621.19 512.74 C 623.82 514.02 625.91 516.13 628.37 517.70 C 634.59 519.35 641.41 518.59 647.23 521.76 C 653.66 524.11 657.35 530.55 663.56 533.31 C 668.79 535.51 674.60 534.95 680.07 536.12 C 683.64 536.65 686.87 538.33 690.03 539.97 C 695.73 542.64 698.52 549.20 704.40 551.57 C 710.24 553.04 716.01 554.81 721.95 555.84 C 725.74 556.66 729.70 557.07 733.25 558.71 C 737.76 562.53 740.58 568.13 745.71 571.28 C 750.62 574.22 755.33 577.89 761.03 579.15 C 766.35 580.24 771.34 582.60 776.79 583.12 C 782.10 583.75 786.52 587.12 791.63 588.28 C 801.60 588.66 811.50 590.07 821.36 591.52 C 827.52 592.48 832.37 596.65 837.98 599.00 C 844.03 601.92 850.57 603.59 856.63 606.48 C 860.70 608.27 864.10 611.24 868.23 612.93 C 871.62 614.32 873.44 617.70 875.13 620.74 C 878.11 626.53 880.70 632.59 882.12 638.97 C 883.47 645.32 886.40 651.25 887.06 657.76 C 888.88 667.40 890.82 677.21 889.66 687.06 C 888.70 698.79 891.61 711.65 885.35 722.34 C 881.82 728.29 875.70 733.05 868.68 733.81 C 859.22 735.36 849.60 735.13 840.05 735.62 C 835.47 737.01 831.07 738.98 826.45 740.24 C 820.65 741.16 814.77 741.05 808.92 741.01 C 805.16 741.15 801.78 739.08 798.05 739.05 C 788.62 738.68 779.33 736.85 770.07 735.15 C 764.43 733.97 758.68 732.92 753.44 730.43 C 747.40 727.97 743.14 722.85 738.64 718.36 C 735.27 714.66 733.24 709.90 729.38 706.61 C 723.13 700.76 716.85 694.51 708.73 691.32 C 701.94 687.93 694.34 686.28 688.06 681.90 C 683.90 679.04 679.45 676.62 675.48 673.51 C 672.48 670.17 670.10 666.27 666.65 663.33 C 664.24 660.75 660.42 660.97 657.47 659.43 C 651.50 656.29 645.48 653.08 640.39 648.62 C 634.42 642.90 628.82 636.81 622.78 631.19 C 612.68 623.59 600.06 620.91 588.34 616.84 C 585.03 615.61 581.50 615.12 577.99 615.04 C 568.19 615.41 560.44 608.26 551.31 605.92 C 545.24 604.74 541.26 599.45 535.53 597.54 C 526.39 594.10 516.94 590.31 506.98 591.20 C 500.64 591.92 494.23 591.03 487.90 591.89 C 482.65 592.50 477.39 593.90 472.08 593.34 C 465.74 591.69 459.84 588.73 453.89 586.05 C 443.46 580.92 431.51 580.92 420.53 577.57 C 414.64 576.33 409.33 573.16 403.26 572.64 C 395.68 569.32 387.74 566.95 380.00 564.03 C 371.68 560.07 363.72 555.42 355.39 551.46 C 350.11 549.11 346.30 544.65 341.93 541.04 C 338.42 538.15 336.18 534.15 333.51 530.56 C 325.47 519.70 319.04 507.71 313.86 495.25 C 310.33 484.70 306.61 474.20 303.55 463.50 C 302.74 459.71 298.63 458.62 295.49 457.43 C 289.64 455.55 285.18 451.09 279.85 448.21 C 277.24 447.07 274.31 447.01 271.56 446.38 C 271.16 444.32 270.82 442.24 270.55 440.17 C 273.13 438.67 275.00 436.37 276.59 433.89 C 271.82 434.32 270.59 439.19 268.56 442.66 C 260.90 446.53 252.02 443.86 243.94 445.81 C 239.87 446.73 235.54 446.82 231.73 448.66 C 225.16 452.22 218.70 456.05 211.91 459.20 C 206.34 459.81 200.63 459.56 195.03 459.34 C 185.35 454.61 176.06 447.94 170.37 438.60 C 163.38 428.85 155.57 418.99 152.95 407.03 C 153.88 404.06 155.51 400.95 158.45 399.56 C 164.38 396.73 169.30 392.32 174.81 388.81 C 181.05 384.87 185.90 379.24 191.16 374.15 C 195.04 370.57 196.97 365.43 200.86 361.86 C 204.31 358.80 204.76 353.91 207.31 350.25 C 209.01 347.75 210.39 344.79 213.07 343.18 C 224.17 336.57 235.82 330.86 246.41 323.42 C 250.72 320.86 254.15 317.14 258.19 314.21 C 263.02 310.58 269.81 310.58 274.13 306.14 C 276.57 303.28 280.73 303.04 283.12 300.14 C 284.79 298.65 286.87 295.75 289.32 297.63 C 293.84 301.64 291.91 308.48 290.97 313.67 C 287.77 315.15 284.46 316.38 281.02 317.12 C 274.28 318.59 267.63 321.88 263.47 327.53 C 261.78 329.92 258.55 329.85 256.23 331.29 C 252.23 333.86 249.43 337.83 245.64 340.65 C 242.00 343.38 238.03 345.64 234.35 348.30 C 228.63 352.30 225.88 359.15 220.24 363.25 C 217.51 365.87 212.86 366.52 211.58 370.47 C 207.63 378.87 203.28 387.13 200.60 396.06 C 200.10 400.08 200.72 404.11 201.42 408.07 C 201.97 411.28 199.60 413.96 198.26 416.69 C 200.43 417.76 202.93 418.62 204.27 420.78 C 206.08 423.26 205.84 426.50 206.68 429.34 C 206.95 427.57 206.70 425.78 206.76 424.02 C 208.22 422.64 209.72 421.31 211.14 419.89 C 208.78 418.08 205.29 417.43 203.67 414.89 C 202.35 407.11 210.03 399.04 217.82 399.40 C 226.56 398.86 235.21 397.06 244.01 397.48 C 252.13 397.07 260.06 399.18 267.96 400.74 C 269.92 400.42 271.61 399.20 273.45 398.48 C 274.00 396.70 273.68 394.46 274.97 393.03 C 278.08 391.22 281.28 388.89 285.04 389.02 C 287.47 389.38 289.71 390.51 292.14 390.87 C 294.02 391.07 295.99 390.29 297.80 390.97 C 301.03 392.64 303.94 394.93 306.23 397.76 C 310.32 402.65 314.70 407.29 318.87 412.11 C 322.24 416.66 329.13 413.15 333.04 416.89 C 334.59 418.08 335.93 419.93 338.09 419.90 C 340.54 419.90 342.60 421.17 344.46 422.64 C 348.77 419.26 354.43 418.29 359.75 419.20 C 360.87 419.89 361.67 421.08 362.92 421.59 C 366.58 421.41 370.23 420.20 373.91 420.66 C 376.76 421.82 377.89 427.28 374.54 428.59 C 371.58 430.41 366.68 432.42 367.93 436.75 C 372.50 441.04 380.02 444.01 385.95 440.90 C 386.23 438.05 385.21 435.02 386.06 432.29 C 388.40 429.83 392.06 429.38 395.05 427.99 C 394.07 426.01 393.08 424.03 392.41 421.93 C 393.23 419.79 394.69 417.93 396.36 416.39 C 398.36 414.88 400.94 414.41 403.01 413.00 C 407.19 410.41 408.86 405.54 411.98 401.97 C 414.23 398.71 418.57 398.53 422.00 397.34 C 427.62 401.57 433.98 404.98 438.58 410.42 C 440.27 412.39 441.99 414.33 443.77 416.23 C 443.63 412.55 442.75 408.26 445.11 405.08 C 446.98 404.02 449.23 402.54 451.44 403.41 C 463.63 407.51 477.51 406.74 489.00 400.89 C 483.15 399.42 477.84 404.51 471.99 402.92 C 469.88 402.47 466.99 402.21 466.28 399.74 C 464.83 395.58 461.78 392.27 458.48 389.47 C 453.80 385.50 449.77 380.85 445.76 376.23 C 442.07 366.41 444.82 355.11 450.75 346.72 C 453.38 345.10 456.35 344.08 459.31 343.24 C 465.17 343.36 471.07 343.83 476.93 343.35 C 481.11 341.59 483.20 337.20 483.72 332.93 C 484.42 330.59 482.37 328.56 480.70 327.24 C 477.19 323.74 473.43 331.10 469.54 328.50 C 465.28 326.24 463.58 321.55 461.38 317.58 C 459.36 313.39 461.05 308.33 464.18 305.17 C 465.41 303.71 467.05 302.50 467.82 300.70 C 468.53 297.31 468.66 293.81 469.57 290.45 C 470.15 288.78 469.78 287.05 469.28 285.42 C 466.59 285.44 463.91 285.99 461.23 285.81 C 458.74 284.40 455.13 283.26 454.88 279.94 C 453.70 275.36 456.20 270.94 456.45 266.39 C 457.31 263.46 454.66 260.94 455.06 258.02 C 455.20 256.70 455.52 255.41 455.81 254.11 C 453.29 252.82 451.12 250.97 449.73 248.48 C 447.08 249.78 444.40 249.03 441.94 247.70 C 441.69 245.86 441.53 244.02 441.39 242.18 C 436.88 241.79 432.65 239.71 430.30 235.71 C 429.80 232.14 431.17 228.75 432.74 225.63 C 434.23 221.68 431.64 218.30 430.16 214.89 C 429.89 210.47 429.12 205.49 432.19 201.81 C 428.97 196.99 422.60 200.20 418.13 197.83 C 415.41 193.90 414.07 189.26 412.16 184.92 C 411.70 183.39 410.10 182.86 408.97 181.94 C 406.66 180.31 405.06 177.94 403.36 175.74 C 400.82 175.60 398.28 175.23 396.07 173.92 C 392.12 171.55 387.34 174.69 383.27 173.03 C 374.93 167.77 367.25 161.55 359.61 155.35 C 358.06 154.13 356.51 152.88 354.69 152.11 C 350.40 151.60 346.28 153.67 342.02 153.66 C 339.62 152.78 337.15 152.08 334.74 151.24 C 332.98 149.74 331.24 147.97 330.34 145.83 C 330.35 141.73 328.96 137.70 329.96 133.62 C 333.35 133.71 336.81 134.44 339.65 136.38 C 341.18 137.79 343.28 137.02 345.13 137.02 C 344.88 135.34 345.53 133.19 344.25 131.85 C 341.18 130.79 337.51 129.66 334.44 131.26 C 329.92 133.53 324.56 134.16 320.72 137.69 C 317.79 140.68 313.46 141.68 309.39 141.34 C 305.62 143.72 301.04 146.08 300.48 151.05 C 300.92 156.68 304.48 161.38 306.15 166.66 C 307.65 171.42 309.32 176.12 311.28 180.71 C 313.01 184.23 310.62 188.18 312.04 191.75 C 313.62 195.36 312.85 200.20 316.93 202.26 C 318.28 201.31 319.56 200.21 321.09 199.55 C 323.14 199.21 325.62 201.52 324.55 203.58 C 322.89 208.19 324.79 213.13 327.28 217.07 C 325.71 218.99 323.90 221.76 320.99 220.89 C 318.52 220.97 316.69 219.50 315.56 217.43 C 314.12 214.39 310.30 215.41 307.74 214.16 C 305.81 211.57 305.50 208.23 305.45 205.12 C 305.44 201.85 304.12 198.81 303.20 195.74 C 302.07 192.09 302.12 188.11 300.33 184.67 C 293.87 170.95 290.45 155.77 282.00 143.02 C 278.96 137.54 275.82 132.00 274.08 125.96 C 273.95 120.32 274.64 114.69 274.65 109.05 C 277.62 102.97 282.34 97.60 288.13 94.04 C 303.05 88.77 319.08 91.93 334.49 91.58 M 340.20 125.39 C 339.85 126.11 339.51 126.83 339.17 127.55 C 341.50 128.22 343.92 128.72 346.03 129.96 C 347.98 132.46 347.73 136.54 351.05 137.88 C 368.48 147.48 388.16 151.85 407.62 155.13 C 423.97 157.75 440.46 161.18 455.40 168.58 C 458.66 170.25 462.30 171.73 464.36 174.94 C 459.59 173.81 455.72 170.66 451.24 168.85 C 446.30 166.69 440.76 165.92 435.44 166.80 C 431.95 167.44 428.96 169.43 425.80 170.90 C 422.75 172.33 419.31 172.29 416.02 172.33 C 411.40 172.28 406.76 172.59 402.16 172.03 C 404.01 173.06 405.68 174.38 407.04 176.01 C 409.79 179.37 413.78 181.61 415.77 185.59 C 421.36 186.11 427.14 184.96 432.61 186.33 C 436.60 189.29 439.52 193.49 443.68 196.27 C 458.26 206.70 476.63 212.26 494.55 210.20 C 505.35 208.52 515.72 204.83 525.76 200.61 C 529.03 199.26 532.31 197.52 535.95 197.55 C 543.36 197.39 550.78 197.87 558.19 197.53 C 549.64 196.29 540.99 195.80 532.37 195.54 C 527.63 195.28 523.52 192.68 519.28 190.82 C 515.54 189.06 511.42 188.43 507.44 187.50 C 500.42 186.00 494.46 181.77 487.79 179.33 C 480.12 176.64 475.46 169.40 468.44 165.64 C 455.68 159.04 442.50 152.81 431.46 143.47 C 429.14 141.78 426.99 139.47 424.00 139.11 C 395.89 135.96 367.47 133.31 340.20 125.39 M 460.55 270.46 C 462.95 269.04 464.78 266.89 467.00 265.24 C 469.90 264.20 473.80 263.54 474.64 260.02 C 472.60 254.85 471.12 249.44 471.68 243.81 C 464.26 250.64 461.39 260.72 460.55 270.46 M 514.37 259.80 C 518.63 263.12 523.04 267.40 528.88 266.93 C 528.22 262.31 526.92 257.67 527.64 252.98 C 528.23 249.81 529.71 246.91 530.87 243.93 C 523.70 247.14 518.27 253.10 514.37 259.80 M 493.87 247.86 C 495.23 249.92 496.12 252.21 496.25 254.70 C 498.09 255.72 500.64 256.24 501.46 258.44 C 504.59 264.52 502.27 271.51 502.50 278.00 C 502.28 281.17 503.20 284.67 501.50 287.56 C 499.16 291.71 496.19 295.73 491.75 297.78 C 490.19 300.20 490.15 303.21 489.66 305.97 C 492.04 308.76 494.72 311.27 497.44 313.73 C 503.00 316.06 507.52 310.03 512.99 311.94 C 515.61 312.77 518.28 312.02 520.88 311.51 C 522.02 312.47 523.13 313.46 524.25 314.46 C 526.48 313.97 528.68 313.32 530.96 313.07 C 532.59 313.52 534.09 314.34 535.67 314.99 C 537.75 309.59 542.97 305.28 542.04 299.00 C 542.45 292.95 536.52 289.72 534.16 284.84 C 533.30 280.99 535.39 276.93 533.79 273.20 C 532.94 271.52 533.63 269.69 533.89 267.96 C 530.88 269.50 527.38 270.06 524.08 269.23 C 519.22 266.93 514.85 263.69 510.69 260.31 C 505.51 256.06 502.41 249.73 496.76 246.00 C 495.50 245.93 494.83 247.28 493.87 247.86 M 543.73 251.73 C 539.45 255.23 538.06 260.79 537.30 266.01 C 544.14 267.04 551.06 267.05 557.96 267.15 C 559.41 266.58 560.74 265.74 562.12 264.98 C 558.44 261.03 557.77 255.10 553.43 251.61 C 550.97 248.58 546.55 249.98 543.73 251.73 M 496.08 256.96 C 493.92 264.62 492.88 272.53 490.89 280.23 C 486.47 276.19 483.11 271.20 479.33 266.60 C 478.32 264.91 476.14 265.41 474.50 265.07 C 472.28 270.17 474.83 275.78 472.67 280.81 C 471.58 279.40 470.73 277.82 469.49 276.55 C 466.98 275.20 464.36 274.09 461.96 272.57 C 461.57 272.72 460.81 273.01 460.43 273.16 C 460.35 275.73 460.18 278.31 460.38 280.88 C 460.31 281.91 461.03 283.08 462.14 283.12 C 464.76 283.28 467.38 283.01 470.00 282.92 C 472.71 285.45 472.78 289.11 471.76 292.45 C 470.63 296.62 471.53 301.80 467.88 304.87 C 465.01 307.58 461.94 311.50 463.41 315.69 C 465.18 319.79 467.31 323.96 470.97 326.71 C 473.91 325.73 476.64 323.16 479.89 323.73 C 483.75 325.24 487.26 329.59 486.12 333.91 C 485.36 338.83 482.53 343.73 477.80 345.75 C 469.47 347.19 460.16 343.60 452.62 348.58 C 447.22 356.04 444.85 366.25 448.06 375.06 C 452.31 380.40 457.30 385.09 462.35 389.66 C 465.44 392.46 467.60 396.06 469.30 399.84 C 474.68 401.66 479.93 399.35 485.13 398.12 C 487.53 397.36 489.56 398.98 491.48 400.17 C 490.75 401.45 490.38 403.19 488.82 403.74 C 478.88 408.67 467.17 409.51 456.39 407.39 C 453.19 406.83 449.21 404.43 446.50 407.37 C 444.16 412.35 449.08 416.44 448.31 421.35 C 440.75 418.95 437.27 411.22 431.10 406.89 C 428.01 404.69 425.06 402.28 421.77 400.41 C 417.08 400.11 413.36 403.30 411.39 407.31 C 408.76 412.36 404.27 416.12 398.96 418.11 L 398.16 417.91 C 397.13 419.21 396.10 420.51 395.06 421.80 C 395.45 422.97 395.83 424.15 396.22 425.33 C 401.95 426.43 407.23 423.68 412.33 421.50 C 416.91 421.06 421.54 419.51 426.11 421.04 C 432.25 422.13 435.95 427.61 440.83 430.79 C 441.58 433.19 443.89 435.48 442.96 438.13 C 442.58 439.79 442.04 441.54 440.47 442.46 C 435.18 446.42 428.84 450.10 421.99 449.35 C 414.19 447.83 409.37 441.10 404.44 435.51 C 402.40 432.78 398.93 431.84 395.91 430.64 C 393.28 431.19 390.82 432.33 388.28 433.19 C 388.47 436.11 388.52 439.04 388.49 441.97 C 386.93 442.94 385.42 444.01 383.77 444.82 C 376.90 445.08 369.04 442.79 365.00 436.91 C 364.29 431.19 369.82 428.24 374.13 426.01 C 374.01 425.28 373.78 423.82 373.67 423.09 C 369.50 423.19 365.35 423.72 361.33 424.84 C 359.90 423.26 358.60 420.77 356.05 421.43 C 351.76 421.05 347.94 423.03 344.83 425.79 C 341.42 422.79 336.80 422.88 332.82 421.11 C 329.91 421.37 327.18 422.51 324.40 423.30 C 311.50 427.35 298.71 431.76 285.78 435.71 C 296.59 441.03 308.40 446.15 315.55 456.32 C 313.41 456.44 311.24 456.69 309.11 456.36 C 305.74 453.90 303.18 450.37 299.24 448.69 C 295.13 445.69 289.76 446.19 285.44 443.68 C 285.07 442.27 284.76 440.85 284.29 439.48 C 282.47 438.19 280.15 438.01 278.05 437.48 C 276.52 438.88 274.99 440.30 273.33 441.55 C 273.39 442.44 273.46 443.34 273.53 444.24 C 282.54 444.07 288.07 452.32 296.07 454.97 C 299.67 456.26 303.90 457.58 305.51 461.43 C 307.09 465.89 308.08 470.56 309.76 475.00 C 311.25 479.56 312.78 484.10 314.29 488.66 C 317.26 498.34 322.02 507.35 326.90 516.19 L 327.46 516.04 C 329.93 522.26 334.47 527.30 338.16 532.81 C 341.80 538.43 347.34 542.41 352.34 546.74 C 357.53 550.11 363.23 552.64 368.82 555.28 C 377.56 561.16 387.75 564.02 397.52 567.60 C 402.70 570.48 408.77 570.52 414.12 572.94 C 427.86 578.35 443.37 577.63 456.59 584.55 C 461.98 586.98 467.36 589.66 473.17 590.90 C 479.49 591.15 485.65 589.15 491.97 589.03 C 497.33 588.95 502.70 589.13 508.04 588.60 C 518.12 587.99 527.60 591.84 536.83 595.35 C 542.21 597.28 546.08 602.10 551.76 603.40 C 559.46 605.52 566.06 610.50 573.88 612.25 C 578.38 612.60 583.01 612.43 587.36 613.85 C 599.84 618.17 613.19 621.07 624.05 628.96 C 627.79 632.20 631.07 635.93 634.64 639.36 C 638.94 643.47 642.76 648.30 648.10 651.14 C 652.69 654.09 657.37 657.18 662.74 658.50 C 669.44 660.30 672.81 667.00 677.32 671.67 C 680.83 674.61 684.93 676.76 688.71 679.35 C 695.34 684.06 703.46 685.77 710.62 689.45 C 718.25 692.53 724.13 698.44 730.13 703.85 C 735.97 708.83 738.84 716.31 744.84 721.17 C 753.68 731.02 767.68 731.88 779.83 734.34 C 788.81 736.37 798.17 735.69 807.02 738.30 C 815.25 738.70 823.90 739.09 831.68 735.88 C 834.46 734.98 837.11 733.59 840.02 733.13 C 850.55 732.49 861.25 733.01 871.60 730.62 C 878.71 728.37 884.04 721.93 885.82 714.79 C 887.96 704.63 886.34 694.20 887.38 683.94 C 887.68 677.44 887.04 670.90 885.67 664.55 C 884.58 659.37 884.22 654.02 882.39 649.02 C 879.84 641.93 878.90 634.35 875.61 627.52 C 873.32 622.81 871.47 616.85 866.17 614.75 C 860.40 612.03 855.27 607.21 848.79 606.45 C 842.92 603.42 836.48 601.61 830.85 598.12 C 827.13 595.76 822.96 594.16 818.59 593.63 C 810.07 592.63 801.59 591.11 793.00 590.94 C 787.76 590.92 783.64 587.13 778.62 586.16 C 774.07 585.29 769.57 584.24 765.12 583.02 C 761.59 581.79 757.83 581.19 754.50 579.45 C 751.04 577.63 747.76 575.50 744.46 573.44 C 740.43 570.90 737.54 567.05 734.47 563.51 C 733.38 562.30 732.42 560.73 730.71 560.41 C 723.98 558.49 716.95 557.83 710.26 555.73 C 707.01 554.65 703.28 554.62 700.55 552.36 C 695.71 548.86 692.51 543.30 686.77 541.07 C 678.46 536.30 667.86 539.50 659.82 534.13 C 654.89 531.16 651.60 525.88 646.03 523.94 C 640.16 520.99 633.36 521.86 627.20 520.03 C 624.53 518.29 622.34 515.84 619.36 514.59 C 616.63 513.56 615.31 510.78 613.07 509.11 C 610.33 506.65 608.18 503.69 606.57 500.39 C 604.79 496.83 600.86 494.96 596.98 495.01 C 590.68 494.99 585.73 490.58 580.96 487.02 C 578.14 485.03 576.98 481.68 575.14 478.92 C 573.74 476.74 571.76 475.03 569.91 473.26 C 564.60 466.86 558.45 461.09 554.13 453.94 C 550.62 447.47 550.81 439.94 549.81 432.85 C 549.99 422.70 557.80 415.15 560.93 405.97 C 561.55 394.45 552.74 385.09 551.38 373.91 C 551.04 371.11 552.35 368.52 552.90 365.85 C 554.38 360.36 553.41 354.37 556.00 349.17 C 557.72 344.73 561.49 341.32 562.52 336.59 C 563.72 331.81 563.79 326.71 566.14 322.27 C 568.64 316.69 572.85 312.08 575.49 306.59 C 576.16 296.50 574.95 286.07 578.11 276.27 C 579.54 271.88 582.83 268.52 585.90 265.21 C 582.02 266.11 578.04 266.74 574.37 268.37 C 564.75 272.45 558.28 280.95 551.27 288.29 C 551.50 282.07 552.90 275.95 552.86 269.71 C 550.92 269.68 548.97 269.56 547.05 269.79 C 544.73 270.35 543.96 272.93 542.69 274.66 C 540.87 278.02 538.25 281.05 537.26 284.79 C 539.15 288.14 542.29 290.68 543.84 294.24 C 545.15 299.33 544.94 305.22 541.59 309.52 C 539.58 312.16 538.77 315.89 535.81 317.67 C 533.84 317.38 532.17 316.05 530.20 315.85 C 528.13 316.06 526.13 316.71 524.13 317.22 C 522.46 316.27 520.93 314.65 518.88 314.72 C 515.09 314.82 511.31 314.48 507.53 314.31 C 506.69 315.42 505.85 316.54 505.02 317.66 C 502.84 317.13 500.63 316.67 498.40 316.41 C 500.05 322.31 500.82 328.36 501.52 334.43 C 500.64 334.36 498.89 334.22 498.01 334.16 C 496.80 328.02 498.76 321.23 495.36 315.64 C 493.24 311.97 488.38 310.25 487.18 306.06 C 487.40 302.03 487.44 296.50 491.76 294.65 C 495.55 292.61 498.44 288.89 499.80 284.86 C 500.06 278.23 500.32 271.57 500.40 264.93 C 500.68 261.60 498.55 258.89 496.08 256.96 M 480.40 260.17 C 479.58 260.16 477.20 261.55 478.99 262.10 C 480.29 262.22 481.50 261.91 482.61 261.19 C 483.87 259.82 481.12 259.61 480.40 260.17 M 468.23 267.01 C 467.04 268.44 465.85 269.86 464.66 271.28 C 466.42 272.59 468.49 273.34 470.56 274.05 C 470.60 271.65 470.89 269.27 471.41 266.93 C 470.35 266.96 469.29 266.98 468.23 267.01 M 186.25 424.32 C 186.50 422.40 186.72 420.48 186.87 418.56 C 183.95 419.48 185.58 422.39 186.25 424.32 M 397.15 428.29 C 400.23 429.99 404.03 430.77 406.24 433.73 C 410.81 438.88 415.06 445.39 422.31 446.81 C 428.88 447.43 435.02 443.79 439.81 439.62 C 442.11 435.52 438.02 432.19 435.40 429.60 C 431.00 424.89 424.46 422.00 417.97 423.19 C 410.78 423.99 404.55 428.64 397.15 428.29 M 163.12 423.27 C 165.68 428.65 169.67 433.11 172.99 438.00 C 177.83 445.72 185.43 451.25 193.23 455.73 C 196.08 457.75 199.74 456.80 203.00 457.03 C 206.58 456.85 210.47 457.67 213.70 455.68 C 218.88 452.84 224.14 450.13 229.27 447.18 C 234.28 443.97 240.48 444.29 246.05 442.73 C 217.17 443.22 190.32 431.25 163.12 423.27 M 286.66 439.28 C 287.93 444.48 294.33 443.09 298.25 444.68 C 294.49 442.67 290.70 440.66 286.66 439.28 Z" />
<path fill="#e41429" opacity="1.00" d=" M 352.95 176.95 C 358.88 175.18 364.16 179.26 368.66 182.54 C 370.34 184.85 369.95 189.33 366.83 190.40 C 364.76 191.07 362.85 189.83 361.13 188.85 C 358.54 187.33 355.62 186.40 353.24 184.55 C 351.82 182.25 352.74 179.44 352.95 176.95 Z" />
<path fill="#e41429" opacity="1.00" d=" M 297.03 250.09 C 298.42 245.65 299.99 240.01 305.06 238.57 C 308.64 237.69 311.44 241.73 310.94 244.98 C 310.38 250.57 310.53 256.23 309.72 261.80 C 307.97 265.71 306.33 270.66 301.82 272.11 C 298.95 273.32 295.11 272.07 293.96 269.07 C 291.97 265.31 291.41 259.87 294.87 256.78 C 296.36 255.01 298.83 255.69 300.82 255.75 C 298.79 254.55 296.31 252.83 297.03 250.09 Z" />
</g>
<g id="#fde51aff">
<path fill="#fde51a" opacity="1.00" d=" M 340.20 125.39 C 367.47 133.31 395.89 135.96 424.00 139.11 C 426.99 139.47 429.14 141.78 431.46 143.47 C 442.50 152.81 455.68 159.04 468.44 165.64 C 475.46 169.40 480.12 176.64 487.79 179.33 C 494.46 181.77 500.42 186.00 507.44 187.50 C 511.42 188.43 515.54 189.06 519.28 190.82 C 523.52 192.68 527.63 195.28 532.37 195.54 C 540.99 195.80 549.64 196.29 558.19 197.53 C 550.78 197.87 543.36 197.39 535.95 197.55 C 532.31 197.52 529.03 199.26 525.76 200.61 C 515.72 204.83 505.35 208.52 494.55 210.20 C 476.63 212.26 458.26 206.70 443.68 196.27 C 439.52 193.49 436.60 189.29 432.61 186.33 C 427.14 184.96 421.36 186.11 415.77 185.59 C 413.78 181.61 409.79 179.37 407.04 176.01 C 405.68 174.38 404.01 173.06 402.16 172.03 C 406.76 172.59 411.40 172.28 416.02 172.33 C 419.31 172.29 422.75 172.33 425.80 170.90 C 428.96 169.43 431.95 167.44 435.44 166.80 C 440.76 165.92 446.30 166.69 451.24 168.85 C 455.72 170.66 459.59 173.81 464.36 174.94 C 462.30 171.73 458.66 170.25 455.40 168.58 C 440.46 161.18 423.97 157.75 407.62 155.13 C 388.16 151.85 368.48 147.48 351.05 137.88 C 347.73 136.54 347.98 132.46 346.03 129.96 C 343.92 128.72 341.50 128.22 339.17 127.55 C 339.51 126.83 339.85 126.11 340.20 125.39 Z" />
<path fill="#fde51a" opacity="1.00" d=" M 460.55 270.46 C 461.39 260.72 464.26 250.64 471.68 243.81 C 471.12 249.44 472.60 254.85 474.64 260.02 C 473.80 263.54 469.90 264.20 467.00 265.24 C 464.78 266.89 462.95 269.04 460.55 270.46 Z" />
<path fill="#fde51a" opacity="1.00" d=" M 514.37 259.80 C 518.27 253.10 523.70 247.14 530.87 243.93 C 529.71 246.91 528.23 249.81 527.64 252.98 C 526.92 257.67 528.22 262.31 528.88 266.93 C 523.04 267.40 518.63 263.12 514.37 259.80 Z" />
<path fill="#fde51a" opacity="1.00" d=" M 496.08 256.96 C 498.55 258.89 500.68 261.60 500.40 264.93 C 500.32 271.57 500.06 278.23 499.80 284.86 C 498.44 288.89 495.55 292.61 491.76 294.65 C 487.44 296.50 487.40 302.03 487.18 306.06 C 488.38 310.25 493.24 311.97 495.36 315.64 C 498.76 321.23 496.80 328.02 498.01 334.16 C 498.89 334.22 500.64 334.36 501.52 334.43 C 500.82 328.36 500.05 322.31 498.40 316.41 C 500.63 316.67 502.84 317.13 505.02 317.66 C 505.85 316.54 506.69 315.42 507.53 314.31 C 511.31 314.48 515.09 314.82 518.88 314.72 C 520.93 314.65 522.46 316.27 524.13 317.22 C 526.13 316.71 528.13 316.06 530.20 315.85 C 532.17 316.05 533.84 317.38 535.81 317.67 C 538.77 315.89 539.58 312.16 541.59 309.52 C 544.94 305.22 545.15 299.33 543.84 294.24 C 542.29 290.68 539.15 288.14 537.26 284.79 C 538.25 281.05 540.87 278.02 542.69 274.66 C 543.96 272.93 544.73 270.35 547.05 269.79 C 548.97 269.56 550.92 269.68 552.86 269.71 C 552.90 275.95 551.50 282.07 551.27 288.29 C 558.28 280.95 564.75 272.45 574.37 268.37 C 578.04 266.74 582.02 266.11 585.90 265.21 C 582.83 268.52 579.54 271.88 578.11 276.27 C 574.95 286.07 576.16 296.50 575.49 306.59 C 572.85 312.08 568.64 316.69 566.14 322.27 C 563.79 326.71 563.72 331.81 562.52 336.59 C 561.49 341.32 557.72 344.73 556.00 349.17 C 553.41 354.37 554.38 360.36 552.90 365.85 C 552.35 368.52 551.04 371.11 551.38 373.91 C 552.74 385.09 561.55 394.45 560.93 405.97 C 557.80 415.15 549.99 422.70 549.81 432.85 C 532.67 438.11 515.06 443.13 496.95 442.73 C 477.63 442.49 459.12 436.34 440.83 430.79 C 435.95 427.61 432.25 422.13 426.11 421.04 C 421.54 419.51 416.91 421.06 412.33 421.50 C 407.85 420.43 403.45 419.11 398.96 418.11 C 404.27 416.12 408.76 412.36 411.39 407.31 C 413.36 403.30 417.08 400.11 421.77 400.41 C 425.06 402.28 428.01 404.69 431.10 406.89 C 437.27 411.22 440.75 418.95 448.31 421.35 C 449.08 416.44 444.16 412.35 446.50 407.37 C 449.21 404.43 453.19 406.83 456.39 407.39 C 467.17 409.51 478.88 408.67 488.82 403.74 C 490.38 403.19 490.75 401.45 491.48 400.17 C 489.56 398.98 487.53 397.36 485.13 398.12 C 479.93 399.35 474.68 401.66 469.30 399.84 C 467.60 396.06 465.44 392.46 462.35 389.66 C 457.30 385.09 452.31 380.40 448.06 375.06 C 444.85 366.25 447.22 356.04 452.62 348.58 C 460.16 343.60 469.47 347.19 477.80 345.75 C 482.53 343.73 485.36 338.83 486.12 333.91 C 487.26 329.59 483.75 325.24 479.89 323.73 C 476.64 323.16 473.91 325.73 470.97 326.71 C 467.31 323.96 465.18 319.79 463.41 315.69 C 461.94 311.50 465.01 307.58 467.88 304.87 C 471.53 301.80 470.63 296.62 471.76 292.45 C 472.78 289.11 472.71 285.45 470.00 282.92 C 467.38 283.01 464.76 283.28 462.14 283.12 C 461.03 283.08 460.31 281.91 460.38 280.88 C 460.18 278.31 460.35 275.73 460.43 273.16 C 460.81 273.01 461.57 272.72 461.96 272.57 C 464.36 274.09 466.98 275.20 469.49 276.55 C 470.73 277.82 471.58 279.40 472.67 280.81 C 474.83 275.78 472.28 270.17 474.50 265.07 C 476.14 265.41 478.32 264.91 479.33 266.60 C 483.11 271.20 486.47 276.19 490.89 280.23 C 492.88 272.53 493.92 264.62 496.08 256.96 Z" />
</g>
<g id="#024697ff">
<path fill="#024697" opacity="1.00" d=" M 309.76 475.00 C 326.83 469.39 344.12 463.71 362.11 462.06 C 373.85 460.93 385.70 462.14 397.18 464.66 C 417.15 468.96 436.19 476.52 455.75 482.29 C 471.70 487.02 488.27 490.65 505.01 489.54 C 527.45 488.07 548.67 480.00 569.91 473.26 C 571.76 475.03 573.74 476.74 575.14 478.92 C 576.98 481.68 578.14 485.03 580.96 487.02 C 585.73 490.58 590.68 494.99 596.98 495.01 C 600.86 494.96 604.79 496.83 606.57 500.39 C 608.18 503.69 610.33 506.65 613.07 509.11 C 589.83 512.24 567.94 520.98 545.66 527.83 C 527.11 533.55 507.65 538.15 488.12 535.93 C 451.22 531.97 417.98 512.56 381.02 508.83 C 362.86 506.98 344.80 510.97 327.46 516.04 L 326.90 516.19 C 322.02 507.35 317.26 498.34 314.29 488.66 C 312.78 484.10 311.25 479.56 309.76 475.00 Z" />
<path fill="#024697" opacity="1.00" d=" M 368.82 555.28 C 394.23 554.99 418.35 564.03 442.17 571.76 C 463.38 578.65 485.48 585.22 508.05 583.04 C 544.61 579.44 577.54 560.47 613.94 556.07 C 630.96 553.94 648.12 556.86 664.48 561.51 C 689.10 568.35 712.84 578.66 738.26 582.37 C 747.15 583.76 756.17 583.50 765.12 583.02 C 769.57 584.24 774.07 585.29 778.62 586.16 C 783.64 587.13 787.76 590.92 793.00 590.94 C 801.59 591.11 810.07 592.63 818.59 593.63 C 822.96 594.16 827.13 595.76 830.85 598.12 C 836.48 601.61 842.92 603.42 848.79 606.45 C 831.46 611.04 814.62 617.24 797.47 622.44 C 781.45 627.21 764.81 631.06 747.98 630.07 C 724.97 628.69 703.21 620.43 681.47 613.44 C 662.86 607.48 643.70 601.65 623.95 602.22 C 606.77 602.32 590.21 607.50 573.88 612.25 C 566.06 610.50 559.46 605.52 551.76 603.40 C 546.08 602.10 542.21 597.28 536.83 595.35 C 527.60 591.84 518.12 587.99 508.04 588.60 C 502.70 589.13 497.33 588.95 491.97 589.03 C 485.65 589.15 479.49 591.15 473.17 590.90 C 467.36 589.66 461.98 586.98 456.59 584.55 C 443.37 577.63 427.86 578.35 414.12 572.94 C 408.77 570.52 402.70 570.48 397.52 567.60 C 387.75 564.02 377.56 561.16 368.82 555.28 Z" />
<path fill="#024697" opacity="1.00" d=" M 802.02 668.03 C 828.28 659.89 854.45 648.94 882.39 649.02 C 884.22 654.02 884.58 659.37 885.67 664.55 C 887.04 670.90 887.68 677.44 887.38 683.94 C 886.34 694.20 887.96 704.63 885.82 714.79 C 884.04 721.93 878.71 728.37 871.60 730.62 C 861.25 733.01 850.55 732.49 840.02 733.13 C 837.11 733.59 834.46 734.98 831.68 735.88 C 823.90 739.09 815.25 738.70 807.02 738.30 C 798.17 735.69 788.81 736.37 779.83 734.34 C 767.68 731.88 753.68 731.02 744.84 721.17 C 738.84 716.31 735.97 708.83 730.13 703.85 C 724.13 698.44 718.25 692.53 710.62 689.45 C 703.46 685.77 695.34 684.06 688.71 679.35 C 684.93 676.76 680.83 674.61 677.32 671.67 C 672.81 667.00 669.44 660.30 662.74 658.50 C 657.37 657.18 652.69 654.09 648.10 651.14 C 679.14 657.54 708.08 671.87 739.58 676.27 C 760.73 679.35 781.94 674.36 802.02 668.03 Z" />
</g>
</svg>
