<?xml version="1.0" encoding="UTF-8" standalone="no"?>
<svg
   xmlns:dc="http://purl.org/dc/elements/1.1/"
   xmlns:cc="http://creativecommons.org/ns#"
   xmlns:rdf="http://www.w3.org/1999/02/22-rdf-syntax-ns#"
   xmlns:svg="http://www.w3.org/2000/svg"
   xmlns="http://www.w3.org/2000/svg"
   xmlns:sodipodi="http://sodipodi.sourceforge.net/DTD/sodipodi-0.dtd"
   xmlns:inkscape="http://www.inkscape.org/namespaces/inkscape"
   width="597.96875"
   height="577.96863"
   viewBox="0 0 5.9796875 5.7796863"
   id="svg2"
   version="1.1"
   inkscape:version="0.47 r22583"
   sodipodi:docname="Flag_of_Egypt.svg">
  <metadata
     id="metadata16">
    <rdf:RDF>
      <cc:Work
         rdf:about="">
        <dc:format>image/svg+xml</dc:format>
        <dc:type
           rdf:resource="http://purl.org/dc/dcmitype/StillImage" />
      </cc:Work>
    </rdf:RDF>
  </metadata>
  <defs
     id="defs14">
    <inkscape:perspective
       sodipodi:type="inkscape:persp3d"
       inkscape:vp_x="0 : 300 : 1"
       inkscape:vp_y="0 : 1000 : 0"
       inkscape:vp_z="1200 : 300 : 1"
       inkscape:persp3d-origin="600 : 200 : 1"
       id="perspective18" />
    <inkscape:perspective
       id="perspective3754"
       inkscape:persp3d-origin="0.5 : 0.33333333 : 1"
       inkscape:vp_z="1 : 0.5 : 1"
       inkscape:vp_y="0 : 1000 : 0"
       inkscape:vp_x="0 : 0.5 : 1"
       sodipodi:type="inkscape:persp3d" />
    <inkscape:perspective
       id="perspective2825"
       inkscape:persp3d-origin="0.5 : 0.33333333 : 1"
       inkscape:vp_z="1 : 0.5 : 1"
       inkscape:vp_y="0 : 1000 : 0"
       inkscape:vp_x="0 : 0.5 : 1"
       sodipodi:type="inkscape:persp3d" />
    <inkscape:perspective
       id="perspective2838"
       inkscape:persp3d-origin="0.5 : 0.33333333 : 1"
       inkscape:vp_z="1 : 0.5 : 1"
       inkscape:vp_y="0 : 1000 : 0"
       inkscape:vp_x="0 : 0.5 : 1"
       sodipodi:type="inkscape:persp3d" />
    <inkscape:perspective
       id="perspective2860"
       inkscape:persp3d-origin="0.5 : 0.33333333 : 1"
       inkscape:vp_z="1 : 0.5 : 1"
       inkscape:vp_y="0 : 1000 : 0"
       inkscape:vp_x="0 : 0.5 : 1"
       sodipodi:type="inkscape:persp3d" />
    <inkscape:perspective
       id="perspective2828"
       inkscape:persp3d-origin="0.5 : 0.33333333 : 1"
       inkscape:vp_z="1 : 0.5 : 1"
       inkscape:vp_y="0 : 1000 : 0"
       inkscape:vp_x="0 : 0.5 : 1"
       sodipodi:type="inkscape:persp3d" />
    <inkscape:perspective
       id="perspective2841"
       inkscape:persp3d-origin="0.5 : 0.33333333 : 1"
       inkscape:vp_z="1 : 0.5 : 1"
       inkscape:vp_y="0 : 1000 : 0"
       inkscape:vp_x="0 : 0.5 : 1"
       sodipodi:type="inkscape:persp3d" />
    <inkscape:perspective
       id="perspective2854"
       inkscape:persp3d-origin="0.5 : 0.33333333 : 1"
       inkscape:vp_z="1 : 0.5 : 1"
       inkscape:vp_y="0 : 1000 : 0"
       inkscape:vp_x="0 : 0.5 : 1"
       sodipodi:type="inkscape:persp3d" />
  </defs>
  <sodipodi:namedview
     pagecolor="#ffffff"
     bordercolor="#666666"
     borderopacity="1"
     objecttolerance="10"
     gridtolerance="10"
     guidetolerance="10"
     inkscape:pageopacity="0"
     inkscape:pageshadow="2"
     inkscape:window-width="1280"
     inkscape:window-height="1004"
     id="namedview12"
     showgrid="false"
     inkscape:zoom="0.70710678"
     inkscape:cx="294.1486"
     inkscape:cy="255.29039"
     inkscape:window-x="-8"
     inkscape:window-y="-8"
     inkscape:window-maximized="1"
     inkscape:current-layer="svg2"
     showguides="true"
     inkscape:guide-bbox="true" />
  <path
     style="fill:#ffffff;stroke:#007a3d;stroke-width:0.017;stroke-miterlimit:4;stroke-opacity:1;stroke-dasharray:none"
     d="m 2.314375,1.8990625 0,1.9878125 2.719375,0 c 9e-5,-0.013001 6.82e-4,-0.026037 3.12e-4,-0.035 C 5.033085,3.828248 5.048152,3.801456 5.042812,3.778125 5.041352,3.771735 5.032202,3.749033 5.029062,3.742812 5.026432,3.737592 5.021252,3.733062 5.01875,3.727812 5.01622,3.722512 5.01601,3.714344 5.01312,3.709374 5.01033,3.704564 5.0035,3.700174 4.999995,3.695624 4.993025,3.686604 4.98632,3.673099 4.98312,3.662186 4.97982,3.650735 4.97637,3.633427 4.97562,3.621561 4.97461,3.605758 4.97708,3.590459 4.974683,3.574373 4.971683,3.554226 4.964658,3.53551 4.959058,3.516248 4.952078,3.492308 4.945283,3.458179 4.942183,3.433436 4.938883,3.407843 4.943613,3.38213 4.937803,3.356873 4.933893,3.339781 4.931033,3.320586 4.923428,3.304685 4.920928,3.299475 4.916558,3.294885 4.914048,3.289685 4.9089025,3.2788405 4.9044,3.265723 4.9,3.254375 4.89438,3.239731 4.8866,3.21295 4.8825,3.1975 4.8807,3.190925 4.88065,3.183395 4.87875,3.176875 4.87391,3.160165 4.8646875,3.1392435 4.8571875,3.1234375 c -0.0025,-0.0053 -0.00738,-0.01083 -0.00938,-0.01625 -9.34e-4,-0.0024 -7.67e-4,-0.00405 -0.00125,-0.00656 -0.0021,-0.010975 -0.00628,-0.02344 -0.00718,-0.034377 -6.63e-4,-0.00764 0.00159,-0.015798 9.37e-4,-0.023437 C 4.839012,3.0280595 4.8340455,3.014217 4.8337495,2.99875 4.8329895,2.958702 4.836362,2.916782 4.844062,2.8775 4.848012,2.857353 4.857037,2.8383715 4.860937,2.8184375 4.865237,2.7964595 4.869022,2.769828 4.868437,2.7475 4.864877,2.737941 4.853262,2.726115 4.844062,2.721875 l -0.023437,9.37e-4 c -0.00779,0.00896 -0.0172,0.016047 -0.025,0.024688 -0.00395,0.00441 -0.00695,0.01098 -0.01125,0.015 C 4.783045,2.76376 4.754371,2.781615 4.753437,2.781875 4.742767,2.784795 4.725212,2.782688 4.714062,2.782187 4.702022,2.781658 4.678507,2.776157 4.668437,2.769062 4.649387,2.755631 4.642697,2.726522 4.628437,2.70875 4.613227,2.6898 4.564487,2.646051 4.554687,2.630312 4.544297,2.613572 4.547467,2.602985 4.526562,2.583125 c -0.01851,2.6e-4 -0.035588,0.017072 -0.044688,0.032187 -0.003,0.00501 -0.0042,0.012508 -0.0075,0.017188 -0.00477,0.00674 -0.015675,0.014535 -0.021875,0.020625 -0.0017,0.00167 -0.00237,0.00279 -0.00438,0.00406 -0.00485,0.00304 -0.012612,0.0039 -0.017812,0.00656 -0.00816,0.00417 -0.023325,0.013765 -0.030625,0.019375 -0.00473,0.0036 -0.00842,0.00929 -0.013125,0.012813 -0.00247,0.00183 -0.02855,0.017955 -0.03125,0.019375 -0.01662,0.00874 -0.03678,0.011643 -0.05375,0.020313 -0.02637,0.013477 -0.0443,0.041278 -0.0675,0.059063 -0.01774,0.013605 -0.0475,0.025467 -0.06875,0.032188 -0.026819,0.00848 -0.12975,0.013313 -0.15625,0.00531 C 3.996507,2.822382 3.993807,2.808069 3.987807,2.794369 3.980507,2.777462 3.981147,2.761675 3.981867,2.743432 3.985557,2.650088 4.052854,2.655653 4.052179,2.601557 L 4.031866,2.594997 c -0.01183,0.00424 -0.021692,0.01092 -0.032812,0.01625 -0.0125,0.00599 -0.058957,0.02539 -0.070937,0.02875 -0.034019,0.00954 -0.10588,-0.00272 -0.14375,-0.00188 -0.00748,1.8e-4 -0.015,0.00171 -0.0225,0.00188 C 3.753617,2.640177 3.74393,2.638077 3.73593,2.63906 3.72303,2.64064 3.714098,2.650677 3.703118,2.654998 l -0.04,0.00875 C 3.637788,2.664378 3.605931,2.653727 3.595931,2.628435 L 3.601241,2.60781 C 3.622021,2.597497 3.619966,2.570104 3.648116,2.55531 3.675426,2.54095 3.705828,2.55177 3.732178,2.54031 l 0.01,-0.00719 C 3.770698,2.512631 3.771733,2.494514 3.792803,2.473745 3.801873,2.464815 3.813941,2.459125 3.82374,2.451245 3.84163,2.436847 3.858783,2.417373 3.870303,2.397495 3.876543,2.386696 3.879943,2.373623 3.88624,2.36312 3.88794,2.36028 3.917803,2.31812 3.917803,2.31812 3.919323,2.31669 3.93124,2.31122 3.93374,2.30937 3.94157,2.30356 3.95359,2.292103 3.95999,2.284682 3.97962,2.262118 3.993325,2.233368 4.013115,2.21062 4.032455,2.188384 4.05823,2.171514 4.07749,2.14937 4.0812,2.14508 4.084,2.13982 4.087802,2.13562 4.091632,2.13136 4.097132,2.12807 4.100927,2.123745 c 0.00425,-0.00483 0.00705,-0.01142 0.01125,-0.01625 0.00373,-0.00432 0.00933,-0.00761 0.013125,-0.011875 0.0037,-0.00411 0.0061,-0.00991 0.01,-0.01375 0.0105,-0.01029 0.020792,-0.01049 0.032813,-0.01625 0.00541,-0.0026 0.010438,-0.00837 0.015937,-0.010625 0.00608,-0.00251 0.014213,-0.00196 0.020313,-0.00438 0.0051,-0.00201 0.01,-0.00728 0.015,-0.00969 0.0058,-0.00278 0.01295,-0.00347 0.01875,-0.00625 C 4.249855,2.029055 4.25644,2.019363 4.26624,2.011862 4.27066,2.008472 4.276427,2.006752 4.280927,2.003422 4.285887,1.999722 4.289987,1.994362 4.29499,1.99061 4.29965,1.9871 4.306627,1.98476 4.310927,1.98092 4.314737,1.97751 4.317937,1.970867 4.32124,1.966858 4.339284,1.945242 4.344107,1.923335 4.353115,1.899045 l -2.0387495,5e-7 z m 2.5659375,0 c 0.00295,0.020601 0.00776,0.049916 0.015938,0.072187 0.0027,0.00737 0.024375,0.016515 0.031875,0.019375 0.00622,0.00238 0.013488,0.00298 0.019688,0.00531 0.025171,0.0094 0.063523,0.033295 0.086875,0.040625 0.00119,3.7e-4 0.021925,0.00427 0.023125,0.00438 0.021233,0.00111 0.019744,-0.00767 0.032813,-0.012812 0.012773,-0.00502 0.022707,-1.02e-4 0.03625,-0.012813 C 5.128623,2.0013155 5.13027,1.984009 5.12875,1.97 5.12801,1.96325 5.1261051,1.956203 5.1240625,1.9496875 5.1167271,1.9262888 5.1096477,1.9107223 5.10375,1.8990625 l -0.020313,0 c -7.87e-4,0.00154 -0.00159,0.00296 -0.0025,0.00406 -0.00383,0.00463 -0.00714,0.00177 -0.010313,-0.00406 l -0.1903125,0 z m 0.6809375,0.41625 c -0.014719,5.1e-4 -0.030254,0.00522 -0.043438,0.00687 -0.00707,8.9e-4 -0.01564,-2.2e-4 -0.0225,0.00125 -0.00525,0.00112 -0.01241,0.00535 -0.0175,0.0075 -0.0013,0.00174 -0.010763,0.01391 -0.01125,0.015 -0.00417,0.00932 -0.0056,0.022898 -0.00906,0.033125 -0.00271,0.00802 -0.00843,0.01597 -0.010625,0.02375 l -0.00281,0.0225 c 8e-5,8.69e-4 0.0059,0.016598 0.00656,0.018438 0.00905,0.0064 0.026645,0.00977 0.0375,0.00844 0.03274,-0.023679 0.047885,-0.00702 0.080938,-0.00625 0.00727,1.7e-4 0.01527,-0.00254 0.0225,-0.00219 0.00727,3.5e-4 0.01519,0.00324 0.0225,0.00406 0.015404,0.00173 0.03054,5.55e-4 0.045625,0.00563 0.00103,3.5e-4 0.017144,0.00794 0.017812,0.00844 0.00638,0.00473 0.03037,0.034555 0.03375,0.041875 0.013559,0.029351 0.0061,0.040155 0.04,0.06 0.012384,2.9e-4 0.025257,0.00153 0.0375,0.00344 C 5.79324,2.5774345 5.8014,2.58905 5.81,2.59625 5.829061,2.59655 5.847508,2.580995 5.852188,2.562813 5.852748,2.550349 5.850108,2.532871 5.843748,2.521875 5.829781,2.511115 5.812175,2.50214 5.801561,2.487812 5.796151,2.480512 5.786006,2.464572 5.782186,2.456562 5.779546,2.451042 5.779186,2.443645 5.776556,2.438124 5.7741495,2.433075 5.76928,2.427935 5.76625,2.423125 5.751833,2.400224 5.742463,2.3850305 5.723125,2.3653125 5.707836,2.3582025 5.6956575,2.3624675 5.6803125,2.3609375 5.6652605,2.3594375 5.64245,2.35685 5.628125,2.3525 5.623352,2.351053 5.589705,2.3217825 5.583125,2.3190625 5.578131,2.3170025 5.57299,2.315905 5.5675,2.315625 5.56544,2.315525 5.56335,2.315213 5.56125,2.315313 z"
     id="rect6" />
  <path
     style="fill:#007a3d"
     d="m 2.5934375,0 c -0.00983,0.007378 -0.021305,0.0188425 -0.031875,0.0240625 -0.02145,0.010595 -0.04911,0.0125875 -0.07125,0.0221875 -0.00184,8e-4 -0.03975,0.03012 -0.04125,0.03125 C 2.4097045,0.107312 2.370365,0.1409855 2.326875,0.1646875 l -0.027813,0.01125 C 2.2897525,0.1796835 2.27625,0.1866825 2.26625,0.1890625 2.24441,0.1942445 2.2216375,0.197085 2.1996875,0.201875 2.1538815,0.211878 2.05286,0.252849 2.015,0.275625 2.00033,0.284447 1.97374,0.304058 1.96125,0.315625 1.94178,0.333661 1.9247475,0.358295 1.9071875,0.37875 1.8924275,0.392856 1.866565,0.4135325 1.855625,0.4278125 1.855225,0.4283315 1.825025,0.48466 1.824375,0.48625 1.816145,0.50647 1.814325,0.530692 1.805625,0.550625 L 1.7828125,0.58875 C 1.7705325,0.609297 1.751375,0.6446195 1.744375,0.6671875 1.737895,0.6881085 1.7376,0.712879 1.7325,0.734375 1.7209,0.783505 1.6912825,0.8775195 1.6715625,0.9234375 1.6646025,0.9396415 1.65445,0.956162 1.64625,0.971875 1.62654,1.009864 1.5973575,1.0635585 1.5846875,1.1021875 c -0.00669,0.020395 -0.010763,0.044131 -0.019062,0.06375 -0.00832,0.01973 -0.023388,0.037582 -0.032188,0.057187 -0.00844,0.018851 -0.011413,0.045344 -0.021562,0.062812 L 1.4821875,1.32 c -0.00579,0.00665 -0.00959,0.01 -0.014687,0.017187 -0.00123,0.00174 -0.033934,0.058985 -0.034063,0.059375 l -0.005,0.045313 c -0.0036,0.03194 -0.00164,0.064784 -0.00594,0.09625 l -0.01125,0.04875 c -0.0022,0.00951 -0.00222,0.015235 -0.00562,0.024375 -0.0027,0.00721 -0.0061,0.010537 -0.01,0.017187 L 1.3759375,1.6625 C 1.3650275,1.679697 1.3492,1.697089 1.34,1.715 1.33446,1.72573 1.33091,1.739265 1.326875,1.752187 l 0,0.174375 3.0253125,0 c 0.00527,-0.00826 0.010365,-0.017337 0.016563,-0.03 C 4.3723,1.8892955 4.3774,1.8809975 4.38,1.8734375 4.38455,1.8602785 4.38625,1.8461595 4.39125,1.8328125 4.39601,1.8200495 4.4022,1.811533 4.41,1.800625 4.4163,1.791805 4.422512,1.778903 4.430313,1.771563 c 0.00498,-0.00471 0.040612,-0.02633 0.047813,-0.03 0.01316,-0.00673 0.029702,-0.00919 0.044062,-0.012187 0.058406,-0.012213 0.1541875,-0.00184 0.1621875,0.073125 -0.01383,0 -0.028305,-0.00137 -0.041875,-0.00406 l -0.00844,0.018125 0.00469,0.015 c 0.019193,0.01868 0.079022,0.02375 0.1053125,0.02375 0.02283,0 0.045555,-0.00604 0.068125,0 0.00705,0.00188 0.0159,0.00696 0.0225,0.010313 0.031045,0.015844 0.036357,0.038531 0.041562,0.060937 l 0.2453125,0 C 5.1208395,1.9198609 5.1199267,1.9132077 5.1175,1.906875 5.11543,1.901484 5.1110775,1.895865 5.1084375,1.890625 5.0999875,1.873892 5.09341,1.8557245 5.085,1.8390625 5.0825,1.8340925 5.07763,1.8291425 5.07562,1.8240625 5.07063,1.8114475 5.06987,1.7980705 5.063433,1.7853125 5.056013,1.7706185 5.045677,1.7533175 5.03562,1.7403125 5.03208,1.7357425 5.02638,1.7314025 5.023433,1.7265625 5.0168465,1.7157305 5.0058,1.687062 5,1.675 4.9949,1.664319 4.9856125,1.6550855 4.9803125,1.6446875 4.9717925,1.6278145 4.968925,1.606809 4.960625,1.59 4.958025,1.58475 4.953225,1.58024 4.950625,1.575 4.947725,1.56939 4.946865,1.562485 4.944065,1.556875 4.941455,1.551625 4.936355,1.547125 4.933752,1.541875 4.930852,1.536265 4.929992,1.529047 4.927192,1.523437 4.924582,1.518217 4.919382,1.513687 4.91688,1.508437 4.91428,1.502907 4.91385,1.495882 4.91125,1.490312 4.90626,1.479509 4.896962,1.469797 4.891563,1.459062 4.888563,1.453212 4.887273,1.446787 4.884373,1.440937 4.881775,1.4357715 4.8775,1.430835 4.875,1.425625 4.85795,1.38986 4.8715175,1.365315 4.8459375,1.33125 L 4.8328125,1.33344 C 4.8263125,1.34332 4.8193875,1.3531 4.8121875,1.3625 L 4.79375,1.37 C 4.76286,1.366493 4.7575775,1.340161 4.7421875,1.319375 4.7349375,1.309583 4.7265375,1.3030535 4.7209375,1.2915625 4.7059175,1.2661315 4.685755,1.240858 4.673125,1.214375 4.664875,1.197073 4.660475,1.177694 4.651875,1.160625 4.649175,1.155375 4.6451,1.150875 4.6425,1.145625 4.6396,1.139934 4.6382,1.1326575 4.635,1.1271875 4.62916,1.1171035 4.619038,1.1090885 4.613438,1.0984375 4.604888,1.0820675 4.599613,1.0619535 4.592813,1.0446875 4.585913,1.0272225 4.576763,1.0089045 4.571563,0.9909375 4.5696625,0.9844195 4.5693,0.977185 4.5675,0.970625 4.56419,0.9585 4.5572375,0.94695 4.5534375,0.935 c -0.0041,-0.01319 -0.00422,-0.02755 -0.00813,-0.040625 -0.0017,-0.005674 -0.0062,-0.0114975 -0.0075,-0.0171875 -0.0017,-0.007311 -0.00109,-0.01624 -0.00219,-0.02375 C 4.534625,0.8465605 4.5319375,0.839995 4.5309375,0.833125 4.5286445,0.817994 4.529049,0.802128 4.528125,0.786875 4.527225,0.773379 4.524678,0.75969 4.524375,0.74625 4.523675,0.715402 4.5317,0.677604 4.53,0.649375 4.529,0.633311 4.5218625,0.6195035 4.5165625,0.6046875 4.5130025,0.5946795 4.5098,0.583855 4.505,0.574375 4.5024,0.569205 4.49813,0.564585 4.49563,0.559375 4.49283,0.55365 4.49177,0.5466575 4.48907,0.5409375 4.48408,0.5304785 4.475682,0.5206575 4.469383,0.5109375 4.457633,0.4929265 4.445146,0.4671775 4.438445,0.4465625 4.427645,0.4131405 4.430245,0.3663025 4.417195,0.3371875 4.2145435,0.2473625 4.0437445,0.167573 3.8409375,0.078125 3.8215375,0.069569 3.67295,0.00159 3.66375,0 L 3.591875,0 2.5934375,0 z m 2.288125,0.284375 c -0.00784,0 -0.014563,5.8e-4 -0.019063,0.00125 -0.01367,0.00205 -0.02736,0.007647 -0.04125,0.009687 -0.02025,0.00297 -0.041765,0.00437 -0.060625,0.01375 -0.00412,0.002046 -0.042763,0.02692 -0.046563,0.03 -0.01375,0.011071 -0.076287,0.0794115 -0.082187,0.0934375 -0.0057,0.013611 -0.012137,0.0505085 -0.00844,0.0646875 0.00677,0.00805 0.025023,0.01482 0.035313,0.01375 0.027027,-0.002824 0.093617,-0.048189 0.1121875,-0.06875 0.0037,-0.004079 0.00598,-0.01056 0.00938,-0.015 C 4.789825,0.414755 4.804355,0.3984295 4.816565,0.3887495 4.834095,0.3748425 4.859175,0.359307 4.880315,0.352187 4.892335,0.348143 4.90735,0.346692 4.91844,0.340312 4.92663,0.335603 4.9337,0.324102 4.94469,0.325312 L 4.957815,0.313437 4.949375,0.295312 C 4.938505,0.2874645 4.9051025,0.284265 4.8815625,0.284375 z m 0.2125,0.1221875 c -0.015284,0.001232 -0.029459,0.007 -0.04875,0.01625 C 5.0326715,0.4288745 5.02248,0.435975 5.008125,0.438125 4.987715,0.441187 4.96598,0.4379365 4.95125,0.4584375 4.95303,0.4703615 4.9584375,0.48542 4.9659375,0.495 c 0.016779,-3.6e-4 0.033879,-1.325e-4 0.050625,9.375e-4 l 0.012187,0.011875 c -0.014934,0.054215 0.02714,0.056461 0.02875,0.09125 l -0.00656,0.019375 c 0.0021,0.010123 0.0127,0.0249725 0.0225,0.0290625 l 0.0225,-0.002188 c 0.013246,-0.012628 0.032553,-0.020245 0.049375,-0.026875 0.024756,0.007466 0.072361,0.0167065 0.086875,0.0396875 l -0.00375,0.0225 C 5.2228315,0.688217 5.211015,0.7006425 5.203125,0.7053125 5.191513,0.7121765 5.176671,0.7109975 5.165,0.7159375 5.163286,0.7166575 5.15255,0.725275 5.15,0.726875 5.133333,0.737329 5.1185375,0.7415085 5.1134375,0.7634375 5.1313015,0.8073015 5.097927,0.839339 5.059375,0.8525 L 5.0396875,0.8471875 C 5.0295895,0.8330675 5.021243,0.814569 5.008125,0.803125 5.004235,0.799734 4.9796125,0.7855375 4.9753125,0.7846875 c -0.00759,-0.00152 -0.0172,9.2e-4 -0.025,0 -0.0067,-7.9e-4 -0.013925,-0.004812 -0.020625,-0.005312 -0.01379,-0.001036 -0.0463,0.004297 -0.055,0.01625 l -0.00563,0.0225 0.0075,0.018125 c 0.02339,-0.00611 0.05501,-0.024509 0.0775,-0.00625 L 4.963125,0.845 4.95875,0.8653125 4.945625,0.878125 C 4.942605,0.899736 4.958863,0.9132735 4.964063,0.9328125 4.961573,0.9543165 4.94782,0.970889 4.948438,0.993125 L 4.9353125,1.005 4.9184375,0.9975 l -0.020625,0.004062 -0.010312,0.015 c 0.0015,0.012264 -0.00113,0.032558 -0.00813,0.043125 -0.01813,-0.00711 -0.041807,-0.0142 -0.060937,-0.0075 l -0.00938,0.015937 c 0.00405,0.01125 6.5e-4,0.031378 -0.00625,0.040938 -0.01936,0.0036 -0.04296,0.00214 -0.06,0.012812 -0.00488,0.011559 -0.00338,0.023569 6.25e-4,0.034687 0.00624,0.017416 0.030895,0.03153 0.048125,0.03625 0.01959,0.00536 0.038935,0.00407 0.056875,0.015937 0.01478,0.020059 0.01647,0.048987 0.03375,0.066563 0.01712,0.017412 0.028808,0.019659 0.039688,0.044687 l 0.005,0.01125 c 8e-4,0.00748 -0.00313,0.017017 -0.00281,0.024687 5e-4,0.012059 0.010338,0.04797 0.015938,0.059063 0.016059,0.031815 0.056073,0.045271 0.07375,0.07625 0.00311,0.00543 0.00484,0.012385 0.0075,0.018125 0.010661,0.022989 0.018483,0.046405 0.027812,0.07 0.00656,0.016592 0.012428,0.034098 0.019687,0.050312 0.00298,0.00666 0.00797,0.013805 0.010313,0.020625 0.00689,0.020067 0.00993,0.056607 0.016875,0.078125 0.00653,0.02022 0.020092,0.052765 0.0325,0.07 0.00355,0.00493 0.00857,0.00886 0.012187,0.01375 0.00701,0.00946 0.011444,0.019745 0.021562,0.026875 0.00144,0.00101 0.031848,0.018217 0.0325,0.018437 0.019503,0.00673 0.063942,0.00784 0.084688,0.00594 0.018078,-0.00166 0.034892,-2.1e-4 0.052812,-0.005 0.04464,-0.011942 0.116498,-0.067601 0.1475,-0.101875 0.01997,-0.022079 0.035448,-0.049012 0.056875,-0.07 0.02063,-0.020204 0.043008,-0.039994 0.061562,-0.062188 0.011608,-0.013884 0.022211,-0.029018 0.03375,-0.042812 0.00381,-0.00456 0.00922,-0.00845 0.012812,-0.013125 0.00306,-0.00399 0.00457,-0.00961 0.0075,-0.01375 0.00712,-0.010044 0.016897,-0.018366 0.023437,-0.029062 0.00662,-0.010809 0.01177,-0.02231 0.01875,-0.033125 0.010871,-0.016851 0.017548,-0.031525 0.025938,-0.049687 0.0021,-0.00455 0.00588,-0.0091 0.0075,-0.01375 0.00645,-0.018533 0.010588,-0.048936 0.012188,-0.06875 0.00323,-0.040009 -0.020573,-0.147124 -0.039063,-0.18375 -0.00534,-0.010559 -0.013397,-0.02001 -0.019687,-0.03 C 5.674668,1.1361085 5.6688925,1.125658 5.6615625,1.115625 5.6476545,1.09658 5.6315165,1.0788715 5.6178125,1.0596875 5.6075405,1.0453115 5.598246,1.029223 5.586875,1.015625 5.583317,1.01137 5.5782275,1.008 5.5746875,1.00375 c -0.00747,-0.00898 -0.012335,-0.0206 -0.019375,-0.03 -0.00737,-0.009825 -0.01639,-0.0181315 -0.0225,-0.0290625 -0.00254,-0.004558 -0.00374,-0.01068 -0.00656,-0.015 -0.0035,-0.00536 -0.00936,-0.00976 -0.013125,-0.015 -0.00689,-0.009577 -0.010555,-0.02155 -0.016875,-0.03125 -0.0034,-0.0052 -0.0088,-0.00968 -0.011875,-0.015 -0.00293,-0.005061 -0.0037,-0.0120575 -0.00656,-0.0171875 -0.00936,-0.016753 -0.032773,-0.040977 -0.045,-0.056875 -0.010894,-0.014164 -0.01883,-0.0310985 -0.02875,-0.0459375 -0.00647,-0.009672 -0.0156,-0.017615 -0.0225,-0.026875 C 5.3608955,0.6938355 5.342266,0.6597115 5.32375,0.6303125 5.306678,0.6032025 5.277894,0.5707215 5.2575,0.5453125 5.242431,0.5265415 5.231953,0.5034995 5.218125,0.4840625 5.208224,0.4701485 5.1970625,0.4569345 5.1865625,0.4434375 l 0.00156,0 C 5.178616,0.4376725 5.1711975,0.4283225 5.1621875,0.4228125 5.1554535,0.4186925 5.14503,0.4157975 5.1375,0.4134375 5.12311,0.4089275 5.111665,0.4065625 5.100937,0.4065625 c -0.00223,0 -0.00469,-1.8e-4 -0.00687,0 z m -0.2409375,0.085 c -0.01786,0.005887 -0.02735,0.026902 -0.03375,0.043125 -0.0085,0.008435 -0.02898,0.0106875 -0.04,0.008437 C 4.768425,0.540887 4.75779,0.5321025 4.74375,0.5303125 4.71799,0.5388975 4.70046,0.550188 4.6775,0.56375 L 4.67187,0.5840625 c 0.00356,0.009554 0.015175,0.021385 0.024375,0.025625 l 0.023437,0.002187 c 0.01315,0.011916 0.02485,0.028756 0.02875,0.04625 0.00962,0.011316 0.03788,0.0222925 0.0525,0.0215625 0.02418,-0.00121 0.038952,-0.0143325 0.065313,-0.006563 0.03302,0.009736 0.034122,0.05236 0.072813,0.05375 0.02125,-0.005776 0.06426,-0.029602 0.078437,-0.04625 L 5.010935,0.6634365 C 5.004315,0.6594115 4.98681,0.6458565 4.98281,0.6396865 4.9743625,0.6267305 4.9638,0.58533 4.955,0.566875 4.94499,0.560683 4.931095,0.5555525 4.919375,0.5540625 l -0.012187,-0.01625 c 7.2e-4,-0.012543 -0.00267,-0.029804 -0.00938,-0.040625 -0.01498,-0.00107 -0.029877,-0.003145 -0.044687,-0.005625 z m -0.25875,0.21375 -0.020313,0.004375 C 4.5743925,0.7294835 4.58748,0.768148 4.6,0.78375 c 0.00788,0.009815 0.0166,0.014513 0.0225,0.026875 0.00378,0.007921 0.013193,0.0309875 0.014063,0.0384375 0.0016,0.013399 -0.00593,0.021617 0.00188,0.043125 0.036,0.006586 0.05805,-0.020147 0.08125,-0.041875 C 4.7284575,0.8420955 4.737225,0.834265 4.745625,0.825625 4.730165,0.815958 4.714245,0.8063325 4.698125,0.7978125 4.692665,0.7949225 4.6853125,0.7924925 4.6803125,0.7890625 4.6720025,0.7833845 4.66295,0.7712375 4.65875,0.7621875 4.65667,0.7611775 4.64225,0.75455 4.64125,0.75375 4.63321,0.747398 4.6285625,0.7351025 4.6215625,0.7278125 c -0.00773,-0.008036 -0.018787,-0.01495 -0.027187,-0.0225 z m 0.225,0.1728125 c -0.02148,0.009992 -0.049493,0.0124625 -0.072813,0.0128125 -0.00969,0.015118 -0.01018,0.045171 0.00375,0.058125 0.01357,0.00245 0.033158,0.001295 0.045937,-0.004375 C 4.799799,0.9542435 4.811112,0.966385 4.820312,0.970625 4.852512,0.974368 4.876265,0.94169 4.896874,0.92125 L 4.895,0.89875 C 4.88239,0.90185 4.864398,0.901192 4.852188,0.896562 L 4.84,0.8825 4.819375,0.878125 z m -0.1725,0.0740625 c -7.6e-4,-1.3e-4 -0.019562,0.001988 -0.021562,0.002188 0.0089,0.015065 0.018815,0.0313 0.031875,0.043125 l 0.019375,0.005313 c 0.0136,0.00993 0.018175,0.040789 0.00937,0.054687 l 0.0075,0.020312 c 0.02761,-0.00605 0.049055,-0.00717 0.068125,-0.030938 l 9.37e-4,-0.024687 C 4.7389595,0.9950715 4.7152945,0.990092 4.6868745,0.97375 c -0.0126,-0.007243 -0.02496,-0.0190425 -0.04,-0.0215625 z"
     id="rect4" />
  <path
     style="fill:#ce1126"
     d="m 2.026875,3.853125 0,0.071563 C 2.3104464,3.9624101 2.5938902,4.000464 2.8775,4.038125 L 2.9278125,4.0775 c 0.01519,0.011874 0.0222,0.016228 0.0275,0.022188 0.00523,0.00585 0.00891,0.013189 0.017813,0.029687 L 3.05375,4.27875 c 10e-4,0.00183 0.00214,0.00497 0.00344,0.00656 l 0.077187,0.09625 c 0.00853,0.01063 0.013575,0.018881 0.019375,0.03125 l 0.043438,0.0925 c 10e-4,0.00213 0.00867,0.019413 0.00937,0.020313 0.01549,0.019529 0.049793,0.058007 0.061562,0.0775 C 3.270015,4.606262 3.2899,4.66058 3.2925,4.6675 3.294,4.67149 3.29681,4.67748 3.2975,4.681562 l 0.023125,0.13625 c 0.00508,0.029886 0.00717,0.065066 0.00438,0.095 -0.00371,0.039352 -0.016438,0.079777 -0.018438,0.1190625 -3.4e-4,0.00671 0.010925,0.1534855 0.013125,0.1640625 3.4e-4,0.00164 0.024898,0.076998 0.025,0.077187 0.00189,0.00353 0.043862,0.054498 0.049062,0.060937 0.01324,0.016435 0.0331,0.031226 0.04875,0.045625 0.00689,0.022473 0.023062,0.084408 0.031563,0.1028125 4.6e-4,9.9e-4 0.040812,0.048097 0.045313,0.053438 l 0.1515625,0.178125 -0.015625,0.065625 C 4.4260175,5.7642425 5.2088894,5.75128 5.9796875,5.74 5.9694535,5.727647 5.955233,5.7199925 5.941875,5.7115625 5.936437,5.7076525 5.9253125,5.704375 5.9253125,5.704375 5.9210235,5.669929 5.89718,5.6491705 5.883125,5.6196875 5.880415,5.6139955 5.8794025,5.60686 5.8765625,5.60125 c -0.00263,-0.00522 -0.0075,-0.00975 -0.01,-0.015 -0.00264,-0.00553 -0.00305,-0.012555 -0.00562,-0.018125 -0.00258,-0.0056 -0.00759,-0.01069 -0.010313,-0.01625 C 5.84566,5.541727 5.84075,5.5274715 5.8375,5.5165625 5.82896,5.4879185 5.82212,5.434161 5.82625,5.405 5.8272,5.39831 5.83043,5.391045 5.83188,5.384375 5.83519,5.369163 5.83692,5.352754 5.83657,5.337187 L 5.81875,5.32875 C 5.8135,5.33831 5.804103,5.350042 5.795313,5.356562 5.790673,5.360002 5.784258,5.361502 5.779688,5.365002 5.775628,5.368112 5.771598,5.375477 5.767501,5.378127 5.765541,5.379397 5.735359,5.389459 5.730938,5.390939 L 5.714376,5.382189 C 5.712306,5.367853 5.714426,5.354282 5.713439,5.340314 5.712509,5.327169 5.708329,5.312772 5.705939,5.299689 L 5.718127,5.286877 C 5.732196,5.295467 5.741756,5.30773 5.75719,5.314689 5.773241,5.305669 5.789687,5.292306 5.791877,5.272814 5.7786315,5.2414935 5.749112,5.246377 5.738438,5.225625 l 0,-0.01625 0.017812,-0.00625 C 5.773759,5.207685 5.78863,5.221735 5.8,5.235313 L 5.817812,5.233123 C 5.811142,5.209683 5.798667,5.183445 5.797187,5.15906 5.796547,5.1485 5.798947,5.136065 5.799377,5.12531 5.799847,5.113421 5.799447,5.097274 5.802817,5.085935 5.806127,5.074809 5.815542,5.063147 5.819692,5.05156 5.821922,5.04531 5.822952,5.038365 5.825322,5.032185 5.830292,5.019224 5.836814,5.008857 5.839384,4.994685 L 5.8281255,4.980625 C 5.8019395,4.972559 5.771171,4.9867525 5.742188,4.9828125 5.728123,4.9713325 5.712151,4.962457 5.698438,4.950625 5.689544,4.942951 5.681718,4.9342575 5.672188,4.9271875 5.662152,4.9197455 5.6511255,4.91514 5.6406255,4.90875 5.6304685,4.902566 5.621213,4.89444 5.611563,4.8875 5.606793,4.88407 5.599786,4.88052 5.595625,4.876563 5.589265,4.870513 5.56964,4.838275 5.565,4.829375 5.55928,4.818405 5.55719,4.805199 5.551875,4.794063 5.541655,4.772632 5.523983,4.753117 5.513437,4.731563 5.510667,4.725893 5.509467,4.719228 5.506877,4.713438 5.504227,4.707508 5.500167,4.70218 5.497507,4.69625 5.493607,4.68754 5.482063,4.645548 5.481882,4.637187 5.481473,4.618465 5.490652,4.589701 5.492819,4.569687 5.494359,4.555498 5.493899,4.5408 5.495629,4.526562 5.498319,4.504418 5.502959,4.481982 5.506879,4.46 L 5.496563,4.4428125 C 5.474387,4.4306995 5.446464,4.43009 5.422813,4.42125 5.398377,4.412116 5.3441905,4.3839025 5.3250005,4.3665625 c -0.0078,-0.00704 -0.018992,-0.017415 -0.025313,-0.025625 -0.00952,-0.012373 -0.032898,-0.055536 -0.043437,-0.0725 -0.00418,-0.00673 -0.00784,-0.014647 -0.0125,-0.020938 -0.00688,-0.00929 -0.017305,-0.016747 -0.024375,-0.025937 -0.00346,-0.00449 -0.0057,-0.01078 -0.00938,-0.015 -0.00776,-0.00892 -0.019235,-0.015168 -0.026875,-0.024688 -0.01844,-0.022976 -0.031484,-0.053461 -0.045,-0.079375 -0.00268,-0.00513 -0.0069,-0.0098 -0.00938,-0.015 -0.00859,-0.018012 -0.00891,-0.038863 -0.0175,-0.056875 -0.00499,-0.010457 -0.01365,-0.019579 -0.01875,-0.03 -0.00302,-0.00618 -0.00448,-0.013195 -0.0075,-0.019375 -0.00509,-0.010424 -0.01377,-0.019543 -0.01875,-0.03 -0.00487,-0.010213 -0.010673,-0.024826 -0.014062,-0.035625 -0.00537,-0.017098 -0.00849,-0.043864 -0.00938,-0.0625 l -3.0159375,0 z"
     id="rect8" />
  <path
     d="m 1.4784375,1.3240625 c -0.00382,0.00416 -0.00706,0.00766 -0.010938,0.013125 -0.00123,0.00174 -0.033934,0.058985 -0.034063,0.059375 l -0.005,0.045313 c -0.0036,0.03194 -0.00164,0.064784 -0.00594,0.09625 l -0.01125,0.04875 c -0.0022,0.00951 -0.00222,0.015235 -0.00562,0.024375 -0.0027,0.00721 -0.0061,0.010537 -0.01,0.017187 L 1.3759375,1.6625 C 1.3650275,1.679697 1.3492,1.697089 1.34,1.715 1.33055,1.733289 1.3273925,1.7602225 1.3165625,1.7771875 1.3046025,1.7959475 1.27997,1.810158 1.2675,1.82875 1.2629,1.8357 1.26236,1.840737 1.25906,1.848437 1.24776,1.875019 1.22938,1.927893 1.21781,1.949687 1.20751,1.969088 1.190768,1.986082 1.179997,2.005312 1.169677,2.023731 1.164392,2.047703 1.153122,2.065312 1.141762,2.083063 1.121709,2.101875 1.10781,2.118124 1.10741,2.123924 1.1027,2.184529 1.10219,2.186249 1.10065,2.191359 1.07399,2.235807 1.06969,2.244687 1.0497,2.286088 1.037315,2.331341 1.019065,2.373437 L 0.99749999,2.4175 c -0.00424,0.00858 -0.005737,0.014207 -0.0109375,0.022187 -0.01126,0.017174 -0.0305125,0.034488 -0.0440625,0.050313 -0.0237,0.027687 -0.0465575,0.055901 -0.0696875,0.084062 -0.01683,0.020491 -0.03753,0.05725 -0.05125,0.072188 -0.01479,0.016105 -0.037195,0.02781 -0.053125,0.043125 l -0.02875,0.033125 c -0.00559,0.00644 -0.0100875,0.00932 -0.0146875,0.016563 -0.0046,0.0075 -0.00525,0.012505 -0.00875,0.020625 -0.01242,0.028677 -0.0307725,0.076507 -0.0465625,0.101875 -0.01705,0.027396 -0.0611775,0.075069 -0.0834375,0.1025 -0.0139,0.017133 -0.0285225,0.034724 -0.0415625,0.0525 -0.0128,0.017449 -0.0237525,0.036303 -0.0365625,0.05375 -0.01288,0.017534 -0.0289675,0.033828 -0.0409375,0.051875 -0.01213,0.018286 -0.02135,0.040047 -0.0325,0.059063 -0.02039,0.034769 -0.0440975,0.068581 -0.0696875,0.099687 -0.032524,0.039532 -0.069965,0.075564 -0.106875,0.1109375 l -0.03125,0.03 c -0.01781,0.013681 -0.0404775,0.022407 -0.0584375,0.035938 -0.032679,0.024616 -0.11271,0.1099225 -0.135,0.1440625 C 0.02161749,3.619986 0.00989999,3.644335 -1.070977e-8,3.66375 0.58376599,3.732379 1.1669455,3.8113245 1.7496875,3.8878125 1.9031336,3.9079529 2.0566167,3.9285552 2.21,3.9490625 l 0.1384375,-0.095938 0,-1.9265625 -0.87,-0.6025 z"
     id="polygon10" />
</svg>
