<?xml version="1.0" encoding="UTF-8" standalone="no"?>
<svg
   xmlns:dc="http://purl.org/dc/elements/1.1/"
   xmlns:cc="http://creativecommons.org/ns#"
   xmlns:rdf="http://www.w3.org/1999/02/22-rdf-syntax-ns#"
   xmlns:svg="http://www.w3.org/2000/svg"
   xmlns="http://www.w3.org/2000/svg"
   xmlns:sodipodi="http://sodipodi.sourceforge.net/DTD/sodipodi-0.dtd"
   xmlns:inkscape="http://www.inkscape.org/namespaces/inkscape"
   width="1004.5654"
   height="1000"
   viewBox="0 0 502.28271 500"
   id="svg2"
   version="1.1"
   inkscape:version="0.91 r13725"
   sodipodi:docname="Flag_of_Lesotho.svg">
  <metadata
     id="metadata48">
    <rdf:RDF>
      <cc:Work
         rdf:about="">
        <dc:format>image/svg+xml</dc:format>
        <dc:type
           rdf:resource="http://purl.org/dc/dcmitype/StillImage" />
        <dc:title></dc:title>
      </cc:Work>
    </rdf:RDF>
  </metadata>
  <defs
     id="defs46" />
  <sodipodi:namedview
     pagecolor="#ffffff"
     bordercolor="#666666"
     borderopacity="1"
     objecttolerance="10"
     gridtolerance="10"
     guidetolerance="10"
     inkscape:pageopacity="0"
     inkscape:pageshadow="2"
     inkscape:window-width="1600"
     inkscape:window-height="837"
     id="namedview44"
     showgrid="false"
     fit-margin-top="0"
     fit-margin-left="0"
     fit-margin-right="0"
     fit-margin-bottom="0"
     inkscape:zoom="0.55"
     inkscape:cx="736.17861"
     inkscape:cy="470.99508"
     inkscape:window-x="-8"
     inkscape:window-y="-8"
     inkscape:window-maximized="1"
     inkscape:current-layer="svg2" />
  <path
     style="fill:#ffffff;stroke:#00209f;stroke-width:1.25;stroke-miterlimit:4;stroke-dasharray:none;stroke-opacity:1"
     d="m 108.47562,149 -1.49121,1.95019 -2.73633,2.21387 -0.66308,0.53809 0.0166,1.30859 0.47558,2.14844 0.73731,0.72949 2.03418,0.59864 0.67968,0.84082 0.39063,1.48535 -0.90625,1.78808 -2.87891,2.77247 -1.43261,1.48632 -3.466804,1.10352 -0.663085,0.4209 -0.69629,2.05078 -0.0625,0.16992 -0.600585,0.31641 -5.643555,-0.375 -1.529295,0.71582 -0.458985,1.09082 0.2041,0.71582 1.047855,1.06445 1.637695,1.25684 0.617185,0.77441 -0.125,0.88184 -0.72461,0.73535 -2.606445,0.96582 -0.87207,0.41406 -0.554685,0.4209 -0.93555,1.13086 -0.560545,2.0957 -0.42578,6.40723 -0.509765,0.74902 -2.19141,-0.45312 -1.802735,-0.88672 -1.81738,1.03808 3.335935,5.13868 0.509765,2.43945 -0.532225,1.61621 -1.308595,0.45313 -2.384765,0.4082 -1.04785,0.72266 -3.21289,5.86132 -1.81836,2.51075 -2.588865,1.82714 -0.442385,0.98536 0.283205,1.66308 0.0459,2.29297 -1.97168,1.31445 -1.835935,-0.1709 -0.260745,-0.16406 -0.96289,-0.35449 -1.512695,0.22949 -2.617185,1.18262 -0.93457,0.7373 -0.95215,1.06348 -0.73047,3.04981 0.509765,2.85156 0.175785,1.32812 -0.238285,0.69629 -0.65234,0.25684 -0.54297,0.15137 -1.39453,-0.42774 -0.390625,-0.11816 -1.851565,-0.55176 -1.41113,0.17676 -1.79004,0.65722 -1.11621,1.06446 -1.09375,2.70898 -1.3252,1.10352 -1.31445,0.44629 -1.12793,-0.30176 -1.77344,-1.85254 -0.87207,0.13769 -0.612305,0.63672 -0.71875,0.69629 -0.816405,0.24414 -1.256835,0.5586 -0.878905,2.32617 -1.04297,0.74219 -0.81543,-0.0323 -4.75879,-1.34082 -2.259765,-0.28223 -1.41113,0.28223 -2.226565,2.16797 -0.86621,0.58496 -2.3291,0.0332 -0.98633,0.51954 -1.66504,2.03027 -0.15332,1.79394 -0.725585,2.37305 -4.0166,1.8789 -1.47852,0.91993 -1.10449,-2.6084 -1.325195,-0.375 -0.493165,0.25684 -0.850585,0.78809 0.08008,2.46484 -0.5556647,1.72168 0.10254,1.8789 -1.03711,1.54493 -1.274415,-0.32227 -1.563475,-1.70801 -0.391605,-1.16308 -1.78418,-1.42676 -2.10742,-0.0791 -0.67969004,1.16992 0.32227004,1.37988 1.27441,2.23438 -0.05078,1.41992 -1.59668004,1.97168 4.23144504,7.16992 0.850585,1.83301 1.1377,1.40723 1.37695,0.77441 2.3115247,1.72266 1.779295,1.76171 1.73828,2.69434 1.00293,1.95117 3.116215,3.56934 1.835935,3.18066 4.02246,10.16602 1.070315,3.31836 1.25781,2.40625 3.81348,9.98926 2.237305,5.61132 3.29785,8.33399 1.529295,3.87695 1.08203,3.05566 2.039065,5.10645 -0.249025,0.69727 2.888675,5.7832 0.205075,0.40039 0.458985,0.90137 1.73926,1.26074 1.285155,0.43359 6.98535,7.51563 339.905289,0 2.79395,-1.75879 8.833,-4.84277 0.77535,-0.91407 4.4932,-2.6416 0.69725,-0.35449 0.79885,-0.4209 3.9824,-2.05664 3.13865,-2.45117 5.625,-5.13965 1.3096,-0.29492 0.8496,0.88574 1.59765,1.07812 1.14455,-0.30859 0.8613,-4.96191 1.7676,-1.65625 4.1631,0.0332 2.39745,-0.61133 1.15525,-0.85449 0.7139,-0.80176 1.0195,-2.82519 -0.5947,-2.63575 -1.3877,-3.63476 -1.6719,-5.6709 -0.8496,-0.72949 -2.1582,-0.65039 -1.7002,-1.29492 -0.5205,-1.26856 -0.18165,-1.53027 0.5498,-3.20801 2.48145,-5.09863 0.7139,-3.70801 0.033,-2.81836 0.0518,-3.9043 1.56345,-2.64941 -0.0849,-1.05078 -0.6797,-1.20899 -1.22945,-3.52929 0.63475,-1.95118 2.31055,-2.583 2.41405,-1.58399 0.93555,-1.02539 -0.0175,-4.48828 0.18655,-1.14355 1.00295,-2.01075 1.58005,-0.78906 4.0117,-0.35449 2.81545,-3.2793 2.76465,-0.88086 0.55565,-0.91992 4.9463,-1.37988 3.19435,-0.48047 0.74805,0.2832 0.74805,0.0127 1.58005,-0.45996 1.00295,-1.51172 0.23825,-4.59375 -1.34275,-3.19336 0.833,-0.97949 1.08205,-0.24316 3.72755,-0.0986 1.36035,-0.78906 0.71285,-0.69531 -0.13475,-0.54688 -0.11915,-0.45312 -0.8496,-0.82715 -1.66015,-0.64453 -2.77635,-1.41895 -0.23735,-1.64355 0.0335,-2.40527 1.54685,-4.50879 -0.5947,-3.02246 -0.9346,-5.15235 0.33985,-0.93359 1.6992,-1.49805 1.5635,0.30957 2.55565,-1.37988 1.416,-3.4707 1.3711,-1.78125 2.4014,-1.27539 5.30955,-1.87305 3.0254,-0.21582 1.4668,-0.95996 3.1953,-1.03125 1.1504,-0.7959 1.64845,-4.79688 2.03905,-2.80566 0.9746,-3.70117 -0.26075,-0.65723 0.0517,-3.12793 0.5098,-0.91406 2.73535,-2.74024 -0.033,-1.36718 -1.0713,-3.14063 -2.01075,-2.2207 -1.72755,-0.35449 -0.6406,-2.97168 1.35935,-3.96875 0.0285,-1.53125 -0.8838,-1.49805 -1.09375,-2.32031 -3.5459,-3.23438 -1.7842,-2.6084 -1.4443,-3.63378 -2.1617,-8.25194 -378.16699,0 z"
     id="rect6"
     inkscape:connector-curvature="0" />
  <path
     style="fill:#009543"
     d="m 52.873081,350 2.935545,3.1582 3.17871,3.66699 1.6709,8.11035 1.86426,7.28125 1.17285,4.0879 0.407225,0.50684 6.220705,-1.03224 7.16113,-1.51171 1.132815,0.2627 1.10449,1.13085 0.510745,0.78809 0.0283,0.98535 -1.110355,2.14258 -0.10742,1.74804 -0.958005,1.06446 -1.62598,0 -0.526365,0.80176 1.00293,2.33301 -0.34082,0.59179 -1.73926,0.27051 -2.237305,1.9375 -0.81543,4.73242 -0.33496,4.96778 -0.03905,4.59375 0.344725,2.30664 3.734375,1.99121 0.74707,0.68359 0.0625,1.36719 -1.421875,1.81348 3.399415,2.19531 0.18652,1.09668 -1.784175,1.67676 -0.74805,0.69628 -0.475585,1.35352 0.436525,1.49805 1.506835,0.375 1.642575,-0.15723 4.214845,-2.75976 1.257815,-0.28321 1.20117,-0.0136 2.657225,-1.12305 1.68262,-0.55175 2.447265,-0.16504 0.90625,0.89453 0.668945,1.33984 -0.589845,3.1543 0.357425,1.93262 0.917965,1.16894 2.957035,3.22754 0.33984,1.05762 1.03711,1.82812 1.325194,1.19531 5.8125,0.25 1.8252,0.55176 1.65918,1.09082 1.9375,2.91797 0.54394,0.82813 1.1045,4.67871 2.05664,5.37597 1.22461,0.69727 2.18066,-0.19727 1.86426,1.01172 0.64551,1.89942 1.18945,1.89257 0.2041,0.92676 -0.86621,1.99805 0.45898,1.27539 0.84961,0.68262 1.6377,1.78125 2.99121,2.26758 5.2627,2.81933 2.85546,1.26856 2.53223,2.91015 1.17285,3.42481 1.3252,1.61621 2.71972,2.25488 1.3086,2.21484 0.66308,1.87891 1.63184,2.16895 1.81836,1.35351 3.07617,1.17578 3.6377,0.69043 2.76953,0.28907 3.53515,0.57812 3.46778,0.57227 7.39355,0.66992 1.47852,-0.5127 1.9541,-1.80664 1.81933,-0.94629 1.1045,0.0322 2.98535,2.79981 0.66797,1.28223 1.12207,4.29785 1.20703,1.95117 3.12695,1.01855 3.41699,0.21094 3.19532,1.18262 5.6875,1.26269 3.21777,-0.17187 3.96582,0.39453 2.44141,0.6709 4.40234,-1.45996 2.80957,-1.12989 1.47363,0.1045 1.55176,0.80273 2.375,2.91699 1.71582,0.86817 0.2041,-1.57715 -1.08789,-3.86426 0.18164,-2.23437 -0.81054,-4.28516 0.64648,-3.5879 0.35645,-1.09179 2.10742,-3.20605 2.22656,-1.53223 1.18945,-0.19043 2.92383,-2.69336 1.13867,-1.94531 0.69727,-3.37207 0.88281,-6.69629 0.83399,-2.60254 2.42968,-2.82617 -0.1875,-1.53711 -0.40722,-0.56641 -4.88282,-4.56054 -0.94726,-1.55762 0.86719,-1.40039 2.87207,-1.83301 2.10254,-0.97851 3.25195,-3.62793 5.5918,-1.64258 2.94043,-2.06446 4.29882,-4.30468 1.92188,-2.68067 1.86914,-4.87011 -0.1709,-1.53711 -1.5459,-1.19629 -1.35937,-1.89356 0.2207,-2.0166 -0.65723,-2.09082 -3.33691,-3.37109 -4.01172,-2.35254 -1.20605,-1.29395 0.25488,-1.80761 1.37598,-2.25391 2.97558,-3.4707 2.83789,-0.90723 0.98535,-0.1377 1.43946,-0.77539 3.86425,-0.55175 4.17969,0.16406 1.68848,-0.33496 2.50976,-4.63379 4.40235,-4.04102 2.46484,-3.21386 2.17481,-8.64161 1.66601,-1.51074 0.84961,-0.76953 2.94141,-2.55664 2.68457,-1.28809 1.03613,-0.0928 8.65137,3.50977 2.65137,0.29004 1.90332,-0.38184 4.4541,-2.19531 2.05078,0.43457 1.58594,-0.8291 1.27441,-1.06446 0.78711,-1.12988 3.15625,-2.58984 1.9375,-1.49121 3.46191,0.47265 3.26856,1.22852 2.83887,1.65722 4.86035,1.05176 2.61816,-0.86816 2.60547,0.22363 3.28613,1.16895 3.47266,-0.1836 2.31152,-1.24805 2.61817,-1.09082 1.91992,-0.88085 2.3623,-0.88086 1.81934,-1.32129 2.14062,-1.04493 2.83301,-0.53808 2.91211,0.77539 2.2207,0 2.28809,-0.70996 2.81641,-2.23535 7.56347,-1.19434 3.51757,-1.89355 0.39065,-0.64453 2.48145,-2.18165 1.97165,-0.39355 3.11035,-1.41309 1.5469,-1.16406 5.34865,-3.99512 2.1367,-1.34472 -342.423839,0 z"
     id="rect4"
     inkscape:connector-curvature="0" />
  <g
     id="g10"
     transform="matrix(1.6666667,0,0,1.6666667,-123.79489,0)"
     style="fill:#ffffff">
    <path
       d="m 224.76,95.569 c -1.7098,0.03684 -3.3781,1.9308 -3.3781,1.9308 l 0.14732,20.233 -6.3878,6.692 5.1711,0 -0.0437,11.603 -30.591,41.193 -4.5222,-1.563 -7.9041,16.861 c 0,0 19.55,12.242 47.925,11.907 31.144,-0.37035 48.064,-12.471 48.064,-12.471 l -8.1677,-16.644 -3.9996,1.7393 -30.983,-40.979 -0.0437,-11.949 5.1711,0 -7.0378,-6.6088 0.0416,-20.159 c 0,0 -1.7514,-1.8203 -3.4613,-1.7835 z"
       id="path12"
       inkscape:connector-curvature="0"
       style="fill:#000000;stroke:#000000" />
    <path
       d="m 235.43,144.01 -21.153,0 c 0,0 -7.6776,-16.176 -6.4331,-27.485 1.2672,-11.515 7.8483,-16.963 16.598,-17.059 10.345,-0.11526 15.767,5.0691 17.405,16.598 1.6231,11.424 -6.4172,27.947 -6.4172,27.947 z"
       id="path14"
       inkscape:connector-curvature="0"
       style="fill:none;stroke:#000000;stroke-width:5" />
    <path
       d="m 187.79,182.57 c -0.3458,0.46106 -2.8816,5.5326 -2.8816,5.5326 l 4.38,-0.92211 -1.4984,-4.6105 z"
       id="path16"
       inkscape:connector-curvature="0" />
    <path
       d="m 190.32,189.14 -4.6105,1.4984 5.5327,2.19 -0.92212,-3.6884 z"
       id="path18"
       inkscape:connector-curvature="0" />
    <path
       d="m 192.4,182.68 2.3053,6.8006 5.6479,-1.6137 -1.4984,-3.2274 L 192.4,182.68 Z"
       id="path20"
       inkscape:connector-curvature="0" />
    <path
       d="m 195.97,191.91 0.80685,2.7663 7.4921,1.8442 -2.9968,-6.3395 -5.3021,1.729 z"
       id="path22"
       inkscape:connector-curvature="0" />
    <path
       d="m 204.27,186.14 2.6511,6.3395 5.6479,-2.19 -1.8442,-2.7663 -6.4548,-1.3832 z"
       id="path24"
       inkscape:connector-curvature="0" />
    <path
       d="m 207.96,194.79 0.92211,2.4205 8.76,1.2679 -3.6884,-5.7632 -5.9937,2.0747 z"
       id="path26"
       inkscape:connector-curvature="0" />
    <path
       d="m 216.37,187.99 3.2274,5.6479 8.1837,-2.9969 -0.9221,-2.19 -10.489,-0.46106 z"
       id="path28"
       inkscape:connector-curvature="0" />
    <path
       d="m 221.1,195.71 1.729,2.9969 10.143,-0.3458 -3.8037,-5.6479 -8.0684,2.9968 z"
       id="path30"
       inkscape:connector-curvature="0" />
    <path
       d="m 231.82,188.22 2.7663,4.7258 6.4548,-3.1121 -1.729,-2.5358 -7.4921,0.92212 z"
       id="path32"
       inkscape:connector-curvature="0" />
    <path
       d="m 242.42,191.79 -6.4548,3.2274 1.729,2.7663 8.6448,-1.3832 -3.919,-4.6106 z"
       id="path34"
       inkscape:connector-curvature="0" />
    <path
       d="m 244.5,186.83 3.3426,4.1495 5.4174,-4.2648 -1.8442,-1.9595 -6.9158,2.0748 z"
       id="path36"
       inkscape:connector-curvature="0" />
    <path
       d="m 254.41,189.02 -5.1869,3.919 1.3832,2.4205 7.1464,-1.8442 -3.3426,-4.4953 z"
       id="path38"
       inkscape:connector-curvature="0" />
    <path
       d="m 261.56,180.84 1.2679,1.8442 -3.5732,5.3021 -3.6884,-4.7258 5.9937,-2.4205 z"
       id="path40"
       inkscape:connector-curvature="0" />
    <path
       d="m 263.98,185.45 2.19,4.38 -4.38,1.4984 -0.34579,-2.0748 2.5358,-3.8037 z"
       id="path42"
       inkscape:connector-curvature="0" />
  </g>
  <path
     style="fill:#00209f"
     d="m 334.73343,0 -2.96386,1.0126953 -2.61133,1.6367187 -2.14746,2.791992 -1.08203,0.5195315 -1.12208,-0.058593 -0.77539,-0.334961 -1.73437,0.828125 -1.19531,0.90625 -0.47559,0.0459 -1.44531,0.197266 -1.81738,-0.2041015 -1.87012,-0.6308595 -2.19238,0.283203 -1.28125,0.308594 -1.17774,-0.19043 -1.48437,-0.736328 -0.79883,0.256836 -2.125,1.5966795 -1.3418,0.4726565 -0.73144,-0.6689455 -0.20313,-0.658203 -1.49609,0.131836 -1.46192,0.512695 -1.64843,-0.302734 -1.2754,-0.4072265 -1.92578,0.1835935 -2.6455,1.4726565 -4.04004,1.235352 -1.77246,0.893554 -2.46485,0.06543 -1.25781,1.228516 -1.56348,3.74707 -2.17578,2.253906 -2.67383,2.359375 -0.88379,1.570313 -0.19824,1.958984 0.0684,1.912109 -0.93457,1.189453 1.3252,1.064454 -0.62891,0.939453 -1.56348,0.65039 -1.0205,0.138672 -1.63086,-0.913086 -1.98926,0 -1.90332,1.149414 -2.76953,-0.676757 -1.56348,0.880859 -1.57031,0.56543 -1.74512,1.15625 -2.29394,-0.394532 -3.97754,-1.366211 -0.49219,-0.75 -0.73731,-0.617187 -2.0332,-0.09961 -1.9375,0.55957 -2.05664,0.828125 -1.99414,0.894531 -2.10156,0.446289 -1.22461,-0.198242 -0.67871,-0.760742 -0.0518,-0.07324 -0.96289,-2.753907 -0.90723,0.25 -1.91992,2.313477 -1.7334,0.505859 -1.93847,3.076172 -0.81543,0.636719 -0.917,0.09277 -0.86718,1.025391 -1.11036,1.944336 -2.02832,2.089844 -0.97461,0.302734 -0.57812,-0.118164 -0.15234,-0.276367 -0.98633,0.958984 -0.15332,1.629883 -0.56055,1.801758 -0.71387,0.696289 -1.24121,0.617187 -1.05371,1.525391 -1.47851,3.791989 -1.18946,0.90039 -0.50976,1.03125 -0.98535,3.42383 -0.81641,0.472655 -2.89453,0.36914 -1.03125,0.52539 -0.49805,0.94629 0.46387,0.749025 0.2207,1.117185 0.0342,1.28809 -0.0508,1.636715 -0.62891,1.504885 -4.86132,3.25879 0.22168,1.703125 1.01953,1.833005 -0.67969,1.078125 -2.51563,-0.02635 -3.29687,-1.02539 -1.98926,0.22363 -3.51758,1.15039 -1.39453,-1.68945 -1.35937,-3.376955 -2.42969,-1.282225 -2.99219,-0.03905 -1.70508,1.424805 -2.54394,2.603515 -0.98535,2.6543 -1.30957,0.72949 -2.09571,0.09961 0.0566,1.695315 1.24122,2.2666 -0.006,0.23047 -0.19336,1.09082 -0.48731,0.532225 -1.20019,0.953125 -1.36036,0.683595 -1.56347,0.236325 -1.5459,-0.14453 -1.11621,-0.801755 -2.40234,-2.40625 -1.292,-0.143555 -1.01953,0.301755 -1.17871,-0.137695 -1.11621,-0.41406 -0.83203,1.13086 -0.56152,1.30078 -0.56055,0.97363 -1.08789,0.629885 -2.63379,-0.07227 -2.04492,-1.63672 -1.37207,-0.907225 -2.61719,-0.669925 -2.84375,-1.873045 -0.98047,0.0791 -0.59473,0.59082 -0.18652,0.868165 1.47852,0.86133 1.58007,1.57715 0.54395,1.65625 -0.0674,0.81445 -1.4961,1.708985 -0.27148,2.339845 -0.44238,0.486325 -1.3252,-0.197265 -1.87598,-0.1582 -0.91797,0.30273 -1.14941,0.789065 -0.83301,1.13574 -0.73144,1.504885 0.0342,0.999025 0.45898,3.785155 -1.21191,1.05176 -1.30371,0.565425 -0.11817,1.749025 1.9375,1.86523 0.29981,0.72364 -0.90625,1.33984 -2.74219,0.0664 -1.90332,-0.9336 -2.24316,-0.13086 -0.83301,0.69531 2.05664,3.18165 -0.4082,0.74902 -2.22657,0.64453 -0.56054,0.8545 0.33984,1.55078 -0.10254,1.30762 -0.62305,0.96582 -2.14746,0.0391 -2.02246,-0.72949 -1.3418,0.2373 -0.88378,0.57129 0.0732,1.20312 1.04785,0.79493 3.56934,1.05859 1.56347,1.63574 0.56055,2.48438 -0.78125,1.12402 -0.21582,0.11133 -0.32813,0.11816 -0.32226,0.0459 -0.30664,-0.006 -0.22071,-0.0332 -0.73144,-0.2832 -0.69629,0.0264 -2.23242,-0.82715 -0.81055,0.0918 -0.49219,0.47949 0.19239,0.76856 0.58984,0.11816 1.13867,-0.18359 0.84375,0.45996 0.29395,0.88086 -0.0557,1.37988 -0.0566,1.02539 -0.5498,2.8252 -1.7334,0.56543 -1.02051,0.0801 -0.56055,0.91308 -0.25488,1.41895 -1.69922,1.53808 -1.13965,0.40039 -1.83496,0.0137 -0.54394,0.31543 1.19043,3.75879 0.11816,1.69531 -0.73047,1.34766 -1.30957,1.00488 -1.52343,0.55274 -0.48145,-0.0596 -2.57812,-0.0723 -2.0625,2.90527 -4.28223,3.37793 -1.37695,1.32715 -0.83692,1.09472 379.19334,0 -0.27635,-1.05566 -1.666,-3.03613 -0.8496,-0.66993 -1.05375,-1.13086 -0.9004,-0.60449 -0.23335,-0.74902 -0.2432,-0.69629 -0.33985,-0.60449 -0.4248,-0.4336 -0.90135,-0.80175 -1.1211,-0.65723 -0.79885,-0.19726 -0.27245,-0.2041 -1.4443,-2.76759 0.98535,-4.68457 -0.034,-4.05468 -1.3418,-2.8125 -1.20705,-1.44531 -2.2939,-1.19044 -3.3545,-1.21581 -1.08205,0.19726 -2.0791,-0.69628 -2.32325,0.82714 -2.35645,2.19629 -1.6035,-0.24414 -0.9004,-0.83496 -3.8242,-4.95508 -2.00585,-1.78027 -1.0254,-2.64844 0.20995,-2.35254 -0.834,-1.43261 -3.1377,-1.92579 -5.6992,-1.97852 -2.3633,-0.70312 -2.8203,-3.3457 -2.65235,-1.905275 -2.71875,-0.77539 -4.33395,-0.683595 -2.3965,-1.142575 -1.5293,-1.183595 -1.01465,-0.23633 -1.50685,-2.234375 -0.0791,-1.367185 0.6797,-2.228515 0.10155,-1.583985 -0.9004,-1.37891 -9.1953,-6.26953 -1.88085,-0.210935 -2.9287,1.577145 -1.0137,-0.236325 -1.1445,-1.34082 -0.78225,-1.55176 -2.5664,-2.569335 -1.42285,-1.399415 -1.6699,-2.063475 -1.44535,-5.612305 -1.9609,-3.16797 -1.8291,-2.338865 -3.19535,-5.928715 -1.291,-2.273435 -4.2158,-3.272459 -4.3506,-4.640625 -1.0537,-0.682617 -0.2559,-0.165039 -2.19235,-0.432617 -5.84669,0.308593 -1.66504,-1.958984 -1.10546,-3.364258 0.44238,-2.833008 -0.86719,-2.438476 -0.16992,-1.53711 -1.15527,-1.222656 -1.05957,-0.420898 -2.1875,-0.853516 -1.37598,-0.30957 -3.75684,-1.952149 -2.93945,-0.176758 -2.26074,0.493165 -2.27735,-0.829102 -1.98853,-1.793016 -1.07129,-2.326172 -1.68847,-10.390625 -0.35059,-3.5615235 -1.02051,-2.15625 -2.08496,-2.5761717 -2.0791,-2.1816406 -2.1582,-1.3671875 L 334.73343,0 Z"
     id="rect4176"
     inkscape:connector-curvature="0" />
</svg>
