<?xml version="1.0" encoding="UTF-8" standalone="no"?>
<svg
   xmlns:dc="http://purl.org/dc/elements/1.1/"
   xmlns:cc="http://creativecommons.org/ns#"
   xmlns:rdf="http://www.w3.org/1999/02/22-rdf-syntax-ns#"
   xmlns:svg="http://www.w3.org/2000/svg"
   xmlns="http://www.w3.org/2000/svg"
   xmlns:sodipodi="http://sodipodi.sourceforge.net/DTD/sodipodi-0.dtd"
   xmlns:inkscape="http://www.inkscape.org/namespaces/inkscape"
   width="839.19922"
   height="800"
   id="svg2"
   version="1.1"
   inkscape:version="0.91 r13725"
   sodipodi:docname="Flag_of_Libya.svg">
  <metadata
     id="metadata20">
    <rdf:RDF>
      <cc:Work
         rdf:about="">
        <dc:format>image/svg+xml</dc:format>
        <dc:type
           rdf:resource="http://purl.org/dc/dcmitype/StillImage" />
        <dc:title></dc:title>
      </cc:Work>
    </rdf:RDF>
  </metadata>
  <defs
     id="defs18" />
  <sodipodi:namedview
     pagecolor="#ffffff"
     bordercolor="#666666"
     borderopacity="1"
     objecttolerance="10"
     gridtolerance="10"
     guidetolerance="10"
     inkscape:pageopacity="0"
     inkscape:pageshadow="2"
     inkscape:window-width="1366"
     inkscape:window-height="716"
     id="namedview16"
     showgrid="false"
     fit-margin-top="0"
     fit-margin-left="0"
     fit-margin-right="0"
     fit-margin-bottom="0"
     inkscape:zoom="0.55048947"
     inkscape:cx="392.57337"
     inkscape:cy="399.07244"
     inkscape:window-x="-8"
     inkscape:window-y="-8"
     inkscape:window-maximized="1"
     inkscape:current-layer="svg2" />
  <path
     style="fill:#239e46"
     d="m 238.00195,600 c 1.05998,0.9873 2.12149,1.97493 3.17578,2.96289 3.68885,3.45625 7.43675,6.90431 11.16797,10.33984 0.34167,0.31551 1.689,1.3693 1.82422,1.48829 0.53458,0.47057 0.90924,1.06023 1.48438,1.5371 l 9.99804,-4.84765 c 0.45795,-0.22176 1.66704,-0.99684 2.04297,-1.14649 1.87956,-0.74732 3.62688,-1.63007 5.43164,-2.54687 1.64158,-0.83387 3.39299,-1.63864 5.05078,-2.4707 3.6035,-1.81022 7.24138,-3.51568 10.84571,-5.31641 l -51.02149,0 z m 174.39844,0 c 1.68153,0.84018 3.36508,1.67796 5.04688,2.51758 0.71487,0.35699 1.42409,0.8861 2.15429,1.26562 1.71731,0.89337 3.46238,1.73946 5.19141,2.60938 3.32465,1.67224 6.67235,3.52261 9.98437,5.27148 3.26785,1.72542 6.59379,3.45562 9.85352,5.15039 4.44698,2.31138 8.91164,4.59518 13.33789,6.94532 1.74796,0.92852 3.45847,1.95354 5.22266,2.84961 2.33392,1.18543 4.67268,2.33664 6.99218,3.56445 0.11449,0.0604 0.28185,0.0207 0.39454,0.082 0.32453,0.17488 0.61161,0.44891 0.93164,0.63281 2.60346,1.49284 5.36137,2.79232 8.02343,4.17969 0.10637,0.055 0.29162,0.0325 0.39258,0.0937 2.04545,1.23683 4.23925,2.18821 6.31445,3.33398 3.60771,1.99317 7.26219,3.91039 10.9375,5.75391 4.91486,2.46644 9.72383,5.2559 14.56836,7.85938 l 53.25196,28.61523 c 6.22109,3.34267 12.47843,6.63088 18.66797,10.03125 2.42316,1.33148 4.77755,2.80794 7.18359,4.17187 5.3187,3.01454 10.71855,5.92101 16.09766,8.83008 2.36728,1.28009 4.76658,2.50656 7.12304,3.80469 9.9225,5.46746 19.7506,11.02849 29.7344,16.38867 0.3426,0.1839 0.6385,0.53335 0.9765,0.73438 0.071,0.0424 0.2628,9.7e-4 0.334,0.043 4.1188,2.4475 8.377,4.59576 12.5508,7.02343 0.5256,0.2398 0.9028,0.56459 1.3887,0.82422 0.2569,0.13702 0.5954,0.17383 0.8496,0.31445 0.3489,0.19292 0.6502,0.51893 1,0.71094 0.3786,0.20824 1.4144,0.78501 1.5019,0.8418 0.2695,0.17579 4.5437,2.55303 4.752,2.52148 0.9005,0.7329 5.995,3.41989 7.4004,4.29883 1.7948,1.12324 3.6219,2.13112 5.4726,3.16602 0.068,0.0379 0.3028,0.0228 0.3614,0.0625 2.2582,1.5271 13.2994,7.44043 16.2148,9.33984 l 0.207,0.004 c 1.8759,1.23502 3.779,2.27985 5.7325,3.38867 0.077,0.0442 0.2531,0.0185 0.3261,0.0644 1.0349,0.66259 3.555,2.11734 3.793,2.24805 1.8813,1.03039 3.7048,2.15832 5.5781,3.19141 0.4994,0.27495 1.8226,1.00975 1.9668,1.09179 l 12.9825,7.36914 c 0.192,0.10908 0.4062,0.3206 0.5703,0.40625 1.3855,0.72207 4.713,2.58623 5.0078,2.75391 l 6.6562,3.7832 c 5.4746,3.1128 10.9828,6.23095 16.4746,9.36719 2.1094,1.20527 4.2028,2.54232 6.3321,3.69531 5.2646,2.85047 10.2504,6.34005 15.707,8.80469 l 0,-28.81055 53.2363,0 0.01,-171.18945 -418.78322,0 z"
     id="rect4"
     inkscape:connector-curvature="0" />
  <path
     style="fill:#000000"
     d="m 12.94336,200 4.33789,9.46484 c 1.68847,3.68343 3.01468,5.61134 4.32813,9.44532 0.97269,2.83875 0.90983,4.60566 1.49218,7.55078 l 2.98633,15.09765 -0.13281,9.44922 c -0.0802,5.65677 -0.081,3.14843 -0.0449,7.50977 l 0.0449,5.5664 -1.37109,14.42969 c -0.26775,2.81351 -0.66031,4.38873 -0.68555,7.21485 -0.01,1.12866 0.36417,1.72772 0.59765,2.83203 l 1.19336,5.66015 c 1.42703,5.03023 3.26361,10.04549 4.88086,15.02344 -0.17579,0.46606 -1.18659,3.30543 -1.38672,3.52539 -0.0297,1.87777 -0.16991,3.45591 -0.41601,5.31836 -0.01,0.0775 0.10123,0.24834 0.0859,0.32227 -0.35699,1.73804 -0.97756,5.96314 -2.25586,7.31445 -0.60759,0.64275 -1.65608,0.9797 -2.43946,1.33398 -0.31462,0.14243 -0.68267,0.18584 -1.02343,0.40039 l -0.18555,0.44727 0.12695,0.30859 c 0.72389,0.3669 1.47519,0.37908 2.22071,0.041 l 0.38671,0.14258 c 0.16678,0.57515 -0.19635,1.14721 -0.36132,1.67187 -0.20824,0.66258 -0.31745,1.32886 -0.64649,1.95899 -0.60939,1.16742 -2.29956,1.01016 -2.68359,2.38672 0.0162,0.0261 -0.2838,3.09734 -0.33789,3.33984 -0.0892,0.39755 -0.48032,0.79386 -0.57227,1.19141 -0.14694,0.63373 -0.39287,1.36686 -0.4668,2.00781 -0.0892,0.77708 0.12696,1.58996 0.12696,2.35351 0,0.81673 -0.18074,1.62017 -0.14649,2.45313 0.0135,0.33896 0.72672,1.26231 0.5293,1.5625 1.59471,1.59021 1.53258,2.72243 2.27539,4.75976 0.33625,0.92221 -0.0805,1.73569 -0.15625,2.66602 -0.0261,0.32092 0.63131,1.95748 0.75391,2.29102 0.0252,0.0676 0.16391,0.2518 0.20898,0.32031 0.13522,0.82666 -0.39949,1.42364 -0.51758,2.17187 -0.30651,1.93637 1.53363,4.48372 2.39454,6.02344 0.38312,0.68422 0.59734,1.45114 1.05078,2.14258 0.62022,0.94474 1.73661,1.60226 2.00976,2.75976 -0.59137,2.27983 -0.98856,4.47543 -1.40234,6.80664 -0.22807,1.28191 0.95372,2.33004 0.99609,3.60743 0.0793,2.39793 -0.3132,4.02095 -1.62305,6.21875 -0.28847,0.79781 -0.67832,1.50598 -1.07226,2.25781 -0.28216,0.53908 -1.90038,0.81399 -2.39258,0.98437 -0.60309,0.20914 -1.2037,0.48467 -1.79687,0.72266 -0.69143,0.27766 -1.55452,0.81924 -2.19727,1.16992 -1.03038,0.56161 -1.937,1.05963 -3.02148,1.42383 -0.64545,0.21725 -1.32976,0.39948 -1.95899,0.6582 -0.92492,0.37952 -1.95685,0.71303 -2.83398,1.19532 -0.28307,0.15596 -0.53679,0.38296 -0.86133,0.53711 -0.68151,0.32363 -4.00839,1.68462 -4.42578,2.38867 -0.83657,1.40991 -1.33636,3.00385 -2.04492,4.46875 -0.12801,0.26593 -0.36839,0.51577 -0.47657,0.78711 -0.11809,0.29659 -0.1322,0.6615 -0.33593,0.94726 -0.43902,0.61481 -1.00855,1.15623 -1.46289,1.77735 -0.58236,0.79781 -1.27702,1.98465 -2.23438,2.42187 0.005,0.13161 0.0443,0.22911 0.11914,0.33008 1.7083,2.28794 3.3267,4.65361 4.95117,7.01367 0.0406,0.0586 0.15355,0.0725 0.19141,0.13281 0.48498,0.78429 1.04085,1.43236 1.58984,2.16797 1.63347,2.18788 3.18608,4.44763 4.77539,6.66797 0.26143,0.36509 0.48076,0.83743 0.71875,1.17188 l 4.61524,6.5 c 0.12259,0.17398 0.16482,0.42743 0.29101,0.59961 l 3.35157,4.5957 c 0.60038,0.82395 0.9322,1.85213 1.66601,2.57422 2.9271,4.13326 5.80955,8.33607 8.54102,12.6289 0.0442,0.0694 0.20823,0.11704 0.25781,0.18555 0.52465,0.72569 3.88462,5.52116 3.92969,6.30273 -0.0361,0.0252 -0.13085,1.35456 -0.11914,1.51954 0.0361,0.49851 0.11943,1.05016 0.11132,1.54687 -0.0117,0.76445 -0.26909,1.6089 -0.21679,2.36524 0.006,0.0811 0.11133,0.20567 0.11133,0.2832 l -0.0195,6.51953 c -0.002,0.67521 -0.16286,1.41119 -0.11328,2.06836 0.007,0.0883 0.0977,0.20928 0.0977,0.29492 l -0.0508,11.27539 c 0.61751,0.51204 1.27401,1.13941 1.98437,1.52344 0.4219,0.22808 1.81204,1.13821 2.11133,1.30859 1.08808,0.62202 4.54807,1.99963 4.69141,3.71875 0.27855,3.32915 0.1921,5.9996 1.7832,8.9961 0.59047,0.38133 1.21182,0.74862 1.78516,1.15429 0.23979,0.16948 0.42773,0.46994 0.67383,0.625 1.98505,1.25485 4.1105,3.05165 5.91796,4.11719 1.85073,1.09079 1.93247,0.93479 3.85352,1.14844 l 1.29102,0.14258 c 0.92131,-0.12711 3.72322,-1.80767 4.59765,-2.21875 0.60579,-0.28486 1.30137,-0.49459 1.92969,-0.73438 1.38377,-0.52827 2.77699,-1.13655 4.17969,-1.66211 1.25936,0.37231 5.01726,1.93719 5.68164,2.20313 1.86606,0.74732 3.72815,1.54759 5.61133,2.24804 1.8336,0.68332 3.80236,1.20235 5.6621,1.8379 l 29.98438,9.4746 1.60156,2.9043 c 0,0 4.87154,12.20911 5.07617,12.8086 0.0775,0.22717 0.32241,0.4178 0.35938,0.73242 0.0379,0.31732 -0.0685,0.74112 0,1.04492 0.16046,0.71216 8.81548,16.94179 9.625,18.44726 1.06465,1.97874 2.10768,4.00219 3.11914,6.00977 0.53998,1.07276 1.03271,2.35393 1.69531,3.35547 0.11087,0.16858 0.89963,0.5036 1.125,0.57031 1.91023,0.43721 3.80041,0.83952 5.80078,1.46875 0.81943,0.055 2.52494,0.4946 2.60157,0.51172 1.45318,0.32454 2.9107,0.63535 4.35937,0.98242 l 7.08008,1.69336 c 0.20014,0.0478 0.43719,-0.002 0.60937,0.0469 3.22187,0.915 15.44776,3.70925 18.30274,4.40429 0.29568,0.0721 1.77554,0.43284 2.01172,0.45899 l 0.16601,0.21094 c 1.09981,-0.10728 11.80127,2.56426 14.90235,3.32421 4.47942,1.098 8.98812,2.00491 13.41797,3.22461 1.28461,0.35338 2.61143,0.58668 3.91406,0.86524 0.12891,0.027 0.31338,0.20237 0.4414,0.22851 0.24159,0.0496 0.53965,-0.0283 0.78125,0.0195 0.33445,0.0667 1.06459,0.5634 1.42969,0.70313 2.34294,0.89426 4.82849,1.82792 6.93164,3.19727 2.20231,1.43335 4.70953,2.83602 6.67383,4.60742 1.12956,1.01867 2.21945,2.09882 3.35352,3.12109 2.03705,1.83833 4.06345,3.7158 6.08593,5.59961 l 51.02149,0 c 0.80582,-0.40259 1.61271,-0.80366 2.41406,-1.21875 0.70315,-0.3642 1.56487,-0.29159 2.13281,-0.9668 0.0424,-0.0505 9.55769,-4.68013 9.85157,-4.82617 9.88559,-4.91304 19.75684,-10.00387 29.74609,-14.78711 0.15414,-0.073 0.86493,-0.38221 1.03711,-0.45703 0.5472,-0.23799 2.88084,-1.33323 3.47851,-1.62891 1.01597,-0.50212 6.58547,-2.94738 6.97852,-3.64062 1.28999,-0.19472 5.41765,-2.71741 5.87109,-2.58399 0.47418,-0.35158 0.92772,-0.44109 1.41993,-0.7539 3.92773,1.98325 7.84119,3.99046 11.79687,5.91601 0.19742,0.0965 0.55845,0.1543 0.70899,0.24805 1.19717,0.74552 8.82593,4.55839 11.51953,5.86914 1.72813,0.84108 3.46523,1.83245 5.19336,2.70508 0.52196,0.26323 1.76367,1.01758 1.76367,1.01758 0.43993,0.17399 12.5718,6.10199 13.15234,6.63476 l 0.1582,0 c 1.29812,0.93032 4.24919,2.25945 5.76368,3.07618 0.7374,0.39755 1.6158,0.6693 2.31445,1.07226 0.50482,0.29118 0.96137,0.70311 1.4707,0.98438 0.39124,0.21545 0.86854,0.32811 1.27149,0.52734 1.11873,0.55261 2.18054,1.22969 3.29297,1.79492 0.67747,0.34419 1.36106,0.67784 2.04101,1.01758 l 418.7832,0 0.01,-238.70312 c -0.1127,-19.53409 0.057,-39.07319 0,-58.60547 -0.059,-20.10291 -0.016,-40.20673 -0.016,-60.31055 l 0,-8.5918 c 0,-1.35221 0.1718,-2.98432 -0.029,-4.29687 -0.033,-0.21906 -0.6679,-1.29506 -0.8203,-1.70703 -0.4742,-1.2837 -0.902,-2.63502 -1.4375,-3.89258 -0.7221,-1.69478 -1.7735,-3.27113 -2.4902,-4.9668 -0.2281,-0.53909 -0.3113,-1.1977 -0.5664,-1.71875 -0.2127,-0.43361 -0.6555,-0.80828 -0.8809,-1.23828 -0.3155,-0.60309 -1.3198,-3.23434 -1.3496,-3.9375 0.275,-1.05923 1.1058,-2.829 1.9883,-3.54297 0.074,-0.43271 0.2199,-0.89121 0.039,-1.32031 -0.7599,-1.81287 -1.4761,-3.66009 -2.3046,-5.44141 -0.2609,-0.56201 -0.5659,-1.14257 -0.8594,-1.72656 l -809.52343,0 z"
     id="rect6"
     inkscape:connector-curvature="0" />
  <path
     style="fill:#e70013"
     d="m 116.04102,0 -0.35743,0.78710938 0.084,0.45898442 c 0.006,0.03336 -0.10381,0.3529128 -0.11914,0.4042968 -0.14333,0.487698 -0.25765,1.0863711 -0.45508,1.5488282 -0.35066,0.8230469 -0.92352,1.3399608 -1.14258,2.2324218 -0.12079,0.493107 -0.17127,1.0521139 -0.19922,1.5605469 -0.0252,0.466964 -0.0449,2.1748745 -0.23242,2.5390625 l 0.37109,0.2714844 0.082,0.7109376 c -0.90508,0.576043 -1.12064,2.390139 -1.37305,3.357422 -0.20103,0.771664 -0.5257,1.554209 -0.78711,2.310547 0.44893,0.889757 0.72354,1.952639 0.98047,2.908203 -0.56703,1.34951 -1.16287,3.854817 -0.83203,5.21875 0.39124,1.612741 0.41482,2.195399 0.11914,3.896484 -0.12261,0.700446 -0.29628,1.101532 -0.19531,1.910156 1.30443,4.054839 1.44148,2.082393 3.33007,4.490235 0.87082,1.110618 1.90925,1.787808 2.40235,3.203125 -0.42369,0.792398 -3.61433,6.957324 -3.90821,7.160156 -1.00425,0.692333 -2.10002,1.346427 -3.05468,2.105469 -0.0658,0.05139 -0.15565,0.231519 -0.21875,0.267578 -0.66529,0.384028 -1.43898,0.142268 -2.04297,0.396484 -0.56973,0.239793 -1.18899,0.840433 -1.73438,1.164063 -1.08538,0.644555 -1.88156,0.755245 -3.02734,1.08789 -0.3714,0.107276 -0.72415,0.306486 -1.09375,0.421875 l -5.3418,1.673829 c -1.07276,0.33625 -2.27309,0.759296 -3.26562,1.257812 -0.26773,0.13432 -0.50886,0.454173 -0.7793,0.572266 -0.81764,0.358788 -2.03453,0.40998 -2.66016,1.123046 -1.62447,0.110882 -1.67828,0.932076 -2.89257,1.59375 -0.64004,0.34797 -1.37483,0.381003 -2.05274,0.582032 -0.81314,0.240694 -1.57013,0.859057 -2.27148,1.3125 l -0.1875,0.121094 c -0.69053,0.446229 -1.22083,0.956262 -1.86719,1.427734 -0.45525,0.332644 -0.99172,0.585774 -1.4668,0.90039 l -1.54883,1.025391 c -0.10728,0.379522 -0.11778,0.791302 -0.21874,1.158203 -0.26234,0.951959 -2.62814,4.509586 -3.14649,5.304688 -0.75814,0.07843 -1.675,0.27117 -2.35742,0.630859 -0.59498,0.313714 -0.94859,0.725064 -1.72656,0.648438 -0.31822,-0.03155 -0.65368,-0.246843 -0.97461,-0.302735 -0.53096,-0.09195 -1.02659,-0.03786 -1.54492,-0.246094 -0.58867,0.02975 -0.78679,0.768777 -1.50977,0.865235 l -0.16992,0.283203 c 0.42911,2.332118 -1.08415,1.84251 -0.72266,2.859375 0.17038,0.477782 0.69922,1.068945 0.98047,1.498047 0.21455,0.612102 -0.40324,1.086216 -0.46094,1.664062 -0.66798,0.711261 -3.03019,2.248315 -3.27539,3.13086 -0.62833,2.262704 -0.48386,2.54698 -2.34179,3.767578 -0.0613,0.03966 -0.1591,0.05469 -0.22852,0.07813 -1.07095,0.356083 -3.69092,1.339105 -4.78711,1.001953 l -2.22656,-0.683594 c -1.07816,-0.331743 -4.67846,2.297752 -5.46094,2.953125 -0.0595,0.440822 -1.88371,3.080676 -1.96484,3.19336 -0.0838,0.116291 -0.26788,0.626496 -0.35352,0.773437 -0.37953,0.649063 -0.81459,1.206858 -1.27344,1.802734 -0.0451,0.0586 -0.77899,1.225951 -1.13867,1.511719 0.0135,0.302896 -0.92773,1.134766 -0.92773,1.134766 -0.28487,0.371408 -0.72491,1.143022 -0.86914,1.324219 -0.25331,0.318221 -1.65625,1.778529 -1.65625,2.226562 0,1.000639 -0.0784,1.174403 0.375,2.154307 0.15055,0.82125 -0.0931,1.66477 0.16015,2.45898 0.96368,3.02174 2.8314,6.15553 3.69141,9.34766 0.0162,0.0613 0.14108,0.14978 0.16992,0.21289 0.23889,0.52375 0.36463,1.11522 0.61524,1.63086 0.16496,0.33986 0.41299,0.65759 0.56445,1.00195 0.51564,1.16741 0.61852,2.64028 1.05664,3.84375 0.23889,0.65537 0.92892,1.41943 1.21289,2.14061 0.42189,1.06915 -0.37455,1.96828 -0.49805,2.98243 -0.0965,0.79239 0.0705,1.50222 0.23633,2.26757 0.22718,1.04571 0.36688,1.17649 0.43359,2.43946 0.0586,1.0998 0.58922,2.31863 1.05079,3.29492 0.0252,0.25512 -0.48226,0.74459 -0.65625,0.87891 -0.0811,0.53096 -0.0942,0.32029 0.0645,0.87109 -0.47148,1.04571 -0.58474,2.14103 -1.00391,3.18945 -0.13343,0.33354 -3.17607,6.1929 -3.4375,6.52735 -0.52736,0.6734 -1.61071,0.75943 -2.06054,1.56445 -1.14667,2.04996 -1.64763,2.66955 -3.19727,4.5293 -0.56523,1.00244 -1.19243,2.04669 -2.01367,2.85351 -0.34616,0.33986 -0.78651,0.61508 -1.11914,0.96485 -0.56163,0.59048 -1.07917,1.27266 -1.60742,1.89648 -0.0397,0.0469 -0.28246,0.3137 -0.29688,0.35156 -0.55982,1.44597 -1.62345,4.06233 -3.07031,4.79884 l -0.79688,1.75586 c -1.19265,0.68693 -2.13188,1.64765 -3.10547,2.59961 -0.0766,0.0748 -2.67773,0.23859 -2.83007,0.2539 -1.33689,0.13614 -2.06666,0.88536 -3.24219,1.26758 -0.52286,0.16948 -1.09238,0.285 -1.62695,0.42383 -0.25242,0.0658 -1.63581,1.07557 -2.02344,1.39649 -1.07186,0.38584 -2.05586,0.75929 -3.04297,1.33984 -0.58867,0.34527 -1.15367,0.79941 -1.75586,1.11133 -1.06104,0.55079 -2.47456,0.64452 -3.75195,0.92578 -0.27675,0.31552 -0.4842,0.33382 -0.89258,0.50781 -0.55261,0.23438 -1.38955,0.43374 -2.05664,0.72852 -2.07971,0.92041 -0.54419,1.34194 -3.81836,1.4375 -0.50753,0.0144 -1.00045,0.64151 -1.24024,1.02734 0.15235,0.63464 0.35427,1.29069 0.39844,1.94336 0.005,0.0658 0.25179,1.13069 0.32031,1.52734 0.0388,0.22808 -0.067,0.52584 -0.0273,0.75391 0.15415,0.87714 0.50375,1.62752 0.54883,2.56055 1.43425,1.68666 6.87244,8.06444 6.94726,8.22851 l 4.32227,9.42969 809.52349,0 c -0.3453,-0.68714 -0.6743,-1.37977 -0.9024,-2.0625 -0.5517,-1.6479 0.2022,-3.96778 0.037,-5.69141 -0.1884,-1.97152 -1.0061,-3.99046 -1.584,-5.86914 l -1.9707,-6.40234 c -0.01,-0.0252 -2.7791,-2.9372 -2.9414,-3.10938 0.5499,-2.52503 2.1206,-4.53883 3.2753,-6.78711 0.5644,-1.09889 0.8365,-2.43129 1.17,-3.61132 l 0.08,-0.28907 c 2.4178,-1.67314 3.5312,-2.73817 4.7383,-5.30468 0.6653,-1.4144 1.8041,-2.38323 2.8985,-3.4668 0.014,-0.0144 0.8233,-2.73241 0.8828,-2.93164 0.44,-1.45949 0.1772,-2.10483 0.4297,-3.11719 0.3191,-1.27739 1.0471,-2.29292 1.4609,-3.51172 0.4363,-1.2846 0.403,-2.7196 0.7266,-4.00781 0.1948,-0.77076 1.5542,-3.25088 1.3847,-3.8125 -0.4417,-1.45768 -1.2395,-3.44331 -1.5019,-4.9082 -0.09,-0.50753 0.069,-0.98931 -0.082,-1.51758 -0.577,-2.02201 -0.5697,-1.34099 -1.3594,-2.89063 -0.5779,-1.13406 -0.7525,-2.39778 -0.9688,-3.63281 -0.021,-0.11989 -0.097,-0.27734 -0.1386,-0.39453 -0.412,-1.16922 -0.78,-2.39328 -1.2461,-3.53906 -0.521,-1.28009 -1.6013,-2.61488 -1.9024,-3.9707 -0.7347,-3.30751 0.4864,-6.58657 0.207,-9.94727 -0.083,-1.00154 -0.7217,-1.44183 -1.0507,-2.29102 -0.1542,-0.39485 -0.195,-1.06203 -0.2735,-1.49023 -0.096,-0.52015 -0.2663,-1.71197 -0.051,-2.19336 1.3703,-1.02678 3.0394,-2.06215 4.2735,-3.23047 1.9075,-1.804747 4.2344,-3.318461 6.4512,-4.726566 0.8005,-1.06284 0.5912,-2.757766 1.1484,-4 0.6021,-1.344097 1.9645,-1.784049 2.5234,-3.306641 l 0.4356,0.226563 0.1289,0.398437 0.3437,0.429688 0.1094,-0.455078 c -0.022,-0.240686 -1.0439,-2.666909 -1.2891,-2.923829 l 0,-0.886718 c -0.1145,-0.111783 -0.2844,-0.380553 -0.2636,-0.552735 l -0.4082,-0.419922 -0.1192,-0.658203 -0.1699,-0.09766 c -0.1388,0.0595 -0.6547,0.248201 -0.8008,0.167969 -0.063,-0.06671 -0.1091,-0.161356 -0.1406,-0.246094 l 0.2051,-0.466797 -0.066,-0.253906 c -0.3498,-0.29298 -0.6935,-0.6965 -0.9297,-1.085938 l -0.025,-0.347656 c -1.0439,-0.463358 -0.4659,-0.727744 -0.7832,-1.269531 -0.3489,-0.593171 -0.9036,-1.13264 -1.2949,-1.705078 -0.6536,-0.957367 0.062,-3.693024 0.2441,-4.650391 0.013,-0.06581 -0.02,-0.323015 -0.025,-0.402344 -0.2957,-0.770762 -1.4829,-1.249524 -2.1347,-1.923828 -0.3092,-0.09826 -0.6869,-0.395579 -0.9375,-0.455078 -0.4805,-0.114487 -1.1652,0.09752 -1.5411,-0.349609 l -0.3183,0.210937 -0.3301,-0.01563 -0.2969,-0.285156 -0.2011,-0.01563 c -0.321,0.335349 -1.6574,-0.04476 -1.9864,-0.277344 -1.2837,0.340757 -0.8615,-0.334583 -1.625,-0.376953 -0.3534,-0.01983 -0.8174,0.0049 -1.1582,-0.06445 -0.3786,-0.07753 -0.5539,-0.398289 -1.1308,-0.349609 -0.1884,-0.118995 -0.5806,-0.476103 -0.586,-0.728516 -0.1344,-0.04237 -0.2862,-0.141374 -0.416,-0.173828 -0.3083,-0.07662 -0.789,-0.138667 -1.0703,-0.267578 -0.3191,-0.146039 -0.3386,-0.468597 -0.8281,-0.548828 -1.2846,-0.210945 -2.8131,-0.48168 -4.1094,-0.261719 -0.3633,0.0622 -0.82,0.174591 -1.168,-0.03906 -1.0547,0.326334 -1.9443,0.912696 -2.9648,1.294922 l -0.1094,0.300782 c -0.7888,0.43992 -1.72,0.437338 -2.5566,0.728515 -0.9195,0.320024 -0.3968,0.50947 -1.6895,0.376953 -0.8492,-0.948353 -2.6729,-0.593902 -3.7168,-0.548828 l -0.5566,-0.296875 c -0.1722,-0.03876 -0.4562,0.07632 -0.586,0.183594 l -0.6015,-0.125 -0.1621,0.441406 -0.1817,-0.351562 -0.3164,0.121093 -0.1855,-0.214843 c -0.1794,-0.137926 -1.1148,0.04612 -1.4141,0.08398 l -0.2012,-0.283203 c -0.1857,-0.0631 -0.662,0.262917 -0.791,0.371094 l -0.2695,-0.0957 -0.1406,-0.390624 -0.8106,0 c -0.128,0.1226 -0.5206,0.452973 -0.709,0.474609 -0.3994,-0.214552 -1.7476,-0.151595 -2.1875,-0.119141 l 0.031,-0.355468 c -0.1172,-0.183902 -0.4798,-0.68284 -0.6953,-0.767579 -0.3795,-0.04237 -0.6245,0.181791 -0.9707,0.207032 l -0.9219,-0.002 c -0.1812,-9.02e-4 -0.2844,-0.02715 -0.4629,-0.002 -0.4381,0.0622 -0.9172,0.291013 -1.3535,0.396485 -0.3579,0.08564 -0.6957,-0.115832 -1.0176,-0.240235 -0.7401,-0.285768 -2.6076,-0.380854 -3.5019,-0.521484 -3.0659,-0.920407 -2.0393,0.08227 -4.9258,-2.294922 -0.5941,-0.489503 -2.5008,-0.521908 -3.0156,-1.277344 l 0.1543,-0.255859 c 0.3272,0.01352 0.7522,-0.02074 1.0722,0.04687 0.2912,0.0622 0.5142,0.397388 0.8613,0.314453 l 0.17,-0.0957 -0.1153,-0.28125 0.3086,-0.470703 c -0.1298,-0.473275 -3.1233,-1.46574 -3.7363,-1.605469 -0.2055,-0.04688 -0.6387,0.267879 -0.8262,0.248047 l 0.096,-0.296875 -0.074,-0.210938 c -0.2488,-0.499417 -3.2004,0.203477 -4.6211,-1.152343 l -0.3281,0.105469 -0.5352,-0.660157 -1.9843,-0.583984 c -0.2579,-0.07662 -0.4746,-0.400237 -0.709,-0.503906 -1.4694,-0.649063 -3.5749,-0.603956 -5.166,-0.878907 -0.2398,-0.04147 -0.4936,-0.218448 -0.7325,-0.25 -0.3488,-0.04597 -0.9218,0.209127 -1.1679,0.445313 l -4.1914,0.144531 c -0.2317,-0.06581 -0.4991,-0.216043 -0.7227,-0.3125 l -0.5683,0.207031 c -0.7528,-0.348871 -1.2315,0.28606 -1.8301,0.238282 l -0.4903,-0.234375 c -0.3552,0.07753 -1.0855,0.167973 -1.457,0.08594 l -0.334,-0.304687 c -1.5577,0.971791 -3.9527,-0.636981 -5.0976,-1.671875 -0.329,-0.115389 -0.65,0.03846 -0.9746,0.06641 -0.5616,0.04868 -1.6676,-0.945786 -2.2247,-0.341797 l -0.098,0.283203 c 0.1145,0.641851 0.5885,0.566503 0.7949,1.986328 0.026,0.175787 0.2876,0.743386 0.4453,0.851563 l -0.1093,0.285156 -0.2735,-0.0918 c -0.4895,-0.869023 -1.1459,-1.621809 -1.4785,-2.580078 l -0.2305,-0.142578 c -0.2695,-0.05589 -0.742,0.06667 -0.9863,0.164062 -1.0385,-0.203733 -2.6575,-2.411466 -2.5449,-3.529297 -0.1208,-0.248807 -0.322,-0.519224 -0.5293,-0.703124 l -0.2012,-0.04883 -0.1601,-0.160156 0.025,-0.175781 -0.3086,-0.382813 c -0.2847,-0.02704 -1.0739,-0.587435 -1.5742,-0.699218 -0.1001,-0.224467 -0.3671,-0.550178 -0.6015,-0.648438 -0.2786,0.08293 -0.6367,0.114978 -0.918,0.0293 -1.3792,-0.420088 -1.9364,-0.328683 -2.7559,-1.460938 -0.7013,-0.969087 -0.4804,-1.417783 0.039,-2.353515 0.1407,-0.252413 0.6986,-1.153538 0.6328,-1.367188 -0.1028,-0.330841 -0.4328,-0.832925 -0.7519,-0.996093 l -0.031,-0.173828 0.3457,-0.04492 0.082,-0.16211 -0.1796,-0.345703 0.096,-0.230469 0.3867,-0.03125 c 0.063,0.0604 0.1574,0.125148 0.207,0.197266 0.3561,0.517447 0.6063,0.815633 1.0742,1.404297 -0.098,0.09646 -0.6731,-0.06868 -0.8047,-0.0957 l -0.084,0.162109 0.6718,0.673828 c 0.119,0.05679 0.3531,0.07708 0.4766,0.01758 0.622,-0.521053 0.09,-1.443336 0.2598,-2.029297 l 0.2714,-0.111328 c 0.1956,-0.2443 0.3407,-0.715282 0.3379,-1.02539 l 0.2266,-0.111328 0.1816,-0.310547 c -0.1613,-0.19562 -0.2786,-0.587431 -0.2597,-0.839844 l -0.334,-0.183594 -0.3145,-0.625 -0.5214,-0.113281 c -0.1162,-0.535477 -1.0038,-1.46528 -1.3301,-1.869141 l 0.025,-0.214843 -0.3731,-0.570313 0.039,-0.201172 0.2695,-0.248047 c 0.2813,-0.466965 -0.8971,-2.006138 -0.2246,-2.583984 l 0.3867,-0.04687 c 0.4544,-0.754535 0.782,-1.154416 0.8965,-1.988281 -0.3434,-1.440559 -2.018,-1.11987 -2.4101,-1.703125 l -0.877,0.08203 c -0.4895,-0.70856 -2.2843,-0.794931 -3.0938,-0.548828 -0.6852,-0.332644 -1.4426,-0.368538 -2.1855,-0.44336 -0.3146,-0.03155 -0.5074,-0.355915 -0.7715,-0.455078 -0.4345,-0.164068 -1.003,-0.163161 -1.4726,-0.175781 -0.3904,-0.468768 -1.203,-0.499542 -1.7168,-0.705078 -0.2353,-0.09375 -0.4513,-0.328573 -0.6875,-0.416016 -0.1235,-0.04507 -0.5174,-0.01968 -0.6211,-0.06836 -0.348,-0.164068 -0.649,-0.518322 -0.9942,-0.691406 l -1.5918,-0.667969 -0.7968,-0.332031 c -0.09,-0.03786 -0.4035,-0.02613 -0.5352,-0.05859 -2.3618,-0.584156 -4.632,-1.463467 -6.9551,-2.126953 -0.1911,-0.245202 -0.3727,-0.491577 -0.5683,-0.777344 -0.6535,-0.387635 -1.8695,-0.177134 -2.6133,-0.134765 -0.4804,-0.365097 -1.1663,-0.765922 -1.7676,-0.886719 l -0.3027,-0.503907 c -0.32,-0.34256 -2.2877,-0.306786 -2.8809,-0.390624 -0.099,-0.01352 -0.3404,-0.178185 -0.4531,-0.207032 -0.1118,-0.02885 -0.5209,-0.03035 -0.5957,-0.06641 -0.6897,-0.333547 -1.3271,-0.989768 -1.9707,-1.417969 -0.4517,-0.300191 -0.7776,-0.319839 -0.9922,-0.90039 -0.6743,0.212748 -1.5909,-0.517717 -2.1309,-0.824219 -0.049,-0.02795 -0.2013,-5.93e-4 -0.2617,-0.01953 -0.1271,-0.04057 -0.6283,-0.284104 -0.7148,-0.294922 -0.5346,-0.06581 -1.1229,0.0586 -1.6602,0 -0.3714,-0.04057 -0.779,-0.231668 -1.1504,-0.304688 -0.119,-0.02344 -0.3063,-0.003 -0.4316,-0.0039 l -0.2129,0.177734 c -1.6109,-0.0045 -6.1825,0.342615 -6.9668,-1.417968 -0.2686,-0.601284 -0.2874,-0.795501 0.078,-1.400391 l -0.076,-0.160156 c -1.1494,-1.086278 -2.1855,-0.428335 -3.498,-0.447266 -0.2263,0.225369 -0.5323,0.29552 -0.8262,0.384766 -0.073,0.02254 -0.4852,0.468597 -0.5898,0.52539 -0.631,0.34166 -1.3757,0.592695 -2.0879,0.685547 -1.1196,0.145137 -2.1658,0.01442 -3.2656,0.04687 -1.1241,0.03245 -2.0997,0.308589 -3.1797,0.4375 -0.6076,0.07302 -0.9367,-0.421134 -1.666,-0.154297 -0.3561,-0.311911 -2.7699,-0.417366 -3.3243,-0.46875 -1.565,-0.146941 -3.3395,-1.334722 -4.8847,-1.683593 -0.5958,-0.13432 -1.2447,-0.197413 -1.8496,-0.292969 l -0.3438,0.03711 c -1.1358,0.416482 -2.0129,0.638967 -3.2109,0.794922 -0.023,0.0027 -0.2223,0.135366 -0.2539,0.154297 l -0.268,-0.203046 c -0.3011,0.159562 -0.8476,0.894079 -0.9414,0.935547 -0.5886,0.263231 -0.789,0.633248 -1.2695,1.037109 -0.5842,0.491304 -2.0411,1.187776 -2.4161,1.847656 l -0.414,0.09375 c -0.1001,0.09646 -0.4975,0.51953 -0.5957,0.554688 -0.7447,0.267738 -0.4445,0.397222 -0.916,0.78125 -0.4165,0.338955 -1.1604,0.527474 -1.3731,1.080078 l -0.6328,0.101563 c -0.4958,0.916801 -1.1003,0.501028 -1.6016,1.111328 -0.7401,-0.05679 -1.2799,0.489024 -1.9218,0.720703 -0.085,0.03155 -0.3884,-0.03501 -0.4903,-0.0098 -0.3786,0.09375 -0.7662,0.334734 -1.1718,0.390625 -0.3264,0.04507 -0.7558,0.183444 -1.0704,0.19336 -0.1271,0.0045 -0.364,-0.07977 -0.4785,-0.06445 -0.2091,0.02705 -0.4314,0.18194 -0.6406,0.208984 -0.2407,0.03065 -0.5233,-0.04807 -0.7676,-0.02734 l -3.6504,0.3125 c -0.4047,0.03516 -0.8378,-0.109076 -1.1875,-0.09375 -0.5049,0.02254 -1.0682,0.09462 -1.5703,0.07031 -0.2227,-0.01082 -0.4765,-0.171575 -0.6992,-0.179688 -1.2774,-0.04868 -2.6446,0.09886 -3.9355,0.101563 -0.087,0 -0.3508,0.120492 -0.4571,0.136718 -2.1906,0.334448 -1.2843,0.287232 -3.1152,1.039063 -0.1713,0.07032 -0.4218,0.05049 -0.5859,0.128906 -0.36151,0.173084 -0.71427,0.527488 -1.08208,0.669922 -0.13522,0.05228 -0.64587,0.0057 -0.79101,0.05664 -0.62202,0.220862 -1.204,0.636709 -1.82422,0.871093 -0.12891,0.04868 -0.5323,0.03591 -0.68555,0.08008 -0.10637,0.02975 -0.35667,0.237526 -0.42968,0.322265 -0.57515,0.666191 -1.13805,0.941839 -1.84571,1.416016 -0.0874,0.0586 -0.30108,0.316264 -0.375,0.349609 -0.97269,0.438118 -1.93175,0.933878 -2.90625,1.359375 -0.97089,0.423693 -2.08019,0.681474 -3.01953,1.125 -0.56072,0.265034 -1.18191,0.854557 -1.99414,1.125 -1.18453,0.393945 -2.32763,0.800772 -3.4707,1.292969 -2.06528,0.888864 -3.75593,1.883083 -5.87891,2.683594 -0.64906,0.2443 -1.1047,0.949355 -1.64648,1.326172 -0.55171,0.383127 -1.26906,0.537993 -1.7793,1.017578 -0.25782,0.241596 -0.4456,0.584125 -0.70703,0.820312 -0.61301,0.557112 -1.35169,0.902777 -2.02149,1.365234 -0.97089,0.669796 -1.89569,1.414489 -2.87109,2.076172 -0.56432,0.384029 -1.20235,0.621228 -1.74414,1.06836 -1.54603,1.275588 -2.95773,2.793367 -4.38477,4.193359 -0.26143,0.255118 -0.5078,0.630852 -0.78906,0.853516 -0.21636,0.170379 -0.57541,0.233317 -0.80078,0.396484 -1.22511,0.886151 -5.15459,4.619097 -5.76758,5.802735 l 0.31641,0.548828 -0.15039,0.128906 c -0.17759,0.04507 -0.47881,-0.114028 -0.59961,-0.228516 -0.69143,0.905082 -1.14794,1.79236 -2.34961,1.972656 -0.0577,0.670699 -0.2264,0.805119 -0.5293,1.326172 -0.11358,0.19562 -0.18209,0.524331 -0.25781,0.746094 -0.25512,0.743718 -0.96331,1.30271 -1.57812,1.958984 0.2425,0.245202 0.21018,0.150231 0.2832,0.441407 l 0.20312,0.04687 0.16211,-0.169922 0.17774,0.125 0.0684,0.197266 -0.16992,0.291015 -0.21094,0.03711 c -0.20914,-0.02254 -0.46739,-0.341489 -0.54492,-0.513671 l -0.19727,0.06445 c -0.22087,0.311009 -0.29717,1.408186 -0.5,1.876953 -0.39305,0.908688 -1.01515,1.56112 -1.64258,2.318359 -0.21816,0.263231 -0.4163,0.541909 -0.67773,0.763672 -1.98955,1.68576 -2.23766,1.5271 -2.94532,4.044922 0.082,0.417385 0.49338,0.965134 0.80079,1.238281 l -0.75,1.603516 c 0.52105,0.972692 0.25241,0.86911 0,1.689453 -0.27766,0.902377 -0.33262,1.287075 -0.77344,2.189453 -0.11268,0.231679 -0.20688,0.457623 -0.26367,0.710938 0.44262,0.723885 0.39934,1.892539 0.25781,2.689453 -0.028,0.157749 -0.28576,0.576467 -0.30469,0.720703 -0.1208,0.930323 0.0762,1.891794 0.26367,2.796875 0.0144,0.06671 0.0896,0.185093 0.1211,0.25 0.37231,0.766254 1.1044,1.901563 1.31445,2.701172 0.34166,1.300829 0.37635,3.017978 0.54492,4.371094 l 0.0899,0.722656 c 0.12351,0.984412 0.85426,1.919584 1.0625,2.923828 0.1821,0.881644 0.25855,1.833199 0.38476,2.726562 0.008,0.0613 -0.0673,0.568206 -0.0781,0.660157 l 0.23047,0.126953 0.47265,0.04102 c 1.19085,0.769861 0.10321,1.966773 0.38086,2.634773 0.13342,0.32183 0.36027,0.61747 0.5,0.9375 0.17128,0.39303 0.26096,0.85305 0.45117,1.23437 0.13252,0.26684 0.99983,1.70402 1.32618,1.94922 0.3074,0.23168 0.75989,0.43689 1.03124,0.69922 1.18724,1.14397 1.954,2.83708 2.76172,4.24609 0.20644,0.35969 0.29598,1.00915 0.41407,1.41211 1.0953,0.87533 1.11491,1.92663 1.5332,3.26172 0.20193,0.64816 0.7449,2.09162 0.66016,2.65234 -0.22446,1.49464 -0.2252,3.02969 -0.56055,4.5 -0.35699,1.56857 -1.14301,2.77999 -1.6875,4.20703 -0.16227,0.42369 -0.19981,0.92351 -0.3711,1.3418 -0.26593,0.64726 -0.72399,1.15157 -1.13867,1.69336 -0.41197,0.53908 -0.63295,1.3894 -0.8457,2.01953 -0.0153,0.0451 -0.0275,0.11568 -0.0527,0.15625 -0.26413,0.41919 -0.64783,0.90714 -0.85157,1.35156 -0.15235,0.33265 -0.15744,0.7877 -0.28906,1.13477 -0.15235,0.40566 -0.40729,0.83111 -0.6543,1.33594 -0.9213,1.37384 -1.87736,2.73643 -2.97265,3.98047 -0.88976,1.00965 -0.97278,0.68008 -1.64258,2.06836 -0.0216,0.0469 -0.0408,0.11373 -0.0723,0.15429 -0.59227,0.75905 -1.01005,1.44513 -1.45898,2.29883 -0.0505,0.0965 -0.094,0.20958 -0.15625,0.29883 -1.17551,1.69928 -2.30629,3.23732 -3.7793,4.70312 -0.53818,0.53548 -1.26365,0.9166 -1.80273,1.45118 -0.38944,0.38583 -1.37469,1.42666 -1.67578,1.83593 -0.15506,0.21005 -0.18855,0.57632 -0.3418,0.78907 -0.29388,0.40837 -0.80212,0.96634 -1.16992,1.3125 -1.06013,1.00064 -2.47156,1.73644 -3.59571,2.67578 -0.33263,0.27765 -0.58322,0.7518 -0.92578,1.00781 -0.73831,0.55261 -1.65652,1.02507 -2.44531,1.51367 -0.62382,0.38583 -1.10543,1.05378 -1.79687,1.45313 -0.70585,0.13883 -1.18494,0.17505 -1.54102,-0.50196 l -0.25586,0.008 -0.51562,0.52734 c -0.60399,-0.16767 -0.86387,0.323 -1.23438,0.60156 -0.32543,0.2452 -0.6379,0.32961 -1.01562,0.67578 -0.78248,0.40836 -1.48195,0.90864 -2.23828,1.32422 -1.69567,0.93212 -3.77067,2.33095 -5.53126,3.04492 -2.086,0.84648 -7.89264,2.92684 -10.26171,2.84571 -1.11964,-0.0379 -2.17108,-0.1528 -3.28711,-0.0996 -0.21815,0.0108 -0.48993,-0.16857 -0.70899,-0.16406 -0.59046,0.0117 -1.19273,0.16285 -1.7832,0.17187 -1.76509,0.0252 -3.3865,-0.25494 -5.10742,-0.58398 l -0.22071,-0.0566 c -2.94422,-0.79239 -2.65872,-1.8138 -4.8457,-2.86132 -0.16857,-0.0811 -0.27659,-0.0908 -0.45508,-0.14844 -0.68873,-0.22447 -1.31518,-0.59239 -1.98047,-0.81055 -0.0757,-0.0252 -0.2246,0.0254 -0.29492,-0.004 -1.04391,-0.42459 -1.45024,-0.37107 -2.10742,-1.16797 -0.0153,-0.14063 -0.12605,-0.98663 -0.11523,-1.07227 -0.84649,-0.485 -1.42321,0.0875 -2.20118,-0.0234 -0.45164,-1.41442 -5.42336,-0.41034 -5.41796,-3.35546 -0.20824,-0.26954 -0.48242,-0.30378 -0.74024,-0.48047 -0.62292,-0.4255 -3.12905,-2.36448 -3.49414,-2.74219 l -0.0703,-0.22461 0.1875,-0.62305 -0.0742,-0.26953 c -0.34797,-0.0144 -1.59014,-0.13311 -1.89844,-0.3125 -0.34256,-0.19923 -0.61252,-0.66525 -0.94336,-0.90234 -0.35969,-0.25782 -0.91059,-0.30574 -1.20898,-0.51758 -0.30109,-0.21365 -0.55978,-0.5966 -0.84375,-0.8418 -0.37771,-0.32634 -0.87454,-0.35681 -1.25586,-0.60742 -1.16831,-0.76896 -0.86322,-0.83501 -2.38672,-1.51562 -0.16407,-0.0739 -1.9949,-1.79852 -2.00391,-2.12305 -0.27946,-0.81944 -0.48121,-0.30468 -1.00586,-0.65625 -1.18004,-0.7915 -2.2151,-1.60182 -3.22656,-2.60156 l -0.13281,-0.16992 c -0.027,-0.10819 -0.18239,-0.78622 -0.21484,-0.84571 -0.73561,-1.34501 -2.86266,-1.96387 -3.52344,-3.64062 -1.06104,-0.17128 -1.26169,-0.92277 -2.07031,-1.28516 -0.52737,-0.23709 -1.30573,-0.45312 -1.86915,-0.58203 -1.21879,-0.27946 -2.51888,-0.42953 -3.71874,-0.76758 -0.66169,-0.18661 -1.34328,-0.5966 -1.99415,-0.8418 -0.95556,-0.35969 -2.2761,-0.38446 -3.10546,-0.62695 -0.8528,-0.24881 -1.59116,-0.67817 -2.47461,-0.85937 -0.19742,-0.0406 -1.32797,-0.23828 -1.51368,-0.39063 -0.66709,-0.5481 -1.60246,-1.47007 -1.46093,-2.41211 -0.1217,-0.16496 -0.43224,-0.30739 -0.62696,-0.33984 l 0.0137,-0.71094 c -0.32813,-0.0721 -0.7569,-0.36117 -0.98047,-0.60547 l -1.58594,0.084 c -1.31976,-0.88795 -3.09985,-0.59029 -4.58008,-0.92383 -0.82485,-0.18571 -1.68281,-0.51382 -2.49414,-0.76172 -0.50393,-0.15415 -0.80828,-0.43989 -1.22656,-0.69141 -0.34166,-0.20553 -0.73376,-0.12514 -1.08985,-0.23242 -0.83747,-0.25151 -1.66914,-0.93538 -2.5039,-1.21484 -0.43632,-0.14604 -0.93719,-0.16436 -1.37891,-0.29688 -0.34436,-0.10367 -0.67125,-0.31459 -1.01562,-0.42187 -1.64429,-0.51294 -3.31139,-0.83215 -4.85742,-1.64258 -0.34798,-0.1821 -0.37469,-0.5347 -0.60547,-0.79883 -0.15145,-0.17308 -1.01742,-0.63146 -1.23829,-0.75586 -0.34707,-0.19653 -0.78844,-0.29176 -1.16796,-0.41797 -0.0631,-0.14964 -0.33113,-0.3161 -0.47266,-0.37109 l 0.0312,-0.40234 -0.13867,-0.20899 c -1.57127,0.0469 -3.12089,-0.14918 -4.67774,-0.32226 -0.39665,-0.0442 -0.62964,-0.39212 -0.87304,-0.65625 -0.71397,-0.027 -1.1977,-0.31851 -1.84766,-0.4961 -0.6689,-0.183 -2.08847,-0.21604 -2.6582,-0.41797 -0.30831,-0.10818 -0.61793,-0.39648 -0.91992,-0.53711 -0.64005,-0.29929 -1.4181,-0.12815 -2.06446,-0.31836 -1.24314,-0.366 -2.56215,-0.7892 -3.76562,-1.27148 -0.0811,-0.0324 -0.18765,-3.1e-4 -0.27149,-0.0273 -2.20952,-0.71306 -4.38422,-1.36988 -6.67578,-1.73047 -0.68782,-0.10908 -1.40382,-0.10337 -2.08984,-0.21875 -0.55982,-0.0947 -1.11191,-0.30965 -1.66992,-0.41602 -0.4868,-0.0928 -1.05122,-0.0661 -1.52539,-0.1914 -1.31796,-0.34706 -2.64058,-0.83712 -3.94141,-1.25 l -1.00781,-0.32227 c -0.7329,0.35699 -1.43312,0.0474 -2.16602,-0.0977 -0.43271,-0.0865 -3.44304,0.0413 -3.94336,0.10352 -0.35699,0.0451 -0.75314,0.26638 -1.10742,0.28711 -0.47688,0.0279 -1.01485,-0.12741 -1.49805,-0.13281 -0.11268,-9.1e-4 -0.36312,0.0969 -0.49023,0.11132 -0.50573,0.0577 -1.06503,-0.0792 -1.58789,-0.0683 -0.80231,0.0171 -1.66029,0.0942 -2.45899,0.0527 -0.90689,-0.0469 -1.81877,-0.26442 -2.72656,-0.32031 -1.56676,-0.0956 -3.09324,0.11899 -4.66992,-0.0937 -1.57849,-0.21275 -3.12088,-0.51773 -4.71289,-0.69532 -1.3459,-0.14964 -2.74259,-0.53695 -4.07227,-0.74609 -1.36664,-0.21455 -2.79712,-0.43928 -4.07812,-0.90625 -0.29387,-0.10727 -0.7231,-0.0209 -1.0332,-0.0957 -0.61301,-0.14694 -1.21392,-0.39543 -1.82422,-0.5586 -0.27946,-0.0748 -0.59464,-0.0568 -0.875,-0.1289 -1.13676,-0.29208 -2.13864,-0.80032 -3.22852,-1.2168 -0.8519,-0.32543 -1.76605,-0.55498 -2.60352,-0.91016 -0.71217,-0.302 -1.33575,-0.94605 -2.04882,-1.24804 -0.59768,-0.25241 -1.27327,-0.37499 -1.88086,-0.60938 -0.21996,-0.0847 -0.41962,-0.26922 -0.63867,-0.35937 -1.48924,-0.61661 -2.0052,-0.7477 -3.52149,-1.85742 -0.73921,-0.43902 -1.47233,-0.68674 -2.23047,-1.06446 -0.59587,-0.29659 -0.91405,-0.80422 -1.41797,-1.13867 -0.76535,-0.50843 -1.63187,-0.94665 -2.42968,-1.4082 -0.40115,-0.23258 -0.89798,-0.55828 -1.17383,-0.92969 -0.9754,-1.31435 -2.01379,-2.618943 -2.94141,-3.964846 -0.68422,-0.992525 -1.01154,-2.088456 -1.83008,-3.033203 -0.32814,-0.37862 -0.80242,-0.665551 -1.12695,-1.046875 -0.74462,-0.874432 -1.48074,-2.255067 -2.05859,-3.335937 -0.84378,-1.799346 -1.66494,-3.620724 -2.36719,-5.480469 -0.16407,-0.436314 -0.20883,-0.993524 -0.40625,-1.408203 -0.72028,-1.512676 -1.701,-2.936543 -2.39063,-4.460938 -0.29749,-0.658078 -0.46242,-1.592822 -0.66796,-2.296875 l -1.70313,-5.828125 c -0.15685,-0.537279 -0.0759,-0.373633 -0.40039,-0.74414 0.23438,-1.256657 0.49415,-2.26618 0.2832,-3.585938 -0.0622,-0.394846 -0.31551,-0.791601 -0.26953,-1.208984 0.0658,-0.597679 0.17127,-1.335616 0.29297,-1.917969 0.11179,-0.533674 0.436,-0.839822 0.37109,-1.449219 -0.21906,-2.06438 -0.61894,-2.083469 -1.77734,-3.777343 -0.58415,-0.8546 -0.80693,-1.994555 -1.0332,-2.984376 l -0.0449,-0.203124 c -0.3092,-0.831162 -0.69696,-1.583955 -1.03321,-2.392579 -0.10187,-0.245201 -0.12064,-0.54912 -0.23242,-0.787109 -0.14424,-0.309206 -0.77343,-0.413454 -1.01953,-0.59375 -0.19112,-0.14063 -0.35366,-0.433888 -0.53125,-0.601562 -0.77076,-0.728392 -1.28047,-1.232989 -2.02149,-2.166016 0.0487,-0.137024 0.0455,-0.374395 -0.0176,-0.507813 -0.7302,-0.662585 -4.93282,-1.869735 -5.80274,-2.052734 -1.43966,-0.301995 -4.19813,0.336573 -5.28711,-0.617187 -0.7329,0.266837 -1.62286,0.05634 -2.42968,-0.04102 -0.10367,-0.06941 -0.76458,-0.533353 -0.83399,-0.558594 -0.6121,-0.225369 -2.2378,-0.465143 -2.92383,-0.492187 l -0.16992,-0.02148 c -1.97243,-0.245201 -1.04262,-2.73e-4 -2.30469,0.140625 -0.0289,0.0027 -4.71318,-0.01803 -4.81054,-0.03516 -0.38403,-0.06761 -0.85651,-0.285752 -1.23243,-0.410156 -1.11422,-0.369605 -2.06742,-0.420793 -3.05273,-1.240235 -0.90508,-0.752732 -1.13911,-0.963488 -1.41406,-1.052734 -0.26052,-0.08564 -0.55631,-0.06368 -1.49024,-0.289062 -0.38313,-0.09195 -0.68463,-0.342546 -1.11914,-0.386719 -1.04121,-0.105472 -2.04323,-0.181184 -3.08984,-0.339844 -3.27416,-0.497615 -1.52603,-0.0157 -4.64063,-1.283203 -0.11629,-0.04688 -0.2282,-0.224304 -0.33007,-0.361328 -1.05923,-1.98505 -1.55462,-1.908462 -3.72266,-3.013672 -1.24314,-0.633737 -1.88007,-2.219926 -3.06641,-2.925781 -0.64996,-0.386734 -2.35845,-0.710007 -2.65234,-1.484375 -0.70224,-0.269541 -1.98348,-0.977581 -1.83203,-1.857422 l -0.25195,-0.236328 c -1.61724,-0.08654 -1.28631,-0.502834 -2.625,-1.052735 -0.83567,0.375916 -1.93627,-0.643647 -3.03516,-0.175781 l -0.42383,-0.228516 c -0.92762,0.146039 -1.60514,-0.228663 -2.46875,-0.300781 -0.71037,-0.0595 -1.54699,-0.05424 -2.24023,-0.189453 -0.2479,-0.04778 -3.21153,-1.39302 -3.54688,-1.644531 -0.37682,-0.283064 -0.74021,-0.667055 -1.09179,-0.984375 -0.0234,-0.02164 -0.28305,-0.09931 -0.39844,-0.119141 -0.87623,-0.03696 -1.0099,-0.219196 -1.69141,-0.330078 -0.84198,-0.137024 -1.74982,0.07488 -2.56836,-0.05664 -0.0361,-0.0063 -0.46859,0.003 -0.50195,-0.0078 -0.66438,-0.227172 -1.33516,-0.495189 -2.04102,-0.566406 l -0.22265,-0.302735 c -0.6076,-0.353378 -2.65399,-0.19488 -2.97852,0.291016 -0.18751,-0.04057 -0.58247,-0.04207 -0.75195,0.07422 l -0.51172,-0.242188 c -2.18337,0.319122 -4.26794,0.461249 -6.46484,0.160156 -0.22086,-0.03065 -0.42323,-0.218446 -0.62696,-0.273437 -0.0793,-0.02163 -0.36192,-0.02194 -0.41601,-0.05078 -1.36483,-0.717575 -2.67453,-1.354095 -4.10157,-1.935547 -0.0469,-0.01803 -0.20673,-0.06403 -0.23828,-0.09375 -0.0956,-0.08925 -0.92112,-0.886869 -0.9707,-0.91211 -0.93032,-0.484093 -2.1463,-0.493364 -3.12891,-1.152343 -0.53187,-0.356985 -1.0703,-0.916 -1.5625,-1.337891 -0.037,-0.03155 -0.21198,-0.348705 -0.24804,-0.408203 -0.0333,-0.01533 -0.30664,-0.157152 -0.33008,-0.15625 -1.1016,0.04237 -2.6155,0.100671 -3.66211,-0.15625 -0.26504,-0.06581 -0.5374,-0.237827 -0.79883,-0.326172 -1.1638,-0.394837 -2.02264,-0.215599 -3.23242,-0.0957 -0.42731,0.04237 -0.63747,0.254052 -1.00977,0.337891 -0.2407,0.05409 -0.54972,-0.02946 -0.79492,0.01562 -0.38313,0.06941 -0.61882,0.312051 -1.07226,0.271485 l -0.36328,-0.371094 c -0.69503,-0.182999 -1.34431,1.84843 -2.3711,1.236328 -0.33264,0.215453 -0.63986,0.179983 -0.95898,0.3125 -0.5463,0.228074 -1.01681,0.611922 -1.60547,0.783203 -0.24791,0.07302 -0.55439,0.0488 -0.79688,0.13086 -0.59949,0.201931 -1.36205,0.807696 -2.05078,0.679687 l -0.80078,0.496094 c -0.50212,0.295684 -0.78303,0.242783 -1.29687,0.414063 -0.32092,0.106373 -0.62739,0.364629 -0.94922,0.46289 -0.25422,0.07753 -0.60036,0.03381 -0.86719,0.08789 -0.43632,0.08744 -0.87424,0.492634 -1.31055,0.603515 -0.86903,0.221754 -1.73614,0.181188 -2.60156,0.257813 -0.41558,0.03696 -0.87649,0.323916 -1.29297,0.402344 -2.23295,0.420088 -4.65121,0.770884 -6.92383,0.751953 -0.88886,-0.0072 -1.71616,0.01217 -2.62304,0.08789 -0.0721,0.0063 -0.32302,-0.142426 -0.41407,-0.152343 -0.68152,-0.07753 -1.39195,-0.04943 -2.08789,0.002 -0.58055,-0.04417 -1.12287,-0.199968 -1.68359,-0.25586 -1.02678,-0.101866 -2.13218,0.127111 -3.15625,-0.09375 -1.67675,-0.361492 -3.36487,-0.759001 -5.01367,-1.125 -0.75544,-0.168576 -1.58862,-0.04371 -2.34766,-0.07617 -1.71822,-0.07212 -3.55372,-0.446498 -5.20703,-0.882812 -0.26052,-0.06941 -0.57406,-0.317754 -0.83008,-0.427734 -0.6707,-0.286669 -1.39,-0.498186 -2.05078,-0.804688 -0.37862,-0.175788 -0.7273,-0.464386 -1.09961,-0.658203 -0.36691,-0.190212 -0.76952,-0.147982 -1.12109,-0.283203 -0.29839,-0.114488 -0.96664,-0.900983 -1.15235,-1.142578 -0.37501,0.03786 -3.23825,-1.365221 -3.73047,-1.740235 l 0.0215,-0.417968 c -0.0811,-0.191113 -1.88475,-0.795214 -2.2832,-1.033203 -0.55982,-0.333547 -1.11582,-0.663446 -1.60352,-1.101563 -0.25512,-0.228975 -0.49833,-0.590437 -0.77148,-0.785156 -0.55891,-0.398452 -1.25179,-0.735114 -1.84766,-1.083985 -0.11269,-0.065809 -0.17623,-0.2137897 -0.28711,-0.2832028 -0.36329,-0.2271719 -0.85966,-0.3647744 -1.25,-0.6171874 -1.4622,-0.9456481 -2.93835,-2.0178471 -4.44922,-2.8769532 -1.15389,-0.656275 -2.94691,-1.0274749 -4.20898,-1.5449218 -0.68872,-0.282162 -1.28048,-0.7178373 -1.92774,-1.0351563 -1.17913,-0.578748 -3.29669,-0.832905 -4.19726,-1.59375 l -0.34766,0.1582031 0.29883,0.3242188 c 0.32814,0.08744 0.74444,0.4365882 0.93555,0.7070312 0.1821,0.08023 0.54297,-0.045214 0.69531,-0.1425781 1.09079,0.02704 1.61582,0.7083742 2.16211,0.9707031 0.26053,0.125305 0.6917,0.1902013 0.97656,0.2695313 0.3615,0.100064 0.69845,0.2812447 1.04102,0.4335937 l 0.21289,0.5097656 c -0.50122,0.1505471 -5.5081,-1.0027025 -5.80469,-1.0703124 -0.31191,-0.07032 -0.71919,0.054459 -1.04102,0.00586 -0.4922,-0.07482 -1.85019,-0.4265173 -2.20898,-0.8339843 l -0.084,-0.3222657 c -0.33446,0.0099 -1.18028,-0.1792256 -1.38672,-0.4785156 C 117.40607,1.1210375 117.28971,1.1070129 116.04297,0 l -0.002,0 z m 623.77929,54.443359 -0.1406,0.164063 0.2656,0.382812 -0.025,0.150391 0.1172,0.144531 0.2422,-0.0332 0.082,-0.1875 -0.1758,-0.332031 -0.3632,-0.289063 0,0 z"
     id="rect8"
     inkscape:connector-curvature="0" />
  <circle
     cx="419.59961"
     cy="400"
     r="100"
     id="circle10"
     style="fill:#ffffff" />
  <circle
     cx="439.81964"
     cy="400"
     r="86.886726"
     id="circle12"
     style="fill:#000000" />
  <path
     d="m 468.22529,400 134.49971,-43.7016 -83.12539,114.41228 0,-141.42136 83.12539,114.41228 z"
     id="path14"
     inkscape:connector-curvature="0"
     style="fill:#ffffff" />
</svg>
