<?xml version="1.0" encoding="UTF-8" standalone="no"?>
<svg
   xmlns:dc="http://purl.org/dc/elements/1.1/"
   xmlns:cc="http://creativecommons.org/ns#"
   xmlns:rdf="http://www.w3.org/1999/02/22-rdf-syntax-ns#"
   xmlns:svg="http://www.w3.org/2000/svg"
   xmlns="http://www.w3.org/2000/svg"
   xmlns:xlink="http://www.w3.org/1999/xlink"
   xmlns:sodipodi="http://sodipodi.sourceforge.net/DTD/sodipodi-0.dtd"
   xmlns:inkscape="http://www.inkscape.org/namespaces/inkscape"
   version="1.0"
   width="305.8306"
   height="600"
   id="svg2"
   inkscape:version="0.91 r13725"
   sodipodi:docname="Flag_of_Liechtenstein.svg">
  <metadata
     id="metadata107">
    <rdf:RDF>
      <cc:Work
         rdf:about="">
        <dc:format>image/svg+xml</dc:format>
        <dc:type
           rdf:resource="http://purl.org/dc/dcmitype/StillImage" />
        <dc:title></dc:title>
      </cc:Work>
    </rdf:RDF>
  </metadata>
  <defs
     id="defs105">
    <clipPath
       clipPathUnits="userSpaceOnUse"
       id="clipPath4245">
      <path
         style="opacity:0.61699997;fill:#000000"
         inkscape:connector-curvature="0"
         id="path4247"
         d="m 418.18776,459.34947 -11.52434,-13.64121 -0.2356,-4.70492 -11.28993,-2.35128 -3.0569,-5.64496 3.99812,-6.35059 2.82248,-6.3494 0.2356,-6.58619 1.41006,-4.93934 6.35058,-6.58618 7.52623,-7.29063 3.99812,-9.87868 -2.57149,-0.63814 -6.83599,-5.71245 -3.76371,-1.41006 -5.88056,-3.9993 -1.41006,-6.11498 1.41006,-8.93865 -3.99813,-8.46627 5.17377,-11.99554 -4.23254,-4.23373 0.46883,-2.11686 -3.2925,-5.40936 0,-3.7637 -1.88126,-0.94123 -5.64496,5.88057 -5.11338,4.7215 -6.71759,1.50359 -6.00962,-1.50359 -5.1264,-3.44641 -4.2432,-6.54001 -1.1484,-8.66161 -4.33555,-5.35846 0.94123,-5.40936 -7.05621,-10.58431 -8.93746,-4.23372 -2.02689,-1.59712 -21.25859,-16.74783 -1.64684,0 -6.82179,2.58688 -6.11498,1.64684 -10.11429,-0.23441 -3.76371,-2.11687 3.52811,-6.58618 8.46744,-5.17495 6.11499,-7.29062 -1.64685,-4.93934 -0.2356,-18.58174 -0.98739,-6.29494 -0.89387,-5.69942 5.64497,-4.70374 6.35058,-5.88057 0.47002,-2.58688 2.35128,-1.41124 0.94122,-7.99624 7.29062,-16.69929 -11.05432,-9.87869 -4.46814,-10.81991 -14.81922,-19.05175 -8.46626,-2.82249 -3.7637,-5.88056 -7.05621,-2.58688 -5.55143,3.74476 -0.44161,-3.0936 -1.94519,-0.972 -3.97681,0.79559 10.26938,-20.70214 7.29063,-10.584312 4.46932,-5.880565 5.87938,-7.290622 0.2356,-6.116167 -14.58243,-22.108653 -3.7637,-1.646843 -2.58806,-3.763704 -2.82249,-1.88126 -10.1131,-9.878685 -8.23185,-3.763704 -8.46744,-7.291807 -0.94004,-2.116861 1.17564,-2.116862 -1.41124,-7.526225 -2.82248,-2.116862 -2.35247,1.17564 -0.94003,-2.586881 L 228.37348,6.350584 222.96412,0 c 0,0 -0.94833,14.34446 -1.18393,17.636962 -0.2356,3.292501 -1.41124,8.466262 -1.41124,8.466262 0,0 -14.34801,38.809126 -15.52365,42.571646 -1.17564,3.76252 -3.7637,8.231844 -3.7637,8.231844 l -16.40686,27.444616 -9.4655,15.83265 c -6.58619,10.11311 -8.46745,23.9911 -9.17307,30.34168 -0.70562,6.35059 -4.23372,15.52365 -4.23372,15.52365 l -3.3884,6.77799 -2.961,5.92318 c -5.40936,9.40867 -10.11311,25.16674 -10.11311,25.16674 l -2.70527,13.52637 -2.70409,13.52163 c -0.94004,5.17494 -0.47002,15.75925 -0.47002,15.75925 l 6.82061,34.10538 c 1.17564,5.40937 3.2925,11.52435 3.2925,11.52435 l 7.09172,16.17363 6.31507,14.40247 c 2.35246,4.46814 3.2925,6.58618 3.2925,6.58618 l 13.17119,18.58055 3.7637,13.878 4.23372,16.46369 4.3095,23.5779 8.15725,44.6305 c 2.35247,13.64121 1.17564,23.75786 1.17564,23.75786 0,0 -4.70374,17.87612 -6.11616,21.63745 -1.41243,3.76134 -6.35059,8.93865 -6.35059,8.93865 l -0.22021,0.17522 -36.00085,28.75404 -12.93677,7.99742 c 0,0 -11.80375,6.54002 -19.80118,11.71496 -7.99743,5.17495 -5.17495,16.69929 -5.17495,16.69929 l 7.10357,25.15845 0.59196,-5.62365 0.88795,-4.14375 2.95981,-2.07187 2.66384,0 2.77157,-1.04304 -0.94122,9.40749 5.40936,9.17306 2.58807,1.64684 4.46814,-9.87868 7.2918,-10.34871 2.35247,-0.2356 3.76252,3.2925 3.7637,3.2925 3.5281,-0.23442 1.64685,-7.76182 4.23372,2.35128 14.81803,-1.17564 6.35058,-1.64684 4.94763,-7.76301 25.63676,-7.99625 3.99812,0.70562 2.82248,-2.35246 11.28994,-3.52692 7.76183,5.40937 6.58618,4.23372 6.11499,5.17376 4.93934,6.11617 1.88126,17.16931 5.88057,6.35058 3.99812,0 4.70492,-2.11686 4.70493,-3.76371 10.81872,-3.5281 8.46745,-2.35128 4.46814,0 8.23185,0.47002 11.99673,-5.64496 6.3494,-5.17495 4.46814,-2.58806 4.94053,-1.88126 5.64496,-1.17564 3.05808,-3.7637 4.23254,-3.99931 7.05621,3.05808 8.70305,-9.64427 -0.70563,-4.93934 3.99811,-7.99743 0,-6.3494 -1.41004,-4.93934 -3.99931,-4.93816 2.35247,-7.99743 0,-3.7637 3.05688,1.88244 9.40867,1.17564 4.70374,-4.93934 4.46933,-6.35059 18.11053,-2.11686 1.41124,-1.41005 -0.7068,-5.40937 3.7637,-12.93677 0.47002,-9.40866 0.47002,-7.29063 -1.64211,-10.81754 z" />
    </clipPath>
  </defs>
  <sodipodi:namedview
     pagecolor="#ffffff"
     bordercolor="#666666"
     borderopacity="1"
     objecttolerance="10"
     gridtolerance="10"
     guidetolerance="10"
     inkscape:pageopacity="0"
     inkscape:pageshadow="2"
     inkscape:window-width="1600"
     inkscape:window-height="837"
     id="namedview103"
     showgrid="false"
     fit-margin-top="0"
     fit-margin-left="0"
     fit-margin-right="0"
     fit-margin-bottom="0"
     inkscape:zoom="0.96166522"
     inkscape:cx="172.8107"
     inkscape:cy="307.43657"
     inkscape:window-x="-8"
     inkscape:window-y="-8"
     inkscape:window-maximized="1"
     inkscape:current-layer="svg2" />
  <path
     style="fill:#ce1126"
     d="m 38.051301,298 4.61524,10.52734 6.31445,14.40235 c 2.35246,4.46814 3.29297,6.58593 3.29297,6.58593 l 13.16992,18.58204 3.76367,13.87695 4.23438,16.46484 4.31054,23.57813 8.15625,44.6289 c 2.35247,13.64121 1.17578,23.75782 1.17578,23.75782 0,0 -4.70281,17.87734 -6.11523,21.63867 -1.41243,3.76134 -6.35156,8.9375 -6.35156,8.9375 l -0.22071,0.17578 -36,28.75391 -12.9375,7.99804 c 0,0 -11.80335,6.53991 -19.8007799,11.71485 -7.99743,5.17495 -5.17577997,16.69922 -5.17577997,16.69922 l 7.10351997,25.1582 0.59375,-5.62305 0.88672,-4.14453 2.9609299,-2.07227 2.66211,0 2.77344,-1.04296 -0.94141,9.4082 5.40821,9.17187 2.58789,1.64844 4.46875,-9.8789 7.29101,-10.34961 2.35352,-0.23438 3.76172,3.29102 3.76367,3.29297 3.5293,-0.23438 1.64648,-7.76172 4.23438,2.35156 14.8164,-1.17578 6.35157,-1.64648 4.94726,-7.76367 25.636719,-7.9961 3.99805,0.70508 2.82226,-2.35156 11.29102,-3.52734 7.76172,5.41015 6.58593,4.23242 6.11524,5.17383 4.93945,6.11719 1.88086,17.16992 5.88086,6.34961 3.99805,0 4.70508,-2.11719 4.70507,-3.76367 10.81836,-3.52734 8.4668,-2.35157 4.46875,0 8.23047,0.47071 11.99805,-5.64649 6.3496,-5.17383 4.4668,-2.58789 4.94141,-1.88281 5.64453,-1.17383 3.05859,-3.76367 4.23242,-4 7.05665,3.0586 8.70312,-9.64454 -0.70703,-4.93945 3.99805,-7.99805 0,-6.3496 -1.40821,-4.93946 -4,-4.9375 2.35157,-7.99804 0,-3.76368 3.05664,1.88282 9.41015,1.17578 4.70313,-4.93946 4.46875,-6.34961 18.11133,-2.11718 1.41015,-1.41016 -0.70508,-5.41016 3.76367,-12.93554 0.46876,-9.41016 0.4707,-7.28906 -1.64258,-10.81836 -11.52344,-13.64063 -0.23633,-4.70507 -11.28906,-2.35157 -3.05859,-5.64453 4,-6.35156 2.82226,-6.34961 0.23438,-6.58594 1.41016,-4.93945 6.35156,-6.58594 7.52539,-7.29101 3.99805,-9.87891 -2.57032,-0.63672 -6.83594,-5.71289 -3.76367,-1.41016 -5.88086,-4 -1.41015,-6.11523 1.41015,-8.9375 -3.99804,-8.4668 5.17383,-11.99609 -4.23243,-4.23242 0.46875,-2.11719 -3.29297,-5.41016 0,-3.76367 -1.88085,-0.9414 -5.64649,5.88086 -5.11328,4.72265 -6.7168,1.50195 -6.00976,-1.50195 -5.12696,-3.44726 -4.24218,-6.53907 -1.14844,-8.66211 -4.33594,-5.35937 0.94141,-5.4082 L 237.22904,298 38.051301,298 Z"
     id="rect6"
     inkscape:connector-curvature="0" />
  <path
     style="fill:#002b7f"
     d="m 108.96536,0 c 0,0 -0.94994,14.344217 -1.18554,17.636719 -0.2356,3.292501 -1.41016,8.466797 -1.41016,8.466797 0,0 -14.347799,38.809745 -15.523439,42.572265 -1.17564,3.76252 -3.76367,8.230469 -3.76367,8.230469 l -16.4082,27.44531 -4.50391,7.53516 39.748049,10.13867 49.27344,-11.41211 0.77929,0.75 2.10352,-4.24023 a 5.0150452,4.6708755 0 0 1 -1.06445,-2.875 5.0150452,4.6708755 0 0 1 5.01367,-4.669925 5.0150452,4.6708755 0 0 1 0.98437,0.08984 l 2.875,-4.173828 4.46875,-5.88086 5.87891,-7.291015 0.23633,-6.115235 -14.58203,-22.109375 -3.76368,-1.646484 -2.58789,-3.763672 -2.82226,-1.880859 -10.11328,-9.878907 -8.23243,-3.763672 -8.46679,-7.291015 -0.94141,-2.117188 1.17578,-2.117187 -1.41015,-7.525391 -2.82227,-2.117187 -2.35351,1.175781 L 118.60794,10.58398 114.37357,6.3496094 108.96536,0 Z m 96.58789,173.49219 -21.96679,44.85351 -147.541019,2.50391 -6.83594,-6.27539 -0.57421,2.86914 -2.70508,13.52148 c -0.94004,5.17494 -0.46875,15.75977 -0.46875,15.75977 l 6.82031,34.10547 c 1.17564,5.40937 3.29297,11.52344 3.29297,11.52344 l 3.35351,7.64648 199.634769,0 -5.4082,-8.11133 -8.9375,-4.23437 -2.02735,-1.59766 -21.25781,-16.74805 -1.64648,0 -6.82227,2.58789 -6.11523,1.64649 -10.11328,-0.23438 -3.76368,-2.11718 3.52735,-6.58594 8.46679,-5.17578 6.11524,-7.28907 -1.64649,-4.93945 -0.23632,-18.58203 -0.98633,-6.29492 -0.89453,-5.69922 5.64453,-4.70508 6.35156,-5.88086 0.4707,-2.58594 2.34961,-1.4121 0.94141,-7.9961 7.29101,-16.69922 -4.3125,-3.85351 z"
     id="rect4"
     inkscape:connector-curvature="0" />
  <g
     id="g8"
     clip-path="url(#clipPath4245)"
     style="fill:#ffd83d;stroke:#000000;stroke-width:2;stroke-linecap:round;stroke-linejoin:round"
     transform="translate(-113.99948,0)">
    <g
       id="half">
      <path
         d="m 216.37706,122.2886 -1.83824,62.5 -63.41912,0 c -7.80254,-15.16828 -14.24632,-28.05125 -14.24632,-45.49632 0,-14.59959 11.48309,-26.19486 28.03309,-26.19486 17.51972,0 36.76865,5.90358 51.47059,9.19118 z"
         id="path11"
         inkscape:connector-curvature="0"
         style="stroke:none" />
      <g
         id="g13"
         style="stroke-width:1.5">
        <path
           d="m 144.45611,125.16084 0,36.07537"
           id="path15"
           inkscape:connector-curvature="0" />
        <path
           d="m 149.54956,121.47933 0,48.034"
           id="path17"
           inkscape:connector-curvature="0" />
        <path
           d="m 154.64301,118.95176 0,57.22517"
           id="path19"
           inkscape:connector-curvature="0" />
        <path
           d="m 159.73645,117.77081 0,44.8812"
           id="path21"
           inkscape:connector-curvature="0" />
        <path
           d="m 164.82989,117.54815 0,45.32651"
           id="path23"
           inkscape:connector-curvature="0" />
        <path
           d="m 169.92335,115.96463 0,46.8851"
           id="path25"
           inkscape:connector-curvature="0" />
        <path
           d="m 175.01679,115.96463 0,46.8851"
           id="path27"
           inkscape:connector-curvature="0" />
        <path
           d="m 180.11024,116.42419 0,46.8851"
           id="path29"
           inkscape:connector-curvature="0" />
        <path
           d="m 185.20367,116.88375 0,46.8851"
           id="path31"
           inkscape:connector-curvature="0" />
        <path
           d="m 190.29712,119.87088 0,46.8851"
           id="path33"
           inkscape:connector-curvature="0" />
        <path
           d="m 195.39057,120.33044 0,52.85936"
           id="path35"
           inkscape:connector-curvature="0" />
        <path
           d="m 200.48402,120.33044 0,46.8851"
           id="path37"
           inkscape:connector-curvature="0" />
        <path
           d="m 205.57747,120.33044 0,46.8851"
           id="path39"
           inkscape:connector-curvature="0" />
        <path
           d="m 176.39544,117.92279 c 10.76347,1.77545 34.40607,12.83714 31.70956,27.80332 -3.82134,21.20926 -16.20775,12.69762 -32.62868,9.65073 l -12.40809,4.13603 c -4.43984,4.53179 -10.97775,8.68354 -15.39522,3.21691 l -7.35294,0 0,28.72242 81.34191,0 0,-69.39338 z"
           id="path41"
           inkscape:connector-curvature="0"
           style="fill:#000000" />
      </g>
      <circle
         cx="212.81549"
         cy="112.98255"
         r="4.9402599"
         id="circle43" />
      <circle
         cx="201.713"
         cy="110.31052"
         r="4.9402599"
         id="circle45" />
      <circle
         cx="190.44974"
         cy="107.48178"
         r="4.9402599"
         id="circle47" />
      <circle
         cx="179.14294"
         cy="105.59596"
         r="4.9402599"
         id="circle49" />
      <circle
         cx="167.83617"
         cy="104.48071"
         r="4.9402599"
         id="circle51" />
      <circle
         cx="156.74931"
         cy="105.11261"
         r="4.9402599"
         id="circle53" />
      <circle
         cx="146.17946"
         cy="108.73163"
         r="4.9402599"
         id="circle55" />
      <circle
         cx="137.27551"
         cy="115.28035"
         r="4.9402599"
         id="circle57" />
      <circle
         cx="130.95657"
         cy="124.41408"
         r="4.9402599"
         id="circle59" />
      <circle
         cx="127.912"
         cy="135.15627"
         r="4.9402599"
         id="circle61" />
      <circle
         cx="128.02689"
         cy="146.30057"
         r="4.9402599"
         id="circle63" />
      <circle
         cx="130.15236"
         cy="157.21509"
         r="4.9402599"
         id="circle65" />
      <path
         d="m 214.99838,119.53125 -0.45956,6.43382 c -12.291,-1.88313 -29.71491,-8.73161 -45.95588,-8.73161 -15.00638,0 -26.65441,6.0027 -26.65441,21.1397 0,14.91847 6.31778,28.48522 14.70588,42.27941 l -8.73162,4.13603 c -7.80254,-15.16828 -14.24632,-28.05125 -14.24632,-45.49632 0,-14.59959 11.48309,-28.95221 31.25,-28.95221 17.51972,0 35.38997,5.90358 50.09191,9.19118 z"
         id="path67"
         inkscape:connector-curvature="0" />
    </g>
    <use
       xlink:href="#half"
       transform="matrix(-1,0,0,1,443.9375,0)"
       id="use69"
       x="0"
       y="0"
       width="100%"
       height="100%" />
    <path
       d="m 221.96875,53.125 -5.15625,9.65625 5.15625,9.625 5.15625,-9.625 -5.15625,-9.65625 z m 0,24.375 -5.15625,9.625 5.15625,9.65625 L 227.125,87.125 221.96875,77.5 Z"
       id="path71"
       inkscape:connector-curvature="0" />
    <path
       d="m 203.58731,74.953125 8.13152,5.15625 8.1052,-5.15625 -8.1052,-5.15625 -8.13152,5.15625 z m 20.52616,0 8.1052,5.15625 8.13152,-5.15625 -8.13152,-5.15625 -8.1052,5.15625 z"
       id="path73"
       inkscape:connector-curvature="0" />
    <circle
       cx="221.96875"
       cy="75.068932"
       r="3.90625"
       id="circle75" />
    <circle
       cx="221.96875"
       cy="100"
       r="10.45496"
       id="circle77" />
    <path
       d="m 219.34375,89.875 c 0,3.114438 -0.0221,4.924139 -0.0312,6.625 -2.52043,0.111865 -5.00574,0.376712 -7.4375,0.78125 m 20.1875,0 c -2.43176,-0.404538 -4.91707,-0.669385 -7.4375,-0.78125 0,-1.698345 0,-3.502868 0,-6.625 m -12.78125,12.6875 c 3.29471,-0.55035 6.67413,-0.84375 10.125,-0.84375 3.45087,0 6.83029,0.2934 10.125,0.84375"
       id="path79"
       inkscape:connector-curvature="0"
       style="fill:none;stroke-width:1.5" />
    <path
       d="m 211.75,117.6875 c -0.99188,17.08218 -3.00857,34.47917 -9.65625,47.125 l 10.8125,-4.375 c 3.77647,-14.32877 4.56984,-32.84258 5.71875,-41.59375 l -6.875,-1.15625 z m 20.4375,0 -6.875,1.15625 c 1.1489,8.75117 1.94228,27.26498 5.71875,41.59375 l 10.8125,4.375 c -6.64768,-12.64583 -8.66437,-30.04282 -9.65625,-47.125 z"
       id="path81"
       inkscape:connector-curvature="0" />
    <path
       d="m 221.95313,154.6875 c -12.91339,0 -22.39915,6.08662 -22.96875,21.59375 -3.15665,-5.55489 -16.51018,-23.02573 -28.96875,-20.6875 -7.40987,1.39069 -13.95709,11.66587 -12.84375,23.4375 -6.13488,-17.6299 -24.10679,-20.519 -37.21875,-10.09375 11.64216,9.57251 16.82108,37.83475 26.625,50.09375 l 75.375,0 75.375,0 c 9.80391,-12.259 15.01409,-40.52124 26.65625,-50.09375 -13.11197,-10.42525 -31.08387,-7.53615 -37.21875,10.09375 1.11333,-11.77163 -5.46513,-22.04681 -12.875,-23.4375 -12.45858,-2.33823 -25.78085,15.13261 -28.9375,20.6875 -0.56959,-15.50713 -10.08661,-21.59375 -23,-21.59375 z"
       id="path83"
       inkscape:connector-curvature="0" />
    <g
       id="g85"
       style="stroke-width:1.5">
      <path
         d="m 297.10662,219.02573 c 0,5.5809 -33.66176,11.71874 -75.13787,11.71874 -41.4761,0 -75.13786,-6.13784 -75.13786,-11.71874 0,-5.58086 33.66176,-8.50183 75.13786,-8.50183 41.47611,0 75.13787,2.92097 75.13787,8.50183 z"
         id="path87"
         inkscape:connector-curvature="0"
         style="fill:#000000" />
      <circle
         cx="221.96875"
         cy="114.44459"
         r="3.5041399"
         id="circle89" />
      <circle
         cx="221.96875"
         cy="122.02731"
         r="3.7339201"
         id="circle91" />
      <circle
         cx="221.96875"
         cy="130.18446"
         r="4.0785899"
         id="circle93" />
      <circle
         cx="221.96875"
         cy="139.26076"
         r="4.6530299"
         id="circle95" />
      <circle
         cx="221.96875"
         cy="149.37105"
         r="5.1125898"
         id="circle97" />
      <path
         d="m 219.93751,159.20588 c -0.55295,-0.007 -1.07586,0.45902 -0.9375,1.34375 0.16296,1.04352 0.36705,2.99519 0.5625,4.3125 0.22088,1.49319 1.09122,1.1302 1.3125,-0.0312 0.2213,-1.16102 0.13208,-1.90588 0.1875,-4.0625 0.0277,-1.07809 -0.57204,-1.55562 -1.125,-1.5625 z m 4.0625,0 c -0.55296,0.007 -1.15271,0.48441 -1.125,1.5625 0.0554,2.15662 -0.0338,2.90148 0.1875,4.0625 0.22128,1.16145 1.09164,1.52444 1.3125,0.0312 0.19545,-1.31731 0.39956,-3.26898 0.5625,-4.3125 0.13836,-0.88473 -0.38453,-1.35062 -0.9375,-1.34375 z m -7.6875,0.5625 c -0.50583,0.0704 -1.03031,0.58054 -1,1.125 0.055,0.99518 0.3304,2.18892 0.4375,3.6875 0.11045,1.54819 1.20165,0.94683 1.3125,0.0625 0.11045,-0.88472 0.23542,-2.1922 0.125,-3.90625 -0.0414,-0.64291 -0.32221,-0.92563 -0.65625,-0.96875 -0.0696,-0.009 -0.14649,-0.0101 -0.21875,0 z m 11.09375,0 c -0.33404,0.0431 -0.61482,0.32584 -0.65625,0.96875 -0.11042,1.71405 0.0146,3.02153 0.125,3.90625 0.11085,0.88433 1.20207,1.48569 1.3125,-0.0625 0.1071,-1.49858 0.3825,-2.69232 0.4375,-3.6875 0.0303,-0.54446 -0.49415,-1.05464 -1,-1.125 -0.0723,-0.0101 -0.14915,-0.009 -0.21875,0 z m -15.4375,1.75 c -0.46309,0.11967 -0.88836,0.67656 -0.75,1.3125 0.27631,1.27189 0.53125,2.67811 0.53125,3.96875 1e-5,1.10603 0.94458,0.71137 1,-0.0625 0.055,-0.77429 0.15625,-2.41349 0.15625,-3.90625 1e-5,-1.11456 -0.4744,-1.43216 -0.9375,-1.3125 z m 19.6875,0 c -0.32879,0.0911 -0.625,0.47658 -0.625,1.3125 0,1.49276 0.10125,3.13196 0.15625,3.90625 0.0554,0.77387 1.00001,1.16853 1,0.0625 0,-1.29064 0.25496,-2.69686 0.53125,-3.96875 0.13836,-0.63594 -0.28689,-1.19283 -0.75,-1.3125 -0.11577,-0.0299 -0.2029,-0.0304 -0.3125,0 z m -59.09375,0.17096 c -0.55406,-0.0184 -0.94278,0.7332 -0.5625,1.5625 0.60803,1.32732 1.25406,2.16475 1.875,3.59375 0.55302,1.27189 1.40129,0.47889 1.125,-0.40625 -0.27671,-0.88473 -0.57693,-1.87011 -1.40625,-3.75 -0.31113,-0.70511 -0.69881,-0.98895 -1.03125,-1 z m 98.8125,0 c -0.33244,0.0111 -0.72012,0.29489 -1.03125,1 -0.82932,1.87989 -1.12954,2.86527 -1.40625,3.75 -0.27629,0.88514 0.57198,1.67814 1.125,0.40625 0.62094,-1.429 1.26697,-2.26643 1.875,-3.59375 0.38028,-0.8293 -0.008,-1.5809 -0.5625,-1.5625 z m -94.8125,0.0625 c -0.40782,0.12446 -0.65504,0.64177 -0.40625,1.25 0.49801,1.21647 1.21658,2.46352 1.71875,3.78125 0.44217,1.16104 1.42589,0.83185 1.09375,-0.21875 -0.33172,-1.05059 -0.4303,-1.6655 -1.09375,-3.65625 -0.33192,-0.99516 -0.90467,-1.2807 -1.3125,-1.15625 z m 90.5,0 c -0.3487,0.0745 -0.75106,0.40988 -1,1.15625 -0.66345,1.99075 -0.76203,2.60566 -1.09375,3.65625 -0.33214,1.0506 0.65158,1.37979 1.09375,0.21875 0.50217,-1.31773 1.22074,-2.56478 1.71875,-3.78125 0.24879,-0.60823 0.002,-1.12554 -0.40625,-1.25 -0.10196,-0.0311 -0.19627,-0.0248 -0.3125,0 z m -85.5,0.96875 c -0.51413,0.0978 -0.91225,0.88218 -0.5625,1.84375 0.44259,1.21647 1.07199,2.36768 1.625,3.75 0.55302,1.38233 1.47129,1.10347 1.25,0.21875 -0.22127,-0.88473 -0.49238,-2.35088 -1.15625,-4.5625 -0.29025,-0.96776 -0.75636,-1.32609 -1.15625,-1.25 z m 80.8125,0 c -0.39989,-0.0761 -0.866,0.28224 -1.15625,1.25 -0.66387,2.21162 -0.93498,3.67777 -1.15625,4.5625 -0.22129,0.88472 0.69698,1.16358 1.25,-0.21875 0.55301,-1.38232 1.18241,-2.53353 1.625,-3.75 0.34975,-0.96157 -0.0484,-1.74591 -0.5625,-1.84375 z m -93.1875,0.6875 c -0.55687,0.0569 -1.06412,0.96524 -0.71875,1.65625 0.55344,1.10603 0.90366,1.48231 1.4375,2.65625 0.55302,1.21647 1.15878,0.2743 0.9375,-0.5 -0.22128,-0.77429 -0.50494,-1.67566 -0.78125,-2.78125 -0.20252,-0.80997 -0.54087,-1.06537 -0.875,-1.03125 z m 105.5625,0 c -0.33413,-0.0341 -0.67248,0.22128 -0.875,1.03125 -0.27631,1.10559 -0.55997,2.00696 -0.78125,2.78125 -0.22128,0.7743 0.38448,1.71647 0.9375,0.5 0.53384,-1.17394 0.88406,-1.55022 1.4375,-2.65625 0.34537,-0.69101 -0.16188,-1.59938 -0.71875,-1.65625 z m -67.03125,2.79779 c -0.58375,-5.2e-4 -1.20733,0.77436 -1,1.5 0.33173,1.16146 0.84452,2.19099 1.21875,3.6875 0.33173,1.32691 1.27417,0.66599 1.21875,-0.21875 -0.0554,-0.88472 -0.207,-2.08843 -0.59375,-3.96875 -0.14517,-0.70496 -0.49349,-0.99968 -0.84375,-1 z m 28.5,0 c -0.35026,3.2e-4 -0.69856,0.29504 -0.84375,1 -0.38675,1.88032 -0.53832,3.08403 -0.59375,3.96875 -0.0554,0.88474 0.88704,1.54566 1.21875,0.21875 0.37423,-1.49651 0.88704,-2.52604 1.21875,-3.6875 0.20733,-0.72564 -0.41623,-1.50052 -1,-1.5 z m -14.25,1.1875 c -0.71918,1e-5 -0.81853,0.96561 -0.84375,1.75 -0.0827,2.57128 -1.14984,5.06854 -2.0625,6.3125 -0.91223,1.24437 -2.25562,0.91345 -3.5,0.25 -1.24436,-0.66343 -1.98561,-1.16066 -3.3125,-2.15625 -1.32731,-0.99515 -2.3336,-0.4133 -0.75,1.84375 4.61746,6.58031 9.625,12.20482 9.625,22.9375 1e-5,1.38774 0.24246,1.8125 0.84375,1.8125 0.60129,0 0.87498,-0.42476 0.875,-1.8125 0,-10.73268 4.97631,-16.35719 9.59375,-22.9375 1.5836,-2.25705 0.57733,-2.8389 -0.75,-1.84375 -1.32689,0.99559 -2.06812,1.49282 -3.3125,2.15625 -1.24438,0.66345 -2.58775,0.99437 -3.5,-0.25 -0.91266,-1.24396 -1.97983,-3.74122 -2.0625,-6.3125 -0.0252,-0.78439 -0.12455,-1.74999 -0.84375,-1.75 z m -35.28125,-1.61029 c -0.0629,-0.002 -0.13154,0.0136 -0.1875,0.0312 -0.26858,0.0846 -0.44752,0.40881 -0.34375,0.96875 0.18546,1.00226 0.87995,2.96651 1.15625,3.90625 0.27673,0.94018 1.43255,0.74022 1.15625,-0.53125 -0.2767,-1.27188 -0.26202,-1.65601 -0.59375,-3.09375 -0.1814,-0.78626 -0.74696,-1.26917 -1.1875,-1.28125 z m 70.5625,0 c -0.44054,0.0121 -1.00608,0.49499 -1.1875,1.28125 -0.33173,1.43774 -0.31703,1.82187 -0.59375,3.09375 -0.2763,1.27147 0.87954,1.47143 1.15625,0.53125 0.2763,-0.93974 0.97079,-2.90399 1.15625,-3.90625 0.10377,-0.55994 -0.0752,-0.88414 -0.34375,-0.96875 -0.056,-0.0176 -0.12456,-0.033 -0.1875,-0.0312 z m -91.53125,0.40625 c -0.57879,0.0453 -0.99385,0.77247 -0.40625,1.84375 0.63386,1.15687 1.72117,2.60819 2.21875,3.4375 0.4976,0.82932 1.35843,0.26977 0.75,-0.78125 -0.60802,-1.05057 -0.81237,-2.25724 -1.53125,-3.75 -0.26956,-0.55993 -0.68397,-0.77718 -1.03125,-0.75 z m 112.5,0 c -0.34728,-0.0272 -0.76169,0.19007 -1.03125,0.75 -0.71888,1.49276 -0.92323,2.69943 -1.53125,3.75 -0.60843,1.05102 0.2524,1.61057 0.75,0.78125 0.49758,-0.82931 1.58489,-2.28063 2.21875,-3.4375 0.5876,-1.07128 0.17254,-1.79844 -0.40625,-1.84375 z m -144.1875,3.32904 c -0.66781,-0.0355 -0.87717,1.17025 -0.25,1.96875 0.91267,1.16104 1.54775,1.77692 2.59375,2.71875 0.82973,0.74639 1.07091,-0.22237 0.65625,-0.96875 -0.41464,-0.74637 -1.01444,-1.50563 -1.84375,-2.75 -0.45463,-0.68201 -0.8527,-0.95262 -1.15625,-0.96875 z m 175.875,0 c -0.30355,0.0161 -0.70162,0.28674 -1.15625,0.96875 -0.82931,1.24437 -1.42911,2.00363 -1.84375,2.75 -0.41466,0.74638 -0.17348,1.71514 0.65625,0.96875 1.046,-0.94183 1.68108,-1.55771 2.59375,-2.71875 0.62717,-0.7985 0.41781,-2.00423 -0.25,-1.96875 z m -170.84375,1 c -0.53222,0.007 -0.8834,0.40005 -0.46875,1.3125 0.59387,1.30607 1.377,2.78566 1.875,3.78125 0.4976,0.99519 2.01427,1.32943 1.40625,-0.21875 -0.60842,-1.54817 -0.72824,-2.3435 -1.28125,-3.78125 -0.2765,-0.71886 -0.99902,-1.10068 -1.53125,-1.09375 z m 165.8125,0 c -0.53223,-0.007 -1.25475,0.37489 -1.53125,1.09375 -0.55301,1.43775 -0.67283,2.23308 -1.28125,3.78125 -0.60802,1.54818 0.90865,1.21394 1.40625,0.21875 0.498,-0.99559 1.28113,-2.47518 1.875,-3.78125 0.41465,-0.91245 0.0635,-1.30556 -0.46875,-1.3125 z m -175.5625,0.34375 c -0.77377,0.008 -0.84043,0.78367 -0.15625,1.28125 0.91266,0.66346 2.00023,1.39984 3.0625,2.25 1.24397,0.99518 1.72594,0.0797 1.0625,-0.75 -0.66344,-0.8293 -1.30973,-1.67028 -2.96875,-2.5 -0.41475,-0.20732 -0.74208,-0.28388 -1,-0.28125 z m 185.3125,0 c -0.25792,-0.003 -0.58525,0.0739 -1,0.28125 -1.65902,0.82972 -2.30531,1.6707 -2.96875,2.5 -0.66344,0.82972 -0.18147,1.74518 1.0625,0.75 1.06227,-0.85016 2.14983,-1.58654 3.0625,-2.25 0.68418,-0.49758 0.61751,-1.27335 -0.15625,-1.28125 z m -109.65625,0.71875 c -0.43296,0.0606 -0.80641,0.55234 -0.625,1.1875 0.33173,1.16104 0.70829,2.39145 0.9375,3.59375 0.2213,1.16146 1.56504,1.1756 1.34375,0.125 -0.22086,-1.05058 -0.33202,-2.36514 -0.71875,-3.96875 -0.14517,-0.60134 -0.44831,-0.89021 -0.75,-0.9375 -0.0628,-0.01 -0.12565,-0.009 -0.1875,0 z m 33.8125,0 c -0.30169,0.0473 -0.60481,0.33616 -0.75,0.9375 -0.38673,1.60361 -0.49787,2.91817 -0.71875,3.96875 -0.22129,1.0506 1.12247,1.03646 1.34375,-0.125 0.22921,-1.2023 0.60579,-2.43271 0.9375,-3.59375 0.18141,-0.63516 -0.19202,-1.12693 -0.625,-1.1875 -0.0618,-0.009 -0.12464,-0.01 -0.1875,0 z m -63.90625,-1.98529 c -0.33997,0.094 -0.53559,0.74396 -0.28125,1.65625 1.41024,5.05964 1.84254,7.72437 1.59375,8.96875 -0.24878,1.24398 -0.93151,1.41465 -1.84375,1 -0.91223,-0.41465 -1.9832,-1.01323 -2.8125,-1.59375 -0.8293,-0.58092 -1.69187,0.114 -0.5,1.09375 6.0548,4.9767 10.2518,10.66423 11.875,17.5625 0.33174,1.40985 1.21755,1.57569 0.96875,0 -1.37231,-8.6898 -1.63619,-15.8334 0.4375,-20.3125 0.77931,-1.68321 -0.006,-3.29964 -1.25,-0.5625 -0.8293,1.82492 -2.17149,2.54486 -3.25,0.96875 -1.07811,-1.57568 -3.30531,-5.77967 -3.96875,-7.6875 -0.24894,-0.71543 -0.55598,-1.04642 -0.8125,-1.09375 -0.0534,-0.01 -0.10768,-0.0134 -0.15625,0 z m 94.03125,0 c -0.25652,0.0473 -0.56356,0.37832 -0.8125,1.09375 -0.66344,1.90783 -2.89064,6.11182 -3.96875,7.6875 -1.07851,1.57611 -2.4207,0.85617 -3.25,-0.96875 -1.24438,-2.73714 -2.02931,-1.12071 -1.25,0.5625 2.07369,4.4791 1.80981,11.6227 0.4375,20.3125 -0.2488,1.57569 0.63701,1.40985 0.96875,0 1.6232,-6.89827 5.8202,-12.5858 11.875,-17.5625 1.19187,-0.97975 0.3293,-1.67467 -0.5,-1.09375 -0.8293,0.58052 -1.90027,1.1791 -2.8125,1.59375 -0.91224,0.41465 -1.59497,0.24398 -1.84375,-1 -0.24879,-1.24438 0.18351,-3.90911 1.59375,-8.96875 0.25434,-0.91229 0.0587,-1.56228 -0.28125,-1.65625 -0.0486,-0.0134 -0.10282,-0.01 -0.15625,0 z m -124.46875,2.42279 c -0.54607,0.007 -0.99879,0.38944 -0.75,1.21875 0.39883,1.32857 1.2237,2.76444 1.5,3.59375 0.27672,0.82933 1.16586,0.44229 1,-0.71875 -0.16584,-1.16102 -0.24746,-1.85311 -0.46875,-3.125 -0.11063,-0.63572 -0.73517,-0.97568 -1.28125,-0.96875 z m 155.0625,0 c -0.54608,-0.007 -1.17062,0.33303 -1.28125,0.96875 -0.22129,1.27189 -0.30291,1.96398 -0.46875,3.125 -0.16586,1.16104 0.72328,1.54808 1,0.71875 0.2763,-0.82931 1.10117,-2.26518 1.5,-3.59375 0.24879,-0.82931 -0.20393,-1.21181 -0.75,-1.21875 z m -136.28125,-1.73529 c -0.63504,-0.11396 -0.72634,1.52425 -0.1875,2.1875 0.71889,0.88517 1.71733,1.95479 2.71875,3.15625 0.82932,0.9956 1.34174,0.11057 0.84375,-0.71875 -0.49757,-0.82972 -1.23562,-1.71131 -2.5625,-3.8125 -0.33182,-0.52529 -0.60082,-0.77451 -0.8125,-0.8125 z m 117.5,0 c -0.21168,0.038 -0.48068,0.28721 -0.8125,0.8125 -1.32688,2.10119 -2.06493,2.98278 -2.5625,3.8125 -0.49799,0.82932 0.0144,1.71435 0.84375,0.71875 1.00142,-1.20146 1.99986,-2.27108 2.71875,-3.15625 0.53884,-0.66325 0.44754,-2.30146 -0.1875,-2.1875 z m -132,3.95404 c -0.39402,-0.0276 -0.72836,0.29195 -0.5625,1.09375 0.2313,1.11645 0.56704,2.04315 0.84375,3.09375 0.27632,1.05061 1,0.87059 1,-0.125 1e-5,-0.99517 -0.17789,-2.10565 -0.34375,-3.15625 -0.0829,-0.52529 -0.54347,-0.87859 -0.9375,-0.90625 z m 146.5,0 c -0.39403,0.0277 -0.85458,0.38096 -0.9375,0.90625 -0.16586,1.0506 -0.34376,2.16108 -0.34375,3.15625 0,0.99559 0.72368,1.17561 1,0.125 0.27671,-1.0506 0.61245,-1.9773 0.84375,-3.09375 0.16586,-0.8018 -0.16848,-1.1214 -0.5625,-1.09375 z m -133.40625,1.42096 c -0.61886,0.0935 -1.16341,0.69176 -0.4375,1.625 1.16106,1.49275 2.43242,2.54074 2.875,3.09375 0.44217,0.55303 1.56262,0.34895 0.84375,-0.8125 -0.7347,-1.18645 -1.84616,-2.61526 -2.34375,-3.5 -0.18658,-0.33177 -0.56618,-0.46234 -0.9375,-0.40625 z m 120.0625,0 c -0.27216,0.0286 -0.54756,0.15742 -0.6875,0.40625 -0.49759,0.88474 -1.60905,2.31355 -2.34375,3.5 -0.71887,1.16145 0.40158,1.36553 0.84375,0.8125 0.44258,-0.55301 1.71394,-1.601 2.875,-3.09375 0.72591,-0.93324 0.18136,-1.5315 -0.4375,-1.625 -0.0928,-0.014 -0.15928,-0.01 -0.25,0 z m -140.71875,4.17279 c -0.48826,-0.0443 -0.65688,0.34959 0,1.25 1.49277,2.04578 3.13956,5.14185 3.25,6.46875 0.11087,1.32732 -0.54531,1.3125 -1.15625,1.3125 -1.82489,2e-5 -2.71638,-1.33201 -4.375,-1.71875 -1.65902,-0.38713 -1.89979,0.48527 -0.71875,1.34375 6.0823,4.42369 12.17875,9.35923 14.625,13.84375 0.99519,1.8249 2.34055,2.49196 1.59375,0.75 -2.28706,-5.33717 -2.84134,-9.85662 -2.34375,-12.59375 0.498,-2.73712 1.17668,-4.58015 1.09375,-6.15625 -0.0829,-1.57568 -0.97661,-1.46817 -1.34375,0 -0.24879,0.9956 -0.73078,2.3145 -1.0625,2.8125 -0.33171,0.49761 -1.66562,0.77655 -2.9375,-0.9375 -1.27189,-1.71402 -4.48065,-5.01444 -5.53125,-5.84375 -0.39396,-0.31098 -0.80079,-0.50464 -1.09375,-0.53125 z m 161.625,0 c -0.29296,0.0266 -0.69979,0.22027 -1.09375,0.53125 -1.0506,0.82931 -4.25936,4.12973 -5.53125,5.84375 -1.27188,1.71405 -2.60579,1.43511 -2.9375,0.9375 -0.33172,-0.498 -0.81371,-1.8169 -1.0625,-2.8125 -0.36714,-1.46817 -1.26084,-1.57568 -1.34375,0 -0.0829,1.5761 0.59575,3.41913 1.09375,6.15625 0.49759,2.73713 -0.0567,7.25658 -2.34375,12.59375 -0.7468,1.74196 0.59856,1.0749 1.59375,-0.75 2.44625,-4.48452 8.5427,-9.42006 14.625,-13.84375 1.18104,-0.85848 0.94027,-1.73088 -0.71875,-1.34375 -1.65862,0.38674 -2.55011,1.71877 -4.375,1.71875 -0.61094,0 -1.26712,0.0148 -1.15625,-1.3125 0.11044,-1.3269 1.75723,-4.42297 3.25,-6.46875 0.65688,-0.90041 0.48826,-1.29434 0,-1.25 z"
         id="path99"
         inkscape:connector-curvature="0"
         style="fill:#000000;stroke:none" />
      <path
         d="m 150.12687,212.65106 1.94974,6.17419 m 2.06081,-7.34443 1.72764,6.23999 m 2.60462,-6.95241 1.18704,6.365 m 2.83321,-7.16932 1.27047,6.34887 m 3.88513,-6.85778 1.03295,6.39181 m 4.45159,-6.38512 1.11242,6.37845 m 4.24134,-8.18882 0.80352,6.42467 m 4.23332,-6.09971 0.80352,6.42467 m 4.07084,-7.07458 0.80352,6.42467 m 4.08912,-6.92957 0.442,6.45961 m 4.78656,-6.46148 0.3835,6.46335 m 4.35683,-6.78987 0.32661,6.46648 m 4.90036,-6.79272 0.27128,6.46904 m 5.74043,-6.63152 0.27128,6.46904 m 79.04412,0.17749 -1.94974,6.17419 m -2.06081,-7.34443 -1.72764,6.23999 m -2.60462,-6.95241 -1.18704,6.365 m -2.83321,-7.16932 -1.27047,6.34887 m -3.88513,-6.85778 -1.03295,6.39181 m -4.45159,-6.38512 -1.11242,6.37845 m -4.24134,-8.18882 -0.80352,6.42467 m -4.23332,-6.09971 -0.80352,6.42467 m -4.07084,-7.07458 -0.80352,6.42467 m -4.08912,-6.92957 -0.442,6.45961 m -4.78656,-6.46148 -0.3835,6.46335 m -4.35683,-6.78987 -0.32661,6.46648 m -4.90036,-6.79272 -0.27128,6.46904 m -5.74043,-6.63152 -0.27128,6.46904 m -7.20223,-6.88993 0,7.12316"
         id="path101"
         inkscape:connector-curvature="0" />
    </g>
  </g>
</svg>
