<?xml version="1.0" encoding="UTF-8" standalone="no"?>
<svg
   xmlns:dc="http://purl.org/dc/elements/1.1/"
   xmlns:cc="http://creativecommons.org/ns#"
   xmlns:rdf="http://www.w3.org/1999/02/22-rdf-syntax-ns#"
   xmlns:svg="http://www.w3.org/2000/svg"
   xmlns="http://www.w3.org/2000/svg"
   xmlns:sodipodi="http://sodipodi.sourceforge.net/DTD/sodipodi-0.dtd"
   xmlns:inkscape="http://www.inkscape.org/namespaces/inkscape"
   width="419.55774"
   height="599.9989"
   id="svg2"
   version="1.1"
   inkscape:version="0.91 r13725"
   sodipodi:docname="Flag-map_of_Luxembourg.svg">
  <metadata
     id="metadata14">
    <rdf:RDF>
      <cc:Work
         rdf:about="">
        <dc:format>image/svg+xml</dc:format>
        <dc:type
           rdf:resource="http://purl.org/dc/dcmitype/StillImage" />
        <dc:title></dc:title>
      </cc:Work>
    </rdf:RDF>
  </metadata>
  <defs
     id="defs12" />
  <sodipodi:namedview
     pagecolor="#ffffff"
     bordercolor="#666666"
     borderopacity="1"
     objecttolerance="10"
     gridtolerance="10"
     guidetolerance="10"
     inkscape:pageopacity="0"
     inkscape:pageshadow="2"
     inkscape:window-width="1600"
     inkscape:window-height="837"
     id="namedview10"
     showgrid="false"
     fit-margin-top="0"
     fit-margin-left="0"
     fit-margin-right="0"
     fit-margin-bottom="0"
     inkscape:zoom="0.84429329"
     inkscape:cx="383.53304"
     inkscape:cy="317.85391"
     inkscape:window-x="-8"
     inkscape:window-y="-8"
     inkscape:window-maximized="1"
     inkscape:current-layer="svg2" />
  <path
     style="fill:#ffffff;stroke:#00a1de;stroke-width:1.5;stroke-miterlimit:0;stroke-dasharray:none;stroke-opacity:1"
     clip-path="none"
     d="m 21.268649,197.99933 c 0.233133,1.07401 0.631999,2.35168 0.443359,3.33984 -0.12436,0.65152 -0.664306,1.41778 -1.097656,1.91993 -0.95701,1.10894 -3.051914,1.78079 -3.839844,3.01562 -0.77287,1.21122 -0.845173,3.24731 -1.095703,4.66211 -0.3612,2.0398 -0.824219,5.76048 -0.824219,6.85742 0,1.09696 1.371094,0.78935 1.371094,1.3711 0,0.81444 -1.274892,1.42071 -1.919922,1.91796 -0.90521,0.69782 -2.383862,1.22212 -3.289063,1.91993 -1.4743691,1.13655 -3.014031,3.13333 -4.388671,4.38867 -1.42343,1.29991 -3.8934369,2.49156 -4.9355469,4.11328 -0.50711,0.78915 -1.2070987,2.16123 -0.8242187,3.01758 0.45053,1.00765 2.3770056,1.02571 3.2910156,1.64453 0.82034,0.5554 1.62354,1.67659 2.46875,2.19336 1.35562,0.82884 3.431577,1.40735 4.935547,1.91992 1.379909,0.4703 3.316209,0.81084 4.662109,1.37109 1.73367,0.72166 4.023088,1.84057 5.486328,3.01758 0.68146,0.54814 1.281949,1.59308 1.917969,2.19336 0.68217,0.64385 2.00505,1.1045 2.46875,1.91992 0.32784,0.57659 0.665967,1.6587 0.273437,2.19336 -0.54436,0.74146 -2.885535,-0.36176 -3.015625,0.54883 -0.10406,0.72845 1.68497,0.56564 2.19336,1.09766 0.55979,0.58582 1.504796,1.76624 1.097656,2.46679 -0.41545,0.71487 -2.015728,-0.11945 -2.742188,0.27539 -0.92568,0.50313 -1.143819,2.83449 -2.193359,2.74219 -1.0269,-0.0903 -0.615844,-2.99638 -1.646484,-3.01758 -0.47961,-0.01 -0.415956,1.11607 -0.822266,1.3711 -0.76967,0.4831 -2.172598,0.60971 -3.017578,0.27539 -0.9212,-0.36446 -1.272159,-2.10428 -2.193359,-2.46875 -0.844991,-0.33432 -2.276905,-0.25575 -3.015626,0.27344 -0.658709,0.47186 -1.2455653,1.67209 -1.0976554,2.46875 0.1274504,0.68636 1.3773804,1.00152 1.6445314,1.64648 0.28336,0.68408 0.0808,1.73079 0,2.4668 -0.08277,0.75399 -0.734596,1.73384 -0.546876,2.46875 0.216431,0.84734 1.661829,1.35716 1.917969,2.19336 0.19427,0.63422 0.109663,1.65383 -0.273437,2.19531 -0.31876,0.45053 -1.116322,0.66234 -1.644532,0.82226 -1.2696591,0.38443 -3.362761,-0.29222 -4.388671,0.54883 -0.40239,0.32987 -0.8366481,1.21105 -0.5488281,1.64453 0.59336,0.89363 2.5424431,-0.0524 3.5644531,0.27344 0.91412,0.29139 2.30973,0.79102 2.74414,1.64649 0.41142,0.81023 0.39562,2.40283 -0.27539,3.01562 -0.30376,0.27738 -0.977384,0.1192 -1.371094,0 -0.56781,-0.17194 -1.052111,-1.1274 -1.644531,-1.0957 -0.64165,0.0343 -1.4706644,0.75305 -1.6464844,1.37109 -0.28475,1.00095 0.7213463,2.32078 1.0976563,3.29102 0.293,0.75544 1.5650931,1.80631 1.0957031,2.46679 -0.57388,0.80753 -2.3037025,-0.17084 -3.2890625,-0.27343 -0.65972,-0.0687 -1.6700825,-0.67851 -2.1953125,-0.27344 -0.98586,0.76032 -0.7682581,2.88778 -0.5488281,4.11328 0.27892,1.55776 1.87795,3.194 2.46875,4.66211 0.2236,0.55563 0.3939081,1.34136 0.5488281,1.91992 0.17549,0.65533 0.8084581,1.56657 0.5488282,2.19336 -0.18358,0.4432 -1.1120138,0.41853 -1.3710938,0.82227 -0.40235,0.62701 -0.3926006,1.73304 -0.2753906,2.46875 0.1564,0.9817 0.6813037,2.29979 1.3710937,3.01562 0.38296,0.39739 1.2727844,0.4181 1.6464844,0.82422 0.29999,0.32603 0.5842281,0.92946 0.5488281,1.37109 -0.03832,0.47818 -0.7287187,0.90099 -0.8242187,1.3711 -0.94306,4.64057 -0.6805575,11.86873 2.1953127,15.63086 0.380519,0.49777 1.297851,0.74736 1.919921,0.82226 0.99368,0.11969 2.327166,-0.27913 3.291016,-0.54883 0.85332,-0.23876 1.902027,-0.81414 2.742187,-1.0957 0.88941,-0.29808 2.080285,-0.89346 3.015625,-0.82226 0.80794,0.0615 1.75888,0.70502 2.46875,1.0957 0.51977,0.28604 1.065712,1.22781 1.644532,1.09766 0.93606,-0.2105 0.923674,-2.11126 1.646484,-2.74219 0.47203,-0.41203 1.299062,-0.90852 1.919922,-0.82422 0.522,0.0709 1.049304,0.68057 1.371094,1.09765 0.49496,0.64153 1.006403,1.66341 1.095703,2.46876 0.09245,0.83389 -0.760968,1.93043 -0.548828,2.74218 0.19177,0.73386 1.166704,1.33244 1.646484,1.91992 0.59336,0.72654 1.548732,1.60534 1.919922,2.4668 0.4282,0.99379 0.0971,2.5831 0.548828,3.56641 0.31663,0.68925 1.207591,1.29991 1.644531,1.91992 0.38208,0.54218 0.833987,1.30934 1.097656,1.91797 0.44484,1.0268 0.786944,2.49083 1.095704,3.5664 0.35241,1.22762 0.423246,3.02866 1.097656,4.11329 0.46179,0.74269 1.658659,1.22786 2.193359,1.91992 0.89977,1.16462 1.413973,3.13955 2.195313,4.38672 0.71638,1.14348 1.972347,2.45821 2.742187,3.5664 0.44281,0.63744 0.781754,1.68829 1.371094,2.19336 0.47575,0.40772 1.479112,0.377 1.919922,0.82227 0.75244,0.76008 1.023994,2.27937 1.371094,3.29101 0.30443,0.88727 1.151195,2.13911 0.822265,3.01758 -0.41607,1.11119 -2.694205,1.16784 -3.291015,2.19336 -0.58082,0.99803 -0.130761,2.69421 -0.275391,3.83984 -0.11521,0.91258 -0.338005,2.11984 -0.546875,3.01563 -0.13601,0.58331 -0.498628,1.32308 -0.548828,1.91992 -0.06238,0.74239 -0.296913,1.98945 0.273437,2.46875 1.00973,0.84851 3.155012,-0.74185 4.388672,-0.27539 0.97947,0.37034 1.530217,2.00046 2.466797,2.46875 1.04066,0.52028 2.703434,0.79842 3.839844,0.54883 1.62708,-0.35737 3.182499,-2.25215 4.662109,-3.01758 1.57403,-0.81428 3.719225,-2.35095 5.484375,-2.19336 0.77307,0.069 1.587913,0.88791 2.195313,1.3711 0.81948,0.6519 1.873977,1.60557 2.466797,2.46874 0.45873,0.66794 0.929456,1.67418 1.097656,2.4668 0.17079,0.80479 -0.34377,1.99668 0,2.74414 0.31695,0.6891 1.352332,1.14137 1.919922,1.64453 1.0022,0.88841 2.484515,1.94642 3.291015,3.01563 0.33235,0.4406 0.861366,1.09597 0.822266,1.64648 -0.09222,1.29755 -1.61172,2.58586 -2.46875,3.56446 -0.80577,0.92009 -2.182415,1.84685 -3.015625,2.74218 -0.9979,1.0723 -2.191888,2.62994 -3.017578,3.83985 -0.739924,1.08421 -1.545242,2.48649 -2.240235,3.75781 l 310.724605,0 c 0.77559,-0.4879 1.77177,-0.88458 2.50196,-1.28906 2.64226,-1.46367 6.22636,-3.31686 8.77539,-4.9375 1.19448,-0.75943 2.80674,-1.77462 3.83984,-2.74219 0.85343,-0.7993 1.7189,-2.1168 2.4668,-3.01563 0.89612,-1.07697 1.95005,-2.65904 3.01757,-3.5664 0.73105,-0.62136 1.84184,-1.31304 2.74219,-1.64453 0.46962,-0.17292 1.32107,0.1084 1.64453,-0.27344 0.31908,-0.37664 0.10248,-1.16361 0,-1.64648 -0.1682,-0.79262 -0.88391,-1.68664 -1.0957,-2.46875 -0.19473,-0.71911 -0.71513,-1.86542 -0.27539,-2.4668 0.49522,-0.67726 1.92812,-0.3458 2.74219,-0.54883 0.8334,-0.20786 2.06607,-0.29502 2.74414,-0.82227 0.37871,-0.29447 0.81726,-0.89141 0.82226,-1.37109 0.007,-0.66326 -0.62184,-1.4578 -1.09765,-1.91992 -1.0033,-0.97443 -3.15316,-1.17634 -4.11328,-2.19336 -0.80861,-0.85655 -1.43302,-2.40762 -1.64454,-3.56641 -0.20736,-1.13597 0.23234,-2.68389 0.27344,-3.83789 0.0293,-0.82219 0,-1.92142 0,-2.74414 l 0,-3.56445 c 0,-0.98725 -0.15814,-2.3165 0,-3.29102 0.12501,-0.77041 0.41194,-1.80482 0.82227,-2.46875 0.79518,-1.28665 2.40765,-2.59229 3.5664,-3.56445 0.76933,-0.64547 2.05084,-1.19155 2.74219,-1.91992 0.53434,-0.56293 1.15712,-1.44729 1.37109,-2.19336 0.22681,-0.79082 0.16542,-1.93628 0,-2.74219 -0.25196,-1.22753 -1.04961,-2.738 -1.64648,-3.83984 -0.56516,-1.04329 -2.15246,-2.10519 -2.19336,-3.29102 -0.0228,-0.66291 0.73006,-1.36781 1.09766,-1.91992 0.74784,-1.12316 2.57342,-2.2257 2.74218,-3.56445 0.0784,-0.62165 -0.42353,-1.43823 -0.82421,-1.91992 -0.56909,-0.68415 -1.75575,-1.10945 -2.4668,-1.64454 -1.11944,-0.84245 -3.43086,-1.62311 -3.56641,-3.01757 -0.051,-0.52432 0.688,-1.03992 1.09766,-1.3711 0.85839,-0.69393 2.38458,-1.01467 3.29102,-1.64453 1.38623,-0.96328 3.1028,-2.48763 4.11328,-3.83984 0.44049,-0.58946 0.7808,-1.52922 1.09765,-2.19336 0.42803,-0.89722 0.85674,-2.1669 1.3711,-3.01758 0.48537,-0.8027 1.92692,-1.52879 1.91992,-2.4668 -0.004,-0.52679 -0.75803,-0.97038 -1.09766,-1.37304 -0.63873,-0.75727 -1.28962,-2.06096 -2.19336,-2.4668 -0.37525,-0.16852 -0.99105,-0.15742 -1.37109,0 -0.64496,0.26715 -1.29247,1.04285 -1.64649,1.64453 -0.60749,1.03241 -0.52829,2.78486 -1.0957,3.83984 -0.35928,0.66801 -0.95737,1.60299 -1.64648,1.91993 -0.74745,0.34377 -2.01245,0.37994 -2.74219,0 -0.89073,-0.46377 -1.3785,-1.89638 -1.91992,-2.74219 -0.6162,-0.96262 -1.15971,-2.43757 -1.91992,-3.29102 -0.54722,-0.61433 -1.41285,-1.38631 -2.19336,-1.64648 -0.85854,-0.28617 -2.11505,0.0892 -3.01563,0 -0.83492,-0.0827 -2.03959,-0.0913 -2.74414,-0.54688 -0.59431,-0.38428 -1.00602,-1.3136 -1.37109,-1.91992 -0.37954,-0.63041 -0.59876,-1.6526 -1.09571,-2.19531 -0.84807,-0.92619 -2.4515,-1.61538 -3.5664,-2.19336 -0.55626,-0.28837 -1.29404,-0.87957 -1.91797,-0.82227 -0.88617,0.0813 -1.79564,1.06247 -2.46875,1.64454 -0.83724,0.724 -1.73085,1.91718 -2.46875,2.74218 -0.66045,0.73839 -1.40704,1.86614 -2.19336,2.46875 -0.43804,0.33571 -1.12715,0.63551 -1.64648,0.82227 -1.03286,0.37145 -2.47388,0.70002 -3.56446,0.82422 -1.7166,0.19551 -4.03226,0.0861 -5.75781,0 -0.8258,-0.0412 -2.14068,0.28981 -2.74414,-0.27539 -0.36524,-0.34209 0.0429,-1.25678 -0.27344,-1.64453 -0.72444,-0.88786 -2.4718,-1.02582 -3.56445,-1.3711 -0.6469,-0.20443 -1.54841,-0.34441 -2.19531,-0.54883 -1.09265,-0.34528 -2.48325,-0.99152 -3.56446,-1.37109 -1.79216,-0.62914 -4.36352,-1.0145 -6.0332,-1.91992 -1.02789,-0.5574 -2.20252,-1.62845 -3.01563,-2.46875 -1.22435,-1.2653 -2.68892,-3.13567 -3.5664,-4.66211 -0.75381,-1.3113 -1.04431,-3.42879 -1.91992,-4.66211 -0.57351,-0.8078 -1.75974,-1.49946 -2.4668,-2.19336 -1.03883,-1.0195 -1.91984,-2.74173 -3.29102,-3.56445 -1.37119,-0.8227 -1.78183,-2.46175 -2.46875,-3.56641 -0.44728,-0.71931 -0.72942,-1.91388 -1.37109,-2.4668 -0.53251,-0.45884 -1.50661,-0.67226 -2.19336,-0.82226 -1.12812,-0.24644 -2.68584,-0.23429 -3.83984,-0.27539 -1.15106,-0.0411 -2.73399,-0.32203 -3.83985,0 -1.02992,0.29991 -2.2972,1.12334 -3.01562,1.91992 -0.73923,0.81966 -1.22408,2.27125 -1.64649,3.29101 -0.39824,0.96144 -0.71939,2.32078 -1.0957,3.29102 -0.293,0.75545 -0.41826,2.02528 -1.09766,2.4668 -1.03476,0.67245 -2.92399,0.32941 -4.11328,0 -0.92462,-0.25611 -2.21146,-0.84524 -2.74218,-1.64453 -0.64357,-0.96929 -0.46633,-2.6793 -0.54883,-3.83985 -0.0758,-1.06684 -0.0333,-2.49545 0,-3.56445 0.0412,-1.31827 0.66233,-3.1284 0.27343,-4.38867 -0.27659,-0.89634 -1.41782,-1.67321 -1.91796,-2.4668 -0.5885,-0.93381 -1.23959,-2.26497 -1.64649,-3.29102 -0.31665,-0.79844 -0.42326,-1.98155 -0.82226,-2.74218 -0.48942,-0.93302 -1.28613,-2.20649 -2.19336,-2.74219 -2.08475,-1.23102 -6.1614,0.25717 -7.95313,-1.37109 -0.6942,-0.63087 -0.27574,-2.25661 -0.82422,-3.01758 -0.52034,-0.72193 -1.85269,-1.00048 -2.46679,-1.64453 -0.66209,-0.69437 -0.81159,-2.26949 -1.64649,-2.74219 -0.57274,-0.32429 -1.54797,-0.12908 -2.19336,0 -1.04874,0.20974 -2.22771,1.48634 -3.29101,1.37109 -0.9984,-0.10821 -1.97284,-1.27446 -2.74219,-1.91992 -1.87181,-1.57041 -4.13826,-3.93203 -5.75977,-5.75976 -0.97211,-1.09573 -2.39365,-2.51366 -3.01562,-3.83985 -0.50017,-1.06648 0.11792,-3.12824 -0.82227,-3.83789 -0.98717,-0.74512 -2.96878,0.74228 -4.11328,0.27344 -0.91674,-0.37554 -1.57414,-1.697 -2.19531,-2.46875 -0.70164,-0.87171 -1.61208,-2.05944 -2.19336,-3.01563 -0.38225,-0.62879 -0.7836,-1.52789 -1.09766,-2.19336 -0.34582,-0.73278 -0.76663,-1.72832 -1.0957,-2.46875 -0.32909,-0.74044 -1.53919,-1.78933 -1.09766,-2.46875 0.22415,-0.34492 0.9774,0.11921 1.3711,0 0.56781,-0.1719 1.34083,-0.58723 1.64648,-1.0957 0.42596,-0.70865 0.42309,-1.93098 0.27344,-2.74414 -0.16647,-0.90463 -0.8623,-1.97591 -1.37109,-2.74219 -0.41957,-0.6319 -1.0107,-1.50626 -1.64649,-1.91992 -0.71997,-0.46843 -2.00479,-0.3818 -2.74219,-0.82226 -0.69922,-0.41762 -2.01016,-1.11073 -1.91796,-1.91993 0.0878,-0.77116 1.65886,-0.80832 2.19336,-1.37109 0.58331,-0.61417 1.24045,-1.6299 1.37109,-2.4668 0.1294,-0.82897 -0.46613,-1.90725 -0.54883,-2.74218 -0.0811,-0.81871 0,-1.92143 0,-2.74414 0,-0.74044 0.18295,-1.74931 0,-2.4668 -0.20719,-0.81255 -0.73895,-1.75679 -1.27734,-2.51758 l -235.832031,0 z"
     id="rect8"
     inkscape:connector-curvature="0" />
  <path
     style="fill:#00a1de"
     clip-path="none"
     d="m 71.337008,399.99933 c -0.590517,0.98698 -1.172843,2.02599 -1.634766,2.9043 -0.6339,1.20531 -1.547672,2.80331 -1.919921,4.11328 -0.384951,1.35462 -0.612976,3.25541 -0.546876,4.66211 0.05534,1.17665 -0.0075,3.00375 0.822266,3.83984 1.60292,1.61514 5.311387,0.75142 7.404297,1.64453 1.09133,0.46569 2.190856,1.75088 3.291016,2.19532 0.85286,0.34453 2.121995,0.32896 3.015625,0.54687 1.08715,0.26509 2.505496,0.74179 3.566406,1.09766 0.91296,0.30623 2.091165,0.82809 3.015625,1.09765 0.72818,0.21233 1.78468,0.22117 2.46875,0.54883 0.4751,0.22757 1.142894,0.6209 1.371094,1.0957 0.4633,0.96396 0.14196,2.50635 0,3.56641 -0.12452,0.92973 -0.524186,2.12622 -0.822266,3.01562 -0.42236,1.26025 -1.395134,2.80814 -1.646484,4.11329 -0.21781,1.13103 -0.0763,2.69057 0,3.83984 0.08246,1.24226 0.355138,2.88346 0.548828,4.11328 0.1431,0.90862 0.774118,2.12578 0.548828,3.01758 -0.12902,0.51075 -0.700986,1.02443 -1.097656,1.37109 -0.72242,0.63137 -1.789928,1.76175 -2.742188,1.64453 -0.57738,-0.0711 -0.855794,-1.10111 -1.371094,-1.37109 -0.81476,-0.42689 -2.131918,-0.79719 -3.017578,-0.54883 -0.95389,0.26748 -1.808027,1.45345 -2.466797,2.19336 -0.66778,0.75005 -1.945222,1.7402 -1.919922,2.74414 0.0236,0.93774 2.024782,1.53465 1.919922,2.4668 -0.13069,1.16197 -2.321308,1.52935 -3.017578,2.46875 -0.90065,1.21514 -1.675932,3.16937 -1.919922,4.66211 -0.19951,1.22061 0.234291,2.87715 0.275391,4.11328 0.0383,1.15116 0.30745,2.72985 0,3.83984 -0.12805,0.46232 -0.431536,1.09278 -0.822266,1.3711 -1.30109,0.92677 -3.781807,0.38201 -5.210937,1.0957 -0.78241,0.39074 -1.50904,1.37536 -2.19336,1.91992 -1.429369,1.13746 -3.57838,2.34587 -4.9375,3.56641 -0.823519,0.73955 -2.02962,1.72618 -2.46875,2.74219 -0.393059,0.90936 -0.460787,2.31821 -0.273437,3.29101 0.17395,0.90322 0.808734,2.01431 1.371094,2.74219 0.53469,0.69205 1.374679,1.61232 2.193359,1.91992 1.23222,0.463 3.254162,0.66756 4.388672,0 0.73005,-0.42955 0.641064,-2.03919 1.371094,-2.46875 0.70908,-0.41722 1.992997,-0.33995 2.742187,0 0.7964,0.36139 1.612322,1.37468 1.919922,2.19336 0.26043,0.69312 0.41072,1.85267 0,2.46875 -0.59327,0.88991 -2.697755,0.4812 -3.291015,1.37109 -0.22819,0.34227 -0.1745,0.99858 0,1.3711 0.27254,0.58189 1.245591,0.86738 1.644531,1.37109 0.45688,0.57684 1.097656,1.45751 1.097656,2.19336 0,0.5519 -0.437976,1.25038 -0.822266,1.64649 -0.84583,0.87185 -2.643753,1.12756 -3.564453,1.91992 -0.62358,0.53666 -1.331644,1.43327 -1.646484,2.19336 -0.22264,0.53745 0.116182,1.48791 -0.273438,1.91992 -0.45438,0.50378 -1.548422,0.3444 -2.195312,0.54883 -1.09265,0.34528 -2.587543,0.77215 -3.564453,1.37109 -0.94362,0.57854 -2.479518,1.39158 -2.742188,2.4668 -0.16682,0.68285 0.740066,1.49721 0.822266,2.19531 0.07756,0.65875 0.05048,1.61454 -0.273438,2.19336 -0.51452,0.91941 -1.781667,1.76042 -2.742187,2.19336 -1.751,0.78923 -4.414814,1.41776 -6.308594,1.09765 -0.83519,-0.14118 -1.627027,-1.26039 -2.466797,-1.37109 -1.34521,-0.17731 -3.092012,0.69604 -4.388672,1.0957 -1.59195,0.49067 -4.732367,0.32429 -5.210937,1.91993 -0.55781,1.85982 2.863914,3.53233 3.839844,5.21093 0.40726,0.70048 0.505166,1.91603 1.097656,2.46875 0.70416,0.65685 2.064385,1.24546 3.015625,1.09571 0.92663,-0.14586 1.60308,-1.55668 2.46875,-1.91797 1.76106,-0.73502 4.62177,-1.72015 6.306641,-0.82422 0.812139,0.43186 1.042823,1.88294 1.371093,2.74219 0.33479,0.87626 0.699719,2.08785 0.824219,3.01757 0.12014,0.89697 0.20793,2.13487 0,3.01563 -0.16906,0.71618 -0.768576,1.53713 -1.097656,2.19531 -0.41136,0.82271 -1.122734,1.85653 -1.371094,2.74219 -0.26724,0.95388 -0.549351,2.33897 -0.275391,3.29102 0.34125,1.18594 1.53178,2.48789 2.46875,3.29101 1.06191,0.91021 3.223372,1.11439 4.113282,2.19336 0.712,0.86326 0.326546,2.75355 1.097656,3.56445 0.66359,0.69781 2.203385,0.58037 3.015625,1.09766 0.58882,0.375 1.203904,1.10466 1.646484,1.64453 1.12837,1.37639 2.014136,3.69764 3.291016,4.9375 0.55683,0.54069 1.447299,1.15712 2.193359,1.3711 0.79083,0.22681 1.919778,0.0229 2.742188,0 1.48259,-0.0412 3.47135,-0.49945 4.9375,-0.2754 0.69486,0.10618 1.542819,0.55796 2.193359,0.82422 0.7499,0.30694 1.6662,0.98413 2.46875,1.09571 1.1524,0.16025 2.797231,-0.0285 3.837891,-0.54883 0.83253,-0.41627 1.461662,-1.62054 2.195312,-2.19336 0.75624,-0.59046 1.793198,-1.5033 2.742188,-1.64453 1.6776,-0.24963 3.893655,0.78265 5.484375,1.37109 1.035217,0.38295 2.249463,1.27917 3.291013,1.64453 1.11155,0.38991 2.66649,0.69817 3.83789,0.82227 1.47264,0.15601 3.45662,0 4.9375,0 1.39862,0 3.2795,-0.21101 4.66211,0 1.36333,0.20805 3.1647,0.73184 4.38672,1.37109 0.83118,0.4348 1.63228,1.49537 2.46875,1.91992 1.06816,0.54215 2.91805,0.33265 3.83984,1.09766 0.42469,0.35247 0.9968,1.12096 0.82227,1.64453 -0.23271,0.6981 -1.66185,0.58877 -2.19336,1.09766 -0.61181,0.5858 -1.64914,1.66864 -1.3711,2.46875 0.35108,1.01026 2.44678,0.71447 3.29102,1.37109 0.6494,0.5051 1.54249,1.377 1.64453,2.19336 0.13266,1.06126 -0.53806,2.62022 -1.37109,3.29102 -0.71643,0.57687 -2.58223,-0.26145 -3.01758,0.54882 -0.29654,0.55194 0.53899,1.36207 0.82422,1.91993 0.43679,0.85425 1.25186,1.86677 1.64453,2.74218 0.56443,1.25832 0.85537,3.10766 1.37109,4.38672 0.41276,1.0237 0.54884,3.17475 1.64649,3.29102 0.52386,0.0555 0.70739,-1.0151 1.0957,-1.3711 0.43729,-0.40092 1.05848,-1.017 1.64649,-1.0957 0.77357,-0.10359 2.01042,0.18911 2.46679,0.82227 0.43294,0.60068 0.20413,1.75505 0,2.46679 -0.21397,0.74607 -0.64073,1.93267 -1.37109,2.19532 -0.48963,0.17608 -1.15236,-0.71771 -1.64453,-0.54883 -1.12232,0.38507 -2.20686,2.10456 -2.19336,3.29101 0.0114,1.00418 0.94281,2.51025 1.91992,2.74219 2.36375,0.5611 5.24749,-2.3028 7.12891,-3.83984 0.4976,-0.40653 0.76024,-1.44513 1.37109,-1.64453 0.64493,-0.21053 1.59156,0.23938 2.19531,0.54882 1.24682,0.63902 2.20418,2.68016 3.56446,3.01563 0.73643,0.18162 1.73545,-0.35487 2.46874,-0.54883 1.08183,-0.28615 2.48264,-0.80956 3.56446,-1.0957 0.73329,-0.19396 1.72004,-0.67032 2.46875,-0.54883 0.47353,0.0768 1.36709,0.34257 1.37109,0.82227 0.007,0.77612 -1.81906,0.69223 -2.19531,1.37109 -0.51848,0.93545 -0.75627,2.8082 0,3.56445 1.16349,1.16349 3.84504,-0.11663 5.48633,0 1.16057,0.0825 2.85754,1.17543 3.83789,0.54883 0.72371,-0.46258 0.50562,-1.94375 0.82226,-2.74219 0.54255,-1.36807 1.66684,-3.01317 2.19532,-4.38672 0.55191,-1.43444 0.44014,-3.71457 1.37109,-4.9375 0.87172,-1.14511 2.74351,-2.02729 4.11328,-2.46875 0.94292,-0.30394 2.30077,-0.30253 3.29102,-0.27343 1.16299,0.0342 2.69443,0.34454 3.83984,0.54883 1.15965,0.20682 2.9202,0.0838 3.83789,0.82226 0.77445,0.62324 0.80487,2.20052 1.37109,3.01758 0.92782,1.33883 2.58928,2.79419 3.83985,3.83789 0.99872,0.83349 2.3228,2.08088 3.56445,2.46875 0.94235,0.29436 2.59293,0.69809 3.29102,0 0.93079,-0.9308 0.0728,-3.07434 0,-4.38867 -0.0824,-1.48772 -0.51758,-3.44583 -0.54688,-4.93555 -0.0227,-1.15451 -0.006,-2.71953 0.27344,-3.83984 0.19636,-0.78613 0.43151,-2.0055 1.09766,-2.4668 1.15181,-0.79762 3.26126,-0.29769 4.66211,-0.27539 0.9086,0.0145 2.19584,0.66743 3.01562,0.27539 0.80284,-0.38393 1.25551,-1.66934 1.64649,-2.46875 0.45722,-0.93484 0.72586,-2.31829 1.0957,-3.29102 0.44533,-1.17132 1.36055,-2.61978 1.64648,-3.83984 0.33843,-1.44404 -0.005,-3.47869 0.27344,-4.93555 0.19513,-1.0222 0.11841,-2.93884 1.09766,-3.29101 1.46071,-0.5253 2.8453,2.55879 4.38672,2.74219 0.77503,0.0922 1.86719,-1.31956 2.46874,-0.82227 0.95958,0.79325 -1.54552,3.36721 -0.54882,4.11328 1.29735,0.97111 3.5997,-1.27591 4.93554,-2.19336 0.86317,-0.59283 1.50131,-2.06802 2.46875,-2.46875 0.7601,-0.31484 1.93011,0.13178 2.74219,0 0.5136,-0.0833 1.47762,-0.0567 1.64649,-0.54883 0.28881,-0.84173 -1.0823,-1.77859 -1.64649,-2.46679 -0.66387,-0.80979 -2.14102,-1.47357 -2.4668,-2.46875 -0.33666,-1.02841 -0.1421,-2.73003 0.54688,-3.56446 0.77872,-0.94311 2.7093,-0.90448 3.83984,-1.37109 1.42882,-0.58971 3.14178,-1.91625 4.66211,-2.19531 1.05505,-0.19367 2.51059,0.0753 3.56446,0.27539 1.09937,0.20875 2.45983,0.9293 3.5664,1.0957 2.03392,0.30584 4.79868,0 6.85547,0 1.80997,0 4.33889,0.63661 6.0332,0 0.81866,-0.3076 1.3941,-1.56493 2.19336,-1.91992 1.28703,-0.57158 3.26144,-0.40084 4.66211,-0.54688 0.90381,-0.0942 2.11051,-0.33009 3.01758,-0.27539 1.17581,0.0709 2.74654,1.26559 3.83789,0.82227 0.54965,-0.22328 0.79989,-1.13141 1.09766,-1.64453 0.27702,-0.47734 0.30639,-1.4484 0.82226,-1.64453 0.82825,-0.3149 2.0452,0.54856 2.74219,1.0957 0.5567,0.437 0.72889,1.62251 1.37109,1.91992 0.89895,0.41632 2.35119,-0.58673 3.29102,-0.27344 0.93984,0.31328 1.60718,1.70433 2.46875,2.19336 1.4256,0.80919 3.63347,1.19874 5.21094,1.64454 0.97928,0.27675 2.38927,0.35256 3.29101,0.82421 0.77496,0.40533 1.86539,1.10725 2.19336,1.91797 0.37154,0.91839 -0.64497,2.37264 -0.27344,3.29102 0.32798,0.81072 1.60927,1.26901 2.19336,1.91992 0.6707,0.74744 1.2018,2.04019 1.91993,2.74219 0.63636,0.62206 1.85268,1.00243 2.46679,1.64648 0.33106,0.34719 0.65847,0.92092 0.82422,1.3711 0.17291,0.46962 0.21304,1.14775 0.27344,1.64453 0.12944,1.06485 -0.2477,2.6299 0.27539,3.5664 0.54568,0.97695 1.99075,1.74414 3.01563,2.19336 0.76843,0.33683 1.93152,0.76511 2.74218,0.54883 0.84499,-0.22543 1.34324,-1.71465 2.19336,-1.91992 0.65947,-0.15923 1.71559,0.0691 2.19531,0.54883 0.47967,0.47972 -0.0959,1.97639 0.54688,2.19336 0.49912,0.16847 0.84675,-1.07476 1.37305,-1.09766 1.18542,-0.0514 2.5832,1.24157 3.28906,2.19531 0.51097,0.69042 0.48203,1.95436 0.82422,2.74219 0.45534,1.04833 0.89536,2.78445 1.91992,3.29102 1.18916,0.58797 3.0859,-0.809 4.38672,-0.54883 0.6504,0.13009 1.31036,0.83416 1.91992,1.0957 0.78935,0.33867 1.90879,0.61636 2.74219,0.82422 1.2211,0.30456 2.96164,0.31476 4.11328,0.82227 1.40039,0.61713 2.79266,2.2424 4.11328,3.01562 0.85787,0.50227 2.08048,1.70286 3.01758,1.37109 0.52024,-0.18419 0.73386,-1.09978 0.82226,-1.64453 0.18638,-1.14848 -0.43417,-2.68201 -0.54882,-3.83984 -0.14615,-1.47595 -0.17944,-3.45535 -0.27344,-4.93555 -0.0732,-1.15241 -0.30049,-2.68538 -0.27539,-3.83984 0.0469,-2.15273 0.7006,-4.98117 0.82422,-7.13086 0.0567,-0.98563 0.17614,-2.31765 0,-3.28906 -0.25084,-1.38329 -1.51061,-2.98941 -1.64649,-4.38868 -0.14512,-1.49428 0.73587,-3.43671 0.82227,-4.93554 0.0948,-1.64473 -0.0102,-3.86001 -0.27344,-5.48633 -0.24556,-1.51721 -1.0069,-3.44237 -1.37109,-4.93555 -0.37851,-1.55193 -0.53502,-3.71589 -1.09766,-5.21093 -0.53196,-1.41351 -2.08409,-2.92572 -2.4668,-4.38672 -0.33356,-1.27338 -0.44253,-3.14895 0,-4.38868 0.3931,-1.10123 1.74003,-2.09963 2.4668,-3.01562 0.83868,-1.05705 1.89876,-2.51314 2.74219,-3.56641 0.80328,-1.00312 1.87754,-2.34206 2.74414,-3.29101 0.94151,-1.03097 2.43664,-2.18329 3.28906,-3.28906 0.69782,-0.90521 1.62163,-2.18769 1.91992,-3.29102 0.42942,-1.5884 0.75988,-4.02688 0,-5.48633 -0.46377,-0.89076 -1.99007,-1.25249 -2.74218,-1.91797 -0.82895,-0.73345 -1.56483,-2.1026 -2.4668,-2.74414 -1.3821,-0.98306 -3.83186,-1.20604 -5.21094,-2.19336 -0.80551,-0.57669 -1.78638,-1.5664 -2.19531,-2.46875 -0.27378,-0.60415 -0.46771,-1.55916 -0.27344,-2.19336 0.25615,-0.83621 1.43247,-1.46726 1.91992,-2.19336 0.41017,-0.61095 0.45125,-1.84171 1.09766,-2.19336 1.30884,-0.71205 3.49287,0.17432 4.93555,0.54688 1.03555,0.26742 2.22646,1.47621 3.29101,1.37305 0.59049,-0.0572 1.27576,-0.63294 1.64453,-1.09766 0.43695,-0.55063 0.97303,-1.50637 0.82422,-2.19336 -0.22168,-1.02341 -1.72832,-1.7283 -2.46875,-2.46875 -0.41136,-0.41135 -1.06526,-0.87622 -1.37109,-1.37109 -0.41033,-0.66393 -0.74857,-1.69175 -0.82227,-2.46875 -0.11759,-1.23943 0.0843,-2.95741 0.54688,-4.11328 0.41575,-1.0389 1.37412,-2.25547 2.19531,-3.01563 0.92158,-0.8531 2.3561,-1.85329 3.56445,-2.19531 1.18742,-0.3361 3.00949,0.5519 4.11328,0 0.73584,-0.36792 1.16653,-1.52516 1.64649,-2.19336 0.93193,-1.29741 1.99407,-3.16058 3.01562,-4.38867 0.89285,-1.07339 2.32753,-2.2786 3.29102,-3.28907 0.844,-0.88515 1.83153,-2.20115 2.74219,-3.01757 0.83319,-0.74698 2.37639,-1.27627 3.01757,-2.19336 0.68638,-0.98175 0.75502,-2.69143 1.09571,-3.83985 0.31827,-1.0728 0.74349,-2.50296 1.09765,-3.56445 2.07555,-6.2209 5.55306,-14.27707 7.4043,-20.56836 0.30984,-1.05299 0.78847,-2.46733 0.82227,-3.56445 0.0154,-0.50021 0.0804,-1.29262 -0.27344,-1.64649 -0.70773,-0.70772 -2.30275,-0.39046 -3.29102,-0.54882 -1.06847,-0.17124 -2.75276,0.16873 -3.56445,-0.54688 -0.44928,-0.39609 -0.49543,-1.32336 -0.54883,-1.91992 -0.0737,-0.82352 -0.0268,-1.9718 0.27344,-2.74219 0.44809,-1.14985 1.57972,-2.43513 2.46875,-3.29101 0.93711,-0.90221 2.60123,-1.59448 3.56445,-2.46876 1.0374,-0.94163 2.21181,-2.41832 3.01758,-3.56445 1.4203,-2.02021 2.72986,-5.08521 4.11328,-7.13086 0.82059,-1.21338 1.89726,-2.89386 3.01563,-3.83984 0.78706,-0.66573 2.11583,-1.14501 3.01758,-1.64453 0.38978,-0.21592 0.88025,-0.48011 1.30468,-0.71094 l -313.398432,0 z"
     id="rect4"
     inkscape:connector-curvature="0" />
  <path
     style="fill:#ed2939"
     clip-path="none"
     d="m 152.5245,0.00128015 c -1.35179,-0.06555364 -2.56742,2.40544685 -3.84179,3.06445305 -0.69328,0.35851 -1.73919,0.5448957 -2.46875,0.8222657 -1.17131,0.44534 -2.65035,1.2464343 -3.83789,1.6464843 -0.96438,0.3248801 -2.28273,0.6846557 -3.29102,0.8222657 -3.09866,0.42292 -7.30554,0.010717 -10.42187,0.2734375 -1.15938,0.09773 -2.71067,0.2606081 -3.83789,0.5488281 -0.68102,0.17414 -1.6729,0.3519556 -2.19532,0.8222656 -0.68361,0.61542 -1.13009,1.8545075 -1.37109,2.7421879 -0.32403,1.1936 -0.27044,2.876481 -0.27344,4.113281 -0.003,1.3189 -0.008,3.100062 0.27344,4.388672 0.24425,1.11956 1.24229,2.425803 1.37109,3.564453 0.0654,0.57806 -0.0475,1.383832 -0.27343,1.919922 -0.52395,1.24346 -2.17553,2.341796 -2.74219,3.566406 -0.49469,1.06903 -0.55599,2.690441 -0.82227,3.837891 -0.23006,0.99128 -0.73352,2.277425 -0.82422,3.291015 -0.11019,1.23188 0.0632,2.894821 0.2754,4.113281 0.20552,1.180141 1.68375,2.796234 1.0957,3.839844 -0.92096,1.63443 -4.20153,1.240705 -6.0332,1.646485 -2.85234,0.6319 -6.83109,0.705781 -9.59766,1.644531 -1.67276,0.56759 -3.67494,1.869827 -5.210936,2.742187 -1.50911,0.85709 -3.564367,2.469108 -4.935547,3.017579 -1.37119,0.548479 -2.308485,1.528149 -3.291015,2.193359 -1.32277,0.89555 -3.408332,1.754415 -4.388672,3.015625 -1.02236,1.31527 -1.457209,3.610057 -1.917969,5.210937 -0.44182,1.5351 -0.823426,4.113998 -1.097656,5.210938 -0.27424,1.09696 -1.9276,3.174999 -2.46875,4.662109 -0.40281,1.10694 -0.795166,2.662212 -0.822266,3.839844 -0.03449,1.500914 0.648716,3.4443 0.822266,4.935547 0.14299,1.22851 0.627251,2.927583 0.27539,4.113281 -0.234039,0.788718 -0.970594,1.7243 -1.646484,2.19336 -1.1977,0.83118 -3.298409,0.855707 -4.662109,1.371093 -1.2739,0.481441 -2.941531,1.225969 -4.113281,1.919922 -1.31675,0.779818 -3.183972,1.801725 -4.113282,3.017578 -0.69587,0.910424 -1.099913,2.451089 -1.371094,3.564453 -0.352609,1.447676 -0.810458,3.470639 -0.548828,4.937499 0.1615,0.90553 0.701854,2.11117 1.371094,2.74219 0.45587,0.42984 1.417542,0.44786 1.919922,0.82227 1.03043,0.76796 2.187748,2.13164 2.742188,3.29101 0.36196,0.75692 0.525528,1.90351 0.548828,2.74219 0.01614,0.58152 0.0045,1.40996 -0.275391,1.91992 -0.36499,0.6649 -1.468939,1.03322 -1.917969,1.64453 -0.37092,0.50497 -0.444789,1.42131 -0.824218,1.91993 -0.63802,0.83843 -2.173188,1.30662 -2.742188,2.19335 -0.3664,0.57098 -0.612328,1.51988 -0.548828,2.19532 0.11022,1.17277 1.697584,2.38762 1.646484,3.56445 -0.02876,0.66268 -0.652936,1.42779 -1.097656,1.91992 -0.47451,0.52508 -1.521622,0.7861 -1.919922,1.3711 -0.38181,0.56079 -0.239715,1.58846 -0.546875,2.19336 -0.29093,0.57293 -0.846094,1.276 -1.371094,1.64648 -1.36109,0.96048 -3.632677,1.38487 -5.210937,1.91797 -1.06017,0.3581 -2.472306,0.86282 -3.566406,1.09766 -1.29705,0.27839 -3.195029,-0.034 -4.386719,0.54882 -0.94066,0.46006 -2.09231,1.49161 -2.46875,2.46875 -0.59226,1.53734 0.193091,3.83895 0.275391,5.48438 0.08227,1.64542 -0.226543,3.91459 0.273437,5.48437 0.32554,1.02209 1.248712,2.1789 1.919922,3.01563 0.65523,0.81682 1.70407,1.75336 2.46875,2.46875 0.63864,0.59748 1.498959,1.38828 2.193359,1.91992 0.70659,0.54098 1.963787,0.91237 2.466797,1.64648 0.42874,0.6257 0.548828,1.7083 0.548828,2.4668 0,1.517 -0.365703,3.60768 -1.095703,4.9375 -0.44792,0.81594 -1.424552,1.67153 -2.195312,2.19336 -0.51884,0.35127 -1.367049,0.52384 -1.917969,0.82227 -1.56494,0.84774 -3.28241,2.63651 -4.9375,3.29101 -0.93075,0.36806 -2.450536,0.005 -3.291016,0.54883 -0.7473,0.48319 -1.351481,1.62848 -1.644531,2.46875 -0.32624,0.93542 -0.07619,2.31862 -0.275391,3.28906 -0.15693,0.76455 -0.189085,2.01239 -0.822265,2.46875 -0.53392,0.38485 -1.56343,0.19073 -2.19336,0 -1.13562,-0.34384 -2.119795,-2.00329 -3.291015,-2.19336 -0.92592,-0.15025 -2.361378,0.15196 -3.017578,0.82227 -0.47457,0.4848 -0.01214,1.77585 -0.546875,2.19336 -0.64847,0.50631 -1.934308,0.15557 -2.742188,0 -0.87011,-0.16757 -1.85883,-1.1325 -2.74414,-1.0957 -0.73522,0.0306 -1.8065,0.46974 -2.19336,1.0957 -0.34601,0.55986 0.25187,1.58724 0,2.19531 -0.22262,0.53746 -1.130714,0.84134 -1.371094,1.37109 -0.51107,1.12627 -0.06857,2.89356 -0.273437,4.11329 -0.15538,0.92507 -0.781219,2.07857 -0.824219,3.01562 -0.06501,1.41873 0.600359,3.25965 0.824219,4.66211 0.118248,0.74083 0.384966,1.64308 0.513672,2.5 l 236.519528,0 c -0.33486,-0.8781 -0.92524,-1.82919 -1.46289,-2.5 -0.54697,-0.68241 -2.05044,-1.05744 -2.19531,-1.91992 -0.10986,-0.65413 0.65868,-1.42071 1.09765,-1.91797 0.54447,-0.61677 2.13496,-0.82583 2.19336,-1.64649 0.0412,-0.58028 -0.84334,-1.12633 -1.37109,-1.37109 -0.89872,-0.41682 -2.32684,-0.0458 -3.29102,-0.27344 -0.86239,-0.20359 -1.98109,-0.64388 -2.74218,-1.09765 -0.5519,-0.32905 -1.0099,-1.27056 -1.64454,-1.3711 -0.87518,-0.13864 -2.19465,0.40098 -2.74218,1.09766 -0.71895,0.91478 0.49635,3.3267 -0.54883,3.83789 -0.59584,0.29142 -1.4925,-0.58848 -1.91992,-1.0957 -0.62051,-0.73638 -0.87839,-2.07992 -1.09766,-3.01758 -0.16963,-0.72543 -0.20374,-1.72702 -0.27344,-2.46875 -0.10037,-1.06798 -0.19599,-2.49471 -0.27539,-3.56445 -0.0854,-1.15157 0.0516,-2.73181 -0.27344,-3.83985 -0.29015,-0.98918 -0.68526,-2.63818 -1.64453,-3.01562 -0.9684,-0.38101 -2.47338,0.45389 -3.29101,1.09765 -0.60983,0.48013 -1.25806,1.4255 -1.3711,2.19336 -0.13663,0.92805 0.4633,2.14899 0.82227,3.01563 0.25382,0.6128 0.7406,1.35969 1.0957,1.91992 0.53764,0.84821 1.95203,1.73845 1.91993,2.74219 -0.0337,1.05304 -1.17898,2.45747 -2.19336,2.74219 -0.92713,0.26024 -2.32849,-0.42109 -3.01563,-1.09571 -0.8177,-0.80278 -1.11105,-2.45038 -1.37109,-3.5664 -0.20624,-0.88501 0.18926,-2.23469 -0.27539,-3.01563 -0.45502,-0.76476 -1.93684,-0.93304 -2.46875,-1.64648 -0.66884,-0.89713 -0.78871,-2.48839 -1.09571,-3.56446 -0.44345,-1.55436 -1.43519,-3.59582 -1.37109,-5.21093 0.0691,-1.74192 1.28824,-3.85954 1.91992,-5.48438 0.45406,-1.16796 2.20138,-2.71724 1.64453,-3.83984 -0.75367,-1.51941 -3.8611,-0.8796 -5.48437,-1.3711 -1.17058,-0.35442 -2.87584,-0.61842 -3.83985,-1.37109 -1.16903,-0.91276 -1.50983,-3.28799 -2.74218,-4.11328 -0.34855,-0.23343 -0.95656,-0.20914 -1.3711,-0.27344 -0.73618,-0.1143 -1.8126,0.0774 -2.46875,-0.27539 -1.13187,-0.60861 -2.40585,-2.0507 -2.74218,-3.29102 -0.13098,-0.483 -0.17054,-1.41745 0.27539,-1.64453 1.31147,-0.66784 3.05785,2.82586 4.38671,2.19336 0.68489,-0.32598 0.39219,-1.72464 0.54883,-2.46679 0.17328,-0.82091 0.38427,-1.92143 0.54883,-2.74415 0.16454,-0.82272 0.69204,-1.91548 0.54883,-2.74218 -0.0819,-0.47269 -0.41906,-1.11423 -0.82422,-1.3711 -0.69831,-0.4427 -1.96086,-0.003 -2.74219,-0.27343 -1.01369,-0.35085 -2.39991,-1.04155 -3.01562,-1.91993 -0.43537,-0.62112 -0.67034,-1.72004 -0.54883,-2.46875 0.0768,-0.47352 0.52704,-0.99297 0.82227,-1.37109 0.50123,-0.64196 1.31306,-1.37674 1.91992,-1.91992 0.78505,-0.70265 2.5448,-1.15842 2.74218,-2.19336 0.12427,-0.65154 -0.60948,-1.46874 -1.0957,-1.91992 -1.4027,-1.30161 -4.39371,-1.40216 -5.75976,-2.74219 -0.78796,-0.77295 -1.46014,-2.20308 -1.64649,-3.29102 -0.11198,-0.65377 0.12866,-1.54649 0.27539,-2.19335 0.28775,-1.26861 1.16274,-2.82926 1.3711,-4.11329 0.10543,-0.64968 0.18706,-1.56233 0,-2.19336 -0.55777,-1.88154 -2.39948,-3.90703 -3.56446,-5.48632 -0.76288,-1.03418 -2.45562,-2.03631 -2.74218,-3.28907 -0.15128,-0.66135 0.34517,-1.54757 0.54687,-2.19531 0.20898,-0.67115 0.81122,-1.49056 0.82422,-2.19336 0.01,-0.52024 -0.0331,-1.57738 -0.54883,-1.64648 -0.58801,-0.0787 -0.69674,1.20919 -1.09766,1.64648 -0.356,0.3883 -0.8451,1.12676 -1.37109,1.09766 -1.04553,-0.0579 -2.06802,-1.50131 -2.46875,-2.46875 -0.31484,-0.76009 -0.2384,-1.954785 0,-2.742192 0.17193,-0.567817 0.52787,-1.481227 1.09766,-1.646485 0.77821,-0.225707 1.72739,1.424656 2.46875,1.097656 0.71411,-0.314979 0.80536,-1.68844 0.82226,-2.46875 0.013,-0.598804 -0.79001,-1.371679 -0.54883,-1.919921 0.37037,-0.841962 2.09179,-0.720685 2.74219,-1.371094 0.52032,-0.52032 1.16376,-1.46048 1.09766,-2.193359 -0.037,-0.409699 -0.42191,-1.003147 -0.82227,-1.097657 -1.43235,-0.33813 -3.04153,2.78792 -4.38867,2.195313 -0.54823,-0.241174 -0.59853,-1.32304 -0.54883,-1.919922 0.15875,-1.906982 2.2053,-3.923047 2.74219,-5.759766 0.18613,-0.636649 0.37249,-1.537216 0.27539,-2.193359 -0.11864,-0.80155 -0.99541,-1.664955 -1.09766,-2.46875 -0.0632,-0.496444 -0.0293,-1.247557 0.2754,-1.644531 0.60528,-0.788576 2.10139,-0.980708 3.01562,-1.371094 0.81491,-0.347965 2.18659,-0.407386 2.74219,-1.097656 0.31373,-0.389848 0.42811,-1.167962 0.27539,-1.644532 -0.17754,-0.554 -1.02452,-0.905303 -1.37305,-1.371093 -0.61758,-0.82538 -1.51377,-1.995038 -1.64453,-3.017579 -0.0861,-0.67295 0.0293,-1.757059 0.54883,-2.193359 0.88427,-0.74264 2.90732,0.405659 3.83984,-0.275391 0.35778,-0.261309 0.66649,-0.944503 0.54688,-1.371093 -0.22214,-0.79215 -1.82543,-0.908682 -2.19336,-1.644531 -0.29435,-0.588691 -0.12015,-1.54625 0,-2.19336 0.2092,-1.12665 1.75083,-2.485246 1.37109,-3.566406 -0.37877,-1.07836 -2.86083,-0.861022 -3.29101,-1.919922 -0.57849,-1.42393 0.49508,-3.672697 1.37109,-4.935547 0.63782,-0.91946 2.45543,-1.225799 3.01758,-2.193359 0.74852,-1.28833 1.54255,-3.82727 0.54883,-4.9375 -0.76815,-0.85825 -2.77573,0.44078 -3.83985,0 -0.85993,-0.3562 -1.55481,-1.51615 -2.19336,-2.19336 -0.67964,-0.7208 -1.36826,-1.921427 -2.19531,-2.466796 -1.08599,-0.716091 -3.38225,-0.297067 -4.11328,-1.373047 -0.83351,-1.22681 -0.27475,-3.558177 0.27539,-4.935547 0.801,-2.00548 4.52387,-3.329285 4.66211,-5.484375 0.12563,-1.95844 -3.25467,-3.546815 -3.56641,-5.484375 -0.25676,-1.59586 1.96069,-3.705928 1.3711,-5.210938 -0.78254,-1.99757 -4.20132,-2.723243 -6.03321,-3.839844 -0.97595,-0.59488 -2.15413,-1.802211 -3.29101,-1.919921 -0.51757,-0.05359 -1.12789,0.486928 -1.64453,0.548828 -0.98363,0.11791 -2.34129,0.0085 -3.29102,-0.273438 -1.1645,-0.34565 -2.37197,-1.6885516 -3.56445,-1.9199216 -0.73136,-0.14189 -1.85765,-0.1526825 -2.46875,0.2734375 -0.60362,0.42088 -0.97342,1.4700121 -1.09766,2.1953121 -0.22397,1.30754 0.51053,3.060689 0.54883,4.386719 0.0357,1.23629 -0.0976,2.889031 -0.27344,4.113281 -0.10781,0.75082 0.0831,2.04918 -0.54883,2.46875 -0.76629,0.5088 -2.11491,-0.725648 -3.01757,-0.548828 -1.05268,0.20621 -2.05575,1.441072 -3.01563,1.919922 -0.62899,0.3138 -1.49079,0.800066 -2.19336,0.822266 -1.97694,0.06262 -4.46282,-1.209022 -6.30859,-1.919922 -1.44246,-0.55557 -3.33765,-1.39642 -4.66211,-2.193359 -1.40988,-0.84834 -3.41048,-1.966486 -4.38672,-3.291016 -0.72564,-0.98452 -1.12236,-2.642354 -1.37109,-3.839844 -0.25154,-1.21097 -0.0261,-2.901861 -0.2754,-4.1132811 -0.59781,-2.90547 -0.45661,-8.44937876 -3.29101,-9.32421876 -0.0914,-0.02820937 -0.18137,-0.04250475 -0.27149,-0.04687499 z"
     id="rect6"
     inkscape:connector-curvature="0" />
</svg>
