<?xml version="1.0" encoding="UTF-8" ?>
<!DOCTYPE svg PUBLIC "-//W3C//DTD SVG 1.1//EN" "http://www.w3.org/Graphics/SVG/1.1/DTD/svg11.dtd">
<svg width="188pt" height="987pt" viewBox="0 0 188 987" version="1.1" xmlns="http://www.w3.org/2000/svg">
<g id="#c20023ef">
<path fill="#c20023" opacity="0.94" d=" M 48.87 16.33 C 51.75 13.16 54.68 10.05 57.87 7.18 C 65.86 9.28 71.53 16.15 74.66 23.47 C 73.80 27.91 72.01 32.18 71.32 36.69 C 68.43 36.23 65.38 35.89 62.92 34.16 C 60.68 32.95 60.06 30.30 58.66 28.37 C 56.93 27.03 54.77 26.38 53.04 25.04 C 51.15 22.41 50.18 19.26 48.87 16.33 M 60.66 13.77 C 58.61 13.81 56.56 13.86 54.52 13.91 C 55.05 15.75 55.11 17.90 56.50 19.36 C 60.25 23.50 64.08 27.64 68.75 30.77 C 68.75 27.49 68.82 24.10 67.54 21.02 C 66.67 18.53 64.42 16.97 62.77 15.05 C 62.57 13.64 62.42 12.23 62.33 10.81 C 61.77 11.79 61.22 12.78 60.66 13.77 Z" />
<path fill="#c20023" opacity="0.94" d=" M 87.18 30.34 C 91.16 29.59 95.24 30.02 99.25 30.12 C 98.75 32.51 97.98 34.83 96.95 37.05 C 95.80 36.11 94.65 35.16 93.51 34.21 C 91.38 35.47 89.03 36.20 86.53 35.98 C 85.29 38.66 84.13 41.37 83.00 44.09 C 78.46 45.82 73.62 46.53 68.77 46.40 C 68.74 49.05 68.72 51.71 68.66 54.37 C 66.26 56.15 63.92 58.02 61.67 59.98 C 63.16 66.64 61.08 73.29 58.64 79.44 C 56.52 83.93 58.06 88.94 59.32 93.44 C 61.26 98.83 63.08 104.62 67.28 108.74 C 68.81 110.29 70.48 111.70 72.12 113.13 C 72.17 117.70 73.74 122.00 75.56 126.13 C 78.15 131.77 77.88 138.11 79.13 144.08 C 80.98 146.46 83.63 148.11 85.37 150.60 C 89.75 157.91 90.07 166.68 93.75 174.29 C 95.19 178.80 99.49 181.37 101.65 185.44 C 103.26 188.59 106.61 190.60 110.01 191.23 C 115.47 190.05 118.59 184.98 121.96 181.00 C 125.86 176.77 126.15 170.54 125.23 165.16 C 122.73 159.07 118.77 153.62 114.03 149.08 C 110.87 146.04 108.19 142.40 106.58 138.31 C 105.53 130.90 106.99 123.35 105.90 115.94 C 104.92 112.80 103.89 109.61 102.27 106.74 C 98.76 101.93 92.85 100.02 87.96 97.00 C 84.67 94.79 80.60 94.96 76.81 94.90 C 75.75 93.60 74.71 92.28 73.67 90.97 C 74.14 86.43 74.79 81.86 76.50 77.59 C 77.82 74.54 77.52 71.17 77.61 67.93 C 80.88 65.67 83.10 62.38 85.10 59.02 C 89.12 53.97 93.91 49.22 100.05 46.87 C 100.71 41.99 100.26 37.07 99.93 32.19 C 101.61 32.82 103.30 33.46 104.99 34.09 C 104.91 38.75 105.20 43.41 104.88 48.06 C 99.94 54.70 90.77 57.39 87.54 65.39 C 86.86 66.87 86.30 68.41 85.73 69.94 C 84.23 70.00 82.73 70.06 81.23 70.12 C 81.29 76.18 81.18 82.25 81.31 88.31 C 86.48 90.44 92.05 92.00 96.41 95.67 C 100.82 99.19 105.43 102.60 109.12 106.90 C 111.36 112.30 113.31 118.05 112.53 124.00 C 112.90 127.67 109.06 130.37 110.03 134.08 C 113.88 144.89 125.26 150.60 129.58 161.16 C 131.33 165.61 132.15 170.76 130.44 175.36 C 127.45 182.73 123.24 189.80 116.93 194.82 C 111.54 195.09 106.13 195.02 100.74 194.96 C 99.60 189.20 93.61 186.75 91.13 181.78 C 89.54 178.76 87.67 175.83 86.61 172.56 C 84.75 164.51 83.00 155.96 77.50 149.48 C 74.54 146.15 73.93 141.60 72.22 137.63 C 70.59 133.80 71.91 129.44 70.39 125.57 C 69.11 122.33 68.29 118.76 65.87 116.12 C 61.81 111.57 59.78 105.69 56.15 100.84 C 53.55 97.63 54.03 93.26 52.28 89.67 C 51.73 88.01 50.50 86.17 51.56 84.45 C 53.50 80.74 53.84 76.49 55.47 72.67 C 57.61 67.73 54.37 61.53 58.24 57.18 C 61.36 53.10 63.14 48.06 62.69 42.88 C 66.31 41.31 70.07 39.95 74.08 40.09 C 80.30 40.01 82.14 32.59 87.18 30.34 Z" />
<path fill="#c20023" opacity="0.94" d=" M 25.42 97.97 C 29.23 96.24 33.21 94.77 37.44 94.60 C 37.48 98.55 37.50 102.51 37.47 106.47 C 34.19 108.56 32.29 112.07 29.34 114.53 C 28.93 118.54 27.02 122.38 23.63 124.67 C 21.24 125.22 18.75 124.95 16.31 125.01 C 16.43 121.55 15.45 117.66 17.57 114.61 C 20.78 109.38 24.30 104.13 25.42 97.97 Z" />
<path fill="#c20023" opacity="0.94" d=" M 59.88 157.01 C 62.44 156.17 64.88 155.05 67.19 153.68 C 69.19 158.43 72.75 162.34 74.80 167.04 C 75.46 173.08 73.83 179.57 77.31 185.02 C 77.72 196.34 77.37 207.71 77.47 219.04 C 77.85 222.49 74.80 224.62 72.74 226.86 C 75.85 226.65 79.32 226.20 82.05 228.10 C 83.56 229.06 83.90 230.96 84.67 232.46 C 86.11 232.47 87.55 232.49 88.99 232.52 C 90.63 235.48 93.41 237.42 96.19 239.19 C 96.27 241.65 96.32 244.11 96.39 246.57 C 83.98 246.47 71.54 246.78 59.15 246.37 C 58.80 246.46 58.11 246.63 57.76 246.71 C 56.44 246.87 55.12 247.03 53.80 247.19 C 53.65 244.76 53.47 242.11 54.94 240.00 C 58.84 234.28 65.01 230.69 71.08 227.65 C 65.75 226.34 60.99 229.52 55.87 230.19 C 54.39 230.74 53.39 229.51 52.73 228.43 C 50.24 224.80 48.69 220.65 47.33 216.50 C 46.33 213.39 44.73 210.35 44.85 206.99 C 44.86 203.45 47.62 200.62 47.68 197.08 C 47.85 190.88 49.27 184.81 51.17 178.93 C 51.76 176.34 54.07 174.81 55.85 173.05 C 55.76 168.45 57.47 164.05 60.68 160.75 C 60.42 159.50 60.15 158.25 59.88 157.01 Z" />
<path fill="#c20023" opacity="0.94" d=" M 122.88 212.46 C 124.46 209.26 126.65 206.44 129.00 203.77 C 130.53 203.75 132.07 203.73 133.61 203.72 C 133.66 205.23 133.72 206.76 133.77 208.29 C 135.54 208.85 137.32 209.39 139.09 209.95 C 138.59 211.64 138.09 213.32 137.59 215.01 C 139.45 215.00 141.31 214.99 143.17 214.97 C 147.53 219.45 151.95 223.88 156.50 228.17 C 154.45 236.11 148.81 242.75 141.94 247.01 C 138.92 247.61 135.83 247.27 132.78 247.22 C 132.63 245.64 132.48 244.07 132.33 242.50 C 130.97 242.48 129.62 242.46 128.26 242.45 C 127.06 238.01 123.78 234.73 120.58 231.64 C 118.34 232.05 116.08 232.40 113.82 232.66 C 111.85 229.10 112.12 224.82 112.83 220.97 C 115.11 218.43 117.66 216.02 118.15 212.45 C 119.73 212.45 121.30 212.45 122.88 212.46 Z" />
<path fill="#c20023" opacity="0.94" d=" M 106.88 777.52 C 111.04 777.43 115.21 777.45 119.37 777.49 C 122.29 781.91 127.72 784.18 129.77 789.21 C 131.63 792.85 130.99 797.02 131.48 800.93 C 132.04 803.30 133.56 805.39 133.73 807.89 C 134.00 811.34 133.68 814.81 133.65 818.28 C 134.95 818.65 136.26 819.02 137.57 819.40 C 137.61 823.29 141.68 823.81 144.08 825.88 C 145.19 828.60 145.19 831.72 146.72 834.31 C 149.22 838.34 149.47 843.60 148.13 848.03 C 143.78 852.67 139.47 857.60 133.96 860.92 C 129.55 863.68 124.14 862.28 119.31 861.84 C 115.83 866.34 111.10 871.18 104.92 870.79 C 97.79 869.88 90.99 866.91 85.08 862.88 C 81.00 860.13 78.94 855.50 76.80 851.27 C 74.19 846.62 74.99 841.09 74.99 835.99 C 75.04 830.56 77.98 824.25 83.72 822.97 C 83.76 820.59 83.78 818.21 83.80 815.85 C 84.86 814.80 85.93 813.76 87.00 812.75 C 92.75 813.35 97.43 808.97 103.20 809.87 C 104.37 808.83 105.53 807.78 106.71 806.76 C 105.41 801.12 100.05 797.84 97.50 792.80 C 99.09 790.31 100.05 787.51 100.46 784.60 C 103.07 782.70 105.12 780.20 106.88 777.52 Z" />
<path fill="#c20023" opacity="0.94" d=" M 133.02 931.03 C 134.87 928.43 137.17 926.20 139.81 924.42 C 144.94 928.18 148.68 933.81 149.22 940.25 C 146.37 939.65 143.44 939.27 140.71 938.23 C 137.67 936.41 135.51 933.48 133.02 931.03 Z" />
<path fill="#c20023" opacity="0.94" d=" M 85.18 958.68 C 87.11 958.73 89.04 958.80 90.97 958.88 C 90.42 961.56 89.17 964.70 91.88 966.68 C 92.51 964.35 93.07 962.01 93.66 959.68 C 95.61 959.94 97.66 959.88 99.54 960.56 C 101.50 961.93 103.06 963.81 105.10 965.08 C 107.69 964.96 109.78 962.96 112.10 961.97 C 113.84 963.88 117.39 965.87 116.12 968.95 C 113.99 971.87 111.17 974.29 109.58 977.60 C 108.10 980.99 103.85 980.70 100.84 981.57 C 99.70 978.93 98.40 976.37 96.98 973.88 C 96.08 977.56 94.11 980.80 91.80 983.76 C 89.00 983.70 86.17 983.92 83.40 983.46 C 80.62 981.48 76.91 978.87 77.34 975.00 C 77.60 968.70 82.12 963.83 85.18 958.68 Z" />
</g>
<g id="#007e3aff">
<path fill="#007e3a" opacity="1.00" d=" M 53.80 247.19 C 55.12 247.03 56.44 246.87 57.76 246.71 C 70.73 247.07 83.71 246.77 96.68 246.89 C 96.28 251.17 93.28 254.60 89.65 256.62 C 86.06 258.04 82.39 259.25 78.78 260.62 C 77.71 265.82 75.63 270.81 72.35 275.01 C 64.03 274.53 54.27 277.06 47.46 270.80 C 47.63 265.82 47.03 260.77 47.86 255.84 C 49.42 252.70 51.90 250.13 53.80 247.19 Z" />
<path fill="#007e3a" opacity="1.00" d=" M 127.45 265.48 C 128.73 265.26 130.01 265.05 131.30 264.86 C 131.25 268.02 131.17 271.19 131.05 274.36 C 129.89 273.61 128.73 272.85 127.57 272.10 C 127.52 269.89 127.49 267.69 127.45 265.48 Z" />
<path fill="#007e3a" opacity="1.00" d=" M 121.10 281.97 C 120.79 279.77 122.65 278.11 124.14 276.81 C 126.40 276.04 128.86 276.28 131.22 276.12 C 131.21 280.52 131.21 284.92 131.15 289.32 C 126.74 288.82 123.46 285.45 121.10 281.97 Z" />
<path fill="#007e3a" opacity="1.00" d=" M 60.25 281.31 C 63.11 279.51 66.59 280.00 69.80 280.07 C 69.94 282.88 71.05 286.00 69.61 288.63 C 67.61 290.82 64.37 291.30 62.29 293.38 C 61.62 294.67 61.18 296.07 60.69 297.44 C 56.25 297.48 51.80 297.47 47.36 297.46 C 47.52 295.04 47.27 292.53 48.03 290.20 C 50.88 285.86 55.93 283.85 60.25 281.31 Z" />
<path fill="#007e3a" opacity="1.00" d=" M 124.35 315.01 C 129.25 315.23 134.67 313.92 139.08 316.72 C 143.13 318.34 144.94 322.74 148.80 324.63 C 148.71 326.17 148.67 327.72 148.52 329.27 C 137.89 329.52 127.47 331.84 116.99 333.44 C 117.14 331.06 116.49 328.27 118.24 326.32 C 120.94 322.95 123.50 319.34 124.35 315.01 Z" />
<path fill="#007e3a" opacity="1.00" d=" M 158.53 340.28 C 158.87 340.15 159.54 339.90 159.88 339.77 C 159.96 343.18 160.37 346.65 159.64 350.01 C 156.15 355.22 150.73 358.78 146.74 363.54 C 144.82 368.10 144.29 373.16 141.91 377.57 C 134.50 379.40 126.78 379.01 119.38 377.42 C 118.14 373.47 116.01 369.85 114.91 365.87 L 115.33 365.05 C 128.28 354.59 142.95 346.17 158.53 340.28 Z" />
<path fill="#007e3a" opacity="1.00" d=" M 60.86 341.15 C 63.26 342.74 65.93 343.82 68.77 344.31 C 68.75 346.59 68.75 348.88 68.75 351.17 C 65.80 351.20 62.84 351.20 59.88 351.19 C 59.90 347.82 60.13 344.45 60.86 341.15 Z" />
<path fill="#007e3a" opacity="1.00" d=" M 63.21 358.79 C 63.89 356.63 64.78 354.05 67.66 354.71 C 66.73 356.09 65.62 357.35 64.10 358.08 C 63.88 358.25 63.43 358.61 63.21 358.79 Z" />
<path fill="#007e3a" opacity="1.00" d=" M 39.06 371.11 C 40.74 368.13 43.40 365.90 45.73 363.46 C 48.24 363.83 50.73 364.27 53.19 364.89 L 52.63 365.42 C 48.10 369.60 43.52 373.72 38.99 377.90 C 38.87 375.64 38.39 373.31 39.06 371.11 Z" />
<path fill="#007e3a" opacity="1.00" d=" M 117.75 382.35 C 122.41 381.00 127.30 381.09 132.11 381.20 C 135.32 381.00 138.14 383.38 139.66 386.01 C 140.71 393.70 139.74 401.62 137.18 408.94 C 135.79 413.28 135.74 418.80 131.61 421.62 C 128.42 424.28 124.05 423.68 120.20 423.93 C 118.34 421.15 116.28 418.42 115.12 415.26 C 114.86 407.82 114.89 400.35 115.07 392.91 C 115.76 389.35 117.17 385.95 117.75 382.35 Z" />
<path fill="#007e3a" opacity="1.00" d=" M 71.23 418.17 L 72.03 416.86 C 72.83 426.55 72.43 436.30 72.41 446.01 C 72.68 448.55 71.00 450.58 69.75 452.61 C 67.86 455.40 66.01 458.28 63.52 460.58 C 61.21 461.89 58.45 461.99 55.90 462.57 L 56.28 461.09 C 58.28 453.33 60.15 445.52 62.91 437.99 C 65.29 431.22 68.47 424.78 71.23 418.17 Z" />
<path fill="#007e3a" opacity="1.00" d=" M 115.47 442.38 C 118.40 439.68 121.38 436.84 125.06 435.21 C 130.38 433.94 134.95 438.03 138.60 441.34 C 137.21 449.25 143.37 455.87 142.80 463.73 C 147.55 463.69 152.30 463.80 157.04 464.07 C 155.46 466.09 153.85 468.08 152.19 470.03 C 149.07 469.99 145.96 470.00 142.85 470.01 C 140.94 467.89 138.85 465.94 136.55 464.26 C 136.59 460.03 135.34 455.98 133.74 452.12 C 132.13 448.65 132.52 444.76 132.41 441.05 C 130.10 441.16 127.67 440.83 125.47 441.65 C 117.95 446.23 114.29 454.86 113.30 463.30 C 116.11 463.61 118.98 463.55 121.75 464.17 C 126.66 467.30 131.76 471.89 131.69 478.23 C 136.59 475.23 142.67 475.96 147.94 473.93 C 152.83 472.04 158.11 472.36 163.22 472.80 C 161.32 475.35 159.24 477.75 157.07 480.08 C 153.02 480.09 148.97 479.85 144.92 480.09 C 141.77 480.28 139.11 482.44 135.93 482.49 C 133.30 482.63 130.68 482.53 128.05 482.51 C 127.36 478.22 125.50 474.27 123.44 470.48 L 122.88 470.28 C 117.56 470.48 112.90 467.78 108.66 464.88 C 108.65 460.90 108.41 456.73 110.11 453.02 C 111.76 449.42 112.33 445.09 115.47 442.38 Z" />
<path fill="#007e3a" opacity="1.00" d=" M 54.17 482.95 C 57.12 475.52 67.22 473.49 73.80 477.18 C 78.40 480.53 81.50 485.48 84.58 490.17 C 83.99 494.66 84.25 499.63 81.61 503.55 C 79.81 506.39 78.32 509.51 75.95 511.95 C 72.48 515.10 67.51 515.20 63.08 515.14 C 60.93 511.79 58.85 508.40 56.80 504.99 C 52.08 498.67 53.77 490.26 54.17 482.95 Z" />
<path fill="#007e3a" opacity="1.00" d=" M 118.62 490.99 C 120.97 488.91 122.95 486.08 125.97 484.97 C 130.83 483.78 133.50 488.68 136.66 491.33 C 135.50 492.56 134.34 493.80 133.18 495.03 C 128.39 494.98 123.60 495.00 118.81 495.00 C 118.74 493.66 118.68 492.32 118.62 490.99 Z" />
<path fill="#007e3a" opacity="1.00" d=" M 118.80 500.21 C 119.82 499.29 120.85 498.36 121.88 497.45 C 126.12 497.55 130.52 496.99 134.58 498.52 C 136.99 499.37 139.44 500.14 141.92 500.81 C 142.21 502.19 142.51 503.59 142.81 504.99 C 148.11 504.39 153.23 505.70 157.87 508.22 C 155.26 516.59 154.22 526.18 147.53 532.53 C 145.11 534.52 144.97 537.73 144.62 540.60 C 140.70 543.56 137.30 548.21 131.83 547.91 C 129.40 550.89 126.96 553.87 124.03 556.38 C 121.83 555.81 119.63 555.22 117.42 554.64 C 116.87 548.10 116.90 541.53 116.98 534.97 C 116.86 531.21 118.70 527.75 118.73 524.00 C 118.81 516.07 118.65 508.14 118.80 500.21 Z" />
<path fill="#007e3a" opacity="1.00" d=" M 60.71 520.47 C 63.98 520.07 66.93 518.54 70.07 517.66 C 73.13 517.30 76.22 517.48 79.29 517.42 C 81.51 519.69 84.00 521.70 85.98 524.18 C 87.16 528.69 85.93 533.55 83.48 537.46 C 82.34 537.52 81.21 537.58 80.07 537.63 C 79.96 533.02 80.00 528.41 80.00 523.80 C 74.53 523.97 67.95 522.37 63.55 526.53 C 60.63 530.78 59.65 535.99 59.85 541.08 C 58.70 536.90 57.64 532.69 57.10 528.38 L 57.07 528.17 C 58.61 525.77 59.82 523.18 60.71 520.47 Z" />
<path fill="#007e3a" opacity="1.00" d=" M 75.24 545.15 C 76.71 543.49 79.20 543.87 81.16 543.41 C 81.17 548.65 82.18 554.41 79.19 559.10 C 77.41 562.78 73.54 565.38 69.35 564.87 C 69.06 564.36 68.47 563.36 68.18 562.85 C 68.03 562.39 67.74 561.48 67.60 561.02 C 68.65 560.32 69.69 559.62 70.72 558.91 C 72.18 557.90 73.59 556.83 75.01 555.78 C 75.00 552.24 74.72 548.66 75.24 545.15 Z" />
<path fill="#007e3a" opacity="1.00" d=" M 77.05 577.82 C 84.31 574.00 92.58 574.99 100.46 575.04 C 101.63 577.89 103.77 580.54 107.00 581.03 C 110.04 581.97 112.93 580.37 115.25 578.55 C 118.49 583.02 122.34 587.11 124.96 591.99 C 125.66 595.61 123.30 598.82 122.09 602.06 C 121.04 605.77 118.39 608.91 114.37 609.34 C 113.50 612.68 110.71 614.75 107.93 616.47 L 106.95 615.52 C 100.00 608.96 93.49 601.91 87.62 594.37 C 83.82 589.41 80.04 584.36 77.45 578.65 C 77.35 578.44 77.15 578.02 77.05 577.82 Z" />
<path fill="#007e3a" opacity="1.00" d=" M 145.96 628.86 C 148.27 627.79 150.78 627.34 153.32 627.23 C 154.00 628.54 154.69 629.86 155.38 631.18 C 153.56 635.40 150.63 638.95 147.80 642.52 C 143.04 640.43 138.53 637.85 133.98 635.34 L 134.73 634.63 C 137.55 631.18 142.13 630.63 145.96 628.86 Z" />
<path fill="#007e3a" opacity="1.00" d=" M 110.10 651.76 C 110.32 651.81 110.77 651.93 110.99 651.99 C 122.76 655.51 135.00 657.09 147.21 658.16 C 147.59 658.19 148.34 658.26 148.72 658.30 C 148.73 661.19 148.74 664.08 148.76 666.98 C 145.20 668.71 141.83 670.89 138.07 672.18 C 130.07 672.81 122.03 672.29 114.01 672.47 C 112.28 670.65 110.59 668.79 108.92 666.92 C 108.36 661.84 108.71 656.68 110.10 651.76 Z" />
</g>
<g id="#ffffffff">
<path fill="#ffffff" opacity="1.00" d=" M 116.99 333.44 C 127.47 331.84 137.89 329.52 148.52 329.27 C 151.69 333.09 155.20 336.61 158.53 340.28 C 142.95 346.17 128.28 354.59 115.33 365.05 C 115.12 363.10 115.00 361.16 114.94 359.21 C 113.96 357.82 112.77 356.54 112.11 354.96 C 111.84 350.98 112.07 346.98 112.00 343.00 C 112.74 343.00 114.22 343.00 114.97 343.00 C 114.99 341.72 115.03 340.45 115.07 339.18 C 116.32 337.50 116.62 335.44 116.99 333.44 Z" />
<path fill="#ffffff" opacity="1.00" d=" M 67.66 354.71 C 70.76 351.20 74.26 355.76 77.19 357.22 C 75.58 361.61 76.03 366.14 77.32 370.54 C 75.36 370.43 74.87 367.83 73.07 367.77 C 72.00 368.78 71.09 369.94 70.14 371.06 C 67.25 369.56 64.45 367.91 61.22 367.23 C 61.13 364.46 61.02 360.89 63.21 358.79 C 63.43 358.61 63.88 358.25 64.10 358.08 C 65.62 357.35 66.73 356.09 67.66 354.71 Z" />
<path fill="#ffffff" opacity="1.00" d=" M 38.99 377.90 C 43.52 373.72 48.10 369.60 52.63 365.42 C 56.54 367.91 59.55 371.62 62.24 375.35 C 63.88 376.03 65.27 377.12 66.37 378.52 C 64.64 382.16 65.89 385.82 67.93 388.98 C 68.61 393.98 68.72 399.20 70.89 403.85 C 71.58 408.58 71.17 413.40 71.23 418.17 C 68.47 424.78 65.29 431.22 62.91 437.99 C 60.15 445.52 58.28 453.33 56.28 461.09 C 52.22 460.68 48.13 460.47 44.09 459.92 C 41.82 457.73 40.12 454.74 37.01 453.61 C 36.23 448.37 37.69 443.12 36.88 437.90 C 36.23 432.23 37.96 426.66 37.99 420.99 C 38.08 413.02 37.62 405.00 38.89 397.09 C 39.51 394.32 39.07 391.54 38.52 388.81 C 39.12 388.60 40.32 388.19 40.92 387.98 C 41.35 384.45 40.99 380.91 38.99 377.90 Z" />
<path fill="#ffffff" opacity="1.00" d=" M 54.59 536.53 C 56.18 534.07 56.10 531.06 57.10 528.38 C 57.64 532.69 58.70 536.90 59.85 541.08 C 60.58 544.34 59.85 547.78 60.98 550.98 C 61.83 553.58 61.92 556.30 61.95 559.01 C 64.83 560.01 67.84 559.77 70.72 558.91 C 69.69 559.62 68.65 560.32 67.60 561.02 C 67.74 561.48 68.03 562.39 68.18 562.85 C 68.26 563.19 68.43 563.88 68.51 564.22 C 66.27 564.62 64.03 565.02 61.76 565.09 C 59.91 562.28 57.16 559.75 57.10 556.14 C 57.21 551.91 57.89 547.00 54.26 543.97 C 54.38 541.50 53.87 538.90 54.59 536.53 Z" />
<path fill="#ffffff" opacity="1.00" d=" M 69.48 582.59 C 71.70 580.52 74.49 579.22 77.45 578.65 C 80.04 584.36 83.82 589.41 87.62 594.37 C 93.49 601.91 100.00 608.96 106.95 615.52 C 104.59 619.14 100.44 620.56 96.87 622.60 C 93.50 624.70 89.47 625.15 86.01 627.08 C 83.10 626.99 80.09 626.13 78.22 623.77 C 76.55 621.33 72.26 622.90 71.59 619.57 C 70.70 616.93 68.30 615.39 66.75 613.20 C 66.20 610.90 66.71 608.49 66.37 606.16 C 65.25 604.35 63.95 602.67 62.72 600.95 C 63.36 597.09 63.18 592.80 65.66 589.54 C 66.98 587.25 68.00 584.79 69.48 582.59 Z" />
<path fill="#ffffff" opacity="1.00" d=" M 126.70 638.69 C 129.12 636.84 132.19 636.24 134.73 634.63 L 133.98 635.34 C 138.53 637.85 143.04 640.43 147.80 642.52 C 147.33 647.71 147.50 652.94 147.21 658.16 C 135.00 657.09 122.76 655.51 110.99 651.99 C 113.11 650.10 115.12 648.10 116.47 645.58 C 118.11 643.06 121.18 643.32 123.74 642.63 C 124.84 641.40 125.32 639.67 126.70 638.69 Z" />
</g>
</svg>
