<?xml version="1.0" encoding="UTF-8" standalone="no"?>
<svg
   xmlns:dc="http://purl.org/dc/elements/1.1/"
   xmlns:cc="http://creativecommons.org/ns#"
   xmlns:rdf="http://www.w3.org/1999/02/22-rdf-syntax-ns#"
   xmlns:svg="http://www.w3.org/2000/svg"
   xmlns="http://www.w3.org/2000/svg"
   xmlns:xlink="http://www.w3.org/1999/xlink"
   xmlns:sodipodi="http://sodipodi.sourceforge.net/DTD/sodipodi-0.dtd"
   xmlns:inkscape="http://www.inkscape.org/namespaces/inkscape"
   width="670.78723"
   height="601.30035"
   id="svg2"
   version="1.1"
   inkscape:version="0.91 r13725"
   sodipodi:docname="Flag_map_of_Malta.svg">
  <metadata
     id="metadata91">
    <rdf:RDF>
      <cc:Work
         rdf:about="">
        <dc:format>image/svg+xml</dc:format>
        <dc:type
           rdf:resource="http://purl.org/dc/dcmitype/StillImage" />
        <dc:title></dc:title>
      </cc:Work>
    </rdf:RDF>
  </metadata>
  <defs
     id="defs89">
    <clipPath
       clipPathUnits="userSpaceOnUse"
       id="clipPath4270">
      <path
         style="fill:#000000;fill-opacity:1"
         d="M 78.94562,-7.6987146e-7 C 78.12209,0.01127236 77.32614,0.37788576 77.19758,0.94921798 76.07506,6.0609863 68.27649,4.8599134 67.82844,4.2343742 64.8389,-1.4492062 63.77199,3.5539634 62.79914,3.2949211 L 36.97492,4.1132804 C 35.10598,4.3473779 34.54541,7.5697319 32.86164,7.7558586 29.1391,8.8025815 26.79567,11.95521 23.37727,16.443358 22.1991,18.334367 16.64258,17.154065 13.89289,17.851561 11.36483,19.67637 10.39817,16.811335 8.18,16.910155 l -8.45703,0.941406 c -5.4965,0.200518 -3.02135,9.107447 -2.74024,10.802735 l 0.3418,1.291015 c 0.48066,1.332628 5.72839,1.721608 2.16992,5.050782 l -3.20117,2.347656 c -2.11167,2.443632 3.30793,0.06003 4.80078,0.46875 l 9.14258,5.162109 c 1.52451,1.127314 0.61768,2.564611 -0.22852,3.994141 -1.93801,1.488054 -1.56346,2.973877 0.45899,4.462891 2.54533,4.805715 -0.27269,5.075459 -2.74414,5.636718 -6.71783,1.79027 -7.01241,8.241833 -2.51563,9.861329 2.46474,0.52576 0.93756,2.920635 0.23047,4.927734 -2.38415,2.38127 4.13521,1.00052 6.40039,1.412109 4.86904,0.965173 1.02756,5.746463 -6.17382,5.166016 -2.02725,-1.120598 -0.78362,2.566772 -0.91602,4.226562 -0.81934,1.098531 -0.54361,2.19341 0.45898,3.289063 l -0.22851,6.570312 c -0.0422,1.192554 -3.88555,-0.07743 -3.65625,4.933594 -2.64031,0.413508 -1.34357,1.161262 -0.45899,1.878906 1.85263,1.097567 1.60828,4.451427 4.11524,3.755857 1.07454,-0.41735 0.8524,2.27666 1.82812,2.34766 l 16.45508,0.23633 c 2.06274,0.44901 -0.30508,-2.52024 1.25781,-2.23242 5.10793,-0.33675 5.62895,1.21212 6.28711,2.69921 0.83469,1.24725 6.02017,-0.77269 7.3125,0.47071 2.36305,4.63974 4.72187,4.36794 7.08203,4.46484 2.81589,0.16311 7.48651,7.49949 0.11914,7.74414 -2.26902,-0.0518 0.26461,2.58123 1.02735,4.23047 1.40362,1.03713 0.41875,2.35393 6.85547,2.81445 3.14017,0.003 0.36301,3.87941 0.45703,5.875 4.3193,-0.98628 4.01865,0.94499 4.57031,2.34766 0.3617,1.51492 5.05616,-0.89757 7.54297,0.46289 1.51012,1.12827 0.18849,-1.84613 1.82813,-2.58008 1.4113,-2.85619 2.70468,-2.5176 3.88476,-1.64453 2.28437,2.62208 5.82988,0.17484 6.85742,0.94141 2.10496,4.42483 6.6509,3.55977 6.625,6.57617 1.18296,2.01477 25.67063,-0.43295 26.9668,1.40625 3.11235,1.80083 3.94559,3.60155 4.34375,5.4043 0.20627,5.23169 4.90262,2.25922 7.54101,3.04882 2.72763,0.12761 1.72778,3.12891 2.28711,4.93165 0.78289,2.27285 5.80374,1.21233 6.625,-1.87891 1.30577,-3.62659 3.78372,-2.45347 5.94336,-2.58203 2.64511,0.67063 2.94169,-2.28091 3.88672,-4.22852 0.49985,-1.16282 2.93276,-1.39313 7.3125,-1.64258 4.27707,0.0729 5.99183,1.02277 6.62696,2.35157 0.91912,1.13115 2.2227,-0.0883 3.42773,-0.70899 3.5815,-3.73309 9.67532,-0.66713 10.74219,-1.87695 2.45898,-3.09795 4.13604,-4.46896 7.54101,-2.34961 2.72282,1.93706 2.5568,0.90334 3.65821,1.17773 2.53766,-1.16952 -0.41377,-6.09383 3.42773,-6.80859 5.15303,1.09661 4.33543,-2.33973 4.79883,-4.46484 0.0825,-1.32783 3.14273,-3.83673 4.57226,-3.99024 2.63456,0.16119 4.57956,-1.0791 6.62696,-2.11719 2.4302,-2.26518 4.71295,0.26672 6.6289,0 l 14.85547,0 c 1.29233,1.39595 2.59244,0.85552 3.88477,-0.23437 0.86252,-0.75507 5.3041,1.6199 5.49023,-0.46875 1.29329,-3.35987 3.35566,-4.68621 7.08203,-3.52148 1.01698,0.47108 2.28455,1.72654 2.74219,0.46875 0.79728,-2.76216 1.33879,-4.55651 4.33984,-4.93165 6.18343,0.38569 4.44802,-1.82653 8.91602,-3.04882 2.15773,-0.61595 6.7048,-4.55964 -0.6875,-8.22461 -1.75285,-0.21203 -0.54591,-2.70833 0,-4.693363 1.84208,-1.236687 -1.90148,-3.362245 -3.65625,-5.162109 -1.82481,-1.39691 -6.50955,-0.812903 -6.16992,-2.583985 -1.11868,-2.729538 0.0344,-7.066341 -1.37109,-7.28125 -1.89581,-0.173654 -2.74577,0.824139 -3.65626,0 l -5.94335,-8.455078 c -1.97256,-0.877865 -1.0271,-3.659918 -3.19922,-3.755859 -7.23688,1.253956 -10.96704,-0.155761 -11.19922,-4.226563 -4.91316,-1.247241 -2.1531,-7.908848 -2.74219,-12.207031 0.91145,-4.676194 -11.17383,-2.957196 -11.88476,-2.583984 -3.65443,1.342223 -7.31242,4.828151 -10.96876,1.878906 -2.40332,-1.795068 -0.0433,-4.022265 -3.88476,-5.869141 l -5.94531,-3.99414 c -3.10467,-2.160605 -1.13924,-13.441753 -11.88086,-1.876953 -3.27545,3.956631 -8.60771,1.859186 -9.82617,0.701171 -3.98925,-1.93706 -4.89214,-6.354327 -10.0586,-5.634765 -2.75928,0.478748 -3.93422,-2.985286 -4.57031,-9.15625 0.1535,-2.780387 -1.81252,-2.489095 -5.25586,-1.878906 -2.55493,2.002301 -0.64755,-4.586032 -3.6582,-6.339844 -11.77395,-4.996639 -9.55867,-0.784745 -10.05469,1.642578 -2.40141,-0.28015 -1.54693,5.104463 -2.9707,4.228516 -2.3899,-1.546579 -1.12566,-8.98708 -1.59961,-13.619141 0.7234,-3.1564782 -5.61638,-0.612049 -8.68555,-0.707031 -1.371,0.468195 -3.34487,-0.725897 -2.9707,-2.109375 1.13019,-2.301639 4.99078,-5.846149 1.14258,-5.8710938 L 91.59797,3.5332023 C 84.10397,-3.6633771 85.32146,5.2176486 84.05695,4.9374992 82.7272,5.3299003 81.5763,5.1535877 80.85578,1.1796867 80.62025,0.33204268 79.76916,-0.0112739 78.94562,-7.6987146e-7 Z M 261.1468,133.86133 c -1.631,-0.008 -1.73824,6.4243 -2.99219,6.28711 -2.64703,-0.0499 -5.9419,-5.63586 -7.22656,-5.58789 -1.2434,0.57661 -0.70327,6.85393 -3.66211,6.54883 -3.77626,-0.37801 -1.27754,-5.71465 -2.70899,-5.59376 -3.85493,-0.11896 -3.71831,3.88431 -5.06054,3.36719 l -4.97071,-0.87695 c -2.25271,-0.25616 -2.09154,2.53729 -1.09375,2.875 3.84918,1.43241 2.88402,4.90621 1.09375,8.72852 -0.82798,-2.246 -1.73985,-5.15762 -4.56054,-5.17969 -0.7493,-0.53151 -2.72467,0.005 -6.66211,4.97656 -1.04001,2.11552 0.37064,2.90663 2.47656,3.31055 2.85331,-1.10141 4.36112,-4.0445 8.55664,-3.31055 -1.8248,5.72292 0.75057,8.57025 6.84766,9.11328 2.51079,0.0844 3.45204,0.68452 4.70312,2.48438 0.58333,0.8865 -1.49686,0.49151 -2.35937,1.82031 -0.53631,0.82317 1.29462,3.669 -0.25196,3.78125 -2.87441,-0.0317 -9.42453,2.0422 -7.98828,3.31055 1.9716,1.30768 2.2508,4.45686 9.89063,-0.41602 3.85686,-2.19035 6.02418,3.60932 9.89062,0 2.45131,-1.4113 13.94388,0.0611 20.91211,-1.65625 5.82174,-1.13115 6.57633,-10.79299 5.32813,-12.43359 -4.99088,-6.60174 -1.38205,-9.44572 -9.69922,-13.67578 -1.21846,-0.63898 -2.91381,1.27207 -4.375,-0.38868 -2.53382,-1.34702 -3.28351,-7.47286 -6.08789,-7.48437 z m 48.19922,51.42578 c -1.77303,0.31137 -4.38686,5.59814 -7.30469,1.60547 -0.61882,-1.28465 -3.61606,-2.16158 -3.2793,1.03711 0.19764,2.62592 1.23269,4.44568 2.88672,5.83203 2.60481,2.02629 2.34813,3.44384 -0.4668,5.27344 -1.29425,0.81451 -5.40747,-0.36223 -6.95117,0.0801 -1.70776,0.63129 -1.12567,6.16766 -4.60547,0.95899 -3.33301,-3.69375 -6.82102,-2.83029 -6.47851,-1.03906 1.32304,7.43836 -3.15725,4.56791 -2.50196,7.11132 0.20243,2.90703 1.28385,7.72697 -1.24804,4.63477 -1.91308,-1.89868 -5.81738,-6.7523 -6.63672,-4.47656 -1.03809,1.78163 -0.52174,6.88284 -3.5957,4.3164 -6.50485,-3.78777 -7.62271,0.74355 -9.67969,0 l -11.94922,-1.99804 c -1.96488,-0.17078 -4.13782,-0.0935 -4.52735,-1.11719 -3.69663,-12.4254 -1.69023,-2.29215 -3.59179,0.1582 -3.18334,3.50954 -2.43719,3.92547 -0.23438,3.19727 1.95146,-0.18516 3.90405,-1.04171 5.85743,0.55859 l 5.69726,4.3125 c 1.48038,0.61211 0.74566,4.34479 -1.24609,3.03711 -5.21539,-1.92363 -7.19915,0.62707 -8.66993,4.07617 -2.68636,6.24196 -7.2657,1.32933 -7.65234,4.07422 l -4.8418,12.94141 c -1.4238,3.30231 0.37459,3.24967 0.0781,4.87109 -0.61882,2.92142 3.09908,3.33372 4.76367,3.75586 l 3.9043,1.75781 c 3.09603,0.64569 3.65627,-2.70342 5.625,-4.63281 0.73011,-1.44008 10.74626,-1.99085 11.08398,0.16016 l 2.42188,14.93554 c 0.5958,2.56164 -3.91384,5.21775 4.84179,6.63672 l -4.06054,1.51758 c -2.18651,0.98724 4.60249,2.95342 2.57812,4.55469 -3.2294,3.29655 -5.27148,5.67821 -2.8125,5.26758 3.95663,-0.095 6.24033,0.2687 5.69922,2.08007 -0.24945,2.65471 -0.19772,4.71575 -3.66601,3.67383 -3.52969,-0.65145 -2.03369,3.55274 -2.11329,6.23047 0.16694,1.44872 -2.3693,1.01113 -2.10546,2.39844 -0.0633,2.50792 3.27403,8.14649 -0.62696,7.10937 -5.17317,-0.35019 -10.62273,-1.18536 -12.57226,4.23438 -1.23285,2.73625 -3.40402,6.38939 -0.54688,5.99219 5.40055,0.50945 4.33622,5.6608 7.57617,4.71289 2.91662,-0.23409 7.6382,-1.66448 7.88477,0.71679 -0.11897,3.84054 1.30593,8.25616 4.76367,7.67188 l 5.7793,-0.16406 c 2.6643,0.13815 2.19514,2.18943 0,3.28125 -1.2482,1.03617 -3.21293,2.0704 -1.79492,3.11328 l 4.52734,3.5957 c 1.18775,0.80879 0.46254,2.4035 -2.34375,1.59375 -14.05832,-3.78201 -6.98281,9.05835 -5.31055,6.47656 1.66555,-3.90482 2.78564,-4.42126 4.99805,-1.59961 0.87595,0.94694 -2.12688,3.39994 -1.79492,6.8711 -0.17462,1.97064 2.62416,1.30382 1.48437,5.18945 -1.58495,5.78336 -4.50268,3.10127 -4.76172,1.28125 -0.77329,-2.30739 0.83726,-6.53105 -2.42187,-6.79297 l -7.41992,-0.15625 c -1.64923,-0.0643 -3.78905,1.11251 -2.42188,4.07422 0.50177,1.98887 2.24119,4.89775 0,5.35156 -5.01391,1.33167 -0.31616,3.14134 -0.46679,4.71094 l 0,7.27149 c 0.0652,1.58592 1.10746,3.69204 4.06054,2.63476 2.05699,-0.24177 4.73105,-1.02125 4.2168,0.95899 l 0.0762,12.14453 c -0.0643,5.02255 -3.17552,-0.75122 -3.98047,0 -4.51122,4.01804 -3.09597,-0.73918 -4.53125,-1.11719 -2.62784,-0.79628 -7.44059,-1.33499 -7.88672,-0.0801 -0.69942,3.24763 1.94216,4.0045 1.87696,5.51367 0.10746,1.59934 -0.5421,3.59957 1.09179,3.4336 6.54892,0.50561 0.63955,1.73144 -0.0762,2.71484 l -3.04883,4.79492 c -0.85676,1.6761 -3.12891,9.25246 1.40625,8.625 2.89551,-0.3473 5.35289,0.44577 6.79297,3.91406 l 4.45117,11.5918 c 0.8961,1.71447 -1.67729,4.77086 0.31446,4.78906 0.93063,0.78864 3.37546,1.13693 0.23242,3.11524 -0.99971,0.64281 2.49061,7.42151 -1.64063,8.38476 1.40746,1.37388 3.686,2.3003 3.98438,4.24024 0.0288,3.82903 3.28831,2.92019 3.90234,4.79297 l 0.54883,3.59179 c 0.41543,1.67994 -0.11486,4.2452 6.79102,3.75782 1.71735,-0.33004 3.2822,4.21422 4.91992,4.23242 l 11.79101,0.79883 c 3.51626,0.21395 2.32662,3.59774 -2.73046,4.47656 -7.07378,-0.11705 -1.87567,3.53376 -0.54688,3.67383 l 5.23047,1.43554 c 1.26451,0.0365 2.16777,0.75105 2.8125,1.51954 l 12.96094,14.37695 c 1.64156,2.34673 5.22855,2.93238 5.77734,4.39453 1.65115,5.58092 1.69727,3.47823 2.18945,3.51562 7.48056,0.3876 9.82497,9.21433 11.94336,9.34961 1.88237,0.28207 3.78056,0.56092 2.8125,2.71289 4.69635,0.26 2.41776,2.88933 4.37305,3.19922 1.6195,0.53247 2.83513,-0.41918 3.82813,-1.36132 3.08931,-1.72311 3.4291,-0.33203 2.57617,2.40039 3.40017,-1.37964 3.20669,-0.4916 3.51562,0.79882 1.39979,5.68358 4.29996,2.41104 6.71289,3.99024 l 10.61914,7.0332 c 1.62621,0.92871 1.34696,1.86333 0.70703,2.79492 -3.3532,6.41849 -0.9159,5.48246 0.0742,5.59375 2.1654,0.22643 4.51644,-0.50876 6.0918,2.7168 1.12827,1.85551 2.26425,4.17661 4.37305,4.55078 l 23.35156,3.51758 c 2.78423,0.21875 -0.0235,1.4293 -1.17383,2.55469 -2.37742,4.66276 -0.95712,4.52769 0.0762,4.875 2.60386,0.94214 -0.34288,4.67636 5.38868,4.87304 l 17.65039,1.4375 c 5.02734,0.0499 4.69825,4.5146 6.55664,4.07422 5.88793,-0.63129 5.84309,5.32993 7.5,5.26953 10.21682,-0.23602 6.66046,2.13886 9.13671,2.64063 7.58035,0.54207 3.70947,3.21118 6.08594,3.99023 l 11.4043,2.24219 c 1.63197,0.0998 3.8085,0.85829 4.29492,-0.4043 1.28082,-1.92267 0.54329,-8.49125 4.0586,-5.26953 1.03617,0.70613 0.11293,2.94327 2.49804,3.59375 l 8.35547,1.11914 c 3.24379,0.66871 2.39346,2.48353 4.13672,2.87305 4.22239,0.96421 1.5358,2.36401 3.59375,3.2793 l 10.30664,5.51172 c 2.7564,1.182 5.10877,-3.42881 6.16797,-1.52149 2.16636,2.41197 3.48998,1.38331 4.8418,0.48242 3.69759,-0.96229 3.1619,2.04266 4.84375,1.91602 l 19.98828,0.88086 c 8.72877,0.50657 4.74982,6.04682 6.87109,5.11523 1.30289,-0.25137 2.52565,-0.59551 3.90625,0.23438 l 13.82227,7.0332 c 4.25309,1.93707 7.45152,1.92415 10.69531,1.99805 l 21.24219,-1.67774 c 0.83181,-0.007 -1.16494,1.9339 0.15234,1.67774 2.72474,0.4279 4.75178,-1.03325 6.87305,-2.23828 l 8.66797,-1.4375 c 2.35824,-0.35978 4.73152,-0.69624 6.48437,-2.71485 l 11.86719,-13.90429 -9.91797,6.55468 c -1.52067,0.89801 -2.67047,-1.7319 -0.625,-3.99804 2.75449,-3.52681 17.09019,-7.31789 3.12109,-10.46094 -9.3639,-2.10784 -6.92313,3.92579 -8.74218,2.39648 -2.46091,-0.93926 -4.07329,-4.80392 -5.9336,-3.99609 -8.75084,1.15417 -8.54205,-0.11242 -8.98242,-1.75781 -0.54687,-2.39567 2.31895,-6.10343 -1.63672,-7.19141 -0.6524,-0.35882 -7.60858,-3.51929 7.02539,-1.75781 2.62209,0.48835 6.34485,-9.08515 -5.23242,-8.54883 -2.40622,-0.25905 0.40445,-2.02829 0.46875,-2.95508 l 0.70313,-2.79297 c 0.23409,-1.25204 3.95761,-1.49286 4.37304,0 0.86155,1.36521 1.71657,1.10281 2.57813,-0.084 1.01506,0.49122 2.02887,0.47025 3.04297,-0.32031 2.435,-1.04672 4.37194,-1.40437 4.52929,0.72265 0.76273,2.45707 1.41314,4.23692 3.4375,4.8711 7.896,3.6688 7.5593,2.55364 7.10742,1.83984 -0.98149,-4.25309 5.75699,-8.66126 0.46485,-9.10547 -2.08193,-0.45572 2.56111,-9.48238 -1.56055,-11.66601 -2.50407,-1.72599 -2.80502,-3.84514 2.42188,-4.63282 6.16809,-0.36937 -2.44502,4.10111 1.01367,3.91211 3.76475,-0.0278 7.1736,0.16495 7.65234,2.23633 1.81906,4.10438 1.55664,9.8451 3.35938,10.30274 3.2198,1.27698 1.03905,3.52321 1.09375,4.87695 -0.0863,4.36438 3.96775,1.93836 3.74804,4.55469 l -0.70507,13.34375 c 1.88909,0.18517 4.64909,-0.8991 5.23242,1.19531 0.49601,3.64482 0.29131,8.73112 3.75,6.30859 1.9102,-1.79027 4.30766,-4.40504 1.79687,-6.46875 -1.8795,-0.92104 -3.94766,-3.77483 -2.6582,-3.19726 1.3192,0.21587 2.54954,1.34194 4.06445,-0.39844 l 2.26369,-7.9121 c 1.19735,-3.43375 0.37414,-3.18971 -2.73437,-4.78906 -3.05862,-5.99827 4.2405,-5.03323 3.98242,-7.11133 0.1842,-6.98743 -2.07925,-2.15076 -4.21875,-3.75586 -3.43854,-2.81973 -6.98096,-7.28963 -2.96484,-7.26953 2.82356,0.22547 4.71842,0.066 5.46484,-0.5586 2.86962,-5.5953 -4.29453,-0.23977 -3.125,-4.3125 0.76177,-3.78777 6.07068,-6.74293 8.27735,-3.83398 3.26008,4.34999 6.18868,7.8485 7.18359,6.31055 1.80946,-2.7967 6.6285,-5.85387 2.34375,-6.31055 -4.38166,-0.66008 -6.36894,-1.44529 -6.79492,-2.31836 -0.77616,-1.4324 -3.02469,-2.99001 -1.56446,-4.23437 3.52778,-4.04394 14.55157,-11.85946 7.10938,-10.38868 -18.95422,2.81589 -10.46826,-4.80942 -12.02539,-5.34765 -1.28178,-0.68023 -4.22611,-1.28126 -1.25,-2.15625 3.48556,-0.23601 2.62033,-2.78255 4.76367,-2.63672 2.65374,0.26096 5.31014,-1.25559 7.96484,-3.75391 1.23861,-0.86443 0.10225,-6.79024 2.6543,-7.67578 4.44497,0.36265 5.67585,-0.59193 5.62305,-2.07422 -0.19668,-5.4303 -3.25166,-1.0568 -4.21875,-3.0332 l -2.96485,-5.51367 c -8.44958,-0.2293 -4.32895,2.83764 -7.10742,2.71484 0,0 -6.56021,0.5586 -6.86914,0.5586 -4.24254,0.35786 -3.14133,-4.06211 -0.39453,-3.11133 1.54466,0.8961 3.17093,1.14952 4.92188,0.55468 0.70995,-0.47202 1.41749,-0.94559 1.71874,-1.83593 1.04865,-3.03367 1.59852,-3.00095 2.0293,-2.23438 0.64089,1.17433 2.45948,0.0969 3.36133,0 3.60644,0.26576 9.43941,2.20474 9.05469,0 -0.142,-1.69145 0.31717,-3.99787 -1.16992,-4.3164 -3.25338,0.27055 -4.00931,-0.18992 -2.89063,-1.19922 0.34827,-0.95558 0.0382,-1.91655 -1.48437,-2.875 0.0681,-1.88717 1.29357,-4.94908 -0.3125,-4.95508 -4.53036,-1.22422 -5.95417,-4.46185 -6.5586,-8.22852 -1.17337,-2.77559 -4.27106,-1.36311 -5.23047,-3.59375 -2.01573,-3.59109 -3.77904,-4.74116 -5.07617,-4.79296 -5.64616,-0.24561 -4.04948,-4.61239 -5.7793,-4.23438 -5.09354,1.84304 -4.98033,-1.4051 -5.46484,-4.07227 0.2082,-2.75928 -5.02465,-1.34697 -5.31055,-3.27539 -0.54591,-4.20416 -2.24856,-7.26472 -7.96093,-6.39453 -1.41322,0.19764 -2.66894,-0.0122 -3.05078,-2.55273 l -1.48438,-5.91406 c -3.4088,0.23985 -4.92715,-3.87424 -7.02539,-5.03321 l -2.9668,-1.75976 c -5.77762,-2.09632 -2.88896,4.28428 -5.85547,1.12109 -2.14334,-3.026 -9.65864,-1.45177 -9.68554,-2.79687 0.67447,-3.29847 -5.15533,-5.19132 -7.17969,-5.19532 -1.29522,0.16214 -3.05363,-0.98681 -3.5957,1.28125 -1.34989,5.40631 3.01879,3.3387 3.90625,4.47657 2.56547,2.13278 2.1133,3.87632 1.40429,5.58984 -0.41543,1.95241 -3.80113,-2.1177 -4.53125,-1.59961 -1.26643,1.39211 -5.73262,2.16639 -3.12109,4.31836 2.66622,2.86578 9.01033,7.52369 7.73047,8.4668 -1.08222,1.67514 -2.18522,3.50568 -2.6582,1.03711 -0.37802,-2.5108 -3.26985,-2.4568 -5.85547,-2.7168 -0.87499,-0.84621 -2.23925,-2.00224 -2.18555,-3.27539 l -0.15625,-3.51172 c -0.18708,-2.74969 -7.61165,-1.02848 -6.48242,1.03906 l 2.96875,2.875 c 1.26067,1.24052 2.27258,2.53483 2.49804,3.99219 0.57661,1.61661 1.76449,3.4387 -1.25,3.83398 -2.06082,0.98053 -5.23884,-9.46556 -6.63671,-9.50586 -4.81723,-0.96517 -5.82201,1.29368 -4.60547,5.43165 0.71765,1.23573 3.80478,1.74943 3.59179,5.43359 1.31152,2.60097 5.74542,0.88199 3.9043,7.83008 -0.65432,1.08318 -4.48645,0.83414 -5.85937,-1.83399 l -2.1875,-5.35547 c -0.11897,-0.94887 -1.91098,-0.75794 -4.5254,0 -3.15935,2.27381 -5.18719,1.38995 -7.57421,1.51563 -0.44326,6.56721 -3.94998,1.88239 -4.375,5.35547 -0.55934,3.50859 1.72341,5.06913 1.875,6.15039 0.80783,2.82738 -2.54318,2.05137 -4.13868,2.79492 -2.11648,0.55742 -3.74751,-0.79926 -5.46679,-2.08008 -4.92564,-4.46609 3.74699,-0.73641 4.45312,-1.83398 0.40967,-0.74546 1.30653,-1.49086 0.15235,-2.23633 -1.86798,-1.32015 -4.45211,-3.05459 -4.9961,-3.5957 -2.04931,-3.96239 3.91363,-3.97913 6.94922,-5.4336 l 9.5293,-4.63281 c 0.95942,-0.6668 1.81494,-1.97555 1.95117,-2.95703 0.7023,-2.42349 0.92968,-5.81993 2.18555,-7.10938 2.76984,-1.60511 3.34392,-4.01678 5.15625,-5.99414 5.21923,-3.12002 13.68225,-8.64892 12.56836,-10.86133 -0.76369,-2.60866 2.37247,-7.39892 -6.40235,-5.51367 -3.0212,0.0239 -9.38092,-1.87038 -9.05664,0.082 0.14104,2.19611 -0.008,4.05925 -1.71679,4.15235 -3.82423,-0.57469 -13.26162,5.36227 -13.19922,7.10937 -0.0221,3.96334 -4.92292,3.62892 -5.85547,4.39453 -3.66401,3.98062 -4.5411,0.56335 -7.4961,1.92188 -5.68934,0.85676 -7.40109,0.51044 -7.49609,-0.32617 -0.88266,-1.81521 -0.70242,-2.8418 0.70312,-2.95117 4.14084,0.26384 8.27803,0.14152 12.41407,-1.28321 5.57613,-5.08874 0.72274,-9.10518 -5.22852,-9.14258 l 1.0918,-6.87304 0.0351,0.002 c 1.10727,-3.45933 1.69131,-8.44457 3.94727,-8.58789 9.44449,-2.12031 15.95302,2.5927 23.26953,5.42969 2.98954,1.45351 3.87978,-0.43711 5.07617,-1.83594 1.65499,-1.67706 0.7527,-3.11721 -4.45117,-4.15625 -2.95884,-0.89514 -0.60037,-3.34843 -0.86133,-5.03125 -3.36083,0.27727 -2.28207,-2.05778 -4.29492,-2.55859 -1.74134,-0.76274 -2.98285,-1.72858 -1.64062,-3.75391 2.64319,-2.98282 -3.81043,-4.16834 -7.02735,-5.99219 0.16598,-2.15773 0.51271,-4.38821 -7.02734,-3.43359 -2.74489,-3.1229 -3.23076,-0.74824 -4.44922,-0.1582 l -0.39062,5.51171 c -0.80783,0.60539 -1.61402,0.18064 -2.41993,-0.47656 -0.70901,-0.95078 -1.67051,-0.621 -2.57812,-0.5625 l 0.3125,-3.67383 c -1.68086,-0.53152 -2.11591,-1.57543 -1.7168,-2.95507 2.03493,0.38089 3.84342,0.60559 3.82422,-0.48047 0.64376,-3.42607 2.51558,-7.91636 -0.54687,-8.1543 -1.49285,-0.004 -2.94828,-0.0909 -3.82422,-1.35352 -0.17462,-0.93159 -1.5966,-1.86535 0.70312,-2.80078 2.19706,-0.35498 3.8648,-1.02352 4.60547,-2.23047 0.54111,-1.37676 1.50823,-2.92143 -0.54492,-3.27929 -1.98791,-0.47299 -5.12693,0.69328 -8.51367,1.83593 -2.42828,1.41803 -4.29572,1.95019 -4.44922,-0.23632 0.65528,-0.90185 -0.15653,-1.80912 2.3418,-2.71289 2.78422,0.23313 4.83072,0.18155 4.92382,-0.64258 1.08126,-1.80467 2.47332,-3.80001 0.54297,-3.75781 l -2.96875,0.084 c 0.11417,-0.66871 -0.0484,-1.33314 -1.16992,-1.99609 -1.09565,1.88426 -2.18946,2.05273 -3.2832,1.83398 -0.11513,-1.28754 0.93284,-3.46745 -0.85742,-3.83203 l -4.29688,-0.24024 c -0.0959,-0.99011 0.12902,-2.09954 -1.55859,-2.47851 l -5.07813,-1.03906 c -0.56318,-3.96814 2.75984,-10.27603 -6.63476,-8.94532 l -2.65821,-2.3164 c -2.36784,-0.84621 -4.73379,-0.59316 -7.10547,0.47851 -1.39211,2.46569 -2.63553,3.21832 -3.82617,3.35743 -3.2908,-0.0969 -6.65989,0.51244 -9.75976,-1.35938 -8.31718,-3.806 -8.35514,-5.36757 -8.66407,-5.99023 -1.54274,-2.75641 -2.678,-3.99894 -2.96679,-2.08204 -0.47683,2.54632 -1.76583,3.42495 -3.90821,2.5586 l 1.0918,-14.61914 c -0.5651,-2.74393 -2.7939,-3.21576 -5.85156,-2.55664 -3.61604,2.20858 -1.63581,4.42235 0,6.63476 -1.46023,1.25396 -2.71813,4.12321 -4.37696,3.75 -2.6567,0.34923 -1.84742,-6.38762 -2.65429,-9.82617 -1.55426,0.38185 -2.94886,-0.22781 -4.29492,-1.11719 2.54533,-2.48201 2.54011,-3.57772 1.56054,-4.15625 -1.18584,-1.16665 -2.44446,-2.85643 -3.43554,-2.63671 -1.89868,0.30509 -3.80245,0.32458 -5.69922,-0.63868 l -11.01172,-7.10937 c -5.19524,-1.56672 -5.20265,2.86816 -7.41602,6.31055 -8.01304,9.92515 -11.11044,7.51995 -11.71679,6.23242 -0.44133,-1.88526 -0.7684,-3.69916 1.64453,-3.91407 l -0.54883,-9.66796 c 1.94761,0.0163 3.10061,-0.55097 3.59375,-1.59961 0.34059,-2.79478 1.01869,-7.42724 -0.39453,-8.38282 -1.63773,-0.67159 -3.24592,-1.40938 -5.69531,0 l -7.81055,5.50782 c -1.5389,-0.0451 -4.19679,-0.85539 -4.06055,0.24218 -0.8251,2.50983 1.35594,8.09398 -2.49805,7.50586 0.72436,3.72062 -0.63269,4.25537 -2.8125,3.51758 0.30031,-1.71927 -1.43718,-1.83374 -3.82421,-1.4375 -2.91662,0.39623 -5.58857,1.08134 -7.26563,2.95508 l -1.0918,5.19336 c -0.75314,0.82413 -1.50957,1.5217 -2.26367,-0.16016 l -0.85937,-4.15429 c -2.26039,1.9073 -4.1382,2.90668 -5.15039,1.83789 -2.64511,-2.54341 -6.695,-2.20345 -6.4043,-0.63672 0.0595,2.75065 -0.9848,4.50496 -4.45117,4.07226 -3.14304,0.27631 -8.14398,0.88434 -7.73047,2.55469 0.73299,3.85685 -3.1416,4.34383 -6.63867,5.11328 -2.90607,0.54207 -5.02227,0.46297 -5.23047,-1.11719 0.0557,-2.12031 -0.1121,-4.65282 0.9375,-4.95312 1.37485,-0.40679 3.12305,-0.70975 3.12305,-1.51758 -0.009,-1.09181 -0.2794,-2.1835 0.69921,-3.27148 1.02081,-0.32812 1.75108,-0.0652 2.57618,0 1.55329,-0.28302 2.33072,-1.24173 2.42382,-2.80078 0.86252,-3.56039 1.09743,-7.86004 4.52735,-8.38868 l -0.15625,-4.07422 c -0.0672,-1.30288 -1.31206,-2.62933 -4.29297,-1.99804 -0.0528,-1.27602 -0.51177,-2.55605 1.01562,-3.83399 0.99011,-0.86636 1.98052,-0.61787 2.9668,0 1.75093,2.00517 3.69409,3.87036 9.52734,2.95508 2.73914,-0.66296 0.44266,-3.08822 -2.65624,-4.63672 -1.15322,-0.63418 2.09528,-4.112 4.53124,-5.1875 1.19831,-0.29263 0.36042,-2.82402 -1.33007,-4.23437 -2.1856,-1.20694 -2.5209,-2.49516 0.0801,-3.91797 2.14046,-1.21462 -0.50554,-4.54997 -2.89257,-3.19336 l -2.73243,1.51758 c -2.75543,1.31824 -3.40375,0.0495 -4.13867,-1.11524 -0.32812,-1.39979 -1.047,-2.00753 -2.41992,-1.28125 -1.48614,0.73779 -2.90595,1.01799 -3.98242,-1.19922 -0.77617,-1.60442 -2.11968,-1.66865 -3.51563,-1.59765 -1.18104,0.13048 -2.14111,0.59734 -2.49609,2 -2.26326,2.90032 -3.88609,1.86128 -5.54492,1.03906 -1.02946,-0.90953 -1.85394,-2.4518 -2.25977,-5.27344 -1.53986,-3.76667 -3.07335,-1.83824 -4.60937,0 -1.08222,1.915 -2.47874,1.28819 -3.74805,1.67579 -2.59138,-0.19572 -3.66103,1.42781 -5.07617,2.63476 -1.34127,1.00546 -3.15627,0.41929 -6.87305,1.20313 -3.27353,1.55042 -8.77792,2.20264 -13.50976,2.39453 -4.0545,0.73683 -7.15035,3.15586 -11.2461,2.31445 -0.14199,-1.32975 0.59425,-2.66144 -0.85351,-3.99023 l -5.78516,-4.16016 c -1.67706,-1.54082 -1.54118,-3.08524 -1.16797,-4.63086 0.62362,-1.16953 1.08103,-2.42781 2.5,-3.19727 l 19.59961,-13.97851 c 1.85167,-2.09536 3.13645,-4.51252 3.12305,-7.67188 0.15159,-1.33646 0.5739,-2.48374 2.57812,-2.55664 l 12.72852,0.084 c 1.63005,-0.40008 2.88455,-1.39021 4.29297,-3.2793 1.03809,-1.33071 3.24903,-2.36355 2.8125,-4.07227 -0.11033,-0.91528 -0.8439,-1.61219 -1.5625,-2.3164 0.49317,-1.7279 0.24711,-2.32869 -0.0781,-2.79688 l -3.98242,-3.75195 c -0.97093,-1.51012 -1.89061,-3.07472 -2.6543,-4.79687 -1.94954,-6.31967 -4.18376,-6.27848 -6.32421,-8.3086 -0.11058,-0.0277 -0.22555,-0.0286 -0.34375,-0.008 z m 219.4121,204.48828 c -0.012,0.0377 -0.023,0.0799 -0.0351,0.11719 l 1.69922,-0.0469 -1.66407,-0.0703 z m 1.66407,0.0703 1.11133,0.0469 c -0.0499,1.32015 -0.12005,2.6468 1.25,2.7168 2.28532,0.32523 4.27287,1.1674 5.93554,2.55664 1.4564,0.98815 2.87096,2.04504 5.54102,0.95898 0.27727,-1.52451 0.45512,-3.30469 1.33203,-3.19531 2.28437,-0.14392 4.54176,-0.30073 3.98242,-1.28125 -1.43624,-2.42253 -3.31605,-6.53657 -4.60742,-5.03125 -2.05891,0.45093 -4.11685,0.50293 -6.17383,-0.31641 l -2.80859,-1.43945 c -1.35086,-0.46628 -1.88653,0.52458 -2.42188,1.51758 l -1.95508,3.43359 -1.18554,0.0332 z M 416.76594,264.22461 c -0.38665,0.15735 -2.50361,0.45104 -2.81446,0.77148 -0.35498,0.35978 -1.36201,0.94218 -1.12695,1.91407 0.0681,0.26288 0.47602,2.49609 0.9375,2.49609 0.75218,0 2.1161,0.27723 2.4375,-0.38477 0.66392,-1.35469 0.78419,-2.56719 0.56641,-4.79687 z"
         id="path4272"
         inkscape:connector-curvature="0" />
    </clipPath>
  </defs>
  <sodipodi:namedview
     pagecolor="#ffffff"
     bordercolor="#666666"
     borderopacity="1"
     objecttolerance="10"
     gridtolerance="10"
     guidetolerance="10"
     inkscape:pageopacity="0"
     inkscape:pageshadow="2"
     inkscape:window-width="1600"
     inkscape:window-height="837"
     id="namedview87"
     showgrid="false"
     fit-margin-top="0"
     fit-margin-left="0"
     fit-margin-right="0"
     fit-margin-bottom="0"
     inkscape:zoom="0.80610173"
     inkscape:cx="536.35356"
     inkscape:cy="327.8877"
     inkscape:window-x="-8"
     inkscape:window-y="-8"
     inkscape:window-maximized="1"
     inkscape:current-layer="svg2" />
  <path
     style="fill:#cf142b;stroke:#cf142b;stroke-width:1.29999995;stroke-miterlimit:0;stroke-dasharray:none;stroke-opacity:1"
     clip-path="none"
     d="m 345.6947,247.37489 c -0.33439,-0.0211 -0.68031,-0.0119 -1.0293,0.006 -1.18104,0.13048 -2.14111,0.59734 -2.49609,2 -2.26326,2.90032 -3.88609,1.86128 -5.54492,1.03906 -0.45821,-0.40483 -0.87232,-0.94564 -1.23047,-1.6582 l 0,261.08594 c 0.97806,-0.1548 1.7879,-0.80795 2.48438,-1.46875 3.08931,-1.72311 3.4291,-0.33203 2.57617,2.40039 3.40017,-1.37964 3.20669,-0.4916 3.51562,0.79882 1.39979,5.68358 4.29996,2.41104 6.71289,3.99024 l 10.61914,7.0332 c 1.62621,0.92871 1.34696,1.86333 0.70703,2.79492 -3.3532,6.41849 -0.9159,5.48246 0.0742,5.59375 2.1654,0.22643 4.51644,-0.50876 6.0918,2.7168 1.12827,1.85551 2.26425,4.17661 4.37305,4.55078 l 23.35156,3.51758 c 2.78423,0.21875 -0.0235,1.4293 -1.17383,2.55469 -2.37742,4.66276 -0.95712,4.52769 0.0762,4.875 2.60386,0.94214 -0.34289,4.67636 5.38868,4.87304 l 17.65039,1.4375 c 5.02734,0.0499 4.69825,4.5146 6.55664,4.07422 5.88793,-0.63129 5.84309,5.32993 7.5,5.26953 10.21682,-0.23602 6.66046,2.13886 9.13671,2.64063 7.58035,0.54207 3.70947,3.21118 6.08594,3.99023 l 11.4043,2.24219 c 1.63197,0.0998 3.8085,0.85829 4.29492,-0.4043 1.28082,-1.92267 0.54328,-8.49125 4.0586,-5.26953 1.03616,0.70613 0.11293,2.94327 2.49804,3.59375 l 8.35547,1.11914 c 3.24379,0.66871 2.39346,2.48353 4.13672,2.87305 4.22239,0.96421 1.5358,2.36401 3.59375,3.2793 l 10.30664,5.51172 c 2.7564,1.182 5.10877,-3.42881 6.16797,-1.52149 2.16636,2.41197 3.48998,1.38331 4.8418,0.48242 3.69759,-0.96229 3.1619,2.04266 4.84375,1.91602 l 19.98828,0.88086 c 8.72877,0.50657 4.74982,6.04682 6.87109,5.11523 1.30289,-0.25137 2.52565,-0.59551 3.90625,0.23438 l 13.82227,7.0332 c 4.25309,1.93707 7.45152,1.92415 10.69531,1.99805 l 21.24219,-1.67774 c 0.83181,-0.007 -1.16494,1.9339 0.15234,1.67774 0.34059,0.0535 0.6699,0.0775 0.99023,0.0762 2.24236,-0.009 4.02671,-1.26005 5.88282,-2.31445 l 8.66797,-1.4375 c 2.35824,-0.35978 4.73152,-0.69624 6.48437,-2.71485 l 11.86719,-13.90429 -9.91797,6.55468 c -1.52067,0.89801 -2.67047,-1.7319 -0.625,-3.99804 2.75449,-3.52681 17.09019,-7.31789 3.12109,-10.46094 -9.3639,-2.10784 -6.92313,3.92579 -8.74218,2.39648 -2.46091,-0.93926 -4.07329,-4.80392 -5.9336,-3.99609 -8.75084,1.15417 -8.54205,-0.11242 -8.98242,-1.75781 -0.54687,-2.39567 2.31895,-6.10343 -1.63672,-7.19141 -0.6524,-0.35882 -7.60858,-3.51929 7.02539,-1.75781 2.62209,0.48835 6.34485,-9.08515 -5.23242,-8.54883 -2.40622,-0.25905 0.40445,-2.02829 0.46875,-2.95508 l 0.70313,-2.79297 c 0.23409,-1.25204 3.95761,-1.49286 4.37304,0 0.86155,1.36521 1.71657,1.10281 2.57813,-0.084 1.01506,0.49122 2.02887,0.47025 3.04297,-0.32031 2.435,-1.04672 4.37194,-1.40437 4.52929,0.72265 0.76273,2.45707 1.41314,4.23692 3.4375,4.8711 7.896,3.6688 7.5593,2.55364 7.10742,1.83984 -0.98149,-4.25309 5.75699,-8.66126 0.46485,-9.10547 -2.08193,-0.45572 2.56111,-9.48238 -1.56055,-11.66601 -2.50407,-1.72599 -2.80502,-3.84514 2.42188,-4.63282 6.16809,-0.36937 -2.44502,4.10111 1.01367,3.91211 3.76475,-0.0278 7.1736,0.16495 7.65234,2.23633 1.81906,4.10438 1.55664,9.8451 3.35938,10.30274 3.2198,1.27698 1.03905,3.52321 1.09375,4.87695 -0.0863,4.36438 3.96775,1.93836 3.74804,4.55469 l -0.70507,13.34375 c 1.88909,0.18517 4.64909,-0.8991 5.23242,1.19531 0.49601,3.64482 0.29131,8.73112 3.75,6.30859 1.9102,-1.79027 4.30766,-4.40504 1.79687,-6.46875 -1.8795,-0.92104 -3.94766,-3.77483 -2.6582,-3.19726 1.3192,0.21587 2.54954,1.34194 4.06445,-0.39844 l 2.26366,-7.91226 c 1.19735,-3.43375 0.37414,-3.18971 -2.73437,-4.78906 -3.05862,-5.99827 4.2405,-5.03323 3.98242,-7.11133 0.1842,-6.98743 -2.07925,-2.15076 -4.21875,-3.75586 -3.43854,-2.81973 -6.98096,-7.28963 -2.96484,-7.26953 2.82356,0.22547 4.71842,0.066 5.46484,-0.5586 2.86962,-5.5953 -4.29453,-0.23977 -3.125,-4.3125 0.76177,-3.78777 6.07067,-6.74293 8.27735,-3.83398 3.26008,4.34999 6.18868,7.8485 7.18359,6.31055 1.80946,-2.7967 6.6285,-5.85387 2.34375,-6.31055 -4.38166,-0.66008 -6.36894,-1.44529 -6.79492,-2.31836 -0.77616,-1.4324 -3.02469,-2.99001 -1.56446,-4.23437 3.52778,-4.04394 14.55157,-11.85946 7.10938,-10.38868 -18.95422,2.81589 -10.46826,-4.80942 -12.02539,-5.34765 -1.28178,-0.68023 -4.22611,-1.28126 -1.25,-2.15625 3.48556,-0.23601 2.62033,-2.78255 4.76367,-2.63672 2.65374,0.26096 5.31014,-1.25559 7.96484,-3.75391 1.23861,-0.86443 0.10225,-6.79024 2.6543,-7.67578 4.44497,0.36265 5.67585,-0.59193 5.62305,-2.07422 -0.19668,-5.4303 -3.25166,-1.0568 -4.21875,-3.0332 l -2.96485,-5.51367 c -8.44958,-0.2293 -4.32895,2.83764 -7.10742,2.71484 0,0 -6.56021,0.5586 -6.86914,0.5586 -4.24254,0.35786 -3.14133,-4.06211 -0.39453,-3.11133 1.54466,0.8961 3.17092,1.14953 4.92188,0.55468 0.70995,-0.47201 1.4175,-0.94559 1.71874,-1.83593 1.04865,-3.03367 1.59852,-3.00095 2.0293,-2.23438 0.64089,1.17433 2.45948,0.0969 3.36133,0 3.60644,0.26576 9.43941,2.20474 9.05469,0 -0.142,-1.69145 0.31717,-3.99787 -1.16992,-4.3164 -3.25338,0.27055 -4.00931,-0.18992 -2.89063,-1.19922 0.34827,-0.95558 0.0382,-1.91655 -1.48437,-2.875 0.0681,-1.88717 1.29357,-4.94908 -0.3125,-4.95508 -4.53036,-1.22422 -5.95417,-4.46185 -6.5586,-8.22852 -1.17337,-2.77559 -4.27106,-1.36311 -5.23047,-3.59375 -2.01573,-3.59109 -3.77904,-4.74117 -5.07617,-4.79296 -5.64616,-0.24561 -4.04948,-4.61239 -5.7793,-4.23438 -5.09354,1.84304 -4.98033,-1.4051 -5.46484,-4.07227 0.2082,-2.75928 -5.02465,-1.34697 -5.31055,-3.27539 -0.54591,-4.20416 -2.24856,-7.26472 -7.96093,-6.39453 -1.41322,0.19764 -2.66894,-0.0122 -3.05078,-2.55273 l -1.48438,-5.91406 c -3.4088,0.23985 -4.92715,-3.87424 -7.02539,-5.03321 l -2.9668,-1.75976 c -5.77762,-2.09632 -2.88896,4.28428 -5.85547,1.12109 -2.14334,-3.026 -9.65864,-1.45177 -9.68554,-2.79687 0.67447,-3.29847 -5.15533,-5.19132 -7.17969,-5.19532 -1.29522,0.16214 -3.05363,-0.98681 -3.5957,1.28125 -1.34989,5.40631 3.01879,3.3387 3.90625,4.47657 2.56547,2.13278 2.1133,3.87632 1.40429,5.58984 -0.41543,1.95241 -3.80113,-2.1177 -4.53125,-1.59961 -1.26643,1.39211 -5.73262,2.16639 -3.12109,4.31836 2.66622,2.86578 9.01033,7.52369 7.73047,8.4668 -1.08222,1.67514 -2.18522,3.50568 -2.6582,1.03711 -0.37802,-2.5108 -3.26985,-2.4568 -5.85547,-2.7168 -0.87499,-0.84621 -2.23925,-2.00224 -2.18555,-3.27539 l -0.15625,-3.51172 c -0.18708,-2.74969 -7.61165,-1.02848 -6.48242,1.03906 l 2.96875,2.875 c 1.26067,1.24052 2.27258,2.53483 2.49804,3.99219 0.57661,1.61661 1.76449,3.4387 -1.25,3.83398 -2.06082,0.98053 -5.23884,-9.46556 -6.63671,-9.50586 -4.81723,-0.96517 -5.82201,1.29368 -4.60547,5.43165 0.71765,1.23572 3.80478,1.74943 3.59179,5.43359 1.31152,2.60097 5.74542,0.88199 3.9043,7.83008 -0.65432,1.08318 -4.48645,0.83414 -5.85937,-1.83399 l -2.1875,-5.35547 c -0.11897,-0.94887 -1.91098,-0.75794 -4.5254,0 -3.15935,2.27381 -5.18719,1.38995 -7.57421,1.51563 -0.44326,6.56721 -3.94998,1.88239 -4.375,5.35547 -0.55934,3.50859 1.72341,5.06913 1.875,6.15039 0.80783,2.82738 -2.54318,2.05137 -4.13868,2.79492 -2.11648,0.55742 -3.74751,-0.79926 -5.46679,-2.08008 -4.92564,-4.46609 3.74699,-0.73641 4.45312,-1.83398 0.40967,-0.74546 1.30653,-1.49086 0.15235,-2.23633 -1.86798,-1.32015 -4.45211,-3.05459 -4.9961,-3.5957 -2.04931,-3.96239 3.91363,-3.97913 6.94922,-5.4336 l 9.5293,-4.63281 c 0.95942,-0.6668 1.81494,-1.97555 1.95117,-2.95703 0.7023,-2.42349 0.92968,-5.81993 2.18555,-7.10938 2.76984,-1.60511 3.34392,-4.01678 5.15625,-5.99414 5.21923,-3.12002 13.68225,-8.64891 12.56836,-10.86133 -0.76369,-2.60865 2.37247,-7.39892 -6.40235,-5.51367 -3.0212,0.0239 -9.38092,-1.87038 -9.05664,0.082 0.14104,2.19611 -0.008,4.05925 -1.71679,4.15235 -3.82423,-0.57469 -13.26162,5.36227 -13.19922,7.10937 -0.0221,3.96334 -4.92292,3.62892 -5.85547,4.39453 -3.66401,3.98062 -4.5411,0.56335 -7.4961,1.92188 -5.68934,0.85676 -7.40109,0.51044 -7.49609,-0.32617 -0.88266,-1.81521 -0.70241,-2.8418 0.70312,-2.95117 4.14085,0.26384 8.27803,0.14152 12.41407,-1.28321 5.57613,-5.08874 0.72274,-9.10518 -5.22852,-9.14258 l 1.0918,-6.87304 0.0352,0.002 c 1.10727,-3.45933 1.69131,-8.44457 3.94727,-8.58789 9.44449,-2.12031 15.95302,2.5927 23.26953,5.42969 2.98954,1.45351 3.87978,-0.43711 5.07617,-1.83594 1.65499,-1.67706 0.7527,-3.11721 -4.45117,-4.15625 -2.95884,-0.89514 -0.60037,-3.34843 -0.86133,-5.03125 -3.36083,0.27727 -2.28207,-2.05778 -4.29492,-2.55859 -1.74134,-0.76274 -2.98285,-1.72858 -1.64062,-3.75391 2.64319,-2.98282 -3.81043,-4.16834 -7.02735,-5.99219 0.16598,-2.15773 0.51271,-4.38821 -7.02734,-3.43359 -2.74489,-3.1229 -3.23076,-0.74824 -4.44922,-0.1582 l -0.39062,5.51171 c -0.80783,0.60539 -1.61402,0.18064 -2.41993,-0.47656 -0.70901,-0.95078 -1.67051,-0.621 -2.57812,-0.5625 l 0.3125,-3.67383 c -1.68086,-0.53152 -2.11591,-1.57543 -1.7168,-2.95507 2.03493,0.38089 3.84342,0.60559 3.82422,-0.48047 0.64376,-3.42607 2.51558,-7.91636 -0.54687,-8.1543 -1.49285,-0.004 -2.94828,-0.0909 -3.82422,-1.35352 -0.17462,-0.93159 -1.5966,-1.86535 0.70312,-2.80078 2.19706,-0.35498 3.8648,-1.02352 4.60547,-2.23047 0.54111,-1.37676 1.50823,-2.92143 -0.54492,-3.27929 -1.98791,-0.47299 -5.12693,0.69329 -8.51367,1.83593 -2.42828,1.41803 -4.29572,1.95019 -4.44922,-0.23632 0.65528,-0.90185 -0.15653,-1.80912 2.3418,-2.71289 2.78422,0.23313 4.83072,0.18155 4.92382,-0.64258 1.08126,-1.80467 2.47332,-3.80001 0.54297,-3.75781 l -2.96875,0.084 c 0.11417,-0.66871 -0.0484,-1.33314 -1.16992,-1.99609 -1.09565,1.88426 -2.18946,2.05273 -3.2832,1.83398 -0.11513,-1.28754 0.93283,-3.46745 -0.85742,-3.83203 l -4.29688,-0.24024 c -0.0959,-0.99011 0.12902,-2.09954 -1.55859,-2.47851 l -5.07813,-1.03906 c -0.56318,-3.96814 2.75984,-10.27603 -6.63476,-8.94532 l -2.65821,-2.3164 c -2.36784,-0.84621 -4.73379,-0.59316 -7.10547,0.47851 -1.39211,2.46569 -2.63553,3.21832 -3.82617,3.35743 -3.2908,-0.0969 -6.65989,0.51244 -9.75976,-1.35938 -8.31718,-3.806 -8.35514,-5.36757 -8.66407,-5.99023 -1.54274,-2.75641 -2.678,-3.99894 -2.96679,-2.08204 -0.47683,2.54632 -1.76583,3.42495 -3.90821,2.5586 l 1.0918,-14.61914 c -0.5651,-2.74393 -2.7939,-3.21576 -5.85156,-2.55664 -3.61604,2.20858 -1.63581,4.42235 0,6.63476 -1.46023,1.25396 -2.71813,4.12321 -4.37696,3.75 -2.6567,0.34923 -1.84742,-6.38762 -2.65429,-9.82617 -1.55426,0.38185 -2.94886,-0.22781 -4.29492,-1.11719 2.54533,-2.48201 2.54011,-3.57772 1.56054,-4.15625 -1.18584,-1.16665 -2.44446,-2.85643 -3.43554,-2.63671 -1.89868,0.30509 -3.80245,0.32458 -5.69922,-0.63868 l -11.01172,-7.10937 c -5.19524,-1.56672 -5.20265,2.86815 -7.41602,6.31055 -8.01304,9.92515 -11.11044,7.51995 -11.71679,6.23242 -0.44133,-1.88526 -0.7684,-3.69916 1.64453,-3.91407 l -0.54883,-9.66796 c 1.94761,0.0163 3.10061,-0.55097 3.59375,-1.59961 0.34059,-2.79478 1.01869,-7.42724 -0.39453,-8.38282 -1.63773,-0.67159 -3.24592,-1.40938 -5.69531,0 l -7.81055,5.50782 c -1.5389,-0.0451 -4.19679,-0.85539 -4.06055,0.24218 -0.8251,2.50983 1.35595,8.09398 -2.49805,7.50586 0.72436,3.72062 -0.63268,4.25537 -2.8125,3.51758 0.30031,-1.71927 -1.43718,-1.83374 -3.82421,-1.4375 -2.91662,0.39623 -5.58857,1.08134 -7.26563,2.95508 l -1.0918,5.19336 c -0.75314,0.82413 -1.50957,1.5217 -2.26367,-0.16016 l -0.85937,-4.15429 c -2.26039,1.9073 -4.1382,2.90668 -5.15039,1.83789 -2.64511,-2.54341 -6.695,-2.20345 -6.4043,-0.63672 0.0595,2.75065 -0.9848,4.50496 -4.45117,4.07226 -3.14304,0.27631 -8.14398,0.88434 -7.73047,2.55469 0.73299,3.85685 -3.1416,4.34383 -6.63867,5.11328 -2.90607,0.54207 -5.02227,0.46297 -5.23047,-1.11719 0.0556,-2.12031 -0.1121,-4.65282 0.9375,-4.95312 1.37485,-0.40679 3.12305,-0.70975 3.12305,-1.51758 -0.009,-1.09181 -0.2794,-2.1835 0.69921,-3.27148 1.02081,-0.32812 1.75108,-0.0652 2.57618,0 1.55329,-0.28302 2.33072,-1.24173 2.42382,-2.80078 0.86252,-3.56039 1.09743,-7.86004 4.52735,-8.38868 l -0.15625,-4.07422 c -0.0672,-1.30288 -1.31206,-2.62933 -4.29297,-1.99804 -0.0528,-1.27602 -0.51177,-2.55605 1.01562,-3.83399 0.99011,-0.86636 1.98052,-0.61787 2.9668,0 1.75093,2.00517 3.69409,3.87036 9.52734,2.95508 2.73914,-0.66296 0.44265,-3.08822 -2.65624,-4.63672 -1.15322,-0.63418 2.09529,-4.112 4.53124,-5.1875 1.19831,-0.29263 0.36042,-2.82402 -1.33007,-4.23437 -2.1856,-1.20694 -2.5209,-2.49516 0.0801,-3.91797 2.14046,-1.21462 -0.50554,-4.54997 -2.89257,-3.19336 l -2.73243,1.51758 c -2.75542,1.31824 -3.40375,0.0495 -4.13867,-1.11524 -0.32812,-1.39979 -1.047,-2.00753 -2.41992,-1.28125 -1.48614,0.73779 -2.90595,1.01799 -3.98242,-1.19922 -0.58213,-1.20331 -1.48317,-1.54019 -2.48633,-1.60351 z m 187.90234,143.05078 c -0.0121,0.0377 -0.023,0.0799 -0.0352,0.11719 l 1.69922,-0.0469 -1.66407,-0.0703 z m 1.66407,0.0703 1.11133,0.0469 c -0.0499,1.32015 -0.12005,2.64679 1.25,2.7168 2.28532,0.32523 4.27287,1.1674 5.93554,2.55664 1.4564,0.98815 2.87096,2.04504 5.54102,0.95898 0.27727,-1.52451 0.45512,-3.30469 1.33203,-3.19531 2.28437,-0.14392 4.54176,-0.30073 3.98242,-1.28125 -1.43624,-2.42253 -3.31605,-6.53657 -4.60742,-5.03125 -2.05891,0.45093 -4.11685,0.50293 -6.17383,-0.31641 l -2.80859,-1.43945 c -1.35086,-0.46628 -1.88653,0.52458 -2.42188,1.51758 l -1.95508,3.43359 -1.18554,0.0332 z M 421.60486,264.87489 c -0.38665,0.15735 -2.50361,0.45104 -2.81446,0.77148 -0.35498,0.35978 -1.36201,0.94218 -1.12695,1.91407 0.0681,0.26288 0.47602,2.49609 0.9375,2.49609 0.75218,0 2.1161,0.27723 2.4375,-0.38477 0.66392,-1.35469 0.78419,-2.56719 0.56641,-4.79687 z"
     id="rect4"
     inkscape:connector-curvature="0" />
  <path
     style="fill:#ffffff;stroke:#cf142b;stroke-width:1.29999995;stroke-miterlimit:0;stroke-dasharray:none;stroke-opacity:1"
     clip-path="none"
     d="m 83.784542,0.65028429 c -0.82353,0.0112731 -1.61948,0.37788651 -1.74804,0.94921871 -1.12252,5.1117684 -8.92109,3.9106955 -9.36914,3.2851563 -2.98954,-5.68358041 -4.05645,-0.6804108 -5.0293,-0.9394531 l -25.82422,0.8183593 c -1.86894,0.2340975 -2.42951,3.4564515 -4.11328,3.6425782 -3.72254,1.0467229 -6.06597,4.1993513 -9.48437,8.6874993 -1.17817,1.891009 -6.73469,0.710707 -9.48438,1.408203 -2.52806,1.824809 -3.49472,-1.040226 -5.71289,-0.941406 l -8.4570301,0.941406 c -5.49649998,0.200518 -3.02135,9.107447 -2.74024,10.802735 l 0.3418,1.291015 c 0.48066,1.332628 5.72839,1.721608 2.16992,5.050782 l -3.20117,2.347656 c -2.11166998,2.443632 3.30793,0.06003 4.80078,0.46875 l 9.1425801,5.162109 c 1.52451,1.127314 0.61768,2.564611 -0.22852,3.994141 -1.93801,1.488054 -1.56346,2.973877 0.45899,4.462891 2.54533,4.805715 -0.27269,5.075459 -2.74414,5.636718 -6.7178301,1.79027 -7.0124101,8.241833 -2.51563,9.861329 2.46474,0.52576 0.93756,2.920635 0.23047,4.927734 -2.3841501,2.38127 4.13521,1.00052 6.40039,1.412109 4.86904,0.965173 1.02755,5.746463 -6.17382,5.166016 -2.0272501,-1.120598 -0.7836201,2.566772 -0.9160201,4.226562 -0.81934,1.098531 -0.54361,2.19341 0.4589801,3.289063 l -0.2285101,6.570312 c -0.0422,1.192554 -3.88555,-0.07743 -3.65625,4.933594 -2.64031,0.413508 -1.34357,1.161262 -0.45899,1.878906 1.85263,1.097562 1.60828,4.451422 4.11524,3.755852 1.0745401,-0.41735 0.8524001,2.27666 1.8281201,2.34766 l 16.45508,0.23633 c 2.06274,0.44901 -0.30508,-2.52024 1.25781,-2.23242 5.10793,-0.33675 5.62895,1.21212 6.28711,2.69921 0.83469,1.24726 6.02017,-0.77269 7.3125,0.47071 2.36305,4.63974 4.72187,4.36794 7.08203,4.46484 2.81589,0.16311 7.48652,7.49949 0.11914,7.74414 -2.26902,-0.0518 0.26461,2.58123 1.02735,4.23047 1.40362,1.03713 0.41875,2.35393 6.85547,2.81445 3.14017,0.003 0.36301,3.87941 0.45703,5.875 4.3193,-0.98628 4.01865,0.94499 4.57031,2.34766 0.3617,1.51492 5.05616,-0.89757 7.54297,0.46289 1.51012,1.12827 0.18848,-1.84613 1.82813,-2.58008 1.4113,-2.85619 2.70468,-2.5176 3.88476,-1.64453 2.28437,2.62208 5.82988,0.17484 6.85742,0.94141 2.10496,4.42483 6.6509,3.55977 6.625,6.57617 1.18296,2.01477 25.670628,-0.43295 26.966798,1.40625 3.11235,1.80083 3.94559,3.60155 4.34375,5.4043 0.20627,5.23169 4.90263,2.25922 7.54101,3.04882 2.72763,0.12761 1.72778,3.12891 2.28711,4.93165 0.78289,2.27285 5.80374,1.21233 6.625,-1.87891 1.30577,-3.62659 3.78372,-2.45347 5.94336,-2.58203 2.64511,0.67063 2.94169,-2.28091 3.88672,-4.22852 0.49985,-1.16282 2.93276,-1.39313 7.3125,-1.64258 4.27707,0.0729 5.99183,1.02277 6.62696,2.35157 0.91912,1.13115 2.2227,-0.0883 3.42773,-0.70899 3.5815,-3.73309 9.67532,-0.66713 10.74219,-1.87695 2.45898,-3.09795 4.13604,-4.46896 7.54101,-2.34961 2.72282,1.93706 2.5568,0.90334 3.65821,1.17773 2.53766,-1.16952 -0.41377,-6.09383 3.42773,-6.80859 5.15303,1.09661 4.33543,-2.33973 4.79883,-4.46484 0.0825,-1.32783 3.14273,-3.83673 4.57226,-3.99024 2.63456,0.16119 4.57956,-1.07909 6.62696,-2.11719 2.4302,-2.26518 4.71295,0.26673 6.6289,0 l 14.85547,0 c 1.29233,1.39595 2.59244,0.85552 3.88477,-0.23437 0.86252,-0.75507 5.3041,1.6199 5.49023,-0.46875 1.29329,-3.35987 3.35566,-4.68621 7.08203,-3.52148 1.01698,0.47108 2.28455,1.72654 2.74219,0.46875 0.79728,-2.76216 1.3388,-4.55651 4.33984,-4.93165 6.18343,0.38569 4.44802,-1.82653 8.91602,-3.04882 2.15773,-0.61595 6.7048,-4.55964 -0.6875,-8.22461 -1.75285,-0.21203 -0.54591,-2.70833 0,-4.693358 1.84208,-1.236687 -1.90148,-3.362245 -3.65625,-5.162109 -1.82481,-1.39691 -6.50955,-0.812903 -6.16992,-2.583985 -1.11868,-2.729538 0.0344,-7.066341 -1.37109,-7.28125 -1.89581,-0.173654 -2.74576,0.824139 -3.65626,0 l -5.94335,-8.455078 c -1.97256,-0.877865 -1.0271,-3.659918 -3.19922,-3.755859 -7.23688,1.253956 -10.96704,-0.155761 -11.19922,-4.226563 -4.91316,-1.247241 -2.1531,-7.908848 -2.74219,-12.207031 0.91145,-4.676194 -11.17383,-2.957196 -11.88476,-2.583984 -3.65443,1.342223 -7.31241,4.828151 -10.96876,1.878906 -2.40332,-1.795068 -0.0433,-4.022265 -3.88476,-5.869141 l -5.94531,-3.99414 c -3.10467,-2.160605 -1.13924,-13.441753 -11.88086,-1.876953 -3.27545,3.956631 -8.60771,1.859186 -9.82617,0.701171 -3.98925,-1.93706 -4.89214,-6.354327 -10.0586,-5.634765 -2.75928,0.478748 -3.93422,-2.985286 -4.57031,-9.15625 0.1535,-2.780387 -1.81252,-2.489095 -5.25586,-1.878906 -2.55493,2.002301 -0.64755,-4.586032 -3.6582,-6.339844 -11.77395,-4.996639 -9.55867,-0.784745 -10.05469,1.642578 -2.40141,-0.28015 -1.54693,5.104463 -2.9707,4.228516 -2.3899,-1.546579 -1.12566,-8.98708 -1.59961,-13.619141 0.7234,-3.156478 -5.61638,-0.612049 -8.68555,-0.707031 -1.371,0.468195 -3.34487,-0.725897 -2.9707,-2.109375 1.13019,-2.301639 4.99078,-5.8461489 1.14258,-5.8710937 L 96.436892,4.1834874 c -7.494,-7.1965794 -6.27651,1.6844463 -7.54102,1.4042969 -1.32975,0.3924011 -2.48065,0.2160885 -3.20117,-3.7578125 -0.23553,-0.84764406 -1.08661,-1.19096064 -1.91016,-1.17968751 z M 265.98572,134.51161 c -1.631,-0.008 -1.73824,6.4243 -2.99219,6.28711 -2.64703,-0.0499 -5.9419,-5.63586 -7.22656,-5.58789 -1.2434,0.57661 -0.70327,6.85392 -3.66211,6.54883 -3.77626,-0.37801 -1.27754,-5.71465 -2.70899,-5.59376 -3.85493,-0.11896 -3.71831,3.88431 -5.06054,3.36719 l -4.97071,-0.87695 c -2.25271,-0.25616 -2.09154,2.53729 -1.09375,2.875 3.84918,1.43241 2.88402,4.90621 1.09375,8.72852 -0.82798,-2.246 -1.73985,-5.15762 -4.56054,-5.17969 -0.7493,-0.53151 -2.72467,0.005 -6.66211,4.97656 -1.04001,2.11552 0.37064,2.90663 2.47656,3.31055 2.85331,-1.10141 4.36112,-4.0445 8.55664,-3.31055 -1.8248,5.72292 0.75057,8.57025 6.84766,9.11328 2.51079,0.0844 3.45204,0.68452 4.70312,2.48438 0.58333,0.8865 -1.49686,0.49151 -2.35937,1.82031 -0.53631,0.82317 1.29462,3.669 -0.25196,3.78125 -2.87441,-0.0317 -9.42453,2.0422 -7.98828,3.31055 1.9716,1.30768 2.2508,4.45686 9.89063,-0.41602 3.85686,-2.19035 6.02418,3.60932 9.89062,0 2.45131,-1.4113 13.94388,0.0611 20.91211,-1.65625 5.82174,-1.13115 6.57633,-10.79299 5.32813,-12.43359 -4.99088,-6.60174 -1.38205,-9.44572 -9.69922,-13.67578 -1.21846,-0.63898 -2.91381,1.27207 -4.375,-0.38868 -2.53382,-1.34702 -3.28351,-7.47286 -6.08789,-7.48437 z m 48.19922,51.42578 c -1.77303,0.31137 -4.38686,5.59814 -7.30469,1.60547 -0.61882,-1.28465 -3.61606,-2.16158 -3.2793,1.03711 0.19764,2.62592 1.23269,4.44568 2.88672,5.83203 2.60481,2.02629 2.34813,3.44384 -0.4668,5.27344 -1.29425,0.81451 -5.40747,-0.36223 -6.95117,0.0801 -1.70776,0.63129 -1.12567,6.16766 -4.60547,0.95899 -3.33301,-3.69375 -6.82102,-2.83029 -6.47851,-1.03906 1.32304,7.43836 -3.15725,4.56791 -2.50196,7.11132 0.20243,2.90703 1.28385,7.72697 -1.24804,4.63477 -1.91308,-1.89868 -5.81738,-6.7523 -6.63672,-4.47656 -1.03809,1.78163 -0.52175,6.88284 -3.5957,4.3164 -6.50485,-3.78777 -7.62271,0.74355 -9.67969,0 l -11.94922,-1.99804 c -1.96488,-0.17078 -4.13781,-0.0935 -4.52735,-1.11719 -3.69663,-12.4254 -1.69023,-2.29215 -3.59179,0.1582 -3.18334,3.50954 -2.43719,3.92547 -0.23438,3.19727 1.95146,-0.18516 3.90404,-1.04171 5.85743,0.55859 l 5.69726,4.3125 c 1.48038,0.61211 0.74566,4.34479 -1.24609,3.03711 -5.21539,-1.92363 -7.19914,0.62707 -8.66993,4.07617 -2.68636,6.24196 -7.2657,1.32933 -7.65234,4.07422 l -4.8418,12.94141 c -1.4238,3.30231 0.37459,3.24967 0.0781,4.87109 -0.61882,2.92142 3.09908,3.33372 4.76367,3.75586 l 3.9043,1.75781 c 3.09603,0.64569 3.65627,-2.70342 5.625,-4.63281 0.73011,-1.44008 10.74626,-1.99085 11.08398,0.16016 l 2.42188,14.93554 c 0.5958,2.56164 -3.91384,5.21775 4.84179,6.63672 l -4.06054,1.51758 c -2.18651,0.98724 4.60249,2.95342 2.57812,4.55469 -3.2294,3.29655 -5.27148,5.67821 -2.8125,5.26758 3.95663,-0.095 6.24033,0.26871 5.69922,2.08007 -0.24945,2.65471 -0.19772,4.71575 -3.66601,3.67383 -3.52969,-0.65145 -2.03369,3.55274 -2.11329,6.23047 0.16694,1.44872 -2.3693,1.01113 -2.10546,2.39844 -0.0633,2.50792 3.27403,8.14649 -0.62696,7.10937 -5.17317,-0.35019 -10.62273,-1.18536 -12.57226,4.23438 -1.23285,2.73625 -3.40402,6.38939 -0.54688,5.99219 5.40055,0.50945 4.33622,5.6608 7.57617,4.71289 2.91662,-0.23409 7.6382,-1.66448 7.88477,0.71679 -0.11897,3.84054 1.30593,8.25616 4.76367,7.67188 l 5.7793,-0.16406 c 2.6643,0.13815 2.19514,2.18943 0,3.28125 -1.2482,1.03617 -3.21293,2.0704 -1.79492,3.11328 l 4.52737,3.59567 c 1.18775,0.80879 0.46254,2.4035 -2.34375,1.59375 -14.05832,-3.78201 -6.98281,9.05835 -5.31055,6.47656 1.66555,-3.90482 2.78564,-4.42126 4.99805,-1.59961 0.87595,0.94694 -2.12688,3.39994 -1.79492,6.8711 -0.17462,1.97064 2.62416,1.30382 1.48437,5.18945 -1.58495,5.78336 -4.50268,3.10127 -4.76172,1.28125 -0.77329,-2.30739 0.83726,-6.53105 -2.42187,-6.79297 l -7.41992,-0.15625 c -1.64923,-0.0643 -3.78905,1.11251 -2.42188,4.07422 0.50177,1.98887 2.24119,4.89775 0,5.35156 -5.01391,1.33167 -0.31616,3.14134 -0.46679,4.71094 l 0,7.27149 c 0.0652,1.58592 1.10746,3.69204 4.06054,2.63476 2.05699,-0.24177 4.73105,-1.02125 4.2168,0.95899 l 0.0762,12.14453 c -0.0643,5.02255 -3.17552,-0.75122 -3.98047,0 -4.51122,4.01804 -3.09597,-0.73918 -4.53125,-1.11719 -2.62784,-0.79628 -7.44059,-1.33499 -7.88672,-0.0801 -0.69942,3.24763 1.94216,4.0045 1.87696,5.51367 0.10746,1.59934 -0.5421,3.59957 1.09179,3.4336 6.54892,0.50561 0.63955,1.73144 -0.0762,2.71484 l -3.04883,4.79492 c -0.85676,1.6761 -3.12891,9.25246 1.40625,8.625 2.89551,-0.3473 5.35289,0.44578 6.79297,3.91406 l 4.45117,11.5918 c 0.8961,1.71447 -1.67729,4.77086 0.31446,4.78906 0.93063,0.78864 3.37546,1.13693 0.23242,3.11524 -0.99971,0.64281 2.49061,7.42151 -1.64063,8.38476 1.40746,1.37388 3.686,2.3003 3.98438,4.24024 0.0288,3.82903 3.28831,2.92019 3.90234,4.79297 l 0.54883,3.59179 c 0.41543,1.67994 -0.11486,4.2452 6.79102,3.75782 1.71735,-0.33004 3.2822,4.21422 4.91992,4.23242 l 11.79101,0.79883 c 3.51626,0.21395 2.32662,3.59774 -2.73046,4.47656 -7.07378,-0.11705 -1.87567,3.53376 -0.54688,3.67383 l 5.23047,1.43554 c 1.26451,0.0365 2.16777,0.75105 2.8125,1.51954 l 12.96094,14.37695 c 1.64156,2.34673 5.22855,2.93238 5.77734,4.39453 1.65115,5.58092 1.69727,3.47824 2.18945,3.51562 7.48056,0.3876 9.82497,9.21433 11.94336,9.34961 1.88237,0.28207 3.78056,0.56093 2.8125,2.71289 4.69635,0.26 2.41776,2.88933 4.37305,3.19922 0.4836,0.15901 0.92735,0.17333 1.34375,0.10743 l 0,-261.08594 c -0.44651,-0.88834 -0.8041,-2.0495 -1.0293,-3.61524 -1.53986,-3.76667 -3.07335,-1.83824 -4.60937,0 -1.08222,1.915 -2.47874,1.28819 -3.74805,1.67579 -2.59138,-0.19572 -3.66103,1.42781 -5.07617,2.63476 -1.34127,1.00546 -3.15627,0.41929 -6.87305,1.20313 -3.27353,1.55042 -8.77792,2.20264 -13.50976,2.39453 -4.0545,0.73683 -7.15035,3.15586 -11.2461,2.31445 -0.14199,-1.32975 0.59425,-2.66144 -0.85351,-3.99023 l -5.78516,-4.16016 c -1.67706,-1.54082 -1.54118,-3.08524 -1.16797,-4.63086 0.62362,-1.16953 1.08103,-2.42781 2.5,-3.19727 l 19.59961,-13.97851 c 1.85167,-2.09536 3.13645,-4.51252 3.12305,-7.67188 0.15159,-1.33646 0.5739,-2.48374 2.57812,-2.55664 l 12.72852,0.084 c 1.63005,-0.40008 2.88455,-1.39021 4.29297,-3.2793 1.03809,-1.33071 3.24903,-2.36354 2.8125,-4.07227 -0.11033,-0.91528 -0.8439,-1.61219 -1.5625,-2.3164 0.49317,-1.7279 0.24711,-2.32869 -0.0781,-2.79688 l -3.98242,-3.75195 c -0.97093,-1.51012 -1.89061,-3.07472 -2.6543,-4.79687 -1.94954,-6.31967 -4.18376,-6.27848 -6.32421,-8.3086 -0.11058,-0.0277 -0.22555,-0.0286 -0.34375,-0.008 z"
     id="rect6"
     inkscape:connector-curvature="0" />
  <g
     id="g8"
     transform="translate(4.8389219,0.65028506)"
     clip-path="url(#clipPath4270)">
    <path
       d="m 22.222,82.828 0,45.457 45.455,0 c 0,7.5741 7.5762,15.151 15.152,15.151 l 0,45.454 45.452,0 0,-45.454 c 7.5762,0 15.152,-7.5766 15.152,-15.151 l 45.455,0 0,-45.457 -45.455,0 c 0,-7.5741 -7.5762,-15.151 -15.152,-15.151 l 0,-45.454 -45.452,0 0,45.454 c -7.5762,0 -15.152,7.5766 -15.152,15.151 l -45.455,0 z"
       id="path10"
       inkscape:connector-curvature="0"
       style="fill:#e60d2e" />
    <path
       d="m 25.254,85.857 0,39.397 45.452,0 c 0,7.5738 7.5762,15.15 15.152,15.15 l 0,45.454 39.392,0 0,-45.454 c 7.5762,0 15.152,-7.5766 15.152,-15.15 l 45.452,0 0,-39.397 -45.452,0 c 0,-7.5741 -7.5762,-15.151 -15.152,-15.151 l 0,-45.454 -39.392,0 0,45.454 c -7.5762,0 -15.152,7.5766 -15.152,15.151 l -45.452,0 z"
       id="path12"
       inkscape:connector-curvature="0"
       style="fill:#96877d" />
    <path
       d="m 26.77,87.373 0,36.364 45.452,0 c 0,7.5741 7.5762,15.153 15.152,15.153 l 0,45.454 36.362,0 0,-45.454 c 7.5762,0 15.152,-7.5791 15.152,-15.153 l 45.452,0 0,-36.364 -45.452,0 c 0,-7.5738 -7.5762,-15.15 -15.152,-15.15 l 0,-45.454 -36.362,0 0,45.454 c -7.5762,0 -15.152,7.5766 -15.152,15.15 l -45.452,0 z"
       id="path14"
       inkscape:connector-curvature="0"
       style="fill:#cccccc" />
    <g
       id="vi"
       style="fill:#d0d0d0">
      <path
         d="m 84.536,71.681 c 2.6626,2.6628 1.9431,7.6994 -1.6071,11.25 -3.5502,3.5503 -8.5867,4.2698 -11.249,1.6072 -2.6626,-2.6626 -1.9431,-7.6994 1.6071,-11.25 3.5502,-3.5501 8.5867,-4.2698 11.249,-1.6072 z"
         id="path17"
         inkscape:connector-curvature="0"
         style="fill:#96877d" />
      <path
         d="m 71.143,79.715 1.0712,-1.0722 4.2856,2.1422 -2.143,-4.2853 1.0714,-1.0722 4.2855,8.5711 -8.5708,-4.2856 z"
         id="path19"
         inkscape:connector-curvature="0" />
      <path
         d="m 77.572,73.287 1.0714,-1.0714 6.4282,6.4283 -1.0714,1.0714 z"
         id="path21"
         inkscape:connector-curvature="0" />
    </g>
    <use
       xlink:href="#vi"
       transform="matrix(0,1,-1,0,211.112,0.002)"
       id="use23"
       x="0"
       y="0"
       width="900"
       height="600" />
    <use
       xlink:href="#vi"
       transform="matrix(-1,0,0,-1,211.11,211.114)"
       id="use25"
       x="0"
       y="0"
       width="900"
       height="600" />
    <use
       xlink:href="#vi"
       transform="matrix(0,-1,1,0,-0.002,211.112)"
       id="use27"
       x="0"
       y="0"
       width="900"
       height="600" />
    <g
       id="g29"
       style="fill:none;stroke:#96877d;stroke-width:0.514">
      <circle
         cx="105.555"
         cy="105.557"
         r="31.822001"
         id="circle31" />
      <circle
         cx="105.555"
         cy="105.557"
         r="24.245001"
         id="circle33" />
    </g>
    <g
       id="g35"
       style="fill:#000000">
      <circle
         cx="93.433998"
         cy="131.31"
         r="1.515"
         id="circle37" />
      <circle
         cx="117.675"
         cy="131.31"
         r="1.515"
         id="circle39" />
      <path
         d="m 104.55,131.31 0,1.5798 -2.0203,0 c -2.0203,0 -2.0203,1.5798 0,1.5798 l 2.0203,0 0,1.5798 c 0.007,1.637 1.7632,1.8358 1.8917,0.13718 l 0.12826,-1.7078 2.0203,0 c 2.02,0 2.02,-1.5798 0,-1.5798 l -2.0203,0 0,-1.5798 c 0,-1.5798 -2.02,-1.5798 -2.02,0 z"
         id="path41"
         inkscape:connector-curvature="0" />
      <path
         d="m 75.954,113.4 2.0836,-0.49669 -0.23018,-0.96558 c -0.05274,-0.22154 -0.14029,-0.37212 -0.26261,-0.45176 -0.12227,-0.0796 -0.33208,-0.10192 -0.62945,-0.0669 l -0.03456,-0.14462 1.7943,-0.42772 0.03456,0.14462 c -0.20528,0.0516 -0.35004,0.11445 -0.43437,0.18823 -0.08431,0.0738 -0.13986,0.16141 -0.16664,0.26283 -0.02678,0.10141 -0.01904,0.24072 0.02319,0.41794 l 0.23018,0.96558 1.6653,-0.39698 c 0.26844,-0.064 0.44162,-0.12317 0.51955,-0.17754 0.05893,-0.0416 0.10192,-0.10968 0.12895,-0.20426 0.03521,-0.12958 0.0379,-0.25691 0.0081,-0.38202 l -0.04572,-0.19152 0.14462,-0.0346 0.54235,2.2752 -0.14462,0.0346 -0.04465,-0.18767 c -0.05228,-0.21889 -0.15392,-0.36268 -0.30524,-0.43127 -0.0983,-0.0427 -0.30644,-0.0261 -0.62439,0.0497 l -3.4245,0.81632 c -0.26844,0.064 -0.44161,0.12317 -0.51955,0.17753 -0.05893,0.0416 -0.10222,0.10838 -0.1299,0.20035 -0.03582,0.12697 -0.03853,0.25431 -0.0081,0.38201 l 0.04465,0.18768 -0.14462,0.0346 -0.94026,-3.9444 1.1528,-0.32851 0.03261,0.13683 c -0.23143,0.12678 -0.39442,0.24896 -0.48896,0.3665 -0.09453,0.11756 -0.15218,0.24837 -0.17294,0.39239 -0.02075,0.14403 0.0018,0.35418 0.06766,0.63043 l 0.27863,1.1689 z m -1.3422,-9.402 c 0.03979,-0.70618 0.34243,-1.303 0.90792,-1.7904 0.56549,-0.48738 1.2495,-0.70846 2.052,-0.66326 0.82656,0.0466 1.498,0.34604 2.0143,0.89839 0.5163,0.55236 0.75358,1.199 0.71183,1.94 -0.0422,0.74898 -0.34381,1.3633 -0.90484,1.8428 -0.56102,0.47958 -1.2642,0.69556 -2.1095,0.64794 -0.864,-0.0487 -1.5523,-0.38264 -2.0648,-1.0019 -0.44467,-0.53759 -0.64696,-1.1622 -0.6069,-1.8737 z m 0.28861,0.0927 c -0.02742,0.48684 0.13113,0.88756 0.47566,1.2021 0.42874,0.39179 1.0765,0.6121 1.9431,0.66093 0.88808,0.05 1.5822,-0.10137 2.0824,-0.45424 0.38022,-0.27106 0.58382,-0.64601 0.6108,-1.1248 0.02878,-0.51091 -0.14672,-0.94411 -0.52652,-1.2996 -0.3798,-0.35548 -0.99903,-0.55741 -1.8577,-0.6058 -0.93088,-0.0524 -1.6353,0.0917 -2.1134,0.43237 -0.38036,0.27376 -0.58517,0.67009 -0.61441,1.189 z m 7.894,-9.9511 -0.5176,1.3596 -3.0375,0.8174 c -0.04359,0.12962 -0.08066,0.23448 -0.11117,0.3146 -0.0124,0.03256 -0.02636,0.06738 -0.04191,0.10444 -0.01555,0.03709 -0.03221,0.07518 -0.04997,0.11428 l 1.4798,0.56335 c 0.3205,0.12201 0.5329,0.16274 0.63721,0.12218 0.14641,-0.05317 0.25581,-0.17496 0.32826,-0.36525 l 0.07577,-0.19905 0.13896,0.0529 -0.83073,2.1821 -0.13896,-0.0529 0.07293,-0.19155 c 0.08198,-0.21532 0.07048,-0.39601 -0.03445,-0.54204 -0.05761,-0.08213 -0.23164,-0.17848 -0.52208,-0.28906 l -3.2901,-1.2525 c -0.32049,-0.12201 -0.5329,-0.16274 -0.63721,-0.12218 -0.14736,0.05566 -0.25771,0.17998 -0.33112,0.37276 l -0.07293,0.19155 -0.13896,-0.0529 0.70634,-1.8554 c 0.2059,-0.54083 0.39713,-0.92456 0.57371,-1.1512 0.17658,-0.22662 0.40474,-0.38916 0.68447,-0.48765 0.27973,-0.09849 0.56608,-0.09195 0.85903,0.01957 0.31299,0.11916 0.54581,0.32462 0.69848,0.61637 0.15267,0.29177 0.19508,0.66984 0.12722,1.1342 l 1.8614,-0.49542 c 0.42703,-0.11264 0.72853,-0.23431 0.90446,-0.36521 0.17594,-0.13082 0.33184,-0.32948 0.46769,-0.59598 l 0.13896,0.0529 z m -3.9947,2.6203 c 0.01811,-0.04758 0.03447,-0.08865 0.04906,-0.12322 0.01461,-0.03458 0.02618,-0.06313 0.03477,-0.08567 0.18493,-0.48575 0.21917,-0.89198 0.10274,-1.2187 -0.1164,-0.32671 -0.3374,-0.55201 -0.66291,-0.67593 -0.31799,-0.12105 -0.6144,-0.11994 -0.88925,0.0033 -0.27484,0.12328 -0.47469,0.34893 -0.59956,0.67693 -0.05529,0.14523 -0.10632,0.35084 -0.15312,0.61683 l 2.1183,0.80642 z m 11.596,-18.053 1.0531,1.3672 -0.11806,0.07646 c -0.35222,-0.2826 -0.68176,-0.4538 -0.98862,-0.51362 -0.4425,-0.08686 -0.87738,0.0081 -1.3046,0.28477 -0.58242,0.37723 -0.87613,0.89464 -0.88114,1.5522 -0.0021,0.55362 0.17083,1.0991 0.51894,1.6366 0.28254,0.43626 0.62467,0.77966 1.0264,1.0302 0.40168,0.25056 0.79339,0.37113 1.1751,0.3617 0.38172,-0.0094 0.71651,-0.10735 1.0043,-0.29378 0.16864,-0.10923 0.31785,-0.23619 0.44759,-0.38087 0.12973,-0.14467 0.24074,-0.30595 0.33302,-0.48382 l -0.85639,-1.3223 c -0.14856,-0.22936 -0.26321,-0.36818 -0.34394,-0.41644 -0.08075,-0.04825 -0.16966,-0.06726 -0.26677,-0.05704 -0.09711,0.01023 -0.23785,0.07513 -0.42227,0.19448 l -0.08302,-0.12817 1.7709,-1.147 0.08302,0.12817 -0.08432,0.05462 c -0.1754,0.1136 -0.25784,0.25 -0.24732,0.40916 0.0089,0.11233 0.09274,0.29106 0.2515,0.53617 l 0.90664,1.3998 c -0.16831,0.30692 -0.35727,0.57454 -0.56689,0.80287 -0.20962,0.22834 -0.46847,0.44227 -0.77654,0.6418 -0.88375,0.57238 -1.7385,0.7238 -2.5643,0.45423 -0.61932,-0.20217 -1.1089,-0.58098 -1.4686,-1.1364 -0.26069,-0.40252 -0.41379,-0.8508 -0.45924,-1.3449 -0.05463,-0.58706 0.04172,-1.1283 0.28906,-1.6236 0.20835,-0.41264 0.54077,-0.7668 0.99726,-1.0625 0.1664,-0.10776 0.32637,-0.19222 0.4799,-0.25335 0.15351,-0.0612 0.38497,-0.12637 0.69427,-0.1959 0.15647,-0.03441 0.25611,-0.0654 0.29888,-0.09297 0.04269,-0.02776 0.06653,-0.071 0.07138,-0.13003 0.0049,-0.059 -0.02647,-0.14805 -0.09404,-0.26709 l 0.1248,-0.08083 z m 8.8735,0.61442 -2.039,0.5422 -0.1363,0.92615 c -0.03364,0.22797 -0.03703,0.39242 -0.01019,0.4934 0.02126,0.08029 0.07829,0.14067 0.17086,0.1812 0.09257,0.04053 0.26812,0.03612 0.52668,-0.01322 l 0.03817,0.14372 -1.6584,0.44098 -0.03817,-0.14372 c 0.20976,-0.09736 0.33873,-0.18572 0.38694,-0.26507 0.099,-0.1594 0.17816,-0.45074 0.23748,-0.87404 l 0.70002,-4.827 0.13591,-0.0362 2.9981,3.8935 c 0.24122,0.31289 0.43597,0.50576 0.58426,0.5786 0.14827,0.07285 0.33159,0.08718 0.54994,0.04297 l 0.0382,0.14372 -2.0778,0.55252 -0.03817,-0.14372 c 0.20698,-0.06609 0.33943,-0.13878 0.39738,-0.21796 0.058,-0.07918 0.0756,-0.16149 0.0529,-0.24693 -0.0303,-0.11391 -0.12993,-0.2801 -0.2989,-0.49854 l -0.51986,-0.67266 z m -0.18516,-0.25849 -1.4592,-1.8908 -0.35063,2.3721 1.8099,-0.48127 z m 9.6209,-0.02828 0.13143,0.03327 -0.52332,1.4597 -4.2165,-0.16404 0.006,-0.14858 0.20481,0.008 c 0.23023,0.009 0.39779,-0.0596 0.50268,-0.20567 0.0596,-0.08349 0.0954,-0.28049 0.10745,-0.59105 l 0.1367,-3.5138 c 0.0132,-0.34 -0.016,-0.55428 -0.0876,-0.64287 -0.0998,-0.12186 -0.25281,-0.18679 -0.45895,-0.19481 l -0.20481,-0.008 0.006,-0.14858 2.4657,0.09592 -0.006,0.14858 c -0.28903,-0.01392 -0.49287,0.005 -0.61151,0.05664 -0.11865,0.05169 -0.20105,0.11954 -0.24721,0.20354 -0.0462,0.08402 -0.0756,0.28798 -0.0882,0.61191 l -0.1331,3.4214 c -0.009,0.2222 0.007,0.37563 0.0465,0.46029 0.0299,0.05749 0.0778,0.10089 0.14374,0.13026 0.0659,0.02938 0.27418,0.05088 0.62489,0.06453 l 0.39756,0.01547 c 0.41764,0.01626 0.71198,-0.0031 0.88304,-0.05815 0.17109,-0.05493 0.32924,-0.15811 0.47454,-0.30932 0.1453,-0.15119 0.29412,-0.39275 0.44646,-0.72466 z m 7.2573,1.942 0.11707,0.06835 -0.90692,1.2578 -4.0064,-1.3248 0.0467,-0.14118 0.1946,0.06436 c 0.21875,0.07234 0.39874,0.05284 0.53997,-0.05847 0.0803,-0.06374 0.16929,-0.24314 0.26686,-0.53821 l 1.104,-3.3386 c 0.10682,-0.32305 0.13808,-0.53705 0.0938,-0.642 -0.0622,-0.14473 -0.19123,-0.24947 -0.38709,-0.31424 l -0.1946,-0.06436 0.0467,-0.14118 2.3428,0.7747 -0.0467,0.14118 c -0.27388,-0.09339 -0.47498,-0.13166 -0.60329,-0.11484 -0.12831,0.01684 -0.22625,0.05931 -0.2939,0.12715 -0.0676,0.06794 -0.15231,0.25582 -0.25409,0.56359 l -1.075,3.2509 c -0.0698,0.21112 -0.0974,0.36285 -0.0828,0.45516 0.0128,0.06352 0.0469,0.11852 0.10206,0.16497 0.0552,0.04647 0.24939,0.12479 0.58261,0.23499 l 0.37774,0.12491 c 0.39682,0.13122 0.68503,0.19407 0.86463,0.18856 0.17959,-0.0055 0.36014,-0.06081 0.54163,-0.16584 0.18148,-0.10507 0.39135,-0.29599 0.62961,-0.57275 z m 5.8487,3.0973 -1.7221,-1.2189 -0.79864,0.48837 c -0.19664,0.12013 -0.32513,0.22285 -0.38549,0.30813 -0.048,0.06779 -0.0579,0.15021 -0.0298,0.24726 0.0282,0.09704 0.14395,0.22907 0.34742,0.39607 l -0.0859,0.12138 -1.4007,-0.99138 0.0859,-0.12137 c 0.2091,0.09875 0.35956,0.14125 0.45138,0.12746 0.18582,-0.02604 0.46028,-0.15182 0.82341,-0.37729 l 4.1557,-2.5533 0.11481,0.08126 -1.0706,4.796 c -0.0858,0.38563 -0.10928,0.65872 -0.0703,0.81927 0.039,0.16053 0.14539,0.31051 0.31915,0.44992 l -0.0859,0.12138 -1.7549,-1.2421 0.0859,-0.12138 c 0.18331,0.11663 0.32394,0.17185 0.42187,0.16566 0.0979,-0.0062 0.17241,-0.04539 0.22351,-0.11752 0.0681,-0.09623 0.13193,-0.27916 0.19151,-0.54882 l 0.18376,-0.83003 z m 0.08,-0.30775 0.51785,-2.3316 -2.0464,1.2496 1.5286,1.0819 z m 6.4627,1.191 0.88066,1.1881 -1.2996,5.1103 2.5247,-1.8714 c 0.26904,-0.19942 0.41459,-0.35399 0.43665,-0.46372 0.0314,-0.14663 -0.0168,-0.30606 -0.14439,-0.47825 l -0.11246,-0.15174 0.11946,-0.08854 1.1295,1.5239 -0.11946,0.08854 -0.11487,-0.15497 c -0.13721,-0.18511 -0.29049,-0.27492 -0.45985,-0.26945 -0.10398,0.0037 -0.27868,0.0964 -0.52401,0.27837 l -3.6903,2.7353 -0.0862,-0.11622 1.3862,-5.4996 -2.6959,1.9982 c -0.26905,0.19942 -0.41539,0.35292 -0.43904,0.4605 -0.0298,0.14879 0.0183,0.30822 0.14439,0.47825 l 0.11487,0.15497 -0.11946,0.08854 -1.1295,-1.5239 0.11946,-0.08854 0.11247,0.15174 c 0.13879,0.18726 0.29287,0.27815 0.46223,0.27267 0.10397,-0.0037 0.27868,-0.0964 0.52402,-0.27835 l 3.0445,-2.2567 c 0.0544,-0.23707 0.0809,-0.40598 0.0796,-0.50673 -0.001,-0.10075 -0.0286,-0.22977 -0.0818,-0.38707 -0.0269,-0.07677 -0.0874,-0.17867 -0.18154,-0.30565 l 0.11946,-0.08854 z m 6.871,12.662 -1.1847,0.48309 -0.0508,-0.144 c 0.20233,-0.10285 0.34047,-0.19436 0.41442,-0.27451 0.11879,-0.13013 0.1899,-0.27253 0.21334,-0.42717 0.0234,-0.15465 -0.002,-0.33806 -0.0774,-0.55022 l -0.2561,-0.72361 -3.925,1.3887 c -0.31574,0.11164 -0.50066,0.2155 -0.55483,0.3114 -0.0721,0.13351 -0.0729,0.30003 -0.002,0.49957 l 0.0629,0.17808 -0.14018,0.04957 -0.77076,-2.1785 0.14019,-0.04957 0.0644,0.18184 c 0.0769,0.2172 0.19703,0.34805 0.36054,0.39251 0.10048,0.02697 0.2947,-0.01047 0.58263,-0.11236 l 3.925,-1.3887 -0.2184,-0.61758 c -0.0849,-0.23993 -0.16291,-0.40418 -0.23401,-0.4927 -0.0944,-0.11436 -0.22643,-0.19414 -0.39587,-0.23933 -0.16946,-0.0452 -0.3735,-0.03554 -0.61212,0.029 l -0.0508,-0.144 1.2262,-0.36564 1.4839,4.194 z m -4.3136,9.6659 -0.0755,-1.4528 2.4487,-1.9744 c -0.0125,-0.13618 -0.0209,-0.24707 -0.0254,-0.33268 -0.002,-0.0348 -0.003,-0.0722 -0.004,-0.11247 -6.7e-4,-0.0402 -9.1e-4,-0.0818 -4.5e-4,-0.12474 l -1.5813,0.0822 c -0.34247,0.0178 -0.55323,0.0663 -0.63228,0.14555 -0.11245,0.10779 -0.16337,0.26336 -0.1528,0.46671 l 0.0111,0.21271 -0.14849,0.008 -0.12122,-2.3318 0.14849,-0.008 0.0106,0.20469 c 0.012,0.2301 0.0954,0.39075 0.25042,0.48195 0.0859,0.0519 0.28397,0.0697 0.59434,0.0536 l 3.5157,-0.18276 c 0.34247,-0.0178 0.55323,-0.0663 0.63229,-0.14554 0.11228,-0.11047 0.16309,-0.26871 0.15238,-0.47473 l -0.0106,-0.20467 0.14849,-0.008 0.10307,1.9826 c 0.03,0.57792 0.01,1.0062 -0.06,1.2848 -0.07,0.27863 -0.21311,0.51947 -0.42924,0.72253 -0.21615,0.20305 -0.48074,0.31272 -0.79378,0.32899 -0.33444,0.0174 -0.63041,-0.0765 -0.8879,-0.28181 -0.25749,-0.20526 -0.44896,-0.53401 -0.57442,-0.98625 l -1.5028,1.2049 c -0.34518,0.27549 -0.57183,0.50861 -0.67995,0.69934 -0.10812,0.19073 -0.17053,0.43543 -0.1872,0.73409 l -0.14849,0.008 z m 2.5964,-4.0103 c 0.003,0.0508 0.004,0.095 0.005,0.13254 6.4e-4,0.0375 0.002,0.0683 0.003,0.0924 0.027,0.51906 0.1597,0.90452 0.39806,1.1564 0.23845,0.25186 0.53158,0.36875 0.87941,0.35067 0.33979,-0.0177 0.61052,-0.13838 0.81217,-0.36215 0.20164,-0.22378 0.29336,-0.5109 0.27514,-0.8614 -0.008,-0.15519 -0.0444,-0.3639 -0.10902,-0.62613 l -2.2635,0.11767 z m 1.4941,11.21 -0.48239,1.8386 -0.14382,-0.0377 0.0265,-0.10106 c 0.0177,-0.0674 0.0137,-0.17368 -0.0119,-0.31889 -0.0256,-0.14521 -0.0803,-0.28555 -0.16376,-0.42104 -0.0836,-0.1355 -0.23063,-0.31396 -0.4412,-0.53539 l -1.6684,-1.7964 -1.3216,-0.34676 c -0.32394,-0.085 -0.53559,-0.10174 -0.63496,-0.0503 -0.13468,0.0699 -0.2299,0.21113 -0.28565,0.42363 l -0.0449,0.17104 -0.14382,-0.0377 0.58744,-2.239 0.14382,0.0377 -0.049,0.1866 c -0.0585,0.22285 -0.0326,0.39862 0.0777,0.52727 0.068,0.0788 0.24967,0.15691 0.54509,0.23442 l 1.2478,0.32737 2.5873,-0.86676 c 0.30401,-0.10305 0.49641,-0.17651 0.57717,-0.22043 0.0807,-0.044 0.19165,-0.14983 0.33267,-0.31782 0.0395,-0.045 0.0722,-0.11677 0.098,-0.21525 l 0.14383,0.0378 -0.59152,2.2546 -0.14382,-0.0377 0.0306,-0.11662 c 0.0319,-0.12181 0.0328,-0.24136 0.003,-0.35868 -0.0302,-0.11731 -0.10225,-0.19095 -0.21628,-0.22086 -0.0933,-0.0245 -0.28248,0.0104 -0.56755,0.10454 l -1.9874,0.65431 1.3536,1.4603 c 0.20279,0.21939 0.3638,0.34473 0.48301,0.37601 0.0726,0.019 0.14227,0.0172 0.20915,-0.005 0.0669,-0.0226 0.12568,-0.0647 0.17643,-0.12614 0.0508,-0.0615 0.0945,-0.16218 0.1312,-0.30212 l 0.14382,0.0377 z"
         id="path43"
         inkscape:connector-curvature="0" />
    </g>
    <g
       id="g45"
       style="fill:#96877d;stroke:#000000;stroke-width:0.20299999">
      <path
         d="m 122.85,110.19 c 0.53163,-0.13451 1.4092,-0.0256 1.4092,-0.0256 0,0 0.0769,0.3651 -0.15373,0.4868 0.25621,0.14732 1.1786,0.10248 1.1786,0.10248 0,0 -0.3587,0.27543 -0.53804,0.38431 0.33307,0.032 0.743,0.46118 0.743,0.46118 0,0 -0.76862,0.1281 -1.1017,-0.0512 0.20497,0.40993 0.17935,0.76863 0.17935,0.76863 0,0 -1.2426,-0.30745 -1.691,-1.1273"
         id="path47"
         inkscape:connector-curvature="0" />
      <path
         d="m 120.77,109.49 c -0.30104,0.74301 -2.5108,-0.64052 -2.5108,-0.64052 0,0 0.9736,1.5437 2.434,1.7166"
         id="path49"
         inkscape:connector-curvature="0" />
      <path
         d="m 93.181,123.66 25.877,0 1.9984,-1.5885 -3.3307,-1.7935 -5.1242,-1.7422 -2.0497,-1.1273 -3.7919,0.20497 -3.177,1.691 -4.3556,0.51242 -1.0248,1.1786 -3.2282,0.25621 -5.0729,-0.10248 8.4549,1.3323 -6.9689,-0.3587 1.7935,1.5373 z"
         id="path51"
         inkscape:connector-curvature="0" />
      <path
         d="m 107.12,116.23 c -3.241,-1.7422 -4.189,2.5493 -5.5854,3.5869 1.8831,0.32026 3.3051,-1.4476 4.9192,-2.3059 1.224,3.333 3.1514,1.1273 3.1514,1.1273 0,0 2.0112,3.1898 4.6886,1.7422 0.73019,0.55085 1.5372,0.0512 1.5372,0.0512 0,0 0.9736,0.17935 1.1786,-0.25621 0.51241,0.17935 1.0761,-0.46117 1.0761,-0.46117 0,0 1.1145,0.0128 1.3323,-0.56366 1.6526,0.29464 3.8431,-3.382 3.8431,-3.382 l 0.66615,-1.281 0.97359,-0.20497 c 0,0 0.0641,-0.64052 -0.46118,-0.6149 -0.0128,-0.38432 -0.34588,-0.58929 -0.81986,-0.51242 0.0897,-0.23059 -0.25621,-0.40994 -0.25621,-0.40994 -0.92236,0.23059 -0.9736,2.5621 -0.9736,2.5621 0,0 -1.6141,1.2298 -2.2034,1.5372 -0.0256,-1.3323 -2.2546,-3.1386 -1.7935,-3.9969 0.46117,-0.8583 1.9088,1.3195 3.177,0.92235 1.2682,-0.39712 1.8914,-2.0468 1.9472,-3.3307 -0.35869,-0.87111 -1.2298,-2.3059 -1.2298,-2.3059 l -0.81987,-0.0512 -0.71739,-1.7422 c 0,0 -1.5116,0.98641 -1.486,1.8447 0.0256,0.8583 1.5885,1.5885 1.5885,1.5885 0,0 -0.90121,0.56325 -1.7422,0.30745 -0.0769,0.87111 1.0248,0.70457 1.4348,0.71738 0.20497,0.62771 0.81987,0.9736 0.81987,0.9736 0,0 0.38432,0.96078 -0.6149,0.87111 -0.99922,-0.0897 -2.1781,-2.3919 -3.5869,-1.3323 -1.4988,1.1273 0.66614,3.177 0.66614,3.177 0,0 -1.3195,0.69176 -2.1009,2.4596 -3.1898,-2.6902 -5.0601,-1.4348 -8.6086,-0.71739 z"
         id="path53"
         inkscape:connector-curvature="0" />
      <path
         d="m 102.46,111.67 c 1.3323,1.2554 0.40316,3.3422 0.92235,3.7407 0.55085,0.42274 1.3323,-0.20497 1.3323,-0.20497 1.3963,0.37151 3.8944,-0.40993 3.8944,-0.40993 1.0994,0.61473 0.66541,-0.29241 1.3323,-0.25621 0.58928,1.5116 2.5621,1.2298 2.5621,1.2298 0,0 -1.8063,-1.8447 -2.9208,-2.3571 -0.8583,0.51242 -3.3564,0.58928 -3.7919,0.51242 -0.48533,-0.0857 -0.17935,-0.67896 -0.40994,-1.0248 0.91849,-0.89406 0.19216,-3.1129 -0.30745,-3.9456 -2.036,-1.3563 -4.4684,0.96777 -2.6133,2.7158 z"
         id="path55"
         inkscape:connector-curvature="0" />
      <path
         d="m 93.599,107.92 c -1.6758,0.45291 -4.5835,-2.165 -5.9423,-1.1595 -1.3588,1.0055 -0.72467,3.4784 0.18117,4.7104 0.885,1.2036 -1.2953,1.6396 -1.8841,2.3552 -0.55353,0.67276 0.18117,1.4493 0.18117,1.4493 l 0.61597,0.39857 -0.1087,0.90583 0.3261,1.087 c 0,0 0.29892,0.26269 0.39857,-0.0725 0.28081,0.28081 0.02966,1.0928 0.72467,1.1957 -0.24887,-0.52003 0.18117,-1.9566 0.18117,-1.9566 0,0 1.2138,0.0906 1.5218,-0.4348 0.30798,-0.52539 -0.28987,-1.6667 -0.28987,-1.6667 l 0.36233,0 c -0.40763,-0.28081 -0.5435,-1.1232 -0.5435,-1.1232 0,0 1.6849,-0.53444 1.6667,-1.8117 -0.01812,-1.2772 -2.7356,-2.636 -1.7392,-3.2972 1.1051,-0.73373 3.0255,1.9023 4.6741,0.68844 1.6315,-1.2012 0.57974,-0.0362 0.57974,-0.0362 0,0 0.74569,-1.6783 -0.90584,-1.2319 z"
         id="path57"
         inkscape:connector-curvature="0" />
      <path
         d="m 102.25,89.971 c -2.2418,-0.93516 -6.8216,-0.99281 -9.3773,-2.2546 -1.1209,0.07046 -1.6205,0.95438 -1.6654,1.3067 -1.1722,-0.05765 -1.9664,1.7871 -1.7935,2.1522 -2.1329,-0.86471 -3.1258,2.5108 -2.434,3.2026 -1.8191,0.07686 -1.5949,2.402 -1.7678,3.0489 -0.58288,1.4156 0.1298,1.8919 1.281,1.3835 0.17294,0.6149 -0.06911,0.95934 -0.58928,1.0761 3.1575,3.6133 4.9421,-2.2236 7.7119,-2.2034 3.4583,-1.0124 4.8167,-2.7158 4.8167,-2.7158 l 1.3579,0.17934 c 0,0 2.4596,-5.1754 2.4596,-5.1754 z"
         id="path59"
         inkscape:connector-curvature="0" />
      <circle
         cx="105.145"
         cy="87.384003"
         r="3.3050001"
         id="circle61" />
      <path
         d="m 99.33,113.41 c -2.0497,-0.37151 -5.4444,-2.498 -5.7903,-5.2779 1.9088,-7.4941 11.755,-3.5807 12.604,-9.2173 -0.21639,-3.7187 0.44951,-7.3999 2.5119,-10.511 0.96079,-1.217 2.2034,-1.5373 2.2034,-1.5373 0,0 0.22257,0.79372 -0.10248,1.3323 1.6269,-0.17935 3.856,0.7302 5.3804,0.81987 0.44837,0.90954 0.40994,1.2426 0.30745,1.7935 -0.10248,0.55085 -0.71738,0.40993 -0.71738,0.40993 -0.39767,0.37723 -0.87565,0.76105 -1.9472,0.56366 -0.80706,0.6149 -2.5108,0.76863 -2.5108,0.76863 0,0 3.5613,3.7535 2.972,4.9192 0.74301,0.34588 1.8447,1.9984 1.8447,1.9984 0,0 2.434,-1.281 3.2282,-2.4596 1.4092,0 3.715,1.4732 4.868,1.6397 1.4092,1.1401 2.8183,2.3059 2.8183,2.3059 0,0 -1.6782,1.1017 -2.4084,-0.3587 -0.88392,0.0769 -2.7927,-2.0369 -5.4316,-1.3835 -0.0769,2.3443 -2.6646,3.9969 -2.6646,3.9969 0,0 2.4153,-0.33802 3.7406,0.46117 1.3707,1.153 3.382,2.7158 3.382,2.7158 l 1.7935,3.0745 c 0,0 -1.6397,0.28183 -2.2546,-1.8447 -0.61491,1.7166 -0.64052,-1.0633 -3.0745,-2.3571 -0.74301,0.0897 -1.1145,0.14092 -1.7422,-0.35869 -1.755,0.47399 -3.8303,1.4988 -6.3028,1.2298 -1.755,0.55085 -3.0361,2.0112 -4.8167,2.8183 -1.7807,0.80706 -2.3059,0.40993 -2.3059,0.40993 l -1.4348,0.0512 c -0.20699,0.86376 -0.0897,2.1778 -0.87111,2.4084 0.49961,0.53804 -0.35869,2.8311 -1.2298,3.2282 0.40993,1.4732 1.6108,1.9242 2.8695,2.6646 0,0 1.1145,-0.51241 1.8447,0.15373 0.73019,0.66614 1.486,2.5621 1.486,2.5621 0,0 -1.5197,0.10268 -1.9984,-0.10248 -0.47871,-0.20516 -0.52523,-0.70458 -1.0761,-0.56366 -3.4716,-3.0873 -5.3024,-1.8593 -5.6366,-2.5621 -0.34252,-0.72035 0.81987,-2.6005 0.46118,-3.7919 z"
         id="path63"
         inkscape:connector-curvature="0" />
      <path
         d="m 90.99,99.655 c 0.18117,-0.22646 1.4493,0.25363 1.4493,0.25363 l 2.3189,1.4493 4.7104,3.0436 1.6667,2.4276 -3.0074,-0.9783 -4.1668,-3.5871 -2.2465,-1.4493 c 0,0 -0.90584,-0.93301 -0.72467,-1.1595 z"
         id="path65"
         inkscape:connector-curvature="0" />
      <path
         d="m 118.85,107.37 c -1.6269,-0.40994 -5.6366,4.458 -5.6366,4.458 l 3.0233,3.2795 c 0,0 0.0897,-5.5854 2.6133,-7.7375 z"
         id="path67"
         inkscape:connector-curvature="0" />
      <path
         d="m 99.023,93.789 c -0.88723,1.1368 -0.96662,3.4287 0.18756,4.3531 0.10881,1.3911 1.2915,4.1971 2.2208,4.4605 1.0153,0.28784 5.0729,1.2298 6.6614,0.97359 -0.30381,2.5745 1.7164,4.641 3.5869,5.9953 -0.0136,0.23103 -0.0168,0.51306 0.19928,0.79864 0.20936,0.27664 1.1923,0.32734 1.2355,0.17495 0.43591,0.6126 2.5473,0.88157 2.7003,0.60869 0.14884,-0.26552 -3.1056,-2.5307 -3.8276,-3.222 -0.6133,-1.1442 -1.7749,-3.6938 -2.0497,-5.7391 -1.5973,-1.9003 -4.3395,-1.8623 -4.3395,-1.8623 l 0.0864,-3.7231 0.15373,-4.2018 -1.486,-0.76863 c 0,0 0.29956,-0.13652 0.46117,-0.30745 0.36089,0.15517 1.0391,-0.56988 1.1273,-0.77484 0.34187,0.12113 0.65138,0.11952 0.71117,-0.06314 0.0528,-0.16132 0.11399,-0.87942 0.23863,-1.2505 1.1211,-0.98705 -0.16365,-3.08 -1.8778,-3.1144 -1.6961,-0.03441 -2.0765,2.0232 -2.044,2.1796 0.15932,0.64556 0.12499,0.97102 0,1.1273 -0.12777,0.15976 -0.71739,0.51242 -0.71739,0.51242 0,0 -0.94797,-0.44837 -2.1009,0 -1.15293,0.44837 -2.4468,1.0505 -2.5108,1.7935 -0.52523,0.07686 -1.3835,0.75582 -1.5373,1.3323 -0.46118,-0.08967 -1.0633,0.29464 -2.0497,1.8959 -1.7678,0.78144 -1.8703,4.5605 -1.8703,4.5605 0,0 -0.47719,0.69496 -0.49961,1.0633 -0.02242,0.3683 0.16654,0.70458 0.39712,0.64053 0.02562,0.24339 0.34588,0.46117 0.4868,0.38431 0.05124,0.2434 0.40298,0.37952 0.6149,0.34588 0.01922,0.16654 0.70137,0.12491 0.75582,-0.0256 0.06008,-0.16611 -0.0675,-0.99692 0.0128,-1.0633 0.07366,-0.0609 0.64052,0.37151 0.79425,0.25621 0.15373,-0.11529 -0.02936,-0.48449 -0.11529,-0.62771 -0.07686,-0.12811 -0.56366,-0.26902 -0.67895,-0.87111 -0.11529,-0.60209 0.30745,-1.4348 0.30745,-1.4348 0,0 1.9216,-1.5116 2.1393,-2.8055 1.4476,0.14092 2.213,-1.1241 2.6261,-1.6013 z"
         id="path69"
         inkscape:connector-curvature="0" />
      <path
         d="m 95.679,88.37 c 0.43876,-1.0729 2.0241,-0.97359 2.0241,-0.97359 0,0 0.56686,-1.4924 2.703,-0.60209 0.80386,-0.62131 2.9208,0.26902 2.9208,0.26902 0,0 0.7927,-1.0562 1.8319,-0.93516 1.9248,0.22418 2.245,1.9888 2.1265,2.2931 -1.0537,0.26582 -2.879,-0.85629 -4.2659,-0.53804 -0.81026,0.45797 -2.1233,0.94157 -2.6133,1.6013 -1.2842,0.13451 -2.655,-1.1818 -4.7271,-1.1145 z"
         id="path71"
         inkscape:connector-curvature="0" />
      <path
         d="m 99.689,90.151 c 0.4804,-0.29464 1.6588,-0.81262 2.4596,-0.17935 0.83908,0.90314 2.1265,1.7422 2.1265,1.7422 l 1.4604,0.6149 0.66614,0.40994 -0.43556,6.6871 c -1.3518,-1.3831 -2.6186,-1.6253 -3.5869,-3.2539 -0.51883,-0.69817 -0.1217,-2.3763 -1.0248,-3.4844 -0.90314,-1.1081 -1.8639,-1.8575 -1.6654,-2.5365 z"
         id="path73"
         inkscape:connector-curvature="0" />
      <path
         d="m 103.2,92.082 c 0,0 0.76544,-0.14493 0.97831,0.03623 0.26722,0.09058 0.52538,0.16758 0.59785,0.39857 0.28987,0.08605 0.48915,0.23552 0.48915,0.45292 0.27175,0.07247 0.38045,0.56162 0.38045,0.56162 l -0.25363,0.38045 c 0,0 -0.28987,-0.27175 -0.3261,-0.56162 -0.1834,-0.09031 -0.5888,-0.1857 -0.68844,-0.45292 -0.31704,-0.0317 -0.52085,-0.19476 -0.57973,-0.47104 C 103.50346,92.49415 103.2,92.08199 103.2,92.08199 Z"
         id="path75"
         inkscape:connector-curvature="0" />
      <path
         d="m 109.68,87.717 c -0.43556,-0.4868 -1.2042,-0.1281 -1.2042,-0.1281 l -2.0497,3.5357 -0.89673,0.74301 -0.0769,2.7671 0.743,2.5877 -0.25621,1.9984 c 0,0 1.0322,-0.96837 1.153,-1.5116 0.11529,-0.51882 -0.38432,-2.2034 -0.38432,-2.2034 0,0 -0.6149,-1.0505 0.12811,-2.9976 0.743,-1.9472 2.434,-3.5613 2.8439,-4.7911 z"
         id="path77"
         inkscape:connector-curvature="0" />
      <path
         d="m 114.74,90.868 c 0,0 -3.2003,4.5733 -8.4398,6.2003 -1.4476,0.34588 -0.92236,-3.382 -0.92236,-3.382 l -0.35869,0.10248 c 0,0 -0.80706,3.651 1.1273,3.6894 5.2651,-1.0376 9.2156,-6.5806 9.2156,-6.5806 l -0.63,-0.028 z"
         id="path79"
         inkscape:connector-curvature="0" />
      <path
         d="m 116.91,117.16 c 0,0 -0.4868,0.3587 -1.1273,0 -0.33307,-0.76862 -1.2298,-0.81987 -1.2298,-0.81987 0,0 -0.57758,-1.6593 -1.486,-1.1786 -0.14091,-0.8583 -1.1273,-0.40993 -1.1273,-0.40993 0,0 -0.0256,-1.2426 -1.1786,-1.0761 0.38431,-1.422 -1.5885,-1.3323 -1.5885,-1.3323 0,0 -0.064,-1.6013 -2.972,-1.281 6.2643,-2.8055 11.222,4.4068 11.222,4.4068"
         id="path81"
         inkscape:connector-curvature="0" />
      <path
         d="m 119.88,117.77 c 0,0 1.4476,1.6269 2.2034,1.6397 0.75582,0.0128 0.81987,-1.5885 0.81987,-1.5885 0,0 0.2434,0.69176 0.6149,0.51242 -0.0384,0.48679 0.46118,0.6149 0.46118,0.6149 0,0 -1.3067,3.0361 -5.0217,0.15372"
         id="path83"
         inkscape:connector-curvature="0" />
      <path
         d="m 108.55,118.39 -0.51242,2.1009 c 0,0 -0.65333,0.58928 -0.46118,0.71739 0.19216,0.1281 1.2298,-0.20497 1.2298,-0.20497 0,0 1.6141,-0.19215 2.1009,-0.66614 0.33308,0.75582 1.0761,0.81987 1.0761,0.81987 0,0 0.0512,-0.32026 -0.0512,-0.51242 0.35869,0.0641 0.66615,-0.0512 0.66615,-0.0512 0,0 0.20496,-0.58929 -0.25621,-0.81987 0.0512,-0.43556 0.26901,-0.81987 -0.51242,-0.76863 -0.57647,0.6149 -1.9984,1.3195 -2.3571,1.0761 -0.35869,-0.2434 1.4092,-1.0248 0.92236,-2.0497"
         id="path85"
         inkscape:connector-curvature="0" />
    </g>
  </g>
</svg>
