<?xml version="1.0" encoding="UTF-8" ?>
<!DOCTYPE svg PUBLIC "-//W3C//DTD SVG 1.1//EN" "http://www.w3.org/Graphics/SVG/1.1/DTD/svg11.dtd">
<svg width="575pt" height="369pt" viewBox="0 0 575 369" version="1.1" xmlns="http://www.w3.org/2000/svg">
<g id="#003893ff">
<path fill="#003893" opacity="1.00" d=" M 416.00 8.34 C 417.69 6.76 419.35 5.15 421.05 3.59 C 424.99 5.71 423.25 10.40 425.57 13.57 C 426.70 15.91 425.39 18.51 424.93 20.87 C 424.35 23.22 421.76 24.03 419.95 25.23 C 419.52 24.90 418.66 24.23 418.23 23.90 C 418.75 21.17 420.14 18.80 421.99 16.76 C 421.30 13.39 417.20 11.70 416.00 8.34 Z" />
<path fill="#003893" opacity="1.00" d=" M 58.13 42.85 C 61.63 42.24 63.68 45.13 65.92 47.25 C 64.30 49.27 62.83 51.41 61.10 53.35 C 57.00 51.84 55.24 46.28 58.13 42.85 Z" />
<path fill="#003893" opacity="1.00" d=" M 200.00 49.15 C 203.18 47.22 206.74 45.02 210.61 46.19 C 214.69 49.68 219.05 53.99 219.22 59.72 C 218.64 60.11 217.50 60.87 216.93 61.25 C 213.34 59.49 211.97 55.42 210.52 51.97 C 207.78 51.58 205.22 52.57 203.17 54.36 C 202.77 56.42 204.39 58.33 204.93 60.27 C 202.94 60.19 201.38 59.10 200.00 57.76 C 199.99 54.89 199.98 52.02 200.00 49.15 Z" />
<path fill="#003893" opacity="1.00" d=" M 50.66 47.58 C 51.84 46.91 53.24 47.06 54.54 46.92 C 55.84 49.21 58.06 51.69 56.73 54.49 C 54.80 56.33 52.86 58.18 50.68 59.72 C 48.10 59.45 45.61 58.47 42.98 58.41 C 43.01 57.94 43.05 56.98 43.07 56.50 C 44.29 55.92 45.66 55.55 46.67 54.61 C 47.82 52.19 47.53 48.44 50.66 47.58 Z" />
<path fill="#003893" opacity="1.00" d=" M 31.20 54.99 C 32.76 55.00 34.33 54.99 35.89 54.95 C 37.60 57.55 37.90 60.68 38.96 63.53 C 40.16 64.92 41.61 66.06 42.98 67.26 C 42.26 68.52 41.54 69.79 40.82 71.04 C 39.24 71.00 37.66 70.95 36.08 70.89 C 36.07 69.77 35.50 69.01 34.37 68.60 C 31.59 66.63 29.13 64.11 27.76 60.95 C 28.65 58.83 29.69 56.76 31.20 54.99 Z" />
<path fill="#003893" opacity="1.00" d=" M 401.21 60.40 C 403.12 58.05 405.31 55.32 408.70 55.88 C 410.49 58.60 412.10 61.43 413.79 64.20 C 415.27 65.29 417.48 64.82 418.82 66.20 C 420.12 67.60 420.30 69.61 420.97 71.32 C 416.21 69.86 410.86 65.35 406.03 69.06 C 406.02 71.38 405.99 73.70 405.92 76.02 C 404.68 76.01 403.44 76.00 402.21 75.99 C 400.77 70.93 400.64 65.60 401.21 60.40 Z" />
<path fill="#003893" opacity="1.00" d=" M 291.17 59.19 C 293.66 59.04 296.18 58.74 298.66 59.17 C 300.95 60.22 301.03 62.78 301.23 64.95 C 303.39 64.98 305.57 64.88 307.72 65.18 C 309.49 66.12 308.89 68.24 309.13 69.87 C 306.56 70.91 303.96 71.85 301.47 73.09 C 300.82 71.41 300.59 69.04 298.66 68.30 C 296.10 67.45 293.41 67.00 290.91 65.95 C 290.98 63.69 291.04 61.44 291.17 59.19 Z" />
<path fill="#003893" opacity="1.00" d=" M 53.86 64.55 C 55.58 62.38 58.17 61.57 60.75 60.91 C 62.02 62.73 64.34 64.42 63.94 66.90 C 63.56 69.21 63.00 71.50 62.81 73.85 C 61.22 74.41 59.61 74.91 57.97 75.28 C 56.63 71.69 55.27 68.11 53.86 64.55 Z" />
<path fill="#003893" opacity="1.00" d=" M 425.01 65.67 C 426.98 68.39 429.34 71.21 429.47 74.73 C 427.47 78.25 427.48 82.90 424.04 85.46 C 422.90 84.11 420.61 83.18 420.95 81.09 C 421.95 78.51 424.15 76.52 424.90 73.84 C 425.14 71.12 424.95 68.39 425.01 65.67 Z" />
<path fill="#003893" opacity="1.00" d=" M 273.00 68.25 C 275.34 67.74 277.84 66.33 280.10 67.87 C 284.06 70.07 288.91 70.70 292.02 74.24 C 291.11 75.93 290.30 78.01 288.05 78.09 C 284.37 78.70 279.27 82.17 276.58 78.03 C 278.59 75.78 281.24 73.93 282.35 71.01 C 279.19 70.84 276.04 71.16 272.99 72.01 C 272.99 70.76 272.99 69.50 273.00 68.25 Z" />
<path fill="#003893" opacity="1.00" d=" M 252.83 71.00 C 253.83 67.88 257.66 69.29 260.09 69.00 C 259.86 70.69 260.52 72.91 258.66 73.88 C 257.54 73.99 256.41 74.06 255.29 74.08 C 254.45 73.07 253.57 72.09 252.83 71.00 Z" />
<path fill="#003893" opacity="1.00" d=" M 246.89 74.37 C 247.98 73.89 249.06 73.38 250.13 72.87 C 253.35 74.32 256.41 78.90 253.93 82.16 C 251.18 80.02 246.28 78.66 246.89 74.37 Z" />
<path fill="#003893" opacity="1.00" d=" M 258.85 76.99 C 260.94 75.79 263.35 75.93 265.67 76.00 C 266.16 77.07 266.68 78.12 267.22 79.17 C 265.94 80.73 264.54 82.37 262.32 82.15 C 261.23 80.38 260.09 78.65 258.85 76.99 Z" />
<path fill="#003893" opacity="1.00" d=" M 404.99 84.70 C 406.57 81.56 409.18 78.38 412.87 77.92 C 414.78 78.61 415.89 80.59 417.34 81.93 C 414.61 83.69 412.62 86.40 409.87 88.09 C 407.72 88.15 406.57 85.82 404.99 84.70 Z" />
<path fill="#003893" opacity="1.00" d=" M 425.23 92.91 C 428.66 92.60 433.68 93.91 434.11 97.87 C 432.38 100.16 430.23 102.33 430.28 105.43 C 428.11 103.63 425.94 101.78 424.18 99.57 C 423.42 97.29 424.45 95.02 425.23 92.91 Z" />
<path fill="#003893" opacity="1.00" d=" M 242.18 126.89 C 243.85 127.08 245.92 126.57 246.93 128.32 C 247.41 131.36 246.28 134.31 245.71 137.26 C 242.94 136.53 241.07 134.36 239.92 131.84 C 239.83 129.91 241.30 128.46 242.18 126.89 Z" />
<path fill="#003893" opacity="1.00" d=" M 287.57 163.97 C 289.80 160.50 294.50 162.10 297.61 163.35 C 300.16 165.26 302.20 167.74 304.39 170.04 L 303.64 170.45 C 300.70 172.08 297.69 173.60 294.58 174.88 L 293.73 175.24 C 294.49 174.08 295.31 172.97 296.13 171.87 C 292.88 169.70 290.23 166.80 287.57 163.97 Z" />
<path fill="#003893" opacity="1.00" d=" M 255.94 175.08 C 258.78 176.72 262.13 176.79 265.10 178.08 C 265.07 178.73 265.01 180.03 264.98 180.68 C 261.22 181.80 257.16 183.10 255.63 187.11 C 254.29 185.49 251.72 184.35 251.94 181.94 C 251.61 179.05 254.01 176.87 255.94 175.08 Z" />
<path fill="#003893" opacity="1.00" d=" M 227.09 185.67 C 226.28 181.68 227.65 177.16 231.90 175.91 C 233.64 176.66 235.40 177.34 237.14 178.10 C 236.71 180.15 236.21 182.18 235.90 184.26 C 238.14 184.01 239.89 182.41 242.03 181.96 C 244.14 181.58 245.09 183.89 246.45 185.03 C 244.81 187.39 242.28 188.38 239.46 188.29 C 239.26 188.97 238.84 190.32 238.64 190.99 C 237.47 191.01 236.31 191.03 235.16 191.06 C 234.58 189.80 234.06 188.53 233.56 187.24 C 231.32 187.12 229.13 186.61 227.09 185.67 Z" />
<path fill="#003893" opacity="1.00" d=" M 488.96 197.22 C 491.45 196.03 494.19 195.77 496.92 195.95 C 497.36 198.45 497.07 200.99 497.26 203.50 C 498.16 204.76 499.24 205.89 500.26 207.07 C 499.75 208.38 499.22 209.69 498.72 211.01 C 497.56 211.00 496.41 211.00 495.26 211.00 C 492.36 206.84 487.88 202.79 488.96 197.22 Z" />
<path fill="#003893" opacity="1.00" d=" M 377.20 246.21 C 379.36 246.00 381.47 244.95 383.65 245.15 C 384.96 246.25 386.06 247.57 387.19 248.87 C 385.88 250.73 385.32 253.15 383.60 254.68 C 381.97 255.19 380.20 255.16 378.55 254.83 C 377.68 253.47 376.75 252.14 376.07 250.69 C 375.62 249.09 376.73 247.66 377.20 246.21 Z" />
<path fill="#003893" opacity="1.00" d=" M 369.37 255.05 C 371.11 255.02 372.87 254.84 374.60 255.15 C 376.18 256.31 377.45 257.85 378.33 259.60 C 376.62 260.13 373.95 259.71 373.74 262.11 C 376.15 261.71 378.54 261.14 380.97 260.84 C 380.98 262.85 381.00 264.85 381.03 266.86 C 378.45 268.88 375.25 269.32 372.07 269.05 C 372.01 266.78 371.98 264.52 371.96 262.27 C 369.85 261.76 367.77 261.16 365.69 260.60 C 366.85 258.71 368.17 256.92 369.37 255.05 Z" />
<path fill="#003893" opacity="1.00" d=" M 516.76 267.24 C 519.13 266.11 521.49 264.96 523.84 263.78 C 526.56 266.40 530.16 267.71 533.83 266.36 C 533.92 267.91 533.99 269.46 534.06 271.02 C 528.65 271.46 523.23 268.66 517.97 271.02 C 517.40 269.81 517.03 268.54 516.76 267.24 Z" />
<path fill="#003893" opacity="1.00" d=" M 503.97 269.86 C 504.11 267.57 506.44 266.78 508.06 265.70 C 509.27 266.82 510.48 267.95 511.69 269.09 C 511.27 270.74 511.01 272.43 510.80 274.13 C 508.21 273.31 504.97 272.82 503.97 269.86 Z" />
<path fill="#003893" opacity="1.00" d=" M 543.18 270.27 C 544.43 267.85 547.21 269.39 549.06 270.09 C 549.74 274.33 548.00 278.28 544.71 280.96 C 539.52 281.31 534.09 280.14 529.13 282.12 C 525.57 283.54 521.68 282.86 517.96 282.98 C 511.48 282.68 505.59 286.68 499.08 285.99 C 496.65 285.67 494.40 284.59 492.10 283.82 C 492.89 281.04 492.90 278.14 493.21 275.28 C 494.82 273.69 497.29 272.35 499.59 273.18 C 501.24 274.36 502.75 275.82 503.36 277.81 C 501.88 278.40 500.38 278.94 498.87 279.44 C 499.22 279.81 499.93 280.57 500.28 280.95 C 503.16 280.90 506.37 281.68 508.85 279.80 C 511.93 277.67 515.49 280.35 518.80 279.93 C 521.57 279.31 524.02 277.83 526.46 276.43 C 531.82 274.45 536.91 277.56 541.87 279.25 C 543.65 276.56 542.69 273.26 543.18 270.27 Z" />
<path fill="#003893" opacity="1.00" d=" M 547.80 325.88 C 549.78 323.37 550.86 320.03 554.02 318.68 C 554.97 319.54 555.92 320.40 556.88 321.27 C 556.97 323.57 556.74 326.04 558.10 328.06 C 558.80 328.06 560.20 328.04 560.90 328.04 C 561.78 326.06 562.55 324.03 563.31 322.01 C 564.53 322.00 565.76 321.99 566.99 321.98 C 566.91 324.62 567.57 327.57 565.81 329.82 C 563.87 332.50 563.08 337.14 558.98 337.06 C 553.61 337.42 551.07 332.00 546.91 329.67 C 547.02 328.38 546.81 326.91 547.80 325.88 Z" />
<path fill="#003893" opacity="1.00" d=" M 541.23 327.23 C 541.82 327.82 541.82 327.82 541.23 327.23 Z" />
<path fill="#003893" opacity="1.00" d=" M 416.24 330.96 C 417.37 330.98 418.49 331.01 419.62 331.04 C 420.39 331.81 421.18 332.58 421.97 333.35 C 421.99 335.15 422.00 336.95 422.02 338.76 C 420.09 339.21 418.18 339.73 416.25 340.18 C 414.71 337.24 414.58 333.88 416.24 330.96 Z" />
<path fill="#003893" opacity="1.00" d=" M 422.55 340.60 C 425.27 338.62 427.85 334.99 431.69 336.11 C 434.32 337.45 432.07 340.33 430.74 341.76 C 427.89 342.82 425.04 343.81 422.58 345.64 C 419.36 345.86 416.30 346.63 413.73 348.66 C 411.39 347.23 408.48 346.07 407.64 343.19 C 412.74 343.24 417.70 342.03 422.55 340.60 Z" />
<path fill="#003893" opacity="1.00" d=" M 398.77 340.76 C 400.25 339.62 402.06 339.00 403.73 338.17 C 404.83 338.86 405.95 339.54 407.07 340.23 C 407.85 343.73 405.56 346.09 403.42 348.45 C 402.65 351.26 401.90 354.08 400.81 356.79 C 399.20 357.19 397.62 357.75 395.98 358.01 C 394.11 357.73 392.49 356.66 390.84 355.84 C 390.82 353.22 391.55 350.42 393.89 348.92 C 396.95 347.21 396.83 343.30 398.77 340.76 Z" />
<path fill="#003893" opacity="1.00" d=" M 364.56 348.05 C 366.14 348.69 367.70 349.37 369.24 350.12 C 368.43 352.03 366.66 353.74 366.99 355.98 C 367.10 357.65 367.64 359.27 367.84 360.94 C 367.38 362.83 365.45 364.69 363.35 363.93 C 360.58 362.10 360.91 358.59 360.18 355.75 C 359.31 352.41 362.68 350.25 364.56 348.05 Z" />
</g>
<g id="#fefefeff">
<path fill="#fefefe" opacity="1.00" d=" M 52.37 66.07 C 52.74 65.69 53.49 64.93 53.86 64.55 C 55.27 68.11 56.63 71.69 57.97 75.28 C 56.48 74.96 55.03 74.53 53.60 74.00 C 53.12 71.37 52.59 68.74 52.37 66.07 Z" />
<path fill="#fefefe" opacity="1.00" d=" M 25.96 133.31 C 27.55 131.45 29.79 130.75 32.08 130.17 C 32.97 132.60 33.58 135.11 34.16 137.63 C 35.13 138.13 36.09 138.66 37.04 139.22 C 37.02 140.38 37.01 141.54 37.01 142.70 C 35.61 143.99 34.05 145.06 32.37 145.95 C 29.27 144.52 28.74 140.80 26.76 138.31 C 25.54 136.91 26.09 134.99 25.96 133.31 Z" />
<path fill="#fefefe" opacity="1.00" d=" M 343.03 236.99 C 346.13 236.99 349.23 237.06 352.33 237.13 C 349.38 237.95 346.48 238.89 343.58 239.84 L 342.93 240.06 C 342.95 239.29 343.00 237.76 343.03 236.99 Z" />
</g>
<g id="#003793ff">
<path fill="#003793" opacity="1.00" d=" M 51.34 68.37 C 51.65 67.59 52.00 66.82 52.37 66.07 C 52.59 68.74 53.12 71.37 53.60 74.00 C 52.79 72.17 50.23 70.53 51.34 68.37 Z" />
<path fill="#003793" opacity="1.00" d=" M 352.33 237.13 C 353.43 236.90 354.54 236.88 355.66 237.07 C 357.41 238.05 356.91 240.13 357.10 241.79 C 352.49 241.79 346.68 244.96 343.58 239.84 C 346.48 238.89 349.38 237.95 352.33 237.13 Z" />
</g>
<g id="#7d9ac8ff">
<path fill="#7d9ac8" opacity="1.00" d=" M 34.37 68.60 C 35.50 69.01 36.07 69.77 36.08 70.89 C 34.45 70.93 33.88 70.16 34.37 68.60 Z" />
</g>
<g id="#dd7500ff">
<path fill="#dd7500" opacity="1.00" d=" M 480.23 93.98 C 482.70 93.85 485.78 93.57 486.36 96.69 C 485.20 97.30 484.04 97.91 482.87 98.51 C 484.42 99.80 487.24 100.44 487.18 102.87 C 484.98 104.81 482.80 106.77 480.57 108.67 C 478.71 109.07 476.78 109.22 475.03 110.03 C 472.03 111.57 468.58 110.92 465.35 110.96 C 464.58 110.17 463.81 109.39 463.04 108.62 C 463.00 107.47 462.97 106.32 462.94 105.17 C 465.85 103.34 469.15 102.04 472.62 101.86 C 473.64 102.93 473.97 105.50 475.93 105.06 C 477.58 104.49 478.62 102.86 479.86 101.68 C 479.70 100.15 478.85 98.78 478.72 97.25 C 479.16 96.13 479.72 95.07 480.23 93.98 Z" />
<path fill="#dd7500" opacity="1.00" d=" M 429.97 110.14 C 431.99 108.81 434.20 107.73 436.69 107.88 C 437.13 108.93 437.57 109.99 438.00 111.06 C 437.44 112.74 435.63 113.54 434.27 114.49 C 434.03 115.63 433.79 116.78 433.55 117.93 C 432.24 118.00 430.84 118.10 430.15 116.73 C 429.86 114.55 430.00 112.34 429.97 110.14 Z" />
<path fill="#dd7500" opacity="1.00" d=" M 419.37 119.81 C 422.35 120.00 424.69 121.93 426.60 124.06 C 425.11 127.01 429.21 131.78 424.94 133.11 C 421.53 131.75 418.97 128.77 416.83 125.91 C 417.41 123.78 418.54 121.85 419.37 119.81 Z" />
<path fill="#dd7500" opacity="1.00" d=" M 389.39 127.39 C 391.97 127.77 394.15 129.48 395.16 131.87 C 399.67 136.96 407.00 138.34 411.54 143.45 C 413.72 146.70 417.99 147.46 420.25 150.72 C 413.78 154.37 408.18 147.78 402.58 145.44 C 398.67 144.72 397.54 140.51 394.75 138.24 C 392.14 135.18 387.66 131.92 389.39 127.39 Z" />
<path fill="#dd7500" opacity="1.00" d=" M 443.32 147.02 C 445.22 147.01 447.12 147.01 449.03 147.01 C 449.02 147.68 448.98 149.03 448.97 149.71 C 445.90 151.33 443.79 154.27 440.66 155.74 C 438.73 156.25 436.70 155.94 434.74 156.00 C 434.62 153.52 437.74 154.41 438.59 152.55 C 439.98 150.56 441.65 148.78 443.32 147.02 Z" />
<path fill="#dd7500" opacity="1.00" d=" M 308.36 171.02 C 309.45 171.00 310.53 171.00 311.63 170.99 C 312.12 172.06 312.64 173.13 313.17 174.19 C 311.84 177.08 307.50 179.93 305.08 176.68 C 304.19 174.11 307.04 172.72 308.36 171.02 Z" />
<path fill="#dd7500" opacity="1.00" d=" M 303.08 180.33 C 304.94 177.66 308.61 179.32 311.04 180.23 C 310.71 182.45 311.93 185.45 309.68 186.89 C 307.87 187.09 306.05 187.02 304.23 187.04 C 303.34 184.92 302.55 182.65 303.08 180.33 Z" />
</g>
<g id="#ffffffff">
<path fill="#ffffff" opacity="1.00" d=" M 484.40 169.02 C 487.80 168.99 491.21 168.99 494.61 169.01 C 495.69 170.19 496.83 171.33 498.01 172.41 C 498.10 173.80 498.12 175.19 498.11 176.58 C 501.29 178.77 501.83 182.87 499.70 186.01 C 499.06 186.02 497.77 186.02 497.13 186.02 C 494.72 182.27 495.65 177.50 492.85 173.98 C 489.89 174.25 486.61 173.24 483.96 174.96 C 481.68 176.07 480.62 179.10 477.86 179.25 C 477.61 174.68 481.57 171.92 484.40 169.02 Z" />
<path fill="#ffffff" opacity="1.00" d=" M 342.21 227.20 C 344.53 225.88 347.15 225.87 349.74 225.96 C 350.13 227.88 350.75 229.73 351.21 231.63 C 347.87 234.01 343.97 232.66 340.76 230.82 C 341.23 229.61 341.75 228.41 342.21 227.20 Z" />
</g>
<g id="#de7500ff">
<path fill="#de7500" opacity="1.00" d=" M 294.58 174.88 C 297.69 173.60 300.70 172.08 303.64 170.45 L 304.02 171.55 C 303.25 171.74 301.72 172.10 300.95 172.28 C 301.34 174.18 301.47 176.11 300.93 178.00 C 299.32 178.00 297.72 178.01 296.13 178.04 C 295.59 177.00 295.08 175.94 294.58 174.88 Z" />
</g>
</svg>
