<?xml version="1.0" encoding="UTF-8" ?>
<!DOCTYPE svg PUBLIC "-//W3C//DTD SVG 1.1//EN" "http://www.w3.org/Graphics/SVG/1.1/DTD/svg11.dtd">
<svg width="504pt" height="550pt" viewBox="0 0 504 550" version="1.1" xmlns="http://www.w3.org/2000/svg">
<g id="#f4b413ff">
<path fill="#f4b413" opacity="1.00" d=" M 300.06 10.32 C 302.01 9.25 303.87 7.89 306.07 7.39 C 309.31 7.41 312.31 8.79 315.36 9.70 C 318.72 10.69 322.50 9.61 325.66 11.36 C 329.66 13.13 332.53 16.74 334.23 20.68 C 335.74 25.03 340.85 26.30 344.86 27.04 C 348.21 25.52 351.80 24.80 355.50 25.26 C 356.96 27.24 358.23 29.47 360.16 31.05 C 364.85 31.80 369.73 31.32 374.34 32.72 C 377.48 33.95 378.16 37.42 379.52 40.13 C 379.17 40.65 378.83 41.17 378.48 41.70 C 378.73 41.96 379.23 42.49 379.47 42.75 C 376.22 48.89 377.34 56.59 380.23 62.67 C 381.21 67.53 380.04 72.80 378.08 77.30 C 379.67 78.96 381.37 80.54 382.69 82.43 C 383.30 84.42 382.11 86.30 381.36 88.06 C 382.35 88.21 383.35 88.35 384.35 88.50 C 385.60 91.54 386.84 94.61 388.48 97.47 C 390.30 99.65 392.87 101.07 394.60 103.33 C 396.12 105.21 397.27 107.36 398.95 109.11 C 400.88 110.08 403.08 110.24 405.18 110.69 C 404.48 112.23 403.75 113.75 403.00 115.26 C 403.83 117.35 404.63 119.45 405.35 121.58 C 407.85 122.13 410.07 123.40 412.01 125.06 C 415.62 128.21 420.69 126.95 425.05 127.23 C 428.31 126.88 430.46 129.77 433.33 130.73 C 435.49 131.31 437.82 131.26 439.91 132.15 C 441.72 133.33 442.76 135.35 443.96 137.10 C 436.65 136.69 429.32 136.73 422.00 136.77 C 373.00 136.78 324.00 136.77 275.00 136.77 C 248.29 136.92 221.58 136.47 194.87 137.02 C 198.91 131.50 206.24 130.84 212.53 131.00 C 207.95 126.49 206.88 119.90 202.88 115.01 C 205.34 113.14 207.79 111.26 210.21 109.34 C 209.47 109.12 208.00 108.68 207.26 108.46 C 207.81 103.81 205.40 97.90 209.33 94.33 C 211.61 91.92 213.25 89.02 214.87 86.14 C 214.15 84.64 213.45 83.12 212.80 81.57 C 214.21 81.33 215.62 81.09 217.03 80.85 C 217.39 77.87 216.49 74.22 218.92 71.92 C 220.68 69.68 224.02 70.57 226.40 69.45 C 229.86 67.64 233.34 65.79 236.51 63.51 C 239.81 59.81 240.26 54.62 242.23 50.25 C 243.18 49.47 244.32 48.96 245.40 48.37 C 246.99 44.50 252.41 41.97 251.05 37.29 C 249.95 34.46 247.73 32.26 246.31 29.60 C 245.77 27.63 246.60 25.65 247.02 23.74 C 250.24 24.28 253.11 25.87 256.13 27.01 C 260.48 27.58 264.90 27.07 269.28 27.32 C 268.57 30.67 265.46 33.00 265.64 36.60 C 269.24 37.73 272.79 39.26 276.64 39.29 C 275.36 36.69 273.21 34.73 271.01 32.92 C 273.72 28.96 275.28 24.41 277.11 20.02 C 279.55 19.04 282.25 19.20 284.83 18.93 C 285.16 16.97 285.50 15.01 285.89 13.06 C 289.12 11.73 291.96 9.66 295.11 8.17 C 296.94 8.33 298.44 9.57 300.06 10.32 Z" />
<path fill="#f4b413" opacity="1.00" d=" M 72.51 283.57 C 74.11 279.74 77.22 274.84 81.97 275.42 C 200.31 275.27 318.66 275.40 437.00 275.36 C 455.49 275.56 474.01 274.95 492.49 275.67 C 491.06 276.70 489.59 277.67 488.11 278.62 C 488.07 279.59 488.03 280.57 488.00 281.55 C 489.34 282.16 490.69 282.77 492.05 283.38 C 492.03 285.15 492.10 286.93 491.90 288.70 C 490.72 290.54 488.89 291.86 487.79 293.75 C 487.11 295.54 487.01 297.50 486.39 299.31 C 485.35 300.70 484.09 301.90 483.02 303.27 C 483.61 305.86 485.52 308.14 485.11 310.94 C 485.15 313.57 482.54 315.05 481.28 317.10 C 478.05 316.72 474.95 315.77 471.91 314.68 C 469.59 315.31 467.62 316.86 465.63 318.17 C 468.10 319.15 470.52 320.25 472.96 321.31 C 473.06 326.84 473.03 332.37 472.99 337.90 C 469.72 338.67 466.37 339.11 463.01 339.19 C 463.00 343.06 463.01 346.93 463.04 350.80 C 466.52 352.69 470.77 353.72 473.09 357.21 C 473.52 359.20 471.86 360.57 470.53 361.72 C 466.77 362.33 462.93 361.95 459.13 362.03 C 458.38 365.30 457.94 368.63 457.85 371.99 C 454.37 372.71 450.85 373.29 447.55 374.66 C 445.49 375.66 443.78 373.51 441.91 372.95 C 438.57 375.89 438.01 380.74 434.83 383.81 C 431.97 386.49 430.24 390.08 428.47 393.51 C 426.18 394.01 423.96 394.76 421.92 395.91 C 419.28 397.44 415.93 396.65 413.35 398.32 C 411.05 399.28 408.97 401.53 406.30 400.97 C 405.14 400.30 404.11 399.48 403.03 398.73 C 403.00 395.92 403.16 393.10 402.75 390.33 C 401.57 388.33 398.96 389.24 397.06 388.88 C 396.80 395.15 397.36 401.45 396.82 407.70 C 395.99 409.45 395.13 412.09 392.84 412.19 C 369.23 412.62 345.61 412.24 322.00 412.37 C 236.56 412.32 151.13 412.45 65.69 412.30 C 66.61 411.29 67.53 410.29 68.43 409.27 C 70.11 409.05 71.78 408.82 73.46 408.58 C 72.23 406.22 70.61 404.00 68.40 402.49 C 64.65 401.83 60.84 401.61 57.10 400.86 C 56.10 395.60 55.77 389.47 59.22 385.01 C 62.15 385.01 65.08 384.98 68.01 384.91 C 67.99 383.42 67.97 381.95 67.96 380.47 C 60.50 380.34 55.91 370.61 61.12 365.00 C 60.25 363.37 58.88 361.85 58.90 359.91 C 58.71 356.71 60.96 354.10 62.47 351.49 C 65.75 346.10 72.56 344.67 78.44 344.67 C 75.09 339.78 69.56 337.51 64.20 335.58 C 64.03 333.28 64.06 330.91 63.25 328.73 C 61.46 324.30 61.86 319.24 59.47 315.02 C 62.39 310.69 60.03 305.24 61.43 300.55 C 65.24 294.97 70.09 290.01 72.51 283.57 Z" />
</g>
<g id="#012a87ff">
<path fill="#012a87" opacity="1.00" d=" M 194.87 137.02 C 221.58 136.47 248.29 136.92 275.00 136.77 C 324.00 136.77 373.00 136.78 422.00 136.77 C 429.32 136.73 436.65 136.69 443.96 137.10 C 446.66 142.55 449.62 147.88 453.23 152.78 C 451.42 154.74 448.74 156.37 448.37 159.24 C 447.93 162.24 447.14 165.17 445.74 167.87 C 442.82 167.94 439.91 168.02 436.99 168.12 C 436.99 168.80 437.00 170.16 437.00 170.85 C 438.99 170.95 440.98 171.04 442.98 171.15 C 443.03 174.71 443.03 178.27 442.98 181.84 C 440.87 181.95 438.76 182.06 436.66 182.22 C 438.02 182.65 439.39 183.05 440.78 183.44 C 440.89 184.85 441.00 186.27 441.12 187.69 C 442.99 187.58 444.86 187.49 446.73 187.48 C 446.40 185.61 446.12 183.73 445.86 181.85 C 448.39 182.12 451.23 181.95 453.39 183.55 C 455.64 185.32 457.43 187.60 459.67 189.39 C 461.66 190.16 463.87 190.02 465.97 190.26 C 465.98 193.45 465.78 196.65 466.21 199.82 C 466.84 202.76 468.69 205.27 469.51 208.16 C 468.84 210.59 468.01 212.99 467.82 215.52 C 469.29 216.18 470.76 216.86 472.23 217.56 C 473.18 219.97 475.28 221.43 477.50 222.58 C 477.82 223.55 478.16 224.53 478.50 225.50 C 480.59 226.67 482.95 227.60 484.50 229.51 C 484.95 231.48 485.04 233.51 485.49 235.48 C 487.19 237.47 490.04 238.17 491.50 240.39 C 493.81 244.90 499.47 247.37 499.65 252.96 C 498.99 255.63 498.04 258.23 497.56 260.95 C 492.14 261.18 485.76 259.67 481.69 264.24 C 482.39 264.58 483.78 265.25 484.48 265.59 C 484.92 267.06 485.13 268.66 485.97 270.00 C 487.94 271.79 490.39 272.91 492.60 274.39 C 374.40 274.29 256.20 274.38 138.00 274.35 C 117.84 274.46 97.68 274.12 77.53 274.52 C 78.43 271.97 79.37 269.43 80.49 266.98 C 79.59 265.32 78.64 263.68 78.08 261.88 C 79.35 257.36 82.32 253.56 84.19 249.29 C 85.29 246.59 84.87 243.27 87.02 241.06 C 88.90 238.89 90.44 236.47 91.65 233.87 C 94.31 234.80 96.98 235.72 99.74 236.32 C 100.87 230.11 100.13 223.85 100.06 217.60 C 103.86 216.60 106.40 213.65 108.71 210.67 C 110.76 207.96 114.21 207.38 117.16 206.16 C 121.37 202.01 125.15 197.41 129.60 193.51 C 133.10 192.50 136.89 193.44 140.40 192.34 C 145.89 190.55 151.41 188.82 156.79 186.68 C 159.88 185.46 163.32 184.20 166.65 185.23 C 168.84 186.71 170.67 188.63 172.65 190.37 C 172.89 188.10 172.86 185.77 173.50 183.56 C 176.56 180.21 179.64 176.82 181.75 172.75 C 184.72 175.43 186.53 179.03 188.75 182.29 C 190.23 181.18 191.78 180.14 193.11 178.84 C 192.61 175.43 188.31 175.40 185.87 173.98 C 184.48 171.96 185.31 169.35 186.27 167.34 C 188.60 164.30 192.84 162.16 193.11 157.96 C 193.56 154.28 189.86 151.13 191.41 147.47 C 192.46 143.96 193.39 140.39 194.87 137.02 Z" />
</g>
<g id="#169253ff">
<path fill="#169253" opacity="1.00" d=" M 77.53 274.52 C 97.68 274.12 117.84 274.46 138.00 274.35 C 256.20 274.38 374.40 274.29 492.60 274.39 C 491.08 274.78 489.57 275.26 488.01 275.30 C 355.34 275.20 222.67 275.29 90.00 275.26 C 85.85 275.13 81.57 275.80 77.53 274.52 Z" />
<path fill="#169253" opacity="1.00" d=" M 65.69 412.30 C 151.13 412.45 236.56 412.32 322.00 412.37 C 345.61 412.24 369.23 412.62 392.84 412.19 C 392.94 414.43 393.03 416.67 393.11 418.92 C 395.99 418.97 398.87 419.02 401.75 419.09 C 403.75 424.54 405.71 430.11 405.13 436.03 C 407.30 435.76 409.48 435.21 411.70 435.35 C 414.93 435.94 414.62 439.91 415.50 442.36 C 416.71 442.87 417.96 443.32 419.11 443.98 C 420.56 447.41 420.16 451.29 419.94 454.92 C 419.88 456.78 418.13 457.81 417.09 459.13 C 415.38 460.75 414.44 462.94 413.49 465.05 C 408.42 465.32 403.90 462.59 398.92 462.08 C 399.77 463.97 400.61 465.85 401.54 467.71 C 397.93 470.03 394.89 473.03 392.23 476.38 C 390.11 477.27 387.70 476.99 385.46 477.24 C 384.81 483.81 379.28 488.98 372.77 489.58 C 373.50 490.87 374.26 492.15 375.02 493.43 C 369.89 497.33 363.98 500.20 357.72 501.74 C 354.39 502.22 352.53 505.26 349.77 506.83 C 346.91 508.80 343.33 508.88 340.00 509.09 C 335.97 509.16 332.63 511.69 328.94 512.94 C 324.62 514.59 319.68 513.22 315.56 515.52 C 310.83 517.97 305.55 518.87 300.55 520.59 C 298.75 521.55 297.16 519.93 295.65 519.18 C 292.12 522.80 288.97 527.04 284.37 529.40 C 279.63 531.49 274.33 530.61 269.34 531.26 C 267.67 532.28 266.31 533.71 264.66 534.77 C 258.53 535.80 251.75 533.40 246.21 537.10 C 240.27 538.70 234.27 540.19 228.57 542.58 C 224.49 544.41 220.80 541.43 217.54 539.36 C 213.95 536.12 209.62 542.50 205.74 539.37 C 202.81 536.58 199.03 534.89 194.94 535.05 C 186.76 535.43 177.89 537.94 170.21 533.91 C 166.12 532.19 163.27 528.42 159.01 527.04 C 156.72 526.03 153.97 525.77 152.20 523.83 C 150.22 521.63 147.71 520.03 145.08 518.72 C 141.94 522.04 139.06 526.15 134.36 527.30 C 128.58 528.40 122.95 530.89 116.95 530.07 C 112.12 530.17 109.20 525.83 105.60 523.36 C 102.69 522.63 99.12 523.61 96.87 521.17 C 93.29 517.47 88.13 516.46 83.61 514.41 C 78.70 512.35 74.18 509.50 69.30 507.38 C 69.21 506.40 69.13 505.42 69.05 504.45 C 63.69 507.77 57.00 505.73 51.86 503.00 C 50.91 501.16 51.56 499.05 51.67 497.11 C 49.33 496.02 46.48 495.30 45.13 492.89 C 42.46 488.06 39.95 482.78 35.64 479.24 C 30.92 478.72 26.09 478.70 21.38 479.26 C 19.29 480.49 18.42 483.13 16.59 484.74 C 12.97 485.65 9.20 484.87 5.68 483.89 C 6.10 481.19 6.98 478.60 8.08 476.10 C 10.85 469.77 12.38 462.93 15.83 456.90 C 17.51 453.83 18.05 449.94 21.09 447.79 C 23.35 448.80 24.91 450.82 26.69 452.47 C 25.29 453.86 23.91 455.27 22.56 456.72 C 28.78 457.25 35.41 456.94 41.07 460.03 C 44.62 455.90 49.81 453.07 51.90 447.84 C 52.50 446.01 54.66 445.89 56.14 445.14 C 60.36 436.69 64.78 428.19 67.10 418.98 C 68.00 416.65 66.28 414.48 65.69 412.30 Z" />
</g>
</svg>
