<?xml version="1.0" encoding="UTF-8" standalone="no"?>
<svg
   xmlns:dc="http://purl.org/dc/elements/1.1/"
   xmlns:cc="http://creativecommons.org/ns#"
   xmlns:rdf="http://www.w3.org/1999/02/22-rdf-syntax-ns#"
   xmlns:svg="http://www.w3.org/2000/svg"
   xmlns="http://www.w3.org/2000/svg"
   xmlns:sodipodi="http://sodipodi.sourceforge.net/DTD/sodipodi-0.dtd"
   xmlns:inkscape="http://www.inkscape.org/namespaces/inkscape"
   height="1000.0015"
   width="908.25116"
   version="1.1"
   viewBox="-72 -28 145.32019 160.00024"
   id="svg2"
   inkscape:version="0.91 r13725"
   sodipodi:docname="Flag_of_Mauritania.svg">
  <metadata
     id="metadata16">
    <rdf:RDF>
      <cc:Work
         rdf:about="">
        <dc:format>image/svg+xml</dc:format>
        <dc:type
           rdf:resource="http://purl.org/dc/dcmitype/StillImage" />
        <dc:title></dc:title>
      </cc:Work>
    </rdf:RDF>
  </metadata>
  <defs
     id="defs14" />
  <sodipodi:namedview
     pagecolor="#ffffff"
     bordercolor="#666666"
     borderopacity="1"
     objecttolerance="10"
     gridtolerance="10"
     guidetolerance="10"
     inkscape:pageopacity="0"
     inkscape:pageshadow="2"
     inkscape:window-width="1600"
     inkscape:window-height="837"
     id="namedview12"
     showgrid="false"
     fit-margin-top="0"
     fit-margin-left="0"
     fit-margin-right="0"
     fit-margin-bottom="0"
     inkscape:zoom="0.28931894"
     inkscape:cx="795.27163"
     inkscape:cy="637.2905"
     inkscape:window-x="-8"
     inkscape:window-y="-8"
     inkscape:window-maximized="1"
     inkscape:current-layer="svg2" />
  <g
     id="g4162"
     transform="matrix(0.76923044,0,0,0.76923044,-20.430736,11.999978)">
    <path
       transform="matrix(0.16,0,0,0.16,-72,-28)"
       id="path4"
       d="m 840.75977,-150 c 1.40514,22.78512 -0.93915,45.77667 0.14453,68.589844 0.065,21.935787 0.0246,43.871484 -0.17188,65.80664 -16.23274,0.05063 -32.46517,0.109 -48.69726,-0.08594 -16.92857,-0.208313 -33.86194,0.03305 -50.78711,-0.0332 -34.88196,0.2345 -69.76632,-0.294203 -104.64844,-0.0332 -39.04046,0.12775 -78.08267,0.05031 -117.12305,0.03906 -0.37294,37.485188 0.25027,74.980209 -0.19336,112.466797 -0.082,18.417209 0.0284,36.833259 0.16602,55.249999 l 531.68168,0 c -1.1184,-10.4408 -2.1981,-20.8859 -3.375,-31.32031 -1.3929,-11.03617 -2.3084,-22.124617 -3.4727,-33.185548 40.3421,-3.19e-4 80.6833,-7.07e-4 121.0254,0 8.6215,-0.05062 17.2439,0.04305 25.8652,-0.0332 1.7766,-0.22825 3.5333,0.213671 5.2813,0.466796 4.9823,0.214875 9.9701,-0.130656 14.9551,-0.08203 l 0.3164,0.01367 C 1172.9891,61.048087 1133.8663,34.791178 1094.3926,9.0761719 1068.0386,-7.9677156 1041.9114,-25.357325 1015.5918,-42.453125 989.62461,-58.65545 963.81412,-75.112544 937.69141,-91.066406 905.22664,-110.45654 873.10892,-130.41908 840.75977,-150 Z M 128.34375,848 c -0.10421,0.46856 -0.18924,0.9399 -0.26758,1.41602 -0.13406,1.18706 -0.6647,2.2792 -0.75976,3.4707 -0.28913,1.18456 -0.96338,2.27201 -1.06641,3.50976 -0.34688,1.48882 -0.54822,3.00263 -0.80078,4.50782 -0.23819,1.12275 -0.59919,2.21434 -0.88867,3.32422 -0.4525,1.04487 -0.72625,2.14581 -1.09375,3.21875 -0.79869,1.93837 -0.98957,4.05007 -1.54883,6.05664 -0.16419,0.7865 -0.42241,1.53945 -0.57422,2.33007 -0.22831,1.0225 -0.55559,2.02286 -1.14453,2.89649 -0.55813,0.83344 -0.9561,1.74548 -1.29688,2.68555 -0.29587,1.19968 -0.60586,2.40479 -0.99218,3.58398 -0.13169,0.88912 -0.67657,1.66344 -0.75782,2.5625 -0.54775,1.29306 -1.22284,2.52778 -1.64843,3.87109 -0.54013,1.01525 -0.80304,2.11813 -1.25,3.17188 -0.32419,1.15594 -0.90023,2.1825 -1.61133,3.13281 -0.65244,1.02094 -0.92014,2.22602 -1.35352,3.3457 -0.34294,1.28288 -0.83524,2.52672 -1.26562,3.78516 -0.46394,1.18419 -0.89905,2.38213 -1.47656,3.51563 -0.49563,0.95581 -1.06514,1.88125 -1.70313,2.75 -0.44212,0.83918 -1.16226,1.44859 -1.56445,2.30859 -0.59957,0.97625 -1.42117,1.78808 -2.00782,2.76758 -1.3117,1.62644 -1.92222,3.64775 -2.44921,5.63281 -0.50294,1.21131 -0.63059,2.53586 -1.169926,3.73242 -0.253563,1.13481 -0.7808,2.18788 -1.054688,3.3125 -0.358312,1.07438 -0.613981,2.17766 -1.050781,3.23047 -0.507813,1.35969 -1.410897,2.52305 -2.083984,3.80274 -0.923094,1.59412 -1.415985,3.39162 -1.75586,5.1875 -0.334,0.84281 -0.580343,1.71359 -0.828125,2.58203 -0.393937,0.91106 -0.815625,1.80686 -1.347656,2.64648 -0.375438,0.84238 -0.828616,1.65975 -0.986328,2.58594 -0.388313,1.20319 -0.713825,2.41987 -1.195313,3.59375 -0.334,1.02294 -0.684593,2.08133 -0.699218,3.16601 0.01687,1.288 -0.03437,2.59272 0.04687,3.88672 -0.03375,1.48713 0.290218,2.96449 0.07422,4.45117 -0.01687,1.11782 -0.27164,2.20288 -0.36914,3.3125 -0.207875,0.76944 -0.397172,1.53661 -0.560547,2.31836 -0.465625,1.20894 -0.960544,2.412 -1.273438,3.67188 -0.337125,0.93381 -0.156562,1.96048 -0.554687,2.88867 -0.4015,1.24881 -0.88665,2.46745 -1.445313,3.65039 -0.526437,1.62144 -1.130715,3.22031 -1.912109,4.73438 -0.268125,0.96637 -0.760006,1.92881 -0.460938,2.94531 0.394001,1.23869 0.219172,2.55217 0.201172,3.82617 0.0475,2.28031 0.242891,4.55349 0.275391,6.83398 0.01687,1.28313 -0.250719,2.55808 -0.06641,3.83988 0.09419,1.2533 -0.05622,2.524 0.183593,3.7636 0.01688,1.2475 0.1865,2.4831 0.289063,3.7207 -0.01687,0.6025 0.238438,1.235 0.01563,1.8067 l 0.0039,0 c 1.097206,0.044 2.121475,-0.1134 2.816406,-0.9902 1.503713,-0.4781 4.041419,-1.8783 4.40625,-1.7363 1.457219,-1.4333 0.194407,-2.6041 -0.06641,-4.1289 0.446875,-2.2018 -0.25914,-4.52904 0.59961,-6.65629 0.597062,-1.86712 2.696028,-3.71683 4.669922,-2.43945 2.622218,-0.3325 2.61409,-3.59564 4.138671,-5.1582 0.472063,-2.22144 -2.270556,-3.98349 -0.527343,-6.18555 0.372937,-2.33138 3.844906,-2.99177 2.681646,-5.71289 -1.05065,-2.61756 2.58816,-2.34894 2.29297,-4.73438 -0.64757,-2.55943 1.20086,-4.16084 2.38281,-6.09765 -0.20957,-2.03994 1.76968,-4.90021 4.05273,-4.30664 2.14153,1.07725 5.20614,2.0372 6.83789,-0.41993 1.33892,-2.2775 5.1086,-3.801 7.02539,-1.46874 -0.15187,1.99937 0.94902,3.17318 2.65625,4.21093 0.75969,1.75175 2.64621,3.44391 4.51563,1.66797 1.74039,-3.36994 4.53666,0.45899 6.9082,-0.32226 2.19758,-1.9865 5.40241,-3.62522 8.34766,-2.4336 0.676,2.84019 2.97494,0.76183 4.85937,0.65039 2.42022,0.71256 4.74853,1.86666 7.44727,1.73828 1.90045,1.03369 3.84093,2.13533 5.95508,0.68164 1.82862,-0.11625 5.81875,-0.42528 4.16601,-3.1914 0.32331,-2.47063 3.96795,-1.87103 5.34766,-0.63672 1.9631,0.93125 5.44009,0.64492 6.29492,-1.48633 -1.52027,-1.84825 -0.52624,-4.1042 1.81055,-4.50195 1.46528,-1.65588 4.12927,-2.42821 5.22265,0.15429 0.51588,2.31963 2.30873,4.75097 4.89844,2.94141 1.66084,-2.03769 4.22301,-1.51806 6.2832,-2.94531 2.56777,-1.36863 6.01533,0.16248 8.48243,1.41211 2.32554,-0.45063 3.94231,-2.4616 5.9414,-3.51953 2.31506,-0.0125 4.97677,2.12459 7.04297,0.0664 1.66962,-1.69362 -0.48043,-2.86814 -1.9043,-3.27539 -1.21738,-2.04044 1.43933,-5.73719 3.75196,-4.47656 2.03313,1.11662 1.58979,5.08219 4.67383,4.24219 2.10013,-0.56438 2.30122,-3.33444 3.39453,-4.94532 1.06252,-2.67956 4.29899,-0.15735 4.5039,1.82227 0.1275,0.57188 0.25627,1.14386 0.38477,1.7168 0.55894,3.21906 3.23899,-1.98042 3.88867,0.42383 2.16809,2.19937 1.50417,-3.47832 3.45508,-1.8125 0.89497,1.54081 3.54588,2.65598 4.75586,1.67773 0.95802,-3.63675 2.97921,2.7207 4.39453,-0.20898 0.61019,-2.56557 2.65087,-0.56389 3.50781,0.64648 0.35019,2.13 0.56845,0.0842 1.17578,-0.63281 1.45065,-0.20875 3.44827,0.18609 5.10352,-0.51953 1.54725,-0.29438 5.32179,0.28915 3.65039,2.3789 1.25808,-0.4425 2.65968,-0.71775 4.09961,-0.64843 1.0101,1.07524 3.80872,1.6789 4.09375,0.36328 0.46312,-3.05125 3.33865,-0.78208 4.63476,0.24804 2.13583,-0.31187 4.71404,0.47091 6.51172,-1.01172 0.3925,-2.15775 2.42333,-2.00779 3.43555,-0.41992 1.93229,0.67763 4.10424,0.0947 6.09766,-0.19531 2.62431,0.60188 1.29923,3.97194 1.03711,5.875 -0.30232,3.17806 3.1477,0.16281 4.68554,0.17969 2.39306,0.81637 0.0817,4.87884 2.29492,6.46484 -0.88945,-2.74956 2.79779,-4.06439 4.59571,-2.30664 1.3533,1.46819 1.25256,3.99922 3.57617,4.51953 1.29212,-0.11625 1.59819,3.44338 3.77539,2.21094 0.4875,1.16469 -0.114,2.73586 1.62695,3.0918 1.08746,2.02993 3.18133,2.84468 4.66797,4.46093 1.60673,1.71507 3.08328,3.47875 4.53125,5.32032 2.06734,0.81168 4.8715,0.91484 6.14649,3.19922 1.58382,2.27131 -1.43362,0.83739 -2.31641,2.18945 -0.86272,2.13644 1.32725,2.85811 2.87305,2.88867 0.59312,1.62456 -2.34727,3.24934 -1.08594,5.04297 1.14587,-0.64325 1.66701,-0.47125 3.06445,-0.20313 1.58227,-0.99131 1.01716,0.76219 1.67578,1.73438 0.4015,2.87544 4.0994,0.20325 4.47852,3.00781 -1.26906,2.16957 -0.12681,4.29047 1.54492,5.86917 0.21463,2.2503 1.11313,-0.4049 2.48438,-0.5606 2.08182,-1.904 5.04536,-0.8948 7.41601,-1.9746 1.14522,-1.148 3.65538,-5.02525 4.79102,-1.7988 0.32581,1.1082 -1.04049,1.5027 -1.16993,2.543 -0.33712,1.857 1.35728,5.246 3.50977,4.5 1.75713,-1.3719 4.16895,-0.2664 5.92383,-1.7832 1.98984,-1.7014 4.57095,-2.6123 7.11523,-1.5176 2.23407,1.9258 4.08324,-2.493 5.85938,-0.9102 1.80295,2.6299 -5.16273,2.2076 -2.84375,5.334 1.89949,2.0244 3.02049,-1.2344 4.29101,-1.9434 1.73626,1.3021 2.60003,3.9051 5.31055,3.9727 2.71791,0.3375 4.10045,2.4738 3.59961,5.0391 -0.55894,2.0828 -0.79588,4.3874 0.4375,6.3242 0.65812,2.2243 5.51629,3.353 3.27734,5.9375 -0.0475,1.1847 1.81839,2.8007 1.94727,4.4101 0.3135,2.3715 0.80454,4.8274 2.80664,6.42 2.24267,1.2936 -2.41078,0.8818 -1.27539,3.0078 1.20584,1.9661 3.15354,3.3383 4.82422,4.8965 1.45641,0.9352 4.28397,3.3817 1.86523,4.8769 -1.51183,-0.6906 -3.74686,0.5645 -2.43945,2.3574 0.50937,2.0788 2.28077,5.8297 4.58398,3.1172 3.0066,-0.816 5.19902,2.3835 7.93164,3.1309 3.05925,0.3806 3.79943,3.8135 2.28907,6.1191 -2.06085,2.968 1.43993,5.3812 4.08984,5.8711 3.05861,0.6709 5.0501,-2.478 7.93164,-2.7031 2.20848,1.0861 0.20054,4.8312 2.61524,6.0312 2.8783,0.3025 -0.16021,2.987 -0.0879,4.4278 -0.61506,2.6667 0.80189,5.8329 3.6836,6.3066 2.86847,0.2944 5.66484,2.0696 6.71484,4.8203 1.20584,2.4407 -1.48849,5.0808 -3.60547,2.8965 -2.45516,-1.5212 -2.49948,2.4524 -0.38281,2.9024 2.33408,0.3937 2.08613,5.1338 4.75,3.3378 2.05036,-2.5734 4.81554,0.4695 3.91211,2.9942 -1.19966,3.0987 2.49627,3.4989 4.0918,5.0254 0.30144,0.2518 0.59469,0.5164 0.88476,0.7793 1.74851,0.8839 2.52485,2.9987 4.375,3.6152 0.81772,-0.8389 2.43174,-2.7894 4.17383,-1.5801 2.78226,1.0017 5.31701,2.7039 7.22656,4.9844 1.518,2.3709 4.40433,2.9537 6.92774,3.6387 2.812,0.6125 3.92876,3.6415 4.26953,6.1836 0.55575,2.1425 0.11521,4.465 1.01172,6.5156 1.78882,2.4289 4.15753,4.5019 6.89844,5.7988 2.10658,0.952 4.81853,0.7047 6.19726,2.959 1.45057,2.5817 4.25166,3.7839 6.92969,4.668 1.26361,0.6669 2.7012,0.2051 4.04687,0.2051 2.3861,0.9383 4.22871,-2.5183 6.53711,-1.2637 1.42498,1.935 2.97761,3.6153 5.2168,4.6699 1.65702,1.7794 3.87599,-0.1026 2.75977,-1.8379 -10e-4,-2.4232 3.62388,-1.7449 5.3789,-1.7754 2.14713,-0.013 4.65423,-1.6483 4.8125,-3.8965 0.585,-2.6996 3.92593,-1.9371 5.54492,-3.6015 2.48922,-1.2773 3.55668,-3.9866 5.76953,-5.5137 1.99504,-0.6881 1.90495,-2.0423 1.1836,-3.7441 -0.42656,-2.5668 1.03777,-4.8848 1.29687,-7.3985 0.70039,-1.8095 1.38891,-4.2562 -0.91406,-5.2539 -1.31162,1.6813 -4.63417,0.3689 -2.87891,-1.875 -0.065,-1.3868 -1.29245,-4.3754 0.76368,-5.6797 2.74392,-0.9928 0.70464,-3.5449 -0.41992,-4.9785 -0.44132,-2.7605 2.93975,-4.5382 2.98242,-7.3555 -0.0563,-2.0957 -0.23289,-4.2785 0.61523,-6.2695 0.48106,-1.9703 2.38589,-3.0789 2.98438,-4.9394 0.555,-2.2677 1.00453,-4.5526 1.44531,-6.834 0.48662,-2.4987 -0.081,-5.8765 2.875,-6.8418 2.0064,-1.376 -0.30981,-4.8019 2.02344,-5.584 l 0.28906,-0.012 0.29492,-0.039 c 2.39706,-1.0674 3.94199,1.6063 6.14453,1.211 1.80548,-1.2354 5.08014,-0.2768 5.88477,-2.5645 -0.53225,-2.4728 1.30658,-3.5429 2.95898,-4.8262 0.75319,-1.8933 4.52118,-1.5432 3.31446,-4 0.47856,-2.0993 4.08707,-1.0636 5.83203,-1.2871 2.89235,-0.05 4.14245,2.6464 5.29297,4.8496 2.37721,1.4668 1.91505,4.4597 2.90234,6.4317 1.23304,2.1397 3.84974,2.7763 4.89453,5.0742 1.49006,2.8997 3.63041,5.4838 6.31055,7.3574 2.67412,1.0022 5.12879,2.4772 7.05664,4.6445 3.36272,2.4405 6.93944,4.631 10.04687,7.3907 1.70301,2.0482 3.11302,4.3959 5.70899,5.4472 2.32247,1.7153 2.79906,4.9288 4.93554,6.8731 1.44578,0.7062 0.7926,1.6041 1.78516,3.0586 1.7386,0.8738 2.09491,4.2962 4.20312,4.375 1.95635,-2.126 1.83674,-5.2298 2.19141,-7.9141 0.48106,-2.9197 5.01216,-2.7523 4.52149,-6.3203 -0.82388,-2.5046 1.11846,-4.323 2.64062,-6.0117 1.80441,-0.69 3.30318,-2.6486 4.91211,-3.7168 2.36229,-0.54 3.47388,-2.6135 2.61523,-4.9258 -0.65731,-1.9399 -1.74764,-6.0525 1.7754,-5.2383 2.53777,-0.2644 2.71021,3.8736 4.91796,2.9063 1.69545,-1.9365 4.3596,-0.9739 6.43946,-1.9375 0.24125,-0.037 0.48227,-0.066 0.72265,-0.098 1.2983,-0.35 2.60839,-0.6187 3.97852,-0.6933 2.06386,-0.4025 4.07652,-0.5896 6.17773,-0.5196 1.733,0.5831 3.58163,0.09 5.36914,0.2227 1.05903,0.5087 2.47596,-0.6542 3.27539,0.373 1.36389,0.3981 2.85696,0.4736 4.24415,0.1524 2.76609,-0.012 5.1415,2.027 7.89062,2.0566 -1.58,-1.2261 1.66082,1.1728 2.9375,1.1719 3.54872,1.3642 7.0106,3.1371 10.74805,3.9609 2.73392,0.9225 5.60636,0.3638 8.42383,0.5781 2.35746,0.3363 4.69324,-0.085 6.9707,-0.6953 1.02661,-0.4368 2.28921,-0.2726 3.14844,-0.9453 2.48812,0.5119 4.85808,1.803 7.46875,1.3867 1.62744,0.044 3.20959,-0.3861 4.61523,-1.1562 1.64249,-0.962 3.41585,-2.1023 4.39453,-3.8066 1.01731,0.2691 2.04536,0.5471 3.09766,0.5566 -0.52767,-0.264 1.0163,-2.1223 1.94922,-2.4512 4.29475,-0.2687 8.65183,-0.2433 12.9707,-0.3965 1.20072,-0.2525 2.33527,0.036 3.55078,-0.094 3.85688,-0.3025 7.70456,-0.1017 11.56641,-0.291 -0.66869,-4.4506 -1.76119,-8.8461 -2.60352,-13.2735 0.11884,0.4073 -0.039,-1.4164 -0.57422,-2.8808 0.0658,-0.1221 0.41094,-1.4869 1.92578,-2.0196 2.87067,-2.812 5.52014,-5.8768 8.60547,-8.4785 0.70607,0.8804 2.03131,1.4339 2.01563,2.6953 -0.84468,3.2006 -1.38166,6.4658 -1.98828,9.7168 -0.12525,2.6081 -0.67912,5.336 0.31445,7.8457 6.62673,-0.044 13.28527,0.1729 19.89062,-0.1621 3.89288,0.1469 7.81734,-10e-4 11.72071,0.031 20.33118,0.031 40.66336,0.03 60.99609,0.012 54.97776,-0.1238 109.95597,-0.1611 164.93358,-0.012 30.9937,0.13 61.9918,0.5779 92.9824,-0.1153 6.0585,-0.6669 12.2744,0.663 18.2286,-0.957 5.9635,-28.3853 11.761,-56.806 17.3007,-85.27733 -6.0784,-3.94588 -12.1892,-7.8442 -18.2519,-11.81445 -2.5899,-2.46388 -6.8738,-3.00261 -8.4688,-6.45899 -1.8037,-17.79144 -3.6099,-35.5823 -5.4218,-53.37305 -2.149,-21.17566 -4.3128,-42.34869 -6.4864,-63.52148 l -996.67966,0 z m 611.52344,231.2754 c 0.0754,0.038 0.19359,0.044 0.36133,0.01 -0.12123,0.01 -0.24079,-0.01 -0.36133,-0.01 z"
       style="fill:#cd2a3e;fill-opacity:1"
       inkscape:connector-curvature="0" />
    <path
       transform="matrix(0.16,0,0,0.16,-72,-28)"
       id="path6"
       d="m 519.43359,150 c 0.23621,32.40117 0.60785,64.80186 0.41993,97.20508 -23.49835,3.05935 -47.24718,3.75465 -70.78711,6.51562 -1.17262,0.04 -2.02193,0.3157 -3.2168,0.80664 -2.13843,1.18627 -4.2931,2.41009 -6.16016,4.00782 -2.36196,1.75164 -3.9513,4.29426 -6.17968,6.1875 -1.94848,2.02865 -3.53279,4.38477 -5.31055,6.56445 -2.38805,3.35334 -4.70619,6.76717 -6.88086,10.26562 -1.88079,2.91669 -3.45874,6.02415 -4.6875,9.27344 -2.03858,4.82496 -2.85188,10.02914 -4.12891,15.08008 -1.08119,5.12851 -2.81834,10.15112 -3.16015,15.41211 0.18281,3.43122 0.41982,6.87249 0.91406,10.27734 0.5875,5.74898 0.96863,11.52027 1.55078,17.27149 1.49486,16.2876 3.16424,32.55967 4.75391,48.83789 1.24874,14.36158 2.53369,28.71834 3.91992,43.07031 0.19337,1.88347 0.63375,3.74498 0.50781,5.64649 0.98646,6.68101 1.52754,13.50563 2.21289,20.25585 -36.87763,-0.75985 -73.76129,-0.86195 -110.64453,-1.15625 -4.91452,-0.1125 -9.80894,0.13825 -14.72266,0.0312 -36.22943,-0.22262 -72.45345,-0.1125 -108.69531,-0.13281 -45.36954,0.0481 -90.73517,0.65968 -136.099608,1.28516 -3.255956,0.15137 -6.574524,-0.33164 -9.773437,0.4043 -0.458375,1.7038 -0.916669,3.40546 -1.375,5.10937 -0.910663,3.85387 -2.24205,7.57813 -3.277344,11.39453 -0.729625,2.54166 -0.860078,5.29591 -2.064453,7.66992 -1.329356,1.81762 -2.526187,3.81962 -3.027344,6.02344 -0.408812,3.16211 -0.7871,6.32951 -1.855468,9.35156 -1.010413,2.46643 -0.507485,5.14826 -0.63086,7.74024 -0.24375,3.6253 0.833938,7.13893 1.113282,10.70703 0.863193,0.63199 1.075296,-0.68563 0.935546,-1.30274 0.09188,-0.96176 0.33511,-1.90904 0.41211,-2.87695 0.538812,-1.42105 1.106034,-2.83851 1.560547,-4.28711 0.474625,-1.22826 -0.523772,-2.13082 -1.388672,-2.78125 -0.516625,-0.65271 -0.862007,-1.4474 -0.886719,-2.28906 0.209563,-1.17151 1.431369,-1.32318 2.339844,-1.68555 1.0539,-0.22787 2.036609,-0.97073 1.873047,-2.17383 -0.04,-1.2768 0.01616,-2.61769 0.667968,-3.75195 0.374625,-0.904 0.197797,-1.94458 0.263672,-2.91406 -0.08856,-0.61819 0.526719,-2.19454 -0.535156,-1.9668 C 36.9485,499.64536 35.697494,499.8673 36,498.77539 c 0.065,-0.86163 -0.221641,-1.82034 0.146484,-2.61914 0.481938,-0.71111 1.623375,-0.007 1.875,-1.02539 0.321688,-0.74579 0.825597,-1.36446 1.681641,-1.46875 0.723956,-0.86408 0.731578,-2.20655 1.626953,-2.9707 0.367313,-0.66232 1.090706,-1.14392 1.171875,-1.95313 -0.247687,-1.04919 0.247547,-1.93535 0.826172,-2.78906 0.496438,-0.65718 1.009144,-2.11545 2.050781,-1.66211 0.32975,1.08406 1.64416,1.42225 1.720703,2.67383 -0.065,1.0946 1.197885,1.67225 1.126953,2.77929 -0.03375,0.95438 0.388604,1.84561 0.794922,2.68946 0.10975,0.90135 0.498038,1.75302 1.234375,2.32031 0.345438,1.07744 0.344004,2.38047 1.142579,3.25195 1.120281,0.38138 1.428115,1.53318 1.814453,2.50977 0.326687,1.17337 1.644653,1.52675 2.02539,2.67187 0.479375,1.17182 0.716597,2.41876 0.892578,3.66602 0.179625,0.84858 1.001485,1.6729 1.779297,1.875 0.342063,-0.45794 1.020785,-1.20407 1.244141,-0.19141 0.246312,0.93452 0.735659,1.76483 1.029297,2.6836 0.484937,0.99032 1.077278,1.90791 1.408203,2.97265 0.32025,1.11414 0.105587,2.34768 0.730469,3.375 0.435375,1.09034 1.112856,2.02933 1.960937,2.83203 0.644319,0.91695 0.637616,2.09914 0.947266,3.14454 0.134,0.92682 0.193306,1.9203 0.773437,2.69726 0.323313,0.82389 1.184088,1.19032 2.003906,1.30274 0.888069,0.0137 1.971816,0.49865 1.697266,1.58007 -0.53225,0.87659 -0.04716,1.70718 0.621094,2.31641 0.83015,0.98557 -0.816481,1.03424 -1.324219,1.41797 -0.5225,0.58412 -0.806484,1.69177 0.330078,1.57226 0.414375,0.51482 0.442882,1.20619 1.292969,0.97266 0.920406,0.0131 0.836959,1.4807 1.927734,1.32031 0.9963,0.12919 1.332525,1.13501 1.847657,1.8418 0.502062,0.99308 1.116828,1.94699 1.908203,2.73438 1.103956,0.55625 1.599843,1.7019 2.515625,2.43164 0.712569,0.47775 1.977562,0.38212 2.09375,1.46679 -0.133313,0.7198 0.884093,1.49688 0.972656,0.45313 0.161625,-0.61382 1.2731,-0.71382 0.808594,-1.56055 -0.134813,-1.65434 -0.4145,-3.33568 -0.117188,-4.99023 0.40375,-0.94562 0.461985,-1.99049 0.201172,-2.98243 -0.214625,-0.75969 -0.418562,-1.54771 -0.21875,-2.33789 0.05625,-1.00759 -0.314625,-2.00418 -0.132812,-3.01757 0.203937,-0.83663 -0.01637,-2.38349 0.935547,-2.60547 0.611875,0.51818 1.500059,0.8557 2.201171,1.01953 1.125644,-0.36075 0.764425,1.05547 0.828125,1.71679 0.252688,0.93232 0.120032,1.89823 0.246094,2.84376 0.44775,0.97239 1.408503,2.20572 2.623047,1.5371 0.781637,-0.33275 1.628272,-0.27482 2.404297,-0.13476 0.528937,-0.17738 0.484397,-1.01996 1.24414,-0.78906 0.847519,-0.34975 2.159107,0.6894 1.339844,1.49609 -0.661375,0.534 -1.606656,0.43808 -2.398437,0.4082 -0.759694,-0.097 -1.577006,-0.0611 -2.308594,0.15821 -0.765381,0.30931 -0.456172,1.18241 0.283203,1.20507 0.416063,0.51513 1.216606,1.64003 1.761719,0.56446 0.752375,-1.21294 1.365847,0.51352 0.779297,1.18359 -0.323313,1.13497 1.208222,1.46358 1.396484,2.46094 -0.10975,0.72436 -0.442403,1.74402 0.646484,1.87109 0.60375,0.34544 1.800866,0.12455 0.931641,1.02344 -0.269,0.87629 1.126828,1.42133 1.458985,2.21875 0.454187,0.88613 0.648843,1.89646 0.699218,2.88672 0.159188,1.01787 0.752088,1.91153 0.9375,2.92773 0.472063,1.12504 0.884116,2.27029 1.451172,3.35352 0.472062,1.04317 1.089782,2.03012 1.460942,3.11328 0.0731,0.78943 -1.799261,0.66875 -1.19532,1.75586 0.41519,0.70647 1.06427,1.2078 1.76758,1.60351 0.73775,0.74596 0.99297,1.8279 1.69336,2.60938 0.60688,0.88822 0.39745,1.97096 0.43164,2.96875 0.0337,1.03192 1.04128,1.57724 1.91602,1.83008 0.94357,0.26769 1.03584,1.4182 1.31445,2.20312 0.38188,0.73768 0.59492,1.99076 1.70508,1.72461 0.81315,-0.0263 1.8842,-0.0718 2.39844,0.66016 0.64513,0.89733 0.67093,2.05216 1.25585,2.97266 0.40288,0.94816 1.05379,1.75736 1.81446,2.39843 0.8454,0.7632 0.37851,1.94661 0.27539,2.90625 -0.31519,1.10194 -0.70811,2.18811 -1.38086,3.125 -0.61588,0.7675 -0.68331,1.75318 -0.95313,2.66016 -0.43062,1.04362 -1.47955,1.72995 -2.53906,2.01758 -0.76537,-0.58375 -1.44839,0.35334 -0.72265,0.94336 0.57212,0.53025 0.53166,1.43386 1.10937,1.98437 0.68739,0.53844 1.21308,1.18251 1.48438,2.02344 0.28606,0.6837 0.15746,1.64666 1.0039,1.95703 0.95931,0.47375 0.22444,1.34231 0.008,1.97266 0.42507,0.8008 0.42774,1.64853 -0.0254,2.43164 -0.174,0.90382 0.85925,2.04703 -0.18554,2.68359 -0.3785,0.69754 -0.5591,1.54141 -1.22266,2.09961 -0.76456,0.82333 -1.55606,1.66655 -2.56836,2.19336 -0.67437,0.38325 -1.17126,0.96513 -1.5,1.66211 -0.49006,0.99295 -1.43563,1.64194 -2.35351,2.18359 -0.87377,0.77807 -1.05792,2.0032 -1.71485,2.94532 -0.36087,1.15872 0.65817,2.48625 1.91797,2.05078 1.09224,-0.58219 0.42528,-1.90219 0.74609,-2.8418 0.25525,-1.08126 1.63781,-1.23263 2.47071,-0.75 0.982,0.20675 2.4996,0.55137 2.05078,1.89648 -0.24375,1.13341 -1.44126,1.83464 -1.50391,3.03907 -0.17144,1.34165 1.68748,0.67211 1.77149,-0.28711 0.59481,-0.26638 0.66817,1.28175 0.46679,1.79492 -0.58418,0.918 -1.11401,2.01441 -0.16601,2.92969 0.45331,0.75206 0.84852,1.76319 0.26172,2.56054 -0.63376,0.97517 -1.75802,1.48898 -2.33789,2.50391 -0.62726,0.76416 -1.65858,1.85364 -0.55274,2.70117 0.35275,1.12836 -0.95461,1.80062 -1.5332,2.57031 -0.57688,0.78041 -1.6615,1.37623 -1.63477,2.45118 0.16419,1.08561 -0.88142,1.50119 -1.48437,2.15429 -0.82721,1.01216 -1.31733,2.23676 -1.89063,3.39453 -0.4135,1.08008 -1.71293,1.21267 -2.355466,2.06836 -0.484125,0.81777 -0.834296,1.70511 -1.232422,2.56055 -0.506312,1.12185 -1.244796,2.16662 -2.279296,2.86133 -0.957613,0.73337 -1.981128,1.40002 -2.84961,2.23633 -0.99565,1.17172 0.04922,2.88821 -0.859375,4.11132 -0.463125,0.68689 -1.101103,1.22242 -1.43164,1.99805 -0.563125,0.90175 -1.422428,1.58213 -1.873047,2.56055 -0.37375,0.61319 -0.251094,1.48441 0.08203,2.10351 0.320937,0.74523 0.02487,1.51354 -0.226563,2.21875 -0.147124,1.20042 1.372916,0.87061 2.107422,0.89649 0.92065,-0.0748 0.94265,-1.28887 1.058594,-1.98242 0.523375,-0.66667 1.148197,-1.63424 0.388672,-2.33594 -0.0475,-0.86389 -0.406875,-1.76865 0.04687,-2.58008 0.416063,-0.93519 1.356322,-1.41037 2.142578,-1.98047 0.946481,-0.90462 1.775753,-1.92413 2.669922,-2.88086 0.680069,-0.73695 1.285594,-1.62545 2.273437,-1.97265 0.662194,-0.59388 1.217184,-0.18571 0.607414,0.52929 -0.447742,1.20804 -0.833245,2.45309 -1.39257,3.61133 -0.750756,0.99633 -1.573793,1.8943 -1.972656,3.10352 -0.307062,0.39468 -0.346891,0.65626 0.154297,0.29492 1.075519,-0.57869 2.037609,-1.38897 2.654297,-2.46094 0.694692,-0.63193 1.410332,-1.2786 1.777342,-2.16016 0.38437,-1.03396 0.97284,-2.02621 2.05664,-2.44921 1.05652,0.1445 1.94769,-1.39651 2.89062,-0.83789 0.5085,0.6739 0.33799,1.60226 -0.0176,2.30468 -0.57044,1.14517 -1.35219,2.18616 -1.89649,3.33789 -0.32756,0.7567 0.22205,1.62409 -0.29883,2.28907 -0.68007,0.68022 -1.5498,1.15041 -2.26953,1.79296 -0.16169,1.01888 -0.26404,2.1443 -1.35547,2.6504 -0.612681,0.544 -1.65504,0.22944 -2.115228,0.96679 -0.34125,0.75466 -0.475847,1.71567 -1.193359,2.22071 -0.993788,0.27462 -2.131241,0.0682 -3.033203,0.67968 -0.886688,0.40707 -1.632203,1.084 -2.576172,1.34766 -0.901725,0.32137 -2.049266,0.62801 -2.888672,-0.008 -1.476725,-0.79253 -3.000378,-1.64857 -4.720703,-1.7168 -1.013531,-0.11237 -2.0009,0.63465 -1.277344,1.62109 0.564687,1.02899 1.576575,1.64981 2.238281,2.58789 0.606875,0.75329 1.205435,1.53049 1.47461,2.47657 0.58025,1.60003 1.252278,3.18353 1.658203,4.83398 0.307062,0.87513 0.635775,1.77352 1.371093,2.39258 0.715825,0.74036 1.673294,1.26488 2.707032,1.36523 1.052925,0.29282 1.95019,0.90987 2.966797,1.28125 1.096075,0.60725 2.338884,0.85543 3.470703,1.38086 0.483437,0.75619 1.501028,0.83531 1.990232,1.50782 0.11294,0.84123 0.22041,1.75992 1.2207,1.98632 0.78976,0.33432 1.22319,1.07358 1.70117,1.73438 0.7329,0.99779 1.47241,1.99505 2.39649,2.82812 0.65081,0.68942 1.25988,1.37907 1.74609,2.19922 0.60125,0.78977 1.02045,1.69926 1.65234,2.4668 0.42082,0.88587 0.69666,1.82878 1.17383,2.68945 0.40875,0.9062 0.86631,1.79321 1.28125,2.69141 0.19094,1.07952 0.49326,2.1288 0.88672,3.15234 0.36,1.07456 0.80876,2.11829 1.26367,3.14649 0.56875,0.92333 0.94704,1.96013 1.46485,2.91797 0.70769,1.44267 1.20583,2.99296 1.52734,4.5625 0.0911,1.16885 0.1803,2.34201 0.56055,3.46093 0.37787,1.65597 0.54601,3.36005 0.61914,5.05469 0.0337,1.35682 -0.32852,2.70021 -0.22852,4.05274 0.14375,1.02209 0.6914,1.94073 1.39649,2.67773 0.81006,1.13636 0.70204,2.60997 1.0039,3.91797 0.17475,1.39415 -0.25729,2.79787 -0.006,4.19336 0.13644,1.77435 0.69665,3.48378 1.2793,5.15625 0.23563,1.24816 0.75682,2.42104 1.34961,3.53906 0.46225,0.91099 1.03451,1.76932 1.29102,2.77344 0.39643,0.96506 0.77032,1.92683 1.16797,2.88672 0.46706,0.76213 0.60536,1.65044 0.96874,2.45117 0.31213,1.08702 0.72589,2.16281 0.91407,3.2832 0.18125,0.75864 0.40176,1.52009 0.54883,2.29102 0.29725,1.48525 0.79858,2.92986 0.95117,4.43945 -0.065,0.72573 -0.19224,1.43438 -0.26367,2.1582 -0.34607,1.50161 -0.62624,3.05198 -0.3418,4.5918 0.25912,1.55139 0.37706,3.11951 0.42969,4.68945 0.18687,2.05181 0.88396,4.05854 0.63281,6.13868 -0.20225,1.31323 0.14272,2.59504 0.3164,3.88671 -0.15774,1.05002 0.44493,1.78377 0.60743,2.7461 0.18768,0.92027 0.51979,1.79506 0.58398,2.74023 0.007,1.1292 0.15133,2.25921 -0.006,3.38477 0.0821,0.89012 -0.19006,1.81769 0.10156,2.67578 0.455,0.8865 0.6946,1.92194 0.43946,2.90625 -0.0911,1.40006 -0.35027,2.77951 -0.53321,4.16601 0.0475,1.088 0.22629,2.16252 0.23047,3.25196 0.29507,1.73743 0.52271,3.52012 0.18946,5.27343 -0.18213,1.08794 -0.44157,2.16238 -0.81641,3.19532 -0.0406,1.00862 -0.30533,2.01094 -0.11914,3.03125 0.065,1.42787 0.097,2.87559 0.4668,4.26172 0.14287,0.92862 -0.17728,1.80567 -0.48047,2.66211 -0.269,0.96187 -0.37549,1.97751 -0.39649,2.97851 0.10819,1.76175 0.13896,3.53361 0.47852,5.27149 0.17319,1.02075 0.065,2.06273 -0.27539,3.0371 -0.28913,0.82438 -0.46949,1.66988 -0.49805,2.54688 -0.121,1.25506 -0.54091,2.46484 -0.57422,3.73047 -0.30794,0.91687 -0.49351,1.85705 -0.65039,2.81055 -0.0223,0.19759 -0.067,0.39077 -0.10742,0.58398 l 997.25789,0 c -7.0937,-69.12259 -14.3066,-138.2324 -21.5879,-207.33398 -1.5726,-17.0012 -4.0444,-33.91758 -5.0996,-50.96485 -3.5702,-32.21221 -7.2036,-64.4266 -10.6836,-96.65429 -7.7822,-72.39971 -15.7554,-144.7798 -23.3477,-217.20118 -0.6865,-5.6126 -1.3334,-11.23043 -1.9609,-16.85156 -2.2584,-21.28058 -4.8643,-42.52257 -7.125,-63.80273 -0.6636,-12.7269 -2.4219,-25.36194 -3.5274,-38.05274 -0.3349,-3.04527 -0.6518,-6.09229 -0.9765,-9.13867 l -531.48445,0 z M 68.197266,530.9668 c -0.06234,0.0166 -0.115625,0.0535 -0.15625,0.12695 -0.04063,0.0406 0.451781,0.025 0.363281,-0.12695 -0.07397,-0.0128 -0.144695,-0.0166 -0.207031,0 z m 17.966796,7.24023 c -0.140624,0.101 -0.282328,0.20155 -0.423828,0.30274 -0.0415,0.16806 -0.0775,0.33578 -0.125,0.5039 -0.02702,0.0811 -0.0061,0.16846 -0.002,0.25195 0.01625,0.28017 0.05016,0.56007 0.09766,0.83594 0.0325,0.22336 0.08898,0.442 0.162109,0.65625 0.065,0.24312 0.189906,0.46303 0.292969,0.69141 0.1325,-0.0605 0.263984,-0.12102 0.396484,-0.18164 0.095,-0.14188 0.189078,-0.28208 0.283203,-0.42383 0,-0.29378 -0.03445,-0.58856 -0.01758,-0.88281 0.03437,-0.38236 0.01102,-0.76582 -0.0059,-1.14844 l -0.0078,0 c -0.08463,-0.16125 -0.168594,-0.32263 -0.253906,-0.48438 -0.1325,-0.0404 -0.263985,-0.0805 -0.396485,-0.12109 z m 3.292969,1.01367 c -0.163375,0.0213 -0.447015,-0.0329 -0.43164,0.22657 0.433125,-0.008 0.733815,0.29009 0.947265,0.64257 0.165063,0.29382 0.874972,0.19286 0.404297,-0.14257 -0.20875,-0.33188 -0.483309,-0.69049 -0.919922,-0.72657 z m -1.703125,0.91992 c -0.103484,-0.0399 -0.224625,0.0247 -0.253906,0.25391 -0.302313,0.3365 -0.340984,0.77539 -0.404297,1.20313 -0.119375,0.20087 -0.07195,0.44803 -0.08008,0.6914 l 0.002,0 c 0.182938,0.29206 0.529125,0.41689 0.5625,0.0176 0.300625,-0.29356 0.01592,-0.66025 0.154297,-0.9668 0.12525,-0.24743 0.191,-0.51888 0.164063,-0.82617 0.04428,-0.18734 -0.04105,-0.33311 -0.144532,-0.37305 z m 2.308594,0.61329 c -0.160812,0.03 -0.330531,-0.005 -0.488281,0.0508 -0.17225,0.20925 -0.350766,0.41467 -0.541016,0.60742 -0.137687,0.11731 -0.159922,0.31255 -0.185547,0.48242 -0.0115,0.18069 -0.113218,0.33363 -0.214844,0.47656 -0.06588,0.14894 -0.209437,0.23521 -0.351562,0.29883 -0.2185,0.0794 -0.356797,0.29636 -0.404297,0.51367 0.095,0.40935 0.216313,0.81455 0.382813,1.20118 0.07719,0.18881 0.161562,0.40692 0.367187,0.49023 0.242938,0.17044 0.53875,0.23061 0.8125,0.33398 0.360181,0.18094 0.759547,0.25997 1.154297,0.32422 0.158375,0.0129 0.339,0.11994 0.484375,0.008 0.0625,-0.12707 0.281797,-0.20243 0.216797,-0.37305 -0.268938,-0.31558 -0.501156,-0.66275 -0.691406,-1.03125 -0.08875,-0.13169 -0.122344,-0.27678 -0.105469,-0.4336 0.0049,-0.30609 0.02341,-0.61787 0.105469,-0.91406 0.16175,-0.25477 0.320109,-0.51315 0.435546,-0.79297 l -0.002,0 c -0.05856,-0.15843 -0.12414,-0.31493 -0.197265,-0.46875 -0.100875,-0.17218 -0.149282,-0.37887 -0.292969,-0.52343 -0.1625,-0.081 -0.296625,-0.225 -0.484375,-0.25 z m 18.45312,57.29687 -0.0801,0.002 -0.1211,0.12891 0.002,0.25781 0.006,-0.002 0.125,0.13086 0.0723,0 0.12305,-0.12891 -0.002,-0.25781 -0.125,-0.13086 z m -3.21679,4.30664 -0.0801,0.004 -0.11914,0.1289 -0.002,0.25586 -0.084,0.0879 0.004,0.34571 0.006,-0.002 0.12109,0.12891 0.082,0 0.12305,-0.13281 -0.002,-0.084 0.082,-0.0879 -0.002,-0.42773 -0.082,-0.0859 0,-0.0879 -0.0469,-0.043 z m 0.97656,0.77344 -0.082,0.004 -0.11524,0.1289 -0.006,0.16797 0.0449,0.0449 0.23828,-0.002 0.0391,-0.041 0,-0.17382 -0.11914,-0.12891 z m -22.759765,7.32031 c -0.4575,0.0244 -0.846925,0.18222 -1.203125,0.4336 -0.513562,0.28875 -0.3365,0.83293 -0.203125,1.24609 0.219375,0.46837 -0.181109,0.76731 -0.240234,1.20508 -0.025,0.0575 -0.133282,0.0842 -0.08203,0.17187 l 0.002,0 c 0.298063,0.38231 1.741216,-0.12087 1.384766,0.0703 0.334,-0.21081 0.963619,-0.0416 1.109375,-0.5 0.120188,-0.57043 -0.364875,-0.91124 -0.484375,-1.38281 0.065,-0.4155 0.246609,-1.05798 -0.283203,-1.24414 z m 2.0625,4.96289 c -0.08428,-0.0348 -0.198995,0.0336 -0.253906,0.33985 l 0.002,0.084 c 0.44891,-0.0191 0.392411,-0.36577 0.251953,-0.42383 z m 10.830078,2.31836 c -0.06608,0.002 -0.143883,0.0156 -0.234375,0.0449 -0.3785,0.23613 -0.549984,0.62126 -0.474609,1.07227 0.334812,0.31731 0.119625,1.06279 0.601562,1.16797 0.2625,-0.38838 0.683147,-0.71658 0.525391,-1.27149 -0.04156,-0.41185 0.04457,-1.02438 -0.417969,-1.01367 z m 4.187497,0.32227 c -0.30008,-0.0292 -0.616153,0.0622 -0.835934,0.27148 -0.272875,0.3201 -0.485469,0.71444 -0.558594,1.13281 -0.01941,1.05184 -0.29475,2.10149 -0.820313,3.01563 -0.21925,0.33545 -0.400625,0.73261 -0.75,0.95117 -0.477875,0.30488 -0.6275,-0.28651 -0.5625,-0.65039 0.03071,-0.49956 -0.508218,-0.90828 -0.941406,-0.55859 -0.531537,0.34343 -0.996687,0.77725 -1.53125,1.11718 -0.463825,0.27862 -0.795844,0.72132 -1.027344,1.20313 -0.313812,0.5401 -0.40914,1.1672 -0.416015,1.7832 -0.06812,0.84122 -0.112735,1.68444 -0.177735,2.52539 -0.141768,1.12885 -0.366878,2.32502 -1.095703,3.23633 -0.735156,0.92021 -1.723031,1.66699 -2.183594,2.7832 -0.367312,0.79546 -0.224328,1.69204 -0.08789,2.52344 0.148437,1.10916 0.393406,2.23985 1.011719,3.19141 0.350937,0.47528 0.54225,1.2147 0.117187,1.70508 -0.311187,0.3005 -0.732453,0.71914 -0.509766,1.18945 0.1842,0.37266 0.665047,0.21083 0.97461,0.37695 0.400375,0.2725 0.236265,0.85981 0.52539,1.21094 0.245138,0.38681 0.788516,0.32394 1.056641,-0.008 0.87515,-0.93733 1.718619,-1.91988 2.351563,-3.04102 0.285937,-0.42439 0.405406,-0.92484 0.613281,-1.38672 0.364825,-0.60409 0.591172,-1.27561 0.810547,-1.94336 0.189262,-0.65421 0.546797,-1.23643 0.802734,-1.86328 0.253625,-0.70315 0.569703,-1.38756 0.720703,-2.12304 0.192625,-0.66958 0.454235,-1.32173 0.677735,-1.98243 0.346,-0.72458 0.4275,-1.53527 0.453125,-2.32812 0.01881,-0.68044 0.01584,-1.37089 0.214843,-2.0293 0.2262,-0.79194 0.52836,-1.56222 0.896486,-2.29883 0.3026,-0.56607 0.35219,-1.21932 0.30469,-1.84765 -0.0829,-0.78904 0.22448,-1.53495 0.45117,-2.27344 0.3135,-0.81071 0.33734,-1.68684 0.40234,-2.54297 0.14369,-0.28887 0.009,-0.62956 -0.14844,-0.88281 -0.15323,-0.27835 -0.4382,-0.42782 -0.73828,-0.45703 z m -6.121091,0.92969 c -0.210543,-0.0269 -0.479492,0.13479 -0.542968,0.29296 0.152687,0.52163 0.84084,0.66167 0.802734,0.002 -0.02742,-0.19395 -0.133439,-0.27877 -0.259766,-0.29492 z m -18.113281,2.92382 c -0.369687,0.31657 -0.436765,0.76311 -0.603516,1.16211 -0.138999,0.49169 -0.490696,0.89547 -0.642578,1.38086 7.32e-4,0.0852 9.04e-4,0.17055 0.002,0.25586 l 0.002,0 c 0.445187,0.44475 1.1954,-0.96317 1.046875,-0.60156 0.241187,-0.34494 0.584234,-2.05808 0.396484,-1.12109 0.159125,-0.29282 0.359453,-1.13336 -0.201172,-1.07618 z m 27.207032,3.66797 c -0.3844,-0.0401 -0.67193,0.85441 -0.51367,0.81055 0.4665,0.41037 0.46677,-0.30418 0.68359,-0.73047 -0.0579,-0.0494 -0.11501,-0.0743 -0.16992,-0.0801 z m -12.199219,0.84961 c -0.211057,-0.002 -0.5575,0.63909 -0.636719,0.75586 -0.239563,0.37344 -0.158453,0.97333 -0.681641,1.16406 -0.160812,0.18219 -0.377844,0.30624 -0.300781,0.58399 0.195812,0.36643 0.682775,0.45519 0.785156,0.91992 0.69225,0.22381 1.181622,-0.78188 1.064453,-0.66406 -0.02563,-0.42632 0.427141,-0.77637 0.259766,-1.18946 -0.0885,-0.44912 -0.247969,-0.86055 -0.339844,-1.31054 -0.02556,-0.18641 -0.08004,-0.25923 -0.15039,-0.25977 z m -5.482422,0.85156 c -0.114563,0.0578 -0.229125,0.11563 -0.34375,0.17188 -0.1365,0.0523 -0.236485,0.16219 -0.333985,0.26562 -0.14625,0.16332 -0.328562,0.28518 -0.5,0.41993 -0.154437,0.13318 -0.281547,0.2966 -0.404296,0.45898 -0.304569,0.39551 -0.499579,0.85931 -0.681641,1.32031 -0.01563,0.22206 -0.03977,0.44402 -0.05664,0.66602 0.04706,0.15475 0.09703,0.30845 0.144532,0.46289 0.01131,0.14252 0.153437,0.0187 0.226562,-0.002 0.108125,-0.0526 0.233188,-0.0744 0.328125,-0.15235 0.186875,-0.25104 0.394453,-0.48587 0.611328,-0.71094 0.09831,-0.135 0.175109,-0.28428 0.263672,-0.42578 0.214437,-0.2642 0.441859,-0.5179 0.662109,-0.77734 0.05688,-0.17175 0.113672,-0.34388 0.169922,-0.51563 l -0.002,0 c 0.09494,-0.28283 0.189016,-0.5666 0.283203,-0.8496 -0.121875,-0.11088 -0.244437,-0.22116 -0.367187,-0.33204 z m 17.398441,0.11719 c -0.0452,0.003 -0.0894,0.0433 -0.11133,0.1543 0.39422,0.17062 0.24685,-0.16339 0.11133,-0.1543 z m 0.39062,0.6582 c -0.0449,-0.01 -0.10369,-0.008 -0.17773,0.01 0.15225,0.66672 0.49209,0.0578 0.17773,-0.01 z m -16.902342,0.9668 c -0.120916,-0.0172 -0.270157,0.0738 -0.402344,0.33789 -0.349375,0.34594 -0.658828,0.68505 -0.564453,1.21094 0.482907,0.10678 0.758527,-0.57938 1.125,-0.86524 0.167578,-0.32601 0.04332,-0.65489 -0.158203,-0.68359 z m 1.761718,0.60742 c -0.07194,-4.1e-4 -0.160787,0.01 -0.269531,0.0332 -0.04063,0.0714 -0.175406,0.1059 -0.121094,0.21484 0.543867,0.25621 0.894211,-0.24515 0.390625,-0.24805 z m -1.341797,0.3125 c -0.05963,-6.3e-4 -0.167873,0.0548 -0.33789,0.19336 -0.427313,0.30969 -0.413863,0.79605 -0.804688,1.11914 -0.209562,0.38238 -0.785672,0.50382 -0.802734,0.94141 0.461437,0.41887 0.839537,-0.12305 1.101562,-0.49024 0.13,-0.35743 0.433438,-0.64643 0.421875,-1.05664 0.343172,-0.20751 0.600757,-0.70513 0.421875,-0.70703 z m 14.683591,1.1875 c -0.18906,0.0608 -0.37784,0.12102 -0.5664,0.18164 -0.12132,0.21612 -0.26116,0.42205 -0.39453,0.63086 -0.25425,0.34677 -0.39272,0.75594 -0.5586,1.14844 -0.23337,0.37795 -0.392998,0.79509 -0.554686,1.20703 -0.07994,0.16794 -0.131012,0.34664 -0.128906,0.5332 -0.03812,0.19032 -0.05439,0.44399 0.154297,0.54493 0.11125,0.1175 0.298765,0.13481 0.439455,0.0625 0.15269,-0.0872 0.31287,-0.17178 0.42187,-0.31641 0.32345,-0.41722 0.6041,-0.87197 0.80078,-1.36328 0.21444,-0.69739 0.57832,-1.35263 0.67188,-2.08398 l -0.002,0 c -0.095,-0.18207 -0.18908,-0.3628 -0.28321,-0.54493 z m -14.988278,0.83008 c -0.129009,0.0196 -0.257391,0.0792 -0.361328,0.14453 -0.1875,0.18327 -0.252282,0.45235 -0.378906,0.67578 -0.134538,0.28648 -0.06586,0.60638 -0.13086,0.90625 -0.09969,0.44535 -0.338672,0.84947 -0.419922,1.30079 -0.08187,0.32651 0.0045,0.65921 -0.04297,0.98828 -0.05681,0.4165 -0.121407,0.83407 -0.214844,1.24414 -0.09,0.43018 -0.215328,0.89334 -0.0332,1.3164 0.09275,0.26882 0.419078,0.27007 0.642578,0.1875 0.445787,-0.14842 0.730109,-0.55747 0.951172,-0.94922 0.133937,-0.29127 0.32964,-0.54576 0.501953,-0.81445 0.157312,-0.2085 0.157578,-0.47362 0.205078,-0.71875 0.07956,-0.56307 0.274531,-1.10258 0.347656,-1.66601 0.03737,-0.67272 -0.07559,-1.35122 -0.285156,-1.99024 l 0.0078,0 c -0.111437,-0.1995 -0.23864,-0.39811 -0.423828,-0.53711 -0.106409,-0.0882 -0.236226,-0.10751 -0.365234,-0.0879 z m 18.441408,0.14649 c -0.0933,-9.3e-4 -0.18649,0.026 -0.26367,0.0859 -0.7146,0.26515 -1.19722,0.87722 -1.73829,1.37891 -0.61735,0.48777 -1.10687,1.11 -1.57812,1.73437 -0.34967,0.40946 -0.61956,0.87499 -0.92188,1.31836 -0.47571,0.5549 -0.93187,1.1341 -1.281245,1.7793 -0.385075,0.60924 -0.500719,1.33427 -0.808594,1.97852 -0.31745,0.53638 -0.682359,1.04659 -0.990234,1.58984 -0.216944,0.40567 -0.456156,0.79945 -0.746094,1.1582 -0.250187,0.2923 -0.391875,0.65316 -0.625,0.95703 -0.286125,0.36249 -0.505125,0.78424 -0.617187,1.23243 -0.130882,0.4385 0.462796,0.61126 0.685546,0.26757 0.335413,-0.47903 0.778626,-0.86856 1.148438,-1.32031 0.216944,-0.30342 0.435938,-0.6044 0.679688,-0.88672 0.221818,-0.30525 0.438781,-0.61279 0.667968,-0.91211 0.177063,-0.31923 0.36975,-0.63036 0.570313,-0.93554 0.346937,-0.5246 0.476078,-1.14744 0.720701,-1.71875 0.24226,-0.44852 0.44914,-0.93036 0.80664,-1.30274 0.30876,-0.25423 0.59921,-0.52884 0.89258,-0.80078 0.43546,-0.32136 0.83106,-0.73842 1,-1.26367 0.069,-0.54399 0.28392,-1.0762 0.6543,-1.48633 0.27787,-0.37679 0.7272,-0.55722 1.04883,-0.88672 0.21763,-0.40267 0.56018,-0.72356 0.78125,-1.125 l -0.002,0 c 0.0709,-0.10775 0.15735,-0.20117 0.23047,-0.31054 0.23511,-0.28468 -0.0346,-0.52848 -0.31445,-0.53125 z m -23.175783,0.4707 c -0.147929,0.0426 -0.350547,0.74217 -0.285156,0.83203 0.0475,0.31 0.498406,1.16505 0.644531,0.42773 -0.115438,-0.34968 -0.4145,-0.65757 -0.242188,-1.0371 -0.02522,-0.17863 -0.06788,-0.23685 -0.117187,-0.22266 z m 4.96875,6.64258 c -0.259125,-0.0731 -0.231703,0.31406 -0.267578,0.47656 0.159187,0.61462 -0.139485,-0.45763 0.267578,-0.47656 z m 0.121094,2.33398 c -0.05335,0.006 -0.108961,0.0248 -0.167969,0.0566 -0.216063,0.0344 -0.596656,0.18816 -0.542969,0.4961 l -0.002,0 c 0.25155,0.21849 0.691683,0.81268 0.767578,1.02539 0.515419,-0.34038 -0.431821,-0.25483 0.04297,-0.6836 -0.1835,-0.54343 0.687687,0.77541 0.5,-0.0644 0.006,-0.34519 -0.224203,-0.87404 -0.597656,-0.83008 z m 0.05469,1.57813 c -0.0271,0.0179 -0.04046,0.0323 -0.07617,0.0527 0.08729,0.0526 0.102726,0.0217 0.07617,-0.0527 z"
       style="fill:#006233"
       inkscape:connector-curvature="0" />
    <path
       style="fill:#ffc400"
       inkscape:connector-curvature="0"
       id="path8"
       class="st1"
       d="m 97.679998,23.533333 c -0.133333,27.493334 -22.48,49.733334 -49.999999,49.733334 -27.520001,0 -49.8666657,-22.24 -49.999999,-49.733334 C -3.4133333,27.72 -4,32.093333 -4,36.6 c 0,28.533333 23.119998,51.68 51.679999,51.68 28.559999,0 51.679999,-23.12 51.679999,-51.68 0,-4.506667 -0.586666,-8.906667 -1.68,-13.066667 z" />
    <path
       style="fill:#ffc400"
       inkscape:connector-curvature="0"
       id="path10"
       d="m 47.679998,3.266736 -4.490663,13.819064 -14.530402,5.3e-4 11.755015,8.5412 -4.489618,13.819402 11.755668,-8.540309 11.755667,8.54031 -4.489618,-13.819403 11.75502,-8.5412 -14.530405,-5.3e-4 z" />
  </g>
</svg>
