<?xml version="1.0" encoding="UTF-8" ?>
<!DOCTYPE svg PUBLIC "-//W3C//DTD SVG 1.1//EN" "http://www.w3.org/Graphics/SVG/1.1/DTD/svg11.dtd">
<svg width="900pt" height="350pt" viewBox="0 0 900 350" version="1.1" xmlns="http://www.w3.org/2000/svg">
<g id="#75b2ddfe">
<path fill="#75b2dd" opacity="1.00" d=" M 88.98 22.03 C 90.61 21.26 92.25 20.49 93.97 19.95 C 95.51 20.87 97.05 21.85 98.36 23.08 C 97.88 24.62 96.57 25.72 96.06 27.23 C 95.90 29.51 96.00 31.79 95.98 34.08 C 93.68 34.22 91.38 34.11 89.08 33.91 C 88.96 29.95 89.01 25.99 88.98 22.03 Z" />
<path fill="#75b2dd" opacity="1.00" d=" M 114.35 30.61 C 116.67 28.66 119.17 25.70 122.54 27.30 C 124.43 29.28 126.77 31.78 125.94 34.77 C 125.26 36.65 123.65 38.25 121.77 38.94 C 118.70 39.84 116.49 37.08 113.92 35.94 C 114.08 34.18 113.69 32.29 114.35 30.61 Z" />
<path fill="#75b2dd" opacity="1.00" d=" M 36.47 36.05 C 39.16 35.58 42.08 34.77 44.66 36.13 C 45.88 37.58 46.81 39.25 47.98 40.74 C 46.57 44.18 43.67 46.28 40.25 47.52 C 37.35 46.13 35.35 43.65 33.82 40.90 C 33.95 39.03 35.74 37.73 36.47 36.05 Z" />
<path fill="#75b2dd" opacity="1.00" d=" M 278.80 51.76 C 281.56 50.61 284.24 52.70 286.86 53.35 C 286.92 54.84 286.99 56.32 287.10 57.81 C 284.43 60.83 280.12 60.42 276.79 58.82 C 277.15 56.41 277.33 53.81 278.80 51.76 Z" />
<path fill="#75b2dd" opacity="1.00" d=" M 434.00 64.11 C 437.06 63.67 440.61 62.44 443.34 64.54 C 444.68 67.05 446.21 69.61 446.10 72.57 C 442.73 74.19 438.95 74.30 435.30 73.89 C 432.68 71.51 434.52 67.28 434.00 64.11 Z" />
<path fill="#75b2dd" opacity="1.00" d=" M 510.45 67.23 C 512.88 66.91 515.35 66.54 517.80 66.96 C 519.17 68.16 520.46 69.46 521.99 70.48 C 521.56 73.22 523.19 76.94 520.69 78.87 C 517.46 79.17 514.22 78.96 511.00 79.01 C 510.15 77.05 509.21 75.07 508.98 72.93 C 509.13 70.96 509.96 69.13 510.45 67.23 Z" />
<path fill="#75b2dd" opacity="1.00" d=" M 255.34 69.00 C 257.11 69.01 258.88 69.01 260.66 69.00 C 261.69 70.17 262.77 71.30 263.81 72.47 C 264.12 74.28 264.00 76.13 264.08 77.95 C 261.73 78.84 259.87 81.45 257.20 81.00 C 255.52 80.24 253.94 79.29 252.33 78.43 C 250.86 74.82 252.33 71.21 255.34 69.00 Z" />
<path fill="#75b2dd" opacity="1.00" d=" M 12.47 75.55 C 13.48 71.18 18.64 69.07 22.75 70.21 C 23.14 74.07 23.08 77.95 22.82 81.82 C 19.89 82.03 16.96 82.01 14.02 82.03 C 13.31 79.96 11.38 77.78 12.47 75.55 Z" />
<path fill="#75b2dd" opacity="1.00" d=" M 115.02 82.92 C 117.80 83.04 121.10 82.47 123.15 84.86 C 124.73 87.10 123.75 90.07 124.01 92.63 C 122.12 93.00 120.49 93.96 119.01 95.14 C 117.02 93.11 114.17 92.86 111.62 91.97 C 112.64 88.91 114.06 86.01 115.02 82.92 Z" />
<path fill="#75b2dd" opacity="1.00" d=" M 563.66 90.94 C 565.15 88.01 567.07 85.38 570.11 83.90 C 571.91 83.98 573.16 85.58 574.65 86.44 C 576.77 88.62 575.96 91.93 575.88 94.67 C 573.64 97.31 569.50 95.49 566.43 96.01 C 565.60 94.27 564.66 92.59 563.66 90.94 Z" />
<path fill="#75b2dd" opacity="1.00" d=" M 322.94 87.94 C 325.91 85.36 329.14 89.04 331.78 90.42 C 332.54 92.33 331.46 94.23 330.90 96.02 C 328.09 96.03 325.27 96.04 322.47 95.76 C 322.35 93.18 319.95 89.70 322.94 87.94 Z" />
<path fill="#75b2dd" opacity="1.00" d=" M 353.05 89.48 C 355.35 88.78 357.28 86.75 359.80 86.95 C 361.60 87.94 363.28 89.12 365.07 90.13 C 364.98 91.92 365.15 93.74 364.77 95.50 C 363.73 96.68 362.67 97.82 361.66 99.01 C 359.88 98.99 358.10 98.99 356.33 99.01 C 353.33 96.71 351.78 93.21 353.05 89.48 Z" />
<path fill="#75b2dd" opacity="1.00" d=" M 295.29 100.93 C 297.21 100.67 299.88 100.17 300.80 102.44 C 302.50 104.26 300.50 106.46 299.99 108.35 C 297.88 107.74 295.12 107.50 294.38 105.01 C 294.63 103.64 294.94 102.27 295.29 100.93 Z" />
<path fill="#75b2dd" opacity="1.00" d=" M 413.29 103.12 C 416.84 102.81 420.42 103.05 423.98 103.02 C 423.46 106.22 425.33 110.49 422.69 112.89 C 420.17 113.14 417.64 112.98 415.13 113.00 C 413.92 110.00 409.81 105.97 413.29 103.12 Z" />
<path fill="#75b2dd" opacity="1.00" d=" M 602.40 107.15 C 604.16 105.99 605.74 104.59 607.13 102.99 C 609.33 102.99 611.53 102.99 613.74 103.00 C 614.85 105.39 617.20 107.81 615.82 110.61 C 615.05 113.31 612.05 113.81 609.98 115.17 C 606.62 113.31 604.20 110.49 602.40 107.15 Z" />
<path fill="#75b2dd" opacity="1.00" d=" M 305.36 106.37 C 307.57 105.14 309.99 105.02 312.30 106.08 C 312.47 109.58 312.09 113.87 308.42 115.48 C 306.64 117.27 304.59 115.21 303.27 113.92 C 304.29 111.50 304.75 108.91 305.36 106.37 Z" />
<path fill="#75b2dd" opacity="1.00" d=" M 317.37 108.24 C 319.37 107.41 321.35 108.59 323.22 109.21 C 321.97 112.90 322.08 117.60 318.94 120.29 C 312.98 119.74 312.81 110.82 317.37 108.24 Z" />
<path fill="#75b2dd" opacity="1.00" d=" M 228.88 112.06 C 231.72 110.60 234.95 111.04 238.03 110.94 C 239.05 113.18 239.08 115.68 239.67 118.05 C 237.42 121.22 233.49 120.24 230.71 118.32 C 228.26 117.26 229.24 114.14 228.88 112.06 Z" />
<path fill="#75b2dd" opacity="1.00" d=" M 332.44 111.47 C 335.41 110.62 339.07 110.47 341.78 112.24 C 343.46 114.36 343.07 117.18 342.96 119.69 C 341.64 121.24 339.51 121.93 337.83 123.05 C 335.48 122.59 332.92 121.46 331.34 119.61 C 331.25 117.03 329.21 112.74 332.44 111.47 Z" />
<path fill="#75b2dd" opacity="1.00" d=" M 484.99 112.03 C 488.37 110.59 492.12 110.86 495.70 111.12 C 498.32 113.50 496.50 117.74 496.92 120.91 C 493.36 120.99 489.79 121.15 486.24 120.92 C 483.74 118.82 485.50 114.90 484.99 112.03 Z" />
<path fill="#75b2dd" opacity="1.00" d=" M 247.41 112.12 C 251.26 110.69 254.47 114.14 255.95 117.24 C 257.07 121.00 254.20 123.73 251.58 125.88 C 246.10 127.84 240.27 119.75 244.26 115.29 C 245.21 114.14 246.27 113.08 247.41 112.12 Z" />
<path fill="#75b2dd" opacity="1.00" d=" M 499.39 122.26 C 502.25 121.76 505.37 121.63 508.03 123.01 C 507.99 125.96 508.00 128.92 508.00 131.87 C 505.41 132.14 502.87 132.88 500.26 132.84 C 498.32 131.50 497.54 129.19 496.17 127.37 C 497.47 125.82 498.24 123.92 499.39 122.26 Z" />
<path fill="#75b2dd" opacity="1.00" d=" M 527.34 124.99 C 530.31 124.97 533.89 124.50 535.92 127.22 C 536.11 129.39 535.99 131.58 536.00 133.77 C 533.53 135.09 531.35 137.78 528.26 137.00 C 525.32 136.01 522.81 133.47 522.99 130.20 C 524.02 128.15 525.86 126.70 527.34 124.99 Z" />
<path fill="#75b2dd" opacity="1.00" d=" M 713.38 125.20 C 717.18 123.59 718.80 128.29 721.39 130.07 C 720.07 135.13 714.45 140.02 709.20 136.96 C 708.88 134.70 707.80 132.51 708.05 130.20 C 709.08 127.89 711.44 126.65 713.38 125.20 Z" />
<path fill="#75b2dd" opacity="1.00" d=" M 763.38 131.04 C 765.55 130.99 767.73 130.98 769.92 130.97 C 772.97 134.22 772.44 139.14 770.87 142.97 C 767.25 143.27 763.62 143.25 760.00 142.99 C 758.79 140.63 758.95 137.97 758.99 135.40 C 760.57 134.08 762.05 132.62 763.38 131.04 Z" />
<path fill="#75b2dd" opacity="1.00" d=" M 199.04 134.32 C 202.72 133.78 206.77 132.57 210.18 134.72 C 211.64 137.20 210.79 140.24 211.02 142.96 C 207.72 144.11 203.25 145.15 200.47 142.43 C 198.69 140.08 198.94 137.09 199.04 134.32 Z" />
<path fill="#75b2dd" opacity="1.00" d=" M 409.20 142.70 C 406.38 138.49 410.63 133.60 414.93 133.01 C 417.50 133.51 419.13 135.71 421.00 137.34 C 420.98 138.87 420.99 140.40 421.04 141.94 C 417.57 143.93 412.66 145.36 409.20 142.70 Z" />
<path fill="#75b2dd" opacity="1.00" d=" M 794.29 145.03 C 796.30 147.05 798.92 148.09 801.79 147.88 C 802.56 149.99 803.71 152.38 802.60 154.59 C 801.53 157.85 797.37 158.45 794.42 157.87 C 792.62 155.91 789.37 154.29 789.93 151.19 C 791.08 148.97 793.06 147.24 794.29 145.03 Z" />
<path fill="#75b2dd" opacity="1.00" d=" M 541.47 160.21 C 544.30 158.40 547.11 161.17 548.75 163.32 C 550.34 165.09 550.13 167.56 549.96 169.76 C 547.76 171.73 544.31 172.52 541.44 171.75 C 539.41 170.05 536.72 168.03 536.96 165.07 C 536.69 162.42 539.79 161.58 541.47 160.21 Z" />
<path fill="#75b2dd" opacity="1.00" d=" M 677.25 162.00 C 679.02 162.00 680.81 162.00 682.60 162.01 C 683.38 162.81 684.17 163.60 684.99 164.38 C 685.00 166.79 685.00 169.20 684.99 171.62 C 684.17 172.40 683.38 173.19 682.60 173.99 C 680.81 173.99 679.03 174.00 677.25 174.00 C 676.50 173.23 675.75 172.46 675.01 171.70 C 674.99 169.23 674.99 166.77 675.01 164.30 C 675.75 163.54 676.50 162.77 677.25 162.00 Z" />
<path fill="#75b2dd" opacity="1.00" d=" M 559.81 177.20 C 561.95 175.41 564.34 171.89 567.55 173.25 C 569.82 175.04 572.61 177.50 571.98 180.73 C 571.23 181.89 570.39 182.98 569.64 184.13 C 566.10 182.38 560.60 181.92 559.81 177.20 Z" />
<path fill="#75b2dd" opacity="1.00" d=" M 869.68 177.76 C 872.01 174.29 876.99 174.37 879.76 177.20 C 881.42 179.03 880.91 181.61 881.10 183.87 C 877.61 186.68 873.05 186.41 869.11 184.81 C 868.67 182.45 867.65 179.71 869.68 177.76 Z" />
<path fill="#75b2dd" opacity="1.00" d=" M 559.13 182.64 C 562.58 183.43 566.15 184.19 569.18 186.09 C 567.96 187.51 566.98 189.10 566.79 191.00 C 564.18 191.00 561.57 191.00 558.97 191.02 C 557.49 188.33 558.04 185.35 559.13 182.64 Z" />
<path fill="#75b2dd" opacity="1.00" d=" M 598.04 233.89 C 597.96 230.30 600.95 228.18 603.92 226.88 C 605.51 227.90 607.20 228.77 608.99 229.40 C 608.98 231.84 609.17 234.30 608.83 236.72 C 607.54 238.49 605.99 240.30 603.94 241.13 C 600.25 240.65 599.08 236.89 598.04 233.89 Z" />
<path fill="#75b2dd" opacity="1.00" d=" M 594.95 320.96 C 597.21 321.00 599.50 320.88 601.77 321.09 C 603.58 322.30 603.78 324.59 604.47 326.47 C 604.91 327.60 606.14 328.51 605.99 329.83 C 603.75 331.34 600.73 330.98 598.87 333.23 C 596.60 331.29 593.40 331.46 591.14 329.75 C 592.56 326.92 594.46 324.26 594.95 320.96 Z" />
</g>
</svg>
