<?xml version="1.0" encoding="UTF-8" standalone="no"?>
<svg
   xmlns:dc="http://purl.org/dc/elements/1.1/"
   xmlns:cc="http://creativecommons.org/ns#"
   xmlns:rdf="http://www.w3.org/1999/02/22-rdf-syntax-ns#"
   xmlns:svg="http://www.w3.org/2000/svg"
   xmlns="http://www.w3.org/2000/svg"
   xmlns:xlink="http://www.w3.org/1999/xlink"
   xmlns:sodipodi="http://sodipodi.sourceforge.net/DTD/sodipodi-0.dtd"
   xmlns:inkscape="http://www.inkscape.org/namespaces/inkscape"
   width="502.70001"
   height="597.23126"
   id="svg2"
   version="1.1"
   inkscape:version="0.47 r22583"
   sodipodi:docname="ZZ2.svg">
  <metadata
     id="metadata12">
    <rdf:RDF>
      <cc:Work
         rdf:about="">
        <dc:format>image/svg+xml</dc:format>
        <dc:type
           rdf:resource="http://purl.org/dc/dcmitype/StillImage" />
      </cc:Work>
    </rdf:RDF>
  </metadata>
  <defs
     id="defs10">
    <inkscape:perspective
       sodipodi:type="inkscape:persp3d"
       inkscape:vp_x="0 : 300 : 1"
       inkscape:vp_y="0 : 1000 : 0"
       inkscape:vp_z="750 : 300 : 1"
       inkscape:persp3d-origin="375 : 200 : 1"
       id="perspective14" />
    <inkscape:perspective
       id="perspective2856"
       inkscape:persp3d-origin="0.5 : 0.33333333 : 1"
       inkscape:vp_z="1 : 0.5 : 1"
       inkscape:vp_y="0 : 1000 : 0"
       inkscape:vp_x="0 : 0.5 : 1"
       sodipodi:type="inkscape:persp3d" />
    <inkscape:perspective
       id="perspective2838"
       inkscape:persp3d-origin="0.5 : 0.33333333 : 1"
       inkscape:vp_z="1 : 0.5 : 1"
       inkscape:vp_y="0 : 1000 : 0"
       inkscape:vp_x="0 : 0.5 : 1"
       sodipodi:type="inkscape:persp3d" />
  </defs>
  <sodipodi:namedview
     pagecolor="#ffffff"
     bordercolor="#666666"
     borderopacity="1"
     objecttolerance="10"
     gridtolerance="10"
     guidetolerance="10"
     inkscape:pageopacity="0"
     inkscape:pageshadow="2"
     inkscape:window-width="1280"
     inkscape:window-height="1004"
     id="namedview8"
     showgrid="false"
     inkscape:zoom="0.39333333"
     inkscape:cx="-88.729191"
     inkscape:cy="81.300327"
     inkscape:window-x="-8"
     inkscape:window-y="-8"
     inkscape:window-maximized="1"
     inkscape:current-layer="svg2" />
  <path
     d="M 465.35,0.85000002 463.19375,9.6625 l 7.5,9 c 0,0 -17.15998,20.3475 -22.5,23.6875 -5.32996,3.33 -12.1875,2.15625 -12.1875,2.15625 l -32.15625,14.5 -8.65625,0.65625 -8.6875,6.6875 c 0,0 -3.31252,2.65999 -7.3125,2 -3.99999,-0.67004 -12.1875,-1.84375 -12.1875,-1.84375 l -5.15625,16.5 -9.84375,4.5 c 0,0 -7.14249,23.66997 -9.8125,25 -2.66,1.33998 -9,5.15623 -9,7.15625 0,1.99996 -2.67754,26.11751 -4.1875,28.6875 -1.67,2.82999 -7.15624,10.15996 -8.15625,12 -1.28002,2.33999 -2.33001,14.15628 -3,16.15625 -0.67004,2.00002 -17,16.34375 -17,16.34375 l -8,11.65625 -6.84375,5.65625 -12.8125,16.84375 -4.34375,-1.34375 -11.65625,12.6875 -20.5,-15.5 -11,6.5 -13,13.65625 -0.1875,4.65625 c 0,0 -10.9725,12.01372 -14.3125,13.34375 -3.32999,1.33998 -23,20 -23,20 L 161.50625,276.35 c 0,0 -1.84001,0.98245 -2.5,4.3125 -0.66999,3.33 9,6.5 9,6.5 0,0 -4.14248,5.18753 -8.8125,7.1875 -0.71832,0.3083 -1.79754,1.03437 -3.0625,2.03125 l 183.53125,0 -1.96875,-6.375 c 0,0 6.65629,-19.49628 8.15625,-24.65625 1.50001,-5.16003 2.84375,-21.1875 2.84375,-21.1875 0,0 18.4725,-31.15248 21.8125,-35.8125 3.32999,-4.66998 16.6875,-24.6875 16.6875,-24.6875 0,0 -0.68752,-14.6525 1.3125,-17.3125 2.00002,-2.67001 7.6875,-3.1875 7.6875,-3.1875 l 4.8125,-5.3125 -0.65625,-1.1875 -3.15625,3.5 -4.5,0.1875 -0.34375,-13.6875 c 0,0 0.34376,-3.31625 4.34375,-6.65625 3.99998,-3.33 13.48625,-8.15627 15.15625,-6.65625 3.77004,3.39 3.15625,5.5 3.15625,5.5 l -3.65625,4.15625 2.15625,2.34375 9.34375,-9.5 -1.65625,-2 -2.34375,2 -3.34375,-3.1875 c 0,0 0.65999,-7.49001 5,-12 4.16002,-4.33001 16.6875,-6.3125 16.6875,-6.3125 l 5.3125,3.3125 0,4 -6.65625,3 1.5,3 7.15625,-3.15625 1.34375,-6.15625 6,-4 -2.65625,-3.34375 -3.34375,3.5 -5,-7.34375 c 0,0 3.84376,-4.49998 7.84375,-6.5 3.63001,-1.8095 6.8125,-1.8125 6.8125,-1.8125 l 11,20.8125 16.5,7 12.84375,-6.65625 -4.65625,-66.84375 10.65625,-5.5 -3.5,-6 -8.65625,5.34375 -3.1875,-11 5.84375,-18 -10,-14.84375 c 0,0 -2.15621,1 -6.15625,1 C 472.19376,4.16246 465.35,0.85000002 465.35,0.85000002 z"
     id="rect4"
     style="fill:#ce1126;fill-opacity:1;stroke:#ce1126;stroke-width:1.70000005;stroke-miterlimit:4;stroke-opacity:1;stroke-dasharray:none" />
  <path
     style="fill:#ffffff;stroke:#ce1126;stroke-width:1.70000005;stroke-miterlimit:4;stroke-opacity:1;stroke-dasharray:none"
     d="m 156.13125,296.38125 c -6.94128,5.4702 -20.28125,19.28125 -20.28125,19.28125 0,0 -27.85999,21.88 -31.5,24 -3.99998,2.32998 -41.34374,39.3437 -42.84375,43.84375 -0.83997,2.49997 3.6875,8.15625 3.6875,8.15625 l -1,6.5 0,6.84375 3.8125,12.15625 -0.8125,7.84375 0,11.34375 c 0,2.65996 -6,4.65625 -6,4.65625 0,0 -10.68753,-0.66004 -12.6875,0 -1.26001,0.41998 -11.5175,6.455 -18.9375,10.875 -4.35001,2.58 -7.71875,4.625 -7.71875,4.625 L 0.85000002,483.1625 c 0,0 19.41874998,16.62631 40.71874998,34.90625 24.92001,21.3691 52.39753,45.0075 54.4375,46.9375 2.94426,2.79507 28.02171,27.12337 33.59375,31.375 l 2.59375,0 c 8.27272,-5.17378 41.5,-40.03125 41.5,-40.03125 l 48.15625,-30.6875 -2,-5.15625 -5.15625,2.15625 -0.84375,3.84375 c 0,0 -11.48625,7.48625 -14.15625,8.15625 -2.66001,0.6701 -7.17374,-5.6527 -9.84375,-8.3125 -2.67001,-2.67 -4,-10.6873 -4,-12.6875 l 0,-2 1.15625,-5 -0.15625,-9.5 -1.5,0.34375 -1.15625,7.59375 -1,3.0625 -8.1875,-0.3125 -0.65625,-11.6875 -2.65625,-0.3125 -0.6875,11.8125 -17.15625,0.5 -0.65625,-8.15625 -8.6875,0.34375 0.6875,-20 7.65625,-0.34375 10,7 1,-1.65625 -11.15625,-8.6875 -20,1.84375 -0.1875,-3.84375 10.84375,-7.65625 -0.15625,-2.15625 -10.5,7.65625 0.5,-2.15625 10,-8 2,0.65625 2.65625,-2.15625 2.84375,2.65625 0.6875,-2.21875 -2.375,-1.4375 0.0625,-0.125 0.78125,-1.875 2.46875,0.1875 1.375,2.46875 2.3125,-1.15625 -0.15625,5.65625 3.34375,0 0,-4.65625 11.8125,21.65625 6.1875,-0.5 c 0,0 6.67001,-7.75375 10,-7.84375 6.00001,-0.17 5.99998,15.3475 8,16.6875 1.99996,1.32999 4.39251,-2.36375 5.3125,-1.34375 1.33003,1.49999 -1.3125,24.65625 -1.3125,24.65625 l 4,-0.5 2.65625,-20.15625 12,0 5.34375,-0.65625 3,-3.1875 4.15625,-0.15625 5.5,-5.84375 4,-0.15625 0,-4 3.34375,-4.65625 4.3125,0 7.6875,-5.6875 c 0,0 -0.65996,-4.98625 2,-5.65625 2.67001,-0.65998 6.5,4 6.5,4 l 7,1.15625 10.5,-10.5 2,-3.3125 1.3125,-6.5 9.34375,-13.5 1.15625,-14.84375 57.5,-72.84375 -3.65625,-4.3125 -37.65625,49.3125 -4.34375,-1.65625 -7,0.65625 -8.65625,-6.3125 -1.34375,-10 -4.84375,0.15625 2.5,25.15625 -4.15625,1.5 -1.5,-4.15625 -1.34375,0 0.34375,5 -3.15625,0.84375 -1.5,-5 -1.6875,0.8125 1,5 -4.3125,1 -1.34375,-9.65625 -2.15625,0.34375 1.5,10.15625 -7,1.34375 -3,-15 -2,1 2.15625,14.65625 -6.84375,2.84375 -3,-14.84375 -2.15625,1.15625 2.84375,14.34375 -7.5,1.65625 -3.34375,-11.5 2.5,-0.8125 -2.15625,-4.1875 -5.84375,1.5 0.5,4.84375 2.34375,-0.65625 2.65625,12.15625 -10,2.34375 -2.65625,-11.1875 -2.1875,0.6875 2.1875,11.3125 -1.84375,0.84375 -2.84375,-10 -1.5,0.5 2,9.84375 -3.15625,0.8125 -12.84375,-26.8125 3.84375,-0.5 5.5,12.8125 1,-0.65625 -4,-10.34375 0.34375,-13.3125 2.8125,-0.5 2.84375,19.65625 1.65625,-0.15625 -1.15625,-20.6875 3.5,0.1875 2.84375,19.5 2.15625,0 -4.15625,-46.5 -3,0 1.8125,21.8125 -4.3125,0.6875 c 0,0 -2.49473,-24.59872 -1.59375,-29.71875 l -2.90625,9.375 1.15625,20.15625 -1.5,0.5 -0.65625,-9 -6.34375,-5.15625 c 0,0 4.49998,-24.99626 6.5,-25.65625 1.99997,-0.66999 40.34373,-5.1875 42.34375,-5.1875 1.99997,0 9.8125,2.1875 9.8125,2.1875 l 1,8.5 2.5,-0.1875 -0.65625,-13.15625 c 0,0 0.35748,-0.0663 0.9375,-0.15625 3.02097,-0.40998 12.37878,-1.54016 13.21875,0 1.31102,2.41001 1.84375,25.15625 1.84375,25.15625 l 5,-0.34375 -1.65625,-27.65625 30.3125,-4.65625 3,21.8125 6,-1.15625 L 324.85,310.35 l 7,-0.6875 8,-12.65625 -0.1875,-0.625 -183.53125,0 z"
     id="rect6" />
  <g
     style="fill:#ffcc00;overflow:visible"
     transform="matrix(7.8794709,0,0,8.1414045,134.52119,393.37577)"
     id="g2883">
    <use
       height="1500"
       width="600"
       x="0"
       xlink:href="#s"
       y="-6"
       id="use2885" />
    <use
       height="1500"
       width="600"
       x="0"
       xlink:href="#s"
       y="6"
       id="use2887" />
    <g
       id="g2889">
      <use
         height="1500"
         width="600"
         y="0"
         xlink:href="#s"
         x="-6"
         id="use2891" />
      <use
         height="1500"
         width="600"
         y="0"
         x="0"
         xlink:href="#s"
         transform="matrix(-0.809017,-0.5877853,0.5877853,-0.809017,-3,-5.1961524)"
         id="use2893" />
      <use
         height="1500"
         width="600"
         y="0"
         x="0"
         xlink:href="#s"
         transform="matrix(-0.809017,0.5877853,-0.5877853,-0.809017,-5.1961524,-3)"
         id="use2895" />
      <use
         height="1500"
         width="600"
         y="0"
         x="0"
         xlink:href="#s"
         transform="matrix(0.309017,0.9510565,-0.9510565,0.309017,-5.1961524,3)"
         id="use2897" />
      <use
         height="1500"
         width="600"
         y="0"
         x="0"
         xlink:href="#s"
         transform="matrix(0.309017,0.9510565,-0.9510565,0.309017,-3,5.1961524)"
         id="use2899" />
    </g>
    <g
       transform="scale(-1,1)"
       id="g2901">
      <use
         xlink:href="#s"
         x="-6"
         id="use2903"
         y="0"
         width="600"
         height="1500" />
      <use
         xlink:href="#s"
         transform="matrix(-0.809017,-0.5877853,0.5877853,-0.809017,-3,-5.1961524)"
         id="use2905"
         x="0"
         y="0"
         width="600"
         height="1500" />
      <use
         xlink:href="#s"
         transform="matrix(-0.809017,0.5877853,-0.5877853,-0.809017,-5.1961524,-3)"
         id="use2907"
         x="0"
         y="0"
         width="600"
         height="1500" />
      <use
         xlink:href="#s"
         transform="matrix(0.309017,0.9510565,-0.9510565,0.309017,-5.1961524,3)"
         id="use2909"
         x="0"
         y="0"
         width="600"
         height="1500" />
      <use
         xlink:href="#s"
         transform="matrix(0.309017,0.9510565,-0.9510565,0.309017,-3,5.1961524)"
         id="use2911"
         x="0"
         y="0"
         width="600"
         height="1500" />
    </g>
  </g>
</svg>
