<?xml version="1.0" encoding="UTF-8" ?>
<!DOCTYPE svg PUBLIC "-//W3C//DTD SVG 1.1//EN" "http://www.w3.org/Graphics/SVG/1.1/DTD/svg11.dtd">
<svg width="1010pt" height="1528pt" viewBox="0 0 1010 1528" version="1.1" xmlns="http://www.w3.org/2000/svg">
<g id="#000066ff">
<path fill="#000066" opacity="1.00" d=" M 448.42 0.00 L 454.80 0.00 C 456.59 0.90 458.38 2.16 458.84 4.25 C 461.02 11.29 462.90 18.42 464.92 25.51 C 472.00 24.63 479.07 23.60 486.15 22.68 C 488.42 22.29 490.94 22.63 492.61 24.37 C 497.21 28.79 501.62 33.40 506.13 37.91 C 508.13 39.82 510.00 42.47 513.08 42.43 C 524.06 43.46 535.05 44.52 546.04 45.50 C 553.37 46.13 557.71 53.16 564.26 55.65 C 571.43 57.13 578.75 57.80 585.97 59.09 C 589.44 59.66 592.03 62.24 594.83 64.15 C 604.94 71.67 615.84 78.23 624.79 87.20 C 630.08 92.56 636.69 96.75 640.97 103.02 C 651.82 123.60 662.22 144.41 673.05 165.00 C 674.34 167.59 676.20 171.10 673.63 173.56 C 661.70 185.76 649.45 197.65 637.51 209.83 C 637.14 225.83 636.29 241.82 635.97 257.82 C 646.33 267.19 656.31 276.98 666.60 286.43 C 669.45 289.15 668.26 293.51 668.53 297.01 C 668.75 305.60 667.93 314.26 668.93 322.80 C 674.89 342.52 681.33 362.10 687.34 381.82 C 688.01 384.16 689.23 386.31 690.80 388.19 C 699.29 398.67 707.47 409.41 716.01 419.86 C 718.70 419.18 722.05 418.29 724.09 420.82 C 731.63 428.30 739.09 435.87 746.65 443.34 C 748.16 444.71 749.31 446.60 748.80 448.73 C 747.22 460.20 745.28 471.63 743.69 483.10 C 743.27 484.60 744.23 485.86 745.00 487.07 C 748.17 491.85 751.79 496.34 754.84 501.22 C 756.67 504.10 756.47 507.64 756.79 510.91 C 757.71 522.59 758.70 534.27 759.67 545.94 C 759.62 547.38 761.12 548.09 762.01 548.98 C 767.67 553.29 773.47 557.44 779.11 561.79 C 780.91 563.10 782.17 564.98 782.98 567.04 C 785.39 572.82 787.73 578.63 790.20 584.40 C 799.68 586.04 809.15 587.79 818.59 589.68 C 821.16 590.00 822.92 592.31 822.97 594.84 C 824.28 606.50 825.21 618.21 826.36 629.89 C 834.53 631.29 842.81 631.85 851.01 632.97 C 854.38 633.29 857.21 635.30 860.08 636.91 C 872.43 643.93 884.80 650.91 897.18 657.87 C 899.89 659.35 902.03 661.62 903.91 664.04 C 910.68 672.62 917.55 681.11 924.38 689.65 C 927.70 693.32 926.30 698.54 926.07 702.98 C 925.75 709.28 924.12 715.70 925.72 721.95 C 928.46 732.94 930.95 743.99 933.68 754.98 C 934.11 757.20 935.02 759.64 933.83 761.81 C 931.39 766.99 928.29 771.84 925.60 776.89 C 929.49 787.57 933.43 798.22 937.22 808.93 C 940.68 809.10 945.22 808.20 947.37 811.73 C 950.85 817.37 953.31 823.60 956.50 829.42 C 957.94 832.60 960.60 836.10 958.86 839.70 C 956.26 846.35 953.12 852.77 950.36 859.36 C 948.44 864.11 945.55 868.65 945.19 873.89 C 944.04 885.83 943.00 897.79 941.78 909.73 C 941.51 913.40 938.20 915.54 935.33 917.22 C 926.80 922.12 918.38 927.19 909.88 932.12 C 911.08 956.43 913.25 980.68 914.47 1004.99 C 914.08 1011.37 917.06 1017.15 919.10 1023.02 C 925.13 1039.58 931.13 1056.15 937.19 1072.71 C 938.03 1074.90 938.24 1077.33 937.41 1079.57 C 934.87 1087.33 932.18 1095.05 929.63 1102.80 C 928.30 1106.24 929.89 1109.80 930.65 1113.19 C 936.35 1135.78 941.87 1158.41 948.00 1180.89 C 948.92 1184.26 952.40 1185.89 954.64 1188.33 C 960.03 1193.61 966.16 1198.18 971.01 1204.00 C 976.28 1212.91 979.96 1222.71 985.38 1231.55 C 991.31 1239.58 997.49 1247.42 1003.53 1255.37 C 1005.83 1258.50 1008.65 1261.37 1010.00 1265.09 L 1010.00 1280.29 C 1008.43 1288.07 1010.63 1296.91 1005.82 1303.79 C 994.07 1322.73 982.35 1341.69 970.68 1360.68 C 966.52 1368.21 959.96 1373.95 954.53 1380.52 C 949.25 1387.02 942.00 1391.40 935.54 1396.59 C 928.13 1402.21 920.70 1407.83 913.38 1413.57 C 913.79 1419.87 915.91 1426.41 914.38 1432.65 C 910.60 1437.77 903.72 1439.01 899.05 1443.09 C 894.05 1449.52 890.73 1457.17 885.40 1463.36 C 878.46 1469.03 869.73 1472.10 862.68 1477.61 C 857.01 1486.05 852.27 1495.12 846.77 1503.68 C 845.34 1505.98 842.99 1507.49 840.41 1508.16 C 827.48 1511.98 814.60 1515.95 801.69 1519.84 C 793.39 1522.62 784.70 1524.36 776.71 1528.00 L 774.77 1528.00 C 766.17 1523.35 757.70 1518.36 748.88 1514.20 C 741.90 1514.17 734.97 1515.44 727.98 1515.50 C 713.32 1515.53 698.66 1515.44 684.00 1515.54 C 680.97 1515.47 677.63 1515.90 675.02 1514.03 C 669.72 1510.63 664.82 1506.63 659.50 1503.26 C 658.20 1502.32 656.51 1502.54 655.03 1502.46 C 642.68 1502.52 630.33 1502.51 617.99 1502.47 C 612.65 1502.05 608.34 1506.33 603.02 1506.02 C 593.00 1505.82 582.94 1506.37 572.95 1505.74 C 563.83 1503.16 554.96 1499.73 545.90 1496.93 C 541.37 1495.65 537.75 1492.56 534.00 1489.89 C 524.49 1483.07 514.93 1476.30 505.44 1469.46 C 500.17 1465.53 494.22 1462.69 488.57 1459.39 C 474.07 1451.22 459.54 1443.11 445.08 1434.88 C 443.54 1433.96 441.82 1433.38 440.02 1433.48 C 432.68 1433.45 425.34 1433.52 418.00 1433.54 C 415.64 1433.45 412.89 1433.75 411.16 1431.82 C 402.80 1424.17 394.62 1416.35 386.31 1408.66 C 383.84 1406.12 380.56 1404.17 378.97 1400.93 C 378.01 1396.83 378.67 1392.55 378.38 1388.39 C 369.69 1385.26 361.16 1381.69 352.50 1378.47 C 349.81 1377.43 346.64 1376.48 345.39 1373.60 C 340.66 1363.96 336.53 1354.02 331.60 1344.48 C 324.62 1333.85 317.22 1323.49 310.15 1312.91 C 307.58 1308.83 303.41 1306.25 299.81 1303.20 C 296.17 1300.14 292.38 1297.26 288.81 1294.12 C 284.47 1290.45 283.76 1284.47 281.58 1279.53 C 278.66 1272.70 277.01 1265.26 273.15 1258.88 C 265.63 1249.38 258.44 1239.59 250.71 1230.28 C 238.12 1226.73 224.90 1225.18 212.15 1222.08 C 210.28 1221.60 208.76 1219.90 208.67 1217.96 C 208.04 1212.18 208.99 1206.34 208.28 1200.58 C 207.29 1196.25 205.36 1192.21 203.99 1188.00 C 202.10 1183.04 200.96 1177.65 197.60 1173.42 C 184.05 1155.97 170.62 1138.43 157.09 1120.97 C 153.90 1117.16 151.51 1112.46 147.11 1109.85 C 138.24 1104.06 129.47 1098.12 120.65 1092.27 C 116.75 1089.74 113.09 1086.74 108.69 1085.11 C 73.79 1072.07 38.91 1058.95 4.02 1045.89 C 2.03 1045.28 0.88 1043.49 0.00 1041.76 L 0.00 1035.14 C 0.65 1032.01 3.65 1030.60 6.18 1029.21 C 28.96 1016.48 51.09 1002.59 74.30 990.64 C 75.40 982.17 75.17 973.60 75.76 965.09 C 76.15 959.09 75.56 952.84 78.05 947.19 C 85.24 929.09 90.10 910.21 95.87 891.63 C 96.82 888.57 99.70 886.36 99.87 883.03 C 101.87 865.34 104.26 847.69 106.17 829.99 C 99.14 824.92 92.08 819.90 85.01 814.90 C 82.88 813.41 80.88 811.50 80.36 808.85 C 77.11 796.96 74.15 784.99 70.87 773.12 C 70.35 770.75 69.37 768.10 70.67 765.83 C 71.70 764.13 73.52 763.15 75.18 762.18 C 82.14 758.47 89.10 754.76 96.04 751.01 C 99.34 749.40 100.96 745.95 103.10 743.17 C 125.77 711.78 148.40 680.35 171.14 649.01 C 177.50 641.76 184.22 634.83 190.75 627.74 C 192.83 625.35 195.73 623.28 196.19 619.92 C 200.17 602.25 204.25 584.61 208.27 566.95 C 209.32 562.34 210.08 557.59 212.30 553.36 C 215.45 547.11 218.54 540.84 221.74 534.62 C 222.77 532.56 223.85 530.43 223.96 528.09 C 225.60 506.69 227.45 485.30 229.10 463.89 C 229.28 458.04 232.85 453.19 235.22 448.06 C 237.78 443.33 239.66 438.21 242.72 433.77 C 247.14 428.52 251.93 423.58 256.47 418.44 C 260.32 414.68 260.56 408.99 262.28 404.18 C 265.16 395.46 266.67 386.20 271.17 378.11 C 278.86 362.80 286.55 347.48 294.14 332.13 C 297.11 325.15 304.99 322.83 310.73 318.74 C 313.99 307.42 316.69 295.95 319.85 284.61 C 320.39 282.28 321.86 279.95 324.44 279.63 C 332.11 278.06 339.93 277.38 347.61 275.81 C 355.68 261.14 364.15 246.69 372.45 232.15 C 368.51 227.88 363.45 224.41 360.95 219.00 C 358.36 213.67 355.68 208.38 353.02 203.09 C 351.87 200.66 350.37 197.67 352.03 195.10 C 354.31 191.14 357.28 187.63 359.82 183.84 C 364.01 177.61 370.13 173.14 375.64 168.17 C 374.44 162.82 373.46 157.39 371.66 152.20 C 370.45 148.54 368.80 144.90 368.97 140.95 C 369.04 133.60 368.92 126.24 369.02 118.89 C 368.82 116.24 370.87 114.34 372.57 112.63 C 376.95 108.40 381.16 104.00 385.57 99.81 C 384.31 84.84 381.95 69.98 380.49 55.03 C 380.02 50.03 384.58 46.83 387.15 43.13 C 391.84 37.87 395.35 31.42 401.08 27.17 C 413.89 19.59 426.83 12.19 439.65 4.62 C 442.49 2.93 445.34 1.22 448.42 0.00 M 447.27 6.17 C 438.34 11.38 429.40 16.57 420.50 21.83 C 414.48 25.36 408.34 28.71 402.44 32.43 C 397.65 37.73 393.59 43.66 388.85 49.01 C 389.16 57.66 388.95 66.32 388.99 74.97 C 387.95 83.69 390.50 92.29 391.00 100.97 C 390.37 101.85 389.68 102.67 388.91 103.44 C 389.10 121.39 388.97 139.35 388.98 157.30 C 384.78 155.58 380.89 153.23 376.83 151.24 C 378.46 157.43 380.17 163.65 381.06 169.99 C 376.55 174.51 371.22 178.18 366.89 182.90 C 363.21 187.81 359.67 192.84 356.21 197.91 C 357.38 200.28 358.57 202.65 359.76 205.01 C 362.18 209.69 364.34 214.52 366.88 219.13 C 370.13 223.65 374.79 226.92 378.32 231.21 C 378.54 232.57 377.34 233.65 376.86 234.83 C 367.94 249.95 359.67 265.46 350.52 280.42 C 342.25 282.24 333.68 283.13 325.27 284.47 C 323.14 291.38 321.52 298.44 319.61 305.41 C 318.16 310.87 316.73 316.34 315.33 321.81 C 311.13 324.53 306.85 327.15 302.59 329.77 C 301.46 330.50 300.22 331.22 299.72 332.55 C 297.27 337.59 294.55 342.50 292.38 347.67 C 286.23 358.91 280.88 370.62 274.97 382.01 C 272.42 386.71 271.02 391.92 269.85 397.11 L 269.56 397.25 C 267.44 404.58 265.41 411.95 263.07 419.21 C 295.28 402.26 327.45 385.25 359.65 368.29 C 369.43 363.29 378.94 357.69 388.95 353.19 C 389.05 403.95 388.99 454.72 388.99 505.48 C 399.48 505.56 409.97 505.44 420.47 505.54 L 420.47 505.39 C 452.15 505.58 483.85 505.58 515.54 505.39 L 515.54 505.54 C 526.00 505.47 536.47 505.47 546.94 505.55 C 547.13 454.75 546.86 403.96 547.07 353.17 C 550.69 354.50 553.99 356.53 557.40 358.33 C 605.60 383.71 653.76 409.15 701.95 434.53 C 715.59 441.58 728.99 449.12 742.80 455.84 C 743.06 452.99 743.41 450.16 743.73 447.33 C 735.69 439.61 727.98 431.57 720.02 423.79 C 718.81 425.36 717.60 426.93 716.46 428.54 C 706.03 415.93 696.14 402.88 685.87 390.14 C 684.66 388.66 683.64 387.01 683.10 385.17 C 680.99 378.56 679.08 371.89 676.83 365.33 L 676.53 365.19 C 674.47 356.19 671.04 347.58 668.59 338.70 C 666.93 333.42 665.02 328.21 663.66 322.84 C 663.30 317.05 663.51 311.21 663.61 305.41 L 663.39 305.41 C 663.49 300.95 663.64 296.47 663.47 292.01 C 663.67 290.52 662.36 289.58 661.49 288.63 C 651.44 278.91 641.09 269.52 631.03 259.82 C 630.97 242.50 632.32 225.21 632.47 207.90 C 633.32 206.98 634.18 206.07 635.05 205.16 C 646.75 193.66 658.20 181.90 669.93 170.44 C 667.29 164.65 663.91 159.23 661.25 153.45 C 656.09 143.58 651.10 133.62 645.88 123.78 C 643.54 118.93 641.01 114.18 638.59 109.38 C 607.94 125.10 577.75 141.74 547.03 157.32 C 546.91 121.72 547.12 86.11 546.92 50.51 C 536.42 50.08 526.00 48.44 515.51 47.87 C 512.29 47.13 508.20 47.99 505.86 45.19 C 500.00 39.26 494.12 33.36 488.20 27.51 C 479.20 28.81 470.19 30.03 461.17 31.11 C 458.88 22.33 456.12 13.69 453.84 4.91 C 451.60 4.99 449.20 4.84 447.27 6.17 M 469.38 807.48 C 469.27 853.30 469.25 899.12 469.18 944.94 C 469.30 972.64 468.73 1000.33 468.87 1028.04 C 469.04 1054.71 467.52 1081.73 473.15 1108.00 C 477.71 1131.09 486.88 1153.40 500.77 1172.45 C 521.21 1200.91 551.12 1221.26 583.01 1234.98 C 601.74 1242.99 621.15 1249.59 641.00 1254.18 C 669.12 1247.16 696.67 1237.11 721.85 1222.62 C 752.52 1205.06 779.37 1179.44 794.48 1147.15 C 805.61 1124.12 810.50 1098.51 811.23 1073.06 C 811.29 984.53 811.45 896.01 811.58 807.49 C 697.51 807.48 583.45 807.49 469.38 807.48 Z" />
</g>
<g id="#c70000ff">
<path fill="#c70000" opacity="1.00" d=" M 447.27 6.17 C 449.20 4.84 451.60 4.99 453.84 4.91 C 456.12 13.69 458.88 22.33 461.17 31.11 C 470.19 30.03 479.20 28.81 488.20 27.51 C 494.12 33.36 500.00 39.26 505.86 45.19 C 508.20 47.99 512.29 47.13 515.51 47.87 C 515.59 100.25 515.28 152.64 515.67 205.01 C 555.46 205.09 595.26 204.80 635.05 205.16 C 634.18 206.07 633.32 206.98 632.47 207.90 C 632.32 225.21 630.97 242.50 631.03 259.82 C 641.09 269.52 651.44 278.91 661.49 288.63 C 662.36 289.58 663.67 290.52 663.47 292.01 C 663.64 296.47 663.49 300.95 663.39 305.41 C 614.09 305.61 564.80 305.44 515.50 305.50 C 515.52 372.13 515.45 438.76 515.54 505.39 C 483.85 505.58 452.15 505.58 420.47 505.39 C 420.54 438.76 420.48 372.13 420.50 305.50 C 386.87 305.44 353.24 305.61 319.61 305.41 C 321.52 298.44 323.14 291.38 325.27 284.47 C 333.68 283.13 342.25 282.24 350.52 280.42 C 359.67 265.46 367.94 249.95 376.86 234.83 C 377.34 233.65 378.54 232.57 378.32 231.21 C 374.79 226.92 370.13 223.65 366.88 219.13 C 364.34 214.52 362.18 209.69 359.76 205.01 C 379.95 204.99 400.14 205.00 420.34 205.01 C 420.72 143.95 420.39 82.89 420.50 21.83 C 429.40 16.57 438.34 11.38 447.27 6.17 Z" />
<path fill="#c70000" opacity="1.00" d=" M 645.88 123.78 C 651.10 133.62 656.09 143.58 661.25 153.45 C 650.41 159.23 639.52 164.90 628.68 170.68 C 626.07 172.33 622.92 172.02 619.99 172.03 C 598.59 171.84 577.17 172.25 555.78 171.82 C 559.56 169.07 563.82 167.11 567.95 164.94 C 593.92 151.22 619.94 137.57 645.88 123.78 Z" />
<path fill="#c70000" opacity="1.00" d=" M 307.46 339.59 C 309.70 338.12 312.45 338.52 314.98 338.47 C 336.71 338.67 358.44 338.23 380.16 338.69 C 378.20 339.98 376.19 341.20 374.11 342.28 C 339.32 360.48 304.71 379.03 269.85 397.11 C 271.02 391.92 272.42 386.71 274.97 382.01 C 280.88 370.62 286.23 358.91 292.38 347.67 C 297.36 344.89 302.46 342.32 307.46 339.59 Z" />
<path fill="#c70000" opacity="1.00" d=" M 626.59 338.64 C 640.58 338.45 654.59 338.33 668.59 338.70 C 671.04 347.58 674.47 356.19 676.53 365.19 C 665.94 360.00 655.66 354.22 645.18 348.83 C 638.96 345.47 632.52 342.49 626.59 338.64 Z" />
</g>
<g id="#ffffffff">
<path fill="#ffffff" opacity="1.00" d=" M 402.44 32.43 C 408.34 28.71 414.48 25.36 420.50 21.83 C 420.39 82.89 420.72 143.95 420.34 205.01 C 400.14 205.00 379.95 204.99 359.76 205.01 C 358.57 202.65 357.38 200.28 356.21 197.91 C 359.67 192.84 363.21 187.81 366.89 182.90 C 371.22 178.18 376.55 174.51 381.06 169.99 C 380.17 163.65 378.46 157.43 376.83 151.24 C 380.89 153.23 384.78 155.58 388.98 157.30 C 388.97 139.35 389.10 121.39 388.91 103.44 C 389.68 102.67 390.37 101.85 391.00 100.97 C 390.50 92.29 387.95 83.69 388.99 74.97 C 388.95 66.32 389.16 57.66 388.85 49.01 C 393.59 43.66 397.65 37.73 402.44 32.43 Z" />
<path fill="#ffffff" opacity="1.00" d=" M 515.51 47.87 C 526.00 48.44 536.42 50.08 546.92 50.51 C 547.12 86.11 546.91 121.72 547.03 157.32 C 577.75 141.74 607.94 125.10 638.59 109.38 C 641.01 114.18 643.54 118.93 645.88 123.78 C 619.94 137.57 593.92 151.22 567.95 164.94 C 563.82 167.11 559.56 169.07 555.78 171.82 C 577.17 172.25 598.59 171.84 619.99 172.03 C 622.92 172.02 626.07 172.33 628.68 170.68 C 639.52 164.90 650.41 159.23 661.25 153.45 C 663.91 159.23 667.29 164.65 669.93 170.44 C 658.20 181.90 646.75 193.66 635.05 205.16 C 595.26 204.80 555.46 205.09 515.67 205.01 C 515.28 152.64 515.59 100.25 515.51 47.87 Z" />
<path fill="#ffffff" opacity="1.00" d=" M 319.61 305.41 C 353.24 305.61 386.87 305.44 420.50 305.50 C 420.48 372.13 420.54 438.76 420.47 505.39 L 420.47 505.54 C 409.97 505.44 399.48 505.56 388.99 505.48 C 388.99 454.72 389.05 403.95 388.95 353.19 C 378.94 357.69 369.43 363.29 359.65 368.29 C 327.45 385.25 295.28 402.26 263.07 419.21 C 265.41 411.95 267.44 404.58 269.56 397.25 L 269.85 397.11 C 304.71 379.03 339.32 360.48 374.11 342.28 C 376.19 341.20 378.20 339.98 380.16 338.69 C 358.44 338.23 336.71 338.67 314.98 338.47 C 312.45 338.52 309.70 338.12 307.46 339.59 C 302.46 342.32 297.36 344.89 292.38 347.67 C 294.55 342.50 297.27 337.59 299.72 332.55 C 300.22 331.22 301.46 330.50 302.59 329.77 C 306.85 327.15 311.13 324.53 315.33 321.81 C 316.73 316.34 318.16 310.87 319.61 305.41 Z" />
<path fill="#ffffff" opacity="1.00" d=" M 515.50 305.50 C 564.80 305.44 614.09 305.61 663.39 305.41 L 663.61 305.41 C 663.51 311.21 663.30 317.05 663.66 322.84 C 665.02 328.21 666.93 333.42 668.59 338.70 C 654.59 338.33 640.58 338.45 626.59 338.64 C 632.52 342.49 638.96 345.47 645.18 348.83 C 655.66 354.22 665.94 360.00 676.53 365.19 L 676.83 365.33 C 679.08 371.89 680.99 378.56 683.10 385.17 C 683.64 387.01 684.66 388.66 685.87 390.14 C 696.14 402.88 706.03 415.93 716.46 428.54 C 717.60 426.93 718.81 425.36 720.02 423.79 C 727.98 431.57 735.69 439.61 743.73 447.33 C 743.41 450.16 743.06 452.99 742.80 455.84 C 728.99 449.12 715.59 441.58 701.95 434.53 C 653.76 409.15 605.60 383.71 557.40 358.33 C 553.99 356.53 550.69 354.50 547.07 353.17 C 546.86 403.96 547.13 454.75 546.94 505.55 C 536.47 505.47 526.00 505.47 515.54 505.54 L 515.54 505.39 C 515.45 438.76 515.52 372.13 515.50 305.50 Z" />
<path fill="#ffffff" opacity="1.00" d=" M 469.38 807.48 C 583.45 807.49 697.51 807.48 811.58 807.49 C 811.45 896.01 811.29 984.53 811.23 1073.06 C 810.50 1098.51 805.61 1124.12 794.48 1147.15 C 779.37 1179.44 752.52 1205.06 721.85 1222.62 C 696.67 1237.11 669.12 1247.16 641.00 1254.18 C 621.15 1249.59 601.74 1242.99 583.01 1234.98 C 551.12 1221.26 521.21 1200.91 500.77 1172.45 C 486.88 1153.40 477.71 1131.09 473.15 1108.00 C 467.52 1081.73 469.04 1054.71 468.87 1028.04 C 468.73 1000.33 469.30 972.64 469.18 944.94 C 469.25 899.12 469.27 853.30 469.38 807.48 M 475.62 813.70 C 475.43 891.11 475.38 968.52 475.28 1045.94 C 475.39 1057.94 474.84 1070.00 476.25 1081.96 C 478.23 1103.70 483.65 1125.26 493.41 1144.85 C 502.16 1162.60 514.69 1178.34 529.47 1191.45 C 559.57 1217.91 597.66 1233.18 635.98 1243.33 C 637.95 1243.73 639.95 1244.88 642.00 1244.26 C 664.68 1238.46 686.95 1230.68 707.82 1220.01 C 737.93 1204.66 765.35 1182.36 782.54 1152.89 C 794.48 1132.59 801.36 1109.53 803.75 1086.16 C 805.20 1075.16 804.69 1064.04 804.78 1052.99 C 804.78 1021.65 804.82 990.32 804.84 958.99 C 804.63 949.98 805.51 941.00 805.16 931.99 C 805.28 895.31 805.23 858.64 805.33 821.96 C 805.28 819.16 805.62 816.29 804.71 813.60 C 695.02 813.81 585.32 813.61 475.62 813.70 Z" />
</g>
<g id="#000505ff">
<path fill="#000505" opacity="1.00" d=" M 475.62 813.70 C 585.32 813.61 695.02 813.81 804.71 813.60 C 805.62 816.29 805.28 819.16 805.33 821.96 C 805.23 858.64 805.28 895.31 805.16 931.99 C 805.51 941.00 804.63 949.98 804.84 958.99 C 804.82 990.32 804.78 1021.65 804.78 1052.99 C 804.69 1064.04 805.20 1075.16 803.75 1086.16 C 801.36 1109.53 794.48 1132.59 782.54 1152.89 C 765.35 1182.36 737.93 1204.66 707.82 1220.01 C 686.95 1230.68 664.68 1238.46 642.00 1244.26 C 639.95 1244.88 637.95 1243.73 635.98 1243.33 C 597.66 1233.18 559.57 1217.91 529.47 1191.45 C 514.69 1178.34 502.16 1162.60 493.41 1144.85 C 483.65 1125.26 478.23 1103.70 476.25 1081.96 C 474.84 1070.00 475.39 1057.94 475.28 1045.94 C 475.38 968.52 475.43 891.11 475.62 813.70 M 478.31 816.45 C 478.13 834.65 478.26 852.84 478.17 871.04 C 477.61 879.02 478.31 887.00 478.15 895.00 C 477.53 908.99 477.95 923.01 477.81 937.03 C 477.78 976.33 477.81 1015.64 477.72 1054.95 C 477.57 1065.69 478.09 1076.44 479.16 1087.13 C 480.78 1099.16 483.44 1111.08 487.27 1122.61 C 487.73 1125.91 489.19 1128.95 490.37 1132.05 C 494.58 1142.73 499.99 1152.98 506.82 1162.23 C 517.30 1177.45 530.68 1190.59 545.77 1201.23 C 573.49 1220.87 605.91 1232.36 638.36 1241.46 C 642.40 1242.50 646.30 1240.42 650.13 1239.43 C 685.32 1229.16 720.07 1214.34 747.97 1190.04 C 762.48 1177.52 774.62 1162.28 783.65 1145.37 C 793.16 1127.09 798.94 1106.99 801.45 1086.57 C 801.51 1080.38 802.39 1074.23 802.37 1068.05 C 802.31 984.19 802.73 900.32 802.57 816.46 C 694.48 816.43 586.40 816.45 478.31 816.45 Z" />
<path fill="#000505" opacity="1.00" d=" M 674.23 876.71 C 676.40 876.57 678.60 876.14 680.78 876.49 C 683.51 878.33 685.68 880.91 688.23 883.01 C 691.04 885.45 691.95 890.18 696.05 890.95 C 697.93 889.99 698.05 887.62 698.80 885.90 C 698.77 887.25 698.69 888.60 698.65 889.97 C 700.87 892.74 703.42 896.47 701.39 900.06 C 701.44 897.39 701.68 894.29 699.62 892.24 C 698.29 890.75 696.08 891.46 694.33 891.28 C 691.36 888.57 689.73 884.71 686.57 882.20 C 684.57 880.55 682.84 878.61 680.83 876.99 C 679.01 876.51 677.11 876.83 675.27 876.83 C 675.06 878.64 674.87 880.46 674.68 882.29 C 674.46 880.43 674.37 878.56 674.23 876.71 Z" />
<path fill="#000505" opacity="1.00" d=" M 661.16 883.75 C 661.57 882.78 662.40 880.85 662.81 879.88 C 663.92 881.34 664.97 882.87 665.91 884.47 C 664.31 884.25 662.73 884.03 661.16 883.75 Z" />
<path fill="#000505" opacity="1.00" d=" M 678.64 881.18 C 681.14 884.36 683.69 887.83 687.90 888.74 C 686.84 888.70 685.78 888.67 684.74 888.66 C 684.83 891.86 684.25 895.28 685.54 898.32 C 686.80 900.87 689.97 900.45 692.33 900.70 C 692.31 898.76 692.29 896.84 692.26 894.91 C 692.56 896.53 692.79 898.17 693.30 899.76 C 694.69 902.10 697.78 901.39 700.05 901.51 C 698.85 901.93 697.59 902.34 696.31 902.08 C 691.33 901.40 686.38 900.07 681.32 900.56 C 681.57 906.09 685.01 911.09 690.29 912.93 C 688.97 912.78 687.66 912.69 686.35 912.66 L 686.81 912.00 C 683.49 909.14 681.09 905.36 681.05 900.86 C 680.46 900.28 679.87 899.72 679.29 899.17 C 681.00 899.96 682.90 899.93 684.76 900.00 C 684.41 896.10 684.64 892.14 683.91 888.29 C 682.17 885.91 680.07 883.79 678.64 881.18 Z" />
<path fill="#000505" opacity="1.00" d=" M 701.22 923.72 C 705.04 933.47 701.89 943.91 701.63 953.97 C 701.49 965.14 700.88 976.42 697.93 987.24 C 697.30 989.61 696.24 991.85 694.83 993.86 C 702.39 977.27 700.05 958.58 702.13 940.95 C 703.01 935.20 702.52 929.35 701.22 923.72 Z" />
<path fill="#000505" opacity="1.00" d=" M 699.99 1020.72 C 700.81 1023.25 701.68 1025.78 702.65 1028.28 C 701.26 1025.96 700.46 1023.36 699.99 1020.72 Z" />
<path fill="#000505" opacity="1.00" d=" M 705.80 1034.99 C 711.57 1051.56 711.19 1069.42 709.94 1086.69 C 708.84 1097.45 708.22 1108.25 707.81 1119.06 C 707.57 1127.78 708.55 1136.47 708.78 1145.18 C 706.13 1128.24 707.44 1111.00 708.59 1093.98 C 709.52 1082.72 710.93 1071.39 709.81 1060.09 C 709.93 1051.53 707.51 1043.28 705.80 1034.99 Z" />
<path fill="#000505" opacity="1.00" d=" M 637.34 1192.37 C 634.52 1192.93 635.60 1188.83 637.89 1190.49 C 637.76 1190.96 637.48 1191.90 637.34 1192.37 Z" />
</g>
<g id="#00a2bdff">
<path fill="#00a2bd" opacity="1.00" d=" M 478.31 816.45 C 586.40 816.45 694.48 816.43 802.57 816.46 C 802.73 900.32 802.31 984.19 802.37 1068.05 C 802.39 1074.23 801.51 1080.38 801.45 1086.57 C 770.95 1086.64 740.45 1086.66 709.94 1086.69 C 711.19 1069.42 711.57 1051.56 705.80 1034.99 C 705.01 1032.63 703.77 1030.47 702.65 1028.28 C 701.68 1025.78 700.81 1023.25 699.99 1020.72 C 698.62 1015.16 697.09 1009.62 694.67 1004.43 C 693.68 1002.11 692.72 999.80 691.70 997.52 C 692.39 996.74 693.09 995.98 693.79 995.22 C 694.05 994.88 694.57 994.20 694.83 993.86 C 696.24 991.85 697.30 989.61 697.93 987.24 C 700.88 976.42 701.49 965.14 701.63 953.97 C 701.89 943.91 705.04 933.47 701.22 923.72 C 699.18 918.88 695.08 914.99 690.29 912.93 C 685.01 911.09 681.57 906.09 681.32 900.56 C 686.38 900.07 691.33 901.40 696.31 902.08 C 697.59 902.34 698.85 901.93 700.05 901.51 C 700.39 901.15 701.06 900.43 701.39 900.06 C 703.42 896.47 700.87 892.74 698.65 889.97 C 698.69 888.60 698.77 887.25 698.80 885.90 C 698.27 885.53 697.21 884.79 696.67 884.42 C 702.60 884.03 708.54 884.12 714.49 884.14 C 714.54 876.25 714.36 868.37 714.39 860.48 C 693.16 860.24 671.91 860.53 650.67 860.34 C 650.60 850.26 650.51 840.18 650.54 830.10 C 642.81 829.54 635.06 829.82 627.33 829.64 C 627.25 839.90 627.72 850.16 627.53 860.42 C 606.30 860.25 585.07 860.24 563.85 860.19 C 563.75 868.23 563.79 876.26 563.81 884.30 C 580.68 884.24 597.56 884.24 614.43 884.13 C 614.01 886.56 613.58 888.99 613.11 891.42 C 612.97 891.79 612.68 892.52 612.54 892.89 C 609.71 898.11 607.70 903.71 605.57 909.24 C 603.43 914.87 601.47 920.82 602.00 926.94 C 602.48 932.42 602.03 937.93 602.23 943.43 C 610.61 943.61 618.95 944.66 627.34 944.38 C 627.30 962.28 627.37 980.18 627.39 998.08 C 622.99 1000.95 618.48 1003.65 613.90 1006.23 C 608.92 1008.74 606.81 1014.25 604.24 1018.85 C 602.74 1026.18 598.31 1032.49 597.17 1039.94 C 595.57 1048.57 590.28 1056.23 583.00 1061.05 C 577.44 1065.27 570.25 1066.45 564.70 1070.68 C 559.13 1074.75 553.73 1079.90 552.16 1086.90 C 527.83 1087.05 503.49 1087.28 479.16 1087.13 C 478.09 1076.44 477.57 1065.69 477.72 1054.95 C 477.81 1015.64 477.78 976.33 477.81 937.03 C 477.95 923.01 477.53 908.99 478.15 895.00 C 478.31 887.00 477.61 879.02 478.17 871.04 C 478.26 852.84 478.13 834.65 478.31 816.45 Z" />
<path fill="#00a2bd" opacity="1.00" d=" M 622.65 885.83 C 623.72 884.36 625.58 884.19 627.21 883.76 C 627.40 897.95 627.19 912.14 627.33 926.33 C 624.35 926.61 621.39 927.05 618.47 927.67 C 618.08 919.94 621.83 912.77 621.58 905.04 C 622.53 898.67 621.77 892.17 622.65 885.83 Z" />
<path fill="#00a2bd" opacity="1.00" d=" M 650.65 884.40 C 652.77 884.33 654.88 884.28 657.01 884.25 C 656.63 884.96 655.85 886.37 655.46 887.08 C 655.89 887.87 656.32 888.68 656.76 889.51 C 656.22 893.50 655.84 897.55 655.69 901.58 C 658.21 903.92 661.87 904.03 665.08 904.64 C 665.30 907.54 665.45 910.44 665.52 913.36 C 662.00 913.53 658.10 912.78 655.03 914.94 C 653.59 915.96 652.29 917.14 650.97 918.29 C 650.18 907.01 650.86 895.69 650.65 884.40 Z" />
<path fill="#00a2bd" opacity="1.00" d=" M 617.36 1024.87 C 619.17 1019.40 623.36 1015.20 627.21 1011.09 C 627.56 1017.96 627.42 1024.84 627.31 1031.72 C 624.17 1029.18 620.97 1026.70 617.36 1024.87 Z" />
<path fill="#00a2bd" opacity="1.00" d=" M 612.73 1044.97 C 612.62 1042.14 613.67 1039.49 614.76 1036.95 C 616.62 1038.45 618.55 1040.29 618.21 1042.94 C 618.25 1057.55 618.27 1072.16 618.27 1086.78 C 616.43 1086.77 614.60 1086.77 612.78 1086.79 C 612.77 1072.85 612.77 1058.91 612.73 1044.97 Z" />
<path fill="#00a2bd" opacity="1.00" d=" M 619.41 1041.64 C 623.47 1045.73 628.00 1050.80 627.45 1056.99 C 627.43 1066.94 627.46 1076.88 627.43 1086.83 C 624.82 1086.79 622.21 1086.77 619.60 1086.75 L 619.42 1086.74 C 619.48 1071.71 619.23 1056.67 619.41 1041.64 Z" />
<path fill="#00a2bd" opacity="1.00" d=" M 605.69 1060.97 C 605.14 1055.54 609.07 1051.21 611.38 1046.66 C 611.66 1060.03 611.49 1073.42 611.60 1086.80 C 609.66 1086.80 607.72 1086.80 605.78 1086.81 C 605.72 1078.20 605.78 1069.58 605.69 1060.97 Z" />
<path fill="#00a2bd" opacity="1.00" d=" M 599.77 1065.97 C 599.39 1062.82 602.45 1061.13 604.33 1059.19 C 604.64 1068.40 604.46 1077.62 604.56 1086.84 C 602.97 1086.82 601.40 1086.81 599.83 1086.81 C 599.86 1079.86 599.72 1072.91 599.77 1065.97 Z" />
<path fill="#00a2bd" opacity="1.00" d=" M 593.92 1067.02 C 595.32 1065.89 596.91 1065.02 598.46 1064.10 C 598.70 1071.68 598.59 1079.27 598.63 1086.86 C 597.00 1086.84 595.36 1086.81 593.74 1086.82 C 593.86 1080.22 593.44 1073.60 593.92 1067.02 Z" />
<path fill="#00a2bd" opacity="1.00" d=" M 586.92 1071.91 C 587.21 1069.21 590.58 1069.06 592.44 1067.92 C 592.46 1074.23 592.45 1080.54 592.44 1086.85 C 590.58 1086.82 588.74 1086.81 586.90 1086.80 C 586.81 1081.84 586.57 1076.86 586.92 1071.91 Z" />
<path fill="#00a2bd" opacity="1.00" d=" M 581.36 1073.39 C 582.79 1072.67 584.22 1071.93 585.67 1071.23 C 585.77 1076.44 585.75 1081.65 585.70 1086.87 C 584.24 1086.85 582.79 1086.84 581.35 1086.85 C 581.33 1082.36 581.32 1077.87 581.36 1073.39 Z" />
<path fill="#00a2bd" opacity="1.00" d=" M 566.74 1082.70 C 570.56 1079.03 575.36 1076.57 580.08 1074.26 C 580.26 1078.60 580.37 1082.96 579.87 1087.29 C 576.85 1086.59 574.47 1083.42 571.15 1084.50 C 569.24 1085.21 567.55 1086.38 565.69 1087.20 C 565.04 1085.58 565.34 1083.79 566.74 1082.70 Z" />
<path fill="#00a2bd" opacity="1.00" d=" M 487.27 1122.61 C 492.03 1136.60 498.51 1149.98 506.82 1162.23 C 499.99 1152.98 494.58 1142.73 490.37 1132.05 C 489.19 1128.95 487.73 1125.91 487.27 1122.61 Z" />
</g>
<g id="#000000ff">
<path fill="#000000" opacity="1.00" d=" M 627.33 829.64 C 635.06 829.82 642.81 829.54 650.54 830.10 C 650.51 840.18 650.60 850.26 650.67 860.34 C 671.91 860.53 693.16 860.24 714.39 860.48 C 714.36 868.37 714.54 876.25 714.49 884.14 C 708.54 884.12 702.60 884.03 696.67 884.42 C 695.08 883.74 693.32 883.32 691.98 882.20 C 690.97 877.46 689.29 872.91 687.41 868.46 C 685.81 865.97 682.40 866.90 679.95 867.03 C 675.78 867.65 671.55 867.12 667.38 867.51 C 665.28 867.70 665.02 870.34 663.89 871.67 C 666.77 870.77 670.03 868.27 673.03 870.30 C 675.85 871.94 678.68 873.62 681.97 874.15 C 678.24 874.79 675.38 872.05 672.30 870.50 C 669.91 869.05 666.17 870.29 666.08 873.38 C 664.89 871.53 663.51 873.44 662.61 874.51 C 661.12 876.37 661.59 878.91 661.31 881.12 C 659.54 883.35 656.81 884.99 656.01 887.85 C 656.65 888.16 657.94 888.77 658.59 889.08 C 657.44 890.19 656.78 891.70 657.11 893.33 C 658.19 893.79 659.28 894.25 660.38 894.71 C 659.52 894.56 657.80 894.26 656.94 894.11 C 656.65 896.54 656.28 898.95 655.81 901.36 C 658.55 902.96 661.72 904.19 664.95 903.61 C 667.73 902.91 670.28 901.56 673.02 900.73 C 670.58 902.00 668.03 903.05 665.47 904.07 C 665.68 907.54 666.04 911.06 665.47 914.53 C 662.01 913.70 658.39 913.70 655.03 914.94 C 658.10 912.78 662.00 913.53 665.52 913.36 C 665.45 910.44 665.30 907.54 665.08 904.64 C 661.87 904.03 658.21 903.92 655.69 901.58 C 655.84 897.55 656.22 893.50 656.76 889.51 C 656.32 888.68 655.89 887.87 655.46 887.08 C 655.85 886.37 656.63 884.96 657.01 884.25 C 654.88 884.28 652.77 884.33 650.65 884.40 C 650.86 895.69 650.18 907.01 650.97 918.29 C 650.77 939.24 650.60 960.20 650.97 981.15 C 654.91 979.83 660.32 979.20 661.69 974.54 C 665.82 962.17 658.64 949.26 662.11 936.78 C 663.17 933.50 665.28 930.33 664.40 926.74 C 664.59 927.41 664.96 928.77 665.14 929.44 C 665.23 929.77 665.42 930.41 665.51 930.74 C 659.44 939.18 661.97 950.02 663.15 959.54 C 664.17 965.63 663.34 971.84 661.21 977.61 C 663.04 977.52 664.88 977.42 666.74 977.38 C 659.51 978.69 652.05 980.42 646.18 985.09 C 635.93 993.04 625.26 1000.46 613.92 1006.76 C 609.93 1008.62 608.21 1012.80 606.07 1016.34 C 602.45 1021.34 603.98 1027.84 603.21 1033.59 C 602.84 1031.59 602.67 1029.55 602.48 1027.55 C 598.70 1035.38 598.65 1044.57 593.80 1051.92 C 589.28 1059.14 581.91 1064.10 574.13 1067.24 C 566.34 1070.21 559.14 1075.57 554.92 1082.84 C 550.58 1090.66 557.27 1101.21 565.98 1101.38 C 570.04 1100.91 574.26 1099.23 576.97 1096.07 C 578.82 1092.58 577.68 1087.39 573.97 1085.56 C 572.59 1085.30 571.28 1085.90 570.01 1086.28 L 569.26 1086.93 C 568.45 1087.61 567.62 1088.26 566.75 1088.87 C 563.78 1088.87 563.47 1084.74 564.93 1082.88 C 567.26 1079.85 570.63 1077.89 573.87 1075.99 C 580.07 1072.45 586.54 1069.42 592.73 1065.87 C 596.34 1063.89 600.15 1061.93 602.74 1058.62 C 608.19 1051.72 610.93 1043.23 613.89 1035.08 C 622.66 1040.54 627.88 1049.89 631.99 1059.07 C 639.34 1076.12 643.02 1094.57 644.39 1113.03 C 645.05 1125.05 644.71 1137.30 641.33 1148.94 C 639.94 1153.69 637.67 1158.18 634.48 1161.99 C 629.60 1156.75 624.84 1151.39 619.71 1146.41 C 619.65 1148.53 619.61 1150.68 619.58 1152.83 C 619.28 1152.83 618.69 1152.82 618.39 1152.82 C 618.40 1150.12 618.41 1147.42 618.45 1144.74 C 616.82 1142.97 615.18 1141.22 613.55 1139.48 C 613.27 1141.38 613.01 1143.29 612.69 1145.21 C 612.23 1142.61 612.13 1139.97 611.38 1137.46 C 610.10 1135.28 608.16 1133.61 606.47 1131.79 C 606.22 1134.33 605.91 1136.87 605.46 1139.39 L 604.79 1138.53 C 604.34 1135.04 605.83 1130.83 603.12 1128.00 L 603.87 1126.69 C 604.09 1126.69 604.53 1126.68 604.75 1126.67 C 604.64 1113.39 604.63 1100.12 604.56 1086.84 C 604.46 1077.62 604.64 1068.40 604.33 1059.19 C 602.45 1061.13 599.39 1062.82 599.77 1065.97 C 599.72 1072.91 599.86 1079.86 599.83 1086.81 C 600.40 1099.06 599.98 1111.34 600.48 1123.59 C 599.81 1123.30 599.15 1123.01 598.50 1122.73 C 596.87 1121.49 595.42 1120.04 593.97 1118.62 C 593.73 1120.26 593.46 1121.92 593.16 1123.58 C 592.59 1121.19 592.55 1118.69 591.90 1116.34 C 590.72 1114.51 589.10 1113.05 587.63 1111.48 C 587.09 1112.90 586.53 1114.33 585.98 1115.76 C 585.82 1113.61 585.72 1111.47 585.64 1109.34 C 584.31 1107.87 582.99 1106.40 581.67 1104.94 C 581.36 1106.20 581.05 1107.48 580.74 1108.76 C 580.40 1105.08 579.24 1101.55 576.31 1099.14 C 574.55 1100.18 572.79 1101.23 571.03 1102.28 C 572.16 1103.70 573.32 1105.10 574.46 1106.53 C 592.65 1129.04 610.58 1151.78 629.66 1173.55 C 632.61 1176.90 635.21 1180.77 639.22 1182.97 C 644.10 1186.22 649.11 1189.87 655.12 1190.52 C 657.80 1191.09 658.46 1187.91 659.27 1186.05 C 663.05 1173.34 663.31 1159.95 663.51 1146.80 C 664.40 1157.84 663.26 1168.91 661.41 1179.79 C 660.66 1183.71 659.20 1187.45 657.70 1191.14 C 661.70 1190.70 666.03 1190.52 669.37 1187.98 C 669.96 1183.30 669.29 1178.58 669.40 1173.89 C 669.97 1178.58 670.21 1183.30 670.24 1188.02 C 673.10 1186.60 675.81 1184.93 678.32 1182.96 C 680.22 1172.04 679.19 1160.92 677.50 1150.05 C 674.49 1136.51 668.48 1123.92 662.68 1111.41 C 660.09 1105.83 656.08 1100.47 656.29 1094.04 C 656.31 1085.86 654.64 1077.77 654.89 1069.60 C 655.62 1075.01 655.89 1080.48 656.39 1085.93 C 656.96 1091.38 655.96 1097.22 658.62 1102.26 C 666.05 1117.05 673.44 1132.04 677.61 1148.13 C 679.93 1159.21 679.99 1170.60 679.36 1181.86 C 681.95 1180.20 684.57 1178.57 687.17 1176.91 C 679.39 1183.64 670.73 1190.74 660.05 1191.60 C 655.70 1192.17 651.45 1189.24 647.20 1190.81 C 647.44 1190.38 647.93 1189.50 648.17 1189.07 C 646.35 1188.15 644.54 1187.20 642.76 1186.24 C 641.44 1187.38 640.12 1188.54 638.79 1189.68 C 639.86 1188.51 640.88 1187.29 641.94 1186.11 C 637.17 1184.67 634.16 1180.59 630.93 1177.11 C 609.57 1152.96 589.79 1127.47 569.36 1102.54 C 566.21 1102.63 562.84 1102.83 560.08 1101.02 C 554.80 1098.47 552.14 1092.54 552.16 1086.90 C 553.73 1079.90 559.13 1074.75 564.70 1070.68 C 570.25 1066.45 577.44 1065.27 583.00 1061.05 C 590.28 1056.23 595.57 1048.57 597.17 1039.94 C 598.31 1032.49 602.74 1026.18 604.24 1018.85 C 606.81 1014.25 608.92 1008.74 613.90 1006.23 C 618.48 1003.65 622.99 1000.95 627.39 998.08 C 627.37 980.18 627.30 962.28 627.34 944.38 C 618.95 944.66 610.61 943.61 602.23 943.43 C 602.03 937.93 602.48 932.42 602.00 926.94 C 601.47 920.82 603.43 914.87 605.57 909.24 C 607.70 903.71 609.71 898.11 612.54 892.89 C 608.49 904.31 601.71 915.41 602.37 927.93 C 602.74 928.31 603.12 928.70 603.50 929.11 C 602.37 931.49 602.35 934.18 603.23 936.66 C 602.82 938.37 601.80 940.22 603.03 941.85 C 604.51 943.63 606.97 943.15 609.03 943.31 C 615.12 943.31 621.20 944.25 627.30 943.72 C 627.30 938.01 627.32 932.31 627.29 926.61 C 624.27 927.09 621.28 927.66 618.31 928.37 C 618.15 925.18 618.13 921.95 618.94 918.84 C 621.72 908.52 621.52 897.72 621.76 887.12 C 621.64 885.40 623.27 884.46 624.48 883.62 C 628.34 881.16 631.31 877.63 634.69 874.60 C 635.97 873.84 635.52 872.33 635.60 871.13 C 635.65 870.51 635.75 869.28 635.81 868.66 C 635.41 868.90 634.62 869.39 634.23 869.64 C 634.61 868.88 635.37 867.36 635.76 866.60 C 633.95 866.52 632.15 866.42 630.36 866.46 C 627.71 868.05 625.09 869.79 623.04 872.14 C 622.16 872.70 621.28 873.27 620.40 873.83 C 619.89 873.35 619.40 872.88 618.91 872.42 C 613.29 877.23 616.12 885.33 613.11 891.42 C 613.58 888.99 614.01 886.56 614.43 884.13 C 597.56 884.24 580.68 884.24 563.81 884.30 C 563.79 876.26 563.75 868.23 563.85 860.19 C 585.07 860.24 606.30 860.25 627.53 860.42 C 627.72 850.16 627.25 839.90 627.33 829.64 M 619.97 871.42 C 622.90 872.77 624.21 869.41 623.90 867.01 C 622.50 868.40 621.18 869.87 619.97 871.42 M 622.65 885.83 C 621.77 892.17 622.53 898.67 621.58 905.04 C 621.83 912.77 618.08 919.94 618.47 927.67 C 621.39 927.05 624.35 926.61 627.33 926.33 C 627.19 912.14 627.40 897.95 627.21 883.76 C 625.58 884.19 623.72 884.36 622.65 885.83 M 612.73 1044.97 C 612.77 1058.91 612.77 1072.85 612.78 1086.79 C 612.96 1102.53 612.40 1118.29 613.12 1134.02 C 612.76 1137.65 615.73 1140.00 618.24 1142.05 C 618.53 1123.63 618.26 1105.20 618.27 1086.78 C 618.27 1072.16 618.25 1057.55 618.21 1042.94 C 618.55 1040.29 616.62 1038.45 614.76 1036.95 C 613.67 1039.49 612.62 1042.14 612.73 1044.97 M 619.41 1041.64 C 619.23 1056.67 619.48 1071.71 619.42 1086.74 L 619.60 1086.75 C 619.27 1104.49 619.69 1122.25 619.55 1140.00 C 618.84 1145.42 624.02 1148.67 627.41 1151.98 C 627.58 1130.27 627.44 1108.55 627.43 1086.83 C 627.46 1076.88 627.43 1066.94 627.45 1056.99 C 628.00 1050.80 623.47 1045.73 619.41 1041.64 M 605.69 1060.97 C 605.78 1069.58 605.72 1078.20 605.78 1086.81 C 605.65 1100.25 605.98 1113.68 606.20 1127.11 C 605.87 1130.80 609.41 1132.87 611.70 1135.14 C 611.78 1119.03 611.62 1102.92 611.60 1086.80 C 611.49 1073.42 611.66 1060.03 611.38 1046.66 C 609.07 1051.21 605.14 1055.54 605.69 1060.97 M 593.92 1067.02 C 593.44 1073.60 593.86 1080.22 593.74 1086.82 C 593.76 1095.87 593.66 1104.93 593.75 1113.99 C 593.53 1117.26 596.67 1119.14 598.75 1121.13 C 598.76 1109.70 598.70 1098.28 598.63 1086.86 C 598.59 1079.27 598.70 1071.68 598.46 1064.10 C 596.91 1065.02 595.32 1065.89 593.92 1067.02 M 586.92 1071.91 C 586.57 1076.86 586.81 1081.84 586.90 1086.80 C 587.22 1093.54 586.37 1100.30 586.95 1107.03 C 587.17 1110.22 590.16 1112.07 592.29 1114.04 C 592.64 1104.98 592.38 1095.91 592.44 1086.85 C 592.45 1080.54 592.46 1074.23 592.44 1067.92 C 590.58 1069.06 587.21 1069.21 586.92 1071.91 M 581.36 1073.39 C 581.32 1077.87 581.33 1082.36 581.35 1086.85 C 581.48 1092.12 580.98 1097.42 581.58 1102.67 C 582.47 1104.52 584.24 1105.73 585.70 1107.13 C 585.76 1100.37 585.76 1093.62 585.70 1086.87 C 585.75 1081.65 585.77 1076.44 585.67 1071.23 C 584.22 1071.93 582.79 1072.67 581.36 1073.39 M 566.74 1082.70 C 565.34 1083.79 565.04 1085.58 565.69 1087.20 C 567.55 1086.38 569.24 1085.21 571.15 1084.50 C 574.47 1083.42 576.85 1086.59 579.87 1087.29 C 580.37 1082.96 580.26 1078.60 580.08 1074.26 C 575.36 1076.57 570.56 1079.03 566.74 1082.70 Z" />
<path fill="#000000" opacity="1.00" d=" M 662.67 877.88 C 665.23 878.22 667.56 879.46 669.18 881.50 C 668.57 881.49 667.36 881.47 666.76 881.47 C 665.39 880.26 663.99 879.10 662.67 877.88 Z" />
<path fill="#000000" opacity="1.00" d=" M 628.81 1009.77 C 638.58 1004.44 650.05 1004.00 660.11 999.39 C 657.19 1001.01 654.10 1002.31 650.93 1003.34 C 650.51 1023.88 650.89 1044.43 650.71 1064.97 C 651.09 1088.42 652.59 1112.14 648.14 1135.33 C 646.07 1145.33 644.70 1155.59 640.71 1165.07 C 645.57 1148.63 648.89 1131.69 650.26 1114.60 C 650.70 1108.01 650.85 1101.39 650.43 1094.80 C 650.32 1087.57 651.60 1080.02 648.95 1073.09 C 644.75 1060.85 639.54 1048.71 631.42 1038.52 C 627.46 1033.59 622.76 1029.21 617.19 1026.16 C 616.32 1031.12 611.11 1032.07 607.21 1033.69 L 606.31 1033.64 C 605.93 1029.02 606.20 1024.28 607.54 1019.82 C 607.08 1023.84 606.42 1027.85 606.40 1031.92 C 607.44 1031.90 608.49 1031.89 609.55 1031.89 C 609.51 1027.79 609.36 1023.51 611.54 1019.87 C 610.10 1023.79 609.96 1027.98 610.02 1032.12 C 610.61 1031.95 611.79 1031.61 612.38 1031.44 C 612.68 1028.14 613.26 1024.85 614.53 1021.78 C 614.38 1024.43 612.41 1027.40 614.03 1029.86 C 614.30 1029.82 614.85 1029.75 615.12 1029.72 C 616.74 1025.81 617.68 1021.51 620.46 1018.20 C 623.02 1015.19 625.15 1011.57 628.81 1009.77 M 617.36 1024.87 C 620.97 1026.70 624.17 1029.18 627.31 1031.72 C 627.42 1024.84 627.56 1017.96 627.21 1011.09 C 623.36 1015.20 619.17 1019.40 617.36 1024.87 Z" />
<path fill="#000000" opacity="1.00" d=" M 683.30 1009.94 C 686.08 1015.31 686.74 1021.41 688.32 1027.18 C 691.07 1037.92 690.51 1049.08 690.27 1060.05 C 689.51 1072.28 686.04 1084.15 683.25 1095.99 C 688.28 1112.90 696.84 1128.67 700.72 1145.95 C 695.68 1129.70 688.91 1114.07 683.18 1098.05 C 681.56 1094.52 684.27 1091.03 684.87 1087.58 C 687.12 1077.19 690.01 1066.78 689.74 1056.06 C 690.39 1049.72 689.71 1043.38 689.50 1037.05 C 688.39 1027.82 685.69 1018.89 683.30 1009.94 Z" />
<path fill="#000000" opacity="1.00" d=" M 662.32 1025.31 L 662.76 1025.29 C 662.89 1032.13 661.50 1039.07 663.09 1045.83 C 664.52 1053.10 667.07 1060.81 664.29 1068.10 C 666.00 1059.03 663.80 1049.84 661.34 1041.14 C 660.09 1045.28 659.13 1049.69 659.88 1054.03 C 660.33 1056.68 660.73 1059.35 660.71 1062.06 C 659.73 1056.65 658.42 1051.07 659.71 1045.59 C 661.19 1038.92 662.67 1032.18 662.32 1025.31 Z" />
</g>
<g id="#eacfbeff">
<path fill="#eacfbe" opacity="1.00" d=" M 630.36 866.46 C 632.15 866.42 633.95 866.52 635.76 866.60 C 635.37 867.36 634.61 868.88 634.23 869.64 C 632.74 871.31 630.62 873.80 628.21 872.10 C 628.75 870.15 629.58 868.31 630.36 866.46 Z" />
</g>
<g id="#ffe1cfff">
<path fill="#ffe1cf" opacity="1.00" d=" M 619.97 871.42 C 621.18 869.87 622.50 868.40 623.90 867.01 C 624.21 869.41 622.90 872.77 619.97 871.42 Z" />
<path fill="#ffe1cf" opacity="1.00" d=" M 623.04 872.14 C 625.09 869.79 627.71 868.05 630.36 866.46 C 629.58 868.31 628.75 870.15 628.21 872.10 C 630.62 873.80 632.74 871.31 634.23 869.64 C 634.62 869.39 635.41 868.90 635.81 868.66 C 635.75 869.28 635.65 870.51 635.60 871.13 C 635.52 872.33 635.97 873.84 634.69 874.60 C 631.31 877.63 628.34 881.16 624.48 883.62 C 623.27 884.46 621.64 885.40 621.76 887.12 C 621.52 897.72 621.72 908.52 618.94 918.84 C 618.13 921.95 618.15 925.18 618.31 928.37 C 621.28 927.66 624.27 927.09 627.29 926.61 C 627.32 932.31 627.30 938.01 627.30 943.72 C 621.20 944.25 615.12 943.31 609.03 943.31 C 606.97 943.15 604.51 943.63 603.03 941.85 C 601.80 940.22 602.82 938.37 603.23 936.66 C 602.35 934.18 602.37 931.49 603.50 929.11 C 603.12 928.70 602.74 928.31 602.37 927.93 C 601.71 915.41 608.49 904.31 612.54 892.89 C 612.68 892.52 612.97 891.79 613.11 891.42 C 616.12 885.33 613.29 877.23 618.91 872.42 C 619.40 872.88 619.89 873.35 620.40 873.83 C 621.28 873.27 622.16 872.70 623.04 872.14 Z" />
<path fill="#ffe1cf" opacity="1.00" d=" M 662.61 874.51 C 663.51 873.44 664.89 871.53 666.08 873.38 C 668.24 875.52 671.03 877.29 674.23 876.71 C 674.37 878.56 674.46 880.43 674.68 882.29 C 675.59 883.70 676.61 885.04 677.63 886.39 C 676.89 889.21 675.34 891.87 675.23 894.83 C 676.25 896.54 677.90 897.76 679.29 899.17 C 679.87 899.72 680.46 900.28 681.05 900.86 C 681.09 905.36 683.49 909.14 686.81 912.00 L 686.35 912.66 C 683.22 916.37 681.16 921.57 676.16 923.17 C 672.15 924.63 668.28 926.51 665.14 929.44 C 664.96 928.77 664.59 927.41 664.40 926.74 C 663.13 922.64 663.98 918.42 665.47 914.53 C 666.04 911.06 665.68 907.54 665.47 904.07 C 668.03 903.05 670.58 902.00 673.02 900.73 C 670.28 901.56 667.73 902.91 664.95 903.61 C 661.72 904.19 658.55 902.96 655.81 901.36 C 656.28 898.95 656.65 896.54 656.94 894.11 C 657.80 894.26 659.52 894.56 660.38 894.71 C 659.28 894.25 658.19 893.79 657.11 893.33 C 656.78 891.70 657.44 890.19 658.59 889.08 C 657.94 888.77 656.65 888.16 656.01 887.85 C 656.81 884.99 659.54 883.35 661.31 881.12 C 661.59 878.91 661.12 876.37 662.61 874.51 M 662.67 877.88 C 663.99 879.10 665.39 880.26 666.76 881.47 C 667.36 881.47 668.57 881.49 669.18 881.50 C 667.56 879.46 665.23 878.22 662.67 877.88 M 661.16 883.75 C 662.73 884.03 664.31 884.25 665.91 884.47 C 664.97 882.87 663.92 881.34 662.81 879.88 C 662.40 880.85 661.57 882.78 661.16 883.75 Z" />
<path fill="#ffe1cf" opacity="1.00" d=" M 685.43 940.43 C 687.60 938.09 689.83 935.46 693.03 934.55 C 695.24 935.15 695.90 937.57 696.75 939.43 C 696.85 943.86 696.84 948.30 696.62 952.74 C 694.20 963.41 690.40 973.75 685.32 983.44 C 683.32 987.19 678.97 988.40 675.67 990.65 C 671.79 993.25 667.77 995.64 663.56 997.67 C 662.74 998.06 661.93 998.46 661.13 998.88 L 660.11 999.39 C 650.05 1004.00 638.58 1004.44 628.81 1009.77 C 625.15 1011.57 623.02 1015.19 620.46 1018.20 C 617.68 1021.51 616.74 1025.81 615.12 1029.72 C 614.85 1029.75 614.30 1029.82 614.03 1029.86 C 612.41 1027.40 614.38 1024.43 614.53 1021.78 C 613.26 1024.85 612.68 1028.14 612.38 1031.44 C 611.79 1031.61 610.61 1031.95 610.02 1032.12 C 609.96 1027.98 610.10 1023.79 611.54 1019.87 C 609.36 1023.51 609.51 1027.79 609.55 1031.89 C 608.49 1031.89 607.44 1031.90 606.40 1031.92 C 606.42 1027.85 607.08 1023.84 607.54 1019.82 C 606.20 1024.28 605.93 1029.02 606.31 1033.64 C 605.53 1033.63 603.98 1033.61 603.21 1033.59 C 603.98 1027.84 602.45 1021.34 606.07 1016.34 C 608.21 1012.80 609.93 1008.62 613.92 1006.76 C 625.26 1000.46 635.93 993.04 646.18 985.09 C 652.05 980.42 659.51 978.69 666.74 977.38 C 669.13 975.97 669.98 973.27 671.03 970.90 C 672.52 967.43 673.62 963.81 674.53 960.16 C 676.39 952.78 680.47 946.13 685.43 940.43 Z" />
<path fill="#ffe1cf" opacity="1.00" d=" M 691.23 1173.72 C 693.22 1172.63 695.49 1170.96 697.87 1171.98 C 700.26 1173.03 702.07 1175.02 704.00 1176.74 C 706.33 1180.58 707.84 1185.35 705.09 1189.43 C 702.48 1193.50 703.41 1198.87 700.34 1202.72 C 700.18 1201.74 699.85 1199.77 699.69 1198.78 C 699.21 1200.54 698.69 1202.28 698.17 1204.05 C 697.51 1202.96 696.86 1201.87 696.23 1200.80 C 696.24 1202.01 696.25 1203.23 696.27 1204.46 C 694.30 1204.93 692.34 1205.45 690.38 1205.98 C 688.72 1206.62 686.68 1208.37 685.59 1205.98 C 688.27 1197.66 689.58 1188.83 693.51 1180.93 C 692.95 1179.20 692.38 1177.49 691.84 1175.78 C 691.69 1175.27 691.38 1174.23 691.23 1173.72 Z" />
<path fill="#ffe1cf" opacity="1.00" d=" M 638.79 1189.68 C 640.12 1188.54 641.44 1187.38 642.76 1186.24 C 644.54 1187.20 646.35 1188.15 648.17 1189.07 C 647.93 1189.50 647.44 1190.38 647.20 1190.81 C 644.11 1192.30 640.74 1192.78 637.34 1192.37 C 637.48 1191.90 637.76 1190.96 637.89 1190.49 L 638.79 1189.68 Z" />
</g>
<g id="#870f00ff">
<path fill="#870f00" opacity="1.00" d=" M 667.38 867.51 C 671.55 867.12 675.78 867.65 679.95 867.03 C 682.40 866.90 685.81 865.97 687.41 868.46 C 689.29 872.91 690.97 877.46 691.98 882.20 C 693.32 883.32 695.08 883.74 696.67 884.42 C 697.21 884.79 698.27 885.53 698.80 885.90 C 698.05 887.62 697.93 889.99 696.05 890.95 C 691.95 890.18 691.04 885.45 688.23 883.01 C 685.68 880.91 683.51 878.33 680.78 876.49 C 678.60 876.14 676.40 876.57 674.23 876.71 C 671.03 877.29 668.24 875.52 666.08 873.38 C 666.17 870.29 669.91 869.05 672.30 870.50 C 675.38 872.05 678.24 874.79 681.97 874.15 C 678.68 873.62 675.85 871.94 673.03 870.30 C 670.03 868.27 666.77 870.77 663.89 871.67 C 665.02 870.34 665.28 867.70 667.38 867.51 Z" />
<path fill="#870f00" opacity="1.00" d=" M 675.27 876.83 C 677.11 876.83 679.01 876.51 680.83 876.99 C 682.84 878.61 684.57 880.55 686.57 882.20 C 689.73 884.71 691.36 888.57 694.33 891.28 C 696.08 891.46 698.29 890.75 699.62 892.24 C 701.68 894.29 701.44 897.39 701.39 900.06 C 701.06 900.43 700.39 901.15 700.05 901.51 C 697.78 901.39 694.69 902.10 693.30 899.76 C 692.79 898.17 692.56 896.53 692.26 894.91 C 692.29 896.84 692.31 898.76 692.33 900.70 C 689.97 900.45 686.80 900.87 685.54 898.32 C 684.25 895.28 684.83 891.86 684.74 888.66 C 685.78 888.67 686.84 888.70 687.90 888.74 C 683.69 887.83 681.14 884.36 678.64 881.18 C 680.07 883.79 682.17 885.91 683.91 888.29 C 684.64 892.14 684.41 896.10 684.76 900.00 C 682.90 899.93 681.00 899.96 679.29 899.17 C 677.90 897.76 676.25 896.54 675.23 894.83 C 675.34 891.87 676.89 889.21 677.63 886.39 C 676.61 885.04 675.59 883.70 674.68 882.29 C 674.87 880.46 675.06 878.64 675.27 876.83 Z" />
</g>
<g id="#008021ff">
<path fill="#008021" opacity="1.00" d=" M 686.35 912.66 C 687.66 912.69 688.97 912.78 690.29 912.93 C 695.08 914.99 699.18 918.88 701.22 923.72 C 702.52 929.35 703.01 935.20 702.13 940.95 C 700.05 958.58 702.39 977.27 694.83 993.86 C 694.57 994.20 694.05 994.88 693.79 995.22 C 689.89 994.79 685.95 994.06 682.02 994.60 C 678.02 995.11 674.75 997.79 670.86 998.63 C 668.38 999.14 665.92 998.27 663.56 997.67 C 667.77 995.64 671.79 993.25 675.67 990.65 C 678.97 988.40 683.32 987.19 685.32 983.44 C 690.40 973.75 694.20 963.41 696.62 952.74 C 698.55 948.54 698.84 943.61 696.75 939.43 C 695.90 937.57 695.24 935.15 693.03 934.55 C 689.83 935.46 687.60 938.09 685.43 940.43 C 680.47 946.13 676.39 952.78 674.53 960.16 C 673.62 963.81 672.52 967.43 671.03 970.90 C 669.98 973.27 669.13 975.97 666.74 977.38 C 664.88 977.42 663.04 977.52 661.21 977.61 C 663.34 971.84 664.17 965.63 663.15 959.54 C 661.97 950.02 659.44 939.18 665.51 930.74 C 665.42 930.41 665.23 929.77 665.14 929.44 C 668.28 926.51 672.15 924.63 676.16 923.17 C 681.16 921.57 683.22 916.37 686.35 912.66 Z" />
<path fill="#008021" opacity="1.00" d=" M 655.03 914.94 C 658.39 913.70 662.01 913.70 665.47 914.53 C 663.98 918.42 663.13 922.64 664.40 926.74 C 665.28 930.33 663.17 933.50 662.11 936.78 C 658.64 949.26 665.82 962.17 661.69 974.54 C 660.32 979.20 654.91 979.83 650.97 981.15 C 650.60 960.20 650.77 939.24 650.97 918.29 C 652.29 917.14 653.59 915.96 655.03 914.94 Z" />
<path fill="#008021" opacity="1.00" d=" M 676.60 1001.45 C 677.36 997.28 682.92 994.75 686.33 997.53 C 688.03 1000.37 687.61 1003.91 688.04 1007.10 C 688.89 1006.90 689.74 1006.71 690.61 1006.53 C 691.22 1015.48 693.03 1024.32 696.13 1032.75 C 700.56 1046.36 701.50 1060.74 701.71 1074.96 C 701.37 1083.01 702.73 1090.98 702.76 1099.02 C 702.74 1102.81 703.54 1106.56 705.13 1110.02 C 705.44 1107.18 705.10 1104.33 704.71 1101.53 C 703.93 1096.05 704.59 1090.50 704.01 1085.01 C 703.56 1080.67 703.26 1076.31 703.34 1071.94 C 703.53 1057.23 701.39 1042.43 696.51 1028.53 C 693.30 1019.36 692.88 1009.57 690.93 1000.12 C 692.17 1001.55 693.43 1002.96 694.67 1004.43 C 697.09 1009.62 698.62 1015.16 699.99 1020.72 C 700.46 1023.36 701.26 1025.96 702.65 1028.28 C 703.77 1030.47 705.01 1032.63 705.80 1034.99 C 707.51 1043.28 709.93 1051.53 709.81 1060.09 C 710.93 1071.39 709.52 1082.72 708.59 1093.98 C 707.44 1111.00 706.13 1128.24 708.78 1145.18 L 708.83 1145.64 C 709.18 1158.59 713.32 1171.00 718.03 1182.93 C 712.60 1183.03 708.08 1179.93 704.00 1176.74 C 702.07 1175.02 700.26 1173.03 697.87 1171.98 C 695.49 1170.96 693.22 1172.63 691.23 1173.72 C 691.38 1174.23 691.69 1175.27 691.84 1175.78 C 691.41 1175.55 690.54 1175.09 690.11 1174.86 C 689.12 1175.52 688.14 1176.21 687.17 1176.91 C 684.57 1178.57 681.95 1180.20 679.36 1181.86 C 679.99 1170.60 679.93 1159.21 677.61 1148.13 C 673.44 1132.04 666.05 1117.05 658.62 1102.26 C 655.96 1097.22 656.96 1091.38 656.39 1085.93 C 655.89 1080.48 655.62 1075.01 654.89 1069.60 C 654.64 1077.77 656.31 1085.86 656.29 1094.04 C 656.08 1100.47 660.09 1105.83 662.68 1111.41 C 668.48 1123.92 674.49 1136.51 677.50 1150.05 C 679.19 1160.92 680.22 1172.04 678.32 1182.96 C 675.81 1184.93 673.10 1186.60 670.24 1188.02 C 670.21 1183.30 669.97 1178.58 669.40 1173.89 C 669.29 1178.58 669.96 1183.30 669.37 1187.98 C 666.03 1190.52 661.70 1190.70 657.70 1191.14 C 659.20 1187.45 660.66 1183.71 661.41 1179.79 C 663.26 1168.91 664.40 1157.84 663.51 1146.80 C 663.31 1159.95 663.05 1173.34 659.27 1186.05 C 658.46 1187.91 657.80 1191.09 655.12 1190.52 C 649.11 1189.87 644.10 1186.22 639.22 1182.97 L 638.27 1181.62 C 638.65 1176.83 639.16 1172.06 639.88 1167.31 C 640.14 1166.55 640.42 1165.80 640.71 1165.07 C 644.70 1155.59 646.07 1145.33 648.14 1135.33 C 652.59 1112.14 651.09 1088.42 650.71 1064.97 C 650.89 1044.43 650.51 1023.88 650.93 1003.34 C 654.10 1002.31 657.19 1001.01 660.11 999.39 L 661.13 998.88 C 660.84 1001.82 660.85 1004.78 661.32 1007.71 C 662.10 1005.38 662.35 1002.83 663.60 1000.70 C 665.00 999.95 666.74 1000.42 668.29 1000.28 C 668.64 1002.66 669.01 1005.05 669.39 1007.44 C 669.90 1005.55 670.25 1003.62 671.03 1001.83 C 672.20 1000.49 673.92 999.80 675.40 998.87 C 674.65 1004.11 674.17 1009.47 675.15 1014.73 C 677.17 1010.55 675.80 1005.84 676.60 1001.45 M 683.30 1009.94 C 685.69 1018.89 688.39 1027.82 689.50 1037.05 C 689.71 1043.38 690.39 1049.72 689.74 1056.06 C 690.01 1066.78 687.12 1077.19 684.87 1087.58 C 684.27 1091.03 681.56 1094.52 683.18 1098.05 C 688.91 1114.07 695.68 1129.70 700.72 1145.95 C 696.84 1128.67 688.28 1112.90 683.25 1095.99 C 686.04 1084.15 689.51 1072.28 690.27 1060.05 C 690.51 1049.08 691.07 1037.92 688.32 1027.18 C 686.74 1021.41 686.08 1015.31 683.30 1009.94 M 674.44 1014.51 C 673.96 1021.14 673.09 1028.13 674.88 1034.61 C 675.51 1030.45 675.35 1026.23 675.41 1022.04 C 675.37 1019.50 675.66 1016.83 674.44 1014.51 M 662.32 1025.31 C 662.67 1032.18 661.19 1038.92 659.71 1045.59 C 658.42 1051.07 659.73 1056.65 660.71 1062.06 C 660.73 1059.35 660.33 1056.68 659.88 1054.03 C 659.13 1049.69 660.09 1045.28 661.34 1041.14 C 663.80 1049.84 666.00 1059.03 664.29 1068.10 C 667.07 1060.81 664.52 1053.10 663.09 1045.83 C 661.50 1039.07 662.89 1032.13 662.76 1025.29 L 662.32 1025.31 M 673.14 1162.97 C 673.40 1167.11 671.90 1171.50 673.62 1175.46 C 676.03 1167.22 675.24 1158.32 673.83 1149.97 L 672.75 1149.56 C 672.09 1154.00 673.45 1158.48 673.14 1162.97 M 687.96 1160.38 C 688.23 1163.74 688.55 1167.16 689.80 1170.34 C 690.51 1166.90 690.46 1163.10 687.96 1160.38 M 665.10 1163.95 C 664.88 1167.28 665.16 1170.64 664.93 1173.99 C 664.67 1177.93 663.28 1181.67 662.81 1185.58 C 663.89 1184.61 664.94 1183.53 665.21 1182.05 C 666.83 1176.28 667.41 1170.15 666.54 1164.22 C 666.18 1164.15 665.46 1164.01 665.10 1163.95 Z" />
</g>
<g id="#185725ff">
<path fill="#185725" opacity="1.00" d=" M 696.75 939.43 C 698.84 943.61 698.55 948.54 696.62 952.74 C 696.84 948.30 696.85 943.86 696.75 939.43 Z" />
</g>
<g id="#006119ff">
<path fill="#006119" opacity="1.00" d=" M 682.02 994.60 C 685.95 994.06 689.89 994.79 693.79 995.22 C 693.09 995.98 692.39 996.74 691.70 997.52 C 692.72 999.80 693.68 1002.11 694.67 1004.43 C 693.43 1002.96 692.17 1001.55 690.93 1000.12 C 692.88 1009.57 693.30 1019.36 696.51 1028.53 C 701.39 1042.43 703.53 1057.23 703.34 1071.94 C 703.26 1076.31 703.56 1080.67 704.01 1085.01 C 704.59 1090.50 703.93 1096.05 704.71 1101.53 C 705.10 1104.33 705.44 1107.18 705.13 1110.02 C 703.54 1106.56 702.74 1102.81 702.76 1099.02 C 702.73 1090.98 701.37 1083.01 701.71 1074.96 C 701.50 1060.74 700.56 1046.36 696.13 1032.75 C 693.03 1024.32 691.22 1015.48 690.61 1006.53 C 689.74 1006.71 688.89 1006.90 688.04 1007.10 C 687.61 1003.91 688.03 1000.37 686.33 997.53 C 682.92 994.75 677.36 997.28 676.60 1001.45 C 675.80 1005.84 677.17 1010.55 675.15 1014.73 C 674.17 1009.47 674.65 1004.11 675.40 998.87 C 673.92 999.80 672.20 1000.49 671.03 1001.83 C 670.25 1003.62 669.90 1005.55 669.39 1007.44 C 669.01 1005.05 668.64 1002.66 668.29 1000.28 C 666.74 1000.42 665.00 999.95 663.60 1000.70 C 662.35 1002.83 662.10 1005.38 661.32 1007.71 C 660.85 1004.78 660.84 1001.82 661.13 998.88 C 661.93 998.46 662.74 998.06 663.56 997.67 C 665.92 998.27 668.38 999.14 670.86 998.63 C 674.75 997.79 678.02 995.11 682.02 994.60 Z" />
</g>
<g id="#004e14ff">
<path fill="#004e14" opacity="1.00" d=" M 674.44 1014.51 C 675.66 1016.83 675.37 1019.50 675.41 1022.04 C 675.35 1026.23 675.51 1030.45 674.88 1034.61 C 673.09 1028.13 673.96 1021.14 674.44 1014.51 Z" />
</g>
<g id="#ff9a08ff">
<path fill="#ff9a08" opacity="1.00" d=" M 617.19 1026.16 C 622.76 1029.21 627.46 1033.59 631.42 1038.52 C 639.54 1048.71 644.75 1060.85 648.95 1073.09 C 651.60 1080.02 650.32 1087.57 650.43 1094.80 C 647.67 1089.08 647.20 1082.66 645.27 1076.67 C 643.76 1071.90 642.37 1067.08 640.55 1062.42 C 640.00 1060.64 638.45 1059.57 637.05 1058.53 C 637.73 1063.43 639.94 1067.89 641.40 1072.57 C 644.58 1083.03 647.22 1093.70 648.41 1104.59 C 648.74 1107.96 649.41 1111.30 650.26 1114.60 C 648.89 1131.69 645.57 1148.63 640.71 1165.07 C 640.42 1165.80 640.14 1166.55 639.88 1167.31 C 637.91 1171.77 636.67 1176.83 638.27 1181.62 L 639.22 1182.97 C 635.21 1180.77 632.61 1176.90 629.66 1173.55 C 631.89 1175.00 634.13 1176.46 636.37 1177.93 C 634.49 1173.07 630.40 1169.68 627.30 1165.66 C 620.12 1156.81 612.49 1148.35 605.46 1139.39 C 605.91 1136.87 606.22 1134.33 606.47 1131.79 C 608.16 1133.61 610.10 1135.28 611.38 1137.46 C 612.13 1139.97 612.23 1142.61 612.69 1145.21 C 613.01 1143.29 613.27 1141.38 613.55 1139.48 C 615.18 1141.22 616.82 1142.97 618.45 1144.74 C 618.41 1147.42 618.40 1150.12 618.39 1152.82 C 618.69 1152.82 619.28 1152.83 619.58 1152.83 C 619.61 1150.68 619.65 1148.53 619.71 1146.41 C 624.84 1151.39 629.60 1156.75 634.48 1161.99 C 637.67 1158.18 639.94 1153.69 641.33 1148.94 C 644.71 1137.30 645.05 1125.05 644.39 1113.03 C 643.02 1094.57 639.34 1076.12 631.99 1059.07 C 627.88 1049.89 622.66 1040.54 613.89 1035.08 C 610.93 1043.23 608.19 1051.72 602.74 1058.62 C 600.15 1061.93 596.34 1063.89 592.73 1065.87 C 586.54 1069.42 580.07 1072.45 573.87 1075.99 C 570.63 1077.89 567.26 1079.85 564.93 1082.88 C 563.47 1084.74 563.78 1088.87 566.75 1088.87 C 567.62 1088.26 568.45 1087.61 569.26 1086.93 C 568.35 1088.88 567.57 1090.89 566.78 1092.90 C 567.22 1093.06 568.09 1093.38 568.52 1093.55 C 570.40 1091.93 572.33 1090.38 574.12 1088.66 C 572.81 1087.77 571.38 1087.02 570.01 1086.28 C 571.28 1085.90 572.59 1085.30 573.97 1085.56 C 577.68 1087.39 578.82 1092.58 576.97 1096.07 C 574.26 1099.23 570.04 1100.91 565.98 1101.38 C 557.27 1101.21 550.58 1090.66 554.92 1082.84 C 559.14 1075.57 566.34 1070.21 574.13 1067.24 C 581.91 1064.10 589.28 1059.14 593.80 1051.92 C 598.65 1044.57 598.70 1035.38 602.48 1027.55 C 602.67 1029.55 602.84 1031.59 603.21 1033.59 C 603.98 1033.61 605.53 1033.63 606.31 1033.64 L 607.21 1033.69 C 611.11 1032.07 616.32 1031.12 617.19 1026.16 M 563.09 1075.08 C 558.59 1079.20 553.88 1085.46 556.29 1091.85 C 556.69 1093.54 558.47 1093.78 559.90 1094.14 C 559.15 1091.18 557.44 1087.97 558.94 1084.97 C 560.53 1081.74 563.08 1079.12 565.05 1076.13 C 564.56 1075.87 563.58 1075.34 563.09 1075.08 Z" />
<path fill="#ff9a08" opacity="1.00" d=" M 571.03 1102.28 C 572.79 1101.23 574.55 1100.18 576.31 1099.14 C 579.24 1101.55 580.40 1105.08 580.74 1108.76 C 581.05 1107.48 581.36 1106.20 581.67 1104.94 C 582.99 1106.40 584.31 1107.87 585.64 1109.34 C 585.72 1111.47 585.82 1113.61 585.98 1115.76 C 586.53 1114.33 587.09 1112.90 587.63 1111.48 C 589.10 1113.05 590.72 1114.51 591.90 1116.34 C 592.55 1118.69 592.59 1121.19 593.16 1123.58 C 593.46 1121.92 593.73 1120.26 593.97 1118.62 C 595.42 1120.04 596.87 1121.49 598.50 1122.73 C 598.81 1125.41 598.10 1128.56 600.08 1130.75 C 600.20 1129.56 600.44 1127.17 600.56 1125.97 C 601.20 1126.48 602.48 1127.49 603.12 1128.00 C 605.83 1130.83 604.34 1135.04 604.79 1138.53 C 594.57 1127.26 585.34 1115.12 575.16 1103.82 C 574.99 1104.50 574.63 1105.85 574.46 1106.53 C 573.32 1105.10 572.16 1103.70 571.03 1102.28 Z" />
</g>
<g id="#ffde00ff">
<path fill="#ffde00" opacity="1.00" d=" M 637.05 1058.53 C 638.45 1059.57 640.00 1060.64 640.55 1062.42 C 642.37 1067.08 643.76 1071.90 645.27 1076.67 C 647.20 1082.66 647.67 1089.08 650.43 1094.80 C 650.85 1101.39 650.70 1108.01 650.26 1114.60 C 649.41 1111.30 648.74 1107.96 648.41 1104.59 C 647.22 1093.70 644.58 1083.03 641.40 1072.57 C 639.94 1067.89 637.73 1063.43 637.05 1058.53 Z" />
</g>
<g id="#ffd101ff">
<path fill="#ffd101" opacity="1.00" d=" M 563.09 1075.08 C 563.58 1075.34 564.56 1075.87 565.05 1076.13 C 563.08 1079.12 560.53 1081.74 558.94 1084.97 C 557.44 1087.97 559.15 1091.18 559.90 1094.14 C 558.47 1093.78 556.69 1093.54 556.29 1091.85 C 553.88 1085.46 558.59 1079.20 563.09 1075.08 Z" />
</g>
<g id="#a53d08ff">
<path fill="#a53d08" opacity="1.00" d=" M 479.16 1087.13 C 503.49 1087.28 527.83 1087.05 552.16 1086.90 C 552.14 1092.54 554.80 1098.47 560.08 1101.02 C 562.84 1102.83 566.21 1102.63 569.36 1102.54 C 589.79 1127.47 609.57 1152.96 630.93 1177.11 C 634.16 1180.59 637.17 1184.67 641.94 1186.11 C 640.88 1187.29 639.86 1188.51 638.79 1189.68 L 637.89 1190.49 C 635.60 1188.83 634.52 1192.93 637.34 1192.37 C 640.74 1192.78 644.11 1192.30 647.20 1190.81 C 651.45 1189.24 655.70 1192.17 660.05 1191.60 C 670.73 1190.74 679.39 1183.64 687.17 1176.91 C 688.14 1176.21 689.12 1175.52 690.11 1174.86 C 690.54 1175.09 691.41 1175.55 691.84 1175.78 C 692.38 1177.49 692.95 1179.20 693.51 1180.93 C 689.58 1188.83 688.27 1197.66 685.59 1205.98 C 686.68 1208.37 688.72 1206.62 690.38 1205.98 C 692.34 1205.45 694.30 1204.93 696.27 1204.46 C 696.25 1203.23 696.24 1202.01 696.23 1200.80 C 696.86 1201.87 697.51 1202.96 698.17 1204.05 C 698.69 1202.28 699.21 1200.54 699.69 1198.78 C 699.85 1199.77 700.18 1201.74 700.34 1202.72 C 703.41 1198.87 702.48 1193.50 705.09 1189.43 C 707.40 1187.15 707.57 1183.93 707.59 1180.89 C 711.23 1182.89 715.29 1184.05 719.48 1183.49 C 715.83 1174.57 712.36 1165.49 710.88 1155.92 C 710.40 1152.45 709.67 1149.03 708.83 1145.64 L 708.78 1145.18 C 708.55 1136.47 707.57 1127.78 707.81 1119.06 C 708.22 1108.25 708.84 1097.45 709.94 1086.69 C 740.45 1086.66 770.95 1086.64 801.45 1086.57 C 798.94 1106.99 793.16 1127.09 783.65 1145.37 C 774.62 1162.28 762.48 1177.52 747.97 1190.04 C 720.07 1214.34 685.32 1229.16 650.13 1239.43 C 646.30 1240.42 642.40 1242.50 638.36 1241.46 C 605.91 1232.36 573.49 1220.87 545.77 1201.23 C 530.68 1190.59 517.30 1177.45 506.82 1162.23 C 498.51 1149.98 492.03 1136.60 487.27 1122.61 C 483.44 1111.08 480.78 1099.16 479.16 1087.13 Z" />
<path fill="#a53d08" opacity="1.00" d=" M 581.35 1086.85 C 582.79 1086.84 584.24 1086.85 585.70 1086.87 C 585.76 1093.62 585.76 1100.37 585.70 1107.13 C 584.24 1105.73 582.47 1104.52 581.58 1102.67 C 580.98 1097.42 581.48 1092.12 581.35 1086.85 Z" />
<path fill="#a53d08" opacity="1.00" d=" M 586.90 1086.80 C 588.74 1086.81 590.58 1086.82 592.44 1086.85 C 592.38 1095.91 592.64 1104.98 592.29 1114.04 C 590.16 1112.07 587.17 1110.22 586.95 1107.03 C 586.37 1100.30 587.22 1093.54 586.90 1086.80 Z" />
<path fill="#a53d08" opacity="1.00" d=" M 593.74 1086.82 C 595.36 1086.81 597.00 1086.84 598.63 1086.86 C 598.70 1098.28 598.76 1109.70 598.75 1121.13 C 596.67 1119.14 593.53 1117.26 593.75 1113.99 C 593.66 1104.93 593.76 1095.87 593.74 1086.82 Z" />
<path fill="#a53d08" opacity="1.00" d=" M 599.83 1086.81 C 601.40 1086.81 602.97 1086.82 604.56 1086.84 C 604.63 1100.12 604.64 1113.39 604.75 1126.67 C 604.53 1126.68 604.09 1126.69 603.87 1126.69 C 602.76 1125.62 601.68 1124.53 600.48 1123.59 C 599.98 1111.34 600.40 1099.06 599.83 1086.81 Z" />
<path fill="#a53d08" opacity="1.00" d=" M 605.78 1086.81 C 607.72 1086.80 609.66 1086.80 611.60 1086.80 C 611.62 1102.92 611.78 1119.03 611.70 1135.14 C 609.41 1132.87 605.87 1130.80 606.20 1127.11 C 605.98 1113.68 605.65 1100.25 605.78 1086.81 Z" />
<path fill="#a53d08" opacity="1.00" d=" M 612.78 1086.79 C 614.60 1086.77 616.43 1086.77 618.27 1086.78 C 618.26 1105.20 618.53 1123.63 618.24 1142.05 C 615.73 1140.00 612.76 1137.65 613.12 1134.02 C 612.40 1118.29 612.96 1102.53 612.78 1086.79 Z" />
<path fill="#a53d08" opacity="1.00" d=" M 619.60 1086.75 C 622.21 1086.77 624.82 1086.79 627.43 1086.83 C 627.44 1108.55 627.58 1130.27 627.41 1151.98 C 624.02 1148.67 618.84 1145.42 619.55 1140.00 C 619.69 1122.25 619.27 1104.49 619.60 1086.75 Z" />
</g>
<g id="#fecb02ff">
<path fill="#fecb02" opacity="1.00" d=" M 569.26 1086.93 L 570.01 1086.28 C 571.38 1087.02 572.81 1087.77 574.12 1088.66 C 572.33 1090.38 570.40 1091.93 568.52 1093.55 C 568.09 1093.38 567.22 1093.06 566.78 1092.90 C 567.57 1090.89 568.35 1088.88 569.26 1086.93 Z" />
</g>
<g id="#ffc602ff">
<path fill="#ffc602" opacity="1.00" d=" M 575.16 1103.82 C 585.34 1115.12 594.57 1127.26 604.79 1138.53 L 605.46 1139.39 C 612.49 1148.35 620.12 1156.81 627.30 1165.66 C 630.40 1169.68 634.49 1173.07 636.37 1177.93 C 634.13 1176.46 631.89 1175.00 629.66 1173.55 C 610.58 1151.78 592.65 1129.04 574.46 1106.53 C 574.63 1105.85 574.99 1104.50 575.16 1103.82 Z" />
</g>
<g id="#352001ff">
<path fill="#352001" opacity="1.00" d=" M 598.50 1122.73 C 599.15 1123.01 599.81 1123.30 600.48 1123.59 C 601.68 1124.53 602.76 1125.62 603.87 1126.69 L 603.12 1128.00 C 602.48 1127.49 601.20 1126.48 600.56 1125.97 C 600.44 1127.17 600.20 1129.56 600.08 1130.75 C 598.10 1128.56 598.81 1125.41 598.50 1122.73 Z" />
<path fill="#352001" opacity="1.00" d=" M 708.83 1145.64 C 709.67 1149.03 710.40 1152.45 710.88 1155.92 C 712.36 1165.49 715.83 1174.57 719.48 1183.49 C 715.29 1184.05 711.23 1182.89 707.59 1180.89 C 707.57 1183.93 707.40 1187.15 705.09 1189.43 C 707.84 1185.35 706.33 1180.58 704.00 1176.74 C 708.08 1179.93 712.60 1183.03 718.03 1182.93 C 713.32 1171.00 709.18 1158.59 708.83 1145.64 Z" />
</g>
<g id="#005d18ff">
<path fill="#005d18" opacity="1.00" d=" M 673.14 1162.97 C 673.45 1158.48 672.09 1154.00 672.75 1149.56 L 673.83 1149.97 C 675.24 1158.32 676.03 1167.22 673.62 1175.46 C 671.90 1171.50 673.40 1167.11 673.14 1162.97 Z" />
</g>
<g id="#005215ff">
<path fill="#005215" opacity="1.00" d=" M 687.96 1160.38 C 690.46 1163.10 690.51 1166.90 689.80 1170.34 C 688.55 1167.16 688.23 1163.74 687.96 1160.38 Z" />
</g>
<g id="#005c17ff">
<path fill="#005c17" opacity="1.00" d=" M 665.10 1163.95 C 665.46 1164.01 666.18 1164.15 666.54 1164.22 C 667.41 1170.15 666.83 1176.28 665.21 1182.05 C 664.94 1183.53 663.89 1184.61 662.81 1185.58 C 663.28 1181.67 664.67 1177.93 664.93 1173.99 C 665.16 1170.64 664.88 1167.28 665.10 1163.95 Z" />
</g>
<g id="#3c5d10ff">
<path fill="#3c5d10" opacity="1.00" d=" M 638.27 1181.62 C 636.67 1176.83 637.91 1171.77 639.88 1167.31 C 639.16 1172.06 638.65 1176.83 638.27 1181.62 Z" />
</g>
</svg>
