<?xml version="1.0" encoding="UTF-8" ?>
<!DOCTYPE svg PUBLIC "-//W3C//DTD SVG 1.1//EN" "http://www.w3.org/Graphics/SVG/1.1/DTD/svg11.dtd">
<svg width="1000pt" height="800pt" viewBox="0 0 1000 800" version="1.1" xmlns="http://www.w3.org/2000/svg">
<g id="#c1272dff">
<path fill="#c1272d" opacity="1.00" d=" M 631.50 2.72 C 633.68 2.26 635.91 2.05 638.11 1.66 C 638.76 2.82 639.38 4.01 639.99 5.20 C 640.55 5.33 641.67 5.57 642.23 5.69 C 640.81 12.03 642.22 18.62 644.42 24.61 C 645.40 24.26 646.39 23.92 647.38 23.57 C 647.55 26.32 647.92 29.06 648.30 31.79 C 649.23 33.45 649.90 35.32 651.19 36.75 C 652.64 37.67 654.31 38.14 655.91 38.76 C 658.92 41.81 662.47 44.47 664.27 48.49 C 665.01 50.85 667.54 51.15 669.59 51.78 C 671.79 53.80 673.81 56.01 675.90 58.15 C 678.15 60.43 681.58 60.93 683.86 63.19 C 688.10 67.07 693.47 69.90 699.32 69.99 C 703.57 72.16 708.42 72.39 712.96 73.62 C 716.55 74.65 720.24 75.20 723.94 75.72 C 730.78 70.89 739.60 71.95 746.95 68.40 C 751.19 66.86 755.96 67.11 759.87 64.52 C 759.79 65.32 759.64 66.92 759.56 67.72 C 762.21 70.52 766.43 71.62 770.01 69.97 C 772.63 68.86 772.85 65.68 773.68 63.34 C 775.45 62.91 777.24 62.52 779.05 62.19 C 783.51 66.93 789.64 69.42 795.98 70.40 C 800.78 70.96 806.01 73.07 810.62 70.62 C 813.76 69.16 817.20 68.54 820.43 67.30 C 822.29 66.03 823.44 64.01 824.81 62.27 C 825.40 62.65 826.57 63.43 827.16 63.81 C 831.22 60.24 833.40 55.22 835.15 50.22 C 835.49 48.41 837.26 47.82 838.75 47.16 C 838.28 52.15 838.38 57.15 838.54 62.16 C 839.55 62.71 840.57 63.27 841.60 63.83 C 841.49 65.32 841.38 66.81 841.30 68.30 C 841.85 68.62 842.95 69.27 843.51 69.59 C 842.65 70.31 841.80 71.03 840.96 71.76 C 843.42 77.56 849.52 80.95 855.74 80.62 C 855.02 76.86 850.56 75.23 848.60 72.10 C 854.74 78.08 863.07 82.42 871.84 81.80 C 875.84 81.46 879.14 78.91 881.98 76.27 C 888.09 77.55 894.02 79.39 899.75 81.87 C 899.70 83.00 899.65 84.12 899.62 85.24 C 904.33 89.14 909.05 93.02 913.75 96.93 C 915.71 96.69 917.68 96.47 919.65 96.25 C 919.63 97.89 919.61 99.53 919.61 101.18 C 921.83 102.45 924.07 103.71 926.31 104.98 C 926.43 105.99 926.57 107.01 926.71 108.03 C 930.72 109.83 934.53 112.04 938.44 114.04 C 935.75 118.06 933.33 122.26 930.32 126.07 C 933.78 129.20 936.00 133.36 938.74 137.09 C 940.21 137.56 941.67 138.05 943.15 138.54 C 940.58 142.00 937.30 145.00 935.41 148.91 C 937.28 151.37 939.85 153.32 941.24 156.15 C 941.57 158.42 941.13 160.71 940.84 162.97 C 942.32 167.45 944.91 171.56 945.90 176.20 C 945.47 182.91 943.80 189.49 942.62 196.10 C 941.65 200.24 943.56 204.25 944.50 208.21 C 942.39 210.12 938.97 211.58 939.11 214.92 C 939.91 215.98 940.89 216.91 941.83 217.88 C 943.24 217.63 944.67 217.39 946.11 217.17 C 946.65 218.88 947.20 220.59 947.77 222.30 C 948.64 222.83 949.52 223.36 950.41 223.89 C 950.16 227.95 951.67 232.59 948.65 235.94 C 948.48 237.31 948.31 238.68 948.17 240.05 C 944.60 244.77 945.08 250.86 944.87 256.44 C 945.81 259.60 948.78 261.62 950.38 264.45 C 952.16 267.58 953.55 271.18 956.65 273.30 C 958.33 274.76 960.94 275.62 961.49 278.03 C 961.34 280.77 960.40 283.41 959.58 286.02 C 958.13 286.31 956.70 286.65 955.29 287.05 C 958.97 294.42 964.14 300.98 968.10 308.22 C 970.56 309.37 973.05 310.47 975.48 311.72 C 984.37 316.55 991.05 324.63 1000.00 329.30 L 1000.00 330.72 C 996.06 333.02 993.62 337.09 989.67 339.39 C 987.42 339.67 985.22 340.12 983.04 340.67 C 982.49 343.54 981.27 346.21 979.44 348.48 C 979.69 349.25 979.95 350.03 980.22 350.81 C 979.67 353.71 979.41 356.65 979.42 359.60 C 977.78 361.12 976.17 362.66 974.63 364.27 C 977.71 363.81 980.80 363.23 983.93 363.15 C 984.86 364.92 985.83 366.67 986.88 368.38 C 984.49 369.93 982.05 371.42 979.36 372.38 C 973.36 370.82 967.05 371.75 961.02 370.38 C 958.04 369.59 955.01 370.28 952.01 370.39 C 942.78 369.09 933.90 366.23 924.84 364.16 C 923.23 364.27 921.62 364.30 920.02 364.29 C 918.71 363.51 917.49 362.41 915.94 362.24 C 911.44 362.67 907.62 365.91 903.00 365.70 C 899.59 365.32 896.42 363.06 892.91 364.08 C 884.60 365.01 874.89 362.46 867.97 368.51 C 859.17 368.28 850.36 369.03 841.57 368.37 C 840.90 370.88 840.20 373.44 840.23 376.06 C 842.19 382.79 847.34 388.53 847.60 395.76 C 847.88 396.08 848.44 396.71 848.72 397.02 C 848.73 397.57 848.74 398.68 848.75 399.24 C 842.71 400.64 836.67 402.02 830.73 403.82 C 813.98 407.42 797.23 411.06 780.53 414.89 C 780.54 420.92 780.50 426.95 780.49 432.99 C 780.41 434.88 780.81 436.75 781.57 438.49 C 779.47 439.94 777.33 441.33 775.42 443.03 C 774.77 442.33 774.17 441.60 773.63 440.84 C 773.20 442.52 772.74 444.19 772.35 445.87 C 771.90 446.38 771.01 447.39 770.56 447.89 C 771.42 448.51 772.28 449.13 773.16 449.76 C 772.23 450.97 771.32 452.19 770.44 453.43 C 773.26 457.25 771.77 461.74 771.21 465.99 C 771.56 465.51 772.25 464.54 772.59 464.05 C 773.24 464.21 774.54 464.52 775.19 464.68 C 775.70 463.15 776.31 461.66 776.95 460.18 C 777.66 460.21 779.08 460.28 779.78 460.31 C 779.81 462.98 779.76 465.65 779.72 468.33 C 781.24 467.34 782.71 466.27 784.14 465.16 C 785.28 467.51 786.51 469.81 787.80 472.09 C 788.54 471.42 789.29 470.76 790.06 470.10 C 791.17 474.16 791.58 478.43 789.87 482.40 C 789.43 482.71 788.53 483.34 788.09 483.66 C 786.81 486.22 784.99 488.51 782.55 490.05 C 781.78 492.72 781.35 495.47 781.04 498.24 C 781.80 498.35 783.33 498.58 784.10 498.69 C 784.23 499.56 784.50 501.30 784.63 502.17 C 783.25 504.02 781.67 505.83 779.44 506.65 C 772.44 509.62 765.41 512.59 758.00 514.40 C 751.40 516.66 744.11 514.92 737.60 517.55 C 735.11 518.47 732.62 519.38 730.15 520.33 C 724.81 522.08 721.63 527.01 717.67 530.65 C 712.52 535.52 707.95 541.04 702.47 545.54 C 694.34 550.24 685.69 553.99 677.44 558.49 C 671.33 562.20 666.71 567.82 660.89 571.91 C 655.41 575.52 650.04 579.55 645.93 584.71 C 643.12 587.63 645.41 592.06 643.20 595.20 C 637.16 604.44 630.07 613.04 624.94 622.84 C 621.08 621.97 617.15 620.74 614.43 617.68 C 612.60 618.45 610.73 619.15 608.88 619.85 C 609.57 617.32 610.53 614.89 611.63 612.52 C 608.93 611.21 606.02 609.66 602.92 610.41 C 596.94 611.56 590.99 612.85 585.13 614.46 C 580.73 615.79 576.48 612.58 572.08 613.70 C 567.40 614.77 562.60 614.46 557.85 614.44 C 557.55 614.68 556.96 615.16 556.67 615.40 C 555.08 615.12 553.49 614.80 551.88 614.77 C 549.31 615.35 547.26 617.14 545.22 618.71 C 540.41 618.52 535.50 618.48 530.87 619.98 C 528.93 621.03 527.72 622.99 526.01 624.34 C 521.43 625.37 517.40 622.25 513.04 621.50 C 510.34 621.17 507.62 621.27 504.91 621.18 C 501.45 621.12 498.55 618.28 495.03 618.86 C 492.47 619.42 490.11 620.67 487.80 621.89 C 483.76 624.08 481.70 628.59 477.78 630.91 C 471.58 633.72 464.42 634.67 457.79 632.90 C 457.27 633.13 456.23 633.57 455.71 633.80 C 455.05 635.92 454.26 638.00 453.31 640.02 C 448.60 641.17 443.81 642.77 440.17 646.10 C 437.84 648.27 435.15 649.97 432.37 651.50 C 428.94 653.26 427.37 657.15 424.00 659.01 C 418.51 662.12 413.83 666.49 408.02 669.06 C 402.04 673.64 395.99 678.29 391.05 684.04 C 389.13 686.22 387.13 688.44 384.40 689.62 C 379.34 691.91 374.47 694.62 369.39 696.89 C 369.35 730.45 369.46 764.01 369.45 797.57 C 313.61 797.81 257.77 797.70 201.93 797.82 C 158.97 798.57 115.98 798.11 73.01 798.33 C 48.68 798.21 24.33 798.66 0.01 798.22 C 2.66 796.40 5.50 794.91 8.17 793.14 C 14.53 787.83 12.93 777.33 20.31 772.88 C 30.55 769.72 41.43 769.91 51.85 767.54 C 60.21 765.50 68.60 763.43 77.12 762.13 C 80.84 760.94 84.68 760.17 88.40 758.99 C 91.21 758.09 93.48 756.09 96.14 754.87 C 101.95 751.76 108.28 749.81 114.19 746.91 C 122.57 742.75 132.59 741.47 139.59 734.82 C 143.28 729.44 147.10 724.14 150.75 718.73 C 153.65 715.31 157.36 712.66 160.07 709.05 C 164.44 704.77 169.25 700.87 172.53 695.62 C 178.85 691.30 185.92 688.18 192.62 684.51 C 200.75 680.20 208.51 675.24 216.03 669.96 C 223.60 664.31 226.92 655.06 233.48 648.48 C 235.69 645.98 238.77 644.48 241.01 642.03 C 242.71 639.89 243.62 637.27 244.91 634.90 C 246.82 631.14 250.19 628.38 252.10 624.61 C 254.30 621.00 254.75 616.62 257.07 613.08 C 258.50 610.75 260.00 608.47 261.30 606.08 C 263.87 600.94 268.84 597.74 272.40 593.39 C 279.33 585.75 281.74 575.44 286.59 566.58 C 289.32 561.51 289.70 555.67 290.59 550.10 C 291.21 544.76 292.77 539.50 292.63 534.10 C 290.93 532.42 288.46 531.28 287.68 528.87 C 286.70 526.12 285.69 523.38 284.39 520.76 C 283.81 520.64 282.67 520.40 282.10 520.28 C 280.56 517.79 278.97 515.06 276.22 513.75 C 274.04 512.49 271.45 512.82 269.05 512.64 C 269.59 505.51 274.90 500.02 276.19 493.05 C 275.77 492.71 274.93 492.03 274.51 491.69 C 276.35 487.21 273.90 482.57 274.82 478.00 C 276.46 471.49 271.22 465.13 274.31 458.79 C 274.51 455.86 275.16 453.00 276.06 450.22 C 277.18 446.83 276.31 443.26 275.44 439.93 C 274.64 439.73 273.04 439.32 272.24 439.12 C 274.85 435.35 277.57 431.62 279.43 427.41 L 277.19 427.78 C 283.22 423.77 287.70 416.84 286.66 409.38 C 289.61 406.36 291.98 402.86 294.49 399.49 C 300.16 392.50 305.78 385.46 311.82 378.78 C 314.60 375.93 314.72 371.73 316.43 368.32 C 318.17 365.41 321.35 362.83 320.70 359.06 C 320.26 355.92 321.06 352.85 321.82 349.83 C 320.72 349.28 319.63 348.73 318.55 348.19 C 316.85 343.01 322.69 339.93 322.66 334.97 C 321.70 332.32 319.49 330.29 318.09 327.86 C 324.60 322.45 331.47 317.32 336.84 310.70 C 341.62 304.79 348.53 301.12 353.16 295.08 C 360.58 287.27 367.49 278.95 373.69 270.13 C 373.29 269.56 372.51 268.43 372.12 267.86 C 375.05 264.19 378.41 260.87 382.04 257.89 C 382.71 258.69 383.38 259.48 384.05 260.28 C 390.15 258.25 395.76 254.23 398.82 248.48 C 408.50 245.72 417.73 241.63 426.97 237.69 C 431.51 236.19 435.46 233.33 440.09 232.06 C 444.68 230.87 448.05 227.31 452.27 225.37 C 454.20 225.06 456.17 225.33 458.12 225.42 C 463.66 223.19 468.41 219.55 472.71 215.47 C 477.71 215.40 480.60 210.96 484.41 208.46 C 487.69 205.97 491.90 205.37 495.43 203.35 C 500.68 200.03 506.40 197.32 510.73 192.73 C 519.68 183.50 529.49 173.98 532.94 161.16 C 533.43 161.28 534.42 161.52 534.92 161.64 C 534.53 161.40 533.77 160.91 533.38 160.67 C 538.42 152.26 544.16 144.27 548.52 135.46 C 556.26 120.17 563.69 104.64 569.09 88.35 C 570.59 82.62 572.62 77.07 574.62 71.51 C 575.03 71.38 575.83 71.11 576.23 70.98 C 577.55 65.13 579.67 59.51 581.28 53.75 C 582.90 48.07 586.82 43.33 587.93 37.47 C 590.09 29.55 591.28 21.23 594.70 13.73 C 598.98 12.32 603.39 14.22 607.68 14.73 C 608.82 10.68 613.14 9.09 616.99 9.92 C 619.63 9.86 622.48 10.09 624.83 8.63 C 627.37 7.05 629.08 4.46 631.50 2.72 M 519.82 213.43 C 505.10 258.50 490.31 303.55 475.50 348.59 C 475.21 350.29 473.29 350.06 472.00 350.16 C 424.29 350.14 376.58 350.17 328.87 350.20 C 328.85 350.93 328.82 352.39 328.80 353.12 C 367.14 380.80 405.59 408.34 444.00 435.93 C 445.17 436.70 446.44 437.87 445.59 439.38 C 430.88 484.96 415.62 530.36 401.07 575.98 C 402.92 575.73 404.97 575.77 406.47 574.47 C 443.84 547.48 481.31 520.64 518.70 493.68 C 519.94 492.80 521.61 491.49 523.03 492.87 C 561.12 520.16 599.18 547.51 637.24 574.85 C 638.60 575.88 640.39 575.69 642.00 575.99 C 640.77 570.92 638.85 566.05 637.30 561.08 C 623.78 520.00 610.30 478.90 596.77 437.82 C 601.87 433.82 607.23 430.16 612.47 426.35 C 645.80 402.35 679.10 378.32 712.44 354.35 C 714.00 353.53 714.07 351.71 714.41 350.19 C 668.62 350.11 622.83 350.17 577.04 350.17 C 574.08 350.06 571.00 350.60 568.14 349.73 C 566.70 346.99 566.07 343.92 565.06 341.02 C 551.01 298.42 537.05 255.79 522.92 213.22 C 521.88 213.29 520.85 213.36 519.82 213.43 M 76.47 763.33 C 77.11 763.84 77.11 763.84 76.47 763.33 Z" />
<path fill="#c1272d" opacity="1.00" d=" M 510.18 350.04 C 513.98 338.65 517.45 327.13 521.60 315.85 C 525.18 327.30 529.12 338.64 532.83 350.05 C 525.28 350.24 517.72 350.26 510.18 350.04 Z" />
<path fill="#c1272d" opacity="1.00" d=" M 427.94 383.43 C 439.97 383.30 452.00 383.35 464.03 383.29 C 461.98 390.34 459.44 397.22 457.33 404.25 C 452.94 401.90 449.12 398.69 445.06 395.86 C 439.35 391.72 433.55 387.71 427.94 383.43 Z" />
<path fill="#c1272d" opacity="1.00" d=" M 499.22 383.29 C 514.07 383.26 528.92 383.26 543.78 383.29 C 548.28 397.22 552.97 411.08 557.40 425.04 C 545.52 433.64 533.48 442.04 521.72 450.81 C 509.53 442.43 497.68 433.58 485.62 425.02 C 490.02 411.07 494.73 397.22 499.22 383.29 Z" />
<path fill="#c1272d" opacity="1.00" d=" M 578.97 383.27 C 591.01 383.30 603.06 383.20 615.10 383.33 C 605.31 390.31 595.85 397.82 585.69 404.25 C 583.55 397.22 581.01 390.32 578.97 383.27 Z" />
<path fill="#c1272d" opacity="1.00" d=" M 463.90 492.11 C 467.04 480.62 471.20 469.43 474.68 458.03 C 480.83 462.37 486.91 466.80 493.04 471.18 C 483.40 478.27 473.71 485.28 463.90 492.11 Z" />
<path fill="#c1272d" opacity="1.00" d=" M 550.00 471.20 C 556.10 466.79 562.19 462.38 568.33 458.02 C 572.06 469.42 575.73 480.85 579.57 492.22 C 569.51 485.51 559.80 478.28 550.00 471.20 Z" />
</g>
<g id="#000000ff">
<path fill="#000000" opacity="1.00" d=" M 519.82 213.43 C 520.85 213.36 521.88 213.29 522.92 213.22 C 537.05 255.79 551.01 298.42 565.06 341.02 C 566.07 343.92 566.70 346.99 568.14 349.73 C 571.00 350.60 574.08 350.06 577.04 350.17 C 622.83 350.17 668.62 350.11 714.41 350.19 C 714.07 351.71 714.00 353.53 712.44 354.35 C 679.10 378.32 645.80 402.35 612.47 426.35 C 607.23 430.16 601.87 433.82 596.77 437.82 C 610.30 478.90 623.78 520.00 637.30 561.08 C 638.85 566.05 640.77 570.92 642.00 575.99 C 640.39 575.69 638.60 575.88 637.24 574.85 C 599.18 547.51 561.12 520.16 523.03 492.87 C 521.61 491.49 519.94 492.80 518.70 493.68 C 481.31 520.64 443.84 547.48 406.47 574.47 C 404.97 575.77 402.92 575.73 401.07 575.98 C 415.62 530.36 430.88 484.96 445.59 439.38 C 446.44 437.87 445.17 436.70 444.00 435.93 C 405.59 408.34 367.14 380.80 328.80 353.12 C 328.82 352.39 328.85 350.93 328.87 350.20 C 376.58 350.17 424.29 350.14 472.00 350.16 C 473.29 350.06 475.21 350.29 475.50 348.59 C 490.31 303.55 505.10 258.50 519.82 213.43 M 504.75 272.87 C 491.44 313.56 478.06 354.22 464.74 394.91 C 463.47 398.91 461.78 402.82 461.07 406.98 C 462.28 408.45 463.93 409.48 465.47 410.59 C 471.05 414.37 476.31 418.60 482.01 422.22 C 489.57 399.63 496.81 376.94 504.28 354.32 C 510.20 337.18 515.34 319.77 521.55 302.74 C 526.81 318.44 531.98 334.18 537.22 349.90 C 545.95 350.33 554.71 350.10 563.45 350.06 C 562.67 347.11 561.78 344.19 560.77 341.31 C 547.63 301.75 534.80 262.08 521.55 222.56 C 515.47 239.15 510.45 256.14 504.75 272.87 M 510.18 350.04 C 517.72 350.26 525.28 350.24 532.83 350.05 C 529.12 338.64 525.18 327.30 521.60 315.85 C 517.45 327.13 513.98 338.65 510.18 350.04 M 337.88 354.39 C 361.08 371.48 384.66 388.05 407.99 404.95 C 437.59 426.15 467.10 447.47 496.73 468.62 C 503.70 463.40 510.90 458.51 517.85 453.28 C 493.95 436.15 470.01 419.09 446.21 401.83 C 436.04 394.25 425.35 387.35 415.50 379.37 C 432.17 378.88 448.86 379.62 465.53 378.78 C 468.15 370.56 470.99 362.41 473.55 354.17 C 428.33 354.23 383.10 354.29 337.88 354.39 M 508.97 354.26 C 505.99 362.36 503.30 370.57 500.88 378.85 C 525.27 378.89 549.67 378.85 574.06 378.86 C 591.90 379.08 609.76 378.50 627.60 379.13 C 614.53 389.51 600.51 398.67 587.26 408.83 C 590.10 416.88 592.65 425.03 595.32 433.15 C 600.33 430.38 604.69 426.63 609.41 423.42 C 641.31 400.35 673.36 377.49 705.18 354.32 C 639.78 354.13 574.37 354.39 508.97 354.26 M 427.94 383.43 C 433.55 387.71 439.35 391.72 445.06 395.86 C 449.12 398.69 452.94 401.90 457.33 404.25 C 459.44 397.22 461.98 390.34 464.03 383.29 C 452.00 383.35 439.97 383.30 427.94 383.43 M 499.22 383.29 C 494.73 397.22 490.02 411.07 485.62 425.02 C 497.68 433.58 509.53 442.43 521.72 450.81 C 533.48 442.04 545.52 433.64 557.40 425.04 C 552.97 411.08 548.28 397.22 543.78 383.29 C 528.92 383.26 514.07 383.26 499.22 383.29 M 548.15 383.34 C 561.47 423.21 574.29 463.26 587.62 503.13 C 573.99 493.90 560.87 483.94 547.34 474.58 C 546.38 473.68 545.25 474.94 544.37 475.32 C 537.96 479.93 531.54 484.52 525.18 489.19 C 561.65 515.42 598.06 541.75 634.73 567.70 C 633.88 563.67 632.52 559.78 631.18 555.89 C 612.28 498.38 593.36 440.87 574.48 383.34 C 565.70 383.22 556.92 383.24 548.15 383.34 M 578.97 383.27 C 581.01 390.32 583.55 397.22 585.69 404.25 C 595.85 397.82 605.31 390.31 615.10 383.33 C 603.06 383.20 591.01 383.30 578.97 383.27 M 487.43 480.45 C 476.88 487.78 466.79 495.80 455.95 502.70 C 460.58 486.82 466.38 471.29 470.95 455.39 C 463.88 450.36 456.91 445.20 449.80 440.24 C 439.97 470.01 430.28 499.82 420.50 529.61 C 416.51 542.36 411.86 554.91 408.28 567.79 C 429.94 552.68 451.19 536.99 472.69 521.66 C 504.05 499.04 535.52 476.57 566.82 453.87 C 564.36 445.63 561.51 437.52 558.87 429.34 C 534.83 446.05 511.28 463.47 487.43 480.45 M 463.90 492.11 C 473.71 485.28 483.40 478.27 493.04 471.18 C 486.91 466.80 480.83 462.37 474.68 458.03 C 471.20 469.43 467.04 480.62 463.90 492.11 M 550.00 471.20 C 559.80 478.28 569.51 485.51 579.57 492.22 C 575.73 480.85 572.06 469.42 568.33 458.02 C 562.19 462.38 556.10 466.79 550.00 471.20 Z" />
</g>
<g id="#006233ff">
<path fill="#006233" opacity="1.00" d=" M 504.75 272.87 C 510.45 256.14 515.47 239.15 521.55 222.56 C 534.80 262.08 547.63 301.75 560.77 341.31 C 561.78 344.19 562.67 347.11 563.45 350.06 C 554.71 350.10 545.95 350.33 537.22 349.90 C 531.98 334.18 526.81 318.44 521.55 302.74 C 515.34 319.77 510.20 337.18 504.28 354.32 C 496.81 376.94 489.57 399.63 482.01 422.22 C 476.31 418.60 471.05 414.37 465.47 410.59 C 463.93 409.48 462.28 408.45 461.07 406.98 C 461.78 402.82 463.47 398.91 464.74 394.91 C 478.06 354.22 491.44 313.56 504.75 272.87 Z" />
<path fill="#006233" opacity="1.00" d=" M 337.88 354.39 C 383.10 354.29 428.33 354.23 473.55 354.17 C 470.99 362.41 468.15 370.56 465.53 378.78 C 448.86 379.62 432.17 378.88 415.50 379.37 C 425.35 387.35 436.04 394.25 446.21 401.83 C 470.01 419.09 493.95 436.15 517.85 453.28 C 510.90 458.51 503.70 463.40 496.73 468.62 C 467.10 447.47 437.59 426.15 407.99 404.95 C 384.66 388.05 361.08 371.48 337.88 354.39 Z" />
<path fill="#006233" opacity="1.00" d=" M 508.97 354.26 C 574.37 354.39 639.78 354.13 705.18 354.32 C 673.36 377.49 641.31 400.35 609.41 423.42 C 604.69 426.63 600.33 430.38 595.32 433.15 C 592.65 425.03 590.10 416.88 587.26 408.83 C 600.51 398.67 614.53 389.51 627.60 379.13 C 609.76 378.50 591.90 379.08 574.06 378.86 C 549.67 378.85 525.27 378.89 500.88 378.85 C 503.30 370.57 505.99 362.36 508.97 354.26 Z" />
<path fill="#006233" opacity="1.00" d=" M 548.15 383.34 C 556.92 383.24 565.70 383.22 574.48 383.34 C 593.36 440.87 612.28 498.38 631.18 555.89 C 632.52 559.78 633.88 563.67 634.73 567.70 C 598.06 541.75 561.65 515.42 525.18 489.19 C 531.54 484.52 537.96 479.93 544.37 475.32 C 545.25 474.94 546.38 473.68 547.34 474.58 C 560.87 483.94 573.99 493.90 587.62 503.13 C 574.29 463.26 561.47 423.21 548.15 383.34 Z" />
<path fill="#006233" opacity="1.00" d=" M 487.43 480.45 C 511.28 463.47 534.83 446.05 558.87 429.34 C 561.51 437.52 564.36 445.63 566.82 453.87 C 535.52 476.57 504.05 499.04 472.69 521.66 C 451.19 536.99 429.94 552.68 408.28 567.79 C 411.86 554.91 416.51 542.36 420.50 529.61 C 430.28 499.82 439.97 470.01 449.80 440.24 C 456.91 445.20 463.88 450.36 470.95 455.39 C 466.38 471.29 460.58 486.82 455.95 502.70 C 466.79 495.80 476.88 487.78 487.43 480.45 Z" />
</g>
<g id="#29080937">
<path fill="#290809" opacity="0.22" d=" M 76.47 763.33 C 77.11 763.84 77.11 763.84 76.47 763.33 Z" />
</g>
</svg>
