<?xml version="1.0" encoding="UTF-8" standalone="no"?>
<!-- Created with Inkscape by Tiger -->

<svg
   xmlns:dc="http://purl.org/dc/elements/1.1/"
   xmlns:cc="http://creativecommons.org/ns#"
   xmlns:rdf="http://www.w3.org/1999/02/22-rdf-syntax-ns#"
   xmlns:svg="http://www.w3.org/2000/svg"
   xmlns="http://www.w3.org/2000/svg"
   version="1.1"
   width="193.964"
   height="184.496"
   viewBox="0 0 193.964 184.496"
   id="svg"
   xml:space="preserve"
   style="overflow:visible">
  <title    id="titre">Flag of Nauru Land Version</title>
  <desc     id="description">Crée par Victor GASIA 2012 à partir d'un travail original de Wikimedia</desc>
  <metadata id="metadata"></metadata>
  <defs     id="defs"></defs>
<path
     d="m 161.038,141.111 c 2.499,9.624 -4.634,15.935 -12.512,19.792 -11.664,5.71 -22.696,12.727 -34.489,18.145 -21.275,9.775 -46.224,5.038 -67.039,-3.56 C 26.703,167.104 9.628,153.385 2.687,131.759 -2.876,114.419 0.303,93.78 11.233,79.215 16.671,71.967 23.664,66.019 31.042,60.826 40.881,53.902 48.888,44.764 57.262,36.222 65.154,28.17 74.457,21.597 81.881,13.072 89.01,4.883 94.138,0.346 105.552,0.064 c 19.388,-0.479 42.563,1.496 59.246,12.051 13.839,8.757 27.756,24.723 29.087,41.696 1.246,15.905 -12.574,23.319 -21.252,34.386 -11.521,14.694 -12.143,35.034 -11.595,52.914"
     id="bleu"
     style="fill:#002b7f" /><polygon
     points="42.592,117.134 38.645,103.321 48.634,113.646 52.121,99.711 55.609,113.646 65.598,103.321 61.65,117.134 75.463,113.188 65.139,123.176 79.074,126.663 65.139,130.152 75.463,140.141 61.65,136.193 65.598,150.006 55.609,139.681 52.121,153.616 48.634,139.681 38.645,150.006 42.592,136.193 28.779,140.141 39.104,130.152 25.168,126.663 39.104,123.176 28.779,113.188 "
     id="etoileblanche"
     style="fill:#ffffff" /><path
     d="m 165.922,99.711 h 0.145 V 99.69 c 1.646,-4.083 3.79,-7.951 6.566,-11.492 1.085,-1.384 2.25,-2.71 3.456,-4.003 l -0.063,0.026 H 175.029 7.869 7.915 C 5.12,89.007 3.048,94.258 1.727,99.711 L 1.7,99.717 1.701,99.711 h 164.221"
     id="jaune"
     style="fill:#fac61b" />
</svg>
