<?xml version="1.0" encoding="UTF-8" standalone="no"?>
<svg
   xmlns:dc="http://purl.org/dc/elements/1.1/"
   xmlns:cc="http://creativecommons.org/ns#"
   xmlns:rdf="http://www.w3.org/1999/02/22-rdf-syntax-ns#"
   xmlns:svg="http://www.w3.org/2000/svg"
   xmlns="http://www.w3.org/2000/svg"
   xmlns:sodipodi="http://sodipodi.sourceforge.net/DTD/sodipodi-0.dtd"
   xmlns:inkscape="http://www.inkscape.org/namespaces/inkscape"
   width="516.26624"
   height="600.00116"
   viewBox="0 0 5.1626624 6.0000116"
   id="svg2"
   version="1.1"
   inkscape:version="0.91 r13725"
   sodipodi:docname="Flag_of_the_Netherlands (2).svg">
  <metadata
     id="metadata14">
    <rdf:RDF>
      <cc:Work
         rdf:about="">
        <dc:format>image/svg+xml</dc:format>
        <dc:type
           rdf:resource="http://purl.org/dc/dcmitype/StillImage" />
        <dc:title></dc:title>
      </cc:Work>
    </rdf:RDF>
  </metadata>
  <defs
     id="defs12" />
  <sodipodi:namedview
     pagecolor="#ffffff"
     bordercolor="#666666"
     borderopacity="1"
     objecttolerance="10"
     gridtolerance="10"
     guidetolerance="10"
     inkscape:pageopacity="0"
     inkscape:pageshadow="2"
     inkscape:window-width="1600"
     inkscape:window-height="837"
     id="namedview10"
     showgrid="false"
     fit-margin-top="0"
     fit-margin-left="0"
     fit-margin-right="0"
     fit-margin-bottom="0"
     inkscape:zoom="2.8284271"
     inkscape:cx="329.17456"
     inkscape:cy="283.53685"
     inkscape:window-x="-8"
     inkscape:window-y="-8"
     inkscape:window-maximized="1"
     inkscape:current-layer="svg2" />
  <path
     style="fill:#ffffff;stroke:#21468b;stroke-width:0.015;stroke-miterlimit:0;stroke-dasharray:none;stroke-opacity:1"
     d="m 1.6959766,1.98 -0.0068,0.036348 -0.00381,0.045645 -0.0024,0.029043 -0.010742,0.058633 -0.00687,0.037871 -0.00799,0.028555 -0.026309,0.09373 -8.79e-4,0.00318 8.59e-4,0.00338 -0.00428,0.033281 -0.00854,0.013652 -0.00219,0.010859 -0.00113,0.00371 -0.028398,0.089746 -0.017051,0.042324 -0.010488,0.026035 -0.020176,0.050176 -0.020977,0.043125 -4.88e-4,9.96e-4 -0.07166,0.1474218 -0.00102,0.00215 -1.76e-4,2.93e-4 -0.011152,0.022969 -0.00574,0.011894 -0.033066,0.054434 -0.00367,0.00625 -4e-5,6e-5 -0.00459,0.00773 -0.012754,0.021602 -3.32e-4,5.47e-4 -0.020508,0.034727 -0.043633,0.062168 -0.039141,0.047832 -0.022734,0.020527 -0.014844,0.013379 -0.00188,0.00174 -0.019902,0.027617 -0.012695,0.014766 -0.126836,0.1478125 -0.01168,0.016094 -0.027969,0.038301 -0.045,0.028555 1.172e-4,8e-5 0.0382226,0.017168 0.034824,0.044844 -0.043848,-0.019531 -0.0221484,-0.010469 -0.00877,-0.00514 0.001504,0.00883 -0.007129,0.013926 -7.813e-4,0.00863 -7.227e-4,0.011582 0.003418,0.00771 0.001914,0.00471 -8.984e-4,0.00281 -0.001719,0.00178 -0.003613,-6.05e-4 -8.789e-4,0.00342 -0.001211,0.00576 0.0129883,0.00342 -0.002188,0.00357 -0.0316797,0.00307 -0.0263477,0.010273 -0.0124609,-0.00148 -0.007012,-0.015898 0.004805,-0.00363 0.00584,0.00959 0.0351953,-0.010117 0.005215,-0.00652 0.00459,-0.009 -0.0025,-0.011309 -0.0125,-0.00672 -0.0184961,-0.00404 0.0172266,0.00146 0.010918,-0.00322 -0.001953,-0.00691 -0.0117578,-0.00332 c 0,0 0.004198,-0.00287 0.004238,-0.00506 l -0.0391602,-0.00541 -0.0210352,0.00674 c -2.721e-4,-6.7e-4 -2.285e-4,-0.012196 -0.003184,-0.011699 -4.247e-4,7e-5 6.573e-4,0.0091 -0.002656,0.013398 -0.00186,0.00247 -9.998e-4,0.00418 -8.008e-4,0.00453 -8.626e-4,0.00253 -0.003186,0.010232 -0.003516,0.00953 0,0 -0.0120734,0.00838 -0.0143164,0.010859 0.00319,-0.00451 0.0132227,-0.019492 0.0132227,-0.019492 0.00126,-9.62e-4 0.001117,-0.0101 0.004297,-0.00898 0.00106,3.78e-4 0.001196,-0.017371 -1.367e-4,-0.017324 -0.00192,6e-5 -0.005508,-0.00129 -0.009258,0.00271 -0.00292,0.0031 -0.005914,0.01142 -0.008164,0.013476 -0.00385,0.00344 -0.004779,8.16e-4 -0.005039,1e-4 -0.00232,-0.00575 0.0143072,-0.025611 0.0151562,-0.027363 l 0.003203,-0.00264 0.0344141,0.01 0.0451172,0.012422 0.00627,-0.00105 0.00209,-0.00318 0.002227,-0.00398 -0.007734,-0.00758 -0.0186328,-0.00861 -0.0300195,-0.01209 -0.0319141,-7.03e-4 -0.0205273,0.00955 -0.0125781,0.010879 -0.009844,0.014766 -0.004258,0.02918 0.004512,0.025762 0.009961,0.029844 0.008711,-0.012051 c -0.00106,-0.00425 1.502e-4,-0.00641 5.9e-5,-0.00396 l 3.711e-4,0.00287 0.0381641,0.00133 0.006641,0.017363 -0.003047,0.011914 0.009492,0.015274 0.004414,-0.00109 0.00207,-0.00988 0.005782,-0.00421 0.0179492,0.016562 -0.002148,0.00887 -0.004902,1.56e-4 -0.0175195,0.033516 -0.005977,0.00576 -0.004043,0.00393 -0.003125,0.00846 0.002324,0.00818 0.0309961,0.035664 0.012168,0.021113 0.005684,0.018926 -0.002695,0.00791 -0.0129492,0.0098 -7.422e-4,0.00594 0.008438,-6.25e-4 0.0216016,-0.0015 0.0108984,0.014824 0.0136914,0.00975 0.0183789,0.00234 0.010625,0.00699 0.00621,-0.00566 0.00387,0.011172 0.00846,0.00168 0.011465,0.00299 0.016699,-0.00254 0.025723,0.015762 0.00922,0.012969 0.02373,0.010879 0.010898,0.00107 0.023242,0.015391 0.010762,0.011914 0.015,0.00533 0.010137,-0.0057 0.00172,0.00586 -0.00818,0.00656 -0.013711,0.00199 2.34e-4,0.00582 0.023086,0.026738 0.027109,0.010664 0.043848,0.017754 0.036816,0.00902 0.017031,0.00973 0.00545,-1.17e-4 0.011152,0.010371 0.015957,0.00537 0.039883,0.02582 0.00719,0.00465 0.00123,7.62e-4 0.016953,0.00639 0.023789,0.00213 0.01627,0.00346 0.038926,0.00119 0.043457,0.019258 0.017129,0.012188 0.05002,-0.00594 0.047598,-0.018731 0.019453,-0.005 0.00109,-2.93e-4 0.022813,-0.015723 0,6e-5 0.00316,0.00693 0.00197,0.0043 0.00736,0.016074 -0.012715,0.00182 -0.019922,0.025586 -0.016445,0.00938 6.84e-4,0.0024 0.00152,0.00533 -0.00693,-0.00127 -0.00357,-0.00482 -0.036934,0.014356 -0.00408,2.15e-4 -0.089238,0.00508 -0.022754,-0.0032 -0.027012,-0.010918 -0.020332,-0.00818 -0.00543,-0.00621 -0.00709,-0.00125 -0.013691,0.00338 -0.012012,0.00822 -0.00348,-0.00256 -0.0018,-0.00758 0.015801,-0.01373 -0.00742,-0.00125 -0.00854,0.00959 -0.00787,2.93e-4 -0.00518,0.00453 -0.00486,-0.00223 -0.00152,-0.024805 -2e-5,-6.45e-4 -0.00338,-7.62e-4 -5.86e-4,-1.17e-4 -4.49e-4,4.49e-4 -0.010019,0.010644 -0.00297,-0.00398 -0.00527,-0.00701 -8e-5,-2e-5 -0.00582,-2.93e-4 -0.0077,0.00613 -0.020938,0.00613 -0.022598,7.03e-4 -0.026406,-0.00893 -0.00734,-0.00566 -0.010879,-0.00842 -0.041816,-0.012812 -0.023008,-0.024707 -0.015117,-0.023496 -0.02627,-0.018203 -0.00875,-0.011973 -0.010059,-0.00455 -0.00996,-0.013984 -0.011484,-0.021484 -0.011191,0.0043 -0.045117,-0.019922 -0.032891,-0.022851 -0.00994,-0.004 -0.011562,-0.00457 -0.0122852,-0.011309 -0.0432227,-0.020918 -0.0163086,-0.013633 -0.008926,-0.00119 -0.007227,0.00523 -0.005254,-0.00814 0.006875,-0.00273 -0.004043,-0.016777 -0.009805,0.00404 -2.539e-4,0.00643 -0.004883,0.00113 -0.0104492,-0.011426 -0.006035,-0.0066 -0.0167383,-0.01207 0.003516,-0.011445 -0.008496,4.1e-4 -0.0143555,7.23e-4 -0.015,7.03e-4 -0.008965,4.1e-4 -0.0414063,0.014316 -0.0339648,0.017363 -0.002324,0.00123 -0.0131445,0.00264 -0.0293359,0.00602 -0.007949,0.00162 -0.0192383,0.012461 -0.008926,0.011133 -0.004375,0.01291 0.00377,0.020488 0.0123828,0.025469 -0.00252,0.00377 -0.002383,0.00371 -0.00207,0.00312 0.00252,0.010645 4.492e-4,0.00193 0.00125,0.00539 0.007715,-0.00518 0.001387,-0.014785 0.009043,0.00455 0.008398,1.76e-4 0.0217383,-0.022891 5.9e-5,0 0.001133,-1.37e-4 0.00623,-6.64e-4 0.006582,-0.00957 0.0405859,-0.00799 0.007656,-0.00664 0.0226953,-3.71e-4 0.008535,0.00506 0.010918,0.00156 0.009453,-0.00203 0.0157422,0.00254 0.002266,0.00494 3.516e-4,8.59e-4 0.007617,0.016797 0.0144531,0.01666 0.005176,0.01793 1.953e-4,0.019102 -0.004648,0.020293 0.00457,0.015449 0.004121,0.00381 0.0116406,-0.00434 0.001543,0.015645 0.0105664,0.018672 0.009785,0.023672 0.001016,0.013691 0.004141,0.00523 0.00291,-0.00113 0.001465,-5.27e-4 0.00248,0.00197 0.008672,0.00693 9.18e-4,1.95e-4 0.009023,0.00191 0.0215625,-0.00227 0.008477,0.00307 0.0146289,-0.00438 0.040254,0.011211 0.023066,0.010957 0.012715,0.019395 0.00236,0.00363 0.011231,0.011367 0.020781,0.00266 0.00619,0.00467 0.2297657,0 0.010273,-0.025234 0.010234,-0.00502 4.3e-4,-2.34e-4 0.00461,-0.0085 0.012441,0.004 -0.00977,0.0175 0.00348,8.2e-4 0.012383,-0.013164 0.00281,-0.00293 0.00305,0.00787 -8e-5,3.71e-4 -0.00326,0.012324 -0.00582,0.012188 2.1838086,0 c -8e-5,-2.95e-4 -2.19e-4,-5.59e-4 -2.93e-4,-8.59e-4 -0.00206,-0.00835 0.00186,-0.021574 0.00186,-0.030898 0,-0.014254 -0.00388,-0.027931 0,-0.041641 0.00181,-0.00251 0.00596,-0.00517 0.00893,-0.00598 l 0.00217,-0.00344 C 3.5713639,3.923212 3.534389,3.8919507 3.514899,3.8900397 c -0.012323,-0.00123 -0.025964,0.00544 -0.039004,0.00488 -0.0065,-0.00566 -0.00815,-0.015093 -0.00785,-0.023262 0.00264,-0.00149 0.00493,-0.00334 0.00705,-0.00549 0.010213,-0.010405 0.039592,-0.020545 0.039473,-0.036133 -0.00138,-0.00502 -0.00504,-0.00976 -0.00893,-0.013184 9.95e-4,-0.00317 0.00307,-0.00649 0.00549,-0.00879 l 7.62e-4,-0.00725 C 3.51022,3.7975307 3.50881,3.7942107 3.50748,3.7907717 3.50524,3.7882117 3.49952,3.7867517 3.496289,3.7871617 3.477934,3.7697157 3.505359,3.7432647 3.460547,3.7342127 l -0.00184,-0.00537 0.00225,-0.00469 c 0.00285,-0.00214 0.00628,-0.00433 0.00973,-0.00533 l 0.00217,-0.00363 c -0.00279,-0.00224 -0.00625,-0.00413 -0.00963,-0.00533 l 0,-0.00424 c 0.030917,-0.027313 0.052416,-0.00327 0.079238,-0.011934 0.010299,-0.0033 0.029627,-0.026397 0.039746,-0.034394 0.019875,-0.015681 0.016989,-0.00384 0.027129,-0.034551 0.012403,0.00726 0.022622,0.018031 0.036797,0.022598 0.036624,0.011819 0.075299,0.012849 0.1097852,0.030937 0.00378,-0.00326 0.00392,-0.01145 0.00402,-0.016016 8.16e-4,-0.039656 -0.023006,-0.023605 -0.03791,-0.050586 -0.010471,-0.018932 -0.00229,-0.021092 -0.024141,-0.041152 -0.00504,-0.00465 -0.014898,-0.00466 -0.018262,-0.010039 3e-5,-0.00618 0.00562,-0.00997 0.00854,-0.014922 0.00743,-0.00252 0.018621,-3.32e-4 0.026797,-0.00111 0.00587,-5.44e-4 0.010814,-0.00276 0.015625,-0.00594 0.00468,-0.00307 0.00968,-0.00659 0.015605,-0.00533 0.00584,0.00123 0.026666,0.016791 0.030137,0.021973 0.00247,0.0037 0.00644,0.016528 0.00785,0.021367 0.00278,0.00225 0.00625,0.00413 0.00963,0.00533 0.00269,0.00516 0.00303,0.011062 0.00559,0.016191 0.012854,0.025601 0.045325,0.010218 0.068418,0.011777 0.00653,-4.45e-4 0.014609,4.58e-4 0.02084,-0.00111 0.00536,-0.00133 0.00925,-0.00626 0.014805,-0.00721 0.00999,-0.00168 0.02439,0.013181 0.029453,0.020879 0.00637,0.00968 0.00483,0.01983 0.012969,0.030938 0.00641,5e-5 0.011661,-0.00305 0.017832,-0.00361 0.014672,-0.00138 0.046085,0.00686 0.056172,0.018535 0.00248,0.00807 -0.00449,0.019057 -0.00293,0.029668 0.010226,0.00401 0.025708,-0.00574 0.036836,-0.00533 0.00678,2.46e-4 0.013258,0.0082 0.018945,0.00658 0.00147,-0.00256 -0.0013,-0.056087 -0.00266,-0.059531 -0.00231,-0.00588 -0.00697,-0.013164 -0.01,-0.019004 l 0.00182,-0.00598 c 0.00816,-0.00364 0.014787,0.00203 0.021895,0.00471 0.0051,0.00192 0.031601,0.00981 0.035762,0.00959 0.00396,-1.79e-4 0.00862,-0.00247 0.012676,-0.00189 0.0051,7.56e-4 0.016139,0.013111 0.019609,0.017305 0.00693,7.23e-4 0.01101,-0.00169 0.017188,-0.00361 0.035257,-0.010989 0.019315,-0.013762 0.038672,-0.027969 0.00866,-0.00637 0.021224,-0.00853 0.03082,-0.013047 0.011009,-0.00516 0.018406,-0.01654 0.028672,-0.023223 0.00444,1.26e-4 0.00909,6.72e-4 0.013359,0.00188 0.017081,-0.00543 0.031557,-0.018298 0.048008,-0.02498 0.022788,-0.00929 0.073495,-0.016665 0.086992,-0.023242 0.010923,-0.00538 0.021034,-0.01974 0.034551,-0.015586 0.00539,0.00168 0.0078,0.0074 0.010781,0.011328 0.00959,0.012489 0.022179,0.017622 0.036055,0.023887 0.00238,2.85e-4 0.02926,-0.01533 0.034648,-0.017891 0.00347,-0.00407 0.00474,-0.00999 0.00855,-0.013672 0.013763,-0.013351 0.036799,-0.016605 0.048691,-0.033301 0.011394,-0.015993 0.01063,-0.051423 0.020039,-0.061914 0.0093,-0.010345 0.026435,-0.00425 0.033184,-0.018359 0.00832,-0.017394 -0.00471,-0.03295 -0.00373,-0.049473 -0.00766,-0.00637 -0.017593,-0.01645 -0.023379,-0.024512 -0.023639,-0.033066 -0.047671,-0.032425 -0.078535,-0.053242 -0.037367,-0.025216 -0.027693,-0.031527 -0.078437,-0.026875 l -0.00455,-0.00297 c -0.00265,-0.00545 8.01e-4,-0.022006 8.01e-4,-0.029219 0,-0.00619 0.00318,-0.030979 0.00746,-0.03502 0.014188,-0.013424 0.052242,-0.00328 0.067246,-0.028574 0.00685,-0.01156 0.00222,-0.020793 0.0052,-0.032227 4.25e-4,-0.00153 0.0016,-0.00326 0.00229,-0.00471 0.00444,-0.0093 0.00567,-0.01907 0.00959,-0.027949 4.64e-4,-0.00102 0.00229,-0.00343 0.00307,-0.00426 0.017745,-0.019304 0.1121002,0.00245 0.1353125,-0.012402 0.024347,-0.015575 0.0131,-0.045447 0.022676,-0.066602 0.00412,-0.00912 0.010289,-0.00804 0.015293,-0.014297 0.0067,-0.00831 0.010821,-0.026706 0.02043,-0.032207 0.00667,-0.00382 0.062513,-0.00977 0.072559,-0.023086 0.020737,-0.027486 0.02296,-0.072868 0.04752,-0.094102 0.023551,-0.00415 0.061295,-1.6e-6 0.078555,-0.017285 l 6.84e-4,-0.00408 c -0.0034,-0.00868 -0.00618,-0.018267 -0.011191,-0.026231 -0.027997,-0.058575 -0.026312,-0.065112 -0.010684,-0.1284765 0.00502,-0.020379 0.043493,-0.081798 0.045723,-0.097539 0.00219,-0.015342 -0.00364,-0.035796 -0.00596,-0.051211 -0.00724,-0.048064 -0.00846,-0.040899 -0.046035,-0.065664 -0.00764,-0.00535 -0.013649,-0.010267 -0.017969,-0.018867 -0.00772,-0.015362 -0.025343,-0.084659 -0.041641,-0.090313 l -0.00482,0.00234 c -0.00999,0.015223 -0.025664,0.046553 -0.044258,0.053574 -0.010213,0.00387 -0.030143,-0.00815 -0.041231,-0.00957 -0.00703,-9.29e-4 -0.014031,-9e-5 -0.021211,-0.00174 -0.015747,-0.00361 -0.030689,-0.015355 -0.046875,-0.016875 -0.0033,-3.19e-4 -0.00492,-6.21e-4 -0.00793,-0.00199 -0.00206,-9.36e-4 -0.00519,-0.002 -0.00693,-0.0033 -0.00607,-0.00448 -0.00557,-0.013381 -0.011465,-0.017734 -0.024029,-0.00761 -0.1010799,0.02307 -0.132461,-0.012598 -0.013305,-0.015103 -0.042836,-0.033357 -0.060176,-0.045195 -9.95e-4,-0.00345 -0.00239,-0.00692 -0.00412,-0.010059 1.72e-4,-0.0065 0.00247,-0.0142 0.00365,-0.020723 0.00246,-0.01357 4.27e-4,-0.059256 -0.00365,-0.072734 -0.00311,-0.010213 -0.01271,-0.022515 -0.018145,-0.032051 l 0.00184,-0.00596 c 0.010996,-0.00157 0.032174,0.010604 0.040469,-0.00359 0.00404,-0.00693 -2e-5,-0.012004 0.00824,-0.021367 0.011254,-5.44e-4 0.035506,0.00636 0.043887,-0.00236 l 0.00184,-0.00535 c -0.0093,-0.0201 -0.046028,-0.031439 -0.054277,-0.043516 0.00504,-0.03882 0.026282,-0.047105 -0.00187,-0.083867 l 0.00254,-0.00596 c 0.00207,-4.22e-4 0.00419,-0.00136 0.00635,-0.00264 l -1.4499609,0 0.011973,0.018496 2.73e-4,4.1e-4 0.012324,0.019004 4.1e-4,6.64e-4 -0.00189,0.00117 0.00617,0.00805 0.018965,0.00238 0.1071093,0.00119 0.042012,-0.00236 0.071406,0.00119 0.015254,-0.00238 2.54e-4,0.00305 -2.54e-4,0.00588 -0.00594,0.027969 -0.00262,0.00775 0.00223,0.00771 0.00594,0.00475 0.00744,0.0018 0.014883,-0.00775 -0.016738,0.011895 -0.016719,0.0018 -0.036445,-0.00236 -0.00438,0.00301 0.020742,0.01127 0.00893,0.00178 0.012637,0.00773 0.00375,0.00654 0.00111,0.00775 0.02082,0.02793 0.00408,0.014297 0.00389,0.039082 0.00727,0.029941 -0.00596,0.016055 -0.00408,0.00596 -0.0067,0.015449 -0.00631,0.026172 -0.0067,0.015469 -0.00447,0.01666 -0.00334,0.00713 -0.00855,0.011934 -0.00557,0.00473 -0.00707,0.010723 -0.0067,0.014863 -0.012754,0.019492 -0.0065,0.00736 -0.0023,0.00408 -0.00373,0.00238 -0.01293,0.010449 -0.00348,0.0043 -0.00662,0.00484 -0.012305,0.012949 -0.012969,0.012031 -0.010059,0.00723 -0.00852,0.00348 -0.00523,0.00477 -0.017832,0.010684 -0.011504,0.00521 -0.00264,0.00115 -0.013731,0.00375 -0.026035,0.011894 -0.015684,0.00908 -0.00482,0.00229 -0.0048,0.00176 -0.011152,0.00891 -0.0067,0.00236 -0.017344,0.012109 -0.01166,0.00871 -0.018203,0.00953 -0.00783,0.00178 -0.00631,0.00479 -0.00783,0.011309 -0.00594,0.016055 -0.015625,0.014258 -0.00594,0.00236 -0.017871,0.01252 -0.00967,0.010703 -0.010391,0.02082 -0.010039,0.03332 -0.012656,0.030312 -0.011894,0.019648 -0.014121,0.014883 -0.013047,0.00652 -0.016699,0.0018 -0.017871,-0.0018 -0.027519,0.010703 -0.00854,0 -0.021211,0.00713 -0.00557,0.0042 -0.02752,0.010098 -0.00818,0.00117 -0.0093,-0.00117 -0.013105,-0.00596 -0.023691,-0.017852 -0.00818,-0.010117 -0.011504,-0.00893 -0.015254,-0.00418 -0.020078,-0.00295 -0.014883,-0.00652 -0.00982,-5.86e-4 -0.01584,-0.00656 -0.00781,-0.011309 -0.00633,-0.013086 -0.00445,-0.00477 -0.00297,-0.00713 -0.0052,-0.00416 -0.012285,-0.00836 -0.024922,-0.00832 -0.021582,-0.010703 -0.00744,-0.00297 -0.016719,-0.00119 -0.015977,0.00238 -0.00596,0.00297 -0.03793,0.00832 -0.025645,-0.00119 -0.015625,-0.00652 -0.011894,-0.00832 -0.017481,-0.022031 -0.016348,-0.013691 -0.024199,-0.00889 -0.0067,-0.00357 -0.00484,-0.00477 -0.014512,-0.00713 -0.00828,-0.00223 -0.013086,0.00525 -0.012715,-0.00295 -8.4e-4,-2.15e-4 -0.0023,4.49e-4 -0.02125,0.00381 -0.00607,0.00109 -0.00762,0.00137 -2.15e-4,-0.00842 -2e-5,-8.59e-4 0.00828,-0.00703 -0.00926,-0.010586 -0.00699,-0.00129 -0.00881,0.00289 -0.010508,0.00346 -0.0085,-8.4e-4 -0.011563,-0.00766 -0.00428,-0.00705 -0.00211,-0.00344 1.95e-4,-0.00154 2.73e-4,-0.00158 0.00121,-0.00816 -0.00254,-0.00387 -0.00387,6.64e-4 -0.01041,0.00184 -6.25e-4,1e-4 -0.00451,7.81e-4 -0.015488,-0.00883 -0.00428,-0.00246 0.00631,-0.00695 0.015684,-0.00137 0.00801,-0.01 0.010234,-0.00396 0.00617,-0.0024 0.00236,-9.57e-4 0.00705,0.00465 0.00869,0.00574 0.00182,-0.00271 0.0035,-0.00525 0.00145,-0.010586 0.00625,-0.00346 0.00338,-0.00189 0.013789,-0.028203 0.00992,-0.00322 0.021836,-0.027402 0.010449,-0.00174 0.015488,-0.021367 0.00555,-0.017774 0.00809,-0.00699 0.00764,-0.00662 0.00293,-0.00254 -0.010684,-0.00611 -0.035801,-0.00432 -0.00535,-6.25e-4 -0.00463,-0.026836 0.00201,-0.010371 6.45e-4,-0.00338 -0.012558,0.00178 -6.64e-4,10e-5 -0.00225,2.93e-4 -4.69e-4,6e-5 -8.2e-4,1.37e-4 -1.56e-4,0 -4e-5,-1.37e-4 -0.00232,-0.00652 -2.93e-4,-8.59e-4 -6e-5,-1.95e-4 4e-5,0 0.031894,-0.00473 0.00189,-6.05e-4 0.00508,-0.00148 0.00531,-0.00648 -0.00998,-0.019863 0.00105,-0.018145 0.011836,-0.0073 0.00295,-0.00186 0.00582,-0.00748 0.00504,-0.00957 0.00125,-0.00234 7.42e-4,-0.00977 -0.00643,-0.0175 -0.010332,-0.012012 -0.01623,-0.029024 -0.00299,-0.019062 -0.00521,-0.00818 -0.00641,-0.022109 -0.00105,-0.00359 -7.42e-4,-0.0025 -0.00473,-0.00734 -0.00119,-0.00186 -3.12e-4,-4.69e-4 -0.00227,-0.0018 -0.009,-0.00725 0.00363,-0.012031 8e-5,-2.93e-4 -1.37e-4,-2.93e-4 -0.01998,-0.042305 0.00178,-0.010371 -0.00373,-0.00779 0.00232,-0.00885 -0.00637,-0.033145 0.0032,-0.011289 7.03e-4,-8.79e-4 -0.5314648,0 z m 1.3677148,0.051387 -0.00893,0.011914 -0.00594,0.00416 -0.00744,0.0018 -0.018965,0.010117 -0.02123,0.00652 -0.024902,0.00178 -0.015605,0.00299 -0.023086,0.016074 -0.014473,0.015469 -0.00596,0.00416 -0.029375,0.031523 -0.011543,0.00771 -0.023809,0.00359 -0.019316,0.00596 -0.00408,0.00654 -0.00633,0.014863 -0.00816,0.0125 -0.00559,0.00416 -0.00406,0.00596 -0.0032,0.00879 1.95e-4,0.015605 -0.00225,0.00889 -0.00332,0.00717 -0.016348,0.013672 -0.012285,0.00652 -0.017129,0.0125 -0.00668,0.00297 -0.015625,0.0024 -0.013008,0.00596 -0.010762,0.00949 -0.039824,0.028574 -0.025664,0.013086 -0.049063,0.028555 -0.011172,0.00832 -0.012246,0.00656 -0.045762,0.033301 -0.055781,0.030957 -0.00742,0.00178 -0.017109,0.0125 -0.00482,0.00535 -0.00709,0.013672 -0.00967,0.010723 -0.041289,0.024375 -0.00293,0.00537 0.00293,0.00654 0.00449,0.00535 0.00186,0.00773 7.23e-4,0.00775 -0.00148,0.00949 -7.42e-4,0.017852 7.42e-4,0.00832 0.0052,0.013105 0.0082,0.011289 0.00559,0.00475 0.00631,0.00416 0.00672,0.0018 0.015586,-0.00236 0.013027,-0.00654 0.00742,-0.0018 0.025664,-0.00119 0.031621,0.011895 0.017481,0.00418 0.040156,0.014277 0.036074,0.017266 0.033457,0.018418 0.036445,0.032129 0.00932,0.010723 0.00668,0.00354 0.037187,0.03334 0.0093,0.010723 0.015234,0.00594 0.017109,0 0.035332,-0.011894 0.082949,-0.017852 0.01709,-0.00713 0.00596,-0.00418 0.00631,-0.014863 0.0048,-0.017266 0.023086,-0.051152 -7.42e-4,-0.00773 -0.018223,-0.038691 -7.42e-4,-0.00771 0.00148,-0.00953 0.025293,-0.02498 0.010781,-0.00951 0.00631,-0.00297 0.028262,0.00234 0.01752,-0.00293 0.00443,-0.00238 0.012285,-0.019043 0.019316,-0.019043 0.073633,-0.041621 0.036094,-0.010742 0.044609,0.00119 0.013008,-0.00594 0.030527,-0.017852 0.011504,-0.00834 0.00408,-0.00654 0.00967,-0.022012 0.02123,-0.028047 0.013008,-0.020137 0.012637,-0.025859 0.0093,-0.015195 0.010781,-0.021387 0.00986,-0.063711 -0.00207,-0.027344 -0.00779,-0.019648 -0.00854,-0.01127 -0.00477,-0.00678 -0.00828,-0.018223 -0.00373,-0.00447 -7.23e-4,-8.79e-4 -6.64e-4,-0.00121 -0.00564,-0.00891 -0.00559,-0.00475 -0.026426,-0.00537 -0.0275,-0.00119 -0.01627,-0.00293 L 3.2202574,2.097443 3.2105674,2.08674 3.2042974,2.08315 3.1574224,2.07663 3.1299224,2.07067 3.1220724,2.06712 3.1120524,2.06593 3.0956854,2.0606 3.0804514,2.05404 3.0637134,2.031423 l -2e-5,-2e-5 z m -0.7233594,0.2922266 -0.00443,0.00107 -0.00307,0.019219 -0.00826,0.00994 1.17e-4,0.0059 0.00563,0.00332 0.018145,-0.009 0.024336,-0.012031 0.00902,-0.00168 0.00189,-0.00346 -0.00258,-0.00387 -0.026465,0.00209 -0.00797,-0.00639 -0.00635,-0.00512 -2e-5,0 z m -1.57355466,1.456914 -0.009004,0.00863 -0.00875,0.015527 -0.0148242,0.012363 0.005117,0.00371 0.0232812,-0.00969 0.0269727,-0.00303 0.0220313,0.00852 0.001328,-0.00398 -0.022793,-0.015313 -0.0164063,-0.015508 -0.006953,-0.00119 0,-4e-5 z m -0.0964258,0.049941 -0.0237109,0.011562 -0.0260156,0.00637 0.001738,0.00887 1.367e-4,8.99e-4 -0.008652,0.028242 -0.0363281,-0.00729 -0.0250195,0.00146 -0.003066,0.00113 -0.002461,8.98e-4 -9.18e-4,3.71e-4 -0.0222266,0.00809 -0.0487695,0.012305 -0.0221875,0.010781 -0.0102539,0.013145 -0.0136133,0.027051 -0.00291,0.012852 0.001914,0.021465 0.005117,0.016523 0.0120312,0.014805 0.0953906,0 0.003262,-0.00279 0.0135547,-0.00541 0.008867,1.37e-4 0.0312695,-0.029238 0.0160156,0.00621 0.003652,0.00475 -2.734e-4,0.017695 0.003984,0.00283 0.005703,0.00412 0.005527,0.0017 0.31371093,0 L 0.92,4.0070117 0.889375,4.0037717 0.880332,3.9991817 0.8683398,3.9677757 0.8577539,3.9491037 l -0.007051,-0.00369 -0.005195,-0.00764 -0.007617,-0.019316 -0.0135156,-0.017129 -0.0550195,0.00354 -0.009941,-0.00248 -0.0180469,0.00412 -0.0249414,-0.019648 -0.0154883,-0.00475 -0.0521289,0.013809 -0.00459,-0.00377 -0.0118945,-0.00193 -0.002129,-0.015605 0.00293,-0.012363 0.005312,-0.00793 0.002109,-0.00314 0.0146875,-0.00207 0.0313867,0.013145 6.641e-4,2.93e-4 7.8e-5,-1.76e-4 0.003047,-0.00826 -0.003711,-0.00625 -0.0125391,-0.00424 -0.00291,-9.96e-4 9.18e-4,-0.00164 1.367e-4,-2.74e-4 -0.001914,-0.010195 -3.9e-5,-4e-5 z m 0.16472656,0.018477 -0.001191,0.00887 0.0124609,0.017969 0.008457,0.012148 0.0128125,0.026484 0.009902,5.86e-4 0.002715,-0.0065 -0.003848,-0.010625 -0.0102344,-0.0099 -0.005957,-0.014512 -0.002324,-0.021465 -0.003574,-0.00279 -0.0192188,-2.54e-4 z m 0.3883985,0.00699 -0.00859,0.00141 -0.00129,0.00643 0.010234,0.01041 0.027363,0.022129 0.034316,0.017617 0.00236,0.0032 0.018613,-0.00207 0.021875,-0.00857 0.00291,-0.00209 -2.34e-4,-0.00637 -0.1075586,-0.04209 z m -0.41328131,0.012109 -0.0300195,0.00113 -0.008203,0.00424 -4.883e-4,0.00105 -0.001348,0.00293 0.002129,0.00279 0.003652,0.00486 0.0210156,-0.00473 0.0130664,-0.00637 2.539e-4,-0.0059 -5.9e-5,-2e-5 z m -0.0619726,0.013887 -0.00832,0.00186 -0.001445,0.00416 -2.734e-4,7.62e-4 0.003516,0.00508 1.367e-4,1.76e-4 0.006895,7.03e-4 0.0181836,-0.0018 -0.0186719,-0.010937 -2e-5,0 z m 0.57281251,0.040918 0,2e-5 -0.00633,0.00268 -0.00562,0.00848 0.00799,0.00324 0.020195,2.74e-4 3.71e-4,-0.00344 -0.016601,-0.01125 z"
     id="rect6"
     inkscape:connector-curvature="0" />
  <path
     style="fill:#21468b"
     d="m 0.43152344,4 0.001602,0.0052 0.0161328,0.019844 0.0262109,0.015586 0.009121,-7.03e-4 0.003594,-2.93e-4 0.0372266,-0.00398 0.007715,-0.00377 0.00166,-0.00695 0.009023,-0.00771 0.0135547,-0.00541 0.008867,1.37e-4 L 0.57898438,4 0.43152344,4 Z m 0.18554687,0 -1.758e-4,0.011348 0.003984,0.00283 0.005703,0.00412 0.0308008,0.00945 0.003125,9.57e-4 0.0117188,-0.00189 0.0167188,0.01207 0.009277,0.023633 0.0103516,0.012305 1.172e-4,0.014746 0.005234,0.02084 0.004062,0.00232 0.0131445,0.00881 0.0162891,0.00221 0.005977,8.2e-4 0.005098,-0.00756 0.008184,0.00852 0.009297,-0.013574 9.961e-4,0.00236 0.009062,0.016367 0.0141992,0.012441 0.0204492,0.018086 0.0426563,-0.013906 0.0272266,-0.00887 0.0240039,-0.01457 0.008789,-0.00182 0.0113477,0.00371 0.006055,0.00203 0.0273828,-0.03041 0.0169141,-0.00797 0.006582,-0.00809 -1.758e-4,-0.00494 0.005566,-0.0085 8.984e-4,-0.015234 0.005937,-0.011973 -0.0126172,-0.00227 -0.0302734,-0.00541 -0.007344,-0.00908 L 0.92,4.0070117 0.889375,4.0037695 0.88195312,4 0.61707031,4 Z m 0.46164059,0 8.59e-4,0.00131 0.01123,0.011367 0.020781,0.00266 0.00807,0.00607 0.019356,0.00422 0.015215,0.012754 0.0065,0.0015 9.18e-4,1.56e-4 0.034219,0.021367 0.020312,0.0057 0.00131,-1.17e-4 0.066348,-0.00607 0.017324,-0.010879 0.024336,-0.00977 0.011582,-0.00463 0.00947,-0.013223 0.00914,-0.022422 -0.2769727,0 z m 0.2984571,0 -0.00141,0.00252 0.00348,8.2e-4 0.00314,-0.00334 -0.00521,0 z m 0.019043,0 -0.00207,0.00781 -0.021133,0.044258 -0.012305,0.01416 -0.019434,0.00795 -0.011074,0.00859 -0.015996,0.00551 -0.00861,0.00715 -0.035645,0.0066 -0.03291,0.014336 -0.01416,0.00246 -0.025606,-0.00209 -0.030019,-8.99e-4 -0.017402,-0.00482 -0.00715,0.00615 -0.017324,-0.00328 -0.00262,-0.00111 -0.039297,-0.017031 -0.029141,-0.017578 -0.012383,-0.00203 -0.030723,0.0065 -0.0124218,0.013496 -7.617e-4,0.00484 -0.002363,0.014102 0.003809,0.00916 0.0104492,0.00303 0.0076,0.00762 0.00762,0.020273 0.018809,4.1e-4 0.014629,3.52e-4 0.011875,0.00451 0.00953,-0.00227 0.020059,-0.00471 -9.57e-4,0.00666 -0.00525,0.00256 0.0067,0.014297 -0.00469,-1.76e-4 -0.026328,-0.00162 -0.050898,0.00473 -0.00986,-0.00109 -0.0187305,-0.014512 -0.0169141,-0.00578 -0.0220898,-1.17e-4 -0.0580664,0.035937 -0.010957,-0.00303 -0.0271875,0.00812 -0.008262,0.00158 -0.007129,0.00613 -9.961e-4,0.00422 -0.001992,0.00814 0.003926,0.010664 0.007578,0.00604 0.005762,8e-5 0.003379,0 0.008691,0.00508 0.0205664,0.01207 0.0129102,0.029941 0.0218164,0.00553 0.00752,0.00779 0.009805,0.010156 0.002891,0.010176 0.0120312,0.015352 0.004434,0.00564 0.0667383,0.014687 0.015859,-0.00893 0.00609,0.00619 0.016328,0.00334 0.010117,-0.00428 0.033965,0.016875 0.0051,0.00621 0.019492,0.010606 0.00732,-0.00119 0.00664,-0.00799 0.00605,-0.00719 0.030234,0.011289 0.00924,0.00346 0.00375,0.00137 0.010781,0.014863 0.00643,0.00299 0.00805,0.00389 0.00555,0.0048 0.00678,0.00596 0.00434,0.00381 0.00125,0.00309 0.00305,0.00756 -8e-5,0.00115 -9.77e-4,0.010645 0.011074,0.023652 0.00211,0.032266 -0.013613,0.0034 -0.017187,0.012363 -0.0042,-0.0082 -0.01168,0.00238 -0.00336,-0.00256 -0.00219,-0.00168 -0.00732,2.34e-4 -0.010391,0.00934 -0.00385,0.0034 -0.00459,-0.00568 -0.00225,9.96e-4 -0.00832,0.00361 -4e-5,0 -0.011055,0.00545 -0.012422,4.3e-4 -0.00371,1.37e-4 -4.49e-4,-0.00162 -0.00232,-0.00809 -0.013691,0.00145 -0.00557,-0.00473 -0.00777,0.00135 -0.00766,0.0065 -0.013223,0.011289 -0.00801,0.00322 -0.012285,0.00486 -0.00463,0.00654 -0.014277,-0.00197 -0.015156,-0.012676 -0.011309,-0.00152 -0.0284766,-0.016152 -0.0149805,-0.021445 -0.0304688,-0.028809 -0.0106445,-0.022109 0.00457,-0.00906 -0.0140039,-0.03373 -0.0259961,-0.015703 -0.009102,-0.00555 -0.0157422,-0.013613 -0.0113867,-0.0025 -0.0345508,-0.018301 -0.020332,-0.00609 -0.0286523,0.0065 -0.0193164,-0.029629 -0.006563,-0.00568 -0.005391,2.73e-4 -0.019082,7.23e-4 -0.0119922,0.00734 -0.0197461,-0.00314 -0.0161523,0.00158 -0.0145508,0.00146 -0.009238,-7.03e-4 -0.0166211,-0.014785 c 0,0 -0.0193955,-0.00368 -0.0258594,-0.00275 -0.00644,9.09e-4 -0.0147415,0.010156 -0.0184375,0.010156 -0.00365,0 -0.014768,9.18e-4 -0.018457,9.18e-4 -0.00372,0 -0.020314,2e-5 -0.0240039,-0.00182 -0.00372,-0.00184 -0.0156764,-0.00277 -0.0239844,-0.00277 -0.00831,0 -0.0110841,9.05e-4 -0.0157031,0.00184 -0.00458,9.16e-4 -0.007395,0.011052 -0.0110742,0.01291 -0.00365,0.00186 -0.007363,0.016623 -0.007363,0.020313 0,0.00369 -0.0101563,0.015684 -0.0101563,0.015684 0,0 -0.0120051,0.00922 -0.0175391,0.010156 -0.00557,9.22e-4 -0.0129271,-0.00275 -0.0175391,-0.00738 -0.00458,-0.00463 -0.0147741,-0.022143 -0.0157031,-0.02584 -9.291e-4,-0.0037 -0.0110742,-0.019387 -0.0110742,-0.024922 0,-0.00555 -0.0101507,-0.01569 -0.0138477,-0.018457 -0.00372,-0.00277 -0.0193724,-0.015692 -0.0239844,-0.016621 -0.00465,-9.16e-4 -0.007408,-0.011981 -0.0120117,-0.01291 -0.00458,-9.22e-4 -0.008301,-0.01384 -0.008301,-0.022148 0,-0.0083 -0.002988,-0.017402 -0.002988,-0.017402 l -0.008418,-0.00902 -0.006504,-0.00234 -0.0189063,-0.00687 -0.0230859,5.47e-4 -0.0124805,-0.00486 -0.0131836,0.00258 -0.0239063,0.01332 -0.024668,0.019687 -0.0121484,0.0025 -0.0314258,0.020293 -0.013418,0.00869 -0.0293555,0.023867 -0.0344141,0.019766 -0.0113867,0.01957 -9.375e-4,0.022109 0.01410156,0.00822 0.0272266,0.026172 0.0358203,0.022422 0.0285156,0.034512 0.0209375,0.040742 0.029043,0.024707 0.005039,0.00174 0.007871,0.00262 0.0214062,0.01916 0.001934,-4.3e-4 0.0111328,-0.00244 9.961e-4,-1.95e-4 0.002656,-0.00129 0.0116406,-0.00545 0.006367,-0.00297 0.004844,0.00959 0.0103125,9.77e-4 0.0185547,-0.0018 0.006914,0.00215 0.0119336,-0.0083 0.009238,-0.012148 0.010625,-0.0016 0.002988,-4.88e-4 6.641e-4,-0.00734 0.008574,-0.00627 0.009395,0.00256 0.003203,-0.00551 0.018418,-0.00375 0.005508,-0.00754 0.007363,0.010937 -0.006309,0.013496 -0.007402,-0.00168 -0.003457,0.00316 -0.004512,0.00404 0.0248437,0.020352 7.8e-5,6e-5 0.0160156,0.013125 0.005762,0.00471 0.003984,0.00766 0.00668,0.012988 4.492e-4,0.00471 4.102e-4,0.00402 0.008223,0.00947 0.0246875,0.00584 0.006719,-0.00371 0.0183789,0.00613 0.0103906,0.0035 0.001738,0.0068 0.0145703,0.00969 0.026875,0.025996 0.004238,0.0041 0.007578,-0.00119 0.0507422,-0.00805 0.0297266,-0.013438 0.00459,0.00422 0.007246,5.47e-4 0.0178125,0.00143 0.0168945,-0.04332 0.009258,-0.012598 0.001133,-0.00506 0.002188,-0.010293 0.009961,-0.020488 -0.004395,-0.01207 0.005977,-0.009 0.0253516,-0.015723 0.0214258,-0.0018 0.0119922,-0.00732 0.004922,3.12e-4 0.0404492,0.033711 0.0145898,0.010234 0.016875,0.00623 0.00584,-0.00123 0.0168164,0.018047 0.0101953,0.024101 0.0265039,0.013438 0.0546875,0.013496 0.013555,0.00832 0.017793,0.00666 0.015215,9.77e-4 0.00635,-0.0027 0.013887,-0.00586 0.015098,-0.00152 0.014219,-0.012812 0.014082,-0.00295 0.0075,0.0042 0.00611,0.00709 0.025801,-0.00236 0.012168,0.00828 0.011465,0.023731 -0.00324,0.019219 0.00443,0.013945 c 0.017147,-0.00384 0.1098715,-0.00846 0.1201172,0.00322 0.00218,0.00818 0.00342,0.021573 0.011094,0.026231 0.018461,0.011195 0.090086,0.014995 0.1085938,0.00109 0.00911,-0.00683 0.00567,-0.020438 0.013047,-0.028594 -4.05e-4,-0.00173 -0.00118,-0.00627 -0.00186,-0.00768 -0.00264,-0.00541 -0.00944,-0.010574 -0.012656,-0.016035 -0.00469,-0.00793 -0.00754,-0.017596 -0.012266,-0.025606 -0.0077,-0.012987 -0.025294,-0.024832 -0.028281,-0.039883 -0.00364,-0.018421 0.013778,-0.029007 0.01707,-0.043984 -0.00127,-0.010027 -0.00738,-0.0189 -0.017754,-0.020898 l -0.00307,-0.00645 c 0.00315,-0.00504 0.00822,-0.00691 0.013281,-0.00932 0.029371,-0.013955 0.060555,-0.023153 0.089023,-0.039551 0.00778,-0.00451 0.013513,-0.014212 0.021895,-0.016641 0.00501,-0.00147 0.011204,-0.00144 0.016406,-0.00174 0.00913,-5.44e-4 0.060092,-0.00802 0.062441,-0.00725 l 0.0052,0.00486 c 0.00336,0.00668 -0.00529,0.042879 -0.00814,0.051035 -0.00175,0.00501 -0.00523,0.00903 -0.00709,0.013672 -0.00733,0.018249 -0.00336,0.038746 0.00521,0.055449 0.013816,0.00768 0.04698,-0.017233 0.062422,-0.016191 0.00322,2.19e-4 0.00819,0.00218 0.01125,0.00334 0.00847,0.00328 0.019007,0.00947 0.027441,0.011582 0.017592,0.00441 0.013105,-0.00313 0.036523,0.00895 0.0083,0.00105 0.024702,-0.00884 0.035625,-0.010176 l 0.00229,-0.00648 c -0.00459,-0.00589 -0.00296,-0.014635 -0.00598,-0.021484 l 0.00223,-0.00471 c 0.00437,-0.00922 0.018041,-0.010706 0.02418,-0.017773 0.00987,-0.011268 0.010664,-0.029447 0.023086,-0.03877 0.00346,-0.00258 0.00921,-0.00368 0.013047,-0.00596 0.00696,-0.00416 0.013053,-0.014159 0.018965,-0.020742 0.00762,-0.00577 0.017444,-0.00778 0.024551,-0.013047 0.00754,-0.00561 0.010188,-0.016752 0.017481,-0.023242 0.022874,-0.020385 0.066077,-0.00422 0.086953,0.014297 0.00866,0.0077 0.015736,0.018011 0.026406,0.023711 0.00273,0.009 -0.00329,0.017404 -0.00293,0.02623 2.32e-4,0.00563 0.00306,0.00954 0.00186,0.016035 -0.00303,0.0039 -0.00742,0.00611 -0.01041,0.00957 -0.00768,0.00886 -0.00885,0.046348 -0.00561,0.057656 0.00165,0.00564 0.00663,0.013364 0.00924,0.019004 -0.020751,0.00129 -0.03342,-0.013801 -0.050527,-0.021367 -0.00766,-0.00338 -0.015662,-8.16e-4 -0.023027,-0.00361 l -0.00488,0.00533 c -0.00172,0.00909 -0.00191,0.018276 -0.00215,0.0275 0.014009,0.028899 0.075677,0.010193 0.098457,0.00643 0.00983,-0.00165 0.039838,-0.00449 0.049102,-0.00344 0.025787,0.00289 0.036082,0.033116 0.053906,0.037383 0.00175,-3.78e-4 0.00677,-0.0011 0.00822,-0.00174 0.00625,-0.00267 0.00986,-0.010635 0.014844,-0.014922 0.020021,-0.01722 0.073777,-0.06305 0.083359,-0.085586 0.017127,-0.040154 -0.01088,-0.054666 0.034961,-0.0875 l 0.00775,0.00109 c 0.00888,0.00795 0.00255,0.019904 0.017187,0.030469 0.00896,0.00242 0.017217,-0.00257 0.025625,0.00174 0.011182,0.00577 0.034946,0.064368 0.041602,0.078535 -0.00137,0.029775 -0.03602,0.048027 -0.037168,0.077285 -0.00138,0.034925 0.062235,0.07964 0.075488,0.1173438 0.00515,0.014632 9e-6,0.045842 0.014512,0.054668 0.042835,0.026026 0.055704,-0.018137 0.089746,0.00439 0.01073,0.00711 0.026456,0.00646 0.035547,0.017598 0.00485,0.010744 -0.013819,0.069503 -0.015996,0.086231 l 0.00305,0.00656 c 0.00858,0.00669 0.02011,0.00619 0.030137,0.00363 0.00973,-0.0025 0.018666,-0.00749 0.028945,-0.00785 0.024573,-9.62e-4 0.044808,0.015199 0.077363,0.010195 0.019145,-0.00295 0.02198,-0.024308 0.044297,-0.021992 0.013305,0.00136 0.028226,0.00868 0.042187,0.012754 0.00725,0.00194 0.015679,0.00254 0.022793,-9.57e-4 0.00718,-0.00356 0.010948,-0.01423 0.018652,-0.017773 0.00709,-0.00326 0.015947,-0.00146 0.023359,-0.00361 0.00802,-0.00234 0.026058,-0.00893 0.033477,-0.012402 0.011022,-0.00518 0.015772,-0.018553 0.02416,-0.02623 0.012562,-0.00425 0.037272,-9.06e-4 0.046914,0.00834 0.00467,0.00446 0.00793,0.012275 0.012285,0.017266 0.00486,0.00555 0.010912,0.00885 0.016699,0.013047 0.019795,0.01434 0.02335,0.034589 0.0225,0.057656 -5.51e-4,0.014918 -0.00483,0.041964 -1.95e-4,0.054824 0.00754,0.00971 0.095732,0.034722 0.1145703,0.044609 0.022715,0.011965 0.00739,0.034539 0.03791,0.041016 0.010458,0.00221 0.020574,-0.00456 0.030547,-0.00533 0.00846,-6.64e-4 0.018343,0.00291 0.026777,0.00125 0.020419,-0.00399 0.026213,-0.019533 0.05125,-0.00771 0.048814,0.023066 0.024037,0.028422 0.036426,0.050586 0.00329,0.00588 0.00998,0.01046 0.014531,0.01541 0.017214,-0.00188 0.031644,-0.011444 0.048008,-0.01666 0.011175,7.1e-4 0.016344,0.010605 0.023086,0.017891 0.0043,0.00465 0.010766,0.00975 0.012949,0.016035 0.00118,0.00344 -1.44e-4,0.00729 -0.00137,0.010312 -0.010856,0.027234 -0.051213,0.035464 -0.051074,0.060527 0.00473,0.018415 0.025972,0.017514 0.033086,0.026074 l 0.00188,0.00723 c -0.00476,0.027274 -0.033662,0.010588 -0.047637,0.014277 l -0.00482,0.00537 c 0.00384,0.00752 0.00742,0.015649 0.00709,0.024336 l -9.96e-4,0.0067 c -9.69e-4,0.00671 -0.00503,0.012518 -0.00609,0.019512 -8.49e-4,0.00549 5.2e-4,0.012029 -6.64e-4,0.017285 -8.49e-4,0.00379 -0.00486,0.010265 -0.00826,0.012422 l -0.00777,0.00125 c -0.00591,-0.00396 -0.012599,-0.00987 -0.020117,-0.00959 -0.00782,0.01146 0.00156,0.022891 -0.015996,0.043535 -0.00358,0.01306 0.00612,0.017353 0.015332,0.023086 l 0.00293,0.00594 c -1.19e-4,0.00966 -0.00563,0.016927 -0.00705,0.026211 -8.69e-4,0.00573 3.71e-4,0.011059 3.71e-4,0.01666 0,0.00243 -0.00978,0.032897 -0.010391,0.033945 -0.012621,0.020877 -0.066652,0.035342 -0.054004,0.068945 0.01359,0.012841 0.02664,-0.00248 0.038379,-0.0077 l 0.00736,0.00299 c 0.00966,0.015813 -0.00238,0.028361 -0.011094,0.040996 -0.019377,0.028083 -0.018108,0.073271 -0.056172,0.063144 l -0.00371,0.00271 c -0.00261,0.0019 -0.00156,6.73e-4 -0.00299,0.00379 -0.00449,0.00973 -0.00383,0.021044 -0.00891,0.030879 -0.00487,0.00938 -0.014069,0.013831 -0.016797,0.02498 -0.01578,-0.00168 -0.03212,0.00302 -0.044941,0.011309 -0.00137,0.00981 -0.00127,0.025849 -0.012676,0.029844 -0.00749,0.028654 -0.00264,0.043007 0.00893,0.068926 0.013922,0.031195 0.048199,0.035624 0.073242,0.053594 -9.95e-4,0.00526 -0.00288,0.010792 -0.00559,0.015371 -7.76e-4,0.013232 0.01183,0.022992 0.010391,0.03582 -0.00172,0.015249 -0.014647,0.02991 -0.018164,0.045723 l 0.00895,0.00596 c 0.018295,0.00153 0.017602,-0.01578 0.040137,-0.012402 l 0.00402,0.00582 0.00748,0.00297 0.00703,-0.00174 c 0.00306,-0.00392 0.00667,-0.00739 0.010059,-0.010996 0.00996,-0.010651 0.016919,-0.033576 0.033184,-0.034863 l 0.0052,0.00486 c 9.62e-4,0.00679 0.00396,0.014623 0.010039,0.018398 0.024825,-1.79e-4 0.022284,0.017706 0.0375,0.02916 0.013803,0.00127 0.031795,-0.0149 0.044277,-0.020859 l 0.00668,0.00234 c -1.33e-4,0.00444 0.00108,0.010402 0.00334,0.014297 0.012283,0.0046 0.0357,-0.011034 0.042774,-0.020742 0.00403,-3.72e-4 0.00838,2.79e-4 0.012285,0.00109 0.00326,0.0074 0.00163,0.017961 0,0.025606 l 0.00637,0.00557 c 0.022894,0.00216 0.071567,-0.020014 0.084746,-0.018613 0.013411,0.00142 0.021497,0.015637 0.034981,0.016035 0.00494,1.46e-4 0.010073,-0.00264 0.014824,-0.00299 0.00486,-3.72e-4 0.00974,-6.22e-4 0.014531,-0.0017 0.017599,-0.043306 -0.021318,-0.054585 -0.04457,-0.082774 -0.00168,-0.0046 0.00205,-0.010679 0.004,-0.014727 l 0.00453,-0.00299 0.00561,0 c 0.020684,0.013511 0.027847,0.0063 0.037383,-0.014297 0.013995,-0.030213 -0.00909,-0.04635 -0.0043,-0.066152 0.012535,-0.011195 0.032715,-0.024693 0.050566,-0.021973 0.00253,0.00195 0.00494,0.0048 0.00627,0.0077 l 0.006,0.00188 c 0.020432,-0.00433 0.012721,-0.027538 0.020019,-0.038633 0.00214,-0.00324 0.00818,-0.00793 0.011192,-0.01084 0.00375,-0.00981 -0.016293,-0.03394 -0.017461,-0.046309 -0.00185,-0.019184 0.00864,-0.029561 0.01373,-0.045859 l -0.00148,-0.00473 c -0.00829,-0.00646 -0.025205,-0.00357 -0.036035,-0.0077 -4.05e-4,-0.00344 -0.00218,-0.00805 -0.00453,-0.010684 -0.00695,-0.00288 -0.017404,-4.8e-4 -0.025234,-0.00252 -0.028501,-0.00735 -0.026255,-0.034058 -0.029746,-0.057656 0.00147,-0.00309 0.00394,-0.00627 0.00668,-0.00832 -1.86e-4,-0.00307 -0.0021,-0.00798 -0.00451,-0.010059 9.22e-4,-0.013723 0.018465,-0.015667 0.02457,-0.026855 l -7.03e-4,-0.00645 c -0.015203,-0.020313 -0.057672,0.00205 -0.078145,-0.00188 -0.015302,-0.00291 -0.021159,-0.020921 -0.039766,-0.014922 -0.016225,0.00524 -0.049796,0.032549 -0.065098,0.025137 -0.00453,-0.016331 0.011435,-0.03039 0.012285,-0.045234 -0.00601,-0.01148 -0.00965,-0.022877 -0.016406,-0.03457 -0.017678,-0.00715 -0.016527,0.00258 -0.025625,-0.018984 0.00191,-0.010326 0.0049,-0.02352 0.00334,-0.033945 -0.00139,-0.00916 -0.013518,-0.014303 -0.00963,-0.024316 0.00471,-0.012117 0.033333,-0.00724 0.050547,-0.036289 l 0.00592,-0.00191 c 0.014413,0.00555 0.01132,0.055101 0.041719,0.060801 0.00703,0.00132 0.012209,-0.00142 0.018945,-0.0025 0.00336,-0.00232 0.00431,-0.00539 0.00668,-0.00832 0.00308,-0.00386 0.00837,-0.00667 0.011211,-0.010684 0.00863,-0.012204 0.00808,-0.030865 0.015215,-0.044004 0.00658,-0.012104 0.020752,-0.024571 0.03123,-0.034551 0.014685,-0.016079 0.038955,-0.019175 0.054297,-0.033926 0.0097,-0.00931 0.014465,-0.026951 0.023457,-0.035664 0.00634,-0.00612 0.022918,-0.010442 0.032559,-0.014238 0.00912,-0.00303 0.012246,-0.014796 0.019844,-0.020801 0.014811,-0.011706 0.03281,-0.015784 0.049512,-0.023867 0.018222,-0.00883 0.032031,-0.020134 0.047227,-0.032676 1.99e-4,-0.00332 -0.00118,-0.00876 -0.00346,-0.011309 -0.012097,-0.00717 -0.023578,-0.00329 -0.031914,-0.019648 l 0.00215,-0.00471 c 0.01359,-0.0073 0.025949,-0.018845 0.039102,-0.026855 4.31e-4,-0.013717 -0.016591,-0.017201 -0.026797,-0.013027 -0.013305,0.00541 -0.062195,0.049331 -0.072461,0.05168 -0.00205,4.64e-4 -0.010672,-2.56e-4 -0.013047,-4.88e-4 -0.00735,-0.005 -0.01022,-0.00666 -0.014453,-0.014922 -0.00462,-0.00904 -0.012106,-0.080828 -0.00973,-0.090449 0.00184,-0.00751 0.00897,-0.011013 0.014941,-0.014922 -0.00133,-0.010704 -0.00977,-0.023359 -0.00934,-0.032676 0.00518,-0.00886 0.014588,-0.013732 0.021602,-0.020879 0.00887,-0.00907 0.024927,-0.027151 0.03084,-0.038027 0.00453,-0.00837 0.00622,-0.01779 0.010781,-0.026211 0.00743,-0.01369 0.021155,-0.02328 0.028965,-0.037402 0.011852,-0.021441 0.01844,-0.043026 0.028281,-0.065469 0.00906,-0.0025 0.017719,-0.00695 0.026797,-0.00943 0.0048,-0.0074 0.00609,-0.019446 0.011895,-0.025 0.011374,-0.010916 0.030389,-0.021467 0.036016,-0.037539 0.00534,-0.015269 -0.011658,-0.052351 -0.00855,-0.06125 0.00346,-0.00403 0.00854,-0.00608 0.011914,-0.010215 l -0.00109,-0.00582 c -0.00419,-0.00541 -0.01402,-0.00808 -0.02043,-0.00896 l -0.00295,-0.00486 c -0.00115,-0.00931 0.011078,-0.046643 0.012578,-0.059961 0.00134,-0.011978 -0.00407,-0.02159 -0.00373,-0.032227 4.58e-4,-0.013511 0.011018,-0.026534 0.012266,-0.039727 0.00191,-0.020253 -0.023028,-0.03909 -0.018535,-0.074473 0,-0.00854 4.65e-4,-0.017769 -0.00334,-0.025586 -0.012336,-0.025283 -0.038217,-0.042634 -0.050566,-0.067227 -0.00514,-0.010226 -0.011359,-0.033098 -0.018652,-0.040371 -0.00926,-0.00924 -0.022161,-0.010592 -0.03043,-0.020918 -0.01071,-0.013325 -0.011676,-0.031286 -0.02084,-0.045234 -0.00658,-0.01 -0.020377,-0.013816 -0.029043,-0.023086 -0.00584,-0.012794 0.02461,-0.083025 0.029434,-0.1017774 l -0.00344,-0.00361 c -0.011764,-0.00289 -0.023143,-0.00825 -0.034961,-0.011328 -0.023584,-0.00612 -0.07051,-0.013075 -0.077656,-0.042246 -0.00128,-0.00521 -2.4e-4,-0.012275 7.23e-4,-0.019141 l -1.9501172,0 -0.00482,0.00188 -0.00408,2.15e-4 -0.089238,0.00508 -0.022754,-0.0032 -0.0098,-0.00396 -0.095527,0 z m -0.90785152,0.065606 -0.003516,0.00176 -0.003184,0.00154 -0.001738,0.00594 0.006582,0.00412 0.009551,-0.00727 -0.007676,-0.00609 -2e-5,0 z m -0.0175586,0.027754 5.9e-5,2e-5 2e-5,-2e-5 -7.8e-5,0 z m 5.9e-5,2e-5 -0.0337305,0.038164 -0.005957,0.011016 0.002305,0.00826 0.008965,-0.00826 -0.003184,-0.00625 0.0110547,-0.00535 0.006953,-0.00957 0.0113281,4.69e-4 0.012168,-0.014219 0.003594,-0.0075 -0.007109,-0.00512 -0.006387,-0.00164 z m 0.16943359,0.081231 3.9e-5,2e-5 5.9e-5,-2e-5 -9.8e-5,0 z m 3.9e-5,2e-5 -0.0204102,0.00475 -0.009941,-0.00256 -0.0444922,0.012227 -0.003594,0.00104 -0.0162695,-0.00131 -0.0190234,0.0032 -0.008027,0.00723 -0.007031,-0.00318 -0.0223047,0.00639 -0.009844,-1.37e-4 -0.007246,-0.0085 -0.0165039,-0.00715 -0.0180469,0.00371 -0.0214844,0.00287 -0.0173437,0.00715 c 2.257e-4,-0.00107 -0.0118029,0.00999 -0.0118359,0.013672 0,0.0037 0.004578,0.019387 0.005508,0.024922 9.29e-4,0.00554 0.008302,0.00923 0.0138477,0.013848 0.00551,0.00461 0.014763,0.0083 0.019375,0.01291 0.00465,0.00461 0.0203294,0.01569 0.0249414,0.021231 0.00465,0.00553 0.008308,0.013848 0.009238,0.020312 9.29e-4,0.00647 -0.001875,0.016623 -0.001875,0.023086 0,0.00645 0.005518,0.00736 0.009238,0.00736 0.00372,0 0.004655,-0.01107 0.006445,-0.014766 0.00186,-0.0037 0.0110742,-0.011074 0.0110742,-0.011074 l 0.018457,-0.012012 c 0,0 0.008316,-0.0083 0.0138477,-0.011074 0.00557,-0.00278 0.0165964,-0.010147 0.0230664,-0.011992 0.00644,-0.00184 0.0120155,-2e-5 0.0193945,0.00275 0.00738,0.00277 0.0138249,0.00554 0.0212109,0.0083 0.00739,0.00277 0.0129396,0.00463 0.0175586,0.00371 0.00465,-9.29e-4 0.0110685,-0.012022 0.0203125,-0.013867 0.00923,-0.00184 0.0129325,6e-6 0.0203125,9.37e-4 0.00739,9.29e-4 0.007378,0.00647 0.0119922,0.012012 0.00465,0.00553 0.0120176,0.011074 0.0175586,0.011074 0.00551,0 0.0138867,-0.00506 0.0138867,-0.00506 l 0.0113086,-0.017285 0.0286133,-0.00748 0.00166,-0.00381 0.001973,-0.00469 -0.001328,-0.00242 -0.005625,-0.01041 -0.006836,-0.012578 -0.0100195,-0.00551 -0.0144531,-0.029336 -0.006641,-0.00865 -6.055e-4,-8.2e-4 -0.0136719,-0.00928 -0.0263672,-0.00975 z m 1.45798823,0.3076758 0.075371,0.00963 -0.038496,0.054434 -0.048125,-0.011113 0.01125,-0.052949 z m -1.88119135,0.1097265 0,4e-5 -0.0165625,0.00219 -0.0491797,0.026699 -0.0380664,0.011563 -0.02345703,-0.00238 -0.06546875,0.025566 -0.01292969,0.015781 C 0.00602516,4.7134878 0.05289587,4.7308599 6.644025e-4,4.7870527 L 0,4.7947266 c 0.00125999,0.00678 0.01017851,0.01113 0.01589844,0.013672 l 0.0030664,0.0066 c 9.9539e-4,0.0079 -0.0054514,0.013976 -0.0074414,0.021348 0.00292,0.00933 0.01104463,0.01518 0.01226562,0.025605 9.2909e-4,0.00785 -0.0017345,0.017041 0.0018555,0.024473 0.00577,0.011958 0.02518513,0.017585 0.03533203,0.025469 0.01293988,0.010014 0.02284283,0.024193 0.03605469,0.033457 0.02439976,0.017088 0.06173934,0.00555 0.08816406,0.00109 0.00907,-0.00152 0.0188662,-0.00342 0.0278711,-0.00535 l 0.004453,-0.00533 c 0.00133,-0.020916 -0.006863,-0.063032 -0.004043,-0.075547 l 0.004785,-0.00537 0.0193164,0.00238 c 0.0213209,-0.00745 0.0180257,-0.02356 0.0497852,-0.011973 0.00465,-0.00123 0.009247,-0.00302 0.0134375,-0.00531 0.00345,-0.00642 0.007119,-0.01315 0.0122852,-0.018379 0.0217989,-0.011447 0.0574816,0.035529 0.0985742,0.023711 0.0183619,0.00439 0.0256679,0.028611 0.0416406,0.036289 0.0184079,0.00885 0.0432572,0.00209 0.062793,0.00895 0.0129199,0.00455 0.0178831,0.015602 0.0330859,0.018555 0.00465,-0.0018 0.009632,-0.00329 0.0145508,-0.00428 0.00644,0.00216 0.0147135,0.00573 0.0181445,0.011973 -0.00259,0.02298 -0.0144813,0.062878 -3.906e-4,0.083867 0.0182549,0.012827 0.0603566,0.02011 0.0821875,0.017734 0.0129529,-0.0014 0.0256189,-0.00926 0.0386719,-0.0077 0.00285,0.00325 0.002261,0.011863 0.001191,0.015586 l 0.004043,0.00533 c 0.0336107,0.00772 0.0449784,-0.040038 0.0673633,-0.01666 0.0305718,0.00361 0.0762993,-0.055698 0.10226562,-0.071465 0.0172799,-0.010491 0.0407837,4.71e-4 0.0606055,-0.011309 0.0197749,-0.011792 0.0379944,-0.026695 0.0576172,-0.038633 0.0643214,-0.039119 0.10483099,-0.073828 0.15062499,-0.1344531 0.00922,-0.012223 0.021786,-0.026665 0.028223,-0.040859 l -0.016094,-0.015078 -0.012246,-0.025801 -0.00465,-0.00988 -0.00703,-0.00465 -0.023613,-0.00506 -0.0033,0.00355 -5.67e-4,0.011309 0.00262,0.00482 -0.00477,0.00309 -0.00816,-0.00857 -1.17e-4,0.00984 0.00572,0.010586 -0.00469,0.00457 -0.00816,-0.00953 -0.00197,-0.013633 -0.00398,-0.00332 -0.00977,8.2e-4 -0.00766,0.00471 -0.00266,0.00648 0.00275,0.010176 0.01252,0.0084 0.024355,0.00271 0.018789,0.00207 -2.54e-4,0.00637 -0.031094,-0.00213 0.00107,0.00371 0.011777,0.006 0.0033,0.010645 -0.00486,0.00113 -0.011172,-0.011836 -0.00799,0.00328 0.00357,0.00959 -0.00594,0.00156 -0.012754,-0.018945 -0.00307,0.0034 0.00557,0.013184 -0.015879,-0.021504 -0.00652,-0.00471 -0.01207,0.00291 -0.00371,0.006 0.011445,0.018672 0.013867,0.011621 -4.69e-4,0.00166 -7.62e-4,0.00258 -0.00549,6.44e-4 -0.024395,-0.02123 -0.00678,-0.010996 -0.012109,-0.01084 -0.01875,-0.00471 -0.01125,-0.014258 -0.0123828,-0.00494 -0.0314062,-0.00234 -0.0139453,-0.00779 -0.006074,-0.012852 -0.0157031,-0.033398 -0.009785,-0.012832 -0.0100977,-0.00746 -0.0119727,-0.00596 -0.015918,-7.42e-4 -0.0282031,-0.00148 -0.007266,0.012832 -0.003242,0.00568 -0.001543,0.023106 -0.0146094,0.039316 -0.0150195,0.00303 -0.00668,0.00463 -0.0206641,0.00264 -0.0128906,0.0016 -0.0197852,0.018457 -0.0253125,0.014199 -0.0139063,0.01875 -0.0121289,0.00143 -0.006973,8e-5 -0.011582,1.76e-4 -0.0250586,-0.01 -0.0116797,-0.00465 -0.004766,0.00311 -0.0513867,-0.013945 -4.687e-4,-1.17e-4 -0.005449,0.00977 -0.003711,0.00666 -0.001738,0.00314 -0.002988,-0.00152 -5.469e-4,-2.93e-4 -0.0244531,-0.012676 -0.023125,-0.00393 -0.0131445,-0.00541 -0.004238,-0.00174 -0.0451758,-0.040273 -0.0114258,-0.00393 -0.0264258,-3.12e-4 -0.0271875,-0.00719 -0.0394727,-0.018848 -0.0162305,-0.0032 -0.0250976,-0.014648 -0.007734,-0.00654 -0.006504,-0.00553 -0.0159961,-0.00504 -0.0346289,-0.010918 -0.004043,-0.00367 z m 0.80404295,0.0925 -0.00314,0.00744 0.00271,0.00725 0.0065,0.00416 0.020391,-0.00367 -0.00131,-0.00922 -0.025137,-0.00596 -2e-5,0 z"
     id="rect4"
     inkscape:connector-curvature="0" />
  <path
     d="m 4.1369727,0 -0.00975,0.00101563 -0.00455,0.00537109 -0.00455,0.01716797 0.00262,0.0073242 0.00664,-9.9609e-4 0.00971,-0.0083203 0.03084,0.0096289 0.014394,0.0082617 0.013301,-0.0014844 0.00512,-0.0073633 0.00721,0.0092578 0.00459,-0.0058594 -0.00359,-0.0068555 -0.01541,-0.0092969 L 4.1544727,0.00822266 4.1369727,0 Z m 0.2113476,0.00816406 -0.032813,5.4688e-4 -0.012266,0.0049414 -0.00766,0.01123047 0.019004,0.01273438 0.016172,0.0020898 -0.00695,-0.0099414 0.014316,-0.01375 0.017793,-0.0019531 -0.0076,-0.00589844 z m -0.4020508,0.08382813 -0.029863,0.0014258 -0.00543,2.3437e-4 -0.166875,0.02322266 -0.016816,0.009922 -0.015215,0.0172461 -0.011563,0.0235547 -8.98e-4,0.0132617 0.00318,0.008281 0.00863,-0.008848 3.71e-4,0.001289 0.00174,0.006016 -0.00707,0.0108203 -0.00191,0.0117773 0.0026,0.005371 0.0051,-0.001016 0.016269,-0.0143359 4.3e-4,-0.009336 0.012207,-0.005469 0.00863,-0.009238 0.020957,-0.005645 0.027773,-7.227e-4 0.061777,-0.004824 0.027539,-0.0128906 0.015742,-0.0172656 0.036836,-0.006113 0.013262,-0.009355 0.013828,-0.002031 0.018848,-0.0133203 -0.00617,-0.0073047 -0.033887,-0.004707 -2e-5,0 z m -0.4831836,0.08720703 -0.034805,8.398e-4 -0.049961,0.005488 -0.074375,0.008145 -8.98e-4,3.9e-5 -0.1416602,0.009219 -0.00271,-9.8e-5 -0.042402,-0.002207 -0.023066,-0.005059 -0.036094,-0.0132031 -0.015859,-7.227e-4 -0.012656,0.008496 -0.0076,0.005488 -0.00189,0.006426 6.84e-4,5.859e-4 0.00654,0.005664 -0.00102,0.001426 -0.00695,0.009941 0.00135,0.0113672 4.3e-4,0.003262 0.010527,0.0179687 0.00152,8.984e-4 0.026855,0.0153516 0.00937,9.375e-4 0.019863,0.002012 0.032695,-0.002871 0.021348,-0.008652 0.021602,-0.0242578 0.00736,-0.003398 0.00129,-6.055e-4 0.00217,5.273e-4 0.027617,0.006914 0.011719,-0.002129 0.03543,0.008301 0.00922,-0.001523 0.016895,0.003184 0.022402,-0.0100976 0.031758,-0.00457 0.05498,-0.0125586 0.033106,-0.0145703 9.57e-4,5.9e-5 0.055918,0.003223 0.022813,-0.0154102 -0.010723,-0.006133 -0.00783,-0.004473 -0.015898,-0.003223 -2e-5,0 z m 1.0699805,0.00291 -0.036328,0.002031 -0.073184,0.0186328 -0.030156,0.0127734 -0.014316,0.009355 -0.028809,0.0101367 -0.018711,0.0124609 -0.041426,0.006895 -0.023496,0.0108203 -0.062363,0.009062 -0.025059,-0.003359 -0.032207,0.004551 -0.00574,0.001504 -0.026426,0.006934 -0.062363,0.008105 -0.00912,0.004766 -0.062266,0.0245117 -0.031016,0.0202149 -0.016523,-0.0189649 -0.022598,-0.0155078 -0.047168,-0.0173437 -0.010918,0.00502 -0.00436,0.001973 -0.00467,0.00123 -0.0032,8.984e-4 -0.038711,0.0105273 -0.00107,-0.00125 -0.00732,-0.008105 -0.0041,0.006641 0.00475,0.003809 0.012832,0.007109 c 0,0 0.00854,0.005232 0.00949,0.007598 9.62e-4,0.002369 0.00808,0.004276 0.00998,0.005703 0.00189,0.00142 0.013291,0.004724 0.015176,0.005195 0.00192,4.778e-4 0.00525,0.006874 0.00428,0.00998 -9.49e-4,0.003059 -0.00592,0.004795 -0.009,0.005684 -0.00342,9.887e-4 -0.00848,0.001121 -0.011875,0 -0.00638,-0.00209 -0.013528,-0.00829 -0.018027,-0.0132813 -0.00378,-0.004174 -0.00949,-0.0161523 -0.00949,-0.0161523 l -0.00523,-0.00332 -0.011875,0 c 0,0 -0.00512,0.005548 -0.00615,0.008535 -0.00108,0.003099 -0.00223,0.008171 -4.69e-4,0.0109375 0.00198,0.003132 0.00828,0.002715 0.011387,0.004746 0.00363,0.002362 0.00802,0.006364 0.01043,0.009961 0.00152,0.002289 0.00486,0.006265 0.00332,0.008535 -0.00186,0.002701 -0.00772,-7.1e-4 -0.010918,0 -0.00322,7.432e-4 -0.00933,0.001501 -0.00996,0.004746 -5.11e-4,0.002668 0.00382,0.005293 0.00617,0.00666 0.0043,0.002502 0.013305,0.002833 0.016152,0.003789 0.00285,9.556e-4 0.00915,0.003012 0.011387,0.006191 0.00216,0.003059 2.58e-4,0.008954 0.00189,0.0123242 0.00146,0.002986 0.00442,0.007097 0.0076,0.008066 0.00557,0.001699 0.014146,-0.001018 0.018984,-0.004277 0.00373,-0.002522 0.00429,-0.0108508 0.00854,-0.0123437 0.00141,-4.844e-4 0.00373,3.886e-4 0.00477,0.001445 0.00218,0.002216 0.00382,0.007014 0.00285,0.009961 -7.43e-4,0.002223 -0.00427,0.003419 -0.00619,0.004746 -0.00358,0.002475 -0.012682,0.003281 -0.012324,0.007598 2.79e-4,0.003384 0.00706,0.003966 0.01043,0.004277 0.00275,2.455e-4 0.00632,-0.001271 0.00902,-0.001875 0.00299,-6.702e-4 0.00736,-0.003996 0.00998,-0.002383 0.00161,0.001015 0.00194,0.004347 0.00141,0.006172 -0.00116,0.004055 -0.00624,0.007936 -0.00996,0.00998 -0.00459,0.002522 -0.013938,-4.348e-4 -0.01709,0.00377 -0.00119,0.001606 -3.41e-4,0.004842 4.69e-4,0.00666 0.00158,0.00359 0.00756,0.005852 0.00902,0.009492 3.72e-4,9.29e-4 5.24e-4,0.002491 0,0.00334 -6.64e-4,0.001082 -0.00254,0.001769 -0.00381,0.001895 -0.00413,3.849e-4 -0.00991,-0.001407 -0.013281,-0.003809 -0.00283,-0.002017 -0.00463,-0.006652 -0.00664,-0.009492 -0.00141,-0.002004 -0.00306,-0.004862 -0.00475,-0.006641 -0.00238,-0.002495 -0.00561,-0.006602 -0.00902,-0.007109 -0.00272,-4.114e-4 -0.00693,0.001097 -0.00854,0.00332 -0.0031,0.004274 -9.57e-4,0.0147184 -9.57e-4,0.0175586 0,0.00284 -0.00238,0.005687 -0.00523,0.003789 -0.00285,-0.001898 -0.00237,-0.0115142 -0.00428,-0.0161328 -0.00119,-0.002887 -0.0028,-0.007032 -0.00521,-0.009023 -0.00371,-0.003059 -0.012814,-0.00568 -0.015176,-0.005215 -0.00237,4.711e-4 -0.00517,0.00516 -0.0057,0.008066 -9.16e-4,0.00507 0.00191,0.0137621 0.00428,0.0166016 0.00238,0.00284 0.011867,0.013285 0.014727,0.0175586 0.00285,0.00426 0.00103,0.004821 -4.69e-4,0.005684 -0.00315,0.001805 -0.00904,-0.003297 -0.010937,-0.005195 -0.00189,-0.001898 -0.00758,-0.009493 -0.012324,-0.0156641 -0.00474,-0.006171 -0.00475,-0.0104497 -0.00475,-0.0166211 0,-0.006171 3.38e-4,-0.008997 0,-0.0128125 -3.52e-4,-0.004035 -9.39e-4,-0.0109384 -0.00236,-0.0133008 -0.00141,-0.002369 -0.00568,-0.0127901 -0.00568,-0.0170703 0,-0.00428 4.3e-6,-0.008536 4.69e-4,-0.0132812 4.71e-4,-0.004751 -4.9e-4,-0.0109375 -0.00285,-0.0147266 -0.00239,-0.003789 -0.00381,-0.001426 -0.00477,-0.005215 -9.56e-4,-0.003796 -4.8e-4,-0.0170912 4.69e-4,-0.0218359 9.49e-4,-0.004751 0.0041,-0.0249023 0.0041,-0.0249023 l -0.024473,0.0103125 -0.00141,-3.125e-4 -0.061113,-0.0118945 -0.00811,0.007363 -0.021504,-0.002246 -0.031602,0.005684 -0.021953,1.758e-4 -0.037559,0.0114258 -0.026719,0.003398 -0.027988,0.008633 -0.054141,0.0232031 -0.041719,-0.002559 -0.015215,0.005996 -0.02791,0.0175 -0.042207,0.0132031 -0.011641,0.009473 -0.033965,0.0141602 -0.010117,0.007422 -0.030488,0.009707 -0.040625,0.0243945 -0.051933,0.0312305 -0.014766,0.002617 -0.010605,0.008516 -0.018145,-0.001074 -0.066289,0.0150391 -0.022227,0.0135742 -0.03877,0.0294531 -0.010918,0.0173047 -0.00186,0.0108398 -0.041055,0.0431836 -9.76e-4,0.001016 -0.00906,0.004219 -6e-5,0 -0.016113,0.0075 -0.00205,0.001484 -0.00891,0.006445 -0.00215,0.001602 -0.038164,0.0295117 -0.035508,0.0334375 -0.016758,0.028125 -0.014473,0.0409375 0.00779,0.0182422 -0.013477,0.001914 -0.00443,0.008398 0.00215,0.0327734 -0.00896,0.0574609 -0.012266,0.0241602 -0.02082,0.0248633 -0.00576,0.0178125 0.00246,0.0187305 0.00236,0.018379 0.015351,0.037969 0.00705,0.017441 -0.00197,0.0049 -0.020254,-0.00818 0.00367,-0.011035 -0.00748,-0.018496 -0.019922,-0.00695 -0.00189,0.00736 0.012656,0.022324 0.012949,0.00684 -0.00396,0.012031 0.00854,0.021348 0.00951,0.00674 0.012676,-0.00846 0.00252,0.019941 -0.010391,0.012383 0.00879,0.00963 0.00299,0.025449 -0.00475,0.039219 0.01625,0.055566 -6.84e-4,0.016367 -0.00494,0.00428 0.0033,0.014649 -0.00285,0.010371 -0.01252,0.00604 -0.00242,0.00447 0.011602,0.024277 0.00221,0.035684 -0.00486,0.00939 -0.010469,0.00758 -0.010586,1.76e-4 -0.015039,0.00713 -0.019297,0.020488 -0.00525,0.014746 0.016426,0.038848 0.010176,0.00373 0.00813,0.00689 0.026289,0.022383 0.028477,0.01125 0.030059,-0.014297 0.015645,0.00119 0.012129,7.81e-4 0.1022656,0.044336 0.016641,0.00158 0.031211,-0.0067 0.013125,-0.026172 0.019121,-0.00668 0.015176,0.00121 0.022578,-0.00668 0.012383,-0.013398 0.00863,8.4e-4 0.012344,0.015957 0.0049,0.021445 0.018594,-0.00369 0.028281,-8.98e-4 0.019805,0.00732 0.00316,0.00121 0.00139,4.49e-4 0.00105,0.00363 0.00105,0.00371 -4.1e-4,2.74e-4 -0.00408,0.00268 -0.029707,0.0024 -0.014063,0.00557 -0.018652,0.00229 -0.082793,0.1208789 -0.00291,0.0043 -0.00539,0.025742 -0.00576,0.027812 0.0024,0.024434 -2.93e-4,0.017129 -0.0018,0.098477 -0.00137,0.017187 -6.84e-4,0.00875 -0.0049,0.00842 0.00719,0.00723 0.00236,2.93e-4 0.00463,5.86e-4 0.00254,0.00381 0.0042,0.00637 0.00453,4.1e-4 0.019551,0.027617 0.01123,0.00963 0.024062,0.037148 2.73e-4,4.1e-4 7.03e-4,0.00109 1.4358008,0 c -0.00202,-0.00351 -0.00449,-0.00725 -0.00768,-0.011406 l 0.00254,-0.00596 c 0.016198,-0.00331 0.035007,-0.036143 0.058027,-0.046973 0.033,-0.015528 0.038572,0.00473 0.066582,0.00473 0.025143,0 0.052843,-1.86e-4 0.077754,-0.00348 0.00959,-0.00125 0.020914,-0.00484 0.03043,-0.00484 0.00218,0 0.00822,0.00154 0.010039,0.00234 0.010252,0.00447 0.017728,0.025075 0.024238,0.027969 0.00494,3.98e-4 0.066482,-0.0028 0.068731,-0.00346 0.0045,-0.00315 0.00668,-0.00816 0.011191,-0.011309 0.02227,-0.00536 0.044752,0.042458 0.079922,0.026074 0.015024,-0.007 0.025266,-0.049331 0.025723,-0.064707 5.44e-4,-0.018508 -0.00289,-0.037251 -0.00148,-0.055937 0.0017,-0.022363 0.00582,-0.044744 0.00777,-0.067207 0.00175,-0.020319 0.00114,-0.041044 0.00193,-0.061582 0.00264,-0.040419 -8.32e-4,-0.075868 0.00512,-0.1174805 9.42e-4,-0.00674 -8.85e-4,-0.014854 0.00109,-0.021523 0.00637,-0.021567 0.032397,-0.036545 0.027852,-0.060156 -0.00184,-0.015681 5.61e-4,-0.026734 0.00865,-0.040371 0.011095,-0.01866 0.028845,-0.032109 0.042031,-0.049316 0.00721,-0.0094 0.016546,-0.021152 0.02082,-0.032207 0.00211,-0.00545 0.00319,-0.010793 0.00629,-0.016016 0.011095,-0.018707 0.028001,-0.032645 0.039063,-0.051836 0.00414,-0.00713 0.028391,-0.074503 0.030156,-0.083242 0.00338,-0.01663 0.00551,-0.033301 0.010723,-0.051211 -0.00158,-0.013391 0.011825,-0.028357 0.010391,-0.036758 -0.00125,-0.00225 -0.00524,-0.00711 -0.0059,-0.00896 -0.00258,-0.00741 -0.011933,-0.1332821 -0.011562,-0.1470117 4.25e-4,-0.0161385 0.00457,-0.0413336 0.00119,-0.056543 -0.00492,-0.0220113 -0.027271,-0.0146684 -0.024199,-0.055293 0.0011,-0.0144662 0.00699,-0.021331 0.011504,-0.0339258 0.00361,-0.0101927 2.27e-4,-0.0230083 0.00412,-0.0333203 0.00339,-0.009005 0.011597,-0.0142039 0.015605,-0.0225977 0.01523,-0.0317924 0.013271,-0.0678338 0.0059,-0.10115235 -0.00169,-0.0075 -0.00407,-0.031744 -0.00707,-0.0362896 l -0.033984,-0.00166 -0.023359,-0.0108594 -0.00871,0.004316 -0.035078,-0.0143945 -0.02543,-0.004023 -0.014258,-0.00541 -0.025332,-0.0245898 0.0052,-0.0298438 -0.00752,-0.0308789 0.00146,-0.003496 0.013418,-0.0155469 -9.37e-4,-0.004922 -5.47e-4,-0.002793 0,-7.8e-5 -0.00262,0.001504 -0.022969,0.0135742 -6.25e-4,-3.9e-5 -0.00789,-0.00123 -0.06334,-0.009336 -0.016816,-0.007363 -0.00613,-0.005898 -9.57e-4,-0.005898 -0.01168,-0.001797 -0.010801,-0.001738 -0.00457,-0.00832 -0.010176,-0.006367 -0.034649,-0.0108984 -0.029551,-0.028457 -0.030605,-0.0206055 -0.02082,-0.0773437 2e-5,-0.0254492 -0.01248,-0.0175781 -0.00779,-0.010918 -6.45e-4,-8.984e-4 0.00721,-0.0274414 -0.00152,-0.0180664 0.00512,-0.0166797 -0.047031,-0.0323633 -0.00818,-9.57e-4 -0.00373,0.008809 -8.79e-4,0.001895 5.47e-4,0.003438 0.010273,0.005977 0,0.005684 -0.02873,-8.984e-4 -0.00766,-0.007852 0.014824,-0.0136914 0,-0.001582 0,-7.227e-4 0,-0.0108789 -0.016875,-0.005879 -0.00648,0.003437 -0.016562,0.00873 -0.028145,-0.0112109 -0.038398,-0.007402 -5.27e-4,-3.9e-5 z m -0.9182226,0.0161328 -0.021992,0.002148 -0.00508,0.003984 0.00475,0.0126758 1.17e-4,0.0107422 0.00672,0.004375 0.00496,-0.0108399 0.00561,-0.001484 0.0066,-0.008398 0.00459,0.002383 0.00203,-0.004883 -0.0083,-0.0107031 z m -0.6769922,0.015293 -0.023496,0.002324 -0.048516,0.0148047 -0.147871,0.0451563 -0.024355,0.0075 -0.09918,0.0273047 -0.025352,0.005176 -0.010527,0.002148 -0.00377,7.617e-4 -0.036367,0.004531 -0.024883,0.003105 -0.00764,-0.001191 -0.011836,-0.001855 -0.00701,0.00418 -0.00584,0.003438 0.00465,4.883e-4 0.011035,0.001113 -0.00471,0.002383 -0.010488,0.005293 -0.013379,0.0179102 -0.044101,0.0386328 -0.00227,0.0127734 0.0099,0.0291406 0.012441,0.008574 0.015371,0.002617 0.012168,-0.00416 0.016563,-0.0111328 -8e-5,-0.005879 0.00445,-0.004473 0.00248,-8.789e-4 0.00516,-0.001836 0.00254,-9.18e-4 0.012383,-0.0174219 0.021934,-8.984e-4 0.00105,-0.001016 0.012441,-0.0120117 0.017734,-0.007188 0.025527,-4.883e-4 0.0098,0.00416 0.012676,-0.004102 0.00904,-0.008008 0.014238,-0.002754 0.011875,0.003398 9.96e-4,2.93e-4 0.028399,-0.0192188 0.00223,-0.001484 0.00312,-0.002148 0.014648,-0.009863 0.03791,-0.0199414 0.09502,-0.003437 0.00604,-0.006484 -0.024609,-0.0214844 -1.37e-4,-0.003926 0.00703,4.102e-4 0.012441,0.009824 0.01418,8.203e-4 -0.00695,-0.0170117 0.00666,8.398e-4 0.00832,0.006719 0.010684,-0.002617 0.0091,-0.007012 0.011699,-0.002617 0.015137,-0.0105469 0.00211,6.055e-4 0.00924,0.002637 0.00639,-0.00334 0.00787,-0.004121 0.017012,-0.008867 0.00166,-8.203e-4 0.00645,-0.0104297 0.011797,-6.445e-4 0.00576,-0.002969 0.015019,-0.007676 -3.12e-4,-6.055e-4 -0.00236,-0.004687 -0.026289,-0.0108789 -6e-5,-2e-5 z m -0.6489454,0.31394531 -0.01166,0.001699 -0.033848,0.0150195 -0.047773,0.0260742 -0.00246,0.001699 -0.017891,0.0123242 -0.033047,0.022793 -0.00469,0.003203 -0.014023,0.0160156 -0.012734,0.0145117 -0.026308,0.0241406 -0.02502,0.0167969 -0.027305,0.00748 -0.026543,0.0173047 -0.00699,0.006094 0.00645,0.0111328 0.005,-0.004062 0.014434,0.005937 0.019961,-0.001816 0.00416,-3.711e-4 0.00123,-1.172e-4 0.00305,-2.93e-4 0.013926,0.005996 0.02084,-0.001465 0.033008,-0.0429101 0.025215,-0.008926 0.027969,-0.022207 0.0024,-0.00498 -0.00264,-0.003848 -0.00768,-8.008e-4 -0.00684,-0.0109961 -0.00322,-0.005234 -0.00219,-0.003574 0.00105,-0.001543 0.00334,-0.004883 0.035078,-0.0152734 0.014824,-0.006484 0.033809,-0.0110742 0.00314,-9.961e-4 0.023086,-0.0147656 0.016406,-0.0164844 0.00266,-5.9e-5 0.035605,-8.203e-4 8.01e-4,-0.001152 0.00557,-0.007793 -0.00273,-0.008262 -0.037422,-0.007012 0,-2e-5 z m -0.2924804,0.26890625 -2e-5,2e-5 -0.03123,0.0301367 -0.00117,0.001719 -0.025527,0.0380273 -0.01209,0.0180274 -0.045117,0.0673047 -0.00371,0.005508 -0.016445,0.0245898 -5.86e-4,8.789e-4 -0.00402,0.006016 -0.00801,0.0212501 -0.01125,0.014981 -0.00717,0.015996 -0.00664,0.014766 -0.020586,0.092148 4e-5,0.018086 0.00717,0.020879 0.0065,0.011055 0.00391,0.00662 0.00119,0.00201 0.00125,0.00205 0.00244,0.00201 0.00793,0.00648 0.035176,-0.00977 0.00848,-0.00363 0.0034,-0.006 0.013672,6.45e-4 0.00852,-0.00371 0.00375,-0.012285 0.00441,-0.00303 0.00568,0.00271 0.00109,-0.00225 0.00752,-0.015605 0.030332,-0.038965 0.028145,-0.00807 0.017832,-0.015137 0.026055,-0.031523 0.00926,-0.032051 0.025801,-0.022207 0,-0.0367188 0.00127,-0.007363 1.37e-4,-8.398e-4 0.00283,-0.0163477 5.66e-4,-0.003457 -4.49e-4,-0.003281 -0.00262,-0.0177344 0.00635,-0.0245703 0.00191,-0.007422 -0.017305,-0.0387891 -0.00537,-0.002988 -0.012109,-0.006758 -0.0067,-0.0139453 -0.00148,-0.003086 -0.00238,-0.0131445 -0.02248,-0.0225 -0.00814,-7.617e-4 z m -0.094629,0.46273438 -0.019824,0.00131 -0.026543,0.0018 -0.014785,9.96e-4 -0.00844,0.00662 -0.00578,0.01123 -0.00568,0.011074 -0.00455,0.1029688 -0.0034,0.034395 -0.00129,0.013281 -0.0091,0.045664 -0.00102,0.00508 -0.013965,0.050879 -3.71e-4,0.00137 -0.025703,0.09332 -0.016074,0.036172 -0.00342,0.00465 -0.00111,0.0015 -0.00391,0.00529 -0.00562,0.0076 -0.013203,0.081094 -2.73e-4,0.00299 0,1.17e-4 -0.00426,0.048496 -0.00143,0.016289 -0.00645,0.037851 -2.93e-4,0.0018 -0.00691,0.040527 -0.00186,0.053477 -0.00432,0.023047 0.5328125,0 -0.0015,-0.00783 0.0032,-0.011289 0.00684,-0.00852 0.00756,-0.00311 0.014981,-0.00611 0.00781,-0.0032 0.020117,0.00613 0.00369,0.00109 0.021328,-0.010762 0.00121,-2e-5 0.00934,-2.15e-4 0.00318,0.00678 0.00334,0.00156 0.00516,0.00248 7.03e-4,3.71e-4 0.00348,0.00168 0.015351,0.00254 0.00586,9.57e-4 0.00523,0.00486 0.00555,0.00512 0.00234,0.015176 0.00709,0.00225 0.036934,-0.010566 0.018242,-0.017344 0.00385,-0.00367 0.00943,0 0.012695,0 0.055332,-0.042774 0.00918,-0.016836 -1.95e-4,-0.00344 -6.25e-4,-0.010234 0.00182,-0.00562 0.00727,-0.022031 0.00227,-0.00687 0.026074,-0.0025 0.0027,0.00658 0.00373,0.00918 0.0048,0.00449 0.018145,-0.023145 0,-2.93e-4 -1.17e-4,-0.00352 -2e-5,-7.23e-4 -0.00781,-0.00135 -0.00271,-0.00916 0.014883,-0.010606 5.86e-4,-0.00111 0.00521,-0.010234 1.95e-4,-0.00391 1.56e-4,-0.00301 -0.00732,-0.00787 -0.00295,-0.0032 -0.00596,-0.018477 0.00125,-0.033144 6e-5,-0.00113 -0.00687,-0.014102 -8.4e-4,-3.52e-4 -0.00828,-0.00338 -0.00242,-0.00705 -8e-5,-2.15e-4 -0.00201,-0.00596 -0.015723,-0.00416 -0.058633,-0.00291 -0.02041,-0.00102 -0.00248,-1.17e-4 -3.52e-4,1.17e-4 -0.00861,0.00307 -0.021133,0.024863 -0.010859,0.00857 -0.023633,9.76e-4 -0.00822,-0.00664 -0.00953,-0.019414 -0.013848,-0.00953 -0.00477,-0.010156 7.42e-4,-0.010312 -0.00373,-0.00873 -0.0082,-0.00668 -0.012324,-0.010977 -0.00121,-0.00732 0.01666,-0.1232227 8e-5,-5.08e-4 -8.99e-4,-0.015703 -0.00537,-0.00971 -0.032617,-0.058945 -0.00973,-0.025313 -0.00377,-0.00969 -0.00775,-0.00768 -0.00527,-0.01041 -0.016074,-0.03166 -0.00416,-0.00826 -0.0098,-0.00807 5.27e-4,-6.84e-4 0.00584,-0.00785 -2.15e-4,-2.93e-4 -0.00412,-0.00529 -0.00416,-0.00541 -0.00455,-0.00584 -0.00648,0.00555 -0.00564,-0.00238 -0.0066,-0.00271 -0.016973,0.00922 -0.018867,-0.00596 -0.00752,0.00275 -0.028926,0.010449 -0.00717,0.00258 -0.01041,0.00807 -0.010547,0.021797 -0.020488,0.02209 -0.00238,0.00258 -0.00268,0.00289 -0.042461,0.018203 -0.00512,0.00439 -0.0018,0.00162 -0.02334,0.00348 -0.00727,0.00109 -6.64e-4,10e-5 -0.031113,-0.011953 -0.00834,-0.00904 -5.86e-4,-2.15e-4 -0.023984,-0.010898 -0.017578,-0.014297 -0.023848,-0.055684 6.84e-4,-0.011777 0.01084,-0.024395 1.37e-4,-3.52e-4 0,-2.15e-4 -3.32e-4,-0.00555 -7.42e-4,-0.01334 -2.34e-4,-8e-5 -0.00484,-0.00178 -0.00789,0.00541 -0.00703,0.00482 -0.00654,-4.69e-4 -0.00828,-0.00428 0.00107,-0.00918 3.32e-4,-0.00273 2.54e-4,-0.00215 z"
     id="rect8"
     style="fill:#ae1c28;fill-opacity:1"
     inkscape:connector-curvature="0" />
</svg>
