<?xml version="1.0" encoding="UTF-8" standalone="no"?>
<!-- Created with Inkscape (http://www.inkscape.org/) -->

<svg
   xmlns:svg="http://www.w3.org/2000/svg"
   xmlns="http://www.w3.org/2000/svg"
   xmlns:xlink="http://www.w3.org/1999/xlink"
   version="1.0"
   width="410"
   height="580"
   viewBox="0 0 410 580"
   id="svg2"
   xml:space="preserve"
   style="overflow:visible"><defs
   id="defs120"><g
     id="Pentagram"><g
       transform="translate(0,-0.324925)"
       id="Arm"><path
         d="M 0,0 0,0.5 1,0 z"
         id="path3809" /><path
         d="M 0,0 0,-0.5 1,0 z"
         transform="matrix(0.80901699,-0.58778525,0.58778525,0.80901699,0.19098301,0.58778525)"
         id="path3811" /></g><use
       transform="scale(-1,1)"
       id="use3813"
       x="0"
       y="0"
       width="800"
       height="600"
       xlink:href="#Arm" /><use
       transform="matrix(0.30901699,0.95105652,-0.95105652,0.30901699,0,0)"
       id="use3815"
       x="0"
       y="0"
       width="800"
       height="600"
       xlink:href="#Arm" /><use
       transform="matrix(0.30901699,-0.95105652,0.95105652,0.30901699,0,0)"
       id="use3817"
       x="0"
       y="0"
       width="800"
       height="600"
       xlink:href="#Arm" /><use
       transform="matrix(-0.30901699,0.95105652,0.95105652,0.30901699,0,0)"
       id="use3819"
       x="0"
       y="0"
       width="800"
       height="600"
       xlink:href="#Arm" /></g><g
     id="Pentagram-1"><g
       transform="translate(0,-0.324925)"
       id="Arm-7"><path
         d="M 0,0 0,0.5 1,0 z"
         id="path3987" /><path
         d="M 0,0 0,-0.5 1,0 z"
         transform="matrix(0.80901699,-0.58778525,0.58778525,0.80901699,0.19098301,0.58778525)"
         id="path3989" /></g><use
       transform="scale(-1,1)"
       id="use3991"
       x="0"
       y="0"
       width="800"
       height="600"
       xlink:href="#Arm-7" /><use
       transform="matrix(0.30901699,0.95105652,-0.95105652,0.30901699,0,0)"
       id="use3993"
       x="0"
       y="0"
       width="800"
       height="600"
       xlink:href="#Arm-7" /><use
       transform="matrix(0.30901699,-0.95105652,0.95105652,0.30901699,0,0)"
       id="use3995"
       x="0"
       y="0"
       width="800"
       height="600"
       xlink:href="#Arm-7" /><use
       transform="matrix(-0.30901699,0.95105652,0.95105652,0.30901699,0,0)"
       id="use3997"
       x="0"
       y="0"
       width="800"
       height="600"
       xlink:href="#Arm-7" /></g></defs>

<path
   d="m 219.96515,0.19594649 c -4.9794,0.04643 -11.18658,2.24745201 -6.03125,5.12500001 17.23043,9.8462825 10.8554,28.6026055 16.90625,33.4062495 1.19313,8.70746 5.49941,4.873158 9.75,2.0625 -11.1556,7.881393 10.4347,23.017546 14.8125,33.25 5.47031,15.72799 11.26465,4.94605 2.28125,-2.875 7.62444,6.100734 9.25212,5.275691 7.1875,1 3.7388,1.527079 2.83818,3.320807 4.28125,7.03125 -2.3908,1.81407 -5.99512,5.269056 1.28125,3.46875 1.1115,-3.988982 4.64706,13.62924 -0.96875,9.46875 -5.78477,-15.461893 -7.61752,-0.51111 2.59375,9.593744 -4.03676,16.65288 15.01981,-0.42056 11.09375,5.90625 10.13121,3.86396 1.14093,4.06136 -1.96875,7.46875 -9.54401,-16.193494 3.26926,23.48128 5.8125,27.09375 9.69043,-5.34361 -10.88398,9.30053 -0.21875,7.03125 -5.71086,5.83014 4.70066,6.44709 -3.84375,7.09375 -5.44289,6.63254 -0.30393,26.79746 -9.75,35.53125 -12.44062,0.96702 -36.97685,17.59834 -14.40625,27.40625 13.48109,10.35882 37.6522,11.98891 40.1875,32.5 0.34064,14.29551 -8.62706,34.01898 -15.21875,37.8125 -11.26449,9.90471 2.25842,11.4956 3.3125,5.6875 0.10898,6.34361 -0.1721,9.32808 9.53125,6.15625 0.72532,13.49324 12.31395,7.57894 20.25,-0.53125 3.48133,-3.02814 7.13717,-6.32083 9.5,-10.4375 4.89162,-14.45056 17.28653,-25.19535 21.84375,-38.3125 6.13496,-7.50789 19.63357,-27.79983 8.8125,-32.21875 -6.60094,-15.67995 17.14293,-26.46624 30.90625,-22.625 1.71667,16.123 4.71938,-1.11988 2.84375,-10.9375 0.18993,-6.21026 18.69896,-10.94817 12.375,-19 2.65178,-4.32749 2.22778,-9.67284 1.59375,-15.53125 7.54363,-9.21332 6.00875,-16.59503 -0.875,-19.8125 -9.53436,-2.36357 -17.87197,3.61401 -23.40625,11.4375 -14.81432,15.49424 -18.5467,5.45056 -36.09375,-0.71875 -12.80418,-8.09297 -10.52143,-4.26877 -19.625,-7.125 -1.42442,-5.35812 0.18655,-7.44499 -1.71875,-13.65625 -3.72462,-7.41989 1.1645,-14.92626 -5.625,-20.21875 -7.33405,5.288 4.26199,-5.634644 0.1875,-5.593744 -7.19037,3.63703 -5.80709,-2.08418 -8.0625,-5.875 -7.82391,-8.075812 -4.30345,0.0146 -2.59375,7.34375 0.77037,3.253474 -2.4059,5.649044 1.78125,15.593744 1.40782,11.5272 -9.60677,-4.40533 -12.125,-7.5625 -2.76262,-0.98394 -6.88988,-2.46213 -8.6875,-2.21875 -0.33117,-2.34827 -8.10716,0.64933 -8,-1.90625 -1.82475,-4.125634 1.69884,-0.92539 4.1875,-0.5625 -3.0005,-0.72008 2.84224,-12.649898 -0.5625,-8.624994 -2.96102,-6.872545 -2.02648,-7.05306 0.0937,-7 -2.16308,-3.449154 5.49464,-3.745432 -0.375,-5.5 2.78752,-2.205663 -10.92562,-18.457756 -12.21875,-20.8125 -5.31952,-0.626874 0.27666,-3.212308 2.15625,-1.6875 6.67887,8.42952 3.32867,-7.479426 0.25,-11.0625 1.2554,-3.411936 -7.91772,-7.04068 -3.6875,-6.75 0.1524,-2.317128 -1.33681,-12.113255 -2.34375,-5.6875 -1.78875,2.49398 -9.40411,1.054464 -2.15625,3.90625 -6.38666,-0.08458 -8.6025,-7.414344 -5.8125,-6.6875 5.26053,4.194726 -7.014,-10.425799 -10.3125,-4.9375 -0.1553,-2.700839 -6.85331,-7.642371 -7.28125,-1.90625 -9.7144,-0.822134 -0.83374,-5.466268 -3.84375,-7.5625 0.6688,1.585322 -6.89604,14.140776 -4.9375,4.1875 -5.59464,-5.471312 -11.1251,-17.0216255 -10.9687,-14.7187495 -2.33319,1.694833 -3.6213,-4.803034 1.375,-1.40625 3.52611,-3.273725 0.40412,-4.53611201 -3.46875,-4.50000001 z m 17.75,16.28124951 c 0.0894,0.04803 0.17538,0.07379 0.25,0.125 -0.0504,-0.09877 -0.11951,-0.136323 -0.25,-0.125 z m 6.375,22.46875 c -0.49102,0.189901 -0.95025,0.382831 -1.375,0.59375 0.47308,-0.246121 0.92032,-0.463101 1.375,-0.59375 z m -24.625,221.968744 c -0.60909,0.0308 -1.2887,0.1293 -2.0625,0.28125 1.22574,0.0115 2.72335,0.30212 4.5625,1 0.2046,-0.97061 -0.79151,-1.36755 -2.5,-1.28125 z m -2.0625,0.28125 c -1.18132,-0.0111 -2.09394,0.24986 -2.78125,0.71875 0.99104,-0.30221 1.93546,-0.55267 2.78125,-0.71875 z m -2.78125,0.71875 c -9.12309,2.78206 -23.25384,11.1164 -21.40625,21.53125 6.59895,21.82966 -17.98399,28.93276 -22.8125,40.84375 -4.37471,21.92652 -15.59898,45.38755 -37.03125,54.78125 -11.37963,8.74167 -19.73347,21.92971 -33.18751,26.375 -10.950648,7.42919 -20.178458,17.24058 -33.624998,16.71875 -6.73442,8.6136 -9.72982,12.26443 -13.875,17.53125 -11.00168,1.79424 2.57537,17.93324 -3.59375,11.03125 -8.37062,-6.07714 -7.89784,10.49832 -9.1875,5.71875 -2.08984,2.47296 -2.35225,3.68909 -2.28125,4.1875 -0.38621,-0.29119 -1.45615,-0.74001 -4.03125,-1 -0.86861,6.56729 1.89143,13.13618 -1.875,2.3125 -12.50831,2.38428 2.74429,13.2127 -6.46875,7.78125 -0.72114,5.72564 2.99225,5.13731 -3.96875,3.71875 9.29247,9.91226 -6.59974,-5.20846 -0.96875,8.03125 10.50348,0.78602 2.20118,1.03601 2,4.3125 4.4129,9.78119 0.88637,4.98866 -1.40625,1.40625 -4.7812,5.96298 1.61468,-3.7228 -3.15625,-2.5 -8.9403499,-6.52237 1.81597,9.73755 -3.75,3.65625 -13.13234993,8.48681 5.50455,7.23195 4.125,5.96875 4.20752,-0.1361 -14.0345499,6.62638 -2.15625,4.96875 -3.65413,1.31894 -6.4060499,6.86435 2.90625,3.625 -1.70151,4.02793 -12.0195099,3.75534 -16.6562499,5.46875 -7.17096,13.68687 7.8953899,5.89605 7.15625,4.1875 7.0454999,0.71858 -10.48942,12.34274 0.9999999,6 -0.8484099,1.70512 -0.10465,1.43588 1.09375,0.5 -2.8234199,4.87205 -6.2264299,10.18651 5.15625,9 11.27022,7.53545 24.0822,-12.0624 26.8125,5.125 6.22678,8.85215 13.96231,-5.26374 18.75,6.75 -0.95823,1.24515 0.51086,2.05042 1.4375,1.96875 -0.97461,1.50379 -1.46718,3.36356 0.9375,4.25 -2.5807,0.92052 8.29351,-2.35461 4.125,-0.6875 9.00567,-2.30368 17.58101,8.70429 24.59375,2.3125 3.52474,4.76953 11.680288,-4.02639 17.562508,-4.28125 7.86637,-7.85077 15.96137,-29.82827 33.40625,-31.03125 7.29797,-4.46168 1.75739,-4.54399 -1.46875,-3.28125 4.40734,-4.82149 -3.16128,-10.19647 7.15625,-16.84375 -1.78417,-14.6795 16.31066,-27.01368 11.9375,-44.6875 4.05508,-19.75186 28.96104,-29.74979 47.375,-33.8125 9.1075,3.58834 12.68612,0.58611 12.875,-1.71875 0.21982,9.63264 9.90022,-4.44118 3.9375,-5.03125 -4.94229,-4.83489 -5.91565,-2.60998 -9.6875,-3.90625 -2.82584,5.36354 -4.68579,-17.8563 3.6875,-23.90625 16.84043,-2.22854 16.82822,-27.23746 27.15625,-32.0625 1.46895,-10.40717 25.41981,-25.05228 15.71875,-33.46875 -4.76671,-9.44993 -1.67682,-19.54921 1.4375,-16.1875 4.02429,-1.75045 3.29311,-5.35982 -0.9375,-2.8125 -1.45624,-1.71522 -11.1325,3.52747 -6.84375,-1.1875 1.88253,-0.43401 5.31035,0.41134 6.28125,-2.125 1.10934,-3.98453 0.84829,-0.87502 3.6875,-4.78125 3.00537,-4.68084 -4.18662,0.34631 -2.90625,-3 0.6961,-0.8229 -6.16182,-1.33352 -6.46875,0.1875 -3.04959,1.33672 5.9314,0.94086 -0.4375,5.5625 -0.39888,-6.50215 -6.32292,5.06033 -0.75,3.28125 -1.94853,0.79894 -3.91436,1.72457 -4.125,2.34375 -5.23576,3.50266 4.20641,-3.59924 -1.34375,-4.84375 5.64888,-1.85739 5.21597,-7.65651 -0.375,-2.09375 0.28928,-3.21375 -0.54509,-4.6407 4.25,-4.84375 3.14796,-2.34788 4.25694,-7.84513 -1.3125,-0.5625 0.9655,-6.20947 -9.52585,4.31315 -3.90625,2.9375 -4.78161,2.35819 -6.53115,0.80701 -12.625,5.21875 -5.69346,10.38632 -12.06588,4.50295 -11.71875,-3.40625 -1.41173,-4.35371 4.2247,-11.97074 -2.78125,-13.71875 -4.85571,6.65652 -12.61262,-8.282 -7.4375,-11.8125 z M 68.683892,545.47719 c -0.76319,0.19523 -1.54372,0.4695 -2.3125,0.875 1.0779,-0.39147 1.78242,-0.66301 2.3125,-0.875 z M 259.09015,291.50844 c -0.54738,0.19307 -1.26788,0.45431 -2.03125,0.75 0.18194,-0.089 0.36307,-0.17082 0.5625,-0.28125 1.15364,-0.36973 1.11783,-0.3501 1.46875,-0.46875 z"
   id="rect4601"
   style="fill:#00247d" /><path
   d="m 260.8089,282.88344 c -0.6239,-0.0151 -1.24605,0.0154 -1.8125,0.0937 l -2.0625,1.78125 c 1.16428,0.63724 4.31861,1.38636 -0.1875,4.65625 -0.39888,-6.50215 -6.32292,5.06033 -0.75,3.28125 -1.94853,0.79894 -3.91436,1.72457 -4.125,2.34375 -5.23576,3.50266 4.20641,-3.59924 -1.34375,-4.84375 l -109.65625,92.9688 -0.46875,-7.90625 c -2.21334,1.44088 -4.54934,2.72469 -7.03125,3.8125 -10.23632,7.8634 -18.02702,19.32207 -29.28125,24.78125 l 0.59375,9.96875 -80.250008,68.0625 c 3.49956,0.57574 -1.96209,1.25311 -2.125,3.90625 4.4129,9.78119 0.88637,4.98866 -1.40625,1.40625 -3.27052,4.07891 -1.31888,0.84658 -1.28125,-1.21875 l -3.96875,3.34375 c 0.0725,0.36179 0.0103,0.49325 -0.3125,0.28125 l -5.4687499,4.65625 c 2.0878099,1.6308 9.1172699,0.85663 8.2499999,0.0625 4.20752,-0.1361 -14.0345499,6.62638 -2.15625,4.96875 -3.65413,1.31894 -6.4060499,6.86435 2.90625,3.625 -1.70151,4.02793 -12.0195099,3.75534 -16.6562499,5.46875 -7.17096,13.68687 7.8953899,5.89605 7.15625,4.1875 7.0454999,0.71858 -10.48942,12.34274 0.9999999,6 -0.8484099,1.70512 -0.10465,1.43588 1.09375,0.5 -2.8234199,4.87205 -6.2264299,10.18651 5.15625,9 3.57657,2.39135 7.29688,2.03097 10.8125,1 l 80.093758,-67.90625 4.8125,80.6875 c 7.42765,-8.90229 15.5714,-28.24857 31.90625,-29.375 7.29797,-4.46168 1.75739,-4.54399 -1.46875,-3.28125 4.00375,-4.37997 -1.87441,-9.19888 4.75,-15.03125 l -3.8125,-63.65625 107.5625,-91.21875 c 6.83979,-9.03579 19.06983,-19.09936 11.65625,-25.53125 -4.76671,-9.44993 -1.67682,-19.54921 1.4375,-16.1875 4.02429,-1.75045 3.29311,-5.35982 -0.9375,-2.8125 -1.45624,-1.71522 -11.1325,3.52747 -6.84375,-1.1875 1.88253,-0.43401 5.31035,0.41134 6.28125,-2.125 1.10934,-3.98453 0.84829,-0.87502 3.6875,-4.78125 3.00537,-4.68084 -4.18662,0.34631 -2.90625,-3 0.34805,-0.41145 -1.17792,-0.74086 -2.84375,-0.78125 z m -10.28125,7.3125 c 2.47138,-0.81261 3.77945,-2.36623 4,-3.40625 l -4,3.40625 z m 33.59375,-0.875 c -0.12615,0.0829 -0.25046,0.17833 -0.375,0.25 -5.24007,4.60752 -5.11238,7.39856 -3.375,8.5 l 3.75,-8.75 z m -25.03125,2.1875 c -0.54738,0.19307 -1.26788,0.45431 -2.03125,0.75 0.18194,-0.089 0.36307,-0.17082 0.5625,-0.28125 1.15364,-0.36973 1.11783,-0.3501 1.46875,-0.46875 z"
   id="Saint_Andrews_Cross"
   style="font-size:medium;font-style:normal;font-variant:normal;font-weight:normal;font-stretch:normal;text-indent:0;text-align:start;text-decoration:none;line-height:normal;letter-spacing:normal;word-spacing:normal;text-transform:none;direction:ltr;block-progression:tb;writing-mode:lr-tb;text-anchor:start;color:#000000;fill:#ffffff;fill-opacity:1;fill-rule:nonzero;stroke:none;stroke-width:60;marker:none;visibility:visible;display:inline;overflow:visible;enable-background:accumulate;font-family:Andale Mono;-inkscape-font-specification:Andale Mono" /><path
   d="m 266.9339,284.57094 -8.40625,7.125 -0.0625,0.0312 -123.15625,104.4688 -11.09375,25.96875 136.46875,-115.71875 c -0.87638,-6.51036 1.38913,-11.35595 3.6875,-8.875 4.02429,-1.75045 3.29311,-5.35982 -0.9375,-2.8125 -1.45624,-1.71522 -11.1325,3.52747 -6.84375,-1.1875 1.88253,-0.43401 5.31035,0.41134 6.28125,-2.125 1.10934,-3.98453 0.84829,-0.87502 3.6875,-4.78125 0.95611,-1.48914 0.8819,-1.98751 0.375,-2.09375 z m -142.71875,137.59375 5.78125,96.78125 c 3.50393,-3.10569 7.54076,-5.43692 12.28125,-6.21875 l -5.09375,-85 -12.96875,-5.5625 z m 0,0 -113.906258,96.59375 c -0.6941299,1.48756 0.006,1.21099 1.15625,0.3125 -2.8234199,4.87205 -6.2264299,10.18651 5.15625,9 0.44448,0.29719 0.89518,0.5333 1.34375,0.75 l 95.125008,-80.65625 11.125,-26 z m 0,0 -1.96875,-32.90625 c -3.88729,3.88022 -7.75841,7.72279 -12.03125,10.84375 l 1,16.5 13,5.5625 z"
   id="Saint_Patricks_Cross"
   style="font-size:medium;font-style:normal;font-variant:normal;font-weight:normal;font-stretch:normal;text-indent:0;text-align:start;text-decoration:none;line-height:normal;letter-spacing:normal;word-spacing:normal;text-transform:none;direction:ltr;block-progression:tb;writing-mode:lr-tb;text-anchor:start;color:#000000;fill:#cc142b;fill-opacity:1;fill-rule:nonzero;stroke:none;stroke-width:40;marker:none;visibility:visible;display:inline;overflow:visible;enable-background:accumulate;font-family:Andale Mono;-inkscape-font-specification:Andale Mono" /><path
   d="m 219.46515,260.91469 c -0.60909,0.0308 -1.2887,0.1293 -2.0625,0.28125 1.22574,0.0115 2.72335,0.30212 4.5625,1 0.2046,-0.97061 -0.79151,-1.36755 -2.5,-1.28125 z m -2.0625,0.28125 c -1.18132,-0.0111 -2.09394,0.24986 -2.78125,0.71875 0.99104,-0.30221 1.93546,-0.55267 2.78125,-0.71875 z m -2.78125,0.71875 c -9.12309,2.78206 -23.25384,11.1164 -21.40625,21.53125 6.59895,21.82966 -17.98399,28.93276 -22.8125,40.84375 -4.37471,21.92652 -15.59898,45.38755 -37.03125,54.78125 -11.37963,8.74167 -19.73347,21.92971 -33.18751,26.375 -10.950648,7.42919 -20.178458,17.24058 -33.624998,16.71875 -2.45241,3.13673 -4.05318,5.17432 -5.75,7.3125 l 21.90625,9.34375 -39.625,92.6875 c 0.12302,0.52386 0.24603,1.07232 0.34375,1.6875 6.22678,8.85215 13.96231,-5.26374 18.75,6.75 -0.95823,1.24515 0.51086,2.05042 1.4375,1.96875 -0.97461,1.50379 -1.46718,3.36356 0.9375,4.25 -2.5807,0.92052 8.29351,-2.35461 4.125,-0.6875 9.00567,-2.30368 17.58101,8.70429 24.59375,2.3125 2.63919,3.57125 7.879128,-0.48428 12.812508,-2.84375 l 0.0312,0 34.71875,-81.28125 16.2813,6.96875 c 3.64974,-6.98016 6.88597,-14.33638 4.75,-22.96875 3.0566,-14.88839 17.95982,-24.24748 33,-29.6875 l -29.15625,-12.46875 56.3125,-131.75 c -4.85741,6.56316 -12.57165,-8.31988 -7.40625,-11.84375 z M 68.683892,545.47719 c -0.76319,0.19523 -1.54372,0.4695 -2.3125,0.875 1.0779,-0.39147 1.78242,-0.66301 2.3125,-0.875 z m -20.6875,6.15625 c -2.81757,0.13973 -4.81958,2.21485 -3.125,6.5 2.1049,8.21846 -2.1668,9.61792 -4.96875,14 -10.82928,9.72121 6.13028,8.09778 -0.4375,6.3125 4.42342,-4.77024 9.65445,-2.13279 16.59375,-5.75 6.06485,0.20151 5.73923,-4.10958 3.71875,-9.625 -0.57599,3.45524 -12.44521,1.32689 -5.46875,-2.71875 2.46594,5.03206 8.15526,0.61475 2.15625,-2.1875 -1.05881,-4.3682 -5.2755,-6.68961 -8.46875,-6.53125 z"
   id="path3827"
   style="font-size:medium;font-style:normal;font-variant:normal;font-weight:normal;font-stretch:normal;text-indent:0;text-align:start;text-decoration:none;line-height:normal;letter-spacing:normal;word-spacing:normal;text-transform:none;direction:ltr;block-progression:tb;writing-mode:lr-tb;text-anchor:start;color:#000000;fill:#ffffff;fill-opacity:1;fill-rule:nonzero;stroke:none;stroke-width:100;marker:none;visibility:visible;display:inline;overflow:visible;enable-background:accumulate;font-family:Andale Mono;-inkscape-font-specification:Andale Mono" /><path
   d="m 213.09015,262.44594 c -9.08231,3.19503 -21.62131,11.15604 -19.875,21 6.59895,21.82966 -17.98399,28.93276 -22.8125,40.84375 -4.37471,21.92652 -15.59898,45.38755 -37.03125,54.78125 -6.80386,5.22663 -12.52889,12.03839 -18.90625,17.625 l -0.25,0.5625 -0.28125,-0.125 c -4.14008,3.56169 -8.55777,6.59696 -13.75001,8.3125 -8.800548,5.97051 -16.497158,13.45854 -26.156248,15.90625 l 25.28125,10.8125 -43.90625,102.75 c 2.53396,-0.3804 4.89167,0.28973 6.78125,5.03125 -0.95823,1.24515 0.51086,2.05042 1.4375,1.96875 -0.97461,1.50379 -1.46718,3.36356 0.9375,4.25 -2.5807,0.92052 8.29351,-2.35461 4.125,-0.6875 7.80823,-1.99737 15.29552,6.00081 21.71875,4 l 43.781258,-102.40625 27.6875,11.84375 c 0.81889,-3.53886 0.98875,-7.25405 0,-11.25 1.9853,-9.67018 8.97779,-16.99507 17.75,-22.4375 l -30.53125,-13.03125 64,-149.75 z M 68.683892,545.47719 c -0.76319,0.19523 -1.54372,0.4695 -2.3125,0.875 1.0779,-0.39147 1.78242,-0.66301 2.3125,-0.875 z m -20.4375,6.15625 -3.1875,7.4375 c 1.54582,7.38529 -2.46579,8.85478 -5.15625,13.0625 -0.24517,0.22008 -0.47022,0.41642 -0.6875,0.625 l -2.5625,6.03125 c 1.65483,1.87227 6.98955,0.79167 2.8125,-0.34375 4.42342,-4.77024 9.65445,-2.13279 16.59375,-5.75 6.06485,0.20151 5.73923,-4.10958 3.71875,-9.625 -0.57599,3.45524 -12.44521,1.32689 -5.46875,-2.71875 2.46594,5.03206 8.15526,0.61475 2.15625,-2.1875 -1.03234,-4.259 -5.05799,-6.56503 -8.21875,-6.53125 z"
   id="path3829"
   style="font-size:medium;font-style:normal;font-variant:normal;font-weight:normal;font-stretch:normal;text-indent:0;text-align:start;text-decoration:none;line-height:normal;letter-spacing:normal;word-spacing:normal;text-transform:none;direction:ltr;block-progression:tb;writing-mode:lr-tb;text-anchor:start;color:#000000;fill:#cc142b;fill-opacity:1;fill-rule:nonzero;stroke:none;stroke-width:60;marker:none;visibility:visible;display:inline;overflow:visible;enable-background:accumulate;font-family:Andale Mono;-inkscape-font-specification:Andale Mono" /><path
   d="m 258.2464,39.352196 -7.59375,17.78125 -8.59375,-0.78125 c 4.55607,6.103431 11.13265,12.519384 13.34375,17.6875 0.48895,1.405802 0.98541,2.590488 1.46875,3.59375 l 4.78125,4.15625 c 1.4137,-1.280392 0.90474,-6.38208 -3.96875,-10.625 7.62444,6.100734 9.25212,5.275691 7.1875,1 0.37184,0.151874 0.68182,0.309978 0.96875,0.46875 l -0.625,-2.78125 9.53125,-5.71875 c -1.82876,-2.434411 -3.36421,-4.422484 -3.75,-5.125 -0.33247,-0.03918 -0.62424,-0.072 -0.875,-0.125 l -0.0312,0 -7.5625,-0.6875 -4.28125,-18.84375 z m 16.84375,19.96875 c 0.75444,0.549386 1.25851,0.536623 1.5625,0.125 l -1.5625,-0.125 z m -7.46875,21.15625 c -1.59174,1.472736 -2.60988,3.03443 0.59375,2.625 l -0.59375,-2.625 z"
   id="path4191"
   style="fill:#ffffff" /><path
   d="m 257.65265,45.977196 -5.71875,13.3125 -8.15625,-0.71875 c 4.17955,5.192706 9.21819,10.472798 11.34375,14.90625 l 0.0312,-0.03125 7.1875,6.21875 c -0.009,-2.211519 -1.28748,-5.567106 -4.65625,-8.5 3.28288,2.626812 5.44418,3.945018 6.6875,4.28125 l -1.5,-6.59375 10.625,-6.34375 c -0.37011,-0.491344 -0.69292,-0.930822 -1,-1.34375 l -11.625,-1.0625 -3.21875,-14.125 z"
   id="path4175"
   style="fill:#cc142b" /><path
   d="m 278.06133,170.6564 14.54548,12.72751 -7.58687,17.75244 16.57228,-9.91537 14.56366,12.73527 -4.2977,-18.85607 16.59044,-9.9076 -19.25137,-1.71627 -4.29769,-18.85606 -7.59464,17.7706 -19.24359,-1.73445 z"
   id="path4127"
   style="fill:#ffffff" /><path
   d="m 284.16656,173.26561 10.92014,9.54496 -5.69208,13.31888 12.41817,-7.43588 10.92015,9.54498 -3.21874,-14.14011 12.43635,-7.42811 -14.4275,-1.28786 -3.21873,-14.1401 -5.69986,13.33703 -14.4379,-1.31379 z"
   id="path4111"
   style="fill:#cc142b" /><path
   d="m 71.323892,556.96744 c 3.75995,-5.60478 -3.15514,-2.5466 0,0 z"
   id="path17"
   style="fill:#cc142b;fill-opacity:1;stroke:none" />



<path
   d="m 343.02765,234.69594 -7.59375,17.78125 -19.25,-1.75 14.5625,12.75 -7.59375,17.75 12.03125,-7.1875 c 4.65577,-6.8289 9.62087,-13.32261 12.4375,-20.4375 l -0.28125,-0.0312 -4.3125,-18.875 z"
   id="path4634"
   style="fill:#ffffff" /><path
   d="m 342.4339,241.32094 -5.6875,13.34375 -14.4375,-1.3125 10.90625,9.53125 -5.6875,13.34375 10.4375,-6.25 c 3.32338,-4.75974 6.54518,-9.44985 8.8125,-14.40625 l -1.125,-0.0937 -3.21875,-14.15625 z"
   id="path4636"
   style="fill:#cc142b" /></svg>