<?xml version="1.0" encoding="UTF-8" ?>
<!DOCTYPE svg PUBLIC "-//W3C//DTD SVG 1.1//EN" "http://www.w3.org/Graphics/SVG/1.1/DTD/svg11.dtd">
<svg width="886pt" height="588pt" viewBox="0 0 886 588" version="1.1" xmlns="http://www.w3.org/2000/svg">
<g id="#0035adff">
<path fill="#0035ad" opacity="1.00" d=" M 34.83 0.00 L 35.40 0.00 C 37.80 3.23 36.99 8.15 40.94 10.23 C 41.10 11.74 41.50 13.24 41.35 14.76 C 40.51 15.72 39.58 16.60 38.67 17.48 C 38.58 16.64 38.42 14.94 38.33 14.10 C 37.15 14.75 35.98 15.42 34.82 16.10 C 34.07 15.40 33.31 14.71 32.54 14.03 C 33.27 10.69 33.55 7.29 33.71 3.89 C 33.53 3.26 33.17 1.99 32.99 1.36 C 33.45 1.02 34.37 0.34 34.83 0.00 Z" />
<path fill="#0035ad" opacity="1.00" d=" M 0.00 7.45 C 1.26 6.67 2.55 5.90 3.95 5.38 C 5.52 5.54 6.50 6.93 7.74 7.76 C 5.52 10.21 6.11 13.26 7.01 16.13 C 4.69 14.00 2.67 11.51 0.00 9.78 L 0.00 7.45 Z" />
<path fill="#0035ad" opacity="1.00" d=" M 75.51 11.67 C 76.46 12.95 77.35 14.27 78.28 15.57 C 79.63 18.78 82.72 20.56 85.04 22.96 C 86.76 26.36 88.69 29.67 90.26 33.16 C 88.73 31.87 87.27 30.28 85.18 29.99 C 79.51 29.14 76.53 23.44 74.59 18.64 C 76.14 16.59 75.52 14.02 75.51 11.67 Z" />
<path fill="#0035ad" opacity="1.00" d=" M 41.86 16.77 C 44.01 17.41 46.20 18.30 48.47 17.56 C 50.34 19.47 52.00 21.57 53.46 23.80 L 54.73 22.41 C 57.61 28.95 61.58 35.82 68.64 38.45 C 70.66 42.49 74.63 45.41 75.74 49.90 C 76.78 51.01 77.85 52.10 78.95 53.15 C 82.19 52.80 85.27 54.81 86.54 57.76 C 89.56 59.48 92.00 62.47 95.57 63.00 C 97.09 62.17 99.28 61.16 100.55 63.05 C 101.30 62.29 102.02 61.51 102.78 60.76 C 102.93 62.10 103.08 63.44 103.24 64.78 C 103.68 65.06 104.57 65.62 105.01 65.90 C 104.07 63.50 103.98 60.91 105.84 58.92 C 105.17 56.07 104.36 53.25 104.08 50.33 C 108.19 49.91 111.75 53.03 115.83 52.13 C 117.32 54.67 119.74 57.03 122.94 56.51 C 125.63 56.11 127.62 57.98 129.24 59.84 C 133.95 59.43 136.45 64.37 140.98 64.43 C 142.95 65.35 145.05 65.99 147.01 66.93 C 149.13 68.48 150.37 70.96 152.60 72.39 C 155.91 74.55 157.72 78.71 161.85 79.64 C 161.38 80.31 160.92 80.98 160.46 81.65 C 161.13 83.31 161.58 85.06 162.16 86.75 C 163.54 88.30 165.74 88.66 167.61 89.34 C 168.46 90.19 169.31 91.04 170.17 91.89 C 171.32 92.12 172.48 92.34 173.64 92.56 C 176.77 95.09 178.78 98.89 182.64 100.49 C 185.94 103.14 190.72 102.59 193.71 105.73 C 189.32 107.32 184.93 108.87 180.55 110.49 C 156.58 119.54 134.81 133.91 116.31 151.55 C 114.86 146.36 110.48 142.70 107.68 138.22 C 107.32 136.12 107.15 133.90 105.95 132.07 C 104.24 129.35 103.19 126.03 100.22 124.37 C 99.70 124.98 98.66 126.18 98.13 126.78 C 98.18 125.82 98.28 123.91 98.32 122.95 C 97.46 122.97 95.73 123.01 94.86 123.03 C 93.44 121.96 92.02 120.88 90.63 119.76 C 90.39 117.20 88.56 115.67 86.22 115.01 C 84.27 111.34 80.17 109.58 78.40 105.83 C 77.81 101.22 76.98 96.49 74.62 92.43 C 73.72 90.93 71.98 90.41 70.49 89.74 C 69.08 88.02 67.87 86.16 67.20 84.02 C 68.11 84.03 69.93 84.05 70.84 84.06 C 72.22 85.06 73.61 86.06 75.14 86.82 C 77.07 84.93 77.24 81.79 79.72 80.27 C 78.86 79.24 76.37 78.79 77.06 76.98 C 77.42 76.48 78.12 75.47 78.47 74.96 C 76.24 72.12 75.84 67.08 71.53 66.68 C 71.51 66.32 71.47 65.60 71.45 65.24 C 68.98 64.62 66.59 63.48 64.02 63.45 C 62.43 64.02 60.95 64.85 59.34 65.34 C 59.55 63.60 59.88 61.85 60.75 60.30 C 60.26 58.29 59.61 56.14 57.68 55.05 C 56.28 54.44 55.75 56.40 55.30 57.32 C 54.80 58.80 56.48 60.31 55.65 61.68 C 53.81 62.99 51.75 63.93 49.82 65.09 C 49.17 64.42 48.52 63.74 47.87 63.07 C 48.60 62.37 49.33 61.67 50.07 60.97 C 47.42 58.22 43.87 56.38 41.98 52.94 C 44.18 51.39 46.68 50.38 49.11 49.27 C 50.43 50.14 51.75 51.01 53.06 51.90 C 54.65 51.10 55.61 49.68 56.34 48.11 C 55.39 46.94 54.43 45.78 53.43 44.65 C 53.55 43.18 53.57 41.68 54.18 40.31 C 53.75 38.43 55.12 37.02 56.11 35.61 C 55.00 31.87 52.20 29.04 48.94 27.05 C 46.19 26.41 46.38 29.79 46.78 31.47 C 46.16 30.31 45.55 29.14 44.93 27.98 C 45.41 27.57 46.38 26.75 46.86 26.34 C 46.43 24.75 45.76 23.25 44.99 21.79 C 44.48 22.28 43.46 23.25 42.96 23.73 C 42.53 23.09 41.68 21.82 41.26 21.18 C 45.14 21.88 42.03 18.36 41.86 16.77 Z" />
<path fill="#0035ad" opacity="1.00" d=" M 98.41 47.65 C 98.85 47.88 99.73 48.34 100.17 48.57 C 101.43 51.41 102.26 54.42 102.91 57.45 C 100.19 54.87 98.81 51.31 98.41 47.65 Z" />
<path fill="#0035ad" opacity="1.00" d=" M 568.03 85.15 C 569.05 84.17 570.06 83.18 571.08 82.19 C 576.78 83.74 576.11 91.54 581.14 93.99 C 583.51 95.20 585.72 96.72 587.23 98.97 C 586.07 100.19 584.92 101.41 583.79 102.64 C 582.59 101.85 581.39 101.07 580.20 100.31 C 578.21 100.96 576.21 101.51 574.21 102.07 C 574.23 105.72 570.58 107.38 569.10 110.32 C 567.81 112.19 569.40 114.60 568.48 116.56 C 566.65 119.25 568.55 122.47 567.43 125.35 C 566.76 126.95 567.74 128.47 568.19 129.98 C 571.27 131.07 574.12 127.23 576.79 129.24 C 576.70 133.77 571.95 136.36 571.64 140.91 C 569.23 143.72 569.41 148.03 566.41 150.32 C 562.46 152.33 558.10 153.35 553.91 154.75 C 551.34 155.60 548.77 154.14 547.06 152.30 C 555.99 146.95 563.75 138.00 563.86 127.10 C 563.70 121.18 564.62 115.29 566.74 109.75 C 567.93 107.15 570.72 105.16 570.52 102.04 C 570.54 99.46 570.76 96.78 569.89 94.31 C 568.94 92.20 566.74 91.21 564.99 89.90 C 564.50 90.26 563.53 90.98 563.05 91.34 C 562.49 89.96 561.43 88.64 561.54 87.10 C 563.03 84.98 565.70 84.94 568.03 85.15 Z" />
<path fill="#0035ad" opacity="1.00" d=" M 686.67 149.13 C 689.73 147.28 693.23 145.39 696.94 146.17 C 702.88 147.32 707.98 151.48 711.20 156.47 C 712.54 156.49 713.90 156.51 715.26 156.52 C 715.73 156.97 716.68 157.86 717.16 158.30 C 717.57 161.99 714.31 163.85 711.56 165.34 C 711.41 168.85 711.61 172.38 711.10 175.87 C 710.31 180.93 714.74 184.95 714.47 190.00 C 712.59 192.17 710.40 194.57 707.60 195.42 C 698.30 195.77 688.97 195.12 679.68 195.73 C 680.84 193.70 681.81 191.56 682.36 189.28 C 684.24 187.41 687.60 186.12 687.34 182.98 C 687.46 181.61 689.12 180.99 689.95 180.02 C 690.22 177.54 690.29 175.02 689.41 172.65 C 687.74 172.61 686.25 172.06 685.07 170.87 C 683.41 169.19 680.85 170.06 679.08 171.06 C 677.94 169.53 676.88 167.94 675.85 166.33 C 671.17 166.93 666.54 167.87 661.96 169.00 C 660.33 168.33 659.99 166.43 659.22 165.05 C 659.78 164.49 660.88 163.35 661.43 162.79 C 660.12 157.22 665.60 154.58 669.86 152.92 C 671.63 153.70 673.51 153.36 675.28 152.74 C 679.02 153.99 683.44 157.29 687.12 154.01 C 686.97 152.38 686.82 150.76 686.67 149.13 Z" />
<path fill="#0035ad" opacity="1.00" d=" M 530.12 155.92 C 534.28 157.92 538.70 156.32 542.66 154.66 C 543.04 154.88 543.80 155.32 544.18 155.54 C 542.92 156.82 541.64 158.08 540.34 159.31 C 538.23 159.63 536.22 160.31 534.23 161.04 C 532.56 159.80 530.83 158.65 529.05 157.59 C 529.32 157.17 529.85 156.33 530.12 155.92 Z" />
</g>
<g id="#000000ff">
<path fill="#000000" opacity="1.00" d=" M 180.55 110.49 C 184.93 108.87 189.32 107.32 193.71 105.73 C 195.54 107.13 197.09 108.86 197.48 111.23 C 169.04 119.47 142.61 134.76 121.27 155.27 L 120.86 155.68 C 119.61 154.21 115.46 153.85 116.31 151.55 C 134.81 133.91 156.58 119.54 180.55 110.49 Z" />
<path fill="#000000" opacity="1.00" d=" M 238.20 148.48 C 238.84 148.49 240.10 148.52 240.74 148.53 C 244.89 151.26 249.04 154.01 253.04 156.97 C 256.27 157.20 258.45 159.95 261.54 160.63 L 261.54 160.63 C 258.65 163.66 255.60 166.54 252.39 169.24 C 252.48 178.68 252.40 188.12 252.45 197.56 C 259.19 199.05 265.49 202.85 269.31 208.68 C 275.40 217.35 274.70 229.95 267.95 238.06 C 264.18 242.95 258.38 245.75 252.51 247.22 C 252.50 249.21 252.54 251.19 252.61 253.18 C 257.43 251.78 262.47 250.62 266.67 247.73 C 271.00 244.91 272.96 239.90 275.76 235.78 C 280.99 227.90 285.62 219.54 292.05 212.55 C 289.74 220.58 287.08 228.60 286.16 236.95 C 285.39 242.50 285.51 248.50 282.45 253.43 C 279.04 258.61 274.03 262.99 267.94 264.58 C 262.82 265.84 257.55 266.25 252.37 267.09 C 252.47 268.39 252.57 269.70 252.68 271.02 C 262.61 271.00 272.54 271.01 282.47 271.01 C 282.47 273.50 282.47 276.00 282.47 278.50 C 272.56 278.68 262.62 278.16 252.74 278.73 C 252.23 280.15 251.94 282.70 254.11 282.67 C 262.49 284.01 272.45 288.57 273.93 297.88 C 274.35 301.35 272.30 304.41 270.54 307.20 L 270.02 308.02 C 268.78 307.27 267.65 306.44 269.10 305.23 C 271.14 303.24 269.46 300.59 268.67 298.47 C 265.10 299.19 263.87 302.99 261.13 304.96 C 260.29 303.52 259.47 302.08 258.67 300.63 C 257.13 301.82 255.99 303.62 254.18 304.39 C 250.63 302.72 252.88 297.37 256.64 298.90 C 256.51 295.19 253.08 293.33 250.95 290.79 C 250.08 291.80 249.24 292.85 248.37 293.87 C 248.09 293.56 247.53 292.94 247.24 292.63 C 248.17 292.07 249.08 291.48 249.97 290.85 C 250.35 289.23 249.15 287.96 248.11 286.93 C 246.58 287.75 246.32 289.53 245.62 290.94 C 244.63 290.64 243.63 290.33 242.65 290.02 C 243.00 287.83 244.43 286.19 246.11 284.86 C 245.42 285.01 244.05 285.33 243.36 285.49 L 242.59 284.31 C 242.21 284.16 241.44 283.87 241.06 283.72 C 240.77 285.56 240.30 287.37 239.58 289.09 C 239.94 289.70 240.64 290.91 241.00 291.51 C 240.53 292.49 240.07 293.47 239.61 294.46 C 238.20 294.91 236.80 295.38 235.41 295.86 C 234.71 294.85 234.00 293.84 233.30 292.84 C 235.32 291.64 235.76 289.62 233.50 288.39 C 234.27 286.96 235.02 285.53 235.80 284.10 C 238.84 283.46 241.89 282.80 244.95 282.22 C 244.99 281.34 245.07 279.58 245.12 278.70 C 239.18 278.33 233.23 278.58 227.29 278.45 C 226.39 275.87 225.13 273.44 224.01 270.95 C 230.99 271.03 237.97 271.07 244.95 270.91 C 244.95 269.66 244.95 268.42 244.95 267.18 C 238.96 266.34 232.85 265.94 227.03 264.20 C 219.82 261.76 214.39 255.50 211.69 248.53 C 212.22 247.92 213.29 246.72 213.82 246.12 C 213.07 245.27 212.32 244.44 211.57 243.60 C 211.27 242.24 211.01 240.88 210.77 239.51 C 209.94 230.30 207.06 221.50 204.87 212.56 C 211.09 220.08 215.96 228.59 221.19 236.80 C 223.81 240.74 225.63 245.63 229.94 248.09 C 234.52 250.94 239.82 252.39 245.10 253.30 C 245.01 251.37 245.07 249.43 244.71 247.53 C 239.06 246.16 233.31 244.14 229.35 239.66 C 220.87 231.34 219.97 216.74 227.31 207.42 C 231.52 201.66 238.29 198.65 245.07 197.16 C 245.08 189.72 244.32 182.31 244.62 174.87 C 240.93 176.82 237.18 178.69 233.24 180.11 C 229.01 181.60 225.65 184.73 221.51 186.43 C 221.63 180.94 222.21 175.47 222.06 169.98 C 221.83 163.26 225.77 157.00 231.28 153.37 C 233.54 151.64 236.59 150.99 238.20 148.48 Z" />
<path fill="#000000" opacity="1.00" d=" M 242.86 296.25 C 243.64 295.59 244.43 294.94 245.21 294.29 C 245.94 295.11 246.68 295.93 247.42 296.75 C 246.92 297.40 245.91 298.71 245.41 299.37 C 244.55 298.33 243.70 297.29 242.86 296.25 Z" />
<path fill="#000000" opacity="1.00" d=" M 439.51 307.49 C 440.53 306.85 441.56 306.23 442.61 305.62 L 442.56 306.23 C 442.37 308.62 442.12 311.00 441.94 313.39 C 441.08 312.11 440.25 310.81 439.42 309.52 C 439.44 309.01 439.48 308.00 439.51 307.49 Z" />
<path fill="#000000" opacity="1.00" d=" M 435.98 310.33 C 437.37 311.94 438.74 313.57 440.13 315.20 C 439.78 317.00 439.30 318.78 438.29 320.34 C 437.25 319.49 435.84 318.97 435.12 317.81 C 435.39 315.31 435.67 312.82 435.98 310.33 Z" />
<path fill="#000000" opacity="1.00" d=" M 274.79 318.09 C 277.16 318.10 279.52 318.10 281.89 318.16 C 281.88 319.77 281.87 321.39 281.81 323.01 L 281.59 324.37 C 279.13 322.49 276.97 320.28 274.79 318.09 Z" />
<path fill="#000000" opacity="1.00" d=" M 434.82 320.42 L 434.97 319.18 C 436.75 320.55 438.61 321.82 440.55 322.96 C 437.33 347.41 428.87 371.09 416.60 392.45 C 415.22 394.76 413.78 397.03 412.55 399.42 C 410.45 398.28 408.35 397.16 406.14 396.27 C 409.20 393.16 411.33 389.33 413.42 385.55 C 424.26 365.30 431.66 343.18 434.82 320.42 Z" />
</g>
<g id="#fae600ff">
<path fill="#fae600" opacity="1.00" d=" M 121.27 155.27 C 142.61 134.76 169.04 119.47 197.48 111.23 L 197.88 111.12 C 199.81 114.16 203.04 116.14 204.58 119.46 C 205.36 121.36 208.09 121.15 208.80 123.11 C 210.76 127.21 213.20 131.05 215.71 134.84 C 215.17 135.41 214.11 136.56 213.57 137.14 C 215.18 136.65 216.89 135.57 218.41 136.94 C 218.96 136.83 220.05 136.60 220.59 136.49 C 225.08 139.18 230.28 141.33 232.78 146.28 C 232.09 146.64 230.71 147.35 230.01 147.71 C 231.95 148.16 234.56 148.13 234.97 150.69 C 236.56 149.12 238.38 147.27 240.74 148.53 C 240.10 148.52 238.84 148.49 238.20 148.48 C 236.59 150.99 233.54 151.64 231.28 153.37 C 225.77 157.00 221.83 163.26 222.06 169.98 C 222.21 175.47 221.63 180.94 221.51 186.43 C 225.65 184.73 229.01 181.60 233.24 180.11 C 237.18 178.69 240.93 176.82 244.62 174.87 C 244.32 182.31 245.08 189.72 245.07 197.16 C 238.29 198.65 231.52 201.66 227.31 207.42 C 219.97 216.74 220.87 231.34 229.35 239.66 C 233.31 244.14 239.06 246.16 244.71 247.53 C 245.07 249.43 245.01 251.37 245.10 253.30 C 239.82 252.39 234.52 250.94 229.94 248.09 C 225.63 245.63 223.81 240.74 221.19 236.80 C 215.96 228.59 211.09 220.08 204.87 212.56 C 207.06 221.50 209.94 230.30 210.77 239.51 C 210.04 239.51 208.58 239.51 207.85 239.50 C 207.37 239.85 206.41 240.55 205.92 240.90 C 205.50 239.11 206.48 237.60 207.22 236.07 C 205.71 235.99 204.21 235.89 202.71 235.77 C 203.48 234.17 204.73 232.90 205.93 231.63 C 204.49 229.73 202.23 230.51 200.60 231.57 C 200.34 232.84 200.78 234.55 199.45 235.35 C 197.88 237.22 195.82 234.88 194.45 233.97 C 194.61 233.29 194.93 231.94 195.09 231.26 C 194.52 230.74 193.40 229.72 192.84 229.20 C 191.66 229.74 190.73 230.55 190.03 231.64 C 187.77 231.70 186.22 230.41 186.01 228.14 C 184.89 227.47 183.78 226.81 182.67 226.13 C 182.77 225.39 182.96 223.91 183.06 223.17 C 181.32 222.17 179.72 220.94 178.32 219.51 C 179.12 219.29 180.73 218.84 181.53 218.62 C 183.05 219.94 184.62 220.08 185.60 218.11 C 185.52 217.31 185.37 215.71 185.29 214.91 C 184.32 215.46 183.50 216.21 182.84 217.16 C 181.59 213.48 177.78 214.98 174.87 214.59 C 175.25 214.06 176.02 212.99 176.40 212.45 C 176.09 212.19 175.46 211.66 175.14 211.39 C 176.68 211.02 177.94 210.21 178.90 208.94 C 177.57 207.06 176.27 204.95 174.01 204.10 C 172.98 202.25 170.74 204.24 169.15 203.90 C 169.23 202.36 169.36 200.82 169.52 199.29 C 167.60 199.47 165.37 199.50 165.79 202.09 C 164.33 201.93 162.78 202.18 161.41 201.53 C 158.41 200.69 159.78 196.88 157.84 194.99 C 155.02 194.97 152.20 194.95 149.38 194.86 C 146.20 193.70 146.28 189.94 145.75 187.17 C 142.27 187.36 139.35 185.35 136.22 184.17 C 134.96 183.75 135.74 182.02 135.44 181.08 C 131.17 178.60 127.82 174.63 126.07 170.02 C 125.01 169.27 123.86 168.67 122.77 168.00 C 121.97 168.02 120.38 168.06 119.59 168.08 C 118.66 166.91 117.85 165.66 117.19 164.33 C 118.66 164.86 120.11 165.44 121.55 166.05 C 123.11 165.33 125.57 165.47 126.26 163.62 C 127.01 161.34 129.07 158.77 126.92 156.60 C 125.03 156.20 123.17 155.66 121.27 155.27 Z" />
<path fill="#fae600" opacity="1.00" d=" M 252.39 169.24 C 255.60 166.54 258.65 163.66 261.54 160.63 C 265.38 161.58 268.92 164.00 273.03 163.51 C 276.00 163.78 280.57 163.22 281.68 166.79 C 283.10 165.62 284.89 165.27 286.66 164.99 C 288.53 166.82 292.73 166.07 292.21 169.73 C 293.19 169.11 294.17 168.49 295.16 167.87 C 296.59 169.46 298.08 171.01 299.76 172.34 C 300.52 174.37 301.07 176.72 299.19 178.37 C 299.71 180.58 299.73 182.86 298.28 184.76 C 299.25 185.92 300.24 187.15 300.44 188.71 C 302.46 190.20 303.86 192.39 306.00 193.71 C 307.41 194.30 308.10 195.63 308.26 197.10 C 309.89 198.50 311.32 200.13 312.09 202.17 C 318.03 204.91 325.41 201.09 330.72 205.44 C 331.20 206.16 331.60 206.91 331.94 207.72 C 330.49 210.27 329.52 213.04 328.40 215.75 C 328.77 216.64 329.49 218.44 329.86 219.33 C 328.91 220.15 327.94 220.95 326.97 221.73 C 327.48 222.23 328.49 223.23 328.99 223.73 C 327.76 230.68 333.64 235.65 338.22 239.86 C 339.76 240.23 341.30 240.65 342.85 241.07 C 344.58 242.79 346.12 244.68 347.58 246.64 C 351.27 245.85 356.37 244.83 358.51 248.97 L 356.82 249.84 C 356.67 249.48 356.36 248.76 356.21 248.40 L 356.64 251.16 C 357.16 250.50 357.70 249.86 358.27 249.24 C 360.55 249.90 362.01 251.76 363.55 253.42 C 365.19 255.24 367.73 255.68 369.73 256.96 C 370.99 258.52 371.68 260.45 372.82 262.11 C 372.36 262.69 371.43 263.84 370.97 264.42 C 366.20 263.61 362.24 260.60 358.18 258.19 C 360.47 262.09 365.37 263.30 368.31 266.60 C 370.25 269.45 371.56 272.68 373.57 275.50 C 377.73 276.10 380.67 280.20 385.11 279.63 C 387.70 279.14 389.38 281.39 391.12 282.87 C 392.41 284.60 394.27 282.61 395.53 281.97 C 397.18 282.09 398.82 282.32 400.46 282.60 C 402.76 284.99 404.92 287.52 407.01 290.11 C 407.01 290.66 407.02 291.75 407.03 292.30 C 408.86 292.53 410.83 292.78 410.48 295.18 C 411.10 294.98 412.34 294.58 412.96 294.37 C 414.01 295.06 415.07 295.76 416.12 296.47 C 415.55 297.10 414.98 297.72 414.41 298.35 C 414.15 299.12 413.62 300.65 413.35 301.42 C 414.17 302.28 414.99 303.15 415.83 304.01 C 416.36 306.06 417.02 308.29 419.03 309.38 C 417.93 306.81 416.82 304.26 415.69 301.72 C 417.07 300.66 417.95 298.26 419.96 298.46 C 422.24 298.10 423.15 300.76 423.32 302.54 C 424.92 301.02 425.33 298.96 424.11 297.07 C 422.98 295.69 425.44 293.91 426.16 295.82 C 430.14 300.13 431.72 306.23 435.98 310.33 C 435.67 312.82 435.39 315.31 435.12 317.81 C 435.07 318.20 434.97 318.99 434.92 319.38 C 434.90 319.64 434.84 320.16 434.82 320.42 C 431.66 343.18 424.26 365.30 413.42 385.55 C 411.33 389.33 409.20 393.16 406.14 396.27 C 407.26 394.54 408.48 392.86 409.25 390.94 C 407.74 390.71 406.24 390.72 404.74 390.97 C 405.13 392.57 405.39 394.22 404.09 395.49 C 402.31 395.31 401.56 397.16 400.60 398.24 C 400.13 397.72 399.67 397.20 399.22 396.68 C 399.93 395.77 400.67 394.89 401.38 393.98 C 399.07 392.53 399.31 389.03 400.28 386.79 C 398.57 383.82 394.79 382.94 392.95 380.08 C 393.18 379.01 393.99 378.19 394.52 377.26 C 394.28 377.22 393.81 377.14 393.58 377.10 C 392.55 378.60 391.41 380.02 390.29 381.46 C 390.25 382.12 390.17 383.44 390.13 384.10 C 388.38 385.11 386.99 383.81 385.62 382.87 C 386.18 384.10 386.88 385.24 387.73 386.31 C 387.12 387.24 386.48 388.15 385.79 389.02 C 383.71 389.42 383.18 386.91 383.65 385.40 C 382.80 384.24 381.03 383.46 380.97 381.92 C 381.62 380.53 382.53 379.27 383.31 377.95 C 381.02 378.40 379.91 376.02 377.86 375.62 C 378.33 376.59 378.70 377.60 378.97 378.65 C 378.06 379.73 377.04 380.72 376.06 381.73 C 374.40 380.09 372.73 378.46 371.31 376.61 C 369.65 374.77 367.43 373.88 365.04 374.95 C 362.58 372.45 358.91 373.13 355.88 371.92 C 352.95 370.88 349.96 369.46 347.95 367.01 C 345.67 364.45 342.77 362.54 340.41 360.07 C 340.31 357.88 342.94 357.34 344.23 356.06 C 342.48 356.48 340.12 357.97 338.97 355.74 C 338.65 353.69 341.24 353.50 342.47 352.73 C 342.15 352.12 341.51 350.90 341.20 350.28 C 339.55 351.07 337.81 351.63 335.97 351.60 C 335.72 352.28 335.22 353.62 334.97 354.29 C 328.13 354.44 321.64 351.22 315.48 348.52 C 311.24 345.72 305.72 345.57 301.84 342.15 C 299.29 339.78 296.86 336.15 298.55 332.60 C 298.35 331.92 297.94 330.56 297.73 329.88 C 297.16 330.46 296.58 331.03 296.01 331.61 C 295.25 331.72 293.72 331.92 292.96 332.03 C 292.38 330.94 292.02 329.76 291.74 328.58 C 290.52 328.46 289.31 328.34 288.10 328.20 C 287.73 324.94 284.22 324.85 281.79 324.04 L 281.81 323.01 C 281.87 321.39 281.88 319.77 281.89 318.16 C 279.52 318.10 277.16 318.10 274.79 318.09 C 273.28 316.20 272.80 313.88 272.86 311.51 C 272.25 311.11 271.03 310.30 270.43 309.90 C 270.45 309.23 270.51 307.88 270.54 307.20 C 272.30 304.41 274.35 301.35 273.93 297.88 C 272.45 288.57 262.49 284.01 254.11 282.67 C 251.94 282.70 252.23 280.15 252.74 278.73 C 262.62 278.16 272.56 278.68 282.47 278.50 C 282.47 276.00 282.47 273.50 282.47 271.01 C 272.54 271.01 262.61 271.00 252.68 271.02 C 252.57 269.70 252.47 268.39 252.37 267.09 C 257.55 266.25 262.82 265.84 267.94 264.58 C 274.03 262.99 279.04 258.61 282.45 253.43 C 285.51 248.50 285.39 242.50 286.16 236.95 C 287.08 228.60 289.74 220.58 292.05 212.55 C 285.62 219.54 280.99 227.90 275.76 235.78 C 272.96 239.90 271.00 244.91 266.67 247.73 C 262.47 250.62 257.43 251.78 252.61 253.18 C 252.54 251.19 252.50 249.21 252.51 247.22 C 258.38 245.75 264.18 242.95 267.95 238.06 C 274.70 229.95 275.40 217.35 269.31 208.68 C 265.49 202.85 259.19 199.05 252.45 197.56 C 252.40 188.12 252.48 178.68 252.39 169.24 Z" />
<path fill="#fae600" opacity="1.00" d=" M 211.30 247.71 L 211.69 248.53 C 214.39 255.50 219.82 261.76 227.03 264.20 C 232.85 265.94 238.96 266.34 244.95 267.18 C 244.95 268.42 244.95 269.66 244.95 270.91 C 237.97 271.07 230.99 271.03 224.01 270.95 L 223.64 270.95 C 222.75 269.10 220.95 268.22 219.12 267.58 C 218.57 266.14 218.13 264.66 217.79 263.16 C 215.96 261.52 214.19 259.80 212.53 257.98 L 213.73 256.15 C 213.12 256.00 211.90 255.71 211.30 255.57 C 212.90 253.14 211.50 250.31 211.30 247.71 Z" />
<path fill="#fae600" opacity="1.00" d=" M 227.29 278.45 C 233.23 278.58 239.18 278.33 245.12 278.70 C 245.07 279.58 244.99 281.34 244.95 282.22 C 241.89 282.80 238.84 283.46 235.80 284.10 C 235.38 281.94 233.35 281.10 231.65 280.15 C 230.08 279.92 228.41 279.69 227.29 278.45 Z" />
</g>
<g id="#ed4135ff">
<path fill="#ed4135" opacity="1.00" d=" M 679.68 195.73 C 688.97 195.12 698.30 195.77 707.60 195.42 C 707.56 197.75 709.88 199.21 712.00 198.10 C 714.68 196.39 716.45 199.41 718.02 201.09 C 721.00 203.96 725.65 201.99 728.85 204.41 C 731.88 206.11 733.38 209.30 734.10 212.56 C 733.47 214.22 732.75 215.84 732.01 217.45 C 732.29 218.23 732.59 219.01 732.89 219.79 C 734.54 221.03 736.20 222.27 737.86 223.53 C 739.14 223.49 740.44 223.45 741.75 223.40 C 742.83 224.53 743.87 225.73 744.41 227.24 C 745.02 227.15 746.24 226.96 746.86 226.86 C 748.37 228.28 749.95 230.95 747.42 232.32 C 744.07 234.15 740.50 235.86 738.01 238.86 C 737.77 243.47 740.70 248.07 739.10 252.65 C 737.07 254.24 735.05 255.91 732.83 257.21 C 731.46 256.88 729.93 255.22 728.69 256.72 C 727.63 257.60 726.34 258.44 724.90 257.91 C 721.53 256.83 720.11 253.34 718.01 250.83 C 718.00 249.60 717.99 248.38 718.00 247.16 C 714.61 246.27 711.20 245.34 708.03 243.84 C 708.42 241.78 709.00 239.69 708.61 237.59 C 705.32 237.32 702.00 236.62 698.73 237.36 C 693.08 235.38 686.48 237.35 681.45 233.64 C 679.13 231.58 677.88 228.42 674.90 227.12 C 672.35 226.16 671.88 223.44 671.93 221.04 C 669.89 218.44 667.47 216.17 665.11 213.86 C 667.49 211.54 666.24 208.70 665.06 206.16 C 663.04 205.60 660.58 205.64 659.12 203.89 C 657.77 202.29 656.84 200.40 655.74 198.64 C 657.87 197.07 660.63 197.47 663.10 197.00 C 665.06 199.16 667.62 200.69 670.64 200.61 C 672.85 197.75 676.55 197.14 679.68 195.73 Z" />
<path fill="#ed4135" opacity="1.00" d=" M 814.28 238.00 C 815.22 237.05 816.16 236.11 817.11 235.17 C 817.75 235.31 819.03 235.58 819.67 235.72 C 821.63 238.01 823.28 240.58 825.47 242.69 C 824.39 243.78 823.30 244.85 822.20 245.91 C 819.54 243.29 816.91 240.65 814.28 238.00 Z" />
<path fill="#ed4135" opacity="1.00" d=" M 848.48 296.10 C 849.55 294.66 850.50 293.08 851.91 291.93 C 853.16 291.92 854.61 293.25 853.85 294.57 C 852.11 296.74 850.14 298.73 848.61 301.07 C 851.07 306.41 853.73 311.91 858.00 316.07 C 860.01 317.03 862.29 317.32 864.43 317.99 C 867.05 316.50 869.88 315.25 872.98 315.44 C 876.40 315.71 878.88 313.10 881.32 311.14 C 883.02 312.08 884.63 313.21 886.00 314.62 L 886.00 315.07 C 883.88 317.15 882.96 319.93 882.44 322.78 C 882.91 323.38 883.83 324.59 884.30 325.19 C 883.24 327.35 881.22 329.36 881.68 331.96 C 882.33 335.74 880.74 339.33 880.52 343.05 C 880.79 346.56 881.96 349.91 882.77 353.32 C 881.31 354.26 879.89 355.51 878.04 355.36 C 874.51 355.31 871.81 358.42 868.17 357.67 C 867.22 359.00 866.27 360.33 865.31 361.65 C 861.55 361.47 857.79 361.00 854.04 361.33 C 850.54 360.26 848.06 357.81 846.48 354.58 C 846.75 353.03 847.00 351.49 847.26 349.95 C 844.33 349.60 841.45 349.05 838.63 348.22 C 835.41 348.69 832.17 349.05 828.92 349.00 C 827.65 349.12 826.62 348.68 825.83 347.69 C 827.97 344.09 832.53 341.69 832.25 336.93 C 830.17 334.35 827.40 332.23 826.14 329.10 C 825.24 326.94 824.24 324.82 823.00 322.84 C 823.64 319.77 824.80 316.56 823.70 313.44 C 822.90 308.36 817.08 306.17 816.59 300.89 C 818.75 298.85 821.69 297.16 824.76 298.18 C 828.65 299.89 831.15 304.20 835.76 304.28 C 836.24 302.61 836.28 300.73 837.31 299.27 C 838.43 299.22 839.56 299.21 840.70 299.24 C 843.17 297.91 845.76 296.82 848.48 296.10 Z" />
<path fill="#ed4135" opacity="1.00" d=" M 442.56 306.23 C 443.91 307.29 445.20 308.48 446.22 309.88 C 446.63 310.20 447.46 310.82 447.87 311.14 C 449.24 313.69 451.54 315.61 454.00 317.08 C 456.71 318.25 459.75 318.53 462.29 320.12 C 460.95 321.29 459.58 322.44 458.19 323.56 C 458.84 323.53 460.12 323.49 460.76 323.46 C 461.63 324.35 462.50 325.25 463.38 326.15 C 462.92 327.94 462.95 329.72 464.46 331.01 C 464.46 331.76 464.45 333.27 464.45 334.03 C 465.23 333.62 466.02 333.21 466.81 332.81 C 467.14 331.58 466.95 329.57 468.74 329.53 C 470.43 329.65 472.11 329.90 473.80 330.08 C 474.67 330.97 475.54 331.86 476.42 332.76 C 476.99 332.89 478.14 333.16 478.72 333.29 C 481.24 337.61 484.84 341.70 489.75 343.25 C 492.75 345.74 494.94 349.17 498.48 351.08 C 503.40 352.71 507.47 356.11 512.31 357.93 C 513.81 358.93 515.50 358.19 517.10 357.92 C 519.45 358.60 521.65 359.80 523.75 361.06 C 523.27 361.66 522.31 362.85 521.83 363.44 C 519.96 363.85 518.37 362.34 516.72 361.76 C 520.20 367.23 526.02 372.43 533.04 370.79 C 534.57 372.62 536.03 374.52 537.28 376.56 C 540.76 377.76 543.77 380.15 546.10 382.96 C 547.17 384.21 546.80 385.90 546.01 387.19 C 547.51 389.21 549.34 390.95 551.24 392.60 C 506.37 392.33 461.48 392.64 416.60 392.45 C 428.87 371.09 437.33 347.41 440.55 322.96 C 442.86 324.30 444.91 326.01 446.69 328.01 C 446.83 327.73 447.13 327.17 447.27 326.88 C 446.95 324.64 446.14 322.56 443.78 321.80 C 444.15 321.32 444.89 320.36 445.26 319.88 C 444.69 319.99 443.56 320.21 443.00 320.32 C 442.37 318.07 441.69 315.77 441.94 313.39 C 442.12 311.00 442.37 308.62 442.56 306.23 Z" />
</g>
<g id="#009543ff">
<path fill="#009543" opacity="1.00" d=" M 412.55 399.42 C 413.78 397.03 415.22 394.76 416.60 392.45 C 461.48 392.64 506.37 392.33 551.24 392.60 C 552.45 392.93 553.12 394.11 553.99 394.94 C 556.40 397.57 559.45 399.53 561.89 402.14 C 563.93 404.21 563.96 407.74 566.56 409.32 C 570.25 411.46 574.75 413.48 576.33 417.77 C 580.52 417.57 581.51 422.29 585.36 423.06 C 585.44 421.47 585.70 419.90 586.76 418.64 C 589.83 421.88 594.04 423.73 596.92 427.17 C 595.61 428.19 594.02 428.63 592.44 429.01 C 591.40 430.92 590.17 432.75 587.78 431.36 C 588.45 431.80 589.14 432.23 589.83 432.68 C 592.61 431.30 595.93 430.91 598.86 432.11 C 600.66 432.57 602.54 434.00 604.31 432.57 C 605.02 434.27 604.55 436.11 604.45 437.89 C 610.47 438.28 615.87 441.26 621.86 441.80 C 625.89 441.69 629.04 444.71 631.48 447.58 C 634.84 452.01 641.03 453.88 643.37 459.12 C 643.15 462.54 643.85 466.60 641.54 469.44 C 642.08 469.54 643.16 469.74 643.70 469.84 C 647.86 474.31 650.72 479.68 654.40 484.52 C 656.56 486.36 658.93 487.97 660.88 490.08 C 659.50 491.64 657.98 491.73 656.33 490.37 C 656.05 493.11 659.65 495.18 658.11 497.86 C 656.37 500.83 656.31 504.28 655.49 507.53 C 654.64 509.62 652.33 513.47 649.84 510.99 C 649.21 511.99 648.58 512.99 647.96 514.00 C 646.92 513.30 645.91 512.59 644.85 511.96 C 644.46 513.31 644.67 514.58 645.49 515.78 C 643.04 517.98 641.04 520.64 638.63 522.89 C 635.94 524.55 632.88 522.79 630.29 521.83 C 631.47 519.65 633.86 519.22 636.05 518.65 C 633.94 518.55 631.84 518.40 629.79 517.98 C 630.56 516.96 631.34 515.95 632.14 514.95 C 630.27 512.67 627.85 510.64 627.16 507.64 C 626.47 507.71 625.11 507.86 624.43 507.93 C 625.06 509.30 625.72 510.67 626.41 512.03 C 625.78 512.45 624.51 513.28 623.88 513.69 C 623.47 513.21 622.65 512.25 622.23 511.77 C 621.61 509.40 620.35 507.29 619.45 505.03 C 618.83 506.16 618.21 507.30 617.58 508.43 C 619.29 510.04 617.42 511.23 616.31 512.42 C 616.35 512.93 616.42 513.93 616.45 514.43 C 619.61 515.14 620.54 518.50 622.06 520.93 C 619.13 522.92 617.50 518.76 614.76 518.46 C 612.47 519.19 611.23 521.66 608.96 522.44 C 607.38 522.92 606.03 521.80 604.72 521.16 C 601.37 521.51 598.30 520.21 597.01 516.94 C 598.53 515.24 600.10 513.59 601.70 511.97 C 597.97 513.12 591.84 511.80 591.74 507.04 C 591.30 507.30 590.41 507.82 589.97 508.09 C 588.86 507.04 587.78 505.91 587.49 504.37 C 583.63 502.85 580.57 499.95 578.07 496.72 C 577.04 499.92 573.75 500.93 570.78 501.49 C 568.37 498.88 565.39 496.96 562.57 494.86 C 561.67 492.75 565.11 491.24 563.80 489.29 C 561.56 489.13 559.33 489.12 557.10 489.03 C 556.72 488.44 555.96 487.26 555.59 486.67 C 554.99 486.84 553.80 487.17 553.21 487.34 C 552.72 486.94 551.76 486.15 551.27 485.75 C 551.55 487.13 550.91 488.29 550.23 489.42 C 550.79 490.36 552.96 491.54 551.57 492.71 C 550.48 494.48 548.10 492.90 546.53 493.04 C 546.95 494.34 547.39 495.65 547.84 496.96 C 546.66 498.56 545.10 499.38 543.39 497.96 C 543.48 499.89 543.56 501.84 543.69 503.77 C 543.30 504.09 542.51 504.73 542.12 505.05 C 540.74 504.31 539.35 503.59 537.97 502.89 C 537.71 502.02 537.46 501.15 537.22 500.29 C 537.50 500.04 538.06 499.54 538.35 499.29 C 538.07 496.94 538.43 494.60 538.42 492.26 C 539.11 491.51 539.81 490.77 540.52 490.03 C 538.77 490.00 537.03 490.17 535.36 490.66 C 534.13 489.47 530.61 488.63 532.14 486.47 C 533.96 485.69 535.90 485.24 537.80 484.69 L 538.14 485.83 C 539.86 485.35 541.79 485.21 543.18 483.94 C 540.72 483.17 538.03 482.86 536.05 481.07 C 536.56 479.78 537.08 478.49 537.62 477.21 C 536.76 476.43 535.89 475.65 535.04 474.88 C 534.64 475.14 533.82 475.66 533.42 475.93 C 533.04 475.48 532.28 474.59 531.90 474.15 C 529.67 474.54 527.44 474.12 525.24 473.83 C 526.12 475.48 526.97 477.16 527.73 478.89 C 526.96 479.94 526.21 480.99 525.47 482.05 C 524.68 481.31 523.88 480.59 523.11 479.86 C 523.60 482.89 521.78 484.87 519.16 485.99 C 518.34 485.07 517.53 484.17 516.73 483.26 C 518.07 482.27 520.23 481.69 519.96 479.57 C 519.28 479.59 517.92 479.63 517.24 479.66 C 516.34 478.30 514.94 476.97 515.31 475.19 C 514.89 474.90 514.04 474.32 513.62 474.03 C 514.29 472.68 514.83 471.28 515.37 469.88 C 513.81 470.31 512.28 470.82 510.79 471.44 C 510.36 470.99 509.50 470.10 509.06 469.65 C 510.71 472.74 506.92 473.16 504.86 473.81 C 504.31 473.35 503.20 472.45 502.65 472.00 C 502.00 472.01 500.69 472.04 500.04 472.06 C 499.54 471.14 499.06 470.22 498.58 469.30 C 497.07 468.85 495.57 468.40 494.07 467.92 C 494.19 467.24 494.43 465.88 494.55 465.20 C 492.03 461.60 488.00 460.23 483.98 459.10 C 483.45 457.68 483.35 455.92 481.98 455.01 C 479.28 454.47 478.06 457.55 476.19 458.89 C 474.98 457.71 473.79 456.55 472.59 455.39 C 473.67 453.91 474.44 452.13 475.92 450.98 C 478.06 451.01 480.12 451.71 482.21 452.16 C 481.93 450.92 481.67 449.70 481.37 448.48 C 481.58 447.94 482.00 446.86 482.20 446.32 C 480.52 445.89 478.86 445.41 477.23 444.83 C 478.52 442.06 481.31 442.72 483.65 443.63 C 483.07 442.02 482.52 440.43 481.98 438.82 C 481.54 439.20 480.65 439.96 480.21 440.33 C 479.37 439.19 478.69 437.96 478.57 436.53 C 477.90 435.35 477.21 434.17 476.67 432.94 C 477.01 431.33 478.25 430.15 479.14 428.84 C 477.44 427.02 475.48 425.49 473.59 423.88 C 471.78 424.17 470.02 424.62 468.23 424.96 C 467.16 423.94 466.30 422.74 465.40 421.58 C 465.43 420.91 465.49 419.56 465.52 418.89 C 463.43 418.53 461.99 417.08 461.65 415.00 C 460.54 414.99 459.43 414.99 458.33 415.00 C 457.50 415.68 456.68 416.36 455.85 417.04 C 456.34 419.54 458.72 422.61 455.95 424.60 C 454.44 423.05 452.84 420.92 450.79 423.07 C 451.31 423.59 452.35 424.64 452.87 425.16 C 451.86 426.29 450.84 427.41 449.82 428.54 C 446.96 426.61 444.51 424.21 442.55 421.38 C 440.08 420.03 436.26 420.85 434.60 418.07 C 434.81 417.66 435.24 416.83 435.46 416.42 C 433.57 415.35 432.90 413.28 431.71 411.63 C 428.47 409.13 424.79 407.24 420.80 406.31 C 419.76 407.06 418.73 407.81 417.70 408.57 C 417.03 408.40 415.69 408.06 415.02 407.89 C 414.60 408.20 413.76 408.82 413.34 409.13 C 411.55 407.10 407.67 404.66 410.67 401.89 C 412.43 402.68 414.23 403.42 416.05 404.12 C 414.87 402.56 413.62 401.05 412.55 399.42 M 609.64 464.84 C 606.78 463.92 603.95 462.94 601.10 462.03 C 598.68 458.51 593.95 458.71 590.22 457.77 C 591.42 460.11 594.15 460.57 596.32 461.61 C 593.60 463.37 589.36 461.22 587.89 465.04 C 591.17 467.02 595.15 464.45 598.64 466.15 C 599.24 468.10 600.22 469.91 601.74 471.30 C 602.09 470.13 602.43 468.96 602.76 467.79 C 604.75 468.16 606.91 468.32 608.60 469.57 C 609.76 470.91 610.58 472.52 611.63 473.97 C 612.95 472.22 614.65 470.90 616.90 470.70 C 617.41 471.72 617.92 472.75 618.43 473.80 C 619.28 474.31 620.14 474.83 621.01 475.35 C 621.50 474.04 621.94 472.71 622.32 471.37 C 625.72 472.48 629.63 473.29 632.20 470.07 C 631.05 468.63 629.71 467.52 627.80 468.28 C 624.01 469.15 620.78 466.59 617.47 465.24 C 618.02 463.91 618.59 462.59 619.13 461.26 C 617.69 459.96 616.94 457.44 615.03 456.98 C 613.65 458.28 613.85 460.48 613.27 462.20 C 610.59 460.50 607.76 458.95 605.58 456.60 C 604.87 460.01 607.94 462.30 609.64 464.84 Z" />
<path fill="#009543" opacity="1.00" d=" M 466.89 426.63 C 468.12 426.82 469.22 427.31 470.22 428.10 C 469.53 430.64 468.29 433.74 465.28 434.05 C 461.28 431.36 468.69 430.02 466.89 426.63 Z" />
<path fill="#009543" opacity="1.00" d=" M 438.01 429.28 C 439.12 427.11 441.61 428.19 443.45 428.55 C 444.68 427.61 446.21 427.90 447.64 428.07 C 449.40 429.33 451.33 430.31 453.21 431.39 C 451.38 433.78 448.58 434.91 445.80 435.79 C 445.28 435.35 444.24 434.47 443.72 434.02 C 444.26 433.47 445.36 432.37 445.91 431.82 C 445.30 431.32 444.08 430.32 443.47 429.83 C 443.77 431.21 443.34 432.34 442.18 433.21 C 440.78 432.06 437.83 431.48 438.01 429.28 Z" />
<path fill="#009543" opacity="1.00" d=" M 453.06 433.13 C 455.09 431.20 458.31 433.57 459.87 435.24 C 461.38 432.79 463.18 435.15 464.73 436.15 C 463.42 437.40 462.04 438.63 460.23 439.06 C 459.80 439.59 458.94 440.66 458.51 441.20 C 459.55 442.04 460.59 442.91 461.62 443.79 C 461.56 444.60 461.45 446.22 461.39 447.03 C 459.83 448.37 459.80 450.30 461.23 451.75 C 462.91 452.94 460.20 454.12 459.36 452.97 C 457.62 452.02 457.16 450.02 456.63 448.29 C 456.08 447.84 454.99 446.94 454.45 446.49 C 455.55 445.25 456.69 444.04 457.87 442.87 C 453.32 441.99 453.51 436.72 453.06 433.13 Z" />
<path fill="#009543" opacity="1.00" d=" M 528.09 493.75 C 528.31 492.36 526.70 489.71 528.99 489.53 C 531.10 491.55 533.42 493.36 536.18 494.42 C 535.18 495.37 534.13 496.44 532.66 496.54 C 530.96 495.91 529.55 494.77 528.09 493.75 Z" />
<path fill="#009543" opacity="1.00" d=" M 611.95 524.52 C 614.34 519.31 623.67 522.44 622.06 528.07 C 621.69 531.04 618.39 531.09 616.27 532.22 C 617.09 532.77 618.73 533.86 619.55 534.41 C 618.35 536.00 617.12 537.57 615.83 539.08 C 613.99 538.33 612.02 538.21 610.07 538.17 C 607.24 538.23 607.32 534.76 606.31 532.95 C 606.91 532.39 608.11 531.27 608.71 530.71 C 608.47 529.01 607.70 527.50 607.04 525.96 C 607.15 524.60 608.61 523.82 609.29 522.74 C 610.17 523.33 611.06 523.92 611.95 524.52 M 613.48 532.28 C 612.85 533.47 614.80 534.79 615.77 533.93 C 616.39 532.73 614.42 531.45 613.48 532.28 Z" />
<path fill="#009543" opacity="1.00" d=" M 743.04 553.45 C 743.49 553.18 744.37 552.65 744.81 552.38 C 749.38 552.89 752.52 557.48 757.32 556.94 C 757.86 557.89 758.39 558.85 758.93 559.82 C 762.15 562.66 765.81 565.38 767.66 569.38 C 768.32 572.33 766.99 575.37 765.60 577.93 C 769.04 580.80 766.62 584.84 765.09 588.00 L 763.52 588.00 C 761.36 587.74 759.16 587.62 757.09 586.96 C 755.06 585.60 758.35 584.93 759.01 583.96 C 758.41 583.09 757.99 582.13 757.39 581.31 C 756.17 582.30 754.94 583.26 753.71 584.22 C 750.91 583.22 748.08 582.25 745.14 581.78 C 743.96 580.60 742.81 579.41 741.66 578.22 C 740.86 578.23 739.26 578.24 738.46 578.25 C 739.07 574.79 740.36 571.12 738.17 567.94 C 739.81 564.64 738.08 561.27 737.43 557.98 C 738.54 556.06 740.09 554.45 741.44 552.71 C 741.84 552.89 742.64 553.26 743.04 553.45 M 759.41 574.32 C 760.25 575.00 761.10 575.69 761.95 576.38 C 762.26 578.50 765.20 576.20 763.67 575.03 L 764.47 574.58 C 763.09 573.40 761.70 572.24 760.32 571.08 C 760.85 569.74 761.39 568.41 761.88 567.06 C 759.72 568.86 759.44 571.69 759.41 574.32 M 759.27 585.13 C 761.63 584.91 764.52 584.02 765.34 581.51 C 762.97 582.04 760.79 583.20 759.27 585.13 Z" />
</g>
<g id="#004a5637">
<path fill="#004a56" opacity="0.22" d=" M 613.48 532.28 C 614.42 531.45 616.39 532.73 615.77 533.93 C 614.80 534.79 612.85 533.47 613.48 532.28 Z" />
<path fill="#004a56" opacity="0.22" d=" M 761.95 576.38 C 762.38 576.05 763.24 575.37 763.67 575.03 C 765.20 576.20 762.26 578.50 761.95 576.38 Z" />
</g>
</svg>
