<?xml version="1.0" encoding="UTF-8" ?>
<!DOCTYPE svg PUBLIC "-//W3C//DTD SVG 1.1//EN" "http://www.w3.org/Graphics/SVG/1.1/DTD/svg11.dtd">
<svg width="1000pt" height="801pt" viewBox="0 0 1000 801" version="1.1" xmlns="http://www.w3.org/2000/svg">
<g id="#008751ff">
<path fill="#008751" opacity="1.00" d=" M 236.59 0.00 L 238.39 0.00 C 255.63 6.32 272.73 13.06 289.78 19.89 C 291.80 18.77 293.74 17.39 296.02 16.84 C 301.01 16.87 305.83 19.13 309.58 22.35 C 316.06 28.21 322.41 34.23 328.17 40.81 C 329.98 43.03 332.60 44.38 334.43 46.56 C 338.88 53.17 341.30 61.18 347.19 66.78 C 350.23 69.77 353.42 73.50 358.08 73.50 C 361.62 73.55 365.76 74.19 368.68 71.70 C 371.90 69.32 373.97 65.76 377.01 63.22 C 382.40 61.93 388.17 66.08 393.40 63.27 C 403.33 57.63 413.06 51.62 422.98 45.95 C 425.65 44.33 428.83 43.79 431.90 44.33 C 437.91 45.25 443.96 45.96 449.98 46.92 C 454.04 47.45 456.67 50.93 459.94 53.02 C 462.51 54.98 466.18 55.05 468.29 57.67 C 471.48 61.14 475.02 64.28 478.79 67.12 C 483.12 65.24 488.15 66.15 491.63 69.30 C 495.94 71.91 496.72 78.27 501.99 79.53 C 509.01 81.56 516.02 83.68 523.10 85.51 C 531.70 86.79 540.37 87.58 549.00 88.58 C 552.38 89.07 555.60 87.62 558.94 87.48 C 565.33 87.74 571.64 89.26 578.05 89.26 C 582.33 86.61 584.85 81.88 588.38 78.36 C 592.42 74.03 595.66 68.53 601.35 66.18 C 601.92 63.78 602.96 61.41 605.37 60.37 C 611.51 57.19 617.26 53.13 623.82 50.83 C 637.80 47.43 652.08 45.22 665.97 41.43 C 670.25 42.24 674.60 41.16 678.90 41.84 C 693.50 44.12 708.31 42.71 723.01 42.95 C 727.40 42.79 731.86 42.86 736.10 44.17 C 746.05 46.93 756.51 48.34 765.73 53.27 C 770.38 55.89 775.05 58.53 779.34 61.73 C 782.99 64.49 788.18 65.55 792.45 63.62 C 795.30 62.22 798.38 64.05 800.45 66.01 C 801.24 65.69 802.04 65.37 802.85 65.06 C 803.22 65.42 803.97 66.13 804.34 66.49 C 808.62 66.40 812.83 67.15 817.05 67.76 C 819.38 67.16 818.55 63.82 819.24 62.04 C 822.27 61.69 824.34 59.01 823.00 56.07 C 824.00 52.04 828.12 50.83 830.45 47.92 C 831.62 48.61 832.79 49.30 834.00 49.98 C 834.32 49.31 834.95 47.98 835.27 47.31 C 838.56 46.58 840.79 44.08 842.30 41.21 C 842.75 41.54 843.65 42.19 844.10 42.52 C 843.75 40.79 844.56 39.64 846.08 39.00 C 847.41 37.56 848.73 36.12 850.10 34.71 C 849.66 34.43 848.76 33.87 848.32 33.59 C 848.29 33.19 848.24 32.41 848.22 32.02 C 849.58 33.47 851.38 32.69 853.04 32.41 C 857.79 31.70 861.77 28.79 866.25 27.21 C 866.70 27.67 867.60 28.58 868.05 29.03 C 869.29 28.96 870.55 28.89 871.81 28.81 C 872.36 28.19 872.91 27.58 873.48 26.96 C 873.57 27.59 873.76 28.85 873.86 29.48 C 875.96 28.79 878.33 28.55 880.18 27.23 C 880.60 25.80 880.88 24.28 882.09 23.25 C 881.99 19.92 885.25 18.32 887.39 16.39 C 887.53 15.82 887.82 14.69 887.97 14.12 C 895.82 13.65 903.67 14.50 911.53 14.60 C 922.94 30.17 934.26 45.81 945.65 61.40 C 947.36 63.80 949.54 66.05 950.09 69.06 C 952.55 80.63 954.97 92.21 957.47 103.78 C 959.15 110.36 959.54 117.21 959.37 123.98 C 959.18 125.22 960.19 126.35 961.42 126.50 C 970.03 127.70 979.33 125.53 987.38 129.71 C 987.30 130.48 987.15 132.03 987.07 132.80 C 988.37 133.62 989.69 134.44 991.02 135.25 C 990.82 135.63 990.43 136.38 990.23 136.76 C 992.43 137.94 994.52 139.41 995.73 141.67 C 997.14 141.34 998.56 141.02 1000.00 140.70 L 1000.00 142.43 C 996.59 145.84 996.80 150.88 994.70 154.97 C 995.37 157.23 996.80 159.47 996.37 161.91 C 995.63 165.66 994.54 169.33 993.80 173.07 C 993.30 176.27 990.81 178.53 989.22 181.18 C 990.99 182.94 993.65 183.69 995.00 185.94 C 997.85 189.71 996.33 195.16 993.60 198.57 C 990.54 200.19 987.02 201.00 984.49 203.51 C 981.35 206.53 976.45 206.34 973.37 209.41 C 970.98 211.37 969.14 214.24 966.02 215.10 C 962.11 215.93 960.18 220.48 956.01 220.59 C 951.60 219.76 947.67 216.63 943.04 217.05 C 937.48 220.42 933.29 225.83 930.74 231.76 C 929.62 234.92 925.82 235.57 924.04 238.17 C 923.16 240.63 924.36 243.54 922.80 245.79 C 918.04 252.99 912.75 259.82 908.05 267.05 C 901.88 277.80 902.21 290.63 898.35 302.14 C 897.96 305.06 899.20 308.43 896.88 310.85 C 893.36 315.88 886.78 315.06 881.53 316.47 C 880.00 318.82 879.98 321.48 880.97 324.04 C 882.59 327.72 877.70 330.38 878.64 334.04 C 879.76 335.99 881.54 337.47 882.63 339.45 C 882.72 341.40 881.49 343.13 881.05 345.00 C 879.38 350.27 880.42 356.34 877.10 361.08 C 872.58 364.70 866.20 363.53 861.25 366.28 C 858.49 367.32 857.04 370.01 854.95 371.90 C 852.64 373.41 850.07 374.50 847.79 376.06 C 850.12 376.77 852.35 378.35 852.34 381.07 C 854.09 389.04 844.89 394.23 846.14 402.09 C 846.80 407.06 845.62 412.00 845.14 416.94 C 844.69 419.91 844.59 423.18 842.77 425.72 C 841.46 427.84 838.57 426.59 836.64 427.55 C 834.99 430.21 834.72 434.00 831.65 435.54 C 828.86 437.08 826.14 438.90 823.05 439.77 C 820.97 439.44 819.07 438.41 816.97 438.21 C 814.28 439.39 811.50 440.69 808.54 439.54 C 809.98 442.41 811.12 445.47 811.31 448.72 C 808.78 450.21 807.19 452.72 805.06 454.64 C 802.47 455.10 798.87 453.54 797.31 456.43 C 794.23 461.57 796.94 467.61 797.25 473.08 C 796.72 476.80 792.67 479.09 792.70 483.00 C 792.37 486.34 794.01 489.59 793.63 492.88 C 789.18 498.08 785.06 503.57 781.36 509.33 C 779.85 511.97 777.92 514.81 778.45 518.00 C 778.55 520.30 779.71 522.59 779.19 524.87 C 775.68 529.41 771.70 533.58 767.47 537.45 C 762.80 541.59 760.61 547.81 755.52 551.57 C 759.52 552.13 760.89 556.17 763.17 558.89 C 764.93 561.36 768.09 563.45 767.28 566.91 C 762.09 565.22 758.24 569.95 755.59 573.68 C 754.44 573.79 753.30 573.91 752.18 574.04 C 748.57 578.65 742.37 580.71 739.48 586.01 C 737.87 589.07 742.46 590.96 741.74 594.04 C 741.20 597.77 739.63 601.35 737.55 604.48 C 735.59 607.82 730.42 606.10 728.66 609.62 C 726.90 612.48 728.05 616.93 724.83 618.82 C 722.09 620.86 718.51 619.60 715.43 620.50 C 711.29 619.63 706.91 621.72 702.97 620.12 C 699.29 614.56 699.01 607.50 699.01 601.03 C 699.04 597.95 697.70 594.54 694.74 593.21 C 691.45 591.63 686.95 592.59 684.57 589.34 C 681.63 586.00 682.46 580.86 679.60 577.53 C 676.14 575.12 671.87 574.30 668.20 572.29 C 668.10 572.74 667.92 573.66 667.83 574.11 C 665.56 573.08 663.17 572.28 661.08 570.94 C 659.43 569.74 659.84 567.40 659.28 565.69 C 657.33 569.70 657.14 574.19 656.81 578.56 C 654.36 580.26 653.16 582.92 653.14 585.86 C 645.41 585.81 637.66 586.47 629.95 585.99 C 624.37 585.26 623.96 579.00 623.10 574.64 C 615.39 580.33 608.52 587.06 600.95 592.91 C 598.71 594.82 595.92 593.16 593.65 592.31 C 590.17 599.20 589.13 607.02 586.06 614.06 C 584.11 616.31 580.47 614.61 578.04 616.04 C 576.66 617.69 575.85 619.79 574.25 621.26 C 571.95 622.82 569.17 623.44 566.82 624.90 C 565.15 626.66 564.53 629.20 562.71 630.82 C 560.86 632.01 558.48 631.71 556.52 632.58 C 554.42 635.52 553.53 639.27 550.74 641.71 C 546.32 645.66 541.29 648.91 537.21 653.25 C 533.87 656.44 531.22 660.28 527.89 663.49 C 527.62 664.79 527.37 666.11 527.12 667.44 C 525.19 667.37 523.26 667.14 521.34 667.28 C 519.23 668.63 517.54 670.52 515.61 672.10 C 516.37 673.42 517.14 674.74 517.93 676.07 C 517.18 678.56 515.70 680.68 513.72 682.34 C 515.81 685.45 520.07 687.17 520.64 691.18 C 521.11 694.06 518.32 695.78 516.87 697.86 C 515.35 699.19 516.15 701.31 516.04 703.06 C 516.48 706.29 514.29 708.98 513.61 712.00 C 514.50 717.78 513.26 723.76 511.22 729.15 C 505.59 730.86 505.27 737.20 502.41 741.43 C 500.21 744.66 498.73 748.48 495.59 751.00 C 495.89 752.41 496.19 753.83 496.51 755.26 C 495.57 756.20 494.64 757.16 493.72 758.12 C 493.25 757.76 492.30 757.04 491.82 756.68 C 490.31 758.86 490.00 761.43 490.07 764.03 C 490.14 766.02 487.80 767.08 486.07 766.65 C 482.46 766.83 480.82 762.79 477.17 762.87 C 477.05 761.70 476.93 760.55 476.82 759.40 C 472.32 759.40 469.36 755.43 468.34 751.44 C 468.11 752.93 467.87 754.42 467.63 755.92 C 470.44 757.98 471.74 761.23 473.14 764.30 C 472.76 765.43 472.40 766.59 472.04 767.75 C 473.02 768.22 474.01 768.70 475.00 769.19 C 475.00 770.78 475.45 772.73 473.80 773.71 C 471.65 775.26 470.80 778.09 468.74 779.60 C 461.58 780.27 454.33 778.55 447.16 779.23 C 440.54 781.61 433.23 780.11 426.62 782.53 C 423.48 783.74 419.87 784.62 416.63 783.25 C 413.23 781.75 409.46 781.78 405.81 781.67 C 404.29 779.67 404.34 776.99 406.06 775.15 C 404.10 777.28 401.40 778.36 398.83 779.53 C 394.38 777.96 389.72 777.12 385.37 775.28 C 383.23 776.59 387.06 777.68 387.99 778.31 C 390.35 778.69 389.69 780.99 389.66 782.78 C 393.14 780.97 396.65 782.00 399.95 783.57 C 403.78 783.31 407.59 781.68 411.44 782.92 C 410.63 784.29 410.14 785.98 408.86 787.02 C 402.01 787.34 395.13 790.96 388.37 787.96 C 386.45 792.47 380.99 792.72 376.82 793.45 C 374.76 793.78 371.30 793.77 371.16 791.00 C 372.18 788.36 374.33 786.37 376.18 784.30 C 372.84 787.15 368.41 788.66 364.09 789.00 C 361.09 786.28 362.26 781.35 360.51 777.83 C 358.81 782.80 361.52 787.43 364.45 791.25 C 363.46 792.86 362.20 794.67 360.08 794.72 C 356.99 794.25 354.19 792.43 350.97 792.67 C 351.18 793.23 351.60 794.35 351.81 794.91 C 347.76 797.10 343.01 797.76 338.52 796.67 C 336.34 796.01 334.40 797.55 332.39 798.11 C 332.27 797.48 332.03 796.21 331.91 795.57 C 331.16 795.69 329.65 795.93 328.89 796.04 C 326.94 792.13 327.79 787.71 327.21 783.55 C 327.01 781.77 325.27 781.16 323.86 780.62 C 325.01 782.56 326.68 784.49 326.43 786.92 C 326.15 789.91 325.28 792.81 324.73 795.76 C 320.42 797.16 316.23 795.60 312.09 794.74 C 311.94 795.28 311.63 796.37 311.47 796.91 C 307.58 797.60 303.68 798.25 299.80 798.98 C 299.24 797.77 297.66 796.51 298.74 795.11 C 300.28 791.89 303.14 789.58 305.25 786.76 C 302.65 786.49 300.87 788.31 299.42 790.18 C 299.19 787.17 298.78 784.09 297.20 781.46 C 297.20 783.78 297.40 786.08 297.70 788.39 C 296.88 787.83 295.22 786.71 294.39 786.14 C 295.36 788.68 297.44 791.37 296.29 794.22 C 295.88 795.78 294.56 796.79 293.51 797.91 C 294.28 798.17 295.83 798.69 296.60 798.95 C 293.25 800.03 289.71 800.23 286.22 800.29 C 286.36 800.47 286.66 800.82 286.80 801.00 L 286.43 801.00 C 283.65 798.96 284.81 795.93 285.74 793.33 C 285.22 791.94 284.85 790.50 284.57 789.06 C 283.29 788.85 282.02 788.66 280.74 788.48 C 281.09 792.03 282.35 795.39 283.05 798.87 C 281.18 798.04 279.25 797.39 277.29 796.88 C 277.27 794.20 276.81 791.57 276.76 788.91 C 275.99 789.78 275.19 790.62 274.39 791.47 C 274.28 792.81 276.33 795.46 274.00 795.58 C 270.38 793.88 264.34 791.73 265.93 786.60 C 265.42 787.02 264.39 787.87 263.88 788.30 C 262.06 787.26 260.32 786.05 259.13 784.31 C 255.55 782.54 253.34 779.12 250.41 776.56 C 246.70 773.11 242.39 769.91 240.64 764.95 C 241.00 764.45 241.74 763.46 242.10 762.96 C 237.93 761.24 236.52 756.90 234.26 753.41 C 234.85 753.54 236.03 753.81 236.62 753.95 C 234.01 750.72 231.82 747.09 231.04 742.96 C 230.18 738.34 228.06 734.13 226.47 729.76 C 226.21 727.91 228.48 728.09 229.60 728.49 C 231.31 729.34 232.44 730.97 233.72 732.35 C 233.18 730.78 232.65 729.21 232.13 727.65 C 232.96 727.75 234.64 727.93 235.48 728.02 C 234.39 726.81 233.30 725.61 232.23 724.41 C 230.98 727.56 227.35 726.69 224.68 726.92 C 224.85 721.35 223.84 715.88 222.31 710.55 C 225.44 709.93 228.64 709.74 231.83 709.62 C 232.22 710.12 232.98 711.12 233.36 711.62 C 234.99 708.22 238.89 707.43 242.31 707.78 C 240.10 706.26 238.07 703.89 238.55 701.02 C 238.65 698.22 241.97 698.79 243.87 698.32 C 245.74 698.35 246.48 696.37 247.50 695.16 C 244.05 697.87 239.01 696.72 235.98 699.98 C 236.16 700.75 236.52 702.28 236.71 703.05 C 235.85 704.10 235.08 705.26 234.00 706.12 C 232.10 705.71 230.54 704.45 228.86 703.56 C 229.22 704.76 229.59 705.97 229.96 707.19 C 225.21 707.08 220.77 705.39 216.41 703.71 C 214.63 701.17 211.67 699.61 210.15 696.95 C 208.99 694.52 211.40 692.91 212.87 691.44 C 217.63 691.79 222.58 691.48 227.08 693.38 C 228.21 691.45 228.69 688.59 231.00 687.74 C 233.88 687.35 234.95 690.55 236.55 692.23 C 237.15 688.73 234.11 686.03 230.98 685.38 C 229.36 685.14 229.06 687.15 228.20 688.10 C 227.06 690.57 223.43 691.48 221.39 689.59 C 219.16 686.66 223.60 682.82 221.93 679.91 C 220.37 682.67 220.11 686.28 217.65 688.46 C 214.72 689.54 211.61 690.13 208.84 691.66 C 205.17 688.97 202.99 684.85 201.59 680.63 C 200.78 677.92 201.91 675.15 203.62 673.08 C 204.86 673.83 206.10 674.59 207.34 675.36 C 207.23 674.52 207.02 672.86 206.92 672.02 C 209.79 669.75 213.23 668.43 216.72 667.44 C 217.15 666.23 217.57 665.03 217.95 663.82 C 215.30 666.07 212.20 667.65 208.98 668.92 C 204.78 670.57 201.48 673.70 198.07 676.54 C 195.49 668.94 189.92 663.06 185.14 656.80 C 183.68 654.84 181.28 654.07 179.37 652.68 C 177.20 650.47 175.77 647.63 173.45 645.55 C 169.12 641.35 163.22 639.27 158.93 635.03 C 152.25 628.55 142.89 626.06 133.91 624.89 C 122.75 622.42 111.34 621.59 99.97 620.88 C 88.63 621.20 77.31 622.03 65.98 622.50 C 63.97 622.67 61.80 622.27 60.70 620.32 C 60.23 621.42 59.78 622.52 59.35 623.66 C 55.92 624.11 52.47 624.16 49.02 623.90 C 42.29 623.36 35.66 625.60 28.91 624.70 C 20.14 623.72 11.41 625.43 2.68 626.12 C 2.49 621.28 3.31 616.49 4.96 611.95 C 6.17 609.07 4.89 606.01 5.18 603.05 C 5.91 601.25 7.61 600.13 8.96 598.83 C 8.86 597.15 8.74 595.49 8.60 593.82 C 7.21 593.05 4.86 592.97 4.59 591.02 C 4.52 588.67 5.20 586.39 5.32 584.06 C 5.34 580.98 3.61 578.11 3.83 575.04 C 4.50 572.42 7.54 571.88 9.00 569.99 C 7.88 568.63 6.57 567.44 5.51 566.04 C 5.60 563.57 7.87 561.62 7.52 559.06 C 7.11 552.03 6.08 545.04 5.88 538.00 C 6.81 538.13 8.68 538.39 9.61 538.52 C 9.75 536.70 10.38 534.80 9.77 533.03 C 8.27 529.80 5.08 527.55 4.12 524.05 C 3.09 518.12 5.21 512.11 4.33 506.20 C 2.89 503.69 0.91 501.46 0.00 498.66 L 0.00 496.99 L 0.74 497.88 C 1.40 492.27 2.59 486.72 2.87 481.07 C 2.75 478.13 5.00 475.86 5.40 473.07 C 5.02 470.89 3.92 468.95 3.13 466.92 C 1.34 463.12 3.17 458.92 2.88 454.94 C 4.36 452.90 6.24 450.79 5.98 448.08 C 5.67 440.30 4.78 432.55 4.24 424.78 C 5.04 424.19 5.85 423.59 6.65 423.00 C 6.19 419.70 7.65 416.53 7.21 413.23 C 8.48 409.59 8.54 405.76 8.28 401.96 C 10.58 402.15 12.87 402.33 15.17 402.48 C 17.24 400.87 19.86 399.37 22.53 400.56 C 26.02 402.24 30.08 401.24 33.17 399.19 C 34.96 397.24 35.43 394.49 36.33 392.08 C 37.53 387.67 40.65 383.72 40.12 378.94 C 40.21 374.92 36.37 370.32 39.73 366.77 C 42.82 364.28 45.43 361.29 47.56 357.94 C 47.59 356.59 47.26 355.11 48.02 353.89 C 50.41 353.38 53.61 354.38 55.18 351.94 C 56.54 348.08 52.05 344.17 54.37 340.37 C 56.28 338.15 59.36 337.47 62.01 336.47 C 64.79 335.24 67.88 336.36 70.70 335.71 C 72.69 333.30 74.10 330.48 76.07 328.06 C 78.57 325.10 76.87 320.72 78.66 317.53 C 80.61 315.69 83.53 314.15 83.00 310.97 C 81.75 306.53 76.08 304.66 75.10 300.04 C 76.52 296.07 78.89 292.47 80.34 288.49 C 83.23 284.31 88.02 288.60 91.31 289.95 C 94.74 286.88 92.89 281.85 95.25 278.22 C 97.46 274.39 98.04 269.61 96.39 265.46 C 95.29 263.92 92.74 264.04 91.96 262.19 C 90.92 259.99 89.64 257.93 88.42 255.83 C 88.46 253.13 90.45 250.74 90.20 247.99 C 89.91 241.83 85.20 236.34 87.42 230.05 C 86.62 230.00 85.00 229.88 84.20 229.82 C 78.88 223.03 74.01 215.89 68.85 208.98 C 67.87 207.43 66.51 205.92 66.35 204.02 C 68.07 196.44 71.37 189.24 76.14 183.09 C 77.97 181.20 80.62 180.37 82.45 178.48 C 84.16 175.65 81.14 173.35 79.59 171.34 C 77.70 169.43 77.83 166.50 77.94 164.02 C 78.91 161.78 81.06 160.20 81.76 157.84 C 82.04 154.04 79.35 150.74 79.43 146.95 C 79.66 141.91 81.71 137.09 81.59 132.01 C 81.49 126.31 81.00 120.62 80.96 114.91 C 80.43 112.04 83.73 111.05 85.45 109.48 C 92.19 104.26 99.92 100.03 105.30 93.28 C 109.11 87.76 112.54 81.99 116.31 76.44 C 119.34 72.26 118.83 66.84 119.89 62.02 C 121.73 52.80 121.10 43.37 121.25 34.03 C 125.00 33.71 129.35 34.14 132.31 31.33 C 139.27 25.73 144.68 17.30 153.89 15.26 C 162.57 13.18 171.22 10.93 179.95 9.10 C 183.56 7.91 185.66 12.12 189.03 12.34 C 194.09 12.96 198.98 10.73 204.05 11.14 C 208.68 11.09 213.85 12.64 218.03 9.93 C 220.80 8.31 221.26 4.64 223.70 2.74 C 227.80 1.08 232.33 1.09 236.59 0.00 M 631.98 51.54 C 627.92 52.44 623.67 52.99 620.02 55.12 C 615.35 57.76 610.58 60.23 605.97 62.96 C 603.88 63.92 604.54 66.73 603.11 68.18 C 600.96 69.29 598.63 70.20 597.09 72.16 C 592.25 77.60 587.54 83.17 582.78 88.69 C 581.30 90.36 579.39 92.16 576.96 91.81 C 571.29 91.42 565.66 90.55 560.00 90.04 C 556.62 89.67 553.46 91.63 550.07 91.15 C 542.69 90.48 535.35 89.48 527.98 88.73 C 520.54 88.17 513.59 85.24 506.42 83.42 C 502.21 82.18 497.03 81.35 494.85 77.01 C 492.63 72.93 488.81 69.13 484.02 68.59 C 481.66 68.24 479.16 70.81 477.03 69.05 C 474.40 67.01 471.97 64.71 469.47 62.52 C 467.36 60.76 465.98 57.86 463.05 57.34 C 458.10 56.16 455.15 51.38 450.55 49.58 C 444.03 48.44 437.44 47.68 430.88 46.73 C 428.30 46.26 425.75 47.16 423.58 48.48 C 413.90 54.11 404.31 59.90 394.62 65.49 C 389.42 68.59 383.50 65.09 378.08 65.59 C 374.73 69.00 371.92 73.17 367.55 75.37 C 364.11 76.34 360.43 76.15 356.91 75.89 C 351.11 75.39 347.35 70.36 343.57 66.53 C 339.54 62.67 338.34 56.89 334.63 52.84 C 334.51 187.24 334.62 321.65 334.58 456.05 C 334.62 563.09 334.51 670.13 334.64 777.17 C 336.32 775.24 337.52 772.94 339.30 771.10 L 338.26 769.92 C 338.93 770.10 340.28 770.45 340.96 770.63 C 339.71 766.93 340.74 762.09 337.36 759.39 C 335.79 757.45 336.18 754.62 335.40 752.37 C 337.07 753.54 339.01 754.06 340.90 753.07 C 340.86 754.99 342.74 754.93 344.14 755.10 C 344.92 756.96 343.64 758.53 342.70 760.03 C 343.55 763.75 343.49 769.06 347.92 770.45 C 350.40 771.39 349.43 774.63 348.20 776.26 C 345.68 779.47 347.88 784.22 350.97 786.22 C 350.67 787.53 350.56 788.86 350.64 790.21 C 354.38 789.77 358.00 790.93 361.60 791.79 C 360.09 789.27 358.54 786.72 357.59 783.94 C 357.21 781.20 357.95 778.48 358.12 775.76 C 356.70 776.14 355.82 777.80 354.34 777.81 C 352.83 776.58 352.95 774.79 353.90 773.28 C 351.48 770.48 351.14 766.73 350.48 763.25 C 353.07 765.77 355.24 768.68 357.82 771.21 C 357.27 770.03 356.66 768.87 356.04 767.74 C 356.05 765.17 356.40 762.61 357.37 760.23 C 358.10 761.45 358.80 762.70 359.49 763.97 C 360.24 763.38 361.00 762.80 361.76 762.23 C 362.60 766.31 365.33 769.51 367.22 773.12 C 366.48 772.85 365.01 772.30 364.27 772.03 C 363.81 773.62 363.28 775.19 362.68 776.74 C 364.46 779.45 364.16 782.78 364.40 785.87 C 364.68 784.68 364.94 783.49 365.22 782.33 C 366.53 781.16 367.91 780.05 369.37 779.08 C 368.99 780.57 368.62 782.13 368.17 783.62 C 369.57 783.45 370.89 783.71 372.14 784.39 C 373.20 783.28 374.20 782.12 375.16 780.94 C 373.70 779.64 372.24 778.35 370.76 777.08 C 371.88 776.61 372.99 776.15 374.11 775.70 C 373.77 772.46 370.88 771.03 368.25 769.90 C 366.84 768.05 366.12 765.74 364.53 764.00 C 364.16 761.93 366.46 760.10 366.20 757.85 C 369.10 760.81 369.26 765.56 372.85 767.90 C 374.21 767.57 375.60 767.40 377.00 767.39 C 376.44 771.31 379.00 774.21 381.51 776.80 C 381.75 773.73 384.50 772.51 387.17 771.98 C 389.16 776.20 394.53 774.04 397.59 776.84 C 397.90 776.36 398.52 775.38 398.83 774.90 C 399.82 775.16 400.82 775.43 401.82 775.73 C 402.22 775.29 403.03 774.43 403.44 774.00 C 401.49 769.92 402.70 762.69 408.67 763.54 C 407.95 765.65 406.82 767.67 406.44 769.89 C 406.89 771.84 407.62 773.76 408.63 775.52 C 408.46 776.28 408.28 777.05 408.11 777.83 C 411.60 779.62 415.64 779.68 419.14 781.46 C 420.10 780.70 420.95 779.83 421.99 779.18 C 428.35 780.15 434.61 778.05 440.97 778.04 C 443.12 778.15 445.03 777.08 447.02 776.41 C 453.98 776.60 460.94 777.11 467.91 777.33 C 468.89 774.77 470.65 772.67 472.91 771.14 C 469.98 770.28 468.71 767.43 470.27 764.74 C 469.71 763.27 469.13 761.80 468.53 760.36 C 466.47 758.87 465.17 756.67 464.06 754.44 C 464.44 754.07 465.20 753.33 465.58 752.96 C 464.77 750.23 463.15 747.78 461.04 745.88 C 459.39 744.27 457.16 742.85 457.36 740.20 C 460.42 740.07 462.10 743.03 464.64 744.28 C 466.02 746.63 467.47 748.85 470.01 750.12 C 471.40 752.12 474.49 753.44 473.73 756.29 C 474.56 756.31 476.21 756.33 477.04 756.35 C 476.90 753.84 478.03 751.51 480.89 752.20 C 480.42 755.24 479.71 758.24 479.34 761.29 C 481.10 761.36 482.76 760.74 484.31 759.99 C 487.04 760.80 484.14 765.12 487.82 764.12 C 486.39 760.16 488.73 753.91 493.54 754.01 C 493.46 752.37 492.60 750.36 493.97 749.04 C 497.09 746.27 498.66 742.31 501.02 738.95 C 503.25 734.80 504.02 728.63 509.46 727.43 C 510.13 722.62 512.45 717.82 511.06 712.96 C 510.52 709.42 514.18 706.63 513.56 703.06 C 513.37 700.85 512.87 698.28 514.64 696.54 C 515.95 694.60 519.30 692.89 517.73 690.18 C 515.62 687.32 512.09 685.64 510.88 682.08 C 512.27 680.36 513.86 678.80 515.09 676.95 C 514.41 675.06 513.44 673.27 513.11 671.28 C 515.27 668.61 518.30 666.86 520.44 664.16 C 521.93 664.41 523.44 664.69 524.93 665.01 C 525.07 664.33 525.34 662.96 525.47 662.28 C 528.96 659.17 531.55 655.21 534.96 652.00 C 539.08 647.37 544.34 644.03 548.97 639.97 C 551.79 637.49 552.40 633.53 554.77 630.73 C 556.49 628.70 559.66 630.14 561.56 628.47 C 562.84 626.74 563.45 624.55 564.99 623.03 C 567.28 621.40 570.12 620.86 572.53 619.43 C 574.54 617.80 574.83 614.55 577.39 613.48 C 579.50 612.67 581.82 612.84 584.05 612.73 C 586.00 606.78 587.84 600.79 589.71 594.81 C 590.26 592.92 591.12 590.95 592.91 589.94 C 595.39 589.61 598.21 592.52 600.31 590.27 C 607.06 584.73 613.59 578.90 620.42 573.43 C 621.64 572.16 623.36 572.28 624.96 572.57 C 625.88 575.29 626.28 578.15 627.10 580.91 C 627.67 582.91 630.03 583.73 631.93 583.68 C 638.15 583.69 644.37 583.37 650.59 583.49 C 651.20 580.98 652.66 578.86 654.41 577.01 C 654.61 571.39 655.80 565.78 658.83 560.98 C 661.03 563.11 662.52 565.80 662.37 568.95 C 663.36 569.37 664.36 569.80 665.37 570.22 C 665.47 394.97 665.38 219.73 665.41 44.48 C 654.26 46.81 643.13 49.21 631.98 51.54 M 89.75 605.66 C 85.82 607.14 82.41 609.97 78.14 610.50 C 74.97 610.79 72.27 613.80 68.94 612.40 C 66.06 611.96 67.24 608.41 67.42 606.46 C 65.26 608.05 63.56 610.47 60.77 610.97 C 62.25 614.43 59.35 617.29 58.13 620.29 C 59.99 619.78 61.86 619.31 63.75 618.94 C 63.82 619.54 63.98 620.74 64.06 621.34 C 66.45 617.87 71.10 620.36 74.06 617.93 C 75.43 617.12 74.93 615.31 75.27 614.02 C 79.32 614.10 83.28 613.10 87.21 612.22 C 89.28 611.68 90.61 609.88 91.15 607.89 C 93.72 607.25 96.36 607.01 98.99 606.67 C 96.03 605.88 92.76 604.30 89.75 605.66 M 360.31 767.17 C 358.31 768.90 360.59 771.60 361.81 773.22 C 361.51 771.17 361.76 768.83 360.31 767.17 M 340.16 772.04 C 341.68 777.35 335.82 782.25 338.89 787.20 C 338.47 789.44 338.21 791.70 338.08 793.99 C 341.35 794.94 344.97 795.04 348.15 793.70 C 347.66 793.29 346.70 792.46 346.21 792.05 C 345.01 787.34 343.14 782.79 342.75 777.88 C 342.22 776.15 343.63 774.93 344.56 773.73 C 343.83 772.58 343.08 771.45 342.33 770.34 C 341.60 770.89 340.88 771.45 340.16 772.04 M 376.38 774.95 C 375.90 777.45 376.93 779.83 377.62 782.18 C 378.35 780.87 379.00 779.53 379.62 778.18 C 378.54 777.09 377.47 776.01 376.38 774.95 M 383.98 779.31 C 383.71 780.64 384.28 781.18 385.69 780.92 C 385.97 779.55 385.40 779.01 383.98 779.31 M 332.12 783.32 C 330.51 786.24 335.45 783.54 332.12 783.32 M 380.30 782.45 C 378.38 785.52 376.04 788.29 373.74 791.08 C 377.75 790.87 382.01 790.53 385.50 788.33 C 385.59 786.99 385.71 785.65 385.84 784.33 C 383.66 784.97 381.67 784.21 380.30 782.45 M 389.96 785.62 C 392.73 787.12 396.03 786.49 399.06 786.65 C 397.69 785.70 396.28 784.83 394.87 783.97 C 393.22 784.47 391.57 785.01 389.96 785.62 Z" />
</g>
<g id="#ffffffff">
<path fill="#ffffff" opacity="1.00" d=" M 631.98 51.54 C 643.13 49.21 654.26 46.81 665.41 44.48 C 665.38 219.73 665.47 394.97 665.37 570.22 C 664.36 569.80 663.36 569.37 662.37 568.95 C 662.52 565.80 661.03 563.11 658.83 560.98 C 655.80 565.78 654.61 571.39 654.41 577.01 C 652.66 578.86 651.20 580.98 650.59 583.49 C 644.37 583.37 638.15 583.69 631.93 583.68 C 630.03 583.73 627.67 582.91 627.10 580.91 C 626.28 578.15 625.88 575.29 624.96 572.57 C 623.36 572.28 621.64 572.16 620.42 573.43 C 613.59 578.90 607.06 584.73 600.31 590.27 C 598.21 592.52 595.39 589.61 592.91 589.94 C 591.12 590.95 590.26 592.92 589.71 594.81 C 587.84 600.79 586.00 606.78 584.05 612.73 C 581.82 612.84 579.50 612.67 577.39 613.48 C 574.83 614.55 574.54 617.80 572.53 619.43 C 570.12 620.86 567.28 621.40 564.99 623.03 C 563.45 624.55 562.84 626.74 561.56 628.47 C 559.66 630.14 556.49 628.70 554.77 630.73 C 552.40 633.53 551.79 637.49 548.97 639.97 C 544.34 644.03 539.08 647.37 534.96 652.00 C 531.55 655.21 528.96 659.17 525.47 662.28 C 525.34 662.96 525.07 664.33 524.93 665.01 C 523.44 664.69 521.93 664.41 520.44 664.16 C 518.30 666.86 515.27 668.61 513.11 671.28 C 513.44 673.27 514.41 675.06 515.09 676.95 C 513.86 678.80 512.27 680.36 510.88 682.08 C 512.09 685.64 515.62 687.32 517.73 690.18 C 519.30 692.89 515.95 694.60 514.64 696.54 C 512.87 698.28 513.37 700.85 513.56 703.06 C 514.18 706.63 510.52 709.42 511.06 712.96 C 512.45 717.82 510.13 722.62 509.46 727.43 C 504.02 728.63 503.25 734.80 501.02 738.95 C 498.66 742.31 497.09 746.27 493.97 749.04 C 492.60 750.36 493.46 752.37 493.54 754.01 C 488.73 753.91 486.39 760.16 487.82 764.12 C 484.14 765.12 487.04 760.80 484.31 759.99 C 482.76 760.74 481.10 761.36 479.34 761.29 C 479.71 758.24 480.42 755.24 480.89 752.20 C 478.03 751.51 476.90 753.84 477.04 756.35 C 476.21 756.33 474.56 756.31 473.73 756.29 C 474.49 753.44 471.40 752.12 470.01 750.12 C 467.47 748.85 466.02 746.63 464.64 744.28 C 462.10 743.03 460.42 740.07 457.36 740.20 C 457.16 742.85 459.39 744.27 461.04 745.88 C 463.15 747.78 464.77 750.23 465.58 752.96 C 465.20 753.33 464.44 754.07 464.06 754.44 C 465.17 756.67 466.47 758.87 468.53 760.36 C 469.13 761.80 469.71 763.27 470.27 764.74 C 468.71 767.43 469.98 770.28 472.91 771.14 C 470.65 772.67 468.89 774.77 467.91 777.33 C 460.94 777.11 453.98 776.60 447.02 776.41 C 445.03 777.08 443.12 778.15 440.97 778.04 C 434.61 778.05 428.35 780.15 421.99 779.18 C 420.95 779.83 420.10 780.70 419.14 781.46 C 415.64 779.68 411.60 779.62 408.11 777.83 C 408.28 777.05 408.46 776.28 408.63 775.52 C 407.62 773.76 406.89 771.84 406.44 769.89 C 406.82 767.67 407.95 765.65 408.67 763.54 C 402.70 762.69 401.49 769.92 403.44 774.00 C 403.03 774.43 402.22 775.29 401.82 775.73 C 400.82 775.43 399.82 775.16 398.83 774.90 C 398.52 775.38 397.90 776.36 397.59 776.84 C 394.53 774.04 389.16 776.20 387.17 771.98 C 384.50 772.51 381.75 773.73 381.51 776.80 C 379.00 774.21 376.44 771.31 377.00 767.39 C 375.60 767.40 374.21 767.57 372.85 767.90 C 369.26 765.56 369.10 760.81 366.20 757.85 C 366.46 760.10 364.16 761.93 364.53 764.00 C 366.12 765.74 366.84 768.05 368.25 769.90 C 370.88 771.03 373.77 772.46 374.11 775.70 C 372.99 776.15 371.88 776.61 370.76 777.08 C 372.24 778.35 373.70 779.64 375.16 780.94 C 374.20 782.12 373.20 783.28 372.14 784.39 C 370.89 783.71 369.57 783.45 368.17 783.62 C 368.62 782.13 368.99 780.57 369.37 779.08 C 367.91 780.05 366.53 781.16 365.22 782.33 C 364.94 783.49 364.68 784.68 364.40 785.87 C 364.16 782.78 364.46 779.45 362.68 776.74 C 363.28 775.19 363.81 773.62 364.27 772.03 C 365.01 772.30 366.48 772.85 367.22 773.12 C 365.33 769.51 362.60 766.31 361.76 762.23 C 361.00 762.80 360.24 763.38 359.49 763.97 C 358.80 762.70 358.10 761.45 357.37 760.23 C 356.40 762.61 356.05 765.17 356.04 767.74 C 356.66 768.87 357.27 770.03 357.82 771.21 C 355.24 768.68 353.07 765.77 350.48 763.25 C 351.14 766.73 351.48 770.48 353.90 773.28 C 352.95 774.79 352.83 776.58 354.34 777.81 C 355.82 777.80 356.70 776.14 358.12 775.76 C 357.95 778.48 357.21 781.20 357.59 783.94 C 358.54 786.72 360.09 789.27 361.60 791.79 C 358.00 790.93 354.38 789.77 350.64 790.21 C 350.56 788.86 350.67 787.53 350.97 786.22 C 347.88 784.22 345.68 779.47 348.20 776.26 C 349.43 774.63 350.40 771.39 347.92 770.45 C 343.49 769.06 343.55 763.75 342.70 760.03 C 343.64 758.53 344.92 756.96 344.14 755.10 C 342.74 754.93 340.86 754.99 340.90 753.07 C 339.01 754.06 337.07 753.54 335.40 752.37 C 336.18 754.62 335.79 757.45 337.36 759.39 C 340.74 762.09 339.71 766.93 340.96 770.63 C 340.28 770.45 338.93 770.10 338.26 769.92 L 339.30 771.10 C 337.52 772.94 336.32 775.24 334.64 777.17 C 334.51 670.13 334.62 563.09 334.58 456.05 C 334.62 321.65 334.51 187.24 334.63 52.84 C 338.34 56.89 339.54 62.67 343.57 66.53 C 347.35 70.36 351.11 75.39 356.91 75.89 C 360.43 76.15 364.11 76.34 367.55 75.37 C 371.92 73.17 374.73 69.00 378.08 65.59 C 383.50 65.09 389.42 68.59 394.62 65.49 C 404.31 59.90 413.90 54.11 423.58 48.48 C 425.75 47.16 428.30 46.26 430.88 46.73 C 437.44 47.68 444.03 48.44 450.55 49.58 C 455.15 51.38 458.10 56.16 463.05 57.34 C 465.98 57.86 467.36 60.76 469.47 62.52 C 471.97 64.71 474.40 67.01 477.03 69.05 C 479.16 70.81 481.66 68.24 484.02 68.59 C 488.81 69.13 492.63 72.93 494.85 77.01 C 497.03 81.35 502.21 82.18 506.42 83.42 C 513.59 85.24 520.54 88.17 527.98 88.73 C 535.35 89.48 542.69 90.48 550.07 91.15 C 553.46 91.63 556.62 89.67 560.00 90.04 C 565.66 90.55 571.29 91.42 576.96 91.81 C 579.39 92.16 581.30 90.36 582.78 88.69 C 587.54 83.17 592.25 77.60 597.09 72.16 C 598.63 70.20 600.96 69.29 603.11 68.18 C 604.54 66.73 603.88 63.92 605.97 62.96 C 610.58 60.23 615.35 57.76 620.02 55.12 C 623.67 52.99 627.92 52.44 631.98 51.54 Z" />
<path fill="#ffffff" opacity="1.00" d=" M 340.16 772.04 C 340.88 771.45 341.60 770.89 342.33 770.34 C 343.08 771.45 343.83 772.58 344.56 773.73 C 343.63 774.93 342.22 776.15 342.75 777.88 C 343.14 782.79 345.01 787.34 346.21 792.05 C 346.70 792.46 347.66 793.29 348.15 793.70 C 344.97 795.04 341.35 794.94 338.08 793.99 C 338.21 791.70 338.47 789.44 338.89 787.20 C 335.82 782.25 341.68 777.35 340.16 772.04 Z" />
<path fill="#ffffff" opacity="1.00" d=" M 380.30 782.45 C 381.67 784.21 383.66 784.97 385.84 784.33 C 385.71 785.65 385.59 786.99 385.50 788.33 C 382.01 790.53 377.75 790.87 373.74 791.08 C 376.04 788.29 378.38 785.52 380.30 782.45 Z" />
<path fill="#ffffff" opacity="1.00" d=" M 389.96 785.62 C 391.57 785.01 393.22 784.47 394.87 783.97 C 396.28 784.83 397.69 785.70 399.06 786.65 C 396.03 786.49 392.73 787.12 389.96 785.62 Z" />
</g>
<g id="#75bea1fe">
<path fill="#75bea1" opacity="1.00" d=" M 383.98 779.31 C 385.40 779.01 385.97 779.55 385.69 780.92 C 384.28 781.18 383.71 780.64 383.98 779.31 Z" />
</g>
<g id="#00673e44">
<path fill="#00673e" opacity="0.27" d=" M 332.12 783.32 C 335.45 783.54 330.51 786.24 332.12 783.32 Z" />
</g>
</svg>
