<?xml version="1.0" encoding="UTF-8" standalone="no"?>
<svg
   xmlns:dc="http://purl.org/dc/elements/1.1/"
   xmlns:cc="http://creativecommons.org/ns#"
   xmlns:rdf="http://www.w3.org/1999/02/22-rdf-syntax-ns#"
   xmlns:svg="http://www.w3.org/2000/svg"
   xmlns="http://www.w3.org/2000/svg"
   xmlns:sodipodi="http://sodipodi.sourceforge.net/DTD/sodipodi-0.dtd"
   xmlns:inkscape="http://www.inkscape.org/namespaces/inkscape"
   width="764.75781"
   height="600"
   id="svg2"
   version="1.1"
   inkscape:version="0.91 r13725"
   sodipodi:docname="Flag_of_Niger.svg">
  <metadata
     id="metadata16">
    <rdf:RDF>
      <cc:Work
         rdf:about="">
        <dc:format>image/svg+xml</dc:format>
        <dc:type
           rdf:resource="http://purl.org/dc/dcmitype/StillImage" />
        <dc:title></dc:title>
      </cc:Work>
    </rdf:RDF>
  </metadata>
  <defs
     id="defs14" />
  <sodipodi:namedview
     pagecolor="#ffffff"
     bordercolor="#666666"
     borderopacity="1"
     objecttolerance="10"
     gridtolerance="10"
     guidetolerance="10"
     inkscape:pageopacity="0"
     inkscape:pageshadow="2"
     inkscape:window-width="1600"
     inkscape:window-height="837"
     id="namedview12"
     showgrid="false"
     fit-margin-top="0"
     fit-margin-left="0"
     fit-margin-right="0"
     fit-margin-bottom="0"
     inkscape:zoom="0.97035431"
     inkscape:cx="382.37891"
     inkscape:cy="300"
     inkscape:window-x="-8"
     inkscape:window-y="-8"
     inkscape:window-maximized="1"
     inkscape:current-layer="svg2" />
  <path
     style="fill:#ffffff;stroke:#e05206;stroke-width:1.20000005;stroke-miterlimit:4;stroke-dasharray:none;stroke-opacity:1"
     d="m 282.06055,198 -9.7207,8.74414 -15.93946,3.37109 -56.70507,11.1875 -2.60547,0 -0.15235,26.05469 0.45899,83.3711 -2.19336,0.68164 0.54101,4.55273 -1.08398,3.79297 0.2168,21.7832 -5.31055,2.70899 -5.52539,13.65429 0.86523,4.33399 -2.59961,2.16797 -1.08398,2.8164 -0.65039,7.04492 -3.25195,3.9004 -4.98438,0.21679 -2.80469,3.61719 511.63477,0 4.81641,-7.51758 13.33203,-13.94531 40.91992,-45.05859 3.06836,-51.03516 1.22656,-19.61524 1.07227,-23.14257 3.0664,-26.35938 1.53321,-13.48633 0.55664,-3.83984 -468.69727,0 z"
     id="rect6"
     inkscape:connector-curvature="0" />
  <path
     style="fill:#0db02b"
     d="m 171.08203,400 -2.86328,3.69336 -5.31054,2.70898 0.43359,2.81836 -2.05859,4.33399 -23.19141,-3.90039 -0.10937,4.98437 -17.98829,-0.32422 -64.480468,3.03321 -9.210938,8.77929 -8.019531,6.71875 -9.96875,1.19141 -3.144531,1.08398 -5.308594,-2.16797 -4.226563,-0.75781 -4.335937,1.95117 -8.386719,-2.11523 -0.154297,1.99219 0.458985,3.83203 -2.144532,1.53515 1.683594,2.75782 -0.457031,5.82422 L 0,457.93359 l 10.267578,9.50391 1.072266,4.13672 -2.298829,3.83203 1.38086,3.52344 4.597656,9.04297 5.058594,4.59765 1.533203,1.83985 -1.226563,1.68359 1.38086,2.60742 1.378906,-0.30664 5.671875,-0.30664 0.306641,2.91016 4.902343,0.61328 5.978516,2.91211 0.767578,4.44531 2.910156,2.29687 6.128907,1.68555 -0.458985,4.13672 -3.371094,-0.61133 -6.283203,-2.14648 0.152344,17.4707 6.744141,1.83789 21.304687,18.23828 14.25,1.53125 2.298828,-4.5957 1.072266,0 1.992187,-1.53516 6.744141,0.46094 1.224609,1.99219 2.146485,1.68359 1.226562,2.91211 1.837895,4.9043 1.07226,3.37305 -6.589842,0.76562 -4.291016,2.14648 5.210938,7.20313 7.35547,11.1875 4.44531,3.52539 0.26953,0.27344 0.0371,-0.42774 2.14649,-2.75976 -2.14649,-3.98438 -0.76562,-4.29297 -0.92188,-5.05664 2.45313,-0.45898 4.44531,-0.45899 3.83008,-1.07226 3.21875,0.30664 1.99219,-1.99219 1.6875,-1.22656 2.14453,-1.68359 3.67773,0 1.5332,1.3789 2.29884,2.60547 3.98437,3.06445 3.83203,3.83204 5.51758,5.66992 1.83789,3.37304 1.99219,5.36329 3.67969,-0.61329 5.66992,2.14649 2.45312,3.67773 2.75781,4.9043 4.29102,-3.37305 -0.1543,-2.60547 -2.45117,-1.5332 -0.92187,-4.29101 3.21875,-3.3711 -1.37891,-4.29101 -0.76562,-2.91211 1.3789,-4.44336 0.15235,-10.57422 -0.76563,-4.44531 1.68555,-2.29688 8.12304,-5.51758 5.36329,-5.51758 5.97851,-9.34765 2.14649,-8.88867 0,-17.7793 5.66992,0.30664 10.57422,-10.72656 19.31836,-4.75 2.29687,1.83789 4.75195,0.92187 3.83008,-1.68554 2.14649,0.91992 6.89648,-0.1543 2.91211,-1.83789 1.22461,-3.52344 8.42969,-2.14843 6.89648,3.83203 17.16602,6.4375 6.1289,2.60547 3.83203,-2.29688 4.59766,1.22461 5.67188,4.75 9.96093,9.80859 5.66992,11.80079 7.20313,7.50976 7.66406,0.30664 6.58985,-6.89648 7.35742,1.07226 21.30078,-12.5664 11.1875,1.3789 7.20312,3.37305 6.28516,4.75 4.44336,4.9043 4.13867,-0.92188 5.05664,2.76172 2.60547,4.75 11.64844,3.83203 12.5664,1.37891 22.68165,1.68554 10.88281,-13.79296 2.60547,-0.15235 0.45898,-2.60742 4.75,-3.37109 9.50195,-4.59961 9.04297,-0.91992 11.03516,-3.52344 7.20312,-0.91992 12.41407,1.99218 6.13086,-0.91992 7.96679,-0.76758 10.57617,1.83985 11.03516,3.37109 7.35547,3.2207 8.12109,5.66993 4.29297,-0.92188 4.28907,1.68555 9.02343,1.38281 3.4961,-3.97852 0.57226,-4.05078 4.79688,-3.30468 7.44336,-4.71875 5.5957,-5.40625 14.34375,-2.53907 4.61523,-7.31054 15.52344,-1.95508 -2.42383,-10.57031 -5.36328,-22.07032 -0.46094,-4.29101 2.45313,-2.60547 5.21094,-0.61328 3.06445,-1.99219 -0.45898,-5.51758 1.68554,-1.68554 3.83008,-1.53125 -0.76562,-6.89649 2.9121,-6.28515 5.82227,-8.42969 7.50977,-10.72657 6.2832,-9.34765 2.75,-4.29297 -511.36524,0 z"
     id="rect4"
     inkscape:connector-curvature="0" />
  <path
     style="fill:#e05206"
     d="M 571.19336,0 538.08985,19.923828 468.35743,62.375 382.99414,115.55469 353.71875,134.40625 342.37891,144.0625 308.96875,173.79297 279.83594,200 l 470.63281,0 2.64258,-18.23828 9.96094,-17.62305 1.68555,-3.67969 -15.17188,-16.39843 -5.67187,-4.9043 -0.61133,-3.21875 0.61133,-2.60352 2.45312,-3.67968 -0.76758,-1.68555 -15.47851,-22.52734 -3.98438,-3.37305 -0.30664,-24.519532 -9.04297,-51.341797 -20.68945,11.035157 -16.55078,8.888671 L 647.36133,18.544922 638.78125,15.478516 571.19336,0 Z"
     id="rect8"
     inkscape:connector-curvature="0" />
  <circle
     cx="382.37891"
     cy="300"
     r="85"
     id="circle10"
     style="fill:#e05206" />
</svg>
