<?xml version="1.0" encoding="UTF-8" ?>
<!DOCTYPE svg PUBLIC "-//W3C//DTD SVG 1.1//EN" "http://www.w3.org/Graphics/SVG/1.1/DTD/svg11.dtd">
<svg width="309pt" height="1422pt" viewBox="0 0 309 1422" version="1.1" xmlns="http://www.w3.org/2000/svg">
<g id="#ffffffff">
</g>
<g id="#0071bcff">
<path fill="#0071bc" opacity="1.00" d=" M 45.36 21.83 C 46.61 20.75 48.16 21.12 49.60 21.39 C 50.63 22.36 51.63 23.37 52.60 24.41 C 53.05 26.09 53.07 27.84 52.54 29.52 C 51.19 31.49 49.49 33.20 47.51 34.54 C 45.35 35.38 43.14 34.79 41.12 33.87 C 39.89 31.24 39.59 28.28 40.46 25.49 C 41.40 24.30 42.36 23.14 43.33 21.99 C 43.84 21.95 44.85 21.87 45.36 21.83 Z" />
<path fill="#0071bc" opacity="1.00" d=" M 111.37 1387.75 C 112.37 1387.15 113.42 1387.04 114.52 1387.43 C 115.69 1388.37 116.85 1389.34 118.00 1390.34 C 118.05 1390.84 118.14 1391.85 118.19 1392.36 C 119.14 1393.90 118.96 1395.74 119.08 1397.50 C 118.17 1398.40 117.28 1399.33 116.40 1400.28 C 115.35 1399.88 114.32 1399.46 113.30 1399.01 C 112.01 1399.08 110.71 1399.21 109.43 1399.40 C 108.06 1400.46 106.91 1401.77 106.22 1403.39 C 105.43 1405.55 104.17 1407.49 102.61 1409.20 C 101.22 1408.97 99.84 1408.77 98.47 1408.52 C 96.57 1407.16 94.91 1405.51 93.42 1403.74 C 92.39 1404.07 91.37 1404.46 90.37 1404.88 C 87.45 1405.02 84.34 1405.44 81.67 1403.97 C 83.38 1400.97 85.80 1398.49 88.36 1396.21 C 89.85 1395.92 91.25 1395.32 92.63 1394.71 C 93.56 1394.34 94.50 1394.01 95.44 1393.71 C 96.75 1393.22 98.08 1392.78 99.38 1392.27 C 101.03 1391.54 102.72 1390.91 104.39 1390.26 C 106.10 1389.52 107.84 1388.87 109.57 1388.19 C 110.02 1388.08 110.92 1387.86 111.37 1387.75 Z" />
</g>
<g id="#de2010ff">
<path fill="#de2010" opacity="1.00" d=" M 110.33 132.94 C 112.66 133.11 115.15 132.59 117.35 133.51 C 117.74 134.46 118.09 135.43 118.40 136.41 C 119.59 138.20 117.99 139.85 117.38 141.49 C 116.69 142.73 115.70 143.73 114.56 144.56 C 112.37 145.36 110.16 144.83 108.14 143.86 C 107.02 141.56 106.57 138.95 107.47 136.49 C 108.41 135.29 109.37 134.12 110.33 132.94 Z" />
<path fill="#de2010" opacity="1.00" d=" M 117.86 145.06 C 118.35 145.00 119.33 144.88 119.82 144.82 C 119.57 146.43 119.33 148.05 119.06 149.66 C 117.71 148.48 118.10 146.62 117.86 145.06 Z" />
<path fill="#de2010" opacity="1.00" d=" M 105.84 146.91 C 107.72 147.05 109.70 146.78 111.49 147.50 C 112.54 149.08 111.10 150.65 110.75 152.19 C 109.32 152.01 107.87 151.96 106.50 151.50 C 105.97 150.03 106.00 148.44 105.84 146.91 Z" />
</g>
<g id="#0d0201ff">
<path fill="#0d0201" opacity="1.00" d=" M 119.82 144.82 C 120.50 145.02 121.85 145.42 122.53 145.62 C 123.64 147.09 122.11 148.56 121.76 150.01 C 121.07 150.01 119.69 150.02 119.01 150.02 L 119.06 149.66 C 119.33 148.05 119.57 146.43 119.82 144.82 Z" />
</g>
<g id="#701009ff">
<path fill="#701009" opacity="1.00" d=" M 114.19 151.28 C 114.60 151.25 115.41 151.19 115.82 151.16 L 115.86 151.96 C 115.46 152.00 114.65 152.06 114.25 152.09 L 114.19 151.28 Z" />
</g>
<g id="#000000ff">
<path fill="#000000" opacity="1.00" d=" M 112.61 152.58 C 113.02 152.46 113.84 152.21 114.25 152.09 C 114.65 152.06 115.46 152.00 115.86 151.96 L 117.01 151.74 C 117.00 153.20 117.00 154.65 116.99 156.11 C 114.84 156.51 110.42 155.47 112.61 152.58 Z" />
<path fill="#000000" opacity="1.00" d=" M 148.54 212.23 C 148.93 212.52 149.69 213.11 150.07 213.40 C 149.98 215.10 150.12 216.87 149.45 218.48 C 148.42 220.42 146.84 222.31 144.41 222.11 C 143.90 222.39 142.88 222.94 142.37 223.22 C 143.95 221.27 145.20 219.09 146.52 216.97 C 146.51 216.74 146.50 216.28 146.49 216.05 C 147.54 214.98 148.23 213.69 148.54 212.23 Z" />
<path fill="#000000" opacity="1.00" d=" M 220.28 551.01 C 218.53 547.43 217.46 540.61 222.90 539.91 C 224.18 544.89 225.37 549.98 227.74 554.59 C 225.61 555.52 223.57 556.68 221.86 558.28 C 221.74 556.66 221.57 555.06 221.40 553.46 L 220.57 553.68 C 220.50 553.01 220.35 551.68 220.28 551.01 Z" />
</g>
<g id="#8c8a8cff">
<path fill="#8c8a8c" opacity="1.00" d=" M 196.45 402.00 C 198.48 401.99 200.51 401.99 202.55 402.00 C 204.00 403.48 205.46 404.95 206.93 406.42 C 207.01 406.89 207.18 407.83 207.26 408.30 C 209.66 413.95 207.03 420.21 202.63 424.03 C 200.54 424.00 198.46 424.00 196.37 424.03 C 194.08 421.90 192.45 419.23 191.05 416.46 C 190.97 413.73 190.66 410.90 191.74 408.31 C 191.82 407.84 191.99 406.90 192.07 406.42 C 193.54 404.95 195.00 403.48 196.45 402.00 Z" />
<path fill="#8c8a8c" opacity="1.00" d=" M 222.90 539.91 C 224.11 539.96 225.32 539.99 226.54 540.02 C 229.53 541.86 232.53 544.16 233.85 547.55 C 234.77 550.62 232.31 553.11 230.57 555.30 C 229.61 555.09 228.67 554.85 227.74 554.59 C 225.37 549.98 224.18 544.89 222.90 539.91 Z" />
<path fill="#8c8a8c" opacity="1.00" d=" M 189.53 924.02 C 192.25 923.93 195.05 923.74 197.67 924.66 C 198.09 924.83 198.92 925.16 199.34 925.33 C 200.70 925.65 202.08 925.95 203.45 926.26 C 204.96 926.98 206.49 927.68 208.03 928.36 C 207.99 929.36 207.96 930.38 207.93 931.42 C 207.63 931.99 207.02 933.14 206.71 933.71 C 206.14 934.02 204.99 934.64 204.41 934.95 C 199.43 935.04 194.44 934.99 189.45 935.00 C 188.63 934.17 187.80 933.35 186.98 932.55 C 187.00 930.90 187.03 929.26 187.08 927.63 C 187.92 926.43 188.74 925.23 189.53 924.02 Z" />
<path fill="#8c8a8c" opacity="1.00" d=" M 279.39 993.97 C 279.99 993.96 281.17 993.96 281.77 993.95 C 283.16 996.01 282.63 998.32 281.87 1000.50 C 279.93 1003.83 277.98 1007.38 274.36 1009.14 C 273.50 1008.10 272.63 1007.08 271.77 1006.07 C 274.33 1002.03 275.62 997.15 279.39 993.97 Z" />
<path fill="#8c8a8c" opacity="1.00" d=" M 215.48 1165.92 C 218.06 1164.36 220.59 1162.71 222.92 1160.81 C 223.94 1161.33 224.95 1161.85 225.97 1162.39 C 226.00 1162.96 226.06 1164.10 226.08 1164.67 C 224.01 1166.28 221.87 1167.80 219.76 1169.38 C 221.14 1172.04 220.89 1174.82 218.80 1177.04 C 219.53 1178.19 220.24 1179.36 221.00 1180.54 C 220.98 1181.81 220.96 1183.11 220.94 1184.42 C 220.63 1185.02 220.03 1186.21 219.73 1186.80 C 217.62 1188.82 215.54 1187.00 213.52 1185.96 C 209.39 1189.31 211.66 1195.08 210.88 1199.59 C 209.78 1201.59 207.36 1200.86 205.49 1201.09 C 204.04 1199.54 202.56 1198.05 201.04 1196.59 C 201.00 1197.57 200.92 1199.51 200.88 1200.49 C 199.87 1199.97 198.95 1199.34 198.14 1198.59 C 197.76 1195.18 197.72 1191.68 198.59 1188.35 C 199.27 1185.36 200.71 1182.63 201.41 1179.66 C 201.74 1178.11 201.99 1176.54 202.23 1175.00 C 203.33 1174.98 204.44 1174.98 205.54 1175.00 C 206.69 1173.83 207.84 1172.68 209.00 1171.54 C 209.00 1170.09 209.00 1168.65 209.00 1167.23 C 210.57 1166.98 212.15 1166.74 213.68 1166.28 C 214.13 1166.19 215.03 1166.01 215.48 1165.92 Z" />
<path fill="#8c8a8c" opacity="1.00" d=" M 186.44 1200.02 C 187.52 1199.97 188.60 1199.94 189.68 1199.93 C 190.45 1201.11 191.21 1202.31 191.99 1203.52 C 192.01 1207.81 191.96 1212.10 192.06 1216.40 C 192.36 1217.00 192.96 1218.19 193.26 1218.79 C 194.57 1219.30 195.88 1219.80 197.20 1220.33 C 197.10 1225.09 193.42 1228.56 191.29 1232.54 C 190.93 1233.56 190.57 1234.58 190.20 1235.62 C 190.12 1236.06 189.94 1236.94 189.86 1237.39 C 189.56 1238.04 188.95 1239.36 188.65 1240.01 C 187.13 1239.99 185.61 1239.98 184.10 1240.00 C 184.01 1239.42 183.84 1238.27 183.75 1237.69 C 182.59 1234.75 183.00 1231.55 183.01 1228.49 C 181.64 1225.80 179.38 1223.81 176.91 1222.16 C 174.73 1220.75 175.11 1217.82 174.98 1215.60 C 177.88 1209.79 181.61 1204.39 186.44 1200.02 Z" />
<path fill="#8c8a8c" opacity="1.00" d=" M 164.91 1251.25 C 168.61 1248.08 174.37 1248.08 178.08 1251.24 C 178.05 1252.41 178.03 1253.61 178.02 1254.81 C 174.76 1256.39 171.10 1256.04 167.60 1255.94 C 166.95 1255.61 165.66 1254.96 165.02 1254.63 C 164.98 1253.49 164.94 1252.36 164.91 1251.25 Z" />
</g>
</svg>
