<?xml version="1.0" encoding="UTF-8" standalone="no"?>
<svg
   xmlns:dc="http://purl.org/dc/elements/1.1/"
   xmlns:cc="http://creativecommons.org/ns#"
   xmlns:rdf="http://www.w3.org/1999/02/22-rdf-syntax-ns#"
   xmlns:svg="http://www.w3.org/2000/svg"
   xmlns="http://www.w3.org/2000/svg"
   xmlns:xlink="http://www.w3.org/1999/xlink"
   xmlns:sodipodi="http://sodipodi.sourceforge.net/DTD/sodipodi-0.dtd"
   xmlns:inkscape="http://www.inkscape.org/namespaces/inkscape"
   width="1102.439"
   height="1040.6631"
   viewBox="-75 -40 146.99186 138.75507"
   id="svg2"
   version="1.1"
   inkscape:version="0.48.4 r9939"
   sodipodi:docname="20140527064651!Flag_map_of_Pakistan.svg">
  <metadata
     id="metadata31">
    <rdf:RDF>
      <cc:Work
         rdf:about="">
        <dc:format>image/svg+xml</dc:format>
        <dc:type
           rdf:resource="http://purl.org/dc/dcmitype/StillImage" />
      </cc:Work>
    </rdf:RDF>
  </metadata>
  <defs
     id="defs29">
    <inkscape:perspective
       sodipodi:type="inkscape:persp3d"
       inkscape:vp_x="0 : 300 : 1"
       inkscape:vp_y="0 : 1000 : 0"
       inkscape:vp_z="900 : 300 : 1"
       inkscape:persp3d-origin="450 : 200 : 1"
       id="perspective33" />
    <inkscape:perspective
       id="perspective2847"
       inkscape:persp3d-origin="0.5 : 0.33333333 : 1"
       inkscape:vp_z="1 : 0.5 : 1"
       inkscape:vp_y="0 : 1000 : 0"
       inkscape:vp_x="0 : 0.5 : 1"
       sodipodi:type="inkscape:persp3d" />
    <inkscape:perspective
       id="perspective3724"
       inkscape:persp3d-origin="0.5 : 0.33333333 : 1"
       inkscape:vp_z="1 : 0.5 : 1"
       inkscape:vp_y="0 : 1000 : 0"
       inkscape:vp_x="0 : 0.5 : 1"
       sodipodi:type="inkscape:persp3d" />
    <inkscape:perspective
       id="perspective2835"
       inkscape:persp3d-origin="0.5 : 0.33333333 : 1"
       inkscape:vp_z="1 : 0.5 : 1"
       inkscape:vp_y="0 : 1000 : 0"
       inkscape:vp_x="0 : 0.5 : 1"
       sodipodi:type="inkscape:persp3d" />
    <inkscape:perspective
       id="perspective2848"
       inkscape:persp3d-origin="0.5 : 0.33333333 : 1"
       inkscape:vp_z="1 : 0.5 : 1"
       inkscape:vp_y="0 : 1000 : 0"
       inkscape:vp_x="0 : 0.5 : 1"
       sodipodi:type="inkscape:persp3d" />
    <inkscape:perspective
       id="perspective2861"
       inkscape:persp3d-origin="0.5 : 0.33333333 : 1"
       inkscape:vp_z="1 : 0.5 : 1"
       inkscape:vp_y="0 : 1000 : 0"
       inkscape:vp_x="0 : 0.5 : 1"
       sodipodi:type="inkscape:persp3d" />
    <inkscape:perspective
       id="perspective3609"
       inkscape:persp3d-origin="0.5 : 0.33333333 : 1"
       inkscape:vp_z="1 : 0.5 : 1"
       inkscape:vp_y="0 : 1000 : 0"
       inkscape:vp_x="0 : 0.5 : 1"
       sodipodi:type="inkscape:persp3d" />
    <inkscape:perspective
       id="perspective3622"
       inkscape:persp3d-origin="0.5 : 0.33333333 : 1"
       inkscape:vp_z="1 : 0.5 : 1"
       inkscape:vp_y="0 : 1000 : 0"
       inkscape:vp_x="0 : 0.5 : 1"
       sodipodi:type="inkscape:persp3d" />
    <inkscape:perspective
       id="perspective2841"
       inkscape:persp3d-origin="0.5 : 0.33333333 : 1"
       inkscape:vp_z="1 : 0.5 : 1"
       inkscape:vp_y="0 : 1000 : 0"
       inkscape:vp_x="0 : 0.5 : 1"
       sodipodi:type="inkscape:persp3d" />
  </defs>
  <sodipodi:namedview
     pagecolor="#ffffff"
     bordercolor="#666666"
     borderopacity="1"
     objecttolerance="10"
     gridtolerance="10"
     guidetolerance="10"
     inkscape:pageopacity="0"
     inkscape:pageshadow="2"
     inkscape:window-width="1280"
     inkscape:window-height="1001"
     id="namedview27"
     showgrid="false"
     inkscape:zoom="0.5"
     inkscape:cx="500.16142"
     inkscape:cy="604.57364"
     inkscape:window-x="-8"
     inkscape:window-y="-8"
     inkscape:window-maximized="1"
     inkscape:current-layer="svg2" />
  <path
     style="fill:#ffffff;stroke-width:0.01333333000000000;stroke-miterlimit:4;stroke-dasharray:none;stroke:none"
     d="m -74.733323,32.699977 0,0.13333 3.59168,4.91667 0.26249,0 0.13333,0.13333 0,0.2 -0.0667,0.39583 -0.13333,0.2 0,0.2 0.26667,0.4 0.2,0.13334 0.0667,0.2 0.0667,0.2625 0,0.27083 0.13333,0.12917 0.19583,0.13333 0.13333,0.13333 0,0.2 0.13751,0.13334 0.12916,0 0.0667,0.2 -0.19583,0.2625 -0.0708,0.20416 0.33333,0.2625 0.0667,0.2 0.33334,1.0625 0.59584,0.99584 0.46666,0.6 0.4,0.4625 0.59584,0.8 0.66667,0.6625 0.46667,0.33333 0.32916,0 0.26666,0.26667 0.46667,0.13333 0.66249,0.2 0.4,0.0667 0.72918,0.39583 0.8,0.13334 0.4625,0.33333 0.33334,0.33333 0.26666,0.13334 0.12916,0.39583 0.4,0.53333 0.4,0.39584 0.53334,-0.13334 1.06249,-0.0625 0.13333,0.2625 0,0.53334 -0.0708,0.4 -0.0625,0.4625 -0.2,0.46666 0,0.33334 0,0.46666 0.0667,0.6625 0.19584,0.8625 0.2,0.6 0,0.6625 -0.0625,0.6 0,0.66667 0,0.4625 0,0.6 -0.0667,0.32917 -0.33333,0.73333 -0.26667,0.2 0,0.0625 0.13334,0.26667 0.0667,0.2 -0.13334,0.2 -0.26666,0.13333 0.13333,0.13333 0.2,0.12917 0.26667,0.13333 0.26666,0 0.39584,0.1375 0.26667,0.0625 0.26667,0 0.2,0 0.4625,-0.13333 0.53334,-0.12917 0.33333,0 0.26249,0 0.20418,-0.0708 0.26249,0 0.2,0.0708 0.2,0.2625 0.13333,0 0.46667,0.4 0.0625,0.4 0,0.33334 -0.2,0 -0.19583,0.2 -0.26666,0.39583 0,0.33333 0,0.99584 0.0667,0.13333 0.2,0.19583 -0.13334,0.270837 -0.33333,0.13333 -0.26667,0.19583 0,0.26667 -0.19582,0.72917 -0.13334,0.93333 -0.1375,0.2 -0.52916,-0.0667 -0.2,0 -0.39584,-0.0667 -0.33334,-0.1375 -0.4,0 -0.6,0 -0.4625,0 -0.53334,-0.0625 -0.4,0 -0.19582,0.2 -0.26667,0.13333 -0.2,0 -0.33333,0.13334 -0.2,0.0625 -0.2625,0.1375 -0.26666,-0.0708 -0.33334,0 -0.4,0.0708 -0.2625,0 -0.4,0.0625 -0.0667,0.2 -0.39584,0 -0.2,0.13334 -0.26667,0 -0.2,0.26666 0,0.32918 -0.26667,0.33333 -0.13333,0.13333 0,0.13334 0.0667,0.2 0,0.13333 -0.13334,0.13333 -0.26249,-0.0667 -0.6,-0.26666 -0.33333,0 -0.0667,0.2 -0.0667,0.2 -0.13333,0.19584 -0.4625,0.13749 -0.46666,0.19584 -1.46251,0.4 -0.26667,0.33333 -0.2625,1.19583 -0.26667,1.39583 -0.2,0.99584 0,0.4 -0.46667,0 -0.39582,0.0625 -0.0667,0.27082 0,0.46251 0.0667,0.26667 0.13333,0.13333 0,0.2 -0.2,0.2 -0.26667,0.12916 0,0.2 0.0667,0.2 -0.13333,0.13333 0,0.26667 -0.13333,0.46667 -0.0667,1.125 -0.13334,0.86666 -0.39582,0.72918 -0.13334,0.26666 0.13334,0.13334 0.2,0 0.32916,0 0.33333,0.0667 0.13333,0.0667 0.26667,0.13333 0.2,-0.0667 0.19583,0 0,0.12916 -0.13334,0.27084 -0.26249,0.26249 -0.2,0.33333 -0.0667,0.26667 0.0667,0.2 0.12916,0.13333 0.46667,-0.0708 0.4,0.0708 0.19584,-0.13333 0,-0.2 0.27082,-0.26667 0.33334,-0.13333 0.12917,-0.0667 0.4,0 0.72917,0.2 0.46667,0.13334 0.0667,-0.13334 -0.0667,-0.0667 -0.2,-0.2 -0.0667,-0.26667 0.0667,-0.26249 0.4,-0.13333 0.26249,-0.0667 0.6,-0.0667 0.6625,0.26666 0.20417,0.2625 0.0667,0.2 -0.27084,0.26666 -0.12916,0.13334 -0.0667,0.0667 0.32916,0.13333 0.46667,0.0667 0.33333,0 0,-0.13751 -0.33333,-0.12916 -0.13334,-0.2 0,-0.13333 0.33334,-0.4 0.66666,-0.12916 0.32918,-0.0708 0.13333,-0.12916 -0.13333,0 0.0667,-0.0667 0.33333,-0.0667 0.79584,0 1.59583,0.0667 1.39582,0.26667 0.72918,0.2 0.46666,0 0.46667,-0.27084 0.33333,-0.0625 0.72918,0.13333 0.46249,0.26249 0.73333,0.0667 0.59583,0.0667 0.53333,0.26667 0.33334,0 0.33333,-0.0667 0.0625,-0.13333 -0.19584,-0.26249 -0.2,-0.2 -0.13333,-0.2 0.0667,-0.0667 0.2,-0.26667 0.39584,-0.33333 0.8,-0.26667 0.92916,-0.0625 0.53334,0.13333 0.2,0 0.32916,0.19584 0.53334,0.2 0.2,0.0667 0.46666,0 0.4625,0.0667 0.2,-0.0667 0.4,-0.0667 0,-0.26667 0,-0.2 -0.27083,-0.2 -0.2625,0.0708 -0.13333,-0.0708 -0.26667,-0.0625 0,-0.13333 0.13333,0 0.26667,-0.13333 0.2,-0.0667 0.13333,0 0.12917,0.0667 0.2,0 0.46667,-0.0667 0.13333,0.0667 0.13333,0.13333 -0.26666,0.0625 -0.0667,0 -0.26667,0 -0.2,0.13333 0,0.0708 0,0.0667 0.0667,0.19584 0.13333,0.13334 0.0667,0.13333 -0.13333,0.13333 0,0.2 0.13333,0 0.4,0.0667 0.39584,0.0667 0.2,0 0.2,0 0.13333,0.0667 0.33333,0.2 0.39584,0.0625 0.13333,0 0.1375,0.2 0.2625,0.13334 0.26667,0.13333 0.4,0 0.13333,0 0.19583,-0.13333 0.0667,-0.13334 0.26667,0 0.13333,0.0667 0.26667,0.0667 0.26667,0.33334 0,0.2 -0.13334,0.26666 0.0625,0.12916 0.0708,0.0708 0.32917,0 0.26666,0 0.26667,-0.2 0.0667,-0.13333 -0.26666,0 -0.0667,-0.0708 -0.13334,-0.12916 0.0708,-0.4 0.12917,-0.13333 0.26667,-0.2 0.2,-0.2 0.46666,-0.0625 0.2625,0 0.53334,0 0.6,-0.0667 0.2625,0 0.2,0.12916 0.4,0.2 0.4625,-0.0667 0.26666,0.0667 0.13334,0.0708 0.2125,0.10416 0,-43.641667 -1.075,-0.25833 -1.19584,-0.13334 -1.0625,0 -1.13333,0.0708 -0.59583,0.12917 -0.33334,0 -0.72916,0.26667 -0.6,0.13333 -0.33334,0.33333 -0.32916,0.4 -0.26667,0.39584 -0.33333,0 -0.59584,-0.33334 -1,-0.33333 -1.12916,-0.32917 -1.79167,-0.4 -9.70417,0.53334 -0.46249,-0.0667 -13.95835,-5.51667 z"
     id="rect4" />
  <comment
     id="comment12">rotation angles = -arctan(8/9)</comment>
  <path
     style="fill:#01411c;stroke:none;fill-opacity:1"
     d="m 45.145847,-39.800023 -0.4,0.13333 -0.39584,0.2 -0.2,0.2 0.13334,0.2 -0.2,0.2 -0.0667,-0.2 -0.4625,-0.13333 -0.0708,0 -0.33334,0 -0.32916,0.2 -0.26667,0.26666 -0.33333,0.2 -0.2625,0.12917 -0.2,0.26667 -0.33334,0.26666 -0.0667,-0.2 -0.4,0 -0.19583,0.0667 0,0.4 0,0.2625 -0.46667,0.13334 -0.4,0.0667 -0.19583,-0.0667 -0.33333,-0.19584 -0.53334,-0.26666 -0.33333,0 -0.26667,-0.13334 -0.59583,0 -0.39583,0.0667 -0.6,-0.2 -0.004,0 c 0,0 -0.13001,0.20022 -0.39584,0.26667 -0.26549,0.0665 -0.2625,0.26667 -0.2625,0.26667 l -0.33333,-0.0667 -0.2,-0.13334 -0.2,-0.0667 -0.6,0 -0.46667,0.12917 -0.72916,0.1375 -0.4625,0 -0.6,0 -0.33334,0 -0.39583,0.2625 -0.46667,0 -0.33333,0 -0.26667,0.13333 -0.52916,0.13334 -0.33334,0 -0.39583,0 -0.53333,0 -0.53334,0.13333 -0.59583,0.0667 -0.26667,0.2 -0.2,0.26667 -0.33333,0.13333 -0.52917,0.0667 -0.33333,-0.0667 -0.39583,0.2 -0.40417,0.19583 -0.4625,0.0667 -0.33333,0.0667 0.0667,0.2 0.26666,0.2 0,0.2625 -0.13333,0 -0.26667,0 -0.26666,0 -0.19584,0.20417 -0.33333,0.12917 0,0.2 0,0.2 -0.2,0.0667 -0.26667,0.13333 -0.2,0.26667 -0.33333,0.13333 -0.12917,0.19583 -0.53333,0.2 -0.4625,0 -0.13333,0 -0.0667,0.2 0.2,0.2 0.0625,0.32917 0,0.20417 -0.12917,0.12916 -0.2,-0.0625 -0.2,-0.0667 -0.0667,-0.20416 -0.33333,-0.2625 -0.39584,-0.0667 -0.4,0.0667 0,0.2625 -0.0667,0.27083 -0.13333,0.13333 -0.26667,0.12917 0.0667,0.13333 0.0667,0.0667 0.13334,0.13334 -0.0667,0.2 -0.33334,0 -0.19583,0.13333 -0.2,0.19583 -0.13333,0.13334 -0.33334,0.4 -0.0667,0.13333 -0.13333,0.13333 -0.2,0 -0.19583,0 -0.2,0.33334 -0.0708,0.33333 -0.19584,0.0625 -0.33333,0.2 -0.0667,0.13333 -0.0667,0.2 -0.2,0.26667 -0.12917,0.0667 0,0.2625 0.12917,0.0708 0.2,0.19583 0.26667,0.33334 0.46666,0.13333 0.2625,0.13333 0.2,0.13334 0.13334,0.13333 0,0.13333 0,0.2 0.13333,0.12917 0.2,0 0.2,0.2 0.19583,0.4 0,0.2 0.2,0.13333 -0.0625,0.2 0.13334,0.19584 0.19583,0.13333 0.13333,0.0667 0,0.13333 0,0.26667 0,0.2 -0.13333,0.2 -0.0667,0.2 0.0667,0.19583 0.2,0.0667 0.0667,0.13334 0.2,0.0667 0.2,0.13333 0.12917,0.26667 0,0.13333 -0.0625,0.12917 -0.2,0 0.13333,0.13333 0.0667,0.2 0.0625,0.26667 0.2,0.13333 0.20417,0.26667 0,0.2 -0.20417,0.32916 -0.2,0.1375 -0.19583,0.0625 -0.13334,0.13334 -0.2,0 -0.0667,0.13333 -0.0667,0.26667 0.33334,0.26666 0.2,0.2625 0.2625,0.2 0.0667,0.13334 0.26666,0 0,0.13333 0,0.26667 -0.13333,0.39583 -0.2625,0.20417 -0.26667,0.0625 -0.2,0.13333 -0.2,0.46667 0.0667,0.2 0.13334,0.2 -0.26667,0.19583 -0.0667,0.13333 -0.0208,0.0708 -0.1125,0.32917 -0.4,0.2 -0.52917,0.2625 -0.46666,0.13333 -0.2,0.4 -0.12917,0.33334 0,0.26666 -0.2,0.2625 -0.26667,0.13334 -0.26666,0.26666 -0.4625,0.4 -0.27084,0.13334 -0.12916,0.13333 0,0.4 0,0.39583 0,0.26667 -0.2,0.2 -0.33334,-0.0708 -0.32916,0.0708 0,0.32917 0,0.33333 -0.0708,0.2 0.33333,0.2 0.26667,0.2 0.2,0.33333 0.2625,0.19584 0.27083,0.0667 0.13333,0.0667 0,0.33333 0,0.26667 -0.13333,0.0625 -0.13333,0.27083 -0.0667,0.13333 0,0.1291696 0.0667,0.2 0.19583,0.0667 0.0708,0.13333 -0.13333,0.13333 0.13333,0.32917 -0.20417,0.27083 -0.12916,0 -0.26667,0.19584 0,0.26666 0.19583,0.4 -0.2625,0.12917 -0.33333,0 -0.26667,0.13333 -0.2625,0.27084 -0.2,0 -0.2,-0.0708 -0.2,0 0,0.26666 -0.0667,0.2 -0.39583,0 -0.1375,0 -0.13333,0.0667 -0.2625,0.13334 -0.4,-0.13334 -0.4,0 -0.4625,0.0667 -0.33334,0.0667 -0.4,0 -0.32916,0.0667 -0.33334,0 -0.46666,-0.0667 -0.13334,-0.2 -0.4625009,0.0667 -0.33333,-0.13333 -0.19584,0 -0.33333,-0.13333 -0.33333,-0.13334 -0.33334,-0.13333 -0.46666,-0.0667 -0.39584,0 -0.33333,-0.13333 -0.59583,0 -0.4,0.13333 -0.13334,0.0667 0.13334,0.26667 0,0.13333 -0.26667,0.2 -0.13333,0.13333 0.0667,0.2 0.2,0.2 0.13333,0.19584 0.0667,0.1375 0.0625,0.2625 0.2,0.26666 0.0708,0.2 0.19584,0.13334 0,0.2625 0.13333,0.0667 0.2,0.13333 0.2625,0.0667 0.53333,0.13333 0.26667,-0.0667 0.13333,0.33334 0,0.2 0.0667,0.19583 0.13333,0.0667 0.2,0.20417 -0.0667,0.32916 -0.0667,0.53334 -0.13333,0.32916 0.13333,0.13334 0.13334,0.13333 0,0.26667 0.2625,0 0.26666,0.26666 0.1375,0.19584 0.32917,0.33332996 0.0667,0.26667 0,0.46666 -0.33333,0.0667 -0.13334,0.2 -0.39583,0.4625 -0.26667,0.0667 -0.2,0.13334 -0.13333,0.2 -0.13333,0.20000004 -0.26667,0 -0.2,-0.0708 -0.19583,0.0708 0,0.2 -0.2,0.2625 -0.0667,0.13333 -0.26667,0 -0.13333,0 -0.2625,0.2 -0.33334,0.2 -0.33333,0.13333 -0.2,0 -0.2,-0.2 -0.26667,-0.2 -0.13333,0 -0.2625,0.13334 -0.26666,0.33333 -0.2,-0.0667 -0.59584,-0.0667 -0.53333,0.13333 -0.2,0.2 -0.33333,0.32917 -0.0667,0.26667 0,0.33333 0.0667,0.39583 0.0667,0.2 -0.0667,0.33334 -0.0667,0.0667 -0.2,0.13333 -0.12917,0.26667 -0.13333,0.2625 -0.33334,0.2 -0.13333,0.13333 0.13333,0.26667 0.2,0.13333 0.13334,0.13333 0.0625,0.19584 0,0.20416 0.0708,0.26251 -0.2,0.4 -0.4,0.46667 -0.13334,0.33333 -0.40000006,0 -0.19583,0.13333 -0.26667,0.12917 -0.0667,0.4 -0.13333,0.4 0,0.4625 0.2,0.26667 0.12917,0.26666 0.0708,0.2666704 0,0.19583 -0.0708,0.27084 -0.0625,0.32916 0.13333,0.26667 -0.13333,0.33333 -0.0667,0.32917 0,0.1375 0.0667,0.2625 0.13333,0.26667 0,0.33333 0.13333,0.4625 0.2,0.33333 0,0.3375 0,0.0583 -0.33333,0.13334 -0.2,0.33333 -0.26667,0.13333 -0.2,0.13334 0,0.2 0,0.26666 -0.33333,0.0667 -0.13333,0.2625 -0.12917,0.33334 -0.33333,0.26666 -0.19999994,0.13334 -0.13334,0.19583 -0.19583,0.2 -0.40417,0.20417 -0.19583,0 -0.4,0.0625 -0.46667,0.26666 -0.39583,0.2 -0.26667,0 -0.2,-0.46666 -0.0667,-0.19584 -0.2625,-0.13333 -0.26666,-0.4 0,-0.33333 -0.26667,-0.26667 -0.4,-0.0667 -0.2625,-0.0625 0,-0.13333 -0.27083,-0.2 -0.2625,-0.13334 -0.4,0.26667 -0.4625,0.0667 0,0.0625 0.2625,0.13333 0.2,0.0667 0.13333,0 0.33333,0.0708 0.13334,0.19584 -0.13334,0.2 -0.26666,0 -0.4,-0.13334 -0.33334,-0.0667 -0.39583,-0.13333 -0.26667,-0.0625 -0.6625,0 -0.2,-0.2 -0.26666,-0.13333 -0.13334,-0.27084 -0.4,0 -0.2,0.1375 -0.13333,0.26667 -0.2625,0.32917 -0.3333291,0.2 -0.0667,0.2 0.0667,0.13333 0,0.2 -0.2,0 -0.19584,0 -0.13333,0.12917 -0.2,0.26666 -0.33333,0.1375 -0.33334,0 -0.39583,0 -0.4,0.39584 -0.13333,0.26666 -0.4,0.26667 -0.4,0.13333 -0.39584,0 -0.4,-0.13333 -0.46666,0 -0.0625,0.0625 0.2,0.2 0.0625,0.2 0.13333,0.13333 -0.0667,0.33334 0,0.13333 0.2,0.13333 0.26667,0.13334 0.19583,0 0.40417,0 0.39583,-0.0708 0.2,0.2 0.0667,0.33333 -0.2,0.26667 -0.4625,0 -0.26667,0.26666 -0.53333,0.39584 -0.46667,0 -0.2625,0.13333 -0.4,0.13333 -0.6625,0.13334 -0.66666,0.0667 -0.4,0.0667 -0.32917,0 -0.33333,-0.13334 -0.26667,-0.0667 -0.46667,-0.13333 -0.39583,0 -0.4,0 -0.26667,-0.12917 0,-0.27083 0.13334,-0.19583 -0.2,-0.13333 -0.32917,-0.0667 -0.6,0.13333 -0.66667,0.2625 -0.2625,0.4 -0.26666,0.2 -0.26667,0.0667 -0.39583,0.0667 -0.20417,0.32917 0,0.40416 -0.12917,0.52917 -0.33333,0.2 -0.26667,0.33333 -0.2,0.2625 -0.4625,0.33334 -0.66666,0.13333 -0.6625,0.13333 -0.46667,1.2625 -0.59584,2.39167 0,0.2 0.2625,0.4625 0.26667,0.27083 0,0.2625 0.0667,0.33334 -0.13334,0.33333 -0.13333,0.2625 -0.0667,1.52917 -0.2,0.2 -0.2,0.26666 -0.13333,0.4 -0.12917,0.39584 -0.0667,0.4 0.32917,0.33333 0.66666,0.6625 -0.0667,0.46667 -0.8625,0.72916 -10.89583,2.85834 -0.40417,-0.0667 -0.31666,-0.075 0,43.641657 0.0542,0.025 0.33333,0 0.0625,-0.12916 0.13333,-0.27084 0,-0.26249 0.33334,-0.26667 0.26666,0 0.26667,0.13333 0.13333,-0.0667 0.32917,-0.0667 0.20417,-0.0667 0.32916,0.0667 0,0.13334 0,0.13333 0.13334,0 0.13333,0 0.46667,-0.26667 0.32916,0.0667 0.2,0.0667 0.13334,0.0667 0.4625,0.2 0.46666,0.0667 0.26667,0.13334 0.26667,-0.13334 0.2,-0.26666 0.59583,-0.2 0.26667,-0.0667 0.39583,-0.13333 0.1375,0 0.72917,0 0.52916,-0.0667 0.4,-0.0667 0.26667,-0.12918 0.4625,0.0625 0.20417,0.0667 0.4625,-0.0667 0.26666,-0.19584 0.33334,0 0.53333,0.0625 0.65833,0.13334 0.8,0.4 0.13334,0.13333 0.2,-0.0667 -0.13334,-0.26667 -0.2,-0.13333 -0.13333,-0.0667 0.2,-0.26251 0,-0.0708 -0.4,-0.13333 -0.2625,-0.0625 -0.0708,-0.2 -0.2625,-0.13333 -0.2,-0.2 -0.13334,0 -0.4,0 -0.4,0.26666 -0.52916,0.32918 -0.59584,0.0708 -0.33333,-0.0708 0,-0.12918 0.33333,0 0.19584,-0.33333 0.2,-0.4 0.26666,-0.2 0.33334,-0.0625 0.4,-0.0667 0.12916,0.0667 0.6,0 0.0667,-0.0667 0.13334,-0.0708 0.0625,0.0708 0,0.2 0.46666,0.0625 0.13334,0.0667 0.0667,0.13333 0.26666,0.2 0.13334,0.26667 0.32916,0 0.13334,0.0667 0.0667,0.26667 0,0.13333 0.0708,0.26251 0.0625,0.13333 0.26666,0.26667 -0.0667,0.26666 -0.33333,0 -0.2,0.0667 0.2,0.19583 0.0708,0.13333 0.13333,0.2 0.4625,0.26667 0.19584,0.33333 0.60417,0.33334 0.0625,0.2 0.13333,0.39582 0,0.33334 -0.33333,0.2625 0,0.2 -0.0625,0.26667 0,0.26667 0,0.4 0,0.2 -0.2,0.52917 -0.13334,0.13333 0.13334,0.2 0.12916,0.13334 -0.22083,0.12916 -0.1125,0.0708 0,0.12916 0,0.13333 -0.19583,0.2 0.13333,0 0.2,0 0.39583,0.0708 0.13334,-0.13751 0.2,0 0.2,0 0.13333,0 0.26667,0.13751 0.12916,-0.13751 0.33334,0 0.0708,0 0.19583,0 0.0667,0.13751 0.4,0.19583 0.12916,0.0667 0.2,0 0,-0.0667 0.13334,-0.13334 0.13333,0.0667 0.0667,0.2 0.46667,0.26667 0.2625,0.13333 0,-0.2 0,-0.13333 0.27083,0.0667 0.2625,0.0667 0.13333,0 0.0667,0.13333 0.0667,0.12916 0.13334,0 0.4,-0.0625 0.13333,0 0.12917,0.2 0,0.13334 -0.2625,0.12916 -0.1375,0.13333 -0.2625,0.13333 -0.0667,0.26667 -0.33333,0.13333 0,0.13334 0.0667,0.26666 0.2,0 0.33333,0.0667 0.13333,0 0.2625,0.13334 -0.2625,0.12917 -0.33333,0 -0.0667,0 0,0.13333 0.0667,0.2 0,0.13334 0.2625,0 0.1375,0.2 0,0.0667 -0.2,0.12917 0.0625,0.13333 0.0708,0.2 0.2,0.2 0.19583,0.13334 0.13333,0 0,0.13333 -0.13333,0 0.0667,0.33333 0,0.2 0,0.13334 0.33333,0 0.2,0 0.0667,0.12916 -0.13333,0.0708 -0.26667,0.12916 -0.13333,0 -0.0667,0.0667 0.13333,0.2 -0.13333,0.2 0,0.19582 0.2,0.13751 0.0667,0.13333 -0.2,0.19583 0,0.13751 0.0667,0.12916 0.13333,0.2 0.13334,0.2 0.0667,0.2625 0,0.1375 0,0.13333 0.0667,0.12917 0.0667,0.0667 0.12916,0.2 0.20417,0.26667 0,0.2 0.2625,0.0667 0.13333,0.0625 0.2,0.13333 0.13334,0.1375 0.2,0.0625 0.13333,0.0708 0.12917,0.12917 0,0.0667 -0.0625,0.26667 0.19583,0.0667 -0.0625,0.2 -0.2,0.0667 -0.13333,-0.0667 0.0667,0.0667 0.13333,0.0667 0.13333,0.12916 0.4625,0.13333 0.13334,0 0.2,0.13751 0.19583,0.0625 0,0.13333 0,0.13333 0.1375,0.0667 0.32917,0.13334 0.26666,0.0667 0.33334,0 0.0667,-0.2 -0.0667,-0.13334 -0.0667,-0.0667 -0.0667,-0.13333 0.13333,0 0.13333,0 0.26667,0.2 0.2625,0.13333 0.33333,-0.13333 0,-0.2 0.13334,-0.26249 0.0667,0 0.0667,0.12916 0.2,-0.0667 0.13333,0.0667 0,0.13333 0.26667,0.13333 0.13333,0.2 0.19583,0.13334 0.0667,-0.13334 0.2,0.0667 0.13334,0.32916 0.2,0.13334 0.0667,0 0,-0.19583 0,-0.4 0.0667,-0.32916 -0.13334,-0.46667 -0.0667,-0.2 -0.0667,-0.2 0.13334,0.13334 0.13333,0.0667 0.13333,0.0667 0,0.13333 -0.0708,0.13333 0,0.13334 0,0.12916 0.27084,0.0708 0.0625,0.26249 0.0708,0.2 -0.13333,0.13333 -0.0667,0.0667 0,0.2 -0.0708,0.13334 -0.13334,0.12916 0.0708,0.2 0.0625,0.2 0.2,-0.0667 0,-0.13334 0.13333,-0.0667 0.2,0.0667 0.0667,0.2 0.1999991,0.13334 0.26667,0.0667 0.0667,-0.33334 0.12917,-0.39582 0.0708,-0.66667 0,-0.32916 0.2,-0.2 0.2625,-0.2 0.52916,-0.26667 0.0708,0 0.13334,0 0.12916,-0.2 0.2,0 0.0708,-0.26666 0.19584,-0.0667 3.3875,-0.0625 0.13333,-3.125 -0.0625,-0.4 0.2625,-0.0667 0.2,0 0.2,0.0667 0,0.13333 0.2,0.2 0.0667,0.26667 0.0625,0.19582 0.1375,0.0708 0,-0.13333 0,-0.2 0.19583,-0.26667 0.13334,0 0.0667,-0.13333 0,-0.0667 0,-0.0667 0.2,0 0.13333,0.0667 0.13333,0.26666 0,0.2 0,0.12916 0.33334,0 0.13333,0 0.0667,-0.12916 0.4625,-0.2 0.19999994,-0.0667 0.13333,0 0.32917,0.19583 0.27083,0.0708 0.19584,0.12916 0.26666,-0.12916 0.32917,-0.0708 0.27083,-0.12916 0.26250006,-0.0667 0.33334,0 0.4,0.0667 0.4625,0 0.6,0.0667 0.4625,0 0.46666,0.0625 0.26667,0.2 0.4,0.33333 0.4,0.33334 0.32917,0.2 0.6,0 0.92916,0 0.6,0 0.72917,-0.2 0.26667,-0.0667 0,-0.19583 0.12916,-0.27084 0.1375,-0.33333 0.2625,-0.2625 0.26667,-0.0667 0.33333,-0.13333 0.2,-0.0667 0.26667,-0.0667 0.1291709,0 0.13333,-0.13333 0.4,-0.2 0.26667,-0.0625 0.2625,0 0.2,0.0625 0.0667,-0.19583 0.33333,-0.27084 0.2,0 0.39583,-0.0625 0.6,-0.13333 0.13334,0.0667 0.13333,0.2 -0.2,0.2 0,0.19582 0,0.26667 -0.0667,0.2 0.26667,0.33333 0.26666,0.2 0.2,0.0667 0.39584,0.13334 0.46666,0 0.59584,-0.13334 0.66666,-0.26666 0.2,0 0,-0.2 -0.13333,0 -0.0667,-0.13334 0,-0.2 0.4625,-0.2 0.26667,-0.26249 0.26666,0 0.0667,0.0625 0.26667,0 0.13333,0.13333 0.13334,0.0667 0,-0.39582 0.2,-0.13751 0.2625,0 0.13333,-0.19583 0,-0.0667 0.2,-0.13333 -0.33333,-0.13333 -0.2625,-0.13334 -0.46667,0 -0.13333,-0.26666 0.13333,-0.19584 0,-0.33334 -0.26667,-0.13333 0.0667,-0.26667 -0.0667,-0.13333 -0.13333,-0.26251 0.26667,-0.26666 0.26666,-0.13334 0.52917,-0.26666 0,-0.0667 -0.0625,-0.2 -0.33333,-0.33333 0,-0.32916 -0.33334,-0.6 -0.53333,-0.72916 -0.19583,-0.66667 -0.33334,-0.52917 0,-0.46667 0,-0.4 -0.33333,-0.46251 -0.0667,-0.33333 -0.46667,-0.4 -0.32917,-0.26249 -0.33333,-0.33334 0,-0.46666 -0.26667,-0.2 -0.13333,-0.33334 -0.26667,-0.32916 0,-0.33333 0,-0.46251 0,-0.93333 0,-0.72917 -0.0667,-0.4 -0.2625,-0.33334 -0.13333,0 -0.4,0.26667 -0.13333,0 -0.46667,0.2 -0.4625,-0.0667 -0.46667,0.13333 -0.32916,0.0667 -0.46667,-0.13333 -0.4,-0.0667 -0.3333309,-0.32916 -0.12917,-0.53334 -0.0667,-0.33333 -0.4,-0.33333 -0.33333,-0.26667 -0.26667,-0.53333 -0.39583,-0.39583 -0.0667,-0.46667 0.13333,-0.2625 0,-0.26667 0,-0.4 0.2,-0.39584 0.2625,-0.46667 0.2,-0.53333 0,-0.26249 -0.13333,-0.33334 0,-0.33333 0.13333,-0.13333 0.0708,-0.2625 0.0625,-0.27084 -0.13333,-0.26249 0,-0.33333 -0.0667,-0.0667 0.1375,-0.26667 0,-0.46667 0,-0.19584 -0.33334,-0.33333 -0.66666,-0.2 -0.66667,0 -1.125,0 -0.6,-0.0667 -0.46667,-0.13333 -0.26666,-0.33334 -0.2,-0.19584 -0.39584,-0.26666 -0.33333,-0.13334 -0.46667,-0.2 -0.32916,-0.0667 -0.33334,-0.2 -0.2,-0.39582 -0.0667,-0.13334 0,-0.26666 0.13334,-0.26667 0,-0.39583 0.0667,-0.66667 0.0667,-0.59583 0.26666,-0.466667 0.0667,-0.46667 0.0667,-0.4625 0.13334,-0.26666 0.39583,-0.26667 0.46667,-0.52917 0.2,-0.26666 0.4,-0.26667 0.32916,-0.13333 0.6,-0.66667 0.52917,-0.59583 0.26667,-0.52917 0.13333,-0.20417 0.46667,-0.4625 0.39583,-0.46666 0.13333,-0.33334 0.0667,-0.52916 0.26667,-0.53334 0.2,-0.72916 0.19583,-0.26667 0.1375,-0.13333 0.32917,-0.13334 0.1875,-0.25 0.0125,-0.0125 0.53333,-0.40416 0.6625009,-0.79167 0.4,-0.2 0.39584,-0.0708 0.40416,-0.12917 0.12917,0 0.46667,0.12917 0.39583,0.27083 0.4,0.39584 0.2,0.13333 0.13333,0.13333 0,0.12917 0.0667,0.1375 0,0.46667 0,0.19583 0.2,0.33333 0.33334,0.4625 0.2625,0.26667 0.2,0.1375 0.13333,0.12917 0.46667,0 0.6625,0 0.53333,-0.2 1.19583,-0.72917 1.0625,-0.46667 0.92917,-0.2 0.92917,-0.12916 0.86666,0.0625 0.92917,-0.0625 2.125,-0.86667 0.33333,-0.26667 0.13334,-0.2625 0.13333,-0.73333 0,-0.53333 0.2,-0.39584 0.39583,-0.53333 0.46667,-0.39583 0.73333,-0.73334 0.52917,-0.52916 0.26667,-0.4 0.26666,-1.39584 0.26667,-1.32916 0.0667,-0.26667 0.72917,-0.8625 0.52916,-0.2 0.46667,-0.0667 0.2,-0.33333 0.59583,-0.33334 3.45834,-1.99166 0.13333,-0.72917 0.12917,-0.4 0.33333,-0.4 0.46667,-0.39583 0.2,-0.53334 1.30416,-2.81666 0.9875,-3.95 0.0917,-0.18334 1.8375,-0.85 1.40834,-0.46666 0.325,-0.14167 0.33333,-0.32917 0.79583,-0.75 0.0958,-0.28333 -0.14166,-0.65833 -0.14167,-0.32917 -0.23333,-0.28333 -0.32917,-0.14167 -0.1875,-0.0458 -0.0958,-0.0458 0.14167,-0.1875 0.0458,-0.0958 0,-0.1375 0.19166,-0.0958 0.0458,-0.14167 0.0917,0.0458 0.14167,0 0.1875,-0.0917 0.14167,-0.14166 0.0917,-0.1875 0.14166,-0.14167 0.0958,-0.2375 0.1875,-0.1375 0.1875,-0.14167 0,-0.0917 0,-0.19166 0.05,-0.32917 0,-0.14167 0.1875,-0.1875 0.0917,-0.27916 0.14167,-0.0958 0.14167,-0.0458 0.23333,-0.14167 0.0958,-0.14167 0.1875,-0.1875 0,-0.2375 0.14167,0 0,-0.0875 0.18333,-0.19166 0.05,-0.14167 0.14167,-0.1875 0.14166,-0.0917 0,-0.14167 -0.05,-0.19166 0,-0.0917 0.2375,-0.0958 0.1875,-0.0917 0,-0.32917 0,-0.1875 0.2375,-0.1875 0.1375,-0.05 0.0917,0.05 0.19167,0.0458 0.0917,0.0458 0.0958,-0.0917 0.0458,-0.19167 0.14167,-0.22916 0.0958,-0.0958 0.27916,0 0.19167,0 0.18333,-0.14167 0.2375,-0.0917 0.0917,-0.475 0,-0.1875 0.28334,-0.14167 0.0958,0 0.23333,0 0.1875,-0.325 0.1875,-0.2375 -0.0458,-0.14166 -0.27917,-0.0917 -0.14166,-0.0458 -0.19167,0.0458 -0.1375,0.0917 -0.28333,-0.1375 -0.2375,-0.0958 0,-0.1875 0,-0.27917 0,-0.14167 0.0958,-0.14166 0.0458,-0.2375 -0.0458,-0.28334 -0.0458,-0.14166 0.0458,-0.37084 0.1875,-0.1875 0,-0.2375 0,-0.14166 0.0958,-0.14167 0.0458,-0.18333 0.1875,-0.28334 0.0958,-0.28333 0.0458,-0.2375 -0.0958,-0.1875 -0.0458,-0.18333 -0.14167,-0.19167 -0.1875,-0.0917 0.0958,-0.28333 -0.14167,-0.28334 0,-0.27916 -0.2375,-0.14167 0,-0.1875 -0.0917,-0.14167 -0.05,-0.0958 -0.0917,-0.1875 -0.14166,-0.0458 -0.0917,-0.1875 0,-0.14166 0.0458,-0.13751 0.0958,-0.0958 0.0917,-0.14167 0,-0.0958 -0.0458,-0.0917 0,-0.0958 0.0958,-0.1875 0.27916,-0.32917 0.6125,-0.47083 0.325,-0.47083 0.14167,-0.0917 0.0458,0 0.0958,0.0458 0.32917,0 0.2375,-0.0458 0.0917,-0.1375 0,-0.0958 0,-0.28334 0,-0.14166 0.14166,-0.14167 0.0917,0 0.1875,0 0.19167,0 0.0917,-0.0458 0,-0.0958 0.1875,0 0.28333,-0.0458 0.27917,-0.0958 0.14167,-0.1875 0.19166,-0.0417 0,-0.14167 0.0917,-0.1875 0.1875,-0.05 0.2375,0 0.1875,0.14167 0.0917,0.0958 0.14167,0 0.0458,-0.14166 0.0958,-0.0958 0.0917,0 0.19166,0.05 0.0917,-0.05 0,-0.14167 0,-0.14167 0.0958,-0.0917 0.23334,-0.0958 0.23333,-0.14166 0.40833,-0.0708 0.26667,-0.0625 0.0667,-0.4666704 0.12917,-0.26667 0.2,-0.26667 0,-0.52916 -0.32917,-0.26667 -0.46667,-0.32917 -0.26666,-0.1375 -0.39584,-0.0625 -0.33333,-0.20416 -0.59583,-0.0625 -0.27084,-0.4 -0.39583,-0.2 -0.26667,-0.0667 -0.4,0.4 -0.39583,0.12917 -0.2,-0.2625 -0.4,-0.2 -0.4,0.2 -0.32917,0.13333 -0.33333,0 -0.32917,-0.2 -0.27083,-0.4 -0.0625,-0.39584 0,-0.0667 0.2625,-0.46666 0.0708,-0.26667 -0.27083,-0.33333 0,-0.39584 -0.0625,-0.26666 0.13333,-0.33334 0.2,-0.39583 -0.1375,-0.13333 -0.26666,0.33333 -0.12917,0.12917 -0.46667,0.2 -0.39583,0 -0.27083,0 -0.2625,-0.26667 -0.33334,-0.0625 -0.26666,0.19583 -0.33334,0.0667 -0.2,-0.13333 -0.18333,-0.3125 -0.0125,-0.0167 0.13333,-0.33333 0.13333,-0.2 -0.0708,-0.2 -0.19583,-0.2 0,-0.13334 0.13333,-0.2 -0.13333,-0.12916 -0.26667,-0.13334 -0.4,-0.4 -0.4,-0.13333 -0.13333,-0.13333 -0.32917,-0.0625 -0.2,-0.27084 -0.2,-0.33333 -0.2625,-0.19583004 -0.46666,-0.53334 -0.2,-0.39583 0,-0.0667 0,-0.4 0.0667,-0.26667 0.26666,-0.13333 0.4625,-0.19582996 0.13334,-0.1375 0.13333,-0.39584 0,-0.33333 0,-0.33333 -0.13333,-0.2625 0.2,-0.2 0,-0.33334 0,-0.26666 -0.26667,-0.46667 -0.19583,-0.0625 -0.33334,-0.13333 -0.26666,-0.13334 -0.2,-0.0667 -0.2625,-0.2 -0.1375,-0.2 -0.13334,-0.26666 0.0708,-0.33334 0.12917,-0.4625 0.33333,-0.46666 0.4,-0.13334 0.12917,-0.2 0.33333,0 0.53334,-0.19583 0.33333,-0.4 0.26667,-0.26667 0,-0.2625 0.12916,-0.13333 0.13334,-0.26667 -0.59584,-0.26666 -0.33333,0.0667 -0.46667,-0.0667 -0.33333,0 -0.0625,0.2 -0.46667,0 -0.13333,0 -0.53333,-0.0667 -0.12917,-0.13334 -0.33333,-0.46666 -0.2,-0.2 0,-0.32917 0.0667,-0.4 0.33333,-0.0667 0.33333,-0.0667 0.13334,-0.1291696 0.0625,-0.46666 -0.13334,-0.6 -0.4625,-0.4625 -0.13333,-0.0667 -0.4,-0.26667 -0.2,-0.0667 -0.32917,0 -0.26666,-0.26667 0.26666,-0.13333 0.2,-0.2 0.32917,-0.0667 0,-0.39583 -0.2,-0.2 0.13333,-0.33334 0.4,-0.2 0.13334,-0.2 0.13333,-0.39583 -0.26667,-0.1375 0,-0.2625 0.52917,-0.26667 0.73333,-0.13333 0.6625,-0.26667 0.66667,-0.4625 0.39583,-0.2 0.53334,-0.26666 0.4,0 0.26666,0.13333 0.52917,0.26667 0.86667,0.2 0.6625,0.13333 0.33333,0.13333 0.13333,0.12917 0.2,0.0708 0.33334,-0.1375 0.32916,0 0.8625,0.1375 0.2,0.0625 0.4,0.2 0.4625,0.0667 0.13334,0.0667 0.33333,-0.0667 0.33333,-0.26667 0.33334,-0.0625 0.39583,0 0.26667,0 0.2,0.0625 0.13333,0.26667 0.2,0.13333 0.53333,0.26667 0.2,0.13333 0.32917,0.13334 0.53333,0 0.6625,0 0.99584,0.0667 0.33333,-0.0667 0.39583,0.0667 0.2,-0.0667 0.20417,-0.26667 0.39583,-0.26667 0.33334,-0.26666 0.2625,-0.33334 0.2,-0.19583 0.33333,-0.33333 0.4,-0.13334 0.53333,0 0.2625,0 0.33334,0 0.33333,-0.0667 0.39583,-0.13333 0.1375,-0.2 0.59584,-0.39583 0.33333,-0.0708 0.39583,0 0.33334,0.0708 0.4,0.0625 0.4,-0.0625 0.4625,-0.13334 0.33333,-0.2 0.13333,-0.2 0.19584,-0.4 0.4,-0.2625 0.0667,-0.33333 -0.32917,-0.2 0,-0.39583 0.19583,-0.13334 0.4,-0.1375 0.6,-0.2625 0.4625,0 0.26667,0 0.33333,-0.2 0.13334,-0.6 -0.13334,-0.39583 0,-0.33333 0.2,-0.0667 4.51667,-3.39167 0.79584,-0.32917 -0.2625,-0.0667 -0.46667,0 -0.26667,-0.0667 -0.4,-0.0667 -0.39583,-0.0667 -0.46667,0.0667 -0.33333,0.2 -0.32917,-0.13333 -0.46666,-0.26667 -0.46667,-0.2 -0.33333,0.0667 -0.52917,0.0667 -0.2625,-0.13333 -0.4,-0.19583 -0.26667,-0.2 -0.46667,0 -0.53333,-0.0708 -0.39583,-0.2625 -0.4,-0.26667 -0.26667,-0.0667 -0.2625,0.13333 -0.46667,-0.4 -0.4,-0.2625 -0.59583,-0.33333 -0.33333,0.0667 -0.13334,-0.13333 0,-0.2 -0.13333,-0.2 -0.2,-0.2 0.1375,-0.33334 0.0625,-0.39583 -0.2,0 -0.32917,0.26667 -0.2,0.0667 -0.26666,0.0625 -0.0667,0.0708 -0.2,0.2625 -0.19584,-0.0667 -0.2,0 -0.26666,0.0667 -0.0667,0.26666 -0.26667,-0.0667 -0.4,-0.0667 -0.2625,0.0667 -0.20417,0 -0.2625,-0.12916 -0.26666,-0.33334 0,-0.33333 -0.13334,-0.66667 -0.2,-0.2625 -0.4,-0.13333 -0.32916,0 -0.33334,0 -0.4,-0.13333 -0.2625,-0.46667 0,-0.33333 0.12917,-0.26667 0.20417,-0.13333 0.2625,-0.12917 0.0667,-0.2 0,-0.2 -0.0667,-0.26667 0.13333,-0.13333 0.33333,-0.0625 0,-0.2 -0.33333,-0.13333 -0.19583,-0.53334 0,-0.26666 0,-0.13333 0,-0.79584 -0.1375,-0.33333 -0.13334,-0.39583 -0.33333,-0.46667 -0.2625,-0.4 -0.0667,-0.26667 -0.33333,-0.39583 -0.73334,-0.53333 -0.72916,-0.26667 -0.4625,0 -0.53334,-0.0667 -0.32916,0 -0.13334,0.2 0.13334,0.13333 -0.40417,0 -0.32917,0.0667 -0.33333,-0.4 0,-0.33333 0,-0.32917 0,-0.6 -0.4625,-0.32916 -0.33333,-0.1375 -0.53334,-0.0625 -0.46666,0 -0.39584,-0.26667 -0.4,-0.0667 -0.52916,0 -0.4,0.13333 -0.6,0.13334 -0.19584,0.33333 -0.1375,0 -0.2625,-0.6 -0.13333,-0.2 -0.33333,-0.0667 -0.52917,0 -0.33333,-0.12917 -0.0667,-0.0708 -0.2,0 z"
     id="rect6" />
  <path
     style="fill:#ffffff"
     d="m 7.9124961,6.3458266 c -2.63406,0.83089 -5.10722,2.01674 -7.35833006,3.50417 l 0.0708,0.2583304 0,0.19584 -0.0708,0.27083 -0.0625,0.32917 0.13333,0.26666 -0.13333,0.33334 -0.0667,0.32916 0,0.1375 0.0667,0.2625 0.13333,0.26667 0,0.33333 0.13333,0.4625 0.2,0.33334 0,0.3375 0,0.0583 -0.33333,0.13333 -0.2,0.33334 -0.26667,0.13333 -0.2,0.13333 0,0.2 0,0.26667 -0.33333,0.0667 -0.13333,0.2625 -0.12917,0.33333 -0.33333,0.26667 -0.19999994,0.13333 -0.13334,0.19583 -0.19583,0.2 -0.40417,0.20417 -0.19583,0 -0.4,0.0625 -0.46667,0.26667 -0.39583,0.2 -0.26667,0 -0.2,-0.46667 -0.0667,-0.19583 -0.2625,-0.13334 -0.26667,-0.4 0,-0.33333 -0.26667,-0.26667 -0.4,-0.0667 -0.2625,-0.0625 0,-0.13334 -0.18333,-0.1375 c -0.12772,0.1489 -0.25446,0.29854 -0.37917,0.45 l 0.0958,0.0208 0.13333,0.19583 -0.13333,0.2 -0.26667,0 -0.13333,-0.0458 c -3.9109391,4.9126 -6.2416691,11.10699 -6.2416691,17.8375 0,12.09953 7.5411991,22.45859 18.2374991,26.76666 l 0.0333,-0.0375 0.52917,-0.59583 0.26667,-0.52917 0.13333,-0.20417 0.46667,-0.4625 0.39583,-0.46666 0.13333,-0.33334 0.0667,-0.52916 0.26667,-0.53334 0.2,-0.72916 0.19583,-0.26667 0.1375,-0.13333 0.32917,-0.13334 0.1875,-0.25 0.0125,-0.0125 0.53333,-0.40416 0.6625009,-0.79167 0.4,-0.2 0.39583,-0.0708 0.40417,-0.12917 0.12917,0 0.46666,0.12917 0.39584,0.27083 0.4,0.39583 0.2,0.13334 0.13333,0.13333 0,0.12917 0.0667,0.1375 0,0.46666 0,0.19584 0.2,0.33333 0.33333,0.4625 0.2625,0.26667 0.2,0.1375 0.13333,0.12916 0.46667,0 0.6625,0 0.53333,-0.2 1.19584,-0.72916 1.0625,-0.46667 0.92916,-0.2 0.92917,-0.12917 0.86667,0.0625 0.92916,-0.0625 2.125,-0.86666 0.33334,-0.26667 0.13333,-0.2625 0.0417,-0.22917 c -7.51003,0.0845 -15.0143609,-2.91616 -20.3958409,-8.88749 -9.85676,-10.93715 -8.85969,-27.68643 2.22917,-37.4083404 0.46432,-0.40707 0.94099,-0.7929 1.425,-1.1625 z"
     id="circle8" />
  <path
     style="fill:none;stroke:#01411c;stroke-width:0.40000001000000002;stroke-miterlimit:4;stroke-opacity:1;stroke-dasharray:none"
     d="m 45.145847,-39.800003 -0.4,0.13333 -0.39583,0.2 -0.2,0.2 0.13333,0.2 -0.2,0.2 -0.0667,-0.2 -0.4625,-0.13333 -0.0708,0 -0.33333,0 -0.32917,0.2 -0.26666,0.26667 -0.33334,0.2 -0.2625,0.12916 -0.2,0.26667 -0.33333,0.26667 -0.0667,-0.2 -0.4,0 -0.19583,0.0667 0,0.4 0,0.2625 -0.46667,0.13333 -0.4,0.0667 -0.19583,-0.0667 -0.33333,-0.19583 -0.53334,-0.26667 -0.33333,0 -0.26667,-0.13333 -0.59583,0 -0.39583,0.0667 -0.6,-0.2 -0.004,0 c 0,0 -0.13001,0.20021 -0.39584,0.26666 -0.26548,0.0665 -0.2625,0.26667 -0.2625,0.26667 l -0.33333,-0.0667 -0.2,-0.13333 -0.2,-0.0667 -0.6,0 -0.46667,0.12917 -0.72916,0.1375 -0.4625,0 -0.6,0 -0.33334,0 -0.39583,0.2625 -0.46667,0 -0.33333,0 -0.26667,0.13333 -0.52916,0.13333 -0.33334,0 -0.39583,0 -0.53333,0 -0.53334,0.13334 -0.59583,0.0667 -0.26667,0.19999 -0.2,0.26667 -0.33333,0.13333 -0.52917,0.0667 -0.33333,-0.0667 -0.39583,0.2 -0.40417,0.19584 -0.4625,0.0667 -0.33333,0.0667 0.0667,0.2 0.26667,0.2 0,0.2625 -0.13334,0 -0.26666,0 -0.26667,0 -0.19583,0.20417 -0.33334,0.12916 0,0.2 0,0.2 -0.2,0.0667 -0.26666,0.13333 -0.2,0.26667 -0.33334,0.13333 -0.12916,0.19584 -0.53334,0.2 -0.4625,0 -0.13333,0 -0.0667,0.2 0.2,0.2 0.0625,0.32916 0,0.20417 -0.12917,0.12917 -0.2,-0.0625 -0.2,-0.0667 -0.0667,-0.20417 -0.33333,-0.2625 -0.39583,-0.0667 -0.4,0.0667 0,0.2625 -0.0667,0.27084 -0.13334,0.13333 -0.26666,0.12917 0.0667,0.13333 0.0667,0.0667 0.13333,0.13333 -0.0667,0.2 -0.33333,0 -0.19584,0.13333 -0.2,0.19584 -0.13333,0.13333 -0.33333,0.4 -0.0667,0.13333 -0.13334,0.13334 -0.2,0 -0.19583,0 -0.2,0.33333 -0.0708,0.33333 -0.19583,0.0625 -0.33334,0.2 -0.0667,0.13334 -0.0667,0.2 -0.2,0.26666 -0.12916,0.0667 0,0.2625 0.12916,0.0708 0.2,0.19584 0.26667,0.33333 0.46667,0.13333 0.2625,0.13334 0.2,0.13333 0.13333,0.13333 0,0.13334 0,0.2 0.13333,0.12916 0.2,0 0.2,0.2 0.19584,0.4 0,0.2 0.2,0.13334 -0.0625,0.2 0.13333,0.19583 0.19583,0.13333 0.13334,0.0667 0,0.13334 0,0.26666 0,0.2 -0.13334,0.2 -0.0667,0.2 0.0667,0.19584 0.2,0.0667 0.0667,0.13333 0.2,0.0667 0.2,0.13333 0.12917,0.26667 0,0.13333 -0.0625,0.12917 -0.2,0 0.13333,0.13333 0.0667,0.2 0.0625,0.26667 0.2,0.13333 0.20417,0.26667 0,0.2 -0.20417,0.32917 -0.2,0.1375 -0.19583,0.0625 -0.13333,0.13333 -0.2,0 -0.0667,0.13333 -0.0667,0.26667 0.33333,0.26667 0.2,0.2625 0.2625,0.2 0.0667,0.13333 0.26667,0 0,0.13333 0,0.26667 -0.13334,0.39583 -0.2625,0.20417 -0.26666,0.0625 -0.2,0.13333 -0.2,0.46667 0.0667,0.2 0.13333,0.2 -0.26667,0.19583 -0.0667,0.13334 -0.0208,0.0708 -0.1125,0.32916 -0.4,0.2 -0.52916,0.2625 -0.46667,0.13334 -0.2,0.4 -0.12917,0.33333 0,0.26667 -0.2,0.2625 -0.26666,0.13333 -0.26667,0.26667 -0.4625,0.4 -0.27083,0.13333 -0.12917,0.13334 0,0.4 0,0.39583 0,0.26667 -0.2,0.2 -0.33333,-0.0708 -0.32917,0.0708 0,0.32916 0,0.33334 -0.0708,0.2 0.33333,0.2 0.26667,0.2 0.2,0.33333 0.2625,0.19583 0.27083,0.0667 0.13334,0.0667 0,0.33333 0,0.26667 -0.13334,0.0625 -0.13333,0.27083 -0.0667,0.13334 0,0.1291596 0.0667,0.2 0.19583,0.0667 0.0708,0.13334 -0.13333,0.13333 0.13333,0.32917 -0.20416,0.27083 -0.12917,0 -0.26667,0.19583 0,0.26667 0.19584,0.4 -0.2625,0.12917 -0.33334,0 -0.26666,0.13333 -0.2625,0.27083 -0.2,0 -0.2,-0.0708 -0.2,0 0,0.26667 -0.0667,0.2 -0.39584,0 -0.1375,0 -0.13333,0.0667 -0.2625,0.13333 -0.4,-0.13333 -0.4,0 -0.4625,0.0667 -0.33333,0.0667 -0.4,0 -0.32917,0.0667 -0.33333,0 -0.46667,-0.0667 -0.13333,-0.2 -0.4625009,0.0667 -0.33334,-0.13333 -0.19583,0 -0.33333,-0.13334 -0.33334,-0.13333 -0.33333,-0.13333 -0.46667,-0.0667 -0.39583,0 -0.33333,-0.13334 -0.59584,0 -0.4,0.13334 -0.13333,0.0667 0.13333,0.26666 0,0.13334 -0.26666,0.2 -0.13334,0.13333 0.0667,0.2 0.2,0.2 0.13334,0.19583 0.0667,0.1375 0.0625,0.2625 0.2,0.26667 0.0708,0.2 0.19583,0.13333 0,0.2625 0.13333,0.0667 0.2,0.13334 0.2625,0.0667 0.53334,0.13333 0.26666,-0.0667 0.13334,0.33333 0,0.2 0.0667,0.19584 0.13333,0.0667 0.2,0.20416 -0.0667,0.32917 -0.0667,0.53333 -0.13333,0.32917 0.13333,0.13333 0.13334,0.13334 0,0.26666 0.2625,0 0.26666,0.26667 0.1375,0.19583 0.32917,0.33333996 0.0667,0.26666 0,0.46667 -0.33333,0.0667 -0.13334,0.2 -0.39583,0.4625 -0.26667,0.0667 -0.2,0.13333 -0.13333,0.2 -0.13333,0.20000004 -0.26667,0 -0.2,-0.0708 -0.19583,0.0708 0,0.2 -0.2,0.2625 -0.0667,0.13334 -0.26667,0 -0.13333,0 -0.2625,0.2 -0.33334,0.2 -0.33333,0.13333 -0.2,0 -0.2,-0.2 -0.26667,-0.2 -0.13333,0 -0.2625,0.13333 -0.26667,0.33331 -0.2,-0.0667 -0.59583,-0.0667 -0.53333,0.13333 -0.2,0.2 -0.33334,0.32917 -0.0667,0.26667 0,0.33333 0.0667,0.39583 0.0667,0.2 -0.0667,0.33334 -0.0667,0.0667 -0.2,0.13333 -0.12916,0.26667 -0.13334,0.2625 -0.33333,0.2 -0.13333,0.13333 0.13333,0.26667 0.2,0.13333 0.13333,0.13333 0.0625,0.19584 0,0.20416 0.0708,0.26251 -0.2,0.4 -0.4,0.46666 -0.13333,0.33334 -0.40000006,0 -0.19583,0.13333 -0.26667,0.12917 -0.0667,0.4 -0.13333,0.4 0,0.4625 0.2,0.26666 0.12916,0.26667 0.0708,0.2666704 0,0.19583 -0.0708,0.27083 -0.0625,0.32917 0.13334,0.26667 -0.13334,0.33333 -0.0667,0.32917 0,0.1375 0.0667,0.2625 0.13334,0.26666 0,0.33334 0.13333,0.4625 0.2,0.33333 0,0.3375 0,0.0583 -0.33333,0.13333 -0.2,0.33334 -0.26667,0.13333 -0.2,0.13333 0,0.2 0,0.26667 -0.33333,0.0667 -0.13334,0.2625 -0.12916,0.33333 -0.33334,0.26667 -0.19999994,0.13333 -0.13333,0.19584 -0.19583,0.2 -0.40417,0.20416 -0.19583,0 -0.4,0.0625 -0.46667,0.26667 -0.39583,0.2 -0.26667,0 -0.2,-0.46667 -0.0667,-0.19583 -0.2625,-0.13333 -0.26666,-0.4 0,-0.33334 -0.26667,-0.26666 -0.4,-0.0667 -0.2625,-0.0625 0,-0.13334 -0.27083,-0.2 -0.2625,-0.13333 -0.4,0.26667 -0.4625,0.0667 0,0.0625 0.2625,0.13333 0.2,0.0667 0.13333,0 0.33333,0.0708 0.13334,0.19583 -0.13334,0.2 -0.26666,0 -0.4,-0.13333 -0.33334,-0.0667 -0.39583,-0.13333 -0.26667,-0.0625 -0.6625,0 -0.2,-0.2 -0.26666,-0.13334 -0.13334,-0.27083 -0.4,0 -0.2,0.1375 -0.13333,0.26667 -0.2625,0.32916 -0.3333291,0.2 -0.0667,0.2 0.0667,0.13334 0,0.2 -0.2,0 -0.19584,0 -0.13333,0.12916 -0.2,0.26667 -0.33333,0.1375 -0.33334,0 -0.39583,0 -0.4,0.39583 -0.13333,0.26667 -0.4,0.26667 -0.4,0.13333 -0.39584,0 -0.4,-0.13333 -0.46666,0 -0.0625,0.0625 0.2,0.2 0.0625,0.2 0.13333,0.13333 -0.0667,0.33333 0,0.13334 0.2,0.13333 0.26667,0.13333 0.19583,0 0.40417,0 0.39583,-0.0708 0.2,0.2 0.0667,0.33334 -0.2,0.26666 -0.4625,0 -0.26667,0.26667 -0.53333,0.39583 -0.46667,0 -0.2625,0.13334 -0.4,0.13333 -0.6625,0.13333 -0.66666,0.0667 -0.4,0.0667 -0.32917,0 -0.33333,-0.13333 -0.26667,-0.0667 -0.46667,-0.13333 -0.39583,0 -0.4,0 -0.26667,-0.12917 0,-0.27083 0.13334,-0.19584 -0.2,-0.13333 -0.32917,-0.0667 -0.6,0.13333 -0.66667,0.2625 -0.2625,0.4 -0.26666,0.2 -0.26667,0.0667 -0.39583,0.0667 -0.20417,0.32917 0,0.40417 -0.12917,0.52916 -0.33333,0.2 -0.26666,0.33333 -0.2,0.2625 -0.4625,0.33333 -0.66666,0.13334 -0.6625,0.13333 -0.46667,1.2625 -0.59584,2.39167 0,0.2 0.2625,0.4625 0.26667,0.27083 0,0.2625 0.0667,0.33333 -0.13333,0.33334 -0.13334,0.2625 -0.0667,1.52916 -0.2,0.2 -0.2,0.26667 -0.13333,0.4 -0.12917,0.39583 -0.0667,0.4 0.32917,0.33334 0.66667,0.6625 -0.0667,0.46666 -0.8625,0.72917 -10.89584,2.85833 -0.40416,-0.0667 -0.31667,-0.075 0,43.641657 0.0542,0.025 0.33333,0 0.0625,-0.12916 0.13334,-0.27084 0,-0.26249 0.33333,-0.26667 0.26667,0 0.26666,0.13334 0.13334,-0.0667 0.32916,-0.0667 0.20417,-0.0667 0.32917,0.0667 0,0.13333 0,0.13334 0.13333,0 0.13333,0 0.46667,-0.26667 0.32917,0.0667 0.2,0.0667 0.13333,0.0667 0.4625,0.2 0.46667,0.0667 0.26666,0.13333 0.26667,-0.13333 0.2,-0.26667 0.59583,-0.2 0.26667,-0.0667 0.39583,-0.13333 0.1375,0 0.72917,0 0.52917,-0.0667 0.4,-0.0667 0.26666,-0.12918 0.4625,0.0625 0.20417,0.0667 0.4625,-0.0667 0.26667,-0.19584 0.33333,0 0.53333,0.0625 0.65834,0.13334 0.8,0.4 0.13333,0.13333 0.2,-0.0667 -0.13333,-0.26667 -0.2,-0.13333 -0.13334,-0.0667 0.2,-0.2625 0,-0.0708 -0.4,-0.13334 -0.2625,-0.0625 -0.0708,-0.2 -0.2625,-0.13333 -0.2,-0.2 -0.13333,0 -0.4,0 -0.4,0.26667 -0.52917,0.32917 -0.59583,0.0708 -0.33333,-0.0708 0,-0.12917 0.33333,0 0.19583,-0.33334 0.2,-0.4 0.26667,-0.2 0.33333,-0.0625 0.4,-0.0667 0.12917,0.0667 0.6,0 0.0667,-0.0667 0.13333,-0.0708 0.0625,0.0708 0,0.2 0.46667,0.0625 0.13333,0.0667 0.0667,0.13334 0.26667,0.2 0.13333,0.26666 0.32917,0 0.13333,0.0667 0.0667,0.26667 0,0.13333 0.0708,0.26251 0.0625,0.13333 0.26667,0.26667 -0.0667,0.26667 -0.33333,0 -0.2,0.0667 0.2,0.19582 0.0708,0.13334 0.13333,0.2 0.4625,0.26666 0.19583,0.33334 0.60417,0.33333 0.0625,0.2 0.13333,0.39583 0,0.33333 -0.33333,0.26251 0,0.2 -0.0625,0.26666 0,0.26667 0,0.4 0,0.2 -0.2,0.52917 -0.13333,0.13334 0.13333,0.2 0.12917,0.13333 -0.22084,0.12916 -0.1125,0.0708 0,0.12916 0,0.13333 -0.19583,0.2 0.13333,0 0.2,0 0.39584,0.0708 0.13333,-0.1375 0.2,0 0.2,0 0.13333,0 0.26667,0.1375 0.12917,-0.1375 0.33333,0 0.0708,0 0.19583,0 0.0667,0.1375 0.4,0.19583 0.12917,0.0667 0.2,0 0,-0.0667 0.13333,-0.13333 0.13334,0.0667 0.0667,0.2 0.46666,0.26666 0.2625,0.13334 0,-0.2 0,-0.13334 0.27084,0.0667 0.2625,0.0667 0.13333,0 0.0667,0.13334 0.0667,0.12916 0.13333,0 0.4,-0.0625 0.13334,0 0.12916,0.2 0,0.13333 -0.2625,0.12916 -0.1375,0.13333 -0.2625,0.13334 -0.0667,0.26666 -0.33333,0.13334 0,0.13333 0.0667,0.26667 0.2,0 0.33333,0.0667 0.13334,0 0.2625,0.13333 -0.2625,0.12917 -0.33334,0 -0.0667,0 0,0.13334 0.0667,0.2 0,0.13333 0.2625,0 0.1375,0.2 0,0.0667 -0.2,0.12917 0.0625,0.13334 0.0708,0.2 0.2,0.2 0.19584,0.13333 0.13333,0 0,0.13333 -0.13333,0 0.0667,0.33334 0,0.2 0,0.13333 0.33333,0 0.2,0 0.0667,0.12916 -0.13333,0.0708 -0.26667,0.12916 -0.13333,0 -0.0667,0.0667 0.13333,0.2 -0.13333,0.2 0,0.19583 0.2,0.1375 0.0667,0.13334 -0.2,0.19582 0,0.13751 0.0667,0.12916 0.13333,0.2 0.13333,0.2 0.0667,0.26251 0,0.13749 0,0.13333 0.0667,0.12918 0.0667,0.0667 0.12917,0.2 0.20417,0.26666 0,0.2 0.2625,0.0667 0.13333,0.0625 0.2,0.13334 0.13333,0.13749 0.2,0.0625 0.13334,0.0708 0.12916,0.12917 0,0.0667 -0.0625,0.26667 0.19584,0.0667 -0.0625,0.2 -0.2,0.0667 -0.13334,-0.0667 0.0667,0.0667 0.13334,0.0667 0.13333,0.12916 0.4625,0.13333 0.13333,0 0.2,0.13751 0.19584,0.0625 0,0.13333 0,0.13334 0.1375,0.0667 0.32916,0.13333 0.26667,0.0667 0.33333,0 0.0667,-0.2 -0.0667,-0.13333 -0.0667,-0.0667 -0.0667,-0.13334 0.13334,0 0.13333,0 0.26667,0.2 0.2625,0.13334 0.33333,-0.13334 0,-0.2 0.13333,-0.26249 0.0667,0 0.0667,0.12916 0.2,-0.0667 0.13334,0.0667 0,0.13333 0.26666,0.13334 0.13334,0.2 0.19583,0.13333 0.0667,-0.13333 0.2,0.0667 0.13334,0.32916 0.2,0.13333 0.0667,0 0,-0.19583 0,-0.4 0.0667,-0.32916 -0.13334,-0.46666 -0.0667,-0.2 -0.0667,-0.2 0.13334,0.13333 0.13333,0.0667 0.13333,0.0667 0,0.13333 -0.0708,0.13334 0,0.13333 0,0.12916 0.27084,0.0708 0.0625,0.26249 0.0708,0.2 -0.13334,0.13334 -0.0667,0.0667 0,0.2 -0.0708,0.13333 -0.13333,0.12916 0.0708,0.2 0.0625,0.2 0.2,-0.0667 0,-0.13333 0.13333,-0.0667 0.2,0.0667 0.0667,0.2 0.1999991,0.13333 0.26667,0.0667 0.0667,-0.33333 0.12917,-0.39583 0.0708,-0.66667 0,-0.32916 0.2,-0.2 0.2625,-0.2 0.52916,-0.26666 0.0708,0 0.13333,0 0.12917,-0.2 0.2,0 0.0708,-0.26667 0.19583,-0.0667 3.3875,-0.0625 0.13334,-3.125 -0.0625,-0.4 0.2625,-0.0667 0.2,0 0.2,0.0667 0,0.13333 0.2,0.2 0.0667,0.26667 0.0625,0.19583 0.1375,0.0708 0,-0.13334 0,-0.2 0.19583,-0.26666 0.13334,0 0.0667,-0.13334 0,-0.0667 0,-0.0667 0.2,0 0.13333,0.0667 0.13333,0.26667 0,0.2 0,0.12916 0.33334,0 0.13333,0 0.0667,-0.12916 0.4625,-0.2 0.19999994,-0.0667 0.13333,0 0.32917,0.19582 0.27083,0.0708 0.19583,0.12916 0.26667,-0.12916 0.32917,-0.0708 0.27083,-0.12916 0.26250006,-0.0667 0.33333,0 0.4,0.0667 0.4625,0 0.6,0.0667 0.4625,0 0.46667,0.0625 0.26667,0.2 0.4,0.33334 0.4,0.33333 0.32916,0.2 0.6,0 0.92917,0 0.6,0 0.72917,-0.2 0.26666,-0.0667 0,-0.19582 0.12913,-0.27089 0.1375,-0.33333 0.2625,-0.26249 0.26667,-0.0667 0.33333,-0.13333 0.2,-0.0667 0.26667,-0.0667 0.1291609,0 0.13334,-0.13334 0.4,-0.2 0.26666,-0.0625 0.2625,0 0.2,0.0625 0.0667,-0.19582 0.33334,-0.27084 0.2,0 0.39583,-0.0625 0.6,-0.13334 0.13333,0.0667 0.13334,0.2 -0.2,0.2 0,0.19583 0,0.26667 -0.0667,0.2 0.26666,0.33333 0.26667,0.2 0.2,0.0667 0.39583,0.13333 0.46667,0 0.59583,-0.13333 0.66667,-0.26667 0.2,0 0,-0.2 -0.13333,0 -0.0667,-0.13333 0,-0.2 0.4625,-0.2 0.26666,-0.26249 0.26667,0 0.0667,0.0625 0.26667,0 0.13333,0.13333 0.13333,0.0667 0,-0.39583 0.2,-0.1375 0.2625,0 0.13334,-0.19583 0,-0.0667 0.2,-0.13333 -0.33334,-0.13334 -0.2625,-0.13333 -0.46666,0 -0.13334,-0.26667 0.13334,-0.19584 0,-0.33333 -0.26667,-0.13333 0.0667,-0.26667 -0.0667,-0.13333 -0.13333,-0.26251 0.26666,-0.26667 0.26667,-0.13333 0.52917,-0.26667 0,-0.0667 -0.0625,-0.2 -0.33334,-0.33333 0,-0.32916 -0.33333,-0.6 -0.53333,-0.72916 -0.19584,-0.66667 -0.33333,-0.52917 0,-0.46667 0,-0.4 -0.33333,-0.4625 -0.0667,-0.33334 -0.46667,-0.4 -0.32916,-0.26249 -0.33334,-0.33333 0,-0.46667 -0.26666,-0.2 -0.13334,-0.33333 -0.26666,-0.32916 0,-0.33334 0,-0.4625 0,-0.93334 0,-0.72917 -0.0667,-0.4 -0.2625,-0.33333 -0.13334,0 -0.4,0.26666 -0.13333,0 -0.46667,0.2 -0.4625,-0.0667 -0.46666,0.13334 -0.32917,0.0667 -0.46667,-0.13334 -0.4,-0.0667 -0.3333309,-0.32916 -0.12916,-0.53332 -0.0667,-0.33334 -0.4,-0.33333 -0.33333,-0.26667 -0.26667,-0.53333 -0.39583,-0.39583 -0.0667,-0.46666 0.13333,-0.26251 0,-0.26667 0,-0.4 0.2,-0.39583 0.2625,-0.46667 0.2,-0.53333 0,-0.2625 -0.13333,-0.33333 0,-0.33333 0.13333,-0.13334 0.0708,-0.26249 0.0625,-0.27084 -0.13333,-0.26249 0,-0.33334 -0.0667,-0.0667 0.1375,-0.26666 0,-0.46667 0,-0.19584 -0.33333,-0.33333 -0.66667,-0.2 -0.66667,0 -1.125,0 -0.6,-0.0667 -0.46666,-0.13334 -0.26667,-0.33333 -0.2,-0.19584 -0.39583,-0.26667 -0.33334,-0.13333 -0.46666,-0.2 -0.32917,-0.0667 -0.33333,-0.2 -0.2,-0.39583 -0.0667,-0.13333 0,-0.26667 0.13333,-0.26666 0,-0.39584 0.0667,-0.66666 0.0667,-0.59584 0.26667,-0.466657 0.0667,-0.46667 0.0667,-0.4625 0.13333,-0.26667 0.39583,-0.26666 0.46667,-0.52917 0.2,-0.26667 0.4,-0.26666 0.32917,-0.13334 0.6,-0.66666 0.52916,-0.59584 0.26667,-0.52916 0.13333,-0.20416 0.46667,-0.4625 0.39583,-0.46667 0.13333,-0.33333 0.0667,-0.52917 0.26667,-0.53333 0.2,-0.72917 0.19583,-0.26666 0.1375,-0.13334 0.32917,-0.13333 0.1875,-0.25 0.0125,-0.0125 0.53333,-0.40417 0.6625009,-0.79166 0.4,-0.2 0.39584,-0.0708 0.40416,-0.12917 0.12917,0 0.46667,0.12917 0.39583,0.27083 0.4,0.39583 0.2,0.13334 0.13333,0.13333 0,0.12917 0.0667,0.1375 0,0.46666 0,0.19584 0.2,0.33333 0.33334,0.4625 0.2625,0.26667 0.2,0.1375 0.13333,0.12916 0.46667,0 0.6625,0 0.53333,-0.2 1.19583,-0.72916 1.0625,-0.46667 0.92917,-0.2 0.92917,-0.12917 0.86666,0.0625 0.92917,-0.0625 2.125,-0.86666 0.33333,-0.26667 0.13334,-0.2625 0.13333,-0.73333 0,-0.53334 0.2,-0.39583 0.39583,-0.53333 0.46667,-0.39584 0.73333,-0.73333 0.52917,-0.52917 0.26667,-0.4 0.26666,-1.39583 0.26667,-1.32917 0.0667,-0.26666 0.72916,-0.8625 0.52917,-0.2 0.46667,-0.0667 0.2,-0.33334 0.59583,-0.33333 3.45833,-1.99167 0.13334,-0.72916 0.12916,-0.4 0.33334,-0.4 0.46666,-0.39584 0.2,-0.53333 1.30417,-2.81667 0.9875,-3.95 0.0917,-0.18333 1.8375,-0.85 1.40833,-0.46667 0.325,-0.14166 0.33333,-0.32917 0.79584,-0.75 0.0958,-0.28333 -0.14167,-0.65834 -0.14167,-0.32917 -0.23333,-0.28333 -0.32917,-0.14167 -0.1875,-0.0458 -0.0958,-0.0458 0.14167,-0.1875 0.0458,-0.0958 0,-0.1375 0.19167,-0.0958 0.0458,-0.14166 0.0917,0.0458 0.14166,0 0.1875,-0.0917 0.14167,-0.14167 0.0917,-0.1875 0.14166,-0.14167 0.0958,-0.2375 0.1875,-0.1375 0.1875,-0.14166 0,-0.0917 0,-0.19167 0.05,-0.32917 0,-0.14166 0.1875,-0.1875 0.0917,-0.27917 0.14167,-0.0958 0.14167,-0.0458 0.23333,-0.14167 0.0958,-0.14166 0.1875,-0.1875 0,-0.2375 0.14167,0 0,-0.0875 0.18333,-0.19167 0.05,-0.14167 0.14167,-0.1875 0.14167,-0.0917 0,-0.14166 -0.05,-0.19167 0,-0.0917 0.2375,-0.0958 0.1875,-0.0917 0,-0.32917 0,-0.1875 0.2375,-0.1875 0.1375,-0.05 0.0917,0.05 0.19166,0.0458 0.0917,0.0458 0.0958,-0.0917 0.0458,-0.19166 0.14167,-0.22917 0.0958,-0.0958 0.27917,0 0.19167,0 0.18333,-0.14167 0.2375,-0.0917 0.0917,-0.475 0,-0.1875 0.28333,-0.14166 0.0958,0 0.23334,0 0.1875,-0.325 0.1875,-0.2375 -0.0458,-0.14167 -0.27917,-0.0917 -0.14166,-0.0458 -0.19167,0.0458 -0.1375,0.0917 -0.28333,-0.1375 -0.2375,-0.0958 0,-0.1875 0,-0.27917 0,-0.14166 0.0958,-0.14167 0.0458,-0.2375 -0.0458,-0.28333 -0.0458,-0.14167 0.0458,-0.37083 0.1875,-0.1875 0,-0.2375 0,-0.14167 0.0958,-0.14167 0.0458,-0.18333 0.1875,-0.28333 0.0958,-0.28334 0.0458,-0.2375 -0.0958,-0.1875 -0.0458,-0.18333 -0.14167,-0.19167 -0.1875,-0.0917 0.0958,-0.28333 -0.14167,-0.28333 0,-0.27917 -0.2375,-0.14167 0,-0.1875 -0.0917,-0.14166 -0.05,-0.0958 -0.0917,-0.1875 -0.14166,-0.0458 -0.0917,-0.1875 0,-0.14167 0.0458,-0.13751 0.0958,-0.0958 0.0917,-0.14166 0,-0.0958 -0.0458,-0.0917 0,-0.0958 0.0958,-0.1875 0.27917,-0.32917 0.6125,-0.47083 0.325,-0.47084 0.14167,-0.0917 0.0458,0 0.0958,0.0458 0.32917,0 0.2375,-0.0458 0.0917,-0.1375 0,-0.0958 0,-0.28333 0,-0.14167 0.14166,-0.14166 0.0917,0 0.1875,0 0.19167,0 0.0917,-0.0458 0,-0.0958 0.1875,0 0.28333,-0.0458 0.27917,-0.0958 0.14167,-0.1875 0.19166,-0.0417 0,-0.14167 0.0917,-0.1875 0.1875,-0.05 0.2375,0 0.1875,0.14167 0.0917,0.0958 0.14167,0 0.0458,-0.14167 0.0958,-0.0958 0.0917,0 0.19167,0.05 0.0917,-0.05 0,-0.14167 0,-0.14166 0.0958,-0.0917 0.23332,-0.0958 0.23333,-0.14167 0.40834,-0.0708 0.26666,-0.0625 0.0667,-0.4666704 0.12917,-0.26666 0.2,-0.26667 0,-0.52917 -0.32917,-0.26666 -0.46667,-0.32917 -0.26666,-0.1375 -0.39584,-0.0625 -0.33333,-0.20417 -0.59583,-0.0625 -0.27084,-0.4 -0.39583,-0.2 -0.26667,-0.0667 -0.4,0.4 -0.39583,0.12917 -0.2,-0.2625 -0.4,-0.2 -0.4,0.2 -0.32917,0.13333 -0.33333,0 -0.32917,-0.2 -0.27083,-0.4 -0.0625,-0.39583 0,-0.0667 0.2625,-0.46667 0.0708,-0.26667 -0.27083,-0.33333 0,-0.39583 -0.0625,-0.26667 0.13333,-0.33333 0.2,-0.39584 -0.1375,-0.13333 -0.26666,0.33333 -0.12917,0.12917 -0.46667,0.2 -0.39583,0 -0.27083,0 -0.2625,-0.26667 -0.33334,-0.0625 -0.26666,0.19584 -0.33334,0.0667 -0.2,-0.13334 -0.18333,-0.3125 -0.0125,-0.0167 0.13333,-0.33333 0.13333,-0.2 -0.0708,-0.2 -0.19583,-0.2 0,-0.13333 0.13333,-0.2 -0.13333,-0.12917 -0.26667,-0.13333 -0.4,-0.4 -0.4,-0.13334 -0.13333,-0.13333 -0.32917,-0.0625 -0.2,-0.27083 -0.2,-0.33334 -0.2625,-0.19583004 -0.46667,-0.53333 -0.2,-0.39584 0,-0.0667 0,-0.4 0.0667,-0.26666 0.26667,-0.13334 0.4625,-0.19582996 0.13333,-0.1375 0.13333,-0.39583 0,-0.33334 0,-0.33333 -0.13333,-0.2625 0.2,-0.2 0,-0.33333 0,-0.26667 -0.26667,-0.46667 -0.19583,-0.0625 -0.33333,-0.13333 -0.26667,-0.13333 -0.2,-0.0667 -0.2625,-0.2 -0.1375,-0.2 -0.13333,-0.26667 0.0708,-0.33333 0.12917,-0.4625 0.33333,-0.46667 0.4,-0.13333 0.12917,-0.2 0.33333,0 0.53333,-0.19584 0.33334,-0.4 0.26666,-0.26666 0,-0.2625 0.12917,-0.13333 0.13333,-0.26667 -0.59583,-0.26667 -0.33333,0.0667 -0.46667,-0.0667 -0.33333,0 -0.0625,0.2 -0.46667,0 -0.13333,0 -0.53334,-0.0667 -0.12916,-0.13333 -0.33334,-0.46667 -0.2,-0.2 0,-0.32917 0.0667,-0.4 0.33333,-0.0667 0.33334,-0.0667 0.13333,-0.1291596 0.0625,-0.46667 -0.13333,-0.6 -0.4625,-0.4625 -0.13334,-0.0667 -0.4,-0.26666 -0.2,-0.0667 -0.32916,0 -0.26667,-0.26667 0.26667,-0.13333 0.2,-0.2 0.32916,-0.0667 0,-0.39584 -0.2,-0.2 0.13334,-0.33333 0.4,-0.2 0.13333,-0.2 0.13333,-0.39583 -0.26666,-0.1375 0,-0.2625 0.52916,-0.26667 0.73334,-0.13333 0.6625,-0.26667 0.66666,-0.4625 0.39584,-0.2 0.53333,-0.26667 0.4,0 0.26667,0.13334 0.52916,0.26666 0.86667,0.2 0.6625,0.13334 0.33333,0.13333 0.13334,0.12917 0.2,0.0708 0.33333,-0.1375 0.32917,0 0.8625,0.1375 0.2,0.0625 0.4,0.2 0.4625,0.0667 0.13333,0.0667 0.33333,-0.0667 0.33334,-0.26667 0.33333,-0.0625 0.39583,0 0.26667,0 0.2,0.0625 0.13333,0.26667 0.2,0.13333 0.53334,0.26667 0.2,0.13333 0.32916,0.13333 0.53334,0 0.6625,0 0.99583,0.0667 0.33333,-0.0667 0.39584,0.0667 0.2,-0.0667 0.20416,-0.26666 0.39584,-0.26667 0.33333,-0.26667 0.2625,-0.33333 0.2,-0.19583 0.33333,-0.33334 0.4,-0.13333 0.53334,0 0.2625,0 0.33333,0 0.33333,-0.0667 0.39584,-0.13334 0.1375,-0.2 0.59583,-0.39583 0.33333,-0.0708 0.39584,0 0.33333,0.0708 0.4,0.0625 0.4,-0.0625 0.4625,-0.13333 0.33333,-0.2 0.13334,-0.2 0.19583,-0.4 0.4,-0.2625 0.0667,-0.33334 -0.32917,-0.2 0,-0.39583 0.19584,-0.13333 0.4,-0.1375 0.6,-0.2625 0.4625,0 0.26666,0 0.33334,-0.2 0.13333,-0.6 -0.13333,-0.39584 0,-0.33333 0.2,-0.0667 4.51666,-3.39167 0.79584,-0.32916 -0.2625,-0.0667 -0.46667,0 -0.26667,-0.0667 -0.4,-0.0667 -0.39583,-0.0667 -0.46667,0.0667 -0.33333,0.2 -0.32917,-0.13334 -0.46666,-0.26666 -0.46667,-0.2 -0.33333,0.0667 -0.52917,0.0667 -0.2625,-0.13334 -0.4,-0.19583 -0.26667,-0.2 -0.46666,0 -0.53334,-0.0708 -0.39583,-0.2625 -0.4,-0.26666 -0.26667,-0.0667 -0.2625,0.13333 -0.46666,-0.4 -0.4,-0.2625 -0.59584,-0.33333 -0.33333,0.0667 -0.13333,-0.13334 0,-0.2 -0.13334,-0.2 -0.2,-0.2 0.1375,-0.33333 0.0625,-0.39583 -0.2,0 -0.32916,0.26666 -0.2,0.0667 -0.26667,0.0625 -0.0667,0.0708 -0.2,0.2625 -0.19583,-0.0667 -0.2,0 -0.26667,0.0667 -0.0667,0.26667 -0.26667,-0.0667 -0.4,-0.0667 -0.2625,0.0667 -0.20416,0 -0.2625,-0.12917 -0.26667,-0.33333 0,-0.33333 -0.13333,-0.66667 -0.2,-0.2625 -0.4,-0.13333 -0.32917,0 -0.33333,0 -0.4,-0.13334 -0.2625,-0.46666 0,-0.33334 0.12916,-0.26666 0.20417,-0.13334 0.2625,-0.12916 0.0667,-0.2 0,-0.2 -0.0667,-0.26667 0.13333,-0.13333 0.33334,-0.0625 0,-0.2 -0.33334,-0.13334 -0.19583,-0.53333 0,-0.26667 0,-0.13333 0,-0.79583 -0.1375,-0.33334 -0.13333,-0.39583 -0.33333,-0.46667 -0.2625,-0.4 -0.0667,-0.26666 -0.33334,-0.39584 -0.73333,-0.53333 -0.72917,-0.26667 -0.4625,0 -0.53333,-0.0667 -0.32917,0 -0.13333,0.2 0.13333,0.13334 -0.40416,0 -0.32917,0.0667 -0.33333,-0.4 0,-0.33334 0,-0.32916 0,-0.6 -0.4625,-0.32917 -0.33334,-0.1375 -0.53333,-0.0625 -0.46667,0 -0.39583,-0.26667 -0.4,-0.0667 -0.52917,0 -0.4,0.13334 -0.6,0.13333 -0.19583,0.33333 -0.1375,0 -0.2625,-0.6 -0.13333,-0.2 -0.33334,-0.0667 -0.52916,0 -0.33334,-0.12916 -0.0667,-0.0708 -0.2,0 z"
     id="rect6-1" />
  <path
     style="fill:none;stroke:#01411c;stroke-width:0.53333335999999998;stroke-miterlimit:4;stroke-opacity:1;stroke-dasharray:none"
     d="m -74.733333,32.699977 0,0.13334 3.59168,4.91666 0.2625,0 0.13333,0.13334 0,0.2 -0.0667,0.39583 -0.13333,0.2 0,0.2 0.26666,0.4 0.2,0.13333 0.0667,0.2 0.0667,0.2625 0,0.27084 0.13334,0.12916 0.19582,0.13334 0.13334,0.13333 0,0.2 0.1375,0.13333 0.12916,0 0.0667,0.2 -0.19582,0.2625 -0.0708,0.20417 0.33333,0.2625 0.0667,0.2 0.33333,1.0625 0.59584,0.99583 0.46667,0.6 0.4,0.4625 0.59584,0.8 0.66667,0.6625 0.46666,0.33334 0.32916,0 0.26667,0.26666 0.46667,0.13334 0.66249,0.2 0.4,0.0667 0.72917,0.39583 0.8,0.13333 0.46251,0.33334 0.33333,0.33333 0.26667,0.13333 0.12916,0.39584 0.4,0.53333 0.4,0.39583 0.53333,-0.13333 1.0625,-0.0625 0.13333,0.2625 0,0.53333 -0.0708,0.4 -0.0625,0.4625 -0.2,0.46667 0,0.33333 0,0.46667 0.0667,0.6625 0.19584,0.8625 0.2,0.6 0,0.6625 -0.0625,0.6 0,0.66667 0,0.4625 0,0.6 -0.0667,0.32916 -0.33333,0.73334 -0.26667,0.2 0,0.0625 0.13333,0.26666 0.0667,0.2 -0.13333,0.2 -0.26667,0.13334 0.13334,0.13333 0.2,0.12917 0.26666,0.13333 0.26667,0 0.39584,0.1375 0.26667,0.0625 0.26666,0 0.2,0 0.46251,-0.13333 0.53333,-0.12917 0.33334,0 0.26249,0 0.20417,-0.0708 0.2625,0 0.2,0.0708 0.2,0.2625 0.13333,0 0.46667,0.4 0.0625,0.4 0,0.33333 -0.2,0 -0.19583,0.2 -0.26667,0.39584 0,0.33333 0,0.99583 0.0667,0.13334 0.2,0.19583 -0.13333,0.270827 -0.33333,0.13334 -0.26667,0.19583 0,0.26667 -0.19583,0.72916 -0.13333,0.93334 -0.13751,0.2 -0.52916,-0.0667 -0.2,0 -0.39584,-0.0667 -0.33333,-0.1375 -0.4,0 -0.6,0 -0.46251,0 -0.53333,-0.0625 -0.4,0 -0.19583,0.2 -0.26666,0.13333 -0.2,0 -0.33334,0.13333 -0.2,0.0625 -0.26249,0.13751 -0.26667,-0.0708 -0.33333,0 -0.4,0.0708 -0.26251,0 -0.4,0.0625 -0.0667,0.2 -0.39584,0 -0.2,0.13333 -0.26666,0 -0.2,0.26667 0,0.32917 -0.26667,0.33333 -0.13333,0.13334 0,0.13333 0.0667,0.2 0,0.13333 -0.13334,0.13334 -0.26249,-0.0667 -0.6,-0.26667 -0.33334,0 -0.0667,0.2 -0.0667,0.2 -0.13333,0.19584 -0.46249,0.13749 -0.46667,0.19584 -1.46251,0.4 -0.26666,0.33334 -0.2625,1.19582 -0.26667,1.39583 -0.2,0.99583 0,0.4 -0.46667,0 -0.39582,0.0625 -0.0667,0.27083 0,0.4625 0.0667,0.26667 0.13333,0.13333 0,0.2 -0.2,0.2 -0.26666,0.12916 0,0.2 0.0667,0.2 -0.13334,0.13335 0,0.26666 -0.13333,0.46666 -0.0667,1.125 -0.13333,0.86667 -0.39583,0.72917 -0.13333,0.26667 0.13333,0.13333 0.2,0 0.32916,0 0.33333,0.0667 0.13334,0.0667 0.26666,0.13334 0.2,-0.0667 0.19583,0 0,0.12915 -0.13333,0.27085 -0.2625,0.26249 -0.2,0.33334 -0.0667,0.26666 0.0667,0.2 0.12916,0.13334 0.46667,-0.0708 0.4,0.0708 0.19584,-0.13334 0,-0.2 0.27082,-0.26666 0.33334,-0.13334 0.12917,-0.0667 0.4,0 0.72917,0.2 0.46667,0.13333 0.0667,-0.13333 -0.0667,-0.0667 -0.2,-0.2 -0.0667,-0.26667 0.0667,-0.26249 0.4,-0.13333 0.26249,-0.0667 0.6,-0.0667 0.6625,0.26667 0.20417,0.26249 0.0667,0.2 -0.27084,0.26667 -0.12916,0.13333 -0.0667,0.0667 0.32916,0.13333 0.46667,0.0667 0.33333,0 0,-0.13751 -0.33333,-0.12916 -0.13334,-0.2 0,-0.13333 0.33334,-0.4 0.66666,-0.12916 0.32918,-0.0708 0.13333,-0.12916 -0.13333,0 0.0667,-0.0667 0.33333,-0.0667 0.79584,0 1.59583,0.0667 1.39582,0.26667 0.72918,0.2 0.46666,0 0.46667,-0.27084 0.33333,-0.0625 0.72918,0.13333 0.46249,0.26249 0.73333,0.0667 0.59583,0.0667 0.53333,0.26666 0.33333,0 0.33334,-0.0667 0.0625,-0.13334 -0.19584,-0.26249 -0.2,-0.2 -0.13334,-0.20001 0.0667,-0.0667 0.2,-0.26666 0.39584,-0.33335 0.8,-0.26666 0.92917,-0.0625 0.53333,0.13333 0.2,0 0.32917,0.19584 0.53333,0.2 0.2,0.0667 0.46667,0 0.4625,0.0667 0.2,-0.0667 0.4,-0.0667 0,-0.26666 0,-0.2 -0.27083,-0.2 -0.2625,0.0708 -0.13334,-0.0708 -0.26666,-0.0625 0,-0.13334 0.13333,0 0.26667,-0.13333 0.2,-0.0667 0.13333,0 0.12917,0.0667 0.2,0 0.46666,-0.0667 0.13334,0.0667 0.13333,0.13333 -0.26667,0.0625 -0.0667,0 -0.26666,0 -0.2,0.13334 0,0.0708 0,0.0667 0.0667,0.19584 0.13333,0.13333 0.0667,0.13335 -0.13333,0.13333 0,0.2 0.13333,0 0.4,0.0667 0.39583,0.0667 0.2,0 0.2,0 0.13334,0.0667 0.33333,0.20001 0.39583,0.0625 0.13334,0 0.1375,0.2 0.2625,0.13334 0.26666,0.13333 0.4,0 0.13334,0 0.19583,-0.13333 0.0667,-0.13334 0.26667,0 0.13333,0.0667 0.26667,0.0667 0.26666,0.33334 0,0.2 -0.13333,0.26667 0.0625,0.12916 0.0708,0.0708 0.32917,0 0.26666,0 0.26667,-0.2 0.0667,-0.13334 -0.26667,0 -0.0667,-0.0708 -0.13333,-0.12916 0.0708,-0.40001 0.12917,-0.13333 0.26666,-0.2 0.2,-0.2 0.46667,-0.0625 0.2625,0 0.53333,0 0.6,-0.0667 0.2625,0 0.2,0.12916 0.4,0.2 0.4625,-0.0667 0.26667,0.0667 0.13333,0.0708 0.2125,0.0241 0,-43.468257 -1.075,-0.35173 -1.19583,-0.13333 -1.0625,0 -1.13333,0.0708 -0.59584,0.12916 -0.33333,0 -0.72917,0.26667 -0.6,0.13333 -0.33333,0.33334 -0.32917,0.4 -0.26666,0.39583 -0.33334,0 -0.59583,-0.33333 -1,-0.33334 -1.12917,-0.32916 -1.79166,-0.4 -9.70417,0.53333 -0.46249,-0.0667 -13.95835,-5.51667 -2.5e-4,-3e-5 z"
     id="rect4-7"
     sodipodi:nodetypes="ccccccccccccccccccccccccccccccccccccccccccccccccccccccccccccccccccccccccccccccccccccccccccccccccccccccccccccccccccccccccccccccccccccccccccccccccccccccccccccccccccccccccccccccccccccccccccccccccccccccccccccccccccccccccccccccccccccccccccccccccccccccccccccccccccccccccccccccccccccccccccccccccccccccccccccccccccccccccccccccccccccccccccccccccccccccccccc" />
  <g
     style="fill:#ffffff"
     id="star"
     transform="matrix(0.91264359,-0.80013995,0.81123874,0.90015746,31.446417,21.076817)">
    <g
       id="cone">
      <polygon
         id="triangle"
         points="-8,0 -8,4 0,0 "
         transform="matrix(0.95105652,0.30901699,-0.30901699,0.95105652,8,0)" />
      <use
         height="1052.3622"
         width="744.09448"
         y="0"
         x="0"
         xlink:href="#triangle"
         transform="scale(1,-1)"
         id="use17" />
    </g>
    <use
       height="1052.3622"
       width="744.09448"
       y="0"
       x="0"
       xlink:href="#cone"
       transform="matrix(0.30901699,0.95105652,-0.95105652,0.30901699,0,0)"
       id="use19" />
    <use
       height="1052.3622"
       width="744.09448"
       y="0"
       x="0"
       xlink:href="#cone"
       transform="matrix(0.30901699,-0.95105652,0.95105652,0.30901699,0,0)"
       id="use21" />
    <use
       height="1052.3622"
       width="744.09448"
       y="0"
       x="0"
       xlink:href="#cone"
       transform="matrix(-0.80901699,0.58778525,-0.58778525,-0.80901699,0,0)"
       id="use23" />
    <use
       height="1052.3622"
       width="744.09448"
       y="0"
       x="0"
       xlink:href="#cone"
       transform="matrix(-0.80901699,-0.58778525,0.58778525,-0.80901699,0,0)"
       id="use25" />
  </g>
</svg>
