<?xml version="1.0" encoding="UTF-8" ?>
<!DOCTYPE svg PUBLIC "-//W3C//DTD SVG 1.1//EN" "http://www.w3.org/Graphics/SVG/1.1/DTD/svg11.dtd">
<svg width="1000pt" height="1588pt" viewBox="0 0 1000 1588" version="1.1" xmlns="http://www.w3.org/2000/svg">
<g id="#4aadd6ff">
<path fill="#4aadd6" opacity="1.00" d=" M 940.78 0.00 L 945.38 0.00 C 949.85 0.92 954.40 1.75 958.62 3.56 C 961.15 6.04 962.71 9.33 964.71 12.24 C 970.34 21.39 976.21 30.46 980.78 40.20 C 984.29 42.98 990.51 44.56 990.51 49.89 C 990.64 52.30 991.42 54.90 990.36 57.20 C 986.91 65.16 983.09 73.20 982.18 81.93 C 981.59 86.80 983.15 91.54 984.90 96.01 C 987.75 103.31 989.45 111.10 989.55 118.94 C 989.20 125.36 985.95 131.42 986.68 137.95 C 988.68 163.98 996.44 189.88 992.53 216.12 C 990.18 229.77 989.25 243.64 986.30 257.19 C 984.86 266.35 976.92 272.47 974.22 281.12 C 972.79 285.61 971.93 290.34 972.34 295.06 C 973.49 310.65 978.71 325.58 980.45 341.09 C 980.90 343.77 979.54 346.25 978.74 348.73 C 976.90 349.14 974.97 349.24 973.25 350.01 C 970.65 352.83 968.69 356.17 966.26 359.13 C 960.83 359.12 955.43 359.65 950.01 359.48 C 946.75 360.38 944.55 363.22 943.19 366.17 C 941.62 369.49 939.19 372.46 938.16 375.99 C 939.59 385.20 944.82 393.29 950.36 400.59 C 957.70 410.30 966.53 419.05 971.93 430.09 C 975.55 437.59 977.14 446.61 974.42 454.62 C 959.09 468.88 937.67 474.30 922.33 488.63 C 921.07 493.00 922.43 497.52 922.60 501.95 C 923.13 510.93 924.59 519.99 923.33 528.96 C 922.62 534.75 918.27 539.01 913.96 542.48 C 918.15 526.32 921.67 509.77 921.43 493.00 C 922.33 462.32 914.82 431.54 900.67 404.35 C 877.72 359.90 836.42 325.49 788.69 310.60 C 789.91 304.13 790.23 297.41 788.88 290.93 C 787.18 282.06 782.57 273.96 781.70 264.91 C 781.18 258.88 780.87 251.58 786.42 247.67 C 794.07 245.03 803.14 245.04 809.32 239.14 C 810.43 239.00 811.56 238.87 812.70 238.75 C 813.56 240.38 814.45 241.99 815.34 243.61 C 828.38 234.01 841.61 224.54 853.49 213.49 C 857.23 210.43 859.34 204.43 865.06 204.82 C 878.64 204.88 889.89 214.19 903.03 216.29 C 914.52 217.28 923.85 208.96 931.26 201.24 C 940.84 190.47 951.57 180.62 959.44 168.45 C 965.24 159.53 970.72 150.18 974.09 140.06 C 972.76 133.91 968.45 128.52 969.00 121.96 C 967.54 120.96 966.07 119.96 964.62 118.98 C 963.21 110.86 967.20 103.02 966.29 94.94 C 962.37 89.69 958.61 84.32 955.33 78.64 C 948.47 66.92 941.45 55.18 936.54 42.49 C 931.54 37.39 926.11 32.72 921.17 27.54 C 921.56 23.35 922.54 19.18 924.50 15.42 C 927.89 8.48 934.42 3.98 940.78 0.00 Z" />
<path fill="#4aadd6" opacity="1.00" d=" M 892.35 589.95 C 892.73 595.57 893.04 601.24 892.30 606.85 C 891.66 614.01 888.13 620.96 881.92 624.83 C 881.89 628.48 881.22 632.17 881.75 635.80 C 886.11 643.31 891.22 650.49 894.19 658.73 C 898.24 670.04 896.41 682.25 896.86 694.00 C 894.32 696.32 890.56 697.79 889.51 701.32 C 888.40 703.76 888.13 707.02 885.47 708.36 C 880.36 711.33 874.14 714.65 868.17 712.26 C 869.82 701.77 859.58 692.43 864.43 682.03 C 862.19 679.79 860.44 676.39 857.00 675.94 C 853.66 675.37 849.84 675.02 846.82 676.82 C 839.61 685.22 835.87 695.87 830.34 705.33 C 829.49 707.33 827.21 707.76 825.44 708.56 C 817.83 711.49 810.02 714.25 801.92 715.34 C 799.54 716.03 798.09 713.84 796.45 712.59 C 794.01 710.13 790.40 709.91 787.26 708.99 C 786.56 710.06 785.87 711.15 785.19 712.24 C 787.82 717.23 791.34 721.69 795.37 725.63 C 798.39 728.43 797.26 732.99 798.52 736.53 C 800.24 738.83 802.12 741.40 805.05 742.18 C 807.98 742.68 808.62 745.95 810.02 748.11 C 809.68 749.60 809.34 751.08 809.04 752.60 C 806.10 751.49 803.20 749.00 799.90 750.00 C 795.27 750.88 791.13 753.30 787.32 755.98 C 787.95 748.68 786.95 739.60 779.81 735.73 C 780.44 734.57 781.07 733.43 781.72 732.29 C 769.15 722.95 758.15 711.46 749.29 698.56 C 745.29 692.42 741.45 685.72 741.05 678.23 C 771.34 676.60 801.24 667.80 827.44 652.48 C 853.66 637.22 876.12 615.58 892.35 589.95 Z" />
<path fill="#4aadd6" opacity="1.00" d=" M 605.07 697.53 C 624.00 700.06 642.56 705.38 660.12 712.89 C 662.64 718.36 666.00 724.46 671.86 726.80 C 682.41 724.88 692.65 721.48 702.94 718.49 C 708.21 716.68 713.78 715.46 718.75 712.87 C 719.77 710.46 719.54 707.78 720.06 705.27 C 720.98 703.93 722.09 702.74 723.15 701.52 C 727.84 704.44 731.68 708.53 734.95 712.96 C 735.79 714.15 736.75 715.39 736.84 716.93 C 737.92 723.91 738.05 731.19 741.06 737.72 C 745.50 739.17 749.82 742.05 751.49 746.61 C 753.58 752.25 752.14 758.46 749.97 763.87 C 746.89 771.34 742.25 778.13 736.63 783.92 C 736.62 786.09 736.60 788.26 736.56 790.44 C 735.03 791.38 733.52 792.34 732.02 793.30 C 726.18 791.63 723.85 785.51 719.37 781.95 C 721.55 776.14 720.36 769.94 720.25 763.93 C 720.06 762.05 721.44 760.59 722.21 759.03 C 726.42 761.64 725.51 766.81 726.17 771.03 C 727.46 770.78 729.20 771.37 730.13 770.13 C 733.64 765.67 735.65 760.24 737.61 754.97 C 738.44 753.19 737.10 751.40 736.75 749.71 C 727.38 750.94 718.24 748.26 709.03 747.08 C 700.87 745.92 692.70 749.23 686.66 754.59 C 685.41 755.82 684.83 757.52 683.99 759.03 C 671.29 746.37 656.86 734.94 647.43 719.45 C 645.02 722.06 642.98 724.98 640.74 727.73 C 639.84 729.16 637.68 729.73 636.30 728.66 C 628.68 723.84 621.57 718.20 615.05 711.98 C 610.96 707.80 606.37 703.46 605.07 697.53 Z" />
<path fill="#4aadd6" opacity="1.00" d=" M 581.28 739.74 C 583.80 741.33 586.28 742.99 588.75 744.67 C 585.58 751.14 583.31 759.23 587.10 765.94 C 591.41 773.38 599.59 777.12 606.76 781.23 C 614.45 785.51 622.85 789.99 627.21 798.02 C 629.95 803.11 630.16 809.18 628.91 814.73 C 623.23 815.11 617.33 815.62 611.84 813.73 C 609.75 812.73 607.66 814.20 605.63 814.66 C 605.98 823.77 605.27 832.88 605.32 841.99 C 605.55 852.55 611.74 861.55 616.46 870.59 C 618.44 871.30 620.42 871.99 622.42 872.70 C 624.12 870.95 625.75 869.13 627.31 867.25 C 628.90 868.50 630.45 869.82 632.00 871.14 C 632.39 879.29 627.74 886.60 627.80 894.74 C 625.86 896.27 623.95 897.84 622.02 899.38 C 620.85 897.60 620.27 895.06 617.99 894.42 C 612.45 892.29 606.95 889.42 603.23 884.66 C 599.44 879.98 597.96 873.97 597.15 868.13 C 593.70 865.81 590.47 863.19 586.96 860.97 C 584.03 860.79 581.13 861.48 578.24 861.85 C 577.98 863.18 577.71 864.52 577.46 865.87 C 578.96 867.13 580.43 868.43 581.89 869.76 C 581.60 870.51 581.03 872.01 580.75 872.77 C 574.80 876.16 568.55 879.53 564.13 884.89 C 561.51 888.00 560.93 892.14 560.39 896.02 C 559.58 902.00 557.22 907.76 553.64 912.62 C 550.52 914.98 546.80 916.42 543.57 918.64 C 541.74 921.51 541.07 925.18 538.17 927.33 C 535.20 926.19 532.17 925.20 529.13 924.29 C 526.97 925.44 524.71 926.40 522.61 927.66 C 521.81 930.36 521.34 933.28 519.52 935.56 C 514.59 942.22 506.44 946.01 502.57 953.55 C 500.25 957.09 501.88 962.50 497.31 964.48 C 495.48 960.96 495.50 956.86 495.01 953.02 C 490.64 953.04 486.12 953.00 482.08 954.90 C 475.31 941.80 468.26 928.63 458.73 917.29 C 457.45 915.26 454.85 916.22 452.89 915.88 C 446.91 915.34 442.30 910.86 438.62 906.50 C 435.03 902.00 431.58 897.40 427.87 893.00 C 441.73 895.02 453.26 903.67 463.85 912.24 C 466.90 914.87 470.29 917.13 473.15 919.98 C 474.92 924.22 476.06 929.07 479.51 932.33 C 483.13 934.07 487.15 934.99 491.16 935.14 C 494.01 933.95 498.14 933.36 498.85 929.80 C 502.10 920.43 510.84 914.72 519.11 910.17 C 527.75 905.27 537.55 900.65 542.53 891.58 C 542.85 880.88 544.05 869.56 550.32 860.52 C 558.90 857.51 566.62 850.09 568.13 840.88 C 570.01 840.54 571.89 840.24 573.80 840.02 C 575.45 842.79 576.73 845.80 576.91 849.08 C 576.70 850.88 578.75 851.12 579.90 851.88 C 583.02 850.93 585.91 849.36 587.33 846.28 C 586.61 843.84 585.96 841.38 585.31 838.94 C 586.45 837.46 587.60 836.00 588.75 834.55 C 592.08 835.25 597.89 838.01 599.07 833.11 C 598.38 825.33 599.15 817.31 596.75 809.77 C 598.07 808.66 599.44 807.62 600.87 806.66 C 602.25 807.34 603.65 808.01 605.06 808.69 C 606.91 807.85 608.77 807.04 610.64 806.22 C 609.50 796.18 603.90 787.14 596.23 780.74 C 590.58 775.66 583.98 771.75 578.32 766.71 C 575.42 760.27 573.88 753.04 574.43 745.97 C 576.31 743.54 579.08 741.90 581.28 739.74 Z" />
<path fill="#4aadd6" opacity="1.00" d=" M 549.83 813.79 C 552.38 813.61 555.03 813.62 557.31 812.27 C 562.51 816.07 565.96 821.89 567.49 828.09 C 565.20 829.49 562.62 830.40 560.11 829.01 C 557.88 824.06 552.02 822.17 549.93 817.14 C 549.12 817.00 547.49 816.72 546.67 816.58 C 547.70 815.63 548.54 814.40 549.83 813.79 Z" />
<path fill="#4aadd6" opacity="1.00" d=" M 304.97 828.09 C 305.66 827.07 306.35 826.06 307.04 825.06 C 310.30 826.45 313.72 827.49 316.89 829.10 C 319.86 832.13 321.03 837.02 319.75 841.09 C 319.10 843.41 316.78 844.53 315.01 845.91 C 313.51 844.77 311.62 843.89 310.90 842.04 C 308.69 837.50 305.65 833.21 304.97 828.09 Z" />
<path fill="#4aadd6" opacity="1.00" d=" M 322.38 849.75 C 331.73 846.17 342.05 845.63 351.92 846.83 C 358.32 847.67 365.71 850.13 368.19 856.73 C 365.16 857.39 362.17 858.30 359.09 858.65 C 352.74 856.69 345.79 854.01 339.24 856.74 C 338.59 857.93 337.93 859.13 337.28 860.33 C 333.42 859.65 329.38 859.02 326.05 856.82 C 324.19 854.85 323.28 852.23 322.38 849.75 Z" />
<path fill="#4aadd6" opacity="1.00" d=" M 502.08 857.15 C 506.18 854.80 508.73 849.81 513.98 849.82 C 517.81 857.14 517.12 865.61 516.40 873.56 C 512.67 873.35 508.66 873.25 505.37 875.31 C 506.93 880.17 509.01 884.96 509.48 890.09 C 509.77 895.00 506.92 899.29 503.99 902.95 C 501.32 903.27 498.66 903.59 495.99 903.86 C 496.02 900.33 496.80 896.74 496.24 893.26 C 493.62 888.82 491.18 884.15 490.28 879.03 C 491.71 873.17 489.01 867.43 487.70 861.78 C 492.70 861.07 497.82 860.03 502.08 857.15 Z" />
<path fill="#4aadd6" opacity="1.00" d=" M 406.11 851.73 C 414.47 858.32 419.01 869.05 419.79 879.53 C 418.45 879.60 416.63 880.69 415.78 879.09 C 412.28 874.47 409.47 869.32 407.26 863.96 C 405.73 860.12 404.25 855.71 406.11 851.73 Z" />
<path fill="#4aadd6" opacity="1.00" d=" M 487.09 1024.37 C 488.25 1024.27 489.42 1024.18 490.60 1024.10 C 491.21 1036.30 498.81 1046.86 499.48 1059.05 C 500.15 1071.56 487.71 1080.39 488.70 1092.96 C 492.06 1100.25 497.09 1106.97 498.41 1115.05 C 498.98 1116.80 497.05 1117.76 496.02 1118.74 C 491.66 1110.08 483.46 1104.50 475.85 1098.93 C 462.54 1104.11 447.83 1110.21 433.44 1105.79 C 429.52 1098.88 424.65 1092.07 423.80 1083.95 C 423.05 1078.26 424.60 1072.67 425.53 1067.13 C 424.99 1064.30 423.10 1062.07 421.18 1060.06 C 421.80 1057.31 422.46 1054.59 423.05 1051.85 C 426.01 1050.88 428.85 1049.28 431.96 1048.98 C 435.81 1049.84 439.52 1051.26 443.37 1052.15 C 442.91 1058.45 442.13 1064.75 442.44 1071.08 C 444.19 1071.45 445.99 1071.70 447.69 1072.35 C 449.84 1074.59 450.97 1077.55 451.93 1080.46 C 458.01 1079.39 464.53 1078.33 469.49 1074.38 C 474.17 1070.57 472.58 1063.57 476.49 1059.24 C 478.65 1061.37 481.11 1063.15 483.73 1064.69 C 485.25 1060.65 484.64 1056.18 485.02 1051.96 C 485.56 1042.77 484.79 1033.36 487.09 1024.37 Z" />
<path fill="#4aadd6" opacity="1.00" d=" M 249.04 1040.83 C 256.43 1040.72 264.02 1040.75 271.11 1043.09 C 274.12 1044.05 277.75 1046.41 277.04 1050.08 C 275.72 1055.79 269.36 1061.73 263.31 1058.44 C 256.55 1054.63 252.47 1047.53 249.04 1040.83 Z" />
<path fill="#4aadd6" opacity="1.00" d=" M 334.42 1136.52 C 337.78 1135.35 341.72 1136.25 344.14 1138.88 C 347.94 1142.90 349.16 1148.67 349.24 1154.05 C 349.20 1159.55 347.90 1165.62 343.62 1169.45 C 339.88 1172.82 333.50 1172.70 330.20 1168.76 C 325.40 1163.15 324.61 1155.06 325.93 1148.04 C 326.86 1143.25 329.50 1138.13 334.42 1136.52 Z" />
<path fill="#4aadd6" opacity="1.00" d=" M 429.38 1151.51 C 435.35 1150.18 441.58 1151.62 447.22 1153.70 C 451.64 1155.51 456.41 1157.98 458.51 1162.53 C 460.48 1167.62 455.97 1173.04 451.07 1174.06 C 444.75 1175.23 438.60 1172.00 433.76 1168.25 C 429.95 1165.06 425.85 1161.19 425.18 1156.02 C 424.91 1153.55 427.24 1151.96 429.38 1151.51 Z" />
<path fill="#4aadd6" opacity="1.00" d=" M 260.71 1290.75 C 268.40 1286.66 276.42 1282.49 285.07 1280.87 C 286.08 1288.29 283.33 1295.51 281.40 1302.56 C 278.60 1310.83 276.13 1319.34 272.10 1327.09 C 261.89 1331.99 250.32 1334.15 241.19 1341.23 C 240.87 1344.50 240.71 1347.79 240.61 1351.10 C 249.11 1350.28 256.16 1344.83 262.62 1339.70 C 263.74 1338.68 265.35 1338.80 266.73 1338.52 C 267.99 1340.92 269.97 1342.80 272.09 1344.46 C 274.66 1343.18 278.97 1342.09 280.16 1345.72 C 281.25 1349.25 284.04 1351.58 287.18 1353.30 C 288.55 1356.92 286.29 1360.13 284.07 1362.81 C 278.30 1362.85 273.09 1358.33 267.38 1359.48 C 263.43 1365.08 259.35 1370.66 254.25 1375.30 C 247.97 1381.04 241.21 1386.25 235.03 1392.11 C 232.10 1391.76 228.85 1390.31 226.16 1392.14 C 222.77 1394.26 218.48 1396.63 218.35 1401.18 C 218.80 1403.04 219.90 1404.72 220.72 1406.48 C 221.85 1406.60 222.99 1406.75 224.12 1406.91 C 224.81 1408.22 225.50 1409.54 226.20 1410.88 C 225.38 1412.04 224.56 1413.21 223.75 1414.40 C 222.44 1413.26 221.14 1412.13 219.85 1411.00 C 218.49 1410.95 217.13 1410.92 215.78 1410.92 C 215.36 1413.42 215.37 1416.06 214.52 1418.48 C 213.18 1419.57 211.66 1420.44 210.20 1421.38 C 209.25 1420.83 208.30 1420.30 207.36 1419.78 C 208.03 1404.99 203.30 1390.67 202.63 1375.97 C 202.12 1366.56 204.03 1356.55 210.15 1349.12 C 219.11 1338.32 233.69 1334.44 242.83 1323.82 C 251.54 1314.40 253.17 1300.88 260.71 1290.75 Z" />
<path fill="#4aadd6" opacity="1.00" d=" M 16.06 1516.15 C 27.19 1516.07 38.55 1515.56 49.42 1518.39 C 52.29 1518.90 53.49 1521.84 55.22 1523.84 C 57.95 1527.70 61.45 1530.98 64.07 1534.92 C 65.75 1539.86 63.91 1545.20 61.56 1549.61 C 57.27 1557.29 51.15 1563.72 45.01 1569.95 C 40.54 1574.22 36.45 1578.92 31.86 1583.03 C 21.87 1585.42 11.42 1587.33 1.15 1585.78 C 0.74 1583.74 0.33 1581.72 0.00 1579.70 L 0.00 1579.06 C 0.94 1577.07 1.96 1575.15 3.00 1573.23 C 7.98 1572.95 10.54 1568.39 12.09 1564.25 C 13.85 1564.03 15.61 1563.85 17.37 1563.68 C 18.40 1559.64 19.71 1555.70 21.31 1551.87 C 17.97 1540.43 10.97 1528.14 16.06 1516.15 Z" />
</g>
<g id="#ffde00ff">
<path fill="#ffde00" opacity="1.00" d=" M 788.69 310.60 C 836.42 325.49 877.72 359.90 900.67 404.35 C 914.82 431.54 922.33 462.32 921.43 493.00 C 921.67 509.77 918.15 526.32 913.96 542.48 C 906.85 548.52 899.85 554.71 893.20 561.26 C 892.21 562.26 891.04 563.31 891.18 564.87 C 890.56 573.24 891.82 581.60 892.35 589.95 C 876.12 615.58 853.66 637.22 827.44 652.48 C 801.24 667.80 771.34 676.60 741.05 678.23 C 741.30 669.78 743.75 661.37 742.35 652.89 C 739.56 635.28 733.90 618.31 728.79 601.28 C 728.34 598.99 726.47 597.53 724.69 596.28 C 712.17 587.44 698.80 579.76 687.00 569.92 C 682.15 566.58 684.02 559.77 681.95 555.05 C 678.45 550.68 674.69 546.53 671.08 542.25 C 668.11 542.10 665.15 541.94 662.18 541.78 C 660.67 540.26 659.18 538.73 657.70 537.19 C 658.04 535.45 658.40 533.72 658.76 531.99 C 661.91 530.06 664.77 527.44 666.10 523.91 C 669.28 516.07 668.39 507.41 669.52 499.18 C 671.61 499.28 673.72 499.63 675.82 499.37 C 678.49 498.33 680.98 496.90 683.54 495.61 C 683.86 489.53 684.19 483.44 684.52 477.36 C 685.94 475.69 688.22 474.34 688.32 471.93 C 688.83 466.16 686.33 460.64 686.48 454.88 C 687.79 452.54 689.72 450.64 691.43 448.59 C 698.60 448.28 705.89 446.55 711.99 442.66 C 713.35 439.98 713.99 437.00 715.05 434.19 C 720.42 434.38 725.78 434.80 731.15 435.12 C 731.25 442.06 730.96 449.01 731.26 455.95 C 732.26 458.45 734.38 460.50 736.36 462.32 C 739.87 463.13 743.49 463.34 747.06 463.89 C 751.51 458.65 754.99 452.68 759.52 447.51 C 762.01 444.48 766.17 442.53 766.44 438.14 C 764.47 436.00 762.87 433.46 760.56 431.66 C 747.74 429.16 734.28 428.88 722.12 423.63 C 718.97 422.14 715.27 419.91 714.96 416.05 C 713.43 404.06 722.09 393.38 720.30 381.34 C 721.40 380.29 722.20 378.62 723.87 378.38 C 731.79 376.76 739.82 375.21 747.95 375.48 C 751.35 375.86 752.99 372.10 755.30 370.27 C 751.36 365.63 749.32 359.80 748.03 353.95 C 752.08 345.69 751.16 336.20 753.39 327.47 C 761.54 326.90 769.71 326.99 777.87 327.43 C 780.53 325.22 783.50 323.40 786.00 320.99 C 787.56 317.76 787.90 314.07 788.69 310.60 Z" />
</g>
</svg>
