<?xml version="1.0" encoding="UTF-8" ?>
<!DOCTYPE svg PUBLIC "-//W3C//DTD SVG 1.1//EN" "http://www.w3.org/Graphics/SVG/1.1/DTD/svg11.dtd">
<svg width="1000pt" height="681pt" viewBox="0 0 1000 681" version="1.1" xmlns="http://www.w3.org/2000/svg">
<g id="#ce1126ff">
<path fill="#ce1126" opacity="1.00" d=" M 576.62 0.00 L 577.48 0.00 C 580.70 0.88 583.75 2.57 586.09 4.97 C 587.64 8.37 589.14 11.80 590.95 15.07 C 589.69 15.70 588.37 16.21 587.08 16.76 C 586.34 15.58 585.61 14.41 584.88 13.23 C 584.50 13.87 583.73 15.14 583.35 15.77 C 581.44 13.99 579.46 12.31 577.47 10.63 C 576.11 9.52 574.79 8.37 573.50 7.20 C 574.67 4.86 575.76 2.48 576.62 0.00 Z" />
<path fill="#ce1126" opacity="1.00" d=" M 582.09 18.07 C 583.37 17.37 585.51 19.09 584.98 20.47 C 583.76 20.77 581.84 19.37 582.09 18.07 Z" />
<path fill="#ce1126" opacity="1.00" d=" M 602.87 17.78 C 603.64 18.83 604.42 19.87 605.27 20.87 C 606.05 21.15 607.61 21.70 608.39 21.97 C 605.81 22.61 603.15 22.33 600.55 22.57 C 600.35 21.95 599.96 20.70 599.76 20.07 C 600.58 20.34 602.21 20.88 603.02 21.15 C 602.98 20.31 602.91 18.63 602.87 17.78 Z" />
<path fill="#ce1126" opacity="1.00" d=" M 578.71 20.11 C 578.94 18.62 581.53 18.92 581.70 20.31 C 581.54 21.90 578.80 21.61 578.71 20.11 Z" />
<path fill="#ce1126" opacity="1.00" d=" M 391.05 41.60 C 393.29 40.89 395.35 39.66 397.68 39.21 C 402.02 41.02 406.83 39.70 411.31 40.83 C 412.04 40.73 413.49 40.52 414.22 40.42 C 414.92 41.33 415.62 42.23 416.32 43.14 C 416.69 42.71 417.42 41.86 417.79 41.44 C 423.14 44.13 429.27 44.80 435.16 45.44 C 434.27 43.23 432.67 41.48 431.08 39.77 C 433.12 40.21 434.78 41.48 436.07 43.08 C 436.10 44.51 436.04 45.94 435.90 47.37 C 433.71 47.22 431.50 46.93 429.35 47.42 C 429.27 46.93 429.10 45.97 429.02 45.48 C 427.95 46.17 427.16 47.09 426.64 48.25 C 426.29 48.01 425.59 47.53 425.24 47.30 C 425.51 50.87 423.33 54.28 420.01 55.57 C 417.55 55.37 415.05 53.24 412.69 54.85 C 410.61 55.87 408.20 55.45 405.98 55.86 C 400.53 55.06 393.70 55.89 389.95 51.02 C 388.96 50.96 386.99 50.85 386.01 50.80 C 387.07 52.04 388.17 53.25 389.25 54.48 C 387.71 54.88 386.18 55.27 384.64 55.65 C 383.92 55.31 382.50 54.64 381.78 54.30 C 380.30 55.53 379.31 57.21 378.15 58.72 C 377.18 57.77 376.22 56.83 375.27 55.88 C 375.16 55.06 374.94 53.43 374.83 52.61 C 375.11 52.12 375.68 51.12 375.97 50.63 C 377.92 50.55 379.88 50.44 381.83 50.24 C 380.71 47.54 378.32 45.14 378.62 42.03 C 379.27 42.49 380.57 43.42 381.21 43.89 C 382.01 42.75 382.81 41.61 383.64 40.48 C 385.97 41.47 388.55 41.49 391.05 41.60 Z" />
<path fill="#ce1126" opacity="1.00" d=" M 454.90 46.47 C 456.05 45.61 457.34 44.97 458.65 44.37 C 458.92 44.79 459.45 45.62 459.71 46.03 C 458.15 46.57 456.53 46.98 454.90 46.47 Z" />
<path fill="#ce1126" opacity="1.00" d=" M 443.91 48.79 C 446.00 47.32 448.66 46.73 451.13 47.55 C 448.84 48.48 446.38 48.95 443.91 48.79 Z" />
<path fill="#ce1126" opacity="1.00" d=" M 459.16 60.32 C 459.61 59.84 460.53 58.86 460.99 58.37 C 462.28 59.72 463.62 61.04 464.96 62.36 C 463.18 66.35 457.62 67.35 454.49 64.40 C 456.05 64.03 457.65 63.70 459.24 63.39 C 459.22 62.62 459.18 61.09 459.16 60.32 Z" />
<path fill="#ce1126" opacity="1.00" d=" M 429.42 66.89 C 430.49 67.44 431.58 67.97 432.67 68.51 C 431.87 68.69 430.28 69.05 429.48 69.23 C 428.61 70.23 427.74 71.23 426.84 72.20 C 427.50 70.34 428.50 68.63 429.42 66.89 Z" />
<path fill="#ce1126" opacity="1.00" d=" M 614.54 69.39 C 616.75 67.40 619.36 67.45 621.92 68.73 C 622.31 69.15 623.09 69.99 623.48 70.41 C 624.86 70.67 626.24 70.95 627.63 71.25 C 628.99 72.60 630.75 73.24 632.66 73.37 C 633.15 73.61 634.14 74.09 634.63 74.33 C 635.00 76.14 635.41 77.95 635.83 79.75 C 634.86 82.03 635.19 84.51 635.28 86.90 C 634.46 86.89 632.81 86.87 631.98 86.86 C 631.43 87.25 630.32 88.04 629.77 88.44 C 629.30 88.01 628.37 87.16 627.90 86.73 C 627.41 86.99 626.44 87.51 625.95 87.77 C 623.01 87.45 620.08 88.19 617.17 87.94 C 615.33 86.80 613.64 85.41 612.18 83.82 C 610.92 81.50 610.15 78.89 608.29 76.94 C 605.49 77.32 602.00 76.20 601.50 73.07 C 604.05 74.92 606.22 72.42 608.41 71.30 C 610.20 70.02 612.45 69.87 614.54 69.39 Z" />
<path fill="#ce1126" opacity="1.00" d=" M 424.37 78.18 C 425.71 76.63 427.49 78.85 426.17 80.12 C 425.05 81.79 422.95 79.32 424.37 78.18 Z" />
<path fill="#ce1126" opacity="1.00" d=" M 657.69 83.38 C 658.06 82.01 658.46 80.65 658.89 79.30 C 660.00 80.43 661.10 81.59 662.22 82.73 C 663.29 83.45 664.34 84.20 665.37 85.00 C 664.90 85.02 663.95 85.07 663.48 85.09 C 662.55 85.17 660.69 85.33 659.76 85.41 C 659.05 84.74 658.36 84.07 657.69 83.38 Z" />
<path fill="#ce1126" opacity="1.00" d=" M 9.97 82.70 C 11.56 82.30 13.19 81.74 14.83 82.30 C 19.01 83.27 23.30 83.84 27.37 85.28 C 29.56 87.28 31.85 89.38 34.81 90.14 C 44.60 93.00 53.16 98.80 62.70 102.28 C 65.23 103.24 66.97 105.45 69.00 107.14 C 71.27 106.69 73.52 106.02 75.85 105.93 C 77.60 107.02 79.14 108.41 80.78 109.64 C 80.60 110.74 80.43 111.83 80.25 112.93 C 82.03 112.99 83.92 112.54 85.62 113.29 C 90.51 115.31 95.77 116.27 100.64 118.34 C 105.13 120.06 109.28 122.77 114.11 123.51 C 118.25 124.07 121.89 126.28 125.95 127.13 C 132.14 128.48 138.04 130.87 144.13 132.55 C 148.00 132.88 152.05 131.64 155.79 133.15 C 160.75 135.22 166.20 135.28 171.44 136.09 C 171.53 135.52 171.70 134.38 171.79 133.81 C 172.08 134.79 172.36 135.78 172.64 136.77 C 177.49 137.02 180.67 140.82 182.63 144.88 C 184.24 145.64 185.87 146.37 187.52 147.06 C 188.25 146.46 188.98 145.86 189.71 145.27 C 189.67 146.03 189.59 147.55 189.54 148.31 C 193.19 148.96 197.23 149.93 198.67 153.83 C 201.02 155.23 203.94 156.01 205.57 158.37 C 206.70 159.63 207.41 161.47 209.06 162.15 C 212.53 162.36 216.01 162.05 219.47 161.87 C 218.74 162.48 217.27 163.72 216.54 164.34 C 218.42 164.65 220.34 164.72 222.25 164.59 C 222.93 165.40 223.60 166.22 224.28 167.04 C 225.17 165.38 226.07 163.74 226.95 162.08 C 232.18 161.95 237.51 162.11 242.58 163.49 C 246.51 166.27 242.39 172.14 246.44 174.63 C 248.04 175.94 250.23 175.78 252.16 176.14 C 257.62 176.70 262.24 179.92 266.80 182.71 C 266.16 183.35 264.90 184.64 264.26 185.28 C 266.02 186.14 267.89 186.72 269.80 187.14 C 271.96 188.79 273.99 190.71 274.68 193.45 C 275.94 195.34 276.85 197.80 279.14 198.69 C 281.95 199.87 285.01 200.25 287.94 201.05 C 290.25 200.44 292.62 199.71 295.05 199.97 C 297.68 201.54 299.70 203.93 302.07 205.87 C 305.31 208.46 306.91 212.74 310.79 214.58 C 313.47 219.23 316.75 223.73 321.31 226.69 C 323.52 228.15 326.13 229.06 327.93 231.08 C 327.49 233.11 326.65 235.03 326.27 237.08 C 326.06 239.87 327.05 242.55 327.93 245.15 C 327.22 248.73 326.54 252.36 326.75 256.02 C 323.73 259.75 323.50 264.56 322.56 269.05 C 322.74 271.76 325.31 274.13 328.06 272.89 C 330.24 272.02 332.11 273.39 333.84 274.55 C 334.14 274.11 334.75 273.24 335.05 272.80 C 335.85 272.71 337.44 272.54 338.24 272.46 C 342.39 274.06 346.65 275.46 351.02 276.33 C 351.36 276.65 352.03 277.28 352.37 277.59 C 355.89 278.27 359.35 280.08 363.00 279.18 C 364.23 279.81 365.45 280.45 366.68 281.09 C 371.52 279.79 374.74 284.34 378.44 286.58 C 382.22 290.34 387.29 292.07 392.21 293.80 C 392.78 294.85 393.36 295.90 393.96 296.95 C 396.31 296.21 399.17 294.67 401.33 296.72 C 403.70 299.18 405.98 301.78 409.09 303.33 C 410.04 302.88 411.00 302.44 411.96 302.00 C 412.37 302.89 412.78 303.78 413.20 304.68 C 416.68 304.37 420.70 306.16 423.77 303.97 C 420.22 310.15 417.08 316.56 413.95 322.96 C 411.87 327.25 409.92 331.65 408.99 336.35 C 417.58 332.39 422.20 323.33 430.09 318.32 C 429.72 324.31 426.24 329.40 424.96 335.16 C 434.46 332.01 441.22 323.62 450.92 320.86 C 450.56 326.29 448.18 331.41 448.54 336.91 C 453.10 335.04 456.39 331.28 459.85 327.93 C 461.49 330.04 462.24 332.65 463.12 335.14 C 464.59 339.11 462.89 343.28 462.63 347.31 C 466.42 349.47 462.97 353.88 460.00 354.76 C 455.25 355.92 450.30 355.05 445.47 355.49 C 445.08 355.96 444.31 356.91 443.92 357.39 C 439.25 357.10 434.61 355.68 429.94 356.72 C 425.51 356.58 420.46 357.54 416.63 354.74 C 415.16 354.75 413.70 354.77 412.24 354.81 C 409.82 356.11 407.13 356.67 404.40 356.72 C 402.83 361.19 402.94 365.95 403.22 370.62 C 405.10 372.39 406.85 374.32 408.95 375.85 C 409.70 375.53 411.19 374.91 411.93 374.59 C 411.55 375.30 410.78 376.73 410.40 377.44 C 410.80 378.24 411.21 379.04 411.62 379.85 C 411.48 380.52 411.20 381.84 411.06 382.51 C 412.94 384.17 415.13 385.74 416.14 388.14 C 416.39 389.85 416.29 391.58 416.32 393.31 C 416.67 396.63 417.30 400.01 419.62 402.58 C 419.42 402.85 419.02 403.40 418.82 403.67 C 419.86 404.35 420.89 405.04 421.93 405.74 C 422.22 405.38 422.80 404.66 423.09 404.30 C 424.75 405.57 426.63 406.47 428.66 407.01 C 431.71 409.87 435.63 411.57 438.76 414.34 C 440.19 415.41 439.55 417.40 439.87 418.93 C 441.54 419.01 443.23 419.09 444.91 419.17 C 445.06 419.61 445.36 420.49 445.51 420.93 C 445.40 422.98 446.85 427.94 449.29 424.50 C 452.81 426.61 453.04 430.62 453.73 434.24 C 456.33 436.96 460.56 434.88 463.87 435.21 C 466.18 436.67 468.56 438.02 471.05 439.17 C 471.48 440.69 471.93 442.20 472.42 443.71 C 475.60 443.34 478.80 443.09 481.94 442.40 C 481.97 447.94 484.62 452.90 486.18 458.08 C 486.48 461.78 486.46 465.62 488.59 468.86 C 488.02 471.39 486.70 474.23 488.33 476.66 C 489.44 477.80 490.84 478.60 492.18 479.46 C 496.28 479.18 499.23 482.27 502.16 484.65 C 505.54 488.20 504.39 493.47 505.65 497.84 C 507.62 499.98 507.69 502.97 508.49 505.62 C 509.46 507.46 510.85 509.11 512.44 510.49 C 515.81 511.58 519.38 512.58 522.97 512.23 C 526.35 511.83 530.23 511.45 532.25 508.31 C 534.84 508.52 537.43 508.99 540.04 508.78 C 543.43 508.47 545.69 505.62 548.29 503.76 L 548.11 505.86 C 552.26 505.51 556.43 505.73 560.45 506.93 C 560.14 508.37 559.87 509.83 559.62 511.29 C 559.67 511.69 559.77 512.49 559.82 512.89 C 559.34 513.09 558.38 513.48 557.90 513.67 C 558.90 513.68 560.90 513.68 561.90 513.68 C 560.75 516.11 558.65 517.62 556.08 518.25 C 555.28 520.96 554.58 523.71 553.73 526.41 C 552.73 527.25 551.72 528.08 550.81 529.02 C 551.42 532.28 552.52 535.68 554.71 538.24 C 559.88 539.47 565.37 540.92 569.02 545.09 C 570.98 544.95 572.95 544.83 574.93 544.71 C 576.32 545.36 577.69 546.12 579.20 546.53 C 582.39 546.32 585.55 545.00 588.78 545.63 C 591.65 546.21 594.55 546.80 597.26 547.96 C 600.18 547.89 603.08 547.53 605.98 547.11 C 606.09 547.74 606.31 549.02 606.42 549.66 C 606.95 549.88 608.03 550.33 608.56 550.56 C 608.66 551.40 608.78 552.25 608.90 553.11 C 605.67 554.32 602.55 555.94 599.13 556.52 C 594.60 557.38 589.57 557.30 585.90 560.54 C 588.58 564.75 593.52 566.74 595.99 571.12 C 595.82 571.57 595.46 572.47 595.29 572.92 C 595.88 572.87 597.05 572.78 597.64 572.73 C 599.29 574.64 601.42 576.04 603.79 576.91 C 606.46 576.64 609.14 576.81 611.81 576.99 C 612.17 577.56 612.88 578.69 613.24 579.26 C 614.51 578.74 615.78 578.21 617.06 577.70 C 619.84 579.67 622.36 581.99 625.18 583.91 C 629.68 585.76 634.72 584.50 639.29 586.11 C 640.89 585.83 642.48 585.48 644.08 585.13 C 643.99 587.05 644.94 588.70 645.88 590.29 C 651.94 589.45 657.81 587.95 663.64 586.16 C 660.63 588.95 656.70 590.33 653.14 592.23 C 650.82 593.22 648.56 594.60 646.02 594.87 C 641.44 594.43 637.04 592.91 632.67 591.58 C 629.77 592.43 628.15 594.68 627.97 597.66 C 629.61 597.93 631.27 598.19 632.91 598.53 C 638.46 599.43 643.16 603.03 648.83 603.50 C 649.10 604.47 649.38 605.44 649.67 606.42 C 650.14 607.29 650.60 608.18 651.04 609.09 C 648.24 610.21 645.41 611.27 642.75 612.71 C 640.55 612.90 637.85 612.16 636.22 614.05 C 634.35 616.02 632.11 617.56 629.27 617.39 C 628.94 616.73 628.29 615.39 627.97 614.73 C 626.52 615.45 625.08 616.16 623.70 616.97 C 618.49 612.71 613.14 608.62 607.55 604.88 C 608.25 604.00 608.98 603.15 609.71 602.31 C 606.98 601.78 604.33 600.97 601.67 600.17 C 468.10 500.14 334.64 399.97 201.11 299.88 C 137.40 252.20 73.86 204.29 10.04 156.75 C 9.98 132.07 10.14 107.39 9.97 82.70 M 447.85 426.33 C 448.51 426.93 448.51 426.93 447.85 426.33 Z" />
<path fill="#ce1126" opacity="1.00" d=" M 640.48 82.05 C 643.51 80.69 640.42 85.39 640.48 82.05 Z" />
<path fill="#ce1126" opacity="1.00" d=" M 733.79 86.74 C 734.46 85.03 735.20 83.35 736.00 81.69 C 737.76 82.21 739.50 83.19 739.95 85.13 C 739.64 88.18 735.78 86.77 733.79 86.74 Z" />
<path fill="#ce1126" opacity="1.00" d=" M 645.74 87.18 C 644.76 85.67 641.45 83.41 645.07 82.70 C 645.32 84.18 645.56 85.68 645.74 87.18 Z" />
<path fill="#ce1126" opacity="1.00" d=" M 667.68 86.19 C 669.04 89.84 674.37 87.95 675.34 91.99 C 678.23 93.13 681.24 94.04 683.88 95.71 C 683.21 98.72 685.06 100.68 687.91 101.06 C 690.64 99.82 693.64 100.35 695.68 102.60 C 696.80 102.38 697.91 102.16 699.05 101.94 C 700.87 103.60 702.54 105.42 704.11 107.33 C 704.70 107.31 705.89 107.27 706.48 107.25 C 709.26 109.50 712.30 111.55 715.84 112.37 C 717.99 114.53 719.06 118.44 722.67 118.34 C 723.43 119.61 724.21 120.87 725.00 122.14 C 725.91 121.78 726.83 121.43 727.77 121.09 C 730.05 122.80 733.41 121.94 735.27 124.30 C 737.17 124.46 739.05 124.80 740.92 125.20 C 740.99 125.80 741.13 127.01 741.20 127.62 C 745.29 130.37 747.01 135.20 750.62 138.43 C 753.46 141.55 758.28 141.74 761.03 144.97 C 762.67 147.76 764.18 150.65 766.08 153.28 C 767.62 153.62 768.87 152.27 770.22 151.75 C 771.33 153.64 772.44 155.54 773.42 157.51 C 774.30 158.97 773.38 161.06 774.71 162.29 C 776.37 164.57 779.81 163.21 781.64 165.33 C 783.63 167.22 786.26 168.03 788.94 168.39 C 789.92 167.67 790.68 165.43 792.15 166.62 C 792.66 170.08 793.53 173.60 796.70 175.59 C 797.89 175.15 799.13 174.71 800.34 174.27 C 800.45 179.24 805.17 181.93 807.09 186.16 C 807.59 189.09 810.84 189.88 812.37 192.09 C 812.21 195.08 811.28 198.07 812.23 201.03 C 809.81 202.91 806.73 204.62 806.11 207.91 C 807.61 209.90 809.09 211.95 808.84 214.60 C 807.90 215.43 806.98 216.27 806.07 217.12 C 805.84 218.10 805.62 219.08 805.40 220.06 C 802.76 222.74 802.03 227.06 798.13 228.46 C 797.62 229.46 797.17 230.50 796.83 231.57 C 796.33 228.42 793.85 226.57 791.51 224.78 C 790.84 223.43 790.15 222.09 789.45 220.77 C 785.48 220.64 785.14 216.49 784.76 213.44 C 782.38 211.51 782.26 208.23 781.23 205.56 C 784.50 199.94 783.09 193.17 782.73 187.04 C 781.58 184.62 779.69 182.58 778.93 179.97 C 777.22 174.65 773.57 170.33 770.98 165.45 C 767.30 163.82 765.44 160.03 762.53 157.46 C 760.89 156.18 761.10 153.99 760.61 152.18 C 758.94 150.56 757.25 148.96 755.92 147.04 C 752.88 145.65 750.72 142.96 747.78 141.39 C 743.33 140.97 738.93 140.08 734.55 139.23 C 729.38 136.21 724.58 132.60 719.61 129.27 C 716.87 126.69 714.82 123.45 712.12 120.83 C 708.27 118.17 701.90 118.79 700.13 113.61 C 695.90 110.09 690.72 107.78 685.83 105.27 C 683.68 102.55 679.99 101.69 678.11 98.73 C 675.70 98.02 673.12 97.47 671.59 95.27 C 669.47 94.71 667.34 94.18 665.19 93.76 C 666.07 91.25 666.92 88.74 667.68 86.19 Z" />
<path fill="#ce1126" opacity="1.00" d=" M 640.16 87.40 C 641.95 87.73 643.72 88.12 645.52 88.50 C 645.19 89.56 644.85 90.61 644.54 91.67 C 643.16 90.16 641.69 88.74 640.16 87.40 Z" />
<path fill="#ce1126" opacity="1.00" d=" M 651.91 90.03 C 650.56 87.29 655.86 88.09 653.58 90.31 C 653.17 90.24 652.33 90.10 651.91 90.03 Z" />
<path fill="#ce1126" opacity="1.00" d=" M 647.44 90.27 C 648.58 89.52 651.29 90.05 651.24 91.66 L 650.56 92.07 C 649.48 92.19 647.11 91.71 647.44 90.27 Z" />
<path fill="#ce1126" opacity="1.00" d=" M 732.40 89.32 C 734.25 90.12 736.52 90.43 737.89 92.07 C 737.95 94.03 737.71 95.98 737.61 97.93 C 736.09 97.96 734.12 99.59 732.97 98.05 C 732.54 97.14 732.16 96.22 731.85 95.28 C 732.21 94.76 732.94 93.72 733.31 93.19 C 733.08 92.23 732.63 90.29 732.40 89.32 Z" />
<path fill="#ce1126" opacity="1.00" d=" M 781.04 94.28 C 782.49 93.81 782.95 94.25 782.41 95.60 C 780.93 96.09 780.48 95.65 781.04 94.28 Z" />
<path fill="#ce1126" opacity="1.00" d=" M 734.67 100.02 C 734.64 97.58 737.05 99.66 737.52 100.57 C 739.00 102.98 742.85 102.96 743.41 106.02 C 742.97 107.22 742.49 108.40 741.98 109.57 C 739.48 108.15 738.15 105.61 737.02 103.09 C 736.14 102.18 733.53 101.74 734.67 100.02 Z" />
<path fill="#ce1126" opacity="1.00" d=" M 655.02 108.05 C 657.75 105.86 661.09 104.60 663.98 102.62 C 666.32 102.97 668.34 104.30 669.97 105.97 C 670.82 106.15 672.54 106.50 673.39 106.67 C 669.58 108.53 664.98 107.06 660.96 106.60 C 659.03 107.28 657.05 107.80 655.02 108.05 Z" />
<path fill="#ce1126" opacity="1.00" d=" M 780.93 105.24 C 782.51 104.66 783.07 105.20 782.59 106.84 C 780.97 107.43 780.42 106.90 780.93 105.24 Z" />
<path fill="#ce1126" opacity="1.00" d=" M 783.26 111.26 C 783.77 111.86 783.77 111.86 783.26 111.26 Z" />
<path fill="#ce1126" opacity="1.00" d=" M 772.49 114.89 C 774.54 112.79 777.35 111.87 780.22 111.58 C 780.41 113.70 779.94 116.15 781.58 117.85 C 781.32 119.90 780.98 121.94 780.49 123.95 C 776.07 123.26 774.53 118.26 772.49 114.89 Z" />
<path fill="#ce1126" opacity="1.00" d=" M 159.05 120.29 C 160.84 122.29 163.80 122.78 165.13 125.28 C 163.13 124.22 161.16 123.12 159.11 122.16 C 159.10 121.69 159.06 120.75 159.05 120.29 Z" />
<path fill="#ce1126" opacity="1.00" d=" M 212.66 122.62 C 213.65 121.73 214.67 120.86 215.69 120.00 C 215.86 120.50 216.20 121.48 216.37 121.97 C 215.42 122.99 213.84 122.33 212.66 122.62 Z" />
<path fill="#ce1126" opacity="1.00" d=" M 176.25 128.71 C 178.93 129.10 181.53 130.77 182.93 133.02 C 182.50 133.34 181.64 133.98 181.21 134.30 C 181.32 135.85 183.54 135.98 184.41 137.03 C 182.73 137.68 181.03 138.42 179.19 138.36 C 179.11 137.08 178.99 135.84 178.88 134.58 L 178.93 133.91 C 179.07 132.33 177.21 132.48 176.21 131.94 C 176.22 131.13 176.24 129.52 176.25 128.71 Z" />
<path fill="#ce1126" opacity="1.00" d=" M 823.31 133.01 C 825.53 133.18 826.82 134.37 826.61 136.68 C 825.80 136.21 825.00 135.74 824.21 135.27 C 823.24 135.47 821.30 135.87 820.32 136.07 C 821.28 135.02 822.29 134.02 823.31 133.01 Z" />
<path fill="#ce1126" opacity="1.00" d=" M 236.42 134.06 C 239.48 132.65 236.44 137.36 236.42 134.06 Z" />
<path fill="#ce1126" opacity="1.00" d=" M 815.81 140.64 C 816.78 139.74 817.77 138.86 818.79 137.99 C 819.55 139.34 820.31 140.70 821.05 142.08 C 819.27 141.65 817.53 141.18 815.81 140.64 Z" />
<path fill="#ce1126" opacity="1.00" d=" M 221.35 162.47 C 222.30 161.89 224.52 161.44 224.85 162.93 C 224.67 164.89 220.56 164.24 221.35 162.47 Z" />
<path fill="#ce1126" opacity="1.00" d=" M 841.75 181.48 C 843.29 177.24 847.90 175.46 852.00 175.18 C 853.57 175.37 852.47 177.21 852.34 178.11 C 850.64 177.40 848.88 176.84 847.12 176.39 C 847.35 178.02 847.65 179.63 848.02 181.24 C 847.40 182.48 846.73 183.69 846.09 184.91 C 844.62 183.78 843.19 182.62 841.75 181.48 Z" />
<path fill="#ce1126" opacity="1.00" d=" M 275.85 179.13 C 277.19 178.75 278.51 178.31 279.88 178.04 C 282.14 179.37 282.31 182.46 280.06 183.91 C 278.75 183.88 276.84 184.51 276.31 182.86 C 276.10 181.62 275.95 180.38 275.85 179.13 Z" />
<path fill="#ce1126" opacity="1.00" d=" M 742.32 181.14 C 744.18 180.59 745.16 183.85 743.14 184.22 C 741.42 184.52 740.53 181.60 742.32 181.14 Z" />
<path fill="#ce1126" opacity="1.00" d=" M 764.98 183.07 C 765.45 183.04 766.37 182.98 766.83 182.95 L 766.91 185.13 C 767.39 184.66 768.34 183.71 768.81 183.23 C 769.56 184.16 770.32 185.09 771.09 186.02 C 770.71 187.05 770.33 188.08 769.96 189.11 C 768.32 187.86 767.10 189.57 765.97 190.41 C 765.76 189.92 765.35 188.93 765.15 188.44 C 765.76 188.36 766.98 188.20 767.58 188.12 L 766.41 186.53 C 766.43 185.97 766.48 184.85 766.50 184.29 C 766.12 183.99 765.36 183.38 764.98 183.07 Z" />
<path fill="#ce1126" opacity="1.00" d=" M 746.15 188.62 C 746.92 187.12 747.68 185.61 748.50 184.14 C 749.56 184.81 750.63 185.49 751.72 186.16 C 752.54 187.98 753.22 189.85 753.66 191.80 C 751.67 191.57 749.83 190.97 749.13 188.92 C 749.01 191.10 748.35 193.46 749.48 195.49 C 750.70 195.66 752.15 194.89 753.19 195.81 C 756.60 198.73 761.32 197.01 765.34 196.94 C 763.98 201.00 761.75 204.72 760.79 208.92 C 765.57 215.35 765.05 224.54 760.77 231.05 C 749.22 221.96 737.87 212.02 724.11 206.42 C 730.06 202.96 736.53 200.61 742.89 198.03 C 741.26 196.96 739.58 195.99 737.92 194.99 C 738.39 193.90 740.10 192.50 738.72 191.38 C 738.03 190.34 737.03 189.42 737.07 188.08 C 738.67 187.50 740.24 188.67 741.80 188.97 C 743.22 188.62 744.68 188.54 746.15 188.62 Z" />
<path fill="#ce1126" opacity="1.00" d=" M 716.03 188.40 C 716.61 188.38 717.79 188.34 718.37 188.32 C 721.49 189.06 724.91 188.65 727.80 190.39 C 728.33 191.56 728.57 192.82 728.98 194.04 C 728.51 193.15 728.06 192.26 727.63 191.36 C 723.78 190.29 719.91 189.31 716.03 188.40 Z" />
<path fill="#ce1126" opacity="1.00" d=" M 878.27 199.14 C 880.49 199.45 879.39 202.38 880.00 203.90 L 879.22 203.89 C 878.80 202.32 878.35 200.76 878.27 199.14 Z" />
<path fill="#ce1126" opacity="1.00" d=" M 882.26 205.49 C 885.88 206.64 887.29 210.73 886.06 214.15 C 883.37 214.04 881.81 212.17 881.11 209.74 C 882.43 210.89 883.67 212.12 885.00 213.27 C 885.54 210.16 884.44 206.78 880.88 206.40 C 881.22 206.17 881.92 205.72 882.26 205.49 Z" />
<path fill="#ce1126" opacity="1.00" d=" M 334.05 214.11 C 335.60 212.43 337.45 211.07 339.16 209.56 C 341.22 210.97 342.94 212.79 344.42 214.80 C 344.09 217.29 343.77 219.79 343.36 222.27 C 341.33 223.56 339.37 225.16 336.95 225.61 C 333.97 225.48 332.65 222.60 331.83 220.17 C 332.60 218.16 333.01 215.99 334.05 214.11 Z" />
<path fill="#ce1126" opacity="1.00" d=" M 562.25 215.50 C 563.33 214.59 564.47 214.47 565.68 215.15 C 566.69 217.33 560.72 218.07 562.25 215.50 Z" />
<path fill="#ce1126" opacity="1.00" d=" M 570.95 218.97 C 573.23 215.33 577.86 220.37 575.95 223.46 C 574.39 221.86 573.78 218.68 570.95 218.97 Z" />
<path fill="#ce1126" opacity="1.00" d=" M 353.20 230.04 C 353.86 228.91 354.52 227.78 355.19 226.65 C 356.17 227.43 357.17 228.20 358.18 228.95 C 357.70 230.03 357.23 231.11 356.77 232.20 C 355.59 231.45 354.40 230.73 353.20 230.04 Z" />
<path fill="#ce1126" opacity="1.00" d=" M 904.03 250.06 C 906.41 247.22 908.16 241.66 912.65 242.31 C 915.61 244.39 915.24 248.61 915.03 251.83 C 915.89 252.80 916.96 253.55 917.95 254.40 C 916.83 259.34 915.93 264.31 915.21 269.32 C 916.65 269.51 918.49 269.09 919.61 270.33 C 922.39 272.91 925.35 275.29 928.63 277.23 C 931.62 277.08 934.61 277.00 937.62 276.93 C 937.49 277.41 937.25 278.35 937.13 278.83 C 938.06 278.19 939.00 277.55 939.96 276.93 C 940.76 282.75 946.13 286.56 948.02 291.95 C 948.42 293.88 948.70 295.83 949.05 297.77 C 952.48 298.80 955.57 300.70 957.59 303.73 C 958.12 303.86 959.18 304.11 959.71 304.24 C 960.63 305.29 961.58 306.34 962.53 307.39 C 962.96 309.62 963.15 311.94 964.01 314.06 C 965.44 316.50 967.62 318.39 969.63 320.35 C 970.21 319.95 971.37 319.15 971.95 318.75 C 972.18 319.50 972.62 321.01 972.84 321.77 C 973.75 321.77 975.56 321.77 976.46 321.77 C 976.63 320.80 976.81 319.83 977.00 318.86 C 977.97 320.80 979.05 322.68 980.25 324.49 C 982.77 325.89 984.57 328.15 986.33 330.38 C 991.32 331.59 992.09 337.37 995.34 340.64 C 998.01 343.22 995.91 347.28 997.53 350.31 C 998.23 351.71 999.13 352.99 1000.00 354.30 L 1000.00 354.33 C 999.14 356.91 997.91 359.36 996.09 361.40 C 996.23 359.37 996.44 357.35 996.62 355.33 C 995.58 357.01 994.64 358.73 993.71 360.46 C 993.27 359.92 992.41 358.85 991.98 358.31 C 987.95 359.32 985.55 362.87 982.69 365.54 C 977.24 364.73 971.63 363.86 966.63 361.42 C 963.73 359.67 960.93 357.75 958.15 355.85 C 954.59 351.17 950.33 347.08 946.68 342.49 C 950.53 343.12 950.43 338.73 950.90 336.13 C 951.15 332.61 950.94 327.48 946.91 326.21 C 942.27 325.60 937.89 323.64 934.26 320.71 C 933.12 318.56 933.33 315.50 930.95 314.22 C 926.31 311.12 922.23 307.22 918.66 302.95 C 918.38 301.22 918.96 299.51 919.23 297.82 C 918.83 296.96 918.44 296.12 918.06 295.27 C 917.33 294.52 916.65 293.74 916.02 292.92 C 916.13 287.97 919.00 283.18 917.70 278.23 C 918.61 278.80 919.53 279.37 920.47 279.94 C 920.37 275.23 916.59 272.27 913.60 269.19 C 912.77 270.03 911.92 270.87 911.11 271.71 C 909.74 266.80 907.52 262.15 906.56 257.12 C 907.77 254.45 907.80 251.50 907.94 248.64 C 906.62 249.10 905.33 249.59 904.03 250.06 Z" />
<path fill="#ce1126" opacity="1.00" d=" M 404.51 248.15 C 405.52 246.66 408.07 248.40 406.82 249.84 C 405.79 251.34 403.43 249.55 404.51 248.15 Z" />
<path fill="#ce1126" opacity="1.00" d=" M 407.38 257.21 C 409.96 256.17 412.45 254.95 414.88 253.60 C 416.63 255.23 418.41 256.86 420.55 257.96 C 420.98 261.87 422.66 265.65 421.55 269.64 C 420.86 269.67 419.48 269.74 418.78 269.77 C 417.58 270.11 416.41 271.50 415.11 270.82 C 412.42 268.70 410.53 265.49 407.09 264.43 C 407.08 262.02 406.85 259.58 407.38 257.21 Z" />
<path fill="#ce1126" opacity="1.00" d=" M 443.16 262.33 C 444.43 260.91 446.05 259.97 447.96 259.74 C 448.45 260.88 449.01 262.01 449.39 263.20 C 448.54 264.01 447.67 264.79 446.78 265.54 C 445.54 264.50 444.33 263.43 443.16 262.33 Z" />
<path fill="#ce1126" opacity="1.00" d=" M 913.04 273.50 C 913.71 274.58 914.37 275.68 915.01 276.80 C 914.83 277.86 914.69 278.94 914.58 280.02 C 913.84 277.91 912.03 275.83 913.04 273.50 Z" />
<path fill="#ce1126" opacity="1.00" d=" M 603.13 325.15 C 604.33 325.93 605.52 326.73 606.70 327.57 C 606.89 327.23 607.28 326.56 607.47 326.23 C 607.60 326.72 607.86 327.70 607.99 328.19 C 604.83 328.85 601.98 326.16 598.80 327.77 L 599.79 327.21 C 600.91 326.54 602.01 325.83 603.13 325.15 Z" />
<path fill="#ce1126" opacity="1.00" d=" M 422.21 400.09 C 423.90 399.49 424.45 399.99 423.87 401.58 C 422.19 402.17 421.63 401.67 422.21 400.09 Z" />
<path fill="#ce1126" opacity="1.00" d=" M 657.30 461.16 C 657.72 460.91 658.15 460.67 658.59 460.44 C 659.67 460.99 660.86 461.41 661.81 462.23 C 661.86 463.47 661.88 464.71 661.87 465.96 C 660.82 463.82 660.36 460.72 657.30 461.16 Z" />
<path fill="#ce1126" opacity="1.00" d=" M 673.85 468.90 C 675.24 467.26 677.64 467.61 679.54 467.05 C 679.29 469.16 679.07 471.28 678.76 473.38 C 679.48 474.51 680.36 475.58 680.80 476.89 C 679.71 480.84 678.24 484.79 678.15 488.94 C 679.05 490.77 680.21 492.46 681.23 494.25 C 682.85 494.86 684.44 495.62 685.91 496.57 C 683.86 497.61 681.59 498.09 679.33 498.35 C 680.60 497.41 682.03 496.81 683.63 496.56 C 682.19 495.58 680.79 494.57 679.38 493.58 C 678.18 491.74 677.07 489.54 674.81 488.85 C 673.33 488.73 671.92 489.18 670.56 489.66 C 671.21 488.64 671.85 487.62 672.50 486.61 C 672.95 487.31 673.42 488.01 673.89 488.72 C 674.56 484.84 678.36 482.44 678.97 478.44 C 678.22 477.62 677.48 476.81 676.75 476.01 C 674.68 475.96 672.62 475.76 670.61 475.28 C 671.63 473.13 672.40 470.81 673.85 468.90 Z" />
<path fill="#ce1126" opacity="1.00" d=" M 666.29 478.18 C 666.84 476.14 666.79 473.87 667.98 472.07 C 668.50 472.24 669.54 472.58 670.06 472.75 C 669.77 473.88 669.50 475.02 669.23 476.16 C 668.24 476.83 667.26 477.50 666.29 478.18 Z" />
<path fill="#ce1126" opacity="1.00" d=" M 693.35 485.75 C 690.96 483.66 694.36 482.85 695.86 481.82 C 695.17 483.21 694.59 484.74 693.35 485.75 Z" />
<path fill="#ce1126" opacity="1.00" d=" M 768.94 501.29 C 770.78 501.60 771.75 503.13 772.51 504.71 C 776.13 503.28 780.32 502.06 783.89 504.32 C 786.28 504.51 788.62 503.91 790.98 503.58 C 792.53 504.22 792.59 506.25 793.38 507.55 C 794.44 507.90 795.52 508.27 796.60 508.65 C 797.26 508.54 798.60 508.31 799.27 508.20 C 799.99 509.37 800.69 510.55 801.40 511.76 C 799.35 514.94 797.24 518.08 795.10 521.19 C 794.39 521.09 792.99 520.87 792.29 520.77 C 790.26 519.30 788.15 517.95 786.19 516.39 C 786.54 517.71 786.84 519.03 787.12 520.38 C 785.64 519.30 784.20 518.19 782.82 517.00 C 783.33 516.63 784.34 515.87 784.84 515.49 C 782.68 511.45 778.78 508.83 774.82 506.78 C 773.22 506.97 771.64 507.19 770.06 507.42 C 770.71 506.55 771.32 505.65 772.00 504.80 C 771.37 504.16 770.09 502.90 769.46 502.26 C 766.58 503.99 767.87 507.08 768.46 509.69 C 768.29 509.70 767.95 509.73 767.78 509.74 C 766.95 508.32 766.11 506.93 765.23 505.55 C 766.49 504.16 767.73 502.74 768.94 501.29 Z" />
<path fill="#ce1126" opacity="1.00" d=" M 734.98 506.31 C 734.66 504.81 733.14 501.96 735.84 501.93 C 736.54 502.82 737.15 503.80 737.80 504.76 C 736.85 505.28 735.91 505.79 734.98 506.31 Z" />
<path fill="#ce1126" opacity="1.00" d=" M 781.13 514.57 C 782.45 514.78 782.68 515.49 781.82 516.71 C 780.46 516.49 780.23 515.78 781.13 514.57 Z" />
<path fill="#ce1126" opacity="1.00" d=" M 616.98 519.92 C 619.40 517.85 622.09 520.50 624.29 521.61 C 628.18 523.28 627.71 528.26 630.04 531.29 C 629.11 533.13 628.13 534.95 627.11 536.74 C 627.68 536.87 628.82 537.15 629.40 537.28 C 628.66 538.40 628.04 539.63 627.07 540.58 C 625.13 540.21 623.36 539.30 621.53 538.64 C 621.54 538.05 621.58 536.86 621.59 536.26 C 616.89 536.83 615.10 532.30 612.10 529.78 C 611.14 525.74 613.40 521.76 616.98 519.92 Z" />
<path fill="#ce1126" opacity="1.00" d=" M 729.25 524.13 C 730.56 523.42 733.31 524.35 733.46 525.92 C 732.16 526.42 729.39 525.63 729.25 524.13 Z" />
<path fill="#ce1126" opacity="1.00" d=" M 651.03 525.13 C 652.42 524.84 652.91 525.38 652.50 526.73 C 651.07 527.00 650.58 526.46 651.03 525.13 Z" />
<path fill="#ce1126" opacity="1.00" d=" M 633.02 531.07 C 633.38 529.11 635.60 528.63 636.96 527.54 C 641.60 529.19 645.89 531.63 649.66 534.79 C 651.71 534.17 653.80 533.55 655.56 532.26 C 658.03 533.60 660.15 535.54 660.73 538.42 C 661.89 539.01 663.05 539.60 664.23 540.19 C 663.62 541.53 662.97 542.84 662.28 544.13 C 664.06 545.36 668.54 547.76 665.90 550.12 C 665.27 550.23 664.01 550.45 663.38 550.56 C 662.41 551.50 661.44 552.43 660.47 553.36 C 660.70 552.17 661.16 549.81 661.39 548.62 C 659.93 549.06 658.52 549.54 657.10 550.04 C 654.80 549.11 652.35 549.31 649.95 549.43 C 647.38 549.62 645.18 548.07 642.86 547.25 C 639.78 545.91 636.58 548.73 633.53 547.58 C 633.44 547.25 633.25 546.60 633.16 546.28 C 635.05 544.97 637.18 544.09 639.23 543.05 C 639.15 542.39 638.98 541.06 638.90 540.39 C 637.56 539.53 636.24 538.64 634.92 537.78 C 634.09 535.61 632.03 533.51 633.02 531.07 Z" />
<path fill="#ce1126" opacity="1.00" d=" M 768.19 543.21 C 768.79 543.78 768.79 543.78 768.19 543.21 Z" />
<path fill="#ce1126" opacity="1.00" d=" M 668.25 544.51 C 669.77 544.08 671.32 544.41 672.86 544.62 C 672.67 546.09 672.85 547.55 673.32 548.95 C 673.17 549.14 672.87 549.50 672.72 549.69 C 671.54 547.71 668.74 546.76 668.25 544.51 Z" />
<path fill="#ce1126" opacity="1.00" d=" M 654.93 551.78 C 657.89 553.13 660.22 555.42 661.15 558.59 C 664.02 558.98 666.28 560.79 667.83 563.17 C 669.47 565.92 672.64 566.93 675.40 568.16 C 672.80 567.56 672.83 570.69 674.12 571.67 C 676.03 573.30 678.50 575.10 681.16 574.23 C 680.76 573.18 680.37 572.13 679.97 571.10 C 681.28 569.97 682.59 568.84 683.88 567.69 C 685.74 567.16 687.59 566.62 689.45 566.09 C 690.01 567.35 691.49 568.58 690.79 570.12 C 689.86 575.39 686.77 579.92 685.63 585.14 C 685.11 584.42 684.60 583.71 684.09 583.01 C 679.00 580.70 673.55 579.02 667.92 578.91 C 667.84 577.16 667.74 575.41 667.61 573.68 C 668.62 573.10 669.64 572.52 670.67 571.95 C 669.95 571.28 669.24 570.61 668.55 569.96 C 667.35 570.79 666.16 571.64 664.98 572.49 C 662.92 569.02 663.42 564.67 660.90 561.43 C 659.04 560.37 657.22 559.22 655.18 558.57 C 654.83 556.31 654.59 554.04 654.93 551.78 Z" />
<path fill="#ce1126" opacity="1.00" d=" M 662.11 554.36 C 663.52 553.32 665.40 555.69 663.78 556.66 C 662.32 557.75 660.53 555.35 662.11 554.36 Z" />
<path fill="#ce1126" opacity="1.00" d=" M 671.56 590.43 C 670.60 589.20 672.79 588.08 673.66 589.03 C 674.54 590.21 672.38 591.43 671.56 590.43 Z" />
<path fill="#ce1126" opacity="1.00" d=" M 744.22 595.53 C 745.36 595.06 747.53 595.40 747.76 596.85 C 747.26 598.98 743.13 597.29 744.22 595.53 Z" />
<path fill="#ce1126" opacity="1.00" d=" M 657.05 607.23 C 658.96 607.46 660.95 608.46 662.79 607.30 C 663.43 607.56 664.09 607.83 664.75 608.11 C 664.28 610.07 664.04 612.05 663.91 614.07 C 665.84 611.19 669.02 610.69 672.26 610.90 C 673.61 611.16 674.98 611.35 676.36 611.45 C 675.53 612.20 674.69 612.95 673.88 613.73 L 675.42 614.21 C 675.03 614.87 674.25 616.19 673.86 616.85 C 672.69 616.04 671.56 615.21 670.77 614.02 C 669.44 613.96 668.13 613.92 666.82 613.89 C 666.79 614.77 666.74 616.53 666.72 617.40 C 666.05 616.42 665.40 615.43 664.76 614.45 C 662.43 615.17 660.11 614.12 657.83 613.79 C 655.27 613.08 651.88 613.16 650.58 610.38 C 651.16 610.32 652.32 610.20 652.90 610.14 C 653.11 609.59 653.54 608.51 653.75 607.96 C 653.57 608.75 653.20 610.32 653.01 611.11 C 653.80 611.56 655.37 612.47 656.16 612.92 C 656.22 612.60 656.34 611.96 656.39 611.64 C 658.35 612.69 660.52 613.15 662.69 613.60 C 660.78 611.57 657.43 610.27 657.05 607.23 Z" />
<path fill="#ce1126" opacity="1.00" d=" M 647.07 612.24 C 648.38 611.49 650.47 613.20 649.84 614.63 C 648.58 615.37 646.17 613.63 647.07 612.24 Z" />
<path fill="#ce1126" opacity="1.00" d=" M 690.30 612.13 C 693.36 610.74 690.35 615.43 690.30 612.13 Z" />
<path fill="#ce1126" opacity="1.00" d=" M 696.30 612.18 C 696.74 612.86 696.74 612.86 696.30 612.18 Z" />
<path fill="#ce1126" opacity="1.00" d=" M 772.51 612.95 C 776.12 612.78 779.45 614.29 782.93 614.97 C 785.27 614.70 787.39 613.61 789.47 612.57 C 791.64 613.60 793.75 614.76 795.82 616.00 C 791.28 618.35 785.34 619.91 780.67 617.03 C 777.94 615.67 774.56 615.42 772.51 612.95 Z" />
<path fill="#ce1126" opacity="1.00" d=" M 677.28 615.17 C 677.81 615.79 677.81 615.79 677.28 615.17 Z" />
<path fill="#ce1126" opacity="1.00" d=" M 759.83 618.71 C 760.34 616.56 761.61 614.82 764.02 614.82 C 764.55 616.47 764.96 618.17 764.96 619.94 C 764.29 619.11 763.64 618.29 763.00 617.48 C 761.94 617.89 760.88 618.30 759.83 618.71 Z" />
<path fill="#ce1126" opacity="1.00" d=" M 726.21 620.27 C 726.86 620.76 726.86 620.76 726.21 620.27 Z" />
<path fill="#ce1126" opacity="1.00" d=" M 764.32 621.28 C 766.02 621.21 765.81 624.03 764.19 623.92 C 762.53 623.92 762.76 621.24 764.32 621.28 Z" />
<path fill="#ce1126" opacity="1.00" d=" M 802.27 626.03 C 803.20 625.08 805.13 626.47 804.55 627.66 C 803.60 628.46 801.63 627.22 802.27 626.03 Z" />
<path fill="#ce1126" opacity="1.00" d=" M 676.07 632.39 C 677.46 631.68 678.42 633.91 676.81 634.28 C 675.35 635.04 674.31 632.67 676.07 632.39 Z" />
<path fill="#ce1126" opacity="1.00" d=" M 767.30 640.28 C 767.85 640.85 767.85 640.85 767.30 640.28 Z" />
<path fill="#ce1126" opacity="1.00" d=" M 774.31 642.28 C 775.30 641.12 778.12 642.44 777.09 643.95 C 776.03 645.04 773.35 643.80 774.31 642.28 Z" />
<path fill="#ce1126" opacity="1.00" d=" M 786.06 645.49 C 789.37 645.63 784.53 648.44 786.06 645.49 Z" />
<path fill="#ce1126" opacity="1.00" d=" M 781.56 646.09 C 782.51 644.69 784.65 646.43 783.65 647.72 C 782.70 649.14 780.65 647.31 781.56 646.09 Z" />
<path fill="#ce1126" opacity="1.00" d=" M 798.15 648.53 C 799.49 648.82 799.70 649.53 798.78 650.67 C 797.41 650.37 797.20 649.66 798.15 648.53 Z" />
<path fill="#ce1126" opacity="1.00" d=" M 802.52 650.57 C 803.30 649.67 803.41 647.89 804.89 647.82 C 806.24 648.33 807.55 648.27 808.81 647.62 C 811.80 651.45 817.26 651.32 820.46 654.86 C 819.23 655.49 818.03 656.13 816.82 656.77 C 816.01 655.63 815.10 654.59 813.82 654.04 C 813.51 653.72 812.89 653.10 812.58 652.79 C 810.49 651.99 808.92 650.42 807.34 648.93 C 806.94 649.65 806.12 651.09 805.72 651.82 C 804.64 651.39 803.58 650.97 802.52 650.57 Z" />
<path fill="#ce1126" opacity="1.00" d=" M 830.13 658.24 C 831.25 658.34 832.38 658.45 833.53 658.57 C 834.34 659.38 835.16 660.21 835.99 661.05 C 834.41 660.62 832.86 660.17 831.30 659.73 C 831.01 659.35 830.42 658.61 830.13 658.24 Z" />
<path fill="#ce1126" opacity="1.00" d=" M 874.90 658.74 C 877.86 658.60 880.84 658.70 883.82 658.51 C 886.24 659.67 889.26 660.70 889.24 663.96 C 888.11 667.26 884.45 663.03 882.29 664.79 C 880.99 665.80 879.57 665.77 878.19 665.02 C 878.14 668.11 875.14 666.20 873.33 666.11 C 872.27 665.14 871.20 664.19 870.14 663.26 C 870.45 662.55 870.76 661.85 871.10 661.16 C 873.72 662.03 876.50 662.20 879.24 662.52 C 877.66 661.41 876.09 660.25 874.90 658.74 Z" />
<path fill="#ce1126" opacity="1.00" d=" M 816.27 659.08 C 821.83 661.30 827.58 663.32 832.62 666.61 C 833.55 666.88 834.49 667.16 835.44 667.46 C 839.57 670.49 844.98 670.33 849.42 672.70 C 851.75 674.15 853.69 676.12 855.53 678.15 C 850.46 679.70 844.38 677.26 840.12 681.00 L 840.04 681.00 C 840.30 680.00 840.58 679.00 840.87 678.02 C 838.92 677.63 836.99 677.19 835.06 676.78 C 834.82 675.90 834.60 675.03 834.40 674.16 C 834.02 674.61 833.26 675.51 832.88 675.96 C 831.05 675.61 829.20 675.28 827.38 674.99 C 827.95 673.55 828.53 672.12 829.11 670.69 C 827.80 670.71 826.50 670.74 825.21 670.77 C 823.96 671.47 822.71 672.17 821.45 672.83 C 822.23 671.28 823.59 670.22 825.04 669.31 C 823.89 668.87 822.74 668.42 821.61 667.99 C 820.42 667.18 819.28 666.33 818.17 665.44 C 818.26 665.18 818.43 664.65 818.52 664.39 C 816.69 663.08 815.13 661.46 816.27 659.08 Z" />
</g>
<g id="#000000ff">
<path fill="#000000" opacity="1.00" d=" M 638.13 85.45 C 641.45 85.69 636.49 88.36 638.13 85.45 Z" />
<path fill="#000000" opacity="1.00" d=" M 10.04 156.75 C 73.86 204.29 137.40 252.20 201.11 299.88 C 334.64 399.97 468.10 500.14 601.67 600.17 C 601.07 601.60 600.49 603.06 599.87 604.50 C 598.65 601.43 597.34 597.97 593.85 596.91 C 587.54 592.79 579.82 594.27 572.90 595.62 C 572.41 595.35 571.44 594.81 570.95 594.54 C 570.30 594.71 569.67 594.89 569.04 595.09 C 567.87 593.82 566.70 592.55 565.56 591.27 C 564.87 591.01 563.50 590.51 562.81 590.26 C 562.32 590.77 561.35 591.79 560.86 592.30 C 556.05 591.27 551.72 588.76 546.92 587.75 C 543.11 586.92 539.42 588.69 536.21 590.55 C 532.04 587.25 526.73 587.06 521.68 587.61 C 521.45 586.27 521.23 584.94 521.02 583.62 C 521.87 582.92 522.73 582.22 523.60 581.54 C 521.32 582.05 519.25 581.71 518.22 579.37 C 517.49 581.07 516.55 582.68 515.42 584.16 C 508.58 582.42 501.55 587.09 494.95 583.51 C 492.82 579.20 487.29 579.47 483.56 577.27 C 481.04 579.85 477.80 581.46 474.10 580.91 C 473.06 581.50 472.21 582.57 471.00 582.79 C 469.12 581.58 468.29 579.31 467.02 577.57 C 466.25 577.79 464.70 578.23 463.92 578.44 C 464.18 577.82 464.70 576.56 464.96 575.93 C 464.43 575.32 463.91 574.71 463.38 574.11 C 463.22 574.86 462.90 576.37 462.74 577.12 C 461.45 576.38 460.19 575.60 458.84 575.01 C 456.95 575.63 455.54 577.20 453.68 577.85 C 453.30 576.27 453.06 574.67 452.79 573.09 C 450.20 571.83 447.19 571.08 445.29 568.79 C 443.55 566.83 441.79 564.89 439.94 563.04 C 439.99 560.03 439.69 556.84 437.51 554.56 C 432.76 549.28 429.14 542.86 423.24 538.71 C 423.28 539.54 423.35 541.21 423.39 542.04 C 421.07 540.99 418.77 539.91 416.49 538.81 C 415.98 537.24 415.47 535.69 414.95 534.14 C 414.27 534.08 412.91 533.98 412.23 533.92 C 412.77 535.37 413.30 536.82 413.83 538.29 C 411.59 537.22 409.41 535.86 408.28 533.56 C 406.20 530.67 406.53 526.66 404.22 523.94 C 402.82 524.09 401.45 524.34 400.07 524.56 C 400.21 523.91 400.36 523.27 400.52 522.64 C 399.65 520.05 399.41 517.33 399.45 514.63 C 401.27 513.47 403.33 512.53 404.78 510.88 C 405.71 509.64 404.76 508.14 404.54 506.85 C 403.57 509.67 401.82 514.32 397.96 512.84 C 392.96 510.24 387.65 508.33 382.03 507.54 C 377.84 505.36 377.10 500.55 376.74 496.30 C 377.50 496.16 379.03 495.88 379.79 495.74 C 380.24 494.89 380.70 494.04 381.16 493.19 C 380.30 493.52 379.44 493.86 378.59 494.21 C 377.82 492.37 376.82 490.64 375.14 489.51 C 373.41 484.26 369.14 480.33 364.78 477.19 C 360.45 472.99 357.87 467.25 357.00 461.32 C 356.49 456.63 351.59 455.14 348.07 453.18 C 347.56 450.63 347.07 448.09 346.52 445.57 C 339.81 441.73 331.45 443.36 325.09 438.79 C 325.36 437.95 325.88 436.27 326.15 435.43 C 325.38 435.18 323.85 434.67 323.08 434.42 C 322.93 435.12 322.64 436.51 322.50 437.21 C 319.58 437.44 316.86 436.21 314.07 435.63 C 310.32 435.02 306.58 436.25 302.82 436.00 C 300.03 434.72 298.35 431.86 295.55 430.61 C 293.73 430.31 291.89 430.65 290.07 430.74 C 288.72 429.43 287.38 428.13 286.03 426.84 C 285.77 427.49 285.25 428.80 284.98 429.45 C 283.54 428.82 282.10 428.20 280.66 427.58 C 280.32 426.60 279.99 425.63 279.66 424.66 C 279.39 425.36 278.85 426.77 278.58 427.48 C 276.00 428.06 273.55 426.92 271.46 425.52 C 271.09 425.66 270.37 425.94 270.01 426.08 C 267.86 425.19 265.71 424.33 263.58 423.40 C 264.37 422.24 265.17 421.09 265.97 419.94 C 265.53 417.44 265.13 414.93 264.75 412.43 C 264.11 414.60 263.76 416.88 262.89 418.98 C 257.52 419.46 254.67 413.81 251.29 410.64 C 251.47 412.63 251.69 414.63 251.90 416.62 C 250.36 416.75 248.82 416.87 247.29 417.01 C 246.39 415.82 245.50 414.64 244.60 413.47 C 244.42 412.43 244.06 410.34 243.89 409.30 C 241.45 412.09 242.21 415.58 243.44 418.74 C 239.99 416.69 238.33 412.93 236.04 409.84 C 236.77 413.88 236.71 418.38 239.28 421.83 C 240.29 423.56 242.17 425.14 241.38 427.40 C 239.47 425.46 237.69 423.41 235.96 421.32 C 235.43 422.01 234.37 423.38 233.84 424.07 C 231.07 421.46 232.07 416.87 228.75 414.53 C 229.36 416.31 230.04 418.07 230.69 419.85 C 228.05 419.93 227.51 416.99 226.27 415.30 C 225.52 415.96 224.77 416.63 224.03 417.30 C 224.53 417.53 225.54 417.99 226.04 418.22 C 225.55 419.17 225.07 420.13 224.58 421.10 C 225.26 422.25 225.93 423.41 226.61 424.58 C 225.10 425.06 223.61 425.56 222.12 426.05 C 221.64 425.62 220.69 424.75 220.22 424.32 C 219.49 424.46 218.03 424.74 217.30 424.88 C 214.80 423.62 212.29 422.39 209.66 421.43 C 206.23 420.14 202.35 419.86 199.45 417.41 C 196.57 415.54 195.52 411.45 191.77 410.89 C 194.93 416.66 198.14 422.48 202.20 427.68 C 201.34 427.54 199.64 427.25 198.78 427.11 C 200.96 430.82 204.18 433.96 205.64 438.06 C 204.12 441.33 201.37 436.74 199.79 435.60 C 198.73 435.65 196.63 435.75 195.57 435.80 C 197.07 436.26 198.54 436.81 199.98 437.47 C 200.96 438.42 201.95 439.36 202.93 440.33 C 200.22 443.46 195.89 442.34 192.30 442.17 C 190.63 440.97 188.88 439.80 186.86 439.29 C 182.69 437.64 178.27 441.46 174.26 438.79 C 173.25 437.29 172.58 435.60 171.59 434.10 C 169.71 432.94 167.28 433.44 165.19 433.22 C 166.92 433.95 168.71 434.55 170.50 435.14 C 171.34 439.11 174.91 440.67 178.45 441.64 C 180.34 446.25 183.39 450.45 184.13 455.47 C 178.06 456.07 171.93 455.71 165.87 456.34 C 158.18 458.09 150.26 458.84 142.81 461.56 C 140.23 462.77 137.65 461.35 135.19 460.61 C 133.43 461.41 131.47 461.58 129.93 460.21 C 131.50 459.96 133.08 459.71 134.66 459.46 C 129.39 457.53 123.56 456.89 118.04 457.92 C 113.82 458.58 110.53 462.78 106.03 461.64 C 101.40 461.14 102.25 455.30 101.54 451.96 C 98.11 450.03 94.23 450.83 90.54 451.24 C 88.57 452.59 86.54 453.86 84.59 455.25 C 88.68 453.79 92.76 452.28 97.01 451.36 C 97.67 451.63 98.98 452.17 99.64 452.44 C 100.44 455.22 101.13 458.02 101.58 460.88 C 103.43 462.44 105.29 464.73 107.99 464.43 C 111.55 463.58 114.28 460.51 118.00 460.14 C 120.73 460.15 123.51 460.36 126.12 461.21 C 129.75 462.86 132.69 465.76 136.42 467.22 C 141.52 468.85 147.53 468.46 151.64 472.43 C 156.95 475.84 161.57 480.27 164.47 485.94 C 165.21 485.53 165.96 485.12 166.70 484.71 C 166.49 484.04 166.08 482.69 165.87 482.02 C 167.78 483.74 170.06 485.25 171.33 487.56 C 172.22 489.23 171.19 490.97 170.58 492.54 C 170.07 490.29 169.66 488.03 169.20 485.78 L 168.40 486.18 L 167.68 486.48 C 166.98 486.47 165.57 486.45 164.87 486.44 C 166.02 487.92 168.03 489.10 168.23 491.14 C 168.64 495.69 168.69 500.28 168.67 504.85 C 169.38 504.69 170.79 504.36 171.49 504.19 C 170.91 506.36 169.50 508.00 167.56 509.08 C 167.34 508.41 166.89 507.07 166.66 506.40 C 164.27 507.48 161.68 507.37 159.13 507.41 C 155.37 508.29 151.99 510.36 148.20 511.17 C 143.47 512.09 140.32 516.02 136.37 518.43 C 131.84 521.48 126.53 523.06 121.90 525.93 C 120.36 526.73 118.80 527.85 116.98 527.68 C 112.13 528.05 109.91 522.70 105.66 521.42 C 100.49 519.70 95.08 518.73 90.03 516.63 C 85.82 518.09 81.35 518.28 76.93 518.31 C 74.11 518.29 71.61 519.74 68.93 520.37 C 65.90 520.33 63.01 518.83 59.96 519.26 C 56.95 519.68 53.99 520.42 51.00 521.01 C 48.12 520.30 44.89 520.48 42.39 518.69 C 39.90 516.99 37.20 515.10 34.03 515.29 C 28.85 515.08 26.10 520.98 20.98 521.19 C 17.90 521.70 15.77 519.16 13.66 517.39 C 12.11 515.92 9.88 514.53 10.31 512.04 C 10.22 463.63 10.26 415.21 10.19 366.79 C 9.07 366.81 7.95 366.84 6.83 366.87 C 5.76 365.74 4.70 364.62 3.63 363.51 C 2.60 361.41 1.76 359.21 1.60 356.86 C 1.07 356.11 0.54 355.37 0.00 354.64 L 0.00 353.53 C 0.20 351.54 0.43 349.55 0.61 347.56 C 1.15 347.39 2.23 347.05 2.77 346.88 C 3.40 345.12 4.06 343.38 4.69 341.63 C 5.43 340.79 6.18 339.96 6.92 339.13 C 5.94 338.20 4.97 337.29 4.00 336.36 C 4.67 336.17 6.01 335.79 6.68 335.60 C 6.99 333.54 7.30 331.49 7.60 329.45 C 8.24 329.33 9.53 329.09 10.18 328.97 C 10.15 271.56 10.04 214.16 10.04 156.75 M 76.70 319.72 C 61.55 319.69 46.40 319.61 31.24 319.76 C 43.32 329.51 55.83 338.72 68.06 348.29 C 63.55 362.92 59.00 377.53 54.54 392.18 C 67.14 383.50 79.23 374.10 91.66 365.19 C 104.01 374.70 116.34 384.25 128.75 393.68 C 124.35 378.50 119.68 363.40 115.20 348.24 C 127.49 338.75 139.94 329.46 152.05 319.75 C 136.48 319.62 120.90 319.68 105.33 319.72 C 100.67 304.17 96.39 288.51 91.58 273.01 C 86.60 288.57 81.69 304.16 76.70 319.72 M 184.12 403.10 C 185.74 405.47 187.96 407.41 190.83 408.04 C 192.02 408.97 193.20 409.90 194.40 410.84 C 193.60 409.43 193.77 406.73 191.57 406.73 C 188.78 406.23 186.45 404.60 184.12 403.10 M 241.71 408.37 C 242.16 408.40 243.05 408.45 243.50 408.48 C 244.37 406.51 241.05 406.31 241.71 408.37 Z" />
<path fill="#000000" opacity="1.00" d=" M 199.70 419.96 C 203.75 421.48 208.53 423.23 209.27 428.14 C 204.51 427.76 201.60 423.94 199.70 419.96 Z" />
<path fill="#000000" opacity="1.00" d=" M 179.18 440.55 C 181.12 440.27 183.07 439.88 185.04 439.92 C 188.06 440.92 190.29 443.49 191.60 446.30 C 188.20 444.94 184.65 444.23 180.99 444.19 C 180.26 443.04 179.65 441.83 179.18 440.55 Z" />
<path fill="#000000" opacity="1.00" d=" M 181.60 446.92 C 184.68 444.22 189.48 445.37 190.38 449.60 C 188.89 450.21 187.39 450.80 185.89 451.39 C 184.20 450.16 182.70 448.70 181.60 446.92 Z" />
<path fill="#000000" opacity="1.00" d=" M 185.12 451.98 C 187.11 451.88 189.08 451.56 190.99 451.00 C 191.46 452.03 191.93 453.06 192.39 454.09 C 190.16 455.42 187.62 455.99 185.06 455.47 C 185.07 454.60 185.10 452.86 185.12 451.98 Z" />
<path fill="#000000" opacity="1.00" d=" M 164.68 460.45 C 168.19 460.75 172.89 458.90 175.57 461.85 C 171.89 462.18 168.08 462.02 164.68 460.45 Z" />
<path fill="#000000" opacity="1.00" d=" M 148.37 461.96 C 148.57 460.56 149.26 460.29 150.45 461.14 C 150.25 462.52 149.56 462.79 148.37 461.96 Z" />
<path fill="#000000" opacity="1.00" d=" M 178.03 461.56 C 181.13 461.78 186.16 460.57 187.45 464.41 C 188.26 466.38 189.04 468.37 190.07 470.25 C 189.12 469.83 188.18 469.39 187.25 468.94 C 183.77 466.97 181.51 463.52 178.03 461.56 Z" />
<path fill="#000000" opacity="1.00" d=" M 151.79 462.08 C 155.23 461.81 159.18 460.65 162.26 462.80 C 158.85 464.32 154.78 464.59 151.79 462.08 Z" />
<path fill="#000000" opacity="1.00" d=" M 162.47 464.21 C 163.08 463.91 164.29 463.31 164.90 463.01 C 169.87 464.97 175.42 462.40 180.52 464.35 C 180.39 466.86 181.73 468.88 183.25 470.74 C 182.19 471.25 181.13 471.78 180.08 472.31 C 176.85 471.81 173.79 470.71 171.04 468.94 C 167.95 467.83 164.29 467.34 162.47 464.21 Z" />
<path fill="#000000" opacity="1.00" d=" M 634.42 463.14 C 637.34 461.56 634.56 466.47 634.42 463.14 Z" />
<path fill="#000000" opacity="1.00" d=" M 139.91 465.62 C 142.45 465.44 144.99 465.24 147.53 465.35 C 148.10 467.06 146.15 466.75 145.07 466.93 C 143.21 467.23 141.44 466.63 139.91 465.62 Z" />
<path fill="#000000" opacity="1.00" d=" M 159.23 466.53 C 160.47 466.00 162.22 467.76 161.73 469.02 C 160.44 469.73 158.64 467.79 159.23 466.53 Z" />
<path fill="#000000" opacity="1.00" d=" M 153.75 467.13 C 154.49 467.10 155.97 467.05 156.70 467.02 C 157.72 468.18 158.66 469.44 159.89 470.41 C 163.41 471.58 167.15 472.04 170.63 473.41 C 173.70 474.39 175.64 477.16 178.27 478.88 C 180.45 480.82 183.29 481.95 185.30 484.06 C 185.51 485.38 185.60 488.57 183.47 487.85 C 181.09 483.48 175.91 482.38 171.87 480.09 C 169.25 479.26 167.72 476.93 165.79 475.17 C 163.74 473.74 161.06 473.60 158.95 472.27 C 157.04 470.75 155.44 468.88 153.75 467.13 Z" />
<path fill="#000000" opacity="1.00" d=" M 191.61 468.25 C 193.61 469.29 196.04 470.25 196.81 472.60 C 195.21 474.65 192.71 472.73 190.81 472.23 C 191.07 470.90 191.33 469.57 191.61 468.25 Z" />
<path fill="#000000" opacity="1.00" d=" M 181.91 474.41 C 184.22 473.79 187.05 472.46 188.92 474.71 C 186.86 477.04 183.77 476.80 181.91 474.41 Z" />
<path fill="#000000" opacity="1.00" d=" M 158.67 473.99 C 160.82 475.46 163.83 476.51 164.32 479.43 C 161.58 478.70 159.75 476.48 158.67 473.99 Z" />
<path fill="#000000" opacity="1.00" d=" M 157.79 512.65 C 158.34 512.61 159.45 512.53 160.00 512.49 C 159.45 513.88 158.91 515.27 158.39 516.67 C 157.19 515.98 156.00 515.38 154.79 514.73 C 155.79 514.03 156.79 513.34 157.79 512.65 Z" />
<path fill="#000000" opacity="1.00" d=" M 659.20 520.29 C 659.81 520.72 659.81 520.72 659.20 520.29 Z" />
<path fill="#000000" opacity="1.00" d=" M 480.25 586.29 C 480.83 586.80 480.83 586.80 480.25 586.29 Z" />
<path fill="#000000" opacity="1.00" d=" M 729.23 594.28 C 729.81 594.75 729.81 594.75 729.23 594.28 Z" />
<path fill="#000000" opacity="1.00" d=" M 593.74 605.49 C 594.01 604.79 594.28 604.10 594.57 603.41 C 598.32 605.96 603.27 605.60 607.55 604.88 C 613.14 608.62 618.49 612.71 623.70 616.97 C 623.17 617.49 622.11 618.54 621.58 619.06 C 621.63 618.66 621.73 617.87 621.78 617.47 C 620.41 617.59 619.06 617.59 617.72 617.48 C 617.44 616.73 616.89 615.24 616.62 614.49 C 615.21 614.82 613.82 615.17 612.43 615.50 C 610.54 614.33 608.53 613.38 606.43 612.70 C 606.44 611.72 606.57 610.75 606.43 609.79 C 602.45 611.26 598.82 607.89 594.78 607.98 C 595.71 607.54 597.58 606.66 598.52 606.22 C 596.91 606.05 595.31 605.81 593.74 605.49 Z" />
<path fill="#000000" opacity="1.00" d=" M 655.30 609.23 C 655.78 609.79 655.78 609.79 655.30 609.23 Z" />
<path fill="#000000" opacity="1.00" d=" M 687.03 611.43 C 688.39 610.98 688.92 611.46 688.60 612.87 C 687.22 613.30 686.69 612.82 687.03 611.43 Z" />
<path fill="#000000" opacity="1.00" d=" M 806.16 627.27 C 806.71 627.75 806.71 627.75 806.16 627.27 Z" />
<path fill="#000000" opacity="1.00" d=" M 809.39 645.33 C 810.31 644.56 812.39 645.71 811.68 646.93 C 810.73 647.77 808.67 646.52 809.39 645.33 Z" />
<path fill="#000000" opacity="1.00" d=" M 759.10 646.13 C 762.04 644.58 759.25 649.45 759.10 646.13 Z" />
</g>
<g id="#fddc50ff">
<path fill="#fddc50" opacity="1.00" d=" M 663.48 85.09 C 663.95 85.07 664.90 85.02 665.37 85.00 C 665.95 85.30 667.10 85.89 667.68 86.19 C 666.92 88.74 666.07 91.25 665.19 93.76 C 662.58 94.54 659.79 95.35 657.13 94.37 C 654.47 94.30 653.37 91.78 651.91 90.03 C 652.33 90.10 653.17 90.24 653.58 90.31 C 654.95 90.24 656.23 90.57 657.41 91.31 C 659.38 89.37 661.98 89.11 664.61 89.48 C 663.95 88.09 662.61 86.71 663.48 85.09 Z" />
<path fill="#fddc50" opacity="1.00" d=" M 650.56 92.07 L 651.24 91.66 C 654.03 91.91 650.36 94.57 650.56 92.07 Z" />
<path fill="#fddc50" opacity="1.00" d=" M 706.29 187.16 C 709.46 188.11 712.80 187.83 716.03 188.40 C 719.91 189.31 723.78 190.29 727.63 191.36 C 728.06 192.26 728.51 193.15 728.98 194.04 C 730.15 196.80 733.69 196.40 736.08 197.29 C 736.68 196.52 737.29 195.75 737.92 194.99 C 739.58 195.99 741.26 196.96 742.89 198.03 C 736.53 200.61 730.06 202.96 724.11 206.42 C 737.87 212.02 749.22 221.96 760.77 231.05 C 758.77 233.64 756.99 236.42 754.67 238.74 C 752.85 240.93 749.69 241.01 747.11 241.43 C 743.42 240.48 739.64 240.00 735.85 239.66 C 734.96 243.33 735.53 247.24 735.52 250.99 C 736.83 253.03 739.21 254.25 740.86 256.06 C 743.58 258.45 746.66 261.25 747.13 265.04 C 746.55 267.48 744.95 269.46 743.53 271.45 C 740.21 272.00 737.63 274.19 735.13 276.26 C 732.45 277.58 729.32 278.06 727.15 280.27 C 725.76 281.77 723.89 280.18 722.32 279.86 C 721.87 278.90 721.43 277.94 720.99 276.99 C 718.95 276.67 716.80 276.00 714.79 276.72 C 713.75 277.65 712.88 278.72 711.87 279.66 C 710.75 279.19 710.60 277.89 710.14 276.93 C 707.26 276.95 704.41 276.56 701.56 276.29 C 701.19 277.70 700.84 279.11 700.50 280.53 C 702.04 282.61 706.86 281.54 706.17 284.95 C 705.48 288.31 700.98 285.80 699.52 288.35 C 697.83 291.10 697.53 294.56 694.74 296.62 C 691.56 297.51 688.67 299.17 686.20 301.34 C 685.45 302.69 685.09 305.04 683.03 304.78 C 680.83 304.91 678.79 305.73 676.83 306.64 C 675.88 308.09 674.69 309.34 673.33 310.40 C 672.80 309.97 671.74 309.12 671.21 308.70 C 668.23 309.11 665.13 309.38 662.68 311.32 C 661.76 310.44 660.87 309.54 659.94 308.69 C 657.89 309.28 658.71 311.61 658.84 313.09 C 658.16 314.08 657.48 315.06 656.81 316.05 C 654.33 316.36 652.05 317.39 649.72 318.23 C 649.26 317.96 648.34 317.44 647.87 317.17 C 643.81 319.68 639.76 322.28 636.09 325.34 C 634.63 325.70 633.21 326.14 631.80 326.62 C 630.33 326.54 628.87 326.48 627.42 326.48 C 625.07 326.47 622.74 326.81 620.41 326.91 C 619.24 325.87 617.98 324.94 616.69 324.09 C 614.85 325.41 612.93 326.61 611.03 327.84 C 610.39 326.65 609.71 325.50 608.99 324.39 C 608.61 324.85 607.85 325.77 607.47 326.23 C 607.28 326.56 606.89 327.23 606.70 327.57 C 605.52 326.73 604.33 325.93 603.13 325.15 C 602.01 325.83 600.91 326.54 599.79 327.21 C 595.86 327.21 591.99 326.24 588.07 326.46 C 584.74 327.95 580.08 328.42 577.58 325.22 C 575.52 322.36 574.07 319.07 571.72 316.41 C 569.97 313.80 566.64 313.46 563.95 312.37 C 561.82 311.66 559.16 310.14 557.32 312.25 C 555.48 314.26 552.68 313.81 550.24 313.70 C 549.38 315.05 548.51 316.40 547.65 317.76 C 546.92 317.54 546.19 317.32 545.47 317.10 C 544.05 317.87 542.18 319.15 541.69 316.61 C 542.31 316.63 543.53 316.67 544.14 316.69 C 543.86 315.37 543.60 314.06 543.34 312.75 C 542.74 312.56 541.54 312.17 540.93 311.98 C 541.78 310.66 542.62 309.32 543.27 307.88 C 542.85 308.32 542.02 309.21 541.60 309.65 C 537.38 308.53 533.30 306.74 528.92 306.39 C 529.57 305.52 530.23 304.66 530.89 303.80 C 529.29 302.84 527.67 301.94 525.99 301.18 C 525.59 301.66 524.81 302.62 524.41 303.10 C 524.16 301.62 523.91 300.14 523.66 298.68 C 521.10 298.03 518.56 297.28 515.91 297.19 C 515.56 296.62 514.87 295.48 514.52 294.91 C 513.19 295.36 512.02 296.09 510.88 296.87 C 509.00 297.40 507.89 295.66 506.59 294.72 C 503.31 293.76 499.23 293.95 496.88 291.08 C 494.77 288.93 494.01 285.91 493.54 283.03 C 495.88 279.42 494.36 272.88 499.47 271.58 C 502.75 270.33 507.03 272.88 507.94 276.23 C 508.48 276.52 509.56 277.10 510.10 277.39 C 511.96 275.81 513.93 274.36 515.93 272.96 C 517.64 273.60 519.41 274.24 521.23 273.59 C 523.24 275.39 525.63 276.64 528.39 276.68 C 530.54 273.89 534.23 273.71 537.20 272.23 C 540.82 273.31 544.08 275.42 547.79 276.33 C 549.91 277.55 553.25 278.14 553.39 281.14 C 557.80 279.68 562.53 280.23 566.93 279.03 C 568.55 279.33 570.20 279.62 571.86 279.51 C 573.42 278.09 574.89 276.37 577.03 275.84 C 579.15 275.52 581.33 275.62 583.45 275.18 C 583.45 274.49 583.44 273.11 583.44 272.42 C 585.06 273.93 584.34 276.17 584.23 278.10 C 584.89 278.21 586.21 278.44 586.88 278.56 C 588.59 277.60 590.74 277.08 591.59 275.10 C 593.37 275.59 595.14 276.06 596.95 276.43 C 600.37 274.96 602.87 272.10 604.15 268.64 C 601.80 268.04 600.61 266.02 599.35 264.17 C 600.42 261.73 602.25 259.51 604.87 258.66 C 606.39 256.73 607.41 254.42 605.14 252.58 C 605.60 251.37 606.08 250.17 606.58 248.97 C 606.36 248.52 605.92 247.60 605.70 247.15 C 605.43 243.49 608.76 241.72 611.96 241.64 C 614.80 241.87 617.43 243.50 619.02 245.86 C 616.71 249.82 611.01 248.68 608.95 252.71 C 609.34 253.27 610.11 254.39 610.50 254.95 C 610.21 256.45 611.13 258.44 609.81 259.59 C 609.11 259.76 607.71 260.10 607.01 260.27 C 609.55 265.19 612.56 270.00 613.57 275.54 C 616.06 279.10 620.71 277.20 624.20 278.66 C 626.65 275.87 630.12 274.21 632.46 271.33 C 635.47 270.76 638.73 270.01 641.37 272.10 C 644.36 272.58 645.25 275.37 646.05 277.90 C 649.41 277.51 652.95 277.02 655.19 274.17 C 655.19 273.46 655.21 272.04 655.22 271.32 C 657.03 271.17 658.85 271.05 660.67 270.95 C 661.25 271.83 661.84 272.70 662.44 273.58 C 663.44 273.57 664.46 273.56 665.49 273.55 C 667.73 270.95 672.22 269.83 672.50 265.92 C 672.01 259.33 674.62 251.97 680.47 248.44 C 683.60 246.30 685.45 242.83 688.37 240.44 C 690.54 239.70 692.58 238.64 694.67 237.68 C 694.83 237.01 695.16 235.68 695.33 235.02 C 699.19 235.74 703.49 239.07 707.00 235.80 C 708.72 236.71 710.40 237.72 711.76 239.15 C 715.33 237.41 716.93 233.40 716.86 229.60 C 713.38 226.12 715.83 221.17 715.03 216.93 C 713.92 214.65 711.56 212.60 712.47 209.80 C 712.99 207.54 711.31 205.67 710.46 203.72 C 709.37 202.89 708.31 202.04 707.27 201.17 C 707.45 199.33 706.65 197.75 705.52 196.37 C 705.75 194.12 704.94 192.05 704.13 190.01 C 704.69 188.95 705.54 188.09 706.29 187.16 Z" />
<path fill="#fddc50" opacity="1.00" d=" M 569.31 218.68 C 570.80 219.36 571.92 220.55 573.02 221.74 C 571.71 221.81 570.40 221.86 569.10 221.91 C 569.16 221.10 569.26 219.49 569.31 218.68 Z" />
<path fill="#fddc50" opacity="1.00" d=" M 546.15 233.79 C 547.47 233.20 548.81 232.64 550.14 232.05 C 551.38 233.56 550.63 235.57 548.79 236.09 C 547.66 235.65 546.97 234.62 546.15 233.79 Z" />
<path fill="#fddc50" opacity="1.00" d=" M 679.20 237.17 C 680.43 236.32 681.59 235.35 682.92 234.65 C 684.53 235.19 686.04 235.97 687.62 236.61 C 686.60 237.77 685.46 238.82 684.18 239.69 C 682.54 238.80 680.86 238.00 679.20 237.17 Z" />
<path fill="#fddc50" opacity="1.00" d=" M 610.73 260.19 C 611.99 260.88 611.92 261.52 610.53 262.11 C 609.21 261.41 609.28 260.78 610.73 260.19 Z" />
<path fill="#fddc50" opacity="1.00" d=" M 477.69 270.86 C 477.40 269.01 478.16 267.32 478.95 265.70 C 480.31 266.57 482.53 267.19 482.49 269.19 C 482.73 270.47 481.74 271.45 481.19 272.49 C 480.02 271.94 478.86 271.39 477.69 270.86 Z" />
<path fill="#fddc50" opacity="1.00" d=" M 76.70 319.72 C 81.69 304.16 86.60 288.57 91.58 273.01 C 96.39 288.51 100.67 304.17 105.33 319.72 C 120.90 319.68 136.48 319.62 152.05 319.75 C 139.94 329.46 127.49 338.75 115.20 348.24 C 119.68 363.40 124.35 378.50 128.75 393.68 C 116.34 384.25 104.01 374.70 91.66 365.19 C 79.23 374.10 67.14 383.50 54.54 392.18 C 59.00 377.53 63.55 362.92 68.06 348.29 C 55.83 338.72 43.32 329.51 31.24 319.76 C 46.40 319.61 61.55 319.69 76.70 319.72 Z" />
<path fill="#fddc50" opacity="1.00" d=" M 457.30 275.27 C 458.02 272.71 460.94 273.51 462.94 273.58 C 464.46 275.11 465.72 277.33 468.15 277.42 C 472.40 278.11 476.98 280.53 478.25 284.93 C 478.07 289.93 476.72 295.47 472.10 298.21 C 471.68 296.58 471.42 294.88 470.70 293.35 C 468.60 292.90 466.45 292.68 464.41 292.00 C 463.90 290.24 463.70 288.15 461.84 287.26 C 457.62 284.90 456.40 279.73 457.30 275.27 Z" />
<path fill="#fddc50" opacity="1.00" d=" M 423.77 303.97 C 424.06 303.78 424.63 303.41 424.92 303.22 C 426.53 303.24 428.15 303.29 429.77 303.31 C 432.38 304.30 435.16 304.68 437.81 305.50 C 439.24 306.52 440.36 307.91 441.74 309.01 C 446.76 312.48 450.56 317.59 452.97 323.17 C 454.07 326.07 457.50 326.44 459.85 327.93 C 456.39 331.28 453.10 335.04 448.54 336.91 C 448.18 331.41 450.56 326.29 450.92 320.86 C 441.22 323.62 434.46 332.01 424.96 335.16 C 426.24 329.40 429.72 324.31 430.09 318.32 C 422.20 323.33 417.58 332.39 408.99 336.35 C 409.92 331.65 411.87 327.25 413.95 322.96 C 417.08 316.56 420.22 310.15 423.77 303.97 Z" />
<path fill="#fddc50" opacity="1.00" d=" M 716.08 485.03 C 719.40 485.19 714.49 487.95 716.08 485.03 Z" />
<path fill="#fddc50" opacity="1.00" d=" M 801.40 511.76 C 802.56 512.18 803.73 512.64 804.90 513.10 C 804.24 514.67 803.62 516.25 803.01 517.85 C 801.96 516.99 800.92 516.13 799.90 515.27 C 798.30 517.26 801.69 518.85 802.29 520.70 C 801.25 520.09 800.23 519.45 799.22 518.83 C 797.88 519.69 796.50 520.47 795.10 521.19 C 797.24 518.08 799.35 514.94 801.40 511.76 Z" />
<path fill="#fddc50" opacity="1.00" d=" M 763.63 542.31 C 764.02 540.82 766.74 540.86 767.31 542.19 C 766.97 543.74 764.00 543.93 763.63 542.31 Z" />
</g>
</svg>
