<?xml version="1.0" encoding="utf-8"?>
<!-- Generator: Adobe Illustrator 17.1.0, SVG Export Plug-In . SVG Version: 6.00 Build 0)  -->
<!DOCTYPE svg PUBLIC "-//W3C//DTD SVG 1.1//EN" "http://www.w3.org/Graphics/SVG/1.1/DTD/svg11.dtd">
<svg version="1.1" id="Flag_of_Poland" xmlns="http://www.w3.org/2000/svg" xmlns:xlink="http://www.w3.org/1999/xlink" x="0px"
	 y="0px" viewBox="303.7 87 672.7 626.2" enable-background="new 303.7 87 672.7 626.2" xml:space="preserve">
<g>
	<defs>
		<path id="Poland_1_" d="M346.3,182.7L346.3,182.7l-0.4-0.3h-0.5l-0.4,0.4l-0.9,0.2l-0.6,0.4l-0.5-0.2l-0.1-0.8l0.4-1.2l0.5-0.4
			l0-0.3l-0.3-0.6l0.5-0.3l0.9,0l1.4,0.6l0.2,0.4l-0.2,0.5l0.2,0.3L346.3,182.7z M310.2,191.9l0-1.7l0-0.5l0-0.6l0-0.4l-0.3-0.9
			l-0.8-0.8l-0.9-0.5l1.6-0.2l0.6-0.5l0.6-0.5l1.3,0.6l1.1,0.2l1.1-0.2l0.3,0.2l0.3,0.1l0.2,0.1l2.3,0.9l1.3,0.2l1.3-0.2l2.4-0.6
			l2-0.9l2.2-1.5l0.8-0.8l1.4-1.4l0.7-0.6l0.8,0l1.8-0.7l1.8-1.1l3.6-1.3l1.6-0.8l0.6-0.2l1.8-0.6l1.1-0.8l1.2-0.6l1.6,0.1l1-0.3
			l0.3,0.1l0,0.9l-0.2,0.4l-1.3,0.2l-1,0.4l-1,1l-0.4-0.5l-0.4,0.1l-0.2,0.2l-0.2,0.1l-0.1,0.7l0.4,0.7l-0.1,0.6l0.2,0.8l-0.9,2.2
			l0.4,1.3l0,0.4l-0.6,0.8l-0.6,0.4l-0.3,0.8l-0.4,0.3l0,0.6l-1.1,0.5l-0.7,0.8l-0.6,1.6l-0.5,0.8l-0.3,1.1l0.4,1.2l0,0.1l-0.1,0.3
			l-0.1,0.8l0,0.1l-0.3,0.7l-0.5,0.4l-0.8,0.1l-0.1,0.6l-0.3,0.5l0,0.3l0.2,0.4l-0.3,0.7l-0.4-0.1l-0.3-0.3l-0.1-0.6l-0.3-0.1l0-1.1
			l-0.2-0.4l0.7,0l0.3-0.5l-0.1-0.2l-0.4-1.1l-0.3-0.3l-1-0.2l-0.7-0.4l-0.5,0l-0.4-0.4l-0.9,0.3l-0.7-0.1l-0.6-0.3l-2-0.6l-0.9,0
			l-1.7,0.4l-0.8-0.6l0-0.5l0.2-0.6l-0.1-0.3l-0.1-0.4l-0.7-0.7L323,189l-1.7,0.2l-0.5,0.6l-0.1,0.7l-0.6,0.2l-0.1,0.2l0.2,0.2
			l0.6,0.1l0.6-0.4l0.6,0.8l-0.3,0.5l-1,0.9l-0.6-0.1l-0.9-1.4l-0.7-0.4l-0.4,0l-0.6,0l-0.6,0.2l-1.4,1.3l-0.4-0.2l-0.1-2.1
			l-0.2-0.6l-1.3-1l-0.4-0.1l-0.1,0l-0.3,0.1l-0.2,0.1l0,0l0,0l0,0l1,1.1l0.9,1.1l0.6,2.4l1,0l1.4-0.9l0.2-0.7l0.9-0.2l0.4,0.8
			l1,0.8l1.3,0.3l0.3-0.2l0.3,0.2l0,0.8l-0.3,0.5l-0.3,0.2l-0.5,0l-0.4,0.3l-0.4-0.1l-0.3,0.1l-0.2,0.3l-0.2,0l-0.3,0.2l-0.2,0.4
			l-0.1,0.7l0,0.1l0.2,0.9l-0.3,0.4l-0.6-0.3l-0.5,0l0.2-0.4l-0.2-0.3l-0.6-0.3l-1.8-0.2l-0.7-0.5l-2.9-3.5L310.2,191.9z
			 M322.7,192.4l-1.2,0.6l-0.4-0.4l0.8-0.6l0.8-0.1l0.1,0.1L322.7,192.4z M322.9,192.5l0.5-0.2l0.1,0.4l-0.1,0.3l0.3,0.4l-0.3,0.8
			l-1.7,0.8l-0.3,0l0.3-1.3l-0.1-0.7L322.9,192.5z M351.3,512.4l0.7,0.4l0.4,0.1l0.5,0.1l0.6-0.2l0.7-1l0.8,0.2l0.9,0.6l0.3-0.7
			l1.4,0.4l2.2,0.9l0.9,0.1l0.9-0.5l1-0.2l0.4-0.4l0-0.4l-0.3-2l0.4-1.3l-0.1-0.3l-1.1-0.9l-0.1-0.6l0.5-0.2l0.6-0.5l1.1-1.5
			l-0.3-1.9l0.1-0.3l0.5-0.4l-0.7-1.2l-0.2-0.7l-0.6,0l-0.4,0l-0.5,0.3l-0.5,0l-0.5-0.6l-0.1-0.1l1.1-2.1l0.9-0.2l0.2-0.1l0.4-0.1
			l0.1-0.1l0-0.1l0.1-0.8l0.3-0.3l0.4-0.4l0.1-0.1l0,0.4l0.3,0.3l0,0.1l0,0l0.2,0.7l-0.1,0.3l0.1,0.2l0.1,0.3l0,0l1.4-0.5l0.3-0.9
			l0-0.1l1.2,0.9l1.5,0.1l0.3,0.2l-0.6,0.9l0.1,0.5l0.4,0.3l2.1,0.7l0.5-0.4l-0.6-0.6l0.5-1.4l0.5-0.3l1.6-0.4l0.1,0.6l0,0.2l0,2.8
			l0.5,0.3l0.7,0.2l0.3-0.4l0.1-0.6l2.4-0.9l0.3-0.1l0,0.1l0.3,1.3l0.2,0.2l0.2,0.2l1.5,0.1l0.3,0.6l0,0.9l0,0l0.2,0.4l0.3,0.2
			l0.4,0.4l0.2,0.2l-0.5,0.9l-0.5,0.6l-0.5,0.6l-0.3,1.5l0.7,2l0.1,0.5l-0.1,0.5l1.3,1.7l0.8,1.4l1,0.3l1.1,0.7l0.7,0.4l0.1,0.1
			l0.6,0.7l0.6,2.2l-0.1,1.2l-0.3,1.1l0.5,0.9l0.1,1l0.1,0.2l0.1,0.2l0.4,0.2l0.1,0.1l0.9,0.3l0.1-0.2l0.3-0.4l0.8-0.8l0.4-0.8
			l0.2-1l0.8-0.8l0.2-0.1l0.2-0.1l0.4,0.1l0.4,1.2l0.7,0.3l0.3,0.5l1.1,0.7l0.5,0.1l0.9-0.2l0.3,0.1l0.8,1.1l1.2-0.3l1,0.1l0.5,0.3
			l1.4-0.2l0.3,0l1.3,0.2l0.7,0.4l1.2,1.2l1.4,0.1l1.5,0.6l0.5,0.4l-0.1,0.7l0.1,0.2l1,0.6l1.7-0.1l0.8,0.4l0.5-0.6l0.2-0.1l0.6-0.3
			l0.7-0.1l0.5,0.3l0.6,0l0.6-0.5l0.3-0.6l0.4-0.2l0.6,0l0.5,0.2l0.4,0.4l0.4,0.9l0,1.3l0.7,1.2l0.3,0.4l0.5,0.3l0.7,2.6l0.1,0.4
			l0,0.9l1.3,0.3l0.4-0.6l1.7-0.6l0.6-0.1l0.8-0.5l1.6-0.5l1,0l0.9,0.5l0.1,0.3l0.3,1l0.5,2.3l0.1,0.4l-0.1,0.3l-0.3,2.3l-0.5,1.2
			l0.1,0.1l0.2,0.2l0.5,0.5l0,0l0.9-0.1l1,0.2l1-0.8l0.7,0.3l0.3-0.4l0.2-1.4l0.5-1.3l1.2-1.1l0.3-0.5l0.4-0.7l0.8,0.1l0.6,0l0.3,0
			l0.8,0.6l0.6,0l0.6,0.2l0.8,0.8l0.8,1.1l0.7,1l0.9-0.6l0.8-0.1l0.3-0.4l0.2-0.3l0.1-1.3l0.3-1.5l0.6-0.8l0.9,0.1l1.2,0.4l1.1,0.7
			h1.2l1.1-0.4l1,0.2l1.1,0.6l0.5,1.3l1.3,0.9l1.3,1.9l1.6,1.4l1.2,1.3l0.6,1.5l-0.1,0.8l-0.8,0l-1.1,0.4l-0.6-0.1l-0.3,0.3l0.1,1
			l0.3,0.8l0,0l-0.1,0.1l-0.3,0.5l-0.6,0.6l0.1,0.5l-0.2,1.1l-1.2,0.9l-0.7,1.4l-0.9,0.6l-1.3-0.2l-1.2-0.9l-0.6,0.3l-0.1,0.6
			l0.5,0.3l0.1,0.4l-0.6,0.6l-1.4,0.7l-0.9-0.2l-0.2,0.9l-0.6,0l-0.4,0.2l0.3,0.4l-0.1,0.3l-0.5-0.2l-0.2,0.6l-0.8-0.1l-0.5,0.6
			l0.3,0.8l0.4,0.3l-0.2,0.4l-0.7,0l-0.6-0.5l-0.7,0l0,0l-0.4,0.7l0.1,0.8l0,0.2l0.1,0.1l0.2,0.3l0.4,0.6l0.4,1.5l0.6,0.1l0.5-0.4
			l0.7,0.1l0.5,0.8l-0.2,1l0.7,0.1l0.6,0.8l-0.2,0.3l0.2,0.6l0.5,0.3l0.5,0.7l1.8-1.4l2.1,0l1.2,0.5l0.4,1.2l-0.1,1l0.1,1.1l0.9,1.4
			l0.8,1.1l1.1,0.1l0.8,0l1.1,0l0.4,0.3l1,1.8l0.7,0.8l0.2,0.9l0,0l0.3,0.4l0.7,0.5l0.7,1.3l0.4,0.4l0.8,0.3l0.7,1.8l0.5,0.4h0.4
			l0.2,0.2l1.1,1.2l0.2,0.5l-0.1,0.5l0.5,0.8l-0.2,0.6l-0.1,1.3l0.4,1.1l-0.2,1.4l0.2,0.4l1.4,1.1l0.1,0.3l-0.4,0.8l0.2,0.4l1.6,0.6
			l0.5,1.1l0.8,0.8l0.5,0.6l1.2,0l1.2,1l0.6,0.1l0.1,0l0.2,0l0.2,0l0.8,0.1l0.3-0.1l0.6-0.2l1-1.8l0.9-1.8l1.2-0.1l0.9-1l1-1.5
			l0.5-1.9l0.3-0.5l0.4-0.8l1-0.1l0.2-1l0.5-0.6l0.8-0.6l0.4,0.3l0.3,0.7l1,0.3l0.5-0.5l0.4-0.6l0.4-1.4l1.1-0.5l0.9-0.1l0.3,0.1
			l1.1,0.2l0.9-0.4l0.3-0.3l-0.2-0.9l0.6-0.5l0.5-0.2l0.5,1l0.4,1.1l0.9,0.8l0.9-0.3l0.3-0.6l0.3-0.7l-0.9-1.6l-0.4-1.2l0.5-0.5
			l0.4-1.1l-0.3-2.1l-0.7-0.9l-2.1-1l-1.7-0.6l-0.9-1.3l0-0.8l0.1-0.8l-0.8-1.2l-0.4-1.2l0.1-1l-0.5-1.4l-1-0.7l-1.6-1.2l-0.5-0.6
			l0.2-0.4l0.9-1.8l0.4-1l0.8-0.6l1.2-0.2l0.3,0.2l0.4,0.3l1,0.5l1.6,1l1.9,0.7l0.5,0l1.6,0.1l0.7,0.7l0.5,0.6l0.2,0.1l0.8-0.4
			l0.9,0.6l0.9,0l1.3-0.2l0.5,0.7l-0.1,0.6l0.1,0.4l1,0l1,1.1l0.5-0.2l0.4,0.3l0.7-0.6l0.6,0.3l0.4-0.3l1-0.2l0.1,0l0.4,0.9
			l-0.5-0.1l-0.1,0.1l-0.4,0.4l0,0.4l0.1,0.1l1.3,1.4l1.4,1.2l3.3,2.6l1.5,0.4l2-0.7l0.9-0.4l0.5,0.3l0.3,0.3l-1,0.3l-0.8,0.1l0,0.3
			l0.6,0.5l0.8,0.1l0.1,0.2l0.1,0.1l0.1,0.2l-0.1,0.4l-0.3,0.9l-0.5,1.2l0.3,1.6l0.7,0.3l0.3,0.5l0.4,0.1l0.1-0.3l-0.2-0.7l0-1
			l0.4-0.3l1.4-0.2l0,0l1-0.4l0.5,0.1l0.3,0.3l0,0.1l0,0.1l0,0.2l-0.4,0.1l-0.2,0.1l-0.6,0.4l0.1,0.3l0.1,0.1l0.6-0.3l0.9,0.3
			l0.3,0.9l0,1.1l0.5,0.1l0.9-0.1l0.4-1l0.3-0.7l1.3-0.2l2-0.5l0.1,0l1.6,0.4l2.2-0.1l1-0.3l0.6-0.1l0.2,0l0.5,0.6l0.4,0.5l0.5-0.1
			l0.5-0.3l0.8-0.4l1.5-0.4l0.7-1l0.9-0.9l0.7-0.8l-0.1-0.4l-0.1-0.8l-0.2-1.2l0.3-0.4l0.8,0.5l0.2,0.1l1.2,0.6l0.8,1.2l1.2,0.1
			l0.1,0.3l0.1,0.1l0.1,0.3l-0.2,0.5l-0.5,0.7l-0.7,1.6l-0.1,0.5l-0.1,0.3l0.4,1.2l0.4,0.5l1.1,0.7l0.3,0.8l-0.1,1.7l-0.1,1.3
			l-1.2,0.5l-0.4-0.1l-0.7-0.3l-0.5,0.1l-0.4,1.1l0,0.7l-0.2,0.4l-0.8,0.4l-0.7-0.1l-0.6-0.2l-0.8,0.6l-1,0.2l-0.6,0.5l-1.9,0.2
			l-1.1,0.3l-0.1,0.8l0.2,0.6l0.6,0.7l0.8,0.8l1.7,1.1l0.3,1l0.9,1.1l1,0.3l0.3-0.3l0-0.4l0.8-0.1l0.2,0l0.1,0.1l0.6,0.5l1.4,0.6
			l0.5,0.2l0,0.3l0,0.2l0.2,0.7l0.4,0.9l0.2,0.4l0.4,0.3l0.1,0.5l0.1,0.3l0.3,0.3l0,0.5l0.6,1l0.3,0.8l0,0.7l0.4,0.8l0,0.6l0.3,0.6
			l1,0.5l0.3,0.6l0.7,0.5l0.1,0.3l0.4,0.8l0.9,0.8l1.5,0.5l0.4,0.4l0.4,0.1l0.8,0.2l0.9-0.2h0.7l0.2,0l0.4,0l1.1-0.5l0.8-0.6
			l1.3-1.1l0.4-0.3l0.8-0.6l0.8-0.6l0.5-0.6l0.4,0l0.6,0.4l0.5,0.4l0.1,0.1l0.9,0.5l1,0l0.2-0.8l0-1l0-0.2l0-0.6l-0.1-0.4l-0.1-0.4
			l-1.2,0.1l-0.6,0.3l-0.4,0.3l-0.4-0.3l0-0.7l0.3-1.4l0.6-0.5l0.7-0.2l0.9-0.1l0.6,0.5l1.6,1.3l0.8,0.1l0.1,0.1l0,0l-0.1,0.9
			l0.2,0.3l0.5,0.3l0.3,0.2l0,0.6l-0.1,0.9l0.1,0.7l0.6,0.5l0.4,0.4l0,0l0.7,0.3l0.6-0.2l0.4,0.6l0.5,0.2l0.3,0.4l0.5,0.2l0.6-0.4
			l-0.3-0.4l0.3-0.7l0.4-0.3l0.4-0.3l0.6-0.1l0.3,0.1l0.4,0.1l0.3,0.2l0.2,0.2l0.3,0.8v1.5l0.3,0.9l0.8,0.5l0.6-0.2l0.9,0l1.5,0.5
			l0.2,0.7l0.2,1.1l0.1,1.2l1.2,1l1.2,0.7l0.1,0l0.1,0l0.5-0.2l0.6-0.7l0.7-0.4l0.1,0l0,0l-0.3-0.5l-0.7-0.7l0.1-0.4l0.3,0l0.5,0
			l0.5,0l0.7,0.7l0.1,0.1l0.1,0l1.7,0.3l0.2,0l1.5,0.1l0.3,0.3l0.6,0.5l1.7,0.9l1.6,1.1l0.5,0.3l0.7,0.4l1.4-0.1l1-0.2l0.4-0.9
			l0.3-1.3l0.3-0.1l0.6,0.5l0.7-0.1l0.4,0.1l0.5,1.3l-0.5,2.2l-0.1,0.6l-0.3,1.1l0.2,0.6l0.3,0.2l0.7-0.1l0.6-0.1l0.5,0.3l0.1,0.6
			l-0.6,0.9l-0.8,1.1l-0.1,0.1l-0.4,0.7l0.1,0.7l0,0.1l0.8,1.2l0.2,0.3l0.3,0.7l0.4,0.9l0.7,1.6l0.3,0.7l0.2,0.7l0.4,1.4l0,0.1
			l0.3,0.9l0,0.1l0.2,0.6l0,0.4l-0.1,0.4l0,0.4l0.2,1.3l0.2,0.5l0.4,1.1l0.1,0.3l0.1,0.1l0.3,0.5l0.1,0l0.1,0l0.5,0.2l0,0l-0.2-1.3
			l-0.1-0.8l1.2,0l0.3,0.2l0.4,0.3l0.4-0.1l0.4-0.3l0.7,0.2l0.5,0.7l0.4,1.3l0.6,0.6l0.9,0.6l0.6-0.1l0.9-0.4l1-0.3l0.4,0.2l0.9,0.4
			l0.7,0.5l0.3,0.6l0.1,1.1l0.3,1.5l0.3,1.3l0.3,1.4l0.2,1.4v1.2l0.2,0.9l0.2,0.6l0.2,1.2l0.4,0.8l0.6,0.8l0.2,0.2l0.3,0.8l-0.2,0.6
			l-0.5,0.5l-0.2,0.6l0.1,0.6l0.2,0.4l0,0l-0.4,0.2l0.6,0l1.2-0.1l0.6,0.3l1.3,0.2l1.5-0.3l1.4-0.1l1.1,0.6l0.6,0.6l0.3,0.7
			l-0.5,1.5l0,0.8l0.4,1.2l-0.2,1l0.2,0.9l0.6,0.7l0.2,0.7l0.7,1.2l-0.8,1.1l-0.2,1.3l0.4,0.7l0.5,0.3l0.6,0l0.7-0.2l0.7,0.2
			l0.8,0.2l0.9-0.3l0.8-1.6l0.9,0l0.8-0.5l0.9,0.1l0.6,0.7l0.5,0l0.7,0.6l0.6,0.2l0.7-0.4l0.5-0.5l0.4,0.1l1.1,0l0.7-0.5l0.6,0.1
			l0.5-0.1l0.2-1.4l-0.4-0.7l0.4-1.3l0.8-0.6l0.7,0l0.5-1.2l-0.4-1.1l0.6-2.4l0.5-0.6l-0.1-1.2l0.6-0.7l0.6-0.7l0.6-0.9l1-0.2
			l0.8-0.2l0.4,0l1-0.2l0.6,0.1l0.6,0.5l0.9-0.4l0.8-0.4l0.8-0.2l0.3-2.1l0.3-1l1.2-0.6l0.9-0.5l0.4-1.4l0.5-0.3l1.1-0.3l1-0.3
			l0.9-0.1l0.5,0.3l0.4,0.7l0.6,0.8l1,0.4l0.9,0.5l0.7,0.8l0.4,1.3l0.4,2.7l0.5,1.4l0.3,1l0.6,2.2l1,2.2l0.8,1.1l0.4-0.1l0.4,0.3
			l0.3,0.8l0.4,0.7l0.8,0.2l0.5-0.4l0.5-0.3l0.2,1.3l0.5,1.2l-0.7,1.7l-0.3,0.7l1.5,0.3l1.2,0.1l1.5,0.2l1.1,0.8l0.4,0.7l0.8-0.4
			l0.7-0.8l0.5-0.9l1.5-0.4l0.8,0.2l0.7,0.6l0.1,1l-0.1,0.9l0.6,1.8l0.3,1.3l-0.3,1l0.1,1.4l0.4,1.4l-0.4,1l-0.3,1.1l0.1,0.8
			l0.8,0.2l0.5,0.6l0.4,1l-1.3,1l-0.7,0.8l-0.2,1.2l-0.9,1.2l-0.4,1l-0.1,1l-0.2,0.9l0.2,0.8l1,0.3l0.6,0.6l0.5-0.2l0.6-0.4l0.7,0.2
			l0.5,0.2l0.6,0.1l0.6,0.4l0.7-0.3l1-0.1l0.5-0.3l1-0.8l0.7-1l0.5-1.1l1.4-1l1.6,0l1,0.4l1.3,0l0.7,0.9l0.7,0.3l0.3,0.8l0.3,1
			l0.7,0.6l1.2,0.6l1.3,0.9l1.1,0.5l0.6-0.3l0-0.7l-0.3-1.5l0.4-0.9l0.5-0.8l0.5-1.1l-0.3-0.7l-0.1-1l0.2-1.3l0.7-1.1l0.7-1.7
			l0.4-1.6l0.6-1.5l0.6-0.7l0.6,1.2l1-0.7l0.1-0.9l0.9-1.5l0.3-0.7l1.2-0.5l0.5-0.6l0.8,0.3l1-0.2l1-0.2l0.5,0.3l0.9-0.1l0.6,0.1
			l0.7,0.1l1,0.2l0.5-0.4l0.2-0.9l0.1-1l-0.1-1.4l0.1-0.9l-0.3-0.7l0.3-0.8l0.8-0.2l1.2,0.8l0.7-0.1l0.4-0.2l0.5,0.1l0.1,0.8
			l1.2,0.4l0.9-0.4l0.5-0.8l0.4-0.6l0.7,0.8l0.1-0.8l-0.2-1l0.8,0.1l0.4-0.4l1.2,0.2l0.7,0.3l0.5,0.7l0.9,0.5l0.9,0.3l1.6,1.3
			l1.5,0.6l0.8,0.3l0.7-0.2l0.6-0.4l0.7,0l0.3-1.3l0.7-0.8l-0.2-0.7l0.5-0.7l0.6,0.3l0.3,0.7l0.7,0l0.6,0.6l0.8-0.3l1.1-0.7l1.2-0.8
			l0.7,0l0.6-1.1l0.3,0.8l-0.3,0.8l1.3,0.4l0.1,1.1l0.7,0.2l-0.6,1l0.8,1.1l0,1.1l0.7,0.3l0.9-0.3l-0.3,0.9l0.6,0.3l0.7-0.3l0.5,0.5
			l-0.4,0.7l0.4,0.8l0.7,0l0.8,1.2l0.9-0.1l1.5-1.3l0.7,0.1l0.7-0.3l0.8-0.4l0.5,0.4l-0.2,0.8l0.5,1l0.4,1.2l0.2,0.7l1,0.9l0.3,0.7
			l1.5-0.8l1.1-0.6l0.7,0.1l0.5,0.3l0-1.6l0.3-0.8l0.7-0.4l0.4-0.9l0.1-0.7l0.9-0.8l1.3-1.1l0.7,0.3l0.4-0.1l0.4,0l0.5,0l0.7-0.2
			l0.6-0.6l0.2-0.7l-0.5-0.4l-0.8-1l-0.9-0.6l-0.6-0.9l-0.5-0.7l0.1-0.8l0.6-0.5l1.1-0.2l1.2-0.3l0.9,0.3l0.4-0.5l0.8-0.5l1.1,0.4
			l0.9,0.9l0.5,1.1l1.1,0.6l0.7,0.7l0.7-0.1l0.6,0l0.5-0.9l0.3-1.1l-0.2-0.7l0.6-0.6l1.4-0.6l1.1-1l0.2-0.9l0.5-0.1l0.7,0.3l0.9,0.6
			l0.5,0l1.5,0l0.7,0l0.5,0.4l0.9,0.6l0.5,0.6l0.9,0.3l0.7-0.3l0.7-0.2l1.5,1.5l1,0.6l0.6-0.1l0.6-0.3l0.7,0.1l0.5,0l0.6-0.4l0.7-1
			l0.5,0.4l0.6,0.6l0.7,0.1l0.3-1l0.7-0.6l0.5,0l0.6-0.5l0.5-0.5l0.5,0.1l0.5,0.6l0.8,0.2l1.2-0.7l1.4-0.6l0.5,0.1l0.6,0.6l0.6,0.9
			l0.3,0.9l0.6,0.7l1.4,0.4l0.6-0.2l0.9,0l1.1,0.3l0.1,1l1.3,1.2l0.9,0.6l0.5,0.5l0.1,0.8l0.3,1.3l0.8,0.3l0.5,0.4l0.3-1.6l0.3-0.7
			l0.6-0.4l1.1-0.6l1.1-0.6l0.4,0.1l0.6,1l0.4,1l1.3,0.2l0.6,0.4l0.3,0.7l0.6,0.8l1,0l0.7,0.1l0.8,0.6l1.2-0.2l0.6,0.3l0.4,0.8
			l0.6,2.1l1,1.7l1.3,1.4l0.8,0.6l0.4,0.8l0,0.7l0,0.7l0.4,0.7l0,0.9l-0.1,0.8l0.1,1.9l0.8,1l0.9,0.3l2.3,0.7l0.9,0.6l2,0l0.3,0.7
			l0.3,0.8l0.8,0.1l1.3,0.4l0.5,0.3l0.8,0.3l0.7-0.6l0.6-0.3l0.6,0.2l0.6,1.1l-0.4,1.2l0,1l1.9,0.3l1.7,0.5l2,0.9l0.5-0.4l0.9-0.7
			l0.9,0l1.4-0.1l0.6,1.1l0.6,0.7l0.7,1.5l0.7,1l0.8,0.4l0.7,0l1.2,0l1.1,0l0.7,0.7l0.7,0.5l0.5,0.2l0.7-0.4l0.7,0l1.4,0l1.3,0.3
			l0.5,0.4l0.6-0.6l0.8-0.3l0.7,0.2l0.7,0.5l0.8,0.8l0.8,0.4l0.5,1.5l0.9,1.3l1.4,0.8l1.2,0.3l1.2-0.8l0.7-0.1l0.7,0.1l1,0.4
			l0.8,0.1l0.5-0.7l0.5-0.5l2,1.7l1.3,1.2l0.9,0.4l3.2,1.8l0.6-0.9l-0.7-1l0.1-1.4l-0.6-0.4l0.1-1.2l-0.5-1.5l-0.1-1l0.4-0.7
			l0.5-0.1l0.6-1.4l-0.8-0.3l-0.8-0.2l-0.5-0.3l0.1-0.8l-0.6-0.6l-1,0.3l-0.4-0.8l-1-1.2l-1-0.7l-0.3-1l-0.3-1.1l-0.9,0.3l-0.6-0.1
			l-0.7,0.2l-1-0.6l0.1-1.3l0.4-0.7l0.2-0.7l-0.8,0l-0.5,0.3l-0.5,0.7l-0.4,0.8l-0.5-0.3l-0.1-1.1l0.7-1.2l0.4-0.5l0.1-0.9l1.1-1.1
			l-0.9-0.4l-0.3-1.4l0.5-0.6l0.3-1.1l0.2-1.3l0.2-0.9l0.2-0.7l0.3-1.2l-0.1-1.1l-0.4-1l-0.3-0.8l-0.2-0.7l-0.2-0.9l-0.1-0.7
			l-0.1-0.8l-0.1-1l-0.2-1l-0.1-0.9l-0.1-0.9l0-0.8l0-1.2l0-1.2l-1.6-3.3l-0.5-1.6l0.2-2.3l0-1l-1.9-4.4l-0.3-1.3l0.6-1.6l0.3-1.7
			l0.6-0.9l0.6-1l3-3.9l1.2-1.4l1.2-2.6l1.1-2.9l0.6-1.1l1.1-0.8l1.1-0.8l0.6-0.5l0.7-0.9l0.6-1.5l1.2-0.9l0.9-0.7l0.2-1.6l0.3-1.1
			l0-1.1l0.2-0.9l0.7-0.5l0.5-0.3l0.5-0.4l0.5-0.7l0.6-1l0.7-0.7l0.7-0.5l0.9-1l0.6-0.7l1.8-1.9l2-2.6l0.5-0.6l2.6-3.7l2-2.6
			l1.4-1.9l0.7-0.9l1.4-1.9l2-2.2l0.8-1.2l0.2-1.5l0.4-0.7l0.9-0.4l1.3-1l0.9-0.7l0.6-1.2l0.3-1l0.5-0.6l1.4-0.7l0.8-1.1l2.8-2.4
			l0.5-0.5l1.4-1.4l2.7-3.8l0.9-1.3l1.8-1.5l1.8-1.5l1-0.8l0.5-0.4l0.5-0.4l1-0.9l1.6-1.1l0.9-0.7l0.7-0.5l0.5-1.9l1.2-1.8l2.8-1.9
			l1.4-1.1l0.4-0.7l0.3-1l0.3-1.7l0.7-1l0.4-0.8l0.7-0.7l0.9-0.3l0.7-1.1l0.7-0.5l0.8-0.2l0.9-0.3l2-0.5l2.7,0.4l2.1,0.3l1.1,0.1
			l1.8,0.1l1.9-0.7l2-0.8l2-1l1.2-1.2l1.2-2.5l1.2-6l0.7-4.9l1-3.8l0.2-1.7l0.2-1.4l-0.5-0.3l-0.5,0.1l-0.3-0.8l0.1-1.1l-0.2-1.1
			l-1.1-0.9l-0.4-1.2l-0.8-1.3l0.4-1.3l0.7-0.5l-0.1-0.9l-2,0.1l-0.6-0.4l-0.4-0.1l-0.2-1.3l0-1.3l-0.2-0.8l0.4-0.9l-1-0.9l-0.8,0
			l-1.1,0l-0.5-0.7l-0.5-0.6l-0.2-1.2l0.3-1.1l1.5-4l0.5,0l1.8,0.2l0.7-0.1l0.9,0.5l3.6-0.2l1.1-0.6l1.6-1.4l0.3-1.3l-0.6,0.1
			l-0.7-0.3l-0.6-0.1l-0.7-0.5l-0.6-0.5l-1.1-1.1l-1.6-0.2l-0.5-0.6l-0.7-0.8l-2.8-2.7l-0.7-1.4l-1.2-1.2l-0.2-2.2l-0.3-1.1l-1-1.6
			l-0.8-0.5l-1-0.3l0.2-0.7l0.6-0.1l-0.5-0.4l-0.4-1l0.5-0.7l-0.4-0.5l-0.5-0.5l0.2-0.8l-0.2-0.8l-0.1-1.2l-0.5-0.7l-1.3-0.4
			l-1.1-1.5l-0.6-0.5l0-0.7l-0.7-1.7l0.4-1l0.7,0.1l-0.1-1.5l-0.3-0.9l-0.6-0.2l-0.5-0.6l-0.5,0l-0.5,0.1l-0.4-0.4l-0.5-0.8
			l-0.4-0.8l-0.5-0.6l-0.5-0.4l-0.7-0.1l-0.3-0.9l-0.8-0.2l-0.9-0.6l-1-0.7l0.1-0.7l-0.4-0.8l-0.6-0.6l-0.2-1.5l-0.2-1.1l-0.6-1.2
			l-0.5,0.2l-0.7-0.7l-1-0.4l-1.1-1.2l-0.7,0.2l-0.5-0.1l-0.1-1.9l-0.6-0.9l-0.2-0.9l0.3-1.2l1.1-0.7l0-1.8l0.6-0.7l0.8-0.6l0.4-0.9
			l-0.2-0.7l-0.1-0.9l0.5-0.9l0.5-0.3l0.5-0.1l-0.3-0.9l0.1-0.7l-0.6-0.3l-0.7-1.1l0.1-1.3l-1.4-0.2l-0.8-1.2l0.6-0.5l1.2-1.3
			l-0.6-1.4l-0.4-0.4l-0.8,0.4l-0.4,0l-1-1l-0.6-0.9l0.3-1.1l-0.6-0.9L940,442l-0.6,0l-0.5-0.6l-0.7,0.5l-0.6-0.2l-0.4-0.5l-0.1-1.2
			l0.6-1l-0.6-1l-0.3-1.3l-0.6-0.5l-0.2-1.1l-0.5-1.1l0.3-1.5l-0.1-0.9l-0.2-0.7l0.3-0.8l-0.7-0.8l0.4-0.6l0.2-1l0.5-0.2l0-1.1
			l0.1-0.7l-0.4-0.8l0.6-1.3l-0.5-0.7l0.1-0.7l-0.3-1.4l-0.6,0.4l-0.4-0.8l0.3-1.5l0.9-0.6l1-1.2l1,0.3l1.2-0.6l0.7-1.2l0.5,0.1
			l0.8-1.1l0.4,0l0.1-0.9l0.5-1l-0.3-1.3l-0.5-1.2l-0.4-0.8l-1.1-0.1l0.4-0.7l-0.5-0.1l0.7-0.8l0.2-0.9l-0.6-1.7l0.3-0.8l1,0.4
			l-0.2-1.4l0.8-0.8l-1-0.8l0-1l-0.6-0.8l0.8-0.6l0.5,0.2l0.3-1.1l0.5-0.1l-0.1-1.3l-0.8-0.5l0.8-0.4l0.7-1.1l0.6-0.1l0.5-0.1
			l-0.2-1.3l0.7-0.6l0.7-0.5l0.4-0.9l-1-0.6l-1.1-1.3l0-0.7l-0.2-2l-0.3-1.1l-0.2-1.8l-0.1-0.9l-0.5-0.4l-0.6-0.4l-0.6-0.4l-0.4-0.4
			l-0.4-0.6l-0.4-0.8l-0.8-0.8l-0.5-0.1l-0.8-0.1l-0.8-0.2l-0.7-0.3l-0.5-0.2l-0.4-1.1l-0.7,0.1l-0.7-0.6l-0.5,0l0.1-1.1l-0.5,0.1
			l-0.4,0l-0.7-0.7l-0.2-1.2l0.5-0.4l0.8-0.4l-0.7-0.8l-0.6-0.1l-0.6,0.6l-0.6,0l-0.4-0.7l-0.9-0.4l-1.2,1.4l-0.5-0.1l-0.3-0.9
			l-0.7,0.5l-0.5-0.1l0.2-1.3l-0.6-0.5l-0.5-0.1l-0.6,0.1l-0.4-0.3l0-0.9l-0.6,0.3l-0.4-0.1l-0.4-0.9l-0.5,0.7l-1.1-0.2l-1.5,0
			l0.6-1l-1-0.3l-0.9,0.4l-0.8,0l-1.3-0.2l-1.7-0.6l-1,0l-0.5-0.5l-0.4-1.2l0.3-0.9l0.6-0.9l-0.4-0.8l0.3-1.1l-1.3-0.7l-1-0.4
			l1.8-4.2l2.1-3.3l0.5-0.9l1.1-3l0.4-1.3l0.5-1.7l0.4-1l0.8-2.2l1.2-1.5l1.7-2.7l0.5-0.6l1-1.3l0.7-1l2.7-3.8l3.2-2.7l2.4-1.2
			l0.4-0.2l1.8-1.2l1.4-0.6l1.2-0.3l5.1-1.5l3.1-0.8l16-4.5l0.1-7.4l0.1-3.7l0.1-3.3l0.1-2.3l0.1-2.8l0.2-4.2l0.5-4.2l1.1-1.8
			l-0.4-2l-0.6-4.7l-0.1-0.9l-0.8-1.6l-0.5-1.2l-0.6-0.4l0.2-0.7l-1.1-0.7l-0.4-0.3l-0.1-0.8l-0.8-1.3l0.7-0.8l0.1-0.8l0.1-1.4
			l0.4-1.1l0.4-0.8l0.9-0.9l0-1.1l0.2-1.2l-0.7-1.4l-2.1-1.6l-0.4-0.7l-0.4-1.5l0.1-1l0.1-1.3l-2.4-1.3l-0.8-0.8l-1.1-2.4l-1.6-3.8
			l-2.1-6.2l-1.8-5l-0.3-1l-1.1-3.5l-0.6-1.5l-0.2-0.8l-0.5-0.7l-1.3-2.9l-0.1-0.7l-0.4-2.1l-0.7-3.3l-0.4-1.9l-0.4-1.1l-0.8-0.4
			l-0.5-0.4l0-1.2l-0.1-1.5l-0.3-2.9l0-2.6l0-0.7l0-0.7l0-1.3l0.1-1.4l0.2-1.2l0-1.6l-0.8-1.3l-1.4-1.2l-0.6-0.9l-0.3-1l-0.1-3.8
			l-0.2-2.9l-0.3-1.1l-0.7-1.9l-0.4-0.9l-0.6-4l-0.2-1.5l-1-2.4l-0.5-1.1l-0.9-2.1l0-1.6l0.1-0.9l0.5-0.7l0.5-0.7l0.4-1.7l-0.1-1.3
			l-0.1-1.1l-0.1-2.8l-0.6-4.1l-0.3-1.5l-0.6-1.4l-0.6-0.4l-0.6-0.3l-1.8-0.7l-1.3-1.3l-1-1.2l-0.6-1.2l-0.9-1.5l-1.4-1.1l-0.7-0.6
			l-1.9-0.8l-2.1-0.4l-2.7-0.7l-1.1-0.7L914,149l-1.1-1.8l-1-0.7l-0.6,0l-0.8-0.3l-0.7-0.8l-0.5-1.1l-0.8-0.3l-0.6,0.3l-1.4,0.7
			l-1.2,0.5l-1-0.1l-1-0.8l-1.3-0.8l0-0.7l0.4-0.7l0.3-1.2l0.2-0.7c-0.7-0.5-0.7-0.5-0.7-0.5l-0.9-0.2l-0.5-0.1l-1.3-0.2l-0.6-0.7
			l-0.1-0.9l0.2-0.9l-0.4-1l-0.6-0.4l-1-0.3l-0.5,0.4l-0.5,0.3l-0.5-0.2l-0.4-0.3l-0.6-0.5l-0.5-0.4L893,135l-0.5-0.2l-0.5-0.7
			l-0.7-1.2l-0.9-1l-0.7-0.2l-0.7,0l-1.1,0.5l-1.4,0.8l-1.3,1.1l0.5,0.7l0.8,0.3l0,1.1l-0.5,0.5l-1,1.1l-0.6,0.5l-1.1,0.4l-1.3,0.2
			l-3.7,0.3l-8.2,0.6l-0.5,0l-10.8,0.4l-5.3,0.2l-0.6,0l-0.5,0l-0.9,0l-0.6,0l-2.7,0.2l-1.7,0.1L844,141l-5.3,0.4l-8.3,0.2l-5.5,0.2
			l-4.8,0.1l-7.8,0.2l-4.7,0.3l-4.8,0.3L797,143l-0.7,0l-9.4-0.8l-1.7-0.1l-0.6-0.1l-5.6-0.5l-0.6-0.1l-5.6-0.6l-4.9-0.5l-1.6-0.1
			l-8.7-0.5l-5-0.7l-6.3-0.2l-3.1-0.3l-5.9-0.7l-3.4-0.4l-6.5-1.1l-7.6-1.4l-0.6-0.1l-2.6-0.5l-4.1-0.8l-3.7-0.4l-3-0.3l-4.5-0.4
			l-3.5-0.4l-3.3-0.3l-1-0.1l-2.5-0.2l-2.3-0.3l-5.2-0.7l-2,0.2l-0.4,0.5l-0.2,0.7l0,0.1l0,0.7l-0.4,0.7l-0.3,0.3l-0.7,0.2l-0.2,0.4
			l-0.6,1.6l-1,0.9l-0.6,0.6l-0.6,0.6l-1.3,1.3l-0.2,0.2l-0.4,0.2l-0.9,0.2l-0.4,0.4l-0.5,0.2l-0.6,0l-1.6-0.2l-0.9,0.1l-0.9,0.2
			l-1.4,0.7l-1.3,1l-0.5,0.2l-0.6-0.1l-1.2,1.1l-1.1,0.9l-0.9,1.2l-0.6,0.4l-1.6,0.9l-1.1,1.2l-0.6,1.1l-0.5,1.3l-0.3,1.4l-0.5,1.1
			l-0.6,0.3l-0.3-0.1l0,0l-0.2-0.3l0.5-1.4l0.8-1.5l0.6-1.3l0.7-1l0-0.3l0-0.3l-0.5,0.1l-0.6,0.8l-0.5,0.2l-0.4,0.1l-0.9-0.3
			l-1.4-0.7l-1.6-0.2l-0.8-0.6l-0.7,0l-1.5,0.9l-0.4,0.1l-0.1,0l-0.2-0.3l0-0.9l-0.2-0.9l0.4-1.2l0-0.3l-0.1-0.3l-0.6-1l-0.2-0.6
			l-0.1-0.3l-1.1-0.5l-0.1-0.2l0-0.3l0.7-0.6l0.6,0l0.5-0.2l1.3-0.4l1-0.1l1.1,0.1l0.6,0l1-0.1l0.9-0.2l2.2-0.2l2.4-1.6l2.8-0.6
			l4-1.8l1.8-1.4l1.5-0.6l1.4-1.2l0.8,0.1l0.6-0.1l3.3-2.8l0.3-0.5l-1.2-0.4l-0.4-0.2l-0.4,0.4l-1.7,1.3l-0.5,0.4l-3.1,2l-2.5,1.3
			l-6.6,2.5l-2,0.8l-1.5,0.3l-3.5,1.1l-4.6,0.9l-0.9,0.3l-1.3,0l-1.7,0l-1.8,0.4l-1.6,0.1l-2.2,0l-3.6,0.4l-1.1,0.2l-1.3,0l-1.1-0.2
			l-0.9-0.2l-0.4-0.2l-0.8,0.1l-0.6-0.4l-0.1,0l-0.5,1l-0.4,0.1l-0.2-0.3l0.2-1l-0.2-0.2l-1.2,1l-3.4-0.1l-1.6-0.3l-1.9-0.7
			l-1.6-1.5l-0.3,0l0.1,0.5l0.5,0.7l-0.1,0.1h-0.3l-0.5,0.5l-0.2,0l-0.3-0.4l-0.1-0.6l-0.2-0.3l0.4-0.6l-0.4-0.2l-0.9,0.1l-1.2-0.2
			l-1.1-0.4l-1.2-0.8l-0.9-1l-0.6-0.5l-0.9-1.1l-0.6-0.2l-0.7,0.3l-0.4,0.1l-1-0.3l-1.2-1l-0.7-0.2l-0.4-0.3L603,131l-0.7-1.1
			l-0.6-1.7l-0.1-0.7l0.3-1.7l-0.5-1.4l0-0.5l-0.1-0.3l-0.1-0.2l0.1-0.2l0.1-0.3l-0.4-1.1l0.4-0.9l-0.6-0.6l-1.5-0.3l-0.2-0.2
			l0.2-0.2l1.8-0.2l0.3-0.4l-0.1-0.7l-0.7-1.8l-1.6-3l-0.3-0.6l-0.4-1.5l0.2-2.5l-0.1-0.4l-0.2-0.1l-1,1l-1.1,0.3l-0.4-0.4l0-1.6
			l-0.5-0.6l0.1-0.9l0.2-1.6l-0.2-1.4l-1.8-1.2l-1.2-1.5l-0.2-0.1l-1.1-0.7l-0.3-0.3l-0.6-1.7l0.3-0.9l1.2-1.1l0-0.4l0.1-1l0.3-0.2
			l0.9,0.2l1.9,0.9l2.3,1.4l1.7,0.6l1.6,1.1l3,1.4l0.1,0.1l0.7,0.8l0.1,0l1.6,0.4l1.2,1.3l1.9,1.2l1.9,0.9l0.7,0.7l1.1,1.7l1.3,1.4
			l0.2,0.2l2.4,3.4l1.4,2l0.6-0.3l0.6-0.8l0.2-0.8l-0.2-0.6l-1.9-2.4l-0.5-0.9l-0.3-0.5l-3.5-3.3l-2.5-1.6l-4.4-3.3l-0.1,0l-2.4-1
			l-5.8-3.2l-2.9-1.9l-1.3-0.5l-0.2-0.1l-1.4-1l-1.7-0.5l-0.8-0.1l-0.9-0.6l-1.8-2l-0.7-0.4l-1.2-0.2l-2-0.1l-1.1,0l-1.1,0.2
			l-0.4,0.1l-2,0.2l-5.7-0.2l-3.1,0.2l-1.3-0.1l-1.2-0.1l-4.5,0.3l-6.3,1.2l-2.3,0.8l-0.2,0.1l-5.1,1.2l-5.8,1.7l-2.9,0.8l-1.8,0.5
			l-3.7,0.5l-5.8,1.3l-2.9,0.4l-0.8,0.1l-2.1-0.2l-1.7,0.2l-5.7,1.2l-2.7,1l-1.1,0.5l-2.4,1.2l-1.2,1.1l-1.2,0.5l-2,1.4l-3.9,1.6
			l-0.8,0.6l-0.6,0.6l-3.4,3.5l-4.2,2.6l-2.2,1.2l-1,0.3l-0.8,0.1l-1.6,0.2l-1.1,0.7l-4.8,1.5l-1.4,0.1l-1.3-0.2l-3.3,0.1l-2.6,0.5
			l-0.6,0.2l-3.7,1.4l-2.2,1l-1,0.7L463,122l0,0l-1,0.3l-1.1,0.8l-1.5,1.5l-0.2,0.2l-1.2,1.7l-2,3.5l-1.2,1l-0.5,0.6l-1.4,2.7
			l-0.2,0.3l-0.8,1.2l-0.1,0.2l-0.3,0.3l-2.5,2.7l-0.7,0.4l0,0.3l1-0.5l0.4-0.5l1.5-1.3l0.2,0l0.3,0.4l0.1,0.6l0.4,0.9l-0.3,1
			l-0.3,0.3l-1,0l-1.3,0.9l-2,0.6l-0.1,0.8l-0.3,0.5l-1.4-0.2l-0.1-0.2l0.1-0.4l2.3-2.5l-0.1-0.1l-4.4,4.3l-0.1,0.1l-2.7,2.1l-2.3,1
			l-1.6,0.7l-2.2,0.9l-3.6,1l-0.8,0.2l-0.7-0.3l-0.8,0l-2.8,0.6l-3.1,0.1l-1.1,0.3l-1.1,0.1l-3.2,1.1l-0.7,0.5l-3.5,1.5l-1.4,0.3
			l-1,0.5l-7.7,1.9l-0.9,0.2l-1.6-0.2l-0.3,0.3l0,0l-1.1,0.8l-1.7,0.8l-1.7,0.5l-4.2,0.1l-1.8,0.5l-0.5,0.1l-1.1,0.4l-3.7,0.7
			l-0.9,0l-1.3,0.5l-1.2,0.6l-2.4,0.8l-1.2,0.2l-1.3,0.7l-3.3,0.9l-0.7,0.5l-0.2,0.1l-2,0.8l-2.5,0.5l-1.3,0.5l-1,0.6l-2,0.8
			l-2.8,1.1l-1.7,0.6l-2.9,1l-1.3,0.2l-3.7,1l-1.2,0.5l-0.9,0.1l-3.6,1.3l0.3,0.2l1.6-0.5l0.6,0.2l0.3-0.3l1.2-0.5l0.6,0.2l-0.1,1.3
			l-0.3,0.8l-0.3,0.2l-0.9,0l-0.4,0.2l-0.6,1l-0.3,0.8l0.4,0.9l-0.2,0.3l0.5,0.5l0.3,0l0.3,0.4l-1,0.2l-0.1,1l-0.4,0.6l0.3,0.9
			l-0.3,1.7l0.2,0.6l-0.7,1l-0.4-2l-0.3-0.2l-0.9-0.1l-0.4-0.2L344,184l0.2,0.5l-0.8,0.4l-0.9,0.8l-0.1,0.4l0.2,0.4l-0.1,0.2
			l-0.6-0.3l-1.4,1.8l-0.8,0.3l-0.4,0.6l-0.6,1.4l0,0.1l0,0.6l-0.7,1.8l-0.1,0.7l-0.1,0.3l0,0.2l-0.2,0l-0.1,0.6l-0.1,0.4l0.1,0.4
			l-0.2,0.3l-0.5,0.2l-0.3,0.4l0.4,2.1l-0.2,1.7l0.3,0.5l-0.1,0.4l0.2,0.9l-0.3,0.8l0,0l-0.3,0.2l-0.9-0.1l-0.5,0.8l-0.5,0l-0.5-0.9
			l-0.4,0.4l0.1,0.4h-0.5l0.1,0.6l-0.3,0.7l-0.7,3.7l-0.4,0.7l0.3,1.1l0.1,1.4l0.1,0.9l0.8,0.7l0.8,0.2l-0.2,0.4l0.7,0.6l0.5,0.1
			l0.1-0.2l0.5,0.1l0.7-0.2l0,0.9l0.9-0.1l0.2,0.2l-0.2,0.5l-0.3,0.1l-0.1,0.3l0.3,0.8l-0.7-0.1l0,0.5l-0.2,0.2l-0.5,0l-0.4,0.5
			l0.4,2.2l0,1.3l-0.3-0.1l-0.4-0.5l-0.3,1l0-1.6l-0.3-0.3l-0.5,0.1l0.1-0.6l-1-1.6l-0.5-1.8l-0.5-0.9l-0.5-0.4l-0.3-0.5l-0.4-0.1
			l-0.9-0.8l-0.6-0.1l-0.6-0.3l-1.2-0.6l-3.8-0.5l-1.7-0.7l-1.5-1.7l-0.4-0.1l-1.6-1.7l-0.5-1.8l-0.1-0.1l-0.1-0.1l-0.6-0.1l-1-0.6
			l-1.4-0.1l0.1,0.2l0.5,0l0.6,0.4l-0.1,0.4l0.1,0.8l-0.7,0.1l-0.6-0.2l-0.2,0.1l0,0.2l0.5,0.3l1,0.2l0.5,0.8l0.1,0.4l-0.4,0.9
			l-0.4,0.2l-1.4-0.2l-0.5,0.1l1,2.4l-0.8,0.8l0.5,0.6l0.3,2l0,0.9l1.7,1.6l0.3,0.7l0.1,0.9l-0.1,2l-0.1,1.6l0.3,0.8l-0.8,1.3l0,0.8
			l0.8,1l-0.1,1.3l0.8,2.1l1.2,0.7l0.3,0.7l0.1,1.8l0.2,1.4l0.3,0.7l0.4,0.2l0,2.9l0.3,1.3l0.1,0.7l1.2,2.9l0.2,1.2l-0.2,1.5l1,0.9
			l0.1,0.9l0,0.3l0.1,0.2l0.3,0.7l-0.1,0.3l-0.4,1.4l0.3,0.4l0.2,0.4l0.1,2.2l0.2,0.3l0.6,0.3l1,0.2l0.1,0.2l0,0l0.3,0.4l0.2,0.7
			l-0.8,1l-0.1,0.1l-0.2,0.5l0,0.1l0,0l0,0.3l-0.2,0.2l-0.3,0.4l-1.1,1.4l-0.3,1.3l-0.2,0.3l-0.1,0.1l-0.3,0.1l0,0l-1,0.4l0,0
			l-0.4,0.5l-0.2,0.9l-0.3,1l-0.2,0.9l-0.1,0.2l0,0.2l0.1,0.7l0.1,0.6l0.3,0.4l0.7,1.1l0,0.2l0,0.2l-0.6,3.1l-0.2,0.3l-0.2,0.3
			l0,0.1l0.1,0.2l-0.2,0.3l-0.1,0.1l0,0.5l0,0.2l-0.3,1.4l-0.3,0.6l-0.3,0.9l-0.1,0.4l-0.6,0.8l-0.3,0.4l-1.3,1l-0.1,0.1l-1.4,1.5
			l-0.2,0.2l-1.3,1.1l-0.2,0.2l-0.1,0.1l-1.5,1.4l0,0l-0.2,0.2l-0.1,0l-2.5,1.1l-1.6,0.9l-0.4,0.2l-0.1,0.1l-0.6,0.9l-0.3,0.1
			l-1,0.3l-0.1,0.2l-0.2,0.5l0.1,1.2l0,0.8l0,0l0.5,2.1l0.1,1.3l0.7,1.8l0,0.3l-0.2,1.2l-0.1,0.1l-0.3,0.3l0,0l-0.1,0.1l-0.1,0.1
			l-1.1,1.6l-0.2,0.2l-0.4,0.5l-0.1,0.3l0,0.1l0,0.1l-0.1,0.3l0.1,0.2l0.4,0.9l0.5,0.5l5.1,0.9l0.8,0.7l1.1,1.2l2.5,2.6l2.6,1.3
			l2.3,1.1l0.5,1l1.2,0.9l0.2,0.4l0.1,0.3l1.9,2.2l0,0l0.3,0.7l0.9,0.9l0.2,0.7l0.5,0.7l1,0.3l0.4,0.5l0.2,0.8l0,0.2l0,0.1l0.4,0.4
			l0.5,0.3l0.3,0.2l2,1.5l0.3,0.2l0.7,0.4l0.8,0.1l0.8,0.7l1.6,0.8l0.4,0.5l0.5,0.3l0.7,0.4l0.2,0.3l0.5,1.1l0.1,0.6l0,0.2l0.1,0.1
			l0.6,0.6l0.3,0.3l0.1,0l0.7,0.2l0.1,0l-0.1,0.4l-0.4,1l-0.9,0.8l-0.9,2.6l0.5,1.8l0.3,0.5l0.8,0.7l0.2,0.4l-1,2.6l-0.3,1.2
			l-0.4,0.7l-1.8,2.2l-1,0.1l-0.1,0l-0.6,0.3l-0.3,0.6l-0.1,0.5l-0.1,0.3l0,0.1l0.1,0.8l-0.7,1.7l0,0.6l1,1.3l0.2,0.7l-0.1,0.5
			l0,0.4l0,1.4l0.4,0.6l0.1,0.1l0.2,0.7l0,0.9l0,0.1l0.8,1l0.5,0.8l0.1,0.2l0.2,0.7l-1,1l0.7,0.7l0.4,0.5l0.8,1l0.9,0.2l0.4-0.2
			l0.6,0.6l1,0.5l1.6,0.2l0.6,0.4l1.1,0.1l0.4,0.4l0.5,1.1l0.3,0.3l0.3,1.4l-0.3,1.4l-0.4,0.6l-0.8,0.6l-0.1,0.2l-0.3,0.5l0.1,0.5
			l0.5,0.5l0.5,0.7l0.2,0.8l0,0.5l-0.2,0.5l-1.3,1.7l0,0.2l0.2,3l0.1,0.7l0.4,0.7l0.5,0.3l0.4,0.1l1.1,0.4l0.1,0l0.9,0.5l0.6,0.7
			l0.5,1.1l0.4,0.3l0.1,0.5l-0.2,0.5l-0.4,0.4l-0.2,0.5l0.2,0.9l0.1,0.3L346,388l-0.4,0.3l-0.1,0.7l-0.8,0.7l-0.2,0.6l-0.7,0.6
			l0.5,1.1l-0.3,1.2l-0.5,0.7l-0.1,0.4L343,395l0,0.1l0.1,0.2l0.2,0.3l0.3,0.4l0.4,0.2l0,0l0,0.1l0.2,0.4l-0.1,0.7l-0.3,0.5
			l-0.1,0.2l-0.6,0.8l0,1l-0.2,0.5l-0.7,1.9l-0.8,0.3l-0.7,0.8h-0.4l-0.7,0.8l-0.1,0.8l-0.6,0.8l-0.6,0.4l-0.3,0.4l-1.2,0.5
			l-0.2,0.3l0,0.3l-0.5,0.8l-0.8,0.6l0.1,0.7l-0.1,0.4l-0.1,0.3l0.5,0.5l0.3,0.7l0,0.7l0.6,0.1l0.2,0l0.3,0.3l0,0l0.2,0l0.9,0.1
			l0.2,0.3l0.2,0.2l0.3,0.1l0.1,0l0.1,0.1l0.4,0.9l0.1,1.8l-0.2,0.7l0.1,0.4l0.1,0.5l0.2,0.1l0.1,0l0.1,0l0,1l0,0l0.1,0.2l0.1,0.2
			l-0.1,0.3l0,0.3l1.1,1.1l0,0.1l0.1,0.5l0.5,0.6l0.4,0.3l0.1,0.1l0.3,0.2l0.9,0.8l0.8,0.9l0.3,0.1l0.6,0.2l0.1,0.2l0.1,0.3
			l-0.1,0.5l0.1,0.2l0.6,0.6l0.2,0.6l0.2,0.6l-0.1,1.1l0.3,0.9l-0.3,1.2l0,0.3l0.5,0.5l0.2,0.6l-0.1,1.4l-0.6,0.5l-0.2,0.4l-0.5,0.3
			l-0.9,1.1l-1.2,2.2l0.1,0.4l0.8,0.7l0.2,0.1l0,0.1l0,0.9l0.2,0.9l0.4,0.7l0.6,0.2l1,0.2l0.6,0.4l1.6,0l0.5,0.3l0.4,0.8l0.5,0.1
			l0.8,0l0.6,0.7l0.5,1l0.7,0.1l0.8,0l0.6,0.6l1-0.3c0.5,0.4,0.6,0.5,0.6,0.5l0.6-0.1l1.1,0.4l0.5,0.8l0.8,0l0.9,0.9l0.2,0.9
			l0.8,1.5l0.1,0.8l-0.7,0.8l0.3,0.8l-0.3,1.3l0.6,0.8l-0.7,0.5l0.9,2l0.4,0.6l-0.4,0.7l-0.7,0.6l0.9,1.1l0,0.7l1,2.1l0.5,0.5
			l0.2,0.1l0.2,0.1l0.2,0.4l-0.1,0.4l0.9,1l0.2,0.2l0.5,0.5l0.2,0.8l0.2,1.1l0.3,0.5l-0.2,0.5l0.2,1.3l0,0.1l0.1,0.9l0,0.2l-0.1,0.1
			l-0.2,0.2l-0.3,0.3l-0.4,0.5l-0.6,0.6l-0.2,1.4l-0.5,0.8l0,0.6l0.3,0.7l-0.6,0.8l0,1.3l-0.1,0.4l-0.6,1.1l0.3,0.9l-0.3,0.9
			l0.1,1.2l-0.3,0.7l-0.3,1.1l-0.5,1l0.3,1.3l-0.2,1.2l-0.3,0.8l-0.4,0.4l-0.7,0.6l-0.5,0.5l0.3,0.7l0.4,0.8l-0.6,0.4l-0.2,1.7
			l-0.7,0.2l0,1.4l-0.5,1.4l-0.1,0.8l-0.7,1.1l-0.3,1l-0.4,0.1l-0.8,2.3l-0.3,0.8l-0.5,0.8l-0.7,0.7l-0.5,1l-0.8,0.7l-1,1.7
			l-0.7,0.7l-0.8,0.9l0.1,0.7L351.3,512.4z M313.9,209.3l-0.4,0l-0.7,0.3l-0.2-0.5l0.7-0.4l0.4,0l0.1,0.2l0.1,0.2L313.9,209.3z"/>
	</defs>
	<clipPath id="Poland_2_">
		<use xlink:href="#Poland_1_"  overflow="visible"/>
	</clipPath>
	<g clip-path="url(#Poland_2_)">
		<rect x="140" y="87.5" fill="#FFFFFF" width="1000" height="625"/>
		<rect x="140" y="400" fill="#DC143C" width="1000" height="312.5"/>
	</g>
	<use xlink:href="#Poland_1_"  overflow="visible" fill="none" stroke="#DC143C" stroke-miterlimit="10"/>
</g>
</svg>
