<?xml version="1.0" encoding="UTF-8" standalone="no"?>
<!-- Created with Inkscape (http://www.inkscape.org/) -->

<svg
   xmlns:dc="http://purl.org/dc/elements/1.1/"
   xmlns:cc="http://creativecommons.org/ns#"
   xmlns:rdf="http://www.w3.org/1999/02/22-rdf-syntax-ns#"
   xmlns:svg="http://www.w3.org/2000/svg"
   xmlns="http://www.w3.org/2000/svg"
   xmlns:sodipodi="http://sodipodi.sourceforge.net/DTD/sodipodi-0.dtd"
   xmlns:inkscape="http://www.inkscape.org/namespaces/inkscape"
   width="201.15883"
   height="402.14075"
   id="svg2"
   inkscape:label="Pozadí"
   sodipodi:version="0.32"
   inkscape:version="0.47 r22583"
   version="1.0"
   sodipodi:docname="ZZ2.svg"
   inkscape:output_extension="org.inkscape.output.svg.inkscape">
  <defs
     id="defs2220">
    <inkscape:perspective
       sodipodi:type="inkscape:persp3d"
       inkscape:vp_x="0 : 200.89012 : 1"
       inkscape:vp_y="0 : 1000 : 0"
       inkscape:vp_z="200.79834 : 200.89012 : 1"
       inkscape:persp3d-origin="100.39917 : 133.92675 : 1"
       id="perspective16" />
    <clipPath
       clipPathUnits="userSpaceOnUse"
       id="clipPath3293">
      <path
         d="m 126.4576,171.79124 2.73471,-1.42656 1.46212,-0.9692 -0.21568,-1.09431 0.56917,-1.94801 0.18597,-0.64276 0.0239,-0.0825 0.0868,-0.29992 -0.12264,-0.41186 -0.12884,-0.16501 -1.02507,-1.31183 -0.43744,-1.97454 0.45266,-0.66897 -0.009,-0.70876 0.35973,-1.24594 -0.42886,-1.26589 0.68936,-1.34149 -0.68607,-1.79304 0.0926,-0.40561 -0.90204,-1.76995 0.0811,-0.32311 0.0391,-0.16144 -0.20698,-0.36257 -2.6279,-2.30748 -0.28481,-1.48007 -0.15269,-0.31295 -0.13166,-0.26704 -1.29461,-1.39767 -1.15061,-1.69437 -0.19506,-0.79417 0.18603,-0.94947 -0.24903,-0.8207 0.11116,-1.17358 0.25755,-0.45813 0.063,-0.41185 0.0691,-0.42869 0.55719,-0.63942 0.99792,-0.70865 -0.40449,-2.13588 -0.61439,-1.43391 -0.0568,-0.92952 -0.68931,-0.67253 -0.24562,-0.59649 -0.26669,-0.64621 -1.65144,-1.37772 -0.53617,-0.26057 -0.40455,-1.15695 0.28146,-1.52937 0.15068,-0.82147 0.0115,-0.0619 0.20041,-2.47548 -0.30862,-1.70083 -0.48806,-1.10423 -0.39876,-2.48876 0.29056,-0.64944 -0.43131,-1.23601 0.32054,-1.90197 -0.34151,-1.47996 -0.042,-0.60653 -0.11394,-1.74364 0.23993,-0.86374 -0.18279,-1.34148 0.17945,-0.62292 0.42267,-0.53416 0.0391,-0.16814 0.1436,-0.61633 -0.39831,-2.46545 -0.0272,-0.51109 -0.11974,-2.21827 -0.072,-0.41185 -0.0449,-0.0265 -0.30243,-0.1747 -0.0453,-0.40886 0.20409,-0.540405 0.0959,-1.522994 -0.0542,-0.260337 -0.2605,-1.305366 0.24846,-1.110807 -0.84189,-1.219624 0.37452,-0.837202 0.0152,-0.543978 -0.36871,-0.44497 -0.40735,-0.121974 -0.10207,-0.303261 0.66255,-1.344938 -0.17126,-0.685463 0.24613,-0.876781 0.32344,-1.153735 0.0119,-0.07894 0.34774,-2.175565 0.49136,-1.35487 0.021,-0.05931 0.0449,-0.125434 -0.0926,-0.289874 -0.29674,-0.922945 -0.114,-0.352655 -0.051,-0.02308 -0.21853,-0.09577 -0.41358,0.125439 -0.12588,-0.382207 0.58434,-0.659481 0.91067,-1.028301 0.27578,-0.309952 1.19866,-0.932747 0.0568,-0.04304 0.0749,-0.02308 0.72221,-0.227331 0.70742,0.12532 0.32054,0.451545 0.78519,1.107457 0.42841,2.383177 0.64728,0.207597 0.16172,0.35611 0.228,0.50105 -0.0482,0.431931 -0.063,0.629377 0.36258,1.724019 0.0242,0.112048 0.94368,0.435161 0.93493,-0.273604 0.16501,-0.178055 0.45222,-0.487788 -0.0419,-0.408841 -0.34447,-0.44486 -0.64442,-0.3725 -0.55145,-0.833862 0.17119,-0.296684 0.65604,-0.03635 0.11388,-0.12855 0.16797,-0.191208 -0.10213,-0.145164 -0.003,-0.0031 0.003,-0.01984 -0.0181,-0.0067 -1.11148,-1.581973 0.33866,-0.53082 -0.20704,-0.49425 -0.2905,-0.339721 -0.20989,-0.24729 -0.35962,-0.856827 -0.38933,-0.0397 -0.32055,-0.03301 -0.26384,-0.362573 0.42556,-0.560138 0.41359,-1.216284 0.46414,-0.01338 0.53378,-1.081256 0.13161,-0.266804 -0.2814,-0.715224 0.34155,-0.48143 -0.0391,-0.599726 -0.97083,-2.508486 0.14985,-0.543864 -0.12884,-0.24718 -1.03699,-0.108935 -1.19549,0.811011 -0.54565,-0.06936 -0.73992,-0.91948 0.35065,-0.422118 0.27237,-0.322995 0.32389,-0.946129 0.4646,-0.04281 0.6951,-0.444864 0.2905,0.415318 0.29953,0.0099 0.56956,-0.830627 0.90203,-0.02966 0.86012,0.906442 1.57891,1.661252 0.16797,-0.158097 -0.50039,-0.936098 -0.70123,-0.395693 -0.45267,-0.606526 -0.3716,-0.497705 0.003,-0.220869 0.4885,0.154981 0.43455,0.138468 0.82388,1.074351 0.0358,-0.431812 0.35678,0.0068 0.42261,0.606416 0.0959,-0.596713 -1.02183,-0.781013 -1.0399,-0.520779 -0.042,-0.01996 -0.50334,-0.79762 -0.0243,-0.164788 0.44079,-0.154976 0.13451,-0.217523 0.0329,-0.05274 -0.14645,-0.738303 0.17081,-0.349534 0.6621,1.048259 0.35059,0.115398 0.35968,-0.237367 0.65308,0.09577 0.32054,0.385657 0.14985,0.659033 0.37774,0.25064 0.24857,-0.128665 -0.0449,-0.546986 0.19177,-0.02308 0.28185,0.210947 0.20375,0.151625 -0.66834,3.658658 -0.45266,0.962636 -0.0687,0.138249 -0.67409,0.665843 -0.27566,1.190077 0.28141,0.636178 0.16501,0.02642 0.65307,0.105362 0.1828,0.93298 0.009,0.05274 -0.49135,2.003982 0.6922,1.684322 -0.0148,0.543974 0.51515,0.145054 0.20989,0.708656 0.68602,0.128546 0.25766,0.217524 0.32378,-0.253756 0.084,-0.946024 -0.36871,-0.06589 0.0572,-0.207716 0.21853,-0.207597 0.42551,-0.0397 0.2037,0.270374 -0.1198,0.349419 -0.11395,0.332917 0.65926,0.916478 -0.30242,0.675536 -0.50049,0.342953 -0.58719,-0.609753 -0.32962,0.102012 -1.12386,1.717443 0.12593,0.494359 0.48227,0.336376 -0.39831,0.837094 0.47324,0.824159 0.32672,0.03613 0.31158,-0.458018 0.0629,-0.435271 0.33247,-0.346074 1.0341,0.210947 0.55725,0.718578 0.40739,0.03623 0.0901,-0.352656 -0.746,-0.913018 0.0596,-0.187753 0.88392,0.751351 0.24897,-0.158211 -1.08472,-1.680987 1.05177,-0.688913 0.28158,-0.346074 0.41637,-0.507741 -0.56912,-1.509617 -0.26992,-0.06266 -0.11697,0.299801 0.28767,0.712107 -0.32958,0.04962 -0.52714,-0.83085 0.2008,-0.458122 0.60819,-0.04282 0.53623,-0.557016 -0.50039,-0.722034 -0.62307,-0.128551 -0.10492,-0.247179 0.4074,-0.860283 -0.051,-0.257106 -0.021,-0.102349 0.2609,-0.563484 -0.12298,-0.468044 0.50652,-0.530716 0.15269,-0.596709 -0.0597,-0.135132 -0.27573,-0.636182 0.71607,-1.236013 0.44937,-0.395578 -0.2634,-0.362692 -0.14689,-0.685454 0.64114,-0.418549 0.28475,-0.593477 0.13168,-0.840434 0.26669,-0.04605 0.3987,0.883253 0.76095,0.158316 0.39256,0.612993 0.0658,0.62637 1.0012,0.329571 0.91977,-0.600054 0.49464,-0.619798 0.17365,-0.468044 -0.38972,-1.12051 0.53043,-0.791044 0.30293,-0.45166 -0.0931,-0.372499 -0.3177,-0.0099 -0.49754,0.672534 -0.26658,0.0427 -1.68104,-0.47463 -0.1107,0.1552 0.67693,0.339388 -0.10788,0.102126 -0.36825,-0.01326 -0.7794,-0.497596 -0.70704,0.362573 -0.33242,0.207492 -0.67737,-0.237148 -0.41972,-0.665838 -0.91692,-0.352651 -0.21557,-0.30672 -1.1539,-1.667939 -0.38025,-2.000745 -0.44363,-0.80432 0.42836,-0.66907 -0.3415,-2.6008 -0.0301,-0.108707 -0.36837,-1.265897 0.76712,-0.932752 0.11072,-0.135132 0.41353,-1.186622 0.35968,-0.125434 0.34685,-0.346855 0.58194,-0.582438 0.0272,-0.804425 -0.35678,-0.214292 -0.812,-2.287618 0.14984,-1.440269 0.34441,-0.590137 0.74651,-0.359232 0.50902,-0.534047 0.84239,-1.776541 0.25141,-0.237362 0.70743,0.184627 0.67118,0.481206 0.73993,0.893284 0.15303,0.441514 0.40165,0.309956 0.35633,1.021939 -0.24562,0.468059 -0.38972,0.741653 0.0152,0.408841 -0.33576,0.263683 -0.0148,0.570065 0.77895,-0.494255 1.0099,0.02621 0.18602,-0.758265 1.22259,-0.5898 0.23045,-0.458345 -0.28146,-0.718688 0.0419,-0.543755 0.87489,-0.903091 0.0959,-0.540523 -0.39547,-0.530711 0.20666,-0.537397 -0.24289,-1.239353 -0.34151,-0.359233 -0.43125,-0.20437 -1.53744,0.118633 -0.27332,-0.291778 -0.0711,-0.07091 -0.37445,-0.365923 0.0568,-1.008567 0.33253,-1.216279 -0.19183,-0.906555 0.41978,-0.316305 0.4913,-0.995409 -0.17979,-0.359451 -0.56053,0.395683 -0.52134,-0.890052 0.14979,-0.484438 0.55763,-0.313292 0.59298,0.263793 0.64154,-0.392462 0.5152,-0.774431 -0.0177,-0.329572 0.6679,-0.362572 0.79417,-1.041574 0.24283,-1.793263 -0.26663,-2.215142 0.084,-2.043564 -0.47657,-0.586678 -0.17366,-1.588887 0.24233,-0.810892 0.49759,-0.204485 0.39547,1.008791 0.0901,0.234026 -0.12304,0.487788 0.34478,0.418658 0.38032,0.118629 0.12587,0.441843 0.24289,0.08886 0.3177,-0.510753 0.8328,-0.438393 0.64738,-0.609981 0.0778,-1.743749 0.96792,0.682337 0.195,0.797729 -0.57854,1.074684 0.12298,0.09879 0.0391,0.02977 0.37445,0.296684 0.875,-0.820923 0.051,-0.428471 0.0182,-0.141703 -0.21897,-0.501051 -0.24278,-0.550445 0.15314,-0.596599 -0.62069,-0.316533 -0.13166,-0.250415 0.25765,-2.310745 0.4016,-0.616281 0.054,-0.870261 -0.12883,-0.3856 0.35349,-0.781398 -0.0391,-0.860339 -0.73083,-0.243725 0.006,-0.168129 1.11476,-0.461477 2.60984,-1.097759 0.83921,-0.520784 0.26658,-0.702076 0.27895,-0.210942 0.40126,-0.533942 0.3268,0.06589 0.53337,0.560363 0.38678,-0.125153 1.06944,-0.979188 0.48277,-0.448091 0.53004,0.560253 0.042,0.438279 0.43159,0.257215 0.49759,-0.148285 0.61099,-0.227502 1.28273,-0.698892 0.56627,-0.583223 0.48232,-0.583446 -0.15275,-0.359233 0.34775,-0.646265 -0.0572,-0.817526 0.44074,-1.0250749 2.25027,-1.5061625 0.0482,-0.033111 0.16167,-0.2208166 0.32389,-0.4482003 -0.12309,-0.4383879 0.21563,-0.8144039 0.27907,-0.1548091 0.11974,0.5504974 0.27238,0.1153931 1.53749,-0.06271 1.19532,-0.4251826 0.53673,0.3427862 0.71891,-0.1154502 0.68345,-0.8502509 0.46426,-0.804425 0.44642,-0.2043659 1.34851,-0.095545 0.89596,1.2263145 0.0872,-0.131958 0.81479,0.2701498 0.64165,0.5373398 1.59702,0.1616663 0.0568,0.00652 0.26391,0.026254 0.64108,0.5669482 1.11193,0.4449691 0.23658,0.3593939 2.23823,1.2164546 2.82011,2.0269949 -0.40449,0.695504 0.12553,0.385709 -0.15564,1.387648 0.34741,0.365975 -0.43126,1.539335 0.2337,1.292203 0.11974,0.128489 1.1806,1.275658 -0.0419,0.408731 0.31185,0.636183 1.00087,1.311827 0.89296,0.356059 0.91067,0.685515 0.18898,1.888869 -0.30872,1.025008 0.33582,0.665948 -0.1231,1.331676 0.4976,0.698726 0.12331,0.06143 2.08816,1.072453 0.82995,0.682455 1.11772,0.201025 2.76872,-0.07593 1.33368,-0.557022 2.63091,0.08585 0.43739,-0.09232 1.49222,0.705416 0.29992,0.382312 -0.26379,0.187868 -0.67442,-0.362578 -0.37451,0.0989 2.853,2.224955 0.10169,-0.07247 -0.32958,-0.408732 -0.012,-0.42858 0.64121,0.421894 1.86416,0.692149 0.67409,0.336372 0.8119,1.278717 0.0691,2.050359 -0.25755,1.684442 0.67688,0.817582 0.82092,2.089723 0.0511,1.173575 0.35064,1.262323 0.15598,2.317392 0.2638,0.616334 0.53616,1.258983 -0.0181,1.714097 -0.25476,0.319878 -0.29958,-0.06277 0.093,-2.528111 -0.60819,-0.807657 -0.37161,-1.427225 -0.21562,-3.190609 -0.27283,-0.03645 -0.10491,0.787922 -0.31776,0.645875 0.11685,1.170348 0.2338,0.402046 0.20079,0.349415 1.05184,2.772169 0.0239,0.06266 -0.29669,0.807651 -0.41364,0.207493 -0.13447,0.866859 -0.36591,0.48143 -0.63819,0.309837 -1.28563,0.04928 -0.69505,0.389112 -0.48845,-0.09243 -0.0119,0.461581 0.68312,0.0165 0.0782,0.194449 -0.3987,0.507736 -0.11974,0.487673 0.38342,-0.07247 1.2136,-1.466808 0.17371,0.108588 0.0959,0.06266 -0.92885,2.043898 -0.11395,1.24917 -1.11438,-0.273714 -0.26702,-0.276722 -0.0388,-0.573524 -0.32956,0.09889 0.006,-0.244062 -0.50327,-0.639409 -0.38979,0.342729 -0.73407,-0.207602 -0.21563,-1.278935 -0.31485,1.70083 0.15307,0.385766 0.42267,0.138478 0.65927,0.379071 0.17649,0.520789 0.3716,0.418549 0.44074,-0.06936 1.39344,1.015377 0.47942,0.530706 0.0987,0.355882 0.29378,0.138478 0.26346,0.05932 0.57531,0.553791 0.21897,-0.07582 0.009,-0.273605 0.27862,-0.210942 -0.0721,-0.356001 -0.67688,-0.316414 0.39257,-0.289884 0.006,-0.237476 -0.054,-0.54721 0.18597,-0.388893 -0.10492,-0.290212 1.00667,0.422223 0.27896,0.115064 0.0959,1.256085 0.50328,0.481088 0.0687,0.359455 -0.92584,2.122835 -0.30259,-0.0035 -0.19779,0.319873 -0.042,1.578856 -0.70408,0.853815 -0.32356,-0.171588 -0.42869,-0.309951 -0.4075,0.05274 -1.51631,0.204475 -0.23381,-0.303375 0.24273,-0.24372 0.58155,-0.201134 0.13502,-0.04626 0.59627,0.02988 0.0538,-0.570403 -0.23369,-0.428357 -0.0511,-0.09577 -0.49748,-0.190994 -0.14696,-0.270369 0.36872,-0.237372 0.20369,-0.131891 -0.1708,-0.151636 -0.24562,0.01327 -0.59013,0.03278 -0.12298,-0.158097 -0.79428,0.115398 -0.43125,-0.253761 -1.15675,0.34931 -1.03086,0.593368 -0.0749,0.01004 -0.57809,0.08897 -0.64443,0.556908 0.13156,0.220869 1.18685,0.629491 0.73708,-0.06243 0.32378,0.171251 -0.45267,0.669074 0.14405,0.682451 0.41353,-0.158207 0.19757,-0.356001 0.0209,-0.639409 0.58145,-0.237486 0.50662,0.09578 -0.0959,0.47462 -0.55757,0.481211 -0.22466,0.580097 -0.13792,1.110807 0.11072,1.041564 0.26379,0.359351 0.4016,0.283412 0.11071,-0.07894 -0.51521,-1.239472 0.25766,-0.454891 0.33581,-0.263683 0.37452,0.280296 1.06375,0.02966 0.20649,0.49436 -0.36827,0.534047 -0.0181,0.708661 0.21552,0.791044 -0.28431,0.507626 -0.32098,1.562467 -0.28141,0.223986 -0.57531,0.458351 -1.19588,0.270259 -0.38353,-0.768188 0.0391,-0.47117 -0.31164,-0.115507 0.11362,-0.303261 -0.92585,0.141928 0.0181,0.378966 -0.4375,1.07792 0.24863,-0.154976 0.38354,0.03612 -0.17996,0.623138 -0.44028,0.09555 -1.8819,0.682346 -0.64443,1.806411 0.28487,0.47462 -0.24284,0.781012 0.19791,1.50996 0.40449,0.174482 0.35979,-0.177941 0.0119,0.491238 -0.60507,1.153621 -0.0213,0.033 -0.50618,0.959177 0.2037,0.31954 0.0449,0.30337 -0.13223,0.04962 -0.56616,1.090963 -0.59014,0.675756 -0.41352,1.958051 -0.006,0.191093 0.68645,0.731623 0.35355,0.06611 0.78804,0.9526 -0.0301,1.826145 0.64443,0.26681 0.33247,-0.154752 1.20167,0.886478 0.23993,0.962637 0.54811,0.754806 0.65926,1.601936 -0.11685,1.087837 0.17694,0.441627 -0.39257,1.160422 0.75102,2.811857 0.0279,0.105367 -0.32957,0.942668 0.063,1.420654 -0.3744,0.586677 0.0118,2.597465 -0.0807,1.24593 0.12263,0.44185 0.47374,0.50417 0.37741,-0.003 0.30281,0 0.32066,0.22756 0.41353,0.69538 -0.30861,0.29022 -0.12934,0.54052 -0.73686,0.0593 -0.71935,0.57999 -0.28765,0.2309 -0.15275,0.56694 0.0329,0.10214 0.21272,0.67241 1.21072,0.50116 0.70742,0.0789 0.0626,-0.1251 0.11116,-0.2241 0.35633,-0.0692 0.31764,0.31954 0.57866,0.58345 0.50951,0.23414 0.10448,-0.01 0.52469,-0.0495 0.26368,-0.59337 0.31742,-0.21763 0.3987,-0.003 0.69828,0.32299 0.67131,1.19655 0.26658,0.089 0.49703,-0.14505 0.37495,0.20426 0.32635,0.80108 0.67743,0.132 0.21273,-0.67587 0.29959,0.0396 0.0362,0.22744 0.0539,0.34619 -0.29959,0.78101 -0.23993,1.46368 -0.11974,0.0922 -0.52146,0.4055 0.20872,1.26032 0.22265,1.34372 1.61521,1.60193 0.14683,0.14829 0.0301,0.0297 -0.0659,1.17012 0.47943,2.79214 -0.15598,0.38877 -0.62916,0.55044 -0.12878,-0.25699 -0.23992,-0.10558 -0.18275,0.91647 -0.0209,0.10202 0.1378,0.79439 0.88682,1.15049 0.0362,0.54398 -0.11106,0.3822 -0.16467,0.56382 0.12265,1.13377 0.12587,1.16689 0.4045,0.12197 -0.28431,0.42536 -0.18597,0.82728 -0.0391,0.1747 -0.0477,0.59973 0.19757,0.83753 0.0419,0.17784 -0.37729,0.72526 -0.17995,0.51075 -0.47942,0.50116 -0.14394,1.08773 0.081,0.84712 0.25767,0.44497 0.34484,1.86574 0.68591,1.49646 0.53049,0.37238 0.0959,0.38254 -0.44029,1.69749 -0.14984,0.57352 -1.30084,2.35686 -1.87855,0.0989 -0.36302,0.31306 -0.81189,1.55578 0.16512,0.40885 0.28766,0.72504 0.52134,-0.14829 0.0716,0.30338 -1.42923,2.13253 -1.51308,3.1382 -1.69303,1.90832 -0.45556,0.71868 -1.08806,1.73707 -1.71967,1.08784 -0.47943,0.5569 -0.7761,2.23489 -0.59961,1.00222 -0.6053,1.00533 -0.38934,1.18651 0.0659,1.36479 -1.16589,2.4951 0.16367,1.5656 0.001,0.0497 -0.25175,1.13712 -2.99671,4.7533 -1.62714,6.02543 -0.746,1.3911 -0.79383,0.27349 -0.63261,1.07145 -0.11061,0.4811 -1.09096,-0.16479 -1.06989,0.45478 -1.37527,-0.18129 -0.2367,1.54608 -0.51565,0.85682 -0.0835,1.00545 0.47329,0.5801 -0.72225,1.34828 0.0901,0.52079 -0.31475,0.56037 -0.58144,0.47128 -1.29143,0.58679 -1.33658,1.58878 -0.29333,0.34941 -0.40172,-0.0955 -0.0658,-0.54732 0.19746,-1.13713 -0.11685,-0.57686 -0.70408,-0.86686 0.006,-1.09119 -0.50373,-0.36915 0.61444,-0.60653 0.40739,-0.069 0.61154,0.37228 0.91391,-1.37449 0.4976,-0.74489 0.38019,-2.67004 -0.18552,-0.25042 -0.2939,0.089 -0.28766,1.35464 -0.50618,0.61656 -0.32087,0.91625 -0.28776,-0.15832 0.34205,-0.68546 0.33828,-3.57982 -0.68602,0.17136 -0.35343,0.37908 -0.13223,1.0681 -0.24562,0.089 -0.29055,-0.1582 -0.13781,-0.0758 -0.36258,-0.19445 -0.21272,0.17794 0.0448,0.4976 -0.74599,-0.013 -0.61166,-0.60663 -0.33537,-0.1086 -0.0719,0.72827 -0.24283,-0.01 -0.89585,-1.40426 -0.42847,0.38566 -0.74645,1.97432 -0.18262,-0.25053 0.0152,-0.53729 0.4045,-0.42512 0.23045,-1.11081 0.41064,-0.18786 -0.32044,-2.88768 -0.37171,-0.0296 0.0569,1.09766 0.21607,0.58991 -0.24897,0.0526 -0.1708,-0.30961 -0.24283,-0.0561 -0.19757,1.60194 -0.6024,1.27236 -0.0119,-1.44696 -0.25766,-0.38911 -0.40773,0.0165 -1.09965,0.56382 -0.0357,0.069 -0.25199,0.46838 -1.06988,-0.49804 -0.68602,0.28019 -0.3987,0.6956 -0.59638,0.0361 -0.22755,0.31988 -0.33861,-0.39223 0.35343,-0.8934 -0.0898,-0.24372 -0.91681,1.25251 -0.10491,0.78759 -0.52759,0.36615 0.47663,0.45143 0.039,0.51767 -0.25187,0.21083 c -0.12844,0.18764 -5.02578,4.70713 -5.19001,4.81027 -0.55279,0.34753 -1.24984,0.39346 -1.85915,0.59192 -0.37049,0.12063 -4.53778,2.42653 -4.9764,2.63692 -4.00383,-0.64688 -14.24476,-2.2564 -15.3088,-2.56735 -0.46275,-0.61054 -10.87171,-12.74357 -11.11555,-13.15843 -0.11071,-0.18844 -3.48377,-6.81727 -3.86926,-7.36136 z"
         style="fill:#fefee9;fill-rule:evenodd;stroke:#000000;stroke-width:0.68501472;stroke-miterlimit:4;stroke-opacity:1;stroke-dasharray:none"
         id="path3295" />
    </clipPath>
  </defs>
  <sodipodi:namedview
     id="base"
     pagecolor="#ffffff"
     bordercolor="#666666"
     borderopacity="1.0"
     inkscape:pageopacity="0.0"
     inkscape:pageshadow="2"
     inkscape:zoom="0.7"
     inkscape:cx="-29.64944"
     inkscape:cy="135.76985"
     inkscape:document-units="px"
     inkscape:current-layer="g3297"
     inkscape:window-width="1280"
     inkscape:window-height="1004"
     inkscape:window-x="-8"
     inkscape:window-y="-8"
     showgrid="false"
     inkscape:window-maximized="1" />
  <metadata
     id="metadata2223">
    <rdf:RDF>
      <cc:Work
         rdf:about="">
        <dc:format>image/svg+xml</dc:format>
        <dc:type
           rdf:resource="http://purl.org/dc/dcmitype/StillImage" />
      </cc:Work>
    </rdf:RDF>
  </metadata>
  <g
     inkscape:label="Vrstva 1"
     inkscape:groupmode="layer"
     id="layer1"
     transform="translate(-118.77895,-218.17179)">
    <polygon
       id="polygon13"
       style="fill:#e0e0e0;fill-rule:evenodd"
       points="601.30444,979.97168 603.41821,980.50586 604.28345,981.76172 602.47437,987.39209 601.32788,987.39209 601.32788,987.39209 601.77808,983.65283 600.79272,981.47363 "
       transform="translate(70.418789,12.347871)" />
    <path
       id="path15"
       style="fill:#e0e0e0;fill-rule:evenodd"
       d="m 656.96493,999.73996 -0.3335,-1.24219 0.85449,-2.56934 3.76611,-3.53662 0.96973,-1.48682 4.77783,2.00635 0.7207,1.09717 -1.75732,2.52686 c 0,0 1.58594,3.20459 1.64844,3.20459 l -2.53174,0 -1.30811,-1.29932 -2.58594,0.2168 -1.15576,1.08252 -3.06493,0 0,0 z" />
    <g
       id="g3297">
      <path
         d="m 136.97997,570.8966 5.7468,-2.99781 3.07254,-2.03672 -0.45324,-2.29961 1.19607,-4.09359 0.3908,-1.35072 0.0503,-0.17337 0.1824,-0.63026 -0.25771,-0.86548 -0.27074,-0.34677 -2.15411,-2.75671 -0.91925,-4.14936 0.95123,-1.40578 -0.0191,-1.48941 0.75596,-2.61824 -0.90122,-2.66019 1.44864,-2.81903 -1.44173,-3.76795 0.19459,-0.85236 -1.89558,-3.71943 0.17045,-0.67898 0.0821,-0.33926 -0.43496,-0.76192 -5.52234,-4.84898 -0.5985,-3.11026 -0.32087,-0.65766 -0.27669,-0.56115 -2.72052,-2.93711 -2.41792,-3.56058 -0.40991,-1.66889 0.39093,-1.99525 -0.52331,-1.72465 0.23359,-2.46619 0.54123,-0.96272 0.13238,-0.86548 0.14526,-0.90086 1.17089,-1.34368 2.09706,-1.48919 -0.85002,-4.48838 -1.29108,-3.01327 -0.11938,-1.95332 -1.44853,-1.41326 -0.51615,-1.25349 -0.56043,-1.35796 -3.47037,-2.89518 -1.12673,-0.54756 -0.85013,-2.43126 0.59147,-3.21384 0.31665,-1.72627 0.0241,-0.13005 0.42115,-5.20205 -0.64853,-3.57417 -1.02563,-2.32045 -0.83796,-5.22994 0.61058,-1.36476 -0.90637,-2.59739 0.6736,-3.99685 -0.71765,-3.11003 -0.0883,-1.27456 -0.23945,-3.66415 0.50421,-1.81507 -0.38413,-2.81904 0.3771,-1.309 0.88821,-1.12251 0.0821,-0.35333 0.30178,-1.29518 -0.83703,-5.18095 -0.0572,-1.07402 -0.25162,-4.66153 -0.15136,-0.86548 -0.0943,-0.0558 -0.63553,-0.36713 -0.0951,-0.85917 0.42887,-1.13563 0.20149,-3.20046 -0.11398,-0.54708 -0.54743,-2.74313 0.52212,-2.33428 -1.76916,-2.56295 0.78701,-1.75932 0.0319,-1.14313 -0.77482,-0.93507 -0.856,-0.25632 -0.2145,-0.63728 1.3923,-2.82629 -0.35988,-1.44045 0.51721,-1.84249 0.67968,-2.42449 0.0251,-0.16588 0.73076,-4.57179 1.03255,-2.84716 0.044,-0.12464 0.0943,-0.26359 -0.19459,-0.60915 -0.62358,-1.9395 -0.23955,-0.74108 -0.10721,-0.0485 -0.45921,-0.20126 -0.86912,0.2636 -0.26453,-0.80318 1.22796,-1.38585 1.91371,-2.1609 0.57953,-0.65134 2.5189,-1.9601 0.11938,-0.0904 0.15744,-0.0485 1.51766,-0.47772 1.48659,0.26335 0.6736,0.94889 1.65002,2.32724 0.90027,5.00807 1.3602,0.43625 0.33985,0.74834 0.47913,1.05292 -0.10121,0.90767 -0.13238,1.32259 0.76193,3.6229 0.051,0.23546 1.98307,0.91446 1.96468,-0.57496 0.34676,-0.37417 0.9503,-1.02505 -0.0881,-0.85915 -0.72386,-0.93484 -1.35422,-0.78278 -1.15883,-1.7523 0.35976,-0.62346 1.3786,-0.0764 0.23933,-0.27014 0.35297,-0.40181 -0.21463,-0.30505 -0.006,-0.007 0.006,-0.0417 -0.0379,-0.0141 -2.33568,-3.3244 0.71167,-1.11548 -0.43509,-1.03863 -0.61046,-0.7139 -0.44106,-0.51966 -0.75572,-1.80056 -0.81816,-0.0834 -0.6736,-0.0694 -0.55445,-0.76192 0.89429,-1.17709 0.86912,-2.55593 0.97537,-0.0281 1.12169,-2.27218 0.27658,-0.56067 -0.59136,-1.50299 0.71776,-1.01169 -0.0821,-1.26028 -2.04013,-5.2714 0.3149,-1.14289 -0.27074,-0.51943 -2.17916,-0.22892 -2.51224,1.70428 -1.14664,-0.14575 -1.55489,-1.93222 0.73686,-0.88705 0.57237,-0.67875 0.68063,-1.98822 0.97632,-0.09 1.4607,-0.93485 0.61046,0.87276 0.62944,0.0209 1.19689,-1.7455 1.89556,-0.0623 1.80747,1.90482 3.31796,3.491 0.35298,-0.33223 -1.05153,-1.96714 -1.47359,-0.83152 -0.95124,-1.27457 -0.7809,-1.04589 0.007,-0.46414 1.02656,0.32568 0.91317,0.29098 1.73132,2.25767 0.0752,-0.90742 0.74975,0.0143 0.88809,1.27434 0.20161,-1.25395 -2.14731,-1.64124 -2.18527,-1.09438 -0.0882,-0.0419 -1.05773,-1.67614 -0.051,-0.34629 0.92628,-0.32567 0.28267,-0.45711 0.0691,-0.11083 -0.30776,-1.55149 0.35895,-0.73452 1.39136,2.20284 0.73674,0.2425 0.75584,-0.49881 1.37239,0.20125 0.67359,0.81043 0.31491,1.38491 0.79378,0.5267 0.52236,-0.27038 -0.0943,-1.14945 0.40299,-0.0485 0.59229,0.44329 0.42817,0.31863 -1.40448,7.6884 -0.95123,2.02291 -0.14433,0.29052 -1.41655,1.39922 -0.57929,2.50086 0.59136,1.33688 0.34675,0.0555 1.37238,0.22141 0.38414,1.96059 0.0189,0.11083 -1.03254,4.21122 1.45462,3.53948 -0.031,1.14312 1.08255,0.30482 0.44107,1.48919 1.44161,0.27013 0.54145,0.45711 0.6804,-0.53325 0.17643,-1.988 -0.77483,-0.13846 0.12021,-0.4365 0.45921,-0.43625 0.89418,-0.0834 0.42807,0.56817 -0.25175,0.73428 -0.23945,0.6996 1.38538,1.92591 -0.63552,1.41959 -1.05175,0.72069 -1.23392,-1.28135 -0.69268,0.21437 -2.36171,3.60908 0.26464,1.03886 1.01344,0.70687 -0.83701,1.75909 0.99447,1.73191 0.68659,0.0759 0.65475,-0.96249 0.13225,-0.91469 0.69866,-0.72725 2.17309,0.44329 1.17101,1.51004 0.85611,0.0761 0.18931,-0.74108 -1.56766,-1.91864 0.12534,-0.39455 1.85749,1.57891 0.52318,-0.33247 -2.27945,-3.53247 2.21021,-1.4477 0.59172,-0.72725 0.87498,-1.06698 -1.19597,-3.17235 -0.56722,-0.13167 -0.24579,0.63001 0.6045,1.49644 -0.69259,0.10427 -1.10774,-1.74597 0.42196,-0.96271 1.27808,-0.09 1.12684,-1.17053 -1.05152,-1.5173 -1.30935,-0.27014 -0.22048,-0.51943 0.85613,-1.80782 -0.10719,-0.54029 -0.0442,-0.21508 0.54826,-1.18412 -0.25843,-0.98356 1.06441,-1.11526 0.32086,-1.25394 -0.12534,-0.28397 -0.57942,-1.33689 1.50476,-2.59739 0.94433,-0.83128 -0.55352,-0.76217 -0.30868,-1.44043 1.34731,-0.87955 0.59838,-1.24715 0.27671,-1.76611 0.56044,-0.0968 0.83783,1.85609 1.59907,0.33269 0.82495,1.28816 0.13835,1.31627 2.10396,0.69257 1.93283,-1.26097 1.03945,-1.30246 0.36491,-0.98356 -0.81898,-2.35467 1.11466,-1.66232 0.63659,-0.94913 -0.19553,-0.78278 -0.66763,-0.0209 -1.04554,1.41328 -0.5602,0.0897 -3.53258,-0.9974 -0.23264,0.32614 1.42252,0.7132 -0.22669,0.21461 -0.77386,-0.0279 -1.63785,-1.04566 -1.48579,0.76192 -0.69855,0.43603 -1.42345,-0.49835 -0.88201,-1.39921 -1.92684,-0.74107 -0.453,-0.64455 -2.42484,-3.50505 -0.79906,-4.20442 -0.93226,-1.69022 0.90016,-1.406 -0.71764,-5.46539 -0.0631,-0.22844 -0.77411,-2.66019 1.61206,-1.96011 0.23266,-0.28397 0.869,-2.4936 0.75584,-0.26359 0.72888,-0.72889 1.22291,-1.22395 0.0572,-1.69044 -0.74974,-0.45032 -1.70637,-4.80726 0.31489,-3.02662 0.72374,-1.24013 1.56873,-0.7549 1.06967,-1.12226 1.77022,-3.73327 0.52833,-0.4988 1.4866,0.38798 1.41045,1.01122 1.5549,1.87717 0.32158,0.92781 0.84404,0.65135 0.74881,2.14753 -0.51615,0.98359 -0.81898,1.55853 0.032,0.85915 -0.70557,0.55411 -0.0312,1.19795 1.63691,-1.03864 2.12224,0.0551 0.39091,-1.59344 2.56918,-1.23942 0.48428,-0.96318 -0.59147,-1.51027 0.0881,-1.14266 1.83851,-1.89778 0.20148,-1.13587 -0.83104,-1.11525 0.43427,-1.1293 -0.51042,-2.60441 -0.71764,-0.7549 -0.90625,-0.42947 -3.23081,0.2493 -0.57437,-0.61315 -0.14948,-0.14902 -0.78688,-0.76896 0.11937,-2.11943 0.69878,-2.55592 -0.4031,-1.90506 0.88212,-0.66469 1.03243,-2.09178 -0.37781,-0.75536 -1.17791,0.8315 -1.09555,-1.87038 0.31476,-1.01801 1.17183,-0.65836 1.2461,0.55434 1.34814,-0.82473 1.08266,-1.62741 -0.0371,-0.69257 1.40355,-0.76192 1.66888,-2.18879 0.5103,-3.76841 -0.56032,-4.65496 0.17642,-4.2944 -1.00148,-1.23286 -0.36492,-3.33893 0.50923,-1.70403 1.04566,-0.42971 0.83105,2.1199 0.18932,0.49179 -0.25855,1.02505 0.72454,0.87978 0.7992,0.24929 0.26452,0.9285 0.5104,0.18674 0.66764,-1.07331 1.75006,-0.92125 1.36043,-1.28183 0.16343,-3.66436 2.03402,1.43388 0.40978,1.67637 -1.21575,2.25837 0.25843,0.20759 0.0821,0.0625 0.78689,0.62346 1.83875,-1.72511 0.10706,-0.9004 0.0382,-0.29778 -0.46016,-1.05292 -0.51017,-1.15672 0.32181,-1.25371 -1.30433,-0.66517 -0.27669,-0.52623 0.54144,-4.85586 0.84394,-1.29507 0.1134,-1.82879 -0.27073,-0.81031 0.74284,-1.64205 -0.0822,-1.80794 -1.5358,-0.51217 0.0121,-0.35331 2.34259,-0.96976 5.48438,-2.30686 1.76353,-1.09439 0.5602,-1.47536 0.5862,-0.44328 0.84323,-1.12204 0.68673,0.13846 1.12085,1.17756 0.81278,-0.263 2.24735,-2.05769 1.0145,-0.94163 1.11384,1.17733 0.0883,0.92101 0.90696,0.54052 1.04565,-0.31161 1.28395,-0.47808 2.69556,-1.46867 1.18998,-1.2256 1.01356,-1.22607 -0.32099,-0.7549 0.73077,-1.35808 -0.1202,-1.71797 0.92617,-2.15412 4.72878,-3.16509 0.10121,-0.0696 0.33973,-0.46403 0.68064,-0.94186 -0.25867,-0.92124 0.45313,-1.71141 0.58645,-0.32532 0.25162,1.15683 0.57239,0.24249 3.23091,-0.13178 2.51189,-0.89349 1.12789,0.72034 1.51074,-0.24261 1.43623,-1.78674 0.9756,-1.69044 0.93812,-0.42946 2.83379,-0.20078 1.8828,2.57701 0.18323,-0.2773 1.71222,0.5677 1.34837,1.12918 3.35603,0.33973 0.11927,0.0137 0.55458,0.0552 1.34719,1.1914 2.33663,0.93507 0.49716,0.75524 4.70348,2.55629 5.92626,4.25958 -0.85002,1.46155 0.26381,0.81054 -0.32707,2.91604 0.73005,0.76907 -0.90625,3.2348 0.49109,2.71547 0.25163,0.27001 2.48095,2.6807 -0.0881,0.85892 0.65533,1.33689 2.10326,2.75671 1.87648,0.74823 1.91371,1.44056 0.39713,3.96932 -0.64876,2.15398 0.7057,1.39944 -0.25867,2.79842 1.04566,1.46832 0.25913,0.1291 4.38811,2.25368 1.74409,1.43413 2.34881,0.42244 5.81825,-0.15956 2.80264,-1.17054 5.52866,0.18041 0.91914,-0.194 3.1358,1.48238 0.63026,0.8034 -0.55435,0.39479 -1.41724,-0.76193 -0.787,0.20783 5.99537,4.67558 0.21368,-0.15229 -0.69258,-0.85892 -0.0253,-0.90063 1.34745,0.88658 3.9174,1.4545 1.41655,0.70686 1.70613,2.68713 0.14526,4.30868 -0.54122,3.53973 1.42241,1.71809 1.72511,4.3914 0.10732,2.46618 0.73684,2.65268 0.32778,4.86983 0.55435,1.29518 1.12671,2.64566 -0.038,3.60205 -0.53536,0.6722 -0.62956,-0.13191 0.19541,-5.31264 -1.27807,-1.69723 -0.78091,-2.99921 -0.45312,-6.70483 -0.57333,-0.0766 -0.22047,1.65576 -0.66773,1.35726 0.24554,2.4594 0.49131,0.84487 0.42196,0.73427 2.21035,5.82551 0.0501,0.13168 -0.62346,1.69722 -0.86924,0.43603 -0.28257,1.82164 -0.76894,1.01169 -1.34111,0.6511 -2.70166,0.10357 -1.46059,0.81769 -1.02644,-0.19424 -0.0251,0.96998 1.43552,0.0347 0.16425,0.40862 -0.83784,1.06697 -0.25162,1.02481 0.80574,-0.15228 2.55029,-3.08239 0.36503,0.22819 0.2015,0.13167 -1.95191,4.2951 -0.23945,2.62504 -2.34179,-0.57519 -0.56112,-0.58151 -0.0815,-1.20522 -0.69256,0.20782 0.0122,-0.51288 -1.0576,-1.34367 -0.8191,0.72022 -1.5426,-0.43626 -0.45313,-2.68759 -0.66164,3.57417 0.32167,0.81066 0.88822,0.291 1.38539,0.79659 0.37089,1.0944 0.7809,0.87955 0.92618,-0.14575 2.92821,2.13374 1.00747,1.11524 0.20735,0.74786 0.61737,0.291 0.55363,0.12465 1.20898,1.16375 0.46014,-0.15933 0.019,-0.57496 0.5855,-0.44328 -0.1516,-0.74811 -1.4224,-0.66492 0.82496,-0.60917 0.0122,-0.49904 -0.1134,-1.14992 0.3908,-0.81723 -0.22047,-0.60986 2.11545,0.88727 0.58621,0.2418 0.20148,2.63957 1.05761,1.01097 0.14433,0.75537 -1.94559,4.46098 -0.63588,-0.007 -0.41563,0.67219 -0.0883,3.31785 -1.47957,1.79423 -0.67993,-0.36058 -0.90087,-0.65134 -0.85634,0.11083 -3.18641,0.42969 -0.49132,-0.63752 0.51006,-0.51216 1.22209,-0.42267 0.28373,-0.0972 1.25302,0.0628 0.11315,-1.19866 -0.49108,-0.90016 -0.1073,-0.20125 -1.04543,-0.40136 -0.30881,-0.56816 0.77483,-0.49882 0.42805,-0.27716 -0.35894,-0.31865 -0.51614,0.0279 -1.24013,0.0689 -0.25842,-0.33223 -1.66912,0.2425 -0.90625,-0.53326 -2.43082,0.73405 -2.16628,1.24692 -0.15745,0.0211 -1.21482,0.18696 -1.35423,1.1703 0.27647,0.46414 2.49407,1.32283 1.54893,-0.1312 0.68039,0.35987 -0.95124,1.40601 0.30271,1.43412 0.86899,-0.33246 0.41518,-0.74811 0.044,-1.34367 1.22186,-0.49906 1.06463,0.20127 -0.2015,0.99738 -1.17169,1.01123 -0.47212,1.21903 -0.28982,2.33428 0.23266,2.18877 0.55434,0.75515 0.84393,0.59557 0.23265,-0.16588 -1.08268,-2.60466 0.54146,-0.95592 0.70569,-0.55411 0.78701,0.58902 2.2354,0.0623 0.43392,1.03886 -0.77388,1.12226 -0.038,1.4892 0.45289,1.66232 -0.59745,1.06674 -0.67453,3.28341 -0.59136,0.47069 -1.20897,0.96319 -2.51305,0.56793 -0.80597,-1.61429 0.0822,-0.99013 -0.65487,-0.24273 0.23875,-0.63728 -1.94559,0.29825 0.038,0.79637 -0.91938,2.26517 0.52249,-0.32567 0.80597,0.0759 -0.37816,1.30948 -0.92522,0.20078 -3.95467,1.4339 -1.35423,3.79604 0.59863,0.99738 -0.5103,1.64124 0.41588,3.17307 0.85002,0.36666 0.75606,-0.37393 0.0251,1.0323 -1.27152,2.42425 -0.0447,0.0694 -1.0637,2.01564 0.42805,0.67149 0.0944,0.63751 -0.27788,0.10427 -1.18974,2.29258 -1.24013,1.42005 -0.869,4.1147 -0.0131,0.40157 1.44254,1.53745 0.74296,0.13893 1.65599,2.00182 -0.0632,3.83751 1.35422,0.56068 0.69867,-0.3252 2.52523,1.86287 0.50419,2.02291 1.15181,1.58617 1.38538,3.36635 -0.24554,2.28601 0.37183,0.92805 -0.82496,2.43854 1.57821,5.90891 0.0586,0.22142 -0.69257,1.98095 0.13238,2.9854 -0.78677,1.23286 0.0248,5.45838 -0.16962,2.61823 0.25771,0.92852 0.99553,1.05948 0.79309,-0.007 0.63634,0 0.67383,0.4782 0.86901,1.46129 -0.64852,0.60987 -0.27179,1.13587 -1.54846,0.12464 -1.51167,1.21881 -0.60448,0.48522 -0.32098,1.19138 0.0691,0.21463 0.44702,1.41303 2.54423,1.05315 1.48659,0.16588 0.13145,-0.26288 0.23359,-0.47093 0.74881,-0.1455 0.6675,0.67149 1.216,1.22607 1.07071,0.49202 0.21955,-0.0206 1.10259,-0.10403 0.55411,-1.24692 0.66704,-0.45733 0.83784,-0.007 1.46738,0.67875 1.4107,2.51445 0.5602,0.18697 1.04448,-0.30481 0.78793,0.42923 0.68579,1.68341 1.42358,0.2774 0.44703,-1.42029 0.62956,0.0832 0.0761,0.47795 0.11317,0.72749 -0.62955,1.64124 -0.5042,3.07582 -0.25164,0.19376 -1.09579,0.85213 0.4386,2.64848 0.46788,2.82372 3.39424,3.36634 0.30857,0.31162 0.0633,0.0623 -0.13847,2.45892 1.00747,5.86746 -0.32778,0.81699 -1.32212,1.15671 -0.27062,-0.54006 -0.50419,-0.22187 -0.38402,1.92589 -0.044,0.21439 0.28958,1.66935 1.86359,2.41768 0.0761,1.14313 -0.23337,0.80316 -0.34605,1.18483 0.25773,2.38254 0.26452,2.45214 0.85002,0.25631 -0.59746,0.89385 -0.39079,1.73847 -0.0822,0.36713 -0.10028,1.26028 0.41518,1.76002 0.0881,0.3737 -0.79285,1.52409 -0.37815,1.07331 -1.00748,1.05314 -0.30247,2.28579 0.17033,1.78017 0.54146,0.93507 0.72467,3.9207 1.44138,3.14471 1.11478,0.78253 0.20149,0.80388 -0.92524,3.56714 -0.31488,1.20521 -2.73361,4.95277 -3.94763,0.20783 -0.76287,0.65789 -1.70612,3.26935 0.34699,0.85916 0.60448,1.52362 1.09556,-0.31161 0.15042,0.63752 -3.00342,4.48136 -3.17962,6.5947 -3.55777,4.0102 -0.95734,1.51025 -2.28648,3.65031 -3.61376,2.28602 -1.00748,1.1703 -1.63092,4.69644 -1.26004,2.10609 -1.27199,2.11264 -0.81817,2.49337 0.13848,2.86799 -2.45003,5.24328 0.34395,3.28998 0.003,0.1045 -0.52903,2.38957 -6.29737,9.9887 -3.41932,12.662 -1.56766,2.9233 -1.66818,0.57472 -1.32938,2.25158 -0.23244,1.01098 -2.29256,-0.34629 -2.24831,0.95569 -2.89003,-0.38096 -0.4974,3.24896 -1.08361,1.80056 -0.1755,2.11287 0.99459,1.21903 -1.51776,2.83333 0.18931,1.0944 -0.66141,1.17757 -1.22186,0.99036 -2.71384,1.23309 -2.80873,3.3387 -0.61642,0.73428 -0.84417,-0.20079 -0.13825,-1.15015 0.41495,-2.38958 -0.24554,-1.21224 -1.47958,-1.82164 0.0129,-2.29305 -1.05855,-0.77575 1.2912,-1.27457 0.85611,-0.14503 1.2851,0.78232 1.92052,-2.88839 1.04566,-1.56533 0.79895,-5.6109 -0.38987,-0.52623 -0.61759,0.18698 -0.6045,2.84668 -1.0637,1.29566 -0.67429,1.92543 -0.60471,-0.33269 0.7188,-1.44045 0.71086,-7.52274 -1.44162,0.36011 -0.74271,0.79661 -0.27786,2.24454 -0.51616,0.18696 -0.61057,-0.33246 -0.28959,-0.15931 -0.76194,-0.40861 -0.44701,0.37393 0.0942,1.04566 -1.56766,-0.0274 -1.28535,-1.2748 -0.70476,-0.22821 -0.15112,1.53041 -0.51029,-0.0201 -1.88255,-2.95095 -0.90041,0.81043 -1.5686,4.14889 -0.38377,-0.52646 0.0319,-1.12907 0.85002,-0.89336 0.48428,-2.33429 0.86292,-0.39478 -0.67337,-6.06824 -0.78113,-0.0621 0.11948,2.30664 0.45406,1.23965 -0.52318,0.11059 -0.35894,-0.65064 -0.51029,-0.11785 -0.41517,3.36635 -1.26589,2.67377 -0.0251,-3.04068 -0.54146,-0.81769 -0.85681,0.0347 -2.31084,1.18483 -0.075,0.14503 -0.52952,0.98427 -2.24829,-1.0466 -1.44161,0.58879 -0.83785,1.46176 -1.25324,0.0759 -0.47819,0.6722 -0.71155,-0.82425 0.74271,-1.87741 -0.18861,-0.51216 -1.9266,2.63206 -0.22047,1.65506 -1.10869,0.76943 1.0016,0.94866 0.082,1.08783 -0.52928,0.44305 c -0.2699,0.39432 -10.5613,9.8917 -10.90642,10.10843 -1.16164,0.7303 -2.62645,0.82683 -3.90687,1.24387 -0.77855,0.25351 -9.53581,5.09919 -10.45753,5.54131 -8.41377,-1.35938 -29.93433,-4.74166 -32.17033,-5.3951 -0.97243,-1.28301 -22.8461,-26.77968 -23.35851,-27.65149 -0.23264,-0.39598 -7.32089,-14.32598 -8.13097,-15.46934 z"
         style="fill:#fefee9;fill-rule:evenodd;stroke:#70193d;stroke-width:1.79999995;stroke-miterlimit:4;stroke-opacity:1;stroke-dasharray:none"
         id="path11" />
      <g
         clip-path="url(#clipPath3293)"
         id="g3285"
         transform="matrix(2.1014266,0,0,2.1014266,-128.76139,209.88991)">
        <rect
           id="rect3287"
           height="198"
           width="124.51607"
           x="109.59925"
           y="0"
           style="fill:#70193d" />
        <path
           id="path3289"
           d="m 0,0 144,0 36,11 -36,11 36,11 -36,11 36,11 -36,11 36,11 -36,11 36,11 -36,11 36,11 -36,11 36,11 -36,11 36,11 -36,11 36,11 -36,11 L 0,198 0,0 z"
           style="fill:#ffffff" />
      </g>
    </g>
  </g>
</svg>
