<?xml version="1.0" encoding="UTF-8" standalone="no"?>
<svg id="svg2" xmlns:rdf="http://www.w3.org/1999/02/22-rdf-syntax-ns#" xmlns="http://www.w3.org/2000/svg" height="560.92" width="792.99" version="1.1" xmlns:cc="http://creativecommons.org/ns#" xmlns:dc="http://purl.org/dc/elements/1.1/" viewBox="0 0 3.9649405 2.8045786">
 <metadata id="metadata14">
  <rdf:RDF>
   <cc:Work rdf:about="">
    <dc:format>image/svg+xml</dc:format>
    <dc:type rdf:resource="http://purl.org/dc/dcmitype/StillImage"/>
   </cc:Work>
  </rdf:RDF>
 </metadata>
 <path id="rect4" fill="#002b7f" d="m1.2562 0.083751c-0.00269 0.0001895-0.0056 0.0012913-0.01 0.003125-0.014493 0.00605-0.027031 0.02236-0.027031 0.034844 0 0.014051-0.015342 0.021986-0.042656 0.022031-0.022499 0.00004-0.023129 0.0002575-0.024219 0.009688-0.00062 0.005377-0.00548 0.012961-0.010781 0.017031-0.055533 0.042625-0.064559 0.051142-0.066719 0.062656-0.00162 0.008645-0.00415 0.011875-0.00922 0.011875-0.00382 0-0.015999 0.00727-0.027031 0.01625-0.017831 0.01451-0.021315 0.016169-0.0325 0.014219-0.006919-0.00121-0.022176-0.003235-0.033906-0.004375-0.020424-0.001986-0.021875-0.00149-0.031875 0.009062-0.008399 0.008868-0.013337 0.010938-0.025156 0.010938-0.01172 0-0.017638 0.002644-0.029531 0.012812-0.019409 0.016596-0.03443 0.03893-0.0375 0.055625-0.00214 0.011628-0.004971 0.014526-0.021094 0.022656-0.019367 0.009771-0.058701 0.040519-0.064531 0.050469-0.00187 0.003188-0.003351 0.018278-0.003437 0.033438l-0.000156 0.0275-0.022188 0.019688c-0.023043 0.020505-0.028442 0.029733-0.047656 0.08125-0.009489 0.025443-0.042252 0.076562-0.049062 0.076562-0.001445 0-0.00934 0.006074-0.0175 0.013594l-0.014844 0.01375 0.005625 0.013281c0.005104 0.012202 0.005154 0.014714-0.000156 0.028125-0.003193 0.008073-0.012372 0.021225-0.020312 0.029375-0.011637 0.011945-0.01399 0.016751-0.0125 0.024531 0.001384 0.007213-0.001174 0.013501-0.009844 0.024844-0.006375 0.008343-0.017504 0.024954-0.024844 0.037031-0.01267 0.020842-0.013189 0.022706-0.009219 0.035938 0.00435 0.014507 0.002959 0.020938-0.004531 0.020938-0.00242 0-0.010718 0.006475-0.018438 0.014375-0.012598 0.012889-0.015402 0.014098-0.026719 0.012188-0.018083-0.003052-0.0306 0.007599-0.03375 0.028594-0.00131 0.008757-0.005184 0.019536-0.008594 0.023906-0.003403 0.004371-0.008424 0.013966-0.011094 0.021406-0.00425 0.011841-0.00405 0.015561 0.00125 0.030156 0.005655 0.015564 0.005706 0.016944 0.000156 0.021094-0.003266 0.00244-0.008996 0.00453-0.012656 0.00453-0.016949 0-0.019766 0.00444-0.032656 0.050625-0.00384 0.013752-0.0075 0.020312-0.01125 0.020312-0.003065 0-0.010002 0.0031-0.015312 0.00687-0.015157 0.01079-0.025274 0.011775-0.046719 0.00438-0.01375-0.00475-0.021738-0.00579-0.025938-0.00344-0.003975 0.00222-0.01042 0.00197-0.01875-0.0007813-0.025657-0.00846-0.065312 0.00757-0.065312 0.026406 0 0.00448-0.003121 0.011001-0.007031 0.014531-0.00391 0.00354-0.007188 0.00826-0.007188 0.010469 0 0.00608-0.019326 0.016094-0.030938 0.016094-0.005654 0-0.019026-0.0054-0.029688-0.012188-0.022531-0.01434-0.029899-0.015401-0.035469-0.005-0.003779 0.00705-0.005984 0.00724-0.033125 0.005-0.015932-0.0013-0.031487-0.00312-0.034687-0.00406-0.006421-0.0019-0.02792 0.0144-0.02792 0.0212 0 0.00239 0.00621 0.014616 0.01375 0.027187 0.007541 0.01257 0.016348 0.031244 0.019688 0.041406 0.006454 0.019641 0.010892 0.024237 0.055625 0.057813 0.055962 0.042009 0.07404 0.06528 0.08 0.1025 0.002796 0.017463 0.010542 0.021092 0.026562 0.012812 0.006141-0.00317 0.012161-0.00487 0.013281-0.00375s-0.001541 0.017196-0.005781 0.035625c-0.00957 0.041633-0.009649 0.057197-0.0004685 0.078594l0.007188 0.016875-0.007188 0.00766c-0.00397 0.00422-0.007187 0.00985-0.007187 0.0125s0.010818 0.015276 0.024062 0.028125c0.013243 0.012849 0.032982 0.034107 0.043906 0.047344 0.021993 0.02665 0.074826 0.064609 0.085938 0.061719 0.004458-0.00116 0.009201 0.00256 0.015781 0.0125 0.010136 0.015301 0.03513 0.030071 0.067031 0.039531 0.028911 0.00857 0.046188 0.01885 0.050938 0.030312 0.00452 0.010899 0.005372 0.00847-0.018594 0.057187-0.00232 0.00471-0.009355 0.010224-0.015625 0.012344-0.017698 0.00598-0.019889 0.00971-0.015469 0.026094 0.004038 0.014984 0.017412 0.027667 0.037969 0.035937 0.006125 0.00246 0.015441 0.00897 0.020781 0.014531l0.009688 0.010156-0.013594 0.00391c-0.007552 0.00209-0.022632 0.00374-0.033438 0.00375-0.028139 0.00003-0.035469 0.0062-0.035469 0.029688 0 0.030045 0.013942 0.041769 0.055156 0.046719 0.028155 0.00335 0.040781 0.00992 0.040781 0.021406 0 0.017018 0.009494 0.032559 0.025469 0.041719 0.013652 0.00783 0.020611 0.00906 0.060625 0.010469 0.042729 0.00151 0.046101 0.00225 0.06 0.011875 0.008091 0.0056 0.018694 0.015299 0.023594 0.021719s0.011696 0.011719 0.015156 0.011719c0.00428 0 0.007114 0.00371 0.008594 0.011563 0.001291 0.00685 0.009707 0.02002 0.020781 0.032344 0.015961 0.017761 0.020229 0.020591 0.029219 0.019531 0.008622-0.00101 0.012641-0.00518 0.022969-0.022969 0.006926-0.011929 0.022896-0.035508 0.035312-0.052344 0.020682-0.028045 0.024708-0.031579 0.049062-0.043281 0.014621-0.00703 0.028812-0.011988 0.031562-0.010937 0.00275 0.00105 0.009994 0.0101 0.016094 0.02 0.009903 0.016078 0.014686 0.01959 0.044219 0.03375 0.01819 0.00872 0.034139 0.015938 0.035469 0.015938 0.00283 0 0.015765 0.014811 0.015938 0.018281 0.000268 0.0054-0.020572 0.00641-0.032188 0.00156-0.01775-0.00741-0.035444-0.00298-0.042344 0.010469-0.007076 0.013805-0.012767 0.017235-0.032031 0.019375-0.015067 0.00167-0.016128 0.00241-0.017188 0.013438-0.00062 0.00649 0.002048 0.018439 0.005938 0.026719 0.00386 0.00821 0.008105 0.01887 0.009375 0.02375 0.007517 0.028858 0.025265 0.050199 0.054219 0.065156 0.012959 0.0067 0.017039 0.013001 0.020469 0.03125 0.001595 0.00851 0.005185 0.014082 0.010625 0.016563 0.004506 0.00205 0.021632 0.013934 0.037969 0.026406s0.039207 0.027925 0.050937 0.034375c0.036532 0.020073 0.040119 0.026065 0.025781 0.04375-0.00556 0.00686-0.014991 0.01178-0.031094 0.01625-0.021027 0.00584-0.023802 0.0078-0.031562 0.021719-0.0071 0.012737-0.00859 0.020246-0.00859 0.045 0 0.035023 0.00176 0.037876 0.034063 0.054062 0.034637 0.017352 0.067385 0.018733 0.11984 0.00484 0.022481-0.00595 0.055218-0.011971 0.072813-0.013281 0.027965-0.00209 0.034438-0.00141 0.051406 0.00531 0.00411 0.00163 0.00899 0.00397 0.01375 0.00641v-2.5258c-0.011901-0.006937-0.018821-0.013218-0.024375-0.02125-0.00549-0.007937-0.016359-0.018716-0.024219-0.023906-0.00847-0.0056-0.012243-0.0078156-0.016719-0.0075z"/>
 <path id="rect6" fill="#fcd116" d="m2.6433 0.004689c-0.015098 0.0035122-0.027731 0.0085758-0.032969 0.014219-0.00876 0.009439-0.012423 0.010399-0.061719 0.016719-0.042071 0.005394-0.042351 0.0056625-0.048281 0.035312-0.00296 0.01482-0.018613 0.046605-0.031563 0.063906-0.012653 0.016904-0.050019 0.039034-0.065937 0.039062-0.020067 0.000036-0.072125 0.010208-0.094688 0.018438-0.016298 0.00594-0.03289 0.00811-0.075937 0.01-0.083035 0.003642-0.13426 0.012243-0.15109 0.025469-0.00442 0.003476-0.018989 0.021805-0.032344 0.040625-0.013354 0.01882-0.028321 0.036744-0.033281 0.039844-0.00496 0.003097-0.01506 0.010218-0.0225 0.015938-0.013402 0.0103-0.013752 0.010349-0.032031 0.005469-0.016471-0.004397-0.01944-0.006652-0.0275-0.021562-0.012329-0.022799-0.022169-0.032619-0.048437-0.047969-0.018461-0.010789-0.023551-0.015747-0.028281-0.028125-0.00546-0.014288-0.00735-0.015762-0.04-0.029688l-0.034375-0.014688-0.065312 0.009063c-0.078218 0.01088-0.085297 0.01116-0.10047 0.0025-0.024326-0.01388-0.055094-0.017022-0.088594-0.009063-0.00787 0.001873-0.010451 0.0003235-0.017031-0.010312-0.00693-0.011211-0.010528-0.013151-0.033594-0.018281-0.022084-0.004908-0.073056-0.00738-0.10547-0.005-0.00496 0.000364-0.021575-0.005505-0.036875-0.013125-0.00506-0.002522-0.00955-0.004764-0.013437-0.007031v2.5258c0.0076 0.00389 0.015054 0.0082 0.019844 0.011719 0.014992 0.01101 0.028565 0.012794 0.057187 0.00734 0.012453-0.00237 0.017427-0.00109 0.039219 0.010625 0.015097 0.00811 0.045774 0.019185 0.078125 0.028125 0.039922 0.011032 0.057986 0.01796 0.072031 0.0275l0.01875 0.012656 0.037969-0.00453c0.040279-0.00492 0.069876-0.013396 0.085625-0.024531 0.0053-0.00375 0.018756-0.00976 0.03-0.013281 0.020149-0.00631 0.020619-0.00635 0.03375 0.0009375 0.00733 0.00407 0.01919 0.010611 0.02625 0.014531s0.016116 0.0092 0.020156 0.011719c0.00589 0.00368 0.019059 0.00389 0.067031 0.0007812 0.059594-0.00386 0.059992-0.00387 0.08125 0.00484 0.015241 0.00624 0.030868 0.00934 0.055 0.010781 0.032213 0.00192 0.034483 0.00259 0.049531 0.014844 0.00868 0.00706 0.020729 0.016325 0.026719 0.020625 0.012391 0.0089 0.018717 0.00972 0.032812 0.00437 0.00547-0.00208 0.023201-0.00609 0.039375-0.00891 0.028848-0.00503 0.079063-0.024409 0.079063-0.030469 0-0.00169 0.00658-0.00297 0.014687-0.00297 0.011635 0 0.018107-0.00267 0.030312-0.012656 0.0085-0.00696 0.01635-0.016504 0.0175-0.021094 0.00117-0.00464 0.00659-0.01018 0.012187-0.0125 0.00553-0.00229 0.016628-0.013515 0.024688-0.025 0.00807-0.011485 0.021408-0.025779 0.029688-0.031719s0.021449-0.018764 0.029219-0.028594c0.018723-0.023696 0.044406-0.045104 0.061406-0.051094 0.00758-0.00267 0.020351-0.00815 0.028281-0.012188 0.016963-0.00865 0.055183-0.01676 0.095-0.02 0.0067-0.0005453 0.017311-0.00202 0.029063-0.00391v-2.5355z"/>
 <path id="rect8" fill="#ce1126" d="m2.6811 0.0000014651c-0.0128 0.0000935-0.026 0.0019433-0.0378 0.0046875v2.5355c0.01566-0.00252 0.033579-0.00583 0.049219-0.00922 0.040566-0.00881 0.052744-0.012924 0.065781-0.022344 0.019569-0.014145 0.043016-0.022062 0.078594-0.026562 0.023681-0.003 0.03178-0.00229 0.065469 0.00531 0.021156 0.00477 0.039292 0.00788 0.040312 0.00687 0.00102-0.00102 0.015673 0.011863 0.032656 0.02875l0.030938 0.030781h0.040781c0.022847 0 0.046799-0.00192 0.054219-0.00438 0.013084-0.00432 0.013397-0.0042 0.02625 0.00984 0.019751 0.021588 0.035659 0.025117 0.072344 0.015938 0.016113-0.00403 0.031956-0.0084 0.035156-0.00969 0.00471-0.0019 0.0075 0.00288 0.014844 0.024687 0.00499 0.014837 0.014076 0.033111 0.020156 0.040781 0.023744 0.029948 0.079706 0.052436 0.16719 0.067187 0.075657 0.012772 0.074956 0.012746 0.086094 0.00219 0.00893-0.00847 0.00984-0.011446 0.00984-0.035313 0-0.020308 0.00312-0.036021 0.013906-0.070937 0.01367-0.044282 0.013764-0.045165 0.00859-0.063438-0.00319-0.011281-0.0058-0.039279-0.00656-0.071719-0.00093-0.039505-0.00274-0.056163-0.00687-0.064063-0.00314-0.00601-0.00546-0.019406-0.00547-0.030781-0.0000201-0.018383 0.0009049-0.020892 0.010625-0.027813 0.020552-0.014619 0.085144-0.10908 0.10297-0.15062 0.00693-0.016152 0.00696-0.017273 0.00109-0.021562-0.00536-0.00391-0.00856-0.00255-0.02375 0.010156-0.00968 0.0081-0.023511 0.023925-0.030781 0.035156l-0.013281 0.020313-0.00156-0.015c-0.0008901-0.00829-0.0002537-0.016577 0.00141-0.018438 0.00166-0.00185 0.00297-0.0076 0.00297-0.012812 0-0.00813 0.00179-0.00977 0.012812-0.011562 0.00911-0.00148 0.018936-0.00791 0.033594-0.021875 0.011364-0.010827 0.02317-0.019688 0.02625-0.019688 0.0086 0 0.00691-0.016342-0.00234-0.022812-0.011866-0.0083-0.01525-0.00713-0.034688 0.012188-0.00983 0.00976-0.019476 0.017812-0.021406 0.017812s-0.00359-0.00496-0.00359-0.010937c0-0.012256 0.011205-0.023259 0.039844-0.039688l0.017031-0.00984-0.000156-0.020469c-0.000142-0.023087-0.00388-0.031296-0.020313-0.045-0.01353-0.011285-0.014609-0.021046-0.00453-0.040781 0.010649-0.020854 0.022728-0.028594 0.044375-0.028594 0.02452 0 0.029707 0.0054 0.0175 0.018125-0.00864 0.00901-0.00907 0.011608-0.00781 0.036563 0.00075 0.014735 0.00325 0.028724 0.00563 0.031094s0.01081 0.00462 0.01875 0.005c0.00795 0.00039 0.015509 0.00176 0.016719 0.00297 0.00563 0.00563-0.00854 0.020018-0.027969 0.028437-0.011535 0.005-0.025243 0.013221-0.030312 0.018281l-0.00922 0.00922 0.011875 0.012188c0.00649 0.00669 0.014039 0.012188 0.016719 0.012188s0.017211-0.012552 0.032344-0.027813c0.027298-0.027524 0.027775-0.027724 0.055781-0.033594 0.015526-0.00325 0.050903-0.00902 0.078594-0.012812 0.02769-0.00379 0.053921-0.00892 0.058281-0.01125 0.00656-0.00351 0.00844-0.00318 0.011094 0.00156 0.00924 0.016498 0.022381-0.00305 0.019531-0.029062-0.00097-0.00891 0.00114-0.026091 0.005-0.040938 0.00391-0.015047 0.00671-0.038659 0.00687-0.0575 0.00024-0.028431 0.00179-0.040544 0.00938-0.077187 0.00162-0.00783-0.0003875-0.011789-0.00969-0.020469-0.01028-0.00959-0.01104-0.011761-0.0075-0.019531 0.00273-0.00599 0.007-0.00889 0.01375-0.00922 0.0077-0.00038 0.00825-0.0008713 0.00234-0.00203-0.00614-0.0012-0.00802-0.00502-0.01-0.02-0.00627-0.04731-0.00811-0.05133-0.029844-0.065313-0.029419-0.018929-0.087843-0.036537-0.12141-0.036562-0.024574-0.00002-0.028674 0.00121-0.050156 0.01375-0.012844 0.0075-0.037401 0.024287-0.054531 0.037344-0.01713 0.013056-0.035594 0.026066-0.041094 0.028906s-0.012913 0.00895-0.016563 0.013594c-0.00802 0.010179-0.015836 0.00814-0.031094-0.00797-0.011877-0.01254-0.019245-0.013754-0.030156-0.00484-0.00939 0.00766-0.018629 0.036349-0.014219 0.044219 0.00274 0.00488-0.0003991 0.00563-0.024375 0.00578-0.022573 0.00014-0.03702-0.00259-0.080781-0.015625-0.029324-0.00873-0.056655-0.017256-0.060625-0.018906-0.012245-0.00508-0.02638-0.029628-0.03-0.051875-0.00186-0.011393-0.00507-0.022259-0.00703-0.024219s-0.0104-0.00452-0.01875-0.00562c-0.0147-0.002-0.0155-0.0028-0.0193-0.0183-0.0057-0.023-0.0137-0.0371-0.0264-0.0461l-0.011094-0.00781 0.01375-0.00766c0.012584-0.00703 0.013724-0.00901 0.014844-0.025313 0.00153-0.022315-0.00553-0.064715-0.012656-0.075937-0.00339-0.00534-0.00669-0.024-0.00875-0.049687-0.00182-0.022635-0.00666-0.055826-0.010625-0.07375-0.00597-0.02698-0.00653-0.035762-0.00344-0.051406 0.00205-0.010393 0.00358-0.040753 0.00328-0.0675l-0.000625-0.04875 0.016563-0.0175c0.014743-0.015746 0.016175-0.018922 0.014375-0.03-0.00157-0.00964 0.000535-0.01718 0.00938-0.03375l0.011406-0.02125-0.00609-0.020781c-0.00455-0.015429-0.00628-0.035106-0.00656-0.075938l-0.0003125-0.055-0.020625-0.034375c-0.0273-0.04562-0.0344-0.06219-0.0345-0.07922 0-0.00781-0.0052-0.0293-0.0115-0.04765-0.0113-0.03271-0.0118-0.03353-0.0311-0.04563-0.0256-0.01602-0.0473-0.0369-0.0641-0.0614-0.0074-0.01082-0.0162-0.0218-0.0195-0.02454-0.0033-0.00272-0.0097-0.01234-0.0142-0.02124-0.0121-0.02349-0.0307-0.04363-0.0528-0.05704-0.0215-0.013-0.0325-0.03136-0.0357-0.05984-0.0026-0.02345-0.0158-0.04523-0.0328-0.05422-0.0135-0.00714-0.0317-0.03099-0.0512-0.06672-0.003-0.00537-0.0138-0.02096-0.0241-0.03468-0.0103-0.01373-0.0186-0.02768-0.0186-0.03094 0-0.003257-0.00312-0.012184-0.00703-0.019844-0.00391-0.007656-0.00719-0.016985-0.00719-0.020625 0-0.008714-0.015255-0.052087-0.024375-0.069375-0.00396-0.007505-0.00835-0.02241-0.00969-0.033125-0.0023-0.01886-0.003-0.02004-0.024-0.03532-0.025-0.01817-0.0349-0.03342-0.0321-0.049691 0.0017-0.009442 0.0003-0.012293-0.0092-0.019063-0.0061-0.00437-0.0152-0.014118-0.02-0.021718-0.0048-0.007606-0.011-0.013907-0.0139-0.013907s-0.0105-0.005772-0.0169-0.012812c-0.0163-0.01792-0.0411-0.029841-0.062-0.029688zm0.6514 1.7294c0.00235-0.00008 0.00694 0.00276 0.014063 0.00859 0.00586 0.0048 0.00898 0.0086 0.00703 0.00859-0.00602-0.000025-0.023125-0.010266-0.023125-0.013906 0-0.00207 0.0006213-0.00323 0.00203-0.00328zm0.2275 0.23797c0.00225-0.000393 0.00652 0.00299 0.013437 0.010312 0.00554 0.00586 0.00956 0.012309 0.00891 0.014219-0.00166 0.00485-0.024375-0.013488-0.024375-0.019688 0-0.00289 0.0006813-0.00461 0.00203-0.00484z"/>
</svg>
