<?xml version="1.0" encoding="UTF-8" ?>
<!DOCTYPE svg PUBLIC "-//W3C//DTD SVG 1.1//EN" "http://www.w3.org/Graphics/SVG/1.1/DTD/svg11.dtd">
<svg width="1025pt" height="909pt" viewBox="0 0 1025 909" version="1.1" xmlns="http://www.w3.org/2000/svg">
<g id="#fefefeff">
<path fill="#fefefe" opacity="1.00" d=" M 121.00 106.80 C 126.70 106.20 132.61 104.74 138.23 106.57 C 139.30 106.84 140.39 107.00 141.48 107.18 L 141.48 107.37 C 141.70 282.59 141.38 457.82 141.64 633.04 C 140.41 632.09 138.78 631.43 138.15 629.92 C 131.84 615.80 125.75 601.58 119.37 587.49 C 117.82 584.67 119.23 581.53 119.82 578.67 C 121.78 569.96 123.77 561.26 125.72 552.56 C 126.49 549.44 127.02 546.18 126.49 542.98 C 125.47 537.33 126.36 531.58 125.90 525.89 C 125.41 521.58 125.69 517.23 125.68 512.90 C 117.20 504.23 108.54 495.74 100.00 487.14 C 99.92 480.84 100.12 474.46 100.06 468.22 C 92.13 458.10 84.10 448.04 76.16 437.91 C 72.23 433.85 74.77 426.63 70.04 423.11 C 62.43 417.00 55.15 410.49 47.37 404.61 L 47.37 404.21 C 47.34 358.76 47.30 313.30 47.39 267.84 L 47.39 267.50 C 52.62 267.55 58.17 268.50 63.03 266.05 C 68.46 263.48 75.20 263.04 79.29 258.24 C 88.80 249.75 98.52 241.50 107.91 232.88 C 110.19 219.20 113.21 205.64 115.58 191.98 C 114.18 185.27 111.75 178.77 109.89 172.15 C 108.76 168.75 108.23 165.13 106.48 161.96 C 110.22 154.48 112.49 146.32 115.66 138.57 C 117.37 133.74 119.44 129.01 120.95 124.13 C 121.11 118.35 120.96 112.58 121.00 106.80 Z" />
<path fill="#fefefe" opacity="1.00" d=" M 693.28 288.21 C 701.51 287.17 709.78 288.02 718.01 288.56 C 761.41 292.18 803.40 313.07 831.66 346.35 C 841.86 357.97 850.42 371.01 857.05 384.98 C 873.65 419.62 877.50 460.07 868.09 497.29 C 860.96 526.03 845.75 552.54 825.15 573.76 C 805.44 593.95 780.58 609.07 753.60 617.35 C 712.79 630.01 667.25 626.77 628.74 608.19 C 610.83 599.62 594.44 587.88 580.56 573.69 C 570.99 563.96 562.62 553.05 555.69 541.30 C 536.16 508.47 528.63 468.82 534.49 431.11 C 539.62 396.64 556.16 364.15 580.48 339.27 C 609.85 308.85 651.06 290.25 693.28 288.21 Z" />
</g>
<g id="#02b350ff">
<path fill="#02b350" opacity="1.00" d=" M 369.04 16.01 C 375.83 14.08 381.32 7.52 388.95 8.98 C 398.36 15.74 408.07 22.08 417.40 28.95 C 422.70 28.90 427.93 29.95 433.22 30.26 C 438.49 30.56 443.87 32.22 449.10 30.77 C 454.46 29.29 459.82 27.83 465.21 26.47 C 466.36 26.26 467.36 25.63 468.29 24.94 C 488.67 30.47 508.72 37.31 528.98 43.32 C 531.59 44.13 534.16 45.40 536.98 44.98 C 545.03 43.65 553.15 42.80 561.22 41.60 C 566.12 40.68 570.96 42.46 575.79 43.13 C 580.10 44.02 584.45 44.70 588.77 45.52 C 593.67 46.55 597.80 50.92 603.08 49.86 C 606.77 49.06 610.55 48.79 614.28 48.22 C 615.68 48.08 617.20 47.64 618.54 48.36 C 632.17 55.72 645.86 62.98 659.55 70.24 C 661.31 71.16 662.94 72.54 664.94 72.88 C 668.60 72.09 672.39 72.31 676.11 72.01 C 685.87 75.09 695.94 77.17 705.68 80.27 C 716.08 86.47 726.66 92.43 736.82 99.00 C 747.03 109.57 756.81 120.52 766.69 131.40 C 773.99 143.17 781.17 155.02 788.34 166.88 C 791.06 174.64 793.30 182.60 795.69 190.49 C 796.21 205.56 795.91 220.83 796.03 235.99 C 796.00 238.20 796.90 240.27 797.49 242.37 C 800.25 252.17 803.16 261.94 806.03 271.71 C 812.47 275.62 818.88 279.60 825.20 283.71 C 831.76 291.60 837.37 300.27 843.78 308.30 C 845.60 310.10 844.77 312.79 845.14 315.06 C 845.78 319.24 845.88 323.48 846.21 327.68 C 848.97 333.42 851.97 339.06 855.13 344.59 C 871.58 364.57 888.16 384.44 904.67 404.38 C 912.05 414.57 919.33 424.83 926.63 435.09 C 927.35 435.91 927.83 437.22 929.00 437.57 C 936.51 438.92 944.11 439.92 951.58 441.44 C 955.89 445.06 960.21 448.71 964.45 452.43 C 968.85 455.76 972.47 460.24 977.63 462.48 C 984.26 465.80 991.35 468.33 997.67 472.23 C 1002.74 480.95 1007.27 490.06 1011.91 499.05 C 1013.67 502.33 1012.38 506.19 1013.54 509.59 C 1013.82 514.38 1013.97 519.19 1014.62 523.95 C 1014.66 530.29 1014.65 536.64 1014.63 542.98 C 1014.73 544.73 1013.12 545.83 1011.93 546.80 C 1007.97 549.62 1003.86 552.24 1000.02 555.22 C 999.19 563.08 998.71 570.96 997.96 578.83 C 993.03 585.01 987.88 591.00 982.95 597.18 C 979.32 609.11 976.00 621.17 972.61 633.19 C 970.50 645.66 967.43 657.96 965.51 670.46 C 964.83 673.93 963.72 677.45 964.12 681.02 C 967.10 694.31 969.55 707.72 972.64 720.99 C 972.13 723.19 971.98 725.45 971.77 727.70 C 970.76 737.76 969.55 747.79 968.53 757.85 C 967.63 761.58 967.92 765.48 968.88 769.18 C 970.85 779.42 973.00 789.65 974.68 799.95 C 973.66 806.09 969.40 811.01 966.28 816.25 C 962.36 821.61 959.76 828.16 954.06 831.99 C 945.59 838.84 937.39 846.02 928.85 852.77 C 925.59 854.98 921.96 856.54 918.59 858.55 C 913.27 860.40 907.50 860.06 902.03 859.17 C 898.27 858.81 894.47 858.92 890.76 858.28 C 884.51 856.82 880.38 863.50 874.52 864.37 C 848.67 869.80 822.77 875.03 796.92 880.48 C 787.53 878.88 777.91 878.80 768.43 878.02 C 763.95 881.67 759.95 885.88 755.55 889.59 C 747.51 891.32 739.11 891.21 731.03 892.88 C 725.91 894.70 721.19 897.55 716.15 899.58 C 706.71 900.76 698.97 893.61 690.04 891.99 C 680.15 893.37 670.23 894.85 660.37 896.51 C 656.30 896.88 652.31 897.95 648.22 898.05 C 636.85 890.01 625.47 881.95 613.97 874.11 C 606.30 875.04 599.27 878.87 591.89 881.04 C 586.86 879.93 581.97 878.19 576.98 876.90 C 573.12 875.95 569.28 873.94 565.21 874.92 C 561.62 875.03 557.39 877.51 554.24 874.91 C 546.81 869.60 539.30 864.39 531.76 859.24 C 512.82 852.39 493.76 845.83 474.72 839.26 C 467.12 838.61 459.43 839.26 451.80 838.96 C 450.58 838.88 449.46 838.40 448.64 837.51 C 444.66 834.02 440.57 830.65 436.64 827.11 C 428.80 826.01 420.95 825.01 413.13 823.83 C 410.42 822.59 407.37 821.57 405.44 819.17 C 400.70 813.42 395.94 807.68 390.97 802.12 C 379.32 800.32 367.72 798.06 356.14 795.83 C 351.19 793.62 346.61 790.60 341.73 788.24 C 340.19 787.54 338.84 786.50 337.75 785.23 C 330.61 776.14 323.49 767.04 316.33 757.97 C 311.62 753.18 306.29 749.06 301.44 744.43 C 298.97 742.68 297.18 739.84 294.07 739.18 C 281.14 735.19 268.54 730.19 255.56 726.43 C 241.83 724.66 228.12 722.59 214.38 720.93 C 212.27 718.54 209.74 716.56 207.86 713.99 C 205.48 710.87 202.15 708.46 200.24 705.03 C 199.10 697.80 197.67 690.58 196.94 683.31 C 192.36 678.74 186.70 675.42 182.07 670.93 C 181.76 669.02 181.26 667.17 180.86 665.29 C 172.62 658.16 163.46 652.13 154.81 645.50 C 149.40 641.48 144.07 637.37 138.60 633.43 C 135.65 631.31 134.71 627.67 133.31 624.52 C 127.70 611.68 121.92 598.91 116.35 586.05 C 116.17 582.68 117.38 579.47 118.08 576.23 C 120.00 567.09 122.27 558.03 124.16 548.89 C 124.61 546.64 124.29 544.34 124.09 542.10 C 123.63 536.33 124.60 530.48 123.46 524.78 C 123.03 520.92 123.75 517.01 123.18 513.17 C 114.70 504.30 105.78 495.85 97.26 487.02 C 98.83 481.18 97.61 474.92 98.00 468.92 C 89.52 458.38 81.25 447.67 72.79 437.11 C 71.09 433.48 71.42 429.12 69.61 425.51 C 59.09 416.66 48.36 408.01 37.82 399.17 C 31.12 390.81 24.68 382.24 18.05 373.84 C 16.89 368.24 14.11 362.67 15.29 356.86 C 16.68 348.60 17.60 340.28 19.01 332.03 C 19.18 329.02 17.23 326.57 16.18 323.90 C 14.44 319.35 12.20 315.01 10.36 310.49 C 10.36 306.50 10.36 302.52 10.36 298.53 C 13.27 292.65 18.41 288.44 22.61 283.55 C 28.33 277.57 33.57 271.11 39.72 265.55 C 46.08 264.91 52.53 265.83 58.88 265.13 C 64.51 263.06 70.19 261.10 75.75 258.84 C 85.52 249.61 95.97 241.08 105.88 231.98 C 107.99 218.59 110.78 205.27 113.46 191.98 C 110.38 182.03 107.75 171.91 104.31 162.08 C 109.26 149.38 114.05 136.52 118.76 123.69 C 119.28 117.86 118.89 111.95 118.98 106.08 C 119.47 105.66 120.45 104.81 120.95 104.39 C 126.34 104.36 131.73 102.45 137.08 103.93 C 150.71 107.22 164.26 110.87 177.94 113.97 C 180.77 114.50 182.69 111.76 185.11 110.80 C 193.46 105.46 202.74 101.90 211.75 97.85 C 217.19 91.80 220.98 84.38 226.38 78.30 C 239.20 69.12 252.14 60.11 265.00 50.98 C 276.03 42.43 287.07 33.88 298.11 25.36 C 311.38 21.10 324.84 17.43 338.16 13.31 C 341.19 12.45 344.34 13.45 347.42 13.49 C 354.56 14.69 361.89 14.72 369.04 16.01 M 371.34 17.40 C 366.22 18.39 361.06 16.44 355.91 16.45 C 350.97 15.64 345.95 15.60 341.03 14.63 C 328.76 17.89 316.60 21.92 304.33 25.35 C 302.15 26.13 299.74 26.40 297.80 27.72 C 290.01 33.82 282.22 39.93 274.35 45.94 C 267.67 51.84 260.15 56.65 252.96 61.88 C 248.03 65.13 243.44 68.87 238.39 71.92 L 238.38 72.24 C 234.52 74.64 230.63 77.10 227.17 80.06 C 222.04 86.03 218.38 93.19 213.14 99.05 C 206.23 102.68 198.87 105.40 191.90 108.91 C 188.18 111.25 184.27 113.27 180.61 115.69 C 176.63 116.17 172.95 114.45 169.12 113.76 C 159.83 111.96 150.84 108.73 141.48 107.37 L 141.48 107.18 C 140.39 107.00 139.30 106.84 138.23 106.57 C 132.61 104.74 126.70 106.20 121.00 106.80 C 120.96 112.58 121.11 118.35 120.95 124.13 C 119.44 129.01 117.37 133.74 115.66 138.57 C 112.49 146.32 110.22 154.48 106.48 161.96 C 108.23 165.13 108.76 168.75 109.89 172.15 C 111.75 178.77 114.18 185.27 115.58 191.98 C 113.21 205.64 110.19 219.20 107.91 232.88 C 98.52 241.50 88.80 249.75 79.29 258.24 C 75.20 263.04 68.46 263.48 63.03 266.05 C 58.17 268.50 52.62 267.55 47.39 267.50 L 47.39 267.84 C 44.99 267.23 42.51 267.39 40.06 267.51 C 33.21 274.52 26.69 281.86 20.08 289.09 C 17.12 292.12 13.86 295.22 12.51 299.34 C 12.32 302.95 12.25 306.61 12.58 310.22 C 15.13 316.97 18.58 323.37 21.09 330.14 C 20.58 337.06 19.21 343.90 18.35 350.79 C 17.91 355.00 16.18 359.29 17.49 363.51 C 18.56 366.86 18.83 370.50 20.40 373.67 C 26.13 381.22 31.99 388.67 37.79 396.16 C 40.55 399.30 43.82 402.01 47.37 404.21 L 47.37 404.61 C 55.15 410.49 62.43 417.00 70.04 423.11 C 74.77 426.63 72.23 433.85 76.16 437.91 C 84.10 448.04 92.13 458.10 100.06 468.22 C 100.12 474.46 99.92 480.84 100.00 487.14 C 108.54 495.74 117.20 504.23 125.68 512.90 C 125.69 517.23 125.41 521.58 125.90 525.89 C 126.36 531.58 125.47 537.33 126.49 542.98 C 127.02 546.18 126.49 549.44 125.72 552.56 C 123.77 561.26 121.78 569.96 119.82 578.67 C 119.23 581.53 117.82 584.67 119.37 587.49 C 125.75 601.58 131.84 615.80 138.15 629.92 C 138.78 631.43 140.41 632.09 141.64 633.04 L 142.01 633.78 C 155.27 643.60 168.55 653.42 181.71 663.38 C 183.23 665.50 183.44 668.31 183.89 670.83 C 188.28 673.45 191.98 677.01 196.08 680.03 C 196.92 680.76 197.98 681.38 198.46 682.45 C 199.54 689.71 200.83 696.94 201.83 704.21 C 205.60 709.71 210.55 714.31 215.09 719.20 C 220.44 719.48 225.70 720.54 231.00 721.30 C 233.49 721.46 236.01 721.55 238.41 722.36 C 243.33 722.25 248.12 723.56 252.99 724.01 C 258.53 724.42 263.61 726.84 268.86 728.44 C 278.06 732.00 287.61 734.61 296.82 738.12 C 303.93 743.97 310.69 750.31 317.56 756.46 C 323.86 764.44 330.13 772.46 336.43 780.46 C 338.06 782.49 339.42 784.99 341.93 786.08 C 345.64 787.91 349.20 790.03 352.91 791.87 C 428.84 719.19 504.74 646.47 580.56 573.69 C 594.44 587.88 610.83 599.62 628.74 608.19 C 667.25 626.77 712.79 630.01 753.60 617.35 C 780.58 609.07 805.44 593.95 825.15 573.76 C 867.67 614.27 909.94 655.05 952.42 695.61 C 957.79 700.53 962.67 706.01 968.37 710.57 C 967.31 705.02 965.93 699.54 965.11 693.96 C 964.01 688.38 961.76 682.89 962.34 677.11 C 964.83 662.04 967.96 647.08 970.92 632.10 C 974.16 620.39 977.72 608.76 980.84 597.02 C 986.00 590.78 991.00 584.40 996.34 578.30 C 996.21 572.45 997.51 566.71 997.54 560.88 C 997.89 558.17 997.24 554.52 999.96 552.87 C 1004.18 550.13 1008.19 547.09 1012.42 544.36 C 1013.40 537.64 1011.66 530.62 1013.32 523.99 C 1011.63 521.29 1012.70 518.05 1011.98 515.12 C 1010.93 509.39 1012.22 503.13 1009.28 497.84 C 1005.03 489.71 1000.69 481.62 996.47 473.49 C 989.00 469.48 980.98 466.50 973.55 462.38 C 965.70 455.95 958.29 448.92 950.20 442.82 C 942.67 442.07 935.30 440.16 927.78 439.35 C 916.91 425.46 907.80 410.23 896.23 396.90 C 881.85 379.58 867.47 362.25 853.11 344.91 C 850.03 339.58 847.31 334.03 844.58 328.52 C 844.12 322.62 843.06 316.70 843.32 310.73 C 838.54 304.23 833.60 297.83 828.87 291.28 C 826.76 288.70 825.20 285.47 822.17 283.81 C 816.36 280.32 810.67 276.65 804.91 273.09 C 803.71 272.42 803.74 270.87 803.35 269.73 C 800.51 259.09 797.03 248.62 794.36 237.94 C 794.17 225.28 794.45 212.59 794.23 199.93 C 793.39 197.29 793.77 194.65 794.25 192.00 C 791.56 183.83 789.36 175.49 786.53 167.39 C 779.82 156.17 772.80 145.13 766.19 133.85 C 762.04 128.08 756.88 123.16 752.06 117.97 C 748.07 112.68 742.80 108.53 738.82 103.24 C 737.64 101.71 736.12 100.48 734.47 99.52 C 724.61 93.74 714.91 87.68 704.98 82.04 C 695.11 78.87 684.85 76.93 675.02 73.62 C 672.83 74.76 670.34 74.22 667.99 74.44 C 666.30 74.42 664.49 75.06 662.91 74.23 C 647.63 66.05 632.34 57.82 616.99 49.79 C 610.61 50.10 604.12 52.69 597.71 51.34 C 588.62 46.12 577.98 45.81 567.97 43.63 C 562.61 42.61 557.34 44.41 552.02 44.67 C 545.41 45.37 538.79 47.54 532.12 46.40 C 514.48 40.75 496.73 35.43 479.05 29.91 C 475.72 29.20 472.60 27.46 469.18 27.25 C 462.69 29.15 456.12 30.71 449.64 32.63 C 444.20 34.64 438.55 32.16 432.99 32.22 C 427.55 31.45 422.00 30.97 416.52 30.46 C 407.23 23.67 397.52 17.46 388.26 10.63 C 386.78 10.65 385.31 10.67 383.83 10.70 C 379.60 12.81 375.47 15.10 371.34 17.40 Z" />
</g>
<g id="#e26a02ff">
<path fill="#e26a02" opacity="1.00" d=" M 371.34 17.40 C 375.47 15.10 379.60 12.81 383.83 10.70 C 385.31 10.67 386.78 10.65 388.26 10.63 C 397.52 17.46 407.23 23.67 416.52 30.46 C 422.00 30.97 427.55 31.45 432.99 32.22 C 438.55 32.16 444.20 34.64 449.64 32.63 C 456.12 30.71 462.69 29.15 469.18 27.25 C 472.60 27.46 475.72 29.20 479.05 29.91 C 496.73 35.43 514.48 40.75 532.12 46.40 C 538.79 47.54 545.41 45.37 552.02 44.67 C 557.34 44.41 562.61 42.61 567.97 43.63 C 577.98 45.81 588.62 46.12 597.71 51.34 C 604.12 52.69 610.61 50.10 616.99 49.79 C 632.34 57.82 647.63 66.05 662.91 74.23 C 664.49 75.06 666.30 74.42 667.99 74.44 C 670.34 74.22 672.83 74.76 675.02 73.62 C 684.85 76.93 695.11 78.87 704.98 82.04 C 714.91 87.68 724.61 93.74 734.47 99.52 C 736.12 100.48 737.64 101.71 738.82 103.24 C 742.80 108.53 748.07 112.68 752.06 117.97 C 756.88 123.16 762.04 128.08 766.19 133.85 C 772.80 145.13 779.82 156.17 786.53 167.39 C 789.36 175.49 791.56 183.83 794.25 192.00 C 793.77 194.65 793.39 197.29 794.23 199.93 C 794.45 212.59 794.17 225.28 794.36 237.94 C 797.03 248.62 800.51 259.09 803.35 269.73 C 803.74 270.87 803.71 272.42 804.91 273.09 C 810.67 276.65 816.36 280.32 822.17 283.81 C 825.20 285.47 826.76 288.70 828.87 291.28 C 833.60 297.83 838.54 304.23 843.32 310.73 C 843.06 316.70 844.12 322.62 844.58 328.52 C 847.31 334.03 850.03 339.58 853.11 344.91 C 867.47 362.25 881.85 379.58 896.23 396.90 C 907.80 410.23 916.91 425.46 927.78 439.35 C 935.30 440.16 942.67 442.07 950.20 442.82 C 958.29 448.92 965.70 455.95 973.55 462.38 C 980.98 466.50 989.00 469.48 996.47 473.49 C 1000.69 481.62 1005.03 489.71 1009.28 497.84 C 1012.22 503.13 1010.93 509.39 1011.98 515.12 C 1012.70 518.05 1011.63 521.29 1013.32 523.99 C 1011.66 530.62 1013.40 537.64 1012.42 544.36 C 1008.19 547.09 1004.18 550.13 999.96 552.87 C 997.24 554.52 997.89 558.17 997.54 560.88 C 997.51 566.71 996.21 572.45 996.34 578.30 C 991.00 584.40 986.00 590.78 980.84 597.02 C 977.72 608.76 974.16 620.39 970.92 632.10 C 967.96 647.08 964.83 662.04 962.34 677.11 C 961.76 682.89 964.01 688.38 965.11 693.96 C 965.93 699.54 967.31 705.02 968.37 710.57 C 962.67 706.01 957.79 700.53 952.42 695.61 C 909.94 655.05 867.67 614.27 825.15 573.76 C 845.75 552.54 860.96 526.03 868.09 497.29 C 877.50 460.07 873.65 419.62 857.05 384.98 C 850.42 371.01 841.86 357.97 831.66 346.35 C 803.40 313.07 761.41 292.18 718.01 288.56 C 709.78 288.02 701.51 287.17 693.28 288.21 C 651.06 290.25 609.85 308.85 580.48 339.27 C 478.46 241.46 376.51 143.60 274.35 45.94 C 282.22 39.93 290.01 33.82 297.80 27.72 C 299.74 26.40 302.15 26.13 304.33 25.35 C 316.60 21.92 328.76 17.89 341.03 14.63 C 345.95 15.60 350.97 15.64 355.91 16.45 C 361.06 16.44 366.22 18.39 371.34 17.40 Z" />
<path fill="#e26a02" opacity="1.00" d=" M 227.17 80.06 C 230.63 77.10 234.52 74.64 238.38 72.24 C 238.37 288.95 238.32 505.66 238.41 722.36 C 236.01 721.55 233.49 721.46 231.00 721.30 C 225.70 720.54 220.44 719.48 215.09 719.20 C 210.55 714.31 205.60 709.71 201.83 704.21 C 200.83 696.94 199.54 689.71 198.46 682.45 C 197.98 681.38 196.92 680.76 196.08 680.03 C 191.98 677.01 188.28 673.45 183.89 670.83 C 183.44 668.31 183.23 665.50 181.71 663.38 C 168.55 653.42 155.27 643.60 142.01 633.78 L 141.64 633.04 C 141.38 457.82 141.70 282.59 141.48 107.37 C 150.84 108.73 159.83 111.96 169.12 113.76 C 172.95 114.45 176.63 116.17 180.61 115.69 C 184.27 113.27 188.18 111.25 191.90 108.91 C 198.87 105.40 206.23 102.68 213.14 99.05 C 218.38 93.19 222.04 86.03 227.17 80.06 Z" />
</g>
<g id="#0272c3ff">
<path fill="#0272c3" opacity="1.00" d=" M 252.96 61.88 C 260.15 56.65 267.67 51.84 274.35 45.94 C 376.51 143.60 478.46 241.46 580.48 339.27 C 556.16 364.15 539.62 396.64 534.49 431.11 C 528.63 468.82 536.16 508.47 555.69 541.30 C 562.62 553.05 570.99 563.96 580.56 573.69 C 504.74 646.47 428.84 719.19 352.91 791.87 C 349.20 790.03 345.64 787.91 341.93 786.08 C 339.42 784.99 338.06 782.49 336.43 780.46 C 330.13 772.46 323.86 764.44 317.56 756.46 C 310.69 750.31 303.93 743.97 296.82 738.12 C 287.61 734.61 278.06 732.00 268.86 728.44 C 263.61 726.84 258.53 724.42 252.99 724.01 C 248.12 723.56 243.33 722.25 238.41 722.36 C 238.32 505.66 238.37 288.95 238.38 72.24 L 238.39 71.92 C 243.44 68.87 248.03 65.13 252.96 61.88 Z" />
<path fill="#0272c3" opacity="1.00" d=" M 20.08 289.09 C 26.69 281.86 33.21 274.52 40.06 267.51 C 42.51 267.39 44.99 267.23 47.39 267.84 C 47.30 313.30 47.34 358.76 47.37 404.21 C 43.82 402.01 40.55 399.30 37.79 396.16 C 31.99 388.67 26.13 381.22 20.40 373.67 C 18.83 370.50 18.56 366.86 17.49 363.51 C 16.18 359.29 17.91 355.00 18.35 350.79 C 19.21 343.90 20.58 337.06 21.09 330.14 C 18.58 323.37 15.13 316.97 12.58 310.22 C 12.25 306.61 12.32 302.95 12.51 299.34 C 13.86 295.22 17.12 292.12 20.08 289.09 Z" />
</g>
</svg>
