<?xml version="1.0" encoding="UTF-8" ?>
<!DOCTYPE svg PUBLIC "-//W3C//DTD SVG 1.1//EN" "http://www.w3.org/Graphics/SVG/1.1/DTD/svg11.dtd">
<svg width="1000pt" height="1036pt" viewBox="0 0 1000 1036" version="1.1" xmlns="http://www.w3.org/2000/svg">
<g id="#009c48fc">
<path fill="#009c48" opacity="1.00" d=" M 153.96 5.93 C 157.29 5.96 158.99 2.35 161.98 1.55 C 165.14 1.98 168.15 3.41 170.76 5.22 C 173.43 7.88 173.88 11.90 175.88 14.99 C 178.35 17.99 182.15 19.68 184.26 23.02 C 185.47 25.19 186.19 27.58 187.04 29.91 C 187.25 30.49 187.67 31.66 187.88 32.25 C 189.73 33.78 191.55 35.50 193.86 36.33 C 196.79 36.74 198.84 34.53 200.93 32.91 C 203.00 31.04 206.03 32.02 208.47 31.19 C 210.33 30.29 211.90 28.83 213.90 28.22 C 215.08 28.52 216.23 28.94 217.38 29.35 C 218.41 31.64 219.16 34.19 220.94 36.03 C 222.49 37.49 224.65 35.84 226.42 35.75 C 226.50 36.47 226.68 37.91 226.76 38.63 C 231.68 39.68 236.07 42.26 240.93 43.48 C 244.07 44.62 246.56 47.01 249.64 48.27 C 252.33 48.35 255.53 44.44 257.90 47.16 C 260.55 50.44 264.93 51.27 267.97 54.03 C 272.96 63.46 279.46 72.17 287.44 79.29 C 287.51 79.35 287.64 79.46 287.70 79.51 C 291.66 82.91 296.10 85.62 300.31 88.66 C 304.66 93.62 308.82 99.20 315.11 101.83 C 317.91 102.89 318.98 106.16 321.73 107.27 C 324.24 108.33 326.85 109.24 329.03 110.94 C 330.87 111.19 332.75 111.27 334.56 111.75 C 336.78 113.38 338.29 115.83 340.69 117.25 C 342.98 118.66 345.43 119.85 347.58 121.50 C 350.86 124.21 355.79 121.11 359.10 123.92 C 359.31 124.46 359.73 125.53 359.94 126.07 C 362.64 127.32 364.44 129.69 366.56 131.67 C 370.38 133.19 375.81 130.46 378.72 134.31 C 380.86 137.84 379.93 142.42 382.23 145.96 C 307.54 195.77 232.90 245.66 158.11 295.33 C 155.68 294.12 153.42 292.60 151.13 291.15 C 150.62 290.80 149.59 290.12 149.08 289.78 C 143.73 287.24 137.74 286.45 132.49 283.67 C 130.13 282.44 127.72 281.22 125.05 280.86 C 121.74 280.55 119.31 278.14 116.59 276.52 C 113.14 274.28 109.13 272.77 106.28 269.70 C 101.80 264.86 97.33 259.99 92.56 255.43 C 89.10 251.98 84.07 250.75 80.63 247.28 C 77.83 243.64 76.60 238.98 73.39 235.62 C 67.60 230.04 59.85 227.28 53.48 222.50 C 51.48 219.74 52.37 216.23 53.41 213.30 C 55.33 208.40 52.38 203.31 49.19 199.69 C 47.82 196.91 46.91 193.87 44.63 191.61 C 44.58 191.54 44.47 191.38 44.42 191.31 C 44.09 190.71 43.42 189.53 43.08 188.94 C 42.72 188.45 42.00 187.49 41.64 187.00 C 40.19 185.97 38.64 185.02 37.49 183.64 C 35.78 180.53 35.71 176.52 32.96 174.01 C 28.48 169.94 23.61 166.17 17.87 164.06 C 12.14 160.64 5.84 158.18 0.61 153.96 C 0.50 149.55 1.04 145.16 1.84 140.83 C 2.67 138.24 3.68 135.68 4.03 132.97 C 4.13 130.42 2.92 127.95 3.44 125.38 C 4.13 120.86 4.38 116.29 5.15 111.78 C 3.89 109.35 2.33 106.85 2.65 103.98 C 2.23 99.78 5.49 96.79 7.69 93.67 C 9.12 91.83 8.61 89.30 8.98 87.14 C 9.14 86.54 9.46 85.34 9.62 84.74 C 11.24 82.83 14.13 82.58 15.76 80.91 C 16.31 76.16 16.07 70.86 19.86 67.28 C 23.68 67.37 27.85 66.56 30.31 63.35 C 32.20 60.89 34.81 59.22 37.85 58.56 C 38.00 56.50 38.13 54.44 38.27 52.39 C 39.67 51.44 41.12 50.56 42.38 49.41 C 45.26 46.73 44.00 41.79 47.33 39.44 C 48.80 37.86 51.11 38.38 53.01 38.08 C 55.64 38.12 57.74 36.25 59.49 34.51 C 62.03 31.91 61.40 27.49 64.22 25.14 C 66.52 25.39 68.66 26.89 71.00 26.55 C 73.54 25.45 75.87 23.94 78.26 22.58 L 78.43 22.48 L 78.56 22.33 C 79.53 21.30 80.40 20.17 81.48 19.24 C 85.84 17.92 90.57 18.69 94.77 20.28 C 99.75 21.95 104.94 20.37 109.58 18.44 C 113.71 16.78 118.03 15.67 122.22 14.19 C 123.59 12.94 123.84 10.92 124.58 9.28 C 126.08 8.57 127.59 7.88 129.11 7.20 C 129.63 6.86 130.65 6.18 131.16 5.84 C 136.26 3.59 141.92 4.54 147.09 2.87 C 149.25 4.11 151.24 6.33 153.96 5.93 Z" />
</g>
<g id="#000000ff">
<path fill="#000000" opacity="1.00" d=" M 129.11 7.20 C 129.63 6.86 130.65 6.18 131.16 5.84 C 130.65 6.18 129.63 6.86 129.11 7.20 Z" />
<path fill="#000000" opacity="1.00" d=" M 78.26 22.58 C 78.34 22.52 78.49 22.39 78.56 22.33 L 78.43 22.48 L 78.26 22.58 Z" />
<path fill="#000000" opacity="1.00" d=" M 187.04 29.91 C 187.25 30.49 187.67 31.66 187.88 32.25 C 187.67 31.66 187.25 30.49 187.04 29.91 Z" />
<path fill="#000000" opacity="1.00" d=" M 287.44 79.29 C 287.51 79.35 287.64 79.46 287.70 79.51 C 287.64 79.46 287.51 79.35 287.44 79.29 Z" />
<path fill="#000000" opacity="1.00" d=" M 8.98 87.14 C 9.14 86.54 9.46 85.34 9.62 84.74 C 9.46 85.34 9.14 86.54 8.98 87.14 Z" />
<path fill="#000000" opacity="1.00" d=" M 359.10 123.92 C 359.31 124.46 359.73 125.53 359.94 126.07 C 359.73 125.53 359.31 124.46 359.10 123.92 Z" />
<path fill="#000000" opacity="1.00" d=" M 0.00 146.37 C 0.59 144.51 1.21 142.67 1.84 140.83 C 1.04 145.16 0.50 149.55 0.61 153.96 L 0.00 153.64 L 0.00 146.37 Z" />
<path fill="#000000" opacity="1.00" d=" M 41.64 187.00 C 42.00 187.49 42.72 188.45 43.08 188.94 C 42.72 188.45 42.00 187.49 41.64 187.00 Z" />
<path fill="#000000" opacity="1.00" d=" M 44.42 191.31 C 44.47 191.38 44.58 191.54 44.63 191.61 C 44.58 191.54 44.47 191.38 44.42 191.31 Z" />
<path fill="#000000" opacity="1.00" d=" M 213.43 333.70 C 284.38 286.24 355.42 238.92 426.48 191.64 C 428.97 194.38 432.01 196.54 434.77 199.00 C 434.25 203.29 436.93 206.67 439.10 210.05 C 447.39 240.04 455.94 269.96 464.26 299.94 C 434.85 319.47 405.53 339.14 376.10 358.65 C 411.39 360.00 446.67 361.48 481.96 362.89 C 488.59 386.09 494.86 409.40 501.66 432.55 C 501.45 432.65 501.02 432.85 500.80 432.95 C 493.22 433.23 487.90 427.37 481.94 423.69 C 480.87 419.80 478.45 416.57 475.18 414.24 C 472.50 416.30 470.54 419.06 468.99 422.03 C 466.21 419.80 468.99 417.15 470.61 415.32 C 471.58 414.56 472.51 413.75 473.38 412.86 C 472.68 411.54 472.00 410.22 471.34 408.89 C 473.04 405.09 473.33 399.20 468.83 397.26 C 458.93 394.12 448.44 394.65 438.20 393.95 C 438.28 397.00 437.84 400.04 435.83 402.45 C 432.68 402.41 429.53 402.45 426.39 402.52 C 426.21 400.43 425.97 398.34 425.23 396.37 C 424.59 397.94 424.03 399.54 423.52 401.16 C 423.43 399.16 423.33 397.15 423.25 395.16 C 422.10 396.01 420.99 396.91 419.79 397.70 C 419.62 397.14 419.28 396.02 419.11 395.46 C 413.75 397.01 407.89 397.90 403.44 401.51 C 401.27 402.95 402.80 406.23 400.94 407.91 C 398.67 409.96 396.21 412.63 392.91 412.55 C 391.39 410.42 391.53 407.03 388.88 405.83 C 385.72 404.79 382.27 405.82 379.68 407.74 C 377.79 409.33 375.21 408.93 372.93 409.11 C 372.32 408.46 371.71 407.83 371.11 407.20 C 369.46 406.89 367.82 406.62 366.18 406.38 C 365.84 404.45 366.73 401.29 364.16 400.65 C 358.99 398.21 353.29 399.88 347.87 398.97 C 340.61 398.30 333.33 399.48 326.10 398.66 C 323.16 399.04 320.26 399.73 317.32 400.09 C 315.93 397.82 314.54 395.19 311.78 394.42 C 306.89 392.17 301.93 395.29 297.00 395.51 C 294.19 395.59 292.26 393.29 290.15 391.82 C 285.26 388.28 278.69 387.63 273.15 389.98 C 268.29 387.77 272.66 381.01 268.13 378.83 C 265.29 377.37 262.42 375.95 259.63 374.39 C 256.64 372.64 252.95 372.89 249.98 371.13 C 247.35 369.59 244.76 367.90 241.81 367.04 C 237.95 365.64 233.82 368.39 230.01 366.75 C 227.26 360.93 226.09 354.22 221.81 349.20 C 220.27 347.33 217.91 346.56 215.66 345.98 C 214.74 343.39 215.01 340.63 214.79 337.95 C 214.17 335.47 212.96 333.18 212.06 330.79 C 212.51 331.76 212.97 332.73 213.43 333.70 Z" />
<path fill="#000000" opacity="1.00" d=" M 149.08 289.78 C 149.59 290.12 150.62 290.80 151.13 291.15 C 150.62 290.80 149.59 290.12 149.08 289.78 Z" />
<path fill="#000000" opacity="1.00" d=" M 546.07 369.11 C 546.60 369.30 547.66 369.67 548.19 369.85 C 548.03 373.99 545.79 377.79 545.36 381.94 C 547.50 384.71 549.87 387.37 553.05 388.99 C 550.58 392.64 548.37 397.85 552.54 401.22 C 551.08 406.96 548.94 413.08 550.89 418.98 C 552.24 423.72 556.68 428.02 561.87 427.45 C 563.04 426.50 564.09 425.39 565.17 424.33 C 566.71 425.00 568.27 425.68 569.83 426.34 C 570.27 428.20 570.72 430.08 571.14 431.95 C 570.98 433.26 569.35 435.10 570.86 436.13 C 574.80 438.88 577.09 443.24 580.66 446.37 C 583.54 448.99 587.90 449.71 589.90 453.31 C 591.26 455.59 594.21 454.82 596.44 455.21 C 596.52 455.84 596.68 457.11 596.76 457.75 C 595.72 456.93 594.67 456.11 593.63 455.31 C 590.03 457.92 586.32 460.36 582.63 462.82 C 583.68 463.45 584.70 464.12 585.72 464.84 C 578.49 461.79 571.45 458.25 564.06 455.62 C 560.63 454.30 556.55 457.03 553.50 454.46 C 549.49 451.53 545.09 449.01 541.63 445.41 C 539.67 443.37 541.24 438.91 537.96 438.08 C 532.79 436.28 527.54 434.25 521.99 434.26 C 529.92 412.50 538.00 390.81 546.07 369.11 Z" />
</g>
<g id="#fcd116ff">
<path fill="#fcd116" opacity="1.00" d=" M 158.11 295.33 C 232.90 245.66 307.54 195.77 382.23 145.96 C 384.18 151.12 391.26 146.76 393.62 151.38 C 394.56 152.93 396.20 153.68 397.79 154.40 C 398.89 157.39 398.88 161.16 401.60 163.25 C 405.04 166.27 408.75 168.94 412.54 171.51 C 414.74 173.81 417.08 176.01 419.69 177.85 C 420.24 180.21 420.52 182.63 421.16 184.98 C 422.43 185.76 423.84 186.27 425.19 186.91 C 425.31 188.56 425.45 190.26 426.48 191.64 C 355.42 238.92 284.38 286.24 213.43 333.70 C 212.97 332.73 212.51 331.76 212.06 330.79 C 210.29 326.35 207.48 322.37 203.91 319.19 C 200.46 315.61 195.67 313.98 191.38 311.68 C 186.03 309.59 181.68 305.64 176.38 303.45 C 170.24 300.84 164.43 297.51 158.11 295.33 Z" />
<path fill="#fcd116" opacity="1.00" d=" M 582.63 462.82 C 586.32 460.36 590.03 457.92 593.63 455.31 C 594.67 456.11 595.72 456.93 596.76 457.75 C 600.59 457.87 604.29 459.24 608.13 459.03 C 609.25 462.31 611.87 464.63 613.59 467.56 C 616.27 472.70 624.65 470.53 626.68 476.29 C 628.15 479.99 630.64 483.11 633.43 485.90 C 633.04 488.04 632.58 490.19 631.69 492.20 C 634.42 493.55 637.14 494.96 639.62 496.75 C 641.86 496.24 644.08 495.66 646.30 495.05 C 639.06 500.44 631.57 505.57 623.74 510.06 C 623.87 505.15 621.76 500.31 618.01 497.12 C 614.11 493.96 613.15 488.68 609.77 485.12 C 604.76 480.14 600.71 473.98 594.37 470.54 C 591.30 468.92 588.47 466.92 585.72 464.84 C 584.70 464.12 583.68 463.45 582.63 462.82 Z" />
</g>
<g id="#ffffffff">
<path fill="#ffffff" opacity="1.00" d=" M 439.10 210.05 C 444.48 219.01 451.64 226.68 458.65 234.37 C 462.54 238.30 465.39 243.55 470.57 246.00 C 475.12 252.79 479.20 260.20 486.03 265.03 C 489.80 267.24 489.10 272.09 490.69 275.62 C 494.44 285.16 498.09 294.75 501.75 304.33 C 503.29 308.99 507.22 312.22 510.11 316.03 C 515.89 323.51 523.11 329.81 528.14 337.88 C 526.75 340.56 524.73 343.01 524.22 346.07 C 524.29 352.85 526.65 359.57 531.42 364.46 C 533.35 366.01 535.21 368.14 537.83 368.42 C 540.55 368.84 543.31 368.99 546.07 369.11 C 538.00 390.81 529.92 412.50 521.99 434.26 C 517.15 435.01 512.91 432.28 508.22 431.77 C 505.97 430.64 503.66 431.15 501.66 432.55 C 494.86 409.40 488.59 386.09 481.96 362.89 C 446.67 361.48 411.39 360.00 376.10 358.65 C 405.53 339.14 434.85 319.47 464.26 299.94 C 455.94 269.96 447.39 240.04 439.10 210.05 Z" />
</g>
<g id="#cb1025fc">
<path fill="#cb1025" opacity="1.00" d=" M 646.30 495.05 L 647.23 494.79 C 651.53 498.11 656.49 501.85 656.89 507.76 C 658.59 509.02 660.31 510.27 662.02 511.54 C 663.44 511.14 664.86 510.74 666.29 510.36 C 668.45 514.29 670.11 518.53 673.07 521.97 C 675.62 524.50 673.83 528.22 672.99 531.14 C 673.95 532.71 674.86 534.49 676.66 535.26 C 680.12 537.72 684.20 535.20 687.60 533.93 C 689.40 528.12 690.71 522.06 693.83 516.76 C 699.16 519.90 702.63 525.38 708.04 528.40 C 712.92 529.80 718.02 530.91 722.33 533.76 C 723.17 533.68 724.84 533.53 725.68 533.46 C 726.13 535.35 725.75 537.24 725.09 539.04 C 725.50 540.13 725.93 541.24 726.38 542.34 C 732.29 544.64 734.16 551.92 734.17 557.68 C 735.00 558.03 735.85 558.40 736.70 558.77 C 736.19 561.67 737.80 564.27 738.77 566.89 C 735.63 569.75 733.09 573.15 730.31 576.32 C 726.15 578.38 721.16 579.32 718.00 582.97 C 715.41 586.09 716.02 590.39 717.07 594.00 C 717.73 594.05 719.07 594.15 719.73 594.20 C 721.04 595.62 722.40 597.02 723.80 598.38 C 724.25 599.91 724.72 601.47 725.23 603.00 C 724.38 605.27 723.94 608.13 721.52 609.30 C 718.09 611.51 713.95 610.06 710.24 609.68 C 709.18 606.47 708.56 603.10 707.09 600.05 C 700.70 597.88 693.05 601.27 689.76 607.01 C 689.01 606.84 687.51 606.48 686.75 606.30 C 682.40 609.87 680.14 615.51 680.89 621.11 C 679.38 622.38 677.70 623.44 675.95 624.36 C 673.66 621.13 672.34 616.61 667.97 615.66 C 666.49 612.85 666.30 607.54 662.03 607.92 C 655.76 607.18 650.20 610.85 646.05 615.14 C 643.40 619.12 645.84 623.81 646.22 628.05 C 645.92 631.21 645.81 634.46 644.73 637.48 C 646.12 640.02 648.23 642.80 647.18 645.87 C 644.73 648.59 641.66 650.68 638.86 653.01 C 637.34 653.10 635.84 652.86 634.35 652.77 C 633.95 652.37 633.15 651.58 632.75 651.18 C 631.02 651.32 629.29 651.46 627.58 651.60 C 627.27 650.25 626.98 648.91 626.69 647.58 C 624.42 645.73 622.34 643.67 620.33 641.55 C 622.07 637.96 624.53 634.67 625.68 630.83 C 625.66 627.60 623.04 625.06 622.59 621.88 C 622.55 620.10 620.97 619.51 619.56 618.99 C 619.98 616.21 621.69 612.93 619.67 610.40 C 616.43 607.63 612.15 606.32 607.91 606.45 C 607.01 602.45 606.01 598.26 607.30 594.22 C 607.77 592.44 609.71 591.96 611.13 591.17 C 615.59 589.27 619.52 586.29 622.88 582.82 C 625.49 579.96 624.70 575.76 626.10 572.39 C 628.02 569.29 630.89 566.99 633.57 564.59 C 633.62 562.74 633.67 560.90 633.75 559.06 C 634.86 558.54 636.00 558.05 637.12 557.54 C 635.52 556.89 633.92 556.26 632.32 555.63 C 631.60 554.63 630.89 553.63 630.19 552.65 C 627.28 552.95 624.38 553.24 621.48 553.56 C 621.23 552.05 620.76 550.54 620.85 549.01 C 622.67 543.68 628.28 540.95 630.60 535.95 C 630.78 532.02 628.79 528.50 626.25 525.67 C 624.49 524.17 625.70 521.98 626.03 520.15 C 622.37 518.18 622.14 513.48 623.74 510.06 C 631.57 505.57 639.06 500.44 646.30 495.05 Z" />
<path fill="#cb1025" opacity="1.00" d=" M 770.53 607.55 C 771.97 606.00 773.86 608.03 772.45 609.44 C 771.42 611.27 768.73 608.71 770.53 607.55 Z" />
<path fill="#cb1025" opacity="1.00" d=" M 827.17 671.18 C 829.58 670.25 832.21 668.66 834.85 669.74 C 837.74 671.38 840.44 673.71 843.91 673.97 C 847.06 674.55 849.95 672.97 852.95 672.35 C 856.09 671.64 859.13 670.58 862.13 669.40 C 868.17 672.86 874.44 675.90 880.73 678.90 C 881.52 681.01 882.45 683.20 884.29 684.64 C 888.10 687.41 890.36 691.78 891.77 696.18 C 893.04 698.51 896.02 698.63 898.16 699.78 C 898.83 702.64 899.28 706.12 902.25 707.58 C 903.99 708.75 905.43 706.97 906.99 706.37 C 908.35 707.03 909.60 707.93 911.03 708.52 C 915.42 708.52 919.68 707.03 924.08 707.07 C 927.63 709.43 931.71 710.48 935.89 711.16 C 939.83 713.45 938.82 718.15 938.07 721.83 C 939.75 725.08 944.29 723.88 945.91 727.12 C 947.68 730.89 947.65 736.03 951.41 738.61 C 955.17 740.76 957.69 744.35 960.89 747.18 C 962.58 748.59 963.24 750.77 964.45 752.56 C 965.71 753.94 967.68 754.50 968.87 755.98 C 969.47 760.36 969.48 764.89 967.80 769.05 C 967.85 771.88 971.76 771.70 972.60 774.01 C 972.63 776.77 972.17 779.58 970.75 782.00 C 971.02 787.05 970.44 792.16 971.46 797.16 C 972.29 801.73 972.12 806.60 974.37 810.81 C 976.35 815.02 980.68 818.70 979.46 823.82 C 978.37 828.19 978.50 832.84 976.88 837.06 C 977.90 845.08 977.72 853.73 982.21 860.79 C 984.79 863.49 986.30 867.17 986.35 870.91 C 986.47 874.04 983.98 876.29 982.79 878.98 C 981.33 881.13 982.74 883.64 982.65 885.99 C 981.82 888.08 978.82 888.57 978.51 891.01 C 977.31 893.95 980.36 895.88 981.79 898.01 C 981.48 900.36 980.59 902.58 980.10 904.90 C 979.85 907.25 980.34 909.63 979.98 911.98 C 979.44 913.42 977.76 913.95 976.79 915.04 C 976.53 917.50 977.36 920.13 976.36 922.49 C 974.77 924.62 971.10 924.36 970.19 927.17 C 968.58 932.11 968.76 937.42 968.35 942.55 C 968.15 944.10 966.69 944.97 965.75 946.06 C 966.89 951.31 962.51 955.26 961.52 960.11 C 961.12 961.89 962.29 963.43 962.75 965.09 C 962.01 966.92 958.98 966.75 958.84 969.07 C 957.89 972.61 955.36 975.37 953.21 978.25 C 951.40 979.85 948.87 980.42 947.12 982.14 C 944.53 984.10 943.50 987.28 941.80 989.92 C 939.01 990.99 935.88 990.77 933.03 990.06 C 928.53 992.11 924.61 987.78 920.09 988.03 C 914.92 988.24 909.48 988.30 904.82 990.82 C 902.02 992.46 899.59 994.62 897.12 996.69 C 893.32 995.91 890.78 999.47 887.15 999.65 C 884.11 1000.07 881.00 998.90 878.03 1000.00 C 875.45 1000.84 872.68 1000.53 870.09 1001.17 C 867.56 1003.36 865.57 1006.32 862.17 1007.27 C 861.17 1006.94 860.18 1006.62 859.19 1006.32 C 856.62 1007.11 853.41 1006.32 851.44 1008.48 C 850.03 1009.75 848.72 1011.12 847.37 1012.46 C 846.54 1012.17 844.86 1011.58 844.03 1011.29 C 838.83 1013.53 834.90 1017.90 831.53 1022.31 C 830.45 1023.16 829.25 1023.83 828.10 1024.58 C 823.60 1023.43 818.94 1023.75 814.35 1023.56 C 813.10 1027.62 808.60 1028.96 804.84 1029.42 C 802.18 1030.22 799.69 1028.39 797.05 1028.78 C 794.03 1029.01 792.05 1025.75 789.06 1025.74 C 787.80 1025.99 786.60 1026.39 785.39 1026.76 C 783.79 1025.28 782.26 1023.75 780.60 1022.38 C 779.17 1021.80 777.58 1022.42 776.10 1022.23 C 774.16 1020.91 772.15 1019.64 770.42 1018.08 C 769.99 1015.36 770.29 1011.42 766.61 1011.08 C 766.15 1009.71 765.67 1008.32 764.36 1007.58 C 762.75 1006.50 762.60 1004.12 760.78 1003.30 C 757.74 1002.08 756.03 999.09 753.06 997.79 C 752.94 993.01 747.94 991.90 744.20 991.09 C 743.99 989.40 744.66 987.12 742.87 986.12 C 740.75 984.73 738.26 984.01 735.88 983.24 C 733.23 982.68 731.21 984.89 729.11 986.10 C 728.10 985.11 727.11 984.15 726.13 983.18 C 727.38 983.74 728.47 984.93 729.94 984.86 C 731.83 983.88 733.64 982.65 735.00 981.00 C 735.57 978.65 734.85 976.19 735.33 973.83 C 736.31 968.62 731.46 964.97 729.64 960.53 C 729.03 958.01 726.82 956.34 726.03 953.91 C 725.38 951.21 721.90 950.66 721.19 948.05 C 720.08 944.40 718.25 940.67 719.21 936.78 C 717.77 934.32 715.87 932.02 715.50 929.11 C 715.27 926.73 712.92 925.68 711.04 924.81 C 708.60 923.75 706.85 921.69 705.07 919.82 C 706.81 914.92 702.20 911.08 702.13 906.33 C 704.95 905.67 708.67 907.47 710.78 904.80 C 713.76 900.08 713.44 894.05 711.60 888.96 C 710.70 888.78 709.81 888.61 708.93 888.45 C 710.15 888.26 711.38 888.08 712.62 887.92 C 712.84 882.29 711.96 876.59 712.77 871.01 C 714.35 868.09 715.37 864.52 718.44 862.80 C 719.20 856.42 716.94 850.32 716.33 844.06 C 716.43 837.94 714.32 832.11 713.80 826.07 C 713.78 820.67 714.84 815.33 714.65 809.94 C 715.06 802.50 716.55 795.14 718.77 788.04 C 719.33 783.72 721.33 779.83 722.74 775.76 C 725.85 766.92 729.83 758.23 735.93 751.04 C 738.72 746.85 742.23 743.25 745.44 739.42 C 746.98 737.63 744.46 735.51 745.71 733.74 C 747.43 730.92 749.55 728.26 749.80 724.82 C 748.61 723.73 747.44 722.66 746.27 721.58 C 748.28 719.05 750.19 716.45 752.20 713.93 C 754.16 711.23 758.02 710.78 759.85 707.96 C 761.17 704.95 761.94 701.63 763.87 698.92 C 768.91 697.35 771.47 691.18 770.13 686.33 C 768.63 685.97 767.09 685.57 766.21 684.21 C 769.02 682.43 772.09 680.95 774.42 678.51 C 776.00 676.97 777.48 674.80 779.98 674.93 C 783.21 674.50 784.93 678.29 788.08 678.38 C 793.71 678.56 799.55 679.25 805.00 677.37 C 809.41 675.82 814.25 675.65 818.42 673.41 C 821.09 671.84 824.38 672.43 827.17 671.18 Z" />
</g>
</svg>
