<?xml version="1.0" encoding="UTF-8" standalone="no"?>
<svg
   xmlns:dc="http://purl.org/dc/elements/1.1/"
   xmlns:cc="http://creativecommons.org/ns#"
   xmlns:rdf="http://www.w3.org/1999/02/22-rdf-syntax-ns#"
   xmlns:svg="http://www.w3.org/2000/svg"
   xmlns="http://www.w3.org/2000/svg"
   xmlns:sodipodi="http://sodipodi.sourceforge.net/DTD/sodipodi-0.dtd"
   xmlns:inkscape="http://www.inkscape.org/namespaces/inkscape"
   width="299.26953"
   height="600"
   viewBox="0 0 149.63477 300"
   id="svg2"
   version="1.1"
   inkscape:version="0.91 r13725"
   sodipodi:docname="Flag_of_Saint_Lucia.svg">
  <metadata
     id="metadata16">
    <rdf:RDF>
      <cc:Work
         rdf:about="">
        <dc:format>image/svg+xml</dc:format>
        <dc:type
           rdf:resource="http://purl.org/dc/dcmitype/StillImage" />
        <dc:title></dc:title>
      </cc:Work>
    </rdf:RDF>
  </metadata>
  <defs
     id="defs14" />
  <sodipodi:namedview
     pagecolor="#ffffff"
     bordercolor="#666666"
     borderopacity="1"
     objecttolerance="10"
     gridtolerance="10"
     guidetolerance="10"
     inkscape:pageopacity="0"
     inkscape:pageshadow="2"
     inkscape:window-width="1600"
     inkscape:window-height="837"
     id="namedview12"
     showgrid="false"
     fit-margin-top="0"
     fit-margin-left="0"
     fit-margin-right="0"
     fit-margin-bottom="0"
     inkscape:zoom="0.97763719"
     inkscape:cx="177.56726"
     inkscape:cy="261.63354"
     inkscape:window-x="-8"
     inkscape:window-y="-8"
     inkscape:window-maximized="1"
     inkscape:current-layer="svg2" />
  <path
     style="fill:#ffffff;stroke:#66ccff;stroke-width:0.64999998;stroke-miterlimit:4;stroke-dasharray:none;stroke-opacity:1"
     d="m 76.104495,31.857422 c -0.09373,-5.5e-4 -0.18489,0.0038 -0.26953,0.01074 -0.31045,0.187007 -0.35917,0.504757 -0.42969,0.825195 -0.008,0.03773 -0.05398,0.176955 -0.05469,0.205078 -0.002,0.07171 0.0449,0.157379 0.0449,0.229492 0,0.157087 -0.07888,0.204076 0.0244,0.50879 0.25007,0.212074 0.463205,0.531567 0.646485,0.798828 l 0.34082,0.100586 0.06445,0.08105 -0.0244,0.06152 c 0.0532,0.06438 0.19698,0.321514 0.21191,0.384765 0.0383,0.161287 -0.07285,0.759698 -0.15234,0.900391 -0.0456,0.08084 -0.31553,0.348698 -0.40137,0.421875 l -0.09375,0.01855 -0.176755,0.224609 c -0.20767,0.08464 -0.41058,-0.01695 -0.62305,-0.0078 -0.12183,0.05538 -0.26053,0.165072 -0.33984,0.273437 -0.0207,0.218739 -0.153075,0.526283 -0.08398,0.732422 l -0.0752,0.111328 0.005,0.173828 -0.13281,-0.04883 -0.10352,0.03614 c 0.34817,0.266849 0.229655,0.590079 0.433595,0.827149 l 0.1875,0.0791 0.19336,-0.04297 c 0.17835,-0.3315 0.644095,-0.136545 0.874025,0.0127 0.0673,0.26366 0.39338,0.387542 0.47949,0.638672 0.0833,0.24306 0.08611,0.936732 0.05371,1.198242 -0.0133,0.10717 -0.06736,0.221991 -0.08886,0.329101 -0.0223,0.110771 -0.0159,0.255052 -0.0498,0.360352 -0.0854,0.26439 -0.43232,0.591619 -0.61133,0.818359 -0.004,0.27965 -0.196945,0.492128 -0.208005,0.739258 0.11263,0.21934 0.28562,0.371242 0.4541,0.544922 l 0.0254,0.248047 c 0.37455,0.25786 0.199555,0.528633 0.365235,0.695312 0.27539,0.27712 0.763515,0.422822 0.888675,0.826172 0.0885,0.28511 0.05794,0.989536 0.28613,1.166016 -0.0301,0.31112 -0.07342,0.648275 -0.16211,0.950195 -0.0117,0.0397 -0.08149,0.202442 -0.08398,0.229492 -0.0313,0.329381 0.03235,0.615896 -0.06933,0.950196 l 0.12793,0.07324 c 0.0708,0.19355 -0.100865,0.827224 -0.271485,0.930664 -0.0644,0.18075 0.0339,0.336146 0.0498,0.509766 0.0122,0.133832 -0.06396,0.339377 0.04395,0.452147 l 0.217775,0.01855 0.08301,-0.05566 c 0.115975,0.0348 0.263265,0.21182 0.317385,0.31152 -0.10077,0.3295 0.09998,0.59067 0.191405,0.89258 -0.0372,0.14982 -0.20745,0.64066 -0.375,0.70117 l -0.19238,-0.179685 -0.03515,0.05566 0.332035,0.322265 -0.21289,0.521485 -0.207035,0.111325 0.06348,0.29883 0.163085,0.07421 c 0.20074,0.35617 0.103625,0.8042 -0.01075,1.16797 -0.33817,1.07556 -0.58504,1.39594 -1.38281,2.15625 -0.22727,0.2166 -0.46022,0.477465 -0.70508,0.671875 -0.0788,0.0625 -0.20802,0.08545 -0.28613,0.14844 -0.20381,0.16442 -0.351585,0.392445 -0.573245,0.552735 l -0.128905,-0.14258 -0.06347,0.0322 -0.0254,0.08594 0.07519,0.09961 c -0.005,0.0112 -0.03915,0.08797 -0.04495,0.09277 -0.72033,0.59994 -0.59697,0.32171 -1.40234,0.53418 -0.15129,-0.12756 -0.381,-0.0562 -0.56348,-0.105465 -0.0428,0.0301 -0.08239,0.108425 -0.08398,0.160155 l 0.08887,0.06836 c 0.19354,0.66661 -0.11194,1.30425 -0.5918,1.77539 -0.01,0.34363 -0.56539,1.272685 -0.78613,1.527345 -0.12689,0.14637 -0.584015,0.51188 -0.7793,0.55273 l -0.13867,0.178715 c -0.25033,0.0988 -1.065155,0.50781 -1.304685,0.44043 l -0.12793,-0.09864 0.15332,-0.13086 -0.05469,-0.06152 -0.41504,0.334965 0.03515,0.05566 0.148435,-0.105465 0.06933,0.07422 c 0.15396,0.30037 -0.767395,0.91776 -0.949215,1.00586 -0.27939,0.13537 -0.58753,0.215335 -0.87305,0.351565 l -0.56349,0.268557 c -0.42241,0.2202 -1.72932,1.060525 -2.08496,1.142575 -0.19741,0.0456 -0.42866,0.0303 -0.63086,0.06153 -0.36537,0.0565 -0.72657,0.14803 -1.091795,0.20508 -0.109715,0.0171 -0.231795,-10e-4 -0.340825,0.01855 -0.15596,0.0277 -0.30902,0.09642 -0.46484,0.12402 -0.51892,0.0918 -1.39027,0.07005 -1.61914,-0.508785 l 0,-0.17383 c 0.0414,-0.0535 0.159065,-0.09284 0.222655,-0.09864 l -0.09961,-0.143555 0.05468,-0.179685 -0.04885,-0.17383 -0.222655,-0.142575 C 60.06092,65.07673 59.83994,64.78627 59.61137,64.55758 l -1.94531,4.806645 c 0.05992,-0.01095 0.120815,-0.01505 0.1582,0 0.16102,0.35909 1.433615,0.504835 1.649415,0.551755 l 0.08301,0.118165 0.41992,0.154295 0.0752,-0.17871 0.146485,-0.05664 0.163085,0.04395 0.14453,-0.08105 c -0.0165,-0.15929 -0.013,-0.33232 0.004,-0.49121 l -0.04885,-0.08594 -0.124025,-0.0254 0.01465,-0.788085 0.296875,-0.005 -0.01465,0.123045 0.326175,0.731445 -0.02635,0.112305 0.05469,0.0381 0.0449,-0.106445 0.405275,0.08789 0.103515,0.09863 0.06934,0.30371 c -0.27419,0.0484 -0.61089,0.83533 -0.83496,0.9375 l -0.0586,-0.05567 -0.06933,0.05567 0.0244,0.05566 c -0.15209,0.056 -0.31706,0.17763 -0.42969,0.29199 0.0305,0.0583 0.05941,0.193295 0.0205,0.254885 l 0.07324,0.04295 c 0.0695,0.0818 0.0902,0.278215 0.0752,0.377925 l 0.82422,0.03225 0.01955,-0.125 c 0.0617,-0.0768 0.560895,-0.0382 0.666995,-0.0371 l 0.15234,0.186525 0.513675,-0.365235 -0.192385,-0.286135 c 0.1029,-0.21088 0.426075,-0.72713 0.671875,-0.80664 l -0.004,-0.06836 0.240235,-0.148435 0.311525,0.005 c 0.0248,0.0807 0.10627,0.26257 0.18359,0.31055 l 0.08301,-0.0058 0.118165,-0.112305 0.17871,0.0381 0.118165,0.16797 -0.35547,0.291015 -0.07813,-0.04395 c -0.10144,-0.003 -0.24045,0.04295 -0.33203,0.08106 l -0.0586,0.136715 0.0244,0.14844 0.242185,0.13086 c 0.0956,0.68606 1.589835,1.10422 1.382815,1.91699 -0.37883,0.28185 -0.62028,0.431135 -1.08203,0.447265 l -1.98047,0.06934 -0.07325,0.0488 c -0.11037,0.31843 -0.155965,0.6926 -0.227535,1.02344 l -0.11426,-0.01955 -0.0342,0.1377 0.28711,0.0752 0.04005,0.09277 0.10742,0.06836 -0.06446,0.09864 C 61.798155,75.255925 61.35425,75.1182 61.15722,75.0986 l 0.0058,-0.129885 -0.874025,-0.18164 -0.0205,0.09375 c -0.48613,-0.072 -0.83192,-0.545695 -1.28418,-0.66992 -0.15156,-0.0417 -0.33485,-0.01775 -0.48828,-0.05566 -0.12182,-0.0301 -0.244335,-0.116225 -0.365235,-0.155275 -0.19994,-0.0645 -0.392575,0.15328 -0.623045,0.04885 -0.20474,-0.0928 -0.286,-0.291225 -0.46875,-0.397465 -0.0707,0.0249 -0.14017,0.064 -0.20215,0.10547 l -0.11914,-0.0059 c -0.0984,-0.20354 -0.325945,-0.308505 -0.512695,-0.416015 -0.0261,-0.10228 -0.0405,-0.16283 -0.05468,-0.22754 l -7.37305,18.21094 c 0.202085,0.04855 0.404955,0.09577 0.60254,0.15039 0.11223,0.0311 0.24763,0.04075 0.35547,0.08106 0.42961,0.16102 0.272585,0.81829 0.182615,1.1416 l 0.03905,0.124025 c 0.11983,0.10244 0.626065,0.22354 0.771485,0.2666 l 0.05859,0.143555 -0.25195,-0.08105 -0.1084,0.12305 c -0.10118,-0.0808 -0.252545,-0.14111 -0.375975,-0.17383 l -0.15723,0.06347 c -0.1253,0.19521 -0.0496,0.421275 -0.1582,0.632815 l -0.56348,1.097655 c -0.13783,0.26846 -0.463875,0.325915 -0.730465,0.311525 l -0.12305,0.216795 0.345705,0.154295 c -0.1425,-0.003 -0.34279,-0.0257 -0.47461,-0.08691 l 0.33594,-0.65723 -0.10352,-0.0371 -0.27246,0.496095 c -0.0267,-0.0538 -0.122095,-0.108115 -0.176755,-0.123045 l -0.07519,0.0117 -0.0244,-0.09961 c 0.0241,-0.0437 0.08164,-0.177375 0.06054,-0.229495 l -0.06934,-0.0244 c -0.1013,0.0483 -0.100655,0.25529 -0.248045,0.32227 l -0.137695,-0.06836 -0.0498,0.125 0.06933,0.06152 -0.0449,0.11719 -0.103515,-0.05567 -0.03905,0.08105 0.13281,0.09961 c -0.0419,0.079 -0.219515,0.479485 -0.295895,0.533205 -0.110255,0.0238 -0.197095,0.0151 -0.277345,-0.005 L 9.382845,188.62293 c 0.4478,-0.0955 0.889845,-0.20691 0.972655,-0.39062 l 0.365235,0.0303 c 0.11003,0.14662 0.502335,0.18495 0.657225,0.10058 l -0.01075,-0.1123 0.15332,-0.0127 0.26172,-0.24707 -0.03515,-0.14942 0.08398,-0.0996 0.266605,0.0742 0.09961,-0.0625 c 0.20954,0.16194 1.424355,1.15263 1.471675,1.45215 l -0.0498,0.33594 c 0.13982,0.1133 0.515155,0.37397 0.597655,0.4834 0.31218,0.41441 0.69437,1.56236 0.60254,2.08594 -0.0547,0.31164 -0.29832,0.9398 -0.50879,1.17773 -0.14728,0.16649 -0.370795,0.37579 -0.543945,0.51562 -0.0922,0.0745 -0.226955,0.11747 -0.325195,0.18652 -0.11889,0.0837 -0.13311,0.23955 -0.20215,0.35352 -0.0981,0.16182 -0.35144,0.12649 -0.47461,0.33496 -0.21473,0.36336 -0.52791,1.24423 -0.58203,1.65625 -0.0501,0.38216 0.16284,0.52999 0.22656,0.82617 0.0443,0.20621 0.0594,0.55665 0.0586,0.76953 -0.002,0.657 -0.367815,2.56891 -0.551755,3.20313 -0.0811,0.27965 -0.45203,0.68429 -0.69629,0.83105 -0.10477,0.0629 -0.262645,0.0858 -0.360355,0.15528 -0.26705,0.18981 -2.177175,2.37093 -2.341795,2.63086 -0.003,0.004 -0.235445,0.73345 -0.242185,0.76464 -0.0938,0.43693 0.07224,0.50694 0.08984,0.68262 0.0374,0.37363 -0.02055,0.79572 -0.0156,1.17774 l 0.16797,0.21777 c 0.0485,0.39109 0.08293,0.78537 0.1084,1.17871 l 0.84961,0.43458 c 0.0326,0.0925 0.1551,0.30732 0.2666,0.32812 l 0.163085,-0.0801 c 1.82527,1.00852 1.96815,0.0838 2.55371,0.25488 0.33164,0.1361 0.667195,0.79193 0.641605,1.13477 -0.12143,0.35482 -0.491985,0.48217 -0.661135,0.77636 -0.19821,0.3447 -0.15869,0.89014 -0.25293,1.26563 -0.14409,0.57384 -0.92045,1.56569 -1.22949,2.12207 -0.15482,0.27886 -0.12062,0.62972 -0.24219,0.89551 -0.0683,0.14929 -0.249355,0.29346 -0.335935,0.43847 -0.0767,0.12836 -0.10313,0.30196 -0.18164,0.42871 -0.14676,0.237 -0.34823,0.47005 -0.51465,0.69532 -0.28318,0.0845 -0.561605,0.20147 -0.833985,0.3125 l -0.80078,0.32617 c -0.38902,0.17755 -1.066455,0.8384 -1.342775,1.14258 -0.37081,0.40828 -0.68735,0.92061 -1.02246,1.36621 l -0.22168,0.0429 c -0.12943,0.19901 -0.386235,0.55224 -0.578125,0.69433 -0.12969,0.096 -0.53168,0.25231 -0.61719,0.3916 -0.0968,0.15769 -0.13784,0.3834 -0.22168,0.55176 -0.13989,0.28085 -0.51136,0.60989 -0.74609,0.80664 -0.36923,0.30951 -0.79926,0.51151 -1.18555,0.78809 -0.31951,0.22873 -1.130665,1.01131 -1.032225,1.49023 0.0165,0.0801 0.252155,0.4897 0.285155,0.54395 0.12463,0.20501 0.244715,0.43713 0.430665,0.59668 0.36009,0.30884 0.81627,0.52082 1.20996,0.78222 0.2456,0.16315 0.517285,0.35001 0.746095,0.53516 0.0958,0.0776 0.16816,0.21234 0.2666,0.28418 0.0831,0.0607 0.226875,0.0944 0.320315,0.14453 0.33977,0.18195 1.006905,0.70526 1.180665,1.03516 0.28325,0.0465 0.52892,0.18704 0.80078,0.25488 0.13149,0.0328 0.30188,0.008 0.42871,0.0488 0.089865,0.029 0.206315,0.0859 0.331055,0.15429 L 74.817385,61 134.92969,210.76367 c 0.25776,0.0702 0.51299,0.22565 0.7705,0.29297 0.3535,0.0925 0.72436,0.0626 1.08692,0.18652 0.10757,0.14809 0.47357,0.55531 0.68164,0.55957 0.15036,-0.0278 0.34967,-0.19021 0.41992,-0.32324 l 0.40039,-0.0752 0.0596,-0.2041 c 0.23035,-0.17207 0.68261,-0.28648 0.9668,-0.24902 l 0.49902,-0.63867 -0.039,-0.21094 c -0.18288,-0.0893 -0.92053,-0.51976 -1.03224,-0.65918 -0.0153,-0.0192 -0.28287,-0.57443 -0.31151,-0.63281 l 0.32714,-0.0498 c -0.20913,-0.23474 -0.64006,-0.46643 -0.94824,-0.52149 l -0.0205,0.10645 -0.32129,0.0928 c -0.51532,-0.40948 -1.59948,-0.4524 -2.24609,-0.50879 -0.029,-0.0536 -0.32545,-0.58855 -0.33105,-0.6084 -0.0296,-0.10531 -0.0156,-0.17039 -0.0254,-0.27929 l -0.0488,-0.5586 c 0.0421,-0.49972 0.58191,-1.38183 0.99219,-1.67481 0.18435,-0.1317 0.48875,-0.24079 0.69629,-0.34277 0.20527,0.029 0.54248,0.10023 0.7207,0.21777 l 0.0254,0.26075 c 0.0349,0.021 0.35563,0.21923 0.3711,0.22363 0.44467,0.12636 1.64507,0.14964 2.19238,0.22949 -0.19194,-0.19141 -0.76749,-0.41377 -1.03809,-0.52734 l -0.20117,-0.31055 0.16699,-0.32812 0.41993,-0.1377 -0.0195,-0.19824 0.41406,-0.2666 c 0.17048,0.13103 0.70518,0.10156 0.91992,0.0615 0.0324,-0.006 0.16671,-0.0628 0.1875,-0.0615 0.22208,0.0125 0.44576,0.0951 0.6709,0.11133 l 0.16798,0.0117 c 0.28392,0.10131 0.56188,0.28487 0.84472,0.4043 l 0.37012,-0.32325 c -0.0893,-0.12823 -0.20277,-0.34032 -0.31152,-0.44629 -0.16129,-0.15715 -0.39853,-0.12715 -0.49317,-0.43359 l -0.41015,-0.14355 -0.23243,-0.58985 -0.39941,-0.0302 -0.0937,-0.34179 -0.28223,0.15625 -0.24609,-0.14453 -0.24707,0.0196 -0.20313,-0.3916 c 0.0772,-0.21367 0.1526,-0.53297 0.2627,-0.72559 0.15356,-0.26898 0.49709,-0.45966 0.57227,-0.78223 0.30351,-0.20674 0.93035,-0.41451 1.30371,-0.32226 -0.16435,-0.22341 -0.55461,-0.43625 -0.81934,-0.4961 l 0.0586,-0.37304 0.23243,-0.0742 0.29687,0.13672 0.12207,-0.17383 -0.30957,-0.60156 c -0.25553,0.1261 -0.51901,0.28569 -0.74121,0.46484 l -0.33105,-0.17383 -0.0791,-0.64551 -0.13867,0.0254 -0.1377,-0.22949 0.1377,-0.20508 -0.36035,-0.13769 -0.26172,0.0508 -0.19727,-0.2666 -0.0195,-0.52832 c 0.243,-0.001 0.81628,-0.41477 0.99317,-0.5586 l -0.21387,-0.35351 0.21387,-0.3291 c 0.24712,-0.0882 0.56305,-0.22069 0.8291,-0.22949 l 0.2959,-0.62012 c -0.084,-0.19222 -0.23058,-0.72543 -0.11328,-0.93164 -0.4676,-0.18541 -0.76365,-0.19777 -1.26856,-0.13672 l 0,-0.5957 0.46387,-0.0742 c -0.0625,-0.18461 -0.0962,-0.56153 0,-0.74414 0.25368,0.0509 0.60267,0.0405 0.96289,-0.0166 l -0.52734,-1.30176 c -0.12072,0.0566 -0.2343,0.12829 -0.3125,0.2002 -0.23753,-0.32284 -0.40452,-0.87721 -0.68164,-1.11621 l -0.005,-0.65137 c -0.24326,-0.31004 -0.64811,-0.46905 -1.03613,-0.38574 l -0.33204,0.26172 -0.32031,-0.36036 c -0.0904,-0.38949 0.0281,-1.00427 0.17285,-1.36523 l 0.24707,-0.19922 c 0.24502,-0.0118 0.49935,-0.067 0.74317,-0.14941 l -2.97852,-7.3584 -0.15527,0.0557 c -0.23047,-0.0688 -0.47722,-0.11928 -0.71582,-0.14941 l -0.1084,0.0869 c -0.36509,-0.16476 -1.29401,-0.23462 -1.6543,-0.0127 -0.26366,-0.032 -0.55489,-0.20036 -0.75683,-0.35351 l -0.47364,-0.35938 c -0.0546,-0.0634 -0.0531,-0.11978 -0.0869,-0.19629 l -0.1748,-0.39258 c -0.0573,-0.18274 -0.0427,-0.41314 -0.1084,-0.59082 -0.0876,-0.237 -0.39397,-0.61991 -0.6211,-0.74414 l -0.15918,-0.62109 c 0.36296,-0.31297 0.57971,-0.16076 0.88868,-0.2666 0.0228,-0.008 0.73208,-0.36651 0.76074,-0.38477 0.0838,-0.0534 0.49835,-0.4263 0.54394,-0.44629 0.007,-0.003 0.83568,-0.17022 0.86914,-0.17382 0.0205,-0.002 0.0738,0.005 0.11329,0.008 l -0.30958,-0.76563 -0.0508,0.0557 c -0.12609,-0.0281 -0.36326,-0.0175 -0.47363,0.0625 -0.33403,-0.18008 -0.64432,-0.91135 -0.72656,-1.24805 l 0.0937,-0.43359 c 0.20608,-0.0903 0.30501,-0.21864 0.3789,-0.3584 L 77.501955,33.630859 l -0.02245,0.01855 c -0.13863,0.03451 -0.416105,-0.04756 -0.504885,-0.161133 l -0.05859,-0.162109 0.142575,-0.149414 c -0.0862,-0.158492 -0.102825,-0.446634 -0.08398,-0.620117 l -0.06836,-0.08105 0.0918,-0.08887 -0.140625,-0.348633 c -0.20936,-0.133147 -0.48907,-0.179134 -0.75293,-0.180664 z m -4.65625,24.914063 -0.05859,0.0625 -0.34668,0.0127 -0.112305,0.07422 -0.22168,0 -0.10449,0.06152 c -0.0276,0.10371 -0.0315,0.23616 -0.0156,0.3418 0.28991,0.30751 0.666055,0.135845 0.993165,0.0127 0.0497,-0.0764 -0.01995,-0.458 -0.04885,-0.56543 l -0.08496,0 z m -14.98242,15.557615 -0.16895,0.416015 c 0.06069,0.038 0.12191,0.08888 0.1543,0.13184 l 0.08985,-0.04885 c 0.0443,-0.0989 0.05422,-0.241555 0.04885,-0.347655 -0.0343,-0.05279 -0.07973,-0.102325 -0.12402,-0.15137 z m 82.025385,144.13476 -0.35059,0.042 -0.16796,0.22949 c -0.15073,0.0915 -0.42151,0.10809 -0.61523,0.0771 l 0.71484,1.78125 0.12891,-0.0713 0.0635,-0.15429 0.37012,-0.0439 -0.15235,-0.22364 0.4834,-0.16797 c 0.23127,0.31964 1.26991,0.27207 1.61035,0.26661 l 0.41895,-0.38965 c -0.10195,-0.21433 -0.41737,-0.25218 -0.57813,-0.57715 l -0.21191,0.0489 -0.51465,-0.24707 -0.80859,0.0615 c -0.14903,-0.12769 -0.37036,-0.42656 -0.39063,-0.63184 z"
     id="polygon6"
     inkscape:connector-curvature="0" />
  <path
     style="fill:#66ccff;fill-opacity:1"
     d="M 97.82715,0 97.82615,9.76565e-4 97.83008,0 l -0.003,0 z m -0.001,9.76565e-4 -0.351565,0.111328125 c -0.26166,0.233601 -0.401835,0.82976401 -0.375975,1.16113281 -0.76951,0.272988 -1.43076,0.7229334 -1.74707,1.5009765 0.064,0.8574821 0.547015,1.2208187 0.819335,1.9609375 L 95.61228,5.555664 c -0.33657,0.0231 -0.80418,0.2737265 -1.05664,0.4833985 -0.2586,0.370827 -0.418355,0.9383205 -0.483395,1.3779295 -0.21341,0.05372 -0.59554,0.1330135 -0.81934,0.1044925 -0.19968,0.178277 -0.46906,0.848956 -0.55957,1.09375 0.32551,0.26179 0.62339,0.621306 0.87012,0.955078 -0.0858,0.30751 -0.36531,0.8918305 -0.71094,0.9804685 -0.23926,-0.07678 -0.55173,-0.142192 -0.77539,-0.249023 -0.21407,-0.102239 -0.26697,-0.3501505 -0.62207,-0.3408205 l -0.282225,-0.477539 -0.266605,0.338867 c -0.57516,0.7316565 0.18536,1.4707745 0.0342,1.9511725 l -0.39941,0.216797 -0.01955,0.373046 L 90.85254,12.5 c -0.17075,0.297179 -0.43833,0.66851 -0.40527,1.030274 l -0.266605,0.09277 c -0.57557,-0.167554 -1.172955,-0.259623 -1.76172,-0.364258 -0.912535,-0.162085 -1.82583,-0.318381 -2.7373,-0.486328 l -0.07422,-0.577148 C 85.195945,12.015501 84.46025,11.766 84.01758,11.977539 83.43748,11.748005 82.86492,11.703482 82.25977,11.606446 l -0.12891,0.20996 c 0.0767,0.314712 0.341645,0.752251 0.601565,0.950195 l -0.507815,0.09277 c -0.0668,0.236331 -0.18028,0.485236 -0.30664,0.695312 l 0.05078,0.310547 -0.27246,-0.106445 -0.49414,0.124023 c -0.0704,0.203272 -0.04625,0.561895 0.05957,0.750977 l 0.360355,0.07422 -0.12305,0.217773 c 0.46813,-0.03745 0.96824,-0.162991 1.41211,-0.310547 0.11997,-0.299516 0.46855,-0.78977 0.77539,-0.930664 0.25766,0.02697 0.64818,-0.07856 0.86426,-0.217773 l 0.310545,0.136718 0.30176,-0.166992 0.8291,0.515625 -0.166995,0.334961 0.07911,0.06055 0.20117,-0.384766 c 0.70339,0.324839 1.27014,0.809239 1.797855,1.366211 l -0.27637,0.484375 0.0791,0.07422 0.33594,-0.545898 0.32617,0.09863 c 0.12424,0.129298 0.254805,0.296278 0.331055,0.459961 l -0.2666,0.234375 0.06347,0.06348 0.291015,-0.249023 c 0.46973,0.14582 0.737875,1.762333 0.884765,2.185546 0.0573,0.165016 0.201025,0.319579 0.266605,0.483399 0.15223,0.379824 0.267715,0.791401 0.399415,1.179687 l -0.12207,0.291016 0.20117,0.0625 0.06543,0.186523 0.335935,-0.0625 0.01465,0.0752 -0.29199,0.18457 0.27734,0.205078 c 0.13356,0.804698 0.16324,1.595906 0.09766,2.408203 l -0.113285,0.0068 0,0.104492 c -0.0841,-0.0038 -0.331775,-0.01252 -0.410155,0.01855 l 0,0.06836 0.844725,0.118165 0.0498,-0.06738 0.27051,0.03614 0.0752,0.09375 c 0.0433,0.0027 0.19257,0.0023 0.22656,-0.03125 l 0.14844,0.09961 c 0.30818,-0.04264 0.63187,0.133335 0.82422,0.09375 l 0.09961,0.06152 0,0.08691 0.148435,0.05469 c 0.15875,-0.0953 0.43566,0.06069 0.59668,0.06348 0.0687,0.0011 0.150055,-0.03637 0.217775,-0.03223 0.0437,0.0027 0.141295,0.05584 0.182615,0.05664 l 1.240235,0.02441 0.0097,-0.06152 0.09375,0.02441 c -0.0193,0.4746 0.029,1.018198 0.124025,1.483398 -0.16955,0.119295 -0.4833,0.17814 -0.68164,0.242188 -0.0595,0.06331 -0.11691,0.248807 -0.09961,0.333984 0.15609,0.156155 0.06982,0.539528 0.32129,0.609375 0.16822,-0.08037 0.373935,-0.134206 0.557615,-0.161133 0.0165,0.140495 0.10955,0.666283 0.0449,0.78125 l -0.45996,-0.0127 c 0.062,0.435743 0.05471,0.957916 0.14844,1.37793 0.12062,0.138159 0.32505,0.182835 0.47461,0.286133 l -0.03515,0.08594 c -0.0837,0.008 -0.42196,-0.255331 -0.833985,-0.24707 -0.0273,-0.09777 -0.09148,-0.293072 -0.159175,-0.373047 -0.13063,-0.04057 -0.180965,-0.132893 -0.280275,-0.185547 -0.11396,-0.06045 -0.257145,-0.05681 -0.350585,-0.162109 -0.2114,-0.0113 -0.431615,-0.0445 -0.637695,-0.09277 -0.0685,0.06225 -0.370205,0.09827 -0.458985,0.105468 l -0.03905,0.06152 c 0.0249,0.233798 -0.233565,1.958337 -0.335935,2.166015 -0.15196,0.03238 -0.31601,0.06937 -0.45996,0.129883 -0.1189,0.254992 -0.53939,0.222018 -0.75586,0.142578 l -0.0244,-0.142578 c 0.008,-0.01949 0.0425,-0.0875 0.0449,-0.104492 l 0.14258,-0.987305 c 0.0187,-0.129364 -0.253075,-0.411224 -0.339845,-0.477539 -0.43787,-0.197009 -0.783285,0.330858 -1.072265,0.04199 l -0.128905,-0.359375 0.03025,-0.117187 c 0.12823,-0.197141 2.839955,-0.596252 2.953125,-0.789063 0.1197,-0.326576 0.41653,-1.510861 0.2959,-1.736328 -0.064,-0.119569 -0.167925,-0.271772 -0.211915,-0.397461 -0.0647,-0.184485 -0.0135,-0.364609 -0.1875,-0.695312 l -0.05859,-0.0127 -0.08497,-0.09863 -0.21191,0.02442 c -0.18581,-0.08824 -0.204265,-0.525789 -0.366215,-0.713867 -0.55757,-0.141958 -1.134905,-0.07294 -1.688475,-0.254883 l -0.05859,0.04395 0.01465,0.04883 0.2666,0.0752 c 0.007,0.242331 -0.102685,0.690913 -0.177735,0.925781 -0.26898,0.842354 -0.679595,1.656894 -1.066405,2.450196 -0.0953,0.195542 -0.149805,0.413528 -0.242185,0.602539 -0.0688,0.140759 -0.442825,0.692611 -0.539065,0.78125 -0.14436,0.133028 -1.015445,0.609214 -1.200195,0.59082 l -0.06445,-0.09375 c -0.424685,0.08584 -0.99888,-0.339543 -1.42676,-0.448242 -0.0264,-0.0067 -0.12232,0.02235 -0.14258,0.01367 -0.20261,-0.08671 -0.69887,-0.236647 -0.79004,-0.458985 l -0.14453,0.03711 c -0.0478,-0.05785 -0.189455,-0.147921 -0.270505,-0.130859 -0.56063,0.117964 -1.412775,0.514496 -1.836915,0.90625 l -0.103515,-0.03125 -0.109375,0.0752 -0.0293,0.130859 c -0.52718,0.179948 -0.604795,0.981816 -0.296875,1.381836 -0.0405,0.09784 -0.0343,0.265887 -0.0205,0.367188 l 0.120115,0.112305 c -0.0794,0.530645 0.15343,1.311325 -0.0449,1.75 -0.14103,0.156951 -0.274835,0.186026 -0.484375,0.173828 -0.042,-0.150492 -0.199755,-0.346024 -0.331055,-0.427735 -0.1181,-1.222713 -0.753115,-0.980743 -0.972655,-1.297851 l -0.28223,-0.05078 -0.05859,0.05078 c -0.18768,0.008 -0.4048,-0.04003 -0.58301,-0.02442 -0.21781,0.01916 -0.39032,0.236635 -0.47363,0.285156 -0.0968,0.05632 -0.24411,0.06994 -0.33594,0.130859 -0.15183,0.100705 -0.38309,0.485952 -0.54785,0.507813 -0.0495,0.136095 -0.17341,0.421911 -0.28711,0.521484 -0.0296,0.02588 -0.111835,0.04942 -0.137695,0.0752 -0.14529,0.144759 -0.318705,0.590639 -0.371095,0.78125 l -0.06543,0.05664 56.09472,138.553708 c 0.083,-0.15692 0.13405,-0.3289 0.25391,-0.48535 0.2002,-0.26139 0.65416,-0.34584 0.93262,-0.47754 0.39495,-0.18688 0.76737,-0.47022 1.21484,-0.54101 0.0211,-0.003 0.45894,0.0397 0.50879,0.0439 l 0.0937,0.1416 c 0.29404,-0.001 0.59853,-0.0177 0.88965,-0.0606 l 0.29101,-0.22461 c 0.46279,0.008 0.938,-0.0212 1.39747,-0.0742 0.14009,0.17182 0.32909,0.4491 0.37988,0.6709 -0.0659,0.0898 -0.15617,0.27986 -0.14844,0.39649 l 0.43555,0.23535 0.33594,-0.0605 c 0.21647,0.27272 0.7692,0.50551 1.11523,0.44726 l -0.083,-0.45508 c -0.1513,0.006 -0.30632,0.0215 -0.45508,0.0508 l -0.29199,-0.23633 c -0.0546,-0.20567 -0.0157,-0.5303 0.0596,-0.72558 -0.0814,-0.20994 -0.32515,-0.57459 -0.55762,-0.65137 l 0,-0.43555 c 0.15635,0.007 0.44898,-0.0583 0.55762,-0.18555 0.34163,0.007 0.6404,0.22051 0.86914,0.19825 l 0.49903,-0.24707 0.31054,0.12207 0.5293,-0.10449 0.24707,-0.40332 c -0.16502,-0.20142 -0.28936,-0.51746 -0.34082,-0.76953 -0.32044,0.0533 -1.08522,-0.4595 -1.33301,-0.62012 l 0,-0.31055 c 0.22354,-0.0992 0.4877,-0.29619 0.63086,-0.49707 l -0.21191,-0.28516 0.37109,-0.24804 c 0.60689,0.0328 1.06562,-0.19419 1.61426,-0.40332 l 0.52344,0.0996 0,-0.55859 c -0.60635,0.0994 -0.48475,-0.0389 -0.93262,-0.33008 -0.32484,-0.21128 -0.77977,-0.33581 -1.16113,-0.37207 -0.0143,-0.0693 -0.17353,-0.81804 -0.17286,-0.83789 5e-4,-0.0154 0.20481,-0.67266 0.22266,-0.73144 0.39429,-0.10517 0.43717,-0.66624 0.83399,-0.85645 0.53718,-0.25753 1.26106,0.17061 1.89648,0.0488 l 0.0742,-0.18554 0.15723,-0.0742 -0.2168,-0.24805 -0.44922,-0.0996 c -0.0797,-0.38069 -0.22394,-0.73515 -0.22168,-1.1289 l 0.28516,-0.32325 c 0.0132,-0.23607 0.0735,-0.57751 0.0459,-0.80664 -0.0104,-0.0865 -0.18525,-0.4361 -0.20898,-0.54687 -0.0721,-0.33644 0.0529,-0.59238 -0.22656,-0.91016 l 0.0742,-0.26855 0.18261,0 0,-0.20508 -0.17285,-0.20996 c -0.20168,-0.0918 -0.62896,-0.18369 -0.84863,-0.0996 l -0.15332,0.18652 -0.61231,0.22266 c -0.0378,-0.007 -0.4009,-0.0832 -0.41503,-0.0811 -0.28778,0.0425 -0.6456,0.19413 -0.92872,0.2793 l -0.20703,-0.0489 -0.19824,-0.39648 c 0.0982,-0.41788 0.48566,-0.60103 0.85449,-0.74512 l 0.15821,-0.29785 c -0.16409,-0.14542 -0.42501,-0.28231 -0.64161,-0.32324 l 0.0547,-0.29785 0.2461,-0.0117 0.0302,-0.42285 -0.21777,0.1621 c -0.20314,-0.0804 -0.44342,-0.33182 -0.57325,-0.49804 l 0.0791,-0.2666 -0.36036,-0.12403 0.10938,-0.18554 -0.3418,0 c -0.23513,0.44747 -0.55342,0.33711 -0.80469,0.60156 l -0.33105,-0.10547 c -0.0564,-0.20247 -0.1266,-0.40922 -0.21191,-0.60156 -0.0357,-0.21061 0.18864,-0.54507 0.33593,-0.6709 l 0.23633,-0.0302 -0.0586,-0.32911 -0.34668,-0.0869 -0.21582,-0.2666 -0.46485,-0.16699 -0.67089,0.20996 -0.3418,-0.33496 -0.19727,-0.0186 -0.18652,-0.45313 0.12695,-0.27245 -0.33008,-0.33009 c -0.0472,-0.17755 -0.11221,-0.61463 -0.0254,-0.79297 -0.0855,-0.0657 -0.27725,-0.10297 -0.37988,-0.1123 l -0.13379,0.0489 -0.31152,-0.11035 c -0.74406,0.0708 -0.85658,0.52585 -1.78711,0.458 -0.29778,-0.0216 -0.51504,-0.1947 -0.81055,-0.24121 l 0.0937,-0.16113 c 0.21634,0.12249 0.56288,0.33615 0.81055,0.34082 0.45027,0.008 0.81726,-0.26465 1.22461,-0.39648 0.28525,-0.0922 0.57011,-0.0928 0.86523,-0.0898 0.16076,0.002 0.34036,0.007 0.49805,0.0508 0.11223,-0.85416 1.59338,-2.08112 2.44434,-2.19629 l 0.1875,0.11816 0.0302,-0.0615 -0.19336,-0.11719 c 0.0202,-0.0921 0.28891,-0.29281 0.36035,-0.36133 l 0.1543,0.29199 -0.13379,0.29883 0.22168,-0.31738 -0.29102,-0.59571 0.0489,-0.10449 0.10938,-0.0752 -0.01,-0.11914 c 0.3351,0.23167 1.1732,0.40088 1.54003,0.15723 0.18927,-0.1257 0.37622,-0.34489 0.54297,-0.50391 0.51572,-0.49173 1.07212,-1.01319 0.57813,-1.75098 -0.2166,-0.25059 -0.54221,-0.17228 -0.65137,-0.31543 -0.12637,0.004 -0.41653,0.11692 -0.43945,0.11719 l -0.68262,0.006 -0.23633,-0.19824 c -0.19701,0.11156 -0.62711,-0.40617 -1.00781,-0.17383 l -0.17285,-0.0986 c -0.0602,-0.19076 -0.44956,-0.63125 -0.65137,-0.65137 -0.17142,-0.42801 -0.39968,-0.3518 -0.77051,-0.52148 l -0.0293,-0.11719 -0.37988,-0.13672 -0.0703,-0.13672 -0.0986,-0.0127 -0.0986,-0.2666 -0.12402,-0.0684 0.0205,-0.55176 0.11816,-0.13086 0.0342,-0.21679 0.11426,-0.0312 -0.01,-0.0937 -0.0547,0 -0.0351,-0.14161 0.0547,-0.16894 -0.0937,-0.0684 0.0986,-0.0244 c -0.15035,-0.1413 -0.27822,-0.345 -0.38086,-0.52148 0.0643,-0.44361 0.14657,-0.92872 0.14844,-1.37793 0.002,-0.38656 -0.0918,-0.81926 -0.0146,-1.20313 0.0717,-0.35657 0.31481,-0.70061 0.49902,-1.00586 0.15089,-0.24992 0.43515,-0.43948 0.58203,-0.68261 0.0862,-0.14263 0.12155,-0.33091 0.20313,-0.47754 0.21127,-0.37961 0.85831,-0.92077 1.31445,-0.81934 0.12583,0.028 0.29627,0.0535 0.37012,0.18066 l 0.14843,-0.0557 0.16211,0.0361 0.084,-0.14843 c 0.1193,-0.0773 0.35386,-0.12589 0.49316,-0.0869 l 0.11426,0.12988 c 0.60742,0.003 0.42884,0.2566 0.75488,0.49707 0.15755,-0.0936 0.22594,-0.40933 0.27246,-0.57714 l 0.22168,-0.19825 c 0.35497,-0.0957 0.72313,0.11399 1.05664,0.20996 0.054,-0.0447 0.16874,-0.11443 0.24219,-0.11816 -0.0124,-0.0984 -0.11197,-0.23973 -0.18262,-0.30371 l 0.005,-0.22949 -0.0742,-0.043 0.11426,-0.19238 -0.14453,-0.26074 -0.30566,-0.14941 c 0.0347,-0.15423 0.34825,-0.4052 0.46875,-0.48438 0.34044,0.0676 0.70509,-0.0944 1.05273,-0.0732 l 0.0644,-0.0625 c 0.11517,-0.0395 0.27281,-0.0756 0.37891,-0.13086 0.0824,-0.0429 0.10266,-0.16571 0.29687,-0.2041 l 0.0898,-0.18653 0.0977,-0.006 c 0.15182,-0.22194 0.38513,-0.46829 0.61719,-0.60839 0.14956,-0.0124 0.34472,0.03 0.47949,0.0937 l -0.0937,-0.15528 0.0742,-0.1123 -0.19336,-0.0742 -0.15234,0.0937 -0.2373,-0.0127 -0.12305,0.0801 -0.35645,-0.0429 c -0.0456,-0.12023 -0.36052,-0.23031 -0.46875,-0.25391 -0.0616,-0.20901 -0.0348,-0.50833 0.0244,-0.71387 l 0.0801,-0.0684 0.2666,0 -0.0937,-0.14355 0.11817,-0.44043 c -0.14169,-0.072 -0.44514,-0.28969 -0.48926,-0.45898 l 0.0449,-0.24121 0.0986,0.0117 0.0937,-0.0996 -0.0293,-0.12402 -0.17871,-0.0752 c -0.0456,-0.15622 -0.0938,-0.31328 -0.15332,-0.46484 l 0.12402,-0.17383 0.16797,-0.0742 0.14355,0.11816 c 0.30272,0.0234 0.57633,-0.0889 0.87891,-0.0811 0.0372,-0.0407 0.63008,-0.55806 0.65234,-0.57031 0.1397,-0.0776 0.35896,-0.10173 0.51758,-0.16211 l -0.1377,-0.15528 0.14356,-0.27246 c -0.0836,-0.0645 -0.1625,-0.16904 -0.21289,-0.26074 0.0364,-0.0493 0.13945,-0.15087 0.20703,-0.15527 l -0.084,-0.11817 -0.18164,-0.0371 -0.10352,-0.0928 0.0781,-0.0625 0.20313,-0.0186 0.01,-0.10644 c -0.39923,-0.11917 -0.75939,-0.49537 -1.2002,-0.37207 l -0.31055,-0.3711 -0.16308,-0.0498 0.0186,-0.21094 0.0898,-0.0127 0,-0.11132 -0.30176,-0.32325 -0.10351,0.0312 -0.0489,0.0937 -0.13281,0.0117 -0.0606,0.0879 -0.0635,0 -0.0644,-0.25683 0.1582,-0.16602 0.1084,0.0117 c 0.10823,-0.19528 0.10806,-0.33626 0.33106,-0.47168 l -0.20704,-0.23535 0.0244,-0.28613 0.17676,0.0264 -0.0342,-0.13184 -0.2666,-0.2666 0.20703,-0.14258 0.19336,0.0254 -0.0342,-0.13086 c 0.11317,-0.14049 0.60158,-0.29824 0.77539,-0.35449 l 0.0937,0.0947 0.17676,-0.0996 0.25684,0.0996 0.10937,-0.18067 0.1875,0.0195 0.0986,-0.18164 0.53907,-0.20508 0.16211,0.10547 0.16308,-0.0791 0.17285,0.0176 0.0498,-0.14844 0.11817,-0.043 0.12402,0.0362 -0.10449,-0.19238 0.0742,-0.10449 c -0.17502,-0.009 -0.35129,-0.34882 -0.74024,-0.38574 l -0.12402,-0.80078 c 0.12823,-0.211 0.21649,-0.51058 0.43457,-0.64454 -0.11943,-0.11636 -0.11133,-0.53401 -0.15332,-0.70703 l -0.19141,-0.19336 0.004,-0.16699 0.1875,-0.19238 0.0108,-0.31738 -0.24805,-0.23438 c -0.0984,-0.0114 -0.23083,-0.0501 -0.31054,-0.1123 l 0.0293,-0.17383 0.14844,-0.0928 -0.0996,-0.0557 0.17285,-0.44238 c -0.0304,-0.12849 -0.19227,-0.28703 -0.31543,-0.32715 -0.2418,0.0876 -0.21984,0.25117 -0.375,0.37207 -0.14636,-0.0269 -0.37973,-0.16326 -0.44531,-0.30469 0.0623,-0.20233 -0.0971,-0.32814 -0.15235,-0.49609 -0.0483,-0.14623 -0.0674,-0.33104 -0.0986,-0.4834 l 0.0781,-0.15625 c -0.12611,-0.0546 -0.28373,-0.2094 -0.33985,-0.33496 -0.21194,-0.013 -0.35992,0.0579 -0.57812,0 l -0.0986,-0.0859 -0.11914,0.006 -0.1084,0.0732 -0.11328,-0.11718 -0.0352,-0.19141 0.10352,-0.0879 0.0898,0.0371 0.0889,-0.0566 0.0147,-0.0615 0.19726,0.0127 c -0.0573,-0.22061 -0.14531,-0.53951 -0.29101,-0.71387 l 0.10351,-0.21191 0.1875,0.0449 c 0.0822,-0.11064 0.30111,-0.18616 0.33203,-0.29786 l 0.083,-0.0186 -0.0156,0.20508 c 0.0344,0.0729 0.13443,0.15609 0.20801,0.18555 0.1305,-0.0453 0.25827,-0.10004 0.38477,-0.15527 l -0.11817,-0.15528 0.0937,-0.28515 0.0996,-0.0244 0.0889,-0.14942 0.14746,-0.0625 0.0449,-0.0615 0.14355,-0.0244 0.10254,-0.0928 -0.0244,-0.10058 0.0889,-0.0625 -0.0937,-0.12989 0.0742,-0.0859 0.0742,0.005 -0.0156,-0.1543 c -0.19234,0.0772 -0.39838,0.0961 -0.59179,0.17969 l -0.0889,-0.14258 0.16309,-0.10547 c 0.076,-0.18741 0.17642,-0.37623 0.28613,-0.5459 l -0.0635,-0.27929 0.0684,-0.17383 -0.21289,-0.0801 -0.0586,0.0928 -0.49317,0.0928 c -0.25606,-0.38789 -0.47073,-0.84502 -0.63281,-1.2793 l -0.0693,0.0625 c -0.25059,-0.33324 -0.5134,-0.81401 -0.65137,-1.19922 -0.0998,-0.27872 -0.25895,-1.13126 -0.0351,-1.40039 0.15889,0.0543 0.32708,0.0933 0.49316,0.11719 l 0.20801,-0.0928 c 0.0172,-0.10185 0.10025,-0.23577 0.16797,-0.31055 l 0.12402,0.0127 0.0742,0.12402 0.0391,-0.0811 0.24121,-0.0869 0.0596,-0.0986 c 0.12822,0.0197 0.36493,-0.10855 0.45996,-0.18066 0.0904,-0.10264 0.148,-0.26268 0.17773,-0.39063 0.12916,-0.55758 -0.009,-0.39348 -0.0889,-0.80176 -0.0332,-0.16956 -0.006,-0.3758 -0.0401,-0.55761 l -0.21192,-0.26661 0.10352,-0.27246 0.14844,-0.007 c 0.16288,-0.15782 0.32619,-0.34303 0.44922,-0.53418 l 0.084,0.006 c 0.0364,-0.0478 0.0192,-0.21887 0.01,-0.27246 0.0139,-0.0726 0.48258,-0.52246 0.54296,-0.56445 0.12756,-0.0886 0.30416,-0.13656 0.43946,-0.2168 0.078,-0.0462 0.1554,-0.15646 0.24218,-0.21191 l -0.005,-0.14942 -0.0586,0 -0.11817,-0.14257 -0.0244,-0.27247 -0.13379,-0.13085 0.27637,-0.17383 c -0.20221,-0.0982 -0.4057,-0.1954 -0.61231,-0.28418 -0.0806,0.004 -0.19896,0.0207 -0.27148,0.0605 l -0.18262,-0.14843 c -0.0906,0.0308 -0.20103,0.0504 -0.29687,0.0498 l -0.0986,-0.28028 0.12305,-0.0371 c 0.0481,-0.12463 0.0998,-0.24859 0.15332,-0.37109 0.0864,0.0716 0.1843,0.15492 0.28613,0.2041 l 0.0889,-0.0176 0.0596,-0.14355 c 0.0962,-0.0522 0.19347,-0.14525 0.26172,-0.22949 0.20447,-0.0861 0.42028,-0.033 0.60742,-0.13672 0.10784,0.0543 0.34232,0.0218 0.44922,-0.0127 l 0.13281,0.0693 c 0.10197,-0.0457 0.39165,-0.20847 0.42578,-0.3291 l -0.0449,-0.25488 c -0.0984,-0.11423 -0.2224,-0.22405 -0.3457,-0.31055 -0.19368,0.0725 -0.44676,0.0955 -0.65137,0.0879 -0.14115,-0.0433 -0.31727,-0.30728 -0.375,-0.42871 l 0.0537,-0.14941 -0.33105,-0.291015 0.18359,-0.16211 -0.25293,-0.09278 -0.12207,-0.248045 0.0928,-0.137695 -0.0351,-0.339845 0.1875,-0.16211 0.0108,-0.210935 -0.1084,-0.08008 0.0498,-0.29883 c -0.081,0.0194 -0.21167,-0.0078 -0.28711,-0.03615 l -0.16309,-0.206055 c -0.2114,-0.0336 -0.33897,-0.224225 -0.50879,-0.328125 -0.16435,-0.10057 -0.36356,-0.1812 -0.53711,-0.26758 -0.28218,0.13043 -0.5656,0.07949 -0.85058,-0.0244 l -0.11817,0.105465 c -0.12397,-0.0868 -0.27835,-0.26422 -0.33007,-0.40918 l 0.0244,-0.210935 0.38476,-0.24805 c 0.0863,-0.208075 0.14382,-0.440105 0.24219,-0.639645 0.0737,-0.14963 0.32901,-0.19944 0.375,-0.36719 l 0.12793,-0.01755 c 0.11597,0.0238 0.27622,0.131955 0.3418,0.230465 0.0297,-0.01 0.16789,-0.05168 0.1875,-0.06348 0.2298,-0.13869 0.32346,-0.28114 0.63671,-0.4209 0.0547,-0.0243 0.0679,-0.0278 0.0791,-0.0342 0.01,-0.006 0.0173,-0.0132 0.0488,-0.0381 l 0.0889,-0.07031 0.10937,-0.280275 c -0.30471,0.12383 -0.80532,0.0107 -0.93848,-0.316405 l 0.14844,-0.322265 0.1875,-0.0127 c 0.0402,-0.18034 0.54243,-0.52852 0.68652,-0.68848 l -0.0596,-0.19824 c 0.16422,-0.18455 0.38523,-0.225995 0.50879,-0.453125 -0.12623,-0.10197 -0.239,-0.2569 -0.32617,-0.3916 -0.19154,-0.006 -0.47501,-0.17931 -0.56738,-0.34766 l -0.005,-0.383785 0.29199,-0.17383 -0.0752,-0.11328 c 0.0726,-0.0333 0.26919,-0.115015 0.35157,-0.110355 l -0.23243,-0.378905 0.005,-0.16211 c -1.08635,-0.86229 -0.93817,-0.06535 -1.8623,-0.63281 l -0.0352,-0.204105 c 0.0628,-0.0697 0.18875,-0.193155 0.28125,-0.224605 l -0.14747,-0.04885 -0.0644,0.0625 -0.52734,-0.07422 -0.0899,-0.07422 -0.0244,-0.287105 0.0889,-0.161135 -0.17774,-0.09766 -0.14258,-0.29883 c -0.15955,0.007 -0.33001,0.0327 -0.48437,0.07422 l -0.19336,-0.11035 c 0.009,0.0978 -0.0365,0.254145 -0.10254,0.328125 -0.21021,0.11016 -0.83678,0.08241 -0.9834,-0.104495 -0.0806,-0.32657 -0.13097,-0.73799 -0.083,-1.07422 l -0.37597,-0.12402 c 0.15662,-0.38349 -0.0438,-1.4126 -0.0937,-1.83008 l 0.13769,-0.322265 -0.1875,-0.23633 -0.77539,-0.24902 c -0.12237,-0.51305 -0.27054,-1.03451 -0.37011,-1.55176 -0.0884,-0.45901 -0.10555,-0.937375 -0.19727,-1.395505 l -0.30273,-1.241215 c -0.059,-0.24206 -0.0718,-0.38502 -0.15137,-0.62109 -0.14956,-0.44361 -0.46746,-0.858605 -0.61328,-1.302735 -0.0184,-0.0562 -0.0199,-0.581155 -0.0391,-0.683595 -0.0597,-0.32084 -0.21015,-0.6471 -0.28027,-0.97754 -0.016,-0.0759 -0.0112,-0.122695 -0.041,-0.194335 -0.0826,-0.19928 -0.26228,-0.43218 -0.37598,-0.62012 l 0.16894,-1.05566 c 0.19288,-0.23073 0.39637,-0.454725 0.60645,-0.669925 l 0.23828,0.0117 c 0.10144,-0.2298 0.42147,-0.50013 0.66113,-0.57031 l -0.32519,-0.484375 0.16211,-0.186525 -0.0401,-0.27246 c 0.14795,-0.17822 0.93512,-1.00746 0.86914,-1.2168 l -0.14258,-0.37207 -0.68164,0 0.23731,-0.29785 0.0108,-0.54004 -0.31153,-0.279295 c 0.13263,-0.42455 0.1347,-1.054215 -0.0108,-1.476565 -0.26312,-0.18088 -0.76577,-0.323335 -1.08594,-0.274415 l 0.21582,-0.285155 c -0.13889,0.0654 -0.44902,0.159095 -0.60644,0.112305 -0.22354,0.21779 -0.59174,0.390395 -0.88379,0.484375 -0.18208,-0.26046 -0.49866,-0.57287 -0.7959,-0.70117 l -0.41504,-0.96289 c 0.0186,-0.006 0.18261,-0.05533 0.18848,-0.06153 0.0594,-0.0623 0.63458,-0.65576 0.65137,-0.68262 l 0.14453,-0.471675 c 0.14196,-0.46233 0.35169,-0.845295 0.72558,-1.166995 l 0.0488,-0.731445 c -0.25926,0.1219 -0.70962,0.13218 -0.9834,0.07422 0.11063,-0.27738 0.46083,-0.68382 0.76075,-0.76953 l 0.0146,-0.391605 c -0.12929,-0.10757 -0.41011,-0.4154 -0.41504,-0.60156 l 0.21289,-0.17383 0.23731,0.04885 c 0.0972,-0.28039 0.26805,-0.55937 0.41894,-0.8125 -0.1365,-0.23513 -0.28981,-0.70129 -0.24609,-0.98047 l -0.24707,-0.37207 c -0.40988,0.27379 -1.12828,0.155195 -1.46192,-0.19824 l -0.36035,0 -0.40039,-0.39063 -0.375,-0.0625 c -0.14329,0.18528 -0.21835,0.60173 -0.22754,0.8252 l -0.43359,-0.03125 -0.33203,0.46582 -0.31055,-0.04395 -0.15332,-1.153325 -0.50879,-0.478515 -0.70117,0.2168 -0.23145,-0.453125 0.084,-0.850585 c 0.32697,-0.0994 0.65274,-0.207765 0.97265,-0.328125 l -0.0937,-0.211915 c 0.468,0.0452 0.7941,-0.344065 1.19532,-0.476565 0.12823,-0.0423 0.9181,-0.13259 1.10058,-0.09863 l 0.375,-0.46094 -0.23633,-0.1416 -0.60839,0 -0.23145,-0.249025 -0.15332,-0.0303 -0.21777,-0.40332 0.22754,-0.35449 -0.22754,-0.160155 0.0801,-0.63379 -0.62207,-0.217775 -0.25781,-0.416015 -0.12304,0.0127 -0.20704,-0.30957 -0.2666,-0.112305 -0.14844,-0.248045 -0.96777,-0.166995 -0.21777,-0.546875 0.0801,-0.279295 c 0.35684,-0.0377 0.83697,0.04755 1.17968,0.125 0.10676,0.0241 0.55462,0.20915 0.62207,0.21582 0.2234,0.0222 0.57547,-0.05282 0.80567,-0.07422 l 0.14258,-0.111325 0.29101,0.0625 c 0.16982,0.27426 0.60694,0.55377 0.88965,0.68359 l 0.75488,-0.509765 0.35645,0.23047 0.34472,-0.09375 0.0449,-0.217775 0.5127,0.0303 -0.17188,-0.123045 0.19824,-0.03125 -0.24804,-0.09375 c 0.0102,-0.11743 0.006,-0.45239 -0.0879,-0.5459 l 0.24609,-0.37207 0.4502,-0.19824 c -0.1281,-0.169025 -0.50235,-0.322095 -0.69629,-0.372075 0.0909,-0.11864 0.30055,-0.240655 0.44824,-0.261715 l 0.12402,-0.391605 -0.1582,-0.227535 0.25195,-0.143559 c 0.0524,-0.53891 0.1325,-1.080431 0.22754,-1.613281 l 0.22168,0.01855 0,-0.608399 0.1875,-0.173828 -0.32519,-0.166992 0.0293,-0.328125 0.26172,-0.186523 -0.1875,-0.107422 -0.33594,0.125 c 0.12263,-0.28772 0.27244,-0.860718 0.19726,-1.179688 -0.2074,-0.11058 -0.42515,-0.239615 -0.60644,-0.390625 l 0.21582,-0.291015 c 0.20514,0.0796 0.34389,0.233661 0.5293,0.329101 0.0659,0.0339 0.17114,0.02604 0.23632,0.06055 0.13223,0.07 0.27129,0.188314 0.39551,0.274414 l -0.12304,-0.229492 c 0.26939,-0.32976 0.52861,-0.668349 0.78027,-1.011719 l 0.26172,-0.08691 c 0.20647,0.0632 0.4618,0.131424 0.68066,0.124024 l 0.1582,-0.329102 0.32618,-0.03125 -0.51368,-0.198242 -0.15234,0.08691 c -0.2514,-0.19633 -0.52044,-0.65364 -0.54883,-0.97461 l -0.49902,-0.260742 -0.37012,0.04395 c -0.12917,-0.16723 -0.24816,-0.38861 -0.31054,-0.59082 l -0.37012,-0.06152 0.0791,-0.154296 0.1875,-0.0498 0.0791,-0.310547 c -0.28978,-0.34417 -1.66222,-0.387116 -2.09863,-0.322266 -0.2174,-0.4752 -0.64394,-1.190683 -0.79004,-1.626953 -0.1053,-0.31465 -0.14075,-0.742532 -0.20313,-1.073242 l -0.23242,0.329102 -0.50879,0.105468 c 0.18328,-0.66635 0.37932,-1.070952 0.0488,-1.707031 l -0.35058,0.07422 c 0.0241,-0.195142 0.0444,-0.842142 -0.12305,-0.993164 l -0.33496,-0.08594 -0.24805,0.166992 -0.20215,-0.40332 -0.23144,0.03808 -0.0791,-0.621094 -0.58301,-0.534179 c -0.10264,0.02446 -0.25235,0.1151 -0.31153,0.205078 l -0.47363,-0.08008 -0.22754,0.222656 c -0.0709,-0.08537 -0.20217,-0.200033 -0.31054,-0.235352 l -0.18848,-0.570312 0.20703,-0.55957 c -0.22153,-0.03947 -0.59702,-0.587945 -0.70019,-0.762696 l -0.5293,0.123047 c -0.95333,-0.298179 -1.83315,-0.732631 -2.65625,-1.302734 -0.1033,0.08924 -0.16409,0.315927 -0.14356,0.446289 l -0.37011,0.137695 -0.23243,0.390625 c -0.20341,-0.06358 -0.5671,0.0096 -0.72558,0.154297 -0.084,0.235535 -0.16484,0.473976 -0.23242,0.714844 l -0.375,0.01953 -0.38477,-0.331055 -0.0996,-0.40332 0.41016,-0.258789 -0.0498,-0.206055 -0.41895,0.390625 -0.77051,-0.01855 -0.14355,0.291992 0.0586,0.483399 c -0.35096,0.183676 -0.75767,0.457732 -1.03613,0.745117 -0.12796,0.132098 -0.18818,0.301354 -0.35547,0.40332 l -0.85449,0.0498 -0.10937,0.199219 c 0.29338,0.848955 -0.27367,0.959486 -0.21583,1.643555 l -0.72662,0.539898 c -0.27939,-0.06805 -0.77644,-0.05229 -1.03223,0.100586 l -0.24707,-0.0625 0.1875,-0.53418 -0.0889,-0.323242 0.24707,-0.482422 -0.14355,-0.0127 c 0.18075,-0.377094 0.60561,-0.846568 0.6416,-1.242188 l 0.16895,0 -0.0899,-0.613281 0.14844,-0.06348 -0.45898,-0.30957 -0.18262,0.06152 -0.22754,-0.161133 -0.084,-0.383789 -0.20703,-0.217774 0.0645,-0.391601 0.20215,-0.105469 c 0.26819,0.016 0.55021,0.05809 0.81054,0.125 l 0.19727,-0.217774 c -0.11277,-0.127966 -0.0596,-0.609214 -0.0303,-0.756835 0.27565,-0.172884 0.58092,-0.445942 0.76074,-0.719727 l -0.22168,-0.261719 -0.29101,-0.09863 c -0.58133,-0.782181 -1.12085,-2.670942 -0.72657,-3.599609 l 0.38477,-0.397461 0.58789,-0.141601 c 0.22087,0.142226 0.64585,0.194986 0.89844,0.141601 l 0.20312,-0.185547 0.17285,0 0.0596,-0.235351 c -0.25993,-0.510919 -0.57064,-0.663099 -1.14648,-0.645508 -0.13116,0.0038 -0.29151,0.08734 -0.42481,0.105469 -0.21233,0.02899 -0.40635,0.01118 -0.62695,0.05371 -0.0538,0.01037 -0.0838,0.02877 -0.13867,0.02637 -0.0175,-5.5e-4 -0.29542,-0.100572 -0.33008,-0.112305 l -0.2666,-0.402344 -0.38574,-0.09277 c -0.13983,-0.286982 -0.21885,-0.819905 -0.11328,-1.129883 l 0.25195,-0.30957 c 0.32951,-0.120296 0.71385,-0.13936 1.05176,-0.03809 0.14115,-0.189143 0.39117,-0.391297 0.6123,-0.477539 0.0657,-0.22147 0.0731,-0.518204 0.0303,-0.744141 l -0.29199,-0.267578 c -0.2138,-0.009 -0.56452,0.06614 -0.73633,0.204102 l -0.0732,0.266601 -0.1836,0.0752 -0.1875,-0.249023 c -0.13584,0.204075 -0.50231,0.496136 -0.76464,0.49707 l -0.20313,0.383789 0.0195,0.25 -0.33984,0.04883 -0.0937,0.155274 0.12305,0.310547 c -0.0768,0.160216 -0.3612,0.414177 -0.54395,0.43457 -0.50372,0.05612 -0.97417,-0.09144 -1.47656,0.06152 l -0.46387,-0.266602 -0.18262,0.06348 c -0.21353,-0.189344 -0.50125,-0.396904 -0.68652,-0.609375 -0.30178,-0.346171 -0.30657,-0.656894 -0.80469,-1.00586 -0.10518,-0.401882 -0.22235,-0.826668 -0.2666,-1.241211 l 0.24707,-0.01269 c -0.0629,-0.196742 -0.11507,-0.433103 -0.19824,-0.620117 -0.10197,-0.2292 -0.26223,-0.444593 -0.375,-0.669922 -0.22927,-0.457872 -0.40226,-0.932335 -0.68164,-1.366211 l 0.15723,-0.322265 c -0.19728,-0.253327 -0.35989,-0.660363 -0.38868,-0.980469 -0.39802,-0.130095 -0.798,0.354069 -1.28906,0.105469 -0.14303,0.09857 -0.575,0.03707 -0.72656,0 l -0.22168,0.205078 c -0.20221,-0.02572 -0.51169,0.0719 -0.68164,0.174805 -0.18594,-0.09997 -0.57444,-0.158351 -0.77051,-0.05078 -0.22901,-0.272191 -0.48031,-1.024763 -0.50391,-1.358398 -0.0265,-0.375757 0.19417,-1.3817 0.37598,-1.713867 0.0424,-0.07731 0.091,-0.102768 0.14941,-0.168946 0.35857,-0.406086 0.60175,-0.579951 1.15332,-0.661132 l 0.27735,0.322265 0.2168,0.06152 c 0.0424,-0.232733 0.38986,-0.546972 0.57714,-0.658204 l 0.31153,0 0.32129,0.373047 c 0.16636,-0.0033 0.33467,-0.01855 0.49902,-0.04394 l 0.15234,0.143555 0.16895,-0.06348 -0.0108,-0.222656 0.37988,-0.335938 0.16309,0.125 1.0664,-0.08105 0.0937,0.168945 0.23242,-0.149414 0.12403,-0.360352 c 0.13836,-0.02506 0.36465,0.0426 0.46875,0.135743 l -0.0781,0.236328 0.1875,0.248047 0.16211,0.0127 0.11426,-0.260742 0.12305,0.04981 0.25195,-0.235352 -0.20313,-0.279296 0.2627,-0.205079 0.4043,-0.0127 -0.044,-0.111328 0.19726,-0.02539 0.26172,-0.28418 -0.19727,-0.06348 -0.30078,-0.50879 0.11328,-0.446289 -0.17285,-0.297851 c -0.17142,0.104501 -0.59301,0.0088 -0.75683,-0.0625 l -0.15723,-0.608399 0.14356,-0.353515 0.19726,-0.09277 c -0.0321,-0.418408 -0.1186,-0.8754435 -0.25684,-1.2724605 l -0.14257,-0.1367185 -0.0254,-0.310547 0.13379,-0.135742 -0.12403,-0.310547 -0.19726,-0.1123045 0.0254,-0.544922 c 0.22047,-0.253994 0.67327,-0.213927 0.96679,-0.149414 l 0,-0.4101565 -0.1875,-0.198242 c -0.0969,0.02506 -0.21339,0.066354 -0.29589,0.125 l -0.34083,-0.298828 0.0791,-0.1357425 -0.41016,-0.385742 c 0.0127,-0.263723 0.0965,-0.621079 0.24707,-0.84375 l -0.22754,-0.3720704 -0.49902,0.018555 c -0.0333,0.1417634 -0.16813,0.3243514 -0.27637,0.4169924 -0.52198,-0.134228 -1.08982,-0.1682725 -1.625,-0.2001955 l -0.16211,-0.4658203 0.1875,-0.2041016 -0.14746,-0.4033203 -0.43555,0.074219 -0.1875,-0.446289 -0.11328,0.2607422 -0.32129,-0.086914 c -0.18088,-0.282718 -0.62541,-0.5722482 -0.93359,-0.6826172 -0.79057,0.347502 -1.5341,0.2346159 -1.84668,1.0986328 -0.47693,0.206341 -1.0365,0.1410799 -1.54102,0.2480469 l -0.01,0.2470703 c -0.11303,0.110964 -0.38088,0.2262921 -0.54296,0.1875 -0.16076,-0.169149 -0.317,-0.6712593 -0.26661,-0.8945312 0.0513,-0.2273329 0.2349,-0.5428254 0.33008,-0.7626954 0.13942,-0.06178 0.28674,-0.1170164 0.43457,-0.1552734 l -0.24707,-0.2480469 0.13379,-0.2177734 c -0.28898,0.0291 -0.63329,0.03465 -0.91894,-0.03125 l 0.11325,-0.2470726 -0.0937,-0.1992187 C 106.79012,2.0480372 106.43318,1.9226917 106.11329,1.8310547 L 106.292,1.6767578 106.0254,1.5644531 C 105.89436,1.7492001 105.54223,2.012464 105.29883,2 l -0.17773,-0.2617188 0.36035,-0.2353515 -0.12402,-0.1679688 -0.8291,0.6015625 -0.49805,-0.2470703 -0.13379,0.3720704 -0.48926,0.1738281 c -0.12863,-0.140092 -0.44255,-0.456441 -0.63183,-0.515625 l 0.25097,-0.3095703 -0.42383,0.017578 -0.0889,0.211914 -0.42969,0.1113281 -0.31152,0.3847657 -0.0195,-0.3730469 -0.46484,-0.011718 c -0.14755,0.1466219 -0.43134,0.4512882 -0.50879,0.6513672 -0.39722,0.02965 -1.01149,-0.1977692 -1.30274,-0.4658203 -0.0587,-0.0011 -0.66365,-0.00698 -0.68164,-0.011718 -0.0186,-0.0049 -0.49933,-0.2821123 -0.54785,-0.3095703 L 98.463855,1.2421879 98.048815,1.0068363 97.639635,0.1992191 97.82616,9.76915e-4 Z M 124.20801,29.054687 c -0.15795,-0.009 -0.36088,0.04563 -0.46485,0.0957 l -0.18359,0.279297 c 0.21247,0.04919 0.59945,0.006 0.7754,-0.137695 l 0.0107,-0.205078 c -0.0373,-0.01966 -0.085,-0.02923 -0.13769,-0.03223 z m -47.350585,2.983399 0.140625,0.348633 0.06054,-0.05859 -0.157225,-0.267578 c -0.01305,-0.0095 -0.0302,-0.01373 -0.04395,-0.02246 z m -20.48047,31.814454 -0.11426,0.0244 c -0.121035,0.24294 -0.25056,0.554775 -0.4541,0.739255 l -0.43457,0.10547 c -0.21846,-0.24233 -0.539075,-0.30992 -0.844725,-0.20508 l -0.138675,-0.154295 -0.142575,-0.0254 -0.138675,0.137695 c 0.0373,0.3595 0.0355,0.749605 0,1.109375 l -0.137695,0.08691 -0.07422,0.15527 c -0.006,0.19188 0.358405,0.635875 0.543945,0.689455 0.0345,-0.003 0.255985,-0.02935 0.276365,-0.02635 0.0813,0.012 0.12453,0.03155 0.2041,0.05175 l 0.40723,0.104495 c 0.1369,0.0253 0.246535,-0.0165 0.390625,0.0498 0.10037,0.113105 0.19181,0.240635 0.2666,0.372075 -0.0126,0.10063 -0.0427,0.20541 -0.08399,0.29785 l 0.11426,0.12988 -0.08984,0.0625 -0.06836,0.229495 c -0.1037,0.0383 -0.221695,0.11719 -0.296875,0.19824 l 0,0.08789 c 0.15022,-0.005 0.542325,0.0269 0.657225,0.14844 l -0.01465,0.08105 -0.0791,-0.02635 -0.0791,0.07519 0.28125,1.14258 c 0.10423,0.0742 0.50691,0.01325 0.62207,-0.04395 l 0.01465,-0.08593 0.13379,0.01075 0,0.0498 0.384765,0.0752 0.03025,-0.09278 c 0.0343,-0.01395 0.0934,-0.03205 0.153325,-0.04295 l 1.94531,-4.806645 C 59.50466,64.450945 59.3977,64.354645 59.30076,64.28811 c -0.0564,-0.0387 -1.327435,-0.383905 -1.447265,-0.398435 -0.21607,-0.0261 -0.65921,0.201555 -0.81543,0.167965 -0.21688,-0.0465 -0.447995,-0.139095 -0.661135,-0.205075 z m -3.28906,6.243165 -0.177735,0.02635 -0.103515,0.11035 -0.0254,0.11719 0.08008,0.08789 c 0.10903,-0.0215 0.24086,-0.06252 0.33496,-0.124025 l -0.005,-0.13086 -0.10254,-0.08691 -0.001,0 z m 0.216795,0.3916 -0.1084,0.03125 c 0.006,0.12556 0.0099,0.38749 -0.0342,0.50879 -0.0953,0.0993 -0.2288,0.183795 -0.3457,0.253905 l -0.14258,-0.10547 -0.01075,0.0625 c 0.0659,0.0726 0.122665,0.229355 0.108395,0.328125 -0.0388,0.0504 -0.134475,0.09641 -0.197265,0.09961 -0.0637,-0.0304 -0.239815,-0.08846 -0.311525,-0.05567 0.0532,0.0632 0.15541,0.124945 0.19727,0.186525 0.0906,0.13369 0.130965,0.381865 0.213865,0.490235 0.0537,0.0704 0.209825,0.14598 0.260745,0.21582 0.193665,0.26566 0.153615,0.593935 -0.0791,0.813475 l -0.15332,-0.12988 -0.16211,-0.0127 -0.15332,0.13086 0,0.167965 0.138675,0.20508 c -0.0758,0.28298 -0.03585,0.497025 -0.16309,0.805665 -0.0576,0.0304 -0.173285,0.0085 -0.227535,-0.01855 -0.0663,0.16035 -0.36402,0.818635 -0.47852,0.944335 -0.0513,0.0564 -0.305325,0.21483 -0.378905,0.25488 -0.63408,0.34584 -1.45741,0.485245 -2.09082,0.05371 -0.29112,-0.19828 -0.41806,-0.50129 -0.64746,-0.6875 -0.0822,-0.0669 -0.29456,-0.09213 -0.39453,-0.06934 -0.0466,0.177015 0.09443,0.53144 0.17871,0.67773 l -0.14844,0.10547 c -0.0668,0.16462 -0.13736,0.555635 -0.0254,0.719725 -0.11357,-0.061 -0.334315,-0.08325 -0.455075,-0.03125 -0.0228,0.0942 -0.11865,0.28296 -0.22168,0.31641 l -0.172855,-0.08692 c -0.0348,0.19207 -0.13976,0.40942 -0.24707,0.57031 0.23633,0.42401 -0.15174,0.850195 -0.31543,1.209965 -0.0934,0.20541 -0.33542,0.946625 -0.36621,1.154295 -0.004,0.0297 0.01155,0.045 0.01855,0.07422 0.0293,0.12103 0.05046,0.23219 0.07226,0.35742 0.0796,0.454 0.176145,0.82827 0.405275,1.23242 l 0.30957,0.544925 c 0.15263,0.34809 -0.237055,0.587135 0.103515,1.142575 l 0.198245,0.112305 0,0.13672 -0.09375,0.161135 c -0.10183,0.0216 -0.231555,0.07466 -0.311525,0.143555 l -0.158205,-0.05078 -0.0254,0.08691 0.08008,0.09375 0.191405,-0.06347 -0.08789,0.22461 -0.08398,0.05664 0.06348,0.16113 0.266605,0.04295 0.08398,0.11719 0.01075,0.21191 c -0.0479,0.0946 -0.143735,0.196505 -0.231445,0.254885 l -0.23828,0.005 0.01465,0.08106 0.24805,0.042 0.142575,0.143555 c 0.0693,0.28038 0.13748,0.56177 0.22266,0.83789 l -0.20801,0.67578 -0.157225,0.08105 -0.118165,0.222655 c -0.19301,0.08611 -0.47956,0.148815 -0.6875,0.107425 l -0.250975,0.13574 -0.12891,0.235355 0.31641,0.18652 -0.118165,0.546875 -0.24805,0.05469 -0.15234,0.22363 c -0.0239,0.16282 0.07185,0.43553 0.15234,0.57129 l 0.197265,0.08106 c -0.1293,0.22406 0.59103,1.53775 0.7959,1.66211 l 0.03905,0.23633 c 0.17342,0.14463 0.46863,0.240915 0.6875,0.273435 -0.01,0.15343 0.0101,0.318955 0.0293,0.470705 l 0.08301,0 c -0.0179,-0.0994 -0.05726,-0.37997 -0.01855,-0.47754 0.31921,0.120035 0.65522,0.203195 0.992185,0.28418 l 7.37305,-18.21094 c -0.0227,-0.103605 -0.03805,-0.19928 -0.0449,-0.36035 l 0.118165,-0.04395 c 0.02245,0.0055 0.04825,0.02635 0.07324,0.042 l 0.16895,-0.416015 c -0.07317,-0.08101 -0.148035,-0.160805 -0.19727,-0.24707 -0.36043,-0.63174 -0.031,-0.32957 -0.59668,-0.81836 l -0.227535,-0.0127 c -0.0765,-0.089 -0.30299,-0.17477 -0.41016,-0.2041 l -0.01075,-0.125 c -0.11289,-0.0354 -0.26044,-0.10911 -0.34082,-0.19922 -0.0798,-0.0252 -0.25317,-0.04095 -0.33008,0.0059 -0.20394,0.19288 -0.20749,0.49235 -0.28613,0.74414 -0.0964,0.14688 -0.56952,0.07556 -0.69629,-0.01075 l -0.08984,-0.23633 c 0.12477,-0.23113 0.135945,-0.43759 0.08984,-0.69531 l -0.06543,-0.04295 z m -14.71094,21.29199 c -0.54385,0.13569 -0.694285,1.84028 -0.415035,2.06641 L 38.54883,94 c -0.13116,1.01843 -0.29133,2.03654 -0.46875,3.04785 l 0.25293,0.0752 -0.01075,0.06152 -0.266605,-0.0244 -0.25195,0.59473 0.07422,0.09375 0.36133,0.09277 -0.371095,-0.0498 -0.09863,0.05566 c -0.27139,1.080365 -0.192225,1.219265 0.04395,2.259765 0.0201,0.0884 0.01485,0.1948 -0.01955,0.2793 -0.0748,0.18395 -0.144885,0.42463 -0.242185,0.59473 -0.1173,0.20514 -0.3412,0.29438 -0.40918,0.61523 -0.0324,0.15275 -0.16538,1.2768 -0.1875,1.32812 -0.16116,0.3735 -0.775715,1.02221 -0.998045,1.4209 l -0.04295,0.32227 -0.0215,0.16113 0.09375,0.0947 0.13867,0.0166 0.12305,0.35449 0.118165,0.0244 0.005,0.082 c 0.47533,0.14903 1.563825,0.91773 2.035155,1.20898 0.14596,0.0902 0.354945,0.0387 0.499025,0.18653 l 0.271485,-0.0312 0.118165,0.71289 0.12793,0.0195 c 0.0782,-0.0292 0.227105,-0.12523 0.256835,-0.21094 l -0.06933,-0.21777 0.16406,-0.30957 0.350585,0.12988 0.35059,-0.32129 0.725585,0.19727 0.123045,0.53418 0.375975,0.0859 0.05958,0.17383 0.12207,0.0879 -0.004,0.0986 -0.163085,-0.0117 -0.08789,0.52051 c -0.0725,0.092 -0.27715,0.16547 -0.38672,0.18066 -0.11783,-0.064 -0.21919,-0.14937 -0.31543,-0.24121 l -0.05468,-0.0508 -0.953125,-0.26074 c -0.23487,0.30258 -0.48159,0.44987 -0.79004,0.64648 l -0.1875,-0.0254 0.0498,-0.18067 -0.05468,-0.0244 -0.06934,0.16699 c -0.14635,0.0188 -0.320845,0.003 -0.463865,-0.0303 l -0.38965,-0.46679 -1.83789,-0.64453 c -0.17875,0.20808 -1.113555,1.22788 -1.155275,1.42089 0.1157,0.0683 0.26462,0.1803 0.33594,0.29786 0.069,-0.0632 0.22452,-0.10311 0.31543,-0.0801 l 0.19336,0.17285 -0.09473,0.24316 c -0.20261,0.1257 -0.65023,0.11303 -0.86816,0.0615 l -0.05469,0.12402 -0.38086,0.0195 -0.103515,0.11132 0.05957,0.12305 c -0.0893,0.11518 -0.16644,0.25339 -0.22656,0.38574 0.38696,0.15181 0.728435,0.89083 0.759765,1.27832 -0.69699,0.691 -1.381405,1.58063 -2.20703,2.11621 -0.36283,0.2354 -0.79299,0.4351 -1.18555,0.62598 -0.69487,-0.54104 -1.184535,0.0756 -1.743165,0.47266 -0.15702,0.37856 -0.172205,0.85717 -0.242185,1.25879 -0.18461,1.05929 -0.68682,2.07947 -0.1875,3.1289 -0.19794,0.42575 -0.68253,0.8884 -1.05176,1.17285 l 0.375,0.10547 c -0.51439,0.22566 -0.647585,0.52639 -1.021485,0.78711 -0.17115,0.1193 -0.41655,0.17941 -0.59863,0.28711 -0.23606,0.1397 -0.47929,0.35827 -0.69043,0.53809 l -0.232425,0 c -0.598095,0.35643 -0.519795,0.81633 -0.929685,1.17969 0.0139,0.17821 0.07607,0.37719 0.14453,0.54101 -0.0424,0.16369 -0.16635,0.34994 -0.28125,0.4707 l -0.03025,0.28516 c -0.0252,0.0849 -0.232485,0.18037 -0.305665,0.2041 0.0449,0.14568 0.05761,0.34764 0.0244,0.49707 l -0.08399,0.0928 0.51367,-0.042 0.132815,-0.14356 0.20703,0.0186 0.06933,0.125 0.15332,-0.0566 0.197265,0.0615 c 0.50985,0.43415 0.30368,1.24915 0.10254,1.76953 -0.0611,0.15809 -0.142265,0.41517 -0.240235,0.55273 -0.1221,0.17169 -0.42318,0.33181 -0.63672,0.28516 l -0.09961,0.12402 c -0.287385,-0.0416 -1.07263,0.19068 -1.33789,0.29785 -0.18022,0.0728 -0.3326,0.20342 -0.52441,0.2666 l -0.152345,-0.0371 c -0.16662,0.1041 -0.40822,0.31783 -0.48926,0.50391 0.1041,0.27393 -0.609615,1.37936 -0.793945,1.55664 -0.14876,0.14303 -0.316055,0.24523 -0.455075,0.40918 L 21.112305,131 l -0.25781,0.125 -0.592775,-0.11231 c -0.3539,0.18316 -0.92842,0.30783 -1.32324,0.27344 l -0.0097,-0.11133 -0.06934,-0.0127 c -0.022,-0.13436 -0.13238,-0.31094 -0.22168,-0.40918 -0.12037,-0.007 -0.362625,0.0385 -0.444335,0.14161 l -0.0752,-0.17383 -0.13281,0.0937 0,0.14258 -0.27637,0.11718 c -0.13177,-0.0783 -0.3997,-0.18073 -0.55859,-0.16113 l -0.1084,0.0869 -0.375,0.0186 -0.24805,0.16113 -0.26074,-0.081 -0.168945,0.13769 c -0.12143,-0.0467 -0.343615,0.0313 -0.439455,0.10449 l -0.01855,0.29199 c 0.11277,0.16168 0.22243,0.42332 0.41504,0.4961 0.13756,0.22194 0.211035,0.49167 0.0332,0.71387 l -0.09863,-0.005 -0.01955,0.25488 -0.208005,-0.0381 -0.0586,0.0996 0.103515,0.25976 -0.22754,0.10547 -0.35449,-0.0371 0.01955,0.10547 -0.24219,0.22461 -0.133785,-0.0263 -0.04885,0.13184 0.124025,0.0801 c -0.0165,0.14702 0.103365,0.43215 0.06836,0.50879 0.12556,5e-4 0.34729,0.46395 0.40527,0.56446 l 0.410155,0.19824 0.201175,-0.0244 0.456055,0.28613 0.04295,0.16114 0.19336,0.0859 c 0.13769,0.14929 0.14606,0.40945 0.125,0.59766 -0.0468,0.41708 -0.08474,0.72901 -0.49121,0.96094 -0.0263,0.015 -0.138955,0.0157 -0.171875,0.0303 -0.28193,0.1253 -0.95006,0.50852 -1.13574,0.73925 l 0.142575,0.16114 -0.108395,0.27246 -0.27637,0.0811 -0.208005,-0.0986 -0.12305,0.042 -0.06933,0.1123 c -0.0202,0.08 0.0335,0.22641 0.07422,0.29199 0.16582,0.0936 0.376345,0.21355 0.503905,0.35938 l 0.04005,0.39843 c -0.20568,0.25633 -0.43483,0.53528 -0.49414,0.86719 0.11063,0.30152 0.215305,0.62245 0.276365,0.93848 -0.10264,0.25366 -0.31301,0.51406 -0.49414,0.71387 -0.11131,0.0195 -0.24871,0.0683 -0.34082,0.13574 l 0.0449,0.11816 -0.143555,0.21094 c 0.01,0.16009 -0.0151,0.34218 -0.05371,0.49707 -0.26246,0.42907 -0.439995,0.38776 -0.795895,0.60156 -0.0946,0.19567 -0.16862,0.40818 -0.23633,0.61426 -0.14916,0.0437 -0.388065,0.36223 -0.464845,0.4834 -0.37843,-0.034 -1.15277,0.7401 -1.44629,0.68945 l -0.05957,-0.13672 c -0.10577,-0.019 -0.288665,0.0461 -0.375975,0.0996 l -0.06934,0.0996 -0.2666,-0.0742 -0.083985,-0.18652 c -0.18321,-0.0788 -0.393985,-0.0474 -0.533205,0.0986 -0.0354,0.12623 0.0292,0.36607 0.0791,0.47949 -0.0818,0.0624 -0.16572,0.1618 -0.21191,0.25391 0.16129,0.1193 0.303055,0.30584 0.429685,0.45899 l -0.054685,0.18652 -0.124025,0.0547 -0.157225,-0.16114 c -0.0858,-0.0378 -0.243605,-0.0312 -0.326175,0.0127 l -0.06836,0.11231 -0.242185,0.11719 c -0.18508,0.26606 -0.172805,0.4499 -0.138675,0.76367 0.0954,0.064 0.77422,0.31577 0.86426,0.33496 0.0183,0.004 0.225375,-0.0163 0.256835,-0.0186 0.28712,0.10423 0.45889,0.394 0.69629,0.57715 l 0.1084,0.0127 c 0.1181,0.83815 -0.03365,1.16394 -0.384765,1.90038 l -0.19727,0.41505 c -0.15123,0.24179 -0.339635,0.30124 -0.429685,0.64355 -0.27411,0.11436 -0.380375,0.32121 -0.598635,0.47851 -0.23553,0.16968 -0.51986,0.31396 -0.76953,0.46485 -0.12569,0.076 -0.286735,0.0744 -0.384765,0.18554 l 0,0.0937 c 0.59209,0.18995 0.83339,0.82404 1.32324,1.16114 l -0.0498,0.0371 -0.31641,-0.18653 -0.08789,0 c -0.0721,-0.11463 -0.154075,-0.22632 -0.242185,-0.3291 l -0.103515,-0.006 -0.16309,-0.19824 -0.0791,-0.0175 c -0.0413,-0.0742 -0.137665,-0.19328 -0.217775,-0.23047 l -0.063475,0.0186 c 0.37136,0.63688 0.31243,0.63036 0.10742,1.33789 -0.0871,0.30085 -0.20787,0.5606 -0.37988,0.82226 -0.0924,0.14063 -0.17994,0.27572 -0.28711,0.40528 -0.0193,0.0234 -0.03935,0.0309 -0.04885,0.0596 -0.0559,0.16636 -0.04115,0.37182 -0.09375,0.54004 -0.0783,0.2506 -0.22534,0.4881 -0.30566,0.73828 -0.0272,0.0848 0.002,0.20669 -0.0244,0.29199 -0.0515,0.16649 -0.159725,0.32495 -0.217775,0.49023 -0.0931,0.26526 -0.162345,0.54928 -0.24219,0.81934 -0.003,0.0102 -0.08265,0.10936 -0.09375,0.12402 l 0.03515,0.37207 c -0.14236,0.15049 -0.092475,0.27543 -0.12891,0.3418 -0.1079,0.19635 -0.21002,0.41401 -0.33105,0.60156 -0.0348,0.054 -0.112795,0.0975 -0.15332,0.14942 -0.112235,0.14369 -0.10519,0.55689 -0.12305,0.75683 -0.10177,0.0732 -0.204775,0.1446 -0.310545,0.21192 l -0.163085,0.33399 c -0.10684,0.008 -0.2455,0.0465 -0.33594,0.10644 l 0.04885,0.0811 0.13867,-0.11914 0.14258,0.0811 c 0.0639,0.4212 -0.187945,0.4521 -0.384765,0.73828 -0.15842,0.23034 -0.29585,0.57077 -0.38477,0.83789 l -0.13867,0.0498 c -0.15423,0.17888 -0.309245,0.38564 -0.418945,0.59571 0.0806,0.1261 -0.0328,0.56243 -0.075195,0.68945 -0.29272,0.27138 -0.72358,0.76233 -0.84961,1.13476 -0.26353,0.77884 0.14149,0.41178 -0.52832,1.20996 l -0.192385,0.23047 c -2.8e-4,0.055 3.65e-4,0.62911 -0.004,0.64551 -0.13396,0.47866 -0.970125,1.72095 -1.245115,2.16601 -0.0615,0.0996 -0.17117,0.20654 -0.24707,0.29785 0.19314,0.20834 0.286155,0.65657 0.256835,0.92969 -0.031,0.28885 -0.188585,0.5725 -0.211915,0.88281 L 0.37,172.25186 c -0.0187,0.38096 0.180295,1.09202 0.063475,1.36621 l 0.168945,0.0674 0.118165,0.31641 c -0.0342,0.19781 -0.13281,0.47358 -0.13281,0.66992 0,0.15849 0.11069,0.34817 0.11816,0.50879 0.013,0.28059 -0.078285,0.59122 -0.054685,0.86914 0.0305,0.35896 0.1647,0.7398 0.22168,1.09864 0.0306,0.19247 -0.0035,0.39097 0.05078,0.58398 l -0.19922,0.0117 0.00585,0.0937 0.06836,-0.0439 0.17285,0 c 0.10191,0.84549 0.0324,1.08943 -0.26074,1.79883 0.0188,0.26366 0.181295,0.67814 0.384765,0.85742 -0.0483,1.01611 0.375565,1.47251 0.384765,2.13965 2.7e-4,0.0272 -0.144635,0.59012 -0.151365,0.61718 -0.0301,0.12063 -0.073055,0.28445 -0.164065,0.38282 -0.25413,0.1349 -0.672485,0.14103 -0.938475,0.0566 l -0.226565,0.0986 0.08301,0.41504 c 0.2482,0.0632 0.55008,0.38219 0.62793,0.62012 l 0.73535,0.0635 0.103515,-0.0928 0.311525,-0.0254 0.180665,0.0889 c 0.55971,0.27592 0.62005,0.17871 1.25586,0.17871 0.1325,0 0.278665,0.0232 0.410155,0.042 l 0.064455,-0.17285 0.191405,-0.10645 0.82617,0.40918 c 0.11777,0.13875 0.206445,0.35903 0.246095,0.53418 0.0601,0.0872 0.28608,0.14168 0.38086,0.14942 l 0.078125,0.13671 c 0.1109,0.10584 0.50742,0.0969 0.642575,0.0801 l 0.14844,0.15528 0,0.19238 0.250975,0.0684 c 0.27793,0.34097 0.252515,0.58744 0.692385,1.01172 l 0.123045,-0.006 c 0.36836,0.27059 0.440615,0.96824 0.829105,1.16699 l -0.0342,0.12988 -0.12305,0.0986 c -0.0215,0.0683 -0.0161,0.19317 0.0244,0.25489 0.0681,0.0208 0.18462,0.0106 0.24707,-0.0244 l 0.073245,-0.19141 c 0.107195,-0.12226 0.563725,-0.20283 1.01367,-0.29883 l 37.48747,-92.5917 c -0.159585,-0.0397 -0.285505,-0.13973 -0.46289,-0.23047 -0.56037,-0.28652 -2.17681,-1.02124 -2.58789,-1.37207 l 0.271485,-0.51465 -0.271485,-0.100585 -0.03515,0.100585 0.09863,0.06152 -0.06933,0.13672 -0.08789,-0.0371 -0.0303,0.0498 0.06933,0.06153 -0.1084,0.180665 c -0.099,-0.0848 -0.202235,-0.0669 -0.296875,-0.118165 -1.54369,-0.83636 -3.105215,-1.634235 -4.662105,-2.445315 -0.0191,-0.01 -0.08009,-0.0189 -0.10352,-0.0244 z m 109.58887,20.193365 c -0.10784,0.0678 -0.24781,0.0971 -0.31153,0.21777 0.0488,0.11171 0.0812,0.23519 0.1045,0.35449 l 0.1621,0.0117 0.0264,-0.15527 -0.0547,-0.11816 0.14844,-0.0557 0.0283,-0.0986 -0.10351,-0.15625 z m 1.30468,4.53125 -0.0937,0.0928 0.22657,0.0605 0.0147,-0.0801 -0.14747,-0.0732 z m -0.45019,0.21777 c -0.15022,0.0592 -0.36642,0.0602 -0.52344,0.042 l -0.0342,0.0625 -0.2373,0.0684 -0.0244,0.292 c -0.14142,0.0889 -0.15975,0.20649 -0.2168,0.34765 l 0.084,0 0.083,-0.0879 0.13868,0.0244 0.14257,0.25488 c 0.0877,-0.0118 0.24738,-0.21734 0.24805,-0.30371 l 0.20606,-0.0869 -0.0635,-0.34766 0.16797,-0.0742 0.0293,-0.1914 z m -1.78711,11.52929 -0.1582,0.11231 0.0937,0.1045 0.20703,0.0371 0.16894,-0.12891 c -0.0853,-0.0541 -0.20875,-0.1154 -0.31152,-0.125 z m -1.21484,4.28223 c 0.0683,0.0822 0.13488,0.21075 0.15234,0.31739 l 0.1582,0.0615 0.0693,-0.0879 -0.37988,-0.29101 z m -3.58594,3.27637 -0.0937,0.0869 0.0742,0.1123 c 0.15036,0.0512 0.35674,0.0636 0.51269,0.0371 -0.17955,-0.0708 -0.28629,-0.23727 -0.49316,-0.23633 z m -0.14844,0.26758 0.10449,0.19141 0.19727,0.0879 0.0693,-0.1123 -0.37108,-0.16699 z m -1.70312,12.9873 c -0.0827,-0.005 -0.15928,0.002 -0.22266,0.0264 l -0.0439,0.23437 c 0.096,0.50879 0.82293,0.70818 1.16016,1.04395 0.0671,0.0668 0.10384,0.18915 0.16796,0.26074 0.17101,0.19101 0.58299,0.45709 0.83985,0.44629 -0.17289,-0.0577 -0.39621,-0.26445 -0.46485,-0.43359 0.15248,-0.15009 0.38675,-0.28492 0.5879,-0.3545 l 0.0937,-0.14258 c -0.25633,-0.14276 -0.6975,-0.19303 -0.91797,0.0498 l -0.40039,-0.3418 0.0889,-0.24902 -0.1875,-0.29102 c -0.15096,-0.11057 -0.45297,-0.23446 -0.70117,-0.24902 z m 1.51074,22.80665 -0.35547,0.0879 0.21777,0.24804 0.2959,0.0381 0.1084,-0.14356 -0.2666,-0.23046 z m -7.55762,2.04394 -0.17578,0.19141 0.30957,0.76562 c 0.12529,0.01 0.29376,0.031 0.34473,0.0215 0.0205,-0.004 0.39236,-0.17767 0.43554,-0.19726 l 0.11328,-0.37207 c -0.10824,-0.21927 -0.78567,-0.40865 -1.02734,-0.40918 z m 3.27149,0.99414 c -0.31445,-0.0353 -0.64084,0.24449 -0.79981,0.48242 0.14796,0.0834 0.37036,0.15909 0.54297,0.1543 0.20808,-0.10517 0.42308,-0.25618 0.59277,-0.41601 l -0.20312,-0.18555 c -0.0439,-0.0189 -0.0879,-0.0301 -0.13281,-0.0352 z m 3.24121,2.69141 c -0.22685,0.002 -0.45348,0.0391 -0.66016,0.10547 -0.33204,0.27606 -0.69486,0.58687 -0.97852,0.91211 -0.20527,0.2354 -0.34344,0.50481 -0.58202,0.71875 -0.50307,0.22114 -1.32547,-0.13764 -1.88184,-0.0801 l -0.39551,0.1416 -0.042,0.0147 2.97852,7.3584 c 0.17931,-0.0606 0.35348,-0.13454 0.51074,-0.22266 0.37202,-0.0349 0.69302,0.235 0.77539,0.58984 0.18488,0.16982 0.74681,0.2327 0.97754,0.2295 l 0.17285,-0.22949 c 0.27512,5e-4 0.56624,0.0531 0.83496,0.10547 l 0.2666,-0.13672 0.4502,0.0928 c 0.3475,-0.083 0.86021,-0.26601 1.13574,-0.50781 0.24246,0.0761 0.55463,0.0807 0.80469,0.0615 l 0.2168,-0.24707 0,-0.57813 -0.14258,-0.125 -0.60254,0.082 -0.1543,-0.0625 -0.0937,-0.35938 c 0.34749,-0.14303 0.58631,-0.30885 0.74707,-0.65234 l 0.16699,0.0928 c 0.29645,-0.089 0.63994,-0.12881 0.94825,-0.13574 -0.18488,-0.22567 -0.51559,-0.44047 -0.79004,-0.53418 l 0.0449,-0.30957 0.2168,-0.16895 0.28222,-0.0303 c 0.12277,0.0878 0.27171,0.16726 0.41407,0.21778 l 0.0791,-0.12403 -0.14258,-0.3916 c -0.33604,-0.18729 -0.72865,-0.28693 -1.09668,-0.14844 -0.0531,0.02 -0.20521,0.12482 -0.24707,0.13575 -0.23406,0.0613 -0.50505,0.0847 -0.74511,0.125 l -0.1875,-0.31055 -0.1836,-0.0488 c -0.25219,0.10424 -0.40198,0.2774 -0.4541,0.54492 l -0.40039,0.15527 c -0.21634,0.52998 -0.70859,0.49743 -1.07129,0.8252 -0.24179,0.21848 -0.45957,0.50185 -0.68164,0.74511 l -0.83887,0.0254 c -0.20235,-0.12262 -0.43975,-0.43187 -0.49414,-0.66406 0.10504,-0.49093 0.38502,-0.51163 0.54297,-0.77636 0.19248,-0.32257 0.26851,-0.73268 0.45899,-1.06739 -0.23566,-0.57209 -0.80171,-0.55439 -1.31836,-0.54199 l -0.35547,0.009 c -0.18568,0.0501 -0.43911,0.21201 -0.61719,0.29786 l -0.17285,-0.16114 c 0.36509,-0.4524 0.7593,-0.88665 1.15039,-1.3164 l 0.41504,-0.13575 c 0.1189,-0.26873 0.55996,-0.55469 0.80469,-0.73144 l 0.0195,-0.26172 c -0.22593,-0.0207 -0.4709,-0.0936 -0.68164,-0.17383 l -0.12305,-0.36035 0.12305,-0.47754 c 0.20714,-0.0128 0.61334,-0.14142 0.73144,-0.33496 0.51332,-0.0374 1.02521,-0.12448 1.53613,-0.16113 0.27166,-0.0194 0.58368,0.0174 0.84961,-0.0254 0.0153,-0.003 0.27949,-0.14501 0.31055,-0.16114 0.20488,0.12343 0.68058,-0.0243 0.86426,-0.125 l -0.87891,-0.49609 c -0.18875,0.0163 -0.37837,0.0976 -0.55859,0.11133 -0.30164,0.0231 -0.79217,0.0713 -1.08594,0.0312 -0.0352,-0.005 -0.44031,-0.22205 -0.51269,-0.24805 -0.20501,-0.0738 -0.43233,-0.10732 -0.65918,-0.10547 z m 2.5791,12.0332 c -0.18648,0.0691 -0.43927,0.20434 -0.63281,0.23633 -0.11983,0.0198 -0.26787,-0.0155 -0.38477,0.0108 -0.14809,0.0332 -0.63729,0.20319 -0.74512,0.33008 l -0.28222,-0.0439 -0.21192,0.26172 c -0.10789,0.01 -0.23732,0.0511 -0.35937,0.1084 l 0.52734,1.30175 c 0.57349,-0.0909 1.17377,-0.30303 1.45606,-0.59179 l 0.29687,-0.95703 0.57227,-0.29688 -0.23633,-0.35937 z M 74.817385,260 l -36.04785,5.04687 c 0.21037,0.0349 0.44255,0.0994 0.716795,0.23145 l 0.22754,0.49707 0.183595,0.0859 0.05859,0.32812 0.237305,0.24219 c 0.007,-0.11195 0.107825,-0.27013 0.197265,-0.33398 0.0157,0.003 0.114165,0.0274 0.124025,0.0254 0.46627,-0.0974 0.87148,-0.15769 1.35254,-0.0879 0.13916,0.0202 0.29688,0.1247 0.43457,0.13575 0.2242,0.018 0.492765,-0.0365 0.720705,-0.043 0.38496,-0.0106 0.76792,0.0267 1.15234,-0.009 0.2482,-0.0227 0.57115,-0.10493 0.81348,-0.0967 0.11983,0.004 0.688175,0.24267 0.765625,0.30371 0.23926,0.18875 0.37434,0.8065 0.41406,1.10547 0.0177,0.1333 -0.0115,0.26887 0.0205,0.4043 l 0.1875,0.14746 c 0.48612,-0.24724 0.86546,-0.59539 1.41211,-0.74414 0.09,-0.0246 0.21329,0.008 0.30566,-0.0127 0.063,-0.0139 0.29701,-0.12494 0.3418,-0.12988 0.37176,-0.0405 0.82035,-0.0423 1.19531,-0.0371 0.17342,0.003 0.353395,0.0524 0.527345,0.0615 0.0627,0.003 0.376875,-0.0207 0.411135,-0.0127 0.17795,0.0413 0.982885,0.41046 1.139645,0.52734 0.37749,0.28152 0.68558,0.69064 1.11133,0.90724 0.11023,-0.0172 0.25279,-0.14507 0.30664,-0.23731 0.0164,-0.20447 0.09261,-0.67965 0.22754,-0.84961 0.29112,-0.36681 1.021255,-0.40861 1.447265,-0.37793 0.0808,0.006 0.17654,0.045 0.25586,0.043 0.57943,-0.015 0.38438,-0.33894 1.205075,-0.0498 0.190225,-0.0518 0.608435,-0.12418 0.800785,-0.0928 0.12143,0.0199 0.248415,0.10989 0.370115,0.13574 0.41401,0.0883 0.637915,-0.14711 1.160155,0.0684 0.0375,0.0156 0.16416,0.15828 0.20801,0.18066 0.1433,0.073 0.31453,0.0676 0.46875,0.16211 0.0249,0.0153 0.135285,0.11293 0.152345,0.11719 0.51705,0.1289 0.654105,-0.0121 1.131835,0.35253 0.27539,0.21021 0.534985,0.67221 0.666015,0.99317 l -0.0342,0.25488 c -0.0829,0.003 -0.349375,0.35798 -0.410155,0.42969 l -0.123045,0.0293 c -0.0162,0.10104 -0.0906,0.23848 -0.143555,0.32324 -0.10904,0.0235 -0.23891,0.10721 -0.31543,0.18652 -0.0591,0.11503 -0.07137,0.31541 -0.05957,0.44043 0.27885,0.4504 1.03843,0.81879 1.46191,1.16016 l 0.33594,0.0254 0.123045,0.14258 0.18848,-0.0127 c 0.13236,0.0902 0.147545,0.20046 0.236325,0.29882 0.17875,0.19794 0.54567,0.42533 0.45996,0.75684 -0.17102,0.3379 -0.643365,0.46753 -0.657225,0.90527 0.0261,0.18033 0.100025,0.37565 0.177735,0.53907 l -0.0498,0.33691 -0.09766,-0.0312 -0.06543,0.0684 c -0.0225,0.24555 0.136605,0.62386 0.301755,0.7998 l 0.004,0.2295 0.17773,0.0254 c 0.0691,-0.0224 0.16496,-0.0839 0.20801,-0.14356 l 0.177735,0.082 c 0.054,0.1297 0.11254,0.27387 0.192385,0.39063 l 0.38574,0.0928 c 0.12677,0.11023 0.242485,0.25786 0.335935,0.39649 l 0.12305,0.007 c 0.0261,-0.13355 0.175175,-0.3093 0.296875,-0.36621 0.26366,-0.0313 0.657785,0.0484 0.819335,0.27929 0.32031,0.77993 -0.3361,1.6004 0.4834,2.14063 l 0.256835,0.0381 0.17285,-0.0752 c 0.0862,-0.19608 0.27257,-0.29216 0.34668,-0.49023 0.082,-0.0191 0.207705,-0.0921 0.251955,-0.16699 l 0.256835,0.0986 c 0.0818,0.23725 0.303775,0.39424 0.37988,0.65137 0.0304,0.1025 -0.0667,0.3797 -0.0498,0.52832 l 0.296875,0.21777 c 0.21727,-0.0748 0.464345,-0.19644 0.666015,-0.006 0.21048,0.003 0.39927,-0.19397 0.59375,-0.24316 0.29512,-0.0746 0.451885,0.0669 0.859375,-0.18555 l 0.17285,0.0547 0.30957,-0.12305 0.05469,-0.27344 0.30566,-0.13672 c 0.46973,0.0115 1.0851,0.0786 1.50684,0.31055 0.15556,0.0856 0.382195,0.34288 0.557615,0.36035 l 0.13867,0.32227 -0.03905,0.29883 -0.124025,0.0801 -0.06934,0.26464 c -0.0738,0.28377 0.05945,0.34743 0.168945,0.59082 0.0549,0.1221 0.05648,0.2446 0.158205,0.34766 0.2374,0.052 0.548665,0.42931 0.631835,0.63965 0.0117,0.0297 0.0093,0.20452 0.01955,0.24902 0.0471,0.19756 0.2319,0.47163 0.35547,0.62598 0.15755,0.0411 0.39077,0.21137 0.51367,0.31055 l 0.0498,0.22949 0.305665,0.17969 c 0.3355,-0.11287 0.85957,-0.026 1.08203,0.27343 l 0.36914,0.0429 0.28223,-0.13672 c 0.31205,0.0559 0.698255,0.0255 1.012695,-0.0303 0.11597,-0.0205 0.234745,-0.0788 0.350585,-0.0937 0.25072,-0.0323 0.66114,0.0279 0.88867,-0.0362 0.0474,-0.0134 0.180705,-0.11977 0.232425,-0.13672 0.31684,-0.10382 0.65945,-0.17573 0.98242,-0.26172 0.1169,-0.0312 0.29821,-0.008 0.39551,0.0684 0.18195,-0.19074 0.70351,-0.21896 0.94824,-0.24707 0.16488,-0.0188 0.33964,-0.0117 0.50293,-0.0381 0.21847,-0.0353 0.400825,-0.1292 0.637695,-0.12402 0.3323,0.007 1.07672,0.80626 1.75293,0.83105 0.0742,0.16117 0.589815,0.45595 0.765625,0.42969 0.12051,0.19183 0.95718,0.3479 1.13086,0.25977 0.0425,-0.0658 0.158265,-0.1347 0.237305,-0.13672 l 0.13379,-0.17383 c 0.19528,0.006 0.494745,0.12632 0.651365,0.23535 0.29858,0.20794 1.241835,0.97751 1.476565,1.2793 0.11783,0.15156 0.212505,0.33144 0.335935,0.47754 0.15236,0.18033 0.3823,0.3358 0.54785,0.51562 l -0.40527,1.0166 -0.08398,0.0566 c 0.16555,0.1677 0.7205,0.72882 0.92871,0.8877 l 0.08886,-0.0566 c -0.30312,-0.26594 -0.59356,-0.54949 -0.88867,-0.82422 l 0.2959,-0.70215 0.844725,0.57715 0.03905,-0.0615 0.31152,0.19824 -0.2666,0.31152 -0.22754,0.0606 -0.03905,0.0498 0.005,0.0557 0.05469,0.0244 c 0.1898,-0.0328 0.32654,-0.19613 0.43945,-0.33984 l 0.08789,-0.0127 c 0.19781,0.0933 0.242345,0.276 0.272465,0.47754 0.15729,0.0973 0.22674,0.38834 0.32031,0.5459 l -0.09863,0.0625 0.70117,1.23437 c -0.1021,0.0837 -0.20952,0.0776 -0.30176,0.13086 l -0.84863,0.49023 0.05469,0.10547 0.859375,-0.46777 c 0.0492,-0.0267 0.236925,-0.19483 0.399415,-0.27148 0.14249,0.34284 0.403665,0.71206 0.458985,1.08007 l 0.07422,0.0127 -0.04395,0.28516 c -0.1189,0.0792 -0.286735,0.23899 -0.266605,0.39746 0.0398,0.31298 0.260805,1.42038 -0.222655,1.60645 -0.15636,-0.007 -0.25004,0.0475 -0.38574,0.0752 -0.23913,0.0489 -0.275905,0.0174 -0.439455,0.26758 0.0402,0.17915 -0.08299,0.35843 -0.118165,0.52637 -0.0129,0.0619 0.0127,0.14311 0,0.20507 -0.0408,0.20077 -0.55425,0.94188 -0.73047,1.08692 -0.17248,0.14196 -0.53494,0.37334 -0.76074,0.43359 -0.0228,0.006 -0.357905,0.0633 -0.371095,0.0625 -0.43721,-0.0243 -0.882505,-0.53176 -1.396485,-0.19238 -0.21567,0.25779 -0.044,0.64584 0.01365,0.9375 l -0.09375,0.23535 0.05468,0.13672 -0.08301,0.21094 0.01465,0.0928 0.18262,0.18555 c 0.35189,-0.0736 0.78311,0.65407 1.39746,0.47851 0.49533,0.1701 0.478455,0.44378 0.725585,0.84473 l 0.104495,-0.0254 c 0.0996,-0.13103 0.257135,-0.3093 0.404295,-0.39062 0.0941,-0.48439 0.33368,-0.38561 0.6416,-0.63965 0.0435,-0.0359 0.05427,-0.0697 0.08887,-0.11426 0.10143,-0.13022 0.1976,-0.29222 0.30664,-0.41406 0.0738,-0.0825 0.168475,-0.14588 0.242185,-0.22851 0.0465,-0.0521 0.07817,-0.13865 0.12793,-0.18555 0.19381,-0.1825 0.46988,-0.0808 0.68262,-0.0254 0.43494,0.11302 0.638585,0.35232 0.873045,0.71289 0.0853,0.0213 0.191825,0.0496 0.266605,0.0986 l -0.03905,0.13184 c 0.20714,0.27127 0.39423,0.47446 0.75586,0.45898 l 0.345705,0.26074 0.04885,0.14258 -0.06445,0.12403 0.01565,0.14257 0.202145,0.0312 c 0.0401,0.20728 0.638125,0.47305 0.799805,0.76856 l 0.005,0.13086 0.14746,0.0312 0.05469,-0.19336 0.158205,-0.0371 0.11914,-0.18555 0.123045,-0.0429 0.004,-0.13086 0.25781,-0.2539 c 0.15556,-0.0394 0.440285,2.4e-4 0.592775,0.0303 l 0.0244,-0.0996 c 0.0438,0.007 0.45155,0.0713 0.46875,0.0693 0.49119,-0.0583 0.90816,-0.35207 1.55078,-0.33594 0.22846,0.006 0.20689,0.086 0.44922,-0.0117 l 0.277345,-0.1123 0.51758,0.0996 c 0.16582,-0.0777 0.3342,-0.18081 0.47949,-0.292 l 0.16797,0.0303 0.0937,-0.11035 -0.11816,-0.0196 0.0683,-0.0615 0.2959,-0.0439 -0.1123,-0.0684 0.11816,-0.27247 0.13281,0.0322 0.11915,0.1543 c 0.0692,-0.0802 0.0954,-0.40857 0.0986,-0.50879 l -0.11426,-0.16211 c 0.24739,-0.29125 -0.0123,-1.26133 -0.0635,-1.57617 -0.007,-0.0415 -0.0836,-0.14596 -0.0889,-0.18554 -0.0149,-0.11237 0.0349,-0.2565 0.0147,-0.36622 -0.068,-0.36522 -0.42632,-0.54246 -0.71583,-0.69628 -0.16729,-0.0888 -0.32535,-0.25374 -0.48437,-0.32813 -0.33164,-0.155 -1.322085,-0.12794 -1.704105,-0.42187 -0.1269,-0.0976 -0.496875,-0.74473 -0.606445,-0.93067 l -0.154295,-0.0752 c -0.0419,-0.13901 -0.23777,-0.29829 -0.36426,-0.35254 l 0.004,-0.16895 c -0.0901,-0.0265 -0.17903,-0.0587 -0.2666,-0.0928 -0.42361,-0.45157 -0.24631,-1.13698 -0.11328,-1.66895 l -0.132815,-0.17968 0.05273,-0.16211 -0.06347,-0.2295 -0.09864,-0.0127 -0.0244,-0.0859 -0.19824,-0.0625 -0.04395,-0.14844 -0.271485,0.0742 c -0.96266,-0.2134 -0.377865,-1.81694 -0.211915,-2.40332 0.32031,-1.13168 0.74109,-1.38949 1.48047,-2.23242 0.29392,-0.33513 0.541645,-0.75454 0.854495,-1.06739 0.45933,-0.45933 1.078215,-0.84764 1.63086,-1.17968 0.52131,-0.31325 1.11306,-0.5723 1.67383,-0.80567 0.2278,-0.0948 0.4843,-0.1472 0.69531,-0.27929 l 0.0147,-0.18555 c -0.16022,-0.0965 -0.5851,-0.62164 -0.66601,-0.75879 -0.0187,-0.0317 -0.0386,-0.27159 -0.0586,-0.30957 -0.26205,-0.49839 -0.44099,-0.41192 -0.49511,-1.11719 -0.0247,-0.32073 0.0712,-0.66445 0.0352,-0.99316 -0.0198,-0.18166 -0.0947,-0.36433 -0.11426,-0.5459 -0.006,-0.0545 -0.0603,-1.04402 -0.0586,-1.05469 0.002,-0.0139 0.4318,-1.30175 0.44433,-1.32812 0.13276,-0.27834 0.54372,-0.7419 0.73047,-1.04688 l 0.38574,-0.6289 c 0.18422,-0.32858 0.32384,-0.71704 0.52832,-1.03028 0.21527,-0.32978 0.5536,-0.74613 0.82032,-1.03711 0.16382,-0.17875 0.4817,-0.46515 0.68164,-0.60058 0.40255,-0.27299 1.36444,-0.59039 1.63476,-1 0.0888,-0.39054 0.0584,-0.79789 0.13672,-1.17871 0.12663,-0.61529 0.39812,-1.18886 0.40039,-1.83106 l 0.16797,-0.0362 0.0693,-0.14941 -0.0498,-0.29883 c 0.13996,-0.26447 0.60814,-0.99459 0.92871,-1.0791 l 0.005,-0.23047 c 0.15137,-0.16838 0.43506,-0.40727 0.73242,-0.62012 L 74.817385,260 Z m 33.600585,23.60156 -0.0732,0.0263 c -0.0374,0.096 -0.0245,0.21022 -0.045,0.31152 -0.0643,0.0259 -0.12712,0.0577 -0.1875,0.0918 -0.0461,0.0673 -0.0789,0.17904 -0.0742,0.26074 0.0444,0.0502 0.0823,0.13323 0.0937,0.19922 -0.0677,0.0885 -0.31428,0.53141 -0.31641,0.62207 l 0.0693,0.12989 0.0742,-0.0254 0.0108,-0.0772 c 0.22927,-0.0874 0.48249,-0.0787 0.64551,-0.29298 0.0633,-0.0832 0.076,-0.21546 0.13867,-0.30664 -0.0184,-0.0572 -0.033,-0.13911 -0.0205,-0.19922 -0.0722,-0.028 -0.15458,-0.12688 -0.18164,-0.19726 0.0528,-0.0384 0.10375,-0.0912 0.13867,-0.14649 -0.0375,-0.0808 -0.0251,-0.28085 -0.0156,-0.36523 l -0.0879,-0.0186 -0.0547,0.0635 c -0.0405,-0.008 -0.0904,-0.0435 -0.11426,-0.0762 z m -1.2832,2.60059 c -0.17902,0.10251 -0.34873,0.31144 -0.47949,0.46582 l -0.12891,-0.0283 -0.12207,0.0644 c -0.14249,0.28271 0.18791,0.79495 -0.0254,1.10059 0.0116,0.0733 0.0624,0.15929 0.0693,0.22461 0.0349,0.33125 -0.3827,0.20034 0.0147,0.98144 l 0.1875,0.10547 0.16308,-0.0771 0.01,-0.12792 c 0.71753,0.0767 0.94938,-0.92749 1.20117,-1.01465 0.0804,-0.16129 -0.18037,-0.91718 0.31055,-1.25684 l -0.0498,-0.12598 -0.20605,-0.082 -0.13868,0.0273 -0.0752,-0.1582 c -0.24394,-0.0786 -0.48373,-0.0526 -0.73047,-0.0986 z"
     id="rect4"
     inkscape:connector-curvature="0" />
  <path
     style="fill:#fcd116;fill-opacity:1"
     d="m 83.83301,135.76855 -76.05176,93.62989 1.81543,1.4746 -0.71875,0.89161 c 0.0084,0.11947 0.0446,0.22762 0.26172,0.44238 0.0577,0.17835 -0.0423,0.48869 -0.157225,0.62598 l -0.24805,0.10058 c -0.0971,0.61516 -0.178195,1.23787 -0.295895,1.84863 -0.10304,0.53465 -0.21158,0.53815 -0.375,0.93164 -0.0536,0.12903 -0.063685,0.4421 -0.067385,0.56153 -0.0307,0.96399 0.0061,1.68828 0.74707,2.40234 0.18208,0.17541 0.291805,0.43373 0.544925,0.52344 0.41522,-0.0747 0.8801,0.36881 1.08691,0.66992 0.14982,0.21821 0.0496,0.44922 0.433595,0.68262 l 0.217775,0.0244 c 0.10084,0.16395 0.7796,0.20165 0.96289,0.24804 0.18835,0.0476 0.412025,0.12122 0.592775,0.19239 0.2326,0.0916 0.34352,0.23133 0.5332,0.36035 0.21927,0.14916 0.523025,0.26573 0.762695,0.38476 l 0.200195,0.0996 c 0.0913,0.0818 0.142055,0.24429 0.232425,0.32813 0.30125,0.27938 1.01497,0.69179 1.13574,1.07422 0.0364,0.11517 0.01915,0.35201 0.04005,0.49023 l 0.66211,0.71973 0.0244,0.14258 -0.06933,0.13672 0.0283,0.0918 c 0.0926,0.30032 0.22081,0.65531 0.52539,0.8086 0.29804,0.15009 0.70029,0.16618 1.0166,0.29199 0.64875,0.25792 1.002285,0.45636 1.536135,0.90625 0.86081,0.72538 0.49234,1.06349 0.74121,1.33301 0.10517,0.11397 0.254415,0.21081 0.370115,0.3164 0.33431,0.30499 0.64692,0.6417 0.9375,0.98828 -0.066,0.32203 0.19824,0.61924 0.15332,0.92969 -0.0576,0.10756 -0.160465,0.22632 -0.203125,0.33496 -0.18994,0.48319 0.0272,1.20452 0.385745,1.56348 0.27859,0.27888 0.61834,0.50905 0.89453,0.79004 l 0.30078,0.51855 c 0.0958,0.15315 0.216745,0.23606 0.320315,0.37403 0.27459,0.36537 0.499685,0.87785 0.870115,1.16601 0.37443,0.29139 0.9746,0.0997 1.3125,0.49024 0.27979,0.32325 -0.01905,0.36669 0.62793,0.75097 0.0355,0.22833 0.15826,0.42918 0.1084,0.66406 l 0.08008,0.0811 c 0.13436,-0.0287 0.3675,0.11522 0.45801,0.19922 0.22873,-0.0693 0.99348,0.25801 1.21875,0.38184 l 0.49121,0.26953 c 0.243,0.11583 0.51825,0.0491 0.74512,0.24219 0.18368,0.15634 0.24476,0.34568 0.38086,0.52148 0.07959,0.10278 0.21134,0.20033 0.30371,0.2959 l 0.16406,0.16992 c 0.005,0.009 0.06773,0.24405 0.06933,0.25977 0.0143,0.13464 -0.04935,0.35326 -0.01955,0.52148 0.0368,0.20675 0.19421,0.35823 0.2666,0.54004 0.0702,0.17663 0.09244,0.39089 0.153325,0.57617 l 0.202145,0.15528 c 0.0379,0.10597 0.08355,0.2285 0.09375,0.34179 0.31125,0.16795 0.414245,0.0382 0.780275,0.41015 -0.0674,0.0732 -0.15859,0.25559 -0.12793,0.36036 0.31697,0.03 0.661855,-0.031 0.967775,0.0117 0.30883,0.0431 0.79106,0.27029 1.06152,0.42676 l -0.0293,0.25 c 0.19874,0.18916 0.546205,0.10204 0.780275,0.24121 l 0.4541,0.38476 c 0.14902,0.1757 0.06623,0.42995 0.375975,0.53418 0.18968,0.0639 0.399,0.0636 0.59668,0.14161 0.19368,0.18006 0.298645,0.44694 0.444335,0.66504 l 0.168945,0.0127 c 0.34084,-0.36045 0.79449,-0.0671 1.10547,0.15527 0.48173,0.10595 0.983995,-0.56412 2.271485,0.0557 l 0.22754,0.49707 0.183595,0.0859 0.05859,0.32813 0.237305,0.24218 c 0.007,-0.11195 0.107825,-0.27013 0.197265,-0.33398 0.0157,0.003 0.114165,0.0274 0.124025,0.0254 0.46627,-0.0974 0.87148,-0.15769 1.35254,-0.0879 0.13916,0.0202 0.29688,0.12469 0.43457,0.13574 0.2242,0.018 0.492765,-0.0366 0.720705,-0.043 0.38496,-0.0106 0.76792,0.0267 1.15234,-0.009 0.2482,-0.0227 0.57115,-0.10493 0.81348,-0.0967 0.11983,0.004 0.688175,0.24267 0.765625,0.30371 0.23926,0.18875 0.37434,0.8065 0.41406,1.10547 0.0177,0.1333 -0.0115,0.26887 0.0205,0.4043 l 0.1875,0.14746 c 0.48612,-0.24724 0.86546,-0.59539 1.41211,-0.74414 0.09,-0.0246 0.21329,0.008 0.30566,-0.0127 0.063,-0.0139 0.29701,-0.12494 0.3418,-0.12988 0.37176,-0.0405 0.82035,-0.0423 1.19531,-0.0371 0.17342,0.003 0.353395,0.0524 0.527345,0.0615 0.0627,0.003 0.376875,-0.0207 0.411135,-0.0127 0.17795,0.0413 0.982885,0.41045 1.139645,0.52733 0.37749,0.28152 0.68558,0.69064 1.11133,0.90724 0.11023,-0.0172 0.25279,-0.14507 0.30664,-0.23731 0.0164,-0.20447 0.09261,-0.67965 0.22754,-0.84961 0.29112,-0.36681 1.021255,-0.40861 1.447265,-0.37793 0.0808,0.006 0.17654,0.0449 0.25586,0.0429 0.57943,-0.015 0.384385,-0.33894 1.205075,-0.0498 0.190225,-0.0518 0.608435,-0.12418 0.800785,-0.0928 0.12143,0.0199 0.248415,0.10989 0.370115,0.13574 0.41401,0.0883 0.637915,-0.14711 1.160155,0.0684 0.0375,0.0156 0.16416,0.15828 0.20801,0.18066 0.1433,0.073 0.31453,0.0676 0.46875,0.16211 0.0249,0.0153 0.135285,0.11293 0.152345,0.11719 0.51705,0.1289 0.654105,-0.0121 1.131835,0.35253 0.27539,0.21021 0.534985,0.67221 0.666015,0.99317 l -0.0342,0.25488 c -0.0829,0.003 -0.349375,0.35798 -0.410155,0.42969 l -0.123045,0.0293 c -0.0162,0.10104 -0.0906,0.23848 -0.143555,0.32324 -0.10904,0.0235 -0.23891,0.10721 -0.31543,0.18652 -0.0591,0.11503 -0.07137,0.31541 -0.05957,0.44043 0.27885,0.4504 1.03843,0.81879 1.46191,1.16016 l 0.33594,0.0254 0.123045,0.14258 0.18848,-0.0127 c 0.13236,0.0902 0.147545,0.20046 0.236325,0.29882 0.17875,0.19794 0.54567,0.42533 0.45996,0.75684 -0.17102,0.3379 -0.643365,0.46753 -0.657225,0.90527 0.0035,0.0232 0.0127,0.0476 0.0176,0.0713 l 40.489255,0 0.0811,-0.13281 c 0.18422,-0.32858 0.32384,-0.71703 0.52832,-1.03027 0.21527,-0.32978 0.55359,-0.74613 0.82031,-1.03711 0.16382,-0.17875 0.4817,-0.46516 0.68164,-0.60059 0.40255,-0.27299 1.36445,-0.59039 1.63477,-1 0.0888,-0.39054 0.0584,-0.79789 0.13672,-1.17871 0.12663,-0.61529 0.39812,-1.18885 0.40039,-1.83105 l 0.16797,-0.0361 0.0693,-0.14942 -0.0498,-0.29882 c 0.13996,-0.26447 0.60814,-0.9946 0.92871,-1.07911 l 0.005,-0.23046 c 0.29671,-0.33004 1.10276,-0.93364 1.52051,-1.07227 l 0.14844,-0.67578 c 0.0395,-0.17992 0.16345,-0.28013 0.27636,-0.42383 0.37682,-0.4793 0.53913,-0.90932 1.21973,-0.84375 0.20554,-0.17981 0.43519,-0.46621 0.5293,-0.72656 l -0.19727,-0.2041 c -0.24166,0.0139 -0.52636,0.0575 -0.76562,0.0439 -0.17609,-0.0101 -0.36853,-0.11248 -0.54395,-0.11914 -0.32377,-0.0123 -0.62531,0.20575 -0.95801,0.20507 l -0.2959,-0.37207 c -0.18381,0.0657 -0.43196,0.0318 -0.60937,-0.0127 l -0.44727,-0.11132 c -0.17102,-0.0718 -0.44775,-0.6081 -0.50879,-0.76368 -0.18542,0.008 -0.46416,-0.0898 -0.60839,-0.2041 l -0.15235,-0.78808 0.0889,-0.0429 0.0732,-0.4668 0.20313,-0.1416 c 0.36896,-0.0166 0.57406,0.15161 0.97754,0.042 l 0.20312,-0.20899 c 0.20661,-0.10237 0.59341,-0.11499 0.80469,-0.0205 0.44654,-0.285 0.49255,-1.23346 0.5332,-1.69238 l 0.16797,-0.19922 c 0.64328,-0.28325 1.42034,-0.29222 2.1084,-0.42285 l 0.22266,-0.19824 -0.0596,-0.24805 c -0.17995,-0.0564 -0.39109,-0.003 -0.54785,-0.0489 -0.23086,-0.0688 -0.62122,-0.28331 -0.71093,-0.52832 l 0.10351,-0.41601 c 0.27473,-0.27474 0.98641,-0.68895 1.36817,-0.75586 0.34177,-0.0599 1.72972,0.17298 2.03418,0.32226 0.16221,0.0796 0.44549,0.28814 0.49414,0.47754 l 0,0.22266 -0.10938,0.18652 c -0.003,0.22369 0.38382,0.63879 0.53418,0.77051 l -0.0498,0.45215 -0.20215,0.10547 0,0.28613 0.1875,0.18652 c 0.69274,0.27007 1.59969,-0.74846 1.93653,-0.84472 0.27712,-0.0792 1.46113,-0.0778 1.72265,0 0.0144,0.004 0.54004,0.34182 0.58789,0.37207 l -0.12402,0.20508 c 0.0325,0.28445 0.28445,0.6849 0.51465,0.85058 -0.0416,0.26179 0.0665,0.41559 0.10351,0.65137 0.0397,0.2526 -0.01,0.46914 0.0986,0.71387 0.0443,0.10038 0.13917,0.22074 0.16796,0.32324 0.1093,0.38937 0.0509,0.60242 0.28125,0.97949 0.0912,0.14916 0.35083,0.26242 0.50879,0.31055 l -0.12304,-0.19825 c 0.18075,-0.32735 0.56865,-0.49661 0.80566,-0.88769 l -0.22851,-0.0439 -0.0342,-0.3291 c 0.20181,-0.40348 0.65874,-0.53693 0.83496,-0.96094 l -0.14844,0 -0.0547,-0.27344 0.28223,-0.3291 -0.1543,-0.4043 c 0.005,-0.29111 0.26482,-0.82705 0.46582,-1.02246 0.0994,-0.0968 0.76145,-0.38188 0.9082,-0.3916 0.0234,-0.003 0.4474,0.0719 0.49805,0.0801 l 0.17383,0.41699 -0.0937,0.37207 0.14258,0.28516 0.14844,-0.0488 0.039,0.15429 0.31152,0.0928 0.22754,-0.18555 c 0.16128,0.0309 0.34655,0.12206 0.47852,0.21777 l -0.01,0.24707 0.27636,0.18653 -0.0937,-0.21778 0.25098,-0.12304 c 0.10064,0.0866 0.32396,0.12252 0.45019,0.10546 l 0.1377,-0.10546 0.0108,-0.22461 -0.13477,-0.18555 0.0937,-0.0625 0.27734,0.14258 -0.27734,-0.26563 c 0.0648,-0.13704 -0.11699,-0.85124 -0.13672,-1.00586 0.4592,-0.49534 0.60753,-0.98688 0.50781,-1.66894 l -0.13867,-0.14356 -0.36914,-0.0928 c -0.1169,-0.13583 -0.21077,-0.32092 -0.28222,-0.4834 l -0.29102,0.0175 -0.18359,-0.12402 -0.23633,0.0811 -0.37012,-0.17383 c 0.008,-0.68219 0.33523,-1.66627 0.70606,-2.23438 0.22286,-0.34151 0.8769,-0.77186 1.28906,-0.80664 0.21966,-0.0186 0.43558,0.15828 0.63086,0.2168 0.23047,0.069 0.5891,0.0263 0.66308,0.3418 l 0.18164,-0.24903 -0.24609,-0.4209 -0.41992,-0.23046 c -0.008,-0.17367 -0.0106,-0.72453 -0.0742,-0.86915 l 0.0742,-0.12304 0.30566,0.0928 0.0645,-0.17383 0.34082,-0.16797 0.31152,0.14356 0.60254,-0.23633 -0.0596,-0.4043 -0.40039,-0.33984 -0.31055,0.0175 0.01,-0.22363 -0.33105,-0.29102 -0.40918,0 -0.31153,-0.3916 0.0352,-0.50879 -0.30761,-0.44628 c 0.1,-0.76192 0.46085,-1.08311 1.11719,-1.41504 0.13649,0.23275 0.71439,0.40212 0.95312,0.43359 0.14809,0.35936 0.57248,1.00853 0.94824,1.17969 0.213,-0.0293 0.46083,-0.007 0.6709,0.0312 l 0.0156,-0.18653 c 0.18235,-0.0876 0.57811,-0.19919 0.78418,-0.13574 l 0.33106,-0.26758 0.10449,-0.32812 -0.24707,-0.31055 c -0.22234,-0.0637 -0.80826,-0.14099 -0.92969,-0.31055 l -0.083,-0.63276 c -0.17408,0.0352 -0.55041,-0.25358 -0.66211,-0.36035 l 0.0303,-0.2295 0.15234,-0.0801 c 0.0862,-0.16235 0.0509,-0.49115 -0.0293,-0.64551 l 0.21679,-0.14258 c 0.16983,0.003 0.43519,0.13317 0.5293,0.27832 l 0.23633,0.0498 c 0.35123,-0.28779 0.8152,-0.15099 1.19043,-0.49609 0.24846,0.0618 0.67691,0.20261 0.89844,0 l -0.12207,-0.23633 0.4541,-0.32227 c -0.19741,-0.007 -0.59911,-0.0779 -0.75586,-0.21777 l 0.18164,-0.24805 -0.0479,-0.2793 c -0.2322,-0.15862 -0.70265,0.1012 -1.05761,-0.0302 l -0.30567,-0.28027 c -0.17288,0.1233 -0.52774,0.33193 -0.62305,0.51562 -0.53131,-0.18502 -0.90528,-0.74934 -1.11523,-1.24121 -0.0513,-0.1201 -0.0588,-0.27359 -0.11426,-0.39062 -0.0714,-0.15102 -0.23849,-0.31227 -0.29101,-0.46582 -0.27246,-0.79671 -0.2876,-2.12109 -0.0205,-2.91699 l 0.25293,-0.19824 c 0.18608,-0.0139 0.37207,-0.0302 0.55761,-0.0498 l -0.0742,-0.34766 -0.26172,-0.24805 0.22754,-0.72656 c -0.21806,-0.20326 -0.41856,-0.45604 -0.58691,-0.70117 0.13662,-0.60622 0.71814,-1.14103 1.27344,-1.37696 0.23193,0.18195 0.4682,0.35922 0.71093,0.52637 0.44947,-0.1085 0.87236,-0.0831 1.31836,0.045 0.007,-0.27125 -1.05777,-1.20595 -1.31836,-1.32911 -0.009,-0.0477 -0.0957,-0.50903 -0.0937,-0.52636 0.0309,-0.27259 0.29626,-0.86302 0.52832,-1.04297 0.20567,-0.0374 0.46042,-0.12492 0.63184,-0.24902 l -0.084,-0.38477 0.19726,-0.17383 0.23731,0.12402 0.0401,-0.14843 0.16699,-0.0801 0.12891,0.10449 c 0.0332,-0.29405 0.0626,-0.61593 0.0342,-0.91211 l -0.16309,0.0439 -0.14746,0.18555 c -0.14249,0.0233 -0.3693,-0.0564 -0.4834,-0.13672 -0.27698,-0.5645 -0.0921,-1.20065 -0.0752,-1.7998 0.0376,-0.0466 0.39013,-0.47503 0.40039,-0.4961 0.0813,-0.16728 0.12403,-0.8207 0.10351,-1.02344 l 0.28711,-0.34179 c 0.008,-0.29672 -0.35402,-0.49686 -0.46972,-0.73145 -0.31364,-0.63595 -0.37071,-1.3698 -0.44922,-2.06054 -0.009,-0.0773 -0.0628,-0.24943 -0.10547,-0.39844 l -0.80371,-0.9961 1.1748,-0.9541 L 88.406315,164.83403 100.81256,149.56059 83.833075,135.7686 Z m 43.98926,115.17871 -0.085,0.12403 0.20899,0.44726 0.30957,0.16016 -0.0196,-0.18555 0.18847,0.0635 -0.0889,-0.33008 -0.32617,-0.0811 -0.1875,-0.19825 z m -14.34766,5.34961 -0.20214,0.17285 c 0.0579,0.37268 -0.18,0.51589 -0.23145,0.83887 l 0.0586,0.12402 0.13867,0.0312 0.12402,0.17383 0.20215,0.0732 0.1875,-0.32129 0.22754,0.0742 0.0635,-0.23535 0.20703,-0.0879 c -0.1269,-0.0878 -0.21049,-0.35309 -0.21582,-0.49707 -0.0962,-0.11315 -0.39122,-0.36402 -0.55957,-0.34668 z"
     id="polygon10"
     inkscape:connector-curvature="0" />
  <path
     d="M 74.817385,60 6.286135,229.5459 c 0.01165,0.003 0.02245,0.009 0.0342,0.0117 0.13149,0.0328 0.30188,0.008 0.42871,0.0488 0.47633,0.15355 1.579455,0.95738 1.862305,1.38379 0.0184,0.0277 0.20295,0.33166 0.20801,0.34765 0.065825,0.20803 0.05121,0.32162 0.05859,0.42676 L 74.817385,150 132.52441,221.55664 c -0.0229,-0.0801 -0.0512,-0.16988 -0.0478,-0.19727 0.0368,-0.29805 0.19293,-0.68043 0.27637,-0.97461 0.0152,0.002 0.11509,0.0201 0.12402,0.0176 0.28445,-0.0804 0.7602,-0.13967 0.91895,-0.43359 l 0.17285,0.0869 0.0879,-0.18652 0.24805,-0.12305 c -0.17195,-0.29459 -0.70554,-0.53506 -1.01758,-0.66504 l 0.10351,-0.49511 c 0.25115,-0.13371 0.84116,-0.0682 1.10548,0.0302 0.15316,-0.10584 0.38343,-0.22872 0.57324,-0.24805 l 0.10937,-0.125 0.21094,-0.0185 c 0.10357,0.19595 0.36352,0.4591 0.57813,0.5332 l 0.35058,-0.16015 -0.13867,-0.21192 0.2334,-0.30859 c 0.31578,-0.0912 0.65572,-0.15346 0.98242,-0.18652 l 0.44434,0.24707 c -0.0295,0.14782 0.0526,0.39191 0.1582,0.49707 l 0.20313,-0.11231 0.0635,-0.15429 0.37012,-0.0439 -0.15234,-0.22363 0.21093,-0.0732 -0.59277,-1.4668 -0.12793,0.1748 c -0.17328,0.10516 -0.5123,0.11588 -0.70117,0.0635 l -0.16895,-0.1875 -0.2666,0 -0.0937,-0.14747 -0.42383,-0.1123 -0.16308,-0.36035 0.12305,-0.10547 -0.1084,-0.0811 -0.17285,0.0625 c -0.49399,0.35749 0.16401,1.06383 -1.50098,1.52636 -0.51131,-0.12077 -1.02601,-0.9595 -1.07227,-1.44629 -0.002,-0.0187 0.0945,-0.56533 0.10352,-0.62011 l 0.2871,-0.0312 0.16798,-0.4043 c -0.0997,-0.15329 -0.35453,-0.40977 -0.54395,-0.45215 -0.11503,0.0668 -0.22701,0.14671 -0.32617,0.23535 l -0.48242,-0.043 c -0.11289,-0.1113 -0.34577,-0.24164 -0.50879,-0.24804 -0.0464,-0.20474 -0.0934,-0.78689 0.0732,-0.96192 0.44214,-0.15075 1.38699,-0.14868 1.86231,-0.0312 l 0,-0.24804 c -0.89081,-0.34097 -0.33423,-1.35264 -2.31153,-1.24122 l -0.24707,-0.2041 -0.77539,0.0488 -0.31153,-0.19824 -0.24609,0.13574 c 0.0696,-0.11823 0.1591,-0.38818 0.10351,-0.52734 l 0.23633,-0.28614 -0.0635,-0.24707 -0.22168,-0.14941 0.0635,-0.2666 0.49415,-0.0439 0.14258,-0.2041 c 0.12343,0.15049 0.35759,0.29003 0.54394,0.34082 l 0.12305,-0.11133 0.12304,0.18652 0.2666,0.12305 c 0.4752,0.0381 0.77186,-0.45114 1.18067,-0.39649 0.18968,0.19382 0.35825,0.42438 0.51367,0.64551 0.28619,-0.0118 0.95528,-0.055 1.20508,0 0.27605,0.0608 0.54882,0.23758 0.82421,0.30957 0.0624,0.0163 0.12617,0.0259 0.18946,0.0361 L 74.817385,60 Z"
     id="polygon8"
     inkscape:connector-curvature="0" />
</svg>
