<?xml version="1.0" encoding="UTF-8" standalone="no"?>
<svg
   xmlns:dc="http://purl.org/dc/elements/1.1/"
   xmlns:cc="http://creativecommons.org/ns#"
   xmlns:rdf="http://www.w3.org/1999/02/22-rdf-syntax-ns#"
   xmlns:svg="http://www.w3.org/2000/svg"
   xmlns="http://www.w3.org/2000/svg"
   xmlns:sodipodi="http://sodipodi.sourceforge.net/DTD/sodipodi-0.dtd"
   xmlns:inkscape="http://www.inkscape.org/namespaces/inkscape"
   version="1.1"
   xml:space="preserve"
   x="0"
   y="0"
   width="405.61191"
   height="1656.5256"
   clip-path="url(#MapClipRectangle)"
   style="overflow:hidden"
   id="svg2"
   inkscape:version="0.91 r13725"
   sodipodi:docname="United_Kingdom_Saint_Helena,_Ascension,_and_Tristan_da_Cunha_location_map.svg"
   inkscape:export-filename="C:\wikivoyage_for_now\south atlantic\Saint Helena, Ascension, and Tristan da Cunha regions map.png"
   inkscape:export-xdpi="155.41446"
   inkscape:export-ydpi="155.41446"><metadata
     id="metadata2127"><rdf:RDF><cc:Work
         rdf:about=""><dc:format>image/svg+xml</dc:format><dc:type
           rdf:resource="http://purl.org/dc/dcmitype/StillImage" /><dc:title>Map Generated Using Maperitive (http://maperitive.net)</dc:title></cc:Work></rdf:RDF></metadata><sodipodi:namedview
     pagecolor="#ffffff"
     bordercolor="#666666"
     borderopacity="1"
     objecttolerance="10"
     gridtolerance="10"
     guidetolerance="10"
     inkscape:pageopacity="0"
     inkscape:pageshadow="2"
     inkscape:window-width="1600"
     inkscape:window-height="837"
     id="namedview2125"
     showgrid="false"
     fit-margin-top="0"
     fit-margin-left="0"
     fit-margin-right="0"
     fit-margin-bottom="0"
     inkscape:zoom="0.6260406"
     inkscape:cx="390.48602"
     inkscape:cy="1237.7733"
     inkscape:window-x="-8"
     inkscape:window-y="-8"
     inkscape:window-maximized="1"
     inkscape:current-layer="layer1" /><title
     id="title4">Map Generated Using Maperitive (http://maperitive.net)</title><desc
     id="desc6">Map Generator: Maperitive v2.3.24 by Igor Brejc
Time: 05/17/2013 17:59:56
</desc><defs
     id="defs8"><clipPath
       clipPathUnits="userSpaceOnUse"
       id="MapClipRectangle"><rect
         x="0"
         y="0"
         width="8214.2695"
         height="2372.51"
         id="rect11" /></clipPath></defs><g
     inkscape:groupmode="layer"
     id="layer1"
     inkscape:label="Map"
     transform="translate(-118.80129,-54.41999)"><path
       style="display:inline;overflow:hidden;fill:#00009e;fill-opacity:1;stroke:#00009e;stroke-width:5;stroke-linejoin:round;stroke-miterlimit:4;stroke-dasharray:none;stroke-opacity:1"
       d="m 217.83319,1515.28 0,0 -0.05,0 -0.02,0 -0.07,0.03 -0.04,0.03 -0.03,0.05 -0.02,0.04 0,0.04 0,0.04 0,0.02 0,0.06 -0.02,0.06 -0.03,0.04 0.05,0.12 -0.01,0.04 -0.01,0.09 -0.08,0.08 -0.01,0.02 -0.04,0.04 -0.05,0.04 -0.04,0.07 -0.14,0 -0.01,0.02 0.01,0.05 -0.07,0.11 -0.06,0.02 -0.05,-0.03 -0.01,-0.04 -0.01,-0.01 -0.03,0.04 -0.03,0.04 -0.03,0.05 -0.09,0.13 -0.06,0.06 -0.06,0.03 0,0.07 0,0.01 0.03,0.03 -0.02,0.02 -0.03,0.05 -0.04,0.09 0.01,0.04 -0.01,0.02 0.01,0.03 -0.03,0.01 -0.01,0.02 -0.03,0 -0.01,0.03 -0.05,0 -0.01,0.07 0,0.06 -0.02,0.05 -0.01,0.09 -0.01,0.02 0.02,0.04 0,0.06 -0.02,0.05 0.02,0.05 -0.01,0.03 -0.01,0.02 0.01,0.07 0.01,0.06 -0.01,0.09 -0.01,0.02 -0.03,0.07 -0.06,0.01 -0.07,0.07 0,0.04 -0.03,0.05 0.01,0.1 -0.01,0.01 0,0.08 -0.05,0.01 -0.05,0.05 -0.01,0.04 -0.01,0.04 0.02,0.03 0.05,0.04 0.03,0.02 0.07,0.06 0.04,0.24 0.05,0.13 0.13,0.22 0.18,0.26 0.17,0.22 0.16,0.2 0.15,0.17 0.04,0.07 0.01,0.04 0,0.05 0.01,0.01 0.05,0 0.03,0.02 0,0.07 0.04,0 0.02,0.03 0,0.03 0.02,0.03 -0.01,0.02 0.01,0.04 0.04,-0.01 0.01,0.02 0,0.02 0.02,0.04 0.05,0.04 0.02,0.05 0.06,0.04 0.05,0.07 0.04,0.07 0.03,0.05 0,0.05 -0.01,0.02 0.02,0.04 0.02,0 0,-0.03 0.03,-0.03 -0.01,-0.05 0.02,-0.04 0.05,-0.05 0.06,-0.03 0.06,-0.01 0.07,0.01 0.09,0 0.06,-0.02 0.06,-0.01 0.08,0.07 0.08,0.02 0.02,0.03 0.06,0.04 0.11,0.01 0.13,0.09 0.1,0.09 0.03,0.04 0.03,0.07 0.04,0.06 0.09,0.07 0.1,0.05 0.1,0.05 0.06,-0.04 0.09,0 0.03,-0.04 0.13,0 0.04,-0.02 0.11,-0.03 0.08,0 0.03,-0.03 0.06,-0.09 0.02,-0.02 0.04,-0.03 0.05,-0.05 0.02,-0.05 -0.05,-0.06 -0.04,-0.05 0,-0.06 0.02,-0.05 0.03,-0.06 0.05,-0.06 0.09,-0.09 0.07,-0.05 0.05,-0.03 0.04,-0.01 0.04,0.01 0.04,-0.04 0.04,-0.03 0.02,-0.02 0.03,-0.05 0.03,-0.06 0.01,-0.03 0.03,-0.06 0,-0.06 0.02,-0.02 0.01,-0.06 0.04,-0.06 0.06,-0.04 0.04,-0.03 0.09,-0.08 0.08,-0.05 0.09,-0.01 0.01,-0.02 0.03,-0.02 0.06,-0.01 0.07,-0.07 0.05,-0.03 0.03,-0.06 0.02,-0.01 0.04,-0.02 0.01,-0.06 0.03,-0.05 0,-0.03 0.02,-0.03 0.04,-0.03 0.06,-0.05 0.01,-0.04 0.04,-0.04 0.06,-0.05 0.02,-0.04 0.05,-0.05 0.03,0 0.04,-0.03 0.07,-0.02 0.04,-0.03 0.05,-0.07 0.04,-0.05 0.05,-0.07 0.04,-0.05 0.03,-0.01 0.03,-0.04 0.03,-0.04 0.03,-0.06 0.05,-0.06 0.06,-0.07 0.05,-0.01 0.01,-0.06 0.01,-0.02 0.04,-0.06 0.02,-0.08 0.01,-0.05 -0.01,-0.03 -0.01,-0.05 -0.04,-0.09 0.01,-0.06 -0.01,-0.03 -0.01,-0.03 -0.01,-0.04 -0.01,-0.03 -0.05,-0.07 -0.03,-0.09 -0.04,-0.08 -0.03,-0.14 -0.02,-0.09 -0.02,-0.1 -0.01,-0.05 -0.06,-0.11 -0.06,-0.11 -0.06,-0.09 -0.03,-0.1 -0.05,-0.08 -0.03,-0.06 -0.05,-0.09 -0.05,-0.07 0,-0.03 -0.05,-0.08 -0.02,-0.03 -0.06,-0.09 -0.07,-0.09 -0.02,-0.02 -0.04,-0.03 -0.06,-0.03 -0.07,-0.04 -0.07,-0.06 -0.06,-0.05 -0.09,-0.1 -0.04,-0.02 -0.01,-0.01 -0.07,-0.11 -0.04,-0.04 -0.07,-0.03 -0.1,-0.04 -0.07,-0.02 -0.06,-0.03 -0.06,-0.05 -0.03,-0.05 -0.05,-0.05 -0.04,-0.08 -0.03,-0.02 -0.03,-0.03 -0.08,-0.03 -0.08,-0.03 -0.08,-0.01 -0.07,0.01 -0.1,0.02 -0.1,0.01 -0.07,0.01 -0.07,0 -0.07,-0.03 -0.09,-0.05 -0.1,-0.01 -0.07,0.03 -0.07,0.05 -0.06,0.04 -0.03,0.01 -0.03,0.01 -0.08,-0.01 -0.18,-0.02 -0.19,0 -0.07,-0.02 -0.1,0 -0.19,0 -0.19,0 -0.03,0.02 -0.02,0 -0.08,0 -0.06,-0.01 -0.03,0.01 -0.01,-0.01 0,-0.01 -0.01,0 0,0.01 0,0.01 0.01,0.01 -0.02,0 -0.02,0 0,-0.01 0.01,0 0,-0.01 0,-0.01 0,-0.01 0,-0.01 0.01,0 -0.01,0 -0.01,0 -0.01,0.01 0,0.01 0,0.02 -0.01,0 0,0.01 z"
       id="path530"
       inkscape:connector-curvature="0" /><path
       style="display:inline;overflow:hidden;fill:#00009e;fill-opacity:1;stroke:#00009e;stroke-width:5;stroke-linejoin:round;stroke-miterlimit:4;stroke-dasharray:none;stroke-opacity:1"
       d="m 217.14319,1516.19 0.01,0.01 0.01,-0.01 -0.01,-0.01 -0.01,0.01 z"
       id="path532"
       inkscape:connector-curvature="0" /><path
       style="display:inline;overflow:hidden;fill:#00009e;fill-opacity:1;stroke:#00009e;stroke-width:5;stroke-linejoin:round;stroke-miterlimit:4;stroke-dasharray:none;stroke-opacity:1"
       d="m 201.04319,1530.04 0.05,-0.01 -0.04,-0.03 -0.03,-0.05 0.04,-0.05 0.03,-0.06 0.05,-0.04 0.03,-0.04 0.06,-0.02 0.03,-0.04 0.05,-0.01 0.02,-0.05 0.06,-0.01 0.07,-0.01 0.02,-0.06 0.05,0.01 0,0.07 0.05,-0.02 0.03,-0.1 0.08,-0.01 0.05,-0.01 0.06,-0.08 0.08,-0.03 0.06,0 0.06,-0.02 0.04,-0.03 0.05,-0.03 0.07,-0.03 0.05,-0.03 0.05,-0.05 0.07,-0.04 0.08,-0.07 0.05,-0.02 0.06,-0.01 0.07,0 0.07,-0.02 0.08,-0.03 0.05,-0.03 0.04,-0.05 0.03,-0.06 0.03,-0.07 -0.01,-0.06 -0.02,-0.05 -0.02,-0.05 -0.03,-0.05 -0.04,-0.05 -0.05,-0.01 -0.08,-0.03 -0.03,-0.03 -0.03,-0.05 -0.04,-0.05 -0.02,-0.07 -0.05,-0.01 -0.04,0.04 -0.07,0.01 -0.05,0.01 -0.05,-0.01 -0.04,-0.03 -0.05,-0.01 -0.06,-0.02 -0.07,-0.01 -0.07,-0.02 -0.05,-0.01 0,-0.07 -0.04,-0.05 -0.03,-0.04 -0.05,-0.01 -0.05,-0.01 -0.03,-0.05 -0.05,0 -0.06,-0.02 -0.06,-0.05 -0.05,-0.02 -0.05,-0.03 -0.03,-0.05 -0.04,-0.05 -0.05,-0.04 -0.05,-0.03 -0.05,0.01 -0.06,-0.01 -0.2,0 -0.05,0.03 -0.05,0.06 -0.05,0.06 -0.05,0.05 -0.04,0.06 -0.01,0.1 -0.05,0.05 -0.08,0.03 -0.05,0.05 -0.05,0.06 -0.05,-0.01 -0.05,0.05 -0.06,0.07 -0.13,-0.02 -0.14,-0.01 -0.05,0.07 -0.05,0.07 0,0.15 0.01,0.15 0.03,0.14 0.01,0.08 -0.05,0.11 0.15,0.17 -0.02,0.06 0.02,0.05 0.06,0.02 -0.02,0.08 0.02,0.09 0.06,0.02 0.02,-0.05 0,-0.14 0.08,0 0.07,0.02 0.05,0.1 0.01,0.1 -0.02,0.06 0.06,0.09 0.03,-0.05 0.05,-0.01 0.02,-0.09 0.07,-0.02 0.01,0.14 0.12,-0.02 -0.04,-0.1 0.11,0.05 0.03,-0.07 0.05,0.11 -0.04,0.16 -0.02,0.1 0.05,0.07 0.06,0 z"
       id="path534"
       inkscape:connector-curvature="0" /><path
       style="display:inline;overflow:hidden;fill:#00009e;fill-opacity:1;stroke:#00009e;stroke-width:5;stroke-linejoin:round;stroke-miterlimit:4;stroke-dasharray:none;stroke-opacity:1"
       d="m 210.60319,1535.53 -0.04,0 -0.01,-0.08 -0.04,0.01 0,-0.05 -0.01,-0.04 -0.08,-0.01 -0.05,-0.02 -0.01,0.05 -0.09,0.06 -0.06,0.01 -0.01,0.06 -0.05,0.01 0,0.07 -0.08,-0.01 -0.05,0.01 -0.05,-0.05 -0.05,0.05 -0.06,0 -0.02,0.04 -0.03,-0.01 -0.03,-0.05 -0.05,0 -0.04,0.04 0.02,0.04 -0.04,0.04 -0.04,0.05 0.02,0.06 -0.04,0.05 0.1,0.01 0,0.1 0.02,0.08 -0.06,0.04 0.03,0.06 0.01,0.09 0.05,0.08 0.04,0.05 0.07,-0.05 0.03,-0.04 0.05,-0.06 0.04,0 0.05,0 0.05,-0.05 0.06,0.01 0.04,-0.01 0.05,-0.01 0.04,0.04 -0.01,0.12 0.05,-0.01 0.06,-0.01 0.05,-0.03 0.06,0 0.01,-0.06 0.05,0 0.03,-0.11 0,-0.06 0.05,0.01 0.05,-0.02 0.04,-0.01 0.01,-0.05 -0.03,-0.05 -0.05,0 0,-0.06 -0.06,-0.03 0.01,-0.06 0.06,-0.02 0,-0.06 -0.01,-0.04 -0.03,-0.03 0.04,-0.07 -0.06,-0.05 z"
       id="path536"
       inkscape:connector-curvature="0" /><path
       style="display:inline;overflow:hidden;fill:#00009e;fill-opacity:1;stroke:#00009e;stroke-width:5;stroke-linejoin:round;stroke-miterlimit:4;stroke-dasharray:none;stroke-opacity:1"
       d="m 210.14319,1535.13 0.07,-0.02 0.06,0.05 0.02,0.06 0.11,-0.02 0.04,-0.08 -0.06,-0.03 -0.01,-0.06 -0.07,0 -0.05,-0.03 -0.04,0.04 -0.04,0.02 -0.03,0.07 z"
       id="path538"
       inkscape:connector-curvature="0" /><path
       style="display:inline;overflow:hidden;fill:#00009e;fill-opacity:1;stroke:#00009e;stroke-width:5;stroke-linejoin:round;stroke-miterlimit:4;stroke-dasharray:none;stroke-opacity:1"
       d="m 209.69319,1534.57 0.03,0.01 0.02,0.02 -0.01,0.01 -0.02,0 0,0.02 0.01,0.01 0.06,-0.01 0.04,0.03 0.01,0.06 0.08,0 0.02,-0.03 0.01,-0.02 0.03,0.02 0.03,0 0.03,-0.02 -0.01,-0.03 -0.03,-0.01 -0.02,0.02 -0.02,-0.01 0.01,-0.02 -0.07,-0.04 -0.03,0 -0.03,-0.02 -0.06,-0.05 -0.04,-0.03 -0.03,0.01 -0.03,0.03 0.01,0.04 z"
       id="path540"
       inkscape:connector-curvature="0" /><path
       style="display:inline;overflow:hidden;fill:#00009e;fill-opacity:1;stroke:#00009e;stroke-width:5;stroke-linejoin:round;stroke-miterlimit:4;stroke-dasharray:none;stroke-opacity:1"
       d="m 123.72319,57.03999 0,0 0,-0.01 -0.01,0 0,0.01 0.01,0.01 0.01,0.01 0.01,0 0,-0.01 0,-0.01 0,0 z"
       id="path542"
       inkscape:connector-curvature="0" /><path
       style="display:inline;overflow:hidden;fill:#00009e;fill-opacity:1;stroke:#00009e;stroke-width:5;stroke-linejoin:round;stroke-miterlimit:4;stroke-dasharray:none;stroke-opacity:1"
       d="m 123.88319,57.00999 0.01,0 0,-0.01 0,-0.01 -0.01,0 -0.01,0.01 0,0.01 0,0.01 0,0 0.01,0 z"
       id="path544"
       inkscape:connector-curvature="0" /><path
       style="display:inline;overflow:hidden;fill:#00009e;fill-opacity:1;stroke:#00009e;stroke-width:5;stroke-linejoin:round;stroke-miterlimit:4;stroke-dasharray:none;stroke-opacity:1"
       d="m 125.65319,61.19999 -0.01,-0.01 0,0.01 0,0 0,0.01 0.01,0 0.01,-0.01 0,0 z"
       id="path546"
       inkscape:connector-curvature="0" /><path
       style="display:inline;overflow:hidden;fill:#00009e;fill-opacity:1;stroke:#00009e;stroke-width:5;stroke-linejoin:round;stroke-miterlimit:4;stroke-dasharray:none;stroke-opacity:1"
       d="m 122.90319,61.68999 0.01,-0.01 -0.01,0 -0.01,0.01 0,0.01 0.01,0 z"
       id="path548"
       inkscape:connector-curvature="0" /><path
       style="display:inline;overflow:hidden;fill:#00009e;fill-opacity:1;stroke:#00009e;stroke-width:5;stroke-linejoin:round;stroke-miterlimit:4;stroke-dasharray:none;stroke-opacity:1"
       d="m 125.10319,61.20999 -0.01,0 0,0 0,0.01 0,0.01 0.01,0 0,-0.01 0,-0.01 0,0 z"
       id="path550"
       inkscape:connector-curvature="0" /><path
       style="display:inline;overflow:hidden;fill:#00009e;fill-opacity:1;stroke:#00009e;stroke-width:5;stroke-linejoin:round;stroke-miterlimit:4;stroke-dasharray:none;stroke-opacity:1"
       d="m 516.41319,436.05999 -0.01,-0.03 -0.02,-0.02 -0.03,0 -0.01,0 -0.01,0.01 0,0.02 0.01,0.02 0.02,0.02 0.02,0.02 0.02,0 0.01,-0.03 z"
       id="path552"
       inkscape:connector-curvature="0" /><path
       style="display:inline;overflow:hidden;fill:#00009e;fill-opacity:1;stroke:#00009e;stroke-width:5;stroke-linejoin:round;stroke-miterlimit:4;stroke-dasharray:none;stroke-opacity:1"
       d="m 515.42319,433.39999 0,-0.02 0,-0.01 -0.01,0 -0.01,0.01 0,0.01 0,0.02 0.04,0 z"
       id="path554"
       inkscape:connector-curvature="0" /><path
       style="display:inline;overflow:hidden;fill:#00009e;fill-opacity:1;stroke:#00009e;stroke-width:5;stroke-linejoin:round;stroke-miterlimit:4;stroke-dasharray:none;stroke-opacity:1"
       d="m 515.60319,433.26999 0,-0.02 -0.02,-0.01 0,-0.02 -0.02,-0.01 -0.04,0 -0.01,0.01 -0.01,-0.02 -0.02,0 0,0.02 -0.01,0 0,0.01 0.02,0.01 0.02,0.01 0.02,0.01 0.01,0.01 0.04,0 0.02,-0.01 z"
       id="path556"
       inkscape:connector-curvature="0" /><path
       style="display:inline;overflow:hidden;fill:#00009e;fill-opacity:1;stroke:#00009e;stroke-width:5;stroke-linejoin:round;stroke-miterlimit:4;stroke-dasharray:none;stroke-opacity:1"
       d="m 517.25319,435.51999 0,0 -0.01,0 0,0.01 0,0.01 0,0 0,0 0,0 0,0 0,0 0,-0.01 z"
       id="path558"
       inkscape:connector-curvature="0" /><path
       style="display:inline;overflow:hidden;fill:#00009e;fill-opacity:1;stroke:#00009e;stroke-width:5;stroke-linejoin:round;stroke-miterlimit:4;stroke-dasharray:none;stroke-opacity:1"
       d="m 517.26319,435.54999 0,0 0,0 0,0 0,0 0,0 0,0 z"
       id="path560"
       inkscape:connector-curvature="0" /><path
       style="display:inline;overflow:hidden;fill:#00009e;fill-opacity:1;stroke:#00009e;stroke-width:5;stroke-linejoin:round;stroke-miterlimit:4;stroke-dasharray:none;stroke-opacity:1"
       d="m 517.86319,435.15999 0,0 0,0 0,0 0,0 0,0 0,0 0,0 0,0 z"
       id="path562"
       inkscape:connector-curvature="0" /><path
       style="display:inline;overflow:hidden;fill:#00009e;fill-opacity:1;stroke:#00009e;stroke-width:5;stroke-linejoin:round;stroke-miterlimit:4;stroke-dasharray:none;stroke-opacity:1"
       d="m 518.47319,434.93999 0,0 0,0 0,0 0,0 0,0 0,0 0,0 0,0 0,0 0,0 0,0 0,0 0,0 0,0 0,0 z"
       id="path564"
       inkscape:connector-curvature="0" /><path
       style="display:inline;overflow:hidden;fill:#00009e;fill-opacity:1;stroke:#00009e;stroke-width:5;stroke-linejoin:round;stroke-miterlimit:4;stroke-dasharray:none;stroke-opacity:1"
       d="m 520.17319,434.24999 0,-0.01 0,0 0,0 0,0 0,0 0,0 0,0 0,0 0,0 0,0 z"
       id="path566"
       inkscape:connector-curvature="0" /><path
       style="display:inline;overflow:hidden;fill:#00009e;fill-opacity:1;stroke:#00009e;stroke-width:5;stroke-linejoin:round;stroke-miterlimit:4;stroke-dasharray:none;stroke-opacity:1"
       d="m 520.80319,434.11999 0,0 0,0 0,0 0,0 0,0 0,0 0,0 0,0 z"
       id="path568"
       inkscape:connector-curvature="0" /><path
       style="display:inline;overflow:hidden;fill:#00009e;fill-opacity:1;stroke:#00009e;stroke-width:5;stroke-linejoin:round;stroke-miterlimit:4;stroke-dasharray:none;stroke-opacity:1"
       d="m 521.71319,433.49999 0.01,0 0,0 0,0 0,0 0,0 0,0 0,0 0,-0.01 0,0 0,0 0,0 0,0 0,0 0,0 0,0 0,0 0,0 0,0 0,0 0,0 0,0 0,0 0,0 0,0 0,0 0,0 0,0 0,0 0,0 0,0 0,0.01 0,0.01 0,0.01 0,0 0,0 0,0 0,0.01 0,0 0,0 0,0 z"
       id="path570"
       inkscape:connector-curvature="0" /><path
       style="display:inline;overflow:hidden;fill:#00009e;fill-opacity:1;stroke:#00009e;stroke-width:5;stroke-linejoin:round;stroke-miterlimit:4;stroke-dasharray:none;stroke-opacity:1"
       d="m 521.88319,433.69999 0,0.01 0,0.01 0,0 0,0 0,0 0,0.01 0,0.01 0,0.01 0.01,0.01 0,0 0,0 0,0 0,0 0,0 0,0 0.01,0 0.01,0 0,0 0,-0.01 0,0 0,0 0,0 0,0 0,-0.01 0,0 0,0 0,0 0,0 0,-0.01 -0.01,0 0,-0.01 0,0 0,0 0,0 0,0 0,0 0,0 0,0 0,0 z"
       id="path572"
       inkscape:connector-curvature="0" /><path
       style="display:inline;overflow:hidden;fill:#00009e;fill-opacity:1;stroke:#00009e;stroke-width:5;stroke-linejoin:round;stroke-miterlimit:4;stroke-dasharray:none;stroke-opacity:1"
       d="m 520.41319,434.21999 0,-0.01 -0.01,0 -0.01,0.01 0.01,0 0,0.01 0.01,0 0.01,0 z"
       id="path574"
       inkscape:connector-curvature="0" /><path
       style="display:inline;overflow:hidden;fill:#00009e;fill-opacity:1;stroke:#00009e;stroke-width:5;stroke-linejoin:round;stroke-miterlimit:4;stroke-dasharray:none;stroke-opacity:1"
       d="m 519.36319,435.04999 0,-0.01 -0.01,0 0,0.01 0.01,0 z"
       id="path576"
       inkscape:connector-curvature="0" /><path
       style="display:inline;overflow:hidden;fill:#00009e;fill-opacity:1;stroke:#00009e;stroke-width:5;stroke-linejoin:round;stroke-miterlimit:4;stroke-dasharray:none;stroke-opacity:1"
       d="m 519.38319,435.09999 0.01,-0.01 -0.01,-0.01 -0.01,0 0,0 0.01,0.01 z"
       id="path578"
       inkscape:connector-curvature="0" /><path
       style="display:inline;overflow:hidden;fill:#00009e;fill-opacity:1;stroke:#00009e;stroke-width:5;stroke-linejoin:round;stroke-miterlimit:4;stroke-dasharray:none;stroke-opacity:1"
       d="m 517.47319,435.35999 0,0 0,-0.01 -0.01,0 0,0 0,0.01 z"
       id="path580"
       inkscape:connector-curvature="0" /><path
       style="display:inline;overflow:hidden;fill:#00009e;fill-opacity:1;stroke:#00009e;stroke-width:5;stroke-linejoin:round;stroke-miterlimit:4;stroke-dasharray:none;stroke-opacity:1"
       d="m 517.47319,435.36999 0,0 0,0 0,0 0,0 0,0 0,0 0,0 0,0 0,0 0,0 0,0 0,0 z"
       id="path582"
       inkscape:connector-curvature="0" /><path
       style="display:inline;overflow:hidden;fill:#00009e;fill-opacity:1;stroke:#00009e;stroke-width:5;stroke-linejoin:round;stroke-miterlimit:4;stroke-dasharray:none;stroke-opacity:1"
       d="m 521.59319,432.79999 0,0 0,0 0,0 0,0 0,0 0,0 0,0 0,0 0,0 0,0 0,0 z"
       id="path584"
       inkscape:connector-curvature="0" /><path
       style="display:inline;overflow:hidden;fill:#00009e;fill-opacity:1;stroke:#00009e;stroke-width:5;stroke-linejoin:round;stroke-miterlimit:4;stroke-dasharray:none;stroke-opacity:1"
       d="m 521.57319,432.81999 0,0 0,0 0,0 0,0 0,0 0,0 0,0 0,0 0,0 z"
       id="path586"
       inkscape:connector-curvature="0" /><path
       style="display:inline;overflow:hidden;fill:#00009e;fill-opacity:1;stroke:#00009e;stroke-width:5;stroke-linejoin:round;stroke-miterlimit:4;stroke-dasharray:none;stroke-opacity:1"
       d="m 521.58319,432.80999 0,0 0,0 0,0 0,0 0,0 0,0.01 0,0 z"
       id="path588"
       inkscape:connector-curvature="0" /><path
       style="display:inline;overflow:hidden;fill:#00009e;fill-opacity:1;stroke:#00009e;stroke-width:5;stroke-linejoin:round;stroke-miterlimit:4;stroke-dasharray:none;stroke-opacity:1"
       d="m 521.54319,432.68999 0,0 0,0 0,0 0,0 0,0 0,0 0,0 0,0 0,0 0,0 0,0 0,0 0,0 0,0 0,0 0,0 0,0 0,0 0,0 0,0 z"
       id="path590"
       inkscape:connector-curvature="0" /><path
       style="display:inline;overflow:hidden;fill:#00009e;fill-opacity:1;stroke:#00009e;stroke-width:5;stroke-linejoin:round;stroke-miterlimit:4;stroke-dasharray:none;stroke-opacity:1"
       d="m 521.57319,432.62999 0,0 0,0 0,0 0,0 0,0 0,0 0,0 z"
       id="path592"
       inkscape:connector-curvature="0" /><path
       style="display:inline;overflow:hidden;fill:#00009e;fill-opacity:1;stroke:#00009e;stroke-width:5;stroke-linejoin:round;stroke-miterlimit:4;stroke-dasharray:none;stroke-opacity:1"
       d="m 520.94319,431.12999 0.01,0 0.01,0 0.01,0 0,0 -0.01,0 0,0 0,0 0,0 0,0 0,0 0,0 z"
       id="path594"
       inkscape:connector-curvature="0" /><path
       style="display:inline;overflow:hidden;fill:#00009e;fill-opacity:1;stroke:#00009e;stroke-width:5;stroke-linejoin:round;stroke-miterlimit:4;stroke-dasharray:none;stroke-opacity:1"
       d="m 326.14319,1707.11 0.06,-0.06 0.02,-0.05 0.05,0 0.01,0.05 0,0.04 0.03,0.05 0.14,0.01 0.08,0.09 0,0.05 0.06,0.14 0.01,0.1 -0.06,0.07 -0.04,0.08 -0.06,0.01 -0.02,0.05 -0.05,0.05 -0.03,0.03 0,0.05 0.06,0 0.05,-0.03 0.07,0 0.11,-0.02 0.01,0.04 0.02,0.06 -0.04,0.07 0.06,0.02 0.07,-0.05 0.04,-0.06 0.02,-0.05 0.1,0 0.09,0.01 0,0.03 0.04,0.06 0.05,0.04 0.04,-0.03 0.07,0.04 0.16,-0.01 0.02,0.04 0.05,0.02 0.05,-0.03 0.1,0 0.12,0 0.08,0.07 0.07,0.03 -0.04,0.05 0.03,0.05 0.06,0.02 0.1,-0.03 0.07,-0.04 0,-0.03 -0.01,-0.02 0.01,-0.05 0.03,-0.05 0.05,-0.01 0.04,-0.07 0.01,-0.07 0.02,-0.06 0.04,-0.01 0.01,0.06 0.04,-0.01 0,-0.05 0.06,-0.03 0.02,-0.05 -0.04,-0.03 0.06,-0.06 0.05,-0.08 -0.04,0 -0.04,-0.03 0,-0.08 0.05,-0.03 -0.01,-0.05 0.02,-0.03 0.06,-0.02 0.02,-0.02 -0.06,-0.03 0.02,-0.12 -0.03,-0.04 0.02,-0.02 0.07,-0.03 -0.01,-0.05 0.03,-0.02 0.08,0.01 0.01,-0.1 0.02,-0.01 0.01,-0.05 0.03,-0.03 0.04,-0.03 0,-0.04 -0.05,-0.03 -0.04,-0.04 -0.01,-0.07 0,-0.05 0.05,-0.13 -0.02,-0.09 -0.03,-0.02 -0.04,-0.04 0,-0.07 0.01,-0.08 -0.02,-0.08 -0.05,-0.01 -0.05,-0.02 -0.06,0 0,-0.05 -0.1,-0.06 -0.06,-0.02 -0.09,-0.12 -0.09,-0.06 -0.08,-0.01 -0.05,-0.03 -0.08,-0.03 -0.08,-0.06 -0.05,-0.08 -0.02,-0.11 -0.01,-0.06 -0.01,-0.02 -0.03,-0.01 0,-0.03 0.05,-0.05 0.01,-0.05 -0.08,-0.06 -0.08,-0.02 -0.04,-0.09 0,-0.06 -0.02,-0.01 -0.01,0.02 -0.03,-0.04 -0.01,-0.05 -0.04,-0.05 0,-0.07 -0.05,-0.23 0.04,-0.17 0,-0.1 -0.01,-0.05 -0.03,-0.02 -0.05,-0.01 -0.09,0 -0.02,-0.01 -0.01,-0.01 -0.05,-0.06 -0.02,-0.08 -0.04,-0.05 -0.05,-0.06 -0.06,-0.06 -0.06,-0.09 -0.1,-0.09 -0.04,-0.06 -0.03,-0.07 -0.02,-0.18 0.02,-0.05 -0.02,-0.04 -0.04,0 -0.02,-0.03 -0.03,-0.09 -0.05,-0.04 -0.03,-0.09 -0.01,-0.06 -0.03,-0.06 -0.05,-0.04 -0.1,-0.08 -0.06,-0.02 -0.09,-0.06 -0.04,-0.04 -0.03,0.02 -0.06,0.03 -0.06,-0.04 -0.06,0.02 -0.03,0.04 -0.08,0.05 -0.05,0.02 -0.04,-0.02 -0.03,-0.04 -0.05,-0.01 0,0.07 -0.04,0.04 -0.03,0 -0.13,-0.05 -0.12,-0.02 -0.06,0.03 -0.06,-0.02 -0.03,-0.04 -0.03,-0.05 -0.05,-0.04 -0.05,-0.06 -0.09,-0.01 -0.05,0.03 -0.03,-0.05 -0.04,-0.04 -0.03,0 0.04,0.13 -0.03,0.04 -0.07,0.08 -0.14,0.02 -0.08,-0.02 -0.07,-0.03 0,-0.05 -0.02,-0.02 -0.04,-0.02 -0.02,0.04 0.02,0.03 0,0.03 -0.02,0 -0.02,-0.02 -0.03,-0.04 -0.05,-0.02 -0.09,0.03 -0.1,0 -0.02,0.03 -0.06,0.02 -0.09,-0.04 -0.02,0.04 -0.06,0 -0.01,0.04 -0.12,0.01 -0.05,-0.01 -0.1,-0.02 -0.01,-0.14 -0.02,-0.04 -0.05,0.01 0,0.05 -0.05,0.02 0,0.04 -0.05,0.06 -0.08,-0.01 -0.04,0.02 -0.01,0.04 -0.07,0.01 -0.02,0.05 -0.03,0.03 -0.03,-0.04 -0.03,0 -0.01,0.05 -0.04,0.04 -0.05,0.05 -0.04,0.08 0.04,0.03 0.03,-0.01 -0.02,-0.03 0.01,-0.03 0.03,0 0.05,0.05 0.03,0.07 -0.03,0.04 -0.02,0 -0.02,-0.02 -0.02,0.01 -0.04,0.04 -0.02,0.09 0.08,0.05 0.07,0.07 0.03,0.06 -0.06,-0.04 -0.04,-0.03 -0.01,-0.03 -0.02,0 0.02,0.05 -0.02,0.03 -0.03,-0.03 -0.02,0.03 0.01,0.03 0.05,0.02 0.03,0.04 0.01,0.06 0.04,0.02 0,0.02 -0.02,0.02 -0.04,-0.05 -0.06,-0.01 -0.04,0.01 0.01,0.06 0.04,0 0.03,0.04 0,0.05 -0.07,0.04 0,-0.08 -0.02,-0.01 -0.01,0.03 0,-0.07 -0.03,0.01 -0.07,0.08 0.03,0.03 0.04,0.03 0.03,0.06 -0.06,0.01 -0.01,-0.05 -0.03,-0.01 -0.02,0.04 -0.03,0.02 -0.04,0.07 0.01,0.01 -0.03,0.02 0,0.03 0.03,0.02 0.01,0.03 -0.04,-0.03 -0.04,-0.02 -0.06,0.01 -0.05,0.06 0.02,0.08 -0.03,0.13 -0.11,0.14 -0.14,0.09 -0.07,0 -0.01,0.08 0.08,0.07 0.08,0.15 0.04,0 0,-0.04 0.03,-0.02 0,-0.06 -0.02,-0.03 0.03,0 0.1,0 0.01,0.05 0.07,0.08 0.09,0.03 0.02,0.05 -0.01,0.06 0,0.04 -0.02,0.01 0,0.02 0.05,0 0.02,-0.01 0.01,-0.02 0.02,-0.02 0.11,-0.03 0.14,-0.01 0.1,0.02 0.11,-0.01 0.09,0.11 0.09,0.04 0.12,0.12 0.05,0 0.11,0.08 0.07,-0.01 0.05,0.04 0.09,-0.02 0.15,0.05 0.13,0.02 0.33,0.3 0.24,0.33 0.01,0.17 0.01,0.16 0.36,0.3 0.18,0.13 0.04,0.03 0.3,0.05 0.09,0.05 0.05,0.03 0.03,0.02 0.12,0.12 0.11,0.01 z"
       id="path596"
       inkscape:connector-curvature="0" /><path
       style="display:inline;overflow:hidden;fill:#00009e;fill-opacity:1;stroke:#00009e;stroke-width:5;stroke-linejoin:round;stroke-miterlimit:4;stroke-dasharray:none;stroke-opacity:1"
       d="m 322.87319,1702.91 0,0.03 0.03,0.01 0.01,0.02 0.01,0.02 0.08,0.01 0,-0.02 -0.02,-0.05 -0.04,0.01 -0.04,-0.04 -0.04,0 z"
       id="path598"
       inkscape:connector-curvature="0" /><path
       style="display:inline;overflow:hidden;fill:#00009e;fill-opacity:1;stroke:#00009e;stroke-width:5;stroke-linejoin:round;stroke-miterlimit:4;stroke-dasharray:none;stroke-opacity:1"
       d="m 327.68319,1703.89 0.01,0.06 0.07,0.01 0.04,0 0.02,-0.04 -0.01,-0.03 -0.06,-0.04 -0.03,0.03 -0.04,0.01 z"
       id="path600"
       inkscape:connector-curvature="0" /><path
       style="display:inline;overflow:hidden;fill:#00009e;fill-opacity:1;stroke:#00009e;stroke-width:5;stroke-linejoin:round;stroke-miterlimit:4;stroke-dasharray:none;stroke-opacity:1"
       d="m 323.01319,1703.33 0,0.03 -0.01,0.01 0.04,0.02 0.01,-0.02 -0.01,-0.05 -0.02,0 z"
       id="path602"
       inkscape:connector-curvature="0" /><path
       style="display:inline;overflow:hidden;fill:#00009e;fill-opacity:1;stroke:#00009e;stroke-width:5;stroke-linejoin:round;stroke-miterlimit:4;stroke-dasharray:none;stroke-opacity:1"
       d="m 323.07319,1703.55 0.01,0.04 0.03,-0.01 -0.01,-0.02 -0.01,-0.01 -0.02,0 z"
       id="path604"
       inkscape:connector-curvature="0" /><path
       style="display:inline;overflow:hidden;fill:#00009e;fill-opacity:1;stroke:#00009e;stroke-width:5;stroke-linejoin:round;stroke-miterlimit:4;stroke-dasharray:none;stroke-opacity:1"
       d="m 324.33319,1702.48 -0.01,0.02 0.02,0.02 0,0.03 0.02,0 0.01,-0.02 -0.01,-0.03 -0.02,-0.01 z"
       id="path606"
       inkscape:connector-curvature="0" /><path
       style="display:inline;overflow:hidden;fill:#00009e;fill-opacity:1;stroke:#00009e;stroke-width:5;stroke-linejoin:round;stroke-miterlimit:4;stroke-dasharray:none;stroke-opacity:1"
       d="m 325.00319,1702.35 0.01,0.03 0.03,0.01 0.02,-0.02 -0.01,-0.04 -0.02,0.01 -0.01,0.01 z"
       id="path608"
       inkscape:connector-curvature="0" /><path
       style="display:inline;overflow:hidden;fill:#00009e;fill-opacity:1;stroke:#00009e;stroke-width:5;stroke-linejoin:round;stroke-miterlimit:4;stroke-dasharray:none;stroke-opacity:1"
       d="m 324.91319,1702.4 0,0.03 0.02,0 0,-0.02 -0.02,0 z"
       id="path610"
       inkscape:connector-curvature="0" /><path
       style="display:inline;overflow:hidden;fill:#00009e;fill-opacity:1;stroke:#00009e;stroke-width:5;stroke-linejoin:round;stroke-miterlimit:4;stroke-dasharray:none;stroke-opacity:1"
       d="m 327.61319,1704.93 -0.03,0.01 0,0.02 0.03,0.01 0.02,-0.01 -0.01,-0.02 -0.02,0 z"
       id="path612"
       inkscape:connector-curvature="0" /><path
       style="display:inline;overflow:hidden;fill:#00009e;fill-opacity:1;stroke:#00009e;stroke-width:5;stroke-linejoin:round;stroke-miterlimit:4;stroke-dasharray:none;stroke-opacity:1"
       d="m 328.78319,1706.32 -0.02,-0.02 -0.02,0 0,0.03 0.02,0.01 0.02,-0.01 0,-0.02 z"
       id="path614"
       inkscape:connector-curvature="0" /><path
       style="display:inline;overflow:hidden;fill:#00009e;fill-opacity:1;stroke:#00009e;stroke-width:5;stroke-linejoin:round;stroke-miterlimit:4;stroke-dasharray:none;stroke-opacity:1"
       d="m 328.76319,1706.36 -0.04,0.01 0.02,0.07 0.03,-0.01 0.02,-0.03 -0.02,-0.04 z"
       id="path616"
       inkscape:connector-curvature="0" /><path
       style="display:inline;overflow:hidden;fill:#00009e;fill-opacity:1;stroke:#00009e;stroke-width:5;stroke-linejoin:round;stroke-miterlimit:4;stroke-dasharray:none;stroke-opacity:1"
       d="m 328.76319,1706.5 -0.03,0 0,0.03 0.03,0 0,-0.03 z"
       id="path618"
       inkscape:connector-curvature="0" /><path
       style="display:inline;overflow:hidden;fill:#00009e;fill-opacity:1;stroke:#00009e;stroke-width:5;stroke-linejoin:round;stroke-miterlimit:4;stroke-dasharray:none;stroke-opacity:1"
       d="m 328.82319,1706.56 -0.06,0 0,0.04 0.04,0.02 0.02,-0.01 0,-0.03 -0.01,-0.02 z"
       id="path620"
       inkscape:connector-curvature="0" /><path
       style="display:inline;overflow:hidden;fill:#00009e;fill-opacity:1;stroke:#00009e;stroke-width:5;stroke-linejoin:round;stroke-miterlimit:4;stroke-dasharray:none;stroke-opacity:1"
       d="m 326.85319,1708.16 -0.06,0 -0.01,0.06 0.02,0.02 0.04,-0.01 0.01,-0.03 0,-0.04 z"
       id="path622"
       inkscape:connector-curvature="0" /><path
       style="display:inline;overflow:hidden;fill:#00009e;fill-opacity:1;stroke:#00009e;stroke-width:5;stroke-linejoin:round;stroke-miterlimit:4;stroke-dasharray:none;stroke-opacity:1"
       d="m 326.21319,1707.34 -0.04,-0.04 -0.05,0.03 -0.05,0.06 -0.01,0.03 0.02,0.04 0.07,-0.04 0.01,-0.03 0.02,-0.01 0,0.03 0.03,0.02 0.02,-0.03 -0.01,-0.06 z"
       id="path624"
       inkscape:connector-curvature="0" /><path
       style="display:inline;overflow:hidden;fill:#00009e;fill-opacity:1;stroke:#00009e;stroke-width:5;stroke-linejoin:round;stroke-miterlimit:4;stroke-dasharray:none;stroke-opacity:1"
       d="m 200.43319,1529.73 -0.06,0 0,0.03 0.03,0.02 0.04,-0.01 0,-0.05 z"
       id="path626"
       inkscape:connector-curvature="0" /><path
       style="display:inline;overflow:hidden;fill:#00009e;fill-opacity:1;stroke:#00009e;stroke-width:5;stroke-linejoin:round;stroke-miterlimit:4;stroke-dasharray:none;stroke-opacity:1"
       d="m 200.37319,1529.54 -0.04,0 0,0.06 0.02,0.04 0.04,-0.02 -0.01,-0.04 0,-0.04 z"
       id="path628"
       inkscape:connector-curvature="0" /><path
       style="display:inline;overflow:hidden;fill:#00009e;fill-opacity:1;stroke:#00009e;stroke-width:5;stroke-linejoin:round;stroke-miterlimit:4;stroke-dasharray:none;stroke-opacity:1"
       d="m 210.36319,1536.36 0,0.06 0.03,0 0.01,-0.06 -0.03,0 z"
       id="path630"
       inkscape:connector-curvature="0" /><path
       style="display:inline;overflow:hidden;fill:#00009e;fill-opacity:1;stroke:#00009e;stroke-width:5;stroke-linejoin:round;stroke-miterlimit:4;stroke-dasharray:none;stroke-opacity:1"
       d="m 209.63319,1535.89 0,0.02 0.03,0 0,-0.02 -0.03,0 z"
       id="path632"
       inkscape:connector-curvature="0" /><path
       style="display:inline;overflow:hidden;fill:#00009e;fill-opacity:1;stroke:#00009e;stroke-width:5;stroke-linejoin:round;stroke-miterlimit:4;stroke-dasharray:none;stroke-opacity:1"
       d="m 127.03319,59.13999 0.01,0.01 0,0.01 0.01,0.01 0,0.01 0,0 -0.01,-0.01 0,0 0.01,0.01 0.01,0.01 0,0.01 0.01,0 0,-0.01 0,0 0,0 0,0 0,0 0,0 0.01,0 0,0 0,0 0,0 0,0 0,0 0,0 0.01,0 0.01,0 0.01,-0.01 0,-0.01 0.01,0 0,-0.01 0,0 0,-0.01 0,-0.01 0,0 0.01,0 0,0 0,-0.01 0,0 0,0 0,0 0,-0.01 0,-0.01 0,-0.01 0,-0.01 -0.01,-0.01 -0.01,0 0,0 -0.01,0 -0.01,0 -0.01,0 0,-0.01 0,0 0,0 0,0 0,0.01 0,0 -0.01,0 0,0.01 0,0.01 0,0.01 -0.01,0 0,0 0,0 0,0 0,0 0,0 0,0 0,0 0,0 0,0.01 0,0.01 0,0 0,0 0,0.01 0,0 z"
       id="path634"
       inkscape:connector-curvature="0" /><path
       style="display:inline;overflow:hidden;fill:#00009e;fill-opacity:1;stroke:#00009e;stroke-width:5;stroke-linejoin:round;stroke-miterlimit:4;stroke-dasharray:none;stroke-opacity:1"
       d="m 127.31319,59.30999 0.01,0 0,0 0,0 -0.01,0 -0.01,0 0,0 0.01,0 z"
       id="path636"
       inkscape:connector-curvature="0" /><path
       style="display:inline;overflow:hidden;fill:#00009e;fill-opacity:1;stroke:#00009e;stroke-width:5;stroke-linejoin:round;stroke-miterlimit:4;stroke-dasharray:none;stroke-opacity:1"
       d="m 516.80319,431.79999 -0.16,0.15 -0.4,0.22 -0.06,0.04 -0.01,0.04 -0.07,0.03 -0.03,0.06 0.02,0.06 -0.06,0.06 -0.16,0.24 -0.02,0.04 -0.01,0.05 0,0.05 -0.01,0.05 0.04,0.06 0.01,0.07 -0.01,0.05 -0.07,0 -0.01,0.05 -0.01,0.04 0.01,0.05 0,0.03 -0.01,0 -0.01,0.02 -0.04,0.01 -0.01,0.02 -0.01,0.01 -0.03,0.01 -0.01,-0.01 -0.04,0 0,0.04 -0.02,0 -0.02,0.01 0,0.03 0.01,0.03 -0.06,0.03 -0.06,0 -0.02,0 -0.02,0.02 0.01,0.03 0.01,0.02 -0.01,0.02 -0.02,0.01 -0.02,-0.01 -0.03,0.01 -0.01,0.03 0,0.02 0.02,0.02 0.01,-0.01 0.01,0 0.01,0.01 -0.01,0.01 -0.02,0.02 0,0.03 -0.02,0.02 -0.01,0.02 -0.02,0.01 -0.01,0.01 0,0.02 0.01,0.01 0,0.02 0.02,0.01 0,0.04 -0.03,0 -0.02,0.01 -0.16,0.08 -0.08,0.16 -0.03,0.04 -0.03,0.01 -0.02,0.02 -0.03,0.01 0,0.06 -0.02,0.04 -0.03,0.01 -0.02,0 -0.03,0 -0.02,0.04 -0.02,0 -0.01,0.02 -0.03,0.02 0.02,0.04 0,0.04 -0.03,0.02 -0.01,-0.02 -0.02,0.02 0,0.05 0.03,0 0.03,0 0.02,-0.01 0.01,0.01 0.03,0.01 0.03,-0.01 0.01,-0.02 0.01,-0.01 0.01,-0.01 0.02,-0.01 0.01,0 0.01,0.01 0.02,0.03 0.01,0.03 0.01,0.03 0.01,0.05 0.02,0 0.02,-0.03 0.02,-0.02 0.03,0 0.03,0.01 0.03,0.04 0.02,0.03 0.03,0 0.01,0.02 0.04,0 0.05,0 0.05,0.03 0.03,0.06 0,0.07 0.05,0 0.04,0 0,-0.01 0.02,0 0,0.01 0.04,0 0.01,-0.02 0.02,0 0,-0.01 0.02,-0.01 0.02,-0.01 0.03,0 0.03,-0.01 0.01,0.03 0.02,0.03 0.02,0.03 0.01,0.03 0.02,0.01 0.05,0 0.03,-0.02 0.01,0.01 0.01,0.02 0.02,0.01 0.03,0 0.03,0 0.02,-0.02 0.04,0 0,0.02 0,0.02 0.03,0.02 0.02,0 0,0.02 0,0.01 0.03,0 0.01,-0.01 0.02,-0.01 0.01,0.01 0.01,0.01 0,0.02 0.02,0.02 0.02,0 0.03,0.02 0.01,0.02 0.01,0.02 -0.01,0.03 -0.02,0.03 0,0.04 0.02,0.04 0.02,0.03 -0.01,0.06 0.05,0.09 0.04,0.04 0.02,0 0.02,0.03 0,0.03 0.03,0.03 0.05,0.01 0.04,0.04 0.01,0.03 -0.01,0.04 0.07,0.02 0,0.03 0.07,0.01 -0.01,0.02 0,0.02 0.03,0 0.04,0 0.01,0.02 0.01,0.03 0.02,0.01 0.01,0.02 0.02,0.04 0.02,0.01 -0.01,0.03 0,0.04 0.01,0.01 0.02,-0.01 0.02,-0.02 0.01,-0.02 0,-0.02 0.03,0 0.04,-0.01 0.02,-0.01 0.01,-0.02 0.02,0.01 0.03,-0.01 0.03,-0.03 0.03,-0.01 0.02,-0.02 0.03,-0.02 0,-0.01 0.02,0 0.01,-0.01 0.01,-0.02 0.02,-0.01 0.02,0 0.01,-0.01 0.01,-0.01 0,-0.02 0,-0.01 -0.01,-0.01 0,0 0.01,-0.01 0,0 0,0 0,0 0,0 0.01,0 0,0 0,0 0,0 0,0 0,0 0.01,0 0,0 0,0 0,0 0,0 0.01,0 0.01,0 0,-0.01 0,0 0,-0.01 0,0 0,0 0,0 0,-0.01 0,0 0,0 0,0 0,0 0,0 0,0 0,0 0,-0.01 0,-0.01 0,0 0,-0.01 0,-0.01 0,0 0,0 0,0 0,0 0,-0.01 0,0 0,0 0,0 0,-0.01 0.01,-0.01 0.01,-0.01 0,0 0,0 0,0 0.01,0 0,0.01 0,0 0,0 0.01,0 0.01,-0.01 0,0 0.01,0 0.01,0 0.01,0 0.01,0 0,0 0,0 0,0 -0.01,0 0,0 0,0 0,-0.01 0.01,-0.01 0,0 0,0 0,0 0,0 0,0 0,0 0,0 0.01,0 0,0 0.01,0 0,0 0,0 0,0 0.01,0 0,0 0,0 0,0 0,0 0,0 0,0 0,0 0,0 0,0 0,-0.01 0,0 0,0 0.01,0 0.01,0 0.01,-0.01 0,0 0,0 0,0 0.01,0 0,0 0,0 0,0 0,0 0,0 0.01,-0.01 0,0 0,0 0,-0.01 -0.01,0 0,-0.01 -0.01,-0.01 0,-0.01 0,0 0,0.01 0,0 0,0 0,0 0,-0.01 0,-0.01 0,-0.01 0,-0.01 0.01,0 0.01,0 0.01,0 0.02,0 0.01,0 0,0 0,-0.01 0,-0.01 0,0 0,0 0,0 0,0 0,0 0.01,0 0,-0.01 0,-0.01 0,-0.01 0,0 0,0 0,-0.01 0,0 0.01,0 0.01,0 0.01,0 0,0.01 0.01,0 0,-0.01 0.01,0 0.01,-0.01 0.01,0 0,0 0,0.01 0,0 0,0.01 0,0 0,0 0,-0.01 0,0.01 0.01,0 0,0.01 0,0.01 0,0.01 0,0 0,0 0,0 0,0.01 -0.01,0 -0.01,0.01 0,0 0,0 0,0 0,0 0.01,0 0,0.01 0.01,0 0.01,0 0,0.01 0,0 0,0 0.01,-0.01 0,0.01 0,0 0,-0.01 0,-0.01 0,0 0.01,0 0,-0.01 0.01,-0.01 0,-0.01 0.01,-0.01 0.01,-0.01 0,0 0,-0.01 0,0.01 0,0 0,0.01 0.01,-0.01 0.01,0 0.01,0 0,0 0,0 0,0 0.01,0.01 0,0 0,0 0,0 0,0 0,0 0,0 0,0 0,0 0,0 0,0 0,-0.01 0,-0.01 0.01,0.01 0,0.01 0,0 0,-0.01 0.01,-0.01 0.01,0 0.01,0.01 0.01,0 0.01,0.01 0.01,0 0,-0.01 0.01,0 0,0 0,0 0,-0.01 0,0 0,0 0,0 0,0 0,0 0,0 0,0 0,0 0,0 0,0 0,0 0,-0.01 0,0 0,0 0,0 0,0 0,-0.01 -0.01,0 -0.01,0 0,-0.01 0,-0.01 0,0 0,0 0,0 0,0 0,0 0,0 0,0 0.01,0 0,0.01 0,0 0.01,0 0,0 0,-0.01 0,-0.01 0,0 0,0 0,-0.01 0,0 0.01,-0.01 0,0 0,-0.01 0,0 0,-0.01 0,-0.01 0,-0.01 0,-0.01 0,-0.01 0.01,0.01 0.01,0.01 0.01,0.01 0.01,0.01 0,0.01 0,0.01 0.01,0 0.01,0 0,-0.01 0.01,0 0.01,-0.01 0,-0.01 0,-0.01 0,-0.01 0.01,0 0.02,0 0.01,0 0,0.01 0,0 0,0 0.01,0 0.01,-0.01 0,-0.01 0,0 0,0 0.01,0 0.01,0 0,0.01 0,0 0,0.01 0,0.01 0,0 0,0 0,0 0,0 0,0 0,0 -0.01,0 0,0 0,0 0,0 0,0 0.01,0 0.01,0 0,0 0,0 0,0 0.01,0 0.01,0 0.01,0 0,0 0,0 0.01,0 0.01,0 0,0 0.01,0 0,0 0.01,0 0,0 0,0 0,0 0,0 0.01,0 0,0 0,0 0,0 0.01,0 0,-0.01 0,0 0,-0.01 0,0 0,0 0,0 0,0 0,0 0.01,0 0,-0.01 -0.01,0 0,-0.01 0,0 0,-0.01 0.01,-0.01 0.01,0 0,0 0.01,0 0,0 0.01,0 0,0 0.01,0 0,0 0,0 0,0 0,0 0,0 0,0 0,0 0,0 0,0 0,0 0,0 0,-0.01 0,0 -0.01,0 0,0 0,0.01 -0.01,0 -0.01,0 -0.01,0.01 0,-0.01 0.01,-0.01 0,0 0,0 0,-0.01 0,0 0,0 -0.01,0 0,0 -0.01,0 -0.01,0 0,-0.01 0,-0.01 0,0 0,0 0,0 0,0 0,0 0,-0.01 0,0 0,-0.01 0.01,0 0.01,0 -0.01,-0.01 0,0 0,-0.01 0,-0.01 0.01,-0.01 0.01,-0.01 0.01,-0.01 0,0 0,0 0.01,0 0.01,0 0.01,0 0.01,0.01 0,0.01 0,0.01 0,0.01 0,0 0.01,0 0,0.01 0.01,0 0,0 0,0 0.01,0 0,0 0.01,0 0,0 0,0 0.01,0 0,0 0,-0.01 0,0 0.01,0 0,0 0,0 0,0.01 0,0 0,-0.02 0.01,0 0,0 0,-0.01 0,0 0,0 0,0 0.01,0 0.01,0 0,-0.01 0,-0.01 0,0 0,-0.02 0,-0.01 0,0 0,0 0,-0.01 0,-0.01 0,-0.01 -0.01,0 0,-0.01 0,-0.01 0,0 0,0 0.01,0 0,0.01 0.01,0 0,0 0,0 0,0 0.01,0.01 0.01,0.01 0,0.01 0,0.01 0,0 0,0 0,0 0,0 0,0.01 0,0 0,0 0,0 0,-0.01 0,0 0.01,0 0,0 0,-0.01 0,0 0,0 0,0 0,0 0.01,0 0.01,0 0,0 0.01,0 0.01,0 0,0 0.01,0 0,0 0,0 0,0 0,0 0.01,0 0.01,0 0,-0.01 0.01,-0.01 0,0 0,0 0,0 0.01,0 0,0 0.02,0 0.01,0 0.01,0 0.01,0 0,0 0.01,0 0.01,-0.01 0,-0.01 -0.01,-0.01 0,0 0,0 0.02,0.01 0.01,0 0,0 0.01,0.01 0,0 0,0 0,0 0,0 0,0 0,0 0,0 0,0 0,0 0,0 0,0 0,0 0.01,0 0,0 0,0 0,0 0,0 0,-0.01 0,-0.01 0.01,0 0.01,0 0,0 0,-0.01 0.01,0 0.01,0 0.01,0 0.01,0 -0.01,0.01 -0.01,0.01 0,0.01 0,0.01 0,0 0,0 0,0 0,0 0,0 0,0 0,0 0,0 0,0 0,0 0,0 0,0 0,0 0.01,0 0,0 0,0 0,0 0,0 0,0 0.01,0 0.01,0 0.01,0 0.01,0 0,-0.01 0,-0.01 0,-0.02 0,-0.01 0.01,-0.01 0.01,-0.01 0,-0.01 0,0 0.01,0 0.01,0.01 0.02,0.02 0,0.01 0,0.01 0.01,0.01 0.01,0.01 0,0.01 0.01,0 0,0 0.01,0.01 0.01,-0.01 0.01,-0.01 0.01,-0.01 0.01,0 0,-0.01 0,-0.01 0,0 0.01,0 0.01,0 0.01,0 0.01,0.01 0.01,0 0.01,0.01 0.01,0.01 0.01,0.01 0.01,0 0.01,-0.01 0,0 0.01,0 0.02,0.02 0,0.02 0.02,0.02 0,0.01 0.01,0.01 0.01,0 0.01,0 0.01,0 0.01,0 0.01,0 0.01,0 0.01,-0.01 0,-0.01 0.02,0 0.01,0 0.01,0 0,-0.01 0,-0.01 0.01,0 0.02,0.01 0.01,0.01 0.01,0.01 0.01,0.02 0.01,0.02 0,0.01 0,0 0.01,0 0,0.01 0,0.01 0.01,0 0,0.01 0.01,0.01 0.01,-0.01 0,0 0,0 0,0 0,0 0,0 0,0 0,0 0,0 0,0 0,0 0.01,-0.01 0.01,0 0.01,0 0,0 0.01,0 0,0 0,0 0,0 0.01,0 0.02,0.02 0.01,0.01 0,0 0.01,0 0,0 0,0 0,0 0.01,0 0,0 0.01,-0.01 0,-0.01 0,-0.01 0,0 0,-0.01 0,-0.01 0,0 0,0 0,0 0,-0.01 0,-0.01 0.01,0 0,0 0,0 0,0 0,0 0.01,0 0,-0.01 0,0 0,0 0,0 0,-0.01 0,0 0,0 0,0 0,-0.01 0,-0.01 0,-0.01 0,0 0,0 0,0 0,0 0.01,0 0.01,0 0.01,0 0.01,0 0,0 0,-0.01 0,0 0,0 0,0 0,0 0,0 0,0 0,-0.01 0,0 0,0 0,0 0,0 0,-0.01 0,-0.02 -0.01,-0.01 0,0 0,0 0,0 0,0 0,0 0,0 0,0 0,0 0,0 0,-0.01 0,0 0,0 0,0 -0.01,-0.01 -0.01,0 0,0 0,0 0,0 0,0 0,0 0,-0.01 0,-0.01 0.01,-0.01 0.01,0 0.01,0 0.02,0.01 0,0.01 0,0.01 0.02,0.03 0,0 0,0 0,0 0,0 0,0 0,0.01 0.01,0.01 0,0 0,0 0,0 0,0 0,0 0,0 0,0 0,0 0,0 0,0 0,0 0.01,0 0,0 0,0 0,0 0,0 0,0 0.01,0 0,0 0,0 0,0 0,0 0,0.01 0.01,0 0.01,-0.01 0,-0.01 0,0 0,0 0,-0.01 0.01,0 0.01,0.01 0,0 0,-0.01 0,-0.01 0.01,0 0.01,0 0.01,0 0,-0.01 0,-0.01 0.01,0 0.01,0 0,0 0.01,0 0.01,0 0,0 0,-0.01 0,-0.01 0,0 0,0 0,-0.01 0,0 0,0 0.01,0 0.02,0 0.01,0 0.02,0 0,0 0.02,0.02 0.01,0.01 0,0 0,0 0,0 0,0 0,0 0,0 0,0 0,0 0,0 0,0 0,0 0,0 0,0 0,0 0,0 0,0 0,0 0,-0.01 0,0 0,0 0,0 0,0 0,0 0,0 0,0 0,0 0,0 0,-0.01 0,-0.01 -0.01,0 0,-0.02 0,-0.01 0,-0.01 0,-0.01 0.01,-0.01 0,-0.01 0.01,0 0.01,0 0.01,0.01 0,0.01 0,0 0,0 0,0.01 0,0 0,0 0,0 0,0 0,0 0,-0.01 0,-0.01 0,0 0,0 0,0 0.01,0 0.02,-0.01 0.01,0.01 0.01,0.01 0,0.02 0,0 0,0 0.01,0.01 0,0.01 0,0.01 0,0 0,0.01 0,0.02 0,0.01 0.01,0 0,0 0,0 0,0 0,0 0.01,0 0,0 0,0.01 0.01,0 0.01,0 0.01,0.01 0.01,0 0,0 0,0 0,0 0.01,-0.01 0,-0.01 0,0 0,-0.01 0,0 0,0 0,0 0,-0.01 0,-0.01 0,0 0,0 0,0 0,0 0,0 0,0 0,0 0.01,0 0,0 0.01,0 0,0 0.01,0 0.02,0 0.01,0 0.01,0 0.01,0 0,-0.01 0.01,0 0,-0.01 0,-0.01 0,0 0,0 0,0 0,0 0,0 0,-0.01 0,0 0,0 0,0 0,0 0,-0.01 0,0 0,-0.01 0,-0.01 -0.01,0 -0.01,0 -0.01,0 -0.01,-0.01 -0.01,0 0.01,-0.01 0,0 0,0 0,0 0,0 0,-0.01 0,0 0.01,-0.01 0,-0.01 0,0 0.01,0 0,-0.01 0,0 0.01,0 0.01,0 0.01,0 0,-0.01 0,0 0,0 0,0 0,0 0,0 0.01,0 0,-0.01 0,-0.01 0,-0.01 0,0 0,0 0,0 0,0 0,0 0.01,-0.01 0,-0.01 0.01,0 0,0 0,0 0,0 0,0 0,0 0,0 0,0 0,0 0,0 0,0 0,0 0,0 0,0 0,-0.01 0,-0.01 0,-0.01 0,0 0,0 0,0 0,0 0.01,0 0.01,0 0,-0.01 0,0 0,0 0,-0.01 0,-0.02 -0.02,0 0,0 -0.01,0 -0.01,0 -0.01,0 -0.01,0 -0.01,0 0,-0.01 0,-0.01 -0.01,0 0,-0.01 0,0 0.01,0 0,-0.01 0,0 -0.01,0 0,-0.01 0,0 0,0 0,0 0,0 0,0 0,0 0,0 0,-0.01 0,0 0,-0.01 0,0 0,0 0,0 0,0 0,0 0,0 0,0 0.01,0 0,0 0,0 0,0 0,0 0.01,0 0,0 0,0 0.01,0 0.01,0 0,0 0,0 0,0 0,0 -0.01,0 0,0 0,0 0,-0.01 0,0 0,0 0,0 0,0 0,0 0,0 0,0 0.01,0 0,0 0.01,0 0.01,0 0,0 0,0 0,0 0,0 0.01,0 0,0.01 0,0 0,0 0.01,0 0,0 0,0 0.01,0 0,-0.01 0,-0.01 0,0 0,0 0.01,0.01 0.01,0.01 0,0 0,0 0,0 0,0 0.01,0 0.01,0 0,0 0,0 0,0.01 0,0 0,0 0,0 0.01,0 0,0 0,0 0.01,0 0.01,0 0.01,0 0.01,0 0,0 0,-0.01 0,0 0,0 0,0 0,0 0,0 0,0 0,0 0.01,0 0.01,0 0,0 -0.01,0 0,0 0,0 0,0 0,-0.01 0,-0.01 -0.01,-0.01 0,-0.01 0,0 0.01,0 0,-0.01 0,-0.01 0,0 0,-0.01 0,0 0,0 0,0 0,0 0,0 0,0 0,-0.01 0,-0.01 0,-0.01 0,-0.01 0.01,0 0.01,0 0.02,0.01 0.01,0 0.01,0 0.01,0 0.01,0 0.01,-0.01 0.01,0 0.01,0 0,-0.01 0,0 0,0 0,-0.01 0,-0.01 0,-0.01 0,0 0,0 0.01,0 0.01,0 0.01,0 0.01,0.01 0,0.01 0,0 0,0.01 0,0.01 0,0 0,-0.01 0.01,-0.01 0,0 0.01,0 0,0 0,0 0,0.01 0,0 0,0 0,0 0.01,0 0,-0.01 0.01,0 0,0 0,0 0,0 0,0 0,0.01 0,0 0,0 0,0 0.01,0 0.01,0 0,0.01 0,0 0,0.01 -0.01,0 0,0 0,0 0,0 0,0 0,0 0,0.01 0,0 0,0 0.01,0 0,0 0,0 0,0 0,0 0,-0.01 0,0 0,-0.01 0,0 0,0 0,0 0,0 0,0 0,0 0,0 0,0 0,0 0,0 0,0 0,0 0,0 0,0 0,0 0,0 0,0 0,0 0.01,0 0.01,0 0.01,0 0.01,0 0.01,0 0.01,0 0,0.01 0,0 0,0 0,0 0,0 0,0 0,0 0,0 0,0 0,0 0,0 0,0 0,0 0.01,0 0,0 0,0 0,0 0,0 0.01,0 0,0 0,0 0,0 0,0 0.01,0 0,0 0,0 0,0 0,0 0,0 0,0 0,0 0,0 0,0 0,0 0,0 0,0 0,0 0,-0.01 0,0 0,0 0,-0.01 0,-0.01 0,0 0,0 0.01,0 0,0 0,0.01 0,0 0,-0.01 0,-0.01 0,0 0,0 0,0 0,0 0,0 0,0 0,0 0,-0.01 0,0 0,0 0,0 0,0 0,0 0,-0.01 0,0 0,0 0,0 0,0 0,0 0,0 0,-0.01 0,0 0,0 0,0 0,0 0,0 0,-0.01 0,0 0,0 0,0 0,0 0,0 0,0 0,-0.01 0,-0.01 0,0 0,0 0,0 0,0 0,-0.01 0,0 0,0 0,0 0,0 0.01,0 0.01,0 0,0 0.01,-0.01 0,0 0.01,0 0.01,0 0,0 0.01,0 0.01,0 0,0 0.01,0 0,0 0.01,0 0.01,0 0.01,0 0.01,0 0,0 0,0 0,0 0,0 0,0 0,0 0,0 0,0 0,0 0,-0.01 0,0 0,0 0,0 0,-0.01 0,0 0,0 0,0 0,0 0,0 0,-0.01 0,-0.01 0,-0.01 0.01,-0.01 0,0 0,0 0,0 0,0 0,0 0,0 0,0.01 0.01,0.01 0.01,0 0,0 0,0 0,0 0.01,0 0.01,0 0,0.01 0.01,0 0.01,0 0,0 0.01,0 0,0 0,0 0,-0.01 0,0 0,0 0,0 0,0 0,0 0,0 0,0 0,-0.01 0,0 0,0 0,0 0,-0.01 0.01,0 0,0 0,0 0,0 0,0 0,-0.01 0,-0.01 0,0 0,0 0,-0.01 0,-0.01 0,0 0,0 0,0 0,0 0,0 0.01,0 0,0 0,0 0,0 0,0 0,0 0,0 0.01,0 0,0 0,0 0,0 0,0 0,0 0,0 0,0 0,0 0,0 0,0 0,0 0,0 0,0 0.01,0 0.01,0 0,0 0,0 0,-0.01 0,-0.01 -0.01,0 0,0 0,-0.01 0,0 0,0 0,-0.01 0,-0.01 0,0 0,0 -0.01,0 0,0 0,0 0,0 0,0 0,0 0,-0.01 0,0 0,-0.01 0,0 0,0 0,0 0,0 0,0 0,0 0,0 0,0 0,0 0,0 0,0 0,-0.01 0,0 0,0 0,0 0,0 0,0 0,0 0,0 0,0 0,0 0,-0.01 0,0 0,0 0,0 0,0 0,0 0.01,0 0,-0.01 -0.01,0 -0.01,0 -0.01,0 0,0 0,0 0,0 0.01,0 0,0 0,-0.01 0,-0.01 0,0 0,-0.01 0,-0.01 0,0 0,0 -0.01,0 0,-0.01 0,0 0,-0.01 0,-0.01 0,-0.01 0,0 0,0 0,0 0.01,0 0,0 0.01,0 0.01,0 0,0 0,0 0,0 0.01,0 0.01,0 0,-0.01 0,-0.01 0,0 0,-0.01 0,0 0,0 0.01,0 0.01,0 0,0 0,0 0,0 0,0 0,-0.01 0.01,0 0,0 0,0 0.01,0.01 0.01,0 0,0 0,0 0,-0.01 0,-0.01 0,0 0,-0.01 0,-0.01 0,0 0,0 0,0 0,-0.01 0,0 0,0 0,0 0,0 0,0 0,0 0,0 0.01,0 0,0 0,0 0,0 0,0.01 0.01,0 0,-0.01 0,-0.01 0,-0.01 0.01,0 0.01,0 0.01,0.01 0,0.01 0,0.01 0.01,0 0,0.01 0,0 0,-0.01 0,0 0,0 0,0 0,-0.01 0,0 0.01,-0.01 0,0 0,0 0,0 0,0 0,0 0,0 0,0 0,0 0,0 0.01,0 0.01,0.01 0,0 0,0 0,0.01 0,0 0,0 0,0 0,0 0,0 0,0 0.01,0 0,0 0,0 0,0 0,-0.01 0,0 0.02,0.01 0,0.01 0,0 0.01,0 0.01,0 0,0 0,0 0.01,0 0,0 0,0 0.01,0 0.01,0 0.01,0 0.01,0 0.02,0 0.01,-0.02 0,0 0,0 0,0 0,0 0,0 0,0.01 0,0 0,0 0,0 0,0 0,0 0,0 0,0 0,0 0,0 0,0 0,0 0,0 0,0 0,0 0.01,0 0.01,0 0,-0.01 0,0 0,0 0,0 0,0 0,0 0,0 0,0 0,0 0,0 0,0 0,0 0,0 0,-0.01 0,0 0,0 0,0 0,0 0,0 0,0 0,0.01 0,0 0,0.01 0,0 0,0 0,0 0,0 0,0 0,0 0,0 0.01,0 0,0 0.01,0 0,0 0,0 0,0 0,0 0,0 0,0 0.01,0 0,0 -0.01,0 0,0 0,0 0,0 0,0 0,0 0.01,0 0,0 0,0 0,0.01 0,0 0,0 0.01,0 0.01,0 0,0 0.01,0 0,0 0,0 0,0 0,0 0,0 0,0.01 0,0 0,0 0,0 0,0 0,0 0,0 0,0.01 0,0 0,0 0,0 0,0 0,0 0,0 0,0 0,0 0,0 0,0 0,0 0,0 0,0 0,0 0,0 0,0 0,0 0,0 0,0 0,0 0,0 0,0 0,0 0,0 0,0 0,0 0.01,0 0,0 0,0 0,0 0,0 0,-0.01 0,0 0,-0.01 0,0 0,0 0,0 0,0 0,0 0,0 0,-0.01 0,-0.01 0.01,0 0,-0.01 0,-0.01 0,0 0,0 0,0 0,0 0,0 0,0 0,0 0,0 0,0 -0.01,-0.01 0,0 0,0 0,0 0,0 0,-0.01 0,-0.01 0,-0.01 -0.01,-0.01 0,-0.01 -0.01,-0.01 0,0 0,0 0,0 0,0 0,-0.01 0,-0.01 0,-0.01 0,0 0,0 0,0 0,0 0,0 0,0 0,0 0,0 0,0 0,0 0,0 0,0 0,0 0,0 0,0 0,0 0,0 0,0 0,-0.01 0,0 0,-0.01 0,0 0,0 0,0 -0.01,0 -0.01,0 0,0 0,0 0,0 0,0 0,0 0,-0.01 0,-0.01 0,-0.01 0,-0.01 0,0 0,0 0,0 0,0 0,0 0,0 -0.01,0 -0.01,-0.01 0,-0.01 0,-0.01 0.01,0 0,0 0,0 0,0 0,0 0,0 0,0 0,0 0,0 0,0 0,0 -0.01,0 0,-0.01 0,-0.01 0,-0.01 0,-0.01 0,0 0,0 0,0 0,-0.02 -0.01,-0.02 0,-0.01 -0.01,-0.01 0,-0.02 0,-0.01 0,0 0.01,0 0,0 0,0 0,0 0,0 0,0 0.01,0.01 0,0.01 0.01,-0.01 0,0 0,-0.01 0,-0.01 0,-0.01 0.01,0 0,-0.01 0,-0.01 0,0 0,0 -0.01,0 0,-0.01 -0.01,-0.01 0,-0.01 0,0 0,-0.01 0,0 0,0 0,-0.01 0,-0.01 0,-0.01 0,0 0,-0.01 0,0 0,0 0,-0.01 0,-0.01 0,-0.01 0,0 0.01,0 0,0 0,0 0,0 -0.01,-0.01 -0.01,0 -0.01,0 -0.01,-0.01 -0.01,-0.01 0,0 0,0 0,0 0,0 -0.01,-0.01 0,-0.01 0,0 0,0 0,0 0,0 0,0 0,0 0,0 0,0 0,0 0,0 0,0 0,0 0,0 0,0 0,0 0,0 0,0 0,0 0,0 -0.01,-0.01 0.01,0.01 0,-0.01 0,0 0,0 0,0 0,0 0,0 0,0 0,0 -0.01,0 -0.01,0 0,0 0,0 0,0 0,0 0.01,0 0,-0.01 0.01,0 0,-0.01 0.01,0 0,0 0.01,0 0.01,0 0,0 -0.01,0 0,-0.01 0,-0.01 0,-0.01 0.01,0 0,0 -0.01,-0.01 0,0 0,0 0.01,0 0,0 0,0 0.01,0 0.01,0 0.01,0 0,0 0,0 0,0 0,0 0,0 0,-0.01 0,0 0,0 0,0 0,-0.01 0,0 0,0 0,0 0,0 0,0 0.01,0 0.01,0 0,0 0.01,0 0,0 0,0 0,0 0,-0.01 0,0 0,0 0,-0.01 0,0 0,0 0,0 -0.01,0 0,0 0,-0.01 -0.01,0 0,0 0,0 0,-0.01 0,0 0,-0.01 0,-0.01 0,0 0,0 0,0 0,-0.01 0,0 0,0 0,0 0,0.01 0.01,0.01 0,-0.01 0,0 -0.01,-0.01 0,-0.01 0.01,0 0.01,0 0,-0.01 0,0 0,-0.01 0,0 0.01,0.01 0,-0.01 0,0 0.01,0 0.01,0 0.01,0 0.01,0.01 0.01,0 0.01,0 0.01,0.01 0.01,0 0.01,0 0,0 0,0.01 0,0 0,0 0,0 0,0 0,0 0,0 0,0 0,0 0,0 0,0 0,0 0,0 0,0 0,0 -0.01,0 -0.01,-0.01 0,-0.01 0,-0.01 0,-0.01 0,-0.01 0,0 0.01,0 0,0 0,0 0,0 0.01,0.01 0.01,0.01 0.01,0 0,0 0,0 0,-0.01 0,0 0,-0.01 0.01,0.01 0.01,0 0,0 0.01,0 0,0 0,0 0,0 0,0 0,-0.01 0,0 0.02,-0.01 0,-0.01 0,0 0,0 0,0 0,0 0,0 0,-0.01 0,-0.02 0,-0.01 0,-0.01 0,0 0,0 -0.01,0 -0.01,-0.01 0,0 -0.01,0 0,0 0,0 0,0 0,0 0,0 0,0 0,0 0,0 0.01,-0.01 0,-0.01 0,0 0,0 0,0 0,0 0,0 0,0 0,0 0,0 -0.01,-0.01 -0.01,0 -0.01,-0.01 -0.01,0 0,0 0,0 0,0 0,0 0.01,0 0,0 0,0 0,0 0,0 0,0 -0.01,0 -0.01,0 0,-0.01 -0.01,0 0,0 -0.01,0 0,0 0,0 -0.01,0 0,0.01 0,0 0,0 0,0 0,0 0,0 0,0 0,0.01 -0.01,0 0,0 0,0 -0.01,-0.01 0,0 0,0 0,0 0,-0.01 -0.01,-0.01 0,0 0,0.01 0,0 0,0 0,0 -0.01,0 -0.01,0 0,0 0,0 -0.01,0 -0.01,0 0,0 0,-0.01 0,0 0,-0.01 0,0 0,-0.01 0,0 0,0 0,-0.01 0,0 0,0 0,0 0.01,0 0,0 -0.01,0 0,0 0,0 0,0 0,0 0,0 -0.01,0 -0.01,0 -0.01,-0.02 0,0 -0.01,0 0,-0.01 -0.01,-0.01 0,0 -0.01,0 0,0 0,0 -0.01,0 0,-0.01 0,0 0.01,0 0,0 0,0 0,0 0,0 0,0 0,0 0,0 0,0 0,0 0,0 0.01,0 0,0 0,-0.01 0,-0.01 0.01,0 0.01,0 0,0 0,0 -0.01,-0.01 0,-0.01 0,0 0,0 -0.01,0 -0.01,-0.01 0,0 0,0 0,-0.01 0,0 0,0 0,0 0,0 0,0 0,-0.01 -0.01,0 -0.01,0 0,0 0,0 0,0 0,0 0,0 0,0 0,0 0.02,0 0,0 0,0 0,0 0,0 0,0 0,0 0,0 0,0 0,0 0,0 0,0 0,0 -0.01,0 0,0 0,0 0,0 0,0 0,0 0,0 -0.01,-0.01 0,0 0,0 0,0 0,0 -0.01,0 0,0 0,0 -0.01,0 0.01,0 0,-0.01 -0.01,-0.01 0,0 0.01,0 0,0 0,0 0,0 0,-0.01 0,0 0,0 -0.01,0 0,0 0,0 0,0 0,0 0,0 0,0 0,-0.01 0,-0.01 0,0 0,0 0,0 0,0 0,0 0,0 0,0 0,0 0,0 -0.01,0 0,0 0,0 0,0 0,-0.01 0,0 0,0 0,0 -0.01,0 -0.01,0 -0.01,0 -0.01,0 -0.01,0 0,0 -0.01,0 -0.01,0 0,0.01 0,0.01 0,0 -0.01,-0.01 -0.01,0 -0.01,0 0,0 -0.01,0 -0.01,0 0,-0.01 -0.01,0 0,0.01 -0.01,0 0,0.02 -0.01,0 -0.01,0.01 -0.01,0 -0.03,0 -0.01,0 -0.02,-0.01 -0.01,-0.01 0,-0.01 0,-0.01 -0.01,0 0,0 -0.01,0 -0.01,0 0,0 -0.01,0 0,0 0,0 0,0 -0.01,-0.01 -0.01,0 0,0 0,0 0,-0.01 0,-0.01 0,0 0,0 0,0 0,0 0,0 0,-0.01 -0.01,-0.01 -0.01,-0.01 0,-0.01 0,0 0,0 -0.01,0 0,0 0,-0.01 0,0 -0.01,-0.01 -0.01,-0.01 0,0 0,0 -0.01,-0.01 0,-0.01 0,-0.01 0,-0.02 -0.01,0 -0.01,0 0,-0.01 -0.01,0 0,0 -0.01,-0.01 0,0 0,0 0,0 0,0 0,0 0,0 0,0 0,0 0,-0.01 0,0 0,0 0,0 0,0 0,0 0,0 0,0 0,-0.01 0,0 0,0 0,-0.01 0,0 0,0 0,0 0,0 0,0 0,0 0,0 0,0 0,0 0,0 0,0 0,0 0,0 0,0 0,0 0,0 0,0 0,0 0,0 0,0 0,0 0,0 -0.01,0 0,-0.01 0,0 0,0 0,-0.01 0,0 0,-0.01 0,-0.01 0,0 0,0 0,0 0,0 0,-0.01 0,-0.01 0.01,0 0.01,-0.01 0.01,0.01 0,-0.01 0,-0.01 0,0 0,0 0,0 0,0 -0.01,0 0,0 0,0 0,0 0,0 0,0 0,0 0,0 0.01,0 0,0 -0.01,0 0,0 0,0 0,0 0,0 0,0 0,0 0,0 0.01,0 0.01,0 0,0 0.01,0 0,-0.01 0,0 0,0 0,0 0,0 0.01,0.01 0,-0.01 0,0 0,0 0,0 0,0 0,0 0,0 0.01,0 0,0 0,0 0,0 0,0.01 0.01,0 0,-0.01 0,0 0.01,0 0,0 0,0 0,0 0,0 0,0 0,0 0.01,-0.01 0,-0.01 0,0 0,0 0,0 0,0 0,-0.01 0,-0.01 0,0 -0.01,0 0,0 0,0 0,0 0,0 0,0 0,0 0,0 0,0 0.01,0 0,0 0,0 -0.01,0 0,0 0,0 0,0 -0.01,0 -0.01,0 0,-0.01 0,-0.01 0,0 0,0 0,0 0,0 0,0 0,0 -0.01,0 0,0.01 0,0 0,0 0,0 0,0 0,0 0,0 0,0 0,0 0.01,0 0.01,0 0,-0.01 0.01,0 -0.01,0 0,0 -0.01,0 0,0 0,0 0,0 0,0 0,0 0,0 -0.01,0 0,0 0,0 0,0 0,0 0,0 0,0 -0.01,0 -0.01,0 0,0 0,0 0,0 0,0 0,0 0,0 0,0 0,0 0,0 0,0 0,0 0,0 0,0 0,0 0,0 0,0 -0.01,0 -0.01,0 -0.01,0 0,0 0,0 0,0 0,0 0,0 0,0 0,0 0,0 0,0 0,0 0,0 0,0 0,0 0,0 0,0 0,0 0,0 0,0 0,0 0,0 0,0 0,0 0,0 0,0 0,0 0,0 0,0 0,0 -0.01,0 -0.01,0 0,0 0,0 -0.01,-0.01 0,-0.01 0,0 0,0 0,0 0,-0.01 -0.01,0 0,-0.01 0,0 0,0 0,-0.01 0,-0.01 0.01,0 0,-0.01 0,-0.01 -0.01,0 0,0 -0.01,0 0,0 0,0 -0.01,-0.01 -0.01,0 0,-0.01 0,-0.01 0,-0.01 0,-0.01 0,-0.01 0,-0.01 0,-0.01 0,-0.01 0,-0.01 0,-0.01 0,0 0.01,-0.02 0,-0.01 0,0 0.01,0 0,0 0,0 0,0 0,0 0.01,-0.02 0,0 0,0 0,0 0,0 0.01,-0.01 0.01,0 0,0 0.01,0 0,0 0.01,0 0,0 0,0 0,0 0,0 0,0 0,0 0,0 0,0 0,0 0,0 0.01,0 0.01,0 0,0 0.01,0 0.01,0 0,0 0,0 0,0 0,0 0,0 0,0 0,0 0,0 0,0 0,0 0,0 0,0 0,0 0,0 0,-0.01 0,-0.01 -0.01,0 0,0 0,-0.01 0,0 0,-0.01 0,-0.01 -0.01,0 -0.01,-0.01 -0.01,-0.01 -0.01,0 -0.01,0 -0.01,0 -0.01,-0.01 0,-0.01 0,0 0,-0.01 0,-0.03 -0.12,-0.12 -0.05,-0.14 -0.17,-0.02 -0.07,-0.05 -0.19,0.05 -0.06,0.07 -0.11,0.04 -0.14,0.09 -0.06,0.19 -0.12,0.01 -0.04,-0.08 0.06,-0.21 -0.07,-0.03 0,0 -0.01,0.01 -0.01,0.01 -0.01,0 -0.01,-0.01 -0.02,-0.01 -0.01,0.02 0,-0.01 -0.01,0 0,0.01 -0.01,0 0,0 -0.01,0 0,-0.01 0,0 0,-0.01 -0.01,-0.02 0,0.02 0,0.01 0,0.01 0,0 0,0 0,-0.01 0,-0.02 0,0 -0.01,0.02 0,-0.02 0,0.01 -0.02,-0.01 0,-0.01 0,-0.01 0,0.01 -0.01,0 0.01,-0.01 0,-0.01 -0.01,0 -0.01,-0.01 0,-0.03 -0.01,0 -0.01,0 0,0 -0.01,0.02 -0.01,0.02 -0.01,0.02 -0.01,0 -0.01,0 -0.01,-0.02 0,-0.01 -0.01,0.01 0,0.03 0,0.01 -0.02,0 -0.01,-0.01 0,-0.01 0,0 -0.01,-0.01 0,0.01 -0.01,0 0,0.01 0,0.01 -0.01,0 -0.01,0 -0.01,0 -0.02,0 -0.04,0 -0.03,-0.01 -0.01,-0.01 -0.02,0 0,-0.01 -0.01,-0.01 -0.01,-0.01 -0.01,-0.02 -0.02,-0.01 -0.02,0 -0.02,0.01 -0.02,0 -0.02,-0.01 -0.03,0 -0.01,-0.02 -0.02,-0.01 0,-0.01 0,-0.01 -0.01,0 -0.02,0 -0.01,-0.01 -0.01,0 -0.01,-0.03 -0.02,-0.02 -0.01,0 -0.01,-0.02 -0.01,-0.01 0,0.01 0,0.01 0,0 0,0.01 0,0.01 -0.02,0 -0.01,-0.01 -0.01,-0.02 -0.01,0 0,-0.02 -0.01,0 -0.01,0 0,-0.01 -0.01,0 -0.01,-0.01 0,-0.02 0.01,-0.01 0,-0.01 -0.01,-0.01 -0.01,-0.02 -0.01,-0.02 0,-0.02 0,-0.01 0,0 0,0 -0.01,-0.02 -0.02,-0.04 -0.01,-0.01 -0.02,0 -0.02,0 -0.11,-0.01 -0.14,0.03 -0.15,0.13 0.01,0.17 -0.15,0.15 -0.01,0.01 -0.01,0 0,0 0,0 0,0 0,0 0,0.01 0,0.01 0,0 0,0 0,0 0,0 0,0.01 0,0 0,0 -0.01,0 0,0.01 0,0 0,0 0,0.01 0,0.01 0,0.01 0.01,0 0,0 -0.01,0 0,0 0,0.01 0.01,0 0.01,0 0,0 0,0 0,0 0,0 0,0 0,0 0,0 0,0.01 0,0.01 0,0.01 0,0.01 0,0 0,0.01 0,0 0,0 0,0 0,0.01 0,0.01 0,0 0,0.01 -0.01,0 0,0.01 0,0.01 -0.01,0.01 0,0.01 0,0 -0.03,0.03 -0.01,0 -0.01,0 -0.01,0 -0.01,0 0,0 -0.01,0 -0.01,0 -0.01,0 -0.01,0 0,0 -0.01,-0.01 0,0 0,0 0,0 -0.01,0 0,0 -0.01,0 0,0 -0.01,0 0,0 0,-0.01 0,0 0,0 0,0 0,0 0,0 0,0 0,0 0,0 0,0 0,0 -0.01,0 -0.01,0 0,0 -0.01,0 0,0 0,0 0,0 0,0 0,0 0,0 0,0 0,0 0,0 0,0 0,0.01 0,0 0,0 0,0 0,0 0,0 0,0 0,0.01 0,0 0,0 0,0.01 0,0 0,0.01 -0.01,0 -0.01,-0.01 0,0.01 0,0 0,0 0.01,0.01 -0.01,0.01 -0.01,0 -0.01,0 0,-0.01 0,0 0,0 0,0 0,-0.01 0,0 0,0 -0.01,0 -0.01,0 -0.01,0 0,0 -0.01,0 -0.01,0 0,0 0,0 0,0 0,0.01 -0.01,0.01 0,0 0,0 0,0 0,0 0,0.01 0,0.01 -0.01,0 -0.01,0 0,0.01 0,0.02 0,0.01 0,0 0,0 0,0 0,0.01 0,0 -0.01,0 0,0.02 0,0.01 0,0.01 0,0.02 0,0.01 0,0.01 -0.02,0.02 -0.01,0.01 -0.01,0.01 -0.01,0.01 -0.01,0.01 -0.01,0 -0.01,0 -0.01,0 0,0 0,0 0,0 0,0 0,0 0,0 0,-0.01 0,0 -0.01,0 0,0 0,0 0,0 0,0 0,0 -0.01,0 -0.01,0 -0.01,0 0,0 -0.01,0 0,0.01 0,0 -0.01,0.01 0,0.01 0,0.01 0,0 -0.01,0 -0.01,0 0,0.01 -0.01,0 -0.01,0.01 -0.01,0 -0.01,0.01 0,0 0.01,0 -0.02,0.01 -0.01,0.01 -0.01,0 -0.01,0 -0.01,0.01 -0.01,0.01 0,0 -0.01,0 0,0 0,0 0,0 -0.01,0 -0.01,0.01 -0.01,0.01 -0.01,0.01 0,0.01 0,0.01 -0.01,0.01 0,0.01 -0.01,0.01 -0.01,0 -0.01,0 0,0.01 0,0 0,0 0,0 0,0.01 0,0.01 -0.01,0 0,-0.01 -0.01,0 0,0 0,0 0,0 0,0 0,0 0,-0.01 0,0 0,0 -0.01,0 0,0.01 0,0 0,0.01 -0.01,0 0,0.01 0,0.01 -0.01,0 0,0 0,0 0,0 -0.01,0 -0.01,-0.01 0,0 -0.01,0 0,0.01 0,0 0,0 -0.01,0.01 -0.01,0 0,0 -0.01,0 0,0 0,0 0,-0.01 -0.01,0 -0.01,0.01 0,0.01 0,0 0,0.01 0,0 0,0 0,0 0,0.01 0,0 0,0.01 0,0.01 0,0 0,0.01 0,0 0,0 0,0 -0.01,0 0,0.01 0,0 0,0.01 0,0 -0.01,0.01 -0.01,0 -0.01,0.01 0,0 0,0 0,0 0,0 0,0.01 0,0 0,0 0,0 0,0 0,0 -0.01,0 0,0 -0.01,0 -0.01,0 0,0 -0.01,0 0,0 0,0 0,0 0,0 0,0 0,0 0,0.01 -0.01,0 0,0 0,0 0,0 0,0 0,0 0,0 0,0 0,0.01 0,0.01 0,0 0,0 0,0 0,0 0,0 0,0 0,0.01 0,0 0,0 0,0 0,0.01 -0.01,0.01 -0.01,0 0,0 0,0 -0.01,0 0,0 0,0 -0.01,0 0,0 0,0.01 -0.01,0 -0.01,0 0,0.01 0,0.01 0,0 0,0 0,0 -0.01,0.01 -0.01,0 -0.01,0 0,0 0,0 -0.01,0 0,0 0,0 -0.01,0 0,0 -0.01,0 0,0 0,0 0,0 0,0 -0.01,0 -0.01,-0.01 0,0 0,0.01 -0.01,0 -0.01,0 -0.01,0 0,0 0,0 0,0 0,0 0,0 0,0 0,0 0,0 0,0 0,0 0,0 -0.01,0.01 0,0.01 0,0 0,0 0,0 0,0 0,0 0,0 0,0.01 0,0.01 0,0 0,0 0,0 0,0.01 0,0.01 0,0 0,0 0,0 0,0 0,0 0,0 0,0 -0.01,0.01 0,0.01 0,0.01 -0.01,0.01 0,0.01 0,0.01 0,0 0,0 0,0.01 0,0 0,0 0,0 -0.01,0 -0.01,0 -0.01,0 -0.01,0 -0.01,0 0,0 0,0 0,0 -0.01,0 -0.01,0 0,0 -0.01,-0.01 -0.01,0 -0.01,0 0,0 0,0 0,0 0,0.01 0,0 0,0.01 0,0.01 0,0 -0.01,0 -0.01,0 0,0.01 0,0.01 -0.01,0 -0.01,0 -0.01,0 0,0 -0.01,0 -0.01,0.01 -0.01,0.01 0,0.01 0,0.01 -0.01,0.01 -0.01,0.01 0,0 -0.01,0 -0.01,0 -0.01,0 -0.02,-0.01 -0.01,0 0,0 0,0 0,0 0,0 0,0 0,0 -0.01,0 0,0 -0.01,0 0,-0.01 0,0 0,-0.01 0,0 0,0 0,0 -0.01,-0.01 -0.01,0 0,0 -0.01,0 0,0 -0.01,0 0,0 0,0 0,0 0,0 -0.01,0 -0.01,0 z"
       id="path638"
       inkscape:connector-curvature="0" /><path
       style="display:inline;overflow:hidden;fill:#00009e;fill-opacity:1;stroke:#00009e;stroke-width:5;stroke-linejoin:round;stroke-miterlimit:4;stroke-dasharray:none;stroke-opacity:1"
       d="m 125.35319,57.91999 -0.01,-0.01 -0.01,0 -0.01,0 -0.02,0 -0.03,-0.01 -0.02,0 -0.02,0.01 -0.01,0 -0.01,0 0.01,-0.01 -0.01,-0.01 -0.02,-0.01 0,-0.01 0.01,-0.01 0,-0.01 -0.01,0 0,-0.01 0.01,0 -0.01,-0.01 0.01,-0.01 0,-0.01 -0.01,0 -0.01,0.01 -0.01,0 0,0 -0.02,-0.01 0,-0.01 0,-0.01 -0.01,0 0,0 -0.01,0 -0.01,-0.01 0,0.01 -0.01,0 0,0 -0.01,0 0,-0.01 0,0 0,-0.01 -0.01,0 0,0 0,-0.01 0,-0.01 -0.02,-0.01 0,-0.01 -0.01,-0.01 -0.02,-0.02 -0.02,-0.03 0,-0.01 0,-0.01 0,-0.01 -0.01,0 0,-0.01 0,-0.01 0.01,-0.01 0,-0.01 0.01,-0.01 0.01,0 0.01,0 -0.01,-0.01 0,-0.01 0.01,0 0.01,0 0,0 0,-0.01 0.01,-0.01 0.01,0 0.01,-0.01 0,-0.01 0.01,-0.01 -0.01,-0.01 -0.01,-0.01 0,-0.01 0,-0.01 -0.01,-0.01 -0.01,0 -0.01,-0.01 0,-0.01 0,-0.01 -0.01,-0.01 -0.01,0.01 -0.01,0.01 0,-0.01 -0.01,-0.01 -0.01,0.01 -0.01,0 -0.01,0 -0.01,0.02 0.01,0 -0.01,0.01 0,0 -0.01,0 -0.01,0 0,0.01 0,0.01 0.01,0 0,0.01 -0.01,0.01 -0.01,0.01 -0.01,0 -0.01,0 0,-0.01 -0.01,0 0,-0.01 0,-0.01 -0.01,-0.01 -0.01,0 0,0 0,-0.01 -0.01,0 0,-0.01 0,-0.01 0,-0.02 0,-0.01 0,-0.01 0.01,-0.01 0,-0.01 0,-0.01 -0.01,0 -0.01,0 0,-0.01 -0.01,0.01 0,0.01 -0.01,0.01 0,-0.01 0,-0.01 -0.01,0 0,-0.01 0,-0.01 0,0 0,-0.01 -0.01,0.01 0,0.01 -0.01,0.01 0,0 0,0 0,-0.01 -0.01,-0.01 0,-0.01 0,-0.01 -0.01,0.01 -0.01,0.02 -0.01,-0.01 -0.01,-0.01 0,0.01 -0.01,0 0,-0.01 -0.01,0 0,-0.01 -0.01,0 0,-0.01 -0.01,0.01 -0.01,0 0,-0.01 0,-0.01 -0.01,0.01 -0.01,0 0,-0.01 -0.01,0 0,0 0,0 0.01,-0.01 -0.01,0 0,-0.01 -0.01,0 0,-0.01 0,-0.01 -0.01,0 -0.01,0.01 0,0.01 0,-0.01 -0.01,-0.01 0,0 0.01,0 -0.01,-0.02 -0.01,-0.01 -0.02,0.01 -0.01,0.01 -0.01,0 -0.01,0 -0.01,0 -0.01,0 0,0 -0.01,0 -0.01,-0.01 -0.01,0 0,0 -0.01,0 -0.01,0 -0.03,-0.02 0,0 -0.01,0 -0.01,0 0,0.01 0,0.01 0,0.01 0,0 0,-0.01 -0.01,0 -0.01,0 -0.01,0 -0.01,0.01 0,0.01 -0.01,0 0,-0.01 0,0 0,0.01 0,-0.01 -0.01,0 -0.01,0 0,0.01 0,0.01 -0.01,0 -0.01,0 -0.01,-0.01 0,-0.01 0,0 0,0 -0.01,-0.01 -0.01,0 0,-0.01 0,0.01 0,0.01 0,-0.01 0,-0.01 -0.01,0 -0.01,0 0,-0.01 0,-0.01 -0.01,-0.01 0,0.01 -0.01,0 0,-0.01 0,-0.01 0,-0.01 -0.01,0 0,0.01 0,0 0,0 0,-0.01 -0.01,0 -0.01,0.01 0,-0.01 0,-0.01 0,0 0,-0.01 -0.01,0.01 0,-0.01 0.01,-0.01 0,-0.01 -0.01,0.01 0,0 0,-0.01 0,0 0,-0.01 -0.01,0.01 -0.01,0 0,0 -0.01,0 -0.01,0 0,-0.01 0,0 0,-0.01 0,-0.01 -0.01,0 0,-0.01 0,-0.01 -0.02,0 -0.01,0 0,0 -0.01,0.01 0,-0.01 0,-0.01 0,-0.01 0,0 0,0.01 -0.01,0.01 -0.01,0 0.01,-0.01 0,-0.01 -0.01,-0.01 -0.01,0 -0.01,-0.01 0.01,-0.01 -0.01,0 -0.01,0.01 -0.02,-0.02 -0.01,0 -0.01,-0.01 0,0 -0.01,0 -0.01,0 0,-0.01 0,-0.01 -0.01,0 0,-0.01 0.01,0 0.01,-0.01 0,-0.01 -0.01,-0.01 -0.02,-0.01 0,0.01 -0.01,0 0,0 0,-0.01 0,-0.01 -0.01,0 -0.01,-0.01 0,-0.01 -0.01,0 -0.01,0 0,0 0,0 -0.01,0 -0.01,0.01 0,0.01 -0.01,0.01 -0.01,0 0,0.01 -0.01,0 -0.01,0 0,0.01 -0.01,0 0,0 0,-0.01 -0.01,0 0,0 0,0 0,0 0,0 -0.01,0 -0.01,0 0,-0.01 0,-0.01 0.01,-0.01 0,0 0,-0.01 0,0 0,0 0,-0.01 -0.01,0 0,-0.01 -0.01,0 0,0.01 0,0.01 0,0.01 -0.01,0 0,0.01 -0.01,0 0,0.01 0,0 -0.01,0 -0.01,0 -0.01,0 -0.01,0 0,-0.01 0,0 -0.01,0 -0.01,0 0,0.01 0,0 -0.01,0 -0.01,-0.01 0,0 0,-0.01 -0.01,-0.01 0,-0.01 -0.01,-0.01 -0.01,0 0,0.01 -0.01,0 0,0 -0.01,0 0,-0.01 -0.01,0 0,0 0,0 -0.01,0 -0.01,0.01 -0.01,0 0,0 0,-0.01 -0.01,0 0,-0.01 0,0 0,0.01 0.01,0.01 0,0 0,0 0,0.01 -0.01,0 -0.01,0 0,-0.01 -0.01,0.01 0,-0.01 -0.01,0 0,0 0.01,0.01 0,0.01 0,0.01 -0.01,-0.01 0.01,0.01 -0.01,0.01 0.01,0.01 0,0 0,0 0,0.01 -0.01,0 0.01,0.01 -0.01,0 0,0.01 0,0 0.01,0 -0.01,0.01 0.01,0 0,0.01 0.01,0 0,0.01 0.01,0 0,0.01 0.01,0 0,0 -0.01,0.01 -0.01,0.01 -0.01,-0.01 -0.01,0.02 0,0.01 0,0.01 -0.01,-0.01 -0.01,0 -0.03,0.01 0.01,0.01 0.01,0 0,0.01 0,0.01 -0.01,0.01 -0.02,0.01 -0.01,0 0,0 -0.03,0 -0.02,-0.01 0,-0.01 0,0 0.01,-0.01 -0.01,0 -0.01,0.01 -0.01,0 -0.01,0 0.01,-0.01 0,0 -0.02,0.01 -0.01,0 0.01,-0.01 -0.01,0 -0.01,0.01 -0.01,0 0.01,-0.02 -0.01,0 -0.01,0.01 -0.01,-0.02 -0.01,0 0,0.02 -0.01,0.01 0,-0.01 0,0 0,-0.01 -0.01,0 -0.01,-0.01 0,-0.01 -0.01,0 -0.01,0.02 -0.01,0 -0.01,-0.01 -0.01,0 -0.01,-0.01 0,0.02 -0.01,-0.01 0,0.02 0,0.01 -0.01,-0.01 -0.01,-0.01 0,0.01 0.01,0.01 -0.01,0.01 -0.01,-0.01 0,0.02 -0.01,0 -0.01,0.01 -0.01,0.01 0,-0.01 0,-0.01 0,-0.01 0,-0.01 -0.02,0 -0.01,0 -0.01,0 0,0.01 -0.01,0 0,-0.01 -0.01,-0.01 -0.02,-0.01 -0.01,0.01 0,0.02 -0.01,-0.02 -0.01,0 -0.01,-0.02 -0.01,0 0,0.02 0.01,0.02 0.01,0.01 0,0.01 -0.02,-0.01 0,-0.01 -0.01,0 0,0.02 0,0.01 -0.01,0.01 -0.01,0 -0.01,-0.01 0,-0.01 -0.01,-0.01 -0.01,0.02 0,-0.01 -0.01,-0.01 0,0.01 0,0.01 -0.01,-0.01 -0.01,-0.01 0,0.01 0,0.01 -0.01,-0.01 0,-0.01 -0.01,-0.01 -0.01,0.01 0,0.01 0.01,0.01 0,0.01 -0.01,0.01 -0.01,-0.01 0,0.01 0.01,0.02 0,0 -0.01,0 -0.01,0.01 -0.01,0.01 0,0.01 -0.01,-0.01 0,0.01 0,0.01 -0.01,0 -0.01,0 0,0 0.01,0.01 -0.01,0.01 -0.01,-0.01 0,0 0,0.01 0.01,0.01 0,0 -0.01,0 -0.01,-0.01 -0.01,-0.01 -0.01,0.01 0,0.02 -0.01,-0.01 0,0.01 -0.02,0.02 -0.01,-0.01 0,0.01 0.01,0.02 -0.03,0.02 -0.01,0 0,0.02 -0.01,0 0.01,0.01 0.01,0.01 -0.01,0 0,0.01 -0.02,-0.01 -0.01,0.03 0,0.01 -0.01,-0.01 -0.01,0 0,0.01 -0.01,0 -0.01,0 -0.01,-0.01 0.01,0.02 0,0.01 0.01,0.01 -0.01,0.01 -0.01,0 0,0.01 -0.01,0.01 -0.01,0 -0.07,0.07 -0.04,0.01 -0.06,0.07 -0.03,0.04 0.01,0.01 0,0.01 -0.01,-0.01 0,0.02 -0.01,0 0,0.01 -0.01,-0.01 0,0.01 0,0.02 -0.01,0.01 0,-0.01 -0.01,0 0,0.01 -0.01,0 0.02,0.01 -0.02,0 0,0.01 0,0.01 -0.01,0.01 0.01,0.01 -0.02,-0.01 0.01,0.01 -0.01,0.01 0.01,0.01 0.01,0.01 0.01,-0.01 0,-0.01 0,0.01 -0.01,0.01 0.01,-0.01 0,0.01 0,0.01 0.01,0 -0.02,0.01 0,0.01 0.01,0 0,0.01 -0.01,0 -0.01,-0.01 0,0.02 0.01,0.01 -0.01,0 0,0.01 0.03,0 0,0.01 0.01,0 0,0.01 0.02,-0.01 0.01,-0.01 0,0.01 0,0.01 0,0 0.01,-0.02 0.01,0.01 -0.01,0 -0.01,0.01 0.01,0.01 0,0.01 -0.01,0 0.01,0.01 0.01,0 0.01,0 -0.01,0 -0.02,0.01 -0.01,0.01 0,0.01 0.01,0 -0.01,0.01 0.01,0 -0.01,0 0,0.01 -0.01,-0.01 0.01,0.02 -0.02,-0.01 0.02,0.02 -0.01,0 -0.01,-0.01 0,0.01 0,0.01 0,0 0,-0.01 -0.01,-0.01 -0.01,0.01 0.01,0.02 0.01,0.01 -0.02,-0.01 -0.03,-0.02 0,0 0.01,0.02 0.02,0.01 0,0 -0.02,0 0.01,0.01 -0.01,0 0,0.01 -0.02,0 0,0.02 0,0 0,0.01 -0.01,0.01 0,0.01 0.01,0.01 0,0.01 -0.01,-0.01 0,0 0,0.01 -0.01,0 0,0.01 -0.01,0 0,0.01 -0.01,0 0,0.01 -0.01,0 0,0 0.01,0.01 -0.02,-0.01 0,0 -0.01,-0.01 0,0.01 -0.01,0.01 -0.01,-0.01 -0.01,0.01 -0.01,0.01 -0.01,-0.01 0,0 0,0.02 -0.01,0 0,0.01 -0.01,0 0,0 0.01,0 0.01,0.01 -0.01,0 0,0.01 0.01,0 0,0.01 -0.01,0 0,0 0.01,0 0,0.01 0.01,0.01 -0.01,0.01 0.01,0 0,0.01 0.01,0.01 0,0.01 0.01,0 -0.01,0 0.01,0 0,0.01 0.01,0 0.01,0 0,0.02 0.01,0.02 -0.01,0.04 -0.03,0.05 -0.06,0.04 -0.09,0.06 -0.03,0.01 -0.01,-0.01 -0.01,-0.01 -0.01,-0.01 0,0.01 -0.01,0 -0.01,-0.02 0,0.02 -0.03,0.01 -0.01,-0.01 -0.02,-0.01 0.01,0.01 -0.01,0 -0.01,0 0,0.02 -0.01,0.02 -0.01,-0.01 -0.01,0.01 0.01,0.01 -0.04,0.04 -0.03,0.01 -0.01,0 -0.02,-0.01 0,0.01 0.01,0.02 -0.03,0.05 -0.06,0.03 -0.02,0.03 0,0.02 -0.01,0.02 -0.04,0.05 -0.01,0.01 -0.01,-0.01 -0.05,0.01 0,0.03 0.02,0 0.01,0.01 0.02,0.02 0.01,0.02 0,0.01 0,0.02 0.01,0.01 -0.01,0.01 0,0.01 -0.02,0.03 0,0 -0.01,0 0,0 -0.01,0.03 0.04,0.01 0.01,0 0.01,0 0.01,0.05 -0.01,0.02 0.01,0.01 0.01,0.02 -0.02,0.02 0,0.01 -0.01,0 0,0.01 -0.01,0 -0.01,0.01 0.01,0.01 -0.01,0.03 0,0.03 -0.03,0.03 0,0.01 -0.02,0 -0.01,0 -0.01,0.03 0.01,0.01 0.04,0.02 0.01,0.04 0.04,0.02 0.01,0.02 -0.01,0.02 -0.02,0.01 -0.01,0.04 0.02,0 0.01,0 0.01,0 0.01,0.02 -0.01,0.01 0,0.01 -0.01,0.01 0.01,0 0,0.01 0.01,0 0.01,0 0,0.01 -0.01,0.01 0,0 0.01,0.01 -0.01,0.01 0.01,0 -0.01,0.02 0.01,0 0,0.01 0.01,0.01 -0.01,0 0.01,0.01 -0.01,0 0,0.01 -0.01,0 -0.01,0 0,0.01 0,0.01 -0.02,0.01 0,0.01 -0.02,0.06 0.02,0.02 0.07,-0.02 0.02,0.01 -0.01,0.05 0.01,0.01 0,0.01 -0.01,0.01 0.02,0 0.01,0.01 -0.01,0 0,0.02 0.01,-0.01 0.01,0.01 0.01,0 -0.01,0.01 0,0.01 0.01,0 0,0.01 0.01,0.01 0.01,0 0,0.01 0.01,0.01 0.02,0.03 0,0.02 0,0.02 0.01,0.01 -0.02,0.02 0,0.04 0.03,0.04 -0.01,0.03 -0.03,0.03 0,0.02 -0.01,0.01 0.03,0 0,-0.01 0.01,0 0.01,0 0.01,0.01 0.01,0.02 0.01,0.01 0.01,0 0,0.01 0.01,0 0,0 0,0 0,0.01 -0.01,0.01 0.01,0 0.01,0.01 -0.01,0 -0.01,0.01 0.02,0.04 0.03,0.03 -0.01,0.01 0.02,0 0.02,0.03 0.02,0.05 0,0.03 -0.01,0.03 -0.01,0.02 -0.02,0.02 -0.03,0.01 -0.01,0.01 0,0.01 0,0.03 0.01,0.01 0,0.02 -0.01,0.01 -0.01,0 -0.02,0 -0.03,0.05 0,0.02 -0.01,0.02 -0.03,0.01 0,0.01 0,0 -0.01,0 -0.01,0.01 -0.01,0.05 0.01,0.01 0.01,0.01 0,0.01 -0.01,0.01 0.01,0.01 0.01,0.01 -0.01,0 0,0 0,0 -0.01,0.01 0.01,0 0,0.01 0,0.01 0.01,0 -0.01,0.01 0.02,0.01 0.01,-0.01 0.01,0.01 0.01,0.01 0.01,0 0,0.01 0.01,0 0.01,0.01 0.02,0.02 0.04,0.02 0,0.02 0.05,0.03 0.01,0.02 0,0.04 0.03,0.02 0.02,0.04 0.01,0.01 0,0.01 -0.01,0 0,0.01 -0.01,0 0.01,0.02 0.02,0.01 0.04,-0.01 0.03,0.01 0.02,0 0.02,0.01 0.02,0.01 0.01,0 0,0 0.01,0 0,0.01 0,0 0,0.02 0,0.01 0,0.01 0.01,0 0.01,0.01 0.01,0.01 0,0.01 -0.01,0 -0.01,0.01 0,0.01 0.02,0.01 0.02,0 0.01,0.02 0.04,-0.01 0.02,0.02 0.03,-0.01 0,0 0.01,0 0.02,0 0.01,-0.01 0.01,0 0,0 0.01,0 0,0.01 0.01,0 0,-0.01 0.01,0 -0.01,0.02 -0.01,0.01 0,0.02 0,0.01 0.01,0 0,0 -0.01,0 -0.01,0 -0.01,0 -0.01,0.01 0,0 -0.01,0 0.01,0 0,0 0,0.02 0.01,0.01 -0.01,0 0,0.01 -0.01,0 -0.01,0 0.01,0.01 -0.01,0.01 0.02,0 0.01,0 0,0.01 0,0.01 0.01,0.02 0.01,-0.01 0.01,-0.01 0.01,0.01 0.02,-0.01 0.01,0.01 0.01,0 0.01,0 0.01,0.01 0.01,-0.01 0.01,-0.01 0.01,0.02 0.01,0 0.02,-0.01 0.01,0.01 0.01,-0.01 0.01,0 0,0.01 0.01,0 0,0.01 0.01,0 -0.01,0.01 0.02,-0.01 0,0.01 0.01,0 0.01,0.01 0.01,0.01 0.01,0.01 0.01,0.01 0.02,0 0,0.02 0.01,-0.01 0.01,0.02 0.01,-0.01 0.01,0 0.01,0 0.01,0.01 0.02,-0.02 0.01,0 0.01,-0.01 0.02,0 0.01,-0.02 0,-0.01 0.01,-0.01 0,-0.01 0.01,0 0.01,0 0,0.01 0.02,0 0,-0.01 0,-0.01 0,-0.01 0.01,0.01 0,-0.01 0.01,0 0,-0.01 0,-0.03 -0.01,-0.01 0.01,-0.01 0,-0.02 0.01,0 0.01,-0.01 0.01,0.01 0.01,0 0,0.01 0.01,0.01 0.01,0 0.01,0 0.01,0 0.01,-0.01 0.01,0.01 0.03,-0.01 0.01,0.02 0.01,-0.01 0.01,0 0.01,0.01 0,-0.01 0.01,-0.01 0,0.01 0,0.01 0.01,-0.01 0.01,0 0.01,0 0,-0.01 0,-0.01 0,0 0,-0.01 0.01,0 0,0.01 0.01,0 0.01,0 0,0 0.01,0.01 0.01,0 0.01,-0.01 0,0 0,0 0.01,0 0,-0.01 0.01,0 -0.01,0.01 0,0.01 0,-0.01 0.01,0 0,0 0.01,0 0,0.01 0.01,0 0.01,0 0,0.01 0.01,0 0,0.01 0.01,0.01 0.01,-0.01 0,-0.01 0.01,0 0,-0.01 0.01,0.01 0.01,-0.01 0,0.01 0,-0.01 0.01,0 0,-0.01 0.01,0 0,0 0,0 0,-0.01 0.01,0 0,0 0.01,0 0,-0.01 0,-0.01 0.01,0 0.01,0.01 0,-0.01 0.01,0.01 0,0 0,-0.01 0,0 0,0.01 0,0.01 0,0.01 0.01,0 0,-0.01 0,-0.01 0,-0.01 0.01,-0.01 0.01,0 0,0 0.01,0 0,-0.01 0.01,0 0.01,0 0.01,0 0.01,0 0.01,-0.01 0.01,-0.01 0.01,-0.01 0.01,0 0.01,0 0.01,-0.01 0.01,0 0.01,-0.01 0,-0.01 0.01,0 0.01,-0.01 0,-0.01 0.01,-0.01 -0.01,0 0.01,0 0,-0.01 0.01,0 0.01,0 0.01,0 0,-0.02 0,-0.01 0.01,-0.01 0,-0.01 0.01,0 0,-0.01 0,-0.01 0.01,0 0,0.01 0,0.01 0.01,0 0.02,-0.01 0.01,-0.01 0,-0.01 0,0 0.01,0.01 0.01,0.01 0.01,-0.01 0.01,-0.01 0.01,0 0.01,0 0.01,0.01 0,0 0,0 0.01,0.01 0.01,0 0.01,0.01 0.02,0 0,0.01 0.02,-0.01 0.01,-0.01 0,-0.01 0.02,-0.01 0,0.01 0.02,-0.01 0,-0.01 0.01,0.01 0.01,0 0.01,0.01 0.01,0 0,0 0.01,0 0,0.01 0.01,-0.01 0,0 0,0.01 0,0.01 0,0 0,0.01 0.01,-0.01 0.01,0.01 0,0 0,0.01 0,0.01 0.01,0.01 0.01,-0.01 0,-0.01 0,-0.01 0,-0.01 0.02,0.01 0,0.01 0,0.01 0.01,0.01 0.01,-0.01 0.01,-0.01 -0.01,-0.01 0.01,0 0.01,0 0.01,0 0,0 0.01,0 0.01,0 0.01,0 0,0 0.01,0 0.01,0 0,0.01 0.01,-0.01 0.01,0 0,0 0,0.01 0.01,0 0,0.02 0.01,0 0.01,0 0.01,-0.02 0,0 0.01,0 0.01,0 0,-0.01 0.01,0 0.01,0 0,-0.01 0,0 0,0 0.01,-0.01 0,0 0.01,0 0,-0.01 0,0 0.01,-0.02 0.01,0 0.01,-0.01 0.01,-0.01 0.01,0 0.01,0 0.01,-0.01 0.01,0 0.01,0 0.01,-0.02 0,-0.01 0,-0.01 0.01,0 0.01,-0.01 0,-0.01 0,-0.01 0,0 0,-0.01 0.01,-0.01 0.01,0 0,-0.01 0.01,-0.01 0,0.01 0.01,0 0.01,0 0,0 0,0 0.01,0 0.01,-0.01 0,-0.01 0.01,0 0.01,0 0.02,0 0,0 0.01,0 0,0 0,0 0.01,0 0,-0.01 0.01,0 0,0 0,0 0.02,0 0.01,0 0.01,0.01 0.01,-0.01 0.01,0 0,0 0.02,0 0.01,0 0.01,0 0.01,0 0,0.01 0,0.01 0.02,0 0.01,0.01 0.01,0.01 0,0.01 0.01,0.01 0,-0.01 0,0 0,-0.01 0,0 0.02,-0.01 0.01,0 0,-0.01 0.01,0.01 0.01,0 0,-0.01 0.01,0.01 0,-0.02 0.01,0 0.01,0 0.01,0.01 0,-0.01 0,0 0,-0.01 0.01,0 0,-0.01 0.01,-0.01 0,-0.01 0.01,0 0,-0.01 0.01,0 0.01,-0.01 0.01,0.01 0,-0.01 -0.01,0 0.01,0 0,-0.01 0.01,-0.01 0.02,-0.01 0.02,0.01 0.04,0 0,0.01 0.01,0.01 0.02,0 0.02,0.01 0.01,0 0,0.01 0,0.01 0.01,0.01 0,0.02 0.01,0 0.01,0.01 -0.01,0.01 0.01,0 0,0.01 0.01,0 0,0.01 0.01,0 0.01,0 0.01,-0.01 0.01,0.01 0,0.01 0.01,-0.01 0.01,0 0.01,-0.01 0.01,0.01 0.01,0 0.01,0 0.01,0.01 0.01,0 0.01,0.01 -0.01,0.01 0.01,0.01 0.01,0 0,0.01 0,0.02 0.01,0.01 0.02,0 0,0.01 0,0.01 0,0.01 0,0.01 0.01,-0.01 0.02,0.01 0.01,0 0,0 0,-0.01 0.01,0 0,0.01 0,0.01 0.01,-0.01 0,-0.02 0.01,0 0,0 0.01,-0.01 0.01,0 0,0 0.01,0 0.01,0 0.01,0 0,0.01 0.01,0 0.01,-0.01 0,-0.02 -0.01,-0.01 0.01,0 0,0.01 0,0.01 0,-0.01 -0.01,-0.01 0.01,0 0,0.01 0,0 0,-0.01 0.01,-0.01 0,0.02 0.01,0 0,-0.01 0,0 0,-0.01 0,-0.01 0.01,0 0.01,0.01 0,0 0.01,0.01 0.01,0.01 -0.01,-0.01 0,-0.01 0,-0.01 0.01,-0.01 -0.03,-0.02 -0.01,-0.01 0.02,0 0.02,0.01 0.04,-0.01 0,-0.01 0.01,0 0.01,0 0.01,0.01 0,-0.01 0.01,0 0.01,-0.01 0,-0.01 -0.02,0 -0.01,-0.01 -0.01,-0.02 0.01,-0.01 0,-0.01 0.01,0 0,-0.01 0,-0.02 0,-0.01 0.01,-0.01 0,-0.01 0.01,-0.01 0.01,0 0,-0.01 0,-0.01 0.01,-0.01 0,-0.01 0.01,-0.02 0,-0.01 0,0.01 0,-0.01 0.01,0 0.01,0.01 0.01,0 0.01,-0.02 0.01,0 0,0 0,-0.01 0.01,-0.01 0.01,-0.01 0.01,0 0.02,0.01 0,-0.01 0.01,0.01 0,0.01 0.01,0 0,-0.01 0,-0.01 0.01,0.01 -0.01,0.04 0,0.01 0.02,0 0,-0.01 0.01,0 0.01,0.01 0,0.02 0.01,0 0.01,-0.01 0.01,0 0.01,0 0.01,0 0,-0.01 0.01,0 0,-0.01 0.01,-0.01 -0.02,-0.01 0,-0.01 0,-0.01 0,-0.02 0,-0.02 0.01,0 -0.01,-0.02 0.01,0.01 0.01,0 0.01,0 0.01,-0.01 0,-0.01 0,-0.01 -0.01,-0.01 0,-0.01 0.01,0.01 0.01,0 -0.01,-0.01 0,-0.01 0.01,-0.01 0.01,-0.01 0.01,0 0.01,-0.01 0.01,0 0.02,-0.01 0,-0.01 0.01,-0.01 0.01,0.01 0.01,0 0,-0.01 0.01,0.01 0.02,-0.01 0,-0.01 0.01,-0.01 0.01,0 0.01,-0.01 0.01,0 0.01,-0.01 0,-0.01 0.01,0 0.01,0.01 0.01,0 0.02,0 0,-0.01 0.02,0.01 0.01,-0.01 0.01,0 0,-0.01 0.01,0 0,-0.01 0.01,-0.01 0.01,-0.01 0.01,0 0,-0.01 0.03,-0.01 0.01,0 0.03,-0.02 0.02,-0.01 0.02,0 0.01,-0.01 0.01,-0.01 0,0 0.01,-0.01 0,0.01 0.01,-0.01 0,-0.01 0.01,0 0.01,0 0.01,-0.01 0,0.01 0,0.01 0.01,0 0,-0.01 0,-0.01 0.01,0 0.01,0 0,-0.01 0.01,0 0.01,0.01 0.01,0 0.02,0.01 0.01,0 0,0.01 0,0.01 0.01,0.03 0.02,0 0,-0.01 0,-0.01 0.01,0 0,-0.01 0.01,0 0.01,0.01 0.01,0.01 0,-0.01 0.01,0 0,0.01 0.01,0.01 0,-0.01 -0.01,-0.01 0,0 0.01,0 0,-0.01 0.01,0 0,-0.01 0.01,-0.01 0.01,0.01 0.02,-0.01 0.01,-0.01 -0.01,-0.01 0,0 -0.01,0 0,-0.02 0.02,-0.01 0.01,0 0.01,0 0.01,-0.01 0.01,0 0.01,0 -0.01,-0.01 0,-0.01 0.01,0 0.03,-0.01 0,-0.02 0,-0.01 0,-0.01 0,-0.01 0.01,0 0.01,0.01 0,0.01 0,0.01 0.01,0.01 0.02,0 0.01,-0.01 -0.01,-0.01 0,-0.01 0.01,0 0.01,-0.01 0,0 0.01,0 0.01,-0.01 0.01,0 0,-0.01 0.01,0.01 0.01,0 0,-0.01 0.01,0 0,-0.01 0,-0.01 0,0 0,-0.01 0.01,-0.01 0,-0.01 0,-0.01 0,-0.01 0.01,0 -0.01,-0.01 0,-0.01 0,-0.01 0,-0.01 0.01,-0.01 0.01,-0.01 0,-0.01 0,-0.01 0,-0.01 -0.01,-0.01 0.01,-0.01 0,-0.01 0.01,-0.01 0,0 0,-0.01 0.01,0 0,-0.01 0,0 0,0 0,-0.01 0,-0.01 0.01,0 0,-0.01 -0.01,0 0,-0.01 0,-0.01 0,-0.01 -0.01,-0.01 0,-0.01 0,-0.01 0.01,0 0,-0.01 0,-0.01 0.01,0 -0.01,-0.01 0,-0.01 -0.01,-0.01 0.01,0 0.01,-0.01 -0.01,0 0,-0.01 0,0 0,0.01 -0.02,0 0,-0.01 -0.01,0 -0.01,-0.01 0,0.01 -0.01,0 0,-0.01 0,-0.01 0.01,-0.01 0.01,-0.01 0.01,0 0.01,0 0.02,-0.01 0,-0.01 0,-0.01 0,-0.01 -0.01,-0.01 -0.01,0 0.01,-0.01 0,-0.01 0,0 0.01,0 0.01,-0.02 0,-0.03 0,-0.01 0,-0.01 0,-0.01 0.01,-0.01 0,-0.01 0.01,-0.01 0,-0.01 0.01,0 0.02,0 0.01,0.01 0.01,0 0,0 0,0 0.01,-0.01 0.01,-0.01 0.01,0 0.01,0.01 0.01,0 0,-0.01 0.01,-0.01 0.01,-0.01 0.01,0 0,0 0.01,-0.01 0.01,-0.01 0,0.01 0.01,0 0.01,0 0.01,-0.01 0,0 0,-0.01 0.01,0.01 0.01,0.01 0.01,0 0,-0.01 0,-0.01 0.01,0 0,0 0,0 0,0.01 0.01,0.02 0,-0.02 0.01,-0.01 0.01,0 0.01,0.01 0,0.01 0,0.01 0,0 0.01,0 0.01,0.01 0.01,0.01 0.01,0 0.01,0 0.01,0 0.01,-0.01 0.01,0 0,0.01 0,-0.01 0,-0.01 0,0 0,0.01 0,0.01 0.01,0 0,0.02 -0.02,0.02 0,0.01 0,0.01 0,0.01 0.01,0.03 0.01,0.01 0,0 0.01,0.01 0,0.01 0,0 0.01,0.01 0.01,0.01 0.01,0 0,0.01 0,0 0.01,0.01 0.02,0 0.01,-0.01 0.01,-0.02 -0.01,0 0.01,0 0.01,0 0.01,0 0.01,0.01 0.01,-0.01 0.01,0 0.02,0 0,-0.01 0.01,0 0,-0.01 0.01,-0.01 0.01,0 0,-0.01 0,0 0.01,0 0.02,-0.01 0.01,-0.02 0.01,0 0.01,0 0.01,0 0.01,0 0.01,0 0.01,-0.01 0.02,-0.01 -0.01,-0.03 -0.01,-0.01 0,-0.01 0,-0.01 -0.01,0 0.01,-0.02 0.01,0 0.04,-0.04 0.02,-0.06 0.01,-0.02 0,-0.02 0,-0.02 -0.01,-0.01 -0.01,0 0,0 0.01,0 0.01,-0.01 0,-0.01 -0.01,-0.02 -0.02,0 -0.01,-0.01 0,-0.01 0,-0.01 0.01,-0.01 0,-0.01 0,-0.01 -0.01,0 -0.01,0 -0.01,-0.01 -0.01,-0.01 -0.01,-0.01 0,-0.01 -0.01,0 0,-0.01 -0.01,-0.01 0,-0.01 0,0 -0.01,-0.01 -0.02,-0.01 -0.01,0 0,-0.01 -0.01,-0.01 -0.01,-0.01 -0.02,0 0,0 -0.01,0 -0.01,0 -0.01,0 -0.01,0 -0.01,0 0,0 -0.01,0 -0.03,0.01 0,0.01 -0.02,0 -0.02,0 -0.02,0 -0.01,0 -0.01,0 -0.04,0 -0.01,-0.01 -0.02,-0.03 -0.01,0 0,-0.01 -0.02,-0.01 0,-0.01 0.01,-0.02 -0.01,0 -0.01,0.02 -0.03,-0.02 -0.01,-0.03 -0.01,-0.02 -0.02,-0.02 -0.06,-0.01 -0.05,0.01 -0.02,0 -0.01,0.01 -0.01,0 -0.01,0 -0.02,0 -0.04,-0.01 -0.06,-0.02 -0.04,-0.03 -0.03,-0.03 -0.06,-0.04 0,-0.02 -0.03,-0.01 -0.02,-0.02 -0.02,-0.04 -0.03,-0.03 -0.01,-0.01 -0.01,-0.02 0,-0.01 0.01,-0.01 0.01,-0.02 0.01,-0.02 0.01,-0.01 -0.03,-0.03 -0.01,-0.01 0,-0.01 0.01,-0.01 -0.01,-0.01 -0.01,0 -0.01,-0.02 0,-0.01 -0.01,-0.01 0.01,-0.01 0,-0.02 -0.03,-0.04 0.01,-0.01 -0.01,0 0,-0.01 0,-0.01 0,-0.02 0,-0.01 0,-0.02 -0.01,-0.01 -0.01,-0.01 -0.03,-0.02 0,0 0,-0.01 0,-0.01 -0.01,-0.01 0,-0.01 0,0 0,-0.01 -0.01,-0.01 -0.01,-0.02 -0.01,-0.02 0,-0.01 -0.01,-0.01 -0.01,-0.02 -0.02,-0.04 -0.02,-0.01 0,-0.01 -0.01,-0.02 -0.01,0 -0.01,-0.02 -0.02,-0.02 -0.01,0 -0.01,-0.01 -0.01,-0.01 -0.01,0 -0.01,0 0,0 0,-0.01 0,-0.01 0,-0.01 -0.01,-0.01 -0.01,0 0,-0.01 0,-0.01 -0.01,0 0,-0.01 -0.01,-0.01 -0.01,0 -0.01,0.01 0,0 -0.01,0 0,-0.01 0,-0.01 -0.01,-0.01 -0.01,-0.01 0,-0.02 0,-0.01 0,-0.02 -0.02,-0.01 -0.01,0.01 0,0.01 -0.01,0 -0.01,0 -0.01,0 0,-0.01 -0.01,0 0,0 0.01,-0.01 0,0 -0.01,0 -0.01,0.01 0,-0.01 -0.01,0 0,0.01 -0.01,0 0,-0.02 -0.01,0 0,0.01 0,0.01 -0.01,0 -0.02,0 -0.01,-0.01 -0.02,-0.01 0,-0.01 -0.01,0.01 0,-0.01 -0.01,0 0,0 0.01,0 0,-0.01 0,-0.01 -0.01,0.01 -0.01,0 0,-0.01 0,0.01 -0.01,-0.01 0,-0.01 -0.01,0 0,-0.02 -0.01,0.01 -0.01,-0.01 -0.01,-0.03 -0.02,-0.01 -0.01,-0.01 0,-0.01 -0.01,-0.01 -0.02,-0.02 0.01,-0.01 0,-0.01 0,-0.01 0,-0.01 0,-0.01 0,0 0,-0.01 0,0 -0.01,0 -0.01,0 0,0.01 -0.01,0 0,0 0,-0.01 0,0 -0.01,0 -0.01,0 -0.01,-0.01 0,0.01 -0.01,0 0,0 0,0 -0.01,0 0,-0.01 0,0 -0.01,-0.01 -0.01,0.01 0,0.01 0,0 0,0.01 0,0 -0.01,0.01 -0.01,0 -0.01,0.01 -0.01,-0.01 0,0.01 -0.01,0.01 -0.01,0 0,0.01 -0.01,0 -0.01,0 0,-0.01 0,0 -0.01,0 0,0.01 -0.02,-0.01 0,0 -0.01,-0.04 -0.03,-0.01 -0.01,0.04 0,0.01 0,0.01 0,0.01 -0.01,0.01 -0.01,0.01 -0.01,0 -0.01,0 -0.01,0.01 -0.01,0 -0.01,0 -0.02,0 -0.06,-0.02 -0.05,-0.04 -0.02,-0.03 0.02,-0.02 0.01,-0.01 0.02,-0.02 -0.01,-0.01 -0.02,-0.02 -0.01,0 0,0.01 -0.01,0 -0.01,0.01 -0.01,0 0,0 -0.01,0 -0.01,-0.01 0,0.01 0,0 0,0 0,0 -0.01,-0.01 -0.01,0 0,-0.01 -0.01,0.01 -0.01,0 -0.01,0.01 -0.01,-0.01 -0.01,0 0,-0.01 -0.01,0 -0.01,0 0,-0.01 0.01,-0.01 0.01,-0.02 0,-0.02 -0.01,-0.01 0.01,0 0.01,0 0,-0.01 z"
       id="path640"
       inkscape:connector-curvature="0" /></g></svg>