<?xml version="1.0" encoding="UTF-8" standalone="no"?>
<!-- Generator: Adobe Illustrator 17.1.0, SVG Export Plug-In . SVG Version: 6.00 Build 0)  -->

<svg
   xmlns:dc="http://purl.org/dc/elements/1.1/"
   xmlns:cc="http://creativecommons.org/ns#"
   xmlns:rdf="http://www.w3.org/1999/02/22-rdf-syntax-ns#"
   xmlns:svg="http://www.w3.org/2000/svg"
   xmlns="http://www.w3.org/2000/svg"
   xmlns:sodipodi="http://sodipodi.sourceforge.net/DTD/sodipodi-0.dtd"
   xmlns:inkscape="http://www.inkscape.org/namespaces/inkscape"
   version="1.1"
   id="Слой_1"
   x="0px"
   y="0px"
   viewBox="940 488.1 1000.0008 463.86139"
   enable-background="new 940 488.1 1000 463.9"
   xml:space="preserve"
   inkscape:version="0.91 r13725"
   sodipodi:docname="Flag-map_of_Samoa.svg"
   width="1000.0008"
   height="463.86139"><metadata
     id="metadata29"><rdf:RDF><cc:Work
         rdf:about=""><dc:format>image/svg+xml</dc:format><dc:type
           rdf:resource="http://purl.org/dc/dcmitype/StillImage" /><dc:title></dc:title></cc:Work></rdf:RDF></metadata><defs
     id="defs27"><defs
       id="defs5"><path
         d="m 1363.9,733.2 -3,12.8 c -2.3,2.7 -8.9,9.8 -12.4,11 l -7.4,0.3 -6.5,-7.3 c -2.6,1.2 -6.9,2.1 -9.8,1.6 -3.3,-6.4 -9.4,-12.9 -14.9,-17.4 l 1.4,-3 -2.8,-6.4 -5.1,1.1 c -2.1,-0.9 -8.1,-3 -10.5,-2.3 l -7.9,1.3 -7.2,12.4 -12.2,2.3 -7.4,-4.3 c -11.9,3.4 -22.1,6.6 -34.2,8.2 l -3.7,-4.6 c -1.7,2.5 -7.7,5.5 -10.3,6.5 0,0 -15.7,6.5 -18.3,6.1 -5.8,-7.1 -19.7,-5.6 -25,1.8 -3.8,1.4 -14.2,-0.7 -17.9,-1.6 -4,3.7 -8.4,5.4 -13.9,6.4 -8.8,-4.2 -14.4,-12.4 -17.1,-21.6 -3.5,-3.4 -11,-6.7 -16,-6.3 l -4.6,-15.5 c -1.7,-1.8 -5.7,-2.9 -8.1,-2.6 l -2.5,-3.5 2.9,-9.6 c -2.4,-7.9 -17.4,-23.6 -25.9,-27.1 -2.2,-5.8 -7.3,-12.3 -12,-16.2 L 1051,649 c -7.4,-8.5 -17.6,-11 -25.8,-21.2 l 0.2,-8.6 -2,-3 -13.3,-1.3 c -3.4,-5.2 -7.8,-6.2 -11.6,-10 -3.1,-3.2 -5.3,-7.6 -8.3,-10.8 -7.3,-7.8 -21.5,-14.5 -31.8,-18 -7.5,-8.9 -10.1,-18.6 -18.6,-27 l 0,-5.7 c 0.7,-0.7 5.4,-5.6 5.6,-6 1.4,-2.9 2.3,-8.8 5.3,-10.5 4.9,-0.8 21.6,-2.8 21.6,-2.8 l 1.1,4.4 c 4.8,2.6 29,15.5 34.3,15.4 l 7.5,-1.7 c 5.1,-1.2 11.9,-1.3 17.1,-0.6 l 2.6,-3.7 c 8.5,-2.8 15.7,4.6 22.4,8.9 l 5.2,-2.6 -2.5,-6.7 c 3.6,0.6 10.7,-3.9 13.2,-6.1 l 23.6,-0.7 c 2,-1.6 3.4,-3.1 4.1,-5.7 8.7,-2.3 16.4,-3.3 21.5,-10.8 l 3.6,-0.8 c 6.9,4.1 27.6,1.3 34.2,-1.4 0.4,-0.2 7.7,-6 8.5,-6.7 5.3,-1.5 7.4,0.9 11.8,1.4 5.9,0.8 21.7,2.3 21.7,2.3 0.6,0 6.2,-1.4 7.1,-1.6 3.4,-5.6 7.1,-8.2 12.2,-12.5 5.9,-0.6 12.1,-1.6 18.1,-1.9 4,-0.2 7.2,1 11.5,-0.1 3.9,-9.3 17.1,-2.5 22.6,0.7 l 12,-1.3 c 3.9,4.9 8.4,9.8 11.9,15 3.6,5.4 7,12.5 11.2,17.4 7.5,8.8 17.2,16.2 25,24.9 3.8,4.2 5.3,10.3 10,14 -1.7,11.5 7.9,13.1 10,21.4 l 9.6,3.6 c 1.3,0.4 2.9,2.4 3.2,3.7 -1.6,0.4 -4.3,1.9 -5.1,3.5 1.1,5.6 6.4,9.2 8.7,14 1.9,4 1.3,10.3 5.3,17 l 3,2 c 2.6,15.5 11.9,18.7 14.2,26 l -1.9,3.5 c -6.2,1.7 -20.7,21.4 -20.8,24.9 l 3.8,8.9 -1.9,8.9 -14.9,7.1 c 2,2.9 0.4,8.3 -1.8,10.7 0.9,3.4 6.9,7.4 8.7,14.4 z m 57.4,30.6 2.5,0.7 2.2,3.5 -0.3,4.2 -1,1 -4.1,-1.7 c -0.8,-1.2 -1.4,-3.1 -1.5,-4.5 0.5,-0.9 1.4,-2.7 2.2,-3.2 z m 18.5,21.1 2.2,-1.7 9.8,-0.7 4.4,5.4 0.3,2.3 -2.8,6.9 -7.9,-4.5 -6,-7.7 z M 1728.9,921 c -3.4,3.2 -14.2,6.9 -15.9,7.8 -2.6,1.4 -6.3,2.1 -9.1,3 l -10.8,0.1 -2.7,-2.4 -7.4,3 -2.9,-3.9 c 1.6,-5.7 -5.9,-17.8 -9.2,-21.7 l -8.1,-3.2 c -6.3,2 -27.7,1.8 -32.2,-2.9 l -3.2,-5.7 2.7,-3.3 c 1.4,3.9 5.9,1.7 5.9,1.7 l 1.7,-2.8 -3.4,-3.7 c -2.6,1.4 -9.7,4.3 -12.8,3.5 l -3.9,-2.4 c -2.2,1.5 -10.2,5.8 -13,4.5 -3.3,2.6 -13.7,9.4 -18.3,8.5 l -2,-1.2 -5.6,3.3 -6.2,-0.9 -11.1,-13.2 -1.5,0.2 c -19.3,-7.3 -12.8,-31.1 -27,-37.3 l -2.2,7.4 -7.8,6 -2.7,-3 -1.8,-10.1 c -4.2,-0.9 -6.2,-4.2 -8.9,-7.3 l -0.3,-6.2 c -4.2,-2 -9.1,-3.8 -13.1,-6.1 -0.7,-0.4 -1.8,-2.4 -2.5,-2.9 -4.8,-3 -10.3,-3.8 -13.6,-9 0.1,-4.6 -3.6,-11.8 -6.5,-15.2 l -0.1,-4.2 c 6.3,-3.5 8.5,-8.6 12.9,-13.7 0.5,-0.6 12.2,-10.1 12.6,-10.3 10.4,-6.8 23.1,-4.8 35,-6.5 7.2,-1 9.2,-4.8 14.7,-7.6 4.3,-2.2 29.8,-12.4 34.8,-12.4 0.3,0 7.4,2.2 8.1,2.4 2,-0.1 4.5,-2.8 5.4,-4.3 3,0.1 20,-0.3 21.3,1.8 l 2.7,-2.2 c 0,0 10.1,-1.9 13.7,-1.4 3.6,2.2 7.6,4.3 11.1,6.8 0.8,0.5 7.7,3.7 8.6,5.9 l -1.2,3.7 c 1,2.2 15,10.3 17.5,9.5 l -1.3,-9.6 0.7,-1.7 2.5,0.2 6,10.6 c 2,1.3 5.5,3.4 7.9,2.6 l 3.7,-3.3 8.8,3.6 3.5,7.4 c 11.8,-2.8 12.6,9 19.9,10.8 0.6,1.8 2.7,5.4 4.7,6.1 l 3.2,-2.8 c 2.5,-0.9 7.9,1.4 9.9,2.7 7.2,-4.7 14.3,2 20.8,4.8 3.2,1.4 7.1,2.2 10.5,3.2 l 5.6,-1.3 5.2,2.2 5.4,5.4 9.7,-9.5 4.2,2 c 2,-1.4 6.3,-1.2 8.4,-0.3 l 2.4,2 c 1.2,2.1 0.5,6.6 -0.4,8.7 l 2,1.7 4.1,0 4.7,-3.5 c 3.2,4.3 7.5,10.8 8.7,16.2 4.7,-1.3 5.4,-1.7 10.8,-0.3 l 2.5,2.5 0.8,3.4 c -4.5,9.7 -18.7,12.6 -22.5,19.7 24.3,3.5 18.8,-6.9 34.5,-12.6 l 2,2.2 -1.2,3.2 0.8,2.5 4.8,-0.1 5.4,1.9 1.2,1.9 -1.5,1.8 -4.6,2.8 1.2,2 10.7,-2.1 10.1,5.1 1.5,-1.2 c 6.9,6.1 8.4,18.6 20.5,18.6 l 1.7,-4.2 c 2.4,-0.2 6.3,1.8 8.1,3.2 2.8,5.4 5.2,10.5 10.1,14.5 l 2.1,15.6 c -0.2,3.4 -8.4,18.1 -10.4,21.1 -3.4,0.2 -15.3,0.2 -17.9,-2.6 -4.4,3 -12,-2.8 -17.6,-1.4 l -3.5,-2.2 c -0.6,0.3 -6.9,3.7 -7.1,3.7 -24.3,0.6 -47.9,0.8 -72.2,-0.3 -4,-0.2 -6.5,-2.8 -9.6,-5.1 -4.6,0.1 -7.7,2.3 -10.3,2.6 -4.1,0.6 -16.1,2.7 -16.6,3 L 1759,929 c -11.4,3.4 -20.9,-2.5 -30.1,-8 z m 195.1,21.2 c 1.7,-0.8 7.2,-3.2 9.1,-2.6 l -0.9,2.5 2.5,4.4 -4.2,2.7 -5.9,-3.9 -0.6,-3.1 z m 10.7,-22.4 c -0.2,-2 0.5,-4.9 -1.3,-5.3 -1.8,1.8 -1.8,4.9 1.3,5.3 z m -1.4,25.5 c 1,-4 -2.3,-3.9 -1.3,-7.9 -2.6,0 -5.3,0 -7.9,0 -0.9,6.7 2.9,10.1 9.2,7.9 z m 1.4,1.4 c -0.6,4.1 3.3,3.7 5.3,5.3 0.2,-3.3 0.2,-6.4 -2.6,-6.6 -0.4,1 -1.2,1.5 -2.7,1.3 z"
         id="Samoa"
         inkscape:connector-curvature="0" /></defs></defs><sodipodi:namedview
     pagecolor="#ffffff"
     bordercolor="#666666"
     borderopacity="1"
     objecttolerance="10"
     gridtolerance="10"
     guidetolerance="10"
     inkscape:pageopacity="0"
     inkscape:pageshadow="2"
     inkscape:window-width="1600"
     inkscape:window-height="837"
     id="namedview25"
     showgrid="false"
     fit-margin-top="0"
     fit-margin-left="0"
     fit-margin-right="0"
     fit-margin-bottom="0"
     inkscape:zoom="1.0155301"
     inkscape:cx="310.58524"
     inkscape:cy="310.94772"
     inkscape:window-x="-8"
     inkscape:window-y="-8"
     inkscape:window-maximized="1"
     inkscape:current-layer="Слой_1" /><path
     style="fill:#ce1126"
     clip-path="none"
     d="m 1098.6152,718.98087 2.1914,7.3457 1.1309,3.81836 c 4.9491,-0.3579 12.5062,2.96038 15.9863,6.34571 0.7449,2.62143 1.7476,5.16181 2.9922,7.55859 3.107,6.02056 7.7767,11.09829 14.0645,14.08984 5.5167,-1.08972 9.8785,-2.73062 13.8808,-6.42578 3.7606,0.96552 14.0648,3.03554 17.8868,1.63867 5.3338,-7.45441 19.1548,-8.9722 24.9746,-1.82226 1.5151,0.21024 7.2654,-1.83583 11.9726,-3.63281 3.3957,-1.29365 6.3379,-2.48633 6.3379,-2.48633 2.3207,-0.89041 7.2344,-3.24168 9.5332,-5.51367 0,-0.003 7e-4,-0.005 0.014,-0.008 l 0,-0.002 c 0.3246,-0.31839 0.5943,-0.63556 0.8047,-0.94727 l 1.834,2.28125 1.8203,2.30665 c 4.9849,-0.6726 9.6384,-1.60967 14.2207,-2.70704 5.2921,-1.25994 10.549,-2.75998 16.0352,-4.34765 1.3104,-0.37703 2.5789,-0.74006 3.9277,-1.125 l 7.3945,4.24609 1.3008,-0.24219 10.8984,-2.00781 4.4844,-7.80664 2.6621,-4.5957 7.9375,-1.29102 c 0.084,-0.0266 0.1808,-0.0429 0.2735,-0.0625 0.073,-0.0154 0.1397,-0.0358 0.2187,-0.0469 0.2419,-0.0351 0.5244,-0.0363 0.8086,-0.0352 0.3307,0.001 0.671,0.01 1.0449,0.0527 0.4605,0.0524 0.9474,0.13117 1.4473,0.23243 0.017,0.004 0.034,0.009 0.051,0.0137 2.5047,0.51345 5.3097,1.53378 6.6113,2.10742 l 2.8125,-0.63476 2.2559,-0.48438 2.791,6.36719 -1.2246,2.78515 -0.1094,0.24414 c 0.1282,0.10416 0.2594,0.22571 0.3887,0.33204 4.665,3.85691 9.6555,9.12581 13.0312,14.49218 0.037,0.0609 0.082,0.12072 0.1192,0.18164 7e-4,10e-4 10e-4,0.002 0,0.004 0.4917,0.79793 0.9455,1.59907 1.3574,2.39648 2.8528,0.5086 7.2185,-0.38467 9.7949,-1.61523 l 1.9902,2.20898 4.5469,5.06055 3.3379,-0.13086 4.1094,-0.1289 c 1.2715,-0.44668 2.9239,-1.65753 4.6211,-3.13086 2.1936,-1.88993 4.353,-4.12712 6.0156,-5.95508 0.522,-0.57001 0.953,-1.0547 1.332,-1.49219 0.1135,-0.13088 0.3133,-0.343 0.4121,-0.45898 l 0.9981,-4.31641 1.9648,-8.41602 c -1.3872,-5.498 -5.4149,-9.17534 -7.4277,-12.12304 -0.4996,-0.74197 -0.8895,-1.44805 -1.0547,-2.11719 l -256.8027,0 z m 534.1621,27.98438 c -0.6199,0.007 -1.3079,0.0451 -2.0312,0.10156 -0.2895,0.0226 -0.5975,0.0611 -0.8965,0.0898 -0.455,0.0434 -0.9039,0.0807 -1.3691,0.13477 -3.8289,0.44617 -7.7578,1.19531 -7.7578,1.19531 l -2.7051,2.16602 c -0.5338,-0.88775 -4.0175,-1.31225 -8.0176,-1.53126 -0.013,-9.9e-4 -0.028,-0.0149 -0.041,-0.0156 -0.2545,-0.0136 -0.5213,-0.0154 -0.7793,-0.0273 -1.0463,-0.0489 -2.0817,-0.0874 -3.1387,-0.11328 -0.087,-0.003 -0.169,-0.005 -0.2558,-0.008 -3.9911,-0.092 -7.7122,-0.0603 -8.9883,-0.0996 0,-1.9e-4 -0.028,1.8e-4 -0.033,0 0,-6e-5 -0.012,5e-5 -0.012,0 -0.1109,0.19103 -0.2508,0.39921 -0.4082,0.61719 l 0,0.008 c -0.8985,1.20934 -2.4614,2.72777 -3.916,3.39844 -0.3779,0.16586 -0.7506,0.29391 -1.1016,0.31836 -0.2617,-0.0777 -1.8875,-0.58075 -3.4218,-1.04883 -2.1779,-0.67094 -4.4431,-1.34961 -4.6563,-1.34961 -0.083,0 -0.228,0.0331 -0.3223,0.0391 -0.2959,0.0183 -0.616,0.0512 -1.0097,0.11914 -0.3012,0.0529 -0.6773,0.13461 -1.0313,0.21093 -0.1747,0.039 -0.3234,0.0661 -0.5097,0.11133 -0.2045,0.0466 -0.3645,0.0733 -0.5821,0.125 l 0,-0.002 c -0.3243,0.084 -0.7517,0.22168 -1.1035,0.32031 -0.2448,0.0688 -0.5069,0.14942 -0.7637,0.22461 -3.4447,1.00825 -7.8442,2.54177 -12.3242,4.22461 -0.1042,0.0391 -0.2041,0.0779 -0.3086,0.11719 -1.415,0.53314 -2.7351,1.04263 -4.1054,1.57812 -2.646,1.03144 -5.0697,2.00612 -7.1758,2.88281 -0.544,0.22676 -1.004,0.42315 -1.4922,0.63086 -0.7083,0.30085 -1.4021,0.59156 -1.9688,0.8418 -0.3629,0.16026 -0.564,0.26355 -0.8632,0.40039 -0.4379,0.20052 -1.017,0.45282 -1.2911,0.5918 -1.3765,0.69877 -2.5342,1.45935 -3.6113,2.22656 0,0.003 -0.014,0.005 -0.014,0.008 -1.073,0.76465 -2.065,1.53595 -3.1094,2.25 l 0,0.004 c -2.0944,1.43118 -4.4037,2.63997 -8,3.1543 -0.097,0.0139 -0.194,0.0217 -0.291,0.0351 -1.3074,0.17796 -2.6223,0.32231 -3.9433,0.43164 -1.1665,0.0965 -2.3385,0.16532 -3.5098,0.23242 -0.2986,0.017 -0.5958,0.0408 -0.8945,0.0566 -1.2582,0.0678 -2.5159,0.1316 -3.7715,0.19921 -0.1202,0.007 -0.2397,0.0113 -0.3594,0.0176 -1.1428,0.061 -2.2789,0.14374 -3.414,0.22852 -0.3333,0.0255 -0.6696,0.0454 -1.002,0.0742 -5.8727,0.49716 -11.5832,1.55571 -16.7813,4.64453 -0.3385,0.19269 -0.6796,0.37234 -1.0156,0.57422 -0.1055,0.0865 -2.1407,1.74993 -3.5879,2.93164 -3.4982,2.83886 -8.2534,6.73857 -8.8398,7.33203 -0.013,0.012 -0.1164,0.0956 -0.1231,0.10351 -8e-4,9.5e-4 0,0.002 0,0.004 -4e-4,3.9e-4 0,0.004 0,0.004 -0.432,0.49503 -0.8274,0.98974 -1.2226,1.48437 l -0.1934,-0.0879 -5.3047,6.06055 0.2461,0.82226 c -0.7361,0.86614 -1.5008,1.71345 -2.373,2.50586 0,0.003 -0.012,0.007 -0.012,0.01 -0.2871,0.25979 -0.5845,0.5153 -0.8926,0.76562 0,0.003 -0.014,0.005 -0.014,0.008 -0.3084,0.25029 -0.6268,0.49627 -0.959,0.73632 0,0.003 -7e-4,0.005 -0.014,0.008 -0.6689,0.48257 -1.3878,0.9423 -2.1718,1.3789 l 0,0.004 c 0,10e-4 -7e-4,0.005 -0.014,0.006 l 0.065,1.9082 0.066,2.26758 c 0,0.004 0.012,0.007 0.012,0.0117 l 0,0.0137 c 1.4363,1.65283 3.0751,4.26478 4.3476,7.03711 0,0.0134 0.014,0.0259 0.019,0.0391 1.2728,2.79707 2.1682,5.753 2.1074,8.05664 0,0.008 0.013,0.0152 0.016,0.0234 0,0.007 0.014,0.0132 0.014,0.0195 0.1791,0.28304 0.3697,0.54742 0.5664,0.80078 0.1108,0.14609 0.2236,0.28326 0.3379,0.42188 0.023,0.026 0.045,0.0523 0.068,0.0781 1.478,1.76366 3.2403,2.93633 5.1231,3.91797 0.2422,0.12633 0.4905,0.24618 0.7363,0.36719 2.2159,1.10759 4.5596,2.03876 6.7774,3.4043 0.1797,0.10403 0.3839,0.30426 0.5957,0.55273 0.013,0.0143 0.023,0.0322 0.035,0.0469 0.3136,0.38161 0.6472,0.83581 0.9707,1.25976 0.1109,0.1469 0.2234,0.30388 0.3281,0.43164 0.013,0.0134 0.017,0.0183 0.029,0.0312 0.1407,0.16527 0.2719,0.29405 0.3965,0.39649 0.041,0.0347 0.096,0.1042 0.1347,0.1289 0.2236,0.12687 0.469,0.23925 0.6973,0.36328 0.8027,0.44274 1.6243,0.87284 2.4726,1.28516 0,0.003 0.014,0.005 0.014,0.008 3.0701,1.49169 6.3565,2.81843 9.3848,4.20313 0.1915,0.0885 0.3948,0.1744 0.584,0.26367 l 0.3086,6.24609 c 2.4205,2.75276 4.3106,5.73194 7.8105,6.94532 0.1774,0.0596 0.3608,0.11445 0.5469,0.16406 0.1865,0.0524 0.3529,0.12577 0.5488,0.16797 l 0.5137,2.83593 1.2891,7.22852 2.6758,3.03516 0.014,-0.01 0,0.004 7.8204,-6.00196 2.2343,-7.37109 c 4.2532,1.85024 6.6347,5.29592 8.42,9.39063 0.075,0.17331 0.1631,0.33218 0.2363,0.50781 1.9747,4.73704 3.2313,10.28518 5.625,15.2832 0.015,0.0319 0.028,0.0638 0.043,0.0957 0,0.008 0.014,0.0157 0.014,0.0234 0.217,0.44877 0.4428,0.89334 0.6797,1.33203 0,0.007 6e-4,0.0147 0.014,0.0215 2.4055,4.46305 5.9119,8.35321 11.9414,10.62304 l 0.7031,-0.0742 0.8301,-0.0664 0.1777,0.21484 10.8555,12.94336 2.6074,0.36133 2.0352,0.27148 1.6211,0.22657 5.5957,-3.33203 1.4785,0.86718 0.5449,0.33008 c 0.5476,0.11886 1.2145,0.11927 1.8809,0.0606 l 0,0.004 c 5.1469,-0.66955 13.4954,-6.22819 16.414,-8.53711 0.5134,0.23384 1.1925,0.28066 1.9688,0.20508 0.035,-0.004 0.067,10e-5 0.1015,-0.004 0.2213,-0.0242 0.4557,-0.0656 0.6914,-0.10938 0.056,-0.0107 0.108,-0.016 0.1641,-0.0273 0,-8.2e-4 0.014,5e-5 0.014,-0.002 0.1367,-0.0278 0.2893,-0.0837 0.4297,-0.11718 3.5025,-0.83498 8.0587,-3.33395 9.6621,-4.41992 l 2.7871,1.70703 1.1094,0.69336 c 1.1599,0.31851 2.8903,0.10822 4.7383,-0.35547 0.614,-0.15411 1.2418,-0.33314 1.8652,-0.53321 l 0,-0.004 c 2.492,-0.79626 4.919,-1.87844 6.2207,-2.59571 l 2.2637,2.5 1.0879,1.22461 -1.6954,2.83399 c 0,0 -2.1273,1.03719 -3.914,0.41601 -0.3267,-0.11565 -0.6427,-0.28313 -0.9336,-0.52539 -0.1407,-0.11738 -0.2751,-0.25551 -0.4024,-0.4082 -0.2572,-0.31393 -0.4829,-0.70493 -0.6581,-1.19336 l -0.012,0.0117 c 0,-0.0143 -0.014,-0.0247 -0.02,-0.0391 l -1.4063,1.79492 -1.2832,1.58203 2.8965,5.21484 0.2773,0.50391 c 8e-4,8.4e-4 0,0.002 0,0.004 l 0,0.004 c 0.1406,0.14418 0.299,0.28222 0.4707,0.41797 l 0,0.004 c 0.1726,0.13584 0.3606,0.26697 0.5625,0.39453 0.3921,0.24792 0.8435,0.48002 1.336,0.69726 0.02,0.009 0.035,0.0184 0.055,0.0274 l 0,0.004 c 0.515,0.22397 1.0784,0.43086 1.6855,0.62304 l 0,0.004 c 1.826,0.57705 4.0315,1.01061 6.4102,1.31836 6.3448,0.82424 13.909,0.74059 18.6992,0.0156 0.1838,-0.0275 0.3343,-0.0604 0.5098,-0.0898 0.9686,-0.16233 1.8346,-0.34696 2.5039,-0.5625 l 1.9629,0.7832 6.1582,2.48242 c 0.2912,0.35011 0.646,0.83421 0.9941,1.30274 0.1343,0.18123 0.242,0.30342 0.3828,0.5 1.8038,2.51916 4.0955,6.24822 5.7617,9.96875 0.4761,1.06301 0.9018,2.1252 1.25,3.1582 6e-4,10e-4 0,0.005 0,0.006 0.1733,0.51459 0.3271,1.02105 0.459,1.51758 7e-4,0.003 0,0.005 0,0.008 0.1309,0.49548 0.2403,0.98072 0.3242,1.45117 0.084,0.47303 0.1423,0.93047 0.1719,1.3711 0.059,0.88127 3e-4,1.69144 -0.1953,2.40039 l 0.012,0.01 c -6e-4,0.003 0,0.005 0,0.008 l 2.8496,3.88476 4.1406,-1.68555 3.3086,-1.32812 2.6856,2.36914 4.4238,-0.0488 6.416,-0.0371 c 2.1356,-0.7299 4.7482,-1.2874 7.0215,-2.10742 0.3405,-0.12193 0.6678,-0.2525 0.9883,-0.38672 0.035,-0.0147 0.073,-0.0263 0.1074,-0.041 0,-10e-4 0.014,-0.004 0.014,-0.006 0.06,-0.0258 0.1133,-0.0557 0.1719,-0.082 0.2831,-0.12526 0.5637,-0.25067 0.8242,-0.38868 0.076,-0.0402 0.3754,-0.1559 0.4863,-0.20703 1.1242,-0.49891 3.8832,-1.5094 6.9981,-2.8457 l 0,-0.002 c 2.4248,-1.07935 4.941,-2.29177 6.7773,-3.51172 0.016,-0.0107 0.039,-0.0204 0.055,-0.0312 0,-0.005 0.014,-0.008 0.021,-0.0137 0.04,-0.027 0.071,-0.0532 0.1113,-0.0801 0.5686,-0.38121 1.0726,-0.7607 1.4707,-1.13477 9.1865,5.43657 18.6603,11.37959 29.8633,7.70313 l 4.3086,1.06445 1.9512,0.49219 c 0.024,-0.0179 0.211,-0.0588 0.3105,-0.0879 0.2338,-0.0745 0.7752,-0.19619 1.6133,-0.36328 3.5053,-0.6997 10.7503,-1.92408 14.0938,-2.4336 0.1476,-0.0218 0.4151,-0.0671 0.5468,-0.0859 0.2566,-0.0362 0.5204,-0.10212 0.7852,-0.16796 0.075,-0.0186 0.147,-0.0263 0.2227,-0.0469 l 0,-0.002 c 1.4977,-0.40341 3.159,-1.17468 5.1464,-1.75 1.2378,-0.35151 2.5987,-0.62824 4.1543,-0.67383 3.0648,2.3023 5.5759,4.89774 9.6036,5.08203 24.2261,1.10174 47.9012,0.8518 72.1582,0.29492 0.04,-9.9e-4 0.4462,-0.20575 0.83,-0.39648 1.6785,-0.8255 5.769,-3.00326 6.2637,-3.25391 l 3.5195,2.18555 c 0.013,-10e-4 0.015,-0.002 0.023,-0.004 0.1999,-0.0494 0.4087,-0.0696 0.6133,-0.10156 0.1475,-0.0227 0.2916,-0.0619 0.4414,-0.0762 0,-2.5e-4 -10e-4,2.4e-4 0.012,0 0.2828,-0.0267 0.5718,-0.0297 0.8614,-0.0293 0.2593,4e-4 0.5214,0.0159 0.7851,0.0352 0.2062,0.0152 0.4085,0.0215 0.6172,0.0469 0.3813,0.0463 0.7669,0.10696 1.1543,0.18164 0,8.5e-4 0.012,0.002 0.012,0.004 0.1602,0.031 0.3252,0.0823 0.4863,0.11719 0.6258,0.13578 1.2534,0.28006 1.8848,0.45507 0.7891,0.21856 1.5776,0.45554 2.3574,0.67969 0,10e-4 0.015,0.003 0.018,0.004 0.7787,0.22371 1.5484,0.43617 2.2988,0.60351 0.3766,0.0844 0.7515,0.15805 1.1172,0.2168 1.8449,0.29635 3.5368,0.21945 4.92,-0.72851 0.1606,0.16954 0.3529,0.33061 0.5781,0.48046 1.6113,1.08666 4.7944,1.66647 8.0605,1.95118 3.7284,0.3337 7.5624,0.28754 9.2891,0.16601 0.1216,-0.18856 0.4291,-0.7401 0.5937,-1.00976 0.4734,-0.77248 1.0359,-1.72029 1.7207,-2.92774 0.039,-0.0688 0.069,-0.11575 0.1075,-0.18555 0.1641,-0.29222 0.35,-0.63634 0.5214,-0.94531 2.8521,-5.11271 6.5525,-12.28933 7.2891,-15.32812 0.017,-0.0704 0.017,-0.11775 0.031,-0.1836 0.045,-0.21001 0.091,-0.4187 0.1016,-0.58007 l -2.1192,-15.64258 c -1.6363,-1.31302 -2.9751,-2.76214 -4.1582,-4.30078 -0.1482,-0.19254 -0.3082,-0.37872 -0.4511,-0.57422 -2.1422,-2.94056 -3.7425,-6.19808 -5.4961,-9.58008 -0.8787,-0.73182 -2.3015,-1.58926 -3.8047,-2.23828 -0.013,-0.003 -0.014,-0.005 -0.02,-0.008 -1.5006,-0.65236 -3.0773,-1.09411 -4.2598,-1.00196 l -0.014,0.0274 -1.7051,4.19336 c -5.2483,0.0278 -8.4961,-2.30599 -11.0605,-5.45118 -0.025,-0.0317 -0.056,-0.0599 -0.082,-0.0918 0,0 0,-0.002 0,-0.002 -0.1842,-0.2282 -0.3538,-0.47105 -0.5313,-0.70703 -0.1772,-0.23589 -0.3615,-0.46457 -0.5332,-0.70703 -7e-4,-9.8e-4 0,-0.002 0,-0.004 -0.055,-0.0772 -0.1045,-0.15851 -0.1582,-0.23632 -2.6794,-3.8477 -4.7764,-8.38917 -8.164,-11.39063 l -0.875,0.70508 -0.6485,0.49414 -10.1074,-5.07812 0,0.004 -0.6367,0.12695 -10.0254,1.99024 -1.1523,-1.99805 4.5605,-2.83398 0.8516,-1.02344 0.7031,-0.81055 -0.9199,-1.42968 -0.2735,-0.4336 0,-0.002 -0.014,-0.0195 -5.3965,-1.875 -4.7871,0.11719 -0.7695,-2.46485 1.2031,-3.1914 -0.9082,-0.98633 -1.1054,-1.23633 c -7.8504,2.88121 -10.3956,6.91181 -14.0176,9.79102 -3.1693,2.5193 -7.1616,4.15542 -16.2539,3.36718 -0.3065,-0.0266 -0.6779,-0.0832 -0.9961,-0.11523 -1.0293,-0.10536 -2.0649,-0.21428 -3.2246,-0.38086 0.1581,-0.30017 0.3482,-0.58722 0.541,-0.87305 0.049,-0.0722 0.089,-0.14741 0.1406,-0.21875 0.1696,-0.23819 0.361,-0.46794 0.5527,-0.69726 0.1296,-0.15322 0.2562,-0.30541 0.3946,-0.45508 0.1742,-0.18975 0.3567,-0.37606 0.5449,-0.56055 0.1987,-0.1936 0.4042,-0.38565 0.6172,-0.57422 0.1617,-0.14397 0.3209,-0.2903 0.4902,-0.43164 0.3593,-0.29838 0.7295,-0.5919 1.1192,-0.88086 0.033,-0.0244 0.064,-0.0479 0.096,-0.0723 0.481,-0.35383 0.9825,-0.70209 1.5,-1.04688 0.077,-0.0518 0.1618,-0.10269 0.2402,-0.1543 0.5291,-0.34936 1.0772,-0.69695 1.6328,-1.04296 1.2527,-0.77972 2.5473,-1.57103 3.8496,-2.38086 0.8521,-0.52906 1.7036,-1.06878 2.5371,-1.63282 0.1809,-0.12273 0.36,-0.24809 0.5391,-0.37304 0.3431,-0.23862 0.6808,-0.48101 1.0156,-0.72852 0.1524,-0.11297 0.3049,-0.2267 0.4551,-0.3418 0.4245,-0.32394 0.8354,-0.65601 1.2402,-0.99804 0.061,-0.0528 0.1286,-0.10311 0.1895,-0.15625 0.5042,-0.43358 0.996,-0.87808 1.459,-1.34571 0.9213,-0.91957 1.7254,-1.93098 2.4179,-3.02929 0,0 0,-0.002 0,-0.002 0.355,-0.56314 0.6908,-1.14297 0.9785,-1.75782 l -0.6796,-2.66992 -0.1661,-0.67383 -2.5214,-2.52734 c -0.013,-0.003 -0.019,-0.007 -0.029,-0.01 -4.8838,-1.31769 -6.0275,-1.0459 -9.6836,-0.004 -0.3818,0.1075 -0.6569,0.17798 -1.1036,0.30273 -1.2206,-5.33508 -5.4945,-11.90186 -8.7089,-16.16992 l -0.014,0.008 c 0,-0.007 -0.013,-0.0133 -0.016,-0.0195 l -4.7285,3.51563 -2.0157,0 -2.0273,-0.008 -1.6738,-1.39843 -0.3457,-0.29102 c 0.1095,-0.24049 0.2142,-0.56918 0.3183,-0.88867 0.1839,-0.56402 0.3564,-1.18254 0.4707,-1.83985 0.021,-0.12673 0.031,-0.26358 0.049,-0.39257 0.083,-0.5446 0.1368,-1.09398 0.166,-1.65039 0.019,-0.33653 0.03,-0.66854 0.023,-0.9961 -0.013,-0.3208 -0.019,-0.63758 -0.055,-0.93945 l 0,-0.0703 c -0.04,-0.31677 -0.1038,-0.61286 -0.1796,-0.89649 -0.027,-0.10256 -0.057,-0.20137 -0.088,-0.29883 -0.063,-0.18858 -0.1371,-0.36386 -0.2208,-0.52929 -0.036,-0.0725 -0.059,-0.16069 -0.098,-0.22852 l -1.2169,-1.05252 -1.1602,-1.01172 c -2.1233,-0.84667 -6.4259,-1.03147 -8.4277,0.30664 l -4.125,-1.9707 -0.059,-0.0293 -0.022,-0.0117 -5.5118,5.43555 -4.1699,4.08789 -1.459,-1.45703 -3.9062,-3.92969 -5.2344,-2.20508 -1.5664,0.36914 -4.0215,0.91797 c -3.3946,-1.02828 -7.2141,-1.81817 -10.4258,-3.20703 -0.6252,-0.26878 -1.2575,-0.59655 -1.8925,-0.92383 -5.4036,-2.80646 -11.1575,-7.16959 -17.0723,-4.78906 -0.6006,0.23827 -1.2026,0.52245 -1.8066,0.9082 -0.6768,-0.44137 -1.7533,-0.99714 -2.9629,-1.50976 -1.4747,-0.63273 -3.1547,-1.19285 -4.6328,-1.37109 -0.2507,-0.0302 -0.475,-0.0225 -0.711,-0.0293 -0.1928,-0.007 -0.4001,-0.0324 -0.5801,-0.0215 0,1.9e-4 -6e-4,-1.7e-4 -0.014,0 -0.3809,0.0235 -0.7303,0.0846 -1.0371,0.19727 l -0.016,0.0137 c 0,10e-4 -0.015,0.004 -0.018,0.006 l -2.0878,1.85352 -1.1016,0.97265 c -0.4596,-0.15742 -0.9274,-0.48753 -1.3828,-0.90234 -0.033,-0.0311 -0.068,-0.0498 -0.1016,-0.082 -1.4436,-1.39808 -2.7504,-3.75013 -3.2051,-5.11328 -1.9018,-0.47547 -3.3622,-1.6412 -4.6953,-3.04297 -0.5784,-0.61106 -1.1362,-1.25838 -1.6914,-1.92383 -3.0543,-3.66101 -6.1414,-7.60182 -13.498,-5.85156 l -3.5059,-7.41016 -0.014,-0.0215 -8.7285,-3.57422 -0.025,0.0254 -0.2949,0.26172 -3.4336,3.07617 c -1.2947,0.45596 -2.8622,0.0783 -4.3516,-0.56641 -1.3281,-0.58441 -2.5964,-1.38026 -3.539,-2.00781 l -4.7422,-8.30078 -1.3047,-2.29883 -0.012,0 0,-0.0117 -2.5469,-0.18164 -0.6269,1.60156 -0.037,0.0899 0,0.004 0,0.002 1.2734,9.58007 c -0.1189,0.0386 -0.2878,0.0394 -0.459,0.0371 -0.039,-10e-4 -0.06,0.0105 -0.1016,0.008 -1.4702,-0.1063 -4.4431,-1.41713 -7.4882,-3.03711 -4.3571,-2.32773 -8.8763,-5.3216 -9.4102,-6.52735 l 1.2129,-3.70117 c -0.424,-1.08972 -2.3822,-2.42328 -4.3301,-3.55273 0,-0.003 -7e-4,-0.002 -0.014,-0.004 -0.031,-0.018 -0.054,-0.0289 -0.084,-0.0469 -1.9087,-1.11198 -3.792,-2.02162 -4.1738,-2.28711 -3.2088,-2.23146 -6.795,-4.20066 -10.1836,-6.22852 -0.3038,-0.18364 -0.6218,-0.36372 -0.9219,-0.54883 0,-2.8e-4 -6e-4,3e-4 -0.014,0 -0.4532,-0.0601 -1.0048,-0.0847 -1.625,-0.0781 l 0.01,-0.002 z m -211.4629,16.80859 c -0.6725,0.47081 -1.4189,1.78621 -1.9042,2.71094 -0.084,0.15767 -0.2156,0.3793 -0.2793,0.50195 0,0 0,0.002 0,0.002 0,0.0256 0.014,0.0561 0.014,0.082 0.045,0.53743 0.164,1.12287 0.3242,1.71289 0.2643,0.99956 0.6533,2.00322 1.1777,2.75196 l 3.0567,1.23437 1.0097,0.41406 0.2188,-0.21874 0.8066,-0.75977 0.2949,-4.08984 0.014,-0.14844 0,-0.008 -2.1836,-3.51563 -2.5488,-0.66992 z m 30.4395,18.71094 -5.291,0.38671 -4.4746,0.30274 -2.2442,1.69922 1.9942,2.55664 3.9785,5.16406 6.5449,3.70703 1.4277,0.81641 1.7676,-4.375 1.0489,-2.54688 -0.2637,-1.83203 -0.068,-0.51562 -1.0039,-1.21094 -3.416,-4.15234 z m 481.5996,132.0625 c -0.078,0.0797 -0.1312,0.17464 -0.2012,0.25976 -1.4983,1.77753 -1.4173,4.67735 1.5059,5.02149 -4e-4,-0.004 6e-4,-0.009 0,-0.0137 0.013,10e-4 0.02,0.005 0.031,0.006 -0.1215,-0.97288 -0.017,-2.18619 -0.1016,-3.21093 -0.016,-0.20313 -0.048,-0.39002 -0.082,-0.57422 -0.013,-0.0469 -0.014,-0.10111 -0.021,-0.14649 -0.017,-0.0749 -0.051,-0.13269 -0.072,-0.20312 -0.171,-0.56533 -0.4733,-0.99676 -1.0585,-1.13867 z m -9.2148,22.91797 c -3e-4,9.9e-4 3e-4,0.005 0,0.006 l -0.014,0 c -0.2447,1.75664 -0.1469,3.2841 0.2324,4.55079 -0.036,0.0171 -0.072,0.0371 -0.1074,0.0547 -0.067,0.0323 -0.1985,0.0883 -0.2559,0.11719 l 0.3066,1.40625 0.3262,1.62891 3.5078,2.28906 2.4141,1.59375 0.014,-0.008 0,0.002 4.2461,-2.66406 -1.2734,-2.24024 c 0,-10e-4 0,-0.003 0,-0.004 0.019,-0.46722 -0.044,-0.84427 -0.1348,-1.19141 -0.076,-0.29125 -0.1753,-0.55793 -0.2969,-0.80273 -0.019,-0.0406 -0.041,-0.0813 -0.061,-0.1211 -0.1149,-0.21863 -0.2325,-0.4361 -0.3574,-0.64844 l 0,-0.008 c -0.04,-0.0678 -0.075,-0.14073 -0.1152,-0.20898 l 0.1367,-0.41992 0.4238,-1.25196 c 0,-0.001 -0.014,-0.005 -0.019,-0.006 l 0,-0.01 c -0.055,-0.0107 -0.1332,-0.0177 -0.1953,-0.0274 -0.095,-0.017 -0.1934,-0.0285 -0.3008,-0.0351 -0.027,-10e-4 -0.05,-0.002 -0.078,-0.004 -0.1919,-0.007 -0.4176,0.0164 -0.6406,0.0371 l 0,-0.0332 c -0.013,-0.0523 -0.015,-0.11133 -0.023,-0.16602 -0.027,-0.26414 -0.023,-0.5597 0,-0.8789 0.025,-0.26042 0.066,-0.53604 0.1289,-0.8418 0.013,-0.0382 0.012,-0.0704 0.02,-0.10938 4e-4,-10e-4 -4e-4,-0.004 0,-0.006 l -7.8828,0 z m 7.7578,2.06445 c 0,0.009 7e-4,0.016 0.014,0.0254 l 0,0.0234 c 0,-0.0178 -0.014,-0.031 -0.014,-0.0488 z m 5.3984,5.8164 c -0.1512,0.5135 -0.4236,0.90766 -0.8457,1.14258 l 0,0.002 c -0.047,0.026 -0.1033,0.0405 -0.1543,0.0625 -0.068,0.0287 -0.1299,0.0622 -0.2051,0.084 -0.1269,0.0373 -0.2643,0.0633 -0.4121,0.0801 -0.2425,0.0274 -0.5337,0.007 -0.8339,-0.0234 -0.052,-0.007 -0.098,-0.007 -0.1524,-0.0156 -5e-4,0.004 7e-4,0.008 0,0.0117 -0.013,-10e-4 -0.02,10e-4 -0.031,0 -0.5369,3.6077 2.3975,3.74243 4.4492,4.76172 l 0,0.004 c 0.2848,0.14472 0.5538,0.30735 0.791,0.5 10e-5,-0.003 -3e-4,-0.005 0,-0.008 0.013,0.005 0.015,0.008 0.022,0.0137 0.049,-0.81762 0.088,-1.62533 0.076,-2.38086 -10e-5,-0.001 0,-0.005 0,-0.006 0,-0.37607 -0.024,-0.73761 -0.062,-1.08203 0,0 0,-0.002 0,-0.002 0,-0.0526 -0.019,-0.0986 -0.025,-0.15039 -0.142,-1.09821 -0.4867,-1.99603 -1.2168,-2.50782 -0.027,-0.0186 -0.046,-0.043 -0.074,-0.0605 -0.3518,-0.23028 -0.7875,-0.37948 -1.3242,-0.42579 z"
     id="rect11"
     inkscape:connector-curvature="0" /><path
     style="fill:#002b7f"
     clip-path="none"
     d="m 1258.8047,488.10001 -0.01,0.002 c -1.3273,0.003 -2.5825,0.21717 -3.7012,0.7168 -0.1135,0.051 -0.2228,0.11297 -0.334,0.16992 -0.1069,0.0544 -0.2182,0.10203 -0.3222,0.16211 0,0 0,0.002 0,0.002 -1.2732,0.73584 -2.3304,1.9038 -3.0567,3.63086 -0.7279,0.17894 -1.3934,0.30061 -2.0625,0.35937 l 0,0.004 c -1.4632,0.18978 -2.8284,0.12662 -4.1894,0.0215 -1.6922,-0.1473 -3.3677,-0.36206 -5.211,-0.26953 -5.665,0.27944 -11.4998,1.16145 -17.1718,1.78125 -0.291,0.0314 -0.5929,0.0738 -0.8828,0.10352 0,2.5e-4 -7e-4,-2.7e-4 -0.014,0 -0.5453,0.46126 -1.0145,0.85135 -1.5293,1.27929 -2.7685,2.28892 -5.1576,4.2524 -7.2852,6.64063 -1.1909,1.32696 -2.3245,2.78541 -3.4277,4.56641 -0.9108,0.24438 -6.4881,1.63867 -7.0957,1.63867 0,0 -12.4173,-1.25483 -19.2637,-2.03906 -0.7985,-0.0946 -1.833,-0.20729 -2.4473,-0.28711 -4.1528,-0.53209 -6.2108,-2.62798 -10.8281,-1.66407 -0.013,0.001 -0.017,0.003 -0.025,0.004 -0.3094,0.063 -0.6273,0.13941 -0.9609,0.23047 -0.376,0.31781 -2.3041,1.86152 -4.1875,3.35547 -0.084,0.0672 -0.1026,0.0854 -0.1875,0.15235 l 0,0.004 c -0.1631,0.1294 -0.2879,0.22568 -0.4493,0.35351 -1.7865,1.41127 -3.4535,2.71018 -3.6543,2.79883 -3.7397,1.52175 -11.8339,3.05626 -19.4472,3.4043 -0.6921,0.0316 -1.38,0.0533 -2.0606,0.0644 -2.7221,0.0445 -5.3222,-0.0838 -7.5683,-0.43946 -0.1216,-0.0192 -0.2247,-0.0499 -0.3438,-0.0703 -1.9145,-0.33577 -3.5691,-0.83724 -4.7773,-1.56445 l -1.3848,0.32812 -2.1816,0.50196 c -1.5799,2.34369 -3.4216,4.04582 -5.4727,5.34961 -0.8205,0.52063 -1.6733,0.97709 -2.5586,1.38671 -1.3254,0.61331 -2.7208,1.12036 -4.1719,1.57032 0,8.3e-4 10e-4,0.002 -0.012,0.004 -0.093,0.0288 -0.1933,0.0515 -0.2871,0.0801 -2.8288,0.85872 -5.8646,1.5247 -9.0332,2.36133 -0.2109,0.82206 -0.5025,1.5201 -0.8535,2.15429 -0.7789,1.37844 -1.8603,2.42019 -3.2168,3.53321 l -23.6074,0.65039 c -0.508,0.44037 -1.2396,0.99009 -2.0566,1.56445 -0.2754,0.19022 -0.5343,0.37832 -0.8301,0.57226 -0.2361,0.15677 -0.4874,0.31114 -0.7363,0.46875 -0.4913,0.31009 -0.9991,0.61666 -1.5274,0.91602 -0.2561,0.1462 -0.5086,0.29506 -0.7695,0.43555 -0.2008,0.10697 -0.4009,0.21004 -0.6035,0.3125 -0.3109,0.15895 -0.6235,0.30567 -0.9356,0.45117 -0.2901,0.13376 -0.579,0.27122 -0.8672,0.39062 -1.8108,0.75036 -3.5552,1.18947 -4.8593,0.98047 l 0.014,0.0215 c -0.013,-10e-4 -0.017,5e-5 -0.025,-0.002 l 2.4726,6.74219 -4.1074,2.07031 -1.1367,0.5625 c -6.6065,-4.36822 -13.8211,-11.70574 -22.3692,-8.91601 l -1.4062,2.04101 -1.1446,1.64063 c -1.6163,-0.21904 -3.3964,-0.34472 -5.2226,-0.39649 -4.0504,-0.12486 -8.3578,0.17032 -11.8672,0.96094 l -5.9883,1.40235 -1.5527,0.35546 c -0.3302,10e-4 -0.7281,-0.0429 -1.1914,-0.13281 -0.402,-0.078 -0.8715,-0.20216 -1.3613,-0.3418 -0.087,-0.0247 -0.1528,-0.036 -0.2422,-0.0625 0,-10e-4 -0.011,-0.002 -0.012,-0.004 -1.1394,-0.33909 -2.4871,-0.82762 -3.9668,-1.41601 -0.052,-0.0206 -0.096,-0.0358 -0.1484,-0.0566 -0.7742,-0.30973 -1.66574,-0.71239 -2.5039,-1.07227 -0.83577,-0.35896 -1.61982,-0.67474 -2.5,-1.07226 -1.76039,-0.79465 -3.58917,-1.65751 -5.41601,-2.53907 -7.1e-4,-3.5e-4 -0.002,3.5e-4 -0.004,0 -3.65482,-1.76449 -7.29283,-3.61164 -10.31641,-5.18164 -10e-4,-7.3e-4 5e-5,-0.002 -0.002,-0.004 -0.14483,-0.0752 -0.17642,-0.0922 -0.31836,-0.16601 -2.81676,-1.46986 -5.16096,-2.73229 -6.29101,-3.36133 l -1.14826,-4.38284 c 0,0 -12.80997,1.58578 -19.18359,2.49609 -0.66304,0.0914 -1.95439,0.25059 -2.42579,0.32032 -0.57351,0.3326 -1.06596,0.81325 -1.50195,1.39258 -0.14041,0.18656 -0.27556,0.38425 -0.4043,0.58984 -1.06705,1.68161 -1.75181,3.95655 -2.40429,5.93945 -0.0107,0.031 -0.0211,0.057 -0.0312,0.0879 -0.32084,0.95276 -0.63936,1.83927 -0.99219,2.54492 -0.1415,0.27885 -2.69563,2.95685 -4.27344,4.6211 -0.45993,0.47831 -1.18622,1.23589 -1.33398,1.39258 L 940,549.00821 c 8.4827,8.40525 11.05939,18.1116 18.56055,26.96289 10.26017,3.50419 24.52788,10.23989 31.80468,17.9961 1.29985,1.38586 2.43525,2.99559 3.56055,4.61914 1.51026,2.19284 2.99575,4.4178 4.77149,6.22656 1.53263,1.53251 3.16583,2.59933 4.79683,3.68555 2.3676,1.58425 4.7371,3.20604 6.7696,6.31054 0,0.004 0,0.006 0.012,0.01 l 10.0586,0.97266 0.1348,0 3.1132,0.30078 1.1465,1.74414 0.8242,1.28906 -0.092,4.26172 -0.1211,4.31641 c 0.013,0.0107 0.017,0.019 0.025,0.0293 0.5024,0.62698 1.0128,1.22697 1.5293,1.79883 5.7546,6.39065 12.3425,9.53794 18.2071,13.9043 0,0.004 0.015,0.008 0.018,0.0117 0.5275,0.39296 1.048,0.79687 1.5625,1.21289 0,0.004 0.013,0.009 0.016,0.0137 0.027,0.0212 0.051,0.0431 0.078,0.0644 1.527,1.24518 2.9905,2.60759 4.3593,4.17578 l 0.6055,6.70313 c 0,0.005 0.012,0.0107 0.018,0.0156 l 0,0.008 c 0.5645,0.4691 1.1377,0.97805 1.707,1.51367 0.021,0.02 0.041,0.0365 0.062,0.0566 1.0672,1.01063 2.1289,2.13958 3.1582,3.32812 0.1242,0.143 0.2523,0.27494 0.375,0.41993 0,0.004 7e-4,0.009 0.014,0.0137 2.8442,3.3693 5.3492,7.26049 6.7071,10.90039 0.43,0.17578 0.887,0.4047 1.3476,0.64062 0.1215,0.0621 0.2339,0.10973 0.3575,0.17578 0.456,0.24454 0.9307,0.53071 1.4101,0.82618 0.1569,0.0964 0.3115,0.18542 0.4707,0.28711 0.4609,0.29497 0.9338,0.61797 1.4102,0.95312 0.2496,0.17618 0.4989,0.35384 0.7519,0.54102 0.3454,0.2533 0.6945,0.51814 1.0449,0.78906 0.6503,0.50987 1.3045,1.03375 1.9649,1.60547 0,-0.005 7e-4,-0.0107 0.014,-0.0156 9e-4,7.9e-4 10e-4,0.002 0,0.004 0,0.004 0,0.007 -0.014,0.0117 0,0 0,0.002 0,0.002 0.9205,0.76432 1.8465,1.57795 2.7676,2.42578 0.1082,0.0998 0.213,0.20407 0.3203,0.30469 0.6644,0.61838 1.3205,1.25955 1.9726,1.9082 0.3648,0.3649 0.7292,0.73189 1.0879,1.10352 0.3616,0.37298 0.7127,0.75243 1.0664,1.13086 0.8618,0.92447 1.6977,1.8561 2.4961,2.79297 0.164,0.19237 0.3335,0.38384 0.4942,0.57617 0.4506,0.53911 0.881,1.07642 1.3027,1.61133 0.2103,0.26723 0.4129,0.53344 0.6152,0.79882 0.3843,0.50305 0.7669,1.00321 1.1192,1.4961 0.5041,0.70776 0.9799,1.40679 1.4082,2.08398 0.3696,0.58109 0.7115,1.14949 1.0176,1.69922 0.045,0.0831 0.084,0.16193 0.1289,0.24414 0.2288,0.42121 0.429,0.82695 0.6152,1.22461 0.087,0.18613 0.1715,0.37224 0.248,0.55274 0.1322,0.30904 0.2399,0.60378 0.3418,0.89453 0.049,0.14181 0.1107,0.29051 0.1524,0.42773 l -0.8262,2.72266 -2.0996,6.83203 0.02,0.0254 2.4824,3.51562 0,0.006 c 0.186,-0.0277 0.3821,-0.0469 0.586,-0.0566 1.4272,-0.0679 3.2485,0.29606 4.8183,0.94532 0.024,0.009 0.044,0.0215 0.068,0.0312 1.0415,0.44473 1.9691,1.01741 2.5879,1.67968 l 1.584,5.31055 256.8887,0 c 0,-0.0103 -0.014,-0.021 -0.019,-0.0312 -0.1883,-0.37261 -0.3278,-0.7359 -0.4004,-1.08789 0.4264,-0.49278 0.8213,-1.12261 1.1836,-1.80469 0.9256,-1.70781 1.5335,-3.85573 1.4531,-5.82617 -0.039,-1.15077 -0.2828,-2.23733 -0.8789,-3.10742 l 14.9004,-7.12891 1.8183,-8.40234 0.1035,-0.47266 0,-0.004 0,-0.0156 -1.5742,-3.67773 -2.2461,-5.27344 c 0.1068,-2.86122 9.6013,-16.37692 16.5039,-22.25391 0,-0.003 7e-4,-0.002 0.014,-0.004 0.5295,-0.45052 1.0437,-0.85287 1.5372,-1.20508 0.992,-0.70377 1.8992,-1.19201 2.6796,-1.39649 l 0.014,-0.0234 0.877,-1.64649 0.9883,-1.8457 c -4e-4,-0.001 0,-0.002 0,-0.004 l 0.014,-0.0234 c -1.1185,-3.61369 -4.005,-6.2182 -6.9395,-9.86328 -2.9254,-3.64473 -5.895,-8.32753 -7.1992,-16.11914 l -2.6856,-1.77148 -0.3515,-0.23633 c -2.6625,-4.48612 -3.2794,-8.68923 -3.9707,-12.23828 -0.2442,-1.27038 -0.516,-2.49671 -0.8692,-3.55664 -0.083,-0.24238 -0.1712,-0.47876 -0.2656,-0.70899 -0.068,-0.16754 -0.1178,-0.35308 -0.1933,-0.51367 -2.2502,-4.82494 -7.5655,-8.44386 -8.6739,-14.00195 0.1646,-0.35578 0.4373,-0.70634 0.7637,-1.04297 1.0477,-1.04575 2.6627,-1.9132 3.8789,-2.32617 0.1497,-0.0467 0.3016,-0.0998 0.4375,-0.13086 0,-0.0107 -0.012,-0.0211 -0.012,-0.0312 -0.039,-0.16774 -0.095,-0.34173 -0.168,-0.52149 -0.073,-0.18132 -0.1626,-0.36468 -0.2656,-0.55078 -0.3025,-0.54721 -0.7187,-1.09743 -1.1836,-1.55859 -0.013,-0.0107 -0.02,-0.0225 -0.031,-0.0332 l 0,-0.004 c -0.013,-0.0107 -0.021,-0.0193 -0.031,-0.0293 -0.4686,-0.45604 -0.9806,-0.82197 -1.4687,-0.99804 l -9.5801,-3.58203 c -0.3926,-1.54655 -1.0536,-2.85815 -1.8496,-4.05079 0,0 0,-0.002 0,-0.002 0,-0.009 -0.014,-0.0185 -0.019,-0.0273 -0.2402,-0.35806 -0.4921,-0.70398 -0.7539,-1.04297 -0.2124,-0.27579 -0.4468,-0.53041 -0.6699,-0.79688 -0.7702,-0.92028 -1.5666,-1.8202 -2.3633,-2.71679 -0.1517,-0.17076 -0.3056,-0.33704 -0.4551,-0.50977 -0.5825,-0.67311 -1.1446,-1.36307 -1.6543,-2.09961 -0.2591,-0.37439 -0.5041,-0.76286 -0.7324,-1.16406 -0.2237,-0.39283 -0.4288,-0.80137 -0.6153,-1.22656 -0.013,-0.0175 -0.017,-0.0333 -0.025,-0.0508 -0.1787,-0.41221 -0.3339,-0.84231 -0.4707,-1.29102 -0.013,-0.0346 -0.021,-0.0708 -0.031,-0.10547 -0.1296,-0.43766 -0.239,-0.89325 -0.3222,-1.37109 -0.013,-0.0557 -0.015,-0.11376 -0.025,-0.16992 -0.076,-0.47122 -0.1286,-0.96337 -0.1543,-1.47852 l 0,-0.20898 c -0.017,-0.51216 -0.014,-1.0435 0.023,-1.60352 0.032,-0.48346 0.056,-0.9656 0.1328,-1.48828 -1.1729,-0.93281 -2.1489,-2.00987 -3.0137,-3.16797 -8e-4,-9.7e-4 0,-0.002 0,-0.004 -2.3183,-3.10517 -3.8498,-6.77035 -6.1738,-9.7832 -0.2706,-0.35285 -0.5333,-0.71177 -0.8281,-1.04492 -0.9701,-1.08339 -1.9717,-2.15031 -2.9942,-3.19922 0,-0.004 -0.012,-0.006 -0.012,-0.0117 -5.6435,-5.80127 -11.9438,-11.15688 -17.6015,-16.95118 -1.5075,-1.54915 -2.9842,-3.11892 -4.3692,-4.75 -1.041,-1.20839 -2.0307,-2.55916 -2.9844,-3.98828 0,-0.007 -0.012,-0.0148 -0.012,-0.0215 -0.4751,-0.71264 -0.9403,-1.44376 -1.4003,-2.1875 0,-0.005 -0.014,-0.0132 -0.014,-0.0195 -1.8548,-2.99983 -3.6064,-6.18832 -5.3965,-9.05078 0,0 0,-0.002 0,-0.002 -0.04,-0.0644 -0.081,-0.12351 -0.1211,-0.1875 -0.4085,-0.65258 -0.8187,-1.29482 -1.2324,-1.9082 -3.5055,-5.2002 -7.9818,-10.10473 -11.8653,-15.03516 l -4.75,0.49805 -7.2031,0.73242 c -1.7047,-0.98363 -4.1736,-2.31675 -6.8809,-3.40429 0,-0.003 -0.013,-0.002 -0.016,-0.004 -0.099,-0.0398 -0.2016,-0.0741 -0.3007,-0.11329 -2.6213,-1.03582 -5.4424,-1.8244 -8.002,-1.82031 z"
     id="rect13"
     inkscape:connector-curvature="0" /><polygon
     style="fill:#ffffff"
     id="polygon15"
     points="1274.3,551.3 1294.4,551.2 1278.2,563.1 1284.5,582.1 1268.2,570.4 1252,582.3 1258.2,563.2 1241.9,551.5 1261.9,551.4 1268,532.3 "
     clip-path="none"
     transform="translate(0,-0.01914086)" /><polygon
     style="fill:#ffffff"
     id="polygon17"
     points="1119.8,563.4 1139.9,563.3 1123.7,575.1 1130,594.2 1113.7,582.5 1097.5,594.3 1103.6,575.2 1087.4,563.5 1107.4,563.4 1113.5,544.3 "
     clip-path="none"
     transform="translate(0,-0.01914086)" /><path
     style="fill:#ffffff"
     clip-path="none"
     d="m 1216.6672,502.18117 -1.3066,0.006 c -0.6382,0.61757 -1.2588,1.24846 -1.8535,1.91602 -0.3094,0.34469 -0.614,0.70061 -0.916,1.0664 l 4.0761,-2.98828 z m -43.8652,3.88672 c -0.7165,-0.004 -1.4917,0.0693 -2.3574,0.25 -0.013,0.001 -0.017,0.003 -0.025,0.004 -0.1673,0.0341 -0.3461,0.0829 -0.5196,0.125 l 10.5684,7.63281 -6.0996,19.10156 16.1992,-11.80078 16.3008,11.69922 -6.3008,-19.09961 6.084,-4.45898 c -1.6855,0.40616 -3.3447,0.78711 -3.668,0.78711 0,0 -12.4172,-1.25484 -19.2636,-2.03907 -0.7985,-0.0946 -1.833,-0.20729 -2.4473,-0.28711 -3.3742,-0.43232 -5.366,-1.89703 -8.4707,-1.91406 z"
     id="polygon19"
     inkscape:connector-curvature="0" /><polygon
     style="fill:#ffffff"
     id="polygon21"
     points="1198.1,668.8 1224.1,668.7 1203.1,684.1 1211.3,708.9 1190.1,693.6 1169.1,709.1 1177,684.2 1155.9,669 1181.9,668.9 1189.9,644.1 "
     clip-path="none"
     transform="translate(0,-0.01914086)" /><polygon
     style="fill:#ffffff"
     id="polygon23"
     points="1232.5,609 1246.6,609 1235.3,617.3 1239.6,630.6 1228.3,622.4 1216.9,630.7 1221.2,617.3 1209.8,609.1 1223.9,609.1 1228.1,595.7 "
     clip-path="none"
     transform="translate(0,-0.01914086)" /></svg>