<?xml version="1.0" encoding="UTF-8" standalone="no"?>
<!-- Created with Inkscape (http://www.inkscape.org/) -->

<svg
   xmlns:dc="http://purl.org/dc/elements/1.1/"
   xmlns:cc="http://creativecommons.org/ns#"
   xmlns:rdf="http://www.w3.org/1999/02/22-rdf-syntax-ns#"
   xmlns:svg="http://www.w3.org/2000/svg"
   xmlns="http://www.w3.org/2000/svg"
   xmlns:sodipodi="http://sodipodi.sourceforge.net/DTD/sodipodi-0.dtd"
   xmlns:inkscape="http://www.inkscape.org/namespaces/inkscape"
   width="500.71246"
   height="413.93124"
   id="svg2"
   sodipodi:version="0.32"
   inkscape:version="0.47 r22583"
   sodipodi:docname="ZZ.svg"
   version="1.1">
  <defs
     id="defs3">
    <inkscape:perspective
       sodipodi:type="inkscape:persp3d"
       inkscape:vp_x="0 : 207.5 : 1"
       inkscape:vp_y="0 : 1000 : 0"
       inkscape:vp_z="500 : 207.5 : 1"
       inkscape:persp3d-origin="250 : 138.33333 : 1"
       id="perspective22" />
    <inkscape:perspective
       id="perspective2847"
       inkscape:persp3d-origin="0.5 : 0.33333333 : 1"
       inkscape:vp_z="1 : 0.5 : 1"
       inkscape:vp_y="0 : 1000 : 0"
       inkscape:vp_x="0 : 0.5 : 1"
       sodipodi:type="inkscape:persp3d" />
    <inkscape:perspective
       id="perspective2860"
       inkscape:persp3d-origin="0.5 : 0.33333333 : 1"
       inkscape:vp_z="1 : 0.5 : 1"
       inkscape:vp_y="0 : 1000 : 0"
       inkscape:vp_x="0 : 0.5 : 1"
       sodipodi:type="inkscape:persp3d" />
    <inkscape:perspective
       id="perspective2826"
       inkscape:persp3d-origin="0.5 : 0.33333333 : 1"
       inkscape:vp_z="1 : 0.5 : 1"
       inkscape:vp_y="0 : 1000 : 0"
       inkscape:vp_x="0 : 0.5 : 1"
       sodipodi:type="inkscape:persp3d" />
  </defs>
  <sodipodi:namedview
     id="base"
     pagecolor="#ffffff"
     bordercolor="#666666"
     borderopacity="1.0"
     inkscape:pageopacity="0.0"
     inkscape:pageshadow="2"
     inkscape:zoom="1.9424138"
     inkscape:cx="263.46327"
     inkscape:cy="173.81011"
     inkscape:document-units="px"
     inkscape:current-layer="g5283"
     inkscape:window-width="1280"
     inkscape:window-height="1004"
     inkscape:window-x="-8"
     inkscape:window-y="-8"
     showgrid="false"
     inkscape:window-maximized="1" />
  <metadata
     id="metadata4">
    <rdf:RDF>
      <cc:Work
         rdf:about="">
        <dc:format>image/svg+xml</dc:format>
        <dc:type
           rdf:resource="http://purl.org/dc/dcmitype/StillImage" />
      </cc:Work>
    </rdf:RDF>
  </metadata>
  <g
     inkscape:label="Layer 1"
     inkscape:groupmode="layer"
     id="layer1"
     transform="translate(-552.26875,152.54375)">
    <g
       id="g5283">
      <path
         style="fill:#006c35;fill-opacity:1;stroke:#006c35;stroke-width:2.40000010000000020;stroke-miterlimit:4;stroke-opacity:1;stroke-dasharray:none;display:inline"
         d="m 666.21875,-151.34375 -27.0625,5.25 -15.78125,7.5 0.21875,0.25 -4,2 13.53125,27.03125 -15.78125,14.25 -12.78125,0 -6.75,13.5 -33.8125,-1.5 -3.78125,9 4.875,1.875 -4.875,-0.375 -6.75,17.28125 12.03125,6 32.3125,57.03125 7.5,20.25 0.75,17.25 0.15625,-0.0625 -0.15625,0.8125 33.03125,25.1875 6.8125,22.09375 0.75,46.53125 45.84375,46.53125 3.78125,15.75 36.8125,58.09375 2.34375,0 4.4375,-3.3125 3,-20.25 6,0 9.78125,6 35.3125,-3.75 41.34375,2.25 4.53125,7.5 6,1.5 8.28125,-5.25 0.25,-6.5 0.5,5 17.28125,-27 26.3125,-8.28125 66.125,-10.5 74.40625,-29.25 12.7812,-54.78125 -11.2812,-15.78125 -61.625,-3 -33.0625,-39 -11.28125,-4.5 L 916.5,16 l 2.25,-12 -25.5625,-30.03125 -8.25,-3 -9.78125,-24 -19.53125,0 -1.5,-11.28125 -37.40625,-3.5625 -30.25,-4.6875 -87.9375,-70.53125 -32.3125,-8.25 z m -28.84375,28.25 1.59375,1.75 -0.5625,0 -1.03125,-1.75 z m 54.625,60.5 0.5,0.53125 8.25,0.1875 -10.5,-0.03125 1.75,-0.6875 z"
         id="rect3843" />
      <path
         style="fill:#ffffff;fill-opacity:1;fill-rule:evenodd;stroke:none"
         d="m 742.4375,-50.84375 c -0.3878,-0.0115 -0.96797,0.20495 -1.78125,0.6875 -1.82841,1.22565 -5.45163,5.00055 -5.5625,9.34375 -0.11087,2.45028 -0.57338,2.44073 1.03125,4 1.15913,1.67116 2.31683,1.5069 4.65625,0.28125 1.34359,-0.98979 1.79744,-1.62118 2.25,-3.28125 0.55738,-2.78392 -2.9295,1.31715 -3.375,-1.78125 -0.77915,-2.87665 1.44684,-4.05983 3.5625,-6.84375 0.0485,-1.31108 0.0719,-2.381 -0.78125,-2.40625 z m 34.0625,0.1875 c -0.65345,0.088 -1.45276,0.92515 -2.5625,2.9375 -0.79526,2.10759 -4.2255,5.2972 -1.75,11.875 2.02493,4.17084 2.85674,10.94854 1.9375,18.5 -1.40303,2.1459 -1.72302,2.88535 -3.5625,5.03125 -2.58434,2.7788797 -5.38334,2.06841 -7.53125,1.03125 -2.00681,-1.35265 -3.58379,-2.04691 -4.5,-6.34375 0.16531,-6.84893 0.56436,-18.05877 -0.6875,-20.4375 -1.84554,-3.68401 -4.88726,-2.36276 -6.1875,-1.25 -6.24718,5.71197 -9.3329,15.35682 -11.21875,23.03125 -1.73264,5.59304 -3.5788,3.97552 -4.875,1.71875 -3.15584,-2.9573 -3.3775,-26.08318 -7.1875,-22.28125 -6.10206,17.44034 3.50185,36.54512002 10.15625,34.6875 4.80081,1.98765002 7.84702,-7.1504703 9.8125,-17.15625 1.34457,-2.80811 2.37206,-3.13087 3.0625,-1.6875 -0.17741,13.3057697 0.95406,16.2737 4.375,20.3125 7.6311,5.88736 13.9426,0.7459 14.4375,0.25 l 5.9375,-5.9375 c 1.32241,-1.39095 3.06979,-1.47565 4.9375,-0.25 1.81528,1.64998 1.58215,4.49219 5.46875,6.46875 3.27076,1.3083 10.25525,0.31819002 11.875,-2.5 2.18018,-3.73642 2.7088,-5.02034 3.71875,-6.4375 1.55624,-2.07131 4.21875,-1.15415 4.21875,-0.5 -0.24796,1.1551 -1.81236,2.29462 -0.75,4.375 1.85057,1.38792 2.28038,0.49593 3.375,0.1875 3.87148,-1.85057 6.78125,-10.25 6.78125,-10.25 0.17134,-3.13267 -1.61103,-2.89508 -2.75,-2.25 -1.4857,0.90815 -1.5768,1.21685 -3.0625,2.125 -1.89292,0.28122 -5.55971,1.52988 -7.375,-1.28125 -1.8536,-3.37961 -1.86409,-8.09116 -3.28125,-11.5 0,-0.24795 -2.47652,-5.35992 -0.1875,-5.6875 1.15511,0.21469 3.63916,0.85659 4.03125,-1.21875 1.21155,-2.02292 -2.61424,-7.76146 -5.21875,-10.65625 -2.26079,-2.48154 -5.38244,-2.78396 -8.40625,-0.25 -2.11767,1.94834 -1.80348,4.12425 -2.21875,6.1875 -0.53925,2.36967 -0.43618,5.30484 1.96875,8.4375 2.11365,4.16781 5.95347,9.51507 4.6875,17.0625 0,0 -2.23134,3.59167 -6.15625,3.125 -1.63588,-0.35681 -4.30159,-1.06483 -5.71875,-11.53125 -1.07243,-7.92238 0.26872,-19.02183 -3.09375,-24.21875 -0.75911,-1.96107 -1.41091,-3.86544 -2.5,-3.71875 z m -10.78125,0.84375 c -1.01713,0.0888 -2.14377,1.27348 -3.0625,3.5625 -0.78821,1.74071 -1.75099,10.84375 -1.59375,10.84375 -0.62896,2.70934 2.83084,3.85743 4.40625,0.375 2.36158,-6.38426 2.373,-9.10417 2.53125,-11.8125 -0.3679,-2.06274 -1.26412,-3.05758 -2.28125,-2.96875 z m 39.8125,0.71875 c -1.04469,0.0947 -1.8768,0.70635 -2.1875,2.25 -0.41629,3.62958 -0.20355,5.60321 0.40625,8.625 0.46769,2.01486 3.40039,5.38835 4.84375,7.34375 6.89601,9.26938 13.53077,18.58337 19.9375,28.21875 1.00715,7.15496 1.74524,14.15431 2.21875,21.125 1.03816,15.28434 1.35371,34.30951 0.40625,50.40625 2.86355,0.1129 7.45182,-4.62386 9.0625,-11.5625 1.04724,-9.59756 -0.37299,-29.18016 -0.46875,-34.84375 -0.0675,-2.35139 -0.21224,-5.15702 -0.375,-8.09375 7.45267,12.17923 14.68306,25.08245 21.78125,39.25 2.58738,-1.22968 2.01392,-15.79764 0.5,-17.84375 C 855.97551,23.55397 848.1277,11.4853 845.625,6.84375 844.72189,5.16743 841.64566,0.48904002 838,-4.90625 c -0.67122,-7.6985 -1.40062,-14.21874 -1.875,-16.1875 -1.17224,-8.13808 3.34468,0.91775 2.71875,-3.8125 -1.46555,-8.12699 -5.95128,-13.65014 -11.25,-21.09375 -1.70846,-2.42107 -1.67473,-2.91487 -4.3125,0.59375 -1.57663,3.57684 -1.55527,6.55256 -1.09375,9.34375 -0.69381,-1.00827 -1.55143,-2.20391 -2.78125,-3.6875 -4.57604,-3.9259 -4.85834,-4.14053 -8.65625,-7.34375 -1.19755,-0.84982 -3.47761,-2.15787 -5.21875,-2 z M 619,-47.5625 c -1.8123,-0.0518 -3.81177,1.07159 -3.03125,3.25 -0.45458,1.18734 3.54746,5.2009 4.25,7.40625 0.62996,1.57037 -0.62483,6.62707 0.6875,7.09375 1.2065,0.52312 2.86802,-3.50048 3.5,-7.21875 0.34975,-2.03704 0.0851,-9.00824 -4.65625,-10.4375 -0.24291,-0.0549 -0.4911,-0.08635 -0.75,-0.09375 z m 258.59375,0.5 c -0.34774,0.06 -0.86114,0.58925 -1.8125,1.84375 -2.35254,7.69156 -3.17932,13.97339 -2.28125,18.75 6.04259,31.5342997 12.23375,60.2629 11.25,90.28125 2.86556,0.0191 6.1786,-6.55526 7.59375,-13.0625 0.7751,-8.96356 -0.51716,-14.41901 -0.75,-19.6875 -0.23181,-5.26848 -5.96386,-48.01361 -7.125,-52 -1.40102,-7.53735 5.57349,-0.99148 4.8125,-5.375 -0.1905,-0.436664 -0.45579,-0.909702 -0.6875,-1.375 l -3.65625,-1.34375 -7.34375,-18.03125 z m -215.03125,0.59375 c -0.7426,0.12864 -1.45921,0.74056 -1.71875,1.75 -0.16329,0.66121 0.28622,1.76113 -0.3125,2.09375 -0.3437,0.34673 -1.64818,0.11368 -1.59375,-1.71875 0,-0.58359 -0.42846,-1.19259 -0.6875,-1.5625 -0.26005,-0.17034 -0.43554,-0.21875 -0.90625,-0.21875 -0.57352,0.0232 -0.56052,0.17445 -0.875,0.65625 -0.13304,0.49091 -0.3125,0.97487 -0.3125,1.53125 -0.0716,0.65214 -0.33273,0.873 -0.8125,0.96875 -0.53623,0 -0.40932,0.0584 -0.84375,-0.21875 -0.25803,-0.28222 -0.5625,-0.3932 -0.5625,-0.875 0,-0.49892 -0.13107,-1.2954 -0.28125,-1.625 -0.22778,-0.30036 -0.58775,-0.45667 -1,-0.5625 -2.24668,0.008 -2.41026,2.58984 -2.28125,3.5625 -0.16832,0.18344 -0.25163,4.75923 2.8125,6.03125 4.11339,1.96144 11.82657,1.13222 11.5,-5.5 10e-6,-0.58662 -0.12904,-2.55652 -0.1875,-3.09375 -0.41981,-0.9777 -1.1949,-1.34739 -1.9375,-1.21875 z m 55.1875,0.0625 c -1.42157,0.0725 -2.67655,0.47991 -3.75,1.03125 -2.72647,2.61055 -3.36566,6.79569 -1.21875,9.40625 2.08946,0.98677 4.17422,3.08986 2.78125,4.25 -5.90874,6.31106 -21.28715,16.85678 -22.0625,18.78125 -0.006,0.0157 -0.028,0.0481 -0.0312,0.0625 -0.002,0.0138 1.5e-4,0.05 0,0.0625 4.7e-4,0.006 -10e-4,0.02565 0,0.03125 0.005,0.0159 0.0214,0.0496 0.0312,0.0625 0.004,0.004 0.0268,0.02765 0.0312,0.03125 0.005,0.003 0.0258,-0.003 0.0312,0 0.006,0.003 0.0245,0.02905 0.0312,0.03125 0.007,0.002 0.0234,-0.002 0.0312,0 0.002,0.002 0.0286,0.02905 0.0312,0.03125 0.78147,0.52416 10.404,0.51181 11.46875,0.03125 0.008,-0.004 0.0249,-0.02715 0.0312,-0.03125 0.003,-0.002 0.0286,0.002 0.0312,0 0.002,-0.002 -0.002,-0.02915 0,-0.03125 3.30705,-1.21859 19,-19.15625 19,-19.15625 -0.81342,-0.69647 -1.5626,-1.20977 -2.375,-1.90625 -0.87086,-0.75393 -0.78317,-1.49506 0,-2.25 3.8866,-2.26181 2.65499,-7.2382 0.625,-9.5 -1.68275,-0.75445 -3.26593,-1.00995 -4.6875,-0.9375 z m 144.25,0.0625 c -0.41312,0.041 -0.91624,0.67737 -1.6875,2.3125 -1.8546,3.03792 -3.1149,8.32825 -2.96875,13.28125 4.01763,27.8139997 5.24933,52.15375 7.875,79.96875 0.21369,2.69019 -0.18067,6.59798 -1.96875,8.15625 -6.61407,6.90637 -16.15051,15.42388 -26.53125,19.34375 -1.11679,1.25387 2.77685,6.59879 7.8125,6.59375 8.42132,-0.9777 15.82345,-5.7042 22.6875,-18.15625 1.83546,-2.90387 5.0615,-9.11956 5.15625,-13.9375 0.64205,-28.24741 -1.42392,-50.2092403 -5.65625,-70.625 -0.27114,-1.98865 -0.0867,-4.3408 0.25,-4.9375 0.54529,-0.65112 2.39427,0.0149 3.375,-1.59375 1.43933,-1.46957 -3.84413,-13.65483 -6.84375,-18.34375 -0.59928,-1.17759 -0.96885,-2.11524 -1.5,-2.0625 z M 638.53125,-45.5 c -1.16231,0.1359 -2.25568,1.08225 -2.78125,2.34375 -0.19454,4.46112 -0.2207,8.91987 0.28125,13.03125 2.02897,7.21077 2.6715,13.55335 3.65625,20.9375 0.27314,9.89088002 -5.71166,4.27861 -5.4375,-0.625 1.38187,-6.36916 1.00892,-16.39649 -0.21875,-18.9375 -0.97367,-2.541 -2.10111,-3.16829 -4.46875,-2.75 -1.8798,-0.1149 -6.73606,5.17652 -8.09375,13.9375 10e-6,-10e-6 -1.13111,4.49648 -1.625,8.5 -0.66423,4.52464 -3.66156,7.72878 -5.75,-0.625 -1.80523,-6.07181 -2.91469,-21.03181 -5.9375,-17.53125 -0.86582,11.68097 -1.8939,32.23514 8.03125,34.34375 12.00453,1.15409 5.37354,-20.29384 9.71875,-24.1875 0.82147,-1.92415 2.34377,-1.95836 2.46875,0.46875 l 0,18.21875 c -0.10986,5.92263 3.78768,7.6826097 6.8125,8.90625 3.14778,-0.24292 5.23504,-0.15687 6.46875,2.90625 0.49188,10.50169 1.00813,21.02956 1.5,31.53125 0,0 7.27726,2.09123 7.625,-17.71875 0.34876,-11.63158 -2.31633,-21.39344 -0.75,-23.65625 0.0554,-2.22352 2.9055,-2.33353 4.875,-1.25 3.13771,2.21343 4.52985,4.93736 9.40625,3.84375 7.42042,-2.04409 11.89013,-5.64587998 12,-11.34375 -0.43342,-5.41463 -1.05977,-10.83537 -3.40625,-16.25 0.32759,-0.98475 -1.42032,-3.54649 -1.09375,-4.53125 1.33349,2.08845 3.35086,1.91508 3.8125,0 -1.26295,-4.16177 -3.22924,-8.14941 -6.40625,-9.875 -2.62568,-2.31322 -6.46792,-1.82398 -7.875,3 -0.65214,5.55877 2.01463,12.14685 6.0625,17.53125 0.85977,2.10356 2.06243,5.60222 1.53125,8.75 -2.15397,1.22868 -4.28955,0.7175 -6.09375,-1.1875 10e-6,-10e-6 -5.90625,-4.4215 -5.90625,-5.40625 1.56734,-10.03501 0.33759,-11.18382 -0.53125,-13.96875 -0.60677,-3.84427 -2.42862,-5.06182 -3.90625,-7.6875 -1.47764,-1.56633 -3.48197,-1.56633 -4.4375,0 -2.61055,4.52564 -1.38585,14.24249 0.5,18.59375 1.36273,4.00253 3.4525,6.5 2.46875,6.5 -0.81038,2.26181 -2.50016,1.7355497 -3.71875,-0.875 -1.7397,-5.39549 -2.09375,-13.43696 -2.09375,-17.0625 -0.52212,-4.49439 -1.1042,-14.09507 -4.0625,-16.53125 -0.78934,-1.07509 -1.72098,-1.44945 -2.625,-1.34375 z m 42.15625,0.0625 c -0.59574,0.0753 -1.25427,0.41445 -2.03125,0.59375 -2.5521,0.8124 -4.94144,3.01869 -4.1875,7.3125 3.01675,18.33234 4.98325,32.3228897 8,50.65625 0.46368,2.14691 -1.33598,4.97677 -3.65625,4.6875 -3.94506,-2.669 -4.92424,-8.07457 -11.65625,-7.84375 -4.87337,0.0585 -10.43053,5.36154 -11.125,10.46875 -0.81239,4.05895 -1.10167,8.46012 0,12 3.42498,4.11842 7.52767,3.67932 11.125,2.75 2.95829,-1.21759 5.39227,-4.13298 6.4375,-3.4375 0.003,0.003 0.0286,-0.004 0.0312,0 0.003,0.004 -0.003,0.02705 0,0.03125 0.64509,1.12755 -0.0608,10.66327 -13.9375,18.03125 -8.52813,3.82915 -15.31599,4.74407 -18.96875,-2.21875 -2.26282,-4.35126 0.16462,-20.92391 -5.40625,-17.09375 -16.47473,42.46737 38.59755,48.39527 44.75,1.75 0.39844,-1.31593 1.61212,-2.63622 2.46875,-2.3125 0.3759,0.16008 0.71998,0.67052 0.84375,1.625 -1.27706,42.23455 -42.60573,45.13036 -49.625,31.84375 -1.73969,-3.13166 -2.26313,-10.10336 -2.4375,-14.28125 -0.31817,-2.52748 -0.95237,-3.98541 -1.6875,-4.5625 -1.6745,-1.25817 -3.9247,2.02305 -4.40625,7.71875 -0.5533,3.640969 -0.55885,5.24666 -0.53125,7.9375 l 14.4063,10.96875 3.21875,10.4375 C 659.30101,83.944961 683.20289,71.686046 688.75,54 c 4.27874,-14.24585 -0.0871,-24.9929 1.34375,-26.3125 0.0124,-0.0104 0.0493,-0.02225 0.0625,-0.03125 0.0136,-0.008 0.048,-0.02425 0.0625,-0.03125 0.0149,-0.006 0.0467,-0.02625 0.0625,-0.03125 0.0487,-0.013 0.13046,-0.03055 0.1875,-0.03125 5.27958,5.68679 12.68771,0.72253 14.3125,-1.25 0.69648,-0.98677 2.43866,-1.6198 3.65625,-0.34375 4.11844,2.9603 11.33689,1.56486 12.84375,-3.65625 0.87085,-5.10519 1.60688,-10.36057 1.78125,-15.8125 -2.68268,0.83292 -4.84747,1.45661 -5.71875,2.375 -0.20749,0.22659 -0.36097,0.47794 -0.40625,0.75 -0.23283,1.50888 -0.45467,3.02237 -0.6875,4.53125 -0.0249,0.12473 -0.065,0.23996 -0.125,0.34375 -0.11434,0.18521 -0.30336,0.35601 -0.5,0.46875 -0.94842,0.51783 -2.60222,0.22171 -2.6875,-1.15625 -1.27605,-5.8016703 -6.52762,-6.5563203 -9.71875,2.4375 -2.14691,1.73969 -6.06155,2.0793 -6.46875,-0.53125 0.52213,-6.0335103 -1.90888,-6.8433903 -6.78125,-4 -1.56635,-11.95110028 -3.12016,-23.36139 -4.6875,-35.3125 2.03099,-0.0585 3.89338,1.41402 5.75,-0.90625 -2.00919,-6.24869 -6.26068,-18.96318 -8.65625,-20.15625 -0.0188,-0.009 -0.0439,-0.02405 -0.0625,-0.03125 -0.10876,-0.1305 -0.23745,-0.25071 -0.34375,-0.34375 -0.0442,-0.0375 -0.1123,-0.0933 -0.15625,-0.125 -0.0439,-0.0305 -0.11251,-0.06875 -0.15625,-0.09375 -0.0962,-0.0528 -0.21644,-0.0958 -0.3125,-0.125 -0.2184,-0.0619 -0.43059,-0.091 -0.65625,-0.0625 z m 164.34375,0.09375 c -2.1076,-0.0625 -4.43966,1.26571 -3.53125,3.90625 -0.52916,1.44034 4.52832,6.32595 5.34375,9 1.46756,4.10835 -1.12079,8.02729 0.40625,8.59375 1.40506,0.63399 3.35995,-4.2415 4.09375,-8.75 0.84767,-3.6447 -1.75249,-11.11411 -5.4375,-12.65625 -0.28247,-0.0665 -0.57391,-0.08485 -0.875,-0.09375 z M 717,-40.84375 c 0.95979,-0.0978 2.1195,0.78407 2.6875,2.03125 0.60588,1.33033 0.30199,2.6014 -0.6875,2.84375 -0.98948,0.24236 -2.26913,-0.63842 -2.875,-1.96875 -0.60586,-1.33033 -0.30199,-2.63265 0.6875,-2.875 0.0618,-0.0152 0.12351,-0.02475 0.1875,-0.03125 z m 106.1875,9.40625 c 0.17575,0.78356 0.3514,1.57235 0.46875,2.375 0.39382,1.73171 0.73331,3.45176 1.09375,5.15625 -1.51689,-2.08871 -2.7725,-3.77628 -3.3125,-4.375 -3.43234,-4.07902 0.0773,-2.67864 1.75,-3.15625 z m 30.25,14.875 c -0.7426,0.12864 -1.4592,0.7718 -1.71875,1.78125 -0.16329,0.6612 0.31746,1.72988 -0.28125,2.0625 -0.3437,0.34673 -1.67943,0.14492 -1.625,-1.6875 -10e-6,-0.5836 -0.42846,-1.22383 -0.6875,-1.59375 -0.26003,-0.17035 -0.43554,-0.21875 -0.90625,-0.21875 -0.57353,0.0232 -0.56053,0.17446 -0.875,0.65625 -0.13304,0.49087 -0.3125,0.97487 -0.3125,1.53125 -0.0716,0.65214 -0.30147,0.87299 -0.78125,0.96875 -0.53622,0 -0.44058,0.0584 -0.875,-0.21875 -0.25804,-0.28221 -0.5625,-0.39321 -0.5625,-0.875 10e-6,-0.49893 -0.13107,-1.29541 -0.28125,-1.625 -0.2278,-0.30037 -0.58776,-0.42541 -1,-0.53125 -2.24669,0.008 -2.37902,2.55859 -2.25,3.53125 -0.16834,0.18344 -0.28288,4.79048 2.78125,6.0625 4.11338,1.96144 11.85783,1.1009697 11.53125,-5.53125 10e-6,-0.58662 -0.16029,-2.55652 -0.21875,-3.09375 -0.41981,-0.9777 -1.1949,-1.34739 -1.9375,-1.21875 z m -138.53125,1.375 c -0.43686,0.05209 -0.9572,0.24932 -1.53125,0.59375 -3.63765,1.96749 -5.04608,7.80386 -2.78125,11.21875 2.11567,3.00769002 5.46074,1.90625 5.90625,1.90625 3.56405,0.4455 5.6875,-6.6875 5.6875,-6.6875 -10e-6,0 0.10732,-2.00556 -4.125,1.78125 -1.78102,0.33363 -2.02324,-0.3096 -2.46875,-1.3125 -0.37093,-1.8556 -0.29122,-3.73713 0.5625,-5.59375 0.39436,-1.11313 0.002,-1.82014 -0.84375,-1.90625 -0.1268,-0.01292 -0.26063,-0.01736 -0.40625,0 z m 191.125,4.25 c -0.0645,0.20414 -0.14303,0.401906 -0.1875,0.625 0.008,1.6278197 0.73488,2.52237 0.59375,4 -0.21065,0.84465 -1.08092,1.40007 -3.15625,0.40625 0.32455,-0.29835 -1.34376,-2.65624 -1.34375,-2.65625 -1.61875,-0.98576 -3.78041,0.0535 -5.1875,0.96875 -0.7741,1.40708 -1.34668,3.81886 -0.46875,6.28125 2.32329,4.2928 10.29281,11.61795 14.09375,11.6875 0.0706,-3.8704803 0.4466,-9.01754 0.65625,-12.21875 0.0641,-0.864011 0.23898,-1.7745566 0.75,-2.34375 l -5.75,-6.75 z M 748.9375,-0.8125 c -0.0537,0.0197 -0.10688,0.06565 -0.15625,0.09375 -0.0242,0.0147 -0.0693,0.0449 -0.0937,0.0625 -0.40219,0.30193 -0.87679,0.99874002 -1.9375,1.75 -1.7891,2.03502 -2.10985,3.45214 -2,7.53125 0.10179,0.43147 3.39648,9.59194 6.1875,16.03125 1.88183,6.6927 3.62283,14.35576 2.34375,21.59375 -4.40569,9.56834 -13.26318,18.14978 -21.8125,22.8125 -4.35571,1.39502 -8.11745,0.91989 -9.125,-0.03125 -0.008,-0.008 -0.024,-0.02365 -0.0312,-0.03125 -2.50138,-1.68184 -2.5588,-4.67557 -2.40625,-5.1875 -5e-5,-0.003 1.7e-4,-0.02775 0,-0.03125 0.006,-0.006 0.0255,-0.02585 0.0312,-0.03125 7.21379,-5.02456 15.45445,-9.09145 21.90625,-22.65625 1.90501,-5.18382 2.48664,-8.29638 0.59375,-16.3125 -0.73791,-2.98677 -1.64938,-5.44462 -3.6875,-7.5625 0.005,-0.006 0.0259,-0.02575 0.0312,-0.03125 1.22799,-0.58751 4.41409,1.75968 4.90625,0.28125 -0.75393,-3.82713 -3.34612,-8.96504 -6.28125,-11.59375 -2.57023,-2.33438 -5.36624,-2.60456 -7.71875,-0.46875 -2.64986,1.47461 -3.21354,6.77074 -1.9375,11.40625 1.41716,3.48948 5.24328,4.10171 7.96875,11.125 -5e-5,0.007 -2.4e-4,0.02895 0,0.03125 0.0568,0.44036 0.93536,5.24244 -0.4375,7.1875 -1.11409,3.47422 -15.42438,14.75858 -16.4375,15.4375 -0.0112,0.0112 -0.0829,0.0519 -0.0937,0.0625 -0.006,0.006 -0.0259,0.02605 -0.0312,0.03125 -0.003,0.002 -0.0246,0.02455 -0.0312,0.03125 -0.003,0.003 -0.0285,0.02805 -0.0312,0.03125 -0.003,0 -0.0278,1.7e-4 -0.0312,0 -0.002,-7e-5 -0.0241,-1.1e-4 -0.0312,0 -0.006,-0.005 -0.0258,-0.02545 -0.0312,-0.03125 2.4e-4,-0.003 -7e-5,-0.02845 0,-0.03125 -0.006,-0.0108 -0.0257,-0.0512 -0.0312,-0.0625 -0.0431,-0.28175 0.0326,-0.99909 0,-2.15625 -0.094,-2.11441 0.78114,-6.89788 0.71875,-7.71875 3e-5,-0.003 -9e-5,-0.02815 0,-0.03125 -0.006,-0.006 -0.0254,-0.02575 -0.0312,-0.03125 4e-5,-0.003 -1.6e-4,-0.02785 0,-0.03125 -0.007,1.4e-4 -0.0303,9e-5 -0.0312,0 -4.73023,3.05406 -6.29245,12.41569 -7.15625,15.1875 -11.9753,8.27414 -25.57358,14.4295 -33.40625,22.8125 -4.07911,6.37015 28.10432,-7.31473 31.84375,-8.96875 0.0321,0.0241 0.0642,0.06305 0.0937,0.09375 0.71089,0.78237 0.77161,3.51034 2.90625,5.96875 3.34533,4.53168 10.45552,7.32238 17.375,5.59375 11.60335,-4.19402 18.28817,-12.10192 25.09375,-20.875 0.97266,-1.41514 2.49715,-2.5301 3.90625,-1.4375 4.67684,10.47043 18.16148,17.92045 35.59375,18.6875 4.03376,-4.90562 2.10463,-7.31767 0.46875,-8.34375 -0.50391,-0.33487 -8.66984,-3.51837 -9.9375,-6.6875 -0.79829,-2.94922 1.14263,-5.56476 5.03125,-7.53125 11.19314,-1.35366 22.19591,-2.8573 32.84375,-6.28125 0.10784,-3.57718 2.21489,-8.92671 3.625,-11.25 0.97909,-1.61201 1.60855,-1.77157 1.84375,-2 0.008,-0.008 0.0246,-0.02305 0.0312,-0.03125 0.003,-0.004 0.0285,-0.02695 0.0312,-0.03125 0.006,-0.005 0.0257,-0.02575 0.0312,-0.03125 2e-5,-0.0107 4.2e-4,-0.0514 0,-0.0625 0.006,-0.0708 -5.4e-4,-0.19272 -0.0312,-0.3125 l -1.8125,-1.0625 -35.71875,-0.15625 c -0.44124,-0.16987 -0.76931,-0.34037 -0.96875,-0.5 -0.0152,-0.0127 -0.0489,-0.0499 -0.0625,-0.0625 -0.006,-0.006 -0.0254,-0.02505 -0.0312,-0.03125 -0.006,-0.006 -0.0262,-0.02515 -0.0312,-0.03125 -0.005,-0.0109 -0.0263,-0.0516 -0.0312,-0.0625 -0.003,-0.003 -0.0277,-0.02795 -0.0312,-0.03125 6e-5,-0.003 -2.9e-4,-0.02795 0,-0.03125 -0.003,-0.003 -0.0276,-0.02795 -0.0312,-0.03125 2e-5,-0.003 -1.8e-4,-0.02795 0,-0.03125 1e-5,-0.003 -1.3e-4,-0.02795 0,-0.03125 0,-0.003 -8e-5,-0.02795 0,-0.03125 -3.3e-4,-0.005 1.2e-4,-0.02655 0,-0.03125 1.3e-4,-0.002 9e-5,-0.02465 0,-0.03125 -5e-5,-0.003 1e-4,-0.02795 0,-0.03125 -6e-5,-0.003 1.4e-4,-0.02795 0,-0.03125 -7e-5,-0.003 1.9e-4,-0.02795 0,-0.03125 0.006,-0.006 0.0254,-0.02565 0.0312,-0.03125 0.008,-0.0165 0.0204,-0.0462 0.0312,-0.0625 0.17439,-0.23501 0.59702,-0.45652 1.125,-0.65625 8.52915,-1.16214 23.68157,-3.646 24.6875,-18.21875 C 816.37401,6.3467297 813.2831,1.37684 803.96875,0 c -6.84388,0.52918 -11.72469,7.1490997 -10.9375,14.4375 -0.32757,1.96245 0.66406,5.81356 -1.34375,6.25 C 778.55912,21.88695 764.23077,30.11264 763.75,36 c -0.003,-5.2e-4 -0.0285,1.4e-4 -0.0312,0 -0.005,0.006 -0.0258,0.02565 -0.0312,0.03125 -0.0101,0.005 -0.046,0.02315 -0.0625,0.03125 -0.0109,-1.5e-4 -0.0515,4e-4 -0.0625,0 -0.0211,0.007 -0.0723,0.02575 -0.0937,0.03125 -0.006,5.4e-4 -0.0232,-1.1e-4 -0.0312,0 -0.0178,-2.8e-4 -0.0507,0 -0.0625,0 -0.006,-1.9e-4 -0.0232,-2e-4 -0.0312,0 -0.0132,3.3e-4 -0.0516,5.3e-4 -0.0625,0 -0.0339,-0.007 -0.0956,-0.02385 -0.125,-0.03125 -0.85384,-0.23714 -1.95383,-1.64623 -1.78125,-3.625 -0.49994,-10.17714 -3.81215,-21.69265 -9,-30.5625 -1.85126,-1.85082998 -2.65786,-2.60077 -3.1875,-2.6875 -0.0171,-0.002 -0.0459,8e-4 -0.0625,0 -0.0218,-9e-5 -0.0657,2.5e-4 -0.0937,0 -0.005,1.4e-4 -0.0264,-4e-4 -0.0312,0 -0.003,-9e-5 -0.0284,2.5e-4 -0.0312,0 -0.004,0.001 -0.0275,-0.001 -0.0312,0 z m 34.1875,5.375 c -0.7426,0.12864 -1.4592,0.74055 -1.71875,1.75 -0.16327,0.66121 0.31746,1.76113 -0.28125,2.09375 -0.34371,0.34673 -1.67943,0.14493 -1.625,-1.6875 0,-0.58359 -0.42846,-1.22384 -0.6875,-1.59375 -0.26004,-0.17034 -0.40429,-0.21875 -0.875,-0.21875 -0.57352,0.0232 -0.59178,0.17445 -0.90625,0.65625 -0.13306,0.49085 -0.3125,0.97487 -0.3125,1.53125 -0.0716,0.65214 -0.30147,0.873 -0.78125,0.96875 -0.53623,0 -0.40933,0.0584 -0.84375,-0.21875 C 774.83572,7.56153 774.5,7.45055 774.5,6.96875 c -10e-6,-0.49893 -0.0998,-1.2954 -0.25,-1.625 -0.22779,-0.30036 -0.61901,-0.42542 -1.03125,-0.53125 -2.24671,0.008 -2.37902,2.5586 -2.25,3.53125 -0.16833,0.18345 -0.28288,4.79048 2.78125,6.0625 4.11339,1.96145 13.91603,0.80665 11.53125,-5.53125 -10e-6,-0.58662 -0.16029,-2.55652 -0.21875,-3.09375 -0.4198,-0.9777 -1.1949,-1.34739 -1.9375,-1.21875 z m 18.03125,7.6875 c 0.77787,-0.0825 1.79825,0.18143 2.78125,0.75 1.42278,0.82293 2.29982,2.06568 2.1875,2.96875 -0.004,0.0245 0.005,0.06985 0,0.09375 -0.006,0.0238 -0.0554,0.07055 -0.0625,0.09375 -0.008,0.023 -0.0222,0.07135 -0.0312,0.09375 -0.006,0.0148 -0.0241,0.048 -0.0312,0.0625 -0.007,0.0144 -0.0231,0.0484 -0.0312,0.0625 -0.0466,0.0763 -0.12358,0.15638 -0.1875,0.21875 -0.68395,0.63877 -2.26256,0.54784 -3.75,-0.3125 -1.40984,-0.81544 -2.28097,-2.06805 -2.1875,-2.96875 0.003,-0.0246 0.0267,-0.06965 0.0312,-0.09375 0.0236,-0.11178 0.0679,-0.21374 0.125,-0.3125 0.0204,-0.0353 0.0384,-0.0926 0.0625,-0.125 0.005,-0.006 0.0262,-0.02505 0.0312,-0.03125 0.042,-0.049 0.10547,-0.11459 0.15625,-0.15625 0.22671,-0.17829 0.54802,-0.30575 0.90625,-0.34375 z m 115.9375,0.625 c -4.77837,3.403435 -15.49255,11.023804 -15.875,11.40625 -1.88988,1.68023 -0.94442,7.58862 0,6.90625 1.02432,0.393847 12.06896,-6.819143 17.375,-11.09375 L 916.5,16 917.09375,12.875 z M 634.25,15.6875 c -9.87576,0.18043 -24.33775,12.94546 -24.71875,20.03125 10.42105,-5.0044 20.65659,-9.82122 31.25,-15 -1.70946,-2.55209 -0.10363,-4.85183 -6.53125,-5.03125 z m 32,4.4375 c 0.96809,0.0109 1.98913,0.48893 2.53125,1.84375 0.48784,1.2428 0.0231,2.54242 -0.5625,3.1875 -0.003,0.005 0.003,0.02635 0,0.03125 -0.009,0.0144 -0.0216,0.049 -0.0312,0.0625 -0.4145,0.53404 -1.86967,0.3125 -2.90625,0.3125 -1.25388,-0.0554 -1.87207,-0.26122 -2.625,-1.28125 -0.35982,-1.13393 0.73594,-2.24809 1.21875,-3.09375 0.005,-0.008 0.0263,-0.02345 0.0312,-0.03125 0.0524,-0.0788 0.13801,-0.17326 0.21875,-0.25 0.375,-0.34347 1.0235,-0.66453 1.71875,-0.75 0.13519,-0.0166 0.26795,-0.03285 0.40625,-0.03125 z m 251.15625,3.9375 c -1.75597,0.21654 -3.42524,1.87704 -2.65625,4.53125 -0.4818,1.55928 2.38215,7.01147 3.125,9.90625 0.66827,2.06022 -0.86071,7.88718 0.53125,8.5 1.28108,0.68641 4.65018,-3.45933 4.53125,-8.65625 0.37092,-2.67204 -0.95304,-12.51735 -4.3125,-14.1875 -0.38629,-0.10791 -0.81353,-0.14377 -1.21875,-0.09375 z m -213.3125,9.625 c -1.55201,0.10848 -2.9369,0.93803 -2.3125,3.125 -0.0937,1.58649 4.3851,3.51558 4.65625,7.1875 0.64004,1.51392 -0.9575,6.36195 0.375,6.8125 1.22364,0.50396 2.92146,-3.35126 3.5625,-6.9375 0.35479,-1.96447 -1.53669,-8.83585 -4.75,-10.0625 -0.49313,-0.10609 -1.01391,-0.16116 -1.53125,-0.125 z m 223.1875,3.375 c 0.0557,0.753839 0.0964,1.490161 0.15625,2.25 -0.17335,6.64734 -2.21799,15.47592 -4.15625,16.3125 0,0 -2.95993,1.70036 -4.9375,-0.1875 -1.43833,-0.57755 -7.1875,-9.59375 -7.1875,-9.59375 -2.94316,-2.69825 -4.90551,-1.92717 -7,0 -5.77547,5.5769 -8.3876,16.02309 -12.3125,23.21875 -1.01196,1.60565 -3.86229,2.97239 -7.03125,-0.125 -8.04837,-10.99558 -3.34187,-26.64767 -4.34375,-22.625 -7.16846,8.0786 -3.99375,21.46509 -2.375,24.34375 2.36362,4.72823 4.27578,7.75534 8.875,10.09375 4.18898,3.08328 7.45084,1.159 9.25,-1 4.21521,-4.3684 4.27142,-15.53959 6.25,-17.75 1.38794,-4.05997 4.86615,-3.36167 6.5625,-1.5625 1.64396,2.36361 3.58498,3.90137 6,5.1875 3.93194,3.46831 8.62458,4.09839 13.25,0.9375 3.16087,-1.77297 5.21193,-4.07719 7.0625,-8.625 0.41523,-1.110547 0.68722,-3.238632 0.875,-6 l -1.6875,-0.65625 -7.25,-14.21875 z M 767.9375,42.40625 c 0.11777,-0.008 0.22161,7.2e-4 0.34375,0 0.0205,-1.3e-4 0.0419,-9e-5 0.0625,0 3.97934,1.0815 9.8454,1.19361 14.9375,1.71875 4.14766,0.26307 6.19709,3.51026 2.3125,4.875 -3.83216,1.31235 -7.51411,2.33739 -7.53125,7.875 0.50376,2.74306 0.397,4.18259 -0.0312,4.84375 -0.0335,0.0496 -0.0878,0.11552 -0.125,0.15625 -0.005,0.006 -0.0258,0.02585 -0.0312,0.03125 -0.006,0.005 -0.0257,0.02615 -0.0312,0.03125 -0.006,0.005 -0.0255,0.02655 -0.0312,0.03125 L 777.78125,62 c -0.011,0.005 -0.0514,0.02595 -0.0625,0.03125 -0.0557,0.0346 -0.12681,0.07155 -0.1875,0.09375 -0.0536,0.0182 -0.1305,0.02175 -0.1875,0.03125 -0.91095,0.1336 -2.23403,-0.73511 -3.21875,-1.25 -2.36259,-1.69635 -8.99306,-5.80556 -9.9375,-14.625 -0.13438,-1.99025 1.35538,-3.70637 3.75,-3.875 z M 612,49.1875 c -0.1524,0.0049 -0.43034,0.338956 -0.75,0.75 l 0.875,0.6875 c 0.11034,-1.029708 0.057,-1.443219 -0.125,-1.4375 z m 334.25,7.125 c -0.0199,1.873192 -0.0331,3.74234 -0.0937,5.59375 -0.1233,1.044098 1.35108,-0.05395 3.125,-2.03125 L 946.25,56.3125 z m -134.09375,5.15625 c -0.43689,-0.0234 -0.90278,0.0449 -1.375,0.28125 -0.0927,0 -4.20581,2.7815 -5.53125,4.71875 -0.80837,0.61485 -0.71671,1.14933 -0.46875,2.21875 0.62996,1.44841 1.74009,0.99386 3,0.3125 1.67217,-0.2278 2.48084,0.8672 2.34375,2.875 -0.77208,2.50371 0.34374,3.4365 0.34375,3.59375 0,0.15724 1.61011,1.53917 3.5,0.4375 3.98941,-1.52299 6.47551,-3.00419 12.0625,-4.21875 1.46655,-0.0292 1.38176,-3.95365 -0.9375,-4.09375 -3.02582,0.1522 -5.81792,0.30676 -8.84375,2.6875 -1.86166,0.43039 -2.18049,-0.70275 -2.59375,-1.71875 -0.47272,-2.52085 1.06446,-4.29763 0.75,-6.1875 0.0839,0.0831 -0.93932,-0.83604 -2.25,-0.90625 z M 940.3125,66.25 c -0.74222,0.0232 -1.52383,0.12602 -2.65625,0.21875 -1.22462,0.26006 -1.65225,0.79656 -1.875,2.28125 0.0877,2.25173 1.46489,2.14023 2.875,3.03125 0.81645,1.03918 1.3476,1.98005 -0.0625,3.6875 -1.33653,1.22464 -2.28848,1.90036 -3.625,3.125 -0.631,1.07649 -1.02395,2.72991 0.90625,3.25 3.56403,1.0019 11.8125,-4.35687 11.8125,-4.46875 1.33651,-1.00189 0.89313,-2.90625 0.78125,-2.90625 -0.77912,-0.89102 -2.53745,-0.35586 -3.71875,-0.5 -0.56244,0 -2.40916,-0.27339 -1.53125,-1.90625 0.73278,-1.01601 1.00309,-1.62315 1.5,-2.875 0.55638,-1.22465 0.0673,-2.05048 -1.9375,-2.71875 -1.02105,-0.18546 -1.72653,-0.24193 -2.46875,-0.21875 z m 19.25,5.71875 c -2.98051,1.7098 -7.43852,3.304017 -9.0625,4.59375 -6.04356,3.4935 -6.07398,7.5111 -1.1875,7.65625 5.4429,-0.631906 11.5215,-1.168945 17,-4.25 l -6.75,-8 z m -72.78125,102.6875 c -0.008,0.004 -0.0235,0.0258 -0.0312,0.0312 -5.92767,1.52097 -5.74326,7.67488 -1.9375,10.375 -62.59388,0 -158.64748,-1.06251 -179.25,-1.0625 -3.4765,0 -9.33873,-0.13775 -15.6875,-0.3125 l 2.625,2.65625 2.46875,10.28125 c 31.46177,-0.0145 153.30519,-0.34375 189.15625,-0.34375 -2.6062,4.62748 0.23645,12.07403 2.28125,13.4375 0.0434,0.0279 0.11369,0.0716 0.15625,0.0937 0.0763,0.038 0.17693,0.075 0.25,0.0937 0.0242,0.006 0.0701,-0.003 0.0937,0 2.42711,0.5725 3.49506,-1.18465 4.3125,-2.46875 1.39104,0.12261 5.25125,0.24029 9.5,0.3125 l 32.125,-5.125 c 0.0718,-0.7315 0.14541,-1.52378 0.15625,-2.40625 0,0 -0.46704,-15.8023 -10.84375,-14.8125 -2.45533,0.37092 -9.34375,1.0625 -9.34375,1.0625 -7.97177,-0.94847 -13.81867,-1.04541 -22.78125,-1.375 0.82723,-1.05023 2.28777,-5.30342 0.5,-6.84375 -0.46622,-0.38767 -1.16171,-0.60352 -2.125,-0.53125 -0.007,5e-4 -0.0245,-8e-5 -0.0312,0 -0.0136,-6.8e-4 -0.0492,0.002 -0.0625,0 -0.007,-0.002 -0.0249,-0.0293 -0.0312,-0.0312 -0.0257,-0.009 -0.0693,-0.0162 -0.0937,-0.0312 -0.0486,-0.033 -0.11173,-0.10294 -0.15625,-0.15625 -0.011,-0.0139 -0.0517,-0.0475 -0.0625,-0.0625 -0.45322,-0.65987 -0.70068,-2.27772 -1,-2.6875 -0.004,-0.004 -0.0277,-0.0272 -0.0312,-0.0312 -0.004,-0.003 -0.0276,-0.0283 -0.0312,-0.0312 -0.0109,-0.007 -0.0514,-0.0277 -0.0625,-0.0312 -0.004,-3.6e-4 -0.0276,-6e-5 -0.0312,0 -0.004,9.1e-4 -0.0275,-0.001 -0.0312,0 z m 4.25,22.59375 c 0.0109,-0.005 0.0203,0.005 0.0312,0 9.13192,0.44551 17.71184,0.0857 26.84375,0.53125 1.44727,1.23032 0.72345,4.04842 -0.21875,4.5625 -0.0422,0.0211 -0.11339,0.051 -0.15625,0.0625 -0.0344,0.008 -0.0905,-0.001 -0.125,0 -0.0345,-7e-4 -0.0905,0.008 -0.125,0 -2.96937,-0.0746 -4.68687,-0.14417 -7.65625,-0.21875 -0.005,-0.14772 -0.0215,-0.30707 -0.0625,-0.4375 -0.70371,-2.08565 -5.80081,-1.94608 -7,-0.3125 -0.0166,0.0235 -0.0475,0.0696 -0.0625,0.0937 -0.0192,0.0325 -0.0463,0.0915 -0.0625,0.125 -0.0193,0.0422 -0.0482,0.11238 -0.0625,0.15625 -0.0187,0.0619 -0.023,0.15372 -0.0312,0.21875 -0.008,0.0748 -0.038,0.17113 -0.0312,0.25 -4.00857,0.4818 -7.61644,-0.13309 -11.625,-0.28125 -1.17607,-1.46408 -1.03878,-4.11342 0.34375,-4.75 z"
         id="path766" />
    </g>
  </g>
</svg>
