<?xml version="1.0" encoding="UTF-8" standalone="no"?>
<svg
   xmlns:dc="http://purl.org/dc/elements/1.1/"
   xmlns:cc="http://creativecommons.org/ns#"
   xmlns:rdf="http://www.w3.org/1999/02/22-rdf-syntax-ns#"
   xmlns:svg="http://www.w3.org/2000/svg"
   xmlns="http://www.w3.org/2000/svg"
   xmlns:sodipodi="http://sodipodi.sourceforge.net/DTD/sodipodi-0.dtd"
   xmlns:inkscape="http://www.inkscape.org/namespaces/inkscape"
   viewBox="0 0 563.52939 440.85583"
   id="svg2"
   version="1.1"
   inkscape:version="0.48.2 r9819"
   width="100%"
   height="100%"
   sodipodi:docname="Flag_of_Seychelles.svg">
  <metadata
     id="metadata18">
    <rdf:RDF>
      <cc:Work
         rdf:about="">
        <dc:format>image/svg+xml</dc:format>
        <dc:type
           rdf:resource="http://purl.org/dc/dcmitype/StillImage" />
      </cc:Work>
    </rdf:RDF>
  </metadata>
  <defs
     id="defs16" />
  <sodipodi:namedview
     pagecolor="#ffffff"
     bordercolor="#666666"
     borderopacity="1"
     objecttolerance="10"
     gridtolerance="10"
     guidetolerance="10"
     inkscape:pageopacity="0"
     inkscape:pageshadow="2"
     inkscape:window-width="1400"
     inkscape:window-height="988"
     id="namedview14"
     showgrid="false"
     fit-margin-top="0"
     fit-margin-left="0"
     fit-margin-right="0"
     fit-margin-bottom="0"
     inkscape:zoom="0.9"
     inkscape:cx="231.64142"
     inkscape:cy="45.07743"
     inkscape:window-x="-8"
     inkscape:window-y="-8"
     inkscape:window-maximized="1"
     inkscape:current-layer="svg2" />
  <path
     style="fill:#003f87;fill-opacity:1;fill-rule:evenodd;stroke:#003f87;stroke-width:1.5;stroke-linecap:round;stroke-linejoin:round;stroke-miterlimit:4;stroke-opacity:1;stroke-dasharray:none;stroke-dashoffset:0"
     d="m 23.935467,223.91347 c -0.265634,-0.0532 -0.900274,-0.26119 -1.410316,-0.46223 -0.51004,-0.20104 -2.014479,-0.5074 -3.343195,-0.6808 -1.328716,-0.1734 -2.428503,-0.3318 -2.443971,-0.35201 -0.238534,-0.31157 -0.664131,-1.39124 -0.769208,-1.95135 -0.104632,-0.55773 -0.04127,-0.87508 0.277788,-1.39133 0.227336,-0.36783 0.413337,-0.88752 0.413337,-1.15486 0,-1.92061 -5.051434,-6.82772 -7.978274,-7.75033 -0.973945,-0.30701 -1.040845,-0.37032 -1.164472,-1.10206 -0.154694,-0.91563 -0.985709,-1.90202 -2.869813,-3.40639 L 3.339594,204.61793 3.44369,203.46995 C 3.56958,202.08161 3.220353,201.27316 2.215209,200.62607 1.541955,200.19265 0.75,198.90958 0.75,198.25225 c 0,-0.18534 0.135851,-0.38912 0.301892,-0.45284 0.166041,-0.0637 0.444207,-0.39239 0.618148,-0.7304 0.17394,-0.33801 1.391846,-1.67522 2.706456,-2.97158 1.314611,-1.29636 2.561757,-2.60243 2.771437,-2.90236 0.708648,-1.01368 3.470277,-1.44887 4.645863,-0.73212 0.983285,0.59951 1.337343,0.50472 2.337514,-0.62581 l 0.908733,-1.02718 1.939336,-0.0765 c 1.618919,-0.0639 2.117622,-0.008 3.018415,0.33514 0.593492,0.2264 1.828973,0.51653 2.745513,0.64475 1.580554,0.22111 1.767883,0.3021 3.634967,1.57151 3.359061,2.28379 3.440188,2.37409 5.128076,5.7081 1.776057,3.50817 3.890207,6.93622 4.540476,7.3623 0.320898,0.21026 0.757083,0.27115 1.459063,0.2037 l 1.001327,-0.0962 -0.08867,0.92274 c -0.08045,0.8373 -0.216443,1.04856 -1.468474,2.28124 -2.165691,2.13224 -2.664905,3.5459 -1.830065,5.18232 l 0.389602,0.76368 -0.683621,0.22562 c -1.019774,0.33655 -1.274094,0.83935 -1.274094,2.51891 0,1.29702 -0.05926,1.5259 -0.560836,2.166 -0.826357,1.05459 -1.010513,1.48621 -1.010513,2.3684 0,0.75155 -0.05517,0.82613 -1.018078,1.37607 -0.718008,0.41007 -1.398251,0.61691 -2.307918,0.70177 -0.709413,0.0662 -1.775976,0.30008 -2.370142,0.5198 -1.289311,0.47677 -1.708315,0.55243 -2.348944,0.42416 l 0,0 z"
     id="path3830"
     inkscape:connector-curvature="0" />
  <path
     style="fill:#003f87;fill-opacity:1;fill-rule:evenodd;stroke:#003f87;stroke-width:1.5;stroke-miterlimit:4;stroke-opacity:1;stroke-dasharray:none"
     d="m 29.967259,140.85386 c -0.552875,-0.29994 -0.6117,-0.4325 -0.545703,-1.22975 0.02383,-0.28783 -0.305696,-0.8956 -0.886164,-1.63444 -1.371143,-1.74525 -1.533559,-3.00784 -0.724487,-5.63204 0.301069,-0.9765 0.300222,-1.10957 -0.01267,-1.99054 -0.442783,-1.24669 -0.440377,-1.66678 0.0084,-1.47062 0.189053,0.0826 0.773438,0.17175 1.298634,0.19804 0.829698,0.0415 1.066982,0.15781 1.809702,0.88673 0.804734,0.78979 0.853218,0.89902 0.827802,1.865 -0.02519,0.95737 0.05058,1.13383 1.131355,2.63489 1.631614,2.26612 1.957263,2.55671 2.865138,2.55671 0.477597,0 0.757896,0.091 0.756208,0.24552 -0.0063,0.57889 -0.260295,1.12941 -0.521027,1.12941 -0.510834,0 -1.351687,0.54739 -1.62482,1.05774 -0.181893,0.33987 -0.730308,0.69418 -1.698062,1.09706 -1.608414,0.66958 -1.917124,0.70251 -2.684326,0.28629 z"
     id="path3832"
     inkscape:connector-curvature="0" />
  <path
     style="fill:#fcd856;fill-opacity:1;fill-rule:evenodd;stroke:#fcd856;stroke-width:1.5;stroke-miterlimit:4;stroke-opacity:1;stroke-dasharray:none"
     d="m 417.00205,111.51493 -1.85924,-0.10971 -1.08703,-1.42089 c -1.28868,-1.68445 -1.30617,-1.6982 -4.79525,-3.76847 -3.59163,-2.13113 -5.53947,-2.76451 -8.86258,-2.88187 -1.29636,-0.0458 -2.63299,-0.17406 -2.97028,-0.28506 -0.64743,-0.21306 -4.13364,-2.55681 -5.00949,-3.367843 -0.33134,-0.30682 -0.71689,-1.09499 -1.07789,-2.20348 l -0.56202,-1.72579 0.53774,-0.96313 c 0.5554,-0.99478 0.67732,-1.639152 0.34858,-1.842327 -0.10403,-0.0643 -0.75558,-0.975493 -1.44788,-2.024881 -2.22466,-3.372151 -3.12115,-3.970124 -7.73594,-5.159998 -2.63554,-0.679543 -5.41119,-0.765382 -9.42902,-0.291595 -3.65386,0.430866 -3.85248,0.350578 -7.59751,-3.071122 l -1.15972,-1.059595 -0.25728,-2.448228 c -0.14151,-1.346525 -0.26045,-2.906512 -0.26432,-3.466638 -0.009,-1.365665 -0.2395,-1.893747 -1.35853,-3.118146 -0.83392,-0.912435 -0.96083,-1.168026 -1.06077,-2.136337 -0.14307,-1.386198 -0.65282,-2.216186 -1.81056,-2.947985 -0.73339,-0.463575 -0.8869,-0.654401 -0.78887,-0.98065 0.0669,-0.22279 0.17294,-0.73653 0.23555,-1.141643 0.1002,-0.648362 0.17959,-0.736569 0.66297,-0.736569 0.54828,0 1.36332,-0.760902 1.36332,-1.272767 0,-0.130734 0.17291,-0.394172 0.38423,-0.585419 0.57175,-0.517426 2.92763,-0.36089 3.68518,0.24486 1.18204,0.94518 1.47356,1.072778 2.67051,1.168857 0.91512,0.07346 1.40155,0.01605 1.85617,-0.21904 0.82926,-0.428827 1.30844,-0.403161 3.04276,0.162977 2.11601,0.690737 2.593,0.525146 3.76529,-1.307163 0.87095,-1.361302 0.98139,-1.647425 0.91022,-2.358248 -0.0292,-0.291509 0.1038,-0.320632 1.00858,-0.220885 0.57321,0.06319 1.46886,0.346876 1.99033,0.630409 0.89162,0.484783 1.00718,0.644303 1.93874,2.676116 0.77496,1.690281 1.21192,2.374388 2.00732,3.142697 0.5592,0.540151 1.56093,1.821782 2.22607,2.848069 0.66515,1.026287 1.35561,2.072092 1.53438,2.324011 0.44819,0.631611 2.57714,2.172395 3.20465,2.319304 0.28329,0.06632 1.20236,0.387921 2.04236,0.714663 l 1.52729,0.594076 1.7231,-0.422586 c 0.94771,-0.232422 2.30915,-0.422585 3.02542,-0.422585 1.73409,0 2.30382,-0.595745 2.0731,-2.167744 -0.0716,-0.487949 -0.009,-0.610988 0.36024,-0.703565 0.24594,-0.06173 0.62564,0.0129 0.84408,0.165908 0.70765,0.495654 1.5825,1.756274 1.79364,2.584528 0.40158,1.575367 0.55999,1.775698 2.23578,2.827507 0.90578,0.56851 2.55138,1.748713 3.65689,2.622674 2.35092,1.858515 3.20637,2.320405 5.59358,3.020177 3.38468,0.992163 4.63264,0.873668 5.51471,-0.523628 0.26207,-0.415135 0.60294,-0.75479 0.75751,-0.75479 0.50107,0 0.87308,-0.757961 0.68827,-1.402342 -0.13208,-0.46056 -0.0999,-0.608182 0.15369,-0.705502 0.29977,-0.115035 2.22598,0.07767 5.4521,0.545455 0.75622,0.109648 1.86192,0.146276 2.45713,0.0814 1.21937,-0.132921 1.42524,0.0064 2.45085,1.658913 0.52088,0.839244 0.52754,0.885428 0.22069,1.528907 -0.44632,0.93594 -0.39702,1.429463 0.2426,2.428613 0.80492,1.257371 3.06729,3.630856 3.70714,3.889223 0.30036,0.121282 1.15448,0.345759 1.89806,0.498836 0.94637,0.194826 1.50515,0.43151 1.86258,0.788939 l 0.51061,0.510615 -0.98166,0.981669 c -0.90908,0.909076 -1.0953,1.003408 -2.51822,1.275658 -2.19014,0.419037 -4.12244,0.378257 -5.59198,-0.118009 -1.66242,-0.561407 -1.81602,-0.908056 -0.92147,-2.079616 1.33018,-1.742072 1.16928,-2.345442 -1.04949,-3.93577 -1.66269,-1.191748 -2.36388,-1.426761 -4.26141,-1.428262 -1.20675,-9.82e-4 -1.58691,0.09639 -2.94924,0.755198 -1.55243,0.750735 -2.3375,1.445185 -3.32526,2.941417 -0.53422,0.809207 -0.62671,1.652261 -0.39663,3.615123 0.15494,1.321776 0.15482,1.322256 -0.56148,2.196406 -1.06458,1.29917 -1.07588,1.68836 -0.1149,3.95662 0.45507,1.074153 0.96229,2.107393 1.12716,2.296113 0.16486,0.18871 0.79453,0.48611 1.39927,0.66088 1.74563,0.50448 1.95563,0.61579 3.56878,1.89156 1.48549,1.1748 1.5204,1.22189 1.26758,1.7097 -0.14298,0.27589 -0.47218,0.73019 -0.73154,1.00954 -0.44682,0.48126 -0.6084,0.51483 -3.08011,0.63993 -3.06569,0.15516 -3.45051,0.29299 -3.28769,1.17754 0.0629,0.34149 0.17113,1.07174 0.2406,1.62279 0.1182,0.93748 0.0963,1.00992 -0.34008,1.12672 -0.25652,0.0687 -0.51059,0.10912 -0.5646,0.0899 -0.054,-0.0192 -0.93487,-0.0843 -1.95746,-0.14464 l 0,0 z"
     id="path3834"
     inkscape:connector-curvature="0" />
  <path
     style="fill:#fcd856;fill-opacity:1;fill-rule:evenodd;stroke:#fcd856;stroke-width:1.5;stroke-miterlimit:4;stroke-opacity:1;stroke-dasharray:none"
     d="m 345.00792,91.272314 c -0.59645,-0.540151 -0.97787,-0.982093 -0.8476,-0.982093 0.13027,0 0.46266,-0.211667 0.73865,-0.470371 0.77871,-0.729948 2.47209,-1.530089 3.08761,-1.458931 0.34831,0.04027 0.63778,0.242132 0.79495,0.554372 0.32877,0.653122 0.32039,2.056554 -0.0139,2.334013 -0.21517,0.178573 -2.36132,1.005103 -2.60984,1.005103 -0.036,0 -0.55338,-0.441942 -1.14984,-0.982093 z"
     id="path3836"
     inkscape:connector-curvature="0" />
  <path
     style="fill:#fcd856;fill-opacity:1;fill-rule:evenodd;stroke:#fcd856;stroke-width:1.5;stroke-miterlimit:4;stroke-opacity:1;stroke-dasharray:none"
     d="m 335.68016,105.71551 c -0.22504,-0.68188 -1.1996,-1.67599 -1.64304,-1.67599 -0.12972,0 -0.4413,-0.1439 -0.6924,-0.31977 -0.35772,-0.25056 -0.39907,-0.35621 -0.19102,-0.48804 0.14604,-0.0925 0.46751,-0.16962 0.71438,-0.17127 0.24687,-0.002 0.64905,-0.13419 0.89374,-0.29451 0.39404,-0.25818 0.49342,-0.25752 0.86934,0.006 0.45932,0.32172 0.82971,1.38444 0.83146,2.38562 6e-4,0.34472 0.0895,0.68139 0.19751,0.74816 0.35755,0.22097 0.20388,0.49105 -0.27939,0.49105 -0.36877,0 -0.52638,-0.15322 -0.70058,-0.68104 z"
     id="path3838"
     inkscape:connector-curvature="0" />
  <path
     style="fill:#fcd856;fill-opacity:1;fill-rule:evenodd;stroke:#fcd856;stroke-width:1.5;stroke-miterlimit:4;stroke-opacity:1;stroke-dasharray:none"
     d="m 396.37137,59.990991 c -0.48613,-0.230582 -1.59409,-0.755429 -2.46213,-1.166326 -0.86804,-0.410897 -1.84031,-0.749195 -2.1606,-0.751772 -1.36672,-0.011 -2.0187,-0.329469 -3.27044,-1.597507 -0.68216,-0.691044 -1.66047,-1.539743 -2.17402,-1.885997 -1.07399,-0.72412 -1.74962,-1.695188 -1.67286,-2.404367 0.12342,-1.140311 2.99169,-1.687691 5.65549,-1.079294 l 1.5526,0.354605 1.25889,-0.619748 c 1.71572,-0.844645 2.02026,-0.809888 3.17486,0.362345 0.96818,0.982955 1.5673,1.202207 2.02752,0.741982 0.17025,-0.170244 1.22865,-0.241685 3.63743,-0.245523 l 3.39731,-0.0054 -0.36032,0.610714 c -0.58758,0.99588 -0.95451,1.198996 -2.35801,1.30526 -0.9656,0.07311 -1.73389,0.295591 -2.88313,0.834896 -1.42792,0.670083 -1.66274,0.723233 -2.65014,0.599865 -1.83836,-0.229688 -2.33345,0.42712 -1.51651,2.011861 0.20595,0.399509 0.45064,0.991544 0.54376,1.315635 0.13579,0.472614 0.34801,0.647576 1.07209,0.883883 0.83205,0.27154 0.88713,0.32926 0.70295,0.73657 -0.24196,0.535103 -0.38339,0.534947 -1.51474,-0.0017 l 0,1e-6 z"
     id="path3840"
     inkscape:connector-curvature="0" />
  <path
     style="fill:#fcd856;fill-opacity:1;fill-rule:evenodd;stroke:#fcd856;stroke-width:1.5;stroke-miterlimit:4;stroke-opacity:1;stroke-dasharray:none"
     d="m 421.90578,100.11115 c -0.21606,-0.216063 -0.39477,-0.591713 -0.39715,-0.834783 -0.002,-0.24307 -0.17088,-0.80877 -0.37446,-1.25712 l -0.37014,-0.81518 0.61998,-0.0944 c 0.81156,-0.12359 0.91461,-0.0434 0.91461,0.71148 0,0.34818 0.11964,1.09427 0.26586,1.65796 0.29975,1.155583 0.0778,1.368563 -0.6587,0.632063 z"
     id="path3842"
     inkscape:connector-curvature="0" />
  <path
     style="fill:#fcd856;fill-opacity:1;fill-rule:evenodd;stroke:#fcd856;stroke-width:1.5;stroke-miterlimit:4;stroke-opacity:1;stroke-dasharray:none"
     d="m 350.10931,2.8757382 c -0.6512,-0.085158 -1.72462,-0.2949211 -2.38537,-0.4661396 -0.66076,-0.1712184 -1.45898,-0.3113063 -1.77384,-0.3113063 -0.31486,0 -0.73313,-0.1174827 -0.92951,-0.2610726 -0.29587,-0.2163474 -0.31794,-0.3341195 -0.12884,-0.6874649 0.2675,-0.4998186 0.23087,-0.4924046 0.93816,-0.1899145 0.30412,0.1300628 1.39263,0.2463191 2.41892,0.2583473 1.33235,0.015615 2.28726,0.1502675 3.33911,0.4708514 1.70965,0.5210639 1.92554,0.6699469 1.57826,1.0883937 -0.27392,0.330053 -1.08521,0.3561431 -3.05689,0.098306 l 0,0 z"
     id="path3844"
     inkscape:connector-curvature="0" />
  <path
     style="fill:#fcd856;fill-opacity:1;fill-rule:evenodd;stroke:#fcd856;stroke-width:1.5;stroke-miterlimit:4;stroke-opacity:1;stroke-dasharray:none"
     d="m 132.07607,325.23739 c -0.32539,-0.19844 -1.06266,-0.51725 -1.63837,-0.70847 -0.57572,-0.19123 -1.32595,-0.5901 -1.66719,-0.88639 -0.92049,-0.79924 -1.35874,-0.97997 -2.7219,-1.12245 -0.9863,-0.10308 -1.34489,-0.23836 -1.77682,-0.67029 -0.7811,-0.7811 -0.7537,-1.88693 0.07,-2.82508 0.8465,-0.96411 1.34762,-1.04458 2.45687,-0.39452 0.79799,0.46766 1.04709,0.51978 1.96715,0.41165 0.97197,-0.11424 1.08766,-0.0835 1.49558,0.39706 0.81597,0.96132 1.20958,1.25848 1.96785,1.48567 1.45076,0.43465 2.59905,-0.50634 2.59905,-2.12986 0,-0.78537 -0.0921,-0.96948 -0.82856,-1.65645 -0.96011,-0.89558 -1.23383,-1.34201 -1.23383,-2.01233 0,-0.86259 -0.57233,-1.31822 -1.81687,-1.44643 l -1.12941,-0.11634 0,-0.73616 c 0,-0.75227 0.8157,-2.18163 1.9405,-3.40033 0.48615,-0.52674 0.57828,-0.55065 1.65889,-0.43052 1.13283,0.12592 1.15271,0.11929 2.0089,-0.66991 0.47561,-0.43841 1.02278,-0.7971 1.21593,-0.7971 0.69226,0 1.62842,-0.7073 2.46973,-1.86597 0.84537,-1.16425 0.8793,-1.18622 2.80285,-1.81465 1.07092,-0.34987 2.69843,-1.07704 3.61668,-1.61593 0.91826,-0.53888 1.90337,-0.98183 2.18915,-0.98431 0.28577,-0.002 1.16886,0.27176 1.96243,0.60946 1.32599,0.56426 1.57026,0.60563 3.01595,0.51087 1.54735,-0.10142 6.73549,-1.30934 9.02815,-2.10196 0.64331,-0.2224 2.06376,-0.48201 3.15655,-0.5769 1.27904,-0.11106 2.34265,-0.32556 2.98546,-0.60209 0.856,-0.36824 1.08219,-0.58851 1.58429,-1.54287 0.32215,-0.61231 0.9878,-2.17396 1.47922,-3.47032 0.49142,-1.29636 1.17293,-3.01993 1.51446,-3.83016 l 0.62097,-1.47314 -0.1246,-3.04449 c -0.0685,-1.67447 -0.21732,-3.88417 -0.33064,-4.91046 -0.25874,-2.3434 -0.15914,-2.95185 0.65146,-3.97946 l 0.64964,-0.82357 -0.0437,-2.55806 c -0.024,-1.40692 -0.13794,-3.7071 -0.25314,-5.11149 -0.19468,-2.373 -0.18118,-2.63542 0.19098,-3.7136 0.22025,-0.63808 0.40046,-1.58826 0.40046,-2.1115 0,-1.17875 0.37344,-1.59812 1.80605,-2.02817 2.16085,-0.64865 2.4793,-0.62236 3.89009,0.32117 1.1298,0.75561 1.40415,0.85387 2.38412,0.85387 0.94449,0 1.24318,-0.0975 2.03048,-0.66291 0.99864,-0.71717 1.34347,-0.77587 2.58172,-0.43946 1.1625,0.31582 1.76783,0.87437 2.1303,1.96564 0.42181,1.26997 0.79754,1.56715 2.28401,1.80654 0.68715,0.11066 1.31633,0.30653 1.39817,0.43525 0.0819,0.12873 0.15016,0.78932 0.15182,1.46798 0.004,1.67235 0.33447,2.35296 2.0705,4.26516 l 1.4839,1.63449 0.19762,1.77006 c 0.21348,1.91203 0.17129,2.09289 -0.9066,3.8865 -0.31317,0.52111 -0.53039,1.25437 -0.61097,2.06239 -0.0883,0.88572 -0.34413,1.68627 -0.87138,2.72694 -0.4105,0.81022 -0.80781,1.72484 -0.88291,2.03249 -0.11251,0.46089 -4.59636,3.90431 -25.47046,19.56034 l -25.33392,19.00099 -0.70696,-0.36043 c -1.00881,-0.51432 -1.711,-0.45048 -2.67723,0.24341 -0.79287,0.5694 -0.88807,0.59112 -1.669,0.38084 -1.19362,-0.32141 -1.7819,-0.11567 -3.11267,1.08862 -0.64995,0.58817 -1.30041,1.06907 -1.44547,1.06866 -0.14505,-3.9e-4 -0.52996,-0.16309 -0.85536,-0.36152 l 0,0 z"
     id="path3846"
     inkscape:connector-curvature="0" />
  <path
     style="fill:#fcd856;fill-opacity:1;fill-rule:evenodd;stroke:#fcd856;stroke-width:1.5;stroke-miterlimit:4;stroke-opacity:1;stroke-dasharray:none"
     d="m 122.55145,336.60298 c -1.92576,-0.15527 -2.22795,-0.28423 -3.20805,-1.36909 -0.84706,-0.9376 -0.87805,-1.17858 -0.24604,-1.91334 l 0.4736,-0.55058 0.75402,0.45269 c 1.31887,0.7918 1.97136,1.01114 3.40397,1.14429 1.2979,0.12063 2.35873,0.58593 2.35873,1.03458 0,0.14902 -1.6753,1.41957 -1.79988,1.36504 -0.0363,-0.0159 -0.81771,-0.0895 -1.73635,-0.16359 z"
     id="path3848"
     inkscape:connector-curvature="0" />
  <path
     style="fill:#d62828;fill-opacity:1;fill-rule:evenodd;stroke:#d62828;stroke-width:1.5;stroke-miterlimit:4;stroke-opacity:1;stroke-dasharray:none"
     d="m 125.55929,336.20552 0.68746,-0.57942 0.34373,0.41005 c 0.53425,0.63731 0.42262,0.75976 -0.68746,0.75407 l -1.0312,-0.005 0.68747,-0.57942 z"
     id="path3850"
     inkscape:connector-curvature="0" />
  <path
     style="fill:#d62828;fill-opacity:1;fill-rule:evenodd;stroke:#d62828;stroke-width:1.5;stroke-miterlimit:4;stroke-opacity:1;stroke-dasharray:none"
     d="m 152.06023,346.24078 c -0.58561,-0.42267 -1.68346,-1.1876 -2.43967,-1.69984 -0.75621,-0.51225 -1.61774,-1.155 -1.91452,-1.42833 -0.64518,-0.59422 -1.39512,-2.48096 -1.23682,-3.11168 0.15393,-0.61332 0.89341,-0.76319 1.70214,-0.34498 1.09941,0.56853 3.85999,3.57742 4.49093,4.89488 0.61802,1.29049 0.92263,2.45844 0.64116,2.45844 -0.0982,0 -0.65761,-0.34582 -1.24322,-0.76849 z"
     id="path3852"
     inkscape:connector-curvature="0" />
  <path
     style="fill:#d62828;fill-opacity:1;fill-rule:evenodd;stroke:#d62828;stroke-width:1.5;stroke-miterlimit:4;stroke-opacity:1;stroke-dasharray:none"
     d="m 208.15582,367.42349 c -1.47639,-1.11834 -3.75784,-2.34371 -4.36362,-2.34371 -0.79838,0 -1.54029,0.62232 -2.13054,1.78714 -0.26832,0.52949 -0.56393,0.96272 -0.65691,0.96272 -0.47516,0 -0.69826,-0.72249 -0.71314,-2.30937 -0.015,-1.60471 -0.039,-1.69126 -0.58918,-2.12997 -0.56892,-0.45365 -1.98083,-0.86149 -3.00019,-0.86665 -1.15795,-0.006 -1.36187,-0.16757 -1.45678,-1.1553 -0.11413,-1.18774 -0.8664,-2.6945 -1.63978,-3.28438 -0.33206,-0.25328 -1.19078,-0.72668 -1.90827,-1.052 -1.64802,-0.74725 -1.78137,-0.98787 -1.4981,-2.70315 0.28217,-1.70857 -0.0375,-2.6301 -1.08577,-3.12998 -0.8981,-0.42827 -1.02458,-0.8777 -0.51963,-1.84646 1.01218,-1.94191 0.14046,-2.99199 -2.45143,-2.95303 -1.35152,0.0203 -1.45774,-0.0102 -1.88858,-0.54213 -1.14195,-1.40996 -2.51994,-1.55504 -4.2942,-0.45209 l -0.96906,0.6024 -0.93574,-0.41428 c -0.96949,-0.42921 -1.21317,-0.42066 -4.07844,0.14304 -0.50446,0.0992 -0.8395,-0.0693 -2.32812,-1.17152 -0.95638,-0.7081 -1.85102,-1.28745 -1.98809,-1.28745 -0.34806,0 -3.1258,-1.83487 -4.42442,-2.9226 -0.59416,-0.49767 -1.61719,-1.52419 -2.27338,-2.28114 -1.20953,-1.39525 -2.11873,-2.186 -4.47944,-3.89584 -0.94391,-0.68367 -1.4439,-1.21414 -1.79217,-1.90141 -0.77686,-1.53307 -1.54171,-1.84316 -3.33833,-1.35346 -1.09016,0.29715 -1.60733,0.84401 -1.96646,2.07937 -0.2335,0.8032 -0.4277,1.10459 -0.80394,1.24764 -0.98751,0.37545 -1.22175,0.25331 -1.53461,-0.80021 -0.1615,-0.54384 -0.47314,-1.2409 -0.69254,-1.54901 -0.45607,-0.64049 -1.67834,-1.19413 -2.63631,-1.19413 -1.28602,0 -1.55243,-1.14158 -0.43697,-1.87246 0.53023,-0.34742 0.45606,-0.36645 2.14993,0.55149 0.78526,0.42555 1.56968,0.12192 1.99375,-0.77175 0.57602,-1.21386 0.21476,-1.78647 -2.35824,-3.73791 l -1.17851,-0.89382 -1.31447,0.12163 c -1.19771,0.11084 -1.34086,0.084 -1.61158,-0.30255 -0.29063,-0.41493 0.25327,-0.83705 24.88469,-19.31346 l 25.18181,-18.88926 0.11996,0.70248 c 0.15156,0.88743 0.89343,4.59246 1.28049,6.39491 l 0.29445,1.37122 -0.79912,1.52643 c -0.90425,1.72723 -1.26167,3.53589 -1.06694,5.39903 0.11356,1.08651 0.0856,1.18663 -0.57121,2.04713 -1.33159,1.74448 -1.42165,2.25749 -0.54946,3.12968 0.53189,0.53189 0.68191,0.57415 2.03834,0.57415 1.04231,0 1.5326,0.0824 1.70158,0.28602 0.33282,0.40102 0.0851,0.69607 -0.58447,0.69607 -0.75801,0 -1.53582,0.37173 -1.67136,0.79878 -0.30166,0.95042 0.54732,2.02893 1.77901,2.26 0.79876,0.14984 1.16961,0.53669 1.55114,1.61807 0.55191,1.56427 2.71767,4.37977 7.24131,9.41371 1.57631,1.75414 3.52307,4.01467 4.32613,5.0234 1.65874,2.08355 2.66176,2.68436 4.62873,2.77261 0.60598,0.0272 1.25661,0.0636 1.44584,0.0809 0.18924,0.0173 0.66143,0.4732 1.04933,1.01312 0.46448,0.64652 1.28588,1.36589 2.4058,2.10697 1.0971,0.72597 2.57178,2.01054 4.15577,3.62002 2.09532,2.12904 2.58479,2.52769 3.33911,2.71955 0.48614,0.12364 1.77395,0.48923 2.86182,0.81242 1.30067,0.38641 2.15924,0.54211 2.50744,0.45471 0.65245,-0.16375 1.24121,-0.8834 1.40588,-1.71843 0.0682,-0.34602 0.21766,-0.8722 0.33204,-1.16929 0.25508,-0.66252 0.8156,-0.70248 2.33927,-0.16678 2.71431,0.95433 3.24058,1.30855 6.15059,4.13988 1.55342,1.51142 3.06055,2.83782 3.34918,2.94755 0.94666,0.35992 2.18376,0.24368 2.79206,-0.26234 0.96634,-0.80385 1.28358,-0.90369 1.96327,-0.6179 0.33927,0.14265 0.67607,0.44594 0.74845,0.67398 0.27932,0.88006 -0.11628,1.60838 -1.77849,3.27434 -0.90412,0.90616 -1.77872,1.90836 -1.94356,2.22712 -0.16483,0.31876 -0.39563,1.26927 -0.51287,2.11226 -0.23433,1.68478 -0.88655,3.96014 -1.23489,4.30811 -0.16215,0.16197 -21.41533,7.31989 -34.9883,11.78381 -0.10803,0.0355 -0.54883,-0.20235 -0.97956,-0.52861 l 0,0 z"
     id="path3854"
     inkscape:connector-curvature="0" />
  <path
     style="fill:#d62828;fill-opacity:1;fill-rule:evenodd;stroke:#d62828;stroke-width:1.5;stroke-miterlimit:4;stroke-opacity:1;stroke-dasharray:none"
     d="m 223.17476,316.71171 c -0.21538,-0.3511 -0.47501,-0.93608 -0.57695,-1.29995 -0.2811,-1.00342 -0.65799,-1.3005 -2.79251,-2.20121 -1.08007,-0.45575 -2.01148,-0.953 -2.06981,-1.10498 -0.13534,-0.3527 0.47219,-1.71033 0.96489,-2.15622 0.30292,-0.27414 0.44251,-0.29523 0.70937,-0.10716 1.36948,0.96516 2.03701,1.23093 3.67784,1.46429 l 1.75242,0.24924 1.31885,1.91193 c 1.31388,1.90475 1.31724,1.91306 0.89371,2.20971 -0.23383,0.16378 -0.61967,0.29778 -0.85744,0.29778 -0.23776,0 -0.83758,0.30936 -1.33292,0.68746 -0.49535,0.37811 -0.98955,0.68747 -1.09824,0.68747 -0.10868,0 -0.37382,-0.28726 -0.58921,-0.63836 l 0,0 z"
     id="path3856"
     inkscape:connector-curvature="0" />
  <path
     style="fill:#d62828;fill-opacity:1;fill-rule:evenodd;stroke:#d62828;stroke-width:1.5;stroke-miterlimit:4;stroke-opacity:1;stroke-dasharray:none"
     d="m 230.93784,309.09145 c -0.54015,-0.0841 -1.39672,-0.16071 -1.90349,-0.17017 -0.50677,-0.009 -0.97207,-0.0992 -1.034,-0.19941 -0.0619,-0.10021 0.0962,-0.42493 0.35135,-0.72159 l 0.46396,-0.53939 1.60124,0.64546 c 0.92462,0.37271 1.60124,0.76063 1.60124,0.91801 0,0.1499 -0.0221,0.26074 -0.0491,0.2463 -0.027,-0.0144 -0.49105,-0.0951 -1.0312,-0.17921 z"
     id="path3858"
     inkscape:connector-curvature="0" />
  <path
     style="fill:#d62828;fill-opacity:1;fill-rule:evenodd;stroke:#d62828;stroke-width:1.5;stroke-miterlimit:4;stroke-opacity:1;stroke-dasharray:none"
     d="m 225.37919,305.13283 c -0.34514,-0.34514 -0.28818,-0.83442 0.14252,-1.22421 0.80998,-0.73302 1.52678,0.0376 0.91024,0.97853 -0.34606,0.52814 -0.69003,0.60842 -1.05276,0.24568 z"
     id="path3860"
     inkscape:connector-curvature="0" />
  <path
     style="fill:#d62828;fill-opacity:1;fill-rule:evenodd;stroke:#d62828;stroke-width:1.5;stroke-miterlimit:4;stroke-opacity:1;stroke-dasharray:none"
     d="m 229.67722,302.84519 c -0.27471,-0.51331 0.098,-0.81577 1.00527,-0.81577 0.8778,0 0.94057,0.21158 0.22886,0.77142 -0.63924,0.50282 -0.98216,0.51515 -1.23413,0.0444 z"
     id="path3862"
     inkscape:connector-curvature="0" />
  <path
     style="fill:#d62828;fill-opacity:1;fill-rule:evenodd;stroke:#d62828;stroke-width:1.5;stroke-miterlimit:4;stroke-opacity:1;stroke-dasharray:none"
     d="m 222.0077,298.31038 c -0.28748,-0.53716 -0.25896,-0.84905 0.22254,-2.43428 l 0.42585,-1.40205 -0.45284,-1.73572 c -0.38501,-1.47571 -0.41885,-1.8492 -0.2259,-2.49323 0.24606,-0.82129 1.13392,-1.6947 1.92439,-1.89309 0.27265,-0.0684 0.98984,-0.42196 1.59376,-0.78562 0.60391,-0.36366 1.2442,-0.6612 1.42287,-0.6612 0.4059,0 0.81264,0.4555 1.33514,1.49522 0.47789,0.95095 1.21704,1.35671 2.83164,1.55444 l 1.12941,0.1383 -0.007,1.3032 c -0.007,1.30617 -0.14441,1.71246 -0.87821,2.59627 -0.72281,0.87057 -1.02655,0.9806 -3.43654,1.24485 -2.83235,0.31056 -3.17337,0.49951 -4.02608,2.23076 -0.50026,1.01568 -0.66979,1.19831 -1.1225,1.20922 -0.33545,0.008 -0.60866,-0.12807 -0.73657,-0.36707 l 0,0 z"
     id="path3864"
     inkscape:connector-curvature="0" />
  <path
     style="fill:#d62828;fill-opacity:1;fill-rule:evenodd;stroke:#d62828;stroke-width:1.5;stroke-miterlimit:4;stroke-opacity:1;stroke-dasharray:none"
     d="m 240.90608,337.44361 c -0.6641,-0.24772 0.0244,-2.41587 0.76716,-2.41587 0.37518,0 0.40391,0.0836 0.31123,0.90588 -0.10511,0.93257 -0.63548,1.6752 -1.07839,1.50999 z"
     id="path3866"
     inkscape:connector-curvature="0" />
  <path
     style="fill:#d62828;fill-opacity:1;fill-rule:evenodd;stroke:#d62828;stroke-width:1.5;stroke-miterlimit:4;stroke-opacity:1;stroke-dasharray:none"
     d="m 421.34935,274.43218 c -0.3314,-0.86362 0.77899,-2.32431 1.68653,-2.21858 0.77535,0.0903 0.7759,0.92429 10e-4,1.80663 -0.65564,0.74673 -1.48187,0.9484 -1.68772,0.41195 l -10e-6,0 z"
     id="path3868"
     inkscape:connector-curvature="0" />
  <path
     style="fill:#d62828;fill-opacity:1;fill-rule:evenodd;stroke:#d62828;stroke-width:1.5;stroke-miterlimit:4;stroke-opacity:1;stroke-dasharray:none"
     d="m 476.97078,126.11451 c -0.91498,-0.91459 -1.53359,-1.34954 -2.30584,-1.62128 -1.03936,-0.36573 -1.06449,-0.39335 -1.65505,-1.81923 -0.32981,-0.79632 -1.15122,-2.21987 -1.82534,-3.16344 -1.00301,-1.4039 -1.28457,-1.97485 -1.54981,-3.14269 -0.35343,-1.55612 -0.81588,-2.63223 -1.57538,-3.66587 -0.65728,-0.89452 -0.63154,-1.40603 0.28738,-5.71188 0.83279,-3.90228 0.87037,-3.97598 2.21206,-4.33726 1.12302,-0.3024 1.40079,-0.87245 1.23407,-2.5326 -0.13659,-1.360153 -0.12931,-1.389693 0.78823,-3.195313 0.50936,-1.00236 0.99847,-1.9007 1.08692,-1.99631 0.3055,-0.33025 2.04331,0.29414 3.12092,1.12133 0.58773,0.45115 1.73678,1.33472 2.55344,1.96348 0.81666,0.62876 2.07876,1.58783 2.80468,2.131273 1.74106,1.3034 2.44597,2.41626 4.10839,6.48604 2.15082,5.26541 2.58131,5.95265 4.04066,6.45048 0.60226,0.20546 1.43233,1.22613 1.43233,1.76124 0,0.24902 -0.60283,0.21881 -2.10022,-0.10524 -0.52985,-0.11467 -0.70919,-0.0485 -1.15675,0.42674 -0.62112,0.65955 -1.3337,2.15134 -1.16105,2.43069 0.0713,0.11527 -0.19189,0.19415 -0.64771,0.19415 -1.02463,0 -2.08358,0.73168 -3.76562,2.60185 l -1.33661,1.4861 -0.20925,1.63888 c -0.11509,0.90137 -0.25836,2.07382 -0.31838,2.60544 -0.06,0.53161 -0.13084,0.98395 -0.15738,1.0052 -0.0265,0.0213 -0.63461,0.0835 -1.35125,0.13839 l -1.30299,0.0998 -1.25045,-1.24992 0,0 z"
     id="path3870"
     inkscape:connector-curvature="0" />
  <path
     style="fill:#d62828;fill-opacity:1;fill-rule:evenodd;stroke:#d62828;stroke-width:1.5;stroke-miterlimit:4;stroke-opacity:1;stroke-dasharray:none"
     d="m 509.13218,94.505857 c -0.17343,-0.17343 -0.31533,-0.56842 -0.31533,-0.877764 0,-1.48558 -0.68532,-2.03383 -2.82879,-2.262995 -1.32266,-0.14141 -1.38001,-0.171027 -2.35702,-1.217295 -1.18637,-1.270472 -1.46825,-1.76179 -1.77986,-3.102304 -0.12857,-0.55308 -0.56794,-1.509063 -0.97638,-2.124407 -0.6493,-0.978207 -0.72512,-1.210987 -0.60334,-1.852315 0.0766,-0.403429 0.15241,-1.227773 0.16845,-1.831875 0.045,-1.695837 0.39156,-1.921352 2.50692,-1.631409 0.801,0.109789 0.89828,0.18933 1.35324,1.106468 0.5693,1.147617 0.90023,1.394143 2.30777,1.719169 1.18985,0.274759 1.56458,0.69009 2.23196,2.473818 0.31214,0.834282 0.72775,1.44184 1.48214,2.166688 0.98755,0.94888 1.04835,1.063199 1.04835,1.971031 0,1.030957 0.29769,1.613676 1.22319,2.394421 0.29952,0.252671 0.54458,0.625246 0.54458,0.827944 0,0.582158 -1.11798,1.703325 -2.02244,2.028205 -1.44899,0.52048 -1.65365,0.54242 -1.98344,0.21262 z"
     id="path3872"
     inkscape:connector-curvature="0" />
  <path
     style="fill:#d62828;fill-opacity:1;fill-rule:evenodd;stroke:#d62828;stroke-width:1.5;stroke-miterlimit:4;stroke-opacity:1;stroke-dasharray:none"
     d="m 503.71098,63.716416 c -0.30691,-0.155271 -0.78405,-0.833199 -1.27673,-1.813976 -0.43267,-0.861326 -1.25071,-2.136144 -1.81787,-2.832929 -0.97234,-1.19457 -1.03076,-1.329103 -1.02354,-2.357022 0.007,-1.050695 -0.94449,-1.89776 -0.14731,-2.482246 0.45492,-0.333537 1.92307,0.217561 2.06224,0.264393 0.13916,0.04683 0.65842,0.892326 1.15389,1.878874 l 0.90086,1.793725 -0.51553,0.917108 c -0.28354,0.50441 -0.51553,1.046841 -0.51553,1.205404 0,0.438136 0.74571,1.293207 1.59582,1.829858 0.74138,0.468013 0.90379,0.857571 0.64198,1.539838 -0.14325,0.373301 -0.40518,0.387402 -1.05828,0.05697 z"
     id="path3874"
     inkscape:connector-curvature="0"
     sodipodi:nodetypes="csscssscssssc" />
  <path
     style="fill:#d62828;fill-opacity:1;fill-rule:evenodd;stroke:#d62828;stroke-width:1.5;stroke-miterlimit:4;stroke-opacity:1;stroke-dasharray:none"
     d="m 540.69051,103.794 c -0.63318,-0.68677 -1.30738,-3.46607 -1.75911,-7.251663 -0.0939,-0.78697 -0.0181,-1.07973 0.53376,-2.0624 0.87411,-1.556356 1.14204,-1.832693 1.77694,-1.832693 1.14405,0 1.87776,1.763423 1.67073,4.015503 -0.10266,1.11669 -0.30247,1.70025 -1.10257,3.22004 -1.03808,1.971863 -1.12883,2.393963 -0.68256,3.174643 0.31169,0.54523 0.38286,1.17851 0.13245,1.17851 -0.0892,0 -0.34553,-0.19887 -0.56964,-0.44194 l 0,0 z"
     id="path3876"
     inkscape:connector-curvature="0" />
  <path
     style="fill:#ffffff;fill-opacity:1;fill-rule:evenodd;stroke:#007a3d;stroke-width:1.5;stroke-miterlimit:4;stroke-opacity:1;stroke-dasharray:none"
     d="m 554.76588,282.36934 c -0.98029,-0.51733 -3.50506,-2.92623 -4.25733,-4.06195 -1.08993,-1.64548 -0.58277,-2.81691 1.42122,-3.28276 0.6195,-0.144 1.69884,-0.62338 2.39854,-1.06528 0.6997,-0.4419 1.43371,-0.80346 1.63113,-0.80346 0.70679,0 2.0314,1.24613 3.51486,3.30661 1.87037,2.59788 2.19818,2.97196 2.81405,3.2113 l 0.49104,0.19083 -0.63985,0.27052 c -0.67644,0.28599 -1.0297,0.92114 -1.0297,1.85135 0,0.32531 -0.12874,0.60486 -0.3107,0.67468 -0.17088,0.0656 -1.43041,0.11532 -2.79896,0.11054 -2.10008,-0.007 -2.60466,-0.0701 -3.2343,-0.40238 z"
     id="path3878"
     inkscape:connector-curvature="0" />
  <path
     style="fill:#ffffff;fill-opacity:1;fill-rule:evenodd;stroke:#007a3d;stroke-width:1.5;stroke-linecap:round;stroke-linejoin:round;stroke-miterlimit:4;stroke-opacity:1;stroke-dasharray:none;stroke-dashoffset:0"
     d="m 528.42018,290.91774 c -0.37673,-0.37672 -0.37654,-0.36526 -0.018,-1.05868 0.58295,-1.12729 2.10467,-1.82657 2.38502,-1.09599 0.17769,0.46304 -0.30618,1.63929 -0.85045,2.06742 -0.60454,0.47553 -1.09984,0.50402 -1.51661,0.0872 z"
     id="path3880"
     inkscape:connector-curvature="0" />
  <path
     style="fill:#ffffff;fill-opacity:1;fill-rule:evenodd;stroke:#007a3d;stroke-width:1.5;stroke-linecap:round;stroke-linejoin:round;stroke-miterlimit:4;stroke-opacity:1;stroke-dasharray:none;stroke-dashoffset:0"
     d="m 199.09631,406.77746 c -0.19575,-0.36348 -0.72965,-0.90064 -1.18644,-1.19369 -0.8804,-0.56481 -1.46018,-1.33897 -1.45145,-1.93805 0.003,-0.20929 0.34319,-0.5701 0.80466,-0.85358 0.96569,-0.59321 1.3935,-1.3486 1.31271,-2.31781 -0.0504,-0.60408 -0.21354,-0.83604 -0.99325,-1.41186 -0.51314,-0.37896 -0.93299,-0.83671 -0.93299,-1.01721 0,-0.18051 0.42897,-0.83089 0.95325,-1.44529 0.52429,-0.61439 1.24766,-1.61592 1.60748,-2.22561 1.32095,-2.2382 1.85958,-2.4359 3.82288,-1.40315 0.80141,0.42157 1.3934,0.58926 2.08023,0.58926 1.11178,0 2.78271,-0.58029 3.43473,-1.19283 0.62737,-0.58939 1.92217,-0.69723 3.34421,-0.27854 2.09137,0.61578 4.07701,0.37904 4.99227,-0.59522 0.52427,-0.55806 0.74862,-2.21611 0.41617,-3.07579 -0.11199,-0.2896 -0.67217,-0.87476 -1.24485,-1.30037 -0.85478,-0.63526 -1.12133,-0.98448 -1.48852,-1.95023 -0.57432,-1.51051 -1.97316,-3.06086 -4.76602,-5.28228 -1.36865,-1.08861 -2.15239,-1.84646 -2.15239,-2.08128 0,-0.20311 0.14142,-0.64277 0.31427,-0.97702 0.17285,-0.33426 0.31427,-0.92614 0.31427,-1.31531 0,-0.58465 -0.1399,-0.82806 -0.80531,-1.40116 -0.57852,-0.49825 -0.80532,-0.84532 -0.80532,-1.23237 l 0,-0.53879 0.80159,0.40894 c 1.00128,0.51082 1.75398,0.3777 2.43401,-0.43047 0.78335,-0.93095 -0.47286,-3.78107 -1.40506,-4.77652 -0.37032,-0.39546 -1.8537,-4.85607 15.38989,-10.60268 9.50893,-3.16895 19.97519,-0.29773 20.03304,-0.23989 0.0578,0.0578 -0.87301,2.12195 -2.06858,4.58688 -2.44904,5.04929 -2.60655,5.63696 -2.09621,7.82082 0.58228,2.49166 2.42799,11.95801 2.56589,13.16004 0.17696,1.54243 0.43578,1.91028 1.96159,2.78784 1.78506,1.02668 1.6865,1.61404 -0.4516,2.69137 -2.31871,1.16833 -6.07117,3.7694 -6.60538,4.5786 -0.73543,1.11401 -0.92631,2.40708 -0.86077,5.83124 0.0564,2.94719 0.0417,3.08703 -0.33384,3.17216 -0.21606,0.049 -5.68168,0.96742 -12.14583,2.04099 l -11.753,1.95194 -0.58843,-0.67017 c -0.72423,-0.82486 -1.5548,-1.07336 -2.88481,-0.86312 -1.14996,0.18179 -1.89258,0.64168 -2.65925,1.64684 -0.6762,0.88655 -1.02968,1.06617 -2.52672,1.28397 -0.67427,0.0981 -1.85488,0.30029 -2.62358,0.44932 l -1.39764,0.27096 z"
     id="path3882"
     inkscape:connector-curvature="0"
     sodipodi:nodetypes="cscscsscssssssssssscscscsscscssssssscsccsssscc" />
  <path
     style="fill:#007a3d;fill-opacity:1;fill-rule:evenodd;stroke:#007a3d;stroke-width:1.5;stroke-linecap:round;stroke-linejoin:round;stroke-miterlimit:4;stroke-opacity:1;stroke-dasharray:none;stroke-dashoffset:0"
     d="m 238.17721,439.66972 c -0.20788,-0.24307 -0.59302,-0.86912 -0.85585,-1.39123 -0.59071,-1.17341 -1.73817,-2.12613 -3.15262,-2.61757 -0.98335,-0.34166 -1.10492,-0.45056 -1.39736,-1.25175 -0.42635,-1.16802 -1.16617,-1.64138 -3.05808,-1.95664 -2.31418,-0.38562 -2.89332,-0.744 -3.40769,-2.10873 -0.36931,-0.97986 -0.4095,-1.36394 -0.29675,-2.83573 0.14975,-1.95469 0.004,-2.38216 -1.20616,-3.52861 -0.99823,-0.94597 -1.26931,-1.06781 -3.18353,-1.43093 -2.30317,-0.43691 -2.36915,-0.51319 -1.39939,-1.61768 0.61564,-0.70118 0.72491,-1.21549 0.39085,-1.83968 -0.21649,-0.40453 -3.00495,-1.97667 -4.14816,-2.33875 -0.92766,-0.29382 -1.27613,-0.7113 -1.44289,-1.72865 -0.18245,-1.11307 -0.8268,-2.01925 -1.82936,-2.57273 -1.11238,-0.61411 -1.10966,-1.12132 0.008,-1.42117 0.45913,-0.12322 1.03542,-0.30246 1.28066,-0.39831 1.18331,-0.46248 0.81604,-2.38594 -0.60541,-3.17069 -0.76082,-0.42004 -1.82683,-1.66755 -1.61012,-1.88426 0.19965,-0.19965 24.16326,-4.11045 24.22281,-3.9531 0.0338,0.0893 0.36525,0.56025 0.73657,1.04655 0.63056,0.82582 0.67512,0.98138 0.67512,2.35676 0,1.34739 0.0459,1.5175 0.54015,2.00103 0.29708,0.29065 0.9379,0.67385 1.42404,0.85155 0.82739,0.30245 0.88732,0.37302 0.93772,1.10435 0.10112,1.46746 0.43344,2.64995 0.97563,3.4716 l 0.54188,0.82119 0,5.60992 c 0,5.00568 0.0376,5.67878 0.34921,6.24913 0.56484,1.0339 1.71652,1.65122 3.93251,2.10788 0.41706,0.0859 0.63874,0.32086 0.91834,0.97314 0.42532,0.99224 0.84059,1.18807 2.11435,0.99705 0.64748,-0.0971 0.93748,-0.062 1.05789,0.12792 0.26385,0.41622 0.19829,1.27199 -0.11753,1.5341 -0.42283,0.35092 -0.58039,1.50232 -0.3231,2.3611 0.12319,0.41115 0.59413,1.30186 1.04655,1.97936 0.67578,1.01199 0.83735,1.43614 0.90539,2.3767 0.13951,1.92875 -0.74896,2.37725 -1.65308,0.83447 -0.9854,-1.68144 -2.77868,-2.39842 -4.89261,-1.95613 -0.81246,0.16999 -1.51976,0.20096 -2.08702,0.0914 -2.22209,-0.42923 -2.80038,-0.0284 -2.81446,1.95089 -0.007,0.96627 -0.0653,1.12366 -0.49884,1.34345 -0.77437,0.39261 -1.64878,0.31381 -2.07726,-0.18719 l 0,0 z"
     id="path3884"
     inkscape:connector-curvature="0" />
  <path
     style="fill:#007a3d;fill-opacity:1;fill-rule:evenodd;stroke:#007a3d;stroke-width:1.5;stroke-linecap:round;stroke-linejoin:round;stroke-miterlimit:4;stroke-opacity:1;stroke-dasharray:none;stroke-dashoffset:0"
     d="m 200.192,410.26896 c -0.11183,-0.20896 -0.20333,-0.59352 -0.20333,-0.85458 0,-0.26105 -0.0986,-0.75751 -0.21913,-1.10324 -0.12052,-0.34572 -0.18681,-0.65828 -0.14731,-0.69456 0.0395,-0.0363 0.51375,-0.12489 1.05391,-0.19689 l 0.98209,-0.13092 0,1.43453 c 0,0.78899 -0.0715,1.54502 -0.15891,1.68006 -0.24507,0.37865 -1.0786,0.29296 -1.30732,-0.1344 z"
     id="path3886"
     inkscape:connector-curvature="0" />
  <path
     inkscape:connector-curvature="0"
     id="path3888"
     d="m 208.15582,367.42349 c -1.47639,-1.11834 -3.75784,-2.34371 -4.36362,-2.34371 -0.79838,0 -1.54029,0.62232 -2.13054,1.78714 -0.26832,0.52949 -0.56393,0.96272 -0.65691,0.96272 -0.47516,0 -0.69826,-0.72249 -0.71314,-2.30937 -0.015,-1.60471 -0.039,-1.69126 -0.58918,-2.12997 -0.56892,-0.45365 -1.98083,-0.86149 -3.00019,-0.86665 -1.15795,-0.006 -1.36187,-0.16757 -1.45678,-1.1553 -0.11413,-1.18774 -0.8664,-2.6945 -1.63978,-3.28438 -0.33206,-0.25328 -1.19078,-0.72668 -1.90827,-1.052 -1.64802,-0.74725 -1.78137,-0.98787 -1.4981,-2.70315 0.28217,-1.70857 -0.0375,-2.6301 -1.08577,-3.12998 -0.8981,-0.42827 -1.02458,-0.8777 -0.51963,-1.84646 1.01218,-1.94191 0.14046,-2.99199 -2.45143,-2.95303 -1.35152,0.0203 -1.45774,-0.0102 -1.88858,-0.54213 -1.14195,-1.40996 -2.51994,-1.55504 -4.2942,-0.45209 l -0.96906,0.6024 -0.93574,-0.41428 c -0.96949,-0.42921 -1.21317,-0.42066 -4.07844,0.14304 -0.50446,0.0992 -0.8395,-0.0693 -2.32812,-1.17152 -0.95638,-0.7081 -1.85102,-1.28745 -1.98809,-1.28745 -0.34806,0 -3.1258,-1.83487 -4.42442,-2.9226 -0.59416,-0.49767 -1.61719,-1.52419 -2.27338,-2.28114 -1.20953,-1.39525 -2.11873,-2.186 -4.47944,-3.89584 -0.94391,-0.68367 -1.4439,-1.21414 -1.79217,-1.90141 -0.77686,-1.53307 -1.54171,-1.84316 -3.33833,-1.35346 -1.09016,0.29715 -1.60733,0.84401 -1.96646,2.07937 -0.2335,0.8032 -0.4277,1.10459 -0.80394,1.24764 -0.98751,0.37545 -1.22175,0.25331 -1.53461,-0.80021 -0.1615,-0.54384 -0.47314,-1.2409 -0.69254,-1.54901 -0.45607,-0.64049 -1.67834,-1.19413 -2.63631,-1.19413 -1.28602,0 -1.55243,-1.14158 -0.43697,-1.87246 0.53023,-0.34742 0.45606,-0.36645 2.14993,0.55149 0.78526,0.42555 1.56968,0.12192 1.99375,-0.77175 0.57602,-1.21386 0.21476,-1.78647 -2.35824,-3.73791 l -1.17851,-0.89382 -1.31447,0.12163 c -1.19771,0.11084 -1.34086,0.084 -1.61158,-0.30255 -0.29063,-0.41493 0.25327,-0.83705 24.88469,-19.31346 l 25.18181,-18.88926 0.11996,0.70248 c 0.15156,0.88743 0.89343,4.59246 1.28049,6.39491 l 0.29445,1.37122 -0.79912,1.52643 c -0.90425,1.72723 -1.26167,3.53589 -1.06694,5.39903 0.11356,1.08651 0.0856,1.18663 -0.57121,2.04713 -1.33159,1.74448 -1.42165,2.25749 -0.54946,3.12968 0.53189,0.53189 0.68191,0.57415 2.03834,0.57415 1.04231,0 1.5326,0.0824 1.70158,0.28602 0.33282,0.40102 0.0851,0.69607 -0.58447,0.69607 -0.75801,0 -1.53582,0.37173 -1.67136,0.79878 -0.30166,0.95042 0.54732,2.02893 1.77901,2.26 0.79876,0.14984 1.16961,0.53669 1.55114,1.61807 0.55191,1.56427 2.71767,4.37977 7.24131,9.41371 1.57631,1.75414 3.52307,4.01467 4.32613,5.0234 1.65874,2.08355 2.66176,2.68436 4.62873,2.77261 0.60598,0.0272 1.25661,0.0636 1.44584,0.0809 0.18924,0.0173 0.66143,0.4732 1.04933,1.01312 0.46448,0.64652 1.28588,1.36589 2.4058,2.10697 1.0971,0.72597 2.57178,2.01054 4.15577,3.62002 2.09532,2.12904 2.58479,2.52769 3.33911,2.71955 0.48614,0.12364 1.77395,0.48923 2.86182,0.81242 1.30067,0.38641 2.15924,0.54211 2.50744,0.45471 0.65245,-0.16375 1.24121,-0.8834 1.40588,-1.71843 0.0682,-0.34602 0.21766,-0.8722 0.33204,-1.16929 0.25508,-0.66252 0.8156,-0.70248 2.33927,-0.16678 2.71431,0.95433 3.24058,1.30855 6.15059,4.13988 1.55342,1.51142 3.06055,2.83782 3.34918,2.94755 0.94666,0.35992 2.18376,0.24368 2.79206,-0.26234 0.96634,-0.80385 1.28358,-0.90369 1.96327,-0.6179 0.33927,0.14265 0.67607,0.44594 0.74845,0.67398 0.27932,0.88006 -0.11628,1.60838 -1.77849,3.27434 -0.90412,0.90616 -1.77872,1.90836 -1.94356,2.22712 -0.16483,0.31876 -0.39563,1.26927 -0.51287,2.11226 -0.23433,1.68478 -0.88655,3.96014 -1.23489,4.30811 -0.16215,0.16197 -21.41533,7.31989 -34.9883,11.78381 -0.10803,0.0355 -0.54883,-0.20235 -0.97956,-0.52861 l 0,0 z"
     style="fill:#d62828;fill-opacity:1;fill-rule:evenodd;stroke:#d62828;stroke-width:1.5;stroke-miterlimit:4;stroke-opacity:1;stroke-dasharray:none" />
</svg>
