<?xml version="1.0" encoding="UTF-8" standalone="no"?>
<svg
   xmlns:dc="http://purl.org/dc/elements/1.1/"
   xmlns:cc="http://creativecommons.org/ns#"
   xmlns:rdf="http://www.w3.org/1999/02/22-rdf-syntax-ns#"
   xmlns:svg="http://www.w3.org/2000/svg"
   xmlns="http://www.w3.org/2000/svg"
   xmlns:sodipodi="http://sodipodi.sourceforge.net/DTD/sodipodi-0.dtd"
   xmlns:inkscape="http://www.inkscape.org/namespaces/inkscape"
   width="985.14355"
   height="999.53912"
   id="svg2"
   version="1.1"
   inkscape:version="0.91 r13725"
   sodipodi:docname="Flag-map_of_Sierra_Leone.svg">
  <metadata
     id="metadata14">
    <rdf:RDF>
      <cc:Work
         rdf:about="">
        <dc:format>image/svg+xml</dc:format>
        <dc:type
           rdf:resource="http://purl.org/dc/dcmitype/StillImage" />
        <dc:title></dc:title>
      </cc:Work>
    </rdf:RDF>
  </metadata>
  <defs
     id="defs12">
    <inkscape:perspective
       sodipodi:type="inkscape:persp3d"
       inkscape:vp_x="0 : 150 : 1"
       inkscape:vp_y="0 : 1000 : 0"
       inkscape:vp_z="450 : 150 : 1"
       inkscape:persp3d-origin="225 : 100 : 1"
       id="perspective16" />
    <inkscape:perspective
       id="perspective3790"
       inkscape:persp3d-origin="0.5 : 0.33333333 : 1"
       inkscape:vp_z="1 : 0.5 : 1"
       inkscape:vp_y="0 : 1000 : 0"
       inkscape:vp_x="0 : 0.5 : 1"
       sodipodi:type="inkscape:persp3d" />
    <inkscape:perspective
       id="perspective2824"
       inkscape:persp3d-origin="0.5 : 0.33333333 : 1"
       inkscape:vp_z="1 : 0.5 : 1"
       inkscape:vp_y="0 : 1000 : 0"
       inkscape:vp_x="0 : 0.5 : 1"
       sodipodi:type="inkscape:persp3d" />
    <inkscape:perspective
       id="perspective2837"
       inkscape:persp3d-origin="0.5 : 0.33333333 : 1"
       inkscape:vp_z="1 : 0.5 : 1"
       inkscape:vp_y="0 : 1000 : 0"
       inkscape:vp_x="0 : 0.5 : 1"
       sodipodi:type="inkscape:persp3d" />
    <inkscape:perspective
       id="perspective2825"
       inkscape:persp3d-origin="0.5 : 0.33333333 : 1"
       inkscape:vp_z="1 : 0.5 : 1"
       inkscape:vp_y="0 : 1000 : 0"
       inkscape:vp_x="0 : 0.5 : 1"
       sodipodi:type="inkscape:persp3d" />
    <inkscape:perspective
       id="perspective2838"
       inkscape:persp3d-origin="0.5 : 0.33333333 : 1"
       inkscape:vp_z="1 : 0.5 : 1"
       inkscape:vp_y="0 : 1000 : 0"
       inkscape:vp_x="0 : 0.5 : 1"
       sodipodi:type="inkscape:persp3d" />
  </defs>
  <sodipodi:namedview
     pagecolor="#ffffff"
     bordercolor="#666666"
     borderopacity="1"
     objecttolerance="10"
     gridtolerance="10"
     guidetolerance="10"
     inkscape:pageopacity="0"
     inkscape:pageshadow="2"
     inkscape:window-width="1600"
     inkscape:window-height="837"
     id="namedview10"
     showgrid="false"
     inkscape:zoom="0.97470288"
     inkscape:cx="607.08313"
     inkscape:cy="560.82691"
     inkscape:window-x="-8"
     inkscape:window-y="-8"
     inkscape:window-maximized="1"
     inkscape:current-layer="svg2"
     fit-margin-top="0"
     fit-margin-left="0"
     fit-margin-right="0"
     fit-margin-bottom="0" />
  <path
     style="fill:#0072c6"
     d="m 128.99027,673.57006 -0.95685,0.74422 -1.59477,1.27581 -10.4191,3.40215 7.01695,6.59168 2.4453,5.20955 2.02003,2.12635 4.04006,-0.53159 3.0832,1.70108 1.70108,1.59476 1.8074,1.70108 4.99691,6.06009 3.82743,5.31587 10.20647,7.3359 3.93374,1.59476 3.61479,0.53159 0.53159,0.6379 1.70108,-2.33898 2.55161,-3.82743 4.57165,-2.23266 5.74114,-1.8074 3.72111,0.95686 3.82742,-0.53159 4.78428,-0.10615 3.50848,1.70108 -2.12635,0.42527 -4.57165,-0.74422 -3.82742,0.53159 -2.23267,1.06317 -1.59476,-0.10649 -2.97688,-1.27581 -4.2527,3.29584 -0.6379,-0.21263 -1.27581,0.6379 -1.8074,1.59476 1.70108,9.03698 -0.31878,1.16949 1.70108,2.12635 1.06317,1.38213 1.70108,0.95685 1.59476,3.08321 2.97689,1.2758 0.85053,-0.31878 0.74423,-1.38212 0.74422,0.10614 1.91371,3.50848 2.02003,1.70108 1.91371,3.0832 3.93375,1.27581 4.14637,4.78428 1.1695,0.42527 1.70107,-0.10615 3.50848,-1.59476 0.42527,-0.21263 4.04006,-0.31878 8.39907,3.29583 2.4453,0.42527 3.0832,1.06318 1.59476,0.10614 3.82743,-3.40215 0.85054,-1.59476 1.48844,-1.59476 0.10615,3.0832 -2.33898,1.8074 -0.74422,1.59476 1.59476,2.02003 7.9738,0.95685 1.59476,-0.53158 1.27581,-1.16949 1.48844,-0.53159 4.35901,-4.14638 8.93066,-5.84746 0.74423,-0.74422 0.6379,-0.74422 5.63482,-3.0832 4.78428,-3.82743 2.76425,-3.82742 2.23267,-6.27273 1.48844,-0.53159 0.63791,1.59477 1.16949,1.06317 0.10615,0.10615 -2.12635,6.06009 1.06317,1.06317 0.85054,2.12635 -0.10615,1.91371 -1.06317,2.4453 -2.33898,-3.93374 -0.85054,-0.53159 -1.27581,1.16949 -4.14638,4.99692 -2.76425,6.27272 -0.6379,2.55162 -1.48845,2.12635 -1.91371,1.27581 -4.99692,0.42527 -2.12634,2.33898 -0.53159,2.55162 0.10615,0.21263 0.6379,1.8074 2.55162,3.7211 5.10323,2.33899 2.12635,2.4453 2.12635,0.95685 1.59476,-1.91371 0.42527,-1.59476 4.78428,-2.4453 0.31878,-0.53159 5.63482,-2.4453 0.53159,-1.06317 0.74422,-0.53159 0.74422,0 1.38213,-1.48844 0.42527,-1.59476 0.53158,-0.21264 0.63791,2.33899 -0.85054,1.48844 -11.58859,7.22958 -1.06318,0.95686 -0.31878,1.70108 0.6379,1.80739 1.48845,1.48844 4.67796,3.93375 1.06318,2.4453 1.16949,5.63482 0.42527,1.48844 1.06317,2.76425 -0.74422,2.87057 0.6379,2.87057 1.16949,1.16949 1.27581,0.21264 1.59476,-0.42527 2.4453,0.42527 5.63482,-0.31878 8.93066,2.33898 1.59476,-1.38213 -0.42526,-1.59476 -4.57165,0.63791 -1.59476,-0.74423 -0.42527,-0.21263 -0.10615,-0.74422 2.55162,0.21263 2.4453,-0.6379 0.42527,-0.74422 1.48844,0.42527 0.85054,0.95685 1.06317,4.8906 1.48845,0.85054 2.02003,0 1.06317,1.06317 0.95686,0 1.06317,-0.85053 0.74422,-1.70108 0,-2.87057 0.53159,-1.48844 0.85054,-0.63791 1.70108,0.21264 1.06317,1.38212 2.12635,0.42527 2.76425,1.8074 1.70108,1.59476 2.97688,4.14637 0.85054,0.63791 4.57165,0.31878 0.74422,0.63791 -1.38212,0.95685 -2.4453,0.31878 -1.70108,-0.6379 -2.12635,-1.91371 -1.91371,-2.65794 -2.12635,-1.91371 -3.29584,-1.8074 -1.06317,0.21264 -2.23267,4.57165 -2.12634,0.95685 -4.35902,0.21264 -2.65793,-0.95686 -6.16641,2.23267 -2.02003,-0.10615 -3.93374,-0.10615 -8.61171,6.91046 -0.95686,1.59476 -0.95685,2.97689 -3.29584,5.63482 -4.8906,7.12326 -0.53159,2.12635 0.95686,1.16949 1.91371,1.06318 0.21264,0.10614 3.50847,4.2527 1.91371,0.95685 2.02003,0.10615 3.72111,-1.38212 4.46533,-0.53159 4.46533,-0.53159 2.02003,0.74422 4.8906,3.40216 3.0832,3.29584 5.10324,2.4453 0.42527,0.21263 4.25269,3.82743 4.04006,3.29584 1.59476,0 3.72111,-2.23267 1.70108,-0.85054 2.55162,-0.31878 1.91371,0.63791 1.16949,1.16949 -0.10615,0.85054 -2.87057,-0.95686 -8.29275,2.97689 -1.59493,-0.21264 -7.12327,-4.04006 -6.59167,-2.33898 -9.24962,-4.78428 -0.53158,-0.31879 -1.48845,-0.10614 -1.80739,-0.21264 -2.76425,0.31878 0.85054,-1.59476 -0.85054,-0.6379 -2.12635,0.10615 -1.8074,0.53158 0,2.12635 -11.26964,0.95686 -1.27581,0.95685 -6.59167,4.46533 -2.97689,0.21264 -2.12635,0.74422 0.85054,0.6379 9.46225,1.06318 4.46533,0.85054 13.5023,2.4453 5.84746,1.48844 20.30662,6.91063 3.29584,1.16949 12.43913,4.2527 22.6456,9.14329 5.20955,2.02003 5.63483,1.59476 6.06009,2.87057 16.58551,5.95377 4.8906,2.12635 8.50539,3.82743 29.66255,11.48227 11.90754,4.57165 2.87057,1.16949 23.28351,9.88752 5.42218,2.33898 21.15716,9.99383 10.52542,5.31587 9.24961,4.78429 26.15408,15.52233 0.21263,0.10615 4.8906,3.29584 3.40216,3.82742 4.99692,6.16641 3.82742,4.67797 1.38213,0.31878 2.65793,-1.70108 5.74114,-0.95686 2.76425,-1.48844 2.23267,1.8074 -6.48536,6.16641 -1.48845,1.06317 -1.70107,-0.21264 0,0.63791 12.33281,4.25269 -2.23266,-0.21263 6.16641,1.38212 5.84745,2.76426 5.74114,2.76425 6.16641,2.12635 4.25269,-0.21264 3.29584,0.95686 2.87057,-0.74422 4.14638,-3.93375 4.14638,-0.6379 2.55161,0.42527 1.59476,-1.48845 -2.33898,-4.14637 -0.6379,-2.4453 3.18952,-2.33898 1.16949,-1.8074 0.31878,-2.97689 0.31878,0 3.93375,0.42527 1.06317,-1.16949 1.48844,-4.57165 1.59476,-0.85053 2.4453,-0.21264 2.87057,-3.29584 0.10615,-3.18952 1.70108,-6.80431 -0.63791,-1.48845 -2.76425,-2.97688 -0.10614,-1.59476 0.95685,-1.59476 1.16949,-0.85054 0.42527,-0.31878 0.53159,-0.21264 1.59476,-0.42527 8.50539,1.06318 0.53159,-4.78429 0.53158,-1.48844 -1.70107,-7.86749 0.10682,-1.38178 -3.40215,-2.76425 -2.02003,-3.29584 1.48844,-1.38213 1.70108,0 2.4453,1.06318 1.16949,-0.21264 0.6379,-1.80739 -1.16949,-2.33899 0.85054,-1.48844 3.40216,-1.70108 0.53158,-3.40215 1.70108,-2.33899 -0.31878,-1.91371 1.06317,-2.33898 -0.74422,-2.23267 -0.95685,-1.27581 1.59476,-2.23266 1.38212,0.42527 0.95686,1.27581 2.02003,0.10614 0.95686,1.1695 -2.02003,2.4453 0.95685,0.6379 1.16949,-0.21263 1.59476,-1.8074 0.63791,-4.14638 2.12635,-3.82742 1.70107,-2.02003 1.48845,-0.31879 2.02003,0.74423 2.33898,0.10614 1.8074,-1.48844 1.70107,-1.27581 2.87057,-0.10615 1.06318,-1.2758 2.76425,-0.21264 1.27581,-1.27581 2.76425,0.74422 4.04006,-1.16949 3.50847,-2.4453 2.65794,-0.21263 0.95685,-0.85054 0.31879,-0.74422 -1.27581,-2.76425 1.59476,-2.4453 -0.10615,-2.55162 1.70108,-2.23267 -0.21264,-0.95685 0.74423,-1.27581 4.04006,-1.38213 2.87056,-3.61479 2.23267,-0.95685 0.21263,-4.57165 0.95686,-2.02003 3.72111,-4.04006 1.59476,-3.18952 0.85054,-0.53159 2.4453,-1.70108 3.18952,-3.18952 1.91371,-3.18952 1.70108,0.21263 4.04006,-0.95685 3.29584,-1.91372 3.0832,-1.06317 0.31879,-0.10615 4.04006,-3.29584 2.12634,-3.29583 2.12635,-0.95686 0.53159,-2.23267 2.4453,-0.53158 0.74422,-0.85054 3.93374,-1.8074 1.48845,-2.23266 8.50539,-6.80431 1.38212,-1.27581 -0.53158,-1.59476 0.42527,-0.31879 3.18952,-2.02003 3.7211,-3.50847 4.57165,-2.02003 1.27581,-1.91371 0.95686,-0.21264 0.6379,0.42527 1.8074,3.08321 1.80739,-0.10615 2.33898,-2.4453 1.91372,-0.31878 1.91371,-1.06318 3.50847,-3.50847 4.99692,-2.12635 0.10615,-0.10615 0.95685,-0.42526 5.635,-3.50933 2.44529,-2.12635 1.06318,-2.12634 1.48844,-1.38213 0.31878,-2.02003 3.72111,-0.10615 2.02003,-3.29584 -1.27581,-1.70107 1.70108,-1.70108 0.74422,-1.8074 0.21264,-0.6379 5.84745,-0.10615 1.06318,-1.27581 0.21263,-1.59476 1.06318,-6.37904 1.80739,-2.65794 3.72111,-4.89059 1.59476,-0.53159 5.84746,-5.20955 2.4453,-4.2527 2.97688,-2.4453 2.02003,-2.65793 1.70108,-3.18952 0.31878,-0.63791 4.14638,-3.40215 3.18952,-5.74114 2.87057,-2.97689 7.12327,-3.0832 1.59476,-1.48845 0.85054,-1.91371 1.16949,-0.74422 3.50847,-0.31878 4.14638,-1.16949 8.08012,-1.27581 0.10615,-40.93219 0,-11.37596 -719.34339,0 4.78428,2.55161 -2.23283,0.53159 -2.02003,-0.74422 -4.14638,-2.33898 -28.38674,0 z m 131.19565,70.06315 -3.72111,1.80739 -3.82743,3.40216 -0.42527,1.38213 0.74423,1.16949 2.12634,-0.42527 3.72111,-1.59476 0.85054,-1.59476 0.85054,-3.50848 -0.31878,-0.6379 z m -176.486848,13.18335 -2.02003,0.31879 -1.807395,1.16949 0.318782,1.38212 4.571647,-1.70107 0,-0.53159 -1.063174,-0.63791 z m 10.95069,4.46533 -2.976886,2.65794 -1.382126,0.42527 -1.488444,2.02003 -0.850539,0.10615 -2.232665,1.70107 -0.850539,0.10615 -1.59476,-0.85054 -0.318782,0.74422 0.318782,2.02003 0.637904,1.1695 3.721108,1.70107 2.657935,1.27581 -1.169491,-4.14638 0.425269,-2.12634 2.764252,-3.40216 4.571647,-1.70108 -0.744221,-1.16949 -1.382126,-0.53159 -0.106148,0 z m 153.841248,0.95686 -1.1695,0.21264 0.31879,2.55161 2.23266,4.2527 2.12635,2.4453 4.78428,1.70108 1.27581,-0.63791 -0.42527,-3.40216 -3.72111,-2.87056 -1.16949,-0.10615 -4.25269,-4.14638 z m -143.20951,5.42219 -2.23267,1.80739 -0.21263,1.06318 0.31878,0.42527 1.59476,0.53158 2.02003,-2.23266 -0.6379,-1.27581 -0.74423,-0.31878 -0.10614,0 z m 118.01229,0.21263 -10.41911,1.8074 -7.65485,-0.85054 -3.61479,0.53158 -2.87057,2.23267 -1.16949,-0.21264 -4.57165,2.02004 -0.74422,-0.95686 -1.91371,-0.21264 -6.91063,0.95686 -12.75809,-1.70108 -3.82742,1.38213 -1.59476,1.80739 -2.02003,0 -1.48845,-1.06317 -1.91371,0.21263 -4.25269,2.44531 -1.06318,-0.21264 -4.35901,-0.6379 -4.8906,0.10614 -13.18335,5.31587 -2.55162,3.29584 0.42527,0.42527 1.80739,1.59476 3.40216,0.74422 1.48844,2.55162 -3.82742,-1.06317 -5.31587,0.53158 -6.91063,-0.85054 -3.29584,2.4453 1.16949,0.53159 4.57165,0.21264 13.60862,2.65793 1.06318,0.21263 19.03081,4.78429 5.5285,2.02003 10.4191,2.65793 4.57165,1.70108 2.02003,0.6379 4.57165,0.63791 7.22958,1.91371 13.07704,4.35901 12.2265,4.78429 13.60862,5.31586 6.59168,3.93375 3.29584,2.55161 2.55161,3.50848 1.91372,3.93374 0.10614,2.97689 -0.42526,2.87057 -0.21264,1.16949 -0.74422,1.59476 -1.8074,-2.33898 0.74422,3.93374 0.42527,1.38212 4.8906,1.06318 4.67797,-0.10615 3.29584,-0.95686 0.31878,-3.0832 -0.31878,-0.95686 -0.74422,-2.12634 -0.42527,-3.50848 0.42527,-6.69799 0.31878,-4.35901 1.06317,-3.50848 4.99692,-5.74114 3.29584,-2.65793 1.59476,-2.87057 0.6379,-2.4453 -1.06317,-2.55162 0.31878,-2.02003 -0.53159,-2.76425 -4.99691,-5.74114 -0.10615,-0.21263 -0.63791,-2.12635 -2.55161,-0.6379 -1.8074,1.59476 -1.16949,-0.10615 -2.12635,3.82743 -0.6379,0.6379 -2.55162,0.85054 -0.85054,1.70108 -0.74422,-0.53159 -0.42527,-1.8074 0.63791,-3.29583 1.06317,0 0.95686,0.95685 1.70107,-0.10615 1.38213,-2.4453 1.8074,-1.80739 3.29583,-1.06317 2.02003,0.53158 2.87057,3.93375 0.95686,0.31878 1.59476,-1.16949 2.55162,-4.46533 -0.53159,-1.48845 -2.33898,-2.33898 0.21263,-0.53159 -2.02003,-2.12634 -3.7211,-2.87057 -3.6148,-2.76425 -1.2758,0.10614 -3.93375,-2.12634 -4.35901,-0.74423 -3.93374,0.31879 -4.35902,2.23266 -2.02003,4.46533 0.74423,0.95686 1.38212,0.21263 0.31878,0.53159 -1.91371,0.10615 -1.06317,-0.53159 -0.42527,-1.48844 1.59476,-3.72111 -0.53159,-1.16949 -0.74422,-0.10615 -0.42527,0.42527 -0.42527,2.33898 -1.48844,1.38213 -0.85054,0.10614 -2.02003,-2.4453 -0.53159,0.74423 -1.59476,-0.10615 -0.10615,-1.70108 0.42527,-1.27581 1.48845,-0.10615 1.59476,2.55162 1.48844,0.95686 0.42527,-0.10615 0.21264,-2.23266 2.23266,-2.12635 2.65793,-1.70108 2.65794,-0.95686 -0.31878,-1.16949 -3.82743,-4.35901 -3.61479,-0.31878 -9.46225,-0.95686 -0.10614,0 z m 44.33434,6.698 -3.0832,0.31878 -1.06317,0.53159 0.31878,0.74422 7.12326,3.82742 0.74422,-2.33898 -0.10614,0 -1.27581,-1.91371 -2.65794,-1.16949 z m -167.55619,5.10323 -0.85053,0.53159 -0.106148,2.76425 1.701078,-0.21264 0.74422,-0.85053 0.53158,-1.27581 -0.53158,-0.74422 -1.48845,-0.21264 z m 171.48994,1.91371 -1.27581,1.59476 1.70108,2.87057 0.6379,0.21264 0.53159,-1.06318 -0.74422,-2.55161 -0.85054,-1.06318 z m -168.832,1.38213 -3.50847,1.80739 0.85053,0.31879 2.23267,-0.21264 0.53159,-0.6379 -0.10615,-1.27581 z m 4.67796,0.95686 -0.42527,1.48844 -1.70107,1.06317 -0.85054,-1.91371 -2.23267,2.23266 10.10015,4.78429 1.91372,-3.40216 -0.95686,-3.50847 -5.84746,-0.74422 z m 163.72877,13.5023 -0.10615,1.38213 3.0832,5.95377 1.48845,1.27581 1.27581,-0.10615 1.91371,-3.18952 -0.42527,-2.76425 -7.22958,-2.55162 z m -3.50848,1.06318 -0.95685,1.06317 -0.31879,2.23267 0.53159,1.16949 0.95686,-0.10615 0.42527,-3.61479 -0.63791,-0.74422 z m 0.95686,4.25269 -0.21264,0.74422 0.85054,1.8074 1.1695,1.48844 0.85053,0.21264 0.10615,-0.85054 -1.59476,-3.18952 -1.16949,-0.21264 z m -1.48844,4.57165 0.21263,6.48536 0.85054,-0.95686 0.74422,-2.87057 -1.70108,-2.65793 -0.10614,0 z m 1.48844,23.70877 -0.74422,1.1695 0.42527,1.38212 1.16949,1.38213 2.33898,0.42527 0.21264,-0.63791 -0.53159,-0.95685 -0.63791,-0.31879 -0.74422,-1.2758 -1.48844,-1.1695 z m 20.73189,5.95378 -1.16949,1.06317 1.48844,0.74422 1.91371,0.10615 0.42527,1.8074 1.48845,0.42527 1.59476,0.42527 6.48536,3.50847 5.31587,2.33898 0.74422,0 0.74422,-0.10615 -1.38213,-1.70107 -5.31587,-1.48845 -2.12634,-2.87057 -6.59168,-4.25269 -3.61479,0 z m 276.95677,142.89055 -1.59476,0.10615 -1.91371,1.06318 -0.21264,0.85054 1.59476,0.53158 1.06318,-0.74422 1.06317,-1.8074 z m 11.58859,13.50231 0.31879,0.53159 10.63173,5.63482 1.38213,-0.21263 -1.59476,-2.02003 -7.3359,-3.08321 -3.40216,-0.85054 z"
     id="rect8"
     inkscape:connector-curvature="0" />
  <path
     style="fill:#ffffff;stroke:#0072c6;stroke-width:1.79999995;stroke-miterlimit:4;stroke-dasharray:none;stroke-opacity:1"
     d="m 5.4494821,333.35445 -0.7442217,2.87056 -0.1063173,4.46533 1.0631737,1.70108 2.7642519,0.42527 4.2526943,0.74422 1.275809,-0.74422 1.913713,-2.23266 2.232665,0.31878 2.445299,2.55162 0.850539,1.48844 0.531587,-0.10615 1.063174,-1.38212 1.275809,1.16949 2.232665,0.95685 1.913712,1.27581 6.804313,4.78428 0.637904,0.74423 0.318952,1.38212 2.232665,2.33898 3.933743,1.06318 1.382126,-0.21264 2.551617,0.53159 1.063174,1.27581 2.764252,4.46533 -0.744222,0.42527 0.318952,1.06317 3.083204,4.99692 2.870569,0.10615 2.764252,4.78428 0.212635,0.21263 0.318952,0.74422 1.169491,2.65794 -4.146378,0.95686 -1.913712,-0.85054 -5.103235,-0.42527 -3.083204,-1.70108 -1.169491,0 -0.212634,0.74422 1.807395,1.91371 -0.531587,1.06318 -1.382126,-0.74422 -3.933743,-3.72111 -4.677965,-2.23267 -2.445299,-0.21263 -3.721108,4.78428 -2.657935,1.16949 -0.850539,0.31878 -2.232665,2.76425 -2.126347,1.70108 -1.807396,8.61171 1.063174,4.35901 -0.212635,3.61479 2.870569,21.26348 0.106318,0.95686 -0.42527,1.16949 -0.744221,-1.38213 -0.531587,-3.40215 -0.850539,-1.48845 -0.531587,1.91371 0.744221,5.20956 -0.744221,5.5285 0.106317,4.35901 1.701078,5.95378 3.295839,3.7211 1.488443,0.95686 1.169491,1.59476 2.764252,3.61479 1.488444,3.18952 2.445299,9.88752 1.488444,2.97689 2.657934,4.8906 5.103234,7.22958 2.02003,2.12634 1.488444,0.63791 0.425269,0.42527 1.488443,1.48844 0.956857,0.53159 1.594761,0 2.02003,-1.8074 1.913713,-2.97688 0.425269,-2.23267 0.106317,-2.65793 1.169492,-1.06318 0.850539,-2.33898 -0.318952,-1.59476 0.212634,-2.4453 3.402156,-4.8906 2.338983,-5.74114 -0.106318,-1.06317 -2.338982,-2.33898 3.614791,0.85054 0.956856,0.74422 2.02003,0.42527 2.020031,1.16949 -1.063174,0.85054 0.212635,1.27581 2.551617,3.93374 1.275808,0.53159 4.359013,-0.21264 1.169491,0.85054 1.169491,1.91371 1.382126,-0.21263 1.169491,-0.85054 4.040061,-4.46533 3.402156,-0.85054 3.508473,-3.18952 0.850539,0.10615 -0.744221,2.23266 0.744221,0.74422 2.764252,0.10615 0.106147,-0.10615 3.827419,-2.4453 2.55162,-0.10614 3.0832,0.74422 4.14638,2.23266 1.70108,0.31878 1.70108,1.1695 3.40215,-0.42527 1.38213,1.06317 -2.97689,0.85054 -0.74422,0.95685 1.48845,1.38213 1.70107,0.21264 1.91372,2.02003 1.91371,-0.21264 1.91371,1.70108 -2.65793,2.76425 -3.82743,-0.42527 -4.14638,0.63791 -2.12634,-0.63791 -1.48845,0.42527 -1.70108,-2.12635 -1.2758,0.95686 -4.67797,0.10615 -3.82742,2.12634 -1.701078,-0.10614 -3.721108,-2.65794 -0.956857,1.70108 -0.425269,2.65794 -4.677965,4.46533 -0.318782,0.10614 -1.275809,0.74422 -2.232664,3.29584 -3.083204,7.01695 -1.275809,1.06317 -3.402156,0 -0.850539,0.42527 -1.488443,2.55162 -2.020031,0.85054 -2.232665,0 -1.59476,-0.10615 -0.744222,0.74422 -1.169491,4.35953 0.212635,1.59476 -0.956857,1.80739 -1.063174,-1.27581 -0.956856,0.31879 -1.488443,1.48844 -2.551617,0.95686 -1.275809,1.38212 0.106317,3.08321 2.232665,2.4453 11.269643,4.14637 2.551617,0.42527 -1.382126,2.02003 -1.169491,1.70108 -0.850539,-1.48844 -2.976887,0.42527 -1.169491,0.95702 -1.382126,-1.16949 -3.508474,-0.95685 0.850539,-1.06318 -0.425269,-0.74422 -2.657935,-1.91371 -2.02003,0.31878 -1.913713,-0.74422 -2.551617,-3.18952 -2.551617,-4.46533 -1.488443,-1.38213 -1.488443,-0.31878 -1.488444,-3.50847 -2.657934,-1.91372 -2.126348,-1.70108 -0.318952,-0.95685 -3.933743,0.10615 -1.594761,-1.48845 0.42527,-1.27581 -1.488443,-0.74422 -0.212635,0 -0.850539,-0.21263 -0.956857,1.16949 -1.275808,-0.95686 -2.4453,-0.21263 -1.382126,0.6379 -1.169491,-0.53159 -2.976886,1.48845 -1.169492,-1.70108 -0.744221,-0.21263 -0.956857,0.53158 -0.212634,2.02003 -0.850539,0.63791 -0.744222,-0.10615 -1.275809,-3.18952 -2.445299,-0.63791 -0.850539,1.48845 -2.657935,4.8906 -0.106317,-3.40216 0.425269,-0.95686 0.956857,-0.6379 -0.850539,-0.74422 -1.8073953,-0.42527 -1.3821259,-1.06318 -2.5516171,0 -0.5315869,1.06318 6.2727252,11.48228 0.106317,1.70107 -0.744222,4.35902 -0.7442208,1.2758 -0.850539,0.21264 -1.0631738,0.21263 -1.1694912,-0.85054 -0.5315868,0.85054 0.850539,5.10324 0.4252695,0.31878 1.4884433,-0.6379 3.2958378,3.7211 0.318953,0.42527 3.61479,6.48536 0.318953,2.23267 5.422186,5.20955 1.913713,3.72111 1.063173,1.27581 1.275809,0.42527 0,0.21263 0.106317,1.06318 1.594761,0.6379 2.232665,-0.42527 1.701078,1.48844 2.02003,0.31879 1.913713,1.06317 0.850539,1.70108 1.594761,6.16641 0.531587,1.06317 1.063174,0.95686 -1.275809,1.59476 2.338982,2.4453 1.169491,2.23266 1.594761,0.74422 3.083204,-1.70108 1.594761,-0.10614 0.850539,0.74422 -2.232665,0.85054 -0.106318,0.21263 -0.637904,1.27581 0.637904,2.33898 -2.126347,4.04006 0.744222,0.85054 1.807395,0.31878 0.42527,1.06318 0.425269,2.87057 -0.850539,1.16949 1.382126,2.12635 1.275808,6.37904 -0.956856,3.29618 -0.850539,0.74422 -0.744222,3.40216 0.106318,3.50847 -0.531587,2.23266 0.318952,0.85054 0.744222,0 1.382126,0.10615 3.295838,-3.0832 2.232665,-1.16949 3.614791,-4.14638 4.146378,-0.95686 5.953773,-3.93374 4.571647,-2.12635 1.807396,-3.18952 2.232665,-1.8074 4.04006,-1.38212 1.488443,-0.53159 1.488444,0 1.169491,0.10615 2.4453,0.85054 2.126347,-0.31878 2.870569,-1.1695 1.488444,0.21264 2.657934,1.27581 4.040053,-0.53159 2.97689,5.20955 -1.27581,3.08321 0.21264,1.48844 4.57164,6.37904 2.02003,1.16949 1.06318,1.59476 3.50847,2.87057 2.33898,3.50848 0.85054,0.53158 6.37905,10.63174 0.85053,1.8074 0.10615,0.42527 0.10615,1.38212 1.38212,3.29584 2.33899,1.27581 0.21263,2.97689 2.23267,-0.42527 1.91371,3.61479 0.31878,0.95685 -0.85054,1.48845 -0.53158,2.55161 -0.63791,11.26965 1.27581,4.57164 6.37904,5.52851 0.42527,1.16949 0.31878,6.48536 2.76426,4.99692 8.29275,4.04006 10.52542,5.63482 719.34339,0 0,-2.55162 0,-19.77503 -0.74423,-10.41911 4.14638,-1.70107 2.65794,-0.63791 2.76425,-1.48844 2.87057,-2.87057 14.24653,-23.38982 3.08388,-3.18935 4.35901,-2.02004 4.46533,-0.6379 9.46225,-1.27581 2.12635,0.21264 4.8906,3.29584 1.48844,0.21263 6.48536,-0.31878 4.99692,-0.21264 4.04006,-2.4453 1.91371,-0.53175 2.33898,0.21263 1.27581,0.85054 1.91371,-0.53159 3.50848,-3.61479 4.46533,-1.59476 2.12634,-5.74114 8.29276,-7.65485 0.95686,-6.37904 -0.31879,-4.57165 -3.40215,-5.74114 0,-1.2758 -0.21264,-2.4453 1.8074,-20.62558 1.06317,-4.25269 1.06318,-2.02003 3.82742,-4.67797 0.31878,-0.21263 1.59477,-4.67797 -2.33899,-9.67488 -0.21263,0 2.33898,-19.45608 -0.74422,-6.1664 -4.99692,-1.27581 -6.37904,-3.29584 -3.18952,-1.27581 -1.27581,0.6379 -3.72111,1.59476 -2.12635,1.38213 -3.40215,1.16949 -2.87057,0.31878 -4.2527,-1.80739 -1.16949,1.59476 -1.38212,3.82742 -2.4453,3.40216 -2.33899,4.99692 -2.87057,3.18952 -2.65793,1.38212 -1.91371,2.02003 -4.67797,8.61171 -2.23266,2.65794 -3.50848,2.02003 -0.42527,0.21263 -2.12634,3.82743 -4.14638,2.97688 -2.02003,3.93375 -7.12326,6.27272 -2.87057,1.70108 -10.52542,7.54853 -2.4453,0.85054 -2.12635,-0.74422 -3.93374,-0.21229 -0.95686,-1.16949 -1.27581,-4.67797 -3.50847,-2.02003 -11.69492,-0.74422 -7.65485,-2.12635 -2.02003,0 -3.61479,0 -4.46533,5.95377 -1.16949,4.78429 -2.02003,1.48844 -0.74422,3.18952 -0.21264,6.59168 -4.35901,0.85054 -1.59476,-0.10615 0.63791,-2.33898 1.59476,-1.38213 -1.38213,-7.22958 3.40216,-6.48536 1.27581,-2.65793 0.74422,-4.78429 1.16949,-3.93374 1.38212,-1.38212 5.42219,-2.33899 1.91371,-1.27581 1.59476,-2.33898 2.55162,-0.95685 1.16949,-0.85054 0,-0.63791 0.31878,-3.40215 -0.42527,-5.20956 -1.2758,-2.55161 1.38212,-5.52851 0.42527,-1.2758 -0.10615,-3.50848 0.10615,-0.53158 0.42527,-1.27581 0.21264,-4.8906 0.74422,-0.63791 1.59476,-0.42527 0.95685,-1.16949 -0.10614,-1.27581 0,-1.80739 0.53158,-0.31878 2.4453,0.95685 0.42527,-1.27581 -1.16949,-3.0832 0.63791,-2.65793 2.23266,-6.37905 0.63791,-3.18952 1.48844,-0.53159 3.29584,-0.85053 1.80739,-1.1695 2.4453,-4.8906 1.48845,-1.48844 2.33898,-0.74422 0.6379,-1.16949 -0.42527,-5.31587 0.95686,-1.38213 1.16949,-0.42527 3.0832,0.42527 2.23267,-2.02003 2.12635,-0.85054 0.42527,-0.21263 2.4453,-2.12635 4.25269,-0.42527 1.59476,1.06318 1.06318,-0.10615 2.33898,-2.55162 4.35901,-2.12635 1.27581,-2.23266 5.42219,-2.12635 0.85054,-0.85054 0.21263,-1.91371 -1.06317,-1.91371 0.85054,-2.4453 3.18952,-4.78428 -2.02003,-2.02003 -2.33899,0.21263 -0.74422,-2.97689 -3.0832,-4.14637 -5.31587,-2.4453 1.16949,-1.91372 -1.70108,-2.33898 -1.80739,-2.33898 2.4453,-1.8074 -0.42527,-1.16949 -3.82743,0.53159 -0.74422,-1.16949 -0.6379,-5.20955 -2.76426,-4.99692 -8.71802,-6.91063 -1.48844,-2.4453 -1.06318,-0.10615 -1.91371,1.06318 -0.42527,-0.42527 -0.74422,-0.74422 -1.16949,0.10614 -1.16949,-0.95685 0.53158,-4.35902 0.63791,-1.2758 -1.38213,-4.2527 0.31878,-1.70108 -2.12634,-11.26964 -0.95686,-4.8906 1.16949,-6.16641 -0.10615,-2.02003 -0.10614,-3.72111 0.53158,-2.02003 -0.95685,-1.70107 -1.06318,-6.91063 0.31878,-1.38213 -0.42527,-3.40216 0.21264,-1.2758 -876.7994179,0 z m 25.4098529,21.05084 -2.764252,0.31878 -3.508473,1.59476 -1.275809,1.48844 0.106318,1.48845 2.976886,4.25269 1.063174,0.63791 2.232665,-0.31879 6.06009,-2.97688 1.169492,-1.16949 -0.744222,-0.85054 -2.126348,-0.85054 -1.913712,-2.97689 -1.275809,-0.6379 z m 16.160242,9.46224 -0.744222,0.21264 -0.42527,0.95685 0.956857,1.38213 2.764252,2.02003 0.637904,-0.74422 -0.637904,-1.27581 -2.551617,-2.55162 z m 18.180271,95.47301 -3.721108,5.84745 -0.850539,1.91372 0.42527,0.95685 1.701078,-0.21263 3.614791,-4.04006 0.850539,-1.91371 -2.020031,-2.55162 z m 31.150992,2.23266 -1.913712,0.85054 -1.063174,1.16949 0.637904,1.27581 0.850539,0.63791 1.594761,-0.10615 1.701078,-1.27581 0.318782,-1.06317 -0.850539,-1.06318 -1.275809,-0.42527 z m 10.84437,0.95686 -2.4453,1.16949 -4.67797,0.85054 -2.764243,2.02003 0.212634,0.63791 1.275809,0.31878 2.55161,-0.74422 1.16949,-0.85054 2.33899,-0.10615 1.27581,0.85054 1.48844,0.21263 2.33898,-0.6379 3.93374,0.10615 -0.10614,-0.74423 0.10614,0 -1.38212,-1.80739 -1.70108,-0.31878 -1.48844,-0.95686 -2.12635,0 z m -41.570092,4.57165 -0.744222,0.10615 -1.382126,2.12634 0.212635,0.85054 0.744222,0.31878 1.275808,-0.53158 0.637905,-0.95686 -0.212635,-1.38213 -0.531587,-0.53124 z m 9.993833,0 -3.189521,1.48844 -0.212635,0.95686 0.956857,2.87057 -0.956857,3.40215 0.850539,1.48845 0.637905,0.42527 4.677964,-2.87057 1.063174,-0.21264 0.850539,1.06318 1.382126,-0.74423 1.275809,-1.59476 -2.232665,-1.59476 0.637904,-2.97688 -0.850539,-0.85054 -4.8906,-0.85054 z m -15.416019,2.23266 -0.637905,2.12635 0.956857,0.74422 1.063174,-0.21263 0.531586,-0.85054 0.106318,-0.95686 -0.744222,-0.85054 -1.275808,0 z m 2.445299,3.61479 -1.807395,0.95686 -0.850539,1.16949 0.106317,1.59476 0.744222,0.21264 0.956856,-0.85054 1.382126,-1.70108 0.106318,-0.95686 -0.637905,-0.42527 z m -4.359012,2.4453 -0.956857,0.63791 0,2.02003 0.42527,0.6379 0.850539,0.31878 0.425269,-1.06317 -0.744221,-2.55162 z m -20.30662,130.55774 -2.02003,0.95686 -1.701078,2.4453 -4.784282,3.50847 -0.956856,2.12635 -3.189522,1.38213 -0.212634,0.10615 -1.382126,1.16949 -0.956857,1.91371 0.531587,0.53159 5.209552,-1.59476 0.850539,-2.76426 3.189521,0 0.850539,-0.74422 0.531587,-3.0832 1.063174,-0.31878 0.744221,-1.27581 1.275809,-0.42527 0.637904,-1.06318 0.318952,-2.87057 z m 101.426771,62.62094 -5.63482,1.16949 -4.78428,3.82743 28.38674,0 -2.12635,-1.16949 -9.35593,-3.18952 -6.48536,-0.63791 z"
     id="rect6"
     inkscape:connector-curvature="0" />
  <path
     style="fill:#1eb53a;stroke:#1eb53a;stroke-width:1.79999995;stroke-miterlimit:4;stroke-dasharray:none;stroke-opacity:1"
     d="M 684.07331,0.89999998 669.72046,1.11264 l -20.30662,0.42527 -1.70108,0 -41.46378,-0.31896 -11.16332,-0.10631 -5.63482,-0.10632 -1.06318,0 -20.2003,0.42527 -3.29584,-0.31895 -0.6379,0 -2.87057,0 -1.80739,0.10631 -7.86749,0.42527 -12.65177,-0.42527 -15.62865,0.31896 -7.86749,0.10631 -3.0832,-0.6379 -11.05701,0.85054 -19.34976,0 -18.60555,0 -1.91371,3.61479 -2.23266,13.183349 -2.76425,3.18953 -0.95686,0.31895 -2.76425,0.74422 -2.33899,1.16949 -3.93374,0.85054 -29.66255,9.03698 -0.85054,0.10631 -5.10323,0.95686 -4.57165,2.02003 -5.84745,1.16949 -0.85054,0.63791 -7.86749,2.4453 -4.35901,1.38212 -2.12635,0.10632 -4.99692,-0.95686 -3.61479,-1.80739 -1.2758,-0.74422 -6.698,-4.8906 -8.93066,-3.18952 -2.55162,-2.23267 -0.74422,-1.59476 -2.4453,-1.8074 -1.48844,-0.10631 -12.12018,2.76425 -7.44222,1.70108 -0.6379,0.74422 -20.73189,4.04006 -4.14638,0.21263 -1.70108,0.95686 -5.5285,1.16949 -1.8074,0.42527 -12.33281,2.02003 -1.91372,1.38213 -2.02003,3.61479 -2.87057,2.97688 -1.48844,0.74423 -7.44221,-0.21264 -6.16641,3.82743 0,1.38212 -0.53159,1.48845 0.31878,0.85054 0.95686,0.74422 1.38212,0.31895 0.74423,0.95686 -0.42527,4.78428 -1.91372,0.31895 -0.95685,0.74422 -0.42527,6.16641 -3.18952,4.57165 -0.31879,3.7211 -2.02003,2.33899 0,0.74422 3.18953,1.48844 0.42527,1.16949 -0.63791,0.95686 -4.46533,-0.10632 -0.85054,0.53159 -0.6379,1.70108 2.76425,7.22958 0,0.85054 0,1.38212 -0.95686,0.63791 -1.06317,-0.21264 -1.06317,-0.95685 -1.48845,-3.61479 -0.85054,-0.21264 -1.27581,1.27581 -2.44529,2.55162 -2.97689,1.80739 -3.18952,0.21264 -0.74422,3.402151 0.31878,2.76425 -0.53159,2.02004 -1.48844,2.44529 -0.42527,3.29584 -0.95686,0.53159 -1.59476,-1.70108 -1.27581,0.10632 -0.74422,0.85054 -0.6379,2.12635 1.16949,3.82742 0.74422,2.23267 0,1.27581 0.10615,0.85053 -1.8074,5.31587 -0.31878,4.04006 -0.21264,0 -2.4453,-0.21263 -4.89059,-1.8074 -2.02004,1.70108 -0.85053,2.55162 -2.23267,6.80431 -1.80739,2.23267 -0.10615,1.38212 1.27581,2.76425 -0.53159,1.38213 -2.76425,-0.42527 -1.70108,0.53159 -3.0832,2.87057 -0.95686,2.33898 0.6379,0.10632 2.33899,2.33898 0.6379,2.55162 -0.42527,2.55161 -7.01695,10.84438 0.21264,2.02003 -0.42527,0.74422 -1.91371,1.06317 -0.21264,1.16949 -0.31878,3.08321 -1.16949,2.4453 1.27581,1.38212 0,1.16949 -1.8074,1.48845 0.63791,3.0832 -0.85054,1.16949 -0.21264,1.70108 0,1.06317 -0.74422,0.53159 -0.74439,-0.21263 -2.33898,-2.65794 -1.59476,0.21264 -1.8074,1.48844 -0.74422,3.0832 -0.31895,3.93375 -1.59476,-0.31896 -2.23267,-1.59476 -9.24961,-0.42527 -1.8074,2.65794 0,3.72111 0.42527,3.50847 1.59476,3.40216 0.31879,2.02003 -0.85054,1.48844 -1.16949,0.85054 -6.48536,-0.10632 -0.63791,0.85054 0.10615,2.12635 -0.95686,3.0832 -1.16949,2.33898 -0.95652,0.31896 -0.53158,1.06317 0.42527,2.76425 -0.42527,1.06318 -1.48845,1.06317 -4.04006,1.27581 -1.80739,2.23266 -1.38213,0.31895 -0.21263,-0.21263 -2.55162,-1.48844 -2.12635,0 -3.0832,1.80739 -1.16949,-0.53158 -4.14638,-2.87057 -3.61479,0.21263 -1.48844,-0.95686 -1.06318,0.53159 -1.59476,6.06009 -3.82742,2.4453 -2.55162,-0.21263 -5.10324,-3.72111 -3.29583,-1.27581 -2.76426,-0.10632 -2.23266,2.87057 -0.63791,0.74422 -2.76425,8.50539 -2.12634,4.57165 1.59476,14.77812 -0.63791,2.55161 -4.57165,3.40216 -1.06317,2.12635 0,2.02003 -2.4453,8.61171 -2.23266,4.04006 -1.27581,2.33898 -3.40216,4.99691 -3.189516,2.12635 -2.126347,1.06318 -5.741139,-0.21264 -2.4453,0.53159 -2.338982,1.27581 -2.4453,7.86748 -3.614791,2.02003 -2.976886,0.63791 -2.976887,0.6379 -6.48536,-0.42527 -4.996917,-2.65793 -9.249612,-9.1433 -3.721108,-1.80739 -3.614791,-0.31895 -1.807395,0.74422 -2.870569,1.80739 -5.953774,3.93375 -2.870569,0.31895 -6.697995,-1.27581 -3.721108,0.10632 -6.591677,2.55161 -2.764252,1.70108 -1.7010778,1.8074 -2.2326649,1.27581 -3.933743,3.61479 -2.3389823,1.27581 4.784282,9.46224 1.0631738,3.40216 -0.2126348,0.95685 -1.3821259,5.63483 876.7994179,0 0.95686,-7.22959 0.21263,-1.06317 0.74422,-2.02003 1.38213,-0.95686 0.53158,-1.27581 0.21264,-4.99691 0.53159,-1.48845 -0.31879,-2.23266 -1.59476,-2.02003 -1.38212,-1.8074 -6.16641,-3.82742 -1.38213,-0.42527 -1.59476,-0.53159 -0.21263,0.63791 -3.40216,-0.63791 -8.82434,-3.93374 -4.78428,0.10632 -10.73806,1.91371 -7.12326,-1.16949 -1.16949,-1.70108 0.42527,-0.95686 0.6379,-1.38212 1.27581,-8.18644 0,-4.67797 3.82743,-4.14637 0.10614,-6.37905 -2.97688,-6.48536 1.59476,-4.57164 1.70107,-0.31896 0.42527,0.74423 0.95686,1.38212 4.35901,-0.6379 4.04006,-1.48845 1.16949,0 3.6148,-1.59476 1.48844,-2.12634 -0.21264,-5.42219 0.31879,0 -3.72094,-4.14638 -0.21264,-3.50847 1.48845,-5.10324 1.16949,-2.87056 1.91371,-4.99692 -0.6379,-3.40216 -1.70108,-2.87057 -6.698,-4.99691 -5.84745,-1.8074 -1.38213,-1.48844 0.42527,-0.95686 -0.21263,-3.50847 -4.57165,-7.54854 -2.02003,-2.76425 -2.33898,2.02003 -0.85054,-0.42527 -2.33898,-3.0832 -3.82743,-0.42527 -3.29584,1.48844 -3.18952,-0.53158 -1.06317,-0.74423 -2.12635,-1.48844 -3.08321,-0.21263 -1.70107,3.18952 -1.70108,0 -1.59476,-1.8074 -0.63791,-1.80739 1.38213,-2.97689 2.55162,-2.02003 0.85053,-2.23267 -1.48844,-1.91371 -3.0832,-1.80739 -3.61479,-3.08321 -2.76426,-0.95685 -2.44529,-1.48845 -0.21264,-0.31895 -1.59476,-3.61479 0,-2.23266 2.4453,-2.97689 0,-1.8074 -2.33898,-4.78428 0,-1.38212 1.16949,-1.8074 4.57165,-2.02003 1.48844,-2.33898 -0.42527,-1.16949 -1.06317,-0.85054 -8.50539,-1.27581 -1.1695,-0.85054 -4.25269,-3.40216 1.16949,-1.80739 3.61479,-3.08321 -0.10615,-1.80739 -6.1664,-5.10324 -5.63483,-6.48536 -2.76425,-0.21263 -2.33898,-2.4453 -0.42527,-4.2527 -0.74439,-5.84745 -2.02003,-2.76425 -0.21264,-2.76426 -1.59476,-1.48844 -2.02003,-0.6379 -3.61479,0.10631 -3.50847,-0.53158 -2.65794,-2.02003 -1.59476,-3.08321 -0.95685,-7.867481 -1.06318,-2.65794 -1.16949,-2.55161 -2.02003,-3.61479 -6.59168,-8.39908 -2.76425,-2.76425 -8.50539,-12.54545 -3.29584,-3.18952 -6.80431,-6.59168 -8.61171,-5.74114 -0.31878,-0.74422 -14.77828,-6.91063 -3.29584,-2.87057 -0.42527,-0.42527 -1.91371,-3.61479 -1.48845,-7.22958 -0.85054,-10.4191 -1.38212,-7.01695 -1.16949,-3.083199 -6.48536,-4.99692 -3.6148,-2.87057 -0.21263,-0.10632002 -0.10615,0 -0.10614,0 z"
     id="rect4"
     inkscape:connector-curvature="0" />
</svg>
