<?xml version="1.0" encoding="UTF-8" standalone="no"?>
<svg
   xmlns:dc="http://purl.org/dc/elements/1.1/"
   xmlns:cc="http://creativecommons.org/ns#"
   xmlns:rdf="http://www.w3.org/1999/02/22-rdf-syntax-ns#"
   xmlns:svg="http://www.w3.org/2000/svg"
   xmlns="http://www.w3.org/2000/svg"
   xmlns:sodipodi="http://sodipodi.sourceforge.net/DTD/sodipodi-0.dtd"
   xmlns:inkscape="http://www.inkscape.org/namespaces/inkscape"
   width="1221.2379"
   height="600.74884"
   viewBox="0 0 12.212379 6.0074884"
   id="svg2"
   version="1.1"
   inkscape:version="0.91 r13725"
   sodipodi:docname="Flag_of_Slovakia.svg">
  <metadata
     id="metadata26">
    <rdf:RDF>
      <cc:Work
         rdf:about="">
        <dc:format>image/svg+xml</dc:format>
        <dc:type
           rdf:resource="http://purl.org/dc/dcmitype/StillImage" />
        <dc:title>Flag of Slovakia</dc:title>
      </cc:Work>
    </rdf:RDF>
  </metadata>
  <defs
     id="defs24" />
  <sodipodi:namedview
     pagecolor="#ffffff"
     bordercolor="#666666"
     borderopacity="1"
     objecttolerance="10"
     gridtolerance="10"
     guidetolerance="10"
     inkscape:pageopacity="0"
     inkscape:pageshadow="2"
     inkscape:window-width="1600"
     inkscape:window-height="837"
     id="namedview22"
     showgrid="false"
     fit-margin-top="0"
     fit-margin-left="0"
     fit-margin-right="0"
     fit-margin-bottom="0"
     inkscape:zoom="0.89347764"
     inkscape:cx="813.73741"
     inkscape:cy="299.99945"
     inkscape:window-x="-8"
     inkscape:window-y="-8"
     inkscape:window-maximized="1"
     inkscape:current-layer="svg2" />
  <title
     id="title4">Flag of Slovakia</title>
  <path
     style="fill:#ffffff;stroke:#0b4ea2;stroke-width:0.015;stroke-miterlimit:0;stroke-dasharray:none;stroke-opacity:1"
     d="m 5.5843005,0.00751356 c -0.022464,-5.458e-4 -0.096879,0.01862476 -0.1138086,0.03191406 -7.5e-4,0.0416274 -0.026525,0.05828891 -0.066855,0.06275391 -0.02089,0.0104092 -0.019857,0.0751728 -0.020957,0.0958984 -0.00416,0.003564 -0.011252,0.004784 -0.016152,0.005664 -0.02507,0.004528 -0.047966,0.0154304 -0.071426,0.0252734 -0.00606,-0.001873 -0.014227,-0.009938 -0.018027,-0.014668 -0.01976,-0.0106256 -0.043986,0.004676 -0.065176,0.002305 l -0.013496,0.008164 c -0.05399,-0.0230944 -0.052269,0.0529001 -0.095469,0.0607031 -0.0072,0.008953 -0.00289,0.0379387 -2.93e-4,0.0476367 -0.017577,0.0101111 -0.035603,0.068097 -0.035723,0.0880078 0.017293,0.0227313 0.010276,0.0421712 0.00391,0.0670117 -0.010136,0.001254 -0.020502,0.001336 -0.030703,0.001602 -0.01649,0.008364 -0.035596,0.0301457 -0.043066,0.0468359 0.011806,0.0236309 0.023065,0.0376682 0.018125,0.0669336 l -0.00771,0.006484 c -0.00928,0.003617 -0.025521,0.001896 -0.034531,-0.001602 -0.011068,0.010433 -0.032337,0.0213667 -0.047656,0.0229297 -0.00614,-0.005353 -0.016666,-0.009725 -0.024746,-0.0104883 -0.00953,0.0105377 -0.024774,0.0203408 -0.03793,0.0255078 -0.013041,-4.213e-4 -0.03269,-0.0126623 -0.04125,-0.0217773 l -0.015449,-9.766e-4 c -0.00398,-0.00709 -0.010759,-0.0167926 -0.017539,-0.0216016 l -0.029922,-0.003027 c -0.00455,0.005627 -0.01671,0.0159196 -0.02459,0.0161719 l -0.015938,-0.005488 -0.012402,0.006934 c -0.00549,0.0154276 -0.013518,0.0335491 -0.023984,0.0463867 -0.031911,0.0196909 -0.047669,-0.001177 -0.075977,0 -0.021437,8.88e-4 -0.033808,0.0160583 -0.057109,-0.001602 l -0.013984,-0.0219531 c -0.010356,-0.0400813 0.024894,-0.0468403 0.033184,-0.0739648 -0.00602,-0.0127436 -0.015468,-0.0239341 -0.021328,-0.0363477 -0.00605,-0.0128031 -0.00905,-0.0282752 -0.014746,-0.0416016 l -0.010859,-0.001328 -0.00568,-0.009961 c -0.00151,-0.0137212 0.0039,-0.0334493 0.00859,-0.0460352 -0.030046,-0.0639123 0.00181,-0.0583191 0.00539,-0.10283203 C 4.5200279,0.3029181 4.5148469,0.295653 4.4898769,0.2838223 L 4.4666149,0.2728067 C 4.4282619,0.2661757 4.3856919,0.2903621 4.3465172,0.2852481 4.3160352,0.2812601 4.3277462,0.2646258 4.2777282,0.2754631 l -0.0076,-0.006035 -2e-5,3.9e-5 c -0.012356,0.006061 -0.3087261,0.11366782 -0.3272071,0.11304687 -0.03072,-0.001028 -0.06698,-0.0102319 -0.097695,-0.0149219 -0.030158,-0.004605 -0.061226,-0.0194068 -0.089902,-0.0296875 -0.083396,0.0236177 -0.1080887,0.0240284 -0.1591407,0.10595703 -0.00708,0.0113724 -0.011361,0.0244148 -0.019141,0.0353711 -0.034841,0.049002 -0.071847,0.0996652 -0.1140039,0.14283203 -0.014147,0.014483 -0.031746,0.0258803 -0.046973,0.0392188 -0.0111,0.009723 -0.021643,0.0191662 -0.027383,0.0333008 -0.013996,0.034472 -0.00524,0.0789308 -0.022813,0.11109375 -0.00637,0.011644 -0.014104,0.0309689 -0.022344,0.0408789 -0.024517,0.029472 -0.1014181,0.0684091 -0.1378711,0.0807031 -0.028548,0.009637 -0.060487,0.0133123 -0.089707,0.0224024 -0.042133,0.013111 -0.083035,0.0308427 -0.1257422,0.0416797 -0.035637,0.00905 -0.095212,0.0247073 -0.1241992,0.0489843 -0.018119,0.015176 -0.0405,0.0728 -0.04752,0.094199 -0.00259,0.00793 -5.89e-4,0.019317 -0.00254,0.027637 -0.00791,0.033691 -0.030307,0.067183 -0.00816,0.1011523 -0.00664,0.017795 -0.030492,0.1091573 -0.040352,0.1239063 -0.016288,0.024401 -0.037628,0.045344 -0.054043,0.070469 -0.00111,0.00171 -0.00163,0.00453 -0.00232,0.00645 C 2.668527,1.5810392 2.704331,1.6516551 2.606676,1.754394 2.581208,1.781187 2.55766,1.809242 2.531305,1.835175 2.506383,1.835868 2.479906,1.857117 2.45568,1.865487 2.428245,1.874967 2.397134,1.868097 2.371676,1.878632 2.338602,1.892314 2.2651465,1.976746 2.2233166,2.0274992 l 9.7930284,0 0.0055,-0.00369 c 0.0027,-0.022137 0.0077,-0.046254 0.01576,-0.067109 l 0.02217,-0.019629 c 0.02266,-0.0073 0.04187,0.016812 0.06352,0.00951 0.01315,-0.00851 0.02739,-0.02452 0.03389,-0.038848 -0.0043,-0.036859 0.02247,-0.059876 0.02537,-0.088262 0.0043,-0.041957 -0.0025,-0.0874 2.9e-4,-0.1306446 l 0.02037,-0.013418 0.0017,-0.015469 c -0.0238,-0.02418 -0.118466,-0.030897 -0.145996,-0.0073 -0.02036,-0.00422 -0.04642,-0.026825 -0.06072,-0.04123 -0.01912,-3.51e-4 -0.08268,0.00307 -0.09635,-10e-5 -0.04162,-0.00961 -0.05216,-0.058452 -0.07254,-0.089219 -0.0048,-0.00722 -0.01439,-0.012952 -0.01978,-0.019922 -0.0069,-0.00898 -0.01199,-0.023726 -0.01809,-0.033848 l -0.07275,0.00346 -0.04551,0.032266 c -0.03647,-0.017377 -0.0799,-0.035004 -0.119746,-0.042754 -0.0166,-0.00321 -0.04739,-4.83e-4 -0.06162,-0.00861 -2e-4,-0.00426 -0.0019,-0.028021 -0.0015,-0.029941 0.0046,-0.021379 0.02024,-0.030767 0.0065,-0.055918 -0.0059,-0.00846 -0.02156,-0.015893 -0.03146,-0.016973 -0.02078,0.00537 -0.03309,0.02498 -0.05256,0.03041 -0.01548,-0.027448 -0.06516,-0.038507 -0.09393,-0.039297 l -0.01883,-0.04541 -0.06365,-0.00143 c -0.0392,-0.040133 -0.113782,-0.023925 -0.151992,-0.066309 -0.01573,-0.042534 0.0077,-0.098311 -0.0046,-0.1293945 l -0.0099,-0.00881 -0.0028,-0.00908 c 0.01005,-0.015396 3.9e-4,-0.044902 -0.01008,-0.057422 -0.0065,-0.00778 -0.01983,-0.011865 -0.02703,-0.019355 -0.02744,-0.028741 -0.05454,-0.0566758 -0.07121,-0.0935938 -0.01214,-0.026866 -0.01382,-0.0602109 -0.03295,-0.0840039 l -0.01938,-0.008164 -0.03746,0.006582 c -0.02299,-0.0237923 -0.05057,-0.0246366 -0.08164,-0.0234766 -0.01084,-0.013029 -0.0219,-0.0290662 -0.0285,-0.0447852 -0.01225,-0.011399 -0.04689,-0.015454 -0.06234,-0.0150976 -0.0076,-0.0201639 -0.01911,-0.0410825 -0.0317,-0.0585742 l -0.01428,-0.001523 c -0.02572,0.0135918 -0.09159,0.0384084 -0.09769,0.0702344 -0.003,0.015732 -8.02e-4,0.0322549 -0.0091,0.0468359 l -0.007,3.516e-4 -0.0078,-0.0111133 -0.02406,-0.007988 c -0.0057,-0.020628 -0.01111,-0.042709 -0.01311,-0.064082 -0.02059,-0.0259268 -0.07193,-0.0451958 -0.08213,-0.0695898 l -0.0017,-0.0300391 c -0.01641,-0.005105 -0.03352,-0.0104119 -0.05049,-0.0133399 l -0.0301,0.0109375 C 10.250825,0.6086286 10.26513,0.54939095 10.21709,0.51065565 l -0.01445,-0.00373 c -0.02821,0.0106093 -0.05695,0.0240573 -0.08289,0.0394531 l -0.02637,-0.00541 -0.01529,-0.0176953 -0.01682,-0.003652 c -0.01039,0.0111644 -0.02337,0.0215879 -0.03609,0.0299609 -0.0098,-1.45e-4 -0.02111,0.001128 -0.030508,0.004082 l -0.00859,0.0143945 0.00119,0.0208008 -0.011387,0.007656 -0.021504,-0.003379 C 9.943961,0.58268905 9.930484,0.57171285 9.917174,0.56512885 l -0.015937,0.0102148 -0.006,0.0189453 -0.018125,0.0126172 c -0.01274,-4.91e-4 -0.025584,-0.002297 -0.038164,-0.004629 -0.01051,0.005975 -0.025147,0.0106498 -0.037207,0.0114648 -0.03102,-0.0184112 -0.046281,-0.033643 -0.072461,-0.0605078 -0.0012,-0.001364 -0.0056,-0.00319 -0.0073,-0.004199 -0.01432,0.004002 -0.028047,0.008095 -0.041777,0.014043 L 9.651172,0.5533119 C 9.637832,0.5311423 9.611001,0.5240598 9.593691,0.5057533 9.582141,0.5052343 9.509218,0.5044483 9.508261,0.5040733 9.490861,0.4973913 9.474577,0.4844397 9.456757,0.4771397 c -0.01054,6.757e-4 -0.02378,0.00546 -0.032481,0.0112891 l 0.0083,0.0180469 C 9.404286,0.5431098 9.351994,0.5452182 9.337244,0.5703038 9.340944,0.5815144 9.344254,0.5929505 9.346654,0.604503 9.337904,0.6194073 9.320598,0.6337248 9.316498,0.65046 9.302418,0.650539 9.287953,0.652578 9.274193,0.65544 9.259783,0.6395911 9.236719,0.625648 9.217259,0.617315 9.206919,0.5840261 9.172329,0.5512865 9.136849,0.5482525 9.124389,0.5541125 9.106187,0.5664644 9.098587,0.5784673 L 9.069544,0.5687993 c -0.02443,0.007569 -0.078423,0.009198 -0.092793,0.0292383 l -0.00318,0.0233789 c 0.01062,0.0147493 0.021613,0.0362645 0.034063,0.0486914 0.00742,0.007418 0.019424,0.0120201 0.027324,0.0191211 0.01438,0.0129451 0.024535,0.0298673 0.040645,0.0414062 l -0.0057,0.0212305 C 9.055223,0.7752397 9.037519,0.7678725 9.022149,0.7804985 l -0.0076,-0.006484 c -0.00928,-1.7e-4 -0.019205,0.001302 -0.028106,0.004082 L 8.964588,0.7703035 c -0.02357,0.018676 -0.046935,0.0378046 -0.069375,0.0578516 2e-4,0.014594 -0.0081,0.0353203 -0.015703,0.0473633 -0.01156,0.003667 -0.028811,0.0132262 -0.036211,0.0232812 0.0055,0.012899 0.0063,0.0467978 0.0017,0.0601758 C 8.834919,0.9520054 8.818426,0.9477142 8.806366,0.9476082 8.778356,0.9621172 8.750144,0.9762664 8.721874,0.9902644 L 8.720784,0.9740925 C 8.670504,0.9461285 8.681251,0.9497568 8.668401,0.9011238 8.664911,0.8878618 8.654042,0.8724386 8.647542,0.8606746 8.641942,0.8507456 8.642642,0.8409834 8.649242,0.8305574 L 8.634203,0.8176668 C 8.606833,0.8334888 8.596507,0.8380626 8.564047,0.8377645 8.551797,0.8495705 8.506988,0.892887 8.485649,0.881202 L 8.459946,0.8459286 8.439028,0.8461825 8.427368,0.8233505 8.441235,0.80212 8.437035,0.793585 8.426176,0.78673 C 8.416996,0.79166 8.398299,0.796619 8.387699,0.793839 L 8.384419,0.785929 8.394888,0.7589954 C 8.385448,0.7625554 8.361546,0.7694282 8.351216,0.7663784 8.344406,0.7627254 8.337006,0.7520153 8.335806,0.7444253 l 0.0042,-0.0185718 C 8.331466,0.7202195 8.315642,0.7045392 8.314342,0.6934902 c 8e-4,-0.009755 0.00999,-0.0234631 0.017891,-0.0287891 L 8.308717,0.6585681 8.308834,0.6321814 8.304034,0.6265764 8.273233,0.6245254 8.263723,0.6132363 C 8.271623,0.5974722 8.272453,0.585363 8.272633,0.5688027 L 8.264723,0.5643687 8.244469,0.5962632 C 8.217924,0.5890962 8.160109,0.6438553 8.1253089,0.6510093 L 8.1131219,0.6471813 8.1050119,0.633861 8.0812619,0.633236 C 8.0782819,0.624011 8.0677439,0.6079004 8.0578439,0.6047204 l -0.00719,5.273e-4 -0.01127,0.007734 -0.00369,0.0141211 0.00619,0.0204492 c -0.00809,0.006476 -0.015592,0.0143325 -0.021992,0.0224805 l 0.0015,0.0207227 -0.010332,0.0192773 -0.021367,-8.008e-4 c -0.01047,0.008932 -0.027451,0.0173292 -0.041191,0.0191992 -0.04094,-0.014956 -0.082343,-0.0285225 -0.1219531,-0.0468555 l -0.00369,-0.0183008 c -0.02431,-0.005738 -0.060602,-0.0193611 -0.071992,-0.043457 -0.01484,-0.00666 -0.044089,-0.0139031 -0.060449,-0.013418 l -0.0077,0.0143164 -0.021562,-0.0105078 -0.00951,0.003379 -0.00328,0.02 0.010996,0.009707 0.00279,0.008594 -0.0073,0.016543 -0.010723,-0.0184961 -0.010078,-0.005234 -0.012578,0.002129 -0.0033,0.007559 0.0026,0.007109 c -0.0035,0.007102 -0.00649,0.0144895 -0.00949,0.0218555 -0.02041,0.008175 -0.039855,0.0183419 -0.062695,0.0161719 L 7.5378458,0.6841544 7.5359558,0.6610489 7.5191198,0.6576699 c -0.02902,0.012069 -0.032085,0.0112356 -0.061445,0.002227 l -0.012969,-0.0151953 -0.025723,0.00418 -0.0098,0.0262891 c 0.00241,0.008022 0.00928,0.0237162 0.016484,0.0289063 l -0.010605,0.0170508 c 0.00476,0.030196 0.00516,0.0689546 -0.0065,0.0978516 l -0.015566,0.0128125 c -0.02989,-0.00814 -0.069502,-0.0144963 -0.099902,-0.006406 l -0.017246,-0.00791 c -0.02651,0.004044 -0.063619,0.0160984 -0.087559,-3.516e-4 -0.00669,0.016022 -0.039057,0.0292122 -0.054277,0.0319922 -0.01188,0.038877 -0.044788,0.0449095 -0.042188,0.0937695 -0.01037,0.006909 -0.021526,0.0135166 -0.031426,0.0209766 L 7.0409838,0.9282181 c -0.03182,0.0236308 -0.051023,0.1185361 -0.065313,0.1582031 -0.00521,0.014464 -0.023587,0.027416 -0.029687,0.041777 -0.0061,0.014631 -0.00669,0.039716 -0.00949,0.056445 l 0.014512,0.033594 c -0.0158,0.032467 -0.048513,0.073039 -0.045312,0.110293 l 0.010605,0.015371 -6.64e-4,0.020977 -0.020547,0.00854 C 6.8820002,1.3687869 6.7679489,1.30464 6.7589489,1.29599 6.7538189,1.278447 6.7479309,1.2608445 6.7405309,1.2440955 l -0.022051,-0.00979 c -0.00346,-0.00887 -0.013999,-0.022695 -0.023398,-0.026035 -0.043059,0.00456 -0.074272,-0.019198 -0.121582,-0.013418 -0.05744,0.022396 -0.047887,0.056712 -0.082187,0.090117 -0.051251,0.049899 -0.068229,0.02194 -0.1025586,0.043184 -0.01206,-0.010763 -0.05804,-0.023069 -0.07543,-0.026289 -0.00968,0.00694 -0.022375,0.013669 -0.033965,0.016699 -0.00691,-0.016672 -0.036657,-0.022359 -0.051777,-0.025859 l -0.00689,-0.02498 c 0.01096,-0.027778 0.00419,-0.062214 0.020859,-0.087539 0.02393,-0.036374 0.030184,-0.00979 0.036484,-0.070312 0.00965,-0.015804 0.035063,-0.034203 0.053633,-0.036973 l 0.012676,-0.017246 c -0.00355,-0.014626 -0.015027,-0.037315 -0.027617,-0.046465 l -0.024043,-0.00498 c -0.00865,-0.024659 0.012118,-0.0639931 0.020918,-0.0875391 -0.00575,-0.018838 -0.018339,-0.0483558 -0.020039,-0.0680078 -0.00108,-0.012808 0.011648,-0.0348619 0.012559,-0.0474609 0.00121,-0.016755 -0.021484,-0.0748779 -0.026484,-0.0883399 -3e-4,-8.982e-4 0.00439,-0.047809 0.00189,-0.0605273 -0.0108,-0.01153 -0.033683,-0.0226961 -0.049473,-0.0238281 l -0.04627,0.0131641 c -0.01217,0.0237607 -0.035261,0.0578912 -0.063301,0.0632812 -0.00302,-0.0154409 -0.033358,-0.0383251 -0.046328,-0.0425781 -0.02416,-0.00793 -0.059738,-0.004876 -0.086328,-0.009062 l -0.04793,-0.007559 C 5.9530183,0.6219282 5.9632803,0.5977194 5.9734803,0.573487 5.9524703,0.544888 5.9623643,0.5307075 5.9599643,0.5003425 l -0.0074,-0.00293 c -0.01483,0.005499 -0.031253,0.0242031 -0.045273,0.0248047 -0.01621,-0.004993 -0.029897,-0.0379731 -0.034297,-0.0528906 l -0.013789,-0.008086 -0.013926,0.003477 C 5.795137,0.41624918 5.7818019,0.33410955 5.7579919,0.27132204 5.7531119,0.25846194 5.7446731,0.24409948 5.7412731,0.23097048 5.7313631,0.19245508 5.7318117,0.14809758 5.7150817,0.11134158 5.7100417,0.10026738 5.6736903,0.07611436 5.6638903,0.07151736 5.6586703,0.06905306 5.6362481,0.0623213 5.6331481,0.0602283 5.6142981,0.0475987 5.6074205,0.01246844 5.5843005,0.00751345 Z"
     id="rect10"
     inkscape:connector-curvature="0" />
  <path
     style="fill:#0b4ea2"
     d="m 2.2399841,2.007494 c -0.018628,0.022008 -0.034311,0.04133 -0.042168,0.051387 -0.018757,0.024005 -0.044389,0.061547 -0.068984,0.078379 -0.01403,0.0096 -0.093543,0.03005 -0.1135742,0.029785 -0.00683,-9e-5 -0.066685,-0.00853 -0.073945,-0.010234 -0.037611,0.015371 -0.074592,0.068818 -0.086582,0.1057813 C 1.8438562,2.2961209 1.811416,2.3708513 1.788031,2.3926893 1.7662758,2.4130013 1.6693359,2.4294621 1.6445739,2.4406971 1.5749914,2.4722601 1.498675,2.5684908 1.418988,2.5017518 1.400271,2.4860708 1.3814234,2.4706363 1.3617614,2.4561463 1.2512953,2.4288603 1.2437118,2.5216777 1.1204724,2.5298378 1.0276731,2.5359766 0.93160153,2.437657 0.84838254,2.402201 c -0.005651,-0.00241 -0.0355713,-0.015981 -0.0370313,-0.016074 -0.0043,-3.1e-4 -0.0387117,-0.00316 -0.0407617,-0.00285 -0.023122,0.00351 -0.0523588,0.018181 -0.0764258,0.024531 -0.0274569,0.00725 -0.0773037,0.03894 -0.10292969,0.058301 -0.043339,0.032739 -0.0663035,0.068892 -0.0990625,0.1104883 -0.019484,0.02473 -0.0403391,0.038594 -0.0631641,0.058926 -0.0654782,0.05833 -0.0944152,0.1431362 -0.10916016,0.2269922 -0.005611,0.031923 -0.037941,0.043299 -0.056875,0.067285 -0.010444,0.013215 -0.0117158,0.026476 -0.0139258,0.04248 -0.00271,0.019614 -0.003261,0.040228 -0.006641,0.059551 -0.005285,0.030262 -0.041665,0.101424 -0.055625,0.131543 l 0.0239844,0.0048 -0.002852,0.028984 -0.0208008,0.019805 c 0.00228,0.017725 -1.081e-4,0.096205 0.003672,0.1047851 0.007331,0.016644 0.0194884,0.032628 0.0258984,0.049512 0.00222,0.00586 -0.003167,0.018846 0.004863,0.031895 l -0.0187891,0.067832 -0.0406445,0.019277 c -0.008628,0.00854 -0.0140444,0.039605 -0.0152344,0.05084 -0.009124,0.002 -0.0360748,0.010321 -0.0414648,0.019101 l -0.004453,0.041602 -0.02376953,0.01209 c -0.009521,0.019122 -0.02020722,0.032054 -0.03732422,0.043633 l -0.007168,0.015469 0.0018359,0.01084 -0.01847656,0.027012 c -0.007456,0.026735 0.01898562,0.075835 0.02351562,0.1033789 0.001467,0.00893 -0.0038769,0.058459 -0.01179687,0.068965 -0.002271,0.00301 -0.02631578,0.034244 -0.02642578,0.035117 -0.00375696,0.029925 2.674e-4,0.056288 0.01273437,0.084687 0.011472,0.00745 0.03633428,0.0089 0.04923828,0.0073 0.0020484,0.00626 0.0042807,0.011865 0.0066406,0.017187 l 7.47408203,0 3.12e-4,-5.08e-4 c 0.01329,-0.022226 0.024354,-0.038933 0.050254,-0.049492 0.0132,-0.02187 0.00579,-0.0479 -0.00111,-0.070586 0.00872,-0.017841 0.019136,-0.035005 0.029336,-0.051992 -0.00705,-0.019496 -0.00829,-0.045521 -0.00699,-0.065937 0.022394,-0.030598 0.078558,-0.099976 0.1125782,-0.108086 l -0.0025,-0.033047 C 7.7409811,3.6367834 7.7535,3.622535 7.7668,3.609525 7.77566,3.562768 7.7888594,3.5548142 7.8139093,3.5146032 l -0.00371,-0.049512 c -0.01117,-0.00972 -0.026359,-0.032288 -0.026465,-0.04791 0.01251,-0.00872 0.03803,-0.016126 0.05332,-0.012266 0.00808,0.00836 0.026782,0.021371 0.039102,0.022051 0.0018,-0.015952 0.017429,-0.039037 0.032109,-0.045937 l 0.066543,0.026309 0.021914,-0.014043 0.035371,-4.49e-4 0.031113,-0.031367 0.041484,-0.00295 c 4e-4,-0.00892 0.00479,-0.027881 0.012187,-0.034121 0.02668,0.00599 0.056683,0.00906 0.084023,0.00854 0.00638,-0.00804 0.014106,-0.015224 0.021406,-0.022324 0.03232,-0.00785 0.064464,-0.00719 0.097344,-0.00889 0.059209,-0.00306 0.1451447,-0.014272 0.1998047,-0.036777 0.01835,0.020829 0.020746,0.01996 0.029746,0.047168 0.00563,0.01713 0.044044,0.052444 0.062734,0.054414 0.02128,-0.00446 0.04394,-0.014758 0.06291,-0.025078 l 0.035859,0.00588 0.019961,0.017324 -0.00279,0.020977 0.018848,8.01e-4 0.030039,0.043633 -2.34e-4,0.027031 0.011113,0.00959 c 0.01303,-0.00328 0.033982,7.84e-4 0.046172,0.00523 0.01236,-0.00632 0.020246,-0.011751 0.029746,-0.022734 0.01352,-7.11e-4 0.033125,-0.00935 0.044785,-0.015469 0.03173,0.00285 0.045916,0.013677 0.072266,0.022207 0.01368,0.00443 0.03351,2.64e-4 0.04623,0.00525 0.01703,0.00668 0.035517,0.019014 0.051797,0.027734 -0.0023,0.014821 -0.00321,0.043737 0.00379,0.057852 l 0.027676,0.00854 0.040469,-0.017148 c 0.01102,-0.025255 0.037,-0.06252 0.06168,-0.076621 0.0467,-0.00314 0.050649,-0.00298 0.096699,-0.018672 l 0.012598,-0.029863 0.049551,-0.00729 c 0.048533,0.034635 0.087207,0.052481 0.1488867,0.048691 -0.00795,-0.049876 0.01672,-0.053359 0.02502,-0.099082 0.01151,-0.00436 0.027412,-0.013581 0.038672,-0.014941 0.0193,-0.00233 0.040879,0.00165 0.060449,4.49e-4 0.03088,-0.0019 0.062383,-0.0066 0.093203,-0.00986 l 0.017227,0.00934 0.01625,-0.0073 c 0.00294,-0.022066 0.00561,-0.054144 0.022813,-0.069844 0.027199,-0.0044 0.1188075,0.057826 0.1321875,0.083359 l 0.020547,-0.00543 c 0.00347,0.012001 0.016542,0.027251 0.027012,0.033691 5e-5,0.035902 0.041569,0.090474 0.061269,0.1187304 0.02349,0.00272 0.05087,0.00983 0.07199,0.020723 0.01468,-0.00506 0.02958,-0.014581 0.0423,-0.023301 0.01341,0.00599 0.02901,0.012486 0.04365,0.014766 0.0057,0.052476 0.01847,0.1514976 0.0467,0.1972266 0.01075,0.017422 0.02506,0.031116 0.03566,0.049844 0.01636,0.029012 0.02095,0.073907 0.02695,0.1064844 l 0.06762,0.06498 c -0.0013,0.00728 -0.0041,0.01544 -0.0028,0.02293 l 0.0365,0.020703 0.0081,0.032793 c 0.0311,0.00586 0.06353,0.015181 0.09389,0.026836 l 0.04707,0 0.0055,-0.00611 0.01033,-5.47e-4 0.0075,0.00666 0.07133,0 0.01018,-0.00959 c -0.0043,-0.014717 0.01064,-0.040987 0.02004,-0.050937 l 0.01422,-0.00488 c 0.0048,0.0013 0.03583,0.01026 0.03793,0.010312 0.04415,0.00127 0.135339,-0.03659 0.170879,-0.063203 0.01918,0.00636 0.04033,0.00565 0.05783,-0.00516 l 0.01529,0.013691 0.01785,-0.015469 0.02092,0.00303 c 0.01924,-0.013173 0.03713,-0.015756 0.05912,-0.019746 l 0.02596,0.019395 0.01859,-9.77e-4 0.01992,-0.015566 c 0.02322,9.58e-4 0.04738,0.016247 0.04988,0.040977 0.02693,-0.015978 0.05524,-2e-5 0.08076,-0.014219 l -0.0032,-0.00791 c 0.0048,-0.025558 0.04352,-0.057444 0.06057,-0.076269 0.0015,-0.034757 0.0061,-0.063601 0.01582,-0.09625 -0.0218,-0.054559 -0.0035,-0.056495 -0.0015,-0.1097657 0.0019,-0.049655 -1.7e-4,-0.1227979 0.02478,-0.1671679 -0.02094,-0.047469 -0.01954,-0.097945 -0.0076,-0.146836 0.0041,-0.016969 0.0072,-0.040922 0.01381,-0.056699 0.01751,-0.041518 0.08166,-0.099496 0.121054,-0.1201758 0.01092,-0.030935 0.03062,-0.070734 0.0515,-0.095898 0.0011,-0.00127 0.0208,-0.014372 0.0234,-0.016172 0.05394,-0.03728 0.150294,-0.077671 0.184805,-0.1225586 0.0066,-0.048018 0.0439,-0.1056975 0.02389,-0.1525195 l -0.02789,-0.015293 c -0.0088,-0.05758 0.0458,-0.098855 0.07904,-0.1385547 -0.002,-0.062929 -0.02397,-0.1915769 0.02191,-0.2396289 0.0095,-0.00998 0.02417,-0.016974 0.03437,-0.026484 0.0089,-0.00832 0.01789,-0.024035 0.02559,-0.034395 l 0.0034,-0.060253 c 0.0087,-0.00554 0.01692,-0.017097 0.02182,-0.025957 -0.01439,-0.02195 -0.01157,-0.058426 3.5e-4,-0.080879 0.007,-0.013268 0.02577,-0.023964 0.03397,-0.036894 0.0074,-0.011586 0.01308,-0.027695 0.01908,-0.040254 l 0.03662,-0.024531 c 6.4e-4,-0.00534 0.0014,-0.010809 0.0024,-0.016309 l -9.7842189,0 z"
     id="rect8"
     inkscape:connector-curvature="0" />
  <path
     style="fill:#ee1c25"
     d="m 0.02474972,4.007494 c 0.01244424,0.00349 0.02888008,0.00401 0.03857422,0.00281 0.011971,0.036588 0.0276056,0.056846 0.0663086,0.064336 l 0.0142187,0.023555 -0.002617,0.023828 -0.0215039,0.025762 0.0143359,0.045508 c 0.020677,0.010538 0.0332762,0.043734 0.0441602,0.06373 l 0.0474609,0.00533 0.0118359,0.014941 c 0.004202,0.02638 2.325e-4,0.055248 -9.375e-4,0.081758 -0.001339,0.030383 0.0232942,0.063418 0.0335352,0.089863 0.009059,0.023405 0.0154969,0.049307 0.0230469,0.07332 0.006534,0.020805 0.0116347,0.041084 0.0148047,0.062852 0.052753,0.023754 0.0561978,0.044563 0.0908398,0.073848 0.008529,0.00721 0.0230477,0.011629 0.0325977,0.017949 0.030135,0.019942 0.0493491,0.084584 0.0562891,0.1192774 0.011475,0.00894 0.0331739,0.013772 0.0474609,0.018652 l 0.001953,0.00891 c -0.015445,0.023438 -0.0310127,0.052644 -0.0382227,0.08 l 0.0112695,0.033047 -0.0119727,0.013262 4.102e-4,0.01082 0.0163086,0.015293 c 0.005621,0.012246 -0.0105659,0.044928 -0.0168359,0.054668 l 0.00291,0.02418 c 0.019323,0.015775 0.054792,0.00167 0.070625,-0.012266 0.012223,0.012236 0.0385561,0.023597 0.0559961,0.023105 0.007643,0.00883 0.0329703,0.04073 0.0420703,0.04541 0.001055,-4.65e-4 0.063852,-0.028412 0.0645117,-0.028359 0.0564506,0.00485 0.0713475,0.00141 0.12498047,-0.00781 0.020719,0.034124 0.0399789,0.068331 0.0590039,0.1033594 l 0.0803516,-0.00896 c 0.015399,0.017758 0.0215922,0.025682 0.0294922,0.031152 0.0078,0.00541 0.017255,0.00842 0.038887,0.016211 0.00111,4.02e-4 0.039318,-2.41e-4 0.045508,-2.54e-4 0.031056,0.035242 0.060644,0.074129 0.094023,0.1067383 0.025168,0.024589 0.059319,0.051744 0.080879,0.079004 0.01711,0.021638 0.032041,0.056759 0.045859,0.081231 9.52e-4,0.00169 0.00967,0.017961 0.010625,0.01877 0.023696,0.020132 0.052983,0.041054 0.074473,0.063281 0.015418,0.015945 0.026949,0.039085 0.040879,0.056797 0.031261,0.039737 0.068306,0.075727 0.1004297,0.1150977 l 0.064824,-0.00613 c 0.040629,0.012033 0.063171,0.043759 0.096777,0.065332 0.028361,0.018204 0.087162,0.050455 0.1070704,0.077676 0.010774,0.014724 0.019872,0.040773 0.029082,0.059629 0.034548,0.00892 0.06848,0.016303 0.1041015,0.020273 l 0.035312,0.029687 c 0.013895,-0.00339 0.032307,-0.010149 0.046289,-0.011289 0.00586,-4.8e-4 0.00914,7.71e-4 0.015,0.00127 0.020176,0.00171 0.040671,0.00371 0.060957,0.00236 0.019514,-0.00129 0.039007,-0.00851 0.058711,-0.00418 0.026421,0.00581 0.042072,0.020096 0.071582,0.017246 0.031837,-0.017726 0.045469,-0.013093 0.081426,-0.01334 l 0.042832,-0.053418 c 0.028933,0.00744 0.051769,0.019285 0.078867,0.032637 0.032481,0.016004 0.033102,-0.00579 0.056758,-0.017168 0.022978,-0.011062 0.088253,-0.01377 0.1142382,-0.01209 0.060568,0.00393 0.1323836,0.0296 0.1903516,0.04625 l 0.051582,0.014824 c 0.032513,0.00292 0.069574,-0.00685 0.1025782,-0.00605 0.020395,4.88e-4 0.050787,0.00582 0.070859,0.010234 0.014832,0.00326 0.033108,0.014461 0.047754,0.015801 0.042016,0.00384 0.080517,-0.018296 0.1195704,-0.027266 0.044162,-0.010144 0.093321,-0.00833 0.1349218,-0.029609 0.018728,-0.00957 0.038981,-0.026844 0.056523,-0.038926 l 0.012031,-0.00828 0.06002,0.00561 0.042188,0.034492 c 0.038141,0.00691 0.059371,-0.020067 0.090059,-0.033594 l 0.044121,-0.013692 c 0.00861,-0.00268 0.01307,-0.00641 0.02207,-0.00686 0.019781,-9.78e-4 0.076544,0.017532 0.099004,0.025762 0.069851,0.0256 0.066191,0.018887 0.1391407,0.015937 0.037105,-0.037973 0.070567,-0.079644 0.119375,-0.1032031 l 0.014297,-0.07127 c 0.011598,-0.00664 0.027745,-0.018639 0.040039,-0.022949 0.018766,-0.00658 0.118137,-0.00819 0.133086,-0.00623 0.032162,0.00421 0.066318,0.015326 0.098242,0.022676 0.010466,-0.018631 -0.00898,-0.064845 -0.022988,-0.076543 -0.032008,-0.014988 -0.059159,-0.00185 -0.066719,-0.062207 -0.011768,-0.016657 -0.034607,-0.011056 -0.048418,-0.032598 -0.010446,-0.016302 -0.016104,-0.032522 -0.028398,-0.048164 -0.00218,-0.00278 -0.00402,-0.00398 -0.00561,-0.00715 -0.023414,-0.046647 0.00327,-0.2789235 0.00883,-0.3271485 0.015176,-0.021645 0.051611,-0.010357 0.061211,-0.039629 l 0.012734,-0.00391 0.00432,-0.015215 c 0.00421,-0.024647 -0.00958,-0.054159 -0.00492,-0.066758 0.00904,-0.00328 0.020161,-0.015734 0.022051,-0.025234 -0.00263,-0.011211 -0.01431,-0.028817 -0.025664,-0.033047 0.025811,-0.039832 0.073232,-0.037956 0.1142578,-0.033516 0.057987,-0.026613 0.06392,-0.043469 0.1064649,-0.085781 0.01198,0.00224 0.022999,0.0031 0.035254,0.00385 l 0.017129,-0.013789 0.00959,0.00143 c 0.00877,0.013559 0.015758,0.025958 0.029141,0.035918 l 0.022754,0.00195 c 0.010869,0.014574 0.023038,0.02198 0.039863,0.02623 l 0.072891,-0.037871 c 0.020222,-0.00257 0.053042,0.025054 0.06957,0.035918 l 0.019785,6.06e-4 c 0.010434,-0.013287 0.031949,-0.028836 0.048516,-0.033066 0.019936,0.00349 0.054473,0.00975 0.074785,0.00693 0.010461,-0.00146 0.021012,-0.00688 0.031465,-0.00828 0.019516,-0.00261 0.034581,0.012055 0.051602,0.018145 0.021619,0.00774 0.056962,0.01 0.079512,0.011719 0.014561,0.00111 0.033354,-0.00258 0.047344,1.76e-4 0.0142,0.00279 0.024445,0.019235 0.041895,0.015195 l 0.044551,-0.068418 c 0.0083,0.00608 0.024642,0.010741 0.034922,0.00914 l 0.016289,-0.016543 0.017891,-0.00424 0.010684,-0.013965 c 0.049597,-0.01966 0.1593218,-9.31e-4 0.1836718,-0.019024 l 0.026797,0.017871 c 0.026847,-0.00572 0.096039,-0.03492 0.1087891,-0.059023 l 0.011777,0.00213 c 0.0052,0.00794 0.00351,0.030815 0.00201,0.039375 l 0.019141,0.013418 0.011601,-0.011816 c 0.03825,-0.020869 0.025952,-0.058791 0.033652,-0.09252 0.0011,-0.00439 0.00814,-0.01325 0.009,-0.0175 0.00239,-0.011819 0.0018,-0.027285 0.0026,-0.039473 l 5.86e-4,-0.00916 0.031992,-0.033672 c 0.00781,-0.022201 0.00222,-0.060091 7.23e-4,-0.084355 0.01919,-0.01814 0.021646,-0.073877 0.038086,-0.1038086 0.00448,-0.00819 0.014818,-0.017573 0.020918,-0.024883 0.02437,-0.00609 0.062031,-3.91e-4 0.085801,0.00506 0.0022,-0.00153 0.00459,-0.00362 0.00699,-0.0048 0.00338,-0.00166 0.031942,-0.01513 0.033242,-0.01627 0.02408,-0.021257 0.036749,-0.05063 0.065469,-0.069668 0.039061,-0.00213 0.080896,0.010373 0.1172656,0.023184 0.00871,0.011462 0.010092,0.040007 0.00869,0.05334 l 0.019082,0.029512 c 0.051746,0.033426 0.080031,-0.018902 0.1270508,-0.016992 0.03477,0.010253 0.047686,0.050619 0.080176,0.065957 l 0.00619,0.024453 c -0.00583,0.017875 -0.016669,0.03784 -0.028789,0.052246 0.00168,0.015292 0.01093,0.034191 0.02043,0.046035 0.00249,-4.2e-4 0.021202,-0.00321 0.022402,-0.00389 0.00333,-0.00195 0.036359,-0.021769 0.037559,-0.021875 0.0145,-0.00124 0.026313,-0.00402 0.038223,-0.013594 l 0.0091,-0.015293 0.01457,8.98e-4 0.01332,0.01127 0.026738,-0.00221 c 0.03272,0.014942 0.068997,0.042312 0.086797,0.073867 -0.01112,0.01271 -0.0189,0.037909 -0.0225,0.053848 l 0.00959,0.01584 c 0.069653,-0.00912 0.09162,-0.064072 0.1404297,-0.1050781 0.01234,-0.010369 0.029662,-0.019498 0.043262,-0.028438 0.02369,-0.015564 0.054933,-0.011602 0.074063,-0.030918 l 0.041777,0.029863 0.067598,-0.034473 -0.024941,-0.027109 9.37e-4,-0.01459 c 0.01765,-0.00307 0.053916,-0.029733 0.069336,-0.039453 0.01924,-0.012142 0.035839,-0.027593 0.052559,-0.043027 0.00291,-0.00268 0.031712,-0.030171 0.032695,-0.031641 0.01709,-0.025473 0.00761,-0.088786 0.00531,-0.1167968 0,-0.00127 0.00274,-0.010895 0.00318,-0.012695 0.02977,-0.010764 0.063808,0.035305 0.096758,0.044355 l 0.017773,-0.011738 0.0066,-0.021328 0.023945,-0.012266 c 0.0133,0.00621 0.038605,0.00709 0.051855,8e-5 0.0086,-0.01293 0.011495,-0.03988 0.010195,-0.054746 l 0.00949,-0.011113 c 0.025981,9.78e-4 0.087722,0.03915 0.1099219,0.05377 l 0.030937,-0.0024 c 0.04143,-0.024594 0.041011,-0.056494 0.062031,-0.091621 L 7.544359,4.0269883 c 0.00424,-0.00709 0.0083,-0.013545 0.012637,-0.019492 l -7.53224604,0 z m 10.41740228,0 c 0.02993,0.00753 0.06009,0.017747 0.08742,0.029961 l 0.01838,-0.00514 0.0098,-0.010937 0.01033,-5.47e-4 0.0087,0.00773 0.02508,0.00275 0.01777,0.021856 0.03744,-0.035273 c -8.83e-4,-0.00304 -7.88e-4,-0.00664 -2.54e-4,-0.01041 l -0.214668,0 z"
     id="rect6"
     inkscape:connector-curvature="0" />
  <g
     id="g12"
     transform="translate(1.0000036,0.00749403)">
    <path
       d="M 3.16255,4.635 C 2.62474,4.37595 1.85545,3.86177 1.85545,2.84467 1.85545,1.82756 1.90408,1.365 1.90408,1.365 l 1.25847,0 1.2585,0 c 0,0 0.04864,0.46256 0.04864,1.47967 0,1.0171 -0.76929,1.53128 -1.30714,1.79033 z"
       id="path14"
       inkscape:connector-curvature="0"
       style="fill:#ffffff" />
    <path
       d="M 3.16255,4.5 C 2.66915,4.26234 1.96338,3.79062 1.96338,2.85749 1.96338,1.924362 2.007992,1.5 2.007992,1.5 l 1.15456,0 1.15459,0 c 0,0 0.044626,0.424365 0.044626,1.35749 0,0.933128 -0.705776,1.40485 -1.19921,1.64251 z"
       id="path16"
       inkscape:connector-curvature="0"
       style="fill:#ee1c25" />
    <path
       d="M 3.26808,2.61284 C 3.401679,2.615 3.662335,2.62023 3.894432,2.542567 c 0,0 -0.00613,0.083055 -0.00613,0.179805 0,0.096773 0.00613,0.179822 0.00613,0.179822 -0.21289,-0.07125 -0.4758,-0.07273 -0.62635,-0.07082 l 0,0.515391 -0.211033,0 0,-0.515391 c -0.150545,-0.00191 -0.41345,-4.252e-4 -0.626352,0.070815 0,0 0.00613,-0.083049 0.00613,-0.179822 0,-0.09675 -0.00613,-0.179805 -0.00613,-0.179805 0.2321,0.077665 0.492753,0.072432 0.626352,0.070273 l 0,-0.323676 c -0.121766,-0.00108 -0.297234,0.00473 -0.49563,0.071126 0,0 0.00613,-0.083055 0.00613,-0.179822 0,-0.096756 -0.00613,-0.179811 -0.00613,-0.179811 0.198103,0.066283 0.373356,0.072192 0.495088,0.071137 -0.00626,-0.20498 -0.06597,-0.46332 -0.06597,-0.46332 0,0 0.12289,0.00959 0.172016,0.00959 0.049178,0 0.172031,-0.00959 0.172031,-0.00959 0,0 -0.059695,0.258346 -0.065964,0.463301 0.121741,0.00106 0.296989,-0.00485 0.495086,-0.071137 0,0 -0.00613,0.083055 -0.00613,0.179811 0,0.096767 0.00613,0.179822 0.00613,0.179822 C 3.565318,2.293874 3.389843,2.288059 3.268079,2.28914 l 0,0.323676 z"
       id="path18"
       inkscape:connector-curvature="0"
       style="fill:#ffffff" />
    <path
       d="m 3.1625,3.29094 c -0.24847,0 -0.381562,0.344688 -0.381562,0.344688 0,0 -0.073834,-0.163438 -0.276562,-0.163438 -0.137161,0 -0.238243,0.12201 -0.3025,0.235 0.24954,0.39705 0.64768,0.64207 0.96062,0.79281 0.31299,-0.15075 0.71139,-0.39571 0.96094,-0.79281 -0.064256,-0.11299 -0.165339,-0.235 -0.3025,-0.235 -0.202734,0 -0.276875,0.163438 -0.276875,0.163438 0,0 -0.133073,-0.344688 -0.381562,-0.344688 z"
       id="path20"
       inkscape:connector-curvature="0"
       style="fill:#0b4ea2" />
  </g>
</svg>
