<?xml version="1.0" encoding="UTF-8" standalone="no"?>
<!-- Created with Inkscape (http://www.inkscape.org/) -->

<svg
   xmlns:dc="http://purl.org/dc/elements/1.1/"
   xmlns:cc="http://creativecommons.org/ns#"
   xmlns:rdf="http://www.w3.org/1999/02/22-rdf-syntax-ns#"
   xmlns:svg="http://www.w3.org/2000/svg"
   xmlns="http://www.w3.org/2000/svg"
   xmlns:xlink="http://www.w3.org/1999/xlink"
   xmlns:sodipodi="http://sodipodi.sourceforge.net/DTD/sodipodi-0.dtd"
   xmlns:inkscape="http://www.inkscape.org/namespaces/inkscape"
   version="1.0"
   width="619.85107"
   height="374.28925"
   id="Layer_1"
   xml:space="preserve"
   inkscape:version="0.92.3 (2405546, 2018-03-11)"
   sodipodi:docname="Flag-map_of_Slovenia.svg"><metadata
     id="metadata17"><rdf:RDF><cc:Work
         rdf:about=""><dc:format>image/svg+xml</dc:format><dc:type
           rdf:resource="http://purl.org/dc/dcmitype/StillImage" /></cc:Work></rdf:RDF></metadata><sodipodi:namedview
     pagecolor="#ffffff"
     bordercolor="#666666"
     borderopacity="1"
     objecttolerance="10"
     gridtolerance="10"
     guidetolerance="10"
     inkscape:pageopacity="0"
     inkscape:pageshadow="2"
     inkscape:window-width="1920"
     inkscape:window-height="1017"
     id="namedview15"
     showgrid="false"
     inkscape:zoom="1"
     inkscape:cx="127.88642"
     inkscape:cy="232.28175"
     inkscape:window-x="-8"
     inkscape:window-y="-8"
     inkscape:window-maximized="1"
     inkscape:current-layer="Layer_1" /><defs
     id="defs3"><inkscape:perspective
       sodipodi:type="inkscape:persp3d"
       inkscape:vp_x="0 : 300 : 1"
       inkscape:vp_y="0 : 1000 : 0"
       inkscape:vp_z="1200 : 300 : 1"
       inkscape:persp3d-origin="600 : 200 : 1"
       id="perspective19" /><inkscape:perspective
       id="perspective3679"
       inkscape:persp3d-origin="0.5 : 0.33333333 : 1"
       inkscape:vp_z="1 : 0.5 : 1"
       inkscape:vp_y="0 : 1000 : 0"
       inkscape:vp_x="0 : 0.5 : 1"
       sodipodi:type="inkscape:persp3d" /><inkscape:perspective
       id="perspective2832"
       inkscape:persp3d-origin="0.5 : 0.33333333 : 1"
       inkscape:vp_z="1 : 0.5 : 1"
       inkscape:vp_y="0 : 1000 : 0"
       inkscape:vp_x="0 : 0.5 : 1"
       sodipodi:type="inkscape:persp3d" /><inkscape:perspective
       id="perspective2845"
       inkscape:persp3d-origin="0.5 : 0.33333333 : 1"
       inkscape:vp_z="1 : 0.5 : 1"
       inkscape:vp_y="0 : 1000 : 0"
       inkscape:vp_x="0 : 0.5 : 1"
       sodipodi:type="inkscape:persp3d" /><inkscape:perspective
       id="perspective3605"
       inkscape:persp3d-origin="0.5 : 0.33333333 : 1"
       inkscape:vp_z="1 : 0.5 : 1"
       inkscape:vp_y="0 : 1000 : 0"
       inkscape:vp_x="0 : 0.5 : 1"
       sodipodi:type="inkscape:persp3d" /><inkscape:perspective
       id="perspective3618"
       inkscape:persp3d-origin="0.5 : 0.33333333 : 1"
       inkscape:vp_z="1 : 0.5 : 1"
       inkscape:vp_y="0 : 1000 : 0"
       inkscape:vp_x="0 : 0.5 : 1"
       sodipodi:type="inkscape:persp3d" /><inkscape:perspective
       id="perspective3631"
       inkscape:persp3d-origin="0.5 : 0.33333333 : 1"
       inkscape:vp_z="1 : 0.5 : 1"
       inkscape:vp_y="0 : 1000 : 0"
       inkscape:vp_x="0 : 0.5 : 1"
       sodipodi:type="inkscape:persp3d" /><inkscape:perspective
       id="perspective3644"
       inkscape:persp3d-origin="0.5 : 0.33333333 : 1"
       inkscape:vp_z="1 : 0.5 : 1"
       inkscape:vp_y="0 : 1000 : 0"
       inkscape:vp_x="0 : 0.5 : 1"
       sodipodi:type="inkscape:persp3d" /></defs><path
     style="fill:#ffffff;stroke:#005ce5;stroke-width:2.0999999;stroke-miterlimit:4;stroke-opacity:1;stroke-dasharray:none"
     d="m 551.3625,1.0500067 c -7.96261,0.005 -15.003,2.30075 -22.5625,5.125 -4.71,-6.77999994 -14.029,-2.392 -17,4.0000003 l -9.75,1.25 -3.75,2.25 c -0.332,8.29 2.77,16.075 1.75,24.75 l 8.75,13.25 -1,3.5 c -9.2,-6.884 -20.67,-9.371 -30.75,-14.75 -8.1,0.105 -14.979,3.14301 -22,7 -8.57,0.166 -18.763,-5.96999 -25,3 -4.618,-2.885 -9.553,0.264 -13.75,2.25 0.94,7.193 -4.092,11.616 -9.25,15.75 l -5.75,-0.25 c -0.35,-9.2011 -14.243,-12.193 -21.25,-8.75 -8.1,-4.097 -15.739,-1.111 -24,1 -15.26,-3.43 -39.345,-8.33 -48.25,8.75 l -4.75,-3.75 c -5.72,2.315 -10.816,6.465 -17.75,5.25 -6.297,7.06 -7.538,16.202 -10.5,24.5 -5.09,3.649 -11.611,1.6045 -17.5,2.5 l -9.5,12.500003 -11.5,1.5 c -3.724,4.81 -4.524,11.279 -8.25,15.75 -3.403,-2.596 -4.889,-7.192 -7.25,-10.75 -3.145,-0.949 -6.016,0.643 -8.75,1.75 -2.974,-2.371 -9.0709,-1.498 -8.25,-6.75 -0.573,-0.4327 -0.8954,-1.2723 -1.75,-1.25 -9.31,2.271 -18.902,5.941 -28,1 -4.645,2.296 -9.722,3.712 -14.25,0.25 -9.196,4.84 -12.431,-6.283 -18.75,-10.25 -6.42,-1.055 -12.876,-3.150003 -19,0 l -17,-9.000003 -22,3 c -5.76,-1.354 -11.484,-3.806 -17.75,-2.75 -2.945,6.33 -2.677,13.920003 -5.5,20.500003 l -17.5,0.5 c -5.93,10.203 -17.46,17.715 -29,19 -0.197,1.394 -0.4827,2.583 -1.25,3.75 1.28,7.244 -8.319,9.039 -11,15 2.00174,5.88597 6.82946,10.99113 7.375,17.4375 l 452.8125,0 c 0.61635,-3.24368 0.0599,-7.01955 3.0625,-9.1875 l 37.5,-10.5 c 3.427,-5.86 10.4801,-10.203 10.5,-17.5 6.42,-1.186 12.681,-2.208 17.75,-6.25 5.95,7.082 15.055,6.6272 23.75,5.75 l 2.25,-4.75 c 0.23,-15.68 17.354,-20.12 21.25,-33.750003 l 16.5,4 c 5.39,7.928703 15.936,13.823003 25,8.500003 0.12,-6.165003 -9.926,-4.227 -13.5,-8.000003 1.05,-6.8 -2.98,-15.695 -10,-18 -2.99,-8.871 -12.173,-12.778 -18.25,-18.75 l 0.25,-1.75 c 6.529,1.61 6.4547,-4.179 5.5,-9 -2.544,-3.022 -8.9524,-1.57 -8,-7 -5.75,-0.576 -6.288,-6.635 -9.5,-10.5 1.794,-2.413 0.026,-5.254 -1,-7.5 0.929,-1.539 3.4655,-1.173 3.75,-3.25 -0.84,-3.868 1.2849,-7.155 0.75,-10.75 L 557.05,1.4250067 c -1.95187,-0.26625 -3.84998,-0.376 -5.6875,-0.375 z"
     id="rect3212" /><path
     style="fill:#ff0000;fill-opacity:1;stroke:#ff0000;stroke-width:2.0999999;stroke-linejoin:round;stroke-miterlimit:4;stroke-opacity:1;stroke-dasharray:none"
     d="m 40.20625,270.17501 c 0.98416,2.92859 2.63699,5.67063 5.09375,8 l 4.75,0.25 c 2.178,1.8258 5.214,0.4672 7.75,1.25 5.71,6.849 12.336,12.0389 21,13 7.11,8.95 11.18,21.463 22.25,25.75 l -0.25,2.75 c -7.1,5.344 -13.49,14.986 -23.5,10 -5.06,-1.793 -10.31,-4.3609 -16,-3.5 -2.46,6.419 7.74,5.375 7.75,10.75 1.885,-0.1397 -0.1397,1.885 0,0 -9.35,-2.108 -16.426,4.12 -25,2 -2.345,3.816 -4.86,2.1826 -8.75,2.25 -1.3562,0.806 -1.3806,2.352 -1.25,3.75 1.132,2.247 1.17,5.6952 4.75,5.25 l -0.5,6.5 c 6.14,3.598 12.315,7.132 18.75,10.25 6.92,-1.469 12.334,-8.118 20,-7 8.49,1.995 17.181,2.729 24,9 7.18,-2.658 13.222,-7.864 21.75,-6.25 1.181,-3.103 2.511,-6.387 4.25,-8.75 25.13,13.14 52.19,-0.885 77.75,-4.25 3.008,-2.453 7.147,-2.375 10,-5 0.9771,-5.27 3.06,-10.287 1.5,-15.5 l 10.5,-7.5 c 0.918,-3.7 2.014,-7.463 4.5,-10.5 l 6.5,1 c 0.904,5.8 2.893,11.402 5.5,16.5 5.9763,0.98 12.033,6.339 6.75,12.25 l 0.25,2.75 c 10.12,0.06 22.622,6.02 24,17 l 2,2 c 5.94,-2.698 19.98,-0.06 17.75,-10.75 1.158,-1.375 0.8658,-3.09 1.25,-4.75 0.663,-0.834 1.591,-1.5685 2.75,-1.25 2.775,2.21 5.847,3.938 8.25,6.75 3.54,-0.236 6.331,0.772 8.75,3.25 3.865,-0.1725 7.082,-1.731 10.75,0.25 l 0.5,4.5 c 5.97188,2.02963 11.04393,11.20879 17.25,11.0625 1.43217,-0.0338 2.92163,-0.58606 4.5,-1.8125 4.572,3.371 7.495,-0.334 9.25,-4.75 1.238,-1.642 2.991,-2.4507 4.75,-3.25 4.654,0.232 8.824,3.103 13.75,1.75 2.68,-3.475 7.192,-4.782 9.25,-8.75 -3.26,-5.281 -9.869,-6.466 -13.75,-11.25 -0.696,-6.54 -1.492,-13.043 -5,-18.5 l 3.5,-1.5 0.5,-4.5 c 6.24,-1.311 10.053,-4.142 16.5,-2.5 2.914,-4.679 0.541,-11.916 -4.5,-14 -0.543,-2.842 -2.79,-4.934 -5.25,-6.75 l -8,6 c -2.848,-3.576 -8.9589,-2.37 -9.75,-7.75 13.19,-6.154 25.52,-14.5316 40.5,-14.5 0.41882,-3.8795 -0.32418,-7.86062 2.09375,-11 l -361.6875,0 z m 363.8125,0 c 1.30316,2.87979 5.28074,2.12072 7.59375,0 l -7.59375,0 z m 26.71875,0 c 0.80396,0.50103 1.57096,0.93864 2.3125,1.25 0.86398,-0.2994 1.60044,-0.73501 2.25,-1.25 l -4.5625,0 z"
     id="rect6123" /><path
     style="fill:#005ce5;fill-opacity:1;stroke:#005ce5;stroke-width:2.0999999;stroke-linejoin:miter;stroke-miterlimit:4;stroke-opacity:1;stroke-dasharray:none"
     d="m 8.1437499,167.11251 c 0.32982,1.60509 0.43039,3.26697 0.15625,5.0625 3.6740001,1.424 5.6150001,-0.544 7.7500001,-2.75 4.38,5.2441 14.825,-2.036 17.25,5.75 2.2,0.255 2.057,3.0184 4,4 5.22,1.6842 13.107,-2.262 16.75,2.25 -0.5718,2.22 -1.187,4.327 -1.25,6.75 -10.12,6.68 -17.66,18.332 -29.5,21.5 -0.47,3.341 1.8879,6.318 1.75,9.75 l -5,7 c 3.095,4.18 7.864,6.989 12,10 5.6,-2.577 11.15,-6.279 17.75,-4.75 2.1032,3.444 0.752,8.056 2,11.5 -10.21043,4.99822 -14.93599,17.05439 -11.59375,27 l 361.6875,0 c 0.12808,-0.16629 0.25976,-0.33862 0.40625,-0.5 l 1.5,0 c 0.0543,0.17876 0.14783,0.34328 0.21875,0.5 l 7.59375,0 c 1.04524,-0.95834 1.72986,-2.2073 1.6875,-3.5 l 2.5,1.5 c 3.64896,-7.05581 9.80013,-1.20158 14.9375,2 l 4.5625,0 c 1.74124,-1.3805 3.00117,-3.25203 5.5,-4 -0.337,-7.61 -1.832,-15.482 5.25,-20.75 -0.25,-10.67 -1.04,-21.257 5,-30 -0.345,-2.441 -1.713,-4.812 -3.25,-6.75 -10.583,-2.75 -25.642,-10.5 -18.75,-23.25 -3.507,-4.836 -2.618,-8.798 0.25,-13.75 l 3,-2 c 1.2797,-0.38 0.258,2.1221 1.75,1.75 5.94,-3.666 11.917,-2.3324 18.75,-1.75 l 1.5,3.5 c 2.037,1.011 3.463,-1.2075 5.5,-1 1.19993,-1.40842 1.49559,-3.20414 1.6875,-5.0625 l -453.3437501,0 z"
     id="rect4183" /><path
     d="m 106.97464,123.47832 c -0.96059,0.41995 -1.91399,0.85591 -2.86024,1.30754 l 2.98087,46.76267 c 0.81198,12.74853 6.2805,24.81342 15.44494,33.89882 6.26687,6.21271 13.93872,10.71288 22.27576,13.19412 l 5.1e-4,0 c 8.33703,-2.48158 16.00924,-6.98141 22.27574,-13.19412 9.16409,-9.0854 14.63296,-21.15029 15.44459,-33.89882 l 2.98122,-46.76267 c -0.94659,-0.45163 -1.8993,-0.88759 -2.86061,-1.30754 l 5.2e-4,3.4e-4 -3.05123,47.86986 c -0.76353,12.04923 -5.93051,23.45288 -14.59131,32.03933 -5.70759,5.6593 -12.65003,9.81317 -20.19876,12.20509 l -8e-4,0 c -7.54909,-2.39192 -14.4908,-6.54579 -20.19839,-12.20509 -8.66116,-8.58645 -13.82814,-19.9901 -14.59131,-32.03933 l -3.05159,-47.8702 5.1e-4,0"
     id="path13"
     style="fill:#ff0000;fill-opacity:1" /><path
     d="m 182.65833,123.47866 c -11.81111,-5.16282 -24.68404,-7.90385 -37.84202,-7.90385 -13.15833,0 -26.03125,2.74103 -37.84237,7.90385 l 3.05194,47.86986 c 0.76317,12.04923 5.93014,23.45288 14.59132,32.03933 5.70795,5.6593 12.64967,9.81317 20.19839,12.20509 l 7.9e-4,0 c 7.54873,-2.39192 14.49117,-6.54579 20.19804,-12.20509 8.66153,-8.58645 13.82851,-19.9901 14.59132,-32.03933"
     id="path15"
     style="fill:#005ce5;fill-opacity:1" /><use
     transform="translate(10.68432,14.123333)"
     id="use2825"
     x="0"
     y="0"
     width="1200"
     height="600"
     xlink:href="#polyline19" /><polyline
     style="fill:#ffe500;fill-opacity:1"
     id="polyline19"
     points="90,23.232 94.669,16.854 86.811,17.709 83.622,10.476 80.433,17.709 72.575,16.854 77.244,23.232    72.575,29.61 80.433,28.755 83.622,35.988 86.811,28.755 94.669,29.61  "
     transform="matrix(0.35896774,0,0,0.3558858,104.1144,115.57481)" /><use
     transform="translate(21.3681,6.7603639e-6)"
     id="use2827"
     x="0"
     y="0"
     width="1200"
     height="600"
     xlink:href="#polyline19" /><path
     d="m 175.34293,178.3189 -15.26366,-20.1766 -6.10533,8.07078 -9.15797,-18.1587 -9.158,18.1587 -6.10533,-8.07078 -15.26331,20.1766 c 0,2.67554 1.07224,5.24114 2.98051,7.13301 1.90828,1.89118 4.49608,2.95494 7.19515,2.95494 1.80203,0 3.55485,-0.47405 5.08838,-1.35203 0.0103,-0.007 -0.0118,0.007 -0.003,0.002 0.76423,-0.43773 1.58879,-0.77868 2.4557,-1.00857 2.60682,-0.69221 5.38416,-0.33027 7.7214,1.00715 1.56043,0.89328 3.31757,1.35201 5.08873,1.35201 0.007,0 -0.009,0 -0.002,0 1.77148,0 3.52827,-0.45873 5.08908,-1.35201 2.33688,-1.33742 5.11457,-1.70007 7.72138,-1.00715 0.86656,0.22989 1.69111,0.57084 2.45535,1.00857 0.0104,0.007 -0.0118,-0.007 -0.002,-0.002 1.53388,0.87798 3.286,1.35203 5.08802,1.35203 2.69944,0 5.28724,-1.0634 7.1955,-2.95494 1.90828,-1.89187 2.98052,-4.45747 2.98052,-7.13301"
     id="path23"
     style="fill:#ffffff" /><path
     d="m 117.90523,189.27343 c 0.70034,1.37976 1.47032,2.72608 2.30707,4.0336 0,0 -3.6e-4,5.1e-4 0,0.002 2.14806,0.97939 4.58365,1.19078 6.88644,0.57902 0.86726,-0.22991 1.69146,-0.57121 2.4557,-1.00858 0.0104,-0.007 -0.0118,0.007 -0.002,0.002 1.5335,-0.87868 3.28633,-1.35202 5.08835,-1.35202 0.003,0 -0.004,0 -7.9e-4,0 1.77114,-5.2e-4 3.52826,0.45803 5.08872,1.35202 2.33723,1.33741 5.11457,1.69935 7.72175,1.00715 0.86654,-0.2299 1.6911,-0.57117 2.45534,-1.00857 0.0103,-0.007 -0.0118,0.007 -0.002,0.002 1.53316,-0.87867 3.286,-1.35202 5.08874,-1.35202 0.003,0 -0.006,0 -0.002,0 1.77115,-5.1e-4 3.52866,0.45803 5.08872,1.35202 2.33761,1.33743 5.11458,1.69936 7.7214,1.00716 0.55963,-0.14805 1.1006,-0.34342 1.61966,-0.57972 l 0,0 c 0.83711,-1.30824 1.60709,-2.65456 2.30745,-4.03361 0,-5.2e-4 0,0 0,0 -0.5083,0.19181 -1.00116,0.42385 -1.47357,0.69432 -0.0104,0.007 0.0132,-0.007 0.003,-0.002 -0.76423,0.4374 -1.58879,0.77796 -2.45605,1.00858 -2.60682,0.69221 -5.3838,0.33026 -7.7214,-1.00786 -1.56007,-0.89327 -3.31758,-1.3513 -5.08872,-1.3513 -0.003,0 0.006,0 0.002,0 -1.80236,0 -3.55521,0.47404 -5.08872,1.35201 -0.0104,0.007 0.0132,-0.007 0.002,-0.002 -0.76425,0.43773 -1.58878,0.77865 -2.45535,1.00857 -2.60719,0.69292 -5.38451,0.33098 -7.72176,-1.00716 -1.56043,-0.89326 -3.31756,-1.35201 -5.08871,-1.35201 -0.004,0 0.004,0 7.9e-4,0 -1.80202,0 -3.55486,0.47405 -5.08837,1.35272 -0.0104,0.007 0.0118,-0.007 0.002,-0.002 -0.76422,0.43738 -1.58842,0.77794 -2.45568,1.00857 -2.60684,0.6922 -5.38415,0.33025 -7.72141,-1.00787 -0.4742,-0.27119 -0.9667,-0.50251 -1.47212,-0.69293 -3.6e-4,0 0,-5e-4 0,0"
     id="path25"
     style="fill:#ffffff" /><path
     d="m 166.78442,197.01536 c -1.18567,1.50611 -2.46934,2.94779 -3.84706,4.31296 -5.14759,5.10341 -11.36061,8.90677 -18.12139,11.19796 l -3.8e-4,0 c -6.76078,-2.29119 -12.97418,-6.09383 -18.12176,-11.19796 -1.37737,-1.36517 -2.66102,-2.80685 -3.84671,-4.31296 0,0 -3.5e-4,0 0,0 1.40321,0.22385 2.85202,0.15586 4.25128,-0.2153 0.86725,-0.23062 1.69144,-0.57122 2.45567,-1.00861 0.0104,-0.007 -0.0118,0.007 -0.002,0.002 1.53352,-0.87867 3.28635,-1.35201 5.08837,-1.35201 0.003,0 -0.004,0 -7.9e-4,0 1.77114,-5.2e-4 3.52828,0.45802 5.08871,1.3513 2.33726,1.33811 5.11458,1.70007 7.72141,1.00786 0.86726,-0.23062 1.69182,-0.57119 2.45606,-1.00858 0.0103,-0.007 -0.0132,0.007 -0.002,0.002 1.53315,-0.87867 3.286,-1.35202 5.08802,-1.35202 0.003,0 -0.004,0 -5.3e-4,0 1.77116,-5.1e-4 3.52793,0.45803 5.08873,1.35132 2.03536,1.16552 4.40561,1.59045 6.70551,1.2228 5.3e-4,0 0,0 -5.1e-4,5.2e-4"
     id="path27"
     style="fill:#ffffff" /></svg>