<?xml version="1.0" encoding="UTF-8" standalone="no"?>
<svg
   xmlns:dc="http://purl.org/dc/elements/1.1/"
   xmlns:cc="http://creativecommons.org/ns#"
   xmlns:rdf="http://www.w3.org/1999/02/22-rdf-syntax-ns#"
   xmlns:svg="http://www.w3.org/2000/svg"
   xmlns="http://www.w3.org/2000/svg"
   xmlns:sodipodi="http://sodipodi.sourceforge.net/DTD/sodipodi-0.dtd"
   xmlns:inkscape="http://www.inkscape.org/namespaces/inkscape"
   width="1348.406"
   height="618.76617"
   viewBox="-35 -30 224.73433 103.1277"
   id="svg2"
   version="1.1"
   inkscape:version="0.48.2 r9819"
   sodipodi:docname="Flag_of_the_Solomon_Islands.svg">
  <metadata
     id="metadata38">
    <rdf:RDF>
      <cc:Work
         rdf:about="">
        <dc:format>image/svg+xml</dc:format>
        <dc:type
           rdf:resource="http://purl.org/dc/dcmitype/StillImage" />
      </cc:Work>
    </rdf:RDF>
  </metadata>
  <defs
     id="defs36" />
  <sodipodi:namedview
     pagecolor="#ffffff"
     bordercolor="#666666"
     borderopacity="1"
     objecttolerance="10"
     gridtolerance="10"
     guidetolerance="10"
     inkscape:pageopacity="0"
     inkscape:pageshadow="2"
     inkscape:window-width="1400"
     inkscape:window-height="988"
     id="namedview34"
     showgrid="false"
     fit-margin-top="0"
     fit-margin-left="0"
     fit-margin-right="0"
     fit-margin-bottom="0"
     inkscape:zoom="0.675"
     inkscape:cx="553.54963"
     inkscape:cy="303.83472"
     inkscape:window-x="-8"
     inkscape:window-y="-8"
     inkscape:window-maximized="1"
     inkscape:current-layer="svg2" />
  <clipPath
     id="rect">
    <rect
       x="-35"
       y="-30"
       width="200"
       height="100"
       id="rect5" />
  </clipPath>
  <path
     style="fill:#0051ba;fill-opacity:1;fill-rule:evenodd;stroke:#0051ba;stroke-width:0.16666667;stroke-linecap:round;stroke-linejoin:round;stroke-miterlimit:4;stroke-opacity:1;stroke-dasharray:none;stroke-dashoffset:0"
     d="m -34.392815,-14.644598 c -0.04801,-0.0196 -0.178494,-0.03702 -0.289957,-0.0387 -0.236634,-0.0036 -0.252923,-0.02902 -0.222343,-0.34728 0.01965,-0.204484 0.03908,-0.243271 0.152872,-0.305126 0.0717,-0.03897 0.181903,-0.112364 0.244896,-0.163086 0.130886,-0.105392 0.589977,-0.182409 0.636698,-0.106813 0.01573,0.02545 0.07654,0.04627 0.135139,0.04627 0.0586,0 0.106545,0.01916 0.106545,0.04259 0,0.02342 0.06858,0.104995 0.152396,0.181267 0.08382,0.07627 0.19098,0.204073 0.23814,0.284003 l 0.08574,0.145326 -0.18358,0.125261 c -0.158558,0.108189 -0.237121,0.128442 -0.576416,0.148597 -0.216061,0.01283 -0.432121,0.0073 -0.480135,-0.0123 z"
     id="path4203"
     inkscape:connector-curvature="0" />
  <path
     style="fill:#0051ba;fill-opacity:1;fill-rule:evenodd;stroke:#0051ba;stroke-width:0.16666667;stroke-linecap:round;stroke-linejoin:round;stroke-miterlimit:4;stroke-opacity:1;stroke-dasharray:none;stroke-dashoffset:0"
     d="m -29.987815,-19.88163 c -0.09788,-0.09788 -0.233309,-0.112943 -0.573191,-0.06374 l -0.227508,0.03294 -0.238631,-0.218096 c -0.199131,-0.181994 -0.275267,-0.222955 -0.459957,-0.247455 -0.121729,-0.01615 -0.221326,-0.03435 -0.221326,-0.04045 0,-0.0061 0.03928,-0.08814 0.0873,-0.18232 0.04801,-0.09417 0.0873,-0.200182 0.0873,-0.23557 0,-0.03539 0.04415,-0.111333 0.0981,-0.168766 0.07457,-0.07938 0.09631,-0.150656 0.09064,-0.297188 -0.007,-0.180651 -0.0019,-0.189804 0.08056,-0.145658 0.130915,0.07006 0.294569,0.01109 0.34622,-0.124763 0.04124,-0.108482 0.03553,-0.20815 -0.03123,-0.544842 -0.02183,-0.110113 -0.01269,-0.120034 0.110615,-0.120034 0.196559,0 0.325231,-0.14501 0.294841,-0.332278 -0.02799,-0.172454 0.03497,-0.201169 0.07668,-0.03498 0.03826,0.152447 0.21637,0.323225 0.339249,0.325287 0.0642,0.0011 0.131717,0.05179 0.187957,0.141193 0.06251,0.09936 0.131593,0.146919 0.240067,0.165252 0.208594,0.03525 0.475833,0.180653 0.629692,0.342604 0.108408,0.114111 0.160398,0.134944 0.336758,0.134944 0.171674,0 0.236237,0.0243 0.365076,0.137425 0.08609,0.07558 0.185394,0.193265 0.220688,0.261515 0.05959,0.11523 0.05585,0.140477 -0.05237,0.353621 -0.06409,0.126242 -0.114213,0.293368 -0.111376,0.371389 0.0059,0.162798 -0.03539,0.174066 -0.273442,0.0746 -0.150911,-0.06305 -0.16998,-0.06169 -0.30511,0.02182 -0.07928,0.049 -0.202788,0.08908 -0.274471,0.08908 -0.07852,0 -0.177137,0.04338 -0.248076,0.109121 -0.06476,0.06002 -0.143546,0.109122 -0.175082,0.109122 -0.03154,0 -0.107278,0.03928 -0.168318,0.0873 -0.135438,0.106536 -0.123991,0.106589 -0.231662,-0.0011 l 0,0 z"
     id="path4205"
     inkscape:connector-curvature="0" />
  <path
     style="fill:#0051ba;fill-opacity:1;fill-rule:evenodd;stroke:#0051ba;stroke-width:0.16666667;stroke-linecap:round;stroke-linejoin:round;stroke-miterlimit:4;stroke-opacity:1;stroke-dasharray:none;stroke-dashoffset:0"
     d="m -23.753476,-22.788423 c -0.05993,-0.06792 -0.09821,-0.167981 -0.09821,-0.256737 0,-0.07999 -0.04022,-0.239273 -0.08938,-0.353955 -0.124746,-0.291021 -0.101814,-0.416694 0.0848,-0.464734 0.130949,-0.03371 0.174976,-0.01971 0.37831,0.120337 l 0.230114,0.158485 -0.130324,0.291803 c -0.07168,0.160491 -0.163349,0.364768 -0.203715,0.453948 l -0.07339,0.162146 -0.09821,-0.111293 z"
     id="path4207"
     inkscape:connector-curvature="0" />
  <path
     style="fill:#0051ba;fill-opacity:1;fill-rule:evenodd;stroke:#0051ba;stroke-width:0.16666667;stroke-linecap:round;stroke-linejoin:round;stroke-miterlimit:4;stroke-opacity:1;stroke-dasharray:none;stroke-dashoffset:0"
     d="m -15.41359,-27.676673 c -0.01484,-0.03868 -0.16085,-0.485411 -0.32446,-0.992736 l -0.297472,-0.922409 0.160093,-0.163951 c 0.168474,-0.172533 0.313491,-0.207858 0.404269,-0.09848 0.0365,0.04397 0.13499,0.06551 0.299972,0.06559 0.228553,1.04e-4 0.270391,0.01756 0.601621,0.250979 0.21676,0.152753 0.382527,0.305512 0.423848,0.390589 0.03732,0.07685 0.118786,0.173087 0.181026,0.213868 0.104704,0.06861 0.131589,0.06902 0.35966,0.0055 0.214964,-0.05983 0.261851,-0.06067 0.366528,-0.0065 0.06602,0.03414 0.211096,0.06207 0.322396,0.06207 0.188583,0 0.221492,0.01837 0.483242,0.269713 0.154483,0.148342 0.333797,0.353359 0.398475,0.455594 0.06468,0.102234 0.16001,0.205205 0.211847,0.228823 0.05806,0.02646 0.10182,0.09453 0.11397,0.177311 l 0.01972,0.134367 -1.848875,0 c -1.659896,0 -1.851633,-0.0072 -1.875861,-0.07033 z"
     id="path4209"
     inkscape:connector-curvature="0" />
  <path
     style="fill:#0051ba;fill-opacity:1;fill-rule:evenodd;stroke:#0051ba;stroke-width:0.16666667;stroke-linecap:round;stroke-linejoin:round;stroke-miterlimit:4;stroke-opacity:1;stroke-dasharray:none;stroke-dashoffset:0"
     d="m 3.076712,-14.10045 c -0.040975,-0.04937 -0.097965,-0.06114 -0.2017634,-0.04167 -0.090333,0.01695 -0.1446566,0.0097 -0.1446566,-0.01942 0,-0.02561 -0.046705,-0.06784 -0.10379,-0.09385 -0.081472,-0.03712 -0.1390267,-0.03057 -0.2676417,0.03046 l -0.1638517,0.07775 -0.1220616,-0.14956 c -0.10075,-0.123446 -0.1550017,-0.151356 -0.3107034,-0.159848 -0.10375,-0.0057 -0.2704567,-0.02229 -0.3704567,-0.03697 -0.1,-0.01468 -0.2152616,-0.008 -0.256135,0.01491 -0.049617,0.02777 -0.14876663,0.02089 -0.29831664,-0.02069 -0.35230167,-0.09795 -0.34722334,-0.09533 -0.30048167,-0.154812 0.0701117,-0.08922 0.0403067,-0.903585 -0.0348083,-0.951104 -0.16052667,-0.101554 -0.34392668,-0.0081 -0.41002834,0.208832 -0.02805667,0.0921 -0.03543167,0.09368 -0.13433334,0.02888 -0.11929667,-0.07817 -0.36123834,-0.04741 -0.39889001,0.05071 -0.017955,0.04679 -0.0500583,0.03961 -0.14857,-0.03322 -0.12572334,-0.09295 -0.22055334,-0.08685 -0.5369134,0.03455 -0.02776,0.01065 -0.1582966,-0.05097 -0.290085,-0.136947 -0.197015,-0.128525 -0.26894,-0.152629 -0.4045717,-0.135584 -0.091905,0.01155 -0.2175533,-0.005 -0.2837166,-0.0373 -0.065317,-0.03192 -0.2812317,-0.09249 -0.4798117,-0.134602 l -0.3610533,-0.07657 -0.1488317,0.144253 c -0.111045,0.10763 -0.190556,0.145583 -0.313184,0.149496 -0.2057389,0.0066 -0.276532,-0.108257 -0.27746,-0.450016 -6.167e-4,-0.227 -0.00941,-0.244951 -0.207974,-0.42475 -0.241656,-0.218813 -0.2352349,-0.212437 -0.3995655,-0.396712 -0.1770505,-0.198536 -0.3781219,-0.195206 -0.6589124,0.01091 -0.2468893,0.181234 -0.3753375,0.202606 -0.3279037,0.05456 0.08813,-0.275063 0.07805,-0.375549 -0.049461,-0.493092 -0.2424268,-0.223475 -0.605008,-0.41973 -1.0603987,-0.573961 -0.4490552,-0.152086 -0.4693967,-0.164783 -0.7883137,-0.492045 -0.1800503,-0.184762 -0.3812275,-0.369031 -0.4470603,-0.409487 -0.065833,-0.04046 -0.1691585,-0.171165 -0.2296125,-0.290466 -0.126787,-0.250201 -0.627296,-0.88982 -0.8145897,-1.040993 -0.074629,-0.06023 -0.2055082,-0.270049 -0.3161598,-0.506838 L -9.17417,-20.959698 -9.4465211,-21.06394 c -0.269969,-0.10333 -0.2732569,-0.106653 -0.3759129,-0.379969 -0.056959,-0.151651 -0.19617,-0.397174 -0.309359,-0.545608 -0.113188,-0.148433 -0.278953,-0.373978 -0.368367,-0.501211 -0.08941,-0.127232 -0.239255,-0.286882 -0.332981,-0.354777 -0.106035,-0.07681 -0.215701,-0.216013 -0.290297,-0.368482 -0.06594,-0.13477 -0.228859,-0.396922 -0.362049,-0.582561 -0.133189,-0.185639 -0.250536,-0.359345 -0.26077,-0.386014 -0.01827,-0.04761 2.4810342,-1.896084 2.5636734,-1.896084 0.1085643,0 0.834333,0.407482 1.0880308,0.610874 0.452433,0.362719 0.9175505,0.568813 1.3368829,0.592373 0.1566145,0.0088 0.3887857,0.06359 0.5601097,0.132172 0.2539046,0.101644 0.3129083,0.147704 0.4459976,0.34815 0.1759775,0.265042 0.3545399,0.367914 0.6386134,0.367914 0.1860263,0 0.2034721,0.01076 0.3207677,0.197856 0.068223,0.108821 0.1842285,0.233678 0.2577906,0.27746 0.081982,0.04879 0.1499804,0.136196 0.1756842,0.225821 0.033533,0.116923 0.119948,0.199067 0.431322,0.410005 0.2868362,0.194315 0.4001308,0.298275 0.4301793,0.394734 0.022436,0.07202 0.06931,0.163743 0.1041657,0.203829 0.053561,0.0616 0.055674,0.135941 0.013645,0.480134 -0.06083,0.498159 0.011098,0.984578 0.207723,1.404758 0.070362,0.150358 0.1424467,0.370187 0.16019,0.488508 0.043528,0.290266 0.1286167,0.44088 0.2973534,0.526344 0.2198766,0.111365 0.2959016,0.195258 0.4098766,0.452301 0.058185,0.131222 0.1375034,0.273625 0.1762617,0.316453 0.076672,0.08472 0.2782367,0.102664 0.4030283,0.03588 0.066078,-0.03536 0.089233,-0.01456 0.1467467,0.131855 0.050187,0.127765 0.1091567,0.190921 0.2224767,0.238268 0.084803,0.03543 0.2472033,0.123413 0.36088669,0.195509 0.15296667,0.09701 0.25919834,0.131086 0.40864501,0.131086 0.18871334,0 0.209725,0.01188 0.32071334,0.181406 0.099205,0.151522 0.111775,0.201475 0.0763,0.303235 -0.03593,0.10307 -0.0234217,0.148121 0.0812283,0.292588 0.06803501,0.09392 0.19275834,0.213441 0.27716168,0.265606 0.084405,0.05216 0.19365167,0.162958 0.24277,0.246207 0.079035,0.133955 0.11008167,0.15136 0.26998167,0.15136 0.12904167,0 0.21774001,0.03119 0.31036168,0.109122 0.0947383,0.07972 0.18073333,0.109121 0.31914333,0.109121 0.18376,0 0.19167,0.0058 0.262975,0.1925 0.040433,0.105875 0.1305367,0.247128 0.2002267,0.313896 0.1088,0.104238 0.14365,0.115376 0.2465467,0.0788 0.1015416,-0.03609 0.119835,-0.06735 0.119835,-0.204803 0,-0.09243 0.021427,-0.162198 0.049808,-0.162182 0.027393,1.6e-5 0.144885,0.0786 0.2610917,0.174623 0.28399,0.234676 0.498065,0.250058 0.75508,0.05425 0.1066583,-0.08126 0.2189666,-0.119463 0.3928367,-0.133637 0.145375,-0.01185 0.28542,-0.05262 0.3475733,-0.101178 0.057252,-0.04473 0.167705,-0.08133 0.24545,-0.08133 l 0.1413533,0 -0.2044033,0.637718 c -0.1859367,0.580097 -0.2160017,0.642744 -0.3327483,0.693357 -0.181925,0.07887 -0.4365101,0.360639 -0.5227317,0.57855 -0.08008,0.202392 -0.1112434,0.220793 -0.197635,0.116698 l 0,0 z"
     id="path4211"
     inkscape:connector-curvature="0" />
  <path
     style="fill:#0051ba;fill-opacity:1;fill-rule:evenodd;stroke:#0051ba;stroke-width:0.16666667;stroke-linecap:round;stroke-linejoin:round;stroke-miterlimit:4;stroke-opacity:1;stroke-dasharray:none;stroke-dashoffset:0"
     d="m -11.549352,-3.749377 c -0.07167,-0.1573067 -0.307777,-0.2232567 -0.586471,-0.1638167 -0.117345,0.025027 -0.22194,0.03692 -0.232432,0.026427 -0.01049,-0.0105 0.03345,-0.1469867 0.09765,-0.3033217 0.0642,-0.156335 0.116731,-0.3095716 0.116731,-0.3405283 0,-0.030957 -0.112401,-0.1533283 -0.249781,-0.27194 -0.247459,-0.2136517 -0.252963,-0.2158 -0.592288,-0.2313267 l -0.342508,-0.015667 0.03035,-0.1807467 c 0.01669,-0.099412 0.05866,-0.2789567 0.09327,-0.39899 0.110489,-0.3832484 0.112424,-0.438845 0.02143,-0.6158017 -0.148997,-0.2897583 -0.353343,-0.540885 -0.440128,-0.540885 -0.09892,0 -0.135341,-0.08189 -0.135341,-0.304275 0,-0.2433134 -0.1168,-0.36703 -0.338317,-0.35835 -0.0974,0.00382 -0.245387,-0.021595 -0.328856,-0.05647 -0.134082,-0.056023 -0.155346,-0.087307 -0.182519,-0.26851 -0.02126,-0.1417334 -0.07018,-0.2445267 -0.158374,-0.332715 -0.113139,-0.11314 -0.147458,-0.124265 -0.302506,-0.09807 -0.173366,0.02929 -0.175619,0.027897 -0.258711,-0.1599484 -0.06609,-0.149415 -0.08672,-0.31412 -0.0975,-0.7787167 l -0.01368,-0.5892233 0.171947,-0.2570367 c 0.140943,-0.2106881 0.215712,-0.2762301 0.414662,-0.3634831 0.133493,-0.05855 0.286097,-0.160993 0.33912,-0.227662 0.07181,-0.09029 0.163672,-0.135491 0.360048,-0.177166 0.261552,-0.05551 0.264354,-0.05504 0.353337,0.05808 0.07484,0.09515 0.121353,0.11265 0.280892,0.105706 0.196341,-0.0085 0.371544,0.09121 0.371544,0.211545 0,0.147444 0.109059,0.278984 0.277988,0.335294 0.148124,0.049373 0.183012,0.083483 0.207411,0.2027811 0.03877,0.18957 0.12777,0.2716984 0.330048,0.3045734 l 0.166646,0.027083 0.07249,0.3434667 c 0.03987,0.1889066 0.09879,0.36014 0.130946,0.38052 0.03215,0.02038 0.141938,0.037355 0.243967,0.037723 0.175861,6.667e-4 0.185506,0.00732 0.185506,0.128495 0,0.2384817 0.226211,0.356015 0.506909,0.2633767 0.136117,-0.044923 0.17,-0.043218 0.209649,0.01055 0.09059,0.122835 0.224064,0.165225 0.379705,0.1205867 0.208398,-0.059767 0.231861,-0.055277 0.355085,0.067947 0.06058,0.06058 0.1958412,0.15558 0.3005796,0.21111 l 0.1904338,0.1009634 -0.014712,0.30176 c -0.011575,0.2373983 -0.043119,0.3527783 -0.1478948,0.5409517 -0.2907546,0.522185 -0.4412986,0.6780633 -0.9076356,0.9398 -0.506976,0.284545 -0.586437,0.3812466 -0.770739,0.937965 -0.156951,0.4741017 -0.163317,0.8195767 -0.01977,1.073085 0.104055,0.18377 0.112026,0.36885 0.01723,0.4000634 -0.02966,0.00977 -0.07709,-0.033068 -0.105398,-0.095192 l 0,0 z"
     id="path4213"
     inkscape:connector-curvature="0" />
  <path
     style="fill:#0051ba;fill-opacity:1;fill-rule:evenodd;stroke:#0051ba;stroke-width:0.16666667;stroke-linecap:round;stroke-linejoin:round;stroke-miterlimit:4;stroke-opacity:1;stroke-dasharray:none;stroke-dashoffset:0"
     d="m -14.673468,-5.7419704 c -0.04362,-0.1155616 -0.03993,-0.16208 0.02246,-0.2834983 l 0.07464,-0.1452533 0.233023,0.2154616 c 0.128163,0.1185034 0.224821,0.240325 0.214795,0.270715 -0.01098,0.033273 -0.112609,0.060338 -0.255484,0.068037 -0.23075,0.012433 -0.238686,0.009 -0.289437,-0.1254617 l 0,0 z"
     id="path4215"
     inkscape:connector-curvature="0" />
  <path
     style="fill:#0051ba;fill-opacity:1;fill-rule:evenodd;stroke:#0051ba;stroke-width:0.16666667;stroke-linecap:round;stroke-linejoin:round;stroke-miterlimit:4;stroke-opacity:1;stroke-dasharray:none;stroke-dashoffset:0"
     d="m -13.790691,1.3428981 c -0.06109,-0.044878 -0.325899,-0.80871 -0.387852,-1.11873 -0.03811,-0.19072334 -0.09384,-0.30609668 -0.215274,-0.44569335 -0.396817,-0.45616667 -0.451927,-0.70469001 -0.284693,-1.28385505 0.06296,-0.2180516 0.09558,-0.4569566 0.09821,-0.7193233 0.0037,-0.3703734 -0.0059,-0.4135017 -0.167219,-0.754195 -0.187716,-0.3963217 -0.18196,-0.4332834 0.07393,-0.4748084 0.146396,-0.023758 0.161383,-0.01545 0.219363,0.1216184 0.03423,0.080913 0.104227,0.1845333 0.155554,0.2302666 0.05133,0.045732 0.09332,0.1011184 0.09332,0.1230817 0,0.021962 0.0578,0.1239383 0.128441,0.2266133 0.07064,0.1026767 0.157786,0.312455 0.193651,0.466175 0.03586,0.15372 0.09911,0.3580584 0.140546,0.4540851 0.120935,0.2802716 0.17731,0.683435 0.146805,1.04985664 -0.0055,0.06582 0.03128,0.15458501 0.08984,0.21691167 0.08802,0.0936867 0.09608,0.13449834 0.07204,0.36452834 -0.01845,0.17647834 -0.0058,0.33056834 0.03959,0.48350168 0.07478,0.25180001 0.069,0.28170834 -0.145783,0.75509497 -0.155239,0.3421451 -0.171982,0.3625267 -0.250457,0.3048717 l 0,0 z"
     id="path4217"
     inkscape:connector-curvature="0" />
  <path
     style="fill:#0051ba;fill-opacity:1;fill-rule:evenodd;stroke:#0051ba;stroke-width:0.16666667;stroke-linecap:round;stroke-linejoin:round;stroke-miterlimit:4;stroke-opacity:1;stroke-dasharray:none;stroke-dashoffset:0"
     d="m 5.6002004,-13.408175 c -0.1045367,-0.01584 -0.1140434,-0.02935 -0.073693,-0.10474 0.1069867,-0.199906 0.032392,-0.314954 -0.3082466,-0.475417 -0.1456901,-0.06863 -0.091658,-0.162346 0.1501933,-0.260506 0.2967033,-0.120423 0.422315,-0.09545 0.5422267,0.107781 0.058527,0.09919 0.123195,0.153064 0.18375,0.153064 0.067272,0 0.086018,0.01934 0.066945,0.06904 -0.014567,0.03797 -0.026495,0.0969 -0.026495,0.130946 0,0.03655 -0.043682,0.0619 -0.1066467,0.0619 -0.114665,0 -0.2425417,0.143198 -0.2425417,0.271603 0,0.04267 -0.014733,0.07464 -0.032737,0.07104 -0.018005,-0.0036 -0.086745,-0.01472 -0.152755,-0.02472 z"
     id="path4219"
     inkscape:connector-curvature="0" />
  <path
     style="fill:#0051ba;fill-opacity:1;fill-rule:evenodd;stroke:#0051ba;stroke-width:0.16666667;stroke-linecap:round;stroke-linejoin:round;stroke-miterlimit:4;stroke-opacity:1;stroke-dasharray:none;stroke-dashoffset:0"
     d="m 8.2383921,-13.059604 c -0.04979,-0.06992 -0.1702534,-0.163086 -0.2676967,-0.207026 -0.097443,-0.04394 -0.17717,-0.09415 -0.17717,-0.111581 0,-0.01743 0.030893,-0.105624 0.06865,-0.195989 0.037757,-0.09037 0.058075,-0.206426 0.045153,-0.257913 -0.01914,-0.07626 0.029087,-0.131748 0.260175,-0.299341 0.2604367,-0.188876 0.3043817,-0.205727 0.5364951,-0.205727 0.2124483,0 0.2690016,0.01722 0.354145,0.107854 0.055728,0.05932 0.1690283,0.130199 0.251775,0.157508 0.1957166,0.06459 0.2731483,0.241442 0.2412083,0.550908 -0.02077,0.201241 -0.00942,0.247824 0.093225,0.382389 l 0.1168767,0.153233 -0.6019267,-0.0088 c -0.3310583,-0.0049 -0.6533283,0.007 -0.716155,0.02641 -0.096628,0.0298 -0.128175,0.01564 -0.204755,-0.0919 l 0,0 z"
     id="path4221"
     inkscape:connector-curvature="0" />
  <path
     style="fill:#0051ba;fill-opacity:1;fill-rule:evenodd;stroke:#0051ba;stroke-width:0.16666667;stroke-linecap:round;stroke-linejoin:round;stroke-miterlimit:4;stroke-opacity:1;stroke-dasharray:none;stroke-dashoffset:0"
     d="m -9.2045809,-0.36631358 c -0.044257,-0.0489033 -0.1514282,-0.10037167 -0.2381575,-0.11437334 -0.086729,-0.014 -0.2029045,-0.0438917 -0.258167,-0.0664233 -0.1207997,-0.0492533 -0.2268869,-0.28414167 -0.2268869,-0.50235008 0,-0.12691 0.01388,-0.153515 0.069043,-0.1323483 0.037973,0.014567 0.1116305,0.026618 0.1636822,0.026772 0.059281,1.666e-4 0.1224195,0.049095 0.1689943,0.130945 0.060651,0.10658667 0.1028847,0.13067 0.2291548,0.13067 0.1225529,0 0.1548002,0.01714 0.1548002,0.0822767 0,0.0452517 0.046692,0.11287167 0.1037605,0.15026334 0.057068,0.0373933 0.1169498,0.12053667 0.13307,0.184765 0.034332,0.13679167 0.03554,0.13487667 -0.107884,0.17087501 -0.080588,0.0202267 -0.1329575,0.003517 -0.1914093,-0.0610717 l 0,0 z"
     id="path4223"
     inkscape:connector-curvature="0" />
  <path
     style="fill:#0051ba;fill-opacity:1;fill-rule:evenodd;stroke:#0051ba;stroke-width:0.16666667;stroke-linecap:round;stroke-linejoin:round;stroke-miterlimit:4;stroke-opacity:1;stroke-dasharray:none;stroke-dashoffset:0"
     d="m -3.0623365,0.11412476 c -0.1855487,-0.20453834 -0.3037862,-0.26535667 -0.3758265,-0.19331667 -0.043549,0.04355 -0.7667648,0.05833667 -0.7928002,0.01621667 -0.012553,-0.02031167 -0.1651588,-0.06025 -0.3391223,-0.08875167 -0.1739635,-0.0285017 -0.3569805,-0.0775217 -0.4067047,-0.10893334 -0.049724,-0.0314117 -0.17418,-0.18569167 -0.2765688,-0.342845 -0.1023889,-0.15715167 -0.252159,-0.32467001 -0.3328227,-0.37226334 -0.080664,-0.0475917 -0.1854455,-0.16147331 -0.2328485,-0.25306831 -0.047403,-0.091595 -0.1565222,-0.2320017 -0.2424872,-0.3120134 -0.085965,-0.080012 -0.1689135,-0.1978633 -0.1843301,-0.2618916 -0.015417,-0.064028 -0.084129,-0.228795 -0.1526934,-0.3661501 -0.068565,-0.1373533 -0.1246632,-0.310195 -0.1246632,-0.3840916 0,-0.073897 -0.030475,-0.19329 -0.067722,-0.2653184 -0.075753,-0.14649 -0.057476,-0.2414633 0.087606,-0.455255 0.054143,-0.079783 0.1217427,-0.2634983 0.1502218,-0.408255 0.068122,-0.3462583 0.3849242,-0.8354417 0.6099985,-0.9419133 0.087087,-0.041198 0.2645299,-0.1564767 0.3943179,-0.2561767 0.2202936,-0.1692233 0.2551603,-0.181475 0.524573,-0.1843167 0.2336217,-0.00247 0.3312175,-0.027003 0.5123548,-0.128825 l 0.2237602,-0.1257816 0.342015,0.084837 c 0.3326512,0.082515 0.352358,0.094995 0.719802,0.45585 0.5569567,0.54697 0.80766,0.8980884 0.84656,1.1856351 0.01733,0.12812 0.078333,0.3580433 0.1355617,0.510945 0.091352,0.24407 0.10405,0.3522116 0.10405,0.88605 0,0.4368 0.01727,0.641445 0.061317,0.7266233 0.050598,0.097847 0.051928,0.1555517 0.0076,0.33012 -0.031253,0.1230884 -0.088833,0.23074171 -0.1377017,0.25745337 -0.1312867,0.0717633 -0.15374,0.12750334 -0.1276017,0.31677834 0.020188,0.14618167 0.00233,0.20923667 -0.10506,0.37101334 -0.1605416,0.24184334 -0.3866683,0.45931001 -0.5191366,0.49925501 -0.083042,0.0250417 -0.13514,-0.00805 -0.3016517,-0.19160333 l 0,0 z"
     id="path4225"
     inkscape:connector-curvature="0" />
  <path
     style="fill:#0051ba;fill-opacity:1;fill-rule:evenodd;stroke:#0051ba;stroke-width:0.16666667;stroke-linecap:round;stroke-linejoin:round;stroke-miterlimit:4;stroke-opacity:1;stroke-dasharray:none;stroke-dashoffset:0"
     d="m -1.9182798,2.7265165 c -0.048013,-0.019042 -0.1413133,-0.036002 -0.2073317,-0.037688 -0.092603,-0.00237 -0.1200333,-0.024417 -0.1200333,-0.096497 0,-0.135575 -0.171825,-0.4585667 -0.3541233,-0.6656684 -0.086872,-0.098692 -0.1728017,-0.2481666 -0.190955,-0.3321633 -0.046022,-0.21295 -0.1796217,-0.4641 -0.26413,-0.4965284 -0.038997,-0.014967 -0.1478634,-0.027208 -0.2419269,-0.027208 -0.1393622,0 -0.1710243,-0.015467 -0.1710243,-0.0835417 0,-0.0766483 0.04231,-0.0848483 0.5128712,-0.0994017 0.6564733,-0.0203033 0.733975,0.003183 0.7708183,0.233595 0.015533,0.09717 0.076797,0.2403183 0.13613,0.31811 0.090908,0.119185 0.10788,0.1893267 0.10788,0.4458467 0,0.167425 0.030637,0.4075716 0.06808,0.5336583 0.083435,0.2809567 0.072367,0.35453 -0.046255,0.3074867 z"
     id="path4227"
     inkscape:connector-curvature="0" />
  <path
     style="fill:#0051ba;fill-opacity:1;fill-rule:evenodd;stroke:#0051ba;stroke-width:0.16666667;stroke-linecap:round;stroke-linejoin:round;stroke-miterlimit:4;stroke-opacity:1;stroke-dasharray:none;stroke-dashoffset:0"
     d="m -3.3935378,3.1004215 c -0.01917,-0.048013 -0.097738,-0.1918 -0.1745944,-0.3195267 -0.1492585,-0.2480517 -0.6362411,-0.6625667 -0.7783983,-0.6625667 -0.057753,0 -0.081542,-0.03165 -0.081542,-0.1084916 0,-0.08826 -0.046808,-0.1321734 -0.2509792,-0.23546 -0.2559712,-0.12949 -0.5194614,-0.34056 -0.4775107,-0.38251 0.012788,-0.012783 0.08229,0.0204 0.1544492,0.073748 0.1342793,0.099278 0.2492032,0.1017783 0.6973075,0.015167 0.1214713,-0.023477 0.1676582,-0.00712 0.2837157,0.1004716 0.076243,0.070682 0.1926396,0.1619667 0.2586581,0.2028534 0.088131,0.054582 0.1200335,0.1094516 0.1200335,0.2064466 0,0.1366217 0.083581,0.3291284 0.227296,0.5235167 0.065376,0.088428 0.080044,0.1711883 0.069622,0.3928383 -0.00912,0.1939817 -0.02398,0.2538151 -0.048058,0.1935101 l 0,0 z"
     id="path4229"
     inkscape:connector-curvature="0" />
  <path
     style="fill:#0051ba;fill-opacity:1;fill-rule:evenodd;stroke:#0051ba;stroke-width:0.16666667;stroke-linecap:round;stroke-linejoin:round;stroke-miterlimit:4;stroke-opacity:1;stroke-dasharray:none;stroke-dashoffset:0"
     d="M 11.309724,8.7648499 C 11.263079,8.7529833 11.187689,8.6959383 11.142187,8.6380949 10.991665,8.4467349 10.682085,8.3586249 10.1069,8.3434366 9.9225338,8.3385699 9.9079938,8.3466866 9.8699254,8.4758183 L 9.8293704,8.6133866 9.6107171,8.3012233 C 9.3333988,7.9053082 8.9661788,7.5499932 8.7660504,7.4839449 8.6650021,7.4505966 8.5329538,7.4448699 8.3876854,7.4675449 7.8569587,7.5503582 7.5063737,7.4652616 7.0215954,7.1359499 6.8820004,7.0411216 6.7270787,6.9634899 6.677327,6.9634316 6.610992,6.9633449 6.5353337,6.8757199 6.393612,6.6347999 6.240622,6.3747266 6.1626604,6.2879782 6.0194537,6.2184749 5.835102,6.1290032 5.7756104,6.0351482 5.7171787,5.7416049 5.700502,5.6578215 5.6403487,5.5282949 5.5835037,5.4537682 5.494827,5.3375065 5.480877,5.2723715 5.4852554,4.9950232 l 0.0051,-0.323245 0.03837,0.2304217 c 0.061613,0.3700116 0.21457,0.5334283 0.4992883,0.5334283 0.079062,0 0.1214083,0.037608 0.1680567,0.1492567 0.160625,0.3844283 0.54262,0.2551283 0.6119416,-0.207135 C 6.8449971,5.1311132 6.7804087,4.9699149 6.6074954,4.8773049 6.384727,4.7579949 6.2776737,4.6192215 6.2461287,4.4088698 6.229912,4.3007865 6.1693304,4.1573632 6.110182,4.0870682 6.0465487,4.0114448 5.9751454,3.8348082 5.9332937,3.6494832 5.8738054,3.3860632 5.8389254,3.3188032 5.704367,3.2080448 5.6170587,3.1361765 5.5063404,2.9953382 5.4583254,2.8950715 5.3594404,2.6885665 4.9573703,2.3804181 4.7866553,2.3802998 4.7256387,2.3802581 4.6038737,2.4526248 4.493002,2.5548231 c -0.1848767,0.1704134 -0.27866,0.21561 -0.27866,0.134295 0,-0.022165 -0.05085,-0.1007333 -0.1130017,-0.174595 C 3.9534287,2.3387398 3.755892,2.3285298 3.6810453,2.4927981 3.6390737,2.5849181 3.609507,2.6002965 3.5183003,2.5774515 3.2047636,2.4989148 3.185902,2.5016781 2.9840736,2.6557381 2.6722386,2.8937681 2.634687,2.9057348 2.2862686,2.8781198 2.0539703,2.8597081 1.915672,2.8712031 1.7809336,2.9201032 c -0.1606433,0.058308 -0.185505,0.058817 -0.185505,0.0038 0,-0.2030634 -0.3927167,-0.3197767 -0.5375367,-0.1597534 -0.11107497,0.1227367 -0.33610331,0.6498434 -0.32427497,0.7595834 0.00915,0.084918 -0.0249383,0.1103233 -0.24046167,0.1792033 -0.17960001,0.057398 -0.28281834,0.12181 -0.36239834,0.2261433 -0.10609001,0.1390917 -0.11675501,0.143025 -0.22900834,0.084462 -0.064755,-0.033783 -0.18086501,-0.061545 -0.25802001,-0.061692 -0.11232,-1.666e-4 -0.161795,-0.031923 -0.24819,-0.1590666 C -0.7487881,3.5803865 -0.92620144,3.4678498 -1.0658031,3.5001415 c -0.1103767,0.025533 -0.1103917,0.02549 -0.023157,-0.061082 0.082088,-0.081462 5.2186051,-3.81702338 5.4175951,-3.93997505 0.085053,-0.052555 0.1620434,-0.006433 0.9602684,0.57520834 0.8641067,0.62965335 0.8679083,0.63314668 0.8934867,0.82139669 0.027425,0.20184662 0.070593,0.24942162 0.4054283,0.44681332 0.1903217,0.1122 0.2017333,0.1295617 0.2008183,0.30554 -6.666e-4,0.117665 -0.032498,0.2268884 -0.086327,0.2957034 -0.194745,0.2489666 -0.075408,0.4174033 0.262775,0.3708916 0.1442167,-0.019835 0.2675983,-0.011483 0.3530033,0.023892 0.114365,0.047372 0.1464534,0.043353 0.248805,-0.031153 0.06463,-0.047045 0.198555,-0.1175134 0.2976117,-0.156595 l 0.1801017,-0.071058 0.67695,0.4914234 c 0.6409967,0.465325 0.804445,0.60213 1.2899266,1.0796633 0.198515,0.195265 0.239486,0.2177817 0.503868,0.2769017 0.109753,0.024542 0.121283,0.04207 0.09599,0.145915 -0.06217,0.2552567 -0.07479,0.5634167 -0.02987,0.7294434 0.05816,0.2149466 0.40023,0.61392 0.596769,0.6960383 0.161665,0.067548 0.176078,0.1037417 0.319218,0.8016117 0.08968,0.437235 0.158665,0.5512483 0.35761,0.5910383 0.106183,0.021237 0.128715,0.047395 0.128715,0.149435 0,0.1607467 -0.250847,0.5751617 -0.458518,0.7574984 l -0.163084,0.14319 0.02961,0.36487 c 0.01628,0.2006783 0.04039,0.3929833 0.05358,0.427345 0.02468,0.064312 0.0096,0.067732 -0.135648,0.030765 l 0,0 z"
     id="path4231"
     inkscape:connector-curvature="0" />
  <path
     style="fill:#0051ba;fill-opacity:1;fill-rule:evenodd;stroke:#0051ba;stroke-width:0.16666667;stroke-linecap:round;stroke-linejoin:round;stroke-miterlimit:4;stroke-opacity:1;stroke-dasharray:none;stroke-dashoffset:0"
     d="M 1.6577653,11.67858 C 1.5319236,11.583362 1.4375136,11.548525 1.3028986,11.547633 1.1352253,11.546467 1.1079153,11.529598 0.9846036,11.35037 0.89980527,11.227122 0.8058286,11.144573 0.73152693,11.12807 0.47061192,11.07012 0.45346359,11.060183 0.48629859,10.985957 c 0.017625,-0.03984 0.0409217,-0.147894 0.05177,-0.24011 C 0.55521026,10.60013 0.53773526,10.557267 0.40414526,10.418482 0.31963859,10.33065 0.24364859,10.220385 0.23527692,10.173448 0.22691025,10.126512 0.14159025,10.035 0.04568525,9.9700883 -0.05022142,9.9051783 -0.16797309,9.7775533 -0.21598642,9.6864783 -0.32970309,9.4707733 -0.99706144,9.0381016 -1.2853764,8.9931566 c -0.2706317,-0.042188 -0.3491884,-0.092987 -0.3491884,-0.225805 0,-0.24808 0.107705,-0.46234 0.3805417,-0.7570317 0.2360433,-0.2549467 0.31433333,-0.31045 0.523795,-0.3713433 0.24625,-0.071587 0.34750334,-0.1539167 0.63765335,-0.5184834 0.06787666,-0.085285 0.16039667,-0.2562516 0.20560167,-0.379925 0.096055,-0.2627966 0.16793833,-0.3506916 0.43483667,-0.531695 0.10803,-0.073263 0.27703667,-0.20624 0.37557168,-0.2955017 0.0985333,-0.089263 0.22009003,-0.1752883 0.27012663,-0.19117 0.098262,-0.031187 0.4741317,0.135725 0.57247,0.2542167 0.1474701,0.17769 0.3531801,0.57359 0.3531801,0.6797134 0,0.065295 0.028397,0.2130733 0.063103,0.328395 L 2.2454186,7.1942032 2.0823853,7.4645166 C 1.9927153,7.6131899 1.8437486,7.9589883 1.7513469,8.2329583 1.5357153,8.8722983 1.5157636,8.8942766 1.3127686,8.7160433 0.9990536,8.4405983 0.76610693,8.6017799 0.76610693,9.0942899 c 0,0.1576084 -0.0411033,0.4324384 -0.091575,0.6123117 -0.10122834,0.3607534 -0.0832083,0.5679534 0.0942517,1.0837504 0.112045,0.32566 0.21454167,0.428141 0.53822327,0.538138 0.28891,0.09818 0.7708801,0.479822 0.6059617,0.479822 -0.04606,0 -0.1609017,-0.05838 -0.2552033,-0.129732 z"
     id="path4233"
     inkscape:connector-curvature="0" />
  <path
     style="fill:#0051ba;fill-opacity:1;fill-rule:evenodd;stroke:#0051ba;stroke-width:0.16666667;stroke-linecap:round;stroke-linejoin:round;stroke-miterlimit:4;stroke-opacity:1;stroke-dasharray:none;stroke-dashoffset:0"
     d="m 6.4137937,12.965058 c -0.092685,-0.104348 -0.1736267,-0.15283 -0.2551533,-0.15283 -0.065673,0 -0.1715417,-0.03684 -0.235265,-0.08187 -0.063722,-0.04503 -0.184605,-0.09653 -0.2686284,-0.114448 -0.084025,-0.01792 -0.22693,-0.07012 -0.31757,-0.116005 -0.1184816,-0.05998 -0.241155,-0.08083 -0.436485,-0.0742 -0.184885,0.0063 -0.3163167,-0.01417 -0.4113767,-0.06401 -0.07683,-0.04029 -0.1981666,-0.07325 -0.2696366,-0.07325 -0.084268,0 -0.1582,-0.03592 -0.2103267,-0.10219 -0.098482,-0.125198 -0.238275,-0.20335 -0.363745,-0.20335 -0.1171033,0 -0.312335,-0.135662 -0.4102217,-0.285057 l -0.073857,-0.11272 0.15255,0.02862 c 0.084567,0.01587 0.2230101,0.0054 0.3106584,-0.02356 0.1442317,-0.0476 0.1724617,-0.04223 0.3216433,0.06115 0.16099,0.111565 0.3713284,0.14962 0.417155,0.07547 0.012867,-0.02082 0.1163734,-0.04834 0.2300084,-0.06115 C 4.7335,11.649878 4.824945,11.611758 4.877,11.547469 c 0.042265,-0.0522 0.1432784,-0.139983 0.2244767,-0.195085 l 0.1476317,-0.100186 0.1173817,0.147111 c 0.087713,0.109929 0.1527683,0.147887 0.25738,0.150179 0.2139733,0.0047 0.2817133,0.04624 0.4592416,0.281695 0.092075,0.12212 0.253615,0.265988 0.369025,0.328658 0.21412,0.116272 0.5120667,0.478405 0.5120667,0.622382 0,0.128921 -0.077545,0.236338 -0.1912133,0.264866 -0.058418,0.01467 -0.1325934,0.03659 -0.1648334,0.04873 -0.032238,0.01213 -0.1197016,-0.0467 -0.1943633,-0.13076 z"
     id="path4235"
     inkscape:connector-curvature="0" />
  <path
     style="fill:#0051ba;fill-opacity:1;fill-rule:evenodd;stroke:#0051ba;stroke-width:0.16666667;stroke-linecap:round;stroke-linejoin:round;stroke-miterlimit:4;stroke-opacity:1;stroke-dasharray:none;stroke-dashoffset:0"
     d="m 13.686092,12.444427 c -0.10803,-0.05601 -0.276218,-0.115132 -0.373751,-0.13137 -0.129192,-0.02151 -0.238287,-0.08705 -0.401845,-0.241424 -0.12348,-0.116546 -0.282454,-0.224626 -0.353274,-0.240181 -0.09177,-0.02016 -0.13719,-0.06185 -0.158095,-0.145144 -0.01613,-0.06427 -0.12109,-0.217656 -0.233242,-0.340853 -0.112151,-0.123195 -0.239201,-0.27569 -0.282333,-0.338878 -0.04313,-0.06319 -0.10697,-0.114885 -0.141858,-0.114885 -0.09479,0 -0.0803,-0.275957 0.02537,-0.483087 l 0.0888,-0.174068 -0.0888,-0.200755 c -0.04884,-0.1104137 -0.0888,-0.2764254 -0.0888,-0.368912 0,-0.1539817 0.01563,-0.1760884 0.185506,-0.2622067 0.226154,-0.114655 0.249462,-0.1475917 0.25031,-0.3537184 6.67e-4,-0.1452566 0.01007,-0.1587966 0.09033,-0.1291083 0.04931,0.018243 0.113596,0.081447 0.142853,0.1404517 0.03738,0.075398 0.0959,0.1114133 0.196907,0.121175 0.173877,0.016805 0.25392,-0.042478 0.292108,-0.21635 0.02659,-0.1210784 0.03447,-0.1257884 0.104452,-0.062457 0.11514,0.1042 0.199443,0.083417 0.34801,-0.085792 0.165967,-0.189025 0.178055,-0.3909533 0.03829,-0.6396283 l -0.09718,-0.1728983 0.108087,-0.082688 c 0.06083,-0.046533 0.143188,-0.071903 0.188365,-0.058023 0.05048,0.015517 0.139588,-0.022527 0.240067,-0.10248 0.159471,-0.1268934 0.334925,-0.2160934 0.302993,-0.15404 -0.199525,0.387735 -0.195737,0.51538 0.02117,0.7134967 0.11556,0.1055483 0.176422,0.1267683 0.363584,0.1267683 0.207871,0 0.24683,-0.018067 0.517666,-0.2400683 l 0.292879,-0.2400667 0.334663,0.001 c 0.233493,6.667e-4 0.389682,0.025938 0.51665,0.083587 0.181373,0.08235 0.227473,0.1383466 0.371917,0.4517666 l 0.07618,0.1652984 -0.111935,0.042558 c -0.06156,0.023407 -0.122145,0.081605 -0.134626,0.1293283 -0.01797,0.06871 -0.05976,0.086772 -0.20076,0.086772 -0.123305,0 -0.231165,0.036915 -0.350712,0.1200333 -0.09496,0.066018 -0.272787,0.1604117 -0.395183,0.2097617 -0.341799,0.13781 -0.41042,0.3829117 -0.16085,0.574525 0.08422,0.064663 0.29397,0.072453 0.331146,0.0123 0.03789,-0.061307 0.160045,-0.051898 0.254367,0.01959 0.07675,0.05817 0.07607,0.066888 -0.01782,0.230026 -0.114585,0.199095 -0.09342,0.361492 0.05564,0.426937 0.07527,0.03305 0.108153,0.09634 0.135392,0.260597 0.0482,0.290678 -0.0063,0.39906 -0.231215,0.459618 -0.182752,0.04921 -0.348625,0.240717 -0.348975,0.402903 -1.02e-4,0.04731 -0.04504,0.08473 -0.120197,0.1001 -0.223083,0.04562 -0.337907,0.129967 -0.433078,0.318134 -0.144317,0.285331 -0.180025,0.313711 -0.394705,0.313711 -0.129009,0 -0.232697,0.02957 -0.306082,0.0873 -0.140168,0.110255 -0.205055,0.107561 -0.448397,-0.01861 z"
     id="path4237"
     inkscape:connector-curvature="0" />
  <path
     style="fill:#0051ba;fill-opacity:1;fill-rule:evenodd;stroke:#0051ba;stroke-width:0.16666667;stroke-linecap:round;stroke-linejoin:round;stroke-miterlimit:4;stroke-opacity:1;stroke-dasharray:none;stroke-dashoffset:0"
     d="m 17.624042,13.786793 c -0.03074,-0.01235 -0.102566,-0.113921 -0.159611,-0.22571 -0.05705,-0.111786 -0.164475,-0.260938 -0.238734,-0.331448 -0.205751,-0.195365 -0.188678,-0.392037 0.06488,-0.747365 0.109942,-0.154072 0.254039,-0.318683 0.320214,-0.365803 l 0.120316,-0.08567 0.37502,0.273194 c 0.287647,0.209545 0.36574,0.287865 0.335184,0.336156 -0.06237,0.09858 -0.04801,0.289954 0.02742,0.365385 0.03773,0.03773 0.138063,0.06859 0.222975,0.06859 0.146337,0 0.152875,0.0062 0.125438,0.120033 -0.0349,0.144735 -0.135833,0.229155 -0.273978,0.229155 -0.150093,0 -0.384287,0.108557 -0.456445,0.211579 -0.09503,0.13568 -0.319587,0.209405 -0.462677,0.151906 l 0,0 z"
     id="path4239"
     inkscape:connector-curvature="0" />
  <path
     style="fill:#0051ba;fill-opacity:1;fill-rule:evenodd;stroke:#0051ba;stroke-width:0.16666667;stroke-linecap:round;stroke-linejoin:round;stroke-miterlimit:4;stroke-opacity:1;stroke-dasharray:none;stroke-dashoffset:0"
     d="m 35.544178,19.225497 c -0.09543,-0.166272 -0.315882,-0.27405 -0.499584,-0.24424 -0.122966,0.01995 -0.158503,0.0058 -0.219435,-0.08715 -0.03999,-0.06103 -0.147696,-0.158303 -0.239351,-0.216163 -0.09166,-0.05786 -0.166632,-0.119684 -0.166615,-0.137387 4.5e-5,-0.04649 0.224376,-0.06884 0.506891,-0.05051 0.149465,0.0097 0.200124,-0.07416 0.169857,-0.281188 -0.03146,-0.215175 0.03166,-0.300357 0.180607,-0.243728 0.11365,0.04321 0.277476,-0.01085 0.277476,-0.09157 0,-0.02469 0.03381,-0.02137 0.08071,0.0079 0.225109,0.140584 0.459629,-0.116395 0.334722,-0.366775 -0.07801,-0.156371 -0.08131,-0.177488 -0.02204,-0.140855 0.02431,0.01503 0.10288,-0.002 0.174595,-0.03773 l 0.13039,-0.06505 0,0.17265 c 0,0.09496 0.02725,0.237885 0.06057,0.317613 0.05183,0.124052 0.08724,0.148542 0.245443,0.16976 0.225629,0.03026 0.292067,0.0075 0.360947,-0.123831 0.05197,-0.09907 0.05571,-0.09963 0.156828,-0.02332 0.09765,0.0737 0.09965,0.08418 0.03488,0.183055 -0.03779,0.05768 -0.119955,0.242372 -0.18259,0.410419 -0.06264,0.168046 -0.173357,0.404663 -0.246049,0.525811 -0.131636,0.219394 -0.133105,0.220295 -0.368041,0.225795 -0.147222,0.0035 -0.323169,0.04548 -0.46812,0.111847 l -0.232244,0.106323 -0.06985,-0.1217 0,0 z"
     id="path4241"
     inkscape:connector-curvature="0" />
  <path
     style="fill:#0051ba;fill-opacity:1;fill-rule:evenodd;stroke:#0051ba;stroke-width:0.16666667;stroke-linecap:round;stroke-linejoin:round;stroke-miterlimit:4;stroke-opacity:1;stroke-dasharray:none;stroke-dashoffset:0"
     d="m 37.323134,19.626957 c -0.111193,-0.02383 -0.134931,-0.05471 -0.167106,-0.217405 -0.03495,-0.176725 -0.0243,-0.212375 0.15638,-0.523587 0.131658,-0.226773 0.22357,-0.338395 0.286381,-0.3478 0.05088,-0.0076 0.151767,-0.08575 0.224204,-0.173627 0.153758,-0.186533 0.184051,-0.09691 0.04457,0.13186 -0.04792,0.0786 -0.08721,0.177287 -0.0873,0.219299 -1.66e-4,0.113016 0.158112,0.25098 0.288075,0.25098 l 0.113644,0 -0.135469,0.154288 c -0.07451,0.08486 -0.135466,0.191143 -0.135466,0.236187 0,0.10739 -0.242434,0.309325 -0.36345,0.302736 -0.05217,-0.0028 -0.153182,-0.01766 -0.224464,-0.03293 z"
     id="path4243"
     inkscape:connector-curvature="0" />
  <path
     style="fill:#0051ba;fill-opacity:1;fill-rule:evenodd;stroke:#0051ba;stroke-width:0.16666667;stroke-linecap:round;stroke-linejoin:round;stroke-miterlimit:4;stroke-opacity:1;stroke-dasharray:none;stroke-dashoffset:0"
     d="m 23.631289,-9.4317871 c -0.02514,-0.00997 -0.03762,-0.087445 -0.02773,-0.17216 0.02988,-0.255915 -0.236629,-0.4378629 -0.383009,-0.2614883 -0.02887,0.034782 -0.11798,0.084855 -0.198031,0.111275 -0.135455,0.044703 -0.16119,0.036195 -0.371147,-0.122715 -0.339253,-0.2567716 -0.650515,-0.4063716 -0.742775,-0.3569966 -0.125355,0.06709 -0.129023,0.151108 -0.01714,0.3925982 l 0.106227,0.22928 -0.14243,-0.028003 c -0.07834,-0.0154 -0.178444,-0.076833 -0.222457,-0.136515 -0.05733,-0.077745 -0.121135,-0.108515 -0.225002,-0.108515 -0.142613,0 -0.144615,-0.0027 -0.122778,-0.1654932 0.02765,-0.206119 -0.01233,-0.241555 -0.379693,-0.336567 -0.282132,-0.07297 -0.523782,-0.186663 -0.523782,-0.246435 0,-0.01721 0.03988,-0.04395 0.08862,-0.05942 0.06277,-0.01992 0.133027,0.01087 0.240869,0.10555 0.199723,0.17536 0.339161,0.208103 0.483488,0.113538 0.09915,-0.06496 0.110993,-0.0968 0.09113,-0.24488 -0.02148,-0.16016 -0.01612,-0.170207 0.09097,-0.170207 0.06927,0 0.171087,0.05551 0.260182,0.141857 0.122788,0.118995 0.177643,0.141183 0.340355,0.137673 0.153071,-0.0033 0.193973,0.01105 0.193973,0.06804 0,0.125355 0.109312,0.228685 0.330985,0.312872 0.260715,0.09902 0.339898,0.10183 0.412248,0.01465 0.04939,-0.05951 0.06593,-0.05716 0.1493,0.02115 0.05157,0.04844 0.156167,0.100562 0.232445,0.115817 0.08304,0.0166 0.279222,0.1499749 0.488949,0.3323932 0.192641,0.16756 0.35026,0.3104833 0.35026,0.3176083 0,0.019988 -0.45236,0.015583 -0.504027,-0.00492 z"
     id="path4245"
     inkscape:connector-curvature="0" />
  <path
     style="fill:#0051ba;fill-opacity:1;fill-rule:evenodd;stroke:#0051ba;stroke-width:0.16666667;stroke-linecap:round;stroke-linejoin:round;stroke-miterlimit:4;stroke-opacity:1;stroke-dasharray:none;stroke-dashoffset:0"
     d="m 21.888219,-11.395712 c -0.04887,-0.03573 -0.189958,-0.06066 -0.343318,-0.06066 -0.258202,0 -0.262099,-0.0019 -0.47123,-0.229155 l -0.210875,-0.229156 0.137263,-0.02863 c 0.0755,-0.01575 0.154785,-0.05994 0.176202,-0.09821 0.03561,-0.06364 0.05049,-0.06361 0.174298,4.17e-4 0.09315,0.04817 0.189097,0.0614 0.307672,0.04244 0.130161,-0.02081 0.224206,-0.0032 0.384465,0.07186 0.216976,0.101673 0.268056,0.179115 0.148421,0.225022 -0.03702,0.0142 -0.10165,0.102533 -0.143621,0.19628 -0.06992,0.156172 -0.08326,0.165368 -0.159277,0.109787 l 0,0 z"
     id="path4247"
     inkscape:connector-curvature="0" />
  <path
     style="fill:#0051ba;fill-opacity:1;fill-rule:evenodd;stroke:#0051ba;stroke-width:0.16666667;stroke-linecap:round;stroke-linejoin:round;stroke-miterlimit:4;stroke-opacity:1;stroke-dasharray:none;stroke-dashoffset:0"
     d="m 50.882511,8.3818983 c -0.08832,-0.060017 -0.197158,-0.1091217 -0.241858,-0.1091217 -0.0447,0 -0.119397,-0.028817 -0.165997,-0.064037 -0.0466,-0.03522 -0.177368,-0.076947 -0.290595,-0.092727 C 50.040425,8.0959966 49.959081,8.0581566 49.914973,7.9908399 49.880203,7.9377733 49.787023,7.8370966 49.707905,7.7671132 49.628788,7.6971316 49.4519,7.5269316 49.31482,7.3888932 49.1012,7.1737799 49.04258,7.1379149 48.904613,7.1379149 c -0.150265,0 -0.159133,-0.00732 -0.13335,-0.1100433 0.03472,-0.138345 -0.13719,-0.3264434 -0.298352,-0.3264434 -0.06606,0 -0.128731,-0.035805 -0.157823,-0.090163 -0.02654,-0.04959 -0.182057,-0.1767183 -0.345592,-0.28251 -0.3269,-0.21147 -0.369413,-0.2722534 -0.306378,-0.438045 0.0593,-0.1559617 0.05623,-0.1700967 -0.06933,-0.3193117 -0.06603,-0.078468 -0.171807,-0.144075 -0.258525,-0.160345 -0.09173,-0.017208 -0.201444,-0.088433 -0.292562,-0.1899333 -0.08019,-0.08932 -0.29285,-0.247175 -0.472588,-0.3507884 -0.17974,-0.1036133 -0.379944,-0.23771 -0.444897,-0.2979933 -0.177409,-0.1646567 -0.77503,-0.3123184 -1.144114,-0.2826917 -0.255118,0.020478 -0.302598,0.011967 -0.389678,-0.069838 -0.05454,-0.051238 -0.19213,-0.1105267 -0.305755,-0.131755 -0.159902,-0.029872 -0.244125,-0.079252 -0.372665,-0.218485 -0.09134,-0.09894 -0.205932,-0.1798917 -0.254645,-0.1798917 -0.154512,0 -0.561553,-0.2060717 -0.63825,-0.323125 -0.04061,-0.061977 -0.1766,-0.16446 -0.302203,-0.2277417 -0.125604,-0.063282 -0.282499,-0.15324 -0.348657,-0.1999083 -0.08942,-0.063077 -0.180138,-0.08208 -0.353495,-0.07405 -0.193072,0.00895 -0.306035,-0.021138 -0.656395,-0.1747934 -0.243087,-0.10661 -0.52291,-0.1958883 -0.657507,-0.20978 -0.227013,-0.02343 -0.237895,-0.030757 -0.349071,-0.2350233 -0.197804,-0.36343 -0.596159,-0.6282517 -0.901272,-0.599155 -0.161655,0.015417 -0.170143,0.010033 -0.170143,-0.10783 0,-0.2590933 -0.170707,-0.3681434 -0.3914,-0.2500333 -0.05336,0.028557 -0.125299,0.02713 -0.215374,-0.00427 -0.09771,-0.034063 -0.174003,-0.03364 -0.27487,0.0015 -0.126905,0.044238 -0.147823,0.038382 -0.229715,-0.064322 C 38.120457,1.1590001 37.972132,1.0653618 37.840404,1.0130618 37.637812,0.9326284 37.586886,0.88879011 37.510004,0.72865011 37.391419,0.48164843 37.363231,0.46514343 36.870672,0.35430843 c -0.06553,-0.01475 -0.27174,-0.164055 -0.458245,-0.33179834 -0.346536,-0.31167667 -0.492763,-0.37753834 -0.753318,-0.33929667 -0.123458,0.01812 -0.133023,0.007933 -0.195962,-0.20855667 -0.07555,-0.25988501 -0.188983,-0.32108334 -0.432153,-0.23315167 -0.124403,0.044985 -0.166137,0.0375133 -0.356498,-0.063825 -0.155304,-0.0826767 -0.280769,-0.11477501 -0.448615,-0.11477501 -0.230662,0 -0.233695,-0.001733 -0.300454,-0.17168337 -0.05852,-0.1489783 -0.0901,-0.1755116 -0.238766,-0.2006283 -0.190569,-0.032197 -0.225902,-0.062077 -0.332912,-0.2815333 -0.04073,-0.083537 -0.125278,-0.1802767 -0.187877,-0.2149784 -0.103008,-0.057103 -0.130981,-0.054145 -0.294626,0.031152 l -0.180814,0.094245 0,-0.1534717 c 0,-0.206915 -0.10192,-0.4376017 -0.221645,-0.5016767 -0.05395,-0.028873 -0.2174,-0.084695 -0.363223,-0.12405 -0.211153,-0.056985 -0.283022,-0.099828 -0.353003,-0.21044 -0.1023,-0.1616966 -0.281414,-0.25177 -0.41582,-0.2091116 -0.06556,0.020808 -0.118742,0.00372 -0.17442,-0.056045 -0.04437,-0.04763 -0.16923,-0.099347 -0.279914,-0.115945 -0.213458,-0.03201 -0.23609,-0.071823 -0.149213,-0.2624984 0.08557,-0.1878083 -0.01582,-0.419955 -0.294787,-0.6749083 -0.251833,-0.2301617 -0.361606,-0.2681484 -0.45382,-0.1570384 -0.04679,0.056378 -0.06534,0.050572 -0.139458,-0.043648 -0.07269,-0.09241 -0.121638,-0.10868 -0.32697,-0.10868 l -0.241484,0 0.01972,-0.1855067 c 0.02349,-0.2210033 -0.04857,-0.3682933 -0.24655,-0.5039533 -0.180087,-0.1233983 -0.363125,-0.1226617 -0.495819,0.002 -0.102745,0.096523 -0.105603,0.096755 -0.166495,0.013483 -0.03408,-0.0466 -0.06196,-0.1493216 -0.06196,-0.2282716 0,-0.2267384 -0.123991,-0.4792167 -0.298465,-0.6077467 -0.08791,-0.064763 -0.287818,-0.252375 -0.444231,-0.416915 -0.30066,-0.31628 -0.414769,-0.3614417 -0.594742,-0.2353834 -0.08601,0.060247 -0.09481,0.054223 -0.158853,-0.1088233 -0.07572,-0.1927667 -0.197819,-0.2604933 -0.469615,-0.2604933 -0.142032,0 -0.181044,-0.020137 -0.232757,-0.1201367 -0.0815,-0.1575967 -0.196192,-0.2544134 -0.342568,-0.2891684 -0.0653,-0.0155 -0.166777,-0.080002 -0.225492,-0.1433233 -0.135327,-0.1459433 -0.124252,-0.372085 0.03493,-0.71318 0.120527,-0.2582717 0.145393,-0.5577767 0.06911,-0.8323817 -0.05903,-0.2124983 -0.54293,-0.6397417 -0.818515,-0.72268 -0.265697,-0.079963 -0.385335,-0.1981017 -0.53588,-0.5291582 -0.123293,-0.271129 -0.125172,-0.272804 -0.305887,-0.272804 -0.153421,0 -0.215198,-0.03 -0.395408,-0.192025 -0.148823,-0.133805 -0.280422,-0.20806 -0.434042,-0.244913 -0.19813,-0.04753 -0.22943,-0.07197 -0.308983,-0.241207 -0.09172,-0.195123 -0.0771,-0.290316 0.06234,-0.406046 0.04933,-0.04095 0.10476,-0.01725 0.275187,0.117641 0.291183,0.230469 0.462752,0.31177 0.65864,0.31211 0.09201,1.59e-4 0.224148,0.0389 0.296795,0.08701 0.07723,0.05115 0.2048,0.08684 0.310997,0.08701 0.126795,1.66e-4 0.331171,0.0713 0.69097,0.240355 0.281005,0.132036 0.558295,0.240066 0.616198,0.240066 0.06428,0 0.152153,-0.05441 0.22565,-0.139735 0.290697,-0.337461 0.30078,-0.343795 0.50103,-0.314673 0.159275,0.02316 0.22449,0.06848 0.442965,0.307833 0.284447,0.311625 0.436327,0.408467 0.640613,0.408467 0.07551,0 0.19501,0.0341 0.265559,0.07577 0.120638,0.07126 0.135318,0.07139 0.246801,0.0021 0.06519,-0.04054 0.211297,-0.1238 0.324675,-0.185025 l 0.206142,-0.111317 0.06083,0.120167 c 0.03346,0.06609 0.08478,0.194321 0.114062,0.284956 0.07465,0.2310939 0.215878,0.3837955 0.634302,0.6858589 0.277436,0.2002866 0.394785,0.3180583 0.496513,0.49831 0.07327,0.12982 0.213073,0.3017133 0.310683,0.3819833 0.09761,0.08027 0.324845,0.317855 0.50497,0.527965 0.417362,0.4868434 0.57715,0.5927667 0.98567,0.6533984 0.245602,0.036453 0.337929,0.070492 0.39786,0.1466816 0.04292,0.054568 0.14157,0.1202217 0.219217,0.1458984 0.07765,0.025677 0.225207,0.1443267 0.327912,0.2636683 0.12655,0.1470467 0.242611,0.2337234 0.3601,0.2689234 0.09535,0.028568 0.173365,0.068895 0.173365,0.089617 0,0.020722 -0.05302,0.1177867 -0.11781,0.2156984 -0.109864,0.1660133 -0.113437,0.1858266 -0.05298,0.2936933 0.03566,0.063617 0.118138,0.1412917 0.183283,0.17261 0.06515,0.031318 0.118449,0.09275 0.118449,0.1365133 0,0.1095184 0.07136,0.1568317 0.33717,0.2235501 0.186505,0.046813 0.247216,0.046982 0.333268,0.001 0.09192,-0.049192 0.13828,-0.041475 0.366712,0.061038 0.357865,0.1606017 0.565901,0.381415 0.616991,0.6548867 0.04975,0.266305 0.131525,0.3283683 0.432659,0.3283683 0.201951,0 0.259286,0.019678 0.388898,0.1334783 0.152017,0.1334717 0.152052,0.1334784 0.573193,0.1106584 0.384612,-0.020842 0.42889,-0.032428 0.510107,-0.13348 0.138258,-0.1720234 0.413022,-0.1401367 0.413022,0.047932 0,0.1235884 0.329886,0.4743667 0.510801,0.5431501 0.065,0.024715 0.188729,0.033017 0.274947,0.01845 0.180133,-0.030433 0.255065,0.029948 0.363715,0.2930866 0.08684,0.2103234 0.232245,0.25228 0.4366,0.12598 0.0816,-0.05043 0.15935,-0.09169 0.172783,-0.09169 0.01343,0 0.09364,0.1139484 0.178247,0.2532184 0.223217,0.367455 0.267705,0.397435 0.596035,0.4016416 0.244962,0.00313 0.506768,-0.010783 0.682835,-0.03632 0.02829,-0.0041 0.08459,-0.040608 0.125107,-0.081122 0.06912,-0.069118 0.08654,-0.066425 0.282353,0.043648 0.238218,0.1339083 0.41556,0.1492433 0.529847,0.045813 0.10605,-0.095973 0.233283,-0.00695 0.167021,0.11686 -0.07329,0.1369484 -0.04818,0.2178367 0.12095,0.3896334 0.09003,0.091442 0.246595,0.2647583 0.347934,0.385145 0.16212,0.1925967 0.210028,0.2224333 0.398863,0.248405 0.159153,0.021888 0.246892,0.063622 0.339532,0.1615 0.06871,0.072592 0.224665,0.1765083 0.346575,0.230925 0.169058,0.0754633 0.249116,0.14579834 0.337378,0.29640334 0.08121,0.13857501 0.187352,0.23789001 0.355922,0.33302334 0.188458,0.10636001 0.263945,0.18241834 0.350425,0.35307834 0.127366,0.25134668 0.235358,0.33355001 0.545748,0.41542835 0.147078,0.0388 0.28824,0.11868833 0.413132,0.23380833 0.112735,0.10391667 0.266711,0.19499167 0.37948,0.22445834 0.104371,0.0272717 0.238826,0.063465 0.298788,0.0804283 0.05996,0.016965 0.13424,0.0834667 0.165067,0.14778506 0.07396,0.1543016 0.258153,0.29569 0.38522,0.29569 0.06417,0 0.13879,0.05093 0.201445,0.1374983 0.144037,0.1990134 0.554613,0.4508067 0.94957,0.5823384 0.298702,0.099477 0.397533,0.16197 0.76441,0.4833516 0.231745,0.2030067 0.476795,0.3977717 0.544555,0.4328134 0.06776,0.035038 0.194777,0.1612167 0.282262,0.280395 0.10047,0.1368683 0.211705,0.23406 0.301973,0.2638517 0.0786,0.02594 0.258638,0.1450166 0.400085,0.264615 0.141448,0.1195966 0.294147,0.2291833 0.33933,0.243525 0.0777,0.02466 0.07662,0.032093 -0.01979,0.1369983 -0.05607,0.061008 -0.204962,0.1775433 -0.330877,0.2589667 -0.262312,0.169625 -0.380787,0.32455 -0.346998,0.4537567 0.03621,0.138485 -0.154329,0.21068 -0.311305,0.1179516 -0.104795,-0.061903 -0.151487,-0.063348 -0.39627,-0.012267 -0.299355,0.06247 -0.351612,0.10711 -0.352644,0.3012466 -5e-4,0.088222 0.04589,0.1697017 0.155209,0.272805 0.08573,0.080857 0.171666,0.1470117 0.190963,0.1470117 0.0193,0 0.04748,0.061963 0.06262,0.1376967 0.01515,0.075735 0.04947,0.1641233 0.07627,0.1964183 0.08135,0.098023 0.271703,0.067018 0.432531,-0.07045 0.21157,-0.18084 0.277782,-0.168195 0.390682,0.074612 0.05302,0.1140316 0.192678,0.2923317 0.310347,0.3962217 0.15484,0.13671 0.214126,0.221115 0.21461,0.30554 8.33e-4,0.147825 0.0397,0.20617 0.162913,0.24462 0.129093,0.040287 0.174745,0.2217633 0.08166,0.3246216 -0.140082,0.1547884 -0.03208,0.5295 0.152617,0.5295 0.05087,0 0.08228,0.030737 0.08228,0.080532 0,0.083785 0.127509,0.2250084 0.20316,0.2250084 0.08041,0 0.245005,0.2121466 0.218394,0.2814933 -0.03657,0.095288 -0.114659,0.084505 -0.299984,-0.041427 l 0,-1.6e-6 z"
     id="path4249"
     inkscape:connector-curvature="0" />
  <path
     style="fill:#0051ba;fill-opacity:1;fill-rule:evenodd;stroke:#0051ba;stroke-width:0.16666667;stroke-linecap:round;stroke-linejoin:round;stroke-miterlimit:4;stroke-opacity:1;stroke-dasharray:none;stroke-dashoffset:0"
     d="m 46.921955,8.1003549 c -0.03486,-0.022032 -0.162534,-0.053353 -0.283715,-0.069605 -0.316895,-0.0425 -0.488737,-0.12554 -0.565007,-0.2730283 -0.03672,-0.071002 -0.09413,-0.1396 -0.127592,-0.1524384 -0.03346,-0.012833 -0.07199,-0.1064916 -0.08562,-0.2081133 -0.03977,-0.296535 -0.144741,-0.3674067 -0.527266,-0.356 -0.297775,0.00888 -0.343064,-0.0023 -0.609875,-0.1506017 -0.391232,-0.2174516 -0.451527,-0.3453266 -0.42193,-0.89485 l 0.02182,-0.4052117 0.181141,-0.066728 c 0.22192,-0.08175 0.347994,-0.19118 0.38357,-0.3329317 0.021,-0.083653 0.04265,-0.098622 0.09792,-0.067692 0.04475,0.025042 0.163,0.018238 0.320145,-0.018422 0.22685,-0.052922 0.27027,-0.050353 0.484355,0.028633 0.472907,0.17448 0.445781,0.13495 0.416626,0.6071167 -0.0141,0.2284367 -0.03856,0.5443667 -0.05433,0.7020667 l -0.02869,0.28673 0.179936,0.1425117 c 0.09896,0.078382 0.179935,0.1785383 0.179935,0.2225716 0,0.157895 0.05465,0.2147734 0.276614,0.28792 0.12394,0.040843 0.268601,0.12042 0.32147,0.1768367 0.05287,0.056418 0.11975,0.1025767 0.148623,0.1025767 0.03479,0 0.02939,0.025758 -0.01602,0.076385 -0.03768,0.042012 -0.08582,0.143795 -0.106978,0.2261867 -0.04203,0.1636916 -0.08799,0.1974783 -0.185133,0.1360866 l 0,0 z"
     id="path4251"
     inkscape:connector-curvature="0" />
  <path
     style="fill:#0051ba;fill-opacity:1;fill-rule:evenodd;stroke:#0051ba;stroke-width:0.16666667;stroke-linecap:round;stroke-linejoin:round;stroke-miterlimit:4;stroke-opacity:1;stroke-dasharray:none;stroke-dashoffset:0"
     d="m 46.04002,27.826159 c -0.05133,-0.06943 -0.09333,-0.146219 -0.09333,-0.170644 0,-0.06043 -0.194468,-0.183763 -0.265131,-0.16815 -0.03138,0.0069 -0.06457,-0.02177 -0.07375,-0.06378 -0.01258,-0.05757 0.01148,-0.07638 0.0977,-0.07638 0.06765,0 0.158152,-0.0472 0.221443,-0.115495 0.162612,-0.17546 0.144749,-0.439245 -0.06756,-0.997543 -0.09603,-0.252522 -0.174594,-0.506438 -0.174594,-0.564255 0,-0.05782 0.05087,-0.206402 0.113042,-0.330187 0.118325,-0.23558 0.117205,-0.37495 -0.004,-0.496141 -0.03597,-0.03597 -0.06541,-0.107867 -0.06541,-0.159762 0,-0.05189 -0.05714,-0.144497 -0.126988,-0.205783 l -0.12699,-0.11143 0.09098,-0.174554 c 0.06788,-0.130231 0.08905,-0.244731 0.08337,-0.450955 -0.0073,-0.264516 -0.0021,-0.279236 0.119863,-0.342323 0.07011,-0.03626 0.1676,-0.122268 0.216639,-0.191135 0.111195,-0.15616 1.461722,-0.878805 1.702798,-0.91114 0.152864,-0.0205 0.187995,-0.0037 0.408459,0.196007 0.200146,0.181253 0.279038,0.223643 0.463416,0.249001 0.122215,0.01681 0.276594,0.07162 0.343065,0.1218 0.511712,0.386302 0.725522,0.588837 0.821434,0.77811 0.119931,0.236672 0.154298,0.264802 0.365428,0.29912 0.118732,0.0193 0.170635,0.05948 0.23521,0.182112 0.04724,0.0897 0.14685,0.187862 0.231695,0.228322 0.109563,0.05225 0.228615,0.194598 0.451195,0.539501 0.166298,0.257692 0.298595,0.471772 0.29399,0.475735 -0.0046,0.004 -1.169435,0.587479 -2.588515,1.296697 l -2.580145,1.289492 -0.09333,-0.126235 0,0 z"
     id="path4253"
     inkscape:connector-curvature="0" />
  <path
     style="fill:#0051ba;fill-opacity:1;fill-rule:evenodd;stroke:#0051ba;stroke-width:0.16666667;stroke-linecap:round;stroke-linejoin:round;stroke-miterlimit:4;stroke-opacity:1;stroke-dasharray:none;stroke-dashoffset:0"
     d="m 58.12464,20.778092 c 0,-0.03601 -0.03713,-0.102605 -0.08252,-0.14799 -0.08092,-0.08092 -0.07723,-0.08285 0.191243,-0.09995 0.198284,-0.01262 0.317532,-0.04704 0.432527,-0.124814 0.171903,-0.116267 0.788115,-0.956255 0.831558,-1.133538 0.01465,-0.05979 0.0097,-0.197934 -0.01103,-0.306985 -0.04215,-0.221854 -0.005,-0.34505 0.129575,-0.429059 0.111722,-0.06977 0.142993,-0.02988 0.47283,0.603107 0.273645,0.525155 0.329038,0.568245 0.731705,0.569193 0.150368,3.34e-4 0.309957,0.02348 0.354643,0.05138 0.07748,0.04839 0.07543,0.05991 -0.04424,0.248611 -0.06902,0.10883 -0.125487,0.240874 -0.125487,0.29343 0,0.148721 -0.197958,0.257414 -0.371703,0.204091 -0.18436,-0.05658 -0.283025,0.0012 -0.283025,0.165565 0,0.152356 -0.01642,0.156541 -0.162685,0.04148 -0.06104,-0.04801 -0.142769,-0.0873 -0.18162,-0.0873 -0.03885,0 -0.121977,-0.05439 -0.18472,-0.120868 -0.16597,-0.175846 -0.580192,-0.375167 -0.711284,-0.342266 -0.190671,0.04785 -0.256336,0.15229 -0.227596,0.361972 l 0.02583,0.188459 -0.21881,0 c -0.120345,0 -0.289323,0.02946 -0.375508,0.06547 -0.08618,0.03601 -0.16412,0.06547 -0.173192,0.06547 -0.0091,0 -0.0165,-0.02946 -0.0165,-0.06547 z"
     id="path4255"
     inkscape:connector-curvature="0" />
  <path
     style="fill:#0051ba;fill-opacity:1;fill-rule:evenodd;stroke:#0051ba;stroke-width:0.16666667;stroke-linecap:round;stroke-linejoin:round;stroke-miterlimit:4;stroke-opacity:1;stroke-dasharray:none;stroke-dashoffset:0"
     d="m 58.49656,19.50754 c -0.05827,-0.08893 -0.101227,-0.109172 -0.200687,-0.09457 -0.09926,0.01457 -0.132423,-0.001 -0.153793,-0.072 -0.05469,-0.1818 -0.241417,-0.33064 -0.414805,-0.33064 -0.13826,0 -0.16915,0.01809 -0.204995,0.120033 -0.0387,0.110075 -0.04478,0.11279 -0.0732,0.03274 -0.10069,-0.283572 -0.132527,-0.337685 -0.215137,-0.36569 -0.05027,-0.01704 -0.320133,-0.0203 -0.599703,-0.0072 -0.409925,0.01915 -0.525485,0.03929 -0.59704,0.10406 -0.06106,0.05527 -0.120332,0.07087 -0.190067,0.05002 -0.209548,-0.06266 -0.291088,-0.150529 -0.360151,-0.388099 -0.06965,-0.23958 -0.226644,-0.418788 -0.366882,-0.418788 -0.04207,0 -0.05239,-0.01507 -0.02685,-0.03923 0.02281,-0.02158 0.183413,-0.04675 0.356907,-0.05593 0.28339,-0.015 0.329956,-0.03067 0.45831,-0.15417 0.07858,-0.07561 0.197401,-0.150908 0.264053,-0.167333 0.15398,-0.03795 0.220212,-0.161137 0.18217,-0.338835 l -0.02982,-0.139299 0.105398,0.09754 c 0.14703,0.136063 0.34235,0.166783 0.509819,0.08018 0.07534,-0.03896 0.13699,-0.0914 0.13699,-0.116537 0,-0.02513 0.05175,-0.005 0.115008,0.04477 0.06325,0.04976 0.151462,0.09047 0.196017,0.09047 0.04466,0 0.12526,0.06847 0.17962,0.15258 0.171105,0.264752 0.333211,0.251772 0.44859,-0.03591 l 0.07305,-0.182138 0.137675,0.158043 c 0.07572,0.08693 0.242337,0.213647 0.370255,0.281605 0.265355,0.140974 0.487622,0.349785 0.487622,0.458104 0,0.04052 -0.02712,0.139915 -0.06027,0.220868 -0.03315,0.08095 -0.07339,0.284682 -0.08943,0.452728 -0.03714,0.389172 -0.08579,0.51119 -0.240199,0.602404 -0.121588,0.07182 -0.125933,0.07096 -0.198446,-0.03972 z"
     id="path4257"
     inkscape:connector-curvature="0" />
  <path
     style="fill:#0051ba;fill-opacity:1;fill-rule:evenodd;stroke:#0051ba;stroke-width:0.16666667;stroke-linecap:round;stroke-linejoin:round;stroke-miterlimit:4;stroke-opacity:1;stroke-dasharray:none;stroke-dashoffset:0"
     d="m 68.657315,16.464255 c -0.07592,-0.157197 -0.08612,-0.253265 -0.07492,-0.705748 0.01337,-0.540684 -0.03059,-0.720202 -0.1764,-0.720202 -0.115303,0 -0.187917,-0.1265 -0.217977,-0.37974 -0.04446,-0.37455 -0.100678,-0.557205 -0.19884,-0.646042 -0.04824,-0.04366 -0.126331,-0.20882 -0.173535,-0.367031 -0.09585,-0.321255 -0.437503,-0.943639 -0.700976,-1.276957 -0.206365,-0.261072 -0.217879,-0.393248 -0.08302,-0.953062 0.111165,-0.461473 0.08872,-0.591651 -0.150324,-0.871695 -0.103361,-0.12109 -0.212825,-0.303496 -0.243253,-0.405346 -0.03043,-0.101852 -0.09242,-0.2580604 -0.137757,-0.3471287 -0.130248,-0.2558734 -0.110338,-0.3545517 0.0893,-0.442635 0.09446,-0.041673 0.234595,-0.1485734 0.311419,-0.237555 0.09082,-0.1051884 0.22407,-0.1923217 0.380916,-0.24908 0.141824,-0.051323 0.27716,-0.13588 0.328407,-0.2051884 l 0.08717,-0.11789 -0.116044,-0.2585816 c -0.06383,-0.1422184 -0.116045,-0.3286667 -0.116045,-0.4143284 0,-0.111525 -0.02758,-0.1750667 -0.09713,-0.2237833 -0.05342,-0.03742 -0.127803,-0.1273467 -0.16529,-0.1998384 -0.03749,-0.07249 -0.134735,-0.16575 -0.216107,-0.2072433 -0.103551,-0.052803 -0.16512,-0.1260633 -0.205173,-0.2441383 -0.03147,-0.092783 -0.125528,-0.2443017 -0.209013,-0.3367084 -0.08348,-0.092408 -0.19975,-0.2620166 -0.25837,-0.3769116 -0.12591,-0.2467834 -0.27532,-0.3948517 -0.573032,-0.5678884 -0.307195,-0.1785483 -0.676552,-0.66084 -0.676552,-0.883415 0,-0.099733 -0.05311,-0.2634067 -0.135676,-0.418135 -0.129302,-0.242305 -0.131929,-0.25699 -0.05591,-0.3125767 0.04387,-0.03208 0.154982,-0.07858 0.246914,-0.103335 0.141331,-0.038057 0.188876,-0.031577 0.307851,0.041953 0.07739,0.047828 0.354324,0.1654884 0.615412,0.261465 0.265375,0.097555 0.601783,0.260775 0.762887,0.3701401 0.273148,0.1854316 0.302553,0.1951466 0.563765,0.18626 0.18554,-0.00632 0.28872,-0.03014 0.315783,-0.072923 0.02211,-0.034952 0.0405,-0.187 0.04087,-0.3378867 8.33e-4,-0.3291616 -0.06906,-0.45554 -0.303754,-0.5494433 -0.09256,-0.037035 -0.180581,-0.08723 -0.195608,-0.1115433 -0.0506,-0.081872 0.180908,-0.099682 0.32528,-0.025023 0.103282,0.053408 0.19513,0.064938 0.34887,0.043795 0.208002,-0.028608 0.209228,-0.028028 0.37738,0.1783167 0.358557,0.4399983 0.461942,0.5361083 0.695775,0.6468234 0.273265,0.129385 0.344648,0.24664 0.389988,0.6406066 0.04416,0.3837184 0.13444,0.57351 0.386412,0.812335 0.176848,0.1676217 0.2452,0.2694251 0.283787,0.4226634 0.06336,0.251615 0.195973,0.4011483 0.635913,0.71703 0.310062,0.2226283 0.35344,0.27147 0.414662,0.4668817 0.04354,0.138975 0.102328,0.2331517 0.161853,0.2592917 0.05141,0.022577 0.126692,0.1163333 0.167288,0.2083466 0.08159,0.18492 0.184675,0.2752367 0.699504,0.6128367 0.237491,0.1557367 0.389043,0.29181 0.473785,0.4254 0.636976,1.0041589 0.654723,1.0629539 0.378703,1.2546239 -0.38854,0.269803 -0.569945,0.362855 -0.788015,0.404212 -0.126037,0.0239 -0.237302,0.04346 -0.247253,0.04346 -0.01,0 -0.04682,0.06874 -0.08193,0.15277 -0.0551,0.131866 -0.05547,0.172786 -0.0027,0.299073 0.0941,0.225202 0.124108,0.47783 0.0728,0.612785 -0.02557,0.06725 -0.117252,0.208628 -0.203743,0.31418 -0.121579,0.148372 -0.152174,0.219215 -0.134855,0.312258 0.01232,0.06619 0.05259,0.293585 0.08948,0.505319 0.03689,0.211733 0.09238,0.417971 0.12331,0.45831 0.06767,0.08826 0.333805,0.40944 0.376968,0.454935 0.01691,0.01783 0.137602,0.120945 0.268203,0.229155 0.283087,0.234553 0.47998,0.264511 0.594069,0.09039 0.08552,-0.130515 0.309388,-0.190012 0.394543,-0.104857 0.05054,0.05054 -0.304972,0.242048 -2.311222,1.244972 l -2.370955,1.185238 -0.08788,-0.181966 0,0 z"
     id="path4259"
     inkscape:connector-curvature="0" />
  <path
     style="fill:#ffffff;fill-opacity:1;fill-rule:evenodd;stroke:#0051ba;stroke-width:0.16666667;stroke-linecap:round;stroke-linejoin:round;stroke-miterlimit:4;stroke-opacity:1;stroke-dasharray:none;stroke-dashoffset:0"
     d="m -12.260373,-24.54614 c -0.271255,-0.181445 -0.457638,-0.270905 -0.676553,-0.32473 -0.264411,-0.06501 -0.32681,-0.101037 -0.499516,-0.288403 -0.138484,-0.150239 -0.296378,-0.259236 -0.529275,-0.365371 -0.299018,-0.136267 -0.343954,-0.173378 -0.453387,-0.374443 -0.131736,-0.242043 -0.463767,-0.523497 -0.75507,-0.640053 -0.165301,-0.06614 -0.312279,-0.215167 -0.716272,-0.726256 -0.104542,-0.132256 -0.214176,-0.220518 -0.302268,-0.243345 -0.215645,-0.05588 -0.240581,-0.135303 -0.150961,-0.480836 0.07181,-0.276873 0.07259,-0.314192 0.0097,-0.464767 -0.03762,-0.09005 -0.11778,-0.222399 -0.178126,-0.294115 -0.130189,-0.154721 -0.14609,-0.384396 -0.03333,-0.481458 0.106229,-0.09144 0.442659,-0.272852 0.463949,-0.250168 0.0096,0.01027 0.127987,0.362408 0.262992,0.782525 0.135006,0.420118 0.276276,0.847328 0.313935,0.949356 l 0.06847,0.185507 1.876097,0 1.876096,0 0.10432,0.123977 c 0.05738,0.06819 0.236692,0.189144 0.398481,0.268792 0.161789,0.07965 0.373831,0.217715 0.471206,0.306815 0.09737,0.0891 0.226149,0.177033 0.286166,0.195407 0.06002,0.01837 0.170601,0.08701 0.245744,0.152533 0.09301,0.0811 0.2268665,0.136155 0.4193354,0.172471 0.1554923,0.02934 0.3367252,0.08877 0.4027397,0.13208 l 0.1200261,0.07874 -0.277471,0.187041 c -0.1526085,0.102872 -0.7220062,0.517509 -1.2653282,0.921415 -0.543323,0.403906 -1.014727,0.73288 -1.047566,0.731052 -0.03284,-0.0018 -0.228186,-0.116021 -0.434104,-0.253762 l 0,0 z"
     id="path4261"
     inkscape:connector-curvature="0" />
  <path
     style="fill:#ffffff;fill-opacity:1;fill-rule:evenodd;stroke:#0051ba;stroke-width:0.16666667;stroke-linecap:round;stroke-linejoin:round;stroke-miterlimit:4;stroke-opacity:1;stroke-dasharray:none;stroke-dashoffset:0"
     d="m 4.184167,-15.45022 c 0.1083367,-0.32409 0.213505,-0.589255 0.2337067,-0.589255 0.020202,0 0.06742,0.11294 0.1049283,0.250979 0.037508,0.138039 0.095343,0.330294 0.1285233,0.427235 0.052023,0.15199 0.051432,0.19856 -0.0043,0.338276 l -0.064622,0.162021 -0.2976084,0 -0.29761,0 0.1969767,-0.589256 z"
     id="path4265"
     inkscape:connector-curvature="0" />
  <path
     style="fill:#ffffff;fill-opacity:1;fill-rule:evenodd;stroke:#0051ba;stroke-width:0.16666667;stroke-linecap:round;stroke-linejoin:round;stroke-miterlimit:4;stroke-opacity:1;stroke-dasharray:none;stroke-dashoffset:0"
     d="m 4.7108337,-14.043333 c -0.222115,-0.08218 -0.2751284,-0.087 -0.4480234,-0.04076 -0.107855,0.02885 -0.2400133,0.05237 -0.2936833,0.05229 -0.088938,-1.49e-4 -0.085983,-0.0073 0.033363,-0.08022 0.07202,-0.04403 0.15605,-0.110474 0.186735,-0.147647 0.05018,-0.06079 0.082387,-0.05931 0.32034,0.01475 0.1455034,0.04529 0.3292584,0.08234 0.408345,0.08234 0.1187167,0 0.14743,0.01903 0.1646517,0.109121 0.025903,0.1355 -0.028843,0.136992 -0.3717283,0.01013 z"
     id="path4267"
     inkscape:connector-curvature="0" />
  <path
     style="fill:#ffffff;fill-opacity:1;fill-rule:evenodd;stroke:#0051ba;stroke-width:0.16666667;stroke-linecap:round;stroke-linejoin:round;stroke-miterlimit:4;stroke-opacity:1;stroke-dasharray:none;stroke-dashoffset:0"
     d="m -1.0917331,3.1254182 c 0.01475,-0.2097667 6.667e-4,-0.2672651 -0.10288,-0.4178334 -0.1895167,-0.2757533 -0.19099,-0.76385 -0.0023,-0.76385 0.1022883,0 0.20164833,-0.156045 0.20164833,-0.3166883 0,-0.1817534 0.059295,-0.2097834 0.32351667,-0.152925 0.18487167,0.039782 0.38268001,-0.00822 0.51047001,-0.1238634 0.069635,-0.06302 0.081645,-0.059688 0.14757167,0.040928 0.13047,0.1991216 0.39964167,0.2271116 0.54140501,0.056295 0.0622983,-0.075063 0.117895,-0.4074017 0.16288,-0.9736484 C 0.71661026,0.14617976 0.72736193,0.11485476 0.82195193,0.09111476 0.9286086,0.06434643 1.1074036,-0.24841691 1.3151686,-0.77165192 c 0.07303,-0.18392334 0.1383867,-0.27250168 0.2493767,-0.33798838 0.1469233,-0.086687 0.31796,-0.3727866 0.3200367,-0.5353433 5e-4,-0.041253 0.1079366,-0.1540367 0.2386883,-0.2506283 0.13075,-0.096592 0.2988567,-0.2644684 0.37357,-0.3730601 0.181375,-0.2636183 0.2948417,-0.3302233 0.67526,-0.3963766 0.2088967,-0.036325 0.3853867,-0.098748 0.50539,-0.17875 0.3909684,-0.26064 0.3734784,-0.25822 0.6238067,-0.086313 0.12374,0.084977 0.3919383,0.231325 0.595995,0.32522 0.2040567,0.093895 0.4681567,0.23258 0.5868884,0.30819 0.1277716,0.081365 0.273495,0.1374717 0.357055,0.1374717 0.1375683,0 0.14017,0.00352 0.10179,0.1373317 -0.05342,0.1862683 0.016467,0.4744067 0.1413683,0.58287 0.09562,0.083032 0.1015067,0.1224767 0.1205117,0.80749835 C 6.234452,0.4334081 6.232727,0.53850644 6.1849254,0.58626144 6.1558437,0.6153131 6.0028837,0.52549644 5.7266154,0.31714976 5.4985504,0.14515476 5.108402,-0.13807358 4.859617,-0.31224858 L 4.407282,-0.62893025 4.2048887,-0.49023692 C 3.8541237,-0.24986858 1.2577036,1.6293515 0.05007525,2.5169065 l -1.15891165,0.8517517 0.01711,-0.24324 0,0 z"
     id="path4269"
     inkscape:connector-curvature="0" />
  <path
     style="fill:#ffffff;fill-opacity:1;fill-rule:evenodd;stroke:#0051ba;stroke-width:0.16666667;stroke-linecap:round;stroke-linejoin:round;stroke-miterlimit:4;stroke-opacity:1;stroke-dasharray:none;stroke-dashoffset:0"
     d="M 8.8155454,2.5613965 C 8.0902687,2.0248715 8.0728604,1.9970981 8.4576721,1.9904515 c 0.1421667,-0.00245 0.2248833,0.032193 0.4143767,0.1735733 0.130215,0.097153 0.3220333,0.198115 0.4262633,0.2243617 0.1042283,0.026245 0.1986667,0.071587 0.2098617,0.1007583 0.0112,0.029172 0.014433,0.1716533 0.0072,0.3166267 l -0.01315,0.263585 -0.6866634,-0.50796 z"
     id="path4271"
     inkscape:connector-curvature="0" />
  <path
     style="fill:#ffffff;fill-opacity:1;fill-rule:evenodd;stroke:#0051ba;stroke-width:0.16666667;stroke-linecap:round;stroke-linejoin:round;stroke-miterlimit:4;stroke-opacity:1;stroke-dasharray:none;stroke-dashoffset:0"
     d="m 18.137222,12.250818 c -0.294398,-0.227225 -0.30733,-0.244318 -0.218241,-0.288458 0.06111,-0.03028 0.111603,-0.116235 0.142356,-0.242343 l 0.04766,-0.195422 0.03143,0.218243 c 0.01853,0.12865 0.09485,0.322442 0.185926,0.472067 0.08497,0.139603 0.147594,0.25914 0.139155,0.265638 -0.0084,0.0065 -0.156166,-0.09688 -0.328285,-0.229725 l 0,0 z"
     id="path4273"
     inkscape:connector-curvature="0" />
  <path
     style="fill:#fcd116;fill-opacity:1;fill-rule:evenodd;stroke:#fcd116;stroke-width:0.16666667;stroke-linecap:round;stroke-linejoin:round;stroke-miterlimit:4;stroke-opacity:1;stroke-dasharray:none;stroke-dashoffset:0"
     d="m 54.390376,33.287229 c -0.14429,-0.04068 -0.301028,-0.07488 -0.348308,-0.076 -0.04728,-0.0012 -0.119542,-0.02403 -0.160583,-0.05092 -0.07023,-0.04601 -0.08357,-0.04387 -0.226555,0.03651 l -0.151934,0.08541 -0.150446,-0.113338 c -0.398175,-0.299967 -0.35693,-0.284309 -0.64074,-0.243274 -0.538562,0.07787 -0.764405,0.03183 -1.16212,-0.236895 -0.30843,-0.2084 -0.322247,-0.211301 -0.693265,-0.145556 -0.285625,0.05061 -0.3935,0.08778 -0.501622,0.172828 -0.04273,0.03361 -0.119542,0.06111 -0.170695,0.06111 -0.128102,0 -0.32618,-0.211245 -0.78972,-0.84222 -0.154692,-0.210569 -0.337822,-0.351867 -0.493767,-0.380982 -0.07127,-0.0133 -0.1851,-0.0828 -0.312555,-0.190822 -0.21164,-0.17937 -0.460516,-0.313566 -0.582461,-0.31407 -0.06422,-3.33e-4 -0.07048,-0.01057 -0.05181,-0.08518 0.0763,-0.305002 0.03992,-0.405652 -0.180842,-0.500278 -0.127258,-0.05455 -0.132038,-0.0616 -0.134095,-0.197684 -0.0024,-0.157201 -0.09347,-0.315458 -0.206278,-0.358346 -0.0373,-0.01418 -0.146367,-0.0356 -0.242364,-0.04759 -0.24323,-0.03039 -0.255003,-0.05212 -0.207556,-0.383146 0.02162,-0.150809 0.02942,-0.31357 0.01734,-0.361692 -0.04675,-0.186285 -0.603428,-1.016595 -0.715935,-1.067857 -0.03999,-0.01822 -0.0727,-0.04135 -0.0727,-0.05141 0,-0.01005 1.156418,-0.59644 2.569818,-1.303079 l 2.56982,-1.2848 0.10535,0.08795 c 0.05794,0.04837 0.154997,0.110238 0.215677,0.137478 0.06068,0.02724 0.172823,0.08193 0.249212,0.121534 0.16489,0.08549 0.365863,0.10283 0.772713,0.06668 0.242868,-0.02158 0.315017,-0.0175 0.41272,0.02332 0.24158,0.100938 0.364242,0.07125 0.75801,-0.18348 0.127523,-0.0825 0.248323,-0.13742 0.302235,-0.13742 0.04939,0 0.241407,0.0478 0.426693,0.106223 0.60146,0.189644 0.792125,0.233284 1.019227,0.233284 0.260347,0 0.37162,-0.04036 0.699318,-0.25365 0.304149,-0.197962 0.361274,-0.198489 0.840565,-0.0077 0.312507,0.124361 0.40447,0.147856 0.588632,0.150383 0.191868,0.0026 0.234608,-0.0078 0.353455,-0.08644 0.118728,-0.07855 0.183893,-0.09452 0.535017,-0.131174 l 0.399823,-0.04173 0.185293,0.09259 c 0.260404,0.130124 0.562882,0.130767 0.915857,0.002 l 0.248372,-0.09064 0.172316,0.09064 c 0.09478,0.04986 0.21346,0.09064 0.263745,0.09064 0.116734,0 0.20967,0.09845 0.384814,0.407644 0.169571,0.299358 0.28186,0.371105 0.690331,0.441098 0.338954,0.05808 0.419304,0.100703 0.48456,0.257053 0.05423,0.129925 0.554499,0.873495 0.673257,1.000687 0.06324,0.06773 0.10669,0.08488 0.215067,0.08488 0.0747,0 0.144403,-0.01388 0.154893,-0.03086 0.03751,-0.06069 0.286249,-0.02912 0.598067,0.07589 0.174342,0.05871 0.402767,0.1163 0.507608,0.127972 0.185802,0.02069 0.196865,0.02721 0.437535,0.25809 0.135804,0.130277 0.341635,0.303252 0.457405,0.384387 0.11577,0.08113 0.217579,0.165986 0.22624,0.188558 0.0087,0.02257 0.05565,0.05495 0.104415,0.07195 0.06662,0.02322 0.11521,0.08362 0.19539,0.242833 l 0.106724,0.211924 -3.724099,1.860515 -3.724098,1.860515 -0.29321,-0.05187 c -0.350727,-0.06204 -0.576919,-0.04825 -1.265434,0.07717 -0.56413,0.10276 -0.688291,0.11576 -1.481481,0.155112 -0.331019,0.01642 -0.671295,0.03649 -0.756172,0.04459 -0.106855,0.0102 -0.235015,-0.008 -0.416667,-0.05924 l 0,0 z"
     id="path4608"
     inkscape:connector-curvature="0" />
  <path
     style="fill:#fcd116;fill-opacity:1;fill-rule:evenodd;stroke:#fcd116;stroke-width:0.16666667;stroke-linecap:round;stroke-linejoin:round;stroke-miterlimit:4;stroke-opacity:1;stroke-dasharray:none;stroke-dashoffset:0"
     d="m 76.072487,24.256725 c -0.05092,-0.0325 -0.196754,-0.08195 -0.324075,-0.109898 -0.362044,-0.07948 -0.440677,-0.132218 -0.628334,-0.42144 -0.186618,-0.287618 -0.23792,-0.34007 -0.39805,-0.406977 -0.162728,-0.06799 -0.327221,-0.05888 -0.579451,0.03211 -0.121337,0.04377 -0.22672,0.07347 -0.234184,0.06601 -0.0075,-0.0075 6.67e-4,-0.05112 0.01816,-0.09702 0.07854,-0.206572 0.02325,-0.353714 -0.287753,-0.765847 -0.294292,-0.389983 -0.307232,-0.398178 -0.690222,-0.437133 -0.18309,-0.01862 -0.348432,-0.04397 -0.367425,-0.05633 -0.01899,-0.01235 -0.04419,-0.133145 -0.05599,-0.268413 -0.0242,-0.277357 -0.07539,-0.368682 -0.259615,-0.46312 -0.06205,-0.03181 -0.191822,-0.147485 -0.288375,-0.257057 -0.226537,-0.257083 -0.324113,-0.301176 -0.740577,-0.334653 -0.18516,-0.01488 -0.361901,-0.04057 -0.392758,-0.05709 -0.03086,-0.01652 -0.07334,-0.07569 -0.0944,-0.131514 -0.02106,-0.05582 -0.05379,-0.143155 -0.07272,-0.19408 -0.01894,-0.05093 -0.08916,-0.152105 -0.156045,-0.22484 -0.104264,-0.113375 -0.129712,-0.170337 -0.178344,-0.399205 -0.06343,-0.298495 -0.12825,-0.411923 -0.315413,-0.551935 -0.07039,-0.05265 -0.164212,-0.149873 -0.208503,-0.216048 -0.21575,-0.32234 -0.315219,-0.468654 -0.383902,-0.564697 -0.06248,-0.08737 -0.07503,-0.141462 -0.07517,-0.324075 -1.67e-4,-0.307697 -0.03952,-0.418058 -0.213253,-0.599263 -0.117114,-0.122149 -0.158932,-0.19318 -0.184834,-0.313949 -0.01841,-0.08584 -0.06807,-0.224363 -0.110361,-0.307815 l -0.07689,-0.151733 2.364447,-1.189537 2.364448,-1.189538 0.05818,0.07397 c 0.032,0.04068 0.148352,0.138312 0.258554,0.216952 0.110203,0.07864 0.199928,0.152695 0.199388,0.164568 -5e-4,0.01187 -0.02137,0.04855 -0.0463,0.0815 -0.08828,0.116723 -0.02612,0.342855 0.145407,0.52894 0.18157,0.196982 0.448145,0.227472 0.524457,0.05999 l 0.03407,-0.07477 0.12692,0.06424 c 0.257542,0.130345 0.478427,0.307151 0.512425,0.41017 0.04082,0.123683 0.134962,0.214426 0.289404,0.278956 0.06518,0.02723 0.186721,0.11332 0.270091,0.191304 0.14892,0.139296 0.150355,0.14239 0.08169,0.176151 -0.03844,0.0189 -0.09376,0.08198 -0.122927,0.140184 -0.02917,0.0582 -0.07778,0.118761 -0.108025,0.13458 -0.08724,0.04563 -0.132153,0.118418 -0.132153,0.214201 0,0.166322 0.07142,0.229614 0.321097,0.28455 0.143506,0.03158 0.342071,0.186685 0.44568,0.348145 0.08909,0.138837 0.0934,0.158045 0.06091,0.27137 -0.01923,0.06708 -0.03271,0.155852 -0.02995,0.197279 0.0056,0.08404 0.107795,0.207255 0.194805,0.23487 0.04946,0.0157 0.05686,0.05288 0.05696,0.286025 1.67e-4,0.423458 0.110255,0.553748 0.436632,0.516823 0.17465,-0.01976 0.18194,-0.01769 0.2115,0.06006 0.01684,0.04429 0.03819,0.131792 0.04745,0.194453 0.01622,0.109705 0.01037,0.118505 -0.157443,0.237382 -0.2782,0.197073 -0.333808,0.378948 -0.166897,0.54586 0.07583,0.07583 0.112409,0.09075 0.1929,0.0787 0.08087,-0.01212 0.120849,0.0045 0.215155,0.08924 0.127777,0.114852 0.182242,0.125346 0.308552,0.05945 0.04668,-0.02435 0.08488,-0.03134 0.08488,-0.01552 0,0.01582 0.04952,0.06013 0.11004,0.09848 0.103005,0.06527 0.109005,0.07779 0.09387,0.195862 -0.02183,0.170337 0.04135,0.259668 0.18364,0.259668 0.169032,0 0.123153,0.05125 -0.06576,0.07345 -0.24155,0.02839 -0.377418,0.09192 -0.41728,0.19512 -0.08838,0.228826 0.04773,0.676611 0.242035,0.796246 0.07657,0.04715 0.09568,0.07631 0.08091,0.123457 -0.04626,0.147575 -0.04565,0.348842 0.0013,0.461447 0.0269,0.0644 0.04892,0.122041 0.04892,0.128106 0,0.0061 -0.06199,-0.03267 -0.137757,-0.08607 -0.237945,-0.167718 -0.43656,-0.10504 -0.468522,0.147855 -0.0139,0.110058 0.003,0.14536 0.19888,0.415773 l 0.21408,0.295502 -0.844845,0.42209 c -0.464665,0.23215 -0.855195,0.421075 -0.867846,0.419833 -0.01265,-0.0012 -0.06466,-0.02884 -0.115584,-0.06134 l 0,0 z"
     id="path4610"
     inkscape:connector-curvature="0" />
  <path
     style="fill:#215b33;fill-opacity:1;fill-rule:evenodd;stroke:#215b33;stroke-width:0.16666667;stroke-linecap:round;stroke-linejoin:round;stroke-miterlimit:4;stroke-opacity:1;stroke-dasharray:none;stroke-dashoffset:0"
     d="m 65.510885,35.38305 c -0.350887,-0.184015 -0.363057,-0.187791 -0.648148,-0.201126 -0.389192,-0.0182 -0.404505,-0.02264 -0.568515,-0.164585 -0.07835,-0.06781 -0.16263,-0.123294 -0.187292,-0.123294 -0.02466,0 -0.06896,-0.01348 -0.09843,-0.02995 -0.02948,-0.01647 -0.28898,-0.09286 -0.576673,-0.169753 -0.571032,-0.15262 -0.756642,-0.168437 -1.09729,-0.09351 -0.250025,0.055 -0.45157,0.05824 -0.48429,0.0078 -0.01373,-0.02117 -0.05443,-0.10661 -0.09043,-0.189866 -0.110869,-0.256374 -0.205817,-0.351305 -0.374135,-0.374067 -0.256374,-0.03467 -0.329665,-0.06964 -0.393205,-0.187632 -0.08107,-0.15054 -0.324717,-0.363951 -0.519292,-0.454853 -0.30299,-0.141552 -0.834402,-0.234622 -1.363147,-0.23874 -0.153223,-0.0012 -0.302735,-0.01173 -0.332246,-0.02343 -0.03731,-0.01478 1.064931,-0.580491 3.61718,-1.856473 2.018963,-1.009367 3.676825,-1.828685 3.684138,-1.820707 0.0073,0.008 0.05828,0.11775 0.113274,0.243939 0.0982,0.22534 0.09962,0.23525 0.07982,0.555555 -0.01198,0.193788 -0.0075,0.368866 0.01112,0.431461 0.04617,0.15552 0.178883,0.331335 0.282513,0.37426 0.08891,0.03683 0.331357,0.02985 0.68564,-0.01973 l 0.148422,-0.02077 0.175653,0.186539 c 0.206268,0.219051 0.296067,0.268893 0.598835,0.332375 0.469303,0.0984 0.441015,0.08009 0.441015,0.285503 0,0.158633 0.01423,0.200943 0.118498,0.35229 0.07867,0.114187 0.159072,0.190298 0.239199,0.226432 0.131613,0.05935 0.141615,0.08951 0.07925,0.238945 -0.08225,0.197056 -0.08481,0.306131 -0.01248,0.53085 0.06224,0.19337 0.08263,0.222796 0.198605,0.286741 0.11636,0.06415 0.132699,0.0879 0.163902,0.238205 0.01906,0.09182 0.06784,0.215842 0.108397,0.275605 l 0.07374,0.10866 -0.255647,0.170102 c -0.311592,0.207325 -0.555737,0.318265 -0.823698,0.374288 -0.111555,0.02332 -0.284439,0.0785 -0.384184,0.122609 -0.117078,0.05178 -0.2585,0.08544 -0.399023,0.09497 -0.119717,0.0081 -0.321835,0.04138 -0.44915,0.07391 -0.127315,0.03253 -0.356482,0.089 -0.50926,0.125495 -0.152777,0.0365 -0.341158,0.09834 -0.418625,0.137437 -0.136695,0.06899 -0.368412,0.291475 -0.368412,0.353742 0,0.0634 -0.11814,0.023 -0.465625,-0.159232 z"
     id="path4859"
     inkscape:connector-curvature="0" />
  <path
     style="fill:#215b33;fill-opacity:1;fill-rule:evenodd;stroke:#215b33;stroke-width:0.16666667;stroke-linecap:round;stroke-linejoin:round;stroke-miterlimit:4;stroke-opacity:1;stroke-dasharray:none;stroke-dashoffset:0"
     d="m 80.3248,29.347594 c -0.09716,-0.14428 -0.262258,-0.298372 -0.54665,-0.510219 -0.122408,-0.09118 -0.400905,-0.190243 -0.632478,-0.22497 -0.139725,-0.02095 -0.14447,-0.02514 -0.14447,-0.127415 0,-0.138308 -0.08233,-0.294966 -0.291667,-0.555003 -0.09381,-0.116527 -0.193103,-0.279123 -0.220653,-0.361327 -0.03434,-0.102465 -0.09846,-0.194661 -0.203927,-0.29321 -0.177098,-0.16549 -0.25575,-0.324236 -0.41389,-0.835371 -0.06088,-0.196769 -0.17828,-0.498939 -0.260893,-0.67149 -0.122947,-0.256789 -0.180919,-0.340242 -0.319425,-0.459819 -0.09642,-0.08324 -0.189245,-0.196146 -0.21577,-0.262436 -0.0451,-0.112717 -0.177714,-0.224555 -0.702685,-0.5926 l -0.144344,-0.101197 0.846932,-0.413235 0.846933,-0.413235 0.07034,0.06608 c 0.03869,0.03635 0.113291,0.08106 0.165785,0.09936 0.07305,0.02546 0.142571,0.107067 0.296345,0.347843 0.42226,0.661175 0.491963,0.796207 0.513256,0.99431 0.02073,0.19287 0.09579,0.347567 0.22965,0.473324 0.04201,0.03947 0.107917,0.157288 0.146452,0.26182 0.03854,0.104531 0.123164,0.275015 0.18806,0.378855 0.0649,0.103838 0.132409,0.230145 0.150027,0.28068 0.0392,0.11244 0.16472,0.209175 0.328738,0.25334 0.120354,0.03241 0.12313,0.03626 0.120237,0.166938 -0.0026,0.116257 0.01208,0.14796 0.112003,0.2422 0.107247,0.101157 0.112944,0.115477 0.08487,0.213343 -0.05332,0.185932 -0.03476,0.307082 0.07794,0.5086 0.09918,0.177357 0.108025,0.214065 0.108025,0.448474 0,0.143156 0.02233,0.334888 0.05083,0.436473 0.05539,0.19741 0.03377,0.376255 -0.08094,0.669405 l -0.05347,0.136647 -0.105169,-0.156165 0,0 z"
     id="path4861"
     inkscape:connector-curvature="0" />
  <path
     style="fill:#215b33;fill-opacity:1;fill-rule:evenodd;stroke:#215b33;stroke-width:0.16666667;stroke-linecap:round;stroke-linejoin:round;stroke-miterlimit:4;stroke-opacity:1;stroke-dasharray:none;stroke-dashoffset:0"
     d="m 83.97428,32.67919 c -0.01795,-0.03354 -0.06143,-0.137945 -0.09662,-0.232001 -0.05827,-0.15575 -0.07971,-0.17902 -0.240153,-0.260714 -0.150212,-0.07648 -0.183505,-0.109566 -0.225972,-0.224528 -0.03182,-0.08614 -0.10701,-0.185713 -0.208217,-0.275747 -0.166128,-0.147783 -0.224766,-0.266671 -0.26479,-0.536841 -0.02492,-0.168229 -0.141531,-0.31826 -0.387971,-0.499164 -0.109645,-0.08049 -0.178275,-0.108001 -0.269382,-0.108001 -0.165512,0 -0.221875,0.07103 -0.261107,0.329045 -0.08229,0.54119 -0.119448,0.649176 -0.211035,0.613278 -0.02502,-0.0098 -0.127911,-0.171132 -0.228656,-0.358503 -0.103105,-0.191759 -0.262979,-0.430919 -0.36574,-0.547125 -0.201769,-0.228164 -0.280077,-0.362027 -0.330494,-0.564955 -0.03007,-0.12102 -0.02207,-0.174404 0.07567,-0.505155 0.121158,-0.409992 0.135202,-0.60794 0.059,-0.831582 -0.0382,-0.112113 -0.04458,-0.193203 -0.02653,-0.337288 0.04265,-0.340399 0.02997,-0.437605 -0.0888,-0.681174 l -0.111644,-0.228953 0.0573,-0.279388 c 0.04467,-0.217784 0.08567,-0.322917 0.185924,-0.476799 0.07074,-0.108576 0.141455,-0.24217 0.157145,-0.296876 0.05706,-0.19894 -0.03719,-0.438899 -0.203542,-0.518225 -0.08593,-0.04097 -0.104652,-0.06481 -0.09,-0.114575 0.07553,-0.256472 0.02633,-0.40746 -0.161871,-0.496767 -0.09429,-0.04474 -0.110144,-0.04479 -0.177739,-5e-4 -0.04082,0.02674 -0.08165,0.04863 -0.09073,0.04863 -0.03394,0 -0.01485,-0.18162 0.03049,-0.290145 0.05695,-0.1363 0.03017,-0.201124 -0.119575,-0.289477 -0.07014,-0.04138 -0.131924,-0.118818 -0.185984,-0.23309 -0.106268,-0.224633 -0.102966,-0.294842 0.0046,-0.09876 0.101769,0.185431 0.21777,0.267826 0.49607,0.352358 0.116007,0.03524 0.248595,0.0937 0.29464,0.129918 0.04605,0.03622 0.144594,0.192745 0.218992,0.347835 0.0744,0.15509 0.248438,0.43403 0.386753,0.619869 0.298692,0.401315 0.36093,0.519193 0.491477,0.930838 0.122408,0.385983 0.171695,0.468193 0.378152,0.630758 0.193875,0.152659 0.238351,0.222157 0.239818,0.37474 0.0018,0.18247 0.05048,0.26685 0.306937,0.531597 0.14602,0.150735 0.256061,0.293837 0.277593,0.360985 0.01962,0.06119 0.08153,0.165353 0.137578,0.231482 0.07103,0.0838 0.112807,0.175416 0.137884,0.30238 0.02209,0.111843 0.06877,0.22283 0.120946,0.28755 0.210264,0.260821 0.242154,0.452823 0.129352,0.778773 -0.10345,0.298928 -0.09089,0.384627 0.111705,0.762332 l 0.178733,0.333211 0.02778,0.5228 c 0.02451,0.461339 0.02159,0.539449 -0.02486,0.664412 -0.06797,0.182852 -0.09323,0.208182 -0.133175,0.133547 l 0,0 z"
     id="path4863"
     inkscape:connector-curvature="0" />
  <path
     style="fill:#215b33;fill-opacity:1;fill-rule:evenodd;stroke:#215b33;stroke-width:0.16666667;stroke-linecap:round;stroke-linejoin:round;stroke-miterlimit:4;stroke-opacity:1;stroke-dasharray:none;stroke-dashoffset:0"
     d="m 92.058714,33.575614 c -0.04565,-0.114027 -0.135909,-0.298054 -0.20058,-0.40895 -0.172687,-0.29612 -0.340335,-0.919627 -0.340069,-1.264764 1.12e-4,-0.145215 -0.01608,-0.370981 -0.03597,-0.501705 -0.03575,-0.23486 -0.03518,-0.239185 0.04802,-0.364905 l 0.0842,-0.127226 0.206405,0.02148 c 0.113525,0.01182 0.211913,0.02644 0.218645,0.03249 0.0067,0.006 -0.01758,0.08891 -0.05401,0.184131 -0.07588,0.19829 -0.08541,0.410792 -0.02386,0.531815 0.02637,0.05184 0.04787,0.23116 0.0569,0.47439 0.01288,0.34745 0.02398,0.410422 0.09955,0.564867 0.109408,0.223622 0.172597,0.744832 0.114007,0.940387 -0.02065,0.06892 -0.0494,0.125305 -0.06388,0.125305 -0.01448,0 -0.06369,-0.09329 -0.10934,-0.20732 z"
     id="path4865"
     inkscape:connector-curvature="0" />
  <path
     style="fill:#215b33;fill-opacity:1;fill-rule:evenodd;stroke:#215b33;stroke-width:0.16666667;stroke-linecap:round;stroke-linejoin:round;stroke-miterlimit:4;stroke-opacity:1;stroke-dasharray:none;stroke-dashoffset:0"
     d="m 95.762274,53.026289 c -0.04844,-0.02812 -0.262174,-0.04555 -0.50782,-0.04143 l -0.424175,0.0071 -0.231524,-0.183008 c -0.157075,-0.124162 -0.341003,-0.216524 -0.57199,-0.287234 -0.252271,-0.07722 -0.39982,-0.154886 -0.569583,-0.299793 -0.126015,-0.107563 -0.272732,-0.206517 -0.326038,-0.219895 -0.05331,-0.01338 -0.282314,-0.01749 -0.508905,-0.0091 -0.324992,0.01198 -0.430802,0.03223 -0.501105,0.09592 -0.08253,0.07476 -0.09649,0.07557 -0.188802,0.01092 -0.05483,-0.0384 -0.179325,-0.06982 -0.276668,-0.06982 -0.142019,0 -0.199689,-0.02587 -0.29189,-0.130946 -0.126349,-0.143989 -0.256235,-0.163844 -0.428319,-0.06547 -0.163276,0.09334 -0.282303,0.07933 -0.590951,-0.06952 -0.189919,-0.0916 -0.309317,-0.182582 -0.37138,-0.283002 -0.202882,-0.328268 -0.431199,-0.385781 -0.496625,-0.125098 l -0.0286,0.113933 -0.08436,-0.107245 c -0.11942,-0.151816 -0.37484,-0.263663 -0.53086,-0.23246 -0.103364,0.02067 -0.1482,0.0028 -0.229359,-0.09158 -0.07444,-0.08655 -0.141723,-0.117277 -0.256763,-0.117277 -0.123785,0 -0.160805,-0.0196 -0.179773,-0.09518 -0.01313,-0.05235 -0.06327,-0.105475 -0.111402,-0.118061 -0.07012,-0.01834 -0.08255,-0.04771 -0.06254,-0.147762 0.03723,-0.186157 -0.116602,-0.363567 -0.31525,-0.363567 -0.08386,0 -0.189639,0.01989 -0.235067,0.0442 -0.06598,0.03531 -0.09252,0.02566 -0.131952,-0.04802 -0.04313,-0.08059 -0.07406,-0.08852 -0.245126,-0.06287 -0.186205,0.02792 -0.193479,0.02508 -0.148894,-0.05823 0.105587,-0.197292 -0.01857,-0.486162 -0.208946,-0.486162 -0.03562,0 -0.139442,-0.03437 -0.230712,-0.07639 -0.132195,-0.06085 -0.166172,-0.100568 -0.16707,-0.195298 -8.33e-4,-0.08497 -0.03542,-0.136647 -0.121262,-0.181037 -0.06607,-0.03417 -0.157508,-0.10342 -0.203183,-0.153891 -0.114488,-0.126509 -0.260553,-0.114844 -0.427277,0.03412 l -0.140893,0.125888 -0.0759,-0.169538 c -0.04175,-0.09325 -0.0931,-0.169537 -0.114129,-0.169537 -0.02102,0 -0.0298,-0.05738 -0.01951,-0.127521 0.0157,-0.10691 -0.0028,-0.13866 -0.114514,-0.196419 -0.07327,-0.03789 -0.171301,-0.0689 -0.217836,-0.0689 -0.06081,0 -0.09221,-0.0399 -0.11163,-0.141859 -0.03216,-0.168821 -0.302267,-0.469221 -0.421904,-0.469221 -0.04649,0 -0.180721,0.05371 -0.298293,0.119351 -0.210248,0.117387 -0.216333,0.118127 -0.369653,0.04501 l -0.155887,-0.07434 0.1161,-0.223778 c 0.192772,-0.37156 0.248538,-0.884092 0.10698,-0.983242 -0.0573,-0.04014 -0.09001,-0.132468 -0.107727,-0.304148 -0.03918,-0.379567 -0.261791,-0.564765 -0.522525,-0.434694 -0.175068,0.08734 -0.1759,0.08681 -0.09867,-0.06253 0.03663,-0.07083 0.06659,-0.159216 0.06659,-0.19642 0,-0.0372 0.02013,-0.06764 0.04473,-0.06764 0.0246,0 0.0634,-0.04911 0.08622,-0.109121 0.05508,-0.144872 -0.01108,-0.311439 -0.139359,-0.350795 -0.194186,-0.05958 -0.203305,-0.09444 -0.08808,-0.33671 0.05993,-0.126014 0.15527,-0.284637 0.211853,-0.352497 0.06466,-0.07754 0.102878,-0.179723 0.102878,-0.275032 0,-0.130926 -0.02009,-0.160041 -0.14703,-0.21308 -0.08569,-0.0358 -0.210875,-0.05107 -0.300073,-0.0366 -0.132782,0.02155 -0.177053,0.0031 -0.33437,-0.13898 -0.170038,-0.153618 -0.204905,-0.165965 -0.560122,-0.198342 -0.208336,-0.01899 -0.430386,-0.02421 -0.493441,-0.0116 -0.0905,0.0181 -0.139192,-0.0062 -0.231205,-0.115591 -0.126625,-0.150485 -0.254275,-0.196315 -0.672474,-0.241437 -0.271818,-0.02933 -0.273163,-0.02891 -0.486191,0.149445 -0.117492,0.09837 -0.244229,0.178853 -0.281639,0.178853 -0.03741,0 -0.160371,-0.04911 -0.273246,-0.109121 -0.156852,-0.0834 -0.270576,-0.109122 -0.482446,-0.109122 l -0.277213,0 -6.67e-4,-0.185507 c -3.33e-4,-0.102028 -0.01859,-0.213825 -0.04049,-0.248436 -0.0278,-0.04394 -0.0078,-0.100942 0.06614,-0.188857 0.112045,-0.133157 0.12078,-0.175393 0.06527,-0.315645 -0.02502,-0.06322 -0.0052,-0.12238 0.07176,-0.2145 0.07339,-0.08782 0.09731,-0.155393 0.07725,-0.218243 -0.01598,-0.05007 -0.03361,-0.27134 -0.03918,-0.491707 -0.0094,-0.372865 -0.0038,-0.402357 0.0804,-0.424978 0.175511,-0.04713 0.339862,-0.02454 0.449625,0.0618 0.144533,0.11369 0.205257,0.110089 0.326595,-0.01937 0.201218,-0.214682 0.460435,-0.252245 0.648522,-0.09398 0.08612,0.07246 0.223016,0.120478 0.442786,0.155295 0.456837,0.07238 0.879757,0.204372 0.968305,0.302215 0.04205,0.04646 0.127947,0.0974 0.190894,0.113197 0.06294,0.0158 0.179438,0.08579 0.258873,0.155533 0.07943,0.06974 0.25693,0.159513 0.394433,0.199487 0.137504,0.03997 0.319104,0.130216 0.403555,0.200541 0.08445,0.07033 0.261579,0.171689 0.393615,0.225254 0.132037,0.05356 0.333829,0.169288 0.448425,0.257163 0.186369,0.142912 0.437064,0.249685 0.587827,0.250362 0.02979,1.36e-4 0.09853,0.06873 0.15277,0.152426 0.05953,0.09187 0.1851,0.193695 0.316853,0.256932 0.120034,0.05761 0.26158,0.155248 0.314549,0.21697 0.05297,0.06172 0.175736,0.152747 0.272821,0.202277 0.09813,0.05006 0.224242,0.165651 0.283984,0.260288 0.130988,0.2075 0.236531,0.245817 0.485278,0.176172 l 0.190798,-0.05342 0.195,0.21271 c 0.10725,0.11699 0.206885,0.263965 0.22141,0.32661 0.03176,0.136973 0.216152,0.321443 0.385112,0.385281 0.172548,0.06519 0.472775,0.05533 0.57062,-0.01875 0.05518,-0.04178 0.10677,-0.04936 0.156132,-0.02294 0.04055,0.0217 0.175623,0.05297 0.300173,0.06949 0.203718,0.02702 0.233692,0.04529 0.298545,0.181956 0.08997,0.189605 0.391665,0.413207 0.734083,0.54407 0.195872,0.07486 0.351919,0.100089 0.619012,0.100089 0.32594,0 0.36786,-0.01007 0.480133,-0.11535 0.09914,-0.09296 0.152664,-0.11104 0.275785,-0.09314 0.08402,0.01222 0.201875,0.06616 0.261892,0.119865 0.152482,0.136452 0.233595,0.156232 0.363752,0.08871 0.062,-0.03216 0.226486,-0.05823 0.365531,-0.05791 l 0.25281,5e-4 0.190599,0.239701 c 0.292261,0.367555 0.386515,0.41046 0.878791,0.400039 0.228064,-0.0048 0.499302,-0.0029 0.602752,0.0042 0.240643,0.01658 0.35287,-0.0831 0.465023,-0.41305 0.04555,-0.134008 0.09728,-0.252588 0.114955,-0.263512 0.01767,-0.01092 0.128237,8.34e-4 0.245695,0.02594 0.167064,0.03583 0.230744,0.07489 0.292487,0.17941 0.04341,0.07348 0.147667,0.174168 0.231685,0.22374 0.11061,0.06526 0.186058,0.164345 0.273433,0.359088 0.07177,0.159955 0.184404,0.321489 0.277925,0.398577 0.08649,0.07129 0.25575,0.272602 0.376137,0.447358 0.19518,0.283324 0.21603,0.335604 0.19251,0.482695 -0.02274,0.142199 -0.0013,0.20454 0.154804,0.45184 0.138123,0.218702 0.211836,0.293615 0.31017,0.315212 0.09379,0.0206 0.135731,0.06013 0.153706,0.144887 0.06722,0.316915 0.256007,0.87864 0.349839,1.040896 0.137713,0.238137 0.284021,0.348992 0.510528,0.38682 0.101322,0.01692 0.236357,0.06766 0.30008,0.11274 0.06372,0.04509 0.143447,0.08197 0.177163,0.08197 0.120107,0 0.206232,0.108579 0.207732,0.261892 0.0038,0.39141 -0.03642,1.1771 -0.06246,1.219233 -0.01598,0.02585 -0.14521,0.125884 -0.287187,0.222299 -0.141976,0.09642 -0.280525,0.217128 -0.307886,0.268255 -0.06619,0.123665 -0.05924,0.41826 0.01188,0.503958 0.04907,0.05913 0.04493,0.06493 -0.03005,0.04211 -0.04783,-0.01455 -0.20972,-0.04576 -0.359767,-0.06934 -0.211525,-0.03325 -0.295711,-0.0695 -0.37475,-0.161389 l -0.101936,-0.11851 -0.214507,0.07087 c -0.117978,0.03898 -0.272378,0.08274 -0.34311,0.09725 -0.07073,0.0145 -0.192175,0.09378 -0.269873,0.176163 -0.160191,0.169852 -0.142027,0.162764 -0.252599,0.09858 l 0,0 z"
     id="path4867"
     inkscape:connector-curvature="0" />
  <path
     style="fill:#215b33;fill-opacity:1;fill-rule:evenodd;stroke:#215b33;stroke-width:0.16666667;stroke-linecap:round;stroke-linejoin:round;stroke-miterlimit:4;stroke-opacity:1;stroke-dasharray:none;stroke-dashoffset:0"
     d="m 87.72846,42.291842 c 0.0935,-0.35443 -0.01869,-0.531483 -0.334001,-0.527131 l -0.180527,0.0025 0.02912,-0.247733 c 0.03319,-0.2824 0.06206,-0.325295 0.218936,-0.325295 0.163222,0 0.235757,0.08005 0.312854,0.34525 0.0632,0.217385 0.08876,0.24901 0.314775,0.38943 0.0438,0.02721 -0.171407,0.521558 -0.23857,0.548006 -0.171112,0.06738 -0.184024,0.04789 -0.122584,-0.185018 l 0,0 z"
     id="path4869"
     inkscape:connector-curvature="0" />
  <path
     style="fill:#215b33;fill-opacity:1;fill-rule:evenodd;stroke:#215b33;stroke-width:0.16666667;stroke-linecap:round;stroke-linejoin:round;stroke-miterlimit:4;stroke-opacity:1;stroke-dasharray:none;stroke-dashoffset:0"
     d="m 62.798002,73.001278 c -0.120315,-0.03487 -0.140479,-0.06356 -0.166479,-0.236948 -0.0351,-0.234037 -0.180502,-0.420785 -0.330727,-0.424765 -0.05936,-0.0015 -0.199646,0.02353 -0.311753,0.05578 -0.197157,0.05672 -0.21002,0.05456 -0.392838,-0.06588 -0.103954,-0.06848 -0.279654,-0.200646 -0.390444,-0.293696 -0.187785,-0.157715 -0.202981,-0.186217 -0.224228,-0.420527 -0.01704,-0.187973 -0.07721,-0.35533 -0.23864,-0.663777 -0.180055,-0.34404 -0.244207,-0.42691 -0.386852,-0.49973 -0.09405,-0.04801 -0.25793,-0.146223 -0.364175,-0.218243 -0.164265,-0.11135 -0.247608,-0.1346 -0.556935,-0.155367 -0.436593,-0.02931 -0.497195,-0.07074 -0.368298,-0.251757 0.280357,-0.393725 -0.112322,-0.920423 -0.768925,-1.031356 -0.346675,-0.05857 -0.722123,0.151533 -0.8196,0.458653 -0.0267,0.08414 -0.05143,0.09214 -0.211182,0.06834 -0.09951,-0.01483 -0.308608,-0.03883 -0.464651,-0.05334 -0.330037,-0.03069 -0.748144,-0.179855 -1.097794,-0.39165 -0.135655,-0.08217 -0.27619,-0.1494 -0.312298,-0.1494 -0.05089,0 -0.06062,-0.03751 -0.04329,-0.166762 0.01967,-0.146627 0.0058,-0.180675 -0.11456,-0.28198 -0.254223,-0.213915 -0.79732,-0.222647 -1.06674,-0.01715 -0.08415,0.06419 -0.171925,0.116703 -0.195047,0.116703 -0.05815,0 -0.290228,-0.270548 -0.408788,-0.476553 -0.05407,-0.09395 -0.156693,-0.197022 -0.228052,-0.229055 -0.108205,-0.04857 -0.138551,-0.09805 -0.182791,-0.297998 -0.02962,-0.133865 -0.08576,-0.259174 -0.127112,-0.283717 -0.192788,-0.114425 -0.28285,-0.21157 -0.28285,-0.305098 0,-0.111575 0.23052,-0.419782 0.530458,-0.709227 l 0.191389,-0.184692 0.311898,0.254845 c 0.415545,0.339532 0.598927,0.41033 0.969187,0.37417 0.277093,-0.02706 0.29548,-0.02272 0.460468,0.108792 0.09452,0.07534 0.264598,0.187458 0.377957,0.249155 0.114575,0.06236 0.268151,0.198575 0.345818,0.306723 0.161153,0.224402 0.268448,0.276035 0.573617,0.276035 0.144046,0 0.25943,0.02807 0.335435,0.0816 0.06372,0.04488 0.204248,0.125002 0.312278,0.178052 0.10803,0.05305 0.294628,0.204368 0.414662,0.336261 0.191666,0.210605 0.254648,0.249857 0.517208,0.322345 0.224427,0.06196 0.347907,0.127654 0.495268,0.263485 0.273664,0.252255 0.734494,0.453324 1.270279,0.554247 0.363338,0.06844 0.472988,0.107465 0.574088,0.204327 0.09598,0.09195 0.18655,0.12699 0.390428,0.151028 0.174559,0.02058 0.299255,0.06228 0.364159,0.121762 0.05428,0.04975 0.247203,0.158418 0.428711,0.241476 0.260434,0.119177 0.375467,0.204242 0.545607,0.403459 0.27908,0.326778 1.056839,0.953378 1.514799,1.220395 0.54916,0.320192 1.079643,0.674983 1.079643,0.722073 0,0.06331 -0.240887,0.17543 -0.376895,0.17543 -0.06564,0 -0.232707,-0.03181 -0.37127,-0.07069 -0.15354,-0.04308 -0.311317,-0.05955 -0.403982,-0.04216 -0.17101,0.03208 -0.361608,0.227785 -0.40013,0.410845 -0.0135,0.06417 -0.03351,0.160863 -0.04447,0.214878 -0.02174,0.107194 -0.11175,0.120165 -0.35157,0.05066 l 0,0 z"
     id="path4871"
     inkscape:connector-curvature="0" />
  <path
     style="fill:#215b33;fill-opacity:1;fill-rule:evenodd;stroke:#215b33;stroke-width:0.16666667;stroke-linecap:round;stroke-linejoin:round;stroke-miterlimit:4;stroke-opacity:1;stroke-dasharray:none;stroke-dashoffset:0"
     d="m 49.511963,62.581491 c -0.10748,-0.0684 -0.224727,-0.160008 -0.260548,-0.203582 -0.05948,-0.07236 -0.05759,-0.07689 0.02182,-0.05234 0.49417,0.152775 0.670618,0.214856 0.763506,0.268633 l 0.109122,0.06317 -0.160112,0.0015 c -0.08806,8.33e-4 -0.186721,0.01177 -0.219243,0.02424 -0.03252,0.01248 -0.14707,-0.03327 -0.25455,-0.101667 z"
     id="path4873"
     inkscape:connector-curvature="0" />
  <path
     style="fill:#215b33;fill-opacity:1;fill-rule:evenodd;stroke:#215b33;stroke-width:0.16666667;stroke-linecap:round;stroke-linejoin:round;stroke-miterlimit:4;stroke-opacity:1;stroke-dasharray:none;stroke-dashoffset:0"
     d="m 187.98392,70.094759 c -0.0489,-0.0129 -0.0784,-0.07355 -0.0873,-0.17944 -0.01,-0.119375 -0.0409,-0.173608 -0.12193,-0.213783 -0.0958,-0.04749 -0.12174,-0.04119 -0.22064,0.05356 -0.13171,0.12619 -0.26395,0.137695 -0.35635,0.031 -0.0364,-0.04201 -0.13948,-0.209273 -0.22913,-0.371692 -0.0897,-0.162418 -0.20042,-0.315333 -0.24617,-0.339811 -0.0567,-0.03034 -0.0831,-0.09163 -0.0831,-0.192624 0,-0.16702 -0.0626,-0.246391 -0.25818,-0.327406 -0.0741,-0.03068 -0.13465,-0.07021 -0.13465,-0.08786 0,-0.04661 0.30392,-0.437445 0.34027,-0.437594 0.0169,-6.8e-5 0.2468,-0.01182 0.51086,-0.02609 0.65825,-0.03559 0.72549,-0.02966 0.99034,0.08745 0.1275,0.05638 0.2662,0.114159 0.30821,0.12839 0.10467,0.03545 0.0989,0.239602 -0.0165,0.58118 -0.0874,0.258559 -0.0886,0.28158 -0.0208,0.385002 0.0614,0.09368 0.10496,0.109998 0.29393,0.109998 0.18467,0 0.23625,0.01829 0.3077,0.109122 0.10347,0.131533 0.25565,0.140678 0.36322,0.02182 0.0434,-0.04801 0.092,-0.0873 0.10785,-0.0873 0.0283,0 0.21951,0.316276 0.21951,0.363071 0,0.0131 -0.0594,0.06613 -0.13205,0.117844 -0.12315,0.08769 -0.147,0.09019 -0.35438,0.03704 -0.21722,-0.05567 -0.22448,-0.05439 -0.31535,0.05527 -0.0736,0.08887 -0.15842,0.122696 -0.40697,0.162355 -0.32615,0.05204 -0.33681,0.05252 -0.45833,0.02048 l 0,0 z"
     id="path4875"
     inkscape:connector-curvature="0" />
  <path
     style="fill:#215b33;fill-opacity:1;fill-rule:evenodd;stroke:#215b33;stroke-width:0.16666667;stroke-linecap:round;stroke-linejoin:round;stroke-miterlimit:4;stroke-opacity:1;stroke-dasharray:none;stroke-dashoffset:0"
     d="m 181.68587,63.578273 c -0.0145,-0.02336 -0.10398,-0.06339 -0.199,-0.08898 -0.096,-0.02585 -0.17275,-0.07346 -0.17275,-0.107139 0,-0.10452 0.2171,-0.243503 0.33438,-0.214066 0.12675,0.03181 0.2767,-0.08561 0.2767,-0.21666 0,-0.04859 0.0214,-0.148665 0.0476,-0.22239 0.064,-0.180305 -0.007,-0.362339 -0.1567,-0.399832 -0.0863,-0.02165 -0.16473,0.0086 -0.33943,0.13091 -0.23975,0.167833 -0.27568,0.155345 -0.23145,-0.08045 0.0224,-0.119152 0.0517,-0.15007 0.16395,-0.17251 0.0752,-0.01503 0.16465,-0.05054 0.19882,-0.0789 0.0818,-0.0679 0.48491,-0.045 0.59765,0.03395 0.0485,0.03397 0.13193,0.06177 0.18541,0.06177 0.16094,0 0.19959,0.13284 0.0728,0.250305 -0.13572,0.125785 -0.11879,0.222285 0.0602,0.34288 l 0.13992,0.0943 -0.1574,0.02554 c -0.25297,0.04105 -0.46688,0.308903 -0.31947,0.400011 0.0889,0.05497 0.0375,0.105142 -0.19806,0.193284 -0.28029,0.104865 -0.2691,0.103096 -0.30317,0.04797 l 0,0 z"
     id="path4877"
     inkscape:connector-curvature="0" />
  <path
     style="fill:#215b33;fill-opacity:1;fill-rule:evenodd;stroke:#215b33;stroke-width:0.16666667;stroke-linecap:round;stroke-linejoin:round;stroke-miterlimit:4;stroke-opacity:1;stroke-dasharray:none;stroke-dashoffset:0"
     d="m 169.17982,53.535631 c 0,-0.132395 -0.0305,-0.205 -0.12962,-0.308737 -0.0713,-0.0746 -0.14041,-0.169648 -0.1536,-0.211222 -0.0132,-0.04157 -0.074,-0.0984 -0.13523,-0.126268 -0.0992,-0.04519 -0.12392,-0.0369 -0.22832,0.07655 -0.0644,0.06998 -0.15878,0.183198 -0.20975,0.251603 -0.0591,0.07931 -0.189,0.159032 -0.35856,0.220038 l -0.26589,0.09567 -0.0283,-0.161357 c -0.0349,-0.19912 -0.11835,-0.33887 -0.30845,-0.516433 -0.1426,-0.133194 -0.1465,-0.146112 -0.1465,-0.485744 l 0,-0.348911 0.23611,-0.201722 c 0.12987,-0.110945 0.24517,-0.20172 0.25622,-0.20172 0.011,0 0.0448,0.08823 0.075,0.196057 0.0714,0.255061 0.2202,0.415023 0.38602,0.415023 0.26131,0 0.39216,-0.236713 0.3981,-0.720202 0.005,-0.441165 0.19581,-0.711865 0.75481,-1.073165 0.2512,-0.16236 0.278,-0.169611 0.6384,-0.172766 0.20692,-0.0018 0.4646,-0.005 0.57264,-0.007 0.10801,-0.002 0.30776,0.01157 0.44386,0.03019 0.21155,0.02896 0.26877,0.0207 0.39444,-0.05697 0.11961,-0.07393 0.19145,-0.08626 0.38573,-0.06621 0.17388,0.01795 0.33872,-0.0023 0.60665,-0.07463 l 0.3679,-0.09927 0.12177,0.145855 c 0.11453,0.137189 0.14063,0.146755 0.43931,0.160977 0.44844,0.02135 0.6032,0.04279 0.76187,0.105523 0.1394,0.05512 0.13955,0.05508 0.41478,-0.08323 0.0163,-0.0082 0.036,0.04689 0.0437,0.122486 0.0112,0.110849 -0.0209,0.174719 -0.166,0.330014 -0.0989,0.105911 -0.19556,0.192565 -0.21476,0.192565 -0.0192,0 -0.18835,0.162045 -0.37587,0.3601 -0.3394,0.358476 -0.41225,0.513 -0.29642,0.628821 0.0324,0.03238 -0.0461,0.07577 -0.26371,0.145732 -0.1704,0.05479 -0.35809,0.13759 -0.41709,0.183998 -0.0977,0.07684 -0.12873,0.07958 -0.34736,0.03065 l -0.24012,-0.05373 0,-0.186355 c 0,-0.21909 -0.0844,-0.323537 -0.2614,-0.323537 -0.10838,0 -0.13393,0.02643 -0.20052,0.207332 -0.0419,0.114031 -0.0893,0.222643 -0.10528,0.24136 -0.016,0.01872 -0.14413,-0.0353 -0.28485,-0.120034 -0.45573,-0.274431 -0.75125,-0.180616 -1.02013,0.323854 -0.0756,0.141816 -0.19564,0.303451 -0.26677,0.359188 -0.0711,0.05574 -0.18858,0.147027 -0.261,0.202868 -0.10325,0.07963 -0.13202,0.136127 -0.13333,0.261892 -0.002,0.144705 -0.0249,0.176158 -0.24007,0.322157 l -0.2384,0.161793 0,-0.173103 z"
     id="path4879"
     inkscape:connector-curvature="0" />
</svg>
