<?xml version="1.0" encoding="UTF-8" standalone="no"?>
<!-- Created with Inkscape (http://www.inkscape.org/) -->

<svg
   xmlns:dc="http://purl.org/dc/elements/1.1/"
   xmlns:cc="http://creativecommons.org/ns#"
   xmlns:rdf="http://www.w3.org/1999/02/22-rdf-syntax-ns#"
   xmlns:svg="http://www.w3.org/2000/svg"
   xmlns="http://www.w3.org/2000/svg"
   xmlns:sodipodi="http://sodipodi.sourceforge.net/DTD/sodipodi-0.dtd"
   xmlns:inkscape="http://www.inkscape.org/namespaces/inkscape"
   sodipodi:docname="ZZ.svg"
   inkscape:version="0.47 r22583"
   sodipodi:version="0.32"
   id="svg2"
   x="0.00000000"
   y="0.00000000"
   height="716.00061"
   width="875.84344"
   version="1.0">
  <defs
     id="defs3">
    <inkscape:perspective
       sodipodi:type="inkscape:persp3d"
       inkscape:vp_x="0 : 150 : 1"
       inkscape:vp_y="0 : 1000 : 0"
       inkscape:vp_z="450 : 150 : 1"
       inkscape:persp3d-origin="225 : 100 : 1"
       id="perspective15" />
    <inkscape:perspective
       id="perspective3650"
       inkscape:persp3d-origin="0.5 : 0.33333333 : 1"
       inkscape:vp_z="1 : 0.5 : 1"
       inkscape:vp_y="0 : 1000 : 0"
       inkscape:vp_x="0 : 0.5 : 1"
       sodipodi:type="inkscape:persp3d" />
    <inkscape:perspective
       id="perspective2828"
       inkscape:persp3d-origin="0.5 : 0.33333333 : 1"
       inkscape:vp_z="1 : 0.5 : 1"
       inkscape:vp_y="0 : 1000 : 0"
       inkscape:vp_x="0 : 0.5 : 1"
       sodipodi:type="inkscape:persp3d" />
    <inkscape:perspective
       id="perspective2829"
       inkscape:persp3d-origin="0.5 : 0.33333333 : 1"
       inkscape:vp_z="1 : 0.5 : 1"
       inkscape:vp_y="0 : 1000 : 0"
       inkscape:vp_x="0 : 0.5 : 1"
       sodipodi:type="inkscape:persp3d" />
    <inkscape:perspective
       id="perspective2842"
       inkscape:persp3d-origin="0.5 : 0.33333333 : 1"
       inkscape:vp_z="1 : 0.5 : 1"
       inkscape:vp_y="0 : 1000 : 0"
       inkscape:vp_x="0 : 0.5 : 1"
       sodipodi:type="inkscape:persp3d" />
    <inkscape:perspective
       id="perspective2855"
       inkscape:persp3d-origin="0.5 : 0.33333333 : 1"
       inkscape:vp_z="1 : 0.5 : 1"
       inkscape:vp_y="0 : 1000 : 0"
       inkscape:vp_x="0 : 0.5 : 1"
       sodipodi:type="inkscape:persp3d" />
    <inkscape:perspective
       id="perspective2868"
       inkscape:persp3d-origin="0.5 : 0.33333333 : 1"
       inkscape:vp_z="1 : 0.5 : 1"
       inkscape:vp_y="0 : 1000 : 0"
       inkscape:vp_x="0 : 0.5 : 1"
       sodipodi:type="inkscape:persp3d" />
    <inkscape:perspective
       id="perspective2881"
       inkscape:persp3d-origin="0.5 : 0.33333333 : 1"
       inkscape:vp_z="1 : 0.5 : 1"
       inkscape:vp_y="0 : 1000 : 0"
       inkscape:vp_x="0 : 0.5 : 1"
       sodipodi:type="inkscape:persp3d" />
    <inkscape:perspective
       id="perspective3605"
       inkscape:persp3d-origin="0.5 : 0.33333333 : 1"
       inkscape:vp_z="1 : 0.5 : 1"
       inkscape:vp_y="0 : 1000 : 0"
       inkscape:vp_x="0 : 0.5 : 1"
       sodipodi:type="inkscape:persp3d" />
    <inkscape:perspective
       id="perspective3618"
       inkscape:persp3d-origin="0.5 : 0.33333333 : 1"
       inkscape:vp_z="1 : 0.5 : 1"
       inkscape:vp_y="0 : 1000 : 0"
       inkscape:vp_x="0 : 0.5 : 1"
       sodipodi:type="inkscape:persp3d" />
    <inkscape:perspective
       id="perspective3631"
       inkscape:persp3d-origin="0.5 : 0.33333333 : 1"
       inkscape:vp_z="1 : 0.5 : 1"
       inkscape:vp_y="0 : 1000 : 0"
       inkscape:vp_x="0 : 0.5 : 1"
       sodipodi:type="inkscape:persp3d" />
    <inkscape:perspective
       id="perspective3644"
       inkscape:persp3d-origin="0.5 : 0.33333333 : 1"
       inkscape:vp_z="1 : 0.5 : 1"
       inkscape:vp_y="0 : 1000 : 0"
       inkscape:vp_x="0 : 0.5 : 1"
       sodipodi:type="inkscape:persp3d" />
  </defs>
  <sodipodi:namedview
     showguides="true"
     showgrid="false"
     inkscape:window-y="-8"
     inkscape:window-x="-8"
     inkscape:window-height="1004"
     inkscape:window-width="1280"
     inkscape:current-layer="svg2"
     inkscape:document-units="px"
     inkscape:cy="238.58965"
     inkscape:cx="233.11286"
     inkscape:zoom="0.5"
     inkscape:pageshadow="2"
     inkscape:pageopacity="0.0"
     borderopacity="1.0"
     bordercolor="#666666"
     pagecolor="#ffffff"
     id="base"
     inkscape:window-maximized="1" />
  <metadata
     id="metadata4">
    <rdf:RDF>
      <cc:Work
         rdf:about="">
        <dc:format>image/svg+xml</dc:format>
        <dc:type
           rdf:resource="http://purl.org/dc/dcmitype/StillImage" />
      </cc:Work>
    </rdf:RDF>
  </metadata>
  <g
     id="layer1"
     inkscape:groupmode="layer"
     inkscape:label="Layer 1"
     transform="translate(1266.2812,889.6875)" />
  <!-- Main outline of the flag -->
  <path
     style="fill:#ffffff;stroke:#007a4d;stroke-width:1.5;stroke-linejoin:round;stroke-miterlimit:4;stroke-opacity:1;stroke-dasharray:none"
     d="m 190.1874,146.65625 -1.375,205.96875 0,1.90625 -0.9374,0 -0.9063,-0.96875 -0.9063,0.9375 -1.8437,-0.0312 0,0.96875 -0.9375,0 -0.9062,-0.96875 -0.9063,0.9375 -0.9375,0 0,0.9375 0,0.9375 -0.9375,0.9375 -0.9063,0 -0.9062,0 -0.9375,-0.0312 -0.9063,-0.9375 -0.9062,-0.0312 -0.9062,0 -0.9376,0.9375 -0.9374,0.9375 -0.9063,0 0,0.9375 -0.9063,-0.9375 -0.9374,-0.0312 -0.9063,0 -1.8437,-0.0312 -0.9063,0.9375 -0.9375,0.96875 -0.9688,0.9375 -0.9374,0.9375 -0.9063,0.9375 -0.031,1.875 0,0.96875 -0.9374,0.9375 0,0.9375 -0.9376,0.9375 -0.9062,0 -0.062,0.9375 -0.9063,0 -1.8437,0.9375 -0.9375,-0.0312 -0.9062,0 -0.9063,0 -0.9375,-0.0312 -1.8438,0 -0.9062,0 -0.9062,-0.0625 -0.031,0.96875 0,0.9375 -0.9375,1.875 0.875,2.875 0.9062,0.9375 0.9063,0.0312 0,0.9375 -0.9375,0.9375 -0.9062,-0.9375 -0.9063,-0.0312 -0.9375,0.9375 -0.9375,1.90625 -1.875,0.90625 -0.9063,0 -0.9374,0 -0.9063,0 -0.9063,-0.0312 -1.8437,0 -0.9063,-0.96875 -0.9374,0 0.031,-0.9375 -0.9375,-0.0312 -0.9063,0 0,-0.9375 -0.9062,-0.96875 0.031,-0.9375 -0.9374,-0.0312 -0.9063,0 0,-0.9375 -0.9063,-0.0312 -0.9062,0 -0.9375,0 -0.9063,-0.0312 -0.9062,-0.9375 -0.9375,-0.0625 -0.9063,0 -1.8437,0 -0.9063,-0.0312 -0.9374,0 -0.9063,0 -0.9063,-0.0312 -0.9374,0 -0.9063,0 -1.875,0.9375 -0.9063,-0.96875 -0.9062,0 -1.8438,0.9375 -1.8437,-0.0312 -0.9063,0 -0.9374,0.9375 -0.9376,0 0,0.9375 -0.9374,0 -0.9063,-0.0312 0,-0.9375 -0.9063,0 -2.5312,-0.0625 -1.875,0.90625 -0.9062,-0.9375 -1.8126,-0.0312 -0.031,0.96875 -0.9062,-0.0312 -0.9376,0 -0.9062,0 -0.031,0.9375 -0.9063,0 -0.9375,0 0.031,-0.96875 -0.9062,0 -0.9375,0 -0.9063,-0.0312 -0.9374,0 -0.9063,-0.96875 -0.9063,0 -0.9062,0 -0.9375,0 -0.875,-1.9375 -0.9063,0 0,-0.9375 -0.875,-0.96875 -0.9374,0 -0.875,-0.96875 -0.9376,0 0.031,-0.96875 -0.9375,0 0.062,-0.9375 -0.9063,-0.0312 -0.062,0.96875 -0.9063,-0.96875 0,0.9375 -0.9375,0 0.062,-0.9375 -0.9375,-0.0312 -0.9062,0 -0.9063,0 -1.8437,-0.0312 -0.9063,0 -0.9375,0 0.062,-0.96875 -0.9375,0 0,0.9375 -0.9375,0 -0.9063,-0.96875 -1.9062,1.90625 -0.9062,-0.0312 -0.9063,0 0,-0.9375 -0.875,-0.0312 -0.9063,-0.9375 0.031,-1.90625 0.062,-0.96875 -0.9375,0 -0.9063,0 -0.9374,-0.0312 0,0.96875 -1.8126,-0.96875 -0.9374,0 -0.9063,-0.0312 -1.875,0.9375 -0.9375,0.9375 -0.9062,0 0.031,-0.9375 0,-0.96875 0.031,-0.9375 0.063,-0.96875 0.9062,0 0.031,-0.9375 0.063,-0.9375 0.062,-0.96875 0,-0.9375 0.031,-0.96875 -0.9063,0 -0.9374,0 -0.9063,-0.0312 0.031,-0.9375 0.031,-0.96875 -0.9062,-0.9375 0.062,-0.96875 -0.9374,0 0.062,-0.9375 -0.9062,-0.0312 0.031,-0.9375 0,-0.96875 0.9376,0.0312 0.062,-0.96875 1.8126,0.0312 0.9374,0 0.9376,-1.875 0.031,-0.96875 0.031,-0.9375 -0.9062,-0.96875 -0.875,-0.96875 0.062,-0.9375 0,-0.96875 0.062,-0.9375 -0.875,-0.96875 -0.9062,-0.96875 0.031,-0.9375 -0.9062,0 -0.9063,-0.96875 -0.9375,0.9375 -0.9375,0.9375 -0.9063,0 0,-0.96875 -0.9062,0 -0.9375,0.9375 -0.875,-0.96875 -0.9375,0 -0.8438,-1.90625 0.031,-0.96875 0.9687,-2.84375 0.031,-0.9375 -0.875,-0.96875 -0.9375,0 -0.9062,0 0.062,-0.96875 -0.9062,-0.96875 -0.875,-0.9375 -0.875,-0.96875 -0.9375,0.9375 -0.9375,0 -1.8125,-0.0312 -0.062,0.9375 -0.9062,0 -0.031,0.96875 -0.9063,-0.0312 0,-0.9375 -0.9062,0 -0.9375,0.9375 -0.9063,-0.0312 -0.9062,0 -0.9062,-0.96875 -0.031,0.96875 -0.9063,-0.0312 -0.062,0.96875 -0.031,1.90625 0,0.9375 -0.062,0.96875 -0.062,0.9375 -0.9063,0 -0.9062,-0.96875 -0.9062,0 -0.031,0.9375 0.875,0.96875 0,0.9375 -0.9375,0 -0.9062,0 -0.9063,0 -0.031,0.9375 0.9063,0 -0.062,0.96875 -0.031,0.9375 -0.063,0.96875 -0.875,-0.96875 -0.9062,0 -0.9062,-0.96875 -0.063,0.9375 -0.9062,0 -0.031,0.9375 -0.031,0.96875 0.9063,0.96875 0.875,0.9375 -0.031,0.96875 0.9375,0 0.875,0.96875 -0.9062,0 -0.9376,0.9375 -0.9687,0.9375 0.875,1.90625 -0.9375,0.9375 -0.9375,0 -0.062,0.96875 -0.9375,0.9375 -0.062,0.9375 -0.9062,0 -0.9063,0 0,-0.96875 -0.875,-0.96875 -0.9063,0 -0.9374,0 0,0.9375 -0.9376,0 -0.9374,0.9375 -0.031,0.96875 -0.062,0.9375 -0.9062,0 -1.875,0.9375 -0.9063,-0.0312 -0.9375,0 -0.9062,0 -0.031,0.9375 -0.875,-0.96875 -0.9687,0.96875 -0.031,0.9375 -0.9063,0 -0.062,0.9375 -1,1.03125 0.875,0.9375 2.6874,0.0312 2.6876,1.90625 -0.031,0.96875 -0.031,0.9375 0.9376,0.0312 -0.063,0.9375 0.9063,0 0.9375,0.0312 0.875,0.9375 -0.031,0.96875 -0.9376,0.9375 0.875,0.96875 -0.062,0.9375 -0.063,0.96875 -0.031,0.9375 0.9062,0.96875 -0.031,0.96875 0.9062,0 -0.9374,0.9375 0.9062,0 0.9062,0.96875 1.8438,0.0312 1.7812,1.90625 -0.031,0.96875 -0.062,0.9375 0.9063,0 -0.063,0.96875 -0.031,0.9375 0.9375,0.0312 -0.062,0.9375 0.9062,0.96875 -0.031,0.9375 1.8438,0.0312 1.75,2.875 -0.031,0.9375 -0.062,0.96875 0.875,1.90625 0.875,0.96875 -0.062,0.9375 -0.9375,0.9375 0.9062,0.0312 0,0.9375 0.9063,0 -0.031,0.96875 -0.031,0.9375 0.9375,0.0312 -0.062,0.9375 -0.031,0.96875 0.9374,0 -0.062,0.9375 0.875,0.96875 0.9062,0.96875 -0.031,0.9375 -0.063,0.96875 0.9063,0.9375 -0.031,0.96875 0.9063,0.96875 -0.031,0.9375 0.9063,0 -0.062,0.96875 -0.062,0.9375 0,0.96875 -0.031,0.9375 0.9063,0 -0.031,0.96875 0,0.9375 -0.062,0.96875 1.7812,1.90625 -0.031,0.96875 -0.063,0.9375 0.875,1.90625 -0.031,0.96875 0,0.9375 -0.062,0.96875 -0.031,0.9375 0.8438,2.875 0.9375,0 -0.031,0.9375 -0.9687,0 0.9063,0.96875 -0.031,0.9375 0.9063,0.96875 -0.063,0.96875 -0.031,0.9375 -0.031,0.9375 0.9374,0.0312 -0.062,0.9375 -0.031,0.96875 0.9375,0 0.875,1.90625 -0.062,0.9375 -0.062,0.96875 0.9688,0 -0.063,0.96875 -0.031,0.9375 0.9062,0.96875 -0.9374,0 0.9062,0.9375 -0.031,0.96875 0,0.9375 -0.063,0.96875 0.9063,0 0,0.9375 0.9063,0.0312 -0.031,0.9375 0,0.9375 0.875,0.96875 -0.9063,0 -0.062,0.9375 0.9374,0.0312 -0.062,0.9375 0.9062,0.96875 -0.031,0.9375 -0.031,0.96875 0.9375,0 -0.031,0.9375 -0.063,0.96875 -0.062,0.9375 0.9374,0 -0.031,0.96875 0,0.9375 0.9062,0.0312 -0.031,0.9375 0.9062,0.96875 0,0.9375 0.9063,0.96875 0.875,0.96875 0,0.9375 -0.062,0.9375 0.9375,0.0312 0.875,1.90625 0.9375,0 -0.031,0.9375 -0.031,0.96875 1.7813,1.90625 -0.9376,0.9375 0.9063,0.96875 0,0.96875 0.875,0 0,0.9375 0.9063,0 -0.9376,0.96875 0.9376,0 -0.031,0.9375 0.9375,0.0312 1.8125,1.90625 -0.062,1.90625 -0.062,0.9375 0.9063,0.96875 0,0.9375 0.9062,0.96875 -0.031,0.9375 0.9374,0.0312 0.875,1.90625 -0.031,0.9375 0,0.96875 0.9062,0 0.9376,0.96875 0.875,1.90625 0.9374,0 -0.062,0.9375 0.9062,0.96875 -0.031,0.9375 0.9374,0.0312 0,0.9375 -0.062,0.9375 -0.031,0.96875 0.9375,0 -0.062,0.96875 0.9375,0 -0.031,0.9375 0,0.96875 0.9374,0 -0.031,0.9375 1.8125,2.875 0.9063,0.96875 0.9062,0.9375 0.9062,0.96875 1.8438,0.96875 0,0.9375 0.9062,0 0,0.96875 -0.9687,0.9375 1.8437,1.90625 0.875,1.90625 1.8438,1.90625 1.8438,0.96875 -0.063,0.96875 0.9063,0.9375 0,0.96875 1.8437,0.9375 -0.062,0.96875 1.875,0.9375 1.8124,2.875 0.9376,0 -0.9688,0.96875 0.9062,0.9375 0.9376,0 0,0.96875 0.9062,0.9375 -0.031,0.96875 0.9062,1.90625 0.9375,0 2.3125,2.375 0,0.96875 -0.031,0.9375 -0.063,0.96875 0,0.9375 -0.031,0.9375 1.8438,1.9375 0.9062,1.875 -0.062,0.96875 0,0.9375 1.9687,2.625 0.875,2.875 0.9063,0.9375 0,0.96875 0.875,2.84375 -0.9687,0.9375 0.9374,0.96875 -0.9374,0 0.9062,0.9375 0,0.96875 -0.031,0.9375 -0.063,0.9375 0.9376,0.96875 -0.031,0.9375 -0.031,1.90625 0.9063,1.90625 -0.062,1.90625 -0.9375,0 -0.9687,-0.0312 0,0.96875 0.9062,1.90625 -0.062,2.84375 -0.062,2.84375 -0.031,3.8125 -1,2.84375 -1.9376,2.84375 -1.9374,1.90625 -0.9688,0.9375 -1.9375,1.875 -1.9063,1.90625 1.0313,0.8125 -1.9063,0 -0.9374,0 -0.9376,0 -0.9687,0.9375 0.031,-0.9375 -0.9688,0 -1.8438,-0.96875 0,-0.9375 0.9376,0 -2.7813,-0.96875 0,-0.9375 -0.9687,0.9375 -0.9376,0 -0.9374,0 -0.9688,0.9375 -0.9375,0 -0.031,0.9375 0.9376,0 0,0.96875 -0.063,0.9375 -0.062,0.96875 -0.9376,0 -0.9374,0 -0.031,0.9375 -0.9375,0 -0.031,0.96875 0.9374,0 0.9376,0.9375 -0.063,0.96875 -0.9687,0.9375 -0.9687,0.9375 0.9687,0 0.9063,0.96875 0,0.9375 -0.031,0.96875 -0.062,0.9375 -0.9375,0 -0.062,0.96875 -0.031,0.9375 0.9687,-0.9375 0.9375,0.9375 -0.031,0.96875 -0.9688,0.9375 0.9688,0 0.9374,0 0.9376,0 0.031,-0.9375 0.9375,0 0.031,-0.96875 -0.9376,0 0.9376,-0.9375 0.9687,0 0.9375,0 0,0.9375 0.9688,0 0.875,0.96875 0.9687,0.9375 -0.062,0.96875 -0.9688,0.9375 0.9063,1.90625 0.9375,0.9375 1.875,0.96875 -0.031,0.9375 -0.031,0.96875 0.9687,0 0.9376,0 -0.063,0.9375 -0.9374,0 -0.9376,0 -0.9374,-0.9375 -0.9376,0 0,-0.96875 0.063,-0.9375 -0.9376,0 -0.9374,0 0,-0.9375 -0.9063,-0.96875 0,-0.9375 0.031,-0.96875 -0.9376,0 -0.9374,-0.9375 -0.031,0.9375 0,0.96875 -0.9687,0 0,0.9375 0.9374,0 -0.062,0.9375 0,0.96875 1.875,0 0.9374,0 1.8438,2.875 2.7812,2.84375 0.9063,1.90625 1.8437,1.90625 -0.062,1.90625 -0.031,0.9375 2.8125,1.90625 0.875,1.34375 1.8438,1.90625 1.875,1.90625 -0.063,0.9375 0.9376,0.96875 -0.9688,0 0,0.9375 -0.031,0.96875 -0.031,0.9375 0.9687,0 0.9376,0 0.9687,0 -0.062,0.96875 -0.062,0.9375 0.9375,0.9375 0.9688,0 1.8437,2.875 -0.031,0.9375 0.9063,1.90625 -0.9375,0 -0.031,0.9375 0.9687,0 -0.062,1.90625 0.9375,0.96875 0,0.9375 0.9375,0.96875 -0.062,0.9375 -0.031,1.90625 -0.062,0.9375 -0.9688,0.96875 -0.9375,0 -0.9375,-0.96875 -0.9688,0 -0.9374,0 -0.031,0.96875 -0.9375,0 -0.062,0.9375 0,0.9375 -0.031,0.96875 -0.9687,0.9375 -0.9375,0 -0.062,0.96875 -0.031,0.9375 -0.9374,0 -0.063,0.9375 -0.9374,0 -0.031,0.96875 0.9687,0 -0.062,0.9375 0.9687,0 0,-0.9375 0.9687,0 -0.031,0.9375 0,0.96875 -1,0.9375 0.9688,0 -1,1.90625 -0.9376,0 -0.031,0.9375 -0.9375,0 1.8437,1.90625 0.9376,0.96875 0,0.9375 0.9374,0.9375 -0.062,0.96875 -0.063,0.9375 0.9688,0 -0.031,0.96875 0,0.9375 0.9374,0.96875 1.875,0.9375 0.9688,0 0,-0.9375 0.031,-0.96875 0,-0.9375 0.9688,0 -0.9375,-0.96875 0.9687,-0.9375 0.063,-0.9375 -0.9376,-0.96875 -0.9374,-0.9375 0,-0.96875 -0.9376,0 0.031,-0.9375 0.9375,-0.9375 -0.9375,0 0.062,-0.96875 0.9375,0 0.9687,-0.9375 1.9376,-0.96875 7.6562,-1.875 4.75,0 2.8438,0.96875 1.9062,0.9375 0.9375,0.96875 1.875,1.90625 0.9375,0 0,0.9375 -0.9688,0 -0.9687,0.9375 -0.9375,0 -0.062,0.96875 0.9375,0.9375 -0.9375,0 1.875,0.9375 0,0.96875 -0.031,0.9375 -1.9062,0 0,0.96875 -0.062,0.9375 0,0.0625 -0.4063,0 0,0.9375 0.375,-0.375 0,0.3125 0,0.96875 0.9376,0 -0.9688,0.9375 0,0.96875 -0.062,0.9375 0.9687,0 0,-0.9375 0.9376,0.9375 0.062,-0.9375 0.9688,0 0.9375,0 0.9687,0 0,-0.96875 0.9688,0 0.9375,0 0.9375,0.96875 0.9688,-0.9375 0.9687,0 0,-0.96875 0.9375,0.96875 0.9688,-0.96875 0.9374,0.96875 0.031,-0.96875 1.9063,0.96875 1.875,0.9375 0.9374,0.96875 0,0.9375 -0.031,0.9375 0.9688,0 1.8124,-2 0.9376,0 0,0.96875 0.9374,0 0.9688,0 0,-0.96875 0.9688,0 1.9374,-0.9375 -0.062,0.9375 1.9062,0.96875 1.9062,0.9375 0.9063,2.84375 0.9375,1.90625 -0.9688,0.96875 -0.9687,-0.0312 0,0.96875 -0.031,0.9375 -0.9374,0 -0.031,0.9375 -0.9375,0 -0.9688,0 0,0.96875 0.9376,0 0.9687,0 0.9375,0 0.031,-0.9375 1.9063,0 0.9687,0 0.9376,0 0.9374,0.9375 0.9376,1.90625 -1.75,1.90625 0,0.9375 0.9374,0.9375 0.9376,0 0,0.96875 0.9687,0 1.0625,2 -0.031,0.9375 0,0.96875 0.9687,-0.96875 0.9375,0.96875 0,0.9375 0.4688,0 335.0937,-235.3125 80.53125,0 -0.34375,-0.34375 -0.96875,-0.96875 1.3125,-0.96875 -0.90625,0 -0.0625,-0.9375 -0.9375,0 -0.0312,-0.9375 -0.0625,-0.9375 -0.9375,-0.0312 0.90625,-0.90625 -0.9375,-0.0312 -1.875,0 -0.0625,-0.9375 0.9375,0 -0.96875,-0.9375 -0.0312,-0.9375 0.0312,-0.46875 -0.96875,-0.9375 -0.90625,0.90625 -0.0312,-0.9375 -0.9375,0 -0.0625,-0.9375 -0.9375,0 -0.0312,-0.9375 -0.0625,-0.9375 -0.96875,-0.9375 -0.90625,0.9375 -0.90625,-0.0312 -0.625,-0.78125 0.0625,-0.9375 -0.90625,0 0,-0.9375 0.0312,-0.9375 0.0625,-0.9375 0.0312,-0.9375 0.96875,-0.9375 0.90625,0.0312 -0.875,-0.96875 0.90625,0.0312 0.96875,-0.9375 -0.9375,0 0.0625,-0.9375 -1.875,0.90625 -1.84375,0 -0.90625,-0.9375 0.0625,-1.875 -0.875,-1.90625 0.0312,-0.9375 -2.71875,-1.875 -0.875,-0.96875 -0.875,-1.875 0.0312,-0.9375 -0.875,-0.9375 0,-0.9375 -0.84375,-1.875 -0.90625,-0.9375 -0.8125,-2.84375 -0.90625,-0.9375 -0.8125,-2.8125 -0.90625,-0.9375 0.0625,-0.9375 -0.90625,-0.0312 0.0625,-0.9375 -0.96875,0 -0.875,-0.9375 -0.875,-1.875 0.0625,-0.96875 0.0312,-0.90625 0.9375,0 -0.0312,0.9375 0.90625,0 0.0312,-0.9375 0.0625,-0.9375 0.9375,0 -0.0625,0.9375 0.90625,0.0312 0.96875,-0.9375 0.0312,-0.9375 0.90625,0 0.0625,-0.9375 0.9375,0 0.90625,0.0312 0.90625,0 0.9375,0 0.90625,0 0.0312,-0.9375 0.9375,0.0312 0.90625,0 0.90625,0 0.0625,-0.9375 0.9375,0 0.90625,0.0625 0.9375,0 0.0625,-0.9375 -0.9375,0 0.96875,-0.9375 0.9375,-0.9375 0.90625,0 0.9375,0.0312 0.0312,-0.9375 0.9375,-0.9375 0.96875,-1.875 0.9375,0.0312 0.90625,0 -0.90625,-0.9375 -0.875,-0.96875 0.9375,-0.90625 -0.0312,0.9375 0.9375,0 0.0312,-1.875 0.96875,-0.9375 0.90625,0 0.0312,-0.9375 -0.90625,0 0.0312,-0.9375 0.90625,0 0.90625,0.0312 0.9375,0 0,-0.9375 0.96875,0 0.9375,-0.90625 0.0312,-0.9375 -0.90625,-0.0312 0,-0.9375 0.96875,-0.90625 0.90625,0 0.0625,-0.9375 0.9375,-0.9375 0.90625,0 0.9375,0.0312 0.9375,-0.9375 -0.90625,-0.9375 0.9375,0 0.9375,-0.9375 0.9375,-0.90625 0.0312,-0.9375 -0.8125,-0.0312 0.9375,-0.90625 0,0.9375 0.78125,0 0.0625,-0.9375 0.0312,-0.9375 0,-0.9375 0.0625,-0.9375 0.90625,0 0.0312,-0.9375 0.96875,0.0312 0.90625,0 -0.90625,-0.9375 0.9375,0 0,-0.9375 0.0312,-0.9375 0.90625,0 0.9375,0.0312 0,-0.9375 0.9375,-0.9375 -0.90625,0 0.0312,-0.9375 0.90625,0 0.90625,0.9375 0.90625,0.0312 0.90625,0 0.0625,-0.9375 0.90625,0 0.90625,0 0,0.9375 0.90625,0.0312 0.90625,0 0.0625,-0.9375 0.0312,-0.9375 0.90625,0 0.0312,-0.9375 0.90625,0.0312 0.0312,-0.9375 0.90625,0 0.875,0.9375 0.90625,0.96875 0.90625,0 0.90625,0 0.90625,0 0.0625,-0.9375 0.9375,-0.90625 0.0625,-0.9375 0,-0.9375 0.9375,0 0.90625,0 0.0312,-0.9375 0.90625,-0.90625 0.0625,-0.9375 0.875,0 0.0625,-0.9375 0.90625,0 0.0312,-0.9375 0.90625,0.0312 0.0312,-0.9375 0.90625,0 0.0625,-0.9375 0.90625,0 0.90625,0.0312 -0.0625,0.9375 0.90625,0 0.0625,-0.9375 0.90625,0 0.90625,0.0312 1.8125,0.9375 0.90625,0.0312 0.0312,-0.9375 0.90625,0 0.90625,0 0.90625,0 0.9375,-0.90625 0.0625,-0.9375 0.90625,-0.9375 0.9375,-0.90625 0.90625,0 0.0312,-0.9375 1.8125,0 0.90625,0.0312 0.9375,0 0.90625,0 0.90625,0.0312 0,-0.9375 0.90625,0.9375 0.90625,0 0.90625,0.0312 0.9375,-0.9375 0.90625,0 0.90625,0.0312 0.0625,-0.9375 0.5,0 0.875,0 0.90625,0.0312 0,0.90625 0.90625,0.96875 0,0.9375 0.84375,2.8125 0.90625,0.9375 0.90625,0 0.90625,0 0.9375,0.0312 0.90625,0 -0.0625,0.9375 0.90625,0 0,0.9375 -0.0312,0.9375 0.90625,0.9375 0.90625,0.0312 0.90625,0 1.8125,0.96875 0.90625,0.9375 0,0.9375 0.875,0.9375 0.90625,0.9375 0.90625,1.875 -0.0625,0.9375 0.90625,0 0,0.9375 0.90625,0.0312 0.90625,0 2.75,0.96875 -0.0625,0.9375 0,0.90625 0.90625,0.0312 0,0.9375 0.90625,0 0.90625,0 0.9375,0.0312 0.875,0.9375 0,0.9375 0.90625,0 1.84375,0 0.90625,0.96875 -0.0312,0.9375 0.90625,0.9375 0.90625,0.9375 0.9375,0 0.90625,0.0312 0.90625,0 0.90625,0 0.90625,0.9375 0,0.9375 -0.0312,1.875 0.9375,0 -0.0625,0.9375 0.9375,0 -0.0312,0.9375 0.90625,0.9375 0,1.875 0.90625,0.9375 0.90625,0.96875 0.90625,0.9375 0,0.9375 -0.0625,0.9375 0.9375,0.9375 -0.0312,0.9375 -0.90625,-0.0312 0,0.9375 -0.0625,0.9375 0,0.9375 -0.90625,0 -0.0312,0.9375 0,0.9375 -0.90625,-0.0312 -0.9375,0 -0.90625,0 -0.9375,0.90625 -0.90625,0 -0.9375,0.9375 0,0.9375 -0.90625,-0.9375 -0.0312,0.90625 0,0.9375 0,0.9375 -0.0625,0.9375 0,0.9375 0,0.9375 0.90625,0 0,0.9375 -0.9375,0 -0.90625,0 0,0.9375 -0.0625,0.90625 -0.90625,0 -0.9375,0 -0.9375,0.9375 -0.90625,-0.0312 -0.9375,0.9375 -0.90625,0 -0.9375,-0.0312 0,0.9375 0,0.9375 -0.9375,0.9375 -0.9375,0.9375 0.90625,0.9375 -0.9375,0.90625 0,0.9375 -0.0312,0.9375 0,0.9375 0,0.9375 -0.9375,0.9375 0.90625,0 0,0.9375 0.90625,0 0,0.9375 0.90625,0.9375 0,0.9375 -0.0625,0.9375 -0.90625,0 -0.9375,-0.0312 -0.90625,0 -0.0312,0.9375 0,0.9375 -0.90625,0 -0.9375,-0.9375 -0.9375,1.84375 -0.9375,0 -1.84375,0.90625 -0.9375,0.9375 0,0.0312 -0.9375,-0.5 -0.90625,-0.875 -0.84375,-0.0312 -0.8125,0.875 0.0312,0.875 -0.84375,-0.0312 -0.875,0 -0.84375,0 0.0625,0.875 -0.84375,-0.0312 -0.875,0 0.0625,0.875 -0.875,0 -0.84375,-0.0312 -0.875,0 0.0312,0.875 -0.84375,0 0.0312,0.875 -0.84375,-0.0312 -0.875,0 -0.84375,0 -1.71875,-0.0312 -0.8125,0.875 -0.875,0 -0.875,-0.0312 -0.84375,0 -0.8125,0.875 -1.71875,-0.0312 -0.875,0 -0.90625,-0.875 -0.84375,0 -0.875,0 -0.84375,-0.0312 -0.875,0 0.0625,0.875 -0.84375,0 -0.8125,0.84375 -2.5,-0.59375 -0.90625,0 -3.75,-0.4375 0.0625,0.9375 -0.90625,0.9375 -0.90625,-0.0312 -0.84375,1.875 0.0625,0.9375 0.0625,0.9375 -0.9375,0 -4.125,1.4375 0.0625,0.9375 -1.84375,-0.0312 -0.96875,0 -0.9375,0 0.0625,0.9375 -0.96875,-0.0312 0.0625,0.9375 -0.9375,0 0.96875,0.90625 0.9375,0 0.0625,0.9375 0.9375,0.0625 0.0625,0.9375 1,0.9375 0.0312,0.9375 -0.875,0.90625 0.0312,0.9375 0.0625,0.9375 -1,-0.9375 -0.875,0.9375 -0.875,0.90625 -0.0625,-0.90625 -0.875,-0.0625 -0.875,1.875 -0.9375,0 0.0625,0.9375 0.90625,0 0.0625,0.9375 0.0625,0.9375 0.0625,0.9375 -0.15625,0.15625 129.625,0 0.84375,-0.875 1.71875,-1.84375 -0.0312,-0.9375 -0.0625,-0.9375 0.84375,-0.9375 -0.0625,-0.9375 1.8125,-0.90625 -0.0625,-0.9375 -0.0625,-0.9375 3.1875,-3.53125 0.8125,-1.875 0.8125,-1.84375 2.78125,-3.5 1.75,-1.84375 -0.0312,-0.9375 4.4375,-2.78125 4.25,-5.53125 -0.0625,-0.9375 -0.90625,0 -0.0625,-0.9375 -0.0625,-0.9375 -0.125,-1.875 0.84375,-0.90625 1.65625,-2.78125 4.78125,-6.71875 1.71875,-1.84375 0.78125,-1.875 2.65625,-1.8125 -0.0937,-1.875 6.40625,-2.90625 1.59375,-2.78125 0.90625,-0.9375 2.5625,-2.75 0.875,-0.9375 1.71875,-1.84375 0.84375,-0.9375 1.78125,-0.90625 -0.0625,-0.9375 0.90625,0.0312 3.4375,-3.71875 3.34375,-4.625 3.40625,-3.6875 2.5625,-2.75 0.9375,0 2.6875,-0.90625 0.90625,0 3.71875,0.21875 1.78125,-0.90625 0.90625,0 2.71875,-0.90625 3.375,-3.6875 0.875,-0.90625 1.75,-0.90625 0.78125,-1.875 2.6875,-0.90625 0.78125,-1.84375 3.46875,-2.75 1.6875,-1.84375 1.6875,-1.84375 2.53125,-2.75 3.53125,-1.84375 0.71875,-2.78125 -1.0625,-1.84375 0.84375,-0.9375 6.125,-8.03125 0.6875,-2.78125 0.78125,-1.84375 0.53125,-3.3125 -0.15625,-1.15625 -0.3125,-2.28125 1.34375,-4.59375 3.65625,-4.53125 0.5,-6.8125 1.4375,-3 1.46875,-3.4375 -0.15625,-1.15625 -0.28125,-2.3125 3.53125,-2.28125 -0.1875,-1.125 1.25,-6.34375 -0.15625,-1.15625 1.75,-1.125 1.625,-2.28125 -0.15625,-1.15625 1.625,-2.28125 -0.15625,-1.15625 1.59375,-2.28125 -0.15625,-1.15625 1.625,-2.28125 1.75,-1.15625 -0.1875,-1.15625 -0.15625,-1.125 -0.15625,-1.15625 1.46875,-3.4375 -0.15625,-1.15625 1.59375,-2.28125 -0.15625,-1.15625 -0.15625,-1.15625 -0.46875,-3.46875 1.75,-1.125 -1.40625,-0.1875 -1.8125,0 -4.53125,-0.0625 -2.6875,0.875 -2.71875,-0.0312 -6.40625,-1 -10.875,-0.15625 -0.90625,0 -0.90625,0 -0.90625,-0.0312 -0.90625,0 -1.8125,-0.0312 -0.0625,-0.9375 -1.8125,0 -0.90625,-0.0312 -1.25,-0.875 -0.15625,0.59375 -0.8125,-1.03125 0.0937,-0.9375 -0.90625,-0.0625 -0.875,-0.0937 -0.90625,-0.0625 -1,0.875 0.0937,-0.9375 -1.8125,-0.15625 -0.0625,0.96875 -0.0937,0.96875 -0.0937,0.9375 -1.0625,1.84375 -0.0937,0.96875 -0.125,0.9375 -0.25,2.875 -0.0937,0.9375 -1.0625,1.84375 -0.15625,1.90625 -0.125,0.96875 -0.15625,1.90625 -0.0625,0.96875 -0.125,0.9375 -0.0937,0.96875 -0.0937,0.9375 -0.15625,1.9375 -0.25,2.84375 -0.125,0.96875 -0.0937,0.9375 -0.0625,0.96875 -4.5,-0.34375 -3.59375,-0.28125 -1.78125,-0.125 -0.90625,-0.0937 -3.59375,-0.25 -0.90625,-0.0937 -1.78125,-0.125 -1.8125,-0.125 -0.875,-0.0937 -1.8125,-0.125 -1.78125,-0.125 -1.8125,-0.15625 -0.90625,-0.0625 -0.8125,-1.03125 -0.90625,-0.0625 -2.59375,-1.15625 -1.8125,-0.15625 0.125,-0.9375 -0.90625,-0.0937 -0.90625,-0.0625 -0.8125,-1.03125 -0.90625,-0.0625 -0.875,-0.0625 -2.625,-1.15625 -0.84375,-1.03125 -0.875,-0.0625 -0.90625,-0.0625 -0.8125,-1.03125 -0.90625,-0.0625 0.0625,-0.96875 -1.625,-2.0625 -0.8125,-1 -0.84375,-1.03125 -0.8125,-1.03125 -0.8125,-1.03125 -0.90625,-0.0625 -1.5625,-3 -0.84375,-1.03125 0.0937,-0.96875 -0.90625,-0.0625 1,-0.875 0.0625,-0.96875 1,-0.875 0.0625,-0.96875 -0.8125,-1.03125 -0.90625,-0.0625 -0.84375,-1.03125 0.0937,-0.9375 -1.71875,-1.09375 0.0625,-0.96875 0.0937,-0.96875 0.15625,-1.90625 -0.90625,-0.0625 -1,0.875 -0.0625,0.96875 -0.90625,-0.0625 -0.9375,0.875 -0.90625,-0.0625 -0.84375,-1.03125 0.25,-2.875 0.0312,-0.9375 -0.75,-2 0.125,-0.9375 0.15625,-1.9375 0.3125,-3.8125 0.0625,-0.96875 0.0937,-0.9375 0.0625,-0.96875 1,-0.875 0.21875,-2.875 1,-0.875 0.0625,-0.96875 0.125,-0.96875 1,-0.875 0.9375,-0.875 1,-0.90625 0.0625,-0.9375 1,-0.90625 0.0625,-0.9375 1,-0.90625 1,-0.875 0,-0.0312 -269.6875,0 -49.09375,-34.46875 -0.78125,0 0.0312,0.96875 -1,1 -1.03125,0.96875 -1.03125,0 -2.03125,1.9375 -0.0312,-1 -1.03125,0 0.0312,1 0.0625,1 -2.125,-1.03125 -1.0625,-0.0312 -1.03125,1 -1.03125,-0.0625 -1.0625,0 -2.0625,-0.0312 -1.0625,0 -1.03125,-0.0312 -0.0312,-1 -2.0625,0.96875 -1.03125,0 -1.0625,-0.0312 -1.03125,0 -1.03125,-0.0312 -1.0625,-1 -1.0625,0 -2.09375,-1.03125 -0.0312,-1 -1.03125,0 -3.15625,-1.03125 -1.0625,-0.0312 -1.0625,0 -5.28125,-7 -5.71875,-0.5625 -0.875,0 0.0312,0.9375 -0.90625,0 -1.78125,-0.0312 0,0.9375 -0.875,0 -0.0625,-0.96875 -0.875,0.9375 -0.90625,-0.9375 -0.875,-0.0312 0,0.9375 -0.90625,0 -0.0312,-0.9375 -0.0625,-0.9375 -0.875,-0.0312 -0.90625,0 -0.90625,-0.0312 0.0625,0.9375 -0.90625,0 -1.8125,-0.0312 0,-0.9375 -0.0625,-0.9375 -0.875,-0.0312 -0.9375,-0.9375 -1.8125,-0.96875 0,-0.9375 -0.90625,-0.0312 -0.90625,-0.9375 0.875,0 0,-0.9375 -0.90625,0 -0.90625,-0.0312 -0.90625,-0.9375 -0.90625,-0.0312 0,-0.9375 -0.0312,-0.9375 -0.875,-0.0312 -0.9375,-0.9375 -0.875,0.9375 0,-0.96875 -1.8125,-0.0312 0,-0.9375 -0.0312,-0.9375 -0.90625,0 0.0312,0.9375 -0.90625,-0.0312 0,-0.9375 -0.90625,-0.9375 -0.0312,-0.9375 -0.90625,-0.0312 0.0312,0.9375 -0.90625,0 0,-0.9375 -0.90625,-0.0312 -0.0312,-0.9375 -0.875,0 -0.9375,-0.96875 -0.875,-0.0312 -0.90625,0 0,-0.9375 -0.0625,-0.9375 -0.90625,-0.96875 -0.90625,0 0,-0.9375 -0.90625,-0.0312 -0.875,1.875 -0.875,0 -0.90625,-0.0312 -0.90625,0 0,-0.96875 -0.90625,0 0,-0.9375 -1.78125,0.90625 -0.90625,-0.96875 0,0.96875 -0.90625,-0.0312 -0.90625,-0.9375 -0.875,-0.0312 -0.90625,0 -0.90625,-0.0312 -1.78125,-0.0312 -0.90625,0 0,0.9375 -0.875,0 -0.90625,-0.0312 0,0.9375 -0.875,0 -0.90625,-0.96875 -0.90625,0.9375 0.0625,0.9375 -0.90625,0 -0.90625,-0.0312 0,-0.9375 0.875,-0.9375 -0.875,0 -0.90625,0.9375 -0.875,-0.0312 -0.90625,-0.9375 0,0.9375 0,0.9375 -0.875,0 0,0.9375 -0.875,0.90625 0,0.96875 -0.875,0.90625 -0.90625,0.9375 -0.875,0 -0.875,1.875 -0.90625,0.90625 0.90625,0.96875 -0.875,0 -0.90625,-0.0312 -0.90625,0 0,0.9375 0.90625,0 0.0312,0.96875 -0.90625,-0.0312 0,0.9375 0.0625,0.96875 -0.90625,-0.0312 0,0.9375 -0.875,0.9375 1.8125,0.96875 0,0.9375 -0.90625,0 -0.875,0.9375 0,0.9375 0.90625,0 0,0.9375 0.0312,0.96875 -0.90625,0.90625 0.0312,0.96875 -0.90625,-0.0312 0,0.9375 -0.90625,0 -0.875,0 0,1.875 0.0625,0.9375 -0.90625,0 0,0.9375 0.90625,0.96875 0.90625,0 0,0.9375 -0.875,0.9375 -0.90625,0 0,0.9375 0.0625,0.9375 -0.90625,-0.0312 -0.90625,0 0,0.9375 0.90625,0.0312 0.90625,0 0,0.9375 -0.90625,0.9375 0,0.9375 0.0625,0.9375 0,0.96875 0,0.9375 0.0312,0.9375 -0.90625,0 -0.90625,-0.0312 -0.90625,0 -0.90625,-0.0312 0.0625,0.96875 0,0.9375 0,0.9375 0,0.9375 -0.875,0 -0.90625,0.9375 0,0.9375 -0.90625,-0.0312 0.0312,0.96875 -0.90625,0.90625 0,-0.9375 -0.90625,0 0,0.9375 0.0625,1.875 -0.90625,0.9375 0.0312,0.9375 -0.875,0 -0.90625,0 -0.90625,-0.0625 0,-0.9375 -1.8125,-0.0312 -0.90625,0 0.0312,0.875 -0.90625,0 -0.90625,-0.0312 -0.90625,0 0,0.9375 -0.875,0.9375 0.875,0 0.0312,0.9375 -0.90625,0 -0.90625,0.9375 -0.90625,-0.0625 0.90625,0.96875 -0.875,0.9375 -1.8125,-0.0312 -0.90625,0.9375 -1.78125,-0.0312 -0.90625,0 -0.90625,0.90625 0,0.96875 -0.90625,-0.0312 -0.875,0.9375 -0.90625,0.9375 0.90625,0 -0.90625,0.9375 0,0.9375 0.0625,0.96875 -0.90625,-0.0312 0,0.9375 -0.90625,0 0.90625,0.96875 -0.90625,-0.0312 0,0.96875 -0.90625,-0.0312 0.0312,0.9375 -0.90625,0.9375 -0.90625,0 -0.90625,0.9375 0,0.9375 -0.875,0.9375 -0.90625,0.9375 0,0.9375 -1.8125,-0.0312 -0.90625,0.9375 -1.8125,0.90625 -0.90625,0 -0.875,0 -0.90625,-0.0312 -0.90625,0 -1.8125,-0.0312 -0.90625,0 -0.90625,-0.0312 -0.90625,0 -0.90625,0 -0.90625,0.90625 0,0.96875 0,0.9375 0,1.875 0.96875,0.96875 -0.90625,0.9375 0,0.9375 -0.90625,0 0,0.9375 -0.90625,0 -1.8125,1.84375 -0.90625,0 -0.90625,0 -0.90625,0.9375 -0.90625,-0.96875 0,0.9375 -0.90625,0 -0.90625,-0.96875 -0.90625,-0.96875 -1.8125,0 -0.90625,0.9375 -0.90625,-0.0312 -0.90625,0 -1.8125,-0.96875 -0.90625,-0.0312 -1.8125,-0.96875 -0.9063,0 -0.9062,0 -0.9062,-0.0312 -0.9063,0 -0.9063,0 0,0.9375 -1.8124,0.90625 -0.9063,0 -0.9063,-0.96875 -1.8124,0.9375 -0.9063,-0.0312 -0.9063,0 -1.8124,0.9375 -0.9063,-0.0312 -3.625,-0.96875 -1.8125,-0.0312 -0.9062,-0.0312 -0.9063,0 0,-0.9375 -0.9063,-0.0312 0,-0.9375 -0.9062,-0.96875 -0.9062,0 -0.9063,0 -0.9063,-0.0312 -1.8124,-0.96875 -0.9063,0.9375 -0.9063,0 -1.8124,0.90625 -0.9063,0.9375 -0.9063,0 -0.9062,0.9375 -0.9062,0.9375 -0.9063,-0.0312 -0.9063,0 -0.9374,0 0,0.9375 -0.9063,0.9375 0,-0.9375 0,-0.96875 0.062,-0.9375 -0.9062,-0.96875 -0.9063,0 -0.9063,-0.96875 0.9063,0.0312 -0.9063,-0.96875 -0.9062,0 0,-0.96875 0.9062,0.0312 0,-0.96875 -0.9062,-0.9375 0.9062,-0.9375 -0.9062,-1.90625 -0.875,-0.0312 0.9062,-0.90625 0,-0.96875 0.9063,0.0312 0,-1.90625 0,-0.9375 -0.9063,-0.96875 0,-0.9375 -0.9062,-0.96875 0,-0.9375 0.031,-0.9375 0,-0.96875 0,-0.9375 0,-1.90625 0.9063,-0.9375 0,-0.9375 0.9063,0.0312 0.9062,0 0,-0.9375 0.9062,-0.9375 0.9063,0 0,-0.9375 0.9063,-0.9375 0,-0.9375 0.9062,-0.9375 0.9062,-0.9375 0.9063,-0.9375 0,-0.9375 0.9063,0 0.9062,0.0312 0,-0.96875 0,-0.9375 0.9062,0 0,-2.84375 0.9063,-0.90625 0.9063,-0.9375 0.9062,-0.9375 0,-0.9375 -0.9062,-0.0312 -0.9063,-0.96875 0.9063,-0.90625 0,-0.96875 -0.9063,0 0,-0.9375 0,-0.96875 0.031,-0.9375 -0.9063,-0.96875 0.9063,-0.90625 0,-0.96875 0.9062,-0.9375 -0.9062,0 0,-0.9375 -0.9063,-0.0312 -0.9063,-1.90625 0.9063,-0.9375 0,-0.9375 -0.9063,-0.96875 0,-0.9375 0.063,-0.9375 0,-0.9375 -0.9063,-0.0312 -0.9063,0.9375 -0.9062,0 0,-0.96875 0.9062,-0.9375 -0.9062,0 0,-0.9375 -0.875,-0.0312 0,-1.875 0,-0.96875 -0.9062,-0.9375 -0.9063,-0.0312 0,-0.9375 -0.875,0 0,-0.96875 0.9063,-0.9375 0,-0.9375 -0.9063,0 -0.9063,-0.0312 0,-0.9375 0.9063,0 0,-0.9375 0.9063,0.0312 0,-0.96875 -0.9063,-1.90625 -1.7813,-0.96875 -0.9062,0 0,-0.96875 0.9062,0.0312 0,-0.9375 0,-0.96875 0,-0.84375 0.375,0 0.9063,0.0312 0,-0.9375 -0.9063,-0.0312 -0.7812,0.84375 -0.4688,0 0,-0.96875 0,-0.9375 -0.9062,0 0,-0.96875 0,-0.9375 -0.8438,-0.0312 -0.9062,0 -0.9062,-0.96875 0,-0.9375 -0.9063,-0.96875 0,-0.9375 -0.9063,0 0,-0.96875 0,-0.9375 0.9063,0 0,-0.9375 -0.8437,0 -0.9063,-0.96875 -0.9063,-0.0312 0,-0.9375 0.031,-0.9375 -0.9063,-0.0312 -0.9062,-0.9375 0,-0.96875 0.9062,-0.90625 0,-0.96875 -0.875,0 0,-0.96875 -0.9062,0.9375 0,-0.9375 0,-0.9375 -0.875,-0.96875 0,-0.9375 0,-0.96875 -0.9062,0 -0.875,-0.96875 0,-0.9375 0,-0.9375 -0.875,-0.0312 -0.9063,0 -0.9063,-0.96875 -0.875,-0.96875 -0.9062,0 -0.875,-0.96875 0,-0.9375 -0.875,-0.96875 0,-0.9375 -0.9062,-0.0312 -0.875,0 -0.9063,-0.0312 0,-0.9375 -0.9063,-0.0312 -0.875,0.9375 -0.9062,-0.9375 0,-0.96875 -0.875,0 -0.9062,-0.0312 -1.7813,-0.96875 0,-0.9375 0.031,-0.96875 -0.9063,0 -0.9063,0 0.063,-0.96875 -0.9063,-0.96875 -0.875,0 0,-0.9375 -0.9063,-0.96875 -0.875,-0.96875 z m -82.2812,515.375 -0.031,0.96875 -0.9376,0 0.9688,-0.96875 z m 1.875,24.8125 -0.062,0.90625 0.9687,0 -0.9062,-0.90625 z"
     id="rect12375" />
  <path
     style="fill:#007a4d;fill-opacity:1"
     d="m 190.1874,146.65625 -0.6562,100.53125 56.0312,39.34375 -56.3124,0 -0.4376,66.09375 0,1.90625 -0.9374,0 -0.9063,-0.96875 -0.9063,0.9375 -1.8437,-0.0312 0,0.96875 -0.9375,0 -0.9062,-0.96875 -0.9063,0.9375 -0.9375,0 0,0.9375 0,0.9375 -0.9375,0.9375 -0.9063,0 -0.9062,0 -0.9375,-0.0312 -0.9063,-0.9375 -0.9062,-0.0312 -0.9062,0 -0.9376,0.9375 -0.9374,0.9375 -0.9063,0 0,0.9375 -0.9063,-0.9375 -0.9374,-0.0312 -0.9063,0 -1.8437,-0.0312 -0.9063,0.9375 -0.9375,0.96875 -0.9688,0.9375 -0.9374,0.9375 -0.9063,0.9375 -0.031,1.875 0,0.96875 -0.9374,0.9375 0,0.9375 -0.9376,0.9375 -0.9062,0 -0.062,0.9375 -0.9063,0 -1.8437,0.9375 -0.9375,-0.0312 -0.9062,0 -0.9063,0 -0.9375,-0.0312 -1.8438,0 -0.9062,0 -0.9062,-0.0625 -0.031,0.96875 0,0.9375 -0.9375,1.875 0.875,2.875 0.9062,0.9375 0.9063,0.0312 0,0.9375 -0.9375,0.9375 -0.9062,-0.9375 -0.9063,-0.0312 -0.9375,0.9375 -0.9375,1.90625 -1.875,0.90625 -0.9063,0 -0.9374,0 -0.9063,0 -0.9063,-0.0312 -1.8437,0 -0.9063,-0.96875 -0.9374,0 0.031,-0.9375 -0.9375,-0.0312 -0.9063,0 0,-0.9375 -0.9062,-0.96875 0.031,-0.9375 -0.9374,-0.0312 -0.9063,0 0,-0.9375 -0.9063,-0.0312 -0.9062,0 -0.9375,0 -0.9063,-0.0312 -0.9062,-0.9375 -0.9375,-0.0625 -0.9063,0 -1.8437,0 -0.9063,-0.0312 -0.9374,0 -0.9063,0 -0.9063,-0.0312 -0.9374,0 -0.9063,0 -1.875,0.9375 -0.9063,-0.96875 -0.9062,0 -1.8438,0.9375 -1.8437,-0.0312 -0.9063,0 -0.9374,0.9375 -0.9376,0 0,0.9375 -0.9374,0 -0.9063,-0.0312 0,-0.9375 -0.9063,0 -2.5312,-0.0625 -1.875,0.90625 -0.9062,-0.9375 -1.8126,-0.0312 -0.031,0.96875 -0.9062,-0.0312 -0.9376,0 -0.9062,0 -0.031,0.9375 -0.9063,0 -0.9375,0 0.031,-0.96875 -0.9062,0 -0.9375,0 -0.9063,-0.0312 -0.9374,0 -0.9063,-0.96875 -0.9063,0 -0.9062,0 -0.9375,0 -0.875,-1.9375 -0.9063,0 0,-0.9375 -0.875,-0.96875 -0.9374,0 -0.875,-0.96875 -0.9376,0 0.031,-0.96875 -0.9375,0 0.062,-0.9375 -0.9063,-0.0312 -0.062,0.96875 -0.9063,-0.96875 0,0.9375 -0.9375,0 0.062,-0.9375 -0.9375,-0.0312 -0.9062,0 -0.9063,0 -1.8437,-0.0312 -0.9063,0 -0.9375,0 0.062,-0.96875 -0.9375,0 0,0.9375 -0.9375,0 -0.9063,-0.96875 -1.9062,1.90625 -0.9062,-0.0312 -0.9063,0 0,-0.9375 -0.875,-0.0312 -0.9063,-0.9375 0.031,-1.90625 0.062,-0.96875 -0.9375,0 -0.9063,0 -0.9374,-0.0312 0,0.96875 -1.8126,-0.96875 -0.9374,0 -0.9063,-0.0312 -1.875,0.9375 -0.9375,0.9375 -0.9062,0 0.031,-0.9375 0,-0.96875 0.031,-0.9375 0.063,-0.96875 0.9062,0 0.031,-0.9375 0.063,-0.9375 0.062,-0.96875 0,-0.9375 0.031,-0.96875 -0.9063,0 -0.9374,0 -0.9063,-0.0312 0.031,-0.9375 0.031,-0.96875 -0.9062,-0.9375 0.062,-0.96875 -0.9374,0 0.062,-0.9375 -0.9062,-0.0312 0.031,-0.9375 0,-0.96875 0.9376,0.0312 0.062,-0.96875 1.8126,0.0312 0.9374,0 0.9376,-1.875 0.031,-0.96875 0.031,-0.9375 -0.9062,-0.96875 -0.875,-0.96875 0.062,-0.9375 0,-0.96875 0.062,-0.9375 -0.875,-0.96875 -0.9062,-0.96875 0.031,-0.9375 -0.9062,0 -0.9063,-0.96875 -0.9375,0.9375 -0.9375,0.9375 -0.9063,0 0,-0.96875 -0.9062,0 -0.9375,0.9375 -0.875,-0.96875 -0.9375,0 -0.8438,-1.90625 0.031,-0.96875 0.9687,-2.84375 0.031,-0.9375 -0.875,-0.96875 -0.9375,0 -0.9062,0 0.062,-0.96875 -0.9062,-0.96875 -0.875,-0.9375 -0.875,-0.96875 -0.9375,0.9375 -0.9375,0 -1.8125,-0.0312 -0.062,0.9375 -0.9062,0 -0.031,0.96875 -0.9063,-0.0312 0,-0.9375 -0.9062,0 -0.9375,0.9375 -0.9063,-0.0312 -0.9062,0 -0.9062,-0.96875 -0.031,0.96875 -0.9063,-0.0312 -0.062,0.96875 -0.031,1.90625 0,0.9375 -0.062,0.96875 -0.062,0.9375 -0.9063,0 -0.9062,-0.96875 -0.9062,0 -0.031,0.9375 0.875,0.96875 0,0.9375 -0.9375,0 -0.9062,0 -0.9063,0 -0.031,0.9375 0.9063,0 -0.062,0.96875 -0.031,0.9375 -0.063,0.96875 -0.875,-0.96875 -0.9062,0 -0.9062,-0.96875 -0.063,0.9375 -0.9062,0 -0.031,0.9375 -0.031,0.96875 0.9063,0.96875 0.875,0.9375 -0.031,0.96875 0.9375,0 0.875,0.96875 -0.9062,0 -0.9376,0.9375 -0.9687,0.9375 0.875,1.90625 -0.9375,0.9375 -0.9375,0 -0.062,0.96875 -0.9375,0.9375 -0.062,0.9375 -0.9062,0 -0.9063,0 0,-0.96875 -0.875,-0.96875 -0.9063,0 -0.9374,0 0,0.9375 -0.9376,0 -0.9374,0.9375 -0.031,0.96875 -0.062,0.9375 -0.9062,0 -1.875,0.9375 -0.9063,-0.0312 -0.9375,0 -0.9062,0 -0.031,0.9375 -0.875,-0.96875 -0.9687,0.96875 -0.031,0.9375 -0.9063,0 -0.062,0.9375 -1,1.03125 0.875,0.9375 2.6874,0.0312 2.6876,1.90625 -0.031,0.96875 -0.031,0.9375 0.9376,0.0312 -0.063,0.9375 0.9063,0 0.9375,0.0312 0.875,0.9375 -0.031,0.96875 -0.9376,0.9375 0.875,0.96875 -0.062,0.9375 -0.063,0.96875 -0.031,0.9375 0.9062,0.96875 -0.031,0.96875 0.9062,0 -0.9374,0.9375 0.9062,0 0.9062,0.96875 1.8438,0.0312 1.7812,1.90625 -0.031,0.96875 -0.062,0.9375 0.9063,0 -0.063,0.96875 -0.031,0.9375 0.9375,0.0312 -0.062,0.9375 0.9062,0.96875 -0.031,0.9375 1.8438,0.0312 1.75,2.875 -0.031,0.9375 -0.062,0.96875 0.875,1.90625 0.875,0.96875 -0.062,0.9375 -0.9375,0.9375 0.9062,0.0312 0,0.9375 0.9063,0 -0.031,0.96875 -0.031,0.9375 0.9375,0.0312 -0.062,0.9375 -0.031,0.96875 0.9374,0 -0.062,0.9375 0.875,0.96875 0.9062,0.96875 -0.031,0.9375 -0.063,0.96875 0.9063,0.9375 -0.031,0.96875 0.9063,0.96875 -0.031,0.9375 0.9063,0 -0.062,0.96875 -0.062,0.9375 0,0.96875 -0.031,0.9375 0.9063,0 -0.031,0.96875 0,0.9375 -0.062,0.96875 1.7812,1.90625 -0.031,0.96875 -0.063,0.9375 0.875,1.90625 -0.031,0.96875 0,0.9375 -0.062,0.96875 -0.031,0.9375 0.6876,2.3125 210.6874,0 -153.125,107.53125 0.9063,0 2.3125,2.375 0,0.96875 -0.031,0.9375 -0.063,0.96875 0,0.9375 -0.031,0.9375 1.8438,1.9375 0.9062,1.875 -0.062,0.96875 0,0.9375 1.9687,2.625 0.875,2.875 0.9063,0.9375 0,0.96875 0.875,2.84375 -0.9687,0.9375 0.9374,0.96875 -0.9374,0 0.9062,0.9375 0,0.96875 -0.031,0.9375 -0.063,0.9375 0.9376,0.96875 -0.031,0.9375 -0.031,1.90625 0.9063,1.90625 -0.062,1.90625 -0.9375,0 -0.9687,-0.0312 0,0.96875 0.9062,1.90625 -0.062,2.84375 -0.062,2.84375 -0.031,3.8125 -1,2.84375 -1.9376,2.84375 -1.9374,1.90625 -0.9688,0.9375 -1.9375,1.875 -1.9063,1.90625 1.0313,0.8125 -1.9063,0 -0.9374,0 -0.9376,0 -0.9687,0.9375 0.031,-0.9375 -0.9688,0 -1.8438,-0.96875 0,-0.9375 0.9376,0 -2.7813,-0.96875 0,-0.9375 -0.9687,0.9375 -0.9376,0 -0.9374,0 -0.9688,0.9375 -0.9375,0 -0.031,0.9375 0.9376,0 0,0.96875 -0.063,0.9375 -0.062,0.96875 -0.9376,0 -0.9374,0 -0.031,0.9375 -0.9375,0 -0.031,0.96875 0.9374,0 0.9376,0.9375 -0.063,0.96875 -0.9687,0.9375 -0.9687,0.9375 0.9687,0 0.9063,0.96875 0,0.9375 -0.031,0.96875 -0.062,0.9375 -0.9375,0 -0.062,0.96875 -0.031,0.9375 0.9687,-0.9375 0.9375,0.9375 -0.031,0.96875 -0.9688,0.9375 0.9688,0 0.9374,0 0.9376,0 0.031,-0.9375 0.9375,0 0.031,-0.96875 -0.9376,0 0.9376,-0.9375 0.9687,0 0.9375,0 0,0.9375 0.9688,0 0.875,0.96875 0.9687,0.9375 -0.062,0.96875 -0.9688,0.9375 0.9063,1.90625 0.9375,0.9375 1.875,0.96875 -0.031,0.9375 -0.031,0.96875 0.9687,0 0.9376,0 -0.063,0.9375 -0.9374,0 -0.9376,0 -0.9374,-0.9375 -0.9376,0 0,-0.96875 0.063,-0.9375 -0.9376,0 -0.9374,0 0,-0.9375 -0.9063,-0.96875 0,-0.9375 0.031,-0.96875 -0.9376,0 -0.9374,-0.9375 -0.031,0.9375 0,0.96875 -0.9687,0 0,0.9375 0.9374,0 -0.062,0.9375 0,0.96875 1.875,0 0.9374,0 1.8438,2.875 2.7812,2.84375 0.9063,1.90625 1.8437,1.90625 -0.062,1.90625 -0.031,0.9375 2.8125,1.90625 0.875,1.34375 1.8438,1.90625 1.875,1.90625 -0.063,0.9375 0.9376,0.96875 -0.9688,0 0,0.9375 -0.031,0.96875 -0.031,0.9375 0.9687,0 0.9376,0 0.9687,0 -0.062,0.96875 -0.062,0.9375 0.9375,0.9375 0.9688,0 1.8437,2.875 -0.031,0.9375 0.9063,1.90625 -0.9375,0 -0.031,0.9375 0.9687,0 -0.062,1.90625 0.9375,0.96875 0,0.9375 0.9375,0.96875 -0.062,0.9375 -0.031,1.90625 -0.062,0.9375 -0.9688,0.96875 -0.9375,0 -0.9375,-0.96875 -0.9688,0 -0.9374,0 -0.031,0.96875 -0.9375,0 -0.062,0.9375 0,0.9375 -0.031,0.96875 -0.9687,0.9375 -0.9375,0 -0.062,0.96875 -0.031,0.9375 -0.9374,0 -0.063,0.9375 -0.9374,0 -0.031,0.96875 0.9687,0 -0.062,0.9375 0.9687,0 0,-0.9375 0.9687,0 -0.031,0.9375 0,0.96875 -1,0.9375 0.9688,0 -1,1.90625 -0.9376,0 -0.031,0.9375 -0.9375,0 1.8437,1.90625 0.9376,0.96875 0,0.9375 0.9374,0.9375 -0.062,0.96875 -0.063,0.9375 0.9688,0 -0.031,0.96875 0,0.9375 0.9374,0.96875 1.875,0.9375 0.9688,0 0,-0.9375 0.031,-0.96875 0,-0.9375 0.9688,0 -0.9375,-0.96875 0.9687,-0.9375 0.063,-0.9375 -0.9376,-0.96875 -0.9374,-0.9375 0,-0.96875 -0.9376,0 0.031,-0.9375 0.9375,-0.9375 -0.9375,0 0.062,-0.96875 0.9375,0 0.9687,-0.9375 1.9376,-0.96875 7.6562,-1.875 4.75,0 2.8438,0.96875 1.9062,0.9375 0.9375,0.96875 1.875,1.90625 0.9375,0 0,0.9375 -0.9688,0 -0.9687,0.9375 -0.9375,0 -0.062,0.96875 0.9375,0.9375 -0.9375,0 1.875,0.9375 0,0.4375 358.84375,-252.03125 64.8125,0 -0.15625,-0.15625 -0.875,-1.875 0.0625,-0.96875 0.0312,-0.90625 0.9375,0 -0.0312,0.9375 0.90625,0 0.0312,-0.9375 0.0625,-0.9375 0.9375,0 -0.0625,0.9375 0.90625,0.0312 0.96875,-0.9375 0.0312,-0.9375 0.90625,0 0.0625,-0.9375 0.9375,0 0.90625,0.0312 0.90625,0 0.9375,0 0.90625,0 0.0312,-0.9375 0.9375,0.0312 0.90625,0 0.90625,0 0.0625,-0.9375 0.9375,0 0.90625,0.0625 0.9375,0 0.0625,-0.9375 -0.9375,0 0.96875,-0.9375 0.9375,-0.9375 0.90625,0 0.9375,0.0312 0.0312,-0.9375 0.9375,-0.9375 0.96875,-1.875 0.9375,0.0312 0.90625,0 -0.90625,-0.9375 -0.875,-0.96875 0.9375,-0.90625 -0.0312,0.9375 0.9375,0 0.0312,-1.875 0.96875,-0.9375 0.90625,0 0.0312,-0.9375 -0.90625,0 0.0312,-0.9375 0.90625,0 0.90625,0.0312 0.9375,0 0,-0.9375 0.96875,0 0.9375,-0.90625 0.0312,-0.9375 -0.90625,-0.0312 0,-0.9375 0.96875,-0.90625 0.90625,0 0.0625,-0.9375 0.9375,-0.9375 0.90625,0 0.9375,0.0312 0.9375,-0.9375 -0.90625,-0.9375 0.9375,0 0.9375,-0.9375 0.9375,-0.90625 0.0312,-0.9375 -0.8125,-0.0312 0.9375,-0.90625 0,0.9375 0.78125,0 0.0625,-0.9375 0.0312,-0.9375 0,-0.9375 0.0625,-0.9375 0.90625,0 0.0312,-0.9375 0.96875,0.0312 0.90625,0 -0.90625,-0.9375 0.9375,0 0,-0.9375 0.0312,-0.9375 0.90625,0 0.9375,0.0312 0,-0.9375 0.9375,-0.9375 -0.90625,0 0.0312,-0.9375 0.90625,0 0.90625,0.9375 0.90625,0.0312 0.90625,0 0.0625,-0.9375 0.90625,0 0.90625,0 0,0.9375 0.90625,0.0312 0.90625,0 0.0625,-0.9375 0.0312,-0.9375 0.90625,0 0.0312,-0.9375 0.90625,0.0312 0.0312,-0.9375 0.90625,0 0.875,0.9375 0.90625,0.96875 0.90625,0 0.90625,0 0.90625,0 0.0625,-0.9375 0.9375,-0.90625 0.0625,-0.9375 0,-0.9375 0.9375,0 0.90625,0 0.0312,-0.9375 0.90625,-0.90625 0.0625,-0.9375 0.875,0 0.0625,-0.9375 0.90625,0 0.0312,-0.9375 0.90625,0.0312 0.0312,-0.9375 0.90625,0 0.0625,-0.9375 0.90625,0 0.90625,0.0312 -0.0625,0.9375 0.90625,0 0.0625,-0.9375 0.90625,0 0.90625,0.0312 1.8125,0.9375 0.90625,0.0312 0.0312,-0.9375 0.90625,0 0.90625,0 0.90625,0 0.9375,-0.90625 0.0625,-0.9375 0.90625,-0.9375 0.9375,-0.90625 0.90625,0 0.0312,-0.9375 1.8125,0 0.90625,0.0312 0.9375,0 0.90625,0 0.90625,0.0312 0,-0.9375 0.90625,0.9375 0.90625,0 0.90625,0.0312 0.9375,-0.9375 0.90625,0 0.90625,0.0312 0.0625,-0.9375 0.5,0 0.875,0 0.90625,0.0312 0,0.90625 0.90625,0.96875 0,0.9375 0.84375,2.8125 0.90625,0.9375 0.90625,0 0.90625,0 0.9375,0.0312 0.90625,0 -0.0625,0.9375 0.90625,0 0,0.9375 -0.0312,0.9375 0.90625,0.9375 0.90625,0.0312 0.90625,0 1.8125,0.96875 0.90625,0.9375 0,0.9375 0.875,0.9375 0.90625,0.9375 0.90625,1.875 -0.0625,0.9375 0.90625,0 0,0.9375 0.90625,0.0312 0.90625,0 2.75,0.96875 -0.0625,0.9375 0,0.90625 0.90625,0.0312 0,0.9375 0.90625,0 0.90625,0 0.9375,0.0312 0.875,0.9375 0,0.9375 0.90625,0 1.84375,0 0.90625,0.96875 -0.0312,0.9375 0.90625,0.9375 0.90625,0.9375 0.9375,0 0.90625,0.0312 0.90625,0 0.90625,0 0.90625,0.9375 0,0.9375 -0.0312,1.875 0.9375,0 -0.0625,0.9375 0.9375,0 -0.0312,0.9375 0.90625,0.9375 0,1.875 0.90625,0.9375 0.90625,0.96875 0.90625,0.9375 0,0.9375 -0.0625,0.9375 0.9375,0.9375 -0.0312,0.9375 -0.90625,-0.0312 0,0.9375 -0.0625,0.9375 0,0.9375 -0.90625,0 -0.0312,0.9375 0,0.9375 -0.90625,-0.0312 -0.9375,0 -0.90625,0 -0.9375,0.90625 -0.90625,0 -0.9375,0.9375 0,0.9375 -0.90625,-0.9375 -0.0312,0.90625 0,0.9375 0,0.9375 -0.0625,0.9375 0,0.9375 0,0.9375 0.90625,0 0,0.9375 -0.9375,0 -0.90625,0 0,0.9375 -0.0625,0.90625 -0.90625,0 -0.9375,0 -0.9375,0.9375 -0.90625,-0.0312 -0.9375,0.9375 -0.90625,0 -0.9375,-0.0312 0,0.0937 101.03125,0 0.34375,-0.375 0.78125,-1.875 2.65625,-1.8125 -0.0937,-1.875 6.40625,-2.90625 1.59375,-2.78125 0.90625,-0.9375 2.5625,-2.75 0.875,-0.9375 1.71875,-1.84375 0.84375,-0.9375 1.78125,-0.90625 -0.0625,-0.9375 0.90625,0.0312 3.4375,-3.71875 3.34375,-4.625 3.40625,-3.6875 2.5625,-2.75 0.9375,0 2.6875,-0.90625 0.90625,0 3.71875,0.21875 1.78125,-0.90625 0.90625,0 2.71875,-0.90625 3.375,-3.6875 0.875,-0.90625 1.75,-0.90625 0.78125,-1.875 2.6875,-0.90625 0.78125,-1.84375 3.46875,-2.75 1.6875,-1.84375 1.6875,-1.84375 2.53125,-2.75 3.53125,-1.84375 0.71875,-2.78125 -1.0625,-1.84375 0.84375,-0.9375 6.125,-8.03125 0.6875,-2.78125 0.78125,-1.84375 0.53125,-3.3125 -0.15625,-1.15625 -0.3125,-2.28125 1.34375,-4.59375 3.65625,-4.53125 0.5,-6.8125 1.4375,-3 1.46875,-3.4375 -0.15625,-1.15625 -0.28125,-2.3125 3.53125,-2.28125 -0.1875,-1.125 1.25,-6.34375 -0.15625,-1.15625 1.75,-1.125 1.625,-2.28125 -0.15625,-1.15625 1.625,-2.28125 -0.15625,-1.15625 1.59375,-2.28125 -0.15625,-1.15625 1.625,-2.28125 1.75,-1.15625 -0.1875,-1.15625 -0.15625,-1.125 -0.15625,-1.15625 1.46875,-3.4375 -0.0312,-0.15625 -46.875,0 -0.0937,0.6875 -0.15625,1.90625 -0.0625,0.96875 -0.125,0.9375 -0.0937,0.96875 -0.0937,0.9375 -0.15625,1.9375 -0.25,2.84375 -0.125,0.96875 -0.0937,0.9375 -0.0625,0.96875 -4.5,-0.34375 -3.59375,-0.28125 -1.78125,-0.125 -0.90625,-0.0937 -3.59375,-0.25 -0.90625,-0.0937 -1.78125,-0.125 -1.8125,-0.125 -0.875,-0.0937 -1.8125,-0.125 -1.78125,-0.125 -1.8125,-0.15625 -0.90625,-0.0625 -0.8125,-1.03125 -0.90625,-0.0625 -2.59375,-1.15625 -1.8125,-0.15625 0.125,-0.9375 -0.90625,-0.0937 -0.90625,-0.0625 -0.8125,-1.03125 -0.90625,-0.0625 -0.875,-0.0625 -2.625,-1.15625 -0.84375,-1.03125 -0.875,-0.0625 -0.90625,-0.0625 -0.8125,-1.03125 -0.90625,-0.0625 0.0625,-0.96875 -1.625,-2.0625 -0.78125,-0.96875 -288.46875,0 -144.4375,-101.4375 -0.0625,0.0625 -0.90625,0.9375 -0.875,0 -0.875,1.875 -0.90625,0.90625 0.90625,0.96875 -0.875,0 -0.90625,-0.0312 -0.90625,0 0,0.9375 0.90625,0 0.0312,0.96875 -0.90625,-0.0312 0,0.9375 0.0625,0.96875 -0.90625,-0.0312 0,0.9375 -0.875,0.9375 1.8125,0.96875 0,0.9375 -0.90625,0 -0.875,0.9375 0,0.9375 0.90625,0 0,0.9375 0.0312,0.96875 -0.90625,0.90625 0.0312,0.96875 -0.90625,-0.0312 0,0.9375 -0.90625,0 -0.875,0 0,1.875 0.0625,0.9375 -0.90625,0 0,0.9375 0.90625,0.96875 0.90625,0 0,0.9375 -0.875,0.9375 -0.90625,0 0,0.9375 0.0625,0.9375 -0.90625,-0.0312 -0.90625,0 0,0.9375 0.90625,0.0312 0.90625,0 0,0.9375 -0.90625,0.9375 0,0.9375 0.0625,0.9375 0,0.96875 0,0.9375 0.0312,0.9375 -0.90625,0 -0.90625,-0.0312 -0.90625,0 -0.90625,-0.0312 0.0625,0.96875 0,0.9375 0,0.9375 0,0.9375 -0.875,0 -0.90625,0.9375 0,0.9375 -0.90625,-0.0312 0.0312,0.96875 -0.90625,0.90625 0,-0.9375 -0.90625,0 0,0.9375 0.0625,1.875 -0.90625,0.9375 0.0312,0.9375 -0.875,0 -0.90625,0 -0.90625,-0.0625 0,-0.9375 -1.8125,-0.0312 -0.90625,0 0.0312,0.875 -0.90625,0 -0.90625,-0.0312 -0.90625,0 0,0.9375 -0.875,0.9375 0.875,0 0.0312,0.9375 -0.90625,0 -0.90625,0.9375 -0.90625,-0.0625 0.90625,0.96875 -0.875,0.9375 -1.8125,-0.0312 -0.90625,0.9375 -1.78125,-0.0312 -0.90625,0 -0.90625,0.90625 0,0.96875 -0.90625,-0.0312 -0.875,0.9375 -0.90625,0.9375 0.90625,0 -0.90625,0.9375 0,0.9375 0.0625,0.96875 -0.90625,-0.0312 0,0.9375 -0.90625,0 0.90625,0.96875 -0.90625,-0.0312 0,0.96875 -0.90625,-0.0312 0.0312,0.9375 -0.90625,0.9375 -0.90625,0 -0.90625,0.9375 0,0.9375 -0.875,0.9375 -0.90625,0.9375 0,0.9375 -1.8125,-0.0312 -0.90625,0.9375 -1.8125,0.90625 -0.90625,0 -0.875,0 -0.90625,-0.0312 -0.90625,0 -1.8125,-0.0312 -0.90625,0 -0.90625,-0.0312 -0.90625,0 -0.90625,0 -0.90625,0.90625 0,0.96875 0,0.9375 0,1.875 0.96875,0.96875 -0.90625,0.9375 0,0.9375 -0.90625,0 0,0.9375 -0.90625,0 -1.8125,1.84375 -0.90625,0 -0.90625,0 -0.90625,0.9375 -0.90625,-0.96875 0,0.9375 -0.90625,0 -0.90625,-0.96875 -0.90625,-0.96875 -1.8125,0 -0.90625,0.9375 -0.90625,-0.0312 -0.90625,0 -1.8125,-0.96875 -0.90625,-0.0312 -1.8125,-0.96875 -0.9063,0 -0.9062,0 -0.9062,-0.0312 -0.9063,0 -0.9063,0 0,0.9375 -1.8124,0.90625 -0.9063,0 -0.9063,-0.96875 -1.8124,0.9375 -0.9063,-0.0312 -0.9063,0 -1.8124,0.9375 -0.9063,-0.0312 -3.625,-0.96875 -1.8125,-0.0312 -0.9062,-0.0312 -0.9063,0 0,-0.9375 -0.9063,-0.0312 0,-0.9375 -0.9062,-0.96875 -0.9062,0 -0.9063,0 -0.9063,-0.0312 -1.8124,-0.96875 -0.9063,0.9375 -0.9063,0 -1.8124,0.90625 -0.9063,0.9375 -0.9063,0 -0.9062,0.9375 -0.9062,0.9375 -0.9063,-0.0312 -0.9063,0 -0.9374,0 0,0.9375 -0.9063,0.9375 0,-0.9375 0,-0.96875 0.062,-0.9375 -0.9062,-0.96875 -0.9063,0 -0.9063,-0.96875 0.9063,0.0312 -0.9063,-0.96875 -0.9062,0 0,-0.96875 0.9062,0.0312 0,-0.96875 -0.9062,-0.9375 0.9062,-0.9375 -0.9062,-1.90625 -0.875,-0.0312 0.9062,-0.90625 0,-0.96875 0.9063,0.0312 0,-1.90625 0,-0.9375 -0.9063,-0.96875 0,-0.9375 -0.9062,-0.96875 0,-0.9375 0.031,-0.9375 0,-0.96875 0,-0.9375 0,-1.90625 0.9063,-0.9375 0,-0.9375 0.9063,0.0312 0.9062,0 0,-0.9375 0.9062,-0.9375 0.9063,0 0,-0.9375 0.9063,-0.9375 0,-0.9375 0.9062,-0.9375 0.9062,-0.9375 0.9063,-0.9375 0,-0.9375 0.9063,0 0.9062,0.0312 0,-0.96875 0,-0.9375 0.9062,0 0,-2.84375 0.9063,-0.90625 0.9063,-0.9375 0.9062,-0.9375 0,-0.9375 -0.9062,-0.0312 -0.9063,-0.96875 0.9063,-0.90625 0,-0.96875 -0.9063,0 0,-0.9375 0,-0.96875 0.031,-0.9375 -0.9063,-0.96875 0.9063,-0.90625 0,-0.96875 0.9062,-0.9375 -0.9062,0 0,-0.9375 -0.9063,-0.0312 -0.9063,-1.90625 0.9063,-0.9375 0,-0.9375 -0.9063,-0.96875 0,-0.9375 0.063,-0.9375 0,-0.9375 -0.9063,-0.0312 -0.9063,0.9375 -0.9062,0 0,-0.96875 0.9062,-0.9375 -0.9062,0 0,-0.9375 -0.875,-0.0312 0,-1.875 0,-0.96875 -0.9062,-0.9375 -0.9063,-0.0312 0,-0.9375 -0.875,0 0,-0.96875 0.9063,-0.9375 0,-0.9375 -0.9063,0 -0.9063,-0.0312 0,-0.9375 0.9063,0 0,-0.9375 0.9063,0.0312 0,-0.96875 -0.9063,-1.90625 -1.7813,-0.96875 -0.9062,0 0,-0.96875 0.9062,0.0312 0,-0.9375 0,-0.96875 0,-0.84375 0.375,0 0.9063,0.0312 0,-0.9375 -0.9063,-0.0312 -0.7812,0.84375 -0.4688,0 0,-0.96875 0,-0.9375 -0.9062,0 0,-0.96875 0,-0.9375 -0.8438,-0.0312 -0.9062,0 -0.9062,-0.96875 0,-0.9375 -0.9063,-0.96875 0,-0.9375 -0.9063,0 0,-0.96875 0,-0.9375 0.9063,0 0,-0.9375 -0.8437,0 -0.9063,-0.96875 -0.9063,-0.0312 0,-0.9375 0.031,-0.9375 -0.9063,-0.0312 -0.9062,-0.9375 0,-0.96875 0.9062,-0.90625 0,-0.96875 -0.875,0 0,-0.96875 -0.9062,0.9375 0,-0.9375 0,-0.9375 -0.875,-0.96875 0,-0.9375 0,-0.96875 -0.9062,0 -0.875,-0.96875 0,-0.9375 0,-0.9375 -0.875,-0.0312 -0.9063,0 -0.9063,-0.96875 -0.875,-0.96875 -0.9062,0 -0.875,-0.96875 0,-0.9375 -0.875,-0.96875 0,-0.9375 -0.9062,-0.0312 -0.875,0 -0.9063,-0.0312 0,-0.9375 -0.9063,-0.0312 -0.875,0.9375 -0.9062,-0.9375 0,-0.96875 -0.875,0 -0.9062,-0.0312 -1.7813,-0.96875 0,-0.9375 0.031,-0.96875 -0.9063,0 -0.9063,0 0.063,-0.96875 -0.9063,-0.96875 -0.875,0 0,-0.9375 -0.9063,-0.96875 -0.875,-0.96875 z m -82.2812,515.375 -0.031,0.96875 -0.9376,0 0.9688,-0.96875 z m 1.875,24.8125 -0.062,0.90625 0.9687,0 -0.9062,-0.90625 z"
     id="rect12381" />
  <path
     style="fill:#de3831;fill-opacity:1;stroke:#de3831;stroke-width:1.5;stroke-linejoin:round;stroke-miterlimit:4;stroke-opacity:1;stroke-dasharray:none"
     d="m 716.0952,0.75 0.46875,0.0625 0.65625,0.0937 -0.90625,0.96875 -0.9375,-0.0312 -0.90625,-0.0312 -0.9375,0 -1.875,-0.0312 0.0625,0.96875 0.0625,0.96875 -0.90625,0 -1.90625,-1.03125 -0.9375,-0.0312 -2.71875,0.9375 -0.84375,0.125 -0.96875,-0.0312 -0.96875,-0.0312 -1.0625,-1 -0.90625,0.96875 -1,0 -1.03125,-1.03125 -1,0 -0.96875,-0.0312 -1,0 -1.84375,1.9375 -0.96875,-0.0312 -1,0 -0.96875,-0.0312 -1,-0.0312 -0.96875,0 -1.96875,-0.0312 -0.9375,0.96875 -0.96875,-0.0312 0.0625,1 0.0625,0.96875 -0.9375,0.96875 -0.96875,0 0.0625,0.96875 -0.9375,0.96875 0.0625,1 1.09375,2 0.0312,0.96875 -0.9375,0.96875 -0.875,1.96875 -0.9375,0.96875 -0.96875,-0.0312 -1,0 -0.96875,-0.0312 -1,0 -0.9375,0.96875 0.0625,0.96875 -1,0 -2.875,0.90625 -1,0 -0.96875,-0.0312 -1,0 -0.9375,0.96875 -0.9375,0.96875 -0.96875,-0.0312 -1.93745,0.968 -0.96875,-0.0312 -0.9375,0.96875 -1.03125,-1 -1.96875,-0.0312 0.0625,0.96875 -0.96875,0 -0.9375,0.96875 -1.03125,-1 -1,-0.0312 -0.96875,-0.0312 -1,0 -1.96875,-0.0312 -1.96875,-0.0312 -1.96875,-0.0625 0.0625,1 -1,-0.0312 0.0625,1 -1,0 -1.90625,0.9375 0.0312,1 -0.96875,-0.0312 -1.9375,0.96875 -1.9375,0.9375 0.0625,1 -0.96875,0.96875 -1.03125,-0.0312 1.1875,3 -1.03125,-0.0312 0.0625,1 -2,0.9375 -0.96875,0.96875 -0.96875,0.96875 -2.03125,-0.0312 0.0312,1 -1,-0.0312 1.0625,1.03125 0.0625,0.96875 0.0312,1 0.0625,0.96875 -1.03125,0 -0.96875,0.96875 -2,0.96875 -0.96875,0.96875 -1.03125,-0.0625 -1,-0.0312 1.0625,1.03125 0.0625,0.96875 -1.03125,0 0.0625,0.96875 0.0312,1 0.0625,1 0.0625,0.96875 -1,0 0.0312,1 -1.03125,-0.0312 -2,0.9375 -1,0 -0.96875,0.96875 -1.03125,-0.0312 0.0312,1 -1,0 0.0625,0.96875 -1.03125,0 -0.0625,-1 -1.03125,-0.0312 0.0625,1 1.0625,1 0.0625,1 -1.03125,-0.0312 -0.96875,1 0.0625,0.96875 0.0312,1 -1.03125,-0.0312 -1.03125,0 -1.0625,-1 -0.0312,-1 -1,-0.0312 -1,0.96875 -0.96875,0.96875 -1.03125,0 -1,-0.0312 -0.0625,-0.96875 -0.96875,0.96875 0.0625,0.96875 -0.96875,1 0.0312,0.96875 0.0625,1 -0.96875,0.96875 1.0625,1 -0.96875,0.96875 -1,0.96875 -0.96875,1 -1.03125,-0.0312 -3.0625,-0.0625 -1.03125,0 0.0625,1 -1,0.96875 -1,-0.0312 -0.0625,-1 -0.0625,-0.96875 -1.03125,-0.0312 -1,0.96875 1.09375,1.03125 -1.03125,-0.0312 -0.96875,0.96875 -0.0312,-0.96875 -0.0625,-1 -1.03125,-0.0312 -1.03125,0 0.0625,0.96875 0.0312,1 -0.96875,0.96875 -1,0.96875 -1.03125,0 -0.96875,0.96875 -1.03125,-0.0312 0.0625,1 -1.03125,0 -0.0625,-1 -1,-0.0312 0.0625,1 -1.03125,-0.0312 1.0625,1.03125 1.03125,0 -0.96875,0.96875 -1.03125,0 -1.0625,-1 0.0312,0.96875 -1.0625,-1 -1.03125,0 0.0312,0.96875 1.09375,1 0.0625,1 -1.03125,0 -1.03125,-0.0312 -1,0 0.0312,0.96875 0.0625,1 -1,-0.0312 -1.03125,0 0.0312,1 1.0625,1 0.0625,0.96875 -1,1 -1.03125,-0.0312 -1,0 -0.0625,-1 -1.0625,-1 -1.03125,-0.0312 0.0625,1 0.0625,1.96875 -1.03125,0 0.0625,0.96875 -1,0.96875 0.0625,1 0.0312,2 -0.96875,0.96875 0.0625,0.96875 0.0625,1 1,0.0312 0.0625,0.96875 -1.03125,0 -1.03125,-0.0312 0.0312,1 1.03125,0 0.0625,1 0.0625,1 0.0312,1 -0.96875,0.96875 0.0312,0.96875 0.0625,1 -1,0.96875 0.0312,1 0.0625,1 0.0625,0.96875 -1,1 0.0625,0.96875 0.0625,1 -2.03125,0.96875 0.0312,0.96875 0.0625,1 1.03125,0.0312 0.0625,0.96875 0.0312,1 -1.03125,-0.0312 0.0312,1 1.09375,1 -1,0.96875 0.0625,1 0.0625,1 0.0312,1 -1.03125,-0.0312 -1.03125,0 0.0625,0.96875 -1.03125,0 -1.03125,-0.0312 -1,0.96875 -1.03125,0 -1.03125,-0.0312 -1.03125,0 0.0625,1 -1.03125,-0.0312 0.0625,1 -1.03125,-0.0312 -1.0625,0 0.0312,0.96875 0.0625,1 0.0625,1 -1.03125,-0.0312 -1.03125,0 -1.03125,-0.0312 -1,1 -1.03125,-0.0312 0.0312,1 -1,-0.0312 0.0312,1 -1.03125,-0.0312 0.0625,1 -1.03125,0 0.0312,0.96875 -1,1 -0.96875,0.96875 0.0625,0.96875 -1.9375,2.96875 0.0625,0.96875 -1,0.96875 -1.0625,0 -1.03125,-0.0312 0.0312,1 -1.03125,0 -1,0.96875 -1.03125,-0.0312 -1.03125,0 -1.03125,-0.0312 -5.125,0.9375 -1.03125,-0.0312 0.0625,1 -3.125,-0.0625 -3.0625,0.96875 -1.03125,-0.0312 -3.0625,0.9375 -1.03125,0 -1.03125,-0.0312 -1.0625,0 -1.03125,-0.0312 -3.125,-0.0312 -1.03125,-0.0312 0.0625,1 -1,0.96875 -1.03125,0 -1.03125,-0.0312 -1,1 0.0312,0.96875 0.0625,1 1.09375,1 0.0312,1 1.0625,1 0.0625,2 -0.96875,1.96875 -1,0.96875 0.0312,1 -0.90625,2.9375 -0.9375,2.96875 -0.96875,1.96875 -0.96875,1.96875 -0.96875,1.96875 0.0625,1 -0.9375,2.96875 -1,0.96875 0.0625,1 -2.0625,0.96875 -0.875,4.9375 0.0625,1.96875 -1,1 0.0312,0.96875 -0.96875,1.96875 0.0625,2 -1,0.96875 -2.90625,5.90625 0.0312,1 -1.03125,0.96875 -3.09375,0.96875 -3.0625,1.9375 -1,0.96875 -1,0.96875 -1.0625,0 -1.03125,0 -3.0625,1.9375 -1.03125,-0.0312 -2.09375,-0.0312 -1.0625,0 -3.125,-0.0312 -2.0625,-0.0312 -1.0625,-0.0312 -1.0625,-1 -2.09375,-0.0312 -1.03125,0 -1.0625,-1 -1.0625,-0.0625 -1.0625,-1 -1.03125,-0.0312 -1.03125,0 -0.28125,0 49.09375,34.46875 269.6875,0 0.0625,-0.9375 1.90625,-0.8125 1.0625,-1.84375 0.96875,-0.875 1,-0.875 0.15625,-1.9375 1,-0.875 0.96875,-0.875 1.09375,-1.84375 0.96875,-0.90625 0.0937,-0.9375 0.0625,-0.96875 1,-0.875 0.125,-0.96875 0.96875,-0.875 1.09375,-1.84375 0.15625,-1.90625 0.96875,-0.90625 1,-0.875 3.875,-2.59375 1.90625,-0.8125 0.0937,-0.9375 1,-0.90625 0.96875,-0.875 1,-0.875 1,-0.90625 0.90625,0.0937 0.90625,0.0625 0.90625,0.0625 1,-0.875 0.90625,0.0625 2.5625,2.125 0.8125,1.03125 1.8125,0.125 -0.0625,0.96875 0.90625,0.0625 0.90625,0.0625 -0.0937,0.96875 2.5625,2.125 0.90625,0.0625 -0.125,0.96875 1.78125,1.09375 3.4375,2.1875 1.75,1.09375 0.78125,1.03125 0.8125,1.03125 0.90625,0.0625 0.84375,1.03125 0.90625,0.0625 1.625,2.0625 0.125,-0.96875 0.90625,0.0625 1.90625,-0.8125 1.875,-0.8125 -0.34375,-0.21875 -0.8125,-1 -0.78125,-1.96875 0.0937,-0.96875 0.0625,-0.96875 -0.75,-1.96875 0.0625,-1 1.21875,-3.875 0.0937,-0.96875 0.0625,-1 1,-0.96875 0.0625,-0.96875 1.0625,-1.9375 1,-0.96875 0.0937,-0.96875 0.0625,-0.96875 0.0937,-0.96875 -0.6875,-2.96875 0.0625,-0.96875 -0.90625,0 0.0625,-1 0.0937,-0.96875 0.0625,-0.96875 0.0937,-1 0.96875,-0.9375 0.0937,-1 0.0625,-0.96875 0.9375,0.0312 0.125,-1.96875 0.9375,0.0312 0.0625,-1 0.0937,-0.96875 0.0625,-0.96875 0.0937,-0.96875 0.0625,-1 0.0625,-0.96875 0.0937,-0.96875 0.0625,-0.96875 0.25,-2.9375 0.0625,-0.96875 0.0937,-1 0.96875,-0.9375 0.125,-1 0.0625,-0.96875 -0.8125,-1 0.0312,-0.96875 0.0625,-0.96875 0.125,-1 0.0625,-0.96875 0.0937,-0.96875 0.0625,-0.96875 0.0937,-1 0.21875,-2.90625 -0.84375,-1 0.125,-1 0.15625,-1.9375 0.0625,-0.96875 0.15625,-1.96875 0.15625,-1.9375 0.0937,-1 0.0625,-0.96875 -0.84375,-1 0.125,-0.96875 0.0625,-0.96875 0.0937,-1 0.15625,-1.9375 0.15625,-1.96875 0.90625,0.0312 0.0625,-0.96875 0.0937,-1 0.0625,-0.96875 0.0937,-0.96875 0.0625,-0.96875 0.125,-1 0.0312,-0.96875 0.125,-0.96875 0.0625,-1 -0.75,-1.96875 0.0937,-0.96875 0.0625,-0.96875 0.21875,-2.9375 0.125,-0.96875 -0.90625,-0.0312 0.0312,-0.96875 -0.84375,-1 0.125,-0.96875 -0.84375,-1 -0.75,-1.96875 -0.84375,-1 0.25,-2.9375 -0.6875,-2.9375 0.15625,-1.96875 0.0625,-0.96875 0.15625,-1.96875 -0.8125,-0.96875 0.0625,-1 0.0937,-0.96875 -0.84375,-1 -0.90625,0 -1.6875,-2 -1.8125,-0.0312 -0.84375,-1 -0.75,-1.96875 -0.59375,-3.9375 -0.6875,-2.96875 -0.90625,0 0.0625,-1 0.3125,-3.90625 0.0937,-0.96875 -0.78125,-1.96875 -0.90625,-0.0312 -0.8125,-1 0.0625,-0.96875 -2.5,-3 -0.84375,-1 -0.84375,-1 0.25,-2.9375 -0.84375,-1 1.09375,-1.90625 0.0625,-1 0.15625,-1.9375 0.15625,-1.96875 0.0937,-0.96875 0.3125,-3.9375 0.0625,-0.96875 0.0937,-0.96875 -0.84375,-1 0.125,-0.96875 0.0625,-1 -0.65625,-2.9375 0.0625,-1 -0.75,-1.96875 0.0937,-0.96875 -0.84375,-1 0.0937,-0.96875 -0.625,-3.9375 -0.78125,-1 0.0312,-1 0.125,-0.96875 -1.59375,-2.96875 0.25,-2.9375 -0.90625,-0.0312 -1.1875,-7.875 0.0625,-0.96875 0.0937,-0.96875 -0.9375,-0.0312 -0.65625,-2.96875 0.0625,-0.96875 0.0937,-0.96875 -0.84375,-1 0.15625,-1.96875 -1.125,-0.5625 -1.90625,-1 -1.0625,-1.96875 -0.9375,-0.0312 -1.84375,-0.0312 -0.9375,0 -1.0625,-1.96875 -0.9375,-0.0312 -0.90625,0 -2.71875,0.90625 -2.84375,-1.03125 -2.875,-1.03125 0.0625,0.96875 -0.90625,0 -0.0625,-0.96875 -1.875,-0.0625 -0.96875,-0.96875 -1.875,-0.0312 -0.9375,-0.0312 -1.90625,-1 -2.71875,0.90625 -2.78125,-0.0625 -1.78125,0.9375 -1.875,-0.0312 -0.9375,-0.0312 -0.84375,0.96875 -0.9375,-0.0312 -1,-0.96875 -1.84375,-0.0625 -0.875,0.9375 -2.84375,-1.03125 -0.9375,0 -2.71875,0.90625 -2.71875,0.90625 -3.71875,-0.0312 -0.90625,0 -0.9375,-0.0625 -1.0625,-1.96875 -0.96875,-1 -0.9375,0 -3.71875,-0.0937 -1.78125,0.9375 -1.96875,-1.96875 -1,-1 -0.96875,-1 -1.875,-0.0312 -0.0312,-0.96875 -2.84375,-1.03125 -0.90625,-0.0312 -1.96875,-1.96875 -1.8125,0.9375 -1.90625,-1.03125 -0.9375,0 -1.90625,-1.03125 -1.90625,-1.03125 -2.78125,-0.0625 -0.96875,-1 -1.875,-0.0312 -0.90625,0 -0.9375,-0.0312 z"
     id="rect12373" />
  <path
     style="fill:#0c1c8c;fill-opacity:1;stroke:#0c1c8c;stroke-width:1.5;stroke-linejoin:round;stroke-miterlimit:4;stroke-opacity:1;stroke-dasharray:none"
     d="m 503.8437,477.09435 -335.0937,235.3125 0.5,0 -0.063,0.9375 0.9688,-0.9375 0.9688,0 0,-0.9375 0.9687,0 1.9063,0.9375 1.9062,-0.9375 0.9688,0 1.9062,0 0.9688,0 0.9374,0 0.9688,0 0.9375,0.9375 0.9687,0 0.9376,0.9375 0.9687,0.96875 0.9375,0 0,0.9375 0.9688,0 1.9062,0 0.9688,0 0,-0.9375 0.9374,0 0.9688,0 0.031,-0.96875 -0.9687,0 0,-0.9375 0.9687,-0.9375 0.9688,-0.96875 1.9375,-1.875 2.875,-0.9375 0.1875,-1.21875 0.9375,0 0.031,-0.9375 0,-0.96875 0.9687,-0.9375 0.9687,-0.9375 1.2813,-1.0625 2.875,-0.9375 0.9687,-0.9375 0,-1.90625 0.9688,-0.9375 1.9062,-0.96875 2.875,-0.9375 5.7188,-0.9375 1.9062,0 0.9688,0 0.9688,0 1.9062,0 0.9375,0 1.9063,0 2.875,0.9375 0.9687,0 0.9375,0 0,-0.9375 0.9688,0 -0.9688,-0.9375 0,-0.9375 6.5625,0.6875 2.875,-1.875 1.9063,0 -7.5313,-2.15625 5.7187,0 4.7813,1.90625 0.9375,0 0.9688,0 0,0.9375 1.9062,0 2.875,0.9375 0.9375,0 0.9687,0 0,-0.9375 0.9376,0 0.9687,0 0.9687,-0.9375 0.9376,0 0,-0.9375 0.9687,0 0.9375,-0.9375 0.9688,0 1.9062,0 0.9375,-0.96875 0.9687,0 0.9376,0 0.9687,0 0.96875,0.96875 2.84375,0.9375 1.90625,0 0.96875,0 0.96875,0 0.9375,0 0.96875,0 0.9375,0 1.1875,-0.53125 0.96875,0 0.9375,0 0.96875,-0.9375 0,-0.96875 0.9375,0 0.9375,-0.9375 0.96875,-0.9375 0.9375,0 -0.9375,-0.9375 -0.96875,0 0,-0.9375 0.96875,-0.96875 0.9375,-0.9375 1.90625,-0.9375 1.90625,0 2.875,-0.9375 0.9375,0 0.96875,0 0.9375,0 0.9375,0 0.96875,0 0,-0.9375 -0.96875,0 -0.0312,-0.9375 -0.9375,0 0,-1.90625 6.09375,-4.78125 2.03125,-0.5 2.875,0 0.96875,0.9375 0.9375,-0.9375 0,0.9375 0.9375,-0.9375 0.96875,0.9375 0,-0.9375 0.9375,0.9375 0.96875,-0.9375 0.9375,0 0.96875,0 -0.0625,-0.9375 0.96875,0 1.90625,-0.9375 -0.0312,-0.9375 0.96875,0 0.9375,0 0.78125,0.96875 3.8125,0 1.90625,0.9375 1.90625,0 1.9375,0.96875 2.84375,0.9375 2.875,0 0.96875,0.9375 0.9375,0 0.96875,0 0.9375,-0.9375 1.90625,0.96875 -0.28125,0.6875 0.9375,0 0.96875,0 0.9375,0 0.96875,0 0.9375,0 0.9375,0 0.96875,0 0.9375,0 0.96875,0 0,0.96875 0.9375,-0.96875 0.96875,0.96875 0.96875,0 0.9375,0 0.96875,0 0.9375,0 0.96875,0 0.9375,0 0.96875,0 0.9375,0 1.9375,0.9375 -1.9375,-1.875 -0.0625,-0.96875 0,-0.9375 1.875,-1.875 1.90625,-0.9375 0.9375,0 0.9375,0 0.96875,0 1.90625,0 0.9375,0 0.5,-1.1875 0.96875,0.9375 1.90625,0 2.875,0.9375 0.96875,0 0.9375,0 0.9375,0 2.875,0 4.78125,0.96875 1.90625,0 2.875,0.9375 3.8125,0 0.9375,0 0.96875,0 0,0.9375 0.96875,0.0312 2.875,0.9375 0.9375,0 3.8125,0 1,0.9375 1.90625,0.9375 0.96875,0.96875 1,0.9375 0.9375,0 0.96875,0 0.9375,0 1.9375,0.9375 1.90625,0 0.9375,0 0.96875,0 0.9375,-0.9375 0.9375,0 1.9375,0.9375 0.9375,0 1,0.9375 -0.0312,-0.9375 0.9375,0 1.9375,0.9375 0.96875,0 2.875,0.96875 -0.0625,-0.96875 0.96875,0 0.9375,0.0312 -1.9375,-1.90625 -0.0625,-0.9375 2.8125,-1.875 0.90625,-1.875 0.9375,0 0,-0.9375 -0.0312,-0.9375 0.9375,-0.9375 -0.96875,0 -0.0312,-0.9375 0.9375,-0.9375 0.96875,0 3.5,-1.125 1.90625,0 2.84375,0 2.875,0.96875 2.875,0.9375 2.90625,0.9375 1.90625,0.9375 0.96875,0 0.9375,0 0.96875,0 1.90625,0 2.84375,0 1,0.96875 1.90625,0 0.9375,0 0.9375,0 0.96875,0 0.9375,0 0,-0.9375 0.9375,0 0.96875,0 0.9375,0 0.96875,0 -1,-0.96875 -0.0312,-0.9375 -0.96875,-0.9375 -0.96875,0 -0.96875,-0.9375 -0.9375,0 -1,-0.9375 -0.0625,-1.875 1.84375,-2.8125 1.84375,-1.875 0.90625,-0.9375 1.84375,-1.875 3.75,-1.875 2.84375,-0.8125 3.8125,0 4.75,0 2.84375,0.0312 2.875,0.9375 3.84375,0.9375 3.84375,0.9375 1.9375,0.9375 1.875,-0.90625 1.875,0 1.90625,0 2.90625,0.9375 0.90625,-0.9375 1.90625,0 1.84375,-0.9375 1.875,-0.90625 1.90625,0 -0.0625,-0.9375 0.9375,0 0.9375,-0.9375 0.9375,0 0.90625,-0.9375 0.96875,0 0.9375,0 0.90625,-0.9375 4.71875,-0.9375 1.875,-0.9375 0.9375,0 0.9375,-0.9375 0.90625,-0.90625 0.9375,0 1.875,-0.9375 2.84375,0 -0.0625,-0.9375 1.875,0 -0.0312,-0.9375 0.96875,0 2.8125,-0.9375 -0.0625,-0.9375 0.96875,0 -0.0312,-0.9375 0.875,-0.90625 1.875,0 1.875,-0.9375 0.90625,-0.9375 1.875,-0.9375 0.1875,-0.78125 0.9375,0 0.90625,-0.9375 2.75,-1.84375 0.96875,0 0.90625,-0.9375 1.84375,-0.9375 0.90625,-0.9375 0.90625,-0.9375 0.90625,-0.9375 2.8125,-0.90625 1.84375,-0.9375 0.90625,-0.9375 0.90625,-0.9375 0.90625,-0.9375 0.96875,0 0.90625,-0.9375 0.9375,0 0.875,-1.875 1.875,0.0312 0.90625,-0.9375 0.9375,0 1.84375,-0.9375 0.96875,0 1.8125,-1.875 0.9375,0 0.90625,-0.90625 -0.0625,-0.9375 1.875,-0.9375 0.875,-0.9375 0.96875,0 0.90625,-0.9375 0.875,-0.9375 0.96875,0 0.90625,-0.9375 1.84375,-0.90625 -0.96875,0 0.90625,-0.9375 0.9375,0 -0.0625,-0.9375 -0.0312,-0.9375 0.9375,0 -0.125,-1.875 0.90625,-0.9375 1.84375,-0.9375 2.78125,-0.90625 0.9375,0 0.9375,0 -0.0312,-0.9375 0.9375,0 0.28125,-0.28125 0.875,0 0.9375,0 -0.0625,-0.9375 0.96875,0 0.9375,0 -0.0625,-0.9375 0.90625,-0.9375 0.90625,-0.9375 0.875,-0.90625 0.90625,-0.9375 1.90625,0 -0.0625,-0.9375 1.875,0 0.90625,-0.90625 0.90625,-0.9375 0.9375,0 -0.0625,-0.9375 0.90625,-0.9375 -0.0312,-0.9375 0.9375,0 -0.0625,-0.9375 0.9375,0 1.84375,-0.90625 0.90625,-0.9375 -0.9375,0 0.875,-0.9375 0.90625,-0.9375 0.9375,0 0.90625,-0.90625 -0.0625,-0.9375 0.9375,0 0.9375,0 -0.0312,-0.9375 2.1875,-1.09375 -0.0625,-0.9375 1,0.9375 0.90625,-0.90625 -0.0625,-0.9375 0.90625,-0.9375 0.9375,0 0.875,-0.9375 0.96875,0.0312 0.875,-0.9375 -0.0312,-0.9375 0.9375,0 -0.0625,-0.9375 1.84375,-0.9375 0.9375,0.0312 -0.0625,-0.9375 -0.0312,-0.9375 0.9375,0 0.9375,0 0.875,-0.9375 -0.9375,0 0.90625,-0.90625 0.875,-0.9375 0.9375,0 -0.0312,-0.9375 0.9375,0 -0.0625,-0.90625 0.9375,0 -0.0312,-0.9375 0.9375,0 -0.0625,-0.9375 0.9375,0.0312 -0.0625,-0.9375 -0.0625,-0.9375 0.96875,0 -0.0625,-0.9375 0.9375,0 -0.0625,-0.9375 0.9375,0.0625 -0.0625,-0.9375 0.9375,0 -0.0312,-0.9375 1.8125,-0.9375 -0.0625,-0.90625 0.9375,0 -0.0625,-0.9375 0.9375,0 -0.0625,-0.9375 0.96875,0 -0.0625,-0.90625 0.90625,-0.9375 3.1875,-1.96875 0.875,-0.9375 0.875,-0.9375 0.96875,0 -0.0625,-0.90625 0.9375,0 -0.125,-1.875 0.9375,0 0.90625,-0.90625 0.875,-0.9375 -0.0312,-0.9375 0.9375,0 -0.0625,-0.9375 1.8125,-0.90625 1,0.9375 0.875,-0.9375 -0.0625,-0.9375 0.9375,0 0.9375,0.0312 0.9375,0 -0.0312,-0.9375 1.8125,-0.9375 0.875,-0.90625 1.8125,-0.9375 -0.0625,-0.9375 0.875,-0.90625 0.9375,0 0.875,-0.9375 0.9375,0 0.84375,-1.84375 -0.0625,-0.9375 0.9375,0 -0.0312,-0.9375 0.875,-0.90625 0.9375,0 0.9375,0 2.8125,0.0312 0.875,-0.9375 0.9375,0 -0.0625,-0.9375 3.46875,-0.25 -0.0625,-0.9375 0.9375,0 0.875,-0.9375 0.875,-0.90625 -0.0312,-0.9375 0.875,-0.9375 0.9375,0 0.875,-0.90625 1.75,-1.875 -0.0625,-0.9375 1.875,0.0312 -0.0625,-0.9375 0.875,-0.9375 -0.0312,-0.9375 0.84375,-0.90625 0.90625,0 -0.0312,-0.9375 1.8125,-0.90625 0.9375,-0.625 0.9375,0.0625 -0.0625,-0.9375 0.875,-0.9375 0.90625,-0.9375 0.875,-0.90625 -0.0625,-0.9375 0.90625,0 -0.0312,-0.9375 0.9375,0.0312 -0.0625,-0.9375 -0.0625,-0.9375 0.9375,0 -0.0625,-0.9375 0.9375,0.0312 -0.0312,-0.9375 0.84375,-0.9375 1.75,-1.84375 -0.0312,-0.9375 0.9375,0 -0.0625,-0.9375 0.875,-0.90625 0.9375,0 -0.0625,-0.9375 -0.0625,-0.9375 0.9375,0 1.40625,-1.625 -0.0312,-0.9375 1.78125,-0.9375 -0.0625,-0.9375 0.9375,0.0312 -0.0625,-0.9375 0.875,-0.9375 1.75,-1.84375 -0.0625,-0.9375 0.875,-0.9375 -0.0625,-0.90625 0.9375,0 -0.0625,-0.9375 0.875,-0.9375 1.78125,-0.5625 -0.0625,-0.90625 0.9375,0 -0.0625,-0.9375 0.875,-0.9375 1.8125,-0.71875 1.125,-1.375 0.8125,-1.84375 0.875,-0.9375 -0.0625,-0.9375 0.0312,-0.0312 -129.625,0 -0.75,0.78125 0.9375,0.9375 -0.875,0 0.0312,0.9375 -0.875,0.90625 -0.9375,0 -0.875,0.9375 0.96875,0.9375 0.0312,0.9375 0.0625,0.9375 0.0312,0.9375 -1.9375,-1.90625 -1.8125,0.9375 -2.8125,-0.0312 -0.96875,-0.9375 -2.78125,0 -0.0625,-0.9375 -0.96875,-0.9375 -0.0312,-0.9375 -0.9375,-0.0312 0.0312,0.9375 -0.96875,-0.9375 0.0625,0.9375 -1.875,0 -0.9375,-0.0312 -1.84375,0 -0.9375,0 -0.9375,-0.0312 -0.96875,-0.9375 -0.9375,0 -0.96875,-0.9375 -0.0312,-0.9375 -0.9375,0 -0.0312,-0.9375 -0.625,-0.59375 -80.53125,0 z"
     id="rect12377" />
  <path
     style="fill:#ffb612;fill-opacity:1;stroke:#ffb612;stroke-width:1.5;stroke-miterlimit:4;stroke-opacity:1;stroke-dasharray:none"
     d="m 189.5306,247.1875 -0.7188,105.4375 0,1.90625 -0.9374,0 -0.9063,-0.96875 -0.9063,0.9375 -1.8437,-0.0312 0,0.96875 -0.9375,0 -0.9062,-0.96875 -0.9063,0.9375 -0.9375,0 0,0.9375 0,0.9375 -0.9375,0.9375 -0.9063,0 -0.9062,0 -0.9375,-0.0312 -0.9063,-0.9375 -0.9062,-0.0312 -0.9062,0 -0.9376,0.9375 -0.9374,0.9375 -0.9063,0 0,0.9375 -0.9063,-0.9375 -0.9374,-0.0312 -0.9063,0 -1.8437,-0.0312 -0.9063,0.9375 -0.9375,0.96875 -0.9688,0.9375 -0.9374,0.9375 -0.9063,0.9375 -0.031,1.875 0,0.96875 -0.9374,0.9375 0,0.9375 -0.9376,0.9375 -0.9062,0 -0.062,0.9375 -0.9063,0 -1.8437,0.9375 -0.9375,-0.0312 -0.9062,0 -0.9063,0 -0.9375,-0.0312 -1.8438,0 -0.9062,0 -0.9062,-0.0625 -0.031,0.96875 0,0.9375 -0.9375,1.875 0.875,2.875 0.9062,0.9375 0.9063,0.0312 0,0.9375 -0.9375,0.9375 -0.9062,-0.9375 -0.9063,-0.0312 -0.9375,0.9375 -0.9375,1.90625 -1.875,0.90625 -0.9063,0 -0.9374,0 -0.9063,0 -0.9063,-0.0312 -1.8437,0 -0.9063,-0.96875 -0.9374,0 0.031,-0.9375 -0.9375,-0.0312 -0.9063,0 0,-0.9375 -0.9062,-0.96875 0.031,-0.9375 -0.9374,-0.0312 -0.9063,0 0,-0.9375 -0.9063,-0.0312 -0.9062,0 -0.9375,0 -0.9063,-0.0312 -0.9062,-0.9375 -0.9375,-0.0625 -0.9063,0 -1.8437,0 -0.9063,-0.0312 -0.9374,0 -0.9063,0 -0.9063,-0.0312 -0.9374,0 -0.9063,0 -1.875,0.9375 -0.9063,-0.96875 -0.9062,0 -1.8438,0.9375 -1.8437,-0.0312 -0.9063,0 -0.9374,0.9375 -0.9376,0 0,0.9375 -0.9374,0 -0.9063,-0.0312 0,-0.9375 -0.9063,0 -2.5312,-0.0625 -1.875,0.90625 -0.9062,-0.9375 -1.8126,-0.0312 -0.031,0.96875 -0.9062,-0.0312 -0.9376,0 -0.9062,0 -0.031,0.9375 -0.9063,0 -0.9375,0 0.031,-0.96875 -0.9062,0 -0.9375,0 -0.9063,-0.0312 -0.9374,0 -0.9063,-0.96875 -0.9063,0 -0.9062,0 -0.9375,0 -0.875,-1.9375 -0.9063,0 0,-0.9375 -0.875,-0.96875 -0.9374,0 -0.875,-0.96875 -0.9376,0 0.031,-0.96875 -0.9375,0 0.062,-0.9375 -0.9063,-0.0312 -0.062,0.96875 -0.9063,-0.96875 0,0.9375 -0.9375,0 0.062,-0.9375 -0.9375,-0.0312 -0.9062,0 -0.9063,0 -1.8437,-0.0312 -0.9063,0 -0.9375,0 0.062,-0.96875 -0.9375,0 0,0.9375 -0.9375,0 -0.9063,-0.96875 -1.9062,1.90625 -0.9062,-0.0312 -0.9063,0 0,-0.9375 -0.875,-0.0312 -0.9063,-0.9375 0.031,-1.90625 0.062,-0.96875 -0.9375,0 -0.9063,0 -0.9374,-0.0312 0,0.96875 -1.8126,-0.96875 -0.9374,0 -0.9063,-0.0312 -1.875,0.9375 -0.9375,0.9375 -0.9062,0 0.031,-0.9375 0,-0.96875 0.031,-0.9375 0.063,-0.96875 0.9062,0 0.031,-0.9375 0.063,-0.9375 0.062,-0.96875 0,-0.9375 0.031,-0.96875 -0.9063,0 -0.9374,0 -0.9063,-0.0312 0.031,-0.9375 0.031,-0.96875 -0.9062,-0.9375 0.062,-0.96875 -0.9374,0 0.062,-0.9375 -0.9062,-0.0312 0.031,-0.9375 0,-0.96875 0.9376,0.0312 0.062,-0.96875 1.8126,0.0312 0.9374,0 0.9376,-1.875 0.031,-0.96875 0.031,-0.9375 -0.9062,-0.96875 -0.875,-0.96875 0.062,-0.9375 0,-0.96875 0.062,-0.9375 -0.875,-0.96875 -0.9062,-0.96875 0.031,-0.9375 -0.9062,0 -0.9063,-0.96875 -0.9375,0.9375 -0.9375,0.9375 -0.9063,0 0,-0.96875 -0.9062,0 -0.9375,0.9375 -0.875,-0.96875 -0.9375,0 -0.8438,-1.90625 0.031,-0.96875 0.9687,-2.84375 0.031,-0.9375 -0.875,-0.96875 -0.9375,0 -0.9062,0 0.062,-0.96875 -0.9062,-0.96875 -0.875,-0.9375 -0.875,-0.96875 -0.9375,0.9375 -0.9375,0 -1.8125,-0.0312 -0.062,0.9375 -0.9062,0 -0.031,0.96875 -0.9063,-0.0312 0,-0.9375 -0.9062,0 -0.9375,0.9375 -0.9063,-0.0312 -0.9062,0 -0.9062,-0.96875 -0.031,0.96875 -0.9063,-0.0312 -0.062,0.96875 -0.031,1.90625 0,0.9375 -0.062,0.96875 -0.062,0.9375 -0.9063,0 -0.9062,-0.96875 -0.9062,0 -0.031,0.9375 0.875,0.96875 0,0.9375 -0.9375,0 -0.9062,0 -0.9063,0 -0.031,0.9375 0.9063,0 -0.062,0.96875 -0.031,0.9375 -0.063,0.96875 -0.875,-0.96875 -0.9062,0 -0.9062,-0.96875 -0.063,0.9375 -0.9062,0 -0.031,0.9375 -0.031,0.96875 0.9063,0.96875 0.875,0.9375 -0.031,0.96875 0.9375,0 0.875,0.96875 -0.9062,0 -0.9376,0.9375 -0.9687,0.9375 0.875,1.90625 -0.9375,0.9375 -0.9375,0 -0.062,0.96875 -0.9375,0.9375 -0.062,0.9375 -0.9062,0 -0.9063,0 0,-0.96875 -0.875,-0.96875 -0.9063,0 -0.9374,0 0,0.9375 -0.9376,0 -0.9374,0.9375 -0.031,0.96875 -0.062,0.9375 -0.9062,0 -1.875,0.9375 -0.9063,-0.0312 -0.9375,0 -0.9062,0 -0.031,0.9375 -0.875,-0.96875 -0.9687,0.96875 -0.031,0.9375 -0.9063,0 -0.062,0.9375 -1,1.03125 0.875,0.9375 2.6874,0.0312 2.6876,1.90625 -0.031,0.96875 -0.031,0.9375 0.9376,0.0312 -0.063,0.9375 0.9063,0 0.9375,0.0312 0.875,0.9375 -0.031,0.96875 -0.9376,0.9375 0.875,0.96875 -0.062,0.9375 -0.063,0.96875 -0.031,0.9375 0.9062,0.96875 -0.031,0.96875 0.9062,0 -0.9374,0.9375 0.9062,0 0.9062,0.96875 1.8438,0.0312 1.7812,1.90625 -0.031,0.96875 -0.062,0.9375 0.9063,0 -0.063,0.96875 -0.031,0.9375 0.9375,0.0312 -0.062,0.9375 0.9062,0.96875 -0.031,0.9375 1.8438,0.0312 1.75,2.875 -0.031,0.9375 -0.062,0.96875 0.875,1.90625 0.875,0.96875 -0.062,0.9375 -0.9375,0.9375 0.9062,0.0312 0,0.9375 0.9063,0 -0.031,0.96875 -0.031,0.9375 0.9375,0.0312 -0.062,0.9375 -0.031,0.96875 0.9374,0 -0.062,0.9375 0.875,0.96875 0.9062,0.96875 -0.031,0.9375 -0.063,0.96875 0.9063,0.9375 -0.031,0.96875 0.9063,0.96875 -0.031,0.9375 0.9063,0 -0.062,0.96875 -0.062,0.9375 0,0.96875 -0.031,0.9375 0.9063,0 -0.031,0.96875 0,0.9375 -0.062,0.96875 1.7812,1.90625 -0.031,0.96875 -0.063,0.9375 0.875,1.90625 -0.031,0.96875 0,0.9375 -0.062,0.96875 -0.031,0.9375 0.8438,2.875 0.9375,0 -0.031,0.9375 -0.9687,0 0.9063,0.96875 -0.031,0.9375 0.9063,0.96875 -0.063,0.96875 -0.031,0.9375 -0.031,0.9375 0.9374,0.0312 -0.062,0.9375 -0.031,0.96875 0.9375,0 0.875,1.90625 -0.062,0.9375 -0.062,0.96875 0.9688,0 -0.063,0.96875 -0.031,0.9375 0.9062,0.96875 -0.9374,0 0.9062,0.9375 -0.031,0.96875 0,0.9375 -0.063,0.96875 0.9063,0 0,0.9375 0.9063,0.0312 -0.031,0.9375 0,0.9375 0.875,0.96875 -0.9063,0 -0.062,0.9375 0.9374,0.0312 -0.062,0.9375 0.9062,0.96875 -0.031,0.9375 -0.031,0.96875 0.9375,0 -0.031,0.9375 -0.063,0.96875 -0.062,0.9375 0.9374,0 -0.031,0.96875 0,0.9375 0.9062,0.0312 -0.031,0.9375 0.9062,0.96875 0,0.9375 0.9063,0.96875 0.875,0.96875 0,0.9375 -0.062,0.9375 0.9375,0.0312 0.875,1.90625 0.9375,0 -0.031,0.9375 -0.031,0.96875 1.7813,1.90625 -0.9376,0.9375 0.9063,0.96875 0,0.96875 0.875,0 0,0.9375 0.9063,0 -0.9376,0.96875 0.9376,0 -0.031,0.9375 0.9375,0.0312 1.8125,1.90625 -0.062,1.90625 -0.062,0.9375 0.9063,0.96875 0,0.9375 0.9062,0.96875 -0.031,0.9375 0.9374,0.0312 0.875,1.90625 -0.031,0.9375 0,0.96875 0.9062,0 0.9376,0.96875 0.875,1.90625 0.9374,0 -0.062,0.9375 0.9062,0.96875 -0.031,0.9375 0.9374,0.0312 0,0.9375 -0.062,0.9375 -0.031,0.96875 0.9375,0 -0.062,0.96875 0.9375,0 -0.031,0.9375 0,0.96875 0.9374,0 -0.031,0.9375 1.8125,2.875 0.9063,0.96875 0.9062,0.9375 0.9062,0.96875 1.8438,0.96875 0,0.9375 0.9062,0 0,0.96875 -0.9687,0.9375 1.8437,1.90625 0.875,1.90625 1.8438,1.90625 1.8438,0.96875 -0.063,0.96875 0.9063,0.9375 0,0.96875 1.8437,0.9375 -0.062,0.96875 1.875,0.9375 1.8124,2.875 0.9376,0 -0.9688,0.96875 0.9062,0.9375 0.9376,0 0,0.96875 0.9062,0.9375 -0.031,0.96875 0.9062,1.90625 0.062,0 L 347.3605,358.00075 189.5306,247.1875 z"
     id="path12385" />
  <path
     style="fill:#000000;fill-opacity:1;stroke:#000000;stroke-width:1.5;stroke-miterlimit:4;stroke-opacity:1;stroke-dasharray:none"
     d="m 189.1244,304.125 -0.3126,48.5 0,1.90625 -0.9374,0 -0.9063,-0.96875 -0.9063,0.9375 -1.8437,-0.0312 0,0.96875 -0.9375,0 -0.9062,-0.96875 -0.9063,0.9375 -0.9375,0 0,0.9375 0,0.9375 -0.9375,0.9375 -0.9063,0 -0.9062,0 -0.9375,-0.0312 -0.9063,-0.9375 -0.9062,-0.0312 -0.9062,0 -0.9376,0.9375 -0.9374,0.9375 -0.9063,0 0,0.9375 -0.9063,-0.9375 -0.9374,-0.0312 -0.9063,0 -1.8437,-0.0312 -0.9063,0.9375 -0.9375,0.96875 -0.9688,0.9375 -0.9374,0.9375 -0.9063,0.9375 -0.031,1.875 0,0.96875 -0.9374,0.9375 0,0.9375 -0.9376,0.9375 -0.9062,0 -0.062,0.9375 -0.9063,0 -1.8437,0.9375 -0.9375,-0.0312 -0.9062,0 -0.9063,0 -0.9375,-0.0312 -1.8438,0 -0.9062,0 -0.9062,-0.0625 -0.031,0.96875 0,0.9375 -0.9375,1.875 0.875,2.875 0.9062,0.9375 0.9063,0.0312 0,0.9375 -0.9375,0.9375 -0.9062,-0.9375 -0.9063,-0.0312 -0.9375,0.9375 -0.9375,1.90625 -1.875,0.90625 -0.9063,0 -0.9374,0 -0.9063,0 -0.9063,-0.0312 -1.8437,0 -0.9063,-0.96875 -0.9374,0 0.031,-0.9375 -0.9375,-0.0312 -0.9063,0 0,-0.9375 -0.9062,-0.96875 0.031,-0.9375 -0.9374,-0.0312 -0.9063,0 0,-0.9375 -0.9063,-0.0312 -0.9062,0 -0.9375,0 -0.9063,-0.0312 -0.9062,-0.9375 -0.9375,-0.0625 -0.9063,0 -1.8437,0 -0.9063,-0.0312 -0.9374,0 -0.9063,0 -0.9063,-0.0312 -0.9374,0 -0.9063,0 -1.875,0.9375 -0.9063,-0.96875 -0.9062,0 -1.8438,0.9375 -1.8437,-0.0312 -0.9063,0 -0.9374,0.9375 -0.9376,0 0,0.9375 -0.9374,0 -0.9063,-0.0312 0,-0.9375 -0.9063,0 -2.5312,-0.0625 -1.875,0.90625 -0.9062,-0.9375 -1.8126,-0.0312 -0.031,0.96875 -0.9062,-0.0312 -0.9376,0 -0.9062,0 -0.031,0.9375 -0.9063,0 -0.9375,0 0.031,-0.96875 -0.9062,0 -0.9375,0 -0.9063,-0.0312 -0.9374,0 -0.9063,-0.96875 -0.9063,0 -0.9062,0 -0.9375,0 -0.875,-1.9375 -0.9063,0 0,-0.9375 -0.875,-0.96875 -0.9374,0 -0.875,-0.96875 -0.9376,0 0.031,-0.96875 -0.9375,0 0.062,-0.9375 -0.9063,-0.0312 -0.062,0.96875 -0.9063,-0.96875 0,0.9375 -0.9375,0 0.062,-0.9375 -0.9375,-0.0312 -0.9062,0 -0.9063,0 -1.8437,-0.0312 -0.9063,0 -0.9375,0 0.062,-0.96875 -0.9375,0 0,0.9375 -0.9375,0 -0.9063,-0.96875 -1.9062,1.90625 -0.9062,-0.0312 -0.9063,0 0,-0.9375 -0.875,-0.0312 -0.9063,-0.9375 0.031,-1.90625 0.062,-0.96875 -0.9375,0 -0.9063,0 -0.9374,-0.0312 0,0.96875 -1.8126,-0.96875 -0.9374,0 -0.9063,-0.0312 -1.875,0.9375 -0.9375,0.9375 -0.9062,0 0.031,-0.9375 0,-0.96875 0.031,-0.9375 0.063,-0.96875 0.9062,0 0.031,-0.9375 0.063,-0.9375 0.062,-0.96875 0,-0.9375 0.031,-0.96875 -0.9063,0 -0.9374,0 -0.9063,-0.0312 0.031,-0.9375 0.031,-0.96875 -0.9062,-0.9375 0.062,-0.96875 -0.9374,0 0.062,-0.9375 -0.9062,-0.0312 0.031,-0.9375 0,-0.96875 0.9376,0.0312 0.062,-0.96875 1.8126,0.0312 0.9374,0 0.9376,-1.875 0.031,-0.96875 0.031,-0.9375 -0.9062,-0.96875 -0.875,-0.96875 0.062,-0.9375 0,-0.96875 0.062,-0.9375 -0.875,-0.96875 -0.9062,-0.96875 0.031,-0.9375 -0.9062,0 -0.9063,-0.96875 -0.9375,0.9375 -0.9375,0.9375 -0.9063,0 0,-0.96875 -0.9062,0 -0.9375,0.9375 -0.875,-0.96875 -0.9375,0 -0.8438,-1.90625 0.031,-0.96875 0.9687,-2.84375 0.031,-0.9375 -0.875,-0.96875 -0.9375,0 -0.9062,0 0.062,-0.96875 -0.9062,-0.96875 -0.875,-0.9375 -0.875,-0.96875 -0.9375,0.9375 -0.9375,0 -1.8125,-0.0312 -0.062,0.9375 -0.9062,0 -0.031,0.96875 -0.9063,-0.0312 0,-0.9375 -0.9062,0 -0.9375,0.9375 -0.9063,-0.0312 -0.9062,0 -0.9062,-0.96875 -0.031,0.96875 -0.9063,-0.0312 -0.062,0.96875 -0.031,1.90625 0,0.9375 -0.062,0.96875 -0.062,0.9375 -0.9063,0 -0.9062,-0.96875 -0.9062,0 -0.031,0.9375 0.875,0.96875 0,0.9375 -0.9375,0 -0.9062,0 -0.9063,0 -0.031,0.9375 0.9063,0 -0.062,0.96875 -0.031,0.9375 -0.063,0.96875 -0.875,-0.96875 -0.9062,0 -0.9062,-0.96875 -0.063,0.9375 -0.9062,0 -0.031,0.9375 -0.031,0.96875 0.9063,0.96875 0.875,0.9375 -0.031,0.96875 0.9375,0 0.875,0.96875 -0.9062,0 -0.9376,0.9375 -0.9687,0.9375 0.875,1.90625 -0.9375,0.9375 -0.9375,0 -0.062,0.96875 -0.9375,0.9375 -0.062,0.9375 -0.9062,0 -0.9063,0 0,-0.96875 -0.875,-0.96875 -0.9063,0 -0.9374,0 0,0.9375 -0.9376,0 -0.9374,0.9375 -0.031,0.96875 -0.062,0.9375 -0.9062,0 -1.875,0.9375 -0.9063,-0.0312 -0.9375,0 -0.9062,0 -0.031,0.9375 -0.875,-0.96875 -0.9687,0.96875 -0.031,0.9375 -0.9063,0 -0.062,0.9375 -1,1.03125 0.875,0.9375 2.6874,0.0312 2.6876,1.90625 -0.031,0.96875 -0.031,0.9375 0.9376,0.0312 -0.063,0.9375 0.9063,0 0.9375,0.0312 0.875,0.9375 -0.031,0.96875 -0.9376,0.9375 0.875,0.96875 -0.062,0.9375 -0.063,0.96875 -0.031,0.9375 0.9062,0.96875 -0.031,0.96875 0.9062,0 -0.9374,0.9375 0.9062,0 0.9062,0.96875 1.8438,0.0312 1.7812,1.90625 -0.031,0.96875 -0.062,0.9375 0.9063,0 -0.063,0.96875 -0.031,0.9375 0.9375,0.0312 -0.062,0.9375 0.9062,0.96875 -0.031,0.9375 1.8438,0.0312 1.75,2.875 -0.031,0.9375 -0.062,0.96875 0.875,1.90625 0.875,0.96875 -0.062,0.9375 -0.9375,0.9375 0.9062,0.0312 0,0.9375 0.9063,0 -0.031,0.96875 -0.031,0.9375 0.9375,0.0312 -0.062,0.9375 -0.031,0.96875 0.9374,0 -0.062,0.9375 0.875,0.96875 0.9062,0.96875 -0.031,0.9375 -0.063,0.96875 0.9063,0.9375 -0.031,0.96875 0.9063,0.96875 -0.031,0.9375 0.9063,0 -0.062,0.96875 -0.062,0.9375 0,0.96875 -0.031,0.9375 0.9063,0 -0.031,0.96875 0,0.9375 -0.062,0.96875 1.7812,1.90625 -0.031,0.96875 -0.063,0.9375 0.875,1.90625 -0.031,0.96875 0,0.9375 -0.062,0.96875 -0.031,0.9375 0.8438,2.875 0.9375,0 -0.031,0.9375 -0.9687,0 0.9063,0.96875 -0.031,0.9375 0.9063,0.96875 -0.063,0.96875 -0.031,0.9375 -0.031,0.9375 0.9374,0.0312 -0.062,0.9375 -0.031,0.96875 0.9375,0 0.875,1.90625 -0.062,0.9375 -0.062,0.96875 0.9688,0 -0.063,0.96875 -0.031,0.9375 0.9062,0.96875 -0.9374,0 0.9062,0.9375 -0.031,0.96875 0,0.9375 -0.063,0.96875 0.9063,0 0,0.9375 0.9063,0.0312 -0.031,0.9375 0,0.9375 0.875,0.96875 -0.9063,0 -0.062,0.9375 0.9374,0.0312 -0.062,0.9375 0.9062,0.96875 -0.031,0.9375 -0.031,0.96875 0.9375,0 -0.031,0.9375 -0.063,0.96875 -0.062,0.9375 0.9374,0 -0.031,0.96875 0,0.9375 0.9062,0.0312 -0.031,0.9375 0.9062,0.96875 0,0.9375 0.9063,0.96875 0.875,0.96875 0,0.9375 -0.062,0.9375 0.9375,0.0312 0.875,1.90625 0.9375,0 -0.031,0.9375 -0.031,0.96875 1.7813,1.90625 -0.9376,0.9375 0.9063,0.96875 0,0.96875 0.875,0 0,0.9375 0.9063,0 -0.9376,0.96875 0.9376,0 -0.031,0.9375 0.9375,0.0312 1.8125,1.90625 -0.062,1.90625 -0.062,0.9375 0.9063,0.96875 0,0.9375 0.9062,0.96875 -0.031,0.9375 0.9374,0.0312 0.875,1.90625 -0.031,0.9375 0,0.96875 0.9062,0 0.9376,0.96875 0.875,1.90625 0.9374,0 -0.062,0.9375 0.9062,0.96875 0,0.34375 199.5625,-140.15625 -76.7187,-53.875 z"
     id="path12387" />
</svg>
