<?xml version="1.0" encoding="UTF-8" standalone="no"?>
<svg
   xmlns:dc="http://purl.org/dc/elements/1.1/"
   xmlns:cc="http://creativecommons.org/ns#"
   xmlns:rdf="http://www.w3.org/1999/02/22-rdf-syntax-ns#"
   xmlns:svg="http://www.w3.org/2000/svg"
   xmlns="http://www.w3.org/2000/svg"
   xmlns:sodipodi="http://sodipodi.sourceforge.net/DTD/sodipodi-0.dtd"
   xmlns:inkscape="http://www.inkscape.org/namespaces/inkscape"
   version="1.1"
   width="1000.0093"
   height="787.93201"
   viewBox="0 0 20.000183 15.758641"
   id="svg2"
   inkscape:version="0.91 r13725"
   sodipodi:docname="Flag_map_of_South_Sudan.svg">
  <metadata
     id="metadata22">
    <rdf:RDF>
      <cc:Work
         rdf:about="">
        <dc:format>image/svg+xml</dc:format>
        <dc:type
           rdf:resource="http://purl.org/dc/dcmitype/StillImage" />
        <dc:title>Flag of South Sudan</dc:title>
      </cc:Work>
    </rdf:RDF>
  </metadata>
  <defs
     id="defs20" />
  <sodipodi:namedview
     pagecolor="#ffffff"
     bordercolor="#666666"
     borderopacity="1"
     objecttolerance="10"
     gridtolerance="10"
     guidetolerance="10"
     inkscape:pageopacity="0"
     inkscape:pageshadow="2"
     inkscape:window-width="1600"
     inkscape:window-height="837"
     id="namedview18"
     showgrid="false"
     inkscape:zoom="0.99094792"
     inkscape:cx="434.92808"
     inkscape:cy="427.39084"
     inkscape:window-x="-8"
     inkscape:window-y="-8"
     inkscape:window-maximized="1"
     inkscape:current-layer="svg2"
     fit-margin-top="0"
     fit-margin-left="0"
     fit-margin-right="0"
     fit-margin-bottom="0" />
  <title
     id="title4">Flag of South Sudan</title>
  <path
     style="fill:#ffffff;stroke:#da121a;stroke-width:0.036;stroke-miterlimit:4;stroke-dasharray:none;stroke-opacity:1"
     d="m 8.6925155,4.7203615 -0.042227,0.046211 0,6.2716405 10.7270315,0 c -0.0034,-0.01965 -0.0082,-0.03908 -0.0062,-0.06055 0.003,-0.02729 0.01516,-0.05005 0.0182,-0.07582 0.0046,-0.03487 -0.02881,-0.06521 -0.02578,-0.09856 l -0.01516,-0.01211 c 0,-0.02274 -0.0015,-0.05003 0.006,-0.07125 0.006,-0.0061 0.02579,-0.0061 0.03488,-0.0061 0.0076,-0.0045 0.01973,-0.0182 0.02125,-0.02578 0.003,-0.01971 0.0015,-0.04247 0.0076,-0.06219 0.0046,-0.01365 0.01359,-0.01821 0.01059,-0.03488 -0.003,-0.01516 -0.01973,-0.05307 -0.0076,-0.06672 0.05459,-0.03487 0.02729,-0.06519 0.05004,-0.08035 0.006,-0.02578 -0.01213,-0.05912 -0.03484,-0.07125 -0.03033,-0.01668 -0.05004,-0.05005 -0.05762,-0.05309 l -0.0076,-0.0076 0.02273,-0.04699 -0.01969,-0.03035 c -0.01216,-0.02729 -0.0167,-0.04546 -0.05309,-0.05 l -0.0046,-0.003 -0.0015,-0.0061 c -0.0046,-0.0091 -0.01669,-0.02125 -0.03488,-0.02731 -0.003,-0.01668 -0.01968,-0.03487 -0.03484,-0.04246 -0.05004,-0.02123 -0.130428,-0.02124 -0.186524,0.0061 -0.0092,0.0045 -0.05305,-0.05914 -0.05305,-0.05914 l -0.03941,-0.02121 c 0.0015,0 0.003,0.0015 0.006,0.0015 -0.006,-0.0045 -0.01217,-0.01211 -0.01359,-0.01969 -0.0015,0.0015 -0.0015,0.0045 -0.0015,0.0061 l -0.0015,-0.045508 c -0.006,-0.010614 -0.02123,-0.025756 -0.03336,-0.028789 -0.05762,-0.016679 -0.127391,-0.1485914 -0.194102,-0.074297 -0.0092,0 -0.01817,0.00154 -0.02726,0.00305 -0.0182,-0.00303 -0.03487,-0.010639 -0.05762,-0.013672 0.0046,-0.016679 0.006,-0.031829 0,-0.046992 0.003,-0.0091 0.003,-0.010604 0.0046,-0.022734 l -0.0015,-0.00457 c 0.01358,-0.021228 0.01667,-0.050016 -0.003,-0.069727 -0.01971,-0.018195 -0.0015,-0.089463 -0.08188,-0.083398 -0.04094,-0.018195 -0.05306,-0.019727 -0.05609,-0.019727 l 0.04395,-0.015156 c 0.01216,-0.021226 -0.01818,-0.053085 -0.04547,-0.077344 l -0.01059,-0.00758 c -0.01358,-0.00607 -0.02881,-0.0091 -0.04246,-0.0091 -0.02123,-0.015163 -0.178918,-0.057617 -0.206211,-0.057617 l -0.02121,0 -0.01219,0 -0.0046,-0.00453 c -0.0092,-0.00758 -0.01668,-0.015162 -0.02578,-0.024258 -0.0015,-0.015163 -0.01519,-0.040927 -0.03035,-0.046992 -0.03942,-0.016679 -0.04395,-0.01669 -0.06062,-0.010625 -0.0076,-0.019712 -0.02729,-0.043989 -0.05004,-0.053086 -0.0015,-0.010614 -0.0046,-0.0197 -0.01059,-0.030312 l 0.0092,0.012148 -0.0046,-0.0091 c 0.01216,-0.018195 0.0092,-0.051563 -0.0046,-0.068242 l 0,-0.033359 -0.01516,-0.022734 -0.02578,-0.019726 c -0.02881,-0.022744 -0.02883,-0.018201 -0.06219,-0.025781 -0.01971,-0.015163 -0.03184,-0.027269 -0.05762,-0.036367 l -0.0015,-0.00305 c -0.01516,-0.039422 -0.06672,-0.08037 -0.115234,-0.0925 -0.0046,-0.00607 -0.0092,-0.010615 -0.01359,-0.01668 0.03033,-0.047002 0.0092,-0.1091528 0.01359,-0.1773828 0.0015,-0.022744 -0.01821,-0.060632 -0.04398,-0.1030858 -0.02881,-0.043971 -0.0652,-0.090988 -0.09098,-0.1016016 -0.0015,-0.010614 -0.01516,-0.03031 -0.02578,-0.037891 -0.02426,-0.094006 -0.02275,-0.083417 -0.0925,-0.095547 -0.04246,0.00303 -0.05305,0.00152 -0.05305,0.00152 -0.0015,-0.00152 -0.02275,-0.037912 -0.02426,-0.042461 L 17.3924,8.3773537 c 0.003,0.00152 0.006,0.00301 0.0076,0.00301 -0.0015,-0.00152 -0.0046,-0.00455 -0.0076,-0.0091 L 17.38181,8.3576307 C 17.36513,8.3364027 17.34392,8.3288337 17.32724,8.3106387 17.30298,8.2894107 17.28932,8.2742537 17.259,8.2788027 l -0.02121,-0.010625 -0.02277,-0.012148 c -0.01216,-0.022743 -0.03184,-0.046992 -0.03184,-0.046992 l -0.006,-0.00605 c -0.0076,-0.00607 -0.02274,-0.013648 -0.04094,-0.01668 l -0.0046,0 c -0.01216,-0.01213 -0.01971,-0.018225 -0.02426,-0.022773 l 0.01668,0.012148 -0.0076,-0.0091 c -0.003,-0.00303 -0.006,-0.00758 -0.0092,-0.0091 -0.01216,-0.019712 -0.0273,-0.036381 -0.05156,-0.039414 l -0.02121,0.00605 c -0.0046,-0.00152 -0.0076,-0.0015 -0.01219,-0.00301 -0.01358,-0.018195 -0.03789,-0.022745 -0.06973,-0.01668 -0.02274,-0.010614 -0.04248,-0.0091 -0.06219,0.00758 -0.0076,0.00152 -0.01514,0.00303 -0.01969,0.00758 -0.0092,-0.00455 -0.01671,-0.00758 -0.02277,-0.0091 -0.003,-0.00152 -0.0046,-0.00455 -0.0076,-0.00758 0,0.00303 -0.003,0.00455 -0.0015,0.00758 l -0.01219,-0.018203 c -0.0015,-0.00758 -0.01058,-0.022757 -0.01516,-0.027305 -0.03487,-0.00607 -0.05459,-0.00453 -0.0652,-0.00301 l 0.01359,-0.00305 0.01059,0.00152 -0.01219,-0.00453 C 16.734,8.0301337 16.69458,8.0149597 16.66728,8.0286057 16.6415,8.0134427 16.59451,8.0013207 16.57177,8.0543867 l -0.0076,0.00301 c -0.02426,-0.00758 -0.05459,-0.00301 -0.0743,0.012148 -0.0182,0 -0.02727,0.00454 -0.03789,0.013633 -0.003,-0.00303 -0.006,-0.00607 -0.0092,-0.00758 l -0.003,-0.00152 c -0.0092,-0.022743 -0.03033,-0.037897 -0.05762,-0.039414 -0.03487,-0.028808 -0.08947,-0.069726 -0.133438,-0.053047 -0.01516,-0.00758 -0.02274,-0.013655 -0.04094,-0.018203 -0.0046,-0.00303 -0.0092,-0.00607 -0.01356,-0.0091 0,0 -0.0015,0.00301 -0.0015,0.00453 l -0.02426,-0.019688 c -0.01971,-0.00758 -0.05002,-0.00456 -0.06215,0.013633 -0.006,0.00152 -0.01058,0.00301 -0.01668,0.00605 l -0.01059,0.00152 -0.01359,0 c -0.01819,-0.024261 -0.0455,-0.034842 -0.07582,-0.018164 l -0.006,0.00148 c -0.01516,-0.033357 -0.05005,-0.060621 -0.06824,-0.092461 0.03184,-0.028808 0.003,-0.05763 -0.0015,-0.084922 0,-0.0091 -2e-5,-0.019693 -0.0015,-0.028789 0.03487,-0.019712 0.05005,-0.028827 0.05914,-0.069766 l -0.0068,-0.028516 c 4.26e-4,-5.12e-4 9.36e-4,-0.00142 0.0022,-0.00332 0.01358,-0.00303 0.02881,-0.00757 0.04094,-0.013633 0.02729,-0.010614 0.03794,-0.053099 0.03945,-0.080391 0.04094,0.027292 0.08339,-0.025765 0.06672,-0.063672 0,-0.00455 -0.0015,-0.010615 -0.0015,-0.01668 0.01516,0.00152 0.03034,0.00303 0.04551,-0.00152 l 0.0092,-0.00301 c 0.0092,-0.00455 0.01518,-0.012145 0.02125,-0.019727 0.01516,0.00152 0.03184,-0.00304 0.04094,-0.018203 0.02729,-0.036389 0.01217,-0.043956 0.003,-0.078828 -0.0046,-0.01213 -0.0092,-0.02274 -0.01219,-0.031836 -0.0015,-0.0091 -0.0015,-0.022753 -0.0046,-0.034883 0.05004,-0.040938 0.07733,-0.1258654 0,-0.1516406 0.02881,-0.01213 0.05002,-0.040939 0.04547,-0.074297 0.04094,-0.034873 0.04854,-0.124313 -0.01969,-0.1197656 0.02426,-0.00607 0.0394,-0.016681 0.04547,-0.033359 0.01358,-0.00607 0.02882,-0.018181 0.04398,-0.037891 0.02578,0.030324 0.06367,0.021211 0.08793,-0.00305 0.0182,0.00758 0.0379,0.00912 0.05609,0.00609 0.0015,0 0.0046,0.0015 0.0092,0.00301 0.006,0.00607 0.01817,0.012131 0.02879,0.01668 0.02729,0.019712 0.07582,0.030326 0.09402,-0.00758 0.0015,-0.00303 0.006,-0.00607 0.0092,-0.0091 0.01358,0.00607 0.04096,0.01516 0.06977,-0.00152 l 0.0182,-0.018203 c 0.03184,-0.00607 0.04246,-0.0091 0.05914,-0.031836 0.01216,0.00455 0.02576,0.00609 0.03789,0.00609 l 0.0046,0.00301 c 0.0092,0.00303 0.01969,0.00457 0.03031,0.00305 0.03336,0.045487 0.09098,0.056101 0.139493,0 0.006,0.00303 0.01217,0.00607 0.0182,0.00758 0.0092,0.00758 0.01821,0.012131 0.0273,0.01668 l 0.0092,0.00453 c 0.006,0.022744 0.01216,0.051545 0.02426,0.072773 l -0.006,-0.0091 -0.003,0.015195 c 0.0046,0.010614 0.01056,0.03031 0.02121,0.037891 0.02578,0.019712 0.06066,0.022734 0.06066,0.022734 l -0.0092,0 0.02426,0.012148 0.0092,0 c 0.02123,0 0.03639,1.8e-6 0.04852,-0.00758 l 0.03031,-0.039414 c 0.0076,-0.00758 0.02125,-0.02125 0.03035,-0.02125 0.0046,-0.0091 0.01668,-0.025771 0.02578,-0.031836 l 0.01215,-0.00152 0.0076,-0.00758 0.0046,-0.00152 c 0.0092,-0.00758 0.01971,-0.028794 0.02426,-0.037891 0.01216,-0.00758 0.02124,-0.018217 0.03488,-0.02125 l 0.0076,0.00305 c 0.01058,-0.00607 0.03181,-0.012128 0.04394,-0.00758 l 0.0046,-0.00457 -0.0092,-0.015156 0.01215,-0.015156 0.0015,-0.013633 0.01516,-0.00457 c 0.0015,-0.040938 0.03187,-0.037904 0.06371,-0.040937 0.0076,-0.010614 0.02577,-0.025758 0.03941,-0.021211 0.0046,0.00455 0.01356,0.00758 0.01969,0.00758 0.006,-0.00455 0.02125,-0.00911 0.02883,-0.010625 l 0.01059,0.015156 c 0.006,0.00303 0.01668,0.00457 0.02426,0.00305 l 0.01516,-0.012149 0.02121,0.015156 c 0.02426,0 0.03033,-0.02879 0.03488,-0.045469 0.03033,-0.016679 0.05461,-0.040928 0.07887,-0.063672 0.006,-0.00607 0.03031,-0.00455 0.03789,-0.00758 0.01216,-0.00303 0.03184,-0.03184 0.04094,-0.040938 0.0076,-0.0091 0.0167,-0.019708 0.02125,-0.031836 l 0.01356,-0.0091 c 0.01819,-0.09249 0.0092,-0.2972092 0.0046,-0.4003126 l 0,-0.012109 c 0.0015,-0.09249 0.0076,-0.186494 0.0046,-0.2789842 -0.0015,-0.025775 -0.006,-0.053092 -0.0076,-0.078867 0,-0.028808 0.0046,-0.051544 0,-0.080352 l 0,-0.00605 c -0.0046,-0.1031038 -0.01819,-0.204709 -0.02426,-0.3078124 -0.006,-0.1258482 -0.01216,-0.2501686 -0.0182,-0.3760156 -0.003,-0.00607 -0.003,-0.021214 -0.006,-0.037891 l -0.0012,4e-5 -0.330547,-0.036406 c 0,0 0.0035,-0.1052696 0.0063,-0.1984766 l -8.8312493,0 z"
     id="rect8"
     inkscape:connector-curvature="0" />
  <path
     style="fill:#da121a"
     d="m 9.5749765,5.5100881 4.1035545,2.3691796 -4.1035937,2.3692183 9.8081247,0 -0.009,-0.01383 c -0.01216,-0.02729 -0.0167,-0.04546 -0.05309,-0.05 l -0.0046,-0.003 -0.0015,-0.0061 c -0.0046,-0.0091 -0.01669,-0.02125 -0.03488,-0.02731 -0.003,-0.01668 -0.01968,-0.03487 -0.03484,-0.04246 -0.05004,-0.02123 -0.130428,-0.02124 -0.186524,0.0061 -0.0092,0.0045 -0.05305,-0.05914 -0.05305,-0.05914 l -0.03941,-0.02121 c 0.0015,0 0.003,0.0015 0.006,0.0015 -0.006,-0.0045 -0.01217,-0.01211 -0.01359,-0.01969 -0.0015,0.0015 -0.0015,0.0045 -0.0015,0.0061 l -0.0015,-0.045508 c -0.006,-0.010614 -0.02123,-0.025756 -0.03336,-0.028789 -0.05762,-0.016679 -0.127391,-0.1485914 -0.194102,-0.074297 -0.0092,0 -0.01817,0.00154 -0.02726,0.00305 -0.0182,-0.00303 -0.03487,-0.010639 -0.05762,-0.013672 0.0046,-0.016679 0.006,-0.031829 0,-0.046992 0.003,-0.0091 0.003,-0.010604 0.0046,-0.022734 l -0.0015,-0.00457 c 0.01358,-0.021228 0.01667,-0.050016 -0.003,-0.069727 -0.01971,-0.018195 -0.0015,-0.089463 -0.08188,-0.083398 -0.04094,-0.018195 -0.05306,-0.019727 -0.05609,-0.019727 l 0.04395,-0.015156 C 18.561476,9.5767 18.531136,9.544841 18.503846,9.520582 l -0.01059,-0.00758 c -0.01358,-0.00607 -0.02881,-0.0091 -0.04246,-0.0091 -0.02123,-0.015163 -0.178918,-0.057617 -0.206211,-0.057617 l -0.02121,0 -0.01219,0 -0.0046,-0.00453 c -0.0092,-0.00758 -0.01668,-0.015162 -0.02578,-0.024258 -0.0015,-0.015163 -0.01519,-0.040927 -0.03035,-0.046992 -0.03942,-0.016679 -0.04395,-0.01669 -0.06062,-0.010625 -0.0076,-0.019712 -0.02729,-0.043989 -0.05004,-0.053086 -0.0015,-0.010614 -0.0046,-0.0197 -0.01059,-0.030312 l 0.0092,0.012148 -0.0046,-0.0091 c 0.01216,-0.018195 0.0092,-0.051563 -0.0046,-0.068242 l 0,-0.033359 -0.01516,-0.022734 -0.02578,-0.019726 c -0.02881,-0.022744 -0.02883,-0.018201 -0.06219,-0.025781 -0.01971,-0.015163 -0.03184,-0.027269 -0.05762,-0.036367 l -0.0015,-0.00305 c -0.01516,-0.039422 -0.06672,-0.08037 -0.115234,-0.0925 -0.0046,-0.00607 -0.0092,-0.010615 -0.01359,-0.01668 0.03033,-0.047003 0.0092,-0.1091528 0.01359,-0.1773828 0.0015,-0.022744 -0.01821,-0.060632 -0.04398,-0.1030858 -0.02881,-0.043971 -0.0652,-0.090988 -0.09098,-0.1016016 -0.0015,-0.010614 -0.01516,-0.03031 -0.02578,-0.037891 -0.02426,-0.094006 -0.02275,-0.083417 -0.0925,-0.095547 -0.04246,0.00303 -0.05305,0.00152 -0.05305,0.00152 -0.0015,-0.00152 -0.02275,-0.037912 -0.02426,-0.042461 L 17.3924,8.3773537 c 0.003,0.00152 0.006,0.00301 0.0076,0.00301 -0.0015,-0.00152 -0.0046,-0.00455 -0.0076,-0.0091 L 17.38181,8.3576307 C 17.36513,8.3364027 17.34392,8.3288337 17.32724,8.3106387 17.30298,8.2894107 17.28932,8.2742537 17.259,8.2788027 l -0.02121,-0.010625 -0.02277,-0.012148 c -0.01216,-0.022743 -0.03184,-0.046992 -0.03184,-0.046992 l -0.006,-0.00605 c -0.0076,-0.00607 -0.02274,-0.013648 -0.04094,-0.01668 l -0.0046,0 c -0.01216,-0.01213 -0.01971,-0.018225 -0.02426,-0.022773 l 0.01668,0.012148 -0.0076,-0.0091 c -0.003,-0.00303 -0.006,-0.00758 -0.0092,-0.0091 -0.01216,-0.019712 -0.0273,-0.036381 -0.05156,-0.039414 l -0.02121,0.00605 c -0.0046,-0.00152 -0.0076,-0.0015 -0.01219,-0.00301 -0.01358,-0.018195 -0.03789,-0.022745 -0.06973,-0.01668 -0.02274,-0.010614 -0.04248,-0.0091 -0.06219,0.00758 -0.0076,0.00152 -0.01514,0.00303 -0.01969,0.00758 -0.0092,-0.00455 -0.01671,-0.00758 -0.02277,-0.0091 -0.003,-0.00152 -0.0046,-0.00455 -0.0076,-0.00758 0,0.00303 -0.003,0.00455 -0.0015,0.00758 l -0.01219,-0.018203 c -0.0015,-0.00758 -0.01058,-0.022757 -0.01516,-0.027305 -0.03487,-0.00607 -0.05459,-0.00453 -0.0652,-0.00301 l 0.01359,-0.00305 0.01059,0.00152 -0.01219,-0.00453 C 16.734,8.0301337 16.69458,8.0149597 16.66728,8.0286057 16.6415,8.0134427 16.59451,8.0013207 16.57177,8.0543867 l -0.0076,0.00301 c -0.02426,-0.00758 -0.05459,-0.00301 -0.0743,0.012148 -0.0182,0 -0.02727,0.00454 -0.03789,0.013633 -0.003,-0.00303 -0.006,-0.00607 -0.0092,-0.00758 l -0.003,-0.00152 c -0.0092,-0.022743 -0.03033,-0.037897 -0.05762,-0.039414 -0.03487,-0.028808 -0.08947,-0.069726 -0.133438,-0.053047 -0.01516,-0.00758 -0.02274,-0.013655 -0.04094,-0.018203 -0.0046,-0.00303 -0.0092,-0.00607 -0.01356,-0.0091 0,0 -0.0015,0.00301 -0.0015,0.00453 l -0.02426,-0.019688 c -0.01971,-0.00758 -0.05002,-0.00456 -0.06215,0.013633 -0.006,0.00152 -0.01058,0.00301 -0.01668,0.00605 l -0.01059,0.00152 -0.01359,0 c -0.01819,-0.024261 -0.0455,-0.034842 -0.07582,-0.018164 l -0.006,0.00148 c -0.01516,-0.033357 -0.05005,-0.060621 -0.06824,-0.092461 0.03184,-0.028808 0.003,-0.05763 -0.0015,-0.084922 0,-0.0091 -2e-5,-0.019693 -0.0015,-0.028789 0.03487,-0.019712 0.05005,-0.028827 0.05914,-0.069766 l -0.0068,-0.028516 c 4.26e-4,-5.12e-4 9.36e-4,-0.00142 0.0022,-0.00332 0.01358,-0.00303 0.02881,-0.00757 0.04094,-0.013633 0.02729,-0.010614 0.03794,-0.053099 0.03945,-0.080391 0.04094,0.027292 0.08339,-0.025765 0.06672,-0.063672 0,-0.00455 -0.0015,-0.010615 -0.0015,-0.01668 0.01516,0.00152 0.03034,0.00303 0.04551,-0.00152 l 0.0092,-0.00301 c 0.0092,-0.00455 0.01518,-0.012145 0.02125,-0.019727 0.01516,0.00152 0.03184,-0.00304 0.04094,-0.018203 0.02729,-0.036389 0.01217,-0.043956 0.003,-0.078828 -0.0046,-0.01213 -0.0092,-0.02274 -0.01219,-0.031836 -0.0015,-0.0091 -0.0015,-0.022753 -0.0046,-0.034883 0.05004,-0.040938 0.07733,-0.1258654 0,-0.1516406 0.02881,-0.01213 0.05002,-0.040939 0.04547,-0.074297 0.04094,-0.034873 0.04854,-0.124313 -0.01969,-0.1197656 0.02426,-0.00607 0.0394,-0.016681 0.04547,-0.033359 0.01358,-0.00607 0.02882,-0.018181 0.04398,-0.037891 0.02578,0.030324 0.06367,0.021211 0.08793,-0.00305 0.0182,0.00758 0.0379,0.00912 0.05609,0.00609 0.0015,0 0.0046,0.0015 0.0092,0.00301 0.006,0.00607 0.01817,0.012131 0.02879,0.01668 0.02729,0.019712 0.07582,0.030326 0.09402,-0.00758 0.0015,-0.00303 0.006,-0.00607 0.0092,-0.0091 0.01358,0.00607 0.04096,0.01516 0.06977,-0.00152 l 0.0182,-0.018203 c 0.03184,-0.00607 0.04246,-0.0091 0.05914,-0.031836 0.01216,0.00455 0.02576,0.00609 0.03789,0.00609 l 0.0046,0.00301 c 0.0092,0.00303 0.01969,0.00457 0.03031,0.00305 0.03336,0.045487 0.09098,0.056101 0.139493,0 0.006,0.00303 0.01217,0.00607 0.0182,0.00758 0.0092,0.00758 0.01821,0.012131 0.0273,0.01668 l 0.0092,0.00453 c 0.006,0.022744 0.01216,0.051545 0.02426,0.072773 l -0.006,-0.0091 -0.003,0.015195 c 0.0046,0.010614 0.01056,0.03031 0.02121,0.037891 0.02578,0.019712 0.06066,0.022734 0.06066,0.022734 l -0.0092,0 0.02426,0.012148 0.0092,0 c 0.02123,0 0.03639,1.8e-6 0.04852,-0.00758 l 0.03031,-0.039414 c 0.0076,-0.00758 0.02125,-0.02125 0.03035,-0.02125 0.0046,-0.0091 0.01668,-0.025771 0.02578,-0.031836 l 0.01215,-0.00152 0.0076,-0.00758 0.0046,-0.00152 c 0.0092,-0.00758 0.01971,-0.028794 0.02426,-0.037891 0.01216,-0.00758 0.02124,-0.018217 0.03488,-0.02125 l 0.0076,0.00305 c 0.01058,-0.00607 0.03181,-0.012128 0.04394,-0.00758 l 0.0046,-0.00457 -0.0092,-0.015156 0.01215,-0.015156 0.0015,-0.013633 0.01516,-0.00457 c 0.0015,-0.040938 0.03187,-0.037904 0.06371,-0.040937 0.0076,-0.010614 0.02577,-0.025758 0.03941,-0.021211 0.0046,0.00455 0.01356,0.00758 0.01969,0.00758 0.006,-0.00455 0.02125,-0.00911 0.02883,-0.010625 l 0.01059,0.015156 c 0.006,0.00303 0.01668,0.00457 0.02426,0.00305 l 0.01516,-0.012149 0.02121,0.015156 c 0.02426,0 0.03033,-0.02879 0.03488,-0.045469 0.03033,-0.016679 0.05461,-0.040928 0.07887,-0.063672 0.006,-0.00607 0.03031,-0.00455 0.03789,-0.00758 0.01216,-0.00303 0.03184,-0.03184 0.04094,-0.040938 0.0076,-0.0091 0.0167,-0.019708 0.02125,-0.031836 l 0.01356,-0.0091 c 0.01819,-0.09249 0.0092,-0.2972092 0.0046,-0.4003126 l 0,-0.012109 c 0.0015,-0.09249 0.0076,-0.186494 0.0046,-0.2789842 -0.0015,-0.025775 -0.006,-0.053092 -0.0076,-0.078867 0,-0.028808 0.0046,-0.051544 0,-0.080352 l 0,-0.00605 c -0.0025,-0.055891 -0.0076,-0.1113526 -0.01273,-0.1668358 l -8.3099993,0 z"
     id="rect12"
     inkscape:connector-curvature="0" />
  <path
     style="fill:#000000"
     d="m 15.355405,0 -0.03184,0.0030469 c 0.02881,0.09703874 -0.02274,0.12583474 0.0182,0.24410156 0.02881,0.0818759 0.02272,0.0697575 0.01969,0.15011718 -0.01971,0.0288077 -0.04548,0.0879342 -0.04699,0.11371094 l -1.023438,0.004531 0.416954,0.35328124 c 0,0 0.07582,0.0561109 0.08492,0.0925 0.0092,0.0379054 -0.01973,0.74295778 -0.01973,0.78996088 0,0.047003 0.236523,0.380586 0.236523,0.380586 l -0.160703,0.092461 -0.843047,0.7626954 c 0,0 -0.104617,0.1955674 -0.122812,0.2410546 -0.0182,0.045487 -0.03788,0.1304068 -0.08488,0.166797 -0.04701,0.037905 -0.767227,0.900625 -0.767227,0.900625 l -0.180429,0.1758984 c -0.04701,0.047003 -0.0849,0.056094 -0.171328,0.056094 -0.08643,0 -0.691407,-0.0091 -0.691407,-0.0091 L 11.113062,3.8315234 10.44896,3.4979296 9.7378279,3.943711 9.6802109,4.5107812 c 0,0 -0.6731962,0.027305 -0.729297,0.027305 -0.056102,0 -0.1046322,0.00909 -0.142539,0.037891 -0.017303,0.013149 -0.085336,0.084123 -0.158086,0.1623828 l 8.8734761,0 c 0.0016,-0.05494 0.0029,-0.1066952 0.0029,-0.1275 0,-0.056101 0.08492,-0.2047082 0.14254,-0.2501954 0.05762,-0.045487 0.02883,-0.6034374 0.02883,-0.6034374 L 17.546343,3.7390234 17.450796,3.5813282 17.109663,3.2280468 16.824624,2.8747656 16.331812,2.7170704 c 0,0 1.8e-5,-0.046974 0.0092,-0.092461 0.0092,-0.047003 0.01973,-0.1394922 0.01973,-0.1394922 L 16.246968,1.5192578 16.151421,1.3327734 c 0,0 -0.02879,-0.083387 0.01973,-0.1303906 0.04852,-0.047003 0.03789,-0.1576846 0.03789,-0.2046875 0,-0.0470031 0.04703,-0.32602134 0.04703,-0.40941406 0,-0.0833922 0.07578,-0.28807486 0.08488,-0.33507812 0.0092,-0.0470031 0.0092,-0.092493 0.08492,-0.14859374 C 16.501681,0.04850861 16.397061,0 16.359151,0 l -1.00375,0 z"
     id="rect10"
     inkscape:connector-curvature="0" />
  <path
     style="fill:#078930"
     d="m 5.7000156,11.020233 0,1.638867 c 0.010309,0.0024 0.020725,0.0046 0.030586,0.0065 l 0.012148,0.01059 0.00602,0.01973 c 0.059135,0.03942 0.077326,0.03486 0.081875,0.104609 0.015163,0.01668 0.031837,0.03941 0.048516,0.05457 0.013583,0.01365 0.0288,0.0076 0.039414,0.03035 0.018195,0.03639 -0.036382,0.08035 0.051563,0.128867 0.012162,0.0091 0.021214,0.03185 0.030312,0.03488 0.034874,0.01516 0.030338,-6e-6 0.043984,0.03941 -0.00458,0.02123 0.00599,0.05761 0.022734,0.07277 0.054586,0.01213 0.037906,0.04246 0.074297,0.06066 0.010582,-0.0076 0.024283,-0.01516 0.03793,-0.01516 0.05307,0 0.084906,-0.01213 0.1228126,0.02274 0.063684,0.05762 0.031819,0.05455 0.069726,0.124296 l -0.013555,0.0182 c 0,0.0076 0.015146,0.02429 0.021211,0.03035 0.028809,0.0061 0.051541,-0.01516 0.080351,-0.0091 0.036391,0.01365 0.025787,0.0758 0.051563,0.09855 -0.00152,0.01668 0.00599,0.05762 -0.00301,0.06672 -0.00758,0 -0.018185,0.0061 -0.022734,0.01211 -0.003,0.01061 0.0046,0.03337 0.00918,0.04246 -0.018195,0.02578 0.019713,0.06519 0.01668,0.09551 -0.006,0.0061 -0.012166,0.01972 -0.010586,0.02731 l 0.00457,0.0076 0.01668,0.0076 0.031836,-0.01211 c 0.00152,0.0061 0.03793,0.02726 0.03793,0.02726 l 0.021211,0.02125 c 0.030326,0.05307 0.050052,0.05003 0.1107032,0.04699 0.00916,-0.003 0.03031,-2.2e-5 0.037891,0.0076 l 0.00602,0 c 0.00916,-0.01061 0.006,-0.03485 0.01668,-0.04395 0.012162,0.003 0.050021,0.02123 0.05457,0.03336 l 0.010579,-0.01061 c 0.013583,0.0045 0.033353,0.0091 0.048516,0.0076 0.010582,0 0.053076,0.0076 0.059141,0.0015 l 0.012148,0.0045 0.00301,0.01063 c -0.031842,0.04094 -0.021218,0.1137 -0.00457,0.160703 l 0.033359,0.01367 c 0.00458,0.0091 0.027273,0.06367 0.028789,0.06367 l 0.01668,-0.01211 c 0,-0.0045 0.030352,-0.0273 0.030352,-0.0273 l 0.013555,-0.01516 0.042461,0.0091 c 0.042456,0.02123 0.00299,0.04245 -0.00301,0.06519 l 0.00152,0.01211 c 0.00458,0.01061 0.027308,0.01365 0.036406,0.01668 0.04094,0.01365 0.063701,0.03337 0.086445,0.06824 0.030326,0.0091 0.063659,0.0015 0.093984,0.01062 0.010582,-0.003 0.043984,-0.01367 0.043984,-0.01367 0.034874,0 0.07276,-0.01971 0.1030858,0.0091 l 0.033359,0.01516 c 0.027293,0.0182 0.039452,0.05916 0.022773,0.08797 l 0.00148,0.0076 0.013594,0.01367 0.00758,0.0015 c 0,0 0.039418,-0.0045 0.048516,0.0045 0.00458,0.0015 0.053068,-0.01514 0.057617,-0.02121 0.006,0 0.030341,-8e-6 0.036406,-0.003 0.00458,-0.0091 0.018207,-0.03487 0.027305,-0.04094 l 0.018203,-0.0045 0.00598,-0.01063 c -0.00152,-0.0045 -0.00601,-0.02424 -0.00301,-0.02879 0.003,-0.003 0.01668,-0.03336 0.01668,-0.03336 0.00458,-0.0061 0.024272,-0.02881 0.027305,-0.03336 0.00458,-0.0015 0.071264,-0.01668 0.074297,-0.01668 0.015163,0.0015 0.039407,0.01364 0.05457,0.0045 0.022744,-0.0182 0.010597,-0.06218 0.036406,-0.06824 l 0.028828,-0.003 c 0.003,0.0045 0.010575,0.0091 0.015156,0.0091 0.019712,-0.0091 0.04396,-0.0076 0.063672,-0.01516 0.010582,-0.04549 0.043985,-0.07581 0.060664,-0.115234 l -0.015156,-0.03031 0.00148,-0.0061 c 0.006,-0.0076 0.030349,-0.01062 0.03793,-0.01062 l 0,-0.03336 0.00457,-0.0061 c 0.025777,-0.01668 0.065189,-0.0015 0.080352,-0.01363 0.00152,-0.0061 0.036406,-0.03336 0.036406,-0.03336 l 0.015156,0 c 0.012162,0.0076 0.015164,0.03639 0.033359,0.04852 0.00758,0.02426 0.012154,0.04093 -0.00301,0.06367 0.00152,0.0076 0.00919,0.01516 0.015195,0.0182 0.028809,0.02274 0.043968,0.03336 0.081875,0.01668 0.003,-0.003 0.015146,-0.01973 0.021211,-0.01973 0.022744,0.0061 0.039436,0.02576 0.060664,0.03031 l 0.01668,-0.01211 c 0.00758,0.0015 0.015153,0.0045 0.022734,0.0076 0.010582,0.0015 0.030317,-0.0061 0.039414,-0.01059 0.050037,0.01061 0.07432,0.0091 0.1122266,-0.02426 0.013583,0.0045 0.048498,0.01666 0.053047,0.02879 l 0,0.02578 c 0.013583,0.01516 0.043991,0.02276 0.062187,0.01367 l 0.010586,0.0045 0.00297,0.01059 -0.00758,0.03187 c 0.006,0 0.027326,-3.2e-5 0.031875,0.003 0.022744,-0.0076 0.048491,-0.0045 0.068203,0.0045 l 0.00152,0.0061 0.031836,0.05762 c 0.016679,0.0045 0.030349,0.02121 0.03793,0.03637 0.036391,0.01516 0.050012,0.06824 0.077305,0.05914 0.016679,-0.0061 0.03489,-0.01213 0.053086,-0.01516 0.00458,-0.0061 0.00599,-0.0182 0.00457,-0.02578 0,0 -0.00601,-0.03943 -0.00301,-0.05004 0.00916,0 0.02277,-0.0076 0.030352,-0.01211 l 0.040938,0.01211 c 0.006,0.0015 0.013584,0.0091 0.01668,0.01367 0.031842,0.0076 0.059141,-0.0182 0.07582,-0.04094 0.00916,-0.01213 0.015132,-0.0546 0.018164,-0.06977 0.013583,-0.06975 0.048521,-0.04094 0.090977,-0.0652 0.022744,-0.01365 0.036399,-0.04095 0.051562,-0.06066 l 0.00301,-0.0045 c 0.037907,-0.05307 -0.00598,-0.106125 0.062188,-0.128867 0.006,-0.0061 0.010554,-0.01061 0.013555,-0.01668 0.003,-0.01668 -0.00758,-0.02882 -0.010586,-0.04246 -0.006,-0.02123 0.00758,-0.05005 -0.00758,-0.08492 0.00152,-0.003 0.00458,-0.0076 0.00758,-0.01059 l 0.02125,0.0015 c 0.019712,-0.003 0.022728,-0.03638 0.037891,-0.03941 0.012162,0.01061 0.047031,0.04396 0.047031,0.06367 l 0.012148,0.003 0.033359,-0.02426 0.01668,0.01363 c 0.022744,-0.01213 0.042448,-0.003 0.056094,0.0182 l 0.00918,0.0015 c 0.00916,-0.0015 0.022724,-0.01667 0.028789,-0.02273 l 0.00602,0 c 0.02426,0.03487 0.048517,0.0045 0.081875,0.04699 0.021228,0 0.072791,0.02274 0.084922,0.03336 0.016679,0.01516 0.034865,0.07733 0.056094,0.08188 0.01516,0.003 0.03336,-0.01364 0.04246,-0.02273 l 0.01059,0.0015 c 0.01058,0.0091 0.02121,0.02275 0.02879,0.03488 0.0182,0.0091 0.04246,-0.0076 0.06519,0.0076 0.02426,0.02881 -0.0182,0.06066 -0.04094,0.0743 l -0.0076,0.01516 c -0.0015,0.0076 0.01667,0.02729 0.02273,0.03184 0.0015,0.0045 -0.01516,0.09404 -0.0182,0.09707 0.01216,0.02577 -0.006,0.04394 0.0046,0.07578 -0.0076,0.01668 -0.006,0.03187 0,0.04855 0.01358,0.01516 0.03181,0.01362 0.04395,0.02574 0.01058,0.01061 0.01518,0.02426 0.03035,0.03184 0.01216,0 0.02576,-0.0015 0.03637,-0.0061 0,0 0.05005,-0.01059 0.05914,-0.01211 0.02881,-0.0015 0.127375,0.08336 0.125859,0.124297 -0.0046,0.01061 -0.03033,0.05766 -0.03488,0.06524 l 0.0076,0.01211 c 0.02123,0.01061 0.0485,0.0015 0.07125,0.01516 0.03032,0.01971 0.06065,0.04701 0.09098,0.06824 0.01971,0.01365 -0.003,0.09096 0.07277,0.137969 0.05913,0.0045 0.08797,-0.01363 0.138007,0.02883 0.0076,0.0076 0.003,0.06214 0.0046,0.07578 0,0 0.03029,0.03034 0.03484,0.03641 l 0.04094,0.05004 c 0.02729,0.03487 -0.03789,0.06521 0.03793,0.125859 0.02426,-0.0061 0.05459,-0.01819 0.0743,-0.03336 0.03336,-0.0061 0.04548,0.02272 0.06367,0.04547 0.0092,0.0045 0.03487,-0.0015 0.04852,0 0.02123,0.003 0.03032,0.0258 0.04699,0.02883 0.01971,0.0045 0.04247,0.003 0.06066,0.01211 0.02123,0.0091 0.03487,0.0531 0.05762,0.05461 0.006,0.0015 0.02276,-0.01063 0.02731,-0.01367 0.03942,0.003 0.06217,0.07582 0.107656,0.05156 0.02881,-0.01516 0.0591,-0.03032 0.09246,-0.0182 0.006,0.0061 0.01516,0.02122 0.01516,0.03031 -0.0076,0.09097 0.01058,0.06824 0.02578,0.142539 0.01058,0.05459 0.01821,0.112175 0.02731,0.166757 0.003,0.0182 -0.03943,0.118275 -0.05156,0.133438 -0.003,0.03639 0.05006,0.02729 0.07129,0.0182 0.05004,-0.02123 0.08189,-0.04548 0.127383,-0.07277 0.03033,-0.0182 0.113705,0.08489 0.145547,-0.01973 l 0.01059,-0.03484 c 0.0046,-0.0076 0.01969,-0.01516 0.02879,-0.01516 0.01216,0.006 0.02578,0.03639 0.02578,0.05004 -0.0015,0.113721 0.02428,0.113723 0.127383,0.141016 l 0.0092,0.01059 c 0.006,0.04701 -0.05459,0.09097 -0.01516,0.139492 l 0.03793,-0.09855 0.01668,-0.0076 c 0.0092,-0.03336 0.04244,-0.0561 0.04547,-0.09098 0.0046,-0.0046 0.01058,-0.0076 0.01668,-0.0092 0.02578,-0.04246 0.03791,-0.06063 0.04852,-0.112188 0.0015,-0.0046 0.05308,-0.06219 0.06066,-0.07129 l 0.01215,-0.0015 c 0.04094,0.02578 0.06522,0.0076 0.103125,-0.01359 0.0015,0 0.0046,-0.0015 0.0046,-0.003 0.03942,-0.04852 0.006,-0.06218 0.08188,-0.05156 0.0015,0 0.006,0.003 0.006,0.0046 l 0.0046,-0.0015 c 0.02274,-0.05155 0.116778,-0.08338 0.128906,-0.09703 l 0.006,0 c 0.1304,0 0.177389,-0.003 0.219844,0.01062 0.04397,0.01365 0.08188,0.04394 0.206211,0.116719 0.0743,0.04397 0.150139,0.08491 0.227461,0.124336 0.03336,-0.0182 0.0576,-0.04851 0.09551,-0.05609 0.04549,-0.01516 0.08493,-0.03485 0.128906,-0.04547 0.03791,-0.0092 0.04397,0.01214 0.08187,-0.02125 0.01216,-0.01058 0.02121,-0.02273 0.02121,-0.03941 0.0092,-0.01516 0.02881,-0.01516 0.04246,-0.02426 0.006,-0.0046 0.0076,-0.0076 0.01219,-0.01215 0.01216,-0.01216 0.02576,-0.03032 0.03789,-0.04094 0.0092,-0.0091 0.02274,-0.01215 0.03184,-0.02125 l 0,-0.03031 c -0.0046,-0.03184 0.05915,-0.02731 0.07129,-0.01367 l 0.01355,0.0334 c 0,0.0015 0.003,0.003 0.003,0.003 0.04852,0.047 0.169809,0.169818 0.178906,0.230468 0.003,0.01819 0.0167,0.148598 0.03035,0.157696 0.02578,0.0076 0.06369,-0.0092 0.0925,0.006 0.01358,-0.0076 0.0303,-0.006 0.04547,-0.01215 0.05459,0 0.0925,0.05761 0.0925,0.104609 0.02426,0.01216 0.04699,0.006 0.07125,0.01359 l 0.0046,0.0046 c 0.01058,0.0046 0.104632,0.01216 0.12586,0.01668 l 0.01059,-0.02578 c 0.01216,-0.03032 0.01356,-0.134952 -0.02125,-0.157696 l -0.0015,-0.0046 c 0.0046,-0.003 0.0092,-0.0076 0.01359,-0.01059 0.03639,-0.02123 0.374492,-0.221367 0.374492,-0.221367 l 0.10461,-0.006 c 0.141014,-0.0076 0.282038,-0.01214 0.423047,-0.01969 0.03033,-0.0015 0.06822,-0.0182 0.09855,-0.02426 0.01216,-0.003 0.0258,-0.01059 0.03793,-0.01359 0.05913,-0.01516 0.177394,-0.03488 0.228945,-0.06672 l 0.198594,-0.121288 c 0.0015,0 0.003,-0.0015 0.0046,-0.0015 0.003,0 0.236537,0.178912 0.280508,0.204688 0.03184,0.003 0.06519,0.0046 0.09703,0.006 0.0652,0.0046 0.128906,0.01359 0.194102,0.01059 l 0.0046,0.0015 c 0.02881,0.006 0.05459,0.006 0.0834,0.0092 l 0.216797,0.0182 c 0.03791,-0.03336 0.07125,-0.06974 0.106133,-0.106132 0.02123,-0.02274 0.04701,-0.04248 0.06977,-0.06371 0.006,-0.0061 0.0092,-0.01514 0.01359,-0.02121 0.02426,-0.02578 0.05001,-0.05005 0.07578,-0.07582 0.05307,-0.05307 0.103136,-0.110659 0.162266,-0.159179 0.0092,-0.0076 0.01357,-0.01973 0.02273,-0.02883 l 0.269883,-0.250196 c 0.0076,-0.0061 0.0182,-0.01061 0.02578,-0.01668 0.01668,-0.01516 0.03033,-0.03789 0.04852,-0.05305 0.141014,-0.122814 0.266863,-0.257782 0.395742,-0.391211 0.05762,-0.06065 0.116747,-0.121273 0.171328,-0.183438 0.06672,-0.07581 0.144057,-0.145571 0.207735,-0.224414 l 1.660273,-1.53289 0.0076,-0.0061 c -0.003,-0.0091 -0.0076,-0.01666 -0.01356,-0.02121 0.003,-0.01213 0.0076,-0.02883 -0.006,-0.03641 -0.103107,-0.06368 -0.201648,-0.136451 -0.301719,-0.203165 -0.03791,-0.02578 -0.01671,-0.10462 -0.01219,-0.139492 l -0.230391,-0.372968 c 0.02274,-0.06368 -0.01517,-0.05152 -0.01359,-0.09246 0.0015,-0.03336 0.03182,-0.06673 0.02727,-0.09402 -0.0076,-0.06065 -0.03639,-0.04095 -0.01516,-0.116758 0.0015,-0.003 0,-0.01365 0,-0.01668 -0.0046,-0.01061 -0.02272,-0.01517 -0.03031,-0.02731 -0.0046,-0.003 -0.01358,-0.0015 -0.0182,0 l -0.006,-0.0045 c 0,-0.0099 -0.0014,-0.01941 -0.003,-0.02891 l -13.6773046,0 z"
     id="rect6"
     inkscape:connector-curvature="0" />
  <path
     style="fill:#0f47af"
     clip-path="none"
     d="m 3.0300156,3.2646583 c -0.031842,0.010614 -0.066752,0.018194 -0.098594,0.024258 -0.078847,0.053068 -0.072766,0.015153 -0.1455468,0.022734 -0.036391,0.00303 -0.068226,0.01972 -0.1061328,0.018203 -0.1213024,-0.00758 -0.2153222,0.083362 -0.34875,0.075781 -0.07733,-0.00455 -0.086416,0.027312 -0.1546484,0.028828 -0.047005,0 -0.053071,0.034887 -0.1076564,0.019727 -0.00152,0 -0.00151,-0.00152 -0.00457,-0.00152 -0.037907,0.010614 -0.034877,0.022722 -0.083398,0.00301 -0.012162,-0.00455 -0.025768,-0.013626 -0.039414,-0.012109 -0.024261,0.018195 -0.039432,0.0212 -0.068242,0.010586 -0.056102,0.033357 -0.069761,0.012162 -0.1182813,0.015195 -0.019712,0.00152 -0.087951,0.033349 -0.0925,0.039414 -0.015163,0.028808 -0.012138,0.048504 -0.036367,0.078828 -0.022744,0.028808 -0.016702,0.060646 -0.03793,0.089453 l -0.00758,0.010625 c -0.031842,0.040938 0.040948,0.106148 0.018203,0.166797 -0.013583,0.036389 -0.018176,0.060653 -0.045469,0.090977 -0.025777,0.027293 -0.010613,0.090975 -0.089492,0.1728514 -0.042456,0.043971 -0.00152,0.059112 -0.090977,0.1106642 -0.039423,0.022744 -0.062142,0.037909 -0.093984,0.066719 -0.04094,0.036389 -0.060662,0.027291 -0.1016016,0.040938 -0.016679,0.022744 -0.010579,0.040952 -0.040938,0.060664 -0.015163,0.010614 -0.031844,0.015132 -0.050039,0.018164 l -0.013594,0.5064456 c 0,0 -0.037913,0.065209 -0.0758203,0.0925 -0.037907,0.027291 -0.1425,0.065195 -0.1425,0.065195 0,0 -0.0379257,0.046974 -0.00918,0.092461 0.0288093,0.047003 0.0197303,0.092489 0.00918,0.1394922 -0.009161,0.047003 -0.0576249,0.1213108 -0.0758203,0.166797 -0.0197116,0.047003 -0.0197266,0.1485828 -0.0197266,0.1955858 0,0.047003 0.0197266,0.1577196 0.0197266,0.195625 0,0.037905 0.009141,0.1485548 0.009141,0.1485548 0,0 -0.18950166,0.101622 -0.2653125,0.1304296 -0.075814,0.027291 -0.32449219,0.195586 -0.32449219,0.195586 0.00458,0.057617 -0.0576276,0.1046082 -0.0515625,0.1288672 0.0105824,0.048519 0.06217,0.051569 0.0667188,0.077344 l -0.001523,0.00453 c -0.0363907,0.015163 -0.0879127,0.081894 -0.10914062,0.110703 l -0.001523,0.00605 -0.0060156,0.00305 c 0,0.018195 -0.04549411,0.057597 -0.05914063,0.069727 -0.0227442,0.019712 -0.0075898,0.1380026 -0.0348828099,0.1698438 -0.00300098,0.021228 0.00460251,0.04397 0.0212499999,0.057617 0.01358334,0.01213 0.06821744,0.081854 0.07125,0.093984 0.02274419,0.00758 0.03638927,0.025777 0.05761719,0.033359 0.0121618,0.00455 0.0273228,0.00303 0.0394531,0.0091 0.0242605,0.01213 0.0484883,0.021242 0.0757812,0.027305 0.0197116,-0.00607 0.0485306,-0.012141 0.0682422,-0.010625 0.007581,0.00607 0.0151778,0.018201 0.0197266,0.025781 0.009161,0.00607 0.0272838,0.010616 0.0394141,0.0091 0.0181953,-0.018195 0.0697623,-0.037923 0.0773437,-0.053086 0.0394233,-0.010614 0.0666848,0.027295 0.10914064,0.0091 0.0121618,0.00607 0.021261,0.062177 0.031875,0.068242 l 0.0257812,0.00301 c 0.001516,0.00607 0.009154,0.021227 0.0151562,0.024258 l 0.0682031,0.033359 c 0.0348744,0.016679 0.12436896,-0.068206 0.22898438,-0.027266 0.0288093,0.048519 0.0909561,-0.00153 0.11976559,0.030312 l 0.013594,0.028828 0.00914,0.00605 c 0.00916,-0.00303 0.024254,-0.00154 0.031836,0.00301 l 0.042461,-0.013633 0.00301,-0.00453 0.048516,0.00152 c 0,0 0.053076,0.015132 0.059141,0.018164 0.010582,0.018195 0.01358,0.040946 0.024258,0.059141 0.012162,0.021226 0.02428,0.018205 0.028828,0.051562 l 0.013555,0.1015626 c 0.00152,0.00607 0.00759,0.02428 0.013594,0.028828 0.04094,0.00607 0.086432,0.05001 0.1000781,0.084883 -0.003,0.033357 0.048506,0.054604 0.07125,0.069766 0.043972,0.028808 0.090992,0.053078 0.1273828,0.0925 0.012162,0.01213 0.015149,0.042451 0.030312,0.048516 0,0 0.092521,-0.022763 0.09707,-0.028828 0.015163,0.00152 0.04397,0.00154 0.057617,-0.00605 0.006,0.00303 0.057625,0.05913 0.059141,0.065195 l 0.031836,-0.00152 c 0,0.00607 -0.00152,0.013662 -0.00152,0.019727 0.021228,0.021228 0.036393,0.034848 0.050039,0.060625 0.003,0.00607 0.01668,0.042461 0.01668,0.042461 l 0.031836,-0.00758 0.013594,0.019727 -0.010586,0.019687 c 0.003,0.033357 0.027289,0.078864 -0.010586,0.103125 l 0.010586,0.019688 -0.012187,0.01668 0,0.010625 0.013594,0.010625 c 0,0 0.028803,0.028818 0.031836,0.034883 l -0.00152,0.013633 -0.022734,0.025781 0,0.012109 c -0.00458,0.013647 -0.048509,0.02426 -0.063672,0.040938 l -0.019727,-0.00605 c 0,0 -0.048505,0.02124 -0.05457,0.027305 0.00152,0.00607 -0.00302,0.016662 -0.00602,0.021211 -0.006,0.00758 -0.030317,0.010632 -0.039414,0.012148 l -0.024258,0.021211 -0.00457,0.010625 0.00152,0.00605 c 0.006,0.00607 0.015153,0.012123 0.022734,0.015156 0.013583,0.024259 0.034868,0.089464 0.015156,0.1167578 0.003,0.00758 0.01059,0.018217 0.018203,0.02125 l 0.00758,0 0.00758,-0.00457 c 0.00758,0 0.015146,0.0015 0.021211,0.00605 l 0.013594,0.018203 c 0.00758,0.00607 0.045483,1.84e-5 0.065195,0.012148 l 0.028828,0.00758 -0.00602,0.019688 0.015156,0.00152 c 0.003,0.010614 0.016691,0.025803 0.027305,0.030352 -0.00152,0.00607 0.00154,0.018185 0.00602,0.022734 0.00758,0.00152 0.019709,-0.00303 0.024258,-0.00758 0.00758,0 0.018185,0.00607 0.022734,0.0091 0.003,0.00455 -3.6e-6,0.016662 -0.00152,0.021211 0.006,0.01213 0.01358,0.025785 0.024258,0.034883 -0.010582,0.018195 0.012149,0.084904 0.030313,0.089453 l 0.02125,0.00152 0.018203,0.028789 0.012148,0 c 0.003,-0.00455 0.010583,-0.01364 0.01668,-0.015156 0.048521,0.030324 0.043985,0.042478 0.060664,0.054609 l 0.015156,-0.00758 0.00914,0.00152 0.00602,0.00758 c -0.003,0.00607 -0.00759,0.027263 -0.00301,0.034844 l 0.01668,-0.0091 0.019727,0.01668 0.00598,0.018203 0.010586,0 0.040937,0.00152 0.00602,-0.00605 0.00152,-0.013672 0.028789,0.00305 0.015156,0.00605 c 0.010582,0.01213 0.036396,0.028822 0.042461,0.027305 0.00758,0.00152 0.018224,0.00909 0.022773,0.015156 l -0.00602,0.024258 0.00301,0.00609 0.018164,0.00906 0.01668,-0.022734 0.013594,0.0091 c 0.00152,0.00607 0.00152,0.016669 -0.00152,0.022734 l 0.00461,0.00758 0.012148,0.00457 0.022734,-0.00605 c 0.030326,0.021228 0.048544,0.00909 0.054609,0.013633 0.00916,0.025775 0.036371,0.037915 0.062148,0.034883 l 0.012148,-0.00758 c 0.00916,0.00152 0.02124,0.00605 0.027305,0.012109 0.003,0.0091 0.015167,0.034898 0.025781,0.03793 l 0.01668,-0.013672 c 0.015163,-0.00303 0.024251,-0.00301 0.039414,0.00457 0.003,0.00607 -0.003,0.019687 0,0.027266 0.015163,0 0.025768,0.00607 0.039414,0.00758 0.021228,0.00303 0.075814,-0.00151 0.090977,0.018203 0.003,0.00303 -0.00149,0.025763 -0.00297,0.030312 -0.003,0.00303 -0.021243,0.019742 -0.019727,0.022773 l 0.00914,0.00758 c 0.010582,0 0.024293,0.00605 0.031875,0.00605 0.037907,0 0.048513,-0.00757 0.072773,0.019726 l 0.046992,0.015156 0.00918,0.010625 c 0,0.00607 -0.016694,0.016654 -0.019727,0.019687 l -0.00152,0.010625 c 0.006,0.0091 0.042465,0.012148 0.051563,0.012148 0.003,0.00455 0.003,0.016664 0.00152,0.021211 l 0.00914,0.00758 c 0.028809,0.00303 0.057636,0.00607 0.086445,0.0091 l 0.010586,0.015156 c -0.00458,0.00607 -0.00918,0.021248 -0.00602,0.028828 l 0.010586,0.0091 c 0.024261,0.00607 0.1061334,-0.016689 0.1228124,0.022734 0.012162,0.036389 -0.03942,0.021222 0.00152,0.089453 -0.006,0.0091 -0.016676,0.018194 -0.024258,0.024258 -0.00152,0.00303 -0.003,0.00908 0,0.012109 0.010582,0.00758 0.048516,0.043984 0.048516,0.043984 l 0.00758,0.00152 c 0.00758,-0.00152 0.019709,-0.010607 0.024258,-0.015156 l 0.00602,0.00758 c 0.012162,0.056101 -0.030333,0.066696 0.015156,0.1273438 0.00916,0.01213 0.018189,0.024261 0.031836,0.033359 0.030326,0.00303 0.063698,0.0076 0.094023,0.00457 l 0.015156,0.0091 0.00602,0.013633 -0.010586,0.019727 c 0.00458,0.013646 0.051534,0.031837 0.062148,0.048516 0.003,0.00758 0.00152,0.021209 -0.00152,0.028789 l 0.01668,0.010625 c 0.018195,-0.00607 0.057618,0.00609 0.074297,0.012149 0.006,0.0091 -0.0015,0.02879 0.00918,0.045469 0.021228,0.016679 0.068233,0.012141 0.090977,0.010625 0.013583,0.00455 0.019699,0.015153 0.030313,0.022734 0.010582,0.00758 0.034869,-0.00453 0.048516,0.00305 0.033358,0.021227 0.044004,0.065164 0.089492,0.06668 l 0.013555,0.0152 c 0.010582,0.04852 -0.047011,0.06974 -0.059141,0.08793 -0.003,0.0091 -0.003,0.02121 0,0.02879 -0.013583,0.01061 -0.028782,-0.003 -0.043945,-0.0015 l -0.00918,0.0076 c -0.00152,0.0091 -0.00756,0.03641 -0.00598,0.04551 -0.00758,0.01365 -0.027302,0.01515 -0.034883,0.03031 -0.006,0.01365 -0.00602,0.05309 -0.00602,0.05309 l 0,0.01059 -0.00598,0.0076 -0.047031,0 c -0.010582,0.01516 -0.013559,0.03942 -0.019688,0.05762 l 0.027266,0.04398 0.025781,0.01516 c -0.003,0.03032 -0.045479,0.03185 -0.039414,0.06672 0.00458,0.0091 0.078839,0.06065 0.089453,0.0652 0.031842,0.02426 0.065221,0.08488 0.095547,0.09246 0.025777,0.0061 0.077329,4e-5 0.090976,0.03035 0.016679,0.01061 0.036393,0.0045 0.050039,0.02121 0.010582,0.01668 -0.030328,0.0849 0.024258,0.113711 0.025777,-0.0015 0.034844,-0.03184 0.068203,-0.0182 0.045488,0.02729 -0.021191,0.116775 -0.05,0.136485 -0.015163,0.01061 -0.066747,0.03485 -0.072812,0.04547 -0.010582,0.0182 -0.019684,0.04701 -0.013555,0.06824 l 0.00758,0.01215 0.00758,0.003 c 0.028809,-0.0076 0.056088,-0.07275 0.1046094,-0.0682 0.00458,0.003 0.022734,0.02574 0.022734,0.02574 l 0.012188,0.03488 c -0.003,0.0076 -0.003,0.02426 0.00152,0.03184 0.00458,0.0061 0.03031,0.04396 0.037891,0.05609 0.056102,0.02426 0.074298,-0.01517 0.1076562,0.03031 0.037907,-0.0061 0.057625,0.0258 0.07582,0.02277 0.00916,-0.003 0.03031,-0.02125 0.037891,-0.02731 0.025777,-0.0061 0.047,0.0061 0.065195,0.02273 l 0.02125,-0.0015 c 0.00458,-0.0061 0.013566,-0.01215 0.021211,-0.01367 0.018195,-0.0015 0.1122265,0.04852 0.1122265,0.04852 l 0.00914,0 c 0.042456,0.01668 0.039421,0.118284 0.040938,0.151641 0,0.02274 0.056126,0.03183 0.071289,0.03941 0.006,-0.003 0.028803,-0.01213 0.031836,-0.0182 0.013583,-0.0045 0.043964,-0.0076 0.056094,0.0045 l 0.00758,0.0152 c -0.00758,0.03336 0.040938,0.03939 0.057617,0.06062 l 0.00758,0.0015 c 0.042456,-0.02881 0.081901,-0.02881 0.1122265,0.01668 0.00152,0.0091 -0.00155,0.02122 -0.00461,0.03031 l 0.00918,0.01363 c 0.00916,0.0061 0.031818,0.003 0.036367,0.0091 l 0.024258,0.02578 0.033359,-0.0045 c 0.006,-0.003 0.040959,-0.0106 0.045508,-0.0045 l 0.024258,0.01211 c 0,0.0061 0.027305,0.03941 0.027305,0.03941 0.00458,0 0.019702,4e-5 0.022734,-0.003 0.010582,0 0.02728,0.0091 0.030313,0.01969 l -0.012148,0.01062 c -0.00458,0 -0.021225,0.0015 -0.024258,0.0061 0.00152,0.01516 0.066705,0.0394 0.080352,0.04547 0.00916,0.01516 0.057635,0.06826 0.053086,0.08191 l -0.010586,0.02121 c 0.00916,0.02577 0.077324,0.04397 0.031836,0.107657 l 0.013594,0.03941 0.00598,0.0045 c 0.016679,-0.04094 0.051552,-0.02272 0.074297,-0.0015 l 0.00152,0.01062 c -0.006,0.0061 -0.018178,0.01818 -0.021211,0.02726 0.030326,0.06975 0.003,0.0561 -0.024258,0.107657 -0.006,0.01365 -0.00761,0.03487 -0.012188,0.05004 -0.028809,0.07884 -0.043955,0.08644 -0.021211,0.177422 0.012162,0.0091 0.022738,0.02271 0.031836,0.03484 l 0,0.0076 -0.019687,0.0182 c -0.00152,0.03032 0.051524,0.133407 0.084883,0.151602 0.02426,0.047 -0.00917,0.05459 0.056094,0.116758 0.015163,0.0045 0.031868,0.0076 0.047031,0.01062 l 0.012148,0.01059 0.00539,0.01773 L 14.118531,7.8792719 8.6491952,4.7215375 C 8.5628776,4.8144261 8.4695904,4.9180945 8.438414,4.9582953 8.380795,5.0325903 8.3807968,5.0977875 8.3807968,5.0977875 l -0.1137108,0.1015626 -1.2508986,0 L 6.779664,4.7445063 c 0,0 -0.6155954,-0.027305 -0.6914062,-0.027305 -0.075814,0 -0.5215924,-0.018203 -0.626211,-0.018203 -0.1046234,0 -0.2365196,8.2e-6 -0.285039,0.018203 C 5.1284868,4.7353967 4.7600506,4.9401005 4.693336,4.9582953 4.62662,4.9764903 4.5326232,4.9582817 4.4568124,4.9309907 4.3809988,4.9036971 4.086842,4.8096885 4.0110312,4.7823969 3.9352172,4.7551039 3.9154968,4.6989893 3.8684922,4.6064985 3.8214874,4.5140085 3.725953,4.2532173 3.7259532,4.2532173 L 3.6122422,4.0773579 c 0,0 -0.1137032,-0.1395242 -0.1607032,-0.195625 C 3.4045344,3.8256321 3.3560008,3.7331459 3.2998984,3.6770453 3.243796,3.6209447 3.166461,3.3434907 3.166461,3.3434907 3.154299,3.3343907 3.142217,3.3207397 3.12857,3.3010297 3.116408,3.2828347 3.049726,3.2661787 3.030015,3.2646627 Z"
     id="polygon14"
     inkscape:connector-curvature="0" />
  <polygon
     clip-path="none"
     style="fill:#fcdd09"
     points="-513674,0 415571,301930 -158734,-488533 -158734,488533 415571,-301930 "
     transform="matrix(4.9197217e-6,0,0,4.9197217e-6,4.9855172,7.8792799)"
     id="polygon16" />
</svg>
