<?xml version="1.0" encoding="UTF-8" standalone="no"?>
<svg
   xmlns:dc="http://purl.org/dc/elements/1.1/"
   xmlns:cc="http://creativecommons.org/ns#"
   xmlns:rdf="http://www.w3.org/1999/02/22-rdf-syntax-ns#"
   xmlns:svg="http://www.w3.org/2000/svg"
   xmlns="http://www.w3.org/2000/svg"
   xmlns:sodipodi="http://sodipodi.sourceforge.net/DTD/sodipodi-0.dtd"
   xmlns:inkscape="http://www.inkscape.org/namespaces/inkscape"
   width="981.59967"
   height="870.62103"
   viewBox="0 0 19.631995 17.41242"
   id="svg2"
   version="1.1"
   inkscape:version="0.91 r13725"
   sodipodi:docname="Flag-map_of_Sudan.svg">
  <metadata
     id="metadata16">
    <rdf:RDF>
      <cc:Work
         rdf:about="">
        <dc:format>image/svg+xml</dc:format>
        <dc:type
           rdf:resource="http://purl.org/dc/dcmitype/StillImage" />
        <dc:title></dc:title>
      </cc:Work>
    </rdf:RDF>
  </metadata>
  <defs
     id="defs14" />
  <sodipodi:namedview
     pagecolor="#ffffff"
     bordercolor="#666666"
     borderopacity="1"
     objecttolerance="10"
     gridtolerance="10"
     guidetolerance="10"
     inkscape:pageopacity="0"
     inkscape:pageshadow="2"
     inkscape:window-width="1600"
     inkscape:window-height="837"
     id="namedview12"
     showgrid="false"
     inkscape:zoom="0.87087522"
     inkscape:cx="471.17825"
     inkscape:cy="303.29284"
     inkscape:window-x="-8"
     inkscape:window-y="-8"
     inkscape:window-maximized="1"
     inkscape:current-layer="svg2"
     fit-margin-top="0"
     fit-margin-left="0"
     fit-margin-right="0"
     fit-margin-bottom="0"
     showguides="true" />
  <path
     style="fill:#ffffff;stroke:#d21034;stroke-width:0.04000001;stroke-miterlimit:4;stroke-dasharray:none;stroke-opacity:1"
     clip-path="none"
     d="m 6.3861418,5.80414 0,5.804141 10.6140622,0 c 0.004,-0.01011 0.007,-0.01818 0.0075,-0.02172 0.0025,-0.01734 -0.0038,-0.04823 0.0012,-0.06309 0.02104,-0.05945 0.0384,-0.117821 0.05574,-0.177266 0.0037,-0.01239 0.04729,-0.04937 0.05844,-0.08281 l 0.0085,-0.0027 c 0.01238,-0.01362 0.01108,-0.02222 0.02594,-0.03832 -0.0025,-0.01858 -0.0109,-0.03074 -0.01586,-0.04684 -0.0037,-0.01486 -0.0077,-0.03233 -0.01395,-0.04719 -0.01858,-0.04458 -0.02088,-0.02609 -0.02707,-0.07934 0,-0.0012 0.0012,-0.005 0.0012,-0.0062 0.0062,-0.0074 0.02374,-0.02578 0.02746,-0.03445 0.01858,-0.0483 0.09901,-0.272438 0.100234,-0.303399 l -0.01508,-0.0089 c -0.0099,-0.02105 -0.01216,-0.04466 -0.02207,-0.06695 -0.0012,-0.0025 -0.0027,-0.005 -0.0027,-0.0062 -0.01238,-0.09908 -0.02081,-0.199284 -0.02824,-0.298359 l -0.0039,-0.04453 c -0.0062,-0.07307 -0.0123,-0.144888 -0.01973,-0.216718 -0.0025,-0.02601 -0.0088,-0.0507 -0.01125,-0.075469 -0.0037,-0.035914 -0.0026,-0.073159 -0.005,-0.1103124 l -0.0012,-0.005 c -0.005,-0.019815 -0.0037,-0.039404 -0.0062,-0.059219 -0.0074,-0.064399 -0.01597,-0.125316 -0.02711,-0.1884766 l 0.03215,-0.042187 c 0.03963,-0.052015 0.0829,0.0089 0.100234,-0.083984 0.0037,-0.02353 0.02227,-0.055872 0.03094,-0.078164 l 0.0027,-0.00504 c 0.01362,-0.053253 0.04073,-0.081501 0.03949,-0.1335156 0.0062,-0.00991 0.01611,-0.022241 0.01859,-0.032148 0.0025,-0.00867 -1.6e-4,-0.022268 0.0012,-0.030937 0.0012,-0.00991 0.0064,-0.024937 0.0089,-0.034844 0.01115,-0.040869 0.02477,-0.081827 0.03715,-0.1226954 0.0062,-0.021054 0.01464,-0.039365 0.02207,-0.05918 0.0049,-0.014861 0.0062,-0.033537 0.01238,-0.048398 0.0198,-0.045822 0.04822,-0.095343 0.07547,-0.136211 0.0012,-0.00248 0.0038,-0.0038 0.005,-0.00504 0.0087,-0.027246 0.01486,-0.058368 0.02476,-0.084375 0.01114,-0.029723 0.03345,-0.051718 0.03098,-0.085156 -0.0012,-0.00991 0.01245,-0.025069 0.01121,-0.0325 0,-0.00124 0.0023,-0.00224 0.0023,-0.00348 0.0161,-0.056968 0.03251,-0.114153 0.05109,-0.1698828 l 0.01855,-0.059219 c 0.0025,-0.00991 0.0022,-0.019897 0.0046,-0.029805 0.0074,-0.026007 0.05719,-0.065713 0.07699,-0.079336 0.0012,-0.00124 0.0038,-0.00493 0.005,-0.00617 l -0.0027,-0.00621 -0.01469,-0.00117 c 0.005,-0.033438 -0.01997,-0.056959 -0.01625,-0.074297 0.0012,-0.00619 0.01243,-0.012212 0.01738,-0.014688 0.0025,-0.012384 0.01358,-0.068429 0.01977,-0.075859 l -0.005,-0.00734 -0.02711,-0.01125 c -0.0099,-0.00867 -0.01235,-0.020963 -0.01855,-0.032109 -0.0062,-0.012384 -0.02092,-0.013705 -0.02711,-0.029805 -0.02972,-0.082975 -10e-5,-0.085127 0.0074,-0.165625 0.0012,-0.00248 0,-0.00525 0,-0.00773 l -0.01355,-0.017031 c -0.0012,-0.00619 0.0023,-0.022289 0.0085,-0.024766 0.02972,-0.00248 0.04343,-0.00272 0.05457,-0.00891 0.01238,-0.00619 0.02213,-0.01959 0.04566,-0.046836 0.0037,-0.00495 0.0087,-0.00999 0.0062,-0.017422 -0.0025,-0.00248 -0.01121,-0.012534 -0.01121,-0.01625 0.0025,-0.00743 0.0088,-0.024851 0.01625,-0.029805 l 0.01742,-0.00348 c 0.0037,-0.00743 0.01492,-0.022355 0.02359,-0.023594 l -0.0015,-0.00621 c -0.0087,-0.00743 -0.03092,-0.023698 -0.03215,-0.034844 0.0037,-0.014861 0.01356,-0.028459 0.01356,-0.04332 0,-0.037153 -0.02955,-0.035599 -0.0085,-0.078945 l -0.0012,-0.01125 c -0.04705,-0.038392 -0.01617,-0.04951 -0.01121,-0.068086 l 0.0209,-0.012383 c 0.01115,-0.013623 0.0025,-0.043577 0,-0.058438 l -0.01359,-0.01457 c 0.0074,-0.013622 0.01995,-0.035738 0.0348,-0.039453 l 0.0097,0.00113 c 0.01362,0.014861 0.01622,0.014727 0.0348,0.014727 0.01238,0 0.01377,0.011146 0.02863,0 0.01734,-0.00124 0.02949,0.016009 0.03445,0.032109 l 0.0062,0.00387 c 0.02723,-0.00495 0.05326,-0.0061 0.08051,-0.00734 0.02971,-0.034676 0.03613,-0.00765 0.06461,-0.015078 0.02477,-0.00619 0.04578,-0.013401 0.0693,-0.02207 0.02725,0.00619 0.03715,0.028413 0.06191,0.03832 0.01238,0.00495 0.02484,0.011124 0.03598,0.018555 0.0025,-0.00372 0.02324,-0.060609 0.02324,-0.063086 l 0.0077,-0.005 0.01855,0.00113 c 0.0074,-0.017338 0.01976,-0.025916 0.02594,-0.044492 l 0.0085,-0.00617 0.0012,-0.00234 -0.0023,-0.013945 c 0.0099,-0.013623 0.01362,-0.025897 0.02477,-0.038281 l 0.01855,-0.00234 0.0074,-0.00891 -0.0012,-0.00461 -0.01121,-0.00504 -0.0074,-0.013555 0.005,-0.00891 -0.0012,-0.013516 0.0035,-0.00391 -0.0023,-0.00965 0.005,-0.00621 c 0.0074,-0.00248 0.02223,-0.00502 0.02594,-0.011211 0.0012,-0.00495 -0.0025,-0.013706 -0.0062,-0.017422 l -0.02129,-0.00852 c -0.0037,-0.00743 -0.0074,-0.02003 -0.0062,-0.027461 l 0.01625,0 c 0,-0.014861 0.005,-0.022002 0.01121,-0.035625 0.07431,-0.028484 0.100382,-0.041101 0.128867,-0.046055 0.02725,-0.00495 0.0556,-0.0037 0.132383,-0.00617 l 0.01121,-0.00734 c 0.0037,0.00248 0.01364,0.00635 0.01859,0.00387 0,-0.021052 0.0073,-0.039794 0.0085,-0.059609 l 0.01125,-0.010078 c 0,-0.014861 -0.0023,-0.033175 -0.0085,-0.046797 l 0.01473,-0.018594 c 0.0087,-0.00124 0.05434,-0.00752 0.05805,-0.00504 0.02848,0.014861 0.02244,0.014702 0.02863,0.045664 l 0.01004,0.01125 c 0.01362,0 0.02207,0.00147 0.03445,-0.00348 l 0.0027,-0.00156 c 0.0037,-0.00124 0.01611,-0.00117 0.01859,-0.00117 l 0.0074,-0.00504 c 0.01734,-0.011146 0.0271,-0.012362 0.03949,-0.018555 0.0062,-0.00248 0.01354,-0.00977 0.01973,-0.014726 0.0012,0 0.0027,-0.00106 0.0027,-0.0023 l -0.01004,-0.017422 c 0.0025,-0.014861 0.03235,-0.049531 0.04101,-0.061914 l 0.0035,-0.00117 0.01391,0.00969 c 0.01238,0.00372 0.03587,-0.00993 0.04453,-0.018594 l 0.0062,0.00117 c 0.01238,0.013623 0.01003,0.080592 0.01125,0.09793 0.01362,-0.00248 0.02817,-0.00135 0.0418,0.00113 0.0012,-0.00372 -0.0046,-0.020944 -0.0046,-0.025898 -0.0025,-0.032199 0.0074,-0.038403 0.0074,-0.068125 0.0025,-0.00495 0.01983,-0.014945 0.02477,-0.017422 l 0.04219,0 0.01238,-0.01082 c 0.01115,0.00495 0.01966,0.034585 0.0209,0.044492 l 0.01977,-0.022461 c 0.01857,0.00867 0.03589,0.013709 0.0557,0.00504 0.0062,-0.00495 0.0061,-0.013467 0.0074,-0.020898 0.0012,-0.00248 0.01,-0.012686 0.01121,-0.020117 l 0.0062,-0.039492 c 0.01857,-0.027246 0.06943,-0.021182 0.07934,-0.034805 0.005,-0.0161 0.01617,-0.030736 0.02359,-0.046836 0.0074,-0.013623 0.01712,-0.031193 0.02207,-0.046055 0.0062,-0.0161 0.0025,-0.026 0.01238,-0.049531 0.04211,-0.09536 0.05586,-0.1322928 0.07816,-0.1644922 0.02353,-0.034676 0.05683,-0.062008 0.144766,-0.1474608 -0.005,-0.00867 -0.0062,-0.016163 0.0062,-0.023594 -0.0012,-0.012384 -0.01329,-0.040968 -0.0232,-0.048398 -0.0074,-0.00619 -0.01734,-0.0096 -0.02477,-0.017031 -0.0087,-0.00867 -0.01238,-0.018574 -0.02477,-0.024766 l -0.0015,0.00348 c 0.0037,0.00619 0.01024,0.00747 0.01395,0.012422 0.01362,0.0161 0.0012,0.054551 -0.01859,0.060742 -0.0037,-0.00124 -0.0087,-0.0037 -0.01121,-0.00617 -0.0037,-0.00619 -0.0026,-0.018506 -0.005,-0.025937 -0.0025,-0.00743 -0.01008,-0.012553 -0.01008,-0.022461 0.0012,-0.00372 0.004,-0.00845 0.0077,-0.00969 0,-0.00867 -0.01387,-0.026156 -0.02129,-0.028633 l -0.0023,0.00504 0.0023,0.00504 -0.0023,0.00461 c -0.0099,0.00867 -0.02865,1.6e-4 -0.04102,-0.0023 -0.0087,-0.00372 -0.01844,-0.00743 -0.02711,-0.012383 l -0.0027,-0.00617 0.0039,-0.00504 c 0.005,0 0.0098,-0.0011 0.01355,-0.00234 l -0.0012,-0.00617 c -0.005,-0.00867 -0.01493,-0.0075 -0.02359,-0.011211 0.01113,-0.028484 -0.01093,-0.05839 -0.04066,-0.06582 -0.005,0.00248 -0.01143,0.00506 -0.01391,0.01125 0.005,0.00124 0.0087,0.00252 0.01238,0.005 l 0.0039,0.00504 0,0.00734 c -0.0062,0.00495 -0.01379,0.010078 -0.02246,0.010078 -0.0062,0 -0.06284,-0.011469 -0.06656,-0.013945 -0.01362,-0.00743 -0.02492,-0.022116 -0.04102,-0.02707 -0.0037,-0.00124 -0.0556,0.011145 -0.06426,0.012383 -0.0037,-0.00124 -0.0076,-0.00374 -0.01008,-0.00621 l 0.0023,-0.00617 c 0.01115,-0.00743 0.03347,0.00115 0.04957,-0.00504 0.01734,-0.00619 0.04721,-0.030821 0.02863,-0.051875 0,-0.00372 0.0026,-0.00991 0.005,-0.012383 0.0087,-0.00124 0.02485,-0.00378 0.0298,-0.011211 l 0,-0.00617 c -0.005,-0.00372 -0.0074,-0.00991 -0.01238,-0.012383 l -0.005,0.00113 c 0.0012,0.00372 -2.3e-4,0.00991 -0.0027,0.012383 -0.0087,0.00248 -0.02833,-0.00122 -0.03328,0.00621 -0.0025,0.013623 0.005,0.023593 -0.0012,0.035977 -0.01237,0.026007 -0.02487,0.02611 -0.0484,0.023633 -0.005,0 -0.0086,0.0023 -0.01355,0.0023 -0.02228,0.00124 -0.03457,-0.00858 -0.05066,-0.019727 -0.0074,-0.00124 -0.06194,-0.037167 -0.06813,-0.043359 -0.005,-0.00495 -0.0087,-0.014705 -0.01121,-0.020898 l -0.0074,0 -0.005,0.00348 -0.0039,-0.00348 c 0.0025,-0.00867 0.0074,-0.015096 0.01356,-0.021289 3e-6,-10e-5 -3e-6,-1.6e-4 0,-2.74e-4 l -12.6488672,0 z m 12.9064062,0.099414 -0.0062,0.00246 -0.0012,0.00621 c 0.0062,0.013626 0.03465,0.00865 0.04703,0.011133 l 0.005,-0.00371 c -0.0037,-0.00867 -0.03341,-0.017363 -0.04211,-0.014883 l -4e-5,4e-5 -0.0025,-0.00125 z m 0.184453,0.029727 c -0.0062,0.00248 -0.0099,0.00989 -0.01113,0.014844 -0.0062,-0.00124 -0.02478,-0.00373 -0.03098,-0.00125 l 0.0025,0.00621 c 0.02105,0.012384 0.01235,0.00742 0.02106,0.028476 0.005,-0.00372 0.01485,-0.00249 0.02105,-0.00125 0.0025,-0.00124 0.0062,-0.0037 0.0087,-0.00742 l 0.005,0.00371 c 0.0012,0.00495 0.0024,0.012413 0.0074,0.016133 l 0.005,-0.0025 c -0.0012,-0.00743 -0.0062,-0.022296 -0.01359,-0.026016 -0.0049,-0.00743 0.0013,-0.014831 -0.0074,-0.025977 l -1.6e-4,-4e-5 -0.0074,-0.00492 z"
     id="rect6"
     inkscape:connector-curvature="0" />
  <path
     style="fill:#d21034"
     clip-path="none"
     d="m 16.117197,-6.1035161e-7 -4.3e-4,3.906259961e-5 c 4e-5,3.89546e-5 1.4e-4,1.17090802e-4 2e-4,1.56250002e-4 8e-5,-6.7573e-5 1.6e-4,-1.27740202e-4 2.34e-4,-1.9531260161e-4 z M 16.116963,1.9470225e-4 C 15.959757,0.14007194 15.803711,0.28111201 15.647743,0.42222595 L 15.41747,0.35640563 c -0.02477,-0.007431 -0.04953,-0.0147729 -0.0743,-0.0197266 -0.101552,0.22415764 -0.20189,0.44963144 -0.303437,0.67378903 -0.0099,0.00248 -0.157109,0.029871 -0.169493,0.028633 -0.0025,0.00372 -0.05457,0.00867 -0.06695,0.012383 -0.0099,0.00372 -0.02214,0.00374 -0.03328,0.00621 -0.03591,0.00619 -0.07216,0.012362 -0.106836,0.018555 -0.08174,0.013623 -0.163224,0.028498 -0.244961,0.043359 -0.02972,0.082975 -0.05937,0.1670245 -0.08785,0.25 l 0.0039,0 -7.82e-4,0.00117 -0.0031,0 c -0.0322,0.091645 -0.06349,0.1835116 -0.09445,0.2751562 -0.169666,0.018577 -0.338069,0.037165 -0.507735,0.055742 -0.005,0 -0.01101,9.164e-4 -0.01473,-0.00156 -0.111459,-0.081737 -0.221754,-0.1620911 -0.333203,-0.2438281 -0.03963,-0.029723 -0.07795,-0.058262 -0.118828,-0.085508 l -2.056954,0 c -0.01115,-0.042107 0.03715,-0.1174997 0.06192,-0.1509375 0.0074,-0.00991 0.0184,-0.016097 0.02707,-0.024766 0.0012,-0.00124 0.0015,-0.00263 0.0027,-0.00387 0.005,-0.00867 0.01363,-0.014964 0.01859,-0.023633 0.0025,-0.00372 0.0037,-0.0098 0.0062,-0.013516 0.005,-0.011146 -0.01239,-0.017182 -0.01859,-0.020898 -0.0062,-0.011146 -0.01394,-0.028718 -0.02633,-0.033672 0,0 -0.005,0.00146 -0.0062,0.0027 -0.0074,0.00743 -0.01581,0.013534 -0.02324,0.019727 -0.01239,0.00867 -0.0398,0.021221 -0.04723,0.034844 -0.01362,0.024769 -0.01732,0.020982 -0.03094,0.03832 -0.0161,0.021054 -0.02834,0.037212 -0.03949,0.060742 -0.0012,0.00372 9.44e-4,0.015944 -0.0015,0.020898 -0.01239,0.030961 -0.02331,0.061864 -0.03445,0.094062 l -0.0027,0 -7.3946482,0.0027 0,1.8720312 3.2332032,2.5586328 12.106094,0 c 0.0012,-0.046665 0.0103,-0.030723 0.03871,-0.049258 -0.0012,-0.014861 -0.05721,-0.048206 -0.07082,-0.056875 -0.05325,-0.033438 -0.0818,-0.1175184 -0.14125,-0.1571484 -0.01362,-0.00867 -0.05574,-0.036063 -0.06812,-0.041016 -0.04706,-0.021053 -0.05311,-0.016266 -0.101406,-0.047227 -0.0062,-0.00372 -0.0136,-0.00239 -0.01855,-0.00734 -0.0025,-0.00372 -0.0037,-0.00597 -0.0062,-0.00969 -0.0037,-0.019815 0.02089,-0.026019 -0.0039,-0.055742 l -0.0074,-0.00152 -0.0012,0.00891 c 0.0012,0.00619 0.0073,0.00849 0.0085,0.014687 -0.0037,0.013623 -0.01225,0.024765 -0.01473,0.037148 -0.0025,0.00248 -0.0063,0.00504 -0.01004,0.00504 -0.005,-0.00495 -0.0099,-0.022441 -0.01238,-0.028633 0.0025,-0.011146 0.01267,-0.019506 0.01391,-0.029414 0.0012,-0.00867 -0.004,-0.020136 0.0046,-0.026328 l 0,-0.00465 c -0.02848,-0.032199 -0.06036,0.012236 -0.09133,-0.028633 0.0012,-0.00372 0.0024,-0.00984 0.0012,-0.013555 -0.0025,0 -0.01382,0.013422 -0.02125,0.015898 -0.0062,0.00248 -0.01347,2.84e-4 -0.0209,0.00152 -0.0037,0.00124 -0.006,0.00487 -0.0085,0.00734 -0.0074,0.00372 -0.0161,-0.0027 -0.02477,-0.0027 -0.01238,-0.00124 -0.02484,0.00518 -0.03598,0.0027 -0.0087,-0.00124 -0.01266,-0.00867 -0.02133,-0.012383 -0.0025,-0.00124 -0.0072,0 -0.0097,0 -0.02228,0.035915 -0.04342,-0.015078 -0.05457,-0.015078 l -0.0023,0.00621 -0.005,0.0027 -0.0039,-0.00387 c 0.0025,-0.022292 -0.02453,-0.085373 -0.04063,-0.1002344 -0.01858,-0.017338 -0.04237,-0.024781 -0.05227,-0.055742 -0.01362,-0.042107 0.02601,-0.062996 -0.02476,-0.095195 -0.01362,-0.040868 0.01751,-0.044747 0.02246,-0.071992 0.0037,-0.02353 -1.4e-4,-0.068255 -0.01004,-0.090547 -0.0037,-0.00991 -0.0124,-0.014573 -0.01859,-0.023242 -0.0099,-0.0161 -0.01116,-0.033497 -0.02477,-0.048359 l -0.0073,-0.00117 c -0.0037,-0.00495 -0.0012,-0.00899 -0.0012,-0.013945 -0.0012,-0.012384 -0.0087,-0.023202 -0.01121,-0.035586 -0.0025,-0.00248 -0.0075,-0.00504 -0.01121,-0.00504 -0.0037,-0.00619 -0.0011,-0.021136 -0.0023,-0.029805 -0.0025,-0.0161 -0.01,-0.033431 -0.01121,-0.049531 -0.0025,-0.029723 0.0012,-0.063169 -0.005,-0.092891 -0.0074,-0.035915 -0.02214,-0.045661 -0.03328,-0.07043 l -0.01742,-0.066953 c 0,-0.014861 -0.0026,-0.055807 -0.01008,-0.066953 -0.0087,-0.00248 -0.01592,-0.014858 -0.01469,-0.024766 -0.03096,-0.049538 -0.03484,-0.029643 -0.03484,-0.1002344 -0.0037,-0.00991 -0.03931,-0.021219 -0.03559,-0.047227 l 0.0035,-0.00348 0.0062,0.00348 0.0012,0.00621 c 0.0062,0.00619 0.01,0.011296 0.01742,0.01625 l 0.005,-0.00387 c 0.0025,-0.00743 -0.0025,-0.023392 0,-0.039492 -0.0025,-0.00248 -0.0039,-0.0075 -0.0039,-0.011211 0.0025,-0.00372 0.0052,-0.00605 0.0089,-0.00852 0.0037,-0.00743 -0.0014,-0.013924 0.0023,-0.020117 l 0.0062,-0.00117 0.01008,0.00734 0.0074,0 0.0023,-0.00617 c -0.0012,-0.00248 -0.006,-0.00621 -0.0097,-0.00621 -0.0037,-0.00619 0.01107,-0.050613 -0.005,-0.082813 0.0025,-0.00124 0.0063,-0.00237 0.01004,-0.00113 l 0.0035,-0.00504 c 0,-0.00991 -0.0086,-0.014811 -0.0074,-0.032149 0.0012,-0.018577 0.01345,-0.028544 0.0085,-0.048359 -0.0037,0.00248 -0.006,0.00481 -0.0085,0.00852 l -0.0039,-0.00465 c 0.005,-0.00991 0.004,-0.014925 0.0015,-0.023594 -0.0025,-0.00248 -0.005,-0.00487 -0.0062,-0.00734 -0.0012,-0.00743 0.0048,-0.013964 0.0023,-0.020156 -0.01486,-0.012384 -0.01966,-0.034413 -0.03328,-0.046797 -0.0012,-0.00991 -1.2e-4,-0.018831 -0.0039,-0.0275 -0.0087,-0.019815 -0.05334,-0.078962 -0.04219,-0.097539 -0.0037,-0.00619 -0.0038,-0.013924 -0.005,-0.020117 0.005,-0.00619 0.01,-0.010905 0.01742,-0.015859 0.0025,0.00124 0.0061,0.00481 0.0074,0.00852 l 0.0027,-0.00504 c 0,-0.02353 -0.0074,-0.035821 -0.01351,-0.056875 -0.0062,-0.019815 -0.0012,-0.043271 -0.0062,-0.063086 -0.0074,-0.027246 -0.01874,-0.052024 -0.02246,-0.080508 -0.0037,-0.024769 0.0023,-0.051873 0.0023,-0.076641 -0.0012,-0.030961 -0.0086,-0.060692 -0.0074,-0.092891 0,-0.021054 0.01361,-0.036212 0.01238,-0.057266 -0.0025,-0.030961 -0.01966,-0.036926 -0.0085,-0.071602 0.0012,-0.00619 0.0025,-0.012468 0.0062,-0.017422 l 0.005,-0.0023 0.0074,0.00117 0.0035,0.00348 c -0.0025,0.00495 -0.0098,0.00757 -0.01473,0.010039 l 0,0.00621 0.0062,0 c 0.0099,-0.00619 0.0222,-0.010058 0.03211,-0.01625 0.0012,-0.00743 -0.0085,-0.017135 -0.0085,-0.028281 0,-0.018577 0.0063,-0.037126 0.005,-0.055703 -0.0012,-0.017338 -0.01744,-0.034669 -0.02363,-0.049531 -0.01237,-0.029723 -0.0077,-0.052026 -0.01508,-0.068125 -0.0037,-0.00867 -0.01976,-0.041033 -0.02594,-0.047226 -0.005,-0.00495 -0.0098,-0.00743 -0.01356,-0.012383 0.0025,-0.013623 0.0063,-0.03087 0.005,-0.044492 -0.0012,-0.012384 -0.0075,-0.018725 -0.01121,-0.028633 -0.0037,-0.00991 0.0038,-0.019612 -0.0012,-0.028281 -0.0025,-0.00495 -0.0076,-0.00889 -0.01004,-0.015078 -0.0012,-0.00124 -0.0085,-0.053008 -0.0085,-0.053008 0,-0.00495 0.0024,-0.010164 0.0012,-0.015117 0,-0.00867 -0.0061,-0.016097 -0.0074,-0.024766 -0.0012,-0.00495 0.0012,-0.00973 0,-0.014687 -0.0012,-0.00619 -0.0063,-0.012251 -0.01121,-0.014727 0.0012,-0.00619 -0.0026,-0.0075 -0.0039,-0.011211 -0.0025,-0.00743 0.0013,-0.019964 -0.0012,-0.028633 -0.0025,-0.013623 -0.0137,-0.024697 -0.01742,-0.03832 -0.0025,-0.00867 1.6e-4,-0.019964 -0.0023,-0.028633 -0.0012,-0.00495 -0.0087,-0.011078 -0.01238,-0.013555 -0.0037,-0.00619 0.0024,-0.027241 0.0012,-0.037148 -0.0037,-0.028484 -0.03444,-0.012396 -0.01586,-0.055742 0.0012,-0.00495 0.0024,-0.012143 0.0074,-0.015859 0.0062,-0.00248 0.02212,9.38e-4 0.02707,0.00465 l 0.0039,-0.00234 c -0.0025,-0.00495 -0.01015,-0.014705 -0.0089,-0.020898 0.0025,-0.014861 0.02115,-0.023743 0.02363,-0.052227 0.0025,-0.028484 0.01368,-0.013398 -0.0074,-0.046836 l 0,-0.00773 c 0.0074,-0.013623 0.02114,-0.019831 0.0298,-0.030977 0.0087,-0.00495 0.02356,0.00396 0.03098,0.00891 0.0025,0.013623 0.005,0.073059 0.005,0.074297 0.0062,0.00743 0.01453,0.00224 0.0232,0.00348 0.0074,0.011146 0.01129,0.027499 0.01625,0.039883 0.005,0.013623 0.01734,0.020897 0.02477,0.033281 0.0037,0.00495 0.0051,0.013534 0.0039,0.019727 -0.01115,-0.00495 -0.02873,-0.023307 -0.03367,-0.034453 l -0.0035,0.00117 c 0.0025,0.014861 0.01724,0.055674 0.0259,0.069297 l 0.0062,0.0027 c 0,-0.00495 0.0023,-0.00991 0.0085,-0.012383 l 0.0074,0.00117 c 0.0062,-0.00372 0.01396,-0.00117 0.02016,-0.00117 0.0161,-0.00743 0.0059,-0.026003 0.01082,-0.037149 l 0.005,-0.00273 0.0027,-0.00734 c -0.0037,-0.00867 -0.01246,-0.011276 -0.01742,-0.022422 -0.0049,-0.011146 -0.0024,-0.022241 -0.0074,-0.032148 -0.01238,-0.026007 -0.0421,-0.057958 -0.06191,-0.077773 -0.01238,-0.012384 -0.09539,-0.095499 -0.0991,-0.1029296 -0.0037,-0.00743 -0.0052,-0.016202 -0.0089,-0.023633 -0.0062,-0.014861 -0.01744,-0.027327 -0.02363,-0.042188 -0.0099,-0.022292 -0.02103,-0.04427 -0.03094,-0.066562 -0.01115,-0.02353 -0.04319,-0.1214554 -0.05805,-0.1350782 -0.0074,-0.00743 -0.01861,-0.00385 -0.0248,-0.010039 -0.0025,-0.00619 2e-4,-0.014705 -0.0023,-0.020898 -0.0037,-0.012384 -0.01626,-0.018831 -0.02246,-0.0275 -0.0025,-0.00867 0.0038,-0.026002 0.005,-0.037148 -0.0074,-0.00743 -0.01733,-0.00865 -0.02477,-0.018555 0.0025,-0.012384 0.01107,-0.019831 0.01355,-0.030977 -0.0025,-0.00372 -0.0049,-0.00721 -0.0074,-0.00969 -0.01361,-0.00124 -0.04961,0.00382 -0.05457,-0.013516 l 0.0023,-0.00621 0.005,-0.00387 c 0.0074,-0.00124 0.01504,0.00263 0.02246,0.00387 l 0.005,-0.0027 c 0.0099,-0.012384 -0.01619,-0.081678 -0.0298,-0.094062 -0.0049,-0.013623 0.01108,-0.045749 -0.01121,-0.050703 -0.01115,0 -0.01984,0.01216 -0.03098,0.00969 l -0.0039,-0.00465 c 0.005,-0.019815 0.01868,-0.019945 0.03602,-0.022422 0.0012,-0.00372 -0.005,-0.052093 -0.0062,-0.05457 0.0025,-0.00248 0.0039,-0.00867 0.0027,-0.012383 l -0.0039,-0.00348 -0.0062,-0.00156 c -0.01858,0.00495 -0.02351,0.013709 -0.04332,0.00504 l -0.0012,-0.00621 -0.0039,-0.0023 c -0.0037,0.00124 -0.0098,0.00124 -0.01356,0 l -0.0023,-0.00504 c 0,-0.00372 0.0022,-0.00991 0.0046,-0.012383 0.0087,-0.00372 0.02725,-0.00478 0.03715,-0.0023 0.0037,-0.00248 0.0075,-0.00497 0.01125,-0.00621 0.0074,-0.00867 0.0025,-0.028547 -0.0062,-0.035977 -0.0012,-0.019815 0.02716,-0.039556 0.01973,-0.063086 -0.0062,-0.017338 -0.05062,-0.019811 -0.05805,-0.037149 l 0,-0.00773 0.0039,-0.00621 0.0062,-0.00117 c 0.0062,0.00124 0.01091,0.00637 0.01586,0.010078 0.0099,0.00372 0.01633,-0.00378 0.02129,-0.011211 0,-0.00743 0.0022,-0.017507 -0.0015,-0.022461 l 0.0039,-0.00852 -0.0062,0 c 0.0062,-0.00619 0.01354,-0.00495 0.01973,-0.012383 0,-0.011146 -1.2e-4,-0.022135 -0.005,-0.033281 -0.0099,-0.024769 -0.02723,-0.029783 -0.04332,-0.048359 -0.0099,-0.011146 -0.02085,-0.032432 -0.02828,-0.046055 -0.0037,-0.00619 -0.01,-0.018288 -0.01738,-0.023242 -0.01238,-0.00867 -0.03097,-0.00897 -0.04336,-0.020117 -0.0012,-0.00495 -0.0024,-0.012144 -0.0074,-0.015859 l -0.01625,0 -0.005,-0.00387 c -0.0012,-0.00867 -0.006,-0.014639 -0.0097,-0.02207 l -0.0062,0 c -0.0037,0.00248 -0.0074,0.0071 -0.0074,0.01082 l -0.005,0.00273 -0.0074,-0.00117 c -0.0037,-0.00372 -0.0076,-0.010124 -0.01008,-0.015078 -0.0037,-0.00248 -0.0074,-0.0038 -0.01238,-0.00504 -0.0062,-0.00495 -0.0074,-0.013533 -0.01238,-0.019726 -0.0074,-0.00743 -0.03708,-0.012229 -0.0507,-0.020898 -0.02105,-0.013623 -0.02864,-0.032213 -0.04102,-0.043359 -0.0087,-0.00743 -0.01616,-0.011058 -0.02359,-0.019727 -0.0087,-0.00372 -0.01612,0.00115 -0.03098,-0.00504 -0.01115,-0.00495 -0.02097,-0.01725 -0.03211,-0.019726 -0.02105,-0.00495 -0.04437,-3.042e-4 -0.06543,-0.00773 -0.03591,-0.0123844 -0.07823,-0.0851718 -0.101758,-0.11613279 -0.0074,-0.009908 -0.03592,-0.0259837 -0.03715,-0.0309375 0.0012,-0.008669 0.01004,-0.0112484 0.01004,-0.0236328 -0.01733,-0.0297226 -0.06689,-0.0434893 -0.08051,-0.0657812 -0.01238,-0.0210535 -0.02118,-0.0853066 -0.0348,-0.10140626 -0.0037,-0.004954 -0.01101,-0.007496 -0.01473,-0.0112109 -0.0025,-0.002477 -0.0026,-0.007496 -0.005,-0.0112109 0,-0.001238 -0.03821,-0.0359491 -0.03945,-0.0371875 -0.01734,-0.007431 -0.0361,-0.009886 -0.05344,-0.0185547 -0.0099,-0.004954 -0.01866,-0.0110113 -0.0298,-0.0147266 -0.0161,-0.004954 -0.03343,-0.002457 -0.04953,-0.006172 -0.02105,-0.006192 -0.04931,-0.0185937 -0.0716,-0.0185937 -0.02229,0 -0.04349,0.026004 -0.06578,0.0247656 -0.02972,-0.002477 -0.0384,-0.0482929 -0.08051,-0.0495313 -0.0087,-0.002477 -0.01627,-0.017335 -0.02246,-0.0247656 -0.01115,-0.0123844 -0.02949,-0.0197453 -0.03445,-0.0259375 -0.03591,-0.0445838 -0.01978,-0.0881552 -0.09285,-0.0955859 -0.0074,-0.001238 -0.01385,-0.003544 -0.02129,-0.002305 l -0.0023,0.005039 c 0.005,0.007431 0.01108,0.009819 0.01356,0.0197266 l -0.005,0.003477 -0.0074,-0.001172 c -0.0087,-0.004954 -0.01595,-0.0272409 -0.0209,-0.0371484 -0.0025,-0.002477 -0.0087,-0.002305 -0.01121,-0.002305 -0.0025,0.002477 -0.0063,0.004867 -0.01008,0.007344 -0.0012,-0.001238 -0.0022,-0.003734 -0.0046,-0.006211 -0.0012,-0.009908 0.0022,-0.0409287 0.0097,-0.0483594 0.01362,0 0.02733,0.0259172 0.04219,0.0321094 l 0.0074,0 0.0027,-0.006172 c -0.0062,-0.0136228 -0.01979,-0.0283259 -0.01855,-0.0456641 l -0.0062,0 -0.0039,0.005039 -0.0012,0.007344 -0.005,0.003867 c -0.0062,-0.002477 -0.0075,-0.008992 -0.01121,-0.0139453 -0.0037,-0.002477 -0.0086,-0.003477 -0.01355,-0.003477 l -0.0012,-0.006211 c 0.0025,-0.004954 0.0085,-0.009973 0.01469,-0.0112109 l 0.0027,-0.005039 c -0.0012,-0.003715 -0.03225,-0.0285443 -0.04215,-0.0483594 -0.0025,-0.006192 -0.0052,-0.0257653 -0.0089,-0.0282422 -0.0037,0.001238 -0.0072,0.003695 -0.0097,0.006172 l -0.0074,-0.002695 c -0.0037,-0.0136228 0.0022,-0.0232406 0.0046,-0.035625 0.0037,-0.0185766 -0.01457,-0.06966559 -0.02324,-0.08824219 -0.0037,-0.01112257 -0.05443,-0.05277134 -0.0768,-0.0714062477 z M 17.285166,1.0104681 l -0.005,0.00371 -0.0025,0.00621 0.0012,0.00617 0.005,0.00371 c 0.0074,-9.224e-4 0.01551,-0.00185 0.02277,3.516e-4 0.0024,7.35e-4 0.0048,0.00181 0.007,0.00336 l 0.0062,-0.00121 8e-5,0 c 0.0087,-0.023532 -0.02107,-0.022305 -0.03469,-0.022305 z m 0.715703,1.7462109 c -0.0111,0.00248 -0.0087,0.016086 -0.0099,0.023516 -0.0013,0.00371 -0.0038,0.00866 -0.005,0.012383 -0.0038,0.017338 0.0012,0.034693 0.0012,0.052031 0,0.00867 -0.0062,0.022297 -0.0012,0.029727 l 0.0062,0.00246 0.005,-0.00246 c 0.01732,-0.030961 0.0099,-0.074342 0.01981,-0.09168 l 0.0087,-0.00742 0.0012,-0.00617 c -0.0025,-0.00371 -0.0062,-0.00618 -0.0099,-0.00742 l -0.0074,0.00121 -4e-5,0 -0.0087,-0.00617 z m 1.117148,1.9121486 -0.0062,0.00125 -0.0025,0.00617 0.0037,0.00621 0.0062,-0.00125 0.0025,-0.00742 -0.0037,-0.00496 z m -0.02726,0.4520312 -0.0099,0.00125 -0.0037,0.00492 c 0.0012,0.00371 0.0025,0.00866 0.0037,0.012383 0.0025,0.00123 0.02227,0.00372 0.02726,0.00496 l 0,-0.00742 c -0.005,-0.00619 -0.01234,-0.011144 -0.01734,-0.016094 z m -0.651368,0.014844 -0.005,0.00371 c -0.0099,0.030961 -0.02602,0.011183 -0.0384,0.016133 -0.0012,0.00743 0.005,0.013605 0.01117,0.018555 0.0074,0.00247 0.0235,-0.00494 0.03465,-0.00246 0.02229,0.00495 0.0285,0.032199 0.04832,0.042109 0.01362,0.00743 0.04208,-0.00743 0.04828,0.012383 l -0.0012,0.00617 c -0.0025,0.00248 -0.0062,0.00741 -0.0062,0.011133 l 0.0062,0 c 0.005,-0.00371 0.0087,-0.00866 0.01238,-0.012383 l 0.0012,-0.00617 c -0.0012,-0.00124 -0.07181,-0.052031 -0.09039,-0.085469 -0.0062,-0.00124 -0.01363,-0.00247 -0.02102,-0.00371 z m 0.482891,0.049531 c -0.0061,0.00248 -0.0099,0.017326 -0.01113,0.023516 0.0013,0.00372 0.0025,0.00745 0.005,0.011172 l 0.0062,0 0.0037,-0.00496 c 0.0074,0.00124 0.01612,0.00371 0.02352,0.00371 l 0.0025,-0.00492 -4e-5,-4e-5 c -0.0037,-0.021057 -0.01732,-0.016067 -0.02352,-0.025977 l -0.0062,-0.0025 z m -0.351719,0.044609 -0.0025,0.00246 0.0037,0.00371 c -0.0013,0.00495 -0.0013,0.00868 -0.0025,0.013633 l 0.005,0.00371 0.005,-0.00371 0.0025,-0.00617 c -0.0024,-0.00495 -0.0062,-0.011153 -0.01117,-0.013633 l -4e-5,0 z m 0.02895,0.031055 c -0.0022,-1e-4 -0.0043,2.02e-4 -0.0065,0.00113 l 0.0012,0.00496 c 0,0 0.0359,0.017325 0.0409,0.019805 l 0.0012,-0.00617 c -0.005,-0.00619 -0.0074,-0.014874 -0.01484,-0.018594 l -0.0025,0.00492 c -0.0065,-0.00186 -0.01293,-0.00577 -0.01941,-0.00605 z"
     id="rect4"
     inkscape:connector-curvature="0" />
  <path
     style="fill:#000000"
     clip-path="none"
     d="m 7.0595794,11.608281 -5.1625,3.948242 c 0.016043,0.02708 0.03173,0.05459 0.047383,0.08113 0.044584,0.07677 0.090713,0.153595 0.1377734,0.22914 0.0161,0.02723 0.045729,0.06561 0.056875,0.09285 0.00248,0.0062 0.020831,0.159862 0.02207,0.166055 0,0.0012 0.01486,0.09916 0.012383,0.104101 -0.0064,0.01708 -0.017068,0.03042 -0.026328,0.04488 -0.00238,0.0016 -0.00464,0.0033 -0.0093,0.01316 -0.00124,0.0025 -0.00263,0.01758 -0.00387,0.02129 -0.00372,0.0099 -0.014906,0.01584 -0.017383,0.03441 l -0.020898,0.01625 -0.00504,0.01977 0.028633,0.0023 0.00348,0.005 c -0.013623,0.01113 -0.02972,0.07053 -0.024766,0.08168 l 0.011211,0.02863 c 0.00619,-0.0074 0.023374,-0.01988 0.033281,-0.01121 l 0.00504,0.01859 c -0.00619,0.0198 -0.0124,0.03979 -0.030977,0.0534 l -0.005,0.01586 c -0.00619,0.02601 -0.01091,0.0545 -0.00348,0.08051 0.00619,0.01982 0.022028,0.02724 0.00965,0.04953 l -0.022031,0.0015 c -0.00991,0.0074 -0.018679,0.0198 -0.023633,0.03094 l -0.00113,0.01859 c -0.029723,0.01858 -0.049785,0.04317 -0.077031,0.06422 -0.017338,0.01362 -0.034367,-0.006 -0.041797,-0.0023 l -0.00504,0.0074 -0.01625,0.0012 -0.0023,0.02707 -0.01625,0.01008 c -0.00248,0.0161 -0.00606,0.0273 -0.00234,0.04215 0.00124,0.0037 0.00241,0.01218 0.00117,0.0159 -0.00248,0.0062 -0.00874,0.01384 -0.011211,0.02125 -0.00495,0.01238 6e-5,0.02482 -0.00117,0.03719 -0.00124,0.0087 -0.018488,0.02079 -0.019727,0.03441 l 0.00348,0.0077 0.015078,0.0074 c 0.00248,0.005 0.00124,0.01983 0,0.02477 l 0.0023,0.0035 c 0,0 0.023785,0.01147 0.0275,0.01394 0.02353,0.0161 0.019808,0.0061 0.049531,0.0074 0.0161,-0.01609 0.03087,-0.03599 0.044492,-0.05457 l 0.00852,0.0012 0.01125,0.01238 c 0.00248,0.01609 -0.00117,0.02726 -0.00117,0.04336 0,0.0025 0.0023,0.0087 0.0023,0.01238 0.00372,0.03095 -0.00604,0.05439 -0.020898,0.08164 0,0.0012 -0.00493,0.0139 -0.00617,0.01512 -0.00619,0.0099 -0.022242,0.03596 -0.032149,0.04215 -0.00867,0.0062 -0.018792,0.0061 -0.027461,0.01356 -0.012384,0.01982 -0.0023,0.02215 -0.0023,0.03949 0,0.0074 -0.00273,0.02857 -0.00273,0.0298 l 0.012383,0.01121 0,0.03832 c 0.00991,0.0062 0.030975,0.01356 0.043359,0.01356 0.00495,-0.0087 0.014925,-0.02486 0.023594,-0.0298 0.0161,-0.0025 0.057197,-0.0085 0.07082,-0.0023 0.033438,0.0161 0.043354,0.02116 0.080508,0.02363 0.00991,0 0.034605,0.0097 0.03832,0.0085 l 0.051875,-0.01973 c 0.011146,-0.005 0.02987,0.0049 0.041016,-0.005 0.022292,0.0037 0.041927,0.01486 0.064219,0.02477 0.013623,-0.0012 0.027433,-0.006 0.041055,-0.0085 0.024769,-0.0049 0.045661,-0.0098 0.07043,-0.0012 0.00991,0.0037 0.019792,0.01602 0.030937,0.01973 0.00867,0.0037 0.020003,-0.0015 0.028672,-0.0027 0.021053,-0.0012 0.038232,0.01015 0.058047,0.0089 0.021054,0 0.054482,0.0074 0.074297,0.01355 0.00991,-0.0012 0.029651,-0.01363 0.03832,-0.01859 0.021868,0.0025 0.036619,0.02151 0.047695,0.0234 l 0.00102,0 c 0.00638,-0.0027 0.022109,-0.01342 0.022109,-0.01953 0.00619,-0.0062 0.02344,-0.01238 0.032109,0 0,0 0.173392,-0.109118 0.2229296,-0.127695 0.049538,-0.01858 0.1733594,-0.08672 0.1733594,-0.08672 0,0 -0.00617,-0.07429 -0.00617,-0.09906 0,-0.02477 -0.012383,-0.09907 -0.012383,-0.130039 0,-0.03096 -1e-6,-0.09907 0.012383,-0.130039 0.012384,-0.03096 0.043338,-0.08048 0.049531,-0.111445 0.00619,-0.03096 0.012402,-0.06193 -0.00617,-0.09289 -0.018577,-0.03096 0.00617,-0.06191 0.00617,-0.06191 0,0 0.068122,-0.02478 0.092891,-0.04336 0.024769,-0.01858 0.049531,-0.06191 0.049531,-0.06191 l 0.010078,-0.336719 -0.010078,-0.0039 0,-0.0023 0.010078,0.0035 c 0.011146,-0.0025 0.022202,-0.0062 0.032109,-0.01238 0.019815,-0.01362 0.015963,-0.02576 0.027109,-0.04063 0.027246,-0.0087 0.039707,-0.0027 0.066953,-0.0275 0.021053,-0.01858 0.035908,-0.02963 0.061914,-0.04449 0.058207,-0.03468 0.031086,-0.04344 0.05957,-0.07316 0.052015,-0.05449 0.040748,-0.09758 0.058086,-0.114922 0.017338,-0.01982 0.021097,-0.03601 0.029766,-0.06078 0.014861,-0.04086 -0.032265,-0.08419 -0.011211,-0.111445 l 0.00504,-0.0074 c 0.013623,-0.01982 0.00991,-0.04103 0.024766,-0.05961 0.0161,-0.01982 0.013686,-0.0333 0.023594,-0.05188 0.00124,-0.0037 0.045596,-0.02509 0.059219,-0.02633 0.032199,-0.0012 0.039878,0.01263 0.077031,-0.0097 0.018577,0.0074 0.028393,0.005 0.044492,-0.0074 0.00743,0 0.017335,0.0048 0.024766,0.0085 0.030961,0.01362 0.029801,0.0063 0.05457,-0.0012 0.00124,0 0.0011,0.0012 0.00234,0.0012 0.035915,0.0099 0.039469,-0.01356 0.07043,-0.01356 0.045822,0 0.052221,-0.02101 0.1017578,-0.01855 0.087929,0.005 0.1487088,-0.05565 0.2279688,-0.0507 0.024769,0.0012 0.045728,-0.0099 0.069258,-0.01238 0.048299,-0.0037 0.044458,0.02078 0.095234,-0.01512 0.021053,-0.005 0.043556,-0.0084 0.064609,-0.01586 0.012384,0.0012 0.056827,0.01238 0.064258,0.02477 0.00867,0.01362 0.017335,0.02209 0.024766,0.02828 0,0 0.049527,0.184605 0.08668,0.221758 0.037153,0.03715 0.068141,0.09906 0.099102,0.136211 0.030961,0.03715 0.1052344,0.130039 0.1052344,0.130039 l 0.074336,0.117656 c 0,0 0.061891,0.173391 0.092852,0.235313 0.030961,0.06192 0.043353,0.09905 0.092891,0.117617 0.049538,0.01858 0.241517,0.08053 0.2910546,0.0991 0.049538,0.01858 0.1114594,0.03093 0.1548048,0.01855 0.043345,-0.01238 0.2848202,-0.148591 0.3157812,-0.160976 0.030961,-0.01238 0.117667,-0.01238 0.1857812,-0.01238 0.068114,0 0.3591348,0.01238 0.4086718,0.01238 0.048659,0 0.4309014,0.01752 0.4446876,0.01816 l 0.00969,0.01898 0.1548046,0.303398 0.8173438,0 0.074336,-0.06809 c 0,0 -4.4e-6,-0.04336 0.037149,-0.09289 0.02353,-0.0322 0.1017888,-0.125077 0.1637108,-0.191953 l 0,-0.0093 0.00113,-0.0012 0,0.0081 c 0.037153,-0.04087 0.067972,-0.07191 0.076641,-0.07934 0.00867,-0.0062 0.017592,-0.01137 0.0275,-0.01508 0.018577,-0.0074 0.040622,-0.0097 0.065391,-0.0097 0.037153,0 0.4767968,-0.01859 0.4767968,-0.01859 l 0.037148,-0.377735 0.464414,-0.297226 0.4334376,0.222929 0.5758986,0.458242 c 0,0 0.396301,0.0062 0.452031,0.0062 0.05573,0 0.08049,-0.0062 0.111445,-0.03715 l 0.117657,-0.117656 c 0,0 0.470601,-0.575857 0.501562,-0.600625 0.03096,-0.02476 0.04336,-0.08049 0.05574,-0.111446 0.01238,-0.03095 0.08051,-0.161015 0.08051,-0.161015 l 0.551094,-0.507774 0.105273,-0.06191 c 0,0 -0.154804,-0.222906 -0.154804,-0.253867 0,-0.03095 0.01857,-0.501559 0.01238,-0.526328 -0.0062,-0.02476 -0.05574,-0.06195 -0.05574,-0.06195 l -0.272461,-0.235274 0.668789,-0.0027 c 0,-0.0161 0.01742,-0.0569 0.0298,-0.07547 0.0012,-0.05325 0.005,-0.04462 -0.01356,-0.0991 -0.02725,-0.07802 0.0062,-0.09775 -0.01238,-0.162149 l 0.0209,-0.0012 0.656367,0 c 0.02477,0 0.09289,0.03214 0.04336,0.0693 -0.04954,0.03715 -0.04955,0.06809 -0.05574,0.09906 -0.0062,0.03096 -0.05574,0.167201 -0.05574,0.22293 0,0.05573 -0.03094,0.2415 -0.03094,0.272461 0,0.03096 0.0062,0.10525 -0.02477,0.136211 -0.03096,0.03096 -0.01242,0.08668 -0.01242,0.08668 l 0.06195,0.123867 0.0743,0.643984 c 0,0 -0.0062,0.06193 -0.01238,0.09289 -0.0062,0.03096 -0.0062,0.06191 -0.0062,0.06191 l 0.321993,0.105273 0.185781,0.235274 0.222891,0.235312 0.06195,0.105274 0.09906,0.01238 c 0,0 0.01857,0.371539 -0.01859,0.4025 -0.03715,0.03096 -0.09285,0.130034 -0.09285,0.167187 0,0.03715 -0.0062,0.216719 -0.0062,0.216719 l 0.215547,0.02363 c -0.005,-0.04457 -0.01229,-0.107987 -0.0074,-0.126563 0.01115,-0.03715 0.02477,-0.07166 0.03715,-0.107578 0.0062,-0.01734 0.01006,-0.03724 0.01625,-0.05457 0.0025,-0.0062 0.006,-0.01122 0.0085,-0.01742 0.0062,-0.0161 0.0098,-0.03461 0.01469,-0.0507 0.0099,-0.03096 0.02377,-0.06076 0.03367,-0.09172 0.0037,-0.01115 0.0036,-0.02331 0.0085,-0.03445 0.0049,-0.0099 0.01255,-0.01873 0.01625,-0.02863 0.005,-0.01115 0.0012,-0.02824 0,-0.04063 l 0,-0.0039 c 0.0037,-0.04211 -0.0087,-0.128665 0.03211,-0.157149 0.01362,-0.01115 0.08659,-0.05728 0.09402,-0.07586 0.0025,-0.0062 0.0014,-0.01478 0.0039,-0.01973 0.01486,-0.03096 0.01107,-0.0234 0.01355,-0.05188 0,-0.0049 0.005,-0.02963 0.005,-0.03211 -0.0012,-0.01486 -0.0098,-0.03467 -0.01352,-0.04953 -0.01362,-0.05078 -0.02486,-0.104096 -0.04219,-0.153633 -0.0012,-0.0025 -0.0074,-0.01729 -0.0074,-0.01977 -0.0012,-0.02229 0.01718,-0.06951 0.03328,-0.08437 l 0.0012,-0.01238 c -0.0062,-0.01239 -0.0123,-0.02485 -0.01973,-0.03598 -0.0037,-0.0025 -0.0175,-0.0035 -0.02246,-0.0035 l -0.0085,-0.01121 c -0.0025,-0.01485 0.01107,-0.02849 0.01356,-0.04336 0.0099,-0.06067 0.0036,-0.03723 0.04453,-0.07934 l 0.06074,-0.06305 c 0.0012,-0.0012 0.03243,-0.06341 0.03367,-0.06465 0.01239,-0.02353 0.03097,-0.04559 0.04336,-0.0716 0.0161,-0.03095 0.04575,-0.05193 0.07547,-0.06926 0.03715,-0.02229 0.06786,-0.04709 0.102539,-0.07433 0.0062,0.0025 0.0113,0.0071 0.01625,0.01086 0.02105,0.01858 0.0408,0.03993 0.06309,0.05726 0.0099,0.0087 0.02371,0.01333 0.03484,0.02324 0.01734,0.0161 0.06192,0.07942 0.0743,0.08437 l 0.0159,-0.0012 c 0.0099,0.01734 0.0015,0.03717 0.0027,0.05574 0.0025,0.0025 0.0075,0.0074 0.01121,0.0074 0.05573,-0.07431 0.06161,-0.03237 0.07895,-0.04723 0.0087,-0.03839 0.05231,-0.05554 0.05727,-0.0766 0.0012,-0.0025 0.005,-0.02116 0.0062,-0.02363 0.01239,-0.02477 0.07912,-0.07901 0.07664,-0.102539 -0.0037,-0.0037 -0.01853,-0.02137 -0.01977,-0.02633 l 0.0023,-0.01473 -0.0097,-0.0039 c -0.0012,-0.005 -0.0012,-0.01482 0,-0.01977 0.0025,-0.0062 0.02207,-0.05945 0.02207,-0.06191 0.0074,-0.05449 0.02848,-0.105353 0.03715,-0.159844 0.0025,-0.0012 0.005,-0.0084 0.005,-0.01082 -0.0087,-0.05201 -0.04829,-0.06565 -0.06191,-0.105274 -0.0012,-0.0037 0.04589,-0.08544 0.04836,-0.111445 l 0.005,-0.0039 0,-0.0039 c 0.01362,-0.01858 0.03463,-0.04058 0.04453,-0.06039 0.0087,-0.0161 0.01971,-0.03499 0.0259,-0.05109 0.0037,-0.01115 -0.0026,-0.02941 0.0012,-0.0418 0.0087,-0.02972 0.03119,-0.05719 0.03367,-0.08938 0.0012,-0.01982 -0.0039,-0.04097 -0.0027,-0.06078 0.0025,-0.0322 0.0113,-0.03442 -0.0023,-0.06539 -0.01733,-0.0074 -0.02369,-0.03617 -0.02863,-0.05227 -0.0037,-0.01486 -0.0098,-0.03714 -0.0074,-0.04953 0.0037,-0.0161 0.05436,-0.08763 0.06426,-0.09754 0.01362,-0.01362 0.03113,-0.02601 0.04723,-0.03715 0.0074,-0.005 0.01379,-0.0064 0.02246,-0.0089 0.0025,-0.0037 0.08521,-0.06935 0.09016,-0.0743 0.0062,-0.0062 0.01879,-0.0123 0.02746,-0.01973 0.01238,-0.01115 0.01844,-0.0274 0.02711,-0.04101 0.0074,-0.01238 0.01004,-0.0433 0.01004,-0.05691 l 0.0035,-0.005 0.02359,0.0015 c 0.0161,-0.0025 0.02849,-0.04212 0.01859,-0.05574 l -0.01004,-0.01238 c 0.02229,-0.04582 0.04711,-0.08816 0.07312,-0.132735 0.0074,-0.0037 0.02121,-0.0035 0.02863,-0.0023 0.02725,-0.01857 0.03076,-0.04461 0.0097,-0.07434 0.0025,-0.0062 0.0063,-0.01119 0.01004,-0.01738 0.02848,-0.03963 0.05311,-0.08563 0.07664,-0.127734 0.01486,-0.02848 0.03354,-0.05426 0.0484,-0.08399 0.01733,-0.03467 0.03465,-0.06065 0.0557,-0.09285 0.0198,-0.02847 0.04104,-0.07308 0.05961,-0.105274 0,-0.0012 0.0022,-0.0027 0.0035,-0.0027 0.0099,0.0012 0.03465,0.0015 0.04332,-0.0035 0.01362,-0.0198 0.01116,-0.03845 0.0062,-0.06074 l 0.0027,-0.0039 c 0.01238,-0.0025 0.01844,-0.0049 0.02711,-0.01356 0.0198,-0.0062 0.01995,0.01864 0.05957,-0.0012 l 0.02363,0.01125 c 0.0074,-0.0025 0.01728,-0.0077 0.02594,-0.0089 0.01362,-0.0012 0.02824,-0.0025 0.04063,-0.0062 0.01734,-0.005 0.03494,-0.01602 0.05227,-0.01973 0.02105,-0.0037 0.05919,-0.0084 0.07777,-0.0159 0.01115,-0.005 0.02756,-0.0149 0.03871,-0.01738 0.01239,-0.0025 0.03327,-0.0087 0.04566,-0.0062 0.03344,0.0062 0.01748,0.01232 0.0534,0.0012 0.0012,0 0.0096,0.0012 0.01086,0.0012 0.0074,0.0087 0.02725,0.0087 0.03715,0.02477 -0.0025,0.0074 -9.44e-4,0.01743 0.0015,0.02363 0.0099,0.005 0.03461,1.6e-4 0.0507,0.0039 0.0062,-0.0087 -1.2e-4,-0.01388 0.0012,-0.02129 0.0012,-0.01982 0.01347,-0.03331 0.0209,-0.05188 0.0074,-0.01733 2.44e-4,-0.117653 0.0027,-0.142422 0,-0.01113 0.0087,-0.0236 0.0062,-0.03598 -0.0025,-0.01239 -0.025,-0.03469 -0.03367,-0.04336 -0.0012,-0.0012 -0.0034,-0.0073 -0.0046,-0.0085 0.0012,-0.03096 0.02455,-0.06592 0.03445,-0.09563 0,-0.0012 0.0012,-0.0038 0.0012,-0.005 0.0062,-0.05697 0.03378,-0.127537 0.04492,-0.185743 l 0.0023,-0.0074 c 0.0062,-0.02229 0.0286,-0.116417 0.03601,-0.13004 0.06068,-0.04211 0.05451,-0.06801 0.08051,-0.143554 0.01063,-0.02996 0.0413,-0.09716 0.05555,-0.133086 l -9.9406248,0 z"
     id="rect8"
     inkscape:connector-curvature="0" />
  <path
     style="fill:#007229"
     clip-path="none"
     d="m 3.6957122,3.0632806 0,0.7201172 -1.1703126,0 0,0.6029688 0,3.1332812 0,1.0441406 c 0,0.1325132 0.00237,0.2637762 0.00113,0.3962892 -0.013623,0.00372 -0.030869,0.00241 -0.044492,0.00117 -0.00124,-0.00124 -0.00224,-0.0023 -0.00348,-0.0023 -0.022292,-0.00495 -0.047072,-0.00775 -0.068125,-0.013945 -0.038392,-0.00991 -0.07455,-0.022308 -0.1141798,-0.030977 -0.018577,-0.00372 -0.056893,-0.00113 -0.075469,-0.00113 -0.021054,0 -0.044404,-0.00867 -0.064219,-0.012383 -0.00867,-0.00124 -0.018725,-0.00504 -0.028633,-0.00504 -0.064399,0.00372 -0.1200588,0.0051 -0.1807422,0.028633 -0.033438,0.012384 -0.071769,0.047054 -0.1064454,0.049531 -0.029723,0.00248 -0.065797,0.010997 -0.096758,0.00852 -0.021054,-0.00124 -0.1150924,-0.019507 -0.125,-0.017031 -0.00248,-0.00372 -0.00984,-0.010078 -0.013555,-0.010078 -0.00991,0.00495 -0.045967,0.00763 -0.053399,0.00391 -0.018577,-0.00867 -0.034688,-0.011167 -0.055742,-0.00621 -0.030961,0.022292 -0.02837,0.05194 -0.07543,0.063086 -0.011146,0.00619 -0.012419,0.045901 -0.037187,0.05457 l -0.00113,0.00348 -0.00273,0 c -0.00743,0.00991 -0.018659,0.022374 -0.029805,0.029805 -0.028484,0.0161 -0.034496,-0.015931 -0.064219,0.022461 -0.00619,0.00867 -0.012535,0.014858 -0.01625,0.024766 -0.00372,0.00991 -0.00467,0.026917 0.00152,0.035586 -0.00619,0.027246 -0.011277,0.033602 0.00234,0.059609 0.00124,0 0.058179,0.052178 0.068086,0.059609 0.018577,0.030961 0.00234,0.028173 0.00234,0.05418 0.00248,0.066876 0.010058,0.038383 0.01625,0.074297 -0.00372,0.021053 -0.02468,0.036079 -0.019727,0.059609 0.00372,0.00372 0.012212,0.022116 0.014687,0.02707 -0.00124,0.00743 -0.010973,0.011163 -0.014687,0.018594 -0.00495,0.00743 -0.00736,0.023613 -0.013555,0.029805 -0.00495,0.00372 -0.00867,0.0037 -0.012383,0.00617 -0.00991,0.00619 -0.044837,0.023678 -0.039883,0.041016 0.00619,0.019815 0.011317,0.034688 0.010078,0.055742 0,0.00124 0.00117,0.0038 0.00117,0.00504 l -0.022461,0.017031 c -0.00991,0.00248 -0.022135,-0.00489 -0.033281,-0.00117 -0.038392,0.013623 -0.032059,0.037317 -0.064258,0.059609 -0.00124,0.00124 -0.00263,-6e-5 -0.00387,0.00117 -0.013623,0.00991 -0.087764,0.075381 -0.095195,0.095195 -0.00495,0.012384 -0.00263,0.021288 -0.00387,0.033672 l 0.00387,0.00113 c 0.00372,0.011146 0.012083,0.027108 0.00465,0.039492 -0.00495,0.00743 -0.01364,0.00389 -0.018594,0.010078 -0.035915,-0.00867 -0.0742096,0.019788 -0.0816406,0.055703 0.02353,0.061922 0.0460525,0.1240118 0.0584375,0.1896488 l -0.00387,0.0062 -0.11652341,0.04332 c -0.014861,0.005 -0.1894097,0.01844 -0.193125,0.06426 l -0.005,-0.0074 -0.005039,0 c -0.02353,0.02105 -0.0284794,0.005 -0.0371484,0.01121 -0.00991,0.03715 -0.0210696,0.07167 -0.0309766,0.107578 l 0.003867,0.0023 0.01625,-0.0046 c 0.018577,0.0037 0.0393187,0.01984 0.0541797,0.03098 0,0.0012 0.002734,0.01114 0.002734,0.01238 -0.00867,0.05201 -0.009824,0.07399 -0.007344,0.128476 0.00372,0.0037 0.007321,0.0076 0.0135156,0.01008 l 0.007383,0.03328 -0.002344,0.0062 c -0.045822,0.005 -0.042257,0.03965 -0.01625,0.06813 l 0.0394922,0.04219 c 0.05573,-0.01115 0.004919,-0.02825 0.0928516,0.0027 l -0.004609,0.02477 0.0294141,0.02941 c 0,0.0099 -0.0396623,0.06448 -0.0495703,0.07934 -0.048299,-0.0012 -0.10246928,0.0832 -0.12847658,0.0832 l -0.0398437,0 c -0.00619,0.0087 -0.0295849,0.03578 -0.0394922,0.03949 -0.011146,-0.0012 -0.0358232,0.0063 -0.0444922,0.01625 -0.009908,0.0099 -0.0225259,0.02693 -0.0336719,0.03559 -0.0185766,0.01362 -0.0506146,0.02005 -0.0704297,0.03367 -0.002477,0.0025 -0.0209838,0.03337 -0.0259375,0.03832 -0.0321994,0.0322 -0.0781146,0.0682 -0.0979297,0.110313 l -0.005039,0.0023 c -0.007431,0.0099 -0.0408637,0.05694 -0.0371484,0.06808 0.006192,0.0099 0.0137918,0.02007 0.0224609,0.0275 l 0.004648,0.0012 0.0112109,0.01238 c 0.001238,0.0037 0.001238,0.0087 0,0.01238 l 0.006211,0.0074 c -0.001238,0.01486 -0.009773,0.02353 -0.0147266,0.03715 0.003715,0.02105 0.005971,0.02466 0.0220703,0.03828 0.002477,0.01238 0.007409,0.03586 0.0185547,0.04453 0.003715,0.0012 0.008773,0.0013 0.01125,-0.0012 l 0.007344,0.02129 c 0.002477,0.0037 0.01625,0.01356 0.01625,0.01356 0.0136228,0.0025 0.0296513,0.01603 0.0383203,0.02594 0,0.0087 0.007601,0.01347 0.0100781,0.0209 0.006192,0.02105 -0.0136228,0.04711 0,0.07312 l -0.006211,0.02129 c 0.004954,0.0074 0.001086,0.02209 0.008516,0.02828 0.008669,0.0012 0.0125347,0.0037 0.01625,0.01234 -0.001238,0.01362 6.4e-5,0.02376 0.0112109,0.03367 0.0173381,0 0.0244791,0.0085 0.035625,0.0209 0,0.0025 0.002562,0.0076 0.005039,0.01008 l 0.001133,0.03832 c -0.0210535,0.01486 -0.0294588,0.03567 -0.0467969,0.05301 l 0,0.0027 c -0.0160997,0.005 -0.0197453,0.01966 -0.0259375,0.03328 l -0.0123828,0.005 c -0.006192,0.0087 -0.0210691,0.02727 -0.0309766,0.03098 -0.007431,0.01858 -0.0201141,0.05814 -0.0448828,0.06309 l -0.009688,0.02477 c -0.007431,0.01981 -0.052225,0.01137 -0.0646094,0.01508 l -0.004648,0.0035 c -0.001238,0.0025 -0.005191,0.01378 -0.008906,0.01625 -0.011146,-0.0012 -0.0198971,0.0062 -0.0298047,0.0062 -0.007431,0 -0.0321281,-0.0039 -0.0383203,0.0023 -0.011146,0.0074 -0.001236,0.03235 -0.0123828,0.04102 -0.0173382,0.0037 -0.0345847,0.02239 -0.0444922,0.03601 l -0.0208984,0.0062 c -0.004954,0.01115 -0.0123812,0.02222 -0.0247656,0.02594 l 0.001133,0.0062 0.007383,0.0074 c -0.006192,0.0099 0.001391,0.02101 -0.008516,0.03215 l -0.01625,0.0089 c -0.0272457,0.04087 -0.02345914,0.06559 -0.0383203,0.09406 -0.008669,0.0161 -0.0211356,0.03336 -0.0298047,0.0507 l -0.0038672,0.01238 c -0.002477,0.02848 -0.00371342,0.04698 -0.0123828202,0.07547 -0.002477,0.0359 0.0324349602,0.05341 0.0212890602,0.09055 0.007431,0.02725 0.02822186,0.01724 0.03441406,0.05687 0.0235304,0.01486 0.03847052,0.03462 0.05457032,0.05691 0,0.0012 0.006145,0.005 0.007383,0.005 0.0346763,-0.01238 0.0732925,0.0026 0.10796874,-0.0023 l 0.0580469,-0.01742 c 0.0408685,-0.01114 0.10891902,-0.02608 0.13121094,-0.06695 l 0.003867,-0.05188 c 0.0148613,0.0074 0.0917838,0.05792 0.1029297,0.06039 l 0.002344,0.0039 c 0.0656373,0.03344 0.12136206,0.06449 0.19195312,0.07934 l 0.008516,0.0085 c 0.00495,0.0074 -0.0443779,0.141182 -0.0530469,0.154805 -0.011146,0.0049 -0.0670232,0.07434 -0.0410156,0.08672 0.022292,-0.0025 0.0358411,0.02846 0.0507031,0.04332 0.00991,0.01609 -0.0135359,0.02742 0.005039,0.04723 -0.00248,0.0161 0.0160106,0.05674 0.0197266,0.0716 0.00124,0.0037 3.222e-4,0.01641 0.001563,0.02012 0.00495,0.01239 0.0247644,0.05691 0.0371484,0.06309 -0.00124,0.01858 0.008669,0.02715 0.0123828,0.04449 0.00619,0.02848 0.005888,0.05079 0.004648,0.08051 -0.00124,0.01362 -0.008534,0.02858 -0.002344,0.04219 -0.00867,0.01239 -0.0135336,0.04464 -0.0197266,0.06074 l -0.01625,0.0035 c 0.047061,0.03343 0.0767874,-0.03699 0.11765624,-0.03328 0.00619,0.0062 0.0274799,0.0022 0.0336719,-0.0027 l 0.0282422,0.0062 0.0286328,-0.0085 0.003477,0.0023 c 0.00619,0.01734 -0.0865263,0.370276 -0.0951953,0.433437 l -0.002343,0.0027 c -0.00248,0.0087 0.0110787,0.07661 0.0135547,0.08899 0.00248,0.0087 0.1113788,0.126562 0.1126172,0.126562 0.018577,0.0099 0.0410324,0.01716 0.0596094,0.02707 0.034676,0.01734 0.042052,0.01604 0.069297,0.04453 0.00619,0.0062 0.012429,0.01385 0.017383,0.02129 l 0.00117,0.0418 c 0.021053,-0.0037 0.1632317,-0.02446 0.1830468,-0.01703 0.00248,0.03715 1.7e-4,0.0915 0.010078,0.126171 l 0.012383,0.0023 0.0023,0.0039 0.020156,0.01238 c 0.00372,0.03839 0.00338,0.07811 0.00461,0.116485 0,0.0037 -0.045492,0.123741 -0.047969,0.131171 l -0.00891,0.0039 c -0.018577,0.05449 -0.036993,0.106201 -0.058047,0.159453 -0.00372,0.0074 -0.011079,0.0374 -0.013555,0.04605 0.012384,0.04954 0.034603,0.04062 0.050703,0.06539 l 0.00117,0.02016 c 0.012384,0.01486 0.061742,0.07546 0.064219,0.08164 0.00495,0.01238 0.021155,0.06688 0.036016,0.0743 0.026007,0.01486 0.050834,0.02719 0.073125,0.04453 0,0.0012 0.00263,0.0012 0.00387,0.0012 0.00991,0.02476 0.065628,0.03978 0.074297,0.0534 0.00743,0.01238 0.045748,0.07671 0.063086,0.07547 0.038392,0.05697 0.032079,0.02733 0.058086,0.05457 0.00867,0.0099 0.015991,0.02718 0.025899,0.03832 0.00867,0.0087 0.03873,0.01617 0.044922,0.02359 0.017338,0.01858 0.080334,0.129968 0.095195,0.155976 0.014861,0.02601 0.034603,0.05339 0.050703,0.07816 0.030961,0.04582 0.059368,0.09759 0.087852,0.145899 0.00335,0.0058 0.00683,0.0115 0.010195,0.01726 L 11.219618,8.7062104 3.6957122,3.0632806 Z"
     id="polygon10"
     inkscape:connector-curvature="0" />
</svg>
