<svg id="svg" version="1.1" xmlns="http://www.w3.org/2000/svg" xmlns:xlink="http://www.w3.org/1999/xlink" width="400" height="734.1999999999999" viewBox="0, 0, 400,734.1999999999999"><g id="svgg"><path id="path0" d="M123.336 0.478 C 122.747 0.701,122.051 0.891,121.789 0.901 C 121.179 0.923,119.705 2.505,118.566 4.361 C 117.715 5.747,117.215 6.172,117.215 5.509 C 117.215 5.029,116.464 5.140,113.818 6.015 C 111.178 6.888,111.497 6.901,107.116 5.738 C 106.190 5.492,104.399 5.117,103.137 4.904 C 101.875 4.691,100.311 4.387,99.663 4.228 C 98.002 3.820,98.000 3.935,99.636 6.946 C 101.845 11.011,102.131 11.510,103.002 12.826 C 104.537 15.146,102.874 17.789,99.625 18.195 C 98.744 18.305,97.387 18.587,96.608 18.822 C 95.198 19.246,95.186 19.244,93.579 18.153 C 92.092 17.144,91.750 17.046,89.189 16.906 L 86.412 16.755 84.599 17.941 C 83.601 18.594,82.603 19.300,82.381 19.510 C 82.158 19.721,81.865 19.893,81.729 19.893 C 80.805 19.893,79.072 27.665,79.227 31.114 C 79.354 33.948,76.624 35.337,74.525 33.506 C 73.006 32.180,73.162 32.167,70.801 33.818 C 69.027 35.058,68.657 35.195,67.086 35.196 C 65.489 35.197,63.618 35.900,63.045 36.714 C 62.961 36.833,61.949 37.455,60.796 38.096 L 58.700 39.260 56.664 38.877 C 54.607 38.489,47.625 38.575,46.344 39.004 C 45.861 39.166,45.360 38.902,44.236 37.896 C 41.264 35.237,38.954 34.277,35.522 34.277 L 32.521 34.277 32.329 35.425 C 32.224 36.056,32.007 37.261,31.848 38.103 C 31.689 38.944,31.551 40.199,31.541 40.891 C 31.520 42.319,29.947 43.396,26.206 44.544 C 23.827 45.274,23.205 46.216,23.464 48.697 C 23.644 50.416,23.624 50.475,22.250 52.231 C 20.883 53.978,20.850 54.073,20.722 56.618 C 20.650 58.049,20.421 59.882,20.213 60.691 C 19.787 62.353,19.922 63.241,20.733 64.122 C 23.138 66.734,22.808 68.920,19.434 72.706 C 18.424 73.840,17.047 75.386,16.373 76.141 C 14.261 78.513,14.078 78.741,14.078 79.005 C 14.078 79.255,15.867 81.390,16.861 82.326 C 17.791 83.201,18.067 84.158,18.663 88.559 C 18.993 90.991,19.281 93.097,19.304 93.239 C 19.389 93.750,18.900 94.863,18.657 94.713 C 18.394 94.551,14.017 96.591,10.763 98.392 C 7.957 99.945,7.006 99.866,5.029 97.914 L 3.459 96.363 2.383 96.967 C 0.131 98.232,0.000 98.362,0.000 99.343 C 0.000 99.868,0.538 101.344,1.196 102.623 C 1.854 103.902,2.689 105.815,3.053 106.874 C 3.555 108.339,6.145 113.868,6.571 114.387 C 6.607 114.430,7.641 114.051,8.869 113.545 C 11.697 112.379,12.376 112.346,12.122 113.389 C 12.020 113.810,11.860 114.466,11.768 114.846 C 11.663 115.278,11.809 115.766,12.155 116.147 C 13.303 117.406,14.715 119.944,15.573 122.288 C 16.061 123.622,16.613 125.101,16.799 125.575 C 17.494 127.339,16.876 129.811,15.236 131.824 C 14.941 132.188,15.011 133.150,15.475 135.119 C 15.595 135.624,16.267 136.725,16.969 137.567 C 17.672 138.409,18.552 139.786,18.925 140.627 C 20.483 144.141,22.555 146.601,26.014 149.044 C 26.603 149.460,27.398 150.170,27.781 150.623 C 28.164 151.075,29.094 151.835,29.848 152.310 C 31.193 153.159,32.431 155.063,32.448 156.309 C 32.452 156.605,33.279 157.743,34.287 158.837 C 35.294 159.931,36.688 161.652,37.385 162.662 C 38.081 163.672,39.436 165.118,40.395 165.875 C 42.483 167.521,43.943 169.542,45.016 172.274 C 45.792 174.249,45.855 174.315,47.945 175.363 C 53.639 178.219,55.321 181.146,54.023 185.942 C 53.563 187.641,53.539 188.144,53.862 189.375 C 54.650 192.391,56.051 196.031,56.704 196.763 C 57.078 197.182,57.559 197.715,57.773 197.949 C 58.333 198.560,58.983 199.883,59.558 201.583 C 59.832 202.396,60.305 203.611,60.608 204.285 C 61.331 205.895,62.368 208.993,62.490 209.908 C 62.561 210.447,62.940 210.774,63.963 211.178 C 64.721 211.477,66.063 212.009,66.946 212.360 L 68.552 212.997 70.925 210.836 C 72.230 209.647,73.440 208.410,73.614 208.086 C 73.845 207.658,73.899 208.354,73.814 210.635 C 73.697 213.777,73.125 215.362,71.484 217.090 C 71.299 217.285,70.909 217.817,70.618 218.272 C 70.104 219.075,70.059 219.086,69.025 218.654 C 67.232 217.905,64.485 218.999,63.018 221.047 C 62.920 221.185,61.577 221.457,60.035 221.652 C 58.492 221.847,57.230 222.113,57.230 222.244 C 57.230 222.374,57.559 223.483,57.962 224.707 C 59.417 229.133,59.258 233.911,57.508 238.346 C 56.668 240.474,57.374 245.754,58.498 245.754 C 59.476 245.754,59.558 245.382,59.408 241.622 C 59.353 240.253,59.597 238.928,60.364 236.416 L 61.394 233.047 61.025 229.377 C 60.822 227.359,60.556 225.260,60.435 224.713 L 60.214 223.718 61.497 223.718 C 63.037 223.718,63.624 223.430,65.726 221.642 L 67.335 220.273 68.904 220.924 C 70.935 221.769,70.739 221.828,72.165 219.939 C 75.228 215.882,75.898 214.433,75.906 211.854 C 75.910 210.552,76.041 208.940,76.196 208.270 C 76.461 207.124,76.404 206.957,75.226 205.430 C 73.573 203.287,73.714 203.286,72.513 205.453 C 71.935 206.497,70.704 208.059,69.778 208.925 L 68.095 210.499 66.440 209.833 C 64.573 209.081,64.590 209.103,63.553 205.968 C 61.913 201.005,60.641 198.163,59.317 196.498 C 56.901 193.460,55.463 188.865,56.196 186.523 C 57.870 181.176,55.521 176.691,49.472 173.680 C 47.763 172.829,47.574 172.630,46.906 170.967 C 45.915 168.501,43.993 165.870,42.165 164.476 C 41.322 163.834,40.066 162.543,39.373 161.608 C 38.680 160.673,37.250 158.905,36.195 157.680 C 35.140 156.454,34.277 155.288,34.277 155.088 C 34.277 153.636,33.162 152.010,31.172 150.563 C 30.018 149.723,29.074 148.918,29.074 148.772 C 29.074 148.626,28.122 147.812,26.959 146.963 C 24.361 145.068,21.750 141.964,21.001 139.883 C 20.693 139.026,19.830 137.582,19.083 136.675 C 17.028 134.179,16.916 133.433,18.240 131.065 C 19.369 129.047,19.534 127.176,18.820 124.484 L 18.597 123.642 101.754 123.642 L 184.911 123.642 183.274 125.517 C 179.813 129.480,178.646 131.089,177.905 132.912 C 177.483 133.950,176.754 135.560,176.286 136.489 C 175.817 137.419,175.137 139.175,174.775 140.391 C 174.409 141.622,173.574 143.391,172.892 144.379 L 171.668 146.154 172.342 147.385 C 172.963 148.519,173.162 148.644,174.847 148.965 C 176.255 149.232,176.931 149.559,177.780 150.383 C 178.884 151.454,182.116 153.328,182.859 153.328 C 183.778 153.328,186.747 150.374,187.819 148.394 C 189.039 146.140,191.494 144.262,197.306 141.137 C 201.284 138.998,202.929 137.600,202.717 136.539 C 202.498 135.444,205.555 132.428,207.382 131.936 C 209.270 131.428,210.571 129.615,212.368 124.990 L 212.736 124.043 218.276 123.843 C 221.323 123.732,227.145 123.642,231.213 123.642 L 238.610 123.642 241.187 125.416 C 244.138 127.447,246.345 128.230,249.147 128.239 L 251.109 128.245 252.126 129.983 C 252.684 130.938,253.304 132.519,253.503 133.495 L 253.864 135.270 255.958 133.893 C 257.110 133.137,258.187 132.517,258.351 132.517 C 258.515 132.517,259.398 131.907,260.315 131.160 C 262.471 129.404,265.174 127.769,267.460 126.841 L 269.280 126.101 271.168 126.780 L 273.056 127.460 273.787 126.545 C 274.220 126.005,274.519 125.224,274.520 124.637 L 274.522 123.642 300.629 123.642 L 326.735 123.642 327.667 124.637 C 328.929 125.983,330.645 128.958,331.271 130.886 C 331.689 132.172,332.098 132.710,333.459 133.760 C 335.597 135.409,337.294 137.442,338.933 140.319 C 340.523 143.108,343.325 145.328,348.609 147.982 C 357.669 152.533,360.981 162.604,356.536 172.089 C 355.019 175.326,354.674 178.254,355.475 181.107 C 355.859 182.476,355.968 183.672,355.861 185.344 C 355.778 186.627,355.884 188.587,356.095 189.705 C 356.306 190.823,356.431 191.816,356.372 191.912 C 356.052 192.442,355.318 196.868,355.318 198.269 L 355.318 199.905 357.554 201.993 C 359.310 203.634,360.016 204.565,360.844 206.337 C 361.769 208.319,362.222 208.864,364.569 210.819 C 366.782 212.664,367.299 213.263,367.582 214.315 C 367.770 215.014,368.344 216.746,368.857 218.165 L 369.791 220.744 373.568 222.537 C 375.777 223.586,377.759 224.331,378.343 224.331 C 379.813 224.331,383.796 225.142,385.819 225.853 C 386.790 226.194,387.623 226.473,387.671 226.473 C 388.137 226.473,387.439 227.149,385.934 228.158 C 384.772 228.936,384.155 229.547,384.234 229.839 C 384.303 230.092,384.449 230.849,384.560 231.523 C 385.200 235.428,388.207 238.715,391.142 238.715 C 393.249 238.715,396.005 240.306,396.762 241.961 C 397.492 243.554,397.560 243.611,398.735 243.611 L 399.953 243.611 399.547 242.770 C 399.323 242.307,398.863 241.305,398.523 240.543 C 397.565 238.395,397.145 238.156,391.331 236.441 C 390.351 236.151,389.284 235.649,388.960 235.325 C 388.635 235.001,388.260 234.736,388.125 234.736 C 387.848 234.736,386.919 232.219,386.779 231.089 C 386.702 230.467,387.136 230.028,389.501 228.334 C 392.834 225.949,392.832 225.988,389.731 224.934 C 388.393 224.479,386.679 223.896,385.922 223.639 C 384.141 223.033,381.946 222.567,379.648 222.307 C 378.518 222.179,376.833 221.645,375.269 220.920 C 373.870 220.271,372.618 219.740,372.485 219.740 C 371.785 219.740,369.396 214.186,369.396 212.557 C 369.396 212.168,367.843 210.656,365.217 208.487 C 364.034 207.510,363.360 206.602,362.520 204.856 C 361.679 203.109,360.891 202.048,359.363 200.608 L 357.326 198.687 357.760 196.130 C 358.166 193.737,358.239 191.312,358.026 187.299 C 357.977 186.373,357.980 184.927,358.034 184.086 C 358.088 183.244,357.955 182.005,357.738 181.331 C 356.922 178.795,357.182 175.778,358.443 173.142 C 362.453 164.761,360.694 154.348,354.392 149.163 C 353.807 148.682,353.259 148.200,353.175 148.093 C 353.091 147.985,351.920 147.312,350.574 146.597 C 346.612 144.493,342.464 141.678,342.464 141.093 C 342.464 140.804,342.223 140.289,341.928 139.947 C 341.634 139.606,340.360 138.020,339.097 136.423 C 337.835 134.826,336.285 133.130,335.654 132.654 C 335.023 132.177,334.507 131.654,334.507 131.491 C 334.507 131.328,333.680 129.828,332.670 128.159 C 331.660 126.489,330.834 125.024,330.834 124.904 C 330.834 124.783,330.266 124.140,329.571 123.475 C 328.150 122.114,325.938 118.835,325.348 117.215 C 324.654 115.312,324.302 114.652,322.776 112.400 C 321.952 111.182,320.914 110.000,320.470 109.772 C 319.557 109.303,317.744 108.273,316.862 107.723 C 316.364 107.412,316.037 107.503,314.771 108.306 C 312.929 109.474,312.855 109.475,311.542 108.352 C 310.591 107.540,310.261 107.445,308.340 107.433 C 306.446 107.422,305.991 107.296,304.422 106.350 C 303.446 105.761,302.515 105.279,302.353 105.279 C 302.191 105.279,301.475 105.019,300.762 104.701 C 300.048 104.383,298.845 103.979,298.087 103.804 C 297.330 103.629,296.090 103.330,295.333 103.141 C 292.030 102.312,285.529 102.750,284.475 103.872 C 284.301 104.057,283.342 105.148,282.343 106.298 C 280.394 108.539,280.452 108.278,281.403 110.560 C 281.579 110.981,281.439 111.135,280.752 111.279 C 280.085 111.418,279.561 111.965,278.545 113.584 C 277.576 115.127,276.770 115.990,275.595 116.741 C 273.525 118.065,272.379 120.319,272.379 123.067 C 272.379 124.056,272.343 124.866,272.299 124.866 C 272.254 124.866,271.531 124.616,270.692 124.310 C 269.189 123.762,266.802 124.221,265.766 125.256 C 265.644 125.378,265.292 125.478,264.983 125.478 C 264.675 125.478,264.422 125.616,264.422 125.784 C 264.422 125.953,264.274 126.090,264.093 126.090 C 263.673 126.090,259.958 128.535,258.789 129.580 C 258.300 130.017,257.668 130.375,257.383 130.375 C 257.099 130.375,256.617 130.650,256.312 130.987 C 255.687 131.677,255.241 131.779,255.241 131.231 C 255.241 131.028,254.592 129.797,253.800 128.496 L 252.359 126.129 249.592 125.998 C 245.898 125.822,242.789 124.605,241.163 122.697 C 241.079 122.599,240.321 122.121,239.480 121.636 C 238.638 121.152,237.801 120.613,237.620 120.439 C 237.439 120.265,236.352 119.296,235.204 118.286 C 234.057 117.276,232.496 115.865,231.736 115.149 C 230.302 113.800,228.557 113.407,227.157 114.119 C 226.865 114.268,226.213 114.577,225.708 114.807 C 224.631 115.298,224.629 115.300,222.650 117.676 C 221.810 118.685,220.594 120.027,219.947 120.658 L 218.772 121.806 214.998 121.806 L 211.224 121.806 210.380 124.024 C 208.695 128.451,207.880 129.554,205.899 130.087 C 204.333 130.509,200.476 134.443,200.466 135.628 C 200.458 136.605,198.851 137.983,196.046 139.418 C 193.977 140.476,190.291 142.619,190.054 142.901 C 189.969 143.001,189.181 143.563,188.302 144.150 C 187.422 144.738,186.699 145.357,186.695 145.527 C 186.679 146.166,185.043 148.892,184.348 149.439 C 183.949 149.752,183.414 150.219,183.157 150.475 C 182.557 151.075,181.206 150.491,179.456 148.873 C 178.055 147.578,176.654 146.901,175.373 146.901 C 174.275 146.901,174.118 146.148,175.005 145.126 C 175.637 144.397,176.335 142.811,176.917 140.780 C 177.134 140.023,177.818 138.370,178.437 137.108 C 179.057 135.845,179.731 134.295,179.936 133.663 C 180.366 132.336,181.965 130.271,186.034 125.784 C 187.460 124.212,187.470 124.166,186.812 122.229 C 186.517 121.361,186.397 120.359,186.506 119.693 C 187.104 116.055,187.091 115.741,186.270 114.007 C 185.557 112.501,185.491 112.078,185.657 110.099 L 185.843 107.881 183.855 106.822 C 180.273 104.915,180.503 103.212,184.752 100.180 C 185.816 99.420,186.687 98.706,186.687 98.593 C 186.687 98.480,186.997 98.044,187.376 97.625 C 189.679 95.080,189.670 95.101,189.513 92.660 C 189.413 91.089,189.521 89.861,189.864 88.681 C 190.136 87.743,190.360 86.099,190.360 85.029 C 190.360 82.810,191.065 80.601,192.408 78.613 C 193.119 77.561,193.389 76.689,193.675 74.522 L 194.040 71.767 192.429 70.323 C 191.543 69.529,190.715 68.875,190.589 68.870 C 190.463 68.864,190.360 68.043,190.360 67.044 C 190.360 66.045,190.213 64.841,190.034 64.370 C 189.854 63.898,189.627 62.340,189.529 60.907 C 189.379 58.718,189.211 58.097,188.480 57.026 C 187.147 55.070,188.585 52.546,192.122 50.636 C 192.166 50.613,191.938 49.918,191.616 49.092 C 191.293 48.266,190.719 46.783,190.339 45.796 L 189.649 44.002 188.091 44.185 C 182.543 44.838,182.360 44.828,180.167 43.771 C 179.037 43.226,178.037 42.657,177.944 42.507 C 177.852 42.357,176.693 42.234,175.371 42.234 C 172.366 42.234,169.679 43.495,167.171 46.080 C 165.228 48.083,164.858 48.121,161.784 46.641 L 159.495 45.540 158.018 46.550 C 157.206 47.106,156.360 47.739,156.137 47.958 C 155.645 48.442,155.688 48.441,154.676 47.980 C 154.128 47.730,153.564 46.988,152.988 45.761 C 152.513 44.747,151.685 43.165,151.149 42.245 C 149.189 38.883,149.613 37.267,153.545 33.119 C 153.903 32.741,154.547 30.815,154.551 30.111 C 154.552 29.924,154.939 28.822,155.412 27.663 C 155.885 26.503,156.451 24.728,156.671 23.718 C 156.891 22.708,157.187 21.469,157.329 20.964 C 158.652 16.251,157.195 13.318,154.280 14.826 C 152.973 15.502,148.123 9.940,149.355 9.178 C 149.800 8.903,149.043 7.789,146.071 4.347 C 144.756 2.823,144.581 2.720,143.625 2.899 C 143.059 3.005,141.753 3.154,140.724 3.230 C 138.758 3.374,138.039 3.724,138.007 4.552 C 137.979 5.289,135.475 9.888,135.119 9.856 C 134.691 9.819,134.420 8.695,134.384 6.809 C 134.365 5.789,134.221 5.203,133.989 5.203 C 133.183 5.203,129.419 2.618,128.381 1.352 C 127.150 -0.151,125.674 -0.406,123.336 0.478 M97.475 491.201 C 97.371 491.370,96.764 491.507,96.126 491.507 L 94.966 491.507 93.570 494.491 C 92.240 497.334,92.187 497.553,92.440 499.116 C 92.682 500.610,92.624 500.919,91.796 502.559 L 90.886 504.361 89.208 504.361 C 87.340 504.361,87.350 504.345,87.941 506.587 C 88.230 507.683,88.765 508.490,90.086 509.825 L 91.846 511.604 90.166 513.039 C 87.644 515.194,86.901 519.389,87.829 526.243 C 88.026 527.701,87.955 528.508,87.482 530.153 L 86.886 532.227 87.671 535.108 C 88.103 536.693,88.850 538.868,89.331 539.941 C 89.813 541.014,90.443 542.704,90.732 543.697 C 91.020 544.690,91.660 546.279,92.154 547.227 C 92.648 548.176,93.200 549.795,93.382 550.825 L 93.712 552.699 92.277 554.379 L 90.841 556.059 92.628 557.740 C 93.611 558.664,95.226 559.859,96.217 560.394 L 98.019 561.366 100.652 560.998 L 103.285 560.630 104.782 558.950 L 106.278 557.271 108.151 557.350 C 109.890 557.424,110.137 557.347,111.630 556.269 L 113.236 555.107 116.140 555.325 L 119.045 555.543 120.386 557.348 C 121.508 558.858,121.763 559.464,121.943 561.052 C 122.093 562.385,122.489 563.544,123.270 564.940 L 124.383 566.930 124.436 572.141 C 124.484 576.859,124.955 582.415,125.362 583.074 C 125.449 583.215,125.630 584.416,125.764 585.742 C 126.033 588.415,127.058 590.457,129.464 593.114 C 130.149 593.871,131.173 595.386,131.739 596.480 C 132.652 598.248,135.175 600.459,136.277 600.459 C 136.480 600.459,137.032 598.964,137.266 597.781 C 137.548 596.352,137.817 596.529,138.886 598.852 C 140.619 602.615,141.240 604.971,141.674 609.411 L 141.875 611.477 105.096 611.477 L 68.316 611.477 67.777 609.487 C 67.162 607.216,67.101 607.145,65.032 606.339 C 63.118 605.593,61.862 602.822,62.912 601.661 C 63.436 601.082,63.415 601.074,61.946 601.251 C 60.737 601.397,53.115 603.670,52.679 604.014 C 52.617 604.063,52.978 604.835,53.483 605.730 L 54.401 607.356 53.824 609.233 L 53.248 611.111 51.437 611.321 C 49.808 611.510,46.213 609.813,46.213 608.855 C 46.213 608.800,45.249 605.435,44.070 601.377 C 41.600 592.870,41.522 592.055,42.886 589.096 L 43.843 587.019 43.345 585.495 C 42.703 583.533,42.677 583.742,43.881 581.129 C 44.449 579.894,45.432 577.506,46.065 575.822 C 47.053 573.192,47.468 572.502,49.016 570.910 L 50.819 569.058 49.939 566.931 C 49.455 565.762,48.763 564.158,48.401 563.368 C 47.547 561.502,47.504 561.762,49.273 558.012 C 50.115 556.228,50.803 554.601,50.803 554.397 C 50.803 554.192,51.217 553.114,51.721 552.000 C 52.226 550.886,52.640 549.499,52.640 548.917 C 52.640 547.210,53.133 546.372,54.765 545.304 C 56.578 544.119,56.567 544.170,55.394 542.263 C 54.278 540.450,54.258 540.827,55.581 538.759 L 56.686 537.031 56.638 533.556 C 56.586 529.773,56.667 529.491,58.444 527.314 C 61.333 523.774,66.281 512.611,67.316 507.296 C 68.283 502.332,69.410 499.456,71.265 497.221 C 72.000 496.336,70.309 491.673,69.213 491.564 C 68.063 491.450,67.938 492.217,68.697 494.737 C 69.197 496.399,69.323 496.052,66.557 500.617 C 65.509 502.347,65.389 502.766,65.324 504.902 C 65.199 508.972,62.185 517.242,59.663 520.432 C 59.529 520.603,59.127 521.521,58.771 522.473 C 58.414 523.425,57.387 525.127,56.489 526.255 C 54.699 528.500,53.995 531.335,54.386 534.717 C 54.528 535.952,54.418 536.370,53.595 537.706 C 53.070 538.560,52.640 539.395,52.640 539.561 C 52.640 539.727,52.502 539.862,52.334 539.862 C 51.825 539.862,51.986 540.645,52.783 542.048 L 53.539 543.379 52.746 544.060 C 52.310 544.435,51.714 544.817,51.422 544.910 C 51.010 545.041,50.851 545.555,50.713 547.200 C 50.596 548.593,50.230 549.984,49.647 551.248 C 49.159 552.308,48.658 553.588,48.534 554.093 C 48.410 554.598,47.851 555.976,47.292 557.154 C 45.259 561.438,45.204 561.608,45.569 562.408 C 45.754 562.816,45.907 563.225,45.907 563.316 C 45.907 563.470,44.428 563.304,42.464 562.928 L 41.622 562.767 41.622 567.382 C 41.622 572.060,41.687 572.305,42.774 571.702 C 43.219 571.454,45.609 570.338,46.663 569.886 C 46.826 569.816,46.580 570.210,46.116 570.762 C 45.207 571.842,44.844 572.604,43.777 575.677 C 43.097 577.636,41.970 580.262,41.135 581.838 C 40.601 582.844,40.603 584.340,41.141 585.846 C 41.526 586.925,41.496 587.101,40.647 588.736 C 39.536 590.878,39.546 594.053,40.675 597.552 C 41.055 598.730,41.487 600.107,41.633 600.612 C 42.063 602.089,43.479 607.255,43.760 608.364 C 43.901 608.924,44.097 609.463,44.194 609.560 C 44.291 609.657,44.240 609.895,44.080 610.088 C 43.919 610.281,43.703 612.153,43.599 614.248 C 43.496 616.343,43.200 619.059,42.943 620.284 C 42.686 621.508,42.563 622.978,42.670 623.550 C 43.048 625.566,43.755 627.572,44.297 628.167 C 44.599 628.497,45.504 629.698,46.310 630.834 C 48.141 633.418,47.736 633.458,50.191 630.451 C 50.947 629.526,51.944 628.355,52.407 627.850 C 52.870 627.345,53.257 626.725,53.267 626.473 C 53.308 625.409,53.863 621.314,54.146 619.984 C 54.417 618.710,54.348 618.257,53.550 616.046 C 52.534 613.231,52.568 613.007,54.009 613.007 C 54.575 613.007,55.097 612.835,55.169 612.624 C 55.325 612.174,56.006 615.133,56.006 616.258 C 56.006 617.333,57.271 620.989,58.759 624.217 C 61.373 629.885,62.259 631.676,62.453 631.676 C 62.769 631.676,63.039 628.332,63.252 621.801 L 63.449 615.751 62.711 614.963 C 62.306 614.530,61.285 613.672,60.444 613.057 C 59.602 612.443,58.569 611.639,58.148 611.271 C 57.728 610.903,57.063 610.326,56.673 609.990 C 56.091 609.488,56.021 609.266,56.290 608.764 C 56.703 607.992,56.716 606.676,56.312 606.427 C 55.771 606.093,55.964 605.050,56.567 605.050 C 56.876 605.050,57.223 604.955,57.338 604.840 C 57.590 604.588,59.694 603.837,60.165 603.830 C 60.636 603.824,61.208 605.204,61.215 606.365 C 61.221 607.295,61.319 607.377,63.122 607.964 C 65.435 608.716,65.789 609.284,65.795 612.246 C 65.798 613.620,66.020 614.995,66.412 616.067 C 66.748 616.988,67.024 618.123,67.024 618.588 C 67.024 619.139,67.185 619.434,67.486 619.434 C 67.908 619.434,70.079 620.301,71.381 620.989 C 72.031 621.333,73.668 621.360,73.808 621.029 C 74.183 620.145,75.872 619.423,76.187 620.013 C 76.363 620.341,76.680 620.797,76.892 621.025 C 77.554 621.739,78.511 623.198,79.420 624.879 L 80.295 626.499 79.743 628.035 C 79.305 629.253,79.234 630.021,79.404 631.739 C 79.633 634.070,79.468 634.416,78.118 634.425 C 77.210 634.431,77.253 634.742,78.274 635.565 C 80.749 637.558,81.200 638.103,80.374 638.103 C 78.482 638.103,79.341 641.928,81.796 644.436 L 83.652 646.332 85.055 645.535 C 87.322 644.247,87.345 644.208,86.789 642.569 C 86.169 640.742,86.128 640.857,87.396 640.857 C 88.292 640.857,88.460 640.761,88.330 640.321 C 88.003 639.216,87.766 635.348,88.025 635.349 C 89.614 635.357,91.513 637.719,92.576 641.010 C 92.957 642.188,93.578 643.811,93.956 644.616 C 94.548 645.875,94.616 646.373,94.439 648.168 L 94.233 650.255 96.619 652.437 L 99.005 654.618 101.869 654.623 C 105.046 654.630,104.808 654.423,104.190 656.638 C 103.894 657.699,107.540 661.923,109.674 662.992 C 111.575 663.944,111.595 663.991,110.924 665.917 C 109.980 668.629,110.570 671.884,112.483 674.510 C 113.919 676.481,115.058 677.542,119.816 681.339 C 122.849 683.758,124.282 685.416,125.561 687.988 C 126.794 690.465,129.165 692.795,130.530 692.868 C 130.699 692.877,131.030 693.332,131.265 693.879 C 131.501 694.426,131.933 695.425,132.227 696.098 C 132.521 696.771,132.946 697.770,133.173 698.317 C 133.724 699.647,133.849 699.596,135.065 697.552 C 135.640 696.584,136.612 694.971,137.225 693.968 C 138.721 691.518,138.995 690.531,139.215 686.787 L 139.403 683.597 140.278 684.351 C 141.118 685.076,141.990 686.953,142.000 688.058 C 142.014 689.651,146.144 692.215,148.754 692.250 C 150.117 692.268,150.754 692.465,151.968 693.242 C 152.800 693.775,154.640 694.670,156.055 695.230 L 158.629 696.248 160.391 695.605 C 163.825 694.353,166.250 697.122,166.486 702.566 C 166.489 702.626,171.477 706.211,171.908 706.462 C 172.112 706.580,173.103 706.262,174.110 705.753 C 177.057 704.266,177.498 704.506,178.489 708.135 C 179.140 710.521,179.268 711.539,179.149 713.389 C 178.935 716.728,178.892 716.836,177.083 718.633 C 172.052 723.631,172.127 728.513,177.269 730.802 C 178.609 731.399,180.042 732.334,180.868 733.150 C 182.711 734.971,184.776 735.097,186.795 733.512 C 189.149 731.664,189.433 731.345,189.622 730.334 C 189.877 728.978,190.839 727.930,192.502 727.195 C 193.259 726.861,194.155 726.334,194.491 726.024 C 195.821 724.801,197.076 724.101,197.936 724.101 C 199.025 724.101,200.481 723.651,202.188 722.788 L 203.458 722.145 204.484 722.928 C 205.223 723.491,205.658 724.192,206.040 725.433 C 206.675 727.495,207.782 729.296,208.416 729.297 C 208.871 729.299,214.308 728.545,216.373 728.194 C 218.706 727.798,222.376 722.895,223.445 718.745 C 223.830 717.253,224.270 716.707,226.626 714.804 C 229.090 712.814,230.424 709.693,230.435 705.891 C 230.443 703.007,230.537 703.179,227.986 701.374 C 225.808 699.833,223.869 698.164,220.524 694.950 C 219.342 693.814,218.273 692.884,218.150 692.884 C 216.932 692.884,213.471 689.482,212.237 687.071 C 211.936 686.483,211.252 685.313,210.716 684.470 C 209.204 682.089,207.790 679.716,206.886 678.041 C 204.541 673.694,204.390 673.518,201.843 672.183 C 200.367 671.410,198.866 670.862,197.991 670.778 C 197.051 670.688,195.797 670.202,194.350 669.368 C 191.598 667.781,191.254 667.785,189.439 669.416 C 186.605 671.964,178.838 673.088,175.903 671.375 C 175.185 670.956,174.116 670.340,173.527 670.007 C 172.938 669.674,171.354 668.719,170.008 667.885 C 165.896 665.340,166.118 665.450,165.961 665.883 C 165.796 666.339,164.676 665.007,162.415 661.668 C 159.881 657.927,156.943 654.323,156.419 654.314 C 155.212 654.293,150.765 644.675,150.127 640.704 C 150.019 640.031,149.809 638.929,149.661 638.256 C 149.514 637.582,149.170 635.723,148.899 634.124 C 148.628 632.525,148.283 630.666,148.133 629.992 C 147.983 629.319,147.695 627.873,147.493 626.779 C 147.291 625.685,146.925 624.032,146.681 623.106 C 146.437 622.181,145.903 619.977,145.494 618.210 C 145.085 616.442,144.611 614.398,144.442 613.668 C 144.273 612.937,144.056 611.284,143.960 609.995 C 143.662 605.994,142.025 599.317,141.048 598.123 C 140.893 597.933,139.935 596.104,138.921 594.060 C 137.011 590.211,136.651 589.901,136.329 591.824 C 136.224 592.449,136.024 593.374,135.884 593.879 C 135.744 594.384,135.543 595.314,135.437 595.945 C 135.162 597.581,134.588 597.368,133.620 595.270 C 133.157 594.267,132.232 592.885,131.565 592.197 C 129.190 589.750,128.339 588.028,127.772 584.527 C 126.820 578.639,126.674 577.074,126.578 571.663 L 126.482 566.280 125.496 564.471 C 124.953 563.476,124.383 562.532,124.229 562.372 C 124.074 562.212,123.948 561.280,123.948 560.301 C 123.948 558.606,123.859 558.398,122.087 555.968 L 120.225 553.415 117.725 553.220 C 112.841 552.840,112.460 552.895,110.679 554.240 C 109.068 555.457,109.066 555.457,107.281 555.166 L 105.494 554.876 104.239 556.294 C 103.549 557.074,102.770 557.955,102.509 558.252 C 101.715 559.154,98.038 559.185,97.318 558.296 C 97.014 557.920,96.548 557.613,96.283 557.613 C 95.595 557.613,93.730 555.841,94.114 555.552 C 95.503 554.506,96.008 553.377,95.746 551.903 C 95.602 551.088,95.392 549.872,95.282 549.201 C 95.171 548.530,94.677 547.246,94.184 546.349 C 93.691 545.451,93.044 543.864,92.746 542.822 C 92.448 541.780,91.866 540.172,91.451 539.247 C 89.723 535.394,89.231 533.462,89.529 531.696 C 89.771 530.265,89.908 522.447,89.741 519.663 C 89.569 516.800,89.803 516.372,93.289 513.148 C 95.268 511.317,95.308 511.548,92.578 509.095 C 89.998 506.777,89.862 506.503,91.286 506.503 C 92.866 506.503,94.836 502.360,94.639 499.450 C 94.509 497.511,94.558 497.341,96.184 494.171 C 97.602 491.405,98.203 490.024,97.475 491.201 M125.709 530.635 C 123.952 531.246,123.955 531.203,125.382 535.348 L 126.514 538.638 127.909 538.636 C 128.676 538.635,130.370 538.796,131.674 538.995 C 134.629 539.445,134.498 539.634,134.074 535.514 C 133.668 531.574,133.705 531.627,130.748 530.699 C 128.401 529.962,127.672 529.953,125.709 530.635 M129.802 532.706 L 131.564 533.200 131.772 534.862 C 132.028 536.916,132.053 536.893,129.871 536.591 L 128.080 536.343 127.469 534.571 C 126.935 533.019,126.916 532.762,127.316 532.510 C 127.900 532.141,127.746 532.129,129.802 532.706 M131.905 539.921 C 131.148 540.079,128.703 540.282,126.473 540.372 L 122.418 540.534 122.418 543.853 L 122.418 547.172 124.178 549.103 C 127.834 553.113,127.655 553.012,129.216 551.951 C 129.836 551.530,130.453 551.183,130.588 551.180 C 131.516 551.159,133.464 545.279,133.957 541.010 C 134.143 539.399,134.216 539.437,131.905 539.921 M131.493 542.846 C 131.413 543.141,131.256 543.914,131.146 544.565 C 130.887 546.094,129.167 549.584,128.557 549.818 C 127.428 550.251,124.560 546.535,124.560 544.636 L 124.560 542.923 126.320 542.887 C 127.288 542.867,128.493 542.745,128.998 542.617 C 130.745 542.172,131.655 542.256,131.493 542.846 M46.521 565.570 C 48.211 565.570,47.908 566.892,46.003 567.826 C 43.805 568.904,43.764 568.887,43.764 566.909 L 43.764 565.187 44.721 565.379 C 45.247 565.484,46.057 565.570,46.521 565.570 M47.437 610.712 L 48.156 611.477 47.038 611.477 C 45.956 611.477,45.931 611.452,46.268 610.712 C 46.460 610.291,46.640 609.946,46.668 609.946 C 46.695 609.946,47.042 610.291,47.437 610.712 M140.412 632.517 C 140.587 632.980,140.810 633.725,140.907 634.172 C 141.004 634.619,141.157 635.175,141.246 635.407 C 141.335 635.639,141.145 636.110,140.825 636.454 C 140.504 636.798,139.880 637.654,139.436 638.356 C 138.419 639.968,138.180 639.957,137.756 638.273 C 136.908 634.903,137.459 632.546,139.250 631.892 C 140.018 631.611,140.083 631.646,140.412 632.517 M144.518 642.923 C 145.163 643.609,145.340 644.160,145.478 645.907 C 145.571 647.085,145.737 648.486,145.846 649.020 L 146.046 649.992 145.020 649.521 C 143.653 648.894,139.616 643.557,139.566 642.311 C 139.536 641.582,143.746 642.102,144.518 642.923 M111.255 679.548 C 108.466 681.068,107.799 683.020,107.965 689.177 L 108.034 691.743 110.099 691.546 C 116.888 690.899,116.446 691.187,115.689 687.916 C 114.258 681.733,113.427 678.504,113.270 678.525 C 113.167 678.539,112.261 678.999,111.255 679.548 " stroke="none" fill="#a41c33" fill-rule="evenodd"></path><path id="path1" d="M60.214 243.555 C 59.478 243.640,59.373 243.784,59.373 244.703 C 59.373 245.666,59.296 245.754,58.454 245.754 C 57.328 245.754,57.287 246.333,58.015 251.930 C 58.562 256.137,58.576 256.085,57.069 255.370 C 55.778 254.757,55.897 254.710,52.511 257.152 C 50.964 258.268,50.497 258.780,50.497 259.362 C 50.497 260.038,50.377 260.115,49.367 260.077 C 48.741 260.053,48.183 260.194,48.117 260.392 C 48.052 260.589,47.829 260.750,47.622 260.750 C 47.415 260.750,46.635 261.046,45.888 261.409 C 44.469 262.097,43.058 262.536,41.417 262.798 C 39.785 263.059,39.043 267.211,39.895 271.308 C 40.035 271.982,40.212 273.703,40.288 275.134 C 40.381 276.898,40.614 278.087,41.012 278.828 C 41.335 279.429,41.749 280.944,41.932 282.194 C 42.115 283.445,42.385 284.744,42.534 285.080 C 42.682 285.417,43.176 286.553,43.632 287.605 C 44.087 288.657,44.545 289.518,44.650 289.518 C 44.754 289.518,45.015 289.916,45.231 290.403 C 45.446 290.890,47.310 292.990,49.372 295.070 C 53.434 299.167,56.916 304.298,58.128 307.972 C 58.570 309.310,59.322 310.128,61.761 311.923 C 62.720 312.628,63.655 313.350,63.840 313.527 C 64.025 313.704,64.988 314.537,65.981 315.379 C 66.973 316.220,68.406 317.464,69.164 318.142 C 72.256 320.906,73.983 322.174,75.363 322.690 C 76.163 322.989,76.817 323.360,76.817 323.514 C 76.817 323.669,77.093 324.070,77.429 324.407 C 77.766 324.744,78.041 325.250,78.041 325.532 C 78.041 326.545,80.480 331.031,81.256 331.447 C 81.676 331.672,82.020 331.953,82.020 332.073 C 82.020 332.192,82.433 332.461,82.938 332.670 C 83.799 333.027,83.856 333.154,83.856 334.713 C 83.856 336.100,84.052 336.701,85.035 338.331 C 86.187 340.241,86.218 340.371,86.406 344.052 C 86.512 346.124,86.819 348.577,87.090 349.503 C 88.551 354.507,88.639 355.501,87.823 357.799 C 87.254 359.401,87.204 359.863,87.493 360.829 C 88.222 363.262,87.991 364.149,86.185 365.851 C 84.963 367.003,84.440 367.763,84.169 368.783 C 83.261 372.203,83.343 372.744,85.069 374.738 C 85.745 375.520,86.344 376.572,86.429 377.126 C 86.511 377.672,86.661 378.738,86.762 379.495 C 86.862 380.252,87.027 381.492,87.128 382.249 C 87.229 383.007,87.399 383.695,87.506 383.780 C 87.614 383.864,88.273 384.905,88.972 386.094 C 90.114 388.037,92.651 391.642,93.512 392.545 C 93.695 392.737,94.179 393.290,94.589 393.775 C 94.998 394.260,96.123 395.205,97.089 395.875 L 98.845 397.093 98.853 399.847 C 98.866 404.522,99.205 407.720,99.843 409.181 C 100.874 411.545,100.948 411.755,101.139 412.854 C 101.241 413.443,101.445 415.302,101.591 416.985 C 101.737 418.669,101.869 420.080,101.885 420.122 C 101.900 420.164,102.473 420.199,103.158 420.199 C 104.274 420.199,104.382 420.264,104.203 420.828 C 104.066 421.259,104.358 422.052,105.133 423.352 C 106.166 425.086,106.247 425.386,106.076 426.846 C 105.905 428.303,106.846 431.298,107.738 432.135 C 108.472 432.824,108.650 435.475,108.035 436.571 C 106.265 439.722,104.643 440.954,101.224 441.745 C 100.403 441.935,100.383 441.994,100.383 444.112 C 100.383 446.287,99.687 447.775,97.711 449.831 C 97.497 450.053,97.322 450.330,97.322 450.446 C 97.322 450.562,97.005 450.999,96.618 451.419 C 95.488 452.641,95.369 453.252,96.261 453.252 C 97.348 453.252,97.206 453.667,95.535 455.374 C 94.687 456.239,93.817 457.517,93.501 458.359 C 91.527 463.618,89.174 466.905,84.512 470.916 C 84.078 471.290,83.305 471.754,82.795 471.947 C 79.758 473.099,79.266 473.432,79.227 474.370 C 79.206 474.874,79.155 475.425,79.112 475.593 C 79.070 475.761,79.019 476.360,78.998 476.923 C 78.977 477.487,78.672 478.279,78.321 478.683 C 77.969 479.088,77.590 479.568,77.479 479.750 C 77.221 480.172,73.503 482.632,73.123 482.632 C 72.967 482.632,72.839 482.755,72.839 482.905 C 72.839 483.055,72.523 483.257,72.138 483.354 C 71.264 483.573,70.605 484.237,69.515 485.998 C 69.046 486.756,68.087 488.280,67.384 489.386 C 66.681 490.492,66.106 491.456,66.105 491.529 C 66.105 491.601,73.095 491.619,81.637 491.568 L 97.169 491.476 99.008 489.564 C 102.772 485.649,106.234 477.049,106.303 471.439 L 106.350 467.577 108.187 466.617 C 109.197 466.089,110.059 465.642,110.103 465.623 C 110.146 465.604,109.958 464.505,109.684 463.180 C 108.945 459.606,109.243 457.648,110.864 455.433 C 111.157 455.031,111.678 453.722,112.020 452.523 C 112.362 451.325,112.863 449.587,113.132 448.661 C 113.540 447.254,114.617 445.169,117.003 441.163 C 117.204 440.826,118.073 439.656,118.934 438.562 C 120.801 436.189,121.777 433.724,122.087 430.599 C 122.354 427.899,122.981 426.789,125.910 423.826 C 127.387 422.331,127.954 421.493,128.363 420.199 C 128.656 419.273,129.219 418.171,129.613 417.751 C 130.631 416.665,130.688 405.843,129.690 403.253 C 128.052 399.000,128.076 388.211,129.729 385.642 C 130.376 384.638,131.248 382.202,131.821 379.801 C 132.122 378.539,132.653 377.364,133.273 376.588 C 133.810 375.914,134.532 374.950,134.877 374.445 L 135.504 373.527 134.787 371.997 C 134.392 371.155,134.064 370.293,134.058 370.080 C 134.045 369.601,133.456 368.553,132.747 367.747 C 132.452 367.412,132.211 367.028,132.211 366.893 C 132.211 366.663,131.585 365.819,130.788 364.976 C 130.594 364.771,130.070 363.905,129.625 363.053 L 128.814 361.503 129.595 360.661 C 130.024 360.198,130.381 359.598,130.389 359.328 C 130.411 358.543,133.221 356.300,134.850 355.766 C 138.400 354.602,140.663 353.645,141.139 353.105 C 141.639 352.538,141.676 352.539,142.949 353.189 C 144.118 353.785,144.418 353.817,145.932 353.513 C 146.858 353.327,148.422 353.175,149.409 353.175 C 152.717 353.175,155.095 352.551,155.499 351.577 C 155.929 350.539,155.895 350.540,158.110 351.532 C 160.107 352.427,161.118 352.709,164.040 353.185 C 165.134 353.364,167.196 353.790,168.622 354.132 C 170.048 354.475,171.597 354.699,172.065 354.630 C 173.323 354.445,173.137 355.059,171.371 356.911 L 169.827 358.531 170.005 360.214 C 170.103 361.140,170.264 362.674,170.364 363.623 C 170.500 364.911,170.415 365.610,170.032 366.378 C 168.607 369.232,168.363 371.955,169.370 373.760 C 169.979 374.849,170.072 375.236,169.774 375.424 C 167.752 376.700,167.386 378.410,168.573 381.044 C 169.774 383.711,169.736 384.939,168.412 386.237 C 167.775 386.862,166.724 387.927,166.077 388.603 L 164.901 389.832 166.383 390.843 C 167.198 391.399,167.911 391.965,167.967 392.102 C 168.023 392.238,168.264 392.349,168.503 392.349 C 168.741 392.349,168.936 392.487,168.936 392.655 C 168.936 392.823,169.143 392.961,169.396 392.961 C 169.648 392.961,169.855 393.080,169.855 393.226 C 169.855 394.348,174.899 395.335,176.962 394.618 C 180.744 393.303,188.115 394.096,193.034 396.346 C 194.463 397.000,195.296 397.085,196.102 396.659 C 197.891 395.715,199.076 395.408,200.964 395.399 C 203.060 395.388,206.407 394.816,207.220 394.329 C 207.457 394.187,208.153 393.673,208.766 393.185 C 210.056 392.160,212.056 391.759,212.723 392.392 C 212.963 392.621,213.642 393.171,214.231 393.615 C 214.928 394.139,215.730 395.288,216.526 396.900 C 217.919 399.720,217.802 399.653,219.486 398.590 C 220.690 397.830,220.765 397.819,221.066 398.360 C 221.349 398.869,222.111 399.631,224.243 401.537 C 224.616 401.870,225.167 402.142,225.468 402.142 C 225.800 402.142,226.289 402.658,226.712 403.456 C 227.095 404.179,228.300 405.636,229.389 406.695 C 230.478 407.754,231.370 408.737,231.370 408.880 C 231.370 409.023,231.649 409.229,231.991 409.337 C 232.334 409.446,232.919 409.834,233.292 410.200 C 233.665 410.566,234.354 411.113,234.822 411.414 C 235.358 411.759,235.586 412.099,235.437 412.332 C 235.112 412.838,234.440 414.762,234.435 415.202 C 234.432 415.399,234.878 415.697,235.425 415.863 C 235.972 416.030,237.246 416.412,238.256 416.712 C 239.265 417.012,240.505 417.505,241.010 417.809 C 241.547 418.131,242.526 418.361,243.368 418.362 C 244.759 418.363,244.901 418.452,247.549 420.992 C 251.007 424.307,250.617 424.436,252.027 419.510 C 252.630 417.402,252.794 417.357,253.650 419.072 C 254.013 419.798,255.208 421.226,256.306 422.244 L 258.301 424.096 258.301 426.148 C 258.301 428.238,259.021 430.032,260.512 431.657 C 260.811 431.983,261.056 432.343,261.056 432.456 C 261.056 432.570,261.435 433.142,261.897 433.729 C 264.432 436.939,264.266 436.615,265.047 439.884 C 265.310 440.984,265.515 441.315,265.854 441.184 C 266.104 441.088,267.055 441.010,267.967 441.010 L 269.625 441.010 269.625 439.375 C 269.625 436.924,267.768 432.421,266.261 431.217 C 266.155 431.132,265.751 430.099,265.363 428.921 C 264.975 427.743,264.329 426.052,263.928 425.163 C 263.526 424.274,263.198 422.998,263.198 422.327 C 263.198 421.454,262.900 420.652,262.150 419.506 C 259.544 415.521,260.052 409.002,263.253 405.367 L 264.469 403.985 263.304 402.528 C 262.664 401.727,261.827 400.743,261.445 400.341 C 261.063 399.939,260.750 399.410,260.750 399.164 C 260.750 398.573,252.959 390.819,252.365 390.819 C 250.620 390.819,250.483 390.464,250.485 385.981 C 250.487 382.694,250.332 381.097,249.769 378.577 C 249.374 376.809,248.924 374.625,248.770 373.723 C 248.482 372.039,247.833 370.513,247.090 369.770 C 245.860 368.540,244.223 365.379,244.223 364.233 C 244.223 364.026,243.922 363.279,243.554 362.571 C 242.972 361.454,242.880 360.762,242.850 357.307 C 242.831 355.119,242.706 352.636,242.571 351.789 C 242.267 349.876,242.632 349.633,246.213 349.365 C 247.559 349.265,249.617 349.007,250.786 348.793 L 252.910 348.403 252.813 346.734 C 252.604 343.146,252.562 343.336,253.711 342.678 C 256.233 341.233,258.088 340.321,258.507 340.321 C 259.062 340.321,259.832 339.584,259.832 339.053 C 259.832 338.380,260.857 335.911,261.368 335.356 C 261.634 335.065,262.169 333.906,262.555 332.781 C 263.276 330.679,265.004 328.613,267.865 326.433 C 268.691 325.804,269.013 325.327,269.013 324.734 C 269.013 324.281,269.284 323.348,269.616 322.662 C 269.948 321.975,270.309 320.850,270.419 320.161 C 270.530 319.473,270.743 318.986,270.894 319.079 C 271.210 319.274,272.308 318.400,275.202 315.651 C 276.617 314.306,277.501 313.695,278.033 313.695 C 278.510 313.695,278.806 313.523,278.806 313.244 C 278.806 312.585,280.548 311.768,282.479 311.521 C 283.405 311.403,284.713 311.136,285.386 310.927 C 286.060 310.718,287.639 310.487,288.896 310.412 C 290.577 310.312,291.422 310.104,292.093 309.627 C 292.597 309.268,293.969 308.814,295.163 308.612 C 296.351 308.411,298.492 307.820,299.921 307.299 C 303.541 305.978,304.016 306.066,306.790 308.569 C 307.221 308.958,307.904 309.105,309.278 309.105 C 311.106 309.105,313.168 309.973,315.048 311.532 C 315.365 311.795,315.883 311.658,317.248 310.950 C 319.311 309.879,319.366 309.872,320.564 310.496 C 321.519 310.994,321.686 310.962,324.560 309.733 C 325.233 309.445,326.611 309.039,327.621 308.832 C 328.630 308.625,329.880 308.326,330.397 308.168 C 331.569 307.809,332.224 307.805,332.904 308.151 C 334.454 308.940,335.235 309.148,338.148 309.551 C 341.245 309.980,344.745 309.922,345.983 309.422 C 346.320 309.286,347.628 308.700,348.891 308.120 C 352.758 306.344,355.095 306.052,358.225 306.951 C 359.908 307.435,361.283 307.765,363.351 308.182 L 365.111 308.536 365.116 309.968 C 365.121 311.371,365.210 311.569,367.497 315.278 C 368.052 316.177,368.511 316.316,371.944 316.628 C 374.062 316.819,374.299 316.785,374.491 316.262 C 375.162 314.429,378.310 310.340,379.056 310.332 C 379.235 310.330,380.466 309.778,381.790 309.105 C 384.662 307.645,384.392 307.677,384.392 308.799 C 384.392 310.140,384.002 310.394,389.085 305.738 C 391.866 303.191,392.252 302.761,393.854 300.424 L 394.874 298.936 394.689 295.834 C 394.587 294.127,394.413 291.656,394.303 290.340 C 394.181 288.893,394.227 287.685,394.418 287.280 C 395.298 285.415,396.021 283.360,396.020 282.728 C 396.019 282.339,396.465 280.754,397.010 279.206 L 398.003 276.392 397.106 274.615 C 396.294 273.008,392.946 269.319,392.299 269.319 C 391.630 269.319,392.216 268.284,394.032 266.259 C 395.126 265.038,396.021 263.851,396.021 263.619 C 396.021 263.388,396.315 262.904,396.674 262.545 C 397.212 262.007,397.354 261.414,397.482 259.170 C 397.568 257.673,397.756 256.375,397.901 256.286 C 398.045 256.196,398.164 255.092,398.164 253.831 C 398.164 252.166,398.331 251.193,398.775 250.273 C 399.376 249.031,400.275 244.091,399.959 243.774 C 399.790 243.605,61.675 243.387,60.214 243.555 " stroke="none" fill="#2b2b4c" fill-rule="evenodd"></path><path id="path2" d="M19.125 124.790 C 19.773 127.252,19.660 129.000,18.751 130.550 C 17.096 133.372,17.151 134.186,19.146 136.401 C 19.904 137.243,20.766 138.659,21.158 139.709 C 21.535 140.719,21.921 141.614,22.016 141.699 C 22.111 141.783,22.861 142.653,23.684 143.633 C 24.506 144.612,25.952 145.983,26.897 146.680 C 27.842 147.376,29.033 148.365,29.543 148.877 C 30.562 149.901,31.390 150.579,32.549 151.337 C 33.006 151.637,33.634 152.651,34.126 153.883 C 34.654 155.205,35.563 156.634,36.695 157.919 C 37.659 159.013,38.880 160.545,39.410 161.322 C 39.940 162.100,41.210 163.408,42.234 164.230 C 44.243 165.842,46.422 168.905,47.302 171.353 C 47.744 172.581,48.014 172.886,48.935 173.201 C 54.718 175.179,57.955 180.765,56.479 186.219 L 55.948 188.182 56.895 191.232 C 57.641 193.632,58.145 194.653,59.257 196.018 C 60.669 197.752,63.388 203.944,64.301 207.507 C 64.662 208.913,64.759 209.014,66.364 209.628 L 68.049 210.272 69.276 209.115 C 69.952 208.478,70.712 207.768,70.966 207.537 C 71.220 207.306,71.764 206.480,72.176 205.701 C 73.650 202.910,73.508 202.941,75.205 205.038 L 76.717 206.907 76.319 208.962 C 76.101 210.093,75.916 211.846,75.910 212.859 C 75.901 214.308,75.736 214.942,75.134 215.827 C 74.713 216.446,74.369 217.021,74.369 217.104 C 74.369 217.441,70.910 221.882,70.648 221.882 C 70.493 221.882,69.826 221.607,69.166 221.270 C 67.515 220.428,67.387 220.458,65.360 222.172 C 63.869 223.432,63.299 223.719,61.950 223.888 C 60.377 224.084,60.339 224.112,60.620 224.852 C 61.939 228.321,61.520 234.750,59.683 239.222 C 59.533 239.586,59.492 240.666,59.591 241.622 L 59.770 243.362 60.796 243.242 C 61.360 243.176,61.821 243.232,61.821 243.367 C 61.821 243.501,137.292 243.611,229.533 243.611 C 321.775 243.611,397.246 243.568,397.246 243.516 C 397.246 241.634,393.872 238.999,391.486 239.018 C 388.133 239.043,385.128 235.820,384.341 231.355 C 383.970 229.246,384.052 229.079,386.104 227.783 C 386.845 227.315,387.451 226.850,387.452 226.749 C 387.453 226.249,381.096 224.637,379.124 224.637 C 377.802 224.637,375.787 223.904,372.150 222.101 L 369.549 220.811 368.254 216.985 L 366.959 213.160 364.261 210.827 C 361.914 208.796,361.429 208.201,360.527 206.236 C 359.675 204.383,359.088 203.622,357.250 201.992 L 355.011 200.004 355.011 198.407 C 355.011 197.529,355.294 195.600,355.640 194.120 C 356.157 191.907,356.209 191.197,355.936 190.110 C 355.754 189.383,355.615 187.318,355.627 185.519 C 355.642 183.387,355.487 181.734,355.184 180.768 C 354.433 178.381,354.843 175.177,356.298 172.056 C 360.754 162.493,357.664 153.031,348.497 148.170 C 342.485 144.983,340.166 143.115,338.661 140.252 C 337.443 137.934,334.968 135.028,332.897 133.485 C 331.898 132.740,331.426 132.120,331.154 131.190 C 330.670 129.540,328.895 126.344,327.717 125.001 L 326.792 123.948 300.810 123.948 L 274.828 123.948 274.828 124.595 C 274.828 124.951,274.521 125.787,274.147 126.454 C 273.397 127.787,273.292 127.799,270.812 126.840 C 268.722 126.032,265.357 127.479,260.690 131.192 C 259.562 132.089,258.500 132.823,258.328 132.823 C 258.156 132.823,257.164 133.374,256.122 134.047 C 253.697 135.615,253.529 135.597,253.309 133.747 C 253.207 132.885,252.695 131.438,252.130 130.420 L 251.132 128.617 248.672 128.441 C 245.581 128.219,244.404 127.781,241.184 125.653 L 238.604 123.948 229.861 123.984 C 225.052 124.004,219.293 124.107,217.064 124.214 L 213.011 124.407 211.249 127.903 L 209.487 131.398 207.642 132.058 C 205.215 132.924,202.812 135.286,203.046 136.574 C 203.235 137.615,200.862 139.657,197.705 141.170 C 193.246 143.307,189.009 146.434,188.197 148.186 C 187.467 149.760,186.007 151.419,183.996 152.956 L 182.989 153.727 181.399 152.992 C 180.524 152.588,179.080 151.667,178.189 150.945 C 176.379 149.480,175.444 149.044,174.113 149.044 C 173.133 149.044,171.183 146.566,171.608 145.862 C 171.720 145.676,172.250 144.904,172.786 144.147 C 173.322 143.389,174.196 141.480,174.728 139.904 C 175.261 138.328,176.149 136.125,176.702 135.008 C 177.255 133.890,177.893 132.494,178.119 131.905 C 178.471 130.989,179.694 129.398,183.577 124.796 L 184.293 123.948 101.598 123.948 L 18.903 123.948 19.125 124.790 M70.393 491.890 C 70.394 491.932,70.668 492.862,71.002 493.956 C 71.811 496.605,71.807 496.637,70.339 499.051 C 68.852 501.495,68.459 502.650,67.496 507.422 C 66.471 512.497,66.022 513.664,62.490 520.428 C 61.962 521.438,61.112 523.160,60.601 524.254 C 60.090 525.348,59.032 527.036,58.249 528.005 L 56.827 529.767 56.845 533.479 C 56.864 537.191,56.863 537.191,55.823 538.818 C 54.564 540.786,54.569 540.631,55.700 542.414 C 56.889 544.290,56.918 544.193,54.785 545.567 L 52.951 546.748 52.948 548.298 C 52.947 549.312,52.686 550.386,52.194 551.406 C 51.780 552.264,51.346 553.357,51.229 553.835 C 51.112 554.314,50.500 555.807,49.868 557.154 C 47.660 561.860,47.723 561.537,48.645 563.443 C 49.092 564.367,49.819 566.016,50.261 567.107 L 51.063 569.090 49.268 570.926 C 47.690 572.541,47.310 573.185,46.118 576.282 C 45.372 578.217,44.399 580.550,43.957 581.465 C 43.030 583.382,42.989 583.898,43.621 585.713 C 44.070 587.000,44.058 587.085,43.158 588.971 C 41.994 591.409,41.935 593.607,42.945 596.820 C 43.336 598.064,44.266 601.270,45.011 603.944 L 46.366 608.807 47.924 609.989 C 51.881 612.991,55.475 610.066,53.249 605.656 L 52.354 603.883 56.246 602.576 C 59.618 601.444,63.657 600.605,63.657 601.036 C 63.657 601.113,63.432 601.425,63.157 601.729 C 62.040 602.964,63.228 605.377,65.393 606.266 C 67.212 607.013,68.248 608.659,68.248 610.803 C 68.248 611.087,76.590 611.171,104.909 611.171 L 141.571 611.171 141.343 608.646 C 140.957 604.371,138.126 595.803,137.627 597.399 C 137.548 597.651,137.327 598.437,137.134 599.146 C 136.662 600.887,136.564 600.904,134.395 599.621 C 132.798 598.676,132.376 598.237,131.690 596.803 C 131.242 595.868,130.170 594.277,129.308 593.267 C 126.684 590.195,125.930 588.699,125.529 585.769 C 125.334 584.338,124.962 581.790,124.704 580.107 C 124.428 578.302,124.238 575.051,124.241 572.181 C 124.248 567.221,123.833 565.480,122.118 563.275 C 121.988 563.106,121.819 562.187,121.743 561.232 C 121.633 559.842,121.367 559.148,120.405 557.751 C 119.006 555.717,119.306 555.869,115.991 555.524 L 113.389 555.253 111.693 556.433 C 110.176 557.488,109.799 557.613,108.128 557.613 L 106.259 557.613 104.720 559.296 C 103.531 560.598,102.980 560.979,102.292 560.979 C 101.803 560.979,100.657 561.125,99.745 561.304 C 97.681 561.707,95.471 560.657,92.446 557.835 L 90.551 556.068 92.042 554.368 L 93.534 552.668 93.257 551.085 C 93.106 550.215,92.494 548.470,91.899 547.207 C 91.303 545.945,90.575 544.086,90.281 543.076 C 89.987 542.066,89.403 540.482,88.983 539.556 C 87.950 537.275,86.530 532.283,86.793 531.857 C 87.603 530.547,87.794 528.171,87.486 523.247 C 87.068 516.577,87.403 515.165,89.910 513.023 L 91.554 511.619 89.849 509.895 C 88.458 508.490,88.058 507.843,87.680 506.394 C 87.104 504.182,87.187 504.055,89.198 504.055 L 90.831 504.055 91.649 502.491 C 92.375 501.103,92.444 500.714,92.265 499.038 C 92.079 497.303,92.146 496.977,93.100 495.017 C 93.671 493.844,94.230 492.643,94.343 492.349 C 94.537 491.844,93.848 491.813,82.469 491.813 C 75.826 491.813,70.391 491.848,70.393 491.890 M127.265 532.668 C 126.968 532.966,127.922 535.666,128.482 536.113 C 128.746 536.324,129.563 536.496,130.297 536.496 L 131.633 536.496 131.539 535.044 C 131.462 533.838,131.315 533.531,130.668 533.222 C 129.680 532.750,127.531 532.401,127.265 532.668 M129.916 542.655 C 129.243 542.783,127.831 542.895,126.779 542.905 L 124.866 542.923 124.866 544.693 C 124.866 546.465,127.182 549.656,128.467 549.656 C 129.260 549.656,131.864 542.921,131.238 542.489 C 131.184 542.452,130.589 542.527,129.916 542.655 M44.070 566.980 C 44.070 567.985,44.180 568.346,44.453 568.238 C 46.909 567.261,47.437 566.974,47.437 566.619 C 47.437 566.030,46.438 565.570,45.162 565.570 L 44.070 565.570 44.070 566.980 M46.396 610.742 C 46.143 611.402,46.304 611.550,47.140 611.425 C 47.812 611.324,47.812 611.321,47.204 610.775 C 46.638 610.265,46.580 610.263,46.396 610.742 " stroke="none" fill="#f4f4fb" fill-rule="evenodd"></path><path id="path3" d="M19.379 127.621 C 19.379 128.715,19.434 129.162,19.502 128.615 C 19.570 128.068,19.570 127.173,19.502 126.626 C 19.434 126.079,19.379 126.526,19.379 127.621 M248.125 128.454 C 248.673 128.522,249.568 128.522,250.115 128.454 C 250.662 128.386,250.214 128.331,249.120 128.331 C 248.026 128.331,247.578 128.386,248.125 128.454 M355.070 198.040 C 355.019 199.797,355.101 200.134,355.700 200.641 C 356.384 201.221,356.386 201.220,355.870 200.606 C 355.533 200.206,355.311 199.289,355.240 198.005 L 355.129 196.021 355.070 198.040 M76.435 491.736 C 79.843 491.786,85.421 491.786,88.829 491.736 C 92.238 491.687,89.449 491.647,82.632 491.647 C 75.815 491.647,73.026 491.687,76.435 491.736 M88.376 504.277 C 88.926 504.345,89.752 504.344,90.212 504.274 C 90.672 504.204,90.222 504.148,89.212 504.150 C 88.202 504.152,87.826 504.209,88.376 504.277 M117.448 555.687 C 117.829 555.760,118.380 555.757,118.672 555.681 C 118.965 555.604,118.653 555.544,117.980 555.548 C 117.307 555.551,117.067 555.614,117.448 555.687 M141.464 609.946 C 141.464 610.536,141.526 610.777,141.603 610.482 C 141.680 610.187,141.680 609.705,141.603 609.411 C 141.526 609.116,141.464 609.357,141.464 609.946 M86.534 611.400 C 96.676 611.445,113.271 611.445,123.412 611.400 C 133.554 611.355,125.256 611.319,104.973 611.319 C 84.690 611.319,76.393 611.355,86.534 611.400 " stroke="none" fill="#dce4ec" fill-rule="evenodd"></path><path id="path4" d="M18.719 123.794 C 18.919 123.995,184.597 123.998,184.798 123.797 C 184.883 123.712,147.516 123.642,101.760 123.642 C 56.004 123.642,18.635 123.710,18.719 123.794 M224.732 123.871 C 227.394 123.922,231.663 123.922,234.220 123.871 C 236.776 123.820,234.598 123.778,229.380 123.778 C 224.162 123.778,222.071 123.820,224.732 123.871 M274.568 124.637 C 274.610 125.562,274.622 125.573,274.741 124.790 L 274.869 123.948 300.771 123.948 L 326.673 123.948 327.759 124.943 L 328.845 125.937 327.790 124.790 L 326.735 123.642 300.629 123.642 L 274.522 123.642 274.568 124.637 M214.473 124.175 C 215.531 124.235,217.184 124.234,218.145 124.174 C 219.106 124.113,218.240 124.064,216.220 124.065 C 214.200 124.065,213.414 124.115,214.473 124.175 M182.230 126.473 L 181.331 127.467 182.326 126.569 C 182.873 126.074,183.321 125.627,183.321 125.574 C 183.321 125.338,183.068 125.546,182.230 126.473 M203.551 134.780 C 202.909 135.443,202.597 136.025,202.690 136.387 C 202.827 136.916,202.839 136.914,202.872 136.357 C 202.891 136.029,203.348 135.306,203.886 134.751 C 204.424 134.196,204.795 133.741,204.711 133.741 C 204.627 133.741,204.105 134.209,203.551 134.780 M184.679 152.181 L 183.780 153.175 184.774 152.276 C 185.321 151.782,185.769 151.334,185.769 151.282 C 185.769 151.045,185.516 151.253,184.679 152.181 M358.143 160.061 C 358.143 160.650,358.206 160.891,358.283 160.597 C 358.360 160.302,358.360 159.820,358.283 159.526 C 358.206 159.231,358.143 159.472,358.143 160.061 M358.149 165.111 C 358.152 165.784,358.215 166.024,358.288 165.643 C 358.362 165.262,358.359 164.711,358.282 164.419 C 358.206 164.126,358.146 164.438,358.149 165.111 M355.701 185.616 C 355.704 186.289,355.767 186.529,355.840 186.148 C 355.913 185.767,355.910 185.216,355.834 184.924 C 355.757 184.631,355.697 184.943,355.701 185.616 M357.154 201.836 C 357.725 202.425,358.261 202.907,358.345 202.907 C 358.429 202.907,358.031 202.425,357.460 201.836 C 356.889 201.247,356.353 200.765,356.269 200.765 C 356.184 200.765,356.583 201.247,357.154 201.836 M378.653 224.541 C 378.948 224.618,379.430 224.618,379.725 224.541 C 380.019 224.465,379.778 224.402,379.189 224.402 C 378.600 224.402,378.359 224.465,378.653 224.541 M89.059 509.105 C 89.630 509.694,90.166 510.176,90.250 510.176 C 90.334 510.176,89.936 509.694,89.365 509.105 C 88.794 508.516,88.258 508.034,88.174 508.034 C 88.090 508.034,88.488 508.516,89.059 509.105 M87.306 518.745 C 87.306 519.503,87.366 519.813,87.439 519.434 C 87.512 519.055,87.512 518.435,87.439 518.057 C 87.366 517.678,87.306 517.988,87.306 518.745 M56.689 530.681 C 56.689 531.270,56.752 531.511,56.829 531.217 C 56.906 530.922,56.906 530.440,56.829 530.145 C 56.752 529.851,56.689 530.092,56.689 530.681 M56.689 535.578 C 56.689 536.167,56.752 536.408,56.829 536.113 C 56.906 535.819,56.906 535.337,56.829 535.042 C 56.752 534.748,56.689 534.989,56.689 535.578 M124.655 544.606 C 124.657 545.616,124.714 545.992,124.782 545.442 C 124.850 544.892,124.849 544.066,124.779 543.606 C 124.709 543.146,124.653 543.596,124.655 544.606 M125.937 547.819 C 126.595 548.493,127.201 549.044,127.286 549.044 C 127.370 549.044,126.901 548.493,126.243 547.819 C 125.586 547.146,124.979 546.595,124.895 546.595 C 124.811 546.595,125.280 547.146,125.937 547.819 M52.717 548.585 C 52.720 549.258,52.783 549.497,52.856 549.117 C 52.929 548.736,52.927 548.185,52.850 547.892 C 52.773 547.600,52.713 547.911,52.717 548.585 M91.507 556.790 C 91.507 556.843,91.955 557.291,92.502 557.785 L 93.497 558.684 92.598 557.689 C 91.760 556.762,91.507 556.554,91.507 556.790 M107.804 557.518 C 108.099 557.595,108.581 557.595,108.875 557.518 C 109.170 557.441,108.929 557.378,108.340 557.378 C 107.751 557.378,107.510 557.441,107.804 557.518 M104.801 558.914 L 103.902 559.908 104.897 559.009 C 105.824 558.171,106.032 557.919,105.796 557.919 C 105.743 557.919,105.295 558.366,104.801 558.914 M43.764 566.947 C 43.764 568.355,43.852 568.627,44.300 568.606 C 44.620 568.592,44.681 568.520,44.453 568.428 C 43.826 568.175,43.957 565.644,44.606 565.475 C 45.009 565.370,44.971 565.326,44.453 565.299 C 43.818 565.267,43.764 565.395,43.764 566.947 M48.804 571.155 L 46.978 573.068 48.891 571.241 C 49.943 570.237,50.803 569.376,50.803 569.329 C 50.803 569.102,50.501 569.379,48.804 571.155 M124.325 576.282 C 124.325 576.871,124.388 577.112,124.465 576.817 C 124.542 576.523,124.542 576.041,124.465 575.746 C 124.388 575.451,124.325 575.692,124.325 576.282 M42.026 592.808 C 42.026 593.902,42.082 594.350,42.149 593.803 C 42.217 593.256,42.217 592.360,42.149 591.813 C 42.082 591.266,42.026 591.714,42.026 592.808 " stroke="none" fill="#ed8a8c" fill-rule="evenodd"></path></g></svg>