<?xml version="1.0" encoding="UTF-8" standalone="no"?>
<svg
   xmlns:dc="http://purl.org/dc/elements/1.1/"
   xmlns:cc="http://creativecommons.org/ns#"
   xmlns:rdf="http://www.w3.org/1999/02/22-rdf-syntax-ns#"
   xmlns:svg="http://www.w3.org/2000/svg"
   xmlns="http://www.w3.org/2000/svg"
   xmlns:xlink="http://www.w3.org/1999/xlink"
   xmlns:sodipodi="http://sodipodi.sourceforge.net/DTD/sodipodi-0.dtd"
   xmlns:inkscape="http://www.inkscape.org/namespaces/inkscape"
   width="237.40109"
   height="601.69263"
   id="svg2"
   version="1.1"
   inkscape:version="0.91 r13725"
   sodipodi:docname="Flag_of_Togo.svg">
  <metadata
     id="metadata30">
    <rdf:RDF>
      <cc:Work
         rdf:about="">
        <dc:format>image/svg+xml</dc:format>
        <dc:type
           rdf:resource="http://purl.org/dc/dcmitype/StillImage" />
        <dc:title></dc:title>
      </cc:Work>
    </rdf:RDF>
  </metadata>
  <defs
     id="defs28">
    <pattern
       y="0"
       x="0"
       height="6"
       width="6"
       patternUnits="userSpaceOnUse"
       id="EMFhbasepattern" />
    <clipPath
       clipPathUnits="userSpaceOnUse"
       id="clipPath3389">
      <path
         inkscape:connector-curvature="0"
         style="display:inline;fill:#800080;fill-opacity:1;stroke:none"
         d="m -97.587685,-149.99949 c -1.443367,-0.0446 -0.112767,2.82536 0.02292,3.09671 0.34945,0.69889 2.181108,1.54704 2.74245,1.82771 1.2119,0.60595 2.4903,0.62346 3.655416,0.91474 1.386892,0.34672 2.630267,0.2751 3.9621,0.60806 1.328717,0.33218 3.192442,0 4.570159,0 0.837741,0 0.781391,3.1238 0.914733,3.65718 0.319992,1.27995 1.346183,1.77941 1.827708,2.74245 0.47555,0.9511 1.41455,1.0898 1.827717,2.74245 0.394667,1.57868 -0.214158,3.17251 -0.608067,3.96033 -0.312058,0.62411 -2.32845,1.41548 -3.047358,2.13439 -1.003275,1.00327 -1.545558,1.2634 -2.132625,2.43753 -0.843417,1.68684 -1.219642,2.31522 -1.219642,4.26524 0,1.63819 -0.214925,2.68567 -0.609825,4.26525 -0.1288,0.51518 0,1.28724 0,1.82947 -0.460516,1.84204 -0.81445,2.6515 -1.217891,4.26525 -0.388384,1.55352 -1.77155,1.908 -2.132617,3.35227 -0.269783,1.07911 -1.720817,1.7208 -2.437533,2.43753 -1.178009,1.17801 0.4969,2.63129 0.912975,3.04736 0.7582,0.75821 1.154166,2.30658 1.524558,3.047358 0.474892,0.949795 1.816783,1.511871 2.437533,2.132624 0.8813,0.881298 2.522675,0.608061 3.960334,0.608061 1.556925,0 3.121725,0.0186 4.267008,0.304912 1.257667,0.314418 1.791258,1.134748 3.350508,1.524561 0.638175,0.159543 1.722859,1.775282 2.437534,2.132622 1.079591,0.539794 1.711391,1.617093 2.742441,2.132623 0.973117,0.486556 2.16195,1.689918 3.047359,2.132621 0.900935,0.450459 0.914743,3.381663 0.914743,4.267008 0,0.951427 0.314925,3.085657 0.609825,4.265247 0.341733,1.366945 1.081908,2.165595 1.5228,3.047356 0.674658,1.349322 1.098,2.102654 2.437525,2.437534 0.180667,0.04512 2.443625,-1.522799 3.657183,-1.522799 1.541075,0 1.91975,0.715377 3.350509,0 1.424508,-0.712254 2.016466,-0.727748 3.047366,0.303153 1.323917,1.323918 -0.737475,2.566946 -1.217891,3.047356 -1.090775,1.090783 -0.926567,2.39021 -0.609817,3.657187 0.189708,0.758837 3.137283,1.088357 3.655417,1.217887 1.919708,0.479931 1.957716,0.43492 3.047358,1.524559 0.628492,0.628492 0.718775,1.0441 1.0293,2.113233 -0.09026,0.423825 -0.312917,0.558309 -0.567525,0.685609 -0.845842,0.422908 -1.595783,2.58175 -2.132625,3.655425 -0.667608,1.335183 -0.609825,2.643358 -0.609825,4.267008 0,1.582317 -0.609817,2.8828 -0.609817,4.57015 0,1.756908 0.111717,2.9659 0.609817,3.9621 0.566717,1.133442 1.269425,1.625883 1.827708,2.74245 0.672109,1.344233 1.291792,1.594933 2.134384,2.437533 0.854766,0.854759 1.089491,1.51235 0.657416,2.113234 -0.230358,0.320358 -0.65035,0.623908 -1.267241,0.932358 -1.743942,0.871967 -1.827709,1.319467 -1.827709,3.352275 0,1.965433 0.890559,1.782892 1.5228,3.047358 0.446267,1.784984 2.5674,0.656759 1.21965,3.352267 -0.571175,1.142292 -2.328158,1.898142 -3.047358,2.437533 -0.442267,0.3317 0.504975,3.547992 0.608058,3.960342 0.328559,1.314217 -0.08662,3.400842 -0.30315,4.267 -0.331425,1.325667 -2.081108,1.7762 -3.04735,2.742442 -0.885933,0.885933 -0.609825,2.940533 -0.609825,4.265258 0,1.2671667 0.638984,1.7980417 0.650359,2.3458833 0.725241,0.3493 1.948066,1.88865 2.545041,3.0826 0.676834,1.35365 1.272392,1.9349584 1.827709,3.0456 0.717583,1.4351667 0.914733,2.09100837 0.914733,3.9621 0,1.7747417 -0.09783,2.93705 -0.592192,3.910975 0.01733,1.5523334 -2.150358,2.16835 -3.029733,2.3881917 -1.4209,0.3552333 -2.98295,0.3049083 -4.570158,0.3049083 -1.651217,0 -3.352267,-0.641975 -3.352267,1.21965 0,2.2173917 0.04067,2.2956997 1.827708,2.7424417 0.989559,0.247392 2.218534,1.108392 3.047359,1.5228 1.389541,0.694775 1.29185,2.343258 -0.304909,2.742442 -1.560658,0.390141 -3.117283,0.551866 -4.263483,0.888308 -0.578017,1.742117 -2.175708,-0.190158 -0.95175,2.25775 0.438442,0.876892 2.23735,1.3203 3.04735,1.5228 1.314208,0.328558 3.400858,-0.08663 4.267017,-0.30315 1.250775,-0.3127 1.889,-1.280933 2.742441,-2.134383 0.871209,-0.871209 1.359484,-1.746925 2.740684,-2.437534 1.147833,-0.573916 2.903616,-0.304908 4.267008,-0.304908 l 4.570158,0 c 2.0709,0 2.358609,0.451983 3.047359,1.829467 0.468,0.936016 1.519616,1.824541 2.132625,2.437533 0.263683,0.263683 3.782975,0.565067 3.962091,0.609825 1.174067,0.293525 1.217892,2.016483 1.217892,3.350508 0,1.067367 -1.504508,2.209875 -2.132625,3.047367 -0.691167,0.921492 -0.609825,2.316417 -0.609825,3.962092 0,1.554133 0.590975,2.36035 0.914733,3.655416 0.308675,1.234667 1.217892,1.4952 1.217892,3.352275 0,0.310425 -2.708192,1.795217 -3.0456,2.132625 -0.89795,0.89795 -0.609825,2.480259 -0.609825,3.962092 0,1.724158 0.916317,2.442458 1.5228,3.655425 0.854383,1.708775 -0.60915,3.04845 -1.217883,3.657175 -1.049859,1.049867 -2.382192,1.647575 -3.352275,2.132625 -1.348,0.673992 -1.45425,1.5535 -1.827717,3.047358 -0.191533,0.766125 -0.78025,1.253825 -0.914733,1.522792 -0.4234,1.693608 0.06808,4.096492 0.609825,5.179992 0.5655,1.131008 0.871875,1.968166 1.217883,3.352266 0.355275,1.421075 0.609825,2.578659 0.609825,4.265242 0,1.10285 0.594608,2.376633 0.914742,3.657192 0.234358,0.937158 0.216616,1.872916 0.223833,2.636691 -0.41845,0.666367 -0.722525,1.212525 -1.138575,1.62855 -1.25835,1.258359 -2.194733,1.158942 -3.657175,1.524567 -1.670367,0.417575 -2.833625,0.04467 -3.960333,0.60805 -1.137259,0.568633 -1.320317,1.575783 -2.437542,2.134392 -0.918617,0.4595 -0.914733,2.315275 -0.914733,3.655416 0,0.7155 1.509225,2.101942 1.829475,2.74245 0.553825,1.107625 1.25255,1.897017 1.827708,3.04735 0.06425,0.128475 0.203342,0.203359 0.304917,0.304917 -0.401017,1.604058 2.181366,2.486283 3.350508,3.655425 0.740125,0.740133 1.475058,2.033642 1.829467,2.742442 0.518416,1.036853 1.951266,2.149053 2.74245,2.742453 1.156408,0.8673 1.641916,1.58412 2.74245,2.13439 1.2613,0.63065 1.916683,0.91296 3.655416,0.91296 2.138334,0 2.0661,0.47679 2.742442,1.82948 0.682983,1.36596 1.395208,1.82771 3.047358,1.82771 2.101967,0 2.632292,-0.13754 3.047367,1.5228 0.332183,1.32872 0,3.19243 0,4.57015 0,1.45555 0.05633,3.27256 0.304908,4.26701 0.293709,1.17481 1.611567,1.71964 2.437534,2.13262 0.891625,0.44582 1.772933,1.71816 2.132625,2.43753 0.578175,1.15635 1.223291,1.84933 1.5228,3.04736 0.3920997,1.56842 -0.225109,3.19442 -0.608067,3.96034 -0.550333,1.10066 -0.857617,2.81885 -1.21965,4.267 -0.226442,0.906 -2.782183,0.91298 -3.657175,0.91298 l -1.5228,0 c -2.607217,0 -2.774108,0.36822 -3.657183,2.13438 -0.646209,1.29237 -1.686567,1.21789 -3.350509,1.21789 -2.000333,0 -2.8343,-0.0624 -2.437533,1.52456 0.247075,0.98832 1.173775,2.08675 1.827708,2.74069 0.800009,0.80001 0.975234,2.37461 1.219642,3.35226 0.349808,1.39922 0.608067,2.67172 0.608067,4.26702 0,1.16368 0.365108,2.98149 0.609825,3.96032 0.318991,1.27597 0.609825,2.34904 0.609825,3.9621 0,1.37887 0.609816,2.34418 0.609816,3.96033 0,1.18268 0.303159,2.87572 0.303159,4.26525 0,1.54297 0.306241,2.52403 0.611591,4.29873 -0.30535,1.7295 -0.225241,2.87184 0.303142,3.9286 0.580567,1.16114 1.439183,1.63345 2.437542,2.13264 1.262225,0.6311 1.219641,1.8952 1.219641,2.74244 0,0.24434 -2.107708,1.77789 -2.437533,2.43753 -0.6537,1.30742 -0.914742,1.6423 -0.914742,3.65718 0,1.59733 0.957167,2.50316 -1.219641,3.04736 -2.020475,0.50512 -2.132625,0.57789 -2.132625,2.74245 0,1.18269 0.304908,2.8757 0.304908,4.26524 0,0.93407 -2.607542,1.91271 -3.04735,2.13262 -0.9078,0.45395 -0.912975,1.56396 -0.912975,2.43754 -1.294933,0.64747 -0.475892,4.19289 -0.304917,4.87683 0.326825,1.3074 0.304917,2.7822 0.304917,4.26524 l 0,4.57017 c 0,1.3209 0.836858,2.36141 1.5228,3.04735 0.930958,0.93096 1.347925,1.65284 2.132617,2.43754 0.8813,0.8813 2.524441,0.60981 3.9621,0.60981 2.199875,0 2.34295,0.114 3.047358,1.5228 0.538842,1.07773 0.608058,2.87367 0.608058,4.26701 0,1.45556 -0.05633,3.2708 -0.304908,4.26524 -0.351142,1.40458 -1.508725,2.40938 -2.132633,3.6572 -0.649792,1.2996 -1.036175,2.3773 -1.522792,3.3505 -0.658108,1.31624 -0.922883,2.47016 -1.21965,3.65718 -0.214192,0.85679 -0.664167,1.13737 -0.912975,2.13262 -0.406683,1.62674 -2.437533,1.2138 -2.437533,3.6572 0,1.5775 -0.304909,2.91321 -0.304909,4.57015 0,1.74452 0.09504,2.93076 0.609817,3.96033 0.684908,1.3698 0.48415,2.69764 -0.914733,3.04737 -1.747759,0.43692 -2.446542,0.31392 -3.352267,1.21964 -0.821908,0.82191 0.48605,3.71277 0.609825,3.96033 0.407858,0.8157 1.926675,1.11092 2.437533,2.13262 0.803717,1.60743 -0.727275,2.85989 -1.21965,3.35228 -1.479166,1.47916 -2.553425,-0.32822 -3.045591,2.13262 -0.278575,1.39284 0,3.14621 0,4.57191 0,0.71182 1.779166,2.08407 2.132616,2.43754 0.856,0.85598 2.5898,0.60806 3.960334,0.60806 2.213608,0 2.320666,0.44729 2.742441,2.13439 0.07392,0.29561 0,0.60826 0,0.91297 0.491525,1.96607 0.609825,3.43799 0.609825,5.48489 0,1.52503 0.746775,2.71141 1.219659,3.65719 0.506508,1.013 0.742275,2.39929 1.217883,3.35051 l 1.5228,3.04735 c 0.504067,1.00815 1.931675,1.72724 2.742442,2.13262 1.015491,0.50775 2.599416,0.6503 3.657183,0.91474 1.5589083,0.38973 0.1655917,3.0211 0,3.35228 -0.6997333,1.39945 -1.218492,2.26127 -0.985233,3.88806 -0.233259,1.66409 1.198433,1.70166 2.204883,2.20489 1.3401917,0.67009 1.7985167,0.88553 2.74245,1.82946 0.74025,0.74026 1.0051667,2.49968 1.2178833,3.35051 0.2659084,1.06365 1.1085334,2.21885 1.5228,3.04737 0.7172084,1.43441 1.2178167,1.8268 2.4392917,2.43753 1.02795,0.51399 3.0517833,0.38269 3.9603333,0.60983 l 3.6571834,0.91473 c 1.5675416,0.39189 2.6277663,0.60983 4.2652413,0.60983 1.199767,0 3.449334,0.40408 4.265242,0.60805 0.197075,0.0492 0.406692,0 0.609833,0 0.502442,0.12561 1.016717,0.20335 1.524559,0.30492 0.116675,0.0233 1.154716,3.0997 1.217891,3.35227 0.29095,1.16383 1.02105,2.34878 1.522792,3.35227 0.612717,1.22543 0.935458,2.21374 1.21965,3.35051 0.271908,1.08765 1.047092,2.40085 1.5228,3.35227 0.700017,1.40002 0.878225,2.29149 1.219642,3.65719 0.230791,0.92313 2.355916,0.91298 3.657191,0.91298 1.753017,0 2.713817,0.3049 4.265242,0.3049 1.764892,0 2.133767,0.91755 2.437533,2.13263 0.40475,1.619 0.238559,2.78193 0.609825,4.267 0.07392,0.29561 0,0.60827 0,0.91297 0.08167,0.18588 0.163592,0.36905 0.21855,0.53757 0.32195,-0.10324 0.643984,-0.1951 0.9024,-0.3243 0.944992,-0.47249 1.653517,-0.39584 2.585575,-0.86187 0.880025,-0.44 1.432134,-0.62725 2.370567,-0.86186 0.684942,-0.17124 1.88015,-0.68549 2.585583,-0.86185 1.052925,-0.26324 1.893767,-0.14959 3.015634,-0.43006 0.938741,-0.23468 1.820833,-0.18686 2.800608,-0.43181 1.130667,-0.28267 1.558475,-0.64507 2.802367,-0.64507 0.974166,0 1.423308,-0.64684 2.583825,-0.64684 0.843341,0 1.925516,-0.48182 2.585583,-0.64684 1.014183,-0.25354 1.746083,-0.65199 2.585583,-0.86186 0.9522,-0.23806 1.791767,-0.78661 2.802375,-1.29191 0.751167,-0.37559 1.701909,-0.64094 2.585592,-0.86186 0.900808,-0.22519 1.724683,-0.64644 2.585575,-1.07689 0.7245,-0.36225 1.738217,-0.54655 2.3688,-0.86185 0.716575,-0.3583 1.881925,-0.68595 2.585583,-0.86187 1.011917,-0.25298 1.483909,-0.85698 2.370567,-1.07864 0.6159,-0.15398 1.787733,-0.28436 2.37055,-0.43006 0.278708,-0.0697 0.574575,0 0.861867,0 0.689125,0 2.229675,-0.66536 3.015633,-0.86185 1.510558,-0.37765 3.029475,-0.56289 4.524333,-0.86187 1.13865,-0.22772 2.279492,-0.43181 3.447442,-0.43181 1.06445,0 2.825358,-0.65259 3.662467,-0.86186 1.269308,-0.31733 2.664183,-0.34149 4.140116,-0.51641 -0.03133,-0.25974 -0.466133,-0.34001 -0.653883,-1.09099 -0.319075,-1.27628 -0.907183,-2.1006 -1.219658,-3.35051 -0.323317,-1.29328 -1.522792,-1.79241 -1.5228,-3.35227 0,-1.16629 0.169175,-3.18136 -0.609825,-3.96033 -0.353875,-0.35388 -1.990042,-1.86897 -2.132617,-2.4393 -0.275558,-1.10238 0.04708,-2.85723 -0.304908,-4.26524 -0.453667,-1.81463 -0.646342,-1.69439 -2.132625,-2.43754 -0.945975,-0.47299 -1.875234,-1.008 -2.437534,-2.13262 -0.461933,-0.92387 -1.218525,-1.82318 -1.524566,-3.04736 -0.153034,-0.61216 -0.70435,-3.14361 -1.217884,-3.65718 -0.410516,-0.41051 -1.878466,-1.82771 -2.74245,-1.82771 -1.409408,0 -2.481608,-0.34725 -3.352266,-1.21789 -0.750475,-0.75048 -1.522784,-1.55397 -1.5228,-3.04735 0,-1.57914 0.17325,-3.17903 -0.609817,-3.9621 -0.465567,-0.46557 -1.829475,-1.73164 -1.829483,-2.74244 0,-1.74712 0.3764,-2.61446 0.91475,-3.96034 0.203125,-0.50784 0.3652,-1.03536 0.609816,-1.52456 0.44735,-0.44735 0.829875,-0.74678 1.217892,-1.5228 0.4521,-0.9042 1.011442,-2.2441 0.304908,-3.65718 -0.622066,-1.24413 -0.799216,-1.67577 -1.217883,-3.35051 -0.347825,-1.39127 -0.609817,-2.28296 -0.609825,-3.9621 0,-1.3634 0.268992,-3.11741 -0.304908,-4.26524 -0.599725,-1.19942 -1.88675,-1.33594 -2.437542,-2.43753 -0.368858,-0.73773 -0.971867,-1.20689 -1.362408,-1.90174 -0.07317,-0.34567 -0.160392,-0.70195 -0.160392,-1.14562 -8e-6,-0.9558 0.100242,-1.78407 -0.135717,-2.8059 l 6.382009,-0.48645 -0.914734,-123.71148 -3.047366,-4.57016 2.742458,-3.04736 0.01233,-2.14496 -0.01233,-7.30027 3.962092,-6.39963 -3.962092,-3.35227 L 76.11705,54.811575 53.740383,31.548358 53.264508,15.809258 46.866642,8.49665 49.607325,4.2314083 48.541017,-34.161075 8.3631167,-62.942667 c -0.0025,0.0025 -0.00417,0.0067 -0.0075,0.009 L 8.0965333,-63.22095 -8.2858833,-74.992674 c -0.122475,-0.489913 -0.5293,-1.235078 -0.3049167,-2.132622 0.2469583,-0.987721 -0.2425083,-4.085116 0.3049167,-5.179981 0,-1.549167 0.087625,-2.61625 0.6080583,-3.657184 0.5282083,-1.056409 1.4936333,-2.312056 1.829475,-3.65542 0.319725,-1.278894 0.965425,-2.542442 1.5228,-3.657182 0.293425,-0.586857 1.6067167,-2.271477 0.9147333,-3.655421 -0.5266083,-1.053232 -0.984225,-2.271618 -1.5245583,-3.352266 -0.3959417,-0.7919 -0.9931,-2.42197 -0.6080583,-3.9621 0.1562,-0.62483 0.026583,-3.97454 0.6080583,-4.26524 1.10635,-0.55318 2.1137833,-1.19906 3.0473583,-2.13263 0.8730667,-0.87306 1.56345003,-1.86836 2.43753337,-2.74244 0.57378333,-0.57378 1.82999163,-1.53194 2.13262503,-2.74245 0.3788666,-1.51547 1.2196416,-2.08229 1.2196416,-3.65718 0,-1.65081 -0.050417,-2.84393 0.3049084,-4.26525 0.2485916,-0.99444 0.304925,-2.80969 0.304925,-4.26524 0,-1.37772 0.3321833,-3.2432 0,-4.57192 C 4.0373,-134.78449 3.6871417,-134.41 1.46425,-134.41 c -1.676,0 -2.8806417,-0.30491 -4.2652417,-0.30491 l -4.571925,0 -4.5701503,0 c -1.377716,0 -3.241433,-0.33218 -4.570158,0 -1.20495,0.30124 -2.623742,0.58014 -3.9621,0.91473 -1.182508,0.29563 -1.936617,1.47424 -3.350508,1.82771 -1.183092,0.29578 -2.586242,1.17884 -3.962084,1.5228 -1.102041,0.27551 -2.5694,0.98156 -3.655425,1.52456 -0.203133,0.10157 -0.449233,0.14432 -0.609833,0.30492 -0.191583,0.19159 -2.251767,2.31837 -3.352267,1.21788 -0.5295,-0.5295 -2.043758,-1.34507 -2.437533,-2.13262 -0.962308,-1.92461 -0.416808,-1.05187 1.5228,-1.82771 l 1.524558,-0.60983 -2.437533,-4.87506 -55.76191,-12.49256 c -1.028292,0.25707 -2.959125,-0.2833 -4.265242,-0.60983 -0.12205,-0.0305 -0.2316,-0.0464 -0.327825,-0.0494 z"
         id="path3391" />
    </clipPath>
  </defs>
  <sodipodi:namedview
     pagecolor="#ffffff"
     bordercolor="#666666"
     borderopacity="1"
     objecttolerance="10"
     gridtolerance="10"
     guidetolerance="10"
     inkscape:pageopacity="0"
     inkscape:pageshadow="2"
     inkscape:window-width="1600"
     inkscape:window-height="837"
     id="namedview26"
     showgrid="false"
     fit-margin-top="0"
     fit-margin-left="0"
     fit-margin-right="0"
     fit-margin-bottom="0"
     inkscape:zoom="1.0076756"
     inkscape:cx="63.594612"
     inkscape:cy="274.90904"
     inkscape:window-x="-8"
     inkscape:window-y="-8"
     inkscape:window-maximized="1"
     inkscape:current-layer="svg2" />
  <path
     style="fill:#006a4e;stroke:#006a4e;stroke-width:1.5;stroke-miterlimit:4;stroke-dasharray:none;stroke-opacity:1"
     d="m 90.00202,478.75053 c -0.10563,1.29669 -0.29687,2.5379 -0.29687,3.98242 0,2.09343 0.11469,3.51843 0.73242,4.75391 0.82189,1.64376 0.581,3.23658 -1.09766,3.65625 -2.09731,0.52431 -2.93656,0.37603 -4.02343,1.46289 -0.98629,0.98629 0.58389,4.45488 0.73242,4.75195 0.48943,0.97884 2.31275,1.33451 2.92578,2.56055 0.96446,1.92892 -0.87399,3.43061 -1.46484,4.02148 -1.775,1.77499 -3.0637,-0.39245 -3.6543,2.56055 -0.33429,1.67141 0,3.77548 0,5.48633 0,0.85418 2.13445,2.49967 2.55859,2.92383 1.0272,1.02718 3.10927,0.73046 4.75391,0.73046 2.65633,0 2.78488,0.53603 3.29102,2.56055 0.0887,0.35473 0,0.73006 0,1.09571 0.58983,2.35928 0.73046,4.12574 0.73046,6.58203 0,1.83003 0.89739,3.25374 1.46485,4.38867 0.60781,1.2156 0.89021,2.88002 1.46093,4.02148 l 1.82618,3.65625 c 0.60488,1.20977 2.31809,2.07214 3.29101,2.5586 1.21859,0.6093 3.11935,0.78032 4.38867,1.09765 1.87069,0.46767 0.19871,3.62603 0,4.02344 -0.83968,1.67934 -1.46155,2.71387 -1.18164,4.66602 -0.27991,1.9969 1.43875,2.04066 2.64649,2.64453 1.60823,0.80411 2.15829,1.06259 3.29101,2.19531 0.8883,0.88831 1.20568,3.00048 1.46094,4.02148 0.31909,1.27638 1.33101,2.66203 1.82813,3.65625 0.86065,1.72129 1.46001,2.1929 2.92578,2.92579 1.23354,0.61677 3.66364,0.45986 4.7539,0.73242 l 4.38868,1.09765 c 1.88105,0.47027 3.15221,0.73047 5.11718,0.73047 1.43972,0 4.14005,0.4857 5.11914,0.73047 0.23649,0.0591 0.4867,0 0.73047,0 0.60293,0.15073 1.22067,0.24334 1.83008,0.36523 0.14001,0.0279 1.38513,3.72036 1.46094,4.02344 0.34914,1.3966 1.22603,2.8173 1.82812,4.02149 0.73526,1.47051 1.12186,2.65735 1.46289,4.02148 0.32629,1.30518 1.25728,2.88174 1.82813,4.02344 0.84002,1.68003 1.05319,2.74983 1.46289,4.38867 0.27695,1.10776 2.82714,1.0957 4.38867,1.0957 2.10362,0 3.25743,0.36524 5.11914,0.36524 2.11787,0 2.55931,1.10049 2.92383,2.55859 0.4857,1.9428 0.2869,3.33902 0.73242,5.1211 0.0887,0.35473 0,0.73005 0,1.0957 0.098,0.22305 0.19577,0.44231 0.26172,0.64453 0.38634,-0.12389 0.77389,-0.23363 1.08399,-0.38867 1.13399,-0.56699 1.98309,-0.47593 3.10156,-1.03516 1.05603,-0.52801 1.71958,-0.75167 2.8457,-1.0332 0.82193,-0.20548 2.25504,-0.82353 3.10156,-1.03516 1.26351,-0.31588 2.2729,-0.17906 3.61914,-0.51562 1.12649,-0.28162 2.1856,-0.22364 3.36133,-0.51758 1.3568,-0.3392 1.87061,-0.77539 3.36328,-0.77539 1.169,0 1.70699,-0.77539 3.09961,-0.77539 1.01201,0 2.31144,-0.57933 3.10352,-0.77735 1.21702,-0.30425 2.09416,-0.78136 3.10156,-1.0332 1.14264,-0.28567 2.15055,-0.94442 3.36328,-1.55078 0.9014,-0.4507 2.0431,-0.76809 3.10352,-1.0332 1.08097,-0.27023 2.06849,-0.77643 3.10156,-1.29297 0.8694,-0.4347 2.08705,-0.65485 2.84375,-1.03321 0.85989,-0.42994 2.25717,-0.82405 3.10156,-1.03515 1.2143,-0.30357 1.78172,-1.02892 2.84571,-1.29492 0.73908,-0.18477 2.14437,-0.34079 2.84375,-0.51563 0.33445,-0.0836 0.6904,0 1.03515,0 0.82695,0 2.67599,-0.79741 3.61914,-1.0332 1.81267,-0.45318 3.63391,-0.67639 5.42774,-1.03516 1.36638,-0.27327 2.73518,-0.51758 4.13672,-0.51758 1.27734,0 3.39195,-0.78402 4.39648,-1.03515 1.52317,-0.38079 3.19568,-0.40924 4.9668,-0.61914 -0.0376,-0.31169 -0.55791,-0.40742 -0.78321,-1.3086 -0.38289,-1.53153 -1.08987,-2.52159 -1.46484,-4.02148 -0.38798,-1.55194 -1.82616,-2.15161 -1.82617,-4.02344 0,-1.39955 0.20238,-3.81718 -0.73242,-4.75195 -0.42465,-0.42465 -2.38751,-2.24334 -2.5586,-2.92774 -0.33067,-1.32285 0.0552,-3.42756 -0.36718,-5.11718 -0.5444,-2.17755 -0.77506,-2.03401 -2.5586,-2.92578 -1.13517,-0.56759 -2.25102,-1.20905 -2.92578,-2.5586 -0.55432,-1.10864 -1.46087,-2.18724 -1.82812,-3.65625 -0.18365,-0.73459 -0.84666,-3.77238 -1.4629,-4.38867 -0.49262,-0.49261 -2.25423,-2.19336 -3.29101,-2.19336 -1.69129,0 -2.9767,-0.41812 -4.02149,-1.46289 -0.90057,-0.90057 -1.8281,-1.86419 -1.82812,-3.65625 0,-1.89497 0.20921,-3.81422 -0.73047,-4.75391 -0.55868,-0.55868 -2.19726,-2.07804 -2.19727,-3.29101 0,-2.09654 0.45359,-3.1369 1.09961,-4.75196 0.24375,-0.60941 0.43693,-1.24302 0.73047,-1.83007 0.53682,-0.53682 0.99532,-0.8969 1.46094,-1.82813 0.54252,-1.08504 1.21503,-2.69297 0.36719,-4.38867 -0.74648,-1.49296 -0.95854,-2.00985 -1.46094,-4.01953 -0.41739,-1.66953 -0.73241,-2.73895 -0.73242,-4.75391 0,-1.63608 0.32344,-3.74174 -0.36524,-5.11914 -0.71967,-1.43931 -2.26483,-1.60387 -2.92578,-2.92578 -0.44263,-0.88527 -1.16611,-1.44743 -1.63476,-2.28125 -0.0878,-0.41481 -0.19336,-0.8426 -0.19336,-1.375 -10e-6,-1.14696 0.12104,-2.14099 -0.16211,-3.36719 l 7.6582,-0.58398 -0.10156,-13.85547 -121.72852,0 z"
     id="rect4"
     inkscape:connector-curvature="0" />
  <path
     style="fill:#d21034;stroke:#d21034;stroke-width:1.5;stroke-miterlimit:4;stroke-dasharray:none;stroke-opacity:1"
     d="m 1.5567112,0.75052615 c -1.73203994,-0.05353 -0.135476,3.39117095 0.02734,3.71679695 0.41934,0.838669 2.617406,1.8565553 3.291016,2.1933593 1.45428,0.7271401 2.988578,0.7481203 4.386718,1.0976563 1.6642698,0.416065 3.1557068,0.3289656 4.7539068,0.7285156 1.59446,0.398615 3.831115,0 5.484375,0 1.00529,0 0.937646,3.7486097 1.097656,4.3886717 0.38399,1.535939 1.615529,2.135365 2.193359,3.291016 0.57066,1.141316 1.69756,1.307832 2.19336,3.291015 0.4736,1.894415 -0.255826,3.808517 -0.728516,4.753907 -0.37447,0.748933 -2.795513,1.697854 -3.658203,2.560546 -1.20393,1.203929 -1.854114,1.516825 -2.558594,2.925782 -1.0121,2.024212 -1.462891,2.777163 -1.462891,5.117187 0,1.965823 -0.258541,3.223642 -0.732421,5.119141 -0.15456,0.618217 0,1.544639 0,2.195312 -0.55262,2.210441 -0.976808,3.180695 -1.460938,5.117188 -0.46606,1.864223 -2.127267,2.290322 -2.560547,4.023437 -0.32374,1.29494 -2.0637678,2.065706 -2.9238278,2.925781 -1.41361,1.413613 0.596413,3.156961 1.095703,3.65625 0.9098398,0.909856 1.3836548,2.767311 1.8281248,3.65625 0.56987,1.139755 2.180881,1.813691 2.925782,2.558594 1.057559,1.057558 3.026763,0.730469 4.751953,0.730469 1.86831,0 3.746753,0.02166 5.121093,0.365234 1.5092,0.377301 2.148432,1.362302 4.019532,1.830079 0.76581,0.191451 2.068171,2.129785 2.925781,2.558593 1.29551,0.647752 2.053756,1.941911 3.291015,2.560547 1.16774,0.583867 2.593761,2.02735 3.65625,2.558594 1.081122,0.54055 1.097662,4.05868 1.097662,5.121094 0,1.141712 0.37854,3.701678 0.73242,5.117187 0.41008,1.640333 1.29906,2.598136 1.82813,3.65625 0.80959,1.619186 1.31639,2.523925 2.92382,2.925781 0.2168,0.05414 2.93241,-1.828125 4.38868,-1.828125 1.84929,0 2.30457,0.858452 4.02148,0 1.70941,-0.854705 2.41917,-0.871846 3.65625,0.365235 1.5887,1.588702 -0.88444,3.079758 -1.46094,3.65625 -1.30893,1.30894 -1.11252,2.8683 -0.73242,4.388672 0.22765,0.910604 3.76496,1.305501 4.38672,1.460937 2.30365,0.575921 2.34868,0.522511 3.65625,1.830081 0.75419,0.75419 0.8637,1.2522 1.23633,2.53516 -0.10831,0.50859 -0.37611,0.67146 -0.68164,0.82422 -1.01501,0.50749 -1.91439,3.09635 -2.5586,4.38476 -0.80113,1.60222 -0.73242,3.17272 -0.73242,5.1211 0,1.89878 -0.73242,3.45955 -0.73242,5.48437 0,2.10829 0.1347,3.55847 0.73242,4.75391 0.68006,1.36013 1.52342,1.95113 2.19336,3.29101 0.80653,1.61308 1.54944,1.91466 2.56055,2.92578 1.02572,1.02571 1.30755,1.8141 0.78906,2.53516 -0.27643,0.38443 -0.77926,0.749 -1.51953,1.11914 -2.09273,1.04636 -2.19336,1.58407 -2.19336,4.02344 0,2.35852 1.06748,2.13889 1.82617,3.65625 0.53552,2.14198 3.08214,0.78883 1.46485,4.02344 -0.68542,1.37075 -2.79517,2.27655 -3.65821,2.92382 -0.53072,0.39804 0.60677,4.25909 0.73047,4.75391 0.39427,1.57706 -0.10345,4.07975 -0.36328,5.11914 -0.39771,1.5908 -2.49871,2.13153 -3.6582,3.29102 -1.06312,1.06312 -0.73047,3.52947 -0.73047,5.11914 0,1.5206 0.76564,2.15704 0.77929,2.81445 0.87029,0.41916 2.33832,2.26648 3.05469,3.69922 0.8122,1.62438 1.52698,2.32153 2.19336,3.6543 0.8611,1.7222 1.09766,2.50859 1.09766,4.7539 0,2.12969 -0.11771,3.52465 -0.71094,4.69336 0.0208,1.8628 -2.57952,2.60338 -3.63477,2.86719 -1.70508,0.42628 -3.57972,0.36523 -5.48437,0.36523 -1.98146,0 -4.02344,-0.77106 -4.02344,1.46289 0,2.66087 0.0489,2.75493 2.19336,3.29102 1.18747,0.29687 2.66166,1.33083 3.65625,1.82812 1.66745,0.83373 1.55088,2.812 -0.36523,3.29102 -1.87279,0.46817 -3.7398,0.66268 -5.11524,1.06641 -0.69362,2.09054 -2.61133,-0.22851 -1.14258,2.70898 0.52613,1.05227 2.68425,1.58317 3.65625,1.82617 1.57705,0.39427 4.08171,-0.10345 5.1211,-0.36328 1.50093,-0.37524 2.26688,-1.53641 3.29101,-2.56055 1.04545,-1.04545 1.63163,-2.09705 3.28907,-2.92578 1.3774,-0.6887 3.48307,-0.36523 5.11914,-0.36523 l 5.48437,0 c 2.48508,0 2.82975,0.54233 3.65625,2.19531 0.5616,1.12322 1.82494,2.19019 2.56055,2.92578 0.31642,0.31642 4.53897,0.67676 4.75391,0.73047 1.40888,0.35223 1.46093,2.42066 1.46093,4.02149 0,1.28084 -1.80485,2.65126 -2.55859,3.65625 -0.8294,1.10579 -0.73242,2.77909 -0.73242,4.7539 0,1.86496 0.70914,2.83264 1.09765,4.38672 0.37041,1.4816 1.46289,1.79495 1.46289,4.02344 0,0.37251 -3.25136,2.1537 -3.65625,2.55859 -1.07754,1.07754 -0.73047,2.97571 -0.73047,4.75391 0,2.06899 1.0984,2.93116 1.82618,4.38672 1.02526,2.05053 -0.73046,3.6582 -1.46094,4.38867 -1.25983,1.25984 -2.85934,1.97849 -4.02344,2.56055 -1.6176,0.80879 -1.74324,1.86362 -2.1914,3.65625 -0.22984,0.91935 -0.93628,1.50536 -1.09766,1.82812 -0.50808,2.03233 0.0804,4.91464 0.73047,6.21484 0.6786,1.35721 1.04573,2.36252 1.46094,4.02344 0.42633,1.70529 0.73242,3.09329 0.73242,5.11719 0,1.32342 0.71349,2.852 1.09765,4.38867 0.28123,1.12459 0.26087,2.24753 0.26954,3.16406 -0.50214,0.79964 -0.86793,1.45585 -1.36719,1.95508 -1.51002,1.51003 -2.63374,1.39133 -4.38867,1.83008 -2.00444,0.50109 -3.39991,0.0525 -4.75196,0.72852 -1.36471,0.68236 -1.58511,1.89217 -2.92578,2.5625 -1.10234,0.5514 -1.09765,2.77659 -1.09766,4.38476 0,0.8586 1.81102,2.52241 2.19532,3.29102 0.66459,1.32915 1.50317,2.2778 2.19336,3.6582 0.0771,0.15417 0.24529,0.24336 0.36718,0.36523 -0.48122,1.92487 2.61657,2.98375 4.01954,4.38672 0.88815,0.88816 1.77002,2.44046 2.19531,3.29102 0.6221,1.24422 2.34159,2.57894 3.29101,3.29101 1.38769,1.04076 1.97038,1.90023 3.29102,2.56055 1.51356,0.75678 2.30024,1.0957 4.38672,1.0957 2.566,0 2.4794,0.57209 3.29101,2.19532 0.81958,1.63915 1.67367,2.19336 3.65625,2.19336 2.52236,0 3.16012,-0.16428 3.65821,1.82812 0.39862,1.59447 0,3.83112 0,5.48438 0,1.74666 0.0669,3.9258 0.36523,5.11914 0.35245,1.40977 1.93462,2.06496 2.92578,2.56054 1.06995,0.53498 2.12697,2.06058 2.5586,2.92383 0.69381,1.38761 1.46676,2.21861 1.82617,3.65625 0.47052,1.8821 -0.26897,3.8348 -0.72852,4.75391 -0.6604,1.32079 -1.0304,3.38136 -1.46484,5.11914 -0.27173,1.0872 -3.33868,1.0957 -4.38867,1.0957 l -1.82618,0 c -3.12865,0 -3.32898,0.44311 -4.38867,2.5625 -0.77545,1.55084 -2.02475,1.46094 -4.02148,1.46094 -2.4004,0 -3.39995,-0.0743 -2.92383,1.83008 0.29649,1.18598 1.40864,2.50239 2.19336,3.28711 0.96001,0.96002 1.1696,2.85025 1.46289,4.02343 0.41977,1.67906 0.73047,3.20674 0.73047,5.1211 0,0.31284 0.027,0.67343 0.0644,1.04492 l 119.63867,0 -0.13671,-18.59766 -3.65625,-5.48437 3.29101,-3.65625 0.0137,-2.57422 -0.0137,-8.75977 4.75391,-7.67968 -4.75391,-4.02344 -0.36719,-65.45117 -26.85156,-27.91602 -0.57031,-18.88672 -7.67774,-8.77539 3.28907,-5.11719 -1.2793,-46.07226 -48.21484,-34.53711 c -0.003,0.003 -0.004,0.009 -0.008,0.0117 l -0.31054,-0.3457 -19.66016,-14.125008 c -0.14697,-0.587895 -0.63449,-1.483494 -0.36523,-2.560547 0.29635,-1.185265 -0.29168,-4.901006 0.36523,-6.214844 0,-1.859001 0.10595,-3.139552 0.73047,-4.388672 0.63385,-1.267691 1.7923,-2.774682 2.19531,-4.386719 0.38367,-1.534673 1.15732,-3.050983 1.82617,-4.388672 0.35211,-0.704228 1.92804,-2.725985 1.09766,-4.386718 -0.63193,-1.263878 -1.17972,-2.726654 -1.82813,-4.023438 -0.47513,-0.950278 -1.19251,-2.905752 -0.73046,-4.753906 0.18744,-0.7498 0.0327,-4.770297 0.73046,-5.119141 1.32762,-0.663811 2.53596,-1.43831 3.65626,-2.558593 1.04768,-1.047674 1.87688,-2.242117 2.92578,-3.291016 0.68854,-0.688536 2.19543,-1.838403 2.55859,-3.291016 0.45464,-1.818563 1.46289,-2.4988 1.46289,-4.388672 0,-1.980972 -0.0592,-3.411602 0.36719,-5.117187 0.29831,-1.193331 0.36523,-3.372477 0.36523,-5.119141 0,-1.653261 0.39862,-3.891865 0,-5.486328 -0.56918,-2.276747 -0.98878,-1.828125 -3.65625,-1.828125 -2.0112,0 -3.45762,-0.365234 -5.11914,-0.365234 l -5.48633,0 -5.48437,0 c -1.65326,0 -3.88991,-0.398616 -5.48438,0 -1.44594,0.361486 -3.14787,0.696149 -4.7539,1.097656 -1.41901,0.354753 -2.32482,1.769192 -4.02149,2.193359 -1.41971,0.35493 -3.10289,1.415372 -4.7539,1.828126 -1.32245,0.330608 -3.08349,1.176515 -4.38672,1.828124 -0.24376,0.121882 -0.53775,0.174475 -0.73047,0.367188 -0.2299,0.22991 -2.70284,2.781528 -4.02344,1.460938 -0.6354,-0.635399 -2.45325,-1.613537 -2.92578,-2.558594 -1.15477,-2.309537 -0.4994,-1.262346 1.82813,-2.19336 L 76.90804,22.383318 73.98226,16.533709 7.0684302,1.5415418 c -1.23395,0.30849 -3.551801,-0.3386358 -5.119141,-0.73046878 -0.14646,-0.03661 -0.277108,-0.0569769 -0.392578,-0.0605469 z"
     id="rect10"
     inkscape:connector-curvature="0" />
  <path
     style="fill:#ffce00;stroke:#ffce00;stroke-width:1.5;stroke-miterlimit:4;stroke-dasharray:none;stroke-opacity:1"
     d="m 91.12898,360.75053 c 0.0177,0.31231 0.0391,0.62218 0.0391,0.95508 0,1.39642 0.43681,3.57735 0.73047,4.75195 0.38279,1.53116 0.73242,2.81824 0.73242,4.75391 0,1.65465 0.73242,2.81257 0.73242,4.75195 0,1.41922 0.36328,3.4517 0.36328,5.11914 0,1.85156 0.36796,3.02856 0.73438,5.1582 -0.36642,2.0754 -0.27078,3.44673 0.36328,4.71485 0.69668,1.39336 1.72775,1.95957 2.92578,2.55859 1.51467,0.75733 1.46289,2.27434 1.46289,3.29102 0,0.29321 -2.52999,2.13421 -2.92578,2.92578 -0.78444,1.5689 -1.09766,1.97082 -1.09766,4.38867 0,1.9168 1.14928,3.00321 -1.46289,3.65625 -2.42457,0.60614 -2.55859,0.69355 -2.55859,3.29102 0,1.41922 0.36523,3.45169 0.36523,5.11914 0,1.12088 -3.12848,2.2947 -3.65625,2.55859 -1.08936,0.54474 -1.0957,1.87553 -1.0957,2.92383 -1.55392,0.77696 -0.57236,5.03279 -0.36719,5.85351 0.39219,1.56888 0.36719,3.33754 0.36719,5.11719 l 0,5.48438 c 0,1.58509 1.00304,2.83507 1.82617,3.6582 1.11715,1.11715 1.61892,1.98219 2.56055,2.92383 1.05756,1.05756 3.02872,0.73242 4.75391,0.73242 2.63985,0 2.81096,0.13561 3.65625,1.82617 0.64661,1.29327 0.73046,3.44909 0.73046,5.1211 0,1.74667 -0.0689,3.92581 -0.36718,5.11914 -0.42137,1.68549 -1.80991,2.89129 -2.5586,4.38867 -0.77975,1.55952 -1.24223,2.85169 -1.82617,4.01953 -0.78973,1.57948 -1.10872,2.96425 -1.46484,4.38867 -0.25703,1.02815 -0.79714,1.36428 -1.09571,2.5586 -0.48802,1.95208 -2.92382,1.4566 -2.92382,4.38867 0,1.22566 -0.14967,2.33617 -0.25782,3.50195 l 121.92969,0 -0.88672,-120 -119.72851,0 z"
     id="rect8"
     inkscape:connector-curvature="0" />
  <g
     transform="matrix(1.2,0,0,1.2,118.66218,180.75053)"
     id="g12"
     style="fill:#ffffff"
     clip-path="url(#clipPath3389)">
    <g
       id="c">
      <path
         id="t"
         d="M 0,-95 0,0 50,0"
         transform="matrix(0.95105652,0.30901699,-0.30901699,0.95105652,-29.356614,-4.649631)"
         inkscape:connector-curvature="0" />
      <use
         xlink:href="#t"
         transform="scale(-1,1)"
         id="use16"
         x="0"
         y="0"
         width="100%"
         height="100%" />
    </g>
    <use
       xlink:href="#c"
       transform="matrix(0.30901699,0.95105652,-0.95105652,0.30901699,0,0)"
       id="use18"
       x="0"
       y="0"
       width="100%"
       height="100%" />
    <use
       xlink:href="#c"
       transform="matrix(-0.80901699,0.58778525,-0.58778525,-0.80901699,0,0)"
       id="use20"
       x="0"
       y="0"
       width="100%"
       height="100%" />
    <use
       xlink:href="#c"
       transform="matrix(-0.80901699,-0.58778525,0.58778525,-0.80901699,0,0)"
       id="use22"
       x="0"
       y="0"
       width="100%"
       height="100%" />
    <use
       xlink:href="#c"
       transform="matrix(0.30901699,-0.95105652,0.95105652,0.30901699,0,0)"
       id="use24"
       x="0"
       y="0"
       width="100%"
       height="100%" />
  </g>
</svg>
