<?xml version="1.0" encoding="UTF-8" ?>
<!DOCTYPE svg PUBLIC "-//W3C//DTD SVG 1.1//EN" "http://www.w3.org/Graphics/SVG/1.1/DTD/svg11.dtd">
<svg width="524pt" height="461pt" viewBox="0 0 524 461" version="1.1" xmlns="http://www.w3.org/2000/svg">
<g id="#ffffffff">
</g>
<g id="#00247dff">
<path fill="#00247d" opacity="1.00" d=" M 20.39 20.86 C 21.54 19.75 23.13 19.84 24.39 20.64 C 25.57 21.25 26.75 21.87 28.02 22.29 C 27.70 27.00 28.64 31.85 27.47 36.46 C 26.23 38.05 25.20 39.79 24.16 41.51 C 22.27 42.42 20.04 41.86 18.01 42.04 C 18.46 38.92 16.31 33.31 20.84 32.78 C 21.52 31.12 22.09 29.41 22.20 27.60 C 21.32 28.31 20.45 29.04 19.59 29.77 C 18.44 30.03 17.32 30.39 16.27 30.92 C 15.79 30.60 14.84 29.96 14.37 29.64 C 14.01 29.14 13.30 28.13 12.94 27.63 C 14.31 25.08 16.33 23.02 18.41 21.04 C 18.90 21.00 19.90 20.90 20.39 20.86 Z" />
<path fill="#00247d" opacity="1.00" d=" M 495.34 406.95 C 496.42 406.97 497.50 406.99 498.60 407.00 C 500.13 408.42 501.59 409.96 502.40 411.93 C 498.89 411.87 495.39 411.83 491.89 411.96 C 492.82 410.14 493.93 408.43 495.34 406.95 Z" />
<path fill="#00247d" opacity="1.00" d=" M 454.88 430.32 C 460.57 430.82 466.29 430.25 471.98 430.79 C 474.02 431.44 474.31 433.92 475.24 435.58 C 476.11 437.18 476.93 438.81 477.68 440.48 C 478.59 442.23 480.00 443.64 481.41 445.01 C 482.46 445.00 483.52 444.99 484.58 445.00 C 485.67 443.86 486.77 442.73 487.88 441.62 C 488.00 440.18 488.02 438.70 488.72 437.39 C 488.98 436.02 489.11 434.60 489.86 433.37 C 489.90 432.76 489.99 431.53 490.03 430.92 L 491.05 430.86 C 495.69 430.60 500.34 430.78 504.99 430.79 C 504.96 431.44 504.88 432.73 504.84 433.37 C 504.14 435.03 503.83 436.81 503.33 438.53 C 502.91 439.92 502.36 441.26 501.81 442.61 C 501.26 443.53 500.73 444.46 500.24 445.42 C 498.46 450.07 494.37 453.44 490.49 456.34 C 488.91 457.16 487.24 457.81 485.54 458.35 C 482.98 459.48 480.12 458.90 477.42 459.00 C 476.63 458.19 475.84 457.38 475.06 456.59 C 475.00 456.10 474.88 455.11 474.82 454.62 C 474.14 452.96 473.82 451.20 473.41 449.47 C 472.79 448.18 471.80 447.20 470.53 446.58 C 468.84 446.16 467.15 445.84 465.48 445.43 C 463.05 443.93 461.21 441.73 459.29 439.68 C 458.55 438.19 457.55 436.86 456.64 435.49 C 456.05 433.77 455.49 432.03 454.88 430.32 Z" />
</g>
<g id="#fed100ff">
<path fill="#fed100" opacity="1.00" d=" M 253.22 292.16 C 255.63 290.44 258.27 291.57 260.54 292.90 C 261.08 292.92 262.16 292.96 262.70 292.98 C 263.91 294.38 265.00 295.89 266.00 297.46 C 266.00 299.85 266.34 302.37 265.27 304.61 C 265.14 305.06 264.89 305.96 264.76 306.41 C 264.23 308.15 263.78 309.92 263.13 311.62 C 263.00 313.58 262.98 315.55 263.01 317.52 C 264.45 320.32 266.71 322.54 269.48 324.02 C 270.82 323.95 272.22 324.20 273.53 323.81 C 275.11 322.89 275.47 320.94 276.26 319.43 C 277.13 317.77 277.89 316.05 278.92 314.49 C 278.95 313.97 279.01 312.94 279.04 312.43 C 279.89 311.05 280.83 309.73 281.89 308.51 C 281.98 308.04 282.15 307.11 282.24 306.64 C 283.21 304.33 282.90 301.76 283.56 299.38 C 283.87 296.21 286.70 295.44 289.44 296.01 C 290.01 296.33 291.14 296.97 291.71 297.29 C 292.02 297.86 292.64 299.00 292.95 299.56 C 293.01 301.49 292.99 303.43 292.87 305.36 C 291.70 307.19 292.01 309.41 291.90 311.47 C 291.08 312.78 290.39 314.17 289.73 315.58 C 289.01 316.88 288.35 318.23 287.75 319.60 C 287.25 320.53 286.74 321.46 286.24 322.40 C 285.75 323.46 285.25 324.52 284.75 325.59 C 283.99 326.88 283.34 328.24 282.77 329.63 C 281.68 333.06 278.35 334.35 275.48 335.94 C 270.81 335.66 265.86 336.89 261.39 335.23 C 260.90 335.15 259.93 334.99 259.45 334.91 C 257.39 333.82 255.62 332.31 254.05 330.62 C 253.98 330.12 253.85 329.13 253.79 328.63 C 252.60 326.33 253.41 323.57 252.18 321.29 C 253.73 317.70 253.32 313.13 252.28 309.39 C 252.14 308.95 251.86 308.07 251.72 307.63 C 250.50 304.79 250.99 301.63 251.15 298.65 C 251.81 297.38 251.98 295.95 252.25 294.57 C 252.49 293.97 252.97 292.76 253.22 292.16 Z" />
<path fill="#fed100" opacity="1.00" d=" M 491.89 411.96 C 495.39 411.83 498.89 411.87 502.40 411.93 L 502.65 411.93 C 502.94 412.59 503.53 413.90 503.83 414.56 C 503.94 415.01 504.15 415.93 504.25 416.39 C 505.89 420.98 504.61 426.02 504.99 430.79 C 500.34 430.78 495.69 430.60 491.05 430.86 C 491.46 425.40 489.93 419.55 491.86 414.35 C 491.87 413.75 491.88 412.55 491.89 411.96 Z" />
<path fill="#fed100" opacity="1.00" d=" M 457.48 416.00 C 457.98 416.02 458.97 416.06 459.47 416.07 C 462.20 417.51 464.98 418.95 466.99 421.39 C 467.00 421.93 467.02 423.01 467.03 423.54 C 468.49 426.09 470.77 428.07 471.98 430.79 C 466.29 430.25 460.57 430.82 454.88 430.32 C 454.43 429.75 454.03 429.16 453.68 428.54 C 453.18 427.48 452.64 426.45 452.06 425.45 C 452.00 423.76 451.99 422.08 451.98 420.40 C 453.62 418.70 455.43 417.18 457.48 416.00 Z" />
</g>
</svg>
