<?xml version="1.0" encoding="UTF-8" standalone="no"?>
<svg
   xmlns:dc="http://purl.org/dc/elements/1.1/"
   xmlns:cc="http://creativecommons.org/ns#"
   xmlns:rdf="http://www.w3.org/1999/02/22-rdf-syntax-ns#"
   xmlns:svg="http://www.w3.org/2000/svg"
   xmlns="http://www.w3.org/2000/svg"
   xmlns:sodipodi="http://sodipodi.sourceforge.net/DTD/sodipodi-0.dtd"
   xmlns:inkscape="http://www.inkscape.org/namespaces/inkscape"
   version="1.0"
   width="686.06378"
   height="900"
   viewBox="0 0 686.06379 900"
   id="svg2"
   xml:space="preserve"
   inkscape:version="0.91 r13725"
   sodipodi:docname="20110826164111!Tuvalu_location_map.svg"><metadata
     id="metadata50"><rdf:RDF><cc:Work
         rdf:about=""><dc:format>image/svg+xml</dc:format><dc:type
           rdf:resource="http://purl.org/dc/dcmitype/StillImage" /><dc:title></dc:title></cc:Work></rdf:RDF></metadata><sodipodi:namedview
     pagecolor="#ffffff"
     bordercolor="#666666"
     borderopacity="1"
     objecttolerance="10"
     gridtolerance="10"
     guidetolerance="10"
     inkscape:pageopacity="0"
     inkscape:pageshadow="2"
     inkscape:window-width="1600"
     inkscape:window-height="837"
     id="namedview48"
     showgrid="false"
     fit-margin-top="0"
     fit-margin-left="0"
     fit-margin-right="0"
     fit-margin-bottom="0"
     inkscape:zoom="0.57891612"
     inkscape:cx="285.25676"
     inkscape:cy="396.41277"
     inkscape:window-x="-8"
     inkscape:window-y="-8"
     inkscape:window-maximized="1"
     inkscape:current-layer="svg2" /><defs
     id="defs94" /><g
     id="Tuvalu"
     transform="matrix(1.4490916,0,0,1.4490916,-59.244354,-56.654738)"><path
       d="m 167.92285,220.48682 c 5.58789,-2.61328 7.12451,2.1416 6.98926,6.32373"
       style="fill:none;fill-rule:evenodd;stroke:#cf142b;stroke-width:1.41729999;stroke-miterlimit:3.8636899;stroke-opacity:1"
       id="path9"
       inkscape:connector-curvature="0" /><path
       d="m 479.75586,589.55908 c -0.63477,-2.45312 -5.55957,-3.65869 -5.40479,0.83154"
       style="fill:none;fill-rule:evenodd;stroke:#5b97b1;stroke-width:1.41729999;stroke-miterlimit:3.8636899;stroke-opacity:1"
       id="path11"
       inkscape:connector-curvature="0" /><path
       d="m 476.11816,594.40967 c 2.32568,3.41553 3.35254,1.14111 4.78125,-0.83154 0,-0.99707 -0.27881,-1.57715 -0.38086,-2.45996"
       style="fill:none;fill-rule:evenodd;stroke:#5b97b1;stroke-width:1.41729999;stroke-miterlimit:3.8636899;stroke-opacity:1"
       id="path13"
       inkscape:connector-curvature="0" /><path
       d="m 452.66113,602.2749 -0.83154,-0.5542 c -0.0688,-1.62695 -4.09766,-1.59033 -5.02393,1.83594 -0.97461,3.60449 4.11279,4.71436 4.85059,2.70264"
       style="fill:none;fill-rule:evenodd;stroke:#5b97b1;stroke-width:1.41729999;stroke-miterlimit:3.8636899;stroke-opacity:1"
       id="path15"
       inkscape:connector-curvature="0" /><path
       d="m 444.1377,611.66455 c -2.22705,-1.76074 -7.45312,2.4126 -4.95459,5.68213 0.41504,0.16406 0.64844,0.50293 1.00488,0.69287 1.44824,0.77295 3.82373,0.44678 5.02393,-0.62354"
       style="fill:none;fill-rule:evenodd;stroke:#5b97b1;stroke-width:1.41729999;stroke-miterlimit:3.8636899;stroke-opacity:1"
       id="path17"
       inkscape:connector-curvature="0" /><path
       d="m 454.98242,614.95605 c 7.9209,-6.31836 2.13818,-12.88086 -2.87598,-7.17188"
       style="fill:none;fill-rule:evenodd;stroke:#5b97b1;stroke-width:1.41729999;stroke-miterlimit:3.8636899;stroke-opacity:1"
       id="path19"
       inkscape:connector-curvature="0" /><path
       d="m 458.89795,635.2251 c 0.19971,-0.33691 0.38818,-0.68408 0.5542,-1.03906 2.94873,-2.25586 5.24512,0.84619 5.02393,1.35107"
       style="fill:none;fill-rule:evenodd;stroke:#5b97b1;stroke-width:1.41729999;stroke-miterlimit:3.8636899;stroke-opacity:1"
       id="path21"
       inkscape:connector-curvature="0" /><path
       d="m 463.88721,637.8584 c -1.13818,1.19336 -4.48975,1.64746 -4.85107,-0.41553"
       style="fill:none;fill-rule:evenodd;stroke:#5b97b1;stroke-width:1.41729999;stroke-miterlimit:3.8636899;stroke-opacity:1"
       id="path23"
       inkscape:connector-curvature="0" /><path
       d="m 469.56934,623.99951 c -0.36523,-0.79932 -0.87012,-1.23682 -1.69775,-1.5249 -1.27539,0.1416 -3.73535,1.4248 -3.46484,3.04932"
       style="fill:none;fill-rule:evenodd;stroke:#5b97b1;stroke-width:1.41729999;stroke-miterlimit:3.8636899;stroke-opacity:1"
       id="path25"
       inkscape:connector-curvature="0" /><path
       d="m 466.34717,627.67188 c 2.05811,0.68457 4.25781,-0.32764 3.70752,-2.77148"
       style="fill:none;fill-rule:evenodd;stroke:#5b97b1;stroke-width:1.41729999;stroke-miterlimit:3.8636899;stroke-opacity:1"
       id="path27"
       inkscape:connector-curvature="0" /><path
       d="m 488.83398,620.98486 c 0.40186,-2.55615 4.11914,-2.94873 4.74658,-0.24268"
       style="fill:none;fill-rule:evenodd;stroke:#5b97b1;stroke-width:1.41729999;stroke-miterlimit:3.8636899;stroke-opacity:1"
       id="path29"
       inkscape:connector-curvature="0" /><path
       d="m 493.19922,622.99463 c -1.42773,2.19922 -5.59766,0.75684 -5.02393,-0.55469"
       style="fill:none;fill-rule:evenodd;stroke:#5b97b1;stroke-width:1.41729999;stroke-miterlimit:3.8636899;stroke-opacity:1"
       id="path31"
       inkscape:connector-curvature="0" /><path
       d="m 51.19141,49.42822 c -0.30933,0.04077 -0.63403,0.01147 -0.96851,-0.10327 -1.1853,-0.40649 -1.98291,-2.0354 -2.97998,-2.73706 -1.79614,-1.2644 -4.05835,-0.36572 -5.75146,-3.18774"
       style="fill:none;fill-rule:evenodd;stroke:#00247d;stroke-width:1.41729999;stroke-miterlimit:3.8636899;stroke-opacity:1"
       id="path33"
       inkscape:connector-curvature="0" /><path
       d="m 47.5105,40.94116 c 0.2915,0.08545 0.57471,0.14673 0.84131,0.17212 2.70605,0.25781 3.17896,0.09644 4.95459,2.3562 0.42749,0.54419 0.61353,1.24805 0.60913,1.98071"
       style="fill:none;fill-rule:evenodd;stroke:#00247d;stroke-width:1.41729999;stroke-miterlimit:3.8636899;stroke-opacity:1"
       id="path35"
       inkscape:connector-curvature="0" /><path
       d="m 350.06982,250.98047 c 0.12744,-0.0474 0.20752,-0.0796 0.36768,-0.0957 0.72363,-0.0723 1.53076,0.006 2.19434,0.33496 1.04004,1.57275 4.13281,4.92773 4.40039,6.02881 0.37061,1.52393 -0.4668,2.58936 -1.62012,3.03125"
       style="fill:none;fill-rule:evenodd;stroke:#5b97b1;stroke-width:1.41729999;stroke-miterlimit:3.8636899;stroke-opacity:1"
       id="path37"
       inkscape:connector-curvature="0" /><path
       d="m 408.30029,373.14014 c -1.94922,-0.63965 -3.78906,-0.63672 -5.84424,0.66455 -3.11865,1.9751 -3.39844,7.104 -5.1626,8.45459 l -0.76221,0.104 c -1.59521,-0.51807 -1.23633,-1.95215 -1.66309,-3.15332 l 0.4502,-1.1084 c 1.67188,-1.15479 3.27734,-2.81494 4.29639,-4.57373 1.1499,-1.8916 2.07959,-4.32031 3.98438,-5.61328 0.59912,-0.40625 3.02539,-0.69287 3.78857,-0.69287 4.04688,0 4.40234,1.15381 6.46729,4.08887 0.34375,0.48779 0.73193,0.89209 1.00488,1.45508 0.35303,0.72852 0.48877,1.57666 0.86621,2.28662 1.54102,2.90039 2.76074,3.69189 1.87109,7.44922 -0.54004,2.27979 -2.88818,3.34326 -4.52734,4.63135 -1.7666,1.38818 -4.3291,2.32861 -6.56006,1.53613 -0.43018,-0.39453 -0.78955,-0.93652 -0.86621,-1.52441 0.13574,-1.32129 1.74805,-2.3208 3.44775,-3.35693"
       style="fill:none;fill-rule:evenodd;stroke:#5b97b1;stroke-width:1.41729999;stroke-miterlimit:3.8636899;stroke-opacity:1"
       id="path39"
       inkscape:connector-curvature="0" /><path
       d="m 401.66504,389.60352 0.16699,-0.27637 0.55469,-0.24219 c 2.60352,0.0752 5.34961,9.85449 -0.31201,10.39453 -4.22314,0.40234 -3.96826,-4.77246 -5.03955,-7.22217 -0.5625,-1.28467 -1.23779,-3.64258 -1.12793,-5.11279 0.0654,-0.87012 0.44092,-1.60986 1.24756,-1.9751 l 0.69287,0.0347 c 1.09229,0.78223 1.44238,2.40039 1.68652,4.12744"
       style="fill:none;fill-rule:evenodd;stroke:#5b97b1;stroke-width:1.41729999;stroke-miterlimit:3.8636899;stroke-opacity:1"
       id="path41"
       inkscape:connector-curvature="0" /><path
       d="m 467.45605,602.93311 c 0.42334,-1.32471 1.87207,-2.24951 3.1875,-2.49463 7.06494,2.22168 1.36816,9.67871 -1.91699,5.49756"
       style="fill:none;fill-rule:evenodd;stroke:#5b97b1;stroke-width:1.41729999;stroke-miterlimit:3.8636899;stroke-opacity:1"
       id="path43"
       inkscape:connector-curvature="0" /><path
       d="m 472.30664,610.48633 c 4.82471,1.6543 2.15381,6.2627 -3.22217,4.95508"
       style="fill:none;fill-rule:evenodd;stroke:#5b97b1;stroke-width:1.41729999;stroke-miterlimit:3.8636899;stroke-opacity:1"
       id="path45"
       inkscape:connector-curvature="0" /><path
       d="m 507.8667,654.07129 c -1.35986,-1.16406 -1.80176,-4.30273 0,-5.28467"
       style="fill:none;fill-rule:evenodd;stroke:#5b97b1;stroke-width:1.41729999;stroke-miterlimit:3.8636899;stroke-opacity:1"
       id="path47"
       inkscape:connector-curvature="0" /><path
       d="m 475.3208,653.03418 c 4.58252,0.9165 4.16699,7.2251 -0.41553,6.35254"
       style="fill:none;fill-rule:evenodd;stroke:#5b97b1;stroke-width:1.41729999;stroke-miterlimit:3.8636899;stroke-opacity:1"
       id="path49"
       inkscape:connector-curvature="0" /><path
       d="m 510.53076,648.3916 c 0.55127,0.26025 1.23779,0.37451 1.73242,0.72754 2.78174,1.9873 1.04834,7.14502 -3.01465,5.75146 -0.52051,-0.17822 -1.03076,-0.30811 -1.36182,-0.79932"
       style="fill:none;fill-rule:evenodd;stroke:#5b97b1;stroke-width:1.41729999;stroke-miterlimit:3.8636899;stroke-opacity:1"
       id="path51"
       inkscape:connector-curvature="0" /><path
       d="m 507.88672,648.78662 c 0.45361,-0.47168 2.13232,-0.71094 2.64404,-0.39502"
       style="fill:none;fill-rule:evenodd;stroke:#5b97b1;stroke-width:1.41729999;stroke-miterlimit:3.8636899;stroke-opacity:1"
       id="path53"
       inkscape:connector-curvature="0" /><polyline
       style="fill:none;fill-rule:evenodd;stroke:#b6111e;stroke-width:0.28349999;stroke-miterlimit:3.8636899"
       points="51.60864,44.8208 51.85107,45.375 51.92041,46.10278 51.53931,46.51855 50.81177,46.44922      50.5,45.92944 50.2229,45.375 50.396,44.75146 50.70776,44.26636 51.43555,44.33569 51.60864,44.8208 "
       id="polyline55" /><polyline
       style="fill:#cf142b;fill-opacity:1;fill-rule:evenodd;stroke:#cf142b;stroke-width:0.28349999;stroke-miterlimit:3.8636899;stroke-opacity:1"
       points="171.31787,221.42236 171.62988,221.94189 171.97656,222.39258 172.28809,222.94678      172.0459,223.43164 171.31787,223.36279 170.83301,223.05078 170.48633,222.56543 170.27881,222.01123 170.34766,221.28369      170.93701,221.4917 171.31787,221.42236 "
       id="polyline57" /><path
       d="m 322.03467,313.02734 c -1.89062,-4.21094 -7.42822,-6.45215 -10.9458,-2.45508 -2.09326,2.37842 -3.26025,5.00586 -4.44678,7.88818 -0.60986,1.48145 -1.84521,3.28516 -2.17139,4.79297 -0.17676,0.81934 -0.0435,1.80322 0.69336,2.32129 0.51318,0.36084 2.68896,0.49072 3.42969,0.62354 1.0625,0.19092 2.04883,0.69727 2.99658,1.14404"
       style="fill:none;fill-rule:evenodd;stroke:#5b97b1;stroke-width:1.41729999;stroke-miterlimit:3.8636899;stroke-opacity:1"
       id="path59"
       inkscape:connector-curvature="0" /><path
       d="m 317.56787,314.52197 0,-0.83154 c -2.59277,-3.35205 -9.48584,4.21582 -7.55322,8.73145 0.31494,0.16699 0.65771,0.32666 1.00488,0.41553"
       style="fill:none;fill-rule:evenodd;stroke:#5b97b1;stroke-width:1.41729999;stroke-miterlimit:3.8636899;stroke-opacity:1"
       id="path61"
       inkscape:connector-curvature="0" /><path
       d="m 43.1084,40.53662 0.24341,-0.16431 c 0.49561,0.20361 0.80713,0.67065 1.39111,0.64331 l 0.10815,0.29834 0.32812,0.16064 -0.05225,0.13794 c -0.55371,0.04565 -1.70508,0.05786 -2.04004,-0.50513 l 0.0215,-0.57079 z"
       style="fill:#00247d;fill-opacity:1;fill-rule:evenodd;stroke:#00247d;stroke-width:2.55119991;stroke-linejoin:round;stroke-miterlimit:3.8636899;stroke-opacity:1"
       id="path63"
       inkscape:connector-curvature="0" /><path
       d="m 49.92456,44.48999 0,-0.1084 0.18921,0.13452 c 0.19214,0.48535 0.61768,0.81152 1.03613,1.10571 0.38843,-0.31323 -0.39941,-1.64209 -0.66138,-1.92261 l 0.21631,-0.16406 c 1.11279,1.25562 1.62793,3.11426 2.44385,4.59961 l -0.0271,0.13477 C 52.4248,48.02368 52.14306,47.24927 51.83667,46.64868 L 51.51221,46.5437 c -0.19263,-0.2522 -3.07032,-2.54834 -1.58765,-2.05371 z"
       style="fill:#00247d;fill-opacity:1;fill-rule:evenodd;stroke:#00247d;stroke-width:2.55119991;stroke-linejoin:round;stroke-miterlimit:3.8636899;stroke-opacity:1"
       id="path65"
       inkscape:connector-curvature="0" /><path
       d="m 190.37695,95.59229 c 0.26904,0.83643 -0.11426,0.71338 -0.21484,1.1416 -0.39355,0.21143 -1.35986,0.24414 -1.76074,0.06885 -0.14795,-0.1626 -0.66357,-1.0376 -0.74414,-1.24316 0.29443,-0.18751 2.39941,-0.08595 2.71972,0.03271 z"
       style="fill:#00247d;fill-opacity:1;fill-rule:evenodd;stroke:#00247d;stroke-width:2.55119991;stroke-linejoin:round;stroke-miterlimit:3.8636899;stroke-opacity:1"
       id="path67"
       inkscape:connector-curvature="0" /><path
       d="m 72.85938,115.40869 c 1.55859,1.22754 0.94312,1.8042 0.05054,3.12305 l -0.16382,0 -0.24707,-0.16064 c -0.14746,-0.79688 -0.68945,-1.22803 -0.39282,-2.08984 l 0.75317,-0.87257 z"
       style="fill:#cf142b;fill-opacity:1;fill-rule:evenodd;stroke:#cf142b;stroke-width:2.55119991;stroke-linejoin:round;stroke-miterlimit:3.8636899;stroke-opacity:1"
       id="path69"
       inkscape:connector-curvature="0" /><path
       d="m 171.23535,222.31787 c 0.33984,0.63574 1.16504,1.57324 0.6958,2.32617 l -0.1333,-0.0264 c -0.0454,-0.48828 -0.7915,-1.46631 -1.13037,-1.78125 l 0.0527,-0.24609 0.21777,-0.2168 0.29737,-0.0557 z"
       style="fill:#cf142b;fill-opacity:1;fill-rule:evenodd;stroke:#cf142b;stroke-width:2.55119991;stroke-linejoin:round;stroke-miterlimit:3.8636899;stroke-opacity:1"
       id="path71"
       inkscape:connector-curvature="0" /><path
       d="m 170.7959,229.53271 c 0.0273,-0.22021 0.0347,-0.45947 -0.002,-0.6792 l 0.16016,-0.29883 0.21631,0.0791 c 9.8e-4,0.2002 0.10986,-0.15576 0.33154,0.35059 0.24561,0.0669 0.46338,0.21973 0.67969,0.34814 0.38135,0.0718 0.58154,-0.27783 0.92432,-0.33154 0.0278,0.12256 0.0102,0.30957 -0.0791,0.40674 -0.57277,0.3252 -1.70216,0.77002 -2.23097,0.125 z"
       style="fill:#cf142b;fill-opacity:1;fill-rule:evenodd;stroke:#cf142b;stroke-width:2.55119991;stroke-linejoin:round;stroke-miterlimit:3.8636899;stroke-opacity:1"
       id="path73"
       inkscape:connector-curvature="0" /><path
       d="m 349.60449,255.17871 c -0.0405,-0.32178 -0.2085,-0.61035 -0.3042,-0.91846 0.0796,-0.17627 0.20264,-0.34131 0.32227,-0.49219 0.0737,-0.006 0.43604,0.18701 0.43604,0.18701 -0.15381,-0.0347 0.0317,-0.2417 0.73389,0.4165 l 1.2417,1.16504 -0.1875,0.32471 c 0.0967,0.50244 0.005,0.24854 -0.37842,0.51807 0.37402,0.52148 0.7207,0.94287 0.85791,1.59473 l 0.38379,0.18359 c 0.0996,-0.21777 0.25488,-0.40137 0.34766,-0.62646 0.003,-0.31006 -0.21533,-0.54443 -0.47021,-0.69873 -0.063,0.0264 -0.16162,-0.0181 -0.18945,-0.0786 0.38818,-0.51123 0.0215,-0.42822 0.45801,-0.19727 l 0.10986,-0.18994 0.18945,-0.1084 0.32422,0.0786 c 0.31934,0.30273 0.53076,1.00537 0.74805,1.1582 l 0.0303,0.24268 -1.07568,1.4209 -0.68311,-0.0493 c -0.19826,-0.91064 -2.09181,-3.43554 -2.89455,-3.93066 z"
       style="fill:#5b97b1;fill-opacity:1;fill-rule:evenodd;stroke:#5b97b1;stroke-width:2.55119991;stroke-linejoin:round;stroke-miterlimit:3.8636899;stroke-opacity:1"
       id="path75"
       inkscape:connector-curvature="0" /><path
       d="m 321.8125,315.83496 0.27393,-0.65918 c 0.0459,0.20313 -0.14454,0.52149 -0.27393,0.65918 z"
       style="fill:#fefee9;fill-rule:evenodd;stroke:#0978ab;stroke-width:2.55119991;stroke-linejoin:round;stroke-miterlimit:3.8636899"
       id="path77"
       inkscape:connector-curvature="0" /><path
       d="m 321.75146,315.89404 c -0.2583,0.45215 -1.68359,2.45068 -1.70312,2.85107 l -0.48828,0.13428 c 0.0723,-0.83886 1.58154,-2.40429 2.1914,-2.98535 z"
       style="fill:#5b97b1;fill-opacity:1;fill-rule:evenodd;stroke:#5b97b1;stroke-width:2.55119991;stroke-linejoin:round;stroke-miterlimit:3.8636899;stroke-opacity:1"
       id="path79"
       inkscape:connector-curvature="0" /><path
       d="m 410.74316,382.02246 c 2.47559,-3.20264 0.51758,-2.74609 0.95508,-5.43604 -0.66504,-1.15723 -1.33252,-2.22412 -1.47949,-3.59229 l 0.30273,0.0786 c 0.25684,1.20508 1.83643,3.07129 1.80762,3.93994 -0.006,0.17822 -0.20312,0.48926 -0.18359,0.65332 0.0742,0.63232 0.47754,3.12305 0.28076,3.63184 -0.39307,0.5332 -0.94678,0.75879 -1.51562,1.04639 l -0.16749,-0.32177 z"
       style="fill:#5b97b1;fill-opacity:1;fill-rule:evenodd;stroke:#5b97b1;stroke-width:2.55119991;stroke-linejoin:round;stroke-miterlimit:3.8636899;stroke-opacity:1"
       id="path81"
       inkscape:connector-curvature="0" /><polygon
       points="400.53711,391.40283 400.54443,391.83594 400.14062,392.51807 400.14062,392.51807 400.50488,393.60059 400.03809,393.22363 399.78223,392.11475 "
       style="fill:#5b97b1;fill-opacity:1;fill-rule:evenodd;stroke:#5b97b1;stroke-width:2.55119991;stroke-linejoin:round;stroke-miterlimit:3.8636899;stroke-opacity:1"
       id="polygon83" /><path
       d="m 488.63672,481.64551 -0.35303,-0.10156 -0.19678,-0.29883 c 0.12402,-0.47656 -0.22949,-1.24121 -0.37842,-1.70264 l -0.74072,-0.50879 -0.43604,0.19678 -0.3584,-0.0786 0.56738,-0.57715 0.93555,0.37061 c 0.40381,0.55908 0.68311,1.1001 0.94775,1.72559 l -0.15137,0.7876 0.16408,0.187 z"
       style="fill:#5b97b1;fill-opacity:1;fill-rule:evenodd;stroke:#5b97b1;stroke-width:2.55119991;stroke-linejoin:round;stroke-miterlimit:3.8636899;stroke-opacity:1"
       id="path85"
       inkscape:connector-curvature="0" /><path
       d="m 489.86426,483.72217 0.41113,-0.0591 c 1.76709,1.27197 1.44629,2.75537 1.39648,4.67871 l -0.48828,0.16699 -0.19678,-0.42969 0.25977,-1.14502 c -0.30273,-0.97949 -0.57422,-2.54834 -1.38232,-3.21191 z"
       style="fill:#5b97b1;fill-opacity:1;fill-rule:evenodd;stroke:#5b97b1;stroke-width:2.55119991;stroke-linejoin:round;stroke-miterlimit:3.8636899;stroke-opacity:1"
       id="path87"
       inkscape:connector-curvature="0" /><path
       d="m 314.65723,326.75293 -0.72754,-0.0693 -0.24219,-0.5542 c 0.0845,-0.83301 0.90088,-3.52588 1.62842,-3.98486 l 0.62354,0.13867 c 0.003,0.79932 -0.73341,3.93555 -1.28223,4.46973 z"
       style="fill:#5b97b1;fill-opacity:1;fill-rule:evenodd;stroke:#5b97b1;stroke-width:2.55119991;stroke-linejoin:round;stroke-miterlimit:3.8636899;stroke-opacity:1"
       id="path89"
       inkscape:connector-curvature="0" /><path
       d="m 446.854,644.26074 c 0.0278,-0.21973 0.0352,-0.45947 -10e-4,-0.6792 l 0.16016,-0.29834 0.21631,0.0786 c 4.9e-4,0.20068 0.10938,-0.15527 0.33154,0.35107 0.24512,0.0669 0.46338,0.21973 0.67969,0.34766 0.38135,0.0723 0.58105,-0.27734 0.92432,-0.33105 0.0278,0.12207 0.01,0.30957 -0.0796,0.40674 -0.57276,0.3252 -1.70167,0.77002 -2.23097,0.12451 z"
       style="fill:#5b97b1;fill-opacity:1;fill-rule:evenodd;stroke:#5b97b1;stroke-width:2.55119991;stroke-linejoin:round;stroke-miterlimit:3.8636899;stroke-opacity:1"
       id="path91"
       inkscape:connector-curvature="0" /></g></svg>