<?xml version="1.0" encoding="UTF-8" standalone="no"?>
<!-- Generator: Adobe Illustrator 17.0.0, SVG Export Plug-In . SVG Version: 6.00 Build 0)  -->

<svg
   xmlns:dc="http://purl.org/dc/elements/1.1/"
   xmlns:cc="http://creativecommons.org/ns#"
   xmlns:rdf="http://www.w3.org/1999/02/22-rdf-syntax-ns#"
   xmlns:svg="http://www.w3.org/2000/svg"
   xmlns="http://www.w3.org/2000/svg"
   xmlns:sodipodi="http://sodipodi.sourceforge.net/DTD/sodipodi-0.dtd"
   xmlns:inkscape="http://www.inkscape.org/namespaces/inkscape"
   version="1.1"
   id="Capa_1"
   x="0px"
   y="0px"
   width="606.18689"
   height="900"
   viewBox="1488.189 992.126 606.18691 900.00002"
   enable-background="new 1488.189 992.126 1275.59 850.394"
   xml:space="preserve"
   inkscape:version="0.91 r13725"
   sodipodi:docname="Flag_of_the_United_States_Virgin_Islands (1).svg"><metadata
     id="metadata116"><rdf:RDF><cc:Work
         rdf:about=""><dc:format>image/svg+xml</dc:format><dc:type
           rdf:resource="http://purl.org/dc/dcmitype/StillImage" /><dc:title></dc:title></cc:Work></rdf:RDF></metadata><defs
     id="defs114"><clipPath
       clipPathUnits="userSpaceOnUse"
       id="clipPath4410"><path
         inkscape:connector-curvature="0"
         d="m 2137.6224,1224.4771 c 0,0 0.3009,1.2036 1.8055,1.0533 1.5046,-0.1505 1.956,0 0.4514,-1.5047 -1.5046,-1.5046 -1.8055,-2.558 -2.2569,-1.5046 -0.4514,1.0532 -1.655,1.6551 0,1.956 z m 178.1465,-88.4715 c 0,0 0.7522,0.7524 0,1.6552 -0.7523,0.9027 1.655,1.8055 1.8054,0.3008 0.1505,-1.5045 1.2039,-0.6018 0.602,-1.8055 -0.602,-1.2036 0.1503,-2.4073 -1.2037,-1.9559 -1.3543,0.4514 -1.6552,0.9028 -1.2037,1.8054 z m -95.2423,-38.9693 c 0,0 1.2039,0.3008 2.2571,-0.1506 1.0532,-0.4514 0.7522,-1.3541 -0.4514,-1.5046 -1.2037,-0.1505 -1.6552,-0.6019 -1.8057,0.3009 -0.1505,0.9028 -1.0532,1.2037 0,1.3543 z m 9.0277,8.5761 c 0,0 1.5047,-0.4514 0.6019,-1.0532 -0.9027,-0.6018 -0.9027,1.2038 -0.6019,1.0532 z m -2.4072,-1.2036 c 0,0 1.0532,-0.7524 0.1504,-1.0532 -0.9029,-0.3009 -0.9029,1.2036 -0.1504,1.0532 z m -2.8589,1.3542 c 0,0 1.2037,0.3009 0.9027,-0.4515 -0.3008,-0.7523 -0.9027,-0.4512 -0.9027,0.4515 z m -27.0831,42.2796 c 0,0 0.3011,1.3541 1.956,1.0533 1.6552,-0.301 1.5048,1.2037 1.8057,-0.6019 0.3009,-1.8056 1.8055,-0.9027 1.655,-1.956 -0.1505,-1.0532 0,-1.0532 1.0532,-1.0532 1.0532,0 2.8589,0.1504 3.0093,-1.3542 0.1504,-1.5045 0.3009,-2.8587 2.1063,-3.0091 1.8056,-0.1505 2.4075,0.3008 2.1066,1.655 -0.301,1.3541 0.9028,1.5046 1.2037,3.0093 0.3009,1.5045 0.3009,3.0091 0.7524,4.0623 0.4512,1.0533 1.8054,0.301 1.5045,-0.7522 -0.3009,-1.0533 0,-1.6551 -0.3009,-3.6111 -0.3009,-1.956 -1.0533,-1.0532 -0.4514,-3.4607 0.6019,-2.4074 1.956,-2.7083 2.4072,-1.0531 0.4516,1.6551 0.1505,3.3101 2.257,4.5138 2.1064,1.2036 1.0532,1.3541 2.558,0.6019 1.5046,-0.7523 3.0092,-0.7523 3.9119,-1.5046 0.9029,-0.7523 1.2038,-1.956 3.7615,-4.0626 2.5579,-2.1064 1.3542,-1.3541 3.3103,-0.9028 1.9559,0.4516 0,2.1066 3.1596,2.257 3.1597,0.1504 2.5579,2.5579 3.7615,4.213 1.2037,1.6548 1.0533,1.0532 2.4074,0.9028 1.3541,-0.1506 3.3102,0.752 4.3634,-0.7524 1.0533,-1.5046 3.3101,-2.8588 3.611,-1.2037 0.301,1.655 0.9028,3.4606 1.3543,1.2037 0.4513,-2.2569 1.0531,-2.5578 2.2568,-2.4073 1.2037,0.1504 2.257,2.1065 1.8056,3.611 -0.4513,1.5046 -0.9028,2.5578 -2.1064,3.7615 -1.2038,1.2037 -0.9029,2.5578 0.1504,2.5578 1.0532,0 1.6551,1.2038 2.4074,-0.1504 0.7522,-1.3542 2.8588,-2.5579 3.7614,-1.3542 0.9029,1.2039 0.1506,1.6551 0.9029,1.2039 0.7522,-0.4515 1.2037,2.2568 2.2569,1.6549 1.0533,-0.6017 0.9028,0.9029 2.5579,0.7523 1.6551,-0.1504 2.5578,1.6551 2.2569,2.5578 -0.301,0.9028 0,2.7083 1.2036,3.4607 1.2037,0.7523 3.1598,0.4515 3.4607,-0.7524 0.3009,-1.2037 0.9027,-0.7523 0,-2.4073 -0.9028,-1.655 -2.1065,0.1505 -1.5046,-2.8588 0.6018,-3.0091 0.7522,-3.6111 2.1064,-4.3634 1.3542,-0.7522 0.9027,-1.3541 0,-3.1597 -0.9027,-1.8055 -1.8055,-1.8055 -0.1504,-3.1597 1.655,-1.354 2.5579,-0.3008 2.5579,-1.5045 0,-1.2038 1.0532,-3.611 -0.3011,-4.213 -1.3541,-0.6019 0.602,-1.956 -0.9026,-3.1597 -1.5047,-1.2036 0.1504,-2.7083 -2.4075,-3.4604 -2.5578,-0.7525 -1.3541,-0.1505 -3.6109,-0.9029 -2.257,-0.7523 -1.3543,0 -2.8589,-1.5047 -1.5046,-1.5047 -3.1597,-4.3634 -3.9121,-6.6202 -0.7522,-2.257 -1.354,-7.3726 -1.354,-7.3726 0,0 1.354,-1.8057 3.1596,0.4512 1.8057,2.2571 3.1597,3.0093 3.6111,4.3635 0.4514,1.3542 -0.1505,4.5138 2.1064,2.7083 2.257,-1.8054 1.6552,-1.3541 1.3542,-3.1596 -0.3009,-1.8057 1.2037,-3.9122 -0.4513,-4.8149 -1.655,-0.9027 -0.9029,-1.6551 -1.3543,-4.0624 -0.4513,-2.4074 0.9029,-3.6112 2.1066,-3.4606 1.2036,0.1505 0,1.5045 3.1596,1.6551 3.1598,0.1505 2.2569,2.1065 3.611,1.8055 1.3543,-0.3009 0,0.301 3.3103,0.7523 3.3102,0.4514 3.0091,3.7616 1.655,4.6643 -1.3542,0.9027 -1.8055,1.0533 -4.3633,4.5139 -2.5578,3.4605 0.3008,2.8587 2.1065,2.2568 1.8055,-0.6018 2.1064,0.7524 3.4604,-2.1063 1.3543,-2.8588 0,-3.0094 2.1066,-2.8588 2.1064,0.1504 4.2129,0.9027 6.3195,1.5045 2.1063,0.6019 3.7614,2.4074 2.4073,3.6111 -1.3541,1.2037 -1.6551,3.0092 -1.8056,4.9653 -0.1504,1.956 0.602,3.1597 3.3102,3.9119 2.7083,0.7525 3.1597,1.0533 4.5138,0.1505 1.3542,-0.9027 0.9028,-1.8056 1.0533,-3.4607 0.1504,-1.6549 1.2036,-2.8586 2.4074,-1.8054 1.2037,1.0533 3.1595,3.3102 3.1595,1.5046 0,-1.8057 -1.655,-3.7616 -0.7522,-4.8148 0.9027,-1.0531 2.8588,-2.8587 1.2037,-3.9119 -1.6552,-1.0533 -2.8587,-1.0533 -3.611,-1.5047 -0.7524,-0.4514 -0.7524,1.6552 -1.9559,1.2037 -1.2038,-0.4514 0,-1.3541 -1.6551,-1.956 -1.6552,-0.6019 -0.3012,-0.4514 -3.4608,-1.0532 -3.1597,-0.602 -2.2569,0.6018 -4.2129,-1.0532 -1.9561,-1.6552 -2.8587,-3.4606 -4.9652,-4.3634 -2.1065,-0.9028 0.9028,-1.2039 -3.0093,-1.956 -3.9119,-0.7524 -3.1596,-1.5046 -5.2661,-3.6113 -2.1065,-2.1063 0,-1.3541 -5.7176,-2.1063 -5.7175,-0.7524 -4.6643,-1.3541 -6.6202,-3.1596 -1.9559,-1.8055 -3.0092,-1.9562 -5.4167,-2.257 -2.4072,-0.3008 -8.5763,-1.3541 -7.5231,0.3008 1.0534,1.6552 3.0093,3.6111 -1.9559,3.1598 -4.9651,-0.4513 -5.868,-1.3542 -8.1249,-1.5046 -2.2569,-0.1504 -6.0185,-0.1504 -3.912,-2.1064 2.1064,-1.9561 3.611,-1.6551 2.2569,-2.8587 -1.3542,-1.2039 -1.3542,-0.4515 -3.0094,-1.3544 -1.6549,-0.9027 -5.266,-0.6017 -7.8238,-0.4513 -2.5581,0.1505 -5.2663,1.5046 -3.1597,3.6111 2.1064,2.1065 3.9119,3.4607 4.8147,4.8147 0.9028,1.3542 0.602,5.2663 -1.3541,5.1157 -1.9561,-0.1503 -1.5046,1.3543 -2.4074,-0.1503 -0.9028,-1.5047 -3.9118,0.7521 -4.6643,1.9559 -0.7522,1.2038 -3.0093,1.0533 -4.0624,0.3008 -1.0532,-0.7521 -5.1158,0.3011 -6.169,0.4516 -1.0532,0.1504 -3.0092,1.8055 -4.8148,1.5046 -1.8055,-0.301 -6.9212,-0.6019 -7.2222,1.0532 -0.3007,1.655 0.1505,2.1065 -1.0532,3.1596 -1.2037,1.0532 -2.1065,2.5579 -3.0092,1.2036 -0.9028,-1.3541 -0.6019,-2.1063 -2.5577,-1.9559 -1.9562,0.1504 -2.7083,1.0532 -1.8057,2.5579 0.9028,1.5046 -2.1065,3.1598 -3.7614,3.9119 -1.655,0.7524 0.1504,2.5579 -2.5579,2.8588 -2.7082,0.301 -3.3101,3.1596 -1.6551,3.4607 1.6551,0.3009 1.956,0.7521 2.4073,-0.1506 0.4515,-0.9026 2.1065,0.9027 0.7524,1.6552 -1.3542,0.7524 -4.2128,2.7083 -3.912,3.4606 0.3008,0.7523 0.3008,0.9029 0.3008,0.9029 0,0 0.7524,2.2567 2.257,3.6109 1.5046,1.3541 1.5046,4.8148 3.0092,2.8587 1.5048,-1.9559 3.4606,-1.8055 3.1597,-0.6018 -0.3009,1.2038 -3.611,4.5139 -1.8054,6.0186 1.8054,1.5045 3.31,1.9557 4.3632,0.9026 1.0534,-1.0532 2.1066,-3.0091 1.5047,-1.5046 -0.6019,1.5046 0.1504,2.8588 0.1504,2.8588 z m 23.6226,0.3009 c 0,0 1.0531,1.8056 1.3541,0.7524 0.3008,-1.0533 -1.3541,-1.3544 -1.3541,-0.7524 z m -156.6305,42.5807 c 0,0 0.4514,1.3541 0.9027,0.4514 0.4515,-0.9029 -0.7522,-0.6019 -0.9027,-0.4514 z m 42.8815,-8.7268 c 0,0 0.3009,-0.9028 1.2037,-1.0533 0.9029,-0.1505 1.2038,0.4514 0.6018,1.2037 -0.6018,0.7523 -2.5578,2.2568 -1.8055,-0.1504 z m -5.2661,-2.8588 c 0,0 1.3541,-1.2036 2.1065,0 0.7522,1.2037 1.5046,1.956 0.4513,2.2569 -1.0532,0.3009 -1.3541,1.2038 -2.1063,0.4513 -0.7524,-0.7522 0.1504,0.7525 -1.6552,0.4514 -1.8055,-0.3008 -2.1064,0 -1.9559,-1.3541 0.1504,-1.3541 0,-1.3541 1.3541,-1.2036 1.3541,0.1504 -0.3009,-0.1505 1.8055,-0.6019 z m 19.56,-24.3747 c 0,0 1.2037,-0.3009 0.9028,0.6019 -0.301,0.9028 -1.5047,0 -0.9028,-0.6019 z m -0.7523,-3.1596 c 0,0 1.956,0.9026 1.6551,-0.4515 -0.301,-1.3542 -1.3543,-0.4514 -1.6551,0.4515 z m 7.0715,3.1596 c 0,0 1.9562,1.0533 1.3542,0 -0.6017,-1.0533 -2.7083,-1.655 -2.4074,-0.7523 0.301,0.9027 0.301,1.0532 1.0532,0.7523 z m 49.0506,-18.6573 c 0,0 0.4514,0.9028 1.5046,0.6018 1.0532,-0.3008 1.3543,-0.1504 0.9027,-1.2035 -0.4512,-1.0533 0.4516,-1.3542 -0.9027,-1.2037 -1.354,0.1504 -2.2568,-0.4514 -1.5046,0.3008 0.7523,0.7524 0.7523,1.2036 0,1.5046 z m -2.2568,31.1456 c 0,0 0.3008,-0.4514 1.2036,-1.0532 0.9027,-0.602 1.3542,-0.7525 1.0532,0.3008 -0.301,1.0533 0.1506,1.8056 -1.2037,1.5048 -1.3541,-0.301 -0.9027,-0.9029 -1.0531,-0.7524 z m -3.9122,-1.8057 c 0,0 0.6019,-1.5045 1.5046,-1.0532 0.9028,0.4516 -0.4513,2.1065 -1.5046,1.0532 z m -2.1064,-1.354 c 0,0 1.956,0.9028 1.8055,-0.1505 -0.1503,-1.0533 -2.1063,-1.0533 -1.8055,0.1505 z m -8.7267,-4.3635 c 0,0 1.2036,-0.1504 1.956,-0.9026 0.7522,-0.7524 2.4074,-0.9029 2.4074,-0.1505 0,0.7522 0,0.9027 0,0.9027 0,0 1.5045,0.301 1.8054,1.3541 0.301,1.0533 -0.4512,2.8588 -1.3542,1.956 -0.9027,-0.9027 -0.1503,-1.2036 -1.655,-1.2036 -1.5048,0 -2.2568,0.6018 -3.0092,0 -0.7523,-0.6019 -1.3542,-1.3541 -0.1504,-1.9561 z m -3.1597,-10.2313 c 0,0 -1.0532,-2.1064 0.7523,-2.7082 1.8055,-0.6019 1.2036,-0.1506 2.4074,-0.4515 1.2036,-0.3009 -0.7524,-2.1064 2.5578,-1.5046 3.3101,0.6018 -1.0532,2.4074 -0.1505,3.0092 0.9027,0.6019 0.1505,1.2037 1.3541,0.7523 1.2037,-0.4514 2.257,2.8589 0.9029,3.0094 -1.3543,0.1504 -1.9561,0.3007 -2.7083,1.0532 -0.7524,0.7522 -1.2038,0.7522 -1.2038,1.6551 0,0.9027 -0.7522,0.9027 -2.4072,1.2036 -1.6552,0.301 -3.0094,0.301 -2.7084,-1.3541 0.3009,-1.6552 1.0532,-0.301 1.5047,-1.8057 0.4513,-1.5046 -0.7524,-1.8054 -0.301,-2.8587 z m 33.8539,-48.1476 c 0,0 -0.301,3.3102 0.7523,1.6551 1.0531,-1.6551 -0.7523,-2.257 -0.7523,-1.6551 z m 1.9559,-2.7083 c 0,0 0.4513,1.9559 0.7523,0.7523 0.3009,-1.2037 -0.301,-1.9561 -0.7523,-0.7523 z m -14.4443,0 c 0,0 -2.1063,1.6551 0.3009,1.6551 2.4075,0 1.5047,0 3.6111,-0.301 2.1066,-0.3009 1.9559,0 3.7615,-0.1505 1.8055,-0.1504 4.0625,-1.0532 1.655,-2.1065 -2.4072,-1.0532 -1.5045,-0.9026 -3.9118,0 -2.4075,0.9029 -2.4075,0.9029 -3.912,0.602 -1.5047,-0.301 -1.3542,0.4513 -1.5047,0.3009 z m -3.912,6.6202 c 0,0 -0.4514,2.2569 1.8057,1.8055 2.2568,-0.4513 1.0532,-0.9027 2.2568,-0.6018 1.2036,0.301 2.1064,-0.4514 2.7083,0 0.6018,0.4513 1.5046,0.9029 2.4074,-0.1506 0.9027,-1.0531 0.4512,-0.3008 1.8055,-1.0531 1.3542,-0.7523 1.2036,-1.0532 0.3009,-2.2568 -0.9027,-1.2037 0.4514,-0.9029 -1.8057,-0.4516 -2.2567,0.4516 -2.4072,0.9028 -4.0622,1.5048 -1.6552,0.6019 -2.257,-0.1506 -3.1598,0 -0.9028,0.1504 -2.8587,0.3008 -2.2569,1.2036 z m -10.2313,0 c 0,0 0,1.0531 1.9559,1.2037 1.9561,0.1505 1.0533,1.3542 2.4075,0.9029 1.3541,-0.4516 3.1597,-0.7524 1.956,-1.5048 -1.2038,-0.7523 -1.3542,-0.6018 -2.8589,-1.0533 -1.5046,-0.4513 -1.3542,-0.4513 -2.2568,-0.3008 -0.9028,0.1506 -0.7523,0.7523 -1.2037,0.7523 z m -11.2846,1.956 c 0,0 1.2036,0.1506 3.611,-0.7523 2.4073,-0.9027 3.0092,0.301 1.655,0.9029 -1.3541,0.6016 -2.1064,0 -3.0092,0 -0.9027,0 -2.7083,-0.3011 -2.2568,-0.1506 z m -27.8354,-2.1065 c 0,0 4.8147,1.3542 7.3725,1.0533 2.558,-0.301 1.0533,2.4073 4.3633,1.8054 3.3102,-0.6016 3.0093,1.0534 4.8149,-0.9027 1.8055,-1.956 2.5579,-2.8587 1.0531,-3.6111 -1.5045,-0.7523 -1.0531,0.602 -3.3099,0 -2.257,-0.6017 -0.3011,-1.6549 -2.7083,-1.3541 -2.4075,0.3009 -1.8055,1.2036 -3.7617,1.2036 -1.956,0 -2.1065,-0.1503 -4.8149,-0.1503 -2.7081,0 -1.5045,-0.602 -3.1596,-0.602 -1.6549,0 -4.5137,-0.6017 -4.2129,1.3542 0.301,1.956 -0.4513,1.2037 1.3542,1.2037 1.8055,0 2.8587,0.1505 3.0093,0 z m -36.2613,-46.3421 c 0,0 1.5046,4.3634 3.7615,2.5579 2.257,-1.8057 2.4074,-2.2569 1.0533,-2.8589 -1.3541,-0.6017 -0.3009,-1.8054 -1.8055,-1.8054 -1.5047,0 -2.7084,-0.9027 -2.5579,0.301 0.1506,1.2035 0.6018,0.7522 -0.4514,1.8054 z m -4.3635,7.6736 c 0,0 -0.9026,5.868 1.0533,6.4697 1.9561,0.602 2.4075,1.3542 3.3102,2.7084 0.9027,1.3542 -0.7524,4.0626 1.956,3.6111 2.7083,-0.4514 2.2569,-0.6018 3.31,-1.354 1.0533,-0.7525 2.4076,-1.9561 2.1066,-3.6113 -0.3009,-1.655 -0.1505,-4.8148 -0.9028,-6.1689 -0.7523,-1.3541 -1.2038,-1.655 -2.8587,-2.4074 -1.6551,-0.7522 -0.3008,-0.7522 -1.956,-1.3541 -1.6551,-0.6019 -0.4513,-0.3009 -3.0092,-1.6551 -2.5579,-1.3541 -2.257,-0.4515 -3.6112,-0.1504 -1.3541,0.3009 -2.2569,0.7523 -0.1503,1.8055 2.1065,1.0532 -1.5047,1.6552 0.7521,2.1065 z m -52.0595,3.6109 c 0,0 -1.0533,4.514 1.3541,4.514 2.4075,0 3.9119,0.7522 3.7615,-0.301 -0.1504,-1.0531 1.3542,-0.6017 -0.6019,-1.3542 -1.9559,-0.7522 -1.0532,-1.6551 -1.3541,-3.0091 -0.3008,-1.3542 0.3009,-2.1063 -2.1064,-3.1597 -2.4074,-1.0533 -3.1597,-0.7522 -2.1065,0.7523 1.0533,1.5046 0.9026,1.8055 1.0533,2.5577 z m -17.1527,86.2147 c 0,0 2.1066,-0.7524 1.3541,-1.0533 -0.7522,-0.301 -2.2568,0.1504 -1.3541,1.0533 z m -6.9211,-6.6205 c 0,0 0.3007,0.9029 1.0532,0.301 0.7522,-0.6019 -0.7525,-1.2037 -1.0532,-0.301 z m -0.903,3.1598 c 0,0 1.9562,0.1504 3.7617,0.4514 1.8056,0.3008 1.5047,1.655 -0.3009,2.2569 -1.8056,0.6019 -1.8056,0.301 -3.7616,0.301 -1.956,0 -1.655,-0.1506 -0.7523,-1.5047 0.9028,-1.3542 0.9028,-1.2036 1.0531,-1.5046 z m 53.715,-7.2221 c 0,0 -0.602,1.8055 0.4513,1.2037 1.0532,-0.6019 0,-1.3543 -0.4513,-1.2037 z m 4.3632,-11.5856 c 0,0 1.3543,5.1156 3.611,4.5138 2.257,-0.6018 3.1598,-0.3009 1.6551,-2.2569 -1.5044,-1.956 -1.9558,-2.8588 -2.5577,-4.3634 -0.6019,-1.5046 -1.6551,-3.0091 -2.7084,-3.7615 -1.0531,-0.7523 -3.7616,-0.9028 -2.4073,1.3542 1.3542,2.2569 0.7523,3.611 1.6551,3.7614 0.9029,0.1505 0.9029,0.7524 0.7522,0.7524 z m -19.4094,10.3819 c 0,0 -0.9027,-3.4606 2.2569,-4.815 3.1597,-1.354 1.3541,-0.9027 3.7615,-2.1064 2.4073,-1.2036 4.5139,-2.7082 5.8681,-4.0624 1.354,-1.3541 1.8055,-0.7521 1.9559,1.0533 0.1505,1.8055 -0.9028,2.7082 0.6018,4.3633 1.5046,1.655 -0.1505,3.912 -1.8054,3.6112 -1.6551,-0.301 -3.7616,0.3008 -3.0093,-0.9028 0.7523,-1.2038 -0.6018,-0.6018 -1.956,-0.7523 -1.3542,-0.1506 -2.1065,2.2569 -2.4075,3.0091 -0.3008,0.7524 -0.4513,2.5579 -0.7522,3.6112 -0.301,1.0532 0,2.1064 -1.0533,3.0093 -1.0533,0.9026 -0.7523,1.6549 -3.0092,1.2037 -2.2569,-0.4516 -1.9559,0.6017 -2.1064,-1.6552 -0.1505,-2.2571 -2.1064,-2.2571 -1.0532,-3.3102 1.0532,-1.0531 1.3541,0 1.9559,-0.7522 0.6019,-0.7523 0.7524,-1.5046 0.7524,-1.5046 z m -10.6828,-59.8838 c 0,0 0.7524,4.213 3.0092,3.3103 2.257,-0.9029 2.8587,-1.0532 1.5046,-2.4075 -1.3542,-1.354 2.1065,-2.7084 -0.7523,-3.6111 -2.8587,-0.9028 -2.4074,-1.2037 -4.2129,-1.3541 -1.8055,-0.1504 -3.0092,1.956 -1.354,2.2568 1.655,0.3011 2.4073,0.4515 1.8054,1.8056 z m -60.4856,26.03 c 0,0 0.4513,2.5577 2.257,3.0092 1.8056,0.4512 2.8587,1.2037 4.6643,1.8054 1.8054,0.6019 1.655,1.655 3.1598,2.7083 1.5046,1.0533 0.4512,1.8056 2.7083,1.5046 2.2568,-0.3008 3.1597,0.7524 4.0623,-0.4513 0.9028,-1.2037 1.8056,-1.956 4.2129,-2.1066 2.4075,-0.1504 3.0092,-0.1504 3.0092,1.2039 0,1.354 0.9028,0.6017 2.1066,0.4513 1.2037,-0.1505 1.2037,0.1504 1.9559,-0.7523 0.7523,-0.9029 0.7523,-1.0533 1.8055,-1.3542 1.0532,-0.3008 2.8589,0.4513 4.6643,-0.1504 1.8057,-0.6019 2.257,-0.7524 3.1599,-1.655 0.9028,-0.9029 0.7522,-3.1597 4.0623,-2.558 3.3102,0.602 3.3102,1.8055 4.9654,2.8588 1.655,1.0532 0.6017,2.257 2.4073,3.1598 1.8055,0.9027 3.31,1.5045 4.9652,2.5579 1.655,1.0532 1.655,2.5577 2.5579,4.0623 0.9028,1.5047 1.3541,3.4607 2.8587,4.5139 1.5047,1.0532 -0.9026,2.7083 1.6552,1.9559 2.5577,-0.7522 3.4605,-1.8054 3.9118,-0.1504 0.4515,1.6551 -0.4513,5.1157 1.5047,5.567 1.9561,0.4514 2.4073,-0.9028 1.6551,-2.8586 -0.7522,-1.9561 -1.6551,-3.1598 1.5046,-3.4607 3.1598,-0.3009 0.6018,4.2129 3.0092,1.5046 2.4072,-2.7083 0,-2.257 2.7084,-4.213 2.7083,-1.9559 2.7083,-1.5045 4.6643,-1.9559 1.956,-0.4514 1.2037,2.1065 3.7614,1.6551 2.558,-0.4516 1.8055,-1.6551 3.4607,-1.9561 1.6551,-0.3009 2.1065,0.301 4.6643,-0.1504 2.5579,-0.4514 1.8056,-1.956 3.7614,-1.2037 1.9561,0.7523 1.8056,2.257 4.3635,2.7084 2.558,0.4513 4.3634,1.2036 3.4606,2.1065 -0.9026,0.9026 -4.2129,2.1064 -3.7614,3.4604 0.4513,1.3544 0.3008,3.9121 1.9559,5.2662 1.6551,1.3542 1.0533,2.8587 2.8587,3.0092 1.8057,0.1506 2.8588,2.5579 4.3634,3.4607 1.5046,0.9027 3.4607,3.7615 7.3726,3.912 3.912,0.1504 1.0533,2.8587 4.0626,2.4075 3.0092,-0.4515 4.2128,-1.0534 5.4166,-0.602 1.2036,0.4513 0.4514,1.2037 2.1064,0.4513 1.655,-0.7522 1.655,-1.354 3.009,-1.2037 1.3544,0.1505 0.4516,2.1065 2.1066,3.0093 1.6552,0.9028 1.6552,1.6551 3.1598,1.2038 1.5047,-0.4514 3.9119,0.4513 4.3634,1.0532 0.4514,0.6018 0.3009,2.5579 1.3542,2.4074 1.0532,-0.1505 1.0532,-1.8056 1.3541,-3.1598 0.3008,-1.3541 -0.1505,-1.6551 -1.5047,-3.611 -1.3542,-1.956 -3.611,-3.3102 -0.9027,-4.3633 2.7082,-1.0533 3.1598,0 4.9652,-0.4514 1.8056,-0.4514 3.0092,-0.4514 3.9121,-1.2038 0.9027,-0.7523 0.3009,-0.7523 1.8054,-0.7523 1.5045,0 0.1504,1.3542 1.5045,1.655 1.3542,0.3011 1.8057,0.4515 4.3635,0.1505 2.558,-0.3008 1.956,-1.354 3.6112,-1.0532 1.655,0.301 1.2036,0.9027 1.8054,2.1065 0.6019,1.2037 -0.1504,0.7524 1.6552,0.6018 1.8054,-0.1505 1.9559,-0.1505 3.31,1.0531 1.3543,1.2039 1.2039,1.3542 2.8589,1.6552 1.655,0.3009 1.655,-1.2037 1.2038,-2.5577 -0.4514,-1.3543 -0.903,-1.9562 0.1503,-2.257 1.0533,-0.3009 1.0533,1.2038 3.0092,1.5046 1.956,0.3009 3.6111,-0.6019 2.4074,-1.655 -1.2036,-1.0533 -2.8587,-2.1066 -3.4606,-3.1598 -0.6018,-1.0533 -1.0531,-2.4074 0.6019,-2.5579 1.6551,-0.1504 8.5762,0.9027 8.1249,-0.3009 -0.4513,-1.2037 -0.6018,-2.4074 -3.1598,-2.8586 -2.5578,-0.4515 -4.6643,0.3007 -6.3193,0.9026 -1.655,0.6019 -1.8054,1.2037 -3.1597,0.7523 -1.3541,-0.4514 -2.8587,0 -3.4606,0.1505 -0.6018,0.1504 -3.4606,0.6019 -1.956,-1.2037 1.5046,-1.8055 1.5046,-1.8055 3.4607,-1.9559 1.9559,-0.1505 3.6111,-0.3009 2.7083,-1.9561 -0.9029,-1.655 -3.0094,-2.4074 -3.9121,-4.0624 -0.9027,-1.6552 0,-4.6642 -1.8056,-4.8148 -1.8055,-0.1504 -4.8147,1.2037 -6.0184,0.1506 -1.2037,-1.0533 -2.5578,-1.6551 -3.611,-3.4607 -1.0534,-1.8055 -3.6111,-2.7083 -2.2571,-3.1598 1.3543,-0.4513 1.3543,-2.4074 -0.3008,-3.0092 -1.655,-0.6018 -3.0093,-0.6018 -5.1157,-1.3541 -2.1065,-0.7523 -2.5578,-0.4513 -3.3102,-0.4513 -0.7522,0 -1.5045,0.7523 -3.7615,0 -2.2569,-0.7524 -7.6736,-4.9654 -9.3286,-5.7178 -1.6551,-0.7521 -10.3819,-6.3192 -13.2406,-7.5229 -2.8588,-1.2037 -2.7083,-1.2037 -4.6643,-1.3542 -1.956,-0.1504 -4.5139,-0.7523 -6.169,-1.8055 -1.655,-1.0533 -5.4165,-5.8679 -8.4259,-6.9212 -3.0092,-1.0532 -3.31,-1.2037 -5.266,-2.1064 -1.956,-0.9028 -9.9304,-5.5672 -7.6736,-4.213 2.257,1.354 5.7176,4.213 7.2222,4.6643 1.5046,0.4514 2.7082,1.6551 2.7082,2.4075 0,0.7522 1.0533,1.655 1.9561,2.7082 0.9028,1.0531 0.1505,1.956 1.5046,2.1064 1.3542,0.1504 5.4166,2.7084 4.8149,4.0626 -0.602,1.3541 -0.9029,2.1064 -1.9562,2.5577 -1.0532,0.4515 -1.2036,2.4073 -2.2569,2.8587 -1.0533,0.4515 -1.0533,1.0532 -3.1597,0.6019 -2.1064,-0.4514 -0.9028,-1.6551 -2.8586,-2.1064 -1.9561,-0.4513 -3.9121,0.4513 -4.8148,-0.6018 -0.9028,-1.0533 -2.2571,-3.0092 -3.0092,-4.3634 -0.7525,-1.3542 -0.9029,-3.4606 -3.1597,-3.4606 -2.257,0 -1.6551,-1.0533 -3.0093,-2.8587 -1.3542,-1.8057 -3.6112,-3.0094 -3.3102,-0.1506 0.3009,2.8588 -0.1504,4.2129 -1.6551,3.611 -1.5047,-0.6017 -1.9559,-1.0532 -3.31,-1.2037 -1.3543,-0.1504 -1.2038,0.9029 -2.4075,0.301 -1.2037,-0.6018 -1.2037,-0.6018 -2.4073,-0.7523 -1.2037,-0.1504 -1.6552,0.9028 -3.0093,1.2037 -1.3542,0.3009 -1.9561,0 -3.3102,-0.1504 -1.354,-0.1505 -2.4073,-2.7083 -4.2129,-2.5579 -1.8057,0.1505 -1.8057,-1.2037 -4.0624,-0.4514 -2.257,0.7523 -1.5047,1.2037 -2.8587,0.7523 -1.3542,-0.4513 0,-1.3541 -2.4075,-1.6549 -2.4074,-0.3011 -5.2662,0.1503 -4.9652,1.6549 0.301,1.5046 -0.7523,2.257 -1.0534,3.6111 -0.3008,1.3542 -1.2035,2.5578 -2.4071,2.2569 -1.2038,-0.3009 -1.6552,-0.7523 -3.0095,-1.6549 -1.354,-0.9029 -0.9027,-1.8057 -2.8586,-1.3544 -1.9561,0.4515 -3.1597,-0.1504 -3.0093,1.2038 0.1504,1.3542 -0.9028,1.8055 0.6018,2.2569 1.5047,0.4515 -0.4514,1.8056 -1.655,2.1065 -1.2037,0.301 -2.4073,0.7523 -3.912,1.0533 -1.5045,0.3009 -4.6643,0.7523 -7.2222,0.6018 -2.5578,-0.1505 -3.7614,-0.7524 -5.5671,-0.7524 -1.8055,0 -3.1596,0.1506 -3.9119,1.3542 -0.7524,1.2036 -1.9561,1.2036 -1.9561,2.7082 0,1.5047 -0.7521,0.602 -2.2568,1.3541 -1.5046,0.7524 -4.5139,1.9562 -3.9121,4.2132 z m -5.1156,-5.868 c 0,0 1.354,0.9027 0.9027,1.8054 -0.4513,0.9029 -0.1506,2.1064 1.0532,1.3542 1.2037,-0.7524 1.5047,-0.301 1.956,-1.6551 0.4516,-1.3543 -0.1504,-1.2038 -0.7523,-2.4075 -0.6018,-1.2037 -1.2037,-0.3009 -2.5578,-0.6017 -1.3542,-0.3009 -2.4074,-0.7524 -0.6018,1.5047 z m -8.4258,-3.3102 c 0,0 0.6017,-0.1505 1.0532,1.8055 0.4514,1.9559 1.0531,2.2568 2.4073,0.4513 1.3542,-1.8054 1.2038,-0.7522 0.9028,-2.1064 -0.3009,-1.3541 1.9561,-1.3541 -0.9028,-1.8055 -2.8588,-0.4513 -4.3633,-1.2037 -4.2129,0 0.1504,1.2036 -0.6019,1.6551 0.7524,1.6551 z m -8.2754,-16.4004 c 0,0 0.1504,3.9121 2.2569,2.1065 2.1064,-1.8055 3.6111,-3.0091 2.5579,-4.3635 -1.0532,-1.3541 -1.8056,-0.7522 -2.257,0.3011 -0.4512,1.0533 -2.4074,1.9559 -2.5578,1.9559 z m -11.0078,27.3135 c 0,0 -0.9029,2.1066 0.3009,1.0532 1.2036,-1.0532 0.6019,-1.8053 -0.3009,-1.0532 z m -3.4266,3.1194 c 0,0 0.851,2.1278 0.9575,0.5319 0.1065,-1.596 -0.8511,-1.7023 -0.9575,-0.5319 z m -2.2668,2.3677 c 0,0 2.1063,0.9028 1.0531,-0.3009 -1.0531,-1.2036 -1.8054,-0.6019 -1.0531,0.3009 z m -3.9121,8.4259 c 0,0 1.0533,-0.7524 1.2036,0.1505 0.1506,0.9027 -1.5046,1.2035 -1.2036,-0.1505 z m 3.3102,-3.3102 c 0,0 2.7082,0.301 2.8587,-1.5046 0.1505,-1.8056 0.4514,-1.5046 1.6551,-2.1064 1.2037,-0.6019 0.7523,-2.4075 2.1064,-2.8588 1.3543,-0.4514 0.9029,0.4513 1.6551,2.1064 0.7524,1.6551 0.7524,2.8588 0.4515,3.4608 -0.3011,0.6017 -1.0532,0.6017 -1.8056,1.0532 -0.7523,0.4514 -1.3542,1.354 -2.7083,1.655 -1.3542,0.3008 -0.3011,1.354 -1.8056,1.0532 -1.5046,-0.301 -1.0532,-0.7524 -2.8587,-1.5046 -1.8055,-0.7522 -0.9027,-1.3542 0.4514,-1.3542 z m 365.927,528.1398 c 0,0 -0.6384,-1.7022 -1.7023,-0.2128 -1.0639,1.4896 1.4896,0.8513 -0.6384,1.7023 -2.1279,0.8511 -0.6382,2.5535 0.6384,1.2767 1.2767,-1.2767 0.8513,-2.7662 1.7023,-2.7662 z m 8.0858,0.6385 c 0,0 1.4895,-1.9152 -0.2128,-1.7024 -1.7022,0.2128 -1.0639,1.4895 0.2128,1.7024 z m 9.3626,1.7021 c 0,0 1.9151,-1.2766 0.6382,-1.7021 -1.2766,-0.4258 -0.6382,2.1277 -0.6382,1.7021 z m 17.2356,-15.9588 c 0,0 1.7021,2.7662 5.3195,1.0641 3.6174,-1.7024 7.4475,-0.8512 6.1709,-2.9791 -1.2768,-2.1278 -0.4257,-2.1278 -5.3197,-1.7024 -4.8941,0.4257 -8.2987,-1.0638 -8.937,1.2768 -0.6383,2.3406 0.8511,1.2767 2.7663,2.3406 z m -168.5994,9.235 c 0,0 -6.9213,4.9651 -10.6827,5.4165 -3.7617,0.4514 -4.2129,2.5578 -8.2755,2.4073 -4.0623,-0.1504 -4.5138,-0.9027 -6.6202,-1.0532 -2.1066,-0.1504 -6.4698,0 -10.2315,-0.9027 -3.7616,-0.9028 -4.0624,-2.4076 -8.2754,-3.7616 -4.2129,-1.3542 -8.2754,-1.8055 -9.6295,0.1505 -1.354,1.956 -4.9653,1.8055 -4.0623,3.6111 0.9027,1.8055 -1.2038,2.2569 -2.558,2.4073 -1.3541,0.1506 -5.8679,4.0625 -5.8679,6.0185 0,1.9561 -2.7083,6.7707 -2.7083,9.1782 0,2.4072 1.3541,5.7175 2.7083,8.7267 1.3541,3.0093 1.3541,4.9652 3.1596,7.6735 1.8055,2.7084 1.6551,9.0277 2.2569,11.7361 0.6018,2.7083 1.2037,8.5762 0.4514,10.2314 -0.7523,1.655 -3.3101,3.7615 -4.0624,4.8148 -0.7522,1.0533 -5.4165,7.8238 -5.2661,9.78 0.1504,1.956 0.7523,1.956 0.9028,0.9027 0.1504,-1.0532 2.4073,-7.5232 3.0091,-7.9745 0.602,-0.4512 2.3625,-3.1655 2.8944,-3.5909 0.5321,-0.4257 0.798,-1.064 1.7555,-0.532 0.9576,0.532 0.5852,1.5958 0.053,2.2341 -0.532,0.6385 -1.5433,2.6411 -2.747,3.8448 -1.2037,1.2037 -1.9561,2.4074 -1.9561,4.5138 0,2.1065 2.5578,0.602 2.1065,2.1065 -0.4514,1.5047 -1.2037,2.7083 -2.4074,3.1597 -1.2038,0.4513 -3.1598,0.9028 -2.8588,-0.1504 0.301,-1.0533 0.6018,-1.3541 -1.5047,-1.5046 -2.1064,-0.1505 -0.7522,-0.1505 -2.7082,0.9026 -1.956,1.0533 -3.3102,1.0533 -3.3102,2.7083 0,1.6552 -0.7522,3.7617 0.7524,4.9653 1.5046,1.2038 1.2037,2.7083 3.0091,0.7523 1.8056,-1.9559 2.2569,-1.0532 3.4606,-2.8588 1.2039,-1.8056 1.2039,-2.5578 4.6643,-2.4073 3.4607,0.1505 6.0185,-3.3101 10.2315,-3.7615 4.2128,-0.4514 6.0184,-0.3009 7.2221,-1.956 1.2038,-1.6551 1.6551,2.7082 5.7175,1.5046 4.0626,-1.2037 5.5671,-2.1065 9.0277,-1.956 3.4606,0.1505 6.0185,0.6018 7.9745,2.5578 1.956,1.956 1.956,2.1065 3.4607,3.4606 1.5046,1.3542 3.3101,1.0532 3.7614,-0.301 0.4514,-1.3542 11.5855,-5.266 13.8426,-5.8679 2.2569,-0.6018 7.8238,-3.1597 12.6387,-4.3635 4.8147,-1.2036 9.6295,-1.354 15.648,-1.354 6.0185,0 2.5578,-0.602 5.7174,-0.1505 3.1598,0.4513 2.257,1.3541 7.3728,1.3541 5.1156,0 4.2128,1.5047 6.1688,0.4515 1.9561,-1.0532 2.257,-1.2038 4.213,-3.0093 1.9559,-1.8055 -0.7523,-1.5046 2.2568,-1.5046 3.0094,0 3.7615,-0.3009 4.0626,-1.6551 0.3008,-1.3541 0.3008,-3.7615 1.5046,-4.9653 1.2037,-1.2036 2.4074,-3.611 5.1157,-1.5045 2.7084,2.1064 3.7615,3.611 6.7707,2.4073 3.0092,-1.2037 6.6203,-0.4514 7.9745,-0.1505 1.3542,0.3011 3.912,3.9122 6.1689,4.213 2.2569,0.301 5.7176,0.4513 7.3726,-0.4514 1.655,-0.9027 4.8147,-1.2038 4.6643,-2.5578 -0.1505,-1.3542 8.125,0.1504 8.125,-1.5047 0,-1.655 4.0623,-0.7523 5.4165,-0.1504 1.3541,0.6018 1.956,2.1065 3.6111,0.3009 1.6552,-1.8055 3.611,-3.912 5.4166,-3.6111 1.8055,0.3008 4.5139,-0.6018 4.6644,-1.8054 0.1505,-1.2037 1.8054,-2.4075 3.611,-1.8056 1.8055,0.6019 3.9121,1.6551 5.2661,1.0532 1.3543,-0.6017 2.4074,-3.0093 3.0094,-3.7615 0.6016,-0.7524 2.8587,-4.6644 4.3634,-5.1157 1.5045,-0.4514 6.6201,-1.5046 4.5137,-1.5046 -2.1065,0 -4.9653,0.1504 -5.1157,-0.4513 -0.1504,-0.6019 1.3541,-3.3102 2.7083,-3.7616 1.354,-0.4516 2.1065,0.6018 3.7617,1.5046 1.6551,0.9028 0.3008,2.5578 1.6551,2.7083 1.354,0.1504 8.2752,0.6019 10.8331,0.1504 2.5579,-0.4513 4.9651,-5.4165 9.479,-6.9212 4.514,-1.5047 8.125,-2.7084 12.6389,-3.4606 4.5137,-0.7523 6.3193,-5.2663 7.0717,-6.4698 0.7521,-1.2038 3.0091,-5.4166 6.1688,-5.2662 3.1597,0.1504 8.125,0.7523 11.4351,1.655 3.3101,0.9028 6.169,0.1504 7.824,-0.4514 1.6551,-0.6018 8.2754,-3.31 8.5762,-5.2661 0.3011,-1.956 3.7616,-3.0093 2.5579,-4.5138 -1.2036,-1.5047 -2.1064,-0.301 -3.0091,-1.3542 -0.9029,-1.0531 -2.2571,-3.4606 -3.1598,-2.5578 -0.9027,0.9028 -3.0091,1.5047 -4.2128,0.3011 -1.2037,-1.2039 -3.7618,-1.6552 -4.213,-0.1506 -0.4514,1.5046 -1.8055,0.4514 -5.7175,1.0532 -3.9121,0.6018 -1.956,1.5046 -5.1157,0.1505 -3.1598,-1.3542 -2.5579,3.0091 -6.0185,2.4072 -3.4606,-0.6016 -6.6203,-0.9026 -8.8772,-1.3541 -2.2568,-0.4513 -4.9653,-1.655 -8.2754,-2.1062 -3.3101,-0.4515 -6.6203,-0.7524 -8.7268,0.1504 -2.1065,0.9027 -8.2754,0.3008 -10.3818,-0.1504 -2.1065,-0.4515 -8.2754,-2.1066 -10.2314,-3.3103 -1.956,-1.2036 -2.2569,0.4513 -3.9121,0.7523 -1.6551,0.3009 -4.9651,3.4606 -6.9211,2.558 -1.956,-0.9029 -3.3102,-1.8056 -4.6643,-1.3544 -1.3542,0.4515 -2.2569,2.1065 -4.8147,1.5048 -2.5579,-0.6019 -4.3635,-1.3543 -4.9654,1.2036 -0.6018,2.5578 -2.7083,3.1596 -4.5137,2.5578 -1.8057,-0.6019 -3.0092,-1.5046 -5.1157,-1.2036 -2.1065,0.3007 -1.6551,3.4605 -1.8055,4.3633 -0.1506,0.9028 0.6017,-0.7523 1.5045,-1.5046 0.9028,-0.7523 2.5578,-0.6019 3.3102,0.1504 0.7524,0.7524 3.4606,-0.1504 4.5138,0.6019 1.0533,0.7523 4.2129,0.7523 3.1596,2.5578 -1.0532,1.8057 -1.956,2.8589 -3.0092,1.9561 -1.0532,-0.9028 -2.1064,-2.1065 -3.3101,-1.9561 -1.2036,0.1505 -2.1065,3.1598 -3.31,2.4074 -1.2039,-0.7524 -1.6551,-1.956 -3.0094,-2.1065 -1.354,-0.1504 -1.8055,2.7084 -3.4605,2.4075 -1.6551,-0.301 -3.3102,0.4514 -4.5139,-0.1505 -1.2037,-0.6018 -1.9561,0.4514 -4.514,0.1505 -2.5577,-0.301 -4.2127,-1.2038 -5.4165,-2.257 -1.2036,-1.0531 -7.3727,-5.4166 -8.8771,-7.824 -1.5047,-2.4073 -2.8588,-3.1596 -4.3634,-4.0624 -1.5047,-0.9027 -3.4607,0 -5.1159,-1.5047 -1.655,-1.5046 -4.2128,-9.0276 -5.8679,-10.9835 -1.6551,-1.9562 -4.0624,-4.0628 -5.868,-4.3635 -1.8055,-0.3009 -3.9119,0.1504 -3.9119,1.2036 0,1.0533 -1.0533,1.3542 0.4513,1.5047 1.5047,0.1505 0.1506,3.1598 0.3009,4.5138 0.1505,1.3543 -1.0532,1.0532 -2.4073,1.3543 -1.3542,0.3009 -0.9027,4.0623 -1.956,4.8147 -1.0533,0.7523 -2.7083,2.1064 -2.8589,0.3008 -0.1506,-1.8055 1.2038,-9.9304 -0.4513,-10.9836 -1.655,-1.0531 -1.9559,-2.2569 -5.7176,-3.0092 -3.7616,-0.7524 -6.9211,0 -8.5763,-1.2037 -1.6551,-1.2036 -4.5138,-3.912 -7.0717,-2.7083 -2.5578,1.2038 -6.4697,5.567 -8.2753,5.4165 -1.8055,-0.1504 -8.4259,-0.9029 -10.9837,1.3542 -2.5578,2.2569 -7.5231,5.1157 -7.6735,4.9654 z"
         style="display:inline;opacity:0.5;fill:#0000ff;fill-opacity:1;stroke:none;stroke-width:0.69999999;stroke-miterlimit:4;stroke-dasharray:none;stroke-opacity:1"
         id="path4412" /></clipPath></defs><sodipodi:namedview
     pagecolor="#ffffff"
     bordercolor="#666666"
     borderopacity="1"
     objecttolerance="10"
     gridtolerance="10"
     guidetolerance="10"
     inkscape:pageopacity="0"
     inkscape:pageshadow="2"
     inkscape:window-width="1600"
     inkscape:window-height="837"
     id="namedview112"
     showgrid="false"
     fit-margin-top="0"
     fit-margin-left="0"
     fit-margin-right="0"
     fit-margin-bottom="0"
     inkscape:zoom="0.35739105"
     inkscape:cx="317.11675"
     inkscape:cy="325.3098"
     inkscape:window-x="-8"
     inkscape:window-y="-8"
     inkscape:window-maximized="1"
     inkscape:current-layer="Capa_1" /><g
     id="g4417"
     transform="matrix(1.320587,0,0,1.320587,-1062.2592,-402.12292)"><path
       id="path3754"
       transform="translate(1488.189,992.12598)"
       d="m 601.03125,64.414062 c -0.26889,0.01765 -0.40409,0.17166 -0.34766,0.623047 0.1506,1.2035 0.60203,0.753441 -0.45117,1.806641 0,0 1.50482,4.362141 3.76172,2.556641 2.257,-1.8057 2.40684,-2.255422 1.05274,-2.857422 -1.35411,-0.6017 -0.30009,-1.806641 -1.80469,-1.806641 -0.94044,0 -1.76279,-0.351675 -2.21094,-0.322266 z m -4.0625,5.619141 c -0.65535,-0.03969 -0.8548,0.384078 -1.70117,0.572266 -1.3541,0.3009 -2.25699,0.751487 -0.15039,1.804687 2.1065,1.0532 -1.50485,1.656122 0.75195,2.107422 0,0 -0.90316,5.86705 1.05274,6.46875 1.95609,0.602 2.40784,1.354785 3.31054,2.708984 0.9027,1.3542 -0.75137,4.062829 1.95703,3.611329 2.7083,-0.4514 2.2555,-0.601316 3.3086,-1.353516 1.0533,-0.7525 2.40842,-1.956128 2.10742,-3.611328 -0.3009,-1.655 -0.15004,-4.815822 -0.90235,-6.169922 -0.75229,-1.3541 -1.20447,-1.655803 -2.85937,-2.408203 -1.6551,-0.7522 -0.30183,-0.751616 -1.95703,-1.353516 -1.6551,-0.6019 -0.44991,-0.300097 -3.00781,-1.654297 -0.95922,-0.507787 -1.51695,-0.69884 -1.91016,-0.722656 z m -54.10742,4.164063 c -0.71558,-0.03671 -0.76372,0.432734 -0.10547,1.373046 1.0533,1.5046 0.90203,1.804441 1.05273,2.556641 0,0 -1.05193,4.515625 1.35547,4.515625 2.4075,0 3.91212,0.752419 3.76172,-0.300781 -0.1504,-1.0531 1.35259,-0.602969 -0.60351,-1.355469 -1.9559,-0.7522 -1.05262,-1.653812 -1.35352,-3.007812 -0.3008,-1.3542 0.30183,-2.106757 -2.10547,-3.160157 -0.90277,-0.394987 -1.57261,-0.599068 -2.00195,-0.621093 z m 3.50586,14.3125 c -1.8055,-0.1504 -3.00872,1.957012 -1.35352,2.257812 1.655,0.3011 2.40659,0.450588 1.80469,1.804688 0,0 0.75298,4.213246 3.00976,3.310546 2.25703,-0.9029 2.85801,-1.053903 1.50391,-2.408203 -1.3542,-1.354 2.10685,-2.708628 -0.75195,-3.611328 -2.8587,-0.9028 -2.40739,-1.203115 -4.21289,-1.353515 z m -78.09375,1.478515 c -0.51723,-0.06168 -0.9171,0.421766 -1.19922,1.080078 -0.4512,1.0533 -2.4082,1.955077 -2.5586,1.955079 0,0 0.15132,3.913021 2.25782,2.107421 2.1064,-1.8055 3.61179,-3.008881 2.55859,-4.363281 -0.39495,-0.507787 -0.74825,-0.74229 -1.05859,-0.779297 z m 103.72461,0.232422 c -0.006,2.96e-4 0.11633,0.07682 0.39843,0.246094 2.257,1.354 5.71806,4.212762 7.22266,4.664062 1.5046,0.4514 2.70898,1.65385 2.70898,2.40625 0,0.7522 1.05228,1.655793 1.95508,2.708981 0.9028,1.0531 0.15176,1.95507 1.50586,2.10547 1.3542,0.1504 5.41616,2.7083 4.81446,4.0625 -0.602,1.3541 -0.90374,2.1073 -1.95704,2.5586 -1.0532,0.4515 -1.20255,2.40797 -2.25586,2.85937 -1.0533,0.4515 -1.05375,1.05286 -3.16015,0.60156 -2.1064,-0.4514 -0.90358,-1.65612 -2.85938,-2.10742 -1.9561,-0.4513 -3.91175,0.45154 -4.81445,-0.60156 -0.9028,-1.0533 -2.25766,-3.00908 -3.00976,-4.36328 -0.75253,-1.3542 -0.90141,-3.46094 -3.15821,-3.46094 -2.257,0 -1.65556,-1.05202 -3.00976,-2.857421 -1.3542,-1.8057 -3.61155,-3.009191 -3.31055,-0.150391 0.3009,2.858802 -0.1496,4.211272 -1.6543,3.609372 -1.5047,-0.6017 -1.95644,-1.05262 -3.31054,-1.20312 -1.3543,-0.1504 -1.20451,0.90268 -2.40821,0.30078 -1.2037,-0.6018 -1.20265,-0.60145 -2.40625,-0.75195 -1.2037,-0.1504 -1.65566,0.90222 -3.00976,1.20312 -1.3542,0.3009 -1.95645,1e-5 -3.31055,-0.15039 -1.354,-0.1505 -2.40729,-2.70704 -4.21289,-2.55664 -1.8057,0.1505 -1.8058,-1.203472 -4.0625,-0.451172 -2.257,0.7523 -1.50342,1.203352 -2.85742,0.751953 -1.3542,-0.4513 -7.1e-4,-1.35545 -2.40821,-1.65625 -2.4074,-0.3011 -5.26584,0.15165 -4.96484,1.65625 0.301,1.504599 -0.75359,2.257229 -1.05469,3.611329 -0.3008,1.3542 -1.20265,2.55676 -2.40625,2.25586 -1.2038,-0.3009 -1.65546,-0.7517 -3.00976,-1.6543 -1.354,-0.9029 -0.90152,-1.80677 -2.85742,-1.35547 -1.9561,0.4515 -3.16017,-0.14912 -3.00977,1.20508 0.1504,1.3542 -0.90304,1.80446 0.60156,2.25586 1.5047,0.4515 -0.45069,1.80652 -1.65429,2.10742 -1.2037,0.301 -2.40741,0.75174 -3.91211,1.05274 -1.5045,0.3009 -4.66476,0.75206 -7.22266,0.60156 -2.5578,-0.1505 -3.76266,-0.75195 -5.56836,-0.75195 -1.8055,0 -3.15786,0.14991 -3.91016,1.35351 -0.7524,1.2036 -1.95703,1.20439 -1.95703,2.70899 0,1.5047 -0.75116,0.60141 -2.25586,1.35351 -1.5046,0.7524 -4.51391,1.95589 -3.91211,4.21289 0,0 0.45016,2.55827 2.25586,3.00977 1.8056,0.4512 2.85847,1.20299 4.66407,1.80469 1.8054,0.6019 1.65535,1.65568 3.16015,2.70898 1.5046,1.0533 0.45189,1.80491 2.70899,1.50391 2.2568,-0.3008 3.1599,0.75252 4.0625,-0.45118 0.9028,-1.2037 1.80559,-1.95486 4.21289,-2.10546 2.4075,-0.1504 3.00781,-0.15118 3.00781,1.20312 0,1.354 0.90362,0.60157 2.10742,0.45117 1.2037,-0.1505 1.20288,0.15075 1.95508,-0.75195 0.7523,-0.9029 0.75344,-1.05262 1.80664,-1.35352 1.0532,-0.3008 2.85866,0.45131 4.66406,-0.15039 1.8057,-0.6019 2.25726,-0.75365 3.16016,-1.65625 0.9028,-0.9029 0.7524,-3.15834 4.0625,-2.55664 3.3102,0.602 3.30964,1.80412 4.96484,2.85742 1.655,1.0532 0.60065,2.25736 2.40625,3.16016 1.8055,0.9027 3.3116,1.50519 4.9668,2.55859 1.655,1.0532 1.65374,2.5579 2.55664,4.0625 0.9028,1.5047 1.35478,3.46048 2.85938,4.51368 1.5047,1.0532 -0.90351,2.70747 1.65429,1.95507 2.5577,-0.7522 3.46081,-1.80539 3.91211,-0.15039 0.4515,1.6551 -0.45014,5.11706 1.50586,5.56836 0.0685,0.0158 0.12073,0.012 0.18555,0.0234 0.19323,-1.438 0.46525,-2.94651 0.85937,-4.48633 -0.18472,-0.62733 -0.16499,-1.11713 0.4043,-1.4414 2.21529,-7.30276 7.22381,-14.68619 18.33594,-16.02344 4.7126,-0.5673 8.94301,-0.82391 12.72461,-0.87891 0.1485,-0.9653 0.418,-2.00395 0.8457,-3.16015 2.95,-7.974 10.62017,-6.73047 11.70117,-6.73047 0.69948,0 1.20756,-2.90266 4.01953,-6.24024 -0.62268,-0.20103 -1.08773,-0.25357 -2.13281,-0.33398 -1.956,-0.1504 -4.51482,-0.75149 -6.16992,-1.80469 -1.655,-1.0533 -5.41638,-5.868574 -8.42578,-6.921874 -3.0092,-1.0532 -3.30963,-1.202771 -5.26563,-2.105468 -1.7115,-0.789952 -8.03105,-4.461055 -8.07226,-4.458985 z m 174.52148,11.662107 c -1.42936,-0.0188 -2.97305,0.0928 -4.25195,0.16797 -2.5581,0.1505 -5.26481,1.50483 -3.1582,3.61133 2.1064,2.1065 3.91165,3.46045 4.81445,4.81445 0.9028,1.3542 0.60063,5.26779 -1.35547,5.11719 -1.9561,-0.1503 -1.50345,1.35421 -2.40625,-0.15039 -0.9028,-1.5047 -3.91156,0.75128 -4.66406,1.95508 -0.7522,1.2038 -3.0094,1.05328 -4.0625,0.30078 -1.0532,-0.7521 -5.11673,0.30067 -6.16993,0.45117 -1.05317,0.1504 -3.00885,1.80676 -4.81445,1.50586 -1.8055,-0.301 -6.92165,-0.60237 -7.22265,1.05273 -0.3007,1.655 0.15096,2.10706 -1.05274,3.16016 -1.2037,1.0532 -2.10706,2.55743 -3.00976,1.20313 -0.9028,-1.3541 -0.60085,-2.10744 -2.55664,-1.95704 -1.95621,0.1504 -2.70925,1.0539 -1.80665,2.5586 0.9028,1.5046 -2.10681,3.16001 -3.76171,3.91211 -1.655,0.7524 0.15165,2.55847 -2.55664,2.85937 -2.70822,0.301 -3.31125,3.15984 -1.65626,3.46094 1.6551,0.3009 1.95691,0.75036 2.40821,-0.15234 0.4515,-0.9026 2.10605,0.90375 0.75195,1.65625 -1.3542,0.7524 -4.21291,2.70863 -3.91211,3.46093 0.3008,0.7523 0.30078,0.90235 0.30078,0.90235 0,0 0.75322,2.25713 2.25782,3.61133 1.5046,1.3541 1.50321,4.81352 3.00781,2.85742 1.5048,-1.9559 3.46105,-1.80527 3.16015,-0.60157 -0.3009,1.20381 -3.61028,4.51484 -1.80468,6.01954 1.8054,1.5045 3.31008,1.95544 4.36328,0.90234 1.0534,-1.0532 2.1058,-3.00841 1.5039,-1.50391 -0.6019,1.5046 0.15039,2.85743 0.15039,2.85743 0,0 0.30214,1.35548 1.95704,1.05468 1.6552,-0.301 1.50378,1.20209 1.80468,-0.60351 0.3009,-1.8056 1.80675,-0.90178 1.65625,-1.95508 -0.1505,-1.0532 -4.6e-4,-1.05273 1.05274,-1.05273 1.0532,0 2.85936,0.14913 3.00976,-1.35547 0.1504,-1.5045 0.30007,-2.85742 2.10547,-3.00782 1.8056,-0.1505 2.40832,0.3001 2.10742,1.6543 -0.301,1.3541 0.90223,1.50507 1.20313,3.00977 0.3009,1.5045 0.30045,3.0093 0.75195,4.0625 0.4512,1.0533 1.80481,0.30124 1.50391,-0.75196 -0.3009,-1.0533 1.2e-4,-1.65532 -0.30078,-3.61132 -0.3009,-1.956 -1.05307,-1.05344 -0.45117,-3.46094 0.6019,-2.4074 1.957,-2.70794 2.4082,-1.05274 0.4516,1.6551 0.14936,3.30997 2.25586,4.51368 2.1064,1.2036 1.05379,1.35376 2.55859,0.60156 1.5046,-0.7523 3.00941,-0.75161 3.91211,-1.50391 0.9029,-0.7523 1.20402,-1.95785 3.76172,-4.06445 2.5579,-2.1064 1.35445,-1.35365 3.31055,-0.90235 1.9559,0.4516 -0.001,2.10742 3.1582,2.25782 3.1597,0.1504 2.55812,2.55779 3.76172,4.21289 1.2037,1.6548 1.0541,1.05274 2.4082,0.90234 1.3541,-0.1506 3.31008,0.75245 4.36328,-0.75195 1.0533,-1.5046 3.31043,-2.85823 3.61133,-1.20313 0.301,1.655 0.90202,3.46003 1.35352,1.20313 0.4513,-2.2569 1.05411,-2.5587 2.25781,-2.40821 1.2037,0.1504 2.25609,2.10683 1.80469,3.61133 -0.4513,1.5046 -0.90187,2.55802 -2.10547,3.76172 -1.2038,1.2037 -0.90291,2.5586 0.15039,2.5586 1.0532,0 1.65395,1.2038 2.40625,-0.15039 0.7522,-1.3542 2.85912,-2.55917 3.76172,-1.35547 0.9029,1.2039 0.15004,1.65627 0.90234,1.20507 0.7522,-0.4515 1.20461,2.2562 2.25781,1.6543 1.0533,-0.6017 0.9035,0.90255 2.5586,0.75195 1.6551,-0.1504 2.55676,1.6559 2.25586,2.5586 -0.301,0.9028 -4.8e-4,2.70854 1.20312,3.46094 1.2037,0.7523 3.16004,0.44999 3.46094,-0.75391 0.3009,-1.2037 0.9027,-0.75125 0,-2.40625 -0.9028,-1.655 -2.10581,0.14992 -1.50391,-2.85938 0.6018,-3.0091 0.75127,-3.61098 2.10547,-4.36328 1.3542,-0.7522 0.9027,-1.35455 0,-3.16015 -0.9027,-1.8055 -1.80549,-1.80401 -0.15039,-3.15821 1.655,-1.354 2.5586,-0.30216 2.55859,-1.50586 0,-1.2038 1.05352,-3.61089 -0.30078,-4.21289 -1.3541,-0.6019 0.60226,-1.95645 -0.90234,-3.16015 -1.5047,-1.2036 0.1497,-2.70689 -2.4082,-3.45899 -2.5578,-0.7525 -1.35453,-0.15189 -3.61133,-0.90429 -2.257,-0.7523 -1.35478,7.9e-4 -2.85938,-1.50391 -1.5046,-1.5047 -3.15971,-4.36234 -3.91211,-6.61914 -0.7522,-2.257 -1.35351,-7.37305 -1.35351,-7.37305 0,0 1.35455,-1.80573 3.16015,0.45117 1.80571,2.2571 3.15993,3.00909 3.61133,4.36329 0.4514,1.3542 -0.15143,4.51448 2.10547,2.70898 2.257,-1.8054 1.65647,-1.35466 1.35547,-3.16016 -0.3009,-1.8057 1.20383,-3.91175 -0.45117,-4.81445 -1.655,-0.9027 -0.90407,-1.6552 -1.35547,-4.0625 -0.4513,-2.4074 0.90372,-3.61154 2.10742,-3.46094 1.2036,0.1505 -0.001,1.5037 3.15821,1.6543 3.15979,0.1505 2.25722,2.10764 3.61132,1.80664 1.3543,-0.3009 2.5e-4,0.30065 3.31055,0.75195 3.3102,0.4514 3.01035,3.76137 1.65625,4.66407 -1.3542,0.9027 -1.80548,1.05307 -4.36328,4.51367 -2.5578,3.4605 0.29977,2.85971 2.10547,2.25781 1.8055,-0.6018 2.10694,0.75128 3.46093,-2.10742 1.3543,-2.8588 -10e-4,-3.00998 2.10547,-2.85938 2.1064,0.1504 4.21372,0.90406 6.32032,1.50586 2.1063,0.6019 3.7623,2.40763 2.4082,3.61133 -1.3541,1.2037 -1.65614,3.00872 -1.80664,4.96485 -0.1504,1.95599 0.60235,3.1599 3.31055,3.9121 2.7083,0.7525 3.15957,1.0532 4.51367,0.1504 1.3542,-0.90271 0.90223,-1.80584 1.05273,-3.46094 0.1504,-1.6549 1.2044,-2.85789 2.4082,-1.80469 1.20372,1.0533 3.15821,3.30951 3.15821,1.50391 0,-1.8057 -1.65477,-3.76126 -0.75195,-4.81446 0.90269,-1.0531 2.86017,-2.85891 1.20507,-3.91211 -1.6552,-1.0533 -2.85903,-1.05446 -3.61133,-1.50586 -0.75238,-0.4514 -0.75353,1.65658 -1.95703,1.20508 -1.2038,-0.4514 8.1e-4,-1.35513 -1.65429,-1.95703 -1.6552,-0.6019 -0.30134,-0.45093 -3.46094,-1.05273 -3.1597,-0.602 -2.25689,0.60226 -4.21289,-1.05274 -1.9561,-1.6552 -2.85835,-3.46048 -4.96485,-4.36328 -2.10649,-0.9028 0.90234,-1.20493 -3.00976,-1.95703 -3.9119,-0.7524 -3.15913,-1.50463 -5.26563,-3.61133 -2.1065,-2.1063 -10e-4,-1.35327 -5.71875,-2.10547 -5.7175,-0.7524 -4.66324,-1.35465 -6.61914,-3.16015 -1.9559,-1.8055 -3.00851,-1.95506 -5.41601,-2.25586 -2.4072,-0.3008 -8.57664,-1.35412 -7.52344,0.30078 1.0534,1.6552 3.00817,3.6095 -1.95703,3.1582 -4.9651,-0.4513 -5.8681,-1.3535 -8.125,-1.5039 -2.2569,-0.1504 -6.01861,-0.14947 -3.91211,-2.10547 2.1064,-1.9561 3.61191,-1.65578 2.25781,-2.85938 -1.3542,-1.2039 -1.35456,-0.45257 -3.00976,-1.35547 -0.82745,-0.45135 -2.14291,-0.60035 -3.57227,-0.61914 z m -13.67383,1.12696 c -0.28215,-0.0188 -0.43256,0.0955 -0.50781,0.54687 -0.1505,0.9028 -1.0532,1.20292 0,1.35352 0,0 1.20461,0.30101 2.25781,-0.15039 1.0532,-0.4514 0.75048,-1.35341 -0.45312,-1.50391 -0.60185,-0.0752 -1.01473,-0.22728 -1.29688,-0.24609 z m -35.71679,2.07031 c -0.37614,0.0188 -0.75143,0.28112 -1.95508,0.73242 -2.4075,0.9029 -2.40761,0.90246 -3.91211,0.60156 -1.5047,-0.301 -1.35341,0.45314 -1.50391,0.30274 0,0 -2.10642,1.65429 0.30078,1.65429 2.4075,0 1.50493,2.2e-4 3.61133,-0.30078 2.1066,-0.3009 1.95417,1.1e-4 3.75977,-0.15039 1.8055,-0.1504 4.06375,-1.05412 1.65625,-2.10742 -1.2036,-0.5266 -1.5809,-0.75125 -1.95703,-0.73242 z m 7.58789,1.02734 c -0.15605,-0.0194 -0.34639,0.15795 -0.51563,0.60938 0,0 0.45097,1.95555 0.75195,0.75195 0.18809,-0.75231 0.0237,-1.329 -0.23632,-1.36133 z m -232.16407,1.01367 c -0.39318,0.0203 -0.57007,0.19705 -0.51367,0.64844 0.1504,1.2036 -0.60234,1.6543 0.75196,1.6543 0,0 0.60318,-0.14936 1.05468,1.80664 0.4514,1.9559 1.05205,2.25667 2.40625,0.45117 1.3542,-1.8054 1.20335,-0.75322 0.90235,-2.10742 -0.3009,-1.3541 1.95655,-1.35329 -0.90235,-1.80469 -1.78675,-0.28206 -3.0439,-0.68221 -3.69922,-0.64844 z m 229.95899,2.07422 c -0.1528,0.002 -0.26563,0.078 -0.26563,0.22852 0,0 -0.30134,3.31135 0.75196,1.65625 0.78982,-1.24133 -0.0279,-1.89183 -0.48633,-1.88477 z m -5.77734,1.03711 c -0.0565,-0.0189 -0.28161,0.16888 -1.41016,0.39453 -2.2567,0.4516 -2.4075,0.90386 -4.0625,1.50586 -1.6552,0.6019 -2.25736,-0.1506 -3.16016,0 -0.9028,0.1504 -2.85766,0.30033 -2.25586,1.20313 0,0 -0.45241,2.2561 1.80469,1.80468 2.2568,-0.45129 1.05421,-0.90246 2.25781,-0.60156 1.2036,0.301 2.10513,-0.4514 2.70703,0 0.6018,0.4513 1.50541,0.90311 2.40821,-0.15039 0.9027,-1.0531 0.45039,-0.30043 1.80468,-1.05273 1.35421,-0.7523 1.20349,-1.05226 0.30079,-2.25586 -0.45135,-0.60185 -0.33808,-0.82881 -0.39453,-0.84766 z m -216.17579,0.7461 c -0.48047,-0.007 -0.47029,0.34517 0.65821,1.75586 0,0 1.35559,0.90198 0.90429,1.80468 -0.4513,0.9029 -0.15106,2.10767 1.05274,1.35547 1.2037,-0.7524 1.50378,-0.30215 1.95508,-1.65625 0.4516,-1.3543 -0.15006,-1.20255 -0.75196,-2.40625 -0.6018,-1.2037 -1.20449,-0.30076 -2.55859,-0.60156 -0.50783,-0.11284 -0.97148,-0.24754 -1.25977,-0.25195 z m 258.25391,0.21679 c -0.59458,0.0843 -0.51195,1.21949 0.14648,1.08789 0,0 1.05319,-0.75193 0.1504,-1.05273 -0.11289,-0.0376 -0.21194,-0.0472 -0.29688,-0.0352 z m 2.85742,1.11719 c -0.60062,-0.0596 -0.56789,1.3056 -0.30469,1.17383 0,0 1.50437,-0.45094 0.60157,-1.05274 -0.11284,-0.0752 -0.21107,-0.11257 -0.29688,-0.12109 z m -64.04492,0.18555 c -0.0936,-0.007 -0.1829,-0.005 -0.28516,0.006 -0.13633,0.0141 -0.29583,0.0425 -0.52148,0.0801 -0.9028,0.1506 -0.75368,0.75196 -1.20508,0.75196 0,0 10e-4,1.05252 1.95703,1.20312 1.9561,0.1505 1.05205,1.3556 2.40625,0.9043 1.3541,-0.4516 3.16073,-0.75346 1.95703,-1.50586 -1.2038,-0.7523 -1.35467,-0.60123 -2.85937,-1.05273 -0.84634,-0.25386 -1.16839,-0.36489 -1.44922,-0.38672 z m 58.95898,0.26172 c -0.24977,-0.0161 -0.48437,0.31276 -0.48437,0.87695 0,0 1.20334,0.30123 0.90234,-0.45117 -0.1128,-0.28212 -0.2681,-0.41612 -0.41797,-0.42578 z m -67.17968,1.45507 c -0.3738,0.005 -0.86302,0.0986 -1.46485,0.32422 -0.19667,0.0738 -0.37213,0.13105 -0.55273,0.19141 0.2388,0.31085 0.47596,0.63267 0.71289,0.95703 0.42601,0.0469 0.90188,0.0199 1.49609,-0.24414 1.01565,-0.45143 0.92998,-1.24259 -0.1914,-1.22852 z m -215.29883,5.82227 c -0.16456,0.0188 -0.37196,0.11276 -0.59766,0.30078 0,0 -0.90302,2.10614 0.30078,1.05273 0.9027,-0.7899 0.79056,-1.40991 0.29688,-1.35351 z m -3.46485,2.64844 c -0.23938,-0.0798 -0.50539,0.18628 -0.55859,0.77148 0,0 0.85053,2.12715 0.95703,0.53125 0.0532,-0.798 -0.15904,-1.22296 -0.39844,-1.30273 z m 3.6211,1.67773 c -0.11874,0.0153 -0.25845,0.051 -0.42774,0.10742 -1.3541,0.4513 -0.90372,2.25555 -2.10742,2.85742 -1.2037,0.6018 -1.50379,0.30183 -1.65429,2.10743 -0.1505,1.8056 -2.85938,1.5039 -2.85938,1.5039 -1.3541,0 -2.25667,0.60327 -0.45117,1.35547 1.8055,0.7522 1.35477,1.20291 2.85937,1.50391 1.5045,0.3008 0.45049,-0.75194 1.80469,-1.05274 1.3541,-0.301 1.95669,-1.20485 2.70899,-1.65625 0.7524,-0.4515 1.50358,-0.45103 1.80468,-1.05273 0.3009,-0.602 0.30123,-1.80584 -0.45117,-3.46094 -0.65817,-1.44821 -0.3954,-2.31988 -1.22656,-2.21289 z m -6.38867,0.48828 c -0.41139,-0.0382 -0.52878,0.40841 -0.0586,0.97266 0,0 2.10789,0.90292 1.05469,-0.30078 -0.39491,-0.45135 -0.74926,-0.64895 -0.99609,-0.67188 z m -3.21289,9.10547 c -0.34528,0 -0.75782,0.29297 -0.75782,0.29297 -0.301,1.354 1.35568,1.05309 1.20508,0.15039 -0.0564,-0.33859 -0.2401,-0.44336 -0.44726,-0.44336 z m 384.53906,8.02149 c -0.11019,0.008 -0.24677,0.0393 -0.41602,0.0957 -1.3543,0.4514 -1.65462,0.90209 -1.20312,1.80469 0,0 0.7522,0.75345 0,1.65625 -0.7523,0.9027 1.65429,1.80548 1.80469,0.30078 0.1505,-1.5045 1.20541,-0.60294 0.60351,-1.80664 -0.52675,-1.05315 -0.0177,-2.10634 -0.78906,-2.05078 z m -140.85742,0.31054 c -0.11992,0.0123 -0.0711,0.10465 0.21093,0.38672 0.7523,0.7524 0.7523,1.20291 0,1.50391 0,0 0.45266,0.90451 1.50586,0.60351 1.0532,-0.3008 1.35395,-0.15195 0.90235,-1.20508 -0.4512,-1.0533 0.45195,-1.35362 -0.90235,-1.20312 -0.84625,0.094 -1.51694,-0.10649 -1.71679,-0.0859 z m -105.69727,2.70313 c -1.5033,0.022 -2.88385,0.20531 -4.26172,0.42383 0.5694,0.81474 1.28998,1.3982 2.13867,1.17187 1.95823,-0.52214 2.89157,-0.36901 2.12305,-1.5957 z m -16.95312,0.48047 c -0.96852,-0.0104 -1.87607,0.12788 -2.72852,0.37304 -1.34407,0.75316 -0.42498,0.60359 -3.20508,1.79492 -3.1596,1.3544 -2.25586,4.81641 -2.25586,4.81641 0,0 -0.15005,0.75161 -0.75195,1.50391 -0.6018,0.7522 -0.90383,-0.30115 -1.95703,0.75195 -1.0532,1.0531 0.90223,1.05345 1.05273,3.31055 0.1505,2.2569 -0.14947,1.20269 2.10742,1.65429 2.2569,0.4512 1.95647,-0.30052 3.00977,-1.20312 1.0533,-0.9029 0.75174,-1.95657 1.05273,-3.00977 0.3009,-1.0533 0.45116,-2.85892 0.75196,-3.61132 0.301,-0.7522 1.054,-3.15842 2.4082,-3.00782 1.3542,0.1505 2.70738,-0.45184 1.95508,0.75196 -0.7523,1.2036 1.35467,0.60134 3.00976,0.90234 1.6549,0.3008 3.30929,-1.95633 1.80469,-3.61133 -0.28998,-0.31899 -0.46296,-0.60396 -0.58984,-0.8789 -1.24016,-0.0389 -2.61517,-0.16061 -4.1875,-0.41016 -0.50694,-0.0805 -0.99879,-0.12181 -1.47656,-0.12695 z m 22.38476,0.0898 c 0.0428,0.039 0.0737,0.0858 0.11914,0.12305 1.6551,1.3542 1.05398,2.85926 2.85938,3.00976 1.8057,0.1506 2.85868,2.55619 4.36328,3.45899 0.94218,0.56527 2.06092,1.89951 3.72656,2.85351 -1.71464,-4.11173 -4.96591,-8.00406 -11.06836,-9.44531 z m -15.33594,8.08203 c -0.0699,-0.007 -0.13694,-0.003 -0.19335,0.0156 0,0 -0.60018,1.80492 0.45312,1.20312 0.92155,-0.52666 0.22976,-1.1674 -0.25977,-1.21875 z m 160.40625,2.26953 c -0.27503,-0.0203 -0.50781,0.077 -0.50781,0.30274 0,0 1.05252,1.8071 1.35352,0.7539 0.188,-0.65831 -0.38731,-1.02282 -0.84571,-1.05664 z m -212.74609,1.34766 c -0.26888,-0.005 -0.5513,0.12242 -0.66406,0.46094 0,0 0.30023,0.90268 1.05273,0.30078 0.47013,-0.37619 0.0595,-0.7529 -0.38867,-0.76172 z m -1.56836,3.62109 c -0.1503,0.301 -0.14993,0.14971 -1.05273,1.50391 -0.9027,1.3541 -1.20405,1.50392 0.75195,1.5039 1.956,0 1.95612,0.30112 3.76172,-0.30078 1.8056,-0.6019 2.10638,-1.95506 0.30078,-2.25586 -1.8055,-0.301 -3.76172,-0.45117 -3.76172,-0.45117 z m 8.52344,2.31641 c -0.69819,0.0423 -1.37625,0.4654 -0.69922,1.14258 0,0 2.10797,-0.75184 1.35547,-1.05274 -0.18805,-0.0753 -0.42352,-0.10394 -0.65625,-0.0898 z m 161.12305,10.60351 c -0.18809,-0.0188 -0.52717,0.16971 -0.97852,0.47071 -0.9028,0.6018 -1.20312,1.05273 -1.20312,1.05273 0.15039,-0.1505 -0.30137,0.45096 1.05273,0.75195 1.3543,0.3008 0.90212,-0.4506 1.20312,-1.5039 0.1505,-0.52665 0.11387,-0.7527 -0.0742,-0.77149 z m -111.79297,24.82618 c -0.2633,-0.0188 -0.60249,0.0947 -0.67774,0.16992 0,0 0.45105,1.35387 0.90235,0.45117 0.22575,-0.45145 0.0387,-0.60229 -0.22461,-0.62109 z m 160.5664,449.46093 c 0.196,24.025 -17.50195,19.88282 -17.50195,19.88282 -3.147,25.682 -22.61719,15.32617 -22.61719,15.32617 0.983,21.954 -12.19336,23.19726 -12.19336,23.19726 -15.4488,1.5836 -21.75845,-14.37366 -23.46875,-19.88476 -0.0867,3.7324 -0.25043,7.35668 -0.51953,10.80078 -1.344,17.198 -10.55667,31.24414 -23.13867,31.24414 -7.90192,0 -14.47208,-5.54216 -18.60156,-13.92383 -0.0439,0.76956 -0.14166,1.41163 -0.32032,1.80469 -0.75229,1.655 -3.31019,3.76115 -4.0625,4.81445 -0.75219,1.0533 -5.41797,7.8231 -5.26757,9.7793 0.1504,1.956 0.75379,1.95564 0.90429,0.90234 0.1504,-1.0532 2.40602,-7.52331 3.00782,-7.97461 0.602,-0.4512 2.36263,-3.16444 2.89453,-3.58984 0.5321,-0.4257 0.79836,-1.0652 1.75586,-0.5332 0.9576,0.532 0.58493,1.59607 0.0527,2.23437 -0.532,0.6385 -1.54239,2.64201 -2.74609,3.8457 -1.2037,1.20372 -1.95703,2.40728 -1.95703,4.51368 0,2.1065 2.55872,0.60097 2.10742,2.10547 -0.4514,1.5047 -1.2045,2.70875 -2.4082,3.16015 -1.20381,0.4513 -3.16038,0.90281 -2.85938,-0.15039 0.301,-1.0533 0.60259,-1.35341 -1.50391,-1.50391 -2.1064,-0.15048 -0.75298,-0.15075 -2.70898,0.90235 -1.956,1.0533 -3.30859,1.05398 -3.30859,2.70898 0,1.6552 -0.75265,3.76125 0.75195,4.96485 1.5046,1.2038 1.20241,2.70795 3.00781,0.75195 1.8056,-1.9559 2.25724,-1.05378 3.46094,-2.85937 1.2039,-1.80562 1.20366,-2.55676 4.66406,-2.40626 3.4607,0.1505 6.01942,-3.31031 10.23242,-3.76171 4.2128,-0.4514 6.01896,-0.30195 7.22266,-1.95703 1.2038,-1.6551 1.6544,2.70945 5.7168,1.50585 4.0626,-1.2037 5.56674,-2.10753 9.02734,-1.95703 3.4606,0.1505 6.01861,0.6026 7.97461,2.5586 1.956,1.956 1.95624,2.10683 3.46094,3.46093 1.5046,1.3542 3.31042,1.05342 3.76172,-0.30078 0.4514,-1.3542 11.58469,-5.26724 13.84179,-5.86914 2.2569,-0.6018 7.82377,-3.15948 12.63867,-4.36328 4.8147,-1.2036 9.62994,-1.35351 15.64844,-1.35351 6.0185,0 2.5572,-0.6019 5.7168,-0.1504 3.1598,0.4513 2.25725,1.35352 7.37305,1.35352 5.1156,0 4.21392,1.50437 6.16992,0.45117 1.9561,-1.0532 2.25689,-1.20231 4.21289,-3.00781 1.9559,-1.8055 -0.75324,-1.50586 2.25586,-1.50586 3.0094,0 3.7614,-0.3001 4.0625,-1.6543 0.3008,-1.3541 0.30206,-3.76104 1.50586,-4.96484 1.2037,-1.2036 2.40693,-3.61236 5.11523,-1.50586 2.7084,2.1064 3.76033,3.6119 6.76953,2.4082 3.0092,-1.2037 6.62041,-0.45129 7.97461,-0.15039 1.3542,0.3011 3.91302,3.91209 6.16992,4.21289 2.2569,0.301 5.71805,0.45153 7.37305,-0.45117 1.655,-0.9027 4.81446,-1.20459 4.66406,-2.55859 -0.1505,-1.3542 8.125,0.15119 8.125,-1.50391 0,-1.655 4.06182,-0.75229 5.41602,-0.15039 1.3541,0.6018 1.95623,2.10638 3.61133,0.30078 0.98148,-1.0706 2.06926,-2.23547 3.16797,-2.95312 l -0.43555,-2.57617 -31.94336,-2.41016 27.28711,-31.91602 c -0.81569,-0.71209 -1.32378,-1.54789 -2.43945,-1.67187 -1.354,-0.1504 -1.80594,2.70715 -3.46094,2.40625 -1.6551,-0.301 -3.30997,0.45151 -4.51367,-0.15039 -1.2037,-0.6018 -1.95578,0.45129 -4.51368,0.15039 -2.5577,-0.301 -4.21416,-1.20266 -5.41796,-2.25586 -1.2036,-1.0531 -7.37256,-5.41682 -8.87696,-7.82422 -1.5047,-2.4073 -2.85868,-3.1597 -4.36328,-4.0625 -1.5047,-0.9027 -3.46003,-10e-4 -5.11523,-1.50586 -1.655,-1.5046 -4.21209,-9.02652 -5.86719,-10.98242 -1.04331,-1.23311 -2.38519,-2.52416 -3.6875,-3.38672 -1.90006,0.16578 -3.28516,-0.0606 -3.28516,-0.0606 z m 151.13282,17.40235 c -0.84636,-0.0757 -1.59862,0.18715 -1.82422,0.93945 -0.20646,0.68814 -0.61903,0.83402 -1.36133,0.85547 l -3.10352,13.11328 c 0.0324,0.009 0.0695,0.0167 0.10157,0.0254 3.3101,0.9028 6.16921,0.15063 7.82421,-0.45117 1.6551,-0.6018 8.27538,-3.31148 8.57618,-5.26758 0.3011,-1.956 3.76034,-3.00917 2.55664,-4.51367 -1.2036,-1.5047 -2.10512,-0.30032 -3.00782,-1.35352 -0.9029,-1.0531 -2.25745,-3.46139 -3.16015,-2.55859 -0.9027,0.9028 -3.00919,1.50633 -4.21289,0.30273 -0.60185,-0.60195 -1.54231,-1.01612 -2.38867,-1.09179 z m -99.32618,3.74023 c -0.23807,0.003 -0.48668,0.021 -0.75,0.0586 -2.1065,0.3007 -1.65428,3.46048 -1.80468,4.36328 -0.1506,0.9028 0.6011,-0.75161 1.5039,-1.50391 0.9028,-0.7523 2.55815,-0.60191 3.31055,0.15039 0.29764,0.29764 0.90362,0.3339 1.58984,0.31836 l 1.64844,-1.92773 c -0.3793,-0.0159 -0.7613,-0.0741 -1.13086,-0.19727 -1.57999,-0.52666 -2.70067,-1.28244 -4.36719,-1.26172 z M 614.1543,686.60547 c -0.14222,0.45855 -0.36747,1.07845 -0.57618,1.66601 0.2772,0.7536 0.49217,1.44421 0.70704,2.11914 -0.0491,-1.25387 -0.10099,-2.50283 -0.13086,-3.78515 z"
       style="display:inline;opacity:1;fill:#ffffff;fill-opacity:1;stroke:#f4c53d;stroke-width:1.51447403;stroke-miterlimit:0;stroke-dasharray:none;stroke-opacity:1"
       inkscape:connector-curvature="0" /><g
       clip-path="url(#clipPath4410)"
       id="g3450"><path
         id="path5"
         stroke-miterlimit="10"
         d="m 1885.935,1567.623 c 0,0 -1.033,-6.99 12.242,-12.116 13.275,-5.126 14.307,-24.232 11.652,-36.97 0,0 -6.932,12.116 -15.339,16.155 0,0 -13.717,7.146 -14.345,20.795 0,0 -0.109,4.99 -1.142,8.873 -0.565,2.126 -6.637,-17.087 4.867,-31.377 11.872,-14.748 15.192,-26.717 5.752,-50.017 0,0 -0.885,14.135 -10.177,22.213 -9.292,8.077 -10.474,8.699 -10.325,27.96 0,0 0.148,6.679 -3.392,8.854 0,0 -7.227,-10.563 -9.145,-17.553 -1.917,-6.99 -2.802,-9.941 5.457,-18.019 0,0 26.461,-17.1 7.375,-54.522 0,0 -0.59,12.893 -9.735,20.504 -9.145,7.611 -8.407,12.737 -8.85,25.941 -0.443,13.203 -1.328,12.271 -2.36,14.135 0,0 -16.814,-30.911 -3.835,-47.377 12.979,-16.466 20.207,-19.883 5.9,-50.483 0,0 0.635,15.689 -10.818,23.456 -11.453,7.767 -8.798,25.941 -8.798,25.941 0,0 0.737,6.835 -1.622,11.805 0,0 -16.202,-31.601 -0.737,-48.62 13.127,-14.446 14.012,-24.543 6.932,-45.047 0,0 -0.885,9.476 -8.112,14.601 -7.227,5.126 -12.979,10.252 -11.652,29.979 0,0 0.59,13.825 -1.18,17.708 0,0 -6.785,-12.582 -8.702,-20.815 -1.917,-8.233 -2.655,-13.048 2.36,-21.281 5.015,-8.233 24.927,-31.844 1.18,-65.861 0,0 -0.737,11.029 -6.785,20.97 -6.047,9.941 -3.245,21.747 -1.917,30.756 1.328,9.009 -3.097,17.708 -3.097,17.708 0,0 -10.325,-18.951 -8.112,-40.697 2.212,-21.747 -6.637,-39.61 -26.697,-52.503 0,0 -14.602,33.863 5.31,51.105 0,0 16.962,16.776 21.239,37.125 0,0 -12.832,-1.243 -24.484,-23.921 -11.652,-22.679 -35.841,-19.106 -37.464,-19.261 0,0 3.983,35.105 41.151,45.047 0,0 23.747,4.039 28.172,21.436 0,0 3.982,11.961 5.605,18.329 0,0 -7.522,-2.951 -14.455,-13.203 -6.932,-10.252 -6.047,-11.495 -29.499,-13.825 0,0 -9.44,-1.088 -14.455,-7.767 0,0 9.882,37.125 35.251,36.814 0,0 23.157,-2.485 36.136,27.96 0,0 -2.507,-1.553 -5.9,-3.884 -3.392,-2.33 -11.947,-6.679 -28.909,-4.66 -16.962,2.019 -21.682,-0.777 -25.959,-2.175 0,0 17.109,31.377 41.299,22.057 24.189,-9.32 35.872,24.665 36.136,25.319 0,0 -3.245,-2.486 -7.522,-6.68 -4.277,-4.194 -13.157,-9.366 -29.942,-4.039 0,0 -12.094,4.66 -24.337,0.932 0,0 11.8,22.834 39.381,18.951 27.581,-3.884 34.514,20.349 34.514,20.349 0,0 -3.687,-2.175 -6.195,-4.194 -2.507,-2.019 -11.8,-7.301 -31.711,-1.398 -19.912,5.903 -27.139,-0.932 -27.139,-0.932 0,0 11.062,20.193 32.301,22.523 0,0 11.8,-0.155 16.814,-2.019 5.015,-1.864 18.289,-4.815 27.434,8.388 0,0 -2.507,0.466 -6.342,-1.243 0,0 -14.159,-5.126 -24.927,3.883 0,0 -9.587,9.786 -23.157,7.922 0,0 17.552,17.087 45.428,2.641 0,0 9.44,-6.835 16.372,-1.553 6.934,5.285 23.011,-5.123 23.011,-5.123 z"
         inkscape:connector-curvature="0"
         style="fill:#369443;stroke:#010002;stroke-width:3;stroke-miterlimit:10" /><path
         id="path7"
         stroke-miterlimit="10"
         d="m 2041.1,1146.669 c 0,0 -3.238,-28.908 19.863,-31.688 24.091,-2.9 35.989,2.175 35.989,2.175 l 10.816,21.229 -3.737,14.291 -14.946,6.835 c 0,0 2.557,-21.954 -17.568,-22.411 -5.099,-0.116 -8.096,1.906 -16.161,0.626 -8.111,-1.288 -12.449,7.625 -14.256,8.943 z"
         inkscape:connector-curvature="0"
         style="fill:#f4c53d;stroke:#010002;stroke-width:3;stroke-miterlimit:10" /><path
         id="path9"
         stroke-miterlimit="10"
         d="m 2203.639,1218.226 c -3.442,4.453 -17.208,6.006 -17.208,6.006 0,0 14.159,10.873 20.256,26.407 6.097,15.533 -164.113,0.103 -164.113,0.103 0,0 7.375,-5.281 12.39,-15.223 0,0 -7.522,2.796 -15.044,-4.66 0,0 5.605,1.864 12.979,-9.32 0,0 10.915,-13.98 18.584,-17.708 0,0 -3.54,2.175 -12.094,-2.485 0,0 14.75,-1.864 20.059,-27.028 0,0 0.885,-5.592 6.49,-13.669 5.605,-8.078 4.425,1.553 14.75,-10.874 0,0 4.72,-8.802 0.59,-14.187 -4.13,-5.385 -8.555,-3.417 -17.208,-8.595 -8.653,-5.178 -12.488,-8.078 -9.538,-16.051 2.95,-7.974 10.62,-6.731 11.701,-6.731 1.082,0 1.672,-6.938 11.112,-11.702 9.44,-4.764 34.514,-2.693 38.25,-0.621 3.737,2.071 18.879,6.524 27.729,28.892 8.85,22.368 -2.36,30.756 21.731,64.515 0,0 -9.636,2.071 -15.831,0.207 0,0 12.487,22.161 34.415,32.724 z"
         inkscape:connector-curvature="0"
         style="fill:#f4c53d;stroke:#010002;stroke-width:3;stroke-miterlimit:10" /><path
         id="path11"
         stroke-miterlimit="10"
         d="m 2098.328,1123.835 c -19.617,-0.932 -12.094,-19.624 -12.094,-19.624"
         inkscape:connector-curvature="0"
         style="fill:none;stroke:#010002;stroke-width:3;stroke-miterlimit:10" /><path
         id="path13"
         stroke-miterlimit="10"
         d="m 2132.399,1126.398 c 0,0 -3.466,-1.631 -6.398,-5.514 -4.115,-5.449 -13.292,-8.077 -18.233,-2.951 0,0 -5.015,5.592 -9.44,5.903 0,0 5.015,1.553 8.481,4.738 3.466,3.184 7.08,5.514 12.242,4.815 5.162,-0.699 5.974,-3.417 8.407,-5.048 2.434,-1.633 4.941,-1.943 4.941,-1.943 z"
         inkscape:connector-curvature="0"
         style="fill:#f4c53d;stroke:#010002;stroke-width:3;stroke-miterlimit:10" /><path
         id="path15"
         d="m 2259.981,1405.765 c 0,0 18.29,14.912 33.629,0 0,0 6.195,7.456 18.584,5.281 12.39,-2.175 14.455,-8.699 15.635,-12.427 0,0 10.718,6.253 19.764,1.314 9.047,-4.939 9.047,-12.394 9.047,-12.394 0,0 15.733,3.101 23.796,-7.562 8.063,-10.663 3.147,-21.226 -1.18,-22.469 0,0 17.01,4.456 21.633,-10.148 3.933,-12.427 -4.917,-18.847 -4.917,-18.847 0,0 35.841,-0.172 50.542,-11.391 0,0 12.193,-7.663 4.917,-15.74 0,0 32.252,-5.178 40.315,-18.019 0,0 3.54,-3.521 2.36,-9.734 0,0 -0.197,-3.521 -3.737,-3.728 0,0 36.78,-5.681 47.395,-17.812 0,0 5.113,-5.592 2.557,-13.048 0,0 -0.541,-1.968 -1.426,-3.288 0,0 33.481,-7.068 50,-21.98 0,0 9.536,-8.496 4.62,-19.887 0,0 55.951,-15.322 42.972,-39.968 0,0 26.156,-8.492 17.896,-32.102 0,0 21.633,-10.977 12.193,-28.374 -9.034,-16.65 -36.775,2.899 -69.624,11.988 0,0 -88.884,27.985 -132.656,35.432 l -124.372,185.167 -72.568,27.96 -7.375,51.776 z"
         inkscape:connector-curvature="0"
         style="fill:#f4c53d;stroke:#010002;stroke-width:3" /><path
         id="path17"
         d="m 2259.097,1269.382 c 0,0 11.657,-8.751 32.449,1.553 0,0 7,4.82 12.507,-0.461 4.601,-4.413 5.032,-12.549 -1.297,-17.247 -15.487,-11.495 -21.24,-45.979 2.36,-60.269 0,0 34.219,-20.297 159.696,-52.229 0,0 10.513,-2.915 16.118,-1.517 6.172,1.539 10.423,6.835 11.295,11.366 0,0 5.615,15.956 -13.262,25.086 0,0 -8.522,3.9 -17.306,6.421 0,0 9.648,-2.086 13.766,7.456 3.933,9.113 -1.77,18.433 -19.469,24.439 0,0 -4.787,1.863 -11.603,3.521 0,0 15.143,4.349 7.866,16.569 0,0 -6.49,12.841 -29.401,15.119 0,0 17.109,1.864 5.015,18.122 0,0 -5.31,8.906 -22.026,12.22 0,0 12.685,0.414 6.293,11.805 -6.391,11.391 -21.432,17.812 -36.232,18.847 0,0 -8.016,0.414 -13.621,-0.829 0,0 14.061,7.042 5.801,18.847 0,0 -6.096,8.388 -21.337,7.974 0,0 3.956,13.183 -7.227,18.174 -8.702,3.883 -15.929,-2.33 -15.929,-2.33 0,0 2.95,14.135 -9.735,19.106 0,0 -6.342,3.262 -15.782,0 0,0 -7.227,16.155 -32.891,4.815 -25.666,-11.338 -6.048,-106.558 -6.048,-106.558 z"
         inkscape:connector-curvature="0"
         style="fill:#f4c53d;stroke:#010002;stroke-width:3" /><path
         id="path19"
         d="M 2193.461,1317.07"
         inkscape:connector-curvature="0"
         style="fill:#f6e200;stroke:#010002;stroke-width:3" /><path
         id="path21"
         d="m 2654.383,1121.815 c 0,0 -40.315,23.342 -165.869,46.684"
         inkscape:connector-curvature="0"
         style="fill:none;stroke:#010002;stroke-width:3" /><path
         id="path23"
         d="m 1934.384,1534.589 c 0,0 -14.946,25.682 -33.039,26.096 0,0 -31.122,-3.788 -39.922,4.349 -6.136,5.675 -12.39,10.356 -14.946,24.854 -2.556,14.498 4.916,17.605 6.686,18.226 0,0 1.377,10.356 11.603,7.663 0,0 0.59,10.77 18.683,5.592 18.093,-5.178 25.566,-3.521 29.106,-21.54 3.54,-18.019 6.808,-17.724 10.03,-19.883 4.327,-2.9 12.455,-5.64 18.486,-9.113 5.418,-3.12 26.156,-13.67 33.235,-14.498 7.08,-0.828 5.506,-24.646 5.506,-24.646 l -18.289,0 -8.85,-13.048 -18.289,15.948 z"
         inkscape:connector-curvature="0"
         style="fill:#f4c53d;stroke:#010002;stroke-width:3" /><path
         id="path25"
         d="m 2636.487,1153.918 c 0,0 -109.115,35.594 -159.93,39.968"
         inkscape:connector-curvature="0"
         style="fill:none;stroke:#010002;stroke-width:3" /><path
         id="path27"
         d="m 2593.515,1193.886 c 0,0 -64.011,20.094 -138.971,32.774"
         inkscape:connector-curvature="0"
         style="fill:none;stroke:#010002;stroke-width:3" /><path
         id="path29"
         d="m 2538.894,1235.753 c 0,0 -72.322,17.372 -106.849,20.255"
         inkscape:connector-curvature="0"
         style="fill:none;stroke:#010002;stroke-width:3" /><path
         id="path31"
         stroke-miterlimit="10"
         d="m 2490.368,1269.9 c 0,0 -61.173,12.758 -76.672,14.292"
         inkscape:connector-curvature="0"
         style="fill:none;stroke:#010002;stroke-width:3;stroke-miterlimit:10" /><polygon
         id="polygon33"
         stroke-miterlimit="10"
         points="2367.128,1564.783 2394.904,1446.772 2394.904,1446.772 2375.536,1447.128 2375.536,1447.128 2421.511,1362.939 2424.574,1460.005 2424.574,1460.005 2407.435,1450.062 2407.435,1450.062 2378.901,1573.241 "
         style="fill:#0081c6;stroke:#010002;stroke-width:3;stroke-miterlimit:10" /><path
         id="path35"
         stroke-miterlimit="10"
         d="m 2451.43,1301.381 c 0,0 -44.642,6.783 -62.409,6.42"
         inkscape:connector-curvature="0"
         style="fill:none;stroke:#010002;stroke-width:3;stroke-miterlimit:10" /><path
         id="path37"
         stroke-miterlimit="10"
         d="m 2395.972,1328.513 c 0,0 -18.05,-0.848 -26.724,-2.288"
         inkscape:connector-curvature="0"
         style="fill:none;stroke:#010002;stroke-width:3;stroke-miterlimit:10" /><path
         id="path39"
         stroke-miterlimit="10"
         d="m 2379.255,1357.509 c 0,0 -15.34,-4.142 -24.386,-9.941"
         inkscape:connector-curvature="0"
         style="fill:none;stroke:#010002;stroke-width:3;stroke-miterlimit:10" /><path
         id="path41"
         stroke-miterlimit="10"
         d="m 2356.64,1387.54 c 0,0 -11.8,-4.556 -17.503,-16.983"
         inkscape:connector-curvature="0"
         style="fill:none;stroke:#010002;stroke-width:3;stroke-miterlimit:10" /><path
         id="path43"
         stroke-miterlimit="10"
         d="m 2327.829,1398.62 c 0,0 -9.145,-8.181 -9.735,-17.294"
         inkscape:connector-curvature="0"
         style="fill:none;stroke:#010002;stroke-width:3;stroke-miterlimit:10" /><polygon
         id="polygon45"
         stroke-miterlimit="10"
         points="2386.188,1566.883 2471.506,1466.967 2471.506,1466.967 2454.247,1457.705 2454.247,1457.705 2532.37,1406.102 2491.805,1493.32 2491.805,1493.32 2481.104,1476.067 2481.104,1476.067 2395.461,1577.264 "
         style="fill:#0081c6;stroke:#010002;stroke-width:3;stroke-miterlimit:10" /><path
         id="path47"
         stroke-miterlimit="10"
         d="m 2293.61,1405.765 c 0,0 3.424,-2.953 1.082,-15.792"
         inkscape:connector-curvature="0"
         style="fill:none;stroke:#010002;stroke-width:3;stroke-miterlimit:10" /><polygon
         id="polygon49"
         stroke-miterlimit="10"
         points="2371.898,1562.89 2449.065,1415.802 2449.065,1415.802 2430.27,1410.867 2430.27,1410.867 2495.369,1342.078 2474.473,1436.672 2474.473,1436.672 2460.361,1422.396 2460.361,1422.396 2383.71,1569.785 "
         style="fill:#0081c6;stroke:#010002;stroke-width:3;stroke-miterlimit:10" /><path
         id="path51"
         stroke-miterlimit="10"
         d="m 2298.035,1371.126 c 0,0 1.77,-3.676 1.18,-9.475"
         inkscape:connector-curvature="0"
         style="fill:none;stroke:#010002;stroke-width:3;stroke-miterlimit:10" /><path
         id="path53"
         d="m 1991.986,1405.766 c 0,0 -18.289,14.912 -33.629,0 0,0 -6.195,7.456 -18.584,5.281 -12.389,-2.175 -14.455,-8.699 -15.635,-12.427 0,0 -10.718,6.253 -19.764,1.314 -9.047,-4.939 -9.047,-12.395 -9.047,-12.395 0,0 -15.733,3.101 -23.796,-7.562 -8.063,-10.663 -3.147,-21.226 1.18,-22.469 0,0 -17.01,4.456 -21.633,-10.148 -3.933,-12.427 4.917,-18.847 4.917,-18.847 0,0 -35.841,-0.172 -50.542,-11.391 0,0 -12.193,-7.663 -4.916,-15.74 0,0 -32.252,-5.178 -40.315,-18.019 0,0 -3.54,-3.521 -2.36,-9.734 0,0 0.197,-3.521 3.736,-3.728 0,0 -36.78,-5.681 -47.395,-17.812 0,0 -5.113,-5.592 -2.557,-13.048 0,0 0.541,-1.968 1.426,-3.288 0,0 -33.481,-7.068 -50.001,-21.98 0,0 -9.536,-8.496 -4.62,-19.887 0,0 -55.952,-15.322 -42.972,-39.968 0,0 -26.156,-8.492 -17.896,-32.102 0,0 -21.633,-10.977 -12.193,-28.374 9.034,-16.65 36.776,2.899 69.624,11.988 0,0 88.884,27.985 132.656,35.432 l 124.372,185.167 72.568,27.96 7.376,51.777 z"
         inkscape:connector-curvature="0"
         style="fill:#f4c53d;stroke:#010002;stroke-width:3" /><path
         id="path55"
         stroke-miterlimit="10"
         d="m 2362.54,1187.263 c 0,0 -20.649,8.285 -27.532,19.676 -6.883,11.391 -2.35,22.462 0,28.814 1.181,3.192 15.733,31.248 -1.377,51.545"
         inkscape:connector-curvature="0"
         style="fill:none;stroke:#010002;stroke-width:3;stroke-miterlimit:10" /><path
         id="path57"
         d="m 1992.871,1269.383 c 0,0 -11.657,-8.751 -32.449,1.553 0,0 -7,4.82 -12.506,-0.461 -4.601,-4.413 -5.033,-12.549 1.297,-17.247 15.487,-11.495 21.239,-45.979 -2.36,-60.269 0,0 -34.219,-20.297 -159.696,-52.229 0,0 -10.513,-2.915 -16.118,-1.517 -6.172,1.539 -10.423,6.835 -11.295,11.366 0,0 -5.615,15.956 13.262,25.086 0,0 8.522,3.9 17.306,6.421 0,0 -9.648,-2.086 -13.766,7.456 -3.933,9.113 1.77,18.433 19.469,24.439 0,0 4.787,1.863 11.603,3.521 0,0 -15.143,4.349 -7.866,16.569 0,0 6.49,12.841 29.401,15.119 0,0 -17.109,1.864 -5.015,18.122 0,0 5.31,8.906 22.026,12.22 0,0 -12.685,0.414 -6.293,11.805 6.391,11.391 21.432,17.812 36.233,18.847 0,0 8.016,0.414 13.621,-0.828 0,0 -14.061,7.042 -5.801,18.847 0,0 6.096,8.388 21.338,7.974 0,0 -3.956,13.184 7.227,18.174 8.702,3.883 15.929,-2.33 15.929,-2.33 0,0 -2.95,14.135 9.735,19.106 0,0 6.342,3.262 15.782,0 0,0 7.227,16.155 32.891,4.815 25.662,-11.34 6.045,-106.559 6.045,-106.559 z"
         inkscape:connector-curvature="0"
         style="fill:#f4c53d;stroke:#010002;stroke-width:3" /><path
         id="path59"
         stroke-miterlimit="10"
         d="m 2362.245,1309.355 c 0,0 -0.098,-0.104 -7.375,-2.382"
         inkscape:connector-curvature="0"
         style="fill:none;stroke:#010002;stroke-width:3;stroke-miterlimit:10" /><path
         id="path61"
         stroke-miterlimit="10"
         d="m 2405.805,1279.531 c 0,0 -12.308,2.478 -24.386,2.589"
         inkscape:connector-curvature="0"
         style="fill:none;stroke:#010002;stroke-width:3;stroke-miterlimit:10" /><path
         id="path63"
         stroke-miterlimit="10"
         d="m 2422.816,1249.189 c 0,0 -14.455,1.45 -28.024,1.243"
         inkscape:connector-curvature="0"
         style="fill:none;stroke:#010002;stroke-width:3;stroke-miterlimit:10" /><path
         id="path65"
         stroke-miterlimit="10"
         d="m 2444.35,1217.501 c 0,0 -20.846,4.142 -32.056,4.349"
         inkscape:connector-curvature="0"
         style="fill:none;stroke:#010002;stroke-width:3;stroke-miterlimit:10" /><path
         id="path67"
         stroke-miterlimit="10"
         d="m 2461.656,1182.085 c 0,0 -25.709,7.338 -44.839,9.941"
         inkscape:connector-curvature="0"
         style="fill:none;stroke:#010002;stroke-width:3;stroke-miterlimit:10" /><path
         id="path69"
         stroke-miterlimit="10"
         d="m 2374.339,1207.145 c 0,0 18.486,17.19 -3.737,33.138 0,0 9.243,14.498 -9.243,29.617"
         inkscape:connector-curvature="0"
         style="fill:none;stroke:#010002;stroke-width:3;stroke-miterlimit:10" /><path
         id="path71"
         d="m 1994.394,1416.2 c 0,0 -3.766,20.218 -33.627,45.666 0,0 -23.04,20.324 -22.45,43.727 0.601,23.832 -4.13,26.51 -13.176,34.588 0,0 18.683,1.45 27.729,-10.977 0,0 -0.393,20.711 -3.147,22.575 0,0 5.859,0.374 14.356,-8.906 0,0 5.113,-5.385 9.833,-7.456 0,0 -5.506,14.291 -1.18,27.546 0,0 1.377,-5.178 8.653,-7.456 0,0 13.176,-2.693 18.29,-21.747 0,0 3.343,-12.634 23.992,-23.818 0,0 23.402,-8.827 22.813,-20.361 -0.589,-11.534 -52.086,-73.381 -52.086,-73.381 z"
         inkscape:connector-curvature="0"
         style="fill:#f4c53d;stroke:#010002;stroke-width:3" /><path
         id="path73"
         stroke-miterlimit="10"
         d="m 2366.276,1277.046 c 0,0 2.753,27.646 -31.072,27.648 0,0 6.49,24.647 -26.156,23.819 0,0 -3.737,19.675 -27.336,15.74"
         inkscape:connector-curvature="0"
         style="fill:none;stroke:#010002;stroke-width:3;stroke-miterlimit:10" /><path
         id="path75"
         d="m 2317.618,1534.589 c 0,0 14.946,25.682 33.039,26.096 0,0 31.122,-3.788 39.922,4.349 6.136,5.675 12.39,10.356 14.946,24.854 2.557,14.498 -4.917,17.604 -6.687,18.226 0,0 -1.377,10.356 -11.603,7.663 0,0 -0.59,10.77 -18.683,5.592 -18.093,-5.178 -25.566,-3.521 -29.106,-21.54 -3.54,-18.019 -6.808,-17.724 -10.03,-19.883 -4.327,-2.9 -12.455,-5.64 -18.486,-9.113 -5.418,-3.12 -26.156,-13.669 -33.235,-14.498 -7.08,-0.828 -5.507,-24.646 -5.507,-24.646 l 18.289,0 8.85,-13.048 18.291,15.948 z"
         inkscape:connector-curvature="0"
         style="fill:#f4c53d;stroke:#010002;stroke-width:3" /><path
         id="path77"
         d="m 2257.608,1416.2 c 0,0 3.766,20.218 33.627,45.666 0,0 23.04,20.324 22.45,43.727 -0.601,23.832 4.13,26.51 13.176,34.588 0,0 -18.683,1.45 -27.729,-10.977 0,0 0.393,20.711 3.147,22.575 0,0 -5.86,0.374 -14.356,-8.906 0,0 -5.113,-5.385 -9.833,-7.456 0,0 5.506,14.291 1.18,27.546 0,0 -1.377,-5.178 -8.653,-7.456 0,0 -13.176,-2.692 -18.29,-21.747 0,0 -3.343,-12.634 -23.992,-23.818 0,0 -23.403,-8.827 -22.813,-20.361 0.59,-11.534 52.086,-73.381 52.086,-73.381 z"
         inkscape:connector-curvature="0"
         style="fill:#f4c53d;stroke:#010002;stroke-width:3" /><path
         id="path79"
         d="m 2333.695,1560.685 c 0,0 5.352,1.191 16.962,0"
         inkscape:connector-curvature="0"
         style="fill:none;stroke:#010002;stroke-width:3" /><path
         id="path81"
         stroke-miterlimit="10"
         d="m 2383.303,1575.183 c 0,0 16.323,-2.485 15.536,32.931"
         inkscape:connector-curvature="0"
         style="fill:none;stroke:#010002;stroke-width:3;stroke-miterlimit:10" /><path
         id="path83"
         stroke-miterlimit="10"
         d="m 2373.47,1583.26 c 0,0 14.75,-1.864 13.766,32.517"
         inkscape:connector-curvature="0"
         style="fill:none;stroke:#010002;stroke-width:3;stroke-miterlimit:10" /><path
         id="path85"
         d="m 2231.088,1500.416 c 0,0 7.08,1.45 11.997,7.042 4.916,5.592 14.356,4.556 14.356,4.556 0,0 -5.113,-4.142 -6.883,-14.498 -1.77,-10.356 -7.473,-13.462 -7.473,-13.462"
         inkscape:connector-curvature="0"
         style="fill:none;stroke:#010002;stroke-width:3" /><path
         id="path87"
         d="m 2259.974,1474.247 c 0,0 7.08,1.45 11.996,7.042 4.916,5.592 14.356,4.556 14.356,4.556 0,0 -5.113,-4.142 -6.883,-14.498 -1.77,-10.356 -7.473,-13.462 -7.473,-13.462"
         inkscape:connector-curvature="0"
         style="fill:none;stroke:#010002;stroke-width:3" /><path
         id="path89"
         d="m 2264.842,1514.447 c 0,0 6.182,1.266 10.474,6.149 4.293,4.882 12.535,3.978 12.535,3.978 0,0 -4.465,-3.617 -6.01,-12.658 -1.545,-9.042 -6.525,-11.754 -6.525,-11.754"
         inkscape:connector-curvature="0"
         style="fill:none;stroke:#010002;stroke-width:3" /><path
         id="path91"
         stroke-miterlimit="10"
         d="m 2149.136,1676.875 c 0,0 5.361,23.657 23.993,21.747 0,0 13.176,-1.243 12.193,-23.197 0,0 19.469,10.356 22.616,-15.326 0,0 17.699,4.142 17.503,-19.883 0,0 16.52,2.9 14.553,-18.433 0,0 17.896,4.763 17.896,-15.326 0,0 41.888,-6.947 -45.428,-86.573 l -77.877,46.393 14.551,110.598 z"
         inkscape:connector-curvature="0"
         style="fill:#f4c53d;stroke:#010002;stroke-width:3;stroke-miterlimit:10" /><path
         id="path93"
         d="m 2140.483,1570.709 c 0,0 12.979,11.516 22.222,-5.675 0,0 12.586,-0.621 14.553,-10.148 0,0 10.227,-1.036 12.193,-10.77 0,0 13.963,-1.45 13.57,-13.255 0,0 25.385,-1.96 0.01,-30.7 -25.377,-28.741 -68.446,47.684 -68.446,47.684 l 5.9,22.864 z"
         inkscape:connector-curvature="0"
         style="fill:#f4c53d;stroke:#010002;stroke-width:3" /><path
         id="path95"
         stroke-miterlimit="10"
         d="m 2185.322,1675.425 c 0,0 -1.967,-41.63 -38.047,-101.278"
         inkscape:connector-curvature="0"
         style="fill:none;stroke:#010002;stroke-width:3;stroke-miterlimit:10" /><path
         id="path97"
         stroke-miterlimit="10"
         d="m 2207.938,1660.099 c 0,0 5.605,-24.025 -45.232,-95.064 0,0 5.9,-16.983 -12.193,-27.857"
         inkscape:connector-curvature="0"
         style="fill:none;stroke:#010002;stroke-width:3;stroke-miterlimit:10" /><path
         id="path99"
         stroke-miterlimit="10"
         d="m 2225.44,1640.216 c 0,0 1.573,-25.993 -48.181,-85.33 0,0 4.395,-15.326 -13.634,-27.546"
         inkscape:connector-curvature="0"
         style="fill:none;stroke:#010002;stroke-width:3;stroke-miterlimit:10" /><path
         id="path101"
         stroke-miterlimit="10"
         d="m 2239.993,1621.783 c 0,0 -1.868,-26.303 -50.542,-77.667 0,0 2.435,-15.74 -15.007,-25.475"
         inkscape:connector-curvature="0"
         style="fill:none;stroke:#010002;stroke-width:3;stroke-miterlimit:10" /><path
         id="path103"
         stroke-miterlimit="10"
         d="m 2257.889,1606.457 c 0,0 -3.54,-30.031 -54.868,-75.596 0,0 1.77,-11.805 -15.34,-23.818"
         inkscape:connector-curvature="0"
         style="fill:none;stroke:#010002;stroke-width:3;stroke-miterlimit:10" /><path
         id="path105"
         stroke-miterlimit="10"
         d="m 2102.865,1676.875 c 0,0 -5.361,23.657 -23.992,21.747 0,0 -13.176,-1.243 -12.193,-23.197 0,0 -19.469,10.356 -22.616,-15.326 0,0 -17.699,4.142 -17.503,-19.883 0,0 -16.52,2.9 -14.553,-18.433 0,0 -17.896,4.764 -17.896,-15.326 0,0 -41.888,-6.947 45.428,-86.573 l 77.877,46.393 -14.552,110.598 z"
         inkscape:connector-curvature="0"
         style="fill:#f4c53d;stroke:#010002;stroke-width:3;stroke-miterlimit:10" /><path
         id="path107"
         d="m 2111.519,1570.709 c 0,0 -12.979,11.516 -22.223,-5.674 0,0 -12.586,-0.621 -14.552,-10.148 0,0 -10.227,-1.036 -12.193,-10.77 0,0 -13.963,-1.45 -13.57,-13.255 0,0 -25.385,-1.96 -0.01,-30.7 25.377,-28.741 68.446,47.683 68.446,47.683 l -5.9,22.864 z"
         inkscape:connector-curvature="0"
         style="fill:#f4c53d;stroke:#010002;stroke-width:3" /><path
         id="path109"
         stroke-miterlimit="10"
         d="m 2066.68,1675.425 c 0,0 1.966,-41.63 38.047,-101.278"
         inkscape:connector-curvature="0"
         style="fill:none;stroke:#010002;stroke-width:3;stroke-miterlimit:10" /><path
         id="path111"
         stroke-miterlimit="10"
         d="m 2044.064,1660.099 c 0,0 -5.605,-24.025 45.232,-95.064 0,0 -5.9,-16.983 12.193,-27.856"
         inkscape:connector-curvature="0"
         style="fill:none;stroke:#010002;stroke-width:3;stroke-miterlimit:10" /><path
         id="path113"
         d="m 2126.001,1563.585 c 12.582,0 26.839,78.599 23.139,125.953 -1.344,17.198 -10.557,31.245 -23.139,31.245 -12.582,0 -21.795,-14.047 -23.139,-31.245 -3.7,-47.354 10.557,-125.953 23.139,-125.953"
         inkscape:connector-curvature="0"
         style="fill:#f4c53d;stroke:#010002;stroke-width:3" /><path
         id="path115"
         stroke-miterlimit="10"
         d="m 2026.561,1640.216 c 0,0 -1.573,-25.993 48.182,-85.33 0,0 -4.395,-15.326 13.634,-27.546"
         inkscape:connector-curvature="0"
         style="fill:none;stroke:#010002;stroke-width:3;stroke-miterlimit:10" /><path
         id="path117"
         stroke-miterlimit="10"
         d="m 2012.008,1621.783 c 0,0 1.868,-26.303 50.542,-77.667 0,0 -2.435,-15.74 15.007,-25.475"
         inkscape:connector-curvature="0"
         style="fill:none;stroke:#010002;stroke-width:3;stroke-miterlimit:10" /><ellipse
         id="ellipse119"
         cx="2126.001"
         cy="1562.963"
         rx="17.41"
         ry="25.785"
         style="fill:#f4c53d;stroke:#010002;stroke-width:3" /><path
         id="path121"
         stroke-miterlimit="10"
         d="m 1994.112,1606.457 c 0,0 3.54,-30.031 54.868,-75.596 0,0 -1.77,-11.805 15.34,-23.818"
         inkscape:connector-curvature="0"
         style="fill:none;stroke:#010002;stroke-width:3;stroke-miterlimit:10" /><path
         id="path123"
         d="m 2126.001,1557.331 c 0,0 147.66,-65.433 148.029,-216.805 l -296.058,0 c 0.369,151.372 148.029,216.805 148.029,216.805 z"
         inkscape:connector-curvature="0"
         style="fill:#ffffff;stroke:#010002;stroke-width:3" /><line
         id="line125"
         stroke-miterlimit="10"
         x1="2046.293"
         y1="1340.525"
         x2="2069.0669"
         y2="1340.525"
         style="fill:none;stroke:#010002;stroke-width:3;stroke-miterlimit:10" /><line
         id="line127"
         stroke-miterlimit="10"
         x1="2000.746"
         y1="1340.525"
         x2="2023.52"
         y2="1340.525"
         style="fill:none;stroke:#010002;stroke-width:3;stroke-miterlimit:10" /><line
         id="line129"
         stroke-miterlimit="10"
         x1="2091.8411"
         y1="1340.525"
         x2="2114.614"
         y2="1340.525"
         style="fill:none;stroke:#010002;stroke-width:3;stroke-miterlimit:10" /><path
         id="path131"
         d="m 2000.746,1340.525 0,96.719 c 0,0 11.31,22.432 22.774,36.5 l 0,-133.219 -22.774,0 0,0 z"
         inkscape:connector-curvature="0"
         style="fill:#a60032;stroke:#010002;stroke-width:3" /><path
         id="path133"
         d="m 2046.293,1340.525 0,159.435 c 0,0 14.242,13.965 22.774,20.697 l 0,-180.132 -22.774,0 z"
         inkscape:connector-curvature="0"
         style="fill:#a60032;stroke:#010002;stroke-width:3" /><path
         id="path135"
         d="m 2091.841,1340.525 0,197.076 c 0,0 16.248,10.494 22.774,13.937 l 0,-211.013 -22.774,0 z"
         inkscape:connector-curvature="0"
         style="fill:#a60032;stroke:#010002;stroke-width:3" /><line
         id="line137"
         x1="2000.746"
         y1="1340.525"
         x2="2023.52"
         y2="1340.525"
         style="fill:none;stroke:#010002;stroke-width:3" /><line
         id="line139"
         x1="2046.293"
         y1="1340.525"
         x2="2069.0669"
         y2="1340.525"
         style="fill:none;stroke:#010002;stroke-width:3" /><line
         id="line141"
         x1="2091.8411"
         y1="1340.525"
         x2="2114.614"
         y2="1340.525"
         style="fill:none;stroke:#010002;stroke-width:3" /><path
         id="path143"
         d="m 2251.256,1340.525 0,96.719 c 0,0 -11.31,22.432 -22.773,36.5 l 0,-133.219 22.773,0 z"
         inkscape:connector-curvature="0"
         style="fill:#a60032;stroke:#010002;stroke-width:3" /><path
         id="path145"
         d="m 2205.708,1340.525 0,159.435 c 0,0 -14.242,13.965 -22.774,20.697 l 0,-180.132 22.774,0 z"
         inkscape:connector-curvature="0"
         style="fill:#a60032;stroke:#010002;stroke-width:3" /><path
         id="path147"
         d="m 2160.161,1340.525 0,197.076 c 0,0 -16.248,10.494 -22.774,13.937 l 0,-211.013 22.774,0 z"
         inkscape:connector-curvature="0"
         style="fill:#a60032;stroke:#010002;stroke-width:3" /><line
         id="line149"
         x1="2281.978"
         y1="1703.708"
         x2="2268.261"
         y2="1720.484"
         style="fill:none" /><line
         id="line151"
         x1="2251.2561"
         y1="1701.845"
         x2="2289.0569"
         y2="1736.793"
         style="fill:none" /><path
         id="path153"
         stroke-miterlimit="10"
         d="m 2364.725,1614.728 -5.742,23.475 0,0 15.719,15.659 0,0 -22.216,93.839 -19.76,-26.542 -29.279,13.665 22.216,-93.839 0,0 20.597,-5.743 0,0 5.348,-23.433 c 0,0 6.23,-2.44 13.117,2.919 z"
         inkscape:connector-curvature="0"
         style="fill:#0081c6;stroke:#010002;stroke-width:3;stroke-miterlimit:10" /><path
         id="path155"
         stroke-miterlimit="10"
         d="m 2369.988,1599.248 -11.315,21.11 0,0 11.335,19.41 0,0 -44.521,84.586 -12.564,-31.023 -31.64,5.219 44.521,-84.586 0,0 21.306,0.067 0,0 10.924,-21.177 c 10e-4,0 7.948,-0.017 11.954,6.394 z"
         inkscape:connector-curvature="0"
         style="fill:#0081c6;stroke:#010002;stroke-width:3;stroke-miterlimit:10" /><path
         id="path157"
         stroke-miterlimit="10"
         d="m 2371.898,1605.387 -30.096,38.235 0,0 6.898,21.598 0,0 -61.447,71.871 -5.615,-33.205 -31.943,-2.411 61.447,-71.871 0,0 20.746,5.113 0,0 31.924,-40.59 c -10e-4,10e-4 8.561,4.253 8.086,11.26 z"
         inkscape:connector-curvature="0"
         style="fill:#0081c6;stroke:#010002;stroke-width:3;stroke-miterlimit:10" /><path
         id="path159"
         stroke-miterlimit="10"
         d="M 1900.98,1512.014"
         inkscape:connector-curvature="0"
         style="fill:none;stroke:#010002;stroke-width:3;stroke-miterlimit:10" /><path
         id="path161"
         d="m 1597.585,1121.816 c 0,0 40.315,23.342 165.869,46.684"
         inkscape:connector-curvature="0"
         style="fill:none;stroke:#010002;stroke-width:3" /><path
         id="path163"
         d="m 1615.481,1153.918 c 0,0 109.115,35.594 159.93,39.968"
         inkscape:connector-curvature="0"
         style="fill:none;stroke:#010002;stroke-width:3" /><path
         id="path165"
         d="m 1658.453,1193.886 c 0,0 64.011,20.094 138.971,32.774"
         inkscape:connector-curvature="0"
         style="fill:none;stroke:#010002;stroke-width:3" /><path
         id="path167"
         d="m 1713.073,1235.753 c 0,0 72.322,17.371 106.849,20.255"
         inkscape:connector-curvature="0"
         style="fill:none;stroke:#010002;stroke-width:3" /><path
         id="path169"
         stroke-miterlimit="10"
         d="m 1761.599,1269.901 c 0,0 61.173,12.758 76.672,14.292"
         inkscape:connector-curvature="0"
         style="fill:none;stroke:#010002;stroke-width:3;stroke-miterlimit:10" /><path
         id="path171"
         stroke-miterlimit="10"
         d="m 1800.538,1301.382 c 0,0 44.642,6.783 62.409,6.42"
         inkscape:connector-curvature="0"
         style="fill:none;stroke:#010002;stroke-width:3;stroke-miterlimit:10" /><path
         id="path173"
         stroke-miterlimit="10"
         d="m 1855.996,1328.513 c 0,0 18.05,-0.848 26.724,-2.288"
         inkscape:connector-curvature="0"
         style="fill:none;stroke:#010002;stroke-width:3;stroke-miterlimit:10" /><path
         id="path175"
         stroke-miterlimit="10"
         d="m 1872.712,1357.509 c 0,0 15.34,-4.142 24.386,-9.941"
         inkscape:connector-curvature="0"
         style="fill:none;stroke:#010002;stroke-width:3;stroke-miterlimit:10" /><path
         id="path177"
         stroke-miterlimit="10"
         d="m 1895.328,1387.54 c 0,0 11.8,-4.556 17.503,-16.983"
         inkscape:connector-curvature="0"
         style="fill:none;stroke:#010002;stroke-width:3;stroke-miterlimit:10" /><path
         id="path179"
         stroke-miterlimit="10"
         d="m 1924.139,1398.621 c 0,0 9.145,-8.181 9.735,-17.294"
         inkscape:connector-curvature="0"
         style="fill:none;stroke:#010002;stroke-width:3;stroke-miterlimit:10" /><path
         id="path181"
         stroke-miterlimit="10"
         d="m 1958.358,1405.766 c 0,0 -3.424,-2.953 -1.082,-15.792"
         inkscape:connector-curvature="0"
         style="fill:none;stroke:#010002;stroke-width:3;stroke-miterlimit:10" /><path
         id="path183"
         stroke-miterlimit="10"
         d="m 1953.933,1371.126 c 0,0 -1.77,-3.676 -1.18,-9.475"
         inkscape:connector-curvature="0"
         style="fill:none;stroke:#010002;stroke-width:3;stroke-miterlimit:10" /><path
         id="path185"
         stroke-miterlimit="10"
         d="m 1889.428,1187.263 c 0,0 20.649,8.284 27.532,19.675 6.883,11.391 2.35,22.462 0,28.814 -1.181,3.192 -15.733,31.248 1.377,51.545"
         inkscape:connector-curvature="0"
         style="fill:none;stroke:#010002;stroke-width:3;stroke-miterlimit:10" /><path
         id="path187"
         stroke-miterlimit="10"
         d="m 1889.723,1309.355 c 0,0 0.098,-0.104 7.375,-2.382"
         inkscape:connector-curvature="0"
         style="fill:none;stroke:#010002;stroke-width:3;stroke-miterlimit:10" /><path
         id="path189"
         stroke-miterlimit="10"
         d="m 1846.163,1279.531 c 0,0 12.308,2.478 24.386,2.589"
         inkscape:connector-curvature="0"
         style="fill:none;stroke:#010002;stroke-width:3;stroke-miterlimit:10" /><path
         id="path191"
         stroke-miterlimit="10"
         d="m 1829.152,1249.189 c 0,0 14.455,1.45 28.024,1.243"
         inkscape:connector-curvature="0"
         style="fill:none;stroke:#010002;stroke-width:3;stroke-miterlimit:10" /><path
         id="path193"
         stroke-miterlimit="10"
         d="m 1882.877,1610.513 c 0,0 -0.442,-12.581 15.486,-13.513 l 46.901,65.237 c 0,0 -1.77,4.194 -23.008,3.728 0,0 -2.249,-0.015 -3.429,2.47 -1.812,3.815 -35.95,-57.922 -35.95,-57.922 z"
         inkscape:connector-curvature="0"
         style="fill:#369443;stroke:#010002;stroke-width:3;stroke-miterlimit:10" /><path
         id="path195"
         stroke-miterlimit="10"
         d="m 1807.618,1217.501 c 0,0 20.846,4.142 32.056,4.349"
         inkscape:connector-curvature="0"
         style="fill:none;stroke:#010002;stroke-width:3;stroke-miterlimit:10" /><path
         id="path197"
         stroke-miterlimit="10"
         d="m 1790.312,1182.085 c 0,0 25.709,7.338 44.839,9.941"
         inkscape:connector-curvature="0"
         style="fill:none;stroke:#010002;stroke-width:3;stroke-miterlimit:10" /><path
         id="path199"
         stroke-miterlimit="10"
         d="m 1877.629,1207.146 c 0,0 -18.486,17.19 3.736,33.138 0,0 -9.243,14.498 9.243,29.617"
         inkscape:connector-curvature="0"
         style="fill:none;stroke:#010002;stroke-width:3;stroke-miterlimit:10" /><path
         id="path201"
         stroke-miterlimit="10"
         d="m 1885.692,1277.047 c 0,0 -2.753,27.646 31.072,27.648 0,0 -6.49,24.647 26.156,23.819 0,0 3.736,19.676 27.336,15.74"
         inkscape:connector-curvature="0"
         style="fill:none;stroke:#010002;stroke-width:3;stroke-miterlimit:10" /><path
         id="path203"
         d="m 1918.258,1560.685 c 0,0 -5.352,1.191 -16.962,0"
         inkscape:connector-curvature="0"
         style="fill:none;stroke:#010002;stroke-width:3" /><path
         id="path205"
         stroke-miterlimit="10"
         d="m 1868.651,1575.183 c 0,0 -16.323,-2.485 -15.536,32.931"
         inkscape:connector-curvature="0"
         style="fill:none;stroke:#010002;stroke-width:3;stroke-miterlimit:10" /><path
         id="path207"
         stroke-miterlimit="10"
         d="m 1878.484,1583.26 c 0,0 -14.75,-1.864 -13.766,32.516"
         inkscape:connector-curvature="0"
         style="fill:none;stroke:#010002;stroke-width:3;stroke-miterlimit:10" /><path
         id="path209"
         d="m 2020.914,1500.415 c 0,0 -7.08,1.45 -11.996,7.042 -4.916,5.592 -14.356,4.556 -14.356,4.556 0,0 5.113,-4.142 6.883,-14.498 1.77,-10.356 7.473,-13.462 7.473,-13.462"
         inkscape:connector-curvature="0"
         style="fill:none;stroke:#010002;stroke-width:3" /><path
         id="path211"
         d="m 1992.028,1474.247 c 0,0 -7.08,1.45 -11.996,7.042 -4.916,5.592 -14.356,4.556 -14.356,4.556 0,0 5.113,-4.142 6.883,-14.498 1.77,-10.356 7.473,-13.462 7.473,-13.462"
         inkscape:connector-curvature="0"
         style="fill:none;stroke:#010002;stroke-width:3" /><path
         id="path213"
         d="m 1987.16,1514.446 c 0,0 -6.182,1.266 -10.474,6.148 -4.293,4.883 -12.535,3.978 -12.535,3.978 0,0 4.465,-3.617 6.01,-12.659 1.545,-9.042 6.525,-11.754 6.525,-11.754"
         inkscape:connector-curvature="0"
         style="fill:none;stroke:#010002;stroke-width:3" /><path
         id="path215"
         stroke-miterlimit="10"
         d="m 2274.03,1230.549 c 0,0 -72.456,37.901 -148.029,-3.107 -75.573,41.008 -148.029,3.107 -148.029,3.107 l 0,109.976 296.058,0 0,-109.976 0,0 z"
         inkscape:connector-curvature="0"
         style="fill:#162667;stroke:#010002;stroke-width:3;stroke-miterlimit:10" /><path
         id="path217"
         stroke-miterlimit="10"
         d="m 1609.306,1515.748 c 7.175,-2.929 12.342,-5.756 12.32,-13.412 0,-1.825 -1.019,-5.863 -3.055,-12.114 l -48.177,-147.24 c -2.853,-8.747 -5.01,-13.947 -6.01,-15.863 -2.166,-4.147 -6.417,-5.835 -12.143,-8.22 l 5.93,0 49.361,0 5.941,0 c -6.652,3.143 -12.716,5.639 -12.659,12.691 0.022,2.693 0.779,6.49 2.341,11.393 l 36.907,115.541 36.871,-115.541 c 1.562,-4.903 2.369,-8.7 2.343,-11.393 -0.071,-7.248 -6.386,-9.86 -12.591,-12.691 l 5.872,0 47.565,0 5.906,0 c -5.426,2.174 -9.848,3.878 -12.12,8.22 -1.002,1.916 -3.157,7.116 -6.009,15.863 l -48.177,147.24 c -2.038,6.25 -2.775,10.357 -3.056,12.258 0,0 -2.217,9.312 12.32,13.267 l -59.68,10e-4 0,0 z"
         inkscape:connector-curvature="0"
         style="fill:#0081c6;stroke:#010002;stroke-width:3;stroke-miterlimit:10" /><path
         id="path219"
         stroke-miterlimit="10"
         d="m 2635.986,1500.605 0,-166.709 c 0,-2.884 -0.476,-5.095 -1.425,-6.634 -0.951,-1.537 -5.09,-5.969 -10.995,-8.364 l 5.906,0 43.363,0 5.906,0 c -5.906,1.955 -10.046,6.706 -10.995,8.292 -0.951,1.586 -1.425,3.821 -1.425,6.706 l 0,166.709 c 0,2.981 0.491,5.264 1.476,6.85 0.983,1.586 5.039,5.458 10.944,8.292 l -5.906,0 -43.363,0 -5.906,0 c 5.906,-2.687 10.044,-6.825 10.995,-8.364 0.949,-1.536 1.425,-3.797 1.425,-6.778 z"
         inkscape:connector-curvature="0"
         style="fill:#0081c6;stroke:#010002;stroke-width:3;stroke-miterlimit:10" /></g></g></svg>