<?xml version="1.0" encoding="UTF-8" standalone="no"?>
<svg
   xmlns:dc="http://purl.org/dc/elements/1.1/"
   xmlns:cc="http://creativecommons.org/ns#"
   xmlns:rdf="http://www.w3.org/1999/02/22-rdf-syntax-ns#"
   xmlns:svg="http://www.w3.org/2000/svg"
   xmlns="http://www.w3.org/2000/svg"
   xmlns:sodipodi="http://sodipodi.sourceforge.net/DTD/sodipodi-0.dtd"
   xmlns:inkscape="http://www.inkscape.org/namespaces/inkscape"
   width="714.63483"
   height="600"
   viewBox="0 0 7.1463483 6"
   id="svg2"
   version="1.1"
   inkscape:version="0.91 r13725"
   sodipodi:docname="Flag_of_the_United_Arab_Emirates.svg">
  <metadata
     id="metadata14">
    <rdf:RDF>
      <cc:Work
         rdf:about="">
        <dc:format>image/svg+xml</dc:format>
        <dc:type
           rdf:resource="http://purl.org/dc/dcmitype/StillImage" />
        <dc:title></dc:title>
      </cc:Work>
    </rdf:RDF>
  </metadata>
  <defs
     id="defs12" />
  <sodipodi:namedview
     pagecolor="#ffffff"
     bordercolor="#666666"
     borderopacity="1"
     objecttolerance="10"
     gridtolerance="10"
     guidetolerance="10"
     inkscape:pageopacity="0"
     inkscape:pageshadow="2"
     inkscape:window-width="1600"
     inkscape:window-height="837"
     id="namedview10"
     showgrid="false"
     fit-margin-top="0"
     fit-margin-left="0"
     fit-margin-right="0"
     fit-margin-bottom="0"
     inkscape:zoom="1.3195079"
     inkscape:cx="473.78928"
     inkscape:cy="347.90839"
     inkscape:window-x="-8"
     inkscape:window-y="-8"
     inkscape:window-maximized="1"
     inkscape:current-layer="svg2" />
  <path
     style="fill:#ffffff;stroke:#00732f;stroke-width:0.015;stroke-miterlimit:4;stroke-dasharray:none;stroke-opacity:1"
     d="M 5.255332,1.99 C 5.242443,2.003404 5.229485,2.016744 5.216777,2.030195 L 5.214977,2.024155 5.187692,2.025225 5.1982,2.049678 5.18908,2.057058 C 5.18452,2.060728 5.17988,2.064938 5.175096,2.068269 5.159194,2.079348 5.124569,2.096105 5.10451,2.102429 L 5.088924,2.107349 C 5.077224,2.110139 5.070111,2.108469 5.058963,2.115609 5.045991,2.123899 5.030188,2.134124 5.01824,2.143695 L 5.005935,2.156586 C 4.996195,2.166784 4.982763,2.182828 4.972615,2.19143 4.959364,2.20267 4.930012,2.218179 4.914588,2.226489 4.909038,2.229479 4.905478,2.230509 4.90033,2.234169 4.889636,2.241789 4.877993,2.256206 4.867479,2.26497 L 4.853299,2.27452 C 4.833518,2.287821 4.815862,2.291791 4.792693,2.29868 4.792209,2.298823 4.790453,2.30104 4.789843,2.30134 4.781283,2.30546 4.773915,2.30646 4.767441,2.314582 l 1.95e-4,0.00551 0.00596,0.00164 0.014531,-0.00529 0.00164,0.004 -0.00521,0.00932 -0.00687,0.00279 -0.00348,0.00676 c 8.69e-4,0.00186 0.00333,0.00431 0.00533,0.00492 0.00289,-0.00189 0.014927,-0.00878 0.018477,-0.00715 l 0.00486,0.00547 -0.00135,0.00314 c -0.00542,0 -0.012642,0.00254 -0.016992,0.00572 l -0.00416,0.00746 0.0077,0.010391 -0.0024,0.00523 -0.011309,0.00219 -0.00633,0.00906 -0.015508,-0.00168 c -0.0022,0.00452 0.00719,0.020557 0.00965,0.024238 L 4.759085,2.415001 4.74889,2.418651 4.74645,2.421721 4.74086,2.420784 4.74641,2.409944 C 4.747353,2.401884 4.74056,2.389483 4.734848,2.3843 4.724055,2.38038 4.707373,2.37681 4.698305,2.372366 4.697833,2.37213 4.686582,2.362736 4.685434,2.36178 l -0.00406,-2.15e-4 c -3.41e-4,4.9e-4 -0.00379,0.00546 -0.00383,0.00564 -0.00109,0.00658 -0.00157,0.015928 -0.00367,0.022109 -3.66e-4,0.00104 -0.012687,0.022743 -0.014238,0.024375 -0.00874,0.00922 -0.022442,0.0256 -0.031621,0.03334 -0.00956,0.00806 -0.028237,0.018973 -0.03918,0.026328 l -0.00242,0.00447 0.00377,0.00246 0.00725,-0.00355 0.00342,0.00205 C 4.601915,2.477687 4.611602,2.467482 4.612105,2.467146 4.628826,2.455825 4.647446,2.445926 4.6648,2.435505 l 0.0048,1.56e-4 0.0042,0.00432 C 4.663739,2.444291 4.64034,2.452847 4.631905,2.457911 4.623975,2.462681 4.606809,2.478484 4.598858,2.485001 l 7.03e-4,0.00273 C 4.605851,2.482631 4.627895,2.46854 4.636299,2.472829 L 4.635674,2.476519 4.621436,2.48982 c -2.3e-4,9.74e-4 -0.00259,0.010396 -0.00258,0.010762 3.17e-4,0.00878 0.00297,0.018191 0.00393,0.026992 5.34e-4,0.00501 -0.00121,0.011354 -1.76e-4,0.016152 1.18e-4,5.15e-4 0.00275,0.00568 0.00314,0.00648 l 0.0048,-5.27e-4 0.00875,-0.012383 0.0048,0.00164 9.18e-4,0.0051 c -5.77e-4,0.00762 -0.029339,0.022873 -0.028359,0.029961 0.00164,0.00585 0.024862,0.012409 0.030293,0.014395 l 0.0043,0.00715 C 4.650377,2.610494 4.60198,2.617272 4.591721,2.618179 l -0.00287,0.00268 -9.57e-4,0.00369 c 0.00612,0.00881 0.02202,0.010016 0.024844,0.016719 C 4.610258,2.645758 4.598955,2.658101 4.594281,2.65951 4.588681,2.6612 4.585301,2.66125 4.579554,2.66236 L 4.550081,2.66804 c -0.0033,6.39e-4 -0.00766,0.00314 -0.010859,0.00443 l -0.00514,0.011191 0.0024,0.00543 0.00531,0.00381 0.024883,-0.00307 0.00748,0.00453 c 0.00514,0.013642 -5.11e-4,0.025803 -0.00416,0.039141 l -0.00646,0.023594 -0.00652,0.00621 -0.013027,0.012422 c -0.00594,0.010514 -0.00623,0.026359 -0.011934,0.037109 -0.00149,0.0028 -0.00346,0.00354 -0.00566,0.00582 -0.00848,0.0087 -0.00852,0.010524 -0.019551,0.014863 -0.0016,6.33e-4 -0.00239,0.00154 -0.0041,0.00162 -0.00531,2.61e-4 -0.00831,-4.51e-4 -0.013613,-7.42e-4 L 4.461884,2.832918 C 4.456004,2.826958 4.429312,2.819815 4.420673,2.821199 l -0.00204,0.0038 c 4.9e-4,5.59e-4 0.00509,0.00591 0.00533,0.00605 0.017211,0.00966 0.037337,0.015259 0.054902,0.024414 0.012047,0.00627 0.02383,0.013877 0.035586,0.020723 l 0.00557,0.011934 c -6e-5,4.28e-4 -4.36e-4,0.00387 -5.66e-4,0.00404 -0.00583,0.00842 -0.018191,0.028616 -0.024473,0.035313 -0.00623,0.00663 -0.025591,0.020229 -0.033555,0.026523 -0.0022,0.011048 -0.00577,0.019292 -0.014453,0.02584 -0.00558,-0.00302 -0.011496,-0.011481 -0.013848,-0.017148 l -0.00371,-5.66e-4 -0.00428,0.0027 -0.00455,0.01668 -0.00684,-0.00256 -0.013613,-0.00514 c -0.00791,-0.00163 -0.026727,0.00327 -0.033926,0.00633 l -0.00225,0.029082 0.00727,0.00816 c 0.00763,6.08e-4 0.018235,0.0077 0.022871,0.013496 l 0.0027,0.012754 -0.0035,0.00451 c -5.65e-4,-7e-5 -0.00682,-7.55e-4 -0.00699,-8.79e-4 -0.00737,-0.00518 -0.015274,-0.012295 -0.024727,-0.013027 -0.00679,-5.28e-4 -0.01827,0.00588 -0.023086,0.01 l -0.00682,0.00809 c -0.00133,0.00157 -0.00257,0.00214 -0.00342,0.00402 -0.00267,0.00601 -0.00383,0.016364 -0.00537,0.022949 l 0.00318,0.00719 c -5.83e-4,9.93e-4 -0.00645,0.010866 -0.00656,0.01125 -0.0041,0.015858 -0.00618,0.03333 -0.00918,0.049492 -3.91e-4,3.85e-4 -0.00339,0.00315 -0.00352,0.00342 -0.00482,0.0094 -0.018838,0.039601 -0.023965,0.046738 -0.00257,0.00357 -0.0052,0.00452 -0.00852,0.0074 l -0.017051,0.014785 c -0.01098,0.00717 -0.027283,0.014023 -0.039219,0.020156 -8.81e-4,4.53e-4 -0.025461,0.024996 -0.027949,0.027441 -0.00549,-7.14e-4 -0.01842,-0.00409 -0.02207,-0.00893 l -0.00623,0.00289 4.88e-4,0.00707 0.016543,0.010781 0.00207,0.00686 -0.00424,0.00383 c -0.00711,7.39e-4 -0.015197,0.00232 -0.022285,0.00232 -0.00581,0 -0.012247,-0.00219 -0.017988,-0.00191 -0.00645,3.35e-4 -0.00992,0.00572 -0.024844,0.00238 l -0.00752,-0.00518 -0.00363,4.88e-4 -0.0049,-0.012305 -0.011504,-0.00432 -0.00104,0.011426 0.00469,0.00789 c -5.59e-4,0.00175 -0.00474,0.00626 -0.00635,0.00645 l -0.042305,0.00492 -0.00674,0.00578 -0.00318,0.01332 -0.00297,-0.00139 -0.00377,-0.013047 -0.00547,0.01123 C 3.9896268,3.298814 3.9569408,3.272829 3.9343358,3.249002 L 3.9079878,3.21824 c -0.00514,-0.006 -0.00848,-0.00903 -0.013203,-0.015371 -0.00398,-0.00536 -0.00523,-0.014071 -0.0092,-0.019453 -0.00191,-0.00259 -0.0036,-0.00349 -0.00592,-0.00572 C 3.8653828,3.163917 3.8564518,3.15569 3.8650168,3.13545 l -0.00197,-0.0032 -0.010684,-0.00107 c -0.015784,0.00767 -0.028417,0.021844 -0.042773,0.031738 -0.00837,0.00578 -0.018402,0.010648 -0.027246,0.015762 -0.00135,7.82e-4 -0.00502,0.00686 -0.00477,0.00896 l 0.013437,0.015625 c -7.88e-4,0.0033 -0.00116,0.011378 0.00131,0.014258 l 0.018008,0.00955 c 2.54e-4,4.35e-4 0.0029,0.00488 0.00312,0.00502 9.06e-4,5.21e-4 0.00974,0.00577 0.010098,0.00584 0.00724,0.00155 0.017144,0.00111 0.024648,0.0016 9.81e-4,7.01e-4 0.010256,0.00727 0.010547,0.00762 0.00388,0.00481 0.00585,0.012144 0.00949,0.017227 5.21e-4,7.2e-4 0.015832,0.018278 0.016074,0.018477 l 0.012949,0.00633 c 0.00465,0.00228 0.010366,0.00495 0.015723,0.00539 8.13e-4,0.00144 0.01,0.018002 0.010273,0.018281 0.00469,0.00488 0.017771,0.012775 0.02373,0.017051 l -0.00223,0.00889 c -0.00772,0.00332 -0.01822,0.00641 -0.025215,0.010879 -0.00112,7.07e-4 -0.00406,0.00483 -0.00531,0.00572 -0.012848,0.00924 -0.00932,0.00297 -0.022012,0.01748 l -0.0042,0.00479 0.012656,0.014922 -0.00492,0.00506 c -9.56e-4,9.87e-4 -0.0012,0.00196 -0.00246,0.00252 -0.011811,0.00527 -0.02552,0.00771 -0.037617,0.01248 -0.00416,0.00165 -0.00892,0.00525 -0.012871,0.0075 -0.012829,0.00731 -0.025732,0.014487 -0.038555,0.021816 l -0.018379,0.010488 c -0.00323,0.00102 -0.021156,-4.26e-4 -0.02416,5.86e-4 -0.00839,0.00284 -0.019936,0.013473 -0.028594,0.017266 -0.00874,0.00383 -0.020118,0.00509 -0.029316,0.00812 -0.00634,0.0021 -0.012368,0.00573 -0.01873,0.00771 -0.00411,0.00127 -0.00953,0.00166 -0.013828,0.0024 l -0.00168,0.00301 -0.00602,0.00281 L 3.651582,3.5 C 3.643522,3.50217 3.633027,3.5025 3.624648,3.50363 3.623638,3.503767 3.622288,3.504391 3.621288,3.5047 3.610339,3.50812 3.582493,3.515434 3.573339,3.519661 3.573054,3.519791 3.561036,3.531983 3.559999,3.53302 L 3.555589,3.532825 C 3.539663,3.53213 3.544906,3.535655 3.53348,3.538135 3.5275,3.539435 3.51959,3.539195 3.513402,3.539675 l -0.00602,0.0049 -0.012031,0.00979 c -0.011048,0.00672 -0.032781,0.00562 -0.044785,0.00625 -0.00425,2.24e-4 -0.027013,0.00244 -0.032481,0.00174 -0.00446,-5.65e-4 -0.012809,-0.007 -0.018848,-0.00475 -0.00842,0.00315 -0.016952,0.010726 -0.025449,0.013184 -0.00292,8.44e-4 -0.00476,1.82e-4 -0.00779,3.12e-4 L 3.350412,3.571765 C 3.336956,3.569995 3.321567,3.563125 3.308303,3.562175 3.291042,3.560935 3.271399,3.565355 3.253889,3.564835 3.253101,3.564815 3.217665,3.55264 3.215276,3.551827 l -0.01459,0.00699 -0.02916,0.013965 c -0.00407,0.00151 -0.00662,0.00147 -0.010859,0.00242 L 3.138929,3.580062 C 3.113326,3.582442 3.086457,3.582092 3.060706,3.583092 3.047734,3.583595 3.027748,3.583983 3.0193,3.572408 3.01476,3.566188 3.01128,3.557824 3.006292,3.552095 3.003872,3.549315 2.997372,3.543885 2.990003,3.538013 l 0,0.4719729 2.9722656,0 c -2.8e-6,-0.00113 8e-5,-0.00231 2e-5,-0.0034 -4.9e-4,-0.00867 -0.00345,-0.017744 -0.00492,-0.026328 -0.00146,-0.00854 -0.00114,-0.017133 -0.00232,-0.025605 -7.26e-4,-0.00526 -0.00301,-0.010868 -0.00338,-0.016113 -0.00128,-0.01821 0.00297,-0.036203 0.00477,-0.05416 7.39e-4,-0.0074 7.32e-4,-0.015123 0.00109,-0.022559 4.97e-4,-0.010142 -0.00607,-0.025995 -0.011641,-0.034492 -0.00455,-0.00242 -0.010007,-0.00475 -0.014277,-0.0076 -0.00421,-0.00282 -0.00848,-0.00834 -0.012871,-0.010566 -0.00656,-0.00333 -0.0152,-0.00407 -0.021953,-0.00715 -0.00989,-0.00451 -0.053258,-0.033845 -0.061289,-0.042441 -0.00436,-0.016715 -0.00703,-0.033491 -0.00762,-0.05082 0.021481,-0.0085 0.049476,-0.00549 0.072285,-0.00963 0.00665,-0.00122 0.013498,-0.00377 0.020977,-0.00627 0.00329,-0.00245 0.00789,-0.00685 0.011484,-0.00857 0.00539,-0.0026 0.012324,-0.00325 0.017891,-0.00559 0.018608,-0.0078 0.036312,-0.017788 0.055137,-0.02541 l -0.019707,0 c 0.00686,-0.00369 0.012083,-0.00904 0.018047,-0.013887 0.016255,-0.013214 0.03953,-0.029365 0.060664,-0.03168 0.013705,-0.00151 0.029824,3.56e-4 0.043652,9.37e-4 0.017695,7.39e-4 0.039343,5.01e-4 0.056523,0.00271 0.01214,0.00157 0.021658,0.00863 0.03666,0.0077 0.00995,-6.21e-4 0.02194,-0.00384 0.031133,-0.00777 0.0075,-0.00321 0.023358,-0.013025 0.030762,-0.014043 4.9e-4,-6e-5 0.013784,0.00168 0.015137,0.00184 6.83e-4,0.00105 0.00765,0.012167 0.00793,0.012422 0.00796,0.0074 0.02417,0.016399 0.034219,0.025039 0.00143,1.8e-4 0.013741,0.00192 0.014355,0.00188 0.00515,-4.1e-4 0.021176,-0.00886 0.026562,-0.011582 0.016653,-0.00843 0.033282,-0.016849 0.049766,-0.025625 l 0.032402,-0.017266 c 0.00453,-0.00208 0.012347,-0.00302 0.017344,-0.00426 0.00891,-0.0022 0.1453994,-0.03469 0.1551562,-0.042187 l 0.00814,-0.00625 c -7.45e-4,-0.00627 -0.00205,-0.014483 -0.00465,-0.020293 -0.00341,-0.00757 -0.00874,-0.014181 -0.012734,-0.021387 -0.00715,-0.012929 -0.01277,-0.027557 -0.021348,-0.039648 -0.00878,-0.012382 -0.019571,-0.023604 -0.028477,-0.036055 -0.00186,-0.016535 -0.00396,-0.033028 -0.00607,-0.049531 -0.00106,-0.00811 -0.00156,-0.015634 -0.00336,-0.023672 -0.011706,-0.01026 -0.017749,-0.01641 -0.019902,-0.032734 -5.65e-4,-0.00428 0.0013,-0.011188 0.0018,-0.015508 -0.00329,-0.00651 -0.00857,-0.011441 -0.013652,-0.016543 -0.012786,0.00106 -0.025607,0.00156 -0.038418,0.00219 -0.00466,2.3e-4 -0.011656,-2.42e-4 -0.016094,8.01e-4 -0.00385,9e-4 -0.00904,0.00525 -0.012871,0.00725 -0.010601,0.00551 -0.021684,0.010044 -0.032266,0.015488 -0.011259,0.00578 -0.013221,0.013303 -0.028887,0.012422 l -0.00686,-3.91e-4 c -4.53e-4,-1.49e-4 -0.00909,-0.0056 -0.010059,-0.00621 -0.010998,-0.0068 -0.022809,-0.011323 -0.034043,-0.017617 -0.016975,0.00356 -0.060432,0.00991 -0.070254,-0.01084 9e-5,-0.00254 -2.08e-4,-0.00637 3.32e-4,-0.00879 0.00143,-0.00649 0.00422,-0.012958 0.00602,-0.019394 0.00304,-0.011129 0.00477,-0.024361 0.010371,-0.03459 0.00391,-0.00721 0.00999,-0.013922 0.014414,-0.020898 0.00664,-0.010471 0.012105,-0.021713 0.018945,-0.03209 0.00528,-0.00801 0.011965,-0.014962 0.017266,-0.022832 0.00521,-0.00776 0.00635,-0.01344 0.014023,-0.021211 0,-0.01034 0.00174,-0.020022 0.00217,-0.030195 6.83e-4,-0.014673 -5.8e-4,-0.063763 -0.00561,-0.075996 -0.00521,-0.012662 -0.017416,-0.022331 -0.027539,-0.030977 -0.00757,-0.00648 -0.014859,-0.015056 -0.024492,-0.018476 -0.0041,-0.012879 -0.00373,-0.024977 -0.00156,-0.038086 6.02e-4,-0.00361 0.00186,-0.00786 0.00205,-0.011465 3.54e-4,-0.00745 -3.67e-4,-0.015236 -4.1e-4,-0.022715 -7e-5,-0.012705 1.97e-4,-0.025289 -2.93e-4,-0.037988 l -8.01e-4,-0.021719 c -0.00143,-0.00782 -0.00743,-0.015878 -0.00926,-0.023711 -0.0013,-0.00553 4.08e-4,-0.01266 -5.66e-4,-0.01834 -0.00137,-0.00804 -0.00565,-0.0162 -0.00672,-0.024238 -2.73e-4,-0.00198 0.00253,-0.020156 0.00322,-0.023613 0.011942,-0.010266 0.027504,-0.013799 0.039297,-0.023965 0.00614,-0.015728 -0.00613,-0.038234 -0.00148,-0.06041 0.014909,-0.01782 0.041826,-0.027112 0.04375,-0.053496 -0.00459,-0.013636 -0.011215,-0.02529 -0.016621,-0.038399 -0.00211,-0.00516 -0.00341,-0.01074 -0.00559,-0.015898 -0.00217,-0.00518 -0.00497,-0.010345 -0.00742,-0.01541 -1.99e-4,-4.03e-4 -7.55e-4,-0.00348 -8.79e-4,-0.0041 -0.00205,-0.00989 -0.00395,-0.019451 -0.00691,-0.029121 -5.71e-4,-0.00188 -0.00138,-0.00284 -0.0015,-0.0048 -2.17e-4,-0.0058 0.00287,-0.015031 0.00404,-0.020977 0.00168,-0.00835 0.00458,-0.016368 0.00625,-0.024629 0.00354,-0.01754 -0.00144,-0.034562 -0.00807,-0.050879 -0.0036,-0.020507 -0.00614,-0.041411 -0.011524,-0.061465 l -5.08e-4,-0.00268 c -0.00223,-0.011346 -0.00553,-0.02399 -0.00578,-0.035547 -1.24e-4,-0.00636 0.00113,-0.013515 0.00162,-0.019902 2.98e-4,-0.00404 6e-5,-0.00895 8.01e-4,-0.012871 9.31e-4,-0.00469 0.00304,-0.00991 0.00447,-0.014512 0.00155,-0.00505 0.071029,-0.094432 0.081406,-0.1074219 0.00385,-0.00481 0.035784,-0.024801 0.041699,-0.028184 0.011588,-0.00663 0.047871,-0.0263 0.059316,-0.02918 0.00571,-0.00143 0.012518,-10e-4 0.018359,-0.00199 0.00484,-8.13e-4 0.010176,-0.00326 0.01498,-0.00365 0.00168,-1.3e-4 0.024061,0.00525 0.0275,0.00566 0.0078,9.19e-4 0.020376,-3.37e-4 0.027539,0.00158 0.0087,0.00233 0.037891,0.017003 0.046543,0.023477 0.022679,0.040896 0.022293,0.06506 0.023789,0.1107227 0,4.53e-4 -8.7e-6,0.00223 8e-5,0.00258 0.0023,0.00719 0.00422,0.015068 0.00697,0.022051 0.00248,0.00621 0.00692,0.012547 0.010137,0.018555 l -0.00279,0.00416 c -0.010676,-0.00624 -0.022502,-0.013344 -0.031328,-0.021953 -0.0013,-0.00127 -0.00621,-0.00853 -0.00709,-0.0092 l -0.011328,-0.00607 c -0.011247,-0.00601 -0.022588,-0.00857 -0.034648,-0.00375 -0.0067,0.00268 -0.013097,0.00439 -0.017051,0.010957 -0.00698,0.011582 0.00643,0.030721 0.012266,0.040137 0.00217,0.00349 0.00534,0.00886 0.00832,0.011328 0.00992,0.00817 0.019276,0.01692 0.029238,0.02502 0.00304,0.00249 0.00776,0.00503 0.010352,0.00795 0.00118,0.0013 0.00222,0.00349 0.00316,0.00498 -8.07e-4,0.00771 3.66e-4,0.015155 0,0.022734 -7e-5,0.00138 -0.00154,0.00641 -0.00148,0.0074 8.07e-4,0.011414 0.022212,0.048636 0.028828,0.055488 0.00236,0.00242 0.00645,0.00481 0.0092,0.00687 1.3e-4,10e-5 0.00186,0.00431 0.00205,0.00465 l -0.00402,0.00791 0.0034,0.0024 0.00176,0.013477 c 0.00279,0.0028 0.016632,0.015754 0.019258,0.01707 4.1e-4,2.11e-4 0.011493,0.00278 0.013144,0.00318 0.00534,0.00138 0.01301,0.0048 0.018223,0.00525 0.00403,3.54e-4 0.00874,-0.00102 0.012832,-9.77e-4 0.010496,1.18e-4 0.021781,0.00459 0.032246,0.00398 0.00341,-1.92e-4 0.032399,-0.00955 0.036328,-0.011621 0.00267,-0.0014 0.00577,-0.00436 0.00818,-0.00621 0.00137,-0.00804 0.00659,-0.034691 0.011348,-0.040879 0.010707,-0.00398 0.021031,-0.00771 0.032383,-0.00955 0.00821,-0.00983 0.00876,-0.029263 0.00896,-0.041211 2.05e-4,-0.01255 0.00583,-0.024398 0.01168,-0.035508 0.0049,-0.00475 0.010534,-0.011163 0.016797,-0.01416 0.011886,-0.00569 0.023173,4.92e-4 0.034668,-4.88e-4 0.00366,-3.04e-4 0.00809,-0.00153 0.01168,-0.00234 0.016442,-0.00369 0.022463,-0.00895 0.037012,-0.013828 0.00565,-0.00189 0.015758,-0.00383 0.020742,-0.00643 2.54e-4,-1.3e-4 0.00521,-0.00495 0.00559,-0.00541 0.00391,-0.00415 0.016666,-0.021302 0.018379,-0.026504 0.0023,-0.007 0.00272,-0.01311 0.00646,-0.019707 0.012773,-0.00242 0.048398,-0.010968 0.056758,-0.017969 4.59e-4,-3.85e-4 0.00755,-0.0096 0.00838,-0.010664 0.00298,-0.019737 -0.00595,-0.072935 -0.00789,-0.093125 -4.97e-4,-0.0051 0.00452,-0.015315 0.00729,-0.019746 l 0.00299,-0.00494 c 0.014207,-0.00609 0.0286,-0.00839 0.043887,-0.00891 -0.00577,-0.018323 -0.013505,-0.037091 -0.013418,-0.055723 l -0.00291,0.00193 c -0.00174,0.0042 -2.95e-4,0.011886 0.0018,0.015703 l -0.00316,0.00816 c -0.00635,-0.0038 -0.00987,-0.01846 -0.012344,-0.02543 l -0.00373,-0.00248 -9.96e-4,-0.012832 0.00373,6.64e-4 0.00379,0.00432 0.00473,-0.00191 0.0074,-0.01666 c 1.15e-4,-0.00366 -2.68e-4,-0.00969 -8.01e-4,-0.016348 l -1.8649805,0 z M 5.0978711,1.9999 c -0.00497,-3.17e-4 -0.010093,3e-5 -0.015156,0.00109 -0.00564,0.00119 -0.013267,8.51e-4 -0.018438,0.00398 -0.00558,0.00338 -0.00844,0.00963 -0.012617,0.013769 -0.015697,0.015542 -0.020931,0.035632 -0.011484,0.054531 0.011892,0.023772 0.035694,0.022949 0.040293,0.022031 l -0.00137,-0.00687 c -0.00317,6.33e-4 -0.022799,0.00137 -0.032637,-0.018301 -0.00976,-0.01952 -0.00116,-0.04178 0.023496,-0.056719 0.021146,-0.012817 0.048372,-0.00538 0.056484,0.00812 0.0088,0.014673 0.00674,0.034492 5.08e-4,0.040723 l 0.00498,0.00494 c 0.00929,-0.00929 0.01034,-0.032916 5.27e-4,-0.049277 C 5.1262771,2.007639 5.1127791,2.00084 5.0978671,1.99989 Z m -0.00559,0.021953 c -0.00443,9e-5 -0.0093,0.00166 -0.014824,0.00486 -0.014741,0.00853 -0.019396,0.024055 -0.013965,0.034141 0.00543,0.010086 0.018633,0.013184 0.018633,0.013184 0,0 -0.00311,-0.012426 0.00852,-0.018633 0.011638,-0.00621 0.019395,0.00389 0.019395,0.00389 0,0 0.010874,-0.014749 0.00156,-0.026387 -0.00582,-0.00727 -0.011944,-0.011206 -0.019316,-0.011055 z m 0.00287,0.035723 0,2e-5 c -4.96e-4,-8e-5 -9.65e-4,-4e-5 -0.00141,1.56e-4 -0.00698,0.0031 0.010082,0.037224 0.016289,0.034121 0.00582,-0.00291 -0.00745,-0.033092 -0.014883,-0.034297 z M 4.7544727,2.3013086 c -8.5e-4,-6e-5 -0.00181,-6e-5 -0.00287,4e-5 -0.00853,7.76e-4 -0.017845,7.75e-4 -0.0225,0.00543 -0.00466,0.00466 -0.023275,0.024051 -0.02793,0.02793 -0.00466,0.00388 -0.011627,0.013974 -0.00465,0.020957 0.00698,0.00698 0.015504,0.010857 0.023262,0.013184 0.00776,0.00233 0.013971,0.00234 0.023281,0.00389 0.00931,0.00155 0.017064,0.00544 0.021719,7.81e-4 0.00466,-0.00465 0.00621,-0.00854 0.00543,-0.014746 -7.76e-4,-0.00621 -0.00542,-0.013978 -0.00852,-0.018633 -0.0031,-0.00466 -0.00467,-0.013964 -0.00467,-0.019395 0,-0.00543 -0.00309,-0.0093 7.81e-4,-0.012402 0.0034,-0.00272 0.00262,-0.00662 -0.00334,-0.00703 z m -0.1426758,0.1842187 -0.010586,0.014434 0.00502,-8.01e-4 0.010098,-0.012695 -0.00453,-9.37e-4 z m -0.079863,0.084453 0,2e-5 -0.024688,0.021133 -0.012363,0.00217 -0.022656,0.024688 0.00305,0.00314 0.00725,-0.00314 0.029531,-0.027461 0.024726,-0.00787 0.00207,-0.00375 -0.00279,-0.00723 -0.00412,-0.0017 z m -0.021758,0.060547 0,2e-5 -0.00324,0.00195 -0.00359,0.012617 c -0.00265,0.00324 -0.017305,0.004 -0.021172,0.00402 l -0.00236,0.00596 c 0.00335,0.00679 0.00753,0.013896 0.010313,0.020898 0.00426,0.010688 0.00143,0.027195 0.013672,0.032539 0.00606,-0.00289 0.018393,0.00168 0.02334,0.00506 l 0.00461,-0.00457 0.00125,-0.00518 c -0.0032,-0.011147 -0.015156,-0.019331 -0.015664,-0.028418 0.00103,-0.01142 0.011431,-0.021392 0.022305,-0.023887 -0.00624,5.21e-4 -0.01892,-0.00181 -0.023066,-0.00729 l -0.00189,-0.011328 -0.00449,-0.0024 z m -0.06334,0.010391 c -0.00516,2.93e-4 -0.012451,0.00282 -0.014434,0.00451 -0.00969,0.00829 -0.014125,0.021491 -0.027363,0.02668 l -0.022051,8.01e-4 -0.00357,0.00268 c 0.00793,0.014462 0.034922,0.012313 0.048496,0.010879 3.17e-4,-4e-5 0.00129,-5e-5 0.00154,-1.76e-4 l 0.010488,-0.00516 0.018945,0.00555 0.00166,-0.00445 -0.00311,-0.00465 -0.017949,-0.00852 -8.59e-4,-0.00328 0.014219,-0.013359 0.00129,-0.00516 -0.00312,-0.00576 c -9.68e-4,-5.15e-4 -0.00246,-6.67e-4 -0.00418,-5.66e-4 l 0,-2e-5 z m -0.1088281,0.077617 -2e-5,2e-5 c -0.00973,0.00521 -0.026443,0.030554 -0.033711,0.040137 l -0.00852,0.01125 c -0.00757,0.00696 -0.022059,0.017404 -0.030742,0.023164 -0.00729,0.00484 -0.015541,0.00612 -0.021953,0.01293 l -5.66e-4,0.00402 c 0.004,0.00602 0.030962,0.015134 0.038144,0.018027 8.13e-4,3.29e-4 0.00522,0.00491 0.00609,0.00529 0.00921,0.00395 0.019821,0.00672 0.029355,0.00994 l 0.00252,-0.00195 c 0.00149,-0.00364 3.5e-4,-0.010225 -0.00158,-0.013496 -0.00436,-0.0035 -0.022817,-0.016181 -0.022891,-0.021934 l 0.00213,-0.00336 0.00875,-0.00104 c 4.78e-4,-6.21e-4 0.00555,-0.00696 0.00561,-0.00719 0.00278,-0.010241 0.00366,-0.02264 0.00537,-0.033203 0.0038,-0.00457 0.00871,-0.00947 0.011973,-0.014375 6.02e-4,-9.06e-4 0.00166,-0.00596 0.00232,-0.00707 0.00326,-0.00553 0.00913,-0.00984 0.01043,-0.016504 l -0.00271,-0.00467 z m 0.065879,0.013418 -5.66e-4,0.00439 0.013203,0.00945 -1.95e-4,0.00439 c 0.00188,0.00254 0.010455,0.00649 0.013105,0.00648 0.00958,-8e-5 0.020436,-0.00223 0.03002,-0.00328 0.00353,0.00208 0.016186,0.00859 0.020469,0.00738 l 0.00205,-0.00414 -0.00398,-0.009 c -0.00359,-0.00246 -0.011426,-0.0033 -0.015566,-0.00311 l -0.00715,-0.00523 c -0.00123,1.61e-4 -0.014288,0.00199 -0.014648,0.00193 -0.011365,-0.00175 -0.021407,-0.00958 -0.036719,-0.00926 l -2e-5,-2e-5 z m -0.048926,0.00762 -0.017754,0.00178 1.56e-4,0.00365 c 0.00717,8e-5 0.01434,4.37e-4 0.021484,0.00102 l 0.00244,-0.00268 -0.00633,-0.00377 z m 0.06293,0.044316 c -0.00287,0.00271 -0.010452,0.00765 -0.014766,0.00709 l -0.00264,0.00857 0.00393,0.00789 0.00922,-3.12e-4 c 0.00552,-0.00274 0.013451,-0.010165 0.015195,-0.016328 l -0.00236,-0.00467 -0.00857,-0.00225 z m -0.071113,0.00164 c -6.64e-4,4e-5 -0.0013,1.29e-4 -0.00193,2.74e-4 l -0.00463,0.00271 -0.00133,0.0052 c 0.00252,0.00541 0.00905,0.012312 0.014512,0.014863 l 0.021231,-0.00258 9.57e-4,-0.00406 c -0.00588,-0.00593 -0.018881,-0.016952 -0.028809,-0.016406 z m -0.1390625,0.027656 -0.00428,0.00346 c -9.44e-4,0.003 -0.00561,0.018134 -0.0059,0.018574 -0.00405,0.00607 -0.017966,0.022485 -0.023223,0.027637 -0.00436,0.00427 -0.011762,0.00661 -0.016113,0.010879 -0.00484,0.00475 -0.00776,0.012538 -0.012598,0.017305 -0.00735,0.00726 -0.017489,0.013944 -0.025645,0.02043 -1.55e-4,1.3e-4 -0.00281,0.00579 -0.00307,0.00635 l 0.021953,0.00455 c 0.021581,0.00448 0.024712,0.010449 0.040527,0.024023 0.00302,0.00259 0.00803,0.0054 0.011133,0.0075 l 0.011406,0.0077 c 0.011222,0.00464 0.02489,0.00552 0.035957,0.010391 0.00799,0.00351 0.013572,0.013618 0.022969,0.015313 0.00647,-0.00148 0.03314,-0.00596 0.039453,-0.00439 3.85e-4,1e-4 0.022577,0.00963 0.023496,0.010117 0.0063,0.00331 0.016003,0.0133 0.023594,0.012344 l 0.00684,-0.00389 c 0.003,-0.00572 0.00248,-0.016714 -4.49e-4,-0.022344 -0.00379,-0.00718 -0.022424,-0.013372 -0.029512,-0.014824 l 3.91e-4,-0.00314 0.0084,0.00172 0.00203,-0.00289 c -0.00273,-0.00101 -0.029344,-0.010983 -0.030293,-0.011094 -0.022506,-0.00264 -0.038157,7.72e-4 -0.057988,-0.013418 l -0.014316,-0.010234 c -0.0044,-0.0039 -0.00195,-0.010279 -0.0035,-0.014512 l -0.00824,-0.017793 c -0.00409,-0.00881 -0.00829,-0.022326 -0.00867,-0.032207 l 0.00184,-0.015723 9.18e-4,-0.00789 0.00914,-0.012031 c -0.00269,-0.00515 -0.010764,-0.010504 -0.01625,-0.011894 z m 0.1672461,0.00266 -0.00309,0.00564 c 0.00387,0.00526 0.010822,0.018716 0.00937,0.025723 l 0.018164,0.024629 c 0.00134,-0.00517 4.5e-4,-0.011618 -6.06e-4,-0.016621 -0.00289,-0.013655 -0.00348,-0.017747 -0.013125,-0.027988 l -0.010703,-0.011387 -2e-5,0 z m 0.0091,0.078535 -0.00121,0.00631 c 0.013605,0.012842 0.032676,0.01938 0.049434,0.026816 1.12e-4,6e-5 0.00743,-6.11e-4 0.00807,-6.64e-4 l 0.00236,-0.0052 c -8.13e-4,-0.00381 -0.00424,-0.00746 -0.00686,-0.0099 l -0.00732,-0.00686 c -0.013487,-0.00894 -0.030793,-0.00144 -0.044473,-0.010508 z m -0.046894,0.00355 -0.00322,0.0016 -8.2e-4,0.00844 -0.00797,0.00211 c -9.43e-4,0.00471 0.0051,0.014956 0.00766,0.018438 l 0.0043,-0.012266 0.00652,-0.00279 0.00205,-0.00373 -0.00246,-0.00689 -0.00605,-0.0049 z m 0.062363,0.047637 c -0.00609,-4.53e-4 -0.019828,0.00693 -0.020449,0.013535 l 0.00311,0.00467 0.00691,-0.00133 c 0.00318,-0.00228 0.01081,-0.00909 0.011641,-0.013281 l -0.00121,-0.00359 z m -0.2575195,0.025957 -0.00322,0.00232 -9.18e-4,0.00443 c 0.00426,0.00785 0.016603,0.0157 0.02582,0.012969 l 0.00354,-0.00418 c -0.0016,-0.00639 -0.010867,-0.013545 -0.016738,-0.015488 l -0.00848,-6e-5 z m 0.042617,0.02002 0,2e-5 5.27e-4,0.00439 0.00725,0.0067 0.00549,1.76e-4 0.00324,-0.00271 -0.00393,-0.00607 -0.012578,-0.0025 z m -0.1763867,0.00361 -2e-5,2e-5 c -0.00431,-10e-5 -0.0086,1e-4 -0.011348,9.18e-4 l -0.015449,0.017949 c -0.013456,0.015641 -0.013142,0.014185 -0.033066,0.02123 -0.00906,0.0032 -0.021142,0.00537 -0.030899,0.00463 l -0.00391,0.00307 0.00121,0.00287 c 0.019322,0.010309 0.042513,0.01475 0.063535,0.020293 l 0.00289,-0.00119 c 0.00928,0.00616 0.036184,0.023412 0.047207,0.025293 l 0.00469,-0.00199 c 0.00276,-0.00235 0.00301,-0.00978 0.00246,-0.01291 l -0.034063,-0.036133 9.76e-4,-0.00295 L 4,3.0300781 c 3.66e-4,-8.75e-4 0.00422,-0.010219 0.00439,-0.01043 0.00523,-0.00613 0.013473,-0.012149 0.019531,-0.017617 l -0.00428,-0.00607 c -0.00278,-3.1e-4 -0.0071,-7.08e-4 -0.011406,-8.01e-4 z m 0.070996,0.023125 0,2e-5 -0.00363,0.00193 -0.00332,0.018105 c 0.00193,0.00416 0.00899,0.00875 0.013086,0.010254 0.011246,0.00465 0.016591,0.012569 0.022891,0.0225 0.00142,0.00224 0.00273,0.00324 0.00363,0.00574 l 0.00477,0.022324 0.00236,0.011152 c -0.00558,0.011427 -0.00282,0.00929 -0.01293,0.016602 l -0.012051,-0.00906 -0.0073,0.00139 c 0.00282,0.00635 0.00896,0.016086 0.015059,0.019922 l 0.017188,-0.00137 c 0.00423,-0.00257 0.00968,-0.027258 0.011211,-0.032676 0.00446,-0.00421 0.00929,-0.00973 0.01416,-0.013359 0.00349,-0.00259 0.00799,-0.0013 0.013652,-0.0082 l -9.77e-4,-0.00623 c -0.013152,-0.00789 -0.026383,-0.020175 -0.036035,-0.032012 -0.00817,-0.00294 -0.018025,-0.013537 -0.021016,-0.021562 l -0.020742,-0.00547 z m -0.030527,0.037813 0,2e-5 -0.00209,0.00266 c 0.00318,0.00389 0.013191,0.014541 0.018535,0.01541 l 0.00311,-0.006 -0.00285,-0.0076 -0.016699,-0.00449 z m -0.089629,0.025078 -0.00402,0.00641 c -0.011321,0.01795 -0.013587,0.019169 -0.032871,0.02959 l -0.028262,0.015273 c -3.17e-4,1.68e-4 -0.00341,0.00341 -0.00387,0.00387 -0.00244,0.00759 0.00124,0.015586 0.00357,0.022637 0.00124,0.00376 0.00386,0.00654 0.00717,0.00885 l 0.00789,0.00176 0.015801,0.00355 c 0.00728,0.00307 0.022842,0.022588 0.026777,0.029043 0.00443,0.00727 0.00678,0.01678 0.011543,0.02375 0.0011,0.00161 0.00231,0.00198 0.00379,0.00326 0.00724,0.00625 0.016092,0.012802 0.026426,0.010586 0.00323,-0.00409 0.018184,-0.025592 0.022852,-0.02543 0.0093,-0.00208 0.017277,0.00777 0.024961,0.010781 0.00229,9e-4 0.024937,0.00196 0.027227,0.00148 2.98e-4,-6e-5 0.00851,-0.00465 0.00932,-0.0051 l 0.0027,-0.00633 c -3.66e-4,-8.19e-4 -0.00377,-0.00879 -0.004,-0.00902 -0.011036,-0.011625 -0.022559,-0.023065 -0.033223,-0.035019 -0.00309,-0.00346 -0.00527,-0.00852 -0.00852,-0.011758 -0.00493,-0.00491 -0.012246,-0.00845 -0.016895,-0.013555 -0.018155,-0.019868 -0.035074,-0.04168 -0.052422,-0.062305 l -0.00594,-0.00232 z m -0.5920508,0.02123 -0.014433,0.014199 -1.37e-4,0.00516 0.00379,0.0035 0.00518,4.88e-4 c 0.00529,-0.002 0.012745,-0.00737 0.015645,-0.012383 l -10e-5,-0.010606 -0.00994,-3.52e-4 z m -0.2892968,0.036934 c -0.00786,0.00385 -0.018119,0.010756 -0.023066,0.018242 -0.0022,0.00643 -0.00194,0.015916 -1.17e-4,0.022383 l 0.00449,0.00205 0.044629,-0.011152 8.98e-4,-0.00408 c -0.00125,-0.00601 -0.00965,-0.019016 -0.01416,-0.022461 -3.1e-4,-2.42e-4 -0.011571,-0.00453 -0.012676,-0.00496 l 0,-2e-5 z M 3.301543,3.150293 c -0.0064,0.00209 -0.013828,0.00735 -0.018145,0.01248 l -0.00131,0.00412 C 3.290148,3.1802 3.310417,3.18142 3.324158,3.1816 L 3.337634,3.170409 c 0.00885,-0.00235 0.016666,0.0037 0.025293,-3.12e-4 l 0.00514,-0.00867 -0.00465,-0.00531 C 3.34239,3.147387 3.319515,3.156592 3.301562,3.150297 l -2e-5,0 z m 0.1286718,0.067949 c -0.00796,-2.61e-4 -0.021188,0.015962 -0.026973,0.02166 l -0.00473,0.018164 -0.0074,-0.0015 -0.00607,0.00391 c -0.00711,-0.00508 -0.019488,-0.010525 -0.028047,-0.00504 l -0.043594,0.027851 c -0.018577,0.00348 -0.044464,-0.01244 -0.060391,-0.0073 -0.016895,0.012668 -0.033721,0.025422 -0.050566,0.038145 -0.00659,0.00498 -0.00992,0.00831 -0.016875,0.012754 -0.016398,0.010477 -0.035652,0.017449 -0.052324,0.027578 -0.01404,0.00853 -0.027787,0.019739 -0.041231,0.029297 l -0.00129,0.00408 c 0.00479,0.00749 0.020268,0.021615 0.028945,0.025488 0.012612,-0.00253 0.027406,-0.00418 0.03959,-0.00797 0.00357,-0.00112 0.00859,-0.00907 0.014297,-0.00828 0.011067,0.00603 0.023112,0.011681 0.03375,0.018359 0.013102,0.00823 0.026504,0.023133 0.041797,0.027168 0.00621,0.00164 0.013251,0.00142 0.019551,0.00285 0.00383,8.81e-4 0.00768,0.00353 0.011504,0.00426 l 0.00584,-2.34e-4 c 0.011482,-4.65e-4 0.022382,-1.29e-4 0.03248,0.00633 0.00547,-2.05e-4 0.013873,-0.00482 0.017988,-0.00809 0.010489,0.00109 0.049518,0.00235 0.055645,-0.00932 0.00182,-0.011185 0.00433,-0.022725 0.00555,-0.033965 2.42e-4,-0.00224 -0.00113,-0.00788 -7.81e-4,-0.00986 0.00167,-0.00974 0.00509,-0.020028 0.00754,-0.029648 l 0.00318,-0.00307 c 0.020327,0.00137 0.026753,0.019495 0.031191,0.036855 l -0.00908,0.010234 c 5.03e-4,5.34e-4 0.00553,0.00592 0.00576,0.00602 0.024479,0.010887 0.073633,0.035235 0.1011523,0.028848 0.00537,-0.00125 0.011651,-0.00495 0.016914,-0.00693 0.00951,-0.00359 0.022631,-0.00589 0.029844,-0.013711 0.00536,-0.0066 0.00487,-0.024836 0.00344,-0.032402 0.00312,-0.00311 0.016006,-0.018935 0.012207,-0.024316 C 3.5880361,3.350878 3.5838361,3.344116 3.5702001,3.330461 3.5568681,3.31711 3.5517071,3.315295 3.5324851,3.315891 l -0.025605,8.01e-4 c -0.0065,-0.00385 -0.017545,-0.012122 -0.024434,-0.014375 -0.021041,-0.00691 -0.020938,-7.84e-4 -0.032383,-0.020566 -0.00461,-0.00796 -0.00964,-0.01564 -0.013086,-0.02418 -0.00207,-0.00511 -0.00596,-0.012494 -0.00297,-0.018223 l 0.00318,-0.00305 0.00693,-0.00139 c 0.00475,0.00262 0.014393,0.00551 0.019941,0.0043 l 0.00135,-0.00371 -0.00279,-0.00574 c -0.00828,-0.0056 -0.022843,-0.00886 -0.032383,-0.011504 l -2e-5,0 z m 0.3723633,0.033711 -0.00211,0.00262 0.017051,0.023594 0.00525,0.00342 0.023711,0.00568 0.00244,-0.00268 -0.01834,-0.01832 -0.011836,-0.00359 -0.010254,-0.00945 -0.0059,-0.00125 -2e-5,-2e-5 z m -0.01373,0.014473 -8e-5,0.00768 0.00875,0.00813 0.011816,0.00244 0.00283,-0.00268 C 3.8104041,3.276486 3.7947411,3.266629 3.7888441,3.26643 Z m -0.035488,0.020098 0,2e-5 -0.00268,0.0067 0.00594,0.011133 0.053242,0.040137 0.00961,0.00172 0.00721,-0.00283 0.00291,-0.00965 -0.015176,-0.022891 -0.017227,-0.00955 -0.011152,-0.013144 -0.032676,-0.00164 z m -0.010156,0.030469 -0.00311,0.00451 c 0.00509,0.00395 0.020929,0.017001 0.022891,0.023301 0.00147,0.00475 0.00174,0.016733 0.00629,0.019551 0.00654,3.91e-4 0.019126,-0.00658 0.024141,-0.010078 l 0.00299,-0.00709 -0.00354,-0.00686 C 3.7842261,3.334767 3.7729621,3.325951 3.7639011,3.321694 l -0.013809,-0.00314 -0.00689,-0.00156 z m -0.030645,0.012246 -0.00182,0.00959 -0.022129,-0.0035 c -0.00323,0.0046 -0.010693,0.011865 -0.016328,0.013516 -0.00174,0.00774 0.00837,0.021516 0.014961,0.025078 0.00843,-0.00101 0.025715,-0.00529 0.032617,8.79e-4 0.00208,0.00185 0.00281,0.00331 0.00461,0.00543 l 0.00924,0.010859 0.00988,3.51e-4 c 0.00654,-0.00285 0.018094,-0.010025 0.019062,-0.017988 -0.00515,-0.00762 -0.014129,-0.025283 -0.013105,-0.035059 -0.00154,-4e-5 -0.017491,-2.79e-4 -0.017969,-3.91e-4 -0.00567,-0.00141 -0.013543,-0.00625 -0.019004,-0.00875 l -2e-5,-2e-5 z m -0.016934,0.071426 -0.00277,0.00344 0.00725,0.00775 0.026601,0.00555 0.00457,-0.00457 -0.0042,-0.00461 -0.031445,-0.00756 z"
     id="rect5"
     inkscape:connector-curvature="0" />
  <path
     style="fill:#00732f"
     d="m 5.5712695,0 -0.00855,2.734375e-4 C 5.5577648,0.00494344 5.5492775,0.00942863 5.5424805,0.01039063 c -0.00804,0.0056 -0.011929,0.01944709 -0.00844,0.02849609 l 0.014297,0.01648437 c 0.00619,0.00338 0.024392,0.0024102 0.030996,0.0016602 0.00747,-0.00715 0.00433,-0.02003431 0.0025,-0.02832031 L 5.5766992,0.00537109 5.5712695,0 Z m -0.2519336,0.05744141 -0.00402,0.0023242 -0.00102,0.0033203 0.00594,0.01193359 0.00646,0.0042187 0.00637,-5.6641e-4 0.0035,-0.0063477 C 5.3356995,0.06546422 5.3263619,0.0569884 5.3193359,0.0574414 Z m 1.4638868,0.27357421 1e-4,5.9e-5 c -3.66e-4,3.1e-5 -0.027123,0.0102417 -0.029277,0.0110547 l -0.034492,-0.007148 -0.00385,0.00125 c -0.00186,0.00194 -0.00366,0.003886 -0.00459,0.005996 -0.0031,0.007 -0.00637,0.0166124 -0.00836,0.0240234 -0.00583,0.021655 -0.00982,0.0487458 -0.014394,0.0714258 l -0.00428,0.0211328 -0.00643,0.0144141 c -0.00596,0.013363 -0.013331,0.0270049 -0.016055,0.0415039 0.00706,0.017428 0.00385,0.0262839 0.0018,0.0440039 l -0.00365,0.001914 c -0.00391,-0.00674 0.00223,-0.0239052 -0.0041,-0.0310742 -0.00687,0.012227 -0.015476,0.0248526 -0.021074,0.0375586 -0.00279,0.00639 -0.00358,0.0141416 -0.00619,0.0206836 -0.0059,0.014958 -0.012963,0.0297512 -0.019394,0.0444922 l 0.00131,0.007324 0.0041,0.001719 0.012969,-0.0171875 0.00854,-9.18e-4 c 2.24e-4,-0.00123 0.00247,-0.0140595 0.00266,-0.0143945 0.00341,-0.00648 0.010965,-0.0142222 0.015527,-0.0201562 l 0.00328,-0.001191 0.0023,0.002168 c -0.00385,0.011029 -0.00857,0.0164756 -0.015371,0.0260156 0.00174,0.00377 10e-4,0.0108735 -0.00111,0.0143555 l -0.01502,0.009883 -0.00305,0.0136719 -0.00551,0.001602 -0.00943,-0.005293 -0.00514,8.594e-4 c -0.00118,0.00504 -0.00516,0.0193908 -0.00877,0.0233008 l -0.00365,0.001191 0.00391,-0.0224609 -0.00428,-0.007246 -0.022481,0.0546094 c -6.21e-4,0.00158 -0.00124,0.003599 -0.00211,0.005059 -0.00696,0.012227 -0.013552,0.0259326 -0.021367,0.0375586 -0.00703,0.01044 -0.017056,0.0202099 -0.025293,0.0299609 l 0.00316,0.005801 -0.00691,0.005313 0.00271,0.005449 0.00561,5.859e-4 0.010254,-0.006484 0.0016,0.004746 -0.012051,0.009102 c -6.21e-4,0.00678 -0.0043,0.0207233 -0.00979,0.0255273 l -0.010703,0.00248 c -0.00379,-0.00139 -0.011884,-0.006259 -0.012871,-0.0107031 0.0013,-0.00331 0.00695,-0.006467 0.010195,-0.007187 0.00254,-0.00393 0.00564,-0.0135091 0.00514,-0.0181641 -3.41e-4,-0.0034 -0.00315,-0.008476 -0.00439,-0.0119727 -0.00459,0.00562 -0.00931,0.0124951 -0.014414,0.0175781 l -0.093223,0.0928125 c -4.1e-4,4.035e-4 -0.00243,0.001593 -0.00299,0.001973 -0.00261,0.0017 -0.029885,0.0199444 -0.030742,0.0202734 -8.69e-4,3.352e-4 -0.046446,0.0100616 -0.04873,0.0103906 -0.0066,9.497e-4 -0.015624,-1.2e-4 -0.022402,-1.758e-4 l -1.37e-4,0.0132617 c -0.00583,0.00701 -0.011787,0.0157703 -0.018242,0.0220703 -0.00174,0.00167 -0.00879,0.004674 -0.010996,0.006484 -0.00503,0.00408 -0.00954,0.009926 -0.014082,0.0146875 l -0.00336,-0.002129 c 0.00223,-0.00531 0.00435,-0.0106615 0.00664,-0.0159375 l -3.91e-4,-0.001816 -0.0041,7.8e-5 c -0.00503,0.00878 -0.00987,0.0189776 -0.015644,0.0272266 -0.00641,0.00917 -0.03236,0.0346789 -0.041621,0.0399609 -0.016063,0.00916 -0.034247,0.016681 -0.050918,0.024805 -4.03e-4,8.32e-4 -0.00474,0.00985 -0.00492,0.01002 -0.00882,0.00816 -0.020834,0.01555 -0.030547,0.022793 -3.04e-4,2.23e-4 -8.35e-4,4.89e-4 -0.00105,7.81e-4 -0.00968,0.012811 -0.018894,0.026044 -0.03168,0.036055 l -0.00746,0.025527 -0.010137,0.00908 c -0.00223,0.0066 4.71e-4,0.01818 0.00436,0.023711 l 0.00545,-0.00416 c 0.00258,4.16e-4 0.0053,6.85e-4 0.00783,0.00127 l 0.00383,0.00504 c -0.00971,0.00751 -0.034536,0.029045 -0.044727,0.032402 l -0.00594,-0.00168 0.010742,-0.012441 -0.00338,-0.00209 c -0.00182,8.13e-4 -0.022237,0.010089 -0.022734,0.010176 -0.011712,0.00213 -0.040096,0.00273 -0.053223,0.00363 -1.68e-4,1e-5 -0.00435,0.00209 -0.00479,0.0023 l -0.00588,0.015234 -0.00904,0.00684 c -0.00427,0.00102 -0.013873,0.00121 -0.017461,-0.00209 0.00512,-0.00753 0.023178,-0.00721 0.022793,-0.019004 l -0.00275,-0.00576 -0.006,-0.00279 -0.024316,0.00547 -0.0027,-0.00361 0.021719,-0.027481 c 0.016417,-0.020774 0.018776,-0.024878 0.022109,-0.048203 l 0.012246,-0.012832 -0.00191,-0.00324 c -0.00795,-0.00436 -0.018925,0.00429 -0.025039,0.0083 -2.92e-4,1.92e-4 -0.00242,0.00149 -0.00252,0.00164 -0.00444,0.00621 -0.01012,0.012855 -0.013887,0.019434 -0.00776,0.013543 -0.015087,0.035668 -0.022305,0.050527 -0.00677,0.013909 -0.014319,0.027586 -0.021426,0.041328 -7.7e-4,0.00148 -0.00155,0.00349 -0.0025,0.00484 l -0.032773,0.046035 0.00342,0.00318 0.014512,-0.010996 0.00635,0.00129 c 0.00302,0.00246 0.00322,0.00657 0.00348,0.010039 0.00119,0.015759 -0.018863,0.024964 -0.030078,0.031152 l -0.00402,0.00223 0.00377,0.0032 0.00881,-0.00355 0.00342,0.00248 0.00121,0.00471 c -4.28e-4,5.65e-4 -0.00402,0.00549 -0.00428,0.00564 -0.00996,0.00602 -0.019925,0.011971 -0.029844,0.018047 l -0.00281,0.00561 c 0.0067,0.00509 0.013587,0.00771 0.022109,0.00893 l 5.27e-4,0.00551 -0.01957,0.015567 -0.016269,0.00117 -0.00613,0.00461 -0.00445,0.013691 c 0.00318,0.00438 0.00728,0.00873 0.011484,0.012149 l -0.00387,0.00707 c -0.00674,-0.00212 -0.012239,-9.61e-4 -0.017949,-0.00686 -0.00611,-0.00735 6.74e-4,-0.017159 -0.00514,-0.023652 l 0.00395,-0.00453 -0.00432,-0.00795 c -0.0032,4.78e-4 -0.00674,4.43e-4 -0.00998,6.44e-4 -0.02006,0.014735 -0.033065,0.034359 -0.050332,0.051719 -0.00445,0.00447 -0.011691,0.00843 -0.015508,0.013262 -5.71e-4,7.2e-4 -0.00461,0.011622 -0.00555,0.013359 l -0.01084,0.017949 c -0.00211,0.00349 -0.00434,0.00502 -0.00541,0.00896 -3.79e-4,0.00143 -0.00232,0.039231 -0.00256,0.043184 l -0.00287,0.00369 -0.00537,-4.1e-4 L 5.66,1.533418 c 0.00154,-0.00726 0.00583,-0.034089 0.0084,-0.039824 0.00418,-0.00929 0.00968,-0.018503 0.014414,-0.027559 l 0.00139,-0.00268 -4.49e-4,-0.00363 -0.00371,8.4e-4 -0.011016,0.014961 -0.00844,0.00209 -0.030098,0.046738 0.021543,0.015156 c 0.00288,0.00666 0.0014,0.021123 -0.0059,0.024766 l -0.00412,-6.44e-4 -0.00312,-0.00652 0.00166,-0.00627 -0.0016,-0.00289 -0.00516,-5.66e-4 -0.00537,0.006 c -0.00328,0.012848 0.00307,0.017676 -0.00133,0.029785 l -0.0049,-0.00211 c -3.85e-4,-0.00155 -0.00222,-0.00768 -0.00195,-0.00885 l 0.00705,-0.031621 -0.00377,-0.0032 -0.019512,0.030723 c -0.00297,0.00466 -0.00599,0.010657 -0.00945,0.014883 -0.01206,0.014722 -0.033795,0.031472 -0.051348,0.038926 l 4.88e-4,0.00404 c 0.00983,0.00886 0.033796,0.015002 0.039531,0.024492 0.00443,0.00731 0.012801,0.023655 0.017891,0.02957 0.00336,0.00392 0.018935,0.00925 0.019668,0.015234 0.00101,0.00819 0.00525,0.028924 0.00168,0.036328 l -0.0065,0.00121 -0.02332,0.021973 -0.010312,0.00178 -0.00822,-0.00381 -0.00199,-0.004 0.00314,-0.00631 c 0.014096,-0.00185 0.034149,-0.023729 0.036973,-0.037012 -3.29e-4,-8.44e-4 -0.00383,-0.010005 -0.004,-0.010176 L 5.5689257,1.6558995 C 5.5588517,1.6458015 5.54764,1.6383704 5.535996,1.6301964 l -0.00662,0.00131 c -0.00467,0.00726 -0.00903,0.015081 -0.014121,0.022051 -0.015802,0.021643 -0.033894,0.042294 -0.048672,0.064551 -0.00987,0.014871 -0.018396,0.03159 -0.027402,0.047051 -6.58e-4,0.00114 -0.00159,0.00222 -0.00236,0.00328 -0.021314,0.029395 -0.041945,0.060057 -0.064258,0.088652 -0.010843,0.013903 -0.022521,0.027462 -0.034258,0.040918 l -0.025,-0.019531 c 0,0 0.013175,-0.020177 7.62e-4,-0.028711 -0.012414,-0.00853 -0.023276,-0.00309 -0.031035,0.00854 -0.00776,0.011638 -0.014735,0.027158 -0.00232,0.034141 0.012413,0.00698 0.02793,-0.00699 0.02793,-0.00699 l 0.023769,0.019277 c -0.0067,0.00767 -0.013386,0.015343 -0.019922,0.023027 -0.02116,0.024901 -0.043946,0.048611 -0.066738,0.072246 l 1.8751367,0 c -5.88e-4,-0.01476 -0.00378,-0.041636 -0.0048,-0.053477 l -8.59e-4,-0.010488 c -0.00291,-0.036412 -0.00629,-0.072819 -0.00846,-0.1092579 l -0.00191,-0.031738 c 0,-0.01345 0.00143,-0.021001 0.00236,-0.034414 l 0.00473,-0.068809 c 1.05e-4,-0.00152 -0.0015,-0.00896 -0.00131,-0.0099 0.00472,-0.02186 0.01028,-0.04398 0.014141,-0.065977 0.00366,-0.020954 0.00576,-0.042608 0.00865,-0.063711 l 3.91e-4,-0.00285 c 7.45e-4,-0.00559 0.00254,-0.012818 0.00248,-0.018379 -10e-5,-0.00794 -0.00473,-0.012419 -0.00162,-0.022344 l -0.010098,-0.00566 c 5.77e-4,-0.00506 -0.00101,-0.013337 -0.00404,-0.017539 l -0.00643,0.00967 -0.00855,-5.27e-4 c -0.00676,-0.00458 -0.015924,-0.026512 -0.012188,-0.033867 l 0.00342,-0.00264 0.00678,-0.00527 c 0.00763,-0.00998 0.00828,-0.037274 0.00873,-0.04875 0,-6.02e-4 7.39e-4,-0.019813 1.37e-4,-0.022246 -0.00317,-0.012525 -0.00607,-0.02505 -0.00895,-0.037637 -7e-5,-3.23e-4 5.04e-4,-0.00475 5.66e-4,-0.00537 0.00143,-0.014077 0.00372,-0.028692 0.00434,-0.042793 2.79e-4,-0.00614 -0.00216,-0.013367 -0.00154,-0.019394 0.00174,-0.016193 0.00602,-0.033228 0.00896,-0.049316 l -0.00125,-0.00553 c -0.00698,-0.023232 -0.015931,-0.04681 -0.019668,-0.070762 -0.00143,-0.00927 0.00192,-0.016335 0.00242,-0.025391 7.45e-4,-0.012494 -0.00639,-0.024734 -0.016973,-0.031152 -0.00608,-0.00368 -0.017639,-0.00646 -0.024473,-0.00896 -0.00217,-8.01e-4 -0.024101,-0.00899 -0.024883,-0.0091 -0.00856,-0.00122 -0.026661,2.91e-4 -0.035977,3.91e-4 -0.01188,-0.0058 -0.017849,-0.015266 -0.02125,-0.02668 l -0.017305,0.015527 c -0.010378,0.00932 -0.018184,0.016386 -0.031758,0.021699 -0.00403,-9.56e-4 -0.00776,-0.00149 -0.011465,-0.00326 -0.00223,-0.00107 -0.029996,-0.014245 -0.030332,-0.014512 -0.00791,-0.00647 -0.011278,-0.011325 -0.018496,-0.018555 l -0.037012,-0.03707 c -0.00817,-0.00819 -0.019228,-0.0215546 -0.019551,-0.0335156 -7.45e-4,-0.027725 -0.00273,-0.0562182 -0.00223,-0.0839062 l 0.00305,-0.0289063 c 6.02e-4,-0.00564 4.52e-4,-0.008883 0.00154,-0.0144531 0.00143,-0.00744 0.00796,-0.0206565 0.011113,-0.0287305 -0.007,-0.017559 -0.017762,-0.0412492 -0.022715,-0.0576172 -2.86e-4,-9.559e-4 -8.7e-4,-0.0256683 -4.1e-4,-0.0289453 0.00106,-0.00803 0.00138,-0.0179902 0.00336,-0.0257422 0.0054,-0.020799 0.016311,-0.0459665 0.020644,-0.0662695 6e-5,-1.924e-4 -0.00268,-0.0159145 -0.00287,-0.0171875 0.0013,-0.00295 0.00968,-0.021897 0.00977,-0.0225 l 0.01627,-0.11650391 c 1.36e-4,-0.00102 -0.00597,-0.0252371 -0.00633,-0.0284961 -0.00112,-0.010266 -2.96e-4,-0.0220519 -4.88e-4,-0.0333789 5.77e-4,-0.00318 0.00626,-0.0333142 0.00623,-0.0345313 l -0.00789,-0.0362305 c -1.36e-4,-3.166e-4 -0.0144,-0.0184329 -0.015566,-0.0199219 -0.00292,-4.655e-4 -0.03749,-0.006134 -0.038086,-0.006094 z M 5.1659961,0.62162109 c -0.00588,0.004387 -0.024918,0.0199312 -0.031289,0.0215625 l -0.00857,-0.001191 c -0.00222,0.0025 -0.00541,0.008708 -0.00443,0.0122656 l 0.00994,0.008828 0.00271,0.0146094 0.015137,-0.002676 0.00488,0.002051 0.00588,0.009375 0.013926,-0.006719 0.013516,0.004336 0.00244,-0.004473 c -3.85e-4,-0.00479 -2.45e-4,-0.0107281 -0.00121,-0.0153711 -0.00148,-0.00708 -0.011955,-0.037343 -0.017305,-0.040918 l -0.00561,-0.00168 -2e-5,0 z m 1.3782812,0.0984961 c -0.00663,0.004983 -0.014758,0.0150928 -0.017246,0.0231445 l 0.00373,6.445e-4 c 0.00701,-0.0053 0.013289,-0.0147879 0.017305,-0.0224219 l -0.00377,-0.001367 -2e-5,0 z M 6.3876172,0.87552734 c -0.016566,0.00738 -0.033139,0.0154131 -0.049922,0.0222461 -0.00706,0.00287 -0.032648,0.008712 -0.038184,0.0141406 l 0.00117,0.003086 0.013164,-0.00166 0.026348,-0.003262 c 0.00924,-0.00277 0.035181,-0.0159794 0.045273,-0.0205664 4.59e-4,-2.048e-4 0.00685,-0.005278 0.00766,-0.005898 l 0.00236,-0.007324 -0.00785,-7.422e-4 -2e-5,-2e-5 z m -0.1015625,0.0321875 -0.0059,0.00125 c -0.0054,0.00597 -0.024488,0.0242197 -0.02625,0.0326367 l 0.00311,0.003535 c 0.010955,-0.010328 0.015996,-0.0174664 0.029824,-0.0227734 l -7.42e-4,-0.0146484 -4e-5,0 z m -0.1608594,0.12046876 -0.00299,10e-5 c -0.00744,0.00794 -0.025732,0.021769 -0.036035,0.025176 l -0.036582,0.00936 -0.018281,0.00467 0.00746,0.00436 -0.00135,0.00199 -0.027285,0.00623 -0.00492,-0.00426 c -0.00687,0.0046 -0.02093,0.028573 -0.025019,0.035859 l 0.0027,0.00213 c 0.00566,6.58e-4 0.01669,-0.00802 0.018906,-0.012969 2.42e-4,-5.46e-4 0.00176,-0.00814 0.00199,-0.00922 0.00665,0.00132 0.019851,6.66e-4 0.025449,-0.004 l 0.00525,0.00133 -0.00375,0.012207 0.012422,0.00666 0.00199,-0.00213 -0.00299,-0.00701 0.00855,4.88e-4 0.00492,-0.010039 -0.00686,-0.00604 0.010059,-0.012383 0.010547,0.00705 0.00852,-0.014551 0.020371,-0.0016 c 0.00537,-4.16e-4 0.027578,-0.026887 0.026914,-0.033379 l 0,-2e-5 z m -0.1012891,0.08084 0,2e-5 -2.54e-4,0.00514 0.01541,0.00973 -4.49e-4,-0.00684 -0.00537,-0.00645 -0.00934,-0.0016 z m -0.00898,0.00906 -0.00584,0.00418 -0.00594,0.013359 8.4e-4,0.00369 0.00553,-0.00164 c 0.00333,-0.00477 0.00692,-0.010474 0.00883,-0.016035 l -0.00342,-0.00354 0,-2e-5 z m -0.04832,0.023672 -0.00814,9.77e-4 -0.00205,0.00701 0.00441,0.010918 0.00777,-0.013809 -0.00199,-0.0051 z m 0.03791,0.016973 -0.00357,0.00562 1.95e-4,0.00621 0.00787,0.00271 0.00533,-0.00822 -0.00314,-0.00576 -0.00668,-5.66e-4 z m -0.029668,0.012187 -0.0052,0.00125 c -0.00286,0.00498 -0.00723,0.017808 -0.00414,0.023555 l 0.00455,0.00504 0.00758,-0.021504 -0.00279,-0.00834 z m -0.1447071,0.1258008 -0.059336,0.07502 0.00447,0.00174 c 0.00127,-6.95e-4 0.013859,-0.00743 0.014238,-0.00777 0.011656,-0.010285 0.037751,-0.050124 0.042207,-0.065039 l -0.00158,-0.00395 z m 1.1352149,0.2061523 0.037148,0.025313 0.020156,-0.00475 0.018574,0.03957 0.013945,-0.00475 0.041855,0.00316 -0.013945,0.05541 -0.023242,0.014238 -0.046504,0.014258 -0.037187,0.026895 -0.017051,-0.012656 -0.013945,0 -0.018574,0.00789 -0.041855,-0.017402 0.00465,-0.028496 0.048066,-0.030059 0.00309,-0.028516 -0.00217,-0.00664 -0.00867,-0.026562 0.035664,-0.026914 z m 0.012363,0.080703 -0.018613,0.00949 0.00467,0.036426 0.020137,0.00475 0.013965,-0.028516 -0.020137,-0.022149 -2e-5,0 z m -1.4864453,0.0275 0,2e-5 c -7.63e-4,1.09e-4 -0.00165,5.34e-4 -0.00262,0.00131 -0.00388,0.0031 -0.00699,0.00854 -0.00389,0.013203 0.0031,0.00466 0.00465,0.00852 -7.81e-4,0.010078 -0.00543,0.00155 -0.010079,0.00544 -0.00154,0.00854 0.00853,0.0031 0.019395,0.00543 0.019395,0.00543 0,0 0.0031,-0.010858 0,-0.016289 -0.0031,-0.00543 -0.00697,-0.00777 -0.00697,-0.014746 0,-0.00524 -0.0013,-0.00787 -0.00359,-0.00754 z m -0.1259765,0.04168 c -0.0031,0 -0.016292,0.00776 -0.019395,0.011641 -0.0031,0.00388 -0.00542,0.0093 -0.00697,0.013184 -0.00155,0.00388 -0.00311,0.010096 -0.00389,0.015527 -7.76e-4,0.00543 -0.00234,0.0093 -7.81e-4,0.012402 0.00155,0.0031 0.00467,0.00544 0.00699,0.00854 0.00233,0.0031 0.00466,0.00776 0.010859,0.00543 0.00621,-0.00233 0.00621,-0.00542 0.011641,-0.00154 0.00543,0.00388 0.00931,0.00697 0.011641,0.00387 0.00233,-0.0031 0.00542,-0.00852 -0.00234,-0.012402 -0.00776,-0.00388 -0.010865,-0.00467 -0.011641,-0.00854 -7.76e-4,-0.00388 -0.00154,-0.00621 0.00311,-0.00621 0.00466,0 0.010078,-7.76e-4 0.010078,-0.00543 0,-0.00466 -0.00309,-0.010859 -0.00309,-0.010859 0,0 -7.9e-4,-0.00776 -0.00234,-0.011641 -0.00155,-0.00388 -0.00309,-0.00544 -0.00232,-0.00854 7.76e-4,-0.0031 0.00156,-0.00543 -0.00154,-0.00543 z m -1.3878907,0.00873 c -0.0016,-1.23e-4 -0.00331,-5e-5 -0.00521,1.95e-4 l -0.010312,0.00137 c -0.01039,0.00243 -0.017108,0.020632 -0.015488,0.029961 7.14e-4,0.00412 0.00355,0.00973 0.00502,0.01375 l 0.00453,0.00311 c 0.00232,9e-5 0.023514,6.81e-4 0.024414,8.98e-4 8.19e-4,2.05e-4 0.019832,0.00927 0.021855,0.010215 -8.07e-4,-0.0059 -0.00255,-0.01312 -0.0026,-0.019004 -9e-5,-0.012444 0.00471,-0.00933 -4.1e-4,-0.023613 -5.46e-4,-0.00151 -4.32e-4,-0.00256 -0.00137,-0.00385 l -0.00768,-0.0068 c -0.00429,-0.0038 -0.00797,-0.00586 -0.012754,-0.00623 z m 1.4152735,0.014961 0,2e-5 c -0.00284,2.12e-4 -0.00556,0.00239 -0.00799,0.00578 -0.00388,0.00543 -0.00467,0.00929 -7.81e-4,0.011621 0.00388,0.00233 0.00699,0.00156 0.010098,-0.00154 0.0031,-0.0031 0.00852,-0.010086 0.00387,-0.013965 -0.00174,-0.00145 -0.00349,-0.00203 -0.0052,-0.00191 z m -0.077813,0.015879 c -0.0031,0 -0.00389,7.74e-4 -0.00932,0.00465 -0.00543,0.00388 -0.00697,0.017841 -0.00387,0.024824 0.0031,0.00698 -0.00311,0.013975 0.00154,0.015527 0.00466,0.00155 0.00544,7.69e-4 0.012422,0.00154 0.00698,7.76e-4 0.011624,0.00233 0.014727,0 0.0031,-0.00233 0.00156,-0.00234 -0.00309,-0.00311 -0.00466,-7.76e-4 -0.00777,-0.00233 -0.00311,-0.00543 0.00466,-0.0031 0.00698,-0.00465 0.00543,-0.00852 -0.00155,-0.00388 -0.00465,-0.00543 -0.00775,-0.00621 -0.0031,-7.76e-4 -0.010859,-0.00311 -0.010859,-0.00311 0,0 -0.00389,-0.00622 0.00154,-0.00467 0.00543,0.00155 0.011641,0.00311 0.011641,0.00311 0,0 0.00154,-0.00776 -0.00156,-0.010859 -0.0031,-0.0031 -0.00465,-0.00775 -0.00775,-0.00775 z m 0.034082,0.033555 c -0.00198,-1.36e-4 -0.00421,0.00223 -0.00615,0.00369 l -0.00621,0.00465 c 0,0 0.010862,0.00775 0.013965,0.010078 0.0031,0.00233 0.010872,0.00621 0.015527,0.00621 0.00466,0 -0.00234,-0.00852 -0.00699,-0.010078 -0.00466,-0.00155 -0.00465,-0.00388 -0.00697,-0.010859 -8.75e-4,-0.00262 -0.00196,-0.00361 -0.00314,-0.00369 l -2e-5,0 z m -0.045215,0.1045703 2e-5,2e-5 c -0.010983,4e-5 -0.024694,0.00418 -0.034512,0.018652 -0.0152,0.0224 -0.011775,0.044219 -0.00105,0.053144 0.010427,0.0087 0.027941,0.00601 0.03375,0.00352 l -0.00139,-0.00379 c -0.00505,0.00217 -0.021174,0.00394 -0.029356,-0.00289 -0.00791,-0.00659 -0.012766,-0.026342 0.0015,-0.047383 0.013773,-0.02029 0.037276,-0.018039 0.044258,-0.014551 0.00677,0.00338 0.015261,0.021383 0.010078,0.029805 l 0.00326,0.00207 c 0.00723,-0.011755 -0.0024,-0.031171 -0.011152,-0.035547 -0.0032,-0.0016 -0.00882,-0.00307 -0.01541,-0.00305 z M 5.0978711,1.9999023 c -0.00266,-1.7e-4 -0.00539,-1.21e-4 -0.00811,10e-5 l 0.00896,0 c -2.9e-4,-2e-5 -5.69e-4,-8e-5 -8.59e-4,-10e-5 z"
     id="green"
     inkscape:connector-curvature="0" />
  <path
     d="m 2.99,4 0,1.5967773 L 5.1096484,6 5.4322461,5.7214258 c -9e-5,-0.010061 -0.00477,-0.019538 -0.00574,-0.029258 -8.88e-4,-0.00893 0.00411,-0.019377 0.00594,-0.02793 0.00381,-0.017782 0.00742,-0.036001 0.010488,-0.053926 0.00142,-0.00835 0.00175,-0.016973 0.00305,-0.025352 0.00128,-0.00826 0.0059,-0.024719 0.0059,-0.032266 0,-0.00421 -0.00202,-0.00894 -0.00229,-0.013184 -8.63e-4,-0.013766 -3.81e-4,-0.027727 -0.00105,-0.041543 -0.00142,-0.029047 -0.00366,-0.057915 -0.00432,-0.087012 l -1.76e-4,-0.00146 c -0.00163,-0.014654 -0.00571,-0.03043 -0.00566,-0.045059 7e-5,-0.017428 0.0057,-0.03345 0.00686,-0.050605 5.65e-4,-0.00841 -6.57e-4,-0.017883 -8.99e-4,-0.026367 -5.71e-4,-0.019601 -0.00266,-0.054158 0.0027,-0.071816 0.00352,-0.011557 0.00863,-0.023516 0.013516,-0.03457 0.00523,-0.011861 0.01061,-0.023668 0.018262,-0.034238 -0.00308,-0.00945 -0.00376,-0.024058 -0.00209,-0.033691 4.53e-4,-0.0026 0.00414,-0.00766 0.00465,-0.010312 0.00103,-0.00541 -2.39e-4,-0.01172 6.06e-4,-0.017207 5.83e-4,-0.00375 0.00278,-0.00843 0.00393,-0.012129 0.00114,-0.00371 0.00192,-0.00866 0.00354,-0.012109 0.00393,-0.00843 0.00991,-0.016559 0.014199,-0.025019 0.00103,-0.00201 0.00133,-0.00333 0.00262,-0.00518 0.00347,-0.005 0.00921,-0.00894 0.012637,-0.013965 0.01296,-0.019036 0.020763,-0.041506 0.032617,-0.061094 0.00482,-0.00797 0.010654,-0.016473 0.016191,-0.023965 0.00457,-0.00619 0.011064,-0.011969 0.015117,-0.018418 0.00636,-0.010092 0.00703,-0.023577 0.011777,-0.034141 l 0.00646,-0.010059 c 0.00418,-0.00652 0.00859,-0.01327 0.01332,-0.019414 0.00319,-0.00414 0.00726,-0.00821 0.010098,-0.012539 0.00499,-0.00759 0.010076,-0.018252 0.013242,-0.026836 0.00744,-0.020221 0.012964,-0.041378 0.020313,-0.06168 0.00385,-0.010682 0.00949,-0.021815 0.0125,-0.032695 0.00323,-0.011706 0.0041,-0.024751 0.00668,-0.03668 0.00589,-0.027192 0.014792,-0.053865 0.020527,-0.081094 0.00261,-0.012358 0.00377,-0.025271 0.00596,-0.037734 0.00243,-0.013872 0.00612,-0.027587 0.00842,-0.041465 0.00117,-0.00701 0.00113,-0.016055 0.00314,-0.022734 0.00236,-0.00784 0.010627,-0.018058 0.015723,-0.024414 0.00985,-0.012302 0.019414,-0.024681 0.030859,-0.035605 0.00626,-0.00596 0.013207,-0.012284 0.019922,-0.017715 0.00697,-0.00564 0.015518,-0.010293 0.022109,-0.016289 0.00534,-0.00485 0.016895,-0.021665 0.019141,-0.028672 0.00297,-0.00924 0.00379,-0.019581 0.00639,-0.028984 0.00523,-0.018924 0.01213,-0.034038 0.01457,-0.053906 6.83e-4,-0.00547 7.31e-4,-0.011017 0.00137,-0.016504 7.51e-4,-0.00642 0.00231,-0.012964 0.00279,-0.019395 8.38e-4,-0.011302 -3.29e-4,-0.023657 0.00123,-0.034805 0.00191,-0.013562 0.00933,-0.031447 0.014687,-0.044395 0.0171,-0.041262 0.023009,-0.049912 0.053887,-0.083242 0.010409,-0.013189 0.031833,-0.03901 0.038691,-0.054297 0.0042,-0.00935 0.00624,-0.021627 0.00566,-0.031855 C 5.962162,4.0044218 5.961897,4.0022157 5.961523,4 L 2.99,4 Z"
     id="rect7"
     inkscape:connector-curvature="0" />
  <path
     d="m 2.0144531,1.809082 -0.0084,0.00187 -0.00252,0.00588 0.0051,0.019687 0.012578,0.00506 0.00398,-0.00506 -5.27e-4,-0.020937 -0.010215,-0.0065 z M 1.3123633,2.1345117 c -0.00526,-4.7e-4 -0.00877,0.00354 -0.01168,0.00936 -0.00465,0.00931 0.010857,0.013956 0.021719,0.015508 0.010862,0.00155 0.013977,-0.00775 0.00156,-0.018613 -0.00465,-0.00407 -0.00844,-0.00597 -0.011602,-0.00625 z m 0.6672656,0.015391 -0.00539,0.00197 -0.00402,0.00578 0.00861,0.00937 0.00246,0.011309 0.0059,0.00254 0.00268,-0.00809 -0.010234,-0.022891 z m 0.2874023,0.061777 -0.00303,0.006 c 3.23e-4,0.00347 0.00215,0.023855 0.00229,0.024141 0.00355,0.0072 0.016242,0.022933 0.021387,0.030195 l 0.00861,0.00359 0.00668,-0.037031 -0.01252,-0.023613 -0.023418,-0.00328 z m -0.7103906,0.1601562 -0.00814,7.81e-4 -0.00805,0.00699 -1.56e-4,0.00439 0.016543,0.028242 0.00623,6.25e-4 0.010254,-0.016816 -0.00807,-0.018691 -0.00861,-0.00553 z m -1.23218748,0.3181055 -0.0140234,0.010527 c 0.00107,0.00745 0.004335,0.021463 0.009355,0.027519 l -2.539e-4,-0.012109 0.001914,-0.00289 0.004063,-9.77e-4 0.0114063,0.011758 c -0.00452,0.0042 -0.007969,0.014835 -0.008789,0.020645 l 0.006484,0.01416 c 0.00535,-0.00428 0.003824,-0.011211 0.006094,-0.01666 0.00171,-0.0041 0.005886,-0.00868 0.008516,-0.012539 l 7.8e-5,-0.023887 c -0.00354,-0.00297 -0.01078,-0.00479 -0.015293,-0.00457 l -0.001934,-0.00812 -0.007617,-0.00285 z m 0.86283208,0.093633 -0.00701,4.49e-4 -0.00707,0.012207 c -0.004,0.00162 -0.00823,0.00325 -0.011973,0.00541 -0.0049,0.012916 -0.015118,0.02666 -0.024609,0.036504 0.00449,0.0066 0.011832,0.020979 0.011367,0.029414 l 0.00814,0.00875 0.010254,0.00115 c 0.00915,0.00505 0.02387,0.023481 0.025527,0.033691 0.00354,-0.00799 0.00677,-0.016885 0.010879,-0.024551 0.00338,-0.00631 0.00885,-0.011893 0.01209,-0.018242 l 0.00469,-0.012793 c 9.06e-4,-0.0025 0.002,-0.00375 0.00232,-0.00639 l -9.96e-4,-0.018145 -5.08e-4,-0.00906 -0.00299,-0.00246 c -0.011576,-0.0095 -0.00563,-0.01041 -0.010625,-0.016816 -0.00511,-0.00657 -0.013461,-0.013211 -0.019492,-0.019121 z m -0.85171879,0.087363 -0.003359,0.00244 -8.984e-4,0.00441 0.008145,0.019707 0.003613,0.0016 0.004883,-0.00312 0.001992,-0.00471 -0.001816,-0.011094 -0.0125391,-0.00924 -2e-5,0 z m 2.37324219,0.014473 c -0.00287,0.00437 5.46e-4,0.019427 0.00398,0.022891 l 0.00332,6.05e-4 0.00818,-0.014316 -0.00313,-0.00426 -0.012363,-0.00492 z m 0.092383,0.093398 -0.00207,0.00268 c -0.0017,0.010452 0.00771,0.031094 0.014941,0.038574 l 0.015977,-0.012481 -6.25e-4,-0.022324 c -0.00752,-0.00452 -0.019515,-0.00707 -0.028223,-0.00645 z m -2.73240234,0.00834 c -0.0037395,0.0087 -0.01741225,0.012861 -0.01736328,0.02332 l 0.0016797,0.00617 0.0037305,0.00244 0.00875,-0.00813 0.0080273,-6.45e-4 c 0.0033,0.00414 0.01224109,0.012828 0.0178711,0.013809 l 0.0024023,-0.00229 -8.2031e-4,-0.00332 -0.0074219,-0.00354 -0.0052344,-0.010527 0.0054492,-0.00777 -0.0022266,-0.00336 -0.01484375,-0.00617 z m 0.02947266,0.00432 -0.001582,0.00463 0.0030664,0.0067 -0.0018945,0.013535 0.0027344,0.00201 0.006934,-0.021367 -0.002695,-0.00385 -0.0065625,-0.00166 z M 0.00716797,3.0213281 0.00158203,3.024082 0,3.0273242 0.00652344,3.0422266 c 0.00307,-0.00508 0.00242903,-0.015567 6.4453e-4,-0.020898 z m 0.13583984,0.035039 -0.004473,0.00168 -0.003477,0.00537 9.766e-4,0.013984 -0.0105078,0.00701 -0.001641,0.00541 0.002285,0.00818 0.007617,0.00318 c 0.00412,0.0053 0.005923,0.011684 0.008223,0.017891 l -0.00627,0.012617 c 0.00357,0.00875 0.002713,0.023942 -3.711e-4,0.032656 7.386e-4,0.0013 0.008542,0.014891 0.008672,0.015332 0.00239,0.0085 0.002668,0.020227 0.003828,0.029121 l 0.006445,0.00461 c 0.00103,0.00343 -5.284e-4,0.00943 -0.002949,0.012031 l -0.005254,0.0024 c -0.00232,0.00639 -0.002714,0.015739 -0.001094,0.022324 l -0.002715,0.00543 c -0.00242,0.00112 -0.0236544,0.011075 -0.0290234,0.013457 l 5.273e-4,8.98e-4 3.9e-5,0.1967383 L 1.5532227,5.323457 3,5.5986719 3,3.5464062 c -0.01329,-0.01173 -0.042376,-0.033417 -0.049023,-0.036191 -0.0094,-0.00392 -0.01529,-0.00446 -0.025059,-0.0073 l -0.050117,-0.014609 -0.015293,-0.00451 c -0.00493,-0.00412 -0.00909,-0.014775 -0.010117,-0.02082 -0.00576,-0.00479 -0.027953,-0.011689 -0.034824,-0.0098 -0.035056,0.033777 -0.044394,0.021977 -0.092266,0.024726 -0.011476,6.58e-4 -0.026564,0.011199 -0.036582,0.01668 -0.015324,-0.00547 -0.03075,-0.0137 -0.044609,-0.022148 0.00122,0.00807 0.00147,0.020857 -0.00162,0.028672 -0.00611,0.0085 -0.029906,0.022311 -0.040234,0.023906 -0.00433,-0.00396 -0.01006,-0.010623 -0.014902,-0.013652 -1.06e-4,-6e-5 -0.012572,-0.00374 -0.012988,-0.00379 -9.93e-4,-1.3e-4 -0.00583,0.00118 -0.00693,0.00107 -0.014623,-0.00153 -0.041457,-0.00687 -0.053145,-0.016621 -0.00551,-0.010855 -0.011162,-0.021654 -0.016523,-0.032578 -0.00259,-0.0053 -0.00465,-0.011934 -0.00773,-0.016875 -0.00479,-0.00765 -0.013298,-0.016825 -0.021504,-0.020996 -0.013853,-0.00703 -0.072644,-0.041331 -0.08957,-0.035019 l -0.00672,0.00545 -0.00154,0.00557 c 0.00432,0.015902 0.00815,0.027576 -0.00393,0.041641 -0.00192,0 -0.037583,-1.55e-4 -0.038086,0 l -0.071074,0.022461 c -1.05e-4,4e-5 -0.017068,5.5e-4 -0.017539,4.88e-4 -3.48e-4,-4e-5 -0.00815,-0.00359 -0.00898,-0.00395 l 1.37e-4,-0.00445 0.011367,-1.56e-4 c -0.00663,-0.00353 -0.019407,-0.011728 -0.025937,-0.01377 -0.00832,-0.00261 -0.018141,-0.00387 -0.026719,-0.0057 -0.00338,-7.14e-4 -0.019353,-0.013801 -0.022774,-0.016426 l -0.00406,9.37e-4 c -6.33e-4,0.00102 -0.00811,0.013087 -0.0083,0.013242 -0.00528,0.00427 -0.039102,0.020527 -0.046426,0.02209 -5.34e-4,1.18e-4 -0.015348,-3.14e-4 -0.016875,-3.51e-4 -0.00649,-0.00379 -0.013541,-0.012826 -0.016719,-0.019492 l -0.0068,0.00484 -0.0073,-0.00143 c -0.013624,0.00615 -0.042504,0.020868 -0.056289,0.021016 -9e-5,0 -0.014105,-0.00379 -0.014453,-0.00395 -0.00798,-0.00366 -0.02177,-0.014416 -0.029609,-0.019629 -0.00452,3.6e-4 -0.023977,0.00204 -0.027285,0.00355 -0.00373,0.00169 -0.00738,0.00617 -0.010996,0.00834 -0.012618,0.00758 -0.013917,0.004 -0.024121,0.00666 -0.034509,0.00899 -0.023955,0.014453 -0.054492,0.00607 l -0.00252,-0.010371 -0.010625,-1e-4 -0.00348,-0.00422 c -0.00472,-4.28e-4 -0.010387,-4.18e-4 -0.01498,-0.00139 -8.56e-4,-1.8e-4 -0.00391,-0.00264 -0.00463,-0.00273 l -0.026269,-0.00334 -0.00225,-0.00457 -0.019707,-0.00484 c -0.00879,0.00569 -0.019344,0.00251 -0.028828,0.00578 l 0.00414,0.00857 c -0.00621,0.00319 -0.014623,0.00616 -0.019941,0.010645 l -0.00232,-0.00252 c 0.00171,-0.00556 -6.61e-4,-0.00992 -0.00305,-0.014648 l -0.013906,-0.02748 -0.017227,-0.0099 -0.00719,0.00195 0.00109,0.00492 -0.021348,-0.027246 0.00898,0.00133 0.00285,-0.00689 -0.033262,-0.020469 -0.024473,-0.00176 c -0.012494,0.00437 -0.020671,0.019717 -0.034258,0.020586 l -8.59e-4,0.00398 c 0.00619,0.00868 -5.44e-4,0.039969 -0.00391,0.050117 l 0.00529,0.00504 0.00416,0.014824 c -9.99e-4,8.19e-4 -0.012714,0.010615 -0.013242,0.01082 -0.016069,0.00629 -0.046763,0.01683 -0.061094,0.023887 -8.01e-4,3.91e-4 -0.012605,0.011921 -0.014492,0.013379 -0.00291,0.00225 -0.00731,0.00418 -0.010547,0.00604 -0.00863,0.00493 -0.032526,0.0085 -0.042773,0.00754 l -0.011934,0.00959 -0.00789,-3.52e-4 -0.00586,-0.0051 -0.00912,2.15e-4 0.00973,0.013809 -0.00518,0.02166 c -0.00856,0.00712 -0.017906,0.016508 -0.027129,0.022559 -0.00472,0.00309 -0.012303,0.00374 -0.017305,0.00656 -0.00938,0.00531 -0.00918,0.011332 -0.026191,0.015273 -0.00556,0.00128 -0.012189,2.82e-4 -0.017676,0.00168 -0.019712,0.00507 -0.043132,0.018768 -0.061367,0.027793 l -0.0051,0.00762 c -0.00149,7.26e-4 -0.020624,0.0099 -0.020879,0.010176 -7.82e-4,8.26e-4 -0.00808,0.00866 -0.00844,0.00887 -0.00504,0.00305 -0.013833,0.00464 -0.019785,0.00662 -0.00148,0.00275 -0.00712,0.010235 -0.010547,0.010918 -0.011464,0.00227 -0.026587,0.0039 -0.037481,0.00742 -0.010247,0.00331 -0.019869,0.010952 -0.030098,0.014434 -0.00961,0.00328 -0.02105,0.00371 -0.030938,0.00639 -0.0162,0.0044 -0.041223,0.014396 -0.056504,0.017344 -0.010427,0.00201 -0.016486,0.00187 -0.027031,0.00307 l -0.0541406,0.00613 c -0.038302,0.00318 -0.053837,-0.017757 -0.0825,-0.01793 l 0.007539,0.013457 c -0.00823,0.00452 -0.0134794,0.01351 -0.0189844,0.02084 l -0.006191,-2.54e-4 -0.004082,-0.00348 -0.008145,-0.00691 c -0.00769,-0.00349 -0.0179887,-0.00346 -0.0257226,-0.00689 -0.013227,-0.00585 -0.0267752,-0.014897 -0.0394922,-0.021973 l -0.0146289,-0.024902 -0.003496,-6.64e-4 1.172e-4,0.00916 -0.003828,0.00252 c -0.011569,-3.72e-4 -0.0251594,4.6e-4 -0.0365234,-0.00117 -0.00197,-2.79e-4 -0.0115563,-0.00577 -0.0132813,-0.00594 -0.00825,-8.19e-4 -0.0213319,0.00117 -0.0299219,0.00164 l -0.007422,-0.00426 c -8.131e-4,-0.00354 -0.004211,-0.011396 -0.007891,-0.013047 -0.00964,-2.23e-4 -0.0196352,0.00106 -0.0291992,0.00205 l -0.006738,0.010391 0.0128906,0.023906 0.009805,-0.00275 c 0.00618,0.00416 0.005881,0.02581 0.002891,0.032246 -0.00798,0.00348 -0.0169779,0.00913 -0.0258789,0.009 l -0.00707,-0.00391 -0.001543,-0.026816 -0.003848,-0.00348 -0.007676,-0.00695 c -0.011507,-0.00632 -0.0326901,-0.00503 -0.0453711,-0.0052 -0.00922,-1.3e-4 -0.0163431,-0.00593 -0.0231641,-0.00629 -0.00737,-3.85e-4 -0.0166661,0.00134 -0.0241211,0.00193 -1.924e-4,2e-5 -0.004238,-0.00124 -0.004687,-0.00137 -0.00168,-4.9e-4 -0.0194433,-0.00556 -0.0199023,-0.00582 -0.010421,-0.00605 -0.0191142,-0.016702 -0.0294922,-0.022871 l -0.0100781,-0.00244 -0.005039,-0.00119 -5.664e-4,-0.00516 c -0.00114,-0.00169 -0.0125906,-0.018529 -0.0128516,-0.01918 -0.00497,-0.012302 -0.009288,-0.031944 -0.013125,-0.045176 0.00308,-0.00862 0.0112097,-0.040783 0.0101367,-0.049199 -0.00124,-0.00974 -0.008579,-0.031452 -0.0114062,-0.041855 -7.4e-5,-2.67e-4 7.653e-4,-0.011373 8.398e-4,-0.012441 -0.00584,-0.00581 -0.0116954,-0.014669 -0.0142774,-0.022539 l 0.004512,-0.013398 -0.008047,-0.00104 -0.002754,-0.015859 0.002441,-0.00652 -0.003555,-0.00342 0.006895,-0.01998 -0.005137,-0.010781 c -4.221e-4,-0.00672 0.0147893,-0.022363 0.0192773,-0.026484 -7.262e-4,-0.00112 -0.007867,-0.011949 -0.008027,-0.012402 -1.676e-4,-5.09e-4 -0.001812,-0.01508 -0.001992,-0.016563 l 0.0150781,-0.022598 c -0.00556,-0.00811 -0.0109828,-0.018998 -0.0129688,-0.028711 l 0.0123828,-0.028945 -0.002637,-0.00533 -0.005273,-0.010684 c -6.642e-4,-8.13e-4 -0.009932,-0.00644 -0.0114258,-0.00777 -0.00347,-0.00311 -0.006812,-0.00782 -0.009902,-0.011367 l -0.003047,0.00291 -0.003984,-0.00125 -0.002773,-0.00447 -0.0183984,-0.00871 3.9e-5,0.00955 c -0.0011,0.00103 -0.0118254,0.010862 -0.0121484,0.011309 -1.986e-4,2.92e-4 -0.003702,0.010591 -0.004063,0.011602 l -0.006387,0.00451 c -9.186e-4,0.00814 -0.009479,0.021329 -0.0169336,0.024004 -6.95e-4,0.00281 -0.002239,0.0069 -0.002129,0.00971 2.359e-4,0.00573 -2.988e-4,0.01337 7.813e-4,0.018906 0.00146,0.00758 0.005835,0.015064 0.007285,0.022637 l -9.18e-4,0.00559 c -0.00184,0.011197 -0.012283,0.01501 -0.022207,0.016699 l -0.00457,-0.006 -0.0137109,-0.00564 c -0.00272,-0.00878 -0.004902,-0.029133 -0.001992,-0.038574 l -0.004805,-0.00973 0.002793,-0.00723 c -0.00799,-0.012668 -0.0135584,-0.02542 -0.0196094,-0.039199 -9.3e-5,-2.05e-4 -0.003848,-0.00414 -0.004258,-0.00457 l -0.00709,0.00305 -0.00416,0.015273 0.0111328,0.017988 c -0.00145,0.00925 -0.002108,0.020657 -0.004648,0.02957 -2.359e-4,8.38e-4 -0.005513,0.00691 -0.006133,0.00826 -8.007e-4,0.00171 -0.002719,0.01093 -0.003359,0.011973 -0.00108,0.00179 -0.002242,0.00239 -0.003672,0.00391 -0.00528,0.0056 -0.009114,0.00905 -0.0152539,0.013281 -8.751e-4,6.08e-4 -0.001547,7.19e-4 -0.002227,0.00154 -0.00201,0.00243 -0.003919,0.00722 -0.005469,0.010078 l -0.0104687,0.00551 -0.006562,-0.00133 -0.004199,-0.00563 6.445e-4,-0.00805 0.007363,-0.00195 0.002734,-0.00504 c -0.00794,-0.03099 -0.006152,-0.023991 -0.005332,-0.059277 l -0.008027,-0.012734 c 0.00447,-0.015715 -0.006572,-0.032894 0.006348,-0.047461 -1.8e-4,-0.00778 -0.001679,-0.018547 -6.055e-4,-0.026094 3.1e-5,-2.48e-4 0.005389,-0.010291 0.005859,-0.011191 4.593e-4,-0.00483 -0.007652,-0.017721 -0.009902,-0.021973 l 0.003145,-0.00689 -0.0185351,-0.039141 -0.009863,-0.00143 -0.005703,-0.00566 -0.004238,-0.015957 0.001875,-0.00105 c -0.00512,-1.18e-4 -0.0119959,-0.00624 -0.0143359,-0.010391 l 0.002754,-0.00648 -0.002891,-8.4e-4 z m 2.20880859,8.4e-4 -0.00463,0.0024 -0.00184,0.00781 c 9e-4,0.00398 0.00456,0.010022 0.00826,0.01207 l 0.00721,-0.010254 c -0.00108,-0.00384 -0.00502,-0.010449 -0.00898,-0.012031 l -2e-5,0 z m -0.7379102,0.025996 -0.00656,0.00783 -0.00668,0.00227 c -0.00294,-0.00152 -0.01083,-0.00429 -0.014219,-0.00279 -0.00535,0.0048 -0.014665,0.013442 -0.018047,0.019102 l -0.00781,0.019824 c -8.75e-4,0.00441 -5.87e-4,0.007 -9.57e-4,0.011465 l -0.00191,0.022949 c 6.2e-6,4.59e-4 0.00758,0.024995 0.00783,0.02582 8.57e-4,0.00283 7.95e-4,0.00465 0.00221,0.00725 7.76e-4,0.00142 0.022788,0.033098 0.023906,0.034394 0.00332,0.00386 0.013964,0.00489 0.016621,0.01541 0.00317,-0.00317 0.00961,-0.012282 0.00879,-0.017266 l 0.006,-0.00305 0.00262,-0.00906 0.014258,-0.00787 0.00234,0.00488 -0.00268,0.011621 0.00402,9.18e-4 0.00338,-0.00209 0.00777,-0.028672 0.016699,-0.012519 c 0.00581,-0.019036 0.010821,-0.059613 0.00102,-0.077774 l -0.00439,-0.00361 -0.00877,-0.00723 c -0.00719,-0.00369 -0.020195,-0.00358 -0.025664,-0.010234 l -0.00771,3.91e-4 -0.00416,0.00279 -0.00789,-0.00475 z m 0.6946876,0.021914 c -0.00479,-9e-5 -0.012432,0.00245 -0.015879,0.0059 -0.00445,0.00696 -0.00684,0.018264 -6.05e-4,0.02498 l 0.028516,0.013691 0.00361,-0.00129 4.88e-4,-0.0048 c -0.00626,-0.00782 -0.010765,-0.023305 -0.01002,-0.033242 l -0.00609,-0.00523 -2e-5,0 z m 0.3513476,0.044082 -0.015098,0.014297 -0.00949,-0.00189 -0.019023,-0.00379 c -0.00772,-4.84e-4 -0.020903,0.00203 -0.028574,0.00477 -0.015629,0.00556 -0.059833,0.022832 -0.07625,0.020293 l -0.00357,0.0024 -1.95e-4,0.00293 0.013926,0.00816 -0.00207,0.00268 -0.00658,0.00102 0.00168,0.00359 c 0.00878,0.00598 0.018037,0.013416 0.027266,0.018555 2.48e-4,1.3e-4 0.00843,0.00162 0.00924,0.00178 l 0.010352,-0.00391 c 0.011768,-0.00444 0.013267,-0.013307 0.017754,-0.024219 l 6.05e-4,-0.00146 0.00621,-6.64e-4 0.012422,-0.00129 c 0.0083,6.77e-4 0.017196,0.00712 0.025879,0.00467 l 0.00408,-0.0068 -0.00221,-0.0083 0.00158,-0.00523 0.00697,4.3e-4 0.00576,0.00484 0.00117,0.00973 0.00234,0.019473 c 0.00186,0.00639 0.017265,0.018213 0.022969,0.020957 l -0.00225,-0.0092 -0.00451,-0.018379 c 0,-0.00878 0.012526,-0.03217 0.016914,-0.039277 l 0.0083,0.00584 0.0024,-0.00416 -0.014746,-0.017656 -0.013242,-1.37e-4 -2e-5,-4e-5 z m -2.43294921,2.74e-4 c -0.00267,0.00745 -0.006738,0.016972 -0.003418,0.024805 l 0.0100586,0.00732 -0.001211,0.013555 0.014043,0.018809 0.006406,-0.00381 -0.003652,-0.011504 0.003398,-0.00355 -0.0145703,-0.013711 c 3.476e-4,-0.00886 -0.003254,-0.026557 -0.0110352,-0.031914 l -2e-5,0 z m 2.23396481,0.0042 -0.00687,0.00219 -0.00416,0.00492 c -0.00649,0.015107 0.019378,0.037545 0.034746,0.036875 l 0.00738,-0.00768 0.00121,-0.00518 -0.00211,-0.00578 -0.030195,-0.025351 z m 0.2649219,0.049766 c -0.00612,0.00155 -0.018886,0.017123 -0.022461,0.021934 l 9.77e-4,0.00506 0.00492,0.00346 c 0.00425,4.9e-4 0.032445,-0.020119 0.035586,-0.024004 l -0.00199,-0.00355 -0.017031,-0.00289 z m -1.97144531,0.050293 c -0.001141,7.15e-4 -0.0128648,0.00801 -0.0131445,0.0083 -3.29e-4,3.48e-4 -0.007503,0.013115 -0.008223,0.014375 1.427e-4,0.00182 0.001594,0.01883 0.001504,0.019531 -8.255e-4,0.00662 -0.00469,0.01558 -0.00666,0.022109 l 0.001289,0.00408 0.005547,-8.98e-4 0.001953,-0.00359 c 0.00356,9.68e-4 0.007117,0.00787 0.008047,0.010977 l 0.003633,0.00119 c 0.00405,-0.012904 0.0118241,-0.0132 0.0157031,-0.018867 l 0.004805,-0.011289 0.002402,-0.00566 -0.002363,-0.015137 0.003242,-0.0083 c -0.00254,-0.00261 -0.006583,-0.00916 -0.006113,-0.013086 -0.002576,-0.00236 -0.008127,-0.00416 -0.0116016,-0.00373 l -2e-5,0 z m 2.03324221,0.050332 -0.040977,0.00188 c -0.00229,0.00369 -0.0038,0.010867 -0.00262,0.015137 l 0.013887,0.015508 c 0.00883,0.00465 0.025091,-5.59e-4 0.034805,2.54e-4 l 0.00846,0.00328 0.00424,0.00164 5.27e-4,-0.00439 c -0.00804,-0.00866 -0.015012,-0.02203 -0.01832,-0.033301 z m 0.1696289,0.023965 -0.00217,0.00891 c 0.00116,0.00582 0.00624,0.015651 0.011816,0.018555 l 0.00508,-0.00133 8.59e-4,-0.00557 -0.00664,-0.016914 -0.00895,-0.00365 z m -2.23404298,0.00711 -0.009082,0.058731 0.009121,3.52e-4 0.004922,0.00605 0.009531,0 0.003477,-0.00426 c -0.00505,-0.00934 -0.008474,-0.017906 -5.469e-4,-0.026465 l -0.008437,4.49e-4 -0.001719,-0.00191 0.004434,-0.01123 c -0.00191,-0.00323 -0.002907,-0.00973 -0.001387,-0.013281 l -0.00375,-0.00711 -0.006543,-0.00133 -2e-5,0 z m 1.53828128,0.058379 -0.033379,0.00639 -0.00203,0.00338 0.00566,0.00307 0.029355,-0.00582 0.00271,-0.00457 -0.00232,-0.00244 z m -0.06082,0.0066 0,2e-5 -0.00582,0.00137 c -0.00277,0.00956 0.00905,0.020763 0.015879,0.025313 l 0.00402,1.37e-4 0.00199,-0.00449 c -0.0022,-0.00739 -0.00921,-0.018353 -0.016074,-0.022344 z m 0.3845312,0.036816 c -0.00703,-4.72e-4 -0.017825,0.00143 -0.023926,0.00516 l -0.00307,0.01332 0.00324,0.00607 c 0.00566,0.00634 0.023369,0.00166 0.030898,0.00262 l 0.00648,0.00338 0.00326,0.00168 0.00246,-0.00193 c -0.00323,-0.011116 -0.00924,-0.023826 -0.019336,-0.030293 l -2e-5,0 z m -1.2057031,0.033379 -0.015059,0.010391 0.00664,0.00801 0.00113,0.00813 0.010684,0.00775 0.00666,-0.00154 c -0.00378,-0.0069 -3.34e-4,-0.021425 0.00295,-0.027793 l -0.00277,-0.00377 -0.010215,-0.00117 -2e-5,0 z"
     id="red"
     style="fill:#ff0000;fill-opacity:1"
     inkscape:connector-curvature="0" />
</svg>
