<?xml version="1.0" encoding="UTF-8" ?>
<!DOCTYPE svg PUBLIC "-//W3C//DTD SVG 1.1//EN" "http://www.w3.org/Graphics/SVG/1.1/DTD/svg11.dtd">
<svg width="1000pt" height="1049pt" viewBox="0 0 1000 1049" version="1.1" xmlns="http://www.w3.org/2000/svg">
<g id="#0038a8ff">
<path fill="#0038a8" opacity="1.00" d=" M 268.36 0.00 L 269.65 0.00 C 270.92 1.26 272.25 2.48 273.56 3.72 C 278.38 3.17 283.21 2.44 288.07 2.88 C 291.70 3.30 295.23 2.20 298.82 2.08 C 301.92 3.65 303.79 6.78 306.22 9.16 C 307.58 9.77 309.11 10.14 310.27 11.13 C 311.01 13.49 310.47 16.00 310.42 18.41 C 316.80 16.74 323.05 21.43 326.12 26.76 C 328.18 26.62 330.21 26.14 332.20 25.59 C 333.71 26.05 335.21 26.51 336.73 26.97 C 335.74 27.80 334.76 28.63 333.78 29.46 C 337.26 33.37 339.95 37.87 342.94 42.14 C 343.52 44.18 341.64 46.03 340.99 47.91 C 342.83 47.10 344.67 46.27 346.49 45.40 C 346.95 45.46 347.88 45.59 348.35 45.66 C 348.59 46.66 348.84 47.65 349.08 48.65 C 349.86 49.34 350.65 50.03 351.44 50.71 C 352.72 50.17 354.02 49.66 355.33 49.16 C 356.65 53.13 354.72 56.66 353.45 60.32 C 355.26 60.19 357.07 59.85 358.90 59.93 C 360.63 62.27 362.18 64.75 364.16 66.91 C 366.01 66.37 367.87 65.83 369.74 65.31 C 370.77 67.35 371.87 69.34 373.02 71.31 C 372.67 71.75 371.97 72.64 371.62 73.09 C 372.44 73.99 373.28 74.88 374.13 75.77 C 375.28 75.29 376.44 74.81 377.60 74.34 C 378.20 76.92 379.75 78.97 382.00 80.34 C 381.56 80.84 380.67 81.83 380.23 82.33 C 381.73 85.30 383.45 88.25 386.29 90.14 C 386.71 89.30 387.54 87.62 387.95 86.78 C 390.11 88.62 392.03 90.72 393.78 92.95 C 393.78 93.87 393.77 95.71 393.77 96.62 C 395.70 96.02 397.65 95.40 399.50 94.54 C 399.90 94.68 400.72 94.94 401.13 95.08 C 402.54 98.98 405.58 101.89 407.75 105.34 C 409.67 105.48 411.60 105.64 413.52 105.85 C 413.82 107.63 414.15 109.41 414.49 111.19 C 417.78 111.51 421.03 112.37 423.26 114.98 C 422.83 115.94 422.41 116.90 421.99 117.86 C 422.78 118.83 423.59 119.79 424.41 120.75 C 424.27 122.09 424.22 123.44 424.25 124.78 C 425.59 126.48 427.39 127.72 429.06 129.07 C 428.74 130.04 428.48 131.03 428.26 132.03 C 430.26 134.47 432.02 137.15 431.75 140.48 C 434.54 139.07 437.02 140.31 438.59 142.75 C 440.06 142.35 441.58 140.72 443.12 141.73 C 443.41 143.43 443.45 145.16 443.51 146.88 C 443.85 147.22 444.54 147.90 444.88 148.24 C 445.67 148.25 447.26 148.26 448.05 148.27 C 450.95 152.42 453.26 156.98 455.54 161.50 C 456.71 163.36 458.68 165.37 457.74 167.77 C 456.22 172.11 454.04 176.46 455.03 181.22 C 454.42 182.27 453.82 183.31 453.21 184.35 C 453.41 184.75 453.81 185.55 454.01 185.96 C 454.27 187.54 454.54 189.14 454.82 190.73 C 453.67 197.04 452.61 203.60 453.97 209.96 C 457.01 212.18 460.38 214.12 464.02 215.18 C 468.02 215.44 472.02 214.75 475.98 214.21 C 479.86 213.83 482.42 210.53 485.51 208.54 C 489.74 205.81 492.57 201.42 497.06 199.04 C 501.91 196.42 505.20 191.85 509.58 188.63 C 511.94 186.82 515.09 188.84 517.68 187.83 C 521.51 184.39 521.38 178.79 521.10 174.06 C 521.05 171.08 520.56 167.24 523.40 165.30 C 525.90 163.86 529.57 163.04 532.01 165.01 C 533.93 166.99 534.81 169.69 536.03 172.12 C 538.73 173.67 541.51 175.15 543.91 177.17 C 546.51 179.41 547.34 182.94 549.42 185.57 C 552.13 187.72 555.74 188.41 558.36 190.71 C 560.31 193.17 559.54 196.96 561.75 199.22 C 565.27 201.40 569.83 202.09 572.34 205.71 C 576.71 210.69 577.03 217.50 578.61 223.62 C 579.49 227.89 584.89 228.50 586.68 232.20 C 589.81 238.24 592.01 244.74 595.38 250.67 C 596.96 253.38 600.45 253.59 603.11 254.64 C 610.40 256.63 614.74 263.70 621.77 266.23 C 626.39 267.99 632.13 265.89 634.54 261.58 C 635.62 260.05 636.28 258.05 638.07 257.18 C 641.81 260.91 643.28 266.24 646.88 270.10 C 649.60 272.87 650.87 276.57 651.39 280.36 C 654.35 280.82 657.38 281.02 660.26 281.94 C 665.42 283.76 666.83 290.42 672.01 292.12 C 676.99 291.61 681.91 290.22 686.96 290.59 C 691.41 290.61 695.55 292.68 700.00 292.65 C 705.84 292.78 711.68 293.01 717.51 292.73 C 718.27 295.14 719.10 297.54 719.99 299.92 C 724.08 301.80 728.36 303.42 732.04 306.07 C 734.78 308.04 735.59 311.54 736.60 314.57 C 738.93 322.71 740.41 331.08 741.27 339.50 C 754.37 347.47 766.29 357.21 778.52 366.42 C 784.78 371.49 791.50 376.03 797.31 381.62 C 800.88 385.45 806.19 386.90 809.92 390.57 C 810.67 390.52 812.18 390.41 812.94 390.36 C 814.77 388.73 816.40 386.45 818.95 385.96 C 821.47 385.72 822.83 388.18 824.20 389.86 C 826.45 394.17 832.29 391.83 835.75 394.64 C 835.22 396.12 834.69 397.59 834.18 399.07 C 834.62 399.66 835.51 400.82 835.95 401.40 C 836.35 401.02 837.16 400.27 837.57 399.89 C 839.78 401.76 842.55 402.67 845.06 404.05 C 846.97 405.44 847.89 407.74 849.16 409.66 C 851.13 409.92 853.70 409.17 855.06 411.08 C 855.75 412.80 855.67 414.71 855.95 416.53 C 856.32 416.73 857.06 417.15 857.43 417.35 C 858.20 419.29 859.05 421.19 859.79 423.15 C 864.15 425.72 869.23 426.26 873.95 427.85 C 876.14 428.19 876.89 430.50 878.12 432.04 C 879.30 432.46 880.49 432.89 881.70 433.32 C 879.99 434.86 878.13 436.25 876.75 438.10 C 877.49 439.63 878.47 441.02 879.42 442.43 C 879.40 442.97 879.37 444.05 879.35 444.60 C 879.73 444.89 880.49 445.47 880.87 445.76 C 880.80 448.77 882.78 450.94 884.68 453.00 C 884.56 453.48 884.33 454.43 884.21 454.91 C 886.24 456.84 887.73 459.26 889.17 461.66 C 889.41 463.91 888.34 466.89 890.48 468.49 C 891.21 469.18 891.97 469.86 892.76 470.53 C 893.01 470.96 893.52 471.84 893.78 472.27 C 896.35 474.35 896.04 477.55 894.28 480.05 C 895.40 482.22 896.58 484.36 897.81 486.49 C 897.09 488.61 896.09 490.69 895.94 492.96 C 897.00 495.14 900.70 495.08 900.74 498.02 C 901.25 501.98 904.95 504.06 907.01 507.15 C 909.40 510.51 913.06 512.54 916.43 514.76 C 917.12 514.54 917.82 514.33 918.53 514.13 C 921.78 514.21 925.01 513.67 928.19 512.98 C 928.94 519.39 931.89 525.15 935.11 530.65 C 937.16 532.04 939.00 533.75 941.09 535.12 C 942.40 534.74 943.67 534.20 945.02 533.86 C 950.68 535.88 956.49 538.09 960.76 542.53 C 962.89 541.25 965.14 539.21 967.84 540.13 C 969.42 541.98 970.31 544.30 971.86 546.19 C 973.89 547.55 976.39 547.89 978.71 548.57 C 984.37 557.55 995.66 561.54 1000.00 571.48 L 1000.00 574.92 C 999.15 576.35 998.30 577.85 996.95 578.87 C 993.41 581.71 987.75 578.85 984.69 582.55 C 983.28 585.84 983.15 589.75 980.68 592.54 C 974.73 599.66 964.37 600.35 958.15 607.19 C 961.28 609.67 965.33 610.03 969.08 611.00 C 965.28 616.15 959.50 619.04 954.03 622.03 C 949.55 624.38 946.06 628.11 941.90 630.91 C 937.04 634.27 931.98 637.64 928.54 642.55 C 925.47 646.93 922.80 651.57 920.12 656.19 C 916.98 661.56 916.62 667.96 916.57 674.03 C 916.48 684.43 918.93 694.63 919.34 705.00 C 919.93 723.72 915.47 742.26 916.67 761.00 C 916.77 764.63 916.57 768.26 916.31 771.89 C 921.46 772.32 926.89 772.14 931.74 774.23 C 935.03 775.64 934.03 779.93 934.65 782.80 C 938.17 784.13 941.81 785.09 945.45 786.05 C 942.26 788.51 938.47 789.92 935.07 792.01 C 929.03 797.39 924.89 804.67 922.21 812.24 C 920.13 817.96 920.80 824.16 919.63 830.06 C 918.74 834.51 915.79 838.36 915.59 842.98 C 915.20 846.34 915.61 849.96 914.09 853.09 C 912.07 855.90 908.51 856.84 905.77 858.76 C 900.76 861.84 899.03 867.98 894.60 871.67 C 891.89 873.97 888.85 875.83 886.12 878.11 C 881.31 881.84 878.71 887.51 875.23 892.36 C 872.70 895.74 872.52 900.05 871.81 904.05 C 871.32 907.16 869.23 909.79 868.87 912.92 C 869.92 915.48 873.59 917.76 871.82 920.81 C 868.96 925.17 863.74 927.06 859.21 929.17 C 850.73 932.44 843.34 937.81 835.86 942.83 C 829.48 946.99 824.38 952.70 818.93 957.94 C 812.85 963.89 806.88 969.95 801.09 976.19 C 801.24 978.19 802.01 980.32 801.33 982.31 C 799.11 984.65 795.42 984.12 792.50 984.73 C 787.35 984.93 782.62 987.26 777.52 987.69 C 777.98 984.80 779.81 982.59 782.07 980.88 C 780.79 978.31 779.28 975.79 778.68 972.97 C 777.92 969.68 781.45 967.29 781.16 964.06 C 779.38 963.19 777.41 963.71 775.56 963.87 C 775.61 971.06 765.79 970.45 763.35 976.05 C 763.89 977.28 764.59 978.45 765.27 979.64 C 765.37 978.62 765.59 976.57 765.69 975.55 C 770.95 976.13 775.86 980.60 775.95 986.04 C 775.77 989.31 772.08 990.27 769.81 991.85 C 764.24 995.75 757.46 997.20 751.64 1000.63 C 743.84 1005.00 736.29 1009.99 727.71 1012.71 C 722.36 1014.66 716.47 1016.12 712.50 1020.48 C 709.16 1024.52 703.49 1022.51 699.08 1023.95 C 690.61 1026.87 684.12 1033.59 675.73 1036.69 C 670.52 1038.57 664.91 1039.32 659.96 1041.91 C 656.70 1043.58 654.45 1046.57 651.79 1049.00 L 648.38 1049.00 C 648.56 1046.69 648.70 1044.37 648.79 1042.07 C 645.49 1037.21 638.83 1038.02 633.72 1037.79 C 632.94 1035.52 633.70 1032.01 630.98 1031.03 C 623.27 1027.92 614.65 1029.50 607.01 1032.01 C 601.73 1033.46 595.51 1035.86 590.54 1032.38 C 587.65 1031.51 586.88 1028.95 586.75 1026.22 C 580.87 1019.94 574.59 1011.62 565.01 1012.11 C 557.01 1012.57 548.95 1013.08 540.99 1011.94 C 537.11 1010.89 533.71 1008.58 529.84 1007.53 C 527.56 1007.10 525.23 1007.49 522.94 1007.44 C 519.21 1007.46 515.74 1005.75 512.03 1005.66 C 508.75 1005.75 506.08 1007.96 503.00 1008.78 C 499.02 1009.29 494.81 1008.17 491.01 1009.85 C 485.86 1011.63 481.64 1015.69 476.12 1016.45 C 468.29 1017.22 462.78 1023.36 456.57 1027.48 C 449.33 1032.68 440.08 1032.93 431.86 1035.63 C 428.51 1036.69 425.67 1039.28 422.06 1039.44 C 421.19 1038.60 420.37 1037.75 419.58 1036.87 C 417.89 1036.71 416.22 1036.57 414.54 1036.42 C 415.08 1034.52 415.65 1032.64 416.20 1030.76 C 414.92 1030.62 413.65 1030.44 412.36 1030.47 C 410.04 1031.64 408.61 1034.20 406.10 1035.01 C 402.41 1034.59 398.73 1034.56 395.03 1034.83 C 392.39 1033.30 391.85 1029.52 388.98 1028.17 C 385.01 1026.26 382.06 1022.74 377.89 1021.23 C 376.82 1020.49 374.84 1020.49 374.61 1018.97 C 376.24 1013.82 381.73 1011.94 386.01 1009.56 C 382.68 1008.83 379.29 1008.53 375.98 1007.81 C 373.08 1007.23 370.88 1005.08 368.14 1004.14 C 362.15 1003.43 356.33 1006.44 350.36 1005.47 C 345.32 1003.69 342.39 998.35 337.09 997.03 C 329.47 994.90 321.47 994.45 313.97 991.83 C 307.95 989.72 301.56 988.38 296.14 984.88 C 293.51 983.23 290.26 983.04 287.65 981.39 C 286.16 978.87 286.08 975.31 283.23 973.82 C 279.70 971.81 276.82 968.96 274.02 966.08 C 270.51 962.46 265.16 961.78 261.34 958.67 C 259.26 956.08 258.78 952.63 257.05 949.85 C 254.94 946.47 252.37 943.37 249.45 940.68 C 246.43 937.67 241.69 939.50 238.13 937.71 C 227.53 931.97 215.26 938.40 204.06 935.59 C 200.02 934.31 195.97 935.85 191.95 936.33 C 188.88 936.72 186.03 934.80 182.99 935.06 C 179.21 936.17 176.10 939.23 172.03 939.36 C 168.02 939.08 166.27 933.80 162.08 934.05 C 156.78 934.13 151.98 936.63 146.97 938.06 C 140.06 939.94 133.12 941.96 125.92 942.33 C 121.11 942.48 117.10 946.42 112.23 945.77 C 109.95 943.98 111.11 940.12 108.45 938.60 C 103.06 934.84 103.57 927.49 100.98 922.05 C 96.47 911.85 86.37 905.81 80.65 896.44 C 78.63 892.92 74.52 891.88 71.45 889.61 C 68.58 887.21 69.58 882.65 67.05 880.06 C 60.16 874.87 50.48 878.17 43.36 873.60 C 41.84 870.68 43.36 867.07 42.00 864.07 C 40.34 860.53 38.26 857.20 36.09 853.96 C 34.23 851.11 30.99 849.65 28.79 847.13 C 26.90 844.16 26.79 840.28 24.30 837.67 C 19.50 832.60 12.23 830.66 7.73 825.23 C 5.37 822.42 5.82 818.51 5.32 815.12 C 4.94 810.94 2.68 807.25 2.09 803.13 C 1.15 796.42 2.23 789.63 1.42 782.91 C 1.09 779.93 0.37 776.99 0.34 773.98 C 0.27 768.82 3.89 764.28 3.21 759.07 C 2.51 753.37 -0.54 747.87 0.81 742.03 C 1.76 735.91 6.73 731.74 9.81 726.71 C 11.69 723.79 12.10 719.70 10.24 716.69 C 8.73 715.59 6.83 715.28 5.09 714.71 C 4.69 713.83 4.29 712.96 3.90 712.10 C 4.81 709.03 5.54 705.89 6.83 702.95 C 8.51 698.76 13.82 697.90 15.84 693.98 C 17.04 691.50 17.44 688.70 17.55 685.99 C 17.67 682.51 15.14 679.53 15.48 676.02 C 15.75 671.26 14.66 666.61 13.94 661.95 C 13.21 657.60 14.56 652.79 17.94 649.87 C 21.81 648.77 25.94 649.43 29.91 649.36 C 30.82 646.70 33.86 647.07 36.05 646.47 C 43.42 645.28 51.53 642.38 55.18 635.35 C 58.29 628.97 58.81 621.76 60.43 614.94 C 61.66 611.07 58.81 607.42 59.68 603.54 C 60.92 596.85 58.80 590.22 57.18 583.80 C 53.09 571.95 54.81 559.23 53.60 546.98 C 53.00 543.29 50.63 540.21 49.62 536.64 C 46.90 527.66 45.01 518.34 44.95 508.93 C 45.00 502.93 45.84 496.49 49.66 491.64 C 52.36 488.18 57.36 487.36 59.52 483.39 C 61.49 479.86 63.18 476.02 63.51 471.95 C 63.85 467.22 59.51 464.20 58.13 460.02 C 56.21 453.86 49.16 450.64 48.17 444.07 C 48.22 439.43 49.43 434.87 50.62 430.40 C 51.54 426.84 54.03 424.05 55.84 420.95 C 56.78 418.06 55.57 415.05 55.08 412.18 C 52.91 412.09 50.75 411.98 48.59 411.86 C 50.09 410.31 51.86 408.96 53.03 407.12 C 53.17 401.57 49.71 396.80 46.24 392.81 C 42.15 388.64 43.45 381.29 47.55 377.58 C 51.99 373.38 58.48 372.69 64.30 373.21 C 68.79 369.09 71.25 363.42 73.54 357.91 C 78.44 345.87 81.81 333.30 85.66 320.90 C 83.74 317.01 82.07 312.96 79.62 309.37 C 76.56 305.03 69.85 305.64 67.02 301.04 C 64.90 297.79 66.83 293.71 69.17 291.16 C 72.88 286.97 78.43 285.45 83.35 283.23 C 86.04 282.12 84.66 278.84 84.32 276.73 C 83.09 273.18 84.25 269.49 85.41 266.10 C 86.97 261.21 92.65 259.17 94.12 254.23 C 96.11 248.07 97.85 241.81 99.27 235.49 C 100.10 231.99 98.26 228.50 98.88 225.02 C 100.90 218.64 105.61 213.42 107.36 206.93 C 108.25 197.25 99.83 190.13 98.32 181.02 C 97.72 178.18 100.77 176.67 103.12 176.42 C 106.73 175.75 109.52 178.89 113.00 179.07 C 116.01 175.99 117.05 171.58 118.51 167.65 C 119.63 164.81 118.30 161.90 118.19 159.02 C 118.45 156.63 119.40 154.36 119.52 151.96 C 119.44 148.61 118.33 145.39 118.13 142.05 C 117.83 138.72 118.31 135.35 117.75 132.05 C 116.49 128.39 113.07 126.10 111.27 122.76 C 110.45 120.43 110.81 117.89 110.27 115.50 C 108.09 112.77 104.75 111.08 103.03 107.96 C 103.47 103.99 104.31 100.07 104.50 96.07 C 104.70 90.73 108.71 86.73 112.09 83.02 C 115.01 79.69 119.72 78.93 122.79 75.79 C 124.87 73.84 126.93 71.84 129.33 70.27 C 135.32 66.31 140.98 61.86 147.04 58.02 C 152.50 51.98 152.09 43.11 155.15 35.90 C 152.94 32.82 150.11 30.17 148.37 26.79 C 147.24 24.77 147.91 22.05 149.93 20.89 C 153.11 20.25 156.85 20.96 158.72 23.87 C 161.29 24.92 164.24 25.84 165.71 28.42 C 167.76 31.65 165.40 35.53 166.14 38.99 C 167.91 41.46 171.05 42.75 174.01 43.00 C 176.70 42.46 178.55 40.10 181.14 39.28 C 182.93 39.55 184.51 40.48 186.14 41.20 C 187.51 41.34 188.89 41.41 190.25 41.68 C 191.18 42.83 191.23 44.44 191.72 45.80 C 192.94 46.39 194.16 46.97 195.39 47.55 C 196.48 45.24 197.13 42.63 198.90 40.70 C 200.86 40.41 202.32 41.82 203.80 42.83 C 206.00 41.38 207.96 39.58 210.18 38.16 C 213.25 38.86 214.49 42.41 216.45 44.57 C 217.93 43.89 219.38 43.10 220.95 42.64 C 222.99 42.96 224.96 43.65 227.02 43.88 C 229.64 43.78 230.85 41.03 232.27 39.23 C 233.92 36.56 236.44 34.67 238.75 32.62 C 238.13 30.70 237.40 28.83 236.79 26.92 C 240.14 21.81 241.95 14.88 247.79 12.04 C 247.59 10.56 247.36 9.08 247.12 7.61 C 247.90 7.34 249.47 6.80 250.26 6.54 C 250.76 6.97 251.76 7.82 252.26 8.25 C 252.07 7.41 251.69 5.74 251.50 4.90 C 252.92 3.67 254.31 2.38 255.91 1.38 C 257.37 2.23 258.51 3.54 260.03 4.30 C 263.23 3.96 265.79 1.74 268.36 0.00 M 259.98 6.01 C 258.12 6.08 256.83 4.61 255.52 3.54 C 254.87 4.20 254.22 4.87 253.59 5.54 C 254.86 7.63 253.59 9.49 252.31 11.14 C 251.27 10.13 250.23 9.12 249.18 8.13 C 249.32 10.12 249.52 12.12 249.58 14.12 C 248.76 14.20 247.12 14.36 246.30 14.44 C 243.57 18.48 241.11 22.68 238.65 26.88 C 239.34 28.93 239.99 31.00 240.59 33.08 C 239.56 34.20 238.53 35.31 237.53 36.45 C 233.50 38.19 233.00 43.60 228.91 45.25 C 226.25 46.41 223.51 44.96 220.99 44.15 C 219.66 44.99 218.34 45.85 217.04 46.74 C 213.93 45.22 212.51 41.91 210.21 39.51 C 209.87 40.10 209.19 41.29 208.86 41.88 C 207.10 42.86 205.37 43.89 203.66 44.94 C 202.34 44.01 201.05 43.06 199.76 42.10 C 198.55 44.69 197.74 47.57 195.58 49.58 C 193.74 48.75 191.85 48.03 190.09 47.06 C 189.79 45.72 189.53 44.38 189.31 43.02 C 188.12 43.17 186.92 43.31 185.73 43.45 C 184.22 42.59 182.88 41.09 181.04 41.05 C 178.47 42.48 176.21 45.37 172.92 44.66 C 169.84 44.10 166.64 42.68 164.77 40.07 C 162.90 36.91 165.77 33.22 164.55 29.93 C 163.71 27.96 161.59 27.08 159.94 25.94 C 159.12 26.16 157.50 26.61 156.68 26.84 C 156.53 25.54 156.33 24.26 156.09 22.98 C 153.82 22.88 149.18 21.11 149.54 25.01 C 150.86 29.10 154.88 31.50 156.61 35.37 C 157.07 36.59 156.21 37.82 155.98 39.00 C 153.82 45.19 153.47 52.11 149.72 57.68 C 148.18 60.24 145.16 61.09 142.91 62.82 C 136.67 68.00 129.12 71.53 123.55 77.52 C 120.87 80.46 116.47 80.82 113.81 83.79 C 111.04 86.68 108.20 89.72 106.64 93.46 C 105.73 98.08 106.25 102.95 104.52 107.42 C 106.78 110.24 110.02 112.13 112.17 115.03 C 112.48 117.18 112.25 119.38 112.60 121.53 C 114.49 125.28 118.51 127.76 119.58 131.99 C 120.07 134.94 119.57 137.95 119.75 140.92 C 119.89 144.66 121.14 148.26 121.37 151.98 C 121.26 154.40 120.25 156.66 119.85 159.04 C 120.12 161.71 121.60 164.34 120.50 167.04 C 119.12 171.24 117.78 175.59 115.30 179.28 C 112.90 182.31 109.13 179.89 106.49 178.60 C 104.16 177.30 98.80 178.33 100.20 181.96 C 102.86 190.56 109.84 197.86 109.32 207.38 C 108.48 209.36 107.61 211.33 106.68 213.28 C 104.77 216.84 102.74 220.34 101.04 224.01 C 99.25 227.53 102.06 231.30 101.15 234.95 C 99.66 241.93 97.73 248.83 95.48 255.61 C 94.08 259.77 89.68 261.74 87.57 265.41 C 86.55 268.12 85.55 270.95 85.44 273.88 C 85.99 277.20 88.22 281.42 85.22 284.21 C 80.51 286.83 74.78 287.81 70.92 291.87 C 68.62 294.08 66.47 298.08 69.04 300.88 C 72.36 304.26 78.13 304.01 80.90 308.13 C 83.19 311.52 84.95 315.26 86.68 318.96 C 87.89 320.95 86.73 323.11 86.22 325.12 C 82.01 338.63 78.38 352.42 72.17 365.20 C 70.29 368.72 68.37 372.58 64.85 374.73 C 60.91 375.06 56.76 374.48 53.04 376.18 C 48.64 377.79 45.03 382.10 45.56 387.00 C 45.55 391.12 49.70 393.21 51.38 396.60 C 53.75 400.57 56.48 406.05 53.35 410.35 C 53.99 410.38 55.27 410.45 55.91 410.48 C 57.85 414.52 59.39 420.32 56.02 424.03 C 51.57 429.29 50.87 436.50 49.89 443.06 C 50.29 450.10 58.61 453.20 59.98 459.91 C 61.02 463.23 64.26 465.42 64.95 468.92 C 66.11 474.50 63.34 479.93 60.77 484.72 C 58.41 489.12 52.52 489.65 50.12 494.00 C 47.32 498.46 46.74 503.88 46.70 509.04 C 46.77 518.33 48.68 527.53 51.37 536.39 C 52.36 540.09 55.09 543.16 55.39 547.06 C 56.17 557.62 55.55 568.30 57.39 578.77 C 359.27 578.84 661.16 578.78 963.05 578.80 C 973.00 578.72 982.96 579.02 992.90 578.52 C 996.76 578.48 999.80 573.85 997.57 570.42 C 992.69 562.13 982.94 558.28 977.78 550.19 C 975.11 549.36 972.08 548.92 969.97 546.97 C 968.80 545.02 967.85 542.95 966.42 541.18 C 964.55 542.24 962.83 543.54 960.87 544.42 C 958.90 543.91 957.69 542.01 956.08 540.89 C 952.99 537.97 948.39 538.05 945.11 535.44 C 943.78 536.21 942.49 537.31 940.88 537.27 C 938.36 536.02 936.94 533.16 934.01 532.62 C 931.63 526.83 926.78 521.53 927.26 514.96 C 923.52 515.83 919.68 516.06 915.88 516.52 C 912.20 514.20 908.57 511.77 905.54 508.64 C 904.37 505.35 901.07 503.71 899.09 501.00 C 899.08 499.73 899.07 498.46 899.05 497.20 C 897.45 496.32 895.09 496.05 894.46 494.08 C 893.38 491.48 894.98 488.95 895.77 486.54 C 894.25 483.77 892.53 481.09 891.56 478.07 C 892.14 477.89 893.29 477.54 893.87 477.36 C 894.54 475.13 892.03 473.64 891.30 471.75 C 890.00 470.56 888.74 469.34 887.43 468.19 C 887.39 466.31 887.37 464.43 887.36 462.56 C 788.96 462.59 690.55 462.53 592.15 462.59 C 592.09 423.82 592.13 385.06 592.13 346.29 C 644.19 346.24 696.25 346.44 748.30 346.19 C 745.52 344.07 742.57 342.17 739.48 340.55 C 738.79 330.81 736.94 321.12 733.86 311.86 C 731.84 305.25 723.91 304.45 718.86 301.12 C 717.64 299.08 716.95 296.79 716.13 294.58 C 709.78 294.72 703.42 294.44 697.08 294.33 C 693.40 293.50 689.79 292.12 685.96 292.33 C 681.22 292.04 676.66 293.45 672.01 293.96 C 666.41 292.83 664.89 286.25 660.19 283.75 C 656.91 282.59 653.38 282.55 649.99 281.91 C 649.44 279.77 649.08 277.58 648.42 275.48 C 647.12 272.35 644.29 270.24 642.62 267.35 C 641.02 264.60 639.52 261.80 637.79 259.13 C 636.01 265.23 629.49 269.65 623.16 268.41 C 616.35 267.00 611.88 261.19 606.17 257.75 C 602.51 255.54 597.56 255.82 594.53 252.59 C 590.76 246.40 588.41 239.48 585.18 233.01 C 583.34 229.55 578.16 229.10 577.22 225.02 C 575.31 218.77 575.41 211.56 570.71 206.50 C 568.36 203.25 564.12 202.85 560.93 200.85 C 557.95 198.80 558.78 194.64 557.11 191.88 C 554.41 189.71 550.79 189.09 548.13 186.85 C 546.21 184.61 545.53 181.58 543.64 179.32 C 541.13 176.68 537.63 175.37 534.75 173.23 C 533.03 170.84 532.64 167.38 530.00 165.74 C 527.08 165.26 522.74 166.26 522.82 169.97 C 522.69 176.21 524.20 183.45 519.52 188.53 C 517.48 191.07 514.11 189.41 511.42 189.55 C 507.18 192.15 504.35 196.48 500.16 199.16 C 497.85 200.66 495.48 202.08 493.31 203.79 C 491.54 206.16 489.32 208.12 486.91 209.81 C 484.12 211.27 482.05 213.78 479.27 215.26 C 475.45 216.56 471.27 216.10 467.40 217.17 C 465.62 217.01 463.85 216.85 462.09 216.66 C 461.14 216.12 460.19 215.58 459.26 215.04 L 459.02 215.20 C 456.85 213.82 454.62 212.55 452.34 211.36 C 452.03 209.03 451.75 206.71 451.56 204.37 C 451.79 199.85 451.82 195.28 452.69 190.82 C 452.58 189.53 452.47 188.24 452.37 186.95 C 452.02 186.43 451.31 185.39 450.96 184.87 C 451.73 183.57 452.48 182.25 453.24 180.94 C 452.31 176.35 454.19 172.09 455.89 167.97 C 457.46 165.05 453.69 163.56 453.09 161.02 C 451.27 157.11 449.23 153.28 446.89 149.66 C 446.45 149.95 445.56 150.54 445.11 150.83 C 443.83 149.63 442.56 148.42 441.30 147.20 C 441.52 145.82 441.75 144.43 441.98 143.05 C 440.64 143.91 439.29 144.77 437.95 145.63 C 437.04 144.19 436.13 142.77 435.20 141.36 C 433.80 141.83 432.44 142.44 430.99 142.68 C 428.67 140.76 430.95 136.57 428.05 134.85 C 426.03 133.62 426.10 131.60 426.77 129.54 C 424.02 127.66 421.39 125.02 422.37 121.36 C 420.75 119.54 419.94 117.26 420.88 114.91 C 418.61 113.39 415.86 113.21 413.25 112.87 C 412.69 110.96 412.15 109.06 411.62 107.16 C 410.09 107.23 408.56 107.36 407.04 107.33 C 405.85 106.73 405.59 105.30 404.89 104.30 C 403.49 101.46 400.34 99.75 399.69 96.51 C 397.17 98.25 393.87 98.56 391.59 96.27 C 391.69 95.54 391.89 94.09 391.99 93.36 C 390.97 92.30 389.96 91.22 388.98 90.14 C 388.33 90.62 387.71 91.12 387.10 91.63 C 386.29 91.46 384.66 91.12 383.85 90.96 C 381.60 88.47 379.99 85.51 378.32 82.62 C 378.50 82.15 378.87 81.22 379.06 80.75 C 378.14 79.50 377.24 78.24 376.37 76.97 C 375.60 77.22 374.84 77.48 374.08 77.74 C 371.75 76.12 369.20 74.02 370.55 70.87 C 369.88 69.68 369.21 68.49 368.55 67.30 C 366.93 67.86 365.32 68.40 363.70 68.91 C 362.51 67.47 361.17 66.16 359.69 65.03 C 359.20 63.81 358.73 62.59 358.25 61.38 C 356.45 61.84 354.60 62.08 352.80 62.49 C 352.45 60.70 351.90 58.93 351.87 57.11 C 353.01 55.48 354.41 53.93 354.32 51.79 C 353.17 52.10 352.02 52.42 350.88 52.73 C 349.40 50.93 345.92 49.89 346.80 47.06 C 344.56 48.68 341.81 49.56 339.04 49.31 C 338.03 46.74 340.72 44.98 341.73 42.93 C 340.44 41.68 338.98 40.50 338.28 38.79 C 336.80 35.21 333.88 32.55 331.08 30.00 C 331.61 29.31 332.68 27.92 333.21 27.23 C 330.55 27.78 327.82 28.85 325.07 28.33 C 323.23 26.95 323.10 24.12 320.95 23.09 C 317.73 21.40 314.40 18.11 310.65 20.56 C 307.46 18.84 309.26 14.99 308.82 12.14 C 303.85 11.22 302.14 5.94 298.11 3.63 C 293.86 5.12 289.38 4.73 284.98 4.48 C 280.96 4.18 277.04 5.68 273.03 5.26 C 271.57 4.38 270.49 2.87 268.88 2.27 C 265.76 3.17 263.42 6.23 259.98 6.01 M 17.43 695.08 C 15.75 697.38 13.51 699.19 10.98 700.50 C 7.54 703.57 6.30 708.57 6.08 712.99 C 7.68 713.73 9.39 714.22 11.05 714.80 C 14.21 718.75 13.40 724.22 11.10 728.37 C 7.44 733.03 2.74 737.66 2.31 743.91 C 1.63 749.80 5.28 755.08 5.04 760.94 C 5.06 765.51 1.96 769.44 2.07 774.03 C 2.13 777.40 3.04 780.69 3.32 784.05 C 3.82 790.38 2.97 796.78 3.82 803.10 C 4.74 807.82 7.40 812.13 7.26 817.08 C 7.09 820.55 8.31 823.88 10.87 826.27 C 11.10 821.27 10.96 816.26 11.01 811.26 C 314.24 811.24 617.47 811.33 920.70 811.22 C 923.50 803.56 927.75 796.32 933.76 790.73 C 935.94 788.91 938.80 788.26 941.24 786.84 C 938.57 785.91 935.65 785.45 933.32 783.77 C 931.84 781.22 933.81 776.62 930.34 775.51 C 925.17 773.77 919.61 773.94 914.23 773.52 C 915.94 763.36 913.85 753.06 915.17 742.88 C 916.39 726.99 918.98 710.98 916.75 695.06 C 616.97 695.02 317.20 694.99 17.43 695.08 M 104.53 927.54 C 105.42 930.25 105.95 933.17 107.50 935.62 C 108.81 936.88 110.63 937.58 111.74 939.06 C 112.17 940.73 112.23 942.51 112.84 944.16 C 117.23 944.20 120.77 940.80 125.15 940.63 C 132.47 940.37 139.48 938.21 146.51 936.38 C 151.98 934.80 157.31 931.92 163.16 932.37 C 166.54 932.55 168.42 935.74 171.00 937.46 C 175.87 938.15 179.32 933.43 184.01 933.02 C 186.04 933.35 187.92 934.26 189.94 934.63 C 194.06 934.99 197.98 932.58 202.08 933.31 C 212.51 936.56 223.40 932.09 233.98 934.00 C 236.13 934.52 237.92 935.94 240.02 936.65 C 243.33 937.34 247.28 936.30 249.99 938.85 C 254.83 943.29 259.30 948.56 261.19 954.98 C 262.38 959.08 267.23 959.58 270.44 961.48 C 275.23 963.41 277.70 968.37 282.04 970.96 C 283.81 972.12 285.93 973.07 287.01 975.01 C 287.79 976.67 288.11 978.52 288.86 980.22 C 291.42 981.40 294.37 981.60 296.77 983.17 C 301.86 986.78 308.14 987.84 313.89 989.98 C 321.88 992.85 330.46 993.18 338.55 995.65 C 343.47 997.13 346.25 1002.14 351.02 1003.85 C 357.07 1004.42 362.96 1001.42 369.02 1002.48 C 371.77 1003.48 373.88 1005.91 376.90 1006.27 C 380.49 1006.87 384.14 1007.14 387.66 1008.15 C 387.55 1008.81 387.31 1010.12 387.19 1010.78 C 383.46 1013.33 378.69 1014.54 376.33 1018.76 C 381.92 1019.79 385.23 1024.70 390.27 1026.81 C 393.10 1027.98 393.42 1031.70 395.84 1033.25 C 399.20 1032.31 402.57 1032.76 405.93 1033.43 C 407.74 1032.09 409.15 1030.29 411.01 1029.04 C 413.36 1027.70 415.83 1029.39 418.03 1030.21 C 417.66 1031.84 417.25 1033.47 416.81 1035.10 C 418.20 1034.98 419.61 1034.88 421.01 1034.79 C 421.52 1035.84 422.03 1036.91 422.54 1037.98 C 425.89 1036.66 428.88 1034.53 432.37 1033.57 C 437.94 1032.04 443.71 1031.20 449.19 1029.31 C 458.38 1026.23 464.29 1016.89 474.00 1015.02 C 480.71 1014.73 485.56 1009.37 491.85 1007.70 C 496.37 1005.98 501.57 1008.73 505.75 1005.79 C 509.43 1003.42 514.01 1003.54 518.03 1004.93 C 521.57 1006.26 525.33 1005.45 529.00 1005.54 C 533.81 1006.40 537.86 1009.60 542.65 1010.58 C 545.07 1010.62 547.51 1010.41 549.93 1010.78 C 557.25 1011.71 564.83 1008.87 571.98 1011.45 C 577.32 1013.18 580.62 1017.98 585.09 1021.06 C 585.27 1021.56 585.63 1022.54 585.81 1023.04 C 588.52 1024.15 589.16 1026.77 589.13 1029.47 C 591.79 1030.31 593.90 1032.96 596.92 1032.43 C 604.82 1031.71 612.06 1027.66 620.08 1027.58 C 624.65 1027.58 629.65 1027.85 633.54 1030.53 C 635.47 1031.73 634.64 1034.14 634.77 1036.03 C 638.64 1036.18 642.72 1035.97 646.31 1037.70 C 648.63 1038.85 651.00 1040.84 650.87 1043.70 C 650.44 1045.17 650.16 1046.66 649.88 1048.19 C 651.55 1046.79 653.13 1045.28 654.62 1043.69 C 660.49 1037.77 669.28 1037.48 676.62 1034.47 C 684.41 1030.97 690.80 1024.76 699.01 1022.12 C 703.00 1020.72 708.21 1022.89 711.27 1019.25 C 716.30 1013.61 724.17 1012.52 730.81 1009.70 C 739.58 1006.33 747.14 1000.57 755.64 996.63 C 759.48 994.79 763.77 993.88 767.24 991.28 C 769.35 989.70 772.09 988.98 773.92 987.05 C 775.16 982.69 770.85 979.39 767.66 977.28 C 767.34 978.89 767.05 980.51 766.73 982.15 C 763.70 980.59 759.83 977.08 762.57 973.55 C 765.97 970.37 770.52 968.82 774.16 965.93 C 771.61 963.87 768.64 962.51 765.65 961.26 C 765.54 960.69 765.33 959.55 765.23 958.98 C 769.20 956.95 772.57 960.07 775.63 962.23 C 778.01 961.52 781.71 961.09 782.76 964.02 C 784.42 967.42 779.39 969.51 780.42 972.91 C 781.19 976.19 783.65 978.84 784.07 982.25 C 782.27 983.13 780.61 984.27 779.42 985.92 C 785.85 983.16 792.95 983.43 799.59 981.68 C 800.63 979.42 798.02 976.34 800.37 974.46 C 805.58 968.65 811.16 963.18 816.69 957.68 C 822.51 952.19 827.80 946.01 834.56 941.61 C 842.14 936.41 849.76 931.13 858.26 927.51 C 607.02 927.52 355.78 927.46 104.53 927.54 M 768.36 960.17 C 768.13 961.58 770.57 962.48 771.67 961.81 C 771.88 960.34 769.45 959.41 768.36 960.17 Z" />
</g>
<g id="#ffffffff">
<path fill="#ffffff" opacity="1.00" d=" M 259.98 6.01 C 263.42 6.23 265.76 3.17 268.88 2.27 C 270.49 2.87 271.57 4.38 273.03 5.26 C 277.04 5.68 280.96 4.18 284.98 4.48 C 289.38 4.73 293.86 5.12 298.11 3.63 C 302.14 5.94 303.85 11.22 308.82 12.14 C 309.26 14.99 307.46 18.84 310.65 20.56 C 314.40 18.11 317.73 21.40 320.95 23.09 C 323.10 24.12 323.23 26.95 325.07 28.33 C 327.82 28.85 330.55 27.78 333.21 27.23 C 332.68 27.92 331.61 29.31 331.08 30.00 C 333.88 32.55 336.80 35.21 338.28 38.79 C 338.98 40.50 340.44 41.68 341.73 42.93 C 340.72 44.98 338.03 46.74 339.04 49.31 C 341.81 49.56 344.56 48.68 346.80 47.06 C 345.92 49.89 349.40 50.93 350.88 52.73 C 352.02 52.42 353.17 52.10 354.32 51.79 C 354.41 53.93 353.01 55.48 351.87 57.11 C 351.90 58.93 352.45 60.70 352.80 62.49 C 354.60 62.08 356.45 61.84 358.25 61.38 C 358.73 62.59 359.20 63.81 359.69 65.03 C 361.17 66.16 362.51 67.47 363.70 68.91 C 365.32 68.40 366.93 67.86 368.55 67.30 C 369.21 68.49 369.88 69.68 370.55 70.87 C 369.20 74.02 371.75 76.12 374.08 77.74 C 374.84 77.48 375.60 77.22 376.37 76.97 C 377.24 78.24 378.14 79.50 379.06 80.75 C 378.87 81.22 378.50 82.15 378.32 82.62 C 379.99 85.51 381.60 88.47 383.85 90.96 C 372.82 94.03 361.48 99.17 354.75 108.84 C 348.36 118.04 347.08 129.46 343.64 139.86 C 339.43 153.85 331.63 166.59 321.71 177.25 C 314.96 140.40 308.36 103.51 301.55 66.67 C 294.51 105.27 287.49 143.88 280.49 182.49 C 272.90 166.99 263.21 152.30 250.24 140.76 C 242.23 133.15 232.15 127.10 227.03 116.95 C 222.08 107.16 222.81 95.89 222.84 85.25 C 217.25 96.02 211.07 107.42 211.89 119.96 C 212.66 132.58 220.96 142.71 226.46 153.57 C 233.39 166.44 236.78 180.96 237.43 195.51 C 206.59 174.29 175.93 152.82 145.05 131.67 C 167.20 163.85 189.50 195.92 211.72 228.05 C 195.28 221.89 177.78 217.62 160.11 218.79 C 150.90 219.14 141.78 221.63 132.53 220.75 C 123.30 219.71 115.72 213.68 109.32 207.38 C 109.84 197.86 102.86 190.56 100.20 181.96 C 98.80 178.33 104.16 177.30 106.49 178.60 C 109.13 179.89 112.90 182.31 115.30 179.28 C 117.78 175.59 119.12 171.24 120.50 167.04 C 121.60 164.34 120.12 161.71 119.85 159.04 C 120.25 156.66 121.26 154.40 121.37 151.98 C 121.14 148.26 119.89 144.66 119.75 140.92 C 119.57 137.95 120.07 134.94 119.58 131.99 C 118.51 127.76 114.49 125.28 112.60 121.53 C 112.25 119.38 112.48 117.18 112.17 115.03 C 110.02 112.13 106.78 110.24 104.52 107.42 C 106.25 102.95 105.73 98.08 106.64 93.46 C 108.20 89.72 111.04 86.68 113.81 83.79 C 116.47 80.82 120.87 80.46 123.55 77.52 C 129.12 71.53 136.67 68.00 142.91 62.82 C 145.16 61.09 148.18 60.24 149.72 57.68 C 153.47 52.11 153.82 45.19 155.98 39.00 C 156.21 37.82 157.07 36.59 156.61 35.37 C 154.88 31.50 150.86 29.10 149.54 25.01 C 149.18 21.11 153.82 22.88 156.09 22.98 C 156.33 24.26 156.53 25.54 156.68 26.84 C 157.50 26.61 159.12 26.16 159.94 25.94 C 161.59 27.08 163.71 27.96 164.55 29.93 C 165.77 33.22 162.90 36.91 164.77 40.07 C 166.64 42.68 169.84 44.10 172.92 44.66 C 176.21 45.37 178.47 42.48 181.04 41.05 C 182.88 41.09 184.22 42.59 185.73 43.45 C 186.92 43.31 188.12 43.17 189.31 43.02 C 189.53 44.38 189.79 45.72 190.09 47.06 C 191.85 48.03 193.74 48.75 195.58 49.58 C 197.74 47.57 198.55 44.69 199.76 42.10 C 201.05 43.06 202.34 44.01 203.66 44.94 C 205.37 43.89 207.10 42.86 208.86 41.88 C 209.19 41.29 209.87 40.10 210.21 39.51 C 212.51 41.91 213.93 45.22 217.04 46.74 C 218.34 45.85 219.66 44.99 220.99 44.15 C 223.51 44.96 226.25 46.41 228.91 45.25 C 233.00 43.60 233.50 38.19 237.53 36.45 C 238.53 35.31 239.56 34.20 240.59 33.08 C 239.99 31.00 239.34 28.93 238.65 26.88 C 241.11 22.68 243.57 18.48 246.30 14.44 C 247.12 14.36 248.76 14.20 249.58 14.12 C 249.52 12.12 249.32 10.12 249.18 8.13 C 250.23 9.12 251.27 10.13 252.31 11.14 C 253.59 9.49 254.86 7.63 253.59 5.54 C 254.22 4.87 254.87 4.20 255.52 3.54 C 256.83 4.61 258.12 6.08 259.98 6.01 Z" />
<path fill="#ffffff" opacity="1.00" d=" M 387.10 91.63 C 387.71 91.12 388.33 90.62 388.98 90.14 C 389.96 91.22 390.97 92.30 391.99 93.36 C 391.89 94.09 391.69 95.54 391.59 96.27 C 393.87 98.56 397.17 98.25 399.69 96.51 C 400.34 99.75 403.49 101.46 404.89 104.30 C 405.59 105.30 405.85 106.73 407.04 107.33 C 408.56 107.36 410.09 107.23 411.62 107.16 C 412.15 109.06 412.69 110.96 413.25 112.87 C 415.86 113.21 418.61 113.39 420.88 114.91 C 419.94 117.26 420.75 119.54 422.37 121.36 C 421.39 125.02 424.02 127.66 426.77 129.54 C 426.10 131.60 426.03 133.62 428.05 134.85 C 430.95 136.57 428.67 140.76 430.99 142.68 C 432.44 142.44 433.80 141.83 435.20 141.36 C 436.13 142.77 437.04 144.19 437.95 145.63 C 412.41 163.09 387.08 180.86 361.58 198.39 C 368.03 181.09 372.39 162.60 370.68 144.03 C 370.13 134.91 367.58 125.73 369.40 116.61 C 371.77 106.35 379.40 98.35 387.10 91.63 Z" />
<path fill="#ffffff" opacity="1.00" d=" M 445.11 150.83 C 445.56 150.54 446.45 149.95 446.89 149.66 C 449.23 153.28 451.27 157.11 453.09 161.02 C 453.69 163.56 457.46 165.05 455.89 167.97 C 454.19 172.09 452.31 176.35 453.24 180.94 C 452.48 182.25 451.73 183.57 450.96 184.87 C 451.31 185.39 452.02 186.43 452.37 186.95 C 452.47 188.24 452.58 189.53 452.69 190.82 C 451.82 195.28 451.79 199.85 451.56 204.37 C 443.16 209.15 434.94 214.35 425.86 217.76 C 415.77 221.69 404.99 223.50 394.21 224.05 C 411.21 199.67 427.84 175.01 445.11 150.83 Z" />
<path fill="#ffffff" opacity="1.00" d=" M 522.82 169.97 C 522.74 166.26 527.08 165.26 530.00 165.74 C 532.64 167.38 533.03 170.84 534.75 173.23 C 537.63 175.37 541.13 176.68 543.64 179.32 C 545.53 181.58 546.21 184.61 548.13 186.85 C 550.79 189.09 554.41 189.71 557.11 191.88 C 558.78 194.64 557.95 198.80 560.93 200.85 C 564.12 202.85 568.36 203.25 570.71 206.50 C 575.41 211.56 575.31 218.77 577.22 225.02 C 578.16 229.10 583.34 229.55 585.18 233.01 C 588.41 239.48 590.76 246.40 594.53 252.59 C 597.56 255.82 602.51 255.54 606.17 257.75 C 611.88 261.19 616.35 267.00 623.16 268.41 C 629.49 269.65 636.01 265.23 637.79 259.13 C 639.52 261.80 641.02 264.60 642.62 267.35 C 644.29 270.24 647.12 272.35 648.42 275.48 C 649.08 277.58 649.44 279.77 649.99 281.91 C 653.38 282.55 656.91 282.59 660.19 283.75 C 664.89 286.25 666.41 292.83 672.01 293.96 C 676.66 293.45 681.22 292.04 685.96 292.33 C 689.79 292.12 693.40 293.50 697.08 294.33 C 703.42 294.44 709.78 294.72 716.13 294.58 C 716.95 296.79 717.64 299.08 718.86 301.12 C 723.91 304.45 731.84 305.25 733.86 311.86 C 736.94 321.12 738.79 330.81 739.48 340.55 C 742.57 342.17 745.52 344.07 748.30 346.19 C 696.25 346.44 644.19 346.24 592.13 346.29 C 592.13 385.06 592.09 423.82 592.15 462.59 C 690.55 462.53 788.96 462.59 887.36 462.56 C 887.37 464.43 887.39 466.31 887.43 468.19 C 888.74 469.34 890.00 470.56 891.30 471.75 C 892.03 473.64 894.54 475.13 893.87 477.36 C 893.29 477.54 892.14 477.89 891.56 478.07 C 892.53 481.09 894.25 483.77 895.77 486.54 C 894.98 488.95 893.38 491.48 894.46 494.08 C 895.09 496.05 897.45 496.32 899.05 497.20 C 899.07 498.46 899.08 499.73 899.09 501.00 C 901.07 503.71 904.37 505.35 905.54 508.64 C 908.57 511.77 912.20 514.20 915.88 516.52 C 919.68 516.06 923.52 515.83 927.26 514.96 C 926.78 521.53 931.63 526.83 934.01 532.62 C 936.94 533.16 938.36 536.02 940.88 537.27 C 942.49 537.31 943.78 536.21 945.11 535.44 C 948.39 538.05 952.99 537.97 956.08 540.89 C 957.69 542.01 958.90 543.91 960.87 544.42 C 962.83 543.54 964.55 542.24 966.42 541.18 C 967.85 542.95 968.80 545.02 969.97 546.97 C 972.08 548.92 975.11 549.36 977.78 550.19 C 982.94 558.28 992.69 562.13 997.57 570.42 C 999.80 573.85 996.76 578.48 992.90 578.52 C 982.96 579.02 973.00 578.72 963.05 578.80 C 661.16 578.78 359.27 578.84 57.39 578.77 C 55.55 568.30 56.17 557.62 55.39 547.06 C 55.09 543.16 52.36 540.09 51.37 536.39 C 48.68 527.53 46.77 518.33 46.70 509.04 C 46.74 503.88 47.32 498.46 50.12 494.00 C 52.52 489.65 58.41 489.12 60.77 484.72 C 63.34 479.93 66.11 474.50 64.95 468.92 C 64.26 465.42 61.02 463.23 59.98 459.91 C 58.61 453.20 50.29 450.10 49.89 443.06 C 50.87 436.50 51.57 429.29 56.02 424.03 C 59.39 420.32 57.85 414.52 55.91 410.48 C 55.27 410.45 53.99 410.38 53.35 410.35 C 56.48 406.05 53.75 400.57 51.38 396.60 C 49.70 393.21 45.55 391.12 45.56 387.00 C 45.03 382.10 48.64 377.79 53.04 376.18 C 56.76 374.48 60.91 375.06 64.85 374.73 C 68.37 372.58 70.29 368.72 72.17 365.20 C 78.38 352.42 82.01 338.63 86.22 325.12 C 86.73 323.11 87.89 320.95 86.68 318.96 C 84.95 315.26 83.19 311.52 80.90 308.13 C 78.13 304.01 72.36 304.26 69.04 300.88 C 66.47 298.08 68.62 294.08 70.92 291.87 C 74.78 287.81 80.51 286.83 85.22 284.21 C 88.22 281.42 85.99 277.20 85.44 273.88 C 85.55 270.95 86.55 268.12 87.57 265.41 C 89.68 261.74 94.08 259.77 95.48 255.61 C 97.73 248.83 99.66 241.93 101.15 234.95 C 102.06 231.30 99.25 227.53 101.04 224.01 C 102.74 220.34 104.77 216.84 106.68 213.28 C 110.07 221.75 114.85 230.16 122.65 235.30 C 132.64 241.91 144.91 242.99 155.97 246.99 C 168.91 251.27 180.58 258.78 190.59 267.95 C 153.94 275.02 117.11 281.17 80.46 288.25 C 118.84 295.31 157.25 302.21 195.64 309.24 C 178.99 316.93 163.02 326.94 151.14 341.14 C 144.26 348.82 138.94 358.60 129.29 363.23 C 119.80 367.83 109.01 366.69 98.80 367.15 C 109.52 372.40 120.64 378.64 133.00 377.89 C 145.56 377.29 155.71 369.09 166.46 363.57 C 179.46 356.47 194.17 352.98 208.91 352.33 C 187.64 383.21 166.20 413.99 144.92 444.87 C 177.16 422.63 209.32 400.26 241.55 378.01 C 234.82 395.46 230.52 414.26 232.36 433.04 C 233.00 442.92 236.10 453.11 232.87 462.85 C 229.43 472.98 220.96 479.98 213.79 487.45 C 225.41 483.63 238.00 479.93 246.26 470.30 C 254.79 460.39 255.86 446.83 259.99 434.93 C 264.26 421.52 271.94 409.39 281.42 399.07 C 288.14 435.92 294.77 472.79 301.56 509.62 C 308.70 471.01 315.63 432.36 322.68 393.73 C 330.32 410.46 340.45 426.42 354.61 438.39 C 362.10 445.15 371.48 450.44 376.23 459.70 C 381.15 469.44 380.28 480.66 380.28 491.23 C 385.88 480.30 392.18 468.76 391.20 456.05 C 390.15 442.43 380.68 431.81 375.18 419.85 C 369.17 407.76 366.33 394.32 365.71 380.89 C 396.58 402.11 427.31 423.55 458.16 444.81 C 435.93 412.55 413.59 380.37 391.28 348.16 C 408.64 354.73 427.29 358.83 445.92 357.09 C 455.88 356.49 466.16 353.56 475.96 356.82 C 486.18 360.25 493.37 368.70 500.77 376.08 C 497.00 364.36 493.26 351.66 483.51 343.39 C 473.37 334.75 459.51 333.82 447.41 329.47 C 434.37 325.16 422.54 317.66 412.50 308.35 C 449.36 301.62 486.25 294.96 523.11 288.21 C 484.42 280.97 445.63 274.27 406.97 266.91 C 422.64 259.59 437.65 250.24 449.32 237.31 C 455.55 230.78 460.42 222.97 467.40 217.17 C 471.27 216.10 475.45 216.56 479.27 215.26 C 482.05 213.78 484.12 211.27 486.91 209.81 C 492.70 209.14 498.54 209.54 504.36 209.46 C 500.73 207.47 497.00 205.66 493.31 203.79 C 495.48 202.08 497.85 200.66 500.16 199.16 C 504.35 196.48 507.18 192.15 511.42 189.55 C 514.11 189.41 517.48 191.07 519.52 188.53 C 524.20 183.45 522.69 176.21 522.82 169.97 Z" />
<path fill="#ffffff" opacity="1.00" d=" M 17.43 695.08 C 317.20 694.99 616.97 695.02 916.75 695.06 C 918.98 710.98 916.39 726.99 915.17 742.88 C 913.85 753.06 915.94 763.36 914.23 773.52 C 919.61 773.94 925.17 773.77 930.34 775.51 C 933.81 776.62 931.84 781.22 933.32 783.77 C 935.65 785.45 938.57 785.91 941.24 786.84 C 938.80 788.26 935.94 788.91 933.76 790.73 C 927.75 796.32 923.50 803.56 920.70 811.22 C 617.47 811.33 314.24 811.24 11.01 811.26 C 11.08 783.63 10.88 756.00 11.10 728.37 C 13.40 724.22 14.21 718.75 11.05 714.80 C 10.97 710.03 11.05 705.26 10.98 700.50 C 13.51 699.19 15.75 697.38 17.43 695.08 Z" />
<path fill="#ffffff" opacity="1.00" d=" M 104.53 927.54 C 355.78 927.46 607.02 927.52 858.26 927.51 C 849.76 931.13 842.14 936.41 834.56 941.61 C 827.80 946.01 822.51 952.19 816.69 957.68 C 811.16 963.18 805.58 968.65 800.37 974.46 C 798.02 976.34 800.63 979.42 799.59 981.68 C 792.95 983.43 785.85 983.16 779.42 985.92 C 780.61 984.27 782.27 983.13 784.07 982.25 C 783.65 978.84 781.19 976.19 780.42 972.91 C 779.39 969.51 784.42 967.42 782.76 964.02 C 781.71 961.09 778.01 961.52 775.63 962.23 C 772.57 960.07 769.20 956.95 765.23 958.98 C 765.33 959.55 765.54 960.69 765.65 961.26 C 768.64 962.51 771.61 963.87 774.16 965.93 C 770.52 968.82 765.97 970.37 762.57 973.55 C 759.83 977.08 763.70 980.59 766.73 982.15 C 767.05 980.51 767.34 978.89 767.66 977.28 C 770.85 979.39 775.16 982.69 773.92 987.05 C 772.09 988.98 769.35 989.70 767.24 991.28 C 763.77 993.88 759.48 994.79 755.64 996.63 C 747.14 1000.57 739.58 1006.33 730.81 1009.70 C 724.17 1012.52 716.30 1013.61 711.27 1019.25 C 708.21 1022.89 703.00 1020.72 699.01 1022.12 C 690.80 1024.76 684.41 1030.97 676.62 1034.47 C 669.28 1037.48 660.49 1037.77 654.62 1043.69 C 653.36 1043.68 652.11 1043.69 650.87 1043.70 C 651.00 1040.84 648.63 1038.85 646.31 1037.70 C 642.72 1035.97 638.64 1036.18 634.77 1036.03 C 634.64 1034.14 635.47 1031.73 633.54 1030.53 C 629.65 1027.85 624.65 1027.58 620.08 1027.58 C 612.06 1027.66 604.82 1031.71 596.92 1032.43 C 593.90 1032.96 591.79 1030.31 589.13 1029.47 C 589.16 1026.77 588.52 1024.15 585.81 1023.04 C 585.63 1022.54 585.27 1021.56 585.09 1021.06 C 580.62 1017.98 577.32 1013.18 571.98 1011.45 C 564.83 1008.87 557.25 1011.71 549.93 1010.78 C 547.51 1010.41 545.07 1010.62 542.65 1010.58 C 537.86 1009.60 533.81 1006.40 529.00 1005.54 C 525.33 1005.45 521.57 1006.26 518.03 1004.93 C 514.01 1003.54 509.43 1003.42 505.75 1005.79 C 501.57 1008.73 496.37 1005.98 491.85 1007.70 C 485.56 1009.37 480.71 1014.73 474.00 1015.02 C 464.29 1016.89 458.38 1026.23 449.19 1029.31 C 443.71 1031.20 437.94 1032.04 432.37 1033.57 C 428.88 1034.53 425.89 1036.66 422.54 1037.98 C 422.03 1036.91 421.52 1035.84 421.01 1034.79 C 419.61 1034.88 418.20 1034.98 416.81 1035.10 C 417.25 1033.47 417.66 1031.84 418.03 1030.21 C 415.83 1029.39 413.36 1027.70 411.01 1029.04 C 409.15 1030.29 407.74 1032.09 405.93 1033.43 C 402.57 1032.76 399.20 1032.31 395.84 1033.25 C 393.42 1031.70 393.10 1027.98 390.27 1026.81 C 385.23 1024.70 381.92 1019.79 376.33 1018.76 C 378.69 1014.54 383.46 1013.33 387.19 1010.78 C 387.31 1010.12 387.55 1008.81 387.66 1008.15 C 384.14 1007.14 380.49 1006.87 376.90 1006.27 C 373.88 1005.91 371.77 1003.48 369.02 1002.48 C 362.96 1001.42 357.07 1004.42 351.02 1003.85 C 346.25 1002.14 343.47 997.13 338.55 995.65 C 330.46 993.18 321.88 992.85 313.89 989.98 C 308.14 987.84 301.86 986.78 296.77 983.17 C 294.37 981.60 291.42 981.40 288.86 980.22 C 288.11 978.52 287.79 976.67 287.01 975.01 C 285.93 973.07 283.81 972.12 282.04 970.96 C 277.70 968.37 275.23 963.41 270.44 961.48 C 267.23 959.58 262.38 959.08 261.19 954.98 C 259.30 948.56 254.83 943.29 249.99 938.85 C 247.28 936.30 243.33 937.34 240.02 936.65 C 237.92 935.94 236.13 934.52 233.98 934.00 C 223.40 932.09 212.51 936.56 202.08 933.31 C 197.98 932.58 194.06 934.99 189.94 934.63 C 187.92 934.26 186.04 933.35 184.01 933.02 C 179.32 933.43 175.87 938.15 171.00 937.46 C 168.42 935.74 166.54 932.55 163.16 932.37 C 157.31 931.92 151.98 934.80 146.51 936.38 C 139.48 938.21 132.47 940.37 125.15 940.63 C 120.77 940.80 117.23 944.20 112.84 944.16 C 112.23 942.51 112.17 940.73 111.74 939.06 C 110.63 937.58 108.81 936.88 107.50 935.62 C 105.95 933.17 105.42 930.25 104.53 927.54 Z" />
</g>
<g id="#7b3f00ff">
<path fill="#7b3f00" opacity="1.00" d=" M 280.49 182.49 C 287.49 143.88 294.51 105.27 301.55 66.67 C 308.36 103.51 314.96 140.40 321.71 177.25 C 331.63 166.59 339.43 153.85 343.64 139.86 C 347.08 129.46 348.36 118.04 354.75 108.84 C 361.48 99.17 372.82 94.03 383.85 90.96 C 384.66 91.12 386.29 91.46 387.10 91.63 C 379.40 98.35 371.77 106.35 369.40 116.61 C 367.58 125.73 370.13 134.91 370.68 144.03 C 372.39 162.60 368.03 181.09 361.58 198.39 C 387.08 180.86 412.41 163.09 437.95 145.63 C 439.29 144.77 440.64 143.91 441.98 143.05 C 441.75 144.43 441.52 145.82 441.30 147.20 C 442.56 148.42 443.83 149.63 445.11 150.83 C 427.84 175.01 411.21 199.67 394.21 224.05 C 404.99 223.50 415.77 221.69 425.86 217.76 C 434.94 214.35 443.16 209.15 451.56 204.37 C 451.75 206.71 452.03 209.03 452.34 211.36 C 454.62 212.55 456.85 213.82 459.02 215.20 C 448.79 222.20 439.13 230.01 428.71 236.74 C 412.22 247.70 393.86 255.50 374.95 261.22 C 382.36 262.52 389.74 263.97 397.15 265.27 C 399.28 265.80 401.41 265.22 403.35 264.32 C 417.65 257.83 431.49 249.79 442.69 238.66 C 449.75 231.85 455.30 223.71 462.09 216.66 C 463.85 216.85 465.62 217.01 467.40 217.17 C 460.42 222.97 455.55 230.78 449.32 237.31 C 437.65 250.24 422.64 259.59 406.97 266.91 C 445.63 274.27 484.42 280.97 523.11 288.21 C 486.25 294.96 449.36 301.62 412.50 308.35 C 422.54 317.66 434.37 325.16 447.41 329.47 C 459.51 333.82 473.37 334.75 483.51 343.39 C 493.26 351.66 497.00 364.36 500.77 376.08 C 493.37 368.70 486.18 360.25 475.96 356.82 C 466.16 353.56 455.88 356.49 445.92 357.09 C 427.29 358.83 408.64 354.73 391.28 348.16 C 413.59 380.37 435.93 412.55 458.16 444.81 C 427.31 423.55 396.58 402.11 365.71 380.89 C 366.33 394.32 369.17 407.76 375.18 419.85 C 380.68 431.81 390.15 442.43 391.20 456.05 C 392.18 468.76 385.88 480.30 380.28 491.23 C 380.28 480.66 381.15 469.44 376.23 459.70 C 371.48 450.44 362.10 445.15 354.61 438.39 C 340.45 426.42 330.32 410.46 322.68 393.73 C 315.63 432.36 308.70 471.01 301.56 509.62 C 294.77 472.79 288.14 435.92 281.42 399.07 C 271.94 409.39 264.26 421.52 259.99 434.93 C 255.86 446.83 254.79 460.39 246.26 470.30 C 238.00 479.93 225.41 483.63 213.79 487.45 C 220.96 479.98 229.43 472.98 232.87 462.85 C 236.10 453.11 233.00 442.92 232.36 433.04 C 230.52 414.26 234.82 395.46 241.55 378.01 C 209.32 400.26 177.16 422.63 144.92 444.87 C 166.20 413.99 187.64 383.21 208.91 352.33 C 194.17 352.98 179.46 356.47 166.46 363.57 C 155.71 369.09 145.56 377.29 133.00 377.89 C 120.64 378.64 109.52 372.40 98.80 367.15 C 109.01 366.69 119.80 367.83 129.29 363.23 C 138.94 358.60 144.26 348.82 151.14 341.14 C 163.02 326.94 178.99 316.93 195.64 309.24 C 157.25 302.21 118.84 295.31 80.46 288.25 C 117.11 281.17 153.94 275.02 190.59 267.95 C 180.58 258.78 168.91 251.27 155.97 246.99 C 144.91 242.99 132.64 241.91 122.65 235.30 C 114.85 230.16 110.07 221.75 106.68 213.28 C 107.61 211.33 108.48 209.36 109.32 207.38 C 115.72 213.68 123.30 219.71 132.53 220.75 C 141.78 221.63 150.90 219.14 160.11 218.79 C 177.78 217.62 195.28 221.89 211.72 228.05 C 189.50 195.92 167.20 163.85 145.05 131.67 C 175.93 152.82 206.59 174.29 237.43 195.51 C 236.78 180.96 233.39 166.44 226.46 153.57 C 220.96 142.71 212.66 132.58 211.89 119.96 C 211.07 107.42 217.25 96.02 222.84 85.25 C 222.81 95.89 222.08 107.16 227.03 116.95 C 232.15 127.10 242.23 133.15 250.24 140.76 C 263.21 152.30 272.90 166.99 280.49 182.49 M 303.42 99.84 C 303.51 138.50 303.54 177.16 303.41 215.83 C 310.94 216.29 318.39 217.61 325.58 219.90 C 318.56 181.58 311.63 143.23 304.65 104.89 C 304.31 103.19 303.88 101.51 303.42 99.84 M 369.77 104.94 C 364.12 112.12 361.89 121.19 360.42 130.02 C 358.29 143.05 356.71 156.19 353.45 169.01 C 349.31 185.80 342.73 201.95 334.27 217.02 C 340.84 213.16 346.84 208.42 353.21 204.27 C 356.50 202.57 357.23 198.73 358.48 195.59 C 364.20 180.12 368.07 163.65 367.04 147.06 C 366.68 137.33 364.00 127.68 365.26 117.92 C 365.82 113.31 367.96 109.15 369.77 104.94 M 220.18 108.98 C 220.65 117.85 225.18 125.80 230.11 132.94 C 236.95 142.71 244.40 152.05 250.82 162.11 C 261.43 178.29 268.92 196.27 274.58 214.71 C 276.00 207.48 277.20 200.20 278.62 192.97 C 278.88 191.13 279.37 189.14 278.45 187.39 C 271.68 172.49 262.88 158.31 251.09 146.84 C 244.74 140.50 237.40 135.24 231.05 128.89 C 225.54 123.51 221.87 116.47 220.18 108.98 M 170.13 153.91 C 197.26 181.29 224.61 208.46 251.84 235.73 C 256.99 230.97 262.76 226.93 268.98 223.70 C 270.65 223.37 269.07 222.02 268.44 221.65 C 236.93 199.90 205.48 178.07 174.00 156.29 C 172.73 155.45 171.44 154.67 170.13 153.91 M 421.23 171.22 C 398.81 193.59 376.50 216.07 354.01 238.38 C 359.06 243.97 363.37 250.20 366.79 256.92 C 389.77 223.51 413.12 190.36 435.89 156.82 C 430.77 161.38 426.14 166.45 421.23 171.22 M 118.82 220.24 C 125.15 225.29 133.16 227.44 140.98 228.89 C 151.27 230.73 161.67 231.95 171.93 233.97 C 192.43 237.77 212.01 245.40 230.33 255.22 C 226.17 248.61 221.50 242.34 217.14 235.86 C 215.60 233.13 212.37 232.48 209.70 231.40 C 193.88 225.50 177.02 221.48 160.04 222.63 C 150.48 223.05 140.99 225.67 131.40 224.46 C 126.94 223.96 122.91 221.92 118.82 220.24 M 290.48 220.68 C 267.42 224.27 246.94 240.63 238.25 262.28 C 231.51 278.62 231.49 297.60 238.20 313.96 C 243.81 327.83 254.15 339.71 267.07 347.26 C 280.18 354.99 295.92 358.07 310.99 355.94 C 325.32 354.02 338.93 347.31 349.26 337.21 C 360.46 326.35 367.78 311.56 369.50 296.04 C 371.12 282.11 368.36 267.70 361.60 255.41 C 354.58 242.53 343.31 232.02 329.96 225.95 C 317.71 220.32 303.78 218.53 290.48 220.68 M 128.86 283.21 C 124.40 284.04 119.88 284.64 115.52 285.91 C 119.65 286.42 123.83 286.29 127.99 286.26 C 161.75 286.27 195.51 286.26 229.26 286.27 C 229.56 278.76 231.18 271.43 233.13 264.21 C 198.39 270.62 163.61 276.85 128.86 283.21 M 373.83 290.08 C 373.51 297.60 372.12 305.03 369.80 312.19 C 409.92 304.99 450.00 297.52 490.13 290.41 C 483.77 289.84 477.37 290.17 471.00 290.10 C 438.61 290.09 406.22 290.11 373.83 290.08 M 200.41 311.38 C 183.61 318.66 167.40 328.32 155.26 342.25 C 148.91 349.20 144.00 357.54 136.45 363.34 C 132.49 366.48 127.63 368.04 122.94 369.75 C 134.11 368.43 143.56 361.88 152.35 355.36 C 162.01 348.25 171.62 341.00 182.00 334.95 C 196.45 326.39 212.08 319.91 228.24 315.35 C 221.58 313.70 214.76 312.84 208.05 311.44 C 205.53 311.05 202.83 310.09 200.41 311.38 M 215.52 349.56 C 199.39 373.06 182.91 396.31 167.00 419.95 C 194.49 392.75 221.70 365.26 249.11 337.97 C 244.14 332.43 239.77 326.34 236.50 319.64 C 229.16 329.36 222.57 339.63 215.52 349.56 M 372.70 321.01 C 377.50 328.24 382.27 335.56 387.60 342.40 C 406.44 350.63 427.34 355.34 447.96 353.06 C 456.28 352.35 464.70 350.51 473.04 352.10 C 476.93 352.78 480.47 354.59 484.15 355.92 C 472.00 347.07 456.33 346.96 442.10 344.31 C 417.77 340.89 394.18 332.91 372.70 321.01 M 350.45 341.47 C 345.07 346.09 339.29 350.27 332.87 353.33 C 366.21 376.61 399.69 399.71 433.16 422.81 C 423.19 412.13 412.56 402.09 402.32 391.66 C 386.01 375.32 369.65 359.04 353.38 342.67 C 352.56 342.08 351.53 340.35 350.45 341.47 M 277.57 356.43 C 284.96 396.63 292.02 436.90 299.63 477.06 C 299.68 438.19 299.63 399.33 299.66 360.46 C 292.14 360.15 284.71 358.76 277.57 356.43 M 247.33 374.34 C 238.97 393.25 233.97 414.29 236.40 435.06 C 237.17 443.16 239.02 451.33 237.67 459.48 C 237.07 463.25 235.37 466.69 234.07 470.24 C 239.01 464.04 240.86 456.09 242.33 448.46 C 244.65 435.15 246.12 421.68 249.38 408.55 C 253.39 391.36 260.35 375.05 268.58 359.49 C 261.39 364.26 254.05 368.95 247.33 374.34 M 328.51 361.67 C 327.19 368.83 325.94 376.01 324.56 383.17 C 324.31 384.87 323.81 386.69 324.55 388.35 C 332.01 405.87 342.17 422.70 356.78 435.20 C 363.95 441.64 372.55 446.78 377.92 454.99 C 380.39 458.61 381.75 462.81 382.82 467.02 C 382.19 455.43 374.80 445.88 368.28 436.83 C 360.11 425.81 351.92 414.73 345.39 402.64 C 338.11 389.72 333.05 375.74 328.51 361.67 Z" />
<path fill="#7b3f00" opacity="1.00" d=" M 486.91 209.81 C 489.32 208.12 491.54 206.16 493.31 203.79 C 497.00 205.66 500.73 207.47 504.36 209.46 C 498.54 209.54 492.70 209.14 486.91 209.81 Z" />
<path fill="#7b3f00" opacity="1.00" d=" M 254.04 256.80 C 259.58 253.56 265.65 251.10 271.99 250.00 C 276.97 248.98 281.29 252.33 285.25 254.82 C 288.80 257.44 293.10 259.88 294.49 264.36 C 290.39 263.33 287.76 259.65 283.84 258.22 C 275.48 255.03 265.73 255.68 257.76 259.72 C 255.33 260.82 252.65 262.46 250.04 260.84 C 250.33 258.74 252.53 257.90 254.04 256.80 Z" />
<path fill="#7b3f00" opacity="1.00" d=" M 318.40 254.47 C 322.18 252.14 326.28 249.03 331.00 249.98 C 337.40 251.06 343.56 253.53 349.14 256.83 C 350.64 257.91 352.79 258.76 353.03 260.86 C 349.61 262.81 346.34 259.82 343.18 258.73 C 333.54 254.79 321.23 255.03 313.08 262.13 C 311.78 263.23 310.18 263.85 308.59 264.37 C 310.14 259.71 314.66 257.19 318.40 254.47 Z" />
<path fill="#7b3f00" opacity="1.00" d=" M 254.56 272.16 C 258.86 267.42 264.35 262.89 271.06 262.69 C 276.04 262.63 281.48 262.43 285.91 265.06 C 288.39 266.46 288.98 269.44 289.67 271.96 C 287.21 270.21 284.83 268.35 282.41 266.56 C 282.32 271.18 279.07 274.44 275.85 277.29 C 279.73 276.57 282.58 273.67 286.16 272.28 C 287.05 272.78 288.47 274.18 287.32 275.15 C 284.11 278.26 279.38 279.13 275.11 279.75 C 268.72 280.62 263.33 276.20 258.78 272.32 C 259.40 272.50 260.64 272.86 261.26 273.04 C 261.38 271.59 261.51 270.15 261.65 268.71 C 259.32 269.93 256.99 271.15 254.56 272.16 M 262.61 271.98 C 262.29 275.55 266.44 275.83 268.81 277.03 C 266.60 273.79 265.74 269.90 267.15 266.15 C 264.34 266.75 262.39 269.04 262.61 271.98 Z" />
<path fill="#7b3f00" opacity="1.00" d=" M 319.84 263.81 C 325.28 262.43 331.18 262.06 336.65 263.50 C 341.51 265.11 345.25 268.82 349.02 272.13 C 346.34 271.35 343.88 270.02 341.54 268.53 C 341.62 270.15 341.69 271.77 341.77 273.39 C 342.42 273.10 343.71 272.52 344.35 272.23 C 339.87 276.25 334.35 280.64 327.93 279.74 C 323.52 279.15 318.82 278.08 315.46 274.97 C 315.55 274.42 315.75 273.32 315.84 272.77 C 320.13 272.10 322.95 276.98 327.28 277.29 C 324.05 274.46 320.88 271.19 320.67 266.62 C 318.26 268.38 315.91 270.22 313.49 271.96 C 313.92 268.30 316.06 264.71 319.84 263.81 M 336.04 266.25 C 337.23 269.89 336.60 273.62 334.58 276.84 C 336.55 275.74 340.06 275.79 340.42 272.98 C 341.01 269.88 339.29 266.73 336.04 266.25 Z" />
<path fill="#7b3f00" opacity="1.00" d=" M 284.10 302.10 C 287.14 299.41 286.90 293.87 291.39 292.50 C 290.49 294.64 289.12 296.66 288.76 299.00 C 290.00 301.83 293.45 300.70 295.45 299.47 C 295.40 304.50 301.52 303.78 304.97 303.26 C 307.12 303.23 307.31 301.07 307.59 299.46 C 309.51 300.46 312.04 301.62 313.92 299.88 C 315.02 297.28 312.41 294.86 311.72 292.44 C 316.11 293.90 316.04 299.18 318.89 302.04 C 322.31 303.28 325.85 304.65 327.71 308.03 C 320.75 305.15 312.40 302.09 305.34 306.40 C 301.15 308.92 296.96 305.72 292.98 304.48 C 286.91 303.40 281.01 305.84 275.47 308.02 C 277.25 304.67 280.74 303.31 284.10 302.10 Z" />
<path fill="#7b3f00" opacity="1.00" d=" M 264.70 323.49 C 265.27 319.74 268.03 317.05 270.88 314.84 C 269.08 317.90 267.06 320.84 264.70 323.49 Z" />
<path fill="#7b3f00" opacity="1.00" d=" M 272.15 319.62 C 277.53 318.46 282.72 316.59 287.99 315.02 C 291.92 313.66 295.95 315.09 299.90 315.51 C 304.93 316.14 309.92 313.35 314.91 314.96 C 320.26 316.53 325.52 318.40 330.97 319.64 C 328.48 320.27 325.99 320.91 323.55 321.72 C 325.36 321.78 327.18 321.83 329.00 321.85 C 324.94 324.19 320.78 326.38 316.57 328.45 C 311.75 330.83 306.27 331.05 301.00 331.04 C 296.33 330.98 291.51 330.74 287.22 328.74 C 282.77 326.63 278.42 324.33 274.18 321.83 C 275.93 321.83 277.68 321.80 279.44 321.75 C 277.07 320.83 274.60 320.26 272.15 319.62 M 281.04 322.22 C 294.17 327.06 308.95 327.21 322.04 322.16 C 315.10 320.89 308.01 320.87 300.98 320.80 C 294.32 320.91 287.60 320.89 281.04 322.22 Z" />
<path fill="#7b3f00" opacity="1.00" d=" M 332.14 314.83 C 334.99 316.95 337.83 319.56 338.24 323.31 C 335.96 320.67 333.95 317.80 332.14 314.83 Z" />
<path fill="#7b3f00" opacity="1.00" d=" M 295.65 338.34 C 299.07 336.25 303.99 336.12 307.36 338.37 C 303.47 338.78 299.54 338.79 295.65 338.34 Z" />
</g>
<g id="#fcd116ff">
<path fill="#fcd116" opacity="1.00" d=" M 303.42 99.84 C 303.88 101.51 304.31 103.19 304.65 104.89 C 311.63 143.23 318.56 181.58 325.58 219.90 C 318.39 217.61 310.94 216.29 303.41 215.83 C 303.54 177.16 303.51 138.50 303.42 99.84 Z" />
<path fill="#fcd116" opacity="1.00" d=" M 369.77 104.94 C 367.96 109.15 365.82 113.31 365.26 117.92 C 364.00 127.68 366.68 137.33 367.04 147.06 C 368.07 163.65 364.20 180.12 358.48 195.59 C 357.23 198.73 356.50 202.57 353.21 204.27 C 346.84 208.42 340.84 213.16 334.27 217.02 C 342.73 201.95 349.31 185.80 353.45 169.01 C 356.71 156.19 358.29 143.05 360.42 130.02 C 361.89 121.19 364.12 112.12 369.77 104.94 Z" />
<path fill="#fcd116" opacity="1.00" d=" M 220.18 108.98 C 221.87 116.47 225.54 123.51 231.05 128.89 C 237.40 135.24 244.74 140.50 251.09 146.84 C 262.88 158.31 271.68 172.49 278.45 187.39 C 279.37 189.14 278.88 191.13 278.62 192.97 C 277.20 200.20 276.00 207.48 274.58 214.71 C 268.92 196.27 261.43 178.29 250.82 162.11 C 244.40 152.05 236.95 142.71 230.11 132.94 C 225.18 125.80 220.65 117.85 220.18 108.98 Z" />
<path fill="#fcd116" opacity="1.00" d=" M 170.13 153.91 C 171.44 154.67 172.73 155.45 174.00 156.29 C 205.48 178.07 236.93 199.90 268.44 221.65 C 269.07 222.02 270.65 223.37 268.98 223.70 C 262.76 226.93 256.99 230.97 251.84 235.73 C 224.61 208.46 197.26 181.29 170.13 153.91 Z" />
<path fill="#fcd116" opacity="1.00" d=" M 421.23 171.22 C 426.14 166.45 430.77 161.38 435.89 156.82 C 413.12 190.36 389.77 223.51 366.79 256.92 C 363.37 250.20 359.06 243.97 354.01 238.38 C 376.50 216.07 398.81 193.59 421.23 171.22 Z" />
<path fill="#fcd116" opacity="1.00" d=" M 459.02 215.20 L 459.26 215.04 C 460.19 215.58 461.14 216.12 462.09 216.66 C 455.30 223.71 449.75 231.85 442.69 238.66 C 431.49 249.79 417.65 257.83 403.35 264.32 C 401.41 265.22 399.28 265.80 397.15 265.27 C 389.74 263.97 382.36 262.52 374.95 261.22 C 393.86 255.50 412.22 247.70 428.71 236.74 C 439.13 230.01 448.79 222.20 459.02 215.20 Z" />
<path fill="#fcd116" opacity="1.00" d=" M 118.82 220.24 C 122.91 221.92 126.94 223.96 131.40 224.46 C 140.99 225.67 150.48 223.05 160.04 222.63 C 177.02 221.48 193.88 225.50 209.70 231.40 C 212.37 232.48 215.60 233.13 217.14 235.86 C 221.50 242.34 226.17 248.61 230.33 255.22 C 212.01 245.40 192.43 237.77 171.93 233.97 C 161.67 231.95 151.27 230.73 140.98 228.89 C 133.16 227.44 125.15 225.29 118.82 220.24 Z" />
<path fill="#fcd116" opacity="1.00" d=" M 290.48 220.68 C 303.78 218.53 317.71 220.32 329.96 225.95 C 343.31 232.02 354.58 242.53 361.60 255.41 C 368.36 267.70 371.12 282.11 369.50 296.04 C 367.78 311.56 360.46 326.35 349.26 337.21 C 338.93 347.31 325.32 354.02 310.99 355.94 C 295.92 358.07 280.18 354.99 267.07 347.26 C 254.15 339.71 243.81 327.83 238.20 313.96 C 231.49 297.60 231.51 278.62 238.25 262.28 C 246.94 240.63 267.42 224.27 290.48 220.68 M 254.04 256.80 C 252.53 257.90 250.33 258.74 250.04 260.84 C 252.65 262.46 255.33 260.82 257.76 259.72 C 265.73 255.68 275.48 255.03 283.84 258.22 C 287.76 259.65 290.39 263.33 294.49 264.36 C 293.10 259.88 288.80 257.44 285.25 254.82 C 281.29 252.33 276.97 248.98 271.99 250.00 C 265.65 251.10 259.58 253.56 254.04 256.80 M 318.40 254.47 C 314.66 257.19 310.14 259.71 308.59 264.37 C 310.18 263.85 311.78 263.23 313.08 262.13 C 321.23 255.03 333.54 254.79 343.18 258.73 C 346.34 259.82 349.61 262.81 353.03 260.86 C 352.79 258.76 350.64 257.91 349.14 256.83 C 343.56 253.53 337.40 251.06 331.00 249.98 C 326.28 249.03 322.18 252.14 318.40 254.47 M 254.56 272.16 C 256.99 271.15 259.32 269.93 261.65 268.71 C 261.51 270.15 261.38 271.59 261.26 273.04 C 260.64 272.86 259.40 272.50 258.78 272.32 C 263.33 276.20 268.72 280.62 275.11 279.75 C 279.38 279.13 284.11 278.26 287.32 275.15 C 288.47 274.18 287.05 272.78 286.16 272.28 C 282.58 273.67 279.73 276.57 275.85 277.29 C 279.07 274.44 282.32 271.18 282.41 266.56 C 284.83 268.35 287.21 270.21 289.67 271.96 C 288.98 269.44 288.39 266.46 285.91 265.06 C 281.48 262.43 276.04 262.63 271.06 262.69 C 264.35 262.89 258.86 267.42 254.56 272.16 M 319.84 263.81 C 316.06 264.71 313.92 268.30 313.49 271.96 C 315.91 270.22 318.26 268.38 320.67 266.62 C 320.88 271.19 324.05 274.46 327.28 277.29 C 322.95 276.98 320.13 272.10 315.84 272.77 C 315.75 273.32 315.55 274.42 315.46 274.97 C 318.82 278.08 323.52 279.15 327.93 279.74 C 334.35 280.64 339.87 276.25 344.35 272.23 C 343.71 272.52 342.42 273.10 341.77 273.39 C 341.69 271.77 341.62 270.15 341.54 268.53 C 343.88 270.02 346.34 271.35 349.02 272.13 C 345.25 268.82 341.51 265.11 336.65 263.50 C 331.18 262.06 325.28 262.43 319.84 263.81 M 284.10 302.10 C 280.74 303.31 277.25 304.67 275.47 308.02 C 281.01 305.84 286.91 303.40 292.98 304.48 C 296.96 305.72 301.15 308.92 305.34 306.40 C 312.40 302.09 320.75 305.15 327.71 308.03 C 325.85 304.65 322.31 303.28 318.89 302.04 C 316.04 299.18 316.11 293.90 311.72 292.44 C 312.41 294.86 315.02 297.28 313.92 299.88 C 312.04 301.62 309.51 300.46 307.59 299.46 C 307.31 301.07 307.12 303.23 304.97 303.26 C 301.52 303.78 295.40 304.50 295.45 299.47 C 293.45 300.70 290.00 301.83 288.76 299.00 C 289.12 296.66 290.49 294.64 291.39 292.50 C 286.90 293.87 287.14 299.41 284.10 302.10 M 264.70 323.49 C 267.06 320.84 269.08 317.90 270.88 314.84 C 268.03 317.05 265.27 319.74 264.70 323.49 M 272.15 319.62 C 274.60 320.26 277.07 320.83 279.44 321.75 C 277.68 321.80 275.93 321.83 274.18 321.83 C 278.42 324.33 282.77 326.63 287.22 328.74 C 291.51 330.74 296.33 330.98 301.00 331.04 C 306.27 331.05 311.75 330.83 316.57 328.45 C 320.78 326.38 324.94 324.19 329.00 321.85 C 327.18 321.83 325.36 321.78 323.55 321.72 C 325.99 320.91 328.48 320.27 330.97 319.64 C 325.52 318.40 320.26 316.53 314.91 314.96 C 309.92 313.35 304.93 316.14 299.90 315.51 C 295.95 315.09 291.92 313.66 287.99 315.02 C 282.72 316.59 277.53 318.46 272.15 319.62 M 332.14 314.83 C 333.95 317.80 335.96 320.67 338.24 323.31 C 337.83 319.56 334.99 316.95 332.14 314.83 M 295.65 338.34 C 299.54 338.79 303.47 338.78 307.36 338.37 C 303.99 336.12 299.07 336.25 295.65 338.34 Z" />
<path fill="#fcd116" opacity="1.00" d=" M 128.86 283.21 C 163.61 276.85 198.39 270.62 233.13 264.21 C 231.18 271.43 229.56 278.76 229.26 286.27 C 195.51 286.26 161.75 286.27 127.99 286.26 C 123.83 286.29 119.65 286.42 115.52 285.91 C 119.88 284.64 124.40 284.04 128.86 283.21 Z" />
<path fill="#fcd116" opacity="1.00" d=" M 262.61 271.98 C 262.39 269.04 264.34 266.75 267.15 266.15 C 265.74 269.90 266.60 273.79 268.81 277.03 C 266.44 275.83 262.29 275.55 262.61 271.98 Z" />
<path fill="#fcd116" opacity="1.00" d=" M 336.04 266.25 C 339.29 266.73 341.01 269.88 340.42 272.98 C 340.06 275.79 336.55 275.74 334.58 276.84 C 336.60 273.62 337.23 269.89 336.04 266.25 Z" />
<path fill="#fcd116" opacity="1.00" d=" M 373.83 290.08 C 406.22 290.11 438.61 290.09 471.00 290.10 C 477.37 290.17 483.77 289.84 490.13 290.41 C 450.00 297.52 409.92 304.99 369.80 312.19 C 372.12 305.03 373.51 297.60 373.83 290.08 Z" />
<path fill="#fcd116" opacity="1.00" d=" M 200.41 311.38 C 202.83 310.09 205.53 311.05 208.05 311.44 C 214.76 312.84 221.58 313.70 228.24 315.35 C 212.08 319.91 196.45 326.39 182.00 334.95 C 171.62 341.00 162.01 348.25 152.35 355.36 C 143.56 361.88 134.11 368.43 122.94 369.75 C 127.63 368.04 132.49 366.48 136.45 363.34 C 144.00 357.54 148.91 349.20 155.26 342.25 C 167.40 328.32 183.61 318.66 200.41 311.38 Z" />
<path fill="#fcd116" opacity="1.00" d=" M 215.52 349.56 C 222.57 339.63 229.16 329.36 236.50 319.64 C 239.77 326.34 244.14 332.43 249.11 337.97 C 221.70 365.26 194.49 392.75 167.00 419.95 C 182.91 396.31 199.39 373.06 215.52 349.56 Z" />
<path fill="#fcd116" opacity="1.00" d=" M 281.04 322.22 C 287.60 320.89 294.32 320.91 300.98 320.80 C 308.01 320.87 315.10 320.89 322.04 322.16 C 308.95 327.21 294.17 327.06 281.04 322.22 Z" />
<path fill="#fcd116" opacity="1.00" d=" M 372.70 321.01 C 394.18 332.91 417.77 340.89 442.10 344.31 C 456.33 346.96 472.00 347.07 484.15 355.92 C 480.47 354.59 476.93 352.78 473.04 352.10 C 464.70 350.51 456.28 352.35 447.96 353.06 C 427.34 355.34 406.44 350.63 387.60 342.40 C 382.27 335.56 377.50 328.24 372.70 321.01 Z" />
<path fill="#fcd116" opacity="1.00" d=" M 350.45 341.47 C 351.53 340.35 352.56 342.08 353.38 342.67 C 369.65 359.04 386.01 375.32 402.32 391.66 C 412.56 402.09 423.19 412.13 433.16 422.81 C 399.69 399.71 366.21 376.61 332.87 353.33 C 339.29 350.27 345.07 346.09 350.45 341.47 Z" />
<path fill="#fcd116" opacity="1.00" d=" M 277.57 356.43 C 284.71 358.76 292.14 360.15 299.66 360.46 C 299.63 399.33 299.68 438.19 299.63 477.06 C 292.02 436.90 284.96 396.63 277.57 356.43 Z" />
<path fill="#fcd116" opacity="1.00" d=" M 247.33 374.34 C 254.05 368.95 261.39 364.26 268.58 359.49 C 260.35 375.05 253.39 391.36 249.38 408.55 C 246.12 421.68 244.65 435.15 242.33 448.46 C 240.86 456.09 239.01 464.04 234.07 470.24 C 235.37 466.69 237.07 463.25 237.67 459.48 C 239.02 451.33 237.17 443.16 236.40 435.06 C 233.97 414.29 238.97 393.25 247.33 374.34 Z" />
<path fill="#fcd116" opacity="1.00" d=" M 328.51 361.67 C 333.05 375.74 338.11 389.72 345.39 402.64 C 351.92 414.73 360.11 425.81 368.28 436.83 C 374.80 445.88 382.19 455.43 382.82 467.02 C 381.75 462.81 380.39 458.61 377.92 454.99 C 372.55 446.78 363.95 441.64 356.78 435.20 C 342.17 422.70 332.01 405.87 324.55 388.35 C 323.81 386.69 324.31 384.87 324.56 383.17 C 325.94 376.01 327.19 368.83 328.51 361.67 Z" />
</g>
<g id="#08318440">
<path fill="#083184" opacity="0.25" d=" M 768.36 960.17 C 769.45 959.41 771.88 960.34 771.67 961.81 C 770.57 962.48 768.13 961.58 768.36 960.17 Z" />
</g>
</svg>
