<?xml version="1.0" encoding="UTF-8" standalone="no"?>
<!-- Creator: CorelDRAW -->

<svg
   xmlns:dc="http://purl.org/dc/elements/1.1/"
   xmlns:cc="http://creativecommons.org/ns#"
   xmlns:rdf="http://www.w3.org/1999/02/22-rdf-syntax-ns#"
   xmlns:svg="http://www.w3.org/2000/svg"
   xmlns="http://www.w3.org/2000/svg"
   xmlns:sodipodi="http://sodipodi.sourceforge.net/DTD/sodipodi-0.dtd"
   xmlns:inkscape="http://www.inkscape.org/namespaces/inkscape"
   xml:space="preserve"
   width="968.26971"
   height="618.55713"
   style="fill-rule:evenodd"
   viewBox="0 0 273.26723 174.57057"
   version="1.0"
   id="svg2"
   inkscape:version="0.47 r22583"
   sodipodi:docname="ZZ.svg"><metadata
   id="metadata219"><rdf:RDF><cc:Work
       rdf:about=""><dc:format>image/svg+xml</dc:format><dc:type
         rdf:resource="http://purl.org/dc/dcmitype/StillImage" /></cc:Work></rdf:RDF></metadata><sodipodi:namedview
   pagecolor="#ffffff"
   bordercolor="#666666"
   borderopacity="1"
   objecttolerance="10"
   gridtolerance="10"
   guidetolerance="10"
   inkscape:pageopacity="0"
   inkscape:pageshadow="2"
   inkscape:window-width="1280"
   inkscape:window-height="1004"
   id="namedview217"
   showgrid="false"
   inkscape:zoom="0.37460317"
   inkscape:cx="-229.40068"
   inkscape:cy="205.96769"
   inkscape:window-x="-8"
   inkscape:window-y="-8"
   inkscape:window-maximized="1"
   inkscape:current-layer="svg2" />
 <defs
   id="defs4"><inkscape:perspective
   sodipodi:type="inkscape:persp3d"
   inkscape:vp_x="0 : 315 : 1"
   inkscape:vp_y="0 : 1000 : 0"
   inkscape:vp_z="990 : 315 : 1"
   inkscape:persp3d-origin="495 : 210 : 1"
   id="perspective221" />
  <style
   type="text/css"
   id="style6">
   
    .str0 {stroke:#0978AB;stroke-width:0.375;stroke-linejoin:round}
    .str1 {stroke:#646464;stroke-width:0.5;stroke-linejoin:round}
    .fil5 {fill:none}
    .fil3 {fill:white}
    .fil2 {fill:#0099B5}
    .fil6 {fill:#1EB53A}
    .fil1 {fill:#CE1126}
    .fil4 {fill:whitesmoke}
    .fil0 {fill:white}
   
  </style>
 <inkscape:perspective
   id="perspective3983"
   inkscape:persp3d-origin="0.5 : 0.33333333 : 1"
   inkscape:vp_z="1 : 0.5 : 1"
   inkscape:vp_y="0 : 1000 : 0"
   inkscape:vp_x="0 : 0.5 : 1"
   sodipodi:type="inkscape:persp3d" /><inkscape:perspective
   id="perspective3996"
   inkscape:persp3d-origin="0.5 : 0.33333333 : 1"
   inkscape:vp_z="1 : 0.5 : 1"
   inkscape:vp_y="0 : 1000 : 0"
   inkscape:vp_x="0 : 0.5 : 1"
   sodipodi:type="inkscape:persp3d" /><inkscape:perspective
   id="perspective4022"
   inkscape:persp3d-origin="0.5 : 0.33333333 : 1"
   inkscape:vp_z="1 : 0.5 : 1"
   inkscape:vp_y="0 : 1000 : 0"
   inkscape:vp_x="0 : 0.5 : 1"
   sodipodi:type="inkscape:persp3d" /><inkscape:perspective
   id="perspective4035"
   inkscape:persp3d-origin="0.5 : 0.33333333 : 1"
   inkscape:vp_z="1 : 0.5 : 1"
   inkscape:vp_y="0 : 1000 : 0"
   inkscape:vp_x="0 : 0.5 : 1"
   sodipodi:type="inkscape:persp3d" /><inkscape:perspective
   id="perspective4048"
   inkscape:persp3d-origin="0.5 : 0.33333333 : 1"
   inkscape:vp_z="1 : 0.5 : 1"
   inkscape:vp_y="0 : 1000 : 0"
   inkscape:vp_x="0 : 0.5 : 1"
   sodipodi:type="inkscape:persp3d" /><inkscape:perspective
   id="perspective4062"
   inkscape:persp3d-origin="0.5 : 0.33333333 : 1"
   inkscape:vp_z="1 : 0.5 : 1"
   inkscape:vp_y="0 : 1000 : 0"
   inkscape:vp_x="0 : 0.5 : 1"
   sodipodi:type="inkscape:persp3d" /><inkscape:perspective
   id="perspective4088"
   inkscape:persp3d-origin="0.5 : 0.33333333 : 1"
   inkscape:vp_z="1 : 0.5 : 1"
   inkscape:vp_y="0 : 1000 : 0"
   inkscape:vp_x="0 : 0.5 : 1"
   sodipodi:type="inkscape:persp3d" /><inkscape:perspective
   id="perspective4239"
   inkscape:persp3d-origin="0.5 : 0.33333333 : 1"
   inkscape:vp_z="1 : 0.5 : 1"
   inkscape:vp_y="0 : 1000 : 0"
   inkscape:vp_x="0 : 0.5 : 1"
   sodipodi:type="inkscape:persp3d" /></defs>
 
<path
   id="_41396176"
   class="fil0"
   d="m 65.002143,80.151698 c 0.3727,0.7956 1.6616,1.9329 1.5143,2.856701 -0.0651,0.408999 -0.6383,0.5507 -0.8246,0.877699 -0.225,0.3949 -0.2566,1.083601 -0.2566,1.550501 0,0.115599 0.0257,0.2409 0.0186,0.355399 -0.01,0.154701 -0.1013,0.336101 -0.0513,0.496401 0.2512,0.8067 1.0952,1.0219 1.7576,1.420598 0.4982,0.299802 1.5975,1.000402 2.1064,1.410203 0.3447,0.277599 0.657,0.599397 1.0024,0.875998 0.2398,0.191899 0.5976,0.370001 0.8633,0.518701 0.6773,0.379098 0.9609,0.218201 1.72531,0.0966 0.0934,-0.0149 0.2069,0.02241 0.30349,0.01561 l 0.672,-0.0472 c 0.7796,-0.0484 1.5434,-0.0623 2.3222,-0.057 0.1638,-0.0434 0.4115,-0.112098 0.577,-0.1046 0.29531,0.01341 0.5961,0.0381 0.8914,0.0402 0.2375,0.0017 0.5164,-0.0737 0.7512,-0.109897 0.1092,-0.01679 0.2441,0.0299 0.3566,0.02359 0.0199,-0.0011 0.11521,-0.0523 0.146,-0.0701 0.1692,0.0023 0.3381,0.0369 0.5061,0.0391 0.148,0.002 0.297,-0.034 0.4459,-0.02069 0.2606,0.02331 0.4759,0.0647 0.7406,0.0564 0.1574,0.173899 0.2737,0.378601 0.4535,0.5285 0.2373,0.0284 0.4572,-0.103 0.6915,-0.0616 0.1929,0.0341 0.6912,0.678801 0.8503,0.805301 0.1597,0.126898 0.3629,0.1552 0.5429,0.233499 0.2869,0.124799 0.467,0.252601 0.7666,0.3203 l 0.0974,-0.035 c 0.1,0.0624 0.4514,0.0978 0.5247,0.0298 0.1415,0.0633 0.5313,-0.0142 0.6902,-0.0316 l 0.0495,-0.046 c 0.0865,0.01761 0.2947,-0.02599 0.3632,-0.0553 0.2916,-0.124401 0.4385,-0.4877 0.4972,-0.7763 0.008,-0.039 0.0285,-0.289701 0.0368,-0.305999 0.043,-0.085 0.1283,-0.188601 0.1544,-0.272001 0.0436,-0.139601 0.0167,-0.300199 -2.8e-4,-0.461501 l 0.3312,-0.0539 c -0.0416,-0.261702 -0.0134,-0.429802 0.1848,-0.645601 0.5603,-0.114599 0.9552,0.395399 1.4648,0.467899 l 0.6223,0.0501 0.0741,-0.002 c 0.0215,-0.003 0.0857,-0.0193 0.1679,-0.0552 l 0.141,-0.064 0.1371,-0.0626 c 0.025,-0.01109 0.0448,-0.021 0.0554,-0.0243 0.0745,0.0463 0.2261,0.435602 0.2437,0.524203 0.0721,0.3632 0.9049,0.740198 1.2315,0.581699 0.0632,0.145901 0.184,0.273101 0.3127,0.305399 0.0864,0.167301 0.2796,0.4978 0.5021,0.526801 0.3101,0.0403 0.2937,0.470101 0.8293,0.4302 0.0994,0.1462 0.1621,0.1947 0.3188,0.2859 l 0.1183,0.0674 c 0.1674,0.305901 0.3282,0.560999 0.6083,0.5708 0.0469,0.164699 0.1013,0.320599 0.1562,0.4988 0.0603,0.195501 -0.235,0.7086 0.5082,0.887501 1.1834,0.284799 0.4627,1.1192 1.0918,1.382299 -0.0522,-0.0011 -0.0984,0.214399 -0.1048,0.403298 -0.0189,0.559402 0.1949,1.086003 0.159,1.646903 -0.0215,0.336199 -0.029,0.579599 -0.009,0.901399 0.1213,0.4685 0.2742,0.5425 0.436,0.9154 0.0613,0.246299 0.0507,0.306399 0.2064,0.536899 0.0525,0.2968 0.0329,0.6159 0.0719,0.9168 l 0.0195,0.0777 0.1039,0.2743 0.0299,0.0603 c 0.0484,0.0776 0.12361,0.1459 0.2061,0.2054 0.1449,0.1045 0.55241,0.8735 0.60011,1.1189 0.1136,0.5844 0.0707,0.6599 0.392,1.2254 0.3539,0.6227 0.9026,0.7708 1.0461,1.0222 0.4637,0.8121 0.9228,0.621 1.4383,1.1975 0.618097,0.6915 0.405397,0.3555 1.004397,0.6535 -0.0556,0.2609 -0.1621,0.5079 -0.2214,0.7679 -0.2181,0.9559 1.1226,1.1053 0.8508,1.8927 -0.1712,0.4958 -0.0512,0.64 0.0131,1.1813 0.0142,0.1192 0.3034,1.2758 0.3781,1.4686 0.0215,0.1204 0.0266,0.7151 -0.0512,0.8402 -0.56861,0.9148 0.0104,0.8535 0.29199,1.5072 0.008,0.1187 0.18235,0.2307 0.19355,0.3418 l 101.59238,0 c 0.18415,0.11516 -0.0529,-0.17217 -0.10473,-0.4398 l 0.0111,-0.1824 0.0823,-0.0978 c 0.1038,-0.066 0.3119,-0.0795 0.4252,-0.035 0.1635,0.249 0.3066,0.4562 0.3462,0.755 l 0.2534,0 c 0.0212,-0.0762 0.036,-0.1484 0.0392,-0.2386 0.3325,-0.3742 0.9985,-0.4988 1.4936,-0.4325 0.2641,0.0354 0.5122,0.1749 0.7861,0.1041 l 0.1111,-0.2289 c 0.0113,-0.4061 -0.1714,-0.8634 -0.296,-1.2566 -0.0985,-0.0837 -0.1839,-0.1527 -0.2907,-0.2227 -0.9674,0.0328 -1.4498,0.0548 -2.408,0.302 -0.1421,0.0367 -0.3025,0.062 -0.4383,0.1128 -0.1433,0.0535 -0.2809,0.143 -0.4253,0.1909 -0.3235,0.1071 -0.663,0.1751 -0.9884,0.2772 -0.15,0.0471 -0.2988,0.153 -0.4503,0.1932 -0.3719,0.099 -0.7817,0.175 -1.1662,0.1639 -0.4445,-0.2616 -0.8325,-0.4563 -1.1979,-0.8028 l 0.0817,-0.2082 0.9981,-0.2899 c 0.0688,-0.1176 0.2014,-0.0455 0.33,-0.0742 0.6997,-0.1563 1.4407,-0.4498 2.1094,-0.6654 0.0646,-0.0209 0.1354,-0.0614 0.1979,-0.0898 l 0.1393,-0.0632 c 0.4401,0.1439 0.8365,0.3506 1.2887,0.1047 0.1474,-0.0801 0.3446,-0.1573 0.4464,-0.2986 0.6953,-0.2155 1.9769,-0.3293 2.7186,-0.2719 0.1561,0.012 0.3344,0.1256 0.4928,0.1552 0.0664,0.0124 0.7309,0.0393 0.7694,0.042 0.0691,0.005 0.1522,-0.0266 0.2195,-0.0172 0.1167,0.0161 0.2448,0.0968 0.3606,0.1271 0.1427,0.0374 0.6309,-0.1173 0.64,-0.1151 0.3778,0.0904 0.7327,0.1473 1.126,0.1197 0.1347,0.0882 0.2387,0.1482 0.3849,0.2127 l 0.1664,-0.1386 c -0.1431,-0.3012 -0.1991,-0.6354 -0.4309,-0.8724 l -0.4752,-0.0926 -0.1412,-0.1443 0.0815,-0.2911 -0.1194,-0.1978 0.0615,-0.2117 c 0.1302,-0.0108 0.1671,0.0258 0.2901,0.0552 0.1899,0.0454 0.4078,0.0152 0.5986,0.006 0.1291,-0.1219 0.2608,-0.2419 0.3876,-0.3663 l 0.002,-0.3105 c 0.1784,-0.2934 0.1152,-0.2027 0.1092,-0.6034 -0.1918,-0.1508 -0.3486,-0.2685 -0.5034,-0.4532 0.004,-0.3188 0.005,-0.4765 -0.2349,-0.6804 l 0.0818,-0.291 -0.1615,-0.0656 c -0.157,-0.3118 -0.0966,-0.5709 -0.3552,-0.8782 0.001,-0.0947 0.005,-0.1899 0.004,-0.2847 l 0.1194,-0.1386 0.0135,-0.2617 c -0.0699,-0.0601 -0.1713,-0.1259 -0.2268,-0.1949 -0.1616,-0.201 -0.309,-0.4229 -0.4615,-0.6316 -0.1859,-0.2543 0.4592,-0.6369 0.6102,-0.6929 0.0227,-0.008 0.1902,-0.0249 0.2243,-0.0294 0.5106,-0.0672 0.301,-0.0101 0.7021,0.007 0.0175,5.6e-4 0.0833,-0.0214 0.1035,-0.0265 l 0.0893,-0.0915 -0.009,-0.0609 0.1381,-0.25601 0.165,-0.0788 0.0897,-0.4325 c -0.3607,-0.77309 -0.3193,-0.69389 -0.2676,-1.5362 0.0118,-0.1924 0.0139,-0.3845 0.0492,-0.574 l 0.11551,-0.131 c -0.009,-0.3669 0.47139,-0.839 0.7015,-1.206199 0.0248,-0.009 0.0895,-0.0378 0.11239,-0.0408 0.4691,-0.061 0.3165,-0.0312 0.6827,0.0863 0.3828,0.12271 0.7475,0.2053 1.141,0.254809 l 0.1464,0.0374 c 0.26541,0.15499 0.4547,0.58469 0.5512,0.83619 0.0471,0.1226 0.0359,0.2857 0.0854,0.4066 0.008,0.0199 0.1683,0.236 0.19061,0.2674 0.0228,0.032 0.3937,0.2628 0.43329,0.3077 0.0934,0.1063 0.1103,0.208 0.25041,0.30141 0.22599,0.0345 0.18809,0.0112 0.37599,0.1076 0.0858,0.15829 0.1496,0.46589 0.2782,0.58429 0.2731,0.0782 0.5094,-0.008 0.78621,0.015 0.0394,-0.0246 0.31509,-0.1915 0.32209,-0.2013 0.2447,-0.3408 0.323,-0.9424 0.6366,-1.1693 0.2856,-0.20659 0.671,0.1474 0.84241,0.0552 0.2016,-0.21599 0.51799,-0.61809 0.85429,-0.5711 0.0829,0.0507 0.552,0.3702 0.62121,0.34051 0.51329,-0.5486 0.5586,-0.5327 1.23019,-0.6292 0.0278,-0.004 0.1154,-0.0118 0.1376,-0.0201 0.3049,-0.11381 0.4286,-0.3 0.6495,-0.42851 0.1407,-0.0818 0.3595,-0.1014 0.4915,-0.191 0.0397,-0.0269 0.8637,-0.801289 0.9261,-0.937399 0.0867,-0.18949 0.0724,-0.3699 0.2671,-0.4946 0.3175,-0.11629 0.56051,0.15391 0.95121,0.1662 0.1627,-0.10309 0.3317,-0.23329 0.5039,-0.3186 0.3527,-0.17469 0.3601,-0.10339 0.5526,-0.477894 0.1006,-0.0097 0.4488,-0.2898 0.5662,-0.336502 0.30889,-0.122899 0.7262,0.187901 0.9525,-0.552199 0.0611,-0.1997 -0.1906,-0.4228 -0.0451,-0.685001 0.0827,-0.0328 0.1961,-0.205399 0.23409,-0.278299 -0.0772,-0.429599 0.30791,-0.5138 0.3729,-0.779899 l -0.11669,-0.438802 c 0.0315,-0.1716 0.0971,-0.335398 0.25429,-0.426799 0.76631,-0.445699 1.0578,0.0767 1.5299,0.653999 0.0677,0.0827 0.2145,0.1263 0.2862,0.2076 0.0979,0.111102 0.1859,0.245502 0.2757,0.364101 0.005,0.0059 0.0102,0.0424 0.0123,0.0512 0.4032,0.3108 1.3121,1.6547 1.4782,2.195201 0.7173,0.417094 0.4547,0.614094 0.7344,1.140994 0.0895,0.1688 0.3448,0.3498 0.3327,0.56081 l -0.0668,0.0978 -0.1275,0.0356 -0.1964,-0.0845 -0.2283,-0.5757 -0.1262,-0.0265 c -0.0253,0.0173 -0.2056,0.65409 -0.2313,0.76609 -0.0145,0.0632 0.0308,0.193899 0.0571,0.248499 0.2508,0.2544 1.3262,0.2266 1.5754,0.2387 0.0932,0.004 0.188,0.224 0.3233,0.3673 -0.3387,0.299 -0.2336,0.2185 -0.3878,0.6077 -0.2776,-0.1216 -0.6992,0.1513 -0.6013,0.47451 l 0.009,0.0321 c -0.3124,0.0695 -0.3466,0.0547 -0.5631,0.25869 -0.0372,0.007 -0.1453,0.0825 -0.2037,0.1367 -0.1539,0.0636 -0.2863,0.1794 -0.3942,0.3041 l -0.1135,0.0308 -0.0802,0.033 c -0.28,0.15941 -0.534,0.80251 -0.7005,1.077 -0.071,0.11711 -0.1298,0.196 -0.1167,0.1925 -0.1759,0.0498 -0.3047,-0.007 -0.4798,0.1247 -0.2552,-0.0213 -0.5211,-0.004 -0.7287,0.1711 l -0.0491,0.051 c -0.1089,0.1392 -0.1488,0.3238 -0.1732,0.4947 -0.1228,0.1224 -0.1561,0.2103 -0.1806,0.3803 -0.6083,0.0501 -1.0085,0.4115 -1.4764,0.4872 l -0.1323,0.0223 c -0.148,0.027 -0.2592,0.0908 -0.3761,0.1861 -0.1056,0.0861 -0.5278,0.306 -0.5467,0.3361 -0.23,0.3656 0.0124,0.7198 0.176,1.0592 0,0 0.4282,0.1174 0.4565,0.2603 0.3164,0.105 0.2306,0.4567 0.4712,0.6459 0.2878,0.2263 0.5098,-0.1102 0.7256,-0.065 0.1177,0.0246 0.2451,0.1188 0.3429,0.13861 0.4321,0.0872 0.657,0.1554 1.0731,0.34099 0.3885,0.1733 0.6545,0.2317 0.8287,0.63621 l -0.0499,0.30129 c 0.0799,0.1976 0.1595,0.3876 0.1907,0.60111 -0.1356,0.26 -0.1376,0.49429 -0.1523,0.77579 l -0.0451,0.0403 0.184,0.3214 0.2451,0.1334 c 0.0475,0.1929 0.1452,0.2959 0.2297,0.4561 0.4306,0.8166 0.2234,0.7344 1.0905,0.5757 0.0879,-0.016 0.5277,-0.0493 0.5636,-0.1156 0.5437,0.001 1.4228,-0.2412 1.8772,-0.5297 0.202,-0.1282 0.3911,-0.2901 0.5852,-0.433 l 0.0922,0.0288 c 0.4831,-0.1448 0.9946,-0.138 1.4944,-0.1421 0.0788,-0.2385 0.0261,-0.4225 -0.0709,-0.6506 l 0.0474,-0.092 c 0.1243,-0.0978 0.8186,-0.40939 1.0516,-0.4646 0.1524,-0.0361 0.35,-0.0105 0.4921,-0.0622 0.3272,-0.1192 0.5727,-0.4799 0.8786,-0.6113 0.2197,-0.0945 0.3226,-0.0526 0.5485,-0.0639 0.1447,-0.007 0.3329,-0.1242 0.4777,-0.1605 0.3431,-0.0857 0.653,0.003 0.9765,0.1105 0.1631,0.0544 0.3828,-0.1119 0.5314,-0.0391 0.002,0.1087 -0.0212,0.3693 0.0584,0.4376 0.1943,0.1345 0.6592,-0.1768 0.8794,-0.2203 l 0.1084,0.0847 -0.0318,0.1346 c 0.0231,0.0306 0.0393,0.0719 0.0576,0.1057 0.1142,0.007 0.2884,-0.0301 0.3857,-0.0932 0.6285,0.09 0.4597,0.9698 1.8802,0.8824 0.1967,0.178 -0.0627,0.4407 0.0938,0.8287 0.0674,0.03 0.5844,0.2518 0.6104,0.272 0.0738,0.0569 0.2196,0.1971 0.3173,0.199 0.1243,-0.0755 0.3974,-0.0819 0.5341,-0.0656 l 0.28,0.329 0.0999,0.01 0.0399,-0.0679 c -0.0693,-0.1796 0.0315,-0.3435 0.0443,-0.5175 0.0195,-0.2646 -0.1599,-0.5101 -0.043,-0.7793 0.4994,-0.1007 0.8518,-0.0676 1.1016,0.4221 l 0.0637,0.2765 c 0.01,0.428 -0.1992,0.6076 0.119,0.9134 l 0.0819,0.0253 c 0.1293,0.1169 0.2396,0.3081 0.3087,0.4652 l 0.0828,0.049 c 0.1872,-0.0308 0.277,-0.1471 0.4406,-0.2455 0.1424,-0.0858 0.3154,-0.0799 0.4544,-0.1462 0.285,-0.136 0.6119,-0.3345 0.8561,-0.5458 0.1995,0.057 0.3127,-0.0396 0.4446,-0.1599 0.1331,-0.2552 -0.6417,-0.7153 -0.0668,-0.9627 0.1148,-0.0231 0.1817,0.0532 0.2788,0.0787 0.125,0.0328 0.2982,0.0187 0.4167,0.0835 0.223,0.1217 0.333,0.3967 0.6491,0.3203 0.4121,-0.0996 0.3037,-0.3467 0.48561,-0.5912 0.0763,-0.1025 0.2757,-0.2544 0.38529,-0.3555 l 0.0221,-0.16669 c -0.1561,-0.28951 -0.3967,-0.31931 -0.6733,-0.3854 -0.035,-0.0355 -0.082,-0.11901 -0.0746,-0.17191 0.0957,-0.287 0.5444,-0.4796 0.7719,-0.5608 0.0898,-0.1263 0.1738,-0.2756 0.2756,-0.3894 0.1122,-0.12549 0.2626,-0.2118 0.3769,-0.3549 0.0396,-0.0495 0.055,-0.1271 0.0934,-0.1782 0.1783,-0.2371 0.574,0.10121 0.6614,-0.5263 0.071,-0.0659 0.2521,-0.258 0.2676,-0.3606 -0.0407,-0.2215 -0.0792,-0.3777 -0.1552,-0.5861 l 0.1584,-0.3559 c 0.1587,0.1035 0.3196,0.2357 0.5106,0.2702 0.003,5.7e-4 0.1178,-0.0184 0.1278,-0.0236 0.4537,-0.2327 0.4912,-0.4861 0.653,-0.9288 0.202,-0.0382 0.2968,0.0396 0.5029,0.0593 0.1158,0.0111 0.2855,-0.0231 0.4044,-0.0328 l 0.1558,0.0937 0.0222,0.0846 c -0.0201,0.0674 -0.1322,0.3932 -0.1133,0.4445 0.0661,0.1578 0.3309,0.1274 0.4618,0.1117 0.1757,0.0677 0.2025,0.3331 0.3848,0.3893 l 0.2731,-0.1041 c 0.2967,0.0366 0.651,0.5525 0.859,0.7384 0.2007,0.1794 0.4414,0.1201 0.6646,0.2238 l 0.1041,-0.0218 0.0601,-0.0541 c 0.049,-0.1374 -0.007,-0.3823 -0.0739,-0.5045 0.0947,-0.3105 0.2369,-0.6285 0.3942,-0.912 l -0.0845,-0.2578 c -0.2296,-0.125 -0.2409,-0.4538 -0.2469,-0.6832 l -0.0898,-0.1248 c -0.0939,-0.0323 -0.2338,0.063 -0.3712,0.0363 l -0.0482,-0.1548 0.0562,-0.1725 0.0933,-0.0645 c 0.6089,0.0638 0.7443,-0.5042 -0.0124,-0.6625 -0.2192,-0.1461 0.08,-0.4325 -0.65519,-0.5843 l -0.0509,-0.0979 c 0.0147,-0.0629 0.0775,-0.1557 0.13731,-0.1845 0.27879,0.0886 0.4652,-0.0937 0.7171,-0.1478 0.1067,0.0194 0.55319,0.3939 0.61669,0.4642 0.1725,0.1909 0.323,0.6406 0.66001,0.9115 l 0.0722,0.012 0.2353,-0.0977 c 0.22521,0.009 0.4609,0.39429 0.7269,0.4888 0.44921,-0.0619 0.6606,0.0753 0.98611,0.4055 0.0986,0.0311 0.2833,-0.006 0.3757,-0.0397 0.43539,-0.536 -0.0504,-0.7448 0.6193,-1.1404 l 0.0159,-0.2605 0.111,-0.1266 c 0.8843,0.1032 0.6158,0.418 1.0286,0.5521 0.0617,0.004 0.1806,-0.0208 0.2226,-0.0725 0.0423,-0.3419 -0.0891,-1.2999 -0.003,-1.4435 l 0.2565,-0.206 -0.0128,-0.1178 c -0.0961,-0.0843 -0.2182,-0.2833 -0.1601,-0.417 l 0.1062,-0.12141 c 0.3018,-0.0879 0.5776,0.065 0.903,-0.0396 0.228,-0.0734 0.3862,-0.1824 0.5595,-0.3463 0.0189,-0.0178 0.0567,-0.0855 0.0739,-0.0966 0.1803,-0.1157 0.5499,-0.3072 0.7614,-0.3238 l 0.0173,-0.0759 c 0.3472,0.0311 1.2343,-0.5897 1.379,-0.8926 0.1833,-0.0258 0.3937,-0.0374 0.5724,-0.0806 0.1493,-0.036 1.0682,-0.4394 1.1463,-0.5205 0.2545,-0.2637 0.5205,-1.26249 -0.0654,-1.2911 -0.5535,-0.0271 -0.4431,0.147 -0.7102,0.188 -0.0919,-0.0111 -0.3218,-0.2009 -0.3901,-0.260495 -0.3632,0.01101 -0.4135,-0.206699 -0.6215,-0.4814 -0.0137,-0.01801 -0.0266,-0.0621 -0.036,-0.084 l -0.1486,-0.0011 c -0.0991,0.02721 -0.1965,0.464499 -0.2252,0.5595 0.1017,0.222105 0.3785,0.226705 0.3712,0.486005 -0.0648,0.0694 -0.2336,0.0929 -0.3207,0.0776 -0.0614,0.1157 -0.2359,0.24069 -0.3588,0.2778 l -0.0154,0.0242 -0.4483,-0.19551 c -0.0618,-0.2147 -0.1712,-0.35679 -0.3343,-0.4981 0,0 -0.1418,-0.128095 -0.168,-0.161697 l -0.0494,-0.0654 c -0.4476,-0.601399 -1.0546,-0.4671 -1.6622,-0.269999 -0.3057,-0.0976 -0.6491,0.0032 -0.929,0.130601 -0.2545,-0.0656 -0.5352,-0.113301 -0.7933,-0.0348 -0.0528,-0.0188 -1.3744,-0.547099 -1.3832,-0.558901 l -0.3141,-0.100901 c 8.4e-4,-0.0888 0.005,-0.1778 -8.5e-4,-0.270998 -0.008,-0.1198 -0.1704,-0.246301 -0.2364,-0.338099 -0.1696,-0.236 -0.2937,-0.529 -0.457,-0.767202 -0.0516,-0.0753 -0.2166,-0.184799 -0.3044,-0.213501 -0.054,0.0011 -0.1115,0.01041 -0.1628,0.02769 l -0.1592,0.243801 -0.05,0.0075 -0.0651,-0.0748 -0.003,-0.0777 c 0.1719,-0.254299 0.4794,-0.819898 0.2291,-1.132998 -0.3722,-0.227101 -1.0012,-0.0847 -1.0671,-0.269101 -0.103,-0.035 -0.3185,8.46e-4 -0.3769,-0.0449 -0.2285,-0.178602 -0.3637,-0.2369 -0.6415,-0.3249 -0.0134,-0.0043 -0.0609,0.0023 -0.0769,0.0029 l -0.05,-0.0599 c -0.298,-0.0878 -0.457,0.2845 -0.6296,0.4424 -0.0223,0.02041 -0.396,0.300601 -0.4172,0.312299 -0.0304,0.01671 -0.2156,0.0432 -0.2623,0.0609 -0.2991,0.1138 -0.5719,0.2588 -0.8495,0.408299 -0.1953,0.105402 -0.7663,-0.0788 -0.748,-0.281799 l 0.0539,-0.111001 c 0.3577,-0.0829 0.7344,-0.127098 0.7773,-0.586099 -0.4417,-0.5343 -0.1055,-2.302101 -0.8804,-2.243001 l -0.1562,0.0817 c -0.1628,-0.0763 -0.4387,-0.154299 -0.622,-0.129399 -0.1536,0.0788 -0.6716,0.498498 -0.7671,0.487197 -0.3109,-0.091 -0.5488,-0.342699 -0.8331,-0.481397 -0.1053,-0.0514 -0.6782,-0.175401 -0.8158,-0.149502 -0.0704,0.0532 -0.3167,0.263102 -0.3995,0.266299 -0.1729,-0.127598 -0.941,-0.170899 -1.0206,-0.449297 0.006,-0.0505 0.048,-0.263303 0.007,-0.298402 -0.0898,0.0041 -0.2497,-0.028 -0.3217,-0.0875 l -0.0256,-0.0702 c 0.1043,-0.474697 0.1865,-0.558297 0.4141,-0.948898 0.0465,-0.0798 0.0712,-0.197299 0.1243,-0.270302 0.0717,-0.0987 0.1932,-0.174498 0.2694,-0.270998 0.155,-0.196099 0.2727,-0.5022 0.3575,-0.7338 -0.004,-0.0349 -0.014,-0.0937 -0.0386,-0.121401 l -0.0919,-0.0011 c -0.0733,-0.0444 -0.1962,-0.100398 -0.2575,-0.156498 -0.3277,-0.299601 -0.4773,-0.5784 -0.3451,-1.005301 l -0.0486,-0.125899 -0.1292,-0.0943 c -0.1053,0.02489 -0.2254,0.174902 -0.2602,0.270301 l -0.2782,0.0581 -0.0846,-0.0581 -0.0221,-0.0656 0.0885,-0.439401 c -0.1024,-0.2078 -0.2514,-0.4304 -0.4212,-0.5901 -0.0349,-0.0329 -0.2618,-0.2008 -0.2751,-0.2209 -0.1392,-0.2113 -0.2488,-0.513499 -0.3606,-0.7441 l -0.127,-0.0328 -0.047,0.0396 -0.0393,0.5706 -0.0593,0.0875 -0.1057,0.0229 c -0.068,-0.0827 -0.1063,-0.2671 -0.1074,-0.3698 l -0.1054,-0.0908 c -0.1693,-0.0589 -0.3764,0.1067 -0.3901,0.2766 l 0.1397,0.2219 -0.0208,0.1905 -0.0937,0.0701 c -0.13189,-0.0337 -0.23499,-0.2169 -0.28539,-0.3295 -0.1451,-0.3246 0.3172,-0.6435 0.4441,-0.9519 0.0552,-0.1341 -0.0126,-0.2076 -0.0331,-0.3256 -0.0411,-0.2348 0.0482,-0.4379 -0.004,-0.6584 l 0.1474,-0.3049 c -0.008,-0.0643 -0.0602,-0.1713 -0.1204,-0.2036 -0.087,-0.0274 -0.4509,-0.0317 -0.5185,0.0161 -0.3301,0.2335 -0.3954,0.6151 -0.6808,0.8668 -0.1359,0.1198 -0.4594,0.044 -0.5172,0.2634 l 0.0159,0.1415 0.1101,0.0805 c 1.415,-0.0084 0.4828,1.2226 0.5221,1.4285 l 0.2748,0.4154 c -0.0866,0.344099 -0.4396,0.4392 -0.5459,1.0317 l -0.0774,0.0029 -0.1249,-0.0845 c -0.1224,0.0669 -0.1236,0.229 -0.1986,0.325501 -0.0762,0.0981 -0.3136,0.186199 -0.2645,0.3618 l -0.0577,0.01211 c -0.0408,0.1501 -0.0475,0.369102 -0.2181,0.430703 -0.3059,0.0462 -0.4127,-0.532701 -0.8574,-0.366401 -0.0672,0.098 -0.2607,0.169398 -0.3742,0.167998 l -0.2831,-0.1725 -0.1101,0.02351 c -0.2147,0.393601 -0.6985,0.438099 -0.4292,0.980699 -0.0639,0.1485 -0.1551,0.451801 -0.0261,0.593499 0.1675,0.0374 0.4217,0.149903 0.3977,0.366302 -0.0957,0.210899 -0.2396,0.458301 -0.3071,0.677001 -0.0647,0.2099 -0.0477,0.461298 -0.1091,0.672899 -0.0508,0.174199 -0.1699,0.3785 -0.2452,0.546399 -0.004,0.0086 -0.008,0.108202 -0.009,0.1236 -0.0865,0.140702 -0.2282,0.275502 -0.3538,0.380102 l -0.1824,0.01279 c -0.0196,-0.0127 -0.0752,-0.0423 -0.0893,-0.0576 -0.1415,-0.154401 -0.0428,-0.645101 -0.2137,-0.862101 -0.2455,-0.311599 -0.617,-0.557 -0.8871,-0.102901 -0.0246,0.149501 -0.0365,0.3341 -0.0787,0.477901 -0.0652,0.221801 -0.4553,0.683999 -0.7228,0.5165 l -0.0483,-0.102401 c 0.1102,-0.541099 0.2177,-1.414698 -0.4304,-1.6478 -0.0951,-0.0342 -0.246,0.01329 -0.3146,0.0851 -0.049,0.0782 -0.0548,0.233 -0.0326,0.319199 l -0.1071,0.076 -0.0978,-0.01899 -0.1473,-0.357801 -0.1111,-0.0046 c -0.1058,0.0585 -0.2291,0.242999 -0.2827,0.345098 l -0.1642,-0.0063 c -0.3846,0.114399 -0.2672,0.720598 -1.1039,0.312798 -0.1081,-0.0526 -0.3128,-0.351798 -0.3512,-0.470298 -0.266,-0.0359 -0.5023,-0.1554 -0.6995,-0.336 l -0.2038,0.01149 -0.9176,0.6126 -0.1942,-0.0696 c -0.1346,-0.586401 -0.5221,-0.624899 -0.8008,-0.8904 -0.1432,-0.136299 -0.2043,-0.3302 -0.3796,-0.455399 -0.525,-0.2217 -0.6781,1.1776 -1.002,1.222098 -0.4884,-0.0761 -0.5923,-0.5851 -0.5319,-1.001299 0.1057,-0.103999 0.3073,-0.363801 0.3151,-0.523401 -0.0108,-0.189399 -0.3023,-0.410399 -0.3359,-0.675199 -0.004,-0.0296 -0.0251,-0.588899 -0.0229,-0.605601 0.004,-0.031 0.1262,-0.2593 0.1429,-0.3106 0.1215,-0.374599 0.0429,-0.7177 -0.0828,-1.0864 -0.2138,-0.626999 -0.9109,-1.104399 -1.0215,-1.771999 -0.0346,-0.067 -0.5135,-0.1973 -0.5906,-0.1587 -0.102,0.0965 -0.47,0.4071 -0.6344,0.2708 l -0.038,0.0208 c -0.0158,-0.0029 -0.1333,-0.027 -0.14169,-0.0253 -1.08451,0.2199 -0.7627,0.7295 -1.58201,1.1617 -0.0312,0.01651 -0.1567,0.02001 -0.2949,0.0182 -0.1759,-0.0023 -0.3726,-0.01341 -0.4222,-0.0171 -0.1325,-0.0554 -0.3049,-0.388399 -0.34019,-0.5215 -0.0808,-0.025 -0.1129,-0.1347 -0.16591,-0.1898 -0.0891,-0.0926 -0.2043,-0.1181 -0.292,-0.1881 -0.3576,-0.2852 -0.2304,-0.597 -0.8216,-0.5275 -0.2821,-0.1976 -0.2111,-0.6137 -0.5251,-0.7626 -0.2562,-0.1214 -0.5341,-0.2307 -0.8202,-0.2473 -0.1116,-0.0065 -0.3803,0.0101 -0.481,0.0748 l -0.0318,0.0403 c -0.0378,0.0131 -0.1514,0.0374 -0.1885,0.0103 -0.0133,0.0035 -0.0862,0.026 -0.0956,0.0247 -0.4368,-0.0579 -0.2886,-0.0845 -0.7556,-0.0506 l -0.2164,-0.1253 c -0.1302,-0.2913 -0.1264,-0.8942 -0.088,-1.2061 0.0139,-0.1119 0.15669,-0.3619 0.2376,-0.4451 0.21869,-0.0902 0.43609,-0.2042 0.67599,-0.2209 0.1262,-0.0088 0.3434,0.0736 0.4424,0.0391 l 0.57211,-0.5171 c 0.13439,-0.0688 0.34499,0.1422 0.74139,-0.1178 0.0254,-0.0167 0.5077,-0.4745 0.5207,-0.4895 0.1059,-0.1221 0.1531,-0.2971 0.30391,-0.3773 0.50859,-0.2703 1.01359,-0.4639 1.47109,-0.8127 0.006,-0.0043 0.0113,-0.0216 0.0147,-0.0281 0.0674,-0.1301 0.1686,-0.2839 0.2176,-0.4199 0.1018,-0.2824 -0.0911,-0.6569 0.1137,-0.9075 0.2245,-0.2748 0.3768,-0.2434 0.6406,-0.386 0.2541,-0.1372 0.506,-0.3451 0.7464,-0.5096 l 0.1136,-0.4042 c 0.1461,-0.1588 0.4051,-0.2213 0.5141,-0.4066 0.0924,-0.157 0.1508,-0.3646 0.2544,-0.5114 0.1803,-0.2553 0.4734,-0.4572 0.7702,-0.5527 0.2568,-0.0826 0.4671,0.1433 0.669,0.0886 l 0.0602,-0.065 0.0579,-0.2732 0.0748,-0.0655 c 0.1549,0.137 0.3456,0.1916 0.5365,0.2553 0.6647,0.2216 1.026,-0.5219 0.9712,-1.1094 -0.0179,-0.1921 -0.3175,-0.3889 -0.3119,-0.5298 l 0.1158,-0.3001 c 0.3701,-0.218 0.1531,-0.3799 0.3222,-0.5613 0.5034,-0.4034 0.9145,0.4077 1.6657,0.3203 0.116,-0.0882 0.2585,-0.1074 0.3627,-0.1737 0.1579,-0.1004 0.2692,-0.2662 0.4459,-0.3681 0.0388,-0.0224 0.2123,-0.0826 0.2346,-0.1012 0.2143,-0.1796 0.3878,-0.4287 0.6056,-0.6027 0.031,-0.0249 0.2446,-0.0777 0.2787,-0.1036 0.9664,-0.7339 0.7763,-1.1873 2.0125,-0.8955 0.0553,-0.0207 0.1196,-0.1557 0.1372,-0.2052 0.0421,-0.0262 0.2414,-0.1302 0.2411,-0.1818 l 0.1539,-0.0593 c 0.151,-0.1004 0.0244,-0.5781 0.2248,-0.8207 -0.2108,-0.32 -0.3789,-0.2761 -0.5454,-0.4209 -0.2334,-0.2032 -1.115,-1.073 -1.472,-1.1792 -0.1813,-0.0539 -0.4103,0.0086 -0.6029,-0.0713 -0.1443,-0.0597 -0.2753,-0.1716 -0.4195,-0.2312 -0.1255,-0.0517 -0.7213,0.1577 -0.8475,0.2301 -0.1414,0.081 -0.3059,0.2734 -0.4319,0.386 -0.2603,0.0736 -0.5213,-0.1613 -0.707,-0.0886 -0.1161,0.0597 -0.5218,0.6447 -0.6088,0.746 -0.1379,0.1604 -0.3328,0.1944 -0.5106,0.2719 -0.1995,0.087 -0.406,0.2674 -0.5768,0.3987 l -0.2402,0.0074 c -0.1567,-0.0859 -0.2101,-0.2457 -0.3669,-0.3371 -0.0817,-0.0476 -0.3229,0.1857 -0.3794,0.237 -0.233,0.2114 -0.3272,0.4753 -0.5203,0.7052 -0.0707,0.084 -0.2075,0.1365 -0.2824,0.2185 -0.0744,0.0818 -0.1197,0.2108 -0.1892,0.299 -0.0958,0.1218 -0.2345,0.1643 -0.3385,0.2594 -0.3748,0.3425 -0.2483,0.6268 -0.3093,0.7846 -0.0791,0.2047 -0.2245,0.3978 -0.3141,0.5999 -0.108,0.2433 -0.1931,0.508 -0.288,0.7574 l -0.0916,0.2398 0.0186,0.0655 -0.0764,0.1617 c -0.0685,0.064 -0.308,0.1005 -0.3992,0.0782 -0.11829,-0.1417 -0.47319,-0.4578 -0.6809,-0.4486 -0.1891,-0.2125 0.1727,-0.7815 -0.2022,-1.052 -0.0974,-0.0702 -0.2695,-0.1226 -0.3822,-0.1736 l -0.0384,-0.0691 c -0.1259,-0.0075 -0.3609,-0.1484 -0.4535,-0.222 -0.3163,-0.2513 -0.6202,-0.5273 -0.9283,-0.789 -0.0548,-0.0468 -0.1883,-0.066 -0.2578,-0.0523 -0.352,0.0689 -0.2938,0.6844 -0.3385,0.9064 l -0.0761,0.1224 c -0.1779,0.1733 -0.3684,0.241 -0.4393,0.5182 -0.14009,0.0628 -0.6145,0.3176 -0.6513,0.4871 0.0522,0.136 0.01,0.2666 0.043,0.3911 0.0542,0.2035 0.2083,0.6244 0.0889,0.8253 -0.1686,0.1866 -0.4483,0.2994 -0.68749,0.3521 l -0.16991,0.1852 c -0.13929,-0.0554 -0.4751,0.1049 -0.5853,0.1759 -0.0964,0.1386 -0.1936,0.3127 -0.3057,0.4354 -0.1033,0.1131 -0.27,0.1662 -0.36759,0.3007 -0.27351,0.3773 -0.29331,0.9066 -0.6096,1.2694 -0.009,0.0102 -0.1916,0.121 -0.2165,0.1323 -0.1232,0.0562 -1.214,0.5278 -1.3448,0.7242 -0.1077,0.1615 -0.2092,0.5282 -0.2521,0.7171 -0.0451,0.0592 -0.1491,0.1328 -0.2253,0.1415 l -0.1243,-0.0397 -0.0549,-0.0966 0.0178,-0.1858 -0.1315,-0.2248 c -0.1291,-0.0495 -0.2429,0.0065 -0.3681,0.0414 -0.0124,0.0144 -0.0858,0.0934 -0.0906,0.1052 l -0.5168,1.2837 c -0.0661,0.1641 -0.8023,0.4201 -0.8871,0.444 -0.0392,0.0111 -0.1975,0.0169 -0.2388,-0.0092 -0.641,-0.9174 -1.1701,-0.1146 -1.3498,-0.0862 l -0.7039,0.111001 -0.0854,-0.0421 c -0.0914,0.0016 -0.3306,0.0333 -0.3968,0.110501 -0.1293,0.6108 -1.2983,0.490599 -1.6104,0.730399 -0.1351,0.103901 -0.3049,0.259301 -0.4215,0.383601 -0.0297,0.0315 -0.0717,0.145199 -0.1,0.172499 -0.0945,0.0908 -0.2298,0.1527 -0.3288,0.239901 -0.1273,0.112299 -0.4901,0.489699 -0.5875,0.646399 -0.099,0.159501 -0.091,0.5118 -0.253,0.619401 -0.2746,0.182199 -0.8965,0.2467 -0.9194,0.2657 l -0.57819,0.480399 c -0.025,0.0208 -0.22521,0.354901 -0.2512,0.430101 0.0113,0.3442 0.36299,0.353599 0.5445,0.556199 0.01,0.0749 -0.0838,0.2759 -0.1168,0.340401 l -0.1407,0.0713 c -0.22411,-0.0437 -0.76361,-0.2113 -0.94411,-0.0402 -0.0923,0.0048 -0.69789,0.086 -0.7379,0.131099 -0.1672,0.0496 -0.36549,-0.139299 -0.5048,-0.202499 -0.2114,-0.0957 -0.36929,0.0078 -0.5729,-0.0028 -0.0387,-0.002 -0.0849,-0.0349 -0.1239,-0.0385 -0.3047,-0.0282 -0.669,0.1598 -0.91189,0.3393 -0.0727,0.1819 -0.14781,0.5 -0.21931,0.6418 -0.1161,0.229901 -0.7197,0.500399 -0.9212,0.5925 -0.0855,0.146002 -0.1023,0.2768 -0.1526,0.4237 -0.0531,0.1549 -0.1679,0.302 -0.2322,0.453901 -0.007,0.0164 -0.007,0.062 -0.009,0.0811 l -0.2257,0.154201 -0.176,-0.0208 c -0.0986,-0.116101 -0.2524,-0.2829 -0.4234,-0.220901 -0.1309,0.0445 -0.5562,0.850302 -0.7366,1.079 -0.0608,0.267101 0.0175,0.734599 -0.066,0.916201 -0.1104,0.2404 -0.4218,0.302999 -0.5551,0.5205 -0.1163,0.189501 0.0425,0.577299 -0.177,0.658599 l -0.2938,-0.0496 c -0.3347,0.171002 -0.2871,0.270002 -0.4588,0.446902 -0.1044,0.107699 -0.2348,0.196898 -0.3437,0.300798 -0.4221,0.402901 -0.8448,1.0594 -1.087,1.610501 -0.0225,0.0512 -0.5137,0.6216 -0.5715,0.708 -0.2414,0.359402 -0.2585,0.6537 -0.2959,1.057701 -0.0135,0.145299 -0.4029,0.437699 -0.5186,0.540698 -0.008,-2.82e-4 -1.4243,0.564002 -1.5816,0.6357 -0.0403,0.159301 -0.005,0.344803 -0.0759,0.495001 -0.0836,-0.0709 -0.1898,-0.109 -0.2921,-0.144198 10e-5,0.0916 -0.0288,0.179499 -0.0351,0.270298 -0.0301,0.437701 0.3076,0.562999 -0.2125,0.8567 -0.0533,0.03 -0.0971,0.0738 -0.1589,0.0865 0.1499,0.823995 0.2771,1.704195 0.3365,2.537895 0.004,0.058 -0.021,0.1228 0.008,0.1777 0.0412,0.0776 0.5228,0.12451 0.6157,0.1094 l 0.062,0.0577 -0.0573,0.0866 c 0.0195,0.0799 0.0158,0.2699 0.0526,0.32801 0.1232,0.1949 0.1564,0.44969 0.3189,0.63179 -0.0957,0.2538 -0.3976,0.4741 -0.4475,0.7305 0.1179,0.0323 0.4631,0.11391 0.4031,0.30531 -0.1039,0.33149 -0.5259,0.30869 -0.6554,0.4542 -0.0715,-0.0148 -0.1404,-0.044 -0.2033,-0.0805 -0.0234,-0.0615 -0.086,-0.11441 -0.146,-0.13821 -0.0836,-0.0332 -0.1777,-0.0263 -0.2606,-0.0623 -0.1832,-0.0796 -0.2998,-0.2134 -0.514,-0.2537 -0.1154,0.103 -0.1774,0.2498 -0.2161,0.3965 -0.0876,0.0719 -0.2584,0.0268 -0.3587,0.006 -0.1388,0.0531 -0.2196,0.1775 -0.2699,0.3114 -0.1281,-0.1888 -0.5642,-0.0582 -0.7348,-0.3174 -0.0715,-0.1085 -0.1042,-0.2635 -0.2431,-0.322 -0.2094,-0.0883 -0.4672,-0.0387 -0.6822,-0.1322 -0.2046,-0.0888 -0.3709,-0.2564 -0.5702,-0.3341 -0.2214,-0.0863 -0.4328,-0.1738 -0.6378,-0.2992 -0.2221,-0.1357 -0.3975,-0.2957 -0.6462,-0.4025 -0.6498,-0.2792 -1.1121,-0.8581 -1.659,-1.2819 -0.1632,-0.1264 -0.2847,-0.2991 -0.4474,-0.4268 -0.1113,-0.0873 -0.2324,-0.1613 -0.3446,-0.2475 -0.2397,-0.1842 -0.4883,-0.6014 -0.7384,-0.7017 -0.2351,-0.0943 -0.5158,-0.124 -0.7664,-0.1488 l -0.0304,-0.0745 c 0.1501,-0.4229 0.3722,-0.3013 0.6414,-0.4829 0.1196,-0.0807 0.1935,-0.1637 0.3271,-0.2309 0.1075,-0.0539 0.2504,-0.302398 0.3319,-0.402398 0.298,-0.3662 0.3027,-1.000501 0.4743,-1.242402 l 0.1051,-0.0228 0.0538,-0.0638 c -0.0155,-0.200999 -0.0452,-0.410199 -0.009,-0.610599 0.0593,-0.332201 0.2642,-0.230901 0.1483,-0.724301 -0.0137,-0.0586 -0.0407,-0.2099 -0.0771,-0.2522 -0.0478,-0.0555 -0.1925,-0.0825 -0.2606,-0.160999 0.1624,-0.1219 0.2911,-0.136802 0.4556,-0.2247 l 0.048,-0.109502 c -0.044,-0.0547 -0.1285,-0.0938 -0.1986,-0.0926 l 0.0351,-0.235399 c -0.2727,-0.0062 -0.5593,-0.465999 -0.8413,-0.214099 -0.0734,0.0657 -0.0104,0.267298 -0.1355,0.388798 -0.1102,-0.0044 -0.208,-0.0877 -0.257,-0.182299 l -0.1028,-0.0243 c -0.1398,0.059 -0.2911,0.173298 -0.4159,0.261199 -0.2561,-0.1251 -0.248,-0.565 -0.3162,-0.805899 -0.1434,-0.5064 -0.0805,-0.547102 -0.3895,-1.053 -0.0378,-0.062 -0.1107,-0.0988 -0.1588,-0.1519 -0.0791,-0.0872 -0.1399,-0.189202 -0.215,-0.279502 -0.2173,-0.2614 -0.5444,-0.504799 -0.4954,-0.892999 -0.0487,0.0046 -0.1343,-0.0343 -0.1744,-0.01501 -0.3262,0.157599 -0.6176,0.299299 -0.8023,0.637399 l -0.4324,0.0967 c -0.4464,-0.441999 -0.5032,-0.6003 -1.0757,-0.8684 -0.009,-0.0041 -0.5233,0.0066 -0.5672,0.0051 l -2.1828,-0.0747 -2.6514,-0.0858 c -0.1918,-0.0061 -0.4002,-0.0274 -0.5911,-0.01829 -0.3122,0.01479 -0.5781,0.168701 -0.8679,0.207002 -0.17,0.02241 -0.4738,-0.116101 -0.592,-0.2323 -0.306,-0.002 -0.6353,0.0239 -0.9388,-0.0029 -0.5339,-0.0471 -1.0661,-0.125501 -1.5997,-0.177701 -0.7996,-0.0783 -1.6163,-0.1009 -2.4174,-0.150698 -0.3643,-0.02261 -0.7281,-0.1005 -1.0923,-0.13 -1.379,-0.1118 -2.7667,-0.180902 -4.1476,-0.2778 -0.3403,-0.0239 -0.7004,-0.0086 -1.0335,-0.081 -0.0515,-0.403501 -0.069,-0.794901 -0.103,-1.198699 -0.0977,-1.160902 -0.2151,-2.321102 -0.3111,-3.483002 -0.1621,-1.9628 -0.3275,-3.9255 -0.5158,-5.886 -0.049,-0.5101 -0.1717,-2.4268 -0.2703,-2.7847 -1.6561,-0.2294 -3.3233,-0.3992 -4.9846,-0.5878 -1.1104,-0.126 -2.2214,-0.2728 -3.3324,-0.3894 -0.0514,-1.7059 0.0351,-3.4384 0.0629,-5.148 0.0208,-1.2792 -0.039,-2.5859 0.0628,-3.8568 0.0543,0.0246 1.2908,0.6233 1.4211,0.6435 0.0593,-0.5001 0.0172,-1.0221 0.0116,-1.5258 -0.0148,-1.3094 -0.0309,-2.6198 -0.0408,-3.9294 l -0.2264,-3.3503 -118.426497,0 c 0.27649,0.339292 0.58179,0.755992 0.77319,0.954392 0.9152,0.9491 1.8041,1.9077 2.7129,2.8613 0.3182,0.334 0.5936,0.6657 0.9852,0.9253 0.0957,0.0635 0.8789,0.3039 1.0149,0.3244 0.0515,0.0911 0.4625,0.2517 0.54599,0.2853 0.23471,0.0943 0.45271,0.0616 0.69451,0.0966 0.6343,0.0918 0.4539,-0.0116 0.9711,-0.3048 0.1052,-0.0596 0.3843,-0.124799 0.5128,-0.0782 0.4687,0.1703 0.5553,0.4309 0.84359,0.7856 0.15931,0.1961 0.86941,0.9003 0.9097,1.2176 0.0355,0.2801 -0.20729,0.6683 -0.1421,0.7954 0.4645,0.435 0.91921,0.878 1.3741,1.3223 0.0721,0.0703 0.2627,0.334 0.32041,0.3703 0.0629,0.0396 0.15619,0.0698 0.22509,0.1007 0.1499,0.211101 0.20491,0.490801 0.44741,0.614801 0.2543,0.0344 0.48449,-0.0033 0.73609,-0.0137 0.1657,-0.0071 0.3398,0.0254 0.5052,0.0137 0.44831,-0.0318 0.8625,-0.0413 1.31041,-0.0317 l 0.0345,-0.0282 c 0.1403,0.038 0.2867,-0.018 0.42739,-0.0247 0.2612,-0.0124 0.5473,0.0206 0.8052,-0.0396 0.0477,-0.0112 0.22311,-0.0804 0.2561,-0.0829 0.15691,-0.0118 0.72531,-0.0157 0.8628,0.08 l 0.0791,-0.0276 c 0.2568,0.04 0.7547,0.371999 1.1052,0.3158 0.2379,-0.2236 0.1936,-0.5268 0.3875,-0.7771 0.1055,0.0813 0.2438,0.222 0.3597,0.2789 0.3321,0.163 0.6092,0.1019 0.8977,0.3997 0.0965,0.0997 0.1633,0.3288 0.2344,0.4533 0.1304,0.2282 0.3549,0.4549 0.5654,0.6096 0.2806,0.2063 0.733,0.003 1.1419,0.3566 0.1989,0.1721 0.3841,0.5284 0.3265,0.796 -0.0477,0.1023 -0.1509,0.2088 -0.2393,0.2761 -0.1715,0.0817 -0.4296,0.0115 -0.5968,-0.0604 -0.1391,0.0546 -0.2465,0.1158 -0.3748,0.1937 -0.0626,0.0919 -0.0741,0.2796 -0.0495,0.3837 0.447,0.6377 0.4712,0.3282 0.4875,1.3044 0.0238,0.0333 0.1551,0.5262 0.2181,0.6384 0.1021,0.1816 0.2329,0.2776 0.2469,0.5107 -0.0435,0.0466 -0.0821,0.0987 -0.1195,0.1501 -0.3246,0.0203 -0.6493,0.0389 -0.9733,0.0668 -0.1141,0.0671 -0.1948,0.1491 -0.2575,0.2622 l 0.0646,0.2709 c 0.1384,0.1437 0.2865,0.2789 0.4336,0.4135 0.1016,-0.0307 0.1966,-0.0573 0.3035,-0.0673 l 0.1154,0.1156 0.0589,-0.0132 c 0.2333,0.2785 0.5567,0.7673 0.8941,0.9035 0.3139,0.1268 0.7622,0.1679 1.0229,0.4084 0.4005,0.3693 0.1549,0.6609 0.9126,1.114 0.2273,0.1359 0.5056,0.1288 0.7517,0.2065 0.5629,0.1777 0.4447,0.2681 0.8317,0.635 0.1919,0.1816 0.4387,0.2844 0.5694,0.5314 l -0.0124,0.1467 -0.0884,0.0552 -0.2531,-0.0047 -0.0832,0.1254 c -0.3913,-0.4622 -0.8799,-0.1731 -1.035,-0.2967 -0.6321,-0.5034 -0.6721,-0.4006 -1.199,-0.6447 -0.0768,-0.0356 -0.1518,-0.0943 -0.2367,-0.1127 -0.0978,-0.0212 -0.2466,0.0383 -0.3459,0.0086 -0.1157,-0.0346 -0.2871,-0.2082 -0.4164,-0.1719 l -0.0832,0.046 c -0.059,0.2531 -0.1233,0.5042 -0.1919,0.7551 -0.0362,0.1321 -0.1333,0.2805 -0.1814,0.4147 0.0631,0.1569 0.0699,0.3678 0.1336,0.5038 l -1e-4,0 -9e-5,1.4e-5 z M 232.35014,94.635097 c 0.0331,-0.0527 0.09,-0.0719 0.1456,-0.0845 0.2445,-0.0559 0.5897,0.299102 0.73531,0.476403 0.051,0.062 0.0834,0.1369 0.1379,0.1958 0.0906,0.0843 0.1526,0.197499 0.2242,0.287099 0.0204,0.02551 0.0504,0.0432 0.0713,0.0684 0.1338,0.1612 0.28969,0.525501 0.22159,0.731001 -0.0191,0.0577 -0.0426,0.119899 -0.1025,0.149899 -0.24999,0.01871 -0.5242,-0.320099 -0.66349,-0.5013 -0.1002,-0.1302 -0.17151,-0.289898 -0.2746,-0.4191 -0.0963,-0.120599 -0.2302,-0.194801 -0.32941,-0.311299 -0.0174,-0.0221 -0.0445,-0.0393 -0.055,-0.0578 -0.0803,-0.141902 -0.1684,-0.377001 -0.1109,-0.534603 z"
   style="fill:#ffffff;fill-opacity:1;fill-rule:evenodd;stroke:#ce1126;stroke-width:0.42333332;stroke-miterlimit:4;stroke-opacity:1;stroke-dasharray:none"
   sodipodi:nodetypes="csssssssssscccsssscssccssscccccsssscccccccccssccsccccsscsscccccccssssscssscsccccccccccsccccsssssccccssccscsssssscccccccccsccccccccccccsssssccccccscccssccssssccccsscccsssssccscssccccssssccsccccccscscccccccccsscccccccssccsssscccccccsscscccccsssssscccccccccscccccscccccccsscccsssscccccsssccccsscscccscccscccccccccccccccccsccccccccccccccccssscccsssccsccccccccccccccccsssccccccccssccsssscccccccsccccccssscccsccccccccssccccccccccccssscccssccccccccsccccccccccssscccsscsccsccccccccscccccsccccssssccccsssccsscssccssccscsccssssssssccsssccccssccccssssscccccsssssccssccssssssssccccccsccsssccccsccccssssscccccccccscccccssssssccccccccssscscsscccscssccsssssccccsscsscccsccsccssccccssssssssssccssscccssscccccsccccsssscsccscccsscssssscssscscsccscccssscsssssscssccssccsssccccsssssccccccscccccccccssssscccccssssccscccccsssssscssssc" /><path
   id="_40421968"
   class="fil0"
   d="m 15.938443,77.086698 c 0.5942,-1.1128 0.93789,-0.774596 2.01429,-1.245197 0.2384,-0.104199 0.4629,-0.3218 0.6357,-0.5101 0.3136,-0.3417 0.3398,-0.744299 0.4982,-1.1566 0.0681,-0.4067 0.5691,-1.3027 0.8379,-1.598799 0.1396,-0.154 0.342,-0.281701 0.511,-0.3934 0.0376,-0.0249 0.1132,-0.1159 0.1592,-0.1116 0.002,-0.1667 1.235,-0.742601 1.3853,-0.806401 0.2171,-0.0922 0.4539,-0.1632 0.6764,-0.243199 0.3541,-0.127401 2.2796,-0.073 2.5713,-0.0357 0.2125,0.0271 0.4326,0.0831 0.6437,0.1237 0.2805,0.0538 0.4274,0.367599 0.7645,0.335199 0.3531,-0.0338 1.4255,-0.719199 1.744,-0.667199 0.3147,0.0516 1.046,0.2606 1.3541,0.1312 l 0.0669,-0.138001 c -0.0898,-0.288899 -0.3125,-0.5107 -0.392,-0.7678 0.0289,-0.131899 0.1288,-0.5221 0.2557,-0.6051 0.2264,-0.0708 0.7673,0.4298 1.1366,0.1863 0.1934,-0.1275 0.245,-0.675899 0.245,-0.864899 0,-0.1676 -0.058,-0.3457 -0.0402,-0.5159 0.0127,-0.1222 0.0737,-0.2484 0.0845,-0.3705 0.0129,-0.1466 -0.007,-0.3207 -0.0106,-0.4693 -0.004,-0.163 0.1751,-0.3284 0.1367,-0.5273 -0.0195,-0.1005 -0.0713,-0.2651 -0.1124,-0.3589 -0.1333,-0.3045 -0.519,-0.4424 -0.5742,-0.7713 0.0135,-0.1229 0.0802,-0.5526 0.1743,-0.6418 0.1401,-0.0408 0.2438,-0.0962 0.3884,-0.0322 0.0526,0.074 0.2607,0.3282 0.3633,0.3284 0.1332,-0.2438 0.1901,-0.5867 0.2366,-0.8558 l 0.0925,-0.0955 0.1823,0.0029 c 0.056,-0.0714 0.1023,-0.0519 0.1517,-0.0823 0.2941,-0.181 0.3009,-0.212 0.6822,-0.2288 0.2331,-0.0418 0.4817,0.1169 0.6234,0.2886 0.0713,0.685 0.2511,0.3939 0.5087,0.7351 l 0.0664,0.241 0.0642,0.0328 c 0.2445,-0.016 0.9528,-0.4518 1.1962,-0.5447 0.2817,-0.1074 1.6979,0.3335 1.947,0.3998 0.7784,0.2069 1.3,1.6412 1.2972,2.3528 -10e-4,0.3226 -0.0699,0.5831 0.0239,0.895499 0.2147,-0.0342 0.4294,-0.1002 0.6432,-0.126 0.2614,-0.0315 0.6549,0.2256 0.8743,0.1623 0.1829,-0.0951 0.2431,-0.238399 0.3026,-0.431999 L 40.303233,67.869 c -0.2353,-0.2247 -1.1199,-0.7581 -1.4143,-0.923 l -0.1814,0.0431 -0.1531,-0.1317 c 0.1131,-0.8288 -0.3276,-0.936 -0.6977,-1.6219 -0.1117,-0.2071 -0.1791,-0.4526 -0.28,-0.6666 -0.0582,-0.1232 -0.147,-0.2359 -0.204,-0.3595 -0.0626,-0.1354 -0.0847,-0.2944 -0.1455,-0.4302 -0.5185,-1.1578 -0.2908,-0.5877 -1.249,-0.9874 -0.5219,-0.2177 -0.9904,-0.5686 -1.4573,-0.8852 l -0.111,-0.2502 0.0624,-0.2283 0.142,-0.115 0.2119,-0.0202 c 0.4102,-0.4093 1.0815,-0.8829 1.6515,-1.0254 0.2287,-0.0572 0.509,0.0318 0.7317,0.0759 0.3608,0.0714 0.7446,0.1241 1.0928,0.2455 0.1393,0.0487 0.2711,0.1425 0.411,0.1875 0.1304,0.0421 0.2853,0.0366 0.4155,0.0789 0.1489,0.0483 0.2877,0.1943 0.4552,0.211 0.4254,0.0425 0.8833,-0.2381 1.283,-0.1845 0.0964,0.0129 0.301,0.1445 0.3955,0.1224 0.3418,-0.1119 0.387,-0.6944 0.4215,-0.9823 -0.0441,-0.1155 -0.228,-0.2643 -0.3273,-0.3261 l 0,-0.0569 c 0.0511,-0.0851 0.0612,-0.1126 0.079,-0.1337 0.0157,-0.0186 0.0375,-0.032 0.0985,-0.0751 0.239,-0.0621 0.3703,0.1533 0.549,0.1075 l 0.1181,-0.0713 c 0.0313,-0.0573 0.0775,-0.2005 0.0438,-0.2657 -0.069,-0.0988 -0.2797,-0.2157 -0.3074,-0.2933 -0.0435,-0.1213 -0.0245,-0.246162 0.007,-0.373562 L 0.38436308,58.5338 c 0.003,10.038899 -0.18712,20.077798 -0.17182,30.116598 0.4111,-0.0589 3.76520002,0.189501 4.30870002,0.238001 0.8562,0.0765 1.7116,0.0603 2.5704,0.137498 0.6737,0.0606 1.3488,0.1891 2.0257,0.229001 0.4302,0.02531 0.8731,-0.0058 1.3002999,0.0269 0.7745,0.0595 1.554,0.0742 2.3271,0.140998 0.4751,0.041 0.9549,0.1429 1.4299,0.198301 0.4432,0.0518 0.929,0.0306 1.3644,0.116301 0.2048,0.0403 0.4158,0.118999 0.6215,0.147198 0.3918,0.0536 0.8245,-0.0671 0.9251,-0.507198 0.0672,-0.293802 -0.0792,-0.535 0.1708,-0.804102 0.0185,-0.0199 0.2776,-0.260999 0.2889,-0.2669 0.2005,-0.103 0.4693,-0.1471 0.6817,-0.231699 0.2122,-0.0845 0.5139,-0.4203 0.4163,-0.662099 l -0.1477,-0.134502 c -0.3689,0.100102 -0.6008,0.2044 -0.9875,0.195501 -0.0926,-0.0321 -0.2361,-0.352301 -0.2951,-0.439301 -0.1565,-0.230999 -0.368,-0.4332 -0.4752,-0.695999 -0.0368,-0.0903 -0.0872,-0.2388 -0.1043,-0.3341 -0.0981,-0.5472 -0.2161,-1.2708 -0.1434,-1.8451 0.017,-0.1335 0.0607,-0.2755 0.0682,-0.4089 0.0156,-0.279 -0.1344,-0.7802 -0.2942,-1.0031 l -0.1231,-0.0539 0.008,-0.0805 c -0.2013,-0.1859 -0.4559,-0.9952 -0.4623,-1.2981 -0.006,-0.3021 0.058,-0.6119 0.047,-0.9157 -0.0229,-0.628 -0.1428,-1.1625 -0.1205,-1.8214 0.008,-0.2342 0.1276,-0.4302 0.162,-0.6528 0.0331,-0.2143 0.0586,-0.4344 0.1,-0.647 0.004,-0.0199 0.0548,-0.1744 0.0637,-0.191 z"
   style="fill:#ffffff;fill-rule:evenodd;stroke:#ce1126;stroke-width:0.42333332;stroke-miterlimit:4;stroke-opacity:1;stroke-dasharray:none"
   sodipodi:nodetypes="csscsscssssssccccssssssscccccccscccccssscsccccccssssscccccsssssssccccsccccscccsssssssssssscccssssscccsssssc" /><path
   style="fill:#ce1126;fill-rule:evenodd"
   d="m 0.18299308,54.996859 c 2e-4,1.178001 -3e-4,2.358596 0,3.536597 l 41.76006992,0 c 0.0118,-0.04851 0.0228,-0.100734 0.0353,-0.149931 l 0.37042,0 c 0.0421,0.04908 0.0793,0.09569 0.12347,0.149931 l 118.621527,0 0,-0.185209 c -0.0104,-1.111599 0.0186,-2.238389 -0.0265,-3.351388 l -0.89077,0 c -1.1535,0.517098 -2.30512,1.041041 -3.45722,1.561041 -0.1959,-0.508999 -0.36576,-1.035843 -0.52917,-1.561041 l -156.00714692,0 z"
   id="_38762936" /><path
   style="fill:#ce1126;fill-rule:evenodd"
   id="_41154464"
   class="fil1"
   d="m 204.31523,115.0759 -102.044,0 c 0.0132,0.1302 0.0353,0.2591 0.0825,0.3956 -0.0932,0.7272 0.4717,1.3278 1.029,1.7795 l 0.5659,0.003 c 0.6141,0.4522 1.2234,0.9051 1.8313,1.356 l 98.6057,0 c 0.2738,-0.4455 -0.4171,-1.4114 -0.5737,-1.7985 -0.0335,-0.0828 -0.0352,-0.4223 0.0146,-0.5152 l 0.1607,-0.0748 0.1384,0.0236 c 0.3554,0.4342 0.523,0.8768 0.7135,1.4091 0.006,0.0166 0.0192,0.5296 0.0222,0.6159 l 0.2089,0.3232 0.0338,0.0167 0.5375,0 c 0.5305,-0.4325 0.0722,-1.0127 -0.2532,-1.4159 -0.4205,-0.5212 -0.646,-0.799 -1.1269,-1.2526 -0.0788,-0.127 0.1998,-0.541 0.1115,-0.7858 -0.0174,-0.0284 -0.037,-0.0547 -0.0581,-0.0794 l 2.8e-4,0 z" /><path
   style="fill:#0099b5;fill-rule:evenodd"
   id="_115959136"
   class="fil2"
   d="m 0.18543308,54.999901 156.00099692,0 c -0.1655,-0.531701 -0.3219,-1.066501 -0.484,-1.593802 -0.2721,-0.884797 -0.5681,-1.766299 -0.8552,-2.646699 -0.1334,-0.409 -0.3019,-0.8177 -0.4168,-1.231401 -0.1828,-0.658399 -0.3449,-1.3252 -0.5171,-1.9865 -1.0784,-0.936899 -2.1608,-1.880698 -3.2645,-2.787698 -0.1551,-0.1275 -0.3388,-0.239302 -0.4854,-0.374901 -0.4244,-0.392899 -0.8187,-0.822001 -1.2383,-1.220498 -0.1991,-0.189101 -0.5483,-0.392001 -0.6969,-0.6223 -0.2876,-0.445703 -0.4299,-1.023801 -0.6865,-1.486801 -0.2896,-0.522602 -0.5643,-1.063402 -0.8202,-1.605102 -0.0895,-0.1896 -0.192,-0.3916 -0.2381,-0.5976 -0.1179,-0.296999 -0.3451,-0.579199 -0.5711,-0.7874 -0.3285,-0.302398 -0.6963,-0.3198 -1.1246,-0.313997 -0.9624,0.0129 -1.7522,0.540799 -2.589,0.914498 -0.7917,0.353599 -1.6328,0.626999 -2.4143,0.9927 -1.2075,0.564899 -2.4097,1.127599 -3.6224,1.6822 -0.0475,0.0217 -0.2299,0.01631 -0.2925,0.0138 l -0.0685,0.0477 c -0.8019,-0.0768 -1.617,-0.0708 -2.4204,-0.113203 -0.7588,-0.0401 -1.5192,-0.0756 -2.2798,-0.1053 -0.3145,-0.0123 -0.6369,-0.0522 -0.949,-0.0868 -0.4152,-0.046 -0.8503,-0.049 -1.2688,-0.0783 -0.4561,-0.0319 -0.9116,-0.0876 -1.3675,-0.114398 -0.4312,-0.02532 -0.8727,-0.0341 -1.302,-0.0765 -0.2754,-0.02721 -0.5505,-0.108501 -0.826,-0.133503 -0.6784,-0.0614 -1.3638,-0.0707 -2.043,-0.126498 -1.4449,-0.118702 -2.9431,-0.261701 -4.3817,-0.458402 -0.3399,-0.0464 -0.8934,-0.247198 -1.1989,-0.219698 -0.702,0.0633 -1.4273,0.2281 -2.1262,0.336499 -1.3273,0.205901 -2.6452,0.448499 -3.968,0.679201 -3.5074,0.6119 -7.0095,1.265798 -10.5081,1.9251 -1.646997,0.310298 -3.294697,0.6149 -4.941297,0.928198 -0.0205,0.0039 -0.2548,-0.0221 -0.2844,-0.02469 -0.1971,-0.1187 -0.4122,-0.334699 -0.5606,-0.5085 -2.3752,-2.783699 -4.7653,-5.553699 -7.1502,-8.3268 -0.0674,-0.0783 -0.6152,-0.688498 -0.6106,-0.738999 -0.1099,-0.0757 -0.1477,-0.163201 -0.2282,-0.253599 -0.281,-0.315502 -0.5443,-0.636202 -0.8631,-0.9128 0.008,-0.01349 -0.0854,-0.1905 -0.0996,-0.206502 l -1.4387,-1.6069 c -1.0742,-1.1998 -2.1569,-2.400599 -3.2146,-3.615199 l -0.1628,-1.8445 c -0.0914,-0.065 -0.1863,-0.1272 -0.2752,-0.1956 l -3.8958,-2.998607 c -0.7597,-0.5847 -1.1414,-0.9814 -1.9481,-1.4994 -2.6883,-1.7262 -4.2723,-2.5918 -7.0038,-4.2488 l -14.008,-8.4979 c -0.8892,-0.5394 -1.7911,-1.0611 -2.6858,-1.5912 l -3.7239,-2.2062 c -0.7261,-0.4302 -1.1492,-0.651 -1.8619,-1.1031 -0.5948,-0.3774 -0.9081,-0.6239 -1.4887,-1.0227 L 41.739033,0.3051 41.296133,0 c -4.0371,1.4002 -8.0957,2.77 -12.2124,3.9181 -0.6647,0.1853 -1.3272,0.4091 -1.9926,0.5872 -3.0402,0.8136 -6.0636,1.7023 -9.0867,2.583 -1.5109,0.4401 -3.0259,0.8604 -4.5343,1.3113 -0.1284,0.0383 -0.2647,0.0558 -0.391,0.0978 -1.2238,0.4067 -2.4683,0.7403997 -3.7029999,1.1116997 -1.3733,0.4129003 -2.7382,0.8609003 -4.1193,1.2463003 -0.7633,0.2129 -1.5221,0.4779 -2.2797,0.7149 -0.4947,0.1547 -1.018,0.3507 -1.5206,0.4629 -0.0835,0.0187 -0.1915,0.0285 -0.2698,0.0604 -0.34430002,0.1402 -0.64650002,0.2547 -1.01410002,0.3227 -0.01,0.4621 0.0302,0.9361 -9e-4,1.3964 -0.007,0.1089 -0.0381,0.2534 -0.0225,0.3606 0.018,0.1241 0.0417,0.2513 0.0296,0.3791 -0.0242,0.2578 -0.008,0.4974 -0.008,0.7539 l 0.001,2.5829 0.003,5.798 c 0,4.9125 0.008,9.825199 0.008,14.737801 0,5.525 3e-4,11.05 0.002,16.5749 l -4e-4,0 z" /><path
   d="m 33.423483,5.528595 c -11.7082,0 -21.20195,9.493945 -21.20195,21.201944 0,11.708099 9.49375,21.201945 21.20195,21.201945 1.20302,0 2.37939,-0.107264 3.52778,-0.299861 -10.02377,-1.68531 -17.66535,-10.400019 -17.66535,-20.902084 0,-10.502325 7.64134,-19.225792 17.66535,-20.910902 -1.14825,-0.192545 -2.32492,-0.291042 -3.52778,-0.291042 z"
   id="circle24"
   style="fill:#ffffff;fill-rule:evenodd;stroke:none" /><polygon
   transform="translate(-3.2477669,-1.8621)"
   style="fill:#ffffff;fill-rule:evenodd"
   id="_114702352"
   class="fil3"
   points="49.3913,41.3132 48.0135,45.7721 50.1337,46.4965 " /><polygon
   transform="translate(-3.2477669,-1.8621)"
   style="fill:#ffffff;fill-rule:evenodd"
   id="_115215600"
   class="fil3"
   points="49.3913,41.3132 50.7691,45.7721 48.649,46.4965 " /><polygon
   transform="translate(-3.2477669,-1.8621)"
   style="fill:#f5f5f5;fill-rule:evenodd"
   id="_115138136"
   class="fil4"
   points="53.6319,44.5529 49.1731,44.5529 49.1731,46.8969 " /><polygon
   transform="translate(-3.2477669,-1.8621)"
   style="fill:#f5f5f5;fill-rule:evenodd"
   id="_115150280"
   class="fil4"
   points="53.6319,44.5529 50.0247,47.3086 48.7141,45.412 " /><polygon
   transform="translate(-3.2477669,-1.8621)"
   style="fill:#ffffff;fill-rule:evenodd"
   id="_115694528"
   class="fil3"
   points="45.1507,44.5529 48.758,47.3086 50.0685,45.412 " /><polygon
   transform="translate(-3.2477669,-1.8621)"
   style="fill:#ffffff;fill-rule:evenodd"
   id="_114337448"
   class="fil3"
   points="45.1507,44.5529 49.6096,44.5529 49.6096,46.8969 " /><polygon
   transform="translate(-3.2477669,-1.8621)"
   style="fill:#ffffff;fill-rule:evenodd"
   id="_114877416"
   class="fil3"
   points="52.0121,49.7944 50.6342,45.3356 48.5141,46.06 " /><polygon
   transform="translate(-3.2477669,-1.8621)"
   style="fill:#ffffff;fill-rule:evenodd"
   id="_114020216"
   class="fil3"
   points="52.0121,49.7944 48.4048,47.0388 49.7153,45.1422 " /><polygon
   transform="translate(-3.2477669,-1.8621)"
   style="fill:#ffffff;fill-rule:evenodd"
   id="_115736072"
   class="fil3"
   points="46.7705,49.7944 50.3778,47.0388 49.0673,45.1422 " /><polygon
   transform="translate(-3.2477669,-1.8621)"
   style="fill:#ffffff;fill-rule:evenodd"
   id="_114441856"
   class="fil3"
   points="46.7705,49.7944 48.1484,45.3356 50.2686,46.06 " /><g
   transform="translate(-3.2477669,-1.8621)"
   style="fill-rule:evenodd"
   id="_110910664"><g
     id="g28"><g
       id="g30"><g
         id="g32"><polygon
           id="_40845752"
           class="fil0"
           points="66.3538,41.3132 64.9759,45.7721 67.0961,46.4965 "
           style="fill:#ffffff" /><g
           id="g35"><polygon
             id="_113992528"
             class="fil0"
             points="66.3538,41.3132 67.7316,45.7721 65.6114,46.4965 "
             style="fill:#ffffff" /></g></g><g
         id="g38"><g
           id="g40"><polygon
             id="_114362504"
             class="fil0"
             points="70.5944,44.5529 66.1355,44.5529 66.1355,46.8969 "
             style="fill:#ffffff" /><g
             id="g43"><polygon
               id="_115165488"
               class="fil0"
               points="70.5944,44.5529 66.9871,47.3086 65.6766,45.412 "
               style="fill:#ffffff" /></g></g></g><g
         id="g46"><g
           id="g48"><polygon
             id="_113530896"
             class="fil0"
             points="62.1131,44.5529 65.7204,47.3086 67.0309,45.412 "
             style="fill:#ffffff" /><g
             id="g51"><polygon
               id="_113542296"
               class="fil0"
               points="62.1131,44.5529 66.572,44.5529 66.572,46.8969 "
               style="fill:#ffffff" /></g></g></g><g
         id="g54"><g
           id="g56"><polygon
             id="_40845992"
             class="fil0"
             points="68.9745,49.7944 67.5967,45.3356 65.4765,46.06 "
             style="fill:#ffffff" /><g
             id="g59"><polygon
               id="_111842280"
               class="fil0"
               points="68.9745,49.7944 65.3673,47.0388 66.6778,45.1422 "
               style="fill:#ffffff" /></g></g></g><g
         id="g62"><g
           id="g64"><polygon
             id="_41578216"
             class="fil0"
             points="63.733,49.7944 67.3403,47.0388 66.0297,45.1422 "
             style="fill:#ffffff" /><g
             id="g67"><polygon
               id="_41636856"
               class="fil0"
               points="63.733,49.7944 65.1108,45.3356 67.231,46.06 "
               style="fill:#ffffff" /></g></g></g></g></g></g><g
   transform="translate(-3.2477669,-1.8621)"
   style="fill-rule:evenodd"
   id="_110917400"><g
     id="g71"><g
       id="g73"><polygon
         id="_41658528"
         class="fil0"
         points="83.3162,41.3132 81.9384,45.7721 84.0585,46.4965 "
         style="fill:#ffffff" /><g
         id="g76"><polygon
           id="_41664024"
           class="fil0"
           points="83.3162,41.3132 84.694,45.7721 82.5739,46.4965 "
           style="fill:#ffffff" /></g></g><g
       id="g79"><g
         id="g81"><polygon
           id="_41673336"
           class="fil0"
           points="87.5568,44.5529 83.098,44.5529 83.098,46.8969 "
           style="fill:#ffffff" /><g
           id="g84"><polygon
             id="_41678728"
             class="fil0"
             points="87.5568,44.5529 83.9496,47.3086 82.639,45.412 "
             style="fill:#ffffff" /></g></g></g><g
       id="g87"><g
         id="g89"><polygon
           id="_41687832"
           class="fil0"
           points="79.0756,44.5529 82.6829,47.3086 83.9934,45.412 "
           style="fill:#ffffff" /><g
           id="g92"><polygon
             id="_41693224"
             class="fil0"
             points="79.0756,44.5529 83.5344,44.5529 83.5344,46.8969 "
             style="fill:#ffffff" /></g></g></g><g
       id="g95"><g
         id="g97"><polygon
           id="_41702336"
           class="fil0"
           points="85.937,49.7944 84.5591,45.3356 82.439,46.06 "
           style="fill:#ffffff" /><g
           id="g100"><polygon
             id="_41707728"
             class="fil0"
             points="85.937,49.7944 82.3297,47.0388 83.6402,45.1422 "
             style="fill:#ffffff" /></g></g></g><g
       id="g103"><g
         id="g105"><polygon
           id="_41716832"
           class="fil0"
           points="80.6954,49.7944 84.3027,47.0388 82.9922,45.1422 "
           style="fill:#ffffff" /><g
           id="g108"><polygon
             id="_41722224"
             class="fil0"
             points="80.6954,49.7944 82.0733,45.3356 84.1934,46.06 "
             style="fill:#ffffff" /></g></g></g></g></g><polygon
   transform="translate(-3.2477669,-1.8621)"
   style="fill:#ffffff;fill-rule:evenodd"
   id="_41743904"
   class="fil3"
   points="100.841,45.2406 99.3812,45.4476 99.0724,45.2171 98.9008,45.7721 101.021,46.4965 " /><polygon
   transform="translate(-3.2477669,-1.8621)"
   style="fill:#ffffff;fill-rule:evenodd"
   id="_41749400"
   class="fil3"
   points="99.5363,46.4965 99.6781,45.507 101.423,45.0166 101.657,45.7721 " /><polygon
   transform="translate(-3.2477669,-1.8621)"
   style="fill:#ffffff;fill-rule:evenodd"
   id="_41758784"
   class="fil3"
   points="104.519,44.5529 100.245,45.2911 100.06,46.8969 " /><g
   transform="translate(-3.2477669,-1.8621)"
   style="fill-rule:evenodd"
   id="_111248728"><polygon
     id="_41764176"
     class="fil3"
     points="104.519,44.5529 100.912,47.3086 99.6015,45.412 "
     style="fill:#ffffff" /></g><polygon
   transform="translate(-3.2477669,-1.8621)"
   style="fill:#ffffff;fill-rule:evenodd"
   id="_41773280"
   class="fil3"
   points="96.038,44.5529 99.6453,47.3086 100.956,45.412 100.195,45.2572 99.2833,45.4638 98.885,45.0458 " /><polygon
   transform="translate(-3.2477669,-1.8621)"
   style="fill:#ffffff;fill-rule:evenodd"
   id="_41778672"
   class="fil3"
   points="98.9566,45.3966 100.497,46.8969 96.038,44.5529 98.4682,44.5421 " /><g
   transform="translate(-3.2477669,-1.8621)"
   style="fill-rule:evenodd"
   id="_111245800"><g
     id="g119"><polygon
       id="_41795968"
       class="fil3"
       points="102.899,49.7944 101.522,45.3356 99.4014,46.06 "
       style="fill:#ffffff" /><g
       id="g122"><polygon
         id="_41801360"
         class="fil3"
         points="102.899,49.7944 99.2922,47.0388 100.603,45.1422 "
         style="fill:#ffffff" /></g></g></g><polygon
   transform="translate(-3.2477669,-1.8621)"
   style="fill:#ffffff;fill-rule:evenodd"
   id="_41810480"
   class="fil3"
   points="97.6579,49.7944 101.265,47.0388 99.9546,45.1422 " /><g
   transform="translate(-3.2477669,-1.8621)"
   style="fill-rule:evenodd"
   id="_111289008"><polygon
     id="_41815872"
     class="fil3"
     points="97.6579,49.7944 99.0357,45.3356 101.156,46.06 "
     style="fill:#ffffff" /></g><polygon
   transform="translate(-3.2477669,-1.8621)"
   style="fill:#ffffff;fill-rule:evenodd"
   id="_41837552"
   class="fil3"
   points="117.983,46.4965 117.354,42.0993 116.99,42.1251 115.863,45.7721 " /><polygon
   transform="translate(-3.2477669,-1.8621)"
   style="fill:#ffffff;fill-rule:evenodd"
   id="_41843048"
   class="fil3"
   points="116.499,46.4965 117.12,42.1569 117.499,42.1466 118.619,45.7721 " /><g
   transform="translate(-3.2477669,-1.8621)"
   style="fill-rule:evenodd"
   id="_111304848"><g
     id="g131"><polygon
       id="_41852360"
       class="fil3"
       points="121.482,44.5529 117.023,44.5529 117.023,46.8969 "
       style="fill:#ffffff" /><g
       id="g134"><polygon
         id="_41861864"
         class="fil3"
         points="121.482,44.5529 117.875,47.3086 116.564,45.412 "
         style="fill:#ffffff" /></g></g></g><g
   transform="translate(-3.2477669,-1.8621)"
   style="fill-rule:evenodd"
   id="_111311680"><g
     id="g138"><polygon
       id="_41870952"
       class="fil3"
       points="113.001,44.5529 116.608,47.3086 117.918,45.412 "
       style="fill:#ffffff" /><g
       id="g141"><polygon
         id="_41876344"
         class="fil3"
         points="113.001,44.5529 117.459,44.5529 117.459,46.8969 "
         style="fill:#ffffff" /></g></g></g><g
   transform="translate(-3.2477669,-1.8621)"
   style="fill-rule:evenodd"
   id="_111319544"><g
     id="g145"><polygon
       id="_114786056"
       class="fil3"
       points="119.862,49.7944 118.484,45.3356 116.364,46.06 "
       style="fill:#ffffff" /><g
       id="g148"><polygon
         id="_114881560"
         class="fil3"
         points="119.862,49.7944 116.255,47.0388 117.565,45.1422 "
         style="fill:#ffffff" /></g></g></g><g
   transform="translate(-3.2477669,-1.8621)"
   style="fill-rule:evenodd"
   id="_111328872"><g
     id="g152"><polygon
       id="_114902952"
       class="fil3"
       points="114.62,49.7944 118.228,47.0388 116.917,45.1422 "
       style="fill:#ffffff" /><g
       id="g155"><polygon
         id="_114908344"
         class="fil3"
         points="114.62,49.7944 115.998,45.3356 118.118,46.06 "
         style="fill:#ffffff" /></g></g></g><g
   transform="translate(-3.2477669,-1.8621)"
   style="fill-rule:evenodd"
   id="_111196448"><g
     id="g159"><g
       id="g161"><polygon
         id="_116253168"
         class="fil0"
         points="66.3538,24.3508 64.9759,28.8096 67.0961,29.534 "
         style="fill:#ffffff" /><g
         id="g164"><polygon
           id="_116258624"
           class="fil0"
           points="66.3538,24.3508 67.7316,28.8096 65.6114,29.534 "
           style="fill:#ffffff" /></g></g><g
       id="g167"><g
         id="g169"><polygon
           id="_116267936"
           class="fil0"
           points="70.5944,27.5904 66.1355,27.5904 66.1355,29.9345 "
           style="fill:#ffffff" /><g
           id="g172"><polygon
             id="_116273328"
             class="fil0"
             points="70.5944,27.5904 66.9871,30.3461 65.6766,28.4495 "
             style="fill:#ffffff" /></g></g></g><g
       id="g175"><g
         id="g177"><polygon
           id="_116282432"
           class="fil0"
           points="62.1131,27.5904 65.7204,30.3461 67.0309,28.4495 "
           style="fill:#ffffff" /><g
           id="g180"><polygon
             id="_116287824"
             class="fil0"
             points="62.1131,27.5904 66.572,27.5904 66.572,29.9345 "
             style="fill:#ffffff" /></g></g></g><g
       id="g183"><g
         id="g185"><polygon
           id="_116296928"
           class="fil0"
           points="68.9745,32.832 67.5967,28.3731 65.4765,29.0976 "
           style="fill:#ffffff" /><g
           id="g188"><polygon
             id="_116302320"
             class="fil0"
             points="68.9745,32.832 65.3673,30.0763 66.6778,28.1797 "
             style="fill:#ffffff" /></g></g></g><g
       id="g191"><g
         id="g193"><polygon
           id="_116311432"
           class="fil0"
           points="63.733,32.832 67.3403,30.0763 66.0297,28.1797 "
           style="fill:#ffffff" /><g
           id="g196"><polygon
             id="_116316824"
             class="fil0"
             points="63.733,32.832 65.1108,28.3731 67.231,29.0976 "
             style="fill:#ffffff" /></g></g></g></g></g><polygon
   transform="translate(-3.2477669,-1.8621)"
   style="fill:#ffffff;fill-rule:evenodd"
   id="_116338592"
   class="fil3"
   points="84.0585,29.534 83.4241,26.3945 82.8301,25.9242 81.9384,28.8096 " /><polygon
   transform="translate(-3.2477669,-1.8621)"
   style="fill:#ffffff;fill-rule:evenodd"
   id="_116344088"
   class="fil3"
   points="82.9451,26.9424 83.0511,25.977 83.9141,26.7371 84.694,28.8096 82.5739,29.534 " /><polygon
   transform="translate(-3.2477669,-1.8621)"
   style="fill:#ffffff;fill-rule:evenodd"
   id="_116353400"
   class="fil3"
   points="83.098,29.9345 85.167,28.8382 85.0964,27.5904 83.098,27.5904 " /><polygon
   transform="translate(-3.2477669,-1.8621)"
   style="fill:#ffffff;fill-rule:evenodd"
   id="_116358792"
   class="fil3"
   points="82.639,28.4495 85.0452,28.0292 85.2991,29.3152 83.9496,30.3461 " /><polygon
   transform="translate(-3.2477669,-1.8621)"
   style="fill:#ffffff;fill-rule:evenodd"
   id="_116367896"
   class="fil3"
   points="79.0756,27.5904 82.6829,30.3461 83.9934,28.4495 " /><g
   transform="translate(-3.2477669,-1.8621)"
   style="fill-rule:evenodd"
   id="_111486176"><polygon
     id="_116373288"
     class="fil3"
     points="79.0756,27.5904 83.5344,27.5904 83.5344,29.9345 "
     style="fill:#ffffff" /></g><g
   transform="translate(-3.2477669,-1.8621)"
   style="fill-rule:evenodd"
   id="_111490376"><polygon
     id="_116382392"
     class="fil3"
     points="85.937,32.832 84.5591,28.3731 82.439,29.0976 "
     style="fill:#ffffff" /><g
     id="g208"><polygon
       id="_116387784"
       class="fil3"
       points="85.937,32.832 82.3297,30.0763 83.6402,28.1797 "
       style="fill:#ffffff" /></g></g><polygon
   transform="translate(-3.2477669,-1.8621)"
   style="fill:#ffffff;fill-rule:evenodd"
   id="_116396896"
   class="fil3"
   points="80.6954,32.832 84.3027,30.0763 82.9922,28.1797 " /><polygon
   transform="translate(-3.2477669,-1.8621)"
   style="fill:#ffffff;fill-rule:evenodd"
   id="_116402288"
   class="fil3"
   points="80.6954,32.832 82.0733,28.3731 84.1934,29.0976 " /><path
   style="fill:#1eb53a;fill-rule:evenodd"
   id="_115977200"
   class="fil6"
   d="m 204.38623,118.6089 -98.6057,0 c 0.8966,0.6652 1.7901,1.3262 2.6913,1.9745 0.7863,0.5656 1.6024,1.0972 2.3987,1.6489 1.1896,0.8242 2.3457,1.6987 3.5331,2.5259 0.4781,0.3331 0.9798,0.6351 1.4609,0.964 0.5192,0.3548 1.0037,0.7485 1.5342,1.0928 0.4926,0.3196 1.0176,0.5934 1.5087,0.9121 0.4314,0.28 0.808,0.5836 1.2144,0.8857 0.0282,0.021 0.1369,0.0716 0.1545,0.0904 0.6234,0.6693 1.3114,1.2823 1.9271,1.9526 0.0562,0.0612 0.2227,0.3894 0.2667,0.4283 0.2161,0.1913 0.09,0.0977 0.2416,0.3475 0.099,0.1633 0.6694,0.8016 0.8494,0.9334 0.5406,0.3962 1.0607,0.8133 1.6108,1.1986 0.2037,0.1426 0.4233,0.2652 0.6256,0.4095 0.9262,0.6608 1.7858,1.4035 2.7177,2.0601 0.6429,0.453 1.213,1.1007 1.9094,1.4505 0.2824,0.0411 0.5765,0.098 0.849,0.061 0.4886,-0.0664 1.2035,-0.7372 1.6148,-0.6068 0.3774,0.4112 0.7508,0.8699 1.1472,1.263 0.3416,0.3387 0.7119,0.6607 1.0606,0.995 0.2732,0.262 0.553,0.5627 0.8471,0.7988 0.6453,0.5179 1.3805,0.9086 2.0704,1.3579 0.1232,0.0802 0.2299,0.1938 0.3513,0.2772 0.5136,0.353 1.1106,0.6047 1.6099,0.979 0.0702,0.0524 0.151,0.1661 0.2116,0.2329 0.1478,0.1626 0.4126,0.3037 0.5883,0.4342 0.5915,0.4392 2.3518,0.9594 3.1668,1.393 0.498,0.2649 2.3706,2.3675 2.8203,2.8112 0.3047,0.3005 0.6204,0.592 0.93,0.8875 0.4178,0.3986 0.9249,0.718 1.4006,1.0392 0.4781,0.3227 1.5673,1.1021 2.117,1.3383 0.9709,0.4173 1.9502,0.8015 2.9283,1.1986 0.3434,0.1394 2.1441,0.6877 2.4161,0.4635 l 0.057,-0.2242 0.046,-0.0357 c 0.0559,-0.007 0.1437,-0.001 0.1956,0.0237 0.0487,-0.1687 0.1445,-0.3571 0.2522,-0.4958 1.3786,-0.3854 1.0904,0.4388 1.9789,0.8925 0.3083,0.1575 0.7186,-0.0114 0.9197,0.1289 0.0506,0.0701 0.1842,0.2441 0.2646,0.283 0.2707,-8.5e-4 0.4544,0.1652 0.7008,0.1886 0.0713,0.1006 0.1315,0.2254 0.1721,0.3417 0.4159,0.3656 1.5065,0.5219 2.0789,0.5446 0.2202,0.0557 0.4782,0.7366 0.6066,0.9317 0.056,0.0852 0.151,0.1687 0.2175,0.2479 0.1319,0.157 0.2573,0.3487 0.412,0.4843 0.0417,0.0366 0.8397,0.5035 0.9618,0.5803 0.1576,0.0992 0.2698,0.2825 0.4229,0.379 0.014,0.009 0.2338,0.0632 0.2637,0.0713 0.5091,0.1393 0.8467,-0.268 1.2742,-0.2658 0.2769,10e-4 0.5945,0.0443 0.8709,0.0754 0.2834,0.0319 0.8758,0.3103 1.0982,0.501 0.1427,0.1224 0.2561,0.3274 0.3752,0.4734 0.3755,0.4603 0.8725,0.8202 0.5641,1.5004 -0.262,0.3473 -0.8682,0.3872 -1.0924,0.7828 -0.0927,0.1634 -0.1244,0.3807 -0.2204,0.5412 -0.1035,0.1733 -0.3632,0.354 -0.5179,0.6689 -0.2577,0.5241 -0.391,1.16 -0.4088,1.7421 -0.008,0.265 0.0851,0.4986 0.0991,0.7552 0.007,0.1233 -0.0334,0.2984 -0.0478,0.4238 -0.0737,0.6384 -0.2327,1.4989 -0.0558,2.1096 0.0153,0.0529 0.3414,0.4487 0.3844,0.502 0.3616,0.4487 1.2272,1.3728 1.3349,1.8658 0.0411,0.1885 -0.0377,0.3611 -0.1059,0.5296 -0.4792,0.2165 -1.9399,0.4182 -1.9399,1.2153 0,0.1825 0.1019,0.5091 0.1304,0.6884 l 0.1282,0.3201 c 0.3343,-0.1317 1.0517,-0.492 1.3243,-0.07 0.3462,0.5361 1.1267,0.3604 1.5936,0.0853 0.9508,-0.56 1.4422,0.1556 2.141,-0.1771 0.4353,-0.2072 1.0187,-0.3265 1.5647,-0.5681 0.3279,-0.1452 0.9366,0.0906 1.2289,0.2339 0.099,0.0485 0.5917,0.4656 0.798,0.6728 0.0264,0.5287 0.1142,1.1445 0.6685,1.3876 l 0.1366,0.0591 0.1361,0.0578 c 0.1142,0.0479 0.1736,0.0593 0.2974,0.0454 l 0.1267,-0.0152 0.0907,-0.0113 c 0.0955,0.052 0.1917,0.1031 0.2893,0.1513 0.2012,0.5313 0.1619,0.5518 0.6131,0.9841 0.7099,0.6802 1.0712,0.7721 1.7773,0.0809 l 0.0859,-0.0831 c 0.018,-0.007 0.0513,-0.0184 0.119,-0.0318 0.6332,-0.1247 0.6169,-0.0275 1.2467,-0.3108 0.6201,-0.2788 0.7428,-0.4272 1.2333,-0.906 0.3517,0.1493 0.3977,0.2262 0.521,0.6143 0.147,0.4625 0.9418,0.4674 1.1531,0.0457 0.1208,-0.0285 0.259,-0.0715 0.3825,-0.1286 0.1151,0.0536 0.2218,0.1098 0.3309,0.1637 0.5665,0.2795 1.1316,0.1902 1.544,0.5281 0.1109,0.0909 0.2107,0.241 0.2966,0.4035 l 0.3041,-0.1606 0.2456,-0.1651 c 0.081,-0.2896 0.1737,-0.579 0.2451,-0.8708 0.1214,-0.4962 0.1947,-1.8705 0.1947,-2.3827 0,-0.4762 -0.0836,-0.9566 -0.0898,-1.4332 -0.004,-0.304 0.0114,-0.6101 0.0159,-0.9145 2.8e-4,-0.0276 0.3664,-1.2414 0.4088,-1.3844 0.5613,-0.5025 0.6324,-0.6451 0.987,-1.4125 0.1245,-0.2695 0.2121,-0.6168 0.3624,-0.8679 0.2012,-0.3362 0.5349,-0.7577 0.79,-1.0577 0.0132,-0.0154 0.2415,-0.1697 0.2735,-0.1932 0.25,-0.1833 0.4567,-0.4701 0.5924,-0.7431 0.4667,-0.9391 0.7979,-2.0376 1.3702,-2.9131 1.0071,-0.1231 1.408,-0.2138 2.254,-0.6648 0.0155,-0.0399 0.1204,-0.2952 0.1225,-0.3152 0.003,-0.0257 -0.038,-0.2649 -0.0322,-0.279 0.0153,-0.0368 0.1638,-0.3812 0.1631,-0.3939 -0.008,-0.1746 -0.0457,-0.389 -0.026,-0.5573 10e-4,-0.0115 0.0673,-0.1306 0.0765,-0.1484 0.1455,-0.2824 0.3006,-0.6999 0.4899,-0.9512 0.1209,-0.1608 0.2666,-0.3144 0.3971,-0.4682 0.1199,-0.1414 0.2971,-0.2156 0.396,-0.3877 0.0296,-0.7176 0.5855,-1.883 0.5212,-2.4126 -0.1231,-0.1713 -0.2692,-0.3453 -0.3756,-0.5258 -0.089,-0.1509 -0.1675,-0.3123 -0.2505,-0.4669 -0.008,-0.0153 0.014,-0.1081 -0.007,-0.1358 -0.2087,-0.2738 -0.4411,-0.6509 -0.6778,-0.8909 -0.2409,-0.2441 -1.3638,-0.6854 -1.3817,-0.7476 -0.047,-0.1642 -0.009,-0.316 -0.0283,-0.4774 -0.0273,-0.2302 -0.4035,-0.9655 -0.5583,-1.1255 -0.012,-0.0123 -0.2512,-0.1443 -0.2814,-0.1616 -0.1048,-0.0603 -0.3145,-0.2193 -0.4504,-0.1726 -0.2411,0.0828 -0.3939,0.2335 -0.6654,0.2238 0.0261,-0.1082 0.0399,-0.2599 0.0851,-0.3561 0.04,-0.0851 0.1428,-0.1955 0.1999,-0.2737 0.1262,-0.173 0.1924,-0.4251 0.2468,-0.6304 -0.4806,-0.3733 -0.8175,-0.9277 -1.1776,-1.4166 0.0112,-0.4738 0.0326,-0.9569 0.0681,-1.4285 0.0112,-0.149 0.0585,-0.2821 0.0478,-0.4365 l 0.1597,-0.1951 c 0.0514,-0.1046 -0.3848,-1.0756 -0.4403,-1.3602 0.1051,-0.1619 0.2828,-0.3171 0.438,-0.4279 0.1718,-0.006 0.383,-0.011 0.5477,-0.0678 l 0.1222,-0.2358 c -0.293,-0.42051 -0.6337,-0.83381 -0.8715,-1.29011 l 0.1211,-0.1961 c 0.407,-0.0633 0.8319,-0.0913 1.2167,-0.2518 l 0.1659,-0.2577 c 0.0914,-0.1421 0.3134,-0.2244 0.4712,-0.2842 -0.0299,-0.2531 -0.0645,-0.5051 -0.101,-0.7574 l 0.1191,-0.0765 c 0.0388,-0.2658 0.0467,-0.4532 0.0155,-0.7149 -0.1963,-0.1394 -0.373,-0.2861 -0.5561,-0.444 -0.4731,-0.408 -0.2854,-0.1057 -0.4779,-0.651 -0.0762,-0.2161 -0.2016,-0.4334 -0.2994,-0.6425 -0.2659,-0.1761 -0.5085,-0.3817 -0.8552,-0.3358 -0.221,0.1065 -0.4325,0.2026 -0.6341,0.3445 -0.3327,-0.0174 -0.5608,-0.2251 -0.7352,-0.4912 -0.2514,-0.005 -0.2975,0.1193 -0.5127,0.188 -0.2128,0.068 -0.4843,0.0307 -0.7061,0.0265 -0.1187,0.1583 -0.2317,0.3195 -0.3615,0.4693 -0.4875,0.005 -0.5557,-0.078 -0.9733,-0.3352 l -0.7065,0.0666 c -0.0834,0.0627 -0.2597,0.2193 -0.357,0.2514 l -0.2137,-0.0828 c -0.1086,0.0167 -0.1916,0.1 -0.3154,0.1132 l -0.2337,-0.1029 c -0.4163,-0.5699 -0.1785,-0.3003 -0.3145,-1.0979 -0.0243,-0.1428 -0.1328,-0.2974 -0.1501,-0.4394 -0.0112,-0.0929 0.065,-0.7261 0.0736,-0.8719 l 0.1203,-0.1771 0.004,-0.1985 -0.0964,-0.1006 c -0.1615,0.007 -0.6055,-0.006 -0.7441,-0.1116 l -0.2261,-0.5797 c -0.659,-0.4214 -0.8609,-0.0669 -1.3524,-0.1605 -0.205,-0.039 -0.3354,-0.1891 -0.5071,-0.2456 -0.3293,-0.1084 -0.6458,-0.0886 -0.9378,-0.3117 -0.3497,-0.2671 -0.8664,-1.2427 -0.861,-1.7191 l 0.0801,-0.0984 c 0.4353,-0.1324 1.0883,-0.4482 1.4816,-0.475 0.1129,-0.008 0.4025,0.0936 0.5495,0.1075 l 0.061,-0.1581 c -0.0518,-0.3472 -0.2749,-0.6381 -0.3991,-0.9588 -0.3418,-0.8827 -0.6492,-1.7962 -1.1644,-2.5972 0.005,-0.315 0,-0.4399 0.1288,-0.7322 0.2154,-0.1255 0.733,0.2008 0.9245,0.1524 l 0.1408,-0.1766 c -0.0155,-0.2525 -0.1229,-0.5519 -0.0274,-0.7942 0.4295,-0.1883 0.9221,-0.3961 1.3697,-0.5147 0.2166,-0.0574 0.4718,0.0393 0.6919,-0.0686 0.2746,-0.6036 0.4068,-0.606 0.9221,-0.8184 0.0605,-0.1031 0.1922,-0.2922 0.302,-0.3519 0.3695,-0.1124 0.613,0.6478 1.4614,0.0454 0.5791,0.3041 0.5831,0.6179 1.3126,0.5994 0.2584,0.3051 0.6047,0.4551 0.976,0.5941 0.3343,-0.0695 0.8016,-0.0434 1.1028,0.1213 0.1393,0.076 0.2523,0.2331 0.389,0.3054 0.1707,0.0903 0.3936,0.003 0.5719,0.012 0.2247,0.0116 0.3902,0.1856 0.5875,0.2307 0.1434,0.0327 0.8465,0.0665 1.0261,0.0219 0.2203,0.0624 0.3586,0.2713 0.606,0.2513 0.0997,-0.008 0.2172,-0.0731 0.3178,-0.092 0.3525,-0.0663 0.6934,-0.0353 1.0453,0.0235 0.1368,0.0229 0.5531,0.1064 0.6662,0.1944 0.1541,0.1199 0.1936,0.275 0.4076,0.3071 0.2197,-0.0767 0.4279,-0.1821 0.6374,-0.2823 0.2904,0.0789 1.1298,0.2308 1.4193,0.0747 l 0.3717,0.1288 c 0.0872,-0.0899 0.1823,-0.1756 0.2822,-0.2513 0.1122,-0.2976 0.1186,-0.583 0.1805,-0.8886 0.5021,-0.1843 0.9403,-0.8916 1.3171,-1.2756 l 0.0941,-0.5924 c -0.1425,-0.2048 -0.6993,-0.9382 -0.7409,-1.1508 0.0566,-0.0421 0.1075,-0.1155 0.1432,-0.1749 0.1304,0.0142 0.328,-0.0386 0.4381,-0.1076 0.0841,-0.1233 0.4652,-1.1321 0.4685,-1.2578 5.6e-4,-0.0265 -0.0474,-0.1623 -0.054,-0.1995 -0.0398,-0.2219 -0.0794,-0.5461 -0.019,-0.7748 0.1968,-0.0135 0.4342,0.0262 0.5902,0.1548 0.1619,-0.1533 0.3186,-0.3 0.5069,-0.4228 l 0.1571,0.0443 c 0.2002,0.1349 0.3736,0.508 0.3761,0.7443 l 0.1937,0.1443 0.1598,-0.0351 c 0.1764,-0.0895 0.0939,-0.4653 0.2773,-0.7068 0.2618,-0.0188 0.4145,-0.1028 0.4914,-0.2278 z" /></svg>