<?xml version="1.0" encoding="UTF-8" standalone="no"?>
<svg
   xmlns:dc="http://purl.org/dc/elements/1.1/"
   xmlns:cc="http://creativecommons.org/ns#"
   xmlns:rdf="http://www.w3.org/1999/02/22-rdf-syntax-ns#"
   xmlns:svg="http://www.w3.org/2000/svg"
   xmlns="http://www.w3.org/2000/svg"
   xmlns:sodipodi="http://sodipodi.sourceforge.net/DTD/sodipodi-0.dtd"
   xmlns:inkscape="http://www.inkscape.org/namespaces/inkscape"
   version="1.0"
   width="444.4295"
   height="900.00085"
   viewBox="0 0 703.68005 1425.0014"
   id="svg2"
   inkscape:version="0.91 r13725"
   sodipodi:docname="Flag_of_Vanuatu.svg">
  <metadata
     id="metadata31">
    <rdf:RDF>
      <cc:Work
         rdf:about="">
        <dc:format>image/svg+xml</dc:format>
        <dc:type
           rdf:resource="http://purl.org/dc/dcmitype/StillImage" />
        <dc:title></dc:title>
      </cc:Work>
    </rdf:RDF>
  </metadata>
  <defs
     id="defs29" />
  <sodipodi:namedview
     pagecolor="#ffffff"
     bordercolor="#666666"
     borderopacity="1"
     objecttolerance="10"
     gridtolerance="10"
     guidetolerance="10"
     inkscape:pageopacity="0"
     inkscape:pageshadow="2"
     inkscape:window-width="1600"
     inkscape:window-height="837"
     id="namedview27"
     showgrid="false"
     fit-margin-top="0"
     fit-margin-left="0"
     fit-margin-right="0"
     fit-margin-bottom="0"
     inkscape:zoom="0.3819422"
     inkscape:cx="813.80826"
     inkscape:cy="213.86352"
     inkscape:window-x="-8"
     inkscape:window-y="-8"
     inkscape:window-maximized="1"
     inkscape:current-layer="svg2" />
  <path
     style="fill:#d21034"
     d="M 2.7488886,0.00117604 C 2.5437995,0.0116576 2.350902,0.09492871 2.1798703,0.2887737 2.0779036,0.68316372 2.1600786,1.4683785 2.3035286,2.5307985 2.833407,3.4724885 2.141332,4.316299 3.2869212,4.881059 4.3493379,5.545119 4.5514662,6.7272864 4.7218171,7.8714563 4.6333087,8.7877364 3.1622337,9.101767 3.7229554,9.918657 c -0.4855926,0.79419 -0.4197417,2.005676 -1.6297093,1.713216 -0.8424283,0.61043 -0.1108333,1.758094 -0.5628275,2.619304 0.5070625,0.75123 0.044967,1.737931 0.7545534,2.47705 -0.5701109,0.8867 0.0703,2.05531 -0.4917042,2.928548 -0.7109484,1.094611 0.7859983,1.746404 1.4782,2.328615 1.3709293,0.731069 2.5143493,1.779777 3.8222619,2.600748 1.0986433,0.43996 1.9900917,0.417195 1.5956992,-0.992675 0.7740125,-1.734441 0.509485,-3.773386 1.1627684,-5.489096 0.9094977,-0.93898 0.2475377,-2.297324 -0.6123067,-3.024414 0.2333992,-1.14427 0.2043767,-2.494946 1.0266964,-3.392416 0.802164,1.26364 1.808214,-1.143569 0.739084,-0.794759 C 9.5408189,11.692298 10.212912,10.46223 10.084124,9.4547897 9.5006814,8.6888197 9.7422031,7.6952517 9.4470856,6.8045617 9.8991589,5.7327418 10.058964,4.2586107 9.0636181,3.4430707 9.0072514,2.5925407 8.3517197,1.5440586 7.2638113,1.7855185 6.6025321,0.98598861 5.5976854,0.92098685 4.6600196,0.69697685 4.0875654,0.57828185 3.364172,-0.03026864 2.7488886,0.00117604 Z M 13.504425,25.492225 c -0.20965,0.0027 -0.43632,0.0994 -0.671065,0.3278 -0.690855,0.19046 -2.235587,0.137671 -2.071934,1.141114 -0.413155,1.305239 0.556716,1.104663 1.691554,1.079263 0.682813,-0.254929 1.946772,-0.235724 2.180187,-0.989583 -0.03024,-0.722407 -0.499827,-1.566853 -1.128742,-1.558594 z m -0.0247,4.150065 c -0.953769,0.53384 -0.479149,1.697548 -1.45035,2.232747 -0.685472,0.513751 -2.009281,1.167953 -0.899903,2.022462 0.474858,0.381001 2.575371,0.507137 1.487463,1.246256 -1.196573,-0.02415 -1.366591,1.249069 -0.726719,2.007 0.5111,0.92017 1.874683,0.350572 2.223459,1.431804 1.028898,0.458778 0.772762,2.033552 1.722493,2.025552 1.050352,-0.50037 2.13066,-1.143667 3.274904,-1.524576 0.991325,-0.38371 2.779905,-0.437983 2.57602,-1.898764 0.340717,-0.971259 -0.820563,-2.011686 0.114475,-2.761556 0.863898,0.71768 1.035357,2.39115 2.337886,2.43685 -0.103233,-1.054371 -0.129991,-2.114917 -0.262849,-3.166667 -0.382311,-0.8102 -1.016421,-1.681846 -1.100907,-2.569825 0.441338,-1.2946 -1.04318,-1.364654 -1.951348,-1.218424 -0.753872,0.03219 -0.15295,1.925644 -1.651353,0.825683 -1.05572,-0.323299 -2.028076,0.565906 -2.996585,0.120603 -0.882677,-0.47893 -1.634206,-1.312427 -2.696623,-1.209148 z M 9.8368231,35.821002 C 9.5460123,35.781561 9.2776373,36.325805 10.096584,36.105506 10.034518,35.912995 9.9337706,35.83415 9.8368231,35.821002 Z M 210.65113,37.246621 c -0.64705,0.06394 -0.26355,1.00937 0.34326,0.03401 -0.1368,-0.03505 -0.25083,-0.04315 -0.34326,-0.03401 z M 17.852401,48.738157 c -0.554278,0.01156 -1.167487,0.814918 -1.90494,0.671061 -1.239497,0.20248 0.448067,1.496417 -1.032888,2.041017 -0.250863,0.79012 0.898922,1.474701 0.244308,2.46468 0.572787,0.955081 1.731486,0.965441 2.712076,1.21224 1.291795,-0.132763 2.464981,0.867946 2.770834,2.016276 -0.375614,0.74047 0.631861,1.442545 -0.04022,2.393554 -0.360842,1.020911 0.587401,1.882976 1.447262,2.204917 0.786077,-0.315171 1.166014,-1.486681 1.815276,-2.109051 0.59432,-1.279739 0.571821,-2.932688 0.04323,-4.205729 -0.706943,-1.30787 -2.056972,-1.894151 -3.37695,-2.390462 -0.910844,-0.03626 -1.963475,-1.211327 -1.172046,-1.954427 0.709634,-0.295169 2.220514,0.25283 1.988445,-1.048341 -0.437301,-1.289129 -1.946281,-0.746894 -2.956384,-0.980305 -0.174373,-0.237094 -0.353321,-0.319288 -0.538081,-0.31543 z m 12.672858,15.258139 c -0.408215,-0.04701 -0.805236,0.04131 -1.1473,0.380371 -0.765969,1.01684 -2.178065,0.909402 -3.126465,1.518393 -1.214006,0.700229 -0.139809,1.597501 -0.225752,2.59147 0.279015,0.86798 1.458329,0.970924 1.419427,2.013185 1.21801,0.63457 0.40584,2.350077 1.301927,3.281086 0.500365,1.23814 1.887698,0.69851 2.919271,0.80713 0.991325,-0.646521 0.592088,-1.938776 0.804033,-2.950195 0.594272,-1.21806 2.048311,-2.333356 1.4782,-3.884115 C 33.666877,66.75025 33.460094,65.313878 32.458034,64.85909 31.917262,64.534582 31.205601,64.074652 30.525259,63.996296 Z M 150.45966,85.389852 c -0.92777,-0.04577 -1.85031,0.115409 -2.64712,0.587564 -1.51315,1.334711 -3.31026,2.734539 -3.71403,4.83659 0.2334,1.023449 -1.62534,1.467022 -0.48243,2.214192 0.47353,0.75793 0.6936,1.583406 1.0236,2.495606 1.4823,1.58965 3.43871,3.092573 5.72722,2.971842 1.68349,0.256201 2.93896,-1.075494 4.53661,-1.243164 0.63048,-1.24491 1.88018,-2.004866 2.50798,-3.216146 0.15565,-1.02353 -0.17959,-2.007532 -0.34326,-3.033692 -1.29716,-0.233409 -2.22074,1.09691 -2.96256,1.982259 -0.34476,1.069111 -1.43238,1.30335 -2.3781,0.856609 l -0.55045,-0.457682 c 0.005,-1.54399 0.8043,-3.116565 2.2544,-3.720216 0.90144,-0.947029 2.55923,-0.555745 3.21923,-1.775065 -1.25558,-0.450729 -2.26991,-1.434351 -3.51611,-1.846191 -0.81492,-0.353469 -1.74719,-0.606735 -2.67498,-0.652506 z m 34.24887,18.805178 c -0.59352,-0.32102 -0.85469,1.99849 0.27214,0.64632 l 0,-0.16081 0,-0.16699 c -0.0953,-0.17204 -0.18736,-0.27266 -0.27214,-0.31852 z m 5.09635,0.18245 c -0.26266,0.13994 -0.16804,1.3432 0.37728,0.33708 -0.16399,-0.31019 -0.28972,-0.38372 -0.37728,-0.33708 z m -0.29377,1.74724 c -0.35563,0.0921 -0.53911,1.46639 -0.16082,1.91113 0.69751,0.4708 0.57849,2.36024 1.52149,1.3112 0.53531,-1.17375 -1.04084,-1.65254 -0.96484,-2.80485 -0.14234,-0.3357 -0.2773,-0.44819 -0.39583,-0.41748 z m -1.19678,0.24739 c -0.0806,-0.0468 -0.19883,0.0338 -0.38966,0.33399 -0.61569,0.8679 0.19075,2.26817 1.00506,1.15348 -0.47491,-0.0463 -0.37351,-1.34707 -0.6154,-1.48747 z m -0.78239,2.9471 c -0.64163,0.0575 -0.37555,2.40065 0.12683,1.61426 0.20661,-0.3716 0.4335,-1.15836 0.2041,-1.48437 -0.13062,-0.10096 -0.23922,-0.1381 -0.33088,-0.12988 z m 35.19514,5.83545 c -1.50639,0.48834 -3.23869,1.11301 -4.71288,0.17937 -1.05311,-0.19715 -2.23713,0.26014 -3.34913,0.15152 -1.0008,-0.20257 -2.09312,0.1943 -1.83691,1.41634 0.29511,1.12418 0.39609,2.38795 -0.40202,3.29346 -0.46409,0.91619 -1.61264,0.83079 -2.14925,1.62353 -0.4386,1.25026 -1.66584,2.0202 -2.52035,3.01823 -0.76999,0.56612 -1.99517,0.93225 -0.95556,1.98536 1.1147,0.28704 1.43262,-1.10631 2.32861,-1.50603 1.1765,-0.77267 2.4938,-1.00767 3.8903,-0.99576 1.2663,0.17843 2.26178,-0.66167 3.45426,-0.81332 0.33671,-0.84638 0.87688,-1.44605 1.72869,-1.8833 0.95509,-0.001 1.83519,-0.36224 2.7461,-0.51644 1.0289,0.2213 1.81583,-0.39715 2.73061,-0.34635 0.60101,-0.59297 0.0545,-1.96427 0.22886,-2.86979 -0.18911,-0.92288 -0.45226,-1.72176 -0.34635,-2.69971 -0.279,-0.0136 -0.55727,-0.0252 -0.83498,-0.0371 z m -14.52831,12.15332 c -0.0724,0.005 -0.15438,0.0288 -0.2474,0.0742 -1.43399,-0.22138 0.37333,1.88082 0.84423,1.16585 -0.0564,-0.4061 -0.0906,-1.27366 -0.59683,-1.24007 z m -30.16683,0.70817 c -0.73381,0.62509 -1.63021,0.40717 -2.61622,0.38347 -1.1885,-0.57417 -1.20727,0.89298 -2.17708,0.98958 -1.74119,0.0872 -3.41058,0.85338 -4.43148,2.30078 -0.79539,0.63856 -1.47667,1.41247 -2.26677,2.06576 -0.5285,0.97389 -1.86315,0.64194 -2.14616,1.66683 -0.47755,0.76996 -1.07174,1.45889 -1.54931,2.18327 -0.63718,0.81291 -0.53165,2.15718 -1.472,2.85742 0.37696,1.00074 0.15548,2.10535 0.26286,3.1543 -0.71901,0.67075 -0.28107,1.76636 -0.38038,2.64095 0.84512,0.84647 -0.50782,1.66184 -0.1577,2.52034 0.80085,1.06648 -0.64543,1.72095 -0.68033,2.51107 -0.10196,1.40852 0.39178,2.69123 0.61849,4.06348 0.61035,1.35217 2.09498,2.15673 3.04606,3.29964 1.02222,1.81899 2.65755,3.18335 4.03254,4.74072 0.38232,0.82097 0.77117,1.4961 1.82146,1.51221 1.60301,0.91754 3.5798,2.41445 3.3182,4.49641 -0.6817,1.72376 -0.88673,3.65139 -0.77002,5.52002 -0.25891,1.26097 0.67537,2.23394 1.56478,2.98114 1.544,0.051 3.17064,-0.36018 4.19954,-1.5648 0.10592,-1.39243 2.4676,-1.23916 2.29459,-2.71207 0.20791,-1.36557 -1.03947,-2.02295 -1.85237,-2.86669 -0.9725,-0.81691 0.68448,-1.74544 -0.72672,-2.30079 -0.83711,-0.41447 0.18215,-2.103 0.75764,-2.20492 1.22211,0.53791 2.58383,0.62624 3.88102,0.42367 0.85852,-0.38762 1.78155,-0.64087 2.52346,-1.24316 0.84638,-0.30585 1.82029,-1.22616 2.58217,-0.10212 0.43332,0.77922 2.52248,1.06954 1.24009,-0.0681 0.72838,-0.6023 1.85642,-0.41438 2.35953,0.39583 0.6318,-0.61305 -0.0472,-1.98347 1.20297,-2.10286 1.10399,-0.0926 1.5393,-1.29219 2.375,-1.73487 1.25428,-0.11131 2.56305,-0.11273 3.49137,-1.104 1.19789,-0.76462 -0.11368,-1.20775 -0.91846,-1.47201 -0.58361,-0.69888 -1.37681,-1.76808 -1.83692,-0.39583 -0.53249,1.15232 -2.15822,1.81152 -3.09863,0.76383 -0.66129,-0.4319 -2.01786,-0.56784 -1.81526,-1.69465 0.216,-1.08521 -0.47607,-1.95259 -0.50407,-2.99349 0.47739,-0.90814 -0.26315,-1.69011 0.0185,-2.6224 -0.29779,-1.12681 1.09035,-1.32376 1.45655,-2.22656 0.4709,-1.13486 1.83559,-0.77046 1.92659,0.37109 0.56881,1.27168 0.60336,-1.09499 -0.30615,-1.29883 -0.5526,-0.74725 -1.89904,-0.88892 -1.25244,-2.06266 0.78211,-0.99134 -0.59224,-1.63126 -1.00814,-2.42138 0.0872,-0.90951 -1.54346,-1.48883 -1.48746,-1.93279 2.01349,-0.24282 -0.82867,-0.4133 0.19481,-1.45963 -0.86659,-0.38904 -1.7318,-1.29212 -1.4287,-2.2915 0.0127,-1.01277 -0.98339,-1.59683 -0.98339,-2.64714 -1.1698,-0.76199 0.68865,-1.78126 -0.92774,-2.00391 -0.9538,-1.10673 -1.68397,-2.38039 -2.79867,-3.36767 -0.6976,-1.05708 -1.63304,-0.89139 -2.56673,-0.75456 -1.03021,-0.49233 -1.93293,-1.25603 -2.69353,-2.1307 l -0.15153,-0.0278 -0.16389,-0.034 z m 15.19939,14.03044 c -0.77031,-0.21239 -0.5017,1.57864 0.39273,0.22884 -0.15375,-0.12711 -0.28269,-0.1985 -0.39273,-0.22884 z m 28.45669,8.5166 c -1.5627,0.0764 -3.12806,0.52003 -4.35416,1.50603 -1.2744,0.87595 -0.42404,2.41176 -0.31544,3.61507 -0.10465,1.17646 1.0603,1.60023 2.05031,1.40706 1.24478,0.22705 2.62797,0.59967 3.81916,-0.0804 0.259,-0.27501 0.51601,-0.55067 0.77621,-0.82568 0.6882,-1.09326 -0.12413,-2.52355 -0.22884,-3.7295 0.0456,-1.07588 -0.92894,-1.52902 -1.74724,-1.89257 z m -18.57942,9.59586 c -0.39455,0.0367 -1.05269,0.23667 -1.48129,0.22267 -0.5607,0.64389 -1.28647,2.22662 0.15153,1.44726 0.70561,-0.2629 1.73302,0.15453 1.22461,-0.90918 0.6318,-0.6707 0.4997,-0.79745 0.10514,-0.76075 z m 2.07813,0.27524 c -0.24265,0.031 -0.51493,0.15675 -0.78858,0.19482 1.1147,0.15723 1.21125,2.09629 1.40706,0.17936 -0.1616,-0.34071 -0.37585,-0.40523 -0.61848,-0.37418 z m -16.23536,61.85515 c -0.31865,-0.0182 -0.63793,-0.0143 -0.95247,0.006 -0.59122,0.46048 -1.2581,0.73701 -1.96989,0.90301 l 17.24659,8.89078 c 0.3189,-0.29795 0.73672,-0.59184 0.99884,-0.8566 0.51652,-0.62377 -1.00383,-1.49491 -1.24934,-2.09051 -1.00019,-0.57144 0.0339,-1.71839 -1.09163,-2.39045 -0.4212,-0.97122 -2.20354,-0.0353 -1.95133,-1.20915 -0.99671,0.3528 -1.48718,-1.17899 -2.54819,-0.52573 -1.27441,0.44136 -1.94378,-1.44279 -3.08935,-1.26171 -0.8559,-0.70157 -1.77221,0.17681 -2.37191,-0.56901 -0.11131,-0.0255 -0.22127,-0.0503 -0.33398,-0.0773 -0.78375,-0.52014 -1.73142,-0.76474 -2.68734,-0.8195 z m 50.87386,24.9375 c -0.40307,0.17692 -0.32832,2.4158 0.51335,1.49674 0.5741,-0.48292 0.24966,-1.12998 -0.31234,-1.43181 -0.0762,-0.0741 -0.14345,-0.0902 -0.20101,-0.0649 z m 45.83627,24.87255 c -0.74224,-0.0242 -1.43246,0.55783 -1.92041,1.15039 0.0111,0.10671 0.002,0.21912 0.006,0.32781 l 5.84782,3.01204 c 0.0819,-0.54984 0.0238,-1.12347 -0.21028,-1.67301 -0.74179,-1.12412 -1.66794,-2.19423 -2.97184,-2.56983 -0.2532,-0.16465 -0.50405,-0.23931 -0.75146,-0.2474 z m 4.25521,0.3278 c -1.16171,0.28171 0.3528,1.66741 0,0 z"
     id="rect4"
     inkscape:connector-curvature="0" />
  <path
     style="fill:#009543"
     d="m 489.92079,1101.0797 c -1.1201,0.084 -2.32119,-0.095 -3.20378,0.7236 -0.982,-0.09 -1.75229,0.6674 -2.62549,0.5814 -1.86869,-0.056 -3.72232,-0.3889 -5.60042,-0.3309 -0.951,0.2119 -1.16888,1.2602 -2.38428,0.9865 -1.11071,1.4113 -2.58611,2.5167 -3.80681,3.8192 -0.5285,1.0866 -2.18351,1.5857 -2.12451,2.8883 -0.6708,0.9578 -1.74534,1.7187 -1.78434,2.9904 -0.8719,1.3924 -0.33779,3.2238 0.56902,4.4686 0.14487,0.8934 0.11083,1.9351 -0.2876,2.8018 -0.008,0.9994 -0.54015,1.891 -1.61736,1.942 0.267,1.7492 -0.63192,3.4383 -0.35563,5.1768 -0.87331,0.6681 -0.50081,1.6791 -0.5288,2.6316 0.59159,1.6244 2.22287,2.6611 3.03987,4.1903 0.7176,0.7914 0.75351,1.8536 1.06071,2.7832 0.2013,0.9149 -0.47869,2.2921 0.64942,2.8636 0.86389,0.8236 0.43651,1.7208 -0.37111,2.3472 -0.28838,0.9404 -1.44379,1.1154 -1.84618,1.9297 -0.778,0.4265 -0.97565,1.6187 -2.02864,1.6297 -0.63451,1.5185 0.32156,3.097 0.21956,4.6665 -0.15295,1.1308 0.46803,1.9111 1.37614,2.4987 0.7767,0.7834 1.66337,1.2812 2.79556,1.1658 1.08791,1.0504 2.57409,1.5528 4.02019,1.8493 1.41919,-0.1448 2.64479,0.6899 4.0171,0.7639 1.30249,-0.1785 0.22518,1.6964 1.19367,2.2544 0.62911,1.3615 2.2256,1.034 3.44499,1.3359 0.6868,0.7002 2.19171,0.3218 2.16471,1.5184 1.07181,0.01 1.94951,0.6143 2.61622,1.407 0.96319,0.044 1.72517,0.793 2.67497,0.9123 1.1777,-0.079 2.10124,0.6431 2.97183,1.2803 0.98591,0.4761 2.20564,0.4476 3.10174,-0.266 0.95109,-0.7806 2.05336,-0.078 3.08625,-0.09 0.92421,-0.5769 1.52524,0.8538 2.31934,1.2308 0.6265,0.8182 1.46733,1.1997 2.48942,1.2617 0.6453,0.766 1.52326,1.0176 2.55746,0.9896 1.36019,0.6131 2.69083,1.3318 4.20264,1.5277 0.98319,1.0383 2.39338,1.5056 3.32438,2.5977 1.05439,0.027 1.44172,1.187 2.52962,1.0328 0.7888,0.7592 2.12234,-0.085 2.88834,0.433 0.9672,0.4472 2.19823,0.3147 3.26872,0.5226 1.0664,-0.1771 1.56984,-1.9349 2.80794,-1.472 1.22611,0.3245 1.84863,-0.7827 2.53272,-1.5648 1.0826,-1.5319 2.50032,-2.8135 3.47282,-4.4005 0.9927,-0.5782 1.19466,-1.3288 1.12566,-2.3967 0.0576,-1.0449 0.25482,-2.2455 -0.21339,-3.2099 0.11938,-0.8505 -1.01785,-1.5652 -0.43295,-2.2359 -0.43598,-0.9176 -1.24274,-1.6464 -1.32974,-2.7183 -0.0804,-1.7479 -1.9115,-2.5524 -2.6224,-4.0078 -0.2723,-1.3522 -1.43387,-2.2143 -2.55127,-2.913 -0.8116,-0.8828 -2.04106,-0.9658 -2.92236,-1.6916 -0.9269,-1.0745 -2.64201,-0.8604 -3.47901,-2.0905 -1.092,-0.7472 -2.36669,-1.34 -3.68928,-1.5493 -1.33081,-0.7351 -2.66568,-1.5452 -3.73877,-2.6626 -1.87131,-1.4555 -3.94619,-2.8629 -4.9201,-5.1273 -0.23739,-0.9269 -0.95223,-1.6737 -1.04524,-2.6193 0.70831,-0.6749 1.95335,0 2.56364,-0.9834 0.8277,-1.057 2.35743,-0.044 3.26563,-0.6371 0.9712,-0.4441 2.20001,-0.092 3.27181,-0.1824 1.0061,-0.5541 2.11667,-0.6144 3.25016,-0.6803 1.0289,-0.1904 1.9313,0.087 2.9038,0.1236 0.3233,-1.1148 -0.39327,-1.8269 -1.15656,-2.5203 -1.2556,-0.7271 -2.14306,-2.0763 -2.39666,-3.4728 -0.4507,-0.8799 -0.42161,-2.6941 -1.83691,-2.2823 -1.6634,-0.09 -3.1558,0.7267 -4.5428,1.537 -0.80631,0.3568 -1.4443,1.2426 -2.45851,1.1565 -1.70759,0.2779 -3.1558,-0.6738 -4.5026,-1.6142 -0.994,-0.2736 -1.12692,-1.7551 -1.75342,-1.9792 -1.43,0.5622 -1.05678,-1.0283 -0.82878,-1.8493 -0.45739,-0.8075 -0.43658,-1.8375 -1.31119,-2.4492 0.4789,-0.8733 0.7496,-1.773 0.94011,-2.6811 -0.2949,-0.8733 -0.21344,-1.8713 -0.31543,-2.8358 0.0348,-1.3562 -1.05856,-2.1411 -1.86476,-3.0708 -1.48629,0.1007 -0.40693,-1.2534 -1.20914,-2.0689 -0.19851,-0.9484 -0.92397,-1.5758 -1.52767,-2.3069 -0.61569,-0.5943 -1.44091,-2.0064 -2.37191,-1.3638 0.0404,-1.272 -1.55323,-1.105 -2.43993,-1.3143 -0.67471,-0.7773 -1.9289,-0.011 -2.21729,-0.7669 -0.15833,-0.1382 -0.31755,-0.2762 -0.47314,-0.4144 z m 36.33626,15.1715 c -0.86613,-0.1787 -0.1094,1.514 0.47624,0.2041 -0.19518,-0.1162 -0.35251,-0.1785 -0.47624,-0.2041 z m 56.98454,106.0432 c -0.49616,0 -0.97211,0.2053 -1.10091,0.6741 -0.3971,1.1522 -0.70978,2.383 -0.83187,3.5996 -0.79616,0.4417 -0.93464,1.2409 -0.92465,2.0812 -0.0845,1.3012 0.69531,2.8938 2.21111,2.6255 1.36019,-0.5151 1.60042,-2.2622 1.83382,-3.5594 -0.022,-1.6137 0.16732,-3.2661 0.0279,-4.8799 -0.20455,-0.3427 -0.71916,-0.5435 -1.21533,-0.5411 z m -55.70427,16.7487 c -0.20827,-0.01 -0.41626,0.047 -0.61848,0.1979 -0.5111,0.825 -1.37014,0.9624 -2.28223,1.1596 -1.20731,0.6225 -2.72706,0.5726 -3.82846,1.4566 -1.07449,-0.063 -1.33934,1.0539 -2.23275,1.3947 -0.77799,0.6049 -1.82816,0.8679 -2.63166,1.2462 -0.78611,0.7431 -0.67597,1.6605 -0.34326,2.5606 0.0847,0.9216 -1.02889,1.8796 0.1113,2.5544 -0.0711,1.0771 0.10181,2.115 0.34327,3.1573 -0.67881,1.0316 -0.77175,2.315 -1.28956,3.4512 -0.6305,0.9578 -0.91105,2.114 -1.53075,3.0275 -0.9699,1.7721 -2.22164,3.4556 -2.48324,5.52 -0.5808,1.0852 -0.20699,2.5049 0.40201,3.5378 0.81561,0.6908 -0.28283,1.609 0.75147,2.4059 0.84109,0.7256 1.03675,1.7722 1.37613,2.7461 0.0537,1.6472 1.43007,2.7727 1.61117,4.3851 0.4158,0.8371 0.72359,1.7137 1.32049,2.4863 0.40649,1.1711 1.64774,0.7586 2.31314,1.5648 0.35541,0.7861 0.90474,1.7527 1.12874,2.5575 0.4695,0.7995 1.18732,1.0734 1.71323,1.8152 0.7337,0.8746 0.52793,2.0727 1.00814,3.009 0.28709,0.8894 0.5067,2.2468 1.75959,1.8122 0.7109,0.7512 1.82924,0.4613 2.69043,0.9401 1.1469,0.7298 1.48609,2.4397 2.99659,2.712 0.74449,0.5849 1.01049,1.6902 1.14729,2.6132 0.6882,0.5258 1.42597,0.8203 1.77198,1.7874 0.3287,1.151 1.69339,0.4656 2.17089,1.2772 0.5339,0.8491 0.45674,1.715 1.74724,1.4225 0.78069,0.5313 1.53474,1.0864 2.52344,1.1504 0.77529,0.5339 1.82607,0.7794 2.50488,1.1751 0.9873,-0.5848 1.56574,0.433 2.48323,0.8381 1.041,0.094 1.8343,1.4528 2.8698,0.6989 1.0933,-0.4185 1.86648,0.3725 2.74919,0.8782 0.97379,-0.1583 2.15776,0.4408 2.96255,-0.2164 1.0919,-0.4844 0.52227,-1.3524 1.32977,-2.1493 0.14361,-1.0946 1.29854,-1.1277 1.90494,-1.84 1.1272,-0.6895 0.18716,-2.2491 1.07926,-3.0151 0.84909,-0.621 0.33519,-2.0387 0.49479,-3.0059 0.4266,-0.9551 -0.41521,-1.8397 -0.1577,-2.9007 0.2147,-1.0222 -0.49302,-1.8707 -0.23812,-2.842 0.6546,-0.7431 0.48807,-2.1314 1.48747,-2.5203 0.6532,-0.3904 2.11354,-1.1697 1.66684,-1.9854 -0.15565,-1.2931 1.23636,-1.0459 1.98225,-1.5771 0.9095,-0.3783 1.63028,0.1587 2.13997,-1.1102 0.0926,-0.7553 -0.18796,-1.6999 0.23194,-2.5544 0.4883,-1.3642 -1.21041,-1.3449 -1.55241,-0.269 0.7391,0.8451 -0.88401,1.8916 -1.10401,0.5783 0.75791,-0.9189 0.73665,-1.6499 -0.42365,-2.1678 0.0564,-1.2314 -1.55077,-0.3799 -2.26987,-0.8628 -0.95369,0.093 -2.10838,0.6604 -3.11719,0.1762 -0.95239,-0.7003 0.71594,-1.3312 -0.29687,-2.2729 -1.15089,0.3434 -1.02283,-1.6848 -2.15234,-1.7318 -0.6975,-0.5581 -1.46395,-1.2008 -2.35335,-0.9741 -1.0584,-0.4399 -0.25083,-1.7108 -1.17514,-2.3131 -0.8692,-0.4116 -1.89832,0.217 -2.85742,0.019 -1.14019,0.3408 -1.69648,-1.0285 -2.75228,-0.9525 -0.3876,0.9591 -1.46484,0.7313 -2.31933,0.4577 -0.7955,-0.2495 -1.89044,-0.3836 -2.36263,-1.2555 -0.97649,-0.1637 -1.47941,-1.15 -2.0039,-1.9576 -0.6197,-0.9376 -0.66256,-2.0428 -1.36686,-2.9161 -1.39101,-1.2154 -1.31037,-3.1795 -1.48748,-4.8737 -0.14092,-0.9001 0.52293,-1.7002 -0.0526,-2.6379 -0.6361,-0.774 -0.20209,-1.4242 -0.73599,-2.1647 -0.52311,-0.8773 -0.0554,-1.9119 0.13917,-2.8079 -0.48401,-0.966 -10e-4,-1.733 0.0217,-2.7029 -0.12603,-1.0007 -0.10291,-1.8361 0.33708,-2.7522 -0.0899,-1.1389 0.81135,-1.941 1.86165,-2.1771 0.7553,-0.5058 0.30267,-1.7566 0.62467,-2.5265 0.14219,-1.2664 -1.00743,-1.5564 -1.91422,-1.4844 -0.8599,-0.3085 -1.81475,0.1447 -2.52035,-0.6402 -0.37559,-0.1046 -0.82734,-0.103 -1.17203,-0.2721 -0.71101,-0.7753 -1.2996,1.1125 -2.2977,0.3773 -0.57142,-0.1327 -1.20898,-0.6976 -1.83382,-0.7175 z m 175.34181,39.073 c -0.49557,0.071 -1.20628,1.0941 -1.8431,0.8999 -1.6218,0.3622 -3.19589,-0.3364 -4.80567,0.053 0.67881,0.7432 1.1268,1.9172 0,2.3008 10e-4,0.7553 1.42489,1.2378 1.56169,2.1245 0.14345,1.1858 0.73606,1.7205 1.94206,1.4133 1.2784,0.7337 0.7141,-1.0386 1.51221,-1.5308 0.6868,-0.8371 1.85824,-0.8642 2.43375,-1.8462 0.006,-0.5875 -1.3945,-1.7141 -0.5319,-2.4183 l 0,0 c 0.0511,-0.2226 0.10624,-0.4425 0.14218,-0.6679 -0.10671,-0.268 -0.24609,-0.3485 -0.41128,-0.3247 z m -77.00506,123.5774 c -0.54949,-0.019 -1.09568,0.013 -1.62353,0.1268 -0.9162,-0.3495 -1.68555,0.2383 -2.59765,0.068 -0.95781,-0.4628 -1.90939,0.1277 -2.86979,0.3061 -0.90021,0.1167 -1.72547,0.8159 -2.51416,0.8319 -0.5836,-1.1898 -1.53993,-0.1137 -2.31935,0.235 -1.1241,-0.011 -1.10367,1.1983 -1.68846,1.8153 -0.97391,0.4521 -1.53511,1.3477 -1.39161,2.4276 -0.36751,0.7619 -1.15699,1.3671 -0.86589,2.3719 0.16501,1.1013 -0.47736,2.6012 0.72054,3.2532 0.0228,0.998 0.3351,1.9758 1.31429,2.409 0.10735,0.986 0.66684,1.7151 1.49985,2.1926 1.08789,0.7378 0.37569,2.7096 1.72249,3.1388 1.1764,-0.1636 2.07573,0.04 1.86783,1.4256 0.15025,1.5923 1.20825,0.5403 1.57715,-0.337 1.045,0.044 2.18227,-0.063 2.96567,0.7762 1.22339,-0.4976 2.52535,-0.02 3.62126,0.5659 0.61979,0.7096 1.37935,1.7006 2.39354,0.9803 0.5902,-0.6319 1.85305,-0.6914 2.27295,0.1577 0.21679,0.4284 0.52703,0.5694 0.87517,0.5628 0.58023,-0.011 1.26281,-0.4312 1.77506,-0.6123 0.5795,-0.7431 2.06647,-0.016 2.05648,-1.4349 -0.008,-1.1107 0.91813,-1.7643 1.86783,-2.0688 1.2328,-0.3206 0.71611,-1.6871 0.9401,-2.5791 0.42521,-0.7687 1.97054,-0.6608 1.29574,-1.9205 -0.558,-0.9658 0.70186,-1.8338 0.30615,-2.644 1.54491,-0.6238 -0.58197,-0.9504 -0.0896,-2.041 0.0336,-0.8692 -0.24067,-1.7789 -0.87516,-2.3812 0.13284,-1.3173 -0.59373,-2.4287 -1.58644,-3.2161 -0.77798,-0.3918 -1.76361,-1.4917 -2.61001,-0.5165 -0.8411,-0.2844 -1.95995,0.2752 -2.60384,-0.4948 -0.64931,-0.5473 -1.49604,-1.1759 -1.54004,-2.0626 -0.5165,-0.9967 -1.06038,-1.3626 -2.26368,-1.1721 -0.53254,-0.08 -1.0833,-0.1453 -1.63281,-0.1639 z m -15.95085,15.9693 c -0.75249,0.6251 0.95241,0.8439 0,0 z m 5.54786,6.5189 c -0.45449,-0.087 -1.44919,0.5706 -0.68034,0.7701 0.0711,-0.2844 0.26826,-0.5707 0.62778,-0.5567 0.37958,0.1343 1.01479,-0.2238 0.20719,-0.1268 -0.0363,-0.046 -0.0896,-0.074 -0.15469,-0.087 z"
     id="rect6"
     inkscape:connector-curvature="0" />
  <path
     style="fill:#000000"
     d="m 187.71439,222.48425 c -0.6988,0.46278 -1.48369,0.71567 -2.32243,0.83497 -1.2059,0.0777 -1.69381,1.6768 -2.94401,1.39778 -0.7941,0.53121 -1.45123,-0.69961 -2.11523,0.50099 -0.7217,0.57278 -1.62268,-0.27421 -2.46777,-0.3278 -0.81431,-0.90146 -1.8082,-0.74773 -1.438,0.52261 -0.35009,0.81695 -1.49158,0.35509 -2.17708,0.98958 -1.1778,0.12208 -0.86203,1.8023 -1.99154,1.59572 -0.9256,-0.44805 -1.97329,-0.36599 -2.54199,0.569 -0.003,1.06913 -0.85872,1.85163 -1.01432,2.86979 0.0188,1.0168 0.0883,2.04453 -0.79166,2.7461 0.2885,1.1362 0.3938,2.28297 0.3618,3.47282 0.92162,0.7445 0.67547,2.17375 -0.34944,2.70898 -0.0831,0.73511 0.6429,1.53268 0.6989,2.47706 0.25349,0.92156 1.33078,1.37679 0.95247,2.24201 1.03819,0.79014 0.5751,1.43892 -0.12366,2.24512 0.14488,1.0745 -1.03065,1.83279 -0.59064,2.72755 -0.32061,0.96716 -0.81867,2.02136 -1.73488,2.59147 -0.5754,0.52451 -1.72377,1.45262 -1.03287,2.25749 0.87729,0.279 1.56579,0.7489 2.50488,0.92463 1.1308,-0.23207 1.94703,0.35013 1.42253,1.50913 0.9054,0.74719 2.16032,-0.0616 3.22543,0.10196 0.87599,-0.38768 1.86709,-0.36592 2.74299,-0.57519 0.80491,0.27097 2.01185,0.31418 2.68116,-0.28142 1.82439,-0.11939 3.2937,1.38507 5.118,1.2308 0.96589,0.42389 1.86554,-0.14377 2.64095,-0.27523 0.86249,0.46414 1.74987,0.48814 2.67807,0.63704 1.4877,0.13142 2.97907,0.25917 4.43456,-0.17008 0.8129,-0.40646 1.90246,-0.3436 2.51416,-1.12566 0.54871,-0.50437 1.17696,-1.87522 1.97917,-1.40706 0.67879,-0.88668 0.91304,-2.00211 1.21223,-3.03368 0.3917,-0.88266 0.65397,-1.83871 0.79477,-2.79248 -0.21731,-1.25022 0.67922,-2.17439 0.64323,-3.39242 0.47359,-0.81426 1.43534,-1.41138 1.98534,-2.22966 1.00341,-1.10132 0.22992,-2.70826 0.73291,-3.90886 0.52051,-0.77401 1.14727,-1.54642 1.24626,-2.44921 0.4803,-1.14157 -0.53289,-1.67509 -0.78239,-2.56983 0.25221,-0.93095 0.41311,-2.28076 -0.98339,-2.10905 -0.30711,-0.56474 0.8604,-1.21994 1.39159,-1.7565 0.0458,-0.0553 0.0581,-0.11447 0.0743,-0.17318 l -16.63428,-8.57537 z m 96.9266,49.96779 c -0.33726,0.21788 -0.64923,0.49341 -0.8999,0.79784 0.12983,1.25292 -0.26771,2.65626 0.2072,3.80991 0.27899,1.35484 1.60201,2.4194 3.02131,2.14306 0.5191,-0.0469 1.10235,-0.31463 1.49674,-0.60303 1.07582,-0.91085 1.47787,-2.36984 0.91846,-3.6831 -0.006,-0.01 -0.0127,-0.0185 -0.0185,-0.0279 l -4.72525,-2.43685 z m 6.66114,90.6984 c -0.97038,0.0372 -1.91275,0.34808 -2.35645,1.29882 -0.5687,1.96255 -0.69657,4.08103 -0.29687,6.07977 0.34879,2.05508 1.02426,4.01685 1.73794,5.94986 0.25392,0.61195 0.12129,1.18679 -0.0247,1.7627 l 10.61328,5.47363 c 0.0374,-0.16678 0.0598,-0.33736 0.0434,-0.51953 0.20529,-1.47424 -1.37323,-2.08034 -2.16472,-3.03678 -0.7096,-0.54731 -0.91225,-1.55523 -0.87826,-2.42448 0.50841,-1.49973 1.37318,-3.11904 0.66488,-4.73144 -0.47619,-0.89207 -0.55184,-1.89339 -1.12875,-2.70899 -1.64719,-1.34011 -2.21622,-3.45126 -2.48323,-5.46744 -0.9282,-0.51378 -1.64686,-1.61711 -2.76156,-1.63592 -0.31222,-0.0356 -0.64137,-0.0526 -0.96483,-0.0402 z m 6.19726,1.24934 c -0.9659,0.50843 1.1469,0.68013 0,0 z"
     id="path8"
     inkscape:connector-curvature="0" />
  <path
     style="fill:#fdce12"
     d="m 16.080429,309.92632 c -1.42462,0.47353 -2.470982,1.70128 -3.160476,2.9904 -0.866574,0.38364 -1.443351,-0.98631 -2.248223,0.13917 -0.595586,0.46012 -2.0451753,0.95045 -1.4039569,1.81837 -0.6781417,0.51616 -1.3835009,-0.11955 -1.9389659,0.24739 l 15.2488618,7.86409 c -0.0013,-0.24336 -0.02343,-0.4834 0.0063,-0.72981 0.375598,-1.0611 -0.608333,-1.80278 -1.453453,-1.92351 0.858531,-0.9779 0.261361,-1.89019 -0.791667,-2.31005 -0.225371,-0.64927 0.266649,-2.21653 -1.005036,-2.24204 -0.551333,-0.48291 -2.183338,-0.84844 -1.515298,-1.56477 0.175718,-1.27973 -0.04307,-1.74487 -1.196778,-2.23584 0.567419,-0.75255 0.68354,-1.87899 -0.541184,-2.05338 z M 290.4517,376.70464 c 0.27854,1.0363 -0.44561,1.97638 -0.25048,3.02441 0.17969,1.47022 -0.51984,3.36586 0.79475,4.43767 0.9317,0.6184 1.1856,1.48027 0.94011,2.55745 -0.063,1.83777 -1.1071,3.77405 -0.4082,5.54477 -0.0603,1.24754 0.78237,2.07481 1.48127,2.97492 0.81401,3.07325 -0.14788,6.37069 0.72673,9.44125 0.74179,0.81291 0.66655,2.02095 1.36686,2.88217 0.81151,1.00876 1.90412,1.87644 2.08122,3.21923 0.8223,1.93704 0.7621,4.12247 1.0236,6.20037 -0.0496,2.2563 1.56543,4.37413 0.85043,6.61165 -0.66001,1.58156 0.71584,2.90539 0.79784,4.46549 -0.1771,1.49035 0.36656,3.15085 -0.39273,4.50569 -0.6694,0.6828 -0.43798,1.74419 -1.15968,2.40284 -0.15026,1.10132 0.16658,2.36072 0.25359,3.51302 0.2254,0.95511 0.14883,1.98737 1.03287,2.62859 1.2046,0.84106 0.61663,2.3176 0.44222,3.49136 -0.0174,0.81964 -0.80221,2.06139 -0.40511,2.4987 1.14151,0.13949 1.39843,1.18674 1.41944,2.1338 0.6372,0.4534 1.94307,0.66332 2.18326,1.56478 0.2039,1.12278 -1.27308,1.33961 -0.99267,2.46776 -0.13822,1.04499 0.20376,1.97113 0.34327,2.97184 0.0831,1.38437 -1.63343,1.32042 -2.61003,1.58333 0.5285,0.87464 1.39042,1.40594 2.40592,1.49985 1.20189,0.47079 2.45558,0.44571 3.73258,0.4082 0.6036,-0.17574 1.8842,0.0917 2.2544,-0.36181 -0.0309,-0.83036 -0.26342,-1.76398 0.70507,-2.31935 1.03031,-0.52182 0.2684,-1.99899 1.35759,-2.37189 1.646,-0.98061 1.78435,-3.05503 1.78435,-4.77475 0.29779,-1.15633 -0.56772,-1.8579 -1.67301,-1.76269 -1.2154,-0.5862 0.27236,-1.38366 0.95247,-1.78745 -0.10466,-1.00339 0.42675,-1.92067 0.42675,-2.85432 -0.47349,-0.95377 -2.23934,-0.0557 -2.15235,-1.30193 0.40101,-0.85716 1.59336,-1.29587 1.86167,-2.05646 -0.37121,-1.28511 -0.10672,-2.58128 -0.0587,-3.87176 0.35419,-1.30655 -1.12965,-1.99212 -1.09165,-3.2316 0.34301,-1.57486 0.36396,-3.23416 0.26595,-4.86134 -0.22779,-0.98863 0.65219,-1.99696 -0.2412,-2.83268 -0.11416,-1.42327 0.057,-2.81359 0.133,-4.21809 -0.33,-1.84716 -1.75449,-3.26678 -2.94711,-4.64176 -1.1657,-0.88401 -0.99305,-2.51404 -1.32974,-3.73878 -0.33271,-1.40984 -0.0793,-2.95869 -0.17628,-4.4222 0.23611,-1.0973 -0.40085,-1.94767 -1.12255,-2.69352 -0.94439,-1.86327 -1.24843,-4.00262 -1.58642,-6.05501 0.0576,-1.12414 -0.44009,-2.0797 -0.5381,-3.16358 0.9592,-0.54999 1.22818,-1.5954 1.52458,-2.57601 0.44671,-1.049 0.12002,-1.96097 -0.68343,-2.70279 -0.558,-0.78206 -0.55048,-1.75182 -1.36067,-2.39975 -0.5769,-1.14692 -1.95828,-1.20199 -2.63167,-2.23893 0.0309,-1.25558 1.34838,-2.07089 1.23698,-3.29964 0.066,-0.47362 -0.0648,-0.85283 -0.28143,-1.1875 l -10.28547,-5.30355 z m 13.75521,19.32161 c -1.0611,0.36221 0.507,0.74719 0,0 z m 0.0494,3.30274 c -0.72768,1.3e-4 -10e-4,1.03244 0.4082,0.0711 -0.16834,-0.051 -0.30425,-0.0711 -0.4082,-0.0711 z m 0.14836,3.38933 c -0.43873,0.10023 1.00912,1.03311 0.31543,0.0158 -0.15137,-0.0279 -0.25276,-0.0298 -0.31543,-0.0158 z m -26.81771,33.29329 c -0.26421,0.0467 -0.44964,0.39602 -0.43912,1.06071 -0.72302,1.77879 -0.50472,-1.08117 -1.55241,-0.0402 -0.23071,1.24352 -0.7978,1.28804 -1.3947,0.45768 -1.0906,0.28977 -1.73551,-0.75649 -2.82341,-0.48551 -1.08799,-0.17305 -1.97293,0.24145 -2.93473,0.40511 -0.75249,0.98193 -2.09169,0.21877 -2.99039,0.80094 -1.11481,1.19791 -2.76656,0.23799 -4.15625,0.47006 -1.02091,0.76995 -2.60984,-0.15893 -3.55014,0.71436 -0.9632,0.30852 -1.57727,1.31608 -2.63167,1.27718 -0.98765,-0.0453 -1.81824,0.34768 -2.59765,0.85661 l 17.24348,8.89078 c 0.12398,-0.0717 0.25715,-0.13379 0.40511,-0.17627 0.7579,-0.5406 1.48686,-1.3088 1.97917,-2.1338 0.77541,-0.90144 0.94967,-2.08588 1.73177,-2.94709 0.5245,-0.88 1.35155,-2.06393 2.51725,-1.73796 0.2549,0.69621 -0.45671,2.57514 0.74529,2.1338 0.8424,-0.62512 1.57323,-1.56966 2.19564,-2.45232 1.02489,-1.56949 -0.54164,-3.6717 0.71125,-5.13655 0.7137,-1.68619 -1.11652,-0.12604 -1.54313,-1.21534 -0.30855,-0.53523 -0.65115,-0.78897 -0.91536,-0.74218 z m 33.4108,20.43799 c -0.0524,-0.01 -0.1197,-0.006 -0.201,0.0158 -1.5454,-0.10593 -0.74629,1.52795 0.44222,1.06379 -0.13965,-0.29578 0.1262,-1.01686 -0.24122,-1.07926 z m 77.09474,457.77818 c -0.42492,-0.005 -0.84324,-0.003 -1.2679,0.006 l -41.88413,21.59147 c 0.0477,0.2231 0.19068,0.43859 0.14535,0.67416 -0.43329,0.0562 -1.35527,1.01319 -0.29687,1.80598 1.7438,-0.005 2.7511,-1.57396 3.80681,-2.71827 0.4199,-0.87189 2.17523,-0.6884 1.70702,0.49479 -0.63048,1.58011 -1.92209,3.31685 -0.8597,5.01906 1.33609,1.45549 3.60797,1.4404 5.37467,0.9803 0.96851,-0.086 2.06956,-0.3526 2.96566,-0.24122 1.88471,0.22531 3.95496,-0.63134 5.30046,-1.99153 0.998,0.216 0.81148,-1.3024 1.11328,-2.0039 0.723,-0.70431 -0.19301,1.88659 0.94319,1.92659 1.09581,-0.8969 1.32071,-0.82562 1.1906,0.0866 0.81689,-0.0684 0.3538,-1.51151 1.71939,-0.40202 1.01951,1.28901 2.82652,1.04834 4.29543,1.04834 0.88399,-0.60089 0.70373,-1.78934 1.25243,-2.48013 1.0839,0.31109 2.3057,0.24834 3.4017,0.0217 1.35349,-0.71241 2.87972,-0.89034 4.37272,-1.17205 1.29179,-1.37488 3.03633,-2.77169 2.85124,-4.83349 0.26289,-1.0544 -0.75117,-2.48605 0.47623,-3.13265 0.54011,-1.1093 0.7848,-2.71901 -0.0804,-3.75732 0.89469,-1.07461 1.81816,-2.1267 2.67806,-3.2347 0.2911,-0.8826 0.99332,-1.44783 1.38232,-2.28223 0.3072,-0.94699 1.03364,-1.58699 1.41325,-2.46159 0.6707,-0.54999 1.04456,-2.01054 0.21956,-2.52034 -0.67809,-0.33266 -1.43999,-0.41376 -2.22037,-0.42367 z"
     id="path12"
     inkscape:connector-curvature="0" />
  <path
     style="fill:#000000"
     d="m 7.3288072,315.12164 c -0.084075,0.0556 -0.16473,0.13205 -0.2412209,0.2412 0.2347609,0.97925 -1.2474925,1.1762 -0.8504242,2.33789 -1.3535125,1.28511 0.9965817,0.95921 0.5968534,1.72249 -0.2535392,0.9873 -0.7738384,2.11924 -0.3834675,3.03679 -0.8317092,1.12412 -2.905306,1.73417 -2.560551,3.41097 -1.2300759,0.89207 -0.9541325,2.41284 -1.1472992,3.71403 -0.3514525,1.09462 -0.5396475,2.34449 -0.2257517,3.45117 0.8598767,0.86523 -1.65524839,1.23958 -0.4855133,2.12761 0.060325,0.8223 0.1988983,1.77868 0.1236583,2.76464 -0.3165875,1.53327 -0.5352775,3.10607 -0.5442708,4.69435 -0.3246309,2.40654 -0.056842,4.98807 -1.05761927,7.23632 -0.57414836,1.03023 -0.78856337,2.38844 0.2041075,3.25635 1.36421597,0.98462 1.45962757,2.70379 1.45962757,4.23975 -0.1341083,1.45947 1.0186534,2.57702 1.3204842,3.8903 -0.020108,1.04095 0.4477034,1.89015 1.1318301,2.64404 0.2629125,1.49839 1.1612325,2.81707 1.0297842,4.37581 0.35682,0.97389 1.2917151,1.83656 1.4781842,2.89763 0.4829167,0.84779 0.8728601,1.80845 0.9184601,2.81722 0.389025,0.88266 1.5013642,1.20807 1.9266001,2.14306 0.297793,0.81961 1.673076,1.33608 1.521488,2.09668 0.09927,1.10669 1.355508,1.97315 1.301912,3.20996 0.666694,0.81426 0.78945,1.85462 0.937016,2.88217 0.452074,1.00472 1.958568,0.75919 0.03087,1.1442 -0.442668,1.56278 0.236424,3.07846 0.19483,4.64795 0.195842,0.90815 -0.202936,2.30863 0.361807,2.90691 2.010818,0.40242 -0.394377,0.18628 -0.516436,0.97102 0.461447,0.66135 0.757895,1.522 1.032872,2.32552 0.658651,1.49705 1.258877,3.10524 1.128743,4.79948 0.3233,0.7901 0.71603,1.61239 1.202969,2.31933 0.600906,0.85182 -0.114475,2.05943 0.664873,2.80795 0.147567,0.95511 0.488949,2.09092 0.05573,2.97494 -0.02692,0.97924 -0.354777,2.07914 0.01583,2.98729 0.0228,1.64596 1.156752,2.96874 1.694673,4.47787 0.582192,1.04097 0.701749,2.22794 1.236979,3.29036 0.01884,1.15365 0.380396,2.18682 0.745275,3.25326 0.645225,0.86927 0.938711,1.86257 1.496741,2.78011 0.626462,0.70292 0.76779,1.57971 1.138021,2.39665 0.945709,2.12081 0.774979,4.45721 0.473148,6.69207 -0.576824,1.04362 0.703301,1.80257 -0.17936,2.60073 -0.190491,0.96181 -0.228792,2.0974 -1.079264,2.81104 -1.082556,0.83706 -0.804285,2.21307 -0.825692,3.41097 0.07347,2.31533 0.306692,4.65195 0.07727,6.96729 -0.752543,0.69084 -0.937999,1.69673 -1.481272,2.48015 0.05098,1.75058 -1.051571,3.14386 -1.923513,4.56444 -0.512414,0.74048 -1.016246,1.53969 -1.150387,2.37809 0.04433,0.95108 0.488839,1.81748 1.168944,2.48015 0.969855,0.61706 1.37446,1.69659 2.102872,2.52963 1.184492,0.79279 0.892193,2.26581 1.054516,3.48519 0.634505,1.878 2.297591,3.24144 3.593423,4.7036 1.488998,1.24754 2.451174,2.90651 3.355305,4.59538 0.984628,0.88804 1.046029,2.28008 1.679204,3.38005 0.03214,0.9484 0.268027,1.77933 0.646317,2.63786 0.949747,1.47559 0.961052,3.33883 2.344078,4.52734 1.145589,1.53058 2.906161,2.27105 4.440759,3.31202 0.692186,0.83034 1.295183,1.70495 2.223475,2.31933 0.563398,0.72035 2.017214,0.4071 1.901853,1.67611 -0.03689,0.22954 -0.01267,0.39904 0.03404,0.54427 7.473223,-1.02596 14.058275,-1.49056 19.309242,-1.49056 10.73242,0 27.590424,1.93523 46.93409,7.31055 0.67057,-0.56178 0.70419,-1.43021 0.99577,-2.18327 0.8478,-0.95376 2.37641,-1.52292 2.92236,-2.83887 0.71901,-0.61035 0.95516,-1.85675 1.87404,-2.11833 0.52986,-0.62377 0.53947,-0.37916 1.19677,-0.95866 -0.37694,-1.38437 1.00332,-2.22534 1.1844,-3.50374 0.95774,-0.65194 0.11083,-2.07952 1.03906,-2.62549 0.71901,-0.61572 1.58267,-0.79519 2.33789,-1.27409 -0.16767,-1.24486 1.00977,-0.34998 1.83073,-0.8195 1.99204,-0.0804 3.98788,-0.0969 5.94369,0.35254 1.32132,0.27232 2.6303,0.62704 3.95833,0.9463 0.78743,0.56471 1.73375,0.74551 2.70899,0.61539 0.98328,0.12081 1.9827,-0.0559 2.4616,-1.02978 0.30319,-1.29985 0.17936,-2.77253 0.21956,-4.1408 0.10592,-0.67608 0.0274,-2.85671 -0.92774,-1.73794 -0.24146,0.89205 -0.11115,2.35614 -1.29574,2.63785 -1.29181,-1.00743 -2.1324,-2.46462 -2.98422,-3.83154 -0.45206,-1.14694 0.39843,-1.84356 0.58758,-2.79867 0.19451,-1.0168 -0.9181,-1.8171 -1.86785,-1.44418 -0.86119,0.82767 -1.81511,0.008 -1.3483,-1.08544 0.58487,-1.1979 -0.39738,-1.55686 -0.78239,-2.54818 -0.5151,-0.79012 -0.77322,-1.50459 -1.28028,-2.39665 -0.78978,-1.66607 -0.18668,-3.63655 -0.79167,-5.30663 -0.1878,-1.08121 -1.70442,-1.33776 -1.62662,-2.47396 -1.04096,0.14614 -1.0772,-1.3016 -1.10401,-2.02865 0.0187,-0.99803 -0.29113,-2.01148 0.0402,-3.0739 0.10465,-0.98326 1.069,-1.54151 -0.17319,-2.30078 -0.90011,-0.72571 -1.53365,-1.71168 -1.32975,-2.90689 0.0845,-0.86121 -0.87365,-2.23909 0.6556,-1.89568 0.86792,0.20792 0.83139,1.59454 1.6792,2.02247 0.67607,0.82633 1.58897,1.1096 2.62857,0.97411 -0.005,-1.82705 0.28782,-3.67343 -0.136,-5.47363 -0.0417,-1.01279 -0.62314,-1.78082 -1.30192,-2.40592 -0.15421,-1.52119 -0.80045,-2.87662 -1.87093,-3.96452 -1.764,-0.96584 -2.98336,-2.92548 -5.11491,-3.10791 -1.33205,-0.005 -2.19256,-1.05713 -2.78011,-2.12761 -1.02082,-0.67474 -0.36483,-1.90636 0.77002,-1.64209 1.14563,-0.6386 1.84777,1.31458 2.52653,-0.0711 0.44937,-0.82633 1.29697,-1.98444 0.60612,-2.86979 -0.83707,-0.57548 -0.17156,-1.62512 -0.34326,-2.48633 0.7163,-1.03292 0.86466,-2.26006 0.74528,-3.4821 -0.44938,-1.01144 -1.21625,-1.95329 -1.72868,-2.96875 -0.81559,-0.8773 0.19152,-1.96241 0.50407,-2.62239 -0.60633,-0.48561 -1.55854,-1.04809 -1.41634,-2.09977 0.114,-1.05707 -1.04166,-1.67483 -1.11947,-2.62859 0.10735,-1.05304 0.72324,-2.00847 1.01433,-2.99039 0.12604,-1.26095 -0.4945,-2.61803 -1.8802,-2.76156 -1.14692,0.0294 -1.34079,-1.2482 -2.55747,-0.86589 -0.41048,1.37364 -1.80478,2.12279 -2.56672,3.29655 -0.67341,0.42658 -1.3827,1.82332 -2.23585,1.11637 -1.17644,-1.06241 -0.87243,-2.95861 -1.32048,-4.39128 -0.75791,-1.39776 -1.17919,-2.96765 -2.35025,-4.12531 -0.77267,-1.1295 -2.12072,-2.0769 -1.99464,-3.57797 0.0657,-1.06778 0.11812,-1.71565 -0.40511,-2.65332 0.2656,-1.07585 1.41175,-1.62043 1.97917,-2.54199 -1.11204,0.60632 -1.57113,0.0244 -1.62354,-1.12255 0.35682,-1.09999 -0.82449,-1.61024 -0.48241,-2.71827 0.69754,-1.34404 -0.84597,-1.2794 -1.76888,-1.31429 1.10669,-0.0143 1.50823,-1.01313 2.05957,-1.77506 0.27768,-1.0745 0.40055,-2.43909 -0.17628,-3.46665 -0.5795,-0.75254 0.192,-2.38815 -0.8597,-2.6162 -0.6184,-0.76462 -1.61283,-0.75709 -2.393558,-1.20915 -0.3917,-0.96315 1.237098,-1.46879 0.417494,-2.58219 -0.173059,-0.89474 -1.430827,-1.58273 -0.887538,-2.48015 0.591581,-0.97389 1.790722,-1.07527 2.511072,-1.84929 0.6251,-0.57011 1.74232,-0.85368 2.52034,-0.94627 0.83304,0.63315 2.39355,-0.26217 1.87712,-1.35141 -0.91889,-1.18986 -2.62417,-0.43941 -3.91194,-0.67415 -2.155699,0.60097 -4.753411,0.42815 -6.457046,-1.12256 -0.884007,-0.32865 -1.435862,-1.3911 -2.495603,-1.17513 -0.837045,0.3917 -2.296815,-0.0557 -2.149248,1.28027 -0.643894,0.74584 -1.937319,0.70724 -2.848148,1.11638 -2.143627,0.38633 -2.948325,2.65271 -3.250156,4.5428 0.95608,0.48561 -0.101016,1.88779 0.949383,2.32243 -0.496344,1.32131 0.99237,2.30385 0.686517,3.63054 -0.403765,1.18584 0.116692,2.5827 -0.476235,3.79134 -0.810239,1.04229 -1.154456,2.31254 -1.626637,3.50374 -0.261535,0.90546 -0.856979,2.1137 -0.08962,2.9038 0.902801,1.1362 0.805679,2.55273 0.785492,3.93978 -0.131417,1.21133 0.07521,2.35263 0.476235,3.4821 0.748521,1.16304 -0.545459,2.07371 -1.292649,2.77394 -0.347431,1.07984 -0.407772,2.36679 -0.921548,3.41715 -0.04956,1.08656 -1.087813,1.55948 -1.883296,2.00081 -1.008757,0.39573 -1.210126,1.28717 -1.753415,2.00081 -0.964503,0.47756 -1.253826,1.26975 -1.617359,2.18327 -0.363533,0.78608 -0.714179,1.92047 -0.287597,2.76156 -0.951077,0.18243 -1.924431,0.27705 -2.841957,0.60303 -1.188513,0.72035 -2.593769,1.51724 -4.057291,1.02359 -1.177795,-0.35011 -0.470583,2.04837 -1.861652,1.50912 -0.60097,0.43597 -0.809084,2.20666 -1.125655,0.81022 0.101966,-1.08255 1.624816,-0.64501 1.886399,-1.82145 0.154217,-1.17779 -1.543893,-0.82382 -2.217284,-0.53809 -1.616441,0.14756 -3.257044,0.39868 -4.892263,0.37727 -0.720353,0.27269 -2.180424,-1.20811 -2.121413,-0.006 -0.350123,0.62912 -0.38304,1.58001 -0.896816,2.40901 -1.279729,0.48292 0.742456,-1.04653 0.389658,-1.60189 0.485593,-1.31591 -0.699802,-1.42077 -1.728683,-1.3081 -0.976569,-0.17439 -2.21179,-0.96837 -3.14811,-0.34327 -0.875964,0.67745 0.221112,1.63408 0.281405,2.41212 -0.527186,1.6446 0.1482,-1.39996 -1.119464,-0.88753 -0.179756,-1.01279 -0.204788,-2.0411 -0.290684,-3.06462 -0.03626,-0.87998 -1.128078,-1.3503 -1.073088,-2.32552 -0.22401,-0.72437 0.08772,-2.65868 -0.887522,-2.35955 0.06967,1.14157 -0.311648,2.11843 -1.583333,1.33905 -0.67743,-0.35146 2.250771,0.0811 1.153474,-0.89682 0.209506,-0.1368 0.337408,-0.2866 0.429859,-0.44223 0.379889,-0.63946 -0.06492,-1.41565 -0.111308,-2.17089 0.07378,-0.98326 0.748964,-1.81374 0.479338,-2.89762 -0.220004,-1.01011 0.06112,-2.50724 -1.271005,-2.71517 -0.02138,0.95377 -2.384611,1.43903 -0.847321,0.43295 1.243518,-0.26293 1.151891,-1.40136 0.989583,-2.42758 0.541928,-0.98595 -0.03309,-2.10034 -0.1083,-3.15739 0.470852,-0.99133 0.460497,-2.16325 0.451488,-3.27799 0.548672,-1.39644 -0.815433,-1.76599 -1.447262,-0.57211 -0.956444,1.42595 -0.929163,-0.13822 0.256674,-0.36491 0.08043,-0.15564 0.161231,-0.31011 0.23503,-0.45768 0.822305,-1.15632 -0.920581,-1.8217 -1.258623,-2.68424 0.147567,-1.15096 -1.516216,-1.28943 -1.552411,-2.40283 -1.161707,-1.12412 -0.286156,-2.68255 -0.185551,-4.03874 -0.03087,-1.09597 0.440325,-2.09255 0.265953,-3.20995 -0.630484,-1.31061 -0.939059,-2.74346 -1.06381,-4.21501 -0.35682,-1.48902 -1.141394,-3.01283 -0.565915,-4.56756 0.28975,-0.87461 0.842555,-1.9214 -0.231927,-2.46468 0.112733,-1.02486 -0.606955,-2.10836 -0.09595,-2.97494 -1.031558,-1.11338 -1.008805,-2.70246 -1.063794,-4.12841 -0.635851,-1.17377 -1.205582,-2.36306 -1.577159,-3.65218 -0.626461,-0.79548 -0.517528,-1.89202 -1.162752,-2.63785 0.527171,-1.65938 -1.818854,-2.78386 -1.042166,-4.45932 0.394392,-0.81024 1.696684,-1.77599 0.534992,-2.58219 -0.631813,-0.62781 -0.551364,-2.13576 -1.762693,-1.41944 -0.576808,0.81023 -1.851091,0.22747 -2.399732,-0.24738 -0.118116,-0.95379 -0.871878,-1.65028 -1.771971,-1.81528 -1.880716,0.24011 -2.865549,-1.63826 -3.587248,-3.06152 -0.308528,-1.33339 -1.325171,-2.28356 -2.368809,-3.09245 -0.481587,-0.73644 -0.33296,-1.93986 -0.933914,-2.67497 -0.215982,-0.80218 -0.183888,-1.61883 -1.206056,-2.19564 -1.117422,-0.5567 0.101175,-1.70466 -0.188639,-2.60075 -0.831709,-0.59291 -0.741997,-1.67442 -1.348319,-2.40283 -0.858531,-0.12081 -1.977441,-0.41381 -2.452314,-0.90608 -0.592373,-1.32513 -1.089809,-2.73524 -1.097804,-4.19956 l -15.2488295,-7.8644 z m -1.7008484,6.04573 c -0.438425,0.0592 0.5278992,0.82172 0.2814058,0.0247 -0.1276167,-0.0268 -0.218785,-0.0333 -0.2814058,-0.0247 z m -5.25407028,32.14291 c -0.19983251,0.0299 -0.74389753,1.07932 0.0247,0.41128 0.071725,-0.31791 0.0419583,-0.42126 -0.0247,-0.41128 z M 109.94242,371.02691 c -0.78915,-0.085 -1.71824,0.13616 -1.58643,0.9803 0.39438,0.9028 1.67254,1.18031 1.93278,2.25749 0.66669,0.7606 1.1242,2.00402 2.23893,2.10596 1.3334,0.11004 2.36531,1.0545 3.28418,1.97608 0.81963,0.33267 1.82183,0.23607 2.63476,0.51643 0.75389,-0.17975 1.32688,-1.29993 1.27718,-2.1276 0.0215,-1.00072 0.60205,-1.78171 -0.75146,-2.03793 -0.63451,-0.13284 -1.19116,1.21952 -2.31933,0.35564 -0.39706,-0.33135 -0.63741,-0.92198 -1.19678,-0.99578 -1.19791,-1.47961 -2.99057,-2.38751 -4.81494,-2.85432 -0.18746,-0.0845 -0.43584,-0.14789 -0.69889,-0.17627 z m -97.232765,16.68067 c -0.214795,-0.0255 -0.583712,1.24733 0.117483,0.57828 0.0079,-0.41685 -0.04592,-0.56981 -0.117483,-0.57828 z m 92.921885,0.16389 c -0.0966,0.14487 -0.19239,0.28807 -0.2876,0.43294 -0.28573,0.89071 -1.27957,1.43086 -0.8597,2.35645 0.53255,0.44811 1.86966,0.2201 2.71207,0.39583 1.23682,0.006 0.56834,-1.71589 0.73602,-2.52344 -0.21464,-1.16034 -1.63142,0.025 -2.30079,-0.66178 z m -88.994474,4.14079 c 0.396213,-0.16499 0.640695,1.12892 -0.426756,0.80095 l 0.02169,-0.0371 c 0.122709,-0.49297 0.273046,-0.70884 0.405112,-0.76383 z m 87.231774,0.51335 c -0.21949,-0.053 -0.31513,0.70973 0.24122,0.39584 -0.0812,-0.26863 -0.16805,-0.37817 -0.24122,-0.39584 z m 9.21241,9.91129 c -0.98998,0.0127 -2.1929,-0.11178 -2.75228,0.88754 -0.86523,0.78607 0.34879,1.94883 1.17513,1.27409 0.88669,-0.165 1.9995,0.0127 2.77084,-0.38966 0.97386,-1.00071 -0.4237,-1.45002 -1.19369,-1.77197 z m -96.305025,1.27409 c -0.149942,0.19021 0.09642,2.00943 0.327797,0.76692 l -0.0095,-0.0743 -0.02169,-0.16699 c -0.153267,-0.47286 -0.246921,-0.58911 -0.296875,-0.52572 z m 38.074228,10.74007 c -0.202603,0.0383 -0.641107,1.40123 0.07426,0.53499 0.03721,-0.41315 -0.0063,-0.54775 -0.07426,-0.53499 z m -34.372569,5.53239 c -0.232592,0.01 -0.691742,1.4756 0.102125,0.61539 0.02755,-0.46078 -0.02454,-0.61859 -0.102125,-0.61539 z M 123.15644,434.5025 c -0.54965,-0.0304 -1.0675,0.20323 -1.21842,0.81021 -0.2924,0.62781 -1.52928,2.12137 -0.0711,1.97917 1.0557,-0.15963 1.93709,0.32072 2.93782,0.32471 l 0.0158,-0.0185 c 1.12412,-0.68279 0.7336,-1.73352 -0.2443,-2.32241 -0.28773,-0.44809 -0.86978,-0.74276 -1.41944,-0.77311 z m 5.68702,5.09017 c -0.6027,0.003 -1.27631,0.90237 -1.36686,1.50602 -0.24415,0.67071 1.43236,0.91426 2.0843,1.07926 0.86659,-0.54329 0.25237,-1.57708 -0.16081,-2.24512 -0.16131,-0.24347 -0.35574,-0.34105 -0.55663,-0.34016 z m 123.67319,1.93588 c -0.67297,0.4394 -1.3092,0.96456 -1.96372,1.39468 -0.8679,0.40109 -1.81212,0.46065 -2.44921,1.28028 -0.80891,0.48157 -1.88494,0.41119 -2.48323,1.30191 -1.02491,0.12746 -1.84718,-0.48459 -2.83579,-0.37728 -0.8746,0.48024 -1.62579,1.36716 -2.54199,1.89568 -1.3562,0.78608 -2.29045,2.01384 -3.29655,3.17284 -1.26769,0.92291 -1.52942,2.65795 -2.85742,3.48829 -0.71369,0.73513 -1.57958,0.93805 -2.58837,0.92464 -1.09591,-0.0819 -1.96419,0.46762 -2.5853,1.33285 -1.10799,0.39304 -1.76534,1.42657 -2.64404,2.12141 -1.0771,0.8478 -1.65245,2.25584 -2.88525,2.8729 -0.77,1.08925 -1.68636,2.38709 -3.00895,2.96256 -0.64261,0.87865 -1.52274,1.67497 -2.52344,2.17399 -0.8464,0.43461 -0.93514,1.45733 -1.49984,2.09049 0.25891,0.80622 -0.69513,1.75562 0.13918,2.41829 0.7767,0.50841 0.33421,1.89777 1.3483,2.27604 1.26771,-0.38096 1.31271,1.28922 2.3348,1.34832 0.6909,0.52986 1.56539,0.96948 2.2575,1.57714 0.80489,0.59561 1.87778,0.42234 2.7028,0.89991 1.0181,0.19487 1.80375,-0.28788 2.80175,-0.006 0.9954,0.11812 1.68912,-0.65768 2.69661,-0.33707 1.36021,0.33671 1.716,-1.6433 3.03059,-1.46891 1.51581,-0.44803 3.11011,0.0644 4.54283,0.47624 1.56279,0.2214 3.26825,-0.0765 4.88605,0.0402 1.39911,0.047 -0.1945,1.93405 1.10401,1.60809 0.99799,-0.94171 1.36143,0.94434 2.35953,0.8102 1.43531,0.54731 1.24406,-0.96239 2.31316,-1.12874 1.2113,0.19988 2.3278,-0.56503 2.99039,-1.52147 0.4253,-1.36023 1.40374,-2.43819 2.48633,-3.35841 1.3669,0.15026 2.04956,-1.18946 2.92546,-1.98226 1.18861,-0.45205 0.87549,-2.13548 2.13379,-2.47087 1.50909,-0.39437 1.98216,-2.08504 3.16667,-2.86979 0.8478,-0.26559 1.42608,-1.20297 2.05648,-1.79053 0.8975,-0.99802 1.31667,-2.29706 1.56478,-3.59959 -0.11939,-1.41121 0.90951,-2.55405 0.77002,-3.98 -0.19051,-1.14826 0.73684,-1.67347 1.28955,-2.51724 0.38937,-0.7706 0.73685,-1.72207 1.50602,-2.16781 l -17.24349,-8.89078 z m -127.40577,14.43553 c -0.26493,0.10482 -0.13126,1.05588 0.39892,0.27215 -0.1764,-0.24917 -0.31062,-0.30706 -0.39892,-0.27215 z m 0.0958,2.007 c -0.2208,-0.15405 -0.89441,1.33885 0,0.99578 l -0.006,-0.16391 c 0.10181,-0.5463 0.0798,-0.78052 0.006,-0.83187 z m 5.57569,0.62468 c -0.49164,0.0219 -0.8943,0.21067 -0.90299,0.78549 -0.0698,0.85584 0.47519,1.70739 0.78239,2.56053 0.60499,0.90144 1.54525,1.16017 2.58219,0.97103 0.51378,-0.56877 1.65473,-1.04913 1.19059,-1.97606 -0.0228,-1.27304 -1.24391,-1.68868 -2.21109,-2.11524 -0.36824,-0.10134 -0.94945,-0.24756 -1.44109,-0.22575 z m 4.16553,7.11882 c -0.7964,0.0565 -1.43477,1.10691 -1.51221,1.86165 0.94303,0.48694 1.18669,1.40708 1.19369,2.39973 0.0375,1.45548 1.82881,1.95444 1.91731,3.35222 0.003,0.68548 0.17636,2.85048 1.08854,1.58953 0.53797,-0.41317 0.2108,-0.97111 0.60922,-1.40708 0.18377,-1.44875 0.52961,-3.12379 -0.34636,-4.41292 -0.82365,-1.1362 -1.44175,-2.51258 -2.60075,-3.34293 -0.11907,-0.0363 -0.23568,-0.0483 -0.34944,-0.0402 z m 174.37696,6.61474 c -0.46246,-0.002 -0.95513,0.16299 -1.35759,0.34944 -1.11599,-0.20657 -1.79634,0.38949 -2.23893,1.36069 -0.9902,0.79816 0.35309,1.6894 0.0835,2.67805 -0.12477,1.14022 -0.2253,2.44626 -0.81951,3.42953 -0.47219,0.8223 0.46753,1.7344 0.19792,2.69352 0.14361,0.91889 -0.75462,2.04063 0.46078,2.51416 -0.51251,1.27438 0.23364,3.08924 -1.12256,3.90885 0.5379,0.88266 1.67386,0.92725 2.26676,1.70394 -0.53789,0.91756 -1.56131,1.1847 -2.40901,1.71323 -1.1751,0.41718 -0.90743,1.5221 -0.35872,2.2049 -0.14218,0.94571 -0.99611,1.66765 -0.85662,2.77703 -0.0241,1.03694 -1.07221,1.47289 -0.81331,2.61311 -1.1476,0.88133 0.45043,1.57976 -0.0127,2.65023 -0.35,0.98462 0.33308,1.98375 -0.0773,2.85433 -0.74851,0.63987 -1.42077,1.64587 -0.79167,2.58219 0.2173,0.79547 -1.39786,1.32204 -1.69157,2.22348 -0.6292,1.61376 0.91929,2.88011 1.44109,4.26448 -0.56881,1.19387 -1.77397,2.29617 -1.61426,3.67383 0.7579,0.69353 1.09094,1.51712 2.02865,1.95443 1.0973,0.68815 -0.042,1.77106 0.13917,2.65641 0.48701,0.84108 1.12164,1.70585 1.49983,2.65023 0.0765,1.02084 -0.0353,1.99345 -0.26595,2.93783 -0.3367,1.27704 1.37424,1.23964 1.78744,2.15852 -0.12207,1.02084 0.39891,1.86389 0.36491,2.89144 -0.0792,1.96253 2.19563,2.51769 2.89453,4.10058 1.12009,1.13487 1.31632,2.70087 1.63281,4.18719 0.25031,2.00945 0.12983,4.09168 -0.0127,6.11995 0.18511,1.98801 0.11574,4.04307 0.45768,6.03646 0.8626,1.17241 1.3484,2.52071 1.56169,3.96142 0.5137,0.89474 0.39206,2.08091 1.03597,2.87907 0.42521,0.90949 1.05576,1.78473 1.28646,2.82031 0.0321,1.57619 0.12287,3.47295 -0.94629,4.75 -0.29381,0.6412 0.8769,1.66568 1.39469,2.27604 0.0523,1.60164 0.42421,3.41197 -0.65559,4.76547 -0.6295,0.7834 -0.80554,1.7685 0.0557,2.4956 0.74719,0.72031 0.0988,2.05066 1.64827,1.61735 0.27369,0.8344 1.01715,1.35555 1.36994,2.19255 0.71231,1.52929 0.55368,-1.26432 1.60809,-0.68343 1.0436,-0.13427 1.71722,0.53672 2.77702,0.52571 1.2287,-0.89209 2.8319,-0.4677 4.25521,-0.69579 l 0.006,0 c 0.4668,-0.8987 1.34998,-1.49375 1.6854,-2.47706 0.84909,-1.08259 1.54821,-2.37087 2.81721,-3.08317 0.6212,-0.6761 -0.14298,-1.9129 0.034,-2.8265 -0.21041,-0.87726 -0.69423,-1.68777 -0.23812,-2.66568 0.65059,-0.61304 1.59494,-1.00789 1.53694,-2.05957 0.3595,-2.78081 0.16937,-5.68634 -0.72673,-8.35581 -0.9108,-1.45011 -0.47093,-3.33872 -1.49983,-4.71906 -1.1013,-0.76329 -0.1843,-1.70272 0.37109,-2.5049 -0.0497,-0.78607 -1.37709,-1.27931 -1.4751,-2.2049 -0.6976,-0.99671 0.56666,-1.55456 0.38966,-2.48015 -0.9833,-0.80487 -1.97882,-1.91684 -1.71322,-3.28109 0.15026,-1.97057 -0.18047,-3.90341 -0.71437,-5.79215 -0.59699,-1.82302 -2.19845,-3.21346 -2.59145,-5.13037 0.33129,-1.85657 -1.3886,-3.19565 -1.60189,-4.97575 -0.68271,-1.63527 -0.48913,-3.36735 -0.40512,-5.08707 -0.1636,-0.82365 -1.00432,-1.59852 -1.01433,-2.57911 -0.0657,-1.96387 -0.73348,-3.77829 -1.27407,-5.63754 -0.11004,-1.84045 -2.06342,-2.79612 -2.29151,-4.55208 -0.54331,-1.06644 -0.60837,-2.31113 -1.15967,-3.36148 -0.9377,-0.82365 -0.16566,-1.90119 -0.67415,-2.76775 -0.86521,-1.10403 -1.15422,-2.51099 -1.01742,-3.87793 0.48031,-0.83706 0.99657,-1.76406 1.81217,-2.35025 0.59971,-0.77536 0.43135,-1.55674 0.26904,-2.375 0.13285,-1.51986 0.33831,-3.16083 -0.49479,-4.53044 0.0371,-1.44206 0.23829,-2.99406 -0.034,-4.45622 -0.12746,-1.17242 -0.56118,-2.75753 -2.01937,-2.69043 -1.8217,-0.0456 -3.54472,-1.03532 -4.5428,-2.56055 -0.63041,-1.64728 0.79615,-3.06794 1.49364,-4.44693 0.15706,-1.3978 0.0673,-2.9068 0.0434,-4.31397 -0.28171,-0.47823 -0.71268,-0.64723 -1.17514,-0.64942 z m -172.20607,6.42921 -0.0834,0.10212 -0.10213,0.12983 c -0.78609,1.35217 0.53029,1.24232 0.18554,-0.23192 z m -11.5472,10.1123 c -0.58344,0.0488 -1.12555,0.26195 -1.56168,0.77001 -1.20998,-0.0765 -1.8195,1.10433 -2.71826,1.70395 -1.25961,0.30853 -2.48452,1.13953 -3.03988,2.375 -0.17842,1.29851 -1.17722,2.17555 -2.14307,2.96565 -1.39107,1.51585 -3.30533,2.73532 -4.08202,4.70052 -0.42364,1.21492 0.30899,1.72088 1.24006,2.17708 0.044,0.0127 0.0888,0.0269 0.133,0.0402 0.94969,0.29076 2.01242,0.50252 3.01206,0.72982 0.83841,0.78742 2.08864,0.18115 3.08935,0.54736 1.90352,0.24146 3.9812,-0.57717 5.79215,0.36182 0.88402,0.11131 1.97231,-0.006 2.83887,-0.3309 1.44205,-0.20792 2.51015,-1.27235 3.10174,-2.55745 0.56605,-0.81157 0.87002,-1.69321 0.63395,-2.6966 0.3729,-1.28779 -0.97138,-1.17685 -1.53077,-1.91732 -1.3629,0.0953 -2.74883,0.43771 -4.10368,0.11447 -1.05842,-0.79816 0.83495,-1.4275 1.24008,-1.89566 -0.27234,-0.70292 -0.46037,-1.79596 -0.56902,-2.63168 -0.58352,-0.63987 -2.01569,-0.79405 -2.174,-1.77197 0.41854,-1.03965 1.94966,-0.8045 2.90073,-0.94938 1.05034,0.28169 2.36744,-0.60415 0.89989,-1.20914 -0.9021,-0.23057 -1.98705,-0.60715 -2.95947,-0.52572 z m 16.97754,1.91113 c -0.59956,0.11084 -0.96387,1.2339 -0.71435,1.90494 -0.16232,0.85853 -0.34281,1.82063 -0.78549,2.62549 -0.55938,1.30791 -2.1414,1.14707 -3.05224,1.97608 -0.90413,0.62377 -1.34395,2.09544 -0.27213,2.7863 0.63316,0.85984 1.42223,1.40329 2.51416,1.05451 1.42058,-0.29377 2.36096,-1.29238 3.2718,-2.34407 1.14024,-1.00607 1.69213,-2.52797 1.35141,-4.02636 -0.17037,-1.40047 -0.74281,-2.62233 -1.64828,-3.69548 -0.23777,-0.24246 -0.46503,-0.31835 -0.66488,-0.28141 z m -7.24251,9.4969 c -0.14725,-0.0212 -0.3195,0.0391 -0.51335,0.21958 -1.07181,0.60766 0.10656,2.22178 1.01742,1.14728 0.14788,-0.50302 -0.0624,-1.30297 -0.50407,-1.36686 z m -12.05436,4.69743 c -0.45073,0.33402 -2.18798,-0.0312 -1.42871,1.17205 0.78741,0.0269 2.53375,0.54039 1.71011,-0.79167 -0.0925,-0.12745 -0.1862,-0.25428 -0.2814,-0.38038 z m 8.58463,5.01287 c 1.39669,0.55467 2.79974,1.12733 4.20574,1.71939 -0.22852,-0.75945 -1.14001,-1.13308 -1.80908,-1.57095 -0.78966,-0.0822 -1.59347,-0.11226 -2.39666,-0.14836 z m -9.16291,70.84179 c -0.005,0.30281 0.008,0.6127 0.006,0.86898 -0.15152,0.758 -1.6258,0.68061 -1.73177,1.79672 -0.83437,0.68549 -0.93678,1.379 -0.25667,2.2482 0.39839,1.2771 -1.05191,2.11667 -1.49055,3.20996 -1.16037,-0.0336 -1.36827,1.28833 -1.58025,2.16163 0.0671,1.0155 -0.80929,1.97963 -0.4082,2.93472 0.18243,0.77001 -1.08786,1.34869 -0.44531,2.42448 -0.5795,0.83311 -0.1311,1.86357 0.51952,2.51416 -0.30449,1.55881 1.3996,0.75465 2.13071,1.37305 1.47422,1.18991 1.98586,3.08176 2.09049,4.89535 -0.15295,1.1724 1.0589,1.60444 1.20914,2.64404 0.32598,0.8317 0.45184,1.63719 1.41634,1.96989 0.6828,0.5406 1.04706,-1.61438 2.18328,-0.82567 0.94034,0.0899 1.70194,0.88297 2.23584,1.48127 0.94303,0.4359 1.7916,0.86269 2.84196,0.53809 0.84113,0.24411 -0.11765,1.66573 0.92463,2.19564 0.6533,1.00339 1.72917,1.58956 2.93783,1.40706 1.4246,0.33269 2.134,-1.0811 3.03678,-1.88331 0.92024,-0.37959 1.68312,-1.00071 2.27605,-1.87402 0.98059,-0.79009 2.4519,-1.31065 2.74299,-2.68424 0.0804,-0.78611 0.43514,-2.22181 1.32049,-2.1678 1.00876,0.25219 1.61783,-0.7177 2.64404,-0.29379 0.063,-1.0571 0.63208,-0.43993 1.33902,-1.25554 0.1558,-0.0442 0.2968,-0.10275 0.44223,-0.1577 -7.72651,-8.90428 -16.56781,-16.86367 -26.38476,-23.52116 z m 184.69033,19.56902 c -0.47241,-0.0314 -0.76439,0.5632 -1.45965,0.28451 -1.04359,-0.35011 -1.73384,0.40332 -2.55744,0.84732 -0.6828,0.9658 -0.71994,2.26883 -1.13183,3.38622 -0.75391,1.4421 -1.07917,3.16004 -2.22348,4.37273 -0.96981,0.7673 -1.21198,2.46822 -2.58838,2.61312 -0.8075,0.2026 -1.51396,0.10149 -2.14306,0.95866 0.2951,1.4367 -0.83396,1.39632 -1.57714,1.99463 -0.43591,0.51379 0.57977,1.75647 -0.72674,2.01937 -0.99539,-0.5285 -2.44986,-0.0567 -2.79867,1.02051 0.12208,1.28639 -1.07901,1.30009 -1.7967,1.9668 -1.057,0.0686 -1.66115,1.13586 -2.35336,-0.19483 -0.8398,-0.9256 -1.4961,0.8153 -2.6162,0.28142 -0.97521,-0.35301 -1.75796,0.9879 -2.55746,-0.0866 -0.7445,0.6264 -1.65421,0.65362 -2.45232,0.89371 -1.06379,-0.0898 -2.03951,0.36249 -2.94091,0.82259 -0.9511,0.3635 -1.50149,1.05263 -2.1709,1.87093 -1.00609,0.30981 -1.89401,1.10165 -3.0275,1.12566 -1.1872,-0.16901 -2.30081,0.26122 -3.11102,1.14111 -1.33739,0.0143 -2.70094,-0.35656 -4.03563,-0.0185 -0.70691,0.3461 -2.08338,0.52879 -1.97608,1.52149 -0.0402,0.9806 0.59306,1.83263 0.14219,2.81722 -0.4064,1.03421 0.62886,1.64365 1.52767,1.66065 1.00339,0.5903 0.21054,1.68731 -0.14234,2.40901 -0.4937,1.13891 0.35785,2.35765 1.57716,2.39665 1.05569,-0.1368 1.72457,0.61941 2.50797,0.9803 0.8921,-0.38229 2.32356,-0.19052 2.39356,0.99269 1.17909,0.74849 1.33603,2.25356 2.31933,3.16975 0.9591,0.5352 2.67881,0.17822 2.9471,1.62973 0.1825,0.664 0.7269,2.25891 1.5586,1.5091 0.8921,0.29511 1.66862,0.87019 2.69352,0.62468 1.28371,-0.61579 1.41067,1.67369 2.18326,0.2907 0.98332,-0.52051 0.94855,-1.86536 1.78436,-2.43686 0.87989,-0.825 2.19893,-0.31499 0.59992,0.2041 -1.18319,0.49101 -0.23664,1.6137 0.59375,1.8431 1.00211,0.27501 1.73123,1.1625 1.62664,2.2544 0.42519,0.9363 1.80581,0.95326 2.3719,0.25976 -0.4172,-0.6641 0.19376,-2.40593 0.79477,-1.70703 -0.546,0.78211 -0.80408,2.59642 0.52262,2.65641 0.32729,1.64111 2.3709,1.3111 3.5996,1.7256 0.88,0.2267 1.69071,0.32871 2.53582,0.7298 0.90549,0.62781 2.06036,0.55346 2.83576,1.37305 0.72571,0.87321 2.0597,0.52162 2.78939,1.26482 0.89481,1.328 2.6148,1.53054 4.09441,1.45654 1.1362,-0.4883 1.99185,-1.58053 2.96565,-2.36264 0.63191,-0.87859 1.78272,-1.28343 2.61311,-0.39273 0.85181,0.15691 1.76389,0.25869 2.59148,0.29069 0.87471,0.3528 1.37384,-0.21513 2.15852,-0.80404 1.03562,-0.3461 1.98831,-1.03562 3.07082,-1.17513 1.01949,-0.1985 1.81708,0.25634 2.62857,0.80095 0.89211,0.4629 1.7692,-0.0952 2.74301,0.36491 1.62719,0.57549 3.14238,-0.45634 4.75618,-0.35564 0.8907,-0.2665 1.91697,-0.0576 2.75538,-0.19172 1.32129,-0.72841 2.67116,-1.46691 3.94286,-2.3348 0.95241,-0.48691 1.22685,-1.20908 1.37305,-2.09977 1.1322,-0.15295 0.87532,-1.34291 1.34213,-2.0874 0.91349,-0.74321 0.51473,-1.96381 0.80712,-2.90691 -0.7512,-0.6868 -0.91056,-1.60159 -1.16275,-2.54199 -0.14345,-1.21531 -1.08094,-2.00137 -2.15544,-2.43067 -1.14971,-0.2549 -1.26116,-1.48705 -2.22967,-1.77815 -0.65858,-0.7042 -1.84553,-0.42802 -2.19562,-1.42872 -0.62371,-0.8639 -1.63454,-0.76827 -2.48634,-1.20295 -0.6828,-0.7673 -1.66527,-0.78561 -2.38428,-1.4751 -0.89479,-0.45201 -1.8583,-1.8238 -2.90999,-1.1906 -0.99271,-10e-4 -2.19702,-0.083 -2.81412,-0.97103 -0.28171,-0.98059 -0.74712,-1.65029 -0.16081,-2.62549 0.3756,-1.21539 -0.76828,-1.73109 -0.94938,-2.74918 0.14757,-0.96991 -0.56916,-1.69564 -0.50717,-2.64404 -0.3998,-1.2677 -0.874,-2.47488 -1.6359,-3.57487 -0.762,-1.26901 0.28525,-3.28692 -1.28955,-4.04493 -1.2556,-0.4547 -0.29258,-1.72771 -0.6185,-2.65331 -0.53119,-0.94442 0.0565,-1.88957 -0.12065,-2.88216 -0.4655,-0.82501 -0.91193,-1.55674 -1.09163,-2.48634 -0.10608,-1.2543 -1.32298,-2.04572 -1.23698,-3.3522 -0.448,0.0201 -1.32019,-1.04512 -2.007,-1.1071 -0.9484,-0.11274 -1.90543,-0.11733 -2.85123,-0.23812 -0.21933,-0.20498 -0.39609,-0.28335 -0.55355,-0.29379 z m -156.48714,6.0581 c 0.37702,1.35019 0.62147,2.76974 1.30191,4.02018 1.1201,1.5453 2.46338,2.95038 3.52849,4.55208 1.31192,1.28511 2.2872,3.05682 3.9707,3.88721 0.17154,0.15121 0.35161,0.1644 0.5319,0.12983 -2.8825,-4.35503 -5.98337,-8.57145 -9.333,-12.58935 z m 10.20198,13.89745 c -0.20072,0.47771 -0.3702,0.96798 -0.3711,1.49985 -0.79816,1.4836 -0.36597,3.21388 -0.46387,4.83968 0.16367,1.0906 -0.49371,2.66602 0.7793,3.22542 1.32266,0.2455 1.02509,1.91657 0.38656,2.72136 0.1945,0.69359 0.76887,1.69599 1.08545,2.54508 1.03291,0.14757 1.8839,1.10737 0.69271,1.85856 -0.7378,0.6802 -1.38565,1.19479 -1.77197,2.0936 0.16774,0.95639 0.55236,2.10833 -0.0127,2.97492 -1.214,1.0691 0.0983,2.52195 0.11448,3.78825 -0.22805,0.9967 0.61265,1.96156 0.0681,2.83887 0.17572,1.2193 -1.48429,1.71143 -1.15966,2.93473 0.92023,-0.19709 2.12985,-0.44829 1.94205,0.9401 0.56742,0.97922 -0.6004,2.01483 -0.1577,2.65334 0.58754,-0.0255 0.76006,1.29328 1.92041,0.57828 1.0007,-0.26431 1.92153,0.57939 1.99153,1.55858 0.5111,1.70771 -0.40991,3.33959 -0.1577,5.04998 -0.26609,0.951 -0.25818,1.39847 -0.17317,2.26368 -1.2059,0.59699 -0.7752,1.26796 0.20409,1.81526 0.84371,1.0611 1.97083,1.87148 2.69663,3.03987 0.16629,1.01411 1.36296,1.01207 1.65137,1.93897 0.88939,0.542 1.33692,1.37908 1.22151,2.42139 -0.165,1.08119 0.58493,1.7565 1.13493,2.5358 0.006,0.98471 -0.14551,2.16152 -0.80403,2.98112 -0.44001,1.7721 1.36394,-0.35275 1.49674,0.88135 0,0.7767 0.29537,1.77699 1.11637,2.17399 0.503,0.5849 -1.63496,0.62184 -1.94206,-0.13601 -1.0625,-0.5111 -0.34992,-2.23416 -1.66991,-1.89876 -1.2784,0.36751 -1.4947,-1.22699 -2.5853,-1.3947 -0.75519,0.9202 -0.47853,2.20916 -0.1083,3.20997 -0.5339,1.09591 -0.4004,2.47182 -0.12683,3.67383 0.2562,1.0101 1.42863,1.04416 1.87402,1.97917 0.9108,0.26959 1.66776,0.95087 2.47396,1.48746 0.61699,0.7244 1.08168,1.53461 1.72558,2.24822 0.67341,0.982 1.92734,-0.0396 1.49675,1.60498 -0.3957,1.3483 0.79302,1.18272 1.63282,1.26171 1.02889,0.83711 2.06914,-0.4617 3.21614,-0.16389 0.76999,0.3863 2.04101,0.65545 2.04101,1.69774 -0.19449,0.65601 -0.84375,2.07343 0.47624,2.12143 0.15849,-0.005 0.27887,-0.0481 0.38347,-0.11131 0.0351,-1.24774 0.0896,-2.5026 0.0896,-3.73875 0,-26.01078 -8.13728,-51.90915 -22.40787,-73.99302 z m 1.36686,36.09507 c -0.40633,-0.0223 -0.19742,0.92834 0.21337,0.0773 -0.0844,-0.051 -0.15532,-0.0741 -0.21337,-0.0773 z m 161.07943,9.9886 c -0.40361,-0.0127 -0.76532,0.0535 -0.95247,0.45459 -0.9819,0.82631 -0.689,2.27417 -1.4349,3.20378 0.0417,1.2489 -1.28175,1.89116 -1.41325,3.04606 0.11131,1.2798 -0.25346,2.49087 -0.66796,3.65527 -0.14092,1.10531 -0.53892,2.13456 -0.56593,3.21306 0.19591,1.2569 1.2328,2.55186 2.5822,2.63785 0.94311,0.3742 1.74662,-0.57573 2.61311,0.0587 0.65601,-0.4789 1.4694,-1.42853 1.7256,-2.35953 0.67869,-0.8759 1.40635,-1.84686 1.28954,-3.04607 -0.40509,-2.47769 0.0304,-4.9802 0.66488,-7.3693 0.7217,-0.5768 1.20772,-1.57434 0.77311,-2.43685 -0.70419,-1.3012 -2.25106,-0.69127 -3.41406,-1.03596 -0.3501,0.0831 -0.79626,-0.01 -1.19987,-0.0217 z m 18.46192,10.07829 c -0.48157,0.0336 -0.94083,0.16008 -1.36068,0.47933 -1.0705,-0.15295 -1.63562,0.22746 -2.2513,1.03906 -0.99001,-0.0201 -2.17939,0.51154 -2.2544,1.58333 -0.1998,1.17781 1.4672,1.01475 1.3143,2.15235 0.1609,1.3776 0.48804,3.23903 2.15544,3.46972 0.9497,1.01281 2.48095,1.07448 3.66145,1.73177 1.10801,0.17841 2.37082,-0.21859 3.38623,-0.73908 0.90151,-0.216 1.9381,-0.71724 1.63899,-1.87093 0.21461,-1.07452 -0.22106,-1.96427 -0.86896,-2.75847 -0.24552,-1.8284 -1.03235,-3.60495 -2.43687,-4.85515 -0.49639,-0.0537 -0.99246,-0.10877 -1.48746,-0.1608 -0.51244,-0.0456 -1.01517,-0.10466 -1.49674,-0.0711 z m -29.00716,16.08691 c -0.58042,0.0111 -1.05081,0.35275 -1.27719,1.13493 -0.8304,0.46481 -1.99703,-0.20532 -2.97493,0.01 -1.0609,-0.2267 -2.24509,0.19556 -1.02978,1.16276 0.0215,0.95511 0.35489,1.79371 1.11018,2.41211 1.1321,0.3059 0.92348,1.86225 -0.11748,2.06885 -0.50299,0.56881 -0.64401,1.71437 -0.24431,2.43067 0.2562,0.69619 -1.02785,1.58262 -1.73486,1.79052 -0.33,1.89141 -2.58172,2.34858 -3.46973,3.77587 0.5506,1.08791 -1.02052,1.8358 0.0127,2.66879 -1.21,0.93631 -0.46943,2.51076 -0.85043,3.78517 -0.13553,0.93089 0.38513,2.05963 -0.74838,2.52652 -1.15369,-0.4655 -1.54783,0.84374 -1.01122,1.62045 1.2717,0.61169 1.31654,2.09552 1.86784,3.22232 0.28299,0.7498 0.92987,1.6844 1.56169,2.09359 1.24489,-0.1811 1.7968,1.16671 1.6761,2.20492 1.0114,0.48029 0.72954,1.21155 0.35253,2.14925 0.7486,0.8987 0.33307,2.21496 0.63086,3.29346 1.06641,0.8934 0.28749,2.55724 0.62159,3.75114 0.4467,1.54269 2.34322,1.22396 3.26871,2.26366 0.58221,1.09731 0.27126,2.70104 1.41016,3.50993 1.21,-0.14345 2.41881,0.85522 3.55631,0.1577 0.62241,0.94571 1.89563,0.59393 2.85743,0.76694 1.0517,-0.1998 1.73557,0.50242 2.71207,0.64323 1.3079,-0.3648 0.59708,1.7363 1.97608,1.47199 1.00601,-0.4158 1.92103,0.70143 2.27913,0.19174 -0.22,-1.3106 1.10053,-1.45548 1.50293,-0.25359 1.26371,0.16101 1.68428,-0.45452 1.48438,-1.66992 -0.0336,-1.16429 1.06695,-1.42437 1.94824,-1.48438 1.17381,0.33401 1.4713,-1.11382 2.37809,-1.54313 0.83171,-0.4668 1.55401,-1.05749 2.4152,-1.43179 0.80361,-0.29781 1.59485,-0.91748 2.43995,-0.95249 1.97869,-0.0282 3.97035,0.41313 5.87255,-0.25357 1.053,-0.0872 2.93732,-0.31823 3.02132,1.16275 0.8907,0.25221 0.98415,1.86473 2.27604,1.42873 0.81019,0.42389 2.17688,-0.23396 2.63168,0.67415 -0.18109,1.0598 0.50837,1.79002 1.438,2.16161 0.81559,0.86371 2.11667,0.15232 2.95636,0.79477 1.23412,0.53529 2.61209,0.6577 3.6893,1.5122 1.40041,0.605 2.45977,1.83592 3.86556,2.36573 1.03831,0.70299 2.28817,0.63737 3.49138,0.49788 0.84379,0.2777 1.13892,1.72085 2.27913,1.04215 0.15168,-0.9592 -0.30622,-2.02651 0.29068,-2.8636 0.49361,-0.8343 -0.98614,-1.43985 -1.04215,-2.31315 -0.7445,-0.53661 -0.0312,-1.70795 -0.41747,-2.52344 -0.19591,-1.2328 1.23235,-1.31043 2.06265,-0.93083 1.04641,0.5352 1.79715,-1.2432 0.47315,-1.3112 -0.8451,-0.393 -1.69173,-0.62862 -2.15853,-1.54622 -0.8008,-1.4997 -2.12447,-2.55485 -3.45117,-3.58106 -0.9672,-0.3502 -1.75806,-1.33144 -2.88216,-1.25243 -1.86061,-0.4266 -2.96356,1.47242 -4.02328,2.69043 -0.609,0.601 -1.64911,0.93083 -2.53581,0.93083 -1.81629,-0.99271 -4.06634,-0.69504 -5.95914,-1.45965 -1.6835,-0.72439 -2.15207,-2.68691 -3.57797,-3.67691 -1.20409,-0.62241 0.27183,-1.58235 0.0773,-2.43686 0.3058,-1.28959 -1.06839,-1.58474 -2.01009,-1.20915 -0.8988,0.6144 -1.64293,0.32324 -2.23584,-0.54735 -0.50529,-0.672 0.26834,-1.76787 -0.58756,-2.51108 -0.9175,-1.1469 -1.4415,-2.45244 -1.5957,-3.91194 -0.13158,-1.6567 -1.31338,-2.89158 -2.71518,-3.65218 -0.8572,-0.49951 -1.66423,-0.72679 -2.65023,-0.57519 -1.0248,-0.2616 -1.99408,-0.01 -3.03368,0 -1.0182,-0.20121 -1.11295,1.45162 -2.31625,0.97411 -1.2194,1.12541 -3.3519,0.84877 -4.2212,-0.59994 -0.46679,-0.72309 -0.97975,-1.4594 -1.24934,-2.2884 -0.91221,-0.7686 -0.33882,-1.56912 -0.1577,-2.52962 -1.21,-0.74991 0.49629,-1.82683 0,-2.77393 -0.34351,-1.0879 -1.5228,-0.94616 -2.2915,-1.28955 -0.6734,-1.02359 -0.0839,-2.46162 -0.3711,-3.63673 -0.0161,-1.3924 -1.18902,-2.20397 -2.28223,-2.79556 -1.0973,-0.4775 -1.21225,-1.73068 -0.13918,-2.30079 0.81021,-0.65729 -0.98768,-1.25006 -1.02668,-2.10595 -0.9753,-0.46139 -1.24019,-0.7337 -1.56479,-1.80291 l -0.006,-0.006 c -0.4253,-0.45611 -0.7334,-0.92714 -1.3947,-1.00814 -0.39589,-0.20572 -0.78359,-0.31896 -1.13183,-0.31234 z m -9.67937,2.81722 c -0.43149,0.0367 -0.84272,0.24605 -1.05452,0.65251 -0.10197,0.67341 -0.0565,2.31811 0.93083,1.42871 0.61309,-0.212 1.20916,-0.44432 1.65445,-0.93392 -0.031,-0.79144 -0.8116,-1.20867 -1.53076,-1.1473 z m -124.71533,1.69466 c -0.95111,-0.16229 -2.10493,0.45109 -1.71323,1.48129 0.98331,0.5688 1.62916,2.05401 2.93165,1.63281 0.002,-0.1824 0.0127,-0.36405 0.0127,-0.55046 0.2857,-1.08799 -0.35079,-1.99623 -1.23079,-2.56364 z m 206.25082,46.8475 c -0.13363,0.005 -0.30056,0.0263 -0.51335,0.0619 -0.5795,0.10593 -0.31115,2.25874 0.84115,1.45654 -0.19836,-0.87211 0.60774,-1.55279 -0.3278,-1.5184 z m -38.4082,1.0205 c -0.0966,0.005 -0.21411,0.022 -0.35563,0.0587 -0.95911,0.44942 0.0173,2.65416 0.77928,1.29265 -0.0705,-0.66438 0.25275,-1.37994 -0.42365,-1.3514 z m 38.64013,6.74773 c -0.43764,-0.01 -0.83364,0.14265 -1.08854,0.62158 -1.0597,0.34341 -0.97858,1.46346 -1.60498,2.10596 -0.8237,1.1349 -2.27766,-0.16938 -3.20996,0.40203 -0.6425,1.0222 -0.34174,2.54017 -1.09164,3.57177 -0.0241,1.49299 0.13268,3.13087 0.1577,4.67886 0.2508,0.88401 -0.11574,1.97841 0.36182,2.70282 1.05309,0.26149 2.2945,0.76011 3.4388,0.44221 0.8786,-0.27101 1.7203,-0.5855 2.375,-1.31119 1.0382,0.008 1.84746,-0.51411 2.51416,-1.2679 0.2454,-0.42662 0.008,-1.41487 1.05144,-2.02248 1.14969,-0.22939 0.87962,-1.53445 1.83073,-2.06575 1.26819,-0.10466 1.33362,-1.49184 1.25862,-2.48323 0.5956,-0.83701 0.25215,-1.66118 -0.22266,-2.50489 -0.11274,-1.3509 -1.63946,-1.02755 -2.55436,-1.24626 -0.5875,-0.4722 -1.1482,-1.05357 -1.8833,-1.28027 -0.41585,-0.163 -0.89522,-0.33403 -1.33285,-0.34326 z m 1.22461,16.97754 c -0.41049,0.507 1.12523,1.25718 0.97103,2.22037 0.3353,0.672 1.24882,2.19246 1.95443,1.16895 -0.0389,-0.5647 -0.37338,-1.02738 -0.62158,-1.51839 -0.84371,-0.4896 -1.20118,-1.85392 -2.30388,-1.87093 z m 6.14778,7.3322 c -0.0684,-0.0127 -0.1569,-0.005 -0.27523,0.0309 -0.91749,0.5137 0.12366,2.62803 0.68035,1.41944 -0.51521,-0.24299 0.0741,-1.36483 -0.40512,-1.45036 z m 4.81804,2.05648 c -0.56954,0.0296 -1.08748,0.234 -1.48438,0.7793 -0.59959,0.92018 -1.77403,1.88526 -1.42253,3.04296 0.50571,1.0463 1.79886,0.73736 2.02556,-0.22575 0.7284,-0.5232 2.09516,-0.13174 2.92546,-0.72055 0.5634,-1.07859 2.34812,0.34807 2.12142,-0.96792 -0.4118,-0.46811 -0.82378,-0.93936 -1.23698,-1.41016 -0.89124,-0.11733 -1.97929,-0.54714 -2.92855,-0.49788 z m -7.28272,4.6232 c -0.36939,0.003 -0.76905,0.22536 -1.12255,0.57211 -0.99671,0.7042 0.0231,1.87489 1.03596,1.4751 0.51511,-0.24811 1.00269,-0.70041 1.0267,-1.30811 -0.2321,-0.5272 -0.5707,-0.74296 -0.94011,-0.7391 z m -36.69498,3.0306 c -0.52266,-10e-4 -1.03574,0.0763 -1.4751,0.2876 -1.94239,0.6023 -1.9541,2.95993 -3.15739,4.24903 -0.8733,1.09869 -2.40329,0.84688 -3.35841,1.76578 -0.69218,1.1147 -2.0867,1.06919 -3.0646,1.76269 -1.1536,0.46151 -0.48466,1.69528 -0.63087,2.63168 -0.43999,1.26899 0.93368,1.09834 1.73178,1.49674 0.75659,0.88201 1.83665,1.00603 2.92854,0.89062 1.5749,-0.25479 2.39551,-1.85631 3.56251,-2.81412 1.01279,-1.39379 2.18153,-2.71223 3.49755,-3.83773 1.79081,-0.37319 3.79868,0.28925 5.53858,-0.47004 0.76191,-0.72701 2.09226,-1.37402 1.61736,-2.61622 -0.99131,-0.4776 -1.90409,-1.09369 -2.70899,-1.84619 -0.71231,-0.96589 -1.96099,-0.8077 -2.95639,-1.3081 -0.47085,-0.10719 -1.00191,-0.19024 -1.52457,-0.19174 z m 7.73111,19.63705 c -0.70575,0.0475 -1.09848,0.485 -0.24429,1.21843 -0.0751,1.25159 1.26778,1.6742 2.30077,1.4689 0.3434,-0.22 0.82809,-0.47911 0.70199,-0.97411 -0.067,-0.99261 -1.36786,-1.02304 -1.98225,-1.62664 -0.27039,-0.0741 -0.54097,-0.10244 -0.77622,-0.0866 z m -1.9173,22.73259 c -0.20148,-0.0458 -0.40448,-1.9e-4 -0.58758,0.18864 -0.2213,0.88529 -0.11289,2.33934 0.89991,2.76464 1.1858,-0.4709 1.83245,1.42015 2.31005,0.59375 -0.3703,-0.7512 -1.24924,-1.0315 -1.21223,-1.9235 -0.1932,-0.5121 -0.80576,-1.48646 -1.41015,-1.62353 z m 7.48372,4.2119 c -0.40492,0.0507 -0.0127,1.3143 0.6896,0.47625 -0.32966,-0.37561 -0.55464,-0.49311 -0.6896,-0.47625 z m -23.27068,28.1382 c -1.25171,-0.0111 -2.51649,0.69574 -3.28418,1.69774 0.22271,0.7901 -0.69271,1.68826 -0.69271,2.47706 0.69621,1.2569 1.62274,2.43425 1.87093,3.86555 1.3199,1.69552 1.66704,4.5335 4.03875,5.1211 1.64189,1.1389 3.7744,0.86672 5.69937,0.89372 0.18911,-0.15834 0.37992,-0.31474 0.56902,-0.47315 0.0362,-1.5359 -1.0051,-2.80269 -1.8864,-3.97379 -1.3536,-2.153 -2.68709,-4.33866 -4.13461,-6.44467 0.2428,-1.0571 -0.20397,-2.15181 -0.95247,-2.89761 -0.39539,-0.17908 -0.81046,-0.26219 -1.2277,-0.26595 z m 27.08675,10.87613 c -1.15781,-8.5e-4 -2.18378,0.85179 -2.52653,1.95753 -0.29369,1.0732 -0.52085,1.90236 0.43295,1.49055 -0.2469,0.7391 -0.60008,1.10147 0.44221,2.01628 0.9322,0.7298 1.72256,-0.45904 2.64406,-0.64014 1.26899,-0.13823 1.32186,-1.49833 2.01936,-2.27913 0.0671,-0.4922 0.13617,-0.98759 0.20409,-1.48129 -0.16499,-1.19789 -1.80566,-0.98623 -2.71516,-1.01123 -0.16919,-0.0367 -0.33557,-0.0524 -0.50098,-0.0526 z m -16.39925,3.0306 c -0.29024,-0.0287 -0.59277,-0.0171 -0.90299,0.0432 -1.57632,-0.27768 -0.6685,1.15098 0.0773,1.65137 0.9202,0.52581 0.60353,1.76331 1.37613,2.3348 0.64121,0.67621 1.66032,-0.42253 2.56983,-0.0711 0.14092,-0.10466 0.27976,-0.21082 0.42057,-0.31543 0.2214,-1.1013 -0.16931,-2.00574 -1.1875,-2.52344 -0.70223,-0.58455 -1.48264,-1.0335 -2.35336,-1.11946 z m -21.87288,4.04184 c -0.41721,0.01 -0.85156,0.14329 -1.34522,0.29687 -0.8276,0.8291 -2.31713,1.38061 -2.20183,2.73681 -1.07039,0.0389 -2.09951,0.29862 -3.18212,0.19792 -1.3119,-0.10735 -2.54031,0.39751 -3.26871,1.51221 -0.70031,0.3622 -1.88972,1.04907 -1.10092,2.05648 -0.11005,0.64259 0.53299,1.71942 0.32779,2.56981 -0.62239,0.5944 -1.63979,0.83475 -2.13069,1.70395 -0.5415,0.491 -1.74553,1.68554 -0.64014,2.15234 1.39641,0.20529 2.19711,-1.07453 3.10793,-1.91422 0.93369,-0.7834 1.49259,-2.17361 2.8636,-2.1276 1.05429,0.18909 1.89488,-0.37815 2.91308,-0.47315 1.5332,0.18919 1.55377,-1.85961 2.83887,-2.25131 0.7203,-0.7069 1.77673,-0.6236 2.52652,-1.2246 0.78081,-0.8626 1.87457,0.25216 2.67807,-0.43603 0.9524,-0.42122 0.12603,-1.52851 -0.25359,-2.09051 -0.78609,-0.6184 -0.97161,-1.89447 -1.8771,-2.26057 -0.43596,-0.3421 -0.83835,-0.45728 -1.25554,-0.4484 z m 23.21192,2.10285 c -0.35156,-0.12904 -1.28551,0.79721 0.0526,0.56283 0.11843,-0.35953 0.0646,-0.51982 -0.0526,-0.56283 z m -17.39502,1.58953 c -0.88042,0.0158 -1.39929,0.90109 -2.13999,1.3483 -0.77669,0.8921 -2.08536,0.57698 -2.92236,1.31738 -0.5031,0.6305 -2.0507,1.19103 -1.43489,2.11524 1.1491,0.6828 1.19692,0.65979 0.0743,1.23389 -0.92831,0.21999 -1.37869,1.3323 -1.2339,2.2915 -1.26229,1.01409 -3.1179,0.4069 -4.37891,1.47201 -0.9792,0.21869 -1.68646,0.95041 -1.65446,2.00081 -0.3809,0.91339 -0.29309,1.89835 -0.16699,2.88835 0.49501,1.10399 -0.46074,1.90592 -0.55973,2.89452 -0.6224,1.2046 -1.93561,1.97161 -2.9873,2.82342 -0.48691,0.93248 -1.49274,-0.008 -2.15544,0.90918 -1.68081,-0.1596 -2.40794,1.56772 -3.30274,2.65021 -1.167,0.19452 -0.83568,1.37587 -1.47818,2.06268 -0.17851,0.98469 -0.48248,1.88364 -0.66488,2.84814 -0.50171,1.07179 -0.86524,2.20823 -1.58024,3.18212 -0.65191,1.80961 -2.37006,2.84601 -3.33056,4.46241 -0.8182,1.0016 0.0668,1.80717 1.05143,1.07617 0.8103,-0.14361 1.97476,-1.07532 2.59456,-0.48242 0.0188,1.1228 -0.9383,2.14334 -1.31121,3.21923 -0.43598,1.1133 0.0853,1.88744 1.29265,1.58025 1.65671,-0.0671 0.32121,1.35139 0.65251,2.05029 1.14431,-0.0537 2.26409,-0.47187 3.11719,-1.24316 1.34279,-0.97391 1.30933,-2.86705 2.64404,-3.83154 1.0906,-1.4072 2.63067,-2.28944 3.77897,-3.63364 0.89601,-1.3078 2.44907,-1.78616 3.49138,-2.92236 0.8612,-0.3246 1.77341,0.38485 2.57291,0.71746 0.44671,0.97389 0.62061,1.46504 1.84001,1.37303 1.24749,0.45211 2.37875,1.1576 3.17284,2.25749 0.5782,0.7727 0.9886,1.59747 0.7391,2.63167 0.0309,0.87601 -0.53789,2.33357 0.32471,2.80176 0.89071,-0.20389 1.92619,-0.77009 2.25749,-1.68229 0.4494,-1.7385 0.69621,0.49336 0.60922,1.20297 0.27249,0.9376 0.36915,1.87824 0.30615,2.88835 0.3341,1.1121 -0.7195,2.04508 -1.806,1.84928 -1.3978,0.6827 -1.36627,-1.07385 -2.22347,-0.26904 -1.00339,0.7312 -2.11602,1.19284 -3.22541,1.70394 -0.70561,0.75379 -1.82992,0.76964 -2.49252,1.49674 -0.7324,0.4239 -1.44213,1.92712 -0.39583,2.24512 0.90149,-0.0953 1.29553,-1.95683 2.19564,-1.46582 0.86249,1.48759 1.46356,-1.13466 2.35025,-0.42367 0.0804,1.1108 0.0657,2.46042 1.14422,1.01432 0.61838,-0.88399 1.80234,0.31904 2.43684,-0.75147 0.5191,-0.79149 1.34469,-1.19841 2.05029,-1.7967 0.53791,-1.22481 1.13766,-2.49431 1.94516,-3.59962 -0.17301,-0.8505 0.94419,-2.35698 1.59878,-1.31738 -0.8987,1.8767 -2.23623,3.54559 -3.30273,5.32828 -0.114,1.09602 -0.29628,2.24514 -0.41438,3.34913 0.0885,0.6372 -0.24706,2.81577 0.75764,2.01628 0.83849,-0.56471 1.04877,-1.56404 1.56788,-2.31934 0.7525,-1.3535 1.6746,0.53836 2.57601,-0.47315 0.5044,0.48811 1.25021,1.65222 1.34521,0.0371 0.5421,-1.24619 1.8817,-0.3177 0.6154,0.24431 -0.64661,0.8009 1.12369,1.34749 0.33088,2.4152 0.7217,0.3138 1.62914,-1.57725 0.72365,-0.099 10e-4,0.008 0.005,0.0166 0.006,0.0247 l 41.88413,-21.59147 c -0.35527,0.008 -0.71947,0.023 -1.06073,0.003 -1.34008,0.342 -2.54319,-1.34257 -3.76659,-0.46387 -1.47289,0.56871 -1.07934,-0.93267 -0.22884,-1.52148 -0.6466,-1.2449 -1.48654,-2.44448 -2.56364,-3.36459 -0.72709,-0.49639 -1.9275,-1.17434 -1.5586,-2.19253 -0.75789,-0.73111 -1.69852,-1.17164 -2.77701,-1.09165 -0.491,-0.75389 -0.9337,-1.78399 -1.06381,-2.58219 -1.4474,-0.50159 0.0546,-1.38887 -0.22575,-2.34407 0.1985,-1.0865 -1.07488,-1.65049 -0.74219,-2.78939 0.1878,-1.0114 -0.39596,-1.96658 -1.45034,-2.09668 -1.26362,-0.77399 -2.17324,-2.10645 -3.30274,-3.09245 -0.47621,-0.786 -1.94508,-1.26464 -1.69157,-2.27605 -0.1717,-1.22469 -1.49165,-1.89545 -1.45963,-3.20995 -0.006,-1.63391 -1.52494,-2.52086 -2.56983,-3.53775 -1.0625,0.0375 -2.07179,-0.152 -3.1141,-0.23503 -1.108,0 -1.47017,0.36932 -2.51107,-0.29998 -1.0853,-0.0201 -2.55796,-0.64022 -3.25016,0.50407 -1.22201,1.0718 -2.91184,1.59232 -4.49332,1.83383 -1.12821,-0.15564 -2.01217,0.41498 -3.08936,0.58137 -1.01821,0.3742 -2.11943,0.63572 -3.05843,1.22461 -0.63851,-1.1751 -2.5709,-1.64109 -2.375,-3.2749 0.2844,-1.23009 -1.04541,-2.00719 -2.1307,-1.84618 -0.14219,-0.0372 -0.27625,-0.0516 -0.40201,-0.0494 z m -20.46273,10.97818 c -0.34037,0.008 -0.52374,0.27375 -0.01,0.80095 -0.53791,1.87669 -2.36129,2.8487 -3.32439,4.4624 0.69751,0.67339 1.61581,1.01734 2.375,1.62354 1.1268,0.0953 1.9766,1.03246 3.1543,0.91846 0.4789,-0.65861 1.25076,-0.84561 0.87516,-1.79672 -0.4936,-0.7914 -0.86857,-1.68492 -1.19987,-2.57292 -0.8783,-0.69489 -0.83555,-1.69336 -0.92154,-2.67805 -0.11337,-0.51385 -0.60902,-0.76532 -0.94939,-0.75766 z m -9.58041,11.0555 c -0.60543,0.10925 -1.41271,1.07192 -2.03483,1.3947 -1.4809,0.8156 0.23151,1.18807 0.81641,0.25976 0.546,-0.32729 1.85342,-0.85598 1.46582,-1.64208 -0.0771,-0.0234 -0.16091,-0.028 -0.2474,-0.0127 z m 26.37549,21.90382 c -0.11511,-0.01 -0.25847,-0.008 -0.43604,0.01 -0.51119,0.5057 -1.21554,2.21548 0.0185,1.15039 0.60227,-0.42962 1.22342,-1.09049 0.41748,-1.15967 z"
     id="path16"
     inkscape:connector-curvature="0" />
  <path
     style="fill:#fdce12"
     d="m 62.031108,495.00006 c -5.250239,0 -11.834214,0.468 -19.306139,1.49365 0.217297,0.66803 1.173298,0.59826 1.654457,1.12566 1.110708,0.25889 1.280917,1.6587 2.146161,2.3348 1.074482,0.77534 -0.497563,1.71961 0.173169,2.51105 -0.06175,1.76401 0.544651,3.5984 -0.222648,5.28191 -0.127459,1.25156 -1.488112,0.63409 -2.059585,1.50602 0.06175,0.95377 1.436163,1.28462 1.110202,2.46778 -0.13015,1.06509 0.7106,2.09358 1.75959,2.13378 0.97926,0.19184 1.910371,0.17651 2.452314,1.15039 0.847796,0.21196 1.439061,1.06509 2.418305,1.07308 1.294501,0.65194 2.767097,0.40727 4.180982,0.38037 1.159,0.13015 2.227718,-0.29908 2.903817,-1.25554 0.653252,-0.46949 1.577839,-1.17208 0.599925,-2.01317 -0.339371,-1.30657 -0.129358,-2.90016 0.856615,-3.93978 0.541944,-1.04364 2.386369,-0.61115 2.470855,-1.92041 0.226702,-0.51241 -0.480525,-2.7281 0.281422,-1.98225 0.348761,0.80083 -0.488759,2.33809 0.553549,2.54197 0.960466,-0.0845 2.062039,-0.55986 2.665685,0.48243 0.586197,0.81828 1.87245,0.98632 2.702797,0.55974 1.057049,-0.23877 1.903642,-1.19966 1.570968,-2.32243 0.179756,-1.2073 -1.870915,-1.43381 -1.394695,-2.59148 0.315226,-0.58352 2.069258,-1.89284 1.079263,-2.1276 -0.84778,0.047 -2.913207,-0.51207 -0.989583,-0.58447 1.150956,-0.28841 1.460799,1.17144 2.541994,0.15469 1.275707,-1.08924 2.967578,-1.15579 4.499517,-1.62664 1.29314,0.19451 2.584887,-0.31781 3.868653,-0.52571 2.05911,-0.33537 4.493453,-0.29518 6.175618,1.07309 0.772667,-0.73244 2.289928,-1.40467 3.120275,-0.42676 0.920234,0.10735 1.994747,0.12112 2.978029,0.26594 0.748521,-0.50304 1.312393,-1.42766 2.353356,-1.03596 1.099973,-0.38903 0.73264,2.3854 1.60189,1.07616 0.582191,0.73778 0.594573,1.85239 1.592611,2.2575 1.487653,0.0161 0.680596,1.35482 2.130693,1.25553 1.32535,-0.12745 2.93887,0.3477 4.02946,-0.57521 1.29851,-0.20254 0.11843,1.25929 1.87712,0.61541 0.95914,-0.0993 1.7015,-0.88804 2.4554,-1.39779 0.0435,-0.0304 0.063,-0.0725 0.10197,-0.10514 -19.343605,-5.37505 -36.201704,-7.31055 -46.934092,-7.31055 z m 31.641936,5.58495 c -0.716316,0.12604 0.584677,1.14197 0.439122,0.01 -0.194845,-0.0272 -0.336791,-0.0272 -0.439122,-0.01 z m -7.486824,0.14836 c -0.554008,1.12548 1.266699,1.46642 1.846199,0.79167 0.364863,-0.98327 -1.470585,-0.0217 -1.846199,-0.79167 z m -18.817537,0.50407 c 0.496438,0.0499 0.446991,0.6892 -0.658699,0.21028 0.268296,-0.17739 0.493209,-0.2269 0.658699,-0.21028 z m 17.524904,2.28223 c -0.921564,0.52988 1.207292,0.64659 0,0 z m 28.373213,0.0432 c 0.006,0.003 0.0127,0.006 0.0185,0.01 0.0363,0.0111 0.0777,0.0196 0.11448,0.0309 -0.0442,-0.0127 -0.0888,-0.0271 -0.133,-0.0402 z m -19.683436,1.31429 c -0.09057,-0.0111 -0.171127,-3.8e-4 -0.241221,0.0402 -1.083871,0.4722 0.665808,1.61091 1.360685,1.58952 0.517639,-0.32748 -0.485387,-1.54758 -1.119464,-1.62972 z m -14.426273,2.87288 c -0.478563,0.0532 -0.953974,0.35202 -1.196779,0.8195 -0.28975,1.06779 -0.08202,1.99945 1.082367,2.22348 0.957774,0.28977 2.001571,0.60528 2.452298,-0.57519 -0.362187,-0.60767 -0.69825,-1.24032 -1.119464,-1.80909 -0.258891,-0.5178 -0.73986,-0.71185 -1.218422,-0.6587 z m 44.719889,0.41439 c -0.97096,0.0111 -0.42036,0.81035 0.72055,0.44531 -0.0697,-0.13141 -0.13918,-0.26302 -0.21029,-0.39583 -0.20356,-0.0363 -0.37154,-0.0511 -0.51026,-0.0494 z m -5.69319,0.0834 c -0.6226,-0.0307 -1.24269,0.01 -1.85237,0.23193 -2.07922,0.30318 -4.27381,-0.17113 -6.33025,0.2474 -1.51582,0.01 -2.28012,1.45953 -3.5223,2.05648 -0.81693,0.60364 -0.89213,1.24399 -1.13493,2.24201 -0.14218,0.88133 -0.39547,1.80293 -0.53499,2.68426 -0.18916,1.31192 -0.15873,2.75782 0.037,4.10058 0.83036,1.29181 2.23649,2.255 3.10172,3.56559 0.80756,0.45742 1.48524,1.20819 2.44303,1.43489 0.78206,0.76999 1.94624,0.97258 2.99659,0.99269 0.80218,0.60499 1.61821,0.99961 2.39355,1.67301 0.99402,0.26026 1.87502,0.54218 2.60076,1.26791 0.81291,0.51108 1.65618,0.6934 2.28532,1.51838 0.77803,0.52317 1.35267,1.24366 2.31315,1.45964 0.82633,0.37158 1.64024,0.79272 2.52961,1.07308 0.93499,0.24951 1.73567,0.66536 2.6626,0.81022 0.92158,0.1998 1.27148,-0.23828 2.40903,-0.0773 0.84912,-0.43461 1.98428,-0.30979 2.51416,-1.18439 1.28509,-0.7861 2.11876,-2.22683 2.48632,-3.67693 0.17437,-0.90546 0.58833,-1.70723 -0.0649,-2.61003 -0.16365,-1.04899 -1.33087,-1.01512 -1.53075,-1.94205 -0.52988,-0.65866 -0.71915,-1.62753 -1.38852,-2.2513 0.005,-1.03694 0.21638,-2.31249 1.1071,-2.95638 0.78071,-0.97657 2.06899,-1.54697 2.53582,-2.73683 0.11131,-1.23278 0.71434,-2.73294 -0.16699,-3.79134 0.0505,-0.25726 0.0283,-0.47428 -0.0309,-0.67106 -1.40652,-0.59225 -2.80853,-1.16454 -4.20574,-1.71939 -0.52167,-0.0236 -1.04307,-0.0423 -1.55859,-0.10513 -1.40046,-0.30183 -2.99898,0.16083 -4.27068,-0.57828 -0.93095,-0.38099 -2.07543,0.0578 -2.88833,-0.41439 -0.79279,-0.94571 -2.20074,0.13743 -3.06462,-0.46079 -0.62377,-0.0516 -1.24833,-0.15168 -1.87093,-0.18244 z m 20.11638,15.06949 c -0.92829,-0.22266 -1.29398,1.92763 -0.18864,0.62778 0.14488,-0.24951 0.59912,-0.36485 0.18864,-0.62778 z m -0.23194,1.32976 c -0.22419,0.0561 -0.54853,0.46846 -0.8195,1.06071 -0.45878,0.68949 -0.53804,2.27183 0.70817,1.84929 0.51242,-0.50979 0.30022,-1.1851 0.32161,-1.82765 0.13617,-0.83638 0.0143,-1.13835 -0.21028,-1.08235 z m -1.44107,0.4484 c -0.21801,-0.0228 -0.2512,0.63731 0.26593,0.31235 -0.10022,-0.221 -0.19327,-0.30476 -0.26593,-0.31235 z m -5.42107,32.95932 c -0.31841,-0.006 -0.63772,0.006 -0.95866,0.0464 -0.50841,0.79681 -0.7062,1.7395 -1.82764,1.71939 -0.69353,0.66535 -1.57558,0.52226 -2.2946,1.0669 -1.41387,-0.10054 -1.78784,1.4192 -2.60075,2.24821 -1.15362,0.92023 -0.78475,2.46243 -0.99267,3.75424 -0.42521,0.84645 0.15927,1.70729 0.099,2.64093 -0.0966,1.16304 0.45994,2.12547 0.67725,3.22543 -0.10862,1.8163 0.79909,3.43083 1.68847,4.94792 -0.92291,0.5541 -0.81276,1.71608 -1.33594,2.09978 -0.83811,-0.1823 -0.97522,0.39441 -0.98648,1.02668 9.81776,6.65811 18.65781,14.61898 26.38476,23.52427 0.77365,-0.29194 1.3706,-0.58348 1.35139,0.72671 0.1879,0.44339 0.33559,0.90564 0.46698,1.37614 3.34957,4.01789 6.45054,8.23435 9.333,12.58936 0.73473,-0.1406 1.46501,-1.38677 1.5555,-0.39584 -0.15168,0.57241 -0.4448,1.12865 -0.68652,1.70394 14.27052,22.084 22.40788,47.98224 22.40788,73.99302 0,1.23617 -0.0576,2.49101 -0.0928,3.73875 0.63194,-0.37864 0.39056,-1.68224 0.45151,-2.38117 0.11004,-0.89881 1.23791,-1.74548 2.12451,-1.11638 1.40988,0.1637 0.14219,1.90298 1.17514,2.50797 0.76198,-0.40239 2.08316,-0.4018 2.51105,-0.8968 0.12335,-0.7217 -1.06289,-2.52914 0.37111,-1.50293 0.97268,-0.0591 0.73941,-1.69056 0.93391,-2.47396 0.60051,-0.78609 0.25902,-1.74566 0.68962,-2.43376 0.57809,-0.93371 1.72938,-0.81937 2.62548,-0.46387 1.14499,0.15438 1.20848,1.27405 1.15349,2.19564 1.1831,0.2065 2.24029,-0.37632 3.2316,-0.92774 1.19661,-0.47349 1.64678,-1.75357 1.44418,-2.95947 -0.98189,-0.216 -1.79454,-0.94207 -2.27605,-1.77506 0.25351,-0.7257 0.069,-2.31646 1.11947,-2.39047 0.91751,0.0644 1.0598,-1.09853 2.1276,-1.08854 1.61641,-0.19449 -0.16427,-1.55008 0.68343,-1.88948 -0.0535,-1.07849 0.74827,-2.05576 1.86167,-2.06575 0.86919,1.0048 2.01519,1.65603 3.0306,2.48633 0.7432,1.30389 1.57263,-0.39332 2.60692,0.17008 0.79811,0.7675 1.80698,-0.37782 2.79558,-0.0773 1.03701,0.2173 1.85336,-0.73953 2.80176,-0.51952 0.774,0.54319 1.46992,1.16144 2.48941,1.08544 0.9189,0.48021 1.93327,0.33487 2.55438,1.36377 0.79819,1.25291 2.43873,-0.2714 3.38312,0.73601 0.71101,0.43879 2.11597,-0.7163 2.39356,0.3649 -0.0483,1.367 1.19616,1.98798 2.02247,2.83578 0.80489,0.66539 1.53072,1.38518 1.46273,2.50797 0.8639,0.19991 1.54989,1.35384 2.4554,0.59994 1.00469,0.0143 1.74127,-1.03322 2.71517,-0.23503 1.0705,0.20251 0.89002,-1.4475 0.64322,-2.12761 -0.20119,-1.0678 0.0766,-2.00385 0.49788,-2.96564 0.74051,-1.05571 0.91962,-2.45374 2.04103,-3.22234 0.76999,-0.3354 1.86591,-0.53569 1.58951,-1.68538 0.3126,-0.9551 -0.65753,-1.84371 0.42367,-2.375 0.558,-0.65191 1.35482,-1.28301 1.91422,-0.2474 0.61031,0.9725 2.07418,-0.0371 2.22038,-0.69581 0.275,-1.1375 -0.21047,-2.02347 -0.74837,-2.34406 0.7016,-1.06921 1.70493,0.41947 2.31934,0.90917 0.87859,1.15091 1.36661,-0.60536 2.1245,-0.99576 0.3569,-1.08791 0.0182,-2.49147 -0.51024,-3.53777 -0.78081,-0.6681 -1.08322,-1.52543 -1.34213,-2.48324 -0.72571,-0.6922 -0.38065,-2.18861 -1.57714,-2.36572 -1.0678,-0.0416 -0.9462,-1.77096 -2.13071,-1.41015 -0.8142,1.2717 -1.76293,2.80733 -3.46663,2.85433 -1.32801,0.12334 -0.24618,1.52756 -0.46077,2.34716 0.2522,0.96051 -0.8344,1.40375 -1.02361,2.23275 -0.6063,0.8075 1.12077,1.32392 0.79476,2.32861 0.40521,0.58761 -1.13671,2.54567 -1.06071,1.24317 0.41721,-1.0101 0.14583,-2.36197 -0.99576,-1.16277 -0.5553,-0.90949 -0.0462,-2.09232 -0.83497,-2.89452 0.546,-0.87059 0.93749,-1.80943 1.15349,-2.81412 0.2803,-0.89881 0.72639,-1.78003 0.86588,-2.65334 0.7955,-0.48149 1.86713,-0.61876 1.91113,-1.81526 0.6425,-1.28379 -1.1597,-0.94035 -1.27099,-1.98535 -0.6399,-1.2489 1.29682,-1.49236 1.42562,-2.55745 -0.24151,-0.8303 -1.36773,-1.41053 -1.46273,-2.40592 -0.13949,-0.951 -0.2254,-1.8254 -1.104,-2.37811 0.0549,-1.51979 0.32492,-3.07415 -0.17009,-4.56445 -0.44,-1.29179 -1.34115,-3.11492 -2.96565,-2.85742 0.0268,1.1054 -1.23568,2.33633 -2.26059,1.54623 -1.37899,0.055 -1.71744,-1.58279 -2.72753,-2.21728 -0.89881,-0.3072 -1.92215,-0.44409 -2.48015,-1.27718 -1.6929,-0.22401 -1.35216,-2.61296 -2.79556,-3.20997 -0.8357,0.2308 -1.9615,0.98817 -2.6255,0.62467 -0.3985,-0.94569 -0.9063,-2.04223 -1.84001,-2.60693 -1.273,0.0671 -2.34325,-1.04132 -2.18636,-2.32243 1.01951,-0.9779 2.78519,-1.57912 2.95021,-3.14192 0.37959,-1.23671 -1.32411,-1.17558 -2.12762,-1.32048 -0.9457,0.0549 -2.30201,-0.27777 -2.4925,0.97102 -1.15101,0.6989 -2.66618,0.25427 -3.94597,0.0557 -1.56949,-0.5862 -2.86111,-1.83947 -4.17172,-2.87907 -1.3132,-0.95239 -0.50868,-2.84555 -1.56169,-3.91194 -0.96179,-1.15912 -2.20069,-2.04288 -3.39859,-2.91619 -0.7606,-0.6238 -1.66958,-0.56967 -2.58837,-0.62467 -0.7821,0.33081 -1.8944,0.65882 -2.6657,-0.01 -1.15449,-0.45869 -0.69678,-1.81917 -1.24007,-2.71516 -0.50969,-1.50111 -2.50027,-0.54237 -3.29037,-1.77508 -0.62239,-1.00749 0.0548,-2.4424 -0.38656,-3.5625 -0.4655,-0.77939 -0.70871,-2.4386 -1.9173,-1.9637 -1.3187,0.2562 0.43518,1.68803 -0.49171,2.28222 -1.4997,0.7137 -2.8211,-0.81597 -3.19141,-2.13997 -0.0819,-1.29179 -1.4528,-0.80915 -2.20801,-0.38655 -0.7445,0.0644 -1.90883,-0.37757 -2.27913,-1.19987 -0.9296,-0.84909 -0.0283,-1.63984 0.70817,-2.23275 0.766,-0.8398 1.08976,-2.37174 0.55046,-3.34294 -0.5701,-0.91479 -2.03943,0.76397 -2.24203,-0.68343 -0.35679,-0.8947 -0.0158,-2.10063 -0.85969,-2.73372 0.0684,-1.0222 -0.38462,-1.77836 -1.46582,-1.98226 -1.23421,-0.25221 -0.55809,1.42665 -0.6587,2.15234 0.5165,0.7593 0.64811,1.71035 0.57211,2.64405 -0.34341,1.3427 1.31177,2.02418 1.39778,3.20068 -0.18919,0.41981 -1.54414,-0.99619 -2.18945,-0.0464 -1.2958,-0.76329 -1.76586,-2.37421 -2.71826,-3.47282 -1.03421,-0.9336 -2.26777,-1.79218 -3.62126,-2.17708 -1.06509,-1.06651 -2.65104,-1.73567 -3.09244,-3.29036 -0.13538,-1.2636 -1.56245,-0.70517 -2.19564,-1.40397 -0.8116,-0.95651 0.51103,-1.90214 1.29573,-2.35954 1.36291,-0.75531 0.43097,-1.72409 -0.80713,-1.48128 -1.041,0.2052 -1.70574,-1.32991 -2.65951,-0.65251 -1.03563,0.6372 -1.59599,-1.25541 -1.02051,-1.96371 0.95914,-0.8357 1.66407,-1.83832 2.3348,-2.90072 0.3806,-1.4649 -0.30064,-3.07105 0.0494,-4.56136 0.98591,-1.0906 -0.0255,-1.49196 -0.96175,-0.71125 -0.96985,-0.39031 -1.90137,-0.90917 -2.86051,-1.28337 -1.14693,-0.76871 0.3242,-1.49704 0.21956,-2.35955 -0.31792,-1.1375 -1.42117,-1.93975 -2.23275,-2.75536 -0.9162,-0.2844 -1.19327,-1.42014 -2.29458,-1.29265 -1.27304,0.10466 -2.0191,-1.08006 -2.01009,-2.22965 -0.91487,-0.5862 -1.21295,-1.57178 -1.85548,-2.38737 -0.50304,-1.12681 -1.67616,-2.07605 -1.52458,-3.38933 -0.14487,-1.18986 1.88035,-0.76423 1.53695,-1.98225 -0.114,-1.05303 -1.13309,-1.13913 -1.72867,-1.9668 -1.53059,0.21731 -2.7664,-0.84021 -4.27687,-0.77311 -0.86523,-0.80353 -1.76268,-1.65085 -2.86669,-2.06266 -0.68145,-0.90413 -2.17512,0.95736 -1.78744,-0.29687 0.25465,-0.92477 -1.55327,-0.78398 -1.92041,-1.6854 -0.63718,-0.41987 -1.39401,-0.64891 -2.14925,-0.72672 -2.26301,-0.0774 -4.44155,-1.12152 -6.67041,-1.16894 z m 16.17659,2.68733 c -0.32725,-0.0127 -0.63101,0.11067 -0.82568,0.44222 -0.85584,0.88266 0.5342,2.01071 1.41015,1.22462 0.56341,-0.0111 1.66725,-0.0956 0.8597,-0.81331 -0.28589,-0.43094 -0.89876,-0.83111 -1.44417,-0.85353 z m 7.42187,8.73308 c -0.33646,0.0359 -0.79879,0.51846 -1.00503,0.81022 -1.16304,0.90412 1.41209,0.83391 1.39469,-0.25667 -0.0291,-0.43513 -0.18777,-0.57515 -0.38966,-0.55355 z m 5.71177,6.12923 c -0.57548,1.0167 0.17423,2.39153 1.04215,1.05142 -0.0684,-0.91478 -0.1045,-1.07242 -1.04215,-1.05142 z m 2.29458,2.12143 c -0.42405,-0.0111 -0.76462,0.26302 -0.64321,0.91226 -0.23611,1.21019 1.1969,1.36009 2.06884,1.19368 -0.0524,-0.4453 -0.003,-0.90994 -0.28451,-1.28955 -0.21061,-0.505 -0.71706,-0.80484 -1.14112,-0.81639 z m 11.01221,17.13215 c -0.25375,-0.008 -0.49878,0.0323 -0.68961,0.12984 -1.2516,0.2428 -0.13885,1.98624 0.79476,1.17203 0.38769,-0.0111 0.77635,-0.0242 1.16275,-0.0402 0.33098,-0.76462 -0.50667,-1.23712 -1.2679,-1.26171 z m -0.61539,3.76042 c -0.9926,0.46541 0.62256,1.09576 0.91226,1.48746 0.5447,0.56351 2.38721,0.70736 1.92041,-0.47314 -0.37159,-1.3468 -1.90568,-0.53812 -2.83267,-1.01432 z m -1.86474,2.55745 c -0.4245,0.17181 0.43339,1.32048 0.91227,0.27214 -0.48861,-0.277 -0.77079,-0.3294 -0.91227,-0.27214 z m 75.25781,76.0804 c -0.7995,0.17031 -1.41627,1.30089 -2.26676,1.68849 -0.72571,0.6158 -2.09545,-0.34978 -1.86476,1.25862 -0.8008,1.13761 0.71667,1.49421 1.45037,0.8195 1.59229,-0.11669 2.87861,-1.11826 4.1315,-2.02245 0.0724,-1.02881 -0.62396,-1.35385 -1.45035,-1.74416 z m -44.80031,5.69939 c -0.12872,-0.0279 -0.31229,0.0625 -0.56281,0.34017 -1.277,0.59429 -0.11289,1.71347 0.5752,1.32047 0.26661,-0.42254 0.37373,-1.57723 -0.0127,-1.66064 z m 35.46111,0.26595 c -0.95199,0.3018 -1.16992,1.96514 0.0896,1.25553 l 0.0773,-0.0279 c 1.4756,-0.2053 0.69961,-0.8481 -0.167,-1.2277 z m 13.51401,0.17627 c -0.34563,-0.0936 -0.74086,1.37834 0.27521,1.04834 l 0,-0.13917 0,-0.17009 c -0.0499,-0.50405 -0.16001,-0.70789 -0.27521,-0.7391 z m -38.11752,0.21647 c -0.20418,-0.0293 -0.42226,-0.0174 -0.63086,0.0402 -1.19661,0.3636 0.65572,1.61297 1.37614,1.24007 0.3471,-0.72944 -0.13269,-1.19243 -0.74528,-1.28027 z m 33.91488,0.0309 c -0.48542,0.10767 -0.64388,1.2504 -0.66488,1.79672 0.19179,0.7445 1.20867,-0.18258 1.73177,1.29573 0.4333,0.6882 1.25313,-1.31746 0.64013,-1.86475 -0.15026,-0.6238 -0.5487,-0.75642 -1.104,-0.93083 -0.24147,-0.25487 -0.44122,-0.33277 -0.60302,-0.29687 z m 1.89876,0.25667 c -0.33671,0.61041 1.44297,1.94126 1.40398,0.79167 0.21739,-0.931 -0.91169,-0.35566 -1.40398,-0.79167 z m -23.44076,0.27215 c -0.27806,0.10671 -0.61365,1.06292 0.21339,0.27212 -0.0348,-0.2495 -0.12065,-0.30773 -0.21339,-0.27212 z m 24.6963,1.88329 c -0.41721,-0.0659 -0.48382,0.5669 0.50716,0.35563 -0.19116,-0.23442 -0.3681,-0.33368 -0.50716,-0.35563 z m -13.28825,0.34944 c -0.75587,0.11939 -0.35055,1.89069 0.51334,0.85662 -0.0388,-0.26421 -0.0785,-0.52917 -0.11748,-0.79477 -0.15738,-0.0633 -0.28785,-0.0788 -0.39583,-0.0619 z m 13.90055,0.74528 c -0.42221,0.1216 -0.7975,1.38295 0.39273,0.44222 l -0.0127,-0.0619 c -0.0948,-0.33646 -0.23964,-0.42092 -0.38037,-0.38038 z m -11.47299,1.24936 c -0.36597,0.0986 -0.99889,0.7971 -1.19678,1.1844 -1.10399,0.77 0.0342,2.08577 0.97722,1.16277 0.1663,-0.5432 0.15469,-1.18869 0.43912,-1.6823 0.12224,-0.56591 3e-5,-0.72409 -0.21956,-0.66487 z"
     id="path18"
     inkscape:connector-curvature="0" />
</svg>
