<?xml version="1.0" encoding="UTF-8" ?>
<!DOCTYPE svg PUBLIC "-//W3C//DTD SVG 1.1//EN" "http://www.w3.org/Graphics/SVG/1.1/DTD/svg11.dtd">
<svg width="1000pt" height="820pt" viewBox="0 0 1000 820" version="1.1" xmlns="http://www.w3.org/2000/svg">
<g id="#000000ff">
<path fill="#000000" opacity="1.00" d=" M 464.76 4.16 C 578.17 4.28 691.59 4.15 805.01 4.22 C 816.33 4.20 827.66 4.75 838.97 4.23 C 890.65 4.08 942.33 4.33 994.01 4.15 C 993.92 69.67 994.20 135.19 993.89 200.70 C 944.27 200.59 894.66 200.72 845.04 200.66 C 830.36 201.13 815.68 200.75 801.00 200.67 C 735.14 200.78 669.29 200.66 603.44 200.67 C 603.53 300.02 603.32 399.37 603.52 498.72 C 596.58 500.75 589.47 502.12 582.53 504.11 C 584.70 502.99 587.04 502.26 589.43 501.75 C 593.95 500.73 598.44 499.57 602.93 498.40 C 602.93 481.49 602.80 464.57 602.97 447.66 C 602.94 421.94 603.18 396.22 602.85 370.50 C 603.03 335.95 602.81 301.41 602.86 266.86 C 493.83 266.80 384.79 266.79 275.75 266.86 C 275.29 273.19 271.76 278.75 271.29 285.06 C 270.99 288.06 269.24 290.80 269.55 293.87 C 269.75 297.26 269.23 300.64 269.29 304.03 C 269.33 306.47 271.01 308.53 271.18 310.95 C 271.46 315.82 269.22 320.62 270.40 325.48 C 271.00 327.21 270.05 328.84 269.40 330.39 C 269.47 329.18 269.72 328.00 270.14 326.87 C 268.35 322.35 270.30 317.58 270.58 312.97 C 271.28 309.06 267.77 305.87 268.71 301.92 C 269.41 297.26 268.13 292.38 270.04 287.94 C 271.10 284.39 270.82 280.52 272.53 277.14 C 274.12 273.76 274.34 270.00 275.40 266.48 C 277.63 262.50 281.25 259.60 284.14 256.15 C 285.41 252.77 287.91 249.74 287.85 245.97 C 288.04 243.00 290.09 240.58 290.51 237.65 C 291.79 229.96 295.86 222.89 301.32 217.40 C 307.40 209.92 310.89 200.48 311.59 190.89 C 312.37 188.18 309.96 185.78 310.70 183.11 C 311.10 179.39 314.44 177.23 316.29 174.28 C 317.55 172.58 318.41 170.44 320.26 169.27 C 325.02 167.28 330.83 167.49 334.70 163.68 C 338.54 160.22 342.86 157.01 345.26 152.29 C 346.03 151.21 346.44 149.43 348.03 149.34 C 355.06 148.75 363.19 149.86 368.95 144.89 C 372.37 142.05 376.88 141.19 380.53 138.73 C 384.46 136.25 387.84 132.87 392.28 131.25 C 398.28 128.98 403.51 125.24 408.86 121.77 C 413.42 119.20 417.06 115.28 420.24 111.18 C 424.49 103.57 429.11 95.78 430.18 86.99 C 432.23 82.80 433.66 78.36 435.34 74.01 C 436.70 70.48 436.11 66.60 437.16 63.01 C 439.79 56.07 445.52 51.16 449.28 44.90 C 449.94 41.73 451.89 39.03 453.05 36.03 C 456.99 29.65 459.21 22.39 461.15 15.19 C 461.80 11.33 464.26 8.07 464.76 4.16 Z" />
<path fill="#000000" opacity="1.00" d=" M 265.78 338.86 C 267.09 336.29 267.67 333.40 269.19 330.95 C 268.58 334.29 267.12 337.35 265.70 340.41 C 264.04 344.54 265.13 349.29 263.00 353.27 C 264.34 348.54 263.53 343.34 265.78 338.86 Z" />
<path fill="#000000" opacity="1.00" d=" M 253.77 358.83 C 256.78 357.60 259.58 355.97 262.27 354.14 C 259.97 357.08 256.19 357.93 253.14 359.79 C 252.21 361.17 251.59 362.72 250.76 364.16 C 251.54 362.29 251.39 359.49 253.77 358.83 Z" />
<path fill="#000000" opacity="1.00" d=" M 224.94 382.32 C 227.40 380.17 229.04 377.02 232.16 375.71 C 229.66 377.82 227.88 380.75 224.94 382.32 Z" />
<path fill="#000000" opacity="1.00" d=" M 223.49 383.60 C 223.51 383.55 223.54 383.46 223.56 383.41 C 223.54 383.46 223.51 383.55 223.49 383.60 Z" />
<path fill="#000000" opacity="1.00" d=" M 221.19 388.04 C 220.34 386.86 221.66 384.27 223.18 384.88 C 223.04 386.18 222.26 387.30 221.19 388.04 Z" />
<path fill="#000000" opacity="1.00" d=" M 216.15 395.10 C 217.34 393.05 218.50 390.96 220.12 389.21 C 219.03 391.31 217.99 393.53 216.15 395.10 Z" />
<path fill="#000000" opacity="1.00" d=" M 204.02 404.99 C 203.49 403.16 206.56 401.39 208.08 402.33 C 207.10 403.72 205.65 404.59 204.02 404.99 Z" />
<path fill="#000000" opacity="1.00" d=" M 201.45 407.34 C 201.08 405.67 201.75 405.01 203.45 405.37 C 203.14 406.41 202.47 407.06 201.45 407.34 Z" />
<path fill="#000000" opacity="1.00" d=" M 195.84 413.69 C 196.85 411.53 197.82 409.21 199.98 407.94 C 198.70 409.64 197.63 411.48 196.43 413.24 L 195.84 413.69 Z" />
<path fill="#000000" opacity="1.00" d=" M 192.21 415.22 L 193.13 414.64 L 194.00 415.03 C 193.55 415.31 192.65 415.86 192.20 416.13 L 192.21 415.22 Z" />
<path fill="#000000" opacity="1.00" d=" M 190.37 417.58 C 190.40 417.53 190.46 417.43 190.49 417.39 C 190.46 417.43 190.40 417.53 190.37 417.58 Z" />
<path fill="#000000" opacity="1.00" d=" M 182.49 428.07 C 181.73 426.89 182.53 423.77 184.27 424.35 C 184.27 425.79 183.88 427.36 182.49 428.07 Z" />
<path fill="#000000" opacity="1.00" d=" M 170.05 435.08 C 172.19 432.92 175.50 433.12 178.12 431.83 C 175.78 433.67 172.71 433.93 170.05 435.08 Z" />
<path fill="#000000" opacity="1.00" d=" M 161.96 439.04 C 164.02 437.37 166.61 436.63 169.04 435.68 C 166.84 437.10 164.41 438.12 161.96 439.04 Z" />
<path fill="#000000" opacity="1.00" d=" M 159.32 440.36 L 160.17 439.69 L 161.04 439.98 C 160.63 440.30 159.80 440.95 159.38 441.27 L 159.32 440.36 Z" />
<path fill="#000000" opacity="1.00" d=" M 140.77 462.34 C 141.37 457.43 145.02 453.62 148.87 450.85 C 145.83 454.45 142.01 457.52 140.77 462.34 Z" />
<path fill="#000000" opacity="1.00" d=" M 157.35 452.46 C 157.39 452.43 157.49 452.38 157.53 452.35 C 157.49 452.38 157.39 452.43 157.35 452.46 Z" />
<path fill="#000000" opacity="1.00" d=" M 142.43 468.70 C 144.17 463.79 145.46 458.19 149.79 454.84 C 146.41 458.85 144.27 463.70 142.99 468.76 C 142.35 471.30 140.36 472.98 138.04 473.98 C 139.57 472.28 141.74 470.99 142.43 468.70 Z" />
<path fill="#000000" opacity="1.00" d=" M 154.21 471.23 C 155.05 467.30 156.56 463.38 160.21 461.26 C 159.07 462.74 157.72 464.05 156.69 465.62 C 155.79 467.45 155.44 469.55 154.21 471.23 Z" />
<path fill="#000000" opacity="1.00" d=" M 137.96 466.96 C 137.11 465.75 138.94 463.76 140.22 464.48 C 140.10 465.69 139.25 466.87 137.96 466.96 Z" />
<path fill="#000000" opacity="1.00" d=" M 135.45 471.30 C 135.12 469.69 135.77 469.06 137.40 469.43 C 137.23 470.51 136.58 471.14 135.45 471.30 Z" />
<path fill="#000000" opacity="1.00" d=" M 133.46 476.54 C 131.88 475.83 132.96 473.89 133.08 472.67 C 133.11 473.28 133.18 474.51 133.21 475.12 C 133.43 477.68 136.14 476.06 137.08 475.00 C 136.84 476.72 134.88 477.44 133.46 476.54 Z" />
<path fill="#000000" opacity="1.00" d=" M 139.82 488.94 C 142.16 483.87 145.19 478.93 149.18 475.03 C 145.74 479.46 142.93 484.30 139.82 488.94 Z" />
<path fill="#000000" opacity="1.00" d=" M 138.49 490.57 C 138.52 490.53 138.58 490.45 138.61 490.41 C 138.58 490.45 138.52 490.53 138.49 490.57 Z" />
<path fill="#000000" opacity="1.00" d=" M 135.20 501.36 C 136.22 498.13 136.65 494.73 137.94 491.59 C 137.23 494.87 137.10 498.47 135.20 501.36 Z" />
<path fill="#000000" opacity="1.00" d=" M 574.57 507.94 C 576.80 506.64 579.15 505.54 581.55 504.57 L 582.27 504.28 C 579.92 505.92 577.30 507.11 574.57 507.94 Z" />
<path fill="#000000" opacity="1.00" d=" M 573.42 508.55 C 573.48 508.52 573.59 508.47 573.64 508.44 C 573.59 508.47 573.48 508.52 573.42 508.55 Z" />
<path fill="#000000" opacity="1.00" d=" M 568.74 510.25 C 569.92 509.79 571.11 509.40 572.32 509.00 C 568.43 511.25 564.29 513.10 560.12 514.74 C 552.46 516.14 544.67 516.73 537.00 517.97 C 534.65 518.48 532.91 520.40 530.60 521.03 C 532.85 519.50 534.99 517.41 537.86 517.23 C 544.21 516.35 550.57 515.58 556.93 514.73 C 561.21 514.33 564.89 511.95 568.74 510.25 Z" />
<path fill="#000000" opacity="1.00" d=" M 121.84 521.12 C 123.31 518.13 123.87 514.62 126.07 512.05 C 124.72 515.09 123.83 518.39 121.84 521.12 Z" />
<path fill="#000000" opacity="1.00" d=" M 520.46 527.35 C 523.27 525.38 526.13 523.48 529.17 521.90 C 526.70 524.29 523.67 526.12 520.46 527.35 Z" />
<path fill="#000000" opacity="1.00" d=" M 117.09 532.16 C 118.55 529.05 118.52 525.24 120.82 522.58 C 119.41 525.70 119.12 529.33 117.09 532.16 Z" />
<path fill="#000000" opacity="1.00" d=" M 514.66 530.98 C 516.07 529.54 517.78 528.44 519.67 527.74 C 519.93 529.84 516.46 531.69 514.66 530.98 Z" />
<path fill="#000000" opacity="1.00" d=" M 113.39 535.34 C 112.63 533.89 115.08 532.41 116.18 533.44 C 115.58 534.41 114.68 535.52 113.39 535.34 Z" />
<path fill="#000000" opacity="1.00" d=" M 107.93 543.74 C 108.58 540.84 109.92 538.06 112.04 535.96 C 111.19 538.48 107.61 541.16 109.81 543.79 C 109.34 543.78 108.40 543.75 107.93 543.74 Z" />
<path fill="#000000" opacity="1.00" d=" M 498.59 541.03 C 501.30 539.04 504.18 537.31 507.13 535.71 C 504.77 538.13 501.70 539.79 498.59 541.03 Z" />
<path fill="#000000" opacity="1.00" d=" M 110.95 542.37 C 111.88 541.00 114.03 541.45 114.97 542.58 C 113.59 543.22 112.25 543.15 110.95 542.37 Z" />
<path fill="#000000" opacity="1.00" d=" M 116.31 543.87 C 117.44 546.71 116.22 549.74 115.02 552.34 C 115.70 549.56 116.12 546.72 116.31 543.87 Z" />
<path fill="#000000" opacity="1.00" d=" M 490.91 545.85 C 491.33 545.56 492.18 544.97 492.60 544.68 C 492.38 545.05 491.95 545.80 491.73 546.17 L 490.91 545.85 Z" />
<path fill="#000000" opacity="1.00" d=" M 486.60 548.43 C 486.98 547.33 487.72 546.80 488.82 546.83 C 488.95 548.43 488.21 548.97 486.60 548.43 Z" />
<path fill="#000000" opacity="1.00" d=" M 112.12 558.01 C 111.21 556.74 112.61 553.82 114.27 554.38 C 114.06 555.82 113.46 557.26 112.12 558.01 Z" />
<path fill="#000000" opacity="1.00" d=" M 480.67 555.79 C 480.71 555.74 480.79 555.64 480.83 555.59 C 480.79 555.64 480.71 555.74 480.67 555.79 Z" />
<path fill="#000000" opacity="1.00" d=" M 110.24 559.50 C 110.32 559.44 110.49 559.31 110.57 559.25 L 110.41 559.39 L 110.24 559.50 Z" />
<path fill="#000000" opacity="1.00" d=" M 100.00 563.01 C 102.88 562.78 105.66 562.08 108.28 560.87 C 105.66 563.61 101.26 562.55 98.69 565.26 C 99.02 564.70 99.67 563.57 100.00 563.01 Z" />
<path fill="#000000" opacity="1.00" d=" M 95.25 577.85 C 95.82 575.17 97.65 573.10 99.27 571.00 C 97.29 575.23 94.38 579.23 94.35 584.11 C 94.47 590.21 93.12 596.18 91.83 602.11 C 91.78 599.32 92.00 596.53 92.89 593.88 C 94.47 588.64 92.56 582.80 95.25 577.85 Z" />
<path fill="#000000" opacity="1.00" d=" M 472.89 594.68 C 474.81 599.82 476.60 605.12 477.20 610.60 C 480.09 656.02 483.21 701.44 486.47 746.84 C 436.01 746.81 385.54 746.31 335.07 746.50 C 309.03 746.67 282.99 746.88 256.95 747.13 C 178.96 747.02 100.97 746.56 22.97 746.95 C 21.32 755.06 20.12 763.30 17.90 771.28 C 18.87 762.88 21.08 754.68 22.49 746.35 C 100.64 746.00 178.80 746.43 256.96 746.53 C 282.64 746.34 308.32 746.07 334.00 745.93 C 384.58 745.64 435.17 746.31 485.74 746.22 C 482.73 701.50 479.49 656.79 476.68 612.06 C 476.52 606.05 473.79 600.56 472.89 594.68 Z" />
<path fill="#000000" opacity="1.00" d=" M 86.43 606.25 C 86.48 604.43 89.47 602.98 91.13 603.41 C 90.28 605.18 88.38 606.26 86.43 606.25 Z" />
<path fill="#000000" opacity="1.00" d=" M 83.37 611.05 C 82.03 609.88 83.16 606.41 85.08 607.16 C 84.76 608.55 84.16 609.86 83.37 611.05 Z" />
<path fill="#000000" opacity="1.00" d=" M 76.35 629.97 C 75.58 628.51 75.96 627.64 77.48 627.36 C 77.77 628.49 77.39 629.36 76.35 629.97 Z" />
<path fill="#000000" opacity="1.00" d=" M 73.31 631.30 L 74.24 630.78 L 75.05 631.19 C 74.60 631.45 73.69 631.96 73.23 632.21 L 73.31 631.30 Z" />
<path fill="#000000" opacity="1.00" d=" M 55.51 633.18 C 57.23 633.73 58.90 634.53 60.04 636.01 C 60.89 635.94 62.58 635.79 63.43 635.71 C 62.68 636.27 62.04 636.94 61.52 637.74 C 59.79 636.11 57.87 634.34 55.37 634.20 L 55.51 633.18 Z" />
<path fill="#000000" opacity="1.00" d=" M 51.96 637.07 C 51.80 635.49 52.53 634.89 54.16 635.28 C 53.88 636.38 53.15 636.97 51.96 637.07 Z" />
<path fill="#000000" opacity="1.00" d=" M 48.84 641.79 C 49.04 640.34 49.15 638.87 49.78 637.54 C 49.68 639.08 49.77 640.70 49.32 642.22 C 48.17 642.68 47.01 643.11 45.83 643.51 C 46.73 642.76 47.74 642.19 48.84 641.79 Z" />
<path fill="#000000" opacity="1.00" d=" M 44.46 644.93 L 44.94 645.06 C 44.90 646.55 44.72 648.33 43.18 649.05 C 42.46 647.73 43.33 645.77 44.46 644.93 Z" />
<path fill="#000000" opacity="1.00" d=" M 31.83 667.18 C 32.30 664.69 32.53 662.03 34.11 659.95 C 33.45 662.38 32.93 664.89 31.83 667.18 Z" />
<path fill="#000000" opacity="1.00" d=" M 24.66 682.19 C 25.70 679.53 25.58 676.46 27.05 673.99 C 26.64 676.81 26.33 679.77 24.66 682.19 Z" />
<path fill="#000000" opacity="1.00" d=" M 21.09 695.83 C 20.25 691.49 21.50 686.56 24.20 683.04 C 22.28 687.04 21.56 691.45 21.09 695.83 Z" />
<path fill="#000000" opacity="1.00" d=" M 19.97 709.80 C 21.23 713.32 20.21 717.09 19.47 720.62 C 19.50 717.00 20.00 713.41 19.97 709.80 Z" />
<path fill="#000000" opacity="1.00" d=" M 18.41 724.08 C 17.37 722.57 17.69 721.65 19.36 721.32 C 19.45 722.37 19.13 723.29 18.41 724.08 Z" />
<path fill="#000000" opacity="1.00" d=" M 14.20 743.48 C 15.03 739.61 14.52 735.46 16.09 731.77 C 15.52 735.68 15.89 739.80 14.20 743.48 Z" />
<path fill="#000000" opacity="1.00" d=" M 13.00 757.02 C 13.64 752.69 12.37 748.12 14.03 743.98 C 13.58 747.91 13.95 751.88 13.67 755.83 C 13.51 756.13 13.17 756.72 13.00 757.02 Z" />
<path fill="#000000" opacity="1.00" d=" M 11.31 768.23 C 10.80 765.03 10.54 761.82 12.02 758.83 C 11.60 761.48 11.68 764.18 11.71 766.87 C 11.61 767.21 11.41 767.89 11.31 768.23 Z" />
<path fill="#000000" opacity="1.00" d=" M 9.53 779.80 C 9.02 777.98 7.86 774.18 10.09 773.38 C 10.07 775.47 10.88 777.97 9.53 779.80 Z" />
<path fill="#000000" opacity="1.00" d=" M 15.63 775.55 C 15.49 774.37 15.90 773.52 16.88 773.02 C 17.65 774.52 17.23 775.36 15.63 775.55 Z" />
<path fill="#000000" opacity="1.00" d=" M 6.95 790.02 C 8.42 787.07 7.66 783.71 8.60 780.67 C 8.43 783.76 9.56 787.64 6.95 790.02 Z" />
<path fill="#000000" opacity="1.00" d=" M 6.62 797.01 C 7.88 797.66 7.52 799.31 6.43 799.95 C 6.48 799.22 6.57 797.74 6.62 797.01 Z" />
</g>
<g id="#ffffffff">
<path fill="#ffffff" opacity="1.00" d=" M 275.75 266.86 C 384.79 266.79 493.83 266.80 602.86 266.86 C 602.81 301.41 603.03 335.95 602.85 370.50 C 601.39 374.50 600.14 378.56 598.90 382.62 C 581.23 382.52 563.56 382.53 545.89 382.40 C 560.01 393.99 574.36 405.30 588.54 416.81 C 583.04 435.14 577.46 453.45 572.00 471.79 C 582.32 463.74 592.66 455.72 602.97 447.66 C 602.80 464.57 602.93 481.49 602.93 498.40 C 598.44 499.57 593.95 500.73 589.43 501.75 C 574.38 492.51 561.61 479.61 552.71 464.34 C 533.38 431.78 531.55 389.73 547.50 355.45 C 558.41 331.76 577.92 311.66 602.29 301.90 C 602.25 299.44 602.24 296.98 602.23 294.52 C 591.01 295.00 579.67 295.98 569.03 299.84 C 538.96 309.94 515.39 335.35 504.97 365.01 C 492.17 400.58 497.43 442.40 519.80 473.06 C 530.18 487.43 544.17 499.27 560.35 506.59 C 563.14 507.82 566.00 508.88 568.74 510.25 C 564.89 511.95 561.21 514.33 556.93 514.73 C 550.57 515.58 544.21 516.35 537.86 517.23 C 534.99 517.41 532.85 519.50 530.60 521.03 C 530.24 521.25 529.53 521.69 529.17 521.90 C 526.13 523.48 523.27 525.38 520.46 527.35 C 520.27 527.44 519.87 527.64 519.67 527.74 C 517.78 528.44 516.07 529.54 514.66 530.98 C 514.19 531.21 513.27 531.69 512.80 531.92 C 511.63 532.23 510.63 532.93 509.86 533.84 C 509.03 534.58 508.07 535.14 507.13 535.71 C 504.18 537.31 501.30 539.04 498.59 541.03 C 498.20 541.30 497.42 541.83 497.03 542.09 C 495.45 542.77 493.74 543.05 492.04 543.02 C 387.23 542.96 282.43 543.04 177.62 542.98 C 233.66 497.30 289.70 451.62 345.74 405.94 C 319.07 384.09 292.42 362.20 265.70 340.41 C 267.12 337.35 268.58 334.29 269.19 330.95 L 269.40 330.39 C 270.05 328.84 271.00 327.21 270.40 325.48 C 269.22 320.62 271.46 315.82 271.18 310.95 C 271.01 308.53 269.33 306.47 269.29 304.03 C 269.23 300.64 269.75 297.26 269.55 293.87 C 269.24 290.80 270.99 288.06 271.29 285.06 C 271.76 278.75 275.29 273.19 275.75 266.86 Z" />
</g>
<g id="#cc0000ff">
<path fill="#cc0000" opacity="1.00" d=" M 569.03 299.84 C 579.67 295.98 591.01 295.00 602.23 294.52 C 602.24 296.98 602.25 299.44 602.29 301.90 C 577.92 311.66 558.41 331.76 547.50 355.45 C 531.55 389.73 533.38 431.78 552.71 464.34 C 561.61 479.61 574.38 492.51 589.43 501.75 C 587.04 502.26 584.70 502.99 582.53 504.11 L 581.55 504.57 C 579.15 505.54 576.80 506.64 574.57 507.94 L 573.64 508.44 C 573.59 508.47 573.48 508.52 573.42 508.55 L 572.32 509.00 C 571.11 509.40 569.92 509.79 568.74 510.25 C 566.00 508.88 563.14 507.82 560.35 506.59 C 544.17 499.27 530.18 487.43 519.80 473.06 C 497.43 442.40 492.17 400.58 504.97 365.01 C 515.39 335.35 538.96 309.94 569.03 299.84 Z" />
<path fill="#cc0000" opacity="1.00" d=" M 263.00 353.27 C 265.13 349.29 264.04 344.54 265.70 340.41 C 292.42 362.20 319.07 384.09 345.74 405.94 C 289.70 451.62 233.66 497.30 177.62 542.98 C 145.06 569.44 112.66 596.10 80.00 622.43 C 80.06 621.80 80.17 620.54 80.23 619.91 C 80.95 616.87 81.77 613.76 83.37 611.05 C 84.16 609.86 84.76 608.55 85.08 607.16 L 85.31 606.33 L 86.43 606.25 C 88.38 606.26 90.28 605.18 91.13 603.41 C 91.30 603.08 91.65 602.43 91.83 602.11 C 93.12 596.18 94.47 590.21 94.35 584.11 C 94.38 579.23 97.29 575.23 99.27 571.00 C 99.42 570.61 99.72 569.85 99.88 569.46 C 99.26 569.13 98.02 568.48 97.40 568.16 C 97.81 567.18 98.24 566.21 98.69 565.26 C 101.26 562.55 105.66 563.61 108.28 560.87 C 108.77 560.53 109.75 559.84 110.24 559.50 L 110.41 559.39 L 110.57 559.25 C 110.96 558.94 111.73 558.32 112.12 558.01 C 113.46 557.26 114.06 555.82 114.27 554.38 C 114.46 553.87 114.83 552.85 115.02 552.34 C 116.22 549.74 117.44 546.71 116.31 543.87 C 115.97 543.55 115.31 542.90 114.97 542.58 C 114.03 541.45 111.88 541.00 110.95 542.37 L 109.81 543.79 C 107.61 541.16 111.19 538.48 112.04 535.96 L 112.38 535.37 L 113.39 535.34 C 114.68 535.52 115.58 534.41 116.18 533.44 C 116.41 533.12 116.86 532.48 117.09 532.16 C 119.12 529.33 119.41 525.70 120.82 522.58 C 121.07 522.22 121.58 521.49 121.84 521.12 C 123.83 518.39 124.72 515.09 126.07 512.05 C 129.91 509.23 132.54 505.22 135.20 501.36 C 137.10 498.47 137.23 494.87 137.94 491.59 L 138.49 490.57 C 138.52 490.53 138.58 490.45 138.61 490.41 C 138.91 490.04 139.52 489.31 139.82 488.94 C 142.93 484.30 145.74 479.46 149.18 475.03 C 150.76 473.64 152.57 472.53 154.21 471.23 C 155.44 469.55 155.79 467.45 156.69 465.62 C 157.72 464.05 159.07 462.74 160.21 461.26 C 162.34 459.04 161.03 455.73 161.75 453.02 C 162.50 450.47 160.73 448.35 159.08 446.66 C 159.19 447.81 159.40 450.10 159.50 451.24 C 159.01 451.52 158.02 452.08 157.53 452.35 C 157.49 452.38 157.39 452.43 157.35 452.46 C 156.20 453.14 155.07 453.85 153.96 454.58 C 153.22 454.39 151.76 454.01 151.03 453.81 C 150.72 454.07 150.10 454.58 149.79 454.84 C 145.46 458.19 144.17 463.79 142.43 468.70 C 141.74 470.99 139.57 472.28 138.04 473.98 C 137.80 474.24 137.32 474.75 137.08 475.00 C 136.14 476.06 133.43 477.68 133.21 475.12 C 133.18 474.51 133.11 473.28 133.08 472.67 C 133.67 472.33 134.86 471.64 135.45 471.30 C 136.58 471.14 137.23 470.51 137.40 469.43 C 137.54 468.82 137.82 467.58 137.96 466.96 C 139.25 466.87 140.10 465.69 140.22 464.48 C 140.36 463.94 140.63 462.87 140.77 462.34 C 142.01 457.52 145.83 454.45 148.87 450.85 C 151.17 446.61 155.57 444.00 159.38 441.27 C 159.80 440.95 160.63 440.30 161.04 439.98 C 161.27 439.74 161.73 439.27 161.96 439.04 C 164.41 438.12 166.84 437.10 169.04 435.68 C 169.29 435.53 169.80 435.23 170.05 435.08 C 172.71 433.93 175.78 433.67 178.12 431.83 C 179.52 430.51 180.90 429.17 182.49 428.07 C 183.88 427.36 184.27 425.79 184.27 424.35 C 185.60 421.67 189.47 420.83 190.37 417.58 C 190.40 417.53 190.46 417.43 190.49 417.39 C 190.92 417.07 191.77 416.45 192.20 416.13 C 192.65 415.86 193.55 415.31 194.00 415.03 C 194.46 414.70 195.38 414.03 195.84 413.69 L 196.43 413.24 C 197.63 411.48 198.70 409.64 199.98 407.94 C 200.35 407.79 201.08 407.49 201.45 407.34 C 202.47 407.06 203.14 406.41 203.45 405.37 L 204.02 404.99 C 205.65 404.59 207.10 403.72 208.08 402.33 C 210.59 399.73 213.33 397.36 216.15 395.10 C 217.99 393.53 219.03 391.31 220.12 389.21 C 220.39 388.92 220.92 388.33 221.19 388.04 C 222.26 387.30 223.04 386.18 223.18 384.88 L 223.49 383.60 C 223.51 383.55 223.54 383.46 223.56 383.41 C 223.90 383.14 224.59 382.60 224.94 382.32 C 227.88 380.75 229.66 377.82 232.16 375.71 C 237.14 373.06 243.50 373.73 247.92 370.04 C 248.83 368.06 249.31 365.87 250.76 364.16 C 251.59 362.72 252.21 361.17 253.14 359.79 C 256.19 357.93 259.97 357.08 262.27 354.14 C 262.45 353.92 262.82 353.49 263.00 353.27 Z" />
<path fill="#cc0000" opacity="1.00" d=" M 598.90 382.62 C 600.14 378.56 601.39 374.50 602.85 370.50 C 603.18 396.22 602.94 421.94 602.97 447.66 C 592.66 455.72 582.32 463.74 572.00 471.79 C 577.46 453.45 583.04 435.14 588.54 416.81 C 574.36 405.30 560.01 393.99 545.89 382.40 C 563.56 382.53 581.23 382.52 598.90 382.62 Z" />
<path fill="#cc0000" opacity="1.00" d=" M 55.37 634.20 C 57.87 634.34 59.79 636.11 61.52 637.74 C 53.80 643.70 46.42 650.10 38.75 656.12 L 37.95 656.37 C 37.95 653.06 40.78 650.86 43.18 649.05 C 44.72 648.33 44.90 646.55 44.94 645.06 C 45.16 644.67 45.61 643.90 45.83 643.51 C 47.01 643.11 48.17 642.68 49.32 642.22 C 49.77 640.70 49.68 639.08 49.78 637.54 C 50.33 637.42 51.42 637.19 51.96 637.07 C 53.15 636.97 53.88 636.38 54.16 635.28 L 54.49 634.06 L 55.37 634.20 Z" />
</g>
<g id="#008000ff">
<path fill="#008000" opacity="1.00" d=" M 509.86 533.84 C 510.63 532.93 511.63 532.23 512.80 531.92 C 513.70 533.42 510.96 535.08 509.86 533.84 Z" />
<path fill="#008000" opacity="1.00" d=" M 492.04 543.02 C 493.74 543.05 495.45 542.77 497.03 542.09 C 495.76 543.24 494.39 544.52 492.60 544.68 C 492.18 544.97 491.33 545.56 490.91 545.85 L 490.59 546.78 C 490.15 546.79 489.26 546.82 488.82 546.83 C 487.72 546.80 486.98 547.33 486.60 548.43 C 484.98 551.05 482.74 553.20 480.83 555.59 C 480.79 555.64 480.71 555.74 480.67 555.79 C 477.96 559.75 473.87 562.95 472.65 567.77 C 471.29 571.85 469.91 575.92 468.63 580.03 C 469.99 584.93 471.74 589.72 472.89 594.68 C 473.79 600.56 476.52 606.05 476.68 612.06 C 479.49 656.79 482.73 701.50 485.74 746.22 C 435.17 746.31 384.58 745.64 334.00 745.93 C 308.32 746.07 282.64 746.34 256.96 746.53 C 178.80 746.43 100.64 746.00 22.49 746.35 C 21.08 754.68 18.87 762.88 17.90 771.28 C 17.86 771.60 17.78 772.23 17.75 772.55 L 16.88 773.02 C 15.90 773.52 15.49 774.37 15.63 775.55 C 15.59 777.56 13.36 778.82 13.31 780.86 C 13.21 783.84 13.12 786.91 11.66 789.61 C 10.46 792.94 8.05 796.29 8.99 799.97 C 9.78 804.81 11.09 809.58 11.35 814.50 C 9.56 813.47 9.14 811.41 8.24 809.75 C 7.19 807.65 4.56 806.53 4.31 804.02 C 4.26 802.38 5.32 801.01 6.43 799.95 C 7.52 799.31 7.88 797.66 6.62 797.01 C 4.44 795.43 5.12 791.66 6.95 790.02 C 9.56 787.64 8.43 783.76 8.60 780.67 L 9.53 779.80 C 10.88 777.97 10.07 775.47 10.09 773.38 C 10.15 771.59 10.75 769.89 11.31 768.23 C 11.41 767.89 11.61 767.21 11.71 766.87 C 11.68 764.18 11.60 761.48 12.02 758.83 C 12.26 758.37 12.75 757.47 13.00 757.02 C 13.17 756.72 13.51 756.13 13.67 755.83 C 13.95 751.88 13.58 747.91 14.03 743.98 L 14.20 743.48 C 15.89 739.80 15.52 735.68 16.09 731.77 C 16.96 729.24 16.94 726.34 18.41 724.08 C 19.13 723.29 19.45 722.37 19.36 721.32 L 19.47 720.62 C 20.21 717.09 21.23 713.32 19.97 709.80 L 19.70 708.98 C 20.49 705.45 21.43 701.88 23.44 698.84 C 22.76 697.75 21.98 696.73 21.09 695.83 C 21.56 691.45 22.28 687.04 24.20 683.04 C 24.31 682.83 24.54 682.40 24.66 682.19 C 26.33 679.77 26.64 676.81 27.05 673.99 C 28.50 671.62 30.42 669.57 31.83 667.18 C 32.93 664.89 33.45 662.38 34.11 659.95 C 35.30 658.69 35.94 656.49 37.95 656.37 L 38.75 656.12 C 46.42 650.10 53.80 643.70 61.52 637.74 C 62.04 636.94 62.68 636.27 63.43 635.71 C 66.44 633.99 69.72 632.43 73.23 632.21 C 73.69 631.96 74.60 631.45 75.05 631.19 C 75.38 630.89 76.02 630.27 76.35 629.97 C 77.39 629.36 77.77 628.49 77.48 627.36 L 77.34 626.57 C 79.02 624.70 79.50 622.22 80.23 619.91 C 80.17 620.54 80.06 621.80 80.00 622.43 C 112.66 596.10 145.06 569.44 177.62 542.98 C 282.43 543.04 387.23 542.96 492.04 543.02 Z" />
</g>
</svg>
