<?xml version="1.0" encoding="UTF-8" standalone="no"?>
<svg
   xmlns:dc="http://purl.org/dc/elements/1.1/"
   xmlns:cc="http://creativecommons.org/ns#"
   xmlns:rdf="http://www.w3.org/1999/02/22-rdf-syntax-ns#"
   xmlns:svg="http://www.w3.org/2000/svg"
   xmlns="http://www.w3.org/2000/svg"
   xmlns:sodipodi="http://sodipodi.sourceforge.net/DTD/sodipodi-0.dtd"
   xmlns:inkscape="http://www.inkscape.org/namespaces/inkscape"
   width="1260.0001"
   height="1092.4805"
   id="svg2"
   version="1.1"
   inkscape:version="0.91 r13725"
   sodipodi:docname="Flag_of_Zambia.svg">
  <metadata
     id="metadata48">
    <rdf:RDF>
      <cc:Work
         rdf:about="">
        <dc:format>image/svg+xml</dc:format>
        <dc:type
           rdf:resource="http://purl.org/dc/dcmitype/StillImage" />
        <dc:title></dc:title>
      </cc:Work>
    </rdf:RDF>
  </metadata>
  <defs
     id="defs46" />
  <sodipodi:namedview
     pagecolor="#ffffff"
     bordercolor="#666666"
     borderopacity="1"
     objecttolerance="10"
     gridtolerance="10"
     guidetolerance="10"
     inkscape:pageopacity="0"
     inkscape:pageshadow="2"
     inkscape:window-width="1600"
     inkscape:window-height="837"
     id="namedview44"
     showgrid="false"
     fit-margin-top="0"
     fit-margin-left="0"
     fit-margin-right="0"
     fit-margin-bottom="0"
     inkscape:zoom="0.39055744"
     inkscape:cx="996.37347"
     inkscape:cy="705.22681"
     inkscape:window-x="-8"
     inkscape:window-y="-8"
     inkscape:window-maximized="1"
     inkscape:current-layer="svg2" />
  <path
     style="fill:#198a00"
     d="m 944.45995,0 c -0.41005,0.27447 -0.95179,0.2865 -1.41993,0.3457 -5.43316,0.68569 -10.81032,1.59326 -16.24804,2.24023 -1.0274,0.12187 -2.34138,0.60257 -3.28906,0.66407 -0.87591,0.057 -1.85066,-0.26182 -2.72657,-0.19922 -0.11732,0.008 -1.66868,0.46619 -1.88281,0.52539 -2.58104,0.72101 -6.89898,1.03053 -9.61328,1.41211 -0.13441,0.0194 -0.64668,-0.18312 -0.78906,-0.16602 -0.41233,0.0478 -0.86144,0.33046 -1.27149,0.41016 -2.18808,0.4203 -4.50187,0.79825 -6.7207,1.04883 -0.4875,0.0547 -1.005,0.008 -1.49023,0.0762 l -6.39649,1.0039 c -1.02513,-0.15149 -2.15357,0.17307 -3.1582,0.34961 -0.35196,0.062 -0.76214,-0.0522 -1.11524,0.006 -3.93534,0.65494 -7.85227,1.09858 -11.81836,1.53711 -0.69253,0.0763 -1.43262,0.44485 -2.11718,0.46875 l -13.26953,0.45899 c -2.61748,0.22553 -5.25264,1.22566 -7.86329,1.56054 -0.50687,0.0649 -1.05822,3e-5 -1.56054,0.082 -1.86231,0.30412 -3.70215,0.77564 -5.56446,1.08204 -3.0936,0.50801 -6.27635,0.67263 -9.38476,1.07812 -7.12462,0.93173 -14.21636,2.21995 -21.33985,3.10156 -9.0063,1.17775 -71.70446,10.23969 -72.46875,10.6543 l -0.33789,0.667969 c 0.73467,1.67893 1.96068,3.029218 2.83204,4.611328 0.87932,1.5992 1.78484,3.471134 2.49218,5.152344 2.05139,4.87162 1.95562,7.330874 0.89063,12.302734 -0.5604,2.61977 -1.65907,5.037689 -3.11133,7.292969 -0.47042,0.7267 -1.10072,1.3703 -1.58594,2.08789 -0.44878,0.66519 -0.93565,1.47447 -1.30469,2.1875 -0.0991,0.19364 -0.37342,1.096869 -0.45312,1.205078 -0.46701,0.616211 -4.09127,5.127546 -3.96484,5.541016 l -0.19922,0.103516 c -2.88972,4.12556 -6.19223,7.986204 -9.36328,11.896484 -0.88047,1.08549 -1.56291,2.357854 -2.51172,3.402344 -0.58432,0.64583 -1.29476,1.22054 -1.91211,1.83789 -2.35437,2.355511 -4.57115,4.58794 -7.1875,6.66211 -1.56844,1.24268 -3.31115,1.917101 -4.98438,2.957031 -1.25521,0.78024 -2.40835,1.767145 -3.64648,2.578125 -1.45795,0.95679 -3.10342,1.723382 -4.58985,2.669922 -3.90117,2.48763 -8.10996,4.21284 -11.67968,7.16406 -1.48187,1.22332 -4.13848,2.78361 -5.26953,4.3418 l -1.2461,2.3457 c -1.52402,2.87263 -0.84611,5.03926 -1.1582,8.29688 -0.38841,4.04127 -0.3163,5.14687 2.62695,7.91015 0.54445,0.005 2.62629,1.8795 4.45899,1.61524 0.73353,-0.10593 1.50699,-0.52954 2.1289,-0.86328 l 1.66211,-4.21094 c 1.96027,-1.34519 2.73219,-3.08776 4.36328,-3.82813 2.21769,0.18794 3.91333,2.50315 4.21289,4.57618 0.008,0.0513 0.0376,0.14521 0.0274,0.19531 -0.033,0.17085 -0.23669,1.31285 -0.27539,1.40625 -0.23122,0.53306 -1.57396,1.01853 -1.79492,1.55273 -0.30526,0.72557 -0.98919,2.9714 -0.69532,3.78125 0.4465,1.03765 1.74311,1.13342 2.12696,2.1836 0.17313,0.46815 -0.0489,1.10735 0.39648,1.49804 1.19256,0.75631 3.44144,-0.26506 3.55078,2.54493 0.0433,1.13105 -0.0145,5.5033 0.56641,6.33593 l 0.91015,0.72461 c 0.8201,0.26198 2.42993,-0.93758 3.34571,-1.22461 l 0.6289,0.29688 c 0.11277,0.35196 -0.0978,1.04597 -0.2539,1.35351 -0.60483,0.48067 -1.85535,0.75567 -2.60938,0.62696 l -1.13476,0.73047 c 1.14359,0.18794 2.64841,1.45028 3.17578,2.44921 0.47726,0.9454 -0.25672,1.80037 -0.40821,2.67969 -0.16516,0.96476 1.23758,2.4159 1.64649,3.23828 0.78821,1.58667 -0.30388,3.78675 0.30664,5.57617 l -0.72266,1.66797 c -0.0752,0.56154 0.24844,1.22734 0.50586,1.67383 0.8406,1.44315 0.89383,1.70825 2.57617,1.98047 l 1.81641,0.29492 c 0.48067,0.36791 0.13402,1.41486 0.37891,1.95703 0.51484,1.1322 2.75736,2.05411 2.72656,3.57813 l -0.3125,0.82031 -2.11719,0.23633 c -0.56951,0.43511 -0.29702,2.16276 -0.35742,2.80859 -0.0786,0.87022 -0.8082,1.7707 -1.16016,2.54297 -0.46017,1.01601 -0.28552,1.69021 -0.40625,2.73242 -0.12757,1.09803 -1.08863,1.79665 -1.48046,2.77735 -1.77005,4.43082 -2.51234,4.21935 -1.09766,8.45312 l -0.33399,0.97461 0.73633,2.58789 -0.84765,1.77149 0.39648,1.3457 c -0.24375,0.7324 -0.72854,1.76566 -0.83789,2.51172 -0.10137,0.70506 0.16972,1.61591 0.13672,2.34375 -0.0604,1.27344 -0.34167,2.55551 -0.41797,3.83008 -0.0622,1.0331 -0.002,2.12135 -0.002,3.16015 0,0.43738 -1.07349,1.32003 -1.40039,1.5 0.33601,2.14479 -2.40726,3.24472 -3.16016,5.48633 -0.0718,0.21186 -0.27358,0.91511 -0.23828,1.16797 0.1811,1.29394 1.5565,1.96135 2.24219,2.92383 0.61622,0.86908 1.33684,2.05999 1.69336,3.08398 0.92489,0.4408 2.08554,1.35248 2.4375,2.35938 0.5137,1.48188 -1.58899,5.60976 -1.58399,7.72265 0.005,2.53548 1.8502,4.395 2.27735,6.82227 0.2426,1.38848 -0.44652,2.55031 -0.71876,3.86133 -0.1344,0.64469 0.37487,1.68414 0.35547,1.93359 -0.0581,0.78935 -0.40938,1.7992 -0.58593,2.58399 -0.0843,0.36449 0.16719,1.41219 0.27539,1.7539 1.08094,1.43973 2.9024,1.80123 3.73047,3.53711 0.57863,1.21079 -1.30971,3.9406 -0.57618,6.48633 0.5137,1.79055 3.11969,1.21252 3.32813,4.81641 -0.30867,1.33152 -1.02026,2.58366 -2.5625,2.66796 l -0.56445,0.875 c 0.0524,0.56154 0.13522,2.42814 -0.60743,2.7129 -1.3133,0.26994 -4.12913,-1.46085 -5.59961,0.75 -0.8725,1.45909 0.13699,3.06486 -0.70703,4.65039 -0.57065,1.07752 -1.63672,1.75985 -2.28711,2.73828 -0.13782,0.20844 -0.4774,1.44518 -0.60156,1.61718 -0.4146,0.56723 -1.23011,1.01789 -1.70508,1.55665 -0.88503,1.00347 -1.6742,3.70932 -1.7539,5.04882 l -0.44336,7.32618 c -0.15604,2.6095 -2.24157,2.23245 -2.97852,3.58789 -1.08435,1.98646 -0.25672,2.83982 -0.26172,4.66796 -0.0102,3.44556 -1.37771,3.69159 -1.81054,6.24415 -0.10023,0.59685 0.0984,2.08229 -0.21485,2.51171 -0.55242,0.75289 -1.31845,1.21769 -1.67383,2.14258 0.27337,2.21313 2.31271,3.80527 2.34571,6.03321 0.009,0.74833 -0.0105,1.73961 -0.11524,2.47656 -0.21414,1.51035 -1.68974,2.68334 -1.61914,4.23242 0.0387,0.86908 0.63361,1.69036 0.56641,2.64258 -0.33601,0.73126 -1.14671,1.78419 -1.3711,2.46875 -0.23009,0.69936 -0.0501,1.39601 -0.47265,2.09765 -0.43283,0.36221 -0.98485,0.70985 -1.51563,0.91602 -0.62647,2.10492 -1.37363,4.006 0.10938,5.83984 l -0.28125,1.22657 0.47265,1.52343 -0.14648,0.46094 c -0.7996,0.5399 -1.92423,0.67662 -2.87305,0.73242 l -0.39648,0.33594 c -0.44991,0.85428 -0.10521,2.27252 0.26953,3.10742 0.0137,0.64925 -0.65131,1.72343 -1.04883,2.1836 l -0.0273,1.48046 c -0.54674,1.4534 -2.33636,1.80212 -2.7168,3.17579 0.15377,1.00006 0.47755,2.23463 0.49805,3.23242 0.0182,0.85769 -0.81873,1.70121 -0.99414,2.46093 -0.11504,0.49092 -1.02421,6.11194 -0.86133,6.56641 0.1663,0.4613 2.45986,3.74341 2.7207,4.01563 1.21307,1.2666 3.11188,1.61422 2.66993,3.99023 l -1.41016,1.70508 -0.0664,0.53515 c 0.0843,0.70734 0.97201,1.59529 1.58594,1.86524 l 0.23242,0.58203 -0.63281,1.4375 -1.26953,0.81055 -0.26758,0.64062 0.10937,0.50977 c 6.88202,3.45581 0.74053,7.95117 2.49805,11.10742 0.41575,0.47041 3.6718,-0.73266 4.64453,-0.40234 0.62077,0.38043 2.07972,2.96124 2.13672,3.51367 l 0.23438,2.29101 c 0.97387,0.39752 3.02145,1.73702 3.54882,1.91016 1.78601,0.58887 2.95217,0.05 4.27344,1.56836 1.18915,0.44764 3.82032,-0.76835 4.48438,0.69531 0.47042,1.03651 0.86364,2.35748 1.63476,3.21289 0.057,0.0615 0.66925,0.65384 0.71485,0.67774 0.86908,0.45675 1.86026,0.58755 2.73047,1.13086 1.2461,0.77568 2.41016,1.6924 3.71093,2.39062 0.52167,0.27906 1.65267,0.74786 2.27344,0.75586 1.188,0.0137 1.95926,-0.79103 2.98438,-0.73633 0.49776,0.25058 1.30494,0.73711 1.65234,1.19727 -0.009,0.33488 -0.0199,2.26307 0.0371,2.47265 0.15149,0.55357 0.55587,1.09325 0.73242,1.64454 0.2745,0.84972 0.22166,1.81563 0.76953,2.58789 0.67089,0.94995 1.97759,1.34669 2.82617,2.07226 1.00121,0.85654 2.10066,2.0079 2.99024,2.98633 1.06385,1.17092 1.29441,2.9269 2.48242,4.11719 1.16295,1.1675 2.66748,1.77729 3.9375,2.81836 2.80657,2.2997 5.54103,4.45035 7.50586,7.55078 0.85883,1.35544 1.56451,2.81937 2.43359,4.16797 0.43055,0.66861 1.19069,1.32196 1.54493,2.01562 0.53762,1.05361 0.38173,2.72084 0.64257,3.89063 0.49889,0.32006 0.76392,1.13489 1.08399,1.61328 0.31323,0.467 0.72827,0.88553 1.03125,1.35937 0.33374,0.52281 0.39134,1.19643 0.63281,1.75 0.91122,2.08898 2.46345,2.85962 4.63672,2.55664 1.18345,-0.1663 2.226,-0.32815 3.22266,-1.0332 l 0.42773,0.043 c 0.55471,0.35651 1.10049,1.05158 1.38867,1.63477 l 0.98438,0.13671 c 0.91919,-0.44878 1.9195,-0.68793 2.82617,-1.0957 0.68341,-0.3064 1.40626,-0.99517 2.07031,-1.23437 0.0991,-0.0353 1.65382,-0.40711 1.73242,-0.41211 1.75069,-0.10593 3.51917,0.56521 5.25391,0.375 1.03879,-0.11391 1.76869,-1.10058 2.91797,-1.08008 1.19598,0.5342 2.09335,1.97043 3.12304,2.80078 0.24146,0.74948 -0.24668,1.43215 -0.0371,2.16797 0.81667,0.70961 3.03704,1.15899 4.02343,1.05078 1.24838,-0.13668 2.23456,-0.90146 3.56836,-0.62695 0.38993,0.0804 0.75557,0.22153 1.11133,0.38671 l -4e-5,-37.45329 419.3418,0 c 0.4427,-1.37061 0.9574,-2.71324 1.6582,-4.02539 0.037,-0.0695 0.096,-0.14941 0.1191,-0.22461 0.1276,-0.41233 0.2436,-1.05332 0.4395,-1.42578 0.5502,-1.05815 1.0092,-1.10284 1.6504,-2.89453 0.3371,-0.93286 -0.08,-1.88089 -0.08,-2.62696 0,-0.23805 0.2515,-1.44155 0.2695,-1.98828 0.01,-0.22895 -0.033,-0.36382 0.024,-0.58593 0.5695,-2.28717 1.8246,-3.3901 1.3496,-6.36524 -0.23,-1.42948 -1.8464,-2.12877 -1.9649,-3.50586 -0.1412,-1.6402 2.7168,-4.27511 3.1075,-6.3789 0.2392,-1.28824 -0.9594,-3.14635 -1.2032,-4.4961 -0.042,-0.23236 0.1575,-0.77773 0.1075,-0.99414 -0.2984,-1.30305 -0.744,-2.71649 -0.9297,-4.0332 -0.022,-0.15491 0.1855,-1.02333 0.1855,-1.25 0,-1.58666 -0.2063,-3.184 -0.1953,-4.76953 0.01,-1.12536 0.1699,-2.3141 0.2539,-3.43946 0.1048,-1.43746 -0.052,-3.21827 -0.6543,-4.54297 -0.2027,-0.44649 -1.5854,-0.93182 -2.0058,-1.0332 0.06,-0.25286 -0.165,-0.68999 -0.3165,-0.87109 l -0.4765,-0.23242 -0.6836,0.78515 -1.9824,-0.59961 c -2.1368,1.01259 -1.6903,0.89789 -3.875,1.27149 l 0.051,-3.92578 c 0.4864,-0.35765 0.9461,-1.0441 1.166,-1.59766 0.4271,-0.13441 1.1395,-0.89135 1.414,-1.21484 0.2387,-0.69367 0.5138,-2.12113 0.2598,-2.85352 l -1.084,-1.07812 c 1.9523,-4.72468 -0.4539,-4.12053 -1.5371,-6.97266 -0.066,-0.83832 0.581,-1.43232 0.543,-2.21484 l 0.8593,-1.01368 c 0.3554,0.0342 0.8511,0.38974 1.0254,0.69727 l 0.02,0.71289 c 0.6037,0.54673 2.495,2.47173 3.0976,2.51953 l 0.6543,-0.0957 c 1.2632,-0.62875 1.0313,-3.36746 0.8047,-4.40625 l -0.8945,-1.28125 -0.02,-0.81641 0.5821,-0.88867 0.6308,-0.19922 c 0.4932,0.25625 1.426,0.2532 1.9317,0.0391 l 0.6054,-0.73632 c 0.1651,-1.12194 -1.5215,-1.58492 -0.9804,-3.26954 1.6083,-1.31444 3.3028,-2.92547 4.1445,-4.86523 0.1418,-0.32121 0.1038,-0.82675 0.2109,-1.17188 0.2904,-0.93969 0.8941,-1.52111 1.0684,-2.61914 0.6458,-0.51484 2.0659,-1.73213 2.4258,-2.50781 -0.213,-0.99323 0.8367,-2.17715 1.0976,-3.07812 0.1588,-0.5399 -0.029,-1.30092 0.1368,-1.83399 0.048,-0.15718 0.72,-1.03603 0.8339,-1.26953 0.054,-0.11163 0.034,-0.47465 0.078,-0.61133 0.246,-0.73354 0.6366,-1.13922 0.3633,-2.01172 l -0.25,-0.35937 -1.1739,-0.54297 -1.4551,0.24414 c -0.4066,-0.37587 -0.7144,-1.24574 -0.6914,-1.78906 l 0.4356,-1.14453 c -1.6128,-3.68704 -2.0741,-2.48859 -3.9649,-4.92383 -0.2312,-0.29843 -0.5508,-0.52269 -0.8378,-0.76758 l -0.2422,-1.55664 c -1.7086,-1.23584 -0.8592,-1.65378 -1.1621,-2.78711 -0.1823,-0.69139 -0.6697,-1.35662 -0.8633,-2.04687 -0.6436,-2.2997 0.028,-5.04618 0.2734,-7.36524 0.048,-0.45789 -0.7649,-1.12377 -0.9687,-1.43359 -0.1982,-0.3007 -0.28,-0.77172 -0.4942,-1.05078 -0.5957,-0.77112 -1.3792,-1.50914 -2.041,-2.23243 -0.038,-0.0399 -0.3374,-0.17513 -0.4004,-0.20703 l -0.5801,0.78711 -1.0019,-0.36328 -0.6817,0.63086 -0.5234,-0.13086 c -0.044,-0.34057 -0.2517,-1.24551 -0.541,-1.48242 -0.065,-0.51712 2.2764,-3.93007 4.125,-2.92773 l 0.1973,0.94531 c 0.7905,-0.10024 1.9694,-0.32545 2.6836,-0.7207 1.0626,-1.46252 1.6159,-2.96168 2.5351,-4.54493 2.2633,0.34627 4.3849,0.16601 5.8223,-1.77148 2.6653,-0.46244 5.508,1.22533 6.8828,0.88476 1.237,-0.3064 1.8944,-2.29541 3.2988,-2.93554 1.2393,-0.56496 1.9692,-0.265 2.8906,-1.63867 l 0.6993,-0.17383 c 0.4659,-0.57977 0.9181,-1.05476 1.5878,-1.3418 0.6489,-1.13105 -0.2727,-2.51974 0.092,-3.33984 l 0.5801,-0.15039 0.7227,0.31054 c 0.7746,-0.22097 1.2499,-1.97249 1.6679,-2.58984 0.2517,-0.3736 0.7875,-0.6469 1.0586,-1.01367 0.8657,-1.16978 1.5181,-2.47117 2.418,-3.63867 0.3986,-0.51826 0.3917,-1.3601 1.0899,-1.64258 0.5092,0.22213 1.7149,0.54274 2.2753,0.31836 0.541,-0.5923 2.5303,-3.51927 3.0235,-3.75391 0.385,-0.18338 0.9728,-0.21164 1.3281,-0.42578 0.7552,-0.45561 1.5332,-1.17934 2.2383,-1.72266 l 0.3047,-0.89062 c 0.6345,-0.60938 2.4291,-2.0872 1.8926,-3.20117 l -1.9063,0.90625 -0.625,-0.10352 c -0.057,-0.1196 -0.3753,-0.69794 -0.3203,-0.80273 l 0.033,-1.87696 -0.4961,-0.68945 c 0.084,-0.46244 -0.3837,-1.42571 -0.6172,-1.78906 -0.7951,-0.16972 -1.7006,-0.62757 -2.3476,-1.10938 -0.1982,-0.68797 -0.7903,-2.06619 -1.4122,-2.50586 l -0.9257,0.22461 -0.4473,-0.74218 1.0605,-1.54883 c 0.096,-0.79163 -0.8978,-2.70785 -1.2851,-3.34571 -3.6039,-1.29394 -3.7856,-0.80805 -5.6035,-4.39257 -0.022,-0.0467 -0.3201,-0.28424 -0.3731,-0.33204 0,-0.0661 0.014,-0.47181 0,-0.51171 -0.2404,-0.68684 -0.4458,-1.55258 -0.7636,-2.19727 -0.2027,-0.40777 -0.7401,-0.59991 -0.8711,-1.125 l 0.1875,-2.39453 -1.6114,-2.20313 c 0.3853,-0.65266 0.5707,-1.92287 0.3145,-2.64843 0.1697,-0.46814 0.7418,-1.03507 1.1074,-1.34375 0.6891,-2.7724 -0.2632,-2.91933 1.6367,-6.3125 -0.2848,-1.75638 -1.6203,-1.94195 -3.084,-2.7461 l -0.5488,0.0742 c -2.5184,-0.43624 -1.6866,-4.54327 -7.5469,-4.60937 -1.573,-1.60831 -3.0609,-3.12649 -4.2421,-5.07422 -1.4238,-0.28476 -2.4919,-1.49613 -3.6856,-2.21485 -0.7392,-0.44766 -1.8247,-0.10799 -2.4101,-0.42578 -1.3908,-0.75062 -0.594,-1.1988 -2.6465,-1.49609 l -2.1075,-2.5625 c -0.5182,-1.89648 0.9685,-5.92522 1.6211,-7.53125 0.3577,-0.87819 0.9771,-1.9755 1.1661,-2.87305 0.2153,-1.01488 -0.085,-2.17636 0.4707,-3.13086 0.9101,-0.47612 1.1036,-1.30648 1.7597,-1.92383 0.9967,-0.94084 1.473,-0.3486 1.711,-2.1289 l -1.1817,-2.63477 c -0.2719,-0.60368 -0.117,-1.72218 -0.2617,-2.39648 -0.1162,-0.54446 -0.7908,-0.90603 -1.0664,-1.33203 -0.4886,-0.75631 -0.6766,-1.73228 -1.3555,-2.4043 -0.9078,-0.8987 -3.8098,-0.58436 -4.8554,-2.04687 l -1.1993,0.11914 c -0.303,-0.18111 -0.9874,-0.76556 -1.0644,-1.12891 -0.2449,-1.11283 -0.4041,-2.48303 -0.7754,-3.54688 -0.7905,-2.26667 -3.9518,-3.33329 -5.002,-5.69335 -0.1173,-2.35551 -0.1949,-4.5177 0.1446,-6.87891 -1.9831,-2.15048 0.2083,-2.9811 -3.4024,-5.42774 -2.0377,-0.37587 -2.3096,0.39043 -4.123,0.91211 -0.6663,0.19249 -1.6218,-0.59269 -2.541,-0.29882 l -0.8907,-1.05079 -0.4472,-0.0801 c -0.8793,0.6481 -1.5869,2.39611 -1.3477,3.48047 l 0.6446,0.46485 0.416,1.09765 -0.7989,0.17188 c 0,0.16857 -0.013,1.39272 -0.033,1.45312 -0.2915,0.90439 -0.9305,1.74521 -1.0175,2.7168 l -0.2266,0.20313 -0.6719,-0.10743 -0.7441,-0.76953 c -0.038,-1.79397 -1.7913,-3.38192 -2.5567,-4.96289 -0.2825,-0.24494 -0.9539,-0.28774 -1.2968,-0.21484 l -1.3086,1.77344 -1.125,0.19531 -2.4356,-1.08985 c -0.2097,-1.43403 -0.3982,-3.2035 -0.064,-4.63867 0.083,-0.36677 0.3252,-0.72502 0.4062,-1.09179 0.031,-0.13782 -0.08,-0.37537 -0.047,-0.50977 0.3926,-1.56389 0.4465,-0.64441 0.3575,-2.69922 l -0.014,-0.25391 c 1.0741,-1.72905 2.306,-3.48004 1.6875,-5.59179 -0.5263,-1.45113 -2.3555,-1.19016 -3.5059,-1.4043 -0.803,-0.15149 -1.0759,-1.30132 -2.0293,-1.46875 -0.8326,0.12415 -1.5934,0.64724 -2.3281,1.02539 l -0.6426,-0.43945 c -0.123,-1.84409 -1.1967,-7.77151 0.5938,-9.14063 l 0.025,-0.30468 c -0.623,-0.007 -2.5332,-0.10508 -3.0606,-0.48438 l -1.5058,-2.02539 -0.7832,1.31836 -0.8438,-0.16016 c -0.4382,-0.35538 -0.4229,-2.11064 -0.3789,-2.60156 -0.7825,-0.0365 -2.0515,0.51295 -2.6973,0.89453 -0.8019,-0.25856 -1.2816,-0.74571 -2.0117,-1.13867 -1.3475,-0.73012 -3.0746,-1.22033 -4.2148,-2.30469 -1.2279,-1.1675 -0.5667,-1.57613 -2.7695,-2.69922 -0.4922,0.13556 -1.187,0.0991 -1.67,-0.0547 0.1515,-0.66975 -0.3453,-1.40999 -0.6152,-1.98633 -0.2768,-0.60027 -1.1265,-1.8972 -1.8145,-2.09766 -0.3178,-0.0921 -0.7445,0.004 -1.0566,-0.0898 -0.5422,-0.1606 -1.0583,-0.53781 -1.6016,-0.69727 -1.3475,-0.39525 -4.925,0.0185 -6.4023,0.0937 -0.057,0.003 -1.5669,-0.25703 -1.5898,-0.26953 -1.7359,-0.93742 -5.7325,-3.35273 -7.8477,-2.8789 -1.1698,0.26312 -2.306,0.956 -3.543,0.9082 -0.079,-0.22097 -0.54,-1.59976 -0.584,-1.66016 -1.7769,-2.44322 -3.7338,-4.85191 -5.2578,-7.46484 l 0.7422,-2.13281 c -1.3988,-1.01259 -3.1009,-2.4474 -4.9336,-2.31641 l -1.7539,-1.546875 c -0.4146,0.05581 -2.1859,0.198145 -2.4433,0.458985 -0.3577,-0.17086 -3.2764,0.320822 -3.8653,0.419921 -0.3782,0.06379 -0.7971,0.340639 -1.1719,0.369139 -1.2484,0.0945 -2.5621,0.27622 -3.8105,0.29102 -0.6173,0.008 -1.273,-0.21761 -1.8926,-0.22461 -1.2449,-0.0137 -2.536,0.11056 -3.7832,0.16406 -0.075,0.002 -0.6217,0.1888 -0.7265,0.2207 -0.8292,-0.0945 -2.0921,-1.051599 -2.6036,-0.970699 l -0.2445,-0.201211 c -0.4738,-0.39183 -1.0165,-0.948321 -1.5312,-1.269531 -0.6151,-0.38271 -1.4686,-0.554794 -2.0586,-0.964844 -1.0638,-0.74037 -2.0101,-1.777881 -3.0352,-2.582031 -0.1538,-0.12188 -0.7885,-0.389351 -0.8887,-0.494141 -0.3611,-0.37474 -0.7097,-1.047481 -1.0058,-1.488281 -1.1641,0.31437 -3.061,0.210211 -4.2285,-0.09961 -1.0491,-0.27792 -1.9383,-0.798376 -3.0625,-0.972656 -0.072,-0.0159 -0.1663,-0.05664 -0.2403,-0.05664 -2.7861,-0.01025 -5.5129,0.08232 -8.1269,1.203125 l -0.1035,0.626953 c -0.4272,0.41916 -1.4716,0.761104 -2.0274,0.902344 -0.7529,-0.266531 -1.8329,-0.775034 -2.4492,-1.277344 -0.1036,-0.08315 -0.259,-0.430853 -0.3672,-0.539063 -0.1389,-0.13896 -0.8695,-0.67859 -0.9355,-0.77539 -0.3406,-0.49547 -0.4478,-1.234505 -0.7793,-1.740235 -0.4761,-0.72898 -1.3512,-1.322801 -1.8672,-2.113281 0.6231,-1.05474 -0.2695,-2.910584 -0.5782,-3.927734 0.3098,-1.65159 0.9693,-3.05979 1.7188,-4.53711 l -0.02,-0.537109 c -4.5379,-2.1129 -7.7829,-3.560231 -12.6329,-4.863281 -1.1127,-0.44536 -2.4915,-0.40755 -3.6328,-0.34375 -2.2382,0.12302 -4.0786,0.43518 -5,2.80664 -1.0593,0.37246 -0.9218,0.195331 -1.5859,0.900391 -0.156,-0.24603 -0.7026,-0.935678 -1.0352,-0.955078 -3.146,0.88047 -2.8655,-0.60052 -4.8691,-0.375 -0.893,-0.74606 -1.7155,-2.48235 -2.293,-3.46875 -2.5571,-0.92147 -4.4641,-1.691916 -6.2968,-3.660156 -0.047,-0.05012 -1.5,-0.818391 -1.6504,-0.900391 -0.582,-1.09574 -1.1007,-2.14905 -1.5996,-3.28125 1.9454,-3.64147 1.6246,-7.349268 0.066,-11.048828 -0.023,-0.04898 -1.8974,-2.041056 -2.0352,-2.191407 -1.0855,0.06492 -1.6376,-0.948915 -2.6719,-0.978515 -1.016,-0.02847 -3.1489,0.577905 -4.0078,0.353515 -0.4453,-0.52281 -1.8378,-2.421414 -1.6738,-3.177734 -3.0424,-3.1141 -1.8145,-1.41191 -6.5586,-1.90625 -0.377,-0.32121 -1.0921,-0.725219 -1.6035,-0.761719 -0.6128,-0.71873 -1.0699,-2.030015 -1.2988,-2.921875 l -0.9102,-0.65039 -0.2812,-1.328125 -1.1465,0.21289 -0.2539,0.478516 c 0.2007,0.37588 0.2556,1.073016 0.1269,1.478516 l -0.2031,0.175781 -0.4219,-0.03125 -0.8301,0.882812 c -0.2392,0.12871 -1.2809,-0.31039 -1.5429,-0.40039 l -0.7539,0.576172 c -0.1618,-0.34398 -0.5555,-0.813029 -0.9063,-0.980469 -0.8873,0.06606 -2.3377,1.702322 -2.791,2.351562 l -2.041,0.175782 c -0.9238,-0.61963 -1.0161,-1.447569 -1.7598,-1.986329 l -0.1641,-0.919921 c -0.5216,-0.73462 -1.3574,-0.812485 -2.1992,-0.771485 l -1.0058,-0.982422 c -0.4385,-0.05809 -1.5153,-0.299285 -1.8809,-0.166015 -0.688,0.25059 -1.8515,0.560505 -2.4062,1.046875 -0.2084,0.49434 -0.3463,1.088633 -0.7871,1.439453 -0.8451,0.6743 -2.2363,2.007409 -3.2911,2.318359 -1.85546,0.54787 -5.94882,-0.229373 -7.7109,-1.058594 -0.71189,-0.33601 -1.31138,-1.136492 -2.01758,-1.507812 -0.28931,-0.15149 -0.72663,-0.142292 -1.01367,-0.294922 -0.73353,-0.38841 -1.68344,-0.985971 -2.3418,-1.488281 -2.09809,-1.59919 -3.7125,-3.948764 -5.3789,-5.964844 -0.19022,-0.23122 -0.24224,-0.638724 -0.4336,-0.871094 -0.74151,-0.90325 -1.5892,-1.812095 -2.27148,-2.759765 -0.11504,-0.16288 -0.21357,-0.693404 -0.33203,-0.871094 -0.57065,-0.86224 -1.29737,-1.773975 -1.95117,-2.578125 -0.70734,-0.8725 -1.52248,-1.674215 -2.22071,-2.554685 -0.93058,-1.17092 -1.65665,-2.52391 -2.57812,-3.70508 -0.27906,-0.35993 -0.69229,-0.66497 -0.95313,-1.03516 l -5.92773,-8.4414 C 949.23652,11.28664 948.37482,10.32419 948.02741,9.56445 946.80068,6.8866 945.76096,3.01729 944.45905,0 Z M 221.21776,295.47265 c -0.53695,-0.0152 -1.12171,0.003 -1.7832,0.0274 l -4.50977,0.16406 c -0.008,1.12536 0.17609,3.19558 0.76953,4.20703 1.17889,0.63558 1.31427,0.92525 1.87696,2.01758 l -0.55274,1.42578 c 0.40663,0.20503 0.87067,0.59026 1.12695,0.9707 -0.0103,3.79524 -1.87469,6.17351 -1.29492,10.60547 0.15946,1.22445 0.86271,1.94146 0.54492,3.39258 -0.80757,0.67773 -1.69733,2.27437 -1.30664,3.36328 0.66633,0.74151 2.19902,0.44994 2.70703,1.35547 1.60489,3.88295 -0.46017,11.3363 0.58204,15.22266 0.3064,1.14471 1.47395,2.3388 2.10156,3.3457 0.19933,0.31893 2.53145,8.03126 2.67383,8.72265 0.12074,0.59115 0.0966,1.39973 -0.0605,1.97266 -0.34968,1.28711 -0.17586,0.89297 -1.07227,1.80078 -0.0217,0.0228 -0.18505,0.0711 -0.22265,0.0859 -0.77567,0.29843 -1.67369,0.56292 -2.41406,0.92969 -0.6595,0.3269 -1.06276,0.91813 -1.42383,1.51953 -1.25977,2.09582 -0.54969,4.02484 -0.11914,6.28125 0.11049,0.57749 0.66368,2.42036 0.47461,2.88281 -0.34399,0.83604 -0.65197,1.77234 -1.0586,2.57422 -0.71303,1.40556 -1.79625,2.66606 -2.49219,4.07617 -0.99438,2.0138 -0.70957,4.63004 -1.71875,6.52539 l -0.17578,0.33203 -1.00586,0.32813 -0.57812,0.76562 c -0.002,0.35652 0.69114,1.12718 0.92578,1.35157 0.0467,2.09125 0.64349,2.95814 1.67773,4.77148 0.0217,0.0376 0.0458,0.28073 0.0488,0.33203 0.082,1.24952 0.11511,2.52962 0.2461,3.77344 0.11276,1.05816 0.64286,1.23621 1.15429,2.01758 0.38499,0.58888 0.47112,2.65192 0.79688,3.54492 0.28818,0.78934 1.02649,1.81208 0.90234,2.70508 -0.0148,0.10593 -0.41897,1.15987 -0.48047,1.32617 -0.55584,0.19477 -1.70676,0.92494 -1.88672,1.42383 -0.19933,0.55585 -0.20658,1.28041 -0.35351,1.86133 -0.1401,0.54901 -0.40107,1.08266 -0.5332,1.63281 -1.12308,4.69622 -0.8061,9.61092 -0.625,14.3789 0.0514,1.34063 0.0927,2.77167 0.0449,4.10547 -0.0866,2.4193 -0.60763,4.8657 -0.64063,7.29297 l 0.19532,3.16211 c 0.0387,0.61622 -0.0656,0.98436 0.0996,1.58008 0.18908,0.69139 1.85593,3.08413 2.35938,4.29492 0.45903,1.106 0.45435,2.68446 1.4043,3.51367 2.45688,0.48181 3.24073,3.1034 5.15429,4.52149 l -0.48047,1.17187 c 0.12644,1.07182 1.08331,1.99442 0.97852,3.06055 -0.28248,1.27457 -1.98474,1.9476 -2.14648,2.65039 0.13782,0.29956 1.82107,1.33231 2.24023,1.76172 0.62988,1.73816 0.54515,7.59737 -0.46289,8.38672 -1.08093,0.35423 -1.84397,0.90253 -2.70508,1.65429 -2.14479,1.87142 -2.87971,2.30495 -3.47656,5.17188 -0.39866,0.60027 -1.27763,0.33415 -1.78906,0.99023 -0.11162,0.4727 -0.15521,1.63191 -0.48438,1.91211 l -2.14258,0.86328 c -0.0273,0.64697 -0.1913,1.38803 -0.43164,1.98828 -2.84985,1.70513 0.34558,4.42082 -0.76953,8.51563 -0.5137,1.88737 -1.91401,3.51539 -2.98242,5.11914 -1.12077,1.68121 0.17234,3.66207 0.0664,5.38086 -0.0854,1.40898 -1.21304,2.54133 -1.7461,3.77148 -0.50118,1.15384 -0.26827,2.26512 -0.38672,3.43946 -0.0866,0.86566 -0.37843,1.73395 -0.45703,2.59961 -0.0638,0.69937 0.11029,1.47658 0.0215,2.16797 -0.10251,0.79504 -0.51028,1.60144 -0.60938,2.39648 -0.0125,0.0957 0.12904,1.14018 0.14844,1.30078 1.106,1.66982 2.2254,0.55442 2.79492,3.26758 0.91122,0.87706 3.00636,2.43629 4.33789,2.15039 1.13561,0.4932 3.31128,3.50351 4.25781,4.49219 0.71304,0.74492 1.66903,1.00355 1.99024,2.16992 0.508,1.8475 -0.38192,1.89524 1.17969,4.00586 l -115.27539,0.99414 c -34.758588,0.29843 -69.554964,0.70639 -104.32031436,0.57422 l 0.06055,76.83008 c 0.07289,48.12053 0.02817,96.23412 -0.05273,144.35351 -0.06265,36.95122 0.09459,73.90344 0.21875,110.85352 0.0057,1.67551 -0.186244,3.42964 -0.277344,5.10742 l -0.0059,0.68555 c 0.0673,4.41032 0.06561,8.82291 0.03711,13.23437 -0.34513,3.59705 0.07189,3.81828 2.40234396,6.02344 0.35651,0.33829 0.663996,0.8186 1.041016,1.125 0.44194,0.35651 1.154897,0.58734 1.554687,0.97461 1.20168,1.16408 0.994036,2.26535 3.103516,2.45898 0.13554,0.90211 0.02295,2.3721 -0.603516,3.09766 0.51143,1.03651 1.277166,1.56695 1.853516,2.42578 0.37246,0.55698 0.5739984,1.40605 0.9863284,1.91406 0.05581,0.0695 1.22806,0.89098 1.375,0.99805 0.05922,0.80188 0.547271,1.37909 0.832031,2.08984 0.62077,1.54338 0.872323,3.29893 1.226563,4.91407 0.3269,1.49554 0.766876,2.82365 0.566406,4.40234 l -0.4375,0.50586 c -0.0068,1.06841 0.919816,2.30611 1.160156,3.41211 -0.0467,0.55471 -1.06553,1.47843 -1.46875,1.77344 l 0.560547,0.41015 c 0.83947,0.0991 1.697315,-0.35785 2.484375,-0.11523 1.38734,1.41809 2.514358,4.17896 3.892578,5.15625 1.9728,1.39872 2.741808,0.7985 3.798828,3.34765 2.64597,-0.16972 4.809547,0.61241 4.748047,3.50782 l 1.427735,1.73437 c 5.345459,0.62988 3.947391,4.25647 7.582031,6.59375 0.27103,0.41803 0.369738,1.26916 0.173828,1.73047 1.65501,1.2142 2.186241,0.41073 4.269531,2.61133 2.59698,2.74164 7.568264,9.29802 10.964844,10.54297 0.22785,0.45903 0.112931,1.59126 0.01953,2.06054 0.9921,1.16294 2.087381,2.54876 3.275391,3.52149 1.88509,1.54452 4.347427,2.36525 5.992187,4.3164 0.96134,1.14017 4.11425,4.27708 4.09375,5.78516 1.89876,1.14244 2.36529,1.94714 3.84375,3.36524 1.25748,1.20623 2.602555,2.35203 3.896485,3.51953 l 0.126953,0.48437 -0.59375,0.83789 0.4375,0.66211 c 0.91008,0.3736 1.969332,0.70413 2.951172,0.82031 0.28248,0.19933 0.404284,1.63356 0.458984,1.98438 l 1.283203,0.63867 -0.154297,0.68945 c 0.01936,0.56724 5.396133,4.52306 5.925783,4.94336 0.16402,0.13099 1.99043,2.98052 2.07813,3.15821 -0.0296,0.4465 -0.45725,1.17001 -0.69532,1.52539 -0.0182,0.34171 0.21231,0.86676 0.4629,1.0957 0.87591,0.30868 1.72855,0.88143 2.51562,1.17187 1.19142,0.43967 2.39224,0.93858 3.59961,1.32813 1.39531,0.44992 2.92513,0.59477 4.18945,1.40234 1.23699,2.50473 4.912236,4.40347 7.300776,5.52537 l 0.28321,0.5352 c 0.97615,0.08 2.45138,1.3725 2.64843,2.3418 l 1.20899,0.459 c 0.29615,0.3656 0.29212,1.4708 0.1543,1.9082 2.49106,1.4477 2.57623,4.489 5.32812,4.3261 0.44195,1.7724 1.03177,3.7295 1.79492,5.3868 l 0.85938,1.8652 c 0.77112,1.3384 2.99224,1.9502 4.42969,1.8066 l 0.30859,0.2539 c -0.21756,1.8772 0.24362,2.61 1.98633,3.5098 l -0.59375,0.8399 c 0.46017,0.7847 4.37823,0.6059 4.89648,1.6503 0.3121,0.6288 0.65425,1.5855 1.0586,2.1368 0.10821,0.1469 0.98702,0.7007 1.16015,0.8886 0.58888,0.6356 0.88991,1.7408 1.9082,1.8809 l 0.1836,1.3242 c 2.06733,2.7291 4.04986,0.074 6.1582,0.6797 l 1.375,0.625 c 0.59002,0.2677 1.30724,0.6935 1.7207,1.2266 0.28134,0.032 1.1472,-0.6501 1.38868,-0.8164 l 1.23632,-0 c 1.00804,0.7403 1.80903,2.3036 2.86719,2.7421 l 1.90625,-0.1562 c 1.93407,0.5444 2.91578,3.0165 4.51953,3.832 0.10479,0.9887 0.22972,2.005 0.44727,2.9766 3.32824,-0.7404 6.65728,-1.5466 9.99805,-2.2266 l 74.71289,-15.1933 c 1.41468,-0.2882 2.70705,-0.7483 4.07617,-0.1993 l 1.41211,0.5664 c 1.55933,0.385 3.48403,0.4069 5.28711,0.9024 0.95109,0.2597 1.57271,0.7781 2.63086,0.6426 1.46821,-1.163 2.65071,-1.4703 4.53125,-1.6035 l 0.69143,-0.8184 c 0.51256,-0.271 2.38948,-0.084 2.98633,0.064 l 1.06055,0.8868 c 2.29286,0.081 5.07869,-0.037 6.65625,1.8769 l 0.4375,0.1 c 0.19478,0.6766 0.3518,1.5488 0.63086,2.1856 0.0695,0.1617 0.16083,0.222 0.26562,0.3632 0.48978,0.6641 0.67589,1.3021 1.08594,1.9707 0.0353,0.057 0.39304,0.3416 0.46484,0.4043 l 0.74805,0.047 c 0.78707,-0.3633 1.6548,-0.7789 2.34961,-1.3086 0.98412,0.7518 2.21822,0.6436 3.33789,0.5137 1.06043,-0.1241 1.92995,0.1445 2.95508,0.1172 0.45675,-0.011 2.67252,-2.0237 3.25,-2.3984 2.46372,0.2369 3.39378,-0.6396 5.52148,-1.4961 l 0.66992,0.098 c 0.28249,-0.3235 2.78564,-1.0765 3.34376,-0.9102 1.12421,1.1926 1.96094,0.7399 2.58398,1.2559 l 0.59961,1.041 0.31055,0.1758 c 0.63899,0.1059 1.27748,-0.3175 1.82421,-0.5977 0.22667,-0.019 0.67844,0.055 0.85157,0.2246 0.53763,1.581 2.01995,2.1951 3.64648,2.0117 2.83277,-3.1312 3.47773,1.1502 7.33789,-0.457 0.42486,0.1697 0.91814,1.5193 1.56055,1.9727 1.13561,0.7984 3.21437,1.5308 3.91601,-0.2325 l 0.41016,-0.1035 c 0.45903,0.188 0.98002,1.6772 1.09961,2.1055 l 0.51758,0.3769 0.95312,-0.059 c 0.2392,-0.3553 0.93664,-1.182 1.35352,-1.3574 1.60376,0.8315 2.68122,4.3424 3.56055,4.5918 0.75062,-0.6652 2.39136,-1.0532 3.36523,-0.8789 l 0.88672,0.8301 -0.33789,2.0156 0.39648,0.6309 0.51563,0.1484 0.74023,-0.6719 c 0.83263,0.1504 1.08513,1.915 1.74805,2.4356 l 0.25781,-0 1.17774,2.2051 0.56835,0.072 0.38282,-0.6641 0.48633,-0.2344 0.57421,0.6836 -0.32421,1.25 c 0.16061,0.254 0.25328,0.5834 0.36718,0.8613 -0.0103,0.9705 -0.44283,2.1868 -0.92578,3.0137 l 0.28711,0.2754 1.38867,-0.2637 1.07422,-1.0039 0.64453,0.022 0.51953,0.4278 -0.53125,1.0722 0.10547,0.2793 0.46485,0.023 0.74414,-0.414 c 0.60824,-0.1071 1.6962,0.4589 1.94336,1.0273 0.0251,0.6891 0.0341,1.3018 -0.13672,1.9863 10e-4,0.7199 1.27679,1.279 1.6914,1.7403 0.45447,0.5068 0.71757,1.2737 1.17774,1.7715 0.65039,0.7039 2.14229,1.0559 2.91797,0.3554 0.59344,0.076 1.22964,0.059 1.82422,0.035 l 3.17382,1.918 0.41602,0.3535 0.875,-0.2168 0.34375,0.5059 -0.16602,0.5762 c 0.36221,0.057 2.48288,2.3666 3.59571,2.8906 l 0.82617,-0.012 c 1.09917,0.6139 2.17883,1.256 3.25976,1.8984 0.3736,0.2233 1.54209,-0.2227 1.87696,-0.3867 1.00007,-10e-4 1.8175,0.9841 2.28906,1.7598 0.73923,0.3633 3.86867,-0.7563 5.20703,-0.7403 l 0.59961,0.6309 0.85156,0.043 0.94922,-0.6719 c 0.49206,-0.1253 3.51932,0.4443 3.93164,0.7461 l 2.26368,1.6563 c 0.28476,0.2084 0.89948,0.1236 1.17968,0.064 l 1.01367,-0.2149 c 1.40215,-0.5376 1.71303,-4.4348 4.75196,-2.2148 l 1.28711,-0.1426 1.06836,0.7519 c 1.62653,-1.1424 1.22304,-0.8414 2.7539,-0.6933 1.04449,0.1014 3.21439,-0.8552 3.95703,-1.4942 0.50573,-0.4362 1.00013,-1.1196 1.45118,-1.623 0.97387,-0.4431 2.2753,-0.534 3.23437,-0.3848 l 0.37109,0.6055 c -0.041,0.4886 -0.0286,1.6101 0.24024,2.0566 l 1.33984,-0.1992 c 0.95679,0.77 3.97673,1.8525 5.26953,1.75 0.94197,0.9374 3.38398,2.2541 3.45118,3.6153 1.28483,0.9111 3.23162,-0.2247 4.53125,0.8847 0.25969,0.7335 0.58628,2.4446 1.27539,2.7578 0.0342,0.2882 0.20562,1.044 0.45507,1.2422 l 0.20704,0.023 c -0.39524,0.2449 -1.28701,1.0036 -1.34961,1.5195 l 0.21484,0.6075 c 0.33829,-0.01 1.17178,0.088 1.42578,0.3652 l 0.0801,0.2012 -0.34766,1.0742 c 0.2654,0.3383 0.41415,1.2528 0.74219,1.3633 l 1.00781,-0.014 0.65625,0.8828 c 0.59343,-0.3075 2.40867,0.3319 2.95313,0.5723 l 0.63672,1.1386 c 0.41802,0.1789 1.86101,-0.498 2.52734,-0.416 0.0831,0.01 1.16833,0.4384 1.31641,0.4942 l 0.70117,-0.2149 c 0.7529,-0.1697 1.11778,1.8028 3.38672,0.057 l 0.21484,-1.1484 c 0.16402,-0.2472 2.02598,-0.9636 2.41211,-1.2051 0.82466,-0.1344 1.51909,0.8106 2.35742,0.5019 l 1.02344,-0.8789 c 0.9078,-0.2312 0.86107,1.2456 3.00586,0.4825 l 1.92383,0.6269 c 0.11846,-0.9704 0.72921,-2.7223 1.51172,-3.3887 -0.43397,-0.2881 -0.86857,-0.7463 -1.16016,-1.1757 l 0.3457,-0.9239 c 0.66177,-0.7893 2.36108,-0.6957 3.25977,-1.0761 0.36677,-0.1561 1.56029,-1.0193 1.83594,-1.1036 0.71986,-0.2208 1.70218,-0.023 2.4414,-0.2109 2.24161,-0.5661 3.91987,-2.661 6.23438,-2.7988 l 0.13672,0.4316 -0.34571,1.0977 c 0.19706,0.2938 0.78346,0.4991 1.11719,0.4941 0.32121,0.5843 1.23667,1.629 1.93945,1.7793 0.48522,-0.3907 3.2816,-0.3228 3.99805,-0.3672 0.52509,0.069 1.55817,1.5678 1.81445,1.9825 l 0.54493,0.068 c 0.25515,-0.2267 0.7815,-0.4455 1.1289,-0.4239 0.31893,0.2096 0.83718,0.3595 1.21875,0.3379 1.68007,-1.3418 3.3471,0.063 4.99414,0.584 1.50466,0.4761 3.09177,-1.6298 4.85156,1.1699 1.10031,-0.1196 2.80113,0.9603 3.49024,1.7246 0.8053,-0.1651 1.47725,0.034 2.25976,0.1875 l 0.76758,0.877 c 1.8327,-0.2882 2.59888,1.1933 4.21289,1.289 1.33038,0.078 2.6994,0.047 4.03321,0.07 1.15725,0.5012 1.40077,2.0604 1.61718,3.1504 0.5399,0.6538 1.34981,0.8023 2.11524,1.0586 0.35766,0.778 0.61765,1.846 0.59375,2.7071 0.66747,0.1366 1.4212,0.5577 1.9668,0.9472 4.57206,-0.6572 4.09187,1.2585 7.53515,2.0137 0.82807,-0.3201 1.23468,-1.4826 1.77344,-2.1113 0.27109,-0.3155 0.7115,-0.5686 1.01562,-0.8614 2.31678,-2.2359 2.88727,-3.0273 6.25196,-3.4726 0.4932,0.3485 1.76544,0.5445 2.34179,0.6094 0.57862,-0.5661 2.21019,-1.7944 3.06446,-1.545 0.66633,-0.9317 -0.22058,-2.1865 0.86719,-2.8437 0.90895,0.2187 2.33601,0.7624 3.24609,0.7168 l 1.58203,-0.8516 c 0.52851,0.01 1.13896,0.1119 1.63672,0.293 1.14928,-0.598 6.02474,-2.3362 7.30273,-2.5606 2.33159,1.261 3.36318,-0.9156 5.47266,-1.3222 l 2.84375,1.2304 c 0.65836,-0.5672 0.68908,-1.1484 1.13672,-1.7578 0.29159,-0.3952 0.70058,-0.7292 0.96484,-1.0937 1.06955,-1.4659 2.04197,-2.9372 3.17188,-4.377 0.3269,-0.4157 0.70404,-0.577 1.08789,-0.8925 1.88054,-1.5457 3.94462,-3.0251 5.66797,-4.7461 0.14466,-1.2108 -0.18973,-2.9587 -0.61914,-4.084 0.033,-0.1048 0.33012,-1.0981 0.35742,-1.1289 2.08215,-2.294 4.21356,-4.5493 6.17383,-6.9492 2.3612,-2.8909 4.50448,-6.0026 6.75976,-8.9766 l 4.28906,-5.6582 c 0.17085,-0.2267 0.23606,-0.612 0.41602,-0.8262 1.42948,-1.6926 3.80156,-2.7896 5.53516,-4.1621 0.21983,-0.1731 0.37945,-0.486 0.60156,-0.6523 0.3474,-0.2586 0.82968,-0.3995 1.16797,-0.6661 4.10962,-3.2382 8.15812,-6.5439 12.25976,-9.789 0.15491,-0.123 0.3122,-0.3261 0.45117,-0.4707 l 0.28321,0.018 0.19531,-0.3867 c 2.63343,-1.9136 5.71544,-3.7242 7.38867,-6.6367 1.0069,-0.8873 4.83486,-5.0952 5.08203,-6.1192 0.49889,-2.0605 0.76294,-4.5578 1.02149,-6.6719 0.0969,-0.7893 -0.0123,-1.6305 0.0879,-2.4199 0.21186,-1.66297 1.52628,-3.0516 2.42383,-4.36718 3.33166,-4.87732 6.65908,-9.76703 10.07617,-14.58398 0.0194,-0.0273 0.036,-0.33272 0.041,-0.38282 0.69481,-0.29842 7.54454,-10.92705 9.19727,-13.31445 7.03806,-3.28951 14.1828,-6.4182 21.1582,-9.83984 2.63344,-1.17662 5.20235,-2.5288 7.83008,-3.73047 1.24496,-0.57179 2.81167,-1.0521 3.97461,-1.74805 0.7734,-0.46359 1.6771,-1.45491 2.37305,-2.05859 1.40556,-0.85542 2.64192,-2.16612 3.8789,-3.17188 2.32704,-1.89306 5.77179,-4.983 8.15235,-6.58789 1.07866,-0.72784 3.83581,-1.44205 5.26758,-2.04687 3.45011,-1.45796 6.91267,-2.8788 10.37304,-4.32422 5.8808,-2.45575 11.86057,-4.73712 17.75391,-7.18945 1.39531,-0.57976 5.45279,-2.38078 6.70117,-2.68946 3.01956,-0.74948 6.28856,-1.09047 9.37305,-1.61328 0.20047,-0.0342 0.48426,-0.18025 0.68359,-0.25195 0.54559,-0.92376 1.57585,-2.41275 2.81055,-2.43555 1.3395,-1.32582 2.47623,-2.52035 4.33398,-3.1582 0.42714,-1.05019 1.55527,-1.60169 1.88672,-2.70313 0.38391,-1.27001 -0.30251,-2.7554 -0.0508,-4.12109 0.38613,-2.08898 3.23176,-2.4396 2.57227,-6.15625 l 0.63671,-0.96289 c -0.004,-0.0421 -0.0169,-0.27884 -0.0351,-0.30274 -1.32811,-1.89762 -0.89445,-1.69807 -0.56641,-4.20507 l -0.47656,-0.57032 -1.36719,-0.33984 -0.48828,-0.84961 c 0.0376,-0.66519 0.39479,-2.73029 0.76953,-3.2793 0.81782,-1.1994 3.87332,-3.49493 3.05664,-5.2832 -0.34171,-0.37588 -1.44983,-0.69125 -1.91797,-0.78125 -0.20503,-0.14693 -0.26598,-0.54725 -0.30468,-0.73633 -0.48864,-2.38399 0.39538,-2.45756 0.5332,-4.53515 0.062,-0.89186 -0.36286,-2.05784 0.004,-2.89844 0.66291,-1.51491 1.61852,-2.95124 2.31446,-4.4707 l -0.42578,-1.28516 -1.01953,-0.73047 c -0.31322,-0.62191 -0.26606,-1.7819 -0.0234,-2.41406 0.24489,-0.24034 0.92917,-0.99131 0.98047,-1.35352 -0.24717,-0.68911 -1.48604,-0.87925 -1.55664,-1.55468 l 0.23242,-0.77149 c 1.53199,-1.04335 3.40678,-3.85932 4.21094,-5.55078 0.19933,-0.41688 0.2271,-0.97 0.43554,-1.37891 0.38044,-0.74835 0.97716,-1.40888 1.37696,-2.16406 0.31323,-0.58546 0.66026,-1.93126 1.05664,-2.35156 0.36791,-0.23009 1.28787,-0.72057 1.74804,-0.70117 0.71531,-0.24377 3.82413,0.0562 4.76953,-0.0156 0.48181,-0.0376 0.97799,-0.24935 1.46094,-0.28125 0.87819,-0.0604 2.27285,0.3356 3.16016,0.43359 1.88395,-0.42257 2.20951,-2.45512 3,-3.86523 0.32234,-0.57521 0.86257,-1.25224 1.27148,-1.77734 1.21876,-1.56958 2.92815,-2.38327 4.54102,-3.50977 2.26325,-1.58211 4.29292,-3.44896 6.59375,-4.9707 1.2666,-0.83833 2.88066,-1.54748 3.98437,-2.61133 1.06613,-1.02968 1.83814,-2.59598 3.39063,-3.01172 2.99451,0.6538 6.09695,-1.57511 8.41601,-3.12305 0.83491,-0.55926 1.78327,-0.38972 2.63868,-0.68359 1.18117,-0.40321 1.4914,-1.74067 3.48242,-2.14844 0.39664,-0.081 0.93956,-0.0105 1.50781,0.0801 l 0,-264.30859 c -0.37324,-0.0831 -0.75262,-0.14066 -1.20312,0.0137 -0.55585,0.33145 -1.06631,1.30712 -1.12891,1.93359 l -0.64844,0.46875 c -0.8873,0.27336 -1.52831,-0.60526 -2.11719,-1.05859 -0.3793,-0.29159 -0.9669,-0.53211 -1.40429,-0.73828 -1.00581,1.06044 -0.2092,2.89726 -1.01563,4.02148 -1.25863,1.75866 -4.54619,1.46403 -6.29687,2.73633 -0.56838,0.41346 -0.99689,1.11892 -1.56641,1.53125 -0.63216,0.46131 -1.79963,0.56541 -2.38281,1.11328 -0.70278,0.66178 -2.07334,2.89536 -3.08594,2.91016 l -0.33203,-0.17188 c -0.38043,-1.95229 -1.43881,-3.6983 -2.70313,-5.19726 -2.25528,-2.68127 -3.93184,-3.71519 -7.23046,-1.89844 -0.75404,0.41574 -1.28867,1.16057 -2.30469,1.48633 -0.92261,0.35538 -2.04367,0.82957 -2.85352,1.38086 -1.30875,0.89072 -1.98762,2.29386 -3.84765,1.39062 -0.53193,-0.35538 -1.18202,-2.08136 -1.35743,-2.65429 l 0.87305,-0.7793 c 0.21172,-0.37133 0.19933,-1.10606 0,-1.47852 l -0.6875,-0.37304 -1.14844,0.86132 -0.66015,0.0117 c -1.17661,-0.59685 -0.65353,-2.72941 -0.81641,-3.68164 -0.24945,-1.46251 -2.14314,-2.57612 -2.44726,-4.26758 -0.21414,-1.1937 -0.0559,-2.36571 -0.4375,-3.58789 -0.36677,-1.18117 -0.921,-2.3172 -1.29688,-3.49609 -0.92489,-2.90453 -1.54719,-5.89347 -2.79101,-8.70117 l -0.71485,-0.44727 -1.22851,0.60742 -1.0879,-0.084 -0.18945,-0.89062 -0.4375,-0.44922 -0.65429,0.0351 -0.69922,0.62305 c -0.37246,-0.15832 -0.89556,-0.92977 -1.08008,-1.25781 0.23348,-0.88047 0.32353,-2.12442 0.17773,-3.01172 -0.50914,-3.13347 -1.70188,-2.466 -1.92969,-3.79297 0.22439,-0.27794 1.32203,-0.31879 1.63868,-0.30859 l 0.25976,-0.9961 -0.21289,-0.60937 c -0.45903,-0.25401 -0.93269,-0.68925 -1.2539,-1.10157 -0.20954,-0.7791 0.0664,-1.38739 0.0664,-2.14257 0,-1.07866 -1.13672,-3.81028 -1.78711,-4.61328 -0.83946,-1.0331 -2.65406,-2.12324 -2.98437,-3.47071 l 0.23437,-1.15039 -0.3164,-0.88867 c -0.40891,-0.3326 -1.18634,-0.70394 -1.72852,-0.71094 -0.26539,0.22097 -0.69329,0.38432 -1.0293,0.44922 l -0.9414,-0.57031 c -0.0763,-1.38278 -1.0036,-1.83001 -1.6836,-2.80274 -0.96704,-1.38392 -0.24413,-2.62944 -1.5039,-4.05664 -0.68911,-0.78251 -2.12345,-2.3115 -3.04492,-2.83203 -0.68911,-0.38841 -1.53483,-0.39014 -2.16016,-1.03711 -1.94546,-2.0138 -0.87793,-2.39589 -4.02734,-2.63281 -0.44422,-0.0342 -1.10802,-0.0369 -1.50782,0.26953 -0.38727,0.29273 -0.79696,0.83765 -1.13867,1.19531 -0.37929,0.40094 -0.86353,0.82743 -1.19726,1.26368 -1.2985,1.69601 -0.65075,4.04793 -2.66797,5.58789 l -0.79688,0.0195 c -0.31095,-0.46814 -0.49463,-1.17951 -0.55273,-1.72852 -0.92033,-0.65722 -1.79007,-1.48817 -2.51563,-2.35156 l -0.11523,-0.58594 c -0.74151,-5.09146 -0.91477,-4.89085 -4.28516,-8.29883 -1.3133,-1.32811 -6.30762,-6.30202 -5.06836,-8.59375 1.55705,-2.41588 4.1298,-1.11274 5.69141,-2.15039 0.8201,-0.5923 1.33712,-4.07917 1.54101,-4.99609 0.30753,-1.38961 -4.24752,-5.20055 -5.38085,-5.9375 -0.9511,-0.61964 -3.09933,-1.26289 -3.26563,-2.63086 0.15491,-0.63558 0.89577,-3.08185 0.6543,-3.63086 -0.50459,-1.28597 -3.65397,-1.5683 -4.875,-2.58203 -0.64583,-0.53534 -1.21842,-1.31331 -1.81641,-1.91016 -1.4477,-1.44087 -2.93087,-2.84769 -4.39453,-4.27148 -0.32234,-0.31209 -0.57235,-0.74912 -0.87305,-1.08399 -1.83725,-2.04342 -3.44422,-2.2168 -6.16992,-1.62109 -3.35102,-2.35667 -3.53894,1.32712 -5.59375,-0.0488 -0.89869,-1.76321 -2.52958,-1.73007 -4.25977,-2.10937 l -0.83398,-2.02735 c -1.39075,-0.43283 -3.72093,2.16961 -3.95898,3.44532 l 0.23242,0.40429 -0.0859,1.14844 c -0.53534,0 -1.39545,0.51294 -1.7793,0.83984 l -0.52734,-0.0195 -0.74023,-0.60156 c -0.50003,-2.29514 -2.05161,-5.91196 -3.32618,-7.88477 -2.24503,-1.8828 -5.69915,-0.29804 -7.97265,-1.01562 -0.79732,-0.25059 -1.39172,-0.94994 -2.48633,-1.21875 -0.83832,0.38613 -3.07145,1.75564 -3.67969,1.68164 l -0.55859,-0.40234 c -0.49776,-1.20737 0.41536,-2.70249 0.35156,-4.00782 -0.67773,-1.33266 -1.64352,-2.75214 -2.16406,-4.12695 -0.37929,-0.99892 -0.59513,-2.21397 -0.87305,-3.2539 -0.0159,-0.0547 -0.33696,-0.53003 -0.38476,-0.60743 l -0.40821,-0.17383 -0.60156,0.11133 c -0.52851,0.0968 -0.20073,0.0559 -0.99805,0.0469 -0.81099,-0.009 -1.66476,-0.0586 -2.47461,0.0234 -0.47839,0.0478 -1.06164,0.23285 -1.5332,0.22265 l -1.48828,-0.28711 c -0.97159,-0.34399 -2.55187,-1.4316 -3.5918,-1.28125 l -0.52343,0.43946 0.68164,2.18554 -0.37891,0.72461 c -1.25407,0.65494 -3.55149,0.77298 -4.40234,1.5293 -0.56382,0.49889 -0.99551,1.63558 -1.86915,1.70508 -0.88389,-0.21072 -4.10992,-0.97622 -4.99609,-0.88282 -0.56154,0.0592 -1.20001,0.47506 -1.75586,0.50586 -1.85662,0.10484 -1.36467,-0.85716 -4.20312,0.12696 -0.53193,-0.0524 -1.09631,-0.35049 -1.53711,-0.61133 l -1.14844,-0.6836 c -1.00576,-0.7825 -0.76197,-5.7266 -2.35547,-5.89062 -1.09347,-0.96362 -3.36138,-0.30155 -4.82617,-1.37109 -2.27464,-1.65957 -5.67995,-5.13911 -6.05469,-8.06641 -0.1651,-1.29052 0.10216,-2.72054 -0.0937,-4.00195 -0.18338,-1.1937 -0.7579,-2.61163 -1.09961,-3.78711 -0.35994,-1.24382 -2.42988,-0.0507 -3.20898,-3.58399 -0.50914,-2.3145 -0.15257,-4.43988 0.24609,-6.74414 l 0.26758,-1.54883 c 0,-4.1996 -3.37611,-6.21459 -7.04492,-7.14062 l -1.05274,-2.10352 c -1.44429,-0.0752 -1.9638,-1.17627 -3.01172,-1.83007 -0.55471,-0.34626 -1.37888,-0.43727 -1.91992,-0.79493 -0.76429,-0.50687 -1.38025,-1.35527 -2.13086,-1.89062 -0.385,-0.27564 -0.99001,-0.35993 -1.38867,-0.62305 -1.03196,-0.68341 -1.9184,-1.55828 -2.99023,-2.23828 -0.0797,-0.049 -0.26207,-0.0872 -0.35547,-0.11914 -0.5547,-0.1868 -1.19757,-0.47725 -1.76367,-0.5957 -2.466,-0.51712 -2.46806,0.49467 -4.19141,-1.84375 -1.1675,-1.58667 -0.0322,-13.25806 -1.12109,-17.99414 -0.16744,-0.72784 -1.08822,-5.7498 -1.70899,-6.20313 l -0.60156,-0.0195 c -0.3998,0.57634 -1.04947,1.29453 -1.64063,1.67383 -0.24717,0.15832 -0.64149,0.19779 -0.875,0.36523 -0.41118,0.295 -0.73188,0.79386 -1.14648,1.08203 -1.41695,0.98754 -3.44247,-0.21235 -5.02344,-0.12695 -0.0342,0.002 -1.93137,0.90104 -2.125,0.96484 -1.23016,0.40663 -4.7272,-0.0451 -5.95508,-0.11914 -0.57294,-0.0353 -1.95512,1.01609 -2.11914,1.57422 0.38272,2.73481 -0.84052,3.70484 1.56055,5.87696 0.39069,0.48637 0.62991,1.22362 0.74609,1.8125 0.36107,1.83383 0.49541,3.18543 -1.51953,4.03515 -0.50003,2.29058 -1.85096,2.81524 -2.0332,3.35742 -0.32349,0.96134 -0.73053,1.99865 -0.79883,3.02149 -0.0444,0.64811 0.2143,1.39893 -0.0215,2.03906 -0.2392,0.65153 -0.77827,1.25068 -0.73047,1.99219 0.87364,1.38164 1.86581,2.83335 0.30078,4.13867 l -0.60351,0.0234 c -0.78821,0.35538 -1.54887,1.64849 -1.68555,2.46289 l -0.97656,0.39258 c -0.84288,1.22445 -0.77455,2.96536 -1.89649,4.35156 -1.86345,2.29969 -3.98295,2.07093 -5.41016,5.09961 -1.24722,2.64824 -2.60041,2.17582 -5.0664,1.70312 -0.98982,0.51712 -2.03753,0.94186 -3.05469,1.4043 -3.09701,-1.38164 -2.37419,-4.50366 -6.81641,-2.92383 -0.24034,0.44194 -0.7421,0.43026 -1.05078,0.74805 -0.47725,0.48978 -0.83427,1.13652 -1.31836,1.61719 -0.82352,0.81554 -1.80847,1.37393 -2.60351,2.27148 l -1.13672,0.0215 c -0.45675,-0.68342 -1.14256,-1.31053 -1.73828,-1.86524 -2.76328,-0.66401 -3.074,-0.73874 -5.99219,-0.71484 -1.11283,-1.02057 -2.80166,-0.45309 -3.68555,-1.57618 l -0.40234,-0.0234 c -0.94881,0.93287 -2.92187,1.65068 -4.16797,0.875 -0.9864,-0.61507 -1.70976,-1.67607 -2.83398,-2.14649 -0.94084,-0.39296 -1.61483,-0.32408 -2.52149,-1.07812 -0.84972,-0.70619 -1.57997,-1.66553 -2.45703,-2.32617 -1.26432,-0.95223 -4.68906,-1.83344 -6.27344,-1.61133 -0.65722,0.0923 -1.45803,0.4182 -2.21093,0.66992 -1.36911,0.8668 -3.54731,1.77332 -4.60547,2.56836 -1.27913,0.9602 -2.81085,2.75268 -4.60938,2.45312 -1.64931,-0.27451 -2.35468,-1.38754 -3.73632,-2.03906 -1.17775,-0.55469 -2.6665,-0.13208 -3.875,-0.45898 -1.22902,-0.3326 -4.2534,-2.28775 -5.44141,-1.61914 l -0.97266,1.1289 c -0.92603,0.28475 -1.52022,-0.38922 -2.3164,-0.41992 -1.09689,-0.0433 -2.41908,0.48115 -3.56836,0.53125 -2.41816,0.10821 -4.89939,0.32617 -7.31641,0.32617 -2.10492,0 -4.18152,-0.34518 -6.26367,-0.39648 -0.9135,-0.0239 -2.38058,0.444 -3.16992,-0.21094 l -0.32813,-0.50781 c 0.0695,-1.19826 2.58248,-2.16932 0.51172,-4.28906 -0.73923,-0.75517 -1.5411,-1.42769 -2.5332,-1.84571 -0.79732,0.0923 -2.00915,0.38147 -2.78711,0.32227 -1.9728,-0.15035 -3.84451,-3.18942 -4.25,-4.94922 -0.24603,-1.06386 -0.21498,-2.35979 -0.74805,-3.33594 -0.33829,-0.40549 -1.11049,-0.79868 -1.63672,-0.83398 -1.67779,0.28362 -2.91625,3.38034 -5.71484,3.26758 -2.36349,-0.0945 -4.4954,-0.56113 -6.8418,-0.9336 -3.99001,-0.6333 -4.19648,0.5518 -6.17383,-3.08398 -4.14037,-0.84402 -3.48269,-6.33723 -5.13086,-6.9375 l -0.5039,-0.0234 -1.15039,1 c -0.87136,0.29159 -2.94717,-1.01524 -4.44727,-0.13477 -0.14351,0.75063 -1.12955,2.33036 -1.74805,2.78711 l -1.58398,-0.11914 c -1.00235,0.56496 -2.20161,1.41873 -3.25976,1.79688 -1.08095,0.38727 -1.82629,-0.014 -2.88672,1.08398 -0.84858,0.0524 -2.09235,-0.74988 -2.3418,-1.57226 l 0.0195,-1.09571 c 0.79049,-0.49093 1.21127,-1.86074 1.26367,-2.70703 0.0558,-0.90667 0.12364,-1.94506 -0.15429,-2.83007 -0.45902,-1.45911 -1.75499,-3.22191 -3.4043,-3.45313 -1.23585,-0.17314 -2.64191,-0.0198 -3.79688,-0.57227 -1.7188,-0.82237 -2.97817,-2.41783 -4.80859,-3.14453 -0.57293,-0.22781 -1.34976,-0.18398 -1.91016,-0.42773 -0.17427,-0.0752 -0.84331,-0.74596 -1.05859,-0.86328 -0.4465,-0.24375 -1.0522,-0.29775 -1.50781,-0.53125 -1.70625,-0.87022 -0.77643,-4.29336 -1.625,-5.14649 -0.81669,-0.3007 -2.24283,-1.09222 -2.26563,-2.10937 0.40663,-1.1208 1.12573,-3.38926 0.13477,-4.41211 -0.58773,-0.033 -1.51213,-0.51055 -1.81055,-1.03906 l 0.54883,-0.74219 c 0.77682,-0.0228 2.99394,-0.48571 3.46094,-1.20899 l -0.0527,-0.63867 -1.24023,-0.96484 c -1.85548,-1.44201 -0.70727,-2.6242 -0.98633,-4.56055 l -0.53906,-1.1543 -0.26953,-0.57812 0.47265,-1.32812 c -0.033,-0.89414 -0.77174,-1.08773 -1.16015,-1.67774 -0.60596,-0.92262 -1.0849,-2.33621 -1.44141,-3.38867 l 0.19727,-1.04492 c 1.60945,-1.24154 3.20946,0.13652 3.78125,-2.48438 l -0.33008,-1.22461 c -0.54104,-0.33829 -1.66865,-1.31642 -1.78711,-2.00781 l 0.29883,-0.8418 c 1.3543,-0.78251 3.37646,-0.13119 3.98242,-2.05273 l -0.0527,-0.4336 c -0.56382,-0.57179 -1.09809,-1.2002 -1.56054,-1.85742 l -0.0527,-0.71289 c 1.50807,-1.532 0.88928,-2.48834 1.34375,-3.34375 0.37246,-0.7005 1.46873,-1.65932 2.02344,-2.22656 l 0.0723,-1.09766 -0.73047,-0.25195 c -1.98305,1.07752 -2.43508,-0.45926 -4.4375,-0.23828 -0.48294,0.0524 -2.90537,0.96831 -3.28125,1.15625 -0.53876,0.26881 -0.77593,0.74432 -1.55274,0.8457 -3.70754,2.67899 -6.50861,2.54845 -10.88476,2.98242 -0.42485,0.0421 -1.69463,0.0339 -2.19922,0.16602 -1.08777,0.2859 -2.1427,1.04923 -3.25781,1.33398 -0.66633,0.16972 -1.49172,0.19261 -2.17969,0.28711 -0.20161,0.0285 -1.65221,0.26777 -1.75586,0.25977 -0.60483,-0.0444 -1.27148,-0.46065 -1.88086,-0.53125 -1.82586,-0.21419 -3.76565,-0.20422 -5.70313,-0.0117 -0.4932,0.0171 -1.06051,-0.0134 -1.54687,0.0527 -0.7791,0.10592 -2.08758,1.13442 -2.78125,1 -1.04221,-0.20274 -2.0348,-0.77642 -3.16016,-0.35156 -0.90553,0.34171 -1.58718,1.32069 -2.63281,1.50977 -0.78934,0.14352 -2.3447,-0.85233 -3.48828,-0.86133 l -0.65039,0.48633 c -0.15035,0.81555 -0.79333,2.4552 -1.55078,2.93359 -0.66975,-0.0399 -3.08756,0.16347 -3.71289,0.41406 -0.79618,0.31779 -1.24114,0.84375 -2.20703,0.84375 -0.69481,0 -1.89245,-0.37748 -2.66016,-0.53125 -0.73239,0.42144 -2.42942,0.9029 -3.25977,0.48829 -0.39866,0.0581 -0.91102,0.57333 -1.10351,0.89453 l 0.35351,1.22265 -0.375,0.63867 c -0.61508,0.0125 -1.31135,0.0422 -1.9082,0.20508 l -0.40039,-0.27929 c -1.35773,0.27222 -1.67276,1.35224 -2.58398,2.09375 -0.60027,0.49092 -1.62859,0.62744 -2.28125,1.22656 -1.29394,1.18573 -1.75857,3.59544 -3.41016,5.07617 -0.98868,0.88731 -3.14683,0.78391 -3.83594,1.63477 -1.16295,1.43176 0.16767,3.41507 -1.63086,4.18164 -1.51719,0.2392 -3.03039,-1.66664 -4.7207,-0.91602 -0.72556,0.83491 -1.66146,1.83021 -2.88477,1.68555 -0.41461,-0.049 -0.86241,-0.3319 -1.27929,-0.40821 -0.79162,-0.1435 -1.73132,-0.003 -2.51953,0.0703 -0.46814,0.0433 -1.20161,0.14606 -1.62305,0.41601 -0.49206,0.31551 -1.00028,0.82334 -1.45703,1.19922 -0.0205,0.0182 -0.3294,0.0891 -0.375,0.10156 -0.34968,-0.10251 -0.76192,-0.57592 -0.9043,-0.89257 l -0.15039,-2.3711 c -1.11283,-0.44308 -1.82007,-1.45654 -2.78711,-2.08984 -0.32348,-0.213 -0.96607,-0.26991 -1.2793,-0.48633 -0.92148,-0.63786 -1.44903,-1.69181 -2.63476,-1.96289 -1.09233,-0.24945 -2.04225,0.4751 -3.06055,0.5332 -2.19035,0.12643 -4.68997,-0.5169 -6.04883,-2.32226 -0.11048,-0.33601 -0.0823,-0.98608 0.15235,-1.27539 1.76777,-1.4796 4.62154,0.18713 6.39843,-1.24805 1.83497,-1.48187 1.77552,-4.39811 2.86329,-6.29688 1.07297,-1.87484 2.15923,-2.27666 2.35742,-4.6914 0.21754,-2.65166 0.20055,-5.39555 0.30078,-8.0586 -0.51256,-0.79732 -1.2696,-0.98954 -1.5293,-2.08984 0.13782,-1.12764 0.16491,-2.26184 0.27539,-3.39062 0.20275,-2.07987 0.56272,-3.51433 -0.45898,-5.4336 -0.0615,-0.11504 -0.52787,-0.91664 -0.66797,-0.99414 -0.88617,-0.49661 -1.82167,-0.96742 -2.68164,-1.5039 -1.17889,-0.73354 -2.30291,-1.80629 -3.60938,-2.32227 -1.38505,-0.54674 -4.23752,-1.28594 -5.71484,-1.15039 -0.44081,0.0399 -0.88556,0.42313 -1.42773,0.33203 -0.55243,-0.0923 -1.13068,-0.40384 -1.67969,-0.53711 -0.75404,-0.18452 -1.55521,-0.23963 -2.30469,-0.43555 -0.93515,-0.24489 -2.24032,-0.97668 -3.23242,-0.81835 -0.721,0.11504 -1.65244,1.10985 -2.00781,1.68164 -1.02627,0.28362 -3.8617,-1.14239 -4.00977,-2.27344 0.41233,-1.53313 2.13947,-4.6047 1.43555,-6.06836 l -2.20313,-1.89063 -0.25,-0.78906 c 0.30412,-1.51149 1.52433,-1.87282 0.53907,-3.51758 -0.20503,-0.34285 -0.62445,-0.75395 -0.98438,-0.94531 -0.81783,0.005 -1.6384,0.0419 -2.45508,0.0977 -1.55734,-1.34891 -2.74072,-1.68884 -4.35156,-1.73438 z"
     id="rect4"
     inkscape:connector-curvature="0" />
  <path
     style="fill:#000000"
     d="m 942.0244,426.24023 0,302.96875 c 1.67433,-0.73587 3.3776,-1.51463 5.0625,-2.07031 2.96945,-0.97728 6.36391,-1.5404 9.40625,-2.27735 4.97869,-1.20737 9.8994,-2.5132 14.83594,-3.86523 0.098,-0.0273 0.41816,0.0977 0.5332,0.084 0.79618,-0.0934 4.00568,-1.04973 4.5957,-1.43359 0.0718,0.0137 0.73552,0.14767 0.76172,0.13867 l 9.93559,-3.41797 c 0.3804,-0.13326 0.8978,-0.0674 1.2714,-0.21093 0.1264,-0.0478 0.5366,-0.4958 0.6426,-0.5254 2.7621,-0.76997 5.6201,-1.77894 8.4199,-2.3496 2.0696,-0.42144 4.2085,-0.60264 6.2872,-0.97852 5.0402,-0.91122 10.0234,-2.31682 15.0625,-3.30664 0.1833,-0.0365 0.6188,0.0542 0.7851,0.01 0.07,-0.0182 1.7847,-0.82601 1.9453,-0.91601 l 4.0664,-2.33984 c 0.1743,-0.10027 0.5373,-0.0962 0.7149,-0.19532 0.4762,-0.26768 0.8878,-0.69441 1.3593,-0.97461 1.6858,-1.00235 3.4326,-1.92847 5.1446,-2.88867 0.3337,-0.1868 0.8602,-0.27055 1.1211,-0.4414 2.638,-1.74157 5.4094,-3.64859 8.3379,-4.85938 1.1185,-0.46244 2.7177,-0.64021 3.916,-0.92383 0.9864,-0.23236 2.1036,-0.59891 3.1367,-0.41211 l 0.2305,-0.27734 c 3.0435,-0.62532 6.3096,-1.15695 9.082,-2.61719 3.9684,-2.09239 7.9166,-4.51035 12.0957,-6.14258 l 0.3711,-0.11523 c 2.8521,-0.88616 5.7322,-1.56265 8.6641,-2.15039 0.8406,-0.16744 1.8289,-0.16428 2.6445,-0.40234 1.4967,-0.4374 2.9579,-1.50861 4.4375,-2.06446 2.1881,-0.82238 4.4418,-1.53291 6.6504,-2.29492 0.026,-0.0109 0.3975,0.0424 0.4824,0.0527 l 0,-252.80296 -152,0 z"
     id="rect8"
     inkscape:connector-curvature="0" />
  <path
     style="fill:#ef7d00"
     d="m 1093.0244,426.24023 0,252.92383 c 0.1719,-0.0586 0.3461,-0.11468 0.5176,-0.17383 0.027,-0.0114 0.4488,0.0487 0.5058,0.0547 1.4761,-0.77568 2.9387,-1.00682 4.4571,-1.55469 1.2814,-0.46245 2.6666,-1.08846 3.9765,-1.43359 2.5537,-0.67316 5.2445,-1.12221 7.8301,-1.67579 0.2802,-0.0592 0.5015,-0.26184 0.7988,-0.28124 2.0969,-0.12757 12.9087,-2.06066 13.8438,-2.49805 l 8.1797,-3.81641 c 0.2654,-0.12413 0.6491,-0.10224 0.9179,-0.2207 2.679,-1.17548 5.3535,-2.47261 8.0723,-3.54102 1.5593,-0.61166 3.1916,-1.06982 4.7578,-1.66211 1.2712,-0.47953 2.3715,-1.04141 3.6973,-1.36718 3.8442,-1.39872 7.5564,-2.84802 11.2891,-4.25586 1.7245,-0.65038 3.5288,-1.11443 5.2636,-1.73633 2.5605,-0.91692 5.1071,-1.89331 7.6563,-2.83984 0.6082,-0.22668 1.1513,-0.26637 2.0078,-0.63086 0.516,-0.22098 1.1086,-0.2385 1.6269,-0.43555 l 11.4629,-4.35352 c 1.0878,-0.41233 2.1629,-1.0416 3.2325,-1.41406 l 13.4003,-4.67578 c -0.7631,-0.53535 -1.8828,-1.92764 -2.1425,-2.83203 -0.1913,-0.65722 0.2062,-2.25965 -1.0957,-3.04102 l -2.9258,-1.7539 -0.9649,0.24804 -1.207,2.36133 c -0.6333,0.61735 -2.332,-0.24369 -2.9687,0.23242 -1.2928,0.9659 -2.8214,1.90271 -3.7247,3.28321 -0.1583,4.10164 -0.8418,3.75511 -3.039,6.57422 -1.2302,0.54444 -2.7752,-2.83461 -4.2617,-2.73438 l -1.0567,-1.1543 c -0.5182,-2.04 -0.056,-3.81126 1.2832,-5.33984 0.063,-0.59685 -0.068,-1.43519 -0.3633,-1.96484 -1.2415,-1.23696 -3.6931,-2.07662 -5.3652,-1.26563 l -0.4023,-0.23242 -0.3985,-0.76758 c 0.1219,-0.8144 0.4944,-2.0407 1.0332,-2.69336 -0.2085,-0.47498 -0.3944,-0.9962 -0.6484,-1.44726 -0.336,-0.59685 -0.6702,-1.35985 -1.0723,-1.9043 -0.4032,-0.54787 -0.9071,-0.537 -1.414,-0.77735 -1.8065,-0.85996 -3.2569,-2.88252 -3.0508,-4.91796 -0.3576,-0.81783 -1.8423,-1.93014 -2.5645,-2.36524 l -0.8633,0.27149 c -0.1802,-0.34626 -0.2824,-0.96658 -0.1914,-1.35157 l -1.4472,0.26758 -1.4571,-1.23633 -2.1269,-0.2207 -0.4453,1.83008 -0.5801,-0.0566 c -0.3167,-0.86452 -1.1627,-1.32395 -1.6035,-2.1543 -0.5638,-0.32234 -1.2011,-0.13101 -1.7969,-0.041 l -0.4043,-0.4375 0.8203,-0.70508 0.4473,-1.98438 1.3672,-0.14062 1.2031,-1.39063 0.082,-0.71289 1.0411,-0.6543 1.5429,0.19336 c 0.4351,-0.14238 1.3324,-0.64498 1.4805,-1.13476 -0.078,-1.48416 -3.7175,-4.36475 -4.7461,-4.98438 l -0.1113,-1.8125 c -0.8497,-1.25748 -2.6035,-2.24644 -4.1367,-1.71679 l -0.5899,0.88672 c -1.0195,-0.0672 -2.004,-0.65296 -2.9824,-0.51172 -0.926,-1.05588 -1.6542,-0.58668 -2.4219,-0.9375 -0.9352,-0.42942 -1.5392,-1.39831 -2.668,-1.5293 -0.2871,-0.213 -0.6504,-0.75107 -0.6504,-1.12695 l 1.127,-1.28907 -0.3887,-2.11914 1.041,-0.32031 -0.043,-0.74023 0.3066,-0.30274 1.3653,-0.0137 1.6835,1.23828 0.334,-0.0488 0.7539,0.39063 c 0.3531,-0.197 1.3817,-0.0619 1.7461,0.0156 0.9067,-0.60711 0.9638,-2.35731 2.0254,-3.19336 1.9625,0.10479 1.2553,0.25652 2.8887,-0.35742 0.7905,-1.56731 1.8479,-0.95915 3.0723,-1.6289 0.8793,-0.48067 1.4327,-1.55902 2.4453,-1.9668 l 0.2851,-0.81445 c -0.4761,-1.25293 -0.666,-4.2674 -0.2343,-5.48047 0.5342,-0.35196 2.7122,-0.0221 3.3125,0.10547 0.5159,-0.098 1.1039,-0.60151 1.375,-1.03321 l 2.8945,-4.61523 c 0.3486,-0.5547 0.7793,-2.1976 0.7793,-2.87305 0.021,-2.30425 -0.01,-4.24615 1.164,-6.36133 l -0.121,-0.53711 c 0.3097,-0.56268 0.8898,-2.08284 0.6289,-2.74804 0.5263,-0.67886 0.4504,-1.66654 0.7773,-2.41602 0.044,-0.10251 0.7403,-1.03991 0.8496,-1.1914 l 0.1992,-0.27735 c 0.254,-0.16397 1.0756,-0.0301 1.3399,0.0371 0.5182,-0.27906 0.3568,-1.6689 1.2031,-2.10742 l 0.3398,-1.40039 c 0.8736,-0.69481 3.3357,-0.94069 3.7286,-1.93164 -0.107,-0.59344 -0.4639,-0.85363 -0.6485,-1.30469 -0.1947,-0.48181 -0.2387,-1.05595 -0.4414,-1.5332 -0.4397,-1.03652 -1.9409,-2.52149 -2.7793,-3.15821 -0.3542,-1.55819 -0.8457,-3.5634 -0.668,-5.17968 0.9271,-0.83149 0.6336,-2.74963 0.5606,-3.82032 0.6515,-0.75062 1.3089,-1.42649 1.7852,-2.30468 l -0.09,-1.27344 -0.8008,-1.00195 -0.098,-0.81641 c 0.696,-0.26768 0.9547,-1.89827 1.3066,-2.48828 0.3406,-0.56838 1.0664,-0.6803 1.4024,-1.79883 -0.4784,-1.70626 0.4001,-3.12883 0.5664,-4.71094 0.024,-0.22097 -0.058,-0.99157 -0.018,-1.14648 0.2221,-0.89983 0.9277,-1.79387 0.9277,-2.7461 -0.434,-0.62418 -0.3643,-1.22395 -0.6172,-1.86523 -0.4192,-1.07182 -1.3947,-0.97883 -2.1328,-1.57227 -1.1697,-0.93969 -1.835,-2.04153 -3.1836,-2.80468 -0.3121,-0.17541 -1.2267,-0.97454 -1.4512,-1.31055 -0.042,-0.28932 -0.1555,-0.71134 -0.1445,-0.99609 0.042,-1.10372 0.068,-8.55751 0.8281,-9.40039 0.2836,-0.31323 0.8492,-0.64624 1.1954,-0.90821 1.2871,-1.41126 2.4697,-2.7159 3.3867,-4.25586 0.7745,-1.30419 -0.015,-4.463 1.4277,-5.49609 l 0.709,-0.0957 c 0.9147,-1.6459 1.6751,-3.29766 3.2344,-4.46289 0.123,-0.09 0.8523,-0.20008 1.0117,-0.29688 0.6846,-0.41347 0.8809,-1.10908 1.9004,-1.23437 l 0.3047,-0.43164 0.5039,0.20898 c 0.2733,0.53876 1.0682,1.63902 1.6992,1.82422 l 0.9355,-0.0957 c 0.6231,-0.71872 1.3748,-1.48989 2.3555,-1.58789 0.1823,-0.0182 1.5731,-0.17852 1.6641,-0.16602 0.9101,0.12985 2.3361,0.94553 2.7871,1.7793 0.2381,0.97273 -0.8418,2.58955 -0.3008,3.33789 l 0.5801,0.0293 c 1.4477,-0.47953 1.7067,-2.01923 1.914,-3.37695 1.8464,-1.83726 2.3648,-1.10572 3.5938,-2.0625 0.6971,-1.58439 2.1972,-3.1652 3.3066,-4.46484 l -0.092,-1.17383 c 0.6402,-0.6584 1.2909,-0.48721 2.0723,-0.57031 1.3998,-0.14921 2.3017,-0.86923 3.6367,-1.22461 0.5854,0.25058 1.264,0.66467 1.707,1.13281 l 0.1739,0.48437 c 0.4955,0.53534 2.2083,1.33273 3.0136,1.42383 l 0.3457,-0.14258 c 1.2883,-0.53079 2.1177,-1.90841 3.3262,-2.71484 0.6458,-0.43055 1.7394,-0.42876 2.1016,-1.23633 -0.385,-1.52858 2.0477,-4.86237 3.582,-5.10156 0.031,-0.39638 0.9149,-1.00346 1.2168,-1.16406 l 1.2871,0.0586 c 0.2734,-0.23919 0.7346,-0.71021 0.8633,-1.06445 l -0.7891,-2.86133 c 0.048,-0.36449 0.241,-0.95075 0.5098,-1.2207 l 0.7305,-0.0469 c 0.2939,-0.33373 1.0748,-0.508 1.4883,-0.5 0.7051,-0.38158 0.8239,-1.43372 1.6269,-1.92578 0.7028,-0.43283 1.4247,-0.62205 2.0762,-1.19727 1.573,-0.99323 1.446,-0.86811 1.8242,-2.55273 -0.2073,-0.95792 -1.0269,-2.26123 -1.7969,-2.86719 l -0.5293,-0.0293 -1.2168,1.16601 -0.3769,0.0234 -1.0274,-0.87305 -1.7851,-0.21484 -1.0274,-1.07813 -2.3691,-0.0293 c -0.7403,0.55015 -1.4898,1.22473 -2.2734,1.68945 -1.9546,1.15722 -3.7839,-0.69352 -6.7852,1.19727 l -0.4277,-0.0527 c -0.059,-6.44007 -2.829,-5.21522 -3.4532,-7.31445 -0.2802,-0.93856 -0.186,-1.92619 -0.6621,-2.83399 l -1.0586,-0.10937 -0.7246,-0.66797 c -0.9464,-2.17441 0.2435,-3.38124 0.057,-4.84375 -0.1865,-1.46707 -0.3878,-2.90451 -0.25,-4.38867 l -0.4492,-0.53906 c -0.7074,-0.0137 -3.8677,-0.45787 -4.2208,-1.15039 -0.688,-1.34521 -0.8047,-2.71572 -0.4003,-4.18165 0.4605,-1.66714 0.9057,-3.28416 1.4726,-4.86523 l -120.6944,-10e-6 z"
     id="rect6"
     inkscape:connector-curvature="0" />
  <path
     style="fill:#de2010"
     d="m 793.0244,426.24023 0,38.09961 c 1.88244,0.43964 3.30516,2.03705 4.95312,2.91016 1.11511,0.58887 2.30547,1.05191 3.42969,1.61914 1.06727,0.53763 2.14937,1.47976 3.21094,1.92968 0.45106,0.19135 2.05598,-0.17773 2.64258,-0.17773 1.26204,-0.88617 4.01499,-3.6015 4.08789,-5.25195 l -0.0547,-1.10352 c -0.0148,-0.34626 -0.0499,-0.85604 -0.28906,-1.16016 l -0.7168,-0.49609 -2.97265,-0.0977 c -0.0786,-0.0501 -0.41229,-0.24217 -0.45899,-0.29687 -1.2347,-1.42265 -1.79825,-2.24132 -2.69922,-3.94531 -1.93293,-3.65855 -2.03192,-2.49514 -0.84961,-6.97266 0.32121,-1.20851 0.41079,-2.22604 0.98828,-3.35937 0.19705,-0.38841 1.06934,-2.43917 1.69922,-2.56446 l 0.16797,-0.38476 c 1.17547,-0.90097 2.10193,-1.60264 3.52344,-1.97852 l 1.87305,-0.49414 c 2.03545,-0.83604 3.63686,-3.49731 6.12109,-2.56445 1.31102,0.49206 2.67011,1.09954 4.00391,1.5039 2.30653,0.69595 7.56386,-0.78659 9.65625,-1.91992 0.58888,-0.62647 3.4211,-3.05587 4.19336,-3.21875 1.46479,-0.30867 2.91181,0.59184 4.26953,-0.51758 l 0.28515,0.0469 0.26953,0.0449 c 0.0239,0.041 0.28711,0.47541 0.28711,0.50391 0.1161,5.93662 0.0195,11.88922 0.0195,17.82812 0,17.21527 -0.12481,34.42877 -0.01,51.64063 0.007,1.05702 -0.13573,2.15147 -0.11524,3.1914 0.13221,6.88315 0.0647,13.78548 0.0977,20.67774 0.0444,8.87303 -0.0514,17.71876 0.0625,26.59179 0,0.0228 0.11181,0.19697 0.12891,0.22657 -0.38955,2.4546 -0.15625,5.09797 -0.15625,7.57422 0,5.23611 0.0948,10.49192 -0.0977,15.72461 -0.14465,-0.0672 -0.38757,-0.14523 -0.51172,-0.23633 -4.63357,-3.37505 -3.20247,-1.35935 -8.21875,0.01 -0.24831,0.0672 -1.38614,0.33151 -1.66406,0.28711 -1.6926,-0.27792 -3.29678,-3.60187 -4.81055,-2.86719 l -0.94922,0.63086 -0.4746,0.31446 -0.86133,-0.11133 c -1.10599,-1.11056 -2.4556,-2.41571 -3.85547,-3.16406 -0.51598,-0.97728 -0.28027,-2.08633 0.37695,-2.93946 -0.0251,-0.45903 -0.64348,-1.13678 -0.98633,-1.38281 l -0.0371,-0.71289 c 0.36905,-0.55129 3.71097,-0.82749 4.45703,-0.90039 1.25978,-0.58774 1.93697,-3.74088 1.85157,-4.98242 l -0.98633,-1.40821 -0.043,-0.99414 c 0.59571,-1.09689 2.99398,-1.70939 3.08399,-2.6582 l -0.11329,-0.63672 c -0.32918,-0.25059 -0.72234,-0.79779 -0.80664,-1.20898 l 0.42969,-1.28321 c -0.0581,-0.37816 -0.43451,-0.95853 -0.80469,-1.10546 -0.47954,-0.0444 -2.20217,1.20872 -2.92773,1.45703 -2.27805,-0.0535 -3.97036,-1.84256 -5.81445,-2.8711 -1.86003,-0.34855 -1.66654,1.15211 -3.08008,1.53711 -4.42171,-0.95337 -3.06412,0.72724 -6.1543,2.07813 -0.51371,0.76885 -0.69401,2.24622 -1.33984,2.75195 l -1.60938,0.36133 c -0.24033,0.94311 -1.00276,1.45509 -1.61328,2.14648 -2.41588,2.73367 -1.48754,2.31101 -5.55273,2.85547 -0.43284,0.0581 -2.01073,0.91406 -2.58594,0.91406 -0.68682,0 -1.23262,-0.34694 -1.94922,-0.1914 l 0,264.22851 c 1.27265,0.0329 3.21538,0.75053 3.95312,0.008 0.53535,-0.53762 1.22445,-1.41385 1.82813,-1.83985 0.94312,-0.66178 6.95127,-0.53199 8.58008,-0.86914 2.61977,-0.5399 2.88151,-4.39368 6.64258,-4.8789 3.28724,-0.42372 2.89499,2.59642 7.20507,2.25585 2.50473,-0.19818 4.98859,-1.29849 7.41016,-1.89648 0.59344,-0.14694 1.33641,-0.0788 1.9082,-0.26562 2.25642,-0.73695 4.21314,-2.28469 6.44336,-2.97266 2.72,-0.83832 5.6796,-0.81291 8.48047,-0.48828 0.74607,0.0854 1.75263,-0.0198 2.45313,0.14648 0.90097,0.213 1.7569,0.8583 2.64648,1.11914 0.95109,0.27792 2.93066,-0.30604 3.54688,0.10742 3.36013,2.25528 3.10453,2.70995 7.02734,1.42969 1.06385,-0.16859 2.35294,-0.0376 3.30859,-0.20508 1.04904,-0.18452 1.98792,-0.71865 3.09961,-0.78125 1.29166,-0.0741 2.68051,0.0911 3.95508,-0.0547 1.02399,-0.11618 2.10216,-0.56792 3.125,-0.75586 0.64242,-0.11847 4.00728,-0.0823 4.46289,0.0566 1.20623,0.37019 3.20299,2.25269 3.94336,3.22656 l 0.16602,0.76563 0.42773,0.43945 0.8125,0.14258 c 1.62426,-0.7586 3.31075,-2.72249 4.68555,-3.96289 l 0.48242,0.11328 c 0.7791,1.08208 1.91366,2.58775 3.51172,2.05469 l 13.0332,-3.0918 c -1.01829,-0.74037 -1.05645,-1.47665 -1.59179,-2.44141 -0.41803,-0.75176 -0.97213,-1.49075 -1.44141,-2.21289 -0.56041,-0.85997 -1.82035,-1.72024 -2.60742,-2.46289 -0.0672,-1.63223 0.85582,-3.01355 1.59961,-4.43164 0.70392,-1.34178 1.93203,-3.00965 2.21679,-4.48242 -0.76657,-1.52971 -1.87782,-4.07693 -2.11133,-5.71485 -0.12302,-0.86794 0.21359,-2.18986 0.30469,-3.13867 0.21299,-2.15732 -0.34317,-1.70259 -0.60742,-3.41797 -0.10821,-0.69594 -0.16248,-1.50701 -0.33789,-2.18359 -0.18338,-0.70734 -2.20147,-3.11419 -2.74023,-3.48437 -0.31665,-0.21529 -0.77124,-0.36204 -1.06055,-0.60352 -0.49662,-0.4146 -0.97277,-1.00728 -1.42383,-1.47656 -0.20503,-0.31551 -0.92095,-1.45119 -0.96875,-1.49219 -1.28255,-1.10372 -2.78161,-2.06325 -4.14844,-3.07813 -0.86794,-1.70398 -1.39433,-2.81038 -2.55273,-4.09179 0.0387,-0.7882 0.20693,-1.41507 0.41992,-2.18164 -0.049,-0.2745 -0.23864,-1.44211 -0.27734,-1.53321 -0.55015,-1.32583 -0.88048,-1.07532 -1.27344,-2.84765 -0.0661,-0.30412 -1.14966,-1.33158 -1.47656,-1.47852 l -0.2461,-0.5625 c 0.11504,-0.55015 0.55936,-2.2379 0.35547,-2.61719 -1.44998,-2.70292 -1.53645,-1.41905 -0.89062,-4.36914 l -0.41016,-1.23046 0.45703,-1.33985 0.82813,-0.72265 0.1875,-0.63477 c -0.20503,-0.66291 -0.35148,-1.58348 -0.67383,-2.17578 -0.38385,-0.70392 -0.91947,-1.21946 -1.05274,-2.05664 l 0.0703,-0.36328 c 2.80543,-1.00691 5.70484,-1.619 8.5957,-2.33203 0.25856,-0.0626 0.48558,-0.25576 0.74414,-0.31836 0.55471,-0.13213 1.18879,-0.11512 1.73438,-0.27344 0.55813,-0.16288 1.10333,-0.56547 1.66601,-0.70899 0.16744,-0.0433 0.82916,0.0506 1.04102,0.0176 0.58319,-0.09 1.32794,-0.29773 1.89062,-0.47656 3.1927,-1.01259 6.36226,-2.85666 9.36133,-4.29297 0.10706,-0.0513 0.27998,-0.37678 0.38477,-0.42578 1.78941,-0.8201 3.66516,-1.56844 5.41015,-2.47852 0.38499,-0.20047 0.81179,-0.56954 1.20703,-0.71875 1.21876,-0.45219 2.52881,-0.70568 3.75782,-1.13281 1.22332,-0.42714 2.52178,-0.94627 3.71093,-1.4668 0.3007,-0.13213 0.5743,-0.42532 0.875,-0.54492 0.4465,-0.17883 0.99264,-0.23474 1.45508,-0.38281 0.73695,-0.23464 1.41995,-0.75007 2.15235,-1.00977 1.32696,-0.47156 2.7173,-0.8401 4.0625,-1.25586 0.11275,-0.0342 0.32327,-0.33289 0.43945,-0.375 2.46942,-0.91463 5.01154,-1.74977 7.44336,-2.75781 0.78001,-0.32352 1.58262,-0.68508 2.38281,-1.03906 l 3.2e-4,-302.53159 -150,0 z"
     id="rect10"
     inkscape:connector-curvature="0" />
  <g
     id="g12"
     transform="matrix(0.6,0,0,0.6,-16.975596,126.24023)"
     style="fill:#ef7d00;stroke:#000000;stroke-width:2.25;stroke-linecap:round;stroke-linejoin:round">
    <path
       d="m 1916.4245,168.3344 c 0,0 86.002,-33.7059 94.3348,-40.6559 3.7896,4.1698 -34.4764,46.5633 -108.7317,62.20021 67.4357,-14.59451 125.0235,-60.46291 136.7681,-59.07291 3.4099,0.695 2.6504,44.8258 -151.9226,83.04937 106.837,-25.7142 168.97,-72.97227 168.2124,-67.75997 0.7576,1.0424 -10.6073,37.18102 -104.1847,65.32743 26.1416,-5.56058 96.9873,-45.17323 96.2297,-37.52833 2.2726,3.1273 -68.573,86.52351 -196.6266,59.42072 102.2917,24.32357 168.5902,-34.40188 178.0622,-33.35938 1.8948,0.34745 -18.944,51.42791 -147.7533,54.55543 61.7552,-5.90674 43.9465,-0.34821 43.9465,-0.34821 0,0 -36.3712,26.0614 -80.3176,8.34116 34.4763,8.68776 38.2639,9.03426 39.0216,11.81349 -2.2727,3.47403 -30.6869,8.68775 -57.9638,-4.86543 21.9723,8.33946 41.6738,9.73086 42.0517,12.85838 -0.3779,1.04131 -14.3951,8.33946 -26.8972,3.12752 -12.5022,-5.21372 -127.6758,-70.19285 -127.6758,-70.19285 L 1909.227,165.902 Z"
       id="path14"
       inkscape:connector-curvature="0" />
    <path
       d="m 1685.7126,344.10525 c -17.257,0 -17.7332,14.08503 -17.7332,14.08503 0,0 -1.4243,1.01708 -0.4742,7.84393 2.8489,-4.64879 4.2752,-6.10084 4.2752,-6.10084 1.9004,0.29114 9.8158,2.46912 22.3236,-6.53401 -11.4008,10.89006 -4.5906,14.95666 -4.5906,14.95666 0,0 -2.6918,8.56817 6.0151,10.31126 -2.6902,-3.48619 -1.1071,-6.53572 -1.1071,-6.53572 0,0 12.1904,-1.1609 11.399,-14.81104 0.476,12.34193 7.7585,15.39145 7.7585,15.39145 0,0 0,6.82507 7.9154,7.40727 -4.2731,-3.48619 -3.3249,-8.85922 -3.3249,-8.85922 0,0 10.2919,-6.82508 1.5832,-18.44277 5.2252,-2.76026 9.5003,-10.45509 9.5003,-10.45509 0,0 -7.1238,-2.76018 -10.4487,-5.08199 -1.585,-3.05131 -0.1586,-19.75098 -0.1586,-19.75098 l -4.2752,-21.6379 -12.1923,33.69227 c 0.4741,-4.79271 0.7916,14.52169 -16.4655,14.52169 z"
       id="path16"
       inkscape:connector-curvature="0" />
    <path
       d="m 1770.9438,295.51356 c 0.3778,0.3483 12.8818,13.20659 25.0044,12.51008 4.5451,-3.47411 -9.4721,-11.11868 -9.4721,-12.85659 4.9249,4.17054 25.7619,20.50124 39.0234,14.59442 5.3027,-6.94976 -9.472,-5.90675 -25.7637,-24.67179 11.3649,6.94985 39.781,22.23916 53.0406,16.33241 5.6843,-5.56023 -29.5514,-22.93575 -41.296,-36.48715 l -30.307,-14.2462 -41.2961,30.92691 z"
       id="path18"
       inkscape:connector-curvature="0" />
    <path
       d="m 1724.3449,189.87853 c 0,0 14.0173,-7.64465 70.0881,-3.82232 6.0622,0.6948 38.2641,-10.07701 48.4936,-13.20441 16.2898,-2.7799 68.1933,-13.2046 82.2123,-22.9343 9.8499,-1.0423 -2.6542,16.6795 -15.1543,20.8492 -13.2617,5.55993 -61.3755,20.84932 -78.4249,18.76439 20.4592,0.34762 9.0943,15.63683 -25.0042,8.33963 16.2917,8.33963 10.2295,9.72958 10.2295,9.72958 0,0 -28.792,1.38995 -36.3692,-4.5173 19.3219,6.60231 11.3649,9.03461 11.3649,9.03461 0,0 -19.6996,1.73739 -28.7939,-2.08494 14.0173,3.82233 6.8197,6.25487 6.8197,6.25487 0,0 -11.3649,1.7374 -20.8369,-1.38995 -9.4702,-3.12735 -23.8671,-25.01906 -24.6247,-25.01906 z"
       id="path20"
       inkscape:connector-curvature="0" />
    <path
       d="m 1746.8274,302.71636 2.0591,33.98162 c 0,0 -1.1089,1.7431 -2.0591,2.76018 -0.9503,1.01537 -26.2833,-3.63172 -22.7998,14.08502 0,7.26175 0.1587,9.14866 5.5427,13.21527 -1.4263,-4.79263 -0.9502,-8.13151 -0.9502,-8.13151 0,0 7.1238,3.92108 14.0909,-6.82507 -4.7493,10.60062 -1.4264,14.37617 -0.3174,14.66722 1.1089,1.88863 -1.8986,10.4551 7.5999,10.30957 -3.6403,-3.19514 -1.8986,-7.84224 -1.8986,-7.84224 0,0 9.9746,-1.45025 6.491,-18.00609 3.6422,-3.34067 5.0666,-0.14554 5.0666,-0.14554 0,0 1.1071,9.8746 9.8159,7.84215 3.9596,2.03245 -0.6328,7.40548 -0.6328,7.40548 0,0 6.3322,0.14562 8.2327,-4.79261 1.9005,-4.93645 4.1164,-13.79568 -6.3342,-17.4257 -1.2657,-3.4844 4.1183,-3.77555 4.1183,-3.77555 0,0 6.6496,2.03245 8.5482,5.08207 1.9005,3.04952 1.2676,-7.98607 -6.9652,-9.14867 -10.1332,-0.29105 -10.766,-2.17797 -10.766,-2.61294 0,-0.43658 -1.7418,-24.68735 -2.5333,-31.65804 z"
       id="path22"
       inkscape:connector-curvature="0" />
    <path
       d="m 1782.0688,331.67486 c 0.1246,-1.55767 -17.2854,-23.05865 -12.8687,-25.83787 4.4148,0.83336 11.6558,10.6127 17.5215,7.4384 -1.7777,-3.81186 -7.018,-1.6651 -12.9687,-11.4236 -5.9488,-11.0321 -6.8178,-27.59314 -27.6548,-45.65827 13.4902,19.11682 44.092,30.32218 45.388,24.74808 1.2959,-5.5741 -26.9464,-26.65227 -25.4993,-31.73254 5.6163,10.43255 33.9738,33.6784 54.8674,31.75338 1.432,-4.47555 -17.1097,-13.50811 -21.8816,-21.94283 -13.3466,-8.22345 -49.0642,-36.46197 -49.7801,-43.01104 -12.9971,-17.38657 -21.1108,-22.64631 -24.8891,-24.64882 -1.4603,-1.57758 -1.8267,-3.08576 -2.112,-4.04458 -8.0684,-17.44597 2.6183,-23.11107 8.8732,-23.94877 5.1478,-0.5247 6.6421,0.1821 10.3467,-1.4632 -4.3866,-1.5739 -8.7712,-3.0458 -13.1559,-4.6197 5.7184,3.8472 20.3251,0.4601 17.1589,11.5414 6.4041,-2.2348 20.0303,-17.104 -15.4436,-20.4597 -11.5443,-12.1472 -59.0084,-19.1282 -70.8889,33.8879 0.9483,0.74329 1.4451,1.35406 4.464,3.42189 -14.9883,-6.66338 -55.421,-11.80179 -69.9918,-13.96119 -39.3635,-10.4168 -80.2441,-35.5199 -84.1738,-32.4327 -5.256,2.1397 23.7834,26.9194 22.274,27.4679 -25.1795,-13.4657 -48.1819,-23.0059 -69.5854,-31.6873 -15.0574,-5.1625 -30.1389,-17.182 -31.8019,-14.8955 -5.5416,10.5292 24.1406,36.9961 29.6618,40.1095 5.5229,2.9782 48.9472,21.45339 48.3069,21.68405 -65.4052,-27.22875 -76.3711,-32.16505 -79.6532,-35.30445 -5.7647,-1.1909 -19.8074,-18.5813 -23.7209,-17.463 -2.1425,1.9306 2.1546,29.4088 33.3648,41.7434 5.0871,3.4006 66.9003,23.73911 66.295,25.33371 -0.1512,0.39848 -70.7982,-26.74381 -73.5424,-27.71421 -13.6209,-4.8989 -30.3342,-22.0706 -33.4588,-20.1396 -2.9822,1.7522 7.7047,20.3384 21.4683,26.1678 7.2143,2.92003 34.8868,15.4911 59.8185,23.49212 1.5912,0.52777 -44.8145,-16.14069 -67.1258,-24.69212 -10.1162,-5.1497 -14.8801,-11.5686 -16.421,-10.1875 -2.2793,1.3809 3.6824,28.83705 75.3802,44.32955 1.889,0.73742 25.2378,-5.0733 24.0838,-4.30262 -0.2887,0.19273 -23.1857,4.76472 -25.4151,4.60848 -1.9841,-0.27796 -14.528,1.36205 -14.7549,1.95828 -0.7579,1.85724 4.5448,11.6882 41.5641,9.63807 4.7326,-0.26095 30.4153,-8.57838 28.2576,-6.78919 -1.0789,0.89511 -34.9728,10.99672 -37.5541,11.196 -2.242,0.29055 -14.1489,1.43257 -14.5891,2.59415 -0.5376,1.58422 8.8133,8.58101 28.6936,9.70202 17.602,0.85769 51.0489,-9.86473 50.378,-9.16958 -0.6711,0.69506 -32.2438,10.61814 -33.07,11.22287 -1.1424,0.59258 -12.7038,1.16779 -13.1096,1.98219 -0.9421,2.02556 16.6774,17.13812 68.7864,1.01018 -5.2348,6.48546 -30.4929,10.92119 -30.4566,12.08898 -0.1171,0.84731 5.5647,5.88251 14.3953,7.68455 4.415,0.90098 10.4601,0.71726 15.9819,-0.0832 9.918,-1.82109 20.3704,-5.41989 33.6508,-16.67721 1.587,3.53297 -33.1747,19.66779 -31.5425,21.20643 7.5376,6.41103 32.576,-0.82647 34.2157,-1.66681 1.6416,-0.84212 48.2158,-24.93001 48.0552,-27.71791 0.7236,3.57278 -60.0454,33.85855 -59.3899,35.10094 3.901,5.70916 24.6605,-0.29982 25.6522,-0.82477 0.99,-0.52334 26.493,-13.15981 27.1919,-13.53235 0.6972,-0.37253 -29.9726,16.46408 -27.2409,19.02666 -1.3205,10.93336 47.8985,-7.54581 51.756,-9.84686 1.9288,-1.15053 -23.6442,10.31296 -23.7122,15.7588 8.2348,12.77001 34.603,8.71897 38.6702,5.91023 2.0346,-1.40517 -2.3935,9.4865 -0.9672,8.49715 0.4969,-0.20446 5.7354,-5.88599 7.7492,-9.99767 -0.6424,3.56767 -3.5327,9.18847 -5.2197,15.6376 -1.6888,6.44906 -2.1725,13.72636 -4.4903,21.45768 -0.531,3.39604 16.2482,-6.63965 13.8112,-30.63058 1.4358,12.47887 -5.2989,35.81309 -3.5365,37.02596 3.5252,2.42575 13.2711,-11.62118 14.2553,-21.11984 2.8942,4.79781 8.9677,14.81283 14.193,17.11728 -0.5686,-7.25825 0.1001,-6.92551 -2.2518,-14.05908 1.3563,-9.47085 1.5453,-22.57869 1.8739,-37.37936 14.1987,24.94727 19.8622,35.48206 15.8951,54.58681 4.2221,1.61483 10.9662,-13.33485 10.4222,-21.02978 5.4218,21.38147 28.8241,24.58699 29.1963,23.9649 z"
       id="path24"
       inkscape:connector-curvature="0" />
    <path
       d="m 1545.5749,173.2876 c 0,0 -9.6643,6.6972 -21.6907,6.3034 3.0066,11.03065 27.9187,2.56072 27.9187,2.56072 0,0 -12.0265,12.21256 -20.6168,14.18224 5.1542,3.93953 26.845,2.56081 30.4966,0.59104 3.6499,-1.96985 10.0935,-9.65192 10.0935,-9.65192 0,0 -22.3356,23.63718 -25.5569,23.44036 -0.4296,2.75763 23.4091,1.7727 28.3491,-2.36373 4.9382,-4.1366 17.395,-10.2428 17.395,-10.2428 0,0 -32.6439,20.87948 -34.1477,20.87948 12.2416,2.95478 36.7245,-3.54564 52.4022,-12.40955 -23.1946,14.18242 -25.3406,16.74297 -37.1533,21.47044 10.5243,2.16692 15.8913,8.66734 51.5427,-5.51532 20.4024,-8.86373 31.9978,-25.01608 31.9978,-25.01608 -12.6703,15.5613 -32.6438,28.75973 -54.7616,41.75963 -1.2903,2.3634 23.6214,12.01448 55.4058,-18.31927"
       id="path26"
       inkscape:connector-curvature="0" />
    <path
       d="m 1718.2413,239.07802 c 0,0 2.1478,9.25779 10.7376,16.34967 8.5918,7.09019 9.236,13.98459 9.236,13.98459"
       id="path28"
       inkscape:connector-curvature="0" />
    <path
       d="m 1713.9473,178.80314 c 0,0 3.0056,8.27287 11.8107,13.59138 9.0206,5.31834 22.5523,22.06139 23.6253,25.01599 1.039,3.5761 6.2265,29.35026 5.7978,32.10695"
       id="path30"
       inkscape:connector-curvature="0" />
    <path
       d="m 1659.1838,191.60649 c 0.6441,3.15159 -12.6722,19.10695 5.5823,37.81968 -16.5373,18.51456 -16.5354,20.87966 -16.5354,20.87966 0,0 9.2339,4.72679 25.7712,-8.27363 27.2732,30.72933 18.1847,44.79191 18.1847,44.79191"
       id="path32"
       inkscape:connector-curvature="0" />
    <path
       d="m 1690.0141,265.13074 c 0,0 -2.5125,-3.30078 1.9666,-15.62714 4.0332,4.45649 8.518,5.40773 10.4846,7.21148 1.9646,1.80373 22.5579,4.53796 23.867,17.16057"
       id="path34"
       inkscape:connector-curvature="0" />
    <path
       d="m 1714.2231,149.4322 c 0,-0.9273 -4.1466,-9.0883 -19.6165,1.1129 8.2913,0.4635 16.4806,4.8223 19.6165,-1.1129 z"
       id="path36"
       inkscape:connector-curvature="0" />
    <path
       d="m 1861.8688,186.75118 c 0.7575,0.34736 46.2209,9.38214 61.3755,4.86484 -19.3219,23.62911 -57.9657,7.64465 -57.9657,7.64465 18.9421,5.21228 19.7016,4.86492 25.7618,9.72958 1.8948,4.51731 -34.8541,2.43238 -46.9785,-3.82233 33.7189,9.72967 34.4765,9.0347 35.6136,12.85702 1.5171,5.21228 -55.3132,-1.39003 -60.2382,-8.33963 15.1545,10.7721 23.4893,12.85711 31.8241,17.72177 -10.2295,4.16995 -29.1718,8.33895 -64.0278,-14.24689 45.8412,38.22336 87.1374,35.79073 93.5792,42.74049 -15.912,21.54435 -77.6672,-12.85651 -106.0814,-30.23117 -28.4141,-17.37424 62.133,42.04645 70.4697,41.00335 -4.1692,5.90674 -34.0985,0.6948 -35.9934,-2.08442"
       id="path38"
       inkscape:connector-curvature="0" />
    <path
       d="m 1873.6134,226.71211 c -5.3028,0.69497 -21.2148,0.69497 -23.4874,0.34744"
       id="path40"
       inkscape:connector-curvature="0" />
    <path
       d="m 1532.2598,166.9845 c 0,0 34.5765,16.74293 49.1793,15.56111 -3.8651,3.34857 -9.6647,4.72747 -9.6647,4.72747 3.6517,1.37889 13.7452,6.30334 28.9941,3.15159 -3.6516,3.34857 -8.3763,7.09137 -8.3763,7.09137 0,0 13.101,4.53032 27.9192,-2.56089 -4.5093,5.12127 -7.088,8.86407 -7.088,8.86407 l 10.309,0.59087"
       id="path42"
       inkscape:connector-curvature="0" />
  </g>
</svg>
