<?xml version="1.0" encoding="UTF-8" standalone="no"?>
<svg
   xmlns:dc="http://purl.org/dc/elements/1.1/"
   xmlns:cc="http://creativecommons.org/ns#"
   xmlns:rdf="http://www.w3.org/1999/02/22-rdf-syntax-ns#"
   xmlns:svg="http://www.w3.org/2000/svg"
   xmlns="http://www.w3.org/2000/svg"
   xmlns:sodipodi="http://sodipodi.sourceforge.net/DTD/sodipodi-0.dtd"
   xmlns:inkscape="http://www.inkscape.org/namespaces/inkscape"
   width="766.32977"
   height="700.00061"
   viewBox="0 0 191.58245 175.00016"
   id="svg2"
   version="1.1"
   inkscape:version="1.0.1 (3bc2e813f5, 2020-09-07)"
   sodipodi:docname="Zimbabwe_Outline.svg">
  <metadata
     id="metadata76">
    <rdf:RDF>
      <cc:Work
         rdf:about="">
        <dc:format>image/svg+xml</dc:format>
        <dc:type
           rdf:resource="http://purl.org/dc/dcmitype/StillImage" />
        <dc:title />
      </cc:Work>
    </rdf:RDF>
  </metadata>
  <defs
     id="defs74" />
  <sodipodi:namedview
     pagecolor="#ffffff"
     bordercolor="#666666"
     borderopacity="1"
     objecttolerance="10"
     gridtolerance="10"
     guidetolerance="10"
     inkscape:pageopacity="0"
     inkscape:pageshadow="2"
     inkscape:window-width="1920"
     inkscape:window-height="1018"
     id="namedview72"
     showgrid="false"
     fit-margin-top="0"
     fit-margin-left="0"
     fit-margin-right="0"
     fit-margin-bottom="0"
     inkscape:zoom="0.79392637"
     inkscape:cx="554.08598"
     inkscape:cy="482.88887"
     inkscape:window-x="-8"
     inkscape:window-y="-8"
     inkscape:window-maximized="1"
     inkscape:current-layer="svg2"
     inkscape:document-rotation="0" />
  <path
     style="fill:#d40000;fill-opacity:1"
     d="m 26.137316,100.00007 0,2.05713 c 0.348161,-0.008 0.858627,0.75998 1.195312,0.96582 l 0.01465,0.14111 c -0.11004,0.12522 -0.749777,0.87025 -0.637207,1.07617 1.340491,0.75335 0.939941,0.0895 1.567871,0.26318 0.10494,0.0901 0.08873,0.2049 0.148926,0.3042 0.12895,0.21287 0.280276,0.38523 0.375976,0.64161 0.20497,0.54883 0.09165,0.59574 0.609863,1.00341 0.339551,0.26692 1.064219,0.0883 1.497559,0.27002 0.07342,0.0307 0.263227,0.23528 0.344727,0.27588 0.39027,0.19404 0.455074,-0.0187 0.740234,0.41553 l 0.338867,0.0166 c 0.79293,0.43435 0.497629,0.51063 0.824219,1.23388 0.07324,0.16203 0.647605,1.10079 0.793945,1.30811 0.15975,0.0976 0.480133,-0.17827 0.675293,-0.13867 0.17657,0.0359 1.152728,0.22216 1.256348,0.32715 0.1719,0.17429 0.285691,0.88035 0.539551,1.2583 0.59954,0.0938 0.461802,-0.33825 1.465332,0.0947 0.08513,0.0364 0.216951,0.0671 0.297851,0.003 0.18758,-0.0129 0.3836,0.357 0.4375,0.48779 l -0.113769,0.26221 c 0.01544,0.0597 0.09457,0.12257 0.151367,0.13867 0.35264,-0.0543 0.902559,0.17453 0.943359,0.16553 l 0.09375,-0.0728 0.1875,0.14405 c 0.1237,-0.002 0.321485,-0.0339 0.427735,0.0205 0.5726,0.29276 0.586756,-0.0324 0.958496,0.19873 0.21731,0.053 0.320439,0.19093 0.491699,0.25293 0.12194,0.0442 0.29314,0.0163 0.41748,0.0571 0.1275,0.042 0.253545,0.15287 0.379395,0.20507 0.18733,0.0776 0.437339,-0.006 0.630859,0.005 0.26069,0.0137 0.590802,0.29003 0.857422,0.0244 0.20099,0.0598 0.45493,0.0697 0.66211,0.0518 0.22616,0.18733 0.522286,0.23763 0.750976,0.43457 0.10536,0.31469 0.335427,0.88967 0.563477,1.12012 0.33874,0.16941 1.639707,0.12017 1.998047,-0.004 0.62382,0.0161 0.568591,0.83377 0.939941,1.06689 l 0.07861,0.3291 0.241211,0.11914 c 0.0101,0.0169 0.06052,0.0895 0.06152,0.10498 0.0152,0.16113 0.0094,0.41478 0.0542,0.56543 0.10877,0.36579 0.400033,0.66461 0.356933,1.07911 l 0.473633,0.3916 -0.01709,0.0542 c 0.133,0.26334 0.125875,0.59624 0.171875,0.88134 0.05502,0.33961 0.181765,0.64129 0.251465,0.96827 0.08864,0.41499 -0.0035,2.46245 -0.03369,3.06591 -0.01831,0.36802 -0.201876,0.89103 -0.279785,1.36524 l 133.007811,0 c 0.0204,-0.0398 0.0471,-0.0995 0.0659,-0.13379 0.3725,-0.67695 0.90552,-1.30489 1.44726,-1.84814 0.17747,-0.1781 0.34204,-0.4033 0.48194,-0.61036 0.019,-0.15874 -0.0639,-0.32415 -0.008,-0.47265 0.26738,-0.70919 1.11177,-1.1053 1.55713,-1.69434 -0.20994,-0.34998 0.10431,-0.8209 0.062,-1.20996 -0.0591,-0.15633 -0.48355,-0.18692 -0.64697,-0.42383 -0.0768,-0.0977 0.0602,-0.52181 0.16503,-0.59521 0.19251,-0.0377 0.38495,-0.11419 0.56202,-0.19629 0.0508,-0.0548 0.0369,-0.25395 0.0259,-0.31885 l -0.36573,-0.50439 c -0.0412,-0.11346 0.254,-1.08833 0.3003,-1.26123 0.0765,-0.0305 0.27866,-0.13933 0.30566,-0.22803 l 0.16699,10e-4 0.0581,0.19531 c 0.0451,0.0295 0.0925,0.0835 0.10644,0.13672 0.11574,0.0556 0.25208,0.10672 0.38135,0.11572 l 0.24561,-0.12841 c 0.008,-0.3682 0.0779,-1.0709 -0.1875,-1.34082 0.34151,-0.78965 0.6853,-0.45026 1.40234,-0.6587 0.0581,-0.1914 0.6142,-0.1792 0.75244,-0.2788 l 0.0181,-0.065 c 0.0873,-0.0248 0.17481,-0.0776 0.24511,-0.13378 0.0684,-0.15419 0.0986,-0.31938 0.13428,-0.48292 0.20516,-0.93726 0.66694,-4.61511 0.97607,-5.16064 -0.0573,-0.14116 -0.0681,-0.32876 -0.0864,-0.47852 -0.54211,-0.73109 -1.07121,-0.55437 -1.47559,-0.85351 l -0.78125,-0.57813 c -0.0599,-0.0444 -0.0994,-0.14587 -0.12304,-0.21337 l 0.0425,-0.12354 c 0.13585,-0.053 0.44468,-0.40492 0.53808,-0.51611 0.0845,-0.16873 -0.073,-0.85979 -0.25586,-0.94629 l -0.14844,-0.007 c -0.37364,0.36036 -1.60032,0.83449 -2.11474,0.78809 l -0.0889,-0.0596 c -0.19946,0.0444 -0.65298,0.07 -0.8374,-0.0537 l -0.0825,-0.0952 c -0.091,-0.18277 0.36034,-1.17247 0.43164,-1.37207 -0.28244,-0.45547 -0.0112,-1.33248 -0.0112,-1.83057 0,-0.41121 -0.32048,-0.52566 -0.29688,-0.86426 0.011,-0.15853 0.0487,-0.32826 0.0806,-0.499016 l -160.235868,0 z"
     id="rect3408"
     inkscape:connector-curvature="0" />
  <path
     style="fill:#ffd200"
     d="m 50.322863,125.00007 c -0.0394,0.23982 -0.0537,0.46824 -0.002,0.65576 l 0.05518,0.0518 c 0.48634,0.0583 1.343674,-0.43632 1.737304,-0.67627 l 0.144043,0.0259 c 0.06362,0.10144 0.217512,0.18594 0.326172,0.21044 0.13217,0.0296 1.386635,0.12337 1.532225,0.0723 0.28901,-0.10145 0.52515,-0.33341 0.875,-0.31201 0.74045,0.0457 1.600928,0.45001 2.350098,0.56347 0.45787,0.0694 0.766922,-0.47737 1.275392,-0.30029 l 0.532225,0.45801 c 0.3195,0.088 0.674488,-0.12717 0.935548,-0.28516 0.26094,0.0186 0.527365,0.31986 0.677245,0.50098 0.48293,0.58361 0.604567,0.80151 0.259767,1.58154 l -0.06983,0.0591 c -0.0189,0.072 0.03233,0.19329 0.07813,0.24609 l -0.0044,0.0942 c -0.05908,0.10309 -0.208357,0.24432 -0.327637,0.27392 -0.19211,0.19871 -0.04258,0.85425 -0.08398,1.20069 -0.10422,0.87048 0.43631,1.10089 0.6416,1.77392 l -0.134765,0.36328 0.195313,0.63282 c 0.08566,0.27802 -0.339173,0.52023 -0.06445,1.10156 l -0.2334,0.19531 c -0.02872,0.34796 -0.108977,0.86557 -0.210937,1.19873 -0.0764,0.24905 -0.524578,0.39444 -0.580078,0.87256 0.10333,0.23551 0.201985,0.43923 0.325685,0.62402 0.0463,0.13345 -0.221117,0.48422 -0.291017,0.59717 -0.26348,0.42525 0.43281,0.60895 0.520507,0.9502 l -0.2749,0.51416 0.126465,0.26855 c -0.03212,0.16394 -0.4239,0.30621 -0.4209,0.42334 0.10814,0.16076 0.295625,0.46834 0.328125,0.66553 l -0.05517,0.20166 c -0.07766,0.0535 -0.436332,0.30711 -0.348632,0.45117 0.19402,0.31899 0.269285,0.7882 0.475585,1.05762 0.24348,0.31823 0.522957,0.17372 0.622557,0.6875 0.258923,0.12206 0.29557,0.27698 0.4375,0.47949 0.08006,0.1144 0.40972,0.12405 0.5376,0.16455 0.29762,0.0941 0.08061,0.49782 1.03076,0.60205 l 0.04346,0.46485 c 0.32722,0.31773 0.705765,0.74032 0.944825,1.11914 0.31242,0.49532 0.209547,0.59601 0.679197,1.08349 0.0086,0.009 0.02772,0.0898 0.03272,0.10547 l 0.452638,0.3252 c 0.10865,0.30926 0.04395,0.20175 0.299317,0.44726 0.22763,0.47533 7.5e-4,0.73093 0.08838,1.09571 0.13142,0.12788 0.337977,0.28717 0.443847,0.43212 0.13712,0.18733 0.21319,0.44407 0.34082,0.64063 0.0817,0.12585 0.263558,0.20681 0.285158,0.37402 0.0015,0.0901 -0.08981,0.22243 -0.15381,0.27783 0.0097,0.0974 0.21511,0.23117 0.364747,0.38868 l 105.603998,0 c 0.93946,-1.01604 1.88442,-2.0264 2.84717,-3.01709 0.15862,-0.1633 0.42048,-0.3548 0.65283,-0.4126 0.82038,-0.20427 0.69127,0.1861 1.31054,0.42578 0.10928,-0.61231 -0.98185,-1.49422 -1.19384,-1.98828 -0.26055,-0.6075 -0.21286,-0.68585 -0.78077,-1.13526 -0.18316,-0.44978 -0.1087,-0.42529 0.16944,-0.78906 l -0.0108,-0.15381 c -0.13293,-0.25778 -0.87213,-0.57208 -0.95703,-0.85351 0.18011,-0.23754 0.22209,-0.46996 0.34326,-0.72217 0.13079,-0.27258 0.42405,-0.46579 0.62402,-0.69043 1.63963,-1.84276 1.70097,-1.89062 2.70703,-4.30029 0.23944,-0.57337 -0.39482,-2.10494 -0.46582,-2.74951 -0.0688,-0.62484 -0.0355,-1.2907 -0.0425,-1.91895 -0.003,-0.23968 0.003,-0.59806 -0.0342,-0.8208 -0.0602,-0.35808 -0.21856,-0.64411 -0.24756,-1.02344 l 5e-4,-0.0825 c 0.14685,-1.17898 0.21549,-1.11617 1.0503,-1.78515 0.54908,-0.44004 0.75157,-0.61907 0.98632,-0.68897 0.24449,-0.0728 0.52399,-0.0277 1.26709,-0.0347 0.31469,-0.003 0.64527,0.0504 0.94971,0.0381 0.63194,-0.33463 1.15528,-1.64587 1.48877,-2.29736 l -133.007802,0 z"
     id="rect3406"
     inkscape:connector-curvature="0" />
  <path
     style="fill:#006400;fill-opacity:1"
     d="m 67.062121,150.00007 c 0.11688,0.12302 0.200392,0.2601 0.124512,0.40771 l -0.06983,0.0728 c -0.08589,0.007 -0.234015,0.0621 -0.291015,0.13134 -0.0342,0.0715 -0.01,0.20661 0.03076,0.27051 l 0.110353,0.0684 0.282227,0.005 0.140625,0.085 0.06299,0.12256 c -0.01835,0.19011 -0.41953,0.32274 -0.44873,0.60303 l 0.23877,0.26855 c 0.1165,0.0587 0.382237,-0.0532 0.477537,-0.11377 l 0.103028,0.0381 -0.0088,0.10059 -0.13574,0.0864 -0.02003,0.13037 c 0.81862,2.06955 1.38723,0.73247 2.0791,1.396 1.03908,-0.14216 0.917737,0.097 1.666017,0.24561 0.24817,0.0492 0.493875,0.0343 0.742675,0.11621 0.18606,0.0612 0.389558,0.18535 0.577638,0.22705 0.26309,0.0581 0.426737,-0.16997 0.619627,-0.20557 0.23893,-0.0443 0.558665,-0.0228 0.805178,-0.0332 0.14762,-0.006 0.23802,-0.11773 0.44824,-0.0947 l 1.254395,0.13721 c 0.23563,0.0258 0.437625,0.30874 0.657715,0.27734 0.0597,-0.0721 0.188592,-0.15984 0.283692,-0.17334 1.25789,0.93336 0.606623,0.55406 2.056153,0.92529 l 0.168945,0.18946 c 0.36516,-0.032 0.727805,0.48519 0.989745,0.45849 0.69858,-0.0712 1.031612,-0.61423 1.178712,-0.62793 l 0.200698,0.0596 c 0.1657,-0.0192 0.297325,-0.20361 0.319825,-0.35742 l 0.09473,-0.0503 c 0.33341,-0.006 0.562187,0.15393 0.770507,0.40918 0.05679,0.006 0.391465,0.0317 0.422365,0.0464 0.29977,0.14205 0.771005,0.12689 0.878905,0.21679 0.20667,0.17215 0.314475,0.59002 0.513185,0.65772 0.94762,0.32216 2.186003,0.6002 2.882813,1.3667 l 0.0625,-0.0112 c 0.33038,0.0393 0.69737,0.0355 1.01953,0.0928 0.19416,0.0345 0.263205,0.20426 0.402345,0.30518 0.29293,0.21275 0.559837,0.20971 0.884277,0.31836 0.46964,0.0543 0.82307,0.26534 1.2583,0.33984 0.51607,0.0884 0.893005,-0.21531 1.401855,-0.0127 l 0,-0.0991 c 0.06729,0.0319 0.213675,0.322 0.421875,0.42774 l 0.0166,0.0474 c 0.64356,0.11536 1.087125,0.18086 1.441405,0.7627 -0.85782,0.43903 -1.572472,2.5902 -1.328612,3.46093 0.37579,1.3415 0.842787,2.12988 2.125487,2.80469 0.29116,0.15316 0.629703,0.16414 0.911133,0.34717 0.35391,-0.0924 0.674865,0.11749 0.970215,0.063 0.49936,-0.0923 1.0509,-0.29557 1.52295,-0.48731 0.0159,-0.006 0.05496,10e-4 0.07226,0.002 0.65798,0.63534 0.48245,1.23823 1.26123,1.90039 0.542362,0.46129 1.055862,0.91209 1.399892,1.53174 l 0.0161,0.0596 c 0.20124,0.0235 0.35712,0.0937 0.45752,-0.14697 0.64659,-0.10055 1.51111,-0.7548 2.37842,-0.59619 0.25031,0.0457 0.91157,0.35124 1.1333,0.18554 0.16853,-0.12143 0.18764,-0.38246 0.26464,-0.56396 0.0492,-0.0191 1.052,-0.27839 1.0669,-0.27539 0.26094,0.0543 0.46567,0.39095 0.74267,0.32275 0.41488,-0.53795 0.37337,-0.47794 0.98682,-0.7251 0.22414,0.0526 0.39695,0.21489 0.60059,0.31299 0.70984,-0.0392 0.94565,0.0885 1.63525,0.10352 0.22615,0.005 0.58885,-0.1238 0.7959,0.0132 0.44157,0.29193 0.817,0.52147 1.30371,0.7251 0.55464,0.23198 0.38509,-0.25756 1.18359,0.45215 l 0.0669,0.0498 0.0547,-0.0161 c 1.88792,7.5e-4 0.73451,0.0576 1.94043,0.6665 0.39084,0.19744 0.87952,0.23194 1.30566,0.36084 0.072,0.18859 0.15905,0.37184 0.23975,0.55664 l 0.19629,0.0806 c 0.66733,-0.15457 1.12655,0.41599 1.64501,0.78369 0.24058,0.17062 0.436,0.4134 0.68897,0.58594 l 0.2168,0.0229 c 0.16267,-0.11257 0.53008,-0.29588 0.72119,-0.32568 0.21996,-0.0344 1.24184,-0.10813 1.48242,-0.0781 0.86971,0.48216 1.26132,1.96841 2.0874,1.30664 l 0.98194,0.0708 c 0.0141,-0.008 0.046,-0.0329 0.0615,-0.0337 0.65317,-0.0366 1.27787,-0.10501 1.90625,-0.2998 0.44169,-0.13673 0.89134,-0.44959 1.33935,-0.51319 0.61105,-0.0868 1.0583,0.39415 1.79444,0.21973 0.093,-0.022 0.21029,-0.0698 0.28369,-0.13623 0.50114,-0.0452 1.01131,0.10214 1.44238,0.3584 l 0.15332,-0.0366 c 0.61712,-0.94914 1.02717,-0.35528 1.89258,-0.38868 0.0274,-0.001 0.0819,-0.0418 0.10986,-0.0508 0.59347,-0.20111 1.21925,-0.18849 1.7959,-0.36621 0.66418,-0.20464 1.10983,-0.28268 1.77881,-0.10156 0.0678,0.0183 0.39503,0.11712 0.44483,0.12012 0.13419,0.007 0.31158,-0.0613 0.4497,-0.0703 0.25537,-0.0181 0.54712,0.0874 0.81299,0.0884 l 0.47119,0.32666 c 0.27333,-0.0878 0.59765,0.23449 0.82178,0.33985 0.18379,0.0865 0.39399,-0.12487 0.58789,-0.0723 0.36212,0.0981 1.54591,0.60489 1.8916,0.54639 0.50643,-0.0859 1.25705,-0.54396 1.75781,-0.46436 0.47116,0.075 0.68562,0.43323 0.95313,0.78321 0.28952,0.37875 1.25535,-0.12107 1.54639,0.0845 0.44586,0.31495 0.52367,1.01349 1.26855,1.47705 l 5e-4,0.001 c 0.78738,-0.52011 1.51213,-0.96588 2.16162,-1.646 l 1.72071,-1.80176 c 0.5568,-0.58298 1.09772,-1.18244 1.65185,-1.76806 2.19162,-2.3167 4.35402,-4.67283 6.51465,-7.01611 1.88981,-2.04943 3.79676,-4.08183 5.69189,-6.13721 2.02578,-2.19712 4.02276,-4.43279 6.05518,-6.63086 l -105.603997,0 z"
     id="green_stripes"
     inkscape:connector-curvature="0" />
  <path
     style="fill:#d40000;fill-opacity:1"
     d="m 52.482043,50.000071 c -0.566297,0.43068 -1.18892,0.781638 -1.619141,1.360353 -1.27637,1.716657 -2.492144,3.404622 -3.916504,5.003905 -0.0131,0.01468 -0.07254,0.2301 -0.08154,0.26172 0.09788,0.26195 0.173825,0.665472 0.140625,0.946777 -0.45674,0.465088 -1.150973,0.807385 -1.536133,1.307128 -0.16215,0.210217 -1.03063,1.52754 -1.19873,1.675782 l -0.647461,-0.285645 c -0.47836,0.09436 -0.714909,0.59931 -1.244629,0.307128 -0.49089,0.08829 -1.220725,0.360007 -1.660645,0.59375 -0.11548,-0.04313 -0.24887,-0.06597 -0.37207,-0.06787 l -0.359863,0.197265 c -0.18062,0.0092 -0.550832,-0.120593 -0.738282,-0.166503 -0.24765,0.15292 -0.04515,0.443865 -0.196289,0.660155 -0.19492,-0.05793 -0.567474,0.228013 -0.697754,0.35791 -0.13053,-0.01505 -0.420808,-0.06129 -0.531738,-0.1416 -1.39741,0.188585 -1.6749,1.343478 -2.05664,1.494628 -0.78345,-0.175435 -0.671237,-0.61959 -1.713868,-0.466798 -0.1237,-0.08993 -0.295105,-0.188595 -0.447265,-0.220215 0.0058,-0.199845 -0.05297,-0.446185 -0.134766,-0.62744 -0.1748,-0.05945 -0.358897,-0.09458 -0.480957,-0.245605 -0.04895,-0.249935 -0.103554,-0.612727 -0.368164,-0.72998 -0.30344,-0.0053 -0.614502,0.002 -0.916992,-0.01612 -0.368021,-0.022 -0.539696,-0.365487 -0.958496,-0.298827 l -0.174317,-0.203125 c -0.17783,-0.03554 -0.33062,-0.08165 -0.51416,-0.04346 -0.15507,-0.17556 -0.542435,-0.427472 -0.793945,-0.399902 -0.39862,-0.648238 -0.763167,-0.161948 -1.103027,-0.271485 -0.373701,-0.12041 -0.754332,-0.446533 -1.135743,-0.135253 -0.09139,0.0052 -0.201643,-0.02753 -0.277343,-0.07813 -0.0821,-0.0051 -0.197036,0.04437 -0.256836,0.09863 l -0.124024,-0.01563 c -0.03418,-0.0565 -0.130221,-0.197223 -0.228027,-0.30956 l 0,15.458007 161.291501,0 c -0.0182,-0.03893 -0.032,-0.07365 -0.0513,-0.114257 0.0213,-0.1079 0.0902,-0.32259 0.17675,-0.40039 l 0.18262,-0.0166 0.11914,-0.17041 c 0.29167,0.13015 0.43052,0.08387 0.66162,-0.13672 0.22134,0.04262 0.58401,-0.28162 0.71631,-0.41455 l 0.0884,5e-4 0.25195,0.291017 c 0.0958,0.04908 0.47901,-0.12978 0.5791,-0.16748 1.11965,-0.422592 0.32836,-1.0671 0.47559,-1.69092 l 0.15723,-0.666015 0.24902,-0.19336 c 0.0907,0.0077 0.24979,-0.033 0.31299,-0.104002 l 0.20312,-0.453125 -0.0171,-0.106445 c -0.11295,-0.08234 -0.31064,-0.242925 -0.38134,-0.368653 l 0.0312,-0.24756 c -0.0951,-0.197947 -0.46411,-0.365422 -0.66358,-0.399412 -0.33616,-0.287 -0.42857,-1.100168 -0.30322,-1.524903 0.0478,-0.16216 0.15622,-0.314287 0.20312,-0.476562 0.0664,-0.229698 -0.11123,-0.409743 -0.16113,-0.603518 -0.13106,-0.508475 -0.17967,-0.698835 -0.11377,-1.234375 -0.0502,-0.112192 -0.14904,-0.240712 -0.24804,-0.314452 l -0.22315,-0.04248 c -0.39438,-0.417908 -0.0198,-0.977 -0.10449,-1.19873 -0.11395,-0.299138 -0.27799,-0.634065 -0.35889,-0.940918 -0.0374,-0.14179 -1e-5,-0.346587 -0.0205,-0.496095 -0.0268,-0.195167 -0.18793,-0.343877 -0.23193,-0.515137 -0.0448,-0.175685 0.0191,-0.381953 -0.002,-0.542968 -0.0351,-0.266125 -0.38002,-1.172122 0.061,-1.31543 l 0.27002,0.07276 c 0.31127,-0.251325 0.0661,-0.783745 0.34864,-1.02002 l 0.0112,-0.151855 -0.11621,-0.09473 c -0.13242,0.0017 -0.27866,-0.02343 -0.40186,-0.07276 -0.26081,-0.199215 0.071,-1.219165 0.12842,-1.43457 0.0281,-0.104985 -0.0213,-0.837435 -0.0293,-0.962403 l 0.22608,-0.399412 c 0.1695,-0.05262 0.3518,0.06642 0.51611,0.08008 0.0347,0.0029 0.42082,-0.07967 0.48242,-0.09131 -0.059,-0.294838 0.22037,-0.403118 0.0869,-0.825198 l 0.31787,-0.169432 -0.005,-0.124023 c -0.17417,-0.181255 -0.53244,-0.291955 -0.60644,-0.506347 -0.005,-0.120035 -0.006,-0.367213 0.04,-0.481935 0.0785,0.0087 0.1642,0.05225 0.2251,0.101075 l 0.18847,-0.08154 -0.14599,-0.166017 c -0.0727,-0.385145 -0.0334,-0.728458 0.0947,-1.114745 0.24576,-0.740573 0.15726,-0.4049 0.50977,-0.887695 0.14641,-0.200478 0.0247,-0.587105 0.10498,-0.836915 -0.15545,-0.289778 -0.58912,-0.683568 -0.83399,-0.890625 -0.22299,-0.0239 -0.49022,-0.01625 -0.6792,-0.151855 -0.0422,-0.07221 -0.0671,-0.149525 -0.0893,-0.226563 l -137.179191,0 z"
     id="red_stripes"
     inkscape:connector-curvature="0" />
  <path
     style="fill:#ffd200"
     d="m 82.830186,25.000071 c -0.28088,0.12245 -0.56092,0.257428 -0.811523,0.36377 -1.33999,0.568423 -2.700995,1.097555 -4.038085,1.666993 -0.18909,0.08045 -3.44354,1.39901 -3.55713,1.47705 -0.82202,0.565135 -1.9176,1.792297 -2.73584,2.262695 -0.42524,0.534402 -2.693047,1.503715 -3.492187,1.876465 -1.51859,0.708445 -3.031423,1.431755 -4.544433,2.152345 -0.37427,0.55084 -1.938367,3.019112 -2.091797,3.086912 l -0.0088,0.08887 c -0.77713,1.11712 -1.534103,2.250332 -2.291503,3.38086 -0.1643,0.245255 -0.343532,0.450682 -0.465332,0.72705 -0.12291,0.278775 -0.07106,0.555385 -0.105958,0.84668 -0.19656,1.64178 -0.239832,1.841255 -1.388182,2.965332 -0.37845,0.672018 -1.079475,1.093708 -1.680665,1.539063 l -0.04443,0.08935 -0.06494,-0.0039 c -0.03277,0.03491 -0.06485,0.07891 -0.10205,0.108887 -0.93296,0.752338 -1.853368,1.518713 -2.788088,2.269533 -0.0445,0.03574 -0.09182,0.06753 -0.137205,0.10205 l 137.179202,0 c -0.0302,-0.104735 -0.0546,-0.20907 -0.10108,-0.299805 -0.0694,-0.135718 -0.20139,-0.25451 -0.26709,-0.391113 -0.1074,-0.223117 -0.10755,-0.943355 -0.0103,-1.174317 0.20643,-0.132935 0.42194,-0.437773 0.51954,-0.657225 0.056,-0.04806 0.28183,-0.05884 0.35693,-0.06934 -0.22325,-0.66215 0.61498,-2.285547 1.15381,-2.729002 -0.20188,-0.213888 -0.87125,-0.876738 -1.09033,-0.844728 -0.1557,-0.166582 -0.0956,-0.732262 -0.0996,-0.932617 -0.0312,-1.490755 -0.15559,-2.403443 -0.7378,-3.756835 -0.23122,-0.537308 -0.44719,-1.09278 -0.69775,-1.620605 -0.099,-0.2087 -0.27869,-0.322783 -0.39404,-0.48633 -0.16962,-0.240573 -0.30645,-0.555135 -0.46241,-0.811523 -0.19301,-0.316847 -1.68293,-2.152257 -1.64843,-2.500977 0.49518,-0.393875 1.37442,-0.218305 1.87353,-0.682128 0.1036,-0.473562 0.42768,-1.019945 0.646,-1.469727 0.0558,-0.278268 0.19332,-0.572423 0.32031,-0.823243 l 0.0644,-0.04102 c 0.0502,-0.282062 0.20714,-0.527695 0.30274,-0.793945 0.18481,-0.515425 0.23404,-1.13851 0.29004,-1.678222 -0.18226,-0.11422 -1.05505,-0.099 -1.24756,-0.08545 l -0.10498,-0.06543 -0.0815,0.0171 c -0.0688,0.07956 -0.55939,0.439727 -0.65039,0.466797 -0.14583,0.03617 -0.50364,-0.214697 -0.60498,-0.299317 l -0.37304,-0.01465 -0.26075,-0.231933 -0.2456,0.03955 -0.17627,0.222655 c -0.11624,-0.05843 -0.2777,-0.09665 -0.40772,-0.09717 -0.13256,0.130537 -0.70277,0.0042 -0.95751,0.104492 -0.21364,-0.112697 -1.6286,-0.544137 -1.6504,-0.839355 0.13344,-0.550845 0.29015,-1.33818 0.24805,-1.896485 -0.0331,-0.06275 -0.43816,-0.27956 -0.99805,-0.558105 l -99.338864,0 z"
     id="yellow_stripes"
     inkscape:connector-curvature="0" />
  <path
     style="fill:#006400;fill-opacity:1"
     d="M 112.2838,5.5952189e-4 C 111.20284,0.01722952 111.08147,0.44073852 109.817,0.86188752 c -0.24462,0.08151 -0.57344,0.102176 -0.83008,0.17724598 -0.40943,0.119781 -0.85826,0.288951 -1.28906,0.323731 -0.98406,0.07924 -0.88873,-0.62209798 -1.63916,-0.52343798 -0.8577,0.112697 -0.91351,1.00623698 -1.51026,1.13183598 -0.39236,0.0826 -1.7159,0.03276 -1.95117,0.201172 -0.13812,0.09885 -0.29434,0.302107 -0.41601,0.426758 -0.19214,0.197098 -0.74384,-0.04983 -1.01465,0.0068 -0.45396,0.09486 -0.52372,0.404089 -0.79199,0.497558 -0.19454,0.06786 -0.410246,0.02936 -0.600097,0.158692 -0.5234,0.356248 -1.231815,0.876094 -1.913575,0.724121 -0.35542,0.09752 -0.529765,0.459899 -0.771485,0.697754 -0.24981,0.245823 -0.61761,0.410872 -0.90625,0.605469 -0.42195,0.284594 -2.372725,1.756973 -2.532225,1.966308 -0.27915,0.366303 -0.509522,1.201984 -0.971192,1.308106 -0.59789,-0.06723 -2.03648,-0.18567 -2.53369,0.130859 -0.08129,0.0886 -0.07835,0.21582 -0.123048,0.320801 -0.11207,0.26385 -0.305465,0.476202 -0.430175,0.726074 -0.28384,0.5683005 -0.50122,1.2209025 -1.05713,1.6069335 l -0.05273,0.178711 c 0.01555,0.155578 0.298505,0.201422 0.354005,0.360352 -0.01175,0.0862 -0.165145,0.255986 -0.223145,0.313476 -0.0557,0.146975 -0.06593,0.415234 0.0054,0.560059 l 0.231448,0.169433 0.09668,0.297364 c -0.15823,0.351945 -0.375855,0.685624 -0.526365,1.036621 -0.08398,0.1958 0.0132,0.464989 -5e-4,0.672363 -0.0163,0.247468 -0.320287,1.025039 -0.05176,1.222168 0.10624,0.02112 0.359135,0.09415 0.436035,0.180664 0.23627,0.529404 -0.808318,0.894225 -0.870118,1.985352 l 0.11084,0.196777 0.310548,0.07861 0.108887,0.132325 c -0.07413,0.578037 -0.173555,0.534756 0.128905,0.975097 0.0085,0.01228 0.0068,0.05508 0.0078,0.07031 l -0.14453,0.222656 c 0.1495,0.862061 -0.497062,0.941571 -0.584962,1.428223 -0.0572,0.316593 0.09892,0.659372 0.01173,0.954589 -0.07513,0.254234 -0.3324,0.384356 -0.4292,0.626954 -0.42448,0.148685 -0.68215,0.425884 -0.98584,0.732421 -0.28244,0.0053 -0.517338,0.353412 -0.639648,0.564454 -0.04793,0.01809 -0.104775,0.04989 -0.155275,0.05859 -0.70098,0.120921 -1.445915,0.200422 -2.131835,0.374024 -0.22557,0.05702 -0.468955,0.153847 -0.711915,0.259765 l 99.338862,0 c -1.49061,-0.741583 -4.16658,-1.952828 -4.5044,-2.103027 -1.12179,-0.498984 -2.22828,-0.87651 -3.41357,-1.219727 -0.0211,-0.0061 -0.0784,-0.05705 -0.0986,-0.07178 -0.47533,-0.0023 -0.97333,-0.28634 -1.44043,-0.375 -0.46573,-0.08842 -5.11332,0.152223 -5.91309,0.178223 -0.51884,0.01695 -2.65864,-0.606935 -3.18799,-0.736328 l -0.15233,-0.391113 c 0.0679,-0.209966 0.007,-0.43467 0.0952,-0.629394 l -0.13819,-0.143067 c 0.0105,-0.323613 -0.15722,-0.863211 -0.54199,-0.891601 -0.10713,-0.109028 -0.34493,-0.233909 -0.50342,-0.22461 l -0.1206,-0.131347 -0.14502,-0.03174 -0.0845,-0.213379 -0.20898,-0.04981 -0.10059,0.128418 -0.12646,-0.10791 -0.0205,-0.230469 -0.10889,-0.130859 -0.25586,0.01416 0.0796,-0.329102 -0.0508,-0.118652 c -0.0842,-0.0726 -0.20734,-0.158932 -0.31738,-0.187012 -0.058,-0.05331 -0.11038,-0.241093 -0.12988,-0.314453 -0.0794,0.01947 -0.22719,0.01117 -0.29639,-0.03955 l -0.36524,-0.505859 c -0.13054,0.03409 -0.31909,0.0056 -0.43798,-0.04346 -0.12409,-0.05116 -0.37953,-0.102882 -0.48438,-0.169922 -0.24817,-0.158739 -0.7345,-0.633154 -1.01416,-0.686524 -0.4427,-0.08449 -0.95417,-0.01918 -1.38232,-0.114746 -0.1361,-0.03042 -0.28055,-0.140095 -0.41602,-0.183105 -0.22375,-0.07077 -0.51349,0.04975 -0.73926,0.03027 -0.67708,-0.05831 -2.12684,-0.333723 -2.60937,-0.883301 l -0.37891,0.05274 c -0.11434,-0.08525 -0.33603,-0.159099 -0.48047,-0.119629 l -0.38476,0.05273 -0.0674,-0.142578 0.0674,-0.240723 -0.0962,-0.160644 -0.14991,-0.07275 -0.3916,0.123047 c -0.37085,-0.323675 -0.63748,-0.831793 -0.99316,-1.183106 -0.10649,-0.105046 -0.27182,-0.174932 -0.37305,-0.283203 -0.13231,-0.141411 -0.23626,-0.505256 -0.23926,-0.693847 -0.68809,-0.78914 -1.28253,-0.696621 -1.74218,-1.11377 -0.0807,-2.5e-4 -0.46345,0.02082 -0.51075,-0.0332 l 0.003,-0.181641 -0.0576,-0.03613 -0.22754,0.05469 c -0.69022,0.196877 -0.56765,0.01243 -1.1123,0.05322 -0.14836,-0.09442 -0.19145,-0.2030445 -0.28565,-0.3540045 -0.21337,0.01606 -0.7662,-0.02511 -0.92431,-0.208007 l -0.94629,0.339355 0.0347,0.1147465 c -0.25993,0.119719 -0.51533,0.260654 -0.75489,0.416992 -0.006,-0.13161 -0.0962,-0.331112 -0.19775,-0.416992 -0.0632,0.353653 -0.53664,0.439345 -0.82617,0.484375 0.004,0.188591 -0.15697,0.507785 -0.25147,0.660644 -0.3133,0.152666 -0.55891,0.395716 -0.93457,0.370606 -0.67986,-0.308811 -0.52812,-0.56742 -0.78906,-1.096192 -0.19719,-0.164811 -0.44579,-0.29712 -0.66992,-0.419433 l -12.18701,0 c -0.079,-0.8222835 -0.0216,-1.6746245 -0.0176,-2.4946295 0.0122,-2.354335 0.0583,-4.706959 0.0312,-7.05908198 -5e-4,-0.04958 -0.11735,-0.238542 -0.16845,-0.274902 -0.12029,0.161775 -0.34698,0.27056 -0.50977,0.377441 -1.02238,0.67094198 -0.95853,0.368643 -1.95068,0.328613 -0.55906,-0.02258 -0.57995,0.11308798 -1.08741,-0.161132 -0.0178,-0.0096 -0.19463,-0.275218 -0.21533,-0.304688 l -0.10986,-0.02539 c -0.28384,0.260941 -0.7516,0.76858898 -1.06592,0.91796898 l -0.18457,-0.03272 -0.0972,-0.102051 -0.0371,-0.177734 c -0.89096,-1.19168198 -1.52237,-0.71395698 -2.62304,-0.58544898 -0.28965,0.03383 -0.60635,-0.0041 -0.89942,0.01269 -0.25361,0.01461 -0.46666,0.138462 -0.70508,0.181152 -0.1748,0.03131 -1.63387,0.205578 -1.68017,0.173828 l -0.67041,-0.458496 c -0.13875,-0.09493 -0.59073,0.03948 -0.80664,-0.0249 -0.20213,-0.06027 -0.3965,-0.209089 -0.60205,-0.258789 -0.15848,-0.03823 -0.38826,-0.01426 -0.55762,-0.03418 -0.37749,-0.04448 -0.67779,-0.06244 -0.92725,-0.058589998 z"
     id="rect3404"
     inkscape:connector-curvature="0" />
  <path
     style="fill:#000000"
     d="m 26.137316,75.000071 0,24.999999 160.235834,0 c 0.0376,-0.201571 0.0673,-0.404451 0.0342,-0.592284 -0.51327,-0.11143 -1.40214,0.325028 -1.67041,-0.484862 -0.0571,-0.17252 0.0814,-0.502903 0.0884,-0.678713 0.0131,-0.32065 -0.13077,-0.65447 0.12549,-0.94336 0.0607,-0.22122 -0.12192,-0.445342 -0.23828,-0.615722 l 0.0191,-0.236328 c 0.23779,-0.256 0.53798,-0.44429 0.7998,-0.67285 0.11169,-0.09752 0.94436,-0.998695 0.99756,-1.066895 0.17292,-0.44118 -0.0595,-1.057835 -0.0249,-1.541015 0.0379,-0.528212 0.25661,-1.07782 0.36084,-1.59717 0.0785,-0.39083 0.09,-0.78504 0.20361,-1.17334 0.0315,-0.1079 0.11799,-0.228047 0.13819,-0.335937 0.0424,-0.22577 -0.041,-0.590203 -0.1543,-0.786133 -0.0825,-0.06982 -0.21948,-0.121382 -0.32471,-0.138182 -0.3785,-0.57095 -0.15862,-1.034265 -0.31054,-1.336428 l -0.28907,-0.216795 c -0.95863,-0.17978 -2.11043,0.785683 -2.88769,0.05029 -0.10562,-0.09993 -0.34455,-1.886335 -0.36865,-1.998535 l 0.0478,-0.117675 c 0.22629,-0.03984 0.45033,-0.105875 0.66992,-0.171875 0.21059,-0.26916 -0.36363,-1.551318 -0.6123,-1.864748 l -0.0152,-0.318847 c 0.11978,-0.29572 0.48956,-0.494643 0.73242,-0.672853 0.12762,-0.09333 0.4204,0.01758 0.60937,-0.101072 0.48229,-0.30306 1.27682,-1.001895 1.88623,-0.941895 0.49822,0.04908 0.85455,0.662477 1.38135,0.480467 0.27245,-0.0941 0.73481,-0.503105 0.86572,-0.770995 0.094,-0.19239 0.0795,-0.378727 0.13379,-0.565917 0.0861,-0.29687 0.65366,-1.13972 0.51074,-1.38965 -0.3429,-0.59929 -0.69401,-1.19008 -1.09863,-1.7666 -0.12902,-0.25057 -0.11956,-0.5551 -0.25439,-0.78125 -0.0796,-0.13333 -0.2555,-0.179345 -0.3169,-0.308105 0.37638,-0.501555 0.24032,-0.867825 0.0171,-1.344728 l -161.291504,0 z"
     id="black_stripe"
     inkscape:connector-curvature="0" />
  <path
     style="fill:#000000"
     d="m 72.603623,30.076244 c -0.322905,0.281312 -0.636045,0.533382 -0.916015,0.694335 -0.42524,0.534402 -2.693047,1.503715 -3.492187,1.876465 -1.51859,0.708445 -3.031423,1.431755 -4.544433,2.152345 -0.37427,0.55084 -1.938367,3.019112 -2.091797,3.086912 l -0.0088,0.08887 c -0.77713,1.11712 -1.534103,2.250332 -2.291503,3.38086 -0.1643,0.245255 -0.343532,0.450682 -0.465332,0.72705 -0.12291,0.278775 -0.07106,0.555385 -0.105958,0.84668 -0.19656,1.64178 -0.239832,1.841255 -1.388182,2.965332 -0.37845,0.672018 -1.079475,1.093708 -1.680665,1.539063 l -0.04443,0.08935 -0.06494,-0.0039 c -0.03277,0.03491 -0.06485,0.07891 -0.10205,0.108887 -0.93296,0.752338 -1.853368,1.518713 -2.788088,2.269533 -0.59979,0.48178 -1.291647,0.837307 -1.756346,1.462402 -1.27637,1.716658 -2.492144,3.404623 -3.916504,5.003905 -0.0131,0.01467 -0.07254,0.2301 -0.08154,0.26172 0.09788,0.26195 0.173825,0.665473 0.140625,0.946778 -0.45674,0.465087 -1.150973,0.807385 -1.536133,1.307127 -0.16215,0.210218 -1.03063,1.52754 -1.19873,1.675783 l -0.647461,-0.285645 c -0.47836,0.09436 -0.714909,0.59931 -1.244629,0.307127 -0.49089,0.08829 -1.220725,0.360008 -1.660645,0.59375 -0.11548,-0.04313 -0.24887,-0.06597 -0.37207,-0.06787 l -0.359863,0.197265 c -0.18062,0.0092 -0.550832,-0.120592 -0.738282,-0.166502 -0.24765,0.15292 -0.04515,0.443865 -0.196289,0.660155 -0.19492,-0.05793 -0.567474,0.228012 -0.697754,0.35791 -0.13053,-0.01505 -0.420808,-0.06129 -0.531738,-0.1416 -1.39741,0.188585 -1.6749,1.343477 -2.05664,1.494627 -0.78345,-0.175435 -0.671237,-0.61959 -1.713868,-0.466797 -0.1237,-0.08993 -0.295105,-0.188595 -0.447265,-0.220215 0.0058,-0.199845 -0.05297,-0.446185 -0.134766,-0.62744 -0.1748,-0.05945 -0.358897,-0.09458 -0.480957,-0.245605 -0.04895,-0.249935 -0.103554,-0.612728 -0.368164,-0.72998 -0.30344,-0.0053 -0.614502,0.002 -0.916992,-0.01612 -0.368021,-0.022 -0.539696,-0.365488 -0.958496,-0.298828 l -0.174317,-0.203125 c -0.17783,-0.03554 -0.33062,-0.08165 -0.51416,-0.04346 -0.15507,-0.17556 -0.542435,-0.427473 -0.793945,-0.399903 -0.39862,-0.648237 -0.763167,-0.161947 -1.103027,-0.271485 -0.373701,-0.12041 -0.754332,-0.446532 -1.135743,-0.135252 -0.09139,0.0052 -0.201643,-0.02752 -0.277343,-0.07813 -0.0821,-0.0051 -0.197036,0.04437 -0.256836,0.09863 l -0.124024,-0.01563 c -0.03416,-0.0565 -0.130211,-0.19723 -0.228017,-0.309567 l 0,42.515139 c 0.348161,-0.008 0.858627,0.75998 1.195312,0.96582 l 0.01465,0.14111 c -0.11004,0.12522 -0.749777,0.87025 -0.637207,1.07617 1.340491,0.75335 0.939941,0.0895 1.567871,0.26318 0.10494,0.0901 0.08873,0.2049 0.148926,0.3042 0.12895,0.21287 0.280276,0.38523 0.375976,0.64161 0.20497,0.54883 0.09165,0.59574 0.609863,1.00341 0.339551,0.26692 1.064219,0.0883 1.497559,0.27002 0.07342,0.0307 0.263227,0.23528 0.344727,0.27588 0.39027,0.19404 0.455074,-0.0187 0.740234,0.41553 l 0.338867,0.0166 c 0.79293,0.43435 0.497629,0.51063 0.824219,1.23388 0.07324,0.16203 0.647605,1.10079 0.793945,1.30811 0.15975,0.0976 0.480133,-0.17827 0.675293,-0.13867 0.17657,0.0359 1.152728,0.22216 1.256348,0.32715 0.1719,0.17429 0.285691,0.88035 0.539551,1.2583 0.59954,0.0938 0.461802,-0.33825 1.465332,0.0947 0.08513,0.0364 0.216951,0.0671 0.297851,0.003 0.18758,-0.0129 0.3836,0.357 0.4375,0.48779 l -0.113769,0.26221 c 0.01544,0.0597 0.09457,0.12257 0.151367,0.13867 0.35264,-0.0543 0.902559,0.17453 0.943359,0.16553 l 0.09375,-0.0728 0.1875,0.14405 c 0.1237,-0.002 0.321485,-0.0339 0.427735,0.0205 0.5726,0.29276 0.586756,-0.0324 0.958496,0.19873 0.21731,0.053 0.320439,0.19093 0.491699,0.25293 0.12194,0.0442 0.29314,0.0163 0.41748,0.0571 0.1275,0.042 0.253545,0.15287 0.379395,0.20507 0.18733,0.0776 0.437339,-0.006 0.630859,0.005 0.26069,0.0137 0.590802,0.29003 0.857422,0.0244 0.20099,0.0598 0.45493,0.0697 0.66211,0.0518 0.22616,0.18733 0.522286,0.23763 0.750976,0.43457 0.10536,0.31469 0.335427,0.88967 0.563477,1.12012 0.33874,0.16941 1.639707,0.12017 1.998047,-0.004 0.62382,0.0161 0.568591,0.83377 0.939941,1.06689 l 0.07861,0.3291 0.241211,0.11914 c 0.0101,0.0169 0.06052,0.0895 0.06152,0.10498 0.0152,0.16113 0.0094,0.41478 0.0542,0.56543 0.10877,0.36579 0.400033,0.66461 0.356933,1.07911 l 0.473633,0.3916 -0.01709,0.0542 c 0.133,0.26334 0.125875,0.59624 0.171875,0.88134 0.05502,0.33961 0.181765,0.64129 0.251465,0.96827 0.08864,0.41499 -0.0035,2.46245 -0.03369,3.06591 -0.02757,0.55413 -0.435798,1.46269 -0.281738,2.021 l 0.05517,0.0518 c 0.48634,0.0583 1.343676,-0.43632 1.737306,-0.67627 l 0.144042,0.0259 c 0.06362,0.10144 0.217513,0.18595 0.326173,0.21045 0.13217,0.0296 1.386635,0.12336 1.532225,0.0723 0.28901,-0.10145 0.52515,-0.33341 0.875,-0.31201 0.74045,0.0457 1.600927,0.45002 2.350097,0.56348 0.45787,0.0694 0.766923,-0.47738 1.275393,-0.3003 l 0.532225,0.45801 c 0.3195,0.088 0.674487,-0.12716 0.935547,-0.28515 0.26094,0.0186 0.527365,0.31985 0.677245,0.50097 0.48293,0.58361 0.604568,0.80152 0.259768,1.58155 l -0.06983,0.0591 c -0.0189,0.072 0.03233,0.19329 0.07813,0.24609 l -0.0044,0.0942 c -0.05908,0.10309 -0.208358,0.24433 -0.327638,0.27393 -0.19211,0.19871 -0.04258,0.85424 -0.08398,1.20068 -0.10422,0.87048 0.43631,1.10089 0.6416,1.77392 l -0.134765,0.36329 0.195312,0.63281 c 0.08566,0.27802 -0.339172,0.52023 -0.06445,1.10156 l -0.2334,0.19531 c -0.02872,0.34796 -0.108978,0.86557 -0.210938,1.19873 -0.0764,0.24905 -0.524577,0.39444 -0.580077,0.87256 0.10333,0.23551 0.201985,0.43924 0.325685,0.62403 0.0463,0.13345 -0.221118,0.48421 -0.291018,0.59716 -0.26348,0.42525 0.43281,0.60895 0.520508,0.9502 l -0.2749,0.51416 0.126465,0.26855 c -0.03212,0.16394 -0.4239,0.30621 -0.4209,0.42334 0.10814,0.16076 0.295625,0.46834 0.328125,0.66553 l -0.05517,0.20166 c -0.07766,0.0535 -0.436333,0.30711 -0.348633,0.45117 0.19402,0.31899 0.269285,0.7882 0.475585,1.05762 0.24348,0.31823 0.522958,0.17372 0.622558,0.6875 0.258922,0.12206 0.29557,0.27698 0.4375,0.47949 0.08006,0.1144 0.40972,0.12405 0.5376,0.16455 0.29762,0.0941 0.08061,0.49782 1.03076,0.60205 l 0.04346,0.46485 c 0.32722,0.31773 0.705765,0.74032 0.944825,1.11914 0.31242,0.49532 0.209548,0.59601 0.679198,1.08349 0.0086,0.009 0.02772,0.0898 0.03271,0.10547 l 0.452637,0.3252 c 0.10865,0.30926 0.04395,0.20175 0.299318,0.44726 0.22763,0.47533 7.5e-4,0.73093 0.08838,1.09571 0.13142,0.12788 0.337978,0.28718 0.443848,0.43213 0.13712,0.18733 0.21319,0.44406 0.34082,0.64062 0.06791,0.10461 0.204,0.17893 0.260742,0.29688 L 149.16856,87.500071 72.603623,30.076244 Z"
     id="path8"
     inkscape:connector-curvature="0" />
  <path
     style="fill:#ffffff;stroke:#000000;stroke-width:0.375;stroke-miterlimit:4;stroke-dasharray:none;stroke-opacity:1"
     d="m 69.108996,32.229076 c -0.366958,0.168413 -0.696723,0.31682 -0.913575,0.417968 -1.51859,0.708445 -3.031423,1.431755 -4.544433,2.152345 -0.37427,0.55084 -1.938367,3.019112 -2.091797,3.086912 l -0.0088,0.08887 c -0.77713,1.11712 -1.534103,2.250332 -2.291503,3.38086 -0.1643,0.245255 -0.343532,0.450682 -0.465332,0.72705 -0.12291,0.278775 -0.07106,0.555385 -0.105958,0.84668 -0.19656,1.64178 -0.239832,1.841255 -1.388182,2.965332 -0.37845,0.672018 -1.079475,1.093708 -1.680665,1.539063 l -0.04443,0.08935 -0.06494,-0.0039 c -0.03277,0.03491 -0.06485,0.07891 -0.10205,0.108887 -0.93296,0.752338 -1.853368,1.518713 -2.788088,2.269533 -0.59979,0.48178 -1.291647,0.837307 -1.756346,1.462402 -1.27637,1.716658 -2.492144,3.404623 -3.916504,5.003905 -0.0131,0.01467 -0.07254,0.2301 -0.08154,0.26172 0.09788,0.26195 0.173825,0.665473 0.140625,0.946778 -0.45674,0.465087 -1.150973,0.807385 -1.536133,1.307127 -0.16215,0.210218 -1.03063,1.52754 -1.19873,1.675783 l -0.647461,-0.285645 c -0.47836,0.09436 -0.714909,0.59931 -1.244629,0.307127 -0.49089,0.08829 -1.220725,0.360008 -1.660645,0.59375 -0.11548,-0.04313 -0.24887,-0.06597 -0.37207,-0.06787 l -0.359863,0.197265 c -0.18062,0.0092 -0.550832,-0.120592 -0.738282,-0.166502 -0.24765,0.15292 -0.04515,0.443865 -0.196289,0.660155 -0.19492,-0.05793 -0.567474,0.228012 -0.697754,0.35791 -0.13053,-0.01505 -0.420808,-0.06129 -0.531738,-0.1416 -1.39741,0.188585 -1.6749,1.343477 -2.05664,1.494627 -0.78345,-0.175435 -0.671237,-0.61959 -1.713868,-0.466797 -0.1237,-0.08993 -0.295105,-0.188595 -0.447265,-0.220215 0.0058,-0.199845 -0.05297,-0.446185 -0.134766,-0.62744 -0.1748,-0.05945 -0.358897,-0.09458 -0.480957,-0.245605 -0.04895,-0.249935 -0.103554,-0.612728 -0.368164,-0.72998 -0.30344,-0.0053 -0.614502,0.002 -0.916992,-0.01612 -0.368021,-0.022 -0.539696,-0.365488 -0.958496,-0.298828 l -0.174317,-0.203125 c -0.17783,-0.03554 -0.33062,-0.08165 -0.51416,-0.04346 -0.15507,-0.17556 -0.542435,-0.427473 -0.793945,-0.399903 -0.39862,-0.648237 -0.763167,-0.161947 -1.103027,-0.271485 -0.373701,-0.12041 -0.754332,-0.446532 -1.135743,-0.135252 -0.09139,0.0052 -0.201643,-0.02752 -0.277343,-0.07813 -0.0821,-0.0051 -0.197036,0.04437 -0.256836,0.09863 l -0.124024,-0.01563 c -0.05768,-0.09537 -0.291829,-0.44326 -0.412109,-0.45996 -0.16209,0.01025 -0.80028,-0.0048 -0.90918,0.08496 -0.16076,-0.03542 -0.368618,-0.278035 -0.440918,-0.41211 -0.0764,0.001 -0.209994,-0.04672 -0.254394,-0.114257 l 0.07813,-0.254883 -0.03076,-0.100097 c -0.52789,0.03238 -0.907158,0.517255 -1.417969,0.648925 -0.16765,0.04325 -0.391847,-0.0022 -0.554687,0.04883 -0.07691,0.02415 -0.324157,0.215127 -0.418457,0.255857 -0.20453,0.08841 -0.591651,0.06735 -0.741211,0.25 l -0.07861,0.213868 c 0.06786,0.102327 0.161712,0.20328 0.263672,0.27246 -0.17878,0.156085 -0.31665,0.561027 -0.34375,0.785157 l -0.4375,-0.14502 c -0.489428,0.177838 -0.475843,-0.165825 -0.683593,-0.111815 l -0.228028,0.205078 c -0.19098,0.07147 -0.348661,-0.14782 -0.536621,-0.1167 -0.08777,0.05578 -0.51174,0.222627 -0.54834,0.279297 l -0.04883,0.266113 c -0.51511,0.40451 -0.600149,-0.05165 -0.770019,-0.0127 l -0.1167,0.06641 c -0.51435,-0.198075 -0.815862,0.0095 -0.916992,-0.03467 l -0.145019,-0.26367 c -0.12269,-0.05541 -0.537058,-0.204152 -0.671387,-0.132812 l -0.149414,-0.20459 -0.229492,0.0029 c -0.07487,-0.02606 -0.108057,-0.237988 -0.168457,-0.316408 l 0.0791,-0.249022 -0.01855,-0.04687 c -0.05711,-0.06374 -0.247218,-0.08627 -0.324218,-0.08447 l -0.04883,-0.141115 c 0.01359,-0.11902 0.216141,-0.2945 0.306641,-0.35205 l -0.04687,-0.0054 c -0.06102,-0.04971 -0.09552,-0.216137 -0.103516,-0.287597 -0.15772,-0.074 -0.231327,-0.470285 -0.290527,-0.63965 -0.29421,-0.256638 -0.739873,0.0059 -1.030273,-0.205078 -0.01449,-0.315457 -0.569068,-0.619557 -0.784668,-0.83838 -0.29446,0.02365 -0.982462,-0.228192 -1.198242,-0.405272 l -0.304688,0.0459 c -0.0616,-0.104097 -0.06369,-0.36334 -0.05469,-0.47705 l -0.08447,-0.140137 c -0.21755,-0.03441 -0.514843,-0.01305 -0.720703,0.07031 -0.73608,1.080693 -1.2071044,0.42638 -1.8710934,0.902345 l -0.242676,-0.174317 -0.293457,0.03272 c -0.68055,-0.50746 -0.730797,0.438255 -1.310547,0.563477 -0.06376,0.01365 -0.203266,0.03367 -0.268066,-0.01465 l -0.515162,-0.383744 c -0.09341,-0.06957 -0.782971,-0.20193 -0.894531,-0.17334 l -0.215332,0.155763 -0.193848,-0.0098 -0.136719,-0.145995 c -0.304379,-0.0035 -1.006432,0.260297 -1.184082,0.171387 -0.10599,-0.177715 -0.291637,-0.407715 -0.520507,-0.407715 -0.500119,0.249173 -0.718537,-0.0942 -1.168457,-0.350587 l -0.187989,0.0029 c -0.25424,-0.122313 -0.734972,-0.65713 -0.817872,-0.67041 l -0.17675701,0.0166 c -0.09123,0.275992 -0.113058,0.559535 -0.176758,0.840332 -0.1098,0.483678 -0.706777,1.225523 -0.364257,1.734375 -0.32228,0.688585 0.332317,0.943865 0.660157,1.460938 0.17133001,0.27017 0.22108401,1.061845 0.34814401,1.40576 0.20864,0.56501 0.870603,1.197572 0.979003,1.71338 0.16779,0.210977 0.865244,0.21725 0.964844,0.435057 l 0.130371,0.452638 c 0.12826,0.207812 0.561371,0.04241 0.715821,0.278807 0.19403,0.296865 0.425064,0.602365 0.595703,0.911623 0.25316,0.458887 0.394132,1.035537 0.669922,1.489745 0.09366,0.154317 0.261754,0.26883 0.331054,0.467285 0.06236,0.178345 0.05155,0.425375 0.126953,0.59424 0.1447,0.3243 0.392579,0.668045 0.574219,0.97705 l 0.03613,0.07031 c 0.04377,0.12952 0.683406,2.157833 0.753906,2.231933 0.67537,0.71033 1.251518,1.366375 1.790528,2.183595 0.02271,0.0344 0.255202,0.390212 0.337402,0.445312 0.240579,0.16153 0.634486,0.08228 0.8364254,0.299315 0.54786,0.58892 0.540247,1.638078 1.634277,2.523928 0.12296,0.0995 0.337246,0.013 0.472656,0.0332 0.16203,0.02428 0.293751,0.13479 0.474121,0.13379 0.15646,0.35214 0.646805,0.455075 0.851075,0.776855 0.16589,0.26145 -0.137409,0.934378 0.332031,1.4292 l -0.15625,0.185545 c 0.0022,0.47723 -0.247314,0.60149 0.05518,1.15625 -0.24646,0.39906 0.330014,1.59726 0.674804,1.90918 0.0548,0.19606 0.01702,0.50315 -0.02588,0.69629 0.50936,0.1385 1.329419,0.693748 1.719239,1.014648 0.3756,0.30926 0.719287,0.645255 1.248047,0.697755 0.24867,0.28207 0.952928,1.726337 1.048828,2.071777 l 0.05859,0.0059 -0.02148,0.06348 c 0.07249,0.25474 0.275595,0.984482 0.157715,1.184082 -0.4723,0.33012 -0.882601,0.720638 -0.820801,1.355468 0.09672,0.12585 0.115064,0.359275 0.180664,0.516115 0.47034,1.12344 0.607362,0.707 1.062012,1.38623 0.30275,0.45218 0.543574,0.91471 0.842774,1.37207 -0.05339,0.08374 -0.16403,0.322115 -0.12793,0.427735 0.19624,0.17113 0.420706,0.450697 0.503906,0.702147 l 0.11377,0.0127 0.175293,0.16797 c 0.0262,0.10462 -0.02558,0.348888 -0.05078,0.449708 0.28876,0.407777 0.337735,0.927897 0.523926,1.377927 0.08177,0.19757 0.245043,0.375838 0.331543,0.572268 0.24174,0.54895 0.212739,0.981012 0.290039,1.552732 0.13394,0.15797 0.511598,0.28482 0.537598,0.46924 0.06507,0.46268 0.101507,0.964593 0.199707,1.419433 0.01442,0.06679 0.155159,0.280188 0.185059,0.362288 0.27732,0.76055 0.167669,0.79121 0.767089,1.27881 0.136361,0.11091 0.417245,0.0418 0.578125,0.12842 0.203901,0.10992 0.326994,0.29355 0.513184,0.41699 0.47456,0.31453 1.123522,0.0339 1.618652,-0.0908 0.347781,-0.0875 0.890834,0.74603 1.243164,0.96143 l 0.01465,0.14111 c -0.11004,0.12522 -0.749777,0.87025 -0.637207,1.07618 1.340491,0.75334 0.939941,0.0895 1.567871,0.26318 0.10494,0.0901 0.08873,0.2049 0.148926,0.3042 0.12895,0.21287 0.280276,0.38522 0.375976,0.6416 0.20497,0.54883 0.09165,0.59575 0.609863,1.00342 0.339551,0.26692 1.064219,0.0883 1.497559,0.27001 0.07342,0.0307 0.263227,0.23528 0.344727,0.27588 0.39027,0.19404 0.455074,-0.0187 0.740234,0.41553 l 0.338867,0.0166 c 0.79293,0.43435 0.497629,0.51064 0.824219,1.23389 0.07324,0.16203 0.647605,1.10078 0.793945,1.3081 0.15975,0.0976 0.480133,-0.17827 0.675293,-0.13867 0.17657,0.0359 1.152728,0.22216 1.256348,0.32715 0.1719,0.17429 0.285691,0.88035 0.539551,1.2583 0.59954,0.0938 0.461802,-0.33824 1.465332,0.0947 0.08513,0.0364 0.216951,0.0671 0.297851,0.003 0.18758,-0.0129 0.3836,0.357 0.4375,0.4878 l -0.113769,0.2622 c 0.01544,0.0597 0.09457,0.12257 0.151367,0.13868 0.35264,-0.0543 0.902559,0.17453 0.943359,0.16553 l 0.09375,-0.0727 0.1875,0.14404 c 0.1237,-0.002 0.321485,-0.0339 0.427735,0.0205 0.5726,0.29276 0.586756,-0.0324 0.958496,0.19873 0.21731,0.053 0.320439,0.19093 0.491699,0.25293 0.12194,0.0442 0.29314,0.0163 0.41748,0.0571 0.1275,0.042 0.253545,0.15288 0.379395,0.20508 0.18733,0.0776 0.437339,-0.006 0.630859,0.005 0.26069,0.0137 0.590802,0.29004 0.857422,0.0244 0.20099,0.0598 0.45493,0.0696 0.66211,0.0517 0.22616,0.18733 0.522286,0.23763 0.750976,0.43457 0.10536,0.31469 0.335427,0.88966 0.563477,1.12012 0.33874,0.16941 1.639707,0.12018 1.998047,-0.004 0.62382,0.0161 0.568591,0.83377 0.939941,1.06689 l 0.07861,0.32911 0.241211,0.11914 c 0.0101,0.0169 0.06052,0.0895 0.06152,0.10498 0.0152,0.16113 0.0094,0.41478 0.0542,0.56544 0.10877,0.36579 0.400033,0.66459 0.356933,1.0791 l 0.473633,0.39159 -0.01709,0.0542 c 0.133,0.26334 0.125875,0.59625 0.171875,0.88135 0.05502,0.33961 0.181765,0.64128 0.251465,0.96826 0.08864,0.41499 -0.0035,2.46246 -0.03369,3.06592 -0.02757,0.55413 -0.435798,1.46269 -0.281738,2.02099 l 0.05517,0.0518 c 0.48634,0.0583 1.343677,-0.43632 1.737307,-0.67627 l 0.144042,0.0259 c 0.06362,0.10144 0.217513,0.18595 0.326173,0.21045 0.13217,0.0296 1.386635,0.12337 1.532225,0.0723 0.28901,-0.10145 0.52515,-0.33342 0.875,-0.31202 0.74045,0.0457 1.600927,0.45002 2.350097,0.56348 0.45787,0.0694 0.766923,-0.47737 1.275393,-0.30029 l 0.532225,0.458 c 0.3195,0.088 0.674487,-0.12716 0.935547,-0.28515 0.26094,0.0186 0.527365,0.31985 0.677245,0.50098 0.48293,0.5836 0.604568,0.80151 0.259768,1.58154 l -0.06983,0.0591 c -0.0189,0.072 0.03233,0.19329 0.07813,0.24609 l -0.0044,0.0942 c -0.05908,0.10309 -0.208358,0.24433 -0.327638,0.27393 -0.19211,0.19871 -0.04258,0.85424 -0.08398,1.20068 -0.10422,0.87048 0.43631,1.1009 0.6416,1.77393 l -0.134765,0.36328 0.195312,0.63281 c 0.08566,0.27802 -0.339172,0.52023 -0.06445,1.10156 l -0.2334,0.19532 c -0.02872,0.34796 -0.108978,0.86557 -0.210938,1.19873 -0.0764,0.24906 -0.524577,0.39444 -0.580077,0.87256 0.10333,0.23551 0.201985,0.43923 0.325685,0.62402 0.0463,0.13345 -0.221118,0.48422 -0.291018,0.59717 -0.26348,0.42525 0.43281,0.60894 0.520508,0.95019 l -0.2749,0.51416 0.126465,0.26856 c -0.03212,0.16394 -0.4239,0.30621 -0.4209,0.42334 0.10814,0.16077 0.295625,0.46834 0.328125,0.66552 l -0.05517,0.20166 c -0.07766,0.0535 -0.436333,0.30712 -0.348633,0.45118 0.19402,0.31899 0.269285,0.78819 0.475585,1.05761 0.24348,0.31823 0.522958,0.17372 0.622558,0.6875 0.258922,0.12206 0.29557,0.27699 0.4375,0.4795 0.08006,0.1144 0.40972,0.12405 0.5376,0.16455 0.29762,0.0941 0.08061,0.49782 1.03076,0.60205 l 0.04346,0.46484 c 0.32722,0.31773 0.705765,0.74032 0.944825,1.11914 0.31242,0.49532 0.209548,0.59602 0.679198,1.0835 5e-4,5e-4 0.0012,0.006 0.002,0.007 L 142.80382,87.500071 69.108996,32.229076 Z"
     id="path10"
     inkscape:connector-curvature="0" />
  <g
     id="g4159"
     transform="matrix(0.4166667,0,0,0.4166667,26.13726,8.3521884e-5)">
    <path
       id="path16"
       d="m 106.52013,104.41496 55.45892,170.685 -145.19334,-105.48911 179.46888,0 L 51.0612,275.09996 Z"
       inkscape:connector-curvature="0"
       style="fill:#d40000" />
    <path
       d="m 101.91772,145.77871 c -1.952079,-2.23552 -4.841969,-3.42256 -7.802053,-3.20376 -2.95981,0.21828 -5.643982,1.81729 -7.246492,4.31511 -1.69959,-0.0413 -3.399194,0.0834 -5.074385,0.37141 -1.567039,0.26962 -2.926364,1.23634 -3.694913,2.62861 -0.769329,1.39151 -0.863402,3.05739 -0.257286,4.52687 l 5.725976,-0.33956 c 2.345913,1.32386 3.826718,3.77995 3.903671,6.47242 l 0.645096,22.75354 c -1.106313,2.28531 -1.66513,4.79697 -1.633197,7.3363 0.0392,3.05689 0.281672,6.10725 0.727316,9.1322 0.446918,3.03753 -0.551777,6.10877 -2.699765,8.30228 -3.329268,3.39967 -6.224199,7.19947 -8.618166,11.31138 -1.837903,3.15899 -1.514231,7.12755 0.811336,9.94627 l 6.524217,25.2436 H 132.1957 l 2.71738,-21.41813 c 1.1536,-9.09297 6.33837,-17.18299 14.1183,-22.02849 l 1.92694,0.547 c 1.29443,0.36692 2.66757,-0.23311 3.27719,-1.43302 0.60937,-1.19986 0.28444,-2.66331 -0.77584,-3.49248 l -46.32096,-36.22116 -1.21746,-15.24522 c -0.28095,-3.51612 -1.6845,-6.84815 -4.00353,-9.50517"
       style="fill:#ffd200;fill-opacity:1;fill-rule:evenodd;stroke:none;stroke-width:0;stroke-miterlimit:4;stroke-dasharray:none"
       id="path636" />
    <path
       d="m 101.44843,146.19367 -0.0385,-0.0435 0.93833,-0.82968 0.0385,0.0436 z m -0.0385,-0.0435 c -0.25301,-0.28645 -0.5289,-0.55883 -0.81911,-0.81207 l 0.82566,-0.94385 c 0.32444,0.28316 0.63726,0.59327 0.93178,0.92624 z m 0.008,-1.75794 v 0.002 l -0.41269,0.47208 z m -0.82565,0.94814 c -0.29071,-0.25301 -0.594553,-0.48491 -0.904611,-0.69087 l 0.692861,-1.04645 c 0.36513,0.24245 0.71224,0.50622 1.03741,0.78917 z m -0.904611,-0.69087 c -1.609345,-1.06936 -3.55036,-1.59122 -5.526589,-1.4456 l -0.08847,-1.25771 c 2.249335,-0.16597 4.465756,0.4328 6.30768,1.65685 z m -5.526309,-1.44558 -0.05773,0.006 -0.08824,-1.2577 0.05773,-0.006 z m -0.151066,-1.25344 h 0.006 l 0.04413,0.62871 z m 0.09823,1.25772 c -0.400638,0.0315 -0.781876,0.0868 -1.139254,0.16318 l -0.260779,-1.22777 c 0.440645,-0.094 0.876955,-0.15969 1.301713,-0.19312 z m -1.139254,0.16318 c -0.372705,0.079 -0.739876,0.18386 -1.096254,0.3101 l -0.417713,-1.18358 c 0.406918,-0.14385 0.826902,-0.26305 1.253186,-0.35437 z m -1.096254,0.3101 c -1.822823,0.6451 -3.406208,1.88343 -4.474307,3.54731 l -1.056255,-0.67725 c 1.21974,-1.90128 3.028976,-3.31644 5.112844,-4.05356 z m -4.474307,3.54731 -0.543224,0.29022 0.01493,-0.62898 z m -0.543224,0.29022 c -0.06133,-0.001 -0.124686,-0.002 -0.168026,-0.002 l 0.01493,-1.25747 c 0.07414,6.6e-4 0.130533,0.002 0.184073,0.002 l -0.02993,1.25772 z m -0.168026,-0.002 h -0.002 l 0.0092,-0.62871 z m -0.002,0 c -0.230832,-0.002 -0.463237,-0.006 -0.691356,-0.002 l -0.0092,-1.25747 c 0.240965,-0.002 0.484124,-0.001 0.721543,0.002 z m -0.691356,-0.002 c -0.218292,0.001 -0.450697,0.008 -0.688876,0.0149 l -0.04413,-1.25747 c 0.230825,-0.008 0.472577,-0.0149 0.722782,-0.0149 z m -0.688876,0.0149 c -1.14556,0.0407 -2.284821,0.15969 -3.402448,0.3516 l -0.211232,-1.2376 c 1.186287,-0.20396 2.38038,-0.32872 3.56968,-0.37148 z m -3.402448,0.3516 -0.02493,0.006 -0.211019,-1.23759 0.02493,-0.006 0.211232,1.2376 z m -0.238965,-1.23333 h 0.002 l 0.105655,0.61865 -0.108422,-0.61865 z m 0.216792,1.2376 c -0.196899,0.0342 -0.387318,0.0812 -0.567597,0.1368 l -0.367629,-1.19911 c 0.237899,-0.0734 0.479637,-0.13331 0.718516,-0.17531 z m -0.567597,0.1368 c -0.177512,0.0549 -0.358585,0.12548 -0.537458,0.20596 l -0.516034,-1.14478 c 0.216498,-0.0978 0.445417,-0.18614 0.685796,-0.26029 z m -1.055739,-0.93881 h 0.002 l 0.258005,0.57238 z m 0.520337,1.14478 c -0.891788,0.40563 -1.643011,1.09074 -2.125121,1.96492 l -1.100563,-0.6051 c 0.615163,-1.11638 1.571091,-1.98982 2.705318,-2.50511 z m -3.227922,1.36536 0.002,-0.006 0.550277,0.30227 z m 1.105067,0.59456 -0.0342,0.0635 -1.105067,-0.59456 0.0342,-0.0634 z m -1.13926,-0.52841 v -0.002 l 0.552483,0.29728 -0.552483,-0.29449 z m 1.10506,0.589 c -0.08698,0.16319 -0.168245,0.34076 -0.239672,0.5289 l -1.17322,-0.44763 c 0.08241,-0.21829 0.187279,-0.44413 0.307832,-0.67027 z m -1.412892,0.084 v -0.002 l 0.586497,0.22384 -0.586497,-0.22108 z m 1.17322,0.44213 c -0.06846,0.18158 -0.126759,0.36693 -0.172599,0.55179 l -1.21746,-0.29957 c 0.05773,-0.23518 0.131106,-0.46829 0.216793,-0.69435 z m -1.390005,0.25451 v -0.002 l 0.608883,0.14964 z m 1.217466,0.295 c -0.230118,0.93957 -0.160112,1.94127 0.216072,2.85519 l -1.15914,0.47607 c -0.478344,-1.16114 -0.566603,-2.43219 -0.274392,-3.62628 z m -0.326431,3.72209 -0.61665,-0.39082 0.579723,-0.23788 z m -0.07414,-1.25746 5.725995,-0.33957 0.07414,1.25773 -5.725982,0.33927 z m 5.725995,-0.33957 0.341552,0.0812 -0.304259,0.5475 z m 0.341552,0.0812 c 0.08548,0.0478 0.122759,0.0691 0.144645,0.082 l -0.640029,1.08066 c -0.06347,-0.0371 -0.114853,-0.0677 -0.114853,-0.0677 l 0.608883,-1.09499 z m 0.144645,0.082 c 0.345825,0.20396 0.67675,0.43429 0.987368,0.68459 l -0.785409,0.97805 c -0.261852,-0.21101 -0.54323,-0.40641 -0.840488,-0.58172 z m 0.987368,0.68459 c 0.309612,0.24951 0.601817,0.52113 0.869915,0.81056 l -0.918208,0.85407 c -0.226838,-0.24467 -0.474064,-0.47479 -0.737116,-0.68659 z m 0.869915,0.81056 c 1.3573,1.45765 2.167848,3.38056 2.2262,5.42571 l -1.257452,0.0342 c -0.0492,-1.73882 -0.736369,-3.37052 -1.886956,-4.60583 z m 2.2262,5.42571 0.64531,22.75329 -1.257725,0.0342 -0.645097,-22.75356 z m 0.64531,22.75329 -0.0642,0.28945 -0.564896,-0.27212 0.628983,-0.0171 z m -0.0642,0.28945 c -0.0364,0.0757 -0.08769,0.18485 -0.139019,0.29677 l -1.139266,-0.52612 c 0.04133,-0.0906 0.08769,-0.18913 0.148859,-0.31511 z m -1.278358,-0.22665 v -0.002 l 0.569603,0.26307 -0.569603,-0.26029 z m 1.139259,0.52036 c -0.138232,0.30155 -0.269618,0.61536 -0.392091,0.93329 l -1.169208,-0.45239 c 0.127533,-0.33149 0.268819,-0.66747 0.421958,-1.00169 z m -1.563517,0.48333 0.002,-0.002 0.584497,0.22585 z m 1.173459,0.44769 c -0.120545,0.3144 -0.230831,0.63298 -0.33071,0.95241 l -1.199107,-0.3743 c 0.107722,-0.34425 0.226559,-0.68787 0.356378,-1.0266 z m -0.33071,0.95241 c -0.489111,1.57134 -0.730083,3.21959 -0.709469,4.87996 l -1.257467,0.0149 c -0.02287,-1.78788 0.238186,-3.56717 0.767816,-5.26753 l 1.199107,0.37349 z m -0.709469,4.87996 c 6.6e-4,0.10622 0.002,0.21451 0.006,0.33071 l -1.257453,0.02 c -0.0013,-0.10489 -0.002,-0.22157 -0.006,-0.33649 l 1.257473,-0.015 z m 0.006,0.33071 c 0.0078,0.4077 0.01707,0.82892 0.0342,1.25746 l -1.257473,0.0441 c -0.01493,-0.41497 -0.02713,-0.84402 -0.0342,-1.28186 l 1.257453,-0.02 z m 0.0342,1.25746 c 0.01353,0.40065 0.03347,0.82063 0.05773,1.25697 l -1.257453,0.0684 c -0.02287,-0.40791 -0.04207,-0.83622 -0.05773,-1.2811 z m 0.05773,1.25697 c 0.11414,2.08588 0.322159,4.15666 0.622924,6.20356 l -1.243133,0.18107 c -0.309325,-2.10524 -0.522618,-4.214 -0.63725,-6.31622 z m 0.622924,6.20356 0.006,0.0292 -1.243127,0.18107 -0.006,-0.0292 z m 0.006,0.0292 v 0.002 l -0.62143,0.0884 z m 0,0.002 c 0.0656,0.45496 0.101299,0.90915 0.107155,1.35529 l -1.257713,0.0149 c -0.006,-0.39936 -0.0364,-0.79924 -0.09261,-1.19283 l 1.243133,-0.17672 z m 0.107155,1.35529 c 0.006,0.44413 -0.0172,0.89405 -0.06987,1.34096 l -1.247666,-0.14259 c 0.04413,-0.38553 0.0648,-0.78338 0.05987,-1.18401 l 1.25772,-0.0149 z m -0.06987,1.34096 c -0.265338,2.27549 -1.276073,4.43054 -2.915817,6.10523 l -0.893795,-0.87972 c 1.440552,-1.47147 2.328807,-3.36622 2.561946,-5.36812 z m -2.915817,6.10523 -0.002,0.006 -0.444911,-0.44491 z m -0.002,0.006 c -0.01707,0.0171 0.106222,-0.14051 0.07264,-0.0898 l -1.046474,-0.698 c 0.03633,-0.0549 0.06133,-0.0798 0.0839,-0.10255 z m 0.07264,-0.0898 -0.07635,0.0911 -0.446904,-0.43986 z m -0.07635,0.0911 c -0.431078,0.44064 -0.883748,0.92046 -1.355032,1.43577 l -0.928275,-0.84954 c 0.425517,-0.46581 0.889041,-0.95468 1.389492,-1.46596 z m -2.283307,0.58821 v -0.002 l 0.464024,0.42474 z m 0.928275,0.84552 c -0.454191,0.49746 -0.891802,0.99315 -1.308267,1.48129 l -0.952621,-0.81545 c 0.445624,-0.52233 0.891029,-1.02784 1.332406,-1.51121 z m -2.263435,0.66571 h 0.002 l 0.476278,0.40792 -0.479058,-0.40792 z m 0.958175,0.81559 c -2.195788,2.58008 -4.157684,5.34674 -5.856514,8.26454 l -1.084941,-0.62869 c 1.74511,-2.99755 3.749006,-5.82633 5.98328,-8.45142 z m -6.944468,7.63583 h 0.002 l 0.542437,0.31438 -0.545511,-0.31438 z m 1.090727,0.62869 -0.02493,0.0421 -1.090741,-0.62899 0.02493,-0.0421 z m -0.02493,0.0421 c -0.240179,0.41776 -0.437864,0.84402 -0.592563,1.26878 l -1.178987,-0.4278 c 0.185407,-0.51092 0.412679,-1.00434 0.680791,-1.4706 z m -0.592563,1.26878 c -0.158266,0.43636 -0.278659,0.88274 -0.358365,1.32813 l -1.233633,-0.22071 c 0.09339,-0.52105 0.231612,-1.03564 0.412684,-1.53485 z m -0.358365,1.32813 c -0.414198,2.29991 0.178792,4.72152 1.724997,6.59515 l -0.968013,0.79484 c -1.78391,-2.16123 -2.46848,-4.95708 -1.990636,-7.61132 z m 1.724997,6.59515 0.122759,0.24019 -0.606596,0.15748 z m 0.122759,0.24019 6.524484,25.24356 -1.213446,0.3151 -6.524478,-25.24356 z m 5.917634,26.02973 -0.606596,-0.47102 0.606596,-0.15768 z m 0,-1.25746 h 48.966247 v 1.25746 H 83.230535 Z m 49.588067,0.7072 -0.62143,0.55027 v -0.62869 z m -1.24313,-0.15692 2.71738,-21.41812 1.24339,0.15691 -2.71764,21.41812 z m 3.96303,-21.26345 -0.002,0.002 -0.62171,-0.0784 z m -1.24795,-0.15205 c 0.009,-0.0764 -0.0171,0.15312 0.008,-0.0386 l 1.24337,0.1624 c -0.0229,0.1703 0.009,-0.0706 -0.002,0.0285 l -1.24765,-0.15241 z m 1.24966,0.12125 v 0.002 l -0.62171,-0.0812 0.62171,0.0784 z m -1.24338,-0.1569 c 0.16695,-1.30751 0.41418,-2.58711 0.73436,-3.82747 l 1.21773,0.30932 c -0.31238,1.2097 -0.55099,2.43872 -0.70868,3.67508 z m 0.73436,-3.82747 c 0.32366,-1.2547 0.7243,-2.48249 1.19559,-3.67279 l 1.1692,0.46173 c -0.45347,1.14705 -0.83848,2.32354 -1.14706,3.5204 z m 1.19559,-3.67279 c 2.42516,-6.12737 6.7654,-11.39365 12.47405,-14.9495 l 0.6632,1.06658 c -5.47651,3.41125 -9.64047,8.46474 -11.96803,14.34465 z m 12.47405,-14.9495 0.50123,-0.0713 -0.16959,0.60432 z m 0.50123,-0.0713 1.92694,0.54672 -0.33926,1.20892 -1.92693,-0.54679 z m 1.92694,0.54672 h 0.002 l -0.1718,0.6046 z m 0.002,0 0.0149,0.006 -0.34354,1.20895 -0.0149,-0.006 z m -0.32365,1.21321 h -0.006 l 0.17181,-0.60433 z m 0.33349,-1.20895 c 0.12975,0.0356 0.2731,0.0599 0.42503,0.0705 l -0.0928,1.25773 c -0.21023,-0.0149 -0.43479,-0.0556 -0.66571,-0.1192 z m 0.42503,0.0705 c 0.14884,0.009 0.29072,0.008 0.42054,-0.008 l 0.14692,1.24763 c -0.22384,0.0263 -0.44613,0.0328 -0.66014,0.0171 z m 0.42054,-0.008 c 0.70718,-0.0839 1.35175,-0.51257 1.68951,-1.1785 l 1.12092,0.56461 c -0.53419,1.05225 -1.54998,1.72826 -2.66358,1.86153 z m 2.81242,-0.61594 -0.002,0.002 -0.56033,-0.28217 z m -1.12492,-0.56034 0.008,-0.015 1.12493,0.56035 -0.008,0.0149 z m 0.008,-0.015 c 0.067,-0.13487 0.11977,-0.2711 0.15619,-0.40363 l 1.20919,0.33371 c -0.0599,0.21728 -0.14051,0.43058 -0.24046,0.63019 z m 1.36738,-0.0722 -0.002,0.002 -0.6046,-0.16689 z m -1.21349,-0.33021 c 0.0349,-0.13053 0.0592,-0.27039 0.0699,-0.41496 l 1.25772,0.0926 c -0.0149,0.21252 -0.0549,0.43208 -0.11414,0.65165 z m 1.32764,-0.32443 v 0.002 l -0.62899,-0.0463 z m -1.25771,-0.0884 c 0.0527,-0.71349 -0.24368,-1.42924 -0.83044,-1.88847 l 0.77133,-0.98785 c 0.92902,0.72632 1.39881,1.84998 1.31682,2.96485 z m -0.83044,-1.88847 -46.32091,-36.22123 0.77132,-0.98811 46.32092,36.22149 z m -46.32091,-36.22123 -0.24325,-0.44491 0.62877,-0.0492 z m -0.24325,-0.44491 -1.21745,-15.24522 1.25745,-0.0983 1.21772,15.24524 z m -1.21745,-15.24522 -0.006,-0.0534 1.25747,-0.0986 0.006,0.0534 z m 1.25319,-0.15392 v 0.002 l -0.62877,0.0492 z m -1.25748,0.10256 c -0.0407,-0.49468 -0.10051,-0.96522 -0.1775,-1.4071 l 1.23759,-0.21122 c 0.0905,0.52134 0.15748,1.0296 0.1974,1.51574 z m -0.1775,-1.4071 c -0.08,-0.46075 -0.18258,-0.92047 -0.30434,-1.37541 l 1.2132,-0.32344 c 0.13125,0.48691 0.24096,0.98434 0.32872,1.48758 z m -0.30434,-1.37541 c -0.62171,-2.32028 -1.76748,-4.48186 -3.36069,-6.30745 l 0.94385,-0.82565 c 1.72172,1.97321 2.95931,4.30656 3.63004,6.80967"
       style="fill:#000000;fill-opacity:1;fill-rule:nonzero;stroke:none;stroke-width:0;stroke-miterlimit:4;stroke-dasharray:none"
       id="path638" />
    <path
       d="m 101.79224,187.14723 c -0.006,0.0136 0.009,-0.0263 -0.008,0.0249 l -1.20339,-0.36365 c 0.006,-0.0171 0.009,-0.0278 0.0264,-0.0732 l 1.18352,0.4119 z m -0.008,0.0249 -0.006,0.015 -0.59654,-0.19691 z m -0.006,0.015 c -0.11257,0.33848 -0.20367,0.67425 -0.27233,1.00222 l -1.22753,-0.2553 c 0.082,-0.39208 0.18463,-0.77333 0.30661,-1.14049 z m -0.27233,1.00222 c -0.0713,0.34075 -0.12318,0.68231 -0.1547,1.01728 l -1.24737,-0.11266 c 0.0364,-0.39209 0.0956,-0.78063 0.17444,-1.1599 z m -0.1547,1.01728 c -0.16389,1.74232 0.17823,3.51309 1.00749,5.08945 l -1.11085,0.58443 c -0.94206,-1.79109 -1.329862,-3.80428 -1.14374,-5.7863 z m 1.00749,5.08945 0.008,0.0136 -1.1106,0.5845 -0.008,-0.0136 1.11084,-0.58442 z m 0.008,0.0136 c 0.16239,0.30862 0.34304,0.6066 0.53745,0.89028 l -1.03579,0.70663 c -0.22177,-0.32367 -0.42701,-0.66292 -0.61159,-1.01303 z m 0.53745,0.89028 c 0.19619,0.28673 0.40791,0.56113 0.62899,0.81711 l -0.94838,0.81963 c -0.2565,-0.29727 -0.49824,-0.60938 -0.71702,-0.92952 z m 0.62899,0.81711 c 1.15058,1.33014 2.67537,2.31172 4.39758,2.79937 l -0.33927,1.20917 c -1.95889,-0.55478 -3.69494,-1.67241 -5.00672,-3.18891"
       style="fill:#000000;fill-opacity:1;fill-rule:nonzero;stroke:none;stroke-width:0;stroke-miterlimit:4;stroke-dasharray:none"
       id="path870" />
    <path
       d="m 107.49232,171.04718 -19.014868,12.99388 -0.707189,-1.03642 19.015117,-12.99386"
       style="fill:#000000;fill-opacity:1;fill-rule:nonzero;stroke:none;stroke-width:0;stroke-miterlimit:4;stroke-dasharray:none"
       id="path872" />
    <path
       d="m 97.029978,150.43836 c 0,-1.37817 -1.117148,-2.49531 -2.495067,-2.49531 -1.377912,0 -2.495059,1.11714 -2.495059,2.49531 0,1.37794 1.117147,2.49506 2.495059,2.49506 1.377919,0 2.495067,-1.11712 2.495067,-2.49506"
       style="fill:#ffd200;fill-opacity:1;fill-rule:evenodd;stroke:none;stroke-width:0;stroke-miterlimit:4;stroke-dasharray:none"
       id="path874" />
    <path
       d="m 96.401241,150.43836 v -0.006 h 1.257446 v 0.006 z m 0,-0.006 c -6.53e-4,-0.51407 -0.209512,-0.98108 -0.545224,-1.31607 l 0.884009,-0.88978 c 0.565823,0.5654 0.917448,1.34599 0.918695,2.20585 z m -0.545224,-1.31607 c -0.335191,-0.3345 -0.800735,-0.54394 -1.312539,-0.54551 l 0.006,-1.25745 c 0.854055,0.002 1.629671,0.35209 2.192261,0.91316 l -0.884022,0.8898 z m -1.310546,-1.80295 h 0.002 l -0.002,0.6287 z m 0,1.25747 h -0.0092 v -1.25747 h 0.0092 z m -0.0092,0 h -0.006 v -1.25747 h 0.006 z m -0.006,0 c -0.51407,6.5e-4 -0.980828,0.20974 -1.316059,0.54551 l -0.889529,-0.88401 c 0.565324,-0.5661 1.345993,-0.91743 2.205588,-0.91895 z m -1.316059,0.54551 c -0.334198,0.33498 -0.543724,0.8005 -0.545217,1.31253 l -1.257473,-0.006 c 0.002,-0.85458 0.352098,-1.63018 0.913181,-2.19202 l 0.889536,0.88401 z m -1.80271,1.31027 v -0.002 l 0.628776,0.002 z m 1.257473,0 v 0.01 h -1.257473 v -0.01 z m 0,0.01 v 0.006 h -1.257473 v -0.006 z m 0,0.006 c 6.6e-4,0.51478 0.209525,0.98107 0.545217,1.31606 l -0.884002,0.88978 c -0.565941,-0.56539 -0.917493,-1.34674 -0.918753,-2.20584 z m 0.545217,1.31606 c 0.335205,0.33449 0.800755,0.54402 1.312533,0.54551 l -0.006,1.25746 c -0.854829,-0.002 -1.630431,-0.35209 -2.192268,-0.91317 l 0.884648,-0.88971 z m 1.310266,1.80296 h -0.002 l 0.002,-0.62871 z m 0,-1.25747 h 0.0092 v 1.25747 h -0.0092 z m 0.0092,0 h 0.006 v 1.25747 h -0.006 z m 0.006,0 c 0.514571,-6.6e-4 0.980821,-0.20974 1.316073,-0.54551 l 0.889555,0.88402 c -0.56539,0.56609 -1.346493,0.91745 -2.205601,0.91896 z m 1.316073,-0.54551 c 0.334205,-0.33499 0.543723,-0.80051 0.545217,-1.31228 l 1.257473,0.006 c -0.002,0.85381 -0.352092,1.62967 -0.913162,2.192 l -0.889528,-0.88399 z m 1.802696,-1.31027 v 0.002 l -0.628696,-0.002 z m -1.257473,0 v -0.01 h 1.257473 v 0.01"
       style="fill:#000000;fill-opacity:1;fill-rule:nonzero;stroke:none;stroke-width:0;stroke-miterlimit:4;stroke-dasharray:none"
       id="path876" />
    <path
       d="m 91.983512,209.99886 0.04413,-0.0229 0.560344,1.12494 -0.04413,0.0228 -0.56033,-1.12517 z m 0.606604,1.1008 -0.002,0.002 -0.280166,-0.56262 z m -0.564611,-1.12065 c 0.514777,-0.26028 1.000941,-0.55956 1.450112,-0.89254 l 0.746929,1.00671 c -0.51029,0.37776 -1.057027,0.71575 -1.632444,1.00648 z m 1.450112,-0.89254 c 0.450398,-0.3335 0.871662,-0.70492 1.25672,-1.10558 l 0.903855,0.86966 c -0.430584,0.44763 -0.903855,0.86539 -1.413646,1.24263 z m 1.25672,-1.10558 c 1.968422,-2.04689 3.016883,-4.88623 2.761118,-7.82895 l 1.25746,-0.10845 c 0.287945,3.30485 -0.894562,6.49856 -3.114723,8.80701"
       style="fill:#000000;fill-opacity:1;fill-rule:nonzero;stroke:none;stroke-width:0;stroke-miterlimit:4;stroke-dasharray:none"
       id="path878" />
    <path
       d="m 100.61147,196.72434 -0.0441,0.0229 -0.56033,-1.12491 0.0442,-0.0229 0.56033,1.12517 z m -0.60938,-1.10079 0.006,-0.002 0.28017,0.56262 z m 0.5704,1.12064 c -0.17902,0.092 -0.34306,0.19313 -0.48642,0.30078 l -0.751212,-1.00221 c 0.214512,-0.16125 0.438358,-0.30226 0.667192,-0.41925 z m -0.48642,0.30078 c -0.149562,0.11185 -0.291494,0.23888 -0.420534,0.37419 l -0.908135,-0.86387 c 0.174453,-0.18336 0.369205,-0.35666 0.57745,-0.51257 z m -0.420534,0.37419 c -0.653083,0.6858 -1.000168,1.63771 -0.914675,2.62432 l -1.257466,0.10845 c -0.116986,-1.346 0.362931,-2.65 1.264006,-3.59659"
       style="fill:#000000;fill-opacity:1;fill-rule:nonzero;stroke:none;stroke-width:0;stroke-miterlimit:4;stroke-dasharray:none"
       id="path880" />
    <path
       d="m 107.67213,215.1761 -0.009,0.006 -0.46624,-1.16491 0.009,-0.006 z m -0.009,0.006 c -0.64788,0.26078 -1.32086,0.53668 -2.00894,0.82188 l -0.48248,-1.15974 c 0.65237,-0.27011 1.32737,-0.54679 2.0245,-0.82766 z m -2.00894,0.82188 c -0.67068,0.27817 -1.33943,0.56034 -2.00313,0.84327 l -0.4919,-1.15487 c 0.67069,-0.28644 1.34372,-0.57017 2.01321,-0.84752 z m -2.00313,0.84327 c -3.41703,1.45789 -6.802375,3.0086 -10.150236,4.64883 l -0.550931,-1.12982 c 3.355662,-1.64401 6.760383,-3.20378 10.208587,-4.67449"
       style="fill:#000000;fill-opacity:1;fill-rule:nonzero;stroke:none;stroke-width:0;stroke-miterlimit:4;stroke-dasharray:none"
       id="path882" />
    <path
       d="m 107.21291,214.00893 0.0229,-0.008 0.4519,1.16919 -0.0229,0.008 z m 0.48413,1.15861 -0.009,0.002 -0.22584,-0.58443 z m -0.472,-1.1649 c 0.71524,-0.28943 1.3988,-0.62521 2.04388,-1.00095 l 0.62898,1.08494 c -0.70669,0.41141 -1.44306,0.77358 -2.20081,1.08091 z m 2.04388,-1.00095 c 0.63803,-0.3707 1.25846,-0.79497 1.85349,-1.26475 l 0.78139,0.98811 c -0.62171,0.49039 -1.29242,0.94686 -2.00591,1.36158 z m 1.85344,-1.26475 c 3.00862,-2.37461 5.10656,-5.78861 5.81375,-9.65105 l 1.23334,0.22537 c -0.76353,4.1725 -3.02471,7.85584 -6.2657,10.41379"
       style="fill:#000000;fill-opacity:1;fill-rule:nonzero;stroke:none;stroke-width:0;stroke-miterlimit:4;stroke-dasharray:none"
       id="path884" />
    <path
       d="m 101.0287,216.66946 h 40.86229 v 1.2577 H 101.0287"
       style="fill:#000000;fill-opacity:1;fill-rule:nonzero;stroke:none;stroke-width:0;stroke-miterlimit:4;stroke-dasharray:none"
       id="path886" />
    <path
       d="m 110.4466,224.96117 c 0,-2.61702 -2.12158,-4.73862 -4.73787,-4.73862 -2.61704,0 -4.73788,2.1216 -4.73788,4.73862 0,2.61628 2.12084,4.73787 4.73788,4.73787 2.61629,0 4.73787,-2.12159 4.73787,-4.73787"
       style="fill:#ffd200;fill-opacity:1;fill-rule:evenodd;stroke:none;stroke-width:0;stroke-miterlimit:4;stroke-dasharray:none"
       id="path888" />
    <path
       d="m 109.81786,224.96117 v -0.006 h 1.25747 v 0.006 z m 0,-0.006 c -6.5e-4,-1.13197 -0.46274,-2.16006 -1.20539,-2.90273 l 0.88953,-0.88978 c 0.96951,0.96951 1.57207,2.31196 1.57333,3.79251 z m -0.31866,-3.79251 h 0.002 l -0.44464,0.44492 0.44186,-0.44492 z m -0.884,0.88978 c -0.74136,-0.74015 -1.7657,-1.19987 -2.89566,-1.20213 v -1.25748 c 1.47501,0.002 2.8117,0.60311 3.77969,1.56983 z m -2.89566,-1.20213 h -0.009 v -1.25748 h 0.009 z m -0.009,0 h -0.006 v -1.25748 h 0.006 z m -0.006,0 c -1.13424,6.6e-4 -2.16133,0.46045 -2.90198,1.20263 l -0.88978,-0.884 c 0.97102,-0.97225 2.31323,-1.57459 3.79176,-1.57611 z m -2.90198,1.20263 c -0.74014,0.74141 -1.19986,1.76599 -1.20213,2.89669 h -1.25747 c 0.002,-1.47576 0.60311,-2.81242 1.56982,-3.78069 z m -1.20213,2.89669 v 0.009 h -1.25747 v -0.009 z m 0,0.009 v 0.006 h -1.25747 v -0.006 z m 0,0.006 c 6.6e-4,1.13348 0.46124,2.16158 1.20264,2.90223 l -0.88401,0.88954 c -0.97242,-0.97137 -1.57475,-2.31383 -1.57625,-3.7916 z m 1.20264,2.90223 c 0.74089,0.7399 1.76597,1.19962 2.89594,1.20189 v 1.25746 c -1.47501,-0.002 -2.81246,-0.6031 -3.77995,-1.56981 z m 2.89594,1.20189 h 0.009 v 1.25746 h -0.009 z m 0.009,0 h 0.006 v 1.25746 h -0.006 z m 0.006,0 c 1.13147,-6.5e-4 2.15931,-0.46274 2.90224,-1.20541 l 0.88978,0.88953 c -0.96976,0.9695 -2.31198,1.57208 -3.79202,1.57334 z m 3.79202,-0.31866 v 0.002 l -0.44493,-0.44491 0.44493,0.44213 z m -0.88978,-0.88402 c 0.73987,-0.74141 1.19986,-1.76598 1.20188,-2.89567 h 1.25744 c -0.002,1.47476 -0.6031,2.81143 -1.56954,3.77969 z m 1.20188,-2.89567 v -0.009 h 1.25744 v 0.009"
       style="fill:#000000;fill-opacity:1;fill-rule:nonzero;stroke:none;stroke-width:0;stroke-miterlimit:4;stroke-dasharray:none"
       id="path890" />
    <path
       d="m 129.29773,224.96117 c 0,-2.61702 -2.12159,-4.73862 -4.73785,-4.73862 -2.61704,0 -4.73863,2.1216 -4.73863,4.73862 0,2.61628 2.12159,4.73787 4.73863,4.73787 2.61626,0 4.73785,-2.12159 4.73785,-4.73787"
       style="fill:#ffd200;fill-opacity:1;fill-rule:evenodd;stroke:none;stroke-width:0;stroke-miterlimit:4;stroke-dasharray:none"
       id="path892" />
    <path
       d="m 128.669,224.96117 v -0.006 h 1.25747 v 0.006 z m 0,-0.006 c -6.6e-4,-1.13197 -0.46274,-2.16006 -1.20565,-2.90273 l 0.88978,-0.88978 c 0.96949,0.96951 1.57184,2.31196 1.57334,3.79251 z m -0.31866,-3.79251 h 0.002 l -0.44491,0.44492 0.44213,-0.44492 z m -0.884,0.88978 c -0.74141,-0.74015 -1.76599,-1.19987 -2.89594,-1.20213 v -1.25748 c 1.47501,0.002 2.81168,0.60311 3.77994,1.56983 z m -2.89594,-1.20213 h -0.009 v -1.25748 h 0.009 z m -0.009,0 h -0.006 v -1.25748 h 0.006 z m -0.006,0 c -1.13424,6.6e-4 -2.16234,0.46124 -2.90299,1.20263 l -0.88952,-0.884 c 0.97152,-0.97225 2.31323,-1.57459 3.79251,-1.57611 z m -2.90299,1.20263 c -0.73989,0.74141 -1.19986,1.76599 -1.20188,2.89669 h -1.25746 c 0.002,-1.47576 0.60311,-2.81242 1.56982,-3.78069 z m -1.20188,2.89669 v 0.009 h -1.25746 v -0.009 z m 0,0.009 v 0.006 h -1.25746 v -0.006 z m 0,0.006 c 6.6e-4,1.13348 0.46125,2.16158 1.20264,2.90223 l -0.884,0.88954 c -0.97239,-0.97137 -1.57498,-2.31383 -1.57624,-3.7916 z m 1.20264,2.90223 c 0.74141,0.7399 1.76573,1.19962 2.89644,1.20189 v 1.25746 c -1.47576,-0.002 -2.81218,-0.6031 -3.78044,-1.56981 z m 2.89644,1.20189 h 0.009 v 1.25746 h -0.009 z m 0.009,0 h 0.006 v 1.25746 h -0.006 z m 0.006,0 c 1.13121,-6.5e-4 2.15932,-0.46274 2.90196,-1.20541 l 0.88981,0.88953 c -0.96951,0.9695 -2.31199,1.57208 -3.79177,1.57334 z m 3.79177,-0.31866 v 0.002 l -0.44493,-0.44491 0.44493,0.44213 z m -0.88978,-0.88383 c 0.74015,-0.7414 1.19989,-1.76597 1.20215,-2.89568 h 1.25746 c -0.002,1.47477 -0.60311,2.81144 -1.56981,3.7797 z m 1.20215,-2.89568 v -0.009 h 1.25746 v 0.009"
       style="fill:#000000;fill-opacity:1;fill-rule:nonzero;stroke:none;stroke-width:0;stroke-miterlimit:4;stroke-dasharray:none"
       id="path894" />
    <path
       d="m 114.93927,208.21402 c 0.22177,0.0663 0.44334,0.12904 0.66292,0.18806 l -0.32367,1.21319 c -0.23361,-0.0628 -0.469,-0.12959 -0.69841,-0.19817 z m 0.66292,0.18806 c 0.34882,0.0933 0.68451,0.17751 1.00395,0.24943 l -0.27538,1.22329 c -0.36643,-0.0828 -0.71853,-0.1696 -1.05226,-0.25957 z m 1.00395,0.24943 c 0.33778,0.0755 0.67576,0.14544 1.01225,0.20747 l -0.22534,1.23333 c -0.35638,-0.0656 -0.71226,-0.13903 -1.06231,-0.21751 z m 1.01225,0.20747 c 1.5761,0.2895 3.18793,0.4313 4.8078,0.42202 l 0.006,1.25746 c -1.68324,0.009 -3.37126,-0.1403 -5.03738,-0.44613"
       style="fill:#000000;fill-opacity:1;fill-rule:nonzero;stroke:none;stroke-width:0;stroke-miterlimit:4;stroke-dasharray:none"
       id="path896" />
    <path
       d="m 122.42621,209.28111 c 0.22228,-6.6e-4 0.43558,-0.0136 0.63148,-0.0321 l 0.12825,1.24766 c -0.26078,0.0264 -0.51379,0.0407 -0.7555,0.0421 l -0.006,-1.25745 z m 0.63148,-0.0321 h 0.002 l 0.0613,0.62392 -0.0642,-0.62392 z m 0.002,0 c 0.35438,-0.0349 0.70719,-0.10033 1.05174,-0.19091 l 0.31916,1.2132 c -0.40264,0.10634 -0.82111,0.18257 -1.24814,0.22534 z m 1.05174,-0.19091 c 0.33848,-0.0892 0.67347,-0.20746 0.99591,-0.34932 l 0.50601,1.14908 c -0.37776,0.16689 -0.77485,0.30582 -1.18278,0.41348 z m 0.99591,-0.34932 c 1.51976,-0.67019 2.77371,-1.89197 3.46532,-3.4711 l 1.14906,0.50046 c -0.82111,1.87563 -2.30769,3.32547 -4.10837,4.11969"
       style="fill:#000000;fill-opacity:1;fill-rule:nonzero;stroke:none;stroke-width:0;stroke-miterlimit:4;stroke-dasharray:none"
       id="path898" />
    <path
       d="m 148.8616,211.73342 -41.26869,-11.70775 0.33927,-1.20916 41.26869,11.70798"
       style="fill:#000000;fill-opacity:1;fill-rule:nonzero;stroke:none;stroke-width:0;stroke-miterlimit:4;stroke-dasharray:none"
       id="path900" />
    <path
       d="m 77.535253,231.91696 h 57.462067 v 1.25745 H 77.535253"
       style="fill:#000000;fill-opacity:1;fill-rule:nonzero;stroke:none;stroke-width:0;stroke-miterlimit:4;stroke-dasharray:none"
       id="path902" />
    <path
       d="m 90.799999,244.40533 h 42.606131 v 1.25747 H 90.799999"
       style="fill:#000000;fill-opacity:1;fill-rule:nonzero;stroke:none;stroke-width:0;stroke-miterlimit:4;stroke-dasharray:none"
       id="path904" />
    <path
       d="m 110.7181,240.13551 -4.64924,4.58695 -0.87971,-0.8938 4.64922,-4.58721"
       style="fill:#000000;fill-opacity:1;fill-rule:nonzero;stroke:none;stroke-width:0;stroke-miterlimit:4;stroke-dasharray:none"
       id="path906"
       sodipodi:nodetypes="cccc" />
    <path
       d="m 101.85838,239.68809 4.64973,4.58776 -0.87973,0.89379 -4.64972,-4.58749"
       style="fill:#000000;fill-opacity:1;fill-rule:nonzero;stroke:none;stroke-width:0;stroke-miterlimit:4;stroke-dasharray:none"
       id="path908"
       sodipodi:nodetypes="cccc" />
    <path
       d="m 102.29812,240.13551 -4.649993,4.58695 -0.879715,-0.8938 4.649978,-4.58721"
       style="fill:#000000;fill-opacity:1;fill-rule:nonzero;stroke:none;stroke-width:0;stroke-miterlimit:4;stroke-dasharray:none"
       id="path910"
       sodipodi:nodetypes="cccc" />
    <path
       d="m 93.437657,239.68809 4.650475,4.58776 -0.879729,0.89379 -4.650467,-4.58749"
       style="fill:#000000;fill-opacity:1;fill-rule:nonzero;stroke:none;stroke-width:0;stroke-miterlimit:4;stroke-dasharray:none"
       id="path912"
       sodipodi:nodetypes="cccc" />
    <path
       d="m 119.13807,240.13551 -4.64924,4.58695 -0.87971,-0.8938 4.64922,-4.58721"
       style="fill:#000000;fill-opacity:1;fill-rule:nonzero;stroke:none;stroke-width:0;stroke-miterlimit:4;stroke-dasharray:none"
       id="path914"
       sodipodi:nodetypes="cccc" />
    <path
       d="m 110.27836,239.68809 4.64972,4.14057 -0.87973,0.8938 -4.64971,-4.14031"
       style="fill:#000000;fill-opacity:1;fill-rule:nonzero;stroke:none;stroke-width:0;stroke-miterlimit:4;stroke-dasharray:none"
       id="path916"
       sodipodi:nodetypes="cccc" />
    <path
       d="m 127.55992,240.13551 -4.65036,4.58695 -0.87972,-0.8938 4.65036,-4.58721"
       style="fill:#000000;fill-opacity:1;fill-rule:nonzero;stroke:none;stroke-width:0;stroke-miterlimit:4;stroke-dasharray:none"
       id="path918"
       sodipodi:nodetypes="cccc" />
    <path
       d="m 118.69908,239.68809 4.65086,4.14057 -0.87972,0.8938 -4.65085,-4.14031"
       style="fill:#000000;fill-opacity:1;fill-rule:nonzero;stroke:none;stroke-width:0;stroke-miterlimit:4;stroke-dasharray:none"
       id="path920"
       sodipodi:nodetypes="cccc" />
    <path
       d="m 134.31426,241.78754 -2.9842,2.93492 -0.87973,-0.8938 2.9842,-2.93491"
       style="fill:#000000;fill-opacity:1;fill-rule:nonzero;stroke:none;stroke-width:0;stroke-miterlimit:4;stroke-dasharray:none"
       id="path922" />
    <path
       d="m 127.11982,239.68809 4.65009,4.58776 -0.87972,0.89379 -4.6501,-4.58749"
       style="fill:#000000;fill-opacity:1;fill-rule:nonzero;stroke:none;stroke-width:0;stroke-miterlimit:4;stroke-dasharray:none"
       id="path924"
       sodipodi:nodetypes="cccc" />
    <path
       d="m 110.7181,233.75452 -4.64924,4.58757 -0.87971,-0.8938 4.64922,-4.58783"
       style="fill:#000000;fill-opacity:1;fill-rule:nonzero;stroke:none;stroke-width:0;stroke-miterlimit:4;stroke-dasharray:none"
       id="path926"
       sodipodi:nodetypes="cccc" />
    <path
       d="m 101.85838,233.30771 4.64973,4.58714 -0.87973,0.89378 -4.64972,-4.58686"
       style="fill:#000000;fill-opacity:1;fill-rule:nonzero;stroke:none;stroke-width:0;stroke-miterlimit:4;stroke-dasharray:none"
       id="path928"
       sodipodi:nodetypes="cccc" />
    <path
       d="m 102.29812,233.75452 -4.649993,4.58757 -0.879715,-0.8938 4.649978,-4.58783"
       style="fill:#000000;fill-opacity:1;fill-rule:nonzero;stroke:none;stroke-width:0;stroke-miterlimit:4;stroke-dasharray:none"
       id="path930"
       sodipodi:nodetypes="cccc" />
    <path
       d="m 93.437657,233.30771 4.650475,4.58714 -0.879729,0.89378 -4.650467,-4.58686"
       style="fill:#000000;fill-opacity:1;fill-rule:nonzero;stroke:none;stroke-width:0;stroke-miterlimit:4;stroke-dasharray:none"
       id="path932"
       sodipodi:nodetypes="cccc" />
    <path
       d="m 119.13807,233.75452 -4.64924,4.58757 -0.87971,-0.8938 4.64922,-4.58783"
       style="fill:#000000;fill-opacity:1;fill-rule:nonzero;stroke:none;stroke-width:0;stroke-miterlimit:4;stroke-dasharray:none"
       id="path934"
       sodipodi:nodetypes="cccc" />
    <path
       d="m 110.27836,233.30771 4.64972,4.58714 -0.87973,0.89378 -4.64971,-4.58686"
       style="fill:#000000;fill-opacity:1;fill-rule:nonzero;stroke:none;stroke-width:0;stroke-miterlimit:4;stroke-dasharray:none"
       id="path936"
       sodipodi:nodetypes="cccc" />
    <path
       d="m 127.55992,233.75452 -4.65036,4.58757 -0.87972,-0.8938 4.65036,-4.58783"
       style="fill:#000000;fill-opacity:1;fill-rule:nonzero;stroke:none;stroke-width:0;stroke-miterlimit:4;stroke-dasharray:none"
       id="path938"
       sodipodi:nodetypes="cccc" />
    <path
       d="m 118.69908,233.30771 4.65086,4.58714 -0.87972,0.89378 -4.65085,-4.58686"
       style="fill:#000000;fill-opacity:1;fill-rule:nonzero;stroke:none;stroke-width:0;stroke-miterlimit:4;stroke-dasharray:none"
       id="path940"
       sodipodi:nodetypes="cccc" />
    <path
       d="m 135.23976,234.49753 -3.9097,3.84456 -0.87973,-0.8938 3.90971,-3.84483"
       style="fill:#000000;fill-opacity:1;fill-rule:nonzero;stroke:none;stroke-width:0;stroke-miterlimit:4;stroke-dasharray:none"
       id="path942" />
    <path
       d="m 127.11982,233.30771 4.65009,4.58714 -0.87972,0.89378 -4.6501,-4.58686"
       style="fill:#000000;fill-opacity:1;fill-rule:nonzero;stroke:none;stroke-width:0;stroke-miterlimit:4;stroke-dasharray:none"
       id="path944"
       sodipodi:nodetypes="cccc" />
    <path
       d="m 89.108948,154.37976 -5.503401,0.32665 -0.07414,-1.25771 5.503648,-0.32643"
       style="fill:#000000;fill-opacity:1;fill-rule:nonzero;stroke:none;stroke-width:0;stroke-miterlimit:4;stroke-dasharray:none"
       id="path946" />
    <path
       d="m 92.533789,211.12883 -0.01707,0.008 -0.540224,-1.13474 0.01707,-0.008 0.540457,1.13474 z m -0.568097,-1.12116 0.0092,-0.006 0.270112,0.56739 z m 0.560324,1.12493 c -1.068588,0.53389 -2.066002,1.16039 -2.981944,1.86054 l -0.761515,-0.99666 c 0.984594,-0.75273 2.048902,-1.42219 3.183149,-1.98881 z m -2.981944,1.86054 c -0.916934,0.70141 -1.760949,1.48507 -2.523724,2.33409 l -0.933802,-0.83997 c 0.809822,-0.90161 1.712177,-1.73781 2.696011,-2.49078 z m -2.523724,2.33409 c -3.910965,4.35361 -5.639729,10.42967 -4.32367,16.41141 l -1.227573,0.26961 c -1.405326,-6.38541 0.441844,-12.87215 4.617408,-17.52099"
       style="fill:#000000;fill-opacity:1;fill-rule:nonzero;stroke:none;stroke-width:0;stroke-miterlimit:4;stroke-dasharray:none"
       id="path948" />
    <path
       d="m 93.499017,221.49434 -0.07699,0.0379 -0.550284,-1.12919 0.07699,-0.0378 z m -0.632263,-1.0892 0.006,-0.002 0.275112,0.56461 z m 0.56033,1.12494 c -0.536163,0.26803 -1.042954,0.57665 -1.514238,0.91895 l -0.737123,-1.01655 c 0.528897,-0.38426 1.094994,-0.72932 1.691031,-1.02734 z m -1.514238,0.91895 c -0.474864,0.34504 -0.916688,0.72554 -1.319579,1.13347 l -0.893815,-0.87973 c 0.45547,-0.46195 0.950134,-0.88826 1.476271,-1.27029 z m -1.319579,1.13347 c -2.073809,2.09871 -3.232181,5.13677 -3.079535,8.19438 l -1.241114,0.0445 c -0.170312,-3.41024 1.108321,-6.77245 3.426834,-9.11863"
       style="fill:#000000;fill-opacity:1;fill-rule:nonzero;stroke:none;stroke-width:0;stroke-miterlimit:4;stroke-dasharray:none"
       id="path950"
       sodipodi:nodetypes="ccccccccccccccccccccccc" />
    <path
       d="m 78.749213,225.84593 -1.17898,-0.0785 -0.0172,0.46196 c -0.006,-0.0171 0.02,-0.45269 0.0172,-0.46196 l 1.179487,0.0792 z m -1.195853,0.38353 1.198386,-0.37348 -1.181513,-0.0884 z m 1.198386,-0.37348 c 0.08847,0.30227 0.192406,0.60431 0.308605,0.90187 l -1.168953,0.45617 c -0.12696,-0.32514 -0.237386,-0.64253 -0.337978,-0.98459 z m 0.308605,0.90187 c 0.115633,0.29727 0.244666,0.58799 0.383038,0.86814 l -1.124934,0.55455 c -0.156185,-0.31709 -0.300265,-0.64082 -0.427017,-0.96649 z m 0.383038,0.86814 c 0.716269,1.45212 1.750144,2.73901 3.031257,3.75704 l -0.781396,0.98234 c -1.425272,-1.13347 -2.576606,-2.56574 -3.374848,-4.18485"
       style="fill:#000000;fill-opacity:1;fill-rule:nonzero;stroke:none;stroke-width:0;stroke-miterlimit:4;stroke-dasharray:none"
       id="path952"
       sodipodi:nodetypes="cccccccccccccccccccccccc" />
    <path
       d="m 78.719307,226.26792 -1.440066,3.31418 -1.149067,-0.50046 1.440059,-3.31417"
       style="fill:#000000;fill-opacity:1;fill-rule:nonzero;stroke:none;stroke-width:0;stroke-miterlimit:4;stroke-dasharray:none"
       id="path954" />
    <path
       d="m 81.469105,232.00825 0.05633,-0.42752 1.124927,0.56034 -0.006,0.0136 z m 1.181274,0.13282 -1.119901,-0.57038 v 0 z m -1.119901,-0.57038 c 0.155419,-0.2965 0.302272,-0.58672 0.440651,-0.86767 l 1.12918,0.55051 c -0.151845,0.30932 -0.304265,0.61087 -0.454964,0.89732 z m 0.440651,-0.86767 c 0.163886,-0.33419 0.305832,-0.62948 0.419744,-0.87821 l 1.139267,0.52035 c -0.159752,0.34811 -0.303545,0.65165 -0.429811,0.90839 z m 0.419744,-0.87821 c 0.693143,-1.50771 1.288406,-3.06695 1.78033,-4.66293 l 1.19886,0.36771 c -0.505223,1.64123 -1.12066,3.25079 -1.839923,4.81557"
       style="fill:#000000;fill-opacity:1;fill-rule:nonzero;stroke:none;stroke-width:0;stroke-miterlimit:4;stroke-dasharray:none"
       id="path956"
       sodipodi:nodetypes="ccccccccccccccccccccccc" />
    <path
       d="m 86.273132,231.8214 -0.006,-0.0171 1.223246,-0.27938 0.006,0.0171 z m 1.218973,-0.30078 v 0.002 l -0.611583,0.1398 0.611583,-0.14258 z m -1.223247,0.28494 c -0.077,-0.32842 -0.151852,-0.62998 -0.220285,-0.8938 l 1.213453,-0.3151 c 0.08824,0.33847 0.165386,0.64659 0.230112,0.92397 z m -0.220285,-0.8938 c -0.0656,-0.25022 -0.148073,-0.54672 -0.245959,-0.88752 l 1.209187,-0.34382 c 0.07414,0.25758 0.158266,0.56461 0.250232,0.9162 z m 0.960448,-1.23406 0.002,0.002 -0.60461,0.17201 0.601823,-0.17487 z m -1.203393,0.34932 c -0.434791,-1.50268 -0.973275,-2.98348 -1.608298,-4.42856 l -0.0264,-0.43657 1.175207,-0.0691 c 0.652376,1.48357 1.20844,3.01691 1.662637,4.58523"
       style="fill:#000000;fill-opacity:1;fill-rule:nonzero;stroke:none;stroke-width:0;stroke-miterlimit:4;stroke-dasharray:none"
       id="path958"
       sodipodi:nodetypes="cccccccccccccccccccccccccccccc" />
    <path
       d="m 91.980746,254.43843 -1.820584,-9.36611 1.234367,-0.23993 1.820576,9.3661"
       style="fill:#000000;fill-opacity:1;fill-rule:nonzero;stroke:none;stroke-width:0;stroke-miterlimit:4;stroke-dasharray:none"
       id="path960" />
    <path
       d="m 90.205475,245.23577 -4.273121,-12.48839 1.189053,-0.40335 4.273122,12.48836"
       style="fill:#000000;fill-opacity:1;fill-rule:nonzero;stroke:none;stroke-width:0;stroke-miterlimit:4;stroke-dasharray:none"
       id="path962" />
    <path
       d="m 93.878148,240.13551 -3.338961,3.29679 -0.879709,-0.89405 3.338942,-3.2968"
       style="fill:#000000;fill-opacity:1;fill-rule:nonzero;stroke:none;stroke-width:0;stroke-miterlimit:4;stroke-dasharray:none"
       id="path964"
       sodipodi:nodetypes="cccc" />
    <path
       d="m 93.878148,233.75452 -4.972145,4.90419 -0.879734,-0.89405 4.972151,-4.9042"
       style="fill:#000000;fill-opacity:1;fill-rule:nonzero;stroke:none;stroke-width:0;stroke-miterlimit:4;stroke-dasharray:none"
       id="path966"
       sodipodi:nodetypes="cccc" />
  </g>
  <comment>value has to be sqrt(21)</comment>
</svg>
