<svg xmlns:dc="http://purl.org/dc/elements/1.1/" xmlns:cc="http://creativecommons.org/ns#" xmlns:rdf="http://www.w3.org/1999/02/22-rdf-syntax-ns#" xmlns:svg="http://www.w3.org/2000/svg" xmlns="http://www.w3.org/2000/svg" xmlns:sodipodi="http://sodipodi.sourceforge.net/DTD/sodipodi-0.dtd" xmlns:inkscape="http://www.inkscape.org/namespaces/inkscape" version="1.1" x="0px" y="0px" viewBox="0 0 100 125"><g transform="translate(0,-952.36218)"><path style="text-indent:0;text-transform:none;direction:ltr;block-progression:tb;baseline-shift:baseline;color:#000000;enable-background:accumulate;" d="m 50,957.36219 c -24.8171,0 -45,20.18285 -45,45.00001 0,24.8171 20.1829,45 45,45 24.8171,0 45,-20.1829 45,-45 0,-24.81716 -20.1829,-45.00001 -45,-45.00001 z m 0,6 c 21.5745,0 39,17.42555 39,39.00001 0,21.5744 -17.4255,39 -39,39 -21.5745,0 -39,-17.4256 -39,-39 0,-21.57446 17.4255,-39.00001 39,-39.00001 z m -15,20 0,38.00001 34,-19 -34,-19.00001 z" fill="#000000" fill-opacity="1" stroke="none" marker="none" visibility="visible" display="inline" overflow="visible"/></g></svg>